<svg xmlns="http://www.w3.org/2000/svg"  viewBox="0 0 50 50" width="50px" height="50px"><path d="M 7 3 C 4.8027056 3 3 4.8027056 3 7 C 3 9.1972944 4.8027056 11 7 11 C 9.1972944 11 11 9.1972944 11 7 C 11 4.8027056 9.1972944 3 7 3 z M 15 3 A 1.0001 1.0001 0 0 0 14 4 L 14 46 A 1.0001 1.0001 0 0 0 15 47 L 23 47 A 1.0001 1.0001 0 0 0 24 46 L 24 30 L 41 30 A 1.0001 1.0001 0 0 0 42 29 L 42 23 A 1.0001 1.0001 0 0 0 41 22 L 24 22 L 24 12 L 43 12 A 1.0001 1.0001 0 0 0 44 11 L 44 4 A 1.0001 1.0001 0 0 0 43 3 L 15 3 z M 7 5 C 8.1164141 5 9 5.8835859 9 7 C 9 8.1164141 8.1164141 9 7 9 C 5.8835859 9 5 8.1164141 5 7 C 5 5.8835859 5.8835859 5 7 5 z M 16 5 L 42 5 L 42 10 L 23 10 A 1.0001 1.0001 0 0 0 22 11 L 22 23 A 1.0001 1.0001 0 0 0 23 24 L 40 24 L 40 28 L 23 28 A 1.0001 1.0001 0 0 0 22 29 L 22 45 L 16 45 L 16 5 z"/></svg>