<?xml version="1.0"?><svg xmlns="http://www.w3.org/2000/svg"  viewBox="0 0 50 50" width="50px" height="50px">    <path d="M 25 2 C 12.32 2 2 12.32 2 25 C 2 30.98 4.2907813 36.429297 8.0507812 40.529297 L 9.4609375 39.119141 C 6.0809375 35.389141 4 30.43 4 25 C 4 13.755652 12.883163 4.5497266 24 4.0253906 L 24 8.0507812 C 17.847452 8.5609179 13 13.717322 13 20 C 13 21.786986 13.411081 23.474336 14.115234 25 L 8.015625 25 C 8.0953175 21.62404 9.1689743 18.379276 11.160156 15.580078 C 11.480156 15.130078 11.379687 14.509453 10.929688 14.189453 C 10.479687 13.859453 9.8492969 13.969922 9.5292969 14.419922 C 7.2192969 17.669922 6 21.460391 6 25.400391 C 6 30.180391 7.7694531 34.550625 10.689453 37.890625 L 12.119141 36.460938 C 11.529141 35.790938 10.999063 35.070547 10.539062 34.310547 L 14.269531 32.320312 C 14.539531 32.710312 14.830625 33.079453 15.140625 33.439453 L 16.550781 32.029297 C 16.150781 31.559297 15.800469 31.05 15.480469 30.5 C 15.210469 30.03 14.620391 29.859141 14.150391 30.119141 L 9.5898438 32.560547 C 8.7858024 30.842105 8.2680535 28.965454 8.0820312 27 L 15.263672 27 C 16.14082 28.21567 17.237793 29.264029 18.5 30.080078 L 19.949219 28.630859 C 18.45671 27.753506 17.214219 26.497872 16.345703 25 L 20 25 C 20 24.29 20.149922 23.61 20.419922 23 L 15.478516 23 C 15.178296 22.050197 15 21.04696 15 20 C 15 14.49 19.49 10 25 10 C 27.23 10 29.279219 10.740469 30.949219 11.980469 L 32.380859 10.550781 C 30.588126 9.1535036 28.392298 8.2432215 26 8.0429688 L 26 4.0351562 C 29.600025 4.2079102 32.957986 5.2937143 35.869141 7.0605469 L 36.310547 6.6191406 C 36.320547 6.6091406 36.329844 6.5996094 36.339844 6.5996094 C 36.519844 6.4196094 36.719922 6.2591406 36.919922 6.1191406 C 37.019922 6.0491406 37.130234 5.9992187 37.240234 5.9492188 C 37.350234 5.8892187 37.460078 5.8097656 37.580078 5.7597656 C 33.960078 3.3897656 29.64 2 25 2 z M 39.142578 7.4433594 C 38.630828 7.4433594 38.119016 7.6387969 37.728516 8.0292969 L 22.878906 22.878906 C 21.706906 24.050906 21.706906 25.949094 22.878906 27.121094 C 23.128067 27.370255 23.413938 27.555998 23.714844 27.699219 L 9.4433594 41.970703 C 10.224359 42.751703 11.490484 42.751703 12.271484 41.970703 L 27.121094 27.121094 C 28.293094 25.949094 28.293094 24.049906 27.121094 22.878906 C 26.87157 22.629383 26.584602 22.446009 26.283203 22.302734 L 40.556641 8.0292969 C 40.166141 7.6387969 39.654328 7.4433594 39.142578 7.4433594 z M 41.939453 9.4707031 L 40.509766 10.900391 C 43.909766 14.630391 46 19.57 46 25 C 46 36.58 36.58 46 25 46 C 21.02 46 17.289141 44.879219 14.119141 42.949219 L 13.689453 43.380859 C 13.309453 43.760859 12.880156 44.040234 12.410156 44.240234 C 16.030156 46.620234 20.36 48 25 48 C 37.68 48 48 37.68 48 25 C 48 19.02 45.699453 13.570703 41.939453 9.4707031 z M 39.818359 14.011719 C 39.564609 13.969219 39.295313 14.024453 39.070312 14.189453 C 38.620313 14.509453 38.519844 15.130078 38.839844 15.580078 C 40.831026 18.379276 41.904683 21.62404 41.984375 25 L 35.894531 25 C 36.59685 23.47549 37 21.785309 37 20 C 37 18.352 36.657734 16.787328 36.052734 15.361328 L 34.498047 16.916016 C 34.818047 17.889016 35 18.923 35 20 C 35 21.045268 34.829356 22.051275 34.529297 23 L 29.578125 23 C 29.846125 23.613 30 24.288 30 25 L 33.648438 25 C 32.298264 27.323322 30.043318 29.062281 27.369141 29.710938 L 25.080078 32 C 29.05084 31.975862 32.559931 30.002913 34.726562 27 L 41.917969 27 C 41.731946 28.965454 41.214198 30.842105 40.410156 32.560547 L 35.849609 30.119141 C 35.379609 29.869141 34.789531 30.03 34.519531 30.5 C 32.549531 33.89 28.9 36 25 36 C 23.84 36 22.699141 35.810938 21.619141 35.460938 L 20.070312 37.009766 C 21.620313 37.649766 23.29 38 25 38 C 29.29 38 33.320469 35.850313 35.730469 32.320312 L 39.460938 34.310547 C 36.470937 39.160547 31.11 42.400391 25 42.400391 C 22.03 42.400391 19.230781 41.629297 16.800781 40.279297 L 15.320312 41.75 C 18.160312 43.43 21.47 44.400391 25 44.400391 C 35.48 44.400391 44 35.880391 44 25.400391 C 44 21.460391 42.780703 17.669922 40.470703 14.419922 C 40.310703 14.194922 40.072109 14.054219 39.818359 14.011719 z M 25 24 C 25.154 24 25.452031 24.037969 25.707031 24.292969 C 25.962031 24.547969 26 24.845 26 25 C 26 25.155 25.961078 25.451031 25.705078 25.707031 C 25.451078 25.961031 25.154 26 25 26 C 24.846 26 24.548922 25.961031 24.294922 25.707031 L 24.292969 25.707031 C 24.037969 25.452031 24 25.155 24 25 C 24 24.845 24.038922 24.548969 24.294922 24.292969 C 24.548922 24.038969 24.846 24 25 24 z"/></svg>