<?xml version="1.0"?><svg xmlns="http://www.w3.org/2000/svg"  viewBox="0 0 50 50" width="50px" height="50px">    <path d="M47,8H27c-0.771,0-1.468,0.301-2,0.78C24.468,8.301,23.771,8,23,8H3c-1.654,0-3,1.346-3,3v30c0,1.654,1.346,3,3,3h19.779 c0.549,0.61,1.336,1,2.221,1s1.672-0.39,2.221-1H47c1.654,0,3-1.346,3-3V11C50,9.346,48.654,8,47,8z M3,42c-0.551,0-1-0.448-1-1V11 c0-0.551,0.449-1,1-1h20c0.551,0,1,0.449,1,1v4H7c-0.552,0-1,0.448-1,1v20c0,0.553,0.448,1,1,1h17v5h-2H3z M42,17v3h-7v-3H42z M26,35v-3h7v3H26z M8,35v-3h7v3H8z M8,27h7v3H8V27z M17,27h7v3h-7V27z M26,27h7v3h-7V27z M35,27h7v3h-7V27z M42,25h-7v-3h7V25z M33,25h-7v-3h7V25z M24,25h-7v-3h7V25z M15,25H8v-3h7V25z M8,20v-3h7v3H8z M17,32h7v3h-7V32z M35,32h7v3h-7V32z M33,20h-7v-3h7V20z M24,20h-7v-3h7V20z M48,41c0,0.552-0.448,1-1,1H28h-2v-5h17c0.553,0,1-0.447,1-1V16c0-0.552-0.447-1-1-1H26v-4c0-0.551,0.448-1,1-1 h20c0.552,0,1,0.449,1,1V41z"/></svg>