<svg xmlns="http://www.w3.org/2000/svg"  viewBox="0 0 50 50" width="50px" height="50px"><path d="M 25 0 C 19.504 3.959 18.356797 9.326 22.466797 12 C 21.678797 9.326 23.339 7.7714844 25 7.7714844 C 26.661 7.7714844 28.321203 9.325 27.533203 12 C 31.643203 9.326 30.496 3.959 25 0 z M 21 14 L 21 15 L 21 22 L 22 22 L 22 31 L 21 31 L 21 32 L 21 41.439453 L 11 47.539062 L 11 50 L 12 50 L 39 50 L 39 47.539062 L 29 41.439453 L 29 39 L 33 39 L 33 41 L 35 41 L 35 35 L 33 35 L 33 37 L 29 37 L 29 31 L 28 31 L 28 22 L 29 22 L 29 14 L 21 14 z M 23 16 L 27 16 L 27 20 L 23 20 L 23 16 z M 24 22 L 26 22 L 26 31 L 24 31 L 24 22 z M 23 33 L 27 33 L 27 41 L 23 41 L 23 33 z M 25 35 A 1 1 0 0 0 25 37 A 1 1 0 0 0 25 35 z M 22.28125 43 L 27.71875 43 L 35.914062 48 L 14.085938 48 L 22.28125 43 z"/></svg>