<svg xmlns="http://www.w3.org/2000/svg"  viewBox="0 0 50 50" width="50px" height="50px"><path d="M 3 6 L 3 9 L 2 9 L 2 11 L 3 11 L 3 26 L 2 26 L 2 28 L 3 28 L 3 45 L 20 45 L 22 45 L 37 45 L 39 45 L 47 45 L 47 43 L 39 43 L 39 41 L 37 41 L 37 43 L 22 43 L 22 41 L 20 41 L 20 43 L 9.09375 43 C 9.8834953 41.806034 10.440848 40.465933 10.716797 39.046875 L 13.027344 27.169922 C 14.187247 21.202185 19.313107 16.843159 25.390625 16.658203 L 47.03125 16 L 46.96875 14 L 25.330078 14.660156 C 18.329596 14.8732 12.398597 19.914799 11.0625 26.789062 L 8.7539062 38.666016 C 8.4376153 40.292536 7.6612921 41.782761 6.5449219 43 L 5 43 L 5 28 L 6 28 L 6 26 L 5 26 L 5 11 L 6 11 L 6 9 L 5 9 L 5 6 L 3 6 z"/></svg>