<svg xmlns="http://www.w3.org/2000/svg"  viewBox="0 0 50 50" width="50px" height="50px"><path d="M 6 0 C 4.7500003 0 3.6852256 0.50475559 3.0019531 1.2734375 C 2.3186806 2.0421194 2 3.0277779 2 4 C 2 4.9722221 2.3186806 5.9578806 3.0019531 6.7265625 C 3.6852256 7.4952444 4.7500003 8 6 8 C 7.2499997 8 8.3147744 7.4952444 8.9980469 6.7265625 C 9.6813194 5.9578806 10 4.9722221 10 4 C 10 3.0277779 9.6813194 2.0421194 8.9980469 1.2734375 C 8.3147744 0.50475559 7.2499997 0 6 0 z M 6 2 C 6.7499995 2 7.1852261 2.2452444 7.5019531 2.6015625 C 7.8186802 2.9578806 8 3.4722221 8 4 C 8 4.5277779 7.8186802 5.0421194 7.5019531 5.3984375 C 7.1852261 5.7547556 6.7499995 6 6 6 C 5.2500005 6 4.8147739 5.7547556 4.4980469 5.3984375 C 4.1813198 5.0421194 4 4.5277779 4 4 C 4 3.4722221 4.1813198 2.9578806 4.4980469 2.6015625 C 4.8147739 2.2452444 5.2500005 2 6 2 z M 6 10 C 5.448 10 5 10.448 5 11 L 5 14 C 5 14.552 5.448 15 6 15 C 6.552 15 7 14.552 7 14 L 7 11 C 7 10.448 6.552 10 6 10 z M 6 17 C 5.448 17 5 17.448 5 18 L 5 21 C 5 21.552 5.448 22 6 22 C 6.552 22 7 21.552 7 21 L 7 18 C 7 17.448 6.552 17 6 17 z M 44 20 C 42.75 20 41.685226 20.504756 41.001953 21.273438 C 40.318681 22.042119 40 23.027778 40 24 C 40 24.972222 40.318681 25.957882 41.001953 26.726562 C 41.685226 27.495244 42.75 28 44 28 C 45.25 28 46.314774 27.495244 46.998047 26.726562 C 47.681319 25.957881 48 24.972222 48 24 C 48 23.027778 47.681319 22.042118 46.998047 21.273438 C 46.314774 20.504756 45.25 20 44 20 z M 44 22 C 44.749999 22 45.185226 22.245244 45.501953 22.601562 C 45.81868 22.957881 46 23.472222 46 24 C 46 24.527778 45.81868 25.042118 45.501953 25.398438 C 45.185226 25.754756 44.749999 26 44 26 C 43.250001 26 42.814774 25.754756 42.498047 25.398438 C 42.18132 25.042119 42 24.527778 42 24 C 42 23.472222 42.18132 22.957882 42.498047 22.601562 C 42.814774 22.245244 43.250001 22 44 22 z M 6 24 C 5.448 24 5 24.448 5 25 L 5 28 C 5 28.552 5.448 29 6 29 C 6.552 29 7 28.552 7 28 L 7 25 C 7 24.448 6.552 24 6 24 z M 9.7324219 25.044922 A 1.0003223 1.0003223 0 1 0 9.6816406 27.044922 C 14.177741 27.383501 18.129116 29.643236 20.738281 33 L 18 33 A 1.0001 1.0001 0 1 0 18 35 L 22.78125 35 L 23 35 A 1.0001 1.0001 0 0 0 24 34 L 24 29 A 1.0001 1.0001 0 0 0 22.984375 27.986328 A 1.0001 1.0001 0 0 0 22 29 L 22 31.369141 C 19.054442 27.801652 14.72295 25.419093 9.8320312 25.050781 A 1.0001 1.0001 0 0 0 9.7324219 25.044922 z M 37.863281 27.261719 C 37.735422 27.284688 37.609891 27.332703 37.494141 27.408203 L 34.980469 29.048828 C 34.518469 29.350828 34.387453 29.968641 34.689453 30.431641 C 34.990453 30.893641 35.611219 31.024656 36.074219 30.722656 L 38.587891 29.083984 C 39.049891 28.781984 39.180906 28.162219 38.878906 27.699219 C 38.652406 27.352719 38.246859 27.192812 37.863281 27.261719 z M 6 31 C 5.448 31 5 31.448 5 32 L 5 35 C 5 35.552 5.448 36 6 36 C 6.552 36 7 35.552 7 35 L 7 32 C 7 31.448 6.552 31 6 31 z M 32 31.085938 C 31.872141 31.108906 31.746609 31.156922 31.630859 31.232422 L 29.117188 32.871094 C 28.655188 33.173094 28.524172 33.792859 28.826172 34.255859 C 29.128172 34.718859 29.747937 34.848875 30.210938 34.546875 L 32.722656 32.90625 C 33.184656 32.60425 33.315672 31.986438 33.013672 31.523438 C 32.787172 31.176938 32.383578 31.017031 32 31.085938 z M 26.136719 34.908203 C 26.008859 34.931172 25.883328 34.981141 25.767578 35.056641 L 23.253906 36.695312 C 22.791906 36.997312 22.660891 37.615125 22.962891 38.078125 C 23.263891 38.540125 23.884656 38.671141 24.347656 38.369141 L 26.859375 36.730469 C 27.321375 36.428469 27.452391 35.810656 27.150391 35.347656 C 26.923891 35.001156 26.520297 34.839297 26.136719 34.908203 z M 6 38 C 5.448 38 5 38.448 5 39 L 5 42 C 5 42.552 5.448 43 6 43 C 6.552 43 7 42.552 7 42 L 7 39 C 7 38.448 6.552 38 6 38 z M 20.271484 38.732422 C 20.143625 38.755391 20.018094 38.803406 19.902344 38.878906 L 17.390625 40.517578 C 16.928625 40.819578 16.797609 41.439344 17.099609 41.902344 C 17.401609 42.365344 18.019422 42.495359 18.482422 42.193359 L 20.996094 40.554688 C 21.458094 40.252688 21.589109 39.632922 21.287109 39.169922 C 21.060609 38.823422 20.655062 38.663516 20.271484 38.732422 z M 14.408203 42.556641 C 14.280344 42.579609 14.154813 42.627625 14.039062 42.703125 L 11.527344 44.341797 C 11.065344 44.643797 10.934328 45.263562 11.236328 45.726562 C 11.537328 46.189563 12.156141 46.319578 12.619141 46.017578 L 15.132812 44.378906 C 15.594813 44.076906 15.725828 43.457141 15.423828 42.994141 C 15.197328 42.647641 14.791781 42.487734 14.408203 42.556641 z M 6 45 C 5.448 45 5 45.448 5 46 L 5 49 C 5 49.552 5.448 50 6 50 C 6.0290664 50 6.0535918 49.986809 6.0820312 49.984375 C 6.3099896 50.014073 6.5479853 49.975882 6.7558594 49.839844 L 9.2695312 48.201172 C 9.7315312 47.899172 9.8625469 47.279406 9.5605469 46.816406 C 9.2585469 46.354406 8.6387812 46.223391 8.1757812 46.525391 L 7 47.291016 L 7 46 C 7 45.448 6.552 45 6 45 z"/></svg>