<svg xmlns="http://www.w3.org/2000/svg"  viewBox="0 0 50 50" width="50px" height="50px"><path d="M 38.054688 0.50976562 C 37.780687 0.47976563 37.533906 0.67717187 37.503906 0.95117188 L 37.5 0.97460938 C 37.385 2.0216094 37.167531 3.1045781 36.894531 4.1425781 C 36.617531 5.1855781 36.268563 6.2045469 35.851562 7.1855469 C 35.437563 8.1695469 34.917797 9.0929375 34.341797 9.9609375 C 33.786107 10.788743 33.117745 11.51234 32.412109 12.171875 C 29.492735 13.607597 27.621228 13.803937 25.966797 13.378906 C 24.400702 12.97657 22.892249 11.909665 21.007812 10.501953 C 21.035829 9.4555319 21.365498 8.3502698 21.664062 7.0800781 C 21.821062 6.3500781 21.932641 5.4873437 21.681641 4.6523438 C 21.442641 3.8183437 20.912516 3.1604844 20.353516 2.6464844 C 20.169516 2.4774844 19.883453 2.4677656 19.689453 2.6347656 C 19.479453 2.8137656 19.454766 3.1298438 19.634766 3.3398438 L 19.646484 3.3535156 C 20.068484 3.8465156 20.379844 4.3855 20.464844 4.9375 C 20.562844 5.4865 20.428797 6.0684531 20.216797 6.6894531 C 20.101432 7.0184157 19.957527 7.3989124 19.820312 7.7558594 C 19.180535 6.9078968 18.452963 6.2644902 17.810547 5.6191406 C 17.148547 4.9631406 16.564016 4.2973437 16.166016 3.5273438 C 15.762016 2.7623437 15.559 1.9 15.5 1 L 15.498047 0.97851562 C 15.481047 0.72451562 15.273672 0.52067188 15.013672 0.51367188 C 14.737672 0.50667187 14.507 0.724 14.5 1 C 14.474 2.018 14.62025 3.0776875 15.03125 4.0546875 C 15.43225 5.0346875 16.067125 5.8857187 16.703125 6.6367188 C 17.339125 7.3897188 17.982063 8.0750625 18.414062 8.7890625 C 18.645167 9.1608159 18.803067 9.5376749 18.898438 9.921875 C 18.558166 9.8550515 18.223981 9.7487568 17.894531 9.59375 C 17.216531 9.27475 16.563578 8.76875 15.892578 8.21875 C 15.221578 7.66975 14.520609 7.0760312 13.724609 6.5820312 C 12.932609 6.0850313 12.042094 5.707625 11.121094 5.515625 C 10.873094 5.464625 10.619969 5.6084687 10.542969 5.8554688 C 10.459969 6.1194688 10.605141 6.3994219 10.869141 6.4824219 L 10.878906 6.484375 C 11.657906 6.728375 12.371531 7.1152812 13.019531 7.6132812 C 13.671531 8.1092812 14.260672 8.7080312 14.888672 9.3320312 C 15.516672 9.9520313 16.193547 10.612813 17.060547 11.132812 C 17.634083 11.48039 18.29391 11.722362 18.970703 11.863281 C 18.838204 13.903927 18.223318 15.600571 17.066406 17.048828 C 15.794862 18.640588 13.816949 19.953548 10.978516 20.943359 C 10.864087 20.906046 10.749617 20.869034 10.634766 20.832031 C 10.153326 20.618186 9.688049 20.269091 9.2597656 19.820312 C 8.6507656 19.188313 8.1111719 18.416234 7.5761719 17.615234 C 7.0381719 16.813234 6.518375 15.967156 5.859375 15.160156 C 5.520375 14.763156 5.1636875 14.359969 4.6796875 14.042969 C 4.2336875 13.689969 3.6 13.519 3 13.5 C 2.737 13.492 2.5083281 13.692031 2.4863281 13.957031 C 2.4643281 14.231031 2.6693594 14.471141 2.9433594 14.494141 L 3 14.5 C 3.735 14.561 4.3522344 15.170922 4.8652344 15.919922 C 5.3802344 16.670922 5.8189219 17.530578 6.2949219 18.392578 C 6.5909611 18.92818 6.9013284 19.471227 7.2519531 20.007812 C 7.0126065 19.975249 6.7777809 19.933927 6.53125 19.916016 C 5.66125 19.862016 4.7163438 19.979172 3.9023438 20.326172 C 3.0883437 20.667172 2.4041875 21.128312 1.7421875 21.570312 C 1.5331875 21.713312 1.4580781 21.994656 1.5800781 22.222656 C 1.7110781 22.466656 2.0138125 22.558734 2.2578125 22.427734 C 2.9548125 22.058734 3.6423125 21.705859 4.3203125 21.505859 C 4.9973125 21.303859 5.6739531 21.295203 6.3769531 21.408203 C 7.5218837 21.609724 8.6809547 22.08212 9.8320312 22.587891 C 9.9935371 22.674291 10.170884 22.73798 10.345703 22.806641 C 10.367865 22.816609 10.38996 22.825956 10.412109 22.835938 C 13.037564 25.54654 13.437135 28.767121 11.787109 32.400391 C 11.325389 32.507528 10.857286 32.484732 10.310547 32.298828 C 9.4745469 32.040828 8.5034687 31.394328 7.2304688 31.236328 C 6.9244687 31.170328 6.5942969 31.226328 6.2792969 31.236328 C 5.9652969 31.273328 5.6710937 31.384891 5.3710938 31.462891 C 5.0940937 31.580891 4.8343125 31.726375 4.5703125 31.859375 C 4.3133125 32.000375 4.1050469 32.186609 3.8730469 32.349609 C 3.4020469 32.672609 3.06225 33.094938 2.65625 33.460938 L 1.6191406 34.679688 C 1.4531406 34.875688 1.4614844 35.170469 1.6464844 35.355469 C 1.8414844 35.550469 2.1565625 35.550469 2.3515625 35.355469 L 2.3828125 35.324219 L 3.4472656 34.259766 C 3.8362656 33.966766 4.1866563 33.592234 4.5976562 33.365234 C 5.3866563 32.816234 6.2357188 32.533703 7.0117188 32.720703 C 7.7958686 32.864611 8.5704335 33.430107 9.625 33.902344 C 9.0491048 34.392436 8.5145399 34.960378 8.1015625 35.671875 C 7.8345625 36.125875 7.6452344 36.676859 7.6152344 37.255859 C 7.5922344 37.591859 7.6184219 37.700016 7.6074219 37.916016 C 7.6014219 38.109016 7.5797812 38.302094 7.5507812 38.496094 C 7.4287813 39.256094 7.0828125 40.056156 6.6328125 40.660156 L 6.5996094 40.705078 C 6.4506094 40.908078 6.4731094 41.193188 6.6621094 41.367188 C 6.8641094 41.553187 7.1801875 41.541844 7.3671875 41.339844 C 8.0611875 40.585844 8.5179219 39.743391 8.7949219 38.775391 C 8.8589219 38.534391 8.9113125 38.291016 8.9453125 38.041016 C 8.9833125 37.816016 8.9885312 37.478047 9.0195312 37.373047 C 9.0675312 37.070047 9.1902969 36.762703 9.4042969 36.470703 C 10.068382 35.556225 11.18372 34.825371 12.337891 34.324219 A 1.0001 1.0001 0 0 0 12.669922 34.314453 C 15.085582 33.831321 16.896731 34.174399 18.398438 35.070312 C 19.787265 35.898884 20.923857 37.269274 21.869141 39.029297 C 21.592413 39.603479 21.298244 40.149292 20.925781 40.597656 C 20.453781 41.173656 19.834234 41.642359 19.115234 42.068359 C 18.928234 42.185359 18.777875 42.256297 18.546875 42.404297 C 18.310875 42.543297 18.097391 42.710484 17.900391 42.896484 C 17.512391 43.271484 17.217813 43.715828 17.007812 44.173828 C 16.591813 45.105828 16.466 46.035625 16.5 47.015625 C 16.51 47.266625 16.707844 47.477141 16.964844 47.494141 C 17.239844 47.513141 17.477094 47.30625 17.496094 47.03125 L 17.5 46.984375 C 17.553 46.222375 17.762531 45.384859 18.144531 44.755859 C 18.335531 44.437859 18.568984 44.168891 18.833984 43.962891 C 18.968984 43.861891 19.109719 43.773031 19.261719 43.707031 L 19.849609 43.427734 C 20.508381 43.111588 21.185877 42.711027 21.794922 42.193359 C 21.484664 42.640519 21.262088 43.349226 21.298828 43.894531 C 21.293828 44.493531 21.4895 45.134375 21.8125 45.609375 C 22.1295 46.092375 22.498016 46.431672 22.791016 46.763672 C 23.407016 47.403672 23.642766 48.052344 23.509766 48.902344 L 23.507812 48.917969 C 23.467813 49.176969 23.636484 49.426422 23.896484 49.482422 C 24.166484 49.540422 24.432234 49.369609 24.490234 49.099609 C 24.602234 48.581609 24.642187 48.004453 24.492188 47.439453 C 24.347188 46.873453 24.02675 46.384234 23.71875 45.990234 C 23.40975 45.593234 23.103734 45.255781 22.927734 44.925781 C 22.746734 44.595781 22.685891 44.2875 22.712891 43.9375 C 22.755891 43.5525 22.841703 43.359781 23.095703 43.050781 C 23.209972 42.922065 23.363468 42.720312 23.509766 42.501953 C 23.899452 42.984223 24.362731 43.415301 24.882812 43.724609 C 25.668813 44.211609 26.502484 44.452625 27.146484 44.765625 C 27.796484 45.076625 28.265391 45.492203 28.525391 46.158203 C 28.614391 46.388203 28.863328 46.521891 29.111328 46.462891 C 29.379328 46.397891 29.545469 46.128375 29.480469 45.859375 L 29.476562 45.841797 C 29.259562 44.941797 28.527859 44.115828 27.755859 43.673828 C 26.986859 43.207828 26.272609 42.914469 25.724609 42.480469 C 25.171609 42.061469 24.785672 41.532391 24.513672 40.900391 C 24.270407 40.384603 24.153191 39.780652 24.050781 39.175781 C 24.99032 37.501466 26.648899 36.2237 28.578125 35.476562 C 30.510407 34.728242 32.678649 34.536885 34.472656 34.914062 C 34.745412 35.245353 35.022632 35.572314 35.316406 35.882812 C 36.125423 36.918841 36.781553 38.07406 37.197266 39.326172 C 37.789266 41.084172 37.895672 43.012906 37.513672 44.878906 C 37.463672 45.129906 37.612281 45.386938 37.863281 45.460938 C 38.128281 45.539937 38.406375 45.386094 38.484375 45.121094 C 39.069375 43.141094 39.145625 40.972016 38.640625 38.916016 C 38.613584 38.803707 38.579063 38.693453 38.548828 38.582031 C 38.970694 38.855646 39.401898 39.115895 39.847656 39.351562 C 40.946656 39.925562 42.124328 40.374516 43.361328 40.603516 C 44.593328 40.832516 45.895094 40.829375 47.121094 40.484375 C 47.370094 40.413375 47.528609 40.161297 47.474609 39.904297 C 47.420609 39.633297 47.155766 39.458672 46.884766 39.513672 L 46.876953 39.515625 C 44.716953 39.952625 42.470937 39.211875 40.585938 38.046875 C 39.118401 37.133724 37.810208 35.955142 36.716797 34.621094 C 36.553066 34.378245 36.367251 34.152465 36.189453 33.919922 C 36.105251 33.805217 36.014589 33.694702 35.933594 33.578125 C 35.131164 30.067861 36.624438 26.961834 39.316406 24.126953 C 39.438917 24.170966 39.565566 24.216094 39.675781 24.267578 C 39.989781 24.402578 40.292844 24.583344 40.589844 24.777344 C 41.182844 25.172344 41.724797 25.673516 42.216797 26.228516 C 42.716797 26.780516 43.131391 27.419266 43.525391 28.072266 C 43.716391 28.403266 43.8815 28.751797 44.0625 29.091797 L 44.525391 30.158203 L 44.541016 30.191406 C 44.642016 30.421406 44.902437 30.543797 45.148438 30.466797 C 45.411437 30.384797 45.557609 30.102844 45.474609 29.839844 L 45.103516 28.662109 C 44.949516 28.278109 44.810625 27.886859 44.640625 27.505859 C 44.287625 26.750859 43.902437 25.997688 43.398438 25.304688 C 43.167236 24.980726 42.91462 24.666028 42.646484 24.363281 C 43.075068 24.427043 43.509664 24.486946 43.949219 24.53125 C 44.836219 24.62025 45.764406 24.649234 46.691406 24.490234 C 47.616406 24.336234 48.524344 23.968016 49.277344 23.416016 C 49.482344 23.264016 49.543203 22.976906 49.408203 22.753906 C 49.265203 22.516906 48.959656 22.440984 48.722656 22.583984 C 47.370656 23.399984 45.760969 23.385828 44.167969 23.048828 C 43.627017 22.94547 43.080618 22.805387 42.527344 22.662109 C 43.116241 22.252737 43.645921 21.751401 44.076172 21.179688 C 44.689172 20.336688 44.955656 19.636141 45.472656 18.994141 C 45.713656 18.673141 45.975719 18.369516 46.261719 18.103516 C 46.530719 17.847516 46.896859 17.585469 47.130859 17.480469 L 47.21875 17.441406 C 47.44575 17.339406 47.564281 17.082844 47.488281 16.839844 C 47.406281 16.579844 47.128188 16.434578 46.867188 16.517578 C 46.285188 16.700578 45.936062 16.950281 45.539062 17.238281 C 45.162062 17.525281 44.823719 17.848453 44.511719 18.189453 C 43.874719 18.842453 43.382063 19.719656 42.914062 20.222656 C 42.406062 20.775656 41.782938 21.212906 41.085938 21.503906 C 40.504391 21.762951 39.80941 21.924932 39.214844 21.978516 C 37.314668 21.003216 35.783661 19.919103 34.863281 18.601562 C 33.935352 17.273216 33.534382 15.696846 33.943359 13.421875 C 34.641717 12.649426 35.277289 11.83439 35.785156 10.951172 C 35.812221 10.947337 35.838102 10.955349 35.865234 10.949219 C 36.842234 10.728219 37.615969 10.408141 38.417969 9.9941406 C 39.202969 9.5841406 39.93675 9.0762812 40.59375 8.4882812 C 41.25275 7.9042813 41.8415 7.2418594 42.3125 6.5058594 C 42.8115 5.7868594 43.158844 4.9845469 43.464844 4.1855469 C 43.553844 3.9495469 43.453609 3.6795 43.224609 3.5625 C 42.978609 3.4375 42.677734 3.5332969 42.552734 3.7792969 L 42.535156 3.8144531 C 42.181156 4.5074531 41.805687 5.185625 41.304688 5.765625 C 40.830687 6.364625 40.265344 6.8803125 39.652344 7.3203125 C 39.041344 7.7633125 38.376734 8.12925 37.677734 8.40625 C 37.422507 8.510148 37.147107 8.5939695 36.875 8.6757812 C 37.003633 8.359478 37.142032 8.0467393 37.25 7.7246094 C 37.619 6.6376094 37.905281 5.5300625 38.113281 4.4140625 C 38.317281 3.2920625 38.459047 2.1854375 38.498047 1.0234375 C 38.507047 0.7654375 38.316687 0.53876562 38.054688 0.50976562 z M 20.742188 12.757812 C 22.279048 13.882276 23.754897 14.874157 25.46875 15.314453 C 27.310681 15.787653 29.470472 15.418145 31.986328 14.40625 C 31.882891 16.472817 32.227974 18.319392 33.224609 19.746094 C 34.258212 21.225714 35.790823 22.299235 37.480469 23.25 C 35.019427 26.014904 33.500042 29.296081 33.921875 32.929688 C 31.932013 32.690494 29.826041 32.848938 27.857422 33.611328 C 25.949714 34.350132 24.334964 35.673252 23.099609 37.316406 C 22.111523 35.699206 20.958221 34.268142 19.421875 33.351562 C 17.883802 32.433954 15.973969 32.156249 13.880859 32.292969 C 15.160415 28.762237 14.733966 25.265107 12.509766 22.398438 C 15.113743 21.355161 17.236052 20.040493 18.628906 18.296875 C 19.886068 16.723121 20.476447 14.809734 20.742188 12.757812 z M 25 20 C 23.416667 20 22.101892 20.629756 21.251953 21.585938 C 20.402014 22.542119 20 23.777778 20 25 C 20 26.222222 20.402014 27.457882 21.251953 28.414062 C 22.101892 29.370244 23.416667 30 25 30 C 26.583333 30 27.898108 29.370244 28.748047 28.414062 C 29.597986 27.457881 30 26.222222 30 25 C 30 23.777778 29.597986 22.542118 28.748047 21.585938 C 27.898108 20.629756 26.583333 20 25 20 z M 25 22 C 26.083333 22 26.768559 22.370244 27.251953 22.914062 C 27.735347 23.457881 28 24.222222 28 25 C 28 25.270063 27.956425 25.534815 27.894531 25.792969 A 2.5 2.5 0 0 0 25.5 24 A 2.5 2.5 0 0 0 23.207031 27.490234 C 23.037632 27.370269 22.882175 27.236832 22.748047 27.085938 C 22.264653 26.542119 22 25.777778 22 25 C 22 24.222222 22.264653 23.457882 22.748047 22.914062 C 23.231441 22.370244 23.916667 22 25 22 z"/></svg>