<svg xmlns="http://www.w3.org/2000/svg"  viewBox="0 0 50 50" width="50px" height="50px"><path d="M 25 2 C 12.309288 2 2 12.309297 2 25 C 2 37.690703 12.309288 48 25 48 C 37.690712 48 48 37.690703 48 25 C 48 12.309297 37.690712 2 25 2 z M 25 4 C 36.60067 4 45.985195 13.375499 46 24.972656 A 1.0001 1.0001 0 0 0 45.707031 24.292969 L 41.707031 20.292969 A 1.0001 1.0001 0 0 0 40.990234 19.990234 A 1.0001 1.0001 0 0 0 40.292969 21.707031 L 42.585938 24 L 26.732422 24 A 2 2 0 0 0 25 23 A 2 2 0 0 0 25 27 A 2 2 0 0 0 26.728516 26 L 42.585938 26 L 40.292969 28.292969 A 1.0001 1.0001 0 1 0 41.707031 29.707031 L 45.707031 25.707031 A 1.0001 1.0001 0 0 0 46 25 C 46 36.609825 36.609833 46 25 46 C 13.390167 46 4 36.609825 4 25 C 4 13.390175 13.390167 4 25 4 z"/></svg>