<svg xmlns="http://www.w3.org/2000/svg"  viewBox="0 0 50 50" width="50px" height="50px"><path d="M 9 0 C 6.8026661 0 5 1.8026661 5 4 L 5 33 C 5 35.197334 6.8026661 37 9 37 L 22.263672 37 C 22.102678 37.588092 22 38.241969 22 38.978516 C 22 41.269022 23.654989 43.762802 25.615234 45.941406 C 26.595357 47.030708 27.671903 48.010101 28.746094 48.742188 C 29.820284 49.474274 30.877579 50 32 50 L 39 50 C 43.561445 50 47 46.561445 47 42 L 47 40 L 47 30.5 C 47 28.578812 45.421188 27 43.5 27 C 42.870774 27 42.309209 27.21449 41.796875 27.509766 C 41.359605 26.074761 40.070758 25 38.5 25 C 37.951941 25 37.452924 25.157587 37 25.400391 L 37 4 C 37 1.8026661 35.197334 0 33 0 L 9 0 z M 9 2 L 33 2 C 34.116666 2 35 2.8833339 35 4 L 35 24.371094 C 34.549107 24.138535 34.044351 24 33.5 24 C 32.958311 24 32.459537 24.149735 32 24.373047 L 32 19.5 C 32 17.750034 30.685433 16.298171 29 16.050781 L 29 16 L 11 16 A 1.0001 1.0001 0 0 0 10 17 L 10 32 A 1.0001 1.0001 0 0 0 11 33 L 25 33 L 25 33.498047 C 24.634668 33.671907 24.373926 33.712084 23.794922 34.289062 C 23.591293 34.491979 23.389122 34.731886 23.197266 35 L 9 35 C 7.8833339 35 7 34.116666 7 33 L 7 4 C 7 2.8833339 7.8833339 2 9 2 z M 11 4 A 1.0001 1.0001 0 0 0 10 5 L 10 13 A 1.0001 1.0001 0 0 0 11 14 L 31 14 A 1.0001 1.0001 0 0 0 32 13 L 32 5 A 1.0001 1.0001 0 0 0 31 4 L 11 4 z M 12 6 L 30 6 L 30 12 L 12 12 L 12 6 z M 18 8 L 18 10 L 20 10 L 20 8 L 18 8 z M 22 8 L 22 10 L 24 10 L 24 8 L 22 8 z M 26 8 L 26 10 L 28 10 L 28 8 L 26 8 z M 12 18 L 15 18 L 15 21 L 12 21 L 12 18 z M 17 18 L 20 18 L 20 21 L 17 21 L 17 18 z M 22 18 L 25 18 L 25 21 L 22 21 L 22 18 z M 28.5 18 C 29.340812 18 30 18.659188 30 19.5 L 30 27.5 L 30 32 A 1.0001 1.0001 0 0 0 30.023438 32.199219 A 1.0001 1.0001 0 0 0 30.083984 32.388672 A 1.0001 1.0001 0 0 0 30.244141 32.640625 A 1.0001 1.0001 0 0 0 30.3125 32.712891 A 1.0001 1.0001 0 0 0 30.388672 32.777344 A 1.0001 1.0001 0 0 0 30.470703 32.835938 A 1.0001 1.0001 0 0 0 30.84375 32.974609 A 1.0001 1.0001 0 0 0 31.042969 32.984375 A 1.0001 1.0001 0 0 0 31.517578 32.841797 A 1.0001 1.0001 0 0 0 31.810547 32.572266 A 1.0001 1.0001 0 0 0 31.863281 32.488281 A 1.0001 1.0001 0 0 0 31.974609 32.210938 A 1.0001 1.0001 0 0 0 31.992188 32.113281 A 1.0001 1.0001 0 0 0 32 32 L 32 27.5 C 32 26.659188 32.659188 26 33.5 26 C 34.340812 26 35 26.659188 35 27.5 L 35 28.5 L 35 32 A 1.0001 1.0001 0 0 0 35.005859 32.099609 A 1.0001 1.0001 0 0 0 35.048828 32.294922 A 1.0001 1.0001 0 0 0 35.244141 32.640625 A 1.0001 1.0001 0 0 0 35.3125 32.712891 A 1.0001 1.0001 0 0 0 35.388672 32.777344 A 1.0001 1.0001 0 0 0 35.470703 32.835938 A 1.0001 1.0001 0 0 0 35.650391 32.923828 A 1.0001 1.0001 0 0 0 35.84375 32.974609 A 1.0001 1.0001 0 0 0 35.943359 32.984375 A 1.0001 1.0001 0 0 0 36.142578 32.976562 A 1.0001 1.0001 0 0 0 36.517578 32.841797 A 1.0001 1.0001 0 0 0 36.746094 32.650391 A 1.0001 1.0001 0 0 0 36.947266 32.306641 A 1.0001 1.0001 0 0 0 36.974609 32.210938 A 1.0001 1.0001 0 0 0 37 32 L 37 28.5 C 37 27.659188 37.659188 27 38.5 27 C 39.340812 27 40 27.659188 40 28.5 L 40 30.5 L 40 33 A 1.0001 1.0001 0 0 0 40.083984 33.388672 A 1.0001 1.0001 0 0 0 40.128906 33.478516 A 1.0001 1.0001 0 0 0 40.244141 33.640625 A 1.0001 1.0001 0 0 0 40.388672 33.777344 A 1.0001 1.0001 0 0 0 40.558594 33.882812 A 1.0001 1.0001 0 0 0 40.650391 33.923828 A 1.0001 1.0001 0 0 0 40.84375 33.974609 A 1.0001 1.0001 0 0 0 41.042969 33.984375 A 1.0001 1.0001 0 0 0 41.142578 33.976562 A 1.0001 1.0001 0 0 0 41.240234 33.957031 A 1.0001 1.0001 0 0 0 41.335938 33.927734 A 1.0001 1.0001 0 0 0 41.517578 33.841797 A 1.0001 1.0001 0 0 0 41.599609 33.785156 A 1.0001 1.0001 0 0 0 41.746094 33.650391 A 1.0001 1.0001 0 0 0 41.810547 33.572266 A 1.0001 1.0001 0 0 0 41.863281 33.488281 A 1.0001 1.0001 0 0 0 41.910156 33.400391 A 1.0001 1.0001 0 0 0 41.947266 33.306641 A 1.0001 1.0001 0 0 0 41.974609 33.210938 A 1.0001 1.0001 0 0 0 41.992188 33.113281 A 1.0001 1.0001 0 0 0 42 33 L 42 30.5 C 42 29.659188 42.659188 29 43.5 29 C 44.340812 29 45 29.659188 45 30.5 L 45 40 L 45 42 C 45 45.610555 42.610555 48 39 48 L 32 48 C 31.600421 48 30.771732 47.700366 29.873047 47.087891 C 28.974362 46.475415 27.99094 45.591964 27.101562 44.603516 C 25.322808 42.62662 24 40.108009 24 38.978516 C 24 37.240335 24.612211 36.29587 25.205078 35.705078 C 25.797945 35.114286 26.316406 34.949219 26.316406 34.949219 A 1.0001 1.0001 0 0 0 27 34 L 27 32 L 27 19.5 C 27 18.659188 27.659188 18 28.5 18 z M 12 23 L 15 23 L 15 26 L 12 26 L 12 23 z M 17 23 L 20 23 L 20 26 L 17 26 L 17 23 z M 22 23 L 25 23 L 25 26 L 22 26 L 22 23 z M 12 28 L 15 28 L 15 31 L 12 31 L 12 28 z M 17 28 L 20 28 L 20 31 L 17 31 L 17 28 z M 22 28 L 25 28 L 25 31 L 22 31 L 22 28 z"/></svg>