<svg xmlns="http://www.w3.org/2000/svg"  viewBox="0 0 50 50" width="50px" height="50px"><path d="M 39.236328 5.0019531 C 30.617458 5.111366 26.627109 7.6309375 25.083984 8.9921875 C 23.397984 7.5541875 18.856563 4.7833437 8.9765625 5.0273438 C 8.4345625 5.0403437 8 5.4843438 8 6.0273438 L 8 11.107422 L 6.5761719 11.107422 C 5.1551719 11.107422 3.9990156 12.233234 4.0410156 13.615234 L 4.0410156 38.494141 C 3.9990156 39.876141 5.204 40.951172 6.625 40.951172 L 34.703125 40.951172 L 32.708984 39.041016 L 6.6328125 39.041016 C 6.3158125 39.041016 6.0009844 38.772141 5.9589844 38.494141 L 5.9589844 13.615234 C 6.0009844 13.337234 6.2591719 13 6.5761719 13 L 8 13 L 8 33.306641 C 8 33.576641 8.1077813 33.832484 8.3007812 34.021484 C 8.4927813 34.209484 8.7394375 34.300641 9.0234375 34.306641 C 20.790438 34.030641 24.374078 36.754359 24.455078 36.818359 C 24.639078 36.972359 24.867609 37.052734 25.099609 37.052734 C 25.240609 37.052734 25.382625 37.022938 25.515625 36.960938 C 25.659625 36.895938 25.782906 36.798687 25.878906 36.679688 C 26.186906 36.475687 27.141219 35.931875 29.074219 35.421875 L 27.453125 33.800781 C 26.923125 33.972781 26.333031 34.145594 25.957031 34.308594 L 25.957031 32.447266 L 24.099609 30.447266 L 24.099609 34.357422 C 22.093609 33.472422 18.034172 32.287109 10.701172 32.287109 C 10.470172 32.287109 10.236047 32.288016 9.9980469 32.291016 L 9.9980469 7.0136719 L 10.142578 7.0136719 C 19.666578 6.9996719 23.193344 9.9094688 24.027344 10.730469 L 24.027344 19.652344 L 25.958984 20.402344 L 25.958984 10.787109 C 26.757984 9.9621094 30.434 6.971 40 7 L 40 30.789062 L 42 32.789062 L 42 12.970703 L 43.453125 12.970703 C 43.770125 12.970703 44 13.229812 44 13.507812 L 44 34.792969 L 45.957031 36.792969 L 45.957031 13.505859 C 45.957031 12.123859 44.883891 11.037109 43.462891 11.037109 L 42 11.037109 L 42 6.0136719 C 42 5.4706719 41.566438 5.0266719 41.023438 5.0136719 C 40.407063 4.9984844 39.810919 4.9946589 39.236328 5.0019531 z M 24.267578 21.884766 A 1.0001 1.0001 0 0 0 23.376953 23.228516 L 25.431641 28.818359 A 1.0001 1.0001 0 0 0 25.662109 29.181641 L 42.673828 46.191406 A 1.0001 1.0001 0 0 0 43.689453 46.435547 L 44.009766 46.755859 C 45.16734 47.913434 47.069451 47.889536 48.226562 46.732422 A 1.0001 1.0001 0 0 0 48.226562 46.730469 C 49.38247 45.571562 49.407883 43.669604 48.25 42.511719 L 47.892578 42.154297 A 1.0001 1.0001 0 0 0 47.623047 41.242188 L 30.613281 24.230469 A 1.0001 1.0001 0 0 0 30.251953 24 L 24.660156 21.945312 A 1.0001 1.0001 0 0 0 24.267578 21.884766 z M 26.779297 24.853516 L 28.800781 25.597656 L 28.576172 25.822266 A 1.0001 1.0001 0 0 0 28.283203 26.519531 L 28.28125 26.8125 L 27.988281 26.814453 A 1.0001 1.0001 0 0 0 27.289062 27.107422 L 27.029297 27.367188 L 26.285156 25.347656 L 26.779297 24.853516 z M 30.390625 26.835938 L 42.880859 39.328125 L 40.759766 41.449219 L 28.267578 28.957031 L 28.414062 28.810547 L 29.28125 28.804688 A 1.0001 1.0001 0 0 0 30.271484 27.8125 L 30.279297 26.947266 L 30.390625 26.835938 z M 44.296875 40.742188 L 45.501953 41.949219 L 43.380859 44.070312 L 42.175781 42.863281 L 44.296875 40.742188 z M 46.59375 43.683594 L 46.835938 43.925781 C 47.194052 44.283896 47.196638 44.931266 46.810547 45.318359 C 46.425499 45.701877 45.78183 45.699796 45.423828 45.341797 L 45.179688 45.099609 L 46.59375 43.683594 z"/></svg>