<svg xmlns="http://www.w3.org/2000/svg"  viewBox="0 0 50 50" width="50px" height="50px"><path d="M 12 2 C 8.5024444 2 6 4.7560832 6 8 L 6 42.417969 L 6.0039062 42.417969 C 6.0034939 42.445541 6 42.472334 6 42.5 C 6 45.525577 8.4744232 48 11.5 48 L 44 48 L 44 46 L 11.5 46 C 9.5555768 46 8 44.444423 8 42.5 C 8 40.555577 9.5555768 39 11.5 39 L 44 39 L 44 38 L 44 37 L 44 2 L 12 2 z M 12 4 L 42 4 L 42 37 L 11.5 37 C 10.173347 37 8.9525799 37.476278 8 38.265625 L 8 8 C 8 5.7219168 9.4975556 4 12 4 z M 19 8 C 18.45 8 18 8.45 18 9 L 18 14 C 18 16.33 19.420625 18.339766 21.140625 19.759766 C 21.410625 19.569766 21.690703 19.4 21.970703 19.25 C 22.260703 19.09 22.640313 18.900938 23.070312 18.710938 C 21.510312 17.610937 20 15.91 20 14 L 20 9 C 20 8.45 19.55 8 19 8 z M 33 8 C 32.45 8 32 8.45 32 9 L 32 10 L 23 10 A 1.0001 1.0001 0 1 0 23 12 L 32 12 L 32 14 C 32 14.341247 31.942004 14.673907 31.853516 15 L 24 15 A 1.0001 1.0001 0 1 0 24 17 L 30.78125 17 C 29.331326 18.788005 26.983415 20 26 20 C 25.22 20 24.099453 20.36 22.939453 21 C 20.549453 22.33 18 24.88 18 28 L 18 33 C 18 33.55 18.45 34 19 34 C 19.55 34 20 33.55 20 33 L 20 28 C 20 24.7 24.53 22 26 22 C 26.983415 22 29.331326 23.211995 30.78125 25 L 24 25 A 1.0001 1.0001 0 1 0 24 27 L 31.853516 27 C 31.942004 27.326093 32 27.658753 32 28 L 32 30 L 23 30 A 1.0001 1.0001 0 1 0 23 32 L 32 32 L 32 33 C 32 33.55 32.45 34 33 34 C 33.55 34 34 33.55 34 33 L 34 28 C 34 24.88 31.450547 22.33 29.060547 21 C 31.450547 19.67 34 17.12 34 14 L 34 9 C 34 8.45 33.55 8 33 8 z"/></svg>