<svg xmlns="http://www.w3.org/2000/svg"  viewBox="0 0 50 50" width="50px" height="50px"><path d="M 2.9902344 1.9902344 A 1.0001 1.0001 0 0 0 2.2929688 3.7070312 L 46.292969 47.707031 A 1.0001 1.0001 0 1 0 47.707031 46.292969 L 43.421875 42.007812 C 44.706109 41.115241 45.819443 39.940309 46.650391 38.5 C 48.120391 35.96 48.51 32.990391 47.75 30.150391 C 46.99 27.310391 45.169141 24.940703 42.619141 23.470703 C 41.289141 22.710703 39.869687 22.250078 38.429688 22.080078 C 37.829687 19.990078 36.780625 18.119844 35.390625 16.589844 C 37.090625 11.669844 35.05 6.1007031 30.5 3.4707031 C 27.96 2.0007031 24.990391 1.6108594 22.150391 2.3808594 C 19.310391 3.1408594 16.940703 4.96 15.470703 7.5 C 14.564453 9.08125 14.076172 10.830859 14.015625 12.601562 L 3.7070312 2.2929688 A 1.0001 1.0001 0 0 0 2.9902344 1.9902344 z M 25.244141 4.0039062 C 26.694824 4.0417358 28.15625 4.4328125 29.5 5.2109375 C 32.96 7.2009375 34.639766 11.260781 33.759766 15.050781 C 31.339766 13.130781 28.29 12 25 12 C 21.755 12 18.773857 13.120117 16.396484 14.982422 L 16.191406 14.777344 C 15.761434 12.641355 16.095347 10.416526 17.210938 8.5 C 18.915938 5.54375 22.052637 3.9206812 25.244141 4.0039062 z M 25 14 C 30.17 14 34.660313 17.249297 36.320312 22.029297 C 33.108261 22.276378 30.068555 23.928805 28.125 26.710938 L 17.822266 16.408203 C 19.824977 14.901714 22.308395 14 25 14 z M 13.630859 17.880859 C 12.720859 19.140859 12.020312 20.559844 11.570312 22.089844 C 10.090312 22.269844 8.6808594 22.720703 7.3808594 23.470703 C 4.8308594 24.940703 3.01 27.310391 2.25 30.150391 C 1.49 32.990391 1.8796094 35.96 3.3496094 38.5 C 5.3796094 42.03 9.090625 44 12.890625 44 C 14.760625 44 16.650859 43.519297 18.380859 42.529297 C 19.660859 41.779297 20.779922 40.770078 21.669922 39.580078 C 22.739922 39.850078 23.85 40 25 40 C 26.12 40 27.240313 39.859609 28.320312 39.599609 C 29.200312 40.769609 30.309141 41.769297 31.619141 42.529297 C 33.349141 43.519297 35.239375 44 37.109375 44 C 37.909375 44 38.700469 43.910469 39.480469 43.730469 L 37.730469 41.980469 C 36.010469 42.100469 34.229141 41.719063 32.619141 40.789062 C 30.539141 39.589062 29.049688 37.650078 28.429688 35.330078 C 28.169687 34.360078 28.080625 33.360625 28.140625 32.390625 L 26.380859 30.630859 C 26.000859 32.340859 26.04 34.119609 26.5 35.849609 C 26.68 36.519609 26.930703 37.169062 27.220703 37.789062 C 26.490703 37.919063 25.75 38 25 38 C 18.38 38 13 32.62 13 26 C 13 23.52 13.750781 21.210781 15.050781 19.300781 L 13.630859 17.880859 z M 37.140625 24 C 38.670625 24 40.209141 24.390938 41.619141 25.210938 C 43.709141 26.410937 45.200312 28.349922 45.820312 30.669922 C 46.440313 32.989922 46.119922 35.42 44.919922 37.5 C 44.177136 38.78661 43.158794 39.817202 41.984375 40.570312 L 29.564453 28.150391 C 31.272156 25.497451 34.163689 24 37.140625 24 z M 11.130859 24.169922 C 11.050859 24.769922 11 25.38 11 26 C 11 31.82 14.570625 36.819688 19.640625 38.929688 C 18.990625 39.659687 18.240859 40.289062 17.380859 40.789062 C 13.080859 43.279063 7.5600781 41.8 5.0800781 37.5 C 3.8800781 35.42 3.5596875 32.989922 4.1796875 30.669922 C 4.7996875 28.349922 6.2908594 26.410938 8.3808594 25.210938 C 9.2408594 24.700937 10.170859 24.359922 11.130859 24.169922 z"/></svg>