<svg xmlns="http://www.w3.org/2000/svg"  viewBox="0 0 50 50" width="50px" height="50px"><path d="M 42 8 C 37.593564 8 34 11.593568 34 16 C 34 20.406432 37.593564 24 42 24 C 46.406436 24 50 20.406432 50 16 C 50 11.593568 46.406436 8 42 8 z M 42 10 C 45.325556 10 48 12.674446 48 16 C 48 19.325554 45.325556 22 42 22 C 38.674444 22 36 19.325554 36 16 C 36 12.674446 38.674444 10 42 10 z M 32.039062 19.992188 A 1.0001 1.0001 0 0 0 31.496094 20.136719 C 24.348932 24.305896 21.798059 30.338818 20.769531 34.927734 C 20.592855 34.300579 20.551788 33.803526 20.314453 33.15625 C 19.596607 31.198489 18.581215 29.203358 17.078125 27.648438 C 15.575035 26.093516 13.527778 25 11 25 C 8.4722222 25 6.4249651 26.093516 4.921875 27.648438 C 3.4187849 29.203358 2.4033925 31.198489 1.6855469 33.15625 C 0.24985554 37.071772 0.001953125 40.933594 0.001953125 40.933594 A 1.0002536 1.0002536 0 1 0 1.9980469 41.066406 C 1.9980469 41.066406 2.2501444 37.428228 3.5644531 33.84375 C 4.2216075 32.051511 5.1437151 30.296642 6.359375 29.039062 C 7.5750349 27.781484 9.0277778 27 11 27 C 12.972222 27 14.424965 27.781484 15.640625 29.039062 C 16.856285 30.296643 17.778393 32.051511 18.435547 33.84375 C 19.749856 37.428228 20.001953 41.066406 20.001953 41.066406 L 20.003906 41.066406 C 20.003909 41.066438 20.003906 41.076172 20.003906 41.076172 A 1.0001 1.0001 0 0 0 21.998047 40.933594 C 21.998047 40.933594 21.996094 40.923928 21.996094 40.923828 C 21.996094 40.923828 21.996095 40.918069 21.996094 40.917969 C 21.994694 40.900209 20.998542 28.574744 32.503906 21.863281 A 1.0001 1.0001 0 0 0 32.039062 19.992188 z"/></svg>