<?xml version="1.0" encoding="iso-8859-1"?>
<!-- Generator: Adobe Illustrator 25.2.3, SVG Export Plug-In . SVG Version: 6.00 Build 0)  -->
<svg version="1.1" baseProfile="basic" xmlns="http://www.w3.org/2000/svg" xmlns:xlink="http://www.w3.org/1999/xlink" x="0px"
	 y="0px" viewBox="0 0 50 50" xml:space="preserve">
<path style="fill:none;stroke:#000000;stroke-width:2;stroke-linejoin:round;stroke-miterlimit:10;" d="M21.542,46.509
	c-0.001-0.118-0.068-8.393-4.956-11.325c-1.74-1.044-3.602-1.2-4.558-1.2c-0.484,0-0.791,0.038-0.824,0.043l-0.437-0.3l-0.002,0.002
	L1,27.037l13.525-5.236l0.1-0.143c0.327-0.468,1.222-1.693,2.476-2.946c1.029-1.029,1.969-1.551,2.963-2.104
	c0.522-0.289,1.061-0.589,1.669-0.985c1.467-0.954,2.837-3.165,4.287-5.505C28.144,6.69,30.246,3,33,3
	c3.981,0,11.131,18.483,16,35.52c-0.07-0.064-7.112-6.467-11.263-6.467c-0.195,0-0.384,0.014-0.561,0.042
	c-2.478,0.392-4.024,2.782-5.814,5.549c-1.156,1.787-2.465,3.811-4.199,5.525C24.342,45.959,21.667,46.486,21.542,46.509z"/>
<line style="fill:none;stroke:#000000;stroke-width:2;stroke-linejoin:round;stroke-miterlimit:10;" x1="14.778" y1="21.985" x2="20.302" y2="26.021"/>
<path style="fill:none;stroke:#000000;stroke-width:2;stroke-linejoin:round;stroke-miterlimit:10;" d="M11.461,33.959
	c0.561-0.308,1.121-0.623,1.678-0.945c1.991-1.152,5.685-3.63,8.052-7.275c1.332-2.05,2.821-5.722,4.397-9.61
	C28.672,8.523,30.918,3,33,3"/>
</svg>