<?xml version="1.0"?><svg xmlns="http://www.w3.org/2000/svg"  viewBox="0 0 50 50" width="50px" height="50px">    <path d="M 13 3 C 7.4886661 3 3 7.4886661 3 13 L 3 37 C 3 42.511334 7.4886661 47 13 47 L 37 47 C 42.511334 47 47 42.511334 47 37 L 47 13 C 47 7.4886661 42.511334 3 37 3 L 13 3 z M 13 5 L 37 5 C 41.430666 5 45 8.5693339 45 13 L 45 37 C 45 41.430666 41.430666 45 37 45 L 13 45 C 8.5693339 45 5 41.430666 5 37 L 5 13 C 5 8.5693339 8.5693339 5 13 5 z M 13 17 L 13 33 L 15.099609 33 L 15.099609 20.087891 L 23 33 L 25 33 L 25 17 L 23 17 L 23 30.175781 L 15.400391 17 L 13 17 z M 32.886719 21.007812 C 32.49925 20.993141 32.118219 21.003094 31.761719 21.027344 C 30.229719 21.132344 28.625297 21.693547 27.779297 23.060547 C 27.495297 23.519547 27.306641 24.070687 27.306641 24.804688 C 27.487641 24.804688 29.199219 24.802641 29.199219 24.806641 C 29.200219 24.072641 29.42675 23.411297 30.09375 23.029297 C 31.04575 22.485297 32.4145 22.43325 33.4375 22.78125 C 33.9375 22.95125 34.416531 23.257906 34.644531 23.753906 C 34.923531 24.358906 34.831984 25.240891 34.208984 25.587891 C 33.913984 25.752891 33.571281 25.802469 33.238281 25.855469 C 32.283281 26.006469 31.334578 26.191203 30.392578 26.408203 C 29.575578 26.596203 28.754375 26.769844 28.109375 27.339844 C 27.556375 27.827844 27.167922 28.504375 27.044922 29.234375 C 26.852922 30.374375 27.316531 31.639453 28.269531 32.314453 C 29.271531 33.023453 30.663844 33.089734 31.839844 32.927734 C 32.451844 32.842734 33.039031 32.638703 33.582031 32.345703 C 33.783031 32.236703 35.089641 31.51725 35.056641 31.28125 C 35.116641 31.70525 35.148063 32.314609 35.539062 32.599609 C 35.917062 32.874609 36.296531 32.966797 36.769531 32.966797 C 37.431531 32.966797 38.000906 32.691406 38.003906 32.691406 L 38.003906 31.132812 C 37.814906 31.224813 37.624547 31.224609 37.435547 31.224609 C 37.056547 31.224609 36.962187 31.132219 36.867188 30.949219 C 36.772188 30.674219 36.771484 30.400406 36.771484 29.941406 L 36.771484 24.070312 C 36.771484 23.363312 36.540734 22.677203 36.052734 22.158203 C 35.269734 21.325703 34.049125 21.051828 32.886719 21.007812 z M 35.160156 26.820312 C 35.160156 26.820312 35.158203 28.043297 35.158203 28.654297 C 35.158203 29.596297 34.404516 30.363531 33.603516 30.769531 C 32.292516 31.434531 29.524156 31.678391 29.285156 29.650391 C 29.216156 29.063391 29.486453 28.458891 29.939453 28.087891 C 30.452453 27.668891 31.192172 27.562469 31.826172 27.480469 C 32.510172 27.392469 33.205 27.372312 33.875 27.195312 C 34.278 27.089312 35.160156 26.820312 35.160156 26.820312 z"/></svg>