<svg xmlns="http://www.w3.org/2000/svg"  viewBox="0 0 50 50" width="50px" height="50px"><path d="M 4 4 A 1.0001 1.0001 0 0 0 3 5 L 3 45 A 1.0001 1.0001 0 0 0 4 46 L 23 46 A 1.0001 1.0001 0 0 0 24 45 L 24 5 A 1.0001 1.0001 0 0 0 23 4 L 4 4 z M 27 4 A 1.0001 1.0001 0 0 0 26 5 L 26 45 A 1.0001 1.0001 0 0 0 27 46 L 46 46 A 1.0001 1.0001 0 0 0 47 45 L 47 5 A 1.0001 1.0001 0 0 0 46 4 L 27 4 z M 5 6 L 22 6 L 22 44 L 5 44 L 5 6 z M 28 6 L 45 6 L 45 44 L 28 44 L 28 6 z M 7 12 A 1.0001 1.0001 0 1 0 7 14 L 20 14 A 1.0001 1.0001 0 1 0 20 12 L 7 12 z M 30 12 A 1.0001 1.0001 0 1 0 30 14 L 43 14 A 1.0001 1.0001 0 1 0 43 12 L 30 12 z M 13.501953 17 A 1.0001 1.0001 0 0 0 12.568359 17.638672 L 11.273438 20.980469 L 7.9335938 21.205078 A 1.0001 1.0001 0 0 0 7.3398438 22.953125 L 9.9394531 25.244141 L 9.140625 28.779297 A 1.0001 1.0001 0 0 0 10.666016 29.833984 L 13.5 27.962891 L 16.333984 29.833984 A 1.0001 1.0001 0 0 0 17.859375 28.779297 L 17.060547 25.244141 L 19.660156 22.953125 A 1.0001 1.0001 0 0 0 19.066406 21.205078 L 15.726562 20.980469 L 14.431641 17.638672 A 1.0001 1.0001 0 0 0 13.501953 17 z M 36.501953 17 A 1.0001 1.0001 0 0 0 35.568359 17.638672 L 34.273438 20.980469 L 30.933594 21.205078 A 1.0001 1.0001 0 0 0 30.339844 22.953125 L 32.939453 25.244141 L 32.140625 28.779297 A 1.0001 1.0001 0 0 0 33.666016 29.833984 L 36.5 27.962891 L 39.333984 29.833984 A 1.0001 1.0001 0 0 0 40.859375 28.779297 L 40.060547 25.244141 L 42.660156 22.953125 A 1.0001 1.0001 0 0 0 42.066406 21.205078 L 38.726562 20.980469 L 37.431641 17.638672 A 1.0001 1.0001 0 0 0 36.501953 17 z M 13.5 20.771484 L 14.089844 22.296875 A 1.0001 1.0001 0 0 0 14.955078 22.933594 L 16.537109 23.039062 L 15.292969 24.134766 A 1.0001 1.0001 0 0 0 14.978516 25.107422 L 15.361328 26.794922 L 14.050781 25.929688 A 1.0001 1.0001 0 0 0 12.949219 25.929688 L 11.638672 26.794922 L 12.021484 25.107422 A 1.0001 1.0001 0 0 0 11.707031 24.134766 L 10.462891 23.039062 L 12.044922 22.933594 A 1.0001 1.0001 0 0 0 12.910156 22.296875 L 13.5 20.771484 z M 36.5 20.771484 L 37.089844 22.296875 A 1.0001 1.0001 0 0 0 37.955078 22.933594 L 39.537109 23.039062 L 38.292969 24.134766 A 1.0001 1.0001 0 0 0 37.978516 25.107422 L 38.361328 26.794922 L 37.050781 25.929688 A 1.0001 1.0001 0 0 0 35.949219 25.929688 L 34.638672 26.794922 L 35.021484 25.107422 A 1.0001 1.0001 0 0 0 34.707031 24.134766 L 33.462891 23.039062 L 35.044922 22.933594 A 1.0001 1.0001 0 0 0 35.910156 22.296875 L 36.5 20.771484 z M 7 33 A 1.0001 1.0001 0 1 0 7 35 L 20 35 A 1.0001 1.0001 0 1 0 20 33 L 7 33 z M 30 33 A 1.0001 1.0001 0 1 0 30 35 L 43 35 A 1.0001 1.0001 0 1 0 43 33 L 30 33 z M 7 37 A 1.0001 1.0001 0 1 0 7 39 L 20 39 A 1.0001 1.0001 0 1 0 20 37 L 7 37 z M 30 37 A 1.0001 1.0001 0 1 0 30 39 L 43 39 A 1.0001 1.0001 0 1 0 43 37 L 30 37 z"/></svg>