<?xml version="1.0" encoding="iso-8859-1"?><!-- Generator: Adobe Illustrator 21.1.0, SVG Export Plug-In . SVG Version: 6.00 Build 0)  --><svg xmlns="http://www.w3.org/2000/svg" xmlns:xlink="http://www.w3.org/1999/xlink" viewBox="0 0 50 50" width="50px" height="50px"><path d="M10.01,33.69c-3.36,2.96-5.86,6.92-7.04,11.51c-0.14,0.53-0.68,0.86-1.22,0.72c-0.53-0.14-0.86-0.68-0.72-1.22C2.46,39.13,5.69,34.4,10,31.1C10,31.1,10,33.63,10.01,33.69z"/><path d="M48.25,45.97C48.16,45.99,48.08,46,48,46c-0.45,0-0.85-0.3-0.97-0.75c-1.17-4.61-3.68-8.59-7.04-11.55C40,33.63,40,31.11,40,31.11c4.31,3.31,7.55,8.05,8.97,13.65C49.11,45.29,48.78,45.84,48.25,45.97z"/><path d="M11.75,45.97c-0.53-0.14-0.86-0.69-0.72-1.22l0,0c0.14-0.54,0.68-0.86,1.22-0.72l0,0c0.53,0.14,0.85,0.68,0.72,1.22l0,0C12.85,45.7,12.45,46,12,46l0,0C11.92,46,11.83,45.99,11.75,45.97z M12.56,43.08c-0.51-0.2-0.76-0.78-0.56-1.3l0,0c0,0,0,0,0,0.01l0,0c0.2-0.52,0.78-0.77,1.3-0.57l0,0c0.51,0.2,0.76,0.78,0.56,1.3l0,0c-0.15,0.39-0.53,0.63-0.93,0.63l0,0C12.81,43.15,12.68,43.13,12.56,43.08z M15.07,37.63c-0.49-0.26-0.67-0.87-0.4-1.35l0,0l0,0l0,0c0.26-0.49,0.87-0.67,1.35-0.41l0,0c0.49,0.27,0.67,0.87,0.4,1.36l0,0c-0.18,0.33-0.52,0.52-0.88,0.52l0,0C15.38,37.75,15.22,37.71,15.07,37.63z"/><path d="M37,45.14L37,45.14c-0.14-0.53,0.18-1.08,0.72-1.22l0,0c0.53-0.14,1.08,0.18,1.22,0.72l0,0c0.14,0.53-0.18,1.07-0.71,1.22l0,0c-0.09,0.02-0.17,0.03-0.26,0.03l0,0C37.53,45.89,37.12,45.59,37,45.14z M36.1,42.41c-0.21-0.51,0.05-1.09,0.56-1.3l0,0c0.51-0.2,1.09,0.05,1.3,0.56l0,0c0.2,0.52-0.05,1.1-0.56,1.3l0,0c-0.12,0.05-0.25,0.07-0.37,0.07l0,0C36.63,43.04,36.25,42.81,36.1,42.41z M33.52,37.13c-0.26-0.49-0.08-1.09,0.4-1.36l0,0c0.49-0.26,1.1-0.08,1.36,0.41l0,0l0,0l0,0c0.26,0.48,0.08,1.09-0.4,1.35l0,0c-0.16,0.09-0.32,0.12-0.48,0.12l0,0C34.05,37.65,33.7,37.46,33.52,37.13z"/><circle style="fill:none;stroke:#000000;stroke-width:2;stroke-linecap:round;stroke-linejoin:round;stroke-miterlimit:10;" cx="16" cy="6" r="3"/><circle style="fill:none;stroke:#000000;stroke-width:2;stroke-linecap:round;stroke-linejoin:round;stroke-miterlimit:10;" cx="34" cy="6" r="3"/><path style="fill:none;stroke:#000000;stroke-width:2;stroke-linecap:round;stroke-linejoin:round;stroke-miterlimit:10;" d="M31,26l1,8h4l1-8"/><path style="fill:none;stroke:#000000;stroke-width:2;stroke-linecap:round;stroke-linejoin:round;stroke-miterlimit:10;" d="M34.038,26h5.36c0.187,0,0.374-0.129,0.499-0.257c0.125-0.193,0.125-0.386,0.062-0.643L37.341,17"/><path style="fill:none;stroke:#000000;stroke-width:2;stroke-linecap:round;stroke-linejoin:round;stroke-miterlimit:10;" d="M30.693,17l-2.651,8.1c-0.063,0.193-0.063,0.45,0.063,0.643C28.231,25.936,28.42,26,28.61,26h5.429"/><path style="fill:none;stroke:#000000;stroke-width:2;stroke-linecap:round;stroke-linejoin:round;stroke-miterlimit:10;" d="M40.5,24c0.828,0,1.5-0.672,1.5-1.5l-0.1-0.583c-0.6-1.815-2.665-7.972-2.665-7.972C39.035,13.361,38.369,12,36.703,12h-2.665"/><path style="fill:none;stroke:#000000;stroke-width:2;stroke-linecap:round;stroke-linejoin:round;stroke-miterlimit:10;" d="M27.5,24c-0.828,0-1.5-0.672-1.5-1.5l0.076-0.583c0.607-1.815,2.699-7.972,2.699-7.972C28.978,13.361,29.652,12,31.339,12h2.699"/><path style="fill:none;stroke:#000000;stroke-width:2;stroke-linecap:round;stroke-linejoin:round;stroke-miterlimit:10;" d="M19,23.5c0,0.828,0.672,1.5,1.5,1.5s1.5-0.672,1.5-1.5V23v-8.407C22,13.161,20.806,12,19.333,12h-6.667C11.194,12,10,13.161,10,14.593V23v0.5c0,0.828,0.672,1.5,1.5,1.5s1.5-0.672,1.5-1.5"/><path style="fill:none;stroke:#000000;stroke-width:2;stroke-linecap:round;stroke-linejoin:round;stroke-miterlimit:10;" d="M19,17v16c0,0.552-0.448,1-1,1h-4c-0.552,0-1-0.448-1-1V17"/><circle cx="41.536" cy="37.141" r="1"/><circle cx="38.905" cy="38.363" r="1"/><circle cx="36.081" cy="39.373" r="1"/><circle cx="33.087" cy="40.153" r="1"/><circle cx="29.944" cy="40.689" r="1"/><circle cx="26.675" cy="40.965" r="1"/><circle cx="23.325" cy="40.965" r="1"/><circle cx="20.056" cy="40.689" r="1"/><circle cx="16.913" cy="40.153" r="1"/><circle cx="13.919" cy="39.373" r="1"/><circle cx="11.095" cy="38.363" r="1"/><circle cx="8.464" cy="37.141" r="1"/></svg>