<svg xmlns="http://www.w3.org/2000/svg"  viewBox="0 0 50 50" width="50px" height="50px"><path d="M 3 0 C 2.636719 0.0429688 2.328125 0.28125 2.191406 0.617188 C 2.054688 0.957031 2.113281 1.34375 2.34375 1.625 C 2.34375 1.625 14.753906 16.699219 21.5 24.96875 C 14.992188 32.644531 8.769531 40.058594 2.34375 47.75 C 2.183594 47.929688 2.09375 48.164063 2.09375 48.40625 C 2.09375 48.816406 2.273438 49.09375 2.4375 49.28125 C 2.601563 49.46875 2.796875 49.589844 2.96875 49.6875 C 3.3125 49.882813 3.644531 50 4.09375 50 L 42.1875 50 C 42.675781 50.007813 43.097656 49.664063 43.1875 49.1875 L 45.96875 34.5 C 46.023438 34.238281 45.972656 33.964844 45.824219 33.742188 C 45.679688 33.519531 45.449219 33.363281 45.1875 33.3125 C 45.1875 33.3125 44.429688 33.15625 43.5625 33.4375 C 42.710938 33.714844 41.722656 34.542969 41.28125 35.96875 L 41.25 35.96875 C 41.214844 36.070313 41.03125 36.382813 40.875 36.8125 C 40.863281 36.84375 40.855469 36.839844 40.84375 36.875 C 39.570313 39.820313 37.496094 41.089844 34.125 41 C 34.113281 41 34.105469 41 34.09375 41 L 16.8125 41 L 31.28125 23.4375 C 31.574219 23.070313 31.574219 22.554688 31.28125 22.1875 C 26.976563 16.570313 23.109375 11.46875 18.9375 6 C 20.894531 6 27.769531 6 31.90625 5.90625 C 31.917969 5.90625 31.925781 5.90625 31.9375 5.90625 C 34.746094 5.910156 36.035156 6.375 36.8125 7.125 C 37.59375 7.878906 38.054688 9.1875 38.65625 11.1875 C 38.65625 11.199219 38.65625 11.207031 38.65625 11.21875 C 38.6875 11.3125 38.707031 11.625 38.8125 12 C 38.828125 12.0625 38.820313 12.058594 38.84375 12.125 L 38.875 12.125 C 38.953125 12.453125 39.085938 12.839844 39.4375 13.125 C 39.832031 13.445313 40.277344 13.5 40.6875 13.5 L 42 13.5 C 42.550781 13.5 43 13.050781 43 12.5 L 43 1 C 43 0.449219 42.550781 0 42 0 L 3.09375 0 C 3.0625 0 3.03125 0 3 0 Z M 5.21875 2 L 41 2 L 41 11.5 L 40.75 11.5 C 40.75 11.488281 40.75 11.480469 40.75 11.46875 C 40.714844 11.363281 40.710938 11.085938 40.5625 10.625 C 40.558594 10.613281 40.566406 10.605469 40.5625 10.59375 C 39.96875 8.605469 39.503906 6.925781 38.21875 5.6875 C 36.925781 4.441406 34.96875 3.90625 31.90625 3.90625 C 31.894531 3.90625 31.886719 3.90625 31.875 3.90625 C 27.503906 4.003906 19.199219 4 18 4 C 17.398438 4 17.257813 4.210938 17.03125 4.375 C 16.804688 4.539063 16.605469 4.664063 16.40625 5.0625 C 16.242188 5.398438 16.28125 5.792969 16.5 6.09375 C 20.828125 11.769531 24.828125 17.015625 29.21875 22.75 L 13.9375 41.375 C 13.699219 41.671875 13.652344 42.074219 13.808594 42.417969 C 13.96875 42.761719 14.308594 42.988281 14.6875 43 L 34.0625 43 C 34.074219 43 34.082031 43 34.09375 43 C 38.078125 43.097656 41.195313 41.1875 42.71875 37.59375 C 42.730469 37.574219 42.742188 37.550781 42.75 37.53125 C 42.785156 37.421875 42.992188 37.113281 43.15625 36.625 C 43.15625 36.613281 43.15625 36.605469 43.15625 36.59375 C 43.320313 36.03125 43.53125 35.761719 43.75 35.59375 L 41.375 48 L 4.75 48 C 11.039063 40.476563 17.160156 33.203125 23.5625 25.65625 C 23.871094 25.285156 23.871094 24.746094 23.5625 24.375 C 17.40625 16.820313 6.792969 3.910156 5.21875 2 Z"/></svg>