<svg xmlns="http://www.w3.org/2000/svg"  viewBox="0 0 50 50" width="50px" height="50px"><path d="M 25 0 C 19.464844 0 15 4.464844 15 10 C 15 11.972656 15.5625 13.789063 16.53125 15.3125 C 12.972656 14.574219 8.417969 14 3 14 C 2.96875 14 2.9375 14 2.90625 14 C 2.390625 14.046875 1.996094 14.480469 2 15 L 2 22.1875 C 0.84375 22.605469 0 23.707031 0 25 L 0 29 C 0 30.644531 1.355469 32 3 32 L 4 32 C 6.210938 32 8 30.210938 8 28 L 8 26 C 8 23.789063 6.210938 22 4 22 L 4 16.0625 C 16.4375 16.253906 23.289063 19.378906 24 19.71875 L 24 47.1875 C 21.074219 45.488281 14.144531 42.277344 4 42.0625 L 4 33 L 2 33 L 2 43 C 2 43.550781 2.449219 44 3 44 C 16.359375 44 23.828125 49.359375 24.3125 49.71875 C 24.359375 49.765625 24.414063 49.808594 24.46875 49.84375 C 24.480469 49.84375 24.488281 49.84375 24.5 49.84375 C 24.578125 49.886719 24.664063 49.917969 24.75 49.9375 C 24.761719 49.9375 24.769531 49.9375 24.78125 49.9375 C 24.800781 49.949219 24.824219 49.960938 24.84375 49.96875 C 24.855469 49.96875 24.863281 49.96875 24.875 49.96875 C 24.894531 49.96875 24.917969 49.96875 24.9375 49.96875 C 24.949219 49.96875 24.957031 49.96875 24.96875 49.96875 C 25.03125 49.976563 25.09375 49.976563 25.15625 49.96875 C 25.289063 49.941406 25.417969 49.890625 25.53125 49.8125 C 25.550781 49.804688 25.574219 49.792969 25.59375 49.78125 C 25.628906 49.753906 25.660156 49.722656 25.6875 49.6875 C 26.246094 49.277344 33.714844 44 47 44 C 47.550781 44 48 43.550781 48 43 L 48 33 L 46 33 L 46 42.0625 C 35.855469 42.277344 28.925781 45.488281 26 47.1875 L 26 19.71875 C 26.710938 19.378906 33.5625 16.253906 46 16.0625 L 46 22 C 43.789063 22 42 23.789063 42 26 L 42 28 C 42 30.210938 43.789063 32 46 32 L 47 32 C 48.644531 32 50 30.644531 50 29 L 50 25 C 50 23.707031 49.15625 22.605469 48 22.1875 L 48 15 C 48 14.449219 47.550781 14 47 14 C 41.566406 14 37 14.570313 33.4375 15.3125 C 34.421875 13.761719 35 11.933594 35 10 C 35 4.464844 30.535156 0 25 0 Z M 25 2 C 29.464844 2 33 5.535156 33 10 C 33 12.472656 31.855469 14.78125 30.03125 16.1875 C 30.019531 16.191406 30.011719 16.214844 30 16.21875 C 27.46875 16.921875 25.738281 17.550781 25 17.875 C 24.261719 17.550781 22.53125 16.921875 20 16.21875 C 19.988281 16.210938 19.980469 16.195313 19.96875 16.1875 C 18.132813 14.769531 17 12.585938 17 10 C 17 5.535156 20.535156 2 25 2 Z M 3 24 L 4 24 C 5.191406 24 6 24.808594 6 26 L 6 28 C 6 29.191406 5.191406 30 4 30 L 3 30 C 2.445313 30 2 29.554688 2 29 L 2 25 C 2 24.445313 2.445313 24 3 24 Z M 46 24 L 47 24 C 47.554688 24 48 24.445313 48 25 L 48 29 C 48 29.554688 47.554688 30 47 30 L 46 30 C 44.808594 30 44 29.191406 44 28 L 44 26 C 44 24.808594 44.808594 24 46 24 Z"/></svg>