<?xml version="1.0" encoding="iso-8859-1"?><!-- Generator: Adobe Illustrator 21.1.0, SVG Export Plug-In . SVG Version: 6.00 Build 0)  --><svg xmlns="http://www.w3.org/2000/svg" xmlns:xlink="http://www.w3.org/1999/xlink" viewBox="0 0 50 50" width="50px" height="50px"><g><path d="M30.9,26.7c-1.1-0.8-2.7-1.2-4.7-1.2h-7.9v9.6h7.9c0.9,0,1.7-0.1,2.4-0.2c0.8-0.1,1.4-0.4,2-0.8c0.6-0.4,1-0.9,1.4-1.5c0.3-0.6,0.5-1.4,0.5-2.4C32.5,28.7,32,27.5,30.9,26.7z"/><path d="M28.6,23.2c0.7-0.2,1.2-0.5,1.7-0.9c0.4-0.4,0.8-0.8,1-1.3s0.3-1,0.3-1.6c0-3-1.8-4.5-5.4-4.5h-7.9v8.6h7.9C27.1,23.5,27.9,23.4,28.6,23.2z"/><path d="M25,2C12.317,2,2,12.318,2,25s10.317,23,23,23s23-10.318,23-23S37.683,2,25,2z M27,36.992V40h-2v-3h-2v3h-2v-3h-5V13h5v-3h2v3h2v-3h2v3.016c2.064,0.092,6.9,0.781,6.9,5.884c0,4.1-3.5,5.2-4.2,5.4v0.1c1.5,0.2,5.1,1.6,5.1,5.8C34.8,36.278,29.301,36.927,27,36.992z"/></g></svg>