<?xml version="1.0" encoding="iso-8859-1"?>
<!-- Generator: Adobe Illustrator 24.1.0, SVG Export Plug-In . SVG Version: 6.00 Build 0)  -->
<svg version="1.1" id="Layer_1" xmlns="http://www.w3.org/2000/svg" xmlns:xlink="http://www.w3.org/1999/xlink" x="0px" y="0px"
	 viewBox="0 0 50 50" style="enable-background:new 0 0 50 50;" xml:space="preserve">
<g>
</g>
<g>
	<path style="fill:none;stroke:#000000;stroke-width:2;stroke-linecap:round;stroke-linejoin:round;stroke-miterlimit:10;" d="
		M49,32l-2,0.009c-0.669,0-1.287-0.538-1.615-1.141l-2.802-6.081l-2.546-15.41c-0.113-0.66-0.585-1.233-1.224-1.352
		c-0.96-0.177-1.793,0.579-1.793,1.538v17.141l1.509,10.752C39.076,40.663,41.771,43,44.92,43L49,42.998"/>
	<path style="fill:none;stroke:#000000;stroke-width:2;stroke-linecap:round;stroke-miterlimit:10;" d="M13.525,26.295
		c-0.845-1.703-0.642-3.533,0.404-5.017c1.612-2.314,5.283-2.67,8.059-0.712c2.865,1.958,3.85,5.428,2.239,7.742
		c-0.985,1.513-2.776,2.136-4.746,1.958"/>
	<path d="M23.262,15.929c-0.467,0.688-0.294,1.628,0.386,2.1c0.68,0.472,1.609,0.297,2.076-0.39c0,0,0.001-0.001,0.001-0.001
		c0.467-0.688,0.294-1.628-0.386-2.1c-0.68-0.472-1.609-0.297-2.076,0.39C23.263,15.928,23.263,15.929,23.262,15.929z"/>
	<path style="fill:none;stroke:#000000;stroke-width:2;stroke-linecap:round;stroke-miterlimit:10;" d="M1,28l2.978-4.441
		c0.448-0.639,0.986-1.095,1.702-1.369L13,19L7,29l3.161,1.677l5.166-4.859C16.402,24.905,18.014,24.996,19,26l0,0
		c1.075,1.004,1.165,2.646,0.269,3.833l-6.689,9.24c-1.254,1.643-3.046,2.738-5.017,3.194L1,44"/>
	<path style="fill:none;stroke:#000000;stroke-width:2;stroke-miterlimit:10;" d="M13,19.653l7.292-11.359L33,17L17,41l-4.279-2.774
		"/>
</g>
</svg>