<?xml version="1.0" encoding="utf-8"?><!-- Generator: Adobe Illustrator 18.1.1, SVG Export Plug-In . SVG Version: 6.00 Build 0)  --><svg xmlns="http://www.w3.org/2000/svg" xmlns:xlink="http://www.w3.org/1999/xlink" viewBox="0 0 50 50" width="500px" height="500px"><path fill="none" stroke="#000000" stroke-width="2" stroke-linecap="round" stroke-linejoin="round" stroke-miterlimit="10" d="M25.4,41.6c1.1,0.2,2.3,0.4,3.5,0.4c9.4,0,17-7.6,17-17c0-9.4-7.6-17-17-17c-1.2,0-2.4,0.1-3.5,0.4"/><g><path fill="none" stroke="#000000" stroke-width="2" stroke-linecap="round" stroke-linejoin="round" stroke-miterlimit="10" d="M21.9,8c-9.4,0-17,7.6-17,17s7.6,17,17,17c9.4,0,17-7.6,17-17S31.3,8,21.9,8z"/></g><g><path d="M21,33.5V21.3h-4.4v-1.6c0.6,0,1.1,0,1.7-0.1c0.5-0.1,1-0.3,1.5-0.5c0.4-0.2,0.8-0.6,1.1-1c0.3-0.4,0.5-0.9,0.6-1.6H23v17H21z"/></g></svg>