<?xml version="1.0" encoding="iso-8859-1"?>
<!-- Generator: Adobe Illustrator 23.0.3, SVG Export Plug-In . SVG Version: 6.00 Build 0)  -->
<svg version="1.1" id="Layer_1" xmlns="http://www.w3.org/2000/svg" xmlns:xlink="http://www.w3.org/1999/xlink" x="0px" y="0px"
	 viewBox="0 0 50 50" style="enable-background:new 0 0 50 50;" xml:space="preserve">
<path style="fill:none;stroke:#000000;stroke-width:2;stroke-miterlimit:10;" d="M3,29.923V11c0-2.209,1.791-4,4-4h36
	c2.209,0,4,1.791,4,4v18.923"/>
<path style="fill:none;stroke:#000000;stroke-width:2;stroke-miterlimit:10;" d="M3,17c0-2.209,1.791-4,4-4h36c2.209,0,4,1.791,4,4"
	/>
<path style="fill:none;stroke:#000000;stroke-width:2;stroke-miterlimit:10;" d="M3,23c0-2.209,1.791-4,4-4h36c2.209,0,4,1.791,4,4"
	/>
<path d="M30.496,28.164l-0.374,0.748c-0.971,1.939-2.953,3.165-5.122,3.165l0,0c-2.169,0-4.151-1.226-5.12-3.165l-0.373-0.747
	C18.537,26.225,16.554,25,14.385,25H2v14c0,2.761,2.239,5,5,5h36c2.761,0,5-2.239,5-5V25H35.615
	C33.447,25,31.465,26.225,30.496,28.164z"/>
</svg>