<svg xmlns="http://www.w3.org/2000/svg"  viewBox="0 0 50 50" width="500px" height="500px"><defs><style>.b512c0fb-19e3-44a4-bc63-69a31dcac944{fill:none;stroke:#000;stroke-linecap:round;stroke-linejoin:round;stroke-width:2px;}</style></defs><title>Shopping</title><g id="b0b17bae-1950-49b3-9c33-7273b2f70352" data-name="Shopping"><polygon class="b512c0fb-19e3-44a4-bc63-69a31dcac944" points="3 49 7 14 19 15 31 14 36 49 3 49"/><line class="b512c0fb-19e3-44a4-bc63-69a31dcac944" x1="35" y1="16" x2="40" y2="43"/><polyline class="b512c0fb-19e3-44a4-bc63-69a31dcac944" points="46 46 36 49 40 43 46 46 38 14 35 16 31 14"/><path class="b512c0fb-19e3-44a4-bc63-69a31dcac944" d="M13,19l1-7c.8-3.866,4.169-8,8-8,2.873,0,5,2,5,7l-1,8"/><path d="M22,6.5a2.13,2.13,0,0,1,1.1.23,3.084,3.084,0,0,0-1.19.78,4.592,4.592,0,0,0-1,1.82,10.42,10.42,0,0,0-.41,3.11l.3,2.37a.987.987,0,0,1-.87,1.11.57.57,0,0,1-.13.01,1.009,1.009,0,0,1-.99-.87l-.3-2.44a.487.487,0,0,1-.01-.12A12.9,12.9,0,0,1,19,8.73a7.309,7.309,0,0,1,.51-1.24A4.118,4.118,0,0,1,22,6.5Z"/><path d="M33.64,14.41a1,1,0,0,1-1.98.29l-.15-1.06A10.572,10.572,0,0,0,29.7,9.69c-.09-.13-.19-.25-.28-.37a11.622,11.622,0,0,0-.83-3.48,11.072,11.072,0,0,1,2.72,2.67,12.551,12.551,0,0,1,2.17,4.79Z"/><path d="M13,20a1,1,0,0,1-.991-1.142l1-7C13.9,7.566,17.576,3,22,3c1.8,0,6,.779,6,8a.861.861,0,0,1-.008.124l-1,8a1,1,0,1,1-1.984-.248L26,10.938C25.986,7,24.641,5,22,5c-3.31,0-6.3,3.724-7.021,7.2l-.989,6.94A1,1,0,0,1,13,20Z"/><path class="b512c0fb-19e3-44a4-bc63-69a31dcac944" d="M18.642,39.923l-6.4-6.492a4.352,4.352,0,0,1,0-6.093,4.2,4.2,0,0,1,6,0l.395.4.111-.114a4.2,4.2,0,0,1,6,0,4.352,4.352,0,0,1,0,6.093Z"/></g></svg>