<?xml version="1.0" encoding="utf-8"?><!-- Generator: Adobe Illustrator 15.0.0, SVG Export Plug-In . SVG Version: 6.00 Build 0)  --><!DOCTYPE svg PUBLIC "-//W3C//DTD SVG 1.1//EN" "http://www.w3.org/Graphics/SVG/1.1/DTD/svg11.dtd"><svg xmlns="http://www.w3.org/2000/svg" xmlns:xlink="http://www.w3.org/1999/xlink" viewBox="0 0 50 50" width="50px" height="50px"><path d="M25,47c-0.552,0-1-0.447-1-1v-6c0-0.553,0.448-1,1-1s1,0.447,1,1v6C26,46.553,25.552,47,25,47z"/><path d="M49,39.857c-0.17,0-0.342-0.043-0.499-0.134l-48-27.714c-0.479-0.276-0.642-0.888-0.366-1.366C0.411,10.165,1.021,10,1.501,10.277l48,27.714c0.479,0.276,0.643,0.888,0.366,1.366C49.682,39.679,49.346,39.857,49,39.857z"/><g><path d="M15.072,18.268C13.766,20.189,13,22.506,13,25c0,6.617,5.383,12,12,12c4.742,0,8.838-2.771,10.785-6.773L15.072,18.268z"/><path d="M36.518,28.34C36.826,27.277,37,26.16,37,25c0-6.617-5.383-12-12-12c-3.396,0-6.46,1.424-8.645,3.699L36.518,28.34z"/></g><path d="M25,11c-0.552,0-1-0.448-1-1V4c0-0.552,0.448-1,1-1s1,0.448,1,1v6C26,10.552,25.552,11,25,11z"/><path d="M10,26H4c-0.552,0-1-0.448-1-1s0.448-1,1-1h6c0.552,0,1,0.448,1,1S10.552,26,10,26z"/><path d="M46,26h-6c-0.553,0-1-0.448-1-1s0.447-1,1-1h6c0.553,0,1,0.448,1,1S46.553,26,46,26z"/><path d="M35.501,44.188c-0.346,0-0.682-0.18-0.867-0.5l-3-5.197c-0.276-0.479-0.112-1.09,0.366-1.366c0.476-0.276,1.089-0.111,1.366,0.366l3,5.197c0.276,0.479,0.112,1.09-0.366,1.366C35.843,44.145,35.671,44.188,35.501,44.188z"/><path d="M17.501,13.01c-0.346,0-0.682-0.179-0.867-0.5l-3-5.197C13.358,6.834,13.522,6.223,14,5.947c0.479-0.277,1.09-0.112,1.366,0.366l3,5.197c0.276,0.479,0.112,1.09-0.366,1.366C17.842,12.967,17.67,13.01,17.501,13.01z"/><path d="M6.814,36.5c-0.346,0-0.682-0.18-0.867-0.5c-0.276-0.479-0.112-1.09,0.366-1.366l5.197-3c0.479-0.276,1.089-0.111,1.366,0.366c0.276,0.479,0.112,1.09-0.366,1.366l-5.197,3C7.155,36.457,6.983,36.5,6.814,36.5z"/><path d="M37.991,18.5c-0.346,0-0.682-0.179-0.867-0.5c-0.276-0.479-0.112-1.09,0.366-1.366l5.197-3c0.477-0.276,1.089-0.113,1.366,0.366c0.276,0.479,0.112,1.09-0.366,1.366l-5.197,3C38.333,18.457,38.161,18.5,37.991,18.5z"/><path d="M14.499,44.188c-0.169,0-0.341-0.043-0.499-0.134c-0.478-0.276-0.642-0.888-0.366-1.366l3-5.197c0.276-0.479,0.886-0.644,1.366-0.366c0.478,0.276,0.642,0.888,0.366,1.366l-3,5.197C15.181,44.008,14.845,44.188,14.499,44.188z"/><path d="M32.499,13.01c-0.17,0-0.342-0.043-0.499-0.134c-0.479-0.276-0.643-0.888-0.366-1.366l3-5.197C34.91,5.834,35.522,5.67,36,5.947c0.479,0.276,0.643,0.888,0.366,1.366l-3,5.197C33.181,12.831,32.845,13.01,32.499,13.01z"/></svg>