<?xml version="1.0" encoding="iso-8859-1"?>
<!-- Generator: Adobe Illustrator 18.0.0, SVG Export Plug-In . SVG Version: 6.00 Build 0)  -->
<!DOCTYPE svg PUBLIC "-//W3C//DTD SVG 1.1//EN" "http://www.w3.org/Graphics/SVG/1.1/DTD/svg11.dtd">
<svg version="1.1" id="Layer_1" xmlns="http://www.w3.org/2000/svg" xmlns:xlink="http://www.w3.org/1999/xlink" x="0px" y="0px"
	 width="50px" height="50px" viewBox="0 0 50 50" style="enable-background:new 0 0 50 50;" xml:space="preserve">
<circle style="fill:none;stroke:#000000;stroke-width:2;stroke-miterlimit:10;" cx="11" cy="9" r="5"/>
<path d="M20.1,1.369c0.198,0.021,0.401,0.057,0.571,0.161c0.5,0.307,0.412,1.206-0.139,1.41c-0.198,0.073-0.415,0.064-0.626,0.054
	c-1.182-0.056-2.365-0.112-3.547-0.168C17.281,1.785,18.718,1.226,20.1,1.369z"/>
<path d="M2.369,16.1c0.021,0.198,0.057,0.401,0.161,0.571c0.307,0.5,1.206,0.412,1.41-0.139c0.073-0.198,0.064-0.415,0.054-0.626
	c-0.056-1.182-0.112-2.365-0.168-3.547C2.785,13.281,2.226,14.718,2.369,16.1z"/>
<path d="M13.886,9.07c-1.163,0.818-2.325,1.637-3.488,2.455c0.219-0.606,0.437-1.212,0.656-1.818
	c0.199-0.551,0.406-1.117,0.801-1.549s1.027-0.703,1.577-0.503S14.282,8.638,13.886,9.07z"/>
<path d="M34.557,32.194c0.386-0.253,0.725-0.581,0.963-0.993c0.29-0.503,0.421-1.066,0.395-1.632l10.437-4.866L38.659,8.206
	l-16.497,7.692l2.483,5.324l-0.858-0.72c0,0-0.001-0.001-0.001-0.001l-3.215-2.698c-0.422-0.355-1.054-0.3-1.409,0.124
	c-0.355,0.423-0.3,1.054,0.123,1.409l0.806,0.676l0,0l4.237,3.555c0.044,0.037,0.092,0.071,0.143,0.1l8.951,5.167
	c0.478,0.275,0.642,0.889,0.366,1.366c-0.178,0.309-0.51,0.5-0.867,0.5h0c-0.174,0-0.346-0.046-0.498-0.134l-8.923-5.151
	c-0.215-0.168-1.128-0.922-2.297-1.892c-0.002-0.002-0.003-0.005-0.006-0.007l-5.078-4.261l-0.937-1.338
	c-0.316-0.452-0.206-1.077,0.246-1.393c0.845-0.592,1.835-0.905,2.862-0.905c0.198,0,0.394,0.013,0.588,0.036l1.293-0.483
	l1.476-0.688c-1.017-0.555-2.166-0.864-3.357-0.864c-1.44,0-2.826,0.438-4.01,1.267c-1.354,0.949-1.685,2.823-0.737,4.178
	l0.901,1.286c0.009,0.018,0.025,0.032,0.035,0.05L22,31.143v5.174l-3.559,7.633c-0.815,1.749-0.056,3.835,1.693,4.651
	c0.468,0.218,0.965,0.329,1.478,0.329c1.355,0,2.601-0.793,3.174-2.021l4.086-8.763c0.037-0.078,0.059-0.141,0.074-0.225
	c0,0,0.055-0.304,0.055-0.464v-0.994l1.63,1.943l-1.043,5.918c-0.335,1.901,0.938,3.72,2.839,4.055
	c0.205,0.036,0.41,0.054,0.611,0.054c1.7,0,3.148-1.217,3.444-2.893l1.504-8.532c0.008-0.044,0.012-0.088,0.014-0.132l0.007-0.164
	c0.011-0.25-0.073-0.494-0.233-0.685L34.557,32.194z M27.816,23.288l-2.995-6.423l12.871-6.002l6.002,12.871l-8.538,3.981
	c-0.211-0.237-0.451-0.45-0.734-0.614L27.816,23.288z M34.511,45.19c-0.142,0.805-0.912,1.362-1.737,1.217
	c-0.395-0.069-0.739-0.289-0.968-0.617c-0.23-0.328-0.318-0.726-0.249-1.121l1.125-6.378c0.051-0.292-0.029-0.59-0.219-0.816
	l-3.696-4.405c-0.27-0.322-0.715-0.441-1.108-0.297C27.263,32.917,27,33.293,27,33.713l0.001,3.707c0,0.001,0,0.002,0,0.003
	l-4.028,8.639c-0.337,0.724-1.256,1.07-1.994,0.726c-0.363-0.169-0.639-0.47-0.775-0.847c-0.137-0.376-0.12-0.784,0.05-1.146
	l3.653-7.833C23.968,36.828,24,36.684,24,36.538v-5.711c0-0.205-0.063-0.405-0.181-0.574l-3.267-4.666
	c1.199,0.992,1.677,1.37,1.908,1.521l-0.007,0.012l8.968,5.178c0.274,0.158,0.574,0.255,0.882,0.32l3.656,4.357L34.511,45.19z"/>
</svg>