<?xml version="1.0" encoding="iso-8859-1"?><!-- Generator: Adobe Illustrator 21.1.0, SVG Export Plug-In . SVG Version: 6.00 Build 0)  --><svg xmlns="http://www.w3.org/2000/svg" xmlns:xlink="http://www.w3.org/1999/xlink" viewBox="0 0 50 50" width="500px" height="500px"><path style="fill:none;stroke:#000000;stroke-width:2;stroke-linecap:round;stroke-miterlimit:10;" d="M44,9H6c-2.209,0-4,1.791-4,4v23c0,2.209,1.791,4,4,4h38c2.209,0,4-1.791,4-4V13C48,10.791,46.209,9,44,9z"/><path style="fill:none;stroke:#000000;stroke-width:2;stroke-linecap:round;stroke-miterlimit:10;" d="M21,16c-2.209,0-4,1.791-4,4v4h4c2.209,0,4-1.791,4-4C25,17.791,23.209,16,21,16z"/><path style="fill:none;stroke:#000000;stroke-width:2;stroke-linecap:round;stroke-miterlimit:10;" d="M13,16c-2.209,0-4,1.791-4,4c0,2.209,1.791,4,4,4h4v-4C17,17.791,15.209,16,13,16z"/><polyline style="fill:none;stroke:#000000;stroke-width:2;stroke-miterlimit:10;" points="11,30 17,24.083 23,30 "/><path d="M21,15c-1.641,0-3.088,0.806-4,2.031C16.088,15.806,14.641,15,13,15c-2.757,0-5,2.243-5,5s2.243,5,5,5h1.646l-4.349,4.288l1.404,1.424L17,25.488l5.298,5.224l1.404-1.424L19.354,25H21c2.757,0,5-2.243,5-5S23.757,15,21,15z M16,23h-3c-1.654,0-3-1.346-3-3s1.346-3,3-3s3,1.346,3,3V23z M21,23h-3v-3c0-1.654,1.346-3,3-3s3,1.346,3,3S22.654,23,21,23z"/><path d="M2,23v2h6.131c-0.592-0.577-1.091-1.246-1.451-2H2z"/><polygon points="16,29.283 16,40 18,40 18,29.283 17,28.297 "/><path d="M25.869,25H47l1-2H27.32C26.961,23.754,26.461,24.423,25.869,25z"/><path d="M16,13.685c0.347,0.167,0.683,0.357,1,0.58c0.317-0.224,0.653-0.414,1-0.58V9h-2V13.685z"/><circle cx="32" cy="34" r="1"/><circle cx="35" cy="34" r="1"/><circle cx="38" cy="34" r="1"/><circle cx="41" cy="34" r="1"/></svg>