<?xml version="1.0" encoding="utf-8"?><!-- Generator: Adobe Illustrator 17.1.0, SVG Export Plug-In . SVG Version: 6.00 Build 0)  --><!DOCTYPE svg PUBLIC "-//W3C//DTD SVG 1.0//EN" "http://www.w3.org/TR/2001/REC-SVG-20010904/DTD/svg10.dtd"><svg xmlns="http://www.w3.org/2000/svg" xmlns:xlink="http://www.w3.org/1999/xlink" viewBox="0 0 50 50" width="500px" height="500px"><line fill="none" stroke="#000000" stroke-width="2" stroke-linecap="round" stroke-linejoin="round" stroke-miterlimit="10" x1="42" y1="15" x2="42" y2="34.2"/><path fill="none" stroke="#000000" stroke-width="2" stroke-linejoin="round" stroke-miterlimit="10" d="M14.8,38v8.2c0,1.5,1.2,2.8,2.8,2.8h12.7c1.5,0,2.8-1.2,2.8-2.8V38"/><rect x="24" y="38" width="5" height="11"/><path d="M18,21h-4.1c-0.5,0-0.9-0.4-0.9-0.9v-2.1c0-0.5,0.4-0.9,0.9-0.9H18c0.5,0,0.9,0.4,0.9,0.9v2.1C18.9,20.6,18.5,21,18,21z"/><path d="M26.1,21H22c-0.5,0-0.9-0.4-0.9-0.9v-2.1c0-0.5,0.4-0.9,0.9-0.9h4.1c0.5,0,0.9,0.4,0.9,0.9v2.1C27,20.6,26.6,21,26.1,21z"/><path d="M34.1,21H30c-0.5,0-0.9-0.4-0.9-0.9v-2.1c0-0.5,0.4-0.9,0.9-0.9h4.1c0.5,0,0.9,0.4,0.9,0.9v2.1C35,20.6,34.6,21,34.1,21z"/><path d="M18,27h-4.1c-0.5,0-0.9-0.4-0.9-0.9v-2.1c0-0.5,0.4-0.9,0.9-0.9H18c0.5,0,0.9,0.4,0.9,0.9v2.1C18.9,26.6,18.5,27,18,27z"/><path d="M26.1,27H22c-0.5,0-0.9-0.4-0.9-0.9v-2.1c0-0.5,0.4-0.9,0.9-0.9h4.1c0.5,0,0.9,0.4,0.9,0.9v2.1C27,26.6,26.6,27,26.1,27z"/><path d="M34.1,27H30c-0.5,0-0.9-0.4-0.9-0.9v-2.1c0-0.5,0.4-0.9,0.9-0.9h4.1c0.5,0,0.9,0.4,0.9,0.9v2.1C35,26.6,34.6,27,34.1,27z"/><path d="M18,33h-4.1c-0.5,0-0.9-0.4-0.9-0.9v-2.1c0-0.5,0.4-0.9,0.9-0.9H18c0.5,0,0.9,0.4,0.9,0.9v2.1C18.9,32.6,18.5,33,18,33z"/><path d="M26.1,33H22c-0.5,0-0.9-0.4-0.9-0.9v-2.1c0-0.5,0.4-0.9,0.9-0.9h4.1c0.5,0,0.9,0.4,0.9,0.9v2.1C27,32.6,26.6,33,26.1,33z"/><path d="M34.1,33H30c-0.5,0-0.9-0.4-0.9-0.9v-2.1c0-0.5,0.4-0.9,0.9-0.9h4.1c0.5,0,0.9,0.4,0.9,0.9v2.1C35,32.6,34.6,33,34.1,33z"/><path fill="none" stroke="#000000" stroke-width="2" stroke-linecap="round" stroke-linejoin="round" stroke-miterlimit="10" d="M36,36H12c-1.1,0-2-0.9-2-2V3c0-1.1,0.9-2,2-2h24c1.1,0,2,0.9,2,2v31C38,35.1,37.1,36,36,36z"/><path fill="none" stroke="#000000" stroke-width="2" stroke-linecap="round" stroke-linejoin="round" stroke-miterlimit="10" d="M32.7,14H15.3c-0.7,0-1.3-0.6-1.3-1.3V6.3C14,5.6,14.6,5,15.3,5h17.4C33.4,5,34,5.6,34,6.3v6.4C34,13.4,33.4,14,32.7,14z"/></svg>