<?xml version="1.0" encoding="iso-8859-1"?><!-- Generator: Adobe Illustrator 19.1.0, SVG Export Plug-In . SVG Version: 6.00 Build 0)  --><svg xmlns="http://www.w3.org/2000/svg" xmlns:xlink="http://www.w3.org/1999/xlink" viewBox="0 0 50 50" width="500px" height="500px"><polyline style="fill:none;stroke:#000000;stroke-width:2;stroke-linecap:round;stroke-miterlimit:10;" points="16,11 8,11 8,3 "/><path style="fill:none;stroke:#000000;stroke-width:2;stroke-miterlimit:10;" d="M8.277,10.704C12.312,5.989,18.307,3,25,3c12.15,0,22,9.85,22,22s-9.85,22-22,22S3,37.15,3,25c0-3.633,0.881-7.061,2.441-10.081"/><circle cx="25" cy="6" r="1"/><circle cx="25" cy="44" r="1"/><circle cx="44" cy="25" r="1"/><circle cx="6" cy="25" r="1"/><circle cx="41.454" cy="15.5" r="1"/><circle cx="8.546" cy="34.5" r="1"/><circle cx="34.5" cy="8.546" r="1"/><circle cx="15.5" cy="41.454" r="1"/><circle cx="34.5" cy="41.454" r="1"/><circle cx="41.454" cy="34.5" r="1"/><path d="M18.364,16.907c2.676,0,4.648,1.699,4.648,4.023c0,1.494-0.723,2.715-3.086,5.107l-3.135,3.174v0.166h6.445v1.963h-9.492v-1.582l4.766-4.961c1.885-1.963,2.344-2.705,2.344-3.74c0-1.289-1.104-2.256-2.559-2.256c-1.553,0-2.598,1.016-2.598,2.52v0.029h-2.07v-0.029C13.628,18.723,15.591,16.907,18.364,16.907z"/><path d="M32.593,28.616h-6.875v-2.031c1.26-2.305,3.359-5.576,5.869-9.336h3.115v9.414h1.943v1.953h-1.943v2.725h-2.109V28.616z M27.817,26.711h4.805v-7.539h-0.127c-1.396,2.021-3.018,4.521-4.678,7.402V26.711z"/></svg>