<?xml version="1.0" encoding="utf-8"?><!-- Generator: Adobe Illustrator 15.0.0, SVG Export Plug-In . SVG Version: 6.00 Build 0)  --><!DOCTYPE svg PUBLIC "-//W3C//DTD SVG 1.1//EN" "http://www.w3.org/Graphics/SVG/1.1/DTD/svg11.dtd"><svg xmlns="http://www.w3.org/2000/svg" xmlns:xlink="http://www.w3.org/1999/xlink" viewBox="0 0 50 50" width="50px" height="50px"><path d="M21.9,7c-9.925,0-18,8.075-18,18c0,9.925,8.075,18,18,18s18-8.075,18-18C39.9,15.075,31.825,7,21.9,7z M23,33.5h-2V21.3h-4.4v-1.6c0.6,0,1.1,0,1.7-0.1c0.5-0.1,1-0.3,1.5-0.5c0.4-0.2,0.8-0.6,1.1-1c0.3-0.4,0.5-0.9,0.6-1.6H23V33.5z"/><path d="M30.76,7.096C37.35,10.371,41.9,17.156,41.9,25c0,7.845-4.551,14.629-11.141,17.903C39.814,41.97,46.9,34.297,46.9,25C46.9,15.703,39.814,8.03,30.76,7.096z"/></svg>