<?xml version="1.0" encoding="iso-8859-1"?><!-- Generator: Adobe Illustrator 22.1.0, SVG Export Plug-In . SVG Version: 6.00 Build 0)  --><svg xmlns="http://www.w3.org/2000/svg" xmlns:xlink="http://www.w3.org/1999/xlink" viewBox="0 0 50 50" width="50px" height="50px"><path d="M5,17.5l-4.845-7.258c-0.342-0.545-0.094-1.266,0.512-1.488l18.239-6.691c0.454-0.166,0.963,0.007,1.219,0.415L25,10L5,17.5z"/><path d="M20.125,32.532L25,25L5,17.5l-4.845,7.418c-0.342,0.535-0.094,1.241,0.512,1.459l18.239,6.561C19.36,33.102,19.869,32.932,20.125,32.532z"/><path d="M25,25l4.985-8.187c0.242-0.397,0.605-0.7,1.033-0.862l18.288-6.916c0.46-0.174,0.874,0.347,0.614,0.773L45,17.5L25,25z"/><path d="M46.824,7.834L31.094,2.063c-0.454-0.166-0.963,0.007-1.219,0.415L25,10l8.083,3.031L46.824,7.834z"/><path d="M26,26.761V48l18.343-6.699C44.738,41.157,45,40.781,45,40.361V19.636L26,26.761z"/><path d="M24,30.226l-2.196,3.393c-0.57,0.884-1.528,1.384-2.533,1.384c-0.346,0-0.697-0.059-1.04-0.183L5,30.061v10.301c0,0.42,0.262,0.795,0.657,0.939L24,48V30.226z"/></svg>