<?xml version="1.0" encoding="iso-8859-1"?>
<!-- Generator: Adobe Illustrator 23.0.3, SVG Export Plug-In . SVG Version: 6.00 Build 0)  -->
<svg version="1.1" id="Layer_1" xmlns="http://www.w3.org/2000/svg" xmlns:xlink="http://www.w3.org/1999/xlink" x="0px" y="0px"
	 viewBox="0 0 50 50" style="enable-background:new 0 0 50 50;" xml:space="preserve">
<g id="IOS_copy_17_">
	<path d="M41.1,50H37l-0.5-3.2c-0.4-0.1-0.7-0.2-1.1-0.4l-2.7,1.8l-3-3l1.8-2.7c-0.2-0.3-0.3-0.7-0.4-1L28,41v-4.2l3.1-0.5
		c0.1-0.4,0.3-0.7,0.4-1.1l-1.8-2.5l3-3l2.7,1.9c0.3-0.2,0.7-0.3,1-0.4L37,28h4.2l0.5,3.2c0.3,0.1,0.7,0.2,1,0.4l2.6-1.9l2.9,2.9
		l-1.8,2.7c0.2,0.3,0.3,0.7,0.4,1l3.2,0.5V41l-3.1,0.6c-0.1,0.3-0.2,0.7-0.4,1.1l1.9,2.6l-3,3l-2.7-1.8c-0.4,0.2-0.7,0.3-1,0.4
		L41.1,50z M38.6,48h0.8l0.5-2.8l0.6-0.2c0.6-0.2,1.2-0.4,1.8-0.7l0.5-0.3l2.3,1.6l0.6-0.6L44,42.7l0.4-0.6c0.3-0.5,0.5-1.1,0.7-1.7
		l0.2-0.6l2.7-0.6v-0.8L45.2,38L45,37.4c-0.2-0.6-0.4-1.2-0.7-1.8L44,35.1l1.6-2.3l-0.5-0.5L42.8,34l-0.6-0.4
		c-0.5-0.3-1.1-0.5-1.7-0.7l-0.6-0.2L39.5,30h-0.8l-0.5,2.8l-0.6,0.1c-0.6,0.2-1.2,0.5-1.9,0.8l-0.5,0.2l-2.3-1.6l-0.6,0.6l1.6,2.3
		l-0.4,0.5c-0.3,0.5-0.5,1.1-0.6,1.6L32.8,38L30,38.5v0.8l2.7,0.5l0.2,0.6c0.2,0.5,0.4,1.2,0.7,1.8l0.3,0.5L32.3,45l0.6,0.6l2.4-1.6
		l0.6,0.4c0.5,0.3,1.1,0.5,1.7,0.7l0.6,0.2L38.6,48z M39,42.9c-2.2,0-4-1.8-4-4c0-2.2,1.8-4,4-4s4,1.8,4,4
		C43,41.2,41.2,42.9,39,42.9z M39,37c-1.1,0-2,0.9-2,2s0.9,2,2,2s2-0.9,2-2C41,37.8,40.1,37,39,37z"/>
</g>
<line style="fill:none;stroke:#000000;stroke-width:2;stroke-linecap:round;stroke-linejoin:round;stroke-miterlimit:10;" x1="20" y1="14" x2="30" y2="14"/>
<path style="fill:none;stroke:#000000;stroke-width:2;stroke-linecap:round;stroke-linejoin:round;stroke-miterlimit:10;" d="M2,21
	L9,7c0,0,31.875,0,32,0l7,14"/>
<g>
	<path d="M42,26.362V8h-2v18.051C40.683,26.103,41.35,26.208,42,26.362z"/>
	<path d="M26.362,42H10V8H8v35c0,0.553,0.448,1,1,1h18C26.732,43.359,26.525,42.688,26.362,42z"/>
</g>
</svg>