<?xml version="1.0" encoding="utf-8"?><!-- Generator: Adobe Illustrator 15.0.0, SVG Export Plug-In . SVG Version: 6.00 Build 0)  --><!DOCTYPE svg PUBLIC "-//W3C//DTD SVG 1.1//EN" "http://www.w3.org/Graphics/SVG/1.1/DTD/svg11.dtd"><svg xmlns="http://www.w3.org/2000/svg" xmlns:xlink="http://www.w3.org/1999/xlink" viewBox="0 0 50 50" width="50px" height="50px"><g><polygon points="36.318,27.041 38.764,27.041 37.923,22.842 "/><path d="M45,7H5c-2.757,0-5,2.243-5,5v26c0,2.757,2.243,5,5,5h40c2.757,0,5-2.243,5-5V12C50,9.243,47.757,7,45,7z M10.804,19.663c1.166,0,1.614,1.094,1.614,1.094l0.993,5.042c-1.353-4.36-7.169-6.136-7.169-6.136S9.637,19.663,10.804,19.663z M11.882,30.75l-2.367-8.998c0,0,2.494,1.263,4.031,4.707c0.065,0.419,0.22,1.093,0.22,1.093l2.699-7.913v-0.001h3.155L15.133,30.75H11.882z M21.986,30.751h-2.948l1.749-11.112h2.984L21.986,30.751z M27.001,31.1c-2.113,0-3.205-0.646-3.205-0.646l0.51-2.354c0,0,1.125,0.648,2.831,0.648c1.702,0,1.941-0.716,1.941-1.021c0-1.806-4.089-1.326-4.089-4.836c0-1.942,1.601-3.476,4.702-3.476c1.365,0,2.763,0.545,2.763,0.545l-0.478,2.456c0,0-1.092-0.718-2.045-0.718c-1.467,0-1.978,0.48-1.978,1.124c0,1.26,4.091,1.465,4.092,4.292C32.046,29.465,29.113,31.1,27.001,31.1z M39.509,30.751l-0.317-1.586H35.5l-0.607,1.586h-2.928l4.84-11.112h3.103l2.284,11.112H39.509z"/></g></svg>