<?xml version="1.0" encoding="utf-8"?><!-- Generator: Adobe Illustrator 18.1.1, SVG Export Plug-In . SVG Version: 6.00 Build 0)  --><svg xmlns="http://www.w3.org/2000/svg" xmlns:xlink="http://www.w3.org/1999/xlink" viewBox="0 0 50 50" width="500px" height="500px"><g><circle fill="none" stroke="#000000" stroke-width="2" stroke-miterlimit="10" cx="13" cy="37" r="5"/></g><g><circle fill="none" stroke="#000000" stroke-width="2" stroke-miterlimit="10" cx="39" cy="37" r="5"/></g><path fill="none" stroke="#000000" stroke-width="2" stroke-miterlimit="10" d="M45,37h2c1,0,2-1,2-2c0,0,0-7.9,0-9.6c0-1.7-1.4-3.7-1.4-3.7l-4.1-5.5c-0.8-1-2.1-2.2-3.5-2.2h-8c-1,0-2,1-2,2v19c0,1,1,2,2,2h2 M49,26c0,0-10,0-11,0s-2-1-2-2c0-0.6,0-2.5,0-4c0-1.1,1-2,2-2s6.8,0,6.8,0"/><path fill="none" stroke="#000000" stroke-width="2" stroke-miterlimit="10" d="M18,37h10.2c1,0,1.8-0.8,1.8-1.8V11c0-1.1-0.9-2-2-2H3c-1.1,0-2,0.9-2,2v24c0,1.1,0.9,2,2,2h5"/><g><path d="M9,20v1.1H6.3v1.3h2.4v1H6.3v2.4H5V20H9z"/><path d="M20.2,20v1.1h-3v1.2H20v1h-2.8v1.4h3.1v1.1H16V20H20.2z"/><path d="M25.9,20v1.1h-3v1.2h2.8v1h-2.8v1.4H26v1.1h-4.3V20H25.9z"/><path d="M13,20c0.5,0,1.7,0.3,1.7,1.6c0,0.9-0.6,1.3-0.9,1.4v0c0.2,0,0.8,0.2,0.8,1.6c0,0.1,0,0.8,0.2,1h-1.3c-0.1-0.2-0.1-0.4-0.1-0.6c-0.1-0.9-0.1-1.6-1-1.6h-1.3v2.2H10V20H13z M12.6,22.6c0.3,0,0.9,0,0.9-0.8c0-0.7-0.6-0.8-0.9-0.8h-1.4v1.6H12.6z"/></g></svg>