<?xml version="1.0" encoding="iso-8859-1"?>
<!-- Generator: Adobe Illustrator 23.0.3, SVG Export Plug-In . SVG Version: 6.00 Build 0)  -->
<svg version="1.1" id="Layer_1" xmlns="http://www.w3.org/2000/svg" xmlns:xlink="http://www.w3.org/1999/xlink" x="0px" y="0px"
	 viewBox="0 0 50 50" style="enable-background:new 0 0 50 50;" xml:space="preserve">
<path d="M47.301,9l-22-7c-0.199,0-0.402,0-0.602,0l-22,7C2.301,9.199,2,9.602,2,10v37c0,0.602,0.398,1,1,1h5V17c0-0.602,0.398-1,1-1
	h32c0.602,0,1,0.398,1,1v31h5c0.602,0,1-0.398,1-1V10C48,9.602,47.699,9.199,47.301,9z"/>
<path d="M10,24h30v-6H10V24z"/>
<g>
	<path d="M15.732,32.708c0-2.666,1.65-4.52,4.037-4.52s4.037,1.841,4.037,4.52c0,2.666-1.65,4.52-4.037,4.52
		C17.396,37.228,15.732,35.374,15.732,32.708z M17.332,46.876l6.97-9.572l6.094-8.747h2.768l-7.084,9.699l-5.967,8.62H17.332z
		 M21.496,32.695c0-1.574-0.66-2.526-1.727-2.526c-1.054,0-1.727,0.978-1.727,2.526s0.686,2.552,1.727,2.552
		S21.496,34.244,21.496,32.695z M26.6,42.712c0-2.666,1.663-4.507,4.05-4.507s4.037,1.841,4.037,4.507
		c0,2.679-1.65,4.532-4.037,4.532S26.6,45.391,26.6,42.712z M32.363,42.712c0-1.574-0.66-2.526-1.714-2.526
		s-1.727,0.978-1.727,2.526s0.686,2.552,1.727,2.552S32.363,44.261,32.363,42.712z"/>
</g>
</svg>