<?xml version="1.0" encoding="iso-8859-1"?><!-- Generator: Adobe Illustrator 22.0.1, SVG Export Plug-In . SVG Version: 6.00 Build 0)  --><svg xmlns="http://www.w3.org/2000/svg" xmlns:xlink="http://www.w3.org/1999/xlink" viewBox="0 0 50 50" width="500px" height="500px"><g><path d="M48,16v-2c0-2.757-2.243-5-5-5H7c-2.757,0-5,2.243-5,5v2H48z"/><path d="M48,30.615V24v-3H2v15c0,2.757,2.243,5,5,5h18h6.809c2.694,6.177,7.476,8.656,7.691,8.8L40,50l0.5-0.2c0.4-0.2,9.5-5.3,9.5-17.9v-0.8l-0.8-0.2C48.767,30.807,48.375,30.711,48,30.615z M25,26H9v-2h16V26z M40,47.7c-1.8-1-7.7-5.3-8-15c2.6-0.6,4.1-1.4,5.2-1.9c1.1-0.6,1.7-0.9,2.8-0.9s1.7,0.3,2.8,0.9c1.2,0.5,2.7,1.3,5.2,1.9C47.7,42,41.7,46.6,40,47.7z"/></g></svg>