<?xml version="1.0" encoding="iso-8859-1"?>
<!-- Generator: Adobe Illustrator 23.0.3, SVG Export Plug-In . SVG Version: 6.00 Build 0)  -->
<svg version="1.1" id="Layer_1" xmlns="http://www.w3.org/2000/svg" xmlns:xlink="http://www.w3.org/1999/xlink" x="0px" y="0px"
	 viewBox="0 0 50 50" style="enable-background:new 0 0 50 50;" xml:space="preserve">
<circle style="fill:none;stroke:#000000;stroke-width:2;stroke-miterlimit:10;" cx="40" cy="45" r="3"/>
<circle style="fill:none;stroke:#000000;stroke-width:2;stroke-miterlimit:10;" cx="27" cy="45" r="3"/>
<circle cx="3" cy="3" r="2"/>
<line style="fill:none;stroke:#000000;stroke-width:2;stroke-linecap:round;stroke-miterlimit:10;" x1="37" y1="5" x2="27" y2="21"/>
<path style="fill:none;stroke:#000000;stroke-width:2;stroke-linecap:round;stroke-miterlimit:10;" d="M39,17c0-1.105-0.895-2-2-2
	c-1.105,0-2,0.895-2,2v2c0,0,0,0,0,0c0,1.105,0.895,2,2,2s2-0.895,2-2V17z"/>
<path style="fill:none;stroke:#000000;stroke-width:2;stroke-linecap:round;stroke-miterlimit:10;" d="M29,7c0-1.105-0.895-2-2-2
	c-1.105,0-2,0.895-2,2v2c0,0,0,0,0,0c0,1.105,0.895,2,2,2s2-0.895,2-2V7z"/>
<path d="M48.817,14.436c-0.186-0.269-0.491-0.429-0.817-0.429h-7.02C41.611,14.844,42,15.873,42,17v2c0,2.757-2.243,5-5,5
	s-5-2.243-5-5v-0.34l-2.456,3.93C28.975,23.501,27.997,24,26.997,24c-0.543,0-1.093-0.146-1.587-0.456
	c-1.405-0.878-1.832-2.729-0.954-4.134l3.377-5.403H17.272l-2.128-8.594c-0.68-2.288-1.814-4.406-5.479-4.406H3
	C2.451,1.007,2.007,1.451,2.007,2S2.451,2.993,3,2.993h6.664c2.085,0,2.887,0.67,3.563,2.942l7.996,32.293
	c0.591,2.233,1.259,4.765,5.485,4.765h13.298C40.556,42.993,41,42.549,41,42s-0.444-0.993-0.993-0.993H26.709
	c-2.696,0-2.986-1.099-3.561-3.271l-0.679-2.742h18.339c0.413,0,0.783-0.255,0.929-0.642l7.191-19
	C49.045,15.047,49.003,14.704,48.817,14.436z"/>
</svg>