<?xml version="1.0" encoding="iso-8859-1"?>
<!-- Generator: Adobe Illustrator 23.0.3, SVG Export Plug-In . SVG Version: 6.00 Build 0)  -->
<svg version="1.1" id="Layer_1" xmlns="http://www.w3.org/2000/svg" xmlns:xlink="http://www.w3.org/1999/xlink" x="0px" y="0px"
	 viewBox="0 0 50 50" style="enable-background:new 0 0 50 50;" xml:space="preserve">
<g id="IOS_copy_18_">
	<path d="M41.1,50H37l-0.5-3.2c-0.4-0.1-0.7-0.2-1.1-0.4l-2.7,1.8l-3-3l1.8-2.7c-0.2-0.3-0.3-0.7-0.4-1L28,41v-4.2l3.1-0.5
		c0.1-0.4,0.3-0.7,0.4-1.1l-1.8-2.5l3-3l2.7,1.9c0.3-0.2,0.7-0.3,1-0.4L37,28h4.2l0.5,3.2c0.3,0.1,0.7,0.2,1,0.4l2.6-1.9l2.9,2.9
		l-1.8,2.7c0.2,0.3,0.3,0.7,0.4,1l3.2,0.5V41l-3.1,0.6c-0.1,0.3-0.2,0.7-0.4,1.1l1.9,2.6l-3,3l-2.7-1.8c-0.4,0.2-0.7,0.3-1,0.4
		L41.1,50z M38.6,48h0.8l0.5-2.8l0.6-0.2c0.6-0.2,1.2-0.4,1.8-0.7l0.5-0.3l2.3,1.6l0.6-0.6L44,42.7l0.4-0.6c0.3-0.5,0.5-1.1,0.7-1.7
		l0.2-0.6l2.7-0.6v-0.8L45.2,38L45,37.4c-0.2-0.6-0.4-1.2-0.7-1.8L44,35.1l1.6-2.3l-0.5-0.5L42.8,34l-0.6-0.4
		c-0.5-0.3-1.1-0.5-1.7-0.7l-0.6-0.2L39.5,30h-0.8l-0.5,2.8l-0.6,0.1c-0.6,0.2-1.2,0.5-1.9,0.8l-0.5,0.2l-2.3-1.6l-0.6,0.6l1.6,2.3
		l-0.4,0.5c-0.3,0.5-0.5,1.1-0.6,1.6L32.8,38L30,38.5v0.8l2.7,0.5l0.2,0.6c0.2,0.5,0.4,1.2,0.7,1.8l0.3,0.5L32.3,45l0.6,0.6l2.4-1.6
		l0.6,0.4c0.5,0.3,1.1,0.5,1.7,0.7l0.6,0.2L38.6,48z M39,42.9c-2.2,0-4-1.8-4-4c0-2.2,1.8-4,4-4s4,1.8,4,4
		C43,41.2,41.2,42.9,39,42.9z M39,37c-1.1,0-2,0.9-2,2s0.9,2,2,2s2-0.9,2-2C41,37.8,40.1,37,39,37z"/>
</g>
<path d="M48.895,20.553l-7-14C41.725,6.214,41.379,6,41,6H9C8.621,6,8.275,6.214,8.105,6.553l-7,14
	c-0.247,0.494-0.047,1.095,0.447,1.342c0.495,0.245,1.095,0.046,1.342-0.447L8,11.236V43c0,0.553,0.448,1,1,1h18
	c-0.642-1.54-1-3.228-1-5c0-7.18,5.82-13,13-13c1.034,0,2.035,0.134,3,0.362V11.236l5.105,10.211C47.281,21.798,47.634,22,48.001,22
	c0.15,0,0.303-0.034,0.446-0.105C48.941,21.647,49.142,21.047,48.895,20.553z M30,15H20c-0.552,0-1-0.447-1-1s0.448-1,1-1h10
	c0.552,0,1,0.447,1,1S30.552,15,30,15z"/>
</svg>