<?xml version="1.0" encoding="iso-8859-1"?><!-- Generator: Adobe Illustrator 19.2.1, SVG Export Plug-In . SVG Version: 6.00 Build 0)  --><svg xmlns="http://www.w3.org/2000/svg" xmlns:xlink="http://www.w3.org/1999/xlink" viewBox="0 0 50 50" width="500px" height="500px"><path style="fill:none;stroke:#000000;stroke-width:2;stroke-linejoin:round;stroke-miterlimit:10;" d="M35.995,20.2C35.376,11.962,33.337,3,33.337,3h10.767C44.104,3,47,13.494,47,25.126C47,40.109,44.167,47,44.167,47"/><path style="fill:none;stroke:#000000;stroke-width:2;stroke-linejoin:round;stroke-miterlimit:10;" d="M19.386,11h10.767c0,0,12.629,15.644,14.014,36h-10.86C32.425,31.006,19.386,11,19.386,11z"/><path style="fill:none;stroke:#000000;stroke-width:2;stroke-linejoin:round;stroke-miterlimit:10;" d="M17.835,24.014C19.161,16.974,19.386,11,19.386,11"/><path style="fill:none;stroke:#000000;stroke-width:2;stroke-linejoin:round;stroke-miterlimit:10;" d="M27.977,27.38c-0.723,3.681-2.769,9.482-3.791,11.62"/><path style="fill:none;stroke:#000000;stroke-width:2;stroke-linejoin:round;stroke-miterlimit:10;" d="M3,19h11.408c0,0,6.454,7.021,9.757,20H12.904C10.647,28.856,3,19,3,19z"/></svg>