<?xml version="1.0" encoding="utf-8"?><!-- Generator: Adobe Illustrator 17.0.2, SVG Export Plug-In . SVG Version: 6.00 Build 0)  --><!DOCTYPE svg PUBLIC "-//W3C//DTD SVG 1.1//EN" "http://www.w3.org/Graphics/SVG/1.1/DTD/svg11.dtd"><svg xmlns="http://www.w3.org/2000/svg" xmlns:xlink="http://www.w3.org/1999/xlink" viewBox="0 0 50 50" width="500px" height="500px"><line fill="none" stroke="#000000" stroke-width="2" stroke-linecap="round" stroke-linejoin="round" stroke-miterlimit="10" x1="25" y1="40" x2="25" y2="46"/><line fill="none" stroke="#000000" stroke-width="2" stroke-linecap="round" stroke-linejoin="round" stroke-miterlimit="10" x1="1.001" y1="11.143" x2="49.001" y2="38.857"/><g><path d="M34.051,29.225C32.454,32.63,29.003,35,25,35c-5.514,0-10-4.486-10-10c0-2.13,0.675-4.102,1.814-5.726l-1.742-1.006C13.766,20.189,13,22.506,13,25c0,6.617,5.383,12,12,12c4.742,0,8.838-2.771,10.785-6.773L34.051,29.225z"/><path d="M18.149,17.735C19.941,16.045,22.348,15,25,15c5.514,0,10,4.486,10,10c0,0.794-0.103,1.562-0.278,2.303l1.796,1.037C36.826,27.278,37,26.16,37,25c0-6.617-5.383-12-12-12c-3.396,0-6.46,1.424-8.645,3.699L18.149,17.735z"/></g><line fill="none" stroke="#000000" stroke-width="2" stroke-linecap="round" stroke-linejoin="round" stroke-miterlimit="10" x1="25" y1="4" x2="25" y2="10"/><line fill="none" stroke="#000000" stroke-width="2" stroke-linecap="round" stroke-linejoin="round" stroke-miterlimit="10" x1="10" y1="25" x2="4" y2="25"/><line fill="none" stroke="#000000" stroke-width="2" stroke-linecap="round" stroke-linejoin="round" stroke-miterlimit="10" x1="46" y1="25" x2="40" y2="25"/><line fill="none" stroke="#000000" stroke-width="2" stroke-linecap="round" stroke-linejoin="round" stroke-miterlimit="10" x1="32.5" y1="37.99" x2="35.5" y2="43.187"/><line fill="none" stroke="#000000" stroke-width="2" stroke-linecap="round" stroke-linejoin="round" stroke-miterlimit="10" x1="14.5" y1="6.813" x2="17.5" y2="12.01"/><line fill="none" stroke="#000000" stroke-width="2" stroke-linecap="round" stroke-linejoin="round" stroke-miterlimit="10" x1="12.01" y1="32.5" x2="6.813" y2="35.5"/><line fill="none" stroke="#000000" stroke-width="2" stroke-linecap="round" stroke-linejoin="round" stroke-miterlimit="10" x1="43.187" y1="14.5" x2="37.99" y2="17.5"/><line fill="none" stroke="#000000" stroke-width="2" stroke-linecap="round" stroke-linejoin="round" stroke-miterlimit="10" x1="17.5" y1="37.99" x2="14.5" y2="43.187"/><line fill="none" stroke="#000000" stroke-width="2" stroke-linecap="round" stroke-linejoin="round" stroke-miterlimit="10" x1="35.5" y1="6.813" x2="32.5" y2="12.01"/></svg>