<?xml version="1.0" encoding="utf-8"?><!-- Generator: Adobe Illustrator 15.0.0, SVG Export Plug-In . SVG Version: 6.00 Build 0)  --><!DOCTYPE svg PUBLIC "-//W3C//DTD SVG 1.1//EN" "http://www.w3.org/Graphics/SVG/1.1/DTD/svg11.dtd"><svg xmlns="http://www.w3.org/2000/svg" xmlns:xlink="http://www.w3.org/1999/xlink" viewBox="0 0 50 50" width="50px" height="50px"><path d="M43,6H7C6.448,6,6,6.448,6,7v15h38V7C44,6.448,43.553,6,43,6z M28.5,15h-7c-0.828,0-1.5-0.672-1.5-1.5s0.672-1.5,1.5-1.5h7c0.828,0,1.5,0.672,1.5,1.5S29.328,15,28.5,15z"/><g><path d="M28,36v1h-1v-1H28 M30,34h-5v5h5V34L30,34z"/></g><g><path d="M28,27v1h-1v-1H28 M30,25h-5v5h5V25L30,25z"/></g><g><path d="M37,27v1h-1v-1H37 M39,25h-5v5h5V25L39,25z"/></g><rect x="31" y="26" width="2" height="2"/><rect x="31" y="29" width="2" height="4"/><rect x="35" y="31" width="2" height="2"/><rect x="37" y="33" width="2" height="4"/><rect x="32" y="35" width="2" height="4"/><rect x="33" y="33" width="2" height="2"/><rect x="36" y="36" width="3" height="2"/><rect x="26" y="31" width="7" height="2"/><path d="M47,21H3c-1.654,0-3,1.346-3,3v23c0,1.654,1.346,3,3,3h44c1.654,0,3-1.346,3-3V24C50,22.346,48.654,21,47,21z M44,43c0,0.553-0.447,1-1,1H7c-0.552,0-1-0.447-1-1V23h38V43z"/></svg>