<svg xmlns="http://www.w3.org/2000/svg"  viewBox="0 0 50 50" width="50px" height="50px"><title>Shopping</title><g id="a3a74ccf-d57f-46f4-9d21-1b6dd90d53cd" data-name="Shopping"><path d="M47,44.985l-7.848-31.4a1,1,0,0,0-1.528-.592l-.965.643L42.086,42.3Zm-9.718,4.241.071.462,9.074-2.723-4.994-2.723Zm-2.492-34.7L31.7,12.968l-.111-.05.191,1.216L36.87,46.583l3.246-3.9ZM35.172,48.8,29.554,12.948l-10.471.875L7.1,12.818a1,1,0,0,0-1.075.894L2.009,48.885a.984.984,0,0,0,.242.783A1.009,1.009,0,0,0,3,50H35.363l-.08-.533ZM25.585,34.343l-6.15,6.231a.949.949,0,0,1-.714.3.964.964,0,0,1-.713-.3l-6.432-6.522a5.375,5.375,0,0,1,0-7.527,5.236,5.236,0,0,1,7.186-.271,5.222,5.222,0,0,1,6.823.552A5.406,5.406,0,0,1,25.585,34.343Z"/><path d="M23.2,6.52a3.084,3.084,0,0,0-1.19.78A4.647,4.647,0,0,0,21,9.13a9.44,9.44,0,0,0-.39,2.56l-1.53.13-.48-.04a12.027,12.027,0,0,1,.48-3.25,6.421,6.421,0,0,1,.52-1.25,4.121,4.121,0,0,1,2.5-.99A2.13,2.13,0,0,1,23.2,6.52Z"/><path d="M33.16,11.47l-.63-.32L30.24,10.1c-.12-.21-.26-.41-.4-.61-.09-.13-.2-.25-.29-.37a11.764,11.764,0,0,0-.83-3.5,11.031,11.031,0,0,1,2.73,2.69A12.747,12.747,0,0,1,33.16,11.47Z"/><path d="M28.13,10.81a.487.487,0,0,1-.01.12l-.02.14-2.04.17.06-.49c-.01-3.96-1.37-5.97-4.02-5.97-3.17,0-6.03,3.38-6.93,6.71l-2.02-.17c1-4.2,4.63-8.55,8.95-8.55C23.91,2.77,28.13,3.55,28.13,10.81Z"/></g></svg>