<?xml version="1.0" encoding="iso-8859-1"?>
<!-- Generator: Adobe Illustrator 23.0.3, SVG Export Plug-In . SVG Version: 6.00 Build 0)  -->
<svg version="1.1" id="Layer_1" xmlns="http://www.w3.org/2000/svg" xmlns:xlink="http://www.w3.org/1999/xlink" x="0px" y="0px"
	 viewBox="0 0 50 50" style="enable-background:new 0 0 50 50;" xml:space="preserve">
<path style="fill:none;stroke:#000000;stroke-width:2;stroke-linejoin:round;stroke-miterlimit:10;" d="M29,14h-8c-1.1,0-2-0.9-2-2
	l0,0c0-1.1,0.9-2,2-2h8c1.1,0,2,0.9,2,2l0,0C31,13.1,30.1,14,29,14z"/>
<g id="IOS_copy_8_">
	<path d="M39.8,45c0.1,0,0.2,0.1,0.2,0.2v1.6c0,0.1-0.1,0.2-0.2,0.2h-1.6c-0.1,0-0.2-0.1-0.2-0.2v-1.6c0-0.1,0.1-0.2,0.2-0.2H39.8z
		 M38.2,37c-0.1,0-0.2,0.1-0.2,0.2v5.6c0,0.1,0.1,0.2,0.2,0.2h1.6c0.1,0,0.2-0.1,0.2-0.2v-5.6c0-0.1-0.1-0.2-0.2-0.2H38.2z M50,48.1
		c0-0.2,0-0.3-0.1-0.5l-9-16C40.7,31.2,40.1,30,39,30s-1.7,1.2-1.9,1.5l-8.9,16.1c-0.1,0.1-0.1,0.3-0.1,0.5c0,1,0.9,1.9,1.9,1.9
		h18.1C49.1,50,50,49.2,50,48.1z M38.9,32.4c0,0,0.1-0.1,0.1-0.2c0,0.1,0.1,0.2,0.1,0.2L47.8,48H30.3L38.9,32.4z"/>
</g>
<path d="M27.906,44H6V6h38v27.036l2,3.554V5c0-0.553-0.447-1-1-1H5C4.447,4,4,4.447,4,5v40c0,0.553,0.447,1,1,1h21.799L27.906,44z"
	/>
</svg>