<svg xmlns="http://www.w3.org/2000/svg"  viewBox="0 0 50 50" width="50px" height="50px"><path d="M 20.007812 6.8867188 L 12.902344 17.955078 L 12.599609 18.085938 L 5.2792969 21.275391 C 4.4492969 21.595391 3.7401563 22.154375 3.1601562 22.984375 L 0.16992188 27.445312 L 0 27.695312 L 0 43.294922 L 1.2597656 42.964844 L 7.8203125 41.234375 C 9.5225603 40.841549 11.090569 39.994824 12.339844 38.814453 L 12.177734 39.064453 L 17.285156 42.376953 L 34.378906 16.732422 L 20.007812 6.8867188 z M 38.439453 7.0019531 C 37.890266 7.023 37.361844 7.2263906 36.933594 7.5878906 C 36.352594 8.0788906 36.019531 8.8012656 36.019531 9.5722656 L 36.019531 26.673828 L 37.542969 37.574219 C 38.174969 41.265219 41.276922 43.945312 44.919922 43.945312 L 50 43.943359 L 50 31 L 46.996094 31.005859 C 46.692094 31.004859 46.411016 30.831234 46.291016 30.615234 L 43.546875 24.457031 L 41.021484 9.2148438 C 40.833484 8.1058438 40.017187 7.2339688 38.992188 7.0429688 C 38.807437 7.0087187 38.622516 6.9949375 38.439453 7.0019531 z M 20.576172 9.7011719 L 31.621094 17.267578 L 25.998047 25.701172 C 25.993887 25.359265 25.964336 25.013476 25.900391 24.664062 C 25.550391 22.744062 24.330781 20.954141 22.550781 19.744141 C 21.240781 18.814141 19.640078 18.294922 18.080078 18.294922 C 17.130078 18.294922 16.229688 18.474219 15.429688 18.824219 C 15.021522 19.004571 14.641072 19.231399 14.291016 19.494141 L 20.576172 9.7011719 z M 24.505859 15.273438 C 24.026631 15.269854 23.555547 15.498359 23.263672 15.927734 C 23.263672 15.927734 23.261719 15.929688 23.261719 15.929688 C 22.794719 16.617688 22.968438 17.557297 23.648438 18.029297 C 24.328437 18.501297 25.257609 18.325672 25.724609 17.638672 C 26.191609 16.950672 26.019844 16.009109 25.339844 15.537109 C 25.084844 15.360109 24.793396 15.275588 24.505859 15.273438 z M 13.558594 20.011719 L 13.644531 20.066406 C 13.511234 20.204789 13.381063 20.347313 13.263672 20.5 L 13.558594 20.011719 z M 12.498047 21.789062 C 12.099933 22.667431 11.939916 23.605199 12.009766 24.533203 C 12.039766 25.003203 12.139062 25.463828 12.289062 25.923828 L 14.029297 24.294922 C 14.869297 23.584922 15.950547 23.183594 17.060547 23.183594 C 18.310547 23.183594 19.520859 23.684687 20.380859 24.554688 C 22.170859 26.244687 22.390859 29.023438 20.880859 31.023438 L 20.699219 31.273438 C 21.367457 31.224199 21.98799 31.082512 22.554688 30.863281 L 16.714844 39.623047 L 13.480469 37.527344 L 19.269531 29.835938 C 20.179531 28.625937 20.06 26.985859 19 26.005859 L 18.970703 25.964844 C 18.060703 25.044844 16.350078 24.954453 15.330078 25.814453 L 11 30.294922 L 8.4003906 28.615234 L 12.498047 21.789062 z"/></svg>