<?xml version="1.0" encoding="iso-8859-1"?><!-- Generator: Adobe Illustrator 19.1.1, SVG Export Plug-In . SVG Version: 6.00 Build 0)  --><svg xmlns="http://www.w3.org/2000/svg" xmlns:xlink="http://www.w3.org/1999/xlink" viewBox="0 0 50 50" width="500px" height="500px"><path d="M43,8H7c-2.757,0-5,2.243-5,5v22c0,2.757,2.243,5,5,5h4.165c2.772,4.774,7.928,8,13.835,8s11.063-3.226,13.835-8h-2.362c0,0,0,0,0,0C33.94,43.622,29.745,46,25,46c-7.72,0-14-6.28-14-14c0-0.338,0.027-0.668,0.051-1c0.032-0.447,0.086-0.888,0.158-1.322c0.002-0.01,0.003-0.019,0.004-0.029c0.072-0.423,0.164-0.84,0.273-1.25c0.006-0.022,0.011-0.044,0.017-0.065c0.108-0.397,0.234-0.786,0.375-1.168c0.013-0.034,0.025-0.068,0.038-0.102c0.139-0.368,0.294-0.727,0.462-1.08c0.023-0.047,0.045-0.094,0.068-0.141c0.165-0.336,0.344-0.664,0.535-0.985c0.036-0.06,0.072-0.119,0.109-0.179c0.186-0.303,0.384-0.598,0.592-0.885c0.052-0.072,0.107-0.143,0.16-0.214c0.202-0.268,0.413-0.529,0.634-0.782c0.073-0.083,0.148-0.164,0.222-0.245c0.213-0.233,0.432-0.46,0.66-0.678c0.096-0.091,0.195-0.178,0.294-0.267c0.219-0.198,0.442-0.392,0.673-0.576c0.122-0.096,0.248-0.187,0.373-0.279c0.221-0.164,0.443-0.326,0.674-0.477c0.149-0.097,0.304-0.186,0.456-0.277c0.219-0.132,0.438-0.264,0.665-0.384c0.177-0.094,0.361-0.176,0.543-0.262c0.214-0.102,0.427-0.207,0.647-0.297c0.207-0.085,0.421-0.156,0.633-0.232c0.206-0.074,0.409-0.153,0.62-0.217c0.24-0.073,0.486-0.128,0.731-0.189c0.193-0.047,0.382-0.103,0.578-0.142c0.288-0.058,0.583-0.095,0.877-0.134c0.16-0.022,0.317-0.054,0.48-0.07C24.062,18.025,24.528,18,25,18s0.938,0.025,1.399,0.071c0.162,0.016,0.319,0.049,0.48,0.07c0.294,0.04,0.589,0.076,0.877,0.134c0.196,0.039,0.385,0.095,0.578,0.142c0.245,0.06,0.492,0.116,0.731,0.189c0.21,0.064,0.414,0.143,0.62,0.217c0.212,0.076,0.426,0.147,0.633,0.232c0.22,0.091,0.433,0.196,0.647,0.297c0.182,0.086,0.365,0.168,0.543,0.262c0.227,0.12,0.446,0.252,0.665,0.384c0.153,0.092,0.307,0.18,0.456,0.277c0.231,0.151,0.453,0.313,0.674,0.477c0.125,0.092,0.251,0.183,0.373,0.279c0.231,0.184,0.454,0.378,0.673,0.576c0.098,0.089,0.198,0.176,0.294,0.267c0.228,0.218,0.447,0.445,0.66,0.678c0.075,0.081,0.15,0.162,0.222,0.245c0.221,0.253,0.431,0.514,0.634,0.782c0.054,0.071,0.108,0.142,0.16,0.214c0.1,0.138,0.19,0.284,0.285,0.426c-0.043-0.073-0.08-0.147-0.131-0.22h2.362C40.203,26.357,41,29.084,41,32s-0.797,5.643-2.165,8H43c2.757,0,5-2.243,5-5V13C48,10.243,45.757,8,43,8z M46,20H35.536c-2.815-2.481-6.495-4-10.536-4s-7.722,1.519-10.536,4H4v-5h42V20z"/><path d="M43,8H7c-2.757,0-5,2.243-5,5v22c0,2.757,2.243,5,5,5h4.165c2.772,4.774,7.928,8,13.835,8s11.063-3.226,13.835-8h-1.422h-0.941C38.061,37.73,39,34.974,39,32s-0.939-5.73-2.527-8h2.362C40.203,26.357,41,29.084,41,32s-0.797,5.643-2.165,8H43c2.757,0,5-2.243,5-5V13C48,10.243,45.757,8,43,8z M32.473,34.476c0.761,0,1.332-0.449,1.459-1.147h1.293c-0.11,1.371-1.227,2.315-2.756,2.315c-1.837,0-2.975-1.27-2.975-3.335c0-2.062,1.133-3.331,2.975-3.331c1.503,0,2.654,0.998,2.751,2.377h-1.292c-0.127-0.729-0.703-1.208-1.459-1.208c-0.998,0-1.617,0.826-1.617,2.162S31.471,34.476,32.473,34.476z M16.074,24C15.523,24.614,13,26.924,13,32s3.404,8.404,4.081,9h18.601c-2.569,3.047-6.394,5-10.682,5c-7.72,0-14-6.28-14-14c0-0.338,0.027-0.668,0.051-1c0.032-0.447,0.086-0.888,0.158-1.322c0.002-0.01,0.003-0.019,0.004-0.029c0.072-0.423,0.164-0.84,0.273-1.25c0.006-0.022,0.011-0.044,0.017-0.065c0.108-0.397,0.234-0.786,0.375-1.168c0.013-0.034,0.025-0.068,0.038-0.102c0.139-0.368,0.294-0.727,0.462-1.08c0.023-0.047,0.045-0.094,0.068-0.141c0.165-0.336,0.344-0.664,0.535-0.985c0.036-0.06,0.072-0.119,0.109-0.179c0.186-0.303,0.384-0.598,0.592-0.885c0.052-0.072,0.107-0.143,0.16-0.214c0.202-0.268,0.413-0.529,0.634-0.782c0.073-0.083,0.148-0.164,0.222-0.245c0.213-0.233,0.432-0.46,0.66-0.678c0.096-0.091,0.195-0.178,0.294-0.267c0.219-0.198,0.442-0.392,0.673-0.576c0.122-0.096,0.248-0.187,0.373-0.279c0.221-0.164,0.443-0.326,0.674-0.477c0.149-0.097,0.304-0.186,0.456-0.277c0.219-0.132,0.438-0.264,0.665-0.384c0.177-0.094,0.361-0.176,0.543-0.262c0.214-0.102,0.427-0.207,0.647-0.297c0.207-0.085,0.421-0.156,0.633-0.232c0.206-0.074,0.409-0.153,0.62-0.217c0.24-0.073,0.486-0.128,0.731-0.189c0.193-0.047,0.382-0.103,0.578-0.142c0.288-0.058,0.583-0.095,0.877-0.134c0.16-0.022,0.317-0.054,0.48-0.07C24.062,18.025,24.528,18,25,18s0.938,0.025,1.399,0.071c0.162,0.016,0.319,0.049,0.48,0.07c0.294,0.04,0.589,0.076,0.877,0.134c0.196,0.039,0.385,0.095,0.578,0.142c0.245,0.06,0.492,0.116,0.731,0.189c0.21,0.064,0.414,0.143,0.62,0.217c0.212,0.076,0.426,0.147,0.633,0.232c0.22,0.091,0.433,0.196,0.647,0.297c0.182,0.086,0.365,0.168,0.543,0.262c0.227,0.12,0.446,0.252,0.665,0.384c0.153,0.092,0.307,0.18,0.456,0.277c0.231,0.151,0.453,0.313,0.674,0.477c0.125,0.092,0.251,0.183,0.373,0.279c0.231,0.184,0.454,0.378,0.673,0.576c0.098,0.089,0.198,0.176,0.294,0.267c0.228,0.218,0.447,0.445,0.66,0.678c0.075,0.081,0.15,0.162,0.222,0.245c0.221,0.253,0.431,0.514,0.634,0.782c0.054,0.071,0.108,0.142,0.16,0.214c0.049,0.067,0.093,0.137,0.138,0.206H16.074z M25.656,32.947l-0.826-0.176c-1.156-0.242-1.723-0.844-1.723-1.811c0-1.195,0.962-1.982,2.426-1.982c1.396,0,2.386,0.782,2.426,1.912h-1.248c-0.062-0.502-0.527-0.836-1.17-0.836c-0.663,0-1.103,0.309-1.103,0.791c0,0.392,0.304,0.615,1.046,0.773l0.765,0.163c1.274,0.269,1.823,0.817,1.823,1.802c0,1.279-0.979,2.061-2.57,2.061c-1.512,0-2.492-0.742-2.54-1.924h1.283c0.062,0.514,0.58,0.844,1.327,0.844c0.689,0,1.178-0.334,1.178-0.813C26.75,33.347,26.434,33.113,25.656,32.947z M18.825,34.476c0.761,0,1.332-0.449,1.459-1.147h1.293c-0.11,1.371-1.227,2.315-2.756,2.315c-1.838,0-2.975-1.27-2.975-3.335c0-2.062,1.133-3.331,2.975-3.331c1.503,0,2.654,0.998,2.751,2.377H20.28c-0.127-0.729-0.703-1.208-1.459-1.208c-0.998,0-1.617,0.826-1.617,2.162S17.823,34.476,18.825,34.476z M46,20H35.536c-2.815-2.481-6.495-4-10.536-4s-7.722,1.519-10.536,4H4v-5h42V20z"/></svg>