<?xml version="1.0" encoding="iso-8859-1"?>
<!-- Generator: Adobe Illustrator 23.0.3, SVG Export Plug-In . SVG Version: 6.00 Build 0)  -->
<svg version="1.1" id="Layer_1" xmlns="http://www.w3.org/2000/svg" xmlns:xlink="http://www.w3.org/1999/xlink" x="0px" y="0px"
	 viewBox="0 0 50 50" style="enable-background:new 0 0 50 50;" xml:space="preserve">
<path d="M40,33H10c-3.86,0-7,3.14-7,7s3.14,7,7,7h30c3.86,0,7-3.14,7-7S43.86,33,40,33z M10,42c-1.105,0-2-0.895-2-2
	c0-1.105,0.895-2,2-2s2,0.895,2,2C12,41.105,11.105,42,10,42z M20,42c-1.105,0-2-0.895-2-2c0-1.105,0.895-2,2-2s2,0.895,2,2
	C22,41.105,21.105,42,20,42z M30,42c-1.105,0-2-0.895-2-2c0-1.105,0.895-2,2-2s2,0.895,2,2C32,41.105,31.105,42,30,42z M40,42
	c-1.105,0-2-0.895-2-2c0-1.105,0.895-2,2-2s2,0.895,2,2C42,41.105,41.105,42,40,42z"/>
<path d="M41,3H9C8.448,3,8,3.448,8,4v26c0,0.552,0.448,1,1,1h32c0.552,0,1-0.448,1-1V4C42,3.448,41.552,3,41,3z M29,12h-8
	c-1.1,0-2-0.9-2-2c0-1.1,0.9-2,2-2h8c1.1,0,2,0.9,2,2C31,11.1,30.1,12,29,12z"/>
</svg>