<?xml version="1.0" encoding="utf-8"?><!-- Generator: Adobe Illustrator 15.0.0, SVG Export Plug-In . SVG Version: 6.00 Build 0)  --><!DOCTYPE svg PUBLIC "-//W3C//DTD SVG 1.1//EN" "http://www.w3.org/Graphics/SVG/1.1/DTD/svg11.dtd"><svg xmlns="http://www.w3.org/2000/svg" xmlns:xlink="http://www.w3.org/1999/xlink" viewBox="0 0 50 50" width="50px" height="50px"><path d="M20.623,14l9.093-8H16.463c-0.22,0-0.433,0.072-0.607,0.206L5.662,14H20.623z"/><polygon points="32.743,6 23.651,14 35.588,14 43.634,6 "/><path d="M35,16H5v27c0,0.553,0.448,1,1,1h29V16z M26,22H16c-0.552,0-1-0.448-1-1s0.448-1,1-1h10c0.553,0,1,0.448,1,1S26.553,22,26,22z"/><path d="M37,15.416v27.936l7.781-9.727C44.923,33.447,45,33.228,45,33V7.461L37,15.416z"/></svg>