<?xml version="1.0" encoding="utf-8"?><!-- Generator: Adobe Illustrator 15.0.0, SVG Export Plug-In . SVG Version: 6.00 Build 0)  --><!DOCTYPE svg PUBLIC "-//W3C//DTD SVG 1.1//EN" "http://www.w3.org/Graphics/SVG/1.1/DTD/svg11.dtd"><svg xmlns="http://www.w3.org/2000/svg" xmlns:xlink="http://www.w3.org/1999/xlink" viewBox="0 0 50 50" width="50px" height="50px"><g><path d="M25,2c-4.401,0-8.505,1.249-12,3.394V5c0-1.654-1.346-3-3-3S7,3.346,7,5v6.037l-1,1.002C3.478,15.73,2,20.192,2,25c0,12.702,10.297,23,23,23c12.702,0,23-10.298,23-23C48,12.297,37.702,2,25,2z M9,24c0.552,0,1,0.448,1,1c0,0.553-0.448,1-1,1s-1-0.447-1-1C8,24.448,8.448,24,9,24z M25,46C13.42,46,4,36.579,4,25c0-3.344,0.806-6.672,2.331-9.624l1.777,0.918C6.709,19.001,6,21.931,6,25c0,10.477,8.523,19,19,19s19-8.523,19-19S35.477,6,25,6c-4.78,0-9.327,1.81-12.812,5H17c0.552,0,1,0.448,1,1s-0.448,1-1,1H9V9.033V5c0-0.552,0.448-1,1-1s1,0.448,1,1v2.03v2.357C14.831,5.95,19.788,4,25,4c11.579,0,21,9.42,21,21C46,36.579,36.579,46,25,46z M10.612,32.07c0.48-0.274,1.09-0.107,1.365,0.372c0.274,0.479,0.107,1.09-0.372,1.364c-0.48,0.274-1.09,0.107-1.365-0.372C9.966,32.955,10.132,32.344,10.612,32.07z M23.236,29.377v1.963h-9.492v-1.582l4.766-4.961c1.885-1.963,2.344-2.705,2.344-3.74c0-1.289-1.104-2.256-2.559-2.256c-1.553,0-2.598,1.016-2.598,2.52v0.029h-2.07v-0.029c0.001-2.598,1.964-4.414,4.737-4.414c2.676,0,4.648,1.699,4.648,4.023c0,1.494-0.723,2.715-3.086,5.107l-3.135,3.174v0.166H23.236z M17.785,39.315c-0.279,0.478-0.891,0.638-1.368,0.358c-0.477-0.278-0.637-0.891-0.358-1.368c0.279-0.477,0.892-0.637,1.368-0.357C17.904,38.227,18.064,38.839,17.785,39.315z M34.702,17.249v9.414h1.942v1.953h-1.942v2.725h-2.109v-2.725h-6.875v-2.031c1.261-2.305,3.359-5.576,5.869-9.336H34.702z M32.215,10.684c0.279-0.477,0.892-0.637,1.368-0.358c0.478,0.279,0.637,0.892,0.358,1.368c-0.279,0.477-0.891,0.637-1.368,0.358C32.097,11.773,31.937,11.161,32.215,10.684z M33.383,39.79c-0.481,0.272-1.091,0.104-1.363-0.377s-0.104-1.091,0.377-1.363c0.48-0.272,1.091-0.104,1.363,0.377C34.031,38.907,33.863,39.518,33.383,39.79z M25,10c-0.552,0-1-0.448-1-1s0.448-1,1-1c0.553,0,1,0.448,1,1S25.553,10,25,10z M25,40c0.553,0,1,0.447,1,1s-0.447,1-1,1c-0.552,0-1-0.447-1-1S24.448,40,25,40z M37.948,32.573c0.278-0.477,0.891-0.637,1.367-0.358c0.478,0.279,0.638,0.892,0.358,1.368c-0.278,0.478-0.891,0.637-1.368,0.358C37.829,33.662,37.669,33.051,37.948,32.573z M38.396,16.193c0.479-0.274,1.091-0.107,1.364,0.372c0.274,0.48,0.107,1.091-0.372,1.365s-1.09,0.107-1.364-0.372C37.75,17.079,37.916,16.467,38.396,16.193z M40,25c0-0.552,0.447-1,1-1s1,0.448,1,1c0,0.553-0.447,1-1,1S40,25.553,40,25z"/><path d="M27.816,26.711h4.806v-7.539h-0.127c-1.396,2.021-3.019,4.521-4.679,7.402V26.711z"/></g></svg>