<?xml version="1.0" encoding="utf-8"?><!-- Generator: Adobe Illustrator 18.1.1, SVG Export Plug-In . SVG Version: 6.00 Build 0)  --><svg xmlns="http://www.w3.org/2000/svg" xmlns:xlink="http://www.w3.org/1999/xlink" viewBox="0 0 50 50" width="500px" height="500px"><polyline fill="none" stroke="#000000" stroke-width="2" stroke-miterlimit="10" points="46,13 49,13 49,37 46,37 "/><polyline fill="none" stroke="#000000" stroke-width="2" stroke-miterlimit="10" points="4,37 1,37 1,13 4,13 "/><g><path d="M6.3,19.8h2.4l2.7,4l2.8-4h2.2L12.6,25l4.4,6.1h-2.4l-3.2-4.7l-3.2,4.7H6l4.2-6L6.3,19.8z"/><path d="M19.8,19.8h2.4l2.7,4l2.8-4H30L26.1,25l4.4,6.1h-2.4l-3.2-4.7l-3.2,4.7h-2.3l4.2-6L19.8,19.8z"/><path d="M33.4,19.8h2.4l2.7,4l2.8-4h2.2L39.6,25l4.4,6.1h-2.4l-3.2-4.7l-3.2,4.7h-2.3l4.2-6L33.4,19.8z"/></g></svg>