<?xml version="1.0" encoding="utf-8"?><!-- Generator: Adobe Illustrator 18.1.1, SVG Export Plug-In . SVG Version: 6.00 Build 0)  --><svg xmlns="http://www.w3.org/2000/svg" xmlns:xlink="http://www.w3.org/1999/xlink" viewBox="0 0 50 50" width="50px" height="50px"><path d="M12,50h34c0.6,0,1-0.4,1-1s-0.4-1-1-1H12c-0.6,0-1,0.4-1,1S11.4,50,12,50z"/><path d="M28.9,22.6c-0.1,0-0.1,0-0.2,0c-0.5,0-0.9-0.3-1-0.8c0-0.1,0-0.2,0-0.3c-0.3,0.3-0.6,0.6-0.9,0.9c0,0.1-0.1,0.2-0.1,0.3c-0.1,0.1-0.1,0.1-0.2,0.2h0.1c0.5,0.1,0.9,0.6,0.8,1.2l-4.7,25.8l21.1-6.3c0.4-0.1,0.6-0.4,0.7-0.8l4.3-24.4L28.9,22.6z"/><path d="M25.5,23.7C18,31.2,9.8,39.4,9.6,39.6C9.3,40,9.4,40.7,9.8,41l11,8.3L25.5,23.7z"/><line fill="none" stroke="#000000" stroke-width="2" stroke-linecap="round" stroke-linejoin="round" stroke-miterlimit="10" x1="1" y1="49" x2="49" y2="1"/><path d="M25.4,20.5c5.4-5.3,10.8-10.8,10.8-10.8L30,6.1C29.7,6,29.5,6,29.3,6L8.6,9.4L25.4,20.5z"/><path d="M48.1,16.5l-9.2-5.2c-0.5-0.3-1.1-0.1-1.4,0.4c-0.1,0.2-4,4.1-8.9,9L48.1,16.5z"/><path d="M23.9,22L7.3,11L3,35.3c-0.1,0.4,0.1,0.7,0.4,1L7,39C7,38.9,16.4,29.5,23.9,22z"/></svg>