<?xml version="1.0" encoding="iso-8859-1"?><!-- Generator: Adobe Illustrator 19.1.1, SVG Export Plug-In . SVG Version: 6.00 Build 0)  --><svg xmlns="http://www.w3.org/2000/svg" xmlns:xlink="http://www.w3.org/1999/xlink" viewBox="0 0 50 50" width="50px" height="50px"><path d="M25,2C15.075,2,7,10.075,7,20c0,9.925,8.075,18,18,18c9.925,0,18-8.075,18-18C43,10.075,34.925,2,25,2z M39.712,17.074c0.107,0.542-0.244,1.068-0.786,1.176c-0.542,0.107-1.068-0.245-1.176-0.786c-0.107-0.542,0.244-1.068,0.786-1.176C39.078,16.181,39.604,16.532,39.712,17.074z M40,20c0,0.552-0.448,1-1,1s-1-0.448-1-1s0.448-1,1-1S40,19.448,40,20z M38.858,14.259c0.212,0.511-0.031,1.096-0.541,1.307c-0.51,0.212-1.095-0.03-1.307-0.541c-0.212-0.511,0.031-1.096,0.541-1.307C38.062,13.506,38.647,13.749,38.858,14.259z M37.472,11.667c0.307,0.459,0.183,1.08-0.276,1.387c-0.459,0.307-1.08,0.183-1.387-0.276c-0.307-0.459-0.183-1.08,0.276-1.387C36.544,11.084,37.165,11.207,37.472,11.667z M34.192,9.393c0.391-0.39,1.024-0.39,1.414,0c0.391,0.39,0.391,1.023,0,1.414c-0.39,0.391-1.023,0.391-1.414,0C33.801,10.417,33.801,9.784,34.192,9.393z M34.668,22.051l-1.42-0.755l-1.42,0.755l0.279-1.584L30.95,19.35l1.593-0.225l0.705-1.445l0.706,1.445l1.592,0.225l-1.157,1.117L34.668,22.051z M31.947,7.804c0.306-0.459,0.928-0.583,1.387-0.276c0.459,0.307,0.583,0.928,0.276,1.387s-0.928,0.583-1.387,0.276C31.764,8.884,31.64,8.263,31.947,7.804z M25,5c0.552,0,1,0.448,1,1s-0.448,1-1,1s-1-0.448-1-1S24.448,5,25,5z M22.074,5.288c0.541-0.108,1.069,0.244,1.176,0.786s-0.244,1.068-0.786,1.176c-0.542,0.107-1.068-0.244-1.176-0.786C21.181,5.922,21.532,5.396,22.074,5.288z M16.666,7.528c0.46-0.307,1.08-0.183,1.387,0.276c0.307,0.459,0.183,1.08-0.276,1.387c-0.459,0.307-1.08,0.183-1.387-0.276S16.207,7.835,16.666,7.528z M14.393,9.393c0.391-0.39,1.024-0.39,1.414,0c0.391,0.39,0.391,1.023,0,1.414c-0.39,0.391-1.023,0.391-1.414,0C14.002,10.417,14.002,9.784,14.393,9.393z M12.528,11.666c0.307-0.459,0.928-0.582,1.387-0.276c0.459,0.307,0.583,0.928,0.276,1.387s-0.928,0.583-1.387,0.276C12.345,12.746,12.221,12.125,12.528,11.666z M11.141,14.26c0.212-0.51,0.797-0.752,1.307-0.541c0.511,0.211,0.753,0.797,0.541,1.307c-0.212,0.51-0.797,0.753-1.307,0.541C11.172,15.355,10.93,14.77,11.141,14.26z M11.464,16.288c0.542,0.108,0.894,0.634,0.786,1.176s-0.634,0.894-1.176,0.786c-0.542-0.108-0.894-0.634-0.786-1.176C10.396,16.532,10.922,16.18,11.464,16.288z M11,19c0.552,0,1,0.448,1,1s-0.448,1-1,1s-1-0.448-1-1S10.448,19,11,19z M10.288,22.926c-0.107-0.542,0.244-1.068,0.786-1.176c0.542-0.107,1.068,0.245,1.176,0.786c0.107,0.542-0.244,1.069-0.786,1.176S10.396,23.468,10.288,22.926z M11.142,25.741c-0.212-0.511,0.031-1.096,0.541-1.307c0.51-0.212,1.095,0.03,1.307,0.541c0.212,0.511-0.03,1.095-0.541,1.307C11.938,26.494,11.353,26.251,11.142,25.741z M12.528,28.333c-0.307-0.459-0.183-1.08,0.276-1.387c0.459-0.306,1.08-0.183,1.387,0.276s0.183,1.08-0.276,1.387C13.456,28.916,12.835,28.792,12.528,28.333z M15.807,30.606c-0.39,0.391-1.023,0.391-1.414,0c-0.391-0.39-0.391-1.023,0-1.414c0.391-0.39,1.024-0.39,1.414,0C16.198,29.582,16.198,30.215,15.807,30.606z M18.054,32.196c-0.307,0.459-0.928,0.583-1.387,0.276s-0.583-0.928-0.276-1.387c0.306-0.459,0.928-0.583,1.387-0.276C18.237,31.116,18.361,31.737,18.054,32.196z M17.389,20.467l0.279,1.584l-1.42-0.755l-1.42,0.755l0.279-1.584L13.95,19.35l1.593-0.225l0.705-1.445l0.706,1.445l1.592,0.225L17.389,20.467z M20.566,33.317c-0.212,0.51-0.797,0.752-1.307,0.541c-0.51-0.212-0.753-0.797-0.541-1.307c0.212-0.51,0.797-0.752,1.307-0.541C20.535,32.222,20.778,32.807,20.566,33.317z M20.026,7.99c-0.511,0.212-1.095-0.03-1.307-0.541c-0.212-0.511,0.031-1.096,0.541-1.307c0.51-0.212,1.095,0.031,1.307,0.541C20.779,7.194,20.536,7.779,20.026,7.99z M22.074,34.712c-0.542-0.108-0.894-0.634-0.786-1.176c0.108-0.542,0.634-0.894,1.176-0.786c0.541,0.108,0.893,0.634,0.786,1.176C23.142,34.468,22.616,34.82,22.074,34.712z M25,35c-0.552,0-1-0.448-1-1s0.448-1,1-1s1,0.448,1,1S25.552,35,25,35z M26.517,26.702h-2.5v-9.88h-2.796v-1.8c2.294-0.149,3.356-1.894,3.436-2.32h1.86V26.702z M27.926,34.712c-0.542,0.107-1.068-0.244-1.176-0.786c-0.107-0.542,0.244-1.068,0.786-1.176c0.542-0.108,1.068,0.244,1.176,0.786C28.819,34.078,28.468,34.604,27.926,34.712z M27.536,7.25c-0.542-0.108-0.894-0.634-0.786-1.176s0.634-0.894,1.176-0.786c0.542,0.108,0.894,0.634,0.786,1.176C28.604,7.006,28.078,7.358,27.536,7.25z M29.433,6.683c0.212-0.51,0.797-0.752,1.307-0.541s0.753,0.797,0.541,1.307s-0.797,0.752-1.307,0.541C29.464,7.778,29.222,7.193,29.433,6.683z M30.741,33.858c-0.511,0.212-1.096-0.031-1.307-0.541c-0.212-0.511,0.031-1.096,0.541-1.307c0.51-0.211,1.095,0.03,1.307,0.541C31.494,33.062,31.251,33.647,30.741,33.858z M33.333,32.472c-0.459,0.307-1.08,0.183-1.387-0.276s-0.183-1.08,0.276-1.387c0.46-0.307,1.081-0.183,1.387,0.276C33.916,31.544,33.792,32.165,33.333,32.472z M35.606,30.606c-0.39,0.391-1.023,0.391-1.414,0c-0.391-0.39-0.391-1.023,0-1.414c0.391-0.39,1.024-0.39,1.414,0C35.997,29.582,35.997,30.215,35.606,30.606z M37.472,28.333c-0.307,0.459-0.928,0.583-1.387,0.276c-0.459-0.307-0.583-0.928-0.276-1.387s0.928-0.582,1.387-0.276C37.655,27.253,37.779,27.874,37.472,28.333z M38.858,25.741c-0.212,0.51-0.797,0.753-1.307,0.541s-0.753-0.797-0.541-1.307s0.797-0.752,1.307-0.541S39.07,25.23,38.858,25.741z M38.536,23.712c-0.542-0.108-0.894-0.634-0.786-1.176c0.108-0.542,0.634-0.894,1.176-0.786c0.542,0.108,0.894,0.635,0.786,1.176C39.604,23.468,39.078,23.82,38.536,23.712z"/><g><path d="M9.432,32.526l-5.295,9.057c-0.17,0.291-0.182,0.648-0.032,0.951c0.15,0.302,0.443,0.507,0.778,0.547l5.002,0.591l2.696,3.897C12.768,47.84,13.075,48,13.403,48c0.013,0,0.025,0,0.038-0.001c0.341-0.013,0.653-0.199,0.825-0.494l4.898-8.378C15.289,37.942,11.916,35.608,9.432,32.526z"/><path d="M45.863,41.583l-5.295-9.057c-2.485,3.082-5.858,5.415-9.733,6.6l4.898,8.378c0.173,0.295,0.483,0.481,0.825,0.494C36.571,48,36.584,48,36.597,48c0.327,0,0.635-0.16,0.822-0.431l2.696-3.897l5.002-0.591c0.335-0.04,0.628-0.245,0.778-0.547C46.046,42.231,46.033,41.874,45.863,41.583z"/></g></svg>