<?xml version="1.0" encoding="iso-8859-1"?>
<!-- Generator: Adobe Illustrator 23.0.3, SVG Export Plug-In . SVG Version: 6.00 Build 0)  -->
<svg version="1.1" id="Layer_1" xmlns="http://www.w3.org/2000/svg" xmlns:xlink="http://www.w3.org/1999/xlink" x="0px" y="0px"
	 viewBox="0 0 50 50" style="enable-background:new 0 0 50 50;" xml:space="preserve">
<g>
	<path d="M34,43h-3v-2H19v2h-3c-2,0-3,1-3,3v1h24v-1C37,44,36,43,34,43z"/>
	<rect x="18" y="4" width="14" height="2"/>
	<path d="M12,24v2h26v-2h-2V0H14v24H12z M16,2h18v22H16V2z"/>
	<path d="M18,8v14h14V8H18z M20,10h3v2h-3V10z M20,14h3v2h-3V14z M20,20v-2h3v2H20z M30,20h-5v-2h5V20z M30,16h-5v-2h5V16z M30,10v2
		h-5v-2H30z"/>
	<path d="M46,5h-8v2h8l0.001,24H4V7h8V5H4C2.897,5,2,5.897,2,7v30c0,1.103,0.897,2,2,2h42c1.103,0,2-0.897,2-2V7
		C48,5.897,47.103,5,46,5z M41,34h2v2h-2V34z"/>
</g>
</svg>