<?xml version="1.0" encoding="iso-8859-1"?><!-- Generator: Adobe Illustrator 19.1.0, SVG Export Plug-In . SVG Version: 6.00 Build 0)  --><svg xmlns="http://www.w3.org/2000/svg" xmlns:xlink="http://www.w3.org/1999/xlink" viewBox="0 0 50 50" width="500px" height="500px"><polyline style="fill:none;stroke:#000000;stroke-width:2;stroke-linejoin:round;stroke-miterlimit:10;" points="7,22 7,7 43,7 43,22 "/><path style="fill:none;stroke:#000000;stroke-width:2;stroke-linecap:round;stroke-linejoin:round;stroke-miterlimit:10;" d="M47,49H3c-1.105,0-2-0.895-2-2V24c0-1.105,0.895-2,2-2h44c1.105,0,2,0.895,2,2v23C49,48.105,48.105,49,47,49z"/><path style="fill:none;stroke:#000000;stroke-width:2;stroke-linecap:round;stroke-linejoin:round;stroke-miterlimit:10;" d="M21.5,15h7c0.828,0,1.5-0.672,1.5-1.5v0c0-0.828-0.672-1.5-1.5-1.5h-7c-0.828,0-1.5,0.672-1.5,1.5v0C20,14.328,20.672,15,21.5,15z"/><polyline style="fill:none;stroke:#000000;stroke-width:2;stroke-linejoin:round;stroke-miterlimit:10;" points="43,25 43,43 7,43 7,25 "/><g><path d="M28,36v1h-1v-1H28 M30,34h-5v5h5V34L30,34z"/></g><g><path d="M28,27v1h-1v-1H28 M30,25h-5v5h5V25L30,25z"/></g><g><path d="M37,27v1h-1v-1H37 M39,25h-5v5h5V25L39,25z"/></g><rect x="31" y="26" width="2" height="2"/><rect x="31" y="29" width="2" height="4"/><rect x="35" y="31" width="2" height="2"/><rect x="37" y="33" width="2" height="4"/><rect x="32" y="35" width="2" height="4"/><rect x="33" y="33" width="2" height="2"/><rect x="36" y="36" width="3" height="2"/><rect x="26" y="31" width="7" height="2"/></svg>