<?xml version="1.0" encoding="utf-8"?><!-- Generator: Adobe Illustrator 15.0.0, SVG Export Plug-In . SVG Version: 6.00 Build 0)  --><!DOCTYPE svg PUBLIC "-//W3C//DTD SVG 1.1//EN" "http://www.w3.org/Graphics/SVG/1.1/DTD/svg11.dtd"><svg xmlns="http://www.w3.org/2000/svg" xmlns:xlink="http://www.w3.org/1999/xlink" viewBox="0 0 50 50" width="50px" height="50px"><path d="M39,50c-2.206,0-4-1.794-4-4s1.794-4,4-4s4,1.794,4,4S41.206,50,39,50z M39,44c-1.103,0-2,0.897-2,2s0.897,2,2,2s2-0.897,2-2S40.103,44,39,44z"/><path d="M26,50c-2.206,0-4-1.794-4-4s1.794-4,4-4c2.206,0,4,1.794,4,4S28.206,50,26,50z M26,44c-1.103,0-2,0.897-2,2s0.897,2,2,2c1.103,0,2-0.897,2-2S27.103,44,26,44z"/><circle cx="2" cy="4" r="2"/><path d="M40.737,35.352l7.191-19c0.116-0.305,0.074-0.647-0.111-0.916S47.326,15.007,47,15.007H16.272l-2.129-8.594c-0.679-2.289-1.813-4.406-5.479-4.406H2C1.451,2.007,1.007,2.451,1.007,3S1.451,3.993,2,3.993h6.664c2.086,0,2.888,0.67,3.563,2.941l7.999,32.293c0.588,2.234,1.255,4.766,5.483,4.766H41c0.549,0,0.993-0.444,0.993-0.993S41.549,42.007,41,42.007H25.709c-2.697,0-2.986-1.098-3.559-3.271l-0.679-2.742h18.337C40.222,35.993,40.592,35.738,40.737,35.352z"/></svg>