<?xml version="1.0" encoding="iso-8859-1"?><!-- Generator: Adobe Illustrator 20.1.0, SVG Export Plug-In . SVG Version: 6.00 Build 0)  --><svg xmlns="http://www.w3.org/2000/svg" xmlns:xlink="http://www.w3.org/1999/xlink" viewBox="0 0 50 50" width="500px" height="500px"><polygon style="fill:none;stroke:#000000;stroke-width:2;stroke-miterlimit:10;" points="31,17 33,20 33,24 27,24 27,17 "/><polyline style="fill:none;stroke:#000000;stroke-width:2;stroke-miterlimit:10;" points="18,14 27,14 27,24 18,24 18,19 "/><path style="fill:none;stroke:#000000;stroke-width:2;stroke-linecap:round;stroke-linejoin:round;stroke-miterlimit:10;" d="M40,18c0,11.914-15,29-15,29S10,29.841,10,18c0-8.284,6.716-15,15-15S40,9.716,40,18z"/><line style="fill:none;stroke:#000000;stroke-width:2;stroke-miterlimit:10;" x1="16" y1="14" x2="18" y2="14"/><line style="fill:none;stroke:#000000;stroke-width:2;stroke-miterlimit:10;" x1="16" y1="17" x2="21" y2="17"/><line style="fill:none;stroke:#000000;stroke-width:2;stroke-miterlimit:10;" x1="16" y1="20" x2="18" y2="20"/><circle cx="30" cy="25" r="2"/><circle cx="21" cy="25" r="2"/></svg>