<?xml version="1.0" encoding="iso-8859-1"?>
<!-- Generator: Adobe Illustrator 23.0.3, SVG Export Plug-In . SVG Version: 6.00 Build 0)  -->
<svg version="1.1" id="Layer_1" xmlns="http://www.w3.org/2000/svg" xmlns:xlink="http://www.w3.org/1999/xlink" x="0px" y="0px"
	 viewBox="0 0 50 50" style="enable-background:new 0 0 50 50;" xml:space="preserve">
<circle style="fill:none;stroke:#000000;stroke-width:2;stroke-miterlimit:10;" cx="40" cy="45" r="3"/>
<circle style="fill:none;stroke:#000000;stroke-width:2;stroke-miterlimit:10;" cx="27" cy="45" r="3"/>
<circle cx="3" cy="3" r="2"/>
<path style="fill:none;stroke:#000000;stroke-width:1.9868;stroke-linecap:round;stroke-linejoin:round;stroke-miterlimit:10;" d="
	M40,42c0,0-10.668,0-13.291,0c-3.42,0-3.922-1.744-4.524-4.025L14.191,5.696C13.472,3.273,12.459,2,9.664,2C9.664,2,4.91,2,3,2"/>
<polyline style="fill:none;stroke:#000000;stroke-width:1.9868;stroke-linecap:round;stroke-linejoin:round;stroke-miterlimit:10;" points="
	48,15 40.809,34 21.641,34 "/>
<line style="fill:none;stroke:#000000;stroke-width:2;stroke-linecap:round;stroke-miterlimit:10;" x1="37" y1="6" x2="27" y2="22"/>
<path style="fill:none;stroke:#000000;stroke-width:2;stroke-linecap:round;stroke-miterlimit:10;" d="M39,18c0-1.105-0.895-2-2-2
	c-1.105,0-2,0.895-2,2v2c0,0,0,0,0,0c0,1.105,0.895,2,2,2s2-0.895,2-2V18z"/>
<path style="fill:none;stroke:#000000;stroke-width:2;stroke-linecap:round;stroke-miterlimit:10;" d="M29,8c0-1.105-0.895-2-2-2
	c-1.105,0-2,0.895-2,2v2c0,0,0,0,0,0c0,1.105,0.895,2,2,2s2-0.895,2-2V8z"/>
</svg>