<?xml version="1.0" encoding="iso-8859-1"?><!-- Generator: Adobe Illustrator 20.1.0, SVG Export Plug-In . SVG Version: 6.00 Build 0)  --><svg xmlns="http://www.w3.org/2000/svg" xmlns:xlink="http://www.w3.org/1999/xlink" viewBox="0 0 50 50" width="50px" height="50px"><polygon points="28,18 28,23 32,23 32,20.303 30.465,18 "/><path d="M25,2C16.178,2,9,9.178,9,18c0,12.078,14.625,28.946,15.247,29.658C24.437,47.875,24.711,48,24.999,48H25c0.288,0,0.562-0.124,0.752-0.34C26.374,46.951,41,30.151,41,18C41,9.178,33.822,2,25,2z M16,16h5v2h-5V16z M34,25h-2c0,1.105-0.896,2-2,2s-2-0.895-2-2h-2h-3c0,1.105-0.896,2-2,2s-2-0.895-2-2h-2v-4h-1v-2h1h1h1v4h7v-7v-1h-8h-2v-2h2h10v3h3.535L34,19.697V25z"/></svg>