<?xml version="1.0" encoding="iso-8859-1"?>
<!-- Generator: Adobe Illustrator 23.0.3, SVG Export Plug-In . SVG Version: 6.00 Build 0)  -->
<svg version="1.1" id="Layer_1" xmlns="http://www.w3.org/2000/svg" xmlns:xlink="http://www.w3.org/1999/xlink" x="0px" y="0px"
	 viewBox="0 0 50 50" style="enable-background:new 0 0 50 50;" xml:space="preserve">
<path style="fill:none;stroke:#000000;stroke-width:2;stroke-linejoin:round;stroke-miterlimit:10;" d="M43,9H7c-1.7,0-3,1.3-3,3v22
	c0,1.7,1.3,3,3,3h36c1.7,0,3-1.3,3-3V12C46,10.3,44.7,9,43,9z"/>
<path style="fill:none;stroke:#000000;stroke-width:2;stroke-linejoin:round;stroke-miterlimit:10;" d="M45,41H5c-2.2,0-4-1.8-4-4
	l0,0h48l0,0C49,39.2,47.2,41,45,41z"/>
<g id="IOS_copy_14_">
	<polygon points="22.463,29.871 15.076,22.483 16.476,21.083 22.463,27.071 33.51,16.024 34.91,17.424 	"/>
</g>
</svg>