<?xml version="1.0" encoding="utf-8"?><!-- Generator: Adobe Illustrator 15.0.0, SVG Export Plug-In . SVG Version: 6.00 Build 0)  --><!DOCTYPE svg PUBLIC "-//W3C//DTD SVG 1.1//EN" "http://www.w3.org/Graphics/SVG/1.1/DTD/svg11.dtd"><svg xmlns="http://www.w3.org/2000/svg" xmlns:xlink="http://www.w3.org/1999/xlink" viewBox="0 0 50 50" width="50px" height="50px"><polyline fill="none" stroke="#000000" stroke-width="2" stroke-linecap="round" stroke-linejoin="round" stroke-miterlimit="10" points="25,49 28.948,43.827 42.218,48.396 38.352,41.542 49,41.542 42.13,36.182 "/><polyline fill="none" stroke="#000000" stroke-width="2" stroke-linecap="round" stroke-linejoin="round" stroke-miterlimit="10" points="25,49 18.393,42.698 8.134,48.591 9.594,41.669 1,39.999 7.423,36.87 "/><line fill="none" stroke="#000000" stroke-width="2" stroke-linecap="round" stroke-linejoin="round" stroke-miterlimit="10" x1="12" y1="10" x2="12" y2="1"/><line fill="none" stroke="#000000" stroke-width="2" stroke-linecap="round" stroke-linejoin="round" stroke-miterlimit="10" x1="19" y1="6" x2="19" y2="1"/><line fill="none" stroke="#000000" stroke-width="2" stroke-linecap="round" stroke-linejoin="round" stroke-miterlimit="10" x1="38" y1="10" x2="38" y2="1"/><line fill="none" stroke="#000000" stroke-width="2" stroke-linecap="round" stroke-linejoin="round" stroke-miterlimit="10" x1="31" y1="6" x2="31" y2="1"/><g><path d="M25.001,22.836l15.962-7.988L25.417,8.047c-0.266-0.116-0.568-0.116-0.834,0L9.069,14.835L25.001,22.836z"/><path d="M26.04,24.643v16.934l15.511-9.694c0.305-0.19,0.489-0.523,0.489-0.882V16.636L26.04,24.643z"/><path d="M23.96,24.642l-16-8.036V31c0,0.358,0.185,0.691,0.489,0.882l15.511,9.694V24.642z"/></g></svg>