<?xml version="1.0" encoding="utf-8"?>
<!-- Generator: Adobe Illustrator 17.0.2, SVG Export Plug-In . SVG Version: 6.00 Build 0)  -->
<!DOCTYPE svg PUBLIC "-//W3C//DTD SVG 1.1//EN" "http://www.w3.org/Graphics/SVG/1.1/DTD/svg11.dtd">
<svg version="1.1" id="Layer_1" xmlns="http://www.w3.org/2000/svg" xmlns:xlink="http://www.w3.org/1999/xlink" x="0px" y="0px"
	 width="50px" height="50px" viewBox="0 0 50 50" enable-background="new 0 0 50 50" xml:space="preserve">
<path fill="none" stroke="#000000" stroke-width="2" stroke-linecap="round" stroke-linejoin="round" stroke-miterlimit="10" d="
	M44,12.5c0,0.21,0,11.083,0,11.083"/>
<path fill="none" stroke="#000000" stroke-width="2" stroke-linecap="round" stroke-linejoin="round" stroke-miterlimit="10" d="
	M38,49v-5c0,0,7.556-9.352,8.837-10.765C48.117,31.823,49,31.337,49,27.408c0-3.929,0-14.765,0-14.908"/>
<path fill="none" stroke="#000000" stroke-width="2" stroke-linecap="round" stroke-linejoin="round" stroke-miterlimit="10" d="
	M36.564,35.812c2.332-2.332,7.577-7.577,7.932-7.932c1.081-1.081,1.082-2.835,0-3.916c-1.081-1.082-2.835-1.082-3.916,0
	c-0.504,0.504-7.75,7.75-8.253,8.253C29.941,34.602,29,37.027,29,41s0,8,0,8"/>
<g>
	<path fill="none" stroke="#000000" stroke-width="2" stroke-linecap="round" stroke-linejoin="round" stroke-miterlimit="10" d="
		M13,7.545v12l12,9.818l12-9.818v-12L25,1L13,7.545z M13,7.545l12,7.636l12-7.636"/>
</g>
<line fill="none" stroke="#000000" stroke-width="2" stroke-linecap="round" stroke-linejoin="round" stroke-miterlimit="10" x1="25" y1="15.182" x2="25" y2="29.364"/>
<path fill="none" stroke="#000000" stroke-width="2" stroke-linecap="round" stroke-linejoin="round" stroke-miterlimit="10" d="
	M49,12.5c0-1.381-1.119-2.5-2.5-2.5S44,11.119,44,12.5"/>
<path fill="none" stroke="#000000" stroke-width="2" stroke-linecap="round" stroke-linejoin="round" stroke-miterlimit="10" d="
	M6,12.5c0,0.21,0,11.083,0,11.083"/>
<path fill="none" stroke="#000000" stroke-width="2" stroke-linecap="round" stroke-linejoin="round" stroke-miterlimit="10" d="
	M12,49v-5c0,0-7.556-9.352-8.837-10.765C1.883,31.823,1,31.337,1,27.408C1,23.479,1,12.643,1,12.5"/>
<path fill="none" stroke="#000000" stroke-width="2" stroke-linecap="round" stroke-linejoin="round" stroke-miterlimit="10" d="
	M13.436,35.812c-2.332-2.332-7.577-7.577-7.932-7.932c-1.081-1.081-1.082-2.835,0-3.916c1.081-1.082,2.835-1.082,3.916,0
	c0.504,0.504,7.75,7.75,8.253,8.253C20.059,34.602,21,37.027,21,41s0,8,0,8"/>
<path fill="none" stroke="#000000" stroke-width="2" stroke-linecap="round" stroke-linejoin="round" stroke-miterlimit="10" d="
	M1,12.5C1,11.119,2.119,10,3.5,10S6,11.119,6,12.5"/>
</svg>