<?xml version="1.0" encoding="iso-8859-1"?>
<!-- Generator: Adobe Illustrator 23.0.3, SVG Export Plug-In . SVG Version: 6.00 Build 0)  -->
<svg version="1.1" id="Layer_1" xmlns="http://www.w3.org/2000/svg" xmlns:xlink="http://www.w3.org/1999/xlink" x="0px" y="0px"
	 viewBox="0 0 50 50" style="enable-background:new 0 0 50 50;" xml:space="preserve">
<path d="M42,7.939L25.333,2.057c-0.215-0.076-0.451-0.076-0.666,0L8,7.939l17,6L42,7.939z"/>
<g>
	<path d="M24,15.708l-17-6v7.595l-0.654-0.241C5.9,16.896,5.403,17.069,5.152,17.47l-5,8c-0.16,0.256-0.196,0.569-0.099,0.854
		c0.098,0.285,0.318,0.511,0.601,0.615L5,28.54V40c0,0.419,0.261,0.794,0.654,0.938L24,47.697V15.708z M2.5,25.487l3.917-6.268
		L23.5,25.513l-3.917,6.268L2.5,25.487z"/>
	<path d="M49.848,25.47l-5-8c-0.251-0.4-0.748-0.573-1.193-0.408L43,17.303V9.708l-17,6v31.99l18.346-6.759
		C44.739,40.794,45,40.419,45,40V28.54l4.346-1.601c0.282-0.104,0.503-0.33,0.601-0.615C50.044,26.039,50.008,25.726,49.848,25.47z
		 M30.417,31.78L26.5,25.513l17.083-6.293l3.917,6.268L30.417,31.78z"/>
</g>
<polyline style="fill:none;stroke:#000000;stroke-width:2;stroke-linejoin:round;stroke-miterlimit:10;" points="20,33 25,25 30,33 
	"/>
<polyline style="fill:none;stroke:#000000;stroke-width:2;stroke-linejoin:round;stroke-miterlimit:10;" points="6,18 25,25 44,18 
	"/>
</svg>