<?xml version="1.0"?><svg xmlns="http://www.w3.org/2000/svg"  viewBox="0 0 50 50" width="50px" height="50px">    <path d="M 2 2 A 2 2 0 0 0 0 4 A 2 2 0 0 0 2 6 A 2 2 0 0 0 4 4 A 2 2 0 0 0 4 3.9921875 L 8.6640625 3.9921875 C 10.750063 3.9921875 11.551563 4.6625937 12.226562 6.9335938 L 20.226562 39.226562 C 20.650701 40.838002 21.122364 42.599573 22.935547 43.458984 C 22.359733 44.152057 22 45.030389 22 46 C 22 48.206 23.794 50 26 50 C 28.206 50 30 48.206 30 46 C 30 45.264667 29.786935 44.58478 29.439453 43.992188 L 30.841797 43.992188 C 32.391291 47.518762 35.918047 50 40 50 C 45.5 50 50 45.5 50 40 C 50 35.4092 46.860002 31.525286 42.625 30.363281 L 47.927734 16.351562 C 48.043734 16.046563 48.001406 15.704547 47.816406 15.435547 C 47.631406 15.166547 47.326 15.007812 47 15.007812 L 16.271484 15.007812 L 14.142578 6.4121094 C 13.463578 4.1231094 12.330063 2.0078125 8.6640625 2.0078125 L 2.1601562 2.0078125 A 2 2 0 0 0 2 2 z M 27.361328 6.1953125 C 27.105578 6.1953125 26.849797 6.2927813 26.654297 6.4882812 L 20.134766 13.007812 L 34.589844 13.007812 L 28.068359 6.4882812 C 27.872859 6.2927812 27.617078 6.1953125 27.361328 6.1953125 z M 35.359375 6.2070312 C 35.099625 6.2071562 34.841297 6.3007813 34.654297 6.4882812 L 32.775391 8.3671875 L 37.417969 13.007812 L 42.589844 13.007812 L 36.068359 6.4882812 C 35.880359 6.3002812 35.619125 6.2069063 35.359375 6.2070312 z M 40 32 C 44.4 32 48 35.6 48 40 C 48 44.4 44.4 48 40 48 C 35.6 48 32 44.4 32 40 C 32 35.6 35.6 32 40 32 z M 39 34 L 39 39.5 L 35.400391 42.199219 L 36.599609 43.800781 L 41 40.5 L 41 34 L 39 34 z M 21.470703 35.994141 L 30.847656 35.994141 C 30.305589 37.222859 30 38.576685 30 40 C 30 40.6875 30.069336 41.358398 30.203125 42.007812 L 26.076172 42.007812 C 26.050185 42.007312 26.026104 42 26 42 C 25.973896 42 25.949815 42.007312 25.923828 42.007812 L 25.708984 42.007812 C 23.011984 42.007812 22.723391 40.909328 22.150391 38.736328 L 21.470703 35.994141 z M 26 44 C 27.103 44 28 44.897 28 46 C 28 47.103 27.103 48 26 48 C 24.897 48 24 47.103 24 46 C 24 44.897 24.897 44 26 44 z"/></svg>