<?xml version="1.0" encoding="utf-8"?><!-- Generator: Adobe Illustrator 17.0.0, SVG Export Plug-In . SVG Version: 6.00 Build 0)  --><!DOCTYPE svg PUBLIC "-//W3C//DTD SVG 1.1//EN" "http://www.w3.org/Graphics/SVG/1.1/DTD/svg11.dtd"><svg xmlns="http://www.w3.org/2000/svg" xmlns:xlink="http://www.w3.org/1999/xlink" viewBox="0 0 50 50" width="500px" height="500px"><path fill="none" stroke="#000000" stroke-width="2" stroke-linecap="round" stroke-linejoin="round" stroke-miterlimit="10" d="M49,38c0,2.209-1.791,4-4,4H5c-2.209,0-4-1.791-4-4V12c0-2.209,1.791-4,4-4h40c2.209,0,4,1.791,4,4V38z"/><g><path d="M16.465,19.639l-2.699,7.913c0,0-0.155-0.674-0.22-1.093c-1.537-3.444-4.031-4.707-4.031-4.707l2.367,8.998h3.251l4.487-11.112H16.465z"/><polygon points="19.038,30.751 21.986,30.751 23.771,19.639 20.787,19.639 "/><path d="M13.411,25.799l-0.993-5.042c0,0-0.448-1.094-1.614-1.094c-1.167,0-4.562,0-4.562,0S12.058,21.439,13.411,25.799z"/><path d="M27.954,22.821c0-0.644,0.511-1.124,1.978-1.124c0.953,0,2.045,0.718,2.045,0.718l0.477-2.456c0,0-1.397-0.545-2.762-0.545c-3.102,0-4.703,1.534-4.703,3.476c0,3.51,4.089,3.031,4.089,4.836c0,0.306-0.239,1.022-1.941,1.022c-1.706,0-2.831-0.649-2.831-0.649l-0.51,2.355c0,0,1.092,0.646,3.205,0.646c2.113,0,5.045-1.635,5.045-3.987C32.045,24.286,27.954,24.081,27.954,22.821z"/><path d="M39.907,19.639h-3.102l-4.84,11.112h2.928l0.607-1.586h3.691l0.318,1.586h2.682L39.907,19.639z M36.318,27.041l1.605-4.199l0.841,4.199H36.318z"/></g></svg>