<?xml version="1.0" encoding="iso-8859-1"?><!-- Generator: Adobe Illustrator 22.1.0, SVG Export Plug-In . SVG Version: 6.00 Build 0)  --><svg xmlns="http://www.w3.org/2000/svg" xmlns:xlink="http://www.w3.org/1999/xlink" viewBox="0 0 50 50" width="500px" height="500px"><g></g><path style="fill:none;stroke:#000000;stroke-width:2;stroke-linecap:round;stroke-miterlimit:10;" d="M5,22v21c0,1.105,0.895,2,2,2h36c1.105,0,2-0.895,2-2V22"/><rect x="24" y="28" style="fill:none;stroke:#000000;stroke-width:2;stroke-linecap:round;stroke-miterlimit:10;" width="16" height="12"/><polyline style="fill:none;stroke:#000000;stroke-width:2;stroke-linecap:round;stroke-miterlimit:10;" points="10,45 10,28 19,28 19,45 "/><path style="fill:none;stroke:#000000;stroke-width:2;stroke-linecap:round;stroke-miterlimit:10;" d="M11,21.297C11.825,22.327,13.078,23,14.5,23s2.675-0.673,3.5-1.703"/><path style="fill:none;stroke:#000000;stroke-width:2;stroke-linecap:round;stroke-miterlimit:10;" d="M39,21.297C39.824,22.327,41.078,23,42.5,23c2.485,0,3.5-2.015,3.5-4.5S45,11,45,11H5c0,0-1,5.015-1,7.5S5.015,23,7.5,23c1.422,0,2.675-0.673,3.5-1.703"/><path style="fill:none;stroke:#000000;stroke-width:2;stroke-linecap:round;stroke-miterlimit:10;" d="M32,21.297C32.824,22.327,34.078,23,35.5,23s2.676-0.673,3.5-1.703"/><path style="fill:none;stroke:#000000;stroke-width:2;stroke-linecap:round;stroke-miterlimit:10;" d="M25,21.297C25.825,22.327,27.078,23,28.5,23s2.676-0.673,3.5-1.703"/><path style="fill:none;stroke:#000000;stroke-width:2;stroke-linecap:round;stroke-miterlimit:10;" d="M18,21.297C18.825,22.327,20.078,23,21.5,23s2.675-0.673,3.5-1.703"/><line style="fill:none;stroke:#000000;stroke-width:2;stroke-linecap:round;stroke-miterlimit:10;" x1="39" y1="21.25" x2="39" y2="11.25"/><line style="fill:none;stroke:#000000;stroke-width:2;stroke-linecap:round;stroke-miterlimit:10;" x1="32" y1="21.25" x2="32" y2="11"/><line style="fill:none;stroke:#000000;stroke-width:2;stroke-linecap:round;stroke-miterlimit:10;" x1="25" y1="21.25" x2="25" y2="11"/><line style="fill:none;stroke:#000000;stroke-width:2;stroke-linecap:round;stroke-miterlimit:10;" x1="18" y1="21.25" x2="18" y2="11"/><line style="fill:none;stroke:#000000;stroke-width:2;stroke-miterlimit:10;" x1="11" y1="21.25" x2="11" y2="11"/><circle cx="8" cy="8" r="1"/><circle cx="11" cy="8" r="1"/><circle cx="14" cy="8" r="1"/><path style="fill:none;stroke:#000000;stroke-width:2;stroke-miterlimit:10;" d="M5,11V7c0-1.105,0.895-2,2-2h36c1.105,0,2,0.895,2,2v4H5z"/></svg>