<?xml version="1.0" encoding="utf-8"?><!-- Generator: Adobe Illustrator 15.0.0, SVG Export Plug-In . SVG Version: 6.00 Build 0)  --><!DOCTYPE svg PUBLIC "-//W3C//DTD SVG 1.1//EN" "http://www.w3.org/Graphics/SVG/1.1/DTD/svg11.dtd"><svg xmlns="http://www.w3.org/2000/svg" xmlns:xlink="http://www.w3.org/1999/xlink" viewBox="0 0 50 50" width="50px" height="50px"><g><path d="M49.707,0.293c-0.391-0.391-1.023-0.391-1.414,0L44,4.586V1c0-0.002-0.001-0.005-0.001-0.007c0-0.03-0.01-0.06-0.013-0.09C43.979,0.833,43.972,0.765,43.95,0.7c-0.002-0.008-0.001-0.017-0.004-0.024c-0.01-0.029-0.029-0.051-0.042-0.079c-0.024-0.056-0.051-0.11-0.085-0.161c-0.023-0.035-0.052-0.064-0.079-0.095c-0.037-0.042-0.076-0.082-0.12-0.117c-0.033-0.027-0.068-0.049-0.104-0.071c-0.026-0.016-0.048-0.038-0.076-0.051c-0.023-0.012-0.049-0.014-0.073-0.024c-0.04-0.016-0.079-0.028-0.12-0.039c-0.058-0.015-0.114-0.023-0.173-0.027C43.048,0.01,43.025,0,43,0H17c-0.205,0-0.405,0.063-0.573,0.181l-10,7C6.397,7.201,6.379,7.23,6.353,7.253C6.319,7.282,6.288,7.311,6.258,7.344c-0.054,0.062-0.097,0.128-0.134,0.2C6.106,7.577,6.086,7.606,6.072,7.642c-0.043,0.112-0.07,0.23-0.071,0.352C6.001,7.996,6,7.998,6,8v18c0,0.553,0.448,1,1,1h3.971l-4.544,3.181c-0.024,0.017-0.036,0.043-0.058,0.062c-0.054,0.044-0.098,0.093-0.141,0.147c-0.04,0.05-0.075,0.099-0.104,0.153c-0.029,0.056-0.049,0.113-0.067,0.175c-0.02,0.065-0.034,0.13-0.04,0.198C6.015,30.945,6,30.971,6,31v11.586l-5.707,5.707c-0.391,0.391-0.391,1.023,0,1.414C0.488,49.902,0.744,50,1,50s0.512-0.098,0.707-0.293l5.999-5.999c0-0.001,0.001-0.001,0.001-0.002l11.999-11.998c0-0.001,0.001-0.001,0.001-0.002l4.999-4.998c0-0.001,0.001-0.001,0.001-0.002l9.999-9.999c0.001,0,0.001-0.001,0.002-0.001l8.998-8.999c0.001,0,0.001-0.001,0.002-0.001l5.999-5.999C50.098,1.316,50.098,0.684,49.707,0.293z M17.315,2h22.77l-6.429,5H10.172L17.315,2z M8,9h25v6.586L23.586,25H8V9z M21.586,27l-3,3h-8.414l4.286-3H21.586z M8,32h8.586L8,40.586V32z"/><path d="M43.986,23.903c-0.007-0.069-0.015-0.138-0.036-0.203c-0.002-0.008-0.001-0.017-0.004-0.024c-0.01-0.029-0.029-0.051-0.042-0.079c-0.024-0.056-0.051-0.11-0.085-0.161c-0.023-0.035-0.052-0.064-0.079-0.095c-0.037-0.042-0.076-0.082-0.12-0.117c-0.033-0.027-0.068-0.049-0.104-0.071c-0.026-0.016-0.048-0.038-0.076-0.051c-0.023-0.011-0.049-0.014-0.072-0.023c-0.041-0.016-0.081-0.029-0.124-0.04c-0.055-0.014-0.109-0.022-0.166-0.026C43.051,23.01,43.026,23,43,23h-3.838l4.479-3.732C43.868,19.078,44,18.797,44,18.5v-2.438v-0.437v-5.383l-11,11v1.379V25h-1h-1.758h-1l-2,2h3H32h2l0,0c0.001,0,0.001,0,0.001,0c0.123,0,0.244-0.027,0.361-0.073c0.045-0.018,0.081-0.046,0.122-0.069c0.052-0.029,0.108-0.049,0.156-0.089L36.763,25h3.322l-6.428,5H28h-1.758h-2l-2,2h4H28h5v16H8v-1.758l-2,2V49c0,0.553,0.448,1,1,1h27c0.125,0,0.247-0.027,0.363-0.073c0.044-0.018,0.079-0.045,0.119-0.068c0.054-0.029,0.11-0.05,0.158-0.09l9-7.5C43.868,42.078,44,41.797,44,41.5V24c0-0.002-0.001-0.005-0.001-0.007C43.999,23.963,43.989,23.933,43.986,23.903z"/></g></svg>