<?xml version="1.0" encoding="iso-8859-1"?><!-- Generator: Adobe Illustrator 22.0.1, SVG Export Plug-In . SVG Version: 6.00 Build 0)  --><svg xmlns="http://www.w3.org/2000/svg" xmlns:xlink="http://www.w3.org/1999/xlink" viewBox="0 0 50 50" width="50px" height="50px"><rect x="21" y="32" style="fill:none;stroke:#000000;stroke-width:2;stroke-linecap:round;stroke-miterlimit:10;" width="28" height="17"/><path d="M45,4H5C4.448,4,4,4.402,4,4.954V45c0,0.552,0.448,1,1,1h16V32h25V4.954C46,4.402,45.552,4,45,4z M30,14H20c-1.105,0-2-0.895-2-2c0-1.105,0.895-2,2-2h10c1.105,0,2,0.895,2,2C32,13.105,31.105,14,30,14z"/><path style="fill:none;stroke:#000000;stroke-width:2;stroke-miterlimit:10;" d="M43,49c2.258,0,2.373-2.455,2.995-3.102C46.617,45.252,49,45.087,49,43.536"/><path style="fill:none;stroke:#000000;stroke-width:2;stroke-miterlimit:10;" d="M27,49c-2.258,0-2.373-2.455-2.996-3.102C23.383,45.252,21,45.087,21,43.536"/><circle cx="43.5" cy="40.5" r="1.5"/><circle cx="26.5" cy="40.5" r="1.5"/><ellipse style="fill:none;stroke:#000000;stroke-width:2;stroke-miterlimit:10;" cx="35" cy="40.5" rx="4" ry="4.5"/><path style="fill:none;stroke:#000000;stroke-width:2;stroke-miterlimit:10;" d="M49,37.464c0-1.55-2.383-1.716-3.005-2.361C45.373,34.455,45.258,32,43,32"/><path style="fill:none;stroke:#000000;stroke-width:2;stroke-miterlimit:10;" d="M21,37.464c0-1.55,2.383-1.716,3.004-2.361C24.627,34.455,24.742,32,27,32"/><path style="fill:none;stroke:#000000;stroke-width:2;stroke-miterlimit:10;" d="M49,37.464c0-1.55-2.383-1.716-3.005-2.361C45.373,34.455,45.258,32,43,32"/><path style="fill:none;stroke:#000000;stroke-width:2;stroke-miterlimit:10;" d="M21,37.464c0-1.55,2.383-1.716,3.004-2.361C24.627,34.455,24.742,32,27,32"/></svg>