<?xml version="1.0" encoding="iso-8859-1"?>
<!-- Generator: Adobe Illustrator 23.0.3, SVG Export Plug-In . SVG Version: 6.00 Build 0)  -->
<svg version="1.1" id="Layer_1" xmlns="http://www.w3.org/2000/svg" xmlns:xlink="http://www.w3.org/1999/xlink" x="0px" y="0px"
	 viewBox="0 0 50 50" style="enable-background:new 0 0 50 50;" xml:space="preserve">
<polyline style="fill:none;stroke:#000000;stroke-width:2;stroke-linecap:round;stroke-miterlimit:10;" points="44,47 44,37 34,37 
	"/>
<path style="fill:none;stroke:#000000;stroke-width:2;stroke-linecap:round;stroke-miterlimit:10;" d="M43.442,37
	C39.516,43.021,32.723,47,25,47C12.85,47,3,37.15,3,25S12.85,3,25,3s22,9.85,22,22"/>
<path d="M34,34h7.734C43.178,31.321,44,28.257,44,25c0-10.493-8.507-19-19-19S6,14.507,6,25s8.507,19,19,19
	c4.388,0,8.417-1.502,11.633-4H34c-1.657,0-3-1.343-3-3S32.343,34,34,34z M25,28c-1.657,0-3-1.343-3-3c0-1.304,0.837-2.403,2-2.816
	V10c0-0.552,0.448-1,1-1s1,0.448,1,1v12.184c0.848,0.302,1.515,0.968,1.816,1.816H36c0.552,0,1,0.448,1,1s-0.448,1-1,1h-8.184
	C27.403,27.163,26.304,28,25,28z"/>
</svg>