<?xml version="1.0" encoding="iso-8859-1"?><!-- Generator: Adobe Illustrator 21.1.0, SVG Export Plug-In . SVG Version: 6.00 Build 0)  --><svg xmlns="http://www.w3.org/2000/svg" xmlns:xlink="http://www.w3.org/1999/xlink" viewBox="0 0 50 50" width="500px" height="500px"><rect x="25" y="10" width="2" height="4"/><rect x="21" y="10" width="2" height="4"/><rect x="25" y="36" width="2" height="4"/><rect x="21" y="36" width="2" height="4"/><g><path d="M26.2,13c1,0,7.7-0.1,7.7,5.9c0,4.1-3.5,5.2-4.2,5.4v0.1c1.5,0.2,5.1,1.6,5.1,5.8c0,7-7.3,6.8-8.6,6.8H16V13H26.2z M26.2,23.5c0.9,0,1.7-0.1,2.4-0.3c0.7-0.2,1.2-0.5,1.7-0.9c0.4-0.4,0.8-0.8,1-1.3s0.3-1,0.3-1.6c0-3-1.8-4.5-5.4-4.5h-7.9v8.6L26.2,23.5z M26.2,35.1c0.9,0,1.7-0.1,2.4-0.2c0.8-0.1,1.4-0.4,2-0.8c0.6-0.4,1-0.9,1.4-1.5c0.3-0.6,0.5-1.4,0.5-2.4c0-1.5-0.5-2.7-1.6-3.5s-2.7-1.2-4.7-1.2h-7.9v9.6H26.2z"/></g><circle style="fill:none;stroke:#000000;stroke-width:2;stroke-miterlimit:10;" cx="25" cy="25" r="22"/></svg>