<?xml version="1.0" encoding="iso-8859-1"?>
<!-- Generator: Adobe Illustrator 23.0.3, SVG Export Plug-In . SVG Version: 6.00 Build 0)  -->
<svg version="1.1" id="Layer_1" xmlns="http://www.w3.org/2000/svg" xmlns:xlink="http://www.w3.org/1999/xlink" x="0px" y="0px"
	 viewBox="0 0 50 50" style="enable-background:new 0 0 50 50;" xml:space="preserve">
<path d="M41,4H9C8.447,4,8,4.447,8,5v28c0,0.553,0.447,1,1,1h32c0.553,0,1-0.447,1-1V5C42,4.447,41.553,4,41,4z M29,14h-8
	c-1.1,0-2-0.9-2-2c0-1.1,0.9-2,2-2h8c1.1,0,2,0.9,2,2C31,13.1,30.1,14,29,14z"/>
<line style="fill:none;stroke:#000000;stroke-width:2;stroke-linejoin:round;stroke-miterlimit:2.6131;" x1="25" y1="36" x2="25" y2="43"/>
<path d="M44,46H6c-0.553,0-1-0.447-1-1v-3c0-0.553,0.447-1,1-1h38c0.553,0,1,0.447,1,1v3C45,45.553,44.553,46,44,46z"/>
</svg>