<?xml version="1.0" encoding="iso-8859-1"?>
<!-- Generator: Adobe Illustrator 23.0.3, SVG Export Plug-In . SVG Version: 6.00 Build 0)  -->
<svg version="1.1" id="Layer_1" xmlns="http://www.w3.org/2000/svg" xmlns:xlink="http://www.w3.org/1999/xlink" x="0px" y="0px"
	 viewBox="0 0 50 50" style="enable-background:new 0 0 50 50;" xml:space="preserve">
<path d="M46,50H31c-1.654,0-3-1.346-3-3l1.074-14h18.852l1.071,13.923C49,48.654,47.654,50,46,50z"/>
<path style="fill:none;stroke:#000000;stroke-width:2;stroke-miterlimit:10;" d="M35,34v-2.5c0-1.933,1.567-3.5,3.5-3.5h0
	c1.933,0,3.5,1.567,3.5,3.5V34"/>
<path d="M26.837,36H7c-1.141,0-2-0.859-2-2V12c0-1.141,0.859-2,2-2h36c1.141,0,2,0.859,2,2v19h2V12c0-2.243-1.757-4-4-4H7
	c-2.243,0-4,1.757-4,4v22c0,0.738,0.205,1.413,0.539,2H1c-0.553,0-1,0.447-1,1c0,2.757,2.243,5,5,5h21.376L26.837,36z"/>
</svg>