<?xml version="1.0" encoding="utf-8"?><!-- Generator: Adobe Illustrator 17.0.2, SVG Export Plug-In . SVG Version: 6.00 Build 0)  --><!DOCTYPE svg PUBLIC "-//W3C//DTD SVG 1.1//EN" "http://www.w3.org/Graphics/SVG/1.1/DTD/svg11.dtd"><svg xmlns="http://www.w3.org/2000/svg" xmlns:xlink="http://www.w3.org/1999/xlink" viewBox="0 0 50 50" width="500px" height="500px"><path fill="none" stroke="#000000" stroke-width="2" stroke-linecap="round" stroke-linejoin="round" stroke-miterlimit="10" d="M18,23.547v3.719c-3.024,2.179-5,5.721-5,9.733c0,6.627,5.373,12,12,12s12-5.373,12-12c0-4.012-1.976-7.554-5-9.733V15"/><path fill="none" stroke="#000000" stroke-width="2" stroke-linecap="round" stroke-linejoin="round" stroke-miterlimit="10" d="M32,11.25V8c0-3.866-3.134-7-7-7s-7,3.134-7,7v11.75"/><polyline fill="none" stroke="#000000" stroke-width="2" stroke-linecap="round" stroke-linejoin="round" stroke-miterlimit="10" points="49,7 39,7 11,24 1,24 "/><g><circle cx="24" cy="41" r="1"/><circle cx="21" cy="44" r="1"/><circle cx="24" cy="47" r="1"/><circle cx="15" cy="32" r="1"/><circle cx="27" cy="44" r="1"/><circle cx="18" cy="41" r="1"/><circle cx="24" cy="29" r="1"/><circle cx="21" cy="32" r="1"/><circle cx="18" cy="29" r="1"/><circle cx="24" cy="35" r="1"/><circle cx="27" cy="32" r="1"/><circle cx="21" cy="38" r="1"/><circle cx="27" cy="26" r="1"/><circle cx="21" cy="26" r="1"/><circle cx="27" cy="38" r="1"/><circle cx="18" cy="35" r="1"/><circle cx="36" cy="41" r="1"/><circle cx="33" cy="44" r="1"/><circle cx="30" cy="41" r="1"/><circle cx="30" cy="47" r="1"/><circle cx="33" cy="32" r="1"/><circle cx="36" cy="35" r="1"/><circle cx="33" cy="38" r="1"/><circle cx="30" cy="35" r="1"/><circle cx="30" cy="29" r="1"/><circle cx="30" cy="23" r="1"/><circle cx="24" cy="23" r="1"/><circle cx="27" cy="20" r="1"/><circle cx="30" cy="17" r="1"/><circle cx="15" cy="38" r="1"/></g></svg>