<?xml version="1.0" encoding="iso-8859-1"?><!-- Generator: Adobe Illustrator 21.0.0, SVG Export Plug-In . SVG Version: 6.00 Build 0)  --><svg xmlns="http://www.w3.org/2000/svg" xmlns:xlink="http://www.w3.org/1999/xlink" viewBox="0 0 50 50" width="50px" height="50px"><g ><g><path d="M25.002,13.256l9.198-6.12l-8.832-5.038c-0.23-0.131-0.507-0.131-0.737,0l-8.775,5.005L25.002,13.256z"/><path d="M24.231,14.65L15,8.44v9.281c0,0.241,0.104,0.47,0.282,0.623L24.231,26V14.65z"/><path d="M25.769,14.652V26l8.948-7.656C34.896,18.19,35,17.962,35,17.721V8.51L25.769,14.652z"/></g><path d="M17.06,30.507l-4.791-5.113c-1.832-1.832-3.236-0.636-3.513-0.345c-0.9,0.943-0.905,2.414-0.016,3.347l4.797,5.095c0.32,0.334,0.32,0.877,0,1.212c-0.16,0.167-0.369,0.251-0.578,0.251c-0.209,0-0.419-0.084-0.578-0.251l-4.392-4.691C5,27,7,24,8,24v-9c0-2-1.395-3-3-3s-3,1-3,3v12c0,3,0.935,3.84,2,5c0,0,5.967,7.662,7,9v6.143C11,48,11.801,48,12,48c0.818,0,8,0,8,0c1,0,1-0.567,1-1v-8C21,35.321,19.172,32.628,17.06,30.507z"/><path d="M32.94,30.507l4.791-5.113c1.832-1.832,3.236-0.636,3.513-0.345c0.9,0.943,0.905,2.414,0.016,3.347l-4.797,5.095c-0.32,0.334-0.32,0.877,0,1.212c0.16,0.167,0.369,0.251,0.578,0.251s0.419-0.084,0.578-0.251l4.392-4.691C45,27,43,24,42,24v-9c0-2,1.395-3,3-3s3,1,3,3v12c0,3-0.935,3.84-2,5c0,0-5.967,7.662-7,9v6.143C39,48,38.199,48,38,48c-0.818,0-8,0-8,0c-1,0-1-0.567-1-1v-8C29,35.321,30.828,32.628,32.94,30.507z"/></g><g  style="display:none;"></g><g ></g></svg>