<?xml version="1.0" encoding="iso-8859-1"?><!-- Generator: Adobe Illustrator 20.1.0, SVG Export Plug-In . SVG Version: 6.00 Build 0)  --><svg xmlns="http://www.w3.org/2000/svg" xmlns:xlink="http://www.w3.org/1999/xlink" viewBox="0 0 50 50" width="50px" height="50px"><polygon points="20,17.166 20,24 23,24 23,19 27,19 27,24 30,24 30,17.166 25,14.166 "/><path d="M25,2C16.178,2,9,9.178,9,18c0,12.078,14.625,28.946,15.247,29.658C24.437,47.875,24.711,48,24.999,48H25c0.288,0,0.562-0.124,0.752-0.34C26.374,46.951,41,30.151,41,18C41,9.178,33.822,2,25,2z M32,18.333V26H18v-7.667l-1.015-1.69L25,11.834l8.015,4.809L32,18.333z"/></svg>