<?xml version="1.0" encoding="iso-8859-1"?><!-- Generator: Adobe Illustrator 19.1.1, SVG Export Plug-In . SVG Version: 6.00 Build 0)  --><svg xmlns="http://www.w3.org/2000/svg" xmlns:xlink="http://www.w3.org/1999/xlink" viewBox="0 0 50 50" width="500px" height="500px"><path style="fill:none;stroke:#000000;stroke-width:2;stroke-linecap:round;stroke-miterlimit:10;" d="M1,18c0,0,7.583,13,23,13c10.584,0,16-4.167,19-12"/><path style="fill:none;stroke:#000000;stroke-width:2;stroke-linecap:round;stroke-linejoin:round;stroke-miterlimit:10;" d="M18,20c-1.75,1.25-3,4-3,4s4.625-1.375,7-2c0,0,2.699,1,4,1c7.167,0,10.893-5.091,11.515-6.203c0.819-1.464,1.39-3.16,2.374-4.613C40.807,10.83,42.363,10,44,10c2.761,0,5,2.239,5,5c0,18.865-13.725,24.198-21,25c0,0-5.25-3.25-7-5c0.833,2.333,1.833,4.833,2,5c-7.047-0.65-14-5.852-14-14C11.417,21.583,16.286,20.455,18,20"/><path style="fill:none;stroke:#000000;stroke-width:2;stroke-linecap:round;stroke-linejoin:round;stroke-miterlimit:10;" d="M7,25c0,0-2.333,3.417,0,8"/></svg>