<?xml version="1.0" encoding="iso-8859-1"?><!-- Generator: Adobe Illustrator 21.0.0, SVG Export Plug-In . SVG Version: 6.00 Build 0)  --><svg xmlns="http://www.w3.org/2000/svg" xmlns:xlink="http://www.w3.org/1999/xlink" viewBox="0 0 50 50" width="50px" height="50px"><path style="fill:none;stroke:#000000;stroke-width:2;stroke-linejoin:round;stroke-miterlimit:10;" d="M25.266,1.215c-0.282-0.282-0.736-0.287-1.012-0.01L1.204,24.253c-0.277,0.277-0.272,0.73,0.01,1.012l23.519,23.519c0.282,0.282,0.736,0.287,1.012,0.01l23.049-23.049c0.276-0.277,0.272-0.73-0.011-1.012L25.266,1.215z"/><g><path d="M24.118,20.898h-1.727v7.196h1.727c2.139,0,3.294-1.25,3.294-3.629C27.412,22.164,26.225,20.898,24.118,20.898z"/><path d="M48.785,24.734L25.266,1.215c-0.282-0.282-0.736-0.287-1.012-0.01L1.205,24.253c-0.277,0.277-0.272,0.73,0.01,1.012l23.519,23.519c0.282,0.282,0.736,0.287,1.012,0.01l23.049-23.049C49.072,25.47,49.068,25.016,48.785,24.734z M16.719,30l-0.871-2.668h-4.015L10.962,30H8.507l3.968-11h2.812l3.976,11H16.719z M24.403,30H20V19h4.403c3.429,0,5.448,1.966,5.448,5.458S27.832,30,24.403,30z M38.292,30l-2.131-4.025h-1.956V30h-2.392V19h4.72c2.63,0,4.134,1.334,4.134,3.507c0,1.41-0.76,2.63-2.074,3.126L41,30H38.292z"/><path d="M36.28,20.798h-2.075v3.508h2.099c1.204,0,1.909-0.664,1.909-1.754C38.213,21.485,37.468,20.798,36.28,20.798z"/><polygon points="13.812,21.104 12.348,25.609 15.333,25.609 13.868,21.104 "/></g></svg>