<?xml version="1.0" encoding="iso-8859-1"?><!-- Generator: Adobe Illustrator 19.1.1, SVG Export Plug-In . SVG Version: 6.00 Build 0)  --><svg xmlns="http://www.w3.org/2000/svg" xmlns:xlink="http://www.w3.org/1999/xlink" viewBox="0 0 50 50" width="500px" height="500px"><path d="M47,46L47,46c0-1.105-0.895-2-2-2h-1v2H6v-2H5c-1.105,0-2,0.895-2,2l0,0c0,1.105,0.895,2,2,2h40C46.105,48,47,47.105,47,46z"/><path d="M43.525,2.149c-0.295-0.183-0.663-0.198-0.973-0.044L41,2.882l-1.553-0.776c-0.281-0.141-0.613-0.141-0.895,0L37,2.882l-1.553-0.776c-0.281-0.141-0.613-0.141-0.895,0L33,2.882l-1.553-0.776c-0.281-0.141-0.613-0.141-0.895,0L29,2.882l-1.553-0.776c-0.281-0.141-0.613-0.141-0.895,0L25,2.882l-1.553-0.776c-0.281-0.141-0.613-0.141-0.895,0L21,2.882l-1.553-0.776c-0.281-0.141-0.613-0.141-0.895,0L17,2.882l-1.553-0.776c-0.281-0.141-0.613-0.141-0.895,0L13,2.882l-1.553-0.776c-0.281-0.141-0.613-0.141-0.895,0L9,2.882L7.447,2.105c-0.31-0.154-0.678-0.138-0.973,0.044C6.18,2.332,6,2.653,6,3v41h38V3C44,2.653,43.82,2.332,43.525,2.149z M13,37c-0.552,0-1-0.448-1-1c0-0.552,0.448-1,1-1s1,0.448,1,1C14,36.552,13.552,37,13,37z M12,30c0-0.553,0.448-1,1-1h11c0.552,0,1,0.447,1,1s-0.448,1-1,1H13C12.448,31,12,30.553,12,30z M16,37c-0.552,0-1-0.448-1-1c0-0.552,0.448-1,1-1s1,0.448,1,1C17,36.552,16.552,37,16,37z M19,37c-0.552,0-1-0.448-1-1c0-0.552,0.448-1,1-1s1,0.448,1,1C20,36.552,19.552,37,19,37z M22,37c-0.552,0-1-0.448-1-1c0-0.552,0.448-1,1-1s1,0.448,1,1C23,36.552,22.552,37,22,37z M25,37c-0.552,0-1-0.448-1-1c0-0.552,0.448-1,1-1s1,0.448,1,1C26,36.552,25.552,37,25,37z M28,37c-0.552,0-1-0.448-1-1c0-0.552,0.448-1,1-1s1,0.448,1,1C29,36.552,28.552,37,28,37z M28,25H13c-0.552,0-1-0.448-1-1s0.448-1,1-1h15c0.553,0,1,0.448,1,1S28.553,25,28,25z M12,18c0-0.552,0.448-1,1-1h11c0.552,0,1,0.448,1,1s-0.448,1-1,1H13C12.448,19,12,18.552,12,18z M28,13H13c-0.552,0-1-0.448-1-1s0.448-1,1-1h15c0.553,0,1,0.448,1,1S28.553,13,28,13z M31,35c0.552,0,1,0.448,1,1c0,0.552-0.448,1-1,1s-1-0.448-1-1C30,35.448,30.448,35,31,35z M37,42h-6c-0.553,0-1-0.447-1-1s0.447-1,1-1h6c0.553,0,1,0.447,1,1S37.553,42,37,42z M33,36c0-0.552,0.448-1,1-1s1,0.448,1,1c0,0.552-0.448,1-1,1S33,36.552,33,36z M37,37c-0.552,0-1-0.448-1-1c0-0.552,0.448-1,1-1s1,0.448,1,1C38,36.552,37.552,37,37,37z M37,31h-3c-0.553,0-1-0.447-1-1s0.447-1,1-1h3c0.553,0,1,0.447,1,1S37.553,31,37,31z M37,25h-3c-0.553,0-1-0.448-1-1s0.447-1,1-1h3c0.553,0,1,0.448,1,1S37.553,25,37,25z M37,19h-3c-0.553,0-1-0.448-1-1s0.447-1,1-1h3c0.553,0,1,0.448,1,1S37.553,19,37,19z M37,13h-3c-0.553,0-1-0.448-1-1s0.447-1,1-1h3c0.553,0,1,0.448,1,1S37.553,13,37,13z"/></svg>