<svg xmlns="http://www.w3.org/2000/svg"  viewBox="0 0 50 50" width="50px" height="50px"><path d="M 1.8125 2 C 1.78125 2.007813 1.75 2.019531 1.71875 2.03125 C 0.746094 2.167969 0 2.992188 0 4 C 0 5.105469 0.894531 6 2 6 C 3.105469 6 4 5.105469 4 4 L 8.65625 4 C 9.902344 4 10.550781 4.257813 11.03125 4.6875 C 11.503906 5.113281 11.886719 5.824219 12.21875 6.9375 L 12.21875 6.96875 L 20.21875 39.21875 C 20.519531 40.363281 20.789063 41.539063 21.625 42.5 C 21.96875 42.898438 22.410156 43.222656 22.9375 43.46875 C 22.359375 44.164063 22 45.035156 22 46 C 22 48.199219 23.800781 50 26 50 C 28.199219 50 30 48.199219 30 46 C 30 45.265625 29.785156 44.59375 29.4375 44 L 35.5625 44 C 35.214844 44.59375 35 45.265625 35 46 C 35 48.199219 36.800781 50 39 50 C 41.199219 50 43 48.199219 43 46 C 43 44.972656 42.582031 44.054688 41.9375 43.34375 C 42.050781 43.039063 42.003906 42.695313 41.820313 42.429688 C 41.632813 42.160156 41.328125 42 41 42 L 25.71875 42 C 24.179688 42 23.578125 41.671875 23.15625 41.1875 C 22.738281 40.710938 22.453125 39.867188 22.15625 38.75 L 22.15625 38.71875 L 21.46875 36 L 39.8125 36 C 40.226563 36 40.601563 35.734375 40.75 35.34375 L 47.9375 16.34375 C 48.054688 16.035156 48 15.707031 47.8125 15.4375 C 47.625 15.167969 47.328125 15 47 15 L 16.28125 15 L 14.15625 6.46875 C 14.15625 6.449219 14.15625 6.425781 14.15625 6.40625 C 13.773438 5.117188 13.28125 4 12.375 3.1875 C 11.46875 2.375 10.207031 2 8.65625 2 L 2 2 C 1.96875 2 1.9375 2 1.90625 2 C 1.875 2 1.84375 2 1.8125 2 Z M 31 19 C 31.554688 19 32 19.449219 32 20 L 32 24 L 36 24 C 36.554688 24 37 24.449219 37 25 C 37 25.550781 36.554688 26 36 26 L 32 26 L 32 30 C 32 30.554688 31.554688 31 31 31 C 30.445313 31 30 30.554688 30 30 L 30 26 L 26 26 C 25.449219 26 25 25.550781 25 25 C 25 24.449219 25.449219 24 26 24 L 30 24 L 30 20 C 30 19.449219 30.445313 19 31 19 Z M 26 44 C 27.117188 44 28 44.882813 28 46 C 28 47.117188 27.117188 48 26 48 C 24.882813 48 24 47.117188 24 46 C 24 44.882813 24.882813 44 26 44 Z M 39 44 C 40.117188 44 41 44.882813 41 46 C 41 47.117188 40.117188 48 39 48 C 37.882813 48 37 47.117188 37 46 C 37 44.882813 37.882813 44 39 44 Z"/></svg>