<?xml version="1.0" encoding="utf-8"?><!-- Generator: Adobe Illustrator 15.0.0, SVG Export Plug-In . SVG Version: 6.00 Build 0)  --><!DOCTYPE svg PUBLIC "-//W3C//DTD SVG 1.1//EN" "http://www.w3.org/Graphics/SVG/1.1/DTD/svg11.dtd"><svg xmlns="http://www.w3.org/2000/svg" xmlns:xlink="http://www.w3.org/1999/xlink" viewBox="0 0 50 50" width="50px" height="50px"><path d="M46,19h-5.115c0.162-0.355,0.334-0.702,0.51-1.053C42.184,16.369,43,14.736,43,12c0-5.177-2.979-11.193-3.105-11.447c-0.144-0.288-0.417-0.488-0.734-0.54c-0.32-0.049-0.641,0.054-0.867,0.28l-2.448,2.448l-4.33-2.598c-0.394-0.235-0.897-0.175-1.222,0.15l-2.448,2.448l-4.33-2.598c-0.394-0.236-0.897-0.174-1.222,0.15l-2.448,2.448l-4.331-2.598c-0.394-0.236-0.897-0.174-1.222,0.15l-2.448,2.448L7.515,0.143C7.133-0.086,6.647-0.035,6.321,0.266C5.995,0.568,5.907,1.049,6.105,1.447C6.134,1.505,9,7.301,9,12c0,2.419-0.779,4.1-1.533,5.725C7.273,18.143,7.08,18.566,6.897,19H4c-2.206,0-4,1.794-4,4v27h50V23C50,20.794,48.206,19,46,19z M9.282,18.566C10.087,16.829,11,14.86,11,12c0-2.996-0.998-6.272-1.863-8.551l2.348,1.409c0.394,0.236,0.897,0.173,1.222-0.15l2.448-2.448l4.331,2.598c0.394,0.236,0.897,0.173,1.222-0.15l2.448-2.448l4.331,2.598c0.394,0.235,0.897,0.175,1.222-0.15l2.448-2.448l4.33,2.598c0.394,0.235,0.897,0.175,1.222-0.15l1.979-1.979C39.531,4.708,41,8.635,41,12c0,2.264-0.678,3.619-1.395,5.053C38.816,18.631,38,20.264,38,23c0,3.713,1.533,7.859,2.446,10H10.67C9.963,31.244,8,26.088,8,23C8,21.332,8.594,20.05,9.282,18.566z M42.1,43.8C42,44.4,41.4,45,40.7,45H9.3C8.6,45,8,44.4,8,43.7v-5.5C8,37.6,8.6,37,9.3,37h31.5c0.7,0,1.3,0.6,1.3,1.3V43.8z"/><path d="M26.1,43H24c-0.5,0-0.9-0.4-0.9-0.9V40c0-0.5,0.4-0.9,0.9-0.9h2.1c0.5,0,0.9,0.4,0.9,0.9v2.1C27,42.6,26.6,43,26.1,43z"/><path d="M35.1,43H33c-0.5,0-0.9-0.4-0.9-0.9V40c0-0.5,0.4-0.9,0.9-0.9h2.1c0.5,0,0.9,0.4,0.9,0.9v2.1C36,42.6,35.6,43,35.1,43z"/><path d="M17.1,43H15c-0.5,0-0.9-0.4-0.9-0.9V40c0-0.5,0.4-0.9,0.9-0.9h2.1c0.5,0,0.9,0.4,0.9,0.9v2.1C18,42.6,17.6,43,17.1,43z"/></svg>