<?xml version="1.0" encoding="iso-8859-1"?><!-- Generator: Adobe Illustrator 19.2.1, SVG Export Plug-In . SVG Version: 6.00 Build 0)  --><svg xmlns="http://www.w3.org/2000/svg" xmlns:xlink="http://www.w3.org/1999/xlink" viewBox="0 0 50 50" width="500px" height="500px"><path style="fill:none;stroke:#000000;stroke-width:2;stroke-linecap:round;stroke-miterlimit:10;" d="M25,3C15.611,3,8,10.611,8,20s7.611,17,17,17c9.389,0,17-7.611,17-17S34.389,3,25,3z"/><g><g><path d="M25,5c-0.552,0-1,0.448-1,1c0,0.552,0.448,1,1,1s1-0.448,1-1C26,5.448,25.552,5,25,5z M25,33c-0.552,0-1,0.448-1,1c0,0.552,0.448,1,1,1s1-0.448,1-1C26,33.448,25.552,33,25,33z M39,19c-0.552,0-1,0.448-1,1c0,0.552,0.448,1,1,1s1-0.448,1-1C40,19.448,39.552,19,39,19z M12,20c0-0.552-0.448-1-1-1s-1,0.448-1,1c0,0.552,0.448,1,1,1S12,20.552,12,20z M34.192,9.393c-0.391,0.391-0.391,1.024,0,1.414c0.391,0.391,1.024,0.391,1.414,0c0.391-0.391,0.391-1.024,0-1.414C35.216,9.003,34.583,9.003,34.192,9.393z M14.393,29.192c-0.391,0.391-0.391,1.024,0,1.414c0.391,0.391,1.024,0.391,1.414,0c0.391-0.391,0.391-1.024,0-1.414C15.417,28.802,14.784,28.802,14.393,29.192z M34.192,29.192c-0.391,0.391-0.391,1.024,0,1.414c0.391,0.391,1.024,0.391,1.414,0c0.391-0.391,0.391-1.024,0-1.414C35.216,28.802,34.583,28.802,34.192,29.192z M14.393,9.393c-0.391,0.391-0.391,1.024,0,1.414c0.391,0.391,1.024,0.391,1.414,0c0.391-0.391,0.391-1.024,0-1.414C15.417,9.003,14.784,9.003,14.393,9.393z M11.683,24.434c-0.51,0.211-0.753,0.796-0.541,1.307c0.211,0.51,0.796,0.753,1.307,0.541s0.753-0.796,0.541-1.307S12.193,24.222,11.683,24.434z M38.317,15.566c0.51-0.211,0.753-0.796,0.541-1.307c-0.211-0.51-0.796-0.753-1.307-0.541c-0.51,0.211-0.753,0.796-0.541,1.307S37.807,15.778,38.317,15.566z M38.317,24.434c-0.51-0.211-1.095,0.031-1.307,0.541s0.031,1.095,0.541,1.307s1.095-0.031,1.307-0.541C39.07,25.23,38.827,24.645,38.317,24.434z M29.975,32.01c-0.51,0.211-0.753,0.796-0.541,1.307c0.211,0.51,0.796,0.753,1.307,0.541c0.51-0.211,0.753-0.796,0.541-1.307S30.485,31.799,29.975,32.01z M12.448,13.719c-0.51-0.211-1.095,0.031-1.307,0.541c-0.211,0.51,0.031,1.095,0.541,1.307s1.095-0.031,1.307-0.541S12.959,13.93,12.448,13.719z M30.74,6.142c-0.51-0.211-1.095,0.031-1.307,0.541c-0.211,0.51,0.031,1.095,0.541,1.307c0.51,0.211,1.095-0.031,1.307-0.541S31.25,6.353,30.74,6.142z M19.26,6.142c-0.51,0.211-0.753,0.796-0.541,1.307s0.796,0.753,1.307,0.541c0.51-0.211,0.753-0.796,0.541-1.307C20.355,6.173,19.77,5.93,19.26,6.142z M20.025,32.01c-0.51-0.211-1.095,0.031-1.307,0.541s0.031,1.095,0.541,1.307c0.51,0.211,1.095-0.031,1.307-0.541C20.778,32.807,20.535,32.222,20.025,32.01z"/></g></g><g><g><path d="M22.074,5.288c-0.542,0.108-0.893,0.634-0.786,1.176c0.108,0.542,0.634,0.893,1.176,0.786c0.542-0.108,0.893-0.634,0.786-1.176S22.615,5.18,22.074,5.288z M27.536,32.75c-0.542,0.108-0.893,0.634-0.786,1.176c0.108,0.542,0.634,0.893,1.176,0.786c0.542-0.108,0.893-0.634,0.786-1.176C28.604,32.994,28.078,32.642,27.536,32.75z M38.926,18.25c0.542-0.108,0.893-0.634,0.786-1.176c-0.108-0.542-0.634-0.893-1.176-0.786c-0.542,0.108-0.893,0.634-0.786,1.176C37.858,18.005,38.384,18.357,38.926,18.25z M11.074,21.75c-0.542,0.108-0.893,0.634-0.786,1.176c0.108,0.542,0.634,0.893,1.176,0.786s0.893-0.634,0.786-1.176C12.142,21.995,11.616,21.643,11.074,21.75z M31.947,7.804c-0.307,0.459-0.183,1.08,0.276,1.387c0.459,0.307,1.08,0.183,1.387-0.276s0.183-1.08-0.276-1.387S32.253,7.345,31.947,7.804z M16.391,31.085c-0.307,0.459-0.183,1.08,0.276,1.387s1.08,0.183,1.387-0.276c0.307-0.459,0.183-1.08-0.276-1.387S16.697,30.626,16.391,31.085z M35.809,27.222c-0.307,0.459-0.183,1.08,0.276,1.387c0.459,0.307,1.08,0.183,1.387-0.276c0.307-0.459,0.183-1.08-0.276-1.387C36.737,26.64,36.116,26.763,35.809,27.222z M12.528,11.666c-0.307,0.459-0.183,1.08,0.276,1.387c0.459,0.307,1.08,0.183,1.387-0.276c0.307-0.459,0.183-1.08-0.276-1.387C13.456,11.084,12.835,11.207,12.528,11.666z M12.804,26.946c-0.459,0.307-0.583,0.928-0.276,1.387c0.307,0.459,0.928,0.583,1.387,0.276c0.459-0.307,0.583-0.928,0.276-1.387C13.884,26.763,13.263,26.64,12.804,26.946z M11.464,16.288c-0.542-0.108-1.068,0.244-1.176,0.786c-0.108,0.542,0.244,1.068,0.786,1.176s1.068-0.244,1.176-0.786C12.358,16.922,12.006,16.396,11.464,16.288z M16.666,7.528c-0.459,0.307-0.583,0.928-0.276,1.387s0.928,0.583,1.387,0.276c0.459-0.307,0.583-0.928,0.276-1.387S17.126,7.221,16.666,7.528z M22.464,32.75c-0.542-0.108-1.068,0.244-1.176,0.786c-0.108,0.542,0.244,1.068,0.786,1.176c0.542,0.108,1.068-0.244,1.176-0.786C23.357,33.384,23.005,32.858,22.464,32.75z M36.085,11.391c-0.459,0.307-0.583,0.928-0.276,1.387c0.307,0.459,0.928,0.583,1.387,0.276c0.459-0.307,0.583-0.928,0.276-1.387C37.165,11.207,36.544,11.084,36.085,11.391z M38.926,21.75c-0.542-0.108-1.068,0.244-1.176,0.786c-0.108,0.542,0.244,1.068,0.786,1.176s1.068-0.244,1.176-0.786C39.82,22.385,39.468,21.858,38.926,21.75z M32.222,30.809c-0.459,0.307-0.583,0.928-0.276,1.387c0.307,0.459,0.928,0.583,1.387,0.276s0.583-0.928,0.276-1.387C33.303,30.626,32.682,30.502,32.222,30.809z M27.926,5.288c-0.542-0.108-1.068,0.244-1.176,0.786s0.244,1.068,0.786,1.176c0.542,0.108,1.068-0.244,1.176-0.786C28.82,5.922,28.468,5.396,27.926,5.288z"/></g></g><polyline style="fill:none;stroke:#000000;stroke-width:2;stroke-linecap:round;stroke-linejoin:round;stroke-miterlimit:10;" points="11.689,30.646 5,42.088 10.45,42.731 13.403,47 19.718,36.198 "/><polyline style="fill:none;stroke:#000000;stroke-width:2;stroke-linecap:round;stroke-linejoin:round;stroke-miterlimit:10;" points="38.311,30.646 45,42.088 39.55,42.731 36.597,47 30.282,36.198 "/><polygon points="33.248,17.68 33.954,19.125 35.546,19.35 34.389,20.467 34.668,22.051 33.248,21.296 31.828,22.051 32.107,20.467 30.95,19.35 32.543,19.125 "/><polygon points="16.248,17.68 16.954,19.125 18.546,19.35 17.389,20.467 17.668,22.051 16.248,21.296 14.828,22.051 15.107,20.467 13.95,19.35 15.543,19.125 "/><g><path d="M21.221,15.022c2.294-0.149,3.356-1.894,3.436-2.32h1.86v14h-2.5v-9.88h-2.796V15.022z"/></g></svg>