<?xml version="1.0" encoding="iso-8859-1"?><!-- Generator: Adobe Illustrator 19.1.1, SVG Export Plug-In . SVG Version: 6.00 Build 0)  --><svg xmlns="http://www.w3.org/2000/svg" xmlns:xlink="http://www.w3.org/1999/xlink" viewBox="0 0 50 50" width="500px" height="500px"><path d="M43,9H7c-2.757,0-5,2.243-5,5v22c0,2.757,2.243,5,5,5h36c2.757,0,5-2.243,5-5V14C48,11.243,45.757,9,43,9z M8,18c0-0.552,0.448-1,1-1h4c0.552,0,1,0.448,1,1v3c0,0.552-0.448,1-1,1H9c-0.552,0-1-0.448-1-1V18z M9,28h5c0.552,0,1,0.447,1,1s-0.448,1-1,1H9c-0.552,0-1-0.447-1-1S8.448,28,9,28z M22,35H9c-0.552,0-1-0.447-1-1s0.448-1,1-1h13c0.552,0,1,0.447,1,1S22.552,35,22,35z M23,30h-5c-0.552,0-1-0.447-1-1s0.448-1,1-1h5c0.552,0,1,0.447,1,1S23.552,30,23,30z M32,30h-5c-0.553,0-1-0.447-1-1s0.447-1,1-1h5c0.553,0,1,0.447,1,1S32.553,30,32,30z M41,30h-5c-0.553,0-1-0.447-1-1s0.447-1,1-1h5c0.553,0,1,0.447,1,1S41.553,30,41,30z M41,20H28c-0.553,0-1-0.448-1-1s0.447-1,1-1h13c0.553,0,1,0.448,1,1S41.553,20,41,20z"/></svg>