<?xml version="1.0" encoding="iso-8859-1"?>
<!-- Generator: Adobe Illustrator 23.0.3, SVG Export Plug-In . SVG Version: 6.00 Build 0)  -->
<svg version="1.1" id="Layer_1" xmlns="http://www.w3.org/2000/svg" xmlns:xlink="http://www.w3.org/1999/xlink" x="0px" y="0px"
	 viewBox="0 0 50 50" style="enable-background:new 0 0 50 50;" xml:space="preserve">
<path style="fill:none;stroke:#000000;stroke-width:2;stroke-linejoin:round;stroke-miterlimit:10;" d="M29,14h-8c-1.1,0-2-0.9-2-2
	l0,0c0-1.1,0.9-2,2-2h8c1.1,0,2,0.9,2,2l0,0C31,13.1,30.1,14,29,14z"/>
<g id="IOS_copy_13_">
	<path d="M45.9,40c0,0.6-0.4,1-1,1h-9.8c-0.6,0-1-0.4-1-1s0.4-1,1-1H45C45.5,39,45.9,39.4,45.9,40z M50,40c0,5.5-4.5,10-10,10
		s-10-4.5-10-10s4.5-10,10-10S50,34.5,50,40z M48,40c0-4.4-3.6-8-8-8s-8,3.6-8,8s3.6,8,8,8S48,44.4,48,40z"/>
</g>
<path d="M28.697,44H6V6h38v22.697c0.699,0.247,1.367,0.555,2,0.921V5c0-0.553-0.447-1-1-1H5C4.447,4,4,4.447,4,5v40
	c0,0.553,0.447,1,1,1h24.618C29.252,45.367,28.945,44.699,28.697,44z"/>
</svg>