<?xml version="1.0" encoding="iso-8859-1"?><!-- Generator: Adobe Illustrator 22.0.1, SVG Export Plug-In . SVG Version: 6.00 Build 0)  --><svg xmlns="http://www.w3.org/2000/svg" xmlns:xlink="http://www.w3.org/1999/xlink" viewBox="0 0 50 50" width="500px" height="500px"><line style="fill:none;stroke:#000000;stroke-width:2;stroke-linecap:round;stroke-linejoin:round;stroke-miterlimit:10;" x1="33" y1="13" x2="33" y2="16"/><line style="fill:none;stroke:#000000;stroke-width:2;stroke-linecap:round;stroke-linejoin:round;stroke-miterlimit:10;" x1="33" y1="16" x2="42.001" y2="18"/><line style="fill:none;stroke:#000000;stroke-width:2;stroke-linecap:round;stroke-linejoin:round;stroke-miterlimit:10;" x1="33" y1="16" x2="24.001" y2="18"/><path style="fill:none;stroke:#000000;stroke-width:2;stroke-linecap:round;stroke-linejoin:round;stroke-miterlimit:10;" d="M37,27c0,0,2-5.922,2-10.541L37,16c0,5.362-4,4.341-4,7c0-2.62-4-1.638-4-7l-2,0.459C27,21.078,29,27,29,27s-3.989,10.191-4.999,16c0,0,3.858,1,9,1s9-1,9-1C40.991,37.191,37,27,37,27z"/><path style="fill:none;stroke:#000000;stroke-width:2;stroke-linecap:round;stroke-linejoin:round;stroke-miterlimit:10;" d="M37,27c0,0-1.517,1-4,1s-4-1-4-1"/><circle style="fill:none;stroke:#000000;stroke-width:2;stroke-linecap:round;stroke-linejoin:round;stroke-miterlimit:10;" cx="19" cy="8" r="5"/><path style="fill:none;stroke:#000000;stroke-width:2;stroke-linecap:round;stroke-linejoin:round;stroke-miterlimit:10;" d="M19,36h-4v9c0,1.105,0.895,2,2,2l0,0c1.105,0,2-0.895,2-2V36z"/><path style="fill:none;stroke:#000000;stroke-width:2;stroke-linecap:round;stroke-linejoin:round;stroke-miterlimit:10;" d="M19,16h-0.161c-4.075,0-7.65,2.696-8.741,6.591l-2.016,7.197c-0.344,1.229,0.433,2.49,1.693,2.745l1.177,0.238"/><polyline style="fill:none;stroke:#000000;stroke-width:2;stroke-linecap:round;stroke-linejoin:round;stroke-miterlimit:10;" points="21,36 10.322,36 14,23 "/><path d="M22.348,15.506C21.377,15.186,20.312,15,19.161,15H19v2h0.161c0.696,0,1.349,0.081,1.957,0.22C21.309,16.522,21.74,15.91,22.348,15.506z"/><path style="fill:none;stroke:#000000;stroke-width:2;stroke-linejoin:round;stroke-miterlimit:10;" d="M9.047,12.952c0,0,2.57,0.374,3.925-0.981s0.981-3.925,0.981-3.925s-2.57-0.374-3.925,0.981S9.047,12.952,9.047,12.952z"/><path d="M23.759,46.026c-0.124-0.028-0.222-0.051-0.302-0.07c-0.014-0.003-0.021-0.005-0.034-0.008c-0.092-0.022-0.158-0.039-0.174-0.043c0,0-0.001,0-0.002,0c-0.002,0-0.003-0.001-0.004-0.002c-0.234-0.061-0.449-0.157-0.655-0.268c-0.029-0.016-0.056-0.034-0.084-0.05c-0.196-0.115-0.377-0.249-0.541-0.403C21.875,45.643,21.487,46,21,46c-0.551,0-1-0.448-1-1v-9h-2v9c0,1.654,1.346,3,3,3c1.289,0,2.381-0.821,2.805-1.964C23.786,46.032,23.777,46.03,23.759,46.026z"/><path d="M22.995,35H20v2h2.387C22.582,36.333,22.786,35.663,22.995,35z"/></svg>