<?xml version="1.0" encoding="iso-8859-1"?>
<!-- Generator: Adobe Illustrator 23.0.3, SVG Export Plug-In . SVG Version: 6.00 Build 0)  -->
<svg version="1.1" id="Layer_1" xmlns="http://www.w3.org/2000/svg" xmlns:xlink="http://www.w3.org/1999/xlink" x="0px" y="0px"
	 viewBox="0 0 50 50" style="enable-background:new 0 0 50 50;" xml:space="preserve">
<path style="fill:none;stroke:#000000;stroke-width:2;stroke-linejoin:round;stroke-miterlimit:10;" d="M29,14h-8c-1.1,0-2-0.9-2-2
	l0,0c0-1.1,0.9-2,2-2h8c1.1,0,2,0.9,2,2l0,0C31,13.1,30.1,14,29,14z"/>
<g id="IOS_copy_9_">
	<path d="M40,50c-5.5,0-10-4.5-10-10s4.5-10,10-10s10,4.5,10,10S45.5,50,40,50z M40,32c-4.4,0-8,3.6-8,8s3.6,8,8,8s8-3.6,8-8
		S44.4,32,40,32z M45.8,36.7l-1.5-1.3l-5.4,6.3l-3.3-2.5l-1.2,1.6l4.7,3.6L45.8,36.7z"/>
</g>
<path d="M28.697,44H6V6h38v22.697c0.699,0.247,1.367,0.555,2,0.921V5c0-0.553-0.447-1-1-1H5C4.447,4,4,4.447,4,5v40
	c0,0.553,0.447,1,1,1h24.618C29.252,45.367,28.945,44.699,28.697,44z"/>
</svg>