<?xml version="1.0" encoding="iso-8859-1"?><!-- Generator: Adobe Illustrator 22.1.0, SVG Export Plug-In . SVG Version: 6.00 Build 0)  --><svg xmlns="http://www.w3.org/2000/svg" xmlns:xlink="http://www.w3.org/1999/xlink" viewBox="0 0 50 50" width="500px" height="500px"><path d="M6,2v46h38V2H6z M17,35h-4v-3h4V35z M17,30h-4v-4h4V30z M17,24h-4v-3h4V24z M30,26v4H19v-4H30z M19,24v-3h11v3H19z M30,32v3H19v-3H30z M37,42H25v-2h12V42z M37,35h-5v-3h5V35z M37,30h-5v-4h5V30z M37,24h-5v-3h5V24z M37,13H13v-2h24V13z"/></svg>