<?xml version="1.0" encoding="iso-8859-1"?><!-- Generator: Adobe Illustrator 20.1.0, SVG Export Plug-In . SVG Version: 6.00 Build 0)  --><svg xmlns="http://www.w3.org/2000/svg" xmlns:xlink="http://www.w3.org/1999/xlink" viewBox="0 0 50 50" width="500px" height="500px"><circle style="fill:none;stroke:#000000;stroke-width:2;stroke-miterlimit:10;" cx="6" cy="7" r="3"/><circle cx="12" cy="7" r="1"/><circle cx="16" cy="7" r="1"/><circle cx="20" cy="7" r="1"/><circle cx="24" cy="7" r="1"/><circle cx="28" cy="7" r="1"/><circle cx="32" cy="7" r="1"/><circle cx="36" cy="7" r="1"/><circle cx="40" cy="7" r="1"/><circle cx="44" cy="7" r="1"/><circle cx="44" cy="11" r="1"/><circle cx="44" cy="15" r="1"/><circle cx="44" cy="27" r="1"/><circle cx="44" cy="31" r="1"/><circle cx="40" cy="31" r="1"/><circle cx="36" cy="31" r="1"/><circle cx="32" cy="31" r="1"/><circle cx="28" cy="31" r="1"/><circle cx="20" cy="31" r="1"/><circle cx="16" cy="31" r="1"/><circle cx="12" cy="31" r="1"/><circle cx="8" cy="31" r="1"/><circle cx="20" cy="43" r="1"/><circle cx="16" cy="43" r="1"/><circle cx="12" cy="43" r="1"/><circle cx="8" cy="43" r="1"/><circle cx="36" cy="43" r="1"/><circle cx="32" cy="43" r="1"/><circle cx="28" cy="43" r="1"/><circle cx="24" cy="43" r="1"/><circle cx="4" cy="31" r="1"/><circle cx="4" cy="35" r="1"/><circle cx="4" cy="39" r="1"/><circle cx="4" cy="43" r="1"/><circle style="fill:none;stroke:#000000;stroke-width:2;stroke-miterlimit:10;" cx="44" cy="21" r="3"/><circle cx="24" cy="20" r="2"/><path style="fill:none;stroke:#000000;stroke-width:2;stroke-linejoin:round;stroke-miterlimit:10;" d="M19,20c0,2.761,5,11,5,11s5-8.239,5-11s-2.239-5-5-5S19,17.239,19,20z"/><circle style="fill:none;stroke:#000000;stroke-width:2;stroke-miterlimit:10;" cx="43" cy="43" r="3"/></svg>