<?xml version="1.0" encoding="iso-8859-1"?>
<!-- Generator: Adobe Illustrator 23.0.3, SVG Export Plug-In . SVG Version: 6.00 Build 0)  -->
<svg version="1.1" id="Layer_1" xmlns="http://www.w3.org/2000/svg" xmlns:xlink="http://www.w3.org/1999/xlink" x="0px" y="0px"
	 viewBox="0 0 50 50" style="enable-background:new 0 0 50 50;" xml:space="preserve">
<path d="M48.401,25.103l-4.12-5.527C43.512,18.614,41.933,17,40,17h-5c-1.542,0-3,1.458-3,3v22h2.09c0.478,2.833,2.942,5,5.91,5
	s5.431-2.167,5.91-5H47c1.542,0,3-1.458,3-3v-9.6C50,27.441,48.581,25.358,48.401,25.103z M38,19h2c0.789,0,1.806,0.682,2.698,1.798
	l4.082,5.476c0.301,0.429,1.026,1.661,1.188,2.726H39c-0.448,0-1-0.551-1-1V19z M40,45c-2.206,0-4-1.794-4-4s1.794-4,4-4
	s4,1.794,4,4S42.206,45,40,45z"/>
<path d="M19.414,3H3C1.346,3,0,4.346,0,6v33c0,1.654,1.346,3,3,3h4.09c0.478,2.833,2.942,5,5.91,5s5.431-2.167,5.91-5H30V13.586
	L19.414,3z M7,24h12v2H7V24z M13,45c-2.206,0-4-1.794-4-4s1.794-4,4-4s4,1.794,4,4S15.206,45,13,45z M24,31H7v-2h17V31z M24,21H7v-2
	h17V21z M19,14V5.414L27.586,14H19z"/>
</svg>