<?xml version="1.0" encoding="iso-8859-1"?>
<!-- Generator: Adobe Illustrator 23.0.3, SVG Export Plug-In . SVG Version: 6.00 Build 0)  -->
<svg version="1.1" id="Layer_1" xmlns="http://www.w3.org/2000/svg" xmlns:xlink="http://www.w3.org/1999/xlink" x="0px" y="0px"
	 viewBox="0 0 50 50" style="enable-background:new 0 0 50 50;" xml:space="preserve">
<path style="fill:none;stroke:#000000;stroke-width:2;stroke-linecap:round;stroke-linejoin:round;stroke-miterlimit:10;" d="
	M38.039,46.375c0.507,0.744,1.177,1.368,1.959,1.821C40.881,48.707,41.906,49,43,49c3.313,0,6-2.687,6-6s-2.687-6-6-6"/>
<path d="M33.265,35.197l-0.328,1.866l0.024,0.024c0.226-0.227,0.663-0.634,1.608-0.634c2.236,0,2.535,2.226,2.535,2.794
	c0,1.082-0.812,2.945-3.051,2.945c-2.357,0-3.068-1.607-3.052-2.594h1.667c0.039,0.375,0.311,1.232,1.35,1.232
	c1.117,0,1.421-1.074,1.421-1.583c0-1.435-1.155-1.538-1.421-1.538c-0.744,0-1.091,0.43-1.256,0.658h-1.502l0.81-4.542h4.589v1.374
	H33.265z"/>
<circle style="fill:none;stroke:#000000;stroke-width:2;stroke-miterlimit:10;" cx="34" cy="38" r="9"/>
<path d="M6,2v46h28c5.514,0,10-4.486,10-10c0-0.254,0-36,0-36H6z M14,12h22v2H14V12z M36,20v4h-4v-4H36z M30,20v4H19v-4H30z M17,36
	h-3v-4h3V36z M17,30h-3v-4h3V30z M17,24h-3v-4h3V24z M34,47c-4.971,0-9-4.029-9-9c0-0.69,0.089-1.356,0.238-2H19v-4h8.305
	c0.73-0.814,1.603-1.495,2.584-2H19v-4h11v3.947c0.629-0.313,1.298-0.556,2-0.716V26h4v3.231c4.007,0.91,7,4.487,7,8.769
	C43,42.971,38.971,47,34,47z"/>
</svg>