<?xml version="1.0" encoding="iso-8859-1"?><!-- Generator: Adobe Illustrator 19.1.1, SVG Export Plug-In . SVG Version: 6.00 Build 0)  --><svg xmlns="http://www.w3.org/2000/svg" xmlns:xlink="http://www.w3.org/1999/xlink" viewBox="0 0 50 50" width="50px" height="50px"><polygon style="fill:none;stroke:#000000;stroke-width:2;stroke-linecap:round;stroke-linejoin:round;stroke-miterlimit:10;" points="24.969,27 33.969,47 36.969,41 43.904,47 47,43.331 39.969,37.5 44.969,34 "/><path d="M48,17H2c-1.159,0-2,0.841-2,2v4c0,1.159,0.841,2,2,2h0.157l5.407,17.95C8.03,44.195,9.143,45,10.4,45H33l-8.031-18l20,7l2.862-9H48c1.159,0,2-0.841,2-2v-4C50,17.841,49.159,17,48,17z"/><path d="M16.385,15l8.52-8.586L33.557,15h2.84L25.604,4.29C25.417,4.104,25.164,4,24.9,4c-0.001,0-0.002,0-0.004,0c-0.265,0.001-0.519,0.107-0.706,0.296L13.568,15H16.385z"/></svg>