<?xml version="1.0" encoding="iso-8859-1"?><!-- Generator: Adobe Illustrator 21.0.2, SVG Export Plug-In . SVG Version: 6.00 Build 0)  --><svg xmlns="http://www.w3.org/2000/svg" xmlns:xlink="http://www.w3.org/1999/xlink" viewBox="0 0 50 50" width="50px" height="50px"><path d="M14.756,32.17L3.871,42.277c-1.132,1.051-1.165,2.832-0.073,3.925c1.092,1.092,2.873,1.059,3.925-0.073L17.83,35.244L14.756,32.17z"/><polygon points="26.607,21.133 16.222,30.808 19.192,33.778 28.867,23.393 "/><g><rect x="27.05" y="13.633" transform="matrix(0.7071 -0.7071 0.7071 0.7071 -2.3553 28.3137)" width="11.899" height="6.734"/><path d="M25.174,17.588l8.414-8.414L30.6,6.186c0.581-0.783,0.524-1.89-0.186-2.601c-0.781-0.781-2.047-0.781-2.828,0c-0.492,0.492-7.508,7.508-8,8c-0.781,0.781-0.781,2.047,0,2.828c0.71,0.71,1.818,0.767,2.6,0.186L25.174,17.588z"/><path d="M46.414,19.586c-0.71-0.71-1.818-0.767-2.6-0.186l-2.988-2.988l-8.414,8.414l2.988,2.988c-0.581,0.783-0.524,1.89,0.186,2.6c0.781,0.781,2.047,0.781,2.828,0c0.492-0.492,7.508-7.508,8-8C47.195,21.633,47.195,20.367,46.414,19.586z"/></g></svg>