<?xml version="1.0" encoding="utf-8"?><!-- Generator: Adobe Illustrator 18.1.1, SVG Export Plug-In . SVG Version: 6.00 Build 0)  --><svg xmlns="http://www.w3.org/2000/svg" xmlns:xlink="http://www.w3.org/1999/xlink" viewBox="0 0 50 50" width="500px" height="500px"><g><circle fill="none" stroke="#000000" stroke-width="2" stroke-miterlimit="10" cx="13" cy="39" r="5"/></g><g><circle fill="none" stroke="#000000" stroke-width="2" stroke-miterlimit="10" cx="40" cy="39" r="5"/></g><path fill="none" stroke="#000000" stroke-width="2" stroke-miterlimit="10" d="M45,39h2c1,0,2-1,2-2c0,0,0-7.9,0-9.6c0-1.7-1.4-3.7-1.4-3.7l-4.1-5.5c-0.8-1-2.1-2.2-3.5-2.2h-8c-1,0-2,1-2,2v21h5 M49,28c0,0-9,0-10,0s-2-1-2-2c0-0.6,0-8.5,0-10"/><path fill="none" stroke="#000000" stroke-width="2" stroke-miterlimit="10" d="M18,39h12V10.9c0-1-0.9-1.9-1.9-1.9H2.8C1.8,9,1,9.8,1,10.8V37c0,1.1,0.9,2,2,2h5"/><polyline fill="none" stroke="#000000" stroke-width="2" stroke-linecap="square" stroke-miterlimit="10" points="9,21 14.2,25.6 23,16 "/></svg>