<?xml version="1.0" encoding="iso-8859-1"?><!-- Generator: Adobe Illustrator 19.1.1, SVG Export Plug-In . SVG Version: 6.00 Build 0)  --><svg xmlns="http://www.w3.org/2000/svg" xmlns:xlink="http://www.w3.org/1999/xlink" viewBox="0 0 50 50" width="50px" height="50px"><line style="fill:none;stroke:#000000;stroke-width:2;stroke-linecap:round;stroke-linejoin:round;stroke-miterlimit:10;" x1="16" y1="46" x2="34" y2="46"/><path d="M18.653,42l-0.639,3.835c-0.049,0.29,0.033,0.586,0.224,0.811C18.427,46.871,18.706,47,19,47h12c0.294,0,0.573-0.129,0.763-0.354c0.19-0.225,0.272-0.521,0.224-0.811L31.347,42H18.653z"/><path d="M35.5,24H31v1H19v-1h-4.5c-0.828,0-1.5,0.672-1.5,1.5s0.672,1.5,1.5,1.5h21c0.828,0,1.5-0.672,1.5-1.5S36.328,24,35.5,24z"/><path d="M25,3c-6.617,0-12,5.383-12,12s5.383,12,12,12s12-5.383,12-12S31.617,3,25,3z M25.231,14.073C26.822,14.521,29,15.133,29,17.688c0.003,0.102,0.007,1.259-0.91,2.202c-0.526,0.541-1.229,0.881-2.09,1.027V23h-2v-2.109c-0.74-0.154-1.372-0.477-1.871-0.987c-1.132-1.156-1.133-2.747-1.129-2.925L22,17l1,0.013c0,0.009,0.002,0.934,0.566,1.5C23.893,18.841,24.361,19,25,19c0.531,0,1.25-0.088,1.657-0.506C26.985,18.157,27,17.719,27,17.714c0-0.93-0.521-1.212-2.311-1.716C23.133,15.56,21,14.96,21,12.497c0-0.951,0.326-1.774,0.944-2.379C22.571,9.505,23.369,9.234,24,9.109V7h2v2.174c1.373,0.388,3,1.466,3,3.826h-2c0-1.82-1.852-1.989-2.063-2.002c-0.001,0-0.003,0-0.004,0c-0.259,0-1.131,0.095-1.595,0.554C23.193,11.696,23,11.951,23,12.497C23,13.32,23.503,13.586,25.231,14.073z"/><path d="M45,11h-6.587c0.193,0.647,0.33,1.317,0.428,2H45c0.552,0,1,0.449,1,1v20H4V14c0-0.551,0.448-1,1-1h6.159c0.098-0.683,0.236-1.353,0.428-2H5c-1.654,0-3,1.346-3,3v23c0,1.654,1.346,3,3,3h40c1.654,0,3-1.346,3-3V14C48,12.346,46.654,11,45,11z"/></svg>