<?xml version="1.0" encoding="iso-8859-1"?><!-- Generator: Adobe Illustrator 19.2.1, SVG Export Plug-In . SVG Version: 6.00 Build 0)  --><svg xmlns="http://www.w3.org/2000/svg" xmlns:xlink="http://www.w3.org/1999/xlink" viewBox="0 0 50 50" width="500px" height="500px"><path d="M44,12V9c0-2.206-1.794-4-4-4H6C3.794,5,2,6.794,2,9v3H44z"/><path d="M2,17v14c0,2.206,1.794,4,4,4h34c2.206,0,4-1.794,4-4V17H2z M25,22H9v-2h16V22z"/><path d="M47.938,34.961L46,24.059V31c0,3.308-2.692,6-6,6H6c-0.122,0-0.241-0.011-0.361-0.018l0.947,5.329c0.187,1.053,0.772,1.969,1.648,2.58c0.679,0.475,1.47,0.722,2.281,0.722c0.234,0,0.472-0.021,0.708-0.063l33.476-5.95c1.052-0.187,1.969-0.771,2.58-1.647S48.125,36.013,47.938,34.961z"/></svg>