<?xml version="1.0" encoding="iso-8859-1"?>
<!-- Generator: Adobe Illustrator 23.0.3, SVG Export Plug-In . SVG Version: 6.00 Build 0)  -->
<svg version="1.1" id="Layer_1" xmlns="http://www.w3.org/2000/svg" xmlns:xlink="http://www.w3.org/1999/xlink" x="0px" y="0px"
	 viewBox="0 0 50 50" style="enable-background:new 0 0 50 50;" xml:space="preserve">
<g>
	<polygon points="11,33.18 15,29.18 15,11 11,11 	"/>
	<polygon points="4,40.18 9,35.18 9,11 4,11 	"/>
	<polygon points="21,34.494 16.494,39 21,39 	"/>
	<polygon points="17,27.18 21,23.18 21,11 17,11 	"/>
	<path d="M43.007,4.001L4.001,43.007c0.004,1.547,1.188,2.808,2.696,2.962L45.969,6.697C45.815,5.189,44.554,4.004,43.007,4.001z"/>
	<polygon points="29,11 29,15.18 33.18,11 	"/>
	<polygon points="23,21.18 27,17.18 27,11 23,11 	"/>
	<polygon points="46,9.494 41,14.494 41,39 46,39 	"/>
	<path d="M35.18,9l5-5H7C5.346,4,4,5.346,4,7v2H35.18z"/>
	<path d="M14.494,41l-5,5H43c1.654,0,3-1.346,3-3v-2H14.494z"/>
	<polygon points="39,16.494 35,20.494 35,39 39,39 	"/>
	<polygon points="27,28.494 23,32.494 23,39 27,39 	"/>
	<polygon points="33,22.494 29,26.494 29,39 33,39 	"/>
</g>
</svg>