<?xml version="1.0" encoding="utf-8"?><!-- Generator: Adobe Illustrator 15.0.0, SVG Export Plug-In . SVG Version: 6.00 Build 0)  --><!DOCTYPE svg PUBLIC "-//W3C//DTD SVG 1.1//EN" "http://www.w3.org/Graphics/SVG/1.1/DTD/svg11.dtd"><svg xmlns="http://www.w3.org/2000/svg" xmlns:xlink="http://www.w3.org/1999/xlink" viewBox="0 0 50 50" width="50px" height="50px"><path d="M45,7H5C4.448,7,4,7.448,4,8v34c0,0.553,0.448,1,1,1h40c0.553,0,1-0.447,1-1V8C46,7.448,45.553,7,45,7z M34,31h-1v3h-2v-3h-1l2-3L34,31z M21,17c-1.1,0-2-0.9-2-2s0.9-2,2-2h8c1.1,0,2,0.9,2,2s-0.9,2-2,2H21z M40,37H30v-2h10V37z M39,31v3h-2v-3h-1l2-3l2,3H39z"/></svg>