<svg xmlns="http://www.w3.org/2000/svg"  viewBox="0 0 50 50" width="50px" height="50px"><path d="M 5 6 C 4.448 6 4 6.448 4 7 L 4 43 C 4 43.552 4.448 44 5 44 L 45 44 C 45.552 44 46 43.552 46 43 L 46 37 L 46 32.4375 L 46 32.25 L 44.125 34.125 C 43.559 34.692 42.801 35 42 35 C 41.199 35 40.441 34.691 39.875 34.125 C 39.309 33.559 39 32.801 39 32 C 39 31.199 39.309 30.441 39.875 29.875 L 41.75 28 L 29 28 C 27.346 28 26 26.654 26 25 C 26 23.346 27.346 22 29 22 L 41.75 22 L 39.875 20.125 C 39.309 19.559 39 18.801 39 18 C 39 17.198 39.309 16.44 39.875 15.875 C 40.441 15.308 41.199 15 42 15 C 42.801 15 43.559 15.308 44.125 15.875 L 46 17.75 L 46 7 C 46 6.448 45.552 6 45 6 L 5 6 z M 21.5 12 L 28.5 12 C 29.328 12 30 12.672 30 13.5 C 30 14.328 29.328 15 28.5 15 L 21.5 15 C 20.672 15 20 14.328 20 13.5 C 20 12.672 20.672 12 21.5 12 z M 42 17 C 41.74425 17 41.47675 17.08575 41.28125 17.28125 C 40.89025 17.67125 40.89025 18.32775 41.28125 18.71875 L 46.59375 24 L 29 24 C 28.447 24 28 24.448 28 25 C 28 25.552 28.447 26 29 26 L 46.59375 26 L 41.28125 31.28125 C 40.89025 31.67225 40.89025 32.32775 41.28125 32.71875 C 41.47625 32.91375 41.744 33 42 33 C 42.256 33 42.52375 32.91375 42.71875 32.71875 L 49.71875 25.71875 C 50.10975 25.32775 50.10975 24.67225 49.71875 24.28125 L 42.71875 17.28125 C 42.52325 17.08575 42.25575 17 42 17 z"/></svg>