<?xml version="1.0" encoding="iso-8859-1"?><!-- Generator: Adobe Illustrator 21.0.0, SVG Export Plug-In . SVG Version: 6.00 Build 0)  --><svg xmlns="http://www.w3.org/2000/svg" xmlns:xlink="http://www.w3.org/1999/xlink" viewBox="0 0 50 50" width="500px" height="500px"><path style="fill:none;stroke:#000000;stroke-width:2;stroke-linejoin:round;stroke-miterlimit:10;" d="M25.266,1.215c-0.282-0.282-0.736-0.287-1.012-0.01L1.204,24.253c-0.277,0.277-0.272,0.73,0.01,1.012l23.519,23.519c0.282,0.282,0.736,0.287,1.012,0.01l23.049-23.049c0.277-0.277,0.272-0.73-0.01-1.012L25.266,1.215z"/><path d="M15.848,27.332h-4.015L10.962,30H8.507l3.968-11h2.812l3.976,11h-2.543L15.848,27.332z M12.348,25.609h2.985l-1.465-4.505h-0.056L12.348,25.609z"/><path d="M34.205,30h-2.392V19h4.72c2.63,0,4.134,1.334,4.134,3.507c0,1.41-0.76,2.63-2.074,3.126L41,30h-2.708l-2.131-4.025h-1.956V30z M34.205,24.306h2.099c1.204,0,1.909-0.664,1.909-1.754c0-1.067-0.745-1.754-1.933-1.754h-2.075V24.306z"/><path d="M24.403,19c3.429,0,5.448,1.966,5.448,5.458S27.832,30,24.403,30H20V19H24.403z M22.392,28.094h1.727c2.139,0,3.294-1.25,3.294-3.629c0-2.301-1.188-3.567-3.294-3.567h-1.727V28.094z"/></svg>