<?xml version="1.0" encoding="iso-8859-1"?>
<!-- Generator: Adobe Illustrator 23.0.3, SVG Export Plug-In . SVG Version: 6.00 Build 0)  -->
<svg version="1.1" id="Layer_1" xmlns="http://www.w3.org/2000/svg" xmlns:xlink="http://www.w3.org/1999/xlink" x="0px" y="0px"
	 viewBox="0 0 50 50" style="enable-background:new 0 0 50 50;" xml:space="preserve">
<polyline style="fill:none;stroke:#000000;stroke-width:2;stroke-linejoin:round;stroke-miterlimit:10;" points="30,6 39,6 39,27 
	"/>
<path d="M27.593,1.194c-0.256-0.188-0.586-0.246-0.891-0.148l-16,5C10.284,6.176,10,6.563,10,7v37c0,0.459,0.312,0.858,0.758,0.97
	l16,4C26.838,48.99,26.919,49,27,49c0.221,0,0.437-0.073,0.615-0.212C27.858,48.599,28,48.308,28,48V2
	C28,1.682,27.849,1.383,27.593,1.194z M24,27c-0.552,0-1-0.672-1-1.5s0.448-1.5,1-1.5s1,0.672,1,1.5S24.552,27,24,27z"/>
<path d="M47,29H31c-0.553,0-1,0.447-1,1v14c0,0.553,0.447,1,1,1h16c0.553,0,1-0.447,1-1V30C48,29.447,47.553,29,47,29z M41,35h-4
	c-0.553,0-1-0.447-1-1s0.447-1,1-1h4c0.553,0,1,0.447,1,1S41.553,35,41,35z"/>
</svg>