<?xml version="1.0" encoding="iso-8859-1"?>
<!-- Generator: Adobe Illustrator 23.0.3, SVG Export Plug-In . SVG Version: 6.00 Build 0)  -->
<svg version="1.1" id="Layer_1" xmlns="http://www.w3.org/2000/svg" xmlns:xlink="http://www.w3.org/1999/xlink" x="0px" y="0px"
	 viewBox="0 0 50 50" style="enable-background:new 0 0 50 50;" xml:space="preserve">
<path style="fill:none;stroke:#000000;stroke-width:2;stroke-linecap:round;stroke-miterlimit:10;" d="M18,19.297
	C18.825,20.327,20.078,21,21.5,21s2.675-0.673,3.5-1.703"/>
<path style="fill:none;stroke:#000000;stroke-width:2;stroke-linecap:round;stroke-miterlimit:10;" d="M25,19.297
	C25.825,20.327,27.078,21,28.5,21s2.675-0.673,3.5-1.703"/>
<line style="fill:none;stroke:#000000;stroke-width:2;stroke-linecap:round;stroke-miterlimit:10;" x1="32" y1="19.25" x2="32" y2="9"/>
<line style="fill:none;stroke:#000000;stroke-width:2;stroke-linecap:round;stroke-miterlimit:10;" x1="25" y1="19.25" x2="25" y2="9"/>
<line style="fill:none;stroke:#000000;stroke-width:2;stroke-miterlimit:10;" x1="18" y1="19.25" x2="18" y2="9"/>
<path d="M37.994,8.795c0-0.011,0.006-0.02,0.006-0.031V6c0-1.654-1.346-3-3-3H15c-1.654,0-3,1.346-3,3v2.811
	c-0.361,0.929-2,5.281-2,7.689c0,3.393,1.724,5.5,4.5,5.5c1.663,0,3.223-0.757,4.28-2.078c0.346-0.431,0.276-1.06-0.155-1.405
	c-0.432-0.346-1.06-0.275-1.405,0.155C16.543,19.516,15.552,20,14.5,20c-2.066,0-2.5-1.903-2.5-3.5c0-1.639,1.06-4.821,1.687-6.5
	h22.626C36.94,11.679,38,14.861,38,16.5c0,1.597-0.434,3.5-2.5,3.5c-1.053,0-2.044-0.484-2.719-1.328
	c-0.345-0.432-0.975-0.501-1.405-0.156c-0.432,0.345-0.501,0.974-0.156,1.405C32.276,21.243,33.836,22,35.5,22
	c2.776,0,4.5-2.107,4.5-5.5C40,14.079,38.342,9.691,37.994,8.795z"/>
<g id="IOS_copy_2_">
	<path d="M43.5,30c-1.7,0-3.3,0.7-4.5,1.8c-1.2-1.1-2.8-1.8-4.5-1.8c-3.6,0-6.5,2.9-6.5,6.4c0,5.5,5,8.8,8.2,10.9
		c0.9,0.6,1.6,1,2.1,1.5l0.6,0.5l0.6-0.5c0.5-0.4,1.3-0.9,2.1-1.5C45,45.1,50,41.9,50,36.4C50,32.9,47.1,30,43.5,30z"/>
</g>
<g>
	<path d="M29.01,44H22c-0.553,0-1-0.447-1-1s0.447-1,1-1h5.575c-0.539-0.915-0.983-1.906-1.253-3H14V20.588c0-0.553-2-0.553-2,0V44
		c0,1.654,1.346,3,3,3h17.253C31.136,46.154,30.005,45.157,29.01,44z"/>
	<path d="M38,28.769v-8.005c0-0.553-2-0.553-2,0v7.389C36.687,28.279,37.359,28.478,38,28.769z"/>
</g>
</svg>