<?xml version="1.0" encoding="iso-8859-1"?>
<!-- Generator: Adobe Illustrator 23.0.3, SVG Export Plug-In . SVG Version: 6.00 Build 0)  -->
<svg version="1.1" id="Layer_1" xmlns="http://www.w3.org/2000/svg" xmlns:xlink="http://www.w3.org/1999/xlink" x="0px" y="0px"
	 viewBox="0 0 50 50" style="enable-background:new 0 0 50 50;" xml:space="preserve">
<line style="fill:none;stroke:#000000;stroke-width:2;stroke-linejoin:round;stroke-miterlimit:10;" x1="3.797" y1="41.797" x2="40.757" y2="4.837"/>
<line style="fill:none;stroke:#000000;stroke-width:2;stroke-linejoin:round;stroke-miterlimit:10;" x1="46.04" y1="8.04" x2="9.04" y2="45.04"/>
<line style="fill:none;stroke:#000000;stroke-width:2;stroke-linejoin:round;stroke-miterlimit:10;" x1="10" y1="11" x2="10" y2="36"/>
<line style="fill:none;stroke:#000000;stroke-width:2;stroke-linejoin:round;stroke-miterlimit:10;" x1="16" y1="11" x2="16" y2="30"/>
<line style="fill:none;stroke:#000000;stroke-width:2;stroke-linejoin:round;stroke-miterlimit:10;" x1="22" y1="32" x2="22" y2="40"/>
<line style="fill:none;stroke:#000000;stroke-width:2;stroke-linejoin:round;stroke-miterlimit:10;" x1="22" y1="11" x2="22" y2="24"/>
<line style="fill:none;stroke:#000000;stroke-width:2;stroke-linejoin:round;stroke-miterlimit:10;" x1="28" y1="11" x2="28" y2="18"/>
<line style="fill:none;stroke:#000000;stroke-width:2;stroke-linejoin:round;stroke-miterlimit:10;" x1="5" y1="11" x2="35" y2="11"/>
<g id="IOS_copy_21_">
	<path d="M41.1,50H37l-0.5-3.2c-0.4-0.1-0.7-0.2-1.1-0.4l-2.7,1.8l-3-3l1.8-2.7c-0.2-0.3-0.3-0.7-0.4-1L28,41v-4.2l3.1-0.5
		c0.1-0.4,0.3-0.7,0.4-1.1l-1.8-2.5l3-3l2.7,1.9c0.3-0.2,0.7-0.3,1-0.4L37,28h4.2l0.5,3.2c0.3,0.1,0.7,0.2,1,0.4l2.6-1.9l2.9,2.9
		l-1.8,2.7c0.2,0.3,0.3,0.7,0.4,1l3.2,0.5V41l-3.1,0.6c-0.1,0.3-0.2,0.7-0.4,1.1l1.9,2.6l-3,3l-2.7-1.8c-0.4,0.2-0.7,0.3-1,0.4
		L41.1,50z M38.6,48h0.8l0.5-2.8l0.6-0.2c0.6-0.2,1.2-0.4,1.8-0.7l0.5-0.3l2.3,1.6l0.6-0.6L44,42.7l0.4-0.6c0.3-0.5,0.5-1.1,0.7-1.7
		l0.2-0.6l2.7-0.6v-0.8L45.2,38L45,37.4c-0.2-0.6-0.4-1.2-0.7-1.8L44,35.1l1.6-2.3l-0.5-0.5L42.8,34l-0.6-0.4
		c-0.5-0.3-1.1-0.5-1.7-0.7l-0.6-0.2L39.5,30h-0.8l-0.5,2.8l-0.6,0.1c-0.6,0.2-1.2,0.5-1.9,0.8l-0.5,0.2l-2.3-1.6l-0.6,0.6l1.6,2.3
		l-0.4,0.5c-0.3,0.5-0.5,1.1-0.6,1.6L32.8,38L30,38.5v0.8l2.7,0.5l0.2,0.6c0.2,0.5,0.4,1.2,0.7,1.8l0.3,0.5L32.3,45l0.6,0.6l2.4-1.6
		l0.6,0.4c0.5,0.3,1.1,0.5,1.7,0.7l0.6,0.2L38.6,48z M39,42.9c-2.2,0-4-1.8-4-4c0-2.2,1.8-4,4-4s4,1.8,4,4
		C43,41.2,41.2,42.9,39,42.9z M39,37c-1.1,0-2,0.9-2,2s0.9,2,2,2s2-0.9,2-2C41,37.8,40.1,37,39,37z"/>
</g>
<g>
	<path d="M33,27.474c0.638-0.333,1.305-0.616,2-0.841V20h-2V27.474z"/>
	<path d="M27,44H6c-0.552,0-1-0.448-1-1V7c0-0.552,0.448-1,1-1h38c0.552,0,1,0.448,1,1v20.474c0.708,0.37,1.376,0.804,2,1.293V7
		c0-1.654-1.346-3-3-3H6C4.346,4,3,5.346,3,7v36c0,1.654,1.346,3,3,3h22.057C27.651,45.367,27.292,44.702,27,44z"/>
	<path d="M39,26c0.682,0,1.346,0.068,2,0.169V14h-2V26z"/>
	<path d="M15,38v2h11.051C26.025,39.669,26,39.338,26,39s0.025-0.669,0.051-1H15z"/>
	<path d="M27,33.999c0.502-1.203,1.179-2.315,2-3.303V26h-2V33.999z"/>
</g>
</svg>