<?xml version="1.0" encoding="iso-8859-1"?><!-- Generator: Adobe Illustrator 21.1.0, SVG Export Plug-In . SVG Version: 6.00 Build 0)  --><svg xmlns="http://www.w3.org/2000/svg" xmlns:xlink="http://www.w3.org/1999/xlink" viewBox="0 0 50 50" width="50px" height="50px"><path d="M12,20v26h26V20H12z M36,34c0,0.55-0.45,1-1,1s-1-0.45-1-1v-4c0-0.55,0.45-1,1-1s1,0.45,1,1V34z"/><path d="M47,14v31c0,0.55-0.45,1-1,1h-6V19c0-0.55-0.45-1-1-1H11c-0.55,0-1,0.45-1,1v27H4c-0.55,0-1-0.45-1-1V14c0-0.37,0.21-0.71,0.54-0.89l21-11c0.29-0.15,0.63-0.15,0.92,0l21,11C46.79,13.29,47,13.63,47,14z"/></svg>