<?xml version="1.0" encoding="iso-8859-1"?><!-- Generator: Adobe Illustrator 20.0.0, SVG Export Plug-In . SVG Version: 6.00 Build 0)  --><svg xmlns="http://www.w3.org/2000/svg" xmlns:xlink="http://www.w3.org/1999/xlink" viewBox="0 0 50 50" width="500px" height="500px"><rect x="3" y="32" width="3" height="12"/><rect x="12" y="32" width="3" height="12"/><rect x="8" y="32" width="2" height="12"/><rect x="17" y="32" width="2" height="12"/><path style="fill:none;stroke:#000000;stroke-width:2;stroke-linecap:round;stroke-linejoin:round;stroke-miterlimit:10;" d="M31.484,22.343L32,26.684c0,0-2.352,2.723-3,3.316l1.052,3.25c0,0,5.123,1.008,5.956,1.135c2.803-0.773,3.01-3.719,2.992-6.56l-7-1.11 M32.646,33.764C32.839,35.692,33,37.332,33,37.432c0,1.207-2.923,2.186-2.923,4.612c0,1.787,3.547,4.95,5.104,4.95c0.838,0,5.228,0,7.15,0c1.924,0,3.669-3.637,3.669-8.592c0-5.129-3.092-12.306-3.092-19.299c0-2.051,0.513-3.911,1.09-4.936S45,13.022,45,11.368c0-0.718,0-3.293,0-5.089s-1.583-2.06-2.028-2.115C42.781,4.14,34.446,3.01,30.918,3.01c-2.547,0-3.928,0.426-4.552,0.577C25.741,3.738,12.307,8.746,9.952,9.666c-2.355,0.919-2.109,1.793-1.57,4.215c0,0,0.62,3.484,0.973,4.697s0.807,1.801,1.801,2.173C20.934,24.344,27.159,24,29,24l15.459-10.564"/><path style="fill:none;stroke:#000000;stroke-width:2;stroke-linecap:round;stroke-linejoin:round;stroke-miterlimit:10;" d="M8.375,11.167c0,0,11.589,2.159,19.234,3.366l1.367,9.368"/><polyline style="fill:none;stroke:#000000;stroke-width:2;stroke-linecap:round;stroke-linejoin:round;stroke-miterlimit:10;" points="29,30 35.416,31.133 39,27.825 "/></svg>