<?xml version="1.0" encoding="utf-8"?><!-- Generator: Adobe Illustrator 15.0.0, SVG Export Plug-In . SVG Version: 6.00 Build 0)  --><!DOCTYPE svg PUBLIC "-//W3C//DTD SVG 1.1//EN" "http://www.w3.org/Graphics/SVG/1.1/DTD/svg11.dtd"><svg xmlns="http://www.w3.org/2000/svg" xmlns:xlink="http://www.w3.org/1999/xlink" viewBox="0 0 50 50" width="50px" height="50px"><g><path d="M17,37c-6.617,0-12-5.383-12-12c0-6.617,5.383-12,12-12s12,5.383,12,12C29,31.617,23.617,37,17,37z"/></g><g><path fill="none" stroke="#000000" stroke-width="2" stroke-linecap="round" stroke-linejoin="round" stroke-miterlimit="10" d="M24.998,17.453C27.003,15.327,29.848,14,33,14c6.075,0,11,4.925,11,11s-4.925,11-11,11c-3.152,0-5.996-1.327-8.002-3.453"/></g><path fill="none" stroke="#000000" stroke-width="2" stroke-linecap="round" stroke-linejoin="round" stroke-miterlimit="10" d="M49,38c0,2.209-1.791,4-4,4H5c-2.209,0-4-1.791-4-4V12c0-2.209,1.791-4,4-4h40c2.209,0,4,1.791,4,4V38z"/></svg>