<?xml version="1.0" encoding="utf-8"?><!-- Generator: Adobe Illustrator 15.0.0, SVG Export Plug-In . SVG Version: 6.00 Build 0)  --><!DOCTYPE svg PUBLIC "-//W3C//DTD SVG 1.1//EN" "http://www.w3.org/Graphics/SVG/1.1/DTD/svg11.dtd"><svg xmlns="http://www.w3.org/2000/svg" xmlns:xlink="http://www.w3.org/1999/xlink" viewBox="0 0 50 50" width="50px" height="50px"><path d="M48,15H2c-1.159,0-2,0.841-2,2v4c0,1.159,0.841,2,2,2h0.157l5.407,17.95C8.03,42.195,9.143,43,10.4,43h29c1.351,0,2.557-0.907,2.854-2.103L47.835,23H48c1.159,0,2-0.841,2-2v-4C50,15.841,49.159,15,48,15z M23,35.414L16.586,29L18,27.586l5,5l10-10L34.414,24L23,35.414z"/><g><path d="M16.336,13.05l8.569-8.636l8.702,8.636h2.839L25.604,2.29C25.417,2.104,25.164,2,24.9,2c-0.256-0.018-0.522,0.106-0.71,0.295L13.519,13.05H16.336z"/></g></svg>