<?xml version="1.0" encoding="iso-8859-1"?>
<!-- Generator: Adobe Illustrator 22.1.0, SVG Export Plug-In . SVG Version: 6.00 Build 0)  -->
<svg version="1.1" id="Layer_1" xmlns="http://www.w3.org/2000/svg" xmlns:xlink="http://www.w3.org/1999/xlink" x="0px" y="0px"
	 viewBox="0 0 50 50" style="enable-background:new 0 0 50 50;" xml:space="preserve">
<polygon style="fill:none;stroke:#000000;stroke-width:2;stroke-linejoin:round;stroke-miterlimit:10;" points="20,35 25,26 6,19 
	1,27 "/>
<path d="M20,34.928L5,28.612v12.441c0,0.419,0.261,0.794,0.654,0.938L24,48.75V27.728L20,34.928z"/>
<polygon style="fill:none;stroke:#000000;stroke-width:2;stroke-linejoin:round;stroke-miterlimit:10;" points="49,27 44,19 25,26 
	30,35 "/>
<path d="M30,34.928l-4-7.2V48.75l18.346-6.759C44.739,41.846,45,41.471,45,41.053V28.612L30,34.928z"/>
<path style="fill:none;stroke:#000000;stroke-width:2;stroke-miterlimit:10;" d="M40.837,20.165C40.933,19.456,41,18.736,41,18
	c0-8.837-7.163-16-16-16S9,9.163,9,18c0,0.736,0.067,1.456,0.163,2.165"/>
<path d="M19,23.717v-3.789c0-0.334-0.167-0.646-0.445-0.832L16,17.392v-2.684l3.242-0.812c0.224-0.056,0.42-0.186,0.558-0.37l3-4
	c0.13-0.173,0.2-0.383,0.2-0.6V2.138C15.11,3.124,9,9.842,9,18c0,0.71,0.064,1.404,0.155,2.09L19,23.717z"/>
<path d="M30.261,23.989l10.584-3.899C40.936,19.404,41,18.71,41,18c0-6.186-3.517-11.542-8.655-14.204l-3.99,3.368
	C28.13,7.353,28,7.633,28,7.928v4c0,0.552,0.448,1,1,1h4l3,3l-3,1h-4c-0.552,0-1,0.448-1,1v3.001c0,0.235,0.083,0.462,0.233,0.642
	L30.261,23.989z"/>
<line style="fill:none;stroke:#000000;stroke-width:2;stroke-linejoin:round;stroke-miterlimit:10;" x1="9.006" y1="17.892" x2="6" y2="19"/>
<line style="fill:none;stroke:#000000;stroke-width:2;stroke-linejoin:round;stroke-miterlimit:10;" x1="44" y1="19" x2="41" y2="17.895"/>
</svg>