<?xml version="1.0" encoding="iso-8859-1"?>
<!-- Generator: Adobe Illustrator 23.0.3, SVG Export Plug-In . SVG Version: 6.00 Build 0)  -->
<svg version="1.1" id="Layer_1" xmlns="http://www.w3.org/2000/svg" xmlns:xlink="http://www.w3.org/1999/xlink" x="0px" y="0px"
	 viewBox="0 0 50 50" style="enable-background:new 0 0 50 50;" xml:space="preserve">
<path style="fill:none;stroke:#000000;stroke-width:2;stroke-linejoin:round;stroke-miterlimit:10;" d="M29,14h-8c-1.1,0-2-0.9-2-2
	l0,0c0-1.1,0.9-2,2-2h8c1.1,0,2,0.9,2,2l0,0C31,13.1,30.1,14,29,14z"/>
<path d="M49.6,40.4c-0.2-0.3-6.2-8.4-13.8-8.4c-7.6,0-13.6,8.1-13.8,8.4L21.6,41l0.4,0.6c0.2,0.3,6.2,8.4,13.8,8.4
	c7.6,0,13.6-8.1,13.8-8.4L50,41L49.6,40.4z M35.8,48c-5.5,0-10.2-5.2-11.7-7c1.4-1.8,6.2-7,11.7-7s10.3,5.2,11.7,7
	C46.1,42.8,41.3,48,35.8,48z"/>
<path d="M36,35c-3.3,0-6,2.7-6,6s2.7,6,6,6s6-2.7,6-6S39.3,35,36,35z M36,45c-2.2,0-4-1.8-4-4s1.8-4,4-4s4,1.8,4,4S38.2,45,36,45z"
	/>
<circle cx="36" cy="41" r="2"/>
<path d="M21.363,44H6V6h38v26.564c0.709,0.439,1.379,0.902,2,1.383V5c0-0.553-0.447-1-1-1H5C4.447,4,4,4.447,4,5v40
	c0,0.553,0.447,1,1,1h18.241C22.47,45.249,21.838,44.558,21.363,44z"/>
</svg>