<?xml version="1.0" encoding="iso-8859-1"?>
<!-- Generator: Adobe Illustrator 23.0.3, SVG Export Plug-In . SVG Version: 6.00 Build 0)  -->
<svg version="1.1" id="Layer_1" xmlns="http://www.w3.org/2000/svg" xmlns:xlink="http://www.w3.org/1999/xlink" x="0px" y="0px"
	 viewBox="0 0 50 50" style="enable-background:new 0 0 50 50;" xml:space="preserve">
<path style="fill:none;stroke:#000000;stroke-width:2;stroke-linecap:round;stroke-miterlimit:10;" d="M5,20.912V45h40V20.806"/>
<path style="fill:none;stroke:#000000;stroke-width:2;stroke-linecap:round;stroke-miterlimit:10;" d="M5,11V7c0-1.105,0.895-2,2-2
	h36c1.105,0,2,0.895,2,2v4"/>
<path style="fill:none;stroke:#000000;stroke-width:2;stroke-linecap:round;stroke-miterlimit:10;" d="M45,11H5c0,0-1,4.015-1,6.5
	S5.015,22,7.5,22c1.422,0,2.675-0.673,3.5-1.703C11.825,21.327,13.078,22,14.5,22s2.675-0.673,3.5-1.703
	C18.825,21.327,20.078,22,21.5,22s2.675-0.673,3.5-1.703C25.825,21.327,27.078,22,28.5,22s2.676-0.673,3.5-1.703
	C32.824,21.327,34.078,22,35.5,22s2.676-0.673,3.5-1.703C39.824,21.327,41.078,22,42.5,22c2.485,0,3.5-2.015,3.5-4.5S45,11,45,11z"
	/>
<line style="fill:none;stroke:#000000;stroke-width:2;stroke-linecap:round;stroke-miterlimit:10;" x1="39" y1="20" x2="39" y2="11"/>
<line style="fill:none;stroke:#000000;stroke-width:2;stroke-linecap:round;stroke-miterlimit:10;" x1="32" y1="20" x2="32" y2="11"/>
<line style="fill:none;stroke:#000000;stroke-width:2;stroke-linecap:round;stroke-miterlimit:10;" x1="25" y1="20" x2="25" y2="11"/>
<line style="fill:none;stroke:#000000;stroke-width:2;stroke-linecap:round;stroke-miterlimit:10;" x1="18" y1="20" x2="18" y2="11"/>
<line style="fill:none;stroke:#000000;stroke-width:2;stroke-linecap:round;stroke-miterlimit:10;" x1="11" y1="20" x2="11" y2="11"/>
<polyline style="fill:none;stroke:#000000;stroke-width:2;stroke-linecap:round;stroke-linejoin:round;stroke-miterlimit:10;" points="
	11,45 11,27 39,27 39,45 "/>
<line style="fill:none;stroke:#000000;stroke-width:2;stroke-linecap:round;stroke-linejoin:round;stroke-miterlimit:10;" x1="25" y1="27" x2="25" y2="45"/>
<circle cx="29" cy="36" r="1"/>
<circle cx="21" cy="36" r="1"/>
<circle cx="8" cy="8" r="1"/>
<circle cx="11" cy="8" r="1"/>
<circle cx="14" cy="8" r="1"/>
</svg>