<?xml version="1.0" encoding="utf-8"?><!-- Generator: Adobe Illustrator 15.0.0, SVG Export Plug-In . SVG Version: 6.00 Build 0)  --><!DOCTYPE svg PUBLIC "-//W3C//DTD SVG 1.1//EN" "http://www.w3.org/Graphics/SVG/1.1/DTD/svg11.dtd"><svg xmlns="http://www.w3.org/2000/svg" xmlns:xlink="http://www.w3.org/1999/xlink" viewBox="0 0 50 50" width="50px" height="50px"><path fill="none" stroke="#000000" stroke-width="2" stroke-miterlimit="10" d="M49,35c0,0,0-7.9,0-9.6s-1.4-3.7-1.4-3.7l-4.1-5.5c-0.8-1-2.1-2.2-3.5-2.2"/><path d="M12.6,21h-1.4v1.6h1.4c0.3,0,0.9,0,0.9-0.8C13.5,21.1,12.9,21,12.6,21z"/><path fill="none" stroke="#000000" stroke-width="2" stroke-miterlimit="10" d="M49,26c0,0-10,0-11,0s-2-1-2-2c0-0.6,0-2.5,0-4c0-1.1,1-2,2-2s6.8,0,6.8,0"/><g><circle fill="none" stroke="#000000" stroke-width="2" stroke-miterlimit="10" cx="13" cy="37" r="5"/></g><path d="M28,8H3c-1.654,0-3,1.346-3,3v24c0,1.654,1.346,3,3,3h5.101C8.035,37.677,8,37.343,8,37c0-2.762,2.239-5,5-5s5,2.238,5,5c0,0.343-0.035,0.677-0.101,1h10.302c1.544,0,2.8-1.256,2.8-2.8V11C31,9.346,29.654,8,28,8z M9,21.1H6.3v1.3h2.4v1H6.3v2.4H5V20h4V21.1z M13.5,25.6c-0.1-0.2-0.1-0.398-0.1-0.6c-0.1-0.9-0.1-1.6-1-1.6h-1.3v2.2H10V20h3c0.5,0,1.7,0.3,1.7,1.6c0,0.9-0.6,1.3-0.9,1.4c0.2,0,0.8,0.2,0.8,1.6c0,0.1,0,0.8,0.2,1H13.5z M20.3,25.8H16V20h4.2v1.1h-3v1.2H20v1h-2.8v1.4h3.1V25.8z M26,25.8h-4.3V20h4.2v1.1h-3v1.2h2.8v1h-2.8v1.4H26V25.8z"/><g><circle fill="none" stroke="#000000" stroke-width="2" stroke-miterlimit="10" cx="39" cy="37" r="5"/></g><path d="M38,26c-1,0-2-1-2-2c0-0.6,0-2.5,0-4c0-1.1,1-2,2-2c0.686,0,5.271,0,8.089,0l-1.808-2.424C43.512,14.614,41.934,13,40,13h-7v25h1.101C34.035,37.677,34,37.343,34,37c0-2.762,2.238-5,5-5s5,2.238,5,5c0,0.343-0.035,0.677-0.101,1H44c0,0,1,0,2.932,0H47c1.542,0,3-1.458,3-3v-9C46.049,26,38.727,26,38,26z"/></svg>