<?xml version="1.0" encoding="iso-8859-1"?>
<!-- Generator: Adobe Illustrator 23.0.3, SVG Export Plug-In . SVG Version: 6.00 Build 0)  -->
<svg version="1.1" id="Layer_1" xmlns="http://www.w3.org/2000/svg" xmlns:xlink="http://www.w3.org/1999/xlink" x="0px" y="0px"
	 viewBox="0 0 50 50" style="enable-background:new 0 0 50 50;" xml:space="preserve">
<path d="M45,39h-9.9c-0.6,0-1,0.4-1,1c0,0.6,0.4,1,1,1h9.8c0.6,0,1-0.4,1-1C45.9,39.4,45.5,39,45,39z"/>
<path d="M46,32.028V5c0-0.553-0.447-1-1-1H5C4.447,4,4,4.447,4,5v40c0,0.553,0.447,1,1,1h27.028c1.829,2.421,4.722,4,7.972,4
	c5.5,0,10-4.5,10-10C50,36.749,48.421,33.857,46,32.028z M29,14h-8c-1.1,0-2-0.9-2-2c0-1.1,0.9-2,2-2h8c1.1,0,2,0.9,2,2
	C31,13.1,30.1,14,29,14z M40,48c-4.4,0-8-3.6-8-8c0-4.4,3.6-8,8-8s8,3.6,8,8C48,44.4,44.4,48,40,48z"/>
</svg>