<?xml version="1.0" encoding="iso-8859-1"?><!-- Generator: Adobe Illustrator 22.0.1, SVG Export Plug-In . SVG Version: 6.00 Build 0)  --><svg xmlns="http://www.w3.org/2000/svg" xmlns:xlink="http://www.w3.org/1999/xlink" viewBox="0 0 50 50" width="50px" height="50px"><path d="M37.952,28.113C36.819,28.465,34.803,29,33,29c-2.116,0-3.981-0.515-5.026-0.874c-1.25,3.06-4.163,10.129-4.959,14.703c-0.089,0.513,0.23,1.009,0.734,1.139C23.912,44.01,27.791,45,33,45c5.209,0,9.089-0.99,9.251-1.032c0.504-0.131,0.823-0.626,0.734-1.14C42.188,38.236,39.206,31.146,37.952,28.113z"/><line style="fill:none;stroke:#000000;stroke-width:2;stroke-linecap:round;stroke-linejoin:round;stroke-miterlimit:10;" x1="33" y1="13" x2="33" y2="16"/><line style="fill:none;stroke:#000000;stroke-width:2;stroke-linecap:round;stroke-linejoin:round;stroke-miterlimit:10;" x1="33" y1="16" x2="42.001" y2="18"/><line style="fill:none;stroke:#000000;stroke-width:2;stroke-linecap:round;stroke-linejoin:round;stroke-miterlimit:10;" x1="33" y1="16" x2="24.001" y2="18"/><path d="M23.967,46.071c-0.379-0.082-0.615-0.141-0.691-0.16c-0.008-0.002-0.023-0.006-0.027-0.007c0,0,0,0,0,0c-0.001,0-0.004-0.001-0.004-0.001c-1.496-0.387-2.464-1.888-2.2-3.416c0.236-1.356,0.643-2.9,1.13-4.487H20v8c0,1.1,0.9,2,2,2c1.074,0,1.95-0.859,1.992-1.923c0,0-0.001-0.001-0.001-0.001C23.982,46.074,23.976,46.073,23.967,46.071z"/><path d="M16,48L16,48c-1.1,0-2-0.9-2-2v-8h4v8C18,47.1,17.1,48,16,48z"/><circle cx="19" cy="7" r="5"/><path d="M39.224,15.484l-2-0.459c-0.296-0.068-0.608,0.002-0.847,0.192C36.139,15.408,36,15.695,36,16H36c0,1,0,2.5-1,3.5c-1.5,1.5-2,3.5-2,3.5s-0.5-2-2-3.5c-0.995-0.995-1-2.484-1-3.484C29.999,16.01,30,16.005,30,16c0-0.305-0.139-0.592-0.377-0.782c-0.238-0.19-0.549-0.261-0.847-0.192l-2,0.459C26.322,15.588,26,15.993,26,16.459c0,3.473,1.412,7.56,2.122,9.59C28.736,26.291,30.718,27,33,27c1.829,0,4.023-0.678,4.83-0.95c0.727-2.044,2.17-6.132,2.17-9.591C40,15.993,39.679,15.588,39.224,15.484z"/><path d="M26.234,26.709c-0.444-1.268-1.179-3.378-1.685-5.709H24v0c0,0,0,0,0,0c-1.417,0-2.621-0.966-2.928-2.35c-0.174-0.781-0.033-1.585,0.398-2.261s1.098-1.144,1.881-1.318l0.186-0.041c-1.339-0.649-2.82-1.03-4.375-1.03H19h-0.161c-4.506,0-8.497,3.011-9.704,7.321l-2.016,7.197c-0.238,0.85-0.11,1.769,0.351,2.522c0.412,0.674,1.07,1.156,1.825,1.384l2.743-9.697c0.151-0.531,0.705-0.837,1.235-0.69c0.531,0.15,0.84,0.703,0.69,1.235c0,0-3.235,11.486-3.242,11.51c-0.021,0.073-0.038,0.147-0.038,0.226c0,0.537,0.426,0.968,0.958,0.991h11.152c0.02,0,0.031,0,0.031,0c1.109-3.266,2.419-6.476,3.22-8.435l0.265-0.648L26.234,26.709z"/><path d="M9.547,11.453c0,0,2.57,0.374,3.924-0.981c1.355-1.355,0.981-3.924,0.981-3.924s-2.57-0.374-3.924,0.981C9.174,8.883,9.547,11.453,9.547,11.453z"/></svg>