<svg xmlns="http://www.w3.org/2000/svg"  viewBox="0 0 50 50" width="50px" height="50px"><path d="M 28 0 C 27.398438 0 27 0.398438 27 1 L 27 9 C 27 9.601563 27.398438 10 28 10 L 31 10 L 31 11 L 24 11 L 24 6 C 24 5.449219 23.550781 5 23 5 L 10 5 C 9.96875 5 9.9375 5 9.90625 5 C 9.390625 5.046875 8.996094 5.480469 9 6 L 9 11 L 7.1875 11 C 6.085938 11 4.289063 11.40625 3.6875 14.40625 L 0 38.5 L 50 38.5 L 46.3125 14.3125 C 45.8125 11.414063 43.914063 11 42.8125 11 L 39 11 L 39 10 L 42 10 C 42.601563 10 43 9.601563 43 9 L 43 1 C 43 0.398438 42.601563 0 42 0 Z M 11 7 L 22 7 L 22 23 L 11 23 Z M 13 10 L 13 12 L 20 12 L 20 10 Z M 13 14 L 13 16 L 20 16 L 20 14 Z M 29.09375 15 L 40.3125 15 C 41.414063 15 42.5 15.898438 42.5 17 L 43 20.59375 C 43.101563 21.195313 42.988281 21.789063 42.6875 22.1875 C 42.289063 22.6875 41.792969 23 41.09375 23 L 29.1875 23 C 27.988281 23 27 22.011719 27 20.8125 L 27 17.09375 C 27 15.894531 27.894531 15 29.09375 15 Z M 13 18 L 13 20 L 20 20 L 20 18 Z M 28 25.09375 L 30.09375 25.09375 C 30.59375 25.09375 31 25.5 31 26 L 31 28.09375 C 31 28.59375 30.59375 29 30.09375 29 L 28 29 C 27.5 29 27.09375 28.59375 27.09375 28.09375 L 27.09375 26 C 27.09375 25.5 27.5 25.09375 28 25.09375 Z M 34 25.09375 L 36.09375 25.09375 C 36.59375 25.09375 37 25.5 37 26 L 37 28.09375 C 37 28.59375 36.59375 29 36.09375 29 L 34 29 C 33.5 29 33.09375 28.59375 33.09375 28.09375 L 33.09375 26 C 33.09375 25.5 33.5 25.09375 34 25.09375 Z M 40 25.09375 L 42.09375 25.09375 C 42.59375 25.09375 43 25.5 43 26 L 43 28.09375 C 43 28.59375 42.59375 29 42.09375 29 L 40 29 C 39.5 29 39.09375 28.59375 39.09375 28.09375 L 39.09375 26 C 39.09375 25.5 39.5 25.09375 40 25.09375 Z M 28 31.09375 L 30.09375 31.09375 C 30.59375 31.09375 31 31.5 31 32 L 31 34.09375 C 31 34.59375 30.59375 35 30.09375 35 L 28 35 C 27.5 35 27.09375 34.59375 27.09375 34.09375 L 27.09375 32 C 27.09375 31.5 27.5 31.09375 28 31.09375 Z M 34 31.09375 L 36.09375 31.09375 C 36.59375 31.09375 37 31.5 37 32 L 37 34.09375 C 37 34.59375 36.59375 35 36.09375 35 L 34 35 C 33.5 35 33.09375 34.59375 33.09375 34.09375 L 33.09375 32 C 33.09375 31.5 33.5 31.09375 34 31.09375 Z M 40 31.09375 L 42.09375 31.09375 C 42.59375 31.09375 43 31.5 43 32 L 43 34.09375 C 43 34.59375 42.59375 35 42.09375 35 L 40 35 C 39.5 35 39.09375 34.59375 39.09375 34.09375 L 39.09375 32 C 39.09375 31.5 39.5 31.09375 40 31.09375 Z M 0 39.5 L 0 46.5 C 0 48.5 1.5 50 3.5 50 L 46.5 50 C 48.5 50 50 48.5 50 46.5 L 50 39.5 Z M 25 42 C 26.101563 42 27 42.898438 27 44 C 27 45.101563 26.101563 46 25 46 C 23.898438 46 23 45.101563 23 44 C 23 42.898438 23.898438 42 25 42 Z"/></svg>