<?xml version="1.0" encoding="iso-8859-1"?>
<!-- Generator: Adobe Illustrator 23.0.3, SVG Export Plug-In . SVG Version: 6.00 Build 0)  -->
<svg version="1.1" id="Layer_1" xmlns="http://www.w3.org/2000/svg" xmlns:xlink="http://www.w3.org/1999/xlink" x="0px" y="0px"
	 viewBox="0 0 50 50" style="enable-background:new 0 0 50 50;" xml:space="preserve">
<line style="fill:none;stroke:#000000;stroke-width:2;stroke-linecap:round;stroke-miterlimit:10;" x1="39" y1="21.25" x2="39" y2="11.25"/>
<line style="fill:none;stroke:#000000;stroke-width:2;stroke-linecap:round;stroke-miterlimit:10;" x1="32" y1="21.25" x2="32" y2="11"/>
<line style="fill:none;stroke:#000000;stroke-width:2;stroke-linecap:round;stroke-miterlimit:10;" x1="25" y1="21.25" x2="25" y2="11"/>
<line style="fill:none;stroke:#000000;stroke-width:2;stroke-linecap:round;stroke-miterlimit:10;" x1="18" y1="21.25" x2="18" y2="11"/>
<line style="fill:none;stroke:#000000;stroke-width:2;stroke-miterlimit:10;" x1="11" y1="21.25" x2="11" y2="11"/>
<path d="M46,30.495v-8.293c0.636-0.931,1-2.178,1-3.702c0-2.39-0.855-6.86-1-7.597V7c0-1.654-1.346-3-3-3H7C5.346,4,4,5.346,4,7
	v3.903C3.855,11.64,3,16.11,3,18.5c0,1.525,0.364,2.772,1,3.702V43c0,1.654,1.346,3,3,3h27.276c0.674,0.479,1.33,0.91,1.924,1.3
	c0.9,0.6,1.6,1,2.1,1.5l0.6,0.5l0.6-0.5c0.5-0.4,1.3-0.9,2.1-1.5C45,45.1,50,41.9,50,36.4C50,33.762,48.352,31.467,46,30.495z M14,7
	c0.552,0,1,0.448,1,1c0,0.552-0.448,1-1,1s-1-0.448-1-1C13,7.448,13.448,7,14,7z M11,7c0.552,0,1,0.448,1,1c0,0.552-0.448,1-1,1
	s-1-0.448-1-1C10,7.448,10.448,7,11,7z M8,7c0.552,0,1,0.448,1,1c0,0.552-0.448,1-1,1S7,8.552,7,8C7,7.448,7.448,7,8,7z
	 M25.78,20.672c-0.024-0.03-0.058-0.044-0.085-0.071c-0.026-0.026-0.041-0.06-0.071-0.084c-0.024-0.019-0.054-0.024-0.079-0.041
	c-0.058-0.039-0.117-0.068-0.181-0.094c-0.058-0.023-0.114-0.043-0.175-0.055c-0.064-0.013-0.127-0.016-0.192-0.016
	c-0.063,0-0.122,0.003-0.184,0.015c-0.063,0.012-0.121,0.032-0.181,0.057c-0.063,0.025-0.12,0.054-0.178,0.092
	c-0.025,0.017-0.055,0.022-0.079,0.041c-0.03,0.024-0.044,0.058-0.07,0.084c-0.027,0.027-0.061,0.041-0.085,0.071
	C23.543,21.516,22.552,22,21.5,22s-2.043-0.484-2.72-1.328c-0.024-0.03-0.058-0.044-0.085-0.071
	c-0.026-0.026-0.041-0.06-0.071-0.084c-0.024-0.019-0.054-0.024-0.079-0.041c-0.058-0.039-0.117-0.068-0.181-0.094
	c-0.058-0.023-0.115-0.043-0.176-0.055c-0.064-0.013-0.127-0.016-0.192-0.016c-0.063,0-0.122,0.003-0.184,0.015
	c-0.063,0.012-0.121,0.032-0.182,0.057c-0.063,0.025-0.12,0.054-0.177,0.092c-0.025,0.017-0.055,0.022-0.079,0.041
	c-0.03,0.024-0.044,0.058-0.07,0.084c-0.027,0.027-0.061,0.041-0.085,0.071C16.543,21.516,15.552,22,14.5,22
	s-2.043-0.484-2.72-1.328c-0.024-0.03-0.058-0.044-0.085-0.071c-0.026-0.026-0.041-0.06-0.07-0.084
	c-0.024-0.019-0.053-0.024-0.079-0.041c-0.058-0.039-0.117-0.068-0.181-0.094c-0.058-0.023-0.115-0.043-0.175-0.055
	c-0.064-0.013-0.127-0.016-0.192-0.016c-0.063,0-0.122,0.003-0.184,0.015c-0.063,0.012-0.121,0.032-0.182,0.057
	c-0.063,0.025-0.12,0.054-0.177,0.092c-0.025,0.017-0.055,0.022-0.079,0.041c-0.03,0.024-0.044,0.058-0.071,0.084
	c-0.027,0.026-0.061,0.041-0.085,0.071C9.543,21.516,8.552,22,7.5,22C5.434,22,5,20.097,5,18.5c0-1.778,0.552-5.002,0.828-6.5
	h38.344C44.448,13.497,45,16.721,45,18.5c0,1.597-0.434,3.5-2.5,3.5c-1.053,0-2.044-0.484-2.719-1.328
	c-0.024-0.03-0.058-0.045-0.085-0.071c-0.027-0.027-0.041-0.061-0.071-0.085c-0.024-0.019-0.054-0.024-0.079-0.041
	c-0.058-0.038-0.117-0.068-0.18-0.093c-0.059-0.023-0.115-0.043-0.176-0.055c-0.064-0.013-0.126-0.016-0.191-0.016
	c-0.063,0-0.123,0.003-0.186,0.015c-0.062,0.012-0.12,0.032-0.18,0.056c-0.063,0.025-0.12,0.054-0.178,0.091
	c-0.025,0.017-0.055,0.021-0.079,0.041c-0.03,0.024-0.045,0.058-0.071,0.085c-0.027,0.027-0.061,0.041-0.085,0.071
	C37.544,21.516,36.553,22,35.5,22s-2.044-0.484-2.719-1.328c-0.024-0.03-0.058-0.045-0.085-0.071
	c-0.026-0.027-0.041-0.061-0.071-0.085c-0.024-0.019-0.054-0.024-0.079-0.041c-0.058-0.038-0.117-0.068-0.18-0.093
	c-0.059-0.023-0.115-0.043-0.176-0.055c-0.064-0.013-0.126-0.016-0.191-0.016c-0.063,0-0.123,0.003-0.185,0.015
	c-0.063,0.012-0.121,0.032-0.181,0.056c-0.062,0.025-0.12,0.054-0.177,0.091c-0.025,0.017-0.055,0.022-0.08,0.041
	c-0.03,0.024-0.045,0.058-0.071,0.085c-0.027,0.027-0.061,0.041-0.085,0.071C30.544,21.516,29.553,22,28.5,22
	C27.448,22,26.457,21.516,25.78,20.672z M40.7,45.6C40,46,39.5,46.4,39,46.7c-0.5-0.4-1-0.7-1.7-1.1c-3.1-2-7.3-4.8-7.3-9.2
	c0-2.4,2-4.4,4.5-4.4c1.5,0,2.8,0.7,3.7,2l0.8,1.2l0.8-1.2c0.8-1.2,2.2-2,3.7-2c2.5,0,4.5,2,4.5,4.4C48,40.8,43.8,43.6,40.7,45.6z"
	/>
</svg>