<?xml version="1.0" encoding="iso-8859-1"?><!-- Generator: Adobe Illustrator 21.1.0, SVG Export Plug-In . SVG Version: 6.00 Build 0)  --><svg xmlns="http://www.w3.org/2000/svg" xmlns:xlink="http://www.w3.org/1999/xlink" viewBox="0 0 50 50" width="50px" height="50px"><path style="fill:none;stroke:#000000;stroke-width:2;stroke-linecap:round;stroke-miterlimit:10;" d="M4.1,18.033C7.033,9.233,15.283,3,25,3c12.192,0,22,9.808,22,22"/><path d="M46.22,31.019c-0.521-0.176-1.091,0.106-1.267,0.628c-1.046,3.104-2.769,5.833-4.962,8.061c-1.585-1.345-3.656-2.162-5.498-2.875c-2.011-0.778-3.915-1.515-4.493-2.69v-3.064c0.831-0.804,1.879-2.441,2.294-4.035c0.793-0.386,1.535-1.358,1.702-3.208c0.087-1.042-0.334-1.813-0.813-2.308c0.328-1.066,0.811-2.969,0.816-4.943c0.012-4.542-2.294-6.061-4.409-6.498C28.778,9.016,27.229,8,24.979,8h-0.001c-5.753,0.129-9.041,3.365-9.02,8.878c0.005,1.401,0.213,2.983,0.618,4.711c-0.384,0.535-0.648,1.327-0.567,2.296c0.262,1.917,0.977,2.742,1.579,3.096c0.38,1.653,1.548,3.309,2.412,4.107v3.053c-0.587,1.184-2.585,1.92-4.695,2.698c-1.823,0.672-3.859,1.446-5.447,2.672C6.239,35.737,4,30.629,4,25c0-0.552-0.447-1-1-1s-1,0.448-1,1c0,12.682,10.317,23,23,23c9.901,0,18.682-6.315,21.848-15.714C47.024,31.763,46.743,31.195,46.22,31.019z"/><polyline style="fill:none;stroke:#000000;stroke-width:2;stroke-linecap:round;stroke-miterlimit:10;" points="3,10.333 3,18.583 10.333,15.833 "/><polyline style="fill:none;stroke:#000000;stroke-width:2;stroke-linecap:round;stroke-miterlimit:10;" points="47,39.667 47,31.417 39.667,34.167 "/></svg>