<?xml version="1.0" encoding="iso-8859-1"?><!-- Generator: Adobe Illustrator 19.1.1, SVG Export Plug-In . SVG Version: 6.00 Build 0)  --><svg xmlns="http://www.w3.org/2000/svg" xmlns:xlink="http://www.w3.org/1999/xlink" viewBox="0 0 50 50" width="50px" height="50px"><path style="fill:none;stroke:#000000;stroke-width:2;stroke-linecap:round;stroke-miterlimit:10;" d="M1,18c0,0,2.588,4.436,7.813,8.126"/><path style="fill:none;stroke:#000000;stroke-width:2;stroke-linecap:round;stroke-linejoin:round;stroke-miterlimit:10;" d="M7,25c0,0-2.333,3.417,0,8"/><path d="M44,9c-1.979,0-3.824,0.98-4.939,2.623c-0.634,0.936-1.096,1.937-1.542,2.904c-0.291,0.631-0.566,1.226-0.877,1.781C36.61,16.365,33.256,22,26,22c-0.815,0-2.673-0.575-3.652-0.938c-0.193-0.072-0.403-0.083-0.603-0.029C20.504,21.359,17.5,22.167,16,23c0.411-0.568,2.045-1.803,2.581-2.187c0.394-0.28,0.529-0.802,0.324-1.239c-0.206-0.438-0.692-0.664-1.162-0.541l-0.204,0.054c-1.517,0.398-5.055,1.329-7.698,4.094C13.647,26.191,18.185,29,24,29c9.751,0,15.322-3.194,18.066-10.357c0.198-0.516,0.779-0.772,1.291-0.576c0.516,0.197,0.774,0.775,0.576,1.291C40.892,27.301,34.558,31,24,31c-6.423,0-11.488-3.165-15.407-6.257c-0.164,0.249-0.322,0.506-0.47,0.776C8.042,25.667,8,25.832,8,26c0,8.847,7.681,14.329,14.908,14.996C22.939,40.999,22.97,41,23,41c0.385,0,0.739-0.222,0.905-0.575c0.157-0.335,0.115-0.726-0.1-1.018C23.715,39.239,22.283,36.705,22,36c1.417,1.833,5.335,4.765,5.474,4.851c0.189,0.116,0.414,0.167,0.636,0.144C38.208,39.88,50,32.403,50,15C50,11.691,47.309,9,44,9z"/></svg>