<?xml version="1.0" encoding="utf-8"?><!-- Generator: Adobe Illustrator 17.0.2, SVG Export Plug-In . SVG Version: 6.00 Build 0)  --><!DOCTYPE svg PUBLIC "-//W3C//DTD SVG 1.1//EN" "http://www.w3.org/Graphics/SVG/1.1/DTD/svg11.dtd"><svg xmlns="http://www.w3.org/2000/svg" xmlns:xlink="http://www.w3.org/1999/xlink" viewBox="0 0 50 50" width="500px" height="500px"><path d="M32,3.333C32,4.254,31.328,5,30.5,5S29,4.254,29,3.333C29,2.101,30.5,0,30.5,0S32,2.101,32,3.333z"/><path d="M21,3.333C21,4.254,20.328,5,19.5,5S18,4.254,18,3.333C18,2.101,19.5,0,19.5,0S21,2.101,21,3.333z"/><path d="M36,5.333C36,6.254,36.672,7,37.5,7S39,6.254,39,5.333C39,4.101,37.5,2,37.5,2S36,4.101,36,5.333z"/><path d="M43,5.333C43,6.254,43.672,7,44.5,7S46,6.254,46,5.333C46,4.101,44.5,2,44.5,2S43,4.101,43,5.333z"/><path d="M47,12.333C47,13.254,47.672,14,48.5,14s1.5-0.746,1.5-1.667C50,11.101,48.5,9,48.5,9S47,11.101,47,12.333z"/><path d="M14,5.333C14,6.254,13.328,7,12.5,7S11,6.254,11,5.333C11,4.101,12.5,2,12.5,2S14,4.101,14,5.333z"/><path d="M7,5.333C7,6.254,6.328,7,5.5,7S4,6.254,4,5.333C4,4.101,5.5,2,5.5,2S7,4.101,7,5.333z"/><path d="M3,12.333C3,13.254,2.328,14,1.5,14S0,13.254,0,12.333C0,11.101,1.5,9,1.5,9S3,11.101,3,12.333z"/><line fill="none" stroke="#000000" stroke-width="2" stroke-linecap="round" stroke-miterlimit="10" x1="25" y1="7" x2="25" y2="4"/><path fill="none" stroke="#000000" stroke-width="2" stroke-linecap="round" stroke-linejoin="round" stroke-miterlimit="10" d="M13,43c0,3.314,2.686,6,6,6s6-2.686,6-6V25"/><path fill="none" stroke="#000000" stroke-width="2" stroke-linecap="round" stroke-linejoin="round" stroke-miterlimit="10" d="M10,24c3.119,0,5.863,1.59,7.479,4h0.043c1.615-2.41,4.359-4,7.479-4s5.863,1.59,7.479,4h0.043c1.615-2.41,4.359-4,7.479-4c4.547,0,8,4,8,4C48,15.42,37.703,7,25,7S2,15.42,2,28C2,28,4.546,24,10,24z"/></svg>