<?xml version="1.0" encoding="iso-8859-1"?>
<!-- Generator: Adobe Illustrator 23.0.3, SVG Export Plug-In . SVG Version: 6.00 Build 0)  -->
<svg version="1.1" id="Layer_1" xmlns="http://www.w3.org/2000/svg" xmlns:xlink="http://www.w3.org/1999/xlink" x="0px" y="0px"
	 viewBox="0 0 50 50" style="enable-background:new 0 0 50 50;" xml:space="preserve">
<path d="M39.8,45h-1.6c-0.1,0-0.2,0.1-0.2,0.2v1.6c0,0.1,0.1,0.2,0.2,0.2h1.6c0.1,0,0.2-0.1,0.2-0.2v-1.6C40,45.1,39.9,45,39.8,45z"
	/>
<path d="M38,37.2v5.6c0,0.1,0.1,0.2,0.2,0.2h1.6c0.1,0,0.2-0.1,0.2-0.2v-5.6c0-0.1-0.1-0.2-0.2-0.2h-1.6C38.1,37,38,37.1,38,37.2z"
	/>
<path d="M49.9,47.6L46,40.667V5c0-0.553-0.447-1-1-1H5C4.447,4,4,4.447,4,5v40c0,0.553,0.447,1,1,1h24.084L28.2,47.6
	c-0.1,0.1-0.1,0.3-0.1,0.5c0,1,0.9,1.9,1.9,1.9h18.1c1,0,1.9-0.8,1.9-1.9C50,47.9,50,47.8,49.9,47.6z M29,14h-8c-1.1,0-2-0.9-2-2
	c0-1.1,0.9-2,2-2h8c1.1,0,2,0.9,2,2C31,13.1,30.1,14,29,14z M30.3,48l8.6-15.6c0,0,0.1-0.1,0.1-0.2c0,0.1,0.1,0.2,0.1,0.2L47.8,48
	H30.3z"/>
</svg>