<?xml version="1.0" encoding="iso-8859-1"?><!-- Generator: Adobe Illustrator 18.1.1, SVG Export Plug-In . SVG Version: 6.00 Build 0)  --><svg xmlns="http://www.w3.org/2000/svg" xmlns:xlink="http://www.w3.org/1999/xlink" viewBox="0 0 50 50" width="50px" height="50px"><path d="M39,50c-2.2,0-4-1.8-4-4s1.8-4,4-4s4,1.8,4,4S41.2,50,39,50z M39,44c-1.1,0-2,0.9-2,2s0.9,2,2,2s2-0.9,2-2S40.1,44,39,44z"/><path d="M26,50c-2.2,0-4-1.8-4-4s1.8-4,4-4s4,1.8,4,4S28.2,50,26,50z M26,44c-1.1,0-2,0.9-2,2s0.9,2,2,2s2-0.9,2-2S27.1,44,26,44z"/><circle cx="2" cy="4" r="2"/><g><path d="M40.7,35.4l7.2-19c0.1-0.3,0.1-0.7-0.1-0.9C47.6,15.2,47.3,15,47,15H32v8.6l3.3-3.3c0.4-0.4,1-0.4,1.4,0s0.4,1,0,1.4L31,27.4l-5.7-5.7c-0.4-0.4-0.4-1,0-1.4s1-0.4,1.4,0l3.3,3.3V15H16.3l-2.1-8.6C13.5,4.1,12.3,2,8.7,2H2C1.5,2,1,2.5,1,3s0.4,1,1,1h6.7c2.1,0,2.9,0.7,3.6,2.9l8,32.3c0.6,2.2,1.3,4.8,5.5,4.8H41c0.5,0,1-0.4,1-1s-0.4-1-1-1H25.7c-2.7,0-3-1.1-3.6-3.3L21.5,36h18.3C40.2,36,40.6,35.7,40.7,35.4z"/><path d="M32,2c0-0.6-0.4-1-1-1c-0.6,0-1,0.4-1,1v13h2V2z"/></g></svg>