<?xml version="1.0" encoding="iso-8859-1"?><!-- Generator: Adobe Illustrator 21.1.0, SVG Export Plug-In . SVG Version: 6.00 Build 0)  --><svg xmlns="http://www.w3.org/2000/svg" xmlns:xlink="http://www.w3.org/1999/xlink" viewBox="0 0 50 50" width="500px" height="500px"><path style="fill:none;stroke:#000000;stroke-width:2;stroke-linecap:round;stroke-miterlimit:10;" d="M44,9H6c-2.209,0-4,1.791-4,4v24c0,2.209,1.791,4,4,4h38c2.209,0,4-2.791,4-5V13C48,10.791,46.209,9,44,9z"/><circle cx="32" cy="34" r="1"/><circle cx="35" cy="34" r="1"/><circle cx="38" cy="34" r="1"/><circle cx="41" cy="34" r="1"/><polygon style="fill:none;stroke:#000000;stroke-width:2;stroke-linecap:round;stroke-linejoin:round;stroke-miterlimit:10;" points="21.256,22.237 18.5,15 15.744,22.237 8,22.632 14.037,27.5 11.938,35 18.5,30.789 25.063,35 22.963,27.5 29,22.632 "/></svg>