<?xml version="1.0" encoding="iso-8859-1"?><!-- Generator: Adobe Illustrator 21.1.0, SVG Export Plug-In . SVG Version: 6.00 Build 0)  --><svg xmlns="http://www.w3.org/2000/svg" xmlns:xlink="http://www.w3.org/1999/xlink" viewBox="0 0 50 50" width="500px" height="500px"><path style="fill:none;stroke:#000000;stroke-width:2;stroke-linecap:round;stroke-linejoin:round;stroke-miterlimit:10;" d="M30,13H20c-1.105,0-2-0.895-2-2v0c0-1.105,0.895-2,2-2h10c1.105,0,2,0.895,2,2v0C32,12.105,31.105,13,30,13z"/><circle style="fill:none;stroke:#000000;stroke-width:2;stroke-linecap:round;stroke-miterlimit:10;" cx="40" cy="40" r="9"/><path d="M27.645,44.023H5V4.977h40v23.026c0.702,0.293,1.367,0.653,2,1.06V3.977c0-0.552-0.448-1-1-1H4c-0.552,0-1,0.448-1,1v41.046c0,0.552,0.448,1,1,1h24.49C28.155,45.385,27.871,44.717,27.645,44.023z"/><line style="fill:none;stroke:#000000;stroke-width:2;stroke-linecap:round;stroke-miterlimit:10;" x1="33.636" y1="33.636" x2="46.364" y2="46.364"/></svg>