<?xml version="1.0" encoding="iso-8859-1"?>
<!-- Generator: Adobe Illustrator 18.0.0, SVG Export Plug-In . SVG Version: 6.00 Build 0)  -->
<!DOCTYPE svg PUBLIC "-//W3C//DTD SVG 1.1//EN" "http://www.w3.org/Graphics/SVG/1.1/DTD/svg11.dtd">
<svg version="1.1" id="Layer_1" xmlns="http://www.w3.org/2000/svg" xmlns:xlink="http://www.w3.org/1999/xlink" x="0px" y="0px"
	 width="50px" height="50px" viewBox="0 0 50 50" style="enable-background:new 0 0 50 50;" xml:space="preserve">
<g>
	<rect x="19" y="13" width="1" height="3"/>
	<rect x="28" y="13" width="1" height="3"/>
	<path d="M41,4H9C6.243,4,4,6.243,4,9v32c0,2.757,2.243,5,5,5h32c2.757,0,5-2.243,5-5V9C46,6.243,43.757,4,41,4z M36.702,31.912
		c-1.11,3.014-2.324,4.485-4.994,6.054c-2.794,1.641-5.602,1.819-6.68,1.819c-0.243,0-0.475-0.008-0.695-0.023
		c-0.231-0.016-0.47-0.131-0.639-0.29c-0.14-0.132-0.524-0.493-1.086-1.058c-0.154-0.155-0.389-0.395-0.646-0.668
		c0.049,0.348-0.088,0.698-0.364,0.919c-0.181,0.145-0.402,0.22-0.626,0.22c-0.133,0-0.267-0.027-0.394-0.081
		c-1.602-0.688-2.848-1.625-3.701-2.786c-0.93-1.268-1.411-2.748-1.419-4.272c-1.629-1.469-3.036-3.316-4.128-5.518
		c-0.245-0.495-0.043-1.095,0.452-1.34c0.495-0.246,1.094-0.043,1.34,0.452c0.82,1.652,1.831,3.079,2.985,4.267
		c0.797-0.783,1.776-1.312,3-1.596c0.075-0.018,0.151-0.026,0.226-0.026c0.345,0,0.672,0.179,0.856,0.483
		c0.161,0.266,0.185,0.585,0.081,0.865c0.764-0.071,1.775-0.161,2.49-0.212c0.024-0.002,0.047-0.003,0.071-0.003
		c0.178,0,0.354,0.048,0.508,0.139l0.06,0.036c0.091,0.055,0.232,0.139,0.484,0.271c0.305,0.161,1.064,0.421,1.45,0.497
		c0.283,0.055,0.569,0.083,0.851,0.083c1.21,0,2.255-0.518,3.096-0.935c1.168-0.579,2.332-0.667,3.358-0.744
		c1.402-0.106,2.158-0.2,2.692-1.02c0.187-0.287,0.505-0.454,0.838-0.454c0.075,0,0.15,0.008,0.225,0.026
		c0.409,0.094,0.716,0.434,0.768,0.851C37.17,27.954,37.412,29.987,36.702,31.912z M39,21H11V8h28V21z"/>
	<path d="M37,10H13v9h24V10z M22,17c0,0.552-0.448,1-1,1h-3c-0.552,0-1-0.448-1-1v-5c0-0.552,0.448-1,1-1h3c0.552,0,1,0.448,1,1V17z
		 M25,18h-2v-2h2V18z M31,17c0,0.552-0.448,1-1,1h-3c-0.552,0-1-0.448-1-1v-5c0-0.552,0.448-1,1-1h3c0.552,0,1,0.448,1,1V17z M35,18
		h-2v-7h2V18z"/>
</g>
<path d="M33.201,31.376c-0.339-0.436-0.969-0.512-1.403-0.172c-2.626,2.053-6.052,2.795-9.403,2.033
	c-2.369-0.538-4.511-1.796-6.299-3.639c-0.603,0.656-0.699,1.332-0.662,2.127c1.895,1.715,4.097,2.913,6.519,3.463
	c1.01,0.229,2.027,0.342,3.034,0.342c2.915,0,5.738-0.948,8.044-2.75C33.464,32.44,33.542,31.812,33.201,31.376z"/>
</svg>