<?xml version="1.0" encoding="utf-8"?><!-- Generator: Adobe Illustrator 15.0.0, SVG Export Plug-In . SVG Version: 6.00 Build 0)  --><!DOCTYPE svg PUBLIC "-//W3C//DTD SVG 1.1//EN" "http://www.w3.org/Graphics/SVG/1.1/DTD/svg11.dtd"><svg xmlns="http://www.w3.org/2000/svg" xmlns:xlink="http://www.w3.org/1999/xlink" viewBox="0 0 50 50" width="50px" height="50px"><line fill="none" stroke="#000000" stroke-width="2" stroke-linecap="round" stroke-linejoin="round" stroke-miterlimit="10" x1="42" y1="15" x2="42" y2="34.2"/><g><path d="M24,38h-9h-1v8.2c0,2.096,1.705,3.8,3.8,3.8H24V38z"/><path d="M33.1,38H29v12h1.2c2.096,0,3.8-1.704,3.8-3.8V38H33.1z"/></g><path d="M36,0H12c-1.654,0-3,1.346-3,3v31c0,1.654,1.346,3,3,3h24c1.654,0,3-1.346,3-3V3C39,1.346,37.654,0,36,0z M14,6.3C14,5.6,14.6,5,15.3,5h17.4C33.4,5,34,5.6,34,6.3v6.4c0,0.7-0.6,1.3-1.3,1.3H15.3c-0.7,0-1.3-0.6-1.3-1.3V6.3z M18.9,32.1c0,0.5-0.4,0.9-0.9,0.9h-4.1c-0.5,0-0.9-0.4-0.9-0.9V30c0-0.5,0.4-0.9,0.9-0.9H18c0.5,0,0.9,0.4,0.9,0.9V32.1z M18.9,26.1c0,0.5-0.4,0.9-0.9,0.9h-4.1c-0.5,0-0.9-0.4-0.9-0.9V24c0-0.5,0.4-0.9,0.9-0.9H18c0.5,0,0.9,0.4,0.9,0.9V26.1z M18.9,20.1c0,0.5-0.4,0.9-0.9,0.9h-4.1c-0.5,0-0.9-0.4-0.9-0.9V18c0-0.5,0.4-0.9,0.9-0.9H18c0.5,0,0.9,0.4,0.9,0.9V20.1z M27,32.1c0,0.5-0.4,0.9-0.9,0.9H22c-0.5,0-0.9-0.4-0.9-0.9V30c0-0.5,0.4-0.9,0.9-0.9h4.1c0.5,0,0.9,0.4,0.9,0.9V32.1z M27,26.1c0,0.5-0.4,0.9-0.9,0.9H22c-0.5,0-0.9-0.4-0.9-0.9V24c0-0.5,0.4-0.9,0.9-0.9h4.1c0.5,0,0.9,0.4,0.9,0.9V26.1z M27,20.1c0,0.5-0.4,0.9-0.9,0.9H22c-0.5,0-0.9-0.4-0.9-0.9V18c0-0.5,0.4-0.9,0.9-0.9h4.1c0.5,0,0.9,0.4,0.9,0.9V20.1z M35,32.1c0,0.5-0.4,0.9-0.9,0.9H30c-0.5,0-0.9-0.4-0.9-0.9V30c0-0.5,0.4-0.9,0.9-0.9h4.1c0.5,0,0.9,0.4,0.9,0.9V32.1z M35,26.1c0,0.5-0.4,0.9-0.9,0.9H30c-0.5,0-0.9-0.4-0.9-0.9V24c0-0.5,0.4-0.9,0.9-0.9h4.1c0.5,0,0.9,0.4,0.9,0.9V26.1z M35,20.1c0,0.5-0.4,0.9-0.9,0.9H30c-0.5,0-0.9-0.4-0.9-0.9V18c0-0.5,0.4-0.9,0.9-0.9h4.1c0.5,0,0.9,0.4,0.9,0.9V20.1z"/><path fill="none" stroke="#000000" stroke-width="2" stroke-linejoin="round" stroke-miterlimit="10" d="M15,38v8.2c0,1.5,1.2,2.8,2.8,2.8h12.5c1.5,0,2.8-1.2,2.8-2.8V38"/></svg>