<?xml version="1.0" encoding="utf-8"?><!-- Generator: Adobe Illustrator 17.0.0, SVG Export Plug-In . SVG Version: 6.00 Build 0)  --><!DOCTYPE svg PUBLIC "-//W3C//DTD SVG 1.1//EN" "http://www.w3.org/Graphics/SVG/1.1/DTD/svg11.dtd"><svg xmlns="http://www.w3.org/2000/svg" xmlns:xlink="http://www.w3.org/1999/xlink" viewBox="0 0 50 50" width="500px" height="500px"><g><path fill="none" stroke="#000000" stroke-width="2" stroke-linejoin="round" stroke-miterlimit="10" d="M32.828,21c-0.467,0-0.936-0.179-1.293-0.536c-0.714-0.716-0.714-1.871,0-2.587l13.342-13.34c0.714-0.714,1.871-0.714,2.585,0c0.714,0.714,0.714,1.871,0,2.585l-13.34,13.342C33.764,20.821,33.297,21,32.828,21z"/></g><g><path fill="none" stroke="#000000" stroke-width="2" stroke-linejoin="round" stroke-miterlimit="10" d="M17.172,21c0.467,0,0.936-0.179,1.293-0.536c0.714-0.716,0.714-1.871,0-2.587L5.123,4.537c-0.714-0.714-1.871-0.714-2.585,0s-0.714,1.871,0,2.585l13.34,13.342C16.236,20.821,16.703,21,17.172,21z"/></g><path fill="none" stroke="#000000" stroke-width="2" stroke-linejoin="round" stroke-miterlimit="10" d="M19.462,39.462c0,1.017-0.829,1.846-1.846,1.846c-1.017,0-1.846-0.829-1.846-1.846V28.385c0-1.017,0.829-1.846,1.846-1.846c1.017,0,1.846,0.829,1.846,1.846V39.462z M26.846,39.462c0,1.017-0.829,1.846-1.846,1.846c-1.017,0-1.846-0.829-1.846-1.846V28.385c0-1.017,0.829-1.846,1.846-1.846c1.017,0,1.846,0.829,1.846,1.846V39.462z M34.231,39.462c0,1.017-0.829,1.846-1.846,1.846c-1.017,0-1.846-0.829-1.846-1.846V28.385c0-1.017,0.829-1.846,1.846-1.846c1.017,0,1.846,0.829,1.846,1.846V39.462z"/><line fill="none" stroke="#000000" stroke-width="2" stroke-linejoin="round" stroke-miterlimit="10" x1="17.606" y1="17" x2="32.352" y2="17"/><path fill="none" stroke="#000000" stroke-width="2" stroke-linejoin="round" stroke-miterlimit="10" d="M37.654,17H48c0.552,0,1,0.448,1,1v6c0,0.552-0.448,1-1,1H2c-0.552,0-1-0.448-1-1v-6c0-0.552,0.448-1,1-1h10.389"/><path fill="none" stroke="#000000" stroke-width="2" stroke-linejoin="round" stroke-miterlimit="10" d="M46.665,25.354l-5.453,18.911C41.094,44.673,40.552,45,40,45l-30,0c-0.552,0-1.094-0.327-1.212-0.735L3.335,25.354"/></svg>