<?xml version="1.0" encoding="utf-8"?><!-- Generator: Adobe Illustrator 15.0.0, SVG Export Plug-In . SVG Version: 6.00 Build 0)  --><!DOCTYPE svg PUBLIC "-//W3C//DTD SVG 1.1//EN" "http://www.w3.org/Graphics/SVG/1.1/DTD/svg11.dtd"><svg xmlns="http://www.w3.org/2000/svg" xmlns:xlink="http://www.w3.org/1999/xlink" viewBox="0 0 50 50" width="50px" height="50px"><path fill="none" stroke="#000000" stroke-width="2" stroke-linecap="round" stroke-linejoin="round" stroke-miterlimit="10" d="M32,11.25V8c0-3.866-3.134-7-7-7s-7,3.134-7,7v11.75"/><path d="M11,25H1c-0.552,0-1-0.448-1-1s0.448-1,1-1h9.72L38.481,6.145C38.638,6.05,38.817,6,39,6h10c0.553,0,1,0.448,1,1s-0.447,1-1,1h-9.72L11.519,24.855C11.362,24.95,11.183,25,11,25z"/><path d="M33,26.767V14.153l-16,9.714v2.9c-3.14,2.46-5,6.246-5,10.232c0,7.168,5.832,13,13,13c7.168,0,13-5.832,13-13C38,33.014,36.141,29.227,33,26.767z"/></svg>