<?xml version="1.0" encoding="iso-8859-1"?><!-- Generator: Adobe Illustrator 21.1.0, SVG Export Plug-In . SVG Version: 6.00 Build 0)  --><svg xmlns="http://www.w3.org/2000/svg" xmlns:xlink="http://www.w3.org/1999/xlink" viewBox="0 0 50 50" width="50px" height="50px"><rect x="5" y="5" style="fill:none;stroke:#000000;stroke-width:2;stroke-miterlimit:10;" width="12" height="12"/><rect x="8" y="8" width="6" height="6"/><rect x="5" y="33" style="fill:none;stroke:#000000;stroke-width:2;stroke-miterlimit:10;" width="12" height="12"/><rect x="8" y="36" width="6" height="6"/><rect x="33" y="5" style="fill:none;stroke:#000000;stroke-width:2;stroke-miterlimit:10;" width="12" height="12"/><rect x="36" y="8" width="6" height="6"/><rect x="20" y="6" width="6" height="6"/><rect x="7" y="24" width="6" height="6"/><rect x="28" y="32" width="10" height="6"/><rect x="36" y="36" width="10" height="10"/><rect x="24" y="36" width="6" height="6"/><polygon points="40,24 40,27 36,27 36,34 46,34 46,24 "/><rect x="20" y="15" width="6" height="7"/><rect x="24" y="10" width="6" height="7"/><polygon points="24,20 24,26 31,26 31,29 38,29 38,20 "/><polygon points="11,20 11,26 16,26 16,30 22,30 22,20 "/></svg>