<?xml version="1.0" encoding="utf-8"?><!-- Generator: Adobe Illustrator 15.0.0, SVG Export Plug-In . SVG Version: 6.00 Build 0)  --><!DOCTYPE svg PUBLIC "-//W3C//DTD SVG 1.1//EN" "http://www.w3.org/Graphics/SVG/1.1/DTD/svg11.dtd"><svg xmlns="http://www.w3.org/2000/svg" xmlns:xlink="http://www.w3.org/1999/xlink" viewBox="0 0 50 50" width="50px" height="50px"><path d="M25,49c-1.104,0-2-0.896-2-2V32c0-1.104,0.896-2,2-2s2,0.896,2,2v15C27,48.104,26.104,49,25,49z"/><path d="M25,50.033l-9.414-9.416c-0.781-0.781-0.781-2.047,0-2.828s2.048-0.781,2.828,0L25,44.375l6.585-6.586c0.781-0.781,2.047-0.781,2.828,0c0.781,0.78,0.781,2.047,0,2.828L25,50.033z"/><path d="M29.719,1.844C28.518,0.67,26.903,0,25,0s-3.518,0.67-4.718,1.844C18.883,3.125,18,4.959,18,7v1v2v1c0,2.041,0.883,3.875,2.282,5.156C21.482,17.33,23.097,18,25,18s3.518-0.67,4.719-1.844C31.116,14.875,32,13.041,32,11v-1V8V7C32,4.959,31.116,3.125,29.719,1.844z M28,8v2c0,1.203-0.292,4-3,4c-2.708,0-3-2.797-3-4V8c0-1.203,0.292-4,3-4C27.708,4,28,6.797,28,8z"/><path d="M29.719,19.844C28.518,18.67,26.903,18,25,18s-3.518,0.67-4.718,1.844C18.883,21.125,18,22.959,18,25v1v2v1c0,2.04,0.883,3.874,2.28,5.154C21.481,35.329,23.096,36,25,36s3.52-0.671,4.72-1.846C31.117,32.873,32,31.04,32,29v-1v-2v-1C32,22.959,31.116,21.125,29.719,19.844z M28,26v2c0,1.203-0.292,4-3,4c-2.708,0-3-2.797-3-4v-2c0-1.203,0.292-4,3-4C27.708,22,28,24.797,28,26z"/><path d="M25,27c-1.104,0-2-0.896-2-2V11c0-1.104,0.896-2,2-2s2,0.896,2,2v14C27,26.104,26.104,27,25,27z"/></svg>