<?xml version="1.0" encoding="iso-8859-1"?><!-- Generator: Adobe Illustrator 19.1.1, SVG Export Plug-In . SVG Version: 6.00 Build 0)  --><svg xmlns="http://www.w3.org/2000/svg" xmlns:xlink="http://www.w3.org/1999/xlink" viewBox="0 0 50 50" width="50px" height="50px"><g><path d="M33.828,10.91c3.071,4.314,10.465,15.963,12.764,30.854C47.304,38.112,48,32.624,48,25.126c0-11.633-2.903-22.286-2.933-22.392C44.948,2.3,44.554,2,44.104,2H33.337c-0.304,0-0.592,0.139-0.781,0.376c-0.19,0.237-0.262,0.549-0.193,0.845C32.374,3.275,33.112,6.552,33.828,10.91z"/></g><path d="M23,40H12.904c-0.469,0-0.875-0.325-0.976-0.783C9.745,29.406,2.285,19.71,2.21,19.613c-0.234-0.301-0.276-0.71-0.108-1.053S2.618,18,3,18h10.243c0.28,0,0.547,0.117,0.736,0.323c0.271,0.294,6.663,7.357,9.99,20.43c0.076,0.3,0.01,0.617-0.18,0.86C23.6,39.857,23.308,40,23,40z"/><g><path d="M44.167,48H33.998c-0.531,0-0.97-0.415-0.998-0.945c-0.857-15.538-13.631-35.311-13.76-35.509c-0.2-0.308-0.216-0.7-0.041-1.022C19.374,10.201,19.711,10,20.078,10h10.076c0.302,0,0.588,0.137,0.778,0.372c0.523,0.648,12.843,16.124,14.233,36.561c0.019,0.276-0.078,0.548-0.268,0.75C44.709,47.885,44.444,48,44.167,48z"/><g><path d="M18.569,14.262c-0.229,1.453-0.561,3.302-1.031,5.381c2.292,3.243,5.941,9.389,8.247,18.172c0.56-1.398,1.218-3.237,1.81-5.117C24.595,24.642,20.452,17.384,18.569,14.262z"/></g></g></svg>