<?xml version="1.0" encoding="iso-8859-1"?><!-- Generator: Adobe Illustrator 21.0.2, SVG Export Plug-In . SVG Version: 6.00 Build 0)  --><svg xmlns="http://www.w3.org/2000/svg" xmlns:xlink="http://www.w3.org/1999/xlink" viewBox="0 0 50 50" width="500px" height="500px"><path d="M27,7H6c-2.206,0-4,1.794-4,4v14c0,2.206,1.794,4,4,4h11v-4c0-3.308,2.692-6,6-6h8v-8C31,8.794,29.206,7,27,7z M29,17H4v-4h25V17z"/><path d="M44,21H23c-2.206,0-4,1.794-4,4v14c0,2.206,1.794,4,4,4h21c2.206,0,4-1.794,4-4V25C48,22.794,46.206,21,44,21z M46,31H21v-4h25V31z"/><path style="fill:none;stroke:#000000;stroke-width:2;stroke-miterlimit:10;" d="M47,19v-5c0-3.3-2.7-6-6-6h-5"/><polyline style="fill:none;stroke:#000000;stroke-width:2;stroke-miterlimit:10;" points="40,3 35,8 40,13 "/><path style="fill:none;stroke:#000000;stroke-width:2;stroke-miterlimit:10;" d="M3,31v5c0,3.3,2.7,6,6,6h5"/><polyline style="fill:none;stroke:#000000;stroke-width:2;stroke-miterlimit:10;" points="10,47 15,42 10,37 "/></svg>