<?xml version="1.0" encoding="iso-8859-1"?><!-- Generator: Adobe Illustrator 20.1.0, SVG Export Plug-In . SVG Version: 6.00 Build 0)  --><svg xmlns="http://www.w3.org/2000/svg" xmlns:xlink="http://www.w3.org/1999/xlink" viewBox="0 0 50 50" width="50px" height="50px"><circle cx="12" cy="7" r="1"/><circle cx="16" cy="7" r="1"/><circle cx="20" cy="7" r="1"/><circle cx="24" cy="7" r="1"/><circle cx="28" cy="7" r="1"/><circle cx="32" cy="7" r="1"/><circle cx="36" cy="7" r="1"/><circle cx="40" cy="7" r="1"/><circle cx="44" cy="7" r="1"/><circle cx="44" cy="11" r="1"/><circle cx="44" cy="15" r="1"/><circle cx="44" cy="27" r="1"/><circle cx="44" cy="31" r="1"/><circle cx="40" cy="31" r="1"/><circle cx="36" cy="31" r="1"/><circle cx="32" cy="31" r="1"/><circle cx="28" cy="31" r="1"/><circle cx="20" cy="31" r="1"/><circle cx="16" cy="31" r="1"/><circle cx="12" cy="31" r="1"/><circle cx="8" cy="31" r="1"/><circle cx="20" cy="43" r="1"/><circle cx="16" cy="43" r="1"/><circle cx="12" cy="43" r="1"/><circle cx="8" cy="43" r="1"/><circle cx="36" cy="43" r="1"/><circle cx="32" cy="43" r="1"/><circle cx="28" cy="43" r="1"/><circle cx="24" cy="43" r="1"/><circle cx="4" cy="31" r="1"/><circle cx="4" cy="35" r="1"/><circle cx="4" cy="39" r="1"/><circle cx="4" cy="43" r="1"/><circle cx="6" cy="7" r="4"/><circle cx="44" cy="21" r="4"/><circle cx="43" cy="43" r="4"/><path d="M24,14c-3.309,0-6,2.691-6,6c0,2.956,4.618,10.651,5.146,11.519C23.326,31.817,23.65,32,24,32s0.674-0.183,0.854-0.481C25.382,30.651,30,22.956,30,20C30,16.691,27.309,14,24,14z M24,22c-1.104,0-2-0.896-2-2c0-1.105,0.896-2,2-2s2,0.895,2,2C26,21.104,25.104,22,24,22z"/></svg>