<?xml version="1.0" encoding="iso-8859-1"?><!-- Generator: Adobe Illustrator 19.1.1, SVG Export Plug-In . SVG Version: 6.00 Build 0)  --><svg xmlns="http://www.w3.org/2000/svg" xmlns:xlink="http://www.w3.org/1999/xlink" viewBox="0 0 50 50" width="500px" height="500px"><polyline style="fill:none;stroke:#000000;stroke-width:2;stroke-linecap:round;stroke-linejoin:round;stroke-miterlimit:10;" points="12.1,17 25,4 38.1,17 "/><path style="fill:none;stroke:#000000;stroke-width:2;stroke-linecap:round;stroke-linejoin:round;stroke-miterlimit:10;" d="M47.2,23h0.9c0.6,0,1-0.4,1-1v-4c0-0.6-0.4-1-1-1h-46c-0.6,0-1,0.4-1,1v4c0,0.6,0.4,1,1,1H3l5.6,18.6c0.3,0.8,1,1.4,1.9,1.4h17.6"/><polygon style="fill:none;stroke:#000000;stroke-width:2;stroke-linecap:round;stroke-linejoin:round;stroke-miterlimit:10;" points="25.069,26 34.069,46 37.069,40 44.004,46 47.1,42.331 40.069,36.5 45.069,33 "/><g><path d="M46.017,30.153l2.138-6.855c0.165-0.527-0.13-1.088-0.657-1.253c-0.529-0.163-1.088,0.13-1.252,0.657l-2.117,6.789L46.017,30.153z"/><polygon points="28.979,42 26.1,42 26.1,44 29.879,44 "/></g></svg>