<?xml version="1.0" encoding="iso-8859-1"?><!-- Generator: Adobe Illustrator 21.1.0, SVG Export Plug-In . SVG Version: 6.00 Build 0)  --><svg xmlns="http://www.w3.org/2000/svg" xmlns:xlink="http://www.w3.org/1999/xlink" viewBox="0 0 50 50" width="50px" height="50px"><path d="M21,17c-1.654,0-3,1.346-3,3v3h3c1.654,0,3-1.346,3-3S22.654,17,21,17z"/><path d="M13,17c-1.654,0-3,1.346-3,3s1.346,3,3,3h3v-3C16,18.346,14.654,17,13,17z"/><path d="M44,8H18v5.685c-0.347,0.167-0.683,0.357-1,0.58c-0.317-0.224-0.653-0.414-1-0.58V8H6c-2.757,0-5,2.243-5,5v10h5.68c0.359,0.754,0.859,1.423,1.451,2H1v11c0,2.757,2.243,5,5,5h10V29.283l1-0.986l1,0.986V41h26c2.757,0,5-2.243,5-5V25H25.869c0.592-0.577,1.091-1.246,1.451-2H49V13C49,10.243,46.757,8,44,8z M41,33c0.552,0,1,0.448,1,1c0,0.552-0.448,1-1,1s-1-0.448-1-1C40,33.448,40.448,33,41,33z M38,33c0.552,0,1,0.448,1,1c0,0.552-0.448,1-1,1s-1-0.448-1-1C37,33.448,37.448,33,38,33z M35,33c0.552,0,1,0.448,1,1c0,0.552-0.448,1-1,1s-1-0.448-1-1C34,33.448,34.448,33,35,33z M32,33c0.552,0,1,0.448,1,1c0,0.552-0.448,1-1,1s-1-0.448-1-1C31,33.448,31.448,33,32,33z M21,25h-1.646l4.349,4.288l-1.404,1.424L17,25.488l-5.298,5.224l-1.404-1.424L14.646,25H13c-2.757,0-5-2.243-5-5s2.243-5,5-5c0.307,0,0.603,0.037,0.894,0.09c0.063,0.011,0.125,0.021,0.187,0.035c0.26,0.059,0.513,0.137,0.756,0.235c0.09,0.036,0.176,0.077,0.264,0.118c0.167,0.079,0.327,0.167,0.483,0.263c0.16,0.098,0.311,0.205,0.459,0.319c0.09,0.07,0.178,0.141,0.263,0.217c0.256,0.228,0.489,0.478,0.694,0.753c0,0,0,0,0,0c0,0,0,0,0,0c0.205-0.275,0.438-0.525,0.694-0.753c0.085-0.076,0.173-0.147,0.263-0.217c0.148-0.115,0.298-0.222,0.459-0.319c0.156-0.096,0.317-0.184,0.483-0.263c0.088-0.041,0.173-0.082,0.264-0.118c0.243-0.098,0.495-0.176,0.756-0.235c0.062-0.014,0.124-0.023,0.187-0.035C20.397,15.037,20.693,15,21,15c2.757,0,5,2.243,5,5S23.757,25,21,25z"/></svg>