<?xml version="1.0" encoding="iso-8859-1"?>
<!-- Generator: Adobe Illustrator 23.0.3, SVG Export Plug-In . SVG Version: 6.00 Build 0)  -->
<svg version="1.1" id="Layer_1" xmlns="http://www.w3.org/2000/svg" xmlns:xlink="http://www.w3.org/1999/xlink" x="0px" y="0px"
	 viewBox="0 0 50 50" style="enable-background:new 0 0 50 50;" xml:space="preserve">
<line style="fill:none;stroke:#000000;stroke-width:2;stroke-linecap:round;stroke-miterlimit:10;" x1="39" y1="20" x2="39" y2="11"/>
<line style="fill:none;stroke:#000000;stroke-width:2;stroke-linecap:round;stroke-miterlimit:10;" x1="32" y1="20" x2="32" y2="11"/>
<line style="fill:none;stroke:#000000;stroke-width:2;stroke-linecap:round;stroke-miterlimit:10;" x1="25" y1="20" x2="25" y2="11"/>
<line style="fill:none;stroke:#000000;stroke-width:2;stroke-linecap:round;stroke-miterlimit:10;" x1="18" y1="20" x2="18" y2="11"/>
<line style="fill:none;stroke:#000000;stroke-width:2;stroke-linecap:round;stroke-miterlimit:10;" x1="11" y1="20" x2="11" y2="11"/>
<line style="fill:none;stroke:#000000;stroke-width:2;stroke-linecap:round;stroke-linejoin:round;stroke-miterlimit:10;" x1="25" y1="25" x2="25" y2="45"/>
<circle cx="29" cy="35" r="1"/>
<circle cx="21" cy="35" r="1"/>
<path d="M46,10.88V7c0-1.654-1.346-3-3-3H7C5.346,4,4,5.346,4,7v3.88c-0.168,0.694-1,4.251-1,6.62c0,1.525,0.364,2.772,1,3.702V46
	h42V21.202c0.636-0.931,1-2.178,1-3.702C47,15.131,46.168,11.574,46,10.88z M14,7c0.552,0,1,0.448,1,1c0,0.552-0.448,1-1,1
	s-1-0.448-1-1C13,7.448,13.448,7,14,7z M11,7c0.552,0,1,0.448,1,1c0,0.552-0.448,1-1,1s-1-0.448-1-1C10,7.448,10.448,7,11,7z M8,7
	c0.552,0,1,0.448,1,1c0,0.552-0.448,1-1,1S7,8.552,7,8C7,7.448,7.448,7,8,7z M39,44H12V26h27V44z M44.401,20.026
	c-0.135,0.103-0.251,0.228-0.319,0.386C43.709,20.767,43.206,21,42.5,21c-1.053,0-2.044-0.484-2.719-1.328L39,18.696l-0.781,0.976
	C37.544,20.516,36.553,21,35.5,21s-2.044-0.484-2.719-1.328L32,18.696l-0.781,0.976C30.544,20.516,29.553,21,28.5,21
	c-1.052,0-2.043-0.484-2.72-1.328L25,18.697l-0.78,0.975C23.543,20.516,22.552,21,21.5,21s-2.043-0.484-2.72-1.328L18,18.697
	l-0.78,0.975C16.543,20.516,15.552,21,14.5,21s-2.043-0.484-2.72-1.328L11,18.697l-0.78,0.975C9.543,20.516,8.552,21,7.5,21
	C5.434,21,5,19.097,5,17.5c0-1.706,0.514-4.245,0.794-5.5h38.412C44.486,13.255,45,15.794,45,17.5
	C45,18.374,44.858,19.33,44.401,20.026z"/>
</svg>