<?xml version="1.0" encoding="utf-8"?><!-- Generator: Adobe Illustrator 21.0.2, SVG Export Plug-In . SVG Version: 6.00 Build 0)  --><svg xmlns="http://www.w3.org/2000/svg" xmlns:xlink="http://www.w3.org/1999/xlink" viewBox="0 0 50 50" width="500px" height="500px"><style type="text/css">.st0{fill:none;stroke:#000000;stroke-width:2;stroke-miterlimit:10;}</style><g><circle class="st0" cx="13" cy="39" r="5"/></g><g><circle class="st0" cx="40" cy="39" r="5"/></g><path class="st0" d="M45,39h2c1,0,2-1,2-2c0,0,0-7.9,0-9.6s-1.4-3.7-1.4-3.7l-4.1-5.5c-0.8-1-2.1-2.2-3.5-2.2h-8c-1,0-2,1-2,2v21h5 M49,28c0,0-9,0-10,0s-2-1-2-2c0-0.6,0-8.5,0-10"/><path class="st0" d="M5,9H2.8C1.8,9,1,9.8,1,10.8V14"/><path class="st0" d="M1,34v3.2c0,1,0.8,1.8,1.8,1.8H5"/><g><polygon points="21,29.6 16.4,25.5 17.7,24 20.8,26.8 26.1,21 27.6,22.3 "/></g><line class="st0" x1="1" y1="16" x2="1" y2="20"/><line class="st0" x1="1" y1="22" x2="1" y2="26"/><line class="st0" x1="1" y1="28" x2="1" y2="32"/><line class="st0" x1="7" y1="9" x2="11" y2="9"/><path class="st0" d="M30,39H18"/><path class="st0" d="M14,34V9h14.2c1,0,1.8,0.8,1.8,1.8V22"/></svg>