<?xml version="1.0" encoding="iso-8859-1"?>
<!-- Generator: Adobe Illustrator 23.0.3, SVG Export Plug-In . SVG Version: 6.00 Build 0)  -->
<svg version="1.1" id="Layer_1" xmlns="http://www.w3.org/2000/svg" xmlns:xlink="http://www.w3.org/1999/xlink" x="0px" y="0px"
	 viewBox="0 0 50 50" style="enable-background:new 0 0 50 50;" xml:space="preserve">
<path d="M49,36h-2.539C46.795,35.413,47,34.738,47,34V12c0-2.243-1.757-4-4-4H7c-2.243,0-4,1.757-4,4v22
	c0,0.738,0.205,1.413,0.539,2H1c-0.552,0-1,0.447-1,1c0,2.757,2.243,5,5,5h40c2.757,0,5-2.243,5-5C50,36.447,49.552,36,49,36z M5,34
	V12c0-1.141,0.86-2,2-2h36c1.14,0,2,0.859,2,2v22c0,1.141-0.86,2-2,2H7C5.86,36,5,35.141,5,34z"/>
<path d="M32,14H18c-1.105,0-2,0.895-2,2v14c0,1.105,0.895,2,2,2h14c1.105,0,2-0.895,2-2V16C34,14.895,33.105,14,32,14z M27,21h-4v-5
	h4V21z"/>
</svg>