<svg xmlns="http://www.w3.org/2000/svg"  viewBox="0 0 50.176 44.175" width="50px" height="50px"><title>ios-fld_bitcoin-accepted</title><g id="Слой_2" data-name="Слой 2"><g id="Слой_6" data-name="Слой 6"><path d="M45.153,25.9l-10.74,7.23a7.411,7.411,0,0,1-4.218.9H24.171a27.537,27.537,0,0,1-6.123-1,.443.443,0,0,1-.3-.6.418.418,0,0,1,.6-.3h.1a26.023,26.023,0,0,0,6.024,1H30.2a2.985,2.985,0,0,0,1.807-.5,2.9,2.9,0,0,0,.9-1c0-.1.1-.1.1-.2v-.1a2.261,2.261,0,0,0,.1-.807c0-1.2-1-2.407-3.013-2.51a30.094,30.094,0,0,1-5.617-1,13.539,13.539,0,0,1-2.111-.8,7.707,7.707,0,0,1-1-.905c-1.2-1.308-3.012-3.316-7.831-3.316-2.51,0-4.72.909-12.95,4.621a1,1,0,0,0-.5,1.3L5.4,39.755a1.153,1.153,0,0,0,.6.6,1.057,1.057,0,0,0,.8-.1l2.712-1.806c1.206-.8,1.708-.905,3.313-.1l2.111,1.107c2.51,1.3,5.921,3.111,6.925,3.613a9.04,9.04,0,0,0,4.017,1.107A7.634,7.634,0,0,0,30.4,42.566c1.2-.8,15.863-10.337,17.168-11.242,1.605-1.1,2.609-2.412,2.609-3.416C50.273,25.1,47.565,24.4,45.153,25.9Z"/><path d="M34.212,30.517a3.538,3.538,0,0,1-.605,1.91l.1-.1.1-.095L44.853,24.9c-.3-1.308-1.909-1.81-2.913-1.81A7.4,7.4,0,0,0,38.026,24.6l-5.02,3.411A3.336,3.336,0,0,1,34.212,30.517Z"/><path d="M30.2,27a5.419,5.419,0,0,1,1.906.4l6.526-4.419a6.677,6.677,0,0,0-3.309-1A5.977,5.977,0,0,0,32,23.09c-.7.4-3.712,2.308-5.519,3.411A17.892,17.892,0,0,0,30.2,27Z"/><path d="M27.076,9.023a1,1,0,0,0-1-1h-3v2h3A1,1,0,0,0,27.076,9.023Z"/><path d="M27.086,12.023h-4.01v2h4.01a1,1,0,0,0,0-2Z"/><path d="M25.175,0A11.043,11.043,0,1,0,36.22,11.045,11.054,11.054,0,0,0,25.175,0Zm1.911,16.023h-1.01v2h-2v-2h-3v-10h3v-2h2v2a3,3,0,0,1,2.616,4.469,3,3,0,0,1-1.606,5.531Z"/></g></g></svg>