<svg xmlns="http://www.w3.org/2000/svg"  viewBox="0 0 50 50" width="50px" height="50px"><path d="M 0 12 L 0 38 L 6 38 L 6 34 L 4 34 L 4 16 L 6 16 L 6 12 Z M 44 12 L 44 16 L 46 16 L 46 34 L 44 34 L 44 38 L 50 38 L 50 12 Z M 6.3125 20 L 10.1875 25.15625 L 6 31 L 8.1875 31 L 11.40625 26.4375 L 14.59375 31 L 17 31 L 12.59375 25.0625 L 16.40625 20 L 14.1875 20 L 11.40625 23.90625 L 8.6875 20 Z M 19.8125 20 L 23.59375 25.15625 L 19.40625 31 L 21.6875 31 L 24.90625 26.4375 L 28.09375 31 L 30.5 31 L 26.09375 25.0625 L 30 20 L 27.6875 20 L 24.90625 23.90625 L 22.1875 20 Z M 33.40625 20 L 37.09375 25.15625 L 32.90625 31 L 35.1875 31 L 38.40625 26.4375 L 41.59375 31 L 44 31 L 39.59375 25.0625 L 43.5 20 L 41.3125 20 L 38.5 23.90625 L 35.8125 20 Z"/></svg>