<?xml version="1.0" encoding="utf-8"?><!-- Generator: Adobe Illustrator 18.1.1, SVG Export Plug-In . SVG Version: 6.00 Build 0)  --><svg xmlns="http://www.w3.org/2000/svg" xmlns:xlink="http://www.w3.org/1999/xlink" viewBox="0 0 50 50" width="50px" height="50px"><g><path d="M43.9,30.2L30.4,16.6l-6.5,2.5c-3.8,1.5-8.1,0.5-10.8-2.5c-0.6-0.6-0.4-1.6,0.4-1.9L27,8.1l0,0c-0.2-0.3-0.5-0.5-0.9-0.5H10.1L1.2,5.5c-0.3-0.1-0.6,0-0.9,0.2C0.1,5.8,0,6.1,0,6.4v21.8c0,0.5,0.4,0.9,0.8,1l4.3,0.7l0,0c0.1-0.4,0.3-0.9,0.7-1.2l1-1c1.1-1.1,2.8-1.1,3.9,0c1.1,1.1,1.1,2.8,0,3.9c1.1-1.1,2.8-1.1,3.9,0c1.1,1.1,1.1,2.8,0,3.9c1.1-1.1,2.8-1.1,3.9,0c1.1,1.1,1.1,2.8,0,3.9c1.1-1.1,2.8-1.1,3.9,0c1.1,1.1,1.1,2.8,0,3.9l-1,1c-0.3,0.3-0.8,0.6-1.2,0.7l2.3,2.3c0.8,0.8,1.9,1.3,3,1.3c1.1,0,2.2-0.4,3-1.3c0.8-0.8,1.2-1.8,1.3-2.9c1.4,0.3,3-0.1,4.1-1.1c0.8-0.8,1.2-1.8,1.3-2.9c1.4,0.3,3-0.1,4.1-1.1c0.9-0.9,1.3-2.2,1.2-3.4c1.3,0.1,2.5-0.3,3.4-1.2c1.3-1.3,1.6-3.4,0.8-5L43.9,30.2z"/></g><g><path fill="none" stroke="#000000" stroke-width="2" stroke-linecap="round" stroke-miterlimit="10" d="M30.4,16.6l-6.5,2.5c-3.8,1.5-8.1,0.5-10.8-2.5l0,0c-0.6-0.6-0.4-1.6,0.4-1.9l18.2-8.9c2.2-1.1,4.8-0.9,6.8,0.5L39,6.9c1.6,1.1,3.5,1.4,5.3,0.9l4.7-1"/><polyline fill="none" stroke="#000000" stroke-width="2" stroke-linecap="round" stroke-miterlimit="10" points="49,28.5 45,29.1 43.9,30.2 "/><path fill="none" stroke="#000000" stroke-width="2" stroke-linecap="round" stroke-miterlimit="10" d="M17.4,44.2L17.4,44.2c1.1,1.1,2.8,1.1,3.9,0l1-1c1.1-1.1,1.1-2.8,0-3.9l0,0c-1.1-1.1-2.8-1.1-3.9,0l-1,1C16.4,41.4,16.4,43.2,17.4,44.2z"/><path fill="none" stroke="#000000" stroke-width="2" stroke-linecap="round" stroke-miterlimit="10" d="M13.6,40.4L13.6,40.4c1.1,1.1,2.8,1.1,3.9,0l1-1c1.1-1.1,1.1-2.8,0-3.9l0,0c-1.1-1.1-2.8-1.1-3.9,0l-1,1C12.5,37.6,12.5,39.3,13.6,40.4z"/><path fill="none" stroke="#000000" stroke-width="2" stroke-linecap="round" stroke-miterlimit="10" d="M9.7,36.5L9.7,36.5c1.1,1.1,2.8,1.1,3.9,0l1-1c1.1-1.1,1.1-2.8,0-3.9l0,0c-1.1-1.1-2.8-1.1-3.9,0l-1,1C8.6,33.7,8.6,35.4,9.7,36.5z"/><path fill="none" stroke="#000000" stroke-width="2" stroke-linecap="round" stroke-miterlimit="10" d="M5.8,32.6L5.8,32.6c1.1,1.1,2.8,1.1,3.9,0l1-1c1.1-1.1,1.1-2.8,0-3.9l0,0c-1.1-1.1-2.8-1.1-3.9,0l-1,1C4.7,29.8,4.7,31.5,5.8,32.6z"/></g></svg>