<?xml version="1.0" encoding="utf-8"?><!-- Generator: Adobe Illustrator 15.0.0, SVG Export Plug-In . SVG Version: 6.00 Build 0)  --><!DOCTYPE svg PUBLIC "-//W3C//DTD SVG 1.1//EN" "http://www.w3.org/Graphics/SVG/1.1/DTD/svg11.dtd"><svg xmlns="http://www.w3.org/2000/svg" xmlns:xlink="http://www.w3.org/1999/xlink" viewBox="0 0 50 50" width="50px" height="50px"><rect fill="none" width="50" height="50"/><path d="M34,20c-0.553,0-1-0.448-1-1v-8c0-4.411-3.589-8-8-8s-8,3.589-8,8v8c0,0.552-0.448,1-1,1s-1-0.448-1-1v-8c0-5.514,4.486-10,10-10c5.514,0,10,4.486,10,10v8C35,19.552,34.553,20,34,20z"/><path d="M42.893,13H37v6c0,1.657-1.343,3-3,3c-0.222,0-0.437-0.028-0.645-0.073c-0.004-0.001-0.007-0.002-0.01-0.003C32.004,21.625,31,20.432,31,19c0-1.657,1.343-3,3-3c0.353,0,0.686,0.072,1,0.184V13H19v6c0,1.657-1.343,3-3,3c-0.222,0-0.437-0.028-0.645-0.073c-0.002,0-0.004-0.001-0.006-0.002C14.005,21.626,13,20.433,13,19c0-1.657,1.343-3,3-3c0.353,0,0.686,0.072,1,0.184V13H7.108L2.879,50h44.242L42.893,13z"/></svg>