<?xml version="1.0" encoding="iso-8859-1"?><!-- Generator: Adobe Illustrator 21.0.2, SVG Export Plug-In . SVG Version: 6.00 Build 0)  --><svg xmlns="http://www.w3.org/2000/svg" xmlns:xlink="http://www.w3.org/1999/xlink" viewBox="0 0 50 50" width="500px" height="500px"><line style="fill:none;stroke:#000000;stroke-width:2;stroke-miterlimit:10;" x1="26" y1="18" x2="34" y2="10"/><line style="fill:none;stroke:#000000;stroke-width:2;stroke-miterlimit:10;" x1="40" y1="16" x2="32" y2="24"/><line style="fill:none;stroke:#000000;stroke-width:2;stroke-linecap:round;stroke-miterlimit:10;" x1="15" y1="31" x2="19" y2="35"/><path style="fill:none;stroke:#000000;stroke-width:2;stroke-miterlimit:10;" d="M27.84,20.02L3.871,42.277c-1.132,1.051-1.165,2.832-0.073,3.925c1.092,1.092,2.873,1.059,3.925-0.073L29.98,22.16L27.84,20.02z"/><line style="fill:none;stroke:#000000;stroke-width:2;stroke-miterlimit:10;" x1="30.36" y1="6.36" x2="43.64" y2="19.64"/><line style="fill:none;stroke:#000000;stroke-width:2;stroke-miterlimit:10;" x1="35.64" y1="27.64" x2="22.36" y2="14.36"/><path style="fill:none;stroke:#000000;stroke-width:2;stroke-miterlimit:10;" d="M30.414,3.586c-0.781-0.781-2.047-0.781-2.828,0c-0.492,0.492-7.508,7.508-8,8c-0.781,0.781-0.781,2.047,0,2.828c0.781,0.781,2.047,0.781,2.828,0c0.492-0.492,7.508-7.508,8-8C31.195,5.633,31.195,4.367,30.414,3.586z"/><path style="fill:none;stroke:#000000;stroke-width:2;stroke-miterlimit:10;" d="M46.414,19.586c-0.781-0.781-2.047-0.781-2.828,0c-0.492,0.492-7.508,7.508-8,8c-0.781,0.781-0.781,2.047,0,2.828c0.781,0.781,2.047,0.781,2.828,0c0.492-0.492,7.508-7.508,8-8C47.195,21.633,47.195,20.367,46.414,19.586z"/></svg>