<?xml version="1.0" encoding="utf-8"?><!-- Generator: Adobe Illustrator 18.1.1, SVG Export Plug-In . SVG Version: 6.00 Build 0)  --><svg xmlns="http://www.w3.org/2000/svg" xmlns:xlink="http://www.w3.org/1999/xlink" viewBox="0 0 50 50" width="500px" height="500px"><polyline fill="none" stroke="#000000" stroke-width="2" stroke-linecap="square" stroke-miterlimit="10" points="18,29 23,34 33,24 "/><polyline fill="none" stroke="#000000" stroke-width="2" stroke-linecap="round" stroke-linejoin="round" stroke-miterlimit="10" points="12,16 24.9,3 38,16 "/><path fill="none" stroke="#000000" stroke-width="2" stroke-linecap="round" stroke-linejoin="round" stroke-miterlimit="10" d="M48,16H2c-0.6,0-1,0.4-1,1v4c0,0.6,0.4,1,1,1h0.9l5.6,18.6c0.3,0.8,1,1.4,1.9,1.4h29c0.9,0,1.7-0.6,1.9-1.4L47.1,22H48c0.6,0,1-0.4,1-1v-4C49,16.4,48.6,16,48,16z"/></svg>