<?xml version="1.0" encoding="utf-8"?><!-- Generator: Adobe Illustrator 17.1.0, SVG Export Plug-In . SVG Version: 6.00 Build 0)  --><!DOCTYPE svg PUBLIC "-//W3C//DTD SVG 1.1//EN" "http://www.w3.org/Graphics/SVG/1.1/DTD/svg11.dtd"><svg xmlns="http://www.w3.org/2000/svg" xmlns:xlink="http://www.w3.org/1999/xlink" viewBox="0 0 50 50" width="500px" height="500px"><path style="fill:none;stroke:#000000;stroke-width:2;stroke-linecap:round;stroke-miterlimit:10;" d="M7,20H4c-1.6,0-3,1.3-3,3v26h48V23c0-1.6-1.3-3-3-3h-6"/><path d="M26.1,43h-2.1c-0.5,0-0.9-0.4-0.9-0.9v-2.1c0-0.5,0.4-0.9,0.9-0.9h2.1c0.5,0,0.9,0.4,0.9,0.9v2.1C27,42.6,26.6,43,26.1,43z"/><path d="M35.1,43h-2.1c-0.5,0-0.9-0.4-0.9-0.9v-2.1c0-0.5,0.4-0.9,0.9-0.9h2.1c0.5,0,0.9,0.4,0.9,0.9v2.1C36,42.6,35.6,43,35.1,43z"/><path d="M17.1,43h-2.1c-0.5,0-0.9-0.4-0.9-0.9v-2.1c0-0.5,0.4-0.9,0.9-0.9h2.1c0.5,0,0.9,0.4,0.9,0.9v2.1C18,42.6,17.6,43,17.1,43z"/><path style="fill:none;stroke:#000000;stroke-width:2;stroke-linecap:round;stroke-miterlimit:10;" d="M40.7,45H9.3C8.6,45,8,44.4,8,43.7v-5.5C8,37.6,8.6,37,9.3,37h31.5c0.7,0,1.3,0.6,1.3,1.3v5.5C42,44.4,41.4,45,40.7,45z"/><path style="fill:none;stroke:#000000;stroke-width:2;stroke-linecap:round;stroke-linejoin:round;stroke-miterlimit:10;" d="M39,1l-3,3l-5-3l-3,3l-5-3l-3,3l-5-3l-3,3L7,1c0,0,3,6,3,11s-3,7-3,11s3,11,3,11h32c0,0-3-6-3-11s3-6,3-11S39,1,39,1z"/></svg>