<?xml version="1.0" encoding="utf-8"?><!-- Generator: Adobe Illustrator 15.0.0, SVG Export Plug-In . SVG Version: 6.00 Build 0)  --><!DOCTYPE svg PUBLIC "-//W3C//DTD SVG 1.1//EN" "http://www.w3.org/Graphics/SVG/1.1/DTD/svg11.dtd"><svg xmlns="http://www.w3.org/2000/svg" xmlns:xlink="http://www.w3.org/1999/xlink" viewBox="0 0 50 50" width="50px" height="50px"><path d="M47,20.111v14.778c1.805-1.451,3-4.184,3-7.39S48.805,21.561,47,20.111z"/><path d="M8,38c-1.654,0-3-1.346-3-3V20c0-1.654,1.346-3,3-3s3,1.346,3,3v15C11,36.654,9.654,38,8,38z"/><path d="M3,20.111c-1.805,1.45-3,4.183-3,7.389s1.195,5.938,3,7.389V20.111z"/><path d="M42,15c0.188,0,0.367,0.035,0.551,0.056C40.746,7.023,33.568,1,25,1C16.431,1,9.254,7.023,7.449,15.056C7.632,15.035,7.812,15,8,15c0.513,0,0.998,0.1,1.464,0.244C11.16,8.231,17.473,3,25,3c7.525,0,13.84,5.231,15.536,12.244C41.002,15.1,41.486,15,42,15z"/><path d="M42,38c-1.654,0-3-1.346-3-3V20c0-1.654,1.346-3,3-3s3,1.346,3,3v15C45,36.654,43.654,38,42,38z"/><path d="M28,48h-5c-1.654,0-3-1.346-3-3s1.346-3,3-3h5c1.654,0,3,1.346,3,3S29.654,48,28,48z"/><path d="M42,40c-0.492,0-0.959-0.094-1.408-0.227C39.71,42.488,37.418,44,34,44h-1.102C32.965,44.323,33,44.657,33,45s-0.035,0.677-0.102,1H34c4.493,0,7.606-2.26,8.631-6.063C42.422,39.963,42.216,40,42,40z"/></svg>