<?xml version="1.0" encoding="iso-8859-1"?><!-- Generator: Adobe Illustrator 23.0.3, SVG Export Plug-In . SVG Version: 6.00 Build 0)  --><svg xmlns="http://www.w3.org/2000/svg" xmlns:xlink="http://www.w3.org/1999/xlink" viewBox="0 0 50 50" width="500px" height="500px"><g><path style="fill:none;stroke:#000000;stroke-width:2;stroke-linecap:round;" d="M10,45V28h9v17"/><path style="fill:none;stroke:#000000;stroke-width:2;stroke-linecap:round;" d="M11,21.297C11.824,22.328,13.078,23,14.5,23s2.676-0.672,3.5-1.703"/><path style="fill:none;stroke:#000000;stroke-width:2;stroke-linecap:round;" d="M39,21.297C39.824,22.328,41.078,23,42.5,23c2.484,0,3.5-2.016,3.5-4.5S45,11,45,11H5c0,0-1,5.016-1,7.5S5.016,23,7.5,23c1.422,0,2.676-0.672,3.5-1.703"/><path style="fill:none;stroke:#000000;stroke-width:2;stroke-linecap:round;" d="M32,21.297C32.824,22.328,34.078,23,35.5,23s2.676-0.672,3.5-1.703"/><path style="fill:none;stroke:#000000;stroke-width:2;stroke-linecap:round;" d="M25,21.297C25.824,22.328,27.078,23,28.5,23s2.676-0.672,3.5-1.703"/><path style="fill:none;stroke:#000000;stroke-width:2;stroke-linecap:round;" d="M18,21.297C18.824,22.328,20.078,23,21.5,23s2.676-0.672,3.5-1.703"/><path style="fill:none;stroke:#000000;stroke-width:2;stroke-linecap:round;" d="M39,21.25v-10"/><path style="fill:none;stroke:#000000;stroke-width:2;stroke-linecap:round;" d="M32,21.25V11"/><path style="fill:none;stroke:#000000;stroke-width:2;stroke-linecap:round;" d="M25,21.25V11"/><path style="fill:none;stroke:#000000;stroke-width:2;stroke-linecap:round;" d="M18,21.25V11"/><path style="fill:none;stroke:#000000;stroke-width:2;" d="M11,21.25V11"/><path d="M9,8c0,0.551-0.449,1-1,1S7,8.551,7,8s0.449-1,1-1S9,7.449,9,8z"/><path d="M12,8c0,0.551-0.449,1-1,1s-1-0.449-1-1s0.449-1,1-1S12,7.449,12,8z"/><path d="M15,8c0,0.551-0.449,1-1,1s-1-0.449-1-1s0.449-1,1-1S15,7.449,15,8z"/><path style="fill:none;stroke:#000000;stroke-width:2;" d="M5,11V7c0-1.105,0.895-2,2-2h36c1.105,0,2,0.895,2,2v4H5z"/><g><path d="M28.036,44.091L28.097,44H7c-0.552,0-1-0.448-1-1V22c0-0.553-0.447-1-1-1s-1,0.447-1,1v21c0,1.654,1.346,3,3,3h20.871C27.605,45.391,27.649,44.671,28.036,44.091z"/><path d="M44.12,28.085c0.354-0.258,0.768-0.385,1.179-0.385c0.239,0,0.476,0.047,0.701,0.131V22c0-0.553-0.447-1-1-1s-1,0.447-1,1v6.173L44.12,28.085z"/></g><path d="M41.1,50H37l-0.5-3.2c-0.4-0.1-0.7-0.2-1.1-0.4l-2.7,1.8l-3-3l1.8-2.7c-0.2-0.3-0.3-0.7-0.4-1L28,41v-4.2l3.1-0.5c0.1-0.4,0.3-0.7,0.4-1.1l-1.8-2.5l3-3l2.7,1.9c0.3-0.2,0.7-0.3,1-0.4L37,28h4.2l0.5,3.2c0.3,0.1,0.7,0.2,1,0.4l2.6-1.9l2.9,2.9l-1.8,2.7c0.2,0.3,0.3,0.7,0.4,1l3.2,0.5V41l-3.1,0.6c-0.1,0.3-0.2,0.7-0.4,1.1l1.9,2.6l-3,3l-2.7-1.8c-0.4,0.2-0.7,0.3-1,0.4L41.1,50z M38.6,48h0.8l0.5-2.8l0.6-0.2c0.6-0.2,1.2-0.4,1.8-0.7l0.5-0.3l2.3,1.6l0.6-0.6L44,42.7l0.4-0.6c0.3-0.5,0.5-1.1,0.7-1.7l0.2-0.6l2.7-0.6v-0.8L45.2,38L45,37.4c-0.2-0.6-0.4-1.2-0.7-1.8L44,35.1l1.6-2.3l-0.5-0.5L42.8,34l-0.6-0.4c-0.5-0.3-1.1-0.5-1.7-0.7l-0.6-0.2L39.5,30h-0.8l-0.5,2.8l-0.6,0.1c-0.6,0.2-1.2,0.5-1.9,0.8l-0.5,0.2l-2.3-1.6l-0.6,0.6l1.6,2.3l-0.4,0.5c-0.3,0.5-0.5,1.1-0.6,1.6L32.8,38L30,38.5v0.8l2.7,0.5l0.2,0.6c0.2,0.5,0.4,1.2,0.7,1.8l0.3,0.5L32.3,45l0.6,0.6l2.4-1.6l0.6,0.4c0.5,0.3,1.1,0.5,1.7,0.7l0.6,0.2L38.6,48z M39,42.9c-2.2,0-4-1.8-4-4c0-2.2,1.8-4,4-4s4,1.8,4,4C43,41.2,41.2,42.9,39,42.9z M39,37c-1.1,0-2,0.9-2,2s0.9,2,2,2s2-0.9,2-2C41,37.8,40.1,37,39,37z"/></g></svg>