<?xml version="1.0" encoding="iso-8859-1"?>
<!-- Generator: Adobe Illustrator 22.1.0, SVG Export Plug-In . SVG Version: 6.00 Build 0)  -->
<svg version="1.1" id="Layer_1" xmlns="http://www.w3.org/2000/svg" xmlns:xlink="http://www.w3.org/1999/xlink" x="0px" y="0px"
	 viewBox="0 0 50 50" style="enable-background:new 0 0 50 50;" xml:space="preserve">
<g>
</g>
<rect x="27" y="21" style="fill:none;stroke:#000000;stroke-width:2;stroke-linejoin:round;stroke-miterlimit:10;" width="15" height="14"/>
<path d="M28.004,12C25.244,12,23,9.756,23,6.996C23,4.242,25.244,2,28.004,2C30.758,2,33,4.242,33,6.996
	C33,9.756,30.758,12,28.004,12z"/>
<path d="M35.346,24.314l-6.36-3.635c0,0-4.429-5.552-4.437-5.557C23.399,13.773,21.741,13,20,13c-1.673,0-3.283,0.707-4.418,1.939
	c-0.696,0.759-6.52,8.317-7.373,9.448C7.418,25.436,7,26.685,7,28c0,1.613,0.764,3.048,1.95,3.962
	c0.467,0.36,3.178,2.468,5.512,4.284l-5.366,5.701c-1.383,1.469-1.402,3.902,0.131,5.213C9.882,47.722,10.691,48,11.499,48
	c0.932,0,1.861-0.369,2.55-1.102l8-8.5c1.207-1.283,1.273-3.263,0.153-4.623l-4.828-5.862l4.511-5.413l2.648,2.81
	c0.319,0.338,0.694,0.618,1.109,0.828l6.87,3.467c0.47,0.269,0.98,0.396,1.485,0.396c1.1,0,2.166-0.606,2.695-1.678
	C37.407,26.876,36.747,25.115,35.346,24.314z"/>
<path d="M24.896,44.216l-1.252-4.624c-0.05,0.057-0.086,0.122-0.139,0.178l-4.75,5.047c0.246,0.698,0.411,1.168,0.417,1.183
	c0.428,1.215,1.578,2.001,2.826,2.001c0.26,0,0.523-0.034,0.786-0.105C24.383,47.463,25.329,45.815,24.896,44.216z"/>
</svg>