<?xml version="1.0" encoding="iso-8859-1"?>
<!-- Generator: Adobe Illustrator 24.1.2, SVG Export Plug-In . SVG Version: 6.00 Build 0)  -->
<svg version="1.1" xmlns="http://www.w3.org/2000/svg" xmlns:xlink="http://www.w3.org/1999/xlink" x="0px" y="0px"
	 viewBox="0 0 50 50" style="enable-background:new 0 0 50 50;" xml:space="preserve">
<g id="Layer_1">
	<g>
		<path style="fill:none;stroke:#000000;stroke-width:2;stroke-linecap:round;stroke-linejoin:round;stroke-miterlimit:10;" d="
			M42.843,16C39.547,9.48,32.805,5,25,5S10.453,9.48,7.157,16H42.843z"/>
		<path style="fill:none;stroke:#000000;stroke-width:2;stroke-linecap:round;stroke-linejoin:round;stroke-miterlimit:10;" d="
			M7.157,34C10.453,40.52,17.195,45,25,45s14.547-4.48,17.843-11H7.157z"/>
	</g>
	
		<rect x="4" y="16" style="fill:none;stroke:#000000;stroke-width:2;stroke-linecap:round;stroke-linejoin:round;stroke-miterlimit:10;" width="42" height="18"/>
	<g>
		<path d="M10.025,29v-8.455h1.477l3.891,5.268h0.105v-5.268h1.693V29h-1.465l-3.902-5.291h-0.105V29H10.025z"/>
		<path d="M24.844,29h-5.602v-8.455h5.602v1.512h-3.832v1.975h3.615v1.4h-3.615v2.057h3.832V29z"/>
		<path d="M30.105,29h-1.67l-2.238-8.455h1.84l1.318,5.959h0.094l1.541-5.959h1.494l1.57,5.959h0.094l1.307-5.959h1.828L35.039,29
			h-1.658l-1.6-5.596h-0.094L30.105,29z"/>
		<path d="M39.932,27.178c0.662,0,1.066,0.381,1.066,1.002c0,0.615-0.404,0.996-1.066,0.996c-0.656,0-1.066-0.381-1.066-0.996
			C38.865,27.559,39.275,27.178,39.932,27.178z M40.869,20.545l-0.158,5.672h-1.564l-0.152-5.672H40.869z"/>
	</g>
</g>
<g id="&#x421;&#x43B;&#x43E;&#x439;_1">
</g>
<g id="&#x420;&#x435;&#x436;&#x438;&#x43C;_&#x438;&#x437;&#x43E;&#x43B;&#x44F;&#x446;&#x438;&#x438;">
</g>
</svg>