<?xml version="1.0" encoding="iso-8859-1"?><!-- Generator: Adobe Illustrator 19.1.1, SVG Export Plug-In . SVG Version: 6.00 Build 0)  --><svg xmlns="http://www.w3.org/2000/svg" xmlns:xlink="http://www.w3.org/1999/xlink" viewBox="0 0 50 50" width="50px" height="50px"><path style="fill:none;stroke:#000000;stroke-width:2;stroke-miterlimit:10;" d="M32,45H7V3h36v25"/><line style="fill:none;stroke:#000000;stroke-width:2;stroke-miterlimit:10;" x1="36" y1="12" x2="14" y2="12"/><line style="fill:none;stroke:#000000;stroke-width:2;stroke-miterlimit:10;" x1="18" y1="25" x2="14" y2="25"/><line style="fill:none;stroke:#000000;stroke-width:2;stroke-miterlimit:10;" x1="36" y1="25" x2="21" y2="25"/><line style="fill:none;stroke:#000000;stroke-width:2;stroke-miterlimit:10;" x1="29" y1="31" x2="21" y2="31"/><line style="fill:none;stroke:#000000;stroke-width:2;stroke-miterlimit:10;" x1="18" y1="31" x2="14" y2="31"/><line style="fill:none;stroke:#000000;stroke-width:2;stroke-miterlimit:10;" x1="32" y1="37" x2="21" y2="37"/><line style="fill:none;stroke:#000000;stroke-width:2;stroke-miterlimit:10;" x1="18" y1="37" x2="14" y2="37"/><g ><path d="M44,35c0,2.2-3,3-3,3s-3-0.8-3-3H44z M50,49c0,0.6-0.4,1-1,1H33c-0.6,0-1-0.4-1-1s0.4-1,1-1h1v-3c0-1.5,0.7-2.7,2-3.7l1.5-1.3l-1.6-1.3c-1.2-1-1.9-2.3-1.9-3.7v-3h-1c-0.6,0-1-0.4-1-1s0.4-1,1-1h16c0.6,0,1,0.4,1,1s-0.4,1-1,1h-1v3c0,1.4-0.6,2.7-1.9,3.7L44.6,40l1.5,1.3c1.3,1,1.9,2.3,1.9,3.7v3h0.9C49.6,48,50,48.4,50,49z M44,48h2v-3c0-0.9-0.3-1.5-1.1-2.2l-2.4-2.1c-0.3-0.1-0.4-0.4-0.4-0.7s0.1-0.6,0.4-0.8l2.4-2c0.8-0.7,1.1-1.4,1.1-2.2v-3H36v3c0,0.8,0.4,1.5,1.2,2.2l2.4,2.1c0.3,0.1,0.4,0.4,0.4,0.7s-0.1,0.6-0.4,0.8l-2.4,2C36.4,43.5,36,44.1,36,45v3h2c0-2,3-4,3-4S44,46,44,48z"/></g><path d="M32.091,36H30v2h2.776C32.435,37.366,32.204,36.694,32.091,36z"/><path d="M30,31c0-0.353,0.072-0.686,0.184-1H28v2h2.184C30.072,31.686,30,31.353,30,31z"/></svg>