<?xml version="1.0" encoding="utf-8"?><!-- Generator: Adobe Illustrator 15.0.0, SVG Export Plug-In . SVG Version: 6.00 Build 0)  --><!DOCTYPE svg PUBLIC "-//W3C//DTD SVG 1.1//EN" "http://www.w3.org/Graphics/SVG/1.1/DTD/svg11.dtd"><svg xmlns="http://www.w3.org/2000/svg" xmlns:xlink="http://www.w3.org/1999/xlink" viewBox="0 0 50 50" width="50px" height="50px"><g><polygon points="31.564,21.728 31.564,23.325 36.182,23.325 36.182,24.946 31.564,24.946 31.564,26.632 36.391,26.632 38.695,24.063 36.658,21.741 "/><polygon points="8.662,24.674 11.211,24.674 9.911,21.692 "/><path d="M45,7H5c-2.757,0-5,2.243-5,5v26c0,2.757,2.243,5,5,5h40c2.757,0,5-2.243,5-5V12C50,9.243,47.757,7,45,7z M26.759,28.421h-2.094v-6.225L21.8,28.421h-1.903L17.1,22.088v6.333h-4.219l-0.828-1.905H7.872l-0.818,1.905H4.845l3.733-8.529h2.769l3.656,8.213v-8.213h3.283l2.56,5.719l2.571-5.719h3.342V28.421z M45.111,28.439h-2.657l-2.455-2.838l-2.515,2.82H29.5v-8.529h8.253l2.32,2.665l2.399-2.647h2.666l-3.75,4.152L45.111,28.439z"/></g></svg>