<?xml version="1.0" encoding="utf-8"?><!-- Generator: Adobe Illustrator 15.0.0, SVG Export Plug-In . SVG Version: 6.00 Build 0)  --><!DOCTYPE svg PUBLIC "-//W3C//DTD SVG 1.1//EN" "http://www.w3.org/Graphics/SVG/1.1/DTD/svg11.dtd"><svg xmlns="http://www.w3.org/2000/svg" xmlns:xlink="http://www.w3.org/1999/xlink" viewBox="0 0 50 50" width="500px" height="500px"><circle fill="none" stroke="#000000" stroke-width="2" stroke-miterlimit="10" cx="39" cy="46" r="3"/><circle fill="none" stroke="#000000" stroke-width="2" stroke-miterlimit="10" cx="26" cy="46" r="3"/><circle cx="2" cy="4" r="2"/><path d="M34.707,9.293c-0.391-0.391-1.023-0.391-1.414,0s-0.391,1.023,0,1.414L36.586,14H23c-0.552,0-1,0.448-1,1s0.448,1,1,1h13.586l-3.293,3.293c-0.391,0.391-0.391,1.023,0,1.414C33.488,20.902,33.744,21,34,21s0.512-0.098,0.707-0.293L40.414,15L34.707,9.293z"/><path d="M40.735,35.354l7.2-19c0.116-0.308,0.074-0.652-0.112-0.923C47.636,15.162,47.328,15,47,15h-3.758l-1.414,1.414l-5.707,5.707C35.555,22.688,34.801,23,34,23s-1.555-0.312-2.121-0.879C31.313,21.555,31,20.801,31,20c0-0.745,0.271-1.449,0.764-2H23c-1.654,0-3-1.346-3-3h-3.715L14.16,6.42C13.491,4.125,12.366,2,8.7,2H2C1.448,2,1,2.448,1,3s0.448,1,1,1h6.7c2.072,0,2.866,0.668,3.529,2.94l8.003,32.312C20.813,41.478,21.47,44,25.7,44H41c0.553,0,1-0.447,1-1s-0.447-1-1-1H25.7c-2.685,0-2.968-1.087-3.529-3.24L21.487,36H39.8C40.216,36,40.588,35.743,40.735,35.354z"/></svg>