<?xml version="1.0" encoding="iso-8859-1"?>
<!-- Generator: Adobe Illustrator 23.0.3, SVG Export Plug-In . SVG Version: 6.00 Build 0)  -->
<svg version="1.1" id="Layer_1" xmlns="http://www.w3.org/2000/svg" xmlns:xlink="http://www.w3.org/1999/xlink" x="0px" y="0px"
	 viewBox="0 0 50 50" style="enable-background:new 0 0 50 50;" xml:space="preserve">
<path d="M46.303,10.047l-21-7c-0.197-0.063-0.409-0.063-0.606,0l-21,7C3.282,10.179,3,10.564,3,11v35c0,0.552,0.448,1,1,1h42
	c0.552,0,1-0.448,1-1V11C47,10.564,46.718,10.179,46.303,10.047z M40,45H10V18h30V45z"/>
<line style="fill:none;stroke:#000000;stroke-width:2;stroke-linecap:round;stroke-linejoin:round;stroke-miterlimit:10;" x1="41" y1="46" x2="41.174" y2="46"/>
<path d="M24,45H14v-9c0-0.552,0.448-1,1-1h8c0.552,0,1,0.448,1,1V45z"/>
<path d="M36,45H26v-9c0-0.552,0.448-1,1-1h8c0.552,0,1,0.448,1,1V45z"/>
<path d="M29.167,33h-8.333C20.373,33,20,32.627,20,32.167v-8.333C20,23.373,20.373,23,20.833,23h8.333
	C29.627,23,30,23.373,30,23.833v8.333C30,32.627,29.627,33,29.167,33z"/>
</svg>