<?xml version="1.0" encoding="iso-8859-1"?><!-- Generator: Adobe Illustrator 22.0.1, SVG Export Plug-In . SVG Version: 6.00 Build 0)  --><svg xmlns="http://www.w3.org/2000/svg" xmlns:xlink="http://www.w3.org/1999/xlink" viewBox="0 0 50 50" width="500px" height="500px"><g></g><rect x="22" y="15" width="2" height="32"/><rect x="3" y="15" width="2" height="32"/><rect x="12" y="15" width="8" height="32"/><rect x="7" y="15" width="3" height="32"/><path d="M31,22.727V47h2V23.895C32.293,23.569,31.625,23.178,31,22.727z"/><path d="M41,24.605V47h2V23.895C42.361,24.189,41.693,24.426,41,24.605z"/><path d="M26.181,15H26v32h3V20.911C27.558,19.272,26.559,17.243,26.181,15z"/><path d="M38,25c-1.037,0-2.039-0.146-3-0.395V47h4V24.949C38.669,24.977,38.338,25,38,25z"/><path style="fill:none;stroke:#000000;stroke-width:2;stroke-linecap:round;stroke-miterlimit:10;" d="M47,13c0,4.971-4.029,9-9,9s-9-4.029-9-9s4.029-9,9-9c4.791,0,7.13,4.036,7.13,4.036"/><polyline style="fill:none;stroke:#000000;stroke-width:2;stroke-linecap:round;stroke-miterlimit:10;" points="46,3 46,9 40,9 "/></svg>