<?xml version="1.0" encoding="iso-8859-1"?><!-- Generator: Adobe Illustrator 21.1.0, SVG Export Plug-In . SVG Version: 6.00 Build 0)  --><svg xmlns="http://www.w3.org/2000/svg" xmlns:xlink="http://www.w3.org/1999/xlink" viewBox="0 0 50 50" width="500px" height="500px"><polyline style="fill:none;stroke:#000000;stroke-width:2;stroke-linecap:round;stroke-linejoin:round;stroke-miterlimit:10;" points="18.891,15.666 27.361,7.195 35.834,15.666 "/><polyline style="fill:none;stroke:#000000;stroke-width:2;stroke-linecap:round;stroke-linejoin:round;stroke-miterlimit:10;" points="31.359,11.198 35.361,7.195 43.834,15.666 "/><circle style="fill:none;stroke:#000000;stroke-width:2;stroke-miterlimit:10;" cx="26" cy="46" r="3"/><circle cx="2" cy="4" r="2"/><path style="fill:none;stroke:#000000;stroke-width:1.9868;stroke-linecap:round;stroke-linejoin:round;stroke-miterlimit:10;" d="M31,43c0,0-2.668,0-5.291,0c-3.42,0-3.922-1.744-4.523-4.025L13.191,6.696C12.472,4.273,11.459,3,8.664,3C8.664,3,3.91,3,2,3"/><line style="fill:none;stroke:#000000;stroke-width:1.9868;stroke-linecap:round;stroke-linejoin:round;stroke-miterlimit:10;" x1="32" y1="35" x2="20.609" y2="35"/><polyline style="fill:none;stroke:#000000;stroke-width:1.9868;stroke-linecap:round;stroke-linejoin:round;stroke-miterlimit:10;" points="16,16 47,16 41.323,31 "/><g id="IOS_copy_1_"><path d="M40,50c-5.5,0-10-4.5-10-10s4.5-10,10-10s10,4.5,10,10S45.5,50,40,50z M40,32c-4.4,0-8,3.6-8,8s3.6,8,8,8s8-3.6,8-8S44.4,32,40,32z M41,40.5V34h-2v5.5l-3.6,2.7l1.2,1.6L41,40.5z"/></g></svg>