<?xml version="1.0" encoding="iso-8859-1"?>
<!-- Generator: Adobe Illustrator 23.0.3, SVG Export Plug-In . SVG Version: 6.00 Build 0)  -->
<svg version="1.1" id="Layer_1" xmlns="http://www.w3.org/2000/svg" xmlns:xlink="http://www.w3.org/1999/xlink" x="0px" y="0px"
	 viewBox="0 0 50 50" style="enable-background:new 0 0 50 50;" xml:space="preserve">
<path d="M4,38v8h8v-6h9v6h8v-6h9v6h8v-8H4z"/>
<path d="M42,4H8C7.448,4,7,4.448,7,5v30c0,0.552,0.448,1,1,1h34c0.552,0,1-0.448,1-1V5C43,4.448,42.552,4,42,4z M29,14h-8
	c-1.1,0-2-0.9-2-2c0-1.1,0.9-2,2-2h8c1.1,0,2,0.9,2,2C31,13.1,30.1,14,29,14z"/>
</svg>