<?xml version="1.0" encoding="iso-8859-1"?>
<!-- Generator: Adobe Illustrator 23.0.3, SVG Export Plug-In . SVG Version: 6.00 Build 0)  -->
<svg version="1.1" id="Layer_1" xmlns="http://www.w3.org/2000/svg" xmlns:xlink="http://www.w3.org/1999/xlink" x="0px" y="0px"
	 viewBox="0 0 50 50" style="enable-background:new 0 0 50 50;" xml:space="preserve">
<path style="fill:none;stroke:#000000;stroke-width:2;stroke-linecap:round;stroke-linejoin:round;" d="M9,17h32v6H9V17z"/>
<path style="fill:none;stroke:#000000;stroke-width:2;stroke-linecap:round;stroke-linejoin:round;" d="M9,47V17h32v30h6V10L25,3
	L3,10v37H9z"/>
<g>
	<path d="M15.732,32.708c0-2.666,1.65-4.52,4.037-4.52s4.037,1.841,4.037,4.52c0,2.666-1.65,4.52-4.037,4.52
		C17.396,37.228,15.732,35.374,15.732,32.708z M17.332,46.876l6.97-9.572l6.094-8.747h2.768l-7.084,9.699l-5.967,8.62H17.332z
		 M21.496,32.695c0-1.574-0.66-2.526-1.727-2.526c-1.054,0-1.727,0.978-1.727,2.526s0.686,2.552,1.727,2.552
		S21.496,34.244,21.496,32.695z M26.6,42.712c0-2.666,1.663-4.507,4.05-4.507s4.037,1.841,4.037,4.507
		c0,2.679-1.65,4.532-4.037,4.532S26.6,45.391,26.6,42.712z M32.363,42.712c0-1.574-0.66-2.526-1.714-2.526
		s-1.727,0.978-1.727,2.526s0.686,2.552,1.727,2.552S32.363,44.261,32.363,42.712z"/>
</g>
</svg>