<?xml version="1.0" encoding="utf-8"?><!-- Generator: Adobe Illustrator 15.0.0, SVG Export Plug-In . SVG Version: 6.00 Build 0)  --><!DOCTYPE svg PUBLIC "-//W3C//DTD SVG 1.1//EN" "http://www.w3.org/Graphics/SVG/1.1/DTD/svg11.dtd"><svg xmlns="http://www.w3.org/2000/svg" xmlns:xlink="http://www.w3.org/1999/xlink" viewBox="0 0 50 50" width="50px" height="50px"><g id="Слой_1" display="none"><circle display="inline" fill="#FF0000" cx="14" cy="19" r="1.1"/><path display="inline" fill="#FF0000" d="M7.6,25.4c-0.6-0.6-1.5-0.6-2.1,0c-0.2,0.2-0.8,0.8-1,1c-0.6,0.6-0.6,1.5,0,2.1s1.5,0.6,2.1,0c0.2-0.2,0.8-0.8,1-1C8.1,27,8.1,26,7.6,25.4z"/><path display="inline" fill="#FF0000" d="M7.6,12.6c0.6-0.6,0.6-1.5,0-2.1c-0.2-0.2-0.8-0.8-1-1C6,8.9,5,8.9,4.4,9.4s-0.6,1.5,0,2.1c0.2,0.2,0.8,0.8,1,1C6,13.1,7,13.1,7.6,12.6z"/><path display="inline" fill="#FF0000" d="M4.95,33.101c-1.331,0-2.594-0.53-3.557-1.493S-0.1,29.381-0.1,28.05s0.53-2.594,1.493-3.557l2-2c0.975-0.976,2.354-1.505,3.739-1.437L21.195,7.09C22.419,5.754,24.172,5,26.1,5H30.4c0.404,0,0.77,0.244,0.924,0.617c0.155,0.374,0.069,0.804-0.217,1.09L11.944,25.871c0.067,1.367-0.459,2.759-1.437,3.737l-2,2C7.544,32.57,6.281,33.101,4.95,33.101z M6.885,23.049c-0.775,0-1.533,0.313-2.077,0.858l-2,2C2.222,26.492,1.9,27.253,1.9,28.05s0.322,1.559,0.907,2.144c1.17,1.17,3.116,1.17,4.286,0l2-2.001c0.656-0.656,0.971-1.625,0.82-2.528c-0.053-0.319,0.051-0.643,0.279-0.872L27.986,7H26.1c-1.36,0-2.59,0.524-3.463,1.476L8.205,22.81c-0.228,0.227-0.553,0.332-0.869,0.277C7.187,23.062,7.036,23.049,6.885,23.049z"/><path display="inline" fill="#FF0000" d="M30.4,33H26.1c-1.928,0-3.681-0.754-4.937-2.124l-5.669-5.669l1.414-1.414l5.7,5.7C23.509,30.476,24.739,31,26.1,31h1.887l-9.193-9.193l1.414-1.414l10.9,10.9c0.286,0.286,0.372,0.716,0.217,1.09C31.17,32.757,30.805,33,30.4,33z"/><path display="inline" fill="#FF0000" d="M9.793,19.607l-2.664-2.663c-1.368,0.071-2.759-0.459-3.737-1.437l-2-2C0.43,12.544-0.1,11.281-0.1,9.95s0.53-2.594,1.493-3.557S3.619,4.9,4.95,4.9s2.594,0.53,3.557,1.493l2,2c0.978,0.977,1.504,2.37,1.437,3.736l2.663,2.664l-1.414,1.414l-3-3c-0.229-0.229-0.333-0.553-0.279-0.872c0.15-0.903-0.164-1.872-0.821-2.528l-2-2c-1.171-1.171-3.116-1.17-4.286,0C2.222,8.392,1.9,9.153,1.9,9.95s0.322,1.558,0.907,2.143l2,2c0.656,0.657,1.625,0.97,2.528,0.821c0.319-0.053,0.644,0.051,0.872,0.279l3,3L9.793,19.607z"/><rect x="10" y="40" display="inline" fill="#FF0000" width="2" height="4"/><rect x="10" y="42" display="inline" fill="#FF0000" width="4" height="2"/><rect x="46" y="42" display="inline" fill="#FF0000" width="4" height="2"/><rect x="40" y="42" display="inline" fill="#FF0000" width="4" height="2"/><rect x="34" y="42" display="inline" fill="#FF0000" width="4" height="2"/><rect x="28" y="42" display="inline" fill="#FF0000" width="4" height="2"/><rect x="22" y="42" display="inline" fill="#FF0000" width="4" height="2"/><rect x="16" y="42" display="inline" fill="#FF0000" width="4" height="2"/><rect x="40" y="16" display="inline" fill="#FF0000" width="4" height="2"/><rect x="34" y="16" display="inline" fill="#FF0000" width="4" height="2"/><rect x="28" y="16" display="inline" fill="#FF0000" width="4" height="2"/><polygon display="inline" fill="#FF0000" points="22.6,18 24.6,16 26,16 26,18 "/><rect x="48" y="40" display="inline" fill="#FF0000" width="2" height="4"/><rect x="48" y="16" display="inline" fill="#FF0000" width="2" height="4"/><rect x="48" y="22" display="inline" fill="#FF0000" width="2" height="4"/><rect x="48" y="28" display="inline" fill="#FF0000" width="2" height="4"/><rect x="48" y="34" display="inline" fill="#FF0000" width="2" height="4"/><polygon display="inline" fill="#FF0000" points="12,38 10,38 10,34 12,32 "/><rect x="46" y="16" display="inline" fill="#FF0000" width="4" height="2"/></g><g id="Слой_1__x28_копия_x29_"><path d="M31.4,5H27.1c-1.6,0-3.1,0.6-4.2,1.8L6.6,22.988c-1.2-0.2-2.5,0.2-3.4,1.1c-0.4,0.4-1.6,1.6-2,2c-1.6,1.6-1.6,4.1,0,5.7c1.6,1.6,4.1,1.6,5.7,0c0.4-0.4,1.6-1.601,2-2c0.9-0.9,1.3-2.2,1.1-3.4L31.4,5z M14,17.9c0.607,0,1.1,0.493,1.1,1.1s-0.493,1.1-1.1,1.1s-1.1-0.493-1.1-1.1S13.393,17.9,14,17.9z M6.741,28.45c-0.2,0.2-1.36,1.256-1.56,1.456c-0.6,0.6-1.5,0.6-2.1,0s-0.6-1.5,0-2.1c0.2-0.2,1.359-1.257,1.56-1.456c0.6-0.601,1.5-0.601,2.1,0C7.241,26.95,7.241,27.95,6.741,28.45z"/><rect x="10" y="40" width="2" height="4"/><rect x="10" y="34" width="2" height="4"/><rect x="10" y="42" width="4" height="2"/><rect x="46" y="42" width="4" height="2"/><rect x="40" y="42" width="4" height="2"/><rect x="34" y="42" width="4" height="2"/><rect x="28" y="42" width="4" height="2"/><rect x="22" y="42" width="4" height="2"/><rect x="16" y="42" width="4" height="2"/><rect x="40" y="16" width="4" height="2"/><rect x="34" y="16" width="4" height="2"/><rect x="28" y="16" width="4" height="2"/><polygon points="21,18 23,16 26,16 26,18 "/><rect x="48" y="40" width="2" height="4"/><rect x="48" y="16" width="2" height="4"/><rect x="48" y="22" width="2" height="4"/><rect x="48" y="28" width="2" height="4"/><rect x="48" y="34" width="2" height="4"/><polygon points="12,32 10,32 10,31 12,27 "/><rect x="46" y="16" width="4" height="2"/><path d="M15.459,23.759L21.9,30.2c1.1,1.2,2.6,1.8,4.2,1.8H30.4L18.81,20.41L15.459,23.759z"/><path d="M3.2,13.911c0.9,0.9,2.2,1.3,3.4,1.1l2.593,2.583l3.412-3.388L10,11.611c0.2-1.2-0.2-2.5-1.1-3.4c-0.4-0.4-1.6-1.6-2-2c-1.6-1.6-4.1-1.6-5.7,0s-1.6,4.1,0,5.7C1.6,12.312,2.8,13.511,3.2,13.911z M3.051,7.927c0.623-0.576,1.522-0.542,2.098,0.081C5.342,8.215,6.46,9.314,6.652,9.522c0.48,0.519,0.441,1.518-0.081,2.099c-0.623,0.577-1.522,0.542-2.098-0.081c-0.192-0.207-1.311-1.307-1.503-1.515C2.394,9.402,2.429,8.502,3.051,7.927z"/></g></svg>