<?xml version="1.0" encoding="utf-8"?><!-- Generator: Adobe Illustrator 17.0.0, SVG Export Plug-In . SVG Version: 6.00 Build 0)  --><!DOCTYPE svg PUBLIC "-//W3C//DTD SVG 1.1//EN" "http://www.w3.org/Graphics/SVG/1.1/DTD/svg11.dtd"><svg xmlns="http://www.w3.org/2000/svg" xmlns:xlink="http://www.w3.org/1999/xlink" viewBox="0 0 50 50" width="500px" height="500px"><g><circle cx="11" cy="19" r="1"/><circle cx="14" cy="16" r="1"/><circle cx="11" cy="25" r="1"/><circle cx="14" cy="22" r="1"/><circle cx="17" cy="25" r="1"/><circle cx="17" cy="19" r="1"/><circle cx="23" cy="19" r="1"/><circle cx="26" cy="22" r="1"/><circle cx="8" cy="22" r="1"/><circle cx="23" cy="25" r="1"/><circle cx="20" cy="16" r="1"/><circle cx="20" cy="22" r="1"/><circle cx="11" cy="31" r="1"/><circle cx="14" cy="28" r="1"/><circle cx="14" cy="34" r="1"/><circle cx="17" cy="31" r="1"/><circle cx="8" cy="28" r="1"/><circle cx="23" cy="31" r="1"/><circle cx="26" cy="28" r="1"/><circle cx="20" cy="28" r="1"/><circle cx="20" cy="34" r="1"/></g><g><circle fill="none" stroke="#000000" stroke-width="2" stroke-linecap="round" stroke-linejoin="round" stroke-miterlimit="10" cx="17" cy="25" r="11"/></g><g><path fill="none" stroke="#000000" stroke-width="2" stroke-linecap="round" stroke-linejoin="round" stroke-miterlimit="10" d="M24.998,17.453C27.003,15.327,29.847,14,33,14c6.075,0,11,4.925,11,11s-4.925,11-11,11c-3.153,0-5.996-1.327-8.002-3.453"/></g><path fill="none" stroke="#000000" stroke-width="2" stroke-linecap="round" stroke-linejoin="round" stroke-miterlimit="10" d="M49,38c0,2.209-1.791,4-4,4H5c-2.209,0-4-1.791-4-4V12c0-2.209,1.791-4,4-4h40c2.209,0,4,1.791,4,4V38z"/></svg>