<?xml version="1.0" encoding="iso-8859-1"?>
<!-- Generator: Adobe Illustrator 23.0.3, SVG Export Plug-In . SVG Version: 6.00 Build 0)  -->
<svg version="1.1" id="Layer_1" xmlns="http://www.w3.org/2000/svg" xmlns:xlink="http://www.w3.org/1999/xlink" x="0px" y="0px"
	 viewBox="0 0 50 50" style="enable-background:new 0 0 50 50;" xml:space="preserve">
<path d="M40,33H4v14h36c3.86,0,7-3.141,7-7S43.86,33,40,33z M10,42c-1.105,0-2-0.895-2-2c0-1.105,0.895-2,2-2s2,0.895,2,2
	C12,41.105,11.105,42,10,42z M20,42c-1.105,0-2-0.895-2-2c0-1.105,0.895-2,2-2s2,0.895,2,2C22,41.105,21.105,42,20,42z M30,42
	c-1.105,0-2-0.895-2-2c0-1.105,0.895-2,2-2s2,0.895,2,2C32,41.105,31.105,42,30,42z M40,42c-1.105,0-2-0.895-2-2
	c0-1.105,0.895-2,2-2s2,0.895,2,2C42,41.105,41.105,42,40,42z"/>
<path d="M36,15V4c0-0.553-0.448-1-1-1H5C4.448,3,4,3.447,4,4v26c0,0.553,0.448,1,1,1h30c0.552,0,1-0.447,1-1v-9h-8v-6H36z M24,12h-8
	c-1.1,0-2-0.9-2-2c0-1.1,0.9-2,2-2h8c1.1,0,2,0.9,2,2C26,11.1,25.1,12,24,12z"/>
<line style="fill:none;stroke:#000000;stroke-width:2;stroke-linejoin:round;stroke-miterlimit:10;" x1="30" y1="18" x2="44" y2="18"/>
<polyline style="fill:none;stroke:#000000;stroke-width:2;stroke-linejoin:round;stroke-miterlimit:10;" points="39,12 45,18 39,24 
	"/>
</svg>