<?xml version="1.0" encoding="utf-8"?><!-- Generator: Adobe Illustrator 19.2.0, SVG Export Plug-In . SVG Version: 6.00 Build 0)  --><svg xmlns="http://www.w3.org/2000/svg" xmlns:xlink="http://www.w3.org/1999/xlink" viewBox="0 0 50 50" width="500px" height="500px"><path d="M48.7,26H29c-0.6,0-1-0.4-1-1s0.4-1,1-1h19.7c0.6,0,1,0.4,1,1S49.2,26,48.7,26z"/><path d="M42,33c-0.3,0-0.5-0.1-0.7-0.3c-0.4-0.4-0.4-1,0-1.4l6.3-6.3l-6.3-6.3c-0.4-0.4-0.4-1,0-1.4c0.4-0.4,1-0.4,1.4,0l7,7c0.4,0.4,0.4,1,0,1.4l-7,7C42.5,32.9,42.3,33,42,33z"/><path d="M45,33.2V43H5V7h40v9.8l2,2V7c0-1.1-0.9-2-2-2H5C3.9,5,3,5.9,3,7v36c0,1.1,0.9,2,2,2h40c1.1,0,2-0.9,2-2V31.2L45,33.2z"/><path d="M29.5,11h-9c-1.9,0-3.5,1.6-3.5,3.5s1.6,3.5,3.5,3.5h9c1.9,0,3.5-1.6,3.5-3.5S31.4,11,29.5,11z M29.5,16h-9c-0.8,0-1.5-0.7-1.5-1.5s0.7-1.5,1.5-1.5h9c0.8,0,1.5,0.7,1.5,1.5S30.3,16,29.5,16z"/></svg>