<?xml version="1.0" encoding="iso-8859-1"?><!-- Generator: Adobe Illustrator 22.1.0, SVG Export Plug-In . SVG Version: 6.00 Build 0)  --><svg xmlns="http://www.w3.org/2000/svg" xmlns:xlink="http://www.w3.org/1999/xlink" viewBox="0 0 50 50" width="50px" height="50px"><path style="fill:none;stroke:#000000;stroke-width:2;stroke-linecap:round;stroke-miterlimit:10;" d="M3,25C3,12.808,12.808,3,25,3c9.717,0,17.967,6.233,20.9,15.033"/><path style="fill:none;stroke:#000000;stroke-width:2;stroke-linecap:round;stroke-miterlimit:10;" d="M47,25c0,12.192-9.808,22-22,22c-9.717,0-17.967-6.325-20.9-15.033"/><polyline style="fill:none;stroke:#000000;stroke-width:2;stroke-linecap:round;stroke-miterlimit:10;" points="40,16 47,18.583 47,11 "/><polyline style="fill:none;stroke:#000000;stroke-width:2;stroke-linecap:round;stroke-miterlimit:10;" points="10.125,34 3,31.417 3,39 "/><path d="M34,15H16c-0.553,0-1,0.447-1,1v18c0,0.553,0.447,1,1,1h18c0.553,0,1-0.447,1-1V16C35,15.447,34.553,15,34,15z M27,21h-4c-0.553,0-1-0.447-1-1s0.447-1,1-1h4c0.553,0,1,0.447,1,1S27.553,21,27,21z"/></svg>