<?xml version="1.0" encoding="iso-8859-1"?><!-- Generator: Adobe Illustrator 19.2.1, SVG Export Plug-In . SVG Version: 6.00 Build 0)  --><svg xmlns="http://www.w3.org/2000/svg" xmlns:xlink="http://www.w3.org/1999/xlink" viewBox="0 0 50 50" width="500px" height="500px"><path style="fill:none;stroke:#000000;stroke-width:2;stroke-linecap:round;stroke-linejoin:round;stroke-miterlimit:10;" d="M49,38c0,2.209-1.791,4-4,4H5c-2.209,0-4-1.791-4-4V12c0-2.209,1.791-4,4-4h40c2.209,0,4,1.791,4,4V38z"/><path id="Stripe_Logo" d="M39.253,24.769c0.072-1.149,0.383-1.688,0.973-1.688c0.58,0,0.88,0.549,0.921,1.688H39.253z M43.56,25.453c0-1.284-0.28-2.299-0.828-3.013c-0.559-0.725-1.398-1.097-2.464-1.097c-2.185,0-3.541,1.615-3.541,4.204c0,1.45,0.362,2.537,1.077,3.23c0.642,0.621,1.563,0.932,2.754,0.932c1.097,0,2.112-0.259,2.754-0.683l-0.28-1.76c-0.632,0.342-1.367,0.528-2.195,0.528c-0.497,0-0.839-0.104-1.087-0.321c-0.269-0.228-0.424-0.601-0.476-1.129h4.255C43.539,26.219,43.56,25.639,43.56,25.453z M32.832,27.192c-0.207,0.393-0.528,0.601-0.901,0.601c-0.259,0-0.487-0.052-0.694-0.155v-3.831c0.435-0.456,0.828-0.507,0.973-0.507c0.652,0,0.973,0.704,0.973,2.081C33.184,26.167,33.071,26.778,32.832,27.192z M34.965,22.222c-0.456-0.59-1.087-0.88-1.895-0.88c-0.745,0-1.398,0.311-2.009,0.963l-0.135-0.808H28.67v11.037l2.568-0.425v-2.588c0.393,0.124,0.797,0.186,1.16,0.186c0.642,0,1.574-0.166,2.299-0.953c0.694-0.756,1.046-1.926,1.046-3.468C35.742,23.92,35.483,22.885,34.965,22.222z M24.89,21.497h2.578v8.055H24.89V21.497z M26.184,20.7c0.745,0,1.346-0.611,1.346-1.356c0-0.756-0.601-1.356-1.346-1.356c-0.756,0-1.356,0.601-1.356,1.356C24.828,20.089,25.428,20.7,26.184,20.7z M23.399,21.386c-0.725,0-1.305,0.38-1.532,1.064l-0.155-0.953h-2.247v8.055h2.568v-5.229c0.321-0.393,0.777-0.536,1.398-0.536c0.135,0,0.28,0,0.456,0.031v-2.371C23.71,21.407,23.554,21.386,23.399,21.386z M18.156,23.403l0.311-1.905h-1.64v-2.313l-2.205,0.363l-0.318,1.95l-0.775,0.126l-0.29,1.779H14.3v3.738c0,0.973,0.248,1.646,0.756,2.06c0.425,0.342,1.035,0.507,1.895,0.507c0.663,0,1.066-0.114,1.346-0.186v-2.019c-0.155,0.041-0.507,0.114-0.745,0.114c-0.507,0-0.725-0.259-0.725-0.849v-3.365H18.156z M10.801,24.531c-0.756-0.28-1.17-0.497-1.17-0.839c0-0.29,0.238-0.456,0.663-0.456c0.777,0,1.574,0.3,2.122,0.569l0.311-1.915c-0.435-0.207-1.325-0.549-2.557-0.549c-0.87,0-1.594,0.228-2.112,0.652c-0.538,0.445-0.818,1.087-0.818,1.864c0,1.408,0.859,2.009,2.257,2.516c0.901,0.321,1.201,0.549,1.201,0.901c0,0.342-0.29,0.538-0.818,0.538c-0.652,0-1.729-0.321-2.433-0.735l-0.311,1.936c0.601,0.342,1.719,0.694,2.878,0.694c0.921,0,1.688-0.217,2.205-0.632c0.58-0.456,0.88-1.129,0.88-1.998C13.099,25.639,12.219,25.038,10.801,24.531L10.801,24.531z"/></svg>