<?xml version="1.0" encoding="iso-8859-1"?><!-- Generator: Adobe Illustrator 19.1.1, SVG Export Plug-In . SVG Version: 6.00 Build 0)  --><svg xmlns="http://www.w3.org/2000/svg" xmlns:xlink="http://www.w3.org/1999/xlink" viewBox="0 0 50 50" width="50px" height="50px"><polyline fill="none" stroke="#000000" stroke-width="2" stroke-linejoin="round" stroke-miterlimit="10" points="37,30 37,47 13,47 13,30 "/><path d="M47,2H3C2.448,2,2,2.448,2,3v36c0,0.553,0.448,1,1,1h10v-8h-1c-1.105,0-2-0.895-2-2c0-1.105,0.895-2,2-2h26c1.105,0,2,0.895,2,2c0,1.105-0.895,2-2,2h-1v8h10c0.553,0,1-0.447,1-1V3C48,2.448,47.553,2,47,2z M11,23c0,0.552-0.448,1-1,1H7c-0.552,0-1-0.448-1-1v-2c0-0.552,0.448-1,1-1h3c0.552,0,1,0.448,1,1V23z M11,17c0,0.552-0.448,1-1,1H7c-0.552,0-1-0.448-1-1v-2c0-0.552,0.448-1,1-1h3c0.552,0,1,0.448,1,1V17z M11,11c0,0.552-0.448,1-1,1H7c-0.552,0-1-0.448-1-1V9c0-0.552,0.448-1,1-1h3c0.552,0,1,0.448,1,1V11z M36,23c0,0.552-0.447,1-1,1H15c-0.552,0-1-0.448-1-1V9c0-0.552,0.448-1,1-1h20c0.553,0,1,0.448,1,1V23z M44,23c0,0.552-0.448,1-1,1h-3c-0.552,0-1-0.448-1-1v-2c0-0.552,0.448-1,1-1h3c0.552,0,1,0.448,1,1V23z M44,17c0,0.552-0.448,1-1,1h-3c-0.552,0-1-0.448-1-1v-2c0-0.552,0.448-1,1-1h3c0.552,0,1,0.448,1,1V17z M44,11c0,0.552-0.448,1-1,1h-3c-0.552,0-1-0.448-1-1V9c0-0.552,0.448-1,1-1h3c0.552,0,1,0.448,1,1V11z"/><path d="M37,48h-5c-0.553,0-1-0.447-1-1c0-3.309,2.691-6,6-6c0.553,0,1,0.447,1,1v5C38,47.553,37.553,48,37,48z"/><path d="M18,48h-5c-0.552,0-1-0.447-1-1v-5c0-0.553,0.448-1,1-1c3.309,0,6,2.691,6,6C19,47.553,18.552,48,18,48z"/><path d="M25,43c-2.243,0-4-1.317-4-3s1.757-3,4-3s4,1.317,4,3S27.243,43,25,43z"/><path d="M17.057,30c0.453,2.852,3.776,5,7.943,5c4.167,0,7.49-2.148,7.943-5H17.057z"/></svg>