<?xml version="1.0" encoding="iso-8859-1"?><!-- Generator: Adobe Illustrator 21.1.0, SVG Export Plug-In . SVG Version: 6.00 Build 0)  --><svg xmlns="http://www.w3.org/2000/svg" xmlns:xlink="http://www.w3.org/1999/xlink" viewBox="0 0 50 50" width="50px" height="50px"><g></g><path d="M21.545,35c-1.393,0-2.744-0.71-3.516-1.988l-0.265-0.436c-0.378-0.625-1.038-1.006-1.766-1.02l-0.512-0.011c-2.213-0.046-3.983-1.815-4.03-4.03l-0.01-0.512c-0.015-0.728-0.396-1.388-1.02-1.766l-0.437-0.265c-1.895-1.146-2.543-3.565-1.475-5.505L8.76,19.02c0.351-0.639,0.351-1.4,0-2.039l-0.247-0.448c-1.067-1.94-0.419-4.359,1.474-5.505l0.439-0.265c0.623-0.378,1.004-1.038,1.019-1.766l0.01-0.512c0.046-2.214,1.816-3.984,4.03-4.03l0.511-0.011c0.729-0.015,1.389-0.395,1.767-1.019l0.266-0.438C18.793,1.724,20.123,1.015,21.5,1c0.687-0.007,1.386,0.158,2.032,0.514l0.448,0.245c0.639,0.352,1.402,0.353,2.04,0.001l0.449-0.247c1.94-1.066,4.357-0.42,5.503,1.475l0.265,0.436c0.378,0.625,1.038,1.006,1.766,1.02l0.512,0.011c2.213,0.046,3.983,1.815,4.03,4.03l0.01,0.512c0.015,0.728,0.396,1.388,1.02,1.766l0.437,0.265c1.895,1.146,2.543,3.565,1.475,5.505l-0.247,0.448c-0.351,0.639-0.351,1.4,0,2.039l0.247,0.448c1.067,1.94,0.419,4.359-1.474,5.505l-0.439,0.265c-0.623,0.378-1.004,1.038-1.019,1.766l-0.01,0.512c-0.046,2.214-1.816,3.984-4.03,4.03l-0.511,0.011c-0.729,0.015-1.389,0.395-1.767,1.019l-0.266,0.438c-1.145,1.893-3.564,2.54-5.503,1.473l-0.448-0.245c-0.639-0.352-1.402-0.353-2.04-0.001l-0.449,0.247C22.9,34.835,22.217,35,21.545,35z"/><path d="M25.508,36.244l-0.453-0.248c-0.019-0.011-0.038-0.016-0.056-0.016c-0.017,0-0.033,0.005-0.054,0.016l-0.449,0.247c-0.904,0.497-1.925,0.76-2.951,0.76c-2.156,0-4.11-1.104-5.227-2.951l-0.265-0.438c-0.023-0.038-0.053-0.056-0.098-0.057l-0.512-0.011c-0.705-0.015-1.377-0.153-2.003-0.385l-4.347,9.419c-0.143,0.31-0.118,0.671,0.066,0.958C9.341,43.826,9.659,44,10,44h6.52l3.7,4.625C20.41,48.863,20.699,49,21,49c0.043,0,0.087-0.003,0.131-0.009c0.347-0.046,0.645-0.27,0.785-0.591l5.067-11.582C26.471,36.69,25.973,36.499,25.508,36.244z"/><path d="M40.97,42.581l-4.357-9.439c-0.641,0.244-1.331,0.389-2.056,0.404l-0.513,0.011c-0.044,0.001-0.074,0.018-0.097,0.056l-0.265,0.437c-1.004,1.66-2.686,2.712-4.58,2.91l-0.288,0.659l-2.693,6.155l2.024,4.626c0.14,0.321,0.438,0.545,0.785,0.591C28.976,48.997,29.019,49,29.063,49c0.301,0,0.59-0.137,0.781-0.375l3.7-4.625h6.52c0.341,0,0.659-0.174,0.842-0.461C41.089,43.252,41.113,42.891,40.97,42.581z"/></svg>