<?xml version="1.0" encoding="utf-8"?><!-- Generator: Adobe Illustrator 17.0.2, SVG Export Plug-In . SVG Version: 6.00 Build 0)  --><!DOCTYPE svg PUBLIC "-//W3C//DTD SVG 1.1//EN" "http://www.w3.org/Graphics/SVG/1.1/DTD/svg11.dtd"><svg xmlns="http://www.w3.org/2000/svg" xmlns:xlink="http://www.w3.org/1999/xlink" viewBox="0 0 50 50" width="500px" height="500px"><g><g><path fill="none" stroke="#000000" stroke-width="2.08" stroke-linecap="round" stroke-linejoin="round" stroke-miterlimit="10" d="M9,16v15l16,10l16-10V16L25,9L9,16z M9,16l16,8l16-8"/></g></g><polyline fill="none" stroke="#000000" stroke-width="2" stroke-linecap="round" stroke-linejoin="round" stroke-miterlimit="10" points="25,49 28.948,43.827 42.218,48.397 38.351,41.542 49,41.542 42.13,36.182 "/><polyline fill="none" stroke="#000000" stroke-width="2" stroke-linecap="round" stroke-linejoin="round" stroke-miterlimit="10" points="25,49 18.393,42.698 8.134,48.591 9.594,41.669 1,39.999 7.423,36.87 "/><line fill="none" stroke="#000000" stroke-width="2" stroke-linecap="round" stroke-linejoin="round" stroke-miterlimit="10" x1="12" y1="10" x2="12" y2="1"/><line fill="none" stroke="#000000" stroke-width="2" stroke-linecap="round" stroke-linejoin="round" stroke-miterlimit="10" x1="19" y1="6" x2="19" y2="1"/><line fill="none" stroke="#000000" stroke-width="2" stroke-linecap="round" stroke-linejoin="round" stroke-miterlimit="10" x1="38" y1="10" x2="38" y2="1"/><line fill="none" stroke="#000000" stroke-width="2" stroke-linecap="round" stroke-linejoin="round" stroke-miterlimit="10" x1="31" y1="6" x2="31" y2="1"/><line fill="none" stroke="#000000" stroke-width="2.08" stroke-linecap="round" stroke-linejoin="round" stroke-miterlimit="10" x1="25" y1="24" x2="25" y2="41"/></svg>