<svg xmlns="http://www.w3.org/2000/svg"  viewBox="0 0 50 50" width="50px" height="50px"><path d="M 4 3 C 3.449219 3 3 3.445313 3 4 L 3 45 C 3 45.554688 3.449219 46 4 46 L 29.625 46 C 28.597656 44.234375 28 42.1875 28 40 C 28 33.382813 33.382813 28 40 28 C 42.613281 28 45.027344 28.847656 47 30.273438 L 47 4 C 47 3.445313 46.550781 3 46 3 Z M 20 9 L 30 9 C 31.105469 9 32 9.894531 32 11 C 32 12.105469 31.105469 13 30 13 L 20 13 C 18.894531 13 18 12.105469 18 11 C 18 9.894531 18.894531 9 20 9 Z M 40 30 C 37.335938 30 34.914063 31.054688 33.121094 32.765625 C 32.972656 32.851563 32.847656 32.972656 32.761719 33.125 C 31.054688 34.917969 30 37.335938 30 40 C 30 45.511719 34.488281 50 40 50 C 42.65625 50 45.070313 48.949219 46.863281 47.25 C 47.023438 47.160156 47.160156 47.027344 47.25 46.863281 C 48.949219 45.070313 50 42.65625 50 40 C 50 34.488281 45.511719 30 40 30 Z M 40 32 C 44.429688 32 48 35.570313 48 40 C 48 41.851563 47.371094 43.550781 46.316406 44.90625 L 35.09375 33.683594 C 36.449219 32.628906 38.148438 32 40 32 Z M 33.683594 35.09375 L 44.90625 46.316406 C 43.550781 47.371094 41.851563 48 40 48 C 35.570313 48 32 44.429688 32 40 C 32 38.148438 32.628906 36.449219 33.683594 35.09375 Z"/></svg>