<?xml version="1.0" encoding="utf-8"?><!-- Generator: Adobe Illustrator 15.0.0, SVG Export Plug-In . SVG Version: 6.00 Build 0)  --><!DOCTYPE svg PUBLIC "-//W3C//DTD SVG 1.1//EN" "http://www.w3.org/Graphics/SVG/1.1/DTD/svg11.dtd"><svg xmlns="http://www.w3.org/2000/svg" xmlns:xlink="http://www.w3.org/1999/xlink" viewBox="0 0 50 50" width="50px" height="50px"><g><path d="M35.937,8h4.649l-6,6H7.954l7.847-6h1.136l1.942-2h-3.417c-0.22,0-0.433,0.072-0.607,0.206l-10.463,8c-0.017,0.013-0.026,0.031-0.042,0.044c-0.016,0.014-0.036,0.024-0.051,0.039c-0.018,0.018-0.028,0.041-0.044,0.06c-0.001,0.001-0.002,0.003-0.004,0.005C4.211,14.4,4.174,14.448,4.144,14.5c-0.011,0.019-0.029,0.032-0.039,0.052l-4,8c-0.192,0.385-0.117,0.85,0.188,1.154C0.485,23.899,0.741,24,1,24c0.151,0,0.305-0.035,0.447-0.105L4,22.618V43c0,0.553,0.448,1,1,1h30c0.147,0,0.285-0.035,0.41-0.093c0.034-0.016,0.06-0.043,0.092-0.062c0.089-0.054,0.172-0.112,0.239-0.189c0.012-0.013,0.029-0.018,0.04-0.031l8-10C43.923,33.447,44,33.228,44,33v-6.718l-2.911,3.034c-0.19,0.199-0.453,0.311-0.726,0.311c-0.037,0-0.073-0.002-0.11-0.006c-0.312-0.035-0.588-0.213-0.749-0.482L34,19.907V42H6V21v-5h28l6.546,10.982l9.161-9.275c0.324-0.324,0.387-0.828,0.15-1.222l-6-10c-0.009-0.014-0.024-0.021-0.034-0.035c-0.029-0.045-0.06-0.088-0.096-0.127c-0.009-0.009-0.012-0.021-0.021-0.03c-0.016-0.015-0.035-0.02-0.051-0.034c-0.036-0.031-0.068-0.067-0.107-0.094c-0.007-0.004-0.015-0.006-0.021-0.01c-0.03-0.02-0.065-0.031-0.098-0.047c-0.03-0.015-0.059-0.031-0.09-0.042c-0.054-0.02-0.109-0.03-0.167-0.041c-0.018-0.003-0.032-0.016-0.051-0.019c-0.015-0.002-0.028,0.006-0.043,0.004C43.052,6.01,43.027,6,43,6h-8.949L35.937,8z"/><g><path d="M33.758,12l3.052-3.073l-6.955-7.379c-0.366-0.388-0.972-0.42-1.377-0.074l-2.714,2.317L33.068,12H33.758z"/><path d="M38.192,10.394L34.586,14h-0.328c0.05,0.271,0.076,0.545,0.053,0.819l2.064,0.005c0.196,0.208,1.295-2.245,1.561-2.245c0.246,0,0.493-0.09,0.686-0.272c0.402-0.378,0.421-1.012,0.042-1.414L38.192,10.394z"/></g></g><path d="M25,20H15c-0.552,0-1,0.448-1,1s0.448,1,1,1h10c0.552,0,1-0.448,1-1S25.552,20,25,20z"/><path d="M10.775,15.694c-0.394-0.387-0.4-1.02-0.014-1.414L21.366,3.464c0.193-0.197,0.444-0.31,0.738-0.299c0.277,0.006,0.539,0.128,0.723,0.335l9.251,10.396c0.367,0.413,0.33,1.044-0.082,1.412C31.584,15.673,10.97,15.885,10.775,15.694z"/></svg>