<?xml version="1.0" encoding="iso-8859-1"?><!-- Generator: Adobe Illustrator 21.1.0, SVG Export Plug-In . SVG Version: 6.00 Build 0)  --><svg xmlns="http://www.w3.org/2000/svg" xmlns:xlink="http://www.w3.org/1999/xlink" viewBox="0 0 50 50" width="500px" height="500px"><path style="fill:none;stroke:#000000;stroke-width:2;stroke-linecap:round;stroke-linejoin:round;stroke-miterlimit:10;" d="M25,3C12.85,3,3,12.85,3,25s9.85,22,22,22s22-9.85,22-22S37.15,3,25,3z"/><polygon points="40.497,29.844 38.369,27.892 35,33 37.118,24.476 39.996,26.062 44,21 "/><polygon points="6,21 10.004,26.062 12.882,24.476 15,33 11.631,27.892 9.503,29.844 "/><path style="fill:none;stroke:#000000;stroke-width:3;stroke-miterlimit:10;" d="M30.5,34V23c0-3.037-2.463-5.5-5.5-5.5s-5.5,2.463-5.5,5.5v11"/></svg>