<?xml version="1.0" encoding="iso-8859-1"?>
<!-- Generator: Adobe Illustrator 23.0.3, SVG Export Plug-In . SVG Version: 6.00 Build 0)  -->
<svg version="1.1" id="Layer_1" xmlns="http://www.w3.org/2000/svg" xmlns:xlink="http://www.w3.org/1999/xlink" x="0px" y="0px"
	 viewBox="0 0 50 50" style="enable-background:new 0 0 50 50;" xml:space="preserve">
<path d="M49.6,40.4c-0.093-0.139-1.439-1.95-3.6-3.854V5c0-0.553-0.447-1-1-1H5C4.447,4,4,4.447,4,5v40c0,0.553,0.447,1,1,1h21.236
	c2.466,2.032,5.819,4,9.564,4c7.6,0,13.6-8.1,13.8-8.4L50,41L49.6,40.4z M19,12c0-1.1,0.9-2,2-2h8c1.1,0,2,0.9,2,2c0,1.1-0.9,2-2,2
	h-8C19.9,14,19,13.1,19,12z M35.8,48c-5.5,0-10.2-5.2-11.7-7c1.4-1.8,6.2-7,11.7-7s10.3,5.2,11.7,7C46.1,42.8,41.3,48,35.8,48z"/>
<path d="M36,36c-2.75,0-5,2.25-5,5s2.25,5,5,5s5-2.25,5-5S38.75,36,36,36z M36,43c-1.1,0-2-0.9-2-2c0-1.1,0.9-2,2-2s2,0.9,2,2
	C38,42.1,37.1,43,36,43z"/>
</svg>