<?xml version="1.0" encoding="iso-8859-1"?>
<!-- Generator: Adobe Illustrator 23.0.3, SVG Export Plug-In . SVG Version: 6.00 Build 0)  -->
<svg version="1.1" id="Layer_1" xmlns="http://www.w3.org/2000/svg" xmlns:xlink="http://www.w3.org/1999/xlink" x="0px" y="0px"
	 viewBox="0 0 50 50" style="enable-background:new 0 0 50 50;" xml:space="preserve">
<line style="fill:none;stroke:#000000;stroke-width:2;stroke-linecap:round;stroke-linejoin:round;stroke-miterlimit:10;" x1="6" y1="18" x2="12" y2="15.789"/>
<line style="fill:none;stroke:#000000;stroke-width:2;stroke-linecap:round;stroke-linejoin:round;stroke-miterlimit:10;" x1="44" y1="18" x2="38" y2="15.789"/>
<path style="fill:none;stroke:#000000;stroke-width:2;stroke-linecap:round;stroke-linejoin:round;stroke-miterlimit:10;" d="M16,13
	c0,0,3.462,5,9,5s9-5,9-5"/>
<circle cx="31.5" cy="5.5" r="2.5"/>
<circle cx="18.5" cy="5.5" r="2.5"/>
<path d="M49.848,25.47l-5-8c-0.251-0.401-0.748-0.572-1.193-0.408L25,23.934L6.346,17.062C5.9,16.897,5.403,17.068,5.152,17.47l-5,8
	c-0.16,0.256-0.196,0.569-0.099,0.854c0.098,0.285,0.318,0.511,0.601,0.615L5,28.54V40c0,0.419,0.261,0.794,0.654,0.938L24,47.697
	V28c0-0.552,0.448-1,1-1s1,0.448,1,1v19.697l18.346-6.759C44.739,40.794,45,40.419,45,40V28.54l4.346-1.601
	c0.282-0.104,0.503-0.33,0.601-0.615C50.044,26.039,50.008,25.726,49.848,25.47z M19.583,31.78L2.5,25.487l3.917-6.268L23.5,25.513
	L19.583,31.78z M30.417,31.78L26.5,25.513l17.083-6.293l3.917,6.268L30.417,31.78z"/>
<line style="fill:none;stroke:#000000;stroke-width:2;stroke-linejoin:round;stroke-miterlimit:10;" x1="20" y1="33" x2="25" y2="25"/>
<line style="fill:none;stroke:#000000;stroke-width:2;stroke-linejoin:round;stroke-miterlimit:10;" x1="30" y1="33" x2="25" y2="25"/>
</svg>