<?xml version="1.0" encoding="iso-8859-1"?><!-- Generator: Adobe Illustrator 19.2.1, SVG Export Plug-In . SVG Version: 6.00 Build 0)  --><svg xmlns="http://www.w3.org/2000/svg" xmlns:xlink="http://www.w3.org/1999/xlink" viewBox="0 0 50 50" width="500px" height="500px"><polyline style="fill:none;stroke:#000000;stroke-width:2;stroke-linejoin:round;stroke-miterlimit:10;" points="10,39 3,39 3,3 47,3 47,39 40,39 "/><path d="M10,30L10,30c0,1.105,0.895,2,2,2h1v-3h24v3h1c1.105,0,2-0.895,2-2v0c0-1.105-0.895-2-2-2H12C10.895,28,10,28.895,10,30z"/><rect x="13" y="29" style="fill:none;stroke:#000000;stroke-width:2;stroke-linecap:round;stroke-linejoin:round;stroke-miterlimit:10;" width="24" height="18"/><rect x="14" y="9" style="fill:none;stroke:#000000;stroke-width:2;stroke-linecap:round;stroke-linejoin:round;stroke-miterlimit:10;" width="22" height="14"/><path d="M43,12h-3c-0.552,0-1-0.448-1-1V9c0-0.552,0.448-1,1-1h3c0.552,0,1,0.448,1,1v2C44,11.552,43.552,12,43,12z"/><path d="M10,12H7c-0.552,0-1-0.448-1-1V9c0-0.552,0.448-1,1-1h3c0.552,0,1,0.448,1,1v2C11,11.552,10.552,12,10,12z"/><path d="M43,18h-3c-0.552,0-1-0.448-1-1v-2c0-0.552,0.448-1,1-1h3c0.552,0,1,0.448,1,1v2C44,17.552,43.552,18,43,18z"/><path d="M10,18H7c-0.552,0-1-0.448-1-1v-2c0-0.552,0.448-1,1-1h3c0.552,0,1,0.448,1,1v2C11,17.552,10.552,18,10,18z"/><path d="M43,24h-3c-0.552,0-1-0.448-1-1v-2c0-0.552,0.448-1,1-1h3c0.552,0,1,0.448,1,1v2C44,23.552,43.552,24,43,24z"/><path d="M10,24H7c-0.552,0-1-0.448-1-1v-2c0-0.552,0.448-1,1-1h3c0.552,0,1,0.448,1,1v2C11,23.552,10.552,24,10,24z"/><path style="fill:none;stroke:#000000;stroke-width:2;stroke-linecap:round;stroke-linejoin:round;stroke-miterlimit:10;" d="M32,47c0-2.761,2.239-5,5-5"/><path style="fill:none;stroke:#000000;stroke-width:2;stroke-linecap:round;stroke-linejoin:round;stroke-miterlimit:10;" d="M13,42c2.761,0,5,2.239,5,5"/><ellipse style="fill:none;stroke:#000000;stroke-width:2;stroke-linecap:round;stroke-linejoin:round;stroke-miterlimit:10;" cx="25" cy="40" rx="3" ry="2"/><path style="fill:none;stroke:#000000;stroke-width:2;stroke-linecap:round;stroke-linejoin:round;stroke-miterlimit:10;" d="M32,29c0,2.577-3.134,4.667-7,4.667S18,31.577,18,29"/></svg>