<?xml version="1.0" encoding="iso-8859-1"?><!-- Generator: Adobe Illustrator 19.1.1, SVG Export Plug-In . SVG Version: 6.00 Build 0)  --><svg xmlns="http://www.w3.org/2000/svg" xmlns:xlink="http://www.w3.org/1999/xlink" viewBox="0 0 50 50" width="500px" height="500px"><path style="fill:none;stroke:#000000;stroke-width:2;stroke-linejoin:round;stroke-miterlimit:10;" d="M39,12h6c1.105,0,2,0.895,2,2v24c0,1.105-0.895,2-2,2H5c-1.105,0-2-0.895-2-2V14c0-1.105,0.895-2,2-2h6"/><polygon style="fill:none;stroke:#000000;stroke-width:2;stroke-linecap:round;stroke-linejoin:round;stroke-miterlimit:10;" points="31,46 19,46 20,40 30,40 "/><line style="fill:none;stroke:#000000;stroke-width:2;stroke-linecap:round;stroke-linejoin:round;stroke-miterlimit:10;" x1="16" y1="46" x2="34" y2="46"/><line style="fill:none;stroke:#000000;stroke-width:2;stroke-linecap:round;stroke-linejoin:round;stroke-miterlimit:10;" x1="3" y1="36" x2="47" y2="36"/><path d="M35.5,24H31v1H19v-1h-4.5c-0.828,0-1.5,0.672-1.5,1.5s0.672,1.5,1.5,1.5h21c0.828,0,1.5-0.672,1.5-1.5S36.328,24,35.5,24z"/><rect x="24" y="7" width="2" height="3"/><rect x="24" y="20" width="2" height="3"/><path style="fill:none;stroke:#000000;stroke-width:2;stroke-miterlimit:10;" d="M22,17c0,0-0.063,3,3,3s3-2.313,3-2.313c0-3.563-6-1.75-6-5.19C22,9.938,25,10,25,10s3,0.188,3,3"/><circle style="fill:none;stroke:#000000;stroke-width:2;stroke-linejoin:round;stroke-miterlimit:10;" cx="25" cy="15" r="11"/><g><path d="M11.587,11H9v2h2.159C11.257,12.317,11.395,11.647,11.587,11z"/><path d="M38.413,11c0.193,0.647,0.33,1.317,0.428,2H41v-2H38.413z"/></g></svg>