<?xml version="1.0" encoding="utf-8"?><!-- Generator: Adobe Illustrator 17.0.2, SVG Export Plug-In . SVG Version: 6.00 Build 0)  --><!DOCTYPE svg PUBLIC "-//W3C//DTD SVG 1.1//EN" "http://www.w3.org/Graphics/SVG/1.1/DTD/svg11.dtd"><svg xmlns="http://www.w3.org/2000/svg" xmlns:xlink="http://www.w3.org/1999/xlink" viewBox="0 0 50 50" width="500px" height="500px"><line fill="none" stroke="#000000" stroke-width="2" stroke-linecap="round" stroke-linejoin="round" stroke-miterlimit="10" x1="1" y1="49" x2="49" y2="1"/><polyline fill="none" stroke="#000000" stroke-width="2" stroke-linecap="round" stroke-linejoin="round" stroke-miterlimit="10" points="24,26 7,26 7,8 34,8 34,16 "/><polyline fill="none" stroke="#000000" stroke-width="2" stroke-linecap="round" stroke-linejoin="round" stroke-miterlimit="10" points="34,22.621 34,26 30.242,26 "/><polygon fill="none" stroke="#000000" stroke-width="2" stroke-linecap="round" stroke-linejoin="round" stroke-miterlimit="10" points="43,1 17,1 7,8 34,8 "/><polyline fill="none" stroke="#000000" stroke-width="2" stroke-linecap="round" stroke-linejoin="round" stroke-miterlimit="10" points="34,26 43,18.5 43,15.625 "/><polyline fill="none" stroke="#000000" stroke-width="2" stroke-linecap="round" stroke-linejoin="round" stroke-miterlimit="10" points="43,7 43,1 34,8 "/><polyline fill="none" stroke="#000000" stroke-width="2" stroke-linecap="round" stroke-linejoin="round" stroke-miterlimit="10" points="26.242,31 34,31 34,49 7,49 "/><polyline fill="none" stroke="#000000" stroke-width="2" stroke-linecap="round" stroke-linejoin="round" stroke-miterlimit="10" points="7,43 7,31 19,31 "/><polyline fill="none" stroke="#000000" stroke-width="2" stroke-linecap="round" stroke-linejoin="round" stroke-miterlimit="10" points="34,31 43,24 36.4,24 "/><line fill="none" stroke="#000000" stroke-width="2" stroke-linecap="round" stroke-linejoin="round" stroke-miterlimit="10" x1="14.143" y1="26" x2="7" y2="31"/><polygon fill="none" stroke="#000000" stroke-width="2" stroke-linecap="round" stroke-linejoin="round" stroke-miterlimit="10" points="34,49 43,41.5 43,24 34,31 "/><g><path d="M6,48.242V49c0,0.553,0.448,1,1,1s1-0.447,1-1v-2.758c0,0,0,0,0,0L6,48.242z"/><path d="M28,30h-3.758l-2,2H28c0.552,0,1-0.447,1-1S28.552,30,28,30z"/></g><polygon points="42,12.242 42,16.062 44,16.062 44,10.242 "/><polygon points="33,21.242 33,25 35,24.269 35,19.242 "/><polygon points="27.242,27 32,27 32,25 29.242,25 "/></svg>