<?xml version="1.0" encoding="utf-8"?><!-- Generator: Adobe Illustrator 15.0.0, SVG Export Plug-In . SVG Version: 6.00 Build 0)  --><!DOCTYPE svg PUBLIC "-//W3C//DTD SVG 1.1//EN" "http://www.w3.org/Graphics/SVG/1.1/DTD/svg11.dtd"><svg xmlns="http://www.w3.org/2000/svg" xmlns:xlink="http://www.w3.org/1999/xlink" viewBox="0 0 50 50" width="50px" height="50px"><path d="M43,24c-1.8,0-3-0.7-3.9-1.4c-1,0.9-2.199,1.4-3.6,1.4c-1.7,0-2.8-0.6-3.5-1.3c-1,0.9-2.1,1.3-3.5,1.3c-1.7,0-2.8-0.6-3.5-1.3c-1,0.9-2.1,1.3-3.5,1.3c-1.7,0-2.8-0.6-3.5-1.3c-1,0.9-2.1,1.3-3.5,1.3c-1.8,0-2.8-0.7-3.6-1.4l0,0c-1.2,0.9-2.5,1.4-4,1.4C6.1,24,5,23.9,4,23.3V48h42V23.3C45,23.8,43.9,24,43,24z M26,42H10V30h16V42z M40,46h-9V30h9V46z"/><path d="M46,11H4V6h42V11z"/><path d="M42.5,25c-1.271,0-2.52-0.466-3.5-1.281C38.02,24.534,36.771,25,35.5,25s-2.52-0.466-3.5-1.281C31.02,24.534,29.771,25,28.5,25s-2.519-0.466-3.5-1.281C24.019,24.534,22.772,25,21.5,25s-2.519-0.466-3.5-1.281C17.019,24.534,15.772,25,14.5,25s-2.519-0.466-3.5-1.281C10.019,24.534,8.772,25,7.5,25C4.682,25,3,22.944,3,19.5c0-2.553,0.827-7.456,0.862-7.664L4,11h41.983l0.143,0.831C46.162,12.038,47,16.944,47,19.5C47,22.944,45.317,25,42.5,25z M39,20.699l0.781,0.977C40.435,22.492,41.477,23,42.5,23c1.659,0,2.5-1.178,2.5-3.5c0-1.789-0.471-4.99-0.709-6.5H5.703C5.473,14.513,5,17.711,5,19.5C5,21.822,5.841,23,7.5,23c1.023,0,2.065-0.508,2.719-1.325L11,20.699l0.781,0.977C12.435,22.492,13.477,23,14.5,23s2.065-0.508,2.719-1.325L18,20.699l0.781,0.977C19.435,22.492,20.477,23,21.5,23s2.065-0.508,2.719-1.325L25,20.699l0.781,0.977C26.435,22.492,27.477,23,28.5,23s2.065-0.508,2.719-1.325L32,20.699l0.781,0.977C33.435,22.492,34.477,23,35.5,23s2.065-0.508,2.719-1.325L39,20.699z"/><line fill="none" stroke="#000000" stroke-width="2" stroke-linecap="round" stroke-miterlimit="10" x1="39" y1="22" x2="39" y2="12"/><line fill="none" stroke="#000000" stroke-width="2" stroke-linecap="round" stroke-miterlimit="10" x1="32" y1="22" x2="32" y2="12"/><line fill="none" stroke="#000000" stroke-width="2" stroke-linecap="round" stroke-miterlimit="10" x1="25" y1="22" x2="25" y2="12"/><line fill="none" stroke="#000000" stroke-width="2" stroke-linecap="round" stroke-miterlimit="10" x1="18" y1="22" x2="18" y2="12"/><line fill="none" stroke="#000000" stroke-width="2" stroke-linecap="round" stroke-miterlimit="10" x1="11" y1="22" x2="11" y2="12"/></svg>