<?xml version="1.0" encoding="utf-8"?><!-- Generator: Adobe Illustrator 17.0.0, SVG Export Plug-In . SVG Version: 6.00 Build 0)  --><!DOCTYPE svg PUBLIC "-//W3C//DTD SVG 1.1//EN" "http://www.w3.org/Graphics/SVG/1.1/DTD/svg11.dtd"><svg xmlns="http://www.w3.org/2000/svg" xmlns:xlink="http://www.w3.org/1999/xlink" viewBox="0 0 50 50" width="500px" height="500px"><path fill="none" stroke="#000000" stroke-width="2" stroke-linecap="round" stroke-linejoin="round" stroke-miterlimit="10" d="M6.292,45.252l2.698-1.76c1.492-0.953,2.32-1.118,4.249-0.121c1.867,0.964,7.608,3.963,9.043,4.662c4.411,2.147,6.303,0.225,8.434-1.01c1.818-1.052,14.691-9.616,16.044-10.576c2.112-1.497,2.759-3.018,1.798-4.275c-0.727-0.95-2.352-1.529-5.67,0.44c0.307-1.384-0.025-2.328-1.292-2.579c-1.123-0.222-2.834,0.206-4.322,1.244c0.729-3.069-3.23-2.402-4.98-1.36c-1.551,0.923-7,4.375-7,4.375"/><path fill="none" stroke="#000000" stroke-width="2" stroke-linecap="round" stroke-linejoin="round" stroke-miterlimit="10" d="M18,39c0,0,3.503,1,6.199,1c0,0,4.402,0,5.801,0c2.504,0,4-0.762,4-2.5c0-1.591-1.427-2.5-4-2.5c-2.354,0-6.935-1.165-8.254-1.956C20.138,32.079,19.425,29,13.464,29c-2.691,0-3.687,0.589-5.177,1.178C5.66,31.219,1,33.457,1,33.457"/><line fill="none" stroke="#000000" stroke-width="2" stroke-linecap="round" stroke-linejoin="round" stroke-miterlimit="10" x1="42.882" y1="32.615" x2="33.849" y2="38.691"/><line fill="none" stroke="#000000" stroke-width="2" stroke-linecap="round" stroke-linejoin="round" stroke-miterlimit="10" x1="37.271" y1="31.293" x2="31.702" y2="35.132"/><path fill="none" stroke="#000000" stroke-width="2" stroke-linecap="round" stroke-linejoin="round" stroke-miterlimit="10" d="M31.5,5h-9C21.672,5,21,5.672,21,6.5S21.672,8,22.5,8h9C32.328,8,33,7.328,33,6.5S32.328,5,31.5,5z"/><path fill="none" stroke="#000000" stroke-width="2" stroke-linejoin="round" stroke-miterlimit="10" d="M42,1c0.552,0,1,0.448,1,1v20c0,0.552-0.448,1-1,1H12c-0.552,0-1-0.448-1-1V2c0-0.552,0.448-1,1-1H42z"/></svg>