<?xml version="1.0" encoding="iso-8859-1"?><!-- Generator: Adobe Illustrator 22.1.0, SVG Export Plug-In . SVG Version: 6.00 Build 0)  --><svg xmlns="http://www.w3.org/2000/svg" xmlns:xlink="http://www.w3.org/1999/xlink" viewBox="0 0 50 50" width="50px" height="50px"><path d="M21,7H3C2.45,7,2,7.45,2,8v17c0,0.55,0.45,1,1,1h18c0.55,0,1-0.45,1-1V8C22,7.45,21.55,7,21,7z M15,13H9c-0.55,0-1-0.45-1-1s0.45-1,1-1h6c0.55,0,1,0.45,1,1S15.55,13,15,13z"/><path d="M43.6,15.788C45.054,14.693,46,12.957,46,11c0-3.309-2.691-6-6-6s-6,2.691-6,6c0,1.957,0.946,3.693,2.4,4.788c-2.606,1.203-4.4,3.66-4.4,6.497v3.536c0,0.333,0.165,0.644,0.441,0.83C32.646,26.789,34.601,28,40,28s7.354-1.211,7.559-1.349C47.835,26.465,48,26.154,48,25.821v-3.536C48,19.449,46.206,16.991,43.6,15.788z"/><polyline style="fill:none;stroke:#000000;stroke-width:2;stroke-linecap:round;stroke-linejoin:round;stroke-miterlimit:10;" points="12,29 12,43 40,43 "/><line style="fill:none;stroke:#000000;stroke-width:2;stroke-linecap:round;stroke-linejoin:round;stroke-miterlimit:10;" x1="40" y1="43" x2="40" y2="32"/><path style="fill:none;stroke:#000000;stroke-width:2;stroke-linecap:round;stroke-linejoin:round;stroke-miterlimit:10;" d="M36,35l4-4l4,4"/></svg>