<?xml version="1.0" encoding="utf-8"?><!-- Generator: Adobe Illustrator 15.0.0, SVG Export Plug-In . SVG Version: 6.00 Build 0)  --><!DOCTYPE svg PUBLIC "-//W3C//DTD SVG 1.1//EN" "http://www.w3.org/Graphics/SVG/1.1/DTD/svg11.dtd"><svg xmlns="http://www.w3.org/2000/svg" xmlns:xlink="http://www.w3.org/1999/xlink" viewBox="0 0 50 50" width="50px" height="50px"><path d="M32,3.333C32,4.254,31.328,5,30.5,5S29,4.254,29,3.333C29,2.101,30.5,0,30.5,0S32,2.101,32,3.333z"/><path d="M21,3.333C21,4.254,20.328,5,19.5,5S18,4.254,18,3.333C18,2.101,19.5,0,19.5,0S21,2.101,21,3.333z"/><path d="M36,5.333C36,6.254,36.672,7,37.5,7S39,6.254,39,5.333C39,4.101,37.5,2,37.5,2S36,4.101,36,5.333z"/><path d="M43,5.333C43,6.254,43.672,7,44.5,7S46,6.254,46,5.333C46,4.101,44.5,2,44.5,2S43,4.101,43,5.333z"/><path d="M47,12.333C47,13.254,47.672,14,48.5,14s1.5-0.746,1.5-1.667C50,11.101,48.5,9,48.5,9S47,11.101,47,12.333z"/><path d="M14,5.333C14,6.254,13.328,7,12.5,7S11,6.254,11,5.333C11,4.101,12.5,2,12.5,2S14,4.101,14,5.333z"/><path d="M7,5.333C7,6.254,6.328,7,5.5,7S4,6.254,4,5.333C4,4.101,5.5,2,5.5,2S7,4.101,7,5.333z"/><path d="M3,12.333C3,13.254,2.328,14,1.5,14S0,13.254,0,12.333C0,11.101,1.5,9,1.5,9S3,11.101,3,12.333z"/><path d="M25,8c-0.552,0-1-0.448-1-1V4c0-0.552,0.448-1,1-1s1,0.448,1,1v3C26,7.552,25.552,8,25,8z"/><path d="M2,29c-0.093,0-0.187-0.013-0.28-0.04C1.293,28.836,1,28.444,1,28C1,15.252,11.093,6,25,6c13.831,0,23.892,9.154,24.001,21.796c0.014,0.065,0.021,0.134,0.021,0.204c0,0.568-0.452,1.031-1.049,0.999c-0.273-0.008-0.539-0.129-0.727-0.345C47.214,28.618,44.022,25,40.002,25c-2.67,0-5.155,1.33-6.647,3.557c-0.371,0.555-1.333,0.554-1.704,0.001C30.155,26.33,27.67,25,25.001,25c-2.67,0-5.156,1.33-6.648,3.557c-0.371,0.555-1.333,0.555-1.704,0C15.155,26.33,12.669,25,10,25c-4.849,0-7.134,3.502-7.156,3.537C2.657,28.831,2.335,29,2,29z"/><path d="M25.001,26c-0.338,0-0.671,0.031-1.001,0.079V43c0,2.757-2.243,5-5,5s-5-2.243-5-5c0-0.553-0.448-1-1-1s-1,0.447-1,1c0,3.859,3.14,7,7,7s7-3.141,7-7V26.079C25.671,26.031,25.339,26,25.001,26z"/></svg>