<?xml version="1.0" encoding="iso-8859-1"?><!-- Generator: Adobe Illustrator 22.1.0, SVG Export Plug-In . SVG Version: 6.00 Build 0)  --><svg xmlns="http://www.w3.org/2000/svg" xmlns:xlink="http://www.w3.org/1999/xlink" viewBox="0 0 50 50" width="50px" height="50px"><path d="M45.986,23.903c-0.007-0.069-0.015-0.138-0.036-0.203c-0.003-0.008-0.002-0.016-0.004-0.024c-0.01-0.029-0.029-0.051-0.042-0.079c-0.025-0.056-0.051-0.11-0.085-0.161c-0.024-0.034-0.051-0.064-0.079-0.095c-0.037-0.042-0.076-0.082-0.12-0.117c-0.033-0.027-0.068-0.049-0.105-0.071c-0.026-0.016-0.048-0.038-0.076-0.051c-0.024-0.011-0.049-0.014-0.073-0.024c-0.04-0.016-0.079-0.028-0.121-0.039c-0.057-0.015-0.114-0.023-0.172-0.027C45.048,23.01,45.025,23,45,23h-3.838l4.478-3.732C45.868,19.078,46,18.797,46,18.5v-2.438v-0.437V14v-3.758V1c0-0.003-0.001-0.005-0.001-0.007c0-0.03-0.01-0.06-0.013-0.09c-0.007-0.069-0.015-0.138-0.036-0.203c-0.003-0.008-0.002-0.016-0.004-0.024c-0.01-0.029-0.029-0.051-0.042-0.079c-0.025-0.056-0.051-0.11-0.085-0.161c-0.024-0.034-0.051-0.064-0.079-0.095c-0.037-0.042-0.076-0.082-0.12-0.117c-0.033-0.027-0.068-0.049-0.105-0.071c-0.026-0.016-0.048-0.038-0.076-0.051c-0.023-0.011-0.049-0.014-0.073-0.023c-0.04-0.016-0.08-0.029-0.123-0.04c-0.056-0.014-0.111-0.022-0.167-0.026C45.051,0.01,45.027,0,45,0H19c-0.205,0-0.405,0.063-0.573,0.181l-10,7c-0.029,0.02-0.048,0.049-0.074,0.072c-0.034,0.03-0.065,0.059-0.095,0.093C8.204,7.406,8.162,7.471,8.125,7.542C8.107,7.576,8.086,7.606,8.072,7.642c-0.043,0.112-0.07,0.23-0.071,0.352C8.001,7.996,8,7.998,8,8v18c0,0.552,0.447,1,1,1h3.97l-4.544,3.181c-0.024,0.017-0.036,0.043-0.058,0.061c-0.054,0.045-0.098,0.094-0.141,0.148c-0.039,0.05-0.075,0.098-0.104,0.154c-0.029,0.055-0.048,0.112-0.067,0.173c-0.02,0.067-0.035,0.131-0.04,0.2C8.014,30.946,8,30.971,8,31v17.242V49c0,0.208,0.079,0.391,0.187,0.551c0.036,0.052,0.061,0.112,0.106,0.157c0.028,0.028,0.068,0.043,0.1,0.067c0.069,0.054,0.136,0.112,0.218,0.147C8.73,49.972,8.862,50,9,50h27c0.124,0,0.247-0.028,0.363-0.073c0.044-0.017,0.08-0.046,0.121-0.069c0.052-0.03,0.109-0.05,0.156-0.089l9-7.5C45.868,42.078,46,41.797,46,41.5V24c0-0.003-0.001-0.005-0.001-0.007C45.999,23.963,45.989,23.933,45.986,23.903z M19.315,2h22.769l-6.429,5H12.172L19.315,2z M10,9h25v12.242v1.379V23v2h-1h-1.758H32h-0.758H10V9z M29.242,27H32h0.242H34h2c0,0,0,0,0,0s0,0,0,0c0.123,0,0.244-0.027,0.361-0.073c0.045-0.018,0.082-0.047,0.123-0.07c0.052-0.029,0.107-0.049,0.155-0.088L38.762,25h3.323l-6.429,5H30h-1.758H28h-1.758h-14.07l4.286-3H29.242z M10,32h14.242H28h0.242H30h5v16H10v-1.758V32z"/></svg>