<?xml version="1.0" encoding="iso-8859-1"?>
<!-- Generator: Adobe Illustrator 24.0.0, SVG Export Plug-In . SVG Version: 6.00 Build 0)  -->
<svg version="1.1" id="Layer_1" xmlns="http://www.w3.org/2000/svg" xmlns:xlink="http://www.w3.org/1999/xlink" x="0px" y="0px"
	 viewBox="0 0 50 50" style="enable-background:new 0 0 50 50;" xml:space="preserve">
<path d="M23.99,39.69c-0.08-3.25-1.42-6.07-4.2-8.86l-3.99-4.29l-0.01-0.01c-0.9-0.77-2.32-0.83-3.29-0.11
	c-0.56,0.42-0.93,1.04-1.03,1.73c-0.1,0.7,0.08,1.39,0.5,1.95l5.15,6.87c0.33,0.44,0.24,1.07-0.2,1.4c-0.18,0.14-0.39,0.2-0.6,0.2
	c-0.3,0-0.6-0.14-0.8-0.4l-5.865-7.349C9.231,30.289,9,29.63,9,28.95v-16.9c-1.211,0-2.354,0.542-3.145,1.532
	C5.271,14.313,5,15.248,5,16.185V28.52c0,2.67-0.01,3.78,1.21,5.09c0,0,5.34,6.86,6.79,8.73v2.8C13,46,13.52,47,15,47h7
	c0.75,0,2-0.26,2-2v-5C24,39.9,24,39.79,23.99,39.69z"/>
<polygon points="39,10 25,18 11,10 25,3 "/>
<path d="M24,20v12.92c-0.72-1.19-1.64-2.34-2.75-3.45l-4.05-4.35l-0.11-0.11c-0.83-0.71-1.9-1.1-3.02-1.1c-1,0-1.98,0.32-2.77,0.91
	c-0.1,0.08-0.2,0.16-0.3,0.24V12L24,20z"/>
<path d="M26,40v5c0,1.74,1.25,2,2,2h7c1.48,0,2-1,2-1.86v-2.8c1.45-1.87,6.79-8.73,6.79-8.73C45.01,32.3,45,31.19,45,28.52V16.185
	c0-0.936-0.271-1.872-0.855-2.603c-0.791-0.99-1.934-1.532-3.145-1.532v16.9c0,0.68-0.231,1.34-0.655,1.871L34.48,38.17
	c-0.2,0.26-0.5,0.4-0.8,0.4c-0.21,0-0.42-0.06-0.6-0.2c-0.44-0.33-0.53-0.96-0.2-1.4l5.15-6.87c0.42-0.56,0.6-1.25,0.5-1.95
	c-0.1-0.69-0.47-1.31-1.03-1.73c-0.97-0.72-2.39-0.66-3.29,0.11l-0.01,0.01l-3.99,4.29c-2.78,2.79-4.12,5.61-4.2,8.86
	C26,39.79,26,39.9,26,40z"/>
<path d="M26,20v12.92c0.72-1.19,1.64-2.34,2.75-3.45l4.05-4.35l0.11-0.11c0.83-0.71,1.9-1.1,3.02-1.1c1,0,1.98,0.32,2.77,0.91
	c0.1,0.08,0.2,0.16,0.3,0.24V12L26,20z"/>
</svg>