<?xml version="1.0" encoding="iso-8859-1"?><!-- Generator: Adobe Illustrator 21.1.0, SVG Export Plug-In . SVG Version: 6.00 Build 0)  --><svg xmlns="http://www.w3.org/2000/svg" xmlns:xlink="http://www.w3.org/1999/xlink" viewBox="0 0 50 50" width="50px" height="50px"><path d="M25,2C12.318,2,2,12.317,2,25s10.318,23,23,23s23-10.317,23-23S37.682,2,25,2z M11.631,27.892l-2.128,1.952L6,21l4.004,5.062l2.878-1.586L15,33L11.631,27.892z M32,34h-3V23c0-2.206-1.794-4-4-4s-4,1.794-4,4v11h-3V23c0-3.859,3.14-7,7-7s7,3.141,7,7V34z M40.497,29.844l-2.128-1.952L35,33l2.118-8.524l2.878,1.586L44,21L40.497,29.844z"/></svg>