<?xml version="1.0" encoding="utf-8"?><!-- Generator: Adobe Illustrator 17.0.0, SVG Export Plug-In . SVG Version: 6.00 Build 0)  --><!DOCTYPE svg PUBLIC "-//W3C//DTD SVG 1.1//EN" "http://www.w3.org/Graphics/SVG/1.1/DTD/svg11.dtd"><svg xmlns="http://www.w3.org/2000/svg" xmlns:xlink="http://www.w3.org/1999/xlink" viewBox="0 0 50 50" width="500px" height="500px"><path d="M23.417,19.892l-2.571,5.72l-2.56-5.72h-3.283v8.214l-3.656-8.214H8.578l-3.733,8.529h2.209l0.818-1.906h4.181l0.828,1.906h4.219v-6.333l2.797,6.333H21.8l2.865-6.225v6.225h2.094v-8.529H23.417z M8.662,24.674l1.249-2.982l1.3,2.982H8.662z"/><path d="M41.389,24.063l3.749-4.152h-2.665l-2.4,2.647l-2.32-2.665H29.5v8.529h7.985l2.514-2.82l2.455,2.838h2.657L41.389,24.063z M36.391,26.632h-4.827v-1.686h4.617v-1.621h-4.617v-1.597l5.094,0.013l2.037,2.322L36.391,26.632z"/><path fill="none" stroke="#000000" stroke-width="2" stroke-linecap="round" stroke-linejoin="round" stroke-miterlimit="10" d="M49,38c0,2.209-1.791,4-4,4H5c-2.209,0-4-1.791-4-4V12c0-2.209,1.791-4,4-4h40c2.209,0,4,1.791,4,4V38z"/></svg>