<?xml version="1.0" encoding="utf-8"?><!-- Generator: Adobe Illustrator 17.1.0, SVG Export Plug-In . SVG Version: 6.00 Build 0)  --><!DOCTYPE svg PUBLIC "-//W3C//DTD SVG 1.1//EN" "http://www.w3.org/Graphics/SVG/1.1/DTD/svg11.dtd"><svg xmlns="http://www.w3.org/2000/svg" xmlns:xlink="http://www.w3.org/1999/xlink" viewBox="0 0 50 50" width="500px" height="500px"><path fill="none" stroke="#000000" stroke-width="2" stroke-linecap="round" stroke-linejoin="round" stroke-miterlimit="10" d="M1,39v7.5C1,47.9,2.1,49,3.5,49h43.1c1.4,0,2.5-1.1,2.5-2.5V39H1z"/><polygon fill="none" stroke="#000000" stroke-width="2" stroke-linecap="round" stroke-linejoin="round" stroke-miterlimit="10" points="28,1 34.6,1 42,1 42,9 28,9 "/><polygon fill="none" stroke="#000000" stroke-width="2" stroke-linecap="round" stroke-linejoin="round" stroke-miterlimit="10" points="10,6 18.2,6 23,6 23,24 10,24 "/><path fill="none" stroke="#000000" stroke-width="2" stroke-linecap="round" stroke-linejoin="round" stroke-miterlimit="10" d="M49,39l-3.7-24.5C45,12.9,44.2,12,42.8,12H23v12H10V12H7.2c-1.4,0-2.2,0.9-2.5,2.5L1,39"/><line fill="none" stroke="#000000" stroke-width="2" stroke-linejoin="round" stroke-miterlimit="10" x1="13" y1="11" x2="20" y2="11"/><line fill="none" stroke="#000000" stroke-width="2" stroke-linejoin="round" stroke-miterlimit="10" x1="13" y1="15" x2="20" y2="15"/><line fill="none" stroke="#000000" stroke-width="2" stroke-linejoin="round" stroke-miterlimit="10" x1="13" y1="19" x2="20" y2="19"/><circle cx="25" cy="44" r="2"/><path fill="none" stroke="#000000" stroke-width="2" stroke-linecap="round" stroke-linejoin="round" stroke-miterlimit="10" d="M41.1,22H29.2c-0.6,0-1.2-0.5-1.2-1.2v-3.7c0-0.6,0.5-1.1,1.1-1.1h11.2c0.6,0,1.2,0.5,1.2,1.1l0.5,3.7C42.2,21.5,41.7,22,41.1,22z"/><path d="M30.1,29H28c-0.5,0-0.9-0.4-0.9-0.9V26c0-0.5,0.4-0.9,0.9-0.9h2.1c0.5,0,0.9,0.4,0.9,0.9v2.1C31,28.6,30.6,29,30.1,29z"/><path d="M36.1,29H34c-0.5,0-0.9-0.4-0.9-0.9V26c0-0.5,0.4-0.9,0.9-0.9h2.1c0.5,0,0.9,0.4,0.9,0.9v2.1C37,28.6,36.6,29,36.1,29z"/><path d="M42.1,29H40c-0.5,0-0.9-0.4-0.9-0.9V26c0-0.5,0.4-0.9,0.9-0.9h2.1c0.5,0,0.9,0.4,0.9,0.9v2.1C43,28.6,42.6,29,42.1,29z"/><path d="M30.1,35H28c-0.5,0-0.9-0.4-0.9-0.9V32c0-0.5,0.4-0.9,0.9-0.9h2.1c0.5,0,0.9,0.4,0.9,0.9v2.1C31,34.6,30.6,35,30.1,35z"/><path d="M36.1,35H34c-0.5,0-0.9-0.4-0.9-0.9V32c0-0.5,0.4-0.9,0.9-0.9h2.1c0.5,0,0.9,0.4,0.9,0.9v2.1C37,34.6,36.6,35,36.1,35z"/><path d="M42.1,35H40c-0.5,0-0.9-0.4-0.9-0.9V32c0-0.5,0.4-0.9,0.9-0.9h2.1c0.5,0,0.9,0.4,0.9,0.9v2.1C43,34.6,42.6,35,42.1,35z"/><line fill="none" stroke="#000000" stroke-width="2" stroke-linecap="round" stroke-linejoin="round" stroke-miterlimit="10" x1="32" y1="9" x2="32" y2="12"/><line fill="none" stroke="#000000" stroke-width="2" stroke-linecap="round" stroke-linejoin="round" stroke-miterlimit="10" x1="38" y1="9" x2="38" y2="12"/></svg>