<?xml version="1.0" encoding="iso-8859-1"?><!-- Generator: Adobe Illustrator 21.1.0, SVG Export Plug-In . SVG Version: 6.00 Build 0)  --><svg xmlns="http://www.w3.org/2000/svg" xmlns:xlink="http://www.w3.org/1999/xlink" viewBox="0 0 50 50" width="50px" height="50px"><path d="M42.705,32h-7.652c-0.391,0.687-0.784,1.354-1.175,2h7.417l4.286,12H4.419l4.286-12h7.417c-0.39-0.646-0.784-1.313-1.175-2H7.295L1.581,48h46.838L42.705,32z"/><path d="M25,2c-7.168,0-13,5.832-13,13c0,9.523,11.707,24.955,12.205,25.607L25,41.647l0.795-1.04C26.293,39.955,38,24.523,38,15C38,7.832,32.168,2,25,2z M25,19c-2.209,0-4-1.791-4-4c0-2.209,1.791-4,4-4s4,1.791,4,4C29,17.209,27.209,19,25,19z"/></svg>