<?xml version="1.0" encoding="utf-8"?><!-- Generator: Adobe Illustrator 18.1.1, SVG Export Plug-In . SVG Version: 6.00 Build 0)  --><svg xmlns="http://www.w3.org/2000/svg" xmlns:xlink="http://www.w3.org/1999/xlink" viewBox="0 0 50 50" width="500px" height="500px"><rect x="5" y="8" fill="none" stroke="#000000" stroke-width="2" stroke-linejoin="round" stroke-miterlimit="10" width="40" height="34"/><path fill="none" stroke="#000000" stroke-width="2" stroke-linejoin="round" stroke-miterlimit="10" d="M29,17h-8c-1.1,0-2-0.9-2-2v0c0-1.1,0.9-2,2-2h8c1.1,0,2,0.9,2,2v0C31,16.1,30.1,17,29,17z"/><line fill="none" stroke="#000000" stroke-width="2" stroke-linejoin="round" stroke-miterlimit="10" x1="30" y1="36" x2="40" y2="36"/><line fill="none" stroke="#000000" stroke-width="2" stroke-linejoin="round" stroke-miterlimit="10" x1="38" y1="34" x2="38" y2="30"/><polygon points="38,28 36,31 40,31 "/><line fill="none" stroke="#000000" stroke-width="2" stroke-linejoin="round" stroke-miterlimit="10" x1="32" y1="34" x2="32" y2="30"/><polygon points="32,28 30,31 34,31 "/></svg>