<?xml version="1.0" encoding="utf-8"?><!-- Generator: Adobe Illustrator 15.0.0, SVG Export Plug-In . SVG Version: 6.00 Build 0)  --><!DOCTYPE svg PUBLIC "-//W3C//DTD SVG 1.1//EN" "http://www.w3.org/Graphics/SVG/1.1/DTD/svg11.dtd"><svg xmlns="http://www.w3.org/2000/svg" xmlns:xlink="http://www.w3.org/1999/xlink" viewBox="0 0 50 50" width="50px" height="50px"><path d="M47.154,45.941c-1.599,0-3.804-0.4-5.539-1.488c-1.735,1.088-3.939,1.488-5.538,1.488s-3.804-0.4-5.539-1.489c-1.735,1.089-3.94,1.489-5.538,1.489c-1.598,0-3.803-0.4-5.539-1.488c-1.735,1.088-3.939,1.488-5.538,1.488c-1.598,0-3.803-0.4-5.538-1.488c-1.735,1.088-3.94,1.488-5.539,1.488c-0.658,0-1.293-0.05-1.998-0.158c-0.546-0.083-0.921-0.594-0.837-1.14s0.601-0.919,1.14-0.837c0.602,0.092,1.14,0.135,1.695,0.135c1.394,0,3.519-0.392,4.92-1.494c0.362-0.287,0.874-0.286,1.237-0.001c1.401,1.104,3.526,1.495,4.919,1.495c1.394,0,3.519-0.392,4.919-1.494c0.362-0.287,0.874-0.287,1.237-0.001c1.402,1.104,3.527,1.495,4.921,1.495s3.518-0.392,4.92-1.495c0.361-0.285,0.875-0.285,1.236,0c1.402,1.104,3.527,1.495,4.921,1.495s3.519-0.392,4.919-1.494c0.363-0.287,0.875-0.287,1.238,0c1.4,1.103,3.525,1.494,4.92,1.494c0.563,0,1.059-0.078,1.514-0.238c0.521-0.185,1.092,0.09,1.275,0.611s-0.091,1.092-0.611,1.275C48.659,45.826,47.947,45.941,47.154,45.941z"/><path fill="none" stroke="#000000" stroke-width="2" stroke-linecap="round" stroke-linejoin="round" stroke-miterlimit="10" d="M49,48.646c-0.494,0.174-1.091,0.295-1.846,0.295c-1.538,0-3.902-0.42-5.539-1.709c-1.637,1.289-4,1.709-5.538,1.709s-3.901-0.42-5.539-1.709c-1.638,1.289-4,1.709-5.538,1.709s-3.901-0.42-5.539-1.709c-1.637,1.289-4,1.709-5.538,1.709s-3.901-0.42-5.538-1.709c-1.637,1.289-4.001,1.709-5.539,1.709c-0.69,0-1.291-0.062-1.846-0.146"/><path d="M10,20c-0.552,0-1-0.448-1-1v-4c0-0.552,0.448-1,1-1s1,0.448,1,1v4C11,19.552,10.552,20,10,20z"/><g><path d="M14,29v-4.586l1.707-1.707C15.895,22.52,16,22.265,16,22v-2c0-0.552-0.448-1-1-1H5c-0.552,0-1,0.448-1,1v9H14z"/><path d="M4,31v1c0,0.553,0.448,1,1,1h8c0.552,0,1-0.447,1-1v-1H4z"/></g><g><path d="M2.846,41.941c1.122,0,2.752-0.334,3.678-1.062c0.527-0.418,1.188-0.647,1.86-0.647c0.669,0,1.328,0.228,1.856,0.643c0.931,0.732,2.561,1.066,3.682,1.066c1.122,0,2.752-0.334,3.676-1.061c0.527-0.419,1.188-0.649,1.862-0.649c0.67,0,1.33,0.229,1.855,0.644c0.932,0.732,2.563,1.066,3.684,1.066c1.121,0,2.752-0.334,3.681-1.065c0.526-0.415,1.186-0.644,1.857-0.644s1.331,0.229,1.854,0.643c0.932,0.732,2.563,1.066,3.685,1.066s2.752-0.333,3.679-1.063c0.527-0.417,1.188-0.646,1.859-0.646s1.332,0.229,1.856,0.644c0.09,0.07,0.19,0.134,0.292,0.197c3.508-4.187,6.237-10.196,6.237-14.573c0-2.176-1.462-2.501-2.334-2.501H38c-1.322,0-2.29,0.292-3.05,0.922c-0.407,0.339-0.724,0.926-1.162,1.737c-0.989,1.832-2.346,4.341-4.788,4.341H3c-1.542,0-3.001,1.421-3.001,2.925v2.956c0,1.347,0.978,3.316,2.572,5.051C2.662,41.934,2.755,41.941,2.846,41.941z M39,29.715c0,0,0.034-0.386,0.652-0.386c0.621,0,0.681,0.386,0.681,0.386v0.801c0,0,0.062,0.387,0.653,0.387c0.591,0,0.681-0.387,0.681-0.387v-0.801c0,0,0.062-0.386,0.683-0.386S43,29.715,43,29.715s0,0.831,0,1.335c0,0.919-0.919,0.95-0.919,0.95h-2.015c0,0-1.066-0.061-1.066-0.979C39,30.486,39,29.715,39,29.715z"/></g></svg>