<?xml version="1.0" encoding="iso-8859-1"?><!-- Generator: Adobe Illustrator 20.1.0, SVG Export Plug-In . SVG Version: 6.00 Build 0)  --><svg xmlns="http://www.w3.org/2000/svg" xmlns:xlink="http://www.w3.org/1999/xlink" viewBox="0 0 50 50" width="50px" height="50px"><path d="M30,15H20v9h10V15z M27,19h-4c-0.553,0-1-0.448-1-1s0.447-1,1-1h4c0.553,0,1,0.448,1,1S27.553,19,27,19z"/><path d="M25,2C16.178,2,9,9.178,9,18c0,12.078,14.625,28.946,15.247,29.658C24.437,47.875,24.711,48,24.999,48H25c0.288,0,0.562-0.124,0.752-0.34C26.374,46.951,41,30.151,41,18C41,9.178,33.822,2,25,2z M32,26H18V13h14V26z"/></svg>