<?xml version="1.0" encoding="utf-8"?><!-- Generator: Adobe Illustrator 15.0.0, SVG Export Plug-In . SVG Version: 6.00 Build 0)  --><!DOCTYPE svg PUBLIC "-//W3C//DTD SVG 1.1//EN" "http://www.w3.org/Graphics/SVG/1.1/DTD/svg11.dtd"><svg xmlns="http://www.w3.org/2000/svg" xmlns:xlink="http://www.w3.org/1999/xlink" viewBox="0 0 50 50" width="50px" height="50px"><path d="M49,12h-3c-0.553,0-1,0.448-1,1H5c0-0.552-0.448-1-1-1H1c-0.552,0-1,0.448-1,1v28c0,0.553,0.448,1,1,1h3c0.552,0,1-0.447,1-1h40c0,0.553,0.447,1,1,1h3c0.553,0,1-0.447,1-1V13C50,12.448,49.553,12,49,12z M8,36c0,0.553-0.448,1-1,1s-1-0.447-1-1V18c0-0.552,0.448-1,1-1s1,0.448,1,1V36z M14,36c0,0.553-0.448,1-1,1s-1-0.447-1-1V18c0-0.552,0.448-1,1-1s1,0.448,1,1V36z M20,36c0,0.553-0.448,1-1,1s-1-0.447-1-1V18c0-0.552,0.448-1,1-1s1,0.448,1,1V36z M26,36c0,0.553-0.448,1-1,1s-1-0.447-1-1V18c0-0.552,0.448-1,1-1s1,0.448,1,1V36z M32,36c0,0.553-0.447,1-1,1s-1-0.447-1-1V18c0-0.552,0.447-1,1-1s1,0.448,1,1V36z M38,36c0,0.553-0.447,1-1,1s-1-0.447-1-1V18c0-0.552,0.447-1,1-1s1,0.448,1,1V36z M44,36c0,0.553-0.447,1-1,1s-1-0.447-1-1V18c0-0.552,0.447-1,1-1s1,0.448,1,1V36z"/><path d="M4,10c0.887,0,1.685,0.387,2.234,1h37.531c0.55-0.613,1.348-1,2.234-1h1.881l-2.1-2.625C45.591,7.138,45.304,7,45,7h-2c-0.553,0-1,0.448-1,1H8c0-0.552-0.448-1-1-1H5C4.696,7,4.409,7.138,4.219,7.375L2.12,10H4z"/></svg>