<?xml version="1.0" encoding="utf-8"?><!-- Generator: Adobe Illustrator 15.0.0, SVG Export Plug-In . SVG Version: 6.00 Build 0)  --><!DOCTYPE svg PUBLIC "-//W3C//DTD SVG 1.1//EN" "http://www.w3.org/Graphics/SVG/1.1/DTD/svg11.dtd"><svg xmlns="http://www.w3.org/2000/svg" xmlns:xlink="http://www.w3.org/1999/xlink" viewBox="0 0 50 50" width="50px" height="50px"><path d="M31.602,45.217c-1.761-0.369-3.756-0.786-3.756-1.699v-7.606c0-1.574,0.998-2.275,2.909-3.479c2.668-1.68,6.322-3.979,6.322-11.125c0-8.136-1.84-20.336-1.858-20.458C35.145,0.361,34.725,0,34.23,0h-7.819l2.485,7.905l-5.063,4.217l5.474,5.149l-5.833,8.956l4.122-8.727l-6.491-5.076l4.459-5.422L22.59,0h-6.821c-0.494,0-0.915,0.361-0.989,0.85c-0.019,0.123-1.857,12.323-1.857,20.458c0,7.146,3.654,9.445,6.322,11.125c1.912,1.203,2.909,1.904,2.909,3.479v7.606c0,0.913-1.995,1.33-3.756,1.699c-2.439,0.511-5.475,1.146-5.475,3.783c0,0.553,0.448,1,1,1h22.154c0.553,0,1-0.447,1-1C37.077,46.363,34.041,45.728,31.602,45.217z"/></svg>