<?xml version="1.0" encoding="utf-8"?><!-- Generator: Adobe Illustrator 15.0.0, SVG Export Plug-In . SVG Version: 6.00 Build 0)  --><!DOCTYPE svg PUBLIC "-//W3C//DTD SVG 1.1//EN" "http://www.w3.org/Graphics/SVG/1.1/DTD/svg11.dtd"><svg xmlns="http://www.w3.org/2000/svg" xmlns:xlink="http://www.w3.org/1999/xlink" viewBox="0 0 50 50" width="50px" height="50px"><path d="M26.133,45.453c-0.398,0-0.775-0.24-0.93-0.633L8.327,2.019C3.53,2.29,1.911,5.414,1.895,5.447C1.647,5.941,1.048,6.142,0.553,5.895C0.059,5.647-0.142,5.047,0.105,4.553C0.199,4.367,2.457,0,9,0c0.411,0,0.78,0.251,0.93,0.633l16.767,42.525l21.458-8.396c0.512-0.201,1.093,0.053,1.296,0.567c0.201,0.515-0.053,1.095-0.567,1.296l-22.387,8.76C26.378,45.432,26.254,45.453,26.133,45.453z"/><path d="M19,50c-2.757,0-5-2.243-5-5s2.243-5,5-5s5,2.243,5,5S21.757,50,19,50z"/><path d="M21.321,23.399l22.307-8.858L38.089,0.63c-0.098-0.246-0.29-0.443-0.533-0.548s-0.519-0.109-0.766-0.011L16.35,8.209c-0.513,0.205-0.763,0.786-0.559,1.299L21.321,23.399z M24.333,9.336l7.433-2.959c0.513-0.204,1.096,0.046,1.299,0.56c0.205,0.513-0.046,1.094-0.559,1.299l-7.434,2.959c-0.121,0.048-0.246,0.071-0.369,0.071c-0.397,0-0.773-0.239-0.93-0.631C23.57,10.122,23.82,9.541,24.333,9.336z"/><path d="M44.371,16.397l-22.306,8.858l5.564,13.979c0.098,0.246,0.29,0.443,0.533,0.549c0.126,0.054,0.261,0.081,0.396,0.081c0.125,0,0.251-0.023,0.37-0.071l20.44-8.138c0.513-0.204,0.764-0.785,0.559-1.299L44.371,16.397z M38.429,23.094l-7.434,2.958c-0.121,0.049-0.247,0.071-0.37,0.071c-0.397,0-0.773-0.238-0.929-0.63c-0.205-0.513,0.046-1.094,0.559-1.299l7.434-2.959c0.513-0.206,1.096,0.046,1.299,0.56C39.192,22.308,38.941,22.89,38.429,23.094z"/></svg>