<?xml version="1.0" encoding="iso-8859-1"?><!-- Generator: Adobe Illustrator 21.1.0, SVG Export Plug-In . SVG Version: 6.00 Build 0)  --><svg xmlns="http://www.w3.org/2000/svg" xmlns:xlink="http://www.w3.org/1999/xlink" viewBox="0 0 50 50" width="500px" height="500px"><rect x="5" y="5" style="fill:none;stroke:#000000;stroke-width:2;stroke-miterlimit:10;" width="12" height="12"/><rect x="9" y="9" style="fill:none;stroke:#000000;stroke-width:2;stroke-miterlimit:10;" width="4" height="4"/><rect x="5" y="33" style="fill:none;stroke:#000000;stroke-width:2;stroke-miterlimit:10;" width="12" height="12"/><rect x="9" y="37" style="fill:none;stroke:#000000;stroke-width:2;stroke-miterlimit:10;" width="4" height="4"/><rect x="33" y="5" style="fill:none;stroke:#000000;stroke-width:2;stroke-miterlimit:10;" width="12" height="12"/><rect x="37" y="9" style="fill:none;stroke:#000000;stroke-width:2;stroke-miterlimit:10;" width="4" height="4"/><rect x="21" y="7" style="fill:none;stroke:#000000;stroke-width:2;stroke-miterlimit:10;" width="4" height="4"/><rect x="8" y="25" style="fill:none;stroke:#000000;stroke-width:2;stroke-miterlimit:10;" width="4" height="4"/><rect x="29" y="33" style="fill:none;stroke:#000000;stroke-width:2;stroke-miterlimit:10;" width="8" height="4"/><rect x="37" y="37" style="fill:none;stroke:#000000;stroke-width:2;stroke-miterlimit:10;" width="8" height="8"/><rect x="25" y="37" style="fill:none;stroke:#000000;stroke-width:2;stroke-miterlimit:10;" width="4" height="4"/><polygon style="fill:none;stroke:#000000;stroke-width:2;stroke-miterlimit:10;" points="41,25 41,28 37,28 37,33 45,33 45,25 "/><rect x="21" y="16" style="fill:none;stroke:#000000;stroke-width:2;stroke-miterlimit:10;" width="4" height="5"/><rect x="25" y="11" style="fill:none;stroke:#000000;stroke-width:2;stroke-miterlimit:10;" width="4" height="5"/><polygon style="fill:none;stroke:#000000;stroke-width:2;stroke-miterlimit:10;" points="25,21 25,25 32,25 32,28 37,28 37,21 "/><polygon style="fill:none;stroke:#000000;stroke-width:2;stroke-miterlimit:10;" points="12,21 12,25 17,25 17,29 21,29 21,21 "/></svg>