<?xml version="1.0" encoding="utf-8"?><!-- Generator: Adobe Illustrator 15.0.0, SVG Export Plug-In . SVG Version: 6.00 Build 0)  --><!DOCTYPE svg PUBLIC "-//W3C//DTD SVG 1.1//EN" "http://www.w3.org/Graphics/SVG/1.1/DTD/svg11.dtd"><svg xmlns="http://www.w3.org/2000/svg" xmlns:xlink="http://www.w3.org/1999/xlink" viewBox="0 0 50 50" width="50px" height="50px"><path display="none" fill="none" stroke="#000000" stroke-width="2" stroke-linecap="round" stroke-linejoin="round" stroke-miterlimit="10" d="M6.292,45.252l2.698-1.76c1.492-0.953,2.32-1.118,4.249-0.121c1.867,0.964,7.608,3.963,9.043,4.662c4.411,2.146,6.303,0.225,8.434-1.01c1.818-1.053,14.691-9.616,16.044-10.576c2.112-1.497,2.76-3.018,1.799-4.275c-0.728-0.949-2.353-1.529-5.67,0.439c0.307-1.383-0.025-2.327-1.293-2.578c-1.123-0.223-2.834,0.206-4.322,1.244c0.729-3.069-3.229-2.402-4.979-1.36c-1.551,0.923-7,4.375-7,4.375"/><path display="none" fill="none" stroke="#000000" stroke-width="2" stroke-linecap="round" stroke-linejoin="round" stroke-miterlimit="10" d="M18,39c0,0,3.503,1,6.199,1c0,0,4.402,0,5.801,0c2.504,0,4-0.762,4-2.5c0-1.591-1.427-2.5-4-2.5c-2.354,0-6.935-1.165-8.254-1.956C20.138,32.079,19.425,29,13.464,29c-2.691,0-3.687,0.589-5.177,1.178C5.66,31.219,1,33.457,1,33.457"/><line display="none" fill="none" stroke="#000000" stroke-width="2" stroke-linecap="round" stroke-linejoin="round" stroke-miterlimit="10" x1="42.882" y1="32.615" x2="33.85" y2="38.691"/><line display="none" fill="none" stroke="#000000" stroke-width="2" stroke-linecap="round" stroke-linejoin="round" stroke-miterlimit="10" x1="37.271" y1="31.293" x2="31.702" y2="35.132"/><path d="M42,0H12c-1.103,0-2,0.897-2,2v20c0,1.103,0.897,2,2,2h30c1.103,0,2-0.897,2-2V2C44,0.897,43.103,0,42,0z M31.5,8h-9C21.672,8,21,7.328,21,6.5S21.672,5,22.5,5h9C32.328,5,33,5.672,33,6.5S32.328,8,31.5,8z"/><path d="M44.9,31.801L34.2,39l0,0c-1.7,1-3.2,0.9-4.2,0.9c-0.1,0,0.1,0,0,0h-6c-2.7,0-6-1-6.1-1c-0.3-0.1-0.4-0.4-0.3-0.6C17.7,38,17.9,37.9,18.2,38c0,0,0,0,0.1,0c0.3,0.101,3.6,1,6,1H30c0.8,0,1.4-0.199,1.8-0.5c0.4-0.3,0.7-0.6,0.9-1c0-0.1,0.1-0.1,0.1-0.199V37.2c0.101-0.3,0.101-0.5,0.101-0.8c0-1.2-1-2.4-3-2.5c-1.601-0.1-3.801-0.5-5.601-1c-1-0.3-1.7-0.6-2.1-0.8c-0.3-0.2-0.6-0.5-1-0.9c-1.2-1.3-3-3.3-7.8-3.3c-2.5,0-4.7,0.9-12.9,4.6C0,32.7-0.2,33.301,0,33.801l5.3,11.8c0.1,0.3,0.4,0.5,0.6,0.6c0.3,0.101,0.6,0,0.8-0.1l2.7-1.8c1.2-0.801,1.7-0.9,3.3-0.101l2.1,1.101c2.5,1.3,5.9,3.1,6.9,3.6c1.6,0.8,2.9,1.1,4,1.1c2,0,3.3-0.8,4.5-1.6s15.8-10.3,17.1-11.2c1.601-1.1,2.601-2.399,2.601-3.399C50,31,47.3,30.301,44.9,31.801z"/><path d="M34,36.4c0,0.6-0.2,1.3-0.6,1.9l0.1-0.101l0.1-0.1l11-7.3C44.3,29.5,42.7,29,41.7,29s-2.2,0.4-3.9,1.5l0,0l-5,3.4C33.6,34.601,34,35.5,34,36.4z"/><path d="M30,33c0.7,0,1.4,0.2,1.9,0.4l6.5-4.4c0,0-1.5-1-3.301-1c-1.1,0-2.3,0.4-3.3,1.1c-0.7,0.4-3.7,2.301-5.5,3.4C27.6,32.8,29,33,30,33z"/></svg>