<?xml version="1.0" encoding="iso-8859-1"?>
<!-- Generator: Adobe Illustrator 22.1.0, SVG Export Plug-In . SVG Version: 6.00 Build 0)  -->
<svg version="1.1" id="Layer_1" xmlns="http://www.w3.org/2000/svg" xmlns:xlink="http://www.w3.org/1999/xlink" x="0px" y="0px"
	 viewBox="0 0 50 50" style="enable-background:new 0 0 50 50;" xml:space="preserve">
<g>
</g>
<path style="fill:none;stroke:#000000;stroke-width:2;stroke-miterlimit:10;" d="M17.949,41.757l1.137,3.395
	c0.361,1.333,1.733,2.121,3.066,1.76c1.333-0.361,2.121-1.733,1.76-3.066l-1.969-7.277"/>
<path style="fill:none;stroke:#000000;stroke-width:2;stroke-miterlimit:10;" d="M32,7.496C32,9.983,29.983,12,27.504,12
	C25.017,12,23,9.983,23,7.496C23,5.017,25.017,3,27.504,3C29.983,3,32,5.017,32,7.496z"/>
<path style="fill:none;stroke:#000000;stroke-width:2;stroke-linejoin:round;stroke-miterlimit:10;" d="M34.598,25.252l-5.943-3.2
	c0,0-4.802-6.214-4.867-6.282C22.871,14.696,21.523,14,20,14c-1.456,0-2.767,0.623-3.681,1.616c-0.65,0.707-6.399,8.165-7.312,9.373
	C8.375,25.827,8,26.87,8,28c0,1.738,0.931,3.189,2.256,4.126c0.043,0.03,4.776,3.854,4.776,3.854l-5.175,5.914
	c-1.115,1.274-1.075,3.332,0.226,4.414C10.642,46.772,11.322,47,11.999,47c0.835,0,1.666-0.347,2.259-1.024l7-8
	c0.982-1.122,0.99-2.796,0.02-3.928L17,29l5-6l2.435,2.435c0.374,0.374,0.806,0.687,1.278,0.926l6.601,3.34
	C32.692,29.904,33.098,30,33.498,30c1.039,0,2.04-0.649,2.393-1.765C36.258,27.078,35.666,25.827,34.598,25.252z"/>
<polyline style="fill:none;stroke:#000000;stroke-width:2;stroke-linejoin:round;stroke-miterlimit:10;" points="27,27.012 27,35 
	42,35 42,21 27.842,21 "/>
</svg>