<?xml version="1.0" encoding="iso-8859-1"?><!-- Generator: Adobe Illustrator 21.0.2, SVG Export Plug-In . SVG Version: 6.00 Build 0)  --><svg xmlns="http://www.w3.org/2000/svg" xmlns:xlink="http://www.w3.org/1999/xlink" viewBox="0 0 50 50" width="500px" height="500px"><g><g><path style="fill:none;stroke:#000000;stroke-width:2;stroke-linejoin:round;stroke-miterlimit:10;" d="M3,24C3,12.954,12.85,3,25,3s22,9.954,22,21c-1.021-2.329-3.765-4-7-4s-5.979,1.671-7,4c-1.167-2.329-4.303-4-8-4s-6.833,1.671-8,4c-1.021-2.329-3.765-4-7-4S4.021,21.671,3,24z"/></g></g><path style="fill:none;stroke:#000000;stroke-width:2;stroke-linejoin:round;stroke-miterlimit:10;" d="M25,3c-4.709,3.366-8,12.054-8,21"/><path style="fill:none;stroke:#000000;stroke-width:2;stroke-linejoin:round;stroke-miterlimit:10;" d="M25,3c4.709,3.366,8,12.054,8,21"/><g><polyline style="fill:none;stroke:#000000;stroke-width:2;stroke-miterlimit:10;" points="3,24 19,34 31,34 47,24 "/><polyline style="fill:none;stroke:#000000;stroke-width:2;stroke-linejoin:round;stroke-miterlimit:10;" points="33,24 27,34 23,34 17,24 "/></g><rect x="18" y="34" style="fill:none;stroke:#000000;stroke-width:2;stroke-miterlimit:10;" width="14" height="13"/><line style="fill:none;stroke:#000000;stroke-width:2;stroke-linecap:round;stroke-miterlimit:10;" x1="23" y1="38" x2="27" y2="38"/></svg>