<svg xmlns="http://www.w3.org/2000/svg"  viewBox="0 0 50 50" width="50px" height="50px"><path d="M 31 0.59375 L 25.28125 6.28125 C 24.890625 6.671875 24.890625 7.328125 25.28125 7.71875 C 25.671875 8.109375 26.328125 8.109375 26.71875 7.71875 L 30 4.40625 L 30 15 L 32 15 L 32 4.40625 L 35.28125 7.71875 C 35.476563 7.914063 35.742188 8 36 8 C 36.257813 8 36.523438 7.914063 36.71875 7.71875 C 37.109375 7.328125 37.109375 6.671875 36.71875 6.28125 Z M 32 15 L 32 25 C 32 25.550781 31.554688 26 31 26 C 30.445313 26 30 25.550781 30 25 L 30 15 L 16.28125 15 L 14.15625 6.40625 C 13.476563 4.117188 12.320313 2 8.65625 2 L 2 2 C 0.894531 2 0 2.894531 0 4 C 0 5.105469 0.894531 6 2 6 C 3.105469 6 4 5.105469 4 4 L 8.65625 4 C 10.742188 4 11.542969 4.667969 12.21875 6.9375 L 20.21875 39.21875 C 20.644531 40.828125 21.125 42.609375 22.9375 43.46875 C 22.367188 44.160156 22 45.035156 22 46 C 22 48.207031 23.792969 50 26 50 C 28.207031 50 30 48.207031 30 46 C 30 45.269531 29.78125 44.589844 29.4375 44 L 35.5625 44 C 35.21875 44.589844 35 45.269531 35 46 C 35 48.207031 36.792969 50 39 50 C 41.207031 50 43 48.207031 43 46 C 43 44.960938 42.589844 44.023438 41.9375 43.3125 C 41.972656 43.210938 42 43.113281 42 43 C 42 42.449219 41.550781 42 41 42 L 25.71875 42 C 23.023438 42 22.730469 40.921875 22.15625 38.75 L 21.46875 36 L 39.8125 36 C 40.230469 36 40.605469 35.734375 40.75 35.34375 L 47.9375 16.34375 C 48.050781 16.035156 47.996094 15.707031 47.8125 15.4375 C 47.625 15.167969 47.328125 15 47 15 Z M 26 44 C 27.105469 44 28 44.894531 28 46 C 28 47.105469 27.105469 48 26 48 C 24.898438 48 24 47.105469 24 46 C 24 44.894531 24.898438 44 26 44 Z M 39 44 C 40.105469 44 41 44.894531 41 46 C 41 47.105469 40.105469 48 39 48 C 37.894531 48 37 47.105469 37 46 C 37 44.894531 37.894531 44 39 44 Z"/></svg>