<?xml version="1.0" encoding="utf-8"?><!-- Generator: Adobe Illustrator 17.0.2, SVG Export Plug-In . SVG Version: 6.00 Build 0)  --><!DOCTYPE svg PUBLIC "-//W3C//DTD SVG 1.1//EN" "http://www.w3.org/Graphics/SVG/1.1/DTD/svg11.dtd"><svg xmlns="http://www.w3.org/2000/svg" xmlns:xlink="http://www.w3.org/1999/xlink" viewBox="0 0 50 50" width="500px" height="500px"><path fill="none" stroke="#000000" stroke-width="2" stroke-linecap="round" stroke-linejoin="round" stroke-miterlimit="10" d="M15.769,1c0,0-1.846,12.154-1.846,20.308c0,11.167,9.231,9.231,9.231,14.603c0,2.114,0,7.606,0,7.606c0,3.483-9.231,1.868-9.231,5.483h22.154c0-3.615-9.231-2-9.231-5.483c0,0,0-5.492,0-7.606c0-5.372,9.231-3.437,9.231-14.603C36.077,13.154,34.231,1,34.231,1H15.769z"/><polygon points="26.682,1 28.896,7.905 23.833,12.122 29.307,17.271 23.474,26.226 27.596,17.5 21.105,12.424 25.564,7.002 23.086,1 "/></svg>