<?xml version="1.0" encoding="iso-8859-1"?>
<!-- Generator: Adobe Illustrator 23.0.3, SVG Export Plug-In . SVG Version: 6.00 Build 0)  -->
<svg version="1.1" id="Layer_1" xmlns="http://www.w3.org/2000/svg" xmlns:xlink="http://www.w3.org/1999/xlink" x="0px" y="0px"
	 viewBox="0 0 50 50" style="enable-background:new 0 0 50 50;" xml:space="preserve">
<path d="M44,12H6c-2.757,0-5,2.243-5,5v16c0,2.757,2.243,5,5,5h38c2.757,0,5-2.243,5-5V17C49,14.243,46.757,12,44,12z
	 M17.074,30.242h-2.048l-5.27-8.317v8.317H7.884V18.941h2.08l5.206,8.333v-8.333h1.904V30.242z M27.598,30.242H19.36V18.941h8.143
	v1.666h-6.175v3h5.73v1.604h-5.73v3.333h6.27V30.242z M39.978,30.242h-2.016l-2.286-8.682l-2.333,8.682h-2.047l-2.984-11.301h2.016
	l2.063,8.603l2.317-8.603h2.016l2.238,8.603l2.127-8.603h2.016L39.978,30.242z"/>
</svg>