<?xml version="1.0" encoding="iso-8859-1"?>
<!-- Generator: Adobe Illustrator 24.1.2, SVG Export Plug-In . SVG Version: 6.00 Build 0)  -->
<svg version="1.1" id="Layer_1_1_" xmlns="http://www.w3.org/2000/svg" xmlns:xlink="http://www.w3.org/1999/xlink" x="0px" y="0px"
	 viewBox="0 0 50 50" style="enable-background:new 0 0 50 50;" xml:space="preserve">
<path d="M7.783,37c3.895,5.615,10.259,9,17.217,9s13.322-3.385,17.217-9H7.783z"/>
<path d="M46,15H4c-0.552,0-1,0.448-1,1v18c0,0.552,0.448,1,1,1h42c0.552,0,1-0.448,1-1V16C47,15.448,46.552,15,46,15z
	 M40.869,20.545l-0.158,5.672h-1.564l-0.152-5.672C38.995,20.545,40.869,20.545,40.869,20.545z M17.191,29h-1.465l-3.902-5.291
	h-0.105V29h-1.693v-8.455h1.477l3.891,5.268h0.105v-5.268h1.693L17.191,29L17.191,29z M24.844,22.057h-3.832v1.975h3.615v1.4h-3.615
	v2.057h3.832V29h-5.602v-8.455h5.602C24.844,20.545,24.844,22.057,24.844,22.057z M35.039,29h-1.658l-1.6-5.596h-0.094L30.105,29
	h-1.67l-2.238-8.455h1.84l1.318,5.959h0.094l1.541-5.959h1.494l1.57,5.959h0.094l1.307-5.959h1.828L35.039,29z M39.932,29.176
	c-0.656,0-1.066-0.381-1.066-0.996c0-0.621,0.41-1.002,1.066-1.002c0.662,0,1.066,0.381,1.066,1.002
	C40.998,28.795,40.594,29.176,39.932,29.176z"/>
<path d="M42.217,13C38.322,7.385,31.958,4,25,4S11.678,7.385,7.783,13H42.217z"/>
</svg>