<?xml version="1.0" encoding="iso-8859-1"?><!-- Generator: Adobe Illustrator 21.1.0, SVG Export Plug-In . SVG Version: 6.00 Build 0)  --><svg xmlns="http://www.w3.org/2000/svg" xmlns:xlink="http://www.w3.org/1999/xlink" viewBox="0 0 50 50" width="500px" height="500px"><g><path d="M17,27v1.3h-3.4v1.6h3v1.2h-3V34H12v-7H17z"/><path d="M30.8,27v1.3h-3.7v1.5h3.4V31h-3.4v1.7h3.8V34h-5.3v-7H30.8z"/><path d="M37.9,27v1.3h-3.7v1.5h3.4V31h-3.4v1.7H38V34h-5.3v-7H37.9z"/><path d="M21.9,27c0.7,0,2.1,0.4,2.1,1.9c0,1.2-0.7,1.6-1.1,1.8l0,0c0.2,0.1,1,0.3,1,2c0,0.2,0,0.9,0.3,1.3h-1.5c-0.1-0.2-0.1-0.5-0.2-0.8c-0.1-1.1-0.1-2-1.3-2h-1.5V34h-1.5v-7H21.9z M21.4,30.2c0.4,0,1.1-0.1,1.1-1s-0.7-1-1.1-1h-1.7v2H21.4z"/></g><path style="fill:none;stroke:#000000;stroke-width:1.937;stroke-linecap:round;stroke-miterlimit:10;" d="M46.719,28.225L43.2,31.599l0.397,4.86c0.054,0.664-0.365,1.271-1.004,1.456l-4.684,1.35l-1.905,4.487c-0.261,0.613-0.918,0.962-1.566,0.823l-4.78-0.979l-3.772,3.087C25.629,46.894,25.316,47,25.001,47s-0.628-0.105-0.885-0.316l-3.771-3.087l-4.781,0.979c-0.649,0.14-1.304-0.211-1.566-0.823l-1.905-4.487l-4.684-1.35c-0.637-0.186-1.058-0.793-1.004-1.456l0.397-4.86l-3.519-3.374c-0.481-0.46-0.569-1.195-0.214-1.755l2.611-4.118l-1.551-4.624c-0.21-0.63,0.054-1.322,0.629-1.653l4.225-2.437L9.76,8.826c0.106-0.657,0.659-1.147,1.323-1.174l4.872-0.192l2.924-3.901c0.401-0.531,1.12-0.709,1.718-0.423L25,5.231l4.403-2.095C30,2.849,30.722,3.027,31.121,3.559l2.925,3.901l4.872,0.192c0.664,0.027,1.216,0.517,1.325,1.173l0.777,4.812l4.225,2.437c0.575,0.331,0.837,1.023,0.629,1.653l-1.55,4.624l2.61,4.118C47.289,27.029,47.2,27.765,46.719,28.225z"/><path d="M24,24v-9h-3v-2c2,0,3-1,3-2h2v13h-1.9H24z"/></svg>