<?xml version="1.0" encoding="iso-8859-1"?>
<!-- Generator: Adobe Illustrator 18.0.0, SVG Export Plug-In . SVG Version: 6.00 Build 0)  -->
<!DOCTYPE svg PUBLIC "-//W3C//DTD SVG 1.1//EN" "http://www.w3.org/Graphics/SVG/1.1/DTD/svg11.dtd">
<svg version="1.1" id="Layer_1" xmlns="http://www.w3.org/2000/svg" xmlns:xlink="http://www.w3.org/1999/xlink" x="0px" y="0px"
	 width="50px" height="50px" viewBox="0 0 50 50" style="enable-background:new 0 0 50 50;" xml:space="preserve">
<path d="M20.1,1.369c0.198,0.021,0.401,0.057,0.571,0.161c0.5,0.307,0.412,1.206-0.139,1.41c-0.198,0.073-0.415,0.064-0.626,0.054
	c-1.182-0.056-2.365-0.112-3.547-0.168C17.281,1.785,18.718,1.226,20.1,1.369z"/>
<path d="M2.369,16.1c0.021,0.198,0.057,0.401,0.161,0.571c0.307,0.5,1.206,0.412,1.41-0.139c0.073-0.198,0.064-0.415,0.054-0.626
	c-0.056-1.182-0.112-2.365-0.168-3.547C2.785,13.281,2.226,14.718,2.369,16.1z"/>
<path d="M11,3C7.691,3,5,5.691,5,9s2.691,6,6,6s6-2.691,6-6S14.309,3,11,3z M13.886,9.07c-1.163,0.818-2.325,1.637-3.488,2.455
	c0.219-0.606,0.437-1.212,0.656-1.818c0.199-0.551,0.407-1.117,0.801-1.549s1.027-0.703,1.577-0.503
	C13.983,7.854,14.282,8.638,13.886,9.07z"/>
<g>
	<path d="M32.746,26.649c0.624,0.361,1.106,0.896,1.406,1.535l10.32-4.813L38.107,9.723l-13.649,6.365l3.686,7.906L32.746,26.649z"
		/>
	<path d="M16.856,21.755C16.856,21.755,16.856,21.756,16.856,21.755l5.472,4.591c0.118,0.051,0.225,0.125,0.313,0.215l7.616,4.397
		c0.691,0.4,1.639,0.138,2.033-0.544c0.199-0.344,0.251-0.745,0.149-1.129c-0.103-0.384-0.349-0.705-0.693-0.903l-7.784-4.494
		c-0.073-0.035-0.143-0.08-0.206-0.133l-1.703-1.429c-0.009-0.007-0.019-0.009-0.028-0.016l-0.811-0.688l-1.039-0.872
		c0.002-0.002,0.003-0.004,0.005-0.005l-1.341-1.138c-0.421-0.357-0.473-0.988-0.116-1.41c0.356-0.421,0.988-0.473,1.41-0.116
		l2.442,2.071l2.387,2.003l0.164,0.094L21.8,15.12l0.501-0.234c-1.162-0.811-2.557-1.266-4.012-1.266
		c-1.44,0-2.826,0.438-4.01,1.267c-1.29,0.904-1.637,2.642-0.849,3.977L16.856,21.755z"/>
	<path d="M33.969,31.493c-0.632,1.028-1.759,1.665-2.97,1.665c-0.609,0-1.212-0.162-1.742-0.467l-7.846-4.53
		c-0.067-0.039-0.129-0.085-0.185-0.138c-0.042-0.029-0.083-0.06-0.123-0.093l-1.882-1.58c-0.022-0.016-0.048-0.022-0.069-0.04
		l-1.309-1.105L22,31.143v5.174l-3.75,8.041c-0.71,1.524-0.048,3.342,1.476,4.053c0.407,0.19,0.84,0.286,1.287,0.286
		c1.181,0,2.267-0.691,2.766-1.761l4.128-8.854c0.07-0.151,0.096-0.312,0.085-0.469C27.997,37.56,28,37.507,28,37.455v-3.946
		l3.763,4.485l-1.239,7.024c-0.285,1.617,0.798,3.165,2.416,3.45c0.174,0.031,0.349,0.045,0.52,0.045c0,0,0,0,0,0
		c1.446,0,2.679-1.035,2.93-2.461l1.595-9.046c0.013-0.071,0.017-0.143,0.014-0.214c0.001-0.012,0.003-0.024,0.004-0.036
		c0.023-0.264-0.06-0.527-0.23-0.73L33.969,31.493z"/>
</g>
</svg>