<?xml version="1.0" encoding="iso-8859-1"?><!-- Generator: Adobe Illustrator 19.1.1, SVG Export Plug-In . SVG Version: 6.00 Build 0)  --><svg xmlns="http://www.w3.org/2000/svg" xmlns:xlink="http://www.w3.org/1999/xlink" viewBox="0 0 50 50" width="500px" height="500px"><g><path d="M44,35h-6c0,2.2,3,3,3,3S44,37.2,44,35z"/><path d="M48.9,48H48v-3c0-1.4-0.6-2.7-1.9-3.7L44.6,40l1.5-1.3c1.3-1,1.9-2.3,1.9-3.7v-3h1c0.6,0,1-0.4,1-1c0-0.6-0.4-1-1-1h-5V2H6v46h27c-0.6,0-1,0.4-1,1c0,0.6,0.4,1,1,1h16c0.6,0,1-0.4,1-1C50,48.4,49.6,48,48.9,48z M32,31c0,0.6,0.4,1,1,1H21v-2h12C32.4,30,32,30.4,32,31z M21,26v-2h15v2H21z M14,11h22v2H14V11z M18,38h-4v-2h4V38z M18,32h-4v-2h4V32z M18,26h-4v-2h4V26z M32,38H21v-2h13.123c0.177,0.721,0.545,1.396,1.068,2H32z M46,48h-2c0-2-3-4-3-4s-3,2-3,4h-2v-3c0-0.9,0.4-1.5,1.2-2.2l2.4-2c0.3-0.2,0.4-0.5,0.4-0.8s-0.1-0.6-0.4-0.7l-2.4-2.1C36.4,36.5,36,35.8,36,35v-3h10v3c0,0.8-0.3,1.5-1.1,2.2l-2.4,2c-0.3,0.2-0.4,0.5-0.4,0.8s0.1,0.6,0.4,0.7l2.4,2.1c0.8,0.7,1.1,1.3,1.1,2.2V48z"/></g></svg>