<?xml version="1.0" encoding="iso-8859-1"?><!-- Generator: Adobe Illustrator 21.1.0, SVG Export Plug-In . SVG Version: 6.00 Build 0)  --><svg xmlns="http://www.w3.org/2000/svg" xmlns:xlink="http://www.w3.org/1999/xlink" viewBox="0 0 50 50" width="50px" height="50px"><path d="M44,8H6c-2.757,0-5,2.243-5,5v24c0,2.757,2.243,5,5,5h38c2.757,0,5-2.243,5-5V13C49,10.243,46.757,8,44,8z M29.628,23.41l-5.524,4.455l1.922,6.866c0.112,0.399-0.034,0.827-0.368,1.074C25.48,35.935,25.271,36,25.063,36c-0.188,0-0.375-0.053-0.54-0.158L18.5,31.978l-6.022,3.864c-0.349,0.223-0.8,0.209-1.135-0.038c-0.334-0.247-0.48-0.674-0.368-1.074l1.922-6.866L7.372,23.41c-0.322-0.26-0.451-0.693-0.323-1.087c0.128-0.395,0.486-0.669,0.9-0.69l7.093-0.361l2.523-6.627C17.713,14.256,18.085,14,18.5,14s0.787,0.256,0.935,0.644l2.523,6.627l7.093,0.361c0.414,0.021,0.772,0.295,0.9,0.69C30.079,22.717,29.95,23.149,29.628,23.41z M32,35c-0.552,0-1-0.448-1-1c0-0.552,0.448-1,1-1s1,0.448,1,1C33,34.552,32.552,35,32,35z M35,35c-0.552,0-1-0.448-1-1c0-0.552,0.448-1,1-1s1,0.448,1,1C36,34.552,35.552,35,35,35z M38,35c-0.552,0-1-0.448-1-1c0-0.552,0.448-1,1-1s1,0.448,1,1C39,34.552,38.552,35,38,35z M41,35c-0.552,0-1-0.448-1-1c0-0.552,0.448-1,1-1s1,0.448,1,1C42,34.552,41.552,35,41,35z"/></svg>