<?xml version="1.0" encoding="iso-8859-1"?>
<!-- Generator: Adobe Illustrator 23.0.3, SVG Export Plug-In . SVG Version: 6.00 Build 0)  -->
<svg version="1.1" id="Layer_1" xmlns="http://www.w3.org/2000/svg" xmlns:xlink="http://www.w3.org/1999/xlink" x="0px" y="0px"
	 viewBox="0 0 50 50" style="enable-background:new 0 0 50 50;" xml:space="preserve">
<path style="fill:none;stroke:#000000;stroke-width:2;stroke-linecap:round;stroke-miterlimit:10;" d="M11,21.297
	C11.825,22.327,13.078,23,14.5,23s2.675-0.673,3.5-1.703"/>
<path style="fill:none;stroke:#000000;stroke-width:2;stroke-linecap:round;stroke-miterlimit:10;" d="M39,21.297
	C39.824,22.327,41.078,23,42.5,23c2.485,0,3.5-2.015,3.5-4.5S45,11,45,11H5c0,0-1,5.015-1,7.5S5.015,23,7.5,23
	c1.422,0,2.675-0.673,3.5-1.703"/>
<path style="fill:none;stroke:#000000;stroke-width:2;stroke-linecap:round;stroke-miterlimit:10;" d="M32,21.297
	C32.824,22.327,34.078,23,35.5,23s2.676-0.673,3.5-1.703"/>
<path style="fill:none;stroke:#000000;stroke-width:2;stroke-linecap:round;stroke-miterlimit:10;" d="M25,21.297
	C25.825,22.327,27.078,23,28.5,23s2.676-0.673,3.5-1.703"/>
<path style="fill:none;stroke:#000000;stroke-width:2;stroke-linecap:round;stroke-miterlimit:10;" d="M18,21.297
	C18.825,22.327,20.078,23,21.5,23s2.675-0.673,3.5-1.703"/>
<line style="fill:none;stroke:#000000;stroke-width:2;stroke-linecap:round;stroke-miterlimit:10;" x1="39" y1="21.25" x2="39" y2="11.25"/>
<line style="fill:none;stroke:#000000;stroke-width:2;stroke-linecap:round;stroke-miterlimit:10;" x1="32" y1="21.25" x2="32" y2="11"/>
<line style="fill:none;stroke:#000000;stroke-width:2;stroke-linecap:round;stroke-miterlimit:10;" x1="25" y1="21.25" x2="25" y2="11"/>
<line style="fill:none;stroke:#000000;stroke-width:2;stroke-linecap:round;stroke-miterlimit:10;" x1="18" y1="21.25" x2="18" y2="11"/>
<line style="fill:none;stroke:#000000;stroke-width:2;stroke-miterlimit:10;" x1="11" y1="21.25" x2="11" y2="11"/>
<circle cx="8" cy="8" r="1"/>
<circle cx="11" cy="8" r="1"/>
<circle cx="14" cy="8" r="1"/>
<path style="fill:none;stroke:#000000;stroke-width:2;stroke-miterlimit:10;" d="M5,11V7c0-1.105,0.895-2,2-2h36
	c1.105,0,2,0.895,2,2v4H5z"/>
<line style="fill:none;stroke:#000000;stroke-width:2;stroke-linecap:round;stroke-miterlimit:10;" x1="47" y1="33" x2="37" y2="49"/>
<path style="fill:none;stroke:#000000;stroke-width:2;stroke-linecap:round;stroke-miterlimit:10;" d="M49,45c0-1.105-0.895-2-2-2
	c-1.105,0-2,0.895-2,2v2c0,0,0,0,0,0c0,1.105,0.895,2,2,2s2-0.895,2-2V45z"/>
<path style="fill:none;stroke:#000000;stroke-width:2;stroke-linecap:round;stroke-miterlimit:10;" d="M39,35c0-1.105-0.895-2-2-2
	c-1.105,0-2,0.895-2,2v2c0,0,0,0,0,0c0,1.105,0.895,2,2,2s2-0.895,2-2V35z"/>
<g>
	<path d="M36.593,44H7c-0.551,0-1-0.448-1-1V22c0-0.553-0.448-1-1-1s-1,0.447-1,1v21c0,1.654,1.346,3,3,3h28.34L36.593,44z"/>
	<path d="M46,28.984V22c0-0.553-0.448-1-1-1s-1,0.447-1,1v10.177L46,28.984z"/>
</g>
</svg>