<?xml version="1.0" encoding="iso-8859-1"?><!-- Generator: Adobe Illustrator 21.1.0, SVG Export Plug-In . SVG Version: 6.00 Build 0)  --><svg xmlns="http://www.w3.org/2000/svg" xmlns:xlink="http://www.w3.org/1999/xlink" viewBox="0 0 50 50" width="50px" height="50px"><path d="M4,4v15h35V4H4z M19,16H9V9h10V16z M34,16H24V9h10V16z M4,28.28V38h35V24.86L4,28.28z M4,21v5.27l35-3.42V21H4z"/><polygon points="40,7 43,4 46,7 "/><polygon points="46,37 43,40 40,37 "/><rect x="42" y="33" width="2" height="2"/><rect x="42" y="29" width="2" height="2"/><rect x="42" y="25" width="2" height="2"/><rect x="42" y="21" width="2" height="2"/><rect x="42" y="17" width="2" height="2"/><rect x="42" y="13" width="2" height="2"/><rect x="42" y="9" width="2" height="2"/><polygon points="37,40 40,43 37,46 "/><polygon points="7,46 4,43 7,40 "/><rect x="9" y="42" width="2" height="2"/><rect x="13" y="42" width="2" height="2"/><rect x="17" y="42" width="2" height="2"/><rect x="21" y="42" width="2" height="2"/><rect x="25" y="42" width="2" height="2"/><rect x="29" y="42" width="2" height="2"/><rect x="33" y="42" width="2" height="2"/></svg>