<?xml version="1.0" encoding="iso-8859-1"?><!-- Generator: Adobe Illustrator 22.1.0, SVG Export Plug-In . SVG Version: 6.00 Build 0)  --><svg xmlns="http://www.w3.org/2000/svg" xmlns:xlink="http://www.w3.org/1999/xlink" viewBox="0 0 50 50" width="50px" height="50px"><path d="M25,1C15.305,1,5,3.804,5,9s10.305,8,20,8s20-2.804,20-8S34.695,1,25,1z M26.998,9.5c0,1.93-1.57,3.5-3.5,3.5h-0.5c-2.058,0-7.914-0.96-8.162-1C13.237,11.808,12,10.517,12,9.001V8.999c0-1.515,1.237-2.807,2.879-3.004C15.075,5.96,20.814,5,22.998,5h0.5c1.93,0,3.5,1.57,3.5,3.5V9.5z"/><path d="M23.498,7h-0.5c-0.949,0-2.724,0.213-4.345,0.44c0.188,0.4,0.345,0.919,0.345,1.56c0,0.637-0.155,1.154-0.341,1.553c1.65,0.23,3.443,0.447,4.342,0.447h0.5c0.827,0,1.5-0.673,1.5-1.5v-1C24.998,7.673,24.325,7,23.498,7z"/><line style="fill:none;stroke:#000000;stroke-width:2;stroke-linecap:round;stroke-linejoin:round;stroke-miterlimit:10;" x1="20" y1="33" x2="30" y2="33"/><line style="fill:none;stroke:#000000;stroke-width:2;stroke-linecap:round;stroke-linejoin:round;stroke-miterlimit:10;" x1="22" y1="37" x2="28" y2="37"/><path d="M44,14.387C39.912,17.528,32.266,19,25,19s-14.912-1.472-19-4.613v24.016c-0.664,0.828-1,1.7-1,2.597c0,5.196,10.305,8,20,8s20-2.804,20-8c0-0.897-0.336-1.769-1-2.597V14.387z M33.25,41C33,42,28.976,43,25,43s-8-1-8.25-2L15,30.125c0-0.387,0.884-0.837,2-1.125v-4c0-0.953,4.024-2,8-2s8,1.047,8,2v4c1.116,0.288,2,0.738,2,1.125L33.25,41z"/></svg>