<?xml version="1.0" encoding="utf-8"?><!-- Generator: Adobe Illustrator 15.0.0, SVG Export Plug-In . SVG Version: 6.00 Build 0)  --><!DOCTYPE svg PUBLIC "-//W3C//DTD SVG 1.1//EN" "http://www.w3.org/Graphics/SVG/1.1/DTD/svg11.dtd"><svg xmlns="http://www.w3.org/2000/svg" xmlns:xlink="http://www.w3.org/1999/xlink" viewBox="0 0 50 50" width="50px" height="50px"><path d="M25,20C12.103,20,2,15.606,2,9.998C2,4.392,12.103,0,25,0c12.897,0,23,4.392,23,9.998C48,15.606,37.897,20,25,20z"/><path d="M25,22c-10.741,0-19.293-2.777-23-7.047v4.623C2,24.99,9.31,33,25,33c15.69,0,23-8.01,23-13.424v-4.623C44.294,19.224,35.741,22,25,22z"/><path d="M33.875,34.083c-2.023,2.539-2.867,5.886-2.874,5.914c-0.001,0-0.001,0-0.002,0c-0.008-0.031-0.883-3.421-3.221-5.089C26.877,34.962,25.959,35,25,35c-0.959,0-1.878-0.038-2.779-0.092c-2.328,1.661-3.204,5.027-3.219,5.086c-0.001,0-0.003-0.001-0.004-0.001c-0.017-0.052-1.105-3.454-3.195-5.993c-2.148-0.499-4.062-1.166-5.755-1.956C10.028,32.121,10,32.193,10,32.275v8.026C10,44.213,14.767,50,25,50c10.232,0,15-5.786,15-9.697v-8.027c0-0.082-0.028-0.154-0.047-0.23C38.173,32.875,36.158,33.577,33.875,34.083z"/></svg>