<?xml version="1.0" encoding="utf-8"?><!-- Generator: Adobe Illustrator 15.0.0, SVG Export Plug-In . SVG Version: 6.00 Build 0)  --><!DOCTYPE svg PUBLIC "-//W3C//DTD SVG 1.1//EN" "http://www.w3.org/Graphics/SVG/1.1/DTD/svg11.dtd"><svg xmlns="http://www.w3.org/2000/svg" xmlns:xlink="http://www.w3.org/1999/xlink" viewBox="0 0 50 50" width="50px" height="50px"><path d="M30.84,27.434c-1.506,5.784-2.508,15.565-2.519,15.667c-0.006,0.236-0.011,0.483-0.016,0.731l17.03-3.219c0.389-0.073,0.697-0.368,0.788-0.753c0.024-0.106,2.382-10.072,3.622-14.313L30.84,27.434z"/><path d="M15.854,7.48C15.91,7.56,23.93,19.339,30.41,25.466l19.05-1.901c-1.928-2.276-8.153-11.782-10.503-15.432c-0.196-0.304-0.546-0.483-0.901-0.457c-0.149,0.01-14.744,0.873-22.43-0.576C15.764,7.332,15.851,7.474,15.854,7.48z"/><path d="M26.326,42.974c0.048-0.497,1.046-10.231,2.605-16.149C22.318,20.529,14.509,9.057,14.172,8.562c-0.027-0.044-0.167-0.274-0.369-0.611C11.921,10.556,3.455,22.159,0.404,24.42c-0.301,0.223-0.452,0.595-0.391,0.965l2.622,16.022c0.076,0.468,0.47,0.817,0.943,0.838l6.096,0.202c0.544,0.038,0.995-0.38,1.041-0.914l1.17-14.557l6.292,0.405l0.945,15.033c0.033,0.491,0.419,0.886,0.91,0.929l6.273,0.57C26.311,43.626,26.317,43.319,26.326,42.974z"/></svg>