<?xml version="1.0" encoding="iso-8859-1"?>
<!-- Generator: Adobe Illustrator 22.1.0, SVG Export Plug-In . SVG Version: 6.00 Build 0)  -->
<svg version="1.1" id="Layer_1" xmlns="http://www.w3.org/2000/svg" xmlns:xlink="http://www.w3.org/1999/xlink" x="0px" y="0px"
	 viewBox="0 0 50 50" style="enable-background:new 0 0 50 50;" xml:space="preserve">
<g>
</g>
<line style="fill:none;stroke:#000000;stroke-width:2;stroke-linejoin:round;stroke-miterlimit:10;" x1="25" y1="12" x2="25" y2="7"/>
<line style="fill:none;stroke:#000000;stroke-width:2;stroke-linecap:round;stroke-linejoin:round;stroke-miterlimit:10;" x1="23" y1="7" x2="27" y2="7"/>
<path style="fill:none;stroke:#000000;stroke-width:2;stroke-linejoin:round;stroke-miterlimit:10;" d="M18,12V3h14v9"/>
<path style="fill:#231F20;" d="M22,31.143C22,29.75,23,29,23,29s0,2,1.5,2c1,0,1.5-0.571,1.5-2c0-1.5-1-3-1-3s3,1.714,3,5.143
	C28,32.721,26.657,34,25,34S22,32.721,22,31.143z"/>
<path d="M38,38V19c0-4.832-3.116-7.317-5.776-7.974C32.149,11.017,32.076,11.009,32,11H18c-0.076,0.009-0.149,0.017-0.224,0.026
	C15.116,11.683,12,14.168,12,19v19c0,1.114,0.913,1.971,2.027,2C14.567,40.015,15,40.457,15,41c0,0.543-0.433,0.985-0.973,1
	C12.913,42.029,12,42.886,12,44v3c0,0.552,0.448,1,1,1h24c0.552,0,1-0.448,1-1v-3c0-1.105-0.895-2-2-2c-0.552,0-1-0.448-1-1
	c0-0.552,0.448-1,1-1C37.105,40,38,39.105,38,38z M22,42h-3c-0.552,0-1-0.447-1-1s0.448-1,1-1h3c0.552,0,1,0.447,1,1
	S22.552,42,22,42z M20,29.13V29.1c0-4.028,3.198-4.837,3.5-8.6c0-0.276,0.224-0.5,0.5-0.5c0.081,0,0.155,0.023,0.221,0.059
	c0.026,0.014,0.216,0.13,0.289,0.178C25.894,21.151,30,24.313,30,29.13c0,2.8-2.239,4.87-5,4.87S20,31.837,20,29.13z M31,42h-3
	c-0.552,0-1-0.447-1-1s0.448-1,1-1h3c0.552,0,1,0.447,1,1S31.552,42,31,42z"/>
</svg>