<?xml version="1.0" encoding="utf-8"?><!-- Generator: Adobe Illustrator 15.0.0, SVG Export Plug-In . SVG Version: 6.00 Build 0)  --><!DOCTYPE svg PUBLIC "-//W3C//DTD SVG 1.1//EN" "http://www.w3.org/Graphics/SVG/1.1/DTD/svg11.dtd"><svg xmlns="http://www.w3.org/2000/svg" xmlns:xlink="http://www.w3.org/1999/xlink" viewBox="0 0 50 50" width="50px" height="50px"><path d="M47.154,45.941c-1.599,0-3.804-0.4-5.539-1.488c-1.735,1.088-3.939,1.488-5.538,1.488s-3.804-0.4-5.539-1.489c-1.735,1.089-3.94,1.489-5.538,1.489c-1.598,0-3.803-0.4-5.539-1.488c-1.735,1.088-3.939,1.488-5.538,1.488c-1.598,0-3.803-0.4-5.538-1.488c-1.735,1.088-3.94,1.488-5.539,1.488c-0.658,0-1.293-0.05-1.998-0.158c-0.546-0.083-0.921-0.594-0.837-1.14s0.601-0.919,1.14-0.837c0.602,0.092,1.14,0.135,1.695,0.135c1.394,0,3.519-0.392,4.92-1.494c0.362-0.287,0.874-0.286,1.237-0.001c1.401,1.104,3.526,1.495,4.919,1.495c1.394,0,3.519-0.392,4.919-1.494c0.362-0.287,0.874-0.287,1.237-0.001c1.402,1.104,3.527,1.495,4.921,1.495s3.518-0.392,4.92-1.495c0.361-0.285,0.875-0.285,1.236,0c1.402,1.104,3.527,1.495,4.921,1.495s3.519-0.392,4.919-1.494c0.363-0.287,0.875-0.287,1.238,0c1.4,1.103,3.525,1.494,4.92,1.494c0.563,0,1.059-0.078,1.514-0.238c0.521-0.185,1.092,0.09,1.275,0.611s-0.091,1.092-0.611,1.275C48.659,45.826,47.947,45.941,47.154,45.941z"/><path d="M47.154,49.941c-1.599,0-3.804-0.4-5.539-1.488c-1.735,1.088-3.939,1.488-5.538,1.488s-3.804-0.4-5.539-1.489c-1.735,1.089-3.94,1.489-5.538,1.489c-1.598,0-3.803-0.4-5.539-1.488c-1.735,1.088-3.939,1.488-5.538,1.488c-1.598,0-3.803-0.4-5.538-1.488c-1.735,1.088-3.94,1.488-5.539,1.488c-0.658,0-1.293-0.05-1.998-0.158c-0.546-0.083-0.921-0.594-0.837-1.14s0.601-0.919,1.14-0.837c0.602,0.092,1.14,0.135,1.695,0.135c1.394,0,3.519-0.392,4.92-1.494c0.362-0.287,0.874-0.286,1.237-0.001c1.401,1.104,3.526,1.495,4.919,1.495c1.394,0,3.519-0.392,4.919-1.494c0.362-0.287,0.874-0.286,1.237-0.001c1.402,1.104,3.527,1.495,4.921,1.495s3.518-0.392,4.92-1.495c0.361-0.285,0.875-0.285,1.236,0c1.402,1.104,3.527,1.495,4.921,1.495s3.519-0.392,4.919-1.494c0.363-0.287,0.875-0.287,1.238,0c1.4,1.103,3.525,1.494,4.92,1.494c0.563,0,1.059-0.078,1.514-0.238c0.521-0.186,1.092,0.09,1.275,0.611s-0.091,1.092-0.611,1.275C48.659,49.826,47.947,49.941,47.154,49.941z"/><g><path d="M11.549,30.507c3.397-0.941,16.263-4.178,25.556-6.504c-3.483-1.032-8.6-2.394-11.359-2.394c-0.324,0-0.616,0.019-0.874,0.055c-0.47,0.066-1.088,0.149-1.796,0.244c-9.418,1.261-10.479,1.624-10.932,2.267c-0.551,0.776-2.41,3.969-3.116,7.268C9.825,31.069,10.665,30.752,11.549,30.507z"/><path d="M8.755,33.829c0,0.063-0.005,0.13-0.004,0.193c0.007,0.306,0.153,0.591,0.396,0.775C9.323,34.931,9.536,35,9.751,35c0.083,0,0.167-0.011,0.25-0.032l30.666-7.915c0.429-0.111,0.734-0.491,0.749-0.935c0.016-0.432-0.252-0.819-0.655-0.968c-9.207,2.3-24.881,6.233-28.678,7.285C10.866,32.771,9.759,33.254,8.755,33.829z"/></g><g><path d="M2.846,41.941c1.122,0,2.752-0.334,3.678-1.062c0.527-0.418,1.188-0.647,1.86-0.647c0.669,0,1.328,0.228,1.856,0.643c0.931,0.732,2.561,1.066,3.682,1.066c1.122,0,2.752-0.334,3.676-1.061c0.527-0.419,1.188-0.649,1.862-0.649c0.67,0,1.33,0.229,1.855,0.644c0.932,0.732,2.563,1.066,3.684,1.066c1.121,0,2.752-0.334,3.681-1.065c0.526-0.415,1.186-0.644,1.857-0.644s1.331,0.229,1.854,0.643c0.932,0.732,2.563,1.066,3.685,1.066s2.752-0.333,3.679-1.063c0.452-0.357,1.003-0.566,1.574-0.621c2.515-3.251,4.669-7.228,6.554-10.716c0.589-1.09,1.145-2.117,1.668-3.039c0.635-1.12,0.379-1.89,0.169-2.25c-0.316-0.543-0.918-0.868-1.608-0.868c-0.163,0-0.327,0.018-0.516,0.06c-0.301,0.075-30.08,7.484-35.514,8.99c-5.784,1.603-9.173,6.416-9.976,9.473C2.357,41.929,2.602,41.941,2.846,41.941z M29.59,33.043c1.081-0.227,2.141,0.467,2.368,1.549c0.226,1.078-0.47,2.137-1.549,2.365c-1.084,0.227-2.142-0.467-2.366-1.547C27.816,34.328,28.505,33.268,29.59,33.043z M23.59,34.043c1.081-0.227,2.141,0.467,2.368,1.549c0.226,1.078-0.47,2.137-1.549,2.365c-1.084,0.227-2.142-0.467-2.366-1.547C21.817,35.328,22.505,34.268,23.59,34.043z M17.59,35.043c1.081-0.227,2.14,0.467,2.368,1.549c0.226,1.078-0.47,2.137-1.549,2.365c-1.084,0.227-2.142-0.467-2.366-1.547C15.817,36.328,16.505,35.268,17.59,35.043z"/><path d="M34.813,45.813c0.155,0,0.309-0.036,0.447-0.105c1.02-0.51,1.992-1.199,2.921-2.018c-0.759,0.173-1.5,0.252-2.104,0.252c-1.394,0-3.519-0.392-4.921-1.495c-0.181-0.143-0.399-0.214-0.618-0.214s-0.438,0.071-0.618,0.214c-1.402,1.104-3.526,1.495-4.92,1.495s-3.519-0.392-4.921-1.495c-0.181-0.143-0.4-0.215-0.618-0.215c-0.219,0-0.438,0.072-0.619,0.216c-1.401,1.103-3.525,1.494-4.919,1.494c-1.394,0-3.518-0.392-4.919-1.495c-0.182-0.143-0.4-0.214-0.619-0.214c-0.218,0-0.437,0.071-0.618,0.215c-1.401,1.103-3.526,1.494-4.92,1.494c-0.3,0-0.599-0.016-0.902-0.041c0.051,0.497,0.204,0.979,0.678,1.317c0.166,0.119,0.365,0.184,0.569,0.187l2.957,0.038c0.775-0.233,1.544-0.555,2.238-0.989c0.759,0.476,1.607,0.813,2.455,1.05l5.894,0.076c0.938-0.237,1.887-0.6,2.727-1.126c0.938,0.588,2.01,0.969,3.052,1.201l4.688,0.061c1.129-0.223,2.314-0.62,3.338-1.263c1.188,0.746,2.595,1.163,3.879,1.355l0.383,0.005C34.804,45.813,34.809,45.813,34.813,45.813z"/></g><g><path d="M10.509,23.022c0.401-0.568,0.818-0.96,1.915-1.326c-2.06-1.174-2.487-1.431-2.567-1.484l-0.164-0.109c-0.529-0.354-0.801-0.488-1.569-0.488H5.239c-0.702,0-1.168,0.246-1.389,0.732c-0.337,0.743,0.222,1.381,0.404,1.588c0.071,0.081,0.275,0.314,4.556,4.13C9.503,24.6,10.183,23.481,10.509,23.022z"/></g></svg>