<?xml version="1.0" encoding="utf-8"?><!-- Generator: Adobe Illustrator 20.1.0, SVG Export Plug-In . SVG Version: 6.00 Build 0)  --><svg xmlns="http://www.w3.org/2000/svg" xmlns:xlink="http://www.w3.org/1999/xlink" viewBox="0 0 50 50" width="50px" height="50px"><path fill="none" stroke="#000000" stroke-width="2" stroke-linecap="round" stroke-miterlimit="10" d="M30,20.6c0,0-1.5-1.1-2-4.5c-0.3-1.9,0.1-2.2-3-2.1c-3,0-4,1-4,2c0,4.4-2,7-2,7"/><path fill="none" stroke="#000000" stroke-width="2" stroke-miterlimit="10" d="M28,16.1c0,0,0.3-0.2,1-1.1c0.8-1,2.3-1.7,2.8-1.3c0.2,0.1,0.3,0.4,0.3,0.8c0,4.5,3,11.3,6.3,17.3"/><path fill="none" stroke="#000000" stroke-width="2" stroke-miterlimit="10" d="M20.4,20.1c0,0,1.2-2.6-0.4-5.1c-0.5-0.8-3-2.1-3-0.8c0,4.5-2.7,11.2-5.8,17.2"/><path d="M47.9,45.4l-0.1-0.2c0-0.1-4.5-6.4-8.5-13.7l-0.7-1l-0.9,0.8c-1.9,0.7-3-0.7-4.6-3.1c-1.1-1.6-2.3-3.3-4-3.3c-1.6,0-2.2,1.7-2.9,3.3c-0.7,1.7-1.2,3-2.1,3c-0.8,0-0.8-0.1-0.9-1c-0.1-0.7-0.3-2.2-2.1-2.2c-1.9,0-3.3,1.9-4.6,3.7c-1.1,1.5-2.2,3-3.1,2.7c-0.7-0.2-1-2-1.1-3.1l-0.5-3.1L10.3,31c-3.8,7.5-8.1,14.2-8.1,14.2l-0.1,0.2c-0.2,0.6-0.2,1.3,0.2,1.8C2.7,47.7,3.3,48,4,48h42c0.7,0,1.3-0.3,1.7-0.9C48,46.6,48.1,45.9,47.9,45.4z"/><path fill="none" stroke="#000000" stroke-width="2" stroke-linecap="round" stroke-miterlimit="10" d="M28,11c0,0,0.2-4.8,4-8"/><path fill="none" stroke="#000000" stroke-width="2" stroke-linecap="round" stroke-miterlimit="10" d="M37,6.5c-6.1,0-6,3.5-6,3.5"/><line fill="none" stroke="#000000" stroke-width="2" stroke-linecap="round" stroke-miterlimit="10" x1="25" y1="10" x2="25" y2="3"/><path fill="none" stroke="#000000" stroke-width="2" stroke-linecap="round" stroke-miterlimit="10" d="M22,11c0,0-0.2-4.8-4-8"/><path fill="none" stroke="#000000" stroke-width="2" stroke-linecap="round" stroke-miterlimit="10" d="M12,6.5c7.1,0,7,3.5,7,3.5"/></svg>