<?xml version="1.0" encoding="utf-8"?><!-- Generator: Adobe Illustrator 15.0.0, SVG Export Plug-In . SVG Version: 6.00 Build 0)  --><!DOCTYPE svg PUBLIC "-//W3C//DTD SVG 1.1//EN" "http://www.w3.org/Graphics/SVG/1.1/DTD/svg11.dtd"><svg xmlns="http://www.w3.org/2000/svg" xmlns:xlink="http://www.w3.org/1999/xlink" viewBox="0 0 50 50" width="50px" height="50px"><path d="M36.838,50c-4.602,0-7.009-2.412-7.154-7.171c-0.108-3.562,1.474-5.52,2.87-7.246c1.205-1.49,2.246-2.777,2.246-5.015c0-3.028-1.486-4.425-3.207-6.042C29.908,22.943,28,21.149,28,17.721C28,14.085,30.247,12,34.166,12c4.667,0,13.563,2.27,13.825,10.861c0.136,4.453-1.198,7.371-2.488,10.192c-1.245,2.726-2.422,5.299-2.422,9.319C43.081,46.122,40.746,50,36.838,50z"/><path d="M13.162,50c-3.908,0-6.243-3.878-6.243-7.628c0-4.021-1.177-6.594-2.422-9.319c-1.29-2.821-2.623-5.739-2.487-10.192C2.272,14.27,11.167,12,15.834,12C19.752,12,22,14.085,22,17.721c0,3.428-1.909,5.222-3.592,6.805c-1.721,1.618-3.208,3.014-3.208,6.042c0,2.237,1.041,3.524,2.246,5.015c1.396,1.727,2.979,3.685,2.869,7.246C20.171,47.587,17.764,50,13.162,50z"/><path d="M5.074,11.173c-0.871,0.159-1.78-0.687-2.032-1.889C2.791,8.08,3.294,6.981,4.167,6.828C5.041,6.666,5.947,7.512,6.2,8.714C6.455,9.915,5.943,11.012,5.074,11.173z"/><path d="M2.096,14.28c-0.871,0.159-1.78-0.687-2.032-1.889c-0.251-1.206,0.252-2.303,1.125-2.457c0.874-0.162,1.78,0.685,2.033,1.887C3.477,13.021,2.966,14.119,2.096,14.28z"/><path d="M10.546,6.258c-0.002-1.514-0.98-2.74-2.19-2.738C7.145,3.518,6.162,4.746,6.162,6.26c0,1.511,0.979,2.738,2.192,2.74C9.563,8.998,10.546,7.771,10.546,6.258z"/><path d="M23.925,5.504c0.41-2.708-0.69-5.138-2.459-5.427c-1.769-0.287-3.534,1.677-3.947,4.384c-0.408,2.705,0.69,5.137,2.462,5.425C21.75,10.175,23.513,8.213,23.925,5.504z"/><path d="M16.666,5.236c0.206-2.113-0.83-3.939-2.329-4.081c-1.502-0.141-2.887,1.458-3.098,3.575c-0.212,2.116,0.827,3.939,2.327,4.081C15.063,8.949,16.451,7.351,16.666,5.236z"/><path d="M43.807,8.714c0.252-1.202,1.158-2.049,2.032-1.887c0.873,0.154,1.376,1.252,1.125,2.457c-0.252,1.202-1.161,2.047-2.032,1.889C44.063,11.012,43.551,9.915,43.807,8.714z"/><path d="M46.783,11.821c0.253-1.202,1.16-2.049,2.033-1.887c0.873,0.154,1.376,1.251,1.125,2.457c-0.252,1.202-1.16,2.048-2.031,1.889C47.04,14.119,46.529,13.021,46.783,11.821z"/><path d="M41.652,9c1.213-0.002,2.191-1.229,2.191-2.74c0-1.514-0.982-2.742-2.193-2.74c-1.21-0.002-2.188,1.224-2.19,2.738C39.46,7.771,40.443,8.998,41.652,9z"/><path d="M30.025,9.886c1.771-0.288,2.869-2.72,2.461-5.425c-0.412-2.707-2.178-4.671-3.946-4.384c-1.769,0.289-2.869,2.719-2.459,5.427C26.493,8.213,28.256,10.175,30.025,9.886z"/><path d="M36.439,8.81c1.5-0.142,2.539-1.965,2.327-4.081c-0.21-2.117-1.596-3.716-3.098-3.575c-1.499,0.142-2.535,1.968-2.329,4.081C33.555,7.351,34.943,8.949,36.439,8.81z"/></svg>