<?xml version="1.0" encoding="iso-8859-1"?><!-- Generator: Adobe Illustrator 19.1.1, SVG Export Plug-In . SVG Version: 6.00 Build 0)  --><svg xmlns="http://www.w3.org/2000/svg" xmlns:xlink="http://www.w3.org/1999/xlink" viewBox="0 0 50 50" width="50px" height="50px"><polyline style="fill:none;stroke:#000000;stroke-width:2;stroke-linecap:round;stroke-linejoin:round;stroke-miterlimit:10;" points="8,21 15,12 15,21 "/><polyline style="fill:none;stroke:#000000;stroke-width:2;stroke-linecap:round;stroke-linejoin:round;stroke-miterlimit:10;" points="15,21 22,13 22,21 "/><line style="fill:none;stroke:#000000;stroke-width:2;stroke-linecap:round;stroke-linejoin:round;stroke-miterlimit:10;" x1="39" y1="20" x2="31" y2="12"/><line style="fill:none;stroke:#000000;stroke-width:2;stroke-linecap:round;stroke-linejoin:round;stroke-miterlimit:10;" x1="30" y1="21" x2="22" y2="13"/><polyline style="fill:none;stroke:#000000;stroke-width:2;stroke-linecap:round;stroke-linejoin:round;stroke-miterlimit:10;" points="40,11 22,12 8,12 "/><polyline style="fill:none;stroke:#000000;stroke-width:2;stroke-linecap:round;stroke-linejoin:round;stroke-miterlimit:10;" points="23,22 49,19 40,11 "/><line style="fill:none;stroke:#000000;stroke-width:2;stroke-linecap:round;stroke-linejoin:round;stroke-miterlimit:10;" x1="40" y1="11" x2="40" y2="20"/><line style="fill:none;stroke:#000000;stroke-width:2;stroke-linecap:round;stroke-linejoin:round;stroke-miterlimit:10;" x1="31" y1="12" x2="31" y2="20"/><polyline style="fill:none;stroke:#000000;stroke-width:2;stroke-linecap:round;stroke-linejoin:round;stroke-miterlimit:10;" points="23,22 1,21 8,12 8,21 "/><g><path d="M0.866,23.997C0.565,23.984,0.275,23.923,0,23.826V37c0,0.498,0.366,0.92,0.858,0.99L21,40.868V24.912L0.866,23.997z"/><path d="M23.364,24.978c-0.12,0.015-0.238,0.022-0.356,0.022L23,25v15.834l7.179-1.305c0.476-0.086,0.821-0.5,0.821-0.983v-9.663l6-0.75v8.958c0,0.297,0.131,0.578,0.359,0.768c0.227,0.19,0.525,0.272,0.819,0.216l6-1.091C44.654,36.897,45,36.483,45,36V22.481L23.364,24.978z"/></g></svg>