<?xml version="1.0" encoding="iso-8859-1"?>
<!-- Generator: Adobe Illustrator 18.0.0, SVG Export Plug-In . SVG Version: 6.00 Build 0)  -->
<!DOCTYPE svg PUBLIC "-//W3C//DTD SVG 1.1//EN" "http://www.w3.org/Graphics/SVG/1.1/DTD/svg11.dtd">
<svg version="1.1" id="Layer_1" xmlns="http://www.w3.org/2000/svg" xmlns:xlink="http://www.w3.org/1999/xlink" x="0px" y="0px"
	 width="50px" height="50px" viewBox="0 0 50 50" style="enable-background:new 0 0 50 50;" xml:space="preserve">
<path d="M45.945,31.451l-2.285-8C43.416,22.597,42.626,22,41.737,22H8.263c-0.889,0-1.679,0.597-1.923,1.451l-2.285,8
	c-0.175,0.609-0.056,1.248,0.326,1.753C4.762,33.71,5.344,34,5.978,34h38.045c0.634,0,1.216-0.29,1.597-0.796
	C46.001,32.699,46.12,32.06,45.945,31.451z"/>
<path d="M47.951,32.758c-0.114,0.588-0.359,1.152-0.734,1.65C46.453,35.42,45.289,36,44.022,36H5.978
	c-1.267,0-2.431-0.58-3.194-1.592c-0.376-0.498-0.621-1.061-0.734-1.65C2.029,32.838,2,32.914,2,33v10c0,2.206,1.794,4,4,4h38
	c2.206,0,4-1.794,4-4V33C48,32.914,47.971,32.838,47.951,32.758z M32,40c0,2.206-1.794,4-4,4h-6c-2.206,0-4-1.794-4-4v-1
	c0-0.552,0.447-1,1-1s1,0.448,1,1v1c0,1.103,0.897,2,2,2h6c1.103,0,2-0.897,2-2v-1c0-0.552,0.447-1,1-1s1,0.448,1,1V40z"/>
<path d="M41,3H9C7.897,3,7,3.897,7,5v13c0,1.103,0.897,2,2,2h32c1.103,0,2-0.897,2-2V5C43,3.897,42.103,3,41,3z M29.707,12.707
	l-3.999,3.999c-0.092,0.093-0.203,0.166-0.326,0.217C25.26,16.973,25.13,17,25,17s-0.26-0.027-0.382-0.077
	c-0.123-0.051-0.233-0.124-0.326-0.217l-3.999-3.999c-0.391-0.391-0.391-1.023,0-1.414s1.023-0.391,1.414,0L24,13.586V7
	c0-0.552,0.447-1,1-1s1,0.448,1,1v6.586l2.293-2.293c0.391-0.391,1.023-0.391,1.414,0S30.098,12.316,29.707,12.707z"/>
</svg>