<?xml version="1.0" encoding="utf-8"?><!-- Generator: Adobe Illustrator 15.0.0, SVG Export Plug-In . SVG Version: 6.00 Build 0)  --><!DOCTYPE svg PUBLIC "-//W3C//DTD SVG 1.1//EN" "http://www.w3.org/Graphics/SVG/1.1/DTD/svg11.dtd"><svg xmlns="http://www.w3.org/2000/svg" xmlns:xlink="http://www.w3.org/1999/xlink" viewBox="0 0 50 50" width="50px" height="50px"><path d="M37,43H15c-0.552,0-1-0.447-1-1v-4c0-0.553,0.448-1,1-1h22c0.553,0,1,0.447,1,1v4C38,42.553,37.553,43,37,43z"/><path d="M16,44v5c0,0.553,0.448,1,1,1h18c0.553,0,1-0.447,1-1v-5H16z"/><circle cx="29" cy="30" r="3"/><path d="M38,23c-3.7,0-5,3.5-5,7c0,2.206-1.794,4-4,4s-4-1.794-4-4c0-6.6,6-7.6,6-15.3C31,8.3,26.8,1,17.9,1C23.6,9.9,16,14.5,16,25c0,7.1,5.9,13,13,13c12,0,7.3-11,13-11C42,24.8,40.4,23,38,23z"/><path d="M15,25c0-4.341,1.245-7.713,2.343-10.688c0.255-0.69,0.499-1.356,0.72-2.011C16.98,7.525,10.968,6,8,6c3.4,3.3,3,7.5,3,17c0,10.683,6.056,13.78,12.164,14.66C18.396,35.399,15,30.518,15,25z"/></svg>