<?xml version="1.0" encoding="utf-8"?><!-- Generator: Adobe Illustrator 15.0.0, SVG Export Plug-In . SVG Version: 6.00 Build 0)  --><!DOCTYPE svg PUBLIC "-//W3C//DTD SVG 1.1//EN" "http://www.w3.org/Graphics/SVG/1.1/DTD/svg11.dtd"><svg xmlns="http://www.w3.org/2000/svg" xmlns:xlink="http://www.w3.org/1999/xlink" viewBox="0 0 50 50" width="50px" height="50px"><circle cx="43" cy="5" r="5"/><circle cx="14" cy="5" r="5"/><line fill="none" stroke="#000000" stroke-width="2" stroke-miterlimit="10" x1="0" y1="30" x2="36" y2="30"/><path d="M29.94,14.502c-0.699-0.7-1.9-0.7-2.6,0l-3.9,3.9l-3.2-4.2c-1-1.4-2.7-2.2-4.4-2.2h-2.8h-1.6c-2,0-3.8,1.1-4.8,2.8l-6.4,11c-0.5,0.899-0.2,2,0.7,2.5c0.3,0.199,0.6,0.199,0.9,0.199c0.6,0,1.3-0.3,1.6-0.899l4.1-7.3l-2,9.6h16l-2.4-11.1l2.6,3.5c0.3,0.4,0.8,0.7,1.3,0.7h0.1c0.5,0,1-0.2,1.3-0.5l5.4-5.4C30.64,16.402,30.64,15.202,29.94,14.502z"/><path d="M44.5,12H41c-1.6,0-3.1,0.538-4.2,1.737L25.5,25.875c-0.799,0.7-0.799,1.901-0.1,2.6c0.699,0.701,1.9,0.701,2.6,0l10-10.421V48c0,1.1,0.9,2,2,2h5c1.1,0,2-0.9,2-2V33h1c1.1,0,2-0.9,2-2V17.438C50,14.438,47.5,12,44.5,12z"/><path d="M31,13c0,0.552-0.447,1-1,1h-2c-0.553,0-1-0.448-1-1V9c0-0.552,0.447-1,1-1h2c0.553,0,1,0.448,1,1V13z"/></svg>