<?xml version="1.0" encoding="iso-8859-1"?>
<!-- Generator: Adobe Illustrator 23.0.3, SVG Export Plug-In . SVG Version: 6.00 Build 0)  -->
<svg version="1.1" id="Layer_1" xmlns="http://www.w3.org/2000/svg" xmlns:xlink="http://www.w3.org/1999/xlink" x="0px" y="0px"
	 viewBox="0 0 50 50" style="enable-background:new 0 0 50 50;" xml:space="preserve">
<path d="M14,4C6.28,4,0,10.3,0,18.044c0,12.059,12.701,26.979,13.242,27.607C13.432,45.873,13.684,46.042,14,46
	c0.289,0,0.563-0.125,0.753-0.342C15.294,45.039,28,30.364,28,18.044C28,10.3,21.72,4,14,4z M20,19v4h-4v-4h-4v4H8v-4H4v-4h4v4h4v-4
	h4v4H20v-4h4v4H20z"/>
<path d="M45.934,26.814c-0.106-0.28-1.529-3.994-2.938-7.623c-0.014-0.032-0.023-0.06-0.035-0.092
	c-1.17-3.015-2.32-5.951-2.688-6.79c-0.838-1.904-3.144-2.769-4.836-3.254c-0.508-0.211-2.847-1.012-8.976-1.051
	c0.51,0.636,0.967,1.314,1.378,2.024c5.106,0.147,6.824,0.873,6.831,0.875l0.156,0.059c0.754,0.214,3.049,0.865,3.615,2.154
	c0.334,0.763,1.377,3.419,2.476,6.247l-0.005,0.002l0.079,0.193c0.016,0.039,0.034,0.086,0.052,0.131
	c0.027,0.069,0.055,0.141,0.082,0.211c0.245,0.644,0.529,1.596,0.139,2.179C40.863,22.673,39.704,23,38,23h-8.555
	c-1.142,5.376-3.88,10.715-6.579,15H36v1c0,1.654,1.346,3,3,3h4c1.654,0,3-1.346,3-3v-3.857v-2.586v-5.568L45.934,26.814z
	 M39.92,31.584C38.188,32.566,37.676,33,36,33c-1.656,0-3-1.342-3-3c0-1.658,1.344-3,3-3c0.904,0,3.245,0,4,0c1.104,0,2,0.895,2,2
	C42,30.307,41.081,30.927,39.92,31.584z"/>
<path d="M45.9,19h-0.836c0.906,2.339,1.791,4.639,2.303,5.967C49.622,24.798,50,23.434,50,22.588C50,20.854,48.923,19,45.9,19z"/>
</svg>