<?xml version="1.0" encoding="iso-8859-1"?><!-- Generator: Adobe Illustrator 21.1.0, SVG Export Plug-In . SVG Version: 6.00 Build 0)  --><svg xmlns="http://www.w3.org/2000/svg" xmlns:xlink="http://www.w3.org/1999/xlink" viewBox="0 0 50 50" width="50px" height="50px"><path d="M12,9v16.13c0.32-0.09,0.65-0.13,1-0.13c1.01,0,1.93,0.38,2.64,1h18.72c0.71-0.62,1.63-1,2.64-1c0.35,0,0.68,0.04,1,0.13V9H12z M43,3H7C6.45,3,6,3.45,6,4v27c0,0.55,0.45,1,1,1h3.36C9.53,31.27,9,30.2,9,29c0-1.01,0.38-1.93,1-2.64V8c0-0.55,0.45-1,1-1h28c0.55,0,1,0.45,1,1v18.36c0.62,0.71,1,1.63,1,2.64c0,1.2-0.53,2.27-1.36,3H43c0.55,0,1-0.45,1-1V4C44,3.45,43.55,3,43,3z M33.13,28H16.87c0.09,0.32,0.13,0.65,0.13,1c0,1.2-0.53,2.27-1.36,3h18.72C33.53,31.27,33,30.2,33,29C33,28.65,33.04,28.32,33.13,28z M12,9v16.13c0.32-0.09,0.65-0.13,1-0.13c1.01,0,1.93,0.38,2.64,1h18.72c0.71-0.62,1.63-1,2.64-1c0.35,0,0.68,0.04,1,0.13V9H12z"/><line style="fill:none;stroke:#000000;stroke-width:2;stroke-linejoin:round;stroke-miterlimit:10;" x1="13" y1="47" x2="13" y2="33"/><line style="fill:none;stroke:#000000;stroke-width:2;stroke-linejoin:round;stroke-miterlimit:10;" x1="37" y1="47" x2="37" y2="33"/><path style="fill:none;stroke:#000000;stroke-width:2;stroke-linejoin:round;stroke-miterlimit:10;" d="M13,30c0,5.523,5.373,10,12,10s12-4.477,12-10"/><path style="fill:none;stroke:#000000;stroke-width:2;stroke-linejoin:round;stroke-miterlimit:10;" d="M37,30c0,5.523,5.373,10,12,10"/><path style="fill:none;stroke:#000000;stroke-width:2;stroke-linejoin:round;stroke-miterlimit:10;" d="M1,40c6.627,0,12-4.477,12-10"/><line style="fill:none;stroke:#000000;stroke-width:2;stroke-linejoin:round;stroke-miterlimit:10;" x1="10" y1="47" x2="16" y2="47"/><line style="fill:none;stroke:#000000;stroke-width:2;stroke-linejoin:round;stroke-miterlimit:10;" x1="34" y1="47" x2="40" y2="47"/><circle cx="13" cy="29" r="2"/><circle cx="37" cy="29" r="2"/></svg>