<?xml version="1.0" encoding="utf-8"?><!-- Generator: Adobe Illustrator 15.0.0, SVG Export Plug-In . SVG Version: 6.00 Build 0)  --><!DOCTYPE svg PUBLIC "-//W3C//DTD SVG 1.1//EN" "http://www.w3.org/Graphics/SVG/1.1/DTD/svg11.dtd"><svg xmlns="http://www.w3.org/2000/svg" xmlns:xlink="http://www.w3.org/1999/xlink" viewBox="0 0 50 50" width="50px" height="50px"><path d="M32,14.232V12h1c1.654,0,3-1.346,3-3s-1.346-3-3-3h-1V1c0-0.552-0.447-1-1-1H19c-0.552,0-1,0.448-1,1v5h-1c-0.552,0-1,0.448-1,1s0.448,1,1,1h2h12h2c0.552,0,1,0.449,1,1s-0.448,1-1,1h-2H19h-1c-0.552,0-1,0.448-1,1s0.448,1,1,1v2.243C15.513,15.04,8,18.177,8,26.999c0,9.953,5.854,21.937,6.103,22.441c0.168,0.342,0.516,0.558,0.897,0.558L35,50c0.379,0,0.725-0.214,0.895-0.553C36.144,48.948,42,37.121,42,26.999C42,18.044,34.505,15,32,14.232z"/></svg>