<?xml version="1.0" encoding="utf-8"?><!-- Generator: Adobe Illustrator 15.0.0, SVG Export Plug-In . SVG Version: 6.00 Build 0)  --><!DOCTYPE svg PUBLIC "-//W3C//DTD SVG 1.1//EN" "http://www.w3.org/Graphics/SVG/1.1/DTD/svg11.dtd"><svg xmlns="http://www.w3.org/2000/svg" xmlns:xlink="http://www.w3.org/1999/xlink" viewBox="0 0 50 50" width="50px" height="50px"><path d="M49.207,15.093l-3.1-3.1c-0.361-0.362-0.936-0.392-1.332-0.074C43.879,12.636,42.878,13,41.8,13c-2.592,0-4.7-2.108-4.7-4.7c0-1.078,0.364-2.079,1.081-2.975c0.319-0.398,0.287-0.972-0.073-1.332l-3.101-3.1c-1.055-1.056-2.961-1.053-4.012-0.002l-5.363,5.328l1.375,1.375c0.391,0.391,0.391,1.023,0,1.414C26.812,9.202,26.556,9.3,26.3,9.3s-0.512-0.098-0.707-0.293l-1.379-1.379L0.793,30.893c-0.528,0.527-0.818,1.24-0.818,2.007c0,0.768,0.291,1.48,0.818,2.008l3.1,3.1c0.361,0.36,0.933,0.393,1.332,0.074C6.176,37.319,7.269,36.9,8.3,36.9c2.592,0,4.7,2.108,4.7,4.699c0,1.136-0.406,2.212-1.143,3.031c-0.356,0.396-0.34,1,0.036,1.376l3.1,3.101c0.527,0.527,1.24,0.817,2.007,0.817s1.479-0.29,2.007-0.817l23.344-23.344l-1.357-1.356c-0.391-0.39-0.391-1.023,0-1.414s1.023-0.391,1.414,0l1.357,1.356l5.299-5.299c0.55-0.44,0.892-1.098,0.943-1.817C50.063,16.438,49.771,15.657,49.207,15.093z M31.211,13.211c-0.195,0.195-0.451,0.293-0.707,0.293s-0.512-0.098-0.707-0.293l-1.404-1.404c-0.391-0.39-0.391-1.023,0-1.414s1.023-0.391,1.414,0l1.404,1.404C31.602,12.187,31.602,12.82,31.211,13.211z M35.422,17.422c-0.195,0.195-0.451,0.293-0.707,0.293s-0.512-0.098-0.707-0.293l-1.403-1.404c-0.391-0.391-0.391-1.024,0-1.414c0.391-0.391,1.023-0.391,1.414,0l1.403,1.404C35.813,16.399,35.813,17.032,35.422,17.422z M39.634,21.634c-0.195,0.195-0.451,0.293-0.707,0.293s-0.512-0.098-0.707-0.293l-1.404-1.404c-0.391-0.39-0.391-1.023,0-1.414s1.023-0.391,1.414,0l1.404,1.404C40.024,20.61,40.024,21.243,39.634,21.634z"/></svg>