<?xml version="1.0" encoding="iso-8859-1"?>
<!-- Generator: Adobe Illustrator 23.0.6, SVG Export Plug-In . SVG Version: 6.00 Build 0)  -->
<svg version="1.1" id="Filled" xmlns="http://www.w3.org/2000/svg" xmlns:xlink="http://www.w3.org/1999/xlink" x="0px" y="0px"
	 viewBox="0 0 50 50" style="enable-background:new 0 0 50 50;" xml:space="preserve">
<path d="M39.7,45h-1.6c-0.1,0-0.2,0.1-0.2,0.2v1.6c0,0.1,0.1,0.2,0.2,0.2h1.6c0.1,0,0.2-0.1,0.2-0.2v-1.6C39.9,45.1,39.8,45,39.7,45
	z"/>
<path d="M37.9,37.2v5.6c0,0.1,0.1,0.2,0.2,0.2h1.6c0.1,0,0.2-0.1,0.2-0.2v-5.6c0-0.1-0.1-0.2-0.2-0.2h-1.6
	C38,37,37.9,37.1,37.9,37.2z"/>
<path d="M49.8,47.6l-4.421-7.859C46.906,39.177,48,37.722,48,36V12c0-2.209-1.791-4-4-4H6c-2.209,0-4,1.791-4,4v24
	c0,2.209,1.791,4,4,4h26.301L28.1,47.6C28,47.7,28,47.9,28,48.1c0,1,0.9,1.9,1.9,1.9H48c1,0,1.9-0.8,1.9-1.9
	C49.9,47.9,49.9,47.8,49.8,47.6z M29,18h12c0.552,0,1,0.448,1,1s-0.448,1-1,1H29c-0.552,0-1-0.448-1-1S28.448,18,29,18z M29,23h12
	c0.552,0,1,0.448,1,1s-0.448,1-1,1H29c-0.552,0-1-0.448-1-1S28.448,23,29,23z M9,33c0.242-4.027,5.423-3.44,6.199-5.529
	c0.064-0.715,0-1.213,0-1.866c-0.324-0.17-1.229-1.089-1.369-2.112c0,0-0.733-0.348-0.773-1.45
	c-0.021-0.584,0.389-0.998,0.389-0.998c-0.764-2.931-0.433-5.973,3.491-6.045c0.981,0,1.719,0.474,2.013,0.992
	c2.73,0,2.021,3.809,1.607,5.054c0.153,0.154,0.342,0.575,0.342,1.145c0,0.815-0.773,1.303-0.773,1.303
	c-0.147,1.039-0.879,1.898-1.326,2.112c0,0.653-0.064,1.152,0,1.866C19.577,29.56,24.758,28.973,25,33H9z M29,30
	c-0.552,0-1-0.448-1-1s0.448-1,1-1h12c0.552,0,1,0.448,1,1s-0.448,1-1,1H29z M30.2,48l8.6-15.6c0,0,0.1-0.1,0.1-0.2
	c0,0.1,0.1,0.2,0.1,0.2L47.7,48H30.2z"/>
</svg>