<?xml version="1.0" encoding="utf-8"?><!-- Generator: Adobe Illustrator 15.0.0, SVG Export Plug-In . SVG Version: 6.00 Build 0)  --><!DOCTYPE svg PUBLIC "-//W3C//DTD SVG 1.1//EN" "http://www.w3.org/Graphics/SVG/1.1/DTD/svg11.dtd"><svg xmlns="http://www.w3.org/2000/svg" xmlns:xlink="http://www.w3.org/1999/xlink" viewBox="0 0 50 50" width="50px" height="50px"><line fill="none" stroke="#000000" stroke-width="2" stroke-linecap="round" stroke-miterlimit="10" x1="35.5" y1="35.5" x2="42.5" y2="42.5"/><line fill="none" stroke="#000000" stroke-width="2" stroke-linecap="round" stroke-miterlimit="10" x1="42.5" y1="35.5" x2="35.5" y2="42.5"/><circle fill="none" stroke="#000000" stroke-width="2" stroke-linecap="round" stroke-miterlimit="10" cx="39" cy="39" r="10"/><path d="M49.207,15.093l-3.1-3.1c-0.361-0.362-0.937-0.392-1.332-0.074C43.879,12.636,42.878,13,41.8,13c-2.592,0-4.7-2.108-4.7-4.7c0-1.078,0.364-2.079,1.082-2.975c0.318-0.398,0.286-0.972-0.074-1.332l-3.101-3.1c-1.055-1.056-2.961-1.053-4.012-0.002l-5.363,5.328l1.375,1.375c0.392,0.391,0.392,1.023,0,1.414C26.813,9.202,26.557,9.3,26.3,9.3c-0.256,0-0.512-0.098-0.707-0.293l-1.379-1.379L0.793,30.893c-0.528,0.527-0.818,1.24-0.818,2.008s0.291,1.479,0.818,2.008l3.1,3.1c0.361,0.36,0.933,0.393,1.332,0.074C6.176,37.318,7.269,36.9,8.3,36.9c2.592,0,4.7,2.107,4.7,4.699c0,1.135-0.406,2.211-1.143,3.03c-0.356,0.396-0.34,1,0.036,1.376l3.1,3.102c0.527,0.526,1.24,0.816,2.007,0.816s1.479-0.29,2.007-0.816l9.999-9.998C29.005,39.072,29,39.037,29,39c0-5.523,4.477-10,10-10c0.037,0,0.072,0.005,0.109,0.006l3.242-3.242l-1.357-1.356c-0.391-0.39-0.391-1.023,0-1.414c0.391-0.391,1.023-0.391,1.414,0l1.357,1.356l5.299-5.299c0.549-0.44,0.892-1.098,0.942-1.817C50.063,16.438,49.771,15.657,49.207,15.093z M31.211,13.211c-0.195,0.195-0.451,0.293-0.707,0.293s-0.512-0.098-0.707-0.293l-1.404-1.404c-0.391-0.39-0.391-1.023,0-1.414c0.392-0.391,1.023-0.391,1.414,0l1.404,1.404C31.602,12.187,31.602,12.82,31.211,13.211z M35.422,17.422c-0.195,0.195-0.451,0.293-0.707,0.293s-0.512-0.098-0.707-0.293l-1.402-1.404c-0.392-0.391-0.392-1.024,0-1.414c0.391-0.391,1.022-0.391,1.414,0l1.402,1.404C35.813,16.399,35.813,17.032,35.422,17.422z M39.634,21.634c-0.194,0.195-0.45,0.293-0.707,0.293c-0.256,0-0.512-0.098-0.706-0.293l-1.404-1.404c-0.392-0.39-0.392-1.023,0-1.414c0.391-0.391,1.022-0.391,1.414,0l1.403,1.404C40.023,20.61,40.023,21.243,39.634,21.634z"/></svg>