<?xml version="1.0" encoding="iso-8859-1"?><!-- Generator: Adobe Illustrator 22.1.0, SVG Export Plug-In . SVG Version: 6.00 Build 0)  --><svg xmlns="http://www.w3.org/2000/svg" xmlns:xlink="http://www.w3.org/1999/xlink" viewBox="0 0 50 50" width="50px" height="50px"><g></g><g></g><line style="fill:none;stroke:#000000;stroke-width:2;stroke-linecap:round;stroke-miterlimit:10;" x1="39" y1="9" x2="39" y2="13"/><line style="fill:none;stroke:#000000;stroke-width:2;stroke-linecap:round;stroke-miterlimit:10;" x1="43" y1="6" x2="43" y2="13"/><line style="fill:none;stroke:#000000;stroke-width:2;stroke-linecap:round;stroke-linejoin:round;stroke-miterlimit:10;" x1="7" y1="3" x2="7" y2="9"/><line style="fill:none;stroke:#000000;stroke-width:2;stroke-linecap:round;stroke-linejoin:round;stroke-miterlimit:10;" x1="11" y1="3" x2="11" y2="9"/><path d="M16,19h-6v-5c0-0.553,0.447-1,1-1h4c0.553,0,1,0.447,1,1V19z"/><path d="M8,14c0-1.654,1.346-3,3-3h3V9c0-0.553-0.447-1-1-1H5C4.447,8,4,8.447,4,9v10h4V14z"/><path d="M46,15v-2c0-0.553-0.448-1-1-1h-8c-0.552,0-1,0.447-1,1v2H46z"/><path d="M31.64,27.15C31.87,26.82,32,26.43,32,26c0-1.1-0.9-2-2-2s-2,0.9-2,2c0,0.43,0.13,0.82,0.36,1.15H31.64z"/><path d="M42,36c0,1.1-0.9,2-2,2c-0.43,0-0.82-0.13-1.15-0.36C38.95,37.11,39,36.56,39,36s-0.05-1.11-0.15-1.64C39.18,34.13,39.57,34,40,34C41.1,34,42,34.9,42,36z"/><path d="M24.95,28.56c-0.94,0.63-1.76,1.45-2.39,2.39c-0.89-0.2-1.56-1-1.56-1.95c0-1.1,0.9-2,2-2C23.95,27,24.75,27.67,24.95,28.56z"/><path d="M39,29c0,0.95-0.67,1.75-1.56,1.95c-0.63-0.94-1.45-1.76-2.39-2.39c0.2-0.89,1-1.56,1.95-1.56C38.1,27,39,27.9,39,29z"/><circle cx="30" cy="36" r="2"/><polygon points="27.091,48 30.712,35.273 28.788,34.727 25.011,48 "/><polygon points="34.989,48 31.212,34.727 29.288,35.273 32.909,48 "/><path d="M33.004,43.83c-0.023-0.135-0.055-0.268-0.08-0.403c-0.815,0.321-1.691,0.521-2.611,0.556l-0.57,2.003C29.829,45.989,29.913,46,30,46c1.216,0,2.376-0.229,3.455-0.628C33.305,44.858,33.14,44.348,33.004,43.83z"/><path d="M39,43c0,1.1-0.89,1.99-2,1.99c-0.3,0-0.58-0.07-0.84-0.2L35.65,43c0.69-0.56,1.3-1.21,1.8-1.95C38.34,41.25,39,42.04,39,43z"/><path d="M12.5,35C3.875,35,1,41.375,1,44c0,2.209,1.791,4,4,4c1.014,0,1.94-0.378,2.646-1c0.831-0.733,1.979-2,4.854-2s4.024,1.267,4.854,2c0.705,0.622,1.631,1,2.646,1c2.209,0,4-1.791,4-4C24,41.375,20.125,35,12.5,35z"/><path d="M12.5,33c2.061,0,3.892,0.414,5.5,1.081V22c0-0.55-0.45-1-1-1H3c-0.55,0-1,0.45-1,1v15.259C4.175,34.897,7.595,33,12.5,33z"/><path d="M30,28c4.411,0,8,3.589,8,8c0,2.356-1.03,4.472-2.657,5.937l0.595,2.09C38.396,42.204,40,39.289,40,36c0-5.514-4.486-10-10-10c-5.223,0-9.518,4.028-9.956,9.14c0.728,0.457,1.391,0.964,1.989,1.508C22.016,36.434,22,36.219,22,36C22,31.589,25.589,28,30,28z"/><path d="M37,25c2.206,0,4,1.794,4,4c0,0.539-0.122,1.054-0.324,1.532c0.284,0.55,0.509,1.133,0.706,1.728C42.906,32.826,44,34.282,44,36c0,1.721-1.098,3.178-2.626,3.742c-0.193,0.579-0.428,1.142-0.705,1.685C40.876,41.913,41,42.441,41,43c0,2.2-1.794,3.99-4,3.99c-0.059,0-0.114-0.017-0.173-0.02c0.048,0.396,0.088,0.738,0.123,1.03H48.91L48,17.97C47.983,17.43,47.541,17,47,17H35c-0.541,0-0.983,0.43-1,0.97l-0.202,6.656c0.574,0.192,1.128,0.429,1.66,0.702C35.939,25.124,36.458,25,37,25z"/></svg>