<?xml version="1.0" encoding="iso-8859-1"?><!-- Generator: Adobe Illustrator 21.0.2, SVG Export Plug-In . SVG Version: 6.00 Build 0)  --><svg xmlns="http://www.w3.org/2000/svg" xmlns:xlink="http://www.w3.org/1999/xlink" viewBox="0 0 50 50" width="50px" height="50px"><g><path d="M42.907,6.487l-36.29,41.09C6.285,47.878,5.907,48,5.497,48c-0.35,0-0.717-0.043-0.997-0.293c-0.62-0.55-0.673-1.5-0.123-2.12l5.94-6.72l1.68-1.91c1.04-0.23,1.983-1.12,2.083-2.21l1.557-1.91l25.02-28.33c0.55-0.62,1.5-0.68,2.12-0.13C43.397,4.917,43.457,5.867,42.907,6.487z"/></g><polyline style="fill:none;stroke:#000000;stroke-width:2;stroke-linecap:round;stroke-linejoin:round;stroke-miterlimit:10;" points="3,38 3,35 8,35 "/><path style="fill:none;stroke:#000000;stroke-width:2;stroke-linecap:round;stroke-linejoin:round;stroke-miterlimit:10;" d="M9.449,31.654L39.069,3.462C41.569,1.562,45,4.762,45,12c0,10-12.008,9-12.008,19"/><line style="fill:none;stroke:#000000;stroke-width:2;stroke-linecap:round;stroke-linejoin:bevel;stroke-miterlimit:10;" x1="15" y1="27" x2="19" y2="31"/><line style="fill:none;stroke:#000000;stroke-width:2;stroke-linecap:round;stroke-linejoin:bevel;stroke-miterlimit:10;" x1="26.607" y1="15.607" x2="28.995" y2="17.995"/><line style="fill:none;stroke:#000000;stroke-width:2;stroke-linecap:round;stroke-linejoin:bevel;stroke-miterlimit:10;" x1="37.977" y1="4.977" x2="39.271" y2="6.271"/><path d="M11.5,30C9.019,30,7,32.019,7,34.5S9.019,39,11.5,39s4.5-2.019,4.5-4.5S13.981,30,11.5,30z"/><path style="fill:none;stroke:#020202;stroke-width:2;stroke-linecap:round;stroke-linejoin:round;stroke-miterlimit:10;" d="M31.219,45.911C31.55,46.557,32.223,47,33,47c1.105,0,2-0.895,2-2s-0.895-2-2-2v-3.982"/><g><path d="M36.919,34c-0.372-2.279-1.987-4-3.919-4s-3.547,1.721-3.919,4H36.919z"/><path d="M29.081,36c0.372,2.279,1.987,4,3.919,4s3.547-1.721,3.919-4H29.081z"/></g></svg>