<?xml version="1.0" encoding="utf-8"?><!-- Generator: Adobe Illustrator 15.0.0, SVG Export Plug-In . SVG Version: 6.00 Build 0)  --><!DOCTYPE svg PUBLIC "-//W3C//DTD SVG 1.1//EN" "http://www.w3.org/Graphics/SVG/1.1/DTD/svg11.dtd"><svg xmlns="http://www.w3.org/2000/svg" xmlns:xlink="http://www.w3.org/1999/xlink" viewBox="0 0 50 50" width="50px" height="50px"><path d="M44.9,50H35.8c-0.35,0-0.674-0.184-0.854-0.482c-0.182-0.299-0.192-0.67-0.03-0.979l4.601-8.8c0.017-0.031,0.033-0.063,0.053-0.092c0.5-0.752,1.486-1.035,2.281-0.641l5.799,2.898c0.776,0.391,1.156,1.311,0.922,2.24c-0.02,0.076-0.047,0.151-0.086,0.224l-2.698,5.1C45.611,49.795,45.271,50,44.9,50z"/><path d="M12,13H3c-0.552,0-1-0.448-1-1v-1c0-0.552,0.448-1,1-1h9c0.552,0,1,0.448,1,1v1C13,12.552,12.552,13,12,13z"/><path d="M10.8,17.3C10.5,15,10,14,10,14H5.5c-1,0.8-1.1,3.3,1.9,4c0.6,5.1,2,10.6,2.2,11.199c0.9,2.801,0.685,2.072,0.685,2.072c0.846,2.524,2.042,6.013,2.679,7.863c1.043-2.297,1.822-5.808,2.204-8.749c0.053-0.407,0.099-0.805,0.136-1.185l0.032-0.732C13.262,23.95,12.1,21.5,10.8,17.3z"/><path d="M32.967,23.432c-0.052-0.466-0.169-0.916-0.338-1.345c2.456-1.837,5.262-4.107,5.171-4.287c-0.089-0.268-3.538,1.144-6.411,2.375c-0.293-0.303-0.621-0.58-0.979-0.828c1.234-2.881,2.658-6.357,2.39-6.447c-0.265-0.177-2.563,2.929-4.474,5.448c-0.371-0.112-0.756-0.199-1.152-0.256C26.782,14.965,26.27,11,26,11s-0.782,3.965-1.174,7.091c-0.368,0.054-0.727,0.13-1.073,0.231c-1.867-2.516-4.285-5.612-4.553-5.523c-0.271,0.09,1.174,3.695,2.415,6.53c-0.365,0.252-0.699,0.536-0.999,0.845c-2.859-1.231-6.238-2.643-6.417-2.375c-0.09,0.27,2.716,2.468,5.172,4.29c-0.167,0.424-0.286,0.867-0.338,1.328c-1.669,0.191-3.503,0.436-4.734,0.683c-1.1,0.2-1,0.8,0.1,1c1.375,0.242,3.267,0.484,4.947,0.673c0.041,0.108,0.105,0.211,0.153,0.317c0.004-3.344,2.615-5.591,6.5-5.591c3.948,0,6.5,2.198,6.5,5.6c0,0.017-0.002,0.031-0.002,0.047c0.06-0.133,0.135-0.256,0.183-0.394c3.098-0.389,6.92-0.888,6.92-1.152C39.6,24.331,36.073,23.823,32.967,23.432z"/><path d="M26,22.5c-2.691,0-4.5,1.447-4.5,3.6c0,2.519,1.932,6.4,4.5,6.4c2.566,0,4.5-3.883,4.5-6.4C30.5,23.846,28.816,22.5,26,22.5z"/><path d="M11.249,9c0.695-2.41-0.123-4.879-0.765-5.747c-0.116,2.234-1.505,1.41-1.273,0.352C9.789,1.49,7.475,0.079,7.475,0.079s-0.232,1.177-2.894,4.35C3.231,6.104,3.266,7.712,3.738,9H11.249z"/><g><path d="M10.101,42.448c0.45-0.172,0.882-0.578,1.296-1.131c0.055-0.037,0.133-0.271,0.155-0.204c-0.338-1.058-0.956-2.718-1.313-3.758c-0.398-1.162-0.842-2.462-1.257-3.687c-0.428,1.085-0.855,2.25-1.188,3.305c-0.013,0.031-0.037,0.056-0.047,0.089c-0.135,0.45-0.239,0.855-0.33,1.243c-0.009,0.039-0.024,0.086-0.033,0.124c0.001,0.002,0.002,0.004,0.003,0.006c-0.147,0.653-0.24,1.23-0.268,1.725c0.445,1.09,1.174,1.732,1.221,1.771C9.219,42.662,9.766,42.577,10.101,42.448z"/><path d="M33,34h-8.4c-1.125,0-4.563-2.589-7.266-5.102l-0.037,0.479c-0.187,1.905-0.922,9.576-4.5,13.514c-0.875,0.938-1.277,1.156-1.98,1.426c-0.321,0.123-0.712,0.216-1.158,0.216c-0.35,0-0.737-0.064-1.147-0.211c0.022,0.026,0.043,0.055,0.068,0.079c0.044,0.044,0.104,0.074,0.149,0.117c0.188,0.172,0.392,0.33,0.61,0.478c0.087,0.059,0.169,0.121,0.261,0.175c0.611,0.362,1.319,0.642,2.137,0.813c0.063,0.014,0.126,0.019,0.188,0.02c0.498,0.093,1.029,0.155,1.603,0.181c1.788-1.498,3.219-4.261,3.744-5.559c0.207-0.514,0.79-0.761,1.301-0.553c0.512,0.205,0.76,0.787,0.554,1.301c-0.237,0.588-1.901,4.521-4.603,6.577c0.393,0.646,0.792,1.239,1.051,1.616C15.763,49.838,16.071,50,16.4,50h16.59c-0.274-0.777-0.236-1.648,0.152-2.391l4.584-8.768c0.053-0.105,0.111-0.207,0.176-0.302c0.182-0.272,0.395-0.519,0.632-0.731C37.152,35.372,35.227,34,33,34z"/></g></svg>