<?xml version="1.0" encoding="utf-8"?><!-- Generator: Adobe Illustrator 15.0.0, SVG Export Plug-In . SVG Version: 6.00 Build 0)  --><!DOCTYPE svg PUBLIC "-//W3C//DTD SVG 1.1//EN" "http://www.w3.org/Graphics/SVG/1.1/DTD/svg11.dtd"><svg xmlns="http://www.w3.org/2000/svg" xmlns:xlink="http://www.w3.org/1999/xlink" viewBox="0 0 50 50" width="50px" height="50px"><path d="M16.23,45.041c-1.184,0-2.261-0.426-3.034-1.199c-1.833-1.833-1.515-5.132,0.707-7.354c1.211-1.212,2.786-1.907,4.319-1.907c1.184,0,2.262,0.427,3.035,1.2c0.92,0.92,1.333,2.216,1.163,3.648c-0.16,1.343-0.824,2.659-1.87,3.705C19.338,44.347,17.764,45.041,16.23,45.041z"/><line fill="none" stroke="#000000" stroke-width="2" stroke-linecap="round" stroke-linejoin="round" stroke-miterlimit="10" x1="1" y1="1" x2="49" y2="49"/><g><rect x="17.499" y="31.377" transform="matrix(-0.7072 0.7071 -0.7071 -0.7072 60.4485 39.718)" width="9" height="2"/><rect x="20.083" y="34.018" transform="matrix(-0.7071 0.7071 -0.7071 -0.7071 66.7253 42.3966)" width="8.999" height="2"/><path d="M49.2,7.8c-1.101-1.1-2.9-1.1-4.101,0L25.9,27.1l1.399,1.4L46.5,9.3c0.3-0.3,0.9-0.3,1.2,0c0.3,0.3,0.3,0.9,0,1.2L28.5,29.7l1.4,1.399l19.3-19.3C50.3,10.8,50.3,9,49.2,7.8z"/></g><g><path d="M5.7,9.7C2.5,13.7,0,19.1,0,25.9C0,33.3,3.5,40,9.9,44.8c0.2,0.101,0.4,0.2,0.6,0.2l0,0c0.6,0,1-0.4,1-1c0-0.3-0.1-0.6-0.3-0.8c-1-1.3-4.9-8-3.3-13.7c0.8,1.5,2,2.4,3.2,2.4c0.8,0,1.5-0.4,2.1-1.101c0.9-1.2,1.2-3.2,0.9-5.7c1.4,3,1.6,6.2,1.6,6.2c0,0.4,0.2,0.7,0.6,0.9c0.3,0.2,0.7,0.1,1-0.101C17.5,32,20.4,29.9,22,25.9"/><path d="M22.7,23.8c0.2-0.9,0.3-1.9,0.3-3c0-3-1.3-5.2-2.5-7.4c-1.9-3.3-3.6-6.4-1.2-12c0.1-0.4,0-0.8-0.3-1.1c-0.3-0.3-0.7-0.4-1.1-0.2c-0.1,0-6,2.6-11,8.1"/></g></svg>