<?xml version="1.0" encoding="iso-8859-1"?>
<!-- Generator: Adobe Illustrator 22.1.0, SVG Export Plug-In . SVG Version: 6.00 Build 0)  -->
<svg version="1.1" id="Layer_1" xmlns="http://www.w3.org/2000/svg" xmlns:xlink="http://www.w3.org/1999/xlink" x="0px" y="0px"
	 viewBox="0 0 50 50" style="enable-background:new 0 0 50 50;" xml:space="preserve">
<g>
</g>
<path d="M24,16c-3.859,0-7-3.141-7-7s3.141-7,7-7s7,3.141,7,7S27.859,16,24,16z"/>
<polyline style="fill:none;stroke:#000000;stroke-width:2;stroke-linecap:round;stroke-linejoin:round;" points="4,33 4,29 26,29 
	26,44 4,44 4,40 "/>
<path d="M3.302,41H3c-1.654,0-3-1.346-3-3v-3c0-1.654,1.346-3,3-3h0.5c1.229,0,2.418,0.511,3.264,1.402
	c0.858,0.904,1.295,2.09,1.23,3.338c0,0.001,0,0.001,0,0.001C7.868,39.129,5.807,41,3.302,41z M6.995,36.688h0.01H6.995z"/>
<line style="fill:none;stroke:#000000;stroke-width:2;stroke-linecap:round;stroke-linejoin:round;" x1="11" y1="34" x2="19" y2="34"/>
<line style="fill:none;stroke:#000000;stroke-width:2;stroke-linecap:round;stroke-linejoin:round;" x1="11" y1="39" x2="19" y2="39"/>
<path d="M48.325,14.745c-1.798-1.285-4.296-0.868-5.58,0.93l-3.461,4.846l-4.916-1.092C33.09,19.145,31.775,19,30.463,19H17.199
	c-3.553,0-6.781,2.098-8.225,5.345l-2.067,4.651L26,28.985V44H12v3c0,0.553,0.447,1,1,1s19,0,19,0c0.553,0,1-0.447,1-1V27.319
	l7.132,1.585C40.421,28.969,40.712,29,41,29c1.274,0,2.494-0.61,3.255-1.675l5-7C50.539,18.527,50.123,16.029,48.325,14.745z"/>
</svg>