<?xml version="1.0" encoding="utf-8"?>
<!-- Generator: Adobe Illustrator 24.1.3, SVG Export Plug-In . SVG Version: 6.00 Build 0)  -->
<svg version="1.1" id="Layer_1" xmlns="http://www.w3.org/2000/svg" xmlns:xlink="http://www.w3.org/1999/xlink" x="0px" y="0px"
	 viewBox="0 0 50 50" style="enable-background:new 0 0 50 50;" xml:space="preserve">
<g>
	<path d="M27,9h-4c-0.6,0-1,0.4-1,1v2c0,0.6,0.4,1,1,1h4c0.6,0,1-0.4,1-1v-2C28,9.4,27.6,9,27,9z"/>
	<g>
		<line x1="25" y1="11" x2="25" y2="8"/>
		<path d="M25,12c-0.6,0-1-0.4-1-1V8c0-0.6,0.4-1,1-1s1,0.4,1,1v3C26,11.5,25.6,12,25,12z"/>
	</g>
	<path d="M29.9,26h-10c1.4-3.3,2.7-7.1,3.3-11h3.5C27.3,19,28.5,22.8,29.9,26z"/>
	<path d="M34.8,35h-5.2c-0.8-1.8-2.5-3-4.6-3s-3.8,1.2-4.6,3h-5.3c0.9-1.4,2.4-3.9,3.9-7h11.8C32.3,31.1,33.9,33.6,34.8,35z"/>
</g>
<path d="M40,46h-1.2l-1.7-8.1C41.9,34.2,45,28.5,45,22c0-11-9-20-20-20C14,2,5,11,5,22c0,6.5,3.1,12.2,7.9,15.9L11.2,46H10
	c-0.6,0-1,0.4-1,1s0.4,1,1,1h0.8h28.5H40c0.6,0,1-0.4,1-1S40.6,46,40,46z M7,22c0-9.9,8.1-18,18-18c9.9,0,18,8.1,18,18
	c0,6.3-3.2,11.8-8.1,15H15.1C10.2,33.8,7,28.3,7,22z"/>
</svg>