<?xml version="1.0" encoding="utf-8"?><!-- Generator: Adobe Illustrator 15.0.0, SVG Export Plug-In . SVG Version: 6.00 Build 0)  --><!DOCTYPE svg PUBLIC "-//W3C//DTD SVG 1.1//EN" "http://www.w3.org/Graphics/SVG/1.1/DTD/svg11.dtd"><svg xmlns="http://www.w3.org/2000/svg" xmlns:xlink="http://www.w3.org/1999/xlink" viewBox="0 0 50 50" width="50px" height="50px"><path d="M47.154,45.941c-1.6,0-3.805-0.4-5.539-1.488c-1.735,1.088-3.939,1.488-5.538,1.488s-3.804-0.4-5.539-1.489c-1.735,1.089-3.94,1.489-5.538,1.489c-1.598,0-3.803-0.4-5.539-1.488c-1.735,1.088-3.939,1.488-5.538,1.488c-1.598,0-3.803-0.4-5.538-1.488c-1.735,1.088-3.94,1.488-5.539,1.488c-0.658,0-1.293-0.051-1.998-0.158c-0.546-0.083-0.921-0.594-0.837-1.141c0.084-0.545,0.601-0.918,1.14-0.836c0.602,0.092,1.14,0.135,1.695,0.135c1.394,0,3.519-0.394,4.92-1.494c0.362-0.287,0.874-0.286,1.237-0.002c1.401,1.104,3.526,1.496,4.919,1.496c1.394,0,3.519-0.394,4.919-1.494c0.362-0.287,0.874-0.287,1.237-0.002c1.402,1.104,3.527,1.496,4.921,1.496c1.394,0,3.519-0.394,4.92-1.496c0.36-0.284,0.875-0.284,1.235,0c1.402,1.104,3.527,1.496,4.922,1.496s3.52-0.394,4.919-1.494c0.362-0.287,0.875-0.287,1.237,0c1.399,1.103,3.524,1.494,4.92,1.494c0.563,0,1.06-0.078,1.515-0.238c0.521-0.186,1.092,0.09,1.274,0.611c0.184,0.521-0.09,1.092-0.61,1.273C48.659,45.826,47.947,45.941,47.154,45.941z"/><path d="M47.154,49.941c-1.6,0-3.805-0.4-5.539-1.488c-1.735,1.088-3.939,1.488-5.538,1.488s-3.804-0.4-5.539-1.489c-1.735,1.089-3.94,1.489-5.538,1.489c-1.598,0-3.803-0.4-5.539-1.488c-1.735,1.088-3.939,1.488-5.538,1.488c-1.598,0-3.803-0.4-5.538-1.488c-1.735,1.088-3.94,1.488-5.539,1.488c-0.658,0-1.293-0.051-1.998-0.158c-0.546-0.083-0.921-0.594-0.837-1.141c0.084-0.545,0.601-0.918,1.14-0.836c0.602,0.092,1.14,0.135,1.695,0.135c1.394,0,3.519-0.394,4.92-1.494c0.362-0.287,0.874-0.286,1.237-0.002c1.401,1.104,3.526,1.496,4.919,1.496c1.394,0,3.519-0.394,4.919-1.494c0.362-0.287,0.874-0.286,1.237-0.002c1.402,1.104,3.527,1.496,4.921,1.496c1.394,0,3.519-0.394,4.92-1.496c0.36-0.284,0.875-0.284,1.235,0c1.402,1.104,3.527,1.496,4.922,1.496s3.52-0.394,4.919-1.494c0.362-0.287,0.875-0.287,1.237,0c1.399,1.103,3.524,1.494,4.92,1.494c0.563,0,1.06-0.078,1.515-0.238c0.521-0.186,1.092,0.09,1.274,0.611c0.184,0.521-0.09,1.092-0.61,1.273C48.659,49.826,47.947,49.941,47.154,49.941z"/><path d="M49.477,26.219c-0.56-0.695-1.623-1.22-2.477-1.22h-7.682L35.771,21l0,0l-5.023-5.664c-0.076-0.085-0.172-0.144-0.271-0.198C30.331,15.056,30.172,15,30,15h-8c-0.431,0-0.813,0.275-0.949,0.684L19.279,21h-3.811l-4.7-5.64C10.578,15.132,10.297,15,10,15H6c-0.249,0-0.486,0.093-0.667,0.255c-0.061,0.054-0.115,0.116-0.161,0.184c-0.186,0.274-0.224,0.624-0.101,0.932l1.804,4.51L6.796,21l0,0l-2.68,3.999H3c-1.571,0-3.001,1.431-3.001,3.001v0.001v5.538v0.001c0,3.544,1.422,6.367,3.292,8.387c1.076-0.073,2.424-0.409,3.233-1.046c0.527-0.418,1.188-0.646,1.86-0.646c0.669,0,1.328,0.229,1.856,0.644c0.931,0.731,2.561,1.065,3.682,1.065c1.122,0,2.752-0.334,3.676-1.062c0.527-0.419,1.188-0.649,1.862-0.649c0.67,0,1.33,0.229,1.855,0.646c0.932,0.731,2.563,1.065,3.684,1.065s2.752-0.334,3.681-1.064c0.526-0.415,1.188-0.645,1.857-0.645s1.331,0.229,1.854,0.644c0.934,0.731,2.563,1.065,3.687,1.065s2.752-0.334,3.679-1.063c0.527-0.417,1.188-0.646,1.857-0.646c0.367,0,0.729,0.074,1.07,0.203c3.338-2.828,6.104-6.779,7.225-11.787c0-0.002,0.001-0.002,0.001-0.004C50.175,27.417,49.82,26.648,49.477,26.219z M33.464,30.999H7.722l-1-2.999h28.741L33.464,30.999z M36.797,26H6.055l-0.067-0.202L7.863,23H15h5h14.872l2.241,2.525L36.797,26z M44,31.051c0,0.92-0.919,0.95-0.919,0.95h-2.015c0,0-1.066-0.062-1.066-0.979c0-0.535,0-1.307,0-1.307s0.034-0.386,0.652-0.386c0.621,0,0.681,0.386,0.681,0.386v0.801c0,0,0.062,0.387,0.653,0.387c0.591,0,0.681-0.387,0.681-0.387v-0.801c0,0,0.062-0.386,0.683-0.386S44,29.716,44,29.716S44,30.547,44,31.051z"/></svg>