<?xml version="1.0" encoding="utf-8"?><!-- Generator: Adobe Illustrator 15.0.0, SVG Export Plug-In . SVG Version: 6.00 Build 0)  --><!DOCTYPE svg PUBLIC "-//W3C//DTD SVG 1.1//EN" "http://www.w3.org/Graphics/SVG/1.1/DTD/svg11.dtd"><svg xmlns="http://www.w3.org/2000/svg" xmlns:xlink="http://www.w3.org/1999/xlink" viewBox="0 0 50 50" width="50px" height="50px"><rect fill="none" width="50" height="50"/><path d="M34.258,49c-1.354,0-2.316-0.814-3.335-1.68c-1.313-1.11-2.8-2.37-5.654-2.37c-1.354,0-2.008,0.224-2.836,0.507c-1.236,0.423-2.774,0.949-6.807,0.949C8.563,46.406,4,42.835,4,37.309c0-4.535,2.177-5.27,4.282-5.979c1.07-0.359,2.176-0.732,3.292-1.609c1.236-0.97,2.027-1.873,2.726-2.67C15.792,25.346,16.972,24,20.694,24c2.902,0,4.899,2.217,6.662,4.172c1.012,1.124,1.969,2.186,2.859,2.539C34.527,32.419,40,38.156,40,42.168C40,46.445,37.854,49,34.258,49z"/><path d="M5.606,29C2.761,29,1,25.623,1,22.494C1,19.793,2.723,17,5.606,17c1.067,0,2.027,0.41,2.774,1.186c1.105,1.146,1.693,3.059,1.612,5.246C9.862,26.919,8.222,29,5.606,29z"/><path d="M26.256,22C23.627,22,22,18.53,22,15.316C22,12.034,25.621,8,28.566,8c0.842,0,1.58,0.305,2.137,0.883c0.982,1.022,1.39,2.844,1.277,5.733C31.863,17.704,28.957,22,26.256,22z"/><path d="M35.217,27C32.773,27,31,24.597,31,21.286C31,17.705,33.354,14,37.29,14c0.944,0,1.771,0.337,2.384,0.975c0.963,0.998,1.404,2.711,1.314,5.091C40.861,23.401,38.62,27,35.217,27z"/><path d="M42.838,37C40.125,37,38,34.654,38,31.66c0-3.131,2.464-7.66,6.92-7.66c0.95,0,1.809,0.369,2.479,1.068c1.094,1.139,1.688,3.206,1.593,5.525C48.863,33.675,46.475,37,42.838,37z"/><path d="M15.489,22c-2.777,0-4.496-3.103-4.496-5.977c0-2.246,2.834-9.023,7.992-9.023c0.789,0,1.252,0.354,1.501,0.651c0.798,0.953,0.521,2.517,0.138,4.682c-0.251,1.416-0.535,3.02-0.535,4.603C20.089,19.965,18.24,22,15.489,22z"/><path d="M4.143,18.756c-0.276-0.01-0.492-0.242-0.481-0.518c0.072-1.985,1.505-4.31,2.222-4.948c0.139-0.124,0.351-0.282,0.623-0.266c0.836,0.07,1.096,1.216,1.163,5.111l0.005,0.307c0.005,0.276-0.214,0.504-0.49,0.51c-0.003,0-0.007,0-0.01,0L4.143,18.756z"/><path d="M16.006,9.389c-0.003,0-0.006,0-0.009,0c-0.276-0.005-0.496-0.233-0.491-0.509c0.061-3.302,2.063-5.211,2.675-5.717c0.408-0.337,0.984-0.725,1.395-0.653c0.141,0.024,0.344,0.104,0.511,0.348c0.632,0.923,0.429,4.127,0.148,5.515c-0.055,0.271-0.319,0.447-0.589,0.391L16.006,9.389z"/><path d="M26.958,9.906c-0.273-0.036-0.467-0.288-0.431-0.561c0.564-4.263,2.325-5.905,3.19-5.842c0.257,0.021,0.485,0.17,0.683,0.443c0.727,1.004,1.133,3.809,0.555,6.228c-0.055,0.229-0.26,0.384-0.486,0.384c-0.038,0-0.077-0.004-0.116-0.014L26.958,9.906z"/><path d="M36.46,15.533c-0.266-0.073-0.423-0.348-0.351-0.614c1.5-5.503,2.218-5.44,2.485-5.418c0.331,0.027,0.635,0.273,0.929,0.753c0.689,1.125,1.41,3.828,0.403,6.289c-0.079,0.193-0.266,0.311-0.463,0.311c-0.063,0-0.127-0.012-0.189-0.037L36.46,15.533z"/><path d="M44.239,25.508c-0.272-0.045-0.457-0.302-0.412-0.575c0.237-1.45,1.576-4.433,2.532-4.433c0.013,0,0.024,0,0.036,0.001c0.187,0.016,0.462,0.102,0.724,0.425c0.729,0.9,0.988,3.167,0.66,5.774c-0.032,0.253-0.247,0.438-0.495,0.438c-0.021,0-0.042-0.001-0.063-0.004L44.239,25.508z"/></svg>