<?xml version="1.0" encoding="utf-8"?><!-- Generator: Adobe Illustrator 15.0.0, SVG Export Plug-In . SVG Version: 6.00 Build 0)  --><!DOCTYPE svg PUBLIC "-//W3C//DTD SVG 1.1//EN" "http://www.w3.org/Graphics/SVG/1.1/DTD/svg11.dtd"><svg xmlns="http://www.w3.org/2000/svg" xmlns:xlink="http://www.w3.org/1999/xlink" viewBox="0 0 50 50" width="50px" height="50px"><path fill="none" stroke="#000000" stroke-width="2" stroke-linecap="round" stroke-linejoin="round" stroke-miterlimit="10" d="M49,48.646c-0.494,0.174-1.091,0.295-1.846,0.295c-1.538,0-3.902-0.42-5.539-1.709c-1.637,1.289-4,1.709-5.538,1.709s-3.901-0.42-5.539-1.709c-1.638,1.289-4,1.709-5.538,1.709s-3.901-0.42-5.539-1.709c-1.637,1.289-4,1.709-5.538,1.709s-3.901-0.42-5.538-1.709c-1.637,1.289-4.001,1.709-5.539,1.709c-0.69,0-1.291-0.062-1.846-0.146"/><path d="M30.5,14c-3.032,0-5.5-2.467-5.5-5.5S27.468,3,30.5,3S36,5.467,36,8.5S33.532,14,30.5,14z"/><path d="M47.154,45.941c-1.599,0-3.804-0.4-5.539-1.488c-1.735,1.088-3.939,1.488-5.538,1.488s-3.804-0.4-5.539-1.489c-1.735,1.089-3.94,1.489-5.538,1.489c-1.598,0-3.803-0.4-5.539-1.488c-1.735,1.088-3.939,1.488-5.538,1.488c-1.598,0-3.803-0.4-5.538-1.488c-1.735,1.088-3.94,1.488-5.539,1.488c-0.658,0-1.293-0.05-1.998-0.158c-0.546-0.083-0.921-0.594-0.837-1.14s0.601-0.919,1.14-0.837c0.602,0.092,1.14,0.135,1.695,0.135c1.394,0,3.519-0.392,4.92-1.494c0.362-0.287,0.874-0.286,1.237-0.001c1.401,1.104,3.526,1.495,4.919,1.495c1.394,0,3.519-0.392,4.919-1.494c0.362-0.287,0.874-0.287,1.237-0.001c1.402,1.104,3.527,1.495,4.921,1.495s3.518-0.392,4.92-1.495c0.361-0.285,0.875-0.285,1.236,0c1.402,1.104,3.527,1.495,4.921,1.495s3.519-0.392,4.919-1.494c0.363-0.287,0.875-0.287,1.238,0c1.4,1.103,3.525,1.494,4.92,1.494c0.563,0,1.059-0.078,1.514-0.238c0.521-0.185,1.092,0.09,1.275,0.611s-0.091,1.092-0.611,1.275C48.659,45.826,47.947,45.941,47.154,45.941z"/><g><path d="M40.067,27.574c0.405-0.374,0.431-1.007,0.056-1.413c-0.373-0.404-1.007-0.431-1.413-0.056L34.491,30h2.948L40.067,27.574z"/><path d="M3,30c-1.682,0-3,1.317-3,3c0,2.859,2.25,6.28,4.725,8.691C5.4,41.517,6.054,41.25,6.524,40.88c0.527-0.418,1.188-0.647,1.86-0.647c0.669,0,1.328,0.228,1.856,0.643c0.931,0.732,2.561,1.066,3.682,1.066c1.122,0,2.752-0.334,3.676-1.061c0.527-0.419,1.188-0.649,1.862-0.649c0.67,0,1.33,0.229,1.855,0.644c0.245,0.192,0.54,0.355,0.859,0.494L34.491,30H3z"/><path d="M49.674,30.872C49.161,30.099,48.184,30,47.389,30h-9.949L24.524,41.922c0.166,0.013,0.326,0.02,0.476,0.02c1.121,0,2.752-0.334,3.681-1.065c0.526-0.415,1.186-0.644,1.857-0.644s1.331,0.229,1.854,0.643c0.932,0.732,2.563,1.066,3.685,1.066s2.752-0.333,3.679-1.063c0.527-0.417,1.188-0.646,1.859-0.646c0.659,0,1.306,0.224,1.825,0.623c2.578-2.213,4.934-4.703,6.102-7.466C49.787,32.811,50.243,31.731,49.674,30.872z"/></g><g><path d="M42.088,21.491c-0.713-0.339-16.412-7.793-16.413-7.793c-2.651-1.448-5.191-0.574-6.966,2.394L11.395,28h15.279l3.339-5.31c1.748,0.704,8.841,3.562,9.515,3.874c0.325,0.149,1.183,0.484,2.158,0.386c0.958-0.103,1.668-0.6,2.056-1.438C44.534,23.791,43.481,22.156,42.088,21.491z"/></g></svg>