<?xml version="1.0" encoding="utf-8"?><!-- Generator: Adobe Illustrator 19.2.0, SVG Export Plug-In . SVG Version: 6.00 Build 0)  --><svg xmlns="http://www.w3.org/2000/svg" xmlns:xlink="http://www.w3.org/1999/xlink" viewBox="0 0 50 50" width="50px" height="50px"><g><rect x="38" y="20" width="4" height="4"/><path d="M46,10H34c-1.2,0-2.3,0.5-3,1.4c-0.7-0.8-1.8-1.4-3-1.4H4c-2.2,0-4,1.8-4,4v22c0,2.2,1.8,4,4,4h24c1.2,0,2.3-0.5,3-1.4c0.7,0.8,1.8,1.4,3,1.4h12c2.2,0,4-1.8,4-4V14C50,11.8,48.2,10,46,10z M26,32H6v-2h20V32z M26,26H6v-2h20V26z M26,20H6v-2h20V20z M32,36h-2v-4h2V36z M32,30h-2v-4h2V30z M32,24h-2v-4h2V24z M32,18h-2v-4h2V18z M44,32h-8v-2h8V32z M44,26h-8v-8h8V26z"/></g></svg>