<?xml version="1.0" encoding="utf-8"?><!-- Generator: Adobe Illustrator 15.0.0, SVG Export Plug-In . SVG Version: 6.00 Build 0)  --><!DOCTYPE svg PUBLIC "-//W3C//DTD SVG 1.1//EN" "http://www.w3.org/Graphics/SVG/1.1/DTD/svg11.dtd"><svg xmlns="http://www.w3.org/2000/svg" xmlns:xlink="http://www.w3.org/1999/xlink" viewBox="0 0 50 50" width="50px" height="50px"><path d="M25,11c-2.206,0-4-1.794-4-4s1.794-4,4-4c2.206,0,4,1.794,4,4S27.206,11,25,11z"/><path d="M16.672,10H14c-1.103,0-2-0.897-2-2V6c0-1.103,0.897-2,2-2h2.672c0.801,0,1.555,0.312,2.121,0.879L20,6.086v1.828l-1.207,1.207C18.227,9.688,17.473,10,16.672,10z"/><g><path d="M34,39V21c0-4.962-4.037-9-9-9c-4.962,0-9,4.038-9,9v18H34z"/><rect x="16" y="41" width="18" height="6"/></g><rect x="28" y="6" width="2" height="2"/></svg>