<?xml version="1.0" encoding="iso-8859-1"?>
<!-- Generator: Adobe Illustrator 23.0.3, SVG Export Plug-In . SVG Version: 6.00 Build 0)  -->
<svg version="1.1" id="Layer_1" xmlns="http://www.w3.org/2000/svg" xmlns:xlink="http://www.w3.org/1999/xlink" x="0px" y="0px"
	 viewBox="0 0 50 50" style="enable-background:new 0 0 50 50;" xml:space="preserve">
<g>
	<path d="M41,45h-1V16.876l-15-6.213l-15,6.213V45H9c-0.552,0-1,0.447-1,1s0.448,1,1,1h32c0.552,0,1-0.447,1-1S41.552,45,41,45z
		 M17,30h1v3h-1V30z M17,35h2c0.552,0,1-0.447,1-1v-5c0-0.553-0.448-1-1-1h-2V18h16v27H17V35z"/>
	<path d="M45.482,11.729c-0.051-0.122-0.148-0.22-0.271-0.271L25.243,3.187C25.166,3.154,25.082,3.142,25,3.151
		c-0.083-0.011-0.166,0.003-0.243,0.035L4.788,11.458c-0.123,0.051-0.22,0.148-0.271,0.271c-0.051,0.123-0.051,0.26,0,0.383
		l1.531,3.695c0.106,0.256,0.4,0.378,0.653,0.271L25,8.498l18.298,7.579c0.063,0.026,0.127,0.038,0.191,0.038
		c0.196,0,0.382-0.116,0.462-0.309l1.531-3.695C45.533,11.988,45.533,11.852,45.482,11.729z"/>
	<path d="M26.5,21c-0.807,0-1.46,1.11-1.494,1.933L25,22.934l-0.006-0.001C24.96,22.11,24.307,21,23.5,21
		c-0.828,0-1.5,0.672-1.5,1.5c0,2.17,3,3.472,3,3.472s3-1.248,3-3.472C28,21.672,27.328,21,26.5,21z"/>
</g>
</svg>