<?xml version="1.0" encoding="iso-8859-1"?>
<!-- Generator: Adobe Illustrator 18.0.0, SVG Export Plug-In . SVG Version: 6.00 Build 0)  -->
<!DOCTYPE svg PUBLIC "-//W3C//DTD SVG 1.1//EN" "http://www.w3.org/Graphics/SVG/1.1/DTD/svg11.dtd">
<svg version="1.1" id="Layer_1" xmlns="http://www.w3.org/2000/svg" xmlns:xlink="http://www.w3.org/1999/xlink" x="0px" y="0px"
	 width="50px" height="50px" viewBox="0 0 50 50" style="enable-background:new 0 0 50 50;" xml:space="preserve">
<path d="M35.13,35.772l-0.242,0.007l-5.757,2.618l-5.849,5.544c-0.193,0.184-0.441,0.274-0.688,0.274
	c-0.265,0-0.529-0.104-0.726-0.313c-0.38-0.4-0.363-1.033,0.038-1.413l2.242-2.125l-5.012,0.761
	c-0.063,0.013-0.127,0.019-0.191,0.019c-0.024,0-0.048-0.001-0.072-0.003l-4.126-0.298c-0.005,0-0.008-0.003-0.013-0.003
	l-0.008,0.001c-0.241,0.045-0.414,0.259-0.408,0.504l0.074,3.192c0.003,0.123,0.052,0.242,0.137,0.331
	c0.537,0.566,1.043,0.677,1.5,0.748v1.875c0,0.281,0.228,0.508,0.508,0.508h17.881c0.281,0,0.508-0.228,0.508-0.508l0.117-6.033
	l0.868-1.325c0.058-0.091,0.083-0.198,0.075-0.306l-0.342-3.596C35.621,35.967,35.413,35.774,35.13,35.772z"/>
<path d="M29.906,22.996c0.786,0.316,2.084,0.128,2.896-0.422c0.305-0.205,0.494-0.439,0.494-0.611l0.04-1.407
	c0.01-0.347,0.199-0.664,0.499-0.837l0.342-0.198l0-0.011c0.654-0.835,0.746-3.001,0.722-3.84c-0.056-1.893-0.561-2.207-0.727-2.311
	c-0.048-0.029-0.1-0.051-0.155-0.063l-2.359-0.529c-0.066-0.014-0.133-0.014-0.2-0.004l-2.589,0.477l-1.504-0.306
	c-0.426,0.333-0.984,0.534-1.395,0.642c-0.496,0.129-0.876,0.191-1.188,0.191c-0.166,0-0.313-0.018-0.447-0.053
	c-0.535-0.139-0.855-0.684-0.717-1.219c0.138-0.531,0.679-0.848,1.209-0.72c-0.021-0.009,0.018-0.012,0.496-0.136
	c0.266-0.069,0.414-0.098,0.53-0.163c0.038-0.089,0.089-0.171,0.149-0.244L26.118,6.4l0.264-0.383
	c0.061-0.088,0.091-0.192,0.088-0.299c-0.021-0.735-0.132-1.428-0.652-2.179c-0.108-0.158-0.293-0.238-0.488-0.21l-0.314,0.05
	C24.578,2.926,23.443,2.017,21.469,2c-2.158,0.01-3.132,0.829-3.825,1.46c-0.558,0.509-0.831,1.006-1.03,1.522L15.73,6.425
	c-0.046,0.075-0.072,0.162-0.074,0.251l-0.03,1.516c-0.003,0.158,0.069,0.31,0.195,0.406l0.234,0.18
	c0.007-0.001,0.012-0.005,0.019-0.006c0.549-0.05,2.185-0.287,3.147-0.769c0.429-0.214,1.659-1.224,2.396-1.872
	c0.414-0.364,1.046-0.324,1.411,0.09c0.365,0.415,0.325,1.047-0.09,1.412c-0.329,0.289-2.01,1.754-2.823,2.159
	c-0.69,0.346-1.537,0.573-2.265,0.723c0.77,0.802,1.384,1.388,1.915,1.627l0.329,1.182l-5.589,3.924
	c-0.743,0.687-1.077,1.645-0.992,2.848c0.002,0.038,0.01,0.076,0.021,0.112l1.909,6.171c0.045-0.029,0.08-0.07,0.131-0.092
	l4.442-1.948l-1.045-2.884c-0.188-0.52,0.08-1.093,0.599-1.281c0.52-0.185,1.093,0.081,1.281,0.6l1.35,3.725
	c0.752,0.429,1.969,0.292,2.73-0.221c0.458-0.308,1.08-0.189,1.388,0.271c0.309,0.457,0.188,1.079-0.27,1.388
	c-0.795,0.536-1.8,0.838-2.786,0.838c-0.812,0-1.601-0.224-2.26-0.67c-0.005-0.002-0.009-0.005-0.013-0.007l-1.822,0.799
	l0.195,1.801l-1.888,2.688c-0.84,1.508-1.12,2.601-1.432,3.866c-0.031,0.125-0.047,0.203-0.043,0.428v3.239l2.882,0.222l7.649-1.276
	c0.087-0.017,0.171-0.004,0.255,0.001l1.096-1.039c0.085-0.081,0.183-0.146,0.291-0.192l5.994-2.72l-0.113-2.307
	c-0.002-0.035-0.007-0.069-0.016-0.103l-0.384-2.563L34,26.379c0.007-0.034,0.011-0.069,0.011-0.104l-0.009-2.267
	c-0.092,0.075-0.17,0.155-0.273,0.225c-0.881,0.595-1.836,0.914-2.915,0.914c-0.591,0-1.161-0.096-1.655-0.295
	c-0.512-0.207-0.76-0.789-0.554-1.302C28.811,23.038,29.391,22.789,29.906,22.996z M26.309,33.145
	c-0.677-0.042-1.149,0.017-1.149-0.515c0-0.311,0.584-0.528,1.26-0.485c0.677,0.042,1.19,0.328,1.19,0.639
	C27.61,33.344,26.985,33.188,26.309,33.145z"/>
</svg>