<?xml version="1.0" encoding="utf-8"?><!-- Generator: Adobe Illustrator 15.0.0, SVG Export Plug-In . SVG Version: 6.00 Build 0)  --><!DOCTYPE svg PUBLIC "-//W3C//DTD SVG 1.1//EN" "http://www.w3.org/Graphics/SVG/1.1/DTD/svg11.dtd"><svg xmlns="http://www.w3.org/2000/svg" xmlns:xlink="http://www.w3.org/1999/xlink" viewBox="0 0 50 50" width="50px" height="50px"><path d="M47.154,45.941c-1.599,0-3.804-0.4-5.539-1.488c-1.735,1.088-3.939,1.488-5.538,1.488s-3.804-0.4-5.539-1.489c-1.735,1.089-3.94,1.489-5.538,1.489c-1.598,0-3.803-0.4-5.539-1.488c-1.735,1.088-3.939,1.488-5.538,1.488c-1.598,0-3.803-0.4-5.538-1.488c-1.735,1.088-3.94,1.488-5.539,1.488c-0.658,0-1.293-0.05-1.998-0.158c-0.546-0.083-0.921-0.594-0.837-1.14s0.601-0.919,1.14-0.837c0.602,0.092,1.14,0.135,1.695,0.135c1.394,0,3.519-0.392,4.92-1.494c0.362-0.287,0.874-0.286,1.237-0.001c1.401,1.104,3.526,1.495,4.919,1.495c1.394,0,3.519-0.392,4.919-1.494c0.362-0.287,0.874-0.287,1.237-0.001c1.402,1.104,3.527,1.495,4.921,1.495s3.518-0.392,4.92-1.495c0.361-0.285,0.875-0.285,1.236,0c1.402,1.104,3.527,1.495,4.921,1.495s3.519-0.392,4.919-1.494c0.363-0.287,0.875-0.287,1.238,0c1.4,1.103,3.525,1.494,4.92,1.494c0.563,0,1.059-0.078,1.514-0.238c0.521-0.185,1.092,0.09,1.275,0.611s-0.091,1.092-0.611,1.275C48.659,45.826,47.947,45.941,47.154,45.941z"/><path fill="none" stroke="#000000" stroke-width="2" stroke-linecap="round" stroke-linejoin="round" stroke-miterlimit="10" d="M49,48.646c-0.494,0.174-1.091,0.295-1.846,0.295c-1.538,0-3.902-0.42-5.539-1.709c-1.637,1.289-4,1.709-5.538,1.709s-3.901-0.42-5.539-1.709c-1.638,1.289-4,1.709-5.538,1.709s-3.901-0.42-5.539-1.709c-1.637,1.289-4,1.709-5.538,1.709s-3.901-0.42-5.538-1.709c-1.637,1.289-4.001,1.709-5.539,1.709c-0.69,0-1.291-0.062-1.846-0.146"/><path d="M12,9V1.001c0-0.552-0.448-1-1-1H1c-0.552,0-1,0.448-1,1V9H12z"/><path d="M2.846,41.941c1.122,0,2.752-0.334,3.678-1.062c0.527-0.418,1.188-0.647,1.86-0.647c0.669,0,1.328,0.228,1.856,0.643c0.931,0.732,2.561,1.066,3.682,1.066c1.122,0,2.752-0.334,3.676-1.061c0.527-0.419,1.188-0.649,1.862-0.649c0.67,0,1.33,0.229,1.855,0.644c0.932,0.732,2.563,1.066,3.684,1.066c1.121,0,2.752-0.334,3.681-1.065c0.526-0.415,1.186-0.644,1.857-0.644s1.331,0.229,1.854,0.643c0.932,0.732,2.563,1.066,3.685,1.066s2.752-0.333,3.679-1.063c0.527-0.417,1.188-0.646,1.859-0.646s1.332,0.229,1.856,0.644c0.93,0.732,2.561,1.065,3.683,1.065c0.333,0,0.611-0.041,0.847-0.124c0.115-0.041,0.233-0.065,0.352-0.092C49.426,40.24,50,38.298,50,36v-4c0-0.553-0.447-1-1-1h-4c-0.553,0-1,0.447-1,1v4c0,1.458-1.542,3-3,3H9c-1.362,0-3-2.457-3-4c0-1.826,0-13.66,0.001-15.697L11.535,11H0v24.77c0,2.486,0.851,4.58,2.386,6.153C2.54,41.932,2.693,41.941,2.846,41.941z"/><path d="M38.971,28c-0.136-0.348-3.319-8.531-3.879-9.798c-0.728-1.611-4.084-3.243-9.092-3.243c-4.866,0-8.267,1.628-9.111,3.239c-0.472,0.904-3.516,8.901-3.862,9.81l-0.068,0.179v5.564c0,1.263,1.051,2.29,2.343,2.29h21.396c1.293,0,2.344-1.027,2.344-2.29v-5.568L38.971,28z M17.116,23.228l0.049-0.121L17.146,23.1c0.772-1.983,1.427-3.628,1.588-3.937c0.285-0.544,2.627-2.122,7.266-2.122c4.778,0,6.993,1.572,7.189,2.009c0.221,0.5,0.9,2.208,1.628,4.055l-0.01,0.004l0.049,0.118c0.115,0.279,0.421,1.02,0.217,1.325C34.929,24.769,34.37,25,33.236,25h-14.5c-1.133,0-1.692-0.231-1.837-0.448C16.696,24.248,17.001,23.507,17.116,23.228z M19.483,32c-0.837,0-1.578-0.216-2.44-0.707C16.465,30.965,16,30.654,16,30c0-0.551,0.447-1,1.005-1c0.375,0,2.029,0,2.478,0c0.83,0,1.501,0.674,1.501,1.503C20.984,31.33,20.313,32,19.483,32z M34.941,31.293C34.079,31.784,33.338,32,32.501,32C31.671,32,31,31.33,31,30.503C31,29.674,31.671,29,32.501,29c0.449,0,2.103,0,2.478,0c0.56,0,1.006,0.449,1.006,1C35.984,30.654,35.52,30.965,34.941,31.293z"/><path d="M12.092,27.652c0.351-0.924,1.06-2.784,1.784-4.652h-0.073c-1.835,0-3.021,1.155-3.021,2.943c0,0.381,0.124,1.434,1.251,1.863L12.092,27.652z"/><path d="M38.094,23.009c0.617,1.572,1.255,3.206,1.748,4.471l0.063,0.16l0.038,0.099C40.903,27.271,41,26.304,41,25.943C41,24.194,39.861,23.059,38.094,23.009z"/><path d="M36.697,37.041h-4.659C32.221,38.146,33.253,39,34.505,39h2.001C37.881,39,39,37.966,39,36.695v-0.569C38.399,36.689,37.591,37.041,36.697,37.041z"/><path d="M15.302,37.041c-0.893,0-1.701-0.352-2.302-0.915v0.569C13,37.966,14.119,39,15.494,39h2.001c1.252,0,2.284-0.854,2.467-1.959H15.302z"/></svg>