<?xml version="1.0" encoding="utf-8"?><!-- Generator: Adobe Illustrator 19.1.1, SVG Export Plug-In . SVG Version: 6.00 Build 0)  --><svg xmlns="http://www.w3.org/2000/svg" xmlns:xlink="http://www.w3.org/1999/xlink" viewBox="0 0 50 50" width="50px" height="50px"><path d="M38,27c-0.6,0-1-0.4-1-1v-7l-3-1c-1.6,0-3,1.4-3,3v15c0,1.6,1.4,3,3,3h0.1c0.5,2.8,2.9,5,5.9,5s5.4-2.2,5.9-5H47c1.6,0,3-1.4,3-3v-8.6c0-0.1,0-0.3,0-0.4H38z M40,42c-2.2,0-4-1.8-4-4s1.8-4,4-4s4,1.8,4,4S42.2,42,40,42z"/><path fill="none" stroke="#000000" stroke-width="2" stroke-miterlimit="10" d="M45.1,38H47c1,0,2-1,2-2c0,0,0-6.9,0-8.6c0-1.7-1.4-3.7-1.4-3.7L45,20.2c-0.8-1-1.7-1.2-3-1.2h-8c-1,0-2,1-2,2v15c0,1,1,2,2,2h1"/><path d="M0,31v5c0,1.7,1.3,3,3,3h4.1c0.5,2.8,2.9,5,5.9,5s5.4-2.2,5.9-5h7.2c1.6,0,2.8-1.3,2.8-2.8V31H0z M13,42c-2.2,0-4-1.8-4-4s1.8-4,4-4s4,1.8,4,4S15.2,42,13,42z"/><path d="M48.4,23.1l-2.2-2.6c-1-1.1-2.5-2.5-4.2-2.5l-5,1l-3-1c-1.6,0-3,1.4-3,3v15c0,1.6,1.4,3,3,3h0.1c0.5,2.8,2.9,5,5.9,5s5.4-2.2,5.9-5H47c1.6,0,3-1.4,3-3v-8.6C50,25.4,48.6,23.3,48.4,23.1z M42,20c0.8,0,1.3-0.3,2.2,0.7l2.5,3.5c0.3,0.4,1,1.7,1.2,2.8H38c-0.6,0-1-0.4-1-1v-6H42z M40,42c-2.2,0-4-1.8-4-4s1.8-4,4-4s4,1.8,4,4S42.2,42,40,42z"/><path d="M45.2,13.4c-0.1-0.4-0.2-0.7-0.4-1.1l-2.1-3.2c-0.2-0.2-0.3-0.5-0.5-0.7c0,0-0.1-0.1-0.1-0.1c-0.2-0.2-0.4-0.4-0.6-0.6c0,0,0,0,0,0C40.2,6.6,38.5,6,36.8,6H7c-3.9,0-7,3.1-7,7v16h2l0,0h27v-8c0-2.7,2.3-5,5-5h9.3C44.7,16,45.6,14.6,45.2,13.4z M23,22c0,0.6-0.4,1-1,1H7c-0.6,0-1-0.4-1-1V12c0-0.6,0.4-1,1-1h15c0.6,0,1,0.4,1,1V22z M30,11h8c0.6,0,1,0.4,1,1s-0.4,1-1,1h-8c-0.6,0-1-0.4-1-1S29.4,11,30,11z"/></svg>