<?xml version="1.0" encoding="utf-8"?><!-- Generator: Adobe Illustrator 15.0.0, SVG Export Plug-In . SVG Version: 6.00 Build 0)  --><!DOCTYPE svg PUBLIC "-//W3C//DTD SVG 1.1//EN" "http://www.w3.org/Graphics/SVG/1.1/DTD/svg11.dtd"><svg xmlns="http://www.w3.org/2000/svg" xmlns:xlink="http://www.w3.org/1999/xlink" viewBox="0 0 50 50" width="50px" height="50px"><g><path d="M35.8,17.7c-0.2-0.8-0.3-1.9-0.399-2.7H35.3c-0.1,0.8-0.3,2-0.399,2.7l-0.5,2.7h1.882L35.8,17.7z"/><path d="M49,8c-2.757,0-5-2.243-5-5c0-0.552-0.447-1-1-1H7C6.448,2,6,2.448,6,3c0,2.757-2.243,5-5,5C0.448,8,0,8.448,0,9v32c0,0.553,0.448,1,1,1c2.757,0,5,2.243,5,5c0,0.553,0.448,1,1,1h36c0.553,0,1-0.447,1-1c0-2.757,2.243-5,5-5c0.553,0,1-0.447,1-1V9C50,8.448,49.553,8,49,8z M34.3,13.1h2.2l2.5,12h-1.9L36.5,22h-2.4l-0.6,3.1h-1.9L34.3,13.1z M27,19.7c-1.3-0.9-2.3-2-2.3-3.3c0-1.9,1.3-3.3,3.5-3.3c0.8,0,1.5,0.2,1.8,0.4l-0.3,1.6c-0.3-0.2-0.8-0.4-1.5-0.4c-1.101,0-1.601,0.7-1.601,1.5c0,0.9,0.5,1.4,1.7,2.1c1.5,1,2.101,2.2,2.101,3.4c0,2.2-1.5,3.5-3.7,3.5c-0.9,0-1.8-0.2-2.2-0.5l0.4-1.6c0.4,0.3,1.2,0.5,1.9,0.5c1.2,0,1.8-0.7,1.8-1.7S28,20.4,27,19.7z M20.7,13.1h1.9v12h-1.9V13.1z M13.1,13.1l1,5.4c0.2,1.3,0.5,2.9,0.7,4.4h0.1c0.2-1.5,0.4-3,0.7-4.4l1-5.3h2.1l-2.8,12h-2.2v-0.1l-2.7-12H13.1z M28,38H9c-0.552,0-1-0.447-1-1s0.448-1,1-1h19c0.553,0,1,0.447,1,1S28.553,38,28,38z M41,38h-7c-0.553,0-1-0.447-1-1s0.447-1,1-1h7c0.553,0,1,0.447,1,1S41.553,38,41,38z M41,32H9c-0.552,0-1-0.447-1-1s0.448-1,1-1h32c0.553,0,1,0.447,1,1S41.553,32,41,32z"/></g></svg>