<?xml version="1.0" encoding="utf-8"?><!-- Generator: Adobe Illustrator 21.0.0, SVG Export Plug-In . SVG Version: 6.00 Build 0)  --><svg xmlns="http://www.w3.org/2000/svg" xmlns:xlink="http://www.w3.org/1999/xlink" viewBox="0 0 50 50" width="50px" height="50px"><style type="text/css">.st0{fill:#000000;}</style><g><path class="st0" d="M44.9,25c-0.3-0.1-0.5-0.1-0.8,0c-0.4,0.1-0.7,0.3-1.1,0.4v-2.5c0-2.6-3.8-4.5-4.6-4.9L38,17.8l-0.7,0.3c-0.3,0.1-0.7,0.4-1.3,0.7c-1,0.7-2,1.7-2.1,2.1v2h-5v-2c0-1.2-2.2-3-4-4c-1.8,1.1-4,2.9-4,4.1v2h-5v-2c0-0.3-0.3-0.8-2.1-2.1c-0.6-0.4-1.2-0.7-1.4-0.8L12,17.9l-0.4,0.2C11.1,18.3,7,20.3,7,23v2.5c-0.3-0.2-0.7-0.3-1.1-0.4c-0.3-0.1-0.5-0.1-0.8,0C3.2,25.6,2,27.1,2,29v13h46V28.9C48,26.9,46.8,25.4,44.9,25z M40,34l2,0v3.7l-2-1.4V34z M28.9,27h2v5h-2V27z M22.9,27h4v5h-4V27z M18.9,27h2v5h-2V27z M8,34l2,0v1.5l-2,1.6V34z M7.8,40l7.5-6h18.4l8.2,6H7.8z"/><path class="st0" d="M17.8,21h1c0-2.9,4.6-5.5,5.5-6l0.5-0.3l0.5,0.3c0.9,0.5,5.5,3.1,5.5,6v0.1h1V21c0.1-1.3,1.8-3,3.5-4c-0.1-0.3-0.3-0.5-0.5-0.7c-0.5-0.6-1.3-1-2.1-1.1c-0.3-1.9-1.8-4-6.2-4.7c-0.2-0.1-0.6-0.6-0.9-0.9l-0.8-1l-0.8,1c-0.3,0.4-0.7,0.8-0.9,1c-4.5,0.8-5.9,2.9-6.2,4.8c-1.1,0.2-2,0.9-2.5,1.8C16.3,18.2,17.8,19.6,17.8,21z"/></g></svg>