<?xml version="1.0" encoding="iso-8859-1"?>
<!-- Generator: Adobe Illustrator 24.1.2, SVG Export Plug-In . SVG Version: 6.00 Build 0)  -->
<svg version="1.1" baseProfile="basic" id="&#x421;&#x43B;&#x43E;&#x439;_1"
	 xmlns="http://www.w3.org/2000/svg" xmlns:xlink="http://www.w3.org/1999/xlink" x="0px" y="0px" viewBox="0 0 50 50"
	 xml:space="preserve">
<rect x="17.003" y="27.001" style="fill-rule:evenodd;clip-rule:evenodd;" width="9" height="3"/>
<path marker-end="none" marker-start="none" style="fill-rule:evenodd;clip-rule:evenodd;" d="M1.003,37.004
	c0-4.4,5.297-10.454,6.675-13.734c3.629,1.213,7.552,1.733,9.951,1.733c1.653,0,3.375-0.08,5.119-0.24
	c-1.525,3.64-3.056,7.24-5.744,7.24c-1.996,0-4,4.013-4,7v2c0,3.427-5.368,5-9,5C2.013,46.004,1.003,40.95,1.003,37.004z"/>
<rect x="25.003" y="25.001" style="fill-rule:evenodd;clip-rule:evenodd;" width="2" height="6.999"/>
<path marker-end="none" marker-start="none" style="fill-rule:evenodd;clip-rule:evenodd;" d="M1.129,15.267
	C2.111,15.587,3.314,16,4.3,16c1.325,0,3.059-0.587,4.107-1.067C9.455,14.453,11.185,14,12.512,14c1.325,0,3.059,0.427,4.108,0.907
	C17.668,15.387,19.399,16,20.725,16c1.325,0,3.059-0.587,4.108-1.067C25.882,14.453,27.611,14,28.938,14
	c1.325,0,3.059,0.427,4.108,0.907c1.009,0.467,2.65,0.987,3.956,1.027v2.813c-5.74,1.747-13.357,3.08-19.932,3.08
	C10.682,21.827,1.672,18.92,1.129,15.267z"/>
<path marker-end="none" marker-start="none" style="fill-rule:evenodd;clip-rule:evenodd;" d="M1,15c0-5.173,10.663-8,16.627-8
	c6.448,0,13.938,1.307,19.608,3.067c-0.149,0.28-0.232,0.6-0.232,0.933v1.093C31.533,10.347,24.055,9,17.627,9
	c-2.738,0-6.643,0.667-9.813,1.92C4.41,12.267,3,13.84,3,15c0,1.133,1.367,2.707,4.814,4.08c3.17,1.253,7.075,1.92,9.813,1.92
	c6.431,0,13.908-1.347,19.376-3.08V19c0,0.333,0.083,0.653,0.232,0.933C31.565,21.693,24.075,23,17.627,23C11.663,23,1,20.173,1,15z
	"/>
<path style="fill-rule:evenodd;clip-rule:evenodd;" d="M42.52,18h4.959c0.84,0,1.52-0.677,1.52-1.512v-2.977
	C49,12.677,48.319,12,47.48,12H42.52c-0.84,0-1.52,0.677-1.52,1.512v2.977C41,17.323,41.681,18,42.52,18z"/>
<path marker-end="none" marker-start="none" style="fill-rule:evenodd;clip-rule:evenodd;" d="M39.003,19v-8l5-2v12L39.003,19z"/>
</svg>