<?xml version="1.0" encoding="utf-8"?><!-- Generator: Adobe Illustrator 15.0.0, SVG Export Plug-In . SVG Version: 6.00 Build 0)  --><!DOCTYPE svg PUBLIC "-//W3C//DTD SVG 1.1//EN" "http://www.w3.org/Graphics/SVG/1.1/DTD/svg11.dtd"><svg xmlns="http://www.w3.org/2000/svg" xmlns:xlink="http://www.w3.org/1999/xlink" viewBox="0 0 50 50" width="50px" height="50px"><path d="M19,13c-2.757,0-5-2.243-5-5s2.243-5,5-5s5,2.243,5,5S21.757,13,19,13z"/><path d="M12.5,46H7c-2.097,0-4.06-0.938-5.385-2.571c-1.323-1.63-1.831-3.757-1.393-5.835C0.789,34.418,3.834,32,7.3,32h1.3c1.225,0,2.563-0.577,3.493-1.507l20.502-20.402C33.819,8.754,35.572,8,37.5,8h5.3c3.394,0,6.37,2.306,7.077,5.483c0.393,2.132-0.162,4.265-1.515,5.889C47.024,20.979,45.07,21.9,43,21.9h-1.6c-1.226,0-2.563,0.578-3.493,1.507l-20.5,20.5C16.182,45.246,14.428,46,12.5,46z"/><path d="M23.31,16.509C22.443,15.017,20.846,14,19,14c-2.757,0-5,2.243-5,5v6.773L23.31,16.509z"/><polyline fill="none" stroke="#000000" stroke-width="2" stroke-linecap="round" stroke-miterlimit="10" points="40.2,45 32,45 32,36.8 "/><line fill="none" stroke="#000000" stroke-width="2" stroke-linecap="round" stroke-miterlimit="10" x1="47" y1="30" x2="32.2" y2="44.8"/></svg>