<?xml version="1.0" encoding="iso-8859-1"?><!-- Generator: Adobe Illustrator 21.0.2, SVG Export Plug-In . SVG Version: 6.00 Build 0)  --><svg xmlns="http://www.w3.org/2000/svg" xmlns:xlink="http://www.w3.org/1999/xlink" viewBox="0 0 50 50" width="50px" height="50px"><line style="fill:none;stroke:#000000;stroke-width:2;stroke-miterlimit:10;" x1="38.849" y1="18" x2="43" y2="34"/><g><g ><g><path style="fill:none;stroke:#000000;stroke-width:2;stroke-linecap:round;stroke-linejoin:round;stroke-miterlimit:10;" d="M45,34c-3.33,0-5-2-5-2"/><path style="fill:none;stroke:#000000;stroke-width:2;stroke-linecap:round;stroke-linejoin:round;stroke-miterlimit:10;" d="M30,32c0,0-1.67,2-5,2s-5-2-5-2"/><path style="fill:none;stroke:#000000;stroke-width:2;stroke-linecap:round;stroke-linejoin:round;stroke-miterlimit:10;" d="M40,32c0,0-1.67,2-5,2s-5-2-5-2"/><path style="fill:none;stroke:#000000;stroke-width:2;stroke-linecap:round;stroke-linejoin:round;stroke-miterlimit:10;" d="M20,32c0,0-1.67,2-5,2s-5-2-5-2"/><path style="fill:none;stroke:#000000;stroke-width:2;stroke-linecap:round;stroke-linejoin:round;stroke-miterlimit:10;" d="M10,32c0,0-1.67,2-5,2"/><path style="fill:none;stroke:#000000;stroke-width:2;stroke-linecap:round;stroke-linejoin:round;stroke-miterlimit:10;" d="M45,39c-3.33,0-5-2-5-2"/><path style="fill:none;stroke:#000000;stroke-width:2;stroke-linecap:round;stroke-linejoin:round;stroke-miterlimit:10;" d="M30,37c0,0-1.67,2-5,2s-5-2-5-2"/><path style="fill:none;stroke:#000000;stroke-width:2;stroke-linecap:round;stroke-linejoin:round;stroke-miterlimit:10;" d="M40,37c0,0-1.67,2-5,2s-5-2-5-2"/><path style="fill:none;stroke:#000000;stroke-width:2;stroke-linecap:round;stroke-linejoin:round;stroke-miterlimit:10;" d="M20,37c0,0-1.67,2-5,2s-5-2-5-2"/><path style="fill:none;stroke:#000000;stroke-width:2;stroke-linecap:round;stroke-linejoin:round;stroke-miterlimit:10;" d="M10,37c0,0-1.67,2-5,2"/><path style="fill:none;stroke:#000000;stroke-width:2;stroke-linecap:round;stroke-linejoin:round;stroke-miterlimit:10;" d="M45,44c-3.33,0-5-2-5-2"/><path style="fill:none;stroke:#000000;stroke-width:2;stroke-linecap:round;stroke-linejoin:round;stroke-miterlimit:10;" d="M30,42c0,0-1.67,2-5,2s-5-2-5-2"/><path style="fill:none;stroke:#000000;stroke-width:2;stroke-linecap:round;stroke-linejoin:round;stroke-miterlimit:10;" d="M40,42c0,0-1.67,2-5,2s-5-2-5-2"/><path style="fill:none;stroke:#000000;stroke-width:2;stroke-linecap:round;stroke-linejoin:round;stroke-miterlimit:10;" d="M20,42c0,0-1.67,2-5,2s-5-2-5-2"/><path style="fill:none;stroke:#000000;stroke-width:2;stroke-linecap:round;stroke-linejoin:round;stroke-miterlimit:10;" d="M10,42c0,0-1.67,2-5,2"/></g></g></g><path d="M34.618,6H13.382L11,10.764V11c0,1.654,1.346,3,3,3c0.768,0,1.469-0.29,2-0.766C16.531,13.71,17.232,14,18,14s1.469-0.29,2-0.766C20.531,13.71,21.232,14,22,14s1.469-0.29,2-0.766C24.531,13.71,25.232,14,26,14s1.469-0.29,2-0.766C28.531,13.71,29.232,14,30,14s1.469-0.29,2-0.766C32.531,13.71,33.232,14,34,14c1.654,0,3-1.346,3-3v-0.236L34.618,6z"/><g><path d="M14,26.7h2V15.031c-0.617,0.307-1.3,0.469-2,0.469V26.7z"/><path d="M32,25.7h2V15.5c-0.7,0-1.383-0.163-2-0.469V25.7z"/></g><circle cx="39.5" cy="20.5" r="1.5"/><g><path d="M41.095,23.17C39.997,23.658,38.651,24,37,24l-4.533,0.002l-0.297,0.44C32.152,24.468,30.415,27,28,27H16v-3h-6c-3.757,0-5.945-5.319-5.967-5.373L3.78,18H2v1c0,9.359,5.875,14.39,6.125,14.6l1.913-0.793l4.57,0.992l5.208-1.169l4.745,0.898l5.387-0.721l5.775,1.275l4.287-1.382c0.31-0.31,3.297,0.376,3.572,0.048L41.095,23.17z"/><path d="M45.373,19.004L45.1,19.565c-0.048,0.098-0.703,1.383-2.213,2.545l2.204,8.494C47.956,25.756,48,20.281,48,20v-1L45.373,19.004z"/></g></svg>