<?xml version="1.0" encoding="iso-8859-1"?><!-- Generator: Adobe Illustrator 19.1.1, SVG Export Plug-In . SVG Version: 6.00 Build 0)  --><svg xmlns="http://www.w3.org/2000/svg" xmlns:xlink="http://www.w3.org/1999/xlink" viewBox="0 0 50 50" width="50px" height="50px"><path d="M12.747,17.278c0.536-0.179,1.048-0.343,1.518-0.443l5.116-8.526l1.172,0.586c0.422,0.212,0.934,0.099,1.229-0.27L24.9,4.727l4.253,6.804c0.273,0.436,0.832,0.594,1.295,0.364l3.063-1.532l3.091,6.953c0.025-0.008,0.054-0.017,0.078-0.025c0.675-0.222,1.317-0.429,1.872-0.511l-3.638-8.185c-0.111-0.249-0.319-0.442-0.576-0.535c-0.256-0.091-0.54-0.076-0.785,0.047l-3.187,1.594L25.848,2.47c-0.172-0.274-0.466-0.449-0.79-0.468c-0.31-0.019-0.636,0.12-0.839,0.373l-3.494,4.369l-1.277-0.639c-0.47-0.232-1.035-0.066-1.305,0.38l-6.712,11.187C11.818,17.584,12.316,17.421,12.747,17.278z"/><path fill="none" stroke="#000000" stroke-width="2" stroke-linecap="round" stroke-linejoin="round" stroke-miterlimit="10" d="M47,17c-0.961,0-3.063,1-4,1s-3.043-1-4-1s-3.052,1-4,1s-3.047-1-4-1s-3.025,1-4,1s-3.005-1-4-1c-0.995,0-2.999,1-4,1s-3.04-1-4-1s-2.973,1-4,1s-2.998-1-4-1s-3.007,1-4,1"/><g><path d="M40.15,20.376c-0.022-0.007-0.044-0.014-0.066-0.021c-0.252-0.083-0.788-0.258-1.084-0.332c-0.292,0.074-0.82,0.247-1.073,0.33C36.957,20.67,35.954,21,35,21c-0.953,0-1.913-0.315-2.933-0.65c-0.248-0.081-0.773-0.253-1.066-0.328c-0.281,0.072-0.778,0.236-1.041,0.323C28.982,20.667,27.971,21,27,21c-0.969,0-1.963-0.33-2.926-0.649c-0.271-0.09-0.791-0.263-1.072-0.332c-0.276,0.069-0.783,0.238-1.048,0.326C20.988,20.667,19.988,21,19,21c-0.989,0-2.001-0.335-2.983-0.66c-0.255-0.085-0.739-0.245-1.016-0.317c-0.271,0.071-0.742,0.228-0.991,0.31C13.026,20.661,12.008,21,11,21c-0.485,0-0.968-0.08-1.448-0.197l-3.41,5.683C5.934,26.834,5.956,27.274,6.2,27.6l15,20c0.184,0.245,0.469,0.393,0.774,0.4c0.009,0,0.017,0,0.025,0c0.296,0,0.578-0.132,0.769-0.359l4.392-5.271l3.24,2.43c0.222,0.167,0.502,0.234,0.775,0.185c0.272-0.049,0.514-0.208,0.664-0.441l11-17c0.184-0.283,0.211-0.641,0.074-0.949L40.15,20.376z"/></g></svg>