<?xml version="1.0" encoding="iso-8859-1"?><!-- Generator: Adobe Illustrator 19.1.1, SVG Export Plug-In . SVG Version: 6.00 Build 0)  --><svg xmlns="http://www.w3.org/2000/svg" xmlns:xlink="http://www.w3.org/1999/xlink" viewBox="0 0 50 50" width="50px" height="50px"><path d="M41,30c-2.206,0-4-1.794-4-4s1.794-4,4-4s4,1.794,4,4S43.206,30,41,30z"/><path d="M47,42H3c-0.552,0-1-0.447-1-1v-3c0-0.553,0.448-1,1-1h44c0.553,0,1,0.447,1,1v3C48,41.553,47.553,42,47,42z"/><line fill="none" stroke="#000000" stroke-width="2" stroke-linecap="round" stroke-linejoin="round" stroke-miterlimit="10" x1="28" y1="38" x2="45.876" y2="29.03"/><line fill="none" stroke="#000000" stroke-width="2" stroke-linecap="round" stroke-linejoin="round" stroke-miterlimit="10" x1="44" y1="38" x2="42" y2="31"/><polygon points="27.671,17.996 20.901,2.777 14.397,18 "/><path d="M18.336,3.691L2.415,15.189c-0.338,0.244-0.489,0.672-0.379,1.075c0.11,0.403,0.458,0.694,0.874,0.732l9.379,0.849L18.336,3.691z"/><path d="M39.586,15.189L23.417,3.512l6.374,14.329l9.299-0.845c0.415-0.038,0.764-0.33,0.874-0.732C40.074,15.862,39.924,15.434,39.586,15.189z"/><path d="M5,44v3c0,0.553,0.448,1,1,1h4c0.552,0,1-0.447,1-1v-3H5z"/><path d="M39,44v3c0,0.553,0.448,1,1,1h4c0.552,0,1-0.447,1-1v-3H39z"/><g><path d="M20.432,28.214L22,29.522V19h-2v8.913C20.145,28.011,20.296,28.1,20.432,28.214z"/></g><g><path d="M20.435,32l0.883-0.442l-2.168-1.809c-1.121-0.937-2.737-1-3.927-0.156L11.82,32H20.435z"/></g><g><path d="M36.887,31.303c0.184-0.772,0.124-1.606-0.257-2.37c-0.864-1.726-2.972-2.427-4.696-1.565L20.671,33H7c-1.1,0-2,0.9-2,2c0,0.365,0.106,0.704,0.279,1h22.248L36.887,31.303z"/></g></svg>