<?xml version="1.0" encoding="utf-8"?><!-- Generator: Adobe Illustrator 18.1.1, SVG Export Plug-In . SVG Version: 6.00 Build 0)  --><svg xmlns="http://www.w3.org/2000/svg" xmlns:xlink="http://www.w3.org/1999/xlink" viewBox="0 0 50 50" width="50px" height="50px"><rect x="22" y="38" width="5" height="12"/><rect x="22" y="21" width="5" height="3"/><path d="M22,3.5V7h5V3.5C27,2.1,25.9,1,24.5,1h0C23.1,1,22,2.1,22,3.5z"/><path d="M49.8,12.4l-5-6C44.6,6.1,44.3,6,44,6H10C9.4,6,9,6.4,9,7v12c0,0.6,0.4,1,1,1h34c0.3,0,0.6-0.1,0.8-0.4l5-6C50.1,13.3,50.1,12.7,49.8,12.4z"/><path d="M40,23H6c-0.3,0-0.6,0.1-0.8,0.4l-5,6c-0.3,0.4-0.3,0.9,0,1.3l5,6C5.4,36.9,5.7,37,6,37h34c0.6,0,1-0.4,1-1V24C41,23.4,40.6,23,40,23z"/></svg>