<?xml version="1.0" encoding="utf-8"?><!-- Generator: Adobe Illustrator 15.0.0, SVG Export Plug-In . SVG Version: 6.00 Build 0)  --><!DOCTYPE svg PUBLIC "-//W3C//DTD SVG 1.1//EN" "http://www.w3.org/Graphics/SVG/1.1/DTD/svg11.dtd"><svg xmlns="http://www.w3.org/2000/svg" xmlns:xlink="http://www.w3.org/1999/xlink" viewBox="0 0 50 50" width="50px" height="50px"><path d="M21.382,12l0.747,5.734C22.982,17.267,23.96,17,25,17s2.019,0.267,2.872,0.734L28.618,12H21.382z"/><path d="M32.788,4.385C32.599,4.142,32.308,4,32,4h-2v3h-2V4h-2v3h-2V4h-2v3h-2V4h-2c-0.308,0-0.599,0.142-0.788,0.385s-0.257,0.559-0.182,0.858l1,4C18.141,9.688,18.541,10,19,10h12c0.459,0,0.858-0.313,0.97-0.757l1-4C33.045,4.944,32.978,4.627,32.788,4.385z"/><path d="M25,27c-2.209,0-4-1.791-4-4s1.791-4,4-4s4,1.791,4,4S27.209,27,25,27z"/><path d="M44,0h-7c-0.553,0-1,0.448-1,1s0.447,1,1,1h7c2.206,0,4,1.794,4,4s-1.794,4-4,4h-8.23C31.91,10,29,12.944,29,16.849v1.691c1.096,0.984,1.83,2.36,1.973,3.909C30.983,22.302,31,22.161,31,22v-5.151C31,14.04,33.006,12,35.77,12H44c3.309,0,6-2.691,6-6S47.309,0,44,0z"/><path d="M19,22c0,0.161,0.017,0.302,0.028,0.45c0.142-1.549,0.876-2.926,1.972-3.91v-1.691C21,12.944,18.09,10,14.231,10H6c-2.206,0-4-1.794-4-4s1.794-4,4-4h7c0.552,0,1-0.448,1-1s-0.448-1-1-1H6C2.691,0,0,2.691,0,6s2.691,6,6,6h8.231C16.994,12,19,14.04,19,16.849V22z"/><path d="M43,44.171v-9.394c0-4.555-7.361-8.406-12.24-10.113C30.036,27.165,27.73,29,25,29c-2.726,0-5.029-1.828-5.757-4.322C14.368,26.415,7,30.297,7,34.777v9.394C5.836,44.584,5,45.696,5,47c0,1.654,1.346,3,3,3h34c1.654,0,3-1.346,3-3C45,45.696,44.164,44.584,43,44.171z"/></svg>