<?xml version="1.0" encoding="utf-8"?><!-- Generator: Adobe Illustrator 15.0.0, SVG Export Plug-In . SVG Version: 6.00 Build 0)  --><!DOCTYPE svg PUBLIC "-//W3C//DTD SVG 1.1//EN" "http://www.w3.org/Graphics/SVG/1.1/DTD/svg11.dtd"><svg xmlns="http://www.w3.org/2000/svg" xmlns:xlink="http://www.w3.org/1999/xlink" viewBox="0 0 50 50" width="50px" height="50px"><g><path fill="none" d="M18,27.999c0,2.209,1.791,4,4,4s4-1.791,4-4c0-0.022-0.006-0.044-0.007-0.066l-1.38,1.38l-4.355-3.474l1.829-1.831c-0.029-0.001-0.057-0.009-0.086-0.009C19.791,23.999,18,25.79,18,27.999z"/><path fill="none" d="M11.548,31.318c-0.219-0.221-0.573-0.221-0.792,0l-1.188,1.188c-0.221,0.219-0.221,0.573,0,0.794l7.133,7.134c0.217,0.217,0.573,0.217,0.792,0l1.188-1.19c0.219-0.22,0.219-0.571,0-0.792L11.548,31.318z"/><path fill="none" d="M44.807,3.343c-0.218-0.217-0.568-0.217-0.785,0l-3.705,3.704c-0.217,0.217-0.217,0.568,0,0.785c0.108,0.109,0.25,0.163,0.393,0.163s0.284-0.054,0.393-0.163l3.705-3.704C45.023,3.911,45.023,3.56,44.807,3.343z"/><path fill="none" d="M45.873,5.195l-3.704,3.704c-0.217,0.217-0.217,0.568,0,0.785c0.108,0.109,0.249,0.163,0.392,0.163c0.144,0,0.285-0.054,0.394-0.163l3.704-3.704c0.217-0.217,0.217-0.568,0-0.785C46.441,4.978,46.09,4.978,45.873,5.195z"/><path d="M48.458,4.163l-2.619-2.619c-0.72-0.724-1.896-0.724-2.618,0l-4.378,4.377c-0.479,0.479-0.61,1.15-0.454,1.763l-7.36,7.37l3.926,3.919l7.362-7.361c0.611,0.156,1.285,0.025,1.765-0.454l4.377-4.377C49.182,6.059,49.182,4.883,48.458,4.163z M40.709,7.995c-0.143,0-0.284-0.054-0.393-0.163c-0.217-0.217-0.217-0.568,0-0.785l3.705-3.704c0.217-0.217,0.567-0.217,0.785,0c0.217,0.217,0.217,0.568,0,0.785l-3.705,3.704C40.993,7.941,40.852,7.995,40.709,7.995z M46.658,5.98l-3.704,3.704c-0.108,0.109-0.25,0.163-0.394,0.163c-0.143,0-0.283-0.054-0.392-0.163c-0.217-0.217-0.217-0.568,0-0.785l3.704-3.704c0.217-0.217,0.568-0.217,0.785,0C46.875,5.412,46.875,5.763,46.658,5.98z"/><path d="M26,27.999c0,2.209-1.791,4-4,4s-4-1.791-4-4s1.791-4,4-4c0.03,0,0.057,0.008,0.086,0.009l8.942-8.954l-0.1-0.1c-1.772-1.537-4.521-3.368-7.559-3.368c-1.52,0-2.958,0.458-4.275,1.359c-1.85,1.265-2.442,2.946-2.917,4.297c-0.315,0.895-0.587,1.667-1.145,2.203c-0.517,0.497-1.643,0.701-2.945,0.938c-2.498,0.453-5.918,1.074-9.138,4.296c-1.982,1.981-2.974,4.309-2.948,6.919c0.038,3.824,2.267,7.968,6.417,11.955c4.052,4.216,8.229,6.444,12.081,6.444c2.571,0,4.866-0.991,6.82-2.946c3.221-3.221,3.841-6.643,4.294-9.141c0.236-1.304,0.44-2.43,0.938-2.947c0.532-0.554,1.31-0.818,2.21-1.126c1.363-0.465,3.061-1.044,4.327-2.896c2.353-3.436,1.625-7.655-2.098-11.931l-0.037-0.038l-8.961,8.959C25.994,27.955,26,27.977,26,27.999z M18.681,39.243l-1.188,1.19c-0.219,0.217-0.575,0.217-0.792,0L9.568,33.3c-0.221-0.221-0.221-0.575,0-0.794l1.188-1.188c0.219-0.221,0.573-0.221,0.792,0l7.133,7.133C18.9,38.672,18.9,39.023,18.681,39.243z"/></g><line fill="none" stroke="#000000" stroke-width="2" stroke-linecap="round" stroke-miterlimit="10" x1="46" y1="10" x2="47" y2="11"/><line fill="none" stroke="#000000" stroke-width="2" stroke-linecap="round" stroke-miterlimit="10" x1="48" y1="8" x2="49" y2="9"/><line fill="none" stroke="#000000" stroke-width="2" stroke-linecap="round" stroke-miterlimit="10" x1="39" y1="3" x2="40" y2="4"/><line fill="none" stroke="#000000" stroke-width="2" stroke-linecap="round" stroke-miterlimit="10" x1="41" y1="1" x2="42" y2="2"/><g><path d="M22,23.999c2.209,0,4,1.791,4,4s-1.791,4-4,4s-4-1.791-4-4S19.791,23.999,22,23.999 M22,21.999c-3.309,0-6,2.691-6,6s2.691,6,6,6s6-2.691,6-6S25.309,21.999,22,21.999L22,21.999z"/></g></svg>