<?xml version="1.0" encoding="iso-8859-1"?><!-- Generator: Adobe Illustrator 19.1.1, SVG Export Plug-In . SVG Version: 6.00 Build 0)  --><svg xmlns="http://www.w3.org/2000/svg" xmlns:xlink="http://www.w3.org/1999/xlink" viewBox="0 0 50 50" width="50px" height="50px"><path d="M35.835,17.488c1.639-2.095,4.462-4.141,7.619-4.378c0.801-0.06,1.568,0.016,2.298,0.2C41.433,7.92,34.222,4.295,26,4.021v9.017C30.11,13.28,33.68,14.992,35.835,17.488z"/><path d="M6.547,13.11c3.157,0.237,5.979,2.283,7.619,4.378c2.155-2.496,5.725-4.208,9.835-4.45V4.021c-8.223,0.273-15.433,3.9-19.752,9.29C4.98,13.126,5.747,13.05,6.547,13.11z"/><path d="M48.217,17.223c-0.037-0.033-0.081-0.053-0.114-0.092c-1.22-1.478-2.724-2.154-4.501-2.026c-2.656,0.2-5.29,2.223-6.561,4.128C37.658,20.395,38,21.666,38,23c0,2.515-1.216,4.807-3.209,6.564c1.849,0.685,3.67,1.953,4.958,3.585c1.219,1.546,2.47,3.995,2.153,7.308C46.876,36.616,50,31.109,50,25C50,22.253,49.364,19.63,48.217,17.223z"/><path d="M10.251,33.149c1.286-1.631,3.1-2.909,4.946-3.595C13.211,27.798,12,25.51,12,23c0-1.334,0.342-2.605,0.959-3.768c-1.272-1.904-3.906-3.928-6.562-4.128c-1.765-0.131-3.281,0.549-4.501,2.026c-0.032,0.039-0.077,0.059-0.113,0.092C0.636,19.629,0,22.253,0,25c0,6.109,3.124,11.616,8.098,15.457C7.781,37.145,9.032,34.695,10.251,33.149z"/><path d="M39.655,41.756c0.866-3.443-0.325-5.908-1.477-7.368c-1.556-1.973-3.802-3.089-5.494-3.335C30.53,32.271,27.879,33,25,33c-2.888,0-5.546-0.733-7.704-1.958c-1.687,0.229-3.925,1.381-5.475,3.346c-1.151,1.46-2.342,3.925-1.477,7.368c0.021,0.084,0.012,0.166,0.012,0.249C14.475,44.515,19.534,46,25,46s10.525-1.485,14.643-3.995C39.643,41.922,39.634,41.84,39.655,41.756z"/></svg>