<?xml version="1.0" encoding="iso-8859-1"?>
<!-- Generator: Adobe Illustrator 23.0.3, SVG Export Plug-In . SVG Version: 6.00 Build 0)  -->
<svg version="1.1" id="Layer_1" xmlns="http://www.w3.org/2000/svg" xmlns:xlink="http://www.w3.org/1999/xlink" x="0px" y="0px"
	 viewBox="0 0 50 50" style="enable-background:new 0 0 50 50;" xml:space="preserve">
<path d="M47,42H3c-0.552,0-1-0.447-1-1v-3c0-0.553,0.448-1,1-1h44c0.553,0,1,0.447,1,1v3C48,41.553,47.553,42,47,42z"/>
<path d="M5,44v3c0,0.553,0.448,1,1,1h4c0.552,0,1-0.447,1-1v-3H5z"/>
<path d="M39,44v3c0,0.553,0.448,1,1,1h4c0.552,0,1-0.447,1-1v-3H39z"/>
<path d="M20.435,32l0.883-0.442l-2.168-1.809c-1.121-0.937-2.737-1-3.927-0.156L11.82,32H20.435z"/>
<path d="M36.887,31.303c0.184-0.772,0.124-1.606-0.257-2.37c-0.864-1.726-2.972-2.427-4.696-1.565L20.671,33H7c-1.1,0-2,0.9-2,2
	c0,0.365,0.106,0.704,0.279,1h22.248L36.887,31.303z"/>
<g>
	<circle cx="11" cy="11" r="4"/>
	<path d="M11,5c0.552,0,1-0.448,1-1V3c0-0.552-0.448-1-1-1s-1,0.448-1,1v1C10,4.552,10.448,5,11,5z"/>
	<path d="M11,17c-0.552,0-1,0.448-1,1v1c0,0.552,0.448,1,1,1s1-0.448,1-1v-1C12,17.448,11.552,17,11,17z"/>
	<path d="M19,10h-1c-0.552,0-1,0.448-1,1s0.448,1,1,1h1c0.552,0,1-0.448,1-1S19.552,10,19,10z"/>
	<path d="M5,11c0-0.552-0.448-1-1-1H3c-0.552,0-1,0.448-1,1s0.448,1,1,1h1C4.552,12,5,11.552,5,11z"/>
	<path d="M16.657,15.243c-0.391-0.391-1.023-0.391-1.414,0s-0.391,1.023,0,1.414l0.707,0.707c0.195,0.195,0.451,0.293,0.707,0.293
		s0.512-0.098,0.707-0.293c0.391-0.391,0.391-1.023,0-1.414L16.657,15.243z"/>
	<path d="M5.343,6.757C5.539,6.953,5.794,7.05,6.05,7.05s0.512-0.098,0.707-0.293c0.391-0.391,0.391-1.023,0-1.414L6.05,4.636
		c-0.391-0.391-1.023-0.391-1.414,0s-0.391,1.023,0,1.414L5.343,6.757z"/>
	<path d="M15.95,7.05c0.256,0,0.512-0.098,0.707-0.293l0.707-0.707c0.391-0.391,0.391-1.023,0-1.414s-1.023-0.391-1.414,0
		l-0.707,0.707c-0.391,0.391-0.391,1.023,0,1.414C15.438,6.953,15.694,7.05,15.95,7.05z"/>
	<path d="M5.343,15.243L4.636,15.95c-0.391,0.391-0.391,1.023,0,1.414c0.195,0.195,0.451,0.293,0.707,0.293s0.512-0.098,0.707-0.293
		l0.707-0.707c0.391-0.391,0.391-1.023,0-1.414S5.734,14.852,5.343,15.243z"/>
</g>
<path d="M48.134,29.629c-0.258-1.483-1.742-2.444-2.226-2.722C45.479,29.231,43.446,31,41,31c-0.361,0-0.711-0.042-1.05-0.115
	l-12.399,6.222c-0.493,0.248-0.693,0.849-0.445,1.342C27.282,38.798,27.634,39,28.001,39c0.15,0,0.304-0.034,0.448-0.106
	l12.915-6.481l1.675,5.862C43.164,38.714,43.564,39,44,39c0.091,0,0.184-0.013,0.275-0.039c0.531-0.152,0.838-0.705,0.687-1.236
	L43.183,31.5l0.903-0.453c0.605,1.323,2.092,2.096,2.164,2.133l0.333,0.169l0.256-0.271C46.905,33.008,48.436,31.366,48.134,29.629z
	"/>
<circle cx="41" cy="26" r="4"/>
</svg>