<?xml version="1.0" encoding="iso-8859-1"?><!-- Generator: Adobe Illustrator 19.1.1, SVG Export Plug-In . SVG Version: 6.00 Build 0)  --><svg xmlns="http://www.w3.org/2000/svg" xmlns:xlink="http://www.w3.org/1999/xlink" viewBox="0 0 50 50" width="50px" height="50px"><path fill="none" stroke="#000000" stroke-width="2" stroke-linecap="round" stroke-linejoin="round" stroke-miterlimit="10" d="M15.353,25.833l-0.042-0.137c-0.392-1.29,0.336-2.653,1.626-3.044l10.54-3.2l1.46,4.807l-10.54,3.2C17.108,27.851,15.745,27.123,15.353,25.833z"/><line fill="none" stroke="#000000" stroke-width="2" stroke-linecap="round" stroke-linejoin="round" stroke-miterlimit="10" x1="18.605" y1="22.168" x2="20.065" y2="26.975"/><path d="M9.001,31c-1.749,0-3.358-1.157-3.853-2.921c-0.595-2.124,0.649-4.335,2.772-4.93c2.121-0.596,4.335,0.649,4.93,2.772c0.595,2.123-0.649,4.334-2.772,4.93C9.719,30.952,9.357,31,9.001,31z"/><path d="M43.417,12.119l4.55-7.315c0.085-0.146,0.09-0.325,0.014-0.476s-0.223-0.253-0.391-0.272c-0.057-0.006-0.404-0.042-0.934-0.047c-1.842-0.016-5.909,0.346-7.841,3.632c-0.154,0.263-0.493,0.807-0.954,1.538L43.417,12.119z"/><path d="M36.787,10.873c-2.694,4.236-7.076,11.053-7.746,12.223l-13.234,4.335c-0.082,0.024-0.156,0.07-0.215,0.132L2.785,40.504c-1.014,1.04-1,2.718,0.032,3.741c0.501,0.496,1.165,0.77,1.87,0.77c0.005,0,0.011,0,0.016,0c0.711-0.005,1.377-0.285,1.878-0.794l8.088-7.979l11.824-3.624c3.412-0.952,6.271-3.164,8.049-6.229l7.817-12.567L36.787,10.873z"/></svg>