<?xml version="1.0" encoding="utf-8"?><!-- Generator: Adobe Illustrator 15.0.0, SVG Export Plug-In . SVG Version: 6.00 Build 0)  --><!DOCTYPE svg PUBLIC "-//W3C//DTD SVG 1.1//EN" "http://www.w3.org/Graphics/SVG/1.1/DTD/svg11.dtd"><svg xmlns="http://www.w3.org/2000/svg" xmlns:xlink="http://www.w3.org/1999/xlink" viewBox="0 0 50 50" width="50px" height="50px"><path d="M50,50h-6v-4H6v4H0V25c0-1.962,2-3,3-3s3,1.038,3,3v15h38v-6c0-1.963,2-3,3-3s3,1.037,3,3V50z"/><path d="M42,38H19v-7c0-1.654,1.346-3,3-3h17c1.654,0,3,1.346,3,3V38z"/><path d="M13,38c-2.757,0-5-2.243-5-5s2.243-5,5-5s5,2.243,5,5S15.757,38,13,38z"/><path d="M25,0c-4.962,0-9,4.038-9,9s4.038,9,9,9c4.963,0,9-4.038,9-9S29.963,0,25,0z M26,13h-2V8.3h2V13z M25,7.2c-0.663,0-1.2-0.538-1.2-1.2s0.538-1.2,1.2-1.2c0.662,0,1.2,0.538,1.2,1.2S25.662,7.2,25,7.2z"/></svg>