<?xml version="1.0" encoding="utf-8"?><!-- Generator: Adobe Illustrator 15.0.0, SVG Export Plug-In . SVG Version: 6.00 Build 0)  --><!DOCTYPE svg PUBLIC "-//W3C//DTD SVG 1.1//EN" "http://www.w3.org/Graphics/SVG/1.1/DTD/svg11.dtd"><svg xmlns="http://www.w3.org/2000/svg" xmlns:xlink="http://www.w3.org/1999/xlink" viewBox="0 0 50 50" width="50px" height="50px"><path d="M49.322,8.338l-7.675-7.673c-0.376-0.378-0.878-0.587-1.412-0.588c-0.001,0-0.001,0-0.002,0c-0.534,0-1.036,0.208-1.415,0.586c-0.133,0.133-0.226,0.301-0.268,0.484l-1.885,8.237L17.79,28.259c-0.071,0.07-6.779,7.362-4.95,9.192c0.253,0.253,0.552,0.386,0.933,0.386c0.858,0,2.132-0.674,4.241-2.166c1.771-1.252,3.563-2.714,4.019-3.17L40.923,13.61l7.957-2.187c0.167-0.046,0.319-0.134,0.442-0.257c0.378-0.377,0.586-0.88,0.586-1.414S49.7,8.716,49.322,8.338z M43.801,8.71L41.52,9.337l-0.787-0.786l0.543-2.367c0.108-0.109,0.283-0.109,0.393,0l2.133,2.133C43.91,8.426,43.91,8.601,43.801,8.71z"/><path d="M24.556,32.805l-1.11,1.11c-0.587,0.587-2.488,2.123-4.277,3.389c-2.61,1.847-4.073,2.533-5.396,2.533c-0.9,0-1.711-0.336-2.347-0.972c-0.413-0.413-0.903-1.146-0.901-2.294c0.007-3.631,5.798-9.674,5.852-9.727l1.11-1.11l-4.243-4.243c-0.391-0.391-1.023-0.391-1.414,0l-8.946,8.945c-2.344,2.345-4.655,9.147-0.875,17.422c0.107,0.234,0.301,0.418,0.541,0.514C5.23,49.438,8.158,50,11.017,50c3.794,0,7.262-1.018,8.836-2.592l8.946-8.946c0.391-0.391,0.391-1.023,0-1.414L24.556,32.805z"/></svg>