<?xml version="1.0" encoding="iso-8859-1"?><!-- Generator: Adobe Illustrator 21.0.0, SVG Export Plug-In . SVG Version: 6.00 Build 0)  --><svg xmlns="http://www.w3.org/2000/svg" xmlns:xlink="http://www.w3.org/1999/xlink" viewBox="0 0 50 50" width="50px" height="50px"><line style="fill:none;stroke:#000000;stroke-width:2;stroke-linecap:round;stroke-linejoin:round;stroke-miterlimit:10;" x1="38" y1="13" x2="40" y2="13"/><line style="fill:none;stroke:#000000;stroke-width:2;stroke-linecap:round;stroke-linejoin:round;stroke-miterlimit:10;" x1="38" y1="16" x2="40" y2="16"/><line style="fill:none;stroke:#000000;stroke-width:2;stroke-linecap:round;stroke-linejoin:round;stroke-miterlimit:10;" x1="38" y1="19" x2="40" y2="19"/><line style="fill:none;stroke:#000000;stroke-width:2;stroke-linecap:round;stroke-linejoin:round;stroke-miterlimit:10;" x1="38" y1="22" x2="40" y2="22"/><polyline style="fill:none;stroke:#000000;stroke-width:2;stroke-linecap:round;stroke-linejoin:round;stroke-miterlimit:10;" points="37,26.614 37,25 41,25 41,28.649 "/><path style="fill:none;stroke:#000000;stroke-width:2;stroke-linecap:round;stroke-linejoin:round;stroke-miterlimit:10;" d="M10,28.248c0,0-2-6.427-2-16.248c0-5.649,3.088-9,6.088-9C16.088,3,25,6,25,6s8.912-3,10.912-3c3,0,5.088,3,5.088,7"/><path d="M35.912,3c3,0,5.088,3,5.088,8h-3.041c-0.516,0-0.954-0.396-0.992-0.911c-0.34-4.593-3.255-6.727-5.969-5.974"/><path d="M19.002,4.116C16.115,3.315,12,5.772,12,13c0,9.446,1.52,13.655,1.52,13.655L10,28.248c0,0-2-6.427-2-16.248c0-5.649,3.088-9,6.088-9"/><path d="M44.752,41.122L46,41.576c0.612,0.223,1.278-0.152,1.406-0.79l0.573-2.866c0.105-0.526-0.198-1.047-0.706-1.217L45.163,36L44.752,41.122z"/><path d="M5.248,41.122L4,41.576c-0.612,0.223-1.278-0.152-1.406-0.79L2.021,37.92c-0.105-0.526,0.198-1.047,0.706-1.217L4.837,36L5.248,41.122z"/><path d="M43.791,29.388c-0.071-0.092-0.157-0.17-0.255-0.231c-0.13-0.083-3.234-2.04-7.25-3.276C33.723,25.091,32,22.781,32,20.133V4.484c0-0.309-0.143-0.6-0.386-0.789c-0.244-0.189-0.561-0.258-0.859-0.181L25,4.969l-5.755-1.454c-0.3-0.076-0.615-0.008-0.859,0.181C18.143,3.885,18,4.176,18,4.484v15.648c0,2.648-1.723,4.958-4.285,5.747c-4.017,1.236-7.121,3.193-7.251,3.276c-0.098,0.062-0.184,0.14-0.255,0.231C6.118,29.506,3.971,32.338,4,37.623c0.034,6.125,2.046,9.722,2.131,9.872c0.136,0.236,0.36,0.408,0.625,0.475C6.836,47.99,6.918,48,7,48c0.186,0,0.37-0.052,0.53-0.152c0.048-0.03,3.099-1.909,7.717-3.318C14.455,42.873,14,40.995,14,39c0-6.617,4.935-12,11-12s11,5.383,11,12c0,1.996-0.455,3.875-1.249,5.532c4.615,1.409,7.671,3.286,7.719,3.316c0.23,0.144,0.511,0.185,0.774,0.121c0.264-0.067,0.489-0.238,0.624-0.475c0.085-0.15,2.097-3.747,2.131-9.872C46.029,32.338,43.882,29.506,43.791,29.388z"/><path d="M32.784,43.996C33.553,42.524,34,40.821,34,39c0-5.514-4.037-10-9-10s-9,4.486-9,10c0,1.82,0.447,3.522,1.214,4.994C19.561,43.414,22.199,43,25,43C27.798,43,30.436,43.415,32.784,43.996z"/></svg>