<?xml version="1.0" encoding="utf-8"?><!-- Generator: Adobe Illustrator 15.0.0, SVG Export Plug-In . SVG Version: 6.00 Build 0)  --><!DOCTYPE svg PUBLIC "-//W3C//DTD SVG 1.1//EN" "http://www.w3.org/Graphics/SVG/1.1/DTD/svg11.dtd"><svg xmlns="http://www.w3.org/2000/svg" xmlns:xlink="http://www.w3.org/1999/xlink" viewBox="0 0 50 50" width="50px" height="50px"><path d="M39.68,26.96c-0.347,0-0.672-0.181-0.854-0.479c-0.064-0.107-1.605-2.645-2.59-4.459c-0.91-1.68-5.127-6.346-6.827-7.823c-1.761-1.53-4.436-4.063-4.549-4.169c-0.246-0.233-0.357-0.574-0.296-0.907c0.046-0.252,0.392-1.642,2.633-4.207c2.128-2.437,3.113-2.937,3.438-3.039c0.333-0.103,0.694-0.028,0.956,0.2l5.569,4.847c1.896,1.665,4.492,3.944,6.271,5.233c2.104,1.526,5.907,3.08,5.945,3.095c0.398,0.162,0.648,0.559,0.622,0.988c-0.008,0.125-0.231,3.118-3.892,6.757c-3.574,3.556-6.045,3.927-6.314,3.957C39.755,26.958,39.717,26.96,39.68,26.96z"/><path d="M36.824,7.402c1.002,0.879,2.199,1.93,3.363,2.911l1.944-2.305c0.317-0.381,0.308-0.938-0.024-1.308c-0.045-0.051-1.148-1.277-3.271-3.121c-2.164-1.88-3.313-2.486-3.36-2.511c-0.414-0.213-0.92-0.115-1.223,0.239l-1.889,2.213L36.824,7.402z"/><path d="M28.096,15.706c-1.144-0.994-2.635-2.374-3.606-3.282c-0.569,0.67-0.88,1.545-1.268,2.651c-0.706,2.011-1.771,5.049-5.324,9.117c-0.939,1.076-2.288,2.085-3.849,3.253c-2.181,1.631-4.652,3.479-7.066,6.244c-4.721,5.406-6.614,9.679-6.863,10.524c-0.337,1.144,0.703,2.769,2.588,4.044c2.239,1.512,4.945,1.564,5.059,1.566c0.004,0,0.009,0,0.013,0c0.029,0,0.058-0.001,0.086-0.004c0.126-0.012,0.785-0.094,1.339-0.625c0.115-0.109,1.127-1.098,1.301-1.938c0.016-0.076,0.031-0.244,0.042-0.49c0.043-1.06,0.177-4.279,2.656-7.119c1.582-1.812,3.897-3.533,6.348-5.356c2.166-1.61,4.406-3.276,6.174-5.065c2.301-2.324,5.28-5.901,7.229-8.307C31.422,19.065,29.206,16.67,28.096,15.706z"/></svg>