<?xml version="1.0" encoding="iso-8859-1"?><!-- Generator: Adobe Illustrator 19.1.1, SVG Export Plug-In . SVG Version: 6.00 Build 0)  --><svg xmlns="http://www.w3.org/2000/svg" xmlns:xlink="http://www.w3.org/1999/xlink" viewBox="0 0 50 50" width="50px" height="50px"><g><path d="M24.355,21.591l24.8-1.709l-13.574-9.696C35.412,10.065,35.208,10,35,10H11.543L24.355,21.591z"/><path d="M23,23.062L9.625,10.961l-9.332,9.332C0.105,20.48,0,20.734,0,21v14c0,0.471,0.328,0.877,0.788,0.978L23,40.806V23.062z"/><path d="M25,23.552v17.335l7.12-0.829c0.502-0.061,0.88-0.487,0.88-0.993V27.818L42,27v9.905c0,0.29,0.126,0.565,0.345,0.756c0.219,0.189,0.507,0.274,0.797,0.234l6-0.905C49.634,36.92,50,36.498,50,36V21.83L25,23.552z"/></g></svg>