<?xml version="1.0" encoding="iso-8859-1"?><!-- Generator: Adobe Illustrator 19.2.1, SVG Export Plug-In . SVG Version: 6.00 Build 0)  --><svg xmlns="http://www.w3.org/2000/svg" xmlns:xlink="http://www.w3.org/1999/xlink" viewBox="0 0 50 50" width="50px" height="50px"><circle cx="36" cy="7" r="5"/><path d="M34.929,29.206l6.925,15.978c0.582,1.328-0.391,2.816-1.841,2.816h0c-0.715,0-1.376-0.38-1.736-0.997l-9.254-16.244c-0.894-1.534-1.207-3.338-0.881-5.083l1.159-6.205L23.28,28.19c-0.548,0.854-1.7,1.072-2.523,0.478l0,0c-0.754-0.544-0.957-1.579-0.465-2.368l7.741-11.822C28.636,13.556,29.664,13,30.767,13h1.404c3.027,0,5.307,2.753,4.744,5.727L34.929,29.206z"/><path d="M27.544,30.769l-1.722,5.943l-5.52,8.428c-0.522,0.797-0.353,1.86,0.391,2.455h0c0.816,0.652,2.01,0.5,2.635-0.337l5.824-7.796l1.458-3.266L27.544,30.769z"/><path d="M23.157,25.468c-0.455-0.312-1.077-0.201-1.392,0.255l-4.205,6.092l-3.293-2.29c-1.298-0.9-3.088-0.581-3.993,0.717l-5.641,8.11c-0.537,0.773-0.741,1.709-0.575,2.636c0.155,0.863,0.624,1.612,1.311,2.147C6.111,41.3,7.903,40,10,40c1.317,0,2.508,0.522,3.402,1.357l10.009-14.498C23.725,26.405,23.611,25.782,23.157,25.468z"/><path d="M10,42c-1.654,0-3,1.346-3,3s1.346,3,3,3s3-1.346,3-3S11.654,42,10,42z"/><path d="M44.412,27.098l-5.734-4.805l-0.92-2.641l-1.028,5.425l5.59,4.554c0.695,0.567,1.717,0.471,2.295-0.216C45.199,28.72,45.109,27.681,44.412,27.098z"/></svg>