<?xml version="1.0" encoding="iso-8859-1"?>
<!-- Generator: Adobe Illustrator 25.2.3, SVG Export Plug-In . SVG Version: 6.00 Build 0)  -->
<svg version="1.1" baseProfile="basic" xmlns="http://www.w3.org/2000/svg" xmlns:xlink="http://www.w3.org/1999/xlink" x="0px"
	 y="0px" viewBox="0 0 50 50" xml:space="preserve">
<path d="M7,9c-2.75,0-5,2.25-5,5v22c0,2.75,2.25,5,5,5h36c2.75,0,5-2.25,5-5V14c0-2.75-2.25-5-5-5H7z M21.906,20.438
	c-0.242,0.5-0.844,0.711-1.344,0.469L15,18.125l-5.562,2.781c-0.5,0.242-1.102,0.031-1.344-0.469s-0.031-1.102,0.469-1.344l6-3
	c0.098-0.047,0.203-0.078,0.312-0.094c0.191-0.023,0.387,0.008,0.562,0.094l6,3C21.938,19.336,22.148,19.938,21.906,20.438z
	 M25.859,19.141c-0.078-0.551,0.309-1.062,0.859-1.141c0.031,0,0.062,0,0.094,0s0.062,0,0.094,0s0.062,0,0.094,0h14
	c0.359-0.004,0.695,0.184,0.879,0.496c0.18,0.312,0.18,0.695,0,1.008c-0.184,0.312-0.52,0.5-0.879,0.496H27
	C26.449,20.078,25.938,19.691,25.859,19.141z M25.859,23.141c-0.078-0.551,0.309-1.062,0.859-1.141c0.031,0,0.062,0,0.094,0
	s0.062,0,0.094,0s0.062,0,0.094,0h11c0.359-0.004,0.695,0.184,0.879,0.496c0.18,0.312,0.18,0.695,0,1.008
	c-0.184,0.312-0.52,0.5-0.879,0.496H27C26.449,24.078,25.938,23.691,25.859,23.141z M41.879,26.496c0.18,0.312,0.18,0.695,0,1.008
	c-0.184,0.312-0.52,0.5-0.879,0.496H27c-0.551,0.078-1.062-0.309-1.141-0.859s0.309-1.062,0.859-1.141c0.031,0,0.062,0,0.094,0
	s0.062,0,0.094,0s0.062,0,0.094,0h14C41.359,25.996,41.695,26.184,41.879,26.496z M38.879,30.496c0.18,0.312,0.18,0.695,0,1.008
	c-0.184,0.312-0.52,0.5-0.879,0.496H27c-0.551,0.078-1.062-0.309-1.141-0.859s0.309-1.062,0.859-1.141c0.031,0,0.062,0,0.094,0
	s0.062,0,0.094,0s0.062,0,0.094,0h11C38.359,29.996,38.695,30.184,38.879,30.496z M22,26v5c0,1.103-0.897,2-2,2H10
	c-1.103,0-2-0.897-2-2v-5c0-1.103,0.897-2,2-2h2.5v-1c0-0.552,0.448-1,1-1h3c0.552,0,1,0.448,1,1v1H20C21.103,24,22,24.897,22,26z"
	/>
</svg>