<?xml version="1.0" encoding="iso-8859-1"?><!-- Generator: Adobe Illustrator 21.0.2, SVG Export Plug-In . SVG Version: 6.00 Build 0)  --><svg xmlns="http://www.w3.org/2000/svg" xmlns:xlink="http://www.w3.org/1999/xlink" viewBox="0 0 50 50" width="50px" height="50px"><polyline style="fill:none;stroke:#000000;stroke-width:2;stroke-miterlimit:10;" points="25,22 25,24 26,25 "/><polygon points="27.706,2.9 25.827,2.634 25,1 24.173,2.634 22.294,2.9 23.655,4.192 23.337,6 25,5.148 26.663,6 26.345,4.192 "/><polygon points="45.072,33.932 43,32.973 41,33.898 39,32.973 37.017,33.89 37,33.882 37,48 48,48 48,33.034 "/><polygon points="13,33.882 12.983,33.89 11,32.973 9,33.898 7,32.973 4.928,33.932 2,33.034 2,48 13,48 "/><polygon points="21,14.205 23,13.205 25,14.205 27,13.205 29,14.205 29.346,14.031 25,4.614 20.654,14.031 "/><path d="M31.197,14.783L29,15.882l-2-1l-2,1l-2-1l-2,1l-2.197-1.099L17,16.586V30h16V16.586L31.197,14.783z M25,28c-2.209,0-4-1.791-4-4c0-2.209,1.791-4,4-4s4,1.791,4,4C29,26.209,27.209,28,25,28z"/><path d="M15,32v16h6v-6c0-2.209,1.791-4,4-4s4,1.791,4,4v6h6V32H15z"/></svg>