<?xml version="1.0" encoding="iso-8859-1"?>
<!-- Generator: Adobe Illustrator 24.0.2, SVG Export Plug-In . SVG Version: 6.00 Build 0)  -->
<svg version="1.1" id="Layer_1" xmlns="http://www.w3.org/2000/svg" xmlns:xlink="http://www.w3.org/1999/xlink" x="0px" y="0px"
	 viewBox="0 0 50 50" style="enable-background:new 0 0 50 50;" xml:space="preserve">
<rect x="1" y="30" width="2" height="2"/>
<rect x="1" y="34" width="2" height="2"/>
<rect x="1" y="38" width="2" height="2"/>
<rect x="1" y="42" width="2" height="2"/>
<rect x="5" y="42" width="2" height="2"/>
<rect x="9" y="42" width="2" height="2"/>
<rect x="13" y="42" width="2" height="2"/>
<rect x="17" y="42" width="2" height="2"/>
<rect x="21" y="42" width="2" height="2"/>
<rect x="25" y="42" width="2" height="2"/>
<rect x="29" y="42" width="2" height="2"/>
<rect x="33" y="42" width="2" height="2"/>
<rect x="37" y="42" width="2" height="2"/>
<rect x="5" y="30" width="2" height="2"/>
<rect x="9" y="30" width="2" height="2"/>
<g>
	<path d="M5.748,22.323l0.402,3.65c0.042,0.377,0.292,0.697,0.647,0.829L41.453,39.61c0.113,0.041,0.23,0.062,0.347,0.062
		c0.25,0,0.495-0.094,0.684-0.271l2.679-2.511L5.748,22.323z"/>
	<path d="M27.26,9.911c0.286,1.736,0.557,3.376,0.119,4.56l-2.058,5.58c-0.063,0.15-0.078,0.25-0.013,0.404
		c0.245,0.568,1.295,1.277,2.612,1.764c0.016,0.006,0.026,0.019,0.042,0.026c1.913,0.742,3.995,0.726,4.223,0.167l2.189-5.937
		c0.465-1.183,1.612-2.153,2.722-3.091c0.507-0.429,1.02-0.865,1.429-1.288c0.396-0.551,0.738-1.104,0.94-1.651
		c0.697-1.886,0.702-3.655,0.014-5.115c-0.677-1.434-2.01-2.552-3.856-3.234c-1.849-0.683-3.587-0.701-5.035-0.051
		c-1.472,0.661-2.619,2.008-3.315,3.895c-0.192,0.518-0.278,1.131-0.312,1.785C27.013,8.399,27.139,9.18,27.26,9.911z"/>
	<path d="M49.404,20.898l-12.515-4.625c-0.297,0.317-0.531,0.625-0.645,0.913l-2.194,5.949c-0.509,1.248-1.808,1.685-3.248,1.685
		c-1.232,0-2.568-0.32-3.6-0.725c-0.017-0.007-0.027-0.021-0.043-0.028c-1.133-0.426-3.048-1.339-3.687-2.822
		c-0.273-0.637-0.276-1.305-0.009-1.933l2.039-5.534c0.138-0.374,0.126-0.993,0.052-1.694L12.925,7.417
		c-0.494-0.181-1.044,0.049-1.259,0.529L6.117,20.327l40.064,14.805l3.836-13.014C50.166,21.614,49.897,21.081,49.404,20.898z"/>
</g>
</svg>