<?xml version="1.0" encoding="iso-8859-1"?><!-- Generator: Adobe Illustrator 20.1.0, SVG Export Plug-In . SVG Version: 6.00 Build 0)  --><svg xmlns="http://www.w3.org/2000/svg" xmlns:xlink="http://www.w3.org/1999/xlink" viewBox="0 0 50 50" width="50px" height="50px"><path d="M26.73,2c-5.258-0.352-10.026,3.075-11.37,8.17c-0.25,0.914-0.054,1.893,0.53,2.64c0.562,0.743,1.438,1.183,2.37,1.19c1.372-0.004,2.566-0.939,2.9-2.27c0.683-2.598,3.297-4.193,5.92-3.61c1.898,0.42,3.38,1.902,3.8,3.8c0.325,1.492-0.043,3.05-1,4.24C28.929,17.326,27.504,18.002,26,18h-6c-2.761,0-5,2.239-5,5v20c0,2.761,2.239,5,5,5h12c2.761,0,5-2.239,5-5V13.34C37.094,7.446,32.604,2.489,26.73,2z M30.73,30.1c-0.386,0.395-1.019,0.402-1.414,0.016c-0.005-0.005-0.011-0.011-0.016-0.016L27,27.84V41c0,0.552-0.448,1-1,1s-1-0.448-1-1V27.84l-2.25,2.28c-0.343,0.433-0.972,0.507-1.405,0.164c-0.313-0.248-0.449-0.658-0.345-1.044c0.036-0.214,0.142-0.411,0.3-0.56L26,24l4.71,4.69c0.395,0.386,0.402,1.019,0.016,1.414c-0.009,0.009-0.017,0.017-0.026,0.026L30.73,30.1z"/></svg>