<?xml version="1.0" encoding="utf-8"?><!-- Generator: Adobe Illustrator 15.0.0, SVG Export Plug-In . SVG Version: 6.00 Build 0)  --><!DOCTYPE svg PUBLIC "-//W3C//DTD SVG 1.1//EN" "http://www.w3.org/Graphics/SVG/1.1/DTD/svg11.dtd"><svg xmlns="http://www.w3.org/2000/svg" xmlns:xlink="http://www.w3.org/1999/xlink" viewBox="0 0 50 50" width="50px" height="50px"><path d="M49,50H1c-0.552,0-1-0.447-1-1v-4c0-0.553,0.448-1,1-1h48c0.553,0,1,0.447,1,1v4C50,49.553,49.553,50,49,50z"/><path d="M38.8,26c-0.3,0.2-0.5,0.4-0.8-0.2c-0.3-0.6-0.4-3.8-5.5-5.4c0,0-4.4-1.8-6.8-5.7c0.6,0.3,1.3,1.6,2.1,1.6c-0.3-1.4,0.601-0.3,1.3-0.4C28.9,15.2,28.6,14,27.9,13.7c0.398-0.1,0.8,0,1.3,0.2c-0.101-0.7-0.9-1.8-1.7-1.9c0.3-0.1,0.6-0.5,0.9-0.6c-0.5-0.3-1.301-0.9-2.9-1.2c0-0.5,1.2,0.3,2.6-1.3c-0.898,0.1-2.5-1.3-3-1.5c-0.2-0.9,1.1-0.8,2-0.7c-0.8-1-2.5-1.8-4.1-2.3c-0.3-0.1,0.5-0.3,1.2-0.7c-0.9-0.3-2.6-0.1-2.9-0.5c0.6-0.3,1.1-0.8,1.3-1.3c-0.8,0.1-3.5-0.4-4.2-0.4c-0.5,0-1.1,0.2-1.5,0.4c-0.2,0-0.6-0.7-0.9-0.9c-0.3,0.3-0.5,1.2-0.2,2c-2.2,0.1-1.9,1-2.4,1.5C10.9,6.8,9,7,8.6,8C8.5,8.3,8.5,8.8,8.5,9.1c0.1,1.1,1.1,1.4,2.2,1.6c0.5,0.1,0.5-0.8,1.1-1c1.713-0.514,3.586,0.369,4.899,0.146v0.002C17.686,9.682,18.357,8.89,18.4,6.4c0-0.276,0.224-0.5,0.5-0.5s0.5,0.224,0.5,0.5c0,0.004-0.002,0.007-0.002,0.011c0,0.002,0.002,0.003,0.002,0.006c-0.03,1.734-0.337,3.978-2.442,4.396c0.342,1.613,0.221,3.722-0.409,5.182c-1.234-0.018-5.675-0.067-6.449,0.105c-0.2,0-0.6,0.5-1,0.7c-2,1.2-4,1.9-4.2,2c-0.1,0.1-0.4,0.7-0.5,0.8C3.1,20.1,2,21,2,21s0.9,0.6,1.6,0.9c0.8,0.3,1.6,0.3,1.6,0.3s1-1,1.2-1.2c0.2-0.2,0.6-0.2,0.8-0.5c0.2-0.2,0.2-0.4,0.4-0.7c0.2-0.3,1.1-0.4,1.9-1.2c0.3-0.3,0.6-0.5,0.8-0.4c0.244,0.163,2.801,0.328,3.747,0.384c-1.539,1.402-2.305,2.046-2.447,2.117c-0.2,0.1-1.3,0.6-1.3,1.2s0.1,1,0.6,1.7c0.5,0.7,1.7,2.5,2.9,4c0.2,0.301,0.5,0.5,0.8,0.5c0.2,0,0.5,0.101,0.7,0.199c0.1,0.102,0.3,0.4,0.3,0.5l1.9,0.9c0,0,0.5-0.301,0.6-1.102c0.1-0.8-0.1-1.3-0.1-1.3s-0.6-0.399-0.8-0.6C17,26.6,16.5,26.8,16.4,26.6c-0.1-0.199-0.2-0.8-0.5-1c-0.3-0.2-1.4-0.398-1.7-0.8c-0.2-0.3-1.2-2-1-2c2-0.1,4.1-0.9,4.1-0.9s2.666,4.942,7.896,7.032c0.529-1.092,1.479-2.269,3.07-3.275c0.1-0.063,0.207-0.1,0.317-0.125c0.048-0.016,0.099-0.031,0.151-0.031c0.01,0,0.018,0.005,0.027,0.005c0.012,0,0.024-0.005,0.037-0.005c0.012,0,0.016,0.014,0.023,0.018c0.232,0.043,0.41,0.237,0.41,0.482c0,0.252-0.188,0.452-0.432,0.486C28.802,26.489,28.8,26.5,28.8,26.5c-1.46,0.925-2.269,1.963-2.702,2.87c-0.102,0.212-0.186,0.417-0.248,0.61c-0.006,0.015-0.013,0.029-0.017,0.045c-0.067,0.214-0.112,0.412-0.142,0.596c-0.004,0.029-0.004,0.054-0.008,0.081c-0.043,0.345-0.031,0.626,0.018,0.798c0.124,0.437,0.211,0.679,0.597,1.115c-0.011,0.079-0.17,1.343,0.702,3.086c0.6,1.199,0.4,2.699-0.3,3.199c-0.7,0.601-3.2,2.801-3.3,3s-0.2,0.399-0.2,0.5s-0.4,0.601-0.5,0.601c-1.4,0.101-1.5,1.601-1.5,1.601s1.5,0.301,2.4,0.301c1,0,1.4-0.102,1.4-0.102s-0.2-1.1,0-1.199c0.1-0.101,0.7,0.199,1,0.301c0.2,0,0.5,0,0.5-0.5c0.1-0.5,0.2-1,0.4-1.301c0.3-0.301,0.699-1,1.398-1.5c0.7-0.5,1.2-1,1.301-1.199c0.094-0.186,0.014-3.468,0.002-3.939c1.761,1.282,3.369,2.256,3.299,2.537c-0.5,1.7-2,2.9-2.101,3.6c0,0.301,0.3,0.4,0.101,0.801C30.7,42.8,30.6,43.1,30.4,43.3c-0.2,0.2-0.7,0.5-0.801,0.7S29.2,44.9,29.2,44.9s0.6,0.199,2.3,0.199s1.7-0.5,1.7-0.801c0-0.3-0.2-1.199-0.2-1.199s0.7,0,0.9-0.1c0.199-0.2,0.398-0.4,0.398-0.6c0-0.2-0.1-0.9,0-1.2c0-0.9,1.2-3.2,1.4-3.9c0.1-0.2-1.5-2.2-1.9-2.7c-0.398-0.5-1-1.6-0.898-1.8c0.199-0.5,3.898-0.6,5.1-4.7c0.2-0.3,0.4-0.398,0.6-0.5C42.9,26.6,41.2,33.2,44.2,36.9C44.1,36.5,44.1,36,44.1,36c0.4,1.8,1,2.3,1,2.3s0.102-0.5,0.102-1.1c0.1,1.3,0.3,2.2,0.398,2.1c0.2-0.2,1.2-1.399,1.2-4.5C46.8,26.5,43.8,23.7,38.8,26z"/></svg>