<?xml version="1.0" encoding="utf-8"?><!-- Generator: Adobe Illustrator 15.0.0, SVG Export Plug-In . SVG Version: 6.00 Build 0)  --><!DOCTYPE svg PUBLIC "-//W3C//DTD SVG 1.1//EN" "http://www.w3.org/Graphics/SVG/1.1/DTD/svg11.dtd"><svg xmlns="http://www.w3.org/2000/svg" xmlns:xlink="http://www.w3.org/1999/xlink" viewBox="0 0 50 50" width="50px" height="50px"><path d="M28.208,1.472l-0.245-0.086c-1.741-0.617-3.908-1.384-9.031-1.384c-3.405,0-6.677,0.508-9.462,1.469C8.128,1.934,7.882,3.133,8.042,3.906c0.103,1.859,1.767,31.834,1.767,33.6c0,2.988,3.084,3.492,9.998,3.492c5.239,0,8.42-0.234,8.42-3.492c0-1.792,1.293-25.278,1.763-33.629C30.062,2.639,29.546,1.942,28.208,1.472z M16,34c-1.104,0-2-0.896-2-2s0.896-2,2-2s2,0.896,2,2S17.104,34,16,34z M16,26c-1.104,0-2-0.896-2-2s0.896-2,2-2s2,0.896,2,2S17.104,26,16,26z M16,18c-1.104,0-2-0.896-2-2s0.896-2,2-2s2,0.896,2,2S17.104,18,16,18z M16,10c-1.104,0-2-0.896-2-2s0.896-2,2-2s2,0.896,2,2S17.104,10,16,10z"/><path d="M20.888,42.994C20.673,44.723,20.12,46,18.972,46c-1.336,0-1.789-1.629-1.931-3.028c-1.231-0.031-2.443-0.104-3.564-0.274C14.032,48.4,16.842,50,18.972,50c4.234,0,5.592-4.113,5.93-7.258C23.617,42.939,22.23,42.985,20.888,42.994z"/><path d="M43.208,1.472l-0.245-0.086c-1.741-0.617-3.908-1.384-9.031-1.384c-1.298,0-2.561,0.077-3.788,0.219c1.591,1.044,1.913,2.564,1.843,3.769c-0.039,0.699-0.081,1.439-0.124,2.213C32.533,6.525,33,7.206,33,8c0,0.873-0.563,1.607-1.342,1.88c-0.075,1.345-0.151,2.744-0.229,4.168C32.326,14.245,33,15.043,33,16c0,1.031-0.783,1.871-1.786,1.979c-0.073,1.352-0.146,2.7-0.218,4.022c0.002,0,0.003,0,0.004,0c1.104,0,2,0.896,2,2s-0.896,2-2,2c-0.074,0-0.144-0.014-0.216-0.021c-0.076,1.439-0.147,2.811-0.213,4.07C30.71,30.019,30.853,30,31,30c1.104,0,2,0.896,2,2s-0.896,2-2,2c-0.219,0-0.425-0.044-0.622-0.108c-0.095,1.947-0.151,3.263-0.151,3.614c0,1.424-0.395,2.473-1.051,3.254c1.37,0.166,3.183,0.238,5.631,0.238c5.239,0,8.42-0.234,8.42-3.492c0-1.982,1.49-28.782,1.765-33.63C45.062,2.638,44.545,1.941,43.208,1.472z"/><path d="M35.888,42.994C35.674,44.723,35.12,46,33.973,46c-1.341,0-1.792-1.64-1.933-3.042c-1.232-0.039-2.251-0.109-3.104-0.213l-0.459-0.056C29.029,48.398,31.84,50,33.973,50c4.233,0,5.592-4.113,5.93-7.258C38.617,42.939,37.23,42.985,35.888,42.994z"/></svg>