<?xml version="1.0" encoding="iso-8859-1"?><!-- Generator: Adobe Illustrator 23.0.1, SVG Export Plug-In . SVG Version: 6.00 Build 0)  --><svg xmlns="http://www.w3.org/2000/svg" xmlns:xlink="http://www.w3.org/1999/xlink" viewBox="0 0 50 50" width="50px" height="50px"><path d="M12,39h32V2H12C8.691,2,6,4.691,6,8v34.417C6,45.495,8.691,48,12,48h32v-2H12c-2.168,0-4-1.641-4-3.583C8,40.501,9.757,39,12,39z M15.06,23.906l1.068-1.058c0.354-0.346,0.375-0.316,0.596-0.241c0.458,0.154,3.275,0.591,3.275,0.591l4.178-4.178c0,0-7.568-3.593-7.957-3.774c-0.301-0.14-0.253-0.318-0.093-0.452c0.141-0.118,1.235-1.308,1.582-1.583c0.284-0.226,0.49-0.177,0.656-0.158c0.166,0.019,9.64,2.14,9.64,2.14l3.29-3.298c1.365-1.365,2.928-0.783,3.287-0.424c0.359,0.359,0.906,1.887-0.459,3.252l-3.29,3.298c0,0,2.341,9.482,2.359,9.649c0.019,0.166,0.067,0.373-0.158,0.656c-0.276,0.346-1.465,1.441-1.583,1.582c-0.134,0.161-0.313,0.208-0.452-0.093c-0.182-0.391-3.994-7.966-3.994-7.966l-4.178,4.178c0,0,0.459,2.839,0.613,3.297c0.075,0.221,0.105,0.243-0.241,0.596l-1.068,1.058c-0.045,0.045-0.142,0.107-0.232-0.028c-0.139-0.209-2.007-4.827-2.007-4.827s-4.596-1.846-4.805-1.985C14.953,24.048,15.015,23.951,15.06,23.906z"/></svg>