<?xml version="1.0" encoding="iso-8859-1"?>
<!-- Generator: Adobe Illustrator 24.0.0, SVG Export Plug-In . SVG Version: 6.00 Build 0)  -->
<svg version="1.1" id="Layer_1" xmlns="http://www.w3.org/2000/svg" xmlns:xlink="http://www.w3.org/1999/xlink" x="0px" y="0px"
	 viewBox="0 0 50 50" style="enable-background:new 0 0 50 50;" xml:space="preserve">
<path d="M19.93,35.88L19.11,40h0.39c0.66-0.01,1.25,0.25,1.72,0.71c0.49,0.47,0.77,1.12,0.78,1.78c0.02,1.34-1.12,2.49-2.49,2.51
	H14.5c-0.28,0-0.5-0.22-0.5-0.5v-8.59c0.95-0.36,1.83-0.98,2.56-1.97l6.84-0.46C22.77,34.65,21.62,35.29,19.93,35.88z"/>
<path d="M47.5,32.99l-0.01,3.04c0,0.04-0.01,0.09-0.02,0.13c-0.04,0.62-0.3,1.19-0.75,1.63c-0.47,0.46-1.09,0.71-1.75,0.71h-0.03
	c-0.67-0.01-1.29-0.28-1.76-0.76c-0.46-0.48-0.72-1.11-0.71-1.77l0.03-1.64l-5.07-2.08c1.3-1.38,2.78-3.29,3.7-5.54l4.32,2.96
	C46.72,30.3,47.5,31.57,47.5,32.99z"/>
<path d="M31.75,14.02l9.66,5.79L40,22.62c-0.06,3.89-3.1,7.75-6.01,10.13l-0.43,7.26c0.62,0,1.21,0.25,1.66,0.7
	c0.49,0.47,0.77,1.12,0.78,1.78c0.02,1.34-1.12,2.49-2.49,2.51H28.5c-0.07,0-0.14-0.02-0.21-0.05h-0.01
	c-0.01-0.01-0.01-0.02-0.02-0.02c-0.06-0.04-0.12-0.08-0.16-0.14c-0.01-0.02-0.02-0.03-0.03-0.05C28.03,44.67,28,44.59,28,44.5
	V31.03L15.53,32c-0.04,0-0.08,0-0.12-0.01c-1.03,2.01-2.54,2.47-4.99,2.52l-2.06,3.66l0.37,0.12c0.59,0.19,1.11,0.63,1.42,1.21
	c0.32,0.6,0.38,1.31,0.19,1.94c-0.4,1.28-1.84,2.02-3.15,1.61L2.43,41.5c-0.13-0.04-0.23-0.13-0.29-0.25s-0.07-0.26-0.03-0.39
	L6,29.42c0-2.89,0.02-5.87,1.86-8.85c-2.43-2.42-4.26-5.79-4.78-6.8c-0.64-1.28-0.04-3.09,1.19-3.72c1.23-0.61,3.05,0,3.68,1.22
	c0.1,0.2,0.86,1.55,1.94,2.92c0.81,1.03,2.59,2.93,3.76,3.8c0.92-0.08,2.32-0.29,15.61-0.98L31.75,14.02z"/>
<path d="M48.97,10.66l-2,6C46.91,16.86,46.72,17,46.5,17h-3.69l-0.51,1.02l-9.25-5.56l0.77-0.93l-0.67-0.68
	c-1.54-2.02-1.14-4.57,1-6.7c0.16-0.17,0.41-0.2,0.61-0.08L39.64,7h1.86c0.13,0,0.26,0.05,0.35,0.15L44.71,10h3.79
	c0.16,0,0.31,0.08,0.41,0.21C49,10.34,49.03,10.51,48.97,10.66z"/>
<path d="M33.04,12.46l-1.29,1.56h-0.01c-8.65-0.1-19.51-4.38-24.55-11.44C6.87,2.13,6.97,1.51,7.42,1.19
	c0.45-0.33,1.07-0.22,1.39,0.23C13.48,7.95,25.04,12.46,33.04,12.46z"/>
</svg>