<?xml version="1.0" encoding="utf-8"?><!-- Generator: Adobe Illustrator 15.0.0, SVG Export Plug-In . SVG Version: 6.00 Build 0)  --><!DOCTYPE svg PUBLIC "-//W3C//DTD SVG 1.1//EN" "http://www.w3.org/Graphics/SVG/1.1/DTD/svg11.dtd"><svg xmlns="http://www.w3.org/2000/svg" xmlns:xlink="http://www.w3.org/1999/xlink" viewBox="0 0 50 50" width="50px" height="50px"><path d="M49,14c-1.654,0-3-1.346-3-3c0-0.552-0.447-1-1-1H5c-0.552,0-1,0.448-1,1c0,1.654-1.346,3-3,3c-0.552,0-1,0.448-1,1v20c0,0.553,0.448,1,1,1c1.654,0,3,1.346,3,3c0,0.553,0.448,1,1,1h40c0.553,0,1-0.447,1-1c0-1.654,1.346-3,3-3c0.553,0,1-0.447,1-1V15C50,14.448,49.553,14,49,14z M38,39h-2v-4h2V39z M38,33h-2v-4h2V33z M38,27h-2v-4h2V27z M38,21h-2v-4h2V21z M38,15h-2v-4h2V15z"/></svg>