<?xml version="1.0" encoding="iso-8859-1"?><!-- Generator: Adobe Illustrator 19.1.1, SVG Export Plug-In . SVG Version: 6.00 Build 0)  --><svg xmlns="http://www.w3.org/2000/svg" xmlns:xlink="http://www.w3.org/1999/xlink" viewBox="0 0 50 50" width="50px" height="50px"><g><path d="M15.741,24h18.519c-4.381-4.141-7.987-9.631-9.259-12.916C23.728,14.369,20.121,19.859,15.741,24z"/><path d="M25.816,7.443c0.041,0.06,0.07,0.123,0.097,0.19c0.015,0.036,0.041,0.063,0.051,0.101c0.03,0.107,4.006,10.583,11.295,16.204l10.58-2.068C31.206,15.637,25.922,7.586,25.847,7.468c-0.008-0.013-0.025-0.017-0.034-0.03C25.814,7.439,25.815,7.441,25.816,7.443z"/><path d="M12.741,23.938C20.045,18.307,24.006,7.84,24.036,7.733c0.011-0.039,0.038-0.067,0.053-0.104c0.026-0.065,0.054-0.125,0.093-0.183c0.001-0.002,0.002-0.004,0.003-0.006c-0.009,0.012-0.024,0.016-0.032,0.029c-0.051,0.081-5.24,8.124-21.992,14.4L12.741,23.938z"/><path d="M12,25.837L1,23.694V38c0,0.459,0.312,0.858,0.758,0.97L12,41.78L12,25.837z"/><path d="M38,25.837l0.001,15.943l10.241-2.81C48.687,38.858,49,38.459,49,38V23.694L38,25.837z"/><path d="M36,26H14l0.001,16h5c0.266,0,0.52-0.105,0.707-0.293S20,41.266,20,41v-9h10l0.001,9c0,0.553,0.447,1,1,1H36V26z"/></g></svg>