<?xml version="1.0" encoding="utf-8"?><!-- Generator: Adobe Illustrator 15.0.0, SVG Export Plug-In . SVG Version: 6.00 Build 0)  --><!DOCTYPE svg PUBLIC "-//W3C//DTD SVG 1.1//EN" "http://www.w3.org/Graphics/SVG/1.1/DTD/svg11.dtd"><svg xmlns="http://www.w3.org/2000/svg" xmlns:xlink="http://www.w3.org/1999/xlink" viewBox="0 0 50 50" width="50px" height="50px"><polygon points="24.6,0 24.178,4.218 25.822,4.215 25.4,0 "/><path d="M36.143,37H13.857l-6.72,11.495c-0.181,0.31-0.183,0.69-0.004,1.003C7.311,49.809,7.642,50,8,50h8c0.529,0,0.967-0.414,0.999-0.941C17.018,48.729,17.566,41,25,41c7.436,0,7.982,7.729,8.002,8.057C33.031,49.585,33.471,50,34,50h8c0.357,0,0.689-0.191,0.867-0.502c0.179-0.313,0.177-0.693-0.004-1.003L36.143,37z"/><path d="M29,10h-8c-0.552,0-1-0.448-1-1V7c0-0.552,0.448-1,1-1h8c0.553,0,1,0.448,1,1v2C30,9.552,29.553,10,29,10z"/><path d="M17.544,29h14.912l0.813-2.71c0.092-0.306,0.032-0.638-0.158-0.894C32.922,25.14,32.619,25,32.3,25H17.7c-0.32,0-0.621,0.14-0.812,0.396c-0.191,0.256-0.25,0.588-0.157,0.895L17.544,29z"/><path d="M23,5h4h2V4c0-0.552-0.447-1-1-1h-6c-0.552,0-1,0.448-1,1v1H23z"/><path d="M30.52,23c-0.748-2.942-1.422-6.512-1.935-11h-7.117c-0.512,4.488-1.186,8.058-1.935,11H30.52z"/><path d="M16.705,31c-0.329,0.748-0.708,1.603-0.892,2.008c-0.316,0.697-0.604,1.352-0.875,1.992h6.468l1.306-4H16.705z"/><path d="M33.316,31h-6.06l1.306,4h6.5c-0.27-0.639-0.558-1.289-0.871-1.982C34.007,32.61,33.638,31.751,33.316,31z"/></svg>