<?xml version="1.0" encoding="iso-8859-1"?><!-- Generator: Adobe Illustrator 21.1.0, SVG Export Plug-In . SVG Version: 6.00 Build 0)  --><svg xmlns="http://www.w3.org/2000/svg" xmlns:xlink="http://www.w3.org/1999/xlink" viewBox="0 0 50 50" width="50px" height="50px"><circle style="fill:none;stroke:#000000;stroke-width:2;stroke-linecap:round;stroke-linejoin:round;stroke-miterlimit:10;" cx="25" cy="25" r="22"/><path style="fill:none;stroke:#000000;stroke-width:2;stroke-linecap:round;stroke-linejoin:round;stroke-miterlimit:10;" d="M25.948,19.673C17.446,20.379,9.05,25.092,4.008,31.6"/><path style="fill:none;stroke:#000000;stroke-width:2;stroke-linecap:round;stroke-linejoin:round;stroke-miterlimit:10;" d="M16.292,45.167c4.198-4.738,10.882-15.469,11.476-21.186"/><path style="fill:none;stroke:#000000;stroke-width:2;stroke-linecap:round;stroke-linejoin:round;stroke-miterlimit:10;" d="M30.106,24.203c3.564,4.01,6.902,14.547,7.36,18.947"/><path style="fill:none;stroke:#000000;stroke-width:2;stroke-linecap:round;stroke-linejoin:round;stroke-miterlimit:10;" d="M46.542,29.492c0-0.092,0-0.092-0.092-0.183c-4.033-8.433-14.667-9.9-14.667-9.9"/><path style="fill:none;stroke:#000000;stroke-width:2;stroke-linecap:round;stroke-linejoin:round;stroke-miterlimit:10;" d="M30.5,18.217c0.642-1.467,2.567-9.35,1.558-13.842"/><path style="fill:none;stroke:#000000;stroke-width:2;stroke-linecap:round;stroke-linejoin:round;stroke-miterlimit:10;" d="M14.825,5.567c2.658,0.733,9.9,8.617,11.642,12.925"/><circle style="fill:none;stroke:#000000;stroke-width:2;stroke-linecap:round;stroke-linejoin:round;stroke-miterlimit:10;" cx="29" cy="21" r="3"/><path d="M15,5c0,0,6-2,10-2s7,2,7,2s1,4,0,7s-2,6-2,6l-3,1C27,19,19,7,15,5z"/><path d="M32,20c0,0,12,2,14,10c0,5-7,12-8,13c-1-2-6-19-8-19C32,23,32,20,32,20z"/><path d="M26,20c0,0,1,3,2,4s-7,17-11,21c-2,1-12-7-13-14C9,25,18,19,26,20z"/></svg>