<?xml version="1.0" encoding="utf-8"?><!-- Generator: Adobe Illustrator 15.0.0, SVG Export Plug-In . SVG Version: 6.00 Build 0)  --><!DOCTYPE svg PUBLIC "-//W3C//DTD SVG 1.1//EN" "http://www.w3.org/Graphics/SVG/1.1/DTD/svg11.dtd"><svg xmlns="http://www.w3.org/2000/svg" xmlns:xlink="http://www.w3.org/1999/xlink" viewBox="0 0 50 50" width="50px" height="50px"><circle cx="8" cy="27" r="4"/><path d="M21.5,25.6L20,26l-0.8-2.7l-1.9-1.9l-0.8,0.2c-0.9,0.3-1.7,0.9-2.2,1.7c-0.5,0.8-0.6,1.8-0.3,2.7c0.2,0.6,0.5,1.1,0.9,1.6L2.106,41c-0.6,0.6-1.812,2.149-0.562,3.524s2.745,0.242,3.345-0.357L13.1,35.9l15.4-3.316L21.5,25.6z M16,24.3c0.2-0.4,0.5-0.6,1-0.8l0.2-0.1l0.9,3.1l-0.2,0.1c-0.8,0.2-1.7-0.3-2-1.1C15.8,25.1,15.8,24.7,16,24.3z"/><line fill="none" stroke="#000000" stroke-width="2" stroke-linecap="round" stroke-linejoin="round" stroke-miterlimit="10" x1="1" y1="1" x2="49" y2="49"/><g><path d="M45.868,9.709L49.9,2.9C50.1,2.5,50,2.1,49.8,1.8c-0.2-0.3-0.7-0.5-1-0.4l-0.05-0.026c-4.083,1.084-4.276,1.791-6.7,5c-0.205,0.271-0.457,0.604-0.741,0.981L45.868,9.709z"/><path d="M40.085,8.975C36.646,13.528,30,22,30,22l-0.5-1.9c-0.3-1-1.4-1.7-2.5-1.4l-7.5,2.1l1.6,1.6l6.5-1.8l0.9,3.1L23.7,25l6.383,6.45l1.4-0.399c0.3-0.101,0.5-0.2,0.6-0.5L44.78,11.398L40.085,8.975z"/></g></svg>