<?xml version="1.0" encoding="utf-8"?><!-- Generator: Adobe Illustrator 15.0.0, SVG Export Plug-In . SVG Version: 6.00 Build 0)  --><!DOCTYPE svg PUBLIC "-//W3C//DTD SVG 1.1//EN" "http://www.w3.org/Graphics/SVG/1.1/DTD/svg11.dtd"><svg xmlns="http://www.w3.org/2000/svg" xmlns:xlink="http://www.w3.org/1999/xlink" viewBox="0 0 50 50" width="50px" height="50px"><path d="M33,35H17c-0.552,0-1-0.447-1-1s0.448-1,1-1h16c0.553,0,1,0.447,1,1S33.553,35,33,35z"/><circle cx="25" cy="2" r="2"/><path d="M36,50H14c-0.552,0-1-0.447-1-1v-5c0-0.553,0.448-1,1-1h22c0.553,0,1,0.447,1,1v5C37,49.553,36.553,50,36,50z"/><path d="M21.708,14.078C21.645,14.587,20.313,25.462,20.046,32h9.899c-0.176-3.699-0.746-8.782-1.183-12.668c-0.238-2.123-0.484-4.313-0.494-4.885c0.031-0.12,0.039-0.246,0.023-0.371c-0.152-1.217,0.363-2.518,1.415-3.569C29.895,10.319,30,10.065,30,9.8V8c0-0.552-0.447-1-1-1h-8c-0.552,0-1,0.448-1,1v1.8c0,0.279,0.117,0.545,0.322,0.735C21.363,11.497,21.869,12.788,21.708,14.078z"/><path d="M33,42v-8c0-0.553-0.447-1-1-1H18c-0.552,0-1,0.447-1,1v8H33z"/><path d="M28,6V5c0-0.552-0.447-1-1-1h-4c-0.552,0-1,0.448-1,1v1H28z"/></svg>