<?xml version="1.0" encoding="utf-8"?><!-- Generator: Adobe Illustrator 15.0.0, SVG Export Plug-In . SVG Version: 6.00 Build 0)  --><!DOCTYPE svg PUBLIC "-//W3C//DTD SVG 1.1//EN" "http://www.w3.org/Graphics/SVG/1.1/DTD/svg11.dtd"><svg xmlns="http://www.w3.org/2000/svg" xmlns:xlink="http://www.w3.org/1999/xlink" viewBox="0 0 50 50" width="50px" height="50px"><path d="M37.114,22.821c-0.894-1.076-1.601-1.926-1.574-2.912c0.021-0.774,0.32-1.483,0.637-2.235c1.174-2.777,1.601-5.225-4.315-9.298c-0.331-0.228-0.764-0.235-1.102-0.022c-0.338,0.214-0.517,0.608-0.453,1.003c0.26,1.625,0.121,2.938-0.369,3.514c-0.234,0.275-0.568,0.361-1.028,0.301c-0.478-0.063-0.65-0.177-0.677-0.216c-0.134-0.196,0.09-1.11,0.237-1.715c0.383-1.57,0.907-3.72-0.166-6.007C26.022,0.377,20.448,0,18.794,0c-0.398,0-0.759,0.236-0.917,0.602c-0.158,0.366-0.085,0.79,0.187,1.081c1.357,1.453,2.025,3.586,1.832,5.854c-0.226,2.64-1.557,5.066-3.654,6.657c-0.174,0.132-0.293,0.197-0.361,0.229c-0.104-0.138-0.247-0.414-0.348-0.608c-0.405-0.782-1.084-2.091-2.658-2.091c-0.423,0-0.864,0.096-1.348,0.292c-0.372,0.151-0.618,0.51-0.624,0.912c-0.005,0.402,0.229,0.768,0.597,0.93c0.18,0.079,0.328,0.275,0.438,0.584c0.362,1.008,0.16,2.809-0.449,4.017c-0.156,0.31-0.491,0.619-0.879,0.978C9.508,20.453,8,21.846,8,25.304C8,33.444,17.281,40,24.965,40C34.836,40,40,34.723,40,29.51C40,26.295,38.4,24.368,37.114,22.821z M24.327,38.505c-3.34,0-7.047-3.483-7.047-7.901c0-6,6.992-6.59,5.703-12.405c2.195,2.592,3.23,3.487,0.357,8.741c-0.644,1.193,0.773,3.252,2.436,3.252c2.01,0,3.026-2.17,2.266-4.358c3.331,3.25,0.021,4.631,0.641,5.467c0.471,0.636,1.754-0.356,1.799-1.19C32.439,36.331,27.664,38.505,24.327,38.505z"/><path d="M41.953,41.771c-0.24-1.226-0.922-2.199-2.782-1.834L7.349,45.581c-0.083-0.019-0.637,0.336-0.998,0.863C6.009,46.945,5.884,47.546,6,48.136c0.214,1.085,1.201,1.872,2.346,1.872c0.144,0,0.292-0.013,0.438-0.039l31.26-5.509c0.646-0.116,1.199-0.472,1.561-1C41.945,42.959,42.069,42.359,41.953,41.771z"/><path d="M8.358,43.371l10.421-1.849l-7.884-1.603c-1.261-0.271-2.563,0.541-2.838,1.749c-0.134,0.584-0.028,1.188,0.299,1.698C8.356,43.368,8.357,43.369,8.358,43.371z"/><path d="M29.361,48.373l7.745,1.574c0.148,0.031,0.294,0.048,0.435,0.052L37.617,50c1.126,0,2.083-0.74,2.326-1.8c0.13-0.564,0.03-1.146-0.27-1.645L29.361,48.373z"/></svg>