<?xml version="1.0" encoding="iso-8859-1"?><!-- Generator: Adobe Illustrator 21.0.2, SVG Export Plug-In . SVG Version: 6.00 Build 0)  --><svg xmlns="http://www.w3.org/2000/svg" xmlns:xlink="http://www.w3.org/1999/xlink" viewBox="0 0 50 50" width="50px" height="50px"><line style="fill:none;stroke:#000000;stroke-width:2;stroke-miterlimit:10;" x1="11" y1="3" x2="11" y2="23"/><line style="fill:none;stroke:#000000;stroke-width:2;stroke-miterlimit:10;" x1="39" y1="3" x2="39" y2="23"/><line style="fill:none;stroke:#000000;stroke-width:2;stroke-miterlimit:10;" x1="34" y1="13.569" x2="34" y2="23"/><line style="fill:none;stroke:#000000;stroke-width:2;stroke-miterlimit:10;" x1="44" y1="13.656" x2="44" y2="23"/><line style="fill:none;stroke:#000000;stroke-width:2;stroke-miterlimit:10;" x1="29" y1="18.825" x2="29" y2="23"/><line style="fill:none;stroke:#000000;stroke-width:2;stroke-miterlimit:10;" x1="16" y1="13.569" x2="16" y2="23"/><line style="fill:none;stroke:#000000;stroke-width:2;stroke-miterlimit:10;" x1="6" y1="13.339" x2="6" y2="23"/><line style="fill:none;stroke:#000000;stroke-width:2;stroke-miterlimit:10;" x1="21" y1="18.825" x2="21" y2="23"/><line style="fill:none;stroke:#000000;stroke-width:2;stroke-miterlimit:10;" x1="3" y1="23" x2="47" y2="23"/><line style="fill:none;stroke:#000000;stroke-width:2;stroke-miterlimit:10;" x1="47" y1="27" x2="3" y2="27"/><g><path style="fill:none;stroke:#000000;stroke-width:2;stroke-linecap:round;stroke-linejoin:round;stroke-miterlimit:10;" d="M46,37c-3.334,0-6-2-6-2"/><g><path style="fill:none;stroke:#000000;stroke-width:2;stroke-linecap:round;stroke-linejoin:round;stroke-miterlimit:10;" d="M30,35c0,0-1.666,2-5,2s-5-2-5-2"/><path style="fill:none;stroke:#000000;stroke-width:2;stroke-linecap:round;stroke-linejoin:round;stroke-miterlimit:10;" d="M40,35c0,0-1.666,2-5,2s-5-2-5-2"/><path style="fill:none;stroke:#000000;stroke-width:2;stroke-linecap:round;stroke-linejoin:round;stroke-miterlimit:10;" d="M20,35c0,0-1.666,2-5,2s-5-2-5-2"/><path style="fill:none;stroke:#000000;stroke-width:2;stroke-linecap:round;stroke-linejoin:round;stroke-miterlimit:10;" d="M10,35c0,0-2.666,2-6,2"/></g></g><g><path style="fill:none;stroke:#000000;stroke-width:2;stroke-linecap:round;stroke-linejoin:round;stroke-miterlimit:10;" d="M46,42c-3.334,0-6-2-6-2"/><g><path style="fill:none;stroke:#000000;stroke-width:2;stroke-linecap:round;stroke-linejoin:round;stroke-miterlimit:10;" d="M30,40c0,0-1.666,2-5,2s-5-2-5-2"/><path style="fill:none;stroke:#000000;stroke-width:2;stroke-linecap:round;stroke-linejoin:round;stroke-miterlimit:10;" d="M40,40c0,0-1.666,2-5,2s-5-2-5-2"/><path style="fill:none;stroke:#000000;stroke-width:2;stroke-linecap:round;stroke-linejoin:round;stroke-miterlimit:10;" d="M20,40c0,0-1.666,2-5,2s-5-2-5-2"/><path style="fill:none;stroke:#000000;stroke-width:2;stroke-linecap:round;stroke-linejoin:round;stroke-miterlimit:10;" d="M10,40c0,0-2.666,2-6,2"/></g></g><g><path style="fill:none;stroke:#000000;stroke-width:2;stroke-linecap:round;stroke-linejoin:round;stroke-miterlimit:10;" d="M46,47c-3.334,0-6-2-6-2"/><g><path style="fill:none;stroke:#000000;stroke-width:2;stroke-linecap:round;stroke-linejoin:round;stroke-miterlimit:10;" d="M30,45c0,0-1.666,2-5,2s-5-2-5-2"/><path style="fill:none;stroke:#000000;stroke-width:2;stroke-linecap:round;stroke-linejoin:round;stroke-miterlimit:10;" d="M40,45c0,0-1.666,2-5,2s-5-2-5-2"/><path style="fill:none;stroke:#000000;stroke-width:2;stroke-linecap:round;stroke-linejoin:round;stroke-miterlimit:10;" d="M20,45c0,0-1.666,2-5,2s-5-2-5-2"/><path style="fill:none;stroke:#000000;stroke-width:2;stroke-linecap:round;stroke-linejoin:round;stroke-miterlimit:10;" d="M10,45c0,0-2.666,2-6,2"/></g></g><g><path d="M44.938,26H32.99c-0.552,0-1,0.448-1,1s0.448,1,1,1c1.654,0,3,1.346,3,3v5.642c0,0.275,4.271-1.32,5.948-0.22V31c0-1.654,1.346-3,3-3c0.552,0,1-0.448,1-1S45.491,26,44.938,26z"/><path d="M17,26H5c-0.552,0-1,0.448-1,1s0.448,1,1,1c1.654,0,3,1.346,3,3v5.422c2.278-1.324,6,0.552,6,0V31c0-1.654,1.346-3,3-3c0.552,0,1-0.448,1-1S17.552,26,17,26z"/></g><path style="fill:none;stroke:#000000;stroke-width:2;stroke-miterlimit:10;" d="M3,17.223C8.281,12.031,10.65,3,10.65,3h0.659c0,0,4.815,17,13.691,17S38.7,3,38.7,3h0.65c0,0,2.369,9.031,7.65,14.223"/></svg>