<?xml version="1.0" encoding="iso-8859-1"?><!-- Generator: Adobe Illustrator 19.1.1, SVG Export Plug-In . SVG Version: 6.00 Build 0)  --><svg xmlns="http://www.w3.org/2000/svg" xmlns:xlink="http://www.w3.org/1999/xlink" viewBox="0 0 50 50" width="50px" height="50px"><g><path d="M0.716,21.899l23.317,2.058l-9.379-13.21L0.408,20.146c-0.33,0.242-0.479,0.662-0.376,1.059C0.121,21.545,0.386,21.8,0.716,21.899z"/><path d="M26.429,23.877l22.488-1.873c0.022-0.002,0.041,0.007,0.063,0.006l0.144-0.018c0.4-0.05,0.731-0.336,0.84-0.725c0.107-0.389-0.028-0.805-0.346-1.054l-14-11c-0.19-0.149-0.432-0.23-0.671-0.213L16.555,9.969L26.429,23.877z"/><path d="M25.083,25.996C25.056,25.999,25.027,26,25,26c-0.015,0-0.029,0-0.043-0.001L23,25.914v14.933l7.164-1.194C30.646,39.573,31,39.156,31,38.667v-9.771l8-0.778v9.05c0,0.294,0.129,0.573,0.354,0.763c0.224,0.19,0.521,0.271,0.811,0.224l6-1.167C46.646,36.906,47,36.489,47,36V24.17L25.083,25.996z"/><path d="M21,25.828L3,24v13c0,0.489,0.354,0.906,0.836,0.986L21,40.847V25.828z"/></g></svg>