<?xml version="1.0" encoding="utf-8"?><!-- Generator: Adobe Illustrator 15.0.0, SVG Export Plug-In . SVG Version: 6.00 Build 0)  --><!DOCTYPE svg PUBLIC "-//W3C//DTD SVG 1.1//EN" "http://www.w3.org/Graphics/SVG/1.1/DTD/svg11.dtd"><svg xmlns="http://www.w3.org/2000/svg" xmlns:xlink="http://www.w3.org/1999/xlink" viewBox="0 0 50 50" width="50px" height="50px"><path d="M37.715,11.547c-0.354-0.532-0.683-1.024-0.974-1.488C35.177,7.626,34.666,4.661,35.305,2H36c0.553,0,1-0.448,1-1s-0.447-1-1-1h-1.5H15.6H14c-0.552,0-1,0.448-1,1s0.448,1,1,1h0.797c0.654,2.659,0.208,5.476-1.269,7.839l2.897,10.205l10.031,3.821c0.361,0.138,0.61,0.472,0.641,0.857c0.03,0.386-0.165,0.754-0.501,0.946l-7.182,4.104l5.446,4.775c0.336,0.295,0.436,0.777,0.244,1.181l-2.8,5.9c-0.171,0.36-0.53,0.571-0.904,0.571c-0.144,0-0.29-0.031-0.428-0.097c-0.499-0.236-0.711-0.833-0.475-1.332l2.476-5.218l-5.932-5.202c-0.243-0.213-0.368-0.53-0.336-0.853c0.033-0.321,0.218-0.607,0.499-0.768l6.563-3.75l-8.522-3.247c-0.295-0.112-0.52-0.358-0.606-0.662l-2.556-9.005l-2.063,3.16C8.723,17.646,7,21.395,7,26c0,13.186,7.485,23.186,7.804,23.605C14.993,49.854,15.288,50,15.6,50h18.9c0.313,0,0.607-0.146,0.796-0.395C35.615,49.186,43.1,39.186,43.1,26C43.1,19.62,39.859,14.762,37.715,11.547z"/></svg>