<?xml version="1.0" encoding="iso-8859-1"?><!-- Generator: Adobe Illustrator 22.1.0, SVG Export Plug-In . SVG Version: 6.00 Build 0)  --><svg xmlns="http://www.w3.org/2000/svg" xmlns:xlink="http://www.w3.org/1999/xlink" viewBox="0 0 50 50" width="50px" height="50px"><g><g><polyline points="5,25 9.174,12.478 10.565,15.261 14.043,5.522 20,25 "/></g><g><path d="M5,26c-0.104,0-0.211-0.017-0.316-0.052c-0.523-0.174-0.807-0.74-0.632-1.265l4.174-12.521c0.128-0.384,0.474-0.652,0.877-0.681c0.418-0.031,0.784,0.188,0.966,0.55l0.344,0.687l2.69-7.532c0.145-0.407,0.524-0.662,0.965-0.664c0.431,0.01,0.807,0.295,0.933,0.708l5.956,19.479c0.162,0.527-0.136,1.087-0.664,1.248c-0.526,0.164-1.087-0.137-1.248-0.664L13.971,8.7l-2.464,6.896c-0.135,0.378-0.481,0.638-0.881,0.662c-0.412,0.023-0.776-0.193-0.955-0.551l-0.312-0.623L5.948,25.316C5.809,25.735,5.419,26,5,26z"/></g></g><g><g><polyline points="45,25 40.826,12.478 39.435,15.261 36.957,5.522 35.445,9.753 33.68,7.895 30,25 "/></g><g><path d="M45,26c-0.419,0-0.809-0.265-0.948-0.684l-3.411-10.231l-0.312,0.623c-0.187,0.373-0.583,0.593-1.002,0.547c-0.415-0.045-0.759-0.343-0.861-0.747l-1.67-6.563l-0.409,1.144c-0.116,0.327-0.395,0.57-0.734,0.643c-0.346,0.071-0.693-0.038-0.933-0.29l-0.46-0.484L30.978,25.21c-0.116,0.54-0.649,0.886-1.188,0.768c-0.54-0.116-0.884-0.648-0.768-1.188l3.681-17.105c0.078-0.363,0.351-0.652,0.707-0.753c0.36-0.103,0.74,0.005,0.996,0.274l0.645,0.679l0.964-2.699c0.148-0.414,0.554-0.687,0.988-0.663c0.439,0.021,0.813,0.326,0.922,0.752l1.816,7.138l0.19-0.381c0.181-0.361,0.553-0.579,0.966-0.55c0.403,0.028,0.749,0.297,0.877,0.681l4.174,12.521c0.175,0.524-0.108,1.091-0.632,1.265C45.211,25.983,45.104,26,45,26z"/></g></g><g><path d="M7,35c-0.553,0-1-0.447-1-1c0-3.699,5.548-4.751,9.599-5.52c0.866-0.164,1.614-0.306,2.144-0.446c0.576-0.154,0.963-0.42,1.183-0.813c0.372-0.666,0.212-1.618,0.119-1.929c-0.158-0.527,0.139-1.085,0.664-1.246c0.527-0.163,1.083,0.129,1.246,0.655c0.062,0.194,0.57,1.946-0.273,3.478c-0.482,0.875-1.32,1.492-2.423,1.786c-0.6,0.16-1.382,0.309-2.286,0.48C13.186,30.975,8,31.957,8,34C8,34.553,7.553,35,7,35z"/></g><g><path d="M41,35c-0.553,0-1-0.447-1-1c0-0.854-0.333-1.096-2.678-1.165C35.705,32.787,33,32.706,33,30c-0.065-0.174-0.7-0.585-1.08-0.831C30.758,28.416,29,27.277,29,25c0-0.553,0.447-1,1-1s1,0.447,1,1c0,1.107,0.795,1.705,2.008,2.49C33.941,28.096,35,28.781,35,30c0,0.566,0.195,0.771,2.381,0.836C39.108,30.887,42,30.973,42,34C42,34.553,41.553,35,41,35z"/></g><g><path d="M2.999,27c-0.503,0-0.937-0.378-0.993-0.89c-0.061-0.549,0.335-1.043,0.884-1.104C2.98,24.996,12.025,24,19,24c0.553,0,1,0.447,1,1s-0.447,1-1,1c-6.865,0-15.8,0.984-15.89,0.994C3.073,26.998,3.035,27,2.999,27z"/></g><g><path d="M47.001,27c-0.033,0-0.066-0.002-0.101-0.005C46.801,26.985,36.869,26,30,26c-0.553,0-1-0.447-1-1s0.447-1,1-1c6.97,0,16.999,0.995,17.1,1.005c0.55,0.055,0.95,0.545,0.896,1.095C47.943,26.615,47.509,27,47.001,27z"/></g><g><path d="M31,19H19c-0.553,0-1-0.447-1-1s0.447-1,1-1h12c0.553,0,1,0.447,1,1S31.553,19,31,19z"/></g><g><circle cx="23" cy="7" r="3"/></g><g><g><path d="M7.455,40.875L7,34l4,1l1,5l1-3h3.714l3.643-1L23,38l2.235-0.559L27,41l2.067-3.518L31.286,38l2.429-2l4.25-0.125L41,34v7c0,0.891-2,1-3,0c-0.494-0.494-2.597,2.48-3.398,2.603C33.49,43.774,32.275,44.885,31,45c-1.086,0.098-2.214-0.791-3.368-0.736C26.355,44.326,25.3,43.994,24,44c-0.794,0.004-1.837,0.363-2.622,0.345c-1.242-0.028-2.462-0.084-3.632-0.168C16.616,44.096,16.012,45.136,15,45c-0.954-0.128-2.324-1.43-3.129-1.609c-0.975-0.217-1.826-0.472-2.514-0.767C8.245,42.148,7.558,41.567,7.455,40.875z"/></g><g><path d="M15.181,46.012c-0.102,0-0.206-0.006-0.313-0.021c-0.742-0.1-1.474-0.575-2.182-1.034c-0.334-0.218-0.841-0.547-1.031-0.589c-1.062-0.236-1.967-0.514-2.691-0.824c-1.504-0.645-2.345-1.493-2.497-2.522c-0.004-0.026-0.007-0.054-0.009-0.08l-0.455-6.875c-0.021-0.319,0.111-0.629,0.356-0.834c0.246-0.205,0.573-0.282,0.884-0.202l4,1c0.375,0.094,0.663,0.395,0.738,0.773l0.301,1.501C12.465,36.114,12.723,36,13,36h3.579l3.514-0.964c0.299-0.084,0.62-0.021,0.868,0.166l2.261,1.712l1.771-0.442c0.46-0.117,0.931,0.104,1.138,0.525l0.943,1.902l1.13-1.924c0.222-0.377,0.661-0.565,1.09-0.467l1.738,0.405l2.046-1.686c0.171-0.142,0.385-0.222,0.606-0.229l3.982-0.116l2.808-1.734c0.309-0.191,0.696-0.199,1.013-0.022S42,33.638,42,34v7c0,0.664-0.405,1.229-1.084,1.509c-0.827,0.345-2.117,0.263-3.113-0.389c-0.266,0.234-0.619,0.596-0.861,0.842c-0.954,0.973-1.526,1.527-2.187,1.629c-0.352,0.054-0.811,0.294-1.297,0.548c-0.696,0.364-1.485,0.777-2.368,0.857c-0.771,0.068-1.479-0.188-2.104-0.413c-0.48-0.174-0.926-0.333-1.306-0.319c-0.77,0.036-1.443-0.05-2.097-0.134c-0.533-0.067-1.038-0.113-1.578-0.13c-0.292,0.001-0.697,0.079-1.088,0.154c-0.516,0.1-1.048,0.195-1.561,0.191c-1.272-0.029-2.511-0.087-3.682-0.171c-0.271-0.019-0.485,0.1-0.865,0.312C16.401,45.713,15.862,46.012,15.181,46.012z M8.449,40.753c0.054,0.21,0.421,0.575,1.302,0.953c0.611,0.262,1.397,0.501,2.337,0.709c0.544,0.121,1.1,0.482,1.688,0.864c0.448,0.291,1.062,0.689,1.357,0.729c0.166,0.025,0.366-0.082,0.705-0.271c0.471-0.262,1.126-0.622,1.98-0.558c1.138,0.081,2.344,0.137,3.583,0.165c0.306,0.021,0.725-0.075,1.137-0.155c0.481-0.092,0.979-0.188,1.457-0.19c0.666-0.005,1.269,0.073,1.842,0.146c0.595,0.076,1.158,0.152,1.747,0.119c0.774-0.03,1.467,0.215,2.081,0.437c0.471,0.17,0.909,0.337,1.244,0.302c0.488-0.044,1.064-0.346,1.622-0.637c0.585-0.306,1.188-0.622,1.836-0.739c0.24-0.144,0.805-0.718,1.147-1.067c1.011-1.029,1.617-1.612,2.339-1.616c0.002,0,0.004,0,0.006,0c0.322,0,0.623,0.124,0.848,0.349c0.359,0.359,0.971,0.451,1.293,0.409v-4.909l-1.511,0.933c-0.149,0.093-0.32,0.144-0.496,0.149l-3.907,0.114l-2.164,1.782c-0.24,0.199-0.561,0.274-0.863,0.202l-1.503-0.351l-1.693,2.884c-0.186,0.315-0.544,0.511-0.897,0.492c-0.367-0.013-0.697-0.226-0.86-0.555l-1.407-2.838l-1.455,0.363c-0.293,0.075-0.604,0.011-0.846-0.172l-2.25-1.703l-3.168,0.869C16.893,37.988,16.804,38,16.714,38h-2.993l-0.772,2.316c-0.144,0.43-0.542,0.698-1.011,0.682c-0.452-0.028-0.829-0.357-0.918-0.802l-0.876-4.38l-2.055-0.514L8.449,40.753z M34.336,42.646L34.336,42.646L34.336,42.646z M37.293,41.707L37.293,41.707L37.293,41.707z"/></g></g></svg>