<?xml version="1.0" encoding="iso-8859-1"?><!-- Generator: Adobe Illustrator 19.1.1, SVG Export Plug-In . SVG Version: 6.00 Build 0)  --><svg xmlns="http://www.w3.org/2000/svg" xmlns:xlink="http://www.w3.org/1999/xlink" viewBox="0 0 50 50" width="50px" height="50px"><g><path style="fill:#231F20;" d="M34.997,16H25c-6.937,0-15,7.551-15,17.286v1.147l9.84,1.554C19.893,35.996,19.945,36,19.997,36c0.236,0,0.468-0.084,0.649-0.24c0.223-0.189,0.351-0.468,0.351-0.76c0-1.01,0.077-2.003,0.225-2.971l27.669,2.965c0.279,0.029,0.564-0.062,0.774-0.25c0.212-0.19,0.332-0.46,0.332-0.744C49.997,23.065,44.109,16,34.997,16z M21.625,30.062C23.415,23.165,28.815,18,34.997,18c7.712,0,12.615,5.671,12.979,14.885L21.625,30.062z"/><path style="fill:#231F20;" d="M8,33.286C8,26.126,12.317,19.268,18.004,16h-4.007c-7.885,0-14,8.214-14,15.279c0,0.138,0.028,0.269,0.078,0.388c-0.022,0.059-0.055,0.112-0.066,0.176c-0.087,0.546,0.286,1.058,0.831,1.144L8,34.118V33.286z"/></g></svg>