<?xml version="1.0" encoding="utf-8"?><!-- Generator: Adobe Illustrator 15.0.0, SVG Export Plug-In . SVG Version: 6.00 Build 0)  --><!DOCTYPE svg PUBLIC "-//W3C//DTD SVG 1.1//EN" "http://www.w3.org/Graphics/SVG/1.1/DTD/svg11.dtd"><svg xmlns="http://www.w3.org/2000/svg" xmlns:xlink="http://www.w3.org/1999/xlink" viewBox="0 0 50 50" width="50px" height="50px"><path d="M3.02,14C1.983,16.611,0,22.526,0,29.581c0,4.601,0.181,9.251,0.495,12.759C1.003,48.003,1.628,49,2.752,49h44.573C48.126,49,50,49,50,29.581c0-7.032-1.988-12.969-3.021-15.581H3.02z M25,39.025c-5.603,0-10.144-4.493-10.144-10.039c0-5.545,4.541-10.042,10.144-10.042c5.604,0,10.145,4.494,10.145,10.042C35.145,34.532,30.604,39.025,25,39.025z"/><polygon points="31,27 27,27 27,23 23,23 23,27 19,27 19,31 23,31 23,35 27,35 27,31 31,31 "/><path d="M5.553,12C5.726,8.684,7.465,2.998,25,2.998S44.274,8.684,44.447,12h1.984C46.111,7.007,43.017,1.002,25,1.002C10.974,1.002,4.143,4.511,3.591,12H5.553z"/></svg>