<?xml version="1.0" encoding="utf-8"?><!-- Generator: Adobe Illustrator 15.0.0, SVG Export Plug-In . SVG Version: 6.00 Build 0)  --><!DOCTYPE svg PUBLIC "-//W3C//DTD SVG 1.1//EN" "http://www.w3.org/Graphics/SVG/1.1/DTD/svg11.dtd"><svg xmlns="http://www.w3.org/2000/svg" xmlns:xlink="http://www.w3.org/1999/xlink" viewBox="0 0 50 50" width="50px" height="50px"><path d="M18.699,25.8c-0.467,0-0.885-0.329-0.98-0.805L14.344,8.022L2.18,13.025c-0.513,0.211-1.095-0.034-1.305-0.544s0.034-1.095,0.544-1.305l12.4-5.1c0.06-0.024,0.121-0.043,0.184-0.056c0.496-0.101,1.001-0.008,1.427,0.258c0.446,0.279,0.748,0.715,0.85,1.228l3.4,17.1c0.107,0.542-0.244,1.068-0.786,1.176C18.83,25.793,18.764,25.8,18.699,25.8z"/><path d="M26.337,3.046L28.841,6H46V2.8c0-0.512-0.386-0.94-0.895-0.995L28.124,0.008c-0.75-0.09-1.47,0.25-1.871,0.897c-0.395,0.639-0.389,1.443,0.015,2.049C26.289,2.986,26.312,3.017,26.337,3.046z"/><path d="M28.119,8L26.58,9.215c-0.03,0.024-0.059,0.05-0.087,0.077c-0.469,0.469-0.607,1.131-0.359,1.729C26.38,11.616,26.955,12,27.6,12H45c0.553,0,1-0.448,1-1V8H28.119z"/><path d="M45,13H30.252c0.868,3.485,3.956,6,7.748,6c3.852,0,6.979-2.593,7.789-6.164C45.547,12.941,45.28,13,45,13z"/><path d="M14.6,30H5.1c-1.637,0-2.004-1.144-2.086-1.635L0.02,13.7c-0.12-0.826,0.05-1.514,0.467-1.995C0.766,11.383,1.29,11,2.2,11h9.2c1.232,0,2.108,0.665,2.287,1.735l2.994,14.969c0.112,0.563-0.027,1.134-0.381,1.566C15.913,29.741,15.31,30,14.6,30z"/><path d="M49.844,26.676c-0.006-0.049-0.01-0.098-0.017-0.146c-0.049-0.331-0.125-0.654-0.223-0.97c-0.016-0.051-0.032-0.101-0.049-0.151c-0.107-0.318-0.235-0.627-0.39-0.924c-0.015-0.028-0.031-0.054-0.047-0.082c-0.167-0.309-0.355-0.606-0.573-0.886c-0.001,0-0.001,0-0.001-0.001c-0.142-0.181-0.291-0.356-0.453-0.523C46.847,21.707,45.146,21,43.3,21H31.8c-1.784,0-4.305,0.937-5.766,2.154l-8.084,7.223c-0.039,0.053-0.063,0.111-0.105,0.162C17.072,31.481,15.92,32,14.6,32H6.813l6.98,7.608C14.666,40.479,15.902,41,17.1,41c1.142,0,2.168-0.384,3.056-1.146l3.744-3.257v8.693V49c0,0.553,0.448,1,1,1h2.786H48.9c0.553,0,1-0.447,1-1V27.731C49.911,27.374,49.888,27.022,49.844,26.676z M29.261,48H25.9v-5.191L41.863,23H43.3c1.3,0,2.491,0.491,3.355,1.383c0.23,0.237,0.424,0.501,0.593,0.778L29.261,48z"/></svg>