<?xml version="1.0" encoding="utf-8"?><!-- Generator: Adobe Illustrator 19.1.1, SVG Export Plug-In . SVG Version: 6.00 Build 0)  --><svg xmlns="http://www.w3.org/2000/svg" xmlns:xlink="http://www.w3.org/1999/xlink" viewBox="1 -1 50 50" width="50px" height="50px"><path d="M29,41h-6c-0.6,0-1,0.4-1,1v3c0,1.2,0.8,2,2,2h4c1.2,0,2-0.8,2-2v-3C30,41.4,29.6,41,29,41z"/><path d="M26,39c0-6,5-10,5-21c0-9.1-2.3-16-5-16s-5,7.2-5,16C21,29,26,32.8,26,39L26,39z"/><path d="M26,1C16.6,1,9,8.6,9,18c0,7,4.8,11.6,8.7,15.3C20,35.5,22,37.4,22,39c0,0.6,0.4,1,1,1h6c0.6,0,1-0.4,1-1c0-1.6,2-3.5,4.3-5.7C38.2,29.6,43,25,43,18C43,8.6,35.4,1,26,1z M28.1,38h-4.2c-0.8-6.5-8.9-9.5-8.9-20c0-8.8,6-16,11-16s11,6.9,11,16C37,28.5,28.9,31.6,28.1,38z"/></svg>