<?xml version="1.0" encoding="iso-8859-1"?>
<!-- Generator: Adobe Illustrator 23.0.3, SVG Export Plug-In . SVG Version: 6.00 Build 0)  -->
<svg version="1.1" xmlns="http://www.w3.org/2000/svg" xmlns:xlink="http://www.w3.org/1999/xlink" x="0px" y="0px"
	 viewBox="0 0 50 50" style="enable-background:new 0 0 50 50;" xml:space="preserve">
<g id="filled">
</g>
<g id="Layer_12">
</g>
<g id="outlined">
</g>
<g id="Layer_11">
</g>
<g id="rounded">
</g>
<g id="Layer_17">
</g>
<g id="two-tone">
</g>
<g id="Layer_18">
</g>
<g id="sharp">
</g>
<g id="Layer_19">
</g>
<g id="win10">
</g>
<g id="Layer_13">
</g>
<g id="ios_x5F_out">
</g>
<g id="Layer_14">
</g>
<g id="ios_x5F_filled">
</g>
<g id="Layer_15">
	<path d="M41.79,7.81c-0.12-0.31-0.38-0.55-0.7-0.63c-0.33-0.08-6.93-1.58-14.13,4.36l5.75,5.75c0.39,0.39,0.39,1.03,0,1.42
		C32.51,18.9,32.26,19,32,19s-0.51-0.1-0.71-0.29l-5.83-5.83c-0.67,0.65-1.34,1.36-2.01,2.15l5.26,5.26c0.39,0.39,0.39,1.03,0,1.42
		C28.51,21.9,28.26,22,28,22s-0.51-0.1-0.71-0.29l-5.08-5.08c-0.61,0.83-1.14,1.69-1.6,2.56l4.1,4.1c0.39,0.39,0.39,1.03,0,1.42
		C24.51,24.9,24.26,25,24,25s-0.51-0.1-0.71-0.29l-3.62-3.62c-2.23,4.96-2.65,9.57-2.67,9.83c-0.02,0.31,0.1,0.61,0.33,0.82
		C17.51,31.91,17.75,32,18,32c0.06,0,0.12-0.01,0.18-0.02c0.38-0.06,9.41-1.75,15.49-7.24C44.31,15.14,41.9,8.1,41.79,7.81z
		 M36,13.5c-0.83,0-1.5-0.67-1.5-1.5s0.67-1.5,1.5-1.5s1.5,0.67,1.5,1.5S36.83,13.5,36,13.5z"/>
	<circle style="fill:none;stroke:#000000;stroke-width:2;stroke-linecap:round;stroke-miterlimit:10;" cx="16" cy="33" r="2"/>
	
		<line style="fill:none;stroke:#000000;stroke-width:2;stroke-linecap:round;stroke-miterlimit:10;" x1="41" y1="8" x2="44" y2="5"/>
	<circle style="fill:none;stroke:#000000;stroke-width:2;stroke-linecap:round;stroke-miterlimit:10;" cx="34" cy="26" r="2"/>
	<path style="fill:none;stroke:#000000;stroke-width:2;stroke-linecap:round;stroke-miterlimit:10;" d="M34,28c0,2,0,3.015,0,5.5
		s2.015,4.5,4.5,4.5s4.5-2.015,4.5-4.5s0-2.5,0-4.5l-2,2"/>
	<path style="fill:none;stroke:#000000;stroke-width:2;stroke-linecap:round;stroke-miterlimit:10;" d="M12,37
		c-1.953,1.953-4.583,2.488-6.536,0.536s-1.953-5.118,0-7.071S8,27.929,8,27.929v2.828"/>
	<path style="fill:none;stroke:#000000;stroke-width:2;stroke-linecap:round;stroke-miterlimit:10;" d="M18,41h2.828
		c0,0-0.583,0.583-2.536,2.536s-5.118,1.953-7.071,0S10.047,38.953,12,37l2-2"/>
</g>
<g id="color">
</g>
<g id="Layer_16">
</g>
</svg>