<?xml version="1.0" encoding="utf-8"?><!-- Generator: Adobe Illustrator 15.0.0, SVG Export Plug-In . SVG Version: 6.00 Build 0)  --><!DOCTYPE svg PUBLIC "-//W3C//DTD SVG 1.1//EN" "http://www.w3.org/Graphics/SVG/1.1/DTD/svg11.dtd"><svg xmlns="http://www.w3.org/2000/svg" xmlns:xlink="http://www.w3.org/1999/xlink" viewBox="0 0 50 50" width="50px" height="50px"><circle cx="25" cy="1.6" r="1.6"/><path d="M49,25H34v-3H16v3H1c-0.552,0-1,0.448-1,1v23c0,0.553,0.448,1,1,1h3c0.269,0,0.525-0.107,0.713-0.299C4.901,49.509,5.005,49.25,5,48.982c-0.025-1.363-0.039-1.879-0.028-2.532C4.981,46.441,4.991,46.434,5,46.425V46.4C5,44.7,7.5,43,7.5,43s2.413,1.645,2.493,3.316c0.008,0.01,0.019,0.021,0.027,0.03c0.012,0.597,0,1.197-0.02,2.64c-0.003,0.268,0.1,0.525,0.288,0.716S10.732,50,11,50h6c0.552,0,1-0.447,1-1V37c0-1.653,3.931-4.857,7-6.82c3.068,1.963,7,5.167,7,6.82v12c0,0.553,0.447,1,1,1h6c0.006-0.001,0.014,0,0.02,0c0.553,0,1-0.447,1-1H40v-0.181c-0.002-0.012-0.001-0.024-0.004-0.036c-0.021-1.315-0.034-1.724-0.023-2.342c0.009-0.009,0.019-0.017,0.027-0.025V46.4c0-1.7,2.5-3.4,2.5-3.4s2.437,1.66,2.494,3.34c0.009,0.01,0.02,0.02,0.027,0.029c0.012,0.61,0,1.192-0.021,2.616c-0.004,0.268,0.1,0.525,0.288,0.717C45.476,49.893,45.732,50,46,50h3c0.553,0,1-0.447,1-1V26C50,25.448,49.553,25,49,25z M10,37H5v-3.6C5,31.7,7.5,30,7.5,30s2.5,1.7,2.5,3.4V37z M45,37h-5v-3.6c0-1.7,2.5-3.4,2.5-3.4s2.5,1.7,2.5,3.4V37z"/><path d="M35.208,20c0.567-1.336,0.892-2.777,0.892-4.3c0-7.4-9.3-11.8-11.1-12.9c-1.9,1-11.1,5.5-11.1,12.9c0,1.558,0.311,2.999,0.86,4.3H35.208z"/><path d="M38.203,24C37.391,22.891,37,21.7,37,20.5c0-3.7,4.6-5.9,5.5-6.4c0.9,0.5,5.5,2.8,5.5,6.4c0,1.1-0.344,2.438-1.156,3.5"/><path d="M3.203,24C2.391,22.891,2,21.7,2,20.5c0-3.7,4.6-5.9,5.5-6.4c0.9,0.5,5.5,2.8,5.5,6.4c0,1.1-0.344,2.438-1.156,3.5"/></svg>