<?xml version="1.0" encoding="iso-8859-1"?>
<!-- Generator: Adobe Illustrator 18.0.0, SVG Export Plug-In . SVG Version: 6.00 Build 0)  -->
<!DOCTYPE svg PUBLIC "-//W3C//DTD SVG 1.1//EN" "http://www.w3.org/Graphics/SVG/1.1/DTD/svg11.dtd">
<svg version="1.1" id="Layer_1" xmlns="http://www.w3.org/2000/svg" xmlns:xlink="http://www.w3.org/1999/xlink" x="0px" y="0px"
	 width="50px" height="50px" viewBox="0 0 50 50" style="enable-background:new 0 0 50 50;" xml:space="preserve">
<path d="M24.241,26.847c-0.188-0.081-0.407-0.039-0.553,0.106c-0.15,0.152-0.15,0.152-0.145,0.975
	c0.001,0.247,0.004,0.494,0.002,0.572c-0.001,0.016-0.002,0.031-0.002,0.046c0.005,1.486-1.172,3.041-2.276,4.381
	C20.257,34.153,19,35.679,19,37.938c0,1.387,0.549,2.653,1.546,3.565c0.981,0.898,2.031,1.215,2.74,1.322
	C23.824,42.906,24.535,43,25.264,43c0.904,0,1.727-0.141,2.513-0.431C29.795,41.825,31,39.879,31,37.365
	C31,34.501,27.841,28.4,24.241,26.847z M27.152,40.267C26.642,40.761,25.808,41,25.14,41C23.924,41,22,40.034,22,38.259
	c0-1.202,1.036-2.238,1.774-2.994c0.37-0.379,0.747-1.279,1.006-1.805c0.068-0.138,0.099-0.304,0.144-0.46
	c0.032,0.079,0.088,0.163,0.101,0.244c0.056,0.386,0.139,1.614-0.506,2.793c-0.268,0.496-0.182,1.19,0.111,1.593
	c0.293,0.402,0.613,0.467,1.186,0.467c1.148,0,0.925-0.652,1.185-1.097c0.176-0.302,0.513-0.565,0.513-0.565
	s0.515,1.379,0.487,2.046C27.955,39.555,27.521,39.911,27.152,40.267z"/>
<line style="fill:none;stroke:#000000;stroke-width:2;stroke-linecap:round;stroke-miterlimit:10;" x1="18" y1="48.063" x2="32" y2="44.938"/>
<line style="fill:none;stroke:#000000;stroke-width:2;stroke-linecap:round;stroke-miterlimit:10;" x1="32" y1="47.86" x2="18" y2="45.209"/>
<path d="M47.685,30.253L25.786,2.382c-0.379-0.482-1.193-0.482-1.572,0l-22,28c-0.237,0.301-0.281,0.71-0.113,1.055S2.617,32,3,32
	h11c0.242,0,0.476-0.088,0.658-0.247c3.85-3.362,7.396-7.717,10.328-12.67c2.891,5.031,6.453,9.392,10.372,12.683
	C35.537,31.917,35.765,32,36,32h11c0.006,0,0.013,0,0.02,0c0.552,0,1-0.448,1-1C48.02,30.703,47.891,30.436,47.685,30.253z"/>
</svg>