<?xml version="1.0" encoding="utf-8"?><!-- Generator: Adobe Illustrator 15.0.0, SVG Export Plug-In . SVG Version: 6.00 Build 0)  --><!DOCTYPE svg PUBLIC "-//W3C//DTD SVG 1.1//EN" "http://www.w3.org/Graphics/SVG/1.1/DTD/svg11.dtd"><svg xmlns="http://www.w3.org/2000/svg" xmlns:xlink="http://www.w3.org/1999/xlink" viewBox="0 0 50 50" width="50px" height="50px"><path d="M34,46c0-0.553,0.447-1,1-1h3.857c-0.446-1.721-2-3-3.857-3c-2.206,0-4,1.794-4,4s1.794,4,4,4c1.857,0,3.411-1.279,3.857-3H35C34.447,47,34,46.553,34,46z"/><path d="M44,42c-1.857,0-3.411,1.279-3.857,3H44c0.553,0,1,0.447,1,1s-0.447,1-1,1h-3.857c0.446,1.721,2,3,3.857,3c2.206,0,4-1.794,4-4S46.206,42,44,42z"/><path d="M5,46c0-0.553,0.448-1,1-1h3.858c-0.447-1.721-2-3-3.858-3c-2.206,0-4,1.794-4,4s1.794,4,4,4c1.858,0,3.411-1.279,3.858-3H6C5.448,47,5,46.553,5,46z"/><path d="M15,42c-1.858,0-3.411,1.279-3.858,3H15c0.552,0,1,0.447,1,1s-0.448,1-1,1h-3.858c0.447,1.721,2,3,3.858,3c2.206,0,4-1.794,4-4S17.206,42,15,42z"/><path d="M49.561,41.665c0.088-0.142,0.168-0.29,0.231-0.446c0.017-0.039,0.022-0.083,0.038-0.123c0.044-0.125,0.088-0.248,0.113-0.38C49.98,40.538,50,40.354,50,40.166V27.5c0-0.225-0.012-0.445-0.034-0.664C49.631,23.563,46.842,21,43.462,21H6.539c-3.155,0-5.795,2.232-6.406,5.191C0.046,26.614,0,27.052,0,27.5v12.666c0,0.188,0.02,0.372,0.056,0.55c0.026,0.13,0.07,0.253,0.114,0.377c0.015,0.041,0.022,0.085,0.039,0.126c0.064,0.157,0.144,0.307,0.233,0.448c0.001,0.003,0.002,0.005,0.004,0.007c0.091,0.145,0.196,0.277,0.312,0.401c0.001,0.003,0.003,0.005,0.005,0.007l0,0C1.283,42.643,2.021,43,2.846,43H20.65h8.7h17.805c0.826,0,1.563-0.357,2.084-0.918l0,0c0.004-0.004,0.007-0.008,0.01-0.012c0.113-0.123,0.217-0.254,0.309-0.396C49.557,41.671,49.559,41.668,49.561,41.665z M45,27.8v5.4c0,0.993-0.783,1.8-1.75,1.8h-3.5C38.782,35,38,34.193,38,33.2v-5.4c0-0.993,0.782-1.8,1.75-1.8h3.5C44.217,26,45,26.807,45,27.8z M34,27.8v5.4c0,0.993-0.783,1.8-1.75,1.8h-3.5C27.782,35,27,34.193,27,33.2v-5.4c0-0.993,0.782-1.8,1.75-1.8h3.5C33.217,26,34,26.807,34,27.8z M23,27.8v5.4c0,0.993-0.783,1.8-1.75,1.8h-3.5C16.782,35,16,34.193,16,33.2v-5.4c0-0.993,0.782-1.8,1.75-1.8h3.5C22.217,26,23,26.807,23,27.8z M12,27.8v5.4c0,0.993-0.783,1.8-1.75,1.8h-3.5C5.782,35,5,34.193,5,33.2v-5.4C5,26.807,5.782,26,6.75,26h3.5C11.217,26,12,26.807,12,27.8z"/></svg>