<?xml version="1.0" encoding="iso-8859-1"?><!-- Generator: Adobe Illustrator 22.1.0, SVG Export Plug-In . SVG Version: 6.00 Build 0)  --><svg xmlns="http://www.w3.org/2000/svg" xmlns:xlink="http://www.w3.org/1999/xlink" viewBox="0 0 50 50" width="50px" height="50px"><g><path d="M46.999,16c-0.162,0-0.326-0.039-0.478-0.122L24.97,4.122L3.431,14.402c-0.498,0.237-1.095,0.026-1.333-0.472s-0.026-1.096,0.472-1.333l22-10.5c0.291-0.139,0.628-0.129,0.909,0.024l22,12c0.485,0.265,0.664,0.872,0.399,1.356C47.696,15.812,47.354,16,46.999,16z"/></g><g><path d="M25,48c-3.862,0-6.112-2.198-6.206-2.292c-0.391-0.39-0.393-1.022-0.002-1.414c0.39-0.391,1.022-0.392,1.414-0.002C20.273,44.357,21.996,46,25,46s4.727-1.643,4.798-1.712c0.395-0.385,1.027-0.38,1.412,0.013c0.387,0.392,0.386,1.02-0.004,1.407C31.112,45.802,28.862,48,25,48z"/></g><g><path d="M36,48c-3.862,0-6.112-2.198-6.206-2.292c-0.391-0.39-0.393-1.022-0.002-1.414c0.39-0.391,1.022-0.392,1.414-0.002C31.273,44.357,32.996,46,36,46s4.727-1.643,4.798-1.712c0.394-0.385,1.026-0.38,1.412,0.013c0.387,0.392,0.386,1.02-0.004,1.407C42.112,45.802,39.862,48,36,48z"/></g><g><path d="M47,48c-3.862,0-6.112-2.198-6.206-2.292c-0.391-0.39-0.393-1.022-0.002-1.414c0.39-0.391,1.022-0.392,1.414-0.002C42.273,44.357,43.996,46,47,46c0.553,0,1,0.447,1,1S47.553,48,47,48z"/></g><g><path d="M14,48c-3.862,0-6.112-2.198-6.206-2.292c-0.391-0.39-0.393-1.022-0.002-1.414c0.39-0.391,1.022-0.392,1.414-0.002C9.273,44.357,10.996,46,14,46s4.727-1.643,4.798-1.712c0.395-0.385,1.027-0.38,1.412,0.013c0.387,0.392,0.386,1.02-0.004,1.407C20.112,45.802,17.862,48,14,48z"/></g><g><path d="M3,48c-0.553,0-1-0.447-1-1s0.447-1,1-1c3.004,0,4.727-1.643,4.798-1.712c0.394-0.385,1.026-0.38,1.412,0.013c0.387,0.392,0.386,1.02-0.004,1.407C9.112,45.802,6.862,48,3,48z"/></g><g><path d="M25,42c-3.862,0-6.112-2.198-6.206-2.292c-0.391-0.39-0.393-1.022-0.002-1.414c0.39-0.391,1.022-0.392,1.414-0.002C20.273,38.357,21.996,40,25,40s4.727-1.643,4.798-1.712c0.395-0.385,1.027-0.38,1.412,0.013c0.387,0.392,0.386,1.02-0.004,1.407C31.112,39.802,28.862,42,25,42z"/></g><g><path d="M36,42c-3.862,0-6.112-2.198-6.206-2.292c-0.391-0.39-0.393-1.022-0.002-1.414c0.39-0.391,1.022-0.392,1.414-0.002C31.273,38.357,32.996,40,36,40s4.727-1.643,4.798-1.712c0.394-0.385,1.026-0.38,1.412,0.013c0.387,0.392,0.386,1.02-0.004,1.407C42.112,39.802,39.862,42,36,42z"/></g><g><path d="M47,42c-3.862,0-6.112-2.198-6.206-2.292c-0.391-0.39-0.393-1.022-0.002-1.414c0.39-0.391,1.022-0.392,1.414-0.002C42.273,38.357,43.996,40,47,40c0.553,0,1,0.447,1,1S47.553,42,47,42z"/></g><g><path d="M14,42c-3.862,0-6.112-2.198-6.206-2.292c-0.391-0.39-0.393-1.022-0.002-1.414c0.39-0.391,1.022-0.392,1.414-0.002C9.273,38.357,10.996,40,14,40s4.727-1.643,4.798-1.712c0.395-0.385,1.027-0.38,1.412,0.013c0.387,0.392,0.386,1.02-0.004,1.407C20.112,39.802,17.862,42,14,42z"/></g><g><path d="M3,42c-0.553,0-1-0.447-1-1s0.447-1,1-1c3.004,0,4.727-1.643,4.798-1.712c0.394-0.385,1.026-0.38,1.412,0.013c0.387,0.392,0.386,1.02-0.004,1.407C9.112,39.802,6.862,42,3,42z"/></g><g><rect x="26" y="25" width="10" height="4"/></g><g><rect x="26" y="31" width="10" height="4"/></g><g><path d="M36,38c0.796,0,1.468-0.156,2-0.354V24c0-1.103,0.897-2,2-2c1.104,0,2-0.896,2-2s-0.896-2-2-2c-3.309,0-6,2.691-6,6v13.643C34.53,37.84,35.197,38,36,38z"/></g><g><path d="M25,38c0.796,0,1.468-0.156,2-0.354V24c0-1.103,0.897-2,2-2c1.104,0,2-0.896,2-2s-0.896-2-2-2c-3.309,0-6,2.691-6,6v13.647C23.53,37.843,24.203,38,25,38z"/></g></svg>