<?xml version="1.0" encoding="iso-8859-1"?><!-- Generator: Adobe Illustrator 21.0.2, SVG Export Plug-In . SVG Version: 6.00 Build 0)  --><svg xmlns="http://www.w3.org/2000/svg" xmlns:xlink="http://www.w3.org/1999/xlink" viewBox="0 0 50 50" width="50px" height="50px"><path d="M46.473,44.783C46.178,44.625,39.089,41,25,41S3.822,44.625,3.527,44.783L3,45v3h44v-3L46.473,44.783z"/><g><path d="M18.235,8.331L13.4,39.6c2.755-0.464,6.14-0.817,9.94-0.896l0.357-2.193c0.078-0.443,0.484-0.744,0.93-0.668l0.002,0c0.446,0.075,0.724,0.492,0.646,0.934l-0.299,1.932c0.008,0,0.016,0,0.024,0c0.616,0,1.202,0.016,1.793,0.03l0.264-1.708c0.078-0.443,0.484-0.743,0.93-0.668l0.002,0c0.446,0.075,0.724,0.492,0.646,0.934l-0.231,1.495c0.612,0.027,1.224,0.054,1.807,0.094l0.248-1.603c0.054-0.301,0.362-0.5,0.675-0.447l0.082,0.013c0.313,0.053,0.48,0.333,0.426,0.633l-0.233,1.505c1.151,0.099,2.257,0.214,3.285,0.354l4.295-27.802L18.235,8.331z M26.904,15.757c0.078-0.443,0.484-0.743,0.93-0.668l0.002,0c0.446,0.075,0.724,0.492,0.646,0.934l-0.3,1.939l-1.581-0.244L26.904,15.757z M23.544,15.238c0.078-0.443,0.484-0.743,0.93-0.668l0.002,0c0.446,0.075,0.724,0.492,0.646,0.934l-0.3,1.939l-1.581-0.244L23.544,15.238z M20.818,14.542c0.054-0.301,0.362-0.5,0.675-0.447l0.082,0.013c0.313,0.053,0.48,0.333,0.426,0.633l-0.372,2.411l-1.186-0.183L20.818,14.542z M19.749,21.46c0.054-0.301,0.362-0.5,0.675-0.447l0.082,0.013c0.313,0.053,0.48,0.333,0.426,0.633l-0.372,2.41l-1.186-0.183L19.749,21.46z M18.794,35.495l-0.372,2.41l-1.186-0.183l0.375-2.426c0.054-0.301,0.362-0.5,0.675-0.447l0.082,0.013C18.681,34.915,18.849,35.195,18.794,35.495z M19.863,28.577l-0.372,2.41l-1.186-0.183l0.375-2.426c0.054-0.301,0.362-0.5,0.675-0.447l0.082,0.013C19.75,27.997,19.917,28.277,19.863,28.577z M21.615,38.197l-1.581-0.244l0.303-1.961c0.078-0.443,0.484-0.743,0.93-0.668l0.002,0c0.446,0.075,0.724,0.492,0.646,0.934L21.615,38.197z M22.684,31.279l-1.581-0.244l0.303-1.961c0.078-0.443,0.484-0.743,0.93-0.668l0.002,0c0.446,0.075,0.724,0.492,0.646,0.934L22.684,31.279z M23.753,24.361l-1.581-0.244l0.303-1.961c0.078-0.443,0.484-0.743,0.93-0.668l0.002,0c0.446,0.075,0.724,0.492,0.646,0.934L23.753,24.361z M26.044,31.798l-1.581-0.244l0.303-1.961c0.078-0.443,0.484-0.744,0.93-0.668l0.002,0c0.446,0.075,0.724,0.492,0.646,0.934L26.044,31.798z M27.113,24.88l-1.581-0.244l0.303-1.961c0.078-0.443,0.484-0.743,0.93-0.668l0.002,0c0.446,0.075,0.724,0.492,0.646,0.934L27.113,24.88z M29.404,32.318l-1.581-0.244l0.303-1.961c0.078-0.443,0.484-0.743,0.93-0.668l0.002,0c0.446,0.075,0.724,0.492,0.646,0.934L29.404,32.318z M30.473,25.4l-1.581-0.244l0.303-1.961c0.078-0.443,0.484-0.743,0.93-0.668l0.002,0c0.446,0.075,0.724,0.492,0.646,0.934L30.473,25.4z M29.961,18.237l0.303-1.961c0.078-0.443,0.484-0.743,0.93-0.668l0.002,0c0.446,0.075,0.724,0.492,0.646,0.934l-0.3,1.939L29.961,18.237z M32.711,30.563l-0.372,2.41l-1.186-0.183l0.375-2.426c0.054-0.301,0.362-0.5,0.675-0.447l0.082,0.013C32.598,29.982,32.765,30.262,32.711,30.563z M33.78,23.645l-0.372,2.41l-1.186-0.183l0.375-2.426c0.054-0.301,0.362-0.5,0.675-0.447l0.082,0.013C33.667,23.064,33.834,23.344,33.78,23.645z M34.476,19.137l-1.186-0.183l0.375-2.426c0.054-0.301,0.362-0.5,0.675-0.447l0.082,0.013c0.313,0.053,0.48,0.333,0.426,0.633L34.476,19.137z"/></g><g><g><path d="M22.118,2.859l-1.07,6.918l1.977,0.306v0l10.871,1.682l0,0l1.977,0.306l1.068-6.92L22.118,2.859z M26.894,9.764L25.313,9.52l0.303-1.961c0.078-0.443,0.484-0.743,0.93-0.668l0.002,0c0.446,0.075,0.724,0.492,0.646,0.934L26.894,9.764z M31.722,10.563l-1.581-0.244l0.303-1.961c0.078-0.443,0.484-0.744,0.93-0.668l0.002,0c0.446,0.075,0.724,0.492,0.646,0.934L31.722,10.563z"/></g></g></svg>