<?xml version="1.0" encoding="iso-8859-1"?><!-- Generator: Adobe Illustrator 21.0.2, SVG Export Plug-In . SVG Version: 6.00 Build 0)  --><svg xmlns="http://www.w3.org/2000/svg" xmlns:xlink="http://www.w3.org/1999/xlink" viewBox="0 0 50 50" width="50px" height="50px"><path style="fill:none;stroke:#000000;stroke-width:2;stroke-miterlimit:10;" d="M8,9V8.381C8,7.065,9.072,6,10.395,6l0,0C11.718,6,13,7.065,13,8.381v0.976"/><path d="M45,9H9v8.308C9,17.741,9.357,18,9.796,18H10c0.486,0,1-0.311,1-0.692V13c0-0.552,0.448-1,1-1s1,0.448,1,1v4.308C13,18.792,11.598,20,10,20H9.796C8.254,20,7,18.844,7,17.308V9H5c-1.654,0-3,1.346-3,3v23.107C2,36.761,3.346,38,5,38h40c1.654,0,3-1.239,3-2.893V12C48,10.346,46.654,9,45,9z M39,29H21c-0.552,0-1-0.448-1-1s0.448-1,1-1h18c0.552,0,1,0.448,1,1S39.552,29,39,29z M39,24H21c-0.552,0-1-0.448-1-1s0.448-1,1-1h18c0.552,0,1,0.448,1,1S39.552,24,39,24z M39,19H21c-0.552,0-1-0.448-1-1s0.448-1,1-1h18c0.552,0,1,0.448,1,1S39.552,19,39,19z"/><g><path d="M16.755,40l24.557,3.989C41.422,44.005,41.535,44,41.649,44c1.458,0,3.102-1.308,3.348-2.833l0.092-1.176C45.059,39.992,45.031,40,45,40H16.755z"/></g></svg>