<?xml version="1.0" encoding="utf-8"?><!-- Generator: Adobe Illustrator 15.0.0, SVG Export Plug-In . SVG Version: 6.00 Build 0)  --><!DOCTYPE svg PUBLIC "-//W3C//DTD SVG 1.1//EN" "http://www.w3.org/Graphics/SVG/1.1/DTD/svg11.dtd"><svg xmlns="http://www.w3.org/2000/svg" xmlns:xlink="http://www.w3.org/1999/xlink" viewBox="0 0 50 50" width="50px" height="50px"><path d="M47.154,45.941c-1.599,0-3.804-0.4-5.539-1.488c-1.735,1.088-3.939,1.488-5.538,1.488s-3.804-0.4-5.539-1.489c-1.735,1.089-3.94,1.489-5.538,1.489c-1.598,0-3.803-0.4-5.539-1.488c-1.735,1.088-3.939,1.488-5.538,1.488c-1.598,0-3.803-0.4-5.538-1.488c-1.735,1.088-3.94,1.488-5.539,1.488c-0.658,0-1.293-0.05-1.998-0.158c-0.546-0.083-0.921-0.594-0.837-1.14s0.601-0.919,1.14-0.837c0.602,0.092,1.14,0.135,1.695,0.135c1.394,0,3.519-0.392,4.92-1.494c0.362-0.287,0.874-0.286,1.237-0.001c1.401,1.104,3.526,1.495,4.919,1.495c1.394,0,3.519-0.392,4.919-1.494c0.362-0.287,0.874-0.287,1.237-0.001c1.402,1.104,3.527,1.495,4.921,1.495s3.518-0.392,4.92-1.495c0.361-0.285,0.875-0.285,1.236,0c1.402,1.104,3.527,1.495,4.921,1.495s3.519-0.392,4.919-1.494c0.363-0.287,0.875-0.287,1.238,0c1.4,1.103,3.525,1.494,4.92,1.494c0.563,0,1.059-0.078,1.514-0.238c0.521-0.185,1.092,0.09,1.275,0.611s-0.091,1.092-0.611,1.275C48.659,45.826,47.947,45.941,47.154,45.941z"/><path d="M47.154,49.941c-1.599,0-3.804-0.4-5.539-1.488c-1.735,1.088-3.939,1.488-5.538,1.488s-3.804-0.4-5.539-1.489c-1.735,1.089-3.94,1.489-5.538,1.489c-1.598,0-3.803-0.4-5.539-1.488c-1.735,1.088-3.939,1.488-5.538,1.488c-1.598,0-3.803-0.4-5.538-1.488c-1.735,1.088-3.94,1.488-5.539,1.488c-0.658,0-1.293-0.05-1.998-0.158c-0.546-0.083-0.921-0.594-0.837-1.14s0.601-0.919,1.14-0.837c0.602,0.092,1.14,0.135,1.695,0.135c1.394,0,3.519-0.392,4.92-1.494c0.362-0.287,0.874-0.286,1.237-0.001c1.401,1.104,3.526,1.495,4.919,1.495c1.394,0,3.519-0.392,4.919-1.494c0.362-0.287,0.874-0.286,1.237-0.001c1.402,1.104,3.527,1.495,4.921,1.495s3.518-0.392,4.92-1.495c0.361-0.285,0.875-0.285,1.236,0c1.402,1.104,3.527,1.495,4.921,1.495s3.519-0.392,4.919-1.494c0.363-0.287,0.875-0.287,1.238,0c1.4,1.103,3.525,1.494,4.92,1.494c0.563,0,1.059-0.078,1.514-0.238c0.521-0.186,1.092,0.09,1.275,0.611s-0.091,1.092-0.611,1.275C48.659,49.826,47.947,49.941,47.154,49.941z"/><g><path d="M6.888,40.639c0.453-0.262,0.97-0.406,1.496-0.406c0.669,0,1.328,0.228,1.856,0.643c0.931,0.732,2.561,1.066,3.682,1.066c1.122,0,2.752-0.334,3.676-1.061c0.527-0.419,1.188-0.649,1.862-0.649c0.67,0,1.33,0.229,1.855,0.644c0.932,0.732,2.563,1.066,3.684,1.066c1.121,0,2.752-0.334,3.681-1.065c0.526-0.415,1.186-0.644,1.857-0.644s1.331,0.229,1.854,0.643c0.932,0.732,2.563,1.066,3.685,1.066s2.752-0.333,3.679-1.063c0.527-0.417,1.188-0.646,1.859-0.646c0.344,0,0.684,0.062,1.005,0.176c1.074-0.765,2.13-1.654,3.121-2.719c0.773-0.832,1.649-1.775,1.216-2.771c-0.405-0.93-1.573-0.93-1.957-0.93H7c-1.604,0-3.012,0.407-3.012,2.012C3.988,37.768,5.169,39.315,6.888,40.639z"/></g><g><path d="M25.754,30.981l4.028,1.007h13.311c-0.108-4.375-1.851-14.747-14.427-25.75c-0.324-0.284-0.791-0.331-1.168-0.117c-0.374,0.214-0.572,0.642-0.493,1.065c2.868,15.294-1.784,22.161-1.829,22.226c-0.194,0.272-0.242,0.623-0.126,0.938S25.43,30.9,25.754,30.981z"/></g><g><path d="M23.173,31.04c-0.339-0.922-0.208-1.948,0.35-2.754c0.156-0.246,4.139-6.746,1.516-20.733C24.843,6.505,25.225,5.454,26,4.76V4c0-0.49-0.355-0.909-0.84-0.987c-0.485-0.076-0.955,0.206-1.109,0.671C18.646,19.896,6.618,27.065,6.497,27.136c-0.34,0.198-0.533,0.579-0.491,0.971c0.042,0.392,0.31,0.723,0.685,0.845l9.324,3.037h7.752C23.519,31.71,23.306,31.399,23.173,31.04z"/></g></svg>