<?xml version="1.0" encoding="iso-8859-1"?><!-- Generator: Adobe Illustrator 19.1.1, SVG Export Plug-In . SVG Version: 6.00 Build 0)  --><svg xmlns="http://www.w3.org/2000/svg" xmlns:xlink="http://www.w3.org/1999/xlink" viewBox="0 0 50 50" width="50px" height="50px"><path d="M44,9H6c-2.206,0-4,1.794-4,4v24c0,2.206,1.794,4,4,4h38c2.206,0,4-1.794,4-4V13C48,10.794,46.206,9,44,9z M8,34c0.242-4.027,5.423-3.44,6.199-5.529c0.064-0.715,0-1.213,0-1.866c-0.324-0.17-1.229-1.089-1.369-2.112c0,0-0.733-0.348-0.773-1.45c-0.021-0.584,0.389-0.998,0.389-0.998c-0.764-2.931-0.433-5.973,3.491-6.045c0.981,0,1.719,0.474,2.013,0.992c2.73,0,2.021,3.809,1.607,5.054c0.153,0.154,0.342,0.575,0.342,1.145c0,0.815-0.773,1.303-0.773,1.303c-0.147,1.039-0.879,1.898-1.326,2.112c0,0.653-0.064,1.152,0,1.866C18.577,30.56,23.758,29.973,24,34H8z M41,31H29c-0.553,0-1-0.447-1-1s0.447-1,1-1h12c0.553,0,1,0.447,1,1S41.553,31,41,31z M41,26H29c-0.553,0-1-0.448-1-1s0.447-1,1-1h12c0.553,0,1,0.448,1,1S41.553,26,41,26z M41,21H29c-0.553,0-1-0.448-1-1s0.447-1,1-1h12c0.553,0,1,0.448,1,1S41.553,21,41,21z"/></svg>