<?xml version="1.0" encoding="iso-8859-1"?>
<!-- Generator: Adobe Illustrator 23.0.3, SVG Export Plug-In . SVG Version: 6.00 Build 0)  -->
<svg version="1.1" xmlns="http://www.w3.org/2000/svg" xmlns:xlink="http://www.w3.org/1999/xlink" x="0px" y="0px"
	 viewBox="0 0 50 50" style="enable-background:new 0 0 50 50;" xml:space="preserve">
<g id="filled">
</g>
<g id="Layer_12">
</g>
<g id="outlined">
</g>
<g id="Layer_11">
</g>
<g id="rounded">
</g>
<g id="Layer_17">
</g>
<g id="two-tone">
</g>
<g id="Layer_18">
</g>
<g id="sharp">
</g>
<g id="Layer_19">
</g>
<g id="win10">
</g>
<g id="Layer_13">
</g>
<g id="ios_x5F_out">
</g>
<g id="Layer_14">
</g>
<g id="ios_x5F_filled">
	<path d="M46,22c0,7.05-3.21,13-7,13c-3.09,0-5.79-3.95-6.69-9.23c1.02-0.88,1.84-1.67,2.31-2.15c2.63-2.63,4.75-5.4,5.97-7.79
		c0.88-1.72,1.22-3.12,1.24-4.23C43.67,13.9,46,17.67,46,22z"/>
	<circle style="fill:none;stroke:#000000;stroke-width:2;stroke-linecap:round;stroke-miterlimit:10;" cx="19" cy="30" r="3"/>
	<path d="M25.72,23.28c0.98,0.98,1.87,2,2.63,3.05c-2.16,1.51-4.24,2.51-5.8,2.51c-0.7,0-1.3-0.2-1.74-0.65
		c-1.45-1.44-0.33-4.41,1.86-7.54C23.71,21.41,24.74,22.29,25.72,23.28z"/>
	<path d="M29.72,19.28c1.12,1.12,2.11,2.29,2.93,3.48c-0.87,0.84-1.78,1.64-2.7,2.37c-0.82-1.12-1.77-2.22-2.81-3.27
		c-1.06-1.05-2.15-1.99-3.27-2.81c0.73-0.92,1.54-1.83,2.38-2.7C27.44,17.18,28.6,18.16,29.72,19.28z"/>
	<path d="M36.43,18.43c0.02,0.02,0.03,0.04,0.06,0.06c-0.73,0.95-1.55,1.91-2.42,2.82c-0.84-1.18-1.83-2.34-2.93-3.45
		c-1.11-1.1-2.27-2.09-3.45-2.93c0.91-0.87,1.87-1.69,2.82-2.42c0.02,0.03,0.04,0.04,0.06,0.06c1.08,0.79,2.14,1.7,3.15,2.71
		C34.74,16.29,35.65,17.35,36.43,18.43z"/>
	<path d="M37.7,16.8c-0.76-1.01-1.62-1.99-2.56-2.94c-0.95-0.94-1.93-1.8-2.94-2.56c2.92-1.94,5.63-2.85,6.99-1.49
		S39.64,13.88,37.7,16.8z"/>
	
		<line style="fill:none;stroke:#000000;stroke-width:2;stroke-linecap:round;stroke-miterlimit:10;" x1="39" y1="10" x2="44" y2="5"/>
	<path style="fill:none;stroke:#000000;stroke-width:2;stroke-linecap:round;stroke-miterlimit:10;" d="M13,36
		c-1.953,1.953-4.583,2.488-6.536,0.536s-1.953-5.118,0-7.071S10,25.929,10,25.929v2.828"/>
	<path style="fill:none;stroke:#000000;stroke-width:2;stroke-linecap:round;stroke-miterlimit:10;" d="M20,39h2.828
		c0,0-1.583,1.583-3.536,3.536s-5.118,1.953-7.071,0S11.047,37.953,13,36l3.5-3.5"/>
</g>
<g id="Layer_15">
</g>
<g id="color">
</g>
<g id="Layer_16">
</g>
</svg>