<?xml version="1.0" encoding="iso-8859-1"?><!-- Generator: Adobe Illustrator 21.1.0, SVG Export Plug-In . SVG Version: 6.00 Build 0)  --><svg xmlns="http://www.w3.org/2000/svg" xmlns:xlink="http://www.w3.org/1999/xlink" viewBox="0 0 50 50" width="50px" height="50px"><g><path d="M24,3H4C2.348,3,1,4.348,1,6v38c0,1.652,1.348,3,3,3h20c1.652,0,3-1.348,3-3V6C27,4.348,25.652,3,24,3z M17,44h-6c-0.551,0-1-0.449-1-1s0.449-1,1-1h6c0.551,0,1,0.449,1,1S17.551,44,17,44z M25,39H3V10h22V39z"/><path d="M45.521,28h-0.258l2.332,5.441c0.034,0.079,0.047,0.165,0.077,0.245C48.459,33.259,49,32.435,49,31.479C49,29.561,47.439,28,45.521,28z"/><rect x="8" y="21" width="4" height="4"/><rect x="12" y="25" width="4" height="4"/><rect x="16" y="21" width="4" height="4"/><path d="M41.598,24.523c-1.143-2.667-3.715-4.403-6.598-4.504V18.5c0-1.378-1.121-2.5-2.5-2.5H29v6h5.738c2.188,0,4.159,1.3,5.021,3.312l1.321,3.083l0.38,0.887c0.164,0.388,0.126,0.811-0.106,1.163C41.122,30.797,40.746,31,40.323,31H29v13h9v1c0,1.103,0.897,2,2,2h4c1.103,0,2-0.897,2-2v-4v-1.646v-3.943c0-0.411-0.082-0.809-0.243-1.182L41.598,24.523z M40.613,38.161l-0.058,0.028L38.7,38.937c-0.261,0.105-0.529,0.158-0.789,0.158c-0.278,0-0.547-0.061-0.785-0.182c-0.704-0.36-1.142-1.068-1.142-1.849c0-1.146,0.945-2.079,2.107-2.079h1.672c0.949,0,1.721,0.762,1.721,1.699C41.484,37.294,41.15,37.86,40.613,38.161z"/></g></svg>