<?xml version="1.0" encoding="utf-8"?><!-- Generator: Adobe Illustrator 15.0.0, SVG Export Plug-In . SVG Version: 6.00 Build 0)  --><!DOCTYPE svg PUBLIC "-//W3C//DTD SVG 1.1//EN" "http://www.w3.org/Graphics/SVG/1.1/DTD/svg11.dtd"><svg xmlns="http://www.w3.org/2000/svg" xmlns:xlink="http://www.w3.org/1999/xlink" viewBox="0 0 50 50" width="50px" height="50px"><rect fill="none" width="50" height="50"/><path d="M38.648,0c-3.491,0-5.391,1.422-5.47,1.482c-0.035,0.027-0.069,0.057-0.101,0.088L3.591,31.135C1.062,33.457,0,36.619,0,39c0,6.271,4.729,11,11,11c6.643,0,9-4.51,9-8.371C20,36.994,16.997,34,12.348,34C8.61,34,6,36.362,6,39.744C6,41.757,7.748,44,10.256,44C12.902,44,14,42.046,14,41c0-0.553-0.447-1.018-0.999-1.018s-1,0.431-1,0.983C12,40.977,11.791,42,10.256,42C8.858,42,8,40.687,8,39.744C8,36.98,10.342,36,12.348,36C15.887,36,18,38.104,18,41.629C18,45.618,15.383,48,11,48c-5.131,0-9-3.869-9-9c0-3.479,2.846-9,10.481-9c3.67,0,6.521,1.14,8.473,3.387c4.219,4.858,3.068,13.387,3.056,13.473c-0.064,0.457,0.192,0.899,0.622,1.069c0.429,0.171,0.919,0.025,1.186-0.352l24-34C49.937,13.408,50,13.207,50,13C50,3.405,43.885,0,38.648,0z M44.536,17.589l-1.771,2.51c-0.398-2.7-1.49-5.987-4.289-8.318c-2.515-2.096-5.908-2.977-10.087-2.675l3.043-3.052c4.018-0.503,7.639,0.4,9.959,2.517C43.625,10.608,44.677,13.646,44.536,17.589z M19.06,18.458c8.875-0.348,15.057,3.979,16.665,11.615l-2.673,3.786c-2.178-7.355-9.039-12.381-16.958-12.428L19.06,18.458z"/></svg>