<?xml version="1.0" encoding="iso-8859-1"?><!-- Generator: Adobe Illustrator 21.0.0, SVG Export Plug-In . SVG Version: 6.00 Build 0)  --><svg xmlns="http://www.w3.org/2000/svg" xmlns:xlink="http://www.w3.org/1999/xlink" viewBox="0 0 50 50" width="50px" height="50px"><path style="fill:none;stroke:#000000;stroke-width:2;stroke-linecap:round;stroke-miterlimit:10;" d="M16,47l11-5c0-2,0-6.207,0-8c-1-1-2.732-3.49-3-6c-0.699-0.057-1.676-1.308-2-4c-0.173-1.445,0.58-1.744,1-2c-2.363-9.094-0.778-17.802,10-18c2.694,0,5.19,1.578,6,3c7.867,1.093,5.137,11.58,4,15c0.421,0.256,1.174,0.555,1,2c-0.323,2.692-1.301,3.943-2,4c-0.269,2.51-2,5-3,6c0,2,0,6,0,8l10,5"/><g><g><path style="fill:none;stroke:#000000;stroke-width:2;stroke-linecap:round;stroke-miterlimit:10;" d="M21,6C16,3,5,3,2,12c-1.924,5.771,0.345,10.414,3,14c-1,2-3.636,5.491-3.636,5.672C1.364,31.811,7,31,9,28c0.403,0.143,6,2,10-1"/></g></g><line style="fill:none;stroke:#000000;stroke-width:2;stroke-linecap:round;stroke-miterlimit:10;" x1="7.966" y1="13.431" x2="18.811" y2="13.431"/><path style="fill:none;stroke:#000000;stroke-width:2;stroke-linecap:round;stroke-miterlimit:10;" d="M17.003,13.431c0,0-0.092,6.218-8.038,8.942"/><line style="fill:none;stroke:#000000;stroke-width:2;stroke-linecap:round;stroke-miterlimit:10;" x1="12.936" y1="12.753" x2="12.936" y2="10"/><path style="fill:none;stroke:#000000;stroke-width:2;stroke-linecap:round;stroke-miterlimit:10;" d="M10.829,17.005c0,0,1.847,2.7,5.171,4.995"/><g><path d="M49.447,46.105L40,41.382v-6.985c1.06-1.183,2.47-3.384,2.902-5.672c1.041-0.629,1.812-2.289,2.091-4.605c0.165-1.375-0.331-2.113-0.812-2.53c0.912-2.989,2.229-8.857-0.06-12.539c-0.987-1.588-2.509-2.585-4.528-2.967C38.424,4.504,35.801,3,32.981,3c-4.34,0.08-7.569,1.475-9.596,4.146c-3.087,4.068-2.592,9.951-1.527,14.411c-0.493,0.41-1.021,1.15-0.852,2.562c0.279,2.315,1.05,3.975,2.09,4.605c0.432,2.288,1.843,4.488,2.903,5.672v6.96L15.586,46.09c-0.429,0.194-0.664,0.662-0.564,1.122S15.529,48,16,48h33c0.464,0,0.866-0.319,0.974-0.771C50.08,46.778,49.862,46.312,49.447,46.105z M38.327,27.39c-0.108,0.037-0.219,0.055-0.327,0.055c-0.414,0-0.802-0.259-0.945-0.673L35.749,23h-5.499l-1.305,3.771c-0.182,0.521-0.75,0.795-1.272,0.618c-0.521-0.181-0.799-0.751-0.618-1.272l5-14.444C32.194,11.27,32.574,11,33,11s0.806,0.27,0.945,0.673l5,14.444C39.126,26.639,38.849,27.209,38.327,27.39z"/><polygon points="30.943,21 35.057,21 33,15.057 "/></g></svg>