<?xml version="1.0" encoding="utf-8"?><!-- Generator: Adobe Illustrator 19.1.1, SVG Export Plug-In . SVG Version: 6.00 Build 0)  --><svg xmlns="http://www.w3.org/2000/svg" xmlns:xlink="http://www.w3.org/1999/xlink" viewBox="0 0 50 50" width="50px" height="50px"><path d="M38.4,42.1c-0.1,0-1-0.5-2.5-0.8c1.5-1.5,3.1-4.3,3.1-9.5L25,30l-14,1.8c0,5.2,1.5,8,3,9.5c-1.5,0.3-2.4,0.8-2.5,0.8c-0.5,0.2-0.7,0.8-0.4,1.3c0.2,0.5,0.8,0.7,1.3,0.4c0,0,1.8-0.9,4.5-0.9c4.2,0,7.1,4.5,7.2,4.5c0,0,0,0,0,0c0,0,0,0,0,0c0.1,0.1,0.1,0.2,0.2,0.2c0,0,0,0,0,0c0,0,0,0,0,0c0,0,0.1,0,0.1,0.1c0,0,0.1,0,0.1,0c0.1,0,0.1,0,0.2,0c0,0,0.1,0,0.1,0c0.1,0,0.2,0,0.3,0c0,0,0,0,0.1,0c0.1,0,0.1,0,0.2-0.1c0,0,0,0,0,0c0,0,0,0,0,0c0.1-0.1,0.2-0.1,0.2-0.2c0,0,0,0,0,0c0,0,0,0,0,0c0,0,2.9-4.5,7.2-4.5c2.7,0,4.5,0.9,4.5,0.9c0.5,0.2,1.1,0,1.3-0.4S38.9,42.4,38.4,42.1z M19.5,38c-0.8,0-1.5-0.7-1.5-1.5s0.7-1.5,1.5-1.5s1.5,0.7,1.5,1.5S20.3,38,19.5,38z M31.5,38c-0.8,0-1.5-0.7-1.5-1.5s0.7-1.5,1.5-1.5s1.5,0.7,1.5,1.5S32.3,38,31.5,38z"/><g><polygon points="24.7,28 25,28 25.3,28 34,29.2 34,24 29,24 29,21 21,21 21,24 16,24 16,29.2 "/></g><line fill="none" stroke="#000000" stroke-width="2" stroke-linecap="round" stroke-miterlimit="10" x1="25" y1="13.8" x2="25" y2="3"/><polyline fill="none" stroke="#000000" stroke-width="2" stroke-linecap="round" stroke-miterlimit="10" points="29,11 25,15 21,11 "/></svg>