<?xml version="1.0" encoding="iso-8859-1"?><!-- Generator: Adobe Illustrator 22.1.0, SVG Export Plug-In . SVG Version: 6.00 Build 0)  --><svg xmlns="http://www.w3.org/2000/svg" xmlns:xlink="http://www.w3.org/1999/xlink" viewBox="0 0 50 50" width="50px" height="50px"><g></g><path d="M13,10H1c-0.553,0-1-0.447-1-1V5c0-0.553,0.447-1,1-1h12c0.553,0,1,0.447,1,1v4C14,9.553,13.553,10,13,10z"/><path d="M13,24H1c-0.553,0-1-0.447-1-1v-4c0-0.553,0.447-1,1-1h12c0.553,0,1,0.447,1,1v4C14,23.553,13.553,24,13,24z"/><path d="M48,26c0,3.859-3.141,7-7,7H23c-0.553,0-1,0.447-1,1v8c0,0.553,0.447,1,1,1h13c7.72,0,14-6.28,14-14v-6c0-7.72-6.28-14-14-14h-1v10h6C44.859,19,48,22.141,48,26z"/><rect x="3" y="9" style="fill:none;stroke:#000000;stroke-width:2;stroke-linejoin:round;stroke-miterlimit:10;" width="8" height="10"/><line style="fill:none;stroke:#000000;stroke-width:2;stroke-linecap:round;stroke-linejoin:round;stroke-miterlimit:10;" x1="7" y1="9" x2="7" y2="19"/><path d="M32.053,7.001l-19-1l-0.105,1.998L17,8.212v11.575l-4.053,0.213l0.105,1.998l19-1C32.584,20.971,33,20.532,33,20V8C33,7.468,32.584,7.029,32.053,7.001z"/><path style="fill:none;stroke:#000000;stroke-width:2;stroke-linecap:round;stroke-linejoin:round;stroke-miterlimit:10;" d="M11,38c0,0-0.621,0.693-1.464,1.536c-1.953,1.953-5.118,1.953-7.071,0s-1.953-5.118,0-7.071L4,31"/><path style="fill:none;stroke:#000000;stroke-width:2;stroke-linecap:round;stroke-linejoin:round;stroke-miterlimit:10;" d="M26.083,42c-0.992,1.813-2.815,3-5.583,3c-2.465,0-4.764-2.1-6.625-4C12.338,39.432,11,38,11,38s1.339-1.432,2.875-3c1.861-1.9,4.16-4,6.625-4c2.769,0,4.591,1.186,5.583,3"/></svg>