<?xml version="1.0" encoding="utf-8"?><!-- Generator: Adobe Illustrator 15.0.0, SVG Export Plug-In . SVG Version: 6.00 Build 0)  --><!DOCTYPE svg PUBLIC "-//W3C//DTD SVG 1.1//EN" "http://www.w3.org/Graphics/SVG/1.1/DTD/svg11.dtd"><svg xmlns="http://www.w3.org/2000/svg" xmlns:xlink="http://www.w3.org/1999/xlink" viewBox="0 0 50 50" width="50px" height="50px"><g><path d="M24,19v-7.666c-1.443,0.936-2.775,3.793-2.974,7.666H24z"/><path d="M26,11.334V19h2.974C28.775,15.128,27.442,12.27,26,11.334z"/><path d="M26,21v7.665c1.442-0.935,2.775-3.793,2.974-7.665H26z"/><path d="M24,28.666V21h-2.974C21.225,24.872,22.557,27.73,24,28.666z"/><path d="M19.026,19c0.124-2.766,0.759-5.177,1.745-6.939c-2.556,1.367-4.377,3.932-4.711,6.939H19.026z"/><path d="M30.975,21c-0.125,2.766-0.759,5.178-1.744,6.939c2.556-1.367,4.376-3.932,4.711-6.939H30.975z"/><path d="M19.026,21h-2.967c0.334,3.008,2.155,5.572,4.711,6.939C19.785,26.178,19.15,23.766,19.026,21z"/><path d="M41,1H9C7.346,1,6,2.346,6,4v42c0,1.654,1.346,3,3,3h32c1.654,0,3-1.346,3-3V4C44,2.346,42.654,1,41,1z M25,9c6.065,0,11,4.935,11,11s-4.935,11-11,11s-11-4.935-11-11S18.935,9,25,9z M37,40H13c-0.552,0-1-0.447-1-1s0.448-1,1-1h24c0.553,0,1,0.447,1,1S37.553,40,37,40z"/><path d="M30.975,19h2.967c-0.335-3.008-2.155-5.572-4.712-6.939C30.216,13.823,30.85,16.234,30.975,19z"/></g></svg>