<?xml version="1.0" encoding="iso-8859-1"?><!-- Generator: Adobe Illustrator 21.1.0, SVG Export Plug-In . SVG Version: 6.00 Build 0)  --><svg xmlns="http://www.w3.org/2000/svg" xmlns:xlink="http://www.w3.org/1999/xlink" viewBox="0 0 50 50" width="50px" height="50px"><line style="fill:none;stroke:#000000;stroke-width:2;stroke-linecap:round;stroke-linejoin:round;stroke-miterlimit:10;" x1="35.957" y1="20.565" x2="35.957" y2="15"/><path d="M44.575,20.182c-0.333-0.234-0.771-0.243-1.114-0.024c-3.075,1.967-6.902,0.007-6.989-0.04c-0.014-0.007-0.029-0.006-0.042-0.013c-0.061-0.029-0.127-0.041-0.194-0.058c-0.064-0.016-0.125-0.035-0.19-0.038C36.03,20.008,36.016,20,36,20H14c-0.016,0-0.029,0.008-0.045,0.009c-0.065,0.003-0.127,0.023-0.191,0.039c-0.067,0.017-0.133,0.029-0.193,0.058c-0.014,0.007-0.029,0.006-0.043,0.013c-0.038,0.021-3.87,2.032-6.989,0.039c-0.341-0.218-0.782-0.209-1.113,0.024c-0.332,0.233-0.49,0.644-0.4,1.039C5.556,23.565,7.906,28,13,28h12h12c5.095,0,7.444-4.435,7.976-6.779C45.064,20.825,44.906,20.415,44.575,20.182z"/><line style="fill:none;stroke:#000000;stroke-width:2;stroke-linecap:round;stroke-linejoin:round;stroke-miterlimit:10;" x1="14.043" y1="15" x2="14.043" y2="20.565"/><polyline style="fill:none;stroke:#000000;stroke-width:2;stroke-linecap:round;stroke-linejoin:round;stroke-miterlimit:10;" points="11,27 11,33 39,33 39,27 "/><line style="fill:none;stroke:#000000;stroke-width:2;stroke-linecap:round;stroke-linejoin:round;stroke-miterlimit:10;" x1="20" y1="4" x2="20" y2="11"/><line style="fill:none;stroke:#000000;stroke-width:2;stroke-linecap:round;stroke-linejoin:round;stroke-miterlimit:10;" x1="30" y1="4" x2="30" y2="11"/><path d="M40.623,9.718c-0.291-0.233-0.688-0.283-1.028-0.132C36.6,10.913,34.299,9.715,33,8.641V11c0,0.552-0.447,1-1,1s-1-0.448-1-1V5H19v6c0,0.552-0.448,1-1,1s-1-0.448-1-1V8.653c-1.293,1.075-3.585,2.267-6.595,0.933c-0.34-0.151-0.737-0.1-1.029,0.132s-0.429,0.607-0.358,0.973C9.377,12.528,11.297,16,16,16h18c4.703,0,6.623-3.472,6.981-5.309C41.053,10.326,40.915,9.951,40.623,9.718z"/><g><path style="fill:none;" d="M12.5,37c-1.381,0-2.5,1.119-2.5,2.5V46h5v-6.5C15,38.119,13.881,37,12.5,37z"/><path style="fill:none;" d="M37.5,37c-1.381,0-2.5,1.119-2.5,2.5V46h5v-6.5C40,38.119,38.881,37,37.5,37z"/><path d="M47,32H3c-0.552,0-1,0.448-1,1v12c0,0.552,0.448,1,1,1h7v-6.5c0-1.381,1.119-2.5,2.5-2.5s2.5,1.119,2.5,2.5V46h20v-6.5c0-1.381,1.119-2.5,2.5-2.5s2.5,1.119,2.5,2.5V46h7c0.553,0,1-0.448,1-1V33C48,32.448,47.553,32,47,32z"/></g></svg>