<?xml version="1.0" encoding="utf-8"?><!-- Generator: Adobe Illustrator 15.0.0, SVG Export Plug-In . SVG Version: 6.00 Build 0)  --><!DOCTYPE svg PUBLIC "-//W3C//DTD SVG 1.1//EN" "http://www.w3.org/Graphics/SVG/1.1/DTD/svg11.dtd"><svg xmlns="http://www.w3.org/2000/svg" xmlns:xlink="http://www.w3.org/1999/xlink" viewBox="0 0 50 50" width="50px" height="50px"><polygon points="13,43 38.7,43 13,17.3 "/><path d="M11,15.3L4.8,9.1C2.1,9.7,0,12.1,0,15v22c0,3.3,2.7,6,6,6h5V15.3z"/><path d="M44,9h-5v28.563l-2-2V9H7.7l34,34H44c3.3,0,6-2.7,6-6V15C50,11.7,47.3,9,44,9z"/><polygon points="11,10 11,11 13,13 13,10 "/><path fill="none" stroke="#000000" stroke-width="2" stroke-miterlimit="10" d="M19,7V6c0-1.7,1.3-3,3-3h6c1.7,0,3,1.3,3,3v1"/><path d="M49,50c-0.256,0-0.512-0.098-0.707-0.293l-48-48c-0.391-0.391-0.391-1.023,0-1.414s1.023-0.391,1.414,0l48,48c0.391,0.391,0.391,1.023,0,1.414C49.512,49.902,49.256,50,49,50z"/></svg>