<svg xmlns="http://www.w3.org/2000/svg"  viewBox="0 0 50 50" width="50px" height="50px"><path d="M 18.53125 0 C 11.820313 0 7 5.753906 7 13.09375 C 10.25 5.4375 19.910156 4.523438 24 8.71875 C 16.660156 7.878906 7 11.429688 7 21.5 C 7 25.273438 7.847656 28.746094 10.15625 33.46875 C 11.9375 17 24.101563 14.359375 29.03125 13.625 C 38.367188 13.625 45.589844 20.652344 44.75 33.34375 C 48.210938 28.832031 50 25.785156 50 21.90625 C 50 12.046875 35.40625 8.503906 30.6875 9.65625 C 31.210938 8.609375 33.738281 6.386719 37.09375 6.28125 C 40.238281 6.28125 45.167969 7.664063 48.3125 11.125 C 46.949219 2.523438 43.089844 0 39 0 C 33.859375 0 29.03125 4.09375 29.03125 4.09375 C 26.199219 1.050781 21.675781 0 18.53125 0 Z M 29.15625 15.625 C 27.664063 15.855469 26.300781 16.203125 25 16.625 C 24.628906 36.617188 15.71875 43.25 10.46875 45.4375 C 12.101563 45.765625 13.957031 46 16 46 C 19.527344 46 22.585938 45.011719 25.5625 44.0625 C 26.558594 43.746094 27.589844 43.445313 28.625 43.15625 C 31.421875 35.464844 31.941406 22.855469 32 15.90625 C 31.097656 15.730469 30.132813 15.632813 29.15625 15.625 Z M 1.0625 44 C 0.882813 43.988281 0.695313 44.039063 0.53125 44.125 C 0.203125 44.296875 0 44.628906 0 45 L 0 49 C 0 49.554688 0.449219 50 1 50 L 49 50 C 49.4375 50 49.839844 49.703125 49.96875 49.28125 C 50.097656 48.859375 49.925781 48.433594 49.5625 48.1875 C 49.308594 48.015625 43.320313 44 36 44 C 32.378906 44 29.234375 44.996094 26.1875 45.96875 C 23.070313 46.964844 19.835938 48 16 48 C 7.160156 48 1.617188 44.226563 1.5625 44.1875 C 1.410156 44.082031 1.242188 44.011719 1.0625 44 Z"/></svg>