<?xml version="1.0" encoding="utf-8"?><!-- Generator: Adobe Illustrator 15.0.0, SVG Export Plug-In . SVG Version: 6.00 Build 0)  --><!DOCTYPE svg PUBLIC "-//W3C//DTD SVG 1.1//EN" "http://www.w3.org/Graphics/SVG/1.1/DTD/svg11.dtd"><svg xmlns="http://www.w3.org/2000/svg" xmlns:xlink="http://www.w3.org/1999/xlink" viewBox="0 0 50 50" width="50px" height="50px"><path d="M43,28h-1.14l-2.932-6.871C38.181,19.257,36.32,18,34.3,18H15.7c-2.02,0-3.88,1.257-4.62,3.107L8.139,28H7c-1.654,0-3,1.346-3,3s1.346,3,3,3v10v2v1c0,1.654,1.346,3,3,3h3c1.654,0,3-1.346,3-3v-1h18v1c0,1.654,1.346,3,3,3h3c1.654,0,3-1.346,3-3v-1v-2V34c1.654,0,3-1.346,3-3S44.654,28,43,28z M14.5,41c-1.4,0-2.5-1.1-2.5-2.5s1.1-2.5,2.5-2.5s2.5,1.1,2.5,2.5S15.9,41,14.5,41z M35.5,41c-1.4,0-2.5-1.1-2.5-2.5s1.1-2.5,2.5-2.5s2.5,1.1,2.5,2.5S36.9,41,35.5,41z M38.927,29.181C38.14,29.732,37.247,30,36.2,30H13.8c-1.047,0-1.939-0.268-2.745-0.832l-0.965-0.644l2.838-6.653C13.376,20.752,14.49,20,15.7,20h18.6c1.21,0,2.324,0.752,2.78,1.893l2.83,6.632L38.927,29.181z"/><path d="M18,0c-4.486,0-8,3.514-8,8s3.514,8,8,8s8-3.514,8-8S22.486,0,18,0z M16,10c-1.104,0-2-0.896-2-2s0.896-2,2-2s2,0.896,2,2S17.104,10,16,10z"/><path d="M39.707,6.293l-2-2C37.52,4.105,37.266,4,37,4h-1.672c-0.266,0-0.52,0.105-0.707,0.293L33.5,5.44l-1.137-1.147C32.176,4.105,31.922,4,31.656,4h-1.25c-0.197,0-0.391,0.059-0.555,0.168L28.699,4.96l-1.145-0.792c-0.105-0.07-0.226-0.111-0.35-0.137C27.717,5.242,28,6.582,28,8c0,1.431-0.289,2.78-0.809,4H37c0.266,0,0.52-0.105,0.707-0.293l2-2C39.895,9.52,40,9.265,40,9V7C40,6.735,39.895,6.48,39.707,6.293z"/></svg>