<?xml version="1.0" encoding="utf-8"?><!-- Generator: Adobe Illustrator 15.0.0, SVG Export Plug-In . SVG Version: 6.00 Build 0)  --><!DOCTYPE svg PUBLIC "-//W3C//DTD SVG 1.1//EN" "http://www.w3.org/Graphics/SVG/1.1/DTD/svg11.dtd"><svg xmlns="http://www.w3.org/2000/svg" xmlns:xlink="http://www.w3.org/1999/xlink" viewBox="0 0 50 50" width="50px" height="50px"><path d="M23.015,43.978L23.015,43.978c-0.406,0-0.783-0.184-1.033-0.504c-0.39-0.499-0.444-1.242-0.17-2.34l2.293-12.217l-1.329,0.594c-6.313,2.814-11.373,4.302-14.631,4.302c-2.862,0-3.978-1.151-4.409-2.117L0.2,23.767c-0.298-0.667-0.264-1.341,0.097-1.896c0.442-0.681,1.327-1.088,2.366-1.088c0.705,0,1.35,0.196,1.816,0.553c0.617,0.479,2.58,1.929,3.932,2.924c0.361,0.268,0.768,0.569,1.003,0.569c0.06,0,0.13-0.018,0.213-0.056l28.253-12.602C39.626,11.394,41.389,11,43.12,11c3.498,0,6.053,1.62,6.768,3.219c0.62,1.396-0.043,2.813-14.275,9.477l-7.44,16.098c-0.568,1.232-1.806,2.827-2.98,3.35l-1.559,0.697C23.425,43.933,23.219,43.978,23.015,43.978z"/><g><path d="M11.054,17.101l4.608,2.792l9.065-4.044l-8.376-2.561c-0.756-0.232-1.64-0.36-2.491-0.36c-0.563,0-1.366,0.059-1.994,0.339l-1.562,0.696c-0.514,0.229-0.832,0.674-0.851,1.191C9.421,16.12,10.379,16.743,11.054,17.101z"/></g></svg>