<?xml version="1.0" encoding="utf-8"?><!-- Generator: Adobe Illustrator 15.0.0, SVG Export Plug-In . SVG Version: 6.00 Build 0)  --><!DOCTYPE svg PUBLIC "-//W3C//DTD SVG 1.1//EN" "http://www.w3.org/Graphics/SVG/1.1/DTD/svg11.dtd"><svg xmlns="http://www.w3.org/2000/svg" xmlns:xlink="http://www.w3.org/1999/xlink" viewBox="0 0 50 50" width="50px" height="50px"><path d="M49,50H1c-0.552,0-1-0.447-1-1v-4c0-0.553,0.448-1,1-1h48c0.553,0,1,0.447,1,1v4C50,49.553,49.553,50,49,50z"/><path d="M42.3,31.4c0,0-0.8-0.5-0.6-2.5c0.1-0.9,0.1-2.601,0.1-2.601s2.5,0.9,3.3,2.2C46,30,45.7,31.4,44.4,32C43.4,32.7,42.7,32.1,42.3,31.4z"/><path fill="none" stroke="#000000" stroke-width="2.0717" stroke-linecap="round" stroke-linejoin="round" stroke-miterlimit="10" d="M43.1,29.4C44,32.3,47,33.1,47,36.7c0,2.899-3.7,4.3-6.4,3.3"/><path d="M10.867,9.188c0.441,0.265,1.009,0.166,1.334-0.232c0.285-0.348,0.931-0.564,1.688-0.564c0.558,0,1.122,0.122,1.547,0.334c0.207,0.104,0.369,0.687,0.271,1.168c-0.184,0.451-0.372,0.451-0.511,0.451c-0.449,0-1.078-0.349-1.365-0.566c-0.331-0.256-0.784-0.285-1.146-0.079c-0.186,0.106-1.075,0.702-1.288,2.478c-0.581,0.788-0.405,1.551-0.102,2.12c1.207-0.604,2.5-1.021,3.649-1.387c3.495-1.111,4.682-1.757,4.827-3.398c0.034-0.356,0.034-0.356-0.518-0.848c-1.05-0.935-2.638-2.348-2.49-6.104c0-0.151,0.026-0.536,0.231-1.002c-0.644,0.128-1.177,0.398-1.559,0.816c-1.048-0.29-2.025-0.437-2.913-0.437c-0.541,0-0.934,0.057-1.177,0.107c-0.469-0.035-1.008,0.154-1.343,0.534C9.668,2.962,9.515,3.477,9.541,4.146C9.096,4.94,8.961,5.803,9.149,6.663C9.425,7.925,10.328,8.865,10.867,9.188z"/><path d="M34.411,7.775c-1.61-7.248-8.988-7.811-11.211-7.811c-5.284,0-5.436,2.366-5.436,2.595c-0.13,3.324,1.191,4.5,2.155,5.358c0.659,0.586,0.932,0.83,0.848,1.691c-0.211,2.399-2.226,3.208-5.519,4.255C12.003,14.896,7.964,16.181,7.964,21c0,3.528,2.764,5.329,4.225,5.788c0.103,0.032,0.207,0.048,0.311,0.048c0.351,0,0.688-0.18,0.88-0.49c0.789-1.272,3.729-1.88,6.843-2.524c4.601-0.952,10.327-2.137,13.054-6.322C34.887,15.03,35.269,11.76,34.411,7.775z M26.222,6.271c-0.16,0.964-1.002,2.006-1.689,2.417c-0.167,0.1-0.351,0.148-0.532,0.148c-0.352,0-0.695-0.18-0.889-0.503c-0.294-0.491-0.135-1.127,0.355-1.421c0.163-0.098,0.375-0.341,0.526-0.578c-0.284-0.172-0.726-0.356-1.122-0.406c-0.568-0.071-0.97-0.589-0.899-1.156c0.07-0.568,0.592-0.97,1.156-0.899c0.873,0.109,2.458,0.685,2.999,1.765C26.225,5.833,26.258,6.054,26.222,6.271z"/><path d="M14.748,43c1.243-1.577,2.41-3.568,2.968-5.262c1.674-1.796,3.115-3.902,4.386-6.418c1.501,0.229,3.091,0.758,4.483,2.149c0.11-1.775,1.093-3.518,2.694-4.714c1.417-1.06,3.15-1.619,5.014-1.619c0.923,0,1.858,0.139,2.782,0.411c0.016,0.005,0.024,0.016,0.038,0.022c0.22,0.053,0.386,0.241,0.386,0.477c0,0.276-0.224,0.5-0.5,0.5c-0.069,0-0.135-0.014-0.194-0.039c-0.005-0.001-0.009,0-0.013-0.001c-0.84-0.248-1.681-0.37-2.499-0.37c-1.626,0-3.162,0.483-4.415,1.42c-1.45,1.083-2.315,2.67-2.315,4.243c0,0.383,0.034,0.733,0.081,1.071c0.289,2.115,1.42,3.429,2.775,4.412c-0.027,0.016-0.055,0.031-0.082,0.047c-0.594,0.385-1.01,0.572-1.376,0.737c-0.566,0.255-1.104,0.498-1.593,1.238C26.51,41.769,26.04,42.387,25.821,43h17.212c0.001-0.033,0.003-0.068,0.003-0.1c0-1.168-0.749-1.787-1.454-2.191c0.654-0.152,1.292-0.425,1.831-0.847c0.695-0.542,1.523-1.566,1.523-3.362c0-7.37-4.017-13.601-11.352-17.722c-3.094,3.936-8.646,5.089-13.159,6.023c-2.51,0.519-5.634,1.165-6.196,2.072c-0.375,0.604-1.021,0.963-1.73,0.963c-0.197,0-0.391-0.032-0.581-0.089c-0.609,2.07-0.938,4.329-0.955,6.747c-1.163,2.8-2.478,4.428-3.021,4.78c-1.765-0.268-3.145,0.517-3.909,2.212C3.446,42.043,3.124,42.552,2.953,43H14.748z"/></svg>