<?xml version="1.0" encoding="utf-8"?><!-- Generator: Adobe Illustrator 15.0.0, SVG Export Plug-In . SVG Version: 6.00 Build 0)  --><!DOCTYPE svg PUBLIC "-//W3C//DTD SVG 1.1//EN" "http://www.w3.org/Graphics/SVG/1.1/DTD/svg11.dtd"><svg xmlns="http://www.w3.org/2000/svg" xmlns:xlink="http://www.w3.org/1999/xlink" viewBox="0 0 50 50" width="50px" height="50px"><path d="M3.9,42.7c-0.256,0-0.512-0.098-0.707-0.293c-0.391-0.391-0.391-1.023,0-1.414l1.6-1.601c0.391-0.391,1.023-0.391,1.414,0s0.391,1.023,0,1.414l-1.6,1.601C4.412,42.603,4.156,42.7,3.9,42.7z"/><g><path d="M7.7,0C13.4,0,14,5,14,6c0,6-5.9,4.6-5.5,11h-2C6.5,9.6,12,9.9,12,6c0-0.6-0.5-4.3-4.5-4.3c-5,0-5.1,4.9-5.1,5.8h-2C0.5,6.3,0.7,0,7.7,0z M9,19v3H6v-3H9z"/></g><path d="M25,50c-0.015,0-0.029,0-0.044-0.001c-0.388-0.018-0.731-0.258-0.879-0.616c-0.031-0.073-2.74-6.378-10.033-8.316c-0.374-0.1-0.656-0.405-0.727-0.785c-1.104-5.979-9.04-10.671-9.12-10.717c-0.315-0.184-0.505-0.524-0.496-0.889c0.009-0.364,0.215-0.695,0.539-0.863l38.7-20.1c0.385-0.201,0.859-0.129,1.168,0.18l1.699,1.7c0.309,0.309,0.382,0.781,0.181,1.168l-20.1,38.7C25.715,49.793,25.372,50,25,50z"/><g><path d="M11.597,41.389l-4.004,4.004c-0.783,0.783-2.203,0.783-2.986,0C4.216,45.001,4,44.472,4,43.9s0.216-1.102,0.607-1.493l-1.414-1.414C2.424,41.763,2,42.795,2,43.9s0.424,2.138,1.193,2.906C3.962,47.576,4.995,48,6.1,48s2.138-0.424,2.907-1.193l4.005-4.005C12.393,42.505,11.893,42.005,11.597,41.389z"/></g><g><path d="M49.507,4.193c-0.391-0.391-1.023-0.391-1.414,0l-2.429,2.429l1.414,1.415l2.429-2.429C49.897,5.216,49.897,4.583,49.507,4.193z"/></g></svg>