<?xml version="1.0" encoding="utf-8"?><!-- Generator: Adobe Illustrator 19.1.1, SVG Export Plug-In . SVG Version: 6.00 Build 0)  --><svg xmlns="http://www.w3.org/2000/svg" xmlns:xlink="http://www.w3.org/1999/xlink" viewBox="0 0 50 50" width="50px" height="50px"><rect fill="none" width="50" height="50"/><path fill="none" stroke="#000000" stroke-width="2" stroke-linecap="round" stroke-linejoin="round" stroke-miterlimit="10" d="M3,33c0,5.5,9.9,10,22,10s22-4.5,22-10"/><path fill="none" stroke="#000000" stroke-width="2" stroke-linecap="round" stroke-linejoin="round" stroke-miterlimit="10" d="M44.2,42.9c1.1-0.6,2-1.2,2.8-1.9"/><path fill="none" stroke="#000000" stroke-width="2" stroke-linecap="round" stroke-linejoin="round" stroke-miterlimit="10" d="M25,47c4.1,0,7.9-0.4,11.3-1.2"/><g><path d="M32.7,22.8c-0.4,1-0.7,2.1-0.7,3.2c0,1,0.1,1.9,0.4,2.9c0.1,0.5-0.2,1.1-0.7,1.2c-0.1,0-0.2,0-0.2,0c-0.4,0-0.9-0.3-1-0.8C30.1,28.3,30,27.1,30,26c0-1.3,0.3-2.5,0.7-3.6c-1.5-0.2-3.1-0.3-4.8-0.4c-0.5,1.1-0.9,2.2-0.9,3.9c0,2.5,1,6.8,1,6.8c0.1,0.5-0.2,1.1-0.8,1.2c-0.1,0-0.2,0-0.2,0c-0.5,0-0.9-0.3-1-0.8c0-0.2-1-4.5-1-7.3c0-1.6,0.3-2.9,0.7-3.9c-1.7,0.1-3.3,0.2-4.8,0.5C18.4,23.7,18,25,18,26.7c0,0.8,0.1,1.9,0.4,3c0.1,0.5-0.2,1.1-0.8,1.2c-0.1,0-0.1,0-0.2,0c-0.5,0-0.9-0.3-1-0.8c-0.3-1.3-0.4-2.5-0.4-3.5c0-1.5,0.3-2.7,0.6-3.8C10.3,24.4,6,27.5,6,31c0,5,8.5,9,19,9s19-4,19-9C44,27.3,39.3,24.2,32.7,22.8z"/><g><path d="M25.9,22c0-0.1,0.1-0.1,0.1-0.2c0.5-1.2,1-2.4,1-4.2c0-1.9-0.9-3.8-1.7-5.5C24.6,10.7,24,9.4,24,8.3c0-2.4,1.8-4.6,1.8-4.7c0.3-0.4,0.3-1.1-0.2-1.4c-0.4-0.3-1.1-0.3-1.4,0.2C24.1,2.5,22,5.2,22,8.3c0,1.6,0.7,3.1,1.5,4.7c0.7,1.5,1.5,3.2,1.5,4.6c0,1.4-0.4,2.3-0.9,3.4c-0.1,0.3-0.3,0.6-0.4,1c0.4,0,0.8,0,1.3,0C25.3,22,25.6,22,25.9,22z"/></g><g><path d="M19.1,22c0.5-1.3,0.9-2.5,0.9-3.9c0-3-2.1-5.6-2.2-5.7c-0.4-0.4-1-0.5-1.4-0.1c-0.4,0.4-0.5,1-0.1,1.4c0,0,1.8,2.2,1.8,4.4c0,1-0.4,2-0.8,3.2c-0.2,0.5-0.4,1-0.6,1.6c0.7-0.2,1.5-0.3,2.3-0.4C19,22.3,19,22.2,19.1,22z"/></g><g><path d="M33,21.8c0.5-1.3,1-2.6,1-4c0-2.1-1-4.9-1.1-5c-0.2-0.5-0.8-0.8-1.3-0.6c-0.5,0.2-0.8,0.8-0.6,1.3c0.3,0.7,0.9,2.9,0.9,4.4c0,1.1-0.4,2.2-0.9,3.3c-0.2,0.4-0.3,0.9-0.5,1.3c0.7,0.1,1.3,0.2,2,0.4C32.8,22.4,32.9,22.1,33,21.8z"/></g></g></svg>