<?xml version="1.0" encoding="iso-8859-1"?>
<!-- Generator: Adobe Illustrator 22.1.0, SVG Export Plug-In . SVG Version: 6.00 Build 0)  -->
<svg version="1.1" id="Layer_1" xmlns="http://www.w3.org/2000/svg" xmlns:xlink="http://www.w3.org/1999/xlink" x="0px" y="0px"
	 viewBox="0 0 50 50" style="enable-background:new 0 0 50 50;" xml:space="preserve">
<path d="M12,39h31c0.552,0,1-0.447,1-1V3c0-0.553-0.448-1-1-1H12C8.691,2,6,4.691,6,8v34.417C6,45.495,8.691,48,12,48h31
	c0.552,0,1-0.447,1-1s-0.448-1-1-1H12c-2.168,0-4-1.641-4-3.583C8,40.501,9.757,39,12,39z M26,9c4.411,0,8,3.589,8,8
	c0,5.779-7.155,14.547-7.228,14.635C26.583,31.866,26.299,32,26,32s-0.583-0.134-0.772-0.365C25.155,31.547,18,22.779,18,17
	C18,12.589,21.589,9,26,9z"/>
<circle cx="26" cy="17" r="3"/>
</svg>