<?xml version="1.0" encoding="iso-8859-1"?><!-- Generator: Adobe Illustrator 20.1.0, SVG Export Plug-In . SVG Version: 6.00 Build 0)  --><svg xmlns="http://www.w3.org/2000/svg" xmlns:xlink="http://www.w3.org/1999/xlink" viewBox="0 0 50 50" width="50px" height="50px"><path d="M16.059,24c0.499-4.493,4.316-8,8.941-8s8.442,3.507,8.941,8H49V9c0-0.552-0.447-1-1-1H2C1.447,8,1,8.448,1,9v15H16.059z"/><path d="M33.941,26c-0.499,4.493-4.316,8-8.941,8s-8.442-3.507-8.941-8H1v15c0,0.552,0.447,1,1,1h46c0.553,0,1-0.448,1-1V26H33.941z"/><circle cx="25" cy="25" r="7"/></svg>