<?xml version="1.0" encoding="iso-8859-1"?><!-- Generator: Adobe Illustrator 22.1.0, SVG Export Plug-In . SVG Version: 6.00 Build 0)  --><svg xmlns="http://www.w3.org/2000/svg" xmlns:xlink="http://www.w3.org/1999/xlink" viewBox="0 0 50 50" width="50px" height="50px"><path d="M34,25H16c-2.757,0-5,2.243-5,5v11c0,2.757,2.243,5,5,5h18c2.757,0,5-2.243,5-5V30C39,27.243,36.757,25,34,25z M17,39c-1.105,0-2-0.895-2-2s0.895-2,2-2s2,0.895,2,2S18.105,39,17,39z M25,41c-2.209,0-4-1.791-4-4s1.791-4,4-4s4,1.791,4,4S27.209,41,25,41z M20,30c-1.657,0-3-1.343-3-3h9.2H33c0,1.657-1.343,3-3,3H20z M33,39c-1.105,0-2-0.895-2-2s0.895-2,2-2s2,0.895,2,2S34.105,39,33,39z"/><path d="M50,19v10c0,4.25-3.31,8.16-9,10.79V30c0-0.78-0.13-1.53-0.37-2.23c5.03-2.35,8.46-5.82,9.21-9.77c0.07,0.33,0.12,0.66,0.14,1H50z"/><path d="M9.37,27.77C9.13,28.47,9,29.22,9,30v9.79C3.31,37.16,0,33.25,0,29V19h0.02c0.02-0.34,0.07-0.67,0.14-1C0.91,21.94,4.35,25.42,9.37,27.77z"/><path d="M4.577,22.172C8.807,18.469,16.37,16,25,16s16.193,2.469,20.422,6.172C47.066,20.435,48,18.464,48,16.375c0-1.05-0.239-2.071-0.681-3.047C43.234,8.944,34.873,6,25,6S6.766,8.944,2.681,13.328C2.239,14.304,2,15.325,2,16.375C2,18.464,2.934,20.435,4.577,22.172z"/></svg>