<?xml version="1.0" encoding="iso-8859-1"?><!-- Generator: Adobe Illustrator 21.1.0, SVG Export Plug-In . SVG Version: 6.00 Build 0)  --><svg xmlns="http://www.w3.org/2000/svg" xmlns:xlink="http://www.w3.org/1999/xlink" viewBox="0 0 50 50" width="50px" height="50px"><path d="M13.486,6.178c-0.049,0.033-0.104,0.057-0.147,0.099c-0.005,0.005-0.011,0.008-0.016,0.013c-0.078,0.08-0.146,0.169-0.197,0.273L0.101,33.383c-0.128,0.263-0.134,0.569-0.017,0.837s0.346,0.471,0.625,0.556c0.058,0.018,5.75,1.748,7.135,2.197c0.455,0.146,0.944-0.045,1.179-0.458c1.647-2.905,3.019-6.636,3.905-9.355c0.88,3.469,2.412,8.711,4.487,12.789c0.12,0.236,0.329,0.414,0.58,0.497l10.693,3.505c0.001,0,0.003,0,0.004,0.001C28.791,43.983,28.895,44,29,44c0.072,0,0.145-0.021,0.217-0.037C20.469,25.752,15.442,11.923,13.486,6.178z"/><path d="M49.924,35.618l-12-29c-0.104-0.25-0.304-0.447-0.555-0.547c-0.252-0.1-0.532-0.094-0.779,0.017c-2.055,0.924-14.394,2.528-21.162,0.357c2.124,6.147,7.085,19.543,15.46,36.953l18.442-6.455c0.26-0.091,0.471-0.284,0.583-0.535S50.029,35.872,49.924,35.618z"/></svg>