<?xml version="1.0" encoding="utf-8"?><!-- Generator: Adobe Illustrator 20.1.0, SVG Export Plug-In . SVG Version: 6.00 Build 0)  --><svg xmlns="http://www.w3.org/2000/svg" xmlns:xlink="http://www.w3.org/1999/xlink" viewBox="0 0 50 50" width="50px" height="50px"><style type="text/css">.st0{fill:none;stroke:#000000;stroke-width:2;stroke-miterlimit:10;}.st1{fill:none;stroke:#000000;stroke-width:2;stroke-linecap:round;stroke-miterlimit:10;}.st2{fill:none;stroke:#000000;stroke-width:2;stroke-linecap:round;stroke-linejoin:round;stroke-miterlimit:10;}.st3{fill:none;stroke:#000000;stroke-linecap:round;stroke-miterlimit:10;}.st4{fill:none;stroke:#000000;stroke-width:3;stroke-linecap:round;stroke-miterlimit:10;}.st5{fill:#FFFFFF;}.st6{stroke:#000000;stroke-width:2;stroke-miterlimit:10;}.st7{fill:none;stroke:#000000;stroke-width:2;stroke-linejoin:round;stroke-miterlimit:10;}.st8{fill:none;}</style><path d="M26,35v-1c0-1.2-0.8-2-2-2h-4c-1.2,0-2,0.8-2,2v1v13h8V35z M24,35h-4v-1h4V35z"/><path d="M14,35h2v13h-2c-1.1,0-2-0.9-2-2v-9C12,35.9,12.9,35,14,35z"/><path d="M28,35h2c1.1,0,2,0.9,2,2v9c0,1.1-0.9,2-2,2h-2V35z"/><circle cx="13" cy="7" r="5"/><circle cx="41" cy="7" r="5"/><path d="M24.7,29c0.5,0,1-0.2,1.3-0.5l10-8.4V46c0,1.1,0.9,2,2,2h5c1.1,0,2-0.9,2-2V33h1c1.1,0,2-0.9,2-2V19.4c0-3-2.5-5.4-5.5-5.4H39c-1.6,0-3.1,0.6-4.2,1.8L23.5,25.9c-0.8,0.7-0.8,1.9-0.1,2.6C23.8,28.8,24.2,29,24.7,29z"/><rect x="2" y="29" width="32" height="2"/><path d="M15.5,14H13h-2.5c-3,0-5.5,2.4-5.5,5.4V30h8h8V19.4C21,16.4,18.5,14,15.5,14z"/></svg>