<?xml version="1.0" encoding="utf-8"?><!-- Generator: Adobe Illustrator 15.0.0, SVG Export Plug-In . SVG Version: 6.00 Build 0)  --><!DOCTYPE svg PUBLIC "-//W3C//DTD SVG 1.1//EN" "http://www.w3.org/Graphics/SVG/1.1/DTD/svg11.dtd"><svg xmlns="http://www.w3.org/2000/svg" xmlns:xlink="http://www.w3.org/1999/xlink" viewBox="0 0 50 50" width="50px" height="50px"><path fill="none" stroke="#000000" stroke-width="2" stroke-linecap="round" stroke-linejoin="round" stroke-miterlimit="10" d="M21.473,43.152l26.482-14.396c0.971-0.526,1.33-1.741,0.802-2.712c-0.526-0.97-1.739-1.331-2.712-0.802L19.507,39.67"/><path d="M16.044,48.002c-1.778,0-3.255-0.794-3.953-2.123c-0.58-1.106-0.557-2.423,0.067-3.706c0.574-1.181,1.604-2.205,2.901-2.886c1.01-0.527,2.103-0.807,3.16-0.807c1.778,0,3.255,0.792,3.951,2.119c1.16,2.219-0.145,5.115-2.971,6.595C18.192,47.723,17.101,48.002,16.044,48.002z"/><path d="M19.092,9.366c-1.775-3.4-3.452-6.612-3.79-8.539c-0.056-0.319-0.263-0.591-0.556-0.73c-0.292-0.139-0.634-0.128-0.917,0.03C9.317,2.647,0,13.001,0,28.915c0,6.477,3.113,15.775,9.947,20.886c0.129,0.097,0.274,0.156,0.423,0.181C10.434,49.993,10.499,50,10.566,50c0.552,0,1-0.447,1-1c0-0.28-0.116-0.534-0.302-0.716c-0.753-0.9-8.511-15.099-1.84-26.349c2.907,12.333,8.161,5.11,4.667-6.092c4.157,3.535,6.592,10.971,1.537,17.907c-0.226,0.336-0.468,0.67-0.733,0.999c-0.283,0.352-0.296,0.849-0.031,1.214s0.741,0.511,1.163,0.35c3.098-1.168,8.865-3.343,8.865-11.473C24.893,20.477,21.811,14.574,19.092,9.366z"/></svg>