<?xml version="1.0" encoding="utf-8"?><!-- Generator: Adobe Illustrator 15.0.0, SVG Export Plug-In . SVG Version: 6.00 Build 0)  --><!DOCTYPE svg PUBLIC "-//W3C//DTD SVG 1.1//EN" "http://www.w3.org/Graphics/SVG/1.1/DTD/svg11.dtd"><svg xmlns="http://www.w3.org/2000/svg" xmlns:xlink="http://www.w3.org/1999/xlink" viewBox="0 0 50 50" width="50px" height="50px"><g><path d="M2,12c-1.103,0-2,0.897-2,2v8c0,1.103,0.897,2,2,2V12z"/></g><g><path d="M48,12v12c1.104,0,2-0.897,2-2v-8C50,12.897,49.104,12,48,12z"/></g><path d="M47,9c0-4.354-0.541-9-7-9H12C5.439,0,3,2.168,3,8v33c0,1.36,0.397,2.341,1,3.062V47c0,1.654,1.346,3,3,3h4c1.654,0,3-1.346,3-3v-1h22v1c0,1.654,1.346,3,3,3h4c1.654,0,3-1.346,3-3v-2.938c0.603-0.721,1-1.701,1-3.062V9z M14,5c0-0.552,0.448-1,1-1h21c0.553,0,1,0.448,1,1v2c0,0.552-0.447,1-1,1H15c-0.552,0-1-0.448-1-1V5z M8,14c0-2,1-3,3-3c9,0,15.713,0,28,0c2,0,3,1,3,3s0,10.977,0,12c0,2-1.953,2.922-3,2.922L11,29c-2,0-3-1-3-3C8,23,8,17.141,8,14z M11.5,41C9.567,41,8,39.434,8,37.5S9.567,34,11.5,34s3.5,1.566,3.5,3.5S13.433,41,11.5,41z M38.5,34c1.934,0,3.5,1.566,3.5,3.5S40.434,41,38.5,41S35,39.434,35,37.5S36.566,34,38.5,34z"/></svg>