<?xml version="1.0" encoding="iso-8859-1"?><!-- Generator: Adobe Illustrator 21.1.0, SVG Export Plug-In . SVG Version: 6.00 Build 0)  --><svg xmlns="http://www.w3.org/2000/svg" xmlns:xlink="http://www.w3.org/1999/xlink" viewBox="0 0 50 50" width="50px" height="50px"><line style="fill:none;stroke:#000000;stroke-width:2;stroke-miterlimit:10;" x1="38" y1="46" x2="38" y2="21"/><line style="fill:none;stroke:#000000;stroke-width:2;stroke-miterlimit:10;" x1="12" y1="46" x2="12" y2="21"/><path style="stroke:#000000;stroke-width:2;stroke-linecap:round;stroke-miterlimit:10;" d="M38,30H26v-6h7c2.761,0,5,2.239,5,5V30z"/><line style="fill:none;stroke:#000000;stroke-width:2;stroke-miterlimit:10;" x1="38" y1="30" x2="12" y2="30"/><circle style="stroke:#000000;stroke-width:2;stroke-linecap:round;stroke-miterlimit:10;" cx="19" cy="26" r="3"/><path style="stroke:#000000;stroke-width:2;stroke-linecap:round;stroke-miterlimit:10;" d="M38,43H26v-6h7c2.761,0,5,2.239,5,5V43z"/><line style="fill:none;stroke:#000000;stroke-width:2;stroke-miterlimit:10;" x1="38" y1="43" x2="12" y2="43"/><circle style="stroke:#000000;stroke-width:2;stroke-linecap:round;stroke-miterlimit:10;" cx="19" cy="39" r="3"/><line style="fill:none;stroke:#000000;stroke-width:2;stroke-linejoin:round;" x1="45" y1="17.4" x2="45" y2="19.4"/><line style="fill:none;stroke:#000000;stroke-width:2;stroke-linejoin:round;stroke-dasharray:3.7846,1.8923;" x1="45" y1="21.292" x2="45" y2="43.054"/><polyline style="fill:none;stroke:#000000;stroke-width:2;stroke-linejoin:round;" points="45,44 45,46 43,46 "/><line style="fill:none;stroke:#000000;stroke-width:2;stroke-linejoin:round;stroke-dasharray:3.7895,1.8947;" x1="41.105" y1="46" x2="7.947" y2="46"/><polyline style="fill:none;stroke:#000000;stroke-width:2;stroke-linejoin:round;" points="7,46 5,46 5,44 "/><line style="fill:none;stroke:#000000;stroke-width:2;stroke-linejoin:round;stroke-dasharray:3.7846,1.8923;" x1="5" y1="42.108" x2="5" y2="20.346"/><line style="fill:none;stroke:#000000;stroke-width:2;stroke-linejoin:round;" x1="5" y1="19.4" x2="5" y2="17.4"/><polyline style="fill:none;stroke:#000000;stroke-width:4;stroke-linecap:round;stroke-linejoin:round;stroke-miterlimit:10;" points="2,21 25,3 48,21 "/></svg>