<?xml version="1.0" encoding="utf-8"?><!-- Generator: Adobe Illustrator 15.0.0, SVG Export Plug-In . SVG Version: 6.00 Build 0)  --><!DOCTYPE svg PUBLIC "-//W3C//DTD SVG 1.1//EN" "http://www.w3.org/Graphics/SVG/1.1/DTD/svg11.dtd"><svg xmlns="http://www.w3.org/2000/svg" xmlns:xlink="http://www.w3.org/1999/xlink" viewBox="0 0 50 50" width="50px" height="50px"><path d="M16.6,10c0,0.564,0.29,1.043,0.561,1.368c-0.008,0.169-0.001,0.365,0.015,0.567c0.509-0.039,0.808-0.192,0.826-0.202C18.857,11.206,19.2,10.436,19.2,9c0-0.498,0.366-0.919,0.858-0.99c0.67-0.096,1.534-0.375,2.268-1.696c0.152-0.274,0.425-0.461,0.735-0.505c0.314-0.043,0.625,0.062,0.846,0.283c0.421,0.422,1.9,0.617,2.815-0.228c0.406-0.375,1.039-0.349,1.413,0.057c0.382,0.415,0.679,0.791,0.938,1.12c0.576,0.731,0.747,0.909,1.105,0.975C30.654,8.103,31,8.517,31,9c0,0.487,0.113,1.665,1.159,2.067c0.009,0.003,0.339,0.125,0.892,0.164c0.144-0.63,0.119-1.255,0.076-1.619c0.145-0.415,0.358-1.203,0.266-2.037c-0.109-0.87-0.594-1.599-0.999-2.073c-0.022-0.549-0.128-1.322-0.613-1.928c-0.332-0.415-0.781-0.656-1.159-0.793C30.446,2.34,30.1,1.79,29.414,1.311c-0.728-0.567-1.496-0.717-2.049-0.735c-0.286-0.266-0.687-0.489-1.201-0.562c-0.692-0.116-1.227,0.035-1.69,0.259c-0.29-0.087-0.585-0.112-0.832-0.112c-0.237,0-0.671,0.026-1.068,0.189c-0.463,0.135-0.967,0.524-1.321,0.958c-0.604,0.029-1.118,0.16-1.719,0.745c-0.43,0.361-0.641,0.934-0.744,1.361c-0.417,0.316-1.051,0.888-1.385,1.639c-0.294,0.589-0.267,1.322-0.188,1.843c-0.244,0.284-0.47,0.602-0.565,0.887c-0.136,0.408-0.076,0.923,0.023,1.346C16.639,9.339,16.6,9.649,16.6,10z"/><path d="M31.763,20.062c-0.727-0.197-1.478-0.401-1.616-0.457c-0.254-0.127-0.434-0.262-0.538-0.404c0.319-0.413,0.504-0.912,0.538-1.451c0.452-0.283,0.883-0.726,1.143-1.29c0.219-0.389,0.238-0.842,0.253-1.18c0.002-0.031,0.003-0.062,0.004-0.091c0.026-0.033,0.057-0.069,0.087-0.107c0.233-0.288,0.498-0.614,0.637-1.04c0.081-0.32,0.081-0.63,0.081-0.88c-0.529-0.085-0.86-0.21-0.926-0.236c-1.287-0.495-2.16-1.688-2.374-3.195c-0.664-0.329-1.097-0.88-1.549-1.454c-0.086-0.108-0.176-0.223-0.271-0.342c-1.203,0.641-2.646,0.656-3.729,0.218c-0.795,1.015-1.676,1.456-2.336,1.66c-0.113,1.223-0.561,2.665-2.141,3.638c-0.085,0.051-0.558,0.315-1.321,0.435c0.079,0.568,0.368,1.17,1.008,1.664c0.091,0.73,0.462,1.295,0.897,1.664c0.006,0.74,0.36,1.415,0.84,1.905c-0.094,0.319-0.323,0.506-0.743,0.626c-0.116,0.032-0.422,0.089-0.862,0.175C10.608,21.526,7.4,22.951,7.4,25c0,0.293,0.128,0.571,0.352,0.761c5.081,4.328,7.253,13.376,7.275,13.467C15.133,39.68,15.536,40,16,40h18c0.493,0,0.913-0.36,0.988-0.848c0.013-0.082,1.329-8.218,7.075-13.303c0.214-0.19,0.337-0.463,0.337-0.749C42.4,23.455,39.915,22.277,31.763,20.062z"/><path d="M38,50H12c-0.552,0-1-0.447-1-1v-4c0-0.553,0.448-1,1-1h26c0.553,0,1,0.447,1,1v4C39,49.553,38.553,50,38,50z"/><path d="M16.44,43h17.122c-0.058-0.64-0.057-1.373-0.003-2H16.438C16.496,41.64,16.494,42.373,16.44,43z"/></svg>