<?xml version="1.0" encoding="utf-8"?><!-- Generator: Adobe Illustrator 19.1.1, SVG Export Plug-In . SVG Version: 6.00 Build 0)  --><svg xmlns="http://www.w3.org/2000/svg" xmlns:xlink="http://www.w3.org/1999/xlink" viewBox="0 0 50 50" width="50px" height="50px"><path d="M25,12c-2.8,0-5-2.2-5-5s2.2-5,5-5s5,2.2,5,5S27.8,12,25,12z"/><path fill="none" stroke="#000000" stroke-width="2" stroke-linecap="round" stroke-linejoin="round" stroke-miterlimit="10" d="M11,47c0,0,6.4-3,14-3s14,3,14,3"/><path fill="none" stroke="#000000" stroke-width="2" stroke-linecap="round" stroke-linejoin="round" stroke-miterlimit="10" d="M19,40.8c0,0,2.8-0.8,6-0.8s6,0.8,6,0.8"/><path d="M42.2,9.7c-0.1-0.1-0.1-0.1-0.2-0.2c-0.1,0-0.1-0.1-0.2-0.1c-0.1-0.1-0.2-0.1-0.4-0.2c0,0,0,0-0.1,0c-0.1-0.1-0.3-0.1-0.4-0.1c0,0,0,0,0,0c-0.5-0.1-1.1-0.1-1.5,0.1L28.9,13H25h-3.9L10.5,9.2C10.1,9,9.5,8.9,9,9.1c0,0,0,0,0,0c-0.1,0-0.3,0.1-0.4,0.1c0,0,0,0-0.1,0C8.4,9.3,8.2,9.3,8.1,9.4C8.1,9.5,8,9.5,8,9.5C7.9,9.6,7.8,9.6,7.8,9.7C7.3,10.2,7,10.8,7,11.5c0,1,0.5,1.8,1.3,2.2c0.1,0.1,0.1,0.1,0.2,0.1L20,18l0,7.1l-9.4,9.7l0,0c-0.4,0.4-0.7,1-0.7,1.7c0,1.4,1.1,2.5,2.5,2.5c0.3,0,0.6-0.1,0.9-0.2c0.3-0.1,0.6-0.3,0.9-0.5L25,28.1l10.7,10.2c0.2,0.2,0.5,0.4,0.9,0.5c0.3,0.1,0.6,0.2,0.9,0.2c1.4,0,2.5-1.1,2.5-2.5c0-0.7-0.3-1.2-0.7-1.7l0,0L30,25.1l0-7.1l11.5-4.2c0.1,0,0.1-0.1,0.2-0.1c0.8-0.4,1.3-1.2,1.3-2.2C43,10.8,42.7,10.2,42.2,9.7z"/></svg>