<?xml version="1.0" encoding="utf-8"?><!-- Generator: Adobe Illustrator 19.1.1, SVG Export Plug-In . SVG Version: 6.00 Build 0)  --><svg xmlns="http://www.w3.org/2000/svg" xmlns:xlink="http://www.w3.org/1999/xlink" viewBox="0 0 50 50" width="50px" height="50px"><path d="M7,30c0-0.1,0-1.7,1.1-2.8C8,26.8,8,26.3,8,25.8C8,24,8.5,22.4,9.3,21c-0.1,0-0.1,0-0.2,0C5.7,21,2,24.4,2,30c0,0.6,0.4,1,1,1h3C6.6,31,7,30.6,7,30z"/><path d="M25.5,9C23.6,9,22,7.4,22,5.5S23.6,2,25.5,2C27.4,2,29,3.6,29,5.5S27.4,9,25.5,9z"/><path d="M22.1,38.1c0.3-0.6,0.8-1.6,1.1-3c-0.9-0.2-1.8-0.4-2.5-0.7c-0.9,1.7-2.3,3.1-3.6,4.2c0,0,0,0,0,0l3.2,8.7c0.1,0.4,0.5,0.7,0.9,0.7h2.9c0.3,0,0.6-0.2,0.8-0.4s0.2-0.6,0.1-0.9L22.1,38.1z"/><path d="M38.2,33.2c-0.1,0.1-0.2,0.3-0.4,0.4c-0.5,3.8-1.3,8-1.7,10c0.2,0.4,0.3,0.8,0.5,1.3c0,0,0,0,0.1,0c0.3,0,0.5-0.2,0.7-0.4l2.5-3.5c0.2-0.3,0.2-0.6,0.1-0.9C39.9,40,38.8,37,38.2,33.2z"/><path d="M32,13.8c-0.1-0.2-0.3-0.4-0.6-0.5l-3.8-1.1c0.2-1.4-0.7-2.8-2.1-3.2C24,8.5,22.4,9.4,22,11l-1.9,6.2c-0.5,1.5,0.2,3.1,1.5,3.9l3.6,2.2l-1.4,3.3c-0.1,0.1-0.3,0.8-0.1,1.6c0.2,0.4,0.5,0.8,0.9,1c0.2,0.1,0.5,0.2,0.7,0.2c0.8,0,1.5-0.6,1.9-1.4l1.4-3.5c0.6-1.5,0.2-3.2-1.1-4.2l-1.9-1.4l1-3.2l3.7,1.1c0.5,0.2,1.1-0.1,1.2-0.7l0.5-1.5C32.1,14.3,32.1,14,32,13.8z"/><path d="M46.4,14.7l-1.8-2C44.2,12,43,9.8,40.4,9.2c0.2-0.9,0.1-2-0.7-2.9c-0.4-0.4-1-0.4-1.4,0C38,6.5,38,6.9,38,7.2c-3.7,0.9-5.9,3.4-7.2,5.9L30,15c-0.1,0.2-0.1,0.4-0.2,0.6l-0.5,1.9c-0.1,0.6-0.2,1.1-0.3,1.4c1.8,1.6,2.4,4.1,1.4,6.2L29,28.6l0,0.1l0,0.1c-0.8,1.6-2.2,2.5-3.7,2.5c-0.5,0-1-0.1-1.5-0.3c-0.9-0.4-1.6-1.2-2-2.1c-0.5-1.4-0.1-2.7,0.1-3.1l0.7-1.7l-2.1-1.3C19.2,22,18.3,20.6,18,19c-0.3,0-0.6,0-0.9,0c-4.4,0-7.1,2.6-7.1,6.8c0,2.5,0.8,3.7,1.4,4.5c0.3,0.5,0.5,0.7,0.5,1c0,0.8-0.9,1.9-2,3.3c-0.5,0.6-1,1.2-1.5,1.9c-0.1,0.2-0.2,0.4-0.2,0.6V47c0,0.6,0.4,1,1,1h2.9c0.6,0,1-0.4,1-1v-8.1c1.5-0.9,5.4-3.5,6.3-7c1.9,0.7,5.8,1.9,10.8,2.1c-0.4,4.3-1.2,9.8-1.2,9.9c0,0.2,0,0.5,0.1,0.7c0.2,0.4,0.9,1.6,0.9,2.5c0,0.6,0.4,1,1,1h3c0.6,0,1-0.4,1-1c0-1.2-0.6-2.5-0.9-3.2c0.3-1.5,1.4-6.9,1.9-11.3c0.9-0.7,2.9-2.6,2.9-5.6c0-0.6,0-1.3-0.1-2c-0.1-2.1-0.2-5.2,0.6-6.4c1.2,0.3,2.5,0.2,3.3,0c0.9,0.3,2.6,0.7,2.7,0.7c0.1,0,0.2,0,0.3,0c0.3,0,0.5-0.1,0.7-0.3C47.5,17.8,47.5,15.9,46.4,14.7z"/></svg>