<?xml version="1.0" encoding="iso-8859-1"?>
<!-- Generator: Adobe Illustrator 18.0.0, SVG Export Plug-In . SVG Version: 6.00 Build 0)  -->
<!DOCTYPE svg PUBLIC "-//W3C//DTD SVG 1.1//EN" "http://www.w3.org/Graphics/SVG/1.1/DTD/svg11.dtd">
<svg version="1.1" id="Layer_1" xmlns="http://www.w3.org/2000/svg" xmlns:xlink="http://www.w3.org/1999/xlink" x="0px" y="0px"
	 width="50px" height="50px" viewBox="0 0 50 50" style="enable-background:new 0 0 50 50;" xml:space="preserve">
<polygon points="3,9 16,9 7.833,3 3,3 "/>
<path d="M3,14h11c1.105,0,2-0.895,2-2v-1H3V14z"/>
<polygon points="47,9 34,9 42.167,3 47,3 "/>
<path d="M47,14H36c-1.105,0-2-0.895-2-2v-1h13V14z"/>
<path d="M4,39c2.773,0,5.059-1.563,5.305-1.738c0.184-0.172,0.426-0.27,0.676-0.273c0.047,0,0.094,0.004,0.145,0.012
	c0.016,0,0.035,0.004,0.055,0.004c0.27,0.047,0.508,0.203,0.66,0.43C11.012,37.633,12.273,39,15,39c0.453,0,0.852-0.047,1.226-0.111
	C17.303,35.498,20.82,33,25,33c4.18,0,7.698,2.499,8.774,5.889C34.148,38.953,34.546,39,35,39c2.711,0,3.973-1.348,4.156-1.563
	c0.113-0.168,0.273-0.297,0.461-0.375c0.004,0,0.008-0.004,0.012-0.004c0.012-0.004,0.023-0.008,0.031-0.012
	c0.375-0.141,0.797-0.047,1.074,0.242C41.086,37.531,43.301,39,46,39c0,0,0,0,0,0h1V13.277H35v17.3l-6.097-3.511
	C28.828,27.023,28.741,27,28.654,27h-7.308c-0.087,0-0.174,0.023-0.25,0.066L15,30.577v-17.3H3V39L4,39C4,39,4,39,4,39z M40,18.5
	c0-0.524,0.792-1.553,1.5-2.294c0.708,0.74,1.5,1.769,1.5,2.294V23h-3V18.5z M40,29.5c0-0.827,0.673-1.5,1.5-1.5s1.5,0.673,1.5,1.5
	V34h-3V29.5z M7,18.5c0-0.524,0.792-1.553,1.5-2.294c0.708,0.74,1.5,1.769,1.5,2.294V23H7V18.5z M7,29.5C7,28.673,7.673,28,8.5,28
	s1.5,0.673,1.5,1.5V34H7V29.5z"/>
<g>
	<path d="M20.008,38.98c-0.102,0-0.203,0.016-0.301,0.051c-0.223,0.066-0.414,0.207-0.547,0.402C18.988,39.637,17.723,41,15,41
		c-2.727,0-3.988-1.367-4.16-1.566c-0.152-0.227-0.391-0.383-0.66-0.43c-0.02,0-0.039-0.004-0.055-0.004
		c-0.051-0.008-0.098-0.012-0.145-0.012c-0.25,0.004-0.492,0.102-0.676,0.273C9.059,39.438,6.773,41,4,41
		c-0.359-0.004-0.695,0.184-0.879,0.496c-0.18,0.313-0.18,0.695,0,1.008C3.305,42.816,3.641,43.004,4,43
		c2.656,0,4.848-1.105,5.906-1.746C10.785,41.953,12.5,43,15,43c2.406,0,4.094-0.977,5-1.672C20.906,42.023,22.594,43,25,43
		s4.094-0.977,5-1.672C30.906,42.023,32.594,43,35,43c2.5,0,4.215-1.047,5.094-1.746C41.152,41.895,43.344,43,46,43
		c0.359,0.004,0.695-0.184,0.879-0.496c0.18-0.313,0.18-0.695,0-1.008c-0.184-0.313-0.52-0.5-0.879-0.496
		c-2.699,0-4.914-1.469-5.266-1.711c-0.277-0.289-0.699-0.383-1.074-0.242c-0.008,0.004-0.02,0.008-0.031,0.012
		c-0.004,0-0.008,0.004-0.012,0.004c-0.188,0.078-0.348,0.207-0.461,0.375C38.973,39.652,37.711,41,35,41
		c-2.621,0-3.875-1.254-4.125-1.531c-0.242-0.398-0.723-0.582-1.168-0.438c-0.223,0.066-0.414,0.207-0.547,0.402
		C28.988,39.637,27.723,41,25,41c-2.621,0-3.875-1.254-4.125-1.531C20.691,39.164,20.363,38.977,20.008,38.98z M20.008,43.98
		c-0.102,0-0.203,0.016-0.301,0.051c-0.223,0.066-0.414,0.207-0.547,0.402C18.988,44.637,17.723,46,15,46
		c-2.727,0-3.988-1.367-4.16-1.566c-0.152-0.227-0.391-0.383-0.66-0.43c-0.02,0-0.039-0.004-0.055-0.004
		c-0.051-0.008-0.098-0.012-0.145-0.012c-0.25,0.004-0.492,0.102-0.676,0.273C9.059,44.438,6.773,46,4,46
		c-0.359-0.004-0.695,0.184-0.879,0.496c-0.18,0.313-0.18,0.695,0,1.008C3.305,47.816,3.641,48.004,4,48
		c2.656,0,4.848-1.105,5.906-1.746C10.785,46.953,12.5,48,15,48c2.406,0,4.094-0.977,5-1.672C20.906,47.023,22.594,48,25,48
		s4.094-0.977,5-1.672C30.906,47.023,32.594,48,35,48c2.5,0,4.215-1.047,5.094-1.746C41.152,46.895,43.344,48,46,48
		c0.359,0.004,0.695-0.184,0.879-0.496c0.18-0.313,0.18-0.695,0-1.008c-0.184-0.313-0.52-0.5-0.879-0.496
		c-2.699,0-4.914-1.469-5.266-1.711c-0.277-0.289-0.699-0.383-1.074-0.242c-0.008,0.004-0.02,0.008-0.031,0.012
		c-0.004,0-0.008,0.004-0.012,0.004c-0.188,0.078-0.348,0.207-0.461,0.375C38.973,44.652,37.711,46,35,46
		c-2.621,0-3.875-1.254-4.125-1.531c-0.242-0.398-0.723-0.582-1.168-0.438c-0.223,0.066-0.414,0.207-0.547,0.402
		C28.988,44.637,27.723,46,25,46c-2.621,0-3.875-1.254-4.125-1.531C20.691,44.164,20.363,43.977,20.008,43.98z"/>
</g>
</svg>