<?xml version="1.0" encoding="utf-8"?><!-- Generator: Adobe Illustrator 15.0.0, SVG Export Plug-In . SVG Version: 6.00 Build 0)  --><!DOCTYPE svg PUBLIC "-//W3C//DTD SVG 1.1//EN" "http://www.w3.org/Graphics/SVG/1.1/DTD/svg11.dtd"><svg xmlns="http://www.w3.org/2000/svg" xmlns:xlink="http://www.w3.org/1999/xlink" viewBox="0 0 50 50" width="50px" height="50px"><path d="M16.99,21.672l0.073-0.113c-0.023,0.013-0.047,0.024-0.071,0.037C16.993,21.622,16.99,21.646,16.99,21.672z"/><path d="M25,0c-8.626,0-13,3.028-13,9v13.536c0.113-0.095,0.209-0.178,0.334-0.282c1.082-0.898,2.76-1.986,4.85-2.976C17.921,14.791,20.776,12,25,12c-2.209,0-4-1.791-4-4s1.791-4,4-4s4,1.791,4,4s-1.791,4-4,4c4.089,0,6.008,2.07,6.716,3.542c1.918-0.067,3.874-0.004,5.612,0.375c0.268,0.059,0.481,0.108,0.672,0.154V9C38,3.028,33.626,0,25,0z"/><g><path d="M26.904,25.588c1.797,1.23,2.642,1.725,3.188,1.343c3.323-2.333,5.478-6.639,5.857-9.249c-6.113-1.06-14.062,1.383-18.886,3.876c-0.023,0.013-0.047,0.024-0.071,0.037c-0.049,0.026-0.093,0.052-0.142,0.077C21.507,21.908,24.662,24.054,26.904,25.588z"/><path d="M31.241,28.568c-0.511,0.359-1.021,0.511-1.537,0.511c-1.24,0-2.517-0.874-3.929-1.84c-2.665-1.824-7.15-4.364-11.894-3.447c-0.866,0.208-1.366,0.676-1.799,1.298c0.7,10.025,5.75,23.643,5.981,24.26C18.209,49.741,18.583,50,19,50h12c0.417,0,0.791-0.259,0.937-0.649C32.185,48.688,38,33.013,38,22.915v-5.677C37.838,20.589,35.169,25.812,31.241,28.568z"/></g></svg>