<?xml version="1.0" encoding="iso-8859-1"?><!-- Generator: Adobe Illustrator 20.1.0, SVG Export Plug-In . SVG Version: 6.00 Build 0)  --><svg xmlns="http://www.w3.org/2000/svg" xmlns:xlink="http://www.w3.org/1999/xlink" viewBox="0 0 50 50" width="50px" height="50px"><polygon points="17,2 15.91,4.31 13.41,4.59 15.31,6.31 14.81,8.91 17,7.59 19.19,8.91 18.69,6.31 20.59,4.59 18.09,4.31 "/><polygon points="25,2 23.91,4.31 21.41,4.59 23.31,6.31 22.81,8.91 25,7.59 27.19,8.91 26.69,6.31 28.59,4.59 26.09,4.31 "/><polygon points="33,2 31.91,4.31 29.41,4.59 31.31,6.31 30.81,8.91 33,7.59 35.19,8.91 34.69,6.31 36.59,4.59 34.09,4.31 "/><polygon style="fill:none;stroke:#000000;stroke-width:2;stroke-miterlimit:10;" points="4,32 11,32 11,37 11.167,37 19,29 11.167,21 11,21 11,26 4,26 "/><path d="M38.69,9H11.31C8.38,9.005,6.005,11.38,6,14.31V26h5v-5h0.167L19,29l-7.833,8H11v-5H6v15c0,0.552,0.448,1,1,1h36c0.552,0,1-0.448,1-1V14.31C43.995,11.38,41.62,9.005,38.69,9z M18,22h-3.444L12,19.419V16h6V22z M18,42h-6v-3.418L14.539,36H18V42z M28,46h-6V36h6V46z M28,32h-6v-6h6V32z M28,22h-6v-6h6V22z M38,42h-6v-6h6V42z M38,32h-6v-6h6V32z M38,22h-6v-6h6V22z"/></svg>