<?xml version="1.0" encoding="iso-8859-1"?><!-- Generator: Adobe Illustrator 21.1.0, SVG Export Plug-In . SVG Version: 6.00 Build 0)  --><svg xmlns="http://www.w3.org/2000/svg" xmlns:xlink="http://www.w3.org/1999/xlink" viewBox="0 0 50 50" width="50px" height="50px"><path d="M47.9,42.13v2.75c0,1.17-0.94,2.12-2.1,2.12H4.1C2.92,47,2,46.02,2,44.78v-2.75c0-0.61,0.26-1.19,0.72-1.58C3.07,40.16,3.56,40,4,40c0.08,0,41.8,0.01,41.8,0.01C46.96,40.01,47.9,40.96,47.9,42.13z"/><path d="M45,18v1.4c0,1.25-0.84,2.27-2,2.53V38h-8V21.93c-1.16-0.26-2-1.28-2-2.53V18H45z"/><path d="M31,18v1.4c0,1.25-0.84,2.27-2,2.53V38h-8V21.93c-1.16-0.26-2-1.28-2-2.53V18H31z"/><path d="M17,18v1.4c0,1.25-0.84,2.27-2,2.53V38H7V21.93c-1.16-0.26-2-1.28-2-2.53V18H17z"/><path d="M47,14v2H3v-2c0-0.37,0.21-0.71,0.54-0.89l21-11c0.29-0.15,0.63-0.15,0.92,0l21,11C46.79,13.29,47,13.63,47,14z"/></svg>