<?xml version="1.0" encoding="iso-8859-1"?><!-- Generator: Adobe Illustrator 19.1.1, SVG Export Plug-In . SVG Version: 6.00 Build 0)  --><svg xmlns="http://www.w3.org/2000/svg" xmlns:xlink="http://www.w3.org/1999/xlink" viewBox="0 0 50 50" width="50px" height="50px"><path d="M25,8c0,0.003-0.002,0.005-0.002,0.008C24.998,8.01,25,8.013,25,8.016c-0.006,0.415-0.175,9.332-2.375,14.866l25.636-1.831c-0.044-0.012-0.083-0.036-0.129-0.042C47.969,20.987,31.888,18.732,25,7.704V8z"/><path d="M20.409,22.967C22.812,17.998,22.998,8.088,23,7.984V7.734c-0.757,1.248-5.719,8.542-21.156,14.256L20.409,22.967z"/><path d="M20,24.949l-19-1V38c0,0.473,0.331,0.881,0.794,0.979L20,42.811V24.949z"/><path d="M22,24.931v17.932l9.146-1.355C31.637,41.436,32,41.015,32,40.519V28.583L40,28v11c0,0.291,0.127,0.567,0.347,0.757c0.22,0.19,0.514,0.271,0.8,0.232l7-1C48.637,38.917,49,38.496,49,38V23.002L22,24.931z"/></svg>