<?xml version="1.0" encoding="utf-8"?><!-- Generator: Adobe Illustrator 15.0.0, SVG Export Plug-In . SVG Version: 6.00 Build 0)  --><!DOCTYPE svg PUBLIC "-//W3C//DTD SVG 1.1//EN" "http://www.w3.org/Graphics/SVG/1.1/DTD/svg11.dtd"><svg xmlns="http://www.w3.org/2000/svg" xmlns:xlink="http://www.w3.org/1999/xlink" viewBox="0 0 50 50" width="50px" height="50px"><circle cx="25" cy="20" r="3"/><path d="M25,1.8c-9.705,0-17.6,7.896-17.6,17.6c0,11.224,10.708,22.116,16.46,27.966l1.14,1.16l1.138-1.157C31.891,41.52,42.6,30.631,42.6,19.4C42.6,9.695,34.704,1.8,25,1.8z M34,24c0,1.1-0.9,2-2,2H18c-1.1,0-2-0.9-2-2v-8c0-1.1,0.9-2,2-2h3l0.7-1.4c0.2-0.4,0.5-0.6,0.9-0.6h4.8c0.399,0,0.699,0.3,0.899,0.6L29,14h3c1.1,0,2,0.9,2,2V24z"/></svg>