<?xml version="1.0" encoding="iso-8859-1"?><!-- Generator: Adobe Illustrator 22.1.0, SVG Export Plug-In . SVG Version: 6.00 Build 0)  --><svg xmlns="http://www.w3.org/2000/svg" xmlns:xlink="http://www.w3.org/1999/xlink" viewBox="0 0 50 50" width="50px" height="50px"><path d="M30.156,24c0,0,5.333,0,5.689,0C36.822,24,37,24.498,37,25.393C37,26.6,36.625,27,36.125,27c-0.875,0-2.125-1-3.75-1C30,26,29,25.127,29,24.5C29,24.002,29.5,24,30.156,24z"/><polygon style="fill:none;stroke:#000000;stroke-width:2;stroke-linecap:round;stroke-linejoin:round;stroke-miterlimit:10;" points="32,29 38,40 26,40 17,29 "/><path style="fill:none;stroke:#000000;stroke-width:2;stroke-linecap:round;stroke-linejoin:round;stroke-miterlimit:10;" d="M12,40c3.483-10.36,5-14.72,5-15h5"/><line style="fill:none;stroke:#000000;stroke-width:2;stroke-linecap:round;stroke-linejoin:round;stroke-miterlimit:10;" x1="26" y1="40" x2="34" y2="25"/><circle style="fill:none;stroke:#000000;stroke-width:1.9999;stroke-linecap:round;stroke-linejoin:round;stroke-miterlimit:10;" cx="12" cy="40" r="7"/><circle style="fill:none;stroke:#000000;stroke-width:1.9999;stroke-linecap:round;stroke-linejoin:round;stroke-miterlimit:10;" cx="38" cy="40" r="7"/><path d="M27.882,8H25v2h2.882C28.354,10,29,10,29,9S28.354,8,27.882,8z"/><path d="M33,2H19c-1.654,0-3,1.346-3,3v13c0,1.654,1.346,3,3,3h14c1.654,0,3-1.346,3-3V5C36,3.346,34.654,2,33,2z M27.882,12H25v5h-2v-5V6h2h2.882C30.863,6,31,8.529,31,9S30.863,12,27.882,12z"/></svg>