<?xml version="1.0" encoding="utf-8"?><!-- Generator: Adobe Illustrator 15.0.0, SVG Export Plug-In . SVG Version: 6.00 Build 0)  --><!DOCTYPE svg PUBLIC "-//W3C//DTD SVG 1.1//EN" "http://www.w3.org/Graphics/SVG/1.1/DTD/svg11.dtd"><svg xmlns="http://www.w3.org/2000/svg" xmlns:xlink="http://www.w3.org/1999/xlink" viewBox="0 0 50 50" width="50px" height="50px"><line fill="none" stroke="#000000" stroke-width="2" stroke-miterlimit="10" x1="18" y1="21" x2="32" y2="21"/><line fill="none" stroke="#000000" stroke-width="2" stroke-miterlimit="10" x1="25" y1="36" x2="25" y2="25"/><line fill="none" stroke="#000000" stroke-width="2" stroke-miterlimit="10" x1="4.692" y1="12.905" x2="45.309" y2="2.846"/><circle cx="28" cy="4" r="2"/><circle cx="20" cy="6" r="2"/><path fill="none" stroke="#000000" stroke-width="2" stroke-miterlimit="10" d="M25,21c4.488-6.437,0-13.058,0-13.058"/><path d="M36.96,24.295L36.666,24H13.342l-0.292,0.285C12.885,24.447,9,28.334,9,36s3.885,11.554,4.051,11.715L13.342,48h23.324l0.294-0.295C37.124,47.539,41,43.55,41,36S37.124,24.461,36.96,24.295z M14.197,26h21.599c0.754,0.927,2.916,3.998,3.178,9H11.052C11.316,29.939,13.451,26.897,14.197,26z"/></svg>