<?xml version="1.0" encoding="iso-8859-1"?>
<!-- Generator: Adobe Illustrator 23.0.3, SVG Export Plug-In . SVG Version: 6.00 Build 0)  -->
<svg version="1.1" id="Layer_1" xmlns="http://www.w3.org/2000/svg" xmlns:xlink="http://www.w3.org/1999/xlink" x="0px" y="0px"
	 viewBox="0 0 50 50" style="enable-background:new 0 0 50 50;" xml:space="preserve">
<g id="surface1_5_">
	<path d="M33,7.5c0,2.484,2.016,4.5,4.496,4.5C39.988,12,42,9.984,42,7.5S39.988,3,37.496,3C35.016,3,33,5.016,33,7.5z"/>
	<path d="M36.34,31.508l-5.402-4.789l4.672-9.234l-1.418-4.242l-2.508-1.395l-8.164-1.781l-1.633,0.258l-6.93,4.973l2.332,3.23
		l5.992-4.309l4.41,1.398l-4.934,8.043l1.41,5.887l7.586,4.68l-1.703,8.785l4.906,0.949l2.027-10.672L36.34,31.508z"/>
	<path d="M35,43.5c0,1.379-1.121,2.5-2.5,2.5S30,44.879,30,43.5s1.121-2.5,2.5-2.5S35,42.121,35,43.5z"/>
	<path d="M18,17c0,1.105-0.895,2-2,2s-2-0.895-2-2s0.895-2,2-2S18,15.895,18,17z"/>
	<path d="M25,12c0,1.105-0.895,2-2,2s-2-0.895-2-2s0.895-2,2-2S25,10.895,25,12z"/>
	<path d="M36,16c0,1.656-1.344,3-3,3s-3-1.344-3-3s1.344-3,3-3S36,14.344,36,16z"/>
	<path d="M37,33c0,1.105-0.895,2-2,2s-2-0.895-2-2s0.895-2,2-2S37,31.895,37,33z"/>
	<path d="M30,26c0,2.211-1.789,4-4,4s-4-1.789-4-4s1.789-4,4-4S30,23.789,30,26z"/>
	<path d="M45,23h-6l-1.785-4.258l-2.242,4.43l1.207,2.668l0.012,0.008C36.512,26.527,37.199,27,38,27h7c1.105,0,2-0.895,2-2
		S46.105,23,45,23z"/>
	<path d="M23.047,31.203c-1.145-0.648-2.016-1.633-2.527-2.789L18.242,32H10.5C9.117,32,8,33.117,8,34.5S9.117,37,10.5,37h8.434
		c1.297,0,2.512-0.629,3.262-1.688l2.285-3.223C23.652,31.578,23.055,31.207,23.047,31.203z"/>
</g>
<path d="M15.047,21.809l-4.443-4.787c-0.751-0.811-2.019-0.856-2.826-0.106l-3.179,2.949c-0.808,0.749-0.855,2.017-0.106,2.827
	l4.443,4.788c0.001,0,0.001,0,0.001,0c0.363,0.392,0.857,0.617,1.391,0.638c0.025,0.001,0.052,0.001,0.077,0.001
	c0.506,0,0.986-0.188,1.357-0.533l3.18-2.95c0.392-0.363,0.617-0.857,0.638-1.391C15.6,22.71,15.41,22.199,15.047,21.809z"/>
</svg>