<?xml version="1.0" encoding="iso-8859-1"?><!-- Generator: Adobe Illustrator 20.1.0, SVG Export Plug-In . SVG Version: 6.00 Build 0)  --><svg xmlns="http://www.w3.org/2000/svg" xmlns:xlink="http://www.w3.org/1999/xlink" viewBox="0 0 50 50" width="50px" height="50px"><path d="M25,20c-2.209,0-4,1.791-4,4c0,0.552,0.448,1,1,1s1-0.448,1-1l0,0c0-1.105,0.895-2,2-2s2,0.895,2,2c0.057,0.872-0.374,1.704-1.12,2.16c-0.415,0.299-0.804,0.633-1.16,1C24.27,27.669,24.015,28.321,24,29v1.38C23.46,30.62,3.52,40.58,3,41c-0.611,0.487-0.977,1.219-1,2c0,1.657,1.343,3,3,3h40c1.657,0,3-1.343,3-3c-0.026-0.781-0.391-1.511-1-2c-0.53-0.43-19.93-10.11-21-10.59V29c-0.011-0.201,0.07-0.396,0.22-0.53c0.287-0.278,0.591-0.539,0.91-0.78c1.158-0.877,1.848-2.238,1.87-3.69C29,21.791,27.209,20,25,20z M25,32.09c0.75,0.34,20.52,10.25,20.75,10.44S46,42.76,46,43c0,0.552-0.448,1-1,1H5c-0.552,0-1-0.448-1-1c0-0.23,0-0.25,0.25-0.44S24.62,32.27,25,32.09z"/><path d="M45.63,16.17l-1.78-0.8c-0.042,0.698-0.229,1.379-0.55,2l-0.08,0.16c-0.291,0.556-0.709,1.035-1.22,1.4l2,0.9c0.992,0.486,2.19,0.077,2.676-0.915c0.486-0.992,0.077-2.19-0.915-2.676c-0.043-0.021-0.087-0.041-0.131-0.059V16.17z"/><path d="M24.14,13.6c0.13-0.35,0.42-1,1.22-0.75c3.1,0.94,8.57,3.3,12.46,4.85c1.381,0.594,2.981-0.044,3.575-1.425s-0.044-2.981-1.425-3.575L34.44,10C28.89,7.4,21.24,4,14,4l0,0C4.6,3.57,3.24,8.64,3.05,12.5c-0.029,0.668,0.001,1.337,0.09,2c0.73,2.57,5.78,3.28,10.15,3.5s9.25,0.08,10.42-2.41C23.911,14.94,24.054,14.275,24.14,13.6z"/></svg>