<?xml version="1.0" encoding="utf-8"?><!-- Generator: Adobe Illustrator 15.0.0, SVG Export Plug-In . SVG Version: 6.00 Build 0)  --><!DOCTYPE svg PUBLIC "-//W3C//DTD SVG 1.1//EN" "http://www.w3.org/Graphics/SVG/1.1/DTD/svg11.dtd"><svg xmlns="http://www.w3.org/2000/svg" xmlns:xlink="http://www.w3.org/1999/xlink" viewBox="0 0 50 50" width="50px" height="50px"><path d="M38,24c-2.757,0-5-2.243-5-5s2.243-5,5-5s5,2.243,5,5S40.757,24,38,24z"/><path d="M25,24c-2.757,0-5-2.243-5-5s2.243-5,5-5s5,2.243,5,5S27.757,24,25,24z"/><path d="M12,24c-2.757,0-5-2.243-5-5s2.243-5,5-5s5,2.243,5,5S14.757,24,12,24z"/><path d="M31,14c-2.206,0-4-1.794-4-4s1.794-4,4-4s4,1.794,4,4S33.206,14,31,14z"/><path d="M18,14c-2.206,0-4-1.794-4-4s1.794-4,4-4s4,1.794,4,4S20.206,14,18,14z"/><path d="M50.1,26.8c0-1.306-0.141-2.382-0.434-3.36l-4.1-15.19C44.768,5.159,41.984,3,38.8,3H11.3C8.115,3,5.332,5.159,4.532,8.25L0.434,23.44C0.141,24.418,0,25.494,0,26.8V41v1.1V47c0,1.654,1.346,3,3,3h4c1.654,0,3-1.346,3-3v-1.9h30V47c0,1.654,1.346,3,3,3h4c1.654,0,3-1.346,3-3v-4.113c0.059-0.223,0.1-0.451,0.1-0.687V26.8z M2.572,23.076L6.366,8.66C6.946,6.505,8.934,5,11.2,5h0.1h27.5H38.9c2.266,0,4.254,1.505,4.834,3.66l3.793,14.415c0.138,0.689,0.191,1.453-0.201,1.962C46.84,25.667,45.654,26,43.898,26H43.7H6.399H6.2c-1.755,0-2.94-0.333-3.427-0.963C2.38,24.529,2.434,23.764,2.572,23.076z M14.1,36c0,1.1-0.9,2-2,2H12H7.1H7c-1.1,0-2-0.9-2-2v-1c0-1.1,0.9-2,2-2h0.1H12h0.1c1.1,0,2,0.9,2,2V36z M38,38c-1.1,0-2-0.9-2-2v-1c0-1.1,0.9-2,2-2h0.1H43h0.1c1.101,0,2,0.9,2,2v1c0,1.1-0.899,2-2,2H43h-4.9H38z"/></svg>