<?xml version="1.0" encoding="iso-8859-1"?><!-- Generator: Adobe Illustrator 21.1.0, SVG Export Plug-In . SVG Version: 6.00 Build 0)  --><svg xmlns="http://www.w3.org/2000/svg" xmlns:xlink="http://www.w3.org/1999/xlink" viewBox="0 0 50 50" width="50px" height="50px"><rect x="10" y="20" width="2" height="14"/><rect x="15" y="16" width="5" height="2"/><path d="M44,8H6c-2.757,0-5,2.243-5,5v24c0,2.757,2.243,5,5,5h38c2.757,0,5-2.243,5-5V13C49,10.243,46.757,8,44,8z M29,34c0,1.103-0.897,2-2,2H8c-1.103,0-2-0.897-2-2V20c0-1.103,0.897-2,2-2h5v-2c0-1.103,0.897-2,2-2h5c1.103,0,2,0.897,2,2v2h5c1.103,0,2,0.897,2,2V34z M32,35c-0.552,0-1-0.448-1-1c0-0.552,0.448-1,1-1s1,0.448,1,1C33,34.552,32.552,35,32,35z M35,35c-0.552,0-1-0.448-1-1c0-0.552,0.448-1,1-1s1,0.448,1,1C36,34.552,35.552,35,35,35z M38,35c-0.552,0-1-0.448-1-1c0-0.552,0.448-1,1-1s1,0.448,1,1C39,34.552,38.552,35,38,35z M41,35c-0.552,0-1-0.448-1-1c0-0.552,0.448-1,1-1s1,0.448,1,1C42,34.552,41.552,35,41,35z"/><rect x="23" y="20" width="2" height="14"/></svg>