<?xml version="1.0" encoding="utf-8"?><!-- Generator: Adobe Illustrator 15.0.0, SVG Export Plug-In . SVG Version: 6.00 Build 0)  --><!DOCTYPE svg PUBLIC "-//W3C//DTD SVG 1.1//EN" "http://www.w3.org/Graphics/SVG/1.1/DTD/svg11.dtd"><svg xmlns="http://www.w3.org/2000/svg" xmlns:xlink="http://www.w3.org/1999/xlink" viewBox="0 0 50 50" width="50px" height="50px"><path d="M25,12c-3.309,0-6-2.691-6-6s2.691-6,6-6s6,2.691,6,6S28.309,12,25,12z"/><g><path d="M35,22H15v-2c0-3.86,3.14-7,7-7h6c3.859,0,7,3.14,7,7V22z"/></g><rect x="42" y="19" width="2" height="1"/><path d="M48,25h-2c0-1.654-1.346-3-3-3s-3,1.346-3,3h-2c0-2.757,2.243-5,5-5S48,22.243,48,25z"/><path d="M49,30H1c-0.552,0-1-0.447-1-1v-4c0-0.552,0.448-1,1-1h48c0.553,0,1,0.448,1,1v4C50,29.553,49.553,30,49,30z"/><g><path d="M2,32v17c0,0.553,0.448,1,1,1h44c0.553,0,1-0.447,1-1V32H2z"/></g></svg>