<?xml version="1.0" encoding="iso-8859-1"?><!-- Generator: Adobe Illustrator 22.1.0, SVG Export Plug-In . SVG Version: 6.00 Build 0)  --><svg xmlns="http://www.w3.org/2000/svg" xmlns:xlink="http://www.w3.org/1999/xlink" viewBox="0 0 50 50" width="50px" height="50px"><path d="M50,47L0,46.961v-7.909c0-2.151,0.886-4.258,2.432-5.778c1.521-1.496,3.472-2.29,5.601-2.269c3.135,0.052,4.813,1.068,6.438,2.053C16.118,34.057,17.676,35,21,35h6c4.705,0,6.688,2.007,8.281,3.62C36.596,39.949,37.633,41,40,41h5c2.757,0,5,2.243,5,5V47z"/><path d="M37,16c-2.206,0-4-1.794-4-4s1.794-4,4-4s4,1.794,4,4S39.206,16,37,16z"/><polyline style="fill:none;stroke:#000000;stroke-width:2;stroke-linecap:round;stroke-linejoin:round;stroke-miterlimit:10;" points="39,27 43,23 47,27 "/><polyline style="fill:none;stroke:#000000;stroke-width:2;stroke-linecap:round;stroke-linejoin:round;stroke-miterlimit:10;" points="38,34 43,29 48,34 "/><path d="M7.79,29c-1.82,0-3.54,0.56-5.02,1.51l5.28-15.83c0.12-0.36,0.44-0.62,0.82-0.67s0.75,0.12,0.96,0.44l0.9,1.34l4.33-12.13C15.2,3.27,15.57,3.01,15.99,3c0.45-0.01,0.79,0.25,0.94,0.64l6.1,15.76l5.29,13.66C27.9,33.02,27.46,33,27,33h-6c-2.77,0-3.97-0.73-5.49-1.65C13.78,30.3,11.64,29,7.79,29z"/><path d="M44,39V23c0-0.553-0.447-1-1-1s-1,0.447-1,1v16H44z"/><path d="M30.615,33.447c2.789,0.709,4.477,2.164,5.685,3.363l-9.38-22.2C26.76,14.24,26.4,14,26,14s-0.76,0.24-0.92,0.61l-0.923,2.157L30.615,33.447z"/></svg>