<?xml version="1.0" encoding="utf-8"?><!-- Generator: Adobe Illustrator 15.0.0, SVG Export Plug-In . SVG Version: 6.00 Build 0)  --><!DOCTYPE svg PUBLIC "-//W3C//DTD SVG 1.1//EN" "http://www.w3.org/Graphics/SVG/1.1/DTD/svg11.dtd"><svg xmlns="http://www.w3.org/2000/svg" xmlns:xlink="http://www.w3.org/1999/xlink" viewBox="0 0 50 50" width="50px" height="50px"><line fill="none" stroke="#000000" stroke-width="2" stroke-linecap="round" stroke-linejoin="round" stroke-miterlimit="10" x1="1" y1="1" x2="49" y2="1"/><path d="M49,26h-2c-0.418,0-0.791-0.26-0.938-0.651C45.903,24.93,41.929,15,25,15C8.072,15,4.097,24.93,3.936,25.352C3.788,25.74,3.415,26,3,26H1c-0.552,0-1-0.448-1-1V10c0-0.552,0.448-1,1-1h48c0.553,0,1,0.448,1,1v15C50,25.552,49.553,26,49,26z"/><path d="M49.393,48.08c-0.192-0.082-19.252-8.359-19.252-19.834c0-5.418,0.815-8.733,1.546-10.621C29.752,17.235,27.539,17,25,17c-8.463,0-13.354,2.58-16.082,4.988C7.237,24.808,6,27.992,6,31.635c0,13.744,12.355,18.264,12.48,18.309C18.587,49.98,18.7,50,18.813,50H49c0.475,0,0.885-0.334,0.979-0.8C50.075,48.735,49.83,48.267,49.393,48.08z"/><path d="M16,8V1c0-0.552-0.448-1-1-1s-1,0.448-1,1v7H16z"/><path d="M46,8V1c0-0.552-0.447-1-1-1s-1,0.448-1,1v7H46z"/><path d="M6,8V1c0-0.552-0.448-1-1-1S4,0.448,4,1v7H6z"/><path d="M26,8V1c0-0.552-0.448-1-1-1s-1,0.448-1,1v7H26z"/><path d="M36,8V1c0-0.552-0.447-1-1-1s-1,0.448-1,1v7H36z"/></svg>