<?xml version="1.0" encoding="iso-8859-1"?><!-- Generator: Adobe Illustrator 22.1.0, SVG Export Plug-In . SVG Version: 6.00 Build 0)  --><svg xmlns="http://www.w3.org/2000/svg" xmlns:xlink="http://www.w3.org/1999/xlink" viewBox="0 0 50 50" width="50px" height="50px"><g></g><circle style="fill:none;stroke:#000000;stroke-width:2;stroke-linecap:round;stroke-linejoin:round;stroke-miterlimit:10;" cx="10.5" cy="33.5" r="3.5"/><circle style="fill:none;stroke:#000000;stroke-width:2;stroke-linecap:round;stroke-linejoin:round;stroke-miterlimit:10;" cx="41.5" cy="33.5" r="3.5"/><path style="fill:none;stroke:#000000;stroke-width:2;stroke-linecap:round;stroke-linejoin:round;stroke-miterlimit:10;" d="M5,22l1.053-3.809C7.224,15.069,10.209,13,13.544,13h14.984c1.515,0,2.9,0.856,3.578,2.211L35,22"/><line style="fill:none;stroke:#000000;stroke-width:2;stroke-linecap:round;stroke-linejoin:round;stroke-miterlimit:10;" x1="24" y1="22" x2="24" y2="13"/><line style="fill:none;stroke:#000000;stroke-width:2;stroke-linecap:round;stroke-linejoin:round;stroke-miterlimit:10;" x1="15" y1="22" x2="15" y2="13"/><path d="M48,24.171v-0.275c0-1.021-0.766-1.877-1.809-1.991L35,21H7c-4.187,0-7,3.346-7,8.325V33c0,0.489,0.354,0.906,0.835,0.986l6,1l0.507,0.001C7.129,34.534,7,34.034,7,33.5c0-1.933,1.567-3.5,3.5-3.5s3.5,1.567,3.5,3.5c0,0.539-0.132,1.043-0.349,1.499L14,35h23h1h0.35C38.132,34.544,38,34.039,38,33.5c0-1.933,1.567-3.5,3.5-3.5s3.5,1.567,3.5,3.5c0,0.539-0.132,1.044-0.35,1.5H45h4c0.552,0,1-0.447,1-1v-7C50,25.696,49.164,24.584,48,24.171z"/><line style="fill:none;stroke:#000000;stroke-width:2;stroke-linecap:round;stroke-linejoin:round;stroke-miterlimit:10;" x1="29" y1="13" x2="33" y2="13"/></svg>