<?xml version="1.0" encoding="utf-8"?><!-- Generator: Adobe Illustrator 15.0.0, SVG Export Plug-In . SVG Version: 6.00 Build 0)  --><!DOCTYPE svg PUBLIC "-//W3C//DTD SVG 1.1//EN" "http://www.w3.org/Graphics/SVG/1.1/DTD/svg11.dtd"><svg xmlns="http://www.w3.org/2000/svg" xmlns:xlink="http://www.w3.org/1999/xlink" viewBox="0 0 50 50" width="50px" height="50px"><path d="M5,44H3c-1.654,0-3-1.346-3-3V28c0-1.654,1.346-3,3-3h2V44z"/><path d="M23,50H8c-1.654,0-3-1.346-3-3v-3h21v3C26,48.654,24.654,50,23,50z"/><path d="M27.421,3.135L29.441,5H45V2.8c0-0.506-0.378-0.933-0.881-0.993L29.124,0.008c-0.748-0.09-1.47,0.25-1.871,0.897c-0.395,0.639-0.39,1.443,0.015,2.049C27.312,3.02,27.363,3.081,27.421,3.135z"/><path d="M31.08,12c0.487,3.387,3.4,6,6.92,6s6.433-2.613,6.92-6H31.08z"/><path d="M31,11h14v-1V7H29.586l-2.293,2.293c-0.286,0.286-0.372,0.716-0.217,1.09C27.23,10.756,27.596,11,28,11h1H31z"/><path d="M46,19H36c-2.426,0-4.691,1.278-5.931,3.34L15.135,42h9.394L29,36.154V49c0,0.553,0.447,1,1,1h19c0.553,0,1-0.447,1-1V23C50,20.757,48.243,19,46,19z M48,48H31v-3h17V48z M48,23.211L31,42.749V38.36L45.37,21H46c1.141,0,2,0.86,2,2V23.211z"/></svg>