<?xml version="1.0" encoding="iso-8859-1"?>
<!-- Generator: Adobe Illustrator 22.1.0, SVG Export Plug-In . SVG Version: 6.00 Build 0)  -->
<svg version="1.1" id="Layer_1" xmlns="http://www.w3.org/2000/svg" xmlns:xlink="http://www.w3.org/1999/xlink" x="0px" y="0px"
	 viewBox="0 0 50 50" style="enable-background:new 0 0 50 50;" xml:space="preserve">
<path d="M43,2H7C6.448,2,6,2.447,6,3v44c0,0.553,0.448,1,1,1h3V12c0-0.553,0.448-1,1-1h28c0.552,0,1,0.447,1,1v36h3
	c0.552,0,1-0.447,1-1V3C44,2.447,43.552,2,43,2z M20,8l2-3l2,3H20z M28,8l-2-3h4L28,8z"/>
<rect x="12" y="13" width="12" height="35"/>
<rect x="26" y="13" width="12" height="35"/>
</svg>