<?xml version="1.0" encoding="utf-8"?><!-- Generator: Adobe Illustrator 15.0.0, SVG Export Plug-In . SVG Version: 6.00 Build 0)  --><!DOCTYPE svg PUBLIC "-//W3C//DTD SVG 1.1//EN" "http://www.w3.org/Graphics/SVG/1.1/DTD/svg11.dtd"><svg xmlns="http://www.w3.org/2000/svg" xmlns:xlink="http://www.w3.org/1999/xlink" viewBox="0 0 50 50" width="50px" height="50px"><path d="M25,29c-3.309,0-6,2.691-6,6s2.691,6,6,6s6-2.691,6-6S28.309,29,25,29z M25,37c-1.104,0-2-0.895-2-2s0.896-2,2-2c1.104,0,2,0.895,2,2S26.104,37,25,37z"/><path fill="none" stroke="#000000" stroke-width="2" stroke-miterlimit="10" d="M32,35h3c4.418,0,8,3.582,8,8l0,0"/><path d="M28.632,23.054C27.5,21.483,26.431,20,25,20c-0.92,0-2.009,1.398-3.062,2.75c-0.621,0.797-1.279,1.631-2.009,2.352c0.493,0.144,1.017,0.425,1.564,0.726c1,0.549,2.135,1.172,3.501,1.172c1.374,0,2.53-0.629,3.551-1.185c0.589-0.321,1.152-0.625,1.661-0.751C29.631,24.437,29.119,23.73,28.632,23.054z"/><path d="M44.948,19.666l-0.974-6.421c-0.289-1.913-1.74-3.431-3.695-3.869C37.852,8.833,30.04,8,25,8C19.959,8,12.148,8.833,9.72,9.376c-1.954,0.438-3.404,1.956-3.695,3.869l-0.974,6.421c-0.196,1.293,0.189,2.614,1.058,3.624C7.043,24.376,8.425,25,9.9,25H16c1.65,0,3.028-1.769,4.36-3.479C21.771,19.71,23.103,18,25,18c2.454,0,3.941,2.063,5.254,3.884C31.409,23.487,32.5,25,34,25h6.1c1.475,0,2.857-0.624,3.792-1.71C44.76,22.28,45.145,20.959,44.948,19.666z"/></svg>