<?xml version="1.0" encoding="utf-8"?><!-- Generator: Adobe Illustrator 15.0.0, SVG Export Plug-In . SVG Version: 6.00 Build 0)  --><!DOCTYPE svg PUBLIC "-//W3C//DTD SVG 1.1//EN" "http://www.w3.org/Graphics/SVG/1.1/DTD/svg11.dtd"><svg xmlns="http://www.w3.org/2000/svg" xmlns:xlink="http://www.w3.org/1999/xlink" viewBox="0 0 50 50" width="50px" height="50px"><line fill="none" stroke="#000000" stroke-width="2" stroke-linecap="round" stroke-linejoin="round" stroke-miterlimit="10" x1="25" y1="26" x2="25" y2="42.8"/><g><path d="M11.569,20.586c0.821,0.291,2.052,0.614,3.531,0.614c1.877,0,3.269-0.52,3.933-0.827c0.211-6.822,1.522-11.102,2.802-13.681C17.981,8.962,12.253,13.487,11.569,20.586z"/><path d="M26.015,3.05V1c0-0.561-0.454-1.015-1.015-1.015S23.985,0.439,23.985,1v2.05C16.877,3.651,2.676,10.176,0.339,18.94c0.763,0.819,1.411,1.167,1.419,1.171C1.797,20.132,3.784,21.2,5.4,21.2c1.384,0,3.497-0.804,4.194-1.114c0.007-0.003,0.015-0.001,0.021-0.004C10.782,9.665,21.203,4.528,23.985,3.334c0.36-0.154,0.599-0.246,0.666-0.271c0.037-0.014,0.075-0.01,0.112-0.02c0.069-0.018,0.138-0.035,0.21-0.037c0.05-0.001,0.098,0.009,0.147,0.015c0.048,0.006,0.097,0.001,0.145,0.015c0.02,0.005,0.295,0.085,0.749,0.248C28.91,4.317,39.325,8.8,40.4,20.091c0.01,0.004,0.021,0.002,0.031,0.007c0.023,0.011,2.329,1.102,4.269,1.102c1.854,0,3.432-1.023,3.448-1.034c0.018-0.012,0.758-0.498,1.514-1.22C47.331,10.18,33.124,3.651,26.015,3.05z"/><path d="M28.957,20.344c-0.331-8.846-2.833-13.26-4.015-14.862c-1.175,1.446-3.607,5.545-3.909,14.877c0.802,0.323,2.322,0.842,3.866,0.842C26.464,21.2,28.095,20.671,28.957,20.344z"/><path d="M49.994,21.297c-0.418,0.325-0.721,0.523-0.753,0.544c-0.07,0.047-2.066,1.359-4.541,1.359c-1.852,0-3.836-0.741-4.696-1.104C39.14,22.463,37.127,23.2,34.9,23.2c-2.209,0-4.097-0.725-4.929-1.102C29.077,22.458,26.98,23.2,24.9,23.2c-2.041,0-3.985-0.713-4.863-1.086C19.226,22.51,17.47,23.2,15.1,23.2c-2.422,0-4.306-0.719-5.137-1.102C9.073,22.456,7.021,23.2,5.4,23.2c-2.13,0-4.48-1.269-4.579-1.322c-0.017-0.008-0.346-0.184-0.817-0.546C0.003,21.354,0,21.377,0,21.4C0,24.488,2.602,27,5.8,27c1.769,0,3.559-0.991,4.649-2.341C11.396,26.124,12.993,27,15,27c2.317,0,3.933-1.11,4.899-2.497C21.081,25.942,23.216,27,25,27c1.802,0,3.762-1.036,4.936-2.358C30.88,26.118,32.483,27,34.5,27c2.31,0,3.923-1.103,4.891-2.483C40.439,25.957,42.283,27,44.2,27c3.198,0,5.8-2.512,5.8-5.6C50,21.365,49.995,21.332,49.994,21.297z"/><path d="M34.9,21.2c1.375,0,2.659-0.344,3.533-0.647c-0.661-8.227-6.863-12.508-10.694-14.38c1.377,2.577,2.971,7.058,3.223,14.172C31.695,20.661,33.191,21.2,34.9,21.2z"/></g><g><circle cx="34" cy="48" r="1"/><circle cx="16" cy="48" r="1"/><circle cx="22" cy="48" r="1"/><circle cx="28" cy="48" r="1"/><circle cx="40" cy="48" r="1"/><circle cx="10" cy="48" r="1"/><circle cx="34" cy="42" r="1"/><circle cx="16" cy="42" r="1"/><circle cx="40" cy="42" r="1"/><circle cx="10" cy="42" r="1"/><circle cx="37" cy="45" r="1"/><circle cx="43" cy="45" r="1"/><circle cx="13" cy="45" r="1"/><circle cx="7" cy="45" r="1"/></g><path fill="none" stroke="#000000" stroke-width="2" stroke-linecap="round" stroke-linejoin="round" stroke-miterlimit="10" d="M19,46c0,0,2.7-2,6-2s6,2,6,2"/></svg>