<?xml version="1.0" encoding="iso-8859-1"?>
<!-- Generator: Adobe Illustrator 24.1.3, SVG Export Plug-In . SVG Version: 6.00 Build 0)  -->
<svg version="1.1" id="Tone" xmlns="http://www.w3.org/2000/svg" xmlns:xlink="http://www.w3.org/1999/xlink" x="0px" y="0px"
	 viewBox="0 0 50 50" style="enable-background:new 0 0 50 50;" xml:space="preserve">
<g id="Line">
	<g>
		<path d="M5,3v31h40V3H5z M43,32H7V5h36V32z"/>
		<polygon points="41,27.267 32.03,20.291 24.892,26.41 21.864,26.371 25.751,23.039 18.917,14.497 9,24.414 9,30 41,30 		"/>
		<path d="M19.056,12.001c0.283,0.016,0.548,0.152,0.726,0.374l7.489,9.362l4.079-3.497c0.359-0.31,0.888-0.322,1.265-0.03
			L41,24.733V7H9v14.586l9.293-9.293C18.494,12.092,18.776,11.988,19.056,12.001z M32,11c1.105,0,2,0.895,2,2s-0.895,2-2,2
			s-2-0.895-2-2S30.895,11,32,11z"/>
		<path d="M41.5,36c-1.762,0-3.205,1.306-3.45,3H38c0,5.567-9.95,6-13,6s-13-0.433-13-6h-0.05c-0.245-1.694-1.688-3-3.45-3
			C6.567,36,5,37.567,5,39.5V47h7v-3.462C14.386,45.774,18.837,47,25,47s10.614-1.226,13-3.462V47h7v-7.5
			C45,37.567,43.433,36,41.5,36z"/>
	</g>
</g>
</svg>