<?xml version="1.0" encoding="utf-8"?><!-- Generator: Adobe Illustrator 15.0.0, SVG Export Plug-In . SVG Version: 6.00 Build 0)  --><!DOCTYPE svg PUBLIC "-//W3C//DTD SVG 1.1//EN" "http://www.w3.org/Graphics/SVG/1.1/DTD/svg11.dtd"><svg xmlns="http://www.w3.org/2000/svg" xmlns:xlink="http://www.w3.org/1999/xlink" viewBox="0 0 50 50" width="50px" height="50px"><rect fill="none" width="50" height="50"/><path d="M32.698,20C28.435,20,27,14.975,27,12.683C27,7.8,28.559,5,31.277,5C35.92,5,39,9.955,39,13.233C39,16.043,37.045,20,32.698,20z"/><path d="M38.93,36c-2.345,0-3.662-1.894-4.72-3.415l-0.145-0.208c-0.249-0.355-0.515-0.632-0.771-0.898C32.688,30.849,32,30.134,32,28.709c0-1.148,0.919-2.453,1.984-3.965l0.448-0.641C35.836,22.073,37.587,21,39.495,21c1.695,0,3.12,0.688,4.12,1.992c1.345,1.751,1.747,4.454,1.051,7.053l-0.092,0.349C43.987,32.626,43.101,36,38.93,36z"/><path d="M12.874,33c-3.405,0-5.899-2.996-6.603-5.956c-0.626-2.624-0.16-5.337,1.217-7.081C8.502,18.679,9.92,18,11.59,18c2.216,0,3.629,1.791,4.78,3.47c0.235,0.344,0.488,0.692,0.738,1.037C18.123,23.908,19,25.119,19,26.189c0,1.883-0.88,2.669-1.9,3.579l-0.164,0.146c-0.375,0.336-0.644,0.721-0.927,1.128C15.401,31.915,14.645,33,12.874,33z"/><path d="M20.838,19C16.811,19,15,14.701,15,11.648C15,8.952,17.511,4,21.613,4C23.614,4,26,5.292,26,11.451C26,13.551,25.073,19,20.838,19z"/><path d="M18.057,50C14.256,50,11,46.072,11,42.857c0-3.029,2.024-4.366,3.981-5.658c1.573-1.038,3.2-2.112,3.944-4.181c1.568-4.36,2.695-5.019,5.76-5.019c4.07,0,5.215,3.103,5.724,5.436c0.382,1.756,1.863,3.183,3.296,4.563c1.62,1.561,3.296,3.174,3.296,5.316c0,3.182-2.086,6.605-6.666,6.605c-1.684,0-2.751-0.314-3.693-0.592c-0.725-0.214-1.351-0.398-2.181-0.398c-0.847,0-1.603,0.206-2.478,0.444C20.905,49.667,19.683,50,18.057,50z"/><path d="M44.395,24.748c1.72-3.438-0.715-6.128-1.211-6.128c-0.445,0-1.708,2.089-2.154,3.905L44.395,24.748z"/><path d="M34.541,6.286c-0.57-2.851-3.36-5.228-3.813-5.032C30.319,1.43,30.15,3.207,30.379,5.83L34.541,6.286z"/><path d="M11.517,19.673c-0.115-1.733-0.718-4.362-1.147-4.483c-0.471-0.127-2.501,1.062-2.615,5.223L11.517,19.673z"/><path d="M23.335,5.107c0.783-2.648,0.396-4.729-0.007-4.924c-0.445-0.207-3.25,1.146-4.032,4.578L23.335,5.107z"/></svg>