<?xml version="1.0" encoding="utf-8"?><!-- Generator: Adobe Illustrator 15.0.0, SVG Export Plug-In . SVG Version: 6.00 Build 0)  --><!DOCTYPE svg PUBLIC "-//W3C//DTD SVG 1.1//EN" "http://www.w3.org/Graphics/SVG/1.1/DTD/svg11.dtd"><svg xmlns="http://www.w3.org/2000/svg" xmlns:xlink="http://www.w3.org/1999/xlink" viewBox="0 0 50 50" width="50px" height="50px"><g><path d="M24.997,43.99c-0.727,0-1.426-0.129-1.967-0.362l-9.792-5.07c-1.067-0.456-1.19-1.243-1.19-1.559s0.121-1.104,1.252-1.595l9.665-5.015c1.22-0.525,2.915-0.493,3.997-0.032l9.797,5.077c1.069,0.461,1.19,1.249,1.19,1.564c-0.001,0.316-0.124,1.104-1.257,1.59l-9.662,5.009C26.423,43.862,25.724,43.99,24.997,43.99z"/><g><path d="M37.556,40.394l-9.604,4.979l-0.061,0.031l-0.062,0.027c-0.852,0.37-1.805,0.559-2.832,0.559c-1.007,0-1.961-0.182-2.759-0.525l-0.065-0.028l-0.063-0.032l-9.735-5.041C12.24,40.303,12.122,40.23,12,40.161v1.798c0,0.571,0.397,1.562,1.247,1.945l9.752,5.714c0.049,0.029,0.101,0.054,0.154,0.074C23.682,49.891,24.364,50,25.075,50c0.71,0,1.393-0.109,1.923-0.308c0.057-0.021,0.11-0.047,0.162-0.077l9.593-5.715c0.768-0.354,1.212-1.266,1.241-1.824c0.005-0.105,0.006-0.943,0.005-1.914C37.856,40.244,37.712,40.324,37.556,40.394z"/></g></g><path d="M36.991,18.579c0-5.915-4.776-12.619-13.105-18.394c-0.291-0.201-0.666-0.232-0.986-0.083c-0.32,0.15-0.536,0.459-0.566,0.812c-0.332,3.801-2.567,6.231-4.729,8.581c-2.259,2.456-4.595,4.995-4.595,8.938c0,5.023,4.197,8.723,7.898,9.933c0.015,0.005,0.031-0.001,0.046,0.002c0.108,0.04,0.222,0.069,0.344,0.069c0.553,0,1-0.447,1-1c0-0.251-0.101-0.473-0.253-0.648c-0.008-0.012-0.008-0.03-0.018-0.041c-1.091-1.234-2.354-3.567,0.135-8.291c1.027,5.907,8.544,3.191,4.456-6.492c4.568,3.775,4.964,8.846,2.004,15.059c-0.001,0.002,0.001,0.006,0,0.008c-0.056,0.125-0.09,0.261-0.09,0.406c0,0.553,0.447,1,1,1c0.195,0,0.366-0.07,0.52-0.166C32.958,26.858,36.991,23.052,36.991,18.579z"/></svg>