<?xml version="1.0" encoding="utf-8"?><!-- Generator: Adobe Illustrator 15.0.0, SVG Export Plug-In . SVG Version: 6.00 Build 0)  --><!DOCTYPE svg PUBLIC "-//W3C//DTD SVG 1.1//EN" "http://www.w3.org/Graphics/SVG/1.1/DTD/svg11.dtd"><svg xmlns="http://www.w3.org/2000/svg" xmlns:xlink="http://www.w3.org/1999/xlink" viewBox="0 0 50 50" width="50px" height="50px"><path fill="none" d="M15,44c0-2.206-1.794-4-4-4s-4,1.794-4,4c0,0.348,0.059,0.679,0.142,1h7.716C14.941,44.679,15,44.348,15,44z"/><path fill="none" d="M39,48c1.858,0,3.411-1.279,3.858-3h-7.717C35.589,46.721,37.142,48,39,48z"/><path fill="none" d="M13.7,21H7.3C6,21,5,22,5,23.3v4.4C5,29,6,30,7.3,30h6.4c1.3,0,2.3-1,2.3-2.3v-4.4C16,22,15,21,13.7,21z"/><path fill="none" d="M29.7,21h-7.4C21,21,20,22,20,23.3v4.4c0,1.3,1,2.3,2.3,2.3h7.4c1.3,0,2.3-1,2.3-2.3v-4.4C32,22,31,21,29.7,21z"/><path fill="none" d="M11,48c1.858,0,3.411-1.279,3.858-3H7.142C7.589,46.721,9.142,48,11,48z"/><path fill="none" d="M43.878,21H38.3C37,21,36,22,36,23.3v4.4c0,1.3,1,2.3,2.3,2.3h9.136c-0.4-1.095-1.807-4.91-3.059-7.915C44.217,21.69,44.052,21.33,43.878,21z"/><path d="M49.44,29.66c-0.018-0.048-1.726-4.764-3.214-8.335C44.623,17.37,42.313,15.9,37.7,15.9l-31.837,0C2.63,16.021,0,18.667,0,21.8v20.4C0,43.744,1.256,45,2.8,45H5.09C5.035,44.674,5,44.342,5,44c0-3.309,2.691-6,6-6s6,2.691,6,6c0,0.342-0.035,0.674-0.09,1h16.18C33.035,44.674,33,44.342,33,44c0-3.309,2.691-6,6-6s6,2.691,6,6c0,0.342-0.035,0.674-0.09,1h0.39c2.264,0,4.7-1.346,4.7-4.3v-7.9C50,31.858,49.805,30.752,49.44,29.66z M16,27.7c0,1.3-1,2.3-2.3,2.3H7.3C6,30,5,29,5,27.7v-4.4C5,22,6,21,7.3,21h6.4c1.3,0,2.3,1,2.3,2.3V27.7z M32,27.7c0,1.3-1,2.3-2.3,2.3h-7.4C21,30,20,29,20,27.7v-4.4c0-1.3,1-2.3,2.3-2.3h7.4c1.3,0,2.3,1,2.3,2.3V27.7z M38.3,30C37,30,36,29,36,27.7v-4.4c0-1.3,1-2.3,2.3-2.3h5.578c0.174,0.33,0.339,0.69,0.499,1.085c1.252,3.005,2.658,6.82,3.059,7.915H38.3z"/><path d="M39,38c-3.309,0-6,2.691-6,6c0,0.342,0.035,0.674,0.09,1c0.479,2.833,2.943,5,5.91,5s5.432-2.167,5.91-5c0.055-0.326,0.09-0.658,0.09-1C45,40.691,42.309,38,39,38z M39,48c-1.858,0-3.411-1.279-3.858-3C35.059,44.679,35,44.348,35,44c0-2.206,1.794-4,4-4s4,1.794,4,4c0,0.348-0.059,0.679-0.142,1C42.411,46.721,40.858,48,39,48z"/><path d="M11,38c-3.309,0-6,2.691-6,6c0,0.342,0.035,0.674,0.09,1c0.479,2.833,2.942,5,5.91,5s5.431-2.167,5.91-5c0.055-0.326,0.09-0.658,0.09-1C17,40.691,14.309,38,11,38z M11,48c-1.858,0-3.411-1.279-3.858-3C7.059,44.679,7,44.348,7,44c0-2.206,1.794-4,4-4s4,1.794,4,4c0,0.348-0.059,0.679-0.142,1C14.411,46.721,12.858,48,11,48z"/></svg>