<?xml version="1.0" encoding="iso-8859-1"?><!-- Generator: Adobe Illustrator 19.2.1, SVG Export Plug-In . SVG Version: 6.00 Build 0)  --><svg xmlns="http://www.w3.org/2000/svg" xmlns:xlink="http://www.w3.org/1999/xlink" viewBox="0 0 50 50" width="50px" height="50px"><polyline id="polyline318_2_" style="fill:none;stroke:#000000;stroke-width:2;stroke-linecap:round;stroke-linejoin:round;" points="30,18 25,16 25,14 20,7 13,18 11,17 4,31 4,43 12,43 "/><polyline id="polyline322_6_" style="fill:none;stroke:#000000;stroke-width:2;stroke-linecap:round;stroke-linejoin:round;" points="46,36 46,43 17,43 23,30 27,32 33,21 38,28 40,27 46,36 "/><polygon id="polyline322_4_" points="46,43 17,43 21.353,33.569 28,38 33,30 36,33 39,31 46,36 "/><g><path d="M30.165,20.098l1.102-1.981l-0.426-0.66c-0.3-0.464-0.918-0.597-1.383-0.298c-0.464,0.3-0.597,0.919-0.297,1.383L30.165,20.098z"/></g><path d="M12.625,44c0.391,0,0.746-0.228,0.909-0.583l6.743-14.677c0.339-0.731,0.969-1.304,1.736-1.574c0.318-0.11,0.65-0.166,0.987-0.166c0.461,0,0.923,0.108,1.342,0.316l1.411,0.705l3.368-6.174L27,21l-2,4l-6-8l-4,5l-2-4l-2-1L4,31v12h6L12.625,44z"/><path d="M44.542,15H35c-1.794,0-3-1.551-3-3c0-1.637,1.09-2.64,2.301-2.92C34.853,7.841,36.1,7,37.5,7c1.182,0,2.229,0.589,2.862,1.488C40.833,8.179,41.396,8,42,8c1.312,0,2.43,0.847,2.836,2.022C46.057,10.188,47,11.235,47,12.5c0,1.327-1.011,2.4-2.323,2.491C44.633,14.997,44.588,15,44.542,15z"/></svg>