<?xml version="1.0" encoding="utf-8"?><!-- Generator: Adobe Illustrator 15.0.0, SVG Export Plug-In . SVG Version: 6.00 Build 0)  --><!DOCTYPE svg PUBLIC "-//W3C//DTD SVG 1.1//EN" "http://www.w3.org/Graphics/SVG/1.1/DTD/svg11.dtd"><svg xmlns="http://www.w3.org/2000/svg" xmlns:xlink="http://www.w3.org/1999/xlink" viewBox="0 0 50 50" width="50px" height="50px"><g><path d="M44.048,30.525L19.772,39.44c-1.075,0.396-2.28,0.597-3.583,0.597c-2.744,0-5.491-0.895-7.35-2.394l-8.435-6.8c-0.143-0.115-0.269-0.238-0.399-0.359c0.003,2.938,0.005,6.572-0.006,7.095c-0.022,1.064,0.568,2.137,1.645,3.003l8.451,7.14c1.492,1.203,3.827,1.951,6.094,1.951c1.065,0,2.039-0.159,2.903-0.478l24.267-9.237c1.643-0.604,2.603-1.696,2.633-2.992c0.011-0.456,0.009-4.449,0.005-7.496C45.488,29.865,44.851,30.23,44.048,30.525z"/></g><path d="M16.19,38.037L16.19,38.037c-2.267,0-4.602-0.747-6.094-1.95l-8.434-6.8c-1.263-1.02-1.838-2.247-1.618-3.457s1.191-2.156,2.733-2.665l23.58-7.793c0.856-0.283,1.84-0.426,2.924-0.426c2.293,0,4.681,0.666,6.23,1.739l8.609,5.943c1.814,1.253,1.938,2.602,1.851,3.294c-0.088,0.692-0.544,1.967-2.613,2.727l-24.278,8.915C18.228,37.878,17.255,38.037,16.19,38.037z"/><g><path d="M40.656,17.806c2.127-1.634,4.511-4.745,5.313-10.635c0.448-3.289,0.953-4.552,1.211-5.009C47.521,2.675,48,4.255,48,7.338c0,8.019-1.778,11.667-3.229,13.309l0.486,0.335c0.423,0.292,0.775,0.594,1.08,0.898C48.12,19.803,50,15.646,50,7.338C50,3.99,49.493,0,47.077,0c-1.063,0-2.26,0.82-3.09,6.9c-0.792,5.81-3.222,8.476-5.085,9.695L40.656,17.806z"/></g></svg>