<?xml version="1.0" encoding="utf-8"?><!-- Generator: Adobe Illustrator 15.0.0, SVG Export Plug-In . SVG Version: 6.00 Build 0)  --><!DOCTYPE svg PUBLIC "-//W3C//DTD SVG 1.1//EN" "http://www.w3.org/Graphics/SVG/1.1/DTD/svg11.dtd"><svg xmlns="http://www.w3.org/2000/svg" xmlns:xlink="http://www.w3.org/1999/xlink" viewBox="0 0 50 50" width="50px" height="50px"><path d="M44.985,47.108c-1.253-0.312-2.549-0.635-3.035-4.785c0-0.002,0-0.004-0.001-0.006c-0.5,0.226-1.012,0.446-1.545,0.655c-1.359,0.533-2.881,0.924-4.409,1.207c0.079,0.867-0.024,1.532-0.332,1.955c-0.483,0.662-1.508,0.818-2.412,0.956c-0.872,0.134-1.696,0.26-2.15,0.909c-0.166,0.238-0.341,0.64-0.228,1.198C30.968,49.665,31.378,50,31.854,50h14.455c0.347,0,0.668-0.179,0.85-0.474c0.183-0.294,0.2-0.662,0.046-0.972C46.697,47.535,45.748,47.299,44.985,47.108z"/><path d="M49.954,32.702c-0.797-2.553-2.261-4.996-4.088-6.939c-1.914,2.626-4.733,5.405-8.158,7.085c-2.696,1.323-5.661,2.022-8.572,2.022c-0.583,0-1.12-0.028-1.613-0.073c-0.74,1.76-1.494,3.217-2.021,4.232c-0.635,1.224-0.826,1.593-0.795,2.025c0.059,0.854,0.687,1.725,4.902,1.725c2.809,0,6.928-0.438,10.065-1.669c6.348-2.49,9.898-6.176,10.3-7.882C50.015,33.055,50.008,32.872,49.954,32.702z"/><path d="M46.187,19.61c-1.998-2.375-4.24-4.163-6.227-5.47c-1.15,2.496-3.211,5.23-5.97,7.29c-2.501,1.867-5.358,2.947-7.56,3.353c-0.384,1.231-0.789,2.282-1.128,3.158c-0.624,1.608-1.035,2.672-0.86,3.605c0.068,0.361,0.328,0.656,0.678,0.768c0.65,0.208,2.036,0.557,4.015,0.557c2.606,0,5.266-0.628,7.691-1.818c5.018-2.46,8.7-7.664,9.608-10.406C46.545,20.314,46.412,19.876,46.187,19.61z"/><path d="M20.712,14.09c-0.583,0-0.924-0.243-1.107-0.447c-0.308-0.343-0.442-0.794-0.645-1.478c-0.269-0.905-0.72-2.419-1.867-4.665c-0.536-1.05-1.512-2.435-2.297-3.548c-1.343-1.906-1.662-2.359-1.4-3.021c0.22-0.561,0.598-0.93,3.714-0.93c1.351,0,8.219,0.119,10.787,2.47c1.042,0.955,0.257,5.267-1.399,7.69C24.916,12.477,22.179,14.09,20.712,14.09z"/><path d="M38.911,9.587c-0.571-1.258-4.059-3.032-8.637-4.078c-0.296,2.183-1.244,4.491-2.125,5.78c-1.334,1.953-3.417,3.586-5.351,4.343c-0.016,1.574-0.155,2.889-0.265,3.896c-0.144,1.318-0.215,1.979,0.051,2.511c0.309,0.619,0.998,0.933,2.047,0.933c1.963,0,5.397-1.08,8.163-3.145C37.712,16.155,39.48,10.846,38.911,9.587z"/><path d="M21,43H1c-0.552,0-1-0.447-1-1v-5c0-0.553,0.448-1,1-1h20c0.552,0,1,0.447,1,1v5C22,42.553,21.552,43,21,43z"/><path d="M18.555,45h-2.137l1.647,4.354C18.216,49.754,18.596,50,19,50c0.118,0,0.237-0.021,0.354-0.064c0.517-0.195,0.777-0.772,0.581-1.289L18.555,45z"/><path d="M3.445,45l-1.38,3.646c-0.196,0.517,0.064,1.094,0.581,1.289C2.763,49.979,2.882,50,3,50c0.403,0,0.784-0.246,0.935-0.646L5.583,45H3.445z"/></svg>