<?xml version="1.0" encoding="iso-8859-1"?><!-- Generator: Adobe Illustrator 21.1.0, SVG Export Plug-In . SVG Version: 6.00 Build 0)  --><svg xmlns="http://www.w3.org/2000/svg" xmlns:xlink="http://www.w3.org/1999/xlink" viewBox="0 0 50 50" width="50px" height="50px"><path d="M36,2c-4.978,0-10,3.092-10,10c0,2.895,0.249,5.213,0.489,7.456C26.74,21.799,27,24.223,27,27.418c0,2.341-0.315,4.585-0.593,6.565C26.188,35.539,26,36.881,26,38c0,9.279,6.123,10,8,10c3.451,0,7.777-1.415,8.784-8.147c0.006-0.033,0.534-3.349,0.962-5.56c0.439-2.268,1.147-4.712,1.833-7.076C46.77,23.109,48,18.863,48,15.05C48,8.724,43.794,2,36,2z M41.294,31.218c-2.479,4.032-4.461,0.021-2.452-0.816C42.365,28.39,41.578,14.029,37,11c-3.618,3.939-7.16,9.409-4.391,16.994c1.445,2.421-1.569,5.082-2.216,0.505C30.232,27.202,30,26.316,30,21.517c0-3.934,2.455-11.21,7-13.517C46.444,14.621,42.274,29.624,41.294,31.218z"/><path d="M2,15.05c0,3.813,1.23,8.06,2.421,12.167c0.686,2.364,1.394,4.808,1.833,7.076c0.428,2.211,0.956,5.527,0.962,5.56C8.223,46.585,12.549,48,16,48c1.877,0,8-0.721,8-10c0-1.119-0.188-2.461-0.407-4.017C23.315,32.003,23,29.759,23,27.418c0-3.195,0.26-5.619,0.511-7.962C23.751,17.213,24,14.895,24,12c0-6.908-5.022-10-10-10C6.206,2,2,8.724,2,15.05z M13,8c4.545,2.307,7,9.583,7,13.517c0,4.798-0.232,5.685-0.394,6.981c-0.647,4.577-3.66,1.917-2.216-0.505C20.16,20.409,16.618,14.939,13,11c-4.578,3.029-5.365,17.39-1.841,19.402c2.009,0.837,0.027,4.848-2.452,0.816C7.726,29.624,3.556,14.621,13,8z"/></svg>