<?xml version="1.0" encoding="iso-8859-1"?>
<!-- Generator: Adobe Illustrator 24.1.1, SVG Export Plug-In . SVG Version: 6.00 Build 0)  -->
<svg version="1.1" id="&#x421;&#x43B;&#x43E;&#x439;_1"
	 xmlns="http://www.w3.org/2000/svg" xmlns:xlink="http://www.w3.org/1999/xlink" x="0px" y="0px" viewBox="0 0 50 50"
	 style="enable-background:new 0 0 50 50;" xml:space="preserve">
<path style="fill:none;stroke:#000000;stroke-width:2;stroke-linecap:round;stroke-linejoin:round;" d="M49,48.646
	c-0.494,0.174-1.091,0.296-1.846,0.296c-1.538,0-3.902-0.42-5.539-1.71c-1.637,1.29-4,1.71-5.538,1.71s-3.901-0.42-5.539-1.71
	c-1.637,1.29-4,1.71-5.538,1.71s-3.901-0.42-5.539-1.71c-1.637,1.29-4,1.71-5.538,1.71s-3.901-0.42-5.538-1.71
	c-1.637,1.29-4.001,1.71-5.539,1.71c-0.69,0-1.291-0.062-1.846-0.147"/>
<circle cx="9.5" cy="8.5" r="4.5"/>
<line style="fill:none;stroke:#000000;stroke-width:2;stroke-linecap:round;stroke-linejoin:round;stroke-miterlimit:10;" x1="26" y1="20" x2="48" y2="11"/>
<line style="fill:none;stroke:#000000;stroke-width:2;stroke-linecap:round;stroke-linejoin:round;stroke-miterlimit:10;" x1="46" y1="13" x2="46" y2="44.533"/>
<path style="fill:none;stroke:#000000;stroke-width:2;stroke-linecap:round;stroke-linejoin:round;" d="M49,44.646
	c-0.494,0.174-1.091,0.296-1.846,0.296c-1.538,0-3.902-0.42-5.539-1.71c-1.637,1.29-4,1.71-5.538,1.71s-3.901-0.42-5.539-1.71
	c-1.637,1.29-4,1.71-5.538,1.71s-3.901-0.42-5.539-1.71c-1.637,1.29-4,1.71-5.538,1.71s-3.901-0.42-5.538-1.71
	c-1.637,1.29-4.001,1.71-5.539,1.71c-0.69,0-1.291-0.062-1.846-0.147"/>
<g>
	<path d="M0,31c0-0.553,0.447-1,1-1h31.44c0.275,0,0.539,0.114,0.729,0.314c0.188,0.201,0.286,0.472,0.27,0.747
		c-0.018,0.295-0.403,5.419-4.476,10.034C27.664,41.747,26.104,42,25,42c-1.394,0-3.519-0.392-4.92-1.495
		c-0.363-0.287-0.875-0.287-1.238,0C17.441,41.608,15.316,42,13.923,42s-3.518-0.392-4.919-1.495c-0.363-0.287-0.875-0.287-1.238,0
		C6.365,41.608,4.24,42,2.846,42c-0.558,0-1.095-0.043-1.692-0.136C0.607,41.784,0,42,0,42V31z"/>
	<path d="M13.923,44H25c-1.599,0-3.804-0.4-5.539-1.489C17.727,43.6,15.521,44,13.923,44z"/>
	<path d="M25,44h0.727c0.015-0.01,0.027-0.022,0.042-0.032C25.502,43.987,25.242,44,25,44z"/>
</g>
<path d="M26.914,19.594c-0.233-0.525-0.662-0.913-1.202-1.09c-0.536-0.178-1.128-0.119-1.646,0.174l-6.768,2.751
	c-0.043-0.042-4.463-4.244-6.125-5.569c-1.422-1.135-3.59-1.139-5.154-0.014C4.679,16.808,4,18.278,4,20.218v9.791h9V30h1v-2.745
	L9.399,23.8c-0.441-0.332-0.53-0.959-0.199-1.4c0.331-0.442,0.959-0.53,1.4-0.199l4.599,3.454c0.519,0.365,1.193,0.453,1.85,0.218
	l8.863-3.651l0.16-0.084C26.946,21.575,27.308,20.482,26.914,19.594z"/>
</svg>