<?xml version="1.0" encoding="iso-8859-1"?>
<!-- Generator: Adobe Illustrator 25.4.1, SVG Export Plug-In . SVG Version: 6.00 Build 0)  -->
<svg version="1.1" id="Layer_1" xmlns="http://www.w3.org/2000/svg" xmlns:xlink="http://www.w3.org/1999/xlink" x="0px" y="0px"
	 viewBox="0 0 50 50" style="enable-background:new 0 0 50 50;" xml:space="preserve">
<path style="fill:none;stroke:#000000;stroke-width:2;stroke-linejoin:round;stroke-miterlimit:10;" d="M32,12H18V4
	c0-1.105,0.895-2,2-2h10c1.105,0,2,0.895,2,2V12z"/>
<path d="M35,11H15c-2.757,0-5,2.243-5,5v28c0,1.654,1.346,3,3,3h3.049l1.018-20.239C17.247,23.528,20.037,21,23.418,21h3.122
	c3.405,0,6.214,2.545,6.395,5.795L33.951,47H37c1.654,0,3-1.346,3-3V16C40,13.243,37.757,11,35,11z"/>
<line style="fill:none;stroke:#000000;stroke-width:2;stroke-linecap:round;stroke-linejoin:round;stroke-miterlimit:10;" x1="15" y1="46" x2="15" y2="48"/>
<line style="fill:none;stroke:#000000;stroke-width:2;stroke-linecap:round;stroke-linejoin:round;stroke-miterlimit:10;" x1="35" y1="46" x2="35" y2="48"/>
<path d="M30.938,26.9c-0.122-2.185-2.053-3.9-4.397-3.9h-3.122c-2.321,0-4.233,1.698-4.354,3.867L18.051,47h13.897L30.938,26.9z
	 M28,29h-6c-0.552,0-1-0.448-1-1s0.448-1,1-1h6c0.552,0,1,0.448,1,1S28.552,29,28,29z"/>
</svg>