<?xml version="1.0" encoding="utf-8"?><!-- Generator: Adobe Illustrator 15.0.0, SVG Export Plug-In . SVG Version: 6.00 Build 0)  --><!DOCTYPE svg PUBLIC "-//W3C//DTD SVG 1.1//EN" "http://www.w3.org/Graphics/SVG/1.1/DTD/svg11.dtd"><svg xmlns="http://www.w3.org/2000/svg" xmlns:xlink="http://www.w3.org/1999/xlink" viewBox="0 0 50 50" width="50px" height="50px"><path d="M9.578,49.99c-0.283,0-0.563-0.12-0.759-0.354c-0.352-0.419-0.296-1.044,0.123-1.395l5.769-4.834c0.418-0.352,1.043-0.298,1.395,0.123c0.352,0.419,0.296,1.044-0.123,1.395l-5.769,4.834C10.028,49.914,9.802,49.99,9.578,49.99z"/><path d="M40.422,49.99c-0.224,0-0.449-0.076-0.635-0.231l-5.769-4.834c-0.419-0.352-0.475-0.976-0.123-1.395c0.351-0.418,0.975-0.475,1.395-0.123l5.769,4.834c0.419,0.352,0.475,0.976,0.123,1.395C40.986,49.87,40.705,49.99,40.422,49.99z"/><path d="M35,5c-0.553,0-1-0.448-1-1c0-0.692-1.881-2-9-2s-9,1.308-9,2c0,0.552-0.448,1-1,1s-1-0.448-1-1c0-2.691,3.598-4,11-4c7.402,0,11,1.309,11,4C36,4.552,35.553,5,35,5z"/><path d="M28.001,8.511c-0.055,0-0.109-0.004-0.165-0.014c-0.545-0.091-0.913-0.606-0.822-1.151l1-6c0.091-0.544,0.604-0.914,1.15-0.822c0.545,0.091,0.913,0.606,0.822,1.151l-1,6C28.905,8.164,28.481,8.511,28.001,8.511z"/><path d="M21.999,8.511c-0.48,0-0.904-0.347-0.985-0.835l-1-6c-0.091-0.545,0.277-1.06,0.822-1.151c0.549-0.093,1.06,0.278,1.151,0.822l1,6c0.091,0.545-0.277,1.06-0.822,1.151C22.109,8.506,22.053,8.511,21.999,8.511z"/><path d="M25,7C14.5,7,8,11.153,8,15v23.286C8,41.988,11.14,45,15,45h20c3.859,0,7-3.012,7-6.714V15C42,11.153,35.5,7,25,7z M18,14c0-0.552,0.448-1,1-1h12c0.553,0,1,0.448,1,1v2h-1H19h-1V14z M16,40c-1.657,0-3-1.344-3-3s1.343-3,3-3s3,1.344,3,3S17.657,40,16,40z M34,40c-1.656,0-3-1.344-3-3s1.344-3,3-3s3,1.344,3,3S35.656,40,34,40z M37,27.166C37,28.178,36.104,29,35,29H15c-1.104,0-2-0.822-2-1.834v-7.333C13,18.821,13.896,18,15,18h20c1.104,0,2,0.821,2,1.833V27.166z"/></svg>