<?xml version="1.0" encoding="iso-8859-1"?><!-- Generator: Adobe Illustrator 22.1.0, SVG Export Plug-In . SVG Version: 6.00 Build 0)  --><svg xmlns="http://www.w3.org/2000/svg" xmlns:xlink="http://www.w3.org/1999/xlink" viewBox="0 0 50 50" width="50px" height="50px"><g><path d="M25,48c-3.862,0-6.112-2.198-6.206-2.292c-0.391-0.39-0.393-1.022-0.002-1.414c0.39-0.391,1.022-0.392,1.414-0.002C20.273,44.357,21.996,46,25,46s4.727-1.643,4.798-1.712c0.395-0.385,1.027-0.38,1.412,0.013c0.387,0.392,0.386,1.02-0.004,1.407C31.112,45.802,28.862,48,25,48z"/></g><g><path d="M36,48c-3.862,0-6.112-2.198-6.206-2.292c-0.391-0.39-0.393-1.022-0.002-1.414c0.39-0.391,1.022-0.392,1.414-0.002C31.273,44.357,32.996,46,36,46s4.727-1.643,4.798-1.712c0.394-0.385,1.026-0.38,1.412,0.013c0.387,0.392,0.386,1.02-0.004,1.407C42.112,45.802,39.862,48,36,48z"/></g><g><path d="M47,48c-3.862,0-6.112-2.198-6.206-2.292c-0.391-0.39-0.393-1.022-0.002-1.414c0.39-0.391,1.022-0.392,1.414-0.002C42.273,44.357,43.996,46,47,46c0.553,0,1,0.447,1,1S47.553,48,47,48z"/></g><g><path d="M14,48c-3.862,0-6.112-2.198-6.206-2.292c-0.391-0.39-0.393-1.022-0.002-1.414c0.39-0.391,1.022-0.392,1.414-0.002C9.273,44.357,10.996,46,14,46s4.727-1.643,4.798-1.712c0.395-0.385,1.027-0.38,1.412,0.013c0.387,0.392,0.386,1.02-0.004,1.407C20.112,45.802,17.862,48,14,48z"/></g><g><path d="M3,48c-0.553,0-1-0.447-1-1s0.447-1,1-1c3.004,0,4.727-1.643,4.798-1.712c0.394-0.385,1.026-0.38,1.412,0.013c0.387,0.392,0.386,1.02-0.004,1.407C9.112,45.802,6.862,48,3,48z"/></g><g><path d="M25,42c-3.862,0-6.112-2.198-6.206-2.292c-0.391-0.39-0.393-1.022-0.002-1.414c0.39-0.391,1.022-0.392,1.414-0.002C20.273,38.357,21.996,40,25,40s4.727-1.643,4.798-1.712c0.395-0.385,1.027-0.38,1.412,0.013c0.387,0.392,0.386,1.02-0.004,1.407C31.112,39.802,28.862,42,25,42z"/></g><g><path d="M36,42c-3.862,0-6.112-2.198-6.206-2.292c-0.391-0.39-0.393-1.022-0.002-1.414c0.39-0.391,1.022-0.392,1.414-0.002C31.273,38.357,32.996,40,36,40s4.727-1.643,4.798-1.712c0.394-0.385,1.026-0.38,1.412,0.013c0.387,0.392,0.386,1.02-0.004,1.407C42.112,39.802,39.862,42,36,42z"/></g><g><path d="M47,42c-3.862,0-6.112-2.198-6.206-2.292c-0.391-0.39-0.393-1.022-0.002-1.414c0.39-0.391,1.022-0.392,1.414-0.002C42.273,38.357,43.996,40,47,40c0.553,0,1,0.447,1,1S47.553,42,47,42z"/></g><g><path d="M14,42c-3.862,0-6.112-2.198-6.206-2.292c-0.391-0.39-0.393-1.022-0.002-1.414c0.39-0.391,1.022-0.392,1.414-0.002C9.273,38.357,10.996,40,14,40s4.727-1.643,4.798-1.712c0.395-0.385,1.027-0.38,1.412,0.013c0.387,0.392,0.386,1.02-0.004,1.407C20.112,39.802,17.862,42,14,42z"/></g><g><path d="M3,42c-0.553,0-1-0.447-1-1s0.447-1,1-1c3.004,0,4.727-1.643,4.798-1.712c0.394-0.385,1.026-0.38,1.412,0.013c0.387,0.392,0.386,1.02-0.004,1.407C9.112,39.802,6.862,42,3,42z"/></g><g><path d="M47,34H3c-0.553,0-1-0.447-1-1s0.447-1,1-1h44c0.553,0,1,0.447,1,1S47.553,34,47,34z"/></g><g><path d="M20,30h-8c-0.553,0-1-0.447-1-1s0.447-1,1-1h8c0.553,0,1,0.447,1,1S20.553,30,20,30z"/></g><g><path d="M16,30c-0.553,0-1-0.447-1-1v-9c0-0.553,0.447-1,1-1s1,0.447,1,1v9C17,29.553,16.553,30,16,30z"/></g><g><path d="M16,21c-5.468,0-9-4.015-9-10.228c0-0.483,0.039-3.204,0.115-3.885C7.173,6.382,7.601,6,8.109,6h15.781c0.509,0,0.937,0.382,0.994,0.888C24.961,7.568,25,10.289,25,10.772C25,16.985,21.468,21,16,21z M9.056,8C9.022,8.945,9,10.302,9,10.772C9,15.848,11.683,19,16,19s7-3.152,7-8.228c0-0.471-0.022-1.827-0.056-2.772H9.056z"/></g><g><path d="M40,30h-9c-0.518,0-0.949-0.395-0.996-0.909l-2-22c-0.025-0.28,0.068-0.558,0.258-0.766C28.451,6.118,28.719,6,29,6h13c0.281,0,0.549,0.118,0.738,0.325c0.189,0.208,0.283,0.485,0.258,0.766l-2,22C40.949,29.605,40.518,30,40,30z M31.913,28h7.174l1.818-20H30.095L31.913,28z"/></g><g><path d="M8.008,11c0.089,6.043,3.629,9,7.992,9s7.903-2.957,7.992-9H8.008z"/></g><g><polygon points="29.364,11 31,29 40,29 41.636,11 "/></g></svg>