<?xml version="1.0" encoding="utf-8"?><!-- Generator: Adobe Illustrator 19.1.1, SVG Export Plug-In . SVG Version: 6.00 Build 0)  --><svg xmlns="http://www.w3.org/2000/svg" xmlns:xlink="http://www.w3.org/1999/xlink" viewBox="0 0 50 50" width="50px" height="50px"><g><g><path d="M33,10H17V5h4V2h8v3h4V10z"/></g></g><path d="M32.3,24H17.7l-0.2-0.1C17.3,23.7,12,20.5,12,12h26c0,8.4-5.3,11.7-5.5,11.9L32.3,24z"/><path fill="none" stroke="#000000" stroke-width="2" stroke-linecap="round" stroke-miterlimit="10" d="M34,26c2.8,0.7,1,4,2.8,4.8c3.3,1.5,1.1,5.2,3,5.9c3,1.2,0.8,4.6,3.9,5.9c3.2,1.4,0.9,4.4,3.3,4.4"/><path fill="none" stroke="#000000" stroke-width="2" stroke-linecap="round" stroke-miterlimit="10" d="M16,26c-2.8,0.7-1,4-2.8,4.8c-3.3,1.5-1.1,5.2-3,5.9c-3,1.2-0.8,4.6-3.9,5.9C3.1,43.9,5.4,47,3,47"/><line fill="none" stroke="#000000" stroke-width="2" stroke-linecap="round" stroke-miterlimit="10" x1="25" y1="35.2" x2="25" y2="47"/><polyline fill="none" stroke="#000000" stroke-width="2" stroke-linecap="round" stroke-miterlimit="10" points="21,38 25,34 29,38 "/></svg>