<?xml version="1.0" encoding="utf-8"?><!-- Generator: Adobe Illustrator 15.0.0, SVG Export Plug-In . SVG Version: 6.00 Build 0)  --><!DOCTYPE svg PUBLIC "-//W3C//DTD SVG 1.1//EN" "http://www.w3.org/Graphics/SVG/1.1/DTD/svg11.dtd"><svg xmlns="http://www.w3.org/2000/svg" xmlns:xlink="http://www.w3.org/1999/xlink" viewBox="0 0 50 50" width="50px" height="50px"><path d="M38,50H12c-0.552,0-1-0.447-1-1v-4c0-0.553,0.448-1,1-1h26c0.553,0,1,0.447,1,1v4C39,49.553,38.553,50,38,50z"/><path d="M30.907,39L29.299,4.653c-0.011-0.229-0.1-0.447-0.253-0.619l-3.3-3.7c-0.379-0.426-1.113-0.426-1.492,0l-3.3,3.7c-0.153,0.171-0.242,0.39-0.253,0.619L19.092,39H30.907z"/><path d="M35,43v-2c0-0.553-0.447-1-1-1H16c-0.552,0-1,0.447-1,1v2H35z"/></svg>