<?xml version="1.0" encoding="utf-8"?><!-- Generator: Adobe Illustrator 15.0.0, SVG Export Plug-In . SVG Version: 6.00 Build 0)  --><!DOCTYPE svg PUBLIC "-//W3C//DTD SVG 1.1//EN" "http://www.w3.org/Graphics/SVG/1.1/DTD/svg11.dtd"><svg xmlns="http://www.w3.org/2000/svg" xmlns:xlink="http://www.w3.org/1999/xlink" viewBox="0 0 50 50" width="50px" height="50px"><path d="M49.999,27.421c-0.031-0.397-0.947-9.679-17.022-9.822l-2.019-1.755c-0.071-0.062-0.149-0.113-0.234-0.152c-0.079-0.037-1.258-0.575-2.724-0.996c0,0.944,0,2.563,0,3.305c-1,0-2,0-3,0.1c-1,0-2,0-3,0c0-2,0-3.8,0-3.9c0-1.3,0.6-2.2,1.5-2.8c0.338-0.201,0.594-0.324,0.873-0.394c-1.445-2.827-3.677-6.009-5.973-6.009c-15.78,0-18.268,8.281-18.366,8.633C0.01,13.718-0.002,13.809-0.002,13.9V44c0,0.554,0.449,1.003,1.002,1.003h48c0.554,0,1.003-0.449,1.003-1.003L49.999,27.421z M41,28.3c0-1.7,1.1-2.5,2.5-2.399C44.9,26,46,27.1,46,28.7c0,0.2,0,2.399,0,3.8h-0.4c-1.3-0.2-2.8-0.5-4.6-0.7C41,30.4,41,28.5,41,28.3z M43.5,37.8C44.9,37.9,46,39,46,40.6c0,0.14,0,1.259,0,2.397h-5c0-1.237,0-2.563,0-2.797C41,38.6,42.1,37.7,43.5,37.8z M32,27.4c0-1.9,1.3-2.9,3-2.8s3,1.4,3,3.3c0,0.199,0,2,0,3.6c-1.9-0.1-3.9-0.3-6-0.4C32,29.4,32,27.6,32,27.4z M35,36.7c1.7,0.2,3,1.399,3,3.3c0,0.214,0,1.603,0,2.997h-6c0-1.568,0-3.333,0-3.497C32,37.6,33.3,36.5,35,36.7z M22,27c0-2,1.3-3.1,3-3.1s3,1.2,3,3.1c0,0.3,0,2.3,0,4c-1,0-2,0-3,0s-2,0-3,0C22,29.2,22,27.2,22,27z M25,36c1.7,0,3,1.1,3,3.1c0,0.247,0,2.248,0,3.897h-6c0-1.672,0-3.732,0-3.897C22,37.2,23.3,36,25,36z M12,15.4c0-1.9,1.3-3.1,3-3.3c1.7-0.2,3,0.9,3,2.8c0,0.1,0,1.6,0,3.3c-2.1,0.2-4.1,0.4-6,0.7C12,17.2,12,15.5,12,15.4z M12,27.9c0-1.9,1.3-3.101,3-3.3c1.7-0.2,3,0.9,3,2.8c0,0.199,0,2.1,0,3.699c-2.1,0.101-4.1,0.301-6,0.4C12,29.9,12,28.1,12,27.9z M15,36.6c1.7-0.1,3,0.9,3,2.801c0,0.25,0,2.026,0,3.597h-6c0-1.428,0-2.878,0-3.097C12,38,13.3,36.7,15,36.6z M4,16.7c0-1.6,1.1-2.7,2.5-2.8S9,14.7,9,16.3c0,0.1,0,1.6,0,3.1c-1.9,0.4-3.6,0.8-5,1.4C4,19,4,16.9,4,16.7z M4,28.7C4,27.1,5.1,26,6.5,25.9C7.9,25.8,9,26.7,9,28.3c0,0.2,0,2.101,0,3.5c-1.8,0.2-3.3,0.5-4.6,0.7H4C4,31.1,4,28.9,4,28.7z M6.5,37.9C7.9,37.8,9,38.7,9,40.3c0,0.152,0,1.463,0,2.697H4c0-1.103,0-2.161,0-2.297C4,39.1,5.1,38,6.5,37.9z"/></svg>