<?xml version="1.0" encoding="iso-8859-1"?><!-- Generator: Adobe Illustrator 19.2.1, SVG Export Plug-In . SVG Version: 6.00 Build 0)  --><svg xmlns="http://www.w3.org/2000/svg" xmlns:xlink="http://www.w3.org/1999/xlink" viewBox="0 0 50 50" width="50px" height="50px"><path d="M36,18c-2.757,0-5-2.243-5-5s2.243-5,5-5s5,2.243,5,5S38.757,18,36,18z"/><path style="fill:none;stroke:#000000;stroke-width:2;stroke-linecap:round;stroke-linejoin:round;stroke-miterlimit:10;" d="M6,13c0,0,0.25-2.401,3.5-2.901C10.312,6.912,13,7,13,7"/><g><path d="M25,35.376V20.957c0-0.552-0.448-1-1-1s-1,0.448-1,1V28c0,0.552-0.448,1-1,1s-1-0.448-1-1V16c0-0.552-0.448-1-1-1h-7c-0.459,0-0.859,0.313-0.97,0.757L11.219,19H10c-0.522,0-0.957,0.402-0.997,0.923L8.046,32.359l-1.494,0.747c-0.247,0.124-0.431,0.343-0.511,0.607L3.256,43H1c-0.552,0-1,0.448-1,1s0.448,1,1,1h29.783L25,35.376z M15,34c0,0.552-0.448,1-1,1s-1-0.448-1-1v-7c0-0.552,0.448-1,1-1s1,0.448,1,1V34z"/><path d="M49,43h-1.434L45,38.723V29c0-0.552-0.448-1-1-1h-1v5c0,0.552-0.448,1-1,1s-1-0.448-1-1v-5v-2c0-0.552-0.448-1-1-1h-2c-0.459,0-0.859,0.313-0.97,0.757L36.219,29H35c-0.552,0-1,0.448-1,1v5.456l-0.977,0.632L33,33.989C32.994,33.44,32.547,33,32,33c-0.003,0-0.007,0-0.011,0c-0.552,0.006-0.995,0.459-0.989,1.011v7.436L33.109,45h13.892H49c0.552,0,1-0.448,1-1S49.552,43,49,43z"/></g></svg>