<?xml version="1.0" encoding="utf-8"?><!-- Generator: Adobe Illustrator 15.0.0, SVG Export Plug-In . SVG Version: 6.00 Build 0)  --><!DOCTYPE svg PUBLIC "-//W3C//DTD SVG 1.1//EN" "http://www.w3.org/Graphics/SVG/1.1/DTD/svg11.dtd"><svg xmlns="http://www.w3.org/2000/svg" xmlns:xlink="http://www.w3.org/1999/xlink" viewBox="0 0 50 50" width="50px" height="50px"><rect x="13" y="48" width="24" height="2"/><polyline fill="none" stroke="#000000" stroke-width="2" stroke-linecap="round" stroke-linejoin="round" stroke-miterlimit="10" points="26.7,29.6 25,34.4 27.9,37.2 "/><path d="M38,23H12c-0.552,0-1,0.448-1,1v22c0,0.553,0.448,1,1,1h26c0.553,0,1-0.447,1-1V24C39,23.448,38.553,23,38,23z M25,41.8c-4.1,0-7.4-3.3-7.4-7.399c0-4.101,3.3-7.399,7.4-7.399c4.1,0,7.4,3.3,7.4,7.399S29.1,41.8,25,41.8z"/><path d="M32,16v-5c0-0.181-0.049-0.359-0.143-0.515l-6-10c-0.361-0.603-1.354-0.603-1.715,0l-6,10C18.049,10.641,18,10.819,18,11v5H32z"/><polygon points="36.036,21 32.536,18 17.463,18 13.963,21 "/></svg>