<?xml version="1.0" encoding="utf-8"?><!-- Generator: Adobe Illustrator 15.0.0, SVG Export Plug-In . SVG Version: 6.00 Build 0)  --><!DOCTYPE svg PUBLIC "-//W3C//DTD SVG 1.1//EN" "http://www.w3.org/Graphics/SVG/1.1/DTD/svg11.dtd"><svg xmlns="http://www.w3.org/2000/svg" xmlns:xlink="http://www.w3.org/1999/xlink" viewBox="0 0 50 50" width="50px" height="50px"><rect fill="none" width="50" height="50"/><path d="M25,12c-3.309,0-6-2.691-6-6s2.691-6,6-6c3.309,0,6,2.691,6,6S28.309,12,25,12z"/><path d="M25.026,13C15.281,13,15,18.745,15,19.4v9.8c0,1.544,1.256,2.8,2.8,2.8H19V22c0-0.276,0.224-0.5,0.5-0.5S20,21.724,20,22v10v1.375v9.958C20,44.805,21.196,46,22.667,46h4.667C28.805,46,30,44.805,30,43.333v-9.749V32V22c0-0.276,0.225-0.5,0.5-0.5S31,21.724,31,22v10h1.2c1.544,0,2.8-1.256,2.8-2.8v-9.8C35,18.331,34.52,13,25.026,13z"/><path fill="none" stroke="#000000" stroke-width="2" stroke-linecap="round" stroke-linejoin="round" stroke-miterlimit="10" d="M17,37.563C10.509,38.518,6,40.591,6,43c0,3.313,8.504,6,19,6s19-2.688,19-6c0-2.409-4.509-4.482-11-5.438"/></svg>