<?xml version="1.0" encoding="utf-8"?><!-- Generator: Adobe Illustrator 15.0.0, SVG Export Plug-In . SVG Version: 6.00 Build 0)  --><!DOCTYPE svg PUBLIC "-//W3C//DTD SVG 1.1//EN" "http://www.w3.org/Graphics/SVG/1.1/DTD/svg11.dtd"><svg xmlns="http://www.w3.org/2000/svg" xmlns:xlink="http://www.w3.org/1999/xlink" viewBox="0 0 50 50" width="50px" height="50px"><path d="M27.199,50c-2.879,0-5.208-0.875-6.921-2.602c-2.703-2.726-3.242-6.954-3.217-10.022c0.002-0.284,0.125-0.553,0.337-0.741c0.212-0.188,0.497-0.278,0.777-0.244c0.02,0.002,2.071,0.233,4.629,0.233c1.087,0,2.116-0.041,3.059-0.123c2.891-0.251,4.974-0.838,5.864-1.089l0.382-0.105c0.528-0.137,1.071,0.179,1.215,0.709c1.25,4.641,0.797,8.829-1.242,11.489C30.848,49.114,29.114,50,27.199,50z"/><path d="M16.855,28.971c-0.134,0-0.269-0.027-0.395-0.081c-0.259-0.111-0.458-0.326-0.55-0.593c-0.074-0.215-1.817-5.317-1.904-9.711c-0.104-5.323,1.078-12.33,4.708-16.031C20.376,0.859,22.38,0,24.672,0c2.485,0,4.609,0.93,6.313,2.765c3.366,3.627,4.217,9.918,3.967,13.262c-0.428,5.731-2.707,11.103-2.804,11.328c-0.188,0.438-0.657,0.684-1.125,0.585c-0.043-0.009-4.653-0.971-6.78-0.821c-2.076,0.153-5.139,0.928-6.973,1.762C17.138,28.94,16.996,28.971,16.855,28.971z"/></svg>