<?xml version="1.0" encoding="utf-8"?><!-- Generator: Adobe Illustrator 15.0.0, SVG Export Plug-In . SVG Version: 6.00 Build 0)  --><!DOCTYPE svg PUBLIC "-//W3C//DTD SVG 1.1//EN" "http://www.w3.org/Graphics/SVG/1.1/DTD/svg11.dtd"><svg xmlns="http://www.w3.org/2000/svg" xmlns:xlink="http://www.w3.org/1999/xlink" viewBox="0 0 50 50" width="50px" height="50px"><path fill="none" stroke="#000000" stroke-width="4" stroke-linecap="round" stroke-linejoin="round" stroke-miterlimit="10" d="M2.016,10.91C5.32,10.319,7,7,7,7s1.98,4,6,4s6-4,6-4s1.978,4,6,4c4.021,0,6-4,6-4s1.977,4,6,4s6-4,6-4s1.684,3.338,5.013,3.916"/><path fill="none" stroke="#000000" stroke-width="4" stroke-linecap="round" stroke-linejoin="round" stroke-miterlimit="10" d="M2.016,26.91C5.32,26.318,7,23,7,23s1.98,4,6,4s6-4,6-4s1.978,4,6,4c4.021,0,6-4,6-4s1.977,4,6,4s6-4,6-4s1.684,3.338,5.013,3.916"/><path fill="none" stroke="#000000" stroke-width="4" stroke-linecap="round" stroke-linejoin="round" stroke-miterlimit="10" d="M2.016,42.91C5.32,42.318,7,39,7,39s1.98,4,6,4s6-4,6-4s1.978,4,6,4c4.021,0,6-4,6-4s1.977,4,6,4s6-4,6-4s1.684,3.338,5.013,3.916"/></svg>