<?xml version="1.0" encoding="iso-8859-1"?>
<!-- Generator: Adobe Illustrator 24.1.2, SVG Export Plug-In . SVG Version: 6.00 Build 0)  -->
<svg version="1.1" baseProfile="basic" id="Layer_1"
	 xmlns="http://www.w3.org/2000/svg" xmlns:xlink="http://www.w3.org/1999/xlink" x="0px" y="0px" viewBox="0 0 50 50"
	 xml:space="preserve">
<path d="M43,9H7c-2.76,0-5,2.24-5,5v22c0,2.76,2.24,5,5,5h36c2.76,0,5-2.24,5-5V14C48,11.24,45.76,9,43,9z M21.337,25.083
	L19.44,26.98l0.913,6.744c0.012,0.088-0.024,0.174-0.088,0.237l-0.983,0.957c-0.053,0.052-0.121,0.079-0.193,0.079
	c-0.02,0-0.042-0.004-0.061-0.009c-0.092-0.02-0.168-0.079-0.202-0.167l-2.011-5.198l-2.757,2.687v1.563
	c0,0.08-0.036,0.157-0.097,0.211l-0.957,0.843c-0.074,0.065-0.17,0.091-0.263,0.061c-0.094-0.03-0.169-0.106-0.193-0.202
	l-0.659-2.678l-2.678-0.659c-0.102-0.025-0.178-0.109-0.202-0.211c-0.024-0.102,0.008-0.213,0.088-0.281l1.124-0.948
	c0.05-0.044,0.117-0.07,0.184-0.07h1.291l2.678-2.731l-5.198-2.037c-0.088-0.034-0.147-0.11-0.167-0.202
	c-0.02-0.092,0.004-0.188,0.07-0.255l0.957-0.983c0.063-0.064,0.149-0.1,0.237-0.088l6.744,0.913l1.897-1.897
	c0.371-0.395,2.174-1.66,3.231-1.66c0.26,0,0.471,0.074,0.623,0.219C23.631,22.121,21.726,24.695,21.337,25.083z M23.92,18.39
	C23.76,18.77,23.39,19,23,19c-0.13,0-0.27-0.03-0.39-0.08L16,16.09l-6.61,2.83c-0.5,0.22-1.09-0.02-1.31-0.53
	c-0.22-0.5,0.02-1.09,0.53-1.31l7-3c0.25-0.11,0.53-0.11,0.78,0l7,3C23.9,17.3,24.14,17.89,23.92,18.39z M38,32H28
	c-0.55,0-1-0.45-1-1s0.45-1,1-1h10c0.55,0,1,0.45,1,1S38.55,32,38,32z M41,28H28c-0.55,0-1-0.45-1-1s0.45-1,1-1h13
	c0.55,0,1,0.45,1,1S41.55,28,41,28z M27,23c0-0.55,0.45-1,1-1h10c0.55,0,1,0.45,1,1s-0.45,1-1,1H28C27.45,24,27,23.55,27,23z M41,20
	H28c-0.55,0-1-0.45-1-1s0.45-1,1-1h13c0.55,0,1,0.45,1,1S41.55,20,41,20z"/>
</svg>