<?xml version="1.0" encoding="iso-8859-1"?>
<!-- Generator: Adobe Illustrator 24.0.2, SVG Export Plug-In . SVG Version: 6.00 Build 0)  -->
<svg version="1.1" id="&#x421;&#x43B;&#x43E;&#x439;_1"
	 xmlns="http://www.w3.org/2000/svg" xmlns:xlink="http://www.w3.org/1999/xlink" x="0px" y="0px" viewBox="0 0 50 50"
	 style="enable-background:new 0 0 50 50;" xml:space="preserve">
<path d="M43,2H7C6.45,2,6,2.45,6,3v44c0,0.55,0.45,1,1,1h3V12c0-0.55,0.45-1,1-1h28c0.55,0,1,0.45,1,1v36h3c0.55,0,1-0.45,1-1V3
	C44,2.45,43.55,2,43,2z M20,8l2-3l2,3H20z M28,8l-2-3h4L28,8z"/>
<path d="M26,13v10.76l-1,1l-1-1V13H12v35h12V34.24l1-1l1,1V48h12V13H26z M27.83,30.41l6.88,6.88l-1.42,1.42L25,30.42l-8.29,8.29
	l-1.42-1.42l6.88-6.88L23.58,29l-8.29-8.29l1.42-1.42L25,27.58l8.29-8.29l1.42,1.42L26.42,29L27.83,30.41z"/>
</svg>