<?xml version="1.0" encoding="utf-8"?><!-- Generator: Adobe Illustrator 15.0.0, SVG Export Plug-In . SVG Version: 6.00 Build 0)  --><!DOCTYPE svg PUBLIC "-//W3C//DTD SVG 1.1//EN" "http://www.w3.org/Graphics/SVG/1.1/DTD/svg11.dtd"><svg xmlns="http://www.w3.org/2000/svg" xmlns:xlink="http://www.w3.org/1999/xlink" viewBox="0 0 50 50" width="50px" height="50px"><path d="M13,10c-2.757,0-5-2.243-5-5s2.243-5,5-5s5,2.243,5,5S15.757,10,13,10z"/><path fill="none" stroke="#000000" stroke-width="2" stroke-linecap="round" stroke-linejoin="round" stroke-miterlimit="10" d="M27,38h-6.8c-4.7,0-8.7-3.2-9.7-7.8L6.7,14"/><path d="M38,0c-4.486,0-8,3.514-8,8s3.514,8,8,8s8-3.514,8-8S42.486,0,38,0z M40.707,10.707C40.512,10.902,40.256,11,40,11s-0.512-0.098-0.707-0.293l-2-2C37.105,8.52,37,8.265,37,8V4c0-0.552,0.447-1,1-1s1,0.448,1,1v3.586l1.707,1.707C41.098,9.684,41.098,10.316,40.707,10.707z"/><path d="M35,50c-1.637,0-3.092-1.213-3.384-2.821L29.181,35H20.3c-3.168,0-5.951-2.199-6.768-5.349l-3.004-12.314c-0.359-1.376-0.111-2.848,0.686-4.023c0.788-1.162,2.049-1.93,3.462-2.106c0.211-0.03,0.438-0.046,0.661-0.046c2.28,0,4.354,1.681,4.933,3.996L23.386,28H31.5c1.939,0,3.575,1.313,3.978,3.191l2.904,14.715c0.203,1.017-0.053,2.055-0.701,2.847C37.03,49.546,36.054,50,35,50z"/></svg>