<?xml version="1.0" encoding="utf-8"?><!-- Generator: Adobe Illustrator 19.1.1, SVG Export Plug-In . SVG Version: 6.00 Build 0)  --><svg xmlns="http://www.w3.org/2000/svg" xmlns:xlink="http://www.w3.org/1999/xlink" viewBox="0 0 50 50" width="50px" height="50px"><circle cx="22.5" cy="4.5" r="1.5"/><circle cx="28.5" cy="5.5" r="1.5"/><path d="M8.6,24.3c-2.6,0-4.6-2.1-4.6-4.6S6.1,15,8.6,15s4.6,2.1,4.6,4.6S11.2,24.3,8.6,24.3z"/><path d="M18.9,39.5l-7.7-7.7c-1.8-1.7-1.4-3.8-0.3-5l2.3-2.3c0.6-0.6,1.4-1.1,2.3-1.3l3.5-0.9l4.5-5.1c0.4-0.5,1-0.8,1.6-0.8c0.6,0,1.3,0.2,1.7,0.6c0.5,0.4,0.8,1,0.8,1.7c0,0.6-0.2,1.3-0.6,1.7l-5,5.4c-0.1,0.1-0.1,0.1-0.2,0.1l-4.1,1.4l6.5,6.2l9.1-4.5c0,0,0,0,0,0c1-0.5,2.3-0.5,3.2,0.2l8.1,5.7c0.6,0.4,1,1,1.2,1.8s0,1.5-0.4,2.1c-0.8,1.2-2.5,1.6-3.7,0.8L35,35l-8.7,5C22.9,42,20,40.6,18.9,39.5z"/><path d="M24,12.7v1.9c0.3-0.1,0.7-0.2,1.1-0.2c0.1,0,0.2,0,0.3,0c0.2,0,0.4,0,0.6,0.1V13c0.8-0.1,1.4-0.5,1.8-0.8c0.6-0.5,1-1.3,1.2-2l-2-0.4c-0.1,0.3-0.3,0.7-0.5,0.9c-0.2,0.2-0.5,0.4-1.3,0.3c0,0,0,0,0,0s0,0,0,0c-0.9-0.2-1.4-0.9-1.7-1.8l-2.1-0.4C21.7,10.4,22.4,12.1,24,12.7z"/><line fill="none" stroke="#000000" stroke-width="2" stroke-linecap="round" stroke-linejoin="round" stroke-miterlimit="10" x1="47" y1="11" x2="3" y2="3"/><path d="M42.8,43l-8-5.4c-0.1,0-0.1-0.1-0.2-0.1l-7.2,4.1l4.4,0.7l8,5.2c0.5,0.3,1,0.5,1.5,0.5c0.8,0,1.6-0.4,2.2-1.1c0.5-0.6,0.7-1.4,0.5-2.1C43.9,44.1,43.4,43.4,42.8,43z"/><polygon points="24,30.5 24.6,31.1 26,30.4 26,24.6 24,26.7 "/></svg>