<?xml version="1.0" encoding="utf-8"?><!-- Generator: Adobe Illustrator 20.1.0, SVG Export Plug-In . SVG Version: 6.00 Build 0)  --><svg xmlns="http://www.w3.org/2000/svg" xmlns:xlink="http://www.w3.org/1999/xlink" viewBox="0 0 50 50" width="50px" height="50px"><style type="text/css">.st0{fill:none;stroke:#000000;stroke-width:2;stroke-miterlimit:10;}.st1{fill:none;stroke:#000000;stroke-width:2;stroke-linecap:round;stroke-miterlimit:10;}.st2{fill:none;stroke:#000000;stroke-width:2;stroke-linecap:round;stroke-linejoin:round;stroke-miterlimit:10;}.st3{fill:none;stroke:#000000;stroke-linecap:round;stroke-miterlimit:10;}.st4{fill:none;stroke:#000000;stroke-width:3;stroke-linecap:round;stroke-miterlimit:10;}.st5{fill:#FFFFFF;}.st6{stroke:#000000;stroke-width:2;stroke-miterlimit:10;}.st7{fill:none;stroke:#000000;stroke-width:2;stroke-linejoin:round;stroke-miterlimit:10;}.st8{fill:none;}</style><path d="M26.7,2c-5.2-0.3-10,3.1-11.4,8.2c-0.2,0.9-0.1,1.9,0.5,2.6c0.6,0.7,1.4,1.2,2.4,1.2c1.4,0,2.6-0.9,2.9-2.3c0.7-2.6,3.3-4.2,5.9-3.6c1.9,0.4,3.4,1.9,3.8,3.8c0.3,1.5,0,3.1-1,4.2S27.5,18,26,18h-6c-2.8,0-5,2.2-5,5v20c0,2.8,2.2,5,5,5h12c2.8,0,5-2.2,5-5V13.3C37,7.4,32.5,2.4,26.7,2z"/></svg>