<?xml version="1.0" encoding="iso-8859-1"?><!-- Generator: Adobe Illustrator 19.2.1, SVG Export Plug-In . SVG Version: 6.00 Build 0)  --><svg xmlns="http://www.w3.org/2000/svg" xmlns:xlink="http://www.w3.org/1999/xlink" viewBox="0 0 50 50" width="50px" height="50px"><path d="M37.999,35c-0.2,0-0.403-0.061-0.579-0.186c-0.45-0.32-0.555-0.945-0.234-1.395c0.06-0.084,4.989-7.093,7.58-17.038c-2.508,4.454-6.362,10.708-10.998,16.26c-0.354,0.423-0.984,0.482-1.408,0.126c-0.424-0.354-0.48-0.984-0.127-1.409c7.469-8.945,13.226-19.734,13.684-20.984c-0.07-0.404-0.316-1.279-0.73-1.357c-0.467-0.088-0.941,0.169-1.117,0.617c-3.152,8.019-18.956,25.818-34.141,27.254c-0.046,0.005-0.093,0.015-0.138,0.019c-0.372,0.033-0.743,0.056-1.114,0.068c-0.174,0.002-0.348,0.003-0.518,0.003c-0.556,0-1.088-0.011-1.603-0.032c0.167,0.509,0.338,0.996,0.521,1.437c0.001,0.001,0.001,0.002,0.002,0.004c0.001,0.003,0.003,0.005,0.004,0.008c0.023,0.053,0.049,0.105,0.081,0.153C7.362,38.852,12.185,46,25,46s17.638-7.148,17.837-7.453c0.013-0.019,0.013-0.041,0.024-0.061c0.02-0.035,0.047-0.065,0.063-0.103c1.531-3.69,2.479-9.737,2.869-18.344c-2.741,8.525-6.752,14.223-6.978,14.541C38.619,34.854,38.312,35,37.999,35z"/><path d="M5.931,9.634C5.929,9.63,5.926,9.628,5.924,9.624C5.886,9.53,5.825,9.45,5.761,9.372C5.742,9.35,5.732,9.319,5.711,9.298C5.644,9.23,5.56,9.183,5.475,9.137c-0.028-0.016-0.05-0.041-0.08-0.054c-0.047-0.02-0.101-0.02-0.15-0.033c-0.077-0.02-0.153-0.046-0.233-0.047C5.008,9.002,5.004,9,5,9C4.935,9,4.879,9.025,4.818,9.037C4.756,9.048,4.694,9.046,4.634,9.069C4.63,9.071,4.627,9.074,4.623,9.076C4.54,9.11,4.472,9.166,4.402,9.219C4.368,9.245,4.326,9.261,4.297,9.29C4.251,9.335,4.224,9.395,4.188,9.448C4.152,9.501,4.107,9.547,4.082,9.606c-0.016,0.037-0.015,0.081-0.027,0.12c-0.011,0.039,0.048,0.673,0.038,0.712c0.709,1.498,4.746,9.245,10.598,14.84c0.398,0.381,0.413,1.015,0.031,1.414s-1.015,0.414-1.414,0.032c-3.176-3.036-5.82-6.768-7.744-9.897c2.021,5.734,5.222,10.551,5.266,10.617c0.308,0.459,0.186,1.08-0.273,1.388C10.386,28.945,10.192,29,10.001,29c-0.322,0-0.639-0.155-0.831-0.443c-0.176-0.262-2.956-4.459-5.014-9.773c0.263,6.907,0.865,12.252,1.818,16.125c0.688,0.042,1.41,0.069,2.184,0.069c0.163,0,0.33-0.001,0.451-0.002c5.701-0.194,11.565-2.992,16.791-6.792c0.036-0.05,0.085-0.107,0.099-0.147C18.072,23.635,7.629,13.953,5.931,9.634z"/><line style="fill:none;stroke:#000000;stroke-width:2;stroke-linecap:round;stroke-linejoin:round;stroke-miterlimit:10;" x1="3" y1="5" x2="5" y2="10"/><line style="fill:none;stroke:#000000;stroke-width:2;stroke-linecap:round;stroke-linejoin:round;stroke-miterlimit:10;" x1="45" y1="10" x2="47" y2="5"/></svg>