<?xml version="1.0" encoding="utf-8"?><!-- Generator: Adobe Illustrator 15.0.0, SVG Export Plug-In . SVG Version: 6.00 Build 0)  --><!DOCTYPE svg PUBLIC "-//W3C//DTD SVG 1.1//EN" "http://www.w3.org/Graphics/SVG/1.1/DTD/svg11.dtd"><svg xmlns="http://www.w3.org/2000/svg" xmlns:xlink="http://www.w3.org/1999/xlink" viewBox="0 0 50 50" width="50px" height="50px"><path d="M35.848,42.081l-10.8-32.001c-0.01-0.031-0.034-0.053-0.047-0.082V7.1C25,3.185,21.86,0,18,0s-7,3.185-7,7.1v2.625c-0.057,0.08-0.115,0.159-0.148,0.256L0.03,42.157c-0.161,0.644-0.034,1.339,0.348,1.907c0.379,0.563,0.955,0.937,1.538,1.018c2.943,0.553,4.753,2.555,5.57,3.699c0.216,0.303,0.493,0.535,0.795,0.722l4.448-18.042c0.132-0.537,0.677-0.866,1.21-0.731c0.536,0.132,0.864,0.674,0.731,1.21l-4.425,17.946c0.215-0.034,0.432-0.086,0.647-0.167c1.192-0.511,3.358-1.119,6.906-1.119c3.338,0,5.476,0.61,6.95,1.137c0.301,0.113,0.619,0.171,0.936,0.181l-4.357-17.981c-0.13-0.536,0.199-1.077,0.736-1.207c0.533-0.133,1.077,0.198,1.207,0.736l4.326,17.852c0.199-0.154,0.379-0.33,0.516-0.535c1.463-2.048,3.335-3.292,5.485-3.687c0.795-0.079,1.495-0.471,1.92-1.074C35.901,43.477,36.03,42.798,35.848,42.081z M13,7.1C13,4.288,15.243,2,18,2s5,2.288,5,5.1v2.346V15.2c0,3.077-2.472,7.2-5,7.2s-5-4.123-5-7.2V9.36V7.1z"/><path d="M49.848,42.081L39.047,10.08c-0.011-0.031-0.034-0.052-0.047-0.081V7.1C39,3.185,35.859,0,32,0c-2.454,0-2.757,2,0,2s5,2.288,5,5.1v8.1c0,3.077-2.472,7.2-5,7.2c-0.243,0-0.484-0.049-0.725-0.12l5.949,17.627l-1.897-7.976c-0.128-0.537,0.204-1.076,0.741-1.204c0.536-0.126,1.076,0.204,1.204,0.741l4.255,17.89c0.228-0.164,0.435-0.35,0.586-0.577c1.463-2.048,3.335-3.292,5.485-3.687c0.795-0.079,1.495-0.471,1.92-1.074C49.901,43.477,50.03,42.798,49.848,42.081z"/><path d="M37.154,45.172c-0.742,1.053-1.926,1.743-3.26,1.902c-1.206,0.234-2.287,0.829-3.229,1.771c0.781-0.079,1.649-0.129,2.635-0.129c0.021,0,0.038-0.011,0.058-0.012c2.614,0.11,4.44,0.715,5.392,1.031c0.275,0.104,0.564,0.151,0.854,0.168L37.91,42.79C37.896,43.642,37.653,44.463,37.154,45.172z"/><path fill="none" stroke="#000000" stroke-width="2" stroke-linecap="round" stroke-linejoin="round" stroke-miterlimit="10" d="M32,1c-1.8,0-3.5,0.8-4.6,2.2"/></svg>