<?xml version="1.0" encoding="utf-8"?><!-- Generator: Adobe Illustrator 15.0.0, SVG Export Plug-In . SVG Version: 6.00 Build 0)  --><!DOCTYPE svg PUBLIC "-//W3C//DTD SVG 1.1//EN" "http://www.w3.org/Graphics/SVG/1.1/DTD/svg11.dtd"><svg xmlns="http://www.w3.org/2000/svg" xmlns:xlink="http://www.w3.org/1999/xlink" viewBox="0 0 50 50" width="50px" height="50px"><path d="M22.681,27.997l-2.245-7.174c-0.02-0.075-0.04-0.156-0.058-0.217l-0.009,0.003l-2.536-8.102C17.177,10.409,15.259,9,13.061,9H0v2h13.061c1.319,0,2.469,0.845,2.862,2.104l2.597,8.298c0.141,0.577,0.321,1.76-0.287,2.575C17.728,24.656,16.727,25,15.259,25H0v20h13v2c0,1.654,1.346,3,3,3h4c1.654,0,3-1.346,3-3V30.088C23,29.376,22.893,28.672,22.681,27.997z M15,38c-0.904,0-3.245,0-4,0c-1.104,0-2-0.895-2-2c0-1.307,0.919-1.927,2.08-2.584C12.814,32.434,13.324,32,15,32c1.656,0,3,1.342,3,3S16.656,38,15,38z"/><g><path d="M46,4V1c0-0.552-0.447-1-1-1H35c-0.553,0-1,0.448-1,1v3H46z"/><path d="M40,12c3.309,0,6-2.691,6-6H34C34,9.309,36.691,12,40,12z"/></g><path d="M44.5,13h-0.571L40,24l-3.929-11H34.5c-3.033,0-5.5,2.467-5.5,5.5V33c0,1.104,0.896,2,2,2s2-0.896,2-2V21c0-0.271,0.229-0.5,0.5-0.5S34,20.729,34,21v26.3c0,1.564,0.835,2.7,2.4,2.7c1.481,0,2.6-1.161,2.6-2.7V33.7c0-0.276,0.225-0.5,0.5-0.5s0.5,0.224,0.5,0.5V42v2v3.592c0.004,0.006,0.012,0.01,0.016,0.016C40.152,48.991,41.218,50,42.6,50c1.564,0,2.4-1.136,2.4-2.7V44v-2V21c0-0.271,0.229-0.5,0.5-0.5S46,20.729,46,21v12c0,1.104,0.896,2,2,2s2-0.896,2-2V18.5C50,15.467,47.533,13,44.5,13z"/></svg>