<?xml version="1.0" encoding="iso-8859-1"?><!-- Generator: Adobe Illustrator 19.2.1, SVG Export Plug-In . SVG Version: 6.00 Build 0)  --><svg xmlns="http://www.w3.org/2000/svg" xmlns:xlink="http://www.w3.org/1999/xlink" viewBox="0 0 50 50" width="50px" height="50px"><polyline style="fill:none;stroke:#000000;stroke-width:2;stroke-linecap:round;stroke-linejoin:round;stroke-miterlimit:10;" points="31,18 43,10 48,18 "/><line style="fill:none;stroke:#000000;stroke-width:2;stroke-linecap:round;stroke-linejoin:round;stroke-miterlimit:10;" x1="44" y1="6" x2="43" y2="10"/><polyline style="fill:none;stroke:#000000;stroke-width:2;stroke-linecap:round;stroke-linejoin:round;stroke-miterlimit:10;" points="2,23 7,11 18,16 "/><line style="fill:none;stroke:#000000;stroke-width:2;stroke-linecap:round;stroke-linejoin:round;stroke-miterlimit:10;" x1="6" y1="6" x2="7" y2="11"/><path d="M48.754,17.343C48.564,17.125,48.289,17,48,17H31c-0.532,0-0.97,0.417-0.999,0.948c-0.043,0.812-1.237,19.74-17.597,20.047c0.017-0.006,0.032-0.012,0.049-0.018c-0.021,0-0.041,0.003-0.063,0.003c-0.352-0.355-1.003-1.037-1.815-1.981c0.525,0,1.066-0.001,1.424-0.001c7.713,0,11.711-4.682,13.786-9.295c-5.113-3.609-6.79-10.837-6.808-10.921c-0.008-0.034-0.03-0.059-0.04-0.091c-0.01-0.031-0.007-0.063-0.02-0.093c-0.014-0.032-0.041-0.053-0.058-0.083c-0.034-0.061-0.071-0.115-0.116-0.166c-0.042-0.048-0.085-0.089-0.135-0.128c-0.051-0.04-0.103-0.073-0.161-0.102c-0.057-0.029-0.114-0.051-0.176-0.069c-0.06-0.017-0.119-0.028-0.183-0.033c-0.069-0.006-0.135-0.004-0.205,0.004c-0.034,0.004-0.066-0.005-0.1,0.002c-0.032,0.007-0.056,0.028-0.087,0.038c-0.032,0.01-0.066,0.007-0.098,0.021l-16,7c-0.459,0.201-0.699,0.71-0.561,1.192c2.627,9.151,9.962,16.156,10.26,16.437C11.518,39.929,16.78,45,26,45c12.777,0,20.513-9.038,22.99-26.862C49.03,17.851,48.944,17.562,48.754,17.343z M3.217,23.559L17.34,17.38c0.164,0.542,0.397,1.236,0.714,2.034l-14.081,6.16C3.699,24.915,3.44,24.246,3.217,23.559z M46.488,21H31.602c0.15-0.812,0.246-1.497,0.306-2h14.935C46.736,19.689,46.61,20.341,46.488,21z"/></svg>