<?xml version="1.0" encoding="iso-8859-1"?>
<!-- Generator: Adobe Illustrator 23.0.3, SVG Export Plug-In . SVG Version: 6.00 Build 0)  -->
<svg version="1.1" xmlns="http://www.w3.org/2000/svg" xmlns:xlink="http://www.w3.org/1999/xlink" x="0px" y="0px"
	 viewBox="0 0 50 50" style="enable-background:new 0 0 50 50;" xml:space="preserve">
<g id="Layer_10" style="display:none;">
	<g style="display:inline;opacity:0.05;">
		<g>
			<circle style="fill:#FFFFFF;" cx="25" cy="25" r="21.5"/>
			<path d="M25,4c11.579,0,21,9.421,21,21s-9.421,21-21,21S4,36.579,4,25S13.421,4,25,4 M25,3C12.85,3,3,12.85,3,25s9.85,22,22,22
				s22-9.85,22-22S37.15,3,25,3L25,3z"/>
		</g>
		<g>
			<rect x="5.5" y="5.5" style="fill:#FFFFFF;" width="39" height="39"/>
			<path d="M44,6v38H6V6H44 M45,5H5v40h40V5L45,5z"/>
		</g>
	</g>
</g>
<g id="filled">
</g>
<g id="outlined">
</g>
<g id="rounded">
</g>
<g id="two_x5F_tone">
</g>
<g id="sharp">
</g>
<g id="win10">
</g>
<g id="ios_x5F_out">
</g>
<g id="ios_x5F_filled">
	<rect x="29" y="38" width="4" height="7"/>
	<rect x="36" y="38" width="4" height="7"/>
	
		<line style="fill:#FFFFFF;stroke:#000000;stroke-width:2;stroke-linejoin:round;stroke-miterlimit:10;" x1="5" y1="37" x2="23" y2="37"/>
	<path d="M27.22,25.08c-0.32,0.62-0.29,1.36,0.07,1.96c0.35,0.57,0.97,0.92,1.63,0.95l-3.69,7.08c-0.02,0.04-0.04,0.07-0.05,0.11
		c-1.36-0.83-2.26-2.36-2.26-4.1v-0.11C21.19,30.25,20,28.51,20,26.52c0-1.39,0.57-2.68,1.57-3.58c-0.07-0.33-0.11-0.65-0.11-0.98
		c0-0.49,0.08-0.97,0.22-1.44c-0.15-0.56-0.22-1.09-0.22-1.6c0-1.53,0.52-2.97,1.48-4.12c-0.01-0.15-0.02-0.29-0.02-0.44
		c0-2.31,1.62-4.27,3.77-4.7c1.09-1.92,3.1-3.14,5.27-3.14c0.92,0,1.79,0.21,2.57,0.59l-4.29,7.94c-0.33,0.62-0.32,1.37,0.04,1.97
		c0.18,0.31,0.44,0.56,0.74,0.72L27.22,25.08z"/>
	
		<line style="fill:#FFFFFF;stroke:#000000;stroke-width:2;stroke-linejoin:round;stroke-miterlimit:10;" x1="8" y1="45" x2="8" y2="37"/>
	
		<line style="fill:#FFFFFF;stroke:#000000;stroke-width:2;stroke-linejoin:round;stroke-miterlimit:10;" x1="20" y1="45" x2="20" y2="37"/>
	
		<line style="fill:#FFFFFF;stroke:#000000;stroke-width:2;stroke-linejoin:round;stroke-miterlimit:10;" x1="8" y1="34" x2="8" y2="15"/>
	<g>
		<polygon points="9.8,14 6.2,14 7,16 9,16 9.8,14 		"/>
	</g>
	<polygon points="8,8 5,11 11,11 	"/>
	<rect x="8" y="38" width="12" height="3"/>
	<polygon points="49,36 27,36 31.18,28 44.82,28 	"/>
	<polygon points="47,26 29,26 33.14,18 42.86,18 	"/>
	<polygon points="44,16 32,16 38,4.9 	"/>
</g>
<g id="color">
</g>
</svg>