<svg xmlns="http://www.w3.org/2000/svg"  viewBox="0 0 46 46" width="50px" height="50px"><title>ios-fld_baggage-weight</title><g id="Слой_2" data-name="Слой 2"><g id="Слой_6" data-name="Слой 6"><path d="M45,45H13.45C9.393,45,8,42.656,8,38.976V16" fill="none" stroke="#000" stroke-linecap="round" stroke-linejoin="round" stroke-width="2"/><path d="M34,19.922V17.364A2.2,2.2,0,0,0,32,15H26a2.2,2.2,0,0,0-2,2.364v2.558" fill="none" stroke="#000" stroke-linecap="round" stroke-linejoin="round" stroke-width="2"/><circle cx="8" cy="8" r="7" fill="none" stroke="#000" stroke-linecap="round" stroke-linejoin="round" stroke-width="2"/><rect x="21" y="19" width="16" height="22"/><path d="M43.316,19H39V41h4.316A2.678,2.678,0,0,0,46,38.333V21.667A2.678,2.678,0,0,0,43.316,19Z"/><path d="M19,19H14.684A2.678,2.678,0,0,0,12,21.667V38.333A2.678,2.678,0,0,0,14.684,41H19Z"/><line x1="8" y1="8" x2="10" y2="6" fill="none" stroke="#000" stroke-linecap="round" stroke-linejoin="round" stroke-width="2"/></g></g></svg>