<?xml version="1.0" encoding="utf-8"?><!-- Generator: Adobe Illustrator 15.0.0, SVG Export Plug-In . SVG Version: 6.00 Build 0)  --><!DOCTYPE svg PUBLIC "-//W3C//DTD SVG 1.1//EN" "http://www.w3.org/Graphics/SVG/1.1/DTD/svg11.dtd"><svg xmlns="http://www.w3.org/2000/svg" xmlns:xlink="http://www.w3.org/1999/xlink" viewBox="0 0 50 50" width="50px" height="50px"><g><path d="M37.121,49.999C37.12,49.999,37.12,49.999,37.121,49.999c-4.523,0-5.73-3.462-5.73-5.508c0-2.407,1.087-3.655,2.045-4.757c0.867-0.996,1.616-1.856,1.616-3.657c0-1.305-1.224-2.531-2.52-3.831C30.877,30.586,29,28.705,29,26.01c0-4.651,3.082-7.01,9.159-7.01C43.395,19,49,23.583,49,30.406c0,2.792-0.574,7.487-2.193,11.528C44.693,47.21,41.344,49.999,37.121,49.999z"/><g><g><path d="M29.648,13c-0.293,0-0.584,0.051-0.867,0.158c-1.514,0.572-2.194,2.532-1.521,4.378C27.807,19.037,29.082,20,30.354,20c0.291,0,0.584-0.051,0.867-0.158c1.512-0.572,2.193-2.532,1.521-4.378C32.193,13.963,30.918,13,29.648,13L29.648,13z"/></g></g><g><path d="M35.832,13.046c-0.044,0-0.088,0.002-0.133,0.006c-1.031,0.095-1.766,1.273-1.641,2.629c0.119,1.298,0.982,2.291,1.959,2.291c0.045,0,0.088-0.002,0.133-0.006c1.031-0.095,1.766-1.272,1.641-2.629C37.671,14.038,36.809,13.046,35.832,13.046L35.832,13.046z"/></g><g><path d="M41.025,14.2c-0.741,0-1.44,0.778-1.603,1.827c-0.174,1.124,0.333,2.133,1.132,2.254c0.053,0.008,0.106,0.012,0.159,0.012c0.742,0,1.44-0.778,1.603-1.827c0.175-1.124-0.332-2.133-1.131-2.254C41.132,14.204,41.079,14.2,41.025,14.2L41.025,14.2z"/></g><g><path d="M45.09,16.372c-0.527,0-1.102,0.343-1.461,0.927c-0.494,0.806-0.389,1.767,0.234,2.146c0.173,0.104,0.365,0.154,0.566,0.154c0.526,0,1.102-0.343,1.461-0.927c0.493-0.806,0.389-1.767-0.236-2.146C45.482,16.422,45.29,16.372,45.09,16.372L45.09,16.372z"/></g><g><path d="M48.041,18.831c-0.471,0-0.988,0.309-1.316,0.836c-0.451,0.725-0.371,1.587,0.178,1.925c0.15,0.093,0.32,0.136,0.498,0.136c0.47,0,0.988-0.309,1.315-0.836c0.451-0.725,0.372-1.587-0.178-1.925C48.389,18.875,48.218,18.831,48.041,18.831L48.041,18.831z"/></g></g><g><path d="M12.879,36.999c-4.223,0-7.572-2.788-9.686-8.064C1.574,24.894,1,20.199,1,17.406C1,10.583,6.605,6,11.841,6C17.918,6,21,8.358,21,13.01c0,2.695-1.876,4.577-3.532,6.237c-1.296,1.299-2.52,2.526-2.52,3.831c0,1.801,0.749,2.661,1.616,3.657c0.958,1.102,2.045,2.35,2.045,4.757C18.609,33.537,17.402,36.999,12.879,36.999L12.879,36.999C12.88,36.999,12.879,36.999,12.879,36.999z"/><g><g><path d="M20.352,0c-1.271,0-2.545,0.963-3.093,2.464C16.586,4.31,17.266,6.27,18.78,6.842C19.064,6.949,19.355,7,19.647,7c1.271,0,2.545-0.963,3.093-2.464c0.674-1.846-0.007-3.806-1.521-4.378C20.936,0.051,20.645,0,20.352,0L20.352,0z"/></g></g><g><path d="M14.168,0.046c-0.977,0-1.839,0.993-1.959,2.291c-0.125,1.357,0.609,2.534,1.64,2.629c0.045,0.004,0.089,0.006,0.133,0.006c0.977,0,1.839-0.992,1.959-2.291c0.125-1.357-0.609-2.534-1.64-2.629C14.257,0.048,14.212,0.046,14.168,0.046L14.168,0.046z"/></g><g><path d="M8.974,1.2c-0.053,0-0.106,0.004-0.159,0.012c-0.799,0.121-1.306,1.13-1.132,2.254c0.163,1.049,0.861,1.827,1.603,1.827c0.053,0,0.106-0.004,0.159-0.012c0.799-0.121,1.306-1.131,1.132-2.254C10.415,1.978,9.716,1.2,8.974,1.2L8.974,1.2z"/></g><g><path d="M4.91,3.372c-0.2,0-0.393,0.049-0.565,0.154C3.721,3.905,3.616,4.866,4.11,5.672c0.358,0.585,0.934,0.927,1.461,0.927c0.2,0,0.393-0.049,0.565-0.154C6.76,6.067,6.865,5.106,6.371,4.3C6.012,3.715,5.437,3.372,4.91,3.372L4.91,3.372z"/></g><g><path d="M1.959,5.831c-0.177,0-0.346,0.044-0.497,0.136c-0.55,0.338-0.629,1.2-0.178,1.925C1.612,8.419,2.13,8.729,2.6,8.729c0.177,0,0.346-0.044,0.497-0.136c0.55-0.338,0.629-1.2,0.178-1.925C2.946,6.141,2.428,5.831,1.959,5.831L1.959,5.831z"/></g></g></svg>