<?xml version="1.0" encoding="utf-8"?><!-- Generator: Adobe Illustrator 15.0.0, SVG Export Plug-In . SVG Version: 6.00 Build 0)  --><!DOCTYPE svg PUBLIC "-//W3C//DTD SVG 1.1//EN" "http://www.w3.org/Graphics/SVG/1.1/DTD/svg11.dtd"><svg xmlns="http://www.w3.org/2000/svg" xmlns:xlink="http://www.w3.org/1999/xlink" viewBox="0 0 50 50" width="50px" height="50px"><path d="M35,8c-0.297,0-0.578-0.132-0.769-0.36l-5-6c-0.248-0.298-0.302-0.713-0.137-1.064C29.259,0.225,29.612,0,30,0h10c0.388,0,0.741,0.225,0.905,0.576c0.165,0.352,0.111,0.767-0.137,1.064l-5,6C35.578,7.868,35.297,8,35,8z"/><path d="M21,8H11c-0.388,0-0.741-0.225-0.906-0.576C9.93,7.073,9.983,6.658,10.232,6.36l5-6c0.38-0.456,1.156-0.456,1.536,0l5,6c0.249,0.298,0.302,0.713,0.138,1.064C21.741,7.775,21.388,8,21,8z"/><path d="M47,10H3c-1.654,0-3,1.346-3,3v34c0,1.654,1.346,3,4,3h44c0.654,0,2-1.346,2-3V13C50,11.346,48.654,10,47,10z M39,14c1.655,0,3,1.346,3,3s-1.345,3-3,3s-3-1.346-3-3S37.345,14,39,14z M25,14c1.655,0,3,1.346,3,3s-1.345,3-3,3c-1.654,0-3-1.346-3-3S23.346,14,25,14z M11,14c1.653,0,3,1.347,3,3s-1.347,3-3,3s-3-1.347-3-3S9.347,14,11,14z M16,35c0,0.379-0.214,0.725-0.553,0.895L14,36.618V45c0,0.553-0.448,1-1,1H9c-0.552,0-1-0.447-1-1v-8.382l-1.447-0.724C6.214,35.725,6,35.379,6,35v-7c0-3.364,1.636-6,5-6s5,2.636,5,6V35z M30,35c0,0.379-0.214,0.725-0.553,0.895L28,36.618V45c0,0.553-0.447,1-1,1h-4c-0.552,0-1-0.447-1-1v-8.382l-1.447-0.724C20.214,35.725,20,35.379,20,35v-7c0-3.364,1.636-6,5-6s5,2.636,5,6V35z M44,35c0,0.379-0.214,0.725-0.553,0.895L42,36.618V45c0,0.553-0.447,1-1,1h-4c-0.553,0-1-0.447-1-1v-8.382l-1.447-0.724C34.214,35.725,34,35.379,34,35v-7c0-3.364,1.636-6,5-6s5,2.636,5,6V35z"/></svg>