<?xml version="1.0" encoding="utf-8"?><!-- Generator: Adobe Illustrator 15.0.0, SVG Export Plug-In . SVG Version: 6.00 Build 0)  --><!DOCTYPE svg PUBLIC "-//W3C//DTD SVG 1.1//EN" "http://www.w3.org/Graphics/SVG/1.1/DTD/svg11.dtd"><svg xmlns="http://www.w3.org/2000/svg" xmlns:xlink="http://www.w3.org/1999/xlink" viewBox="0 0 50 50" width="50px" height="50px"><line fill="none" stroke="#000000" stroke-width="2" stroke-miterlimit="10" x1="25" y1="0" x2="25" y2="5.5"/><path d="M47.2,45.9c-1.61,0-3.807-0.396-5.5-1.472c-1.694,1.075-3.89,1.472-5.5,1.472s-3.807-0.396-5.5-1.472c-1.694,1.075-3.89,1.472-5.5,1.472s-3.806-0.396-5.5-1.472c-1.694,1.075-3.89,1.472-5.5,1.472s-3.806-0.396-5.5-1.472C7.006,45.504,4.811,45.9,3.2,45.9c-0.41,0-0.788-0.031-1.134-0.061C1.825,45.82,1.603,45.8,1.4,45.8c-0.552,0-1-0.447-1-1s0.448-1,1-1c0.255,0,0.533,0.022,0.834,0.048C2.529,43.872,2.851,43.9,3.2,43.9c1.408,0,3.528-0.387,4.87-1.477c0.367-0.299,0.893-0.299,1.261,0c1.341,1.09,3.461,1.477,4.869,1.477c1.408,0,3.528-0.387,4.87-1.477c0.367-0.299,0.893-0.299,1.261,0c1.341,1.09,3.461,1.477,4.869,1.477c1.407,0,3.527-0.387,4.869-1.477c0.369-0.299,0.895-0.299,1.262,0c1.341,1.09,3.461,1.477,4.869,1.477c1.407,0,3.527-0.387,4.869-1.477c0.369-0.299,0.895-0.299,1.262,0c1.341,1.09,3.461,1.477,4.869,1.477c0.568,0,1.049-0.077,1.428-0.229c0.512-0.205,1.095,0.044,1.301,0.557c0.205,0.513-0.044,1.095-0.557,1.301C48.755,45.775,48.023,45.9,47.2,45.9z"/><path fill="none" stroke="#000000" stroke-width="2" stroke-linecap="round" stroke-linejoin="round" stroke-miterlimit="10" d="M49,48.6c-0.5,0.2-1.1,0.301-1.8,0.301c-1.5,0-3.9-0.4-5.5-1.7c-1.601,1.3-4,1.7-5.5,1.7s-3.9-0.4-5.5-1.7c-1.601,1.3-4,1.7-5.5,1.7s-3.9-0.4-5.5-1.7c-1.6,1.3-4,1.7-5.5,1.7s-3.9-0.4-5.5-1.7c-1.6,1.3-4,1.7-5.5,1.7c-0.7,0-1.3-0.101-1.8-0.101"/><path d="M46.684,23.56c-0.413-0.998-1.239-1.766-2.267-2.108l-19.099-6.4c-0.205-0.069-0.427-0.068-0.634,0l-19.2,6.4c-0.974,0.325-1.745,1.024-2.169,1.97c-0.425,0.947-0.438,2.031-0.018,3.008L7,34.226v6.517c0.499-0.346,1.091-0.543,1.7-0.543c0.687,0,1.358,0.239,1.893,0.673c0.869,0.706,2.479,1.028,3.607,1.028s2.738-0.322,3.607-1.027c0.533-0.435,1.205-0.674,1.893-0.674c0.687,0,1.358,0.239,1.893,0.673c0.869,0.706,2.479,1.028,3.607,1.028s2.737-0.322,3.61-1.031c0.534-0.432,1.205-0.67,1.891-0.67c0.688,0,1.359,0.239,1.892,0.673c0.869,0.706,2.479,1.028,3.607,1.028s2.737-0.322,3.61-1.031c0.534-0.432,1.205-0.67,1.891-0.67c0.453,0,0.895,0.113,1.299,0.308V34.22l3.595-7.772C47.041,25.554,47.073,24.502,46.684,23.56z M16.5,30c-0.829,0-1.5-1.119-1.5-2.5s0.671-2.5,1.5-2.5s1.5,1.119,1.5,2.5S17.329,30,16.5,30z M33.5,30c-0.828,0-1.5-1.119-1.5-2.5s0.672-2.5,1.5-2.5s1.5,1.119,1.5,2.5S34.328,30,33.5,30z"/><path d="M24.061,13.151c0.305-0.1,0.622-0.151,0.941-0.151c0.326,0,0.647,0.053,0.952,0.155L40,17.862V12c0-0.552-0.447-1-1-1h-5V6c0-0.552-0.447-1-1-1H17c-0.552,0-1,0.448-1,1v5h-5c-0.552,0-1,0.448-1,1v5.837L24.061,13.151z"/></svg>