<?xml version="1.0" encoding="iso-8859-1"?><!-- Generator: Adobe Illustrator 22.1.0, SVG Export Plug-In . SVG Version: 6.00 Build 0)  --><svg xmlns="http://www.w3.org/2000/svg" xmlns:xlink="http://www.w3.org/1999/xlink" viewBox="0 0 50 50" width="50px" height="50px"><path d="M44.642,35.211c0.42,0.36,0.469,0.992,0.108,1.412l-5.996,7.014c-0.189,0.223-0.466,0.351-0.757,0.351c-0.006,0-0.012,0-0.017,0c-0.298-0.005-0.578-0.143-0.764-0.376l-3.997-5.01c-0.345-0.433-0.274-1.063,0.156-1.409c0.433-0.346,1.06-0.275,1.405,0.156l3.243,4.066l5.211-6.095C43.594,34.898,44.224,34.851,44.642,35.211z M49.988,38.978C49.988,45.055,45.056,50,38.996,50c-5.703,0-10.402-4.379-10.938-9.959l-9.04,9.064c-0.528,0.526-1.239,0.817-2.006,0.817s-1.479-0.291-2.006-0.817l-3.098-3.109c-0.376-0.377-0.392-0.982-0.036-1.379c0.736-0.82,1.142-1.898,1.142-3.035c0-2.598-2.106-4.709-4.697-4.709c-1.03,0-2.122,0.419-3.073,1.186c-0.399,0.321-0.97,0.287-1.331-0.074l-3.098-3.106C0.291,34.348,0,33.637,0,32.866c0-0.77,0.29-1.484,0.817-2.012L24.221,7.541l1.378,1.382c0.195,0.195,0.451,0.294,0.706,0.294c0.257,0,0.513-0.098,0.706-0.293c0.392-0.392,0.392-1.025,0-1.417L25.638,6.13l5.359-5.339c1.05-1.053,2.955-1.056,4.009,0.002l3.099,3.106c0.36,0.361,0.392,0.936,0.074,1.335c-0.717,0.898-1.081,1.901-1.081,2.981c0,2.597,2.106,4.71,4.697,4.71c1.077,0,2.077-0.365,2.973-1.083c0.394-0.319,0.97-0.289,1.331,0.074l3.098,3.106c0.564,0.565,0.855,1.348,0.797,2.146c-0.049,0.72-0.392,1.38-0.94,1.821l-5.295,5.31l-1.356-1.359c-0.391-0.392-1.022-0.392-1.413,0c-0.391,0.392-0.391,1.026,0,1.417l1.356,1.358l-2.288,2.295C45.621,28.546,49.988,33.259,49.988,38.978z M36.815,20.169l1.403,1.407c0.194,0.195,0.45,0.294,0.705,0.294c0.257,0,0.513-0.098,0.706-0.294c0.389-0.392,0.389-1.026,0-1.417l-1.402-1.407c-0.392-0.392-1.021-0.392-1.413,0C36.423,19.144,36.423,19.778,36.815,20.169z M32.607,15.949l1.401,1.407c0.195,0.195,0.451,0.294,0.706,0.294s0.512-0.098,0.706-0.294c0.391-0.391,0.391-1.025,0-1.417l-1.401-1.407c-0.392-0.392-1.021-0.392-1.413,0C32.215,14.923,32.215,15.557,32.607,15.949z M28.397,11.729l1.403,1.407c0.195,0.195,0.451,0.294,0.706,0.294s0.512-0.098,0.706-0.294c0.391-0.392,0.391-1.026,0-1.417l-1.403-1.407c-0.391-0.392-1.02-0.392-1.413,0C28.006,10.704,28.006,11.338,28.397,11.729z M47.989,38.978c0-4.973-4.034-9.018-8.993-9.018s-8.993,4.045-8.993,9.018s4.034,9.018,8.993,9.018S47.989,43.951,47.989,38.978z"/></svg>