<?xml version="1.0" encoding="utf-8"?><!-- Generator: Adobe Illustrator 15.0.0, SVG Export Plug-In . SVG Version: 6.00 Build 0)  --><!DOCTYPE svg PUBLIC "-//W3C//DTD SVG 1.1//EN" "http://www.w3.org/Graphics/SVG/1.1/DTD/svg11.dtd"><svg xmlns="http://www.w3.org/2000/svg" xmlns:xlink="http://www.w3.org/1999/xlink" viewBox="0 0 50 50" width="50px" height="50px"><circle cx="25" cy="43" r="3"/><path d="M27.5,36.1c0.4,0,0.8,0.301,0.9,0.601L29,38h2c1.1,0,2,0.9,2,2v6c0,1.1-0.9,2-2,2H19c-1.1,0-2-0.9-2-2v-6c0-1.1,0.9-2,2-2h2.1l0.5-1.3c0.2-0.4,0.5-0.601,0.9-0.601H27.5 M27.5,34.1h-5c-1.168,0-2.148,0.622-2.689,1.708l-0.043,0.085l-0.034,0.09L19.727,36H19c-2.206,0-4,1.794-4,4v6c0,2.206,1.794,4,4,4h12c2.206,0,4-1.794,4-4v-6c0-2.206-1.794-4-4-4h-0.72l-0.035-0.075C29.817,34.859,28.688,34.1,27.5,34.1L27.5,34.1z"/><path d="M44.998,40.945c-0.334-6.091-5.203-8.014-9.114-9.558c-1.062-0.42-2.052-0.815-2.884-1.252v7.777h-2v-9.457c-0.035-0.063-0.199-1.681-0.2-2.703c0.868-0.913,1.787-2.826,2.171-4.562c0.717-0.339,1.617-1.223,1.825-3.508c0.096-1.138-0.221-1.971-0.654-2.504c0.587-2.061,1.557-6.643-0.35-9.593c-0.845-1.307-2.121-2.116-3.799-2.411C29.006,1.839,27.111,1,25,1c-3.598,0-6.535,1.35-8.271,3.8c-1.883,2.657-2.226,6.436-0.968,10.442c-0.398,0.534-0.746,1.367-0.651,2.493c0.295,2.164,1.119,3.053,1.789,3.417c0.338,1.803,1.322,3.71,2.206,4.611c0.003,0.221-0.098,2.528-0.104,2.542v8.727h-2v-6.897c-0.831,0.443-1.832,0.845-2.907,1.271C10.191,32.951,5.335,34.876,5,41v9h40L44.998,40.945z M33,46c0,1.1-0.9,2-2,2H19c-1.1,0-2-0.9-2-2v-6c0-1.1,0.9-2,2-2h2.1l0.5-1.3c0.2-0.4,0.5-0.601,0.9-0.601h5c0.4,0,0.8,0.301,0.9,0.601L29,38h2c1.1,0,2,0.9,2,2V46z"/></svg>