<?xml version="1.0" encoding="iso-8859-1"?>
<!-- Generator: Adobe Illustrator 24.2.1, SVG Export Plug-In . SVG Version: 6.00 Build 0)  -->
<svg version="1.1" xmlns="http://www.w3.org/2000/svg" xmlns:xlink="http://www.w3.org/1999/xlink" x="0px" y="0px"
	 viewBox="0 0 50 50" style="enable-background:new 0 0 50 50;" xml:space="preserve">
<g id="&#x421;&#x43B;&#x43E;&#x439;_1">
	<path style="fill:none;stroke:#000000;stroke-width:2;stroke-linecap:round;stroke-linejoin:round;stroke-miterlimit:10;" d="
		M45,45c-6,0-22.163-1.997-22.163-6c0-2,3.163-2,3.163-4c0-3-14-2-14-7s18-7,33-8"/>
	
		<polyline style="fill:none;stroke:#000000;stroke-width:2;stroke-linecap:round;stroke-linejoin:round;stroke-miterlimit:10;" points="
		5,20 5,45 45,45 	"/>
	<path d="M45.83,19.443c-0.134-0.2-3.39-4.899-12.482-4.899c-1.695,0-2.68-0.82-3.926-1.858C27.911,11.427,26.198,10,23,10
		c-1.595,0-2.752,0.155-3.682,0.279c-1.476,0.198-2.367,0.318-4.002-0.228c-1.779-0.593-3.433-1.619-5.031-2.611
		C8.503,6.334,6.818,5.289,5.164,5.014c-0.29-0.049-0.587,0.034-0.811,0.223C4.129,5.427,4,5.706,4,6v14c0,0.552,0.447,1,1,1h40
		c0.369,0,0.709-0.204,0.882-0.529C46.056,20.145,46.036,19.75,45.83,19.443z"/>
</g>
<g id="&#x421;&#x43B;&#x43E;&#x439;_2">
</g>
</svg>