<?xml version="1.0" encoding="utf-8"?><!-- Generator: Adobe Illustrator 18.1.1, SVG Export Plug-In . SVG Version: 6.00 Build 0)  --><svg xmlns="http://www.w3.org/2000/svg" xmlns:xlink="http://www.w3.org/1999/xlink" viewBox="0 0 50 50" width="50px" height="50px"><path d="M48,50h-3c-1.2,0-2-0.8-2-2v-2h7v2C50,49.2,49.2,50,48,50z"/><path d="M29,50h-3c-1.2,0-2-0.8-2-2v-2h7v2C31,49.2,30.2,50,29,50z"/><path d="M8,48H4c-1.7,0-3-1.3-3-3v-4.3l10,2.5V45C11,46.7,9.7,48,8,48z"/><g><path d="M22,37.8c0-0.9,0.2-1.9,0.5-2.7l0,0l0,0l1.6-3.6l1-2.2c0.2-0.4,0.4-0.8,0.7-1.1H7c-1.1,0-2-0.9-2-2V13c0-1.1,0.9-2,2-2h24c1.1,0,2,0.9,2,2v12h5V11c0-6.1-4.9-11-11-11H11C4.9,0,0,4.9,0,11v28c0,2.8,2.2,5,5,5h17V37.8z M11,5c0-0.6,0.4-1,1-1h15c0.6,0,1,0.4,1,1v2c0,0.6-0.4,1-1,1H12c-0.6,0-1-0.4-1-1V5z M8.5,39C6.6,39,5,37.4,5,35.5S6.6,32,8.5,32s3.5,1.6,3.5,3.5S10.4,39,8.5,39z"/></g><path d="M49.6,35.8L47,30c-0.9-1.8-2.6-3-4.6-3H31.6c-2,0-3.7,1.1-4.6,3l-1,2.2l-1.6,3.6c-0.2,0.6-0.4,1.3-0.4,2V47h26v-9.2C50,37.1,49.9,36.5,49.6,35.8z M30,43c-1.1,0-2-0.9-2-2s0.9-2,2-2s2,0.9,2,2S31.1,43,30,43z M44,43c-1.1,0-2-0.9-2-2s0.9-2,2-2s2,0.9,2,2S45.1,43,44,43z M46.8,36c0,0.6-0.4,1-1,1H28.4c-0.6,0-1-0.4-1-1v-1.6c0-0.3,0.1-0.6,0.2-0.8l1.3-2.8c0.5-1.1,1.6-1.8,2.8-1.8h10.8c1.2,0,2.3,0.7,2.8,1.8l1.3,2.8c0.1,0.3,0.2,0.5,0.2,0.8V36L46.8,36z"/></svg>