<?xml version="1.0" encoding="utf-8"?><!-- Generator: Adobe Illustrator 15.0.0, SVG Export Plug-In . SVG Version: 6.00 Build 0)  --><!DOCTYPE svg PUBLIC "-//W3C//DTD SVG 1.1//EN" "http://www.w3.org/Graphics/SVG/1.1/DTD/svg11.dtd"><svg xmlns="http://www.w3.org/2000/svg" xmlns:xlink="http://www.w3.org/1999/xlink" viewBox="0 0 50 50" width="50px" height="50px"><path d="M46.9,12H3.1C1.362,12,0,13.362,0,15.1v31.8C0,48.639,1.362,50,3.1,50h43.8c1.738,0,3.1-1.361,3.1-3.1V15.1C50,13.362,48.639,12,46.9,12z M22,23.5c0-2.485,2.015-4.5,4.5-4.5s4.5,2.015,4.5,4.5S28.985,28,26.5,28S22,25.985,22,23.5z M43.8,35l-12.1,4.6c-0.4,0.2-0.9,0-1-0.5l-2-5.3c-0.2-0.399,0-0.899,0.5-1l12.1-4.6c0.4-0.2,0.9,0,1,0.5l2,5.3C44.5,34.4,44.3,34.9,43.8,35z"/><g><path d="M20,10V7.2C20,7.052,20.052,7,20.2,7h9.6C29.947,7,30,7.052,30,7.2V10h2V7.2C32,5.946,31.054,5,29.8,5h-9.6C18.946,5,18,5.946,18,7.2V10H20z"/></g></svg>