<?xml version="1.0" encoding="iso-8859-1"?><!-- Generator: Adobe Illustrator 21.1.0, SVG Export Plug-In . SVG Version: 6.00 Build 0)  --><svg xmlns="http://www.w3.org/2000/svg" xmlns:xlink="http://www.w3.org/1999/xlink" viewBox="0 0 50 50" width="50px" height="50px"><path style="fill:none;stroke:#000000;stroke-width:2;stroke-linecap:round;stroke-linejoin:round;stroke-miterlimit:10;" d="M19,8l0.019-0.097C19.59,5.052,22.093,3,25,3h0c2.907,0,5.41,2.052,5.981,4.903L31,8"/><path d="M43,7H7.005c0,0-1,3.096-1,6c0,2,2,9,10,9h0.05c0.232-1.141,1.24-2,2.45-2s2.218,0.859,2.45,2h8.096c0.232-1.141,1.24-2,2.45-2s2.218,0.859,2.45,2H34c8,0,10-7,10-9C44,10.096,43,7,43,7z"/><path d="M48,30c0-2.209-1.791-4-4-4c-2.206,0-4,1.794-4,4v8c0,0.553-0.448,1-1,1s-1-0.447-1-1v-8c0-3.105,2.37-5.665,5.396-5.969l-0.985-3.21C40.522,22.642,37.799,24,34,24h-0.05c-0.232,1.141-1.24,2-2.45,2s-2.218-0.859-2.45-2h-4.045H25h-4.045c-0.232,1.141-1.24,2-2.45,2s-2.218-0.859-2.45-2h-0.05c-3.799,0-6.522-1.358-8.41-3.18l-0.985,3.21c3.026,0.304,5.396,2.865,5.396,5.969v8c0,0.553-0.448,1-1,1s-1-0.447-1-1v-8c0-2.206-1.794-4-4-4c-2.209,0-4,1.791-4,4L2,31c0,8,2.005,15.999,23.003,16C46,46.999,48.005,39,48.005,31L48,30z"/></svg>