<?xml version="1.0" encoding="utf-8"?><!-- Generator: Adobe Illustrator 15.0.0, SVG Export Plug-In . SVG Version: 6.00 Build 0)  --><!DOCTYPE svg PUBLIC "-//W3C//DTD SVG 1.1//EN" "http://www.w3.org/Graphics/SVG/1.1/DTD/svg11.dtd"><svg xmlns="http://www.w3.org/2000/svg" xmlns:xlink="http://www.w3.org/1999/xlink" viewBox="0 0 50 50" width="50px" height="50px"><g><path d="M43,18H7c-1.654,0-3,1.346-3,3v26c0,1.654,1.346,3,3,3h36c1.654,0,3-1.346,3-3V21C46,19.346,44.654,18,43,18z M39,43c0,1.1-0.9,2-2,2H13c-1.1,0-2-0.9-2-2V27c0-1.1,0.9-2,2-2h8v-2c0-1.159,0.841-2,2-2h4c1.159,0,2,0.841,2,2v2h8c1.1,0,2,0.9,2,2V43z"/><rect x="23" y="23" width="4" height="2"/></g><line fill="none" stroke="#000000" stroke-width="2" stroke-miterlimit="10" x1="33" y1="25" x2="33" y2="45"/><line fill="none" stroke="#000000" stroke-width="2" stroke-miterlimit="10" x1="17" y1="25" x2="17" y2="45"/><path d="M18,0c-4.486,0-8,3.514-8,8s3.514,8,8,8s8-3.514,8-8S22.486,0,18,0z M16,10c-1.104,0-2-0.896-2-2s0.896-2,2-2s2,0.896,2,2S17.104,10,16,10z"/><g><path d="M39.707,6.293l-2-2C37.52,4.105,37.266,4,37,4h-1.672c-0.266,0-0.52,0.105-0.707,0.293L33.5,5.44l-1.137-1.147C32.176,4.105,31.922,4,31.656,4h-1.25c-0.197,0-0.391,0.059-0.555,0.168L28.699,4.96l-1.145-0.792c-0.105-0.07-0.225-0.111-0.349-0.137C27.717,5.242,28,6.582,28,8c0,1.431-0.289,2.78-0.808,4H37c0.266,0,0.52-0.105,0.707-0.293l2-2C39.895,9.52,40,9.265,40,9V7C40,6.735,39.895,6.48,39.707,6.293z"/></g></svg>