<?xml version="1.0" encoding="utf-8"?><!-- Generator: Adobe Illustrator 15.0.0, SVG Export Plug-In . SVG Version: 6.00 Build 0)  --><!DOCTYPE svg PUBLIC "-//W3C//DTD SVG 1.1//EN" "http://www.w3.org/Graphics/SVG/1.1/DTD/svg11.dtd"><svg xmlns="http://www.w3.org/2000/svg" xmlns:xlink="http://www.w3.org/1999/xlink" viewBox="0 0 50 50" width="50px" height="50px"><path d="M12.18,37.1c0,0.993,1.735,1.932,3.571,1.932c0.552,0,1,0.447,1,1s-0.448,1-1,1c-2.679,0-5.571-1.503-5.571-3.932c0-1.115,0.739-2.01,1.604-2.68c0.03-0.595,0.066-1.177,0.106-1.749C9.434,33.94,8,35.521,8,37.1c0,3.429,6.831,7.101,17,7.101s17-3.672,17-7.101c0-2.38-3.168-4.668-7.997-5.976c-0.013,0.53-0.019,1.071-0.023,1.615c2.276,0.727,4.989,2.068,5.018,4.348c0.01,0.761-0.313,1.479-0.961,2.133c-2.383,2.413-9.103,3.698-13.036,3.698c-0.552,0-1-0.447-1-1s0.448-1,1-1c3.953,0,9.887-1.355,11.613-3.104c0.258-0.26,0.387-0.497,0.384-0.702c-0.01-0.817-1.367-1.63-3.01-2.239c0.01,0.726,0.015,1.444,0.041,2.191c0.02,0.552-0.412,1.015-0.964,1.034C33.053,38.1,33.041,38.1,33.028,38.1c-0.525,0-0.959-0.412-0.992-0.938c0.002-0.021,0.013-0.04,0.013-0.062c0-0.08-0.009-0.158-0.027-0.233c-0.593-17.76,3.636-29.525,6.559-33.013C42.06,2.366,44.145,2,49,2c0.553,0,1-0.448,1-1s-0.447-1-1-1H16c-0.552,0-1,0.448-1,1s0.448,1,1,1c4.3,0,6.428,0.287,9.275,1.386c-4.879,5.476-10.947,13.356-11.563,32.766c0,0.022,0.01,0.041,0.011,0.063c-0.001,0.001-0.012-0.003-0.012-0.001c-0.017,0.542-0.461,0.969-0.999,0.969c-0.011,0-0.021,0-0.032-0.001c-0.18-0.006-0.337-0.07-0.48-0.158C12.196,37.049,12.18,37.076,12.18,37.1z M34.717,2.201c0.441,0.332,0.53,0.958,0.199,1.4c-5.885,7.827-8.147,16.836-8.647,34.427C26.253,38.57,25.809,39,25.27,39c-0.01,0-0.019,0-0.029,0c-0.552-0.016-0.987-0.477-0.971-1.028c0.513-18.061,2.881-27.37,9.047-35.573C33.649,1.958,34.276,1.869,34.717,2.201z M28.654,2.652c0.364-0.416,0.996-0.458,1.411-0.094c0.416,0.364,0.458,0.995,0.095,1.411c-6.598,7.54-9.783,17.769-10.326,33.165c-0.019,0.54-0.463,0.965-0.999,0.965c-0.012,0-0.024,0-0.036-0.001c-0.552-0.02-0.984-0.482-0.964-1.034C18.396,21.176,21.733,10.563,28.654,2.652z"/><path d="M34.213,26.83c-0.054,0.73-0.095,1.481-0.131,2.242C40.193,30.617,44,33.629,44,37.1c0,5.104-8.346,9.101-19,9.101S6,42.203,6,37.1c0-2.668,2.188-5.05,6.086-6.738c0.095-0.952,0.204-1.872,0.327-2.761C4.694,29.708,0,33.574,0,38c0,6.729,10.981,12,25,12s25-5.271,25-12C50,32.91,43.764,28.594,34.213,26.83z"/></svg>