<?xml version="1.0" encoding="iso-8859-1"?>
<!-- Generator: Adobe Illustrator 23.0.6, SVG Export Plug-In . SVG Version: 6.00 Build 0)  -->
<svg version="1.1" id="Filled" xmlns="http://www.w3.org/2000/svg" xmlns:xlink="http://www.w3.org/1999/xlink" x="0px" y="0px"
	 viewBox="0 0 50 50" style="enable-background:new 0 0 50 50;" xml:space="preserve">
<polygon points="44.3,35.4 38.9,41.7 35.6,39.2 34.4,40.8 39.1,44.4 45.8,36.7 "/>
<path d="M47.93,33.943C47.952,33.963,47.978,33.98,48,34V12c0-2.206-1.794-4-4-4H6c-2.206,0-4,1.794-4,4v24c0,2.206,1.794,4,4,4h24
	c0,5.5,4.5,10,10,10s10-4.5,10-10C50,37.725,49.222,35.628,47.93,33.943z M29,18h12c0.553,0,1,0.448,1,1s-0.447,1-1,1H29
	c-0.553,0-1-0.448-1-1S28.447,18,29,18z M29,23h12c0.553,0,1,0.448,1,1s-0.447,1-1,1H29c-0.553,0-1-0.448-1-1S28.447,23,29,23z
	 M9,33c0.242-4.027,5.423-3.44,6.199-5.529c0.064-0.715,0-1.213,0-1.866c-0.324-0.17-1.229-1.089-1.369-2.112
	c0,0-0.733-0.348-0.773-1.45c-0.021-0.584,0.389-0.998,0.389-0.998c-0.764-2.931-0.433-5.973,3.491-6.045
	c0.981,0,1.719,0.474,2.013,0.992c2.73,0,2.021,3.809,1.607,5.054c0.153,0.154,0.342,0.575,0.342,1.145
	c0,0.815-0.773,1.303-0.773,1.303c-0.147,1.039-0.879,1.898-1.326,2.112c0,0.653-0.064,1.152,0,1.866
	C19.577,29.56,24.758,28.973,25,33H9z M29,30c-0.553,0-1-0.448-1-1s0.447-1,1-1h12c0.553,0,1,0.448,1,1s-0.447,1-1,1H29z M40,48
	c-4.4,0-8-3.6-8-8c0-4.4,3.6-8,8-8s8,3.6,8,8C48,44.4,44.4,48,40,48z"/>
</svg>