<?xml version="1.0" encoding="iso-8859-1"?>
<!-- Generator: Adobe Illustrator 22.1.0, SVG Export Plug-In . SVG Version: 6.00 Build 0)  -->
<svg version="1.1" id="Layer_1" xmlns="http://www.w3.org/2000/svg" xmlns:xlink="http://www.w3.org/1999/xlink" x="0px" y="0px"
	 viewBox="0 0 50 50" style="enable-background:new 0 0 50 50;" xml:space="preserve">
<path d="M40,13V3c0-0.552-0.447-1-1-1h-5c-0.553,0-1,0.448-1,1v5h-4V3c0-0.552-0.447-1-1-1h-6c-0.553,0-1,0.448-1,1v5h-4V3
	c0-0.552-0.447-1-1-1h-5c-0.553,0-1,0.448-1,1v10H40z"/>
<polygon points="37.081,18 39.481,15 10.519,15 12.919,18 "/>
<path d="M36.194,20H13.806l-4.79,26.824c-0.052,0.292,0.027,0.591,0.218,0.818C9.423,47.869,9.704,48,10,48h11V36
	c0-2.209,1.791-4,4-4s4,1.791,4,4v12h11c0.296,0,0.577-0.131,0.767-0.358c0.19-0.227,0.27-0.526,0.218-0.818L36.194,20z"/>
</svg>