<svg xmlns="http://www.w3.org/2000/svg"  viewBox="0 0 50 50" width="50px" height="50px"><path d="M 15 4 C 14.601563 4 14.292969 4.199219 14.09375 4.5 C 14.09375 4.601563 13 6.699219 13 11 C 13 21.199219 20.292969 26.492188 22.09375 27.59375 L 24 36.1875 C 24.101563 36.6875 24.5 37 25 37 C 25.5 37 25.898438 36.6875 26 36.1875 L 27.90625 27.59375 C 29.707031 26.492188 37 21.199219 37 11 C 37 6.800781 35.90625 4.601563 35.90625 4.5 C 35.707031 4.199219 35.398438 4 35 4 Z M 15.6875 6 L 34.3125 6 C 34.511719 6.699219 34.898438 8 35 10 L 22 10 L 22 12 L 19.90625 12 L 19.90625 10 L 15 10 C 15.101563 8 15.386719 6.699219 15.6875 6 Z M 30.84375 28.9375 C 30.292969 28.894531 29.808594 29.308594 29.765625 29.859375 C 29.722656 30.410156 30.136719 30.894531 30.6875 30.9375 L 46.15625 36.09375 L 25 44.90625 L 3.84375 36.09375 L 19.3125 30.9375 C 19.804688 30.773438 20.09375 30.257813 19.96875 29.753906 C 19.847656 29.246094 19.359375 28.917969 18.84375 29 C 18.789063 29.015625 18.738281 29.039063 18.6875 29.0625 L 0.6875 35.0625 C 0.289063 35.195313 0.015625 35.558594 0.00390625 35.976563 C -0.0117188 36.398438 0.238281 36.78125 0.625 36.9375 L 24.625 46.9375 C 24.867188 47.035156 25.132813 47.035156 25.375 46.9375 L 49.375 36.9375 C 49.761719 36.78125 50.011719 36.398438 49.996094 35.976563 C 49.984375 35.558594 49.710938 35.195313 49.3125 35.0625 L 31.3125 29.0625 C 31.167969 28.984375 31.007813 28.941406 30.84375 28.9375 Z M 10.5 35 C 9.671875 35 9 35.449219 9 36 C 9 36.550781 9.671875 37 10.5 37 C 11.328125 37 12 36.550781 12 36 C 12 35.449219 11.328125 35 10.5 35 Z M 15.5 35 C 14.671875 35 14 35.449219 14 36 C 14 36.550781 14.671875 37 15.5 37 C 16.328125 37 17 36.550781 17 36 C 17 35.449219 16.328125 35 15.5 35 Z M 20.5 35 C 19.671875 35 19 35.449219 19 36 C 19 36.550781 19.671875 37 20.5 37 C 21.328125 37 22 36.550781 22 36 C 22 35.449219 21.328125 35 20.5 35 Z"/></svg>