<?xml version="1.0" encoding="iso-8859-1"?><!-- Generator: Adobe Illustrator 21.0.1, SVG Export Plug-In . SVG Version: 6.00 Build 0)  --><svg xmlns="http://www.w3.org/2000/svg" xmlns:xlink="http://www.w3.org/1999/xlink" viewBox="0 0 50 50" width="50px" height="50px"><line style="fill:none;stroke:#000000;stroke-width:2;stroke-linecap:round;stroke-linejoin:round;stroke-miterlimit:10;" x1="31" y1="16" x2="36" y2="16"/><line style="fill:none;stroke:#000000;stroke-width:2;stroke-linejoin:round;stroke-miterlimit:10;" x1="30" y1="27" x2="39" y2="27"/><line style="fill:none;stroke:#000000;stroke-width:2;stroke-linejoin:round;stroke-miterlimit:10;" x1="12" y1="22" x2="21" y2="22"/><line style="fill:none;stroke:#000000;stroke-width:2;stroke-linejoin:round;stroke-miterlimit:10;" x1="15" y1="29" x2="23" y2="29"/><line style="fill:none;stroke:#000000;stroke-width:2;stroke-linejoin:round;stroke-miterlimit:10;" x1="10" y1="29" x2="13" y2="29"/><line style="fill:none;stroke:#000000;stroke-width:2;stroke-linejoin:round;stroke-miterlimit:10;" x1="15" y1="35" x2="23" y2="35"/><line style="fill:none;stroke:#000000;stroke-width:2;stroke-linejoin:round;stroke-miterlimit:10;" x1="10" y1="35" x2="13" y2="35"/><line style="fill:none;stroke:#000000;stroke-width:2;stroke-linejoin:round;stroke-miterlimit:10;" x1="30" y1="35" x2="39" y2="35"/><rect x="8" y="45" width="6" height="3"/><rect x="36" y="45" width="6" height="3"/><path d="M43,2H7C5.346,2,4,3.346,4,5v39c0,1.654,1.346,3,3,3h36c1.654,0,3-1.346,3-3V5C46,3.346,44.654,2,43,2z M22,27c0,1.104-0.896,2-2,2c1.104,0,2,0.895,2,2v2c0,1.104-0.896,2-2,2c1.104,0,2,0.895,2,2v2c0,1.104-0.896,2-2,2h-7c-1.104,0-2-0.896-2-2v-2c0-1.105,0.896-2,2-2c-1.104,0-2-0.896-2-2v-2c0-1.105,0.896-2,2-2c-1.104,0-2-0.896-2-2v-2c0-1.105,0.896-2,2-2h0.225L14,21h-1v-3c0-0.552,0.448-1,1-1h5c0.552,0,1,0.448,1,1v3h-1l0.775,2H20c1.104,0,2,0.895,2,2V27z M39,40c0,0.552-0.448,1-1,1h-9c-0.552,0-1-0.448-1-1V24.587c0-1.679,0.545-3.314,1.552-4.657L31,18V9c0-0.552,0.448-1,1-1h3c0.552,0,1,0.448,1,1v9l1.448,1.93C38.455,21.274,39,22.908,39,24.587V40z"/></svg>