<?xml version="1.0" encoding="utf-8"?><!-- Generator: Adobe Illustrator 19.1.1, SVG Export Plug-In . SVG Version: 6.00 Build 0)  --><svg xmlns="http://www.w3.org/2000/svg" xmlns:xlink="http://www.w3.org/1999/xlink" viewBox="0 0 50 50" width="50px" height="50px"><path fill="none" stroke="#000000" stroke-width="2" stroke-linecap="round" stroke-linejoin="round" stroke-miterlimit="10" d="M29.5,45c0,0-2,2-5.5,2s-5.5-2-5.5-2"/><path fill="none" stroke="#000000" stroke-width="2" stroke-linecap="round" stroke-linejoin="round" stroke-miterlimit="10" d="M40.5,45c0,0-2,2-5.5,2s-5.5-2-5.5-2"/><path fill="none" stroke="#000000" stroke-width="2" stroke-linecap="round" stroke-linejoin="round" stroke-miterlimit="10" d="M46,47c-3.5,0-5.5-2-5.5-2"/><path fill="none" stroke="#000000" stroke-width="2" stroke-linecap="round" stroke-linejoin="round" stroke-miterlimit="10" d="M18.5,45c0,0-2,2-5.5,2s-5.5-2-5.5-2"/><path fill="none" stroke="#000000" stroke-width="2" stroke-linecap="round" stroke-linejoin="round" stroke-miterlimit="10" d="M7.5,45c0,0-2,2-5.5,2"/><path fill="none" stroke="#000000" stroke-width="2" stroke-linecap="round" stroke-linejoin="round" stroke-miterlimit="10" d="M29.5,39c0,0-2,2-5.5,2s-5.5-2-5.5-2"/><path fill="none" stroke="#000000" stroke-width="2" stroke-linecap="round" stroke-linejoin="round" stroke-miterlimit="10" d="M40.5,39c0,0-2,2-5.5,2s-5.5-2-5.5-2"/><path fill="none" stroke="#000000" stroke-width="2" stroke-linecap="round" stroke-linejoin="round" stroke-miterlimit="10" d="M46,41c-3.5,0-5.5-2-5.5-2"/><path fill="none" stroke="#000000" stroke-width="2" stroke-linecap="round" stroke-linejoin="round" stroke-miterlimit="10" d="M18.5,39c0,0-2,2-5.5,2s-5.5-2-5.5-2"/><path fill="none" stroke="#000000" stroke-width="2" stroke-linecap="round" stroke-linejoin="round" stroke-miterlimit="10" d="M7.5,39c0,0-2,2-5.5,2"/><polyline fill="none" stroke="#000000" stroke-width="2" stroke-linecap="round" stroke-linejoin="round" stroke-miterlimit="10" points="26,22 23,21 21,22 "/><path d="M17,2c-4.5,0-8,3.5-8,8s3.5,8,8,8s8-3.5,8-8S21.5,2,17,2z M15,12c-1.1,0-2-0.9-2-2s0.9-2,2-2s2,0.9,2,2S16.1,12,15,12z"/><path d="M38.7,8.3l-2-2C36.5,6.1,36.3,6,36,6h-1.7c-0.3,0-0.5,0.1-0.7,0.3l-1.1,1.1l-1.1-1.1C31.2,6.1,30.9,6,30.7,6h-1.3c-0.2,0-0.4,0.1-0.6,0.2L27.7,7l-1.1-0.8c-0.1-0.1-0.2-0.1-0.4-0.1c0.5,1.2,0.8,2.6,0.8,4c0,1.4-0.3,2.8-0.8,4H36c0.3,0,0.5-0.1,0.7-0.3l2-2c0.2-0.2,0.3-0.4,0.3-0.7V9C39,8.7,38.9,8.5,38.7,8.3z"/><path d="M5.4,36.9L5.4,36.9L5.4,36.9c0.2-0.2,0.3-0.2,0.4-0.3C6.2,36.2,6.9,36,7.5,36c0.8,0,1.5,0.3,2.1,0.8c0.1,0,1.3,1.2,3.4,1.2c2.1,0,3.4-1.1,3.4-1.1l0,0l0,0c0.1-0.1,0.2-0.2,0.3-0.2c0.5-0.4,1.1-0.6,1.8-0.6c0.8,0,1.5,0.3,2.1,0.8c0.1,0,1.3,1.2,3.4,1.2c2.1,0,3.4-1.1,3.4-1.1c0.1-0.1,0.3-0.2,0.4-0.3c0.5-0.4,1.1-0.5,1.7-0.5c0.8,0,1.5,0.3,2.1,0.8c0.1,0,1.3,1.2,3.4,1.2c2.1,0,3.4-1.1,3.4-1.1c0.1-0.1,0.3-0.2,0.4-0.3c0.5-0.4,1.1-0.6,1.7-0.6c0.8,0,1.5,0.3,2.1,0.8c0,0,0.6,0.5,1.5,0.8c1.2-1.3,2.4-3.1,2.8-5.5c0.1-0.3,0-0.6-0.2-0.8C46.6,31.1,46.3,31,46,31L4,33c-0.5,0-1,0.5-1,1c0,1.6,0.2,2.8,0.5,3.8C4.7,37.5,5.4,36.9,5.4,36.9z"/><path d="M44.6,29.1c-3.7-5.2-12.7-7.2-18.1-8c-0.1,0-0.2,0-0.3,0c-0.2-0.1-0.5,0-0.7,0.1c-0.5,0.3-0.7,0.8-0.4,1.3c0,0.1,0.1,0.1,0.1,0.1l2.6,4.3c-0.7,0.7-2.4,2-5.6,2.1l-4.8-1.9C17.3,27,17.1,27,17,27H5c-0.6,0-1,0.4-1,1v3L44.6,29.1z"/></svg>