<?xml version="1.0" encoding="iso-8859-1"?><!-- Generator: Adobe Illustrator 21.0.2, SVG Export Plug-In . SVG Version: 6.00 Build 0)  --><svg xmlns="http://www.w3.org/2000/svg" xmlns:xlink="http://www.w3.org/1999/xlink" viewBox="0 0 50 50" width="50px" height="50px"><path d="M47,36c-4.519,0-11.109-2.627-14.391-5.98c-0.107-0.109-0.234-0.249-0.38-0.408c-1.187-1.299-3.415-3.687-6.266-3.611c-1.814,0.067-4.015,1.233-6.142,2.36C18.371,29.129,16.727,30,16,30c-0.574,0-1.057-0.453-1.784-1.198C13.433,27.999,12.458,27,11,27c-2.279,0-4.882,2.447-7.571,5.173C2.986,32.622,2,33.556,2,33.556v12.406h46V36H47z"/><path d="M47.637,32.445c-0.046-0.038-1.13-0.929-2.361-1.62c-0.529-0.296-1.064-0.512-1.564-0.634c-1.384-0.382-2.765-0.222-5.597,0.776L26.91,7.962l-0.056-0.101c-0.28-0.438-0.718-0.711-1.234-0.771c-0.577-0.065-1.192,0.156-1.64,0.595l-0.438,0.779L20.74,3.021c-0.375-0.651-1.074-1.048-1.817-1.02c-0.742,0.022-1.408,0.45-1.746,1.133l-4.706,9.917l-0.1-0.165c-0.242-0.517-0.763-0.856-1.39-0.896c-0.716-0.05-1.37,0.296-1.673,0.87L5.486,27.499C7.317,25.996,9.115,25,11,25c2.301,0,3.77,1.505,4.647,2.405c0.109,0.111,0.342,0.35,0.525,0.517c0.674-0.248,1.966-0.933,2.717-1.331c2.325-1.232,4.73-2.507,7.021-2.591h0.185c3.715,0,6.346,2.879,7.61,4.262l0.037,0.041c0.112,0.122,0.21,0.23,0.296,0.318C36.95,31.596,43.007,34,47,34h1v-1.254L47.637,32.445z"/><g><path d="M42.318,28.001c0.645,0,1.266,0.083,1.897,0.255c0.035,0.009,0.07,0.025,0.105,0.034l-4.1-9.38C39.922,18.333,39.335,18,38.687,18h-0.015c-0.643,0.005-1.221,0.335-1.516,0.9l-4.629-9.782c-0.333-0.671-1.003-1.1-1.749-1.118c-0.504,0.011-0.991,0.198-1.37,0.525l9.743,20.003C40.427,28.16,41.405,28.001,42.318,28.001z M32.304,29.693l-0.037-0.041l-0.038-0.041c-0.916-1.003-2.468-2.675-4.471-3.327l0.45,7.028l8.52-0.241c-1.601-0.907-3.038-1.948-4.115-3.049C32.521,29.93,32.418,29.819,32.304,29.693z"/></g></svg>