<?xml version="1.0" encoding="utf-8"?><!-- Generator: Adobe Illustrator 15.0.0, SVG Export Plug-In . SVG Version: 6.00 Build 0)  --><!DOCTYPE svg PUBLIC "-//W3C//DTD SVG 1.1//EN" "http://www.w3.org/Graphics/SVG/1.1/DTD/svg11.dtd"><svg xmlns="http://www.w3.org/2000/svg" xmlns:xlink="http://www.w3.org/1999/xlink" viewBox="0 0 50 50" width="50px" height="50px"><path d="M21.651,47.091c-0.906-0.718-2.285-1.825-2.848-5.34c-0.516-0.065-1.027-0.17-1.525-0.361c-0.443,0.091-0.968,0.16-1.542,0.16c-1.167,0-2.222-0.309-3.117-0.861c0.241,4.223-1.171,5.18-2.179,5.853c-0.696,0.464-1.747,1.165-1.381,2.691c0.108,0.449,0.51,0.767,0.972,0.767H21.89c0.552,0,1-0.447,1-1C22.89,48.073,22.232,47.552,21.651,47.091z"/><path d="M40.255,47.419l-0.151,0.001c-0.324,0-0.451-0.018-0.501-0.068c-0.117-0.118-0.468-0.709-0.479-3.165c-1.161,0.085-2.422,0.134-3.794,0.134c-0.911,0-1.76-0.028-2.581-0.068c0.008,1.595-0.309,2.35-0.62,2.694c-0.335,0.371-0.814,0.443-1.529,0.443l-0.371-0.001c-0.432,0-1.155,0-1.608,0.551c-0.189,0.231-0.391,0.636-0.27,1.253c0.093,0.469,0.504,0.807,0.981,0.807h12.431c0.006-0.001,0.014-0.001,0.02,0c0.553,0,1-0.447,1-1c0-0.313-0.144-0.593-0.369-0.776C41.669,47.419,40.757,47.419,40.255,47.419z"/><path d="M49.894,37.812l-4.408-6.795c-2.036,0.868-5.225,1.659-10.137,1.659c-3.285,0-6.17-0.361-8.575-1.074c-0.686-0.203-1.273-0.421-1.795-0.64l-4.454,6.849c-0.275,0.423-0.192,0.985,0.195,1.311c0.155,0.131,3.928,3.199,14.665,3.199c10.765,0,14.212-3.102,14.354-3.233C50.092,38.756,50.157,38.218,49.894,37.812z"/><path d="M35.248,17.091c-4.196,0-7.851-1.678-8.004-1.749c-0.252-0.117-0.443-0.334-0.529-0.598c-0.086-0.265-0.058-0.553,0.077-0.795l7.486-13.435c0.354-0.634,1.396-0.634,1.747,0l7.488,13.435c0.134,0.239,0.163,0.523,0.081,0.785c-0.081,0.262-0.267,0.478-0.513,0.599C42.936,15.404,39.455,17.091,35.248,17.091z"/><path d="M47.095,26.533l-5.024-8.641c-1.601,0.554-4.053,1.198-6.822,1.198c-2.793,0-5.324-0.653-6.965-1.205l-5.069,8.644c-0.23,0.394-0.166,0.893,0.157,1.214c0.114,0.114,1.193,1.134,3.915,1.939c2.221,0.658,4.915,0.992,8.008,0.992c8.811,0,11.419-2.674,11.688-2.979C47.266,27.374,47.312,26.905,47.095,26.533z"/><path d="M26.07,17.706l0.334-0.615c0,0-0.414-0.173-0.589-0.304c-0.462-0.365-0.818-0.857-1.003-1.426c-0.256-0.789-0.172-1.658,0.232-2.387l0.225-0.404c-0.649-1.192-1.688-2.138-2.973-2.616c0.006-0.104,0.01-0.208,0.01-0.315c0-4.257-3.347-7.72-7.461-7.72c-2.684,0-5.173,1.531-6.487,3.944c-2.66,0.47-4.667,2.863-4.667,5.696c0,0.215,0.012,0.431,0.035,0.644c-1.216,1.414-1.88,3.211-1.88,5.116c0,0.649,0.095,1.313,0.289,2.022c-0.191,0.594-0.289,1.204-0.289,1.818c0,0.443,0.053,0.889,0.158,1.331C0.738,23.586,0,25.192,0,26.919c0,2.474,1.509,4.627,3.701,5.443c-0.006,0.106-0.009,0.212-0.009,0.317c0,3.197,2.519,5.799,5.615,5.799c0.255,0,0.504,0.009,0.745,0.017c0.878,0.031,1.83,0.053,2.666-0.361c0.79,1.063,1.935,1.416,3.019,1.416c0.625,0,1.227-0.114,1.724-0.27c0.401,0.21,0.797,0.347,1.182,0.434c-0.473-0.931-0.448-2.072,0.151-2.993l4.338-6.671c-0.639-0.399-1.017-0.733-1.169-0.887c-0.97-0.965-1.165-2.463-0.473-3.645L26.07,17.706z"/></svg>