<?xml version="1.0" encoding="iso-8859-1"?>
<!-- Generator: Adobe Illustrator 24.0.2, SVG Export Plug-In . SVG Version: 6.00 Build 0)  -->
<svg version="1.1" id="Layer_1" xmlns="http://www.w3.org/2000/svg" xmlns:xlink="http://www.w3.org/1999/xlink" x="0px" y="0px"
	 viewBox="0 0 50 50" style="enable-background:new 0 0 50 50;" xml:space="preserve">
<path d="M48.868,18.504l-4-7c-0.183-0.32-0.534-0.524-0.896-0.503c-0.369,0.01-0.702,0.223-0.867,0.552l-4.229,8.459l-1.044-1.566
	c-0.195-0.292-0.536-0.459-0.879-0.444c-0.351,0.017-0.667,0.216-0.833,0.525l-6.352,11.798c0.796,0.588,1.707,1.513,2.355,2.676H48
	c0.552,0,1-0.447,1-1V19C49,18.826,48.955,18.655,48.868,18.504z"/>
<circle cx="33" cy="8" r="5"/>
<path d="M32.567,47.176c-0.801-0.551-2.953-2.404-3.296-4.343c-0.142-0.802,0.037-1.539,0.544-2.254
	c2.121-2.983,1.399-5.441,0.78-6.642C29.688,32.181,28.004,31,27,31h-2c-0.359,0-0.689,0.194-0.867,0.506
	c-0.178,0.312-0.175,0.696,0.008,1.006c0.011,0.02,1.139,1.961,0.636,3.896c-0.283,1.091-1.051,2.009-2.281,2.729
	c-4.891,2.861-5.049,7.244-4.45,9.162C18.176,48.716,18.563,49,19,49h13c0.438,0,0.825-0.285,0.955-0.703
	S32.928,47.425,32.567,47.176z"/>
<path d="M21.922,31.612l-8-19c-0.129-0.307-0.403-0.529-0.729-0.593c-0.326-0.062-0.664,0.039-0.899,0.274l-1.063,1.063L6.874,5.514
	C6.69,5.183,6.334,4.989,5.956,5.001C5.577,5.018,5.24,5.248,5.086,5.594l-4,9C1.029,14.722,1,14.86,1,15v17c0,0.553,0.448,1,1,1h19
	c0.335,0,0.648-0.168,0.833-0.447C22.019,32.275,22.052,31.921,21.922,31.612z"/>
</svg>