<?xml version="1.0" encoding="utf-8"?><!-- Generator: Adobe Illustrator 19.1.1, SVG Export Plug-In . SVG Version: 6.00 Build 0)  --><svg xmlns="http://www.w3.org/2000/svg" xmlns:xlink="http://www.w3.org/1999/xlink" viewBox="0 0 50 50" width="50px" height="50px"><g><path d="M25,8c-6.1,0-11,4.9-11,11v12c0,6.1,4.9,11,11,11s11-4.9,11-11V19C36,12.9,31.1,8,25,8z M28,39h-6c-0.6,0-1-0.4-1-1s0.4-1,1-1h6c0.6,0,1,0.4,1,1S28.6,39,28,39z"/><path d="M25,2C15.6,2,8,9.6,8,19v12c0,9.4,7.6,17,17,17s17-7.6,17-17V19C42,9.6,34.4,2,25,2z M38,31c0,7.2-5.8,13-13,13c-7.2,0-13-5.8-13-13V19c0-7.2,5.8-13,13-13c7.2,0,13,5.8,13,13V31z"/></g></svg>