<?xml version="1.0" encoding="utf-8"?><!-- Generator: Adobe Illustrator 15.0.0, SVG Export Plug-In . SVG Version: 6.00 Build 0)  --><!DOCTYPE svg PUBLIC "-//W3C//DTD SVG 1.1//EN" "http://www.w3.org/Graphics/SVG/1.1/DTD/svg11.dtd"><svg xmlns="http://www.w3.org/2000/svg" xmlns:xlink="http://www.w3.org/1999/xlink" viewBox="0 0 50 50" width="50px" height="50px"><path d="M9.11,42.645l-1.787-1.801c-0.272-0.274-0.486-0.584-0.675-0.906l-2.32,2.32l3.414,3.414l2.315-2.315C9.719,43.158,9.395,42.931,9.11,42.645z"/><path d="M31,4c-8.271,0-15,6.729-15,15c0,8.271,6.729,15,15,15c8.271,0,15-6.729,15-15C46,10.729,39.271,4,31,4z M37.363,11.636c0.553,0,1,0.448,1,1c0,0.553-0.447,1-1,1c-0.552,0-1-0.447-1-1C36.363,12.083,36.812,11.636,37.363,11.636z M33.329,9.307c0.552,0,1,0.448,1,1s-0.448,1-1,1s-1-0.448-1-1S32.777,9.307,33.329,9.307z M22.307,17.671c-0.552,0-1-0.448-1-1s0.448-1,1-1s1,0.448,1,1S22.859,17.671,22.307,17.671z M24.636,13.636c-0.552,0-1-0.447-1-1c0-0.552,0.448-1,1-1c0.553,0,1.001,0.448,1.001,1C25.637,13.188,25.188,13.636,24.636,13.636z M27.671,10.307c0-0.552,0.448-1,1-1s1,0.448,1,1s-0.448,1-1,1S27.671,10.859,27.671,10.307z M33.329,28.693c-0.552,0-1-0.448-1-1c0-0.553,0.448-1,1-1s1,0.447,1,1C34.329,28.245,33.881,28.693,33.329,28.693z M37.363,26.364c-0.552,0-1-0.448-1-1c0-0.553,0.448-1,1-1c0.553,0,1,0.447,1,1C38.363,25.916,37.916,26.364,37.363,26.364z M39.693,22.329c-0.553,0-1-0.448-1-1s0.447-1,1-1c0.552,0,1,0.448,1,1S40.245,22.329,39.693,22.329z M39.957,17.618l0.005,0.017l-7.064,1.968C32.641,20.41,31.894,21,31,21c-1.104,0-2-0.896-2-2s0.896-2,2-2c0.58,0,1.099,0.251,1.464,0.646l6.961-1.939l0.005,0.017c0.086-0.024,0.17-0.053,0.264-0.053c0.552,0,1,0.448,1,1C40.693,17.129,40.378,17.5,39.957,17.618z"/><path d="M14.785,24.103c-0.801,1.788-1.833,3.305-2.595,4.287c-0.917,1.182-0.803,2.876,0.263,3.942l5.215,5.214c0.569,0.569,1.325,0.883,2.128,0.883c0.663,0,1.29-0.214,1.814-0.619c0.982-0.763,2.498-1.794,4.286-2.595C20.621,33.551,16.449,29.379,14.785,24.103z"/><path d="M16.254,38.96l-5.215-5.214c-0.146-0.146-0.264-0.309-0.389-0.468l-2.129,2.807c-0.766,1.01-0.67,2.45,0.223,3.352l1.786,1.8c0.484,0.487,1.13,0.756,1.818,0.757c0.561,0,1.094-0.179,1.542-0.518l2.828-2.134C16.561,39.218,16.397,39.104,16.254,38.96z"/></svg>