<?xml version="1.0" encoding="iso-8859-1"?>
<!-- Generator: Adobe Illustrator 23.0.3, SVG Export Plug-In . SVG Version: 6.00 Build 0)  -->
<svg version="1.1" xmlns="http://www.w3.org/2000/svg" xmlns:xlink="http://www.w3.org/1999/xlink" x="0px" y="0px"
	 viewBox="0 0 50 50" style="enable-background:new 0 0 50 50;" xml:space="preserve">
<g id="Layer_10" style="display:none;">
	<g style="display:inline;opacity:0.05;">
		<g>
			<circle style="fill:#FFFFFF;" cx="25" cy="25" r="21.5"/>
			<path d="M25,4c11.579,0,21,9.421,21,21s-9.421,21-21,21S4,36.579,4,25S13.421,4,25,4 M25,3C12.85,3,3,12.85,3,25s9.85,22,22,22
				s22-9.85,22-22S37.15,3,25,3L25,3z"/>
		</g>
		<g>
			<rect x="5.5" y="5.5" style="fill:#FFFFFF;" width="39" height="39"/>
			<path d="M44,6v38H6V6H44 M45,5H5v40h40V5L45,5z"/>
		</g>
	</g>
</g>
<g id="filled">
</g>
<g id="outlined">
</g>
<g id="rounded">
</g>
<g id="two_x5F_tone">
</g>
<g id="sharp">
</g>
<g id="win10">
</g>
<g id="ios_x5F_out">
</g>
<g id="ios_x5F_filled">
	<path d="M39.29,16.29c-0.39,0.39-0.39,1.03,0,1.42C39.49,17.9,39.74,18,40,18s0.51-0.1,0.71-0.29l1.85-1.86L47,14.08v13.15
		l-6.51,3.91c-0.23,0.14-0.4,0.36-0.46,0.62l-0.82,3.26c-0.6,0.17-1.08,0.47-1.46,1C37.71,36.06,36.8,37,35,37
		c-0.89,0-1.56-0.23-2.01-0.46s-0.69-0.46-0.69-0.46c-0.56-0.77-1.32-1.25-2.27-1.25c-0.95,0-1.71,0.42-2.28,1.19
		C27.71,36.06,26.8,37,25,37c-0.08,0-0.16,0-0.23-0.01l1.77-4.12l10.8-3.93c0.17-0.06,0.33-0.17,0.44-0.32l4-5
		c0.35-0.43,0.28-1.06-0.16-1.4c-0.43-0.35-1.06-0.28-1.4,0.16l-3.83,4.78L28,30.21V28c0-0.16,0.04-0.31,0.11-0.45l1.32-2.64
		l4.94-1.98c0.51-0.21,0.76-0.79,0.56-1.3c-0.21-0.51-0.79-0.76-1.3-0.56l-4.11,1.64l-0.47-1.39C29.02,21.21,29,21.11,29,21v-3.32
		l4.37-1.75c0.19-0.08,0.35-0.21,0.46-0.38l1.81-2.71l5.68-1.89c0.52-0.18,0.8-0.74,0.63-1.27c-0.18-0.52-0.74-0.81-1.27-0.63l-6,2
		c-0.21,0.07-0.39,0.21-0.51,0.4l-1.83,2.74l-5.85,2.34l-5.32-7.98c-0.18-0.27-0.22-0.61-0.1-0.91c0.11-0.3,0.37-0.53,0.69-0.61l8-2
		C29.84,5.01,29.92,5,30,5h16c0.55,0,1,0.45,1,1v5.92l-5.37,2.15c-0.13,0.05-0.24,0.13-0.34,0.22L39.29,16.29z"/>
	<path d="M41.87,32.64L47,29.56v7.62C46.69,37.06,46.35,37,46,37c-2.25,0-4.2-1.4-4.2-1.4c-0.18-0.14-0.38-0.26-0.58-0.36
		L41.87,32.64z"/>
	<path style="fill:none;stroke:#000000;stroke-width:2;stroke-linecap:round;stroke-linejoin:round;stroke-miterlimit:10;" d="M4,40
		c3.334,0,6-2,6-2s1.666,2,5,2s5-2,5-2s1.666,2,5,2s5-2,5-2s1.666,2,5,2s5-2,5-2s2.666,2,6,2"/>
	<path style="fill:none;stroke:#000000;stroke-width:2;stroke-linecap:round;stroke-linejoin:round;stroke-miterlimit:10;" d="M4,45
		c3.334,0,6-2,6-2s1.666,2,5,2s5-2,5-2s1.666,2,5,2s5-2,5-2s1.666,2,5,2s5-2,5-2s2.666,2,6,2"/>
</g>
<g id="color">
</g>
</svg>