<?xml version="1.0" encoding="iso-8859-1"?><!-- Generator: Adobe Illustrator 21.1.0, SVG Export Plug-In . SVG Version: 6.00 Build 0)  --><svg xmlns="http://www.w3.org/2000/svg" xmlns:xlink="http://www.w3.org/1999/xlink" viewBox="0 0 50 50" width="50px" height="50px"><path d="M16,32h-6v-4h6V32z M16,24h-6v-4h6V24z M16,16h-6v-4h6V16z M28,32h-6v-4h6V32z M28,24h-6v-4h6V24z M28,16h-6v-4h6V16z M40,40h-6v-4h6V40z M40,32h-6v-4h6V32z M40,24h-6v-4h6V24z M40,16h-6v-4h6V16z M40.7,7H9.3C6.33,7,4,9.33,4,12.3V45c0,0.55,0.45,1,1,1h17V36h6v10h17c0.55,0,1-0.45,1-1V12.3C46,9.33,43.67,7,40.7,7z M16,40h-6v-4h6V40z"/><polygon points="25,0 26.138,2.333 28.724,2.638 26.759,4.362 27.276,7 25,5.681 22.724,7 23.241,4.362 21.276,2.638 23.862,2.333 "/><polygon points="33.276,0 34.414,2.333 37,2.638 35.034,4.362 35.552,7 33.276,5.681 31,7 31.517,4.362 29.552,2.638 32.138,2.333 "/><polygon points="16.724,0 17.862,2.333 20.448,2.638 18.483,4.362 19,7 16.724,5.681 14.448,7 14.966,4.362 13,2.638 15.586,2.333 "/></svg>