<?xml version="1.0" encoding="iso-8859-1"?><!-- Generator: Adobe Illustrator 21.0.2, SVG Export Plug-In . SVG Version: 6.00 Build 0)  --><svg xmlns="http://www.w3.org/2000/svg" xmlns:xlink="http://www.w3.org/1999/xlink" viewBox="0 0 50 50" width="50px" height="50px"><circle cx="30.5" cy="29.5" r="1.5"/><circle cx="19.5" cy="29.5" r="1.5"/><path style="fill:none;stroke:#000000;stroke-width:2;stroke-linecap:round;stroke-linejoin:round;stroke-miterlimit:10;" d="M25,47c1.387,0,2.607-0.706,3.325-1.778c4.709-2.19,8.044-8.463,8.341-11.293c0,0,2.862-0.982,3.3-4.69c0.235-1.99-1.127-3.147-1.696-3.5"/><line style="fill:none;stroke:#000000;stroke-width:2;stroke-linecap:round;stroke-linejoin:round;stroke-miterlimit:10;" x1="28" y1="29" x2="32" y2="27"/><line style="fill:none;stroke:#000000;stroke-width:2;stroke-linecap:round;stroke-linejoin:round;stroke-miterlimit:10;" x1="22" y1="29" x2="18" y2="27"/><path style="fill:none;stroke:#000000;stroke-width:2;stroke-linecap:round;stroke-linejoin:round;stroke-miterlimit:10;" d="M11.73,25.739c-0.569,0.353-1.931,1.51-1.696,3.5c0.438,3.708,3.3,4.69,3.3,4.69c0.297,2.83,3.632,9.103,8.341,11.293C22.393,46.294,23.613,47,25,47"/><path d="M21,38.382C21,39.276,21.724,40,22.618,40c0.251,0,0.499-0.058,0.724-0.171l0.935-0.467c0.456-0.228,0.992-0.228,1.447,0l0.935,0.467C26.883,39.942,27.131,40,27.382,40C28.276,40,29,39.276,29,38.382V38h-8V38.382z"/><path style="fill:none;stroke:#000000;stroke-width:2;stroke-linecap:round;stroke-linejoin:round;stroke-miterlimit:10;" d="M25,35c-2.209,0-4,1.343-4,3v0.382C21,39.276,21.724,40,22.618,40h0c0.251,0,0.499-0.058,0.724-0.171l0.935-0.467c0.456-0.228,0.992-0.228,1.447,0l0.935,0.467C26.883,39.942,27.131,40,27.382,40h0C28.276,40,29,39.276,29,38.382V38C29,36.343,27.209,35,25,35z"/><path d="M10.153,21.854c0.192,1.486,0.44,3.271,0.595,4.074c0.093,0.478,0.512,0.811,0.981,0.811c0.063,0,0.126-0.006,0.19-0.018c0.542-0.104,0.897-0.629,0.793-1.171c-0.145-0.752-0.412-2.653-0.62-4.293C11.299,21.453,10.649,21.655,10.153,21.854z"/><path d="M37.909,21.239c-0.208,1.644-0.476,3.555-0.622,4.31c-0.104,0.542,0.251,1.067,0.793,1.171c0.064,0.012,0.128,0.018,0.19,0.018c0.47,0,0.889-0.333,0.981-0.811c0.156-0.809,0.407-2.615,0.6-4.109C39.356,21.629,38.706,21.432,37.909,21.239z"/><g><path d="M45.601,11.604l-2.031-4.701c-0.564-1.127-1.642-1.931-2.869-2.147L27.174,2.183c-1.383-0.243-2.787-0.243-4.182,0.002L9.313,4.753c-1.24,0.219-2.317,1.023-2.905,2.201l-1.984,4.599c-0.9,1.8-0.316,4,1.405,5.146l3.365,1.986l0.476,1.223C14.338,18.071,23.629,18,25,18s10.662,0.071,15.331,1.908l0.476-1.223l3.412-2.015C45.894,15.553,46.478,13.353,45.601,11.604z M35,12h-4v4h-4v-4h-4v4h-4v-4h-4V8h4v4h4V8h4v4h4V8h4V12z"/><path d="M25,20c-6.993,0-11.912,0.845-14.332,1.666C11.863,22.735,15.512,25,25,25c9.553,0,13.186-2.295,14.356-3.356C36.952,20.852,32.022,20,25,20z"/></g></svg>