<?xml version="1.0" encoding="utf-8"?><!-- Generator: Adobe Illustrator 15.0.0, SVG Export Plug-In . SVG Version: 6.00 Build 0)  --><!DOCTYPE svg PUBLIC "-//W3C//DTD SVG 1.1//EN" "http://www.w3.org/Graphics/SVG/1.1/DTD/svg11.dtd"><svg xmlns="http://www.w3.org/2000/svg" xmlns:xlink="http://www.w3.org/1999/xlink" viewBox="0 0 50 50" width="50px" height="50px"><path d="M7,46.414L3.586,43l4.291-4.291l3.414,3.414L7,46.414z"/><path d="M43.964,11.646l-5.61-5.61C37.041,4.723,35.296,4,33.439,4c-1.855,0-3.602,0.723-4.914,2.036L15.79,18.771L9.341,30.298c-0.646,1.164-0.44,2.636,0.501,3.578l6.241,6.241c0.566,0.566,1.32,0.879,2.122,0.879c0.546,0,1.083-0.149,1.549-0.432l12.8-7.722l11.409-11.369C45.277,20.162,46,18.417,46,16.56C46,14.703,45.276,12.958,43.964,11.646z M17,34c-0.552,0-1-0.447-1-1s0.448-1,1-1s1,0.447,1,1S17.552,34,17,34z M17,28c-0.552,0-1-0.447-1-1s0.448-1,1-1s1,0.447,1,1S17.552,28,17,28z M23,34c-0.552,0-1-0.447-1-1s0.448-1,1-1s1,0.447,1,1S23.552,34,23,34z M23,28c-0.552,0-1-0.447-1-1s0.448-1,1-1s1,0.447,1,1S23.552,28,23,28z M40.452,17.963l-9.817,9.816l-8.415-8.414l9.817-9.817c0.775-0.775,2.029-0.775,2.805,0l5.61,5.61C41.227,15.933,41.227,17.188,40.452,17.963z"/><path d="M14.669,41.531l-6.242-6.242c-0.134-0.134-0.247-0.282-0.362-0.429l-1.771,2.94c-0.479,0.791-0.356,1.8,0.298,2.453l3.155,3.154c0.378,0.377,0.881,0.585,1.417,0.585c0.364,0,0.722-0.099,1.035-0.287l2.953-1.778C14.988,41.8,14.819,41.681,14.669,41.531z"/></svg>