<?xml version="1.0" encoding="utf-8"?><!-- Generator: Adobe Illustrator 19.1.1, SVG Export Plug-In . SVG Version: 6.00 Build 0)  --><svg xmlns="http://www.w3.org/2000/svg" xmlns:xlink="http://www.w3.org/1999/xlink" viewBox="0 0 50 50" width="50px" height="50px"><path d="M47,39.3c-0.9-0.6-1.8-0.1-2.7,0.4c-1.1,0.6-2.6,1.4-4.9,1.4H4c-1.1,0-2,0.9-2,2v4c0,1.1,0.9,2,2,2h35.5c4.4,0,7.3-2.9,8.2-5.9C48.3,41.4,48,39.9,47,39.3z M28,46h-8c-0.6,0-1-0.4-1-1s0.4-1,1-1h8c0.6,0,1,0.4,1,1S28.6,46,28,46z"/><path d="M47,29.3c-0.9-0.6-1.8-0.1-2.7,0.4c-1.1,0.6-2.6,1.4-4.9,1.4H4c-1.1,0-2,0.9-2,2v4c0,1.1,0.9,2,2,2h35.5c4.4,0,7.3-2.9,8.2-5.9C48.3,31.4,48,29.9,47,29.3z M28,36h-8c-0.6,0-1-0.4-1-1s0.4-1,1-1h8c0.6,0,1,0.4,1,1S28.6,36,28,36z"/><path d="M19,5C12.9,5,8,9.9,8,16s4.9,11,11,11s11-4.9,11-11S25.1,5,19,5z M19,21.8c-2.5,0-4.1-1.5-4.2-3.5H17c0.1,0.9,1,1.6,2,1.6c1.2,0,2-0.8,2-2c0-1.2-0.8-2.1-2-2.1c-0.9,0-1.5,0.4-1.9,1H15l0.6-6.5h7.1v2h-5.3l-0.3,2.9h0.1c0.5-0.7,1.3-1.1,2.4-1.1c2.1,0,3.7,1.6,3.7,3.8C23.3,20.1,21.6,21.8,19,21.8z"/><path d="M33,2c-2.7,0-5.2,1.2-6.8,3.2C29.7,7.5,32,11.5,32,16c0,1.3-0.2,2.6-0.6,3.9c0.5,0.1,1,0.1,1.6,0.1c5,0,9-4,9-9C42,6,38,2,33,2z M35,14.9h-1.6V10h-2V9c1.7,0,2.3-1.9,2.3-1.9H35V14.9z"/></svg>