<?xml version="1.0" encoding="iso-8859-1"?>
<!-- Generator: Adobe Illustrator 24.0.2, SVG Export Plug-In . SVG Version: 6.00 Build 0)  -->
<svg version="1.1" id="&#x421;&#x43B;&#x43E;&#x439;_1"
	 xmlns="http://www.w3.org/2000/svg" xmlns:xlink="http://www.w3.org/1999/xlink" x="0px" y="0px" viewBox="0 0 50 50"
	 style="enable-background:new 0 0 50 50;" xml:space="preserve">
<path d="M48,22v0.01c0,0.03,0,0.06-0.01,0.09c0,0.04,0,0.07-0.01,0.1c-0.01,0.05-0.02,0.1-0.04,0.14c-0.01,0.02-0.02,0.04-0.03,0.06
	c0,0.01-0.01,0.03-0.01,0.04c-0.01,0.01-0.01,0.02-0.02,0.03c-0.01,0.03-0.03,0.05-0.05,0.08c-0.02,0.04-0.05,0.07-0.08,0.11
	c-0.03,0.03-0.06,0.07-0.1,0.09c-0.01,0.02-0.03,0.03-0.04,0.04c-0.04,0.03-0.08,0.06-0.12,0.08c-0.03,0.02-0.07,0.04-0.1,0.05
	c-0.01,0-0.01,0.01-0.02,0.01c-0.02,0.01-0.03,0.01-0.05,0.01c-0.01,0.01-0.01,0.01-0.02,0.01s-0.02,0-0.02,0
	c-0.02,0.02-0.05,0.02-0.08,0.03c-0.02,0-0.04,0.01-0.06,0.01C47.1,23,47.05,23,47,23c-9.26,1.18-16.38,3.42-17.32,5.47
	c-0.1,0.22-0.16,0.51,0.15,0.98c0.67,0.99,3.52,1.31,6.03,1.6c3.8,0.42,7.72,0.86,9.03,3.5c0.06,0.09,0.75,1.35,0.52,3.05
	c-1.47,6.43-14.14,9.42-27.8,10.95c-0.91-0.58-1.81-1.16-2.72-1.74c-0.03-0.02-0.07-0.04-0.1-0.06c-3.6-2.32-7.2-4.62-10.81-6.92
	C3,39.2,2.01,38.57,1.03,37.94c3.56-0.11,6.51-0.29,8.97-0.5V25H5.88C5.4,25,5,24.6,5,24.12v-4.24C5,19.4,5.4,19,5.88,19h11.51
	l2.17,2l0.86,0.79L19.3,23l-1.86,2H12v12.26c9.2-0.95,9.98-2.36,10.02-2.43c0.03-0.22-0.37-0.84-0.68-1.33
	c-0.72-1.13-1.71-2.67-1.32-4.69c0.35-1.81,1.63-2.95,2.32-3.56c1.06-0.94,2.3-1.68,3.62-2.25c3.81-1.66,8.29-1.99,11.04-2h10
	c0.15,0,0.29,0.03,0.42,0.1c0.04,0.01,0.09,0.04,0.13,0.07c0.04,0.02,0.07,0.05,0.11,0.08c0.02,0.01,0.03,0.03,0.05,0.04
	c0.02,0.03,0.05,0.06,0.07,0.09c0.01,0,0.01,0.01,0.01,0.01c0.03,0.03,0.06,0.07,0.08,0.12c0.01,0.02,0.02,0.04,0.03,0.06
	c0.01,0.02,0.02,0.04,0.03,0.06c0.01,0.02,0.01,0.03,0.01,0.05c0.01,0.01,0.01,0.01,0.01,0.02c0,0.01,0,0.02,0,0.02
	c0.02,0.02,0.02,0.05,0.03,0.08v0.03c0.01,0.01,0.01,0.02,0.01,0.03C48,21.9,48,21.95,48,22z"/>
<path d="M48,22v0.01c0,0.03,0,0.06-0.01,0.09c0,0.04,0,0.07-0.01,0.1c-0.01,0.05-0.02,0.1-0.04,0.14c-0.01,0.02-0.02,0.04-0.03,0.06
	c0,0.01-0.01,0.03-0.01,0.04c-0.01,0.01-0.01,0.02-0.02,0.03c-0.01,0.03-0.03,0.05-0.05,0.08c-0.02,0.04-0.05,0.07-0.08,0.11
	c-0.03,0.03-0.06,0.07-0.1,0.09c-0.01,0.02-0.03,0.03-0.04,0.04c-0.04,0.03-0.08,0.06-0.12,0.08c-0.03,0.02-0.07,0.04-0.1,0.05
	c-0.01,0-0.01,0.01-0.02,0.01c-0.02,0.01-0.03,0.01-0.05,0.01c-0.01,0.01-0.01,0.01-0.02,0.01c-0.01,0.01-0.01,0.01-0.02,0
	c-0.04,0.02-0.09,0.03-0.14,0.04C47.1,23,47.05,23,47,23c-9.26,1.18-16.38,3.42-17.32,5.47c-0.1,0.22-0.16,0.51,0.15,0.98
	c0.67,0.99,3.52,1.31,6.03,1.6c3.8,0.42,7.72,0.86,9.03,3.5c0.06,0.09,0.75,1.35,0.52,3.05c-1.47,6.43-14.14,9.42-27.8,10.95
	c-0.91-0.58-1.81-1.16-2.72-1.74c17.91-1.78,27.5-4.99,28.56-9.56c0.12-0.95-0.32-1.75-0.32-1.76c-0.86-1.71-4.38-2.11-7.49-2.46
	c-3.23-0.36-6.29-0.7-7.47-2.48c-0.81-1.2-0.61-2.25-0.31-2.91c0.94-2.05,4.56-3.56,8.48-4.63c0.02,0,0.03-0.01,0.05-0.01
	c0.45-0.13,0.91-0.25,1.37-0.36c2.72-0.66,5.45-1.12,7.4-1.39c0.68-0.11,1.26-0.18,1.72-0.24C46.92,21,46.96,21,47,21
	c0.15,0,0.29,0.03,0.42,0.1c0.04,0.01,0.09,0.04,0.13,0.07c0.04,0.02,0.07,0.05,0.11,0.08c0.05,0.04,0.09,0.08,0.12,0.13
	c0.01,0,0.01,0.01,0.01,0.01c0.03,0.03,0.06,0.07,0.08,0.12c0.01,0.02,0.02,0.04,0.03,0.06c0.02,0.03,0.03,0.07,0.04,0.11
	c0.01,0.01,0.01,0.01,0.01,0.02c0.01,0.01,0.01,0.01,0,0.02c0.02,0.04,0.03,0.09,0.04,0.14C48,21.9,48,21.95,48,22z"/>
<path d="M48,22v0.01c0,0.03,0,0.06-0.01,0.09c0,0.04,0,0.07-0.01,0.1c-0.01,0.05-0.02,0.1-0.04,0.14c-0.01,0.02-0.02,0.04-0.03,0.06
	c0,0.01-0.01,0.03-0.01,0.04c-0.01,0.01-0.01,0.02-0.02,0.03c-0.01,0.03-0.03,0.05-0.05,0.08c-0.02,0.04-0.05,0.07-0.08,0.11
	c-0.03,0.03-0.06,0.07-0.1,0.09c-0.01,0.02-0.03,0.03-0.04,0.04c-0.04,0.03-0.08,0.06-0.12,0.08c-0.03,0.02-0.07,0.04-0.1,0.05
	c-0.01,0-0.01,0.01-0.02,0.01c-0.02,0.01-0.03,0.01-0.05,0.01c-0.01,0.01-0.01,0.01-0.02,0.01s-0.02,0-0.02,0
	c-0.02,0.02-0.05,0.02-0.08,0.03c-0.02,0-0.04,0.01-0.06,0.01C47.1,23,47.05,23,47,23c-0.3,0-0.6-0.13-0.79-0.39l-1.05-1.36
	L44.97,21H47c0.15,0,0.29,0.03,0.42,0.1c0.04,0.01,0.09,0.04,0.13,0.07c0.04,0.02,0.07,0.05,0.11,0.08
	c0.02,0.01,0.03,0.03,0.05,0.04c0.02,0.03,0.05,0.06,0.07,0.09c0.01,0,0.01,0.01,0.01,0.01c0.03,0.03,0.06,0.07,0.08,0.12
	c0.01,0.02,0.02,0.04,0.03,0.06c0.01,0.02,0.02,0.04,0.03,0.06c0.01,0.02,0.01,0.03,0.01,0.05c0.01,0.01,0.01,0.01,0.01,0.02
	c0,0.01,0,0.02,0,0.02c0.02,0.02,0.02,0.05,0.03,0.08c0,0.02,0.01,0.04,0.01,0.06C48,21.9,48,21.95,48,22z"/>
<path d="M19.56,21l0.86,0.79L19.3,23H19c-0.55,0-1-0.45-1-1s0.45-1,1-1H19.56z"/>
<path d="M48,22v0.01c0,0.03,0,0.06-0.01,0.09c0,0.04,0,0.07-0.01,0.1c-0.01,0.05-0.02,0.1-0.04,0.14c-0.01,0.02-0.02,0.04-0.03,0.06
	c0,0.01-0.01,0.03-0.01,0.04c-0.01,0.01-0.01,0.02-0.02,0.03c-0.01,0.03-0.03,0.05-0.05,0.08c-0.02,0.04-0.05,0.07-0.08,0.11
	c-0.03,0.03-0.06,0.07-0.1,0.09c-0.01,0.02-0.03,0.03-0.04,0.04c-0.04,0.03-0.08,0.06-0.12,0.08c-0.03,0.02-0.07,0.04-0.1,0.05
	c-0.01,0-0.01,0.01-0.02,0.01c-0.02,0.01-0.03,0.01-0.05,0.01c-0.01,0.01-0.01,0.01-0.02,0.01c-0.01,0.01-0.01,0.01-0.02,0
	c-0.02,0.02-0.05,0.02-0.08,0.03c-0.02,0-0.04,0.01-0.06,0.01C47.1,23,47.05,23,47,23H25.96c3.81-1.66,8.29-1.99,11.04-2h10
	c0.15,0,0.29,0.03,0.42,0.1c0.04,0.01,0.09,0.04,0.13,0.07c0.04,0.02,0.07,0.05,0.11,0.08c0.02,0.01,0.03,0.03,0.05,0.04
	c0.02,0.03,0.05,0.06,0.07,0.09c0.01,0,0.01,0.01,0.01,0.01c0.03,0.03,0.06,0.07,0.08,0.12c0.01,0.02,0.02,0.04,0.03,0.06
	c0.01,0.02,0.02,0.04,0.03,0.06c0.01,0.02,0.01,0.03,0.01,0.05c0.01,0.01,0.01,0.01,0.01,0.02c0.01,0.01,0.01,0.01,0,0.02
	c0.02,0.02,0.02,0.05,0.03,0.08v0.03C47.99,21.89,48,21.94,48,22z"/>
<path d="M38,22c0,0.24-0.09,0.47-0.24,0.64C37.59,22.86,37.31,23,37,23c-0.2,0-0.42,0-0.66,0.01c-3.06,0.07-9.19,0.64-12.68,3.74
	c-0.77,0.68-1.47,1.38-1.68,2.44c-0.24,1.23,0.41,2.25,1.04,3.23c0.55,0.85,1.11,1.73,0.97,2.72c-0.15,1.07-0.54,3.81-20.01,4.69
	C3,39.2,2.01,38.57,1.03,37.94c3.56-0.11,6.51-0.29,8.97-0.5c0.71-0.06,1.37-0.12,2-0.18c9.2-0.95,9.98-2.36,10.02-2.43
	c0.03-0.22-0.37-0.84-0.68-1.33c-0.72-1.13-1.71-2.67-1.32-4.69c0.35-1.81,1.63-2.95,2.32-3.56c1.06-0.94,2.3-1.68,3.62-2.25
	c3.81-1.66,8.29-1.99,11.04-2C37.55,21,38,21.44,38,22z"/>
<path d="M12,24v14c0,0.55-0.45,1-1,1s-1-0.45-1-1V24c0-0.55,0.45-1,1-1S12,23.45,12,24z"/>
<path d="M38.698,9.564l-1.059-1.379c-0.315-0.41-0.93-0.416-1.254-0.013L33.07,12.31L25.624,1.136
	c-0.29-0.436-0.928-0.443-1.229-0.014l-0.192,0.274C24.203,1.397,24.201,1.398,24.2,1.4L19,8.33L16.8,5.4
	c-0.19-0.26-0.48-0.41-0.81-0.4c-0.32,0-0.62,0.16-0.8,0.42L6.92,17h6.36H15h3.17l0.58,0.53L20.34,19H43h1h1h0.95
	c0.017,0,0.033,0,0.05,0C43.566,15.855,41.132,12.709,38.698,9.564z"/>
</svg>