<?xml version="1.0" encoding="iso-8859-1"?><!-- Generator: Adobe Illustrator 19.1.1, SVG Export Plug-In . SVG Version: 6.00 Build 0)  --><svg xmlns="http://www.w3.org/2000/svg" xmlns:xlink="http://www.w3.org/1999/xlink" viewBox="0 0 50 50" width="50px" height="50px"><path d="M49.868,22.504l-4-7c-0.105-0.185-0.268-0.331-0.462-0.418l-9-4c-0.003-0.001-0.006-0.001-0.009-0.002c-0.06-0.026-0.129-0.029-0.195-0.043c-0.065-0.013-0.129-0.039-0.194-0.039C36.006,11.002,36.003,11,36,11h-0.264l-10.97,6.704L21,25.236v14.676l9.091-0.831C30.606,39.034,31,38.603,31,38.086V26.833L41,26v11c0,0.281,0.118,0.549,0.326,0.739c0.208,0.188,0.481,0.282,0.766,0.257l7-0.667C49.606,37.281,50,36.85,50,36.333V23C50,22.826,49.955,22.655,49.868,22.504z"/><path d="M11,11c-0.135,0-0.27,0.027-0.394,0.081l-7,3c-0.036,0.016-0.06,0.045-0.093,0.064c-0.063,0.036-0.121,0.072-0.175,0.121c-0.051,0.046-0.09,0.096-0.129,0.151c-0.025,0.033-0.059,0.056-0.08,0.093l-2.585,4.596l18.921,4.73l3.641-7.283c0.084-0.168,0.213-0.309,0.373-0.406L31.9,11H11z"/><path d="M0,21.03v8.637c0,0.381,0.217,0.729,0.559,0.897L19,39.623V25.78L0,21.03z"/></svg>