<?xml version="1.0" encoding="iso-8859-1"?><!-- Generator: Adobe Illustrator 21.1.0, SVG Export Plug-In . SVG Version: 6.00 Build 0)  --><svg xmlns="http://www.w3.org/2000/svg" xmlns:xlink="http://www.w3.org/1999/xlink" viewBox="0 0 50 50" width="50px" height="50px"><path d="M15,25.51c-1.09,2.5-2.18,4.99-3.26,7.49h6.52C17.17,30.5,16.09,28.01,15,25.51z M15,25.51c-1.09,2.5-2.18,4.99-3.26,7.49h6.52C17.17,30.5,16.09,28.01,15,25.51z M15,25.51c-1.09,2.5-2.18,4.99-3.26,7.49h6.52C17.17,30.5,16.09,28.01,15,25.51z M35,25.51c-1.09,2.5-2.18,4.99-3.26,7.49h6.52C37.17,30.5,36.09,28.01,35,25.51z M35,25.51c-1.09,2.5-2.18,4.99-3.26,7.49h6.52C37.17,30.5,36.09,28.01,35,25.51z M15,25.51c-1.09,2.5-2.18,4.99-3.26,7.49h6.52C17.17,30.5,16.09,28.01,15,25.51z M15,25.51c-1.09,2.5-2.18,4.99-3.26,7.49h6.52C17.17,30.5,16.09,28.01,15,25.51z M35,25.51c-1.09,2.5-2.18,4.99-3.26,7.49h6.52C37.17,30.5,36.09,28.01,35,25.51z M35,25.51c-1.09,2.5-2.18,4.99-3.26,7.49h6.52C37.17,30.5,36.09,28.01,35,25.51z M15,25.51c-1.09,2.5-2.18,4.99-3.26,7.49h6.52C17.17,30.5,16.09,28.01,15,25.51z M35,25.51c-1.09,2.5-2.18,4.99-3.26,7.49h6.52C37.17,30.5,36.09,28.01,35,25.51z M15,25.51c-1.09,2.5-2.18,4.99-3.26,7.49h6.52C17.17,30.5,16.09,28.01,15,25.51z M15,25.51c-1.09,2.5-2.18,4.99-3.26,7.49h6.52C17.17,30.5,16.09,28.01,15,25.51z M35,25.51c-1.09,2.5-2.18,4.99-3.26,7.49h6.52C37.17,30.5,36.09,28.01,35,25.51z M35,25.51c-1.09,2.5-2.18,4.99-3.26,7.49h6.52C37.17,30.5,36.09,28.01,35,25.51z M15,25.51c-1.09,2.5-2.18,4.99-3.26,7.49h6.52C17.17,30.5,16.09,28.01,15,25.51z M15,25.51c-1.09,2.5-2.18,4.99-3.26,7.49h6.52C17.17,30.5,16.09,28.01,15,25.51z M35,25.51c-1.09,2.5-2.18,4.99-3.26,7.49h6.52C37.17,30.5,36.09,28.01,35,25.51z M35,25.51c-1.09,2.5-2.18,4.99-3.26,7.49h6.52C37.17,30.5,36.09,28.01,35,25.51z M15,25.51c-1.09,2.5-2.18,4.99-3.26,7.49h6.52C17.17,30.5,16.09,28.01,15,25.51z"/><path d="M48.62,19.21l-23-18c-0.37-0.28-0.87-0.28-1.24,0l-23,18c-0.43,0.34-0.51,0.97-0.17,1.41c0.34,0.43,0.97,0.51,1.41,0.17L4,19.71V46c0,0.55,0.45,1,1,1h40c0.55,0,1-0.45,1-1V19.71l1.38,1.08C47.57,20.93,47.78,21,48,21c0.3,0,0.59-0.13,0.79-0.38C49.13,20.18,49.05,19.55,48.62,19.21z M39.73,35.29C38.49,36.49,36.7,37,35,37c-2.43,0-5.64-1.26-5.97-4.03c-0.12-1.05,0.6-2.13,1-3.06c1.17-2.69,2.34-5.39,3.51-8.08c-1.61-0.36-3.7-2.48-5.4-1.67c-0.34,0.15-1.01,0.62-1.17,0.96c-0.16,0.32,0.08,0.85-0.02,1.28C26.76,23.31,25.94,24,25,24c-0.89,0-1.69-0.62-1.93-1.47c-0.12-0.43,0.17-0.95,0.08-1.29c-0.08-0.32-0.91-0.88-1.18-1.03c-1.73-0.92-3.86,1.25-5.51,1.62c1.08,2.48,2.15,4.96,3.23,7.44c0.4,0.92,0.95,1.87,1.23,2.83c0.64,2.22-1.89,4.06-3.7,4.59c-2.39,0.7-5.48,0.28-7.21-1.66c-0.95-1.07-1.2-2.3-0.65-3.57c1.27-2.93,2.54-5.85,3.82-8.77c0.37-0.86,0.7-2.41,1.71-2.68c0.8-0.21,1.47-0.17,2.24-0.56c0.56-0.28,1.09-0.63,1.66-0.89c1.61-0.73,3.31-0.78,4.75,0.31c0.22-0.9,0.9-1.75,1.46-2.47c0.56,0.72,1.24,1.57,1.46,2.47c1.44-1.09,3.14-1.04,4.75-0.31c0.61,0.28,1.17,0.66,1.78,0.96c0.76,0.36,1.45,0.29,2.22,0.5c0.96,0.27,1.4,2.18,1.74,2.97c0.82,1.86,1.63,3.73,2.44,5.6c0.5,1.13,1.17,2.3,1.52,3.49C41.25,33.23,40.55,34.51,39.73,35.29z"/></svg>