<?xml version="1.0" encoding="utf-8"?><!-- Generator: Adobe Illustrator 15.0.0, SVG Export Plug-In . SVG Version: 6.00 Build 0)  --><!DOCTYPE svg PUBLIC "-//W3C//DTD SVG 1.1//EN" "http://www.w3.org/Graphics/SVG/1.1/DTD/svg11.dtd"><svg xmlns="http://www.w3.org/2000/svg" xmlns:xlink="http://www.w3.org/1999/xlink" viewBox="0 0 50 50" width="50px" height="50px"><rect x="41" y="9" width="3" height="3"/><rect x="41" y="17" width="3" height="2"/><rect x="41" y="24" width="3" height="2"/><rect x="41" y="31" width="3" height="2"/><rect x="6" y="9" width="3" height="3"/><rect x="6" y="17" width="3" height="2"/><rect x="6" y="24" width="3" height="2"/><rect x="6" y="31" width="3" height="2"/><path d="M47,30H3c-0.552,0-1-0.447-1-1v-3c0-0.552,0.448-1,1-1h44c0.553,0,1,0.448,1,1v3C48,29.553,47.553,30,47,30z"/><path d="M47,23H3c-0.552,0-1-0.448-1-1v-3c0-0.552,0.448-1,1-1h44c0.553,0,1,0.448,1,1v3C48,22.552,47.553,23,47,23z"/><path d="M47,16H3c-0.552,0-1-0.448-1-1v-3c0-0.552,0.448-1,1-1h44c0.553,0,1,0.448,1,1v3C48,15.552,47.553,16,47,16z"/><path d="M49,39H1c-0.552,0-1-0.447-1-1v-5c0-0.553,0.448-1,1-1h48c0.553,0,1,0.447,1,1v5C50,38.553,49.553,39,49,39z"/><path d="M2,40v9c0,0.553,0.448,1,1,1h3c0.552,0,1-0.447,1-1v-9H2z"/><path d="M8,40v6c0,0.553,0.448,1,1,1h3c0.552,0,1-0.447,1-1v-6H8z"/><path d="M37,40v6c0,0.553,0.447,1,1,1h3c0.553,0,1-0.447,1-1v-6H37z"/><path d="M43,40v9c0,0.553,0.447,1,1,1h3c0.553,0,1-0.447,1-1v-9H43z"/></svg>