<?xml version="1.0" encoding="iso-8859-1"?>
<!-- Generator: Adobe Illustrator 24.0.0, SVG Export Plug-In . SVG Version: 6.00 Build 0)  -->
<svg version="1.1" id="Layer_1" xmlns="http://www.w3.org/2000/svg" xmlns:xlink="http://www.w3.org/1999/xlink" x="0px" y="0px"
	 viewBox="0 0 50 50" style="enable-background:new 0 0 50 50;" xml:space="preserve">
<path style="fill:none;stroke:#000000;stroke-width:2;stroke-linecap:round;stroke-linejoin:round;stroke-miterlimit:10;" d="M2,21
	L25,3l23,18"/>
<path style="fill:none;stroke:#000000;stroke-width:2;stroke-linecap:round;stroke-linejoin:round;stroke-miterlimit:10;" d="
	M45,18.667V47H5V18.667"/>
<path d="M37,28h-0.62C35.619,28,35,28.619,35,29.38v0.93c0,0.678-0.092,1.338-0.226,1.984C35.206,32.112,35.627,32,36,32
	c1.103,0,2-0.897,2-2v-1C38,28.449,37.551,28,37,28z"/>
<path d="M14,30.31c0,2.786,1.484,5.323,3.893,6.692C17.928,37,17.964,37,18,37h11c0.036,0,0.072,0,0.107,0.002
	C31.516,35.633,33,33.096,33,30.31V26H14V30.31z"/>
<path d="M18,39h-4.829c0.413,1.164,1.525,2,2.829,2h1h13h1c1.304,0,2.416-0.836,2.829-2H29H18z"/>
<path d="M25,3L5,19.213V47h40V19L25,3z M25.36,17.732C25.759,17.399,26,17.198,26,16c0-0.552,0.448-1,1-1s1,0.448,1,1
	c0,1.972-0.643,2.671-1.36,3.268C26.241,19.601,26,19.802,26,21c0,0.552-0.448,1-1,1s-1-0.448-1-1
	C24,19.028,24.643,18.329,25.36,17.732z M20.793,16.293C21.467,15.619,22,15.086,22,13c0-0.552,0.448-1,1-1s1,0.448,1,1
	c0,2.914-0.994,3.908-1.793,4.707C21.533,18.381,21,18.914,21,21c0,0.552-0.448,1-1,1s-1-0.448-1-1
	C19,18.086,19.994,17.092,20.793,16.293z M40,30c0,2.206-1.794,4-4,4c-0.542,0-2.294,1.196-2.759,1.882
	c-0.033,0.049-0.074,0.089-0.114,0.13c-0.254,0.348-0.534,0.676-0.833,0.988H35c0.552,0,1,0.448,1,1c0,2.757-2.243,5-5,5H16
	c-2.757,0-5-2.243-5-5c0-0.552,0.448-1,1-1h2.714C13.007,35.228,12,32.861,12,30.31V25c0-0.552,0.448-1,1-1h21c0.552,0,1,0.448,1,1
	v1.302C35.422,26.111,35.887,26,36.38,26H37c1.654,0,3,1.346,3,3V30z"/>
</svg>