<?xml version="1.0" encoding="iso-8859-1"?><!-- Generator: Adobe Illustrator 22.0.1, SVG Export Plug-In . SVG Version: 6.00 Build 0)  --><svg xmlns="http://www.w3.org/2000/svg" xmlns:xlink="http://www.w3.org/1999/xlink" viewBox="0 0 50 50" width="50px" height="50px"><g><g><path d="M18.04,22.44l20.81,20.74c-1.01,1.07-2.34,2.09-4.02,2.82c-3.82,1.66-7.32,0.85-8.25,0.62c-0.99-0.24-3.36-0.96-6.33-3.5c-2.26-1.93-7.41-7.1-13.63-14.62c-0.57-1.41-0.18-3.04,0.97-4.03c1.15-0.99,2.82-1.15,4.13-0.38c1.7,1.64,3.41,3.28,5.11,4.91c0.46,0.44,1.21,0.12,1.21-0.51V22.44z"/></g><g><path d="M42,22.12v13.14c0,1.49-0.27,2.97-0.82,4.34c-0.02,0.07-0.05,0.13-0.08,0.19c-0.24,0.58-0.53,1.15-0.88,1.68L18.04,19.35V5.83c0.12-1.56,1.42-2.77,2.96-2.79c1.5-0.01,2.8,1.12,3,2.63v14.41c0.161-1.712,1.527-2.97,2.96-3c1.696-0.035,3.315,1.654,3.07,3.72c0.234-1.642,1.632-2.809,3.095-2.769c1.689,0.046,3.156,1.694,2.915,3.619c0.233-1.54,1.608-2.654,3.13-2.57C40.743,19.167,42.01,20.509,42,22.12z"/></g><g><polygon style="fill:#FFFFFF;" points="48.6,47.27 47.32,48.55 40.22,41.47 18.04,19.35 1.29,2.65 2.57,1.37 18.04,16.8 41.1,39.79 "/></g><g><polygon points="48.83,47.23 47.42,48.65 47.32,48.55 40.22,41.47 18.04,19.35 1.29,2.65 2.71,1.23 18.04,16.52 41.18,39.6 "/></g></g></svg>