<?xml version="1.0" encoding="iso-8859-1"?><!-- Generator: Adobe Illustrator 19.1.1, SVG Export Plug-In . SVG Version: 6.00 Build 0)  --><svg xmlns="http://www.w3.org/2000/svg" xmlns:xlink="http://www.w3.org/1999/xlink" viewBox="0 0 50 50" width="50px" height="50px"><path d="M44.979,12.796C44.883,12.333,44.474,12,44,12H6c-0.287,0-0.56,0.123-0.75,0.338c-0.19,0.215-0.278,0.501-0.243,0.786l3,24C8.07,37.624,8.496,38,9,38h40c0.301,0,0.586-0.136,0.775-0.369c0.19-0.233,0.265-0.54,0.203-0.835L44.979,12.796z M38,26H17c-0.552,0-1-0.448-1-1s0.448-1,1-1h21c0.553,0,1,0.448,1,1S38.553,26,38,26z"/><g><path d="M3.664,18.496L0.027,33.769c-0.071,0.298-0.002,0.611,0.188,0.852C0.405,34.86,0.694,35,1,35h4.727L3.664,18.496z"/></g></svg>