<?xml version="1.0" encoding="utf-8"?><!-- Generator: Adobe Illustrator 15.0.0, SVG Export Plug-In . SVG Version: 6.00 Build 0)  --><!DOCTYPE svg PUBLIC "-//W3C//DTD SVG 1.1//EN" "http://www.w3.org/Graphics/SVG/1.1/DTD/svg11.dtd"><svg xmlns="http://www.w3.org/2000/svg" xmlns:xlink="http://www.w3.org/1999/xlink" viewBox="0 0 50 50" width="50px" height="50px"><path d="M45,47c-0.256,0-0.512-0.098-0.707-0.293l-36-36c-0.391-0.391-0.391-1.023,0-1.414s1.023-0.391,1.414,0l36,36c0.391,0.391,0.391,1.023,0,1.414C45.512,46.902,45.256,47,45,47z"/><path d="M47,22c-0.127,0-0.256-0.024-0.38-0.076c-0.511-0.21-0.755-0.794-0.545-1.305c1.073-2.613,1.189-4.577,0.344-5.839C45.312,13.128,42.757,13,42,13c-0.52,0-0.953-0.398-0.996-0.916C40.618,7.527,37.393,7,35,7c-0.553,0-1-0.448-1-1s0.447-1,1-1c5.566,0,7.398,3.104,7.888,6.039c1.523,0.131,3.877,0.667,5.192,2.629c1.24,1.85,1.188,4.444-0.155,7.712C47.767,21.767,47.393,22,47,22z"/><path d="M41.999,22c-0.459,0-0.873-0.318-0.976-0.785c-0.582-2.643-2.187-3.59-7.15-4.223c-4.154-0.53-6.705-2.098-7.581-4.66c-1.169-3.423,1.221-7.259,2.001-8.039c0.391-0.391,1.023-0.391,1.414,0s0.391,1.023,0,1.414c-0.451,0.451-2.348,3.562-1.522,5.978c0.608,1.78,2.607,2.898,5.942,3.323c5.056,0.645,7.964,1.756,8.85,5.777c0.119,0.54-0.222,1.073-0.762,1.192C42.143,21.993,42.07,22,41.999,22z"/><path d="M18,24H1c-0.553,0-1,0.447-1,1v8c0,0.553,0.447,1,1,1h27L18,24z"/><g><rect x="40" y="24" width="3" height="10"/><path d="M49,24h-4v10h4c0.553,0,1-0.447,1-1v-8C50,24.448,49.553,24,49,24z"/><path d="M38,24H24.156c-0.552,0-1,0.448-1,1l9.015,9H38V24z"/></g></svg>