<?xml version="1.0" encoding="iso-8859-1"?>
<!-- Generator: Adobe Illustrator 23.0.3, SVG Export Plug-In . SVG Version: 6.00 Build 0)  -->
<svg version="1.1" id="Layer_1" xmlns="http://www.w3.org/2000/svg" xmlns:xlink="http://www.w3.org/1999/xlink" x="0px" y="0px"
	 viewBox="0 0 50 50" style="enable-background:new 0 0 50 50;" xml:space="preserve">
<g>
	<path d="M30.5,36.929c-0.828,0-1.5,0.231-1.5,0.515c0,0.284,1,1.544,1.5,1.544s1.5-1.261,1.5-1.544
		C32,37.161,31.328,36.929,30.5,36.929z"/>
	<circle cx="28" cy="35" r="1"/>
	<circle cx="33" cy="35" r="1"/>
	<circle cx="18" cy="24" r="1"/>
	<circle cx="24" cy="24" r="1"/>
	<path d="M48.621,19.211l-23-18c-0.371-0.281-0.871-0.281-1.242,0l-23,18c-0.43,0.34-0.508,0.969-0.168,1.41
		c0.34,0.43,0.969,0.508,1.41,0.168L4,19.711V46c0,0.551,0.449,1,1,1h40c0.551,0,1-0.449,1-1V19.711l1.379,1.078
		C47.57,20.93,47.781,21,48,21c0.301,0,0.59-0.129,0.789-0.379C49.129,20.18,49.051,19.551,48.621,19.211z M26.566,15
		c2.569,0,5.386,4.445,5.386,6.333c0,1.173-0.726,2.184-1.696,2.849c-0.161-0.331-0.347-0.651-0.557-0.958
		c0.034-0.298,0.051-0.595,0.051-0.888c0-3.015-1.648-5.66-4.114-7.157C25.933,15.074,26.242,15,26.566,15z M11.733,24.208
		C10.744,23.544,10,22.521,10,21.333C10,19.445,12.817,15,15.386,15c0.335,0,0.653,0.079,0.959,0.192
		c-2.455,1.499-4.094,4.138-4.094,7.145c0,0.293,0.017,0.59,0.051,0.888C12.085,23.539,11.896,23.868,11.733,24.208z M19.964,28.534
		v4.425h-1.152C15.607,32.958,13,30.464,13,27.397c0-1.344,0.502-2.625,1.421-3.637c-0.113-0.48-0.171-0.958-0.171-1.424
		c0-3.559,3.028-6.454,6.75-6.454s6.75,2.896,6.75,6.454c0,0.466-0.058,0.943-0.171,1.424C28.498,24.772,29,26.054,29,27.397
		c0,3.066-2.607,5.561-5.813,5.561h-1.223v-4.425c0.514-0.475,0.857-1.172,0.857-1.39c0-0.341-0.832-0.619-1.857-0.619
		c-1.025,0-1.857,0.278-1.857,0.619C19.107,27.361,19.45,28.058,19.964,28.534z M39.87,38.744C39.771,38.918,37.373,43,30.5,43
		s-9.271-4.082-9.37-4.256c-0.086-0.153-0.131-0.325-0.13-0.501c0.009-1.338,0.146-2.408,0.325-3.285h1.862
		c4.134,0,7.52-3.126,7.786-7.063c1.339,0.05,2.373,0.284,2.973,0.471l2.596-2.138c0.208-0.172,0.479-0.25,0.746-0.223
		c0.269,0.03,0.514,0.167,0.679,0.381c1.226,1.59,1.941,4.406,0.985,6.276c0.415,0.861,1.026,2.63,1.047,5.58
		C40.001,38.419,39.956,38.591,39.87,38.744z"/>
</g>
</svg>