<?xml version="1.0" encoding="iso-8859-1"?>
<!-- Generator: Adobe Illustrator 24.1.2, SVG Export Plug-In . SVG Version: 6.00 Build 0)  -->
<svg version="1.1" baseProfile="basic" id="Layer_1"
	 xmlns="http://www.w3.org/2000/svg" xmlns:xlink="http://www.w3.org/1999/xlink" x="0px" y="0px" viewBox="0 0 50 50"
	 xml:space="preserve">
<path d="M35.949,12H14.051C14.021,12.33,14,12.662,14,13v27h4V15h14v25h4V13C36,12.662,35.979,12.33,35.949,12z"/>
<line style="fill:none;stroke:#000000;stroke-width:2;stroke-linecap:round;stroke-miterlimit:10;" x1="4" y1="47" x2="46" y2="47"/>
<path d="M20,17v23h10V17H20z M26.5,33c-0.828,0-1.5-0.672-1.5-1.5s0.672-1.5,1.5-1.5s1.5,0.672,1.5,1.5S27.328,33,26.5,33z M27,26
	h-4c-0.553,0-1-0.447-1-1s0.447-1,1-1h4c0.553,0,1,0.447,1,1S27.553,26,27,26z M27,22h-4c-0.553,0-1-0.447-1-1s0.447-1,1-1h4
	c0.553,0,1,0.447,1,1S27.553,22,27,22z"/>
<path style="fill:none;stroke:#000000;stroke-width:2;stroke-linecap:round;stroke-miterlimit:10;" d="M37,47H13v-3
	c0-0.552,0.448-1,1-1h22c0.552,0,1,0.448,1,1V47z"/>
<path d="M37,47H13v-3c0-0.552,0.448-1,1-1h22c0.552,0,1,0.448,1,1V47z"/>
<path d="M25,2c-6.065,0-11,4.935-11,11v2h22v-2C36,6.935,31.065,2,25,2z M19,12c0-0.702,0.127-1.374,0.349-2
	c0.204-0.577,0.495-1.114,0.856-1.595c0.006-0.008,0.011-0.015,0.017-0.023c0.353-0.467,0.774-0.878,1.246-1.224
	c0.021-0.015,0.041-0.032,0.063-0.047c0.228-0.163,0.468-0.309,0.718-0.439c0.033-0.017,0.067-0.032,0.101-0.049
	c0.232-0.115,0.472-0.215,0.719-0.3c0.03-0.01,0.059-0.023,0.089-0.033c0.26-0.084,0.529-0.147,0.803-0.195
	c0.06-0.01,0.121-0.019,0.181-0.028C24.423,6.028,24.708,6,25,6s0.577,0.028,0.858,0.068c0.061,0.009,0.121,0.017,0.181,0.028
	c0.274,0.048,0.543,0.111,0.803,0.195c0.03,0.01,0.059,0.022,0.089,0.033c0.248,0.084,0.488,0.185,0.719,0.3
	c0.033,0.017,0.068,0.031,0.101,0.049c0.25,0.13,0.49,0.276,0.718,0.439c0.021,0.015,0.042,0.031,0.063,0.047
	c0.472,0.346,0.893,0.758,1.246,1.224c0.006,0.008,0.011,0.015,0.017,0.023c0.36,0.481,0.651,1.017,0.856,1.595
	C30.873,10.626,31,11.298,31,12H19z"/>
</svg>