<?xml version="1.0" encoding="iso-8859-1"?><!-- Generator: Adobe Illustrator 20.1.0, SVG Export Plug-In . SVG Version: 6.00 Build 0)  --><svg xmlns="http://www.w3.org/2000/svg" xmlns:xlink="http://www.w3.org/1999/xlink" viewBox="0 0 50 50" width="50px" height="50px"><path style="fill:none;stroke:#000000;stroke-width:2;stroke-linecap:round;stroke-linejoin:round;stroke-miterlimit:10;" d="M4.056,19.42C4.019,19.607,4,19.801,4,20c0,0.137,0.022,0.268,0.04,0.4C2.253,21.163,1,22.934,1,25c0,1.492,0.667,2.817,1.703,3.733C1.676,29.457,1,30.647,1,32c0,1.258,0.593,2.367,1.5,3.1C2.192,35.667,2,36.308,2,37c0,1.012,0.377,1.934,0.999,2.636"/><path style="fill:none;stroke:#000000;stroke-width:2;stroke-linecap:round;stroke-linejoin:round;stroke-miterlimit:10;" d="M47.02,40.603C47.629,39.907,48,39,48,38c0-0.986-0.371-1.878-0.963-2.575C48.208,34.727,49,33.462,49,32c0-1.353-0.676-2.543-1.703-3.267C48.333,27.817,49,26.492,49,25c0-1.701-0.854-3.199-2.152-4.103C46.938,20.612,47,20.315,47,20c0-1.371-0.925-2.514-2.181-2.873C44.925,16.768,45,16.394,45,16c0-2.209-1.791-4-4-4c-1.233,0-2.322,0.57-3.056,1.447C37.684,12.055,36.468,11,35,11c-0.395,0-0.77,0.081-1.115,0.22C33.539,9.944,32.385,9,31,9c-0.999,0-1.877,0.493-2.422,1.244C27.926,8.919,26.576,8,25,8s-2.926,0.919-3.578,2.244C20.877,9.493,19.999,9,19,9c-0.047,0-0.091,0.012-0.137,0.014C18.422,7.284,16.867,6,15,6c-2.209,0-4,1.791-4,4c0,0.423,0.083,0.823,0.205,1.205C10.823,11.083,10.423,11,10,11c-1.602,0-2.984,0.942-3.623,2.301"/><circle style="fill:none;stroke:#000000;stroke-width:2;stroke-linecap:round;stroke-linejoin:round;stroke-miterlimit:10;" cx="5" cy="16" r="3"/><circle style="fill:none;stroke:#000000;stroke-width:2;stroke-linecap:round;stroke-linejoin:round;stroke-miterlimit:10;" cx="41" cy="5" r="3"/><circle style="fill:none;stroke:#000000;stroke-width:2;stroke-linecap:round;stroke-linejoin:round;stroke-miterlimit:10;" cx="26" cy="3" r="2"/><path d="M43.179,22.008l-0.396-0.004c-0.335-0.005-0.683-0.008-0.857,0.007c-0.427,0.032-0.862,0.243-1.245,0.495l-1.745-4.363C38.171,16.233,36.349,15,34.292,15H15.708c-2.057,0-3.879,1.233-4.643,3.144L9.347,22.44C8.908,22.163,8.459,22.008,8,22.008H6.821c-1.944,0-2.685,2.04-2.815,3.245c-0.047,0.434,0.191,0.847,0.59,1.022l1.929,0.854C5.539,28.364,5,29.882,5,31.485V46c0,1.103,0.897,2,2,2h5c1.103,0,2-0.897,2-2v-1.492C17.228,44.834,20.922,45,25,45s7.772-0.166,11-0.492V46c0,1.103,0.897,2,2,2h5c1.103,0,2-0.897,2-2V31.485c0-1.611-0.543-3.138-1.54-4.377l1.933-0.828c0.404-0.173,0.648-0.59,0.601-1.027C45.863,24.048,45.123,22.008,43.179,22.008z M11,35H7v-3.836L13,33C13,34.104,12.104,35,11,35z M31,38c0,0-2.257,1-6,1s-6-1-6-1l-2-4h16L31,38z M43,35h-4c-1.104,0-2-0.896-2-2l6-1.836V35z"/></svg>