<?xml version="1.0" encoding="iso-8859-1"?><!-- Generator: Adobe Illustrator 22.1.0, SVG Export Plug-In . SVG Version: 6.00 Build 0)  --><svg xmlns="http://www.w3.org/2000/svg" xmlns:xlink="http://www.w3.org/1999/xlink" viewBox="0 0 50 50" width="50px" height="50px"><g></g><g></g><circle cx="27" cy="37" r="3"/><polyline style="fill:none;stroke:#000000;stroke-width:2;" points="19.149,45 34,45 34,12 13,5 13,29.5 "/><line style="fill:none;stroke:#000000;stroke-width:2;" x1="27" y1="45" x2="27" y2="39"/><circle style="fill:none;stroke:#000000;stroke-width:2;" cx="27" cy="37" r="3"/><path d="M34,15v31h12V15H34z M42,24v3h-5v-3H42z M37,22v-3h5v3H37z M42,29v3h-5v-3H42z M42,34v3h-5v-3H42z M42,39v3h-5v-3H42z"/><path d="M4,28v18h17V28H4z M11,36v2H8v-2H11z M8,34v-2h3v2H8z M11,40v2H8v-2H11z M17,36v2h-3v-2H17z M14,34v-2h3v2H14z M17,40v2h-3v-2H17z"/><line style="fill:none;stroke:#000000;stroke-width:2;" x1="16" y1="17" x2="31" y2="17"/><line style="fill:none;stroke:#000000;stroke-width:2;" x1="26" y1="21" x2="31" y2="21"/><line style="fill:none;stroke:#000000;stroke-width:2;" x1="16" y1="21" x2="24" y2="21"/><line style="fill:none;stroke:#000000;stroke-width:2;" x1="16" y1="13" x2="22" y2="13"/><line style="fill:none;stroke:#000000;stroke-width:2;" x1="16" y1="25" x2="31" y2="25"/><line style="fill:none;stroke:#000000;stroke-width:2;" x1="23" y1="29" x2="31" y2="29"/><line style="fill:none;stroke:#000000;stroke-width:2;" x1="27" y1="4" x2="27" y2="10"/><line style="fill:none;stroke:#000000;stroke-width:2;" x1="31" y1="4" x2="31" y2="11"/><line style="fill:none;stroke:#000000;stroke-width:2;" x1="8" y1="23" x2="8" y2="29"/></svg>