<?xml version="1.0" encoding="iso-8859-1"?><!-- Generator: Adobe Illustrator 21.1.0, SVG Export Plug-In . SVG Version: 6.00 Build 0)  --><svg xmlns="http://www.w3.org/2000/svg" xmlns:xlink="http://www.w3.org/1999/xlink" viewBox="0 0 50 50" width="50px" height="50px"><path d="M16,32h-6v-4h6V32z M16,24h-6v-4h6V24z M16,16h-6v-4h6V16z M28,32h-6v-4h6V32z M28,24h-6v-4h6V24z M28,16h-6v-4h6V16z M40,40h-6v-4h6V40z M40,32h-6v-4h6V32z M40,24h-6v-4h6V24z M40,16h-6v-4h6V16z M40.7,7H9.3C6.33,7,4,9.33,4,12.3V45c0,0.55,0.45,1,1,1h17V36h6v10h17c0.55,0,1-0.45,1-1V12.3C46,9.33,43.67,7,40.7,7z M16,40h-6v-4h6V40z"/><polygon points="16.837,0 17.959,2.333 20.51,2.638 18.571,4.362 19.082,7 16.837,5.681 14.592,7 15.102,4.362 13.163,2.638 15.714,2.333 "/><polygon points="25,0 26.122,2.333 28.673,2.638 26.735,4.362 27.245,7 25,5.681 22.755,7 23.265,4.362 21.327,2.638 23.878,2.333 "/><polygon points="33.163,0 34.286,2.333 36.837,2.638 34.898,4.362 35.408,7 33.163,5.681 30.918,7 31.429,4.362 29.49,2.638 32.041,2.333 "/><polygon points="41.327,0 42.449,2.333 45,2.638 43.061,4.362 43.571,7 41.327,5.681 39.082,7 39.592,4.362 37.653,2.638 40.204,2.333 "/><polygon points="8.673,0 9.796,2.333 12.347,2.638 10.408,4.362 10.918,7 8.673,5.681 6.429,7 6.939,4.362 5,2.638 7.551,2.333 "/></svg>