<?xml version="1.0" encoding="iso-8859-1"?><!-- Generator: Adobe Illustrator 21.1.0, SVG Export Plug-In . SVG Version: 6.00 Build 0)  --><svg xmlns="http://www.w3.org/2000/svg" xmlns:xlink="http://www.w3.org/1999/xlink" viewBox="0 0 50 50" width="50px" height="50px"><path d="M26,7V3H10v4H7v40h9v-8h4v8h9V7H26z M13,43h-2v-4h2V43z M13,37h-2v-4h2V37z M13,31h-2v-4h2V31z M13,25h-2v-4h2V25z M13,19h-2v-4h2V19z M13,13h-2v-2h2V13z M17,37h-2v-4h2V37z M17,31h-2v-4h2V31z M17,25h-2v-4h2V25z M17,19h-2v-4h2V19z M17,13h-2v-2h2V13z M21,37h-2v-4h2V37z M21,31h-2v-4h2V31z M21,25h-2v-4h2V25z M21,19h-2v-4h2V19z M21,13h-2v-2h2V13z M25,43h-2v-4h2V43z M25,37h-2v-4h2V37z M25,31h-2v-4h2V31z M25,25h-2v-4h2V25z M25,19h-2v-4h2V19z M25,13h-2v-2h2V13z"/><path d="M31,14v4h2v2h-2v2h2v2h-2v2h2v2h-2v2l14-2V14H31z M37,28h-2v-2h2V28z M37,24h-2v-2h2V24z M37,20h-2v-2h2V20z M41,28h-2v-2h2V28z M41,24h-2v-2h2V24z M41,20h-2v-2h2V20z"/><path style="fill:none;stroke:#000000;stroke-width:2;stroke-linecap:round;stroke-linejoin:round;stroke-miterlimit:10;" d="M28,37c0-4.5,6.375-11.5,21-8c-3.5,4.5-0.283,10.67-5,15c-4.337,3.981-10.117,1.149-11-1C33,43,28,43,28,37z"/><path style="fill:none;stroke:#000000;stroke-width:2;stroke-linecap:round;stroke-linejoin:round;stroke-miterlimit:10;" d="M32,49c0-7,6.119-14.562,11-17"/></svg>