<?xml version="1.0" encoding="iso-8859-1"?>
<!-- Generator: Adobe Illustrator 22.1.0, SVG Export Plug-In . SVG Version: 6.00 Build 0)  -->
<svg version="1.1" id="Layer_1" xmlns="http://www.w3.org/2000/svg" xmlns:xlink="http://www.w3.org/1999/xlink" x="0px" y="0px"
	 viewBox="0 0 50 50" style="enable-background:new 0 0 50 50;" xml:space="preserve">
<path d="M30.007,23.921c-1.686,0-2.781,1.385-2.781,3.576c0,2.182,1.073,3.582,2.781,3.582c1.693,0,2.774-1.399,2.774-3.582
	C32.781,25.307,31.7,23.921,30.007,23.921z"/>
<path d="M42.128,22.257c0.01-0.192,0.015-0.378,0.015-0.561c0-7.251-5.899-13.149-13.15-13.149c-5.009,0-9.583,2.896-11.78,7.331
	c-1.134-0.751-2.464-1.154-3.857-1.154c-3.703,0-6.745,2.887-6.993,6.528C2.581,22.628,0,26.258,0,30.331C0,35.662,4.338,40,9.67,40
	h31.428C46.006,40,50,36.007,50,31.099C50,26.539,46.553,22.769,42.128,22.257z M19.062,33C15.937,33,14,30.905,14,27.497
	C14,24.095,15.93,22,19.062,22c2.557,0,4.516,1.646,4.681,3.923h-2.198c-0.217-1.203-1.196-1.994-2.482-1.994
	c-1.697,0-2.752,1.364-2.752,3.569c0,2.204,1.055,3.575,2.759,3.575c1.293,0,2.265-0.74,2.482-1.892h2.198
	C23.563,31.442,21.664,33,19.062,33z M30.007,33C26.923,33,25,30.89,25,27.497C25,24.102,26.952,22,30.007,22
	C33.076,22,35,24.11,35,27.497C35,30.89,33.083,33,30.007,33z M41,35h-4.873v-1.267l1.857-1.602c0.952-0.798,1.18-1.079,1.18-1.461
	c0-0.389-0.308-0.657-0.744-0.657c-0.463,0-0.777,0.295-0.777,0.73v0.041H36V30.75c0-1.293,0.992-2.145,2.5-2.145
	c1.461,0,2.399,0.744,2.399,1.897c0,0.791-0.429,1.435-1.602,2.299l-0.764,0.65v0.121H41V35z"/>
</svg>