<?xml version="1.0" encoding="iso-8859-1"?><!-- Generator: Adobe Illustrator 21.1.0, SVG Export Plug-In . SVG Version: 6.00 Build 0)  --><svg xmlns="http://www.w3.org/2000/svg" xmlns:xlink="http://www.w3.org/1999/xlink" viewBox="0 0 50 50" width="50px" height="50px"><rect x="33.803" y="6.539" transform="matrix(0.7071 -0.7071 0.7071 0.7071 2.3885 30.2787)" width="7.882" height="11.435"/><rect x="8.315" y="32.026" transform="matrix(0.7071 -0.7071 0.7071 0.7071 -23.0992 19.7213)" width="7.882" height="11.435"/><path d="M29.898,31.312C28.542,32.366,26.846,33,25,33c-4.411,0-8-3.589-8-8c0-1.846,0.634-3.542,1.688-4.898l-4.279-4.279L0.293,29.94C0.105,30.128,0,30.382,0,30.647s0.105,0.52,0.293,0.707l3.719,3.719l6.281-6.281c0.391-0.391,1.023-0.391,1.414,0l9.5,9.5c0.391,0.391,0.391,1.023,0,1.414l-6.281,6.281l3.72,3.719C18.841,49.902,19.097,50,19.353,50s0.512-0.098,0.707-0.293L34.176,35.59L29.898,31.312z"/><path d="M45.988,14.926l-6.281,6.281C39.512,21.402,39.256,21.5,39,21.5s-0.512-0.098-0.707-0.293l-9.5-9.5c-0.391-0.391-0.391-1.023,0-1.414l6.281-6.281l-3.72-3.719c-0.391-0.391-1.023-0.391-1.414,0L15.824,14.41l4.279,4.279C21.458,17.634,23.154,17,25,17c4.411,0,8,3.589,8,8c0,1.846-0.634,3.542-1.688,4.898l4.279,4.279L49.707,20.06C49.895,19.872,50,19.618,50,19.353s-0.105-0.52-0.293-0.707L45.988,14.926z"/><path d="M31,25c0-3.309-2.691-6-6-6c-1.294,0-2.49,0.416-3.471,1.115l8.356,8.356C30.584,27.49,31,26.294,31,25z"/><path d="M19,25c0,3.309,2.691,6,6,6c1.294,0,2.49-0.416,3.471-1.115l-8.356-8.356C19.416,22.51,19,23.706,19,25z"/></svg>