<svg xmlns="http://www.w3.org/2000/svg"  viewBox="0 0 50 50" width="50px" height="50px"><path d="M 25 0.09375 L 24.46875 0.40625 L 21.46875 2.25 L 21 2.53125 L 21 7 L 11 7 L 11 14 L 9 14 L 9 19 L 41 19 L 41 14 L 39 14 L 39 7 L 29 7 L 29 2.53125 L 28.53125 2.25 L 25.53125 0.40625 Z M 25 2.4375 L 27 3.6875 L 27 7 L 26.40625 7 L 24 4.59375 L 24 7 L 23 7 L 23 3.6875 Z M 21 21 L 21 44 L 16 44 C 14.347656 44 13 45.347656 13 47 L 13 50 L 37 50 L 37 47 C 37 45.347656 35.652344 44 34 44 L 29 44 L 29 21 L 27 21 L 27 24.5625 L 24 21.59375 L 24 24.40625 L 26.59375 27 L 24 29.59375 L 24 32.40625 L 27 29.4375 L 27 36.5625 L 24 33.59375 L 24 36.40625 L 26.59375 39 L 24 41.59375 L 24 44 L 23 44 L 23 21 Z M 27 41.4375 L 27 44 L 24.40625 44 Z"/></svg>