<?xml version="1.0" encoding="utf-8"?><!-- Generator: Adobe Illustrator 15.0.0, SVG Export Plug-In . SVG Version: 6.00 Build 0)  --><!DOCTYPE svg PUBLIC "-//W3C//DTD SVG 1.1//EN" "http://www.w3.org/Graphics/SVG/1.1/DTD/svg11.dtd"><svg xmlns="http://www.w3.org/2000/svg" xmlns:xlink="http://www.w3.org/1999/xlink" viewBox="0 0 50 50" width="50px" height="50px"><line fill="none" stroke="#000000" stroke-width="2" stroke-linecap="round" stroke-linejoin="round" stroke-miterlimit="10" x1="1" y1="1" x2="49" y2="49"/><g><path d="M24.9,31.5c0.6,0,1.2-0.1,1.8-0.3l-8-8c-0.2,0.6-0.3,1.2-0.3,1.8C18.4,28.6,21.3,31.5,24.9,31.5z"/><path d="M25,36c1.873,0,3.646-0.49,5.134-1.366L28.3,32.8c-1,0.5-2.1,0.7-3.3,0.7c-4.7,0-8.5-3.8-8.6-8.6c0-1.1,0.3-2.3,0.7-3.3l-1.8-1.8C14.5,21.3,14,23.1,14,25C14,31.1,18.9,36,25,36z"/><path d="M31.636,36.136C29.65,37.313,27.375,38,25,38c-7.2,0-13-5.8-13.1-13c0-2.5,0.7-4.7,1.9-6.7l-10-10C1.6,9.1,0,11.2,0,13.7v22.6C0,39.4,2.6,42,5.7,42h31.8L31.636,36.136z"/></g><g><path d="M31.5,25c0-3.6-2.9-6.5-6.5-6.5c-2.1,0-3.9,0.9-5.1,2.4l9.2,9.2C30.5,28.9,31.5,27.1,31.5,25z"/><path d="M25,13.9c-3.3,0-6.3,1.5-8.3,3.8l1.8,1.8c1.6-1.8,3.9-3,6.5-3c4.7,0,8.5,3.8,8.5,8.5c0,2.6-1.2,4.9-3,6.5l1.7,1.7c2.3-2.101,3.8-5,3.8-8.3C36,18.8,31.1,13.9,25,13.9z"/><path d="M44.3,8h-7.7L35,5.4C34.1,3.9,32.5,3,30.7,3H19.3c-1.7,0-3.4,0.9-4.3,2.4L13.4,8H7l8.3,8.3c2.4-2.6,5.9-4.3,9.7-4.3c7.2,0,13,5.8,13,13c0,3.8-1.7,7.3-4.4,9.6L41,42h3.3c3.101,0,5.7-2.6,5.7-5.7V13.7C50,10.6,47.4,8,44.3,8z"/></g></svg>