<?xml version="1.0" encoding="iso-8859-1"?>
<!-- Generator: Adobe Illustrator 23.0.6, SVG Export Plug-In . SVG Version: 6.00 Build 0)  -->
<svg version="1.1" id="&#x421;&#x43B;&#x43E;&#x439;_1"
	 xmlns="http://www.w3.org/2000/svg" xmlns:xlink="http://www.w3.org/1999/xlink" x="0px" y="0px" viewBox="0 0 50 50"
	 style="enable-background:new 0 0 50 50;" xml:space="preserve">
<rect x="9" y="26" width="12" height="5"/>
<path d="M11,43L11,43c-1.1,0-2-0.9-2-2v-8h4v8C13,42.1,12.1,43,11,43z M19,43L19,43c-1.1,0-2-0.9-2-2v-8h4v8C21,42.1,20.1,43,19,43z
	"/>
<path d="M34,43L34,43c-1.105,0-2-0.895-2-2v-8h4v8C36,42.105,35.105,43,34,43z"/>
<path d="M40,43L40,43c-1.105,0-2-0.895-2-2v-8h4v8C42,42.105,41.105,43,40,43z"/>
<path d="M26.88,28c-1.05,0.32-2.17-0.27-2.49-1.33L21,18v6H9v-6l-3.5,8.67C5.17,27.73,4.06,28.32,3,28s-1.65-1.44-1.33-2.5
	l2.53-8.258C4.973,14.721,7.3,13,9.937,13h10.006c2.637,0,4.964,1.721,5.737,4.242l2.53,8.258C28.53,26.56,27.94,27.68,26.88,28z"/>
<circle cx="14.94" cy="6" r="5"/>
<circle cx="37.94" cy="6" r="5"/>
<path d="M32.15,9.94L32,11h-4c0-1.32,0.67-5.17,3.11-6.52C31,4.97,30.94,5.48,30.94,6C30.94,7.46,31.39,8.82,32.15,9.94z"/>
<path d="M48,11h-4l-0.17-1.22c0.7-1.09,1.11-2.39,1.11-3.78c0-0.55-0.06-1.08-0.19-1.59C47.3,5.68,48,9.66,48,11z"/>
<path d="M47.88,28c-0.72,0.22-1.48,0.01-1.99-0.49l-2.94-8.83C42.81,18.26,42.42,18,42,18c-0.11,0-0.22,0.02-0.32,0.05
	c-0.52,0.18-0.8,0.74-0.63,1.27l3.166,10.388C44.412,30.351,43.931,31,43.26,31H30.74c-0.672,0-1.152-0.649-0.957-1.292L32.95,19.32
	c0.17-0.53-0.11-1.09-0.63-1.27C32.22,18.02,32.11,18,32,18c-0.42,0-0.81,0.26-0.95,0.68l-2.87,8.6C27.7,27.94,26.83,28.25,26,28
	c-1.06-0.32-1.65-1.44-1.33-2.5l2.53-8.26c0.77-2.52,3.1-4.24,5.74-4.24h8c2.64,0,4.97,1.72,5.74,4.24l2.53,8.26
	C49.53,26.56,48.94,27.68,47.88,28z"/>
<path d="M25,50c-1.02,0-2.04-0.02-3.02-0.07c-0.26-0.01-0.51-0.12-0.69-0.32s-0.27-0.45-0.26-0.72c0.02-0.55,0.47-0.98,1.04-0.95
	C23.05,47.98,24.04,48,25,48c0.39,0,0.71,0,1.01-0.01c0.01,0,0.01,0,0.02,0l0,0c0.54,0,0.99,0.45,1,0.99c0,0.01,0,0.02,0,0.03
	c-0.01,0.53-0.44,0.97-0.97,0.98c-0.03,0.01-0.05,0-0.08,0C25.66,50,25.33,50,25,50z M32.02,49.63c-0.52,0-0.94-0.38-1-0.89
	c-0.03-0.27,0.05-0.53,0.22-0.74s0.4-0.33,0.67-0.36c1.35-0.15,2.65-0.34,3.89-0.56c0.54-0.1,1.06,0.27,1.16,0.8
	c0.01,0.06,0.01,0.12,0.02,0.18c0,0.48-0.35,0.9-0.83,0.98c-1.26,0.24-2.62,0.43-4.03,0.58C32.09,49.63,32.05,49.63,32.02,49.63z
	 M16.05,49.39c-0.05,0-0.09,0-0.14-0.01c-1.41-0.2-2.76-0.45-4.01-0.73c-0.54-0.12-0.88-0.66-0.76-1.2c0.12-0.52,0.67-0.87,1.2-0.75
	c1.21,0.27,2.51,0.51,3.85,0.7c0.01,0,0.01,0,0.01,0c0.49,0.07,0.85,0.48,0.85,0.98c0,0.05,0,0.1-0.01,0.15
	C16.97,49.02,16.55,49.39,16.05,49.39z M41.79,47.58c-0.43,0-0.81-0.27-0.95-0.68c-0.18-0.52,0.1-1.09,0.62-1.27
	c1.33-0.46,2.5-0.98,3.47-1.53c0-0.01,0.01-0.01,0.01-0.01c0.46-0.27,1.1-0.09,1.37,0.37c0.08,0.15,0.13,0.32,0.13,0.5
	c0,0.35-0.19,0.69-0.5,0.86c-1.09,0.63-2.37,1.2-3.83,1.7C42.01,47.56,41.9,47.58,41.79,47.58z M6.4,46.87
	c-0.14,0-0.27-0.03-0.4-0.08c-1.49-0.65-2.73-1.37-3.68-2.15c-0.21-0.17-0.33-0.41-0.36-0.68c-0.03-0.26,0.05-0.52,0.22-0.73
	c0.34-0.41,1-0.48,1.41-0.14c0.81,0.66,1.89,1.29,3.21,1.87c0.37,0.15,0.6,0.52,0.6,0.92c0,0.14-0.03,0.27-0.08,0.39
	C7.16,46.64,6.8,46.87,6.4,46.87z M1,41.5c-0.55,0-1-0.45-1-1c0-1.46,0.79-2.88,2.29-4.11c0.41-0.34,1.07-0.28,1.41,0.13
	c0.35,0.42,0.29,1.06-0.14,1.41C2.52,38.79,2,39.66,2,40.5C2,41.05,1.55,41.5,1,41.5z M49.01,41.48L49.01,41.48H49
	c-0.55,0-1-0.44-1-0.99c0-0.84-0.53-1.71-1.58-2.57c-0.23-0.19-0.36-0.47-0.36-0.77c0-0.24,0.08-0.46,0.23-0.64
	c0.34-0.41,1-0.47,1.41-0.14c1.49,1.23,2.29,2.65,2.3,4.11c0,0.26-0.1,0.52-0.29,0.71S49.27,41.48,49.01,41.48z"/>
</svg>