<?xml version="1.0" encoding="iso-8859-1"?><!-- Generator: Adobe Illustrator 21.0.0, SVG Export Plug-In . SVG Version: 6.00 Build 0)  --><svg xmlns="http://www.w3.org/2000/svg" xmlns:xlink="http://www.w3.org/1999/xlink" viewBox="0 0 50 50" width="50px" height="50px"><line style="fill:none;stroke:#000000;stroke-width:2;stroke-linecap:round;stroke-linejoin:round;stroke-miterlimit:10;" x1="3" y1="44" x2="29" y2="44"/><path style="fill:none;stroke:#000000;stroke-width:2;stroke-linejoin:round;stroke-miterlimit:10;" d="M16,8c0-0.552-0.448-1-1-1h-2c-0.552,0-1,0.448-1,1v2c0,0.552,0.448,1,1,1h2c0.552,0,1-0.448,1-1V8z"/><path style="fill:none;stroke:#000000;stroke-width:2;stroke-linejoin:round;stroke-miterlimit:10;" d="M26,4c0-0.552-0.448-1-1-1h-2c-0.552,0-1,0.448-1,1v2c0,0.552,0.448,1,1,1h2c0.552,0,1-0.448,1-1V4z"/><path style="fill:none;stroke:#000000;stroke-width:2;stroke-linejoin:round;stroke-miterlimit:10;" d="M36,8c0-0.552-0.448-1-1-1h-2c-0.552,0-1,0.448-1,1v2c0,0.552,0.448,1,1,1h2c0.552,0,1-0.448,1-1V8z"/><path style="fill:none;stroke:#000000;stroke-width:2;stroke-linejoin:round;stroke-miterlimit:10;" d="M11,18c0-0.552-0.448-1-1-1H8c-0.552,0-1,0.448-1,1v2c0,0.552,0.448,1,1,1h2c0.552,0,1-0.448,1-1V18z"/><path style="fill:none;stroke:#000000;stroke-width:2;stroke-linejoin:round;stroke-miterlimit:10;" d="M15,28c0-0.552-0.448-1-1-1h-2c-0.552,0-1,0.448-1,1v2c0,0.552,0.448,1,1,1h2c0.552,0,1-0.448,1-1V28z"/><path style="fill:none;stroke:#000000;stroke-width:2;stroke-linecap:round;stroke-linejoin:round;stroke-miterlimit:10;" d="M3,26c19.567,31.602,31.863-15.011,44-15"/><line style="fill:none;stroke:#000000;stroke-width:2;stroke-linecap:round;stroke-linejoin:round;stroke-miterlimit:10;" x1="4" y1="28" x2="4" y2="44"/><line style="fill:none;stroke:#000000;stroke-width:2;stroke-linecap:round;stroke-linejoin:round;stroke-miterlimit:10;" x1="25" y1="34" x2="25" y2="44"/><line style="fill:none;stroke:#000000;stroke-width:2;stroke-linecap:round;stroke-linejoin:round;stroke-miterlimit:10;" x1="18" y1="37" x2="18" y2="44"/><line style="fill:none;stroke:#000000;stroke-width:2;stroke-linecap:round;stroke-linejoin:round;stroke-miterlimit:10;" x1="11" y1="36" x2="11" y2="44"/><line style="fill:none;stroke:#000000;stroke-width:2;stroke-linecap:round;stroke-linejoin:round;stroke-miterlimit:10;" x1="46" y1="12" x2="46" y2="43.5"/><path d="M42.569,38.178l-6.5-4.5c-0.342-0.236-0.797-0.236-1.139,0l-6.5,4.5C28.161,38.364,28,38.672,28,39v7c0,0.553,0.447,1,1,1h5l1.5-6l1.5,6h5c0.553,0,1-0.447,1-1v-7C43,38.672,42.839,38.364,42.569,38.178z"/><circle style="fill:none;stroke:#000000;stroke-width:2;stroke-linecap:round;stroke-linejoin:round;stroke-miterlimit:10;" cx="24" cy="19" r="3"/><path d="M17.791,32.656c-1.485-0.677-2.825-1.58-3.984-2.658C13.382,30,12.435,30.029,12,30"/><path d="M24,2C14.626,2,7,9.626,7,19c0,6.171,3.377,11.846,8.706,14.834c0.772-0.177,1.555-0.509,2.346-0.989c-0.077-0.073-0.159-0.143-0.261-0.189c-1.485-0.677-2.825-1.58-3.984-2.658C13.382,30,12.258,30.279,12,30c-0.351-0.38-0.006-1.153,0.009-2c-1.719-2.293-2.779-5.064-2.976-8v0H8v-2h1.033c0.233-3.531,1.703-6.724,3.967-9.171V8h0.819c2.447-2.266,5.65-3.717,9.181-3.952V4h2v0.034C28.457,4.265,31.691,5.69,34.186,8H35v0.821c0.772,0.834,1.46,1.757,2.037,2.768c0.517-0.457,1.039-0.886,1.569-1.268C35.542,5.178,29.998,2,24,2z"/><line style="fill:none;stroke:#000000;stroke-width:2;stroke-linecap:round;stroke-linejoin:round;stroke-miterlimit:10;" x1="42" y1="44" x2="47" y2="44"/><rect x="12" y="28" style="fill:none;stroke:#000000;stroke-width:2;stroke-linecap:round;stroke-linejoin:round;stroke-miterlimit:10;" width="2" height="2"/><rect x="8" y="18" width="2" height="2"/><rect x="13" y="8" width="2" height="2"/><rect x="23" y="4" width="2" height="2"/><rect x="33" y="8" width="2" height="2"/><circle cx="24" cy="19" r="2"/><path d="M40,34.318V16.313c0-0.501-0.447-0.907-1-0.907s-1,0.406-1,0.907l0.002,16.685C38.002,32.998,39.328,33.88,40,34.318z"/><path d="M33,33v-7.167C33,25.373,32.553,25,32,25s-1,0.373-1,0.833v8.531C31,34.375,33,33,33,33z"/></svg>