<?xml version="1.0" encoding="utf-8"?><!-- Generator: Adobe Illustrator 19.1.1, SVG Export Plug-In . SVG Version: 6.00 Build 0)  --><svg xmlns="http://www.w3.org/2000/svg" xmlns:xlink="http://www.w3.org/1999/xlink" viewBox="0 0 50 50" width="50px" height="50px"><g><g><path d="M48,48h-5V7H7v41H2V6c0-2.2,1.8-4,4-4h38c2.2,0,4,1.8,4,4V48z"/></g></g><path d="M25,43c-6.1,0-10.4-3.1-10.6-3.2C14.2,39.6,14,39.3,14,39v-4c0-0.4,0.2-0.7,0.5-0.9c0.3-0.2,0.7-0.2,1,0c0,0,4.8,2.9,9.5,2.9c4.7,0,9.4-2.8,9.5-2.9c0.3-0.2,0.7-0.2,1,0c0.3,0.2,0.5,0.5,0.5,0.9v4c0,0.3-0.2,0.6-0.4,0.8C35.4,39.9,31.1,43,25,43z"/><g><path d="M15,32c0.3,0,0.7,0.1,1,0.2V11h-2v21.2C14.3,32.1,14.7,32,15,32z"/></g><g><path d="M35,32L35,32c0.3,0,0.7,0.1,1,0.2V11h-2v21.2C34.3,32.1,34.7,32,35,32z"/></g><path d="M37,7c0,1.1-0.9,2-2,2s-2-0.9-2-2H37z"/><path d="M17,7c0,1.1-0.9,2-2,2s-2-0.9-2-2H17z"/><line fill="none" stroke="#000000" stroke-width="2" stroke-linecap="round" stroke-linejoin="round" stroke-miterlimit="10" x1="43" y1="47" x2="48" y2="47"/><line fill="none" stroke="#000000" stroke-width="2" stroke-linecap="round" stroke-linejoin="round" stroke-miterlimit="10" x1="2" y1="47" x2="7" y2="47"/></svg>