<?xml version="1.0" encoding="iso-8859-1"?><!-- Generator: Adobe Illustrator 21.1.0, SVG Export Plug-In . SVG Version: 6.00 Build 0)  --><svg xmlns="http://www.w3.org/2000/svg" xmlns:xlink="http://www.w3.org/1999/xlink" viewBox="0 0 50 50" width="50px" height="50px"><g><g><g><g></g></g></g></g><path d="M25.882,33H23v2h2.882C26.354,35,27,35,27,34S26.354,33,25.882,33z"/><rect x="2" y="26" width="5" height="2"/><rect x="43" y="26" width="5" height="2"/><path d="M7,28v18c0,0.553,0.447,1,1,1h34c0.553,0,1-0.447,1-1V28H7z M25.882,37H23v5h-2v-5v-6h2h2.882C28.863,31,29,33.529,29,34S28.863,37,25.882,37z"/><path d="M45.242,8.03l-20-5c-0.158-0.041-0.326-0.041-0.484,0l-20,5C4.222,8.164,3.896,8.707,4.03,9.242c0.133,0.536,0.678,0.863,1.212,0.728L7,9.53V26h36V9.53l1.758,0.439C44.839,9.99,44.921,10,45.001,10c0.448,0,0.855-0.303,0.969-0.758C46.104,8.707,45.778,8.164,45.242,8.03z M28.661,19.235c-0.142,0.499-0.371,0.952-0.684,1.361c-0.313,0.409-0.713,0.745-1.202,1.008C26.286,21.868,25.703,22,25.024,22c-0.542,0-1.043-0.076-1.504-0.227c-0.462-0.151-0.867-0.378-1.217-0.681c-0.35-0.302-0.629-0.675-0.836-1.118c-0.207-0.443-0.321-0.961-0.342-1.555h1.815c0.054,0.639,0.26,1.129,0.621,1.471c0.361,0.342,0.838,0.513,1.433,0.513c0.382,0,0.705-0.067,0.971-0.202c0.265-0.134,0.481-0.319,0.644-0.555c0.164-0.235,0.281-0.51,0.35-0.824c0.068-0.314,0.104-0.65,0.104-1.008c0-0.325-0.043-0.636-0.129-0.933c-0.085-0.297-0.212-0.557-0.382-0.781c-0.17-0.224-0.39-0.403-0.66-0.538c-0.271-0.134-0.587-0.202-0.947-0.202c-0.382,0-0.74,0.076-1.074,0.227c-0.335,0.151-0.576,0.434-0.725,0.849h-1.814L22.525,10h5.761v1.714h-4.409l-0.572,2.992l0.031,0.034c0.244-0.291,0.555-0.513,0.931-0.664s0.751-0.227,1.122-0.227c0.552,0,1.045,0.098,1.481,0.294c0.435,0.196,0.801,0.471,1.098,0.824c0.297,0.353,0.522,0.77,0.677,1.252c0.153,0.482,0.23,1.003,0.23,1.563C28.875,18.252,28.804,18.737,28.661,19.235z"/></svg>