<?xml version="1.0" encoding="iso-8859-1"?><!-- Generator: Adobe Illustrator 19.1.1, SVG Export Plug-In . SVG Version: 6.00 Build 0)  --><svg xmlns="http://www.w3.org/2000/svg" xmlns:xlink="http://www.w3.org/1999/xlink" viewBox="0 0 50 50" width="50px" height="50px"><circle fill="none" stroke="#000000" stroke-width="2" stroke-miterlimit="10" cx="39" cy="46" r="3"/><circle fill="none" stroke="#000000" stroke-width="2" stroke-miterlimit="10" cx="26" cy="46" r="3"/><circle cx="2" cy="4" r="2"/><path fill="none" stroke="#000000" stroke-width="2" stroke-linecap="round" stroke-linejoin="round" stroke-miterlimit="10" d="M41,43c0,0-12.668,0-15.291,0c-3.42,0-3.922-1.744-4.524-4.025L13.191,6.696C12.472,4.273,11.459,3,8.664,3C8.664,3,3.91,3,2,3"/><path d="M47.823,15.432C47.636,15.161,47.328,15,47,15H16c-0.307,0-0.597,0.141-0.786,0.382s-0.258,0.556-0.186,0.854l4.609,19C19.746,35.685,20.147,36,20.609,36h19.2c0.416,0,0.788-0.257,0.936-0.646l7.191-19C48.052,16.047,48.01,15.702,47.823,15.432z M36,26h-4v4c0,0.553-0.447,1-1,1s-1-0.447-1-1v-4h-4c-0.552,0-1-0.448-1-1s0.448-1,1-1h4v-4c0-0.552,0.447-1,1-1s1,0.448,1,1v4h4c0.553,0,1,0.448,1,1S36.553,26,36,26z"/></svg>