<?xml version="1.0" encoding="iso-8859-1"?>
<!-- Generator: Adobe Illustrator 25.2.3, SVG Export Plug-In . SVG Version: 6.00 Build 0)  -->
<svg version="1.1" id="Layer_1" xmlns="http://www.w3.org/2000/svg" xmlns:xlink="http://www.w3.org/1999/xlink" x="0px" y="0px"
	 viewBox="0 0 50 50" style="enable-background:new 0 0 50 50;" xml:space="preserve">
<path d="M42.049,37.337c-0.59-0.414-7.09-4.736-7.896-5.23c-0.81-0.496-1.991-0.423-3.159,0.195
	c-0.621,0.327-2.496,1.393-3.432,1.927c-0.83-0.588-2.759-2.072-5.741-5.055c-2.983-2.982-4.466-4.912-5.052-5.74
	c0.533-0.935,1.6-2.81,1.926-3.431c0.626-1.188,0.695-2.375,0.186-3.176c-0.472-0.744-4.777-7.273-5.227-7.894
	c-0.703-0.976-2.41-1.365-3.943-0.295c-0.058,0.04-5.786,4.158-5.71,6.567c0.215,6.633,6.649,14.417,12.01,19.779
	C21.372,40.348,29.155,46.784,35.813,47c0.015,0,0.03,0,0.045,0c2.358,0,6.455-5.656,6.493-5.712c0.477-0.678,0.703-1.46,0.638-2.2
	S42.581,37.71,42.049,37.337z"/>
<g>
	<path d="M25.061,16c1.734,0,2.988,1.059,2.988,2.525c0,0.943-0.481,1.722-1.972,3.195l-1.838,1.844v0.103h3.943V25h-6.097v-1.089
		l2.927-2.994c1.199-1.217,1.497-1.673,1.497-2.294c0-0.773-0.633-1.333-1.497-1.333c-0.919,0-1.54,0.602-1.54,1.497v0.024H22
		v-0.024C22,17.144,23.26,16,25.061,16z"/>
	<path d="M34,23.363h-4.29v-1.4c0.791-1.454,2.026-3.408,3.578-5.744h2.215v5.817h1.187v1.327h-1.187V25H34V23.363z M31.164,22.073
		h2.86v-4.576h-0.085c-0.84,1.241-1.753,2.684-2.775,4.485V22.073z"/>
</g>
<path style="fill:none;stroke:#000000;stroke-width:2;stroke-linecap:round;stroke-linejoin:round;stroke-miterlimit:10;" d="
	M18,6.4C19.29,6.14,20.63,6,22,6c11.05,0,20,8.95,20,20c0,3.86-1.09,7.46-2.98,10.51"/>
</svg>