<?xml version="1.0" encoding="utf-8"?><!-- Generator: Adobe Illustrator 15.0.0, SVG Export Plug-In . SVG Version: 6.00 Build 0)  --><!DOCTYPE svg PUBLIC "-//W3C//DTD SVG 1.1//EN" "http://www.w3.org/Graphics/SVG/1.1/DTD/svg11.dtd"><svg xmlns="http://www.w3.org/2000/svg" xmlns:xlink="http://www.w3.org/1999/xlink" viewBox="0 0 50 50" width="50px" height="50px"><path d="M49,50c-0.256,0-0.512-0.098-0.707-0.293l-48-48c-0.391-0.391-0.391-1.023,0-1.414s1.023-0.391,1.414,0l48,48c0.391,0.391,0.391,1.023,0,1.414C49.512,49.902,49.256,50,49,50z"/><path d="M32,5.5C32,8,34,10,36.5,10S41,8,41,5.5S39,1,36.5,1S32,3,32,5.5z"/><path d="M20.422,25L15.2,32.5c0,0-6.8,0.5-9.2,0.6c-1.9,0.101-3,0.801-3,2C3,36.3,3.9,37,6.6,37.2c2.3,0.2,10,0.7,10,0.7l0,0c0.9,0,1.8-0.5,2.5-1.4l4.509-6.406L20.422,25z"/><path d="M32.266,16.953L34.8,23.2c0.3,0.7,1.101,1.4,1.9,1.5c0,0,5.5-0.1,7-0.2c1.6-0.1,3.399-0.4,3.399-1.5c0.101-1.6-1.399-1.7-2.8-1.8l-5.6-0.5l-3.3-7.5L32.266,16.953z"/><path d="M28.871,25.236l6.081-9.766c0.34-0.544,0.938-2.032,0.093-2.638L31.101,10.2c0,0-0.364-0.309-0.688-0.416c-0.115-0.051-0.224-0.087-0.323-0.107l-7.907-1.702c-0.158-0.035-0.318-0.053-0.479-0.053c-0.461,0-0.923,0.143-1.294,0.369l-6.454,4.965c-0.057,0.055-0.305,0.279-0.357,0.327l2.28,2.281l6.284-3.278c-0.004,0.008,0.058,0.011,0.125,0.013c0,0,4.339,0.965,4.341,0.966c-0.021,0.026-0.041,0.053-0.059,0.079l-0.598,0.893l-4.718,7.088L35.17,36.123c2.08-3.081-0.481-4.584-0.69-4.727s-5.998-4.102-5.998-4.102l-0.619-0.421L28.871,25.236"/><path d="M29.961,45.988 M21.54,29.19c-2.114-1.392-2.555-3.128-1.442-5.222l14.382,13.489l-4.519,8.53C28.723,48.013,27.652,49,26.7,49c-2.7-0.354-0.575-5.021-0.575-5.021l3.766-9.354C29.891,34.625,25.375,31.708,21.54,29.19"/></svg>