<?xml version="1.0" encoding="iso-8859-1"?><!-- Generator: Adobe Illustrator 21.1.0, SVG Export Plug-In . SVG Version: 6.00 Build 0)  --><svg xmlns="http://www.w3.org/2000/svg" xmlns:xlink="http://www.w3.org/1999/xlink" viewBox="0 0 50 50" width="50px" height="50px"><rect x="6.732" y="6.732" transform="matrix(0.7071 -0.7071 0.7071 0.7071 -3.935 9.5)" width="5.535" height="5.535"/><rect x="27.732" y="2.732" transform="matrix(0.7071 -0.7071 0.7071 0.7071 5.0442 23.1777)" width="5.535" height="5.535"/><rect x="34.732" y="38.732" transform="matrix(0.7071 -0.7071 0.7071 0.7071 -18.3614 38.6716)" width="5.535" height="5.535"/><polygon points="5.5,18 3,20.5 5.5,23 7.999,20.5 "/><polygon points="44.5,17 42,19.5 44.5,22 46.999,19.5 "/><path d="M34.103,29.308c-1.042-2.296-2.9-4.844-5.233-7.177c-3.705-3.704-7.87-6.11-10.613-6.131c-0.01,0-0.019,0-0.027,0c-1.229,0-1.961,0.472-2.359,0.869c-0.268,0.268-0.456,0.583-0.597,0.926L15.26,17.79L4.28,45.65l28.773-9.854c0.022-0.008,0.045-0.015,0.067-0.023l0.01-0.003l0-0.001c0.375-0.141,0.712-0.349,1.001-0.638C35.291,33.971,35.281,31.902,34.103,29.308z M17.282,18.284C17.472,18.096,17.789,18,18.226,18c0.006,0,0.012,0,0.017,0c1.779,0.013,5.421,1.754,9.213,5.545c2.167,2.167,3.882,4.508,4.827,6.589c0.762,1.679,0.933,3.085,0.435,3.583c-0.999,0.997-5.461-0.552-10.172-5.262C17.834,23.744,16.282,19.284,17.282,18.284z"/><path d="M45.5,5.001L43.801,5c-0.002,0-0.005,0-0.007,0c-2.194,0-3.823,0.752-4.98,2.299c-0.76,1.016-1.01,2.755-1.095,3.701h-0.583c-2.937,0-4.132,2.057-4.132,5v1.727c-2.29,0.7-5.855,2.169-7.824,5.233l-2.101,3.27c-0.129,0.201-0.098,0.465,0.073,0.63C23.249,26.952,23.374,27,23.5,27c0.099,0,0.198-0.029,0.284-0.089l3.15-2.18c1.633-1.13,5.419-1.955,6.663-2.227c0.259-0.056,0.438-0.096,0.579-0.136c1.68-0.471,4.808-1.759,4.808-4.769c0-0.578-0.257-1.148-0.539-1.601h0.734c2.043,0,3.82-1.094,3.82-3.141v-1.657c0-0.124,0.045-1.207,1.595-1.207L45.5,9.984c0.276,0,0.5-0.224,0.5-0.5V5.501C46,5.225,45.776,5.001,45.5,5.001z"/><path d="M46.97,31.22c0-0.001,0-0.001,0-0.002c0.011-1.322-0.52-2.562-1.532-3.583C43.85,26.034,41.118,25,38.479,25c-5.911,0-8.936,2.933-9.061,3.057l-2.27,2.243c-0.168,0.166-0.196,0.427-0.068,0.626c0.127,0.199,0.381,0.281,0.599,0.196C27.708,31.111,30.686,30,36.5,30c3.064,0,5.5,0.72,5.5,1.75v0.75c0,0.276,0.224,0.5,0.5,0.5h4c0.135,0,0.265-0.055,0.358-0.151c0.095-0.098,0.146-0.229,0.142-0.363C47,32.485,46.968,31.396,46.97,31.22z"/><path d="M19.425,4H18.5C18.224,4,18,4.224,18,4.5v5c0,0.276,0.224,0.5,0.5,0.5h1c2.307,0,2.5,1.936,2.5,3.75c0,2-0.455,4.795-1.317,7.491l-0.035,0.11c-0.067,0.216,0.02,0.451,0.211,0.571C20.94,21.975,21.033,22,21.125,22c0.123,0,0.245-0.045,0.341-0.134C21.511,21.824,26,17.575,26,10.875C26,7.563,23.942,4,19.425,4z"/></svg>