<?xml version="1.0" encoding="iso-8859-1"?><!-- Generator: Adobe Illustrator 21.1.0, SVG Export Plug-In . SVG Version: 6.00 Build 0)  --><svg xmlns="http://www.w3.org/2000/svg" xmlns:xlink="http://www.w3.org/1999/xlink" viewBox="0 0 50 50" width="50px" height="50px"><path d="M3,11.333V47h4v-2h1v2h1v-2h1v2h1v-2h1v2h1V7.167L3,11.333z M8,44H7v-2h1V44z M8,41H7v-2h1V41z M8,38H7v-2h1V38z M8,35H7v-2h1V35z M8,32H7v-2h1V32z M8,29H7v-2h1V29z M8,26H7v-2h1V26z M8,23H7v-2h1V23z M8,20H7v-2h1V20z M8,17H7v-2h1V17z M8,14H7v-0.349l1-0.383V14z M10,44H9v-2h1V44z M10,41H9v-2h1V41z M10,38H9v-2h1V38z M10,35H9v-2h1V35z M10,32H9v-2h1V32z M10,29H9v-2h1V29z M10,26H9v-2h1V26z M10,23H9v-2h1V23z M10,20H9v-2h1V20z M10,17H9v-2h1V17z M10,14H9v-1.115l1-0.383V14z M12,44h-1v-2h1V44z M12,41h-1v-2h1V41z M12,38h-1v-2h1V38z M12,35h-1v-2h1V35z M12,32h-1v-2h1V32z M12,29h-1v-2h1V29z M12,26h-1v-2h1V26z M12,23h-1v-2h1V23z M12,20h-1v-2h1V20z M12,17h-1v-2h1V17z M12,14h-1v-1.881l1-0.383V14z"/><path d="M30,4V3H19v1h-4v43h4v-1h1v1h1v-1h1v1h1v-1h1v1h1v-1h1v1h1v-1h1v1h1v-1h1v1h4V4H30z M20,45h-1v-1h1V45z M20,43h-1v-1h1V43z M20,41h-1v-1h1V41z M20,39h-1v-1h1V39z M20,37h-1v-1h1V37z M20,35h-1v-1h1V35z M20,33h-1v-1h1V33z M20,31h-1v-1h1V31z M20,29h-1v-1h1V29z M20,27h-1v-1h1V27z M20,25h-1v-1h1V25z M20,23h-1v-1h1V23z M20,21h-1v-1h1V21z M20,19h-1v-1h1V19z M20,17h-1v-1h1V17z M20,15h-1v-1h1V15z M20,13h-1v-1h1V13z M20,11h-1v-1h1V11z M20,9h-1V8h1V9z M22,45h-1v-1h1V45z M22,43h-1v-1h1V43z M22,41h-1v-1h1V41z M22,39h-1v-1h1V39z M22,37h-1v-1h1V37z M22,35h-1v-1h1V35z M22,33h-1v-1h1V33z M22,31h-1v-1h1V31z M22,29h-1v-1h1V29z M22,27h-1v-1h1V27z M22,25h-1v-1h1V25z M22,23h-1v-1h1V23z M22,21h-1v-1h1V21z M22,19h-1v-1h1V19z M22,17h-1v-1h1V17z M22,15h-1v-1h1V15z M22,13h-1v-1h1V13z M22,11h-1v-1h1V11z M22,9h-1V8h1V9z M24,45h-1v-1h1V45z M24,43h-1v-1h1V43z M24,41h-1v-1h1V41z M24,39h-1v-1h1V39z M24,37h-1v-1h1V37z M24,35h-1v-1h1V35z M24,33h-1v-1h1V33z M24,31h-1v-1h1V31z M24,29h-1v-1h1V29z M24,27h-1v-1h1V27z M24,25h-1v-1h1V25z M24,23h-1v-1h1V23z M24,21h-1v-1h1V21z M24,19h-1v-1h1V19z M24,17h-1v-1h1V17z M24,15h-1v-1h1V15z M24,13h-1v-1h1V13z M24,11h-1v-1h1V11z M24,9h-1V8h1V9z M26,45h-1v-1h1V45z M26,43h-1v-1h1V43z M26,41h-1v-1h1V41z M26,39h-1v-1h1V39z M26,37h-1v-1h1V37z M26,35h-1v-1h1V35z M26,33h-1v-1h1V33z M26,31h-1v-1h1V31z M26,29h-1v-1h1V29z M26,27h-1v-1h1V27z M26,25h-1v-1h1V25z M26,23h-1v-1h1V23z M26,21h-1v-1h1V21z M26,19h-1v-1h1V19z M26,17h-1v-1h1V17z M26,15h-1v-1h1V15z M26,13h-1v-1h1V13z M26,11h-1v-1h1V11z M26,9h-1V8h1V9z M28,45h-1v-1h1V45z M28,43h-1v-1h1V43z M28,41h-1v-1h1V41z M28,39h-1v-1h1V39z M28,37h-1v-1h1V37z M28,35h-1v-1h1V35z M28,33h-1v-1h1V33z M28,31h-1v-1h1V31z M28,29h-1v-1h1V29z M28,27h-1v-1h1V27z M28,25h-1v-1h1V25z M28,23h-1v-1h1V23z M28,21h-1v-1h1V21z M28,19h-1v-1h1V19z M28,17h-1v-1h1V17z M28,15h-1v-1h1V15z M28,13h-1v-1h1V13z M28,11h-1v-1h1V11z M28,9h-1V8h1V9z M30,45h-1v-1h1V45z M30,43h-1v-1h1V43z M30,41h-1v-1h1V41z M30,39h-1v-1h1V39z M30,37h-1v-1h1V37z M30,35h-1v-1h1V35z M30,33h-1v-1h1V33z M30,31h-1v-1h1V31z M30,29h-1v-1h1V29z M30,27h-1v-1h1V27z M30,25h-1v-1h1V25z M30,23h-1v-1h1V23z M30,21h-1v-1h1V21z M30,19h-1v-1h1V19z M30,17h-1v-1h1V17z M30,15h-1v-1h1V15z M30,13h-1v-1h1V13z M30,11h-1v-1h1V11z M30,9h-1V8h1V9z"/><path d="M36,12v4h1v1h-1v1h1v1h-1v1h1v1h-1v1h1v1h-1v1h1v1h-1v1h1v1h-1v1h1v1h-1v1h1v1h-1v1h1v1h-1v1h1v1h-1v1h1v1h-1v1h1v1h-1v1h1v1h-1v1h1v1h-1v1h1v1h-1v1h1v1h1v-1h2v1h1v-1h2v1h4V12H36z M40,45h-2v-1h2V45z M40,43h-2v-1h2V43z M40,41h-2v-1h2V41z M40,39h-2v-1h2V39z M40,37h-2v-1h2V37z M40,35h-2v-1h2V35z M40,33h-2v-1h2V33z M40,31h-2v-1h2V31z M40,29h-2v-1h2V29z M40,27h-2v-1h2V27z M40,25h-2v-1h2V25z M40,23h-2v-1h2V23z M40,21h-2v-1h2V21z M40,19h-2v-1h2V19z M40,17h-2v-1h2V17z M43,45h-2v-1h2V45z M43,43h-2v-1h2V43z M43,41h-2v-1h2V41z M43,39h-2v-1h2V39z M43,37h-2v-1h2V37z M43,35h-2v-1h2V35z M43,33h-2v-1h2V33z M43,31h-2v-1h2V31z M43,29h-2v-1h2V29z M43,27h-2v-1h2V27z M43,25h-2v-1h2V25z M43,23h-2v-1h2V23z M43,21h-2v-1h2V21z M43,19h-2v-1h2V19z M43,17h-2v-1h2V17z"/></svg>