<?xml version="1.0" encoding="iso-8859-1"?><!-- Generator: Adobe Illustrator 21.1.0, SVG Export Plug-In . SVG Version: 6.00 Build 0)  --><svg xmlns="http://www.w3.org/2000/svg" xmlns:xlink="http://www.w3.org/1999/xlink" viewBox="0 0 50 50" width="50px" height="50px"><circle cx="32.5" cy="32.5" r="1.5"/><circle cx="17.5" cy="32.5" r="1.5"/><path d="M41,4H9C6.239,4,4,6.239,4,9v32c0,2.761,2.239,5,5,5h32c2.761,0,5-2.239,5-5V9C46,6.239,43.761,4,41,4z M38,27h-1v11.52c0,0.82-0.65,1.48-1.46,1.48h-0.92c-0.8,0-1.45-0.66-1.45-1.48v-0.45H16.83v0.45c0,0.82-0.65,1.48-1.45,1.48h-0.92C13.65,40,13,39.34,13,38.52V27h-1v-5h1v-5.04c0-1.72,1.11-3.26,2.69-3.74C17.54,12.66,20.65,12,25,12c4.35,0,7.46,0.66,9.31,1.22c0.79,0.24,1.46,0.74,1.94,1.4C36.72,15.28,37,16.1,37,16.96V22h1V27z"/><rect x="26" y="18" width="9" height="9"/><rect x="15" y="18" width="9" height="9"/></svg>