<?xml version="1.0" encoding="utf-8"?><!-- Generator: Adobe Illustrator 15.0.0, SVG Export Plug-In . SVG Version: 6.00 Build 0)  --><!DOCTYPE svg PUBLIC "-//W3C//DTD SVG 1.1//EN" "http://www.w3.org/Graphics/SVG/1.1/DTD/svg11.dtd"><svg xmlns="http://www.w3.org/2000/svg" xmlns:xlink="http://www.w3.org/1999/xlink" viewBox="0 0 50 50" width="50px" height="50px"><line fill="none" stroke="#000000" stroke-width="2" stroke-linecap="round" stroke-linejoin="round" stroke-miterlimit="10" x1="1" y1="1" x2="49" y2="49"/><g><path d="M25.4,26.6c0.2-0.3,0.3-0.699,0.3-1.2c0-1-0.9-1.5-1.4-1.7c-0.6-0.3-1-0.5-1.2-1.4c0.5-0.2,1.2-0.3,1.9-0.3h4v2.7c0,0.8-0.6,2.5-2,3.5l1.4,1.399c1.699-1.399,2.5-3.5,2.5-5V22h13c0.399,0,0.8-0.3,0.899-0.7l0.9-2.7l2.7-1.8c0.3-0.2,0.399-0.5,0.399-0.8v-5c0-0.6-0.399-1-1-1h-2.6l-0.7-0.7C44.5,9.1,44.3,9,44,9h-1c-0.3,0-0.5,0.1-0.7,0.3L41.6,10H13.4l-1.7-1.7c-0.4-0.4-1-0.4-1.4,0L8.7,9.9"/><path d="M5.9,10.3c-1.3,0.8-2.3,2.9-3.1,6.5c-0.1,0.5-0.6,0.7-1.4,1C0.9,17.9,0,18.1,0,19c0,1.5,1.9,3,3.3,3c0.6,0,1.1,0.1,1.3,0.4C5.1,22.9,5,24.1,5,25v0.2C4.9,26,4.5,26.9,4,28.1c-0.7,1.601-1.8,3.9-2.5,7C0.7,38.8,1.1,42.2,2.8,44.2C3.6,45.4,4.8,46,6,46h8c1.6,0,3.7-2.2,4.2-4.4c0.3-1.1,0.8-3.3,1.5-10.6h5c0.6,0,1.1-0.1,1.6-0.2L24.6,29h-4.7c0.1-0.7,0.1-1.5,0.2-2.3c0.9,0.6,2,0.899,3.2,0.899"/></g></svg>