<?xml version="1.0" encoding="utf-8"?>
<!-- Generator: Adobe Illustrator 24.0.0, SVG Export Plug-In . SVG Version: 6.00 Build 0)  -->
<svg version="1.1" id="Layer_1" xmlns="http://www.w3.org/2000/svg" xmlns:xlink="http://www.w3.org/1999/xlink" x="0px" y="0px"
	 viewBox="0 0 50 50" style="enable-background:new 0 0 50 50;" xml:space="preserve">
<style type="text/css">
	.st0{fill:none;stroke:#000000;stroke-width:2;stroke-linecap:round;stroke-linejoin:round;stroke-miterlimit:10;}
</style>
<path class="st0" d="M2,21L25,3l23,18"/>
<path class="st0" d="M45,18.7V47H5V18.7"/>
<path d="M16,20l0,16.4c0.5-0.2,1-0.4,1.5-0.4H34V18H18C16.6,18,16,18.6,16,20z M20,20h10c1.1,0,2,0.9,2,2v2c0,1.1-0.9,2-2,2H20
	c-1.1,0-2-0.9-2-2v-2C18,20.9,18.9,20,20,20z"/>
<path d="M25,3L5,19v28h40V19L25,3z M36,36v1v1H17.5c-0.8,0-1.5,0.7-1.5,1.5s0.7,1.5,1.5,1.5H36v2H17.5c-1.9,0-3.5-1.6-3.5-3.5
	c0,0,0-0.1,0-0.1h0L14,20c0-2.5,1.5-4,4-4h18V36z"/>
<polygon points="30,24 30,22 20,22 20,22 20,24 "/>
</svg>