<?xml version="1.0" encoding="utf-8"?><!-- Generator: Adobe Illustrator 15.0.0, SVG Export Plug-In . SVG Version: 6.00 Build 0)  --><!DOCTYPE svg PUBLIC "-//W3C//DTD SVG 1.1//EN" "http://www.w3.org/Graphics/SVG/1.1/DTD/svg11.dtd"><svg xmlns="http://www.w3.org/2000/svg" xmlns:xlink="http://www.w3.org/1999/xlink" viewBox="0 0 50 50" width="50px" height="50px"><path fill="none" stroke="#000000" stroke-width="2" stroke-linecap="round" stroke-linejoin="round" stroke-miterlimit="10" d="M27,49c0,0-2-3.9-2-9.5"/><line fill="none" stroke="#000000" stroke-width="2" stroke-linecap="round" stroke-linejoin="round" stroke-miterlimit="10" x1="6.9" y1="3.9" x2="46.9" y2="43.9"/><path d="M39.7,37.2C47.6,34.1,50,28.5,50,28.5s-4.4-1.6-10.7-0.7C45.7,18.3,46,8.7,46,8.7s-8.7,2.8-15.5,11.7c0-0.2,0-0.5,0-0.7C30.6,5.6,25,0.1,25,0.1s-4.9,4.6-5.5,17.1"/><path d="M11.7,13.1C7.6,10.2,4,8.7,4,8.7s0,9.3,6.9,19.1C4.4,25.8,0,27.9,0,27.9s2.7,6.699,11.4,9.6c-2.4,1.4-3.8,2.9-3.9,3l-2.2,2.4L8.4,43.8c0.1,0,2.2,0.601,5,0.601c1.7,0,3.3-0.2,4.8-0.601c3-0.8,5.4-2.399,6.8-3.6c1.5,1.2,3.8,2.8,6.8,3.6c1.5,0.4,3.101,0.601,4.8,0.601c2.801,0,4.9-0.601,5-0.601l0.7-0.2L11.7,13.1z"/></svg>