<?xml version="1.0" encoding="iso-8859-1"?><!-- Generator: Adobe Illustrator 23.0.3, SVG Export Plug-In . SVG Version: 6.00 Build 0)  --><svg xmlns="http://www.w3.org/2000/svg" xmlns:xlink="http://www.w3.org/1999/xlink" viewBox="0 0 50 50" width="50px" height="50px"><path d="M48.621,19.211l-23-18c-0.371-0.281-0.871-0.281-1.242,0l-23,18c-0.43,0.34-0.508,0.969-0.168,1.41c0.34,0.43,0.969,0.508,1.41,0.168L4,19.699V46c0,0.551,0.449,1,1,1h40c0.551,0,1-0.449,1-1V19.699l1.379,1.09C47.57,20.93,47.781,21,48,21c0.301,0,0.59-0.129,0.789-0.379C49.129,20.18,49.051,19.551,48.621,19.211z M22.477,15.894c1.073,0,2.009,0.575,2.523,1.432c0.514-0.857,1.45-1.432,2.523-1.432c1.626,0,2.943,1.317,2.943,2.943c0,2.495-5.466,6.307-5.466,6.307s-5.466-3.792-5.466-6.307C19.534,17.211,20.851,15.894,22.477,15.894z M36.925,31.903l-5.873,5.557c-0.371,0.35-0.862,0.544-1.372,0.544L21.376,38c-0.509,0-1,0.194-1.371,0.543l-4.155,3.94l-3.513-5.917l6.59-6.046C19.296,30.186,19.776,30,20.273,30H21.5h6c0.827,0,1.5,0.673,1.5,1.5S28.327,33,27.5,33h-3c-0.552,0-1,0.448-1,1s0.448,1,1,1h3c1.668,0,3.063-1.176,3.412-2.74l3.185-3.185c0.781-0.781,2.047-0.781,2.828,0S37.706,31.122,36.925,31.903z"/></svg>