<?xml version="1.0" encoding="iso-8859-1"?>
<!-- Generator: Adobe Illustrator 22.1.0, SVG Export Plug-In . SVG Version: 6.00 Build 0)  -->
<svg version="1.1" id="Layer_1" xmlns="http://www.w3.org/2000/svg" xmlns:xlink="http://www.w3.org/1999/xlink" x="0px" y="0px"
	 viewBox="0 0 50 50" style="enable-background:new 0 0 50 50;" xml:space="preserve">
<path d="M5.099,25C2.077,25,1,26.854,1,28.588c0,0.844,0.376,2.206,2.623,2.378C4.25,29.297,5.068,27.129,5.881,25H5.099z"/>
<path d="M41.996,25.191c-0.014-0.032-0.023-0.06-0.035-0.092c-1.17-3.015-2.32-5.951-2.688-6.79
	c-0.538-1.223-1.683-2.014-2.881-2.554c-0.211,0.639-0.471,1.255-0.781,1.841c0.771,0.354,1.535,0.849,1.83,1.52
	c0.334,0.763,1.377,3.419,2.476,6.247l-0.005,0.002l0.079,0.193c0.016,0.039,0.034,0.086,0.052,0.131
	c0.027,0.069,0.055,0.141,0.082,0.211c0.245,0.644,0.529,1.596,0.139,2.179C39.863,28.673,38.704,29,37,29H13
	c-1.705,0-2.899-0.4-3.299-0.996c-0.47-0.697,0.032-1.928,0.273-2.52l0.078-0.192l-0.018,0.052c1.174-3.062,2.174-5.61,2.426-6.1
	c0.362-0.703,1.131-1.209,1.954-1.596c-0.314-0.587-0.574-1.205-0.788-1.845c-1.156,0.534-2.312,1.301-2.943,2.525
	c-0.677,1.315-5.114,13.148-5.618,14.492L5,32.991v5.565v2.586V45c0,1.654,1.346,3,3,3h4c1.654,0,3-1.346,3-3v-1h20v1
	c0,1.654,1.346,3,3,3h4c1.654,0,3-1.346,3-3v-3.857v-2.586v-5.568l-0.066-0.175C44.828,32.534,43.405,28.82,41.996,25.191z M15,39
	c-1.676,0-2.187-0.434-3.92-1.416C9.919,36.927,9,36.307,9,35c0-1.105,0.896-2,2-2c0.755,0,3.096,0,4,0c1.656,0,3,1.342,3,3
	S16.656,39,15,39z M38.92,37.584C37.188,38.566,36.676,39,35,39c-1.656,0-3-1.342-3-3s1.344-3,3-3c0.904,0,3.245,0,4,0
	c1.104,0,2,0.895,2,2C41,36.307,40.081,36.927,38.92,37.584z"/>
<path d="M44.9,25h-0.836c0.906,2.339,1.791,4.639,2.303,5.967C48.622,30.798,49,29.434,49,28.588C49,26.854,47.923,25,44.9,25z"/>
<path d="M25,2c-5.5,0-10,4.5-10,10s4.5,10,10,10s10-4.5,10-10S30.5,2,25,2z M25,20c-4.398,0-8-3.602-8-8s3.602-8,8-8s8,3.602,8,8
	S29.398,20,25,20z M24,9.699c0,2.102,4.5,1.301,4.5,4.801c0,2.5-2.398,2.801-2.801,2.801v1.398h-1.098v-1.398
	c-0.402,0-3-0.301-3-3.301h2c0,0.301,0,1.699,1.5,1.699c1.297,0,1.297-1,1.297-1.199c0-2.199-4.5-1.301-4.5-4.801
	c0-2.098,1.902-2.801,2.801-2.801v-1.5h1.102v1.5C26.5,7,28.398,7.5,28.398,10.102h-2c0-0.602-0.098-1.703-1.297-1.703
	C24,8.5,24,9.5,24,9.699z"/>
</svg>