<?xml version="1.0" encoding="utf-8"?><!-- Generator: Adobe Illustrator 15.0.0, SVG Export Plug-In . SVG Version: 6.00 Build 0)  --><!DOCTYPE svg PUBLIC "-//W3C//DTD SVG 1.1//EN" "http://www.w3.org/Graphics/SVG/1.1/DTD/svg11.dtd"><svg xmlns="http://www.w3.org/2000/svg" xmlns:xlink="http://www.w3.org/1999/xlink" viewBox="0 0 50 50" width="50px" height="50px"><path fill="none" stroke="#000000" stroke-width="2" stroke-linecap="round" stroke-linejoin="round" stroke-miterlimit="10" d="M49,34.6c-0.5,0.2-1.1,0.301-1.8,0.301c-1.5,0-3.9-0.4-5.5-1.7c-1.601,1.3-4,1.7-5.5,1.7s-3.9-0.4-5.5-1.7c-1.601,1.3-4,1.7-5.5,1.7s-3.9-0.4-5.5-1.7c-1.6,1.3-4,1.7-5.5,1.7s-3.9-0.4-5.5-1.7c-1.6,1.3-4,1.7-5.5,1.7c-0.7,0-1.3-0.101-1.8-0.101"/><path fill="none" stroke="#000000" stroke-width="2" stroke-linecap="round" stroke-linejoin="round" stroke-miterlimit="10" d="M49,38.6c-0.5,0.2-1.1,0.301-1.8,0.301c-1.5,0-3.9-0.4-5.5-1.7c-1.601,1.3-4,1.7-5.5,1.7s-3.9-0.4-5.5-1.7c-1.601,1.3-4,1.7-5.5,1.7s-3.9-0.4-5.5-1.7c-1.6,1.3-4,1.7-5.5,1.7s-3.9-0.4-5.5-1.7c-1.6,1.3-4,1.7-5.5,1.7c-0.7,0-1.3-0.101-1.8-0.101"/><line fill="none" stroke="#000000" stroke-width="2" stroke-linecap="round" stroke-linejoin="round" stroke-miterlimit="10" x1="11.6" y1="18.4" x2="8.9" y2="10.7"/><line fill="none" stroke="#000000" stroke-width="2" stroke-linecap="round" stroke-linejoin="round" stroke-miterlimit="10" x1="8.7" y1="19.7" x2="6.1" y2="13"/><path d="M21.968,18.232c-0.6-0.5-1.5-0.4-2,0.2l-2.252,3.894l-4.482-11.583c-0.198-0.516-0.775-0.774-1.292-0.577c-0.516,0.197-0.774,0.776-0.577,1.292l2.095,5.475c-1.826,0.062-4.756,0.663-7.088,3.422l-1.432-3.992c-0.187-0.521-0.761-0.791-1.279-0.604c-0.52,0.187-0.791,0.759-0.604,1.279l3.313,9.235c0.463,1.156,1.262,2.118,2.432,2.896c0.445,0.254,0.746,0.687,0.801,1.127l0.4,4.2c0.049,0.517,0.483,0.905,0.995,0.905c0.022,0,0.045-0.001,0.068-0.002l7.4-0.5c0.287-0.02,0.552-0.162,0.727-0.391s0.243-0.521,0.186-0.804l-1.09-5.444c-0.059-0.409,0.057-0.793,0.279-1.017l1.037-0.935l0.302-0.302c0.058-0.058,0.108-0.123,0.15-0.192l2.21-5.683c0.087-0.131,0.1-0.172,0.063-0.159C22.609,19.396,22.426,18.69,21.968,18.232z"/><g><line fill="none" stroke="#000000" stroke-width="2" stroke-linecap="round" stroke-linejoin="round" stroke-miterlimit="10" x1="41.125" y1="10.7" x2="38.424" y2="18.4"/><line fill="none" stroke="#000000" stroke-width="2" stroke-linecap="round" stroke-linejoin="round" stroke-miterlimit="10" x1="43.924" y1="13" x2="41.324" y2="19.7"/><path d="M28.057,18.232c0.6-0.5,1.5-0.4,2,0.2l2.252,3.894l4.482-11.583c0.197-0.516,0.775-0.774,1.291-0.577s0.773,0.776,0.576,1.292l-2.095,5.475c1.826,0.062,4.756,0.663,7.088,3.422l1.432-3.992c0.187-0.521,0.761-0.791,1.278-0.604c0.521,0.187,0.791,0.759,0.604,1.279l-3.313,9.235c-0.463,1.156-1.262,2.118-2.432,2.896c-0.445,0.254-0.745,0.687-0.801,1.127l-0.4,4.2c-0.049,0.517-0.482,0.905-0.994,0.905c-0.022,0-0.045-0.001-0.068-0.002l-7.4-0.5c-0.287-0.02-0.552-0.162-0.727-0.391s-0.242-0.521-0.186-0.804l1.09-5.444c0.059-0.409-0.057-0.793-0.279-1.017l-1.036-0.935l-0.302-0.302c-0.059-0.058-0.108-0.123-0.15-0.192l-2.21-5.683c-0.087-0.131-0.101-0.172-0.063-0.159C27.416,19.396,27.598,18.69,28.057,18.232z"/></g></svg>