<?xml version="1.0" encoding="iso-8859-1"?><!-- Generator: Adobe Illustrator 22.1.0, SVG Export Plug-In . SVG Version: 6.00 Build 0)  --><svg xmlns="http://www.w3.org/2000/svg" xmlns:xlink="http://www.w3.org/1999/xlink" viewBox="0 0 50 50" width="50px" height="50px"><g><path d="M7,44c-0.553,0-1-0.447-1-1V7c0-0.552,0.447-1,1-1s1,0.448,1,1v36C8,43.553,7.553,44,7,44z"/></g><g><path d="M43,44c-0.553,0-1-0.447-1-1V7c0-0.552,0.447-1,1-1s1,0.448,1,1v36C44,43.553,43.553,44,43,44z"/></g><g><path d="M33,44h-2c-0.553,0-1-0.447-1-1s0.447-1,1-1h2c0.553,0,1,0.447,1,1S33.553,44,33,44z"/></g><g><path d="M39,44h-2c-0.553,0-1-0.447-1-1s0.447-1,1-1h2c0.553,0,1,0.447,1,1S39.553,44,39,44z"/></g><g><path d="M25,8h-2c-0.553,0-1-0.448-1-1s0.447-1,1-1h2c0.553,0,1,0.448,1,1S25.553,8,25,8z"/></g><g><path d="M31,8h-2c-0.553,0-1-0.448-1-1s0.447-1,1-1h2c0.553,0,1,0.448,1,1S31.553,8,31,8z"/></g><g><path d="M13,8h-2c-0.553,0-1-0.448-1-1s0.447-1,1-1h2c0.553,0,1,0.448,1,1S13.553,8,13,8z"/></g><g><path d="M19,8h-2c-0.553,0-1-0.448-1-1s0.447-1,1-1h2c0.553,0,1,0.448,1,1S19.553,8,19,8z"/></g><g><polygon points="7,25 15,25 15,31 21,31 21,37 27,37 27,44 7,44 "/></g><g><polygon points="43,6 35,6 35,12 29,12 29,18 23,18 23,25 43,25 "/></g></svg>