<?xml version="1.0" encoding="utf-8"?><!-- Generator: Adobe Illustrator 15.0.0, SVG Export Plug-In . SVG Version: 6.00 Build 0)  --><!DOCTYPE svg PUBLIC "-//W3C//DTD SVG 1.1//EN" "http://www.w3.org/Graphics/SVG/1.1/DTD/svg11.dtd"><svg xmlns="http://www.w3.org/2000/svg" xmlns:xlink="http://www.w3.org/1999/xlink" viewBox="0 0 50 50" width="50px" height="50px"><line fill="none" stroke="#000000" stroke-width="2" stroke-miterlimit="10" x1="50" y1="9" x2="0" y2="9"/><path fill="none" stroke="#000000" stroke-width="2" stroke-linecap="round" stroke-linejoin="round" stroke-miterlimit="10" d="M49,40.6c-0.5,0.2-1.1,0.301-1.8,0.301c-1.5,0-3.9-0.4-5.5-1.7c-1.601,1.3-4,1.7-5.5,1.7s-3.9-0.4-5.5-1.7c-1.601,1.3-4,1.7-5.5,1.7s-3.9-0.4-5.5-1.7c-1.6,1.3-4,1.7-5.5,1.7s-3.9-0.4-5.5-1.7c-1.6,1.3-4,1.7-5.5,1.7c-0.7,0-1.3-0.101-1.8-0.101"/><path d="M49.929,36.228c-0.206-0.513-0.789-0.762-1.301-0.557C48.249,35.823,47.769,35.9,47.2,35.9c-0.361,0-0.771-0.026-1.2-0.083V22c0-1.654,1.346-3,3-3h1v-6H0v6h1c1.654,0,3,1.346,3,3v13.858C3.719,35.884,3.446,35.9,3.2,35.9c-0.349,0-0.671-0.028-0.966-0.053C1.933,35.822,1.655,35.8,1.4,35.8c-0.552,0-1,0.447-1,1s0.448,1,1,1c0.203,0,0.425,0.021,0.666,0.04C2.412,37.869,2.791,37.9,3.2,37.9c1.61,0,3.806-0.396,5.5-1.472c1.694,1.075,3.89,1.472,5.5,1.472s3.806-0.396,5.5-1.472c1.694,1.075,3.89,1.472,5.5,1.472s3.806-0.396,5.5-1.472c1.693,1.075,3.89,1.472,5.5,1.472s3.806-0.396,5.5-1.472c1.693,1.075,3.89,1.472,5.5,1.472c0.823,0,1.555-0.125,2.172-0.372C49.885,37.322,50.134,36.74,49.929,36.228z M31.331,34.424c-0.367-0.299-0.893-0.299-1.262,0c-1.342,1.09-3.462,1.477-4.869,1.477c-1.408,0-3.528-0.387-4.869-1.477c-0.368-0.299-0.894-0.299-1.261,0c-1.342,1.09-3.462,1.477-4.87,1.477c-0.361,0-0.771-0.026-1.2-0.083V22c0-1.654,1.346-3,3-3h18c1.654,0,3,1.346,3,3v13.858c-0.281,0.025-0.554,0.042-0.8,0.042C34.792,35.9,32.672,35.514,31.331,34.424z"/><line fill="none" stroke="#000000" stroke-width="2" stroke-miterlimit="10" x1="25" y1="9" x2="25" y2="14"/><line fill="none" stroke="#000000" stroke-width="2" stroke-miterlimit="10" x1="32" y1="9" x2="32" y2="14"/><line fill="none" stroke="#000000" stroke-width="2" stroke-miterlimit="10" x1="39" y1="9" x2="39" y2="14"/><line fill="none" stroke="#000000" stroke-width="2" stroke-miterlimit="10" x1="46" y1="9" x2="46" y2="14"/><line fill="none" stroke="#000000" stroke-width="2" stroke-miterlimit="10" x1="18" y1="9" x2="18" y2="14"/><line fill="none" stroke="#000000" stroke-width="2" stroke-miterlimit="10" x1="11" y1="9" x2="11" y2="14"/><line fill="none" stroke="#000000" stroke-width="2" stroke-miterlimit="10" x1="4" y1="9" x2="4" y2="14"/></svg>