<?xml version="1.0" encoding="iso-8859-1"?>
<!-- Generator: Adobe Illustrator 23.0.6, SVG Export Plug-In . SVG Version: 6.00 Build 0)  -->
<svg version="1.1" id="&#x421;&#x43B;&#x43E;&#x439;_1"
	 xmlns="http://www.w3.org/2000/svg" xmlns:xlink="http://www.w3.org/1999/xlink" x="0px" y="0px" viewBox="0 0 50 50"
	 style="enable-background:new 0 0 50 50;" xml:space="preserve">
<path d="M18,2h8c1.105,0,2,0.895,2,2l0,0c0,1.105-0.895,2-2,2h-8c-1.105,0-2-0.895-2-2l0,0C16,2.895,16.895,2,18,2z"/>
<path d="M40.57,26.91c-0.39,0.39-0.9,0.59-1.41,0.59c-0.52,0-1.03-0.2-1.42-0.59l-0.7-0.7l-4.25-4.25l-0.7-0.7
	c-0.79-0.78-0.79-2.05,0-2.83c0.39-0.39,0.9-0.59,1.41-0.59s1.02,0.2,1.41,0.59l5.66,5.66C41.35,24.87,41.35,26.13,40.57,26.91z"/>
<path d="M34,47v1H10v-1c0-1.66,1.34-3,3-3h18C32.66,44,34,45.34,34,47z"/>
<path d="M32.97,34c-0.16,3.29-1.9,6.19-4.51,8H15.57c-2.76-1.89-4.56-5-4.56-8.5c0-0.51,0.04-1.01,0.12-1.5H12c3.5,0,3.5,2,7,2
	s3.5-2,7-2C29.49,32,29.5,33.99,32.97,34z"/>
<path d="M32.58,30.66c0.13,0.43,0.23,0.88,0.3,1.34c-3.38-0.05-3.42-2-6.88-2c-3.5,0-3.5,2-7,2s-3.5-2-7-2h-0.35
	c1.17-3.2,3.92-5.68,7.35-6.6V8h6v15.4c1.57,0.42,2.99,1.17,4.19,2.17l2.19-2.2l4.25,4.25L32.58,30.66z"/>
<circle cx="41" cy="14" r="3"/>
<circle cx="33.5" cy="9.5" r="2.5"/>
<circle cx="42" cy="5" r="2"/>
</svg>