<?xml version="1.0" encoding="iso-8859-1"?><!-- Generator: Adobe Illustrator 21.1.0, SVG Export Plug-In . SVG Version: 6.00 Build 0)  --><svg xmlns="http://www.w3.org/2000/svg" xmlns:xlink="http://www.w3.org/1999/xlink" viewBox="0 0 50 50" width="50px" height="50px"><path d="M48.62,19.21l-23-18c-0.37-0.28-0.87-0.28-1.24,0l-23,18c-0.43,0.34-0.51,0.97-0.17,1.41c0.34,0.43,0.97,0.51,1.41,0.17L4,19.71V46c0,0.55,0.45,1,1,1h40c0.55,0,1-0.45,1-1V19.71l1.38,1.08C47.57,20.93,47.78,21,48,21c0.3,0,0.59-0.13,0.79-0.38C49.13,20.18,49.05,19.55,48.62,19.21z M28.48,39c0,0,2.1-2.38,2.1-4.25c0-2.62-1.97-3.87-2.76-6.75c-1.18,1.25-0.92,3.25-0.92,3.25S24.14,29,25.72,22.5c0,0-4.86,3.25-4.86,8.75c0,4.5,2.36,7.75,2.36,7.75S16,37.25,16,31.25C16,21.62,28.08,16,28.08,16c-0.39,2.5,0,4.75,1.19,6.25c0.65-0.5,1.44-1.38,2.36-1.62c-0.39,3.37,2.36,4.74,2.36,10.62C34.13,34.63,31.76,37.87,28.48,39z"/></svg>