<?xml version="1.0" encoding="iso-8859-1"?><!-- Generator: Adobe Illustrator 22.0.1, SVG Export Plug-In . SVG Version: 6.00 Build 0)  --><svg xmlns="http://www.w3.org/2000/svg" xmlns:xlink="http://www.w3.org/1999/xlink" viewBox="0 0 50 50" width="50px" height="50px"><path d="M15.121,29.879C14.555,29.312,13.801,29,13,29s-1.555,0.312-2.121,0.879L9,31.758v2.828l3.293-3.293C12.488,31.098,12.744,31,13,31s0.512,0.098,0.707,0.293c0.391,0.391,0.391,1.023,0,1.414L8,38.414l-5.707-5.707c-0.391-0.391-0.391-1.023,0-1.414C2.488,31.098,2.744,31,3,31s0.512,0.098,0.707,0.293L7,34.586v-2.828l-1.879-1.879C4.555,29.312,3.801,29,3,29s-1.555,0.312-2.121,0.879C0.312,30.445,0,31.199,0,32s0.312,1.555,0.879,2.121L7.758,41h0.485l6.879-6.879C15.688,33.555,16,32.801,16,32S15.688,30.445,15.121,29.879z"/><circle cx="24" cy="17" r="1"/><circle cx="26" cy="19" r="1"/><circle cx="22" cy="19" r="1"/><path d="M44,4H10C7.243,4,5,6.243,5,9v22l2,2V9c0-1.654,1.346-3,3-3h34c1.654,0,3,1.346,3,3v32c0,1.654-1.346,3-3,3h-8c-0.552,0-1-0.447-1-1s0.448-1,1-1h8c0.551,0,1-0.448,1-1V9c0-0.552-0.449-1-1-1H10C9.449,8,9,8.448,9,9v24.058c0.886-0.836,2.11-1.997,2.586-2.473c0.781-0.781,2.047-0.781,2.828,0c0.781,0.781,0.781,2.047,0,2.828c-0.216,0.216-4.183,4.272-6.427,6.573L5,37v6c0,1.654,1.346,3,3,3h36c2.757,0,5-2.243,5-5V9C49,6.243,46.757,4,44,4z M10,44H8c-0.552,0-1-0.447-1-1s0.448-1,1-1h2c0.552,0,1,0.447,1,1S10.552,44,10,44z M17,44h-2c-0.552,0-1-0.447-1-1s0.448-1,1-1h2c0.552,0,1,0.447,1,1S17.552,44,17,44z M17,33v-4c-0.552,0-1-0.448-1-1c0-0.552,0.448-1,1-1v-6c0-2.761,2.239-5,5-5h10c2.761,0,5,2.239,5,5v6c0.552,0,1,0.448,1,1c0,0.552-0.448,1-1,1v4c0,0.552-0.448,1-1,1H18C17.448,34,17,33.552,17,33z M24,44h-2c-0.552,0-1-0.447-1-1s0.448-1,1-1h2c0.552,0,1,0.447,1,1S24.552,44,24,44z M31,44h-2c-0.552,0-1-0.447-1-1s0.448-1,1-1h2c0.552,0,1,0.447,1,1S31.552,44,31,44z"/><line style="fill:none;stroke:#000000;stroke-width:2;stroke-miterlimit:10;" x1="16" y1="30" x2="38" y2="30"/><line style="fill:none;stroke:#000000;stroke-width:2;stroke-miterlimit:10;" x1="16" y1="26" x2="38" y2="26"/><path style="fill:none;stroke:#000000;stroke-width:2;stroke-linecap:round;stroke-linejoin:round;stroke-miterlimit:10;" d="M16,23h1c2,0,2.5-1,2.5-1s0.875,1,2.5,1s2.5-1,2.5-1s1.125,1,2.5,1s2.5-1,2.5-1s1.125,1,2.5,1s2.5-1,2.5-1s0.5,1,2.5,1h1"/></svg>