<?xml version="1.0" encoding="utf-8"?><!-- Generator: Adobe Illustrator 15.0.0, SVG Export Plug-In . SVG Version: 6.00 Build 0)  --><!DOCTYPE svg PUBLIC "-//W3C//DTD SVG 1.1//EN" "http://www.w3.org/Graphics/SVG/1.1/DTD/svg11.dtd"><svg xmlns="http://www.w3.org/2000/svg" xmlns:xlink="http://www.w3.org/1999/xlink" viewBox="0 0 50 50" width="50px" height="50px"><path d="M20,4C10.075,4,2,12.075,2,22c0,9.925,8.075,18,18,18c9.925,0,18-8.075,18-18C38,12.075,29.925,4,20,4z M20,25c-1.657,0-3-1.343-3-3s1.343-3,3-3s3,1.343,3,3S21.657,25,20,25z"/><g><path d="M20,42c-2.845,0-5.547-0.606-8-1.682V43c0,1.654,1.346,3,3,3h10c1.654,0,3-1.346,3-3v-2.682C25.548,41.394,22.845,42,20,42z"/></g><path d="M44,32c-2.206,0-4-1.794-4-4c0-2.206,1.794-4,4-4s4,1.794,4,4C48,30.206,46.206,32,44,32z"/><g><path d="M44,34c-0.411,0-0.813-0.042-1.2-0.121C41.933,37.942,38.318,41,34,41h-4.048v2H34c5.403,0,9.899-3.92,10.818-9.063C44.55,33.975,44.278,34,44,34z"/></g></svg>