<?xml version="1.0" encoding="iso-8859-1"?>
<!-- Generator: Adobe Illustrator 22.1.0, SVG Export Plug-In . SVG Version: 6.00 Build 0)  -->
<svg version="1.1" id="Layer_1" xmlns="http://www.w3.org/2000/svg" xmlns:xlink="http://www.w3.org/1999/xlink" x="0px" y="0px"
	 viewBox="0 0 50 50" style="enable-background:new 0 0 50 50;" xml:space="preserve">
<circle style="fill:none;stroke:#000000;stroke-width:2;stroke-miterlimit:10;" cx="14" cy="41" r="5"/>
<path d="M9,39v2H8c-1.65,0-3-1.35-3-3V20.59C5.61,20.85,6.29,21,7,21v17c0,0.55,0.45,1,1,1H9z"/>
<path d="M45,20.59V38c0,1.65-1.35,3-3,3H19v-2h23c0.55,0,1-0.45,1-1V21C43.71,21,44.39,20.85,45,20.59z"/>
<path d="M39,45c-0.553,0-1-0.447-1-1v-4c0-0.553,0.447-1,1-1s1,0.447,1,1v4C40,44.553,39.553,45,39,45z"/>
<path d="M6,28v10c0,1.105,0.895,2,2,2h1.101c0.463-2.282,2.48-4,4.899-4s4.436,1.718,4.899,4H42c1.105,0,2-0.895,2-2V28H6z"/>
<path d="M44,7V4c0-0.553-0.447-1-1-1H7C6.447,3,6,3.447,6,4v3H44z"/>
<path d="M6,9c0,0-2,6.731-2,7c0,1.657,1.343,3,3,3s3-1.343,3-3c0,1.657,1.343,3,3,3s3-1.343,3-3c0,1.657,1.343,3,3,3s3-1.343,3-3
	c0,1.657,1.343,3,3,3s3-1.343,3-3c0,1.657,1.343,3,3,3s3-1.343,3-3c0,1.657,1.343,3,3,3s3-1.343,3-3c0,1.657,1.343,3,3,3
	s3-1.343,3-3c0-0.269-2-7-2-7H6z"/>
<circle cx="39" cy="45" r="2"/>
</svg>