<?xml version="1.0" encoding="iso-8859-1"?>
<!-- Generator: Adobe Illustrator 24.1.2, SVG Export Plug-In . SVG Version: 6.00 Build 0)  -->
<svg version="1.1" baseProfile="basic" id="Layer_1"
	 xmlns="http://www.w3.org/2000/svg" xmlns:xlink="http://www.w3.org/1999/xlink" x="0px" y="0px" viewBox="0 0 50 50"
	 xml:space="preserve">
<g>
	<path d="M47.822,26.743L37.403,11.704c-0.093-0.126-0.238-0.201-0.394-0.204c-0.004,0-0.007,0-0.01,0
		c-0.152,0-0.297,0.069-0.392,0.189l-3.558,4.483l-1.339-2.159c-0.145-0.234-0.452-0.307-0.687-0.163l-2.924,1.793l-1.721-1.721
		c-0.094-0.094-0.221-0.146-0.354-0.146c-0.135-0.007-0.265,0.055-0.359,0.152l-2.656,2.739l-3.648-1.783
		c-0.231-0.113-0.51-0.032-0.645,0.186l-3.825,6.182l-2.455-3.538c-0.095-0.137-0.254-0.217-0.416-0.215
		c-0.165,0.002-0.319,0.085-0.411,0.223L2.154,32.755C2.053,32.914,2,33.099,2,33.287V45c0,0.552,0.448,1,1,1h44
		c0.552,0,1-0.448,1-1V27.313C48,27.109,47.938,26.91,47.822,26.743z M40,44H27h-2H12V29h14v-4h14V44z"/>
	<path d="M36,30h-2v-2h2V30z M32,30h-2v-2h2V30z M36,34h-2v-2h2V34z M32,34h-2v-2h2V34z M22,34h-2v-2h2V34z M18,34h-2v-2h2V34z
		 M22,38h-2v-2h2V38z M18,38h-2v-2h2V38z M36,38h-2v-2h2V38z M32,38h-2v-2h2V38z M34,44h-2v-4h2V44z M20,44h-2v-4h2V44z"/>
	
		<polyline style="fill:none;stroke:#000000;stroke-width:2;stroke-linecap:round;stroke-linejoin:round;stroke-miterlimit:10;" points="
		31.286,15.276 25.536,5 19.142,16.334 	"/>
</g>
</svg>