<?xml version="1.0" encoding="iso-8859-1"?>
<!-- Generator: Adobe Illustrator 18.0.0, SVG Export Plug-In . SVG Version: 6.00 Build 0)  -->
<!DOCTYPE svg PUBLIC "-//W3C//DTD SVG 1.1//EN" "http://www.w3.org/Graphics/SVG/1.1/DTD/svg11.dtd">
<svg version="1.1" id="Layer_1" xmlns="http://www.w3.org/2000/svg" xmlns:xlink="http://www.w3.org/1999/xlink" x="0px" y="0px"
	 width="50px" height="50px" viewBox="0 0 50 50" style="enable-background:new 0 0 50 50;" xml:space="preserve">
<g>
	<polygon points="35,34 30,34 30,39 31.61,39 35,39 	"/>
	<polygon points="30.614,7 26.614,7 29.945,32 35.146,32 	"/>
	<polygon points="49.73,32 47.49,25 35.911,25 37.18,32 	"/>
	<polygon points="35.548,23 46.85,23 44.29,15 34.098,15 	"/>
	<path d="M28,33c0-0.065-0.02-0.607-0.02-0.607L24.608,7.089C24.25,7.243,24,7.591,24,8l0.002,3H7c-0.031,0-0.063,0-0.094,0
		s-0.063,0-0.094,0c-0.395,0.078-0.703,0.387-0.781,0.781l-6,26c-0.066,0.297,0.004,0.605,0.191,0.84
		C0.414,38.859,0.699,38.996,1,39h27V33z M2.25,37l5.531-24h16.293l1.846,24H2.25z"/>
	<path d="M33.735,13h9.914l-1.698-5.305C41.82,7.281,41.435,7,41,7h-8.352L33.735,13z"/>
	<path d="M37,34v5h12c0.553,0,1-0.447,1-1v-4H37z"/>
</g>
</svg>