<?xml version="1.0" encoding="iso-8859-1"?>
<!-- Generator: Adobe Illustrator 24.0.2, SVG Export Plug-In . SVG Version: 6.00 Build 0)  -->
<svg version="1.1" id="&#x421;&#x43B;&#x43E;&#x439;_1"
	 xmlns="http://www.w3.org/2000/svg" xmlns:xlink="http://www.w3.org/1999/xlink" x="0px" y="0px" viewBox="0 0 50 50"
	 style="enable-background:new 0 0 50 50;" xml:space="preserve">
<path d="M32.849,6.472l-3.733-6C28.933,0.179,28.612,0,28.267,0h-6.533c-0.346,0-0.667,0.179-0.849,0.472l-3.733,6
	c-0.192,0.309-0.202,0.696-0.025,1.014C17.302,7.803,17.637,8,18,8h14c0.363,0,0.698-0.197,0.874-0.515
	C33.051,7.168,33.041,6.78,32.849,6.472z"/>
<circle cx="25" cy="11" r="1"/>
<circle cx="21" cy="11" r="1"/>
<circle cx="29" cy="11" r="1"/>
<circle cx="33" cy="11" r="1"/>
<circle cx="17" cy="11" r="1"/>
<circle cx="15" cy="15" r="1"/>
<circle cx="13" cy="19" r="1"/>
<circle cx="11" cy="23" r="1"/>
<circle cx="9" cy="27" r="1"/>
<circle cx="7" cy="31" r="1"/>
<circle cx="35" cy="15" r="1"/>
<circle cx="37" cy="19" r="1"/>
<circle cx="39" cy="23" r="1"/>
<circle cx="41" cy="27" r="1"/>
<circle cx="42" cy="31" r="1"/>
<circle cx="25" cy="15" r="1"/>
<circle cx="25" cy="19" r="1"/>
<circle cx="25" cy="23" r="1"/>
<circle cx="20" cy="15" r="1"/>
<circle cx="19" cy="19" r="1"/>
<circle cx="18" cy="23" r="1"/>
<circle cx="17" cy="27" r="1"/>
<circle cx="16" cy="31" r="1"/>
<circle cx="33" cy="27" r="1"/>
<circle cx="34" cy="31" r="1"/>
<circle cx="30" cy="15" r="1"/>
<circle cx="31" cy="19" r="1"/>
<circle cx="32" cy="23" r="1"/>
<circle cx="7" cy="31" r="1"/>
<circle cx="16" cy="31" r="1"/>
<circle cx="34" cy="31" r="1"/>
<circle cx="42" cy="31" r="1"/>
<path d="M41.31,43.27c-1.57-3.12-3.83-6.05-7.27-7.18c-0.79-0.26-1.35,0.53-1.23,1.23c0.32,1.9,0.14,3.81-0.44,5.61
	c-0.18-0.79-0.38-1.58-0.64-2.35c-0.53-1.54-1.29-3-2.09-4.42c-1.49-2.64-3.31-5.37-3.39-8.5c-0.02-0.72-0.85-1.29-1.51-0.86
	c-2.78,1.79-4.84,4.43-6.13,7.47c-1.13,2.63-1.64,5.44-2,8.26c-1.13-1.99-1.93-4.15-2.33-6.44c-0.16-0.91-1.4-0.89-1.83-0.24
	C9.68,40.04,8.11,44.98,8.06,50h1.99h31.48h2.04C43.14,47.67,42.38,45.4,41.31,43.27z"/>
</svg>