<?xml version="1.0" encoding="utf-8"?><!-- Generator: Adobe Illustrator 15.0.0, SVG Export Plug-In . SVG Version: 6.00 Build 0)  --><!DOCTYPE svg PUBLIC "-//W3C//DTD SVG 1.1//EN" "http://www.w3.org/Graphics/SVG/1.1/DTD/svg11.dtd"><svg xmlns="http://www.w3.org/2000/svg" xmlns:xlink="http://www.w3.org/1999/xlink" viewBox="0 0 50 50" width="50px" height="50px"><path d="M49.414,17l-3.707-3.707c-0.391-0.391-1.023-0.391-1.414,0L40.586,17H49.414z"/><path d="M9.414,17l-3.707-3.707c-0.391-0.391-1.023-0.391-1.414,0L0.586,17H9.414z"/><path d="M34.38,13l-8.715-7.748c-0.379-0.337-0.95-0.337-1.329,0L15.62,13H34.38z"/><path d="M40,19v5H10v-5H0v30c0,0.553,0.448,1,1,1h48c0.553,0,1-0.447,1-1V19H40z M6,26H4c0-0.8,0-3.9,0-4c0-0.6,0.4-1,1-1s1,0.4,1,1C6,22.1,6,25.2,6,26z M32,48H18c0-2,0-6,0-8c0-3.9,3.1-7,7-7c3.9,0,7,3.1,7,7C32,42,32,46,32,48z M46,26h-2c0-0.8,0-3.9,0-4c0-0.6,0.4-1,1-1s1,0.4,1,1C46,22.1,46,25.2,46,26z"/><path d="M15,15v8h4c0-0.8,0-3.9,0-4c0-0.6,0.4-1,1-1s1,0.4,1,1c0,0.1,0,3.2,0,4h3c0-0.8,0-3.9,0-4c0-0.6,0.4-1,1-1c0.6,0,1,0.4,1,1c0,0.1,0,3.2,0,4h3c0-0.8,0-3.9,0-4c0-0.6,0.4-1,1-1s1,0.4,1,1c0,0.1,0,3.2,0,4h4v-8H15z"/></svg>