<?xml version="1.0" encoding="iso-8859-1"?><!-- Generator: Adobe Illustrator 21.1.0, SVG Export Plug-In . SVG Version: 6.00 Build 0)  --><svg xmlns="http://www.w3.org/2000/svg" xmlns:xlink="http://www.w3.org/1999/xlink" viewBox="0 0 50 50" width="50px" height="50px"><path d="M48,46H2v-2c0-1.7,1.3-3,3-3h40c1.7,0,3,1.3,3,3V46z"/><rect x="6" y="18" width="2" height="21"/><path d="M39,18c-0.5,0-1-0.5-1-1s0.5-1,1-1h8c0.6,0,1-0.4,1-1v-1.7c0-0.4-0.2-0.7-0.6-0.9l-22-10.3c-0.3-0.1-0.6-0.1-0.9,0l-22,10.3C2.2,12.6,2,12.9,2,13.3V15c0,0.6,0.4,1,1,1h8c0.5,0,1,0.5,1,1s-0.5,1-1,1h-1v21h30V18H39z M25.3,22.5c2.5,0.8,5.7,1.7,5.7,5.5c0,1.3-0.4,2.5-1.3,3.3c-1.1,1.1-2.7,1.5-3.7,1.6V36h-2v-3.1c-1.3-0.2-2.5-0.7-3.3-1.5C19,29.6,19,27.1,19,27h2c0,0,0,1.8,1.1,3c0.7,0.7,1.6,1,2.9,1c0,0,2.2,0,3.3-1.1c0.5-0.5,0.7-1.1,0.7-1.9c0-2.1-1.6-2.7-4.3-3.5C22.2,23.7,19,22.7,19,19c0-1.6,1.2-4.5,5-4.9V11h2v3.1c3.8,0.5,5,4,5,5.9h-2c0-0.4-0.2-4-4-4c-3.9,0-4,2.9-4,3C21,21.1,22.6,21.7,25.3,22.5z"/><rect x="42" y="18" width="2" height="21"/></svg>