<?xml version="1.0" encoding="iso-8859-1"?>
<!-- Generator: Adobe Illustrator 23.1.0, SVG Export Plug-In . SVG Version: 6.00 Build 0)  -->
<svg version="1.1" id="Layer_1" xmlns="http://www.w3.org/2000/svg" xmlns:xlink="http://www.w3.org/1999/xlink" x="0px" y="0px"
	 viewBox="0 0 50 50" style="enable-background:new 0 0 50 50;" xml:space="preserve">
<circle cx="33.938" cy="5.125" r="5"/>
<path d="M39.179,12.662c-1.115-1.079-2.596-1.652-4.187-1.596H32.6c-2.308,0-4.222,0.104-6.122,1.448l-5.366,4.517h-6.418
	c-1.258,0-2.348,0.902-2.594,2.166c-0.11,0.728,0.082,1.423,0.541,1.956c0.487,0.565,1.216,0.89,1.999,0.89h8
	c0.542,0,2.198-1.208,4.927-3.594L29.5,48.414c0,0.783,0.729,1.523,1.5,1.523h5.1c0.827,0,1.5-0.684,1.5-1.51l0.387-13.844H38.7
	c1.269,0,2.3-1.051,2.3-2.343V17.093C41,15.372,40.354,13.798,39.179,12.662z"/>
<path style="fill:none;stroke:#000000;stroke-width:2;stroke-linecap:round;stroke-miterlimit:10;" d="M9,32l1.9,16.1
	c0.1,0.5,0.5,0.9,1,0.9h8.2c0.5,0,0.9-0.4,1-0.9L23,32"/>
<g>
	<path d="M16.479,20.122c-0.297-0.163-0.66-0.163-0.957,0C13.129,21.427,11,25.971,11,28.637C11,31.594,13.243,34,16,34
		s5-2.406,5-5.363C21,25.971,18.871,21.427,16.479,20.122z"/>
	<path d="M14.359,17.342c0.306,0.459,0.925,0.583,1.387,0.277c0.088-0.059,0.163-0.128,0.226-0.206
		c0.068,0.094,0.153,0.177,0.256,0.246c0.171,0.114,0.363,0.168,0.554,0.168c0.323,0,0.641-0.156,0.833-0.445l1.218-1.827
		c0.204-0.307,0.224-0.701,0.05-1.026S18.369,14,18,14h-4c-0.369,0-0.708,0.203-0.882,0.528s-0.154,0.72,0.05,1.026L14.359,17.342z"
		/>
</g>
</svg>