<?xml version="1.0" encoding="iso-8859-1"?><!-- Generator: Adobe Illustrator 22.0.0, SVG Export Plug-In . SVG Version: 6.00 Build 0)  --><svg xmlns="http://www.w3.org/2000/svg" xmlns:xlink="http://www.w3.org/1999/xlink" viewBox="0 0 50 50" width="50px" height="50px"><path d="M44.949,10.684l-0.103-0.309c-1.287-3.861-3.361-5.935-7.222-7.222l-0.308-0.103c-0.337-0.113-0.708-0.038-0.975,0.196L14.579,22.165l11.256,11.256l18.917-21.763C44.986,11.392,45.061,11.021,44.949,10.684z"/><path style="fill:none;stroke:#000000;stroke-width:2;stroke-linecap:round;stroke-linejoin:round;stroke-miterlimit:10;" d="M32,33c6.789-0.709,12-6.524,12-13.5c0-0.277,0.017-0.228,0-0.5"/><path style="fill:none;stroke:#000000;stroke-width:2;stroke-linecap:round;stroke-linejoin:round;stroke-miterlimit:10;" d="M32,38c9.532-0.745,17-8.775,17-18.5c0-0.486,0-0.5,0-0.5"/><path d="M24,35c0.165,0,0.319-0.05,0.461-0.125L13.125,23.539C13.05,23.681,13,23.835,13,24v5.586L18.414,35H24z"/><path d="M12.707,37.293L14.414,39L17,36.414L11.586,31L1.293,41.293c-0.391,0.391-0.391,1.023,0,1.414l4,4C5.488,46.902,5.744,47,6,47s0.512-0.098,0.707-0.293L9,44.414l-1.707-1.707c-0.391-0.391-0.391-1.023,0-1.414s1.023-0.391,1.414,0L10.414,43L13,40.414l-1.707-1.707c-0.391-0.391-0.391-1.023,0-1.414S12.316,36.902,12.707,37.293z"/></svg>