<?xml version="1.0" encoding="iso-8859-1"?><!-- Generator: Adobe Illustrator 19.1.1, SVG Export Plug-In . SVG Version: 6.00 Build 0)  --><svg xmlns="http://www.w3.org/2000/svg" xmlns:xlink="http://www.w3.org/1999/xlink" viewBox="0 0 50 50" width="50px" height="50px"><path d="M19,4H5C2.243,4,0,6.243,0,9v29c0,2.757,2.243,5,5,5h16c1.654,0,3,1.346,3,3V9C24,6.243,21.757,4,19,4z M13,24c0,1.833,0,4,0,8s-0.392,5-1.475,5S10,36.25,10,32s0-6.167,0-8c0-1.833-3-1.333-3-6c0-3.25,1.583-8,4.417-8C14.25,10,16,14.5,16,18C16,22.75,13,22.167,13,24z"/><path d="M45,4H31c-2.757,0-5,2.243-5,5v37c0-1.654,1.346-3,3-3h16c2.757,0,5-2.243,5-5V9C50,6.243,47.757,4,45,4z M40,34h-9c-0.552,0-1-0.447-1-1s0.448-1,1-1h9c0.552,0,1,0.447,1,1S40.552,34,40,34z M40,29h-9c-0.552,0-1-0.447-1-1s0.448-1,1-1h9c0.552,0,1,0.447,1,1S40.552,29,40,29z M40,24h-9c-0.552,0-1-0.447-1-1s0.448-1,1-1h9c0.552,0,1,0.447,1,1S40.552,24,40,24z M40,19h-9c-0.552,0-1-0.447-1-1s0.448-1,1-1h9c0.552,0,1,0.447,1,1S40.552,19,40,19z M40,14h-9c-0.552,0-1-0.447-1-1s0.448-1,1-1h9c0.552,0,1,0.447,1,1S40.552,14,40,14z M45,34h-1c-0.552,0-1-0.447-1-1s0.448-1,1-1h1c0.552,0,1,0.447,1,1S45.552,34,45,34z M45,29h-1c-0.552,0-1-0.447-1-1s0.448-1,1-1h1c0.552,0,1,0.447,1,1S45.552,29,45,29z M45,24h-1c-0.552,0-1-0.447-1-1s0.448-1,1-1h1c0.552,0,1,0.447,1,1S45.552,24,45,24z M45,19h-1c-0.552,0-1-0.447-1-1s0.448-1,1-1h1c0.552,0,1,0.447,1,1S45.552,19,45,19z M45,14h-1c-0.552,0-1-0.447-1-1s0.448-1,1-1h1c0.552,0,1,0.447,1,1S45.552,14,45,14z"/></svg>