<?xml version="1.0" encoding="iso-8859-1"?>
<!-- Generator: Adobe Illustrator 22.1.0, SVG Export Plug-In . SVG Version: 6.00 Build 0)  -->
<svg version="1.1" id="Layer_1" xmlns="http://www.w3.org/2000/svg" xmlns:xlink="http://www.w3.org/1999/xlink" x="0px" y="0px"
	 viewBox="0 0 50 50" style="enable-background:new 0 0 50 50;" xml:space="preserve">
<path d="M34,7c2.4,0,5.6,0.5,6,5.1c0,0.5,0.5,0.9,1,0.9c0.8,0,3.3,0.1,4.4,1.8c0.8,1.3,0.7,3.2-0.4,5.8c-0.2,0.5,0,1.1,0.5,1.3
	C45.7,22,45.9,22,46,22c0.4,0,0.8-0.2,0.9-0.6c1.4-3.3,1.4-5.9,0.2-7.7c-1.3-2-3.7-2.5-5.2-2.6c-0.5-2.9-2.3-6-7.9-6
	c-0.6,0-1,0.4-1,1S33.4,7,34,7z"/>
<path d="M32.9,17c5.1,0.7,6.6,1.6,7.2,4.2c0.1,0.5,0.5,0.8,1,0.8c0.1,0,0.1,0,0.2,0c0.5-0.1,0.9-0.6,0.8-1.2c-0.8-4-3.6-5.1-8.9-5.8
	c-3.3-0.4-5.3-1.5-6-3.3c-0.8-2.4,1.1-5.5,1.5-6c0.4-0.4,0.4-1,0-1.4s-1-0.4-1.4,0c-0.65,0.65-2.327,3.28-2.3,6.121
	c0.006,0.656,0.075,1.322,0.3,1.979C26.2,14.9,28.7,16.5,32.9,17z"/>
<path d="M47,24h-2v12h2c1.654,0,3-1.346,3-3v-6C50,25.346,48.654,24,47,24z"/>
<polygon points="38,24.051 38,36 43,36 43,24 "/>
<path d="M36,24L2.704,25.906C1.188,25.988,0,27.304,0,28.902v2.195c0,1.599,1.188,2.914,2.704,2.996L36,36V24z"/>
</svg>