<?xml version="1.0" encoding="utf-8"?><!-- Generator: Adobe Illustrator 15.0.0, SVG Export Plug-In . SVG Version: 6.00 Build 0)  --><!DOCTYPE svg PUBLIC "-//W3C//DTD SVG 1.1//EN" "http://www.w3.org/Graphics/SVG/1.1/DTD/svg11.dtd"><svg xmlns="http://www.w3.org/2000/svg" xmlns:xlink="http://www.w3.org/1999/xlink" viewBox="0 0 50 50" width="50px" height="50px"><rect fill="none" width="50" height="50"/><path d="M36.582,40.998c-0.802,0-1.563-0.372-2.142-1.048c-0.129-0.154-0.291-0.366-0.49-0.628C32.631,37.594,29.125,33,25.1,33c-4.952,0-7.276,3.76-8.814,6.247l-0.237,0.383c-0.498,0.847-1.406,1.366-2.416,1.366c-0.891,0-1.708-0.415-2.185-1.11c-0.305-0.444-0.734-1.405-0.181-2.845c0.155-0.352,0.46-0.876,1.035-1.854c0.792-1.349,2.647-4.508,2.701-5.259c0.038-0.252,0.044-0.461,0.056-0.707c0.017-0.371,0.038-0.817,0.104-1.311c-0.688,0.263-1.113,1.101-1.269,2.499c-0.087,0.789-0.714,1.32-1.56,1.32c-0.867,0-1.979-0.552-2.584-1.07c-0.648-0.646-0.787-1.634-0.62-2.303c0.617-3.507,2.725-5.558,5.77-5.558c1.02,0,1.951,0.219,2.83,0.668c1.013-0.454,2.164-0.668,3.57-0.668c0.786,0,1.402,0.099,1.999,0.195c0.627,0.101,1.275,0.205,2.201,0.205c2.554,0,3.894-1.494,4.868-2.955c1.066-1.579,3.06-3.455,6.515-3.455c0.224,0,0.417,0.007,0.573,0.013l0.206,0.006C38.352,16.715,39,17.303,39,18c0,0.228-0.077,0.447-0.218,0.624c-0.018,0.067-0.025,0.179-0.021,0.26c2.275,3.103,2.255,5.214,2.24,6.615L41,25.8c0,0.639-0.213,1.229-0.6,1.663c-0.392,0.439-0.938,0.691-1.496,0.691l0,0c-0.493,0-0.958-0.194-1.311-0.546c-0.227-0.227-0.416-0.428-0.588-0.611c-0.486-0.518-0.755-0.803-1.354-1.103c0,0-0.029-0.013-0.058-0.026c-0.213,0.237-0.61,1.204-0.695,3.077c-0.037,0.56,0.763,2.181,1.469,3.61c0.802,1.623,1.709,3.462,2.378,5.421c0.248,0.744,0.148,1.5-0.272,2.083C38.051,40.646,37.344,40.998,36.582,40.998z"/><path d="M49.1,50H1c-0.552,0-1-0.447-1-1v-3.4C0,44.142,1.142,43,2.6,43h44.9c1.458,0,2.6,1.142,2.6,2.6V49C50.1,49.553,49.652,50,49.1,50z"/><path d="M26,41v-6c0-0.553-0.448-1-1-1s-1,0.447-1,1v6H26z"/><path d="M4.742,15.056c-0.27,0-0.543-0.023-0.813-0.07C1.692,14.613,0,12.512,0,10.1c0-1.387,0.822-2.648,2.093-3.214c0.039-0.017,0.078-0.032,0.118-0.043l22.5-6.8c0.19-0.058,0.393-0.056,0.582,0.001l22.5,6.9C49.122,7.387,50,8.652,50,10.1c0,2.412-1.691,4.513-3.936,4.886c-0.256,0.034-0.474,0.048-0.689,0.048l0,0c-1.569,0-2.938-0.714-3.804-1.839C40.702,14.287,39.366,15,37.9,15c-1.561,0-2.946-0.765-3.802-1.939C33.068,14.228,31.418,15,29.6,15c-1.945,0-3.63-0.792-4.63-2.022C23.945,14.191,22.261,15,20.4,15c-1.89,0-3.533-0.748-4.542-1.917C14.993,14.237,13.616,15,12.1,15c-1.49,0-2.821-0.697-3.682-1.782C7.564,14.335,6.234,15.056,4.742,15.056z"/><path d="M24.953,15.639C24.651,15.84,24.33,16.015,24,16.174V21.3c0,0.552,0.448,1,1,1s1-0.448,1-1v-5.072C25.633,16.058,25.283,15.861,24.953,15.639z"/></svg>