<?xml version="1.0" encoding="utf-8"?><!-- Generator: Adobe Illustrator 15.0.0, SVG Export Plug-In . SVG Version: 6.00 Build 0)  --><!DOCTYPE svg PUBLIC "-//W3C//DTD SVG 1.1//EN" "http://www.w3.org/Graphics/SVG/1.1/DTD/svg11.dtd"><svg xmlns="http://www.w3.org/2000/svg" xmlns:xlink="http://www.w3.org/1999/xlink" viewBox="0 0 50 50" width="50px" height="50px"><line fill="none" stroke="#000000" stroke-width="2" stroke-linecap="round" stroke-linejoin="round" stroke-miterlimit="10" x1="23" y1="18" x2="28" y2="13"/><line fill="none" stroke="#000000" stroke-width="2" stroke-linejoin="round" stroke-miterlimit="10" x1="4" y1="14" x2="4" y2="0"/><path d="M47.499,37.999H2.501c-1.379,0-2.501-1.121-2.501-2.5S1.122,33,2.501,33h44.998C48.878,33,50,34.12,50,35.499S48.878,37.999,47.499,37.999z"/><path d="M30.657,15H25v7.991C11.317,22.75,6.391,17.583,5.2,16H2.729C1.801,17.293,0,20.393,0,25c0,2.836,0.474,4.884,0.987,6.279c0.475-0.171,0.98-0.28,1.514-0.28h44.998c0.149,0,0.29,0.03,0.436,0.044C47.265,22.087,39.781,15,30.657,15z"/></svg>