<?xml version="1.0" encoding="iso-8859-1"?>
<!-- Generator: Adobe Illustrator 23.0.6, SVG Export Plug-In . SVG Version: 6.00 Build 0)  -->
<svg version="1.1" id="Layer_1" xmlns="http://www.w3.org/2000/svg" xmlns:xlink="http://www.w3.org/1999/xlink" x="0px" y="0px"
	 viewBox="0 0 50 50" style="enable-background:new 0 0 50 50;" xml:space="preserve">
<g>
	<path d="M43,16V3H26v5h-2V3H7v13l3,4v10l-3,4v13h17v-5h2v5h17V34l-3-4V20L43,16z M24,10h2v5h-2V10z M19,31h-4V19h4V31z M26,40h-2
		v-5h2V40z M27,31h-4V19h4V31z M35,31h-4V19h4V31z"/>
</g>
<g>
	<polygon points="8,25 2,31 2,19 	"/>
</g>
<g>
	<polygon points="42,25 48,31 48,19 	"/>
</g>
</svg>