<?xml version="1.0" encoding="utf-8"?><!-- Generator: Adobe Illustrator 15.0.0, SVG Export Plug-In . SVG Version: 6.00 Build 0)  --><!DOCTYPE svg PUBLIC "-//W3C//DTD SVG 1.1//EN" "http://www.w3.org/Graphics/SVG/1.1/DTD/svg11.dtd"><svg xmlns="http://www.w3.org/2000/svg" xmlns:xlink="http://www.w3.org/1999/xlink" viewBox="0 0 50 50" width="50px" height="50px"><path d="M10,18c-4.411,0-8-3.589-8-8s3.589-8,8-8s8,3.589,8,8S14.411,18,10,18z"/><path d="M45,25H33c-2.243,0-5-0.757-5-3c0-0.552,0.447-1,1-1h20c0.553,0,1,0.448,1,1C50,24.243,47.243,25,45,25z"/><path fill="none" stroke="#000000" stroke-width="2" stroke-linecap="round" stroke-linejoin="round" stroke-miterlimit="10" d="M46,19H31l0,0"/><path d="M48,15h-4V8c0-0.552-0.447-1-1-1h-7c-0.553,0-1,0.448-1,1v7h-1c-0.553,0-1,0.448-1,1s0.447,1,1,1h14c0.553,0,1-0.448,1-1S48.553,15,48,15z"/><polyline fill="none" stroke="#000000" stroke-width="2" stroke-linecap="round" stroke-linejoin="round" stroke-miterlimit="10" points="46,16 46,12 43,12 "/><path d="M31.531,26l-3.872,3.753l-5.631-8.314c-0.036-0.052-0.076-0.102-0.121-0.146C20.676,20.063,15.938,20,15,20c-0.463,0-0.866,0.318-0.973,0.769L10,39.683L5.973,20.769C5.866,20.318,5.463,20,5,20c-0.702,0-2.875,0.215-4.152,0.412C0.36,20.486,0,20.906,0,21.4V47c0,0.553,0.448,1,1,1h20c0.552,0,1-0.447,1-1V35.15l2.678,3.043C25.455,39.081,26.258,40,27.5,40c1.263,0,1.915-0.586,2.913-1.919c0.348-0.486,4.582-5.427,7.294-8.574c0.295-0.292,1.838-0.726,2.858-1.013c2.163-0.609,4.386-1.234,5.153-2.494H31.531z"/></svg>