<?xml version="1.0" encoding="iso-8859-1"?>
<!-- Generator: Adobe Illustrator 23.0.3, SVG Export Plug-In . SVG Version: 6.00 Build 0)  -->
<svg version="1.1" id="Layer_1" xmlns="http://www.w3.org/2000/svg" xmlns:xlink="http://www.w3.org/1999/xlink" x="0px" y="0px"
	 viewBox="0 0 50 50" style="enable-background:new 0 0 50 50;" xml:space="preserve">
<g>
	<path d="M35.282,6.498C32.572,3.577,28.903,1.985,24.914,2c-6.99,0.042-12.925,5.313-13.804,12.258
		c-0.195,1.544-0.13,3.106,0.199,4.666l4.406,18.763C16.037,39.049,17.238,40,18.637,40H21v7c0,0.552,0.448,1,1,1h0
		c0.552,0,1-0.448,1-1v-7h4v7c0,0.552,0.448,1,1,1h0c0.552,0,1-0.448,1-1v-7h2.424c1.397,0,2.609-0.965,2.923-2.326l4.414-19.161
		c0.004-0.017,0.007-0.032,0.01-0.049c0.257-1.441,0.295-2.716,0.131-4.043C38.539,11.479,37.298,8.67,35.282,6.498z M18.071,18
		c-0.852,0-1.667-0.365-2.237-1.001c-0.567-0.634-0.84-1.479-0.747-2.319c0.003-0.025,0.014-0.099,0.019-0.124
		c0.188-1.343,0.657-2.593,1.331-3.705l0.73,0.73c0.195,0.195,0.451,0.293,0.707,0.293s0.512-0.098,0.707-0.293
		c0.391-0.391,0.391-1.023,0-1.414l-0.93-0.93C19.277,7.481,21.519,6.305,24,6.054V7c0,0.553,0.447,1,1,1s1-0.447,1-1V6.054
		c2.476,0.252,4.716,1.427,6.344,3.188l-0.928,0.928c-0.391,0.391-0.391,1.023,0,1.414c0.195,0.195,0.451,0.293,0.707,0.293
		s0.512-0.098,0.707-0.293l0.728-0.728c0.674,1.112,1.146,2.361,1.34,3.708c0.009,0.069,0.017,0.145,0.023,0.231
		c0.064,0.813-0.219,1.63-0.779,2.235C33.574,17.646,32.767,18,31.929,18H18.071z M22,24v6c0,0.553-0.447,1-1,1s-1-0.447-1-1v-6
		c0-0.553,0.447-1,1-1S22,23.447,22,24z M31.922,26.027c0-2.205,1.782-3.997,3.982-4.023l-1.753,7.611
		C32.826,28.945,31.922,27.573,31.922,26.027z"/>
	<path d="M26,15.278V12c0-0.553-0.447-1-1-1s-1,0.447-1,1v3.278c-0.595,0.347-1,0.985-1,1.722h4C27,16.263,26.595,15.625,26,15.278z
		"/>
</g>
</svg>