<?xml version="1.0" encoding="utf-8"?><!-- Generator: Adobe Illustrator 15.0.0, SVG Export Plug-In . SVG Version: 6.00 Build 0)  --><!DOCTYPE svg PUBLIC "-//W3C//DTD SVG 1.1//EN" "http://www.w3.org/Graphics/SVG/1.1/DTD/svg11.dtd"><svg xmlns="http://www.w3.org/2000/svg" xmlns:xlink="http://www.w3.org/1999/xlink" viewBox="0 0 50 50" width="50px" height="50px"><line fill="none" stroke="#000000" stroke-width="2" stroke-linecap="round" stroke-linejoin="round" stroke-miterlimit="10" x1="4" y1="4" x2="46" y2="46"/><polygon points="34.777,39 18.708,23 9.05,23 11.351,39 "/><path d="M36.786,41H11.638l0.762,5.3c0.2,1.5,1.6,2.7,3.2,2.7h20.9c1.6,0,3-1.2,3.2-2.7l0.3-2.1L36.786,41z"/><polygon points="21.899,23 40.3,41.4 42.948,23 "/><polygon points="15.899,17 19.9,21 21,22.1 21,21 43.236,21 43.812,17 "/><path d="M40.4,5h-0.5l-0.2-0.8C39.1,2.3,37.4,1,35.4,1H16.6c-2,0-3.7,1.3-4.3,3.2L12.1,5h-0.5c-2.1,0-4,1-5.2,2.5l7.5,7.5h30.894v0H46c0.6,0,1-0.4,1-1v-2.4C47,8,44,5,40.4,5z"/><path d="M6,15h1.9h2.8L5.3,9.6c-0.2,0.6-0.3,1.3-0.3,2V14C5,14.6,5.4,15,6,15z"/><polygon points="12.7,17 8.188,17 8.763,21 16.7,21 "/></svg>