<?xml version="1.0" encoding="iso-8859-1"?><!-- Generator: Adobe Illustrator 21.1.0, SVG Export Plug-In . SVG Version: 6.00 Build 0)  --><svg xmlns="http://www.w3.org/2000/svg" xmlns:xlink="http://www.w3.org/1999/xlink" viewBox="0 0 50 50" width="50px" height="50px"><path d="M25,2C12.318,2,2,12.317,2,25s10.318,23,23,23s23-10.317,23-23S37.682,2,25,2z M21.7,26c0,2.2,1.3,4.2,1.3,9s-1.7,6-3,6s-3-0.9-3-6c0-5.1,1.3-6.8,1.3-9S14,24.6,14,19c0-5,0.8-8,0.8-8s1.1,0,5,0c3.9,0,5.3,0,5.3,0s0.9,4.7,0.9,8C26,24.7,21.7,23.8,21.7,26z M34,36c0,3-0.5,5-2,5s-2-1.2-2-6c0-3.2,0-24,0-24c5.1,2.5,6,7,6,9.6c0,4.4-3,6.5-3,9.4C33,31.7,34,33,34,36z"/><line style="fill:none;stroke:#000000;stroke-width:2;stroke-linecap:round;stroke-miterlimit:10;" x1="22" y1="11.1" x2="22" y2="19"/><line style="fill:none;stroke:#000000;stroke-width:2;stroke-linecap:round;stroke-miterlimit:10;" x1="18" y1="11.1" x2="18" y2="19"/></svg>