<?xml version="1.0" encoding="iso-8859-1"?>
<!-- Generator: Adobe Illustrator 23.0.3, SVG Export Plug-In . SVG Version: 6.00 Build 0)  -->
<svg version="1.1" id="Layer_1" xmlns="http://www.w3.org/2000/svg" xmlns:xlink="http://www.w3.org/1999/xlink" x="0px" y="0px"
	 viewBox="0 0 50 50" style="enable-background:new 0 0 50 50;" xml:space="preserve">
<g>
	<rect x="6" y="18" width="2" height="21"/>
	<path d="M45,41H5c-1.7,0-3,1.3-3,3v2h46v-2C48,42.3,46.7,41,45,41z"/>
	<rect x="42" y="18" width="2" height="21"/>
	<path d="M47.4,12.4L25.4,2.1c-0.15-0.05-0.301-0.074-0.451-0.074S24.65,2.05,24.5,2.1L2.5,12.4c-0.3,0.2-0.5,0.5-0.5,0.9V15
		c0,0.6,0.4,1,1,1h8c0.5,0,1,0.5,1,1s-0.5,1-1,1h-1v21h30V18h-1c-0.5,0-1-0.5-1-1s0.5-1,1-1h8c0.6,0,1-0.4,1-1v-1.699
		C48,12.901,47.8,12.6,47.4,12.4z M14.469,35.125c-0.276,0-0.5-0.224-0.5-0.5V18c0-0.276,0.224-0.5,0.5-0.5
		c0.085,0,6.538,0.502,9.531,1.652v17.795C21.609,35.622,17.141,35.125,14.469,35.125z M36,34.625c0,0.276-0.224,0.5-0.5,0.5
		c-2.663,0-7.117,0.497-9.5,1.821V19.15c2.986-1.149,9.415-1.65,9.5-1.65c0.276,0,0.5,0.224,0.5,0.5V34.625z"/>
</g>
</svg>