<?xml version="1.0" encoding="iso-8859-1"?>
<!-- Generator: Adobe Illustrator 23.0.3, SVG Export Plug-In . SVG Version: 6.00 Build 0)  -->
<svg version="1.1" id="Layer_1" xmlns="http://www.w3.org/2000/svg" xmlns:xlink="http://www.w3.org/1999/xlink" x="0px" y="0px"
	 viewBox="0 0 50 50" style="enable-background:new 0 0 50 50;" xml:space="preserve">
<g>
	<path d="M41.999,40.664c-0.467,0-0.885-0.329-0.98-0.805l-3.122-15.692c-0.107-0.542,0.244-1.068,0.786-1.176
		c0.544-0.106,1.068,0.245,1.176,0.786l3.122,15.692c0.107,0.542-0.244,1.068-0.786,1.176
		C42.129,40.657,42.063,40.664,41.999,40.664z"/>
</g>
<g>
	<path d="M39.268,26.808c-0.458,0-0.87-0.316-0.975-0.781L33.976,6.82C33.877,6.337,33.464,6,32.991,6H28c-0.552,0-1-0.448-1-1
		s0.448-1,1-1h4.991c1.42,0,2.656,1.01,2.94,2.401l4.313,19.187c0.121,0.539-0.217,1.074-0.756,1.195
		C39.414,26.8,39.34,26.808,39.268,26.808z"/>
</g>
<g>
	<path d="M42,46c-3.309,0-6-2.691-6-6s2.691-6,6-6s6,2.691,6,6S45.309,46,42,46z M42,36c-2.206,0-4,1.794-4,4s1.794,4,4,4
		s4-1.794,4-4S44.206,36,42,36z"/>
</g>
<g>
	<path d="M8,46c-3.309,0-6-2.691-6-6s2.691-6,6-6s6,2.691,6,6S11.309,46,8,46z M8,36c-2.206,0-4,1.794-4,4s1.794,4,4,4s4-1.794,4-4
		S10.206,36,8,36z"/>
</g>
<g>
	<path d="M8,42c-1.103,0-2-0.897-2-2s0.897-2,2-2s2,0.897,2,2S9.103,42,8,42z M8,39.999V40V39.999z"/>
</g>
<g>
	<path d="M42,42c-1.103,0-2-0.897-2-2s0.897-2,2-2s2,0.897,2,2S43.103,42,42,42z M42,39.999V40V39.999z"/>
</g>
<g>
	<path d="M16.488,38c-0.412,0-0.798-0.257-0.943-0.667C14.417,34.143,11.385,32,8,32c-1.301,0-2.542,0.303-3.689,0.899
		c-0.491,0.255-1.094,0.065-1.349-0.426c-0.255-0.49-0.064-1.094,0.426-1.349C4.802,30.389,6.397,30,8,30
		c4.231,0,8.021,2.679,9.431,6.666c0.184,0.521-0.089,1.092-0.609,1.276C16.711,37.981,16.599,38,16.488,38z"/>
</g>
<path d="M40.071,28.474c-0.447-0.323-1.073-0.223-1.396,0.224L32.662,37H13c-0.552,0-1,0.448-1,1s1,2.559,1,3c0,0.552,0.448,1,1,1
	h17c0.321,0,0.622-0.154,0.81-0.414l8.484-11.716C40.618,29.423,40.518,28.798,40.071,28.474z"/>
</svg>