<?xml version="1.0" encoding="iso-8859-1"?>
<!-- Generator: Adobe Illustrator 25.2.1, SVG Export Plug-In . SVG Version: 6.00 Build 0)  -->
<svg version="1.1" id="Layer_1" xmlns="http://www.w3.org/2000/svg" xmlns:xlink="http://www.w3.org/1999/xlink" x="0px" y="0px"
	 viewBox="0 0 50 50" style="enable-background:new 0 0 50 50;" xml:space="preserve">
<g>
	<path d="M33.62,34l-2-4H27v18h19V34H33.62z M33,44h-3v-2h3V44z M33,40h-3v-2h3V40z M38,44h-3v-2h3V44z M38,40h-3v-2h3V40z M43,44
		h-3v-2h3V44z M43,40h-3v-2h3V40z"/>
	<path d="M33.86,30l1,2H45v-8h-2v2h-5.5v-2h-2v2H30v-2h-2v4h7.5v2H33.86z M37.5,28H43v2h-5.5V28z"/>
	<path d="M45,20h-4.086L37.5,16.586V15h-2v1.586L32.086,20H28v2h17V20z M36.5,18.414L38.086,20h-3.172L36.5,18.414z"/>
	<path d="M20,10c0-3.309-2.691-6-6-6H7v12h13V10z M18,11h-5V6h1c2.206,0,4,1.794,4,4V11z"/>
	<rect x="4" y="44" width="18" height="4"/>
	<rect x="8" y="38" width="10" height="4"/>
	<rect x="10" y="18" width="6" height="18"/>
	<rect x="3" y="9" width="2" height="4"/>
	<path d="M45,13V9H21.94C21.98,9.33,22,9.66,22,10v3H45z"/>
</g>
</svg>