<?xml version="1.0" encoding="iso-8859-1"?><!-- Generator: Adobe Illustrator 21.1.0, SVG Export Plug-In . SVG Version: 6.00 Build 0)  --><svg xmlns="http://www.w3.org/2000/svg" xmlns:xlink="http://www.w3.org/1999/xlink" viewBox="0 0 50 50" width="50px" height="50px"><path d="M16,32h-6v-4h6V32z M16,24h-6v-4h6V24z M16,16h-6v-4h6V16z M28,32h-6v-4h6V32z M28,24h-6v-4h6V24z M28,16h-6v-4h6V16z M40,40h-6v-4h6V40z M40,32h-6v-4h6V32z M40,24h-6v-4h6V24z M40,16h-6v-4h6V16z M40.7,7H9.3C6.33,7,4,9.33,4,12.3V45c0,0.55,0.45,1,1,1h17V36h6v10h17c0.55,0,1-0.45,1-1V12.3C46,9.33,43.67,7,40.7,7z M16,40h-6v-4h6V40z"/><polygon points="20.897,0 22.026,2.333 24.59,2.638 22.641,4.362 23.154,7 20.897,5.681 18.641,7 19.154,4.362 17.205,2.638 19.769,2.333 "/><polygon points="29.103,0 30.231,2.333 32.795,2.638 30.846,4.362 31.359,7 29.103,5.681 26.846,7 27.359,4.362 25.41,2.638 27.974,2.333 "/><polygon points="37.308,0 38.436,2.333 41,2.638 39.051,4.362 39.564,7 37.308,5.681 35.051,7 35.564,4.362 33.615,2.638 36.179,2.333 "/><polygon points="12.692,0 13.821,2.333 16.385,2.638 14.436,4.362 14.949,7 12.692,5.681 10.436,7 10.949,4.362 9,2.638 11.564,2.333 "/></svg>