<?xml version="1.0" encoding="utf-8"?><!-- Generator: Adobe Illustrator 15.0.0, SVG Export Plug-In . SVG Version: 6.00 Build 0)  --><!DOCTYPE svg PUBLIC "-//W3C//DTD SVG 1.1//EN" "http://www.w3.org/Graphics/SVG/1.1/DTD/svg11.dtd"><svg xmlns="http://www.w3.org/2000/svg" xmlns:xlink="http://www.w3.org/1999/xlink" viewBox="0 0 50 50" width="50px" height="50px"><path d="M48.999,17c-0.15,0-0.303-0.034-0.446-0.105L25,5.118L1.447,16.895c-0.495,0.248-1.095,0.047-1.342-0.447s-0.047-1.095,0.447-1.342l24-12c0.281-0.141,0.613-0.141,0.895,0l24,12c0.494,0.247,0.694,0.848,0.447,1.342C49.719,16.798,49.366,17,48.999,17z"/><g><path d="M2.416,41.216c0.372-0.295,4.217-3.19,11.584-3.19c4.876,0,8.214,1.272,10.022,2.218V19.92v-1.715c-1.803-0.921-5.143-2.183-10.022-2.183c-7.496,0-11.437,2.999-11.601,3.126c-0.238,0.185-0.377,0.47-0.377,0.772V41H2v0.528C2.202,41.374,2.352,41.263,2.416,41.216z"/><path d="M25.978,19.92v20.323c1.807-0.945,5.146-2.218,10.022-2.218c7.595,0,11.458,3.086,11.619,3.218c0.102,0.077,0.225,0.17,0.358,0.272V19.92c0-0.302-0.139-0.587-0.377-0.772c-0.164-0.127-4.105-3.126-11.601-3.126c-4.879,0-8.219,1.262-10.022,2.183V19.92z"/><path d="M46.402,42.802c-0.028-0.021-0.04-0.055-0.065-0.078C45.895,42.396,42.414,39.98,36,39.98c-6.846,0-10.35,2.752-10.384,2.779c-0.018,0.015-0.041,0.02-0.059,0.033c-0.045,0.031-0.087,0.066-0.138,0.091c-0.014,0.007-0.03,0.004-0.045,0.01c-0.115,0.048-0.234,0.078-0.357,0.08c-0.006,0-0.011,0.004-0.017,0.004c-0.132,0-0.26-0.035-0.383-0.088c-0.013-0.005-0.026-0.003-0.039-0.009c-0.045-0.021-0.082-0.054-0.122-0.081c-0.024-0.017-0.053-0.024-0.076-0.043C24.35,42.732,20.846,39.98,14,39.98S3.65,42.732,3.616,42.76c0,0-0.982,0.746-1.616,1.274V45c0,0.553,0.448,1,1,1h17.474c0.597,0.752,1.973,2,4.526,2s3.929-1.248,4.526-2H47c0.553,0,1-0.447,1-1v-0.961C47.469,43.611,46.872,43.151,46.402,42.802z"/></g></svg>