<?xml version="1.0" encoding="iso-8859-1"?>
<!-- Generator: Adobe Illustrator 23.0.3, SVG Export Plug-In . SVG Version: 6.00 Build 0)  -->
<svg version="1.1" id="Layer_1" xmlns="http://www.w3.org/2000/svg" xmlns:xlink="http://www.w3.org/1999/xlink" x="0px" y="0px"
	 viewBox="0 0 50 50" style="enable-background:new 0 0 50 50;" xml:space="preserve">
<path style="fill:none;stroke:#000000;stroke-width:2;stroke-linecap:round;stroke-miterlimit:10;" d="M25,3c4,0,7,3,7,3s2-1,4-1
	c3,0,5,2,5,2"/>
<path style="fill:none;stroke:#000000;stroke-width:2;stroke-linecap:round;stroke-miterlimit:10;" d="M26,8c-7,0-10-5-10-5"/>
<path d="M45.936,25l-1-15h-6.871l-0.867,13H42v2H32V13.581L18,20v-6.419L2,20.714V48h46V25H45.936z M9,42H7v-4h2V42z M9,35H7v-4h2
	V35z M9,28H7v-4h2V28z M13,42h-2v-4h2V42z M13,35h-2v-4h2V35z M13,28h-2v-4h2V28z M18,42h-2v-4h2V42z M18,35h-2v-4h2V35z M18,28h-2
	v-4h2V28 M23,42h-2v-4h2V42z M23,35h-2v-4h2V35z M23,28h-2v-4h2V28z M27,42h-2v-4h2V42z M27,35h-2v-4h2V35z M27,28h-2v-4h2V28z
	 M37,33h-4v-2h4V33z M43,33h-4v-2h4V33z"/>
</svg>