<?xml version="1.0" encoding="iso-8859-1"?><!-- Generator: Adobe Illustrator 19.1.1, SVG Export Plug-In . SVG Version: 6.00 Build 0)  --><svg xmlns="http://www.w3.org/2000/svg" xmlns:xlink="http://www.w3.org/1999/xlink" viewBox="0 0 50 50" width="50px" height="50px"><path style="fill:none;stroke:#000000;stroke-width:2;stroke-linecap:round;stroke-miterlimit:10;" d="M34,20c0-2.557-1.448-5.152-3-7c-1.593-1.898-7-8-7-8"/><path d="M12.393,24.808c0.529,0.49,1.07,1.01,1.604,1.581V38h22.008V20c0-0.555-0.449-1.004-1.004-1.004H21.042l-0.638-1.385c-0.231-0.501-0.825-0.721-1.326-0.49c-0.502,0.231-0.722,0.825-0.49,1.327l4.276,9.282c1.73,3.244,2.062,5.025,1.073,5.775c-0.566,0.43-1.243,0.598-1.941,0.488c-1.059-0.164-2.102-0.906-2.938-2.09c-1.68-2.375-2.841-5.9-2.852-5.936l-0.062-0.188l-0.128-0.15c-0.767-0.901-1.528-1.607-2.266-2.29C11.573,21.325,10,19.868,10,14.883V5c0-0.552-0.447-1-1-1S8,4.448,8,5v9.883C8,20.742,10.134,22.717,12.393,24.808z"/><path d="M42.981,30.79c-0.099-0.463-0.508-0.793-0.981-0.793h-4V36c1.103,0,2,0.897,2,2s-0.897,2-2,2H12c-1.103,0-2-0.897-2-2s0.897-2,2-2v-6.004H8c-0.474,0-0.883,0.331-0.981,0.793l-3,14c-0.063,0.296,0.01,0.606,0.2,0.842C4.41,45.867,4.696,46.004,5,46.004h40c0.304,0,0.59-0.137,0.781-0.373c0.19-0.236,0.264-0.545,0.2-0.842L42.981,30.79z"/></svg>