<?xml version="1.0" encoding="utf-8"?><!-- Generator: Adobe Illustrator 15.0.0, SVG Export Plug-In . SVG Version: 6.00 Build 0)  --><!DOCTYPE svg PUBLIC "-//W3C//DTD SVG 1.1//EN" "http://www.w3.org/Graphics/SVG/1.1/DTD/svg11.dtd"><svg xmlns="http://www.w3.org/2000/svg" xmlns:xlink="http://www.w3.org/1999/xlink" viewBox="0 0 50 50" width="50px" height="50px"><rect fill="none" width="50" height="50"/><path d="M35.9,50c-0.071,0-0.143-0.008-0.214-0.023c-0.327-0.071-0.598-0.303-0.719-0.615l-7.154-18.49L18,40.422V46c0,0.287-0.123,0.56-0.338,0.75l-3.4,3c-0.262,0.231-0.626,0.311-0.959,0.204c-0.334-0.104-0.589-0.374-0.673-0.714l-2.355-9.514L0.76,37.371c-0.364-0.09-0.647-0.377-0.733-0.742s0.04-0.747,0.326-0.99l4-3.4C4.533,32.084,4.763,32,5,32h4.581l9.546-9.721L0.635,15.031c-0.312-0.122-0.542-0.393-0.613-0.72s0.027-0.668,0.26-0.908l3.4-3.5c0.221-0.228,0.54-0.336,0.851-0.294l24.01,3.234l6.75-6.75c1.322-1.405,7.72-5.897,11.483-5.897c0.927,0,1.672,0.263,2.215,0.782c3.071,3.208-3.702,12.348-5.084,13.729l-6.75,6.75l3.234,24.009c0.042,0.314-0.067,0.63-0.294,0.851l-3.5,3.4C36.408,49.9,36.158,50,35.9,50z"/></svg>