<?xml version="1.0" encoding="iso-8859-1"?>
<!-- Generator: Adobe Illustrator 18.0.0, SVG Export Plug-In . SVG Version: 6.00 Build 0)  -->
<!DOCTYPE svg PUBLIC "-//W3C//DTD SVG 1.1//EN" "http://www.w3.org/Graphics/SVG/1.1/DTD/svg11.dtd">
<svg version="1.1" id="Layer_1" xmlns="http://www.w3.org/2000/svg" xmlns:xlink="http://www.w3.org/1999/xlink" x="0px" y="0px"
	 width="50px" height="50px" viewBox="0 0 50 50" style="enable-background:new 0 0 50 50;" xml:space="preserve">
<path d="M44,15v-4H6.01c0.019,1.951,0.028,3.193,0.016,4H44z"/>
<g>
	<polygon points="17.278,17 12.562,17 8.707,31 15.355,31 	"/>
	<polygon points="24,31 24,17 19.296,17 17.374,31 	"/>
	<polygon points="26,31 32.626,31 30.704,17 26,17 	"/>
	<polygon points="-0.004,31.001 0,31 6.632,31 10.487,17 5.793,17 	"/>
	<polygon points="41.293,31 37.438,17 32.722,17 34.645,31 	"/>
	<polygon points="50,31 50.004,31.001 44.207,17 39.513,17 43.368,31 	"/>
</g>
<g>
	<path d="M43.401,33c-0.044,0.215-0.067,0.438-0.067,0.667c0,1.838,1.495,3.333,3.333,3.333S50,35.504,50,33.667
		c0-0.228-0.023-0.451-0.067-0.667H43.401z"/>
</g>
<g>
	<path d="M34.734,33c-0.044,0.215-0.067,0.438-0.067,0.667C34.667,35.504,36.162,37,38,37s3.333-1.496,3.333-3.333
		c0-0.228-0.023-0.451-0.067-0.667H34.734z"/>
</g>
<g>
	<path d="M26.067,33C26.023,33.215,26,33.438,26,33.667C26,35.504,27.496,37,29.333,37s3.333-1.496,3.333-3.333
		c0-0.228-0.023-0.451-0.067-0.667H26.067z"/>
</g>
<g>
	<path d="M17.401,33c-0.044,0.215-0.067,0.438-0.067,0.667c0,1.838,1.495,3.333,3.333,3.333S24,35.504,24,33.667
		c0-0.228-0.023-0.451-0.067-0.667H17.401z"/>
</g>
<g>
	<path d="M8.734,33c-0.044,0.215-0.067,0.438-0.067,0.667C8.667,35.504,10.162,37,12,37s3.333-1.496,3.333-3.333
		c0-0.228-0.023-0.451-0.067-0.667H8.734z"/>
</g>
<g>
	<path d="M0.067,33C0.023,33.215,0,33.438,0,33.667C0,35.504,1.496,37,3.333,37s3.333-1.496,3.333-3.333
		c0-0.228-0.023-0.451-0.067-0.667H0.067z"/>
</g>
</svg>