<?xml version="1.0" encoding="utf-8"?><!-- Generator: Adobe Illustrator 15.0.0, SVG Export Plug-In . SVG Version: 6.00 Build 0)  --><!DOCTYPE svg PUBLIC "-//W3C//DTD SVG 1.1//EN" "http://www.w3.org/Graphics/SVG/1.1/DTD/svg11.dtd"><svg xmlns="http://www.w3.org/2000/svg" xmlns:xlink="http://www.w3.org/1999/xlink" viewBox="0 0 50 50" width="50px" height="50px"><path d="M32.001,49.955c-0.001,0-0.002,0-0.002,0C29.283,49.951,29,47.528,29,42c0-2.329,0.357-7.409,0.674-11.891c0.219-3.118,0.427-6.063,0.426-6.959c-0.001-1.444-0.044-5.598-0.073-8.413C30.012,13.299,30,12.208,30,12.001V1c0-0.336,0.169-0.65,0.449-0.835c0.281-0.186,0.637-0.216,0.944-0.084c8.047,3.448,8.68,11.583,8.682,13.993c-0.003,3.364-1.626,6.293-3.058,8.878c-1.038,1.874-2.019,3.645-2.018,5.047c0,0.703,0.282,1.558,0.64,2.641c0.574,1.735,1.359,4.113,1.36,7.36C37.001,47.878,34.282,49.953,32.001,49.955z"/><path d="M24.995,1.897l-0.051-0.495l-0.426-0.258C24.376,1.059,23.354,0.489,21,0.188V12c0,0.552-0.448,1-1,1s-1-0.448-1-1V0.025C18.63,0.011,18.247,0,17.833,0C17.543,0,17.266,0.004,17,0.012V12c0,0.552-0.448,1-1,1s-1-0.448-1-1V0.151c-2.449,0.287-3.398,0.897-3.601,1.049L11.06,1.455l-0.052,0.421C10.967,2.206,10,10,10,15c0.001,3.926,2.255,5.607,3.746,6.72C14.419,22.222,15,22.656,15,23c0,0.819-0.158,2.708-0.34,4.894C14.364,31.436,13.997,35.843,14,39c0,8.221,1.009,10.996,3.997,11h0.021c0.981,0,2.208-0.239,2.986-2.101C21.686,46.271,22.002,43.442,22,39c0-3.151-0.366-7.551-0.659-11.086C21.158,25.718,21,23.822,21,22.999c0-0.336,0.573-0.757,1.237-1.246C23.735,20.651,26,18.987,26,15C26,11.702,25.036,2.296,24.995,1.897z"/></svg>