<?xml version="1.0" encoding="utf-8"?><!-- Generator: Adobe Illustrator 15.0.0, SVG Export Plug-In . SVG Version: 6.00 Build 0)  --><!DOCTYPE svg PUBLIC "-//W3C//DTD SVG 1.1//EN" "http://www.w3.org/Graphics/SVG/1.1/DTD/svg11.dtd"><svg xmlns="http://www.w3.org/2000/svg" xmlns:xlink="http://www.w3.org/1999/xlink" viewBox="0 0 50 50" width="50px" height="50px"><g><path d="M33.091,12.961c1.052,0,2.014,0.344,2.709,1.039c1.7,1.8,1.3,5-1,7.3c-1.388,1.389-3.044,2.083-4.537,2.083c-0.55,0-1.078-0.094-1.563-0.283L14.8,37c-0.1-0.1-1.7-1.8-1.9-1.9L26.7,21.2c-0.7-1.8,0-4.3,1.8-6.1C29.86,13.681,31.569,12.961,33.091,12.961 M33.091,10.961c-2.157,0-4.356,1.004-6.035,2.755c-1.933,1.933-2.883,4.556-2.564,6.87L11.48,33.69c-0.452,0.455-0.658,1.099-0.555,1.731c0.086,0.526,0.377,0.991,0.803,1.299c0.128,0.116,0.48,0.462,1.452,1.48c0.11,0.115,0.185,0.192,0.205,0.213C13.776,38.805,14.288,39,14.8,39s1.023-0.195,1.414-0.586l13.1-13.099c0.311,0.045,0.627,0.068,0.949,0.068c2.087,0,4.257-0.973,5.952-2.669c3.047-3.047,3.503-7.479,1.039-10.087c-0.014-0.014-0.026-0.027-0.04-0.041C36.166,11.538,34.702,10.961,33.091,10.961L33.091,10.961z"/></g><path d="M45,7H5c-2.757,0-5,2.243-5,5v26c0,2.757,2.243,5,5,5h40c2.757,0,5-2.243,5-5V12C50,9.243,47.757,7,45,7z M35.1,37L28,29.9L25.9,32l-2.8-2.8l-0.245-0.256L14.8,37c-0.1-0.1-1.7-1.8-1.9-1.9l8.069-8.127L20.9,26.9l-5.8-5.8c-2.3-2.2-2.3-5.8-0.1-8h0.2l9.8,9.8l0.006,0.007L26.7,21.2c-0.7-1.8,0-4.3,1.8-6.1c2.3-2.4,5.6-2.8,7.3-1.1c1.7,1.8,1.3,5-1,7.3c-1.899,1.9-4.3,2.5-6.1,1.8l-1.843,1.843L27,25.1l10,10C36.8,35.1,35.2,36.9,35.1,37z"/></svg>