<?xml version="1.0" encoding="utf-8"?><!-- Generator: Adobe Illustrator 15.0.0, SVG Export Plug-In . SVG Version: 6.00 Build 0)  --><!DOCTYPE svg PUBLIC "-//W3C//DTD SVG 1.1//EN" "http://www.w3.org/Graphics/SVG/1.1/DTD/svg11.dtd"><svg xmlns="http://www.w3.org/2000/svg" xmlns:xlink="http://www.w3.org/1999/xlink" viewBox="0 0 50 50" width="50px" height="50px"><path d="M46,35c-0.553,0-1-0.447-1-1V2c0-0.552,0.447-1,1-1c2.243,0,4,1.757,4,4v26C50,33.243,48.243,35,46,35z"/><path d="M4,35c-2.243,0-4-1.757-4-4V5c0-2.243,1.757-4,4-4c0.552,0,1,0.448,1,1v32C5,34.553,4.552,35,4,35z"/><path d="M35,30c0,1.104,0.896,2,2,2l0,0c1.104,0,2-0.896,2-2V6c0-1.104-0.896-2-2-2l0,0c-1.104,0-2,0.896-2,2V30z"/><path d="M23,30c0,1.104,0.896,2,2,2l0,0c1.104,0,2-0.896,2-2V6c0-1.104-0.896-2-2-2l0,0c-1.104,0-2,0.896-2,2V30z"/><path d="M17,30c0,1.104,0.896,2,2,2l0,0c1.104,0,2-0.896,2-2V6c0-1.104-0.896-2-2-2l0,0c-1.104,0-2,0.896-2,2V30z"/><path d="M29,30c0,1.104,0.896,2,2,2l0,0c1.104,0,2-0.896,2-2V6c0-1.104-0.896-2-2-2l0,0c-1.104,0-2,0.896-2,2V30z"/><rect x="4" y="6" width="5" height="24"/><rect x="41" y="6" width="6" height="24"/><polygon points="17,42 17,40 9,40 9,42 11,44 12,50 14,50 15,44 "/><path d="M17,42v-2c0-0.553-0.448-1-1-1h-6c-0.552,0-1,0.447-1,1v2H17z"/><path d="M15,37V6c0-1.104-0.896-2-2-2s-2,0.896-2,2v31H15z"/></svg>