<?xml version="1.0" encoding="utf-8"?><!-- Generator: Adobe Illustrator 15.0.0, SVG Export Plug-In . SVG Version: 6.00 Build 0)  --><!DOCTYPE svg PUBLIC "-//W3C//DTD SVG 1.1//EN" "http://www.w3.org/Graphics/SVG/1.1/DTD/svg11.dtd"><svg xmlns="http://www.w3.org/2000/svg" xmlns:xlink="http://www.w3.org/1999/xlink" viewBox="0 0 50 50" width="50px" height="50px"><path d="M44,50H6v-2.8C6,45.436,7.436,44,9.2,44h31.6c1.765,0,3.2,1.436,3.2,3.2V50z"/><path d="M39.168,42L41,9c0-1.843-1.558-3.4-3.4-3.4h-1.971C33.514,3.388,30.086,0,25,0c-5.058,0-8.476,3.351-10.628,5.6H12.4c-1.843,0-3.4,1.557-3.398,3.456L10.832,42H39.168z M17,15h16c0.553,0,1,0.448,1,1s-0.447,1-1,1H17c-0.552,0-1-0.448-1-1S16.448,15,17,15z M17,22h16c0.553,0,1,0.448,1,1s-0.447,1-1,1H17c-0.552,0-1-0.448-1-1S16.448,22,17,22z"/></svg>