<?xml version="1.0" encoding="utf-8"?><!-- Generator: Adobe Illustrator 15.0.0, SVG Export Plug-In . SVG Version: 6.00 Build 0)  --><!DOCTYPE svg PUBLIC "-//W3C//DTD SVG 1.1//EN" "http://www.w3.org/Graphics/SVG/1.1/DTD/svg11.dtd"><svg xmlns="http://www.w3.org/2000/svg" xmlns:xlink="http://www.w3.org/1999/xlink" viewBox="0 0 50 50" width="50px" height="50px"><path d="M49.73,27.734l-0.281-0.728c-1.242-3.239-4.151-10.824-9.836-16.508c-5.922-6.023-13.76-9.287-17.45-10.264l-0.112-0.03c-1.225-0.337-2.085-0.428-2.861,1.281c-0.015,0.032-0.027,0.064-0.039,0.097c-0.299,0.896-1.295,3.786-1.793,5.18c-0.043,0.121-0.057,0.245-0.053,0.367l-0.063,0.154c1.332,0.361,2.218,0.738,2.336,0.79c3.062,1.179,8.885,3.875,13.637,8.726c5.361,5.362,7.958,11.549,8.826,13.96c0.007,0.014,0.338,0.794,0.759,2.069c0.769-0.201,2.41-0.769,4.185-1.389c0.494-0.174,0.902-0.316,1.103-0.384c0.864-0.26,1.446-0.706,1.729-1.328C50.089,29.129,50.054,28.441,49.73,27.734z"/><path d="M40.181,31.493c-0.663-1.838-3.162-8.06-8.388-13.286c-4.503-4.597-10.047-7.156-12.952-8.274c-0.008-0.003-0.012-0.01-0.02-0.013c-0.007-0.003-0.016-0.001-0.023-0.005c-0.014-0.006-0.954-0.408-2.328-0.762L14.1,14.9l15.09,15.163C29.094,29.767,29,29.386,29,29c0-1.7,1.3-3,3-3s3,1.3,3,3s-1.3,3-3,3c-0.391,0-0.776-0.096-1.073-0.193L35.1,36l5.829-2.454C40.516,32.289,40.186,31.505,40.181,31.493z"/><path d="M16.3,26.9c-1.8,0-3.4-1.2-3.9-2.9l1.9-4.5c0.2-0.1,0.5-0.2,0.8-0.3l-2-2L0.1,48.6C-0.1,49,0,49.4,0.3,49.7C0.5,49.9,0.7,50,1,50c0.1,0,0.3,0,0.4-0.1l31.4-13L20.1,24.2C19.6,25.8,18.1,26.9,16.3,26.9z M9,39c-1.1,0-1.9-0.8-2-1.9l0.7-1.6C8,35.2,8.5,35,9,35c1.1,0,2,0.9,2,2S10.1,39,9,39z M22,37.5c0,1.4-1.1,2.5-2.5,2.5S17,38.9,17,37.5s1.1-2.5,2.5-2.5S22,36.1,22,37.5z"/><line fill="none" stroke="#000000" stroke-width="2" stroke-linecap="round" stroke-linejoin="round" stroke-miterlimit="10" x1="4" y1="4" x2="46" y2="46"/></svg>