<?xml version="1.0" encoding="iso-8859-1"?>
<!-- Generator: Adobe Illustrator 24.2.1, SVG Export Plug-In . SVG Version: 6.00 Build 0)  -->
<svg version="1.1" id="Tone" xmlns="http://www.w3.org/2000/svg" xmlns:xlink="http://www.w3.org/1999/xlink" x="0px" y="0px"
	 viewBox="0 0 50 50" style="enable-background:new 0 0 50 50;" xml:space="preserve">
<g id="Line">
</g>
<path d="M48,39.5c0-2.982-1.741-5.614-4.374-6.814C43.871,32.165,44,31.594,44,31c0-2.206-1.794-4-4-4
	c-0.805,0-1.512,0.365-2.069,0.77c-0.553-0.327-1.144-0.598-1.788-0.711l-2.036-7.461C36.396,18.736,38,16.546,38,14
	c0-0.09-0.002-0.181-0.007-0.271C39.762,13.111,41,11.438,41,9.5C41,7.019,38.981,5,36.5,5c-1.938,0-3.611,1.238-4.229,3.007
	c-0.44-0.026-0.876,0.003-1.304,0.078l-0.49-1.797c-0.575-2.127-2.77-3.393-4.904-2.821L8.193,8.152
	c-2.128,0.575-3.394,2.774-2.82,4.905l1.74,6.405C4.565,21.116,3,23.926,3,27c0,4.828,3.823,8.768,8.6,8.98l1.093,4.024
	C12.629,40.001,12.564,40,12.5,40c-2.821,0-5.011,2.09-5.424,5H4v2h36h0.5H41v-0.025C44.902,46.716,48,43.467,48,39.5z
	 M25.935,28.78l3.862-1.041l1.04,3.862l-3.861,1.041L25.935,28.78z M14.902,22.433l3.862-1.04l1.04,3.861l-3.861,1.041
	L14.902,22.433z M22.29,15.263L21.25,11.4l3.861-1.04l1.041,3.861L22.29,15.263z M22.147,33.944l-3.861,1.04l-1.041-3.861
	l3.861-1.041L22.147,33.944z M23.592,20.091l3.862-1.041l1.041,3.862l-3.862,1.04L23.592,20.091z M12.56,13.743l3.862-1.041
	l1.04,3.862l-3.861,1.041L12.56,13.743z M32.831,10.09c0.278,0.059,0.563-0.003,0.793-0.168s0.378-0.419,0.409-0.699
	C34.175,7.955,35.235,7,36.5,7C37.879,7,39,8.121,39,9.5c0,1.265-0.955,2.325-2.223,2.467c-0.28,0.031-0.534,0.18-0.699,0.409
	c-0.165,0.229-0.227,0.517-0.168,0.793C35.97,13.448,36,13.729,36,14c0,1.632-0.99,3.042-2.421,3.659l-2.08-7.623
	C31.932,9.983,32.378,9.994,32.831,10.09z M5,27c0-2.17,1.005-4.17,2.671-5.484l3.371,12.411C7.635,33.457,5,30.534,5,27z M40.5,45
	H40H9.109c0.361-1.782,1.67-3,3.391-3c0.501,0,1.003,0.117,1.491,0.349c0.348,0.163,0.758,0.115,1.056-0.126
	c1.574-1.27,3.766-1.569,5.609-0.783c0.284,0.121,0.606,0.104,0.875-0.044c0.27-0.148,0.456-0.413,0.505-0.717
	C22.193,39.706,23.02,39,24,39c1.103,0,2,0.897,2,2c0,0.347,0.18,0.668,0.475,0.851c0.294,0.183,0.661,0.197,0.973,0.044
	c1.322-0.66,2.835,0.801,2.846,0.813c0.286,0.287,0.716,0.374,1.09,0.217C31.757,42.77,32,42.404,32,42
	c0-6.033,4.958-6.978,5.164-7.014c0.279-0.047,0.525-0.209,0.678-0.447s0.197-0.529,0.123-0.803l-1.176-4.311
	c0.225,0.127,0.445,0.264,0.652,0.403c0.378,0.254,0.883,0.223,1.225-0.082C38.872,29.563,39.505,29,40,29c1.103,0,2,0.897,2,2
	c0,0.554-0.229,1.072-0.644,1.458c-0.27,0.251-0.38,0.629-0.287,0.985c0.093,0.355,0.374,0.632,0.731,0.719
	C44.273,34.763,46,36.958,46,39.5C46,42.532,43.532,45,40.5,45z"/>
</svg>