<?xml version="1.0" encoding="iso-8859-1"?>
<!-- Generator: Adobe Illustrator 22.1.0, SVG Export Plug-In . SVG Version: 6.00 Build 0)  -->
<svg version="1.1" id="Layer_1" xmlns="http://www.w3.org/2000/svg" xmlns:xlink="http://www.w3.org/1999/xlink" x="0px" y="0px"
	 viewBox="0 0 50 50" style="enable-background:new 0 0 50 50;" xml:space="preserve">
<path d="M46.447,27.105l-8-4c-0.281-0.141-0.613-0.141-0.895,0l-8,4C29.214,27.275,29,27.621,29,28v19c0,0.553,0.447,1,1,1h16
	c0.553,0,1-0.447,1-1V28C47,27.621,46.786,27.275,46.447,27.105z M37,44h-5v-3h5V44z M37,38h-5v-3h5V38z M37,32h-5v-3h5V32z M44,44
	h-5v-3h5V44z M44,38h-5v-3h5V38z M44,32h-5v-3h5V32z"/>
<path d="M14.521,14.122c0.297-0.162,0.66-0.162,0.957,0L27,20.406V16c0-0.366-0.2-0.703-0.521-0.878l-11-6
	c-0.297-0.162-0.66-0.162-0.957,0l-11,6C3.2,15.297,3,15.634,3,16v4.406L14.521,14.122z"/>
<path d="M29,16v9.146l7.658-3.829c0.84-0.42,1.844-0.42,2.684,0L45,24.146V10H21.265l6.17,3.365C28.4,13.891,29,14.9,29,16z M37,13
	h4v6h-4V13z M31,13h4v6h-4V13z"/>
<path d="M15,16.139L3,22.684V47c0,0.553,0.447,1,1,1h22c0.553,0,1-0.447,1-1V22.684L15,16.139z M11,44H7v-3c0-1.105,0.895-2,2-2
	s2,0.895,2,2V44z M11,36H7v-3c0-1.105,0.895-2,2-2s2,0.895,2,2V36z M11,28H7v-3c0-1.105,0.895-2,2-2s2,0.895,2,2V28z M17,44h-4v-3
	c0-1.105,0.895-2,2-2s2,0.895,2,2V44z M17,36h-4v-3c0-1.105,0.895-2,2-2s2,0.895,2,2V36z M17,28h-4v-3c0-1.105,0.895-2,2-2
	s2,0.895,2,2V28z M23,44h-4v-3c0-1.105,0.895-2,2-2s2,0.895,2,2V44z M23,36h-4v-3c0-1.105,0.895-2,2-2s2,0.895,2,2V36z M23,28h-4v-3
	c0-1.105,0.895-2,2-2s2,0.895,2,2V28z"/>
<path d="M44.985,8c0-0.219-0.056-0.44-0.204-0.625l-4-5C40.591,2.138,40.304,2,40,2H26c-0.304,0-0.591,0.138-0.781,0.375l-4,5
	C21.071,7.56,21.015,7.781,21.015,8H44.985z"/>
</svg>