<?xml version="1.0" encoding="iso-8859-1"?><!-- Generator: Adobe Illustrator 21.1.0, SVG Export Plug-In . SVG Version: 6.00 Build 0)  --><svg xmlns="http://www.w3.org/2000/svg" xmlns:xlink="http://www.w3.org/1999/xlink" viewBox="0 0 50 50" width="50px" height="50px"><polygon points="22.64,29.3 20,26.8 23.58,26.4 25,23 26.42,26.4 30,26.8 27.36,29.3 28.11,33 25,31.1 21.89,33 "/><path d="M48.62,19.21l-23-18c-0.37-0.28-0.87-0.28-1.24,0l-23,18c-0.43,0.34-0.51,0.97-0.17,1.41c0.34,0.43,0.97,0.51,1.41,0.17L4,19.71V46c0,0.55,0.45,1,1,1h40c0.55,0,1-0.45,1-1V19.71l1.38,1.08C47.57,20.93,47.78,21,48,21c0.3,0,0.59-0.13,0.79-0.38C49.13,20.18,49.05,19.55,48.62,19.21z M16,19.83L17.8,18c0.7,0.71,2.18,1.1,3.67,1.1c1.39,0,2.79-0.35,3.53-1.1c0.74,0.75,2.14,1.1,3.53,1.1c1.49,0,2.97-0.39,3.67-1.1l1.8,1.83c0,0-1.08,2.02-1.08,3.67c0,2.84,1.08,3.76,1.08,7.42c0,6.7-7.56,8.07-9,9.08c-1.44-1.1-9-2.38-9-9.08c0-3.57,1.08-4.58,1.08-7.42C17.08,21.85,16,19.83,16,19.83z"/><polygon points="27.36,29.3 28.11,33 25,31.1 21.89,33 22.64,29.3 20,26.8 23.58,26.4 25,23 26.42,26.4 30,26.8 "/></svg>