<?xml version="1.0" encoding="utf-8"?><!-- Generator: Adobe Illustrator 15.0.0, SVG Export Plug-In . SVG Version: 6.00 Build 0)  --><!DOCTYPE svg PUBLIC "-//W3C//DTD SVG 1.1//EN" "http://www.w3.org/Graphics/SVG/1.1/DTD/svg11.dtd"><svg xmlns="http://www.w3.org/2000/svg" xmlns:xlink="http://www.w3.org/1999/xlink" viewBox="0 0 50 50" width="50px" height="50px"><path d="M33.4,3H16.8c-3,0-5.8,2.9-5.8,6v2.1l5,5V9h18v25.1l4.9,5V8.6C39,5.5,36.5,3,33.4,3z"/><path d="M34,37.5V40H16V19.5l-5-5V41c0,3.7,3.5,6,6,6h16.4c2.8,0,5-2,5.5-4.6L34,37.5z M25,44.5c-0.829,0-1.5-0.672-1.5-1.5s0.671-1.5,1.5-1.5c0.828,0,1.5,0.672,1.5,1.5S25.828,44.5,25,44.5z"/><line fill="none" stroke="#000000" stroke-width="2" stroke-linecap="round" stroke-linejoin="round" stroke-miterlimit="10" x1="5" y1="4" x2="45" y2="44"/></svg>