<?xml version="1.0" encoding="iso-8859-1"?><!-- Generator: Adobe Illustrator 22.1.0, SVG Export Plug-In . SVG Version: 6.00 Build 0)  --><svg xmlns="http://www.w3.org/2000/svg" xmlns:xlink="http://www.w3.org/1999/xlink" viewBox="0 0 50 50" width="50px" height="50px"><path d="M48.62,19.213l-23-18c-0.37-0.28-0.87-0.28-1.24,0l-23,18c-0.43,0.34-0.51,0.97-0.17,1.41c0.34,0.43,0.97,0.51,1.41,0.17L4,19.703v26.3c0,0.55,0.45,1,1,1h40c0.55,0,1-0.45,1-1v-26.3l1.38,1.09c0.19,0.14,0.4,0.21,0.62,0.21c0.3,0,0.59-0.13,0.79-0.38C49.13,20.183,49.05,19.553,48.62,19.213z M34.69,38.723c-0.19,0.18-0.44,0.28-0.7,0.28s-0.52-0.1-0.72-0.31l-5.42-5.56l-2.9,2.95c0-0.01-1.91-1.9-2.02-2.01c-0.27-0.26-0.53-0.53-0.8-0.79l-5.42,5.42c-0.2,0.2-0.45,0.3-0.71,0.3s-0.51-0.1-0.71-0.3c-0.39-0.39-0.39-1.02,0-1.41l5.42-5.42c-0.46-0.46-0.91-0.91-1.37-1.37c-1.53-1.52-2.99-3.05-3.78-5.09c-0.41-1.05-0.61-2.19-0.55-3.32c0.03-0.56,0.13-1.13,0.31-1.67c0.04-0.13,0.57-1.23,0.57-1.4c0.27,0.25,4.55,4.41,8.97,8.7l2.06-2.06c0.11-0.11,0.24-0.18,0.38-0.22c-0.69-1.42-0.25-3.42,1.21-4.88c1.75-1.75,4.27-2.07,5.63-0.71c1.36,1.37,1.05,3.89-0.7,5.63c-1.46,1.47-3.47,1.91-4.88,1.22c-0.05,0.14-0.12,0.27-0.23,0.38l-2.03,2.04c4.35,4.23,8.42,8.18,8.42,8.18C35.1,37.703,35.09,38.333,34.69,38.723z"/></svg>