<?xml version="1.0" encoding="iso-8859-1"?>
<!-- Generator: Adobe Illustrator 24.1.2, SVG Export Plug-In . SVG Version: 6.00 Build 0)  -->
<svg version="1.1" id="Layer_1" xmlns="http://www.w3.org/2000/svg" xmlns:xlink="http://www.w3.org/1999/xlink" x="0px" y="0px"
	 width="50px" height="50px" viewBox="0 0 50 50" style="enable-background:new 0 0 50 50;" xml:space="preserve">
<path d="M25.493,44.896c5.418,0,10.144-2.991,12.635-7.404c-1.833-2.437-3.879-3.655-3.988-3.718
	c-0.335-0.197-0.753-0.18-1.071,0.04c-0.319,0.22-0.482,0.604-0.419,0.987c0.266,1.596,0.176,3.071-0.268,4.396h-0.066
	c-0.772-3.032-2.465-5.652-3.616-7.436c-0.372-0.576-0.693-1.073-0.852-1.39c-0.74-1.481-0.849-3.403-0.85-3.423
	c-0.02-0.358-0.229-0.681-0.551-0.842c-0.32-0.159-0.704-0.138-1.003,0.062c-4.271,2.847-6.301,9.084-7.192,13.039l-0.276,0.001
	c-1.018-1.99-1.485-4.708-1.49-4.737c-0.062-0.369-0.325-0.673-0.682-0.786c-0.358-0.115-0.747-0.02-1.012,0.245
	c-0.887,0.886-1.621,1.896-2.234,2.995C14.955,41.646,19.847,44.896,25.493,44.896z"/>
<polygon points="11.533,39.158 11.533,39.158 11.533,39.159 "/>
<path d="M14.12,42.322c0.008,0.008,0.017,0.015,0.025,0.023C14.136,42.337,14.128,42.33,14.12,42.322z"/>
<polygon points="39.431,39.192 39.432,39.192 39.432,39.192 "/>
<path d="M25.493,9.881c7.811,0,14.612,4.392,18.074,10.835c1.065-5.659-1.826-9.449-1.969-9.632
	c-0.244-0.311-0.65-0.451-1.034-0.351c-0.384,0.098-0.673,0.413-0.738,0.805c-0.082,0.49-0.338,0.86-0.634,1.134
	c-0.607-3.702-3.897-6.562-4.058-6.7c-0.259-0.222-0.612-0.295-0.938-0.198c-0.326,0.099-0.58,0.355-0.674,0.684
	c-0.294,1.03-1.288,1.923-2.145,2.511c-0.688-2.077-2.214-3.441-3.195-4.318c-0.214-0.19-0.406-0.362-0.562-0.518
	c-0.567-0.567-0.664-1.709-0.654-2.097c0.013-0.368-0.177-0.713-0.495-0.898c-0.316-0.186-0.711-0.182-1.025,0.01
	c-0.228,0.139-5.096,3.164-6.01,7.857c-0.417-0.32-0.836-0.813-1.013-1.557c-0.084-0.356-0.357-0.639-0.711-0.734
	c-0.353-0.097-0.731,0.01-0.984,0.273c-0.316,0.331-2.785,2.984-3.106,5.496c-0.641,0.001-1.558-0.19-1.826-1.262
	c-0.083-0.333-0.332-0.601-0.659-0.707c-0.325-0.104-0.686-0.038-0.951,0.182c-0.055,0.046-4.86,4.165-3.025,10.558
	C10.526,14.523,17.469,9.881,25.493,9.881z"/>
<circle style="fill:none;stroke:#060606;stroke-width:2;stroke-linecap:round;stroke-linejoin:round;stroke-miterlimit:10;" cx="25.577" cy="30.536" r="17.507"/>
</svg>