<?xml version="1.0" encoding="iso-8859-1"?>
<!-- Generator: Adobe Illustrator 24.1.2, SVG Export Plug-In . SVG Version: 6.00 Build 0)  -->
<svg version="1.1" id="Layer_1" xmlns="http://www.w3.org/2000/svg" xmlns:xlink="http://www.w3.org/1999/xlink" x="0px" y="0px"
	 width="50px" height="50px" viewBox="0 0 50 50" style="enable-background:new 0 0 50 50;" xml:space="preserve">
<line style="fill:none;stroke:#000000;stroke-width:2;stroke-linecap:round;stroke-miterlimit:10;" x1="1" y1="48" x2="49" y2="48"/>
<rect x="26" y="28" style="fill:none;stroke:#000000;stroke-width:2;stroke-linecap:round;stroke-miterlimit:10;" width="22" height="20"/>
<rect x="2" y="30" style="fill:none;stroke:#000000;stroke-width:2;stroke-linecap:round;stroke-miterlimit:10;" width="18" height="18"/>
<line style="fill:none;stroke:#000000;stroke-width:2;stroke-linecap:round;stroke-miterlimit:10;" x1="1" y1="30" x2="21" y2="30"/>
<line style="fill:none;stroke:#000000;stroke-width:2;stroke-linecap:round;stroke-miterlimit:10;" x1="25" y1="28" x2="49" y2="28"/>
<g>
	<circle cx="11" cy="12" r="5"/>
	<rect x="29" y="31" width="16" height="14"/>
	<rect x="5" y="33" width="12" height="12"/>
	<circle cx="37" cy="10" r="5"/>
</g>
<g>
	<path d="M46,25c-0.498-4.5-4.309-8-8.941-8s-8.444,3.5-8.941,8H46z"/>
</g>
<g>
	<path d="M20,27c-0.498-4.5-4.309-8-8.941-8s-8.444,3.5-8.941,8H20z"/>
</g>
<g>
	<path d="M45.531,10.778C45.837,10.235,46,9.625,46,9c0-1.31-0.707-2.497-1.801-3.145c0.016-0.136,0.023-0.273,0.023-0.411
		c0-2.021-1.645-3.667-3.667-3.667c-0.138,0-0.275,0.008-0.411,0.023C39.497,0.707,38.31,0,37,0s-2.497,0.707-3.145,1.801
		c-0.136-0.016-0.273-0.023-0.411-0.023c-2.021,0-3.667,1.645-3.667,3.667c0,0.138,0.008,0.275,0.023,0.411
		C28.707,6.503,28,7.69,28,9c0,0.625,0.163,1.235,0.469,1.778C28.163,11.32,28,11.931,28,12.556c0,0.625,0.163,1.235,0.469,1.778
		C28.163,14.876,28,15.486,28,16.111c0,2.021,1.645,3.667,3.667,3.667c2.022,0,3.667-1.645,3.667-3.667
		c0-0.539-0.129-1.065-0.359-1.549c-0.695-0.31-1.295-0.782-1.78-1.357c-0.085,0.191-0.196,0.345-0.298,0.459l-0.603,0.67
		l0.604,0.669c0.199,0.221,0.437,0.592,0.437,1.108c0,0.919-0.748,1.667-1.667,1.667S30,17.03,30,16.111
		c0-0.516,0.237-0.887,0.436-1.108l0.605-0.669l-0.604-0.67C30.237,13.443,30,13.072,30,12.556s0.237-0.887,0.436-1.108l0.605-0.669
		l-0.604-0.67C30.237,9.887,30,9.516,30,9c0-0.744,0.508-1.401,1.235-1.599l1.087-0.295l-0.422-1.044
		c-0.082-0.202-0.123-0.41-0.123-0.617c0-1.127,1.185-1.987,2.284-1.543l1.044,0.422l0.295-1.087C35.599,2.508,36.256,2,37,2
		s1.401,0.508,1.599,1.235l0.295,1.087l1.044-0.422c1.098-0.444,2.283,0.417,2.284,1.543c0,0.208-0.042,0.415-0.123,0.617
		l-0.422,1.044l1.087,0.295C43.492,7.599,44,8.256,44,9c0,0.516-0.237,0.887-0.437,1.108l-0.604,0.67l0.605,0.669
		C43.763,11.668,44,12.04,44,12.556s-0.237,0.887-0.437,1.108l-0.604,0.67l0.605,0.669C43.763,15.224,44,15.595,44,16.111
		c0,0.919-0.748,1.667-1.667,1.667s-1.667-0.748-1.667-1.667c0-0.516,0.237-0.887,0.437-1.108l0.604-0.669l-0.603-0.67
		c-0.102-0.113-0.213-0.267-0.298-0.459c-0.485,0.575-1.084,1.047-1.78,1.357c-0.23,0.484-0.359,1.01-0.359,1.549
		c0,2.021,1.645,3.667,3.667,3.667c2.021,0,3.667-1.645,3.667-3.667c0-0.625-0.163-1.235-0.469-1.778
		C45.837,13.791,46,13.18,46,12.556C46,11.931,45.837,11.32,45.531,10.778z"/>
</g>
</svg>