<?xml version="1.0" encoding="iso-8859-1"?>
<!-- Generator: Adobe Illustrator 24.1.2, SVG Export Plug-In . SVG Version: 6.00 Build 0)  -->
<svg version="1.1" id="Layer_10" xmlns="http://www.w3.org/2000/svg" xmlns:xlink="http://www.w3.org/1999/xlink" x="0px" y="0px"
	 viewBox="0 0 50 50" style="enable-background:new 0 0 50 50;" xml:space="preserve">
<path style="fill:none;stroke:#000000;stroke-width:2;stroke-linecap:round;stroke-linejoin:round;stroke-miterlimit:10;" d="M2,21
	L25,3l23,18"/>
<path d="M23.5,37c-0.83,0-1.5,0.67-1.5,1.5c0,0.83,0.67,1.5,1.5,1.5s1.5-0.67,1.5-1.5C25,37.67,24.33,37,23.5,37z M19,29
	c-0.55,0-1,0.45-1,1s0.45,1,1,1s1-0.45,1-1S19.55,29,19,29z M14.5,36c-0.83,0-1.5,0.67-1.5,1.5v1c0,0.83,0.67,1.5,1.5,1.5
	s1.5-0.67,1.5-1.5v-1C16,36.67,15.33,36,14.5,36z M23.5,37c-0.83,0-1.5,0.67-1.5,1.5c0,0.83,0.67,1.5,1.5,1.5s1.5-0.67,1.5-1.5
	C25,37.67,24.33,37,23.5,37z M19,29c-0.55,0-1,0.45-1,1s0.45,1,1,1s1-0.45,1-1S19.55,29,19,29z M14.5,36c-0.83,0-1.5,0.67-1.5,1.5v1
	c0,0.83,0.67,1.5,1.5,1.5s1.5-0.67,1.5-1.5v-1C16,36.67,15.33,36,14.5,36z M25,3L5,18.65V47h40V18.65L25,3z M23.5,42
	c-1.93,0-3.5-1.57-3.5-3.5c0-0.17,0.03-0.34,0.05-0.5H20v-5.18C19.69,32.93,19.35,33,19,33s-0.69-0.07-1-0.18v5.68
	c0,1.93-1.57,3.5-3.5,3.5S11,40.43,11,38.5v-1c0-1.93,1.57-3.5,3.5-3.5c0.54,0,1.04,0.13,1.5,0.35V29c0-0.04,0-0.08,0.01-0.12
	l1.5-12C17.57,16.38,18,16,18.5,16h1c0.5,0,0.93,0.38,0.99,0.88l1.5,12C22,28.92,22,28.96,22,29v6.35c0.46-0.22,0.96-0.35,1.5-0.35
	c1.93,0,3.5,1.57,3.5,3.5S25.43,42,23.5,42z M35,40.5c0,0.83-0.67,1.5-1.5,1.5h-1c-0.83,0-1.5-0.67-1.5-1.5V31c0-0.55-0.45-1-1-1h-3
	c-0.55,0-1-0.45-1-1s0.45-1,1-1h4.5c0.28,0,0.5-0.22,0.5-0.5c0-0.28-0.22-0.5-0.5-0.5H27c-0.55,0-1-0.45-1-1s0.45-1,1-1h4.5
	c0.28,0,0.5-0.22,0.5-0.5c0-0.28-0.22-0.5-0.5-0.5H27c-0.55,0-1-0.45-1-1s0.45-1,1-1h4.5c0.28,0,0.5-0.22,0.5-0.5
	c0-0.28-0.22-0.5-0.5-0.5H27c-0.55,0-1-0.45-1-1s0.45-1,1-1h4.5c0.28,0,0.5-0.22,0.5-0.5c0-0.28-0.22-0.5-0.5-0.5H27
	c-0.55,0-1-0.45-1-1s0.45-1,1-1h6c1.1,0,2,0.9,2,2V40.5z M23.5,37c-0.83,0-1.5,0.67-1.5,1.5c0,0.83,0.67,1.5,1.5,1.5
	s1.5-0.67,1.5-1.5C25,37.67,24.33,37,23.5,37z M19,29c-0.55,0-1,0.45-1,1s0.45,1,1,1s1-0.45,1-1S19.55,29,19,29z M14.5,36
	c-0.83,0-1.5,0.67-1.5,1.5v1c0,0.83,0.67,1.5,1.5,1.5s1.5-0.67,1.5-1.5v-1C16,36.67,15.33,36,14.5,36z"/>
<path style="fill:none;stroke:#000000;stroke-width:2;stroke-linejoin:round;stroke-miterlimit:10;" d="M45,18.667V47H5V18.667"/>
</svg>