<?xml version="1.0" encoding="utf-8"?><!-- Generator: Adobe Illustrator 15.0.0, SVG Export Plug-In . SVG Version: 6.00 Build 0)  --><!DOCTYPE svg PUBLIC "-//W3C//DTD SVG 1.1//EN" "http://www.w3.org/Graphics/SVG/1.1/DTD/svg11.dtd"><svg xmlns="http://www.w3.org/2000/svg" xmlns:xlink="http://www.w3.org/1999/xlink" viewBox="0 0 50 50" width="50px" height="50px"><path d="M33,2v4h-2c-3.7,0-2-1.5-6-1.5V0c4,0,2.3,2,6,2H33z"/><path d="M0,27v23h50V27H0z M9,45H5v-3h4V45z M9,40H5v-3h4V40z M9,35H5v-3h4V35z M16,45h-4v-3h4V45z M16,40h-4v-3h4V40z M16,35h-4v-3h4V35z M23,45h-4v-3h4V45z M23,40h-4v-3h4V40z M23,35h-4v-3h4V35z M30,45h-4v-3h4V45z M30,40h-4v-3h4V40z M30,35h-4v-3h4V35z M37,45h-4v-3h4V45z M37,40h-4v-3h4V40z M37,35h-4v-3h4V35z M44,45h-4v-3h4V45z M44,40h-4v-3h4V40z M44,35h-4v-3h4V35z"/><path d="M38,21H12v-1c0-7.168,5.832-13,13-13c7.168,0,13,5.832,13,13V21z"/><path d="M38,21H12c-0.552,0-1-0.448-1-1s0.448-1,1-1h26c0.553,0,1,0.448,1,1S38.553,21,38,21z"/><rect x="24" y="20" width="2" height="6"/><rect x="28" y="20" width="2" height="6"/><rect x="32" y="20" width="2" height="6"/><rect x="36" y="20" width="2" height="6"/><rect x="20" y="20" width="2" height="6"/><rect x="16" y="20" width="2" height="6"/><rect x="12" y="20" width="2" height="6"/></svg>