<?xml version="1.0" encoding="iso-8859-1"?>
<!-- Generator: Adobe Illustrator 23.0.6, SVG Export Plug-In . SVG Version: 6.00 Build 0)  -->
<svg version="1.1" xmlns="http://www.w3.org/2000/svg" xmlns:xlink="http://www.w3.org/1999/xlink" x="0px" y="0px"
	 viewBox="0 0 50 50" style="enable-background:new 0 0 50 50;" xml:space="preserve">
<g id="&#x421;&#x43B;&#x43E;&#x439;_1" style="display:none;">
</g>
<g id="ref">
</g>
<g id="&#x421;&#x43B;&#x43E;&#x439;_3">
</g>
<g id="Layer_4">
	<g id="&#x421;&#x43B;&#x43E;&#x439;_7">
	</g>
</g>
<g id="&#x421;&#x43B;&#x43E;&#x439;_5">
</g>
<g id="&#x421;&#x43B;&#x43E;&#x439;_6">
	<path d="M49.777,45.348L25.867,3.93c-0.359-0.617-1.375-0.617-1.734,0l-24,41.57c-0.176,0.309-0.176,0.691,0,1
		C0.313,46.809,0.645,47,1,47h48c0.008,0,0.016,0,0.02,0c0.555,0,1-0.445,1-1C50.02,45.75,49.93,45.523,49.777,45.348z M28,41
		c0,0,1-2,1-4c0-2.625-2-5-1-8c-2,1-2,4-2,4s-2.487-2.5-1-9c0,0-5,3.5-5,9c0,4.5,2.822,8.02,2.822,8.02S16,39.27,16,33.27
		C16,23.645,27,18,27,18c-0.373,2.5-0.114,5.5,1,7c0,0,1-3,3-3c-1,5,2,6,1.995,11.27C33.12,36.645,31.103,39.875,28,41z"/>
</g>
</svg>