<?xml version="1.0" encoding="utf-8"?><!-- Generator: Adobe Illustrator 15.0.0, SVG Export Plug-In . SVG Version: 6.00 Build 0)  --><!DOCTYPE svg PUBLIC "-//W3C//DTD SVG 1.1//EN" "http://www.w3.org/Graphics/SVG/1.1/DTD/svg11.dtd"><svg xmlns="http://www.w3.org/2000/svg" xmlns:xlink="http://www.w3.org/1999/xlink" viewBox="0 0 50 50" width="50px" height="50px"><rect fill="none" width="50" height="50"/><path fill="none" stroke="#000000" stroke-width="2" stroke-linecap="round" stroke-linejoin="round" stroke-miterlimit="10" d="M42.9,14c0.898,1.9,1.6,3.9,1.898,6"/><path fill="none" stroke="#000000" stroke-width="2" stroke-linecap="round" stroke-linejoin="round" stroke-miterlimit="10" d="M29,3.4c3.5,0.7,6.7,2.3,9.2,4.6"/><path fill="none" stroke="#000000" stroke-width="2" stroke-linecap="round" stroke-linejoin="round" stroke-miterlimit="10" d="M11.8,8c2.6-2.3,5.7-3.9,9.2-4.6"/><path fill="none" stroke="#000000" stroke-width="2" stroke-linecap="round" stroke-linejoin="round" stroke-miterlimit="10" d="M5.2,20c0.3-2.1,1-4.1,1.9-6"/><path fill="none" stroke="#000000" stroke-width="2" stroke-linecap="round" stroke-linejoin="round" stroke-miterlimit="10" d="M8.3,34c-1.6-2.4-2.6-5.1-3.1-8"/><path fill="none" stroke="#000000" stroke-width="2" stroke-linecap="round" stroke-linejoin="round" stroke-miterlimit="10" d="M21,42.6c-1.5-0.3-2.9-0.8-4.2-1.398"/><path fill="none" stroke="#000000" stroke-width="2" stroke-linecap="round" stroke-linejoin="round" stroke-miterlimit="10" d="M33,41.3c-1.3,0.601-2.6,1-4,1.3"/><path fill="none" stroke="#000000" stroke-width="2" stroke-linecap="round" stroke-linejoin="round" stroke-miterlimit="10" d="M44.8,26c-0.399,2.9-1.5,5.6-3.1,8"/><path d="M44,50.023h-7c-0.566,0-1.023-0.457-1.023-1.023s0.457-1.023,1.023-1.023h7c0.566,0,1.023,0.457,1.023,1.023S44.566,50.023,44,50.023z"/><path d="M13,50.023H6c-0.566,0-1.025-0.457-1.025-1.023S5.434,47.977,6,47.977h7c0.566,0,1.025,0.457,1.025,1.023S13.566,50.023,13,50.023z"/><path d="M27.4,4C26.6,4,26,3.4,26,2.6V2.4c0-0.41,0-1.466,0-2.4h-2c0,0.934,0,1.99,0,2.4v0.2C24,3.4,23.4,4,22.6,4H20v1.8C20,7.034,20.922,8,22.1,8h5.7C29.033,8,30,7.078,30,5.9V4H27.4z"/><path fill="none" stroke="#000000" stroke-width="2" stroke-linecap="round" stroke-linejoin="round" stroke-miterlimit="10" d="M27.8,7h-5.7C21.5,7,21,6.5,21,5.8V3.7C21,2.2,22.2,1,23.7,1h2.7C27.8,1,29,2.2,29,3.7v2.2C29,6.5,28.5,7,27.8,7z"/><path d="M43.359,11c-0.801,0-1.4-0.6-1.4-1.4V9.4c0-0.41,0-1.466,0-2.4h-2c0,0.934,0,1.99,0,2.4v0.2c0,0.8-0.6,1.4-1.4,1.4h-2.6v1.8c0,1.234,0.922,2.2,2.1,2.2h5.7c1.233,0,2.2-0.922,2.2-2.1V11H43.359z"/><path fill="none" stroke="#000000" stroke-width="2" stroke-linecap="round" stroke-linejoin="round" stroke-miterlimit="10" d="M43.759,14h-5.7c-0.6,0-1.1-0.5-1.1-1.2v-2.1c0-1.5,1.2-2.7,2.7-2.7h2.7c1.398,0,2.6,1.2,2.6,2.7v2.2C44.959,13.5,44.459,14,43.759,14z"/><path d="M47.359,22.949c-0.801,0-1.4-0.6-1.4-1.4v-0.2c0-0.41,0-1.466,0-2.4h-2c0,0.934,0,1.99,0,2.4v0.2c0,0.8-0.6,1.4-1.4,1.4h-2.6v1.8c0,1.233,0.922,2.2,2.1,2.2h5.7c1.233,0,2.2-0.922,2.2-2.1v-1.9H47.359z"/><path fill="none" stroke="#000000" stroke-width="2" stroke-linecap="round" stroke-linejoin="round" stroke-miterlimit="10" d="M47.759,25.949h-5.7c-0.6,0-1.1-0.5-1.1-1.2v-2.1c0-1.5,1.2-2.7,2.7-2.7h2.7c1.398,0,2.6,1.2,2.6,2.7v2.2C48.959,25.449,48.459,25.949,47.759,25.949z"/><path d="M43.45,37.051c-0.802,0-1.4-0.601-1.4-1.4v-0.199c0-0.409,0-1.467,0-2.399h-2c0,0.935,0,1.99,0,2.399v0.199c0,0.801-0.6,1.4-1.399,1.4H36.05v1.799c0,1.234,0.923,2.201,2.101,2.201h5.699c1.233,0,2.2-0.922,2.2-2.101v-1.899H43.45z"/><path d="M27.352,42.95c-0.802,0-1.4-0.601-1.4-1.4v-0.2c0-0.408,0-1.466,0-2.398h-2c0,0.934,0,1.99,0,2.398v0.2c0,0.8-0.6,1.4-1.4,1.4h-2.6v1.799c0,1.233,0.922,2.201,2.1,2.201h5.7c1.233,0,2.2-0.923,2.2-2.101V42.95H27.352z"/><path fill="none" stroke="#000000" stroke-width="2" stroke-linecap="round" stroke-linejoin="round" stroke-miterlimit="10" d="M27.75,45.95h-5.7c-0.6,0-1.1-0.5-1.1-1.201v-2.101c0-1.5,1.2-2.698,2.7-2.698h2.7c1.399,0,2.601,1.198,2.601,2.698v2.201C28.95,45.45,28.45,45.95,27.75,45.95z"/><path d="M11.45,11c-0.801,0-1.4-0.6-1.4-1.4V9.4c0-0.41,0-1.466,0-2.4h-2c0,0.934,0,1.99,0,2.4v0.2c0,0.8-0.6,1.4-1.4,1.4h-2.6v1.8c0,1.234,0.922,2.2,2.1,2.2h5.7c1.233,0,2.2-0.922,2.2-2.1V11H11.45z"/><path fill="none" stroke="#000000" stroke-width="2" stroke-linecap="round" stroke-linejoin="round" stroke-miterlimit="10" d="M11.85,14h-5.7c-0.6,0-1.1-0.5-1.1-1.2v-2.1c0-1.5,1.2-2.7,2.7-2.7h2.7c1.399,0,2.6,1.2,2.6,2.7v2.2C13.05,13.5,12.55,14,11.85,14z"/><path d="M7.4,22.95c-0.801,0-1.4-0.6-1.4-1.4v-0.2c0-0.41,0-1.466,0-2.4H4c0,0.934,0,1.99,0,2.4v0.2c0,0.8-0.6,1.4-1.4,1.4H0v1.8c0,1.234,0.922,2.2,2.1,2.2h5.7c1.233,0,2.2-0.923,2.2-2.1v-1.9H7.4z"/><path fill="none" stroke="#000000" stroke-width="2" stroke-linecap="round" stroke-linejoin="round" stroke-miterlimit="10" d="M7.8,25.95H2.1c-0.6,0-1.1-0.5-1.1-1.2v-2.1c0-1.5,1.2-2.7,2.7-2.7h2.7c1.399,0,2.6,1.2,2.6,2.7v2.2C9,25.45,8.5,25.95,7.8,25.95z"/><path d="M11.4,37c-0.8,0-1.4-0.6-1.4-1.398V35.4c0-0.409,0-1.467,0-2.399H8c0,0.935,0,1.99,0,2.399v0.201C8,36.4,7.4,37,6.6,37H4v1.801C4,40.034,4.922,41,6.1,41h5.7c1.233,0,2.2-0.922,2.2-2.1V37H11.4z"/><path d="M25,29c-3.309,0-6-2.691-6-6c0-3.309,2.691-6,6-6c3.309,0,6,2.691,6,6C31,26.309,28.309,29,25,29z"/><path d="M11.8,41H6.1C4.922,41,4,40.034,4,38.801v-2.1C4,34.66,5.66,33,7.7,33h2.7c1.985,0,3.6,1.66,3.6,3.701V38.9C14,40.078,13.034,41,11.8,41z M7.7,35C6.747,35,6,35.747,6,36.701v2.1C6,38.926,6.051,39,6.1,39h5.7c0.125,0,0.2-0.051,0.2-0.1v-2.199C12,35.779,11.268,35,10.4,35H7.7z"/><path d="M18.362,27.46l-3.432,5.904c0.67,0.94,1.07,2.09,1.07,3.337V38.9c0,2.299-1.845,4.1-4.2,4.1H9.33l-3.195,5.497c-0.18,0.31-0.181,0.69-0.002,1.002C6.312,49.809,6.642,50,7,50h5c0.361,0,0.694-0.193,0.871-0.509l10.521-18.653C21.306,30.41,19.514,29.168,18.362,27.46z"/><path d="M43.85,41.051H38.15c-1.178,0-2.101-0.967-2.101-2.201v-2.1c0-2.04,1.66-3.699,3.7-3.699h2.7c1.983,0,3.6,1.659,3.6,3.699v2.2C46.05,40.128,45.083,41.051,43.85,41.051z M39.75,35.051c-0.953,0-1.7,0.746-1.7,1.699v2.1c0,0.127,0.052,0.201,0.101,0.201h5.699c0.125,0,0.2-0.051,0.2-0.101v-2.2c0-0.921-0.731-1.699-1.6-1.699H39.75z"/><path d="M40.689,43.051h-2.541c-2.299,0-4.1-1.846-4.1-4.201v-2.1c0-1.225,0.393-2.355,1.051-3.286l-3.482-5.975c-1.167,1.715-2.982,2.95-5.09,3.36l10.604,18.645C37.309,49.807,37.641,50,38,50h5c0.006-0.001,0.014,0,0.02,0c0.554,0,1-0.447,1-1c0-0.25-0.092-0.479-0.244-0.654L40.689,43.051z"/></svg>