<?xml version="1.0" encoding="iso-8859-1"?>
<!-- Generator: Adobe Illustrator 23.0.3, SVG Export Plug-In . SVG Version: 6.00 Build 0)  -->
<svg version="1.1" id="Layer_1" xmlns="http://www.w3.org/2000/svg" xmlns:xlink="http://www.w3.org/1999/xlink" x="0px" y="0px"
	 viewBox="0 0 50 50" style="enable-background:new 0 0 50 50;" xml:space="preserve">
<g>
	<circle cx="24" cy="39" r="1"/>
	<circle cx="32" cy="39" r="1"/>
	<path d="M48.621,18.211l-23-18c-0.371-0.281-0.871-0.281-1.242,0l-23,18c-0.43,0.34-0.508,0.969-0.168,1.41
		c0.34,0.43,0.969,0.508,1.41,0.168L4,18.711V45c0,0.551,0.449,1,1,1h40c0.551,0,1-0.449,1-1V18.711l1.379,1.078
		C47.57,19.93,47.781,20,48,20c0.301,0,0.59-0.129,0.789-0.379C49.129,19.18,49.051,18.551,48.621,18.211z M36.861,23.364l-3.946,10
		c-0.149,0.38-0.516,0.629-0.924,0.629H21.594l0.189,0.752c0.285,1.066,0.338,1.262,1.335,1.262h8.814
		C31.955,36.006,31.977,36,32,36c1.654,0,3,1.346,3,3s-1.346,3-3,3s-3-1.346-3-3c0-0.355,0.073-0.691,0.186-1.007h-2.373
		C26.927,38.309,27,38.645,27,39c0,1.654-1.346,3-3,3s-3-1.346-3-3c0-0.509,0.139-0.98,0.363-1.401
		c-0.997-0.542-1.287-1.547-1.504-2.355L15.791,19.09c-0.274-0.904-0.502-1.097-1.338-1.097H11.91C11.706,18.578,11.155,19,10.5,19
		C9.672,19,9,18.328,9,17.5S9.672,16,10.5,16c0.063,0,3.953,0.007,3.953,0.007c2.186,0,2.871,1.29,3.253,2.554l0.868,3.446h17.363
		c0.329,0,0.637,0.162,0.821,0.435C36.944,22.713,36.982,23.059,36.861,23.364z"/>
</g>
</svg>