<?xml version="1.0" encoding="utf-8"?><!-- Generator: Adobe Illustrator 15.0.0, SVG Export Plug-In . SVG Version: 6.00 Build 0)  --><!DOCTYPE svg PUBLIC "-//W3C//DTD SVG 1.1//EN" "http://www.w3.org/Graphics/SVG/1.1/DTD/svg11.dtd"><svg xmlns="http://www.w3.org/2000/svg" xmlns:xlink="http://www.w3.org/1999/xlink" viewBox="0 0 50 50" width="50px" height="50px"><path d="M44,32h-0.8c-1.156,0-2.202-0.459-2.869-1.261l-8.138-8.132C31.401,21.816,31,20.872,31,19.8V18c0-0.552,0.447-1,1-1h12c0.553,0,1,0.448,1,1v13C45,31.553,44.553,32,44,32z"/><circle cx="41" cy="17" r="1"/><circle cx="41" cy="14" r="1"/><circle cx="39" cy="12" r="1"/><circle cx="36" cy="11" r="1"/><circle cx="30.5" cy="4.5" r="4.5"/><path d="M32.876,27.701L28,23c0,0-0.001-9.35,0-10.25c0.001-1.458-0.53-2.683-1.131-3.583c-1.5-2.1-4.5-2.5-6.5-0.9L8.2,18.2C6.8,19.3,6,21.1,6,22.9l0.087,24.5c0,1.399,1.2,2.6,2.6,2.6l0,0c1.4,0,2.5-1,2.6-2.4l2.587-21.641L23,19v4c0,0.8,0.3,1.6,0.9,2.1l6.014,5.814c0.9,0.9,2.437,1.112,3.457,0.092S33.576,28.4,32.876,27.701z"/></svg>