<?xml version="1.0" encoding="iso-8859-1"?>
<!-- Generator: Adobe Illustrator 23.0.3, SVG Export Plug-In . SVG Version: 6.00 Build 0)  -->
<svg version="1.1" id="Layer_1" xmlns="http://www.w3.org/2000/svg" xmlns:xlink="http://www.w3.org/1999/xlink" x="0px" y="0px"
	 viewBox="0 0 50 50" style="enable-background:new 0 0 50 50;" xml:space="preserve">
<g>
	<path d="M32,17H18c-0.552,0-1,0.448-1,1v14c0,0.552,0.448,1,1,1h14c0.552,0,1-0.448,1-1V18C33,17.448,32.552,17,32,17z
		 M25.592,26.951h-1.949v3.063h-2.064V20.15h4.115c2.031,0,3.418,1.359,3.418,3.41C29.111,25.592,27.67,26.951,25.592,26.951z"/>
	<path d="M45.5,7h-41C2.062,7,0,9.063,0,11.5S2.062,16,4.5,16H5V9h2v21v7.398V43c0,0.351,0.184,0.676,0.484,0.856
		c0.3,0.182,0.674,0.191,0.983,0.027l1.421-0.752l1.421,0.752c0.293,0.154,0.643,0.154,0.936,0l1.422-0.752l1.421,0.752
		c0.293,0.154,0.643,0.154,0.936,0l1.421-0.752l1.421,0.752c0.293,0.154,0.643,0.154,0.936,0l1.422-0.752l1.421,0.752
		c0.293,0.154,0.643,0.154,0.936,0L25,43.132l1.421,0.752c0.293,0.154,0.643,0.154,0.936,0l1.421-0.752l1.422,0.752
		c0.293,0.154,0.643,0.154,0.936,0l1.421-0.752l1.421,0.752c0.293,0.154,0.643,0.154,0.936,0l1.421-0.752l1.422,0.752
		C37.901,43.961,38.062,44,38.223,44s0.321-0.039,0.468-0.116l1.421-0.752l1.421,0.752c0.31,0.163,0.683,0.153,0.983-0.027
		S43,43.351,43,43v-5.801v-5.093V9h2v7h0.5c2.437,0,4.5-2.063,4.5-4.5S47.937,7,45.5,7z M35,32c0,1.654-1.346,3-3,3H18
		c-1.654,0-3-1.346-3-3V18c0-1.654,1.346-3,3-3h14c1.654,0,3,1.346,3,3V32z"/>
	<path d="M25.146,21.846h-1.504v3.432h1.498c1.182,0,1.873-0.602,1.873-1.709C27.014,22.447,26.336,21.846,25.146,21.846z"/>
</g>
</svg>