<?xml version="1.0" encoding="iso-8859-1"?><!-- Generator: Adobe Illustrator 21.1.0, SVG Export Plug-In . SVG Version: 6.00 Build 0)  --><svg xmlns="http://www.w3.org/2000/svg" xmlns:xlink="http://www.w3.org/1999/xlink" viewBox="0 0 50 50" width="50px" height="50px"><g><g><g><g><g></g></g></g></g></g><rect x="2" y="26" width="5" height="2"/><rect x="43" y="26" width="5" height="2"/><path d="M25.882,33H23v2h2.882C26.354,35,27,35,27,34S26.354,33,25.882,33z"/><path d="M45.242,8.03l-20-5c-0.158-0.041-0.326-0.041-0.484,0l-20,5C4.222,8.164,3.896,8.707,4.03,9.242c0.133,0.536,0.678,0.863,1.212,0.728L7,9.53V26h36V9.53l1.758,0.439C44.839,9.99,44.921,10,45.001,10c0.448,0,0.855-0.303,0.969-0.758C46.104,8.707,45.778,8.164,45.242,8.03z M26,22h-2v-8.375h-3v-1.539c0.404,0,0.797-0.034,1.178-0.101c0.382-0.067,0.727-0.18,1.035-0.337c0.309-0.157,0.572-0.359,0.791-0.606c0.219-0.247,0.362-0.55,0.429-0.909L26,10.125V22z"/><path d="M7,28v18c0,0.553,0.447,1,1,1h34c0.553,0,1-0.447,1-1V28H7z M25.882,37H23v5h-2v-5v-6h2h2.882C28.863,31,29,33.529,29,34S28.863,37,25.882,37z"/></svg>