<?xml version="1.0" encoding="utf-8"?><!-- Generator: Adobe Illustrator 18.1.1, SVG Export Plug-In . SVG Version: 6.00 Build 0)  --><svg xmlns="http://www.w3.org/2000/svg" xmlns:xlink="http://www.w3.org/1999/xlink" viewBox="0 0 50 50" width="50px" height="50px"><polygon fill="none" stroke="#000000" stroke-width="2" stroke-linecap="round" stroke-linejoin="round" stroke-miterlimit="10" points="49,24 25,14 1,24 1,20.6 25,10 49,20.6 "/><path d="M41,23.9V49c0,0.6,0.4,1,1,1h4c0.6,0,1-0.4,1-1V26.4L41,23.9z"/><path d="M33,20.6V39c0,0.6,0.4,1,1,1h4c0.6,0,1-0.4,1-1V23.1L33,20.6z"/><path d="M11,23.1V39c0,0.6,0.4,1,1,1h4c0.6,0,1-0.4,1-1V20.6L11,23.1z"/><path d="M3,26.4V49c0,0.6,0.4,1,1,1h4c0.6,0,1-0.4,1-1V23.9L3,26.4z"/><path d="M49.8,20.1l-6-9.4c-0.1-0.1-0.2-0.3-0.4-0.4l-18-9.2c-0.3-0.1-0.6-0.1-0.9,0l-18,9.2c-0.2,0.1-0.3,0.2-0.4,0.4l-6,9.4c-0.3,0.5-0.2,1.1,0.3,1.4c0.5,0.3,0.9-0.7,1.2-1.1l6.7-3.6L25,9.6l20.7,9.3l2.8,1.9c0.2,0.3,0.2,0.8,0.5,0.8c0.2,0,0.4-0.1,0.5-0.2C50,21.1,50.1,20.5,49.8,20.1z"/></svg>