<?xml version="1.0" encoding="iso-8859-1"?>
<!-- Generator: Adobe Illustrator 24.1.1, SVG Export Plug-In . SVG Version: 6.00 Build 0)  -->
<svg version="1.1" id="&#x421;&#x43B;&#x43E;&#x439;_1"
	 xmlns="http://www.w3.org/2000/svg" xmlns:xlink="http://www.w3.org/1999/xlink" x="0px" y="0px" viewBox="0 0 50 50"
	 style="enable-background:new 0 0 50 50;" xml:space="preserve">
<path d="M32,21.8v3.3c0,1-0.9,1.8-2,1.8H20c-1.1,0-2-0.8-2-1.8v-3.3c0-1,0.9-1.8,2-1.8h10C31.1,20,32,20.8,32,21.8z M20.5,31
	c-1.381,0-2.5,1.119-2.5,2.5s1.119,2.5,2.5,2.5s2.5-1.119,2.5-2.5S21.881,31,20.5,31z M29.5,31c-1.381,0-2.5,1.119-2.5,2.5
	s1.119,2.5,2.5,2.5s2.5-1.119,2.5-2.5S30.881,31,29.5,31z"/>
<g>
	<polygon points="38.198,47 29.643,40 20.357,40 11.802,47 	"/>
	<path d="M25,3C12.85,3,3,12.85,3,25v21c0,0.55,0.45,1,1,1h4.643l8.556-7H17c-1.65,0-3-1.35-3-3V17c0-1.65,1.35-3,3-3h2.04
		c0.24,1.69,1.7,3,3.46,3c0.98,0,1.87-0.4,2.5-1.06C25.63,16.6,26.52,17,27.5,17c1.76,0,3.22-1.31,3.46-3H33c1.65,0,3,1.35,3,3v20
		c0,1.65-1.35,3-3,3h-0.198l8.556,7H46c0.55,0,1-0.45,1-1V25C47,12.85,37.15,3,25,3z M23.91,14c-0.2,0.58-0.76,1-1.41,1
		s-1.21-0.42-1.41-1C21.03,13.84,21,13.68,21,13.5c0-0.83,0.67-1.5,1.5-1.5s1.5,0.67,1.5,1.5C24,13.68,23.97,13.84,23.91,14z
		 M28.91,14c-0.2,0.58-0.76,1-1.41,1s-1.21-0.42-1.41-1C26.03,13.84,26,13.68,26,13.5c0-0.83,0.67-1.5,1.5-1.5s1.5,0.67,1.5,1.5
		C29,13.68,28.97,13.84,28.91,14z"/>
</g>
</svg>