<?xml version="1.0" encoding="iso-8859-1"?><!-- Generator: Adobe Illustrator 21.1.0, SVG Export Plug-In . SVG Version: 6.00 Build 0)  --><svg xmlns="http://www.w3.org/2000/svg" xmlns:xlink="http://www.w3.org/1999/xlink" viewBox="0 0 50 50" width="50px" height="50px"><g><g><g><g><g></g></g></g></g></g><path d="M25.882,33H23v2h2.882C26.354,35,27,35,27,34S26.354,33,25.882,33z"/><rect x="2" y="26" width="5" height="2"/><rect x="43" y="26" width="5" height="2"/><path d="M7,28v18c0,0.553,0.447,1,1,1h34c0.553,0,1-0.447,1-1V28H7z M25.882,37H23v5h-2v-5v-6h2h2.882C28.863,31,29,33.529,29,34S28.863,37,25.882,37z"/><path d="M5.242,9.97L7,9.53V26h36V9.53l1.758,0.439C44.839,9.99,44.921,10,45.001,10c0.448,0,0.855-0.303,0.969-0.758c0.135-0.535-0.191-1.078-0.728-1.212l-20-5c-0.158-0.041-0.326-0.041-0.484,0l-20,5C4.222,8.164,3.896,8.707,4.03,9.242C4.163,9.778,4.708,10.105,5.242,9.97z M26.957,13c-0.049-0.241-0.143-0.465-0.283-0.672c-0.14-0.207-0.334-0.381-0.582-0.521s-0.571-0.21-0.971-0.21c-0.367,0-0.672,0.076-0.914,0.227c-0.242,0.151-0.437,0.359-0.583,0.622s-0.254,0.574-0.323,0.933c-0.07,0.359-0.111,0.745-0.121,1.16h-1.843c0-0.65,0.083-1.252,0.251-1.807c0.167-0.555,0.418-1.034,0.753-1.437c0.333-0.403,0.741-0.72,1.221-0.95c0.48-0.23,1.037-0.345,1.674-0.345c0.69,0,1.266,0.118,1.731,0.353s0.839,0.532,1.125,0.891c0.286,0.359,0.488,0.748,0.607,1.168s0.178,0.821,0.178,1.202c0,0.471-0.07,0.896-0.21,1.277c-0.14,0.381-0.329,0.731-0.567,1.05s-0.507,0.613-0.809,0.882c-0.303,0.269-0.614,0.521-0.939,0.756c-0.324,0.235-0.647,0.459-0.971,0.672c-0.323,0.213-0.623,0.427-0.898,0.639c-0.275,0.213-0.515,0.434-0.72,0.664c-0.205,0.23-0.346,0.473-0.421,0.731h5.516l0,1.714h-7.732c0.01-0.975,0.237-1.826,0.679-2.555s1.046-1.361,1.811-1.899c0.366-0.28,0.75-0.552,1.149-0.815c0.398-0.263,0.766-0.546,1.1-0.849c0.334-0.302,0.609-0.63,0.825-0.983c0.216-0.353,0.329-0.759,0.34-1.219C27.03,13.468,27.005,13.241,26.957,13z"/></svg>