<?xml version="1.0" encoding="iso-8859-1"?>
<!-- Generator: Adobe Illustrator 24.0.2, SVG Export Plug-In . SVG Version: 6.00 Build 0)  -->
<svg version="1.1" id="&#x421;&#x43B;&#x43E;&#x439;_1"
	 xmlns="http://www.w3.org/2000/svg" xmlns:xlink="http://www.w3.org/1999/xlink" x="0px" y="0px" viewBox="0 0 50 50"
	 style="enable-background:new 0 0 50 50;" xml:space="preserve">
<path d="M16,24v11h2V24H16z M12,27v5h2v-5H12z M12,27v5h2v-5H12z M16,24v11h2V24H16z M12,27v5h2v-5H12z M12,27v5h2v-5H12z M16,24v11
	h2V24H16z M16,24v11h2V24H16z M12,27v5h2v-5H12z M12,27v5h2v-5H12z M16,24v11h2V24H16z M32,24v11h2V24H32z M16,24v11h2V24H16z
	 M12,27v5h2v-5H12z M12,27v5h2v-5H12z M16,24v11h2V24H16z M36,27v5h2v-5H36z M36,27v5h2v-5H36z M32,35h2V24h-2V35z M16,35h2V24h-2
	V35z M12,32h2v-5h-2V32z M48.62,19.21l-23-17.95c-0.37-0.28-0.87-0.28-1.24,0l-23,17.95c-0.43,0.34-0.51,0.97-0.17,1.41
	c0.34,0.43,0.97,0.51,1.41,0.17L4,19.71V46c0,0.55,0.45,1,1,1h40c0.55,0,1-0.45,1-1V19.71l1.38,1.08C47.57,20.93,47.78,21,48,21
	c0.3,0,0.59-0.13,0.79-0.38C49.13,20.18,49.05,19.55,48.62,19.21z M40,33c0,0.55-0.45,1-1,1h-3v2c0,0.55-0.45,1-1,1h-4
	c-0.55,0-1-0.45-1-1v-5H20v5c0,0.55-0.45,1-1,1h-4c-0.55,0-1-0.45-1-1v-2h-3c-0.55,0-1-0.45-1-1v-7c0-0.55,0.45-1,1-1h3v-2
	c0-0.55,0.45-1,1-1h4c0.55,0,1,0.45,1,1v5h10v-5c0-0.55,0.45-1,1-1h4c0.55,0,1,0.45,1,1v2h3c0.55,0,1,0.45,1,1V33z M36,32h2v-5h-2
	V32z M32,35h2V24h-2V35z M16,35h2V24h-2V35z M12,32h2v-5h-2V32z M12,27v5h2v-5H12z M16,24v11h2V24H16z M32,24v11h2V24H32z M16,24v11
	h2V24H16z M12,27v5h2v-5H12z M12,27v5h2v-5H12z M16,24v11h2V24H16z M16,24v11h2V24H16z M12,27v5h2v-5H12z M12,27v5h2v-5H12z M16,24
	v11h2V24H16z M16,24v11h2V24H16z M12,27v5h2v-5H12z M12,27v5h2v-5H12z M16,24v11h2V24H16z M12,27v5h2v-5H12z M12,27v5h2v-5H12z"/>
</svg>