<?xml version="1.0" encoding="utf-8"?><!-- Generator: Adobe Illustrator 15.0.0, SVG Export Plug-In . SVG Version: 6.00 Build 0)  --><!DOCTYPE svg PUBLIC "-//W3C//DTD SVG 1.1//EN" "http://www.w3.org/Graphics/SVG/1.1/DTD/svg11.dtd"><svg xmlns="http://www.w3.org/2000/svg" xmlns:xlink="http://www.w3.org/1999/xlink" viewBox="0 0 50 50" width="50px" height="50px"><path d="M44,22.5c0,2.5-2,4.5-4.5,4.5S35,25,35,22.5s2-4.5,4.5-4.5S44,20,44,22.5z"/><path d="M13.661,17.784c-0.808,0.44-2.792,1.393-3.453,1.76c-1.468,0.881-1.688,2.202-1.321,3.009c0.367,0.807,1.467,1.394,3.009,0.881c0.367-0.147,4.549-2.381,4.916-2.528L13.661,17.784z"/><path d="M49.7,36.1C49.5,35.9,43.8,31,36.4,31c-0.601,0-1.2,0-1.7,0.1c0.8-1.8,0.1-3.399-0.7-4.8c-0.5-0.9-1.9-3.1-3.4-5.5c-1.699-2.6-2.884-4.346-3.684-5.846c-1.2-2.1-2.9-2.6-5-1.4c-0.2,0.1-0.8,0.4-1.6,0.8c-1.3,0.6-2.336,1.15-4.236,2.15l2.608,3.277c0.9-0.4,1.865-0.833,2.558-1.12s1.044,0.4,1.144,0.5l2.29,5.201L23.5,24.93l8.8,8.47c1.4-0.2,2.8-0.4,4.2-0.4c6.6,0,11.9,4.5,12,4.6c0.2,0.2,0.4,0.2,0.7,0.2s0.6-0.1,0.8-0.3C50.1,37.1,50.1,36.5,49.7,36.1z"/><path d="M21.819,25.919l-13.256,7.78C4.313,32.563,1.6,30.5,1.6,30.5c-0.4-0.4-1.1-0.3-1.4,0.1C-0.2,31-0.1,31.7,0.3,32c0.2,0.2,5.4,4.5,15,4.5c4.1,0,7.8-0.9,11.3-1.9c1.101-0.3,2.101-0.5,3.2-0.8L21.819,25.919z"/><line fill="none" stroke="#000000" stroke-width="2" stroke-linecap="round" stroke-linejoin="round" stroke-miterlimit="10" x1="1" y1="1" x2="49" y2="49"/></svg>