<?xml version="1.0" encoding="utf-8"?><!-- Generator: Adobe Illustrator 15.0.0, SVG Export Plug-In . SVG Version: 6.00 Build 0)  --><!DOCTYPE svg PUBLIC "-//W3C//DTD SVG 1.1//EN" "http://www.w3.org/Graphics/SVG/1.1/DTD/svg11.dtd"><svg xmlns="http://www.w3.org/2000/svg" xmlns:xlink="http://www.w3.org/1999/xlink" viewBox="0 0 50 50" width="50px" height="50px"><path d="M19.5,19.2v-4.8c5.7-1.7,5.9,2.3,11.1,1.2C27.5,19.6,22.6,16,19.5,19.2z"/><path d="M6.5,22.2v-4.8c4.7-1.7,4.9,2.2,9.2,1.2C13.2,22.6,9.1,19,6.5,22.2z"/><path d="M34.2,20.8V16c4.7-0.4,4.899,3.7,9.2,3.8C40.9,23,36.8,18.3,34.2,20.8z"/><path d="M25,20.3c-12.12,0-25,2.944-25,8.4V49c0,0.553,0.448,1,1,1h19c0.552,0,1-0.447,1-1V31.65c0.731-0.024,1.979-0.051,4-0.051c2.021,0,3.27,0.026,4,0.051V49c0,0.553,0.447,1,1,1h19c0.553,0,1-0.447,1-1V28.7C50,23.244,37.119,20.3,25,20.3z M9,46H5v-4.7l4-0.5V46z M9,36.8l-4,0.4V33c0,0,2.1-0.7,4-1V36.8z M16,46h-4v-5.4l4-0.199V46z M16,36.3l-4,0.2v-5.1c0,0,2.1-0.2,4-0.4V36.3z M38,46h-4v-5.6l4,0.199V46z M38,36.5l-4-0.2V31c1.9,0.2,4,0.4,4,0.4V36.5z M45,46h-4v-5.2l4,0.5V46z M45,37.3L41,36.9V32c1.9,0.3,4,1,4,1V37.3z"/></svg>