<?xml version="1.0" encoding="utf-8"?><!-- Generator: Adobe Illustrator 15.0.0, SVG Export Plug-In . SVG Version: 6.00 Build 0)  --><!DOCTYPE svg PUBLIC "-//W3C//DTD SVG 1.1//EN" "http://www.w3.org/Graphics/SVG/1.1/DTD/svg11.dtd"><svg xmlns="http://www.w3.org/2000/svg" xmlns:xlink="http://www.w3.org/1999/xlink" viewBox="0 0 50 50" width="50px" height="50px"><path d="M32,13v5.4h-1.8c-3.601,0-1.8-1.8-7.2-1.8v-5.4c5.4,0,3.6,1.8,7.2,1.8H32z"/><path d="M49,27H1c-0.552,0-1,0.447-1,1v21c0,0.553,0.448,1,1,1h48c0.553,0,1-0.447,1-1V28C50,27.447,49.553,27,49,27z M9,45H6v-5h3V45z M9,37H6v-5h3V37z M16,45h-3v-5h3V45z M16,37h-3v-5h3V37z M23,45h-3v-5h3V45z M23,37h-3v-5h3V37z M30,45h-3v-5h3V45z M30,37h-3v-5h3V37z M37,45h-3v-5h3V45z M37,37h-3v-5h3V37z M44,45h-3v-5h3V45z M44,37h-3v-5h3V37z"/><path d="M42,25v-3c0-0.552-0.447-1-1-1H9c-0.552,0-1,0.448-1,1v3H42z"/></svg>