<?xml version="1.0" encoding="iso-8859-1"?><!-- Generator: Adobe Illustrator 19.1.1, SVG Export Plug-In . SVG Version: 6.00 Build 0)  --><svg xmlns="http://www.w3.org/2000/svg" xmlns:xlink="http://www.w3.org/1999/xlink" viewBox="0 0 50 50" width="50px" height="50px"><g><polygon points="25,8 25,3 34,5.5 "/></g><path d="M42.5,31c-1.428,0-2.761-0.804-3.6-1.828C37.875,30.196,36.245,31,34.5,31c-1.819,0-3.515-0.875-4.528-1.961C28.879,30.132,27.03,31,25,31c-2.031,0-3.878-0.868-4.972-1.961C19.014,30.125,17.32,31,15.5,31c-1.745,0-3.375-0.804-4.4-1.828C10.261,30.196,8.928,31,7.5,31C5.119,31,3,28.763,3,27v-2.964c0-0.323,0.156-0.625,0.418-0.813l21-15.036c0.347-0.249,0.816-0.249,1.163-0.001l21,15C46.844,23.374,47,23.677,47,24v3C47,28.763,44.881,31,42.5,31z"/><g><path d="M42.5,33c-1.295,0-2.597-0.44-3.71-1.224C37.499,32.559,35.988,33,34.5,33c-1.583,0-3.216-0.515-4.565-1.401C28.5,32.493,26.755,33,25,33c-1.754,0-3.5-0.507-4.935-1.401C18.716,32.485,17.083,33,15.5,33c-1.488,0-2.999-0.441-4.29-1.224C10.097,32.56,8.795,33,7.5,33c-0.935,0-1.862-0.248-2.714-0.663L2.922,48.083h16.572l2.096-8.381h6.819l2.096,8.381h16.571l-1.863-15.746C44.362,32.752,43.435,33,42.5,33z"/></g></svg>