<?xml version="1.0" encoding="utf-8"?><!-- Generator: Adobe Illustrator 15.0.0, SVG Export Plug-In . SVG Version: 6.00 Build 0)  --><!DOCTYPE svg PUBLIC "-//W3C//DTD SVG 1.1//EN" "http://www.w3.org/Graphics/SVG/1.1/DTD/svg11.dtd"><svg xmlns="http://www.w3.org/2000/svg" xmlns:xlink="http://www.w3.org/1999/xlink" viewBox="0 0 50 50" width="50px" height="50px"><line fill="none" stroke="#000000" stroke-width="2" stroke-miterlimit="10" x1="45" y1="10" x2="39" y2="10"/><line fill="none" stroke="#000000" stroke-width="2" stroke-miterlimit="10" x1="45" y1="15" x2="39" y2="15"/><line fill="none" stroke="#000000" stroke-width="2" stroke-miterlimit="10" x1="45" y1="20" x2="39" y2="20"/><line fill="none" stroke="#000000" stroke-width="2" stroke-miterlimit="10" x1="45" y1="25" x2="39" y2="25"/><line fill="none" stroke="#000000" stroke-width="2" stroke-miterlimit="10" x1="45" y1="30" x2="39" y2="30"/><line fill="none" stroke="#000000" stroke-width="2" stroke-miterlimit="10" x1="45" y1="35" x2="39" y2="35"/><line fill="none" stroke="#000000" stroke-width="2" stroke-miterlimit="10" x1="45" y1="40" x2="39" y2="40"/><line fill="none" stroke="#000000" stroke-width="2" stroke-miterlimit="10" x1="11" y1="10" x2="5" y2="10"/><line fill="none" stroke="#000000" stroke-width="2" stroke-miterlimit="10" x1="11" y1="15" x2="5" y2="15"/><line fill="none" stroke="#000000" stroke-width="2" stroke-miterlimit="10" x1="11" y1="20" x2="5" y2="20"/><line fill="none" stroke="#000000" stroke-width="2" stroke-miterlimit="10" x1="11" y1="25" x2="5" y2="25"/><line fill="none" stroke="#000000" stroke-width="2" stroke-miterlimit="10" x1="11" y1="30" x2="5" y2="30"/><line fill="none" stroke="#000000" stroke-width="2" stroke-miterlimit="10" x1="11" y1="35" x2="5" y2="35"/><line fill="none" stroke="#000000" stroke-width="2" stroke-miterlimit="10" x1="11" y1="40" x2="5" y2="40"/><path d="M4,4v42h42V4H4z M10,44H6V6h4V44z M20,31.9V18.1L32,25L20,31.9z M44,44h-4V6h4V44z"/></svg>