<?xml version="1.0" encoding="iso-8859-1"?>
<!-- Generator: Adobe Illustrator 18.0.0, SVG Export Plug-In . SVG Version: 6.00 Build 0)  -->
<!DOCTYPE svg PUBLIC "-//W3C//DTD SVG 1.1//EN" "http://www.w3.org/Graphics/SVG/1.1/DTD/svg11.dtd">
<svg version="1.1" id="Layer_1" xmlns="http://www.w3.org/2000/svg" xmlns:xlink="http://www.w3.org/1999/xlink" x="0px" y="0px"
	 width="50px" height="50px" viewBox="0 0 50 50" style="enable-background:new 0 0 50 50;" xml:space="preserve">
<path d="M13.033,4c0,0-0.924-0.028-1.916,0.455c-0.869,0.423-1.771,1.395-2.314,2.85C7.31,7.678,6.251,8.402,5.715,9.16
	c-0.609,0.861-0.709,1.736-0.709,1.736c-0.076,0.547,0.306,1.052,0.853,1.128c0.547,0.076,1.052-0.306,1.128-0.853
	c0.003-0.023,0.005-0.045,0.007-0.068c0,0,0.025-0.325,0.354-0.789C7.676,9.85,8.261,9.302,9.652,9.088
	c0.396-0.061,0.718-0.353,0.816-0.742c0.34-1.336,0.969-1.822,1.523-2.092C12.547,5.984,12.967,6,12.967,6
	C13.519,6.018,13.982,5.585,14,5.033C14.018,4.481,13.585,4.018,13.033,4z"/>
<path d="M46.654,8.029c0,0-0.256-0.888-1.019-1.685c-0.669-0.698-1.87-1.259-3.421-1.332c-0.812-1.308-1.825-2.094-2.711-2.372
	c-1.006-0.316-1.87-0.144-1.87-0.144c-0.544,0.095-0.908,0.613-0.813,1.157c0.095,0.544,0.613,0.908,1.157,0.813
	c0.022-0.004,0.045-0.009,0.067-0.014c0,0,0.317-0.075,0.859,0.095c0.543,0.171,1.243,0.56,1.873,1.819
	c0.18,0.359,0.556,0.575,0.956,0.55c1.376-0.084,2.031,0.365,2.457,0.811c0.427,0.446,0.54,0.85,0.54,0.85
	c0.152,0.531,0.705,0.839,1.237,0.688C46.497,9.114,46.805,8.56,46.654,8.029z"/>
<path style="fill:none;stroke:#000000;stroke-width:2;stroke-linecap:round;stroke-linejoin:round;stroke-miterlimit:10;" d="
	M32.375,9.334c-1.154-0.063-2.476,0.282-3.692,1.05c-1.356,0.857-2.273,2.058-2.648,3.254c-1.239-0.172-2.714,0.14-4.067,0.994
	c-1.509,0.953-2.501,2.334-2.774,3.658"/>
<g>
	<path d="M43.516,20.761l-7.378-2.685l1.151-3.162c0.212-0.582,0.855-0.882,1.438-0.67l5.27,1.918
		c0.582,0.212,0.882,0.855,0.67,1.438L43.516,20.761z"/>
</g>
<path d="M48.047,38.047C47.969,35.828,46.219,34,44,34c-0.621,0-1.203,0.168-1.75,0.438c-0.067,0.033-0.142,0.033-0.213,0.05
	l0.539-1.482c0.275-0.757,0.221-1.553-0.082-2.237c0.695-0.369,1.253-0.981,1.533-1.75l0.767-2.108
	c0.591-1.621-0.199-3.415-1.766-4.088l0.012-0.126c-0.069-0.017-0.139-0.031-0.208-0.056l-1.736-0.632l-0.132,1.389
	c-0.043,0.453,0.226,0.878,0.654,1.034l0.553,0.201c0.645,0.235,0.978,0.95,0.743,1.594l-0.767,2.108
	c-0.228,0.625-0.959,0.973-1.594,0.742l-4.33-1.576l-0.684,1.879l4.558,1.659c0.519,0.188,0.787,0.764,0.599,1.282l-2.657,7.3
	c0.208-0.058,0.417-0.12,0.626-0.153c3.264-0.501,6.342,1.736,6.852,5.005c0.085,0.546-0.289,1.058-0.834,1.143
	c-0.052,0.008-0.104,0.012-0.155,0.012c-0.484,0-0.91-0.353-0.987-0.846c-0.164-1.056-0.73-1.984-1.592-2.615
	c-0.863-0.629-1.919-0.885-2.975-0.722c-0.445,0.069-0.877,0.224-1.321,0.471c-0.267,0.149-0.589,0.168-0.873,0.05
	s-0.496-0.36-0.578-0.655c-0.938-3.378-4.262-5.526-7.723-4.978c-1.138,0.177-2.219,0.637-3.128,1.331
	c-0.439,0.336-1.067,0.25-1.402-0.188c-0.335-0.438-0.251-1.066,0.188-1.401c1.174-0.896,2.569-1.489,4.035-1.718
	c0.273-0.042,0.544-0.07,0.815-0.087l1.996-5.483c0.144-0.394,0.521-0.658,0.94-0.658c0.116,0,0.231,0.021,0.342,0.061l1.397,0.508
	l0.684-1.879l-1.168-0.425c-0.645-0.234-0.978-0.95-0.743-1.594l0.767-2.107c0.179-0.49,0.648-0.819,1.169-0.819
	c0.145,0,0.288,0.025,0.425,0.075l0.553,0.202c0.425,0.156,0.907,0.004,1.166-0.372l0.792-1.148l-1.85-0.673
	c-0.031-0.011-0.057-0.029-0.086-0.042l-0.066,0.096c-0.304-0.091-0.616-0.138-0.933-0.138c-1.358,0-2.583,0.858-3.048,2.135
	l-0.767,2.108c-0.285,0.783-0.237,1.602,0.053,2.32c-0.684,0.335-1.234,0.924-1.504,1.668l-0.711,1.953
	C28.099,30.023,27.803,30,27.5,30c-2.828,0-5.348,1.309-7,3.344c-0.184,0.219-0.457,0.348-0.742,0.355
	c-0.289,0.004-0.563-0.113-0.758-0.324C18.258,32.535,17.195,32,16,32c-1.387,0-2.594,0.688-3.313,1.75
	c-0.164,0.246-0.434,0.406-0.73,0.438c-0.293,0.031-0.59-0.074-0.801-0.281C10.609,33.348,9.844,33,9,33
	c-1.129,0-2.078,0.609-2.594,1.531c-0.199,0.355-0.598,0.551-1,0.5C5.207,35.004,5.07,35,5,35c-1.382,0-2.521,0.92-2.875,2.182V49
	h46V38.828C48.094,38.594,48.053,38.222,48.047,38.047z M6,46c-0.552,0-1-0.448-1-1c0-0.552,0.448-1,1-1s1,0.448,1,1
	C7,45.552,6.552,46,6,46z M15,42c-0.552,0-1-0.448-1-1c0-0.552,0.448-1,1-1s1,0.448,1,1C16,41.552,15.552,42,15,42z M23,46
	c-0.552,0-1-0.448-1-1c0-0.552,0.448-1,1-1s1,0.448,1,1C24,45.552,23.552,46,23,46z M30,42c-0.552,0-1-0.448-1-1
	c0-0.552,0.448-1,1-1s1,0.448,1,1C31,41.552,30.552,42,30,42z M40,46c-0.552,0-1-0.448-1-1c0-0.552,0.448-1,1-1s1,0.448,1,1
	C41,45.552,40.552,46,40,46z"/>
<path d="M6.229,23.275c0.334-0.337,0.718-0.543,1.15-0.607l3.729-0.939c0.161-0.04,0.324-0.06,0.488-0.06
	c0.124,0,0.246,0.021,0.368,0.044l0.712-3.515c0.069-0.339-0.043-0.69-0.295-0.927c-0.253-0.238-0.61-0.328-0.944-0.237l-7.11,1.905
	c-0.334,0.089-0.599,0.346-0.699,0.677c-0.1,0.332-0.021,0.691,0.208,0.951L6.229,23.275z"/>
<g>
	<g>
		<path d="M5,33c0.082,0,0.117,0.027,0.188,0.031C6.098,31.863,7.406,31,9,31c1.055,0,1.973,0.41,2.781,0.969
			C12.875,30.828,14.301,30,16,30c1.41,0,2.605,0.594,3.625,1.406c0.097-0.101,0.211-0.185,0.312-0.283
			c-1.965-3.534-5.637-6.113-8.102-7.333c-0.129-0.064-0.238-0.121-0.238-0.121L7.69,24.653c0,0,0.002-0.046-0.119,0.117
			c-1.342,1.808-2.841,4.833-3.178,8.292C4.594,33.037,4.792,33,5,33z"/>
	</g>
</g>
</svg>