<?xml version="1.0" encoding="utf-8"?><!-- Generator: Adobe Illustrator 15.0.0, SVG Export Plug-In . SVG Version: 6.00 Build 0)  --><!DOCTYPE svg PUBLIC "-//W3C//DTD SVG 1.1//EN" "http://www.w3.org/Graphics/SVG/1.1/DTD/svg11.dtd"><svg xmlns="http://www.w3.org/2000/svg" xmlns:xlink="http://www.w3.org/1999/xlink" viewBox="0 0 50 50" width="50px" height="50px"><line fill="none" stroke="#000000" stroke-width="2" stroke-linecap="round" stroke-miterlimit="10" x1="20" y1="11" x2="30" y2="11"/><path fill="none" stroke="#000000" stroke-width="2" stroke-linecap="round" stroke-linejoin="round" stroke-miterlimit="10" d="M49,38.654C48.506,38.857,47.909,39,47.154,39c-1.538,0-3.902-0.491-5.539-2c-1.637,1.509-4,2-5.538,2s-3.901-0.491-5.539-2c-1.638,1.509-4,2-5.538,2s-3.901-0.491-5.539-2c-1.637,1.509-4,2-5.538,2s-3.901-0.491-5.538-2c-1.637,1.509-4.001,2-5.539,2C2.155,39,1.555,38.927,1,38.827"/><path fill="none" stroke="#000000" stroke-width="2" stroke-linecap="round" stroke-linejoin="round" stroke-miterlimit="10" d="M49,32.654C48.506,32.857,47.909,33,47.154,33c-1.538,0-3.902-0.491-5.539-2c-1.637,1.509-4,2-5.538,2s-3.901-0.491-5.539-2c-1.638,1.509-4,2-5.538,2s-3.901-0.491-5.539-2c-1.637,1.509-4,2-5.538,2s-3.901-0.491-5.538-2c-1.637,1.509-4.001,2-5.539,2C2.155,33,1.555,32.927,1,32.827"/><line fill="none" stroke="#000000" stroke-width="2" stroke-linecap="round" stroke-linejoin="round" stroke-miterlimit="10" x1="25" y1="17" x2="25" y2="11"/><path d="M2.846,30c1.058,0,2.606-0.377,3.504-1.205C6.906,28.282,7.628,28,8.385,28s1.479,0.282,2.033,0.794C11.317,29.623,12.865,30,13.923,30s2.606-0.377,3.503-1.205C17.982,28.282,18.705,28,19.461,28c0.756,0,1.479,0.282,2.032,0.794C22.393,29.622,23.942,30,25,30c1.058,0,2.605-0.378,3.504-1.205C29.06,28.282,29.782,28,30.538,28s1.479,0.282,2.033,0.794C33.471,29.622,35.019,30,36.077,30c1.058,0,2.606-0.377,3.504-1.205C40.137,28.282,40.859,28,41.615,28s1.479,0.282,2.033,0.794C44.547,29.623,46.096,30,47.154,30c0.083,0,0.152-0.011,0.227-0.018C47.766,29.233,48,28.396,48,27.5c0-3.033-2.468-5.5-5.5-5.5h-35C4.467,22,2,24.467,2,27.5c0,0.898,0.236,1.738,0.622,2.489C2.696,29.992,2.772,30,2.846,30z"/><path d="M42.5,20H43c0-2.757-2.243-5-5-5h-9c-0.553,0-1,0.448-1,1c0,1.654-1.346,3-3,3s-3-1.346-3-3c0-0.552-0.448-1-1-1h-9c-2.757,0-5,2.243-5,5h0.5H42.5z"/></svg>