<?xml version="1.0" encoding="utf-8"?><!-- Generator: Adobe Illustrator 15.0.0, SVG Export Plug-In . SVG Version: 6.00 Build 0)  --><!DOCTYPE svg PUBLIC "-//W3C//DTD SVG 1.1//EN" "http://www.w3.org/Graphics/SVG/1.1/DTD/svg11.dtd"><svg xmlns="http://www.w3.org/2000/svg" xmlns:xlink="http://www.w3.org/1999/xlink" viewBox="0 0 50 50" width="50px" height="50px"><polygon points="24,3.4 25,0 26,3.4 "/><path d="M35.95,15C35.442,8.17,29.852,3,25,3c-4.852,0-10.442,5.17-10.95,12H35.95z"/><path d="M46.2,24H3.8C1.634,24,0,25.634,0,27.8V49c0,0.553,0.448,1,1,1h19c0.552,0,1-0.447,1-1v-7.52l4-3.2l4,3.2V49c0,0.553,0.447,1,1,1h19c0.553,0,1-0.447,1-1V27.8C50,25.634,48.366,24,46.2,24z M9,45H6v-5h3V45z M9,34H6v-5h3V34z M15,45h-3v-5h3V45z M15,34h-3v-5h3V34z M21,34h-3v-5h3V34z M27,34h-3v-5h3V34z M33,34h-3v-5h3V34z M39,45h-3v-5h3V45z M39,34h-3v-5h3V34z M45,45h-3v-5h3V45z M45,34h-3v-5h3V34z"/><g><path d="M47.941,21c-0.381-2.909-2.775-5-4.941-5s-4.561,2.091-4.941,5H47.941z"/><rect x="38" y="22" width="10" height="4"/></g><line fill="none" stroke="#000000" stroke-width="2" stroke-linecap="round" stroke-linejoin="round" stroke-miterlimit="10" x1="43" y1="16" x2="43" y2="17"/><path d="M14,16v7h2h2v-4c0-0.552,0.448-1,1-1s1,0.448,1,1v4h2v-4c0-0.552,0.448-1,1-1s1,0.448,1,1v4h2v-4c0-0.552,0.447-1,1-1s1,0.448,1,1v4h2v-4c0-0.552,0.447-1,1-1s1,0.448,1,1v4h2h2v-7H14z"/><g><path d="M11.942,21C11.561,18.091,9.166,16,7,16s-4.561,2.091-4.942,5H11.942z"/><rect x="2" y="22" width="10" height="4"/></g><line fill="none" stroke="#000000" stroke-width="2" stroke-linecap="round" stroke-linejoin="round" stroke-miterlimit="10" x1="7" y1="16" x2="7" y2="17"/><polyline fill="none" stroke="#000000" stroke-width="2" stroke-linecap="round" stroke-linejoin="round" stroke-miterlimit="10" points="27,4.3 27,3 23,3 23,4.3 "/></svg>