<?xml version="1.0" encoding="utf-8"?><!-- Generator: Adobe Illustrator 20.1.0, SVG Export Plug-In . SVG Version: 6.00 Build 0)  --><svg xmlns="http://www.w3.org/2000/svg" xmlns:xlink="http://www.w3.org/1999/xlink" viewBox="0 0 50 50" width="50px" height="50px"><path fill="none" stroke="#000000" stroke-width="2" stroke-miterlimit="10" d="M43.6,44.7L38,42V22h7v21.8C45,44.5,44.2,45.1,43.6,44.7z"/><path fill="none" stroke="#000000" stroke-width="2" stroke-miterlimit="10" d="M6.4,44.9L12,42V22H5v22C5,44.7,5.8,45.2,6.4,44.9z"/><line fill="none" stroke="#000000" stroke-width="2" stroke-miterlimit="10" x1="5" y1="40" x2="12" y2="36"/><line fill="none" stroke="#000000" stroke-width="2" stroke-miterlimit="10" x1="5" y1="34" x2="12" y2="30"/><line fill="none" stroke="#000000" stroke-width="2" stroke-miterlimit="10" x1="5" y1="28" x2="12" y2="24"/><line fill="none" stroke="#000000" stroke-width="2" stroke-miterlimit="10" x1="45" y1="40" x2="38" y2="36"/><line fill="none" stroke="#000000" stroke-width="2" stroke-miterlimit="10" x1="45" y1="34" x2="38" y2="30"/><line fill="none" stroke="#000000" stroke-width="2" stroke-miterlimit="10" x1="45" y1="28" x2="38" y2="24"/><path d="M2,21c0,1.1,0.9,2,2,2h42c1.1,0,2-0.9,2-2v-2H2L2,21z"/><path d="M45.1,8.1C44.9,7.4,44.3,7,43.6,7H35v1v2.5c0,0.3-0.2,0.5-0.5,0.5h-19c-0.3,0-0.5-0.2-0.5-0.5V8V7H6.4C5.7,7,5.1,7.4,4.9,8.1L2.3,17h45.4L45.1,8.1z"/><path d="M34.5,12h-19c-0.8,0-1.5-0.7-1.5-1.5v-6C14,3.7,14.7,3,15.5,3h19C35.3,3,36,3.7,36,4.5v6C36,11.3,35.3,12,34.5,12z M16,10h18V5H16V10z"/><path d="M11,30v13h28V30H11z M37,35h-3v4h-4v-4h-3v4h-4v-4h-3v4h-4v-4h-3v-2h24V35z"/></svg>