<?xml version="1.0" encoding="utf-8"?><!-- Generator: Adobe Illustrator 15.0.0, SVG Export Plug-In . SVG Version: 6.00 Build 0)  --><!DOCTYPE svg PUBLIC "-//W3C//DTD SVG 1.1//EN" "http://www.w3.org/Graphics/SVG/1.1/DTD/svg11.dtd"><svg xmlns="http://www.w3.org/2000/svg" xmlns:xlink="http://www.w3.org/1999/xlink" viewBox="0 0 50 50" width="50px" height="50px"><path d="M32.3,36.3L12.7,16.7c-1.3,1-2.7,2.2-4.1,3.5c-3.5,3.2-8.3,8.3-8.4,8.3c-0.4,0.4-0.4,1,0,1.4C0.6,30.3,17.9,49.3,18.3,48.9l0,0h2c0,0,0.1-3.7,0.1-5.101c0-3.3,1.9-6.8,5.2-6.8c3.5,0,8.101,1.7,9.9,2.5h0.1L32.3,36.3z"/><path d="M46.8,27.3c-1.8-2.1-4.8-4.4-8-6.3c-0.1-0.1-0.2-0.5-0.3-0.8c-0.3-1.1-0.9-2.8-3.1-4.1c-2.101-1.3-5.9-2.4-7.4-2.8c-0.1-0.7-0.2-1.9-0.2-4C27.7,5,25.4,0,23.9,0c-0.8,0-1,0.5-1.5,1.8c-0.7,1.7-2,4.9-4.1,7c-2,1.9-2.4,4.4-2.4,5.5c-0.3,0.2-0.9,0.7-1.5,1.2l24.9,24.9c1-0.101,1.9-0.4,2.8-1.101c0.2-0.1,0.301-0.3,0.5-0.399c1.2-0.9,2.601-2,4.801-5.101c1.699-1,2.5-2.1,2.399-3.3C49.8,29.2,48.7,28.1,46.8,27.3z M33,25c-1.104,0-2-0.896-2-2s0.896-2,2-2s2,0.896,2,2S34.104,25,33,25z"/><path d="M29.8,9.3c0,1.038,0.025,1.836,0.062,2.446c0.838,0.247,1.852,0.571,2.878,0.946c0.158-0.562,0.294-1.173,0.356-1.806c0.343-3.94-0.243-7.803-0.997-8.625C31.909,2.055,31.58,1.9,31.3,1.9c-0.591,0-0.804,0.199-2.377,2.359C29.464,6.06,29.768,7.91,29.8,9.3z"/><line fill="none" stroke="#000000" stroke-width="2" stroke-linecap="round" stroke-linejoin="round" stroke-miterlimit="10" x1="1" y1="1" x2="49" y2="49"/></svg>