<?xml version="1.0" encoding="iso-8859-1"?><!-- Generator: Adobe Illustrator 22.0.1, SVG Export Plug-In . SVG Version: 6.00 Build 0)  --><svg xmlns="http://www.w3.org/2000/svg" xmlns:xlink="http://www.w3.org/1999/xlink" viewBox="0 0 50 50" width="50px" height="50px"><circle style="fill:none;stroke:#000000;stroke-width:2;stroke-linecap:round;stroke-linejoin:round;stroke-miterlimit:10;" cx="39" cy="7" r="3"/><circle style="fill:none;stroke:#000000;stroke-width:2;stroke-linecap:round;stroke-linejoin:round;stroke-miterlimit:10;" cx="21" cy="5" r="2"/><circle style="fill:none;stroke:#000000;stroke-width:2;stroke-linecap:round;stroke-linejoin:round;stroke-miterlimit:10;" cx="12" cy="14" r="4"/><path style="fill:none;stroke:#000000;stroke-width:2;stroke-linecap:round;stroke-linejoin:round;stroke-miterlimit:10;" d="M17,20H9.373c-1.982,0-3.71,1.349-4.191,3.272L3.677,30.29C3.228,32.09,3,33.938,3,35.792V44.5C3,45.88,4.119,47,5.5,47h0C6.881,47,8,45.88,8,44.5"/><path style="fill:none;stroke:#000000;stroke-width:2;stroke-linecap:round;stroke-linejoin:round;stroke-miterlimit:10;" d="M8,36v8.5C8,45.88,9.119,47,10.5,47h0c1.381,0,2.5-1.119,2.5-2.5V33l2-8"/><path style="fill:none;stroke:#000000;stroke-width:2;stroke-linecap:round;stroke-linejoin:round;stroke-miterlimit:10;" d="M45.099,40.859c0.585-0.668,0.941-1.539,0.941-2.499c0-0.947-0.356-1.803-0.924-2.472C46.24,35.218,47,34.003,47,32.6c0-1.299-0.649-2.441-1.635-3.136C46.36,28.584,47,27.312,47,25.88c0-1.633-0.82-3.071-2.066-3.939c0.086-0.274,0.146-0.559,0.146-0.861c0-0.619-0.202-1.186-0.536-1.653c-0.389-0.627-1-1.092-1.725-1.299C42.925,17.768,43,17.394,43,17c0-2.209-1.791-4-4-4c-1.208,0-2.277,0.546-3.011,1.393C35.932,13.063,34.844,12,33.5,12c-0.566,0-1.082,0.195-1.501,0.512c0-0.004,0.001-0.008,0.001-0.012c0-1.381-1.119-2.5-2.5-2.5c-1.06,0-1.96,0.662-2.324,1.593C26.445,10.631,25.301,10,24,10c-1.864,0-3.556,1.275-4,3"/><path d="M41.425,23l-0.341-0.003c-0.295-0.005-0.603-0.007-0.754,0.006c-0.404,0.03-0.901,0.237-1.339,0.463l-1.569-4.423C36.682,17.194,34.918,16,32.927,16h-0.262h-17.22c-0.693,1.191-1.968,2-3.445,2c-0.27,0-0.533-0.028-0.789-0.079c-0.256,0.34-0.478,0.712-0.642,1.122L9.875,20l5.124,1h4.353l4.854-0.971c0.811-0.161,1.602,0.364,1.765,1.177s-0.364,1.603-1.177,1.765l-4.404,0.991C20.26,23.974,20.13,23.987,20,24h-0.499c0,0-0.001,0-0.001,0h-4.542L13,33v11.5c0,0.079-0.016,0.154-0.023,0.232l1.034-0.092C15.995,44.77,21.192,45,24.047,45c4.368,0,7.367-0.104,9.96-0.352V46c0,1.103,0.897,2,2,2h5c1.103,0,2-0.897,2-2V32.105c0-1.552-0.523-3.023-1.48-4.216l1.867-0.8c0.402-0.172,0.645-0.586,0.601-1.021C43.878,24.929,43.206,23,41.425,23z M30.125,38c0,0-2.116,1-5.625,1s-5.625-1-5.625-1L17,34h15L30.125,38z M41,36h-4.16c-1.061,0-1.92-0.859-1.92-1.92L41,32.22V36z"/></svg>