<?xml version="1.0" encoding="utf-8"?><!-- Generator: Adobe Illustrator 18.1.1, SVG Export Plug-In . SVG Version: 6.00 Build 0)  --><svg xmlns="http://www.w3.org/2000/svg" xmlns:xlink="http://www.w3.org/1999/xlink" viewBox="0 0 50 50" width="50px" height="50px"><g><path d="M10.3,11C9.9,8,9.9,5.3,10,4h32c0,1.3,0,4-0.3,7.1L10.3,11l20.3,20.3c0.5-0.4,1.1-0.7,1.7-1c0.1-0.1,0.3-0.1,0.4-0.2c0.1,0,0.1,0,0.2-0.1c0,0,0,0,0.1,0c1.7-0.8,3.3-1.9,4.6-3.4c7.5-8,6.5-23.2,6.4-23.8C44,2.4,43.5,2,43,2H9C8.5,2,8,2.4,8,2.9c0,0.2-0.2,2.6,0,5.9L10.3,11z"/><path d="M34.7,43.4C32.6,42.5,29,41,29,39.6v-5.5c0-0.2,0-0.5,0.1-0.7l-1.5-1.5c-0.3,0.7-0.6,1.4-0.6,2.2v5.5c0,2.7,3.7,4.2,6.9,5.6c0.6,0.2,1.2,0.5,1.8,0.8H16.3c0.6-0.3,1.3-0.6,1.9-0.8c3.2-1.4,6.9-2.9,6.9-5.6v-5.5c0-1-0.3-1.9-0.8-2.6c0.6,0.1,1.2,0.1,1.8,0.1c0.4,0,0.8,0,1.2-0.1L8.6,12.8c0.7,4.7,2.4,10.1,5.9,13.9c1.3,1.4,2.9,2.5,4.6,3.3c0,0,0.1,0,0.1,0.1c0.1,0,0.1,0.1,0.2,0.1c0.1,0.1,0.3,0.1,0.4,0.2c1.4,0.7,3.3,1.9,3.3,3.7v5.5c0,1.3-3.5,2.8-5.6,3.7c-2.5,1.1-4.1,1.8-4.3,3c0,0.3,0,0.9,0.6,1.4c0.2,0.1,0.4,0.2,0.6,0.2h23.4c0.2,0,0.4-0.1,0.6-0.2c0.7-0.5,0.7-1.1,0.6-1.4C38.8,45.1,37.2,44.5,34.7,43.4z"/></g><line fill="none" stroke="#000000" stroke-width="2" stroke-linecap="round" stroke-linejoin="round" stroke-miterlimit="10" x1="3.5" y1="3.5" x2="44.5" y2="44.5"/></svg>