<?xml version="1.0" encoding="iso-8859-1"?><!-- Generator: Adobe Illustrator 19.1.1, SVG Export Plug-In . SVG Version: 6.00 Build 0)  --><svg xmlns="http://www.w3.org/2000/svg" xmlns:xlink="http://www.w3.org/1999/xlink" viewBox="0 0 50 50" width="50px" height="50px"><line fill="none" stroke="#000000" stroke-width="2" stroke-linecap="round" stroke-linejoin="round" stroke-miterlimit="10" x1="18" y1="47" x2="32" y2="47"/><line fill="none" stroke="#000000" stroke-width="2" stroke-linecap="round" stroke-linejoin="round" stroke-miterlimit="10" x1="25" y1="3" x2="25" y2="7"/><line fill="none" stroke="#000000" stroke-width="2" stroke-linecap="round" stroke-linejoin="round" stroke-miterlimit="10" x1="24" y1="7" x2="26" y2="7"/><line fill="none" stroke="#000000" stroke-width="2" stroke-linecap="round" stroke-linejoin="round" stroke-miterlimit="10" x1="37" y1="7" x2="37" y2="3"/><line fill="none" stroke="#000000" stroke-width="2" stroke-linecap="round" stroke-linejoin="round" stroke-miterlimit="10" x1="36" y1="7" x2="38" y2="7"/><line fill="none" stroke="#000000" stroke-width="2" stroke-linecap="round" stroke-linejoin="round" stroke-miterlimit="10" x1="13" y1="3" x2="13" y2="7"/><line fill="none" stroke="#000000" stroke-width="2" stroke-linecap="round" stroke-linejoin="round" stroke-miterlimit="10" x1="12" y1="7" x2="14" y2="7"/><path d="M20,34v13c0,0.553,0.448,1,1,1h8c0.553,0,1-0.447,1-1V34H20z"/><path d="M47,3h-7v1.766c0.613,0.55,1,1.348,1,2.234c0,1.654-1.346,3-3,3h-2c-1.654,0-3-1.346-3-3c0-0.887,0.387-1.685,1-2.234V3h-6v1.766c0.613,0.55,1,1.348,1,2.234c0,1.654-1.346,3-3,3h-2c-1.654,0-3-1.346-3-3c0-0.887,0.387-1.685,1-2.234V3h-6v1.766c0.613,0.55,1,1.348,1,2.234c0,1.654-1.346,3-3,3h-2c-1.654,0-3-1.346-3-3c0-0.887,0.387-1.685,1-2.234V3H3C2.448,3,2,3.448,2,4v27c0,0.553,0.448,1,1,1h44c0.553,0,1-0.447,1-1V4C48,3.448,47.553,3,47,3z"/></svg>