<?xml version="1.0" encoding="iso-8859-1"?><!-- Generator: Adobe Illustrator 22.1.0, SVG Export Plug-In . SVG Version: 6.00 Build 0)  --><svg xmlns="http://www.w3.org/2000/svg" xmlns:xlink="http://www.w3.org/1999/xlink" viewBox="0 0 50 50" width="50px" height="50px"><path d="M41,9H9c-1.654,0-3,1.346-3,3v35h22V36h9v11h7V12C44,10.346,42.654,9,41,9z M22,41h-9v-5h9V41z M22,31h-9v-5h9V31z M22,21h-9v-5h9V21z M37,31h-9v-5h9V31z M37,21h-9v-5h9V21z"/><polyline style="fill:none;stroke:#000000;stroke-width:2;stroke-linejoin:round;stroke-miterlimit:10;" points="10,10 10,4 40,4 40,10 "/><line style="fill:none;stroke:#000000;stroke-width:2;stroke-linejoin:round;stroke-miterlimit:10;" x1="16" y1="4" x2="16" y2="10"/><line style="fill:none;stroke:#000000;stroke-width:2;stroke-linejoin:round;stroke-miterlimit:10;" x1="22" y1="4" x2="22" y2="10"/><line style="fill:none;stroke:#000000;stroke-width:2;stroke-linejoin:round;stroke-miterlimit:10;" x1="28" y1="4" x2="28" y2="10"/><line style="fill:none;stroke:#000000;stroke-width:2;stroke-linejoin:round;stroke-miterlimit:10;" x1="34" y1="4" x2="34" y2="10"/></svg>