<?xml version="1.0" encoding="iso-8859-1"?><!-- Generator: Adobe Illustrator 21.1.0, SVG Export Plug-In . SVG Version: 6.00 Build 0)  --><svg xmlns="http://www.w3.org/2000/svg" xmlns:xlink="http://www.w3.org/1999/xlink" viewBox="0 0 50 50" width="50px" height="50px"><path d="M41,4H9C6.24,4,4,6.24,4,9v32c0,2.76,2.24,5,5,5h32c2.76,0,5-2.24,5-5V9C46,6.24,43.76,4,41,4z M34,37.86C33.48,37.93,32.55,38,31.71,38c-7.07,0-11.85-3.09-13.26-9H14v-2h4.12l-0.03-0.24C18.02,26.21,18,25.61,18,25c0-0.59,0.02-1.17,0.07-1.73L18.11,23H14v-2h4.47c1.4-5.9,6.17-9,13.24-9c0.81,0,1.72,0.07,2.22,0.14v2.18c-0.54-0.08-1.25-0.1-2.22-0.1c-5.5,0-9.3,2.3-10.62,6.78H31v2H20.65l-0.06,0.27c-0.05,0.56-0.09,1.12-0.09,1.73s0.04,1.21,0.09,1.77L20.63,27H31v2h-9.94c1.34,4.48,5.17,6.8,10.65,6.8c0.99,0,1.72-0.05,2.29-0.12V37.86z"/></svg>