<?xml version="1.0" encoding="iso-8859-1"?>
<!-- Generator: Adobe Illustrator 24.1.2, SVG Export Plug-In . SVG Version: 6.00 Build 0)  -->
<svg version="1.1" xmlns="http://www.w3.org/2000/svg" xmlns:xlink="http://www.w3.org/1999/xlink" x="0px" y="0px"
	 viewBox="0 0 50 50" style="enable-background:new 0 0 50 50;" xml:space="preserve">
<g id="Layer_10" style="display:none;">
</g>
<g id="filled" style="display:none;">
</g>
<g id="out" style="display:none;">
</g>
<g id="rounded" style="display:none;">
</g>
<g id="two_x5F_tone" style="display:none;">
</g>
<g id="sharp" style="display:none;">
</g>
<g id="win10" style="display:none;">
</g>
<g id="ios_x5F_out">
</g>
<g id="ios_x5F_filled">
	<path style="fill:none;stroke:#000000;stroke-width:2;stroke-linecap:round;stroke-linejoin:round;" d="M2,21L25,3l23,18"/>
	<path d="M45,19v27H4.961L5,19L25,3L45,19z M34.6,26.98c-0.3-0.11-0.58-0.2-0.86-0.28c0.71,1.21,1.21,2.67,1.21,4.3
		c0,0.53-0.42,0.95-0.95,0.95s-0.95-0.42-0.95-0.95c0-2.17-1.16-3.97-2.3-5.03c-0.01-0.01-0.01-0.01-0.01-0.01
		c-1.49-1-3.34-1.23-4.95-0.63c1.48,1.7,2.16,4.01,2.16,5.67c0,0.53-0.42,0.95-0.95,0.95s-0.95-0.42-0.95-0.95
		c0-1.42-0.7-3.46-1.99-4.74c-1.56-1.15-3.5-1.54-5.38-0.25c0.82,0.77,1.82,2.21,2.26,4.83c0.09,0.52-0.26,1.01-0.78,1.1
		c-0.06,0.01-0.11,0.01-0.16,0.01c-0.46,0-0.86-0.33-0.94-0.79c-0.42-2.52-1.41-3.575-1.94-3.955c-0.91-0.46-1.7-0.225-1.7-0.225
		c-8.34,2.71-6.6,7.38-5.4,8.78c2.56,2.99,7.92,4.26,14.99,4.24c7.07,0.02,12.42-1.25,15-4.24C41.21,34.36,42.85,29.91,34.6,26.98z"
		/>
	<path style="fill:none;stroke:#000000;stroke-width:2;stroke-linecap:round;stroke-linejoin:round;" d="M45,19v27H4.961L5,19L25,3
		L45,19z"/>
</g>
<g id="Layer_18">
</g>
</svg>