<?xml version="1.0" encoding="iso-8859-1"?>
<!-- Generator: Adobe Illustrator 23.0.3, SVG Export Plug-In . SVG Version: 6.00 Build 0)  -->
<svg version="1.1" xmlns="http://www.w3.org/2000/svg" xmlns:xlink="http://www.w3.org/1999/xlink" x="0px" y="0px"
	 viewBox="0 0 50 50" style="enable-background:new 0 0 50 50;" xml:space="preserve">
<g id="Layer_10" style="display:none;">
</g>
<g id="filled">
</g>
<g id="outlined">
</g>
<g id="rounded">
</g>
<g id="two_x5F_tone">
</g>
<g id="sharp">
</g>
<g id="win10">
</g>
<g id="ios_x5F_out">
</g>
<g id="ios_x5F_filled">
	<polygon points="50.14,45 -0.03,45 6,30.92 6,41 44,41 44,31.84 	"/>
	<path d="M24,6v6h-5v12h-7V6H24z M17,20h-2v2h2V20z M17,16h-2v2h2V16z M17,12h-2v2h2V12z M17,8h-2v2h2V8z M21,8h-2v2h2V8z"/>
	<path d="M8,26h11v13H8V26z M13,28h-2v2h2V28z M17,28h-2v2h2V28z M13,32h-2v2h2V32z M17,32h-2v2h2V32z"/>
	<path d="M34,14v6h-6v19h-7V14H34z M26,24h-2v2h2V24z M26,20h-2v2h2V20z M26,16h-2v2h2V16z M31,16h-2v2h2V16z M26,28h-2v2h2V28z
		 M26,32h-2v2h2V32z"/>
	<path d="M30,22h12v17H30V22z M35,24h-2v2h2V24z M39,24h-2v2h2V24z M35,28h-2v2h2V28z M39,28h-2v2h2V28z M35,32h-2v2h2V32z M39,32
		h-2v2h2V32z"/>
</g>
<g id="color">
</g>
</svg>