<?xml version="1.0" encoding="utf-8"?><!-- Generator: Adobe Illustrator 15.0.0, SVG Export Plug-In . SVG Version: 6.00 Build 0)  --><!DOCTYPE svg PUBLIC "-//W3C//DTD SVG 1.1//EN" "http://www.w3.org/Graphics/SVG/1.1/DTD/svg11.dtd"><svg xmlns="http://www.w3.org/2000/svg" xmlns:xlink="http://www.w3.org/1999/xlink" viewBox="0 0 50 50" width="50px" height="50px"><path d="M25,6c-0.552,0-1-0.448-1-1V1c0-0.552,0.448-1,1-1s1,0.448,1,1v4C26,5.552,25.552,6,25,6z"/><path d="M34,14.041H16c-0.575,0-1.041-0.466-1.041-1.041s0.466-1.041,1.041-1.041h18c0.575,0,1.041,0.466,1.041,1.041S34.575,14.041,34,14.041z"/><path d="M44,34H6c-0.552,0-1-0.447-1-1v-3.7c0-0.414,0.255-0.784,0.642-0.934l19-7.3c0.23-0.089,0.486-0.089,0.717,0l19,7.3C44.745,28.516,45,28.886,45,29.3V33C45,33.553,44.553,34,44,34z"/><g><polygon points="30,20.9 30,13 28,13 28,20.2 "/><polygon points="34,22.5 34,13 32,13 32,21.7 "/><polygon points="18,21.7 18,13 16,13 16,22.5 "/><polygon points="22,20.2 22,13 20,13 20,20.9 "/><polygon points="25,19 26,19.4 26,13 24,13 24,19.4 "/></g><path d="M7,36v13c0,0.553,0.448,1,1,1h11.3c0.552,0,1-0.447,1-1v-5.4c0-2.338,1.548-4.32,3.691-4.718c1.416-0.271,2.849,0.08,3.934,0.974c1.063,0.879,1.675,2.17,1.675,3.545V49c0,0.553,0.447,1,1,1H42c0.553,0,1-0.447,1-1V36H7z"/><path d="M33.475,10C32.235,6.51,28.909,4,25,4c-3.909,0-7.235,2.51-8.475,6H33.475z"/></svg>