<?xml version="1.0" encoding="utf-8"?><!-- Generator: Adobe Illustrator 15.0.0, SVG Export Plug-In . SVG Version: 6.00 Build 0)  --><!DOCTYPE svg PUBLIC "-//W3C//DTD SVG 1.1//EN" "http://www.w3.org/Graphics/SVG/1.1/DTD/svg11.dtd"><svg xmlns="http://www.w3.org/2000/svg" xmlns:xlink="http://www.w3.org/1999/xlink" viewBox="0 0 50 50" width="50px" height="50px"><path fill="none" stroke="#000000" stroke-width="2" stroke-linecap="round" stroke-linejoin="round" stroke-miterlimit="10" d="M35,6c2.225,0,6.527,0.405,7,6c2.111,0,8.359,0.825,5,9"/><path fill="none" stroke="#000000" stroke-width="2" stroke-linecap="round" stroke-linejoin="round" stroke-miterlimit="10" d="M29,5c-1,1-6.058,9.59,5,11c5.146,0.656,7.281,1.738,8,5"/><g><rect x="40" y="24" width="3" height="10"/><path d="M38,24H1c-0.552,0-1,0.448-1,1v8c0,0.553,0.448,1,1,1h37V24z"/><path d="M49,24h-4v10h4c0.553,0,1-0.447,1-1v-8C50,24.448,49.553,24,49,24z"/></g></svg>