<?xml version="1.0" encoding="utf-8"?><!-- Generator: Adobe Illustrator 15.0.0, SVG Export Plug-In . SVG Version: 6.00 Build 0)  --><!DOCTYPE svg PUBLIC "-//W3C//DTD SVG 1.1//EN" "http://www.w3.org/Graphics/SVG/1.1/DTD/svg11.dtd"><svg xmlns="http://www.w3.org/2000/svg" xmlns:xlink="http://www.w3.org/1999/xlink" viewBox="0 0 50 50" width="50px" height="50px"><path d="M15.758,20l-4.713-4.713c-0.012,0.302-0.027,0.604-0.027,0.912c0,1.538,0.018,2.791,0.041,3.801H15.758z"/><circle cx="21" cy="18" r="1.5"/><path d="M18.266,19.68C17.584,16.372,18.154,12.947,21,9c1.042,2.798,6.695,5.984,9.971,5.984c0,1.988,0.049,3.708,0.105,5.016h8.892C39.282,7.098,33.9,0.034,24.632,0.034c-3.327,0-5.045,1.998-5.699,3.002c-3.785,0.367-6.739,4.242-7.631,9.68L18.266,19.68z"/><circle cx="28" cy="18" r="1.5"/><path d="M40.758,45H6c-0.6,0-1-0.4-1-1V28c0-0.6,0.4-1,1-1h16.758l-5-5H4c-2.243,0-4,1.757-4,4v20c0,2.243,1.757,4,4,4h41.758L40.758,45z"/><circle cx="27" cy="41.5" r="1"/><path d="M20.913,31.039C17.789,31.464,15.5,35.26,15.5,40.2c0,1.811,0.036,3.067,0.065,3.8h5.402c-0.823-2.541-0.982-5.372,1.533-8.6c0.7,1.898,4.5,4,6.7,4c0,1.675,0.015,3.381,0.028,4.6h6.254c-0.03-1.707-0.178-3.271-0.428-4.703L24.767,29.01C22.625,29.062,21.433,30.293,20.913,31.039z"/><path d="M28.062,29.476l5.9,5.9C32.719,32.326,30.73,30.325,28.062,29.476z"/><circle cx="23" cy="41.5" r="1"/><path d="M46,22H20.586l5,5H42c0.6,0,1,0.4,1,1v16c0,0.129-0.026,0.243-0.062,0.353l5.092,5.092C49.213,48.757,50,47.493,50,46V26C50,23.757,48.243,22,46,22z M46,37.5c-0.828,0-1.5-0.672-1.5-1.5s0.672-1.5,1.5-1.5s1.5,0.672,1.5,1.5S46.828,37.5,46,37.5z"/><line fill="none" stroke="#000000" stroke-width="2" stroke-linecap="round" stroke-linejoin="round" stroke-miterlimit="10" x1="1" y1="1" x2="49" y2="49"/></svg>