<?xml version="1.0" encoding="iso-8859-1"?><!-- Generator: Adobe Illustrator 21.1.0, SVG Export Plug-In . SVG Version: 6.00 Build 0)  --><svg xmlns="http://www.w3.org/2000/svg" xmlns:xlink="http://www.w3.org/1999/xlink" viewBox="0 0 50 50" width="50px" height="50px"><g style="display:none;"><g style="display:inline;"><g><g></g></g></g></g><rect x="29" y="20" width="3" height="3"/><path d="M37,4H13c-0.553,0-1,0.447-1,1v23h26V5C38,4.447,37.553,4,37,4z M24,23h-7c-0.553,0-1-0.447-1-1s0.447-1,1-1h7c0.553,0,1,0.447,1,1S24.553,23,24,23z M24,14h-7c-0.553,0-1-0.447-1-1s0.447-1,1-1h7c0.553,0,1,0.447,1,1S24.553,14,24,14z M34,24c0,0.553-0.447,1-1,1h-5c-0.553,0-1-0.447-1-1v-5c0-0.553,0.447-1,1-1h5c0.553,0,1,0.447,1,1V24z M33.707,14.293c0.391,0.391,0.391,1.023,0,1.414C33.512,15.902,33.256,16,33,16s-0.512-0.098-0.707-0.293L30.5,13.914l-1.793,1.793C28.512,15.902,28.256,16,28,16s-0.512-0.098-0.707-0.293c-0.391-0.391-0.391-1.023,0-1.414l1.793-1.793l-1.793-1.793c-0.391-0.391-0.391-1.023,0-1.414C27.488,9.098,27.744,9,28,9s0.512,0.098,0.707,0.293l1.793,1.793l1.793-1.793C32.488,9.098,32.744,9,33,9s0.512,0.098,0.707,0.293c0.391,0.391,0.391,1.023,0,1.414L31.914,12.5L33.707,14.293z"/><rect x="29" y="20" width="3" height="3"/><path d="M47.974,35c0-0.095,0.012-0.189-0.015-0.282l-5-17C42.834,17.292,42.443,17,42,17h-2v9.278c0.595,0.347,1,0.985,1,1.722c0,1.103-0.897,2-2,2H11c-1.103,0-2-0.897-2-2c0-0.737,0.405-1.375,1-1.722V17H8c-0.443,0-0.834,0.292-0.959,0.718l-5,17C2.014,34.811,2.026,34.905,2.026,35H47.974z"/><rect x="2" y="37" width="46" height="9"/></svg>