<?xml version="1.0" encoding="utf-8"?><!-- Generator: Adobe Illustrator 15.0.0, SVG Export Plug-In . SVG Version: 6.00 Build 0)  --><!DOCTYPE svg PUBLIC "-//W3C//DTD SVG 1.1//EN" "http://www.w3.org/Graphics/SVG/1.1/DTD/svg11.dtd"><svg xmlns="http://www.w3.org/2000/svg" xmlns:xlink="http://www.w3.org/1999/xlink" viewBox="0 0 50 50" width="50px" height="50px"><path d="M18,47H4c-0.552,0-1-0.447-1-1v-9c0-0.553,0.448-1,1-1h14c0.552,0,1,0.447,1,1v9C19,46.553,18.552,47,18,47z"/><circle cx="42" cy="8" r="4"/><line fill="none" stroke="#000000" stroke-width="2" stroke-linecap="round" stroke-linejoin="round" stroke-miterlimit="10" x1="1" y1="1" x2="49" y2="49"/><path d="M45.4,38.5C44,39.6,41.9,40,40.5,40c-0.6,0-1.2-0.1-2-0.2l2.2,2.2c1.8,0,4.2-0.6,5.899-1.9c0.4-0.3,0.5-1,0.2-1.399C46.4,38.2,45.8,38.2,45.4,38.5z"/><path d="M46.8,43.7c-0.3-0.4-1-0.5-1.399-0.2C44.8,44,44.1,44.3,43.3,44.5l1.601,1.6c0.6-0.3,1.199-0.6,1.8-1C47.1,44.7,47.1,44.1,46.8,43.7z"/><path d="M23.778,25L23.778,25c0.2-0.3,0.421-0.7,0.222-1l-2-5l11-3l8,9c1.1,1.2,2.167,1.75,3.408,0.888c1.398-0.972,0.892-2.405-0.208-3.706L34.503,9.471c-1.3-1.6-2.716-2.343-4.716-1.743l-14.1,4.5c-1.2,0.4-1.838,0.933-2.438,2.033L23.778,25z"/><path d="M13.848,18.09l4.528,7.584l-4.175,6.229c-0.9,1.5-1.007,2.812,0.441,3.693c1.659,1.011,2.808-0.213,3.308-1.213l4.7-7.492L13.848,18.09z"/><path d="M34.3,38.5c0,0,0,0-0.1,0c-1.4,1.1-3.5,1.5-4.9,1.5c-1.399,0-3.5-0.4-4.9-1.5c-0.4-0.3-0.9-0.3-1.2,0c-0.633,0.497-1.41,0.845-2.2,1.084v2.081c0.967-0.237,1.946-0.613,2.8-1.165c1.7,1.1,3.9,1.5,5.5,1.5c1.601,0,3.8-0.4,5.5-1.5c0.8,0.5,1.7,0.8,2.601,1.1L34.3,38.5z"/><path d="M40.9,45c-0.101,0-0.301,0-0.4,0c-1.4,0-3.5-0.4-4.9-1.5c-0.399-0.3-0.899-0.3-1.199,0C33,44.6,30.9,45,29.5,45s-3.5-0.4-4.9-1.5c-0.4-0.3-0.9-0.3-1.2,0c-0.687,0.539-1.542,0.908-2.4,1.146v2.062c1.031-0.233,2.087-0.617,3-1.208c1.7,1.1,3.9,1.5,5.5,1.5s3.8-0.4,5.5-1.5c1.7,1.1,3.9,1.5,5.5,1.5c0.7,0,1.4-0.1,2.2-0.2L40.9,45z"/></svg>