<?xml version="1.0" encoding="iso-8859-1"?><!-- Generator: Adobe Illustrator 22.0.1, SVG Export Plug-In . SVG Version: 6.00 Build 0)  --><svg xmlns="http://www.w3.org/2000/svg" xmlns:xlink="http://www.w3.org/1999/xlink" viewBox="0 0 50 50" width="50px" height="50px"><g></g><path style="fill:none;stroke:#000000;stroke-width:2;stroke-miterlimit:10;" d="M30.898,9C30.432,6.725,28.408,5,26,5h-3c-2.75,0-5,2.25-5,5v21"/><path d="M37,15H25v-1c0-3.313,5.019-5.656,5.592-5.913L31,7.904l0.408,0.183C31.981,8.344,37,10.687,37,14V15z"/><circle cx="31" cy="15" r="2"/><line style="fill:none;stroke:#000000;stroke-width:2;stroke-miterlimit:10;" x1="14" y1="45" x2="22" y2="45"/><path d="M20,46h-4c-0.553,0-1-0.448-1-1V34c0-0.552,0.447-1,1-1h4c0.553,0,1,0.448,1,1v11C21,45.552,20.553,46,20,46z"/></svg>