<?xml version="1.0" encoding="utf-8"?><!-- Generator: Adobe Illustrator 15.0.0, SVG Export Plug-In . SVG Version: 6.00 Build 0)  --><!DOCTYPE svg PUBLIC "-//W3C//DTD SVG 1.1//EN" "http://www.w3.org/Graphics/SVG/1.1/DTD/svg11.dtd"><svg xmlns="http://www.w3.org/2000/svg" xmlns:xlink="http://www.w3.org/1999/xlink" viewBox="0 0 50 50" width="50px" height="50px"><line fill="none" stroke="#000000" stroke-width="2" stroke-linecap="round" stroke-linejoin="round" stroke-miterlimit="10" x1="1" y1="1" x2="49" y2="49"/><path d="M14,18.2c-0.8,0.2-1.7,0.4-2.8,0.4c-2.1,0-6.4-1.9-7.8-2.6c-0.5-0.2-1.1-0.1-1.3,0.4c-1.2,2.3-2.1,6.9-2,9.2C0.2,29.9,2,31.9,2.1,32c0.2,0.2,0.5,0.3,0.8,0.3H14c2.5,0,4.2,0.2,4.9,0.601c2.8,1.8,7.2,2.8,12.9,3L14,18.2z"/><path d="M14,33.3H2.9c-0.558,0-1.081-0.203-1.453-0.549L1.4,34.4c0,0.882,0.673,1.6,1.5,1.6h10.6c0.759,0,1.4-0.642,1.4-1.4v-1.288C14.617,33.306,14.329,33.3,14,33.3z"/><path d="M34.7,36h0.1c8.601,0,14.601-4,14.8-4.1C49.9,31.7,50,31.4,50,31.1c0-1-0.1-1.899-0.4-2.6c-0.199-0.4-0.5-0.6-0.899-0.6c-2.101-5.3-7-5.7-10.9-6c-1.8-0.1-3.5-0.3-4.7-0.9C28.4,18.7,22,12.4,21.9,12.3C21.7,12.1,21.3,12,21,12c-0.3,0.1-0.6,0.3-0.7,0.7c-0.1,0.2-1.1,3-4.1,4.7"/></svg>