<?xml version="1.0" encoding="iso-8859-1"?>
<!-- Generator: Adobe Illustrator 25.0.1, SVG Export Plug-In . SVG Version: 6.00 Build 0)  -->
<svg version="1.1" id="Tone" xmlns="http://www.w3.org/2000/svg" xmlns:xlink="http://www.w3.org/1999/xlink" x="0px" y="0px"
	 viewBox="0 0 50 50" style="enable-background:new 0 0 50 50;" xml:space="preserve">
<g id="Line">
</g>
<g>
	<path d="M35.999,28c-0.15,0-0.303-0.034-0.446-0.105c-0.494-0.247-0.694-0.848-0.447-1.342c0.003-0.006,0.574-1.217,0.102-2.433
		c-0.354-0.911-1.222-1.649-2.578-2.191c-2.037-0.815-3.245-1.975-3.593-3.448c-0.512-2.173,1.146-4.066,1.217-4.146
		c0.369-0.413,1.001-0.449,1.412-0.082c0.411,0.366,0.449,0.996,0.085,1.408l0,0c-0.011,0.013-1.043,1.213-0.765,2.369
		c0.239,0.994,1.43,1.658,2.386,2.041c1.906,0.763,3.155,1.893,3.713,3.357c0.777,2.044-0.149,3.938-0.189,4.019
		C36.719,27.798,36.366,28,35.999,28z"/>
</g>
<g>
	<path d="M41,28c-0.256,0-0.512-0.098-0.707-0.293c-0.391-0.391-0.391-1.023,0-1.414c2.205-2.205,0.229-4.352-0.004-4.59
		c-0.277-0.283-0.364-0.707-0.218-1.074c0.436-1.089,0.45-1.969,0.046-2.692c-0.703-1.257-2.609-1.834-3.284-1.95
		c-0.543-0.094-0.91-0.609-0.817-1.153c0.092-0.543,0.606-0.916,1.148-0.819c0.138,0.022,3.371,0.586,4.693,2.937
		c0.628,1.116,0.722,2.404,0.28,3.833c1.159,1.493,2.179,4.314-0.431,6.924C41.512,27.902,41.256,28,41,28z"/>
</g>
<g>
	<g>
		<path d="M26.929,27.163c0.112-0.399,0.066-0.813-0.129-1.163l-4.821-6.025l-0.002-0.348c-0.026-4.314-1.186-7.753-3.444-10.222
			C16.441,7.122,11.386,5.394,6,5.072V45h3c0.552,0,1-0.448,1-1v-4.011l1.501,0.286c0.322,0.063,0.592,0.115,1.25,0.225
			C14.147,40.732,15.893,41,17,41c3.315,0,4.743-1.749,5.204-2.501C22.954,37.273,23,36.014,23,36.001V30l3.188-1.901
			C26.563,27.889,26.817,27.563,26.929,27.163z"/>
		<g>
			<rect x="25" y="32" width="12" height="4"/>
			<path d="M42,32h-3v4h3c0.552,0,1-0.448,1-1v-2C43,32.448,42.552,32,42,32z"/>
		</g>
	</g>
</g>
</svg>