<?xml version="1.0" encoding="iso-8859-1"?>
<!-- Generator: Adobe Illustrator 23.1.0, SVG Export Plug-In . SVG Version: 6.00 Build 0)  -->
<svg version="1.1" id="Layer_1" xmlns="http://www.w3.org/2000/svg" xmlns:xlink="http://www.w3.org/1999/xlink" x="0px" y="0px"
	 viewBox="0 0 50 50" style="enable-background:new 0 0 50 50;" xml:space="preserve">
<path d="M48.616,19.212l-23-18c-0.361-0.283-0.871-0.283-1.232,0l-23,18c-0.435,0.34-0.512,0.969-0.171,1.404
	c0.34,0.434,0.968,0.512,1.403,0.171L3.622,20H4v26c0,0.553,0.447,1,1,1h40c0.553,0,1-0.447,1-1V20h0.378l1.006,0.787
	c0.183,0.143,0.4,0.212,0.615,0.212c0.297,0,0.591-0.132,0.788-0.384C49.128,20.181,49.051,19.553,48.616,19.212z M39.989,29.315
	c0.259,1.074-0.401,2.154-1.475,2.413l-5.833,1.407c-1.074,0.259-2.154-0.401-2.413-1.475c-0.086-0.356-0.068-0.711,0.031-1.036
	l9.19-2.217C39.725,28.652,39.903,28.959,39.989,29.315z M30.536,28.51l-0.704-2.917l0.469,1.944l0,0l-0.938-3.888l0,0l-0.235-0.972
	l7.777-1.876l1.407,5.833L30.536,28.51z M28.929,17.582l5.833-1.407c1.074-0.259,2.154,0.401,2.413,1.475
	c0.086,0.356,0.068,0.71-0.031,1.036l-9.19,2.217c-0.237-0.245-0.414-0.552-0.5-0.908C27.195,18.921,27.855,17.841,28.929,17.582z
	 M9.418,30.517c-0.259-1.074,0.401-2.154,1.475-2.413l16.527-3.987l0.938,3.888l-16.527,3.987
	C10.758,32.252,9.677,31.591,9.418,30.517z M41,41.586C41,41.815,40.815,42,40.586,42H26.414C26.185,42,26,41.815,26,41.586v-1.351
	C26,39.001,27.001,38,28.235,38h10.53C39.999,38,41,39.001,41,40.235V41.586z"/>
</svg>