<?xml version="1.0" encoding="utf-8"?><!-- Generator: Adobe Illustrator 18.1.1, SVG Export Plug-In . SVG Version: 6.00 Build 0)  --><svg xmlns="http://www.w3.org/2000/svg" xmlns:xlink="http://www.w3.org/1999/xlink" viewBox="0 0 50 50" width="50px" height="50px"><path d="M37.2,7H32v3.3c0.6,0.3,1,1,1,1.7c0,1.1-0.9,2-2,2s-2-0.9-2-2c0-0.7,0.4-1.4,1-1.7V7H20v3.3c0.6,0.3,1,1,1,1.7c0,1.1-0.9,2-2,2s-2-0.9-2-2c0-0.7,0.4-1.4,1-1.7V7h-5.2L9.9,33h30.2L37.2,7z"/><path d="M25,2c2.8,0,5,2.2,5,5h2c0-3.9-3.1-7-7-7c-3.9,0-7,3.1-7,7h2C20,4.2,22.2,2,25,2z"/><polygon stroke="#000000" stroke-width="2" stroke-linecap="round" stroke-linejoin="round" stroke-miterlimit="10" points="49,31 25,45 1,31 1,35 25,49 49,35 "/><g><line fill="none" stroke="#000000" stroke-width="2" stroke-linecap="round" stroke-linejoin="round" stroke-miterlimit="10" x1="49" y1="31" x2="42" y2="27.8"/><line fill="none" stroke="#000000" stroke-width="2" stroke-linecap="round" stroke-linejoin="round" stroke-miterlimit="10" x1="8" y1="27.8" x2="1" y2="31"/></g></svg>