<?xml version="1.0" encoding="utf-8"?><!-- Generator: Adobe Illustrator 19.2.0, SVG Export Plug-In . SVG Version: 6.00 Build 0)  --><svg xmlns="http://www.w3.org/2000/svg" xmlns:xlink="http://www.w3.org/1999/xlink" viewBox="0 0 50 50" width="50px" height="50px"><rect x="22" y="4" width="6" height="2"/><rect x="24" y="2" width="2" height="10"/><path d="M24.4,17.6c0.4-0.3,0.9-0.3,1.2,0l6.2,4.8L25.9,9.6C25.7,9.2,25.4,9,25,9s-0.7,0.2-0.9,0.6l-5.9,12.8L24.4,17.6z"/><path d="M4.7,33.1C4.3,33.2,4,33.6,4,34v13c0,0.6,0.4,1,1,1h11V29.3L4.7,33.1z M13,46H7c0,0,0-0.8,0-2c0-3,3-5,3-5s3,2,3,5C13,45.1,13,46,13,46z"/><path d="M45.3,33.1L34,29.3V48h11c0.6,0,1-0.4,1-1V34C46,33.6,45.7,33.2,45.3,33.1z M43,46h-6c0,0,0-0.8,0-2c0-3,3-5,3-5s3,2,3,5C43,45.1,43,46,43,46z"/><path d="M25,19.6L18,25v23h14V25L25,19.6z M27,46h-4c0,0,0-2,0-4s2-4,2-4s2,2,2,4S27,46,27,46z M25,28c-1.1,0-2-0.9-2-2c0-1.1,0.9-2,2-2s2,0.9,2,2C27,27.1,26.1,28,25,28z"/></svg>