<?xml version="1.0" encoding="iso-8859-1"?><!-- Generator: Adobe Illustrator 22.1.0, SVG Export Plug-In . SVG Version: 6.00 Build 0)  --><svg xmlns="http://www.w3.org/2000/svg" xmlns:xlink="http://www.w3.org/1999/xlink" viewBox="0 0 50 50" width="50px" height="50px"><path d="M34,20c-0.553,0-1-0.448-1-1v-8c0-4.411-3.589-8-8-8s-8,3.589-8,8v8c0,0.552-0.448,1-1,1s-1-0.448-1-1v-8c0-5.514,4.486-10,10-10s10,4.486,10,10v8C35,19.552,34.553,20,34,20z"/><circle cx="29" cy="41" r="1"/><circle cx="21" cy="41" r="1"/><path d="M42.89,13H37v6c0,1.66-1.34,3-3,3c-0.22,0-0.44-0.03-0.65-0.07v-0.01C32,21.62,31,20.43,31,19c0-1.66,1.34-3,3-3c0.35,0,0.69,0.07,1,0.18V13H19v6c0,1.66-1.34,3-3,3c-0.22,0-0.44-0.03-0.65-0.07c0,0,0,0,0-0.01C14.01,21.63,13,20.43,13,19c0-1.66,1.34-3,3-3c0.35,0,0.69,0.07,1,0.18V13H7.11L2.88,50h44.24L42.89,13z M16,48V33h8v15H16z M26,48V33h8v15H26z"/></svg>