<?xml version="1.0" encoding="iso-8859-1"?><!-- Generator: Adobe Illustrator 19.1.0, SVG Export Plug-In . SVG Version: 6.00 Build 0)  --><svg xmlns="http://www.w3.org/2000/svg" xmlns:xlink="http://www.w3.org/1999/xlink" viewBox="0 0 50 50" width="50px" height="50px"><path d="M5.881,19H5.099C2.077,19,1,20.854,1,22.588c0,0.844,0.376,2.206,2.623,2.378C4.25,23.297,5.068,21.129,5.881,19z"/><path d="M44.9,19h-0.836c0.906,2.339,1.791,4.639,2.303,5.967C48.622,24.798,49,23.434,49,22.588C49,20.854,47.923,19,44.9,19z"/><path d="M44.934,26.814c-0.106-0.28-1.529-3.994-2.938-7.623c-0.014-0.032-0.023-0.06-0.035-0.092c-1.17-3.015-2.32-5.951-2.688-6.79c-0.838-1.904-3.144-2.769-4.836-3.254C33.916,8.839,31.482,8,25,8c-6.599,0-9.003,0.87-9.464,1.068c-1.549,0.527-3.857,1.326-4.854,3.26c-0.677,1.315-5.114,13.148-5.618,14.492L5,26.991v5.565v2.586V39c0,1.654,1.346,3,3,3h4c1.654,0,3-1.346,3-3v-1h20v1c0,1.654,1.346,3,3,3h4c1.654,0,3-1.346,3-3v-3.857v-2.586v-5.568L44.934,26.814z M9.974,19.484l0.078-0.192l-0.018,0.052c1.174-3.062,2.174-5.61,2.426-6.1c0.636-1.234,2.517-1.874,3.762-2.297l0.095-0.038C16.337,10.9,18.448,10,25,10s8.662,0.9,8.67,0.903l0.156,0.059c0.754,0.214,3.049,0.865,3.615,2.154c0.334,0.763,1.377,3.419,2.476,6.247l-0.005,0.002l0.079,0.193c0.016,0.039,0.034,0.086,0.052,0.131c0.027,0.069,0.055,0.141,0.082,0.211c0.245,0.644,0.529,1.596,0.139,2.179C39.863,22.673,38.704,23,37,23H13c-1.705,0-2.899-0.4-3.299-0.996C9.231,21.307,9.733,20.076,9.974,19.484z M15,33c-1.676,0-2.187-0.434-3.92-1.416C9.919,30.927,9,30.307,9,29c0-1.105,0.896-2,2-2c0.755,0,3.096,0,4,0c1.656,0,3,1.342,3,3S16.656,33,15,33z M32,30c0-1.658,1.344-3,3-3c0.904,0,3.245,0,4,0c1.104,0,2,0.895,2,2c0,1.307-0.919,1.927-2.08,2.584C37.188,32.566,36.676,33,35,33C33.344,33,32,31.658,32,30z"/></svg>