<?xml version="1.0" encoding="iso-8859-1"?><!-- Generator: Adobe Illustrator 21.1.0, SVG Export Plug-In . SVG Version: 6.00 Build 0)  --><svg xmlns="http://www.w3.org/2000/svg" xmlns:xlink="http://www.w3.org/1999/xlink" viewBox="0 0 50 50" width="50px" height="50px"><g><g><g><g></g></g></g></g><path d="M25.882,33H23v2h2.882C26.354,35,27,35,27,34S26.354,33,25.882,33z"/><rect x="2" y="26" width="5" height="2"/><rect x="43" y="26" width="5" height="2"/><path d="M7,28v18c0,0.553,0.447,1,1,1h34c0.553,0,1-0.447,1-1V28H7z M25.882,37H23v5h-2v-5v-6h2h2.882C28.863,31,29,33.529,29,34S28.863,37,25.882,37z"/><polygon points="22.806,17.235 26.068,17.235 26.068,12.283 26.035,12.283 "/><path d="M45.242,8.03l-20-5c-0.158-0.041-0.326-0.041-0.484,0l-20,5C4.222,8.164,3.896,8.707,4.03,9.242c0.133,0.536,0.678,0.863,1.212,0.728L7,9.53V26h36V9.53l1.758,0.439C44.839,9.99,44.921,10,45.001,10c0.448,0,0.855-0.303,0.969-0.758C46.104,8.707,45.778,8.164,45.242,8.03z M29.246,18.964H28V22h-1.932v-3.036H21.25v-1.897L26.068,10h0.057H28v7.453h1.246V18.964z"/></svg>