<?xml version="1.0" encoding="iso-8859-1"?><!-- Generator: Adobe Illustrator 23.0.1, SVG Export Plug-In . SVG Version: 6.00 Build 0)  --><svg xmlns="http://www.w3.org/2000/svg" xmlns:xlink="http://www.w3.org/1999/xlink" viewBox="0 0 50 50" width="50px" height="50px"><g id="&#x421;&#x43B;&#x43E;&#x439;_1" style="display:none;"></g><g id="ref"></g><g id="&#x421;&#x43B;&#x43E;&#x439;_3"><path d="M9,4v17h9v6h5V4H9z M14.9,14h-2.04v-2.015h2.04V14z M14.9,10.015h-2.04V8h2.04V10.015z M18.86,14H16.9v-2.015h1.96V14z M18.86,10.015H16.9V8h1.96V10.015z"/><path d="M2,22.992V46h6v-4.008L10,42v4h6V22.992H2z M8.04,36.008H6v-2.015h2.04V36.008z M8.04,31.992H6v-2.015h2.04V31.992z M8.04,28.008H6v-2.015h2.04V28.008z M12,36.008h-2v-2.015h2V36.008z M12,31.992h-2v-2.015h2V31.992z M12,28.008h-2v-2.015h2V28.008z"/><path d="M18,29v17h6l0.04-4.008H26V46h6V29H18z M24,38.015h-2V36h2V38.015z M24,34.015h-2V32h2V34.015z M28,38.008h-1.96v-2.015H28V38.008z M28,34.022h-1.96v-2.015H28V34.022z"/><path d="M34,8v38h6.04v-4.008H42V46h6V8H34z M40,38h-2.04v-2.015H40V38z M40.04,34H38v-2.015h2.04V34z M40,29.992h-2.04v-2.015H40V29.992z M40,26.007h-2.04v-2.015H40V26.007z M40,22h-2.04v-2.015H40V22z M40,18.015h-2.04V16H40V18.015z M40,14.022h-2v-2.015h2V14.022z M44,38h-2v-2.015h2V38z M44,34h-2v-2.015h2V34z M44,29.992h-2v-2.015h2V29.992z M44,26.007h-2v-2.015h2V26.007z M44,22h-2v-2.015h2V22z M44,18.015h-2V16h2V18.015z M44,14.007h-2v-2.015h2V14.007z"/></g></svg>