<?xml version="1.0" encoding="iso-8859-1"?>
<!-- Generator: Adobe Illustrator 25.4.1, SVG Export Plug-In . SVG Version: 6.00 Build 0)  -->
<svg version="1.1" baseProfile="basic" id="Layer_1"
	 xmlns="http://www.w3.org/2000/svg" xmlns:xlink="http://www.w3.org/1999/xlink" x="0px" y="0px" viewBox="0 0 72 72"
	 xml:space="preserve">
<path d="M53.277,20.423c5.9,4.137,9.769,10.984,9.769,18.721C63.046,51.747,52.793,62,40.19,62c-5.691,0-10.898-2.096-14.903-5.549
	c1.773,0.396,3.613,0.612,5.503,0.612c13.911,0,25.227-11.317,25.227-25.227C56.017,27.729,55.025,23.853,53.277,20.423z"/>
<path d="M30.79,10c12.04,0,21.835,9.795,21.835,21.835S42.83,53.67,30.79,53.67S8.954,43.875,8.954,31.835S18.75,10,30.79,10z
	 M34,38.243V25.761c0-1.728-1.073-2.825-2.896-2.825c-0.979,0-1.849,0.095-2.849,0.763l-3.124,2.086
	c-0.668,0.453-0.954,1.025-0.954,1.728c0,1.001,0.728,1.705,1.668,1.705c0.478,0,0.751-0.095,1.181-0.394l1.824-1.263h0.095v10.681
	c0,1.514,1.014,2.491,2.528,2.491C32.986,40.734,34,39.757,34,38.243z"/>
</svg>