<?xml version="1.0" encoding="iso-8859-1"?><!-- Generator: Adobe Illustrator 19.1.1, SVG Export Plug-In . SVG Version: 6.00 Build 0)  --><svg xmlns="http://www.w3.org/2000/svg" xmlns:xlink="http://www.w3.org/1999/xlink" viewBox="0 0 50 50" width="500px" height="500px"><g ><path d="M44.2,37.2L41.4,40l2.8,2.8c0.4,0.4,0.4,1,0,1.4c-0.2,0.2-0.5,0.3-0.7,0.3s-0.5-0.1-0.7-0.3L40,41.4l-2.8,2.8c-0.2,0.2-0.5,0.3-0.7,0.3s-0.5-0.1-0.7-0.3c-0.4-0.4-0.4-1,0-1.4l2.8-2.8l-2.8-2.8c-0.4-0.4-0.4-1,0-1.4c0.4-0.4,1-0.4,1.4,0l2.8,2.8l2.8-2.8c0.4-0.4,1-0.4,1.4,0C44.6,36.2,44.6,36.8,44.2,37.2z"/></g><circle style="fill:none;stroke:#000000;stroke-width:2;stroke-linecap:round;stroke-linejoin:round;stroke-miterlimit:10;" cx="40" cy="40" r="9"/><g><g><path style="fill:none;stroke:#000000;stroke-width:2;stroke-linecap:round;stroke-linejoin:round;stroke-miterlimit:10;" d="M41.945,31c0.065-2.24,0.101-4.884,0.101-8c0-17.191-1.36-20.001-2.148-20.001l0,0C36.721,2.999,35.455,16,18.047,16"/><path style="fill:none;stroke:#000000;stroke-width:2;stroke-linecap:round;stroke-linejoin:round;stroke-miterlimit:10;" d="M18.213,29c7.385,0,11.85,2.491,14.786,5.371"/></g></g><path style="fill:none;stroke:#000000;stroke-width:2;stroke-linecap:round;stroke-linejoin:round;stroke-miterlimit:10;" d="M42.047,27H43.5c1.932,0,3.5-1.482,3.5-3.415l0,0C47,21.652,45.432,20,43.5,20h-1.453"/><path style="fill:none;stroke:#000000;stroke-width:2;stroke-linecap:round;stroke-linejoin:round;stroke-miterlimit:10;" d="M16.047,29c0,7.257,0.39,11.885,1.087,12.581c1.134,1.133,1.913,2.036,1.913,3.419c0,1.373-0.643,1.999-2.219,1.999h-3.335c-1.922,0-2.576-1.032-2.858-2.511C8.972,35.784,7.721,30.182,6.047,29"/><path style="fill:none;stroke:#000000;stroke-width:1.9891;stroke-linecap:round;stroke-linejoin:round;stroke-miterlimit:10;" d="M18.047,29V16h-11c-2.209,0-4,1.791-4,4v5c0,2.209,1.791,4,4,4H18.047"/></svg>