<?xml version="1.0" encoding="iso-8859-1"?><!-- Generator: Adobe Illustrator 19.2.1, SVG Export Plug-In . SVG Version: 6.00 Build 0)  --><svg xmlns="http://www.w3.org/2000/svg" xmlns:xlink="http://www.w3.org/1999/xlink" viewBox="0 0 50 50" width="500px" height="500px"><path style="fill:none;stroke:#000000;stroke-width:2;stroke-miterlimit:10;" d="M9,31c0-2.209-1.791-4-4-4s-4,1.791-4,4"/><path style="fill:none;stroke:#000000;stroke-width:2;stroke-miterlimit:10;" d="M9,31V7c0-2.209-1.791-4-4-4S1,4.791,1,7c0,1.091,0,22.909,0,24c0,2.209,1.791,4,4,4h36V7H9.706"/><polyline style="fill:none;stroke:#000000;stroke-width:2;stroke-miterlimit:10;" points="14.635,22.333 20.969,16.344 25.969,21.594 34,14 "/><polygon points="35,19 35,13 29,13 "/><line style="fill:none;stroke:#000000;stroke-width:2;stroke-miterlimit:10;" x1="14" y1="28" x2="35" y2="28"/><path style="fill:none;stroke:#000000;stroke-width:2;stroke-linecap:round;stroke-miterlimit:10;" d="M6.38,38c0.703,0.615,1.613,1,2.62,1h36V11h-1"/><path style="fill:none;stroke:#000000;stroke-width:2;stroke-linecap:round;stroke-miterlimit:10;" d="M10.38,42c0.703,0.615,1.613,1,2.62,1h36V15h-1"/></svg>