<?xml version="1.0" encoding="iso-8859-1"?><!-- Generator: Adobe Illustrator 22.1.0, SVG Export Plug-In . SVG Version: 6.00 Build 0)  --><svg xmlns="http://www.w3.org/2000/svg" xmlns:xlink="http://www.w3.org/1999/xlink" viewBox="0 0 50 50" width="500px" height="500px"><g></g><polygon points="37.771,26.324 40.266,26.324 39,22 "/><path d="M30.914,22.203c-0.073-0.01-0.247-0.015-0.522-0.015h-1.7V25h1.678c0.532-0.019,0.856-0.06,0.972-0.124c0.159-0.087,0.266-0.263,0.319-0.525c0.034-0.175,0.051-0.336,0.051-0.682c0-0.423-0.034-0.737-0.102-0.941C31.513,22.441,31.281,22.266,30.914,22.203z"/><path d="M45,7H5c-2.757,0-5,2.243-5,5v26c0,2.757,2.243,5,5,5h40c2.757,0,5-2.243,5-5V12C50,9.243,47.757,7,45,7z M14.025,28.577c-0.273,0.689-0.885,1.125-1.839,1.307C11.786,29.961,10.947,30,10.125,30c-1.372,0-2.099-0.084-2.638-0.253c-0.662-0.207-1.099-0.625-1.31-1.255C6.058,28.141,6,27.693,6,26.875h2.449c0,0.091,0,0.025,0,0.073c0,0.437,0.122,0.79,0.366,0.915C8.984,27.949,9.188,27.995,9.428,28h0.901c0.459,0,0.753-0.024,0.879-0.073c0.225-0.091,0.373-0.237,0.444-0.44c0.037-0.125,0.056-0.359,0.056-0.557c0-0.443-0.157-0.712-0.471-0.808c-0.118-0.038-0.663-0.091-1.638-0.159c-0.783-0.057-1.327-0.113-1.631-0.166c-0.802-0.154-1.336-0.471-1.603-0.953C6.129,24.435,6,23.828,6,23c0-0.63,0.075-1.147,0.202-1.527c0.127-0.38,0.331-0.669,0.613-0.866c0.413-0.303,0.941-0.481,1.584-0.534C8.934,20.024,9.528,20,10.181,20c1.028,0,1.761,0.061,2.197,0.181C13.444,20.476,14,21.27,14,22.625V23h-2.5c0-0.413-0.043-0.536-0.138-0.678C11.217,22.114,10.814,22,10.156,22c-0.639,0-1.063,0.069-1.27,0.189c-0.207,0.121-0.31,0.383-0.31,0.788c0,0.366,0.092,0.607,0.276,0.723c0.132,0.082,0.306,0.13,0.522,0.145l0.494,0.036c1.059,0.072,1.72,0.123,1.984,0.152c0.837,0.087,1.444,0.315,1.821,0.686c0.296,0.289,0.473,0.668,0.529,1.134c0.033,0.279,0.049,0.596,0.049,0.947C14.25,27.609,14.175,28.201,14.025,28.577z M24.377,22.766l-0.043-0.054c-0.671-0.828-1.665-1.303-2.725-1.303c-1.221,0-2.36,0.65-2.997,1.698h5.562l-0.71,1.525h-5.356c-0.009,0.106-0.016,0.213-0.016,0.318c0,0.162,0.014,0.325,0.036,0.487h4.893h0.068L23.06,25.5L22.374,27h-3.652c0.659,0.954,1.73,1.493,2.886,1.493c1.008,0,1.969-0.437,2.638-1.2l0.075-0.086v1.902l-0.019,0.013c-0.847,0.566-1.838,0.865-2.867,0.865c-2.042,0-3.879-1.15-4.686-2.986H15l0.714-1.561h0.648c-0.013-0.15-0.022-0.3-0.022-0.446c0-0.11,0.007-0.231,0.016-0.36H15l0.709-1.525h1.01c0.376-0.903,1.007-1.674,1.83-2.23C19.401,20.304,20.399,20,21.436,20c1.328,0,2.586,0.499,3.542,1.404L25,21.426L24.377,22.766z M32.567,27.195c-0.103,0.024-0.5,0.081-0.875,0.081c-0.256,0-3,0-3,0l0,2.723L26,30V20h5.014c0.688,0,1.212,0.056,1.573,0.168c0.825,0.258,1.378,0.788,1.661,1.587c0.146,0.42,0.219,1.052,0.219,1.895c0,1.014-0.081,1.645-0.242,2.089C33.941,26.519,33.387,27.005,32.567,27.195z M41.303,30l-0.508-1.728h-3.596L36.72,30H34l2.973-10h4.017L44,30H41.303z"/></svg>