<?xml version="1.0" encoding="iso-8859-1"?><!-- Generator: Adobe Illustrator 23.0.3, SVG Export Plug-In . SVG Version: 6.00 Build 0)  --><svg xmlns="http://www.w3.org/2000/svg" xmlns:xlink="http://www.w3.org/1999/xlink" viewBox="0 0 50 50" width="500px" height="500px"><circle cx="40.057" cy="40" r="2"/><polyline style="fill:none;stroke:#000000;stroke-width:2;stroke-linecap:round;stroke-miterlimit:10;" points="40.057,40 47.057,32 47.057,30 "/><line style="fill:none;stroke:#000000;stroke-width:2;stroke-linecap:round;stroke-miterlimit:10;" x1="47.057" y1="32" x2="49.057" y2="32"/><g><path d="M48.586,34.808l-1.395,1.594c0.549,1.083,0.865,2.303,0.865,3.598c0,4.411-3.589,8-8,8s-8-3.589-8-8s3.589-8,8-8c0.919,0,1.798,0.163,2.62,0.45l1.4-1.599c-1.232-0.543-2.59-0.85-4.02-0.85c-5.514,0-10,4.486-10,10s4.486,10,10,10s10-4.486,10-10C50.057,38.097,49.513,36.323,48.586,34.808z"/><path d="M44.057,40c0,2.206-1.794,4-4,4s-4-1.794-4-4c0-2.023,1.514-3.682,3.466-3.946l1.696-1.939C40.843,34.041,40.455,34,40.057,34c-3.309,0-6,2.691-6,6s2.691,6,6,6s6-2.691,6-6c0-0.676-0.117-1.324-0.324-1.93l-1.677,1.917C44.055,39.991,44.057,39.995,44.057,40z"/></g><path style="fill:none;stroke:#000000;stroke-width:2;stroke-linecap:round;stroke-miterlimit:10;" d="M27,32.5c0,1.2-2.2,2.5-5,2.5s-5-1.2-5-2.5"/><path d="M28.697,44H4.122c0.739-3.999,4.323-5.391,7.797-6.741c2.718-1.056,5.284-2.053,6.119-4.313c0.024-0.066,0.041-0.135,0.052-0.205c0.11-0.771,0.11-1.127,0.11-1.442c0-0.506-0.379-0.933-0.882-0.993c-4.104-0.488-6.509-1.007-7.161-1.524c0.963-1.405,1.201-3.882,1.492-6.913c0.664-6.92,1.488-15.498,10.738-15.858l0.718,1.436C23.275,7.786,23.621,8,24,8c8.049,0,8.841,6.093,9.04,14.059c0.069,2.795,0.127,5.097,0.933,6.484c-0.856,0.547-3.467,1.408-7.266,1.761c-0.282,0.026-0.54,0.171-0.709,0.398c-0.17,0.228-0.234,0.517-0.179,0.794C25.9,31.899,25.9,32.218,25.9,32.5c0,0.122,0.022,0.244,0.066,0.357c0.494,1.29,1.533,2.17,2.823,2.89c0.238-0.627,0.526-1.229,0.861-1.801c-0.817-0.469-1.443-0.992-1.752-1.65c0-0.035-0.001-0.072-0.002-0.11c0.933-0.115,2.261-0.315,3.582-0.633c1.302-1.313,2.908-2.32,4.701-2.922c0.004-0.044,0.02-0.086,0.02-0.131c0-0.282-0.119-0.551-0.328-0.741c-0.705-0.638-0.772-3.354-0.833-5.75C34.884,15.761,34.65,6.382,24.624,6.011l-0.729-1.458C23.725,4.214,23.379,4,23,4C11.355,4,10.334,14.639,9.658,21.679c-0.258,2.688-0.524,5.467-1.321,6.173C8.123,28.042,8,28.314,8,28.6c0,2.279,3.328,2.978,8.147,3.579c-0.007,0.051-0.014,0.106-0.021,0.165c-0.58,1.361-2.694,2.183-4.931,3.051c-3.946,1.533-8.858,3.441-9.193,9.55c-0.016,0.274,0.083,0.542,0.271,0.742C2.463,45.887,2.726,46,3,46h26.618C29.252,45.367,28.945,44.699,28.697,44z"/></svg>