<?xml version="1.0" encoding="iso-8859-1"?><!-- Generator: Adobe Illustrator 21.1.0, SVG Export Plug-In . SVG Version: 6.00 Build 0)  --><svg xmlns="http://www.w3.org/2000/svg" xmlns:xlink="http://www.w3.org/1999/xlink" viewBox="0 0 50 50" width="500px" height="500px"><path d="M45,13.664V6c0-1.657-1.343-3-3-3s-3,1.343-3,3v0.77C35.119,3.782,30.265,2,25,2C12.317,2,2,12.318,2,25s10.317,23,23,23s23-10.318,23-23C48,20.88,46.905,17.012,45,13.664z M25,46C13.421,46,4,36.58,4,25S13.421,4,25,4c6.218,0,12.032,2.726,16,7.398V6c0-0.552,0.447-1,1-1s1,0.448,1,1v9h-9c-0.553,0-1-0.448-1-1s0.447-1,1-1h5.722C36.128,8.589,30.758,6,25,6C14.523,6,6,14.523,6,25s8.523,19,19,19s19-8.523,19-19c0-0.552,0.447-1,1-1s1,0.448,1,1C46,36.58,36.579,46,25,46z M26,28h-2c-0.552,0-1-0.448-1-1V14c0-0.552,0.448-1,1-1h2c0.552,0,1,0.448,1,1v13C27,27.552,26.552,28,26,28z M27,33v2c0,0.552-0.448,1-1,1h-2c-0.552,0-1-0.448-1-1v-2c0-0.552,0.448-1,1-1h2C26.552,32,27,32.448,27,33z"/></svg>