<?xml version="1.0" encoding="iso-8859-1"?>
<!-- Generator: Adobe Illustrator 22.0.1, SVG Export Plug-In . SVG Version: 6.00 Build 0)  -->
<svg version="1.1" id="&#x421;&#x43B;&#x43E;&#x439;_2"
	 xmlns="http://www.w3.org/2000/svg" xmlns:xlink="http://www.w3.org/1999/xlink" x="0px" y="0px" viewBox="0 0 50 50"
	 style="enable-background:new 0 0 50 50;" xml:space="preserve">
<path style="fill:none;stroke:#000000;stroke-width:2;stroke-linecap:round;stroke-linejoin:round;stroke-miterlimit:10;" d="M33,48
	c-4.667,0-9.333,0-14,0c-0.667-3.333-1.333-6.667-2-10c6,0,12,0,18,0C34.333,41.333,33.667,44.667,33,48z M16,34
	c6.667,0,13.333,0,20,0c0,1.333,0,2.667,0,4c-6.667,0-13.333,0-20,0C16,36.667,16,35.333,16,34z"/>
<path d="M26,1c-5.5,0-10,4.5-10,10s4.5,10,10,10s10-4.5,10-10S31.5,1,26,1z M26,19c-4.4,0-8-3.6-8-8s3.6-8,8-8s8,3.6,8,8
	S30.4,19,26,19z M25,8.7c0,2.1,4.5,1.3,4.5,4.8c0,2.5-2.4,2.8-2.8,2.8v1.4h-1.1v-1.4c-0.4,0-3-0.3-3-3.3h2c0,0.3,0,1.7,1.5,1.7
	c1.3,0,1.3-1,1.3-1.2c0-2.2-4.5-1.3-4.5-4.8c0-2.1,1.9-2.8,2.8-2.8V4.4h1.1v1.5c0.7,0.1,2.6,0.6,2.6,3.2h-2c0-0.6-0.1-1.7-1.3-1.7
	C25,7.5,25,8.5,25,8.7z"/>
<path style="fill:none;stroke:#000000;stroke-width:2;stroke-linecap:round;stroke-linejoin:round;stroke-miterlimit:10;" d="M26,21
	c0,4,0,8,0,12"/>
<path style="fill:none;stroke:#000000;stroke-width:2;stroke-linecap:round;stroke-linejoin:round;stroke-miterlimit:10;" d="M12,24
	c0.972-0.221,4.413-0.876,8,1c4.716,2.466,5.848,7.3,6,8"/>
<path style="fill:none;stroke:#000000;stroke-width:2;stroke-linecap:round;stroke-linejoin:round;stroke-miterlimit:10;" d="
	M33,29.524c0.529,0.257,1.077,0.414,1.569,0.471c2.626,0.305,5.601-2.003,6.759-5.858c-2.867-2.825-6.585-3.422-8.742-1.893
	c-1.044,0.74-2.093,2.241-2.024,3.881"/>
<path style="fill:none;stroke:#000000;stroke-width:2;stroke-linecap:round;stroke-linejoin:round;stroke-miterlimit:10;" d="
	M19.81,24.076c-0.012-2.571-2.138-4.51-3.928-5.186c-3.218-1.217-7.702,0.755-10.384,5.254c2.725,4.473,7.227,6.402,10.434,5.155
	c0.688-0.268,1.425-0.723,2.069-1.33"/>
<path style="fill:none;stroke:#000000;stroke-width:2;stroke-linecap:round;stroke-linejoin:round;stroke-miterlimit:10;" d="M35,25
	c-1.009,0.167-3.659,0.742-6,3c-1.958,1.888-2.712,3.999-3,5"/>
</svg>