<?xml version="1.0" encoding="iso-8859-1"?>
<!-- Generator: Adobe Illustrator 18.0.0, SVG Export Plug-In . SVG Version: 6.00 Build 0)  -->
<!DOCTYPE svg PUBLIC "-//W3C//DTD SVG 1.1//EN" "http://www.w3.org/Graphics/SVG/1.1/DTD/svg11.dtd">
<svg version="1.1" id="Layer_1" xmlns="http://www.w3.org/2000/svg" xmlns:xlink="http://www.w3.org/1999/xlink" x="0px" y="0px"
	 width="50px" height="50px" viewBox="0 0 50 50" style="enable-background:new 0 0 50 50;" xml:space="preserve">
<g id="surface327307_6_">
	<path style="fill:none;stroke:#000000;stroke-width:2;stroke-linejoin:round;stroke-miterlimit:10;" d="M38.538,22.301
		c0-1.047,0.723-1.852,1.77-2.091l3.059-0.484l-0.805,2.817c1.367,0.484,2.575,1.289,3.219,2.012c0.563-0.402,1.367-1.61,3.219-1.61
		c-0.921,2.439-0.925,4.052,0,6.438c-1.691,0-2.575-1.125-3.219-1.61c-0.723,0.805-2.172,1.852-4.024,2.254v1.77
		c0,0-2.414-0.402-3.059-1.77c-3.7-0.644-5.014-3.601-5.014-3.601S34.756,23.027,38.538,22.301z"/>
</g>
<path d="M23.361,19.818c-1.097,0-1.987,0.89-1.987,1.987c0,1.097,0.89,1.987,1.987,1.987c1.097,0,1.987-0.89,1.987-1.987
	C25.348,20.708,24.458,19.818,23.361,19.818z"/>
<g id="surface327307_4_">
	<path style="fill:none;stroke:#000000;stroke-width:2;stroke-linejoin:round;stroke-miterlimit:10;" d="M19.897,15.122
		c-6.365,0-9.688,4.355-12.472,7.417C6.302,21.736,4.696,19.326,1,19.326c1.047,2.791,2.253,3.132,2.253,6.361
		c0,3.452-1.242,3.478-2.253,6.49c3.376,0,5.139-2.246,6.425-3.213c3.528,3.678,5.233,6.793,13.216,6.908
		c5.081,0.073,10.681-4.223,10.681-4.223l-5.465-4.471l6.21-6.21C29.832,18.732,25.291,15.122,19.897,15.122z"/>
</g>
<path style="fill:none;stroke:#000000;stroke-width:2;stroke-linejoin:round;stroke-miterlimit:10;" d="M24.896,34.98
	c-0.948,1.895-2.281,2.962-4.687,3.97c-1.874,0.785-3.935,1.34-6.033,1.298c0.814-0.984,1.245-2.183,1.212-3.377
	c-0.01-0.358-0.007-1.506-0.133-1.848"/>
<path style="fill:none;stroke:#000000;stroke-width:2;stroke-linejoin:round;stroke-miterlimit:10;" d="M25.509,16.373
	c-2.319-5.636-6.293-6.624-6.293-6.624s-6.141,2.546-10.121,4.437c2.465,0.899,3.286,2.138,3.034,3.542"/>
<path d="M38.249,24.479c0.552,0,1,0.448,1,1c0,0.552-0.448,1-1,1c-0.552,0-1-0.448-1-1C37.249,24.927,37.697,24.479,38.249,24.479z"
	/>
</svg>