<?xml version="1.0" encoding="iso-8859-1"?><!-- Generator: Adobe Illustrator 22.1.0, SVG Export Plug-In . SVG Version: 6.00 Build 0)  --><svg xmlns="http://www.w3.org/2000/svg" xmlns:xlink="http://www.w3.org/1999/xlink" viewBox="0 0 50 50" width="500px" height="500px"><path d="M25,13c-0.285,0-0.558-0.122-0.747-0.336l-8-9c-0.262-0.294-0.326-0.715-0.165-1.073C16.249,2.231,16.606,2,17,2h16c0.394,0,0.751,0.231,0.912,0.591c0.161,0.358,0.097,0.779-0.165,1.073l-8,9C25.558,12.878,25.285,13,25,13z"/><path d="M13.085,32.86h-1.898v3.384h1.919c1.101,0,1.745-0.625,1.745-1.684C14.852,33.515,14.171,32.86,13.085,32.86z"/><polygon points="36.952,33.287 35.641,37.602 38.379,37.602 37.082,33.287 "/><path d="M45,16H5c-0.553,0-1,0.447-1,1v30c0,0.553,0.447,1,1,1h40c0.553,0,1-0.447,1-1V17C46,16.447,45.553,16,45,16z M14.924,42l-1.948-3.987h-1.789V42H9V31h4.389c2.296,0,3.708,1.341,3.708,3.529c0,1.403-0.695,2.623-1.898,3.126L17.401,42H14.924z M30.5,42h-2v-7.357h-0.131l-2.642,6.724H24.28l-2.649-6.724H21.5V42h-2V31h2.563l2.872,7.394h0.13L27.944,31H30.5V42z M31,24H19c-0.553,0-1-0.447-1-1s0.447-1,1-1h12c0.553,0,1,0.447,1,1S31.553,24,31,24z M39.631,42l-0.789-2.623H35.17L34.366,42h-2.195L35.8,31h2.571L42,42H39.631z"/></svg>