<?xml version="1.0" encoding="iso-8859-1"?><!-- Generator: Adobe Illustrator 21.1.0, SVG Export Plug-In . SVG Version: 6.00 Build 0)  --><svg xmlns="http://www.w3.org/2000/svg" xmlns:xlink="http://www.w3.org/1999/xlink" viewBox="0 0 50 50" width="500px" height="500px"><path style="fill:none;stroke:#000000;stroke-width:2;stroke-linecap:round;stroke-linejoin:round;stroke-miterlimit:10;" d="M25,2c-1.7,0-3,1.3-3,3v5h6V5C28,3.3,26.7,2,25,2z"/><circle cx="25" cy="5" r="1"/><path d="M38,6H28v4h-6V6H12c-1.7,0-3,1.3-3,3v37c0,1.7,1.3,3,3,3h26c1.7,0,3-1.3,3-3V9C41,7.3,39.7,6,38,6z M27,41.622C27,41.849,26.833,42,26.584,42h-3.167C23.165,42,23,41.849,23,41.622v-3.245C23,38.151,23.166,38,23.417,38h3.167C26.834,38,27,38.151,27,38.378V41.622z M27,33.637C27,33.854,26.833,34,26.584,34h-3.167C23.165,34,23,33.854,23,33.637V16.363C23,16.146,23.166,16,23.417,16h3.167C26.834,16,27,16.146,27,16.363V33.637z"/></svg>