<?xml version="1.0" encoding="iso-8859-1"?>
<!-- Generator: Adobe Illustrator 27.0.0, SVG Export Plug-In . SVG Version: 6.00 Build 0)  -->
<svg version="1.1" baseProfile="basic" xmlns="http://www.w3.org/2000/svg" xmlns:xlink="http://www.w3.org/1999/xlink" x="0px"
	 y="0px" viewBox="0 0 50 50" xml:space="preserve">
<g id="Layer_1">
</g>
<g id="&#x421;&#x43B;&#x43E;&#x439;_1">
	<path d="M36.47,23.09c-1.06,0-1.91,0.86-1.91,1.91c0,1.06,0.85,1.94,1.91,1.94c1.05,0,1.91-0.89,1.91-1.94S37.52,23.09,36.47,23.09
		z M36.47,23.09c-1.06,0-1.91,0.86-1.91,1.91c0,1.06,0.85,1.94,1.91,1.94c1.05,0,1.91-0.89,1.91-1.94S37.52,23.09,36.47,23.09z
		 M45.38,23.03h-1.63c-0.25,0-0.32-0.02-0.34-0.03c-0.5-2.88-2.44-6.48-6.72-8.31c0.05-2.06,0.5-3.69,1.5-6.38
		c0.13-0.32,0.08-0.69-0.12-0.96c-0.2-0.28-0.54-0.44-0.88-0.41c-0.05,0.01-0.09,0.02-0.13,0.03C37.04,6.98,37.02,6.99,37,7
		c-2.54,0.64-5.44,2.16-7.28,5.59c-1.76-0.37-3.55-0.65-5.47-0.65c-5.69,0-10.1,1.77-13.56,4.47C8.92,17.78,7.53,19.67,6.66,22
		c-0.31-0.11-0.72-0.28-1.19-0.59C4.68,20.87,4,20.14,4,18.78c0-1.08,0.5-1.98,1.34-2.34c0.47-0.17,0.74-0.66,0.64-1.15
		c-0.1-0.49-0.55-0.82-1.04-0.79c-0.13,0.01-0.26,0.04-0.38,0.09C2.9,15.31,2,17.03,2,18.78c0,2.1,1.22,3.52,2.34,4.28
		c0.7,0.48,1.29,0.71,1.72,0.85c-0.34,1.48-0.48,3.12-0.4,4.87c0.18,4.45,3.2,7.72,5.46,9.53c0.02,0,0.02,0,0.04,0
		c0.2,0.16,0.26,0.26,0.28,0.28c0.01,0.03,0.06-0.03-0.03,0.25c-0.3,0.93-0.88,2.32-0.88,2.32v0.03c-0.53,1.39,0.17,2.97,1.56,3.5
		v0.03l3.22,1.19c1.4,0.53,3-0.17,3.53-1.57c0,0,0.4-1.12,0.75-2.06c0.06-0.14,0.1-0.17,0.13-0.22c0.04,0.01,0.04,0.02,0.12,0.03
		c0.64,0.12,2.05,0.53,4.41,0.53c1.93,0,3.22-0.16,3.98-0.24c-0.12-0.65-0.2-1.31-0.22-1.99c-0.83,0.09-1.93,0.23-3.76,0.23
		c-2.14,0-3.2-0.34-4.06-0.5c-0.43-0.07-0.96-0.14-1.5,0.16c-0.55,0.31-0.75,0.8-0.94,1.31c-0.34,0.93-0.78,2.03-0.78,2.03
		c-0.15,0.38-0.56,0.59-0.94,0.44l-3.22-1.22c-0.38-0.14-0.55-0.55-0.4-0.93c0.01-0.05,0.56-1.39,0.9-2.44
		c0.23-0.71,0.14-1.43-0.15-1.91c-0.29-0.47-0.68-0.73-0.78-0.81c-2.03-1.62-4.58-4.49-4.72-8.06c-0.21-5.07,1.52-8.6,4.25-10.72
		c3.15-2.46,7.06-4.03,12.34-4.03c2.02,0,3.92,0.24,5.72,0.68c0.47,0.12,0.96-0.12,1.15-0.56c1.13-2.47,2.79-3.56,4.5-4.31
		c-0.6,1.88-1.03,3.57-1,5.53c0.01,0.43,0.29,0.81,0.69,0.94c4.19,1.46,5.73,4.71,6.13,7.22c0.15,0.95,1.17,1.59,2.31,1.59h1.63
		c0.35,0,0.62,0.27,0.62,0.63v3.95c0.7,0.41,1.36,0.88,1.96,1.42c0.02-0.16,0.04-0.33,0.04-0.5v-4.87
		C48,24.22,46.82,23.03,45.38,23.03z M36.47,23.09c-1.06,0-1.91,0.86-1.91,1.91c0,1.06,0.85,1.94,1.91,1.94
		c1.05,0,1.91-0.89,1.91-1.94S37.52,23.09,36.47,23.09z M37.35,39.7c0.01,0,0.02,0,0.02-0.01c-0.01,0-0.02,0-0.02,0
		C37.35,39.7,37.35,39.7,37.35,39.7z M18.5,2.56c-4.13,0-7.5,3.37-7.5,7.5c0,1.16,0.27,2.28,0.75,3.25l1.78-0.87
		C13.18,11.73,13,10.92,13,10.06c0-3.05,2.45-5.5,5.5-5.5s5.5,2.45,5.5,5.5h2C26,5.93,22.63,2.56,18.5,2.56z"/>
	<path style="fill:#FFFFFF;" d="M37.37,39.69c0,0.01-0.01,0.01-0.02,0.01l-0.01-0.01c0,0,0,0,0.01,0
		C37.35,39.69,37.36,39.69,37.37,39.69z"/>
	<g>
		<path d="M43.66,43.05v1.92h-7.59v-1.79c1.2-0.16,2.01-1.07,2.03-2.27c0-0.14-0.03-0.28-0.06-0.4h-1.93v-1.58h1.48
			c-0.23-0.61-0.38-1.12-0.38-1.7c0-1.75,1.38-2.77,3.77-2.77c0.9,0,1.61,0.08,2.23,0.24v1.8c-0.65-0.15-1.24-0.22-1.92-0.22
			c-1.21,0-1.96,0.53-1.96,1.39c0,0.45,0.1,0.85,0.27,1.26h2.75v1.58h-2.32c0.03,0.12,0.06,0.24,0.06,0.38
			c0.04,0.84-0.37,1.64-1.08,2.02v0.14H43.66z"/>
	</g>
	<path d="M40,32c4.411,0,8,3.589,8,8s-3.589,8-8,8s-8-3.589-8-8S35.589,32,40,32 M40,30c-5.523,0-10,4.477-10,10s4.477,10,10,10
		s10-4.477,10-10S45.523,30,40,30L40,30z"/>
</g>
</svg>