<?xml version="1.0" encoding="iso-8859-1"?><!-- Generator: Adobe Illustrator 23.0.3, SVG Export Plug-In . SVG Version: 6.00 Build 0)  --><svg xmlns="http://www.w3.org/2000/svg" xmlns:xlink="http://www.w3.org/1999/xlink" viewBox="0 0 50 50" width="500px" height="500px"><path d="M15.219,31.876C15.68,30.736,16.771,30,18,30h6l0-12h8c0.408,0,0.774-0.248,0.927-0.625s0.061-0.811-0.232-1.094l-14.5-14c-0.388-0.374-1.002-0.374-1.39,0l-14.5,14c-0.293,0.283-0.385,0.716-0.232,1.094S2.592,18,3,18h6v22c0,0.552,0.448,1,1,1h11.967l-6.051-5.843C15.031,34.303,14.758,33.015,15.219,31.876z"/><g><path d="M47.927,32.625C47.775,32.248,47.408,32,47,32h-6V10c0-0.552-0.448-1-1-1H28.033l6.051,5.843c0.884,0.854,1.157,2.142,0.696,3.282C34.321,19.264,33.229,20,32,20h-6v12h-8c-0.408,0-0.774,0.248-0.927,0.625s-0.061,0.811,0.232,1.094l14.5,14C31.999,47.906,32.25,48,32.5,48s0.501-0.094,0.695-0.281l14.5-14C47.988,33.436,48.08,33.003,47.927,32.625z"/></g></svg>