<?xml version="1.0" encoding="iso-8859-1"?><!-- Generator: Adobe Illustrator 21.1.0, SVG Export Plug-In . SVG Version: 6.00 Build 0)  --><svg xmlns="http://www.w3.org/2000/svg" xmlns:xlink="http://www.w3.org/1999/xlink" viewBox="0 0 50 50" width="500px" height="500px"><path d="M48,11V7.985C48,6.339,46.661,5,45.015,5H4.985C3.339,5,2,6.339,2,7.985V11H48z M12,7c0.552,0,1,0.448,1,1c0,0.552-0.448,1-1,1s-1-0.448-1-1C11,7.448,11.448,7,12,7z M9,7c0.552,0,1,0.448,1,1c0,0.552-0.448,1-1,1S8,8.552,8,8C8,7.448,8.448,7,9,7z M6,7c0.552,0,1,0.448,1,1c0,0.552-0.448,1-1,1S5,8.552,5,8C5,7.448,5.448,7,6,7z"/><g><polygon points="24.971,25 27.051,25 25.989,20.527 "/><path d="M33,19.029v7.941c1.266-0.12,2-0.745,2-3.971S34.266,19.149,33,19.029z"/><path d="M2,13v29.015C2,43.661,3.339,45,4.985,45h40.03C46.661,45,48,43.661,48,42.015V13H2z M18,35c-0.552,0-1-0.448-1-1c0-0.552,0.448-1,1-1s1,0.448,1,1C19,34.552,18.552,35,18,35z M18,32c-0.552,0-1-0.448-1-1c0-0.552,0.448-1,1-1s1,0.448,1,1C19,31.552,18.552,32,18,32z M18,29c-0.552,0-1-0.448-1-1c0-0.552,0.448-1,1-1s1,0.448,1,1C19,28.552,18.552,29,18,29z M18,26c-0.552,0-1-0.448-1-1c0-0.552,0.448-1,1-1s1,0.448,1,1C19,25.552,18.552,26,18,26z M18,23c-0.552,0-1-0.448-1-1c0-0.552,0.448-1,1-1s1,0.448,1,1C19,22.552,18.552,23,18,23z M18,20c-0.552,0-1-0.448-1-1c0-0.552,0.448-1,1-1s1,0.448,1,1C19,19.552,18.552,20,18,20z M18,17c-0.552,0-1-0.448-1-1c0-0.552,0.448-1,1-1s1,0.448,1,1C19,16.552,18.552,17,18,17z M21,35c-0.552,0-1-0.448-1-1c0-0.552,0.448-1,1-1s1,0.448,1,1C22,34.552,21.552,35,21,35z M24,35c-0.552,0-1-0.448-1-1c0-0.552,0.448-1,1-1s1,0.448,1,1C25,34.552,24.552,35,24,35z M27,35c-0.552,0-1-0.448-1-1c0-0.552,0.448-1,1-1s1,0.448,1,1C28,34.552,27.552,35,27,35z M27.525,27h-3.009l-0.455,2H22l3.072-12h1.917l3.072,12H28L27.525,27z M30,35c-0.552,0-1-0.448-1-1c0-0.552,0.448-1,1-1s1,0.448,1,1C31,34.552,30.552,35,30,35z M33,35c-0.552,0-1-0.448-1-1c0-0.552,0.448-1,1-1s1,0.448,1,1C34,34.552,33.552,35,33,35z M36,35c-0.552,0-1-0.448-1-1c0-0.552,0.448-1,1-1s1,0.448,1,1C37,34.552,36.552,35,36,35z M32,29h-1V17h1c2.53,0,5,0.463,5,6S34.53,29,32,29z M39,35c-0.552,0-1-0.448-1-1c0-0.552,0.448-1,1-1s1,0.448,1,1C40,34.552,39.552,35,39,35z M42,35c-0.552,0-1-0.448-1-1c0-0.552,0.448-1,1-1s1,0.448,1,1C43,34.552,42.552,35,42,35z M41,29c-1.487,0-2.482-0.912-2.836-1.451l1.662-1.112C39.843,26.46,40.236,27,41,27c0.45-0.012,1-0.194,1-1c0-0.585-0.945-1.531-1.705-2.291C39.166,22.58,38,21.416,38,20c0-2.201,1.794-3,3-3c1.487,0,2.482,0.912,2.836,1.451l-1.672,1.098C42.157,19.54,41.764,19,41,19c-0.45,0.012-1,0.194-1,1c0,0.587,0.946,1.532,1.706,2.292C42.836,23.422,44,24.586,44,26C44,28.201,42.206,29,41,29z M45,35c-0.552,0-1-0.448-1-1c0-0.552,0.448-1,1-1s1,0.448,1,1C46,34.552,45.552,35,45,35z"/></g></svg>