<?xml version="1.0" encoding="iso-8859-1"?><!-- Generator: Adobe Illustrator 23.0.1, SVG Export Plug-In . SVG Version: 6.00 Build 0)  --><svg xmlns="http://www.w3.org/2000/svg" xmlns:xlink="http://www.w3.org/1999/xlink" viewBox="0 0 50 50" width="500px" height="500px"><path style="fill:none;stroke:#000000;stroke-width:2;stroke-linecap:round;stroke-miterlimit:10;" d="M15,38v4c0,1.1,0.9,2,2,2h10c1.1,0,2-0.9,2-2v-4H15z"/><path style="fill:none;stroke:#000000;stroke-width:2;stroke-linecap:round;stroke-miterlimit:10;" d="M18,28.16c0.147,0.269,0.283,0.548,0.404,0.84C18.77,29.881,19,30.871,19,32"/><path style="fill:none;stroke:#000000;stroke-width:2;stroke-linecap:round;stroke-miterlimit:10;" d="M12,17c0,4.196,1.6,5.911,3.453,7.896"/><path style="fill:none;stroke:#000000;stroke-width:2;stroke-linecap:round;stroke-miterlimit:10;" d="M25,44c0,1.656-1.344,3-3,3s-3-1.344-3-3"/><circle style="fill:none;stroke:#000000;stroke-width:2;stroke-linecap:round;stroke-miterlimit:10;" cx="35" cy="15" r="3"/><path d="M29.318,28.094C28.556,29.155,28,30.381,28,32v6h2v-6c0-1.262,0.483-2.191,1.208-3.095L29.318,28.094z"/><path d="M22,4c1.399,0,2.737,0.241,4,0.653V2.565C24.725,2.207,23.388,2,22,2C13.729,2,7,8.729,7,17c0,6.167,2.773,9.138,4.797,11.308C13.076,29.678,14,30.668,14,32v6h2v-6c0-2.12-1.331-3.547-2.74-5.057C11.263,24.804,9,22.379,9,17C9,9.832,14.832,4,22,4z"/><path style="fill:none;stroke:#000000;stroke-width:2;stroke-linecap:round;stroke-miterlimit:10;" d="M43,15c0-0.404-0.04-0.798-0.097-1.186l3.004-1.797l-1.025-2.61l-3.522,0.753c-0.444-0.583-0.966-1.101-1.551-1.543l0.785-3.405l-2.61-1.119l-1.908,2.987C35.723,7.033,35.366,7,35,7c-0.359,0-0.71,0.032-1.056,0.078L32.017,4l-2.61,1.025l0.718,3.642c-0.504,0.388-0.962,0.831-1.36,1.327L25.212,9.22l-1.119,2.61l3.01,1.944C27.042,14.175,27,14.582,27,15c0,0.372,0.034,0.736,0.084,1.095L24,17.89l1.025,2.61l3.57-0.721c0.417,0.558,0.901,1.06,1.447,1.492l-0.822,3.517l2.61,1.119l2.038-2.996C34.239,22.963,34.615,23,35,23c0.373,0,0.738-0.034,1.097-0.084L37.89,26l2.61-1.025l-0.691-3.592c0.654-0.493,1.229-1.081,1.704-1.749l3.275,0.959l1.119-2.61l-3-1.824C42.962,15.78,43,15.395,43,15z"/></svg>