<?xml version="1.0" encoding="iso-8859-1"?><!-- Generator: Adobe Illustrator 21.1.0, SVG Export Plug-In . SVG Version: 6.00 Build 0)  --><svg xmlns="http://www.w3.org/2000/svg" xmlns:xlink="http://www.w3.org/1999/xlink" viewBox="0 0 50 50" width="500px" height="500px"><path d="M30.35,41.03c-0.91,0.4-1.89,0.68-2.95,0.83C28.43,41.7,29.42,41.41,30.35,41.03z"/><polyline style="fill:none;stroke:#000000;stroke-width:2;stroke-linecap:round;stroke-linejoin:round;stroke-miterlimit:10;" points="42,49 46,45 42,41 "/><line style="fill:none;stroke:#000000;stroke-width:2;stroke-linecap:round;stroke-linejoin:round;stroke-miterlimit:10;" x1="4" y1="45" x2="45.2" y2="45"/><path style="fill:none;stroke:#000000;stroke-width:2;stroke-linecap:round;stroke-linejoin:round;stroke-miterlimit:10;" d="M27,6.345c-1.265-2.665-3.978-4.508-7.121-4.508C15.528,1.837,12,5.37,12,9.728c0,3.128,1.818,5.832,4.453,7.108"/><polyline style="fill:none;stroke:#000000;stroke-width:2;stroke-linecap:round;stroke-linejoin:round;stroke-miterlimit:10;" points="23,7 28,8 29,3 "/><path d="M42,29.5C42,20.4,34.6,13,25.5,13S9,20.4,9,29.5c0,1.63,0.24,3.23,0.71,4.77c-0.16-0.02-0.32-0.04-0.48-0.04c-1.33,0-2.52,0.9-2.89,2.18c-0.45,1.58,0.47,3.25,2.06,3.71l6.22,1.79C17.53,44.45,21.33,46,25.5,46c0.15,0,0.29,0,0.44-0.01c0.342-0.013,0.68-0.039,1.008-0.076C35.372,45.179,42,38.108,42,29.5z M25.5,44c-0.55,0-1-0.45-1-1s0.45-1,1-1c0.41,0,0.82-0.02,1.22-0.06c0.05,0,0.1-0.01,0.14-0.01c0.18-0.02,0.36-0.05,0.54-0.07c1.03-0.16,2.02-0.45,2.95-0.83c0.15-0.07,0.29-0.14,0.43-0.2c4.26-2,7.22-6.33,7.22-11.33C38,22.61,32.39,17,25.5,17S13,22.61,13,29.5c0,2.51,0.74,4.92,2.14,6.99l1.11-3.9c0.13-0.44,0.53-0.72,0.96-0.72c0.09,0,0.19,0.01,0.28,0.03c0.53,0.16,0.84,0.71,0.68,1.24l-1.76,6.16c-0.07,0.26-0.24,0.47-0.47,0.6c-0.15,0.09-0.32,0.13-0.49,0.13c-0.09,0-0.18-0.01-0.28-0.04L8.95,38.2c-0.53-0.16-0.84-0.71-0.68-1.24c0.12-0.44,0.52-0.73,0.96-0.73c0.09,0,0.18,0.02,0.27,0.04l3.84,1.11C11.81,35.03,11,32.32,11,29.5c0-8,6.5-14.5,14.5-14.5S40,21.5,40,29.5S33.5,44,25.5,44z"/></svg>