<?xml version="1.0" encoding="iso-8859-1"?><!-- Generator: Adobe Illustrator 22.1.0, SVG Export Plug-In . SVG Version: 6.00 Build 0)  --><svg xmlns="http://www.w3.org/2000/svg" xmlns:xlink="http://www.w3.org/1999/xlink" viewBox="0 0 50 50" width="500px" height="500px"><path d="M11.187,42H9V31h4.389c2.296,0,3.708,1.341,3.708,3.529c0,1.403-0.695,2.623-1.898,3.126L17.401,42h-2.477l-1.948-3.987h-1.789V42z M11.187,36.244h1.919c1.101,0,1.745-0.625,1.745-1.684c0-1.044-0.681-1.7-1.767-1.7h-1.898V36.244z"/><path d="M19.5,42V31h2.562l2.872,7.394h0.13L27.944,31H30.5v11h-2v-7.357h-0.131l-2.642,6.724H24.28l-2.649-6.724H21.5V42H19.5z"/><path d="M38.842,39.377H35.17L34.366,42h-2.195L35.8,31h2.571L42,42h-2.369L38.842,39.377z M35.641,37.602h2.738l-1.297-4.315h-0.13L35.641,37.602z"/><polygon style="fill:none;stroke:#000000;stroke-width:2;stroke-linejoin:round;stroke-miterlimit:10;" points="17,3 25,12 33,3 "/><line style="fill:none;stroke:#000000;stroke-width:2;stroke-linecap:round;stroke-miterlimit:10;" x1="19" y1="23" x2="31" y2="23"/><rect x="5" y="17" style="fill:none;stroke:#000000;stroke-width:2;stroke-linejoin:round;stroke-miterlimit:10;" width="40" height="30"/></svg>