<?xml version="1.0" encoding="utf-8"?><!-- Generator: Adobe Illustrator 15.0.0, SVG Export Plug-In . SVG Version: 6.00 Build 0)  --><!DOCTYPE svg PUBLIC "-//W3C//DTD SVG 1.1//EN" "http://www.w3.org/Graphics/SVG/1.1/DTD/svg11.dtd"><svg xmlns="http://www.w3.org/2000/svg" xmlns:xlink="http://www.w3.org/1999/xlink" viewBox="0 0 50 50" width="500px" height="500px"><path d="M19,50H1c-0.552,0-1-0.447-1-1V31c0-0.553,0.448-1,1-1h18c0.552,0,1,0.447,1,1v18C20,49.553,19.552,50,19,50z"/><path d="M40,20c-0.256,0-0.512-0.098-0.707-0.293l-9-9c-0.391-0.391-0.391-1.023,0-1.414l9-9c0.391-0.391,1.023-0.391,1.414,0l9,9c0.391,0.391,0.391,1.023,0,1.414l-9,9C40.512,19.902,40.256,20,40,20z"/><path d="M10,32c-0.552,0-1-0.447-1-1V20.462c0-0.552,0.448-1,1-1s1,0.448,1,1V31C11,31.553,10.552,32,10,32z"/><path d="M14,25c-0.256,0-0.512-0.098-0.707-0.293L10,21.414l-3.293,3.293c-0.391,0.391-1.023,0.391-1.414,0s-0.391-1.023,0-1.414L10,18.586l4.707,4.707c0.391,0.391,0.391,1.023,0,1.414C14.512,24.902,14.256,25,14,25z"/><path d="M29.538,11H19c-0.552,0-1-0.448-1-1s0.448-1,1-1h10.538c0.553,0,1,0.448,1,1S30.091,11,29.538,11z"/><path d="M26,15c-0.256,0-0.512-0.098-0.707-0.293c-0.391-0.391-0.391-1.023,0-1.414L28.586,10l-3.293-3.293c-0.391-0.391-0.391-1.023,0-1.414s1.023-0.391,1.414,0L31.414,10l-4.707,4.707C26.512,14.902,26.256,15,26,15z"/><path d="M40,30.538c-0.553,0-1-0.447-1-1V19c0-0.552,0.447-1,1-1s1,0.448,1,1v10.538C41,30.091,40.553,30.538,40,30.538z"/><path d="M40,31.414l-4.707-4.707c-0.391-0.391-0.391-1.023,0-1.414s1.023-0.391,1.414,0L40,28.586l3.293-3.293c0.391-0.391,1.023-0.391,1.414,0s0.391,1.023,0,1.414L40,31.414z"/><path d="M40,50c-5.514,0-10-4.486-10-10s4.486-10,10-10s10,4.486,10,10S45.514,50,40,50z"/><path d="M10,20C4.486,20,0,15.514,0,10S4.486,0,10,0s10,4.486,10,10S15.514,20,10,20z"/></svg>