<?xml version="1.0" encoding="iso-8859-1"?><!-- Generator: Adobe Illustrator 19.1.1, SVG Export Plug-In . SVG Version: 6.00 Build 0)  --><svg xmlns="http://www.w3.org/2000/svg" xmlns:xlink="http://www.w3.org/1999/xlink" viewBox="0 0 50 50" width="500px" height="500px"><path d="M25,2C12.318,2,2,12.318,2,25c0,12.683,10.318,23,23,23c12.683,0,23-10.317,23-23C48,12.318,37.683,2,25,2z M34.744,31.08c-2.661,2.661-6.14,2.351-9.526,0.29L13.853,42.765c-2.673-1.683-4.936-3.947-6.619-6.62l11.395-11.366c-2.06-3.385-2.37-6.864,0.29-9.524c2.437-2.436,8.37-5.175,11.869-3.956l-5.275,5.275c-0.728,0.728-0.728,1.909,0,2.637l5.275,5.275c0.728,0.729,1.909,0.729,2.637,0l5.275-5.275C39.919,22.711,37.18,28.644,34.744,31.08z"/></svg>