<?xml version="1.0" encoding="utf-8"?><!-- Generator: Adobe Illustrator 19.1.1, SVG Export Plug-In . SVG Version: 6.00 Build 0)  --><svg xmlns="http://www.w3.org/2000/svg" xmlns:xlink="http://www.w3.org/1999/xlink" viewBox="0 0 50 50" width="500px" height="500px"><path d="M23.6,25H4C4,13.4,13.4,4,25,4v19.6l16.9,16.9C45.7,36.4,48,31,48,25c0-12.3-9.7-22.4-21.9-23c0,0-0.1,0-0.1,0c0,0-0.1,0-0.1,0c-0.3,0-0.6,0-0.9,0C12.3,2,2,12.3,2,25c0,0.3,0,0.6,0,0.9c0,0,0,0.1,0,0.1c0,0.1,0,0.1,0,0.1C2.6,38.3,12.7,48,25,48c6,0,11.4-2.3,15.5-6.1L23.6,25z"/></svg>