<?xml version="1.0" encoding="iso-8859-1"?>
<!-- Generator: Adobe Illustrator 25.2.1, SVG Export Plug-In . SVG Version: 6.00 Build 0)  -->
<svg version="1.1" id="Layer_1" xmlns="http://www.w3.org/2000/svg" xmlns:xlink="http://www.w3.org/1999/xlink" x="0px" y="0px"
	 viewBox="0 0 50 50" style="enable-background:new 0 0 50 50;" xml:space="preserve">
<g>
</g>
<g>
	<path d="M39.25,28.1l-1.59,0.63l-0.87-1.48l-0.87-1.49l-1.04,1.52l-0.92,1.35l-1.51-0.64l-4.15-1.77l-1.55-0.66l0.38-1.63
		l0.39-1.67l-1.71,0.35l-1.64,0.33l-0.62-1.55l-1.66-4.19l-0.63-1.61l1.49-0.86l1.51-0.88l-1.5-0.96l-1.43-0.91L22,10.42L23.04,8
		h-5.13C17.44,5.16,14.97,3,12,3C8.69,3,6,5.69,6,9v31c0,3.31,2.69,6,6,6h30V27.03L39.25,28.1z M16,35.54
		C14.94,34.59,13.54,34,12,34s-2.94,0.59-4,1.54V9c0-2.21,1.79-4,4-4s4,1.79,4,4V35.54z"/>
	<path d="M36.05,12c-1.11,0-2.02,0.9-2.02,2c0,1.1,0.91,2,2.02,2s2.01-0.9,2.01-2C38.06,12.9,37.16,12,36.05,12z"/>
	<path d="M45.05,14.64c0.02-0.22,0.03-0.43,0.03-0.64c0-0.21-0.01-0.43-0.03-0.66l3.19-1.9l-1.65-4.19l-3.77,0.81
		c-0.26-0.29-0.53-0.57-0.83-0.83l0.84-3.61l-4.17-1.78l-2.04,3.18C36.42,5.01,36.24,5,36.06,5S35.7,5.01,35.5,5.02l-2.04-3.25
		L29.29,3.4l0.76,3.87c-0.22,0.2-0.43,0.41-0.63,0.62l-3.8-0.82l-1.05,2.45l-0.73,1.69l3.21,2.06c-0.03,0.26-0.04,0.49-0.04,0.73
		c0,0.18,0.01,0.36,0.02,0.56l-3.28,1.9l1.66,4.19l3.81-0.77c0.23,0.27,0.48,0.52,0.73,0.76l-0.87,3.74l4.15,1.77l2.17-3.18
		c0.23,0.02,0.44,0.03,0.65,0.03c0.18,0,0.37-0.01,0.56-0.02l1.91,3.26l1.94-0.76l2.25-0.88l-0.74-3.82c0.36-0.3,0.69-0.64,0.99-1
		l3.48,1.02l1.82-4.22L45.05,14.64z M36.05,10c2.21,0,4.01,1.79,4.01,4c0,2.21-1.8,4-4.01,4c-2.22,0-4.02-1.79-4.02-4
		C32.03,11.79,33.83,10,36.05,10z"/>
</g>
</svg>