<?xml version="1.0" encoding="iso-8859-1"?><!-- Generator: Adobe Illustrator 19.2.1, SVG Export Plug-In . SVG Version: 6.00 Build 0)  --><svg xmlns="http://www.w3.org/2000/svg" xmlns:xlink="http://www.w3.org/1999/xlink" viewBox="0 0 50 50" width="500px" height="500px"><line style="fill:none;stroke:#000000;stroke-width:2;stroke-linecap:round;stroke-linejoin:round;stroke-miterlimit:10;" x1="30" y1="15" x2="38" y2="15"/><circle cx="45" cy="15" r="1"/><circle cx="42" cy="15" r="1"/><line style="fill:none;stroke:#000000;stroke-width:2;stroke-linecap:round;stroke-linejoin:round;stroke-miterlimit:10;" x1="30" y1="20" x2="38" y2="20"/><circle cx="45" cy="20" r="1"/><circle cx="42" cy="20" r="1"/><line style="fill:none;stroke:#000000;stroke-width:2;stroke-linecap:round;stroke-linejoin:round;stroke-miterlimit:10;" x1="30" y1="25" x2="38" y2="25"/><circle cx="45" cy="25" r="1"/><line style="fill:none;stroke:#000000;stroke-width:2;stroke-linecap:round;stroke-linejoin:round;stroke-miterlimit:10;" x1="6" y1="15" x2="14" y2="15"/><circle cx="21" cy="15" r="1"/><circle cx="18" cy="15" r="1"/><line style="fill:none;stroke:#000000;stroke-width:2;stroke-linecap:round;stroke-linejoin:round;stroke-miterlimit:10;" x1="6" y1="20" x2="14" y2="20"/><circle cx="21" cy="20" r="1"/><circle cx="18" cy="20" r="1"/><line style="fill:none;stroke:#000000;stroke-width:2;stroke-linecap:round;stroke-linejoin:round;stroke-miterlimit:10;" x1="6" y1="30" x2="14" y2="30"/><circle cx="21" cy="30" r="1"/><circle cx="18" cy="30" r="1"/><line style="fill:none;stroke:#000000;stroke-width:2;stroke-linecap:round;stroke-linejoin:round;stroke-miterlimit:10;" x1="6" y1="35" x2="14" y2="35"/><circle cx="21" cy="35" r="1"/><line style="fill:none;stroke:#000000;stroke-width:2;stroke-linecap:round;stroke-linejoin:round;stroke-miterlimit:10;" x1="6" y1="25" x2="14" y2="25"/><circle cx="21" cy="25" r="1"/><path style="fill:none;stroke:#000000;stroke-width:2;stroke-linecap:round;stroke-linejoin:round;stroke-miterlimit:10;" d="M25,42h22c1.105,0,2-0.895,2-2V10c0-1.105-0.895-2-2-2H27c-1.105,0-2,0.895-2,2L25,42z"/><path style="fill:none;stroke:#000000;stroke-width:2;stroke-linecap:round;stroke-linejoin:round;stroke-miterlimit:10;" d="M25,42H3c-1.105,0-2-0.895-2-2V10c0-1.105,0.895-2,2-2h20c1.105,0,2,0.895,2,2L25,42z"/><path d="M28,41c0,1.657-1.343,3-3,3s-3-1.343-3-3H28z"/></svg>