<?xml version="1.0" encoding="iso-8859-1"?><!-- Generator: Adobe Illustrator 21.1.0, SVG Export Plug-In . SVG Version: 6.00 Build 0)  --><svg xmlns="http://www.w3.org/2000/svg" xmlns:xlink="http://www.w3.org/1999/xlink" viewBox="0 0 50 50" width="500px" height="500px"><path d="M2,25c0,12.683,10.317,23,23,23s23-10.317,23-23S37.683,2,25,2S2,12.317,2,25z M34,25c0-4.971-4.029-9-9-9c-3.532,0-6.58,2.039-8.053,5h-4.313c1.688-5.221,6.583-9,12.366-9c7.18,0,13,5.82,13,13s-5.82,13-13,13c-5.783,0-10.678-3.779-12.366-9h4.313c1.474,2.961,4.522,5,8.053,5C29.971,34,34,29.971,34,25z"/></svg>