<?xml version="1.0" encoding="utf-8"?><!-- Generator: Adobe Illustrator 15.0.0, SVG Export Plug-In . SVG Version: 6.00 Build 0)  --><!DOCTYPE svg PUBLIC "-//W3C//DTD SVG 1.1//EN" "http://www.w3.org/Graphics/SVG/1.1/DTD/svg11.dtd"><svg xmlns="http://www.w3.org/2000/svg" xmlns:xlink="http://www.w3.org/1999/xlink" viewBox="0 0 50 50" width="500px" height="500px"><polyline fill="none" stroke="#000000" stroke-width="2" stroke-linecap="round" stroke-linejoin="round" stroke-miterlimit="10" points="31,19 31,18 27,18 27,19 "/><path d="M42,3H8C7.448,3,7,3.448,7,4v42c0,0.553,0.448,1,1,1h34c0.553,0,1-0.447,1-1V4C43,3.448,42.553,3,42,3z M19,29l-3,3l-3-3h2V14h-2l3-3l3,3h-2v15H19z M32,40v-2h-6v2l-3-3l3-3v2h6v-2l3,3L32,40z M32,28v1c0,1.105-0.895,2-2,2c0,0.553-0.447,1-1,1s-1-0.447-1-1c-1.105,0-2-0.895-2-2v-1H32z M32.072,26h-6.145C25.487,22.733,23,21.438,23,18c0-3.314,2.686-6,6-6s6,2.686,6,6C35,21.364,32.512,22.72,32.072,26z"/></svg>