<?xml version="1.0" encoding="iso-8859-1"?><!-- Generator: Adobe Illustrator 22.0.1, SVG Export Plug-In . SVG Version: 6.00 Build 0)  --><svg xmlns="http://www.w3.org/2000/svg" xmlns:xlink="http://www.w3.org/1999/xlink" viewBox="0 0 50 50" width="500px" height="500px"><path style="fill:none;stroke:#000000;stroke-width:2;stroke-linecap:round;stroke-linejoin:round;stroke-miterlimit:10;" d="M31,44h18c-0.4-5.4-6.8-4.7-8-8c0-1,0-1,0-1"/><path style="fill:none;stroke:#000000;stroke-width:2;stroke-linecap:round;stroke-linejoin:round;stroke-miterlimit:10;" d="M35,35c0,0,0,0,0,1c-0.777,2.138-3.737,2.597-5.834,4.123"/><path style="fill:none;stroke:#000000;stroke-width:2;stroke-linejoin:round;stroke-miterlimit:10;" d="M38,18c-3.866,0-7,3.134-7,7c0,4.967,4,5.947,4,9v1c0,1.105,0.895,2,2,2h2c1.105,0,2-0.895,2-2v-1c0-3,4-4,4-9C45,21.134,41.866,18,38,18z"/><path d="M40,37c0,1.105-0.895,2-2,2s-2-0.895-2-2H40z"/><path style="fill:none;stroke:#000000;stroke-width:2;stroke-linecap:round;stroke-linejoin:round;stroke-miterlimit:10;" d="M12,31c0,0,0.05,1.05,0,2.75C10.4,37.95,2,37,1,44h17h-4h17c-1-7-9.4-6.05-11-10.25c-0.05-1.7,0-2.75,0-2.75"/><path style="fill:none;stroke:#000000;stroke-width:2;stroke-linejoin:round;stroke-miterlimit:10;" d="M15.722,11.004C10.923,11.149,7,15.231,7,20.033C7,25,12,28,12,31.053V34c0,1.105,0.895,2,2,2h4c1.105,0,2-0.895,2-2v-3c0-3,5-6,5-11C25,14.937,20.82,10.851,15.722,11.004z"/><path d="M18,36c0,1.105-0.895,2-2,2s-2-0.895-2-2H18z"/><path style="fill:none;stroke:#000000;stroke-width:2;stroke-linecap:round;stroke-linejoin:round;stroke-miterlimit:10;" d="M35,33h6"/><path style="fill:none;stroke:#000000;stroke-width:2;stroke-linecap:round;stroke-linejoin:round;stroke-miterlimit:10;" d="M13,31h6"/><line style="fill:none;stroke:#000000;stroke-width:2;stroke-linecap:round;stroke-linejoin:round;stroke-miterlimit:10;" x1="12.626" y1="7.445" x2="12.107" y2="5.514"/><line style="fill:none;stroke:#000000;stroke-width:2;stroke-linecap:round;stroke-linejoin:round;stroke-miterlimit:10;" x1="6.801" y1="10.814" x2="5.386" y2="9.401"/><line style="fill:none;stroke:#000000;stroke-width:2;stroke-linecap:round;stroke-linejoin:round;stroke-miterlimit:10;" x1="25.186" y1="10.801" x2="26.599" y2="9.386"/><line style="fill:none;stroke:#000000;stroke-width:2;stroke-linecap:round;stroke-linejoin:round;stroke-miterlimit:10;" x1="19.355" y1="7.44" x2="19.872" y2="5.508"/><line style="fill:none;stroke:#000000;stroke-width:2;stroke-linecap:round;stroke-linejoin:round;stroke-miterlimit:10;" x1="35.181" y1="14.367" x2="34.668" y2="12.434"/><line style="fill:none;stroke:#000000;stroke-width:2;stroke-linecap:round;stroke-linejoin:round;stroke-miterlimit:10;" x1="30.242" y1="17.202" x2="28.832" y2="15.784"/><line style="fill:none;stroke:#000000;stroke-width:2;stroke-linecap:round;stroke-linejoin:round;stroke-miterlimit:10;" x1="45.798" y1="17.242" x2="47.216" y2="15.832"/><line style="fill:none;stroke:#000000;stroke-width:2;stroke-linecap:round;stroke-linejoin:round;stroke-miterlimit:10;" x1="40.875" y1="14.382" x2="41.397" y2="12.452"/></svg>