<?xml version="1.0" encoding="iso-8859-1"?><!-- Generator: Adobe Illustrator 21.0.2, SVG Export Plug-In . SVG Version: 6.00 Build 0)  --><svg xmlns="http://www.w3.org/2000/svg" xmlns:xlink="http://www.w3.org/1999/xlink" viewBox="0 0 50 50" width="500px" height="500px"><g><polyline style="fill:none;stroke:#000000;stroke-width:2;stroke-linejoin:round;stroke-miterlimit:10;" points="16,5 5,5 5,17 "/><polyline style="fill:none;stroke:#000000;stroke-width:2;stroke-linejoin:round;stroke-miterlimit:10;" points="45,17 45,5 34,5 "/><polyline style="fill:none;stroke:#000000;stroke-width:2;stroke-linejoin:round;stroke-miterlimit:10;" points="34,45 45,45 45,35 "/><polyline style="fill:none;stroke:#000000;stroke-width:2;stroke-linejoin:round;stroke-miterlimit:10;" points="5,35 5,45 16,45 "/></g><g><g><path d="M27.698,29.445c-0.087-0.976-0.054-1.658-0.054-2.55c0.435-0.232,1.214-1.712,1.346-2.961c0.342-0.028,0.881-0.368,1.039-1.707c0.085-0.719-0.182-1.172-0.459-1.251c1.03-1.336,0.862-6.776-3.024-6.776L25.95,13c-5.585,0-7.621,4.31-6.003,7.975c-0.205,0.127-0.544,0.532-0.459,1.251c0.158,1.34,0.697,1.679,1.039,1.707c0.131,1.249,0.941,2.729,1.377,2.961c0,0.892,0.033,1.574-0.054,2.55C20.807,32.298,14.325,31.497,14,37h22C35.675,31.497,28.742,32.298,27.698,29.445z"/></g></g></svg>