<?xml version="1.0" encoding="iso-8859-1"?>
<!-- Generator: Adobe Illustrator 24.1.1, SVG Export Plug-In . SVG Version: 6.00 Build 0)  -->
<svg version="1.1" id="Layer_1" xmlns="http://www.w3.org/2000/svg" xmlns:xlink="http://www.w3.org/1999/xlink" x="0px" y="0px"
	 viewBox="0 0 50 50" style="enable-background:new 0 0 50 50;" xml:space="preserve">
<circle cx="43.5" cy="6.5" r="3.5"/>
<path d="M43.5,11c-3.033,0-5.5,2.467-5.5,5.5V20c0,0.42,0.263,0.796,0.658,0.94c1.946,0.708,7.738,0.708,9.684,0
	C48.737,20.796,49,20.42,49,20v-3.5C49,13.467,46.533,11,43.5,11z"/>
<circle cx="43.5" cy="29.5" r="3.5"/>
<path d="M43.5,34c-3.033,0-5.5,2.467-5.5,5.5V43c0,0.42,0.263,0.796,0.658,0.94c1.946,0.708,7.738,0.708,9.684,0
	C48.737,43.796,49,43.42,49,43v-3.5C49,36.467,46.533,34,43.5,34z"/>
<path d="M16,19h8c0.552,0,1-0.448,1-1v-8c0-0.552-0.448-1-1-1h-8c-4.417,0-8.532,1.767-11.586,4.976
	c-3.051,3.206-4.612,7.407-4.394,11.829C0.44,34.326,7.65,41,16.435,41H24c0.552,0,1-0.448,1-1v-8c0-0.552-0.448-1-1-1h-8
	c-3.309,0-6-2.691-6-6S12.691,19,16,19z M23,17h-4v-6h4V17z M23,39h-4v-6h4V39z"/>
<line style="fill:none;stroke:#000000;stroke-width:2;stroke-linecap:round;stroke-linejoin:round;stroke-miterlimit:10;" x1="29" y1="10" x2="31" y2="10"/>
<line style="fill:none;stroke:#000000;stroke-width:2;stroke-linecap:round;stroke-linejoin:round;stroke-miterlimit:10;" x1="28" y1="18" x2="32" y2="18"/>
<line style="fill:none;stroke:#000000;stroke-width:2;stroke-linecap:round;stroke-linejoin:round;stroke-miterlimit:10;" x1="30" y1="14" x2="35" y2="14"/>
<line style="fill:none;stroke:#000000;stroke-width:2;stroke-linecap:round;stroke-linejoin:round;stroke-miterlimit:10;" x1="29" y1="40" x2="31" y2="40"/>
<line style="fill:none;stroke:#000000;stroke-width:2;stroke-linecap:round;stroke-linejoin:round;stroke-miterlimit:10;" x1="28" y1="32" x2="32" y2="32"/>
<line style="fill:none;stroke:#000000;stroke-width:2;stroke-linecap:round;stroke-linejoin:round;stroke-miterlimit:10;" x1="30" y1="36" x2="35" y2="36"/>
</svg>