<?xml version="1.0" encoding="utf-8"?><!-- Generator: Adobe Illustrator 15.0.0, SVG Export Plug-In . SVG Version: 6.00 Build 0)  --><!DOCTYPE svg PUBLIC "-//W3C//DTD SVG 1.1//EN" "http://www.w3.org/Graphics/SVG/1.1/DTD/svg11.dtd"><svg xmlns="http://www.w3.org/2000/svg" xmlns:xlink="http://www.w3.org/1999/xlink" viewBox="0 0 50 50" width="500px" height="500px"><path d="M34.616,39.484V3.769l0,0c0-0.552-0.447-1-1-1H1.923c-0.552,0-1,0.448-1,1v35.715c0,2.614,0.785,4.715,2.334,6.246c2.465,2.437,5.982,2.5,6.333,2.5c0.012,0,0.02,0,0.024,0h28.847h2.922c0.001,0,0.001,0,0.001,0c0.002,0,0.004,0,0.005,0c0.055,0,0.377-0.008,0.854-0.077C39.13,47.757,34.616,45.631,34.616,39.484z M14.462,41h-6.77c-0.552,0-1-0.447-1-1s0.448-1,1-1h6.77c0.552,0,1,0.447,1,1S15.014,41,14.462,41z M14.462,37h-6.77c-0.552,0-1-0.447-1-1s0.448-1,1-1h6.77c0.552,0,1,0.447,1,1S15.014,37,14.462,37z M14.462,33h-6.77c-0.552,0-1-0.447-1-1s0.448-1,1-1h6.77c0.552,0,1,0.447,1,1S15.014,33,14.462,33z M14.462,29h-6.77c-0.552,0-1-0.447-1-1s0.448-1,1-1h6.77c0.552,0,1,0.447,1,1S15.014,29,14.462,29z M14.462,25h-6.77c-0.552,0-1-0.448-1-1s0.448-1,1-1h6.77c0.552,0,1,0.448,1,1S15.014,25,14.462,25z M26.923,40.539H19.23c-0.552,0-1-0.447-1-1s0.448-1,1-1h7.693c0.553,0,1,0.447,1,1S27.476,40.539,26.923,40.539z M26.923,36.77H19.23c-0.552,0-1-0.447-1-1s0.448-1,1-1h7.693c0.553,0,1,0.447,1,1S27.476,36.77,26.923,36.77z M26.923,32.77H19.23c-0.552,0-1-0.447-1-1s0.448-1,1-1h7.693c0.553,0,1,0.447,1,1S27.476,32.77,26.923,32.77z M26.923,29H19.23c-0.552,0-1-0.447-1-1s0.448-1,1-1h7.693c0.553,0,1,0.447,1,1S27.476,29,26.923,29z M26.923,25H19.23c-0.552,0-1-0.448-1-1s0.448-1,1-1h7.693c0.553,0,1,0.448,1,1S27.476,25,26.923,25z M26.923,17H7.23c-0.552,0-1-0.448-1-1s0.448-1,1-1h19.693c0.553,0,1,0.448,1,1S27.476,17,26.923,17z M26.923,13H7.23c-0.552,0-1-0.448-1-1s0.448-1,1-1h19.693c0.553,0,1,0.448,1,1S27.476,13,26.923,13z"/><path d="M49.078,14.416c-0.034-1.448-0.829-3.999-3.421-4.693c-0.813,0.194-1.496,0.541-2.007,1.075c-1.324,1.384-1.268,3.521-1.267,3.542l0.001,24.275c0,0.553-0.447,1-1,1s-1-0.447-1-1v-24.23c-0.005-0.076-0.103-2.877,1.75-4.89h-5.519v29.989c0,6.646,6.422,6.745,6.695,6.746c0.539-0.005,4.998-0.216,5.685-5.323c0.047-0.434,0.082-0.881,0.082-1.368v-25.1c0-0.004-0.002-0.007-0.002-0.011S49.078,14.42,49.078,14.416z"/></svg>