<?xml version="1.0" encoding="iso-8859-1"?><!-- Generator: Adobe Illustrator 23.0.1, SVG Export Plug-In . SVG Version: 6.00 Build 0)  --><svg xmlns="http://www.w3.org/2000/svg" xmlns:xlink="http://www.w3.org/1999/xlink" viewBox="0 0 50 50" width="500px" height="500px"><path d="M27,45H17c-1.654,0-3-1.346-3-3v-5h16v5C30,43.654,28.654,45,27,45z"/><path style="fill:none;stroke:#000000;stroke-width:2;stroke-linecap:round;stroke-miterlimit:10;" d="M18,28.16c0.147,0.269,0.283,0.548,0.404,0.84C18.77,29.881,19,30.871,19,32"/><path style="fill:none;stroke:#000000;stroke-width:2;stroke-linecap:round;stroke-miterlimit:10;" d="M12,17c0,4.196,1.6,5.911,3.453,7.896"/><path d="M22,48c-1.655,0-3-1.345-3-3c0-0.415,0.335-0.75,0.75-0.75s4.085,0,4.5,0S25,44.585,25,45C25,46.655,23.655,48,22,48z"/><path d="M43.974,15.638C43.991,15.417,44,15.207,44,15c0-0.214-0.01-0.431-0.028-0.66l3.177-1.9l-1.647-4.188l-3.756,0.803c-0.257-0.29-0.531-0.563-0.823-0.818l0.833-3.613l-4.157-1.783l-2.032,3.183c-0.383-0.029-0.722-0.027-1.104-0.002l-2.037-3.254L28.265,4.4l0.764,3.876c-0.222,0.196-0.432,0.401-0.631,0.614l-3.779-0.822l-1.777,4.144l3.193,2.063C26.011,14.526,26,14.765,26,15c0,0.182,0.007,0.364,0.021,0.557l-3.265,1.9l1.646,4.189l3.797-0.767c0.23,0.268,0.475,0.52,0.731,0.756l-0.873,3.741l4.137,1.772l2.163-3.177c0.416,0.034,0.788,0.036,1.202,0.007l1.897,3.265l4.183-1.643l-0.735-3.819c0.354-0.308,0.682-0.641,0.982-0.997l3.472,1.017l1.811-4.222L43.974,15.638z M35,19c-2.209,0-4-1.791-4-4c0-2.209,1.791-4,4-4s4,1.791,4,4C39,17.209,37.209,19,35,19z"/><path d="M29.318,28.094C28.556,29.155,28,30.381,28,32v6h2v-6c0-1.262,0.483-2.191,1.208-3.095L29.318,28.094z"/><path d="M22,4c1.399,0,2.737,0.241,4,0.653V2.565C24.725,2.207,23.388,2,22,2C13.729,2,7,8.729,7,17c0,6.167,2.773,9.138,4.797,11.308C13.076,29.678,14,30.668,14,32v6h2v-6c0-2.12-1.331-3.547-2.74-5.057C11.263,24.804,9,22.379,9,17C9,9.832,14.832,4,22,4z"/></svg>