<?xml version="1.0" encoding="iso-8859-1"?>
<!-- Generator: Adobe Illustrator 24.0.2, SVG Export Plug-In . SVG Version: 6.00 Build 0)  -->
<svg version="1.1" id="Layer_1" xmlns="http://www.w3.org/2000/svg" xmlns:xlink="http://www.w3.org/1999/xlink" x="0px" y="0px"
	 viewBox="0 0 50 50" style="enable-background:new 0 0 50 50;" xml:space="preserve">
<path style="fill:none;stroke:#000000;stroke-width:2;stroke-linejoin:round;stroke-miterlimit:10;" d="M34.637,16.507l14.42,5.329
	l-4.086,13.861L6.668,21.542l5.91-13.187l14.566,5.383"/>
<path style="fill:none;stroke:#000000;stroke-width:2;stroke-linejoin:round;stroke-miterlimit:10;" d="M7.144,25.864l34.656,12.807
	l3.172-2.974L6.668,21.542L7.144,25.864z"/>
<path style="fill:none;stroke:#000000;stroke-width:2;stroke-linejoin:round;stroke-miterlimit:10;" d="M27.823,23.2
	c-1.876-0.693-3.405-2.325-3.059-3.263l2.427-6.566c0.693-1.876-0.15-5.365,0.551-7.259c1.337-3.617,4.234-4.833,7.708-3.548"/>
<path style="fill:none;stroke:#000000;stroke-width:2;stroke-linejoin:round;stroke-miterlimit:10;" d="M27.823,23.2
	c1.876,0.693,4.099,0.449,4.445-0.489l2.427-6.566c0.693-1.876,3.602-3.978,4.303-5.873c1.337-3.617-0.074-6.424-3.548-7.708"/>
<rect x="1" y="30" width="2" height="2"/>
<rect x="1" y="34" width="2" height="2"/>
<rect x="1" y="38" width="2" height="2"/>
<rect x="1" y="42" width="2" height="2"/>
<rect x="5" y="42" width="2" height="2"/>
<rect x="9" y="42" width="2" height="2"/>
<rect x="13" y="42" width="2" height="2"/>
<rect x="17" y="42" width="2" height="2"/>
<rect x="21" y="42" width="2" height="2"/>
<rect x="25" y="42" width="2" height="2"/>
<rect x="29" y="42" width="2" height="2"/>
<rect x="33" y="42" width="2" height="2"/>
<rect x="37" y="42" width="2" height="2"/>
<rect x="5" y="30" width="2" height="2"/>
<rect x="9" y="30" width="2" height="2"/>
</svg>