<?xml version="1.0" encoding="utf-8"?>
<!-- Generator: Adobe Illustrator 24.3.0, SVG Export Plug-In . SVG Version: 6.00 Build 0)  -->
<svg version="1.1" id="Layer_1" xmlns="http://www.w3.org/2000/svg" xmlns:xlink="http://www.w3.org/1999/xlink" x="0px" y="0px"
	 viewBox="0 0 128 128" style="enable-background:new 0 0 128 128;" xml:space="preserve">
<g>
	<path d="M89,1C76.81,1,65.36,3.65,58.37,8.08c-1.4,0.89-1.81,2.74-0.93,4.14c0.89,1.4,2.74,1.81,4.14,0.93C67.65,9.3,77.9,7,89,7
		c18.31,0,32,6.34,32,12c0,3.66-6.4,8.55-18.64,10.82c-1.63,0.3-2.7,1.87-2.4,3.5c0.27,1.44,1.53,2.45,2.95,2.45
		c0.18,0,0.37-0.02,0.55-0.05C117.98,33.02,127,26.61,127,19C127,8.74,110.66,1,89,1z"/>
	<path d="M124,56c-1.66,0-3,1.34-3,3c0,2.56-2.87,4.77-4.58,5.85c-1.4,0.89-1.81,2.74-0.93,4.14c0.57,0.9,1.54,1.39,2.54,1.39
		c0.55,0,1.11-0.15,1.6-0.47C125.72,66.06,127,61.85,127,59C127,57.34,125.66,56,124,56z"/>
	<path d="M124,36c-1.66,0-3,1.34-3,3c0,2.65-3.15,5.59-8.43,7.85c-1.52,0.65-2.23,2.42-1.58,3.94c0.49,1.14,1.6,1.82,2.76,1.82
		c0.39,0,0.8-0.08,1.18-0.24C122.71,49.03,127,44.28,127,39C127,37.34,125.66,36,124,36z"/>
	<path d="M54,127c29.22,0,53-23.78,53-53S83.22,21,54,21S1,44.78,1,74S24.78,127,54,127z M54,27c25.92,0,47,21.08,47,47
		s-21.08,47-47,47S7,99.92,7,74S28.08,27,54,27z"/>
</g>
</svg>