<?xml version="1.0" encoding="iso-8859-1"?><!-- Generator: Adobe Illustrator 21.1.0, SVG Export Plug-In . SVG Version: 6.00 Build 0)  --><svg xmlns="http://www.w3.org/2000/svg" xmlns:xlink="http://www.w3.org/1999/xlink" viewBox="0 0 50 50" width="500px" height="500px"><line style="fill:none;stroke:#000000;stroke-width:2;stroke-linecap:round;stroke-miterlimit:10;" x1="25" y1="25" x2="41.279" y2="8.721"/><polygon points="43,3 38,8 38,12 42,12 47,7 43,7 "/><path d="M27.121,27.121C26.555,27.688,25.801,28,25,28s-1.555-0.312-2.121-0.879C22.312,26.555,22,25.801,22,25c0-0.801,0.312-1.555,0.879-2.121l5.993-5.993C27.699,16.321,26.387,16,25,16c-4.962,0-9,4.038-9,9s4.038,9,9,9s9-4.038,9-9c0-1.387-0.325-2.696-0.887-3.87L27.121,27.121z"/><path d="M44.306,12.522L44.306,12.522l-0.892,0.892L42.828,14H42h-1.758l-2.732,2.732C39.081,19.103,40,21.943,40,25c0,8.284-6.716,15-15,15s-15-6.716-15-15c0-8.284,6.716-15,15-15c3.057,0,5.897,0.919,8.268,2.49L36,9.758V8V7.172l0.586-0.586l0.889-0.889C33.879,3.363,29.597,2,25,2C12.318,2,2,12.318,2,25s10.318,23,23,23s23-10.318,23-23C48,20.403,46.639,16.12,44.306,12.522z"/></svg>