<?xml version="1.0" encoding="iso-8859-1"?><!-- Generator: Adobe Illustrator 20.1.0, SVG Export Plug-In . SVG Version: 6.00 Build 0)  --><svg xmlns="http://www.w3.org/2000/svg" xmlns:xlink="http://www.w3.org/1999/xlink" viewBox="0 0 50 50" width="500px" height="500px"><path style="fill:none;stroke:#000000;stroke-width:2;stroke-linejoin:round;stroke-miterlimit:10;" d="M38,12h7c1.105,0,2,0.895,2,2v24c0,1.105-0.895,2-2,2H5c-1.105,0-2-0.895-2-2V14c0-1.105,0.895-2,2-2h7"/><polygon style="fill:none;stroke:#000000;stroke-width:2;stroke-linecap:round;stroke-linejoin:round;stroke-miterlimit:10;" points="31,46 19,46 20,40 30,40 "/><line style="fill:none;stroke:#000000;stroke-width:2;stroke-linecap:round;stroke-linejoin:round;stroke-miterlimit:10;" x1="16" y1="46" x2="34" y2="46"/><line style="fill:none;stroke:#000000;stroke-width:2;stroke-linecap:round;stroke-linejoin:round;stroke-miterlimit:10;" x1="3" y1="36" x2="47" y2="36"/><path style="fill:none;stroke:#000000;stroke-width:2;stroke-linecap:round;stroke-linejoin:round;stroke-miterlimit:10;" d="M36,29V6.5C36,5.119,34.881,4,33.5,4h-17C15.119,4,14,5.119,14,6.5V29"/><rect x="18" y="4" width="3" height="25"/><path d="M37.5,27H35v1H15v-1h-2.5c-0.828,0-1.5,0.672-1.5,1.5s0.672,1.5,1.5,1.5h25c0.828,0,1.5-0.672,1.5-1.5S38.328,27,37.5,27z"/></svg>