<?xml version="1.0" encoding="iso-8859-1"?><!-- Generator: Adobe Illustrator 23.0.3, SVG Export Plug-In . SVG Version: 6.00 Build 0)  --><svg xmlns="http://www.w3.org/2000/svg" xmlns:xlink="http://www.w3.org/1999/xlink" viewBox="0 0 50 50" width="500px" height="500px"><path d="M40,3h-7h-4.126C28.428,1.276,26.86,0,25,0s-3.428,1.276-3.874,3H17h-7C8.346,3,7,4.346,7,6v39c0,1.654,1.346,3,3,3h25.889C32.988,46.506,31,43.488,31,40c0-4.971,4.029-9,9-9c1.054,0,2.06,0.19,3,0.523V6C43,4.346,41.654,3,40,3z M18,5h4c0.552,0,1-0.447,1-1c0-1.103,0.897-2,2-2s2,0.897,2,2c0,0.553,0.448,1,1,1h4v3c0,0.552-0.449,1-1,1H19c-0.551,0-1-0.448-1-1V5z M27,38H14c-0.552,0-1-0.447-1-1s0.448-1,1-1h13c0.552,0,1,0.447,1,1S27.552,38,27,38z M30,32H14c-0.552,0-1-0.447-1-1s0.448-1,1-1h16c0.552,0,1,0.447,1,1S30.552,32,30,32z M36,26H14c-0.552,0-1-0.447-1-1s0.448-1,1-1h22c0.552,0,1,0.447,1,1S36.552,26,36,26z M36,20H14c-0.552,0-1-0.447-1-1s0.448-1,1-1h22c0.552,0,1,0.447,1,1S36.552,20,36,20z"/><g id="IOS_copy_17_"><path d="M40,50c-5.5,0-10-4.5-10-10s4.5-10,10-10s10,4.5,10,10S45.5,50,40,50z M40,32c-4.4,0-8,3.6-8,8s3.6,8,8,8s8-3.6,8-8S44.4,32,40,32z M41,40.5V34h-2v5.5l-3.6,2.7l1.2,1.6L41,40.5z"/></g></svg>