<?xml version="1.0" encoding="iso-8859-1"?><!-- Generator: Adobe Illustrator 23.0.3, SVG Export Plug-In . SVG Version: 6.00 Build 0)  --><svg xmlns="http://www.w3.org/2000/svg" xmlns:xlink="http://www.w3.org/1999/xlink" viewBox="0 0 50 50" width="500px" height="500px"><path style="fill:none;stroke:#000000;stroke-width:2;stroke-miterlimit:10;" d="M26,46c9.091,0,18,0,18,0"/><g><path d="M12,38h22V2H12C8.691,2,6,4.691,6,8v33.417C6,44.495,8.691,47,12,47v-2c-2.168,0-4-1.641-4-3.583C8,39.501,9.757,38,12,38z"/><rect x="36" y="2" width="8" height="36"/></g><path d="M23,50c-0.212,0-0.424-0.067-0.6-0.2L19,47.25l-3.4,2.55c-0.302,0.229-0.708,0.263-1.047,0.095C14.214,49.725,14,49.379,14,49v-9h10v9c0,0.379-0.214,0.725-0.553,0.895C23.306,49.965,23.152,50,23,50z"/></svg>