<?xml version="1.0" encoding="iso-8859-1"?><!-- Generator: Adobe Illustrator 22.1.0, SVG Export Plug-In . SVG Version: 6.00 Build 0)  --><svg xmlns="http://www.w3.org/2000/svg" xmlns:xlink="http://www.w3.org/1999/xlink" viewBox="0 0 50 50" width="500px" height="500px"><path d="M47,2H15c-0.553,0-1,0.448-1,1v13.845C15.255,16.305,16.805,16,18.658,16l0.843,1.409c3.441,0,4.791,2.818,4.791,5.284c0,1.233-0.71,3.523-0.71,3.523s0.71,0.352,0.71,1.761c0,1.761-0.887,2.114-1.597,2.114c-0.179,1.613-1.363,3.575-1.952,3.875V36H47c0.553,0,1-0.447,1-1V3C48,2.448,47.553,2,47,2z M34,29h-6c-0.553,0-1-0.447-1-1s0.447-1,1-1h6c0.553,0,1,0.447,1,1S34.553,29,34,29z M34,20h-6c-0.553,0-1-0.448-1-1s0.447-1,1-1h6c0.553,0,1,0.448,1,1S34.553,20,34,20z M34,11H20c-0.553,0-1-0.448-1-1s0.447-1,1-1h14c0.553,0,1,0.448,1,1S34.553,11,34,11z M43.8,25.6l-3,4c-0.174,0.232-0.439,0.377-0.729,0.397C40.047,29.999,40.023,30,40,30c-0.265,0-0.519-0.104-0.707-0.293l-2-2c-0.391-0.391-0.391-1.023,0-1.414s1.023-0.391,1.414,0l1.185,1.185L42.2,24.4c0.331-0.44,0.958-0.531,1.399-0.2C44.042,24.531,44.132,25.158,43.8,25.6z M43.8,16.6l-3,4c-0.174,0.232-0.439,0.377-0.729,0.397C40.047,20.999,40.023,21,40,21c-0.265,0-0.519-0.104-0.707-0.293l-2-2c-0.391-0.391-0.391-1.023,0-1.414s1.023-0.391,1.414,0l1.185,1.185L42.2,15.4c0.331-0.441,0.958-0.531,1.399-0.2C44.042,15.531,44.132,16.158,43.8,16.6z M43.8,7.6l-3,4c-0.174,0.232-0.439,0.377-0.729,0.397C40.047,11.999,40.023,12,40,12c-0.265,0-0.519-0.104-0.707-0.293l-2-2c-0.391-0.391-0.391-1.023,0-1.414s1.023-0.391,1.414,0l1.185,1.185L42.2,6.4c0.331-0.44,0.958-0.531,1.399-0.2C44.042,6.531,44.132,7.158,43.8,7.6z"/><path style="fill:none;stroke:#000000;stroke-width:2;stroke-linecap:round;stroke-linejoin:round;stroke-miterlimit:10;" d="M20.743,37.136v-3.17c0.589-0.3,1.773-2.262,1.952-3.875c0.71,0,1.597-0.352,1.597-2.114c0-1.409-0.71-1.761-0.71-1.761s0.71-2.29,0.71-3.523c0-2.466-1.35-5.284-4.791-5.284L18.658,16c-5.675,0-8.56,2.818-8.56,6.693c0,1.233,0.71,3.523,0.71,3.523s-0.71,0.352-0.71,1.761c0,1.761,0.887,2.114,1.597,2.114c0.177,1.613,1.361,3.575,1.952,3.875v3.17C12.232,40.823,3.44,39.893,3,47h29.808C32.368,39.893,22.158,40.821,20.743,37.136z"/></svg>