<?xml version="1.0" encoding="utf-8"?><!-- Generator: Adobe Illustrator 18.1.0, SVG Export Plug-In . SVG Version: 6.00 Build 0)  --><svg xmlns="http://www.w3.org/2000/svg" xmlns:xlink="http://www.w3.org/1999/xlink" viewBox="0 0 50 50" width="500px" height="500px"><line fill="none" stroke="#000000" stroke-width="2" stroke-miterlimit="10" x1="16.6" y1="35.3" x2="1.1" y2="23.1"/><line fill="none" stroke="#000000" stroke-width="2" stroke-miterlimit="10" x1="33.4" y1="35.3" x2="48.9" y2="23.1"/><path fill="none" stroke="#000000" stroke-width="2" stroke-miterlimit="10" d="M48.9,47c0,0-18.4-14.4-19.9-15.6c-1.5-1.2-3.1-1.4-4-1.4c-0.9,0-2.5,0.3-4,1.4C19.5,32.6,1.1,47,1.1,47"/><g><g><path fill="none" stroke="#000000" stroke-width="2" stroke-linecap="round" stroke-miterlimit="10" d="M37,28V1l0,0H13v27"/></g></g><path fill="none" stroke="#000000" stroke-width="2" stroke-miterlimit="10" d="M13,10.4c0-3.5,3.7-3.7,4.7-4.7c1-1,1.2-4.7,3.6-4.7"/><path fill="none" stroke="#000000" stroke-width="2" stroke-miterlimit="10" d="M37,10.4c0-3.5-3.7-3.7-4.7-4.7c-1-1-1.2-4.7-3.6-4.7"/><circle fill="none" stroke="#000000" stroke-width="2" stroke-miterlimit="10" cx="25" cy="8" r="3"/><path fill="none" stroke="#000000" stroke-width="2" stroke-linecap="round" stroke-miterlimit="10" d="M30.9,27.9c1.3-1.3,2.1-3,2.1-4.8c0-3.9-3.6-7.1-8-7.1s-8,3.2-8,7.1c0,1.9,0.8,3.5,2.1,4.8"/><path fill="none" stroke="#000000" stroke-width="2" stroke-linecap="round" stroke-linejoin="round" stroke-miterlimit="10" d="M10,12l-7.7,6.8c-0.9,0.8-1.3,1.8-1.3,3V49h48V21.8c0-1.1-0.5-2.2-1.3-2.9L40,11.7"/><g><circle cx="22" cy="23" r="1"/><circle cx="19" cy="26" r="1"/><circle cx="25" cy="26" r="1"/><circle cx="22" cy="17" r="1"/><circle cx="19" cy="20" r="1"/><circle cx="25" cy="8" r="1"/><circle cx="34" cy="4" r="1"/><circle cx="16" cy="4" r="1"/><circle cx="25" cy="20" r="1"/><circle cx="31" cy="26" r="1"/><circle cx="28" cy="23" r="1"/><circle cx="31" cy="20" r="1"/><circle cx="28" cy="17" r="1"/></g></svg>