<?xml version="1.0" encoding="utf-8"?><!-- Generator: Adobe Illustrator 19.1.1, SVG Export Plug-In . SVG Version: 6.00 Build 0)  --><svg xmlns="http://www.w3.org/2000/svg" xmlns:xlink="http://www.w3.org/1999/xlink" viewBox="0 0 50 50" width="500px" height="500px"><g><path d="M47,7H29c-1.7,0-3,1.3-3,3v26v5v2.8c0.5-0.2,0.9-0.4,1.2-0.8H47c1.7,0,3-1.3,3-3V10C50,8.3,48.7,7,47,7z M38,26h-7c-0.6,0-1-0.4-1-1s0.4-1,1-1h7c0.6,0,1,0.4,1,1S38.6,26,38,26z M38,21h-7c-0.6,0-1-0.4-1-1s0.4-1,1-1h7c0.6,0,1,0.4,1,1S38.6,21,38,21z M38,16h-7c-0.6,0-1-0.4-1-1s0.4-1,1-1h7c0.6,0,1,0.4,1,1S38.6,16,38,16z M42,21c-0.6,0-1-0.4-1-1c0-0.6,0.4-1,1-1s1,0.4,1,1C43,20.6,42.6,21,42,21z M42,16c-0.6,0-1-0.4-1-1c0-0.6,0.4-1,1-1s1,0.4,1,1C43,15.6,42.6,16,42,16z M45,26c-0.6,0-1-0.4-1-1c0-0.6,0.4-1,1-1s1,0.4,1,1C46,25.6,45.6,26,45,26z M45,21c-0.6,0-1-0.4-1-1c0-0.6,0.4-1,1-1s1,0.4,1,1C46,20.6,45.6,21,45,21z M45,16c-0.6,0-1-0.4-1-1c0-0.6,0.4-1,1-1s1,0.4,1,1C46,15.6,45.6,16,45,16z"/><path d="M24,41v-5V10c0-1.7-1.3-3-3-3H3c-1.7,0-3,1.3-3,3v30c0,1.7,1.3,3,3,3h19.8c0.3,0.4,0.8,0.6,1.2,0.8V41z M12,36H5c-0.6,0-1-0.4-1-1s0.4-1,1-1h7c0.6,0,1,0.4,1,1S12.6,36,12,36z M12,31H5c-0.6,0-1-0.4-1-1s0.4-1,1-1h7c0.6,0,1,0.4,1,1S12.6,31,12,31z M12,26H5c-0.6,0-1-0.4-1-1s0.4-1,1-1h7c0.6,0,1,0.4,1,1S12.6,26,12,26z M12,21H5c-0.6,0-1-0.4-1-1s0.4-1,1-1h7c0.6,0,1,0.4,1,1S12.6,21,12,21z M12,16H5c-0.6,0-1-0.4-1-1s0.4-1,1-1h7c0.6,0,1,0.4,1,1S12.6,16,12,16z M16,31c-0.6,0-1-0.4-1-1c0-0.6,0.4-1,1-1s1,0.4,1,1C17,30.6,16.6,31,16,31z M16,21c-0.6,0-1-0.4-1-1c0-0.6,0.4-1,1-1s1,0.4,1,1C17,20.6,16.6,21,16,21z M16,16c-0.6,0-1-0.4-1-1c0-0.6,0.4-1,1-1s1,0.4,1,1C17,15.6,16.6,16,16,16z M19,36c-0.6,0-1-0.4-1-1c0-0.6,0.4-1,1-1s1,0.4,1,1C20,35.6,19.6,36,19,36z M19,31c-0.6,0-1-0.4-1-1c0-0.6,0.4-1,1-1s1,0.4,1,1C20,30.6,19.6,31,19,31z M19,26c-0.6,0-1-0.4-1-1c0-0.6,0.4-1,1-1s1,0.4,1,1C20,25.6,19.6,26,19,26z M19,21c-0.6,0-1-0.4-1-1c0-0.6,0.4-1,1-1s1,0.4,1,1C20,20.6,19.6,21,19,21z M19,16c-0.6,0-1-0.4-1-1c0-0.6,0.4-1,1-1s1,0.4,1,1C20,15.6,19.6,16,19,16z"/></g></svg>