<?xml version="1.0" encoding="iso-8859-1"?><!-- Generator: Adobe Illustrator 21.1.0, SVG Export Plug-In . SVG Version: 6.00 Build 0)  --><svg xmlns="http://www.w3.org/2000/svg" xmlns:xlink="http://www.w3.org/1999/xlink" viewBox="0 0 50 50" width="500px" height="500px"><path d="M15,41H6c-1.654,0-3-1.346-3-3v-9c0-2.029,0.253-2.907,0.497-3.756C3.745,24.386,4,23.498,4,21c0-2.549-0.267-4.01-0.525-5.424C3.23,14.241,3,12.979,3,11V3c0-1.654,1.346-3,3-3h9c1.654,0,3,1.346,3,3v8c0,1.979-0.23,3.241-0.475,4.576C17.267,16.99,17,18.451,17,21c0,2.498,0.255,3.386,0.503,4.244C17.747,26.093,18,26.971,18,29v9C18,39.654,16.654,41,15,41z"/><path d="M43,0H23c-1.654,0-3,1.346-3,3v35c0,1.654,1.346,3,3,3h20c2.229,0,6-4.423,6-21C49,1.442,44.407,0,43,0z M30,32c0,0.553-0.447,1-1,1h-2c-0.553,0-1-0.447-1-1v-2c0-0.553,0.447-1,1-1h2c0.553,0,1,0.447,1,1V32z M30,26c0,0.553-0.447,1-1,1h-2c-0.553,0-1-0.447-1-1v-2c0-0.553,0.447-1,1-1h2c0.553,0,1,0.447,1,1V26z M30,20c0,0.553-0.447,1-1,1h-2c-0.553,0-1-0.447-1-1v-2c0-0.553,0.447-1,1-1h2c0.553,0,1,0.447,1,1V20z M36,32c0,0.553-0.447,1-1,1h-2c-0.553,0-1-0.447-1-1v-2c0-0.553,0.447-1,1-1h2c0.553,0,1,0.447,1,1V32z M36,26c0,0.553-0.447,1-1,1h-2c-0.553,0-1-0.447-1-1v-2c0-0.553,0.447-1,1-1h2c0.553,0,1,0.447,1,1V26z M36,20c0,0.553-0.447,1-1,1h-2c-0.553,0-1-0.447-1-1v-2c0-0.553,0.447-1,1-1h2c0.553,0,1,0.447,1,1V20z M42,32c0,0.553-0.447,1-1,1h-2c-0.553,0-1-0.447-1-1v-2c0-0.553,0.447-1,1-1h2c0.553,0,1,0.447,1,1V32z M42,26c0,0.553-0.447,1-1,1h-2c-0.553,0-1-0.447-1-1v-2c0-0.553,0.447-1,1-1h2c0.553,0,1,0.447,1,1V26z M42,20c0,0.553-0.447,1-1,1h-2c-0.553,0-1-0.447-1-1v-2c0-0.553,0.447-1,1-1h2c0.553,0,1,0.447,1,1V20z M42,12c0,0.552-0.447,1-1,1H27c-0.553,0-1-0.448-1-1V6c0-0.552,0.447-1,1-1h14c0.553,0,1,0.448,1,1V12z"/><path d="M25.908,43.013C25.424,45.84,22.963,48,20,48h-1c-2.963,0-5.424-2.16-5.908-4.987h-2.021C11.572,46.946,14.933,50,19,50h1c4.067,0,7.428-3.054,7.929-6.987H25.908z"/></svg>