<?xml version="1.0" encoding="iso-8859-1"?><!-- Generator: Adobe Illustrator 23.0.3, SVG Export Plug-In . SVG Version: 6.00 Build 0)  --><svg xmlns="http://www.w3.org/2000/svg" xmlns:xlink="http://www.w3.org/1999/xlink" viewBox="0 0 50 50" width="500px" height="500px"><path style="fill:none;stroke:#000000;stroke-width:2;stroke-miterlimit:10;" d="M27,32v15h-4V32"/><path style="fill:none;stroke:#000000;stroke-width:2;stroke-linejoin:round;stroke-miterlimit:10;" d="M23,7.003V5c0-1.105,0.895-2,2-2l0,0c1.105,0,2,0.895,2,2v2.003"/><path d="M45,6H5C4.448,6,4,6.447,4,7v25c0,0.553,0.448,1,1,1h40c0.552,0,1-0.447,1-1V7C46,6.447,45.552,6,45,6z M23,28h-3v-3h3V28z M23,23h-3V11h3V23z M30,28h-3v-3h3V28z M30,23h-3V11h3V23z"/></svg>