<?xml version="1.0" encoding="iso-8859-1"?><!-- Generator: Adobe Illustrator 22.1.0, SVG Export Plug-In . SVG Version: 6.00 Build 0)  --><svg xmlns="http://www.w3.org/2000/svg" xmlns:xlink="http://www.w3.org/1999/xlink" viewBox="0 0 50 50" width="500px" height="500px"><path d="M46,33.5c0,8-6.5,14.5-14.5,14.5S17,41.5,17,33.5v-0.19c1.27,0.45,2.62,0.69,4,0.69c2.9,0,5.69-1.05,7.87-2.94c2.42-2.11,3.88-5.03,4.1-8.23c0.07-0.96,0.02-1.91-0.14-2.83c-0.05-0.32-0.11-0.64-0.2-0.95c2.89,0.22,5.55,1.29,7.72,2.97C43.79,24.67,46,28.83,46,33.5z"/><path d="M30.7,24.4L22.62,15L14,22.39l8.09,9.54C21.73,31.98,21.36,32,21,32c-2.79,0-5.57-1.16-7.55-3.44L2,15L17,2l11.55,13.44C30.77,17.99,31.46,21.35,30.7,24.4z"/><path d="M42.99,10.88l-0.61,7.25c-0.05,0.62-0.26,1.21-0.6,1.73l-0.32,0.49c-2.66-2.02-5.96-3.25-9.54-3.34c-0.48-1.03-1.1-2-1.86-2.88L19.64,2H35.7l6.31,6.08C42.74,8.9,43.07,9.87,42.99,10.88z"/></svg>