<?xml version="1.0" encoding="iso-8859-1"?><!-- Generator: Adobe Illustrator 23.0.2, SVG Export Plug-In . SVG Version: 6.00 Build 0)  --><svg xmlns="http://www.w3.org/2000/svg" xmlns:xlink="http://www.w3.org/1999/xlink" viewBox="0 0 50 50" width="500px" height="500px"><path style="fill:none;stroke:#000000;stroke-width:2;stroke-linejoin:round;stroke-miterlimit:10;" d="M9,31c-3.325,0-6,2.673-6,5.995C3,41.005,7.048,45.014,9,47c1.988-2.023,6-5.995,6-10.005C15,33.709,12.325,31,9,31z"/><path style="fill:none;stroke:#000000;stroke-width:2;stroke-linejoin:round;stroke-miterlimit:10;" d="M41,31c-3.325,0-6,2.673-6,5.995c0,4.009,4.048,8.018,6,10.005c1.988-2.023,6-5.995,6-10.005C47,33.709,44.325,31,41,31z"/><path style="fill:none;stroke:#000000;stroke-width:2;stroke-linecap:round;stroke-linejoin:round;stroke-miterlimit:10;" d="M37,12v13H13V12"/><path style="fill:none;stroke:#000000;stroke-width:2;stroke-linecap:round;stroke-miterlimit:10;" d="M22,9c0,1.657,1.343,3,3,3s3-1.343,3-3"/><path style="fill:none;stroke:#000000;stroke-width:2;stroke-linecap:round;stroke-miterlimit:10;" d="M28,9c0,1.657,1.343,3,3,3c1.657,0,3-1.343,3-3"/><path style="fill:none;stroke:#000000;stroke-width:2;stroke-linecap:round;stroke-miterlimit:10;" d="M16,9c0,1.657,1.343,3,3,3s3-1.343,3-3"/><path style="fill:none;stroke:#000000;stroke-width:2;stroke-linecap:round;stroke-linejoin:round;stroke-miterlimit:10;" d="M34,9c0,1.657,1.343,3,3,3s3-1.343,3-3l-3-4V3H13v2l-3,4c0,1.657,1.343,3,3,3s3-1.343,3-3"/><circle cx="30" cy="29" r="1"/><circle cx="32" cy="32" r="1"/><circle cx="20" cy="29" r="1"/><circle cx="18" cy="32" r="1"/></svg>