<?xml version="1.0" encoding="iso-8859-1"?><!-- Generator: Adobe Illustrator 21.1.0, SVG Export Plug-In . SVG Version: 6.00 Build 0)  --><svg xmlns="http://www.w3.org/2000/svg" xmlns:xlink="http://www.w3.org/1999/xlink" viewBox="0 0 50 50" width="500px" height="500px"><polyline style="fill:none;stroke:#000000;stroke-width:2;stroke-linecap:round;stroke-miterlimit:10;" points="44,4 44,13 35,13 "/><path style="fill:none;stroke:#000000;stroke-width:2;stroke-linecap:round;stroke-miterlimit:10;" d="M43.442,13C39.516,6.979,32.723,3,25,3C12.85,3,3,12.85,3,25s9.85,22,22,22s22-9.85,22-22"/><path d="M26,36h-2c-0.552,0-1-0.448-1-1v-2c0-0.552,0.448-1,1-1h2c0.552,0,1,0.448,1,1v2C27,35.552,26.552,36,26,36z"/><path d="M26,28h-2c-0.552,0-1-0.448-1-1V14c0-0.552,0.448-1,1-1h2c0.552,0,1,0.448,1,1v13C27,27.552,26.552,28,26,28z"/></svg>