<?xml version="1.0" encoding="iso-8859-1"?><!-- Generator: Adobe Illustrator 22.1.0, SVG Export Plug-In . SVG Version: 6.00 Build 0)  --><svg xmlns="http://www.w3.org/2000/svg" xmlns:xlink="http://www.w3.org/1999/xlink" viewBox="0 0 50 50" width="500px" height="500px"><path d="M45.154,6H4.846C3.276,6,2,7.276,2,8.846V18h46V8.846C48,7.276,46.724,6,45.154,6z M8,14c-1.104,0-2-0.896-2-2c0-1.105,0.896-2,2-2s2,0.895,2,2C10,13.104,9.104,14,8,14z M14,14c-1.104,0-2-0.896-2-2c0-1.105,0.896-2,2-2s2,0.895,2,2C16,13.104,15.104,14,14,14z M43,14H19v-4h24V14z"/><path d="M2,20v23c0,0.553,0.447,1,1,1h44c0.553,0,1-0.447,1-1V20H2z M20,38H8v-0.778c0.172-2.958,3.905-2.527,4.459-4.061c0.046-0.525,0.029-0.891,0.029-1.37c-0.231-0.124-0.867-0.92-0.937-1.591c-0.181-0.016-0.466-0.198-0.55-0.918c-0.045-0.387,0.134-0.604,0.243-0.673C11.103,28.052,10.997,27.508,11,27c0.002-0.307,0.032-0.6,0.093-0.875C11.37,24.87,12.28,24,13.971,24c0.698,0,1.236,0.192,1.446,0.572c0.936,0.134,1.351,0.775,1.506,1.552C16.979,26.405,17,26.702,17,27c0,0.649-0.132,1.265-0.243,1.609c0.109,0.068,0.288,0.286,0.243,0.673c-0.083,0.72-0.369,0.902-0.55,0.918c-0.07,0.671-0.689,1.466-0.92,1.591c0,0.479-0.017,0.845,0.029,1.37c0.554,1.534,4.271,1.103,4.442,4.061V38z M39,38H26v-2h13V38z M42,33H26v-2h16V33z M42,28H26v-2h16V28z"/></svg>