<?xml version="1.0" encoding="utf-8"?><!-- Generator: Adobe Illustrator 18.1.1, SVG Export Plug-In . SVG Version: 6.00 Build 0)  --><svg xmlns="http://www.w3.org/2000/svg" xmlns:xlink="http://www.w3.org/1999/xlink" viewBox="0 0 50 50" width="500px" height="500px"><line fill="none" stroke="#000000" stroke-width="2" stroke-linejoin="round" stroke-miterlimit="10" x1="0" y1="45" x2="50" y2="45"/><path fill="none" stroke="#000000" stroke-width="2" stroke-linecap="round" stroke-linejoin="round" stroke-miterlimit="10" d="M48,21c-6.3,0-8.4,8-11.6,8c-1.1,0,0.8-8-0.9-8c-2,0-6,10-11,10c-2.8,0-4.6-3.3-4.6-7.2c0-6.1,3.5-10.8,7-10.8c6.5,0-3.9,22-15,22C5.8,35,2,27.2,2,21.5C2,8.7,9.9,3,13.2,3C17.6,3,18,6.8,18,8.2C18,21.5,2,38.7,2,38.7"/></svg>