<?xml version="1.0" encoding="iso-8859-1"?>
<!-- Generator: Adobe Illustrator 23.0.3, SVG Export Plug-In . SVG Version: 6.00 Build 0)  -->
<svg version="1.1" xmlns="http://www.w3.org/2000/svg" xmlns:xlink="http://www.w3.org/1999/xlink" x="0px" y="0px"
	 viewBox="0 0 50 50" style="enable-background:new 0 0 50 50;" xml:space="preserve">
<g id="Layer_10" style="display:none;">
</g>
<g id="filled">
</g>
<g id="outlined">
</g>
<g id="rounded">
</g>
<g id="two_x5F_tone">
</g>
<g id="sharp">
</g>
<g id="win10">
</g>
<g id="ios_x5F_out">
</g>
<g id="ios_x5F_filled">
	<path d="M30.4,3H7v46h27.96c-2.5-2.32-5.41-6.17-6.5-12H15v-2h13.16c-0.1-0.95-0.16-1.95-0.16-3v-1H15v-2h15.57
		c2.42-0.54,3.71-1.13,4.84-1.69C36.69,26.67,38.03,26,40,26c1.19,0,2.15,0.24,3,0.58V15.6L30.4,3z M35,25H15v-2h20V25z M30,16V5.4
		L40.6,16H30z"/>
	<path d="M40,50l-0.5-0.201c-0.3-0.201-9.5-4.922-9.5-17.781v-0.804l0.8-0.201c2.8-0.603,4.3-1.306,5.5-1.909S38.5,28,40,28
		s2.5,0.502,3.7,1.105s2.7,1.306,5.5,1.909l0.8,0.201v0.804c0,12.457-9.1,17.58-9.5,17.781L40,50z"/>
</g>
<g id="color">
</g>
</svg>