<?xml version="1.0" encoding="iso-8859-1"?><!-- Generator: Adobe Illustrator 22.0.1, SVG Export Plug-In . SVG Version: 6.00 Build 0)  --><svg xmlns="http://www.w3.org/2000/svg" xmlns:xlink="http://www.w3.org/1999/xlink" viewBox="0 0 50 50" width="500px" height="500px"><path d="M21.81,18H22c-0.06,0-0.12,0.01-0.18,0.02C21.81,18.02,21.81,18.01,21.81,18z"/><path d="M28.2,18c0,0-0.01,0.01-0.01,0.02C28.13,18.01,28.07,18,28,18H28.2z"/><path d="M33,10c0,2.9-1.45,4.84-2.62,6.4c-0.43,0.58-0.83,1.11-1.09,1.6h-8.58c-0.25-0.51-0.66-1.04-1.1-1.63C18.45,14.82,17,12.89,17,10c0-4.41,3.59-8,8-8S33,5.59,33,10z"/><path d="M41.215,40.216c-1.161-0.431-2.36-0.876-2.715-1.442v-1.581c0.506-0.56,0.985-1.476,1.227-2.358C40.43,34.541,41,33.829,41,32.5c0-0.69-0.176-1.176-0.387-1.508C40.775,30.387,41,29.426,41,28.75c0-2.133-0.689-4.417-3.286-4.717l-0.323-0.544C37.211,23.186,36.884,23,36.531,23C31.347,23,30,25.971,30,28.75c0,0.676,0.225,1.637,0.387,2.242C30.176,31.324,30,31.81,30,32.5c0,1.328,0.57,2.04,1.272,2.336c0.241,0.881,0.721,1.798,1.227,2.358v1.588c-0.335,0.577-1.329,0.998-2.377,1.442c-2.067,0.875-4.897,2.073-5.121,5.715C25,45.96,25.01,45.979,25.01,46h-0.021c0-0.021,0.01-0.041,0.009-0.062c-0.225-3.661-3.437-4.853-5.783-5.722c-1.161-0.431-2.36-0.876-2.715-1.442v-1.581c0.506-0.56,0.985-1.476,1.227-2.358C18.43,34.541,19,33.829,19,32.5c0-0.69-0.176-1.176-0.387-1.508C18.775,30.387,19,29.426,19,28.75c0-2.133-0.689-4.417-3.286-4.717l-0.323-0.544C15.211,23.186,14.884,23,14.531,23C9.347,23,8,25.971,8,28.75c0,0.676,0.225,1.637,0.387,2.242C8.176,31.324,8,31.81,8,32.5c0,1.328,0.57,2.04,1.272,2.336c0.241,0.881,0.721,1.798,1.227,2.358v1.588c-0.335,0.577-1.329,0.998-2.377,1.442c-2.067,0.875-4.897,2.073-5.121,5.715c-0.017,0.275,0.081,0.546,0.27,0.747C3.46,46.886,3.724,47,4,47h19.25H24h2h0.75H46c0.276,0,0.54-0.114,0.728-0.315c0.189-0.201,0.287-0.472,0.27-0.747C46.773,42.277,43.561,41.085,41.215,40.216z"/><path d="M29,20v1c0,1.38-0.94,2.54-2.21,2.89C26.46,24.55,25.78,25,25,25s-1.46-0.45-1.79-1.11C21.94,23.54,21,22.38,21,21v-1H29z"/></svg>