<?xml version="1.0" encoding="iso-8859-1"?><!-- Generator: Adobe Illustrator 19.2.1, SVG Export Plug-In . SVG Version: 6.00 Build 0)  --><svg xmlns="http://www.w3.org/2000/svg" xmlns:xlink="http://www.w3.org/1999/xlink" viewBox="0 0 50 50" width="500px" height="500px"><path d="M29.707,20.293l-10-10L19.414,10H2v38h28V20.586L29.707,20.293z M8,32h12v2H8V32z M24,40H8v-2h16V40z M24,28H8v-2h16V28z M19,21v-8.586L27.586,21H19z"/><path d="M47.707,12.293C47.707,12.293,47.707,12.293,47.707,12.293l-10-10c0,0,0,0,0,0L37.414,2H20v5.758l10.237,10.336L30.242,18H42v2H32v4h6v2h-6v4h10v2H32v8h16V12.586L47.707,12.293z M37,13V4.414L45.586,13H37z"/></svg>