<?xml version="1.0" encoding="iso-8859-1"?><!-- Generator: Adobe Illustrator 19.1.1, SVG Export Plug-In . SVG Version: 6.00 Build 0)  --><svg xmlns="http://www.w3.org/2000/svg" xmlns:xlink="http://www.w3.org/1999/xlink" viewBox="0 0 50 50" width="500px" height="500px"><path style="fill:none;stroke:#000000;stroke-width:2;stroke-linecap:round;stroke-linejoin:round;stroke-miterlimit:10;" d="M37,17h4.78c3.047,0,4.22,1.829,4.22,4.22C46,26.055,43.109,32,37,32"/><path style="fill:none;stroke:#000000;stroke-width:2;stroke-linecap:round;stroke-linejoin:round;stroke-miterlimit:10;" d="M37,41c0,1.105-0.895,2-2,2H11c-1.105,0-2-0.895-2-2V7h28V41z"/><path style="fill:none;stroke:#000000;stroke-width:2;stroke-linecap:round;stroke-linejoin:round;stroke-miterlimit:10;" d="M23,19.99c2.498,0,2.297,2.193,3.2,4.412c0.989,2.812,2.8,3.144,2.8,5.901c0,3.562-3,4.687-6,4.687s-6-1.125-6-4.687c0-2.757,1.811-3.089,2.8-5.901C20.703,22.182,20.502,19.99,23,19.99z"/><path d="M23,19c0,0-0.358-4.341,3.906-5C27.088,15.129,26.917,19,23,19z"/></svg>