<?xml version="1.0" encoding="iso-8859-1"?><!-- Generator: Adobe Illustrator 23.0.3, SVG Export Plug-In . SVG Version: 6.00 Build 0)  --><svg xmlns="http://www.w3.org/2000/svg" xmlns:xlink="http://www.w3.org/1999/xlink" viewBox="0 0 50 50" width="500px" height="500px"><polyline style="fill:none;stroke:#000000;stroke-width:2;stroke-linejoin:round;stroke-miterlimit:10;" points="14,37 5,37 5,5 33,5 33,9 "/><rect x="17" y="12" style="fill:none;stroke:#000000;stroke-width:2;stroke-linejoin:round;stroke-miterlimit:10;" width="28" height="33"/><line style="fill:none;stroke:#000000;stroke-width:2;stroke-linecap:round;stroke-linejoin:round;stroke-miterlimit:10;" x1="23" y1="20" x2="40" y2="20"/><line style="fill:none;stroke:#000000;stroke-width:2;stroke-linecap:round;stroke-linejoin:round;stroke-miterlimit:10;" x1="23" y1="26" x2="35" y2="26"/><line style="fill:none;stroke:#000000;stroke-width:2;stroke-linecap:round;stroke-linejoin:round;stroke-miterlimit:10;" x1="23" y1="32" x2="40" y2="32"/><line style="fill:none;stroke:#000000;stroke-width:2;stroke-linecap:round;stroke-linejoin:round;stroke-miterlimit:10;" x1="23" y1="38" x2="35" y2="38"/><g><path d="M11,19h3v-2h-3c-0.552,0-1,0.447-1,1S10.448,19,11,19z"/><path d="M11,13h3v-2h-3c-0.552,0-1,0.447-1,1S10.448,13,11,13z"/><path d="M11,25h3v-2h-3c-0.552,0-1,0.447-1,1S10.448,25,11,25z"/><path d="M14,29h-3c-0.552,0-1,0.447-1,1s0.448,1,1,1h3V29z"/></g></svg>