<?xml version="1.0" encoding="iso-8859-1"?><!-- Generator: Adobe Illustrator 23.0.3, SVG Export Plug-In . SVG Version: 6.00 Build 0)  --><svg xmlns="http://www.w3.org/2000/svg" xmlns:xlink="http://www.w3.org/1999/xlink" viewBox="0 0 50 50" width="500px" height="500px"><polygon style="fill:none;stroke:#000000;stroke-width:2;stroke-linecap:round;stroke-linejoin:round;stroke-miterlimit:10;" points="21,5 16,11 29.009,25 42,11 37,5 "/><line style="fill:none;stroke:#000000;stroke-width:2;stroke-linecap:round;stroke-linejoin:round;stroke-miterlimit:10;" x1="17" y1="11" x2="42" y2="11"/><line style="fill:none;stroke:#000000;stroke-width:2;stroke-linecap:round;stroke-linejoin:round;stroke-miterlimit:10;" x1="24" y1="11" x2="21" y2="5"/><line style="fill:none;stroke:#000000;stroke-width:2;stroke-linecap:round;stroke-linejoin:round;stroke-miterlimit:10;" x1="34" y1="11" x2="37" y2="5"/><line style="fill:none;stroke:#000000;stroke-width:2;stroke-linecap:round;stroke-linejoin:round;stroke-miterlimit:10;" x1="34" y1="11" x2="29.009" y2="25"/><line style="fill:none;stroke:#000000;stroke-width:2;stroke-linecap:round;stroke-linejoin:round;stroke-miterlimit:10;" x1="24" y1="11" x2="29.009" y2="25"/><line style="fill:none;stroke:#000000;stroke-width:2;stroke-linecap:round;stroke-linejoin:round;stroke-miterlimit:10;" x1="34" y1="11" x2="29" y2="5"/><line style="fill:none;stroke:#000000;stroke-width:2;stroke-linecap:round;stroke-linejoin:round;stroke-miterlimit:10;" x1="24" y1="11" x2="29" y2="5"/><path style="fill:none;stroke:#000000;stroke-width:2;stroke-linecap:round;stroke-linejoin:round;stroke-miterlimit:10;" d="M2.996,43.989l3.485-2.556c2.069-1.518,4.779-1.847,7.151-0.868l11.696,4.147c1.59,0.564,3.356,0.29,4.7-0.729l15.774-11.951c1.223-0.844,1.563-2.502,0.77-3.759l0,0c-0.816-1.294-2.527-1.681-3.821-0.865l-11.486,7.078"/><path style="fill:none;stroke:#000000;stroke-width:2;stroke-linecap:round;stroke-linejoin:round;stroke-miterlimit:10;" d="M19,35.989c0,0,9.277,2.779,9.927,2.933c0.184,0.044,0.376,0.067,0.573,0.067c1.381,0,2.5-1.119,2.5-2.5c0-0.92-0.498-1.717-1.239-2.148c-0.301-0.175-1.766-0.873-2.294-1.112c-1.444-0.653-6.3-2.658-9.973-4.27c-2.878-1.263-6.145-1.294-9.046-0.085L3,31.559"/></svg>