<?xml version="1.0" encoding="iso-8859-1"?>
<!-- Generator: Adobe Illustrator 22.1.0, SVG Export Plug-In . SVG Version: 6.00 Build 0)  -->
<svg version="1.1" id="Layer_1" xmlns="http://www.w3.org/2000/svg" xmlns:xlink="http://www.w3.org/1999/xlink" x="0px" y="0px"
	 viewBox="0 0 50 50" style="enable-background:new 0 0 50 50;" xml:space="preserve">
<g>
</g>
<path d="M47,5H3C1.346,5,0,6.346,0,8v34c0,1.654,1.346,3,3,3h44c1.654,0,3-1.346,3-3V8C50,6.346,48.654,5,47,5z M48,42
	c0,0.551-0.449,1-1,1H3c-0.551,0-1-0.449-1-1V8c0-0.551,0.449-1,1-1h44c0.551,0,1,0.449,1,1V42z"/>
<path d="M33,25c-0.006,0.552-0.451,1.006-1,1s-1.006-0.448-1-1s0.451-1.006,1-1S33.006,24.448,33,25z"/>
<circle cx="14.986" cy="16.864" r="1"/>
<path d="M4,9v32h42V9H4z M19,23v3.797l-6.576,3.107C12.289,29.968,12.144,30,11.997,30c-0.114,0-0.228-0.02-0.337-0.059
	c-0.25-0.09-0.454-0.274-0.567-0.515L6.096,18.85c-0.235-0.499-0.022-1.095,0.478-1.331l13.594-6.423
	c0.501-0.237,1.096-0.021,1.331,0.477L25.485,20H22C20.346,20,19,21.346,19,23z M43,37c0,0.552-0.448,1-1,1H22c-0.553,0-1-0.447-1-1
	V23c0-0.553,0.447-1,1-1h20c0.552,0,1,0.448,1,1V37z"/>
</svg>