<?xml version="1.0" encoding="iso-8859-1"?><!-- Generator: Adobe Illustrator 21.1.0, SVG Export Plug-In . SVG Version: 6.00 Build 0)  --><svg xmlns="http://www.w3.org/2000/svg" xmlns:xlink="http://www.w3.org/1999/xlink" viewBox="0 0 50 50" width="500px" height="500px"><rect x="33" y="35" width="7" height="7"/><path d="M3,16v29c0,0.55,0.45,1,1,1h42c0.55,0,1-0.45,1-1V16H3z M42,34v9c0,0.55-0.45,1-1,1h-9c-0.55,0-1-0.45-1-1v-9c0-0.55,0.45-1,1-1h9C41.55,33,42,33.45,42,34z M22,22h15c0.55,0,1,0.45,1,1v4.59l1.29-1.3c0.39-0.39,1.03-0.39,1.42,0c0.39,0.39,0.39,1.03,0,1.42l-3,3C37.51,30.9,37.26,31,37,31s-0.51-0.1-0.71-0.29l-3-3c-0.39-0.39-0.39-1.03,0-1.42c0.39-0.39,1.03-0.39,1.42,0l1.29,1.3V24H22c-0.55,0-1-0.45-1-1S21.45,22,22,22z M17,18h1c0.55,0,1,0.45,1,1v1h-2V18z M17,21h2v2h-2V21z M17,24h2v2h-2V24z M17,27h2v1c0,0.55-0.45,1-1,1h-1V27z M14,18h2v2h-2V18z M14,27h2v2h-2V27z M11,18h2v2h-2V18z M11,27h2v2h-2V27z M8,19c0-0.55,0.45-1,1-1h1v2H8V19z M8,21h2v2H8V21z M8,24h2v2H8V24z M8,27h2v2H9c-0.55,0-1-0.45-1-1V27z"/><path d="M45,7h-6V5c0-1.1-0.9-2-2-2h-2c-1.1,0-2,0.9-2,2v3H17V5c0-1.1-0.9-2-2-2h-2c-1.1,0-2,0.9-2,2v2H5C3.9,7,3,7.91,3,9.03V14h44V9.03C47,7.91,46.1,7,45,7z M13,5h2v3v3h-2V8V5z M35,5h2v3v3h-2V8V5z"/></svg>