<?xml version="1.0" encoding="iso-8859-1"?><!-- Generator: Adobe Illustrator 19.1.1, SVG Export Plug-In . SVG Version: 6.00 Build 0)  --><svg xmlns="http://www.w3.org/2000/svg" xmlns:xlink="http://www.w3.org/1999/xlink" viewBox="0 0 50 50" width="500px" height="500px"><line fill="none" stroke="#000000" stroke-width="2" stroke-linecap="round" stroke-linejoin="round" stroke-miterlimit="10" x1="16" y1="46" x2="34" y2="46"/><path d="M45,11h-7v2h7c0.552,0,1,0.449,1,1v21H4V14c0-0.551,0.449-1,1-1h7v-2H5c-1.654,0-3,1.346-3,3v23c0,1.654,1.346,3,3,3h40c1.654,0,3-1.346,3-3V14C48,12.346,46.654,11,45,11z"/><path d="M33.5,3h-17C14.57,3,13,4.57,13,6.5V29c0,0.553,0.448,1,1,1h22c0.553,0,1-0.447,1-1V6.5C37,4.57,35.43,3,33.5,3z M21,28h-3V5h3V28z"/><path d="M37.5,27H35v1H15v-1h-2.5c-0.828,0-1.5,0.672-1.5,1.5s0.672,1.5,1.5,1.5h25c0.828,0,1.5-0.672,1.5-1.5S38.328,27,37.5,27z"/><path d="M18.653,42l-0.639,3.836c-0.048,0.29,0.033,0.586,0.223,0.811S18.706,47,19,47h12c0.294,0,0.573-0.129,0.763-0.354c0.19-0.225,0.272-0.521,0.224-0.811L31.347,42H18.653z"/></svg>