<?xml version="1.0" encoding="iso-8859-1"?><!-- Generator: Adobe Illustrator 21.1.0, SVG Export Plug-In . SVG Version: 6.00 Build 0)  --><svg xmlns="http://www.w3.org/2000/svg" xmlns:xlink="http://www.w3.org/1999/xlink" viewBox="0 0 50 50" width="500px" height="500px"><g><path d="M18,32.637v2.707c0,1.487,3.151,2.625,7,2.625s7-1.138,7-2.625v-2.707c-1.401,1.224-4.201,1.832-7,1.832S19.401,33.86,18,32.637z"/><path d="M18,37.637v2.707c0,1.487,3.151,2.625,7,2.625s7-1.138,7-2.625v-2.707c-1.401,1.224-4.201,1.832-7,1.832S19.401,38.86,18,37.637z"/><path d="M18,42.637v2.707c0,1.487,3.151,2.625,7,2.625s7-1.138,7-2.625v-2.707c-1.401,1.224-4.201,1.832-7,1.832S19.401,43.86,18,42.637z"/><ellipse cx="41" cy="39.969" rx="7" ry="2.625"/><path d="M34,42.637v2.707c0,1.487,3.151,2.625,7,2.625s7-1.138,7-2.625v-2.707c-1.401,1.224-4.201,1.832-7,1.832S35.401,43.86,34,42.637z"/><ellipse cx="9" cy="34.969" rx="7" ry="2.625"/><path d="M2,37.637v2.707c0,1.487,3.151,2.625,7,2.625s7-1.138,7-2.625v-2.707c-1.401,1.224-4.201,1.832-7,1.832S3.401,38.86,2,37.637z"/><path d="M2,42.637v2.707c0,1.487,3.151,2.625,7,2.625s7-1.138,7-2.625v-2.707c-1.401,1.224-4.201,1.832-7,1.832S3.401,43.86,2,42.637z"/><path d="M30.549,28.373c-0.619,0.992-1.711,1.658-2.963,1.658c-0.979,0-1.864-0.403-2.5-1.053c-0.636,0.649-1.521,1.053-2.5,1.053c-1.279,0-2.389-0.698-3-1.726C18.595,28.759,18,29.338,18,29.969c0,1.449,3.134,2.625,7,2.625s7-1.176,7-2.625C32,29.368,31.455,28.816,30.549,28.373z"/><path d="M21.085,15.733v10.798c0,0.828,0.672,1.5,1.5,1.5s1.5-0.672,1.5-1.5v-5.5c0-0.552,0.448-1,1-1c0.552,0,1,0.448,1,1v5.5c0,0.828,0.672,1.5,1.5,1.5s1.5-0.672,1.5-1.5V15.636l6.309-7.14c0.627-0.541,0.698-1.488,0.157-2.116c-0.541-0.627-1.488-0.698-2.116-0.157l-4.415,3.807h-7.928l-4.527-3.903c-0.627-0.541-1.575-0.471-2.116,0.157c-0.541,0.627-0.471,1.575,0.157,2.116L21.085,15.733z"/><circle cx="25.085" cy="5.031" r="3"/></g></svg>