<?xml version="1.0" encoding="utf-8"?><!-- Generator: Adobe Illustrator 20.1.0, SVG Export Plug-In . SVG Version: 6.00 Build 0)  --><svg xmlns="http://www.w3.org/2000/svg" xmlns:xlink="http://www.w3.org/1999/xlink" viewBox="0 0 50 50" width="500px" height="500px"><path d="M22.1,4.5l9.6,1.8l2.2,3.2l0,0L31.7,22H18.9L22.1,4.5 M21.3,2.3c-0.5,0-0.9,0.3-1,0.8L16.9,22h16.8l2.4-12.9c-1.2-1.8-1.9-2.8-3.2-4.6L21.5,2.4C21.4,2.4,21.4,2.3,21.3,2.3L21.3,2.3z"/><path d="M25.1,35h-7c-0.6,0-1-0.4-1-1s0.4-1,1-1h6v-5c0-0.6,0.4-1,1-1s1,0.4,1,1v6C26.1,34.6,25.6,35,25.1,35z"/><line fill="#FFFFFF" stroke="#000000" stroke-width="2" stroke-miterlimit="10" x1="31.1" y1="8.5" x2="23.1" y2="7"/><line fill="#FFFFFF" stroke="#000000" stroke-width="2" stroke-miterlimit="10" x1="32.1" y1="12.8" x2="22.1" y2="11"/><line fill="#FFFFFF" stroke="#000000" stroke-width="2" stroke-miterlimit="10" x1="31.3" y1="16.8" x2="21.3" y2="15"/><path d="M40,21.7c0-0.6-0.2-1.2-0.5-1.7l-1.1-1.7c-0.6-0.9-1.5-1.4-2.6-1.4h-2c-0.1,1.1-0.6,2.2-1.4,3H34c0.6,0,1,0.4,1,1s-0.4,1-1,1H16c-0.6,0-1-0.4-1-1s0.4-1,1-1h2.6c-0.2-0.8,0-1.8-0.1-3h-4.3c-1,0-2,0.5-2.6,1.4L10.5,20c-0.3,0.5-0.5,1.1-0.5,1.7v22.1c0,2.3,1.8,4.1,4.1,4.1h21.8c2.3,0,4.1-1.8,4.1-4.1L40,21.7z M25.1,44c-5.5,0-10-4.5-10-10c0-5.5,4.5-10,10-10s10,4.5,10,10C35.1,39.5,30.6,44,25.1,44z"/></svg>