<?xml version="1.0" encoding="iso-8859-1"?><!-- Generator: Adobe Illustrator 22.1.0, SVG Export Plug-In . SVG Version: 6.00 Build 0)  --><svg xmlns="http://www.w3.org/2000/svg" xmlns:xlink="http://www.w3.org/1999/xlink" viewBox="0 0 50 50" width="500px" height="500px"><g></g><path style="fill:none;stroke:#000000;stroke-width:2;stroke-linecap:round;stroke-miterlimit:10;" d="M5,11v32c0,1.105,0.895,2,2,2h36c1.105,0,2-0.895,2-2V11"/><circle cx="8" cy="8" r="1"/><circle cx="11" cy="8" r="1"/><circle cx="14" cy="8" r="1"/><path style="fill:none;stroke:#000000;stroke-width:2;stroke-miterlimit:10;" d="M5,11V7c0-1.105,0.895-2,2-2h36c1.105,0,2,0.895,2,2v4H5z"/><path d="M31,31.9c0-3.3-2.7-4.2-5.3-4.8c-2.1-0.5-4-1-4-3.1c0-0.9,0.4-2.9,3.4-2.9c2.1,0,3.1,1.3,3.4,2.9h2c-0.6-2.2-1.6-4.2-4.5-4.7V17h-2v2.2c-1.6,0.2-4.5,1.6-4.5,5c0,6.4,9.3,3.1,9.3,7.9c0,1.6-0.7,3.1-3.8,3.1s-4-2.4-4-3.7h-2c0.3,4.3,3.3,5.3,5,5.6V39h2v-1.9C27.5,37,31,35.9,31,31.9z"/></svg>