<?xml version="1.0" encoding="utf-8"?><!-- Generator: Adobe Illustrator 15.0.0, SVG Export Plug-In . SVG Version: 6.00 Build 0)  --><!DOCTYPE svg PUBLIC "-//W3C//DTD SVG 1.1//EN" "http://www.w3.org/Graphics/SVG/1.1/DTD/svg11.dtd"><svg xmlns="http://www.w3.org/2000/svg" xmlns:xlink="http://www.w3.org/1999/xlink" viewBox="0 0 50 50" width="500px" height="500px"><path d="M49.998,27.94c-0.213-3.559-2.604-4.69-4.351-5.516c-0.907-0.43-1.698-0.804-1.984-1.381c-0.043-0.561-0.039-1.014-0.035-1.531l0.001-0.079c0.499-0.583,0.922-1.529,1.121-2.391c0.44-0.302,0.903-0.906,1.05-2.113c0.072-0.611-0.069-1.11-0.296-1.481c0.343-1.254,0.885-3.985-0.256-5.822c-0.502-0.808-1.272-1.349-2.244-1.581C42.382,5.368,41.318,5,39.932,5h-0.001c-2.146,0.04-3.729,0.711-4.705,1.996c-1.11,1.463-1.349,3.622-0.709,6.421c-0.238,0.375-0.391,0.886-0.316,1.516c0.146,1.21,0.612,1.814,1.054,2.115c0.205,0.851,0.641,1.804,1.146,2.388l0.001,0.078c0.004,0.515,0.008,0.966-0.034,1.525c-0.136,0.25-0.42,0.472-0.816,0.688c-0.937-2.547-3.125-3.555-4.78-4.317c-0.978-0.451-1.831-0.844-2.107-1.369c-0.043-0.56-0.039-1.011-0.035-1.527l0.001-0.079c0.499-0.583,0.922-1.529,1.121-2.391c0.44-0.302,0.903-0.906,1.05-2.113c0.072-0.611-0.069-1.11-0.296-1.481c0.343-1.254,0.885-3.985-0.256-5.822c-0.502-0.808-1.272-1.349-2.244-1.581c-0.489-0.534-1.394-1.03-3.073-1.03c-2.149,0.04-3.733,0.71-4.708,1.995c-1.107,1.459-1.344,3.612-0.707,6.406c-0.238,0.375-0.391,0.886-0.315,1.515c0.145,1.21,0.611,1.814,1.053,2.115c0.205,0.851,0.641,1.803,1.146,2.388l0,0.084c0.004,0.514,0.009,0.963-0.035,1.521c-0.277,0.525-1.133,0.918-2.116,1.369c-1.662,0.762-3.858,1.77-4.798,4.318c-0.397-0.216-0.682-0.439-0.817-0.689c-0.044-0.563-0.04-1.017-0.036-1.535v-0.068c0.506-0.585,0.942-1.539,1.146-2.39c0.441-0.302,0.907-0.906,1.053-2.115c0.075-0.629-0.078-1.14-0.316-1.515c0.639-2.799,0.401-4.958-0.709-6.421C13.798,5.711,12.215,5.04,10.051,5C8.679,5,7.617,5.368,6.996,6.046C6.024,6.278,5.253,6.819,4.751,7.627c-1.141,1.837-0.599,4.568-0.255,5.822c-0.226,0.372-0.368,0.872-0.295,1.483c0.145,1.208,0.608,1.811,1.049,2.113c0.2,0.861,0.623,1.807,1.121,2.389l0,0.081c0.004,0.517,0.008,0.969-0.035,1.53c-0.286,0.577-1.077,0.951-1.984,1.38C2.606,23.25,0.215,24.382,0,28v11c0,0.066,0.007,0.134,0.02,0.198c0.06,0.296,1.527,6.816,11.504,10.093c0,0,0.165,0.141,1.458,0.296c-0.005-0.442-0.005-1.177,0.033-1.904c0.375-3.652,3.318-4.844,5.482-5.721c1.177-0.478,2.292-0.929,2.624-1.578c0.049-0.62,0.044-1.117,0.04-1.685l0-0.114c-0.557-0.628-1.04-1.687-1.258-2.623c-0.471-0.31-0.977-0.947-1.134-2.257c-0.082-0.678,0.089-1.225,0.349-1.62c-0.7-3.036-0.449-5.372,0.748-6.949c1.044-1.375,2.743-2.095,5.049-2.137c0,0,0.001,0,0.001,0c1.495,0,2.636,0.397,3.292,1.128c1.047,0.243,1.876,0.821,2.414,1.687c1.235,1.987,0.628,4.968,0.258,6.303c0.249,0.393,0.408,0.929,0.329,1.589c-0.158,1.308-0.664,1.945-1.134,2.255c-0.215,0.937-0.686,1.991-1.229,2.617l-0.001,0.121c-0.005,0.568-0.01,1.064,0.039,1.685c0.334,0.65,1.444,1.103,2.615,1.578c2.168,0.882,5.118,2.082,5.468,5.72c0.044,0.534,0.033,1.54,0.025,1.978c0.94-0.107,0.999-0.198,0.999-0.198c10.434-3.218,11.927-9.96,11.988-10.261C49.993,39.134,50,39.066,50,39L49.998,27.94z"/></svg>