<?xml version="1.0" encoding="iso-8859-1"?><!-- Generator: Adobe Illustrator 21.0.2, SVG Export Plug-In . SVG Version: 6.00 Build 0)  --><svg xmlns="http://www.w3.org/2000/svg" xmlns:xlink="http://www.w3.org/1999/xlink" viewBox="0 0 50 50" width="500px" height="500px"><g></g><path style="fill:none;stroke:#000000;stroke-width:2;stroke-linecap:round;stroke-linejoin:round;stroke-miterlimit:10;" d="M41,4H9C6.8,4,5,5.8,5,8v26c0,2.2,1.8,4,4,4h5c0,3,0,6.2-3,8c4.1,0,8-2,10-8h20c2.2,0,4-1.8,4-4V8C45,5.8,43.2,4,41,4z"/><polygon points="18,11.143 18,13.184 17.184,14 15.143,14 13,10.429 14.429,9 "/><rect x="18.034" y="11.097" transform="matrix(0.7071 -0.7071 0.7071 0.7071 -5.0557 17.8626)" width="2" height="7.874"/><path d="M36.41,12.418l-4.496,4.496l-2.828-2.828l4.496-4.496C32.799,9.216,31.926,9,31,9c-3.314,0-6,2.686-6,6c0,0.734,0.138,1.435,0.38,2.085L13.732,28.732c-0.116,0.116-0.22,0.244-0.311,0.381c-0.041,0.062-0.07,0.129-0.105,0.194c-0.043,0.078-0.09,0.153-0.125,0.236c-0.034,0.083-0.054,0.169-0.079,0.254c-0.021,0.071-0.049,0.139-0.063,0.213c-0.064,0.323-0.064,0.656,0,0.979c0.015,0.073,0.042,0.141,0.063,0.212c0.025,0.085,0.045,0.172,0.079,0.254c0.034,0.083,0.081,0.157,0.124,0.235c0.035,0.065,0.064,0.132,0.106,0.195c0.183,0.274,0.419,0.51,0.693,0.693c0.062,0.041,0.129,0.07,0.194,0.105c0.078,0.043,0.153,0.09,0.236,0.125c0.083,0.034,0.169,0.054,0.254,0.079c0.071,0.021,0.139,0.049,0.213,0.063c0.323,0.064,0.656,0.064,0.979,0c0.074-0.015,0.142-0.042,0.213-0.063c0.085-0.025,0.171-0.045,0.254-0.079c0.083-0.034,0.158-0.082,0.236-0.125c0.065-0.035,0.132-0.064,0.194-0.105c0.137-0.092,0.265-0.195,0.381-0.311L28.915,20.62C29.565,20.862,30.266,21,31,21c3.314,0,6-2.686,6-6C37,14.074,36.784,13.201,36.41,12.418z"/><path d="M36.809,31.456c0.034-0.083,0.054-0.169,0.079-0.254c0.021-0.071,0.048-0.139,0.063-0.212c0.064-0.323,0.064-0.656,0-0.979c-0.015-0.074-0.042-0.142-0.063-0.213c-0.025-0.085-0.045-0.171-0.079-0.254c-0.034-0.083-0.082-0.158-0.125-0.236c-0.035-0.065-0.064-0.132-0.105-0.194c-0.092-0.137-0.195-0.265-0.311-0.381l-6.318-6.318l-3.536,3.536l6.318,6.318c0.116,0.116,0.244,0.22,0.381,0.311c0.062,0.041,0.129,0.07,0.194,0.105c0.078,0.043,0.153,0.09,0.236,0.125c0.083,0.034,0.169,0.054,0.254,0.079c0.071,0.021,0.139,0.049,0.213,0.063c0.323,0.064,0.656,0.064,0.979,0c0.074-0.015,0.142-0.042,0.213-0.063c0.085-0.025,0.171-0.045,0.254-0.079c0.083-0.034,0.158-0.082,0.236-0.125c0.065-0.035,0.132-0.064,0.194-0.105c0.274-0.183,0.51-0.419,0.693-0.693c0.042-0.062,0.07-0.13,0.106-0.195C36.727,31.614,36.774,31.539,36.809,31.456z"/></svg>