<?xml version="1.0" encoding="utf-8"?><!-- Generator: Adobe Illustrator 19.2.0, SVG Export Plug-In . SVG Version: 6.00 Build 0)  --><svg xmlns="http://www.w3.org/2000/svg" xmlns:xlink="http://www.w3.org/1999/xlink" viewBox="0 0 50 50" width="500px" height="500px"><style type="text/css">.st0{fill:none;stroke:#000000;stroke-width:2;stroke-linejoin:round;stroke-miterlimit:10;}.st1{fill:none;stroke:#000000;stroke-width:2;stroke-linecap:round;stroke-linejoin:round;stroke-miterlimit:10;}.st2{fill:none;stroke:#000000;stroke-width:2;stroke-miterlimit:10;}.st3{fill:none;stroke:#000000;stroke-width:1.9974;stroke-miterlimit:10;}</style><g><line class="st0" x1="25" y1="21" x2="25" y2="23"/><line class="st0" x1="25" y1="24" x2="25" y2="27"/><line class="st0" x1="25" y1="29" x2="25" y2="35"/><line class="st0" x1="25" y1="37" x2="25" y2="40"/><line class="st0" x1="25" y1="41" x2="25" y2="45"/></g><path class="st1" d="M38,33.5v-4.3c0-1.6-0.6-3.1-1.8-4.2L21.9,10.7c0.2-1.2-0.2-2.5-1.1-3.4c-0.4-0.4-1.6-1.6-2-2c-1.6-1.6-4.1-1.6-5.7,0s-1.6,4.1,0,5.7c0.4,0.4,1.6,1.6,2,2c0.9,0.9,2.2,1.3,3.4,1.1L38,33.5z"/><path class="st2" d="M28.2,23.8c-1-0.5-2.1-0.8-3.2-0.8c-4.4,0-8,4-8,9s3.6,9,8,9s8-4,8-9c0-1.7-0.4-3.3-1.1-4.6L28.2,23.8z"/><path class="st3" d="M31.2,20l5,5c1.2,1.1,1.8,2.6,1.8,4.2v1.9c0,0.9-1.1,1.3-1.7,0.7L24.4,20H4v24h42V20H31.2z"/><circle cx="25" cy="17.1" r="1.1"/><path d="M18.6,10.7c0.6-0.6,0.6-1.5,0-2.1c-0.2-0.2-0.8-0.8-1-1C17,7,16.1,7,15.5,7.6s-0.6,1.5,0,2.1c0.2,0.2,0.8,0.8,1,1C17,11.2,18,11.2,18.6,10.7z"/><path d="M31.4,10.7c0.6,0.6,1.5,0.6,2.1,0c0.2-0.2,0.8-0.8,1-1c0.6-0.6,0.6-1.5,0-2.1S33,7,32.4,7.6c-0.2,0.2-0.8,0.8-1,1C30.9,9.1,30.9,10.1,31.4,10.7z"/><path class="st0" d="M28.5,17l3-3c1.2,0.2,2.5-0.2,3.4-1.1c0.4-0.4,1.6-1.6,2-2c1.6-1.6,1.6-4.1,0-5.7s-4.1-1.6-5.7,0c-0.4,0.4-1.6,1.6-2,2c-0.9,0.9-1.3,2.2-1.1,3.4l-3,3"/><g ></g><path class="st2" d="M39.4,44c2.5,0,2.6-2.6,3.3-3.3c0.7-0.7,3.3-0.9,3.3-2.5"/><path class="st2" d="M10.6,44c-2.5,0-2.6-2.6-3.3-3.3C6.6,40.1,4,39.9,4,38.3"/><path class="st2" d="M46,25.7c0-1.6-2.6-1.8-3.3-2.5C42,22.6,41.9,20,39.4,20"/><path class="st2" d="M4,25.7c0-1.6,2.6-1.8,3.3-2.5C8,22.6,8.1,20,10.6,20"/><path class="st2" d="M46,25.7c0-1.6-2.6-1.8-3.3-2.5C42,22.6,41.9,20,39.4,20"/><path class="st2" d="M4,25.7c0-1.6,2.6-1.8,3.3-2.5C8,22.6,8.1,20,10.6,20"/></svg>