<?xml version="1.0" encoding="iso-8859-1"?>
<!-- Generator: Adobe Illustrator 24.1.2, SVG Export Plug-In . SVG Version: 6.00 Build 0)  -->
<svg version="1.1" xmlns="http://www.w3.org/2000/svg" xmlns:xlink="http://www.w3.org/1999/xlink" x="0px" y="0px"
	 viewBox="0 0 50 50" style="enable-background:new 0 0 50 50;" xml:space="preserve">
<g id="Layer_10" style="display:none;">
	<g style="opacity:0.05;">
		<g style="display:inline;">
			<circle style="fill:#FFFFFF;" cx="25" cy="25" r="21.5"/>
			<path d="M25,4c11.579,0,21,9.421,21,21s-9.421,21-21,21S4,36.579,4,25S13.421,4,25,4 M25,3C12.85,3,3,12.85,3,25s9.85,22,22,22
				s22-9.85,22-22S37.15,3,25,3L25,3z"/>
		</g>
		<g style="display:inline;">
			<rect x="5.5" y="5.5" style="fill:#FFFFFF;" width="39" height="39"/>
			<path d="M44,6v38H6V6H44 M45,5H5v40h40V5L45,5z"/>
		</g>
	</g>
</g>
<g id="filled">
</g>
<g id="outlined">
</g>
<g id="rounded">
</g>
<g id="two_x5F_tone">
</g>
<g id="sharp">
</g>
<g id="win10">
</g>
<g id="ios_x5F_out">
</g>
<g id="ios_x5F_filled">
	<path d="M44.53,2.15c-0.3-0.18-0.67-0.2-0.98-0.04L42,2.88l-1.55-0.77c-0.28-0.15-0.62-0.15-0.9,0L38,2.88l-1.55-0.77
		c-0.28-0.15-0.62-0.15-0.9,0L34,2.88l-1.55-0.77c-0.28-0.15-0.62-0.15-0.9,0L30,2.88l-1.55-0.77c-0.28-0.15-0.62-0.15-0.9,0
		L26,2.88l-1.55-0.77c-0.28-0.15-0.62-0.15-0.9,0L22,2.88l-1.55-0.77c-0.28-0.15-0.62-0.15-0.9,0L18,2.88l-1.55-0.77
		c-0.31-0.16-0.68-0.14-0.98,0.04C15.18,2.33,15,2.65,15,3v10.04c3.16,0.25,5.98,1.73,7.97,3.96H27c0.55,0,1,0.45,1,1s-0.45,1-1,1
		h-2.57c0.7,1.21,1.2,2.56,1.44,4H31c0.55,0,1,0.45,1,1s-0.45,1-1,1h-4.96c0,1.4-0.24,2.75-0.68,4H27c0.55,0,1,0.45,1,1s-0.45,1-1,1
		h-2.57c-1.93,3.32-5.4,5.64-9.43,5.96V46c0,0.38,0.21,0.73,0.55,0.89l2,1c0.28,0.15,0.62,0.15,0.9,0L20,47.12l1.55,0.77
		c0.28,0.15,0.62,0.15,0.9,0L24,47.12l1.55,0.77c0.28,0.15,0.62,0.15,0.9,0L28,47.12l1.55,0.77c0.28,0.15,0.62,0.15,0.9,0L32,47.12
		l1.55,0.77c0.28,0.15,0.62,0.15,0.9,0L36,47.12l1.55,0.77c0.28,0.15,0.62,0.15,0.9,0L40,47.12l1.55,0.77
		C41.69,47.96,41.85,48,42,48s0.31-0.04,0.45-0.11l2-1C44.79,46.73,45,46.38,45,46V3C45,2.65,44.82,2.33,44.53,2.15z M21,41
		c-0.55,0-1-0.45-1-1s0.45-1,1-1s1,0.45,1,1S21.55,41,21,41z M24,41c-0.55,0-1-0.45-1-1s0.45-1,1-1s1,0.45,1,1S24.55,41,24,41z
		 M27,41c-0.55,0-1-0.45-1-1s0.45-1,1-1s1,0.45,1,1S27.55,41,27,41z M30,41c-0.55,0-1-0.45-1-1s0.45-1,1-1s1,0.45,1,1
		S30.55,41,30,41z M31,13H21c-0.55,0-1-0.45-1-1s0.45-1,1-1h10c0.55,0,1,0.45,1,1S31.55,13,31,13z M33,41c-0.55,0-1-0.45-1-1
		s0.45-1,1-1s1,0.45,1,1S33.55,41,33,41z M36,41c-0.55,0-1-0.45-1-1s0.45-1,1-1s1,0.45,1,1S36.55,41,36,41z M39,41
		c-0.55,0-1-0.45-1-1s0.45-1,1-1s1,0.45,1,1S39.55,41,39,41z M39,31h-2c-0.55,0-1-0.45-1-1s0.45-1,1-1h2c0.55,0,1,0.45,1,1
		S39.55,31,39,31z M39,25h-2c-0.55,0-1-0.45-1-1s0.45-1,1-1h2c0.55,0,1,0.45,1,1S39.55,25,39,25z M39,19h-2c-0.55,0-1-0.45-1-1
		s0.45-1,1-1h2c0.55,0,1,0.45,1,1S39.55,19,39,19z M39,13h-2c-0.55,0-1-0.45-1-1s0.45-1,1-1h2c0.55,0,1,0.45,1,1S39.55,13,39,13z"/>
	<g>
		<path d="M14.04,15c-5.52,0-10,4.48-10,10s4.48,10,10,10c5.52,0,10-4.48,10-10S19.56,15,14.04,15z M15,30.76V32h-1.96v-1.27
			c-1.94-0.37-2.92-1.57-2.98-3.67L10.05,27h1.86v0.06c-0.02,0.67,0.16,1.18,0.51,1.54c0.61,0.61,1.58,0.62,1.62,0.62
			c1.87,0,2.15-0.98,2.15-1.56c0-0.98-0.82-1.21-2.27-1.53c-1.61-0.36-3.61-0.81-3.61-3.28c0-0.28,0.08-2.64,2.73-3.08V18H15v1.77
			c0.73,0.14,1.41,0.48,1.9,1.01c0.55,0.61,0.87,1.44,0.87,2.22h-1.86c-0.05-0.79-0.42-1.66-1.84-1.66c-1.3,0-1.91,0.51-1.91,1.6
			c0,0.92,0.82,1.15,2.27,1.48c1.61,0.37,3.61,0.83,3.61,3.22C18.04,28.1,17.85,30.3,15,30.76z"/>
	</g>
</g>
<g id="color">
</g>
<g id="cute_x5F_color">
</g>
<g id="cute_x5F_out">
</g>
</svg>