<?xml version="1.0" encoding="iso-8859-1"?><!-- Generator: Adobe Illustrator 21.1.0, SVG Export Plug-In . SVG Version: 6.00 Build 0)  --><svg xmlns="http://www.w3.org/2000/svg" xmlns:xlink="http://www.w3.org/1999/xlink" viewBox="0 0 50 50" width="500px" height="500px"><path d="M30.73,24h17.24c-0.3-7.22-3.95-13.58-9.43-17.58l-6.47,9.77c-0.32-0.63-0.72-1.23-1.22-1.76l6.04-9.12C33.42,3.21,29.35,2,25,2C12.32,2,2,12.32,2,25s10.32,23,23,23c3.02,0,5.91-0.59,8.55-1.66l-4.22-9.28c0.61-0.26,1.19-0.6,1.73-1.02l4.31,9.48c7.21-3.65,12.24-10.99,12.6-19.52H32.89C32.32,25.15,31.56,24.5,30.73,24z M26,35.94V39h-2v-3.05c-4.72-0.44-6-4.01-6-5.95h1l1-0.01C20,30.4,20.19,34,25,34c0.2,0,5-0.07,5-4c0-2.57-1.98-3.14-5.22-3.86c-3.02-0.67-6.78-1.5-6.78-5.81c0-0.14,0.01-2.61,1.82-4.44c1.04-1.06,2.45-1.67,4.18-1.84V11h2v3.07c3.87,0.52,4.98,4,5,5.92l-2,0.02C28.99,19.6,28.81,16,25,16c-2.09,0-3.56,0.7-4.36,2.09C20.01,19.18,20,20.32,20,20.33c0,2.57,1.98,3.14,5.22,3.86C28.24,24.86,32,25.7,32,30C32,34.15,28.5,35.63,26,35.94z"/><path style="fill:#FFFFFF;" d="M30.73,24h-0.06l-0.02-0.05C30.68,23.96,30.71,23.98,30.73,24z"/></svg>