<?xml version="1.0" encoding="utf-8"?><!-- Generator: Adobe Illustrator 18.1.1, SVG Export Plug-In . SVG Version: 6.00 Build 0)  --><svg xmlns="http://www.w3.org/2000/svg" xmlns:xlink="http://www.w3.org/1999/xlink" viewBox="0 0 50 50" width="500px" height="500px"><path fill="none" stroke="#000000" stroke-width="2" stroke-linecap="round" stroke-linejoin="round" stroke-miterlimit="10" d="M29.4,30.7c-0.1-1.5-0.1-2.5-0.1-3.8c0.7-0.3,1.8-2.6,2-4.4c0.5,0,1.3-0.6,1.6-2.6c0.1-1.1-0.3-1.8-0.7-1.9c1.6-2,1.3-10.2-4.6-10.2L26.8,6c-8.4,0-11.5,6.5-9.1,12c-0.3,0.2-0.8,0.8-0.7,1.9c0.2,2,1.1,2.5,1.6,2.6c0.2,1.9,1.4,4.1,2.1,4.4c0,1.3,0,2.4-0.1,3.8C19,34.9,8.4,33.7,7.9,42h34.2C41.6,33.7,31,34.9,29.4,30.7z"/><path fill="none" stroke="#000000" stroke-width="2" stroke-linecap="round" stroke-linejoin="round" stroke-miterlimit="10" d="M17.1,12.5c-0.3-0.1-0.7-0.1-1-0.1L15.4,11c-6.4,0-8.8,5-6.9,9.3c-0.2,0.1-0.6,0.6-0.5,1.5c0.2,1.6,0.8,2,1.2,2c0.2,1.5,1.1,3.2,1.6,3.5c0,1,0,1.8-0.1,3c-1.2,3.3-9.3,2.4-9.7,8.8H8"/><path fill="none" stroke="#000000" stroke-width="2" stroke-linecap="round" stroke-linejoin="round" stroke-miterlimit="10" d="M42,39h7c-0.4-6.4-8.4-5.5-9.6-8.8c-0.1-1.1-0.1-1.9-0.1-3c0.5-0.3,1.4-2,1.5-3.4c0.4,0,1-0.4,1.2-2c0.1-0.8-0.2-1.4-0.5-1.5c1.2-1.6,1-7.9-3.5-7.9L37.4,11c-1.6,0-3.3,0.2-4.7,0.8"/></svg>