<?xml version="1.0" encoding="iso-8859-1"?><!-- Generator: Adobe Illustrator 19.1.1, SVG Export Plug-In . SVG Version: 6.00 Build 0)  --><svg xmlns="http://www.w3.org/2000/svg" xmlns:xlink="http://www.w3.org/1999/xlink" viewBox="0 0 50 50" width="500px" height="500px"><g><path d="M32.21,23.3c-0.145,0-0.538,0.051-0.973,0.507v3.831c0.207,0.103,0.435,0.155,0.694,0.155c0.373,0,0.694-0.208,0.901-0.601c0.239-0.414,0.352-1.025,0.351-1.811C33.183,24.004,32.862,23.3,32.21,23.3z"/><path d="M40.226,23.081c-0.59,0-0.901,0.539-0.973,1.688h1.894C41.106,23.63,40.806,23.081,40.226,23.081z"/><path d="M45,7H5c-2.757,0-5,2.243-5,5v26c0,2.757,2.243,5,5,5h40c2.757,0,5-2.243,5-5V12C50,9.243,47.757,7,45,7z M12.219,29.075c-0.517,0.415-1.284,0.632-2.205,0.632c-1.159,0-2.277-0.352-2.878-0.694l0.311-1.936c0.704,0.414,1.781,0.735,2.433,0.735c0.528,0,0.818-0.196,0.818-0.538c0-0.352-0.3-0.58-1.201-0.901c-1.398-0.507-2.257-1.108-2.257-2.516c0-0.777,0.28-1.419,0.818-1.864c0.518-0.424,1.242-0.652,2.112-0.652c1.232,0,2.122,0.342,2.557,0.549l-0.311,1.915c-0.548-0.269-1.345-0.569-2.122-0.569c-0.425,0-0.663,0.166-0.663,0.456c0,0.342,0.414,0.559,1.17,0.839c1.418,0.507,2.298,1.108,2.298,2.546C13.099,27.946,12.799,28.619,12.219,29.075z M17.552,27.617c0.238,0,0.59-0.073,0.745-0.114v2.019c-0.28,0.072-0.683,0.186-1.346,0.186c-0.86,0-1.47-0.165-1.895-0.507c-0.508-0.414-0.756-1.087-0.756-2.06v-3.738h-1.061l0.29-1.779l0.775-0.126l0.318-1.95l2.205-0.363v2.313h1.64l-0.311,1.905c0,0-1.329,0-1.329,0v3.365C16.827,27.358,17.045,27.617,17.552,27.617z M23.887,23.818c-0.176-0.031-0.321-0.031-0.456-0.031c-0.621,0-1.077,0.143-1.398,0.536v5.229h-2.568v-8.055h2.247l0.155,0.953c0.227-0.684,0.807-1.064,1.532-1.064c0.155,0,0.311,0.021,0.488,0.061V23.818z M27.468,29.552H24.89v-8.055h2.578V29.552z M26.184,20.7c-0.756,0-1.356-0.611-1.356-1.356c0-0.755,0.6-1.356,1.356-1.356c0.745,0,1.346,0.6,1.346,1.356C27.53,20.089,26.929,20.7,26.184,20.7z M34.697,28.754c-0.725,0.787-1.657,0.953-2.299,0.953c-0.363,0-0.767-0.062-1.16-0.186v2.588l-2.568,0.425V21.497h2.256l0.135,0.808c0.611-0.652,1.264-0.963,2.009-0.963c0.808,0,1.439,0.29,1.895,0.88c0.518,0.663,0.777,1.698,0.778,3.064C35.743,26.828,35.391,27.998,34.697,28.754z M43.529,26.344h-4.255c0.052,0.528,0.207,0.901,0.476,1.129c0.248,0.217,0.59,0.321,1.087,0.321c0.828,0,1.563-0.186,2.195-0.528l0.28,1.76c-0.642,0.424-1.657,0.683-2.754,0.683c-1.191,0-2.112-0.311-2.754-0.932c-0.715-0.693-1.077-1.78-1.077-3.23c0-2.589,1.356-4.204,3.541-4.204c1.066,0,1.905,0.372,2.464,1.097c0.548,0.714,0.828,1.729,0.828,3.013C43.56,25.639,43.539,26.219,43.529,26.344z"/></g></svg>