<?xml version="1.0" encoding="iso-8859-1"?><!-- Generator: Adobe Illustrator 21.1.0, SVG Export Plug-In . SVG Version: 6.00 Build 0)  --><svg xmlns="http://www.w3.org/2000/svg" xmlns:xlink="http://www.w3.org/1999/xlink" viewBox="0 0 50 50" width="500px" height="500px"><path d="M25,7c-1.654,0-3-1.346-3-3s1.346-3,3-3s3,1.346,3,3S26.654,7,25,7z"/><path d="M25,44c-1.954,0-3.965-0.038-5.933-0.152C19.481,46.755,21.98,49,25,49s5.519-2.245,5.933-5.152C28.965,43.962,26.954,44,25,44z"/><path d="M40,30c-5.5,0-10,4.5-10,10s4.5,10,10,10s10-4.5,10-10S45.5,30,40,30z M40,32c4.4,0,8,3.6,8,8s-3.6,8-8,8s-8-3.6-8-8S35.6,32,40,32z M39,35v4h-4v2h4v4h2v-4h4v-2h-4v-4H39z"/><path d="M31,40c0-4.971,4.029-9,9-9c0.127,0,0.25,0.014,0.375,0.019C39.125,28.988,38,25.555,38,19c0-6.195-3.312-10.789-8.755-12.391C28.364,8.038,26.798,9,25,9c-1.797,0-3.363-0.962-4.244-2.389C15.315,8.217,12,12.821,12,19c0,10.354-2.806,12.93-4.482,14.469C6.737,34.186,6,34.863,6,36c0,4.038,6.215,6,19,6c2.271,0,4.324-0.065,6.182-0.189C31.063,41.226,31,40.62,31,40z"/></svg>