<?xml version="1.0" encoding="iso-8859-1"?><!-- Generator: Adobe Illustrator 21.0.2, SVG Export Plug-In . SVG Version: 6.00 Build 0)  --><svg xmlns="http://www.w3.org/2000/svg" xmlns:xlink="http://www.w3.org/1999/xlink" viewBox="0 0 50 50" width="500px" height="500px"><path style="fill:none;stroke:#000000;stroke-width:2;stroke-linecap:round;stroke-linejoin:round;stroke-miterlimit:10;" d="M36.983,16.544L37,13.547l-3.553-0.602c-0.198-0.829-0.522-1.634-0.969-2.389l2.088-2.938l-2.108-2.131l-2.922,2.077c-0.747-0.458-1.548-0.796-2.376-1.008l-0.569-3.539L23.594,3L22.95,6.522c-0.835,0.201-1.642,0.526-2.402,0.975l-2.894-2.093l-2.132,2.107l2.031,2.94c-0.459,0.752-0.793,1.556-1.003,2.39l-3.531,0.566L13,16.407l3.529,0.642c0.202,0.831,0.528,1.636,0.978,2.39l-2.103,2.908l2.108,2.132l2.967-2.048c0.748,0.451,1.551,0.784,2.376,0.988l0.603,3.563L26.456,27l0.601-3.563c0.825-0.201,1.623-0.523,2.372-0.969l2.952,2.095l2.132-2.107l-2.094-2.946c0.453-0.744,0.784-1.538,0.994-2.361L36.983,16.544z"/><ellipse transform="matrix(0.7111 -0.7031 0.7031 0.7111 -3.3679 21.8959)" style="fill:none;stroke:#000000;stroke-width:2;stroke-linecap:round;stroke-linejoin:round;stroke-miterlimit:10;" cx="24.961" cy="15.046" rx="4.016" ry="4.016"/><path style="fill:none;stroke:#000000;stroke-width:2;stroke-miterlimit:10;" d="M31,34.625l6.543-4.057C37.771,30.421,38.596,30,39.375,30 M39.375,30c2.125,0,2.75,1.25,2.75,1.25"/><path style="fill:none;stroke:#000000;stroke-width:2;stroke-miterlimit:10;" d="M25.25,33.875c0,0,6.326-3.948,6.563-4.088c0.648-0.382,1.75-0.768,2.752-0.768c2.061,0,2.936,1.481,2.936,1.481"/><path style="fill:none;stroke:#000000;stroke-width:2;stroke-linecap:round;stroke-linejoin:round;stroke-miterlimit:10;" d="M7.845,43.627l2.474-1.584c1.368-0.858,2.127-1.006,3.896-0.109c1.712,0.868,6.976,3.567,8.292,4.196c4.045,1.932,5.78,0.202,7.734-0.909c1.667-0.947,13.471-8.654,14.712-9.518c1.937-1.347,2.53-2.716,1.649-3.847c-0.667-0.855-2.157-1.376-5.199,0.396"/><path style="fill:none;stroke:#000000;stroke-width:2;stroke-linecap:round;stroke-linejoin:round;stroke-miterlimit:10;" d="M18,38c0,0,3.778,1,6.25,1c0,0,3.967,0,5.25,0c2.296,0,3.5-0.936,3.5-2.5c0-1.432-1.141-2.5-3.5-2.5c-2.25,0-5-0.25-7.484-1.36C20.541,31.771,19.888,29,14.422,29c-2.468,0-3.381,0.53-4.747,1.06c-2.409,0.937-6.682,2.951-6.682,2.951"/><line style="fill:none;stroke:#000000;stroke-width:2;stroke-linecap:round;stroke-linejoin:round;stroke-miterlimit:10;" x1="41.397" y1="32.253" x2="31.875" y2="38.5"/></svg>