<?xml version="1.0" encoding="iso-8859-1"?><!-- Generator: Adobe Illustrator 23.0.3, SVG Export Plug-In . SVG Version: 6.00 Build 0)  --><svg xmlns="http://www.w3.org/2000/svg" xmlns:xlink="http://www.w3.org/1999/xlink" viewBox="0 0 50 50" width="500px" height="500px"><line style="fill:none;stroke:#000000;stroke-width:2;stroke-linecap:round;stroke-linejoin:round;stroke-miterlimit:10;" x1="45" y1="25" x2="24" y2="25"/><line style="fill:none;stroke:#000000;stroke-width:2;stroke-linecap:round;stroke-linejoin:round;stroke-miterlimit:10;" x1="45" y1="32" x2="24" y2="32"/><line style="fill:none;stroke:#000000;stroke-width:2;stroke-linecap:round;stroke-linejoin:round;stroke-miterlimit:10;" x1="45" y1="18" x2="37" y2="18"/><line style="fill:none;stroke:#000000;stroke-width:2;stroke-linecap:round;stroke-linejoin:round;stroke-miterlimit:10;" x1="45" y1="39" x2="24" y2="39"/><line style="fill:none;stroke:#000000;stroke-width:2;stroke-linecap:round;stroke-linejoin:round;stroke-miterlimit:10;" x1="45" y1="46" x2="24" y2="46"/><path d="M14.5,13C11.467,13,9,10.533,9,7.5S11.467,2,14.5,2S20,4.467,20,7.5S17.533,13,14.5,13z"/><path d="M31,15H9.5C6.462,15,4,17.462,4,20.5v11.389c0,0.996,0.679,1.921,1.662,2.083C6.913,34.178,8,33.215,8,32l0-10c0-0.271,0.229-0.5,0.5-0.5S9,21.729,9,22l0,23.438C9,46.791,10.048,48,11.401,48C12.883,47.999,14,46.839,14,45.3V32.458c0-0.276,0.224-0.5,0.5-0.5s0.5,0.224,0.5,0.5v13.134c0.005,0.007,0.016,0.012,0.018,0.02c0.227,0.883,0.229,1.797,1.088,2.101C18.626,48.606,20,47.305,20,45.3L20,20c0-0.552,0.448-1,1-1h10c1.105,0,2-0.895,2-2v0C33,15.895,32.105,15,31,15z"/></svg>