<?xml version="1.0" encoding="utf-8"?><!-- Generator: Adobe Illustrator 15.0.0, SVG Export Plug-In . SVG Version: 6.00 Build 0)  --><!DOCTYPE svg PUBLIC "-//W3C//DTD SVG 1.1//EN" "http://www.w3.org/Graphics/SVG/1.1/DTD/svg11.dtd"><svg xmlns="http://www.w3.org/2000/svg" xmlns:xlink="http://www.w3.org/1999/xlink" viewBox="0 0 50 50" width="500px" height="500px"><path d="M32,50H18V24h14V50z"/><path d="M48,50H34V35h14V50z"/><path d="M16,50H2V11h14V50z"/><path d="M49,26l-10-0.001c-0.553,0-1-0.448-1-1s0.448-1,1-1l0,0L47,24v-8c0-0.552,0.447-1,1-1s1,0.448,1,1V26z"/><path d="M47,25c-0.256,0-0.512-0.098-0.707-0.293l-18-18c-0.391-0.391-0.391-1.023,0-1.414s1.023-0.391,1.414,0l18,18c0.391,0.391,0.391,1.023,0,1.414C47.512,24.902,47.256,25,47,25z"/></svg>