<?xml version="1.0" encoding="iso-8859-1"?><!-- Generator: Adobe Illustrator 21.1.0, SVG Export Plug-In . SVG Version: 6.00 Build 0)  --><svg xmlns="http://www.w3.org/2000/svg" xmlns:xlink="http://www.w3.org/1999/xlink" viewBox="0 0 50 50" width="500px" height="500px"><polyline style="fill:none;stroke:#000000;stroke-width:2;stroke-linecap:round;stroke-linejoin:round;stroke-miterlimit:10;" points="45,16.4 45,45 5,45 5,16.4 "/><polygon style="fill:none;stroke:#000000;stroke-width:2;stroke-linecap:round;stroke-linejoin:round;stroke-miterlimit:10;" points="3,17.3 25,5.4 47,17.3 47,12.8 25,1 3,12.8 "/><path d="M32,32.47c0-7.428-11.225-4.445-11.225-9.146c0-1.709,1.517-3.131,4.225-3.131s4.265,1.531,4.32,3.24h2.324c-0.095-2.937-2.31-5.023-5.644-5.344V16h-2v2.099c-3.443,0.363-5.577,2.402-5.577,5.361c0,7.54,11.211,3.999,11.211,9.201c0,2.01-1.884,3.35-4.634,3.35s-4.567-1.531-4.717-3.363h-2.338c0.014,3.001,2.392,5.135,6.055,5.432V40h2v-1.939C29.792,37.719,32,35.681,32,32.47z"/></svg>