<?xml version="1.0" encoding="iso-8859-1"?><!-- Generator: Adobe Illustrator 23.0.3, SVG Export Plug-In . SVG Version: 6.00 Build 0)  --><svg xmlns="http://www.w3.org/2000/svg" xmlns:xlink="http://www.w3.org/1999/xlink" viewBox="0 0 50 50" width="500px" height="500px"><path style="fill:none;stroke:#000000;stroke-width:2;stroke-linecap:round;stroke-miterlimit:10;" d="M27,32.5c0,1.2-2.2,2.5-5,2.5s-5-1.2-5-2.5"/><path style="fill:none;stroke:#000000;stroke-width:2;stroke-linecap:round;stroke-miterlimit:10;" d="M41,30v13c0,1.105,0.895,2,2,2h0c1.105,0,2-0.895,2-2V29c0-2.209-1.791-4-4-4h0c-2.209,0-4,1.791-4,4v14c0,3.314,2.686,6,6,6h0c3.314,0,6-2.686,6-6V30"/><g><path d="M34.059,44H4.122c0.739-3.999,4.323-5.391,7.797-6.741c2.717-1.056,5.283-2.053,6.119-4.313l0.052-0.205c0.11-0.771,0.11-1.127,0.11-1.442v-0.888l-0.882-0.105c-4.104-0.488-6.508-1.007-7.161-1.524c0.963-1.405,1.201-3.882,1.492-6.913c0.664-6.92,1.488-15.498,10.738-15.858L23.382,8H24c8.049,0,8.841,6.093,9.04,14.059c0.07,2.795,0.127,5.097,0.933,6.484c-0.856,0.547-3.467,1.408-7.266,1.761l-1.106,0.103l0.218,1.089C25.9,31.899,25.9,32.218,25.9,32.5v0.185l0.066,0.173c0.879,2.295,3.456,3.313,6.183,4.389c0.62,0.245,1.242,0.491,1.852,0.754v-2.166c-0.377-0.154-0.752-0.303-1.117-0.448c-2.321-0.917-4.338-1.713-4.984-3.091c0-0.035-0.001-0.072-0.002-0.11c1.558-0.192,4.213-0.62,6.103-1.442V29c0-1.434,0.435-2.768,1.178-3.879c-0.081-0.968-0.112-2.066-0.138-3.112C34.883,15.761,34.65,6.382,24.624,6.011L23.618,4H23C11.355,4,10.334,14.639,9.658,21.679c-0.258,2.688-0.525,5.467-1.321,6.173L8,28.15v0.45c0,2.28,3.329,2.978,8.147,3.579c-0.006,0.051-0.013,0.106-0.021,0.165c-0.58,1.361-2.695,2.183-4.931,3.051c-3.947,1.533-8.858,3.441-9.194,9.55L1.943,46h32.582C34.299,45.362,34.136,44.694,34.059,44z"/></g></svg>