<?xml version="1.0" encoding="iso-8859-1"?><!-- Generator: Adobe Illustrator 21.1.0, SVG Export Plug-In . SVG Version: 6.00 Build 0)  --><svg xmlns="http://www.w3.org/2000/svg" xmlns:xlink="http://www.w3.org/1999/xlink" viewBox="0 0 50 50" width="500px" height="500px"><g><g><path d="M25,21c-3.859,0-7,3.14-7,7s3.141,7,7,7s7-3.14,7-7S28.859,21,25,21z M25,31.75c-2.209,0-4-1.791-4-4c0-2.209,1.791-4,4-4c0.907,0,1.734,0.313,2.405,0.823c-0.073-0.017-0.141-0.044-0.219-0.044c-0.552,0-1,0.448-1,1c0,0.552,0.448,1,1,1c0.552,0,1-0.448,1-1c0-0.081-0.028-0.154-0.046-0.229C28.671,25.978,29,26.822,29,27.75C29,29.959,27.209,31.75,25,31.75z M3,13.05V45h44V13.05H3z M25,37c-4.963,0-9-4.038-9-9s4.037-9,9-9s9,4.038,9,9S29.963,37,25,37z"/></g></g><path d="M44,5H6C4.346,5,3,6.346,3,8v3h44V8C47,6.346,45.654,5,44,5z"/></svg>