<?xml version="1.0" encoding="iso-8859-1"?>
<!-- Generator: Adobe Illustrator 24.1.2, SVG Export Plug-In . SVG Version: 6.00 Build 0)  -->
<svg version="1.1" baseProfile="basic" id="Layer_1"
	 xmlns="http://www.w3.org/2000/svg" xmlns:xlink="http://www.w3.org/1999/xlink" x="0px" y="0px" viewBox="0 0 50 50"
	 xml:space="preserve">
<polyline style="fill:none;stroke:#000000;stroke-width:2;stroke-linecap:round;stroke-miterlimit:10;" points="39,15 26,15 26,2 
	"/>
<path d="M25.18,38H12c-0.552,0-1,0.448-1,1l0,0c0,0.552,0.448,1,1,1h13.697C25.47,39.356,25.296,38.689,25.18,38z"/>
<path d="M25.697,32H12c-0.552,0-1,0.448-1,1l0,0c0,0.552,0.448,1,1,1h13.18C25.296,33.311,25.47,32.644,25.697,32z"/>
<path d="M30.372,26H12c-0.552,0-1,0.448-1,1v0c0,0.552,0.448,1,1,1h16.074C28.753,27.242,29.521,26.565,30.372,26z"/>
<circle style="fill:none;stroke:#000000;stroke-width:2;stroke-linecap:round;stroke-miterlimit:10;" cx="37" cy="36" r="9"/>
<line style="fill:none;stroke:#000000;stroke-width:2;stroke-linecap:round;stroke-miterlimit:10;" x1="12" y1="21" x2="34" y2="21"/>
<path d="M26.414,0H5v46h25.372c-0.851-0.565-1.619-1.241-2.296-2H7V2h18.586L39,15.414v8.761c0.688,0.119,1.356,0.295,2,0.523
	V14.586L26.414,0z"/>
<circle cx="37" cy="34" r="3"/>
<line style="fill:none;stroke:#000000;stroke-width:2;stroke-linecap:round;stroke-linejoin:round;stroke-miterlimit:10;" x1="34" y1="40" x2="40" y2="40"/>
<rect x="12" y="7" style="fill:none;stroke:#000000;stroke-width:2;stroke-linecap:round;stroke-linejoin:round;stroke-miterlimit:10;" width="8" height="8"/>
<line style="fill:none;stroke:#000000;stroke-width:2;stroke-miterlimit:10;" x1="43.363" y1="42.363" x2="49" y2="48"/>
</svg>