<?xml version="1.0" encoding="iso-8859-1"?><!-- Generator: Adobe Illustrator 21.1.0, SVG Export Plug-In . SVG Version: 6.00 Build 0)  --><svg xmlns="http://www.w3.org/2000/svg" xmlns:xlink="http://www.w3.org/1999/xlink" viewBox="0 0 50 50" width="500px" height="500px"><path d="M25.516,24H21v-8h4.516C26.161,16,31,15.921,31,19.96S26.242,24,25.516,24z"/><path d="M25,2C12.318,2,2,12.317,2,25s10.318,23,23,23s23-10.317,23-23S37.682,2,25,2z M31.119,38L25,28h-0.968H21v10h-4V28V12v0l0,0h7.032C25.323,12,35,11.842,35,19.921c0,4.527-2.988,6.516-5.871,7.391L36,38H31.119z"/></svg>