<?xml version="1.0" encoding="iso-8859-1"?><!-- Generator: Adobe Illustrator 19.2.1, SVG Export Plug-In . SVG Version: 6.00 Build 0)  --><svg xmlns="http://www.w3.org/2000/svg" xmlns:xlink="http://www.w3.org/1999/xlink" viewBox="0 0 50 50" width="500px" height="500px"><g><g><path style="fill:none;stroke:#000000;stroke-width:2;stroke-linecap:round;stroke-miterlimit:10;" d="M46,19c0-5.136-3.525-9.438-8.285-10.648C36.762,4.699,33.451,2,29.5,2c-1.655,0-3.194,0.48-4.5,1.298C23.694,2.48,22.155,2,20.5,2c-3.951,0-7.262,2.699-8.215,6.352C7.525,9.562,4,13.864,4,19c0,1.755,0.422,3.407,1.152,4.879C4.426,25.084,4,26.491,4,28c0,3.088,1.752,5.762,4.314,7.096C8.113,35.695,8,36.334,8,37c0,3.314,2.686,6,6,6c0.367,0,0.725-0.038,1.075-0.101C15.509,45.785,17.993,48,21,48c1.539,0,2.938-0.584,4-1.537C26.062,47.416,27.461,48,29,48c3.007,0,5.491-2.215,5.925-5.101C35.275,42.962,35.633,43,36,43c3.314,0,6-2.686,6-6c0-0.666-0.113-1.305-0.314-1.904C44.248,33.762,46,31.088,46,28c0-1.509-0.426-2.916-1.152-4.121C45.578,22.407,46,20.755,46,19z"/></g></g><path d="M26.429,33.656c0.236,0,0.39,0.157,0.39,0.392v2.857c0,0.235-0.155,0.392-0.39,0.392h-2.662c-0.234,0-0.392-0.157-0.392-0.392v-2.857c0-0.235,0.158-0.392,0.392-0.392H26.429z M26.35,12.506c0.234,0,0.391,0.157,0.391,0.392v17.277c0,0.234-0.157,0.392-0.391,0.392h-2.504c-0.236,0-0.392-0.157-0.392-0.392V12.897c0-0.235,0.157-0.392,0.392-0.392H26.35z"/></svg>