<?xml version="1.0" encoding="iso-8859-1"?><!-- Generator: Adobe Illustrator 23.0.3, SVG Export Plug-In . SVG Version: 6.00 Build 0)  --><svg xmlns="http://www.w3.org/2000/svg" xmlns:xlink="http://www.w3.org/1999/xlink" viewBox="0 0 50 50" width="500px" height="500px"><path d="M12.5,13C9.467,13,7,10.533,7,7.5S9.467,2,12.5,2S18,4.467,18,7.5S15.533,13,12.5,13z"/><path d="M17.5,14h-10C4.467,14,2,16.467,2,19.5V32c0,1.104,0.897,2,2,2s2-0.896,2-2v-9.529c0-0.271,0.229-0.5,0.5-0.5S7,22.2,7,22.471V45.3C7,46.864,7.835,48,9.4,48c1.482,0,2.6-1.161,2.6-2.7V32.458c0-0.276,0.224-0.5,0.5-0.5s0.5,0.224,0.5,0.5v13.134c0.004,0.006,0.012,0.01,0.016,0.016C13.153,46.991,14.218,48,15.6,48c1.564,0,2.4-1.136,2.4-2.7V22.645c0-0.271,0.229-0.5,0.5-0.5s0.5,0.229,0.5,0.5V32c0,1.104,0.897,2,2,2s2-0.896,2-2V19.5C23,16.467,20.533,14,17.5,14z"/><path d="M42,21.522c0-0.008,0-0.015,0-0.022c0-3.584-2.916-6.5-6.5-6.5c-1.284,0-2.511,0.37-3.559,1.059C29.822,12.34,25.858,10,21.517,10c-0.72,0-1.39,0.062-2.013,0.159c-0.263,0.69-0.625,1.331-1.068,1.906C22.131,12.528,25,15.682,25,19.5V32c0,2.206-1.794,4-4,4c-0.345,0-0.68-0.044-1-0.127V39h19c4.962,0,9-4.037,9-9C48,26.153,45.572,22.779,42,21.522z"/></svg>