<?xml version="1.0" encoding="iso-8859-1"?><!-- Generator: Adobe Illustrator 23.0.3, SVG Export Plug-In . SVG Version: 6.00 Build 0)  --><svg xmlns="http://www.w3.org/2000/svg" xmlns:xlink="http://www.w3.org/1999/xlink" viewBox="0 0 50 50" width="500px" height="500px"><rect x="3" y="4" style="fill:none;stroke:#000000;stroke-width:2;stroke-linecap:round;stroke-linejoin:round;stroke-miterlimit:10;" width="44" height="4"/><line style="fill:none;stroke:#000000;stroke-width:2;stroke-linecap:round;stroke-linejoin:round;stroke-miterlimit:10;" x1="25" y1="38" x2="25" y2="42"/><path d="M25,47c-1.654,0-3-1.346-3-3s1.346-3,3-3s3,1.346,3,3S26.654,47,25,47z"/><path d="M45,7H5C4.447,7,4,7.448,4,8v30c0,0.552,0.447,1,1,1h40c0.553,0,1-0.448,1-1V8C46,7.448,45.553,7,45,7z M38,18c-0.115,0-0.227-0.015-0.336-0.034l-7.792,9.35C29.951,27.53,30,27.758,30,28c0,1.105-0.895,2-2,2s-2-0.895-2-2c0-0.219,0.044-0.425,0.109-0.622l-5.705-6.418C20.273,20.986,20.138,21,20,21c-0.178,0-0.347-0.031-0.512-0.074l-5.563,5.563C13.969,26.653,14,26.822,14,27c0,1.105-0.895,2-2,2s-2-0.895-2-2c0-1.105,0.895-2,2-2c0.178,0,0.347,0.031,0.512,0.074l5.563-5.563C18.031,19.347,18,19.178,18,19c0-1.105,0.895-2,2-2s2,0.895,2,2c0,0.219-0.044,0.425-0.109,0.622l5.705,6.418C27.727,26.014,27.862,26,28,26c0.115,0,0.227,0.015,0.337,0.034l7.791-9.35C36.049,16.47,36,16.241,36,16c0-1.105,0.895-2,2-2s2,0.895,2,2C40,17.105,39.105,18,38,18z"/></svg>