<?xml version="1.0" encoding="iso-8859-1"?><!-- Generator: Adobe Illustrator 19.1.1, SVG Export Plug-In . SVG Version: 6.00 Build 0)  --><svg xmlns="http://www.w3.org/2000/svg" xmlns:xlink="http://www.w3.org/1999/xlink" viewBox="0 0 50 50" width="500px" height="500px"><g><g><path style="fill:none;stroke:#000000;stroke-width:1.9974;stroke-miterlimit:10;" d="M45,7H3v24h42V7L45,7z"/></g></g><path style="fill:none;stroke:#000000;stroke-width:2;stroke-miterlimit:10;" d="M38.449,31c2.465,0,2.591-2.58,3.27-3.26C42.398,27.062,45,26.888,45,25.259"/><path style="fill:none;stroke:#000000;stroke-width:2;stroke-miterlimit:10;" d="M9.551,31c-2.465,0-2.591-2.58-3.271-3.26C5.602,27.062,3,26.888,3,25.259"/><circle style="fill:none;stroke:#000000;stroke-width:2;stroke-miterlimit:10;" cx="38.5" cy="19.5" r="1.5"/><circle style="fill:none;stroke:#000000;stroke-width:2;stroke-miterlimit:10;" cx="9.5" cy="19.5" r="1.5"/><ellipse style="fill:none;stroke:#000000;stroke-width:2;stroke-miterlimit:10;" cx="24" cy="19" rx="8" ry="9"/><polyline style="fill:none;stroke:#000000;stroke-width:2;stroke-linecap:round;stroke-miterlimit:10;" points="21,31 21,37 16,37 24,45.943 32,37 27,37 27,31 "/><path style="fill:none;stroke:#000000;stroke-width:2;stroke-miterlimit:10;" d="M45,12.741c0-1.629-2.602-1.803-3.281-2.481C41.04,9.58,40.914,7,38.449,7"/><path style="fill:none;stroke:#000000;stroke-width:2;stroke-miterlimit:10;" d="M3,12.741c0-1.629,2.602-1.803,3.28-2.481C6.96,9.58,7.086,7,9.551,7"/><path style="fill:none;stroke:#000000;stroke-width:2;stroke-miterlimit:10;" d="M45,12.741c0-1.629-2.602-1.803-3.281-2.481C41.04,9.58,40.914,7,38.449,7"/><path style="fill:none;stroke:#000000;stroke-width:2;stroke-miterlimit:10;" d="M3,12.741c0-1.629,2.602-1.803,3.28-2.481C6.96,9.58,7.086,7,9.551,7"/><polygon style="fill:none;stroke:#231F20;stroke-width:2;stroke-miterlimit:10;" points="45,4 7,4 7,7 45,7 45,28 48,28 48,7 48,4 "/></svg>