<?xml version="1.0" encoding="iso-8859-1"?><!-- Generator: Adobe Illustrator 19.1.1, SVG Export Plug-In . SVG Version: 6.00 Build 0)  --><svg xmlns="http://www.w3.org/2000/svg" xmlns:xlink="http://www.w3.org/1999/xlink" viewBox="0 0 50 50" width="500px" height="500px"><g><g><path style="fill:none;stroke:#000000;stroke-width:2;stroke-linecap:round;stroke-linejoin:round;stroke-miterlimit:10;" d="M18.167,29C35.675,29,36.768,43,40,43c0.024,0,0.05,0,0.074,0C40.886,43,42,40.191,42,23S40.64,2.999,39.852,2.999l0,0C36.674,2.999,35.408,16,18,16"/></g></g><path style="fill:none;stroke:#000000;stroke-width:2;stroke-linecap:round;stroke-linejoin:round;stroke-miterlimit:10;" d="M42,27h1.453c1.932,0,3.5-1.482,3.5-3.415l0,0c0-1.933-1.568-3.585-3.5-3.585H42"/><path style="fill:none;stroke:#000000;stroke-width:2;stroke-linecap:round;stroke-linejoin:round;stroke-miterlimit:10;" d="M16,29c0,7.257,0.39,11.885,1.087,12.581C18.221,42.714,19,43.617,19,45c0,1.373-0.643,1.999-2.219,1.999h-3.335c-1.922,0-2.576-1.032-2.858-2.511C8.925,35.784,7.675,30.182,6,29"/><path style="fill:none;stroke:#000000;stroke-width:1.9891;stroke-linecap:round;stroke-linejoin:round;stroke-miterlimit:10;" d="M18,29V16H7c-2.209,0-4,1.791-4,4v5c0,2.209,1.791,4,4,4H18"/></svg>