<?xml version="1.0" encoding="iso-8859-1"?><!-- Generator: Adobe Illustrator 22.1.0, SVG Export Plug-In . SVG Version: 6.00 Build 0)  --><svg xmlns="http://www.w3.org/2000/svg" xmlns:xlink="http://www.w3.org/1999/xlink" viewBox="0 0 50 50" width="500px" height="500px"><circle cx="25.5" cy="6.5" r="4.5"/><line style="fill:none;stroke:#000000;stroke-width:2;stroke-linecap:round;stroke-linejoin:round;stroke-miterlimit:10;" x1="16.961" y1="40.91" x2="7.571" y2="44.947"/><line style="fill:none;stroke:#000000;stroke-width:2;stroke-linecap:round;stroke-linejoin:round;stroke-miterlimit:10;" x1="44.807" y1="29.368" x2="33.94" y2="34.04"/><polyline style="fill:none;stroke:#000000;stroke-width:2;stroke-linecap:round;stroke-linejoin:round;stroke-miterlimit:10;" points="42.905,34.071 44.783,29.359 40.071,27.48 "/><polyline style="fill:none;stroke:#000000;stroke-width:2;stroke-linecap:round;stroke-linejoin:round;stroke-miterlimit:10;" points="8.31,40.706 6.431,45.418 11.144,47.297 "/><line style="fill:none;stroke:#000000;stroke-width:2;stroke-linecap:round;stroke-linejoin:round;stroke-miterlimit:10;" x1="17.009" y1="34.185" x2="7.342" y2="30.384"/><line style="fill:none;stroke:#000000;stroke-width:2;stroke-linecap:round;stroke-linejoin:round;stroke-miterlimit:10;" x1="45.05" y1="44.814" x2="33.988" y2="40.466"/><polyline style="fill:none;stroke:#000000;stroke-width:2;stroke-linecap:round;stroke-linejoin:round;stroke-miterlimit:10;" points="43.001,40.173 45.027,44.824 40.376,46.85 "/><polyline style="fill:none;stroke:#000000;stroke-width:2;stroke-linecap:round;stroke-linejoin:round;stroke-miterlimit:10;" points="8.214,34.6 6.187,29.949 10.838,27.923 "/><path d="M29.5,13h-8c-2.475,0-4.5,2.025-4.5,4.5v6v2v4c0,0.825,0.675,1.5,1.5,1.5c0.751,0,1.372-0.562,1.478-1.285c0.007,0.003,0.015,0.004,0.022,0.006V19.5c0-0.275,0.225-0.5,0.5-0.5s0.5,0.225,0.5,0.5v10.449V32.5V43c0,1.1,0.9,2,2,2s2-0.9,2-2v-0.5V31v-0.5c0-0.275,0.225-0.5,0.5-0.5s0.5,0.225,0.5,0.5V31v11.5V43c0,1.1,0.9,2,2,2s2-0.9,2-2V32.5v-2.551V19.5c0-0.275,0.225-0.5,0.5-0.5s0.5,0.225,0.5,0.5v10.222c0.007-0.003,0.015-0.004,0.022-0.006C31.128,30.438,31.749,31,32.5,31c0.825,0,1.5-0.675,1.5-1.5v-4v-2v-6C34,15.025,31.975,13,29.5,13z"/></svg>