<?xml version="1.0" encoding="iso-8859-1"?><!-- Generator: Adobe Illustrator 23.0.3, SVG Export Plug-In . SVG Version: 6.00 Build 0)  --><svg xmlns="http://www.w3.org/2000/svg" xmlns:xlink="http://www.w3.org/1999/xlink" viewBox="0 0 50 50" width="500px" height="500px"><g><g><path style="fill:none;stroke:#000000;stroke-width:2;stroke-linejoin:round;stroke-miterlimit:10;" d="M28,4c0-1.657-1.343-3-3-3s-3,1.343-3,3h-5v4c0,1.105,0.895,2,2,2h12c1.105,0,2-0.895,2-2V4H28z"/></g></g><line style="fill:none;stroke:#000000;stroke-width:2;stroke-linecap:round;stroke-linejoin:round;stroke-miterlimit:10;" x1="36" y1="19" x2="14" y2="19"/><line style="fill:none;stroke:#000000;stroke-width:2;stroke-linecap:round;stroke-linejoin:round;stroke-miterlimit:10;" x1="30" y1="31" x2="14" y2="31"/><line style="fill:none;stroke:#000000;stroke-width:2;stroke-linecap:round;stroke-linejoin:round;stroke-miterlimit:10;" x1="27" y1="37" x2="14" y2="37"/><line style="fill:none;stroke:#000000;stroke-width:2;stroke-linecap:round;stroke-linejoin:round;stroke-miterlimit:10;" x1="36" y1="25" x2="14" y2="25"/><g id="IOS_copy_15_"><path d="M40,50c-5.5,0-10-4.5-10-10s4.5-10,10-10s10,4.5,10,10S45.5,50,40,50z M40,32c-4.4,0-8,3.6-8,8s3.6,8,8,8s8-3.6,8-8S44.4,32,40,32z M41,40.5V34h-2v5.5l-3.6,2.7l1.2,1.6L41,40.5z"/></g><g><path d="M41,6v22.05c0.686,0.057,1.352,0.176,2,0.343V6c0-1.654-1.346-3-3-3h-7v2h7C40.551,5,41,5.448,41,6z"/><path d="M29.618,46H10c-0.551,0-1-0.448-1-1V6c0-0.552,0.449-1,1-1h7V3h-7C8.346,3,7,4.346,7,6v39c0,1.654,1.346,3,3,3h21.074C30.523,47.386,30.034,46.718,29.618,46z"/></g></svg>