<?xml version="1.0" encoding="iso-8859-1"?><!-- Generator: Adobe Illustrator 21.1.0, SVG Export Plug-In . SVG Version: 6.00 Build 0)  --><svg xmlns="http://www.w3.org/2000/svg" xmlns:xlink="http://www.w3.org/1999/xlink" viewBox="0 0 50 50" width="500px" height="500px"><g></g><path d="M43,4H7C4.243,4,2,6.243,2,9v24c0,2.757,2.243,5,5,5h4.14c0.339,2.896-0.516,4.859-2.654,6.143c-0.385,0.231-0.569,0.691-0.449,1.124C8.156,45.7,8.551,46,9,46c2.56,0,8.708-0.795,11.684-8H43c2.757,0,5-2.243,5-5V9C48,6.243,45.757,4,43,4z M10,31c-0.552,0-1-0.448-1-1c0-0.552,0.448-1,1-1s1,0.448,1,1C11,30.552,10.552,31,10,31z M10,25c-0.552,0-1-0.448-1-1c0-0.552,0.448-1,1-1s1,0.448,1,1C11,24.552,10.552,25,10,25z M10,19c-0.552,0-1-0.448-1-1c0-0.552,0.448-1,1-1s1,0.448,1,1C11,18.552,10.552,19,10,19z M10,13c-0.552,0-1-0.448-1-1c0-0.552,0.448-1,1-1s1,0.448,1,1C11,12.552,10.552,13,10,13z M33,31H16c-0.553,0-1-0.447-1-1s0.447-1,1-1h17c0.553,0,1,0.447,1,1S33.553,31,33,31z M40,25H16c-0.553,0-1-0.447-1-1s0.447-1,1-1h24c0.553,0,1,0.447,1,1S40.553,25,40,25z M40,19H16c-0.553,0-1-0.447-1-1s0.447-1,1-1h24c0.553,0,1,0.447,1,1S40.553,19,40,19z M40,13H16c-0.553,0-1-0.447-1-1s0.447-1,1-1h24c0.553,0,1,0.447,1,1S40.553,13,40,13z"/></svg>