<?xml version="1.0" encoding="iso-8859-1"?><!-- Generator: Adobe Illustrator 21.0.1, SVG Export Plug-In . SVG Version: 6.00 Build 0)  --><svg xmlns="http://www.w3.org/2000/svg" xmlns:xlink="http://www.w3.org/1999/xlink" viewBox="0 0 50 50" width="500px" height="500px"><circle style="fill:none;stroke:#000000;stroke-width:2;stroke-linecap:round;stroke-miterlimit:10;" cx="40" cy="36" r="9"/><line style="fill:none;stroke:#000000;stroke-width:2;stroke-miterlimit:10;" x1="27" y1="49" x2="34" y2="42"/><path style="fill:none;stroke:#000000;stroke-width:2;stroke-linecap:round;stroke-miterlimit:10;" d="M32,8V5c0-1.104-0.896-2-2-2H20c-1.104,0-2,0.896-2,2v3"/><path d="M29.667,42.091C28.584,40.254,28,38.145,28,36c0-3.075,1.172-5.874,3.081-8H2.917C2.595,28,2.29,27.933,2,27.833v12.277C2,41.704,3.309,43,4.917,43h23.84L29.667,42.091z"/><path d="M40,24c3.075,0,5.874,1.172,8,3.081V9.889C48,8.296,46.691,7,45.083,7H4.917C3.309,7,2,8.296,2,9.889V25c0,0.551,0.411,1,0.917,1h30.464C35.28,24.739,37.555,24,40,24z M25,24c-1.105,0-2-0.895-2-2c0-1.105,0.895-2,2-2s2,0.895,2,2C27,23.105,26.105,24,25,24z"/></svg>