<?xml version="1.0" encoding="utf-8"?><!-- Generator: Adobe Illustrator 15.0.0, SVG Export Plug-In . SVG Version: 6.00 Build 0)  --><!DOCTYPE svg PUBLIC "-//W3C//DTD SVG 1.1//EN" "http://www.w3.org/Graphics/SVG/1.1/DTD/svg11.dtd"><svg xmlns="http://www.w3.org/2000/svg" xmlns:xlink="http://www.w3.org/1999/xlink" viewBox="0 0 50 50" width="500px" height="500px"><path d="M48.807,22.093l-20.899-20.9c-1.529-1.528-4.216-1.569-5.916,0.001L1.193,22.093c-1.592,1.592-1.604,4.178,0,5.914l20.8,20.8C22.762,49.576,23.799,50,24.913,50c1.099,0,2.152-0.414,2.995-1.193l20.8-20.8C50.365,26.349,50.41,23.696,48.807,22.093z M32.707,29.707l-7,6.999c0,0.001-0.001,0.001-0.001,0.002L25,37.414l-0.706-0.706c0-0.001-0.001-0.001-0.001-0.002l-7-6.999c-0.391-0.391-0.391-1.023,0-1.414s1.023-0.391,1.414,0L24,33.586V14c0-0.552,0.448-1,1-1s1,0.448,1,1v19.586l5.293-5.293c0.391-0.391,1.023-0.391,1.414,0S33.098,29.316,32.707,29.707z"/></svg>