<?xml version="1.0" encoding="iso-8859-1"?><!-- Generator: Adobe Illustrator 22.1.0, SVG Export Plug-In . SVG Version: 6.00 Build 0)  --><svg xmlns="http://www.w3.org/2000/svg" xmlns:xlink="http://www.w3.org/1999/xlink" viewBox="0 0 50 50" width="500px" height="500px"><g><path d="M31,3h-2.127C28.429,1.277,26.86,0,25,0s-3.429,1.277-3.873,3H19v4h12V3z"/><path d="M41,3h-8v5c0,0.552-0.447,1-1,1H18c-0.553,0-1-0.448-1-1V3H9C7.346,3,6,4.346,6,6v39c0,1.654,1.346,3,3,3h32c1.654,0,3-1.346,3-3V6C44,4.346,42.654,3,41,3z M11.604,13.598l3.533-1.266h0.182v8.543h-1.693v-6.527l-2.021,0.627V13.598z M16.095,42.307c-0.553,0.457-1.284,0.686-2.194,0.686c-0.852,0-1.548-0.225-2.089-0.674S11,41.275,11,40.537h1.693c0,0.32,0.12,0.582,0.36,0.785s0.536,0.305,0.888,0.305c0.402,0,0.718-0.106,0.946-0.319s0.343-0.495,0.343-0.847c0-0.852-0.469-1.277-1.406-1.277h-0.896v-1.324h0.902c0.43,0,0.748-0.107,0.955-0.322s0.311-0.5,0.311-0.855c0-0.344-0.103-0.611-0.308-0.803s-0.487-0.287-0.847-0.287c-0.324,0-0.596,0.089-0.814,0.267s-0.328,0.409-0.328,0.694h-1.693c0-0.445,0.12-0.845,0.36-1.198s0.576-0.63,1.008-0.829s0.907-0.299,1.427-0.299c0.902,0,1.609,0.216,2.121,0.647s0.768,1.026,0.768,1.784c0,0.391-0.119,0.75-0.357,1.078s-0.551,0.58-0.938,0.756c0.48,0.172,0.839,0.43,1.075,0.773s0.354,0.75,0.354,1.219C16.924,41.242,16.647,41.85,16.095,42.307z M17.053,31.875h-5.848v-1.16l2.76-2.941c0.379-0.414,0.659-0.775,0.841-1.084s0.272-0.602,0.272-0.879c0-0.379-0.096-0.677-0.287-0.894s-0.465-0.325-0.82-0.325c-0.383,0-0.685,0.132-0.905,0.396s-0.331,0.61-0.331,1.04h-1.699c0-0.52,0.124-0.994,0.372-1.424s0.599-0.767,1.052-1.011s0.967-0.366,1.541-0.366c0.879,0,1.562,0.211,2.048,0.633s0.729,1.018,0.729,1.787c0,0.422-0.109,0.852-0.328,1.289s-0.594,0.947-1.125,1.529l-1.939,2.045h3.668V31.875z M38,40H20v-2h18V40z M38,29H20v-2h18V29z M38,18H20v-2h18V18z"/></g></svg>