<?xml version="1.0" encoding="iso-8859-1"?><!-- Generator: Adobe Illustrator 21.0.0, SVG Export Plug-In . SVG Version: 6.00 Build 0)  --><svg xmlns="http://www.w3.org/2000/svg" xmlns:xlink="http://www.w3.org/1999/xlink" viewBox="0 0 50 50" width="500px" height="500px"><path style="fill:none;stroke:#000000;stroke-width:2;stroke-miterlimit:10;" d="M48,32V8.889C48,7.846,47.141,7,46.083,7H3.917C2.859,7,2,7.846,2,8.889v30.222C2,40.154,2.859,41,3.917,41H27"/><path style="fill:none;stroke:#000000;stroke-width:2;stroke-miterlimit:10;" d="M48,24c0,1.104-0.859,2-1.917,2H3.917C2.859,26,2,25.104,2,24"/><path style="fill:none;stroke:#000000;stroke-width:2;stroke-linecap:round;stroke-miterlimit:10;" d="M32,7V4c0-1.104-0.896-2-2-2H20c-1.104,0-2,0.896-2,2v3"/><circle cx="25" cy="21" r="2"/><path d="M38.999,30.657l1.27,1.228l0.672,0.649l0.925-0.131l1.749-0.247l0.305,1.738l0.162,0.919l0.826,0.437l1.561,0.827l-0.776,1.585L45.284,38.5l0.41,0.839l0.776,1.586l-1.562,0.828l-0.826,0.437l-0.162,0.919l-0.305,1.738l-1.749-0.247l-0.925-0.131l-0.672,0.649l-1.27,1.227l-1.27-1.228l-0.672-0.649L36.132,44.6l-1.749,0.247l-0.305-1.738l-0.162-0.919l-0.826-0.437l-1.561-0.828l0.776-1.585l0.411-0.839l-0.41-0.839l-0.776-1.586l1.562-0.828l0.826-0.437l0.162-0.919l0.305-1.738l1.749,0.247l0.925,0.131l0.672-0.649L38.999,30.657 M39,28l-2.599,2.51l-3.581-0.506l-0.625,3.558L29,35.255l1.589,3.245L29,41.744l3.195,1.692l0.625,3.558l3.581-0.506L39,49l2.599-2.51l3.581,0.506l0.625-3.558L49,41.745L47.411,38.5L49,35.256l-3.195-1.692l-0.625-3.558l-3.581,0.506L39,28L39,28z"/></svg>