<?xml version="1.0" encoding="iso-8859-1"?><!-- Generator: Adobe Illustrator 23.0.3, SVG Export Plug-In . SVG Version: 6.00 Build 0)  --><svg xmlns="http://www.w3.org/2000/svg" xmlns:xlink="http://www.w3.org/1999/xlink" viewBox="0 0 50 50" width="500px" height="500px"><g><path d="M4.638,9H24V4H11c-0.234,0-0.461,0.082-0.641,0.232L4.638,9z"/><path d="M26,4v5h19.362L39.64,4.232C39.46,4.082,39.234,4,39,4H26z"/></g><line style="fill:none;stroke:#000000;stroke-width:2;stroke-linecap:round;stroke-miterlimit:10;" x1="47" y1="33" x2="37" y2="49"/><path style="fill:none;stroke:#000000;stroke-width:2;stroke-linecap:round;stroke-miterlimit:10;" d="M49,45c0-1.105-0.895-2-2-2c-1.105,0-2,0.895-2,2v2c0,0,0,0,0,0c0,1.105,0.895,2,2,2s2-0.895,2-2V45z"/><path style="fill:none;stroke:#000000;stroke-width:2;stroke-linecap:round;stroke-miterlimit:10;" d="M39,35c0-1.105-0.895-2-2-2c-1.105,0-2,0.895-2,2v2c0,0,0,0,0,0c0,1.105,0.895,2,2,2s2-0.895,2-2V35z"/><g><path d="M25,11H4v34c0,0.553,0.447,1,1,1h30.337l2.556-4.09C37.603,41.963,37.306,42,37,42c-2.757,0-5-2.243-5-5v-2c0-2.757,2.243-5,5-5s5,2.243,5,5v0.34l4-6.435V11H25z M12,31l3,3h-2v4h-2v-4H9L12,31z M22,41H9v-2h13V41z M20,34v4h-2v-4h-2l3-3l3,3H20z M28.5,19h-7c-0.8,0-1.5-0.7-1.5-1.5s0.7-1.5,1.5-1.5h7c0.8,0,1.5,0.7,1.5,1.5S29.3,19,28.5,19z"/></g></svg>