<?xml version="1.0" encoding="iso-8859-1"?>
<!-- Generator: Adobe Illustrator 22.0.1, SVG Export Plug-In . SVG Version: 6.00 Build 0)  -->
<svg version="1.1" id="&#x421;&#x43B;&#x43E;&#x439;_2"
	 xmlns="http://www.w3.org/2000/svg" xmlns:xlink="http://www.w3.org/1999/xlink" x="0px" y="0px" viewBox="0 0 50 50"
	 style="enable-background:new 0 0 50 50;" xml:space="preserve">
<path d="M16.58,41l1.44,7.2c0.09,0.46,0.5,0.8,0.98,0.8h14c0.48,0,0.89-0.34,0.98-0.8l1.44-7.2H16.58z M42.03,23.42
	c-3.11-3.06-7.33-3.9-10.021-1.99c-1.24,0.87-2.45,2.61-2.45,4.56v0.18c0,0.02,0,0.04,0.01,0.06c-0.43,0.3-0.85,0.65-1.26,1.05
	c-0.5,0.49-0.94,0.99-1.31,1.49v-7.82c5.03-0.51,9-4.79,9-9.95c0-5.5-4.5-10-10-10S16,5.5,16,11c0,5.16,3.97,9.44,9,9.95v7.26
	c-0.93-1.39-2.28-2.83-4.2-3.92c0.01-0.07,0.01-0.15,0.01-0.22c-0.01-3.02-2.38-5.29-4.57-6.12c-3.89-1.46-8.76,0.93-11.6,5.68
	c-0.19,0.32-0.19,0.72,0,1.03c2.3,3.77,5.87,6.02,9.19,6.02c0.85,0,1.68-0.14,2.46-0.45c1.06-0.41,2.15-1.16,2.99-2.16
	c-0.5-0.44-1.05-0.83-1.63-1.17c-0.06-0.04-0.12-0.08-0.18-0.11c-2.18-1.23-4.3-1.45-5.7-1.42c-0.55,0.03-1.01-0.42-1.02-0.97
	c-0.01-0.3,0.12-0.57,0.32-0.75c0.17-0.16,0.4-0.27,0.66-0.27c1.64-0.05,4.15,0.21,6.72,1.67c0.07,0.04,0.14,0.08,0.21,0.12
	c0.59,0.35,1.15,0.74,1.68,1.19c0.02,0,0.03,0.01,0.04,0.03c3.25,2.11,4.32,5.51,4.59,6.61H16c-0.55,0-1,0.45-1,1v4
	c0,0.55,0.45,1,1,1h20c0.55,0,1-0.45,1-1v-4c0-0.55-0.45-1-1-1h-8.95c0.37-1.2,1.13-2.82,2.64-4.28c0.07-0.06,0.13-0.12,0.2-0.18
	c0.09-0.09,0.19-0.18,0.29-0.26c0-0.01-0.01-0.01-0.01-0.02c0.13-0.13,0.27-0.26,0.41-0.38c0.38-0.34,0.77-0.66,1.17-0.95
	c0.95-0.72,1.98-1.33,3.08-1.84c0.39-0.18,0.84-0.09,1.12,0.2c0.09,0.08,0.16,0.18,0.21,0.29c0.23,0.5,0.01,1.1-0.49,1.33
	c-0.92,0.42-1.78,0.93-2.58,1.52c-0.41,0.29-0.8,0.6-1.17,0.94c-0.14,0.13-0.29,0.26-0.43,0.39c0.02,0.01,0.03,0.03,0.05,0.04
	c0.2,0.15,0.41,0.29,0.63,0.42c0.01,0.01,0.02,0.01,0.03,0.01c0.03,0.02,0.06,0.04,0.09,0.06c0.12,0.07,0.24,0.13,0.36,0.18
	c0.03,0.01,0.06,0.03,0.09,0.04c0.17,0.08,0.35,0.15,0.53,0.21c0.17,0.06,0.35,0.11,0.51,0.15c0.08,0.02,0.16,0.04,0.229,0.05
	c0.15,0.03,0.3,0.05,0.44,0.07c0.21,0.02,0.41,0.03,0.61,0.03c3.07,0,6.05-2.67,7.23-6.6C42.39,24.07,42.29,23.68,42.03,23.42z
	 M22.9,8.7c0-2.1,1.9-2.8,2.8-2.8V4.4h1.1v1.5c0.7,0.1,2.6,0.6,2.6,3.2h-2c0-0.6-0.1-1.7-1.3-1.7C25,7.5,25,8.5,25,8.7
	c0,2.1,4.5,1.3,4.5,4.8c0,2.5-2.4,2.8-2.8,2.8v1.4h-1.1v-1.4c-0.4,0-3-0.3-3-3.3h2c0,0.3,0,1.7,1.5,1.7c1.3,0,1.3-1,1.3-1.2
	C27.4,11.3,22.9,12.2,22.9,8.7z"/>
</svg>