<?xml version="1.0" encoding="iso-8859-1"?><!-- Generator: Adobe Illustrator 19.1.1, SVG Export Plug-In . SVG Version: 6.00 Build 0)  --><svg xmlns="http://www.w3.org/2000/svg" xmlns:xlink="http://www.w3.org/1999/xlink" viewBox="0 0 50 50" width="500px" height="500px"><path style="fill:none;stroke:#000000;stroke-width:2;stroke-linejoin:round;stroke-miterlimit:10;" d="M38,9h-2c-0.552,0-1-0.448-1-1V2c0-0.552,0.448-1,1-1h2c0.552,0,1,0.448,1,1v6C39,8.552,38.552,9,38,9z"/><path style="fill:none;stroke:#000000;stroke-width:2;stroke-linejoin:round;stroke-miterlimit:10;" d="M14,9h-2c-0.552,0-1-0.448-1-1V2c0-0.552,0.448-1,1-1h2c0.552,0,1,0.448,1,1v6C15,8.552,14.552,9,14,9z"/><path d="M46,4h-7v5h-4V4H15v5h-4V4H4C2.841,4,2,4.841,2,6v7h46V6C48,4.841,47.159,4,46,4z"/><path d="M2,15v31c0,1.158,0.841,2,2,2h42c1.158,0,2-0.842,2-2V15H2z M39,38.813C39,39.468,38.468,40,37.812,40h-7.625C29.532,40,29,39.468,29,38.813v-7.625C29,30.532,29.532,30,30.187,30h7.625C38.468,30,39,30.532,39,31.188V38.813z"/></svg>