<?xml version="1.0" encoding="iso-8859-1"?>
<!-- Generator: Adobe Illustrator 26.4.1, SVG Export Plug-In . SVG Version: 6.00 Build 0)  -->
<svg version="1.1" baseProfile="basic" id="Layer_1"
	 xmlns="http://www.w3.org/2000/svg" xmlns:xlink="http://www.w3.org/1999/xlink" x="0px" y="0px" viewBox="0 0 50 50"
	 xml:space="preserve">
<g>
	<path d="M19,31c-3.309,0-6,2.691-6,6s2.691,6,6,6s6-2.691,6-6S22.309,31,19,31z M21,33c0.552,0,1,0.448,1,1s-0.448,1-1,1
		s-1-0.448-1-1S20.448,33,21,33z M17,33c0.552,0,1,0.448,1,1s-0.448,1-1,1s-1-0.448-1-1S16.448,33,17,33z M22.153,39.946
		C22.046,39.983,21.938,40,21.83,40c-0.416,0-0.805-0.262-0.946-0.677c-0.276-0.811-1.037-1.354-1.894-1.354
		c-0.848,0-1.605,0.536-1.887,1.335c-0.183,0.521-0.757,0.792-1.275,0.611c-0.521-0.184-0.795-0.755-0.611-1.275
		c0.562-1.598,2.079-2.671,3.773-2.671c1.712,0,3.233,1.088,3.786,2.708C22.955,39.199,22.676,39.768,22.153,39.946z"/>
	<path d="M19,13c-3.309,0-6,2.691-6,6s2.691,6,6,6s6-2.691,6-6S22.309,13,19,13z M21,15c0.552,0,1,0.448,1,1s-0.448,1-1,1
		s-1-0.448-1-1S20.448,15,21,15z M17,15c0.552,0,1,0.448,1,1s-0.448,1-1,1s-1-0.448-1-1S16.448,15,17,15z M22.773,20.33
		C22.21,21.927,20.694,23,19,23c-1.713,0-3.234-1.089-3.786-2.709c-0.179-0.523,0.102-1.091,0.624-1.269
		c0.522-0.176,1.091,0.102,1.269,0.625C17.383,20.456,18.144,21,19,21c0.848,0,1.605-0.537,1.887-1.335
		c0.185-0.521,0.759-0.793,1.275-0.611C22.684,19.238,22.957,19.809,22.773,20.33z"/>
	<path d="M41,3h-7.938C33.043,3,33.02,3,33,3h-4.188C28.359,1.289,26.848,0,25,0s-3.359,1.289-3.812,3H9C7.348,3,6,4.348,6,6v39
		c0,1.652,1.348,3,3,3h32c1.652,0,3-1.348,3-3V6C44,4.348,42.652,3,41,3z M18,5h4c0.551,0,1-0.449,1-1c0-1.117,0.883-2,2-2
		s2,0.883,2,2c0,0.551,0.449,1,1,1h4v3H18V5z M19,45c-4.411,0-8-3.589-8-8s3.589-8,8-8s8,3.589,8,8S23.411,45,19,45z M19,27
		c-4.411,0-8-3.589-8-8s3.589-8,8-8s8,3.589,8,8S23.411,27,19,27z M38,38h-7c-0.553,0-1-0.447-1-1s0.447-1,1-1h7
		c0.553,0,1,0.447,1,1S38.553,38,38,38z M38.844,17.562l-3.938,5.875c-0.008,0.031-0.02,0.062-0.031,0.094l-0.031,0.031
		c-0.012,0.012-0.02,0.02-0.031,0.031c-0.02,0.031-0.039,0.062-0.062,0.094c-0.027,0.035-0.059,0.066-0.094,0.094
		c-0.02,0.012-0.043,0.023-0.062,0.031c-0.02,0.023-0.039,0.043-0.062,0.062c-0.031,0.012-0.062,0.023-0.094,0.031
		c-0.02,0.012-0.043,0.023-0.062,0.031c-0.07,0.027-0.145,0.051-0.219,0.062c-0.012,0-0.02,0-0.031,0
		c-0.062,0.004-0.125,0.004-0.188,0c-0.012,0-0.02,0-0.031,0c-0.02,0-0.043,0-0.062,0c-0.012,0-0.02,0-0.031,0
		c-0.02-0.008-0.043-0.02-0.062-0.031c-0.012,0-0.02,0-0.031,0c-0.02-0.008-0.043-0.02-0.062-0.031c-0.012,0-0.02,0-0.031,0
		c-0.02-0.008-0.043-0.02-0.062-0.031c-0.02-0.008-0.043-0.02-0.062-0.031c-0.043-0.02-0.086-0.039-0.125-0.062
		c-0.012-0.012-0.02-0.02-0.031-0.031s-0.02-0.02-0.031-0.031s-0.02-0.02-0.031-0.031l-0.062-0.062
		c-0.023-0.02-0.043-0.039-0.062-0.062l-2.875-2.875c-0.277-0.258-0.387-0.648-0.281-1.016c0.105-0.363,0.406-0.637,0.781-0.703
		c0.039-0.012,0.082-0.023,0.125-0.031c0.305-0.023,0.605,0.09,0.812,0.312l2.125,2.125l3.312-4.969
		c0.141-0.223,0.367-0.379,0.625-0.438c0.02-0.012,0.043-0.023,0.062-0.031c0.051-0.016,0.102-0.023,0.156-0.031
		c0.395-0.027,0.77,0.184,0.953,0.539C39.137,16.828,39.094,17.254,38.844,17.562z"/>
</g>
</svg>