<?xml version="1.0" encoding="iso-8859-1"?><!-- Generator: Adobe Illustrator 21.1.0, SVG Export Plug-In . SVG Version: 6.00 Build 0)  --><svg xmlns="http://www.w3.org/2000/svg" xmlns:xlink="http://www.w3.org/1999/xlink" viewBox="0 0 50 50" width="500px" height="500px"><circle style="fill:none;stroke:#000000;stroke-width:2;stroke-linecap:round;stroke-miterlimit:10;" cx="25" cy="5" r="2"/><circle style="fill:none;stroke:#000000;stroke-width:2;stroke-linecap:round;stroke-miterlimit:10;" cx="7" cy="14" r="2"/><circle style="fill:none;stroke:#000000;stroke-width:2;stroke-linecap:round;stroke-miterlimit:10;" cx="25" cy="45" r="2"/><circle style="fill:none;stroke:#000000;stroke-width:2;stroke-linecap:round;stroke-miterlimit:10;" cx="43" cy="14" r="2"/><circle style="fill:none;stroke:#000000;stroke-width:2;stroke-linecap:round;stroke-miterlimit:10;" cx="7" cy="36" r="2"/><circle style="fill:none;stroke:#000000;stroke-width:2;stroke-linecap:round;stroke-miterlimit:10;" cx="43" cy="36" r="2"/><line style="fill:none;stroke:#000000;stroke-width:2;stroke-linecap:round;stroke-linejoin:round;stroke-miterlimit:10;" x1="25" y1="7" x2="25" y2="12"/><line style="fill:none;stroke:#000000;stroke-width:2;stroke-linecap:round;stroke-linejoin:round;stroke-miterlimit:10;" x1="25" y1="43" x2="25" y2="37"/><path d="M27,28.338V26.4c0.316-0.176,1.791-1.369,1.791-2.446c0.249-0.021,0.641-0.28,0.756-1.297c0.062-0.546-0.132-0.891-0.334-0.951C30.003,19.204,29.429,16,26,16l-0.273-1c-4.727,0-6.049,2.969-4.959,6.689c-0.149,0.097-0.396,0.404-0.334,0.951c0.115,1.018,0.507,1.276,0.756,1.297c0,1.14,1.493,2.286,1.81,2.463v1.938c-0.72,2.058-6,1.662-6,5.054C17,33.71,17.175,34,17.493,34h15.014C32.825,34,33,33.71,33,33.392C33,30,27.72,30.395,27,28.338z"/><line style="fill:none;stroke:#000000;stroke-width:2;stroke-linecap:round;stroke-linejoin:round;stroke-miterlimit:10;" x1="33" y1="20" x2="41" y2="15.222"/><line style="fill:none;stroke:#000000;stroke-width:2;stroke-linecap:round;stroke-linejoin:round;stroke-miterlimit:10;" x1="9" y1="34.778" x2="13.999" y2="31.723"/><line style="fill:none;stroke:#000000;stroke-width:2;stroke-linecap:round;stroke-linejoin:round;stroke-miterlimit:10;" x1="17" y1="20" x2="9" y2="15.222"/><line style="fill:none;stroke:#000000;stroke-width:2;stroke-linecap:round;stroke-linejoin:round;stroke-miterlimit:10;" x1="41" y1="34.778" x2="36" y2="31.723"/></svg>