<?xml version="1.0" encoding="iso-8859-1"?>
<!-- Generator: Adobe Illustrator 24.0.1, SVG Export Plug-In . SVG Version: 6.00 Build 0)  -->
<svg version="1.1" id="&#x421;&#x43B;&#x43E;&#x439;_1"
	 xmlns="http://www.w3.org/2000/svg" xmlns:xlink="http://www.w3.org/1999/xlink" x="0px" y="0px" viewBox="0 0 50 50"
	 style="enable-background:new 0 0 50 50;" xml:space="preserve">
<g>
	<path d="M36.992,46.002H0.004l0.064-1.061c0.338-5.587,4.822-7.323,8.426-8.718c2.02-0.782,3.932-1.521,4.512-2.74
		c-0.001-0.682-0.005-1.255-0.009-1.813c-0.003-0.442-0.006-0.875-0.007-1.344c-0.84-0.892-1.607-2.716-1.904-4.239
		c-0.657-0.354-1.454-1.196-1.697-3.196c-0.122-1.019,0.177-1.805,0.589-2.324c-1.112-4.618-0.779-8.142,0.992-10.48
		c1.512-1.995,4.009-3.039,7.424-3.101c2.239,0,3.913,0.595,4.801,1.688c1.586,0.318,2.792,1.128,3.589,2.412
		c1.87,3.013,0.801,7.668,0.261,9.514c0.4,0.52,0.684,1.294,0.562,2.293c-0.242,2-1.039,2.842-1.697,3.195
		c-0.297,1.498-1.063,3.292-1.902,4.176c0,1.061-0.002,1.928-0.015,3.158c0.583,1.218,2.493,1.968,4.51,2.759
		c3.604,1.414,8.09,3.174,8.427,8.761L36.992,46.002z"/>
</g>
<path d="M40,0c-5.514,0-10,4.486-10,10c0,2.022,0.6,3.954,1.739,5.62l-1.688,5.063c-0.134,0.4-0.002,0.841,0.33,1.102
	C30.562,21.928,30.78,22,31,22c0.184,0,0.367-0.05,0.53-0.152l4.369-2.731C37.193,19.703,38.57,20,40,20c5.514,0,10-4.486,10-10
	S45.514,0,40,0z M41,14.8c0,0.1-0.1,0.2-0.2,0.2h-1.6c-0.1,0-0.2-0.1-0.2-0.2v-1.6c0-0.1,0.1-0.2,0.2-0.2h1.6c0.1,0,0.2,0.1,0.2,0.2
	V14.8z M41,10.8c0,0.1-0.1,0.2-0.2,0.2h-1.6c-0.1,0-0.2-0.1-0.2-0.2V5.2C39,5.1,39.1,5,39.2,5h1.6C40.9,5,41,5.1,41,5.2V10.8z"/>
</svg>