<?xml version="1.0" encoding="utf-8"?><!-- Generator: Adobe Illustrator 15.0.0, SVG Export Plug-In . SVG Version: 6.00 Build 0)  --><!DOCTYPE svg PUBLIC "-//W3C//DTD SVG 1.1//EN" "http://www.w3.org/Graphics/SVG/1.1/DTD/svg11.dtd"><svg xmlns="http://www.w3.org/2000/svg" xmlns:xlink="http://www.w3.org/1999/xlink" viewBox="0 0 50 50" width="500px" height="500px"><g><path d="M11.9,38.7H8.6c-0.552,0-1-0.447-1-1V18H1c-0.552,0-1-0.448-1-1v-3c0-0.552,0.448-1,1-1h18.5c0.552,0,1,0.448,1,1v3c0,0.552-0.448,1-1,1h-6.6v19.7C12.9,38.253,12.452,38.7,11.9,38.7z"/><path d="M49,38.7h-3.2c-0.553,0-1-0.447-1-1V23.03l-6.175,15.05c-0.153,0.375-0.52,0.62-0.925,0.62H35.6c-0.405,0-0.771-0.245-0.925-0.62L28.5,23.03V37.7c0,0.553-0.447,1-1,1h-3.2c-0.552,0-1-0.447-1-1V14c0-0.552,0.448-1,1-1h4.8c0.403,0,0.767,0.242,0.922,0.614l6.628,15.819l6.629-15.819C43.434,13.242,43.797,13,44.2,13H49c0.553,0,1,0.448,1,1v23.7C50,38.253,49.553,38.7,49,38.7z"/></g></svg>