<?xml version="1.0" encoding="utf-8"?><!-- Generator: Adobe Illustrator 18.0.0, SVG Export Plug-In . SVG Version: 6.00 Build 0)  --><!DOCTYPE svg PUBLIC "-//W3C//DTD SVG 1.0//EN" "http://www.w3.org/TR/2001/REC-SVG-20010904/DTD/svg10.dtd"><svg xmlns="http://www.w3.org/2000/svg" xmlns:xlink="http://www.w3.org/1999/xlink" viewBox="0 0 50 50" width="500px" height="500px"><path fill="none" stroke="#000000" stroke-width="2" stroke-linecap="round" stroke-linejoin="round" stroke-miterlimit="10" d="M10.3,36L5,36l-4-7l0-2c0-1.1,0.9-2,2-2h44c1.1,0,2,0.9,2,2v2l-4,7h-5.1"/><path fill="none" stroke="#000000" stroke-width="2" stroke-linecap="round" stroke-linejoin="round" stroke-miterlimit="10" d="M37.6,49L40,34.1c0.1-0.6-0.4-1.1-0.9-1.1H10.9c-0.6,0-1,0.5-0.9,1.1L12.4,49"/><line fill="none" stroke="#000000" stroke-width="2" stroke-linecap="round" stroke-linejoin="round" stroke-miterlimit="10" x1="1" y1="29" x2="48.9" y2="29"/><circle fill="none" stroke="#000000" stroke-width="2" stroke-linecap="round" stroke-linejoin="round" stroke-miterlimit="10" cx="42" cy="18" r="2"/><path fill="none" stroke="#000000" stroke-width="2" stroke-linecap="round" stroke-linejoin="round" stroke-miterlimit="10" d="M46.2,24.8c0-2.7-0.6-4.1-2.8-5.4"/><path fill="none" stroke="#000000" stroke-width="2" stroke-linecap="round" stroke-linejoin="round" stroke-miterlimit="10" d="M37.8,25c-0.8-2.2-4.4-4.1-8.4-4.9c0,0-1.7-0.4-0.9-2c1-1.3,1.6-2.7,1.7-3.2c0,0,1.5-1.1,1.6-2.8c0.1-1.7-0.3-1.8-0.3-1.8c0.6-1.9,0.8-8.6-4-7.8c-0.7-1.8-5.7-2.9-8.1,1c-1.2,1.9-1.6,4.6-0.7,6.8c0,0.2-0.3-0.2-0.4,0.8c-0.1,1,0.4,2.3,0.9,3c0.2,0.3,0.6,0.5,0.8,0.6c0,0,0.3,1.7,1.7,3.3c0.3,1.3-1,2-1,2c-4,0.7-7.7,2.7-8.5,4.9"/></svg>