<?xml version="1.0" encoding="iso-8859-1"?><!-- Generator: Adobe Illustrator 21.0.0, SVG Export Plug-In . SVG Version: 6.00 Build 0)  --><svg xmlns="http://www.w3.org/2000/svg" xmlns:xlink="http://www.w3.org/1999/xlink" viewBox="0 0 50 50" width="500px" height="500px"><polyline style="fill:none;stroke:#000000;stroke-width:2;stroke-miterlimit:10;" points="36,14 36,4 26,4 "/><polyline style="fill:none;stroke:#000000;stroke-width:2;stroke-miterlimit:10;" points="13,17 21,9 26,14 36,4 "/><path d="M46,21H4c-0.553,0-1,0.448-1,1v24c0,0.552,0.447,1,1,1h42c0.553,0,1-0.448,1-1V22C47,21.448,46.553,21,46,21z M10,45H5V23h5V45z M31,40c-0.553,0-1-0.448-1-1s0.447-1,1-1c1.103,0,2-0.897,2-2s-0.897-2-2-2h-1c-0.553,0-1-0.448-1-1c0-2.206-1.794-4-4-4s-4,1.794-4,4c0,0.552-0.447,1-1,1h-1c-1.103,0-2,0.897-2,2s0.897,2,2,2c0.553,0,1,0.448,1,1s-0.447,1-1,1c-2.206,0-4-1.794-4-4s1.794-4,4-4h0.083c0.478-2.834,2.949-5,5.917-5s5.439,2.166,5.917,5H31c2.206,0,4,1.794,4,4S33.206,40,31,40z M45,45h-5V23h5V45z"/></svg>