<?xml version="1.0" encoding="iso-8859-1"?><!-- Generator: Adobe Illustrator 21.1.0, SVG Export Plug-In . SVG Version: 6.00 Build 0)  --><svg xmlns="http://www.w3.org/2000/svg" xmlns:xlink="http://www.w3.org/1999/xlink" viewBox="0 0 50 50" width="500px" height="500px"><path d="M45,4H5C4.45,4,4,4.45,4,5v40c0,0.55,0.45,1,1,1h40c0.55,0,1-0.45,1-1V5C46,4.45,45.55,4,45,4z M12.82,10c1.33,0,2.5,0.67,3.18,1.7c0.68-1.03,1.85-1.7,3.18-1.7c2.11,0,3.82,1.7,3.82,3.79c0,4.42-5.09,6.63-7,8.21c-1.91-1.58-7-3.79-7-8.21C9,11.7,10.71,10,12.82,10z M24,41H8v-2h16V41z M24,35H8v-2h16V35z M24,29H8v-2h16V29z M42,41H26v-2h16V41z M42,35H26v-2h16V35z M42,29H26v-2h16V29z M42,23H26v-2h16V23z M42,17H26v-2h16V17z M42,11H26V9h16V11z"/></svg>