<?xml version="1.0" encoding="iso-8859-1"?><!-- Generator: Adobe Illustrator 22.0.1, SVG Export Plug-In . SVG Version: 6.00 Build 0)  --><svg xmlns="http://www.w3.org/2000/svg" xmlns:xlink="http://www.w3.org/1999/xlink" viewBox="0 0 50 50" width="500px" height="500px"><path style="fill:none;stroke:#000000;stroke-width:2;stroke-linecap:round;stroke-miterlimit:10;" d="M18,19c4.384,0,10-2.453,10-8.04C28,6.564,24.175,3,18,3C10.781,3,8,7.624,8,11.148C8,16.667,13.616,19,18,19z"/><path style="fill:none;stroke:#000000;stroke-width:2;stroke-linecap:round;stroke-miterlimit:10;" d="M21.505,18.5C23.473,20.922,27.021,22,30,22c4.384,0,10-2.453,10-8.04C40,9.564,36.175,6,30,6c-1.363,0-2.567,0.165-3.625,0.456"/><ellipse cx="3.5" cy="27.5" rx="1.5" ry="1.5"/><ellipse style="fill:none;stroke:#000000;stroke-width:2;stroke-linecap:round;stroke-miterlimit:10;" cx="5.5" cy="21" rx="2.5" ry="2"/><ellipse cx="46.5" cy="27.5" rx="1.5" ry="1.5"/><ellipse style="fill:none;stroke:#000000;stroke-width:2;stroke-linecap:round;stroke-miterlimit:10;" cx="44.5" cy="21" rx="2.5" ry="2"/><path style="fill:none;stroke:#000000;stroke-width:2;stroke-linecap:round;stroke-linejoin:round;stroke-miterlimit:10;" d="M15.5,40v-2.25c0.415-0.213,1.249-1.605,1.375-2.75c0.5,0,1.125-0.25,1.125-1.5c0-1-0.5-1.25-0.5-1.25s0.5-1.625,0.5-2.5C18,28,17.049,26,14.625,26l-0.594-1C10.033,25,8,27,8,29.75c0,0.875,0.5,2.5,0.5,2.5S8,32.5,8,33.5C8,34.75,8.625,35,9.125,35c0.125,1.145,0.959,2.537,1.375,2.75V40c-0.996,2.616-7.19,1.956-7.5,7h21C23.69,41.956,16.497,42.615,15.5,40z"/><path style="fill:none;stroke:#000000;stroke-width:2;stroke-linecap:round;stroke-linejoin:round;stroke-miterlimit:10;" d="M38.5,40v-2.25c0.415-0.213,1.249-1.605,1.375-2.75c0.5,0,1.125-0.25,1.125-1.5c0-1-0.5-1.25-0.5-1.25s0.5-1.625,0.5-2.5C41,28,40.049,26,37.625,26l-0.594-1C33.033,25,31,27,31,29.75c0,0.875,0.5,2.5,0.5,2.5S31,32.5,31,33.5c0,1.25,0.625,1.5,1.125,1.5c0.125,1.145,0.959,2.537,1.375,2.75V40c-0.996,2.616-7.19,1.956-7.5,7h21C46.69,41.956,39.497,42.615,38.5,40z"/><rect x="23" y="47" width="4" height="1"/></svg>