<?xml version="1.0" encoding="iso-8859-1"?><!-- Generator: Adobe Illustrator 23.0.1, SVG Export Plug-In . SVG Version: 6.00 Build 0)  --><svg xmlns="http://www.w3.org/2000/svg" xmlns:xlink="http://www.w3.org/1999/xlink" viewBox="0 0 50 50" width="500px" height="500px"><path style="fill:none;stroke:#000000;stroke-width:2;stroke-linecap:round;stroke-linejoin:round;stroke-miterlimit:10;" d="M40.022,31c0-0.599,0-2.898,0-3.497c0-1.398-1.103-2.497-2.506-2.497s-2.506,1.099-2.506,2.497c0,0.599,0-0.101,0,0.498"/><path style="fill:none;stroke:#000000;stroke-width:2;stroke-linecap:round;stroke-linejoin:round;stroke-miterlimit:10;" d="M35.01,31v-4.496c0-1.398-1.103-2.497-2.506-2.497c-1.403,0-2.506,1.099-2.506,2.497c0,0.599,0,3.897,0,4.496"/><path style="fill:none;stroke:#000000;stroke-width:2;stroke-linecap:round;stroke-linejoin:round;stroke-miterlimit:10;" d="M29.997,31c0-0.599,0-12.921,0-13.52c0-1.398-1.103-2.497-2.506-2.497c-1.403,0-2.506,1.099-2.506,2.497c0,0.599,0,16.779,0,16.779s-2.506-3.093-3.007-3.493c-1.203-1.099-3.108-0.999-4.21,0.2c-1.103,1.199-0.902,2.996,0.2,4.195c7.766,9.17,8.93,10.941,16.032,10.816c0.324-0.006,3.65-0.015,4-0.028c4,0,7.034-3.948,7.034-7.948c0,0,0-8.571,0-9.17c0-1.398-1.103-2.497-2.506-2.497S40.022,27.602,40.022,29c0,0.599,0,1.401,0,2"/><g><path d="M20,10.029v7.942c1.266-0.121,2-0.746,2-3.971S21.266,10.15,20,10.029z"/><polygon points="11.972,16 14.051,16 12.989,11.527 "/></g><path d="M32,3H8C5.791,3,4,4.791,4,7v14c0,2.209,1.791,4,4,4h17v-7.5c0-1.381,1.119-2.5,2.5-2.5c0.032,0,0.062,0.008,0.094,0.009c-0.102-0.103-0.202-0.204-0.3-0.301C26.165,13.58,25,12.414,25,11c0-2.201,1.794-3,3-3c1.487,0,2.483,0.913,2.836,1.452l-1.673,1.097C29.157,10.54,28.764,10,28,10c-0.45,0.012-1,0.195-1,1c0,0.586,0.946,1.532,1.706,2.292C29.835,14.42,31,15.586,31,17c0,1.069-0.427,1.802-1,2.279V25h2c2.209,0,4-1.791,4-4V7C36,4.791,34.209,3,32,3z M15,20l-0.475-2h-3.008l-0.455,2H9l3.072-12h1.917l3.073,12H15z M19,20h-1V8h1c2.53,0,5,0.463,5,6S21.53,20,19,20z"/></svg>