<?xml version="1.0" encoding="utf-8"?><!-- Generator: Adobe Illustrator 19.1.1, SVG Export Plug-In . SVG Version: 6.00 Build 0)  --><svg xmlns="http://www.w3.org/2000/svg" xmlns:xlink="http://www.w3.org/1999/xlink" viewBox="0 0 50 50" width="500px" height="500px"><circle cx="4" cy="25" r="1"/><circle cx="7" cy="25" r="1"/><circle cx="10" cy="25" r="1"/><circle cx="13" cy="25" r="1"/><circle cx="16" cy="25" r="1"/><circle cx="19" cy="25" r="1"/><circle cx="22" cy="25" r="1"/><circle cx="40" cy="25" r="1"/><circle cx="43" cy="25" r="1"/><circle cx="46" cy="25" r="1"/><polyline fill="none" stroke="#000000" stroke-width="4" stroke-linecap="round" stroke-linejoin="round" stroke-miterlimit="10" points="46,9 15.9,41 4,41 "/><path d="M37.3,24.1l-1.2,1.3c0.1,0.4,0.5,0.6,0.9,0.6c0.6,0,1-0.4,1-1C38,24.6,37.7,24.2,37.3,24.1z"/><path d="M24.6,25.9l1.3-1.4C25.7,24.2,25.4,24,25,24c-0.6,0-1,0.4-1,1C24,25.4,24.2,25.7,24.6,25.9z"/></svg>