<?xml version="1.0" encoding="iso-8859-1"?><!-- Generator: Adobe Illustrator 19.1.1, SVG Export Plug-In . SVG Version: 6.00 Build 0)  --><svg xmlns="http://www.w3.org/2000/svg" xmlns:xlink="http://www.w3.org/1999/xlink" viewBox="-280 372 50 50" width="500px" height="500px"><polyline style="fill:none;stroke:#000000;stroke-width:2;stroke-linecap:round;stroke-miterlimit:10;" points="-249,406 -253.5,408 -256.5,408 -261,406 "/><path style="fill:none;stroke:#000000;stroke-width:2;stroke-linecap:round;stroke-linejoin:round;stroke-miterlimit:10;" d="M-246.874,407.263c-1.525-0.723-2.74-1.567-3.226-2.863c-0.1-1.6-0.1-2.8-0.1-4.2c0.7-0.4,2-2.9,2.3-4.9c0.6,0,1.5-0.6,1.7-2.8c0.1-1.2-0.3-2-0.8-2.1c1.8-2.3,1.5-11.4-5-11.4l-1-2c-9.4,0-12.8,7.2-10.1,13.3c-0.3,0.2-0.9,0.9-0.8,2.1c0.3,2.2,1.2,2.8,1.7,2.8c0.2,2.1,1.6,4.5,2.3,4.9c0,1.5,0.1,2.6-0.1,4.2c-0.408,1.25-1.486,2.09-2.875,2.8"/><path d="M-246.765,406.204l-6.338,2.553L-254,411l2,7c8.201,0,15.554,0,16,0c1.031,0,1-1,1-1C-235,409.522-242.339,408.422-246.765,406.204z"/><path d="M-256.902,408.744l-6.223-2.619C-267.496,408.428-275,409.437-275,417c0,0,0,1,1,1c2.437,0,9,0,16,0l2-7L-256.902,408.744z"/></svg>