<?xml version="1.0" encoding="iso-8859-1"?><!-- Generator: Adobe Illustrator 23.0.3, SVG Export Plug-In . SVG Version: 6.00 Build 0)  --><svg xmlns="http://www.w3.org/2000/svg" xmlns:xlink="http://www.w3.org/1999/xlink" viewBox="0 0 50 50" width="500px" height="500px"><circle cx="40" cy="40" r="2"/><polyline style="fill:none;stroke:#000000;stroke-width:2;stroke-linecap:round;stroke-miterlimit:10;" points="40,40 47,32 47,30 "/><line style="fill:none;stroke:#000000;stroke-width:2;stroke-linecap:round;stroke-miterlimit:10;" x1="47" y1="32" x2="49" y2="32"/><g><path d="M48.53,34.808l-1.395,1.594C47.684,37.485,48,38.705,48,40c0,4.411-3.589,8-8,8s-8-3.589-8-8s3.589-8,8-8c0.919,0,1.798,0.163,2.62,0.45l1.4-1.599C42.788,30.307,41.43,30,40,30c-5.514,0-10,4.486-10,10s4.486,10,10,10s10-4.486,10-10C50,38.097,49.456,36.323,48.53,34.808z"/><path d="M44,40c0,2.206-1.794,4-4,4s-4-1.794-4-4c0-2.023,1.514-3.682,3.466-3.946l1.696-1.939C40.786,34.041,40.398,34,40,34c-3.309,0-6,2.691-6,6s2.691,6,6,6s6-2.691,6-6c0-0.676-0.117-1.324-0.324-1.93l-1.677,1.917C43.999,39.991,44,39.995,44,40z"/></g><path d="M31,40c0-2.228-0.058-3.212,1-5c-0.777-0.458-3.7-2.063-4-2.702v-3.551c0.846-0.916,1.69-2.828,2.001-4.57c0.712-0.35,1.59-1.24,1.795-3.493c0.095-1.126-0.215-1.954-0.641-2.488c0.849-2.728,1.594-7.402-0.203-10.373C30.1,6.414,28.8,5.528,27.083,5.185C26.117,3.965,24.301,3.3,21.879,3.3h-0.001C18.193,3.383,15.5,4.51,13.873,6.649c-1.926,2.534-2.287,6.417-1.076,11.547c-0.413,0.531-0.785,1.38-0.688,2.54c0.296,2.159,1.116,3.049,1.785,3.414c0.308,1.75,1.156,3.676,2.007,4.597v3.562c-0.611,1.375-2.601,2.171-4.892,3.088c-3.864,1.546-8.673,3.47-9.007,9.549L1.943,46H32C30.977,44.234,31,42.188,31,40z M26,27.719v4.78c-0.018,0.374-1.464,1.5-4,1.5c-2.489,0-4-1.042-4-1.5c0-0.152-0.039-0.292-0.1-0.421V28.3l0.02-0.568l-0.504-0.288c-0.381-0.284-1.44-2.243-1.621-4.139l-0.013-0.896h-0.909c-0.142-0.055-0.589-0.53-0.777-1.892c-0.069-0.839,0.359-1.185,0.358-1.185l0.59-0.392l-0.174-0.686c-1.213-4.783-1.012-8.281,0.596-10.395c1.239-1.63,3.412-2.492,6.435-2.56c1.891,0,3.252,0.476,3.736,1.304l0.244,0.419L26.36,7.09c1.332,0.188,2.274,0.766,2.881,1.768c1.448,2.395,0.685,6.877-0.183,9.305l-0.316,0.824l0.793,0.396c0.089,0.063,0.329,0.408,0.269,1.125C29.669,21.988,29.2,22.382,29.1,22.4H28.19l-0.086,0.906c-0.181,1.896-1.239,3.854-1.601,4.126L26,27.719z"/></svg>