<?xml version="1.0" encoding="iso-8859-1"?><!-- Generator: Adobe Illustrator 23.0.3, SVG Export Plug-In . SVG Version: 6.00 Build 0)  --><svg xmlns="http://www.w3.org/2000/svg" xmlns:xlink="http://www.w3.org/1999/xlink" viewBox="0 0 50 50" width="500px" height="500px"><path style="fill:none;stroke:#000000;stroke-width:2;stroke-miterlimit:10;" d="M22,26h21c1.105,0,2-0.895,2-2V9c0-1.105-0.895-2-2-2H9"/><circle style="fill:none;stroke:#000000;stroke-width:2;stroke-miterlimit:10;" cx="7" cy="7" r="2"/><circle style="fill:none;stroke:#000000;stroke-width:2;stroke-miterlimit:10;" cx="43" cy="42" r="2"/><polyline style="fill:none;stroke:#000000;stroke-width:2;stroke-miterlimit:10;" points="29,19 22,26 29,33 "/><circle cx="9" cy="42" r="1"/><circle cx="13" cy="42" r="1"/><circle cx="5" cy="38" r="1"/><circle cx="5" cy="34" r="1"/><circle cx="5" cy="30" r="1"/><circle cx="5" cy="26" r="1"/><circle cx="9" cy="26" r="1"/><circle cx="13" cy="26" r="1"/><circle cx="17" cy="26" r="1"/><circle cx="5" cy="42" r="1"/><circle cx="17" cy="42" r="1"/><circle cx="21" cy="42" r="1"/><circle cx="25" cy="42" r="1"/><circle cx="29" cy="42" r="1"/><circle cx="33" cy="42" r="1"/><circle cx="37" cy="42" r="1"/></svg>