<?xml version="1.0" encoding="utf-8"?><!-- Generator: Adobe Illustrator 19.1.1, SVG Export Plug-In . SVG Version: 6.00 Build 0)  --><svg xmlns="http://www.w3.org/2000/svg" xmlns:xlink="http://www.w3.org/1999/xlink" viewBox="0 0 50 50" width="500px" height="500px"><circle cx="43" cy="25" r="1"/><circle cx="46" cy="25" r="1"/><circle cx="7" cy="25" r="1"/><circle cx="4" cy="25" r="1"/><circle cx="10" cy="25" r="1"/><circle cx="13" cy="25" r="1"/><circle cx="16" cy="25" r="1"/><circle cx="34" cy="25" r="1"/><circle cx="37" cy="25" r="1"/><circle cx="40" cy="25" r="1"/><path d="M18.5,25.8l1.3-1.3C19.7,24.2,19.4,24,19,24c-0.6,0-1,0.4-1,1C18,25.4,18.2,25.7,18.5,25.8z"/><path d="M31.5,24.2l-1.3,1.3c0.2,0.3,0.5,0.5,0.8,0.5c0.6,0,1-0.4,1-1C32,24.6,31.8,24.3,31.5,24.2z"/><path d="M45,2h-8c-1.7,0-3,1.3-3,3v8c0,1.7,1.3,3,3,3h8c1.7,0,3-1.3,3-3V5C48,3.3,46.7,2,45,2z M44.2,10.8c0.4,0.4,0.4,1,0,1.4c-0.2,0.2-0.5,0.3-0.7,0.3s-0.5-0.1-0.7-0.3L41,10.4l-1.8,1.8c-0.2,0.2-0.5,0.3-0.7,0.3s-0.5-0.1-0.7-0.3c-0.4-0.4-0.4-1,0-1.4L39.6,9l-1.8-1.8c-0.4-0.4-0.4-1,0-1.4s1-0.4,1.4,0L41,7.6l1.8-1.8c0.4-0.4,1-0.4,1.4,0s0.4,1,0,1.4L42.4,9L44.2,10.8z"/><path d="M32.4,14.8L5.6,41.6c-0.8,0.8-0.8,2,0,2.8C6,44.8,6.5,45,7,45s1-0.2,1.4-0.6l26.8-26.8C33.9,17.1,32.9,16.1,32.4,14.8z"/></svg>