<?xml version="1.0" encoding="iso-8859-1"?><!-- Generator: Adobe Illustrator 19.2.1, SVG Export Plug-In . SVG Version: 6.00 Build 0)  --><svg xmlns="http://www.w3.org/2000/svg" xmlns:xlink="http://www.w3.org/1999/xlink" viewBox="0 0 50 50" width="500px" height="500px"><path d="M9.899,6C9.435,3.721,7.415,2,5,2C2.243,2,0,4.243,0,7v24c0,2.757,2.243,5,5,5h37V6H9.899z M8,27.026C7.162,26.391,6.13,26,5,26s-2.162,0.391-3,1.026V7c0-1.654,1.346-3,3-3s3,1.346,3,3V27.026z M35,29H14v-2h21V29z M35,19l-2.349-2.349l-6.72,6.354l-5-5.25l-5.609,5.305l-1.374-1.453l7.058-6.674l5,5.25l5.231-4.946L29,13h6V19z"/><path style="fill:none;stroke:#000000;stroke-width:2;stroke-linecap:round;stroke-miterlimit:10;" d="M6.38,38c0.703,0.615,1.613,1,2.62,1h36V11h-1"/><path style="fill:none;stroke:#000000;stroke-width:2;stroke-linecap:round;stroke-miterlimit:10;" d="M10.38,42c0.703,0.615,1.613,1,2.62,1h36V15h-1"/></svg>