<?xml version="1.0" encoding="iso-8859-1"?>
<!-- Generator: Adobe Illustrator 23.0.6, SVG Export Plug-In . SVG Version: 6.00 Build 0)  -->
<svg version="1.1" xmlns="http://www.w3.org/2000/svg" xmlns:xlink="http://www.w3.org/1999/xlink" x="0px" y="0px"
	 viewBox="0 0 50 50" style="enable-background:new 0 0 50 50;" xml:space="preserve">
<g id="Perch">
</g>
<g id="Acupuncture">
</g>
<g id="Cover_Up">
	<path style="fill:none;stroke:#000000;stroke-width:2;stroke-linejoin:round;stroke-miterlimit:10;" d="M26.311,5.243L31,26l5-1
		L29.234,4.671C29.094,4.269,28.715,4,28.289,4h-1.008C26.63,4,26.153,4.611,26.311,5.243z"/>
	<g>
		<path d="M30.29,25.29l1.42,1.42c-0.85,0.85-1.53,1.95-2.05,3.17c-0.55-0.39-1.16-0.7-1.8-0.92C28.47,27.56,29.28,26.3,30.29,25.29
			z"/>
		<path d="M50,44c0,0.55-0.45,1-1,1h-9.11c0.59-0.57,1.08-1.25,1.43-2h6.63c-0.33-3.34-2.36-5.24-5.08-7.8
			c-2.55-2.39-5.44-5.11-7.76-9.75l1.78-0.9c2.17,4.33,4.92,6.91,7.34,9.19C47.33,36.65,50,39.16,50,44z"/>
	</g>
	<g>
		
			<polyline style="fill:none;stroke:#000000;stroke-width:2;stroke-linecap:round;stroke-linejoin:round;stroke-miterlimit:10;" points="
			9,28 1,28 1,44 12,44 		"/>
		
			<line style="fill:none;stroke:#000000;stroke-width:2;stroke-linecap:round;stroke-linejoin:round;stroke-miterlimit:10;" x1="17" y1="39" x2="20" y2="25"/>
		<path style="fill:none;stroke:#000000;stroke-width:2;stroke-linecap:round;stroke-linejoin:round;stroke-miterlimit:10;" d="
			M10,25c1-4,2.239-5,5-5s5.767,1.932,5,5"/>
		<path style="fill:none;stroke:#000000;stroke-width:2;stroke-linecap:round;stroke-linejoin:round;stroke-miterlimit:10;" d="
			M10,25L7,38c0,0,0.499-1.256,0.817-1.74C8.71,34.899,10.25,34,12,34c2.761,0,5,2.239,5,5s-2.239,5-5,5"/>
	</g>
	<g>
		<path d="M35,45c-1.255,0-2.438-0.46-3.344-1.284c-1.25,0.437-2.644,0.356-3.813-0.209C27.002,44.446,25.793,45,24.5,45
			c-1.533,0-2.955-0.798-3.767-2.054C20.493,42.982,20.248,43,20,43c-1.585,0-3.043-0.729-3.999-1.999
			c-0.189-0.251-0.25-0.578-0.162-0.88C15.947,39.749,16,39.382,16,39c0-0.07,0.007-0.141,0.022-0.209l0.95-4.43
			c0.058-0.271,0.226-0.505,0.463-0.648c0.922-0.553,2.045-0.788,3.056-0.689c1.062-1.573,2.825-2.523,4.759-2.523
			c1.935,0,3.697,0.964,4.744,2.505C30.849,32.361,31.901,32,33,32c2.36,0,4.378,1.652,4.88,3.916C39.199,36.849,40,38.373,40,40
			C40,42.757,37.757,45,35,45z M31.899,41.52c0.295,0,0.585,0.131,0.781,0.375C33.244,42.597,34.089,43,35,43c1.654,0,3-1.346,3-3
			c0-1.074-0.584-2.075-1.525-2.611c-0.275-0.157-0.459-0.434-0.498-0.748C35.795,35.135,34.515,34,33,34
			c-0.977,0-1.893,0.476-2.45,1.273c-0.216,0.309-0.59,0.471-0.961,0.417c-0.374-0.053-0.685-0.312-0.806-0.669
			c-0.51-1.508-1.93-2.521-3.533-2.521c-1.429,0-2.715,0.796-3.355,2.077c-0.214,0.429-0.705,0.644-1.165,0.516
			c-0.554-0.155-1.284-0.116-1.9,0.148l-0.83,3.869c-0.006,0.347-0.042,0.687-0.107,1.024c0.789,0.783,2.025,1.065,3.037,0.711
			c0.509-0.177,1.068,0.08,1.263,0.583C22.557,42.369,23.484,43,24.5,43c0.915,0,1.754-0.5,2.19-1.306
			c0.139-0.257,0.384-0.44,0.67-0.502c0.286-0.061,0.585,0.006,0.817,0.184c0.934,0.714,2.218,0.816,3.25,0.263
			C31.577,41.559,31.739,41.52,31.899,41.52z"/>
	</g>
</g>
<g id="Child_Safe_Zone">
</g>
<g id="Sustainable_Energy">
</g>
</svg>