<?xml version="1.0" encoding="iso-8859-1"?><!-- Generator: Adobe Illustrator 23.0.3, SVG Export Plug-In . SVG Version: 6.00 Build 0)  --><svg xmlns="http://www.w3.org/2000/svg" xmlns:xlink="http://www.w3.org/1999/xlink" viewBox="0 0 50 50" width="500px" height="500px"><polyline style="fill:none;stroke:#000000;stroke-width:2;stroke-linecap:round;stroke-linejoin:round;stroke-miterlimit:10;" points="5,10 11,5 39,5 45,10 "/><path style="fill:none;stroke:#000000;stroke-width:2;stroke-linecap:round;stroke-linejoin:round;stroke-miterlimit:10;" d="M30,17.5L30,17.5c0-0.8-0.7-1.5-1.5-1.5h-7c-0.8,0-1.5,0.7-1.5,1.5l0,0c0,0.8,0.7,1.5,1.5,1.5h7C29.3,19,30,18.3,30,17.5z"/><line style="fill:none;stroke:#000000;stroke-width:2;stroke-linecap:round;stroke-linejoin:round;stroke-miterlimit:10;" x1="25" y1="5" x2="25" y2="10"/><line style="fill:none;stroke:#000000;stroke-width:2;stroke-linejoin:round;stroke-miterlimit:10;" x1="9" y1="40" x2="22" y2="40"/><line style="fill:none;stroke:#000000;stroke-width:2;stroke-linejoin:round;stroke-miterlimit:10;" x1="12" y1="33" x2="12" y2="38"/><polygon points="12,31 15,34 9,34 "/><line style="fill:none;stroke:#000000;stroke-width:2;stroke-linejoin:round;stroke-miterlimit:10;" x1="19" y1="33" x2="19" y2="38"/><polygon points="19,31 22,34 16,34 "/><line style="fill:none;stroke:#000000;stroke-width:2;stroke-linecap:round;stroke-miterlimit:10;" x1="47" y1="33" x2="37" y2="49"/><path style="fill:none;stroke:#000000;stroke-width:2;stroke-linecap:round;stroke-miterlimit:10;" d="M49,45c0-1.105-0.895-2-2-2c-1.105,0-2,0.895-2,2v2c0,0,0,0,0,0c0,1.105,0.895,2,2,2s2-0.895,2-2V45z"/><path style="fill:none;stroke:#000000;stroke-width:2;stroke-linecap:round;stroke-miterlimit:10;" d="M39,35c0-1.105-0.895-2-2-2c-1.105,0-2,0.895-2,2v2c0,0,0,0,0,0c0,1.105,0.895,2,2,2s2-0.895,2-2V35z"/><path d="M36.599,44H6V11h38v21.225l2-3.182V10c0-0.552-0.447-1-1-1H5c-0.553,0-1,0.448-1,1v35c0,0.552,0.447,1,1,1h30.342L36.599,44z"/></svg>