<?xml version="1.0" encoding="utf-8"?><!-- Generator: Adobe Illustrator 15.0.0, SVG Export Plug-In . SVG Version: 6.00 Build 0)  --><!DOCTYPE svg PUBLIC "-//W3C//DTD SVG 1.1//EN" "http://www.w3.org/Graphics/SVG/1.1/DTD/svg11.dtd"><svg xmlns="http://www.w3.org/2000/svg" xmlns:xlink="http://www.w3.org/1999/xlink" viewBox="0 0 50 50" width="500px" height="500px"><path d="M14,10.4h-2C13,7,11.531,4.637,13,4c0.429-0.186-0.152-1.848,0-2c0.186-0.186,0.804-0.489,1-1c0.558-1.458,4,1,7.3-1v2c-0.841,0-1.265,0.94-1.814,2.375c-0.304,0.794-0.591,1.545-1.079,2.032c-0.421,0.421-1.035,0.688-1.684,0.97C15.078,8.091,14,8.688,14,10.4z"/><path d="M38,10.4h-2c0-1.712-1.078-2.309-2.723-3.023c-0.65-0.282-1.264-0.548-1.685-0.97c-0.487-0.487-0.774-1.238-1.079-2.032C29.965,2.94,29.541,2,28.7,2V0C30.98,0,36,1,36,1c0.195,0.511,1.186,1.186,1,1c-0.021-0.021,0,0.945,0,2C37,7,38,7.248,38,10.4z"/><circle cx="25" cy="8" r="3"/><path d="M35.313,35.07c4.682,3.656,11.074,8.641,14.688,11.459V23.554L35.313,35.07z"/><path d="M25,31c-0.294,0-1.843,0.059-3.408,1.207c-1.205,0.964-16.014,12.5-21.583,16.838C0.034,49.575,0.464,50,1,50h48c0.532,0,0.958-0.419,0.988-0.943c-5.027-3.918-20.344-15.859-21.612-16.875C27.091,31.152,25.709,31,25,31z"/><g><path d="M20.75,30.371C22.646,29.117,24.465,29,25,29c0.907,0,2.613,0.196,4.268,1.364C32.083,28.994,34,26.313,34,23.235c0-0.022-0.003-0.045-0.004-0.067C33.997,23.145,34,23.123,34,23.1c0-4.466-4.037-8.1-9-8.1c-4.962,0-9,3.634-9,8.1c0,0.023,0.003,0.044,0.003,0.067c0,0.023-0.003,0.044-0.003,0.067C16,26.318,17.925,29.003,20.75,30.371z"/></g><path d="M0,23.476v23.042c3.792-2.955,10.08-7.854,14.69-11.451L0,23.476z"/><g><path d="M14,8.581l-1.633,0.058L1.635,18.053c-0.883,0.786-1.393,1.776-1.559,2.935L10,28.818l2,1.578l2,1.578V8.581z"/><path d="M48.378,18.165L37.229,7.757L36,7.801v24.188l2-1.567l2-1.568l9.936-7.792C49.762,19.941,49.206,18.89,48.378,18.165z"/></g><polygon points="12,0 12,30.396 14,31.975 14,2 36,2 36,31.989 38,30.421 38,0 "/></svg>