<?xml version="1.0" encoding="iso-8859-1"?><!-- Generator: Adobe Illustrator 19.2.1, SVG Export Plug-In . SVG Version: 6.00 Build 0)  --><svg xmlns="http://www.w3.org/2000/svg" xmlns:xlink="http://www.w3.org/1999/xlink" viewBox="0 0 50 50" width="500px" height="500px"><line style="fill:none;stroke:#000000;stroke-width:2;stroke-linecap:round;stroke-miterlimit:10;" x1="16" y1="12" x2="40" y2="12"/><circle cx="10" cy="18" r="1"/><circle cx="10" cy="24" r="1"/><circle cx="10" cy="30" r="1"/><line style="fill:none;stroke:#000000;stroke-width:2;stroke-linecap:round;stroke-miterlimit:10;" x1="5" y1="2" x2="45" y2="42"/><path d="M34.758,36H20c-0.42,0-0.794,0.262-0.938,0.655c-1.642,4.476-4.643,6.255-7.101,6.939c1.18-1.748,1.524-4.015,1.023-6.773C12.897,36.346,12.483,36,12,36H7c-1.654,0-3-1.346-3-3V9c0-1.02,0.514-1.921,1.295-2.463L3.881,5.124C2.744,6.041,2,7.428,2,9v24c0,2.757,2.243,5,5,5h4.14c0.339,2.896-0.516,4.859-2.654,6.143c-0.385,0.231-0.569,0.691-0.449,1.124C8.156,45.7,8.551,46,9,46c2.56,0,8.708-0.795,11.684-8h16.074L34.758,36z"/><path d="M43,4H7C6.57,4,6.159,4.072,5.76,4.174L7.586,6H43c1.654,0,3,1.346,3,3v24c0,1.654-1.346,3-3,3h-5.414l2,2H43c2.757,0,5-2.243,5-5V9C48,6.243,45.757,4,43,4z"/><path d="M27.758,29H16c-0.553,0-1,0.447-1,1s0.447,1,1,1h13.758L27.758,29z"/><path d="M26.586,25H40c0.553,0,1-0.447,1-1s-0.447-1-1-1H24.586L26.586,25z"/><path d="M21.758,23H16c-0.553,0-1,0.447-1,1s0.447,1,1,1h7.758L21.758,23z"/><path d="M20.586,19H40c0.553,0,1-0.447,1-1s-0.447-1-1-1H18.586L20.586,19z"/><path d="M15.798,17.041C15.346,17.136,15,17.519,15,18c0,0.553,0.447,1,1,1h1.758L15.798,17.041z"/><path d="M9.798,11.041C9.346,11.137,9,11.519,9,12c0,0.552,0.448,1,1,1c0.481,0,0.863-0.346,0.959-0.798L9.798,11.041z"/></svg>