<?xml version="1.0" encoding="iso-8859-1"?>
<!-- Generator: Adobe Illustrator 22.1.0, SVG Export Plug-In . SVG Version: 6.00 Build 0)  -->
<svg version="1.1" id="Layer_1" xmlns="http://www.w3.org/2000/svg" xmlns:xlink="http://www.w3.org/1999/xlink" x="0px" y="0px"
	 viewBox="0 0 50 50" style="enable-background:new 0 0 50 50;" xml:space="preserve">
<circle style="fill:none;stroke:#000000;stroke-width:2;stroke-miterlimit:10;" cx="20" cy="7" r="3"/>
<circle style="fill:none;stroke:#000000;stroke-width:2;stroke-miterlimit:10;" cx="37" cy="14" r="3"/>
<polyline style="fill:none;stroke:#000000;stroke-width:2;stroke-linecap:round;stroke-linejoin:round;stroke-miterlimit:10;" points="
	0.875,40 26,40 26,46 "/>
<path style="fill:none;stroke:#000000;stroke-width:2;stroke-linejoin:round;stroke-miterlimit:10;" d="M48.766,28.056l-1.678-3.579
	c-0.296-0.632-0.804-1.141-1.435-1.44l-3.824-1.806c-0.386-0.182-0.794-0.315-1.214-0.393l-3.652-0.685
	c-1.659-0.311-3.372-0.143-4.939,0.484l-2.932,1.173l-2.101-1.051c-0.891-0.446-2.022-0.25-2.604,0.559
	c-0.743,1.03-0.367,2.428,0.72,2.972l2.916,1.458c0.568,0.284,1.226,0.332,1.83,0.133l3.433-1.13l1.732,5.193l-5.722,0.797
	c-0.598,0.083-1.157,0.345-1.604,0.752L23.83,35c-0.87,0.791-1.094,2.138-0.394,3.083c0.806,1.088,2.35,1.222,3.328,0.333
	l3.585-3.26l6.456-0.717l1.511,4.628l3.505,5.841C42.242,45.61,42.987,46,43.752,46c0.435,0,0.876-0.126,1.267-0.391
	c1.007-0.683,1.215-2.093,0.589-3.136l-3.067-5.111l-1.564-11.854l2.644,0.993l1.569,3.348c0.34,0.726,1.06,1.152,1.812,1.151
	c0.407,0,0.823-0.124,1.192-0.394C48.978,30.031,49.178,28.936,48.766,28.056z"/>
<path style="fill:none;stroke:#000000;stroke-width:2;stroke-linejoin:round;stroke-miterlimit:10;" d="M24.989,20.788
	c-0.082-0.676-0.525-1.293-1.161-1.611L20.49,17.51l-1.067-2.136c-0.588-1.177-1.496-2.164-2.619-2.848l-3.297-2.009
	c-0.829-0.505-1.755-0.833-2.718-0.961L6.721,9.013C6.174,8.946,5.618,9.121,5.198,9.481l-3.419,2.93
	c-0.756,0.648-1.015,1.766-0.496,2.617c0.66,1.084,2.096,1.279,3.018,0.49l2.841-2.435L10.25,14l0.015,0.01l-4.057,8.52
	c-0.212,0.445-0.389,0.907-0.535,1.412L2.101,37.08c-0.305,1.122,0.24,2.351,1.326,2.765c0.275,0.105,0.553,0.156,0.825,0.156
	c0.941,0,1.807-0.595,2.125-1.513C6.392,38.44,10,27,10,27l2.265,4.448l0.237,6.385C12.547,39.047,13.544,40,14.748,40
	c0.028,0,0.057-0.001,0.085-0.002c1.242-0.046,2.212-1.09,2.165-2.331l-0.25-6.75c-0.009-0.242-0.057-0.48-0.142-0.707L14,23l2-4.5
	l1.086,1.433c0.278,0.367,0.637,0.665,1.049,0.871l3.97,1.985C22.393,22.933,22.698,23,22.998,23c0.364,0,0.71-0.12,1.02-0.306"/>
</svg>