<?xml version="1.0" encoding="iso-8859-1"?><!-- Generator: Adobe Illustrator 23.0.3, SVG Export Plug-In . SVG Version: 6.00 Build 0)  --><svg xmlns="http://www.w3.org/2000/svg" xmlns:xlink="http://www.w3.org/1999/xlink" viewBox="0 0 50 50" width="500px" height="500px"><path d="M28,38V12H8v26H28z"/><rect x="6" y="43" width="5" height="3"/><rect x="39" y="43" width="5" height="3"/><circle cx="31" cy="25" r="1"/><circle cx="31" cy="21" r="1"/><circle cx="31" cy="29" r="1"/><path d="M45,5H5C2.794,5,1,6.794,1,9v32c0,2.206,1.794,4,4,4h40c2.206,0,4-1.794,4-4V9C49,6.794,47.206,5,45,5z M44,37.65c0,0.396-0.232,0.753-0.594,0.914l-9,4.351C34.276,42.972,34.138,43,34,43h-6v-3H7c-0.552,0-1-0.447-1-1V11c0-0.552,0.448-1,1-1h21V7h6v0.006c0.138,0,0.277,0.022,0.406,0.08l9,4.35C43.768,11.597,44,11.955,44,12.35v3.646c-0.713-1.49-1.275-2.608-2-2.996l-8-4v32l8-4c0.545-0.303,1.104-1.255,2-3.089V37.65z M43.195,30.849c-0.366,0.822-0.802,1.772-1.195,2.561c-0.055,0.111-0.11,0.218-0.163,0.321c-0.007,0.013-0.013,0.025-0.02,0.038c-0.08,0.155-0.157,0.298-0.23,0.43c-0.03,0.054-0.06,0.108-0.088,0.158c-0.028,0.049-0.055,0.095-0.082,0.139c-0.048,0.079-0.093,0.152-0.135,0.214c-0.013,0.02-0.026,0.037-0.039,0.055c-0.041,0.058-0.079,0.105-0.113,0.142c-0.011,0.012-0.022,0.023-0.033,0.033C41.06,34.975,41.026,35,41,35c-1.105,0-2-4.477-2-10s0.895-10,2-10c0.033,0,0.074,0.025,0.118,0.06c0.011,0.009,0.021,0.017,0.033,0.028c0.044,0.041,0.092,0.094,0.144,0.163c0.011,0.014,0.023,0.033,0.034,0.049c0.044,0.06,0.09,0.13,0.138,0.206c0.02,0.032,0.04,0.063,0.061,0.097c0.055,0.091,0.112,0.189,0.171,0.295c0.029,0.052,0.059,0.108,0.088,0.163c0.036,0.068,0.073,0.137,0.11,0.209c0.034,0.065,0.068,0.13,0.103,0.2c0.407,0.805,0.854,1.807,1.224,2.667C41.768,19.64,41,21.633,41,25C41,28.343,41.759,30.329,43.195,30.849z M44,29c-0.552,0-1-1.791-1-4s0.448-4,1-4s1,1.791,1,4S44.552,29,44,29z"/></svg>