<?xml version="1.0" encoding="utf-8"?><!-- Generator: Adobe Illustrator 15.0.0, SVG Export Plug-In . SVG Version: 6.00 Build 0)  --><!DOCTYPE svg PUBLIC "-//W3C//DTD SVG 1.1//EN" "http://www.w3.org/Graphics/SVG/1.1/DTD/svg11.dtd"><svg xmlns="http://www.w3.org/2000/svg" xmlns:xlink="http://www.w3.org/1999/xlink" viewBox="0 0 50 50" width="500px" height="500px"><g><path d="M8.7,39.3c-1.574,0-3.185-0.3-4.659-0.866c-1.544-0.514-2.854-1.477-3.85-2.846c-0.308-0.423-0.237-1.013,0.163-1.352l2.6-2.2c0.218-0.183,0.506-0.268,0.786-0.227c0.283,0.04,0.534,0.198,0.692,0.436c0.493,0.739,1.04,1.215,1.774,1.541C6.996,34.137,7.756,34.3,8.6,34.3c0.406,0,0.877-0.088,1.229-0.229c0.591-0.199,0.927-0.341,1.166-0.579c0.058-0.058,0.122-0.107,0.192-0.149c0.279-0.168,0.478-0.392,0.756-0.857C12.113,32.2,12.2,31.802,12.2,31.3c0-0.79-0.309-1.138-0.541-1.331c-0.538-0.449-1.134-0.772-1.875-1.021c-0.891-0.296-1.782-0.593-2.772-0.891c-1.299-0.39-2.273-0.841-3.058-1.418c-0.914-0.522-1.706-1.313-2.486-2.485c-0.042-0.063-0.078-0.132-0.104-0.204C0.923,22.776,0.7,21.447,0.7,20c0-0.924,0.285-1.809,0.564-2.551c0.329-0.878,0.877-1.705,1.629-2.456c0.728-0.728,1.762-1.392,2.836-1.821C7.027,12.652,8.359,12.4,9.8,12.4c1.243,0,2.496,0.168,3.942,0.53c1.461,0.484,2.625,1.307,3.632,2.537c0.335,0.41,0.293,1.009-0.096,1.368l-2.6,2.4c-0.215,0.198-0.508,0.291-0.797,0.258c-0.291-0.035-0.551-0.195-0.713-0.438c-0.291-0.437-0.75-0.835-1.364-1.187C11.283,17.571,10.553,17.4,9.8,17.4c-0.815,0-1.34,0.088-1.753,0.294l-0.268,0.132C7.421,18.001,7.111,18.152,7,18.3c-0.028,0.038-0.06,0.074-0.094,0.108c-0.259,0.259-0.402,0.521-0.563,0.842C6.267,19.559,6.2,19.85,6.2,20.1c0,0.494,0.094,1.16,0.54,1.532c0.489,0.407,1.094,0.859,1.876,1.12c0.9,0.3,1.787,0.595,2.771,0.891c1.045,0.313,2.127,0.637,3.042,1.209c0.989,0.548,1.788,1.239,2.47,2.147C17.64,27.987,18,29.296,18,31c0,1.373-0.286,2.613-0.826,3.586C16.731,35.593,16,36.524,15.101,37.2c-0.784,0.674-1.809,1.227-2.914,1.558C10.987,39.117,9.814,39.3,8.7,39.3z"/><path d="M49,38.7h-3.2c-0.553,0-1-0.447-1-1V23.03l-6.175,15.05c-0.153,0.375-0.52,0.62-0.925,0.62H35.6c-0.405,0-0.771-0.245-0.925-0.62L28.5,23.03V37.7c0,0.553-0.447,1-1,1h-3.2c-0.552,0-1-0.447-1-1V14c0-0.552,0.448-1,1-1h4.8c0.403,0,0.768,0.243,0.923,0.615l6.627,15.905l6.628-15.905C43.433,13.243,43.797,13,44.2,13H49c0.553,0,1,0.448,1,1v23.7C50,38.253,49.553,38.7,49,38.7z"/></g></svg>