<?xml version="1.0" encoding="iso-8859-1"?><!-- Generator: Adobe Illustrator 19.1.1, SVG Export Plug-In . SVG Version: 6.00 Build 0)  --><svg xmlns="http://www.w3.org/2000/svg" xmlns:xlink="http://www.w3.org/1999/xlink" viewBox="0 0 50 50" width="500px" height="500px"><line style="fill:none;stroke:#000000;stroke-width:2;stroke-linecap:round;stroke-linejoin:bevel;stroke-miterlimit:10;" x1="25" y1="6" x2="25" y2="4"/><line style="fill:none;stroke:#000000;stroke-width:2;stroke-linecap:round;stroke-linejoin:bevel;stroke-miterlimit:10;" x1="11" y1="11" x2="9" y2="9"/><line style="fill:none;stroke:#000000;stroke-width:2;stroke-linecap:round;stroke-linejoin:bevel;stroke-miterlimit:10;" x1="7" y1="25" x2="4" y2="25"/><line style="fill:none;stroke:#000000;stroke-width:2;stroke-linecap:round;stroke-linejoin:bevel;stroke-miterlimit:10;" x1="11" y1="39" x2="9" y2="41"/><line style="fill:none;stroke:#000000;stroke-width:2;stroke-linecap:round;stroke-linejoin:bevel;stroke-miterlimit:10;" x1="25" y1="44" x2="25" y2="46"/><line style="fill:none;stroke:#000000;stroke-width:2;stroke-linecap:round;stroke-linejoin:bevel;stroke-miterlimit:10;" x1="39" y1="39" x2="41" y2="41"/><line style="fill:none;stroke:#000000;stroke-width:2;stroke-linecap:round;stroke-linejoin:bevel;stroke-miterlimit:10;" x1="43" y1="25" x2="46" y2="25"/><line style="fill:none;stroke:#000000;stroke-width:2;stroke-linecap:round;stroke-linejoin:bevel;stroke-miterlimit:10;" x1="39" y1="11" x2="41" y2="9"/><path style="fill:none;stroke:#000000;stroke-width:2;stroke-linecap:round;stroke-linejoin:round;stroke-miterlimit:10;" d="M25,13.801C24.896,12.239,23.589,11,22,11c-1.385,0-2.539,0.944-2.884,2.22C18.77,13.081,18.395,13,18,13c-1.657,0-3,1.343-3,3c0,0.36,0.074,0.7,0.19,1.019C15.126,17.015,15.065,17,15,17c-1.657,0-3,1.343-3,3c0,0.87,0.376,1.646,0.967,2.194C11.821,22.616,11,23.708,11,25s0.821,2.384,1.967,2.806C12.376,28.354,12,29.13,12,30c0,1.657,1.343,3,3,3c0.065,0,0.126-0.015,0.19-0.019C15.074,33.3,15,33.64,15,34c0,1.657,1.343,3,3,3c0.395,0,0.77-0.081,1.116-0.22C19.461,38.056,20.615,39,22,39c1.589,0,2.896-1.239,3-2.802V13.801z"/><path style="fill:none;stroke:#000000;stroke-width:2;stroke-linecap:round;stroke-linejoin:round;stroke-miterlimit:10;" d="M25,13.801C25.104,12.239,26.391,11,27.98,11c1.385,0,2.539,0.944,2.884,2.22C31.21,13.081,31.585,13,31.98,13c1.657,0,3,1.343,3,3c0,0.36-0.074,0.7-0.19,1.019C34.854,17.015,34.915,17,34.98,17c1.657,0,3,1.343,3,3c0,0.87-0.376,1.646-0.967,2.194c1.146,0.422,1.967,1.514,1.967,2.806s-0.821,2.384-1.967,2.806C37.604,28.354,37.98,29.13,37.98,30c0,1.657-1.343,3-3,3c-0.065,0-0.126-0.015-0.19-0.019c0.116,0.32,0.19,0.66,0.19,1.019c0,1.657-1.343,3-3,3c-0.395,0-0.77-0.081-1.116-0.22C30.519,38.056,29.365,39,27.98,39c-1.589,0-2.876-1.239-2.98-2.802V13.801z"/><path style="fill:none;stroke:#000000;stroke-width:2;stroke-linecap:round;stroke-linejoin:bevel;stroke-miterlimit:10;" d="M15.19,17.019c0,0,0.622,1.981,2.81,1.981"/><path style="fill:none;stroke:#000000;stroke-width:2;stroke-linecap:round;stroke-linejoin:bevel;stroke-miterlimit:10;" d="M15.19,32.981c0,0,2.81,0.151,2.81-2.981"/><path style="fill:none;stroke:#000000;stroke-width:2;stroke-linecap:round;stroke-linejoin:bevel;stroke-miterlimit:10;" d="M21,25c0-1.657,1.343-3,3-3"/><path style="fill:none;stroke:#000000;stroke-width:2;stroke-linecap:round;stroke-linejoin:bevel;stroke-miterlimit:10;" d="M25,30c0-1.657,1.343-3,3-3"/><path style="fill:none;stroke:#000000;stroke-width:2;stroke-linecap:round;stroke-linejoin:bevel;stroke-miterlimit:10;" d="M37.013,27.806C36.764,27.566,34.972,26.094,33,28"/><path style="fill:none;stroke:#000000;stroke-width:2;stroke-linecap:round;stroke-linejoin:bevel;stroke-miterlimit:10;" d="M34.79,17.019c0,0-0.415,1.981-2.79,1.981"/></svg>