<?xml version="1.0" encoding="utf-8"?><!-- Generator: Adobe Illustrator 15.0.0, SVG Export Plug-In . SVG Version: 6.00 Build 0)  --><!DOCTYPE svg PUBLIC "-//W3C//DTD SVG 1.1//EN" "http://www.w3.org/Graphics/SVG/1.1/DTD/svg11.dtd"><svg xmlns="http://www.w3.org/2000/svg" xmlns:xlink="http://www.w3.org/1999/xlink" viewBox="0 0 50 50" width="500px" height="500px"><path d="M46.187,7.538C43.5,2.387,33.896,0.1,30.7,0.1c-0.19,0-0.376,0.054-0.537,0.156C29.167,0.89,25.007,2.33,21.337,3.6c-5.554,1.922-8.063,2.828-8.783,3.437C11.311,8.088,5.5,16.189,5.5,18.8c0,0.824,1.87,6.54,4.021,10.975c0.939-3.104,3.716-5.477,6.284-7.077c-0.152-0.737-0.358-1.351-0.561-1.821c1.997-0.877,3.421-2.645,4.162-3.752c1.505,0.799,3.441,0.897,5.032,0.789c-1.346,1.631-2.83,3.624-3.372,4.36c-0.68,0.271-2.419,1.013-4.253,2.159c-2.849,1.781-5.924,4.541-5.61,8.063c0.02,0.205,0.078,0.404,0.127,0.604c0.034,0.138,0.061,0.277,0.108,0.412c0.057,0.159,0.133,0.312,0.207,0.465c0.062,0.129,0.116,0.261,0.189,0.385c0.089,0.15,0.196,0.29,0.3,0.433c0.084,0.115,0.161,0.235,0.255,0.345c0.118,0.138,0.253,0.262,0.384,0.389c0.103,0.099,0.197,0.203,0.307,0.295c0.145,0.122,0.304,0.225,0.459,0.333c0.114,0.078,0.221,0.166,0.341,0.237c0.17,0.101,0.353,0.18,0.532,0.264c0.119,0.055,0.232,0.122,0.355,0.17c0.205,0.079,0.418,0.131,0.631,0.186c0.106,0.027,0.208,0.069,0.316,0.091C16.04,37.165,16.369,37.2,16.7,37.2c3.1,0,5.927-2.446,7.991-4.231c0.544-0.471,1.014-0.878,1.423-1.18c0.116-0.09,0.26-0.179,0.425-0.268c0.078-0.043,0.176-0.087,0.265-0.129c0.095-0.046,0.182-0.092,0.286-0.138c0.136-0.06,0.287-0.121,0.438-0.182c0.07-0.029,0.135-0.057,0.208-0.086c0.269-0.106,0.551-0.215,0.849-0.328c2.44-0.929,5.782-2.2,8.747-5.377c2.062-2.211,3.166-5.432,4.233-8.545c1.146-3.342,2.229-6.499,4.299-7.91C46.282,8.541,46.421,7.987,46.187,7.538z"/><path d="M28.202,32.956c-0.389,0.159-0.728,0.312-0.86,0.412l-0.02,0.016l-0.021,0.015c-0.339,0.25-0.77,0.622-1.305,1.085C23.825,36.361,20.543,39.2,16.7,39.2c-3.378,0-6.506-2.46-7.309-5.563C8.486,35.236,8,37.066,8,39c0,6.065,4.935,11,11,11s11-4.935,11-11C30,36.805,29.357,34.719,28.202,32.956z"/></svg>