<?xml version="1.0" encoding="iso-8859-1"?><!-- Generator: Adobe Illustrator 19.1.1, SVG Export Plug-In . SVG Version: 6.00 Build 0)  --><svg xmlns="http://www.w3.org/2000/svg" xmlns:xlink="http://www.w3.org/1999/xlink" viewBox="0 0 50 50" width="500px" height="500px"><path d="M45,10H5c-0.552,0-1,0.447-1,1v28c0,0.553,0.448,1,1,1h40c0.552,0,1-0.447,1-1V11C46,10.447,45.552,10,45,10z M28.906,14c0.183,1.129,0.011,5-3.906,5C25,19,24.642,14.659,28.906,14z M25,34.99c-3,0-6-1.125-6-4.688c0-2.757,1.811-3.089,2.8-5.901c0.903-2.219,0.702-4.412,3.2-4.412s2.297,2.193,3.2,4.412c0.989,2.812,2.8,3.144,2.8,5.901C31,33.865,28,34.99,25,34.99z"/></svg>