<?xml version="1.0" encoding="iso-8859-1"?><!-- Generator: Adobe Illustrator 23.0.3, SVG Export Plug-In . SVG Version: 6.00 Build 0)  --><svg xmlns="http://www.w3.org/2000/svg" xmlns:xlink="http://www.w3.org/1999/xlink" viewBox="0 0 50 50" width="500px" height="500px"><line style="fill:none;stroke:#000000;stroke-width:2;stroke-linecap:round;stroke-miterlimit:10;" x1="47" y1="33" x2="37" y2="49"/><path style="fill:none;stroke:#000000;stroke-width:2;stroke-linecap:round;stroke-miterlimit:10;" d="M49,45c0-1.105-0.895-2-2-2c-1.105,0-2,0.895-2,2v2c0,0,0,0,0,0c0,1.105,0.895,2,2,2s2-0.895,2-2V45z"/><path style="fill:none;stroke:#000000;stroke-width:2;stroke-linecap:round;stroke-miterlimit:10;" d="M39,35c0-1.105-0.895-2-2-2c-1.105,0-2,0.895-2,2v2c0,0,0,0,0,0c0,1.105,0.895,2,2,2s2-0.895,2-2V35z"/><path d="M30.414,2H7v46h27.176l3.772-6.096C37.64,41.964,37.325,42,37,42c-2.757,0-5-2.243-5-5v-2c0-2.757,2.243-5,5-5s5,2.243,5,5v0.356l1-1.616V14.586L30.414,2z M28,40H14c-0.553,0-1-0.448-1-1s0.447-1,1-1h14c0.553,0,1,0.448,1,1S28.553,40,28,40z M28,34H14c-0.553,0-1-0.448-1-1s0.447-1,1-1h14c0.553,0,1,0.448,1,1S28.553,34,28,34z M36,28H14c-0.553,0-1-0.448-1-1s0.447-1,1-1h22c0.553,0,1,0.448,1,1S36.553,28,36,28z M36,22H14c-0.553,0-1-0.448-1-1s0.447-1,1-1h22c0.553,0,1,0.448,1,1S36.553,22,36,22z M31,14V5.414L39.586,14H31z"/></svg>