<?xml version="1.0" encoding="iso-8859-1"?><!-- Generator: Adobe Illustrator 19.2.1, SVG Export Plug-In . SVG Version: 6.00 Build 0)  --><svg xmlns="http://www.w3.org/2000/svg" xmlns:xlink="http://www.w3.org/1999/xlink" viewBox="0 0 50 50" width="500px" height="500px"><path style="fill:none;stroke:#000000;stroke-width:2;stroke-linecap:round;stroke-miterlimit:10;" d="M43,44H7c-2.209,0-4-1.791-4-4V10c0-2.209,1.791-4,4-4h36c2.209,0,4,1.791,4,4v30C47,42.209,45.209,44,43,44z"/><path d="M10.855,32V18h1.96l7.189,9.945h0.155V18h2.115v14h-1.96l-7.189-9.945H12.97V32H10.855z"/><path d="M35.555,28.284h-5.336L28.928,32h-2.231l5.055-14h2.338l5.055,14h-2.309L35.555,28.284z M30.772,26.46h4.23l-2.028-5.918h-0.165L30.772,26.46z"/></svg>