<?xml version="1.0" encoding="iso-8859-1"?><!-- Generator: Adobe Illustrator 19.1.0, SVG Export Plug-In . SVG Version: 6.00 Build 0)  --><svg xmlns="http://www.w3.org/2000/svg" xmlns:xlink="http://www.w3.org/1999/xlink" viewBox="0 0 50 50" width="500px" height="500px"><path style="fill:none;stroke:#000000;stroke-width:2;stroke-linecap:round;stroke-miterlimit:10;" d="M11,19H5v24c0,2.209,1.791,4,4,4h32c2.209,0,4-1.791,4-4V19h-6"/><path style="fill:none;stroke:#000000;stroke-width:2;stroke-linecap:round;stroke-linejoin:round;stroke-miterlimit:10;" d="M40,19V3H10v16h9.5c1.381,0,2.5,1.119,2.5,2.5v0c0,1.381-1.119,2.5-2.5,2.5H17c-1.105,0-2,0.895-2,2v0c0,1.105,0.895,2,2,2h16c1.105,0,2-0.895,2-2v0c0-1.105-0.895-2-2-2h-2.5c-1.381,0-2.5-1.119-2.5-2.5v0c0-1.381,1.119-2.5,2.5-2.5H40z"/><polyline style="fill:none;stroke:#000000;stroke-width:2;stroke-miterlimit:10;" points="45,21 49,21 49,25 45,25 "/><polyline style="fill:none;stroke:#000000;stroke-width:2;stroke-miterlimit:10;" points="5,25 1,25 1,21 5,21 "/><line style="fill:none;stroke:#000000;stroke-width:2;stroke-linecap:round;stroke-linejoin:round;stroke-miterlimit:10;" x1="16" y1="9" x2="34" y2="9"/><line style="fill:none;stroke:#000000;stroke-width:2;stroke-linecap:round;stroke-linejoin:round;stroke-miterlimit:10;" x1="16" y1="13" x2="29" y2="13"/><path d="M23,35L23,35c-0.552,0-1-0.448-1-1l0,0c0-0.552,0.448-1,1-1h0c0.552,0,1,0.448,1,1l0,0C24,34.552,23.552,35,23,35z"/><path d="M27,35L27,35c-0.552,0-1-0.448-1-1l0,0c0-0.552,0.448-1,1-1h0c0.552,0,1,0.448,1,1l0,0C28,34.552,27.552,35,27,35z"/><path d="M31,35L31,35c-0.552,0-1-0.448-1-1l0,0c0-0.552,0.448-1,1-1h0c0.552,0,1,0.448,1,1l0,0C32,34.552,31.552,35,31,35z"/><path d="M35,35L35,35c-0.552,0-1-0.448-1-1l0,0c0-0.552,0.448-1,1-1l0,0c0.552,0,1,0.448,1,1l0,0C36,34.552,35.552,35,35,35z"/><path d="M11,35L11,35c-0.552,0-1-0.448-1-1l0,0c0-0.552,0.448-1,1-1h0c0.552,0,1,0.448,1,1l0,0C12,34.552,11.552,35,11,35z"/><path d="M15,35L15,35c-0.552,0-1-0.448-1-1l0,0c0-0.552,0.448-1,1-1h0c0.552,0,1,0.448,1,1l0,0C16,34.552,15.552,35,15,35z"/><path d="M19,35L19,35c-0.552,0-1-0.448-1-1l0,0c0-0.552,0.448-1,1-1h0c0.552,0,1,0.448,1,1l0,0C20,34.552,19.552,35,19,35z"/><path d="M25,39L25,39c-0.552,0-1-0.448-1-1l0,0c0-0.552,0.448-1,1-1h0c0.552,0,1,0.448,1,1l0,0C26,38.552,25.552,39,25,39z"/><path d="M29,39L29,39c-0.552,0-1-0.448-1-1l0,0c0-0.552,0.448-1,1-1h0c0.552,0,1,0.448,1,1l0,0C30,38.552,29.552,39,29,39z"/><path d="M33,39L33,39c-0.552,0-1-0.448-1-1l0,0c0-0.552,0.448-1,1-1l0,0c0.552,0,1,0.448,1,1l0,0C34,38.552,33.552,39,33,39z"/><path d="M37,39L37,39c-0.552,0-1-0.448-1-1l0,0c0-0.552,0.448-1,1-1l0,0c0.552,0,1,0.448,1,1l0,0C38,38.552,37.552,39,37,39z"/><path d="M17,39L17,39c-0.552,0-1-0.448-1-1l0,0c0-0.552,0.448-1,1-1h0c0.552,0,1,0.448,1,1l0,0C18,38.552,17.552,39,17,39z"/><path d="M13,39L13,39c-0.552,0-1-0.448-1-1l0,0c0-0.552,0.448-1,1-1h0c0.552,0,1,0.448,1,1l0,0C14,38.552,13.552,39,13,39z"/><path d="M21,39L21,39c-0.552,0-1-0.448-1-1l0,0c0-0.552,0.448-1,1-1h0c0.552,0,1,0.448,1,1l0,0C22,38.552,21.552,39,21,39z"/><path d="M39,35L39,35c-0.552,0-1-0.448-1-1l0,0c0-0.552,0.448-1,1-1l0,0c0.552,0,1,0.448,1,1l0,0C40,34.552,39.552,35,39,35z"/><path d="M34,43H16c-0.552,0-1-0.448-1-1l0,0c0-0.552,0.448-1,1-1h18c0.552,0,1,0.448,1,1l0,0C35,42.552,34.552,43,34,43z"/></svg>