<?xml version="1.0" encoding="iso-8859-1"?><!-- Generator: Adobe Illustrator 19.2.0, SVG Export Plug-In . SVG Version: 6.00 Build 0)  --><svg xmlns="http://www.w3.org/2000/svg" xmlns:xlink="http://www.w3.org/1999/xlink" viewBox="0 0 50 50" width="500px" height="500px"><polyline style="fill:none;stroke:#000000;stroke-width:2;stroke-linecap:round;stroke-miterlimit:10;" points="47,13 37,13 37,3 "/><polygon style="fill:none;stroke:#000000;stroke-width:2;stroke-linecap:round;stroke-miterlimit:10;" points="29,47 3,47 3,11 19,11 29,21 "/><polyline style="fill:none;stroke:#000000;stroke-width:2;stroke-linecap:round;stroke-miterlimit:10;" points="29,21 19,21 19,11 "/><rect x="8" y="26" width="16" height="2"/><rect x="8" y="38" width="16" height="2"/><rect x="8" y="32" width="12" height="2"/><polygon points="30.242,18 32.242,20 42,20 42,18 "/><rect x="32" y="24" width="6" height="2"/><rect x="32" y="30" width="10" height="2"/><polygon points="37.414,2 20,2 20,7.758 20.828,8.586 22,9.758 22,4 36.586,4 46,13.414 46,38 32,38 32,40 48,40 48,12.586 "/></svg>