<?xml version="1.0" encoding="iso-8859-1"?><!-- Generator: Adobe Illustrator 21.1.0, SVG Export Plug-In . SVG Version: 6.00 Build 0)  --><svg xmlns="http://www.w3.org/2000/svg" xmlns:xlink="http://www.w3.org/1999/xlink" viewBox="0 0 50 50" width="500px" height="500px"><g></g><path d="M19.546,3C9.871,3,2,10.05,2,18.715c0,4.072,1.769,8.017,4.877,10.928c0.046,0.043,0.222,0.18,0.222,0.18c0.217,0.176,0.431,0.348,0.624,0.489C6.939,32.648,4.193,34.548,2.941,35c-0.829,0.3-1.101,1.065-0.791,1.455c0.468,0.589,1.897,0.536,3.274,0.536c4.541,0,10.276-3.321,10.276-3.321c1.075,0.222,2.287,0.33,3.694,0.33C29.267,34,37,27.286,37,18.715C37,10.05,29.17,3,19.546,3z M23,24H11v-2h12V24z M28,19H11v-2h17V19z M28,14H11v-2h17V14z"/><path d="M42.79,41.749c0.276-0.195,0.597-0.424,0.804-0.585c2.801-2.311,4.393-5.427,4.393-8.654c0-4.905-3.67-9.284-9.202-11.316c-0.391,2.491-1.355,4.793-2.787,6.806H39v2h-4.66c-1.103,1.14-2.37,2.152-3.78,3H39v2H26.029c-2.067,0.637-4.292,1-6.635,1c-1.003,0-1.913-0.057-2.765-0.161C18.487,40.745,24.437,44,32.125,44c1.152,0,2.159-0.069,3.059-0.209c0.038-0.006,2.816,3.205,8.848,3.205c3.404-0.101,3.92-1.126,3.955-1.491C48.066,44.673,44.458,44.438,42.79,41.749z"/></svg>