<?xml version="1.0" encoding="iso-8859-1"?>
<!-- Generator: Adobe Illustrator 25.2.3, SVG Export Plug-In . SVG Version: 6.00 Build 0)  -->
<svg version="1.1" baseProfile="basic" xmlns="http://www.w3.org/2000/svg" xmlns:xlink="http://www.w3.org/1999/xlink" x="0px"
	 y="0px" viewBox="0 0 50 50" xml:space="preserve">
<path d="M35,8V3H11v5H6v39h23.06c-0.68-0.6-1.28-1.27-1.81-2H8V10h5V5h20v5h5v16.04c0.69,0.06,1.36,0.17,2,0.34V8H35z"/>
<line style="fill:none;stroke:#000000;stroke-width:2;stroke-miterlimit:10;" x1="12" y1="15" x2="16" y2="15"/>
<line style="fill:none;stroke:#000000;stroke-width:2;stroke-miterlimit:10;" x1="12" y1="20" x2="16" y2="20"/>
<line style="fill:none;stroke:#000000;stroke-width:2;stroke-miterlimit:10;" x1="30" y1="15" x2="34" y2="15"/>
<line style="fill:none;stroke:#000000;stroke-width:2;stroke-miterlimit:10;" x1="15" y1="9" x2="34" y2="9"/>
<line style="fill:none;stroke:#000000;stroke-width:2;stroke-miterlimit:10;" x1="30" y1="20" x2="34" y2="20"/>
<line style="fill:none;stroke:#000000;stroke-width:2;stroke-miterlimit:10;" x1="12" y1="25" x2="16" y2="25"/>
<line style="fill:none;stroke:#000000;stroke-width:2;stroke-miterlimit:10;" x1="12" y1="30" x2="16" y2="30"/>
<line style="fill:none;stroke:#000000;stroke-width:2;stroke-miterlimit:10;" x1="12" y1="35" x2="16" y2="35"/>
<line style="fill:none;stroke:#000000;stroke-width:2;stroke-miterlimit:10;" x1="12" y1="40" x2="16" y2="40"/>
<line style="fill:none;stroke:#000000;stroke-width:2;stroke-miterlimit:10;" x1="21" y1="15" x2="25" y2="15"/>
<line style="fill:none;stroke:#000000;stroke-width:2;stroke-miterlimit:10;" x1="21" y1="20" x2="25" y2="20"/>
<line style="fill:none;stroke:#000000;stroke-width:2;stroke-miterlimit:10;" x1="21" y1="25" x2="25" y2="25"/>
<line style="fill:none;stroke:#000000;stroke-width:2;stroke-miterlimit:10;" x1="21" y1="30" x2="25" y2="30"/>
<line style="fill:none;stroke:#000000;stroke-width:2;stroke-miterlimit:10;" x1="21" y1="35" x2="25" y2="35"/>
<line style="fill:none;stroke:#000000;stroke-width:2;stroke-miterlimit:10;" x1="21" y1="40" x2="25" y2="40"/>
<line style="fill:none;stroke:#000000;stroke-width:2;stroke-miterlimit:10;" x1="30" y1="25" x2="34" y2="25"/>
<circle cx="37.057" cy="38" r="2"/>
<polyline style="fill:none;stroke:#000000;stroke-width:2;stroke-linecap:round;stroke-miterlimit:10;" points="37.057,38 
	44.057,30 44.057,28 "/>
<line style="fill:none;stroke:#000000;stroke-width:2;stroke-linecap:round;stroke-miterlimit:10;" x1="44.057" y1="30" x2="46.057" y2="30"/>
<path d="M45.586,32.808l-1.395,1.594c0.549,1.083,0.865,2.303,0.865,3.598c0,4.411-3.589,8-8,8s-8-3.589-8-8s3.589-8,8-8
	c0.919,0,1.798,0.163,2.62,0.45l1.4-1.599c-1.232-0.543-2.59-0.85-4.02-0.85c-5.514,0-10,4.486-10,10s4.486,10,10,10s10-4.486,10-10
	C47.057,36.097,46.513,34.323,45.586,32.808z"/>
<path d="M41.057,38c0,2.206-1.794,4-4,4s-4-1.794-4-4c0-2.023,1.514-3.682,3.466-3.946l1.696-1.939
	C37.843,32.041,37.455,32,37.057,32c-3.309,0-6,2.691-6,6s2.691,6,6,6s6-2.691,6-6c0-0.676-0.117-1.324-0.324-1.93l-1.677,1.917
	C41.055,37.991,41.057,37.995,41.057,38z"/>
</svg>