<?xml version="1.0" encoding="iso-8859-1"?><!-- Generator: Adobe Illustrator 21.0.0, SVG Export Plug-In . SVG Version: 6.00 Build 0)  --><svg xmlns="http://www.w3.org/2000/svg" xmlns:xlink="http://www.w3.org/1999/xlink" viewBox="0 0 50 50" width="500px" height="500px"><path style="fill:none;stroke:#000000;stroke-width:2;stroke-miterlimit:10;" d="M31,38.815c0-1.117,0-2.13,0-2.762c0.825-0.806,1.206-2.033,1.244-3.208c0.365-0.315,0.934-0.71,1.103-1.662c0.137-0.772-0.152-1.405-0.492-1.861c1.077-1.721,0.922-7.022-3.21-7.022L29,21c-6,0-8.095,4.669-6.374,8.64c-0.234,0.234-0.594,0.911-0.573,1.419c0.049,1.167,0.825,1.608,1.19,1.786c0.139,1.354,0.947,2.656,1.757,3.208c0,0.628,0,2.205,0,2.762C23.89,41.907,17,41,17,47h22C39,41,32.11,41.907,31,38.815z"/><path style="fill:none;stroke:#000000;stroke-width:2;stroke-miterlimit:10;" d="M38.916,47h8.078c-0.319-5.503-6.969-4.702-7.994-7.555c0-0.867,0-1.563,0-2.158c0.622-0.638,0.942-2.031,1-3.061c0.449-0.296,0.97-0.669,1.132-1.9c0.101-0.769-0.233-1.465-0.494-1.726c0.972-1.915,0.889-6.4-2.926-6.4L37.127,23c-1.741,0-3.644,0.837-4.211,1.578"/><rect x="7" y="2" width="24" height="3"/><path d="M17.074,45.999c0.732-4.902,6.882-4.277,7.926-7.183c0-0.558,0-2.135,0-2.762c-0.811-0.552-1.618-1.854-1.757-3.208c-0.365-0.179-1.141-0.619-1.19-1.786c-0.021-0.508,0.338-1.185,0.573-1.419C20.905,25.669,23,21,29,21l0.645,1.3c1.768,0,2.803,0.973,3.331,2.217c0.48-0.561,1.69-1.158,2.998-1.401c0.009-0.01,0.016-0.031,0.027-0.032V7H2v39h15.048C17.057,46,17.065,45.999,17.074,45.999z M26,12h4v2h-4V12z M17,12h4v2h-4V12z M12,39H8v-2h4V39z M12,34H8v-2h4V34z M12,29H8v-2h4V29z M12,24H8v-2h4V24z M12,19H8v-2h4V19z M12,14H8v-2h4V14z M17,17h4v2h-4V17z M26,17h4v2h-4V17z M17,22h4v2h-4V22z M17,27h4v2h-4V27z M17,32h4v2h-4V32z M17,37h4v2h-4V37z"/></svg>