<?xml version="1.0" encoding="iso-8859-1"?><!-- Generator: Adobe Illustrator 21.0.0, SVG Export Plug-In . SVG Version: 6.00 Build 0)  --><svg xmlns="http://www.w3.org/2000/svg" xmlns:xlink="http://www.w3.org/1999/xlink" viewBox="0 0 50 50" width="500px" height="500px"><path d="M50,35.601l-2-1.057V10c0-1.657-1.343-3-3-3H5c-1.657,0-3,1.343-3,3v30c0,1.657,1.343,3,3,3h5c0.552,0,1-0.448,1-1v-1.5c-0.712-0.593-1.142-1.468-0.957-2.458c0.206-1.098,1.172-1.966,2.286-2.037C13.809,35.912,15,37.043,15,38.5c0,0.8-0.4,1.5-1,2V42c0,0.552,0.448,1,1,1h15.137l2.218,1.172l0.656,3.727l3.76-0.53L39.5,50l2.729-2.63l3.76,0.53l0.656-3.727L50,42.4L48.332,39L50,35.601z M29,18h13v2H29V18z M8,31c0.222-3.803,5.317-3.249,6.026-5.222C14.085,25.103,14,24.616,14,24c-0.295-0.16-0.783-1.166-0.871-2.03c-0.234-0.019-0.596-0.253-0.705-1.179c-0.059-0.497,0.172-0.776,0.31-0.864c-0.784-3.128-0.353-5.859,3.23-5.927c0.894,0,1.582,0.248,1.851,0.737c2.613,0.376,1.828,4.014,1.452,5.19c0.139,0.088,0.368,0.367,0.31,0.864c-0.108,0.926-0.473,1.16-0.705,1.179C18.781,22.835,18.294,23.84,18,24c0,0.616-0.064,1.104-0.005,1.779C18.703,27.751,23.779,27.197,24,31H8z M29,26v-2h13v2H29z M45.703,42.408l-0.867,0.458l-0.17,0.963l-0.32,1.821l-1.837-0.259l-0.972-0.137l-0.706,0.68l-1.334,1.285l-1.334-1.286l-0.706-0.68l-0.971,0.137l-1.837,0.259l-0.32-1.821l-0.17-0.963l-0.867-0.458l-1.639-0.867l0.815-1.661L32.902,39l-0.431-0.879l-0.815-1.662l1.64-0.867l0.867-0.458l0.17-0.963l0.32-1.821l1.837,0.259l0.972,0.137l0.706-0.68l1.332-1.283l1.334,1.286l0.706,0.68l0.971-0.137l1.837-0.259l0.32,1.821l0.17,0.963l0.867,0.458l1.639,0.866l-0.815,1.661L46.098,39l0.431,0.879l0.815,1.662L45.703,42.408z"/></svg>