<?xml version="1.0" encoding="iso-8859-1"?>
<!-- Generator: Adobe Illustrator 25.2.3, SVG Export Plug-In . SVG Version: 6.00 Build 0)  -->
<svg version="1.1" baseProfile="basic" id="Layer_1"
	 xmlns="http://www.w3.org/2000/svg" xmlns:xlink="http://www.w3.org/1999/xlink" x="0px" y="0px" viewBox="0 0 50 50"
	 xml:space="preserve">
<circle style="fill:none;stroke:#000000;stroke-width:2;stroke-miterlimit:10;" cx="25" cy="25" r="22"/>
<circle style="fill:none;stroke:#000000;stroke-width:2;stroke-miterlimit:10;" cx="25" cy="25" r="10"/>
<path d="M29,27.642c0.001-2.391-2.004-2.851-3.614-3.221c-1.446-0.332-2.263-0.565-2.263-1.48c0-1.095,0.606-1.605,1.907-1.605
	c1.416,0,1.788,0.871,1.839,1.664h1.855c0.001-0.776-0.314-1.61-0.869-2.218c-0.486-0.531-1.123-0.873-1.856-1.01V18h-0.082h-1.821
	H24v1.77c-2.648,0.444-2.732,2.796-2.732,3.075c0,2.476,2.004,2.924,3.615,3.284c1.446,0.324,2.263,0.555,2.263,1.527
	c0,0.583-0.279,1.562-2.145,1.562c-0.041,0-1.01-0.007-1.618-0.615c-0.359-0.359-0.532-0.877-0.515-1.54L22.869,27h-1.857
	l0.002,0.064c0.06,2.1,1.041,3.301,2.987,3.671V32h0.096h1.821H26v-1.235C28.846,30.303,29,28.097,29,27.642z"/>
<line style="fill:none;stroke:#000000;stroke-width:2;stroke-miterlimit:10;" x1="25" y1="3" x2="25" y2="15"/>
<line style="fill:none;stroke:#000000;stroke-width:2;stroke-miterlimit:10;" x1="4.077" y1="18.202" x2="15.489" y2="21.91"/>
<line style="fill:none;stroke:#000000;stroke-width:2;stroke-miterlimit:10;" x1="12.069" y1="42.798" x2="19.122" y2="33.09"/>
<line style="fill:none;stroke:#000000;stroke-width:2;stroke-miterlimit:10;" x1="37.931" y1="42.798" x2="30.878" y2="33.09"/>
<line style="fill:none;stroke:#000000;stroke-width:2;stroke-miterlimit:10;" x1="45.923" y1="18.202" x2="34.511" y2="21.91"/>
</svg>