<?xml version="1.0" encoding="iso-8859-1"?>
<!-- Generator: Adobe Illustrator 18.0.0, SVG Export Plug-In . SVG Version: 6.00 Build 0)  -->
<!DOCTYPE svg PUBLIC "-//W3C//DTD SVG 1.1//EN" "http://www.w3.org/Graphics/SVG/1.1/DTD/svg11.dtd">
<svg version="1.1" id="Layer_1" xmlns="http://www.w3.org/2000/svg" xmlns:xlink="http://www.w3.org/1999/xlink" x="0px" y="0px"
	 width="50px" height="50px" viewBox="0 0 50 50" style="enable-background:new 0 0 50 50;" xml:space="preserve">
<g>
	<path d="M48.402,23.105l-4.121-5.527C43.512,16.613,41.934,15,40,15h-7v25h1.09c0.477,2.832,2.941,5,5.91,5s5.43-2.168,5.91-5H47
		c1.543,0,3-1.457,3-3v-9.598C50,25.441,48.582,23.359,48.402,23.105z M40,43c-2.207,0-4-1.793-4-4s1.793-4,4-4s4,1.793,4,4
		S42.207,43,40,43z M39,27c-0.449,0-1-0.551-1-1v-9h2c0.789,0,1.805,0.684,2.699,1.797l4.082,5.477
		c0.301,0.434,1.023,1.668,1.188,2.727H39z"/>
	<path d="M28.098,8H2.797C0.828,8.156,0,9.766,0,10.891V37c0,1.652,1.348,3,3,3h4.094c0.477,2.828,2.945,5,5.906,5
		s5.43-2.172,5.906-5H31V10.902C31,9.355,29.645,8,28.098,8z M13,43c-2.223,0-4-1.777-4-4s1.777-4,4-4s4,1.777,4,4S15.223,43,13,43z
		 M24.553,25.076c-0.363,0.121-1.256,0.395-3.442,1.013c-0.644,0.182-1.094,0.775-1.094,1.444V30.5c0,0.551-0.448,1-1,1
		s-1-0.449-1-1v-1.07c0-1.382-0.442-2.083-1.314-2.083c-0.132,0-0.274,0.019-0.422,0.056c-0.256,0.063-0.481,0.135-0.726,0.212
		c-0.168,0.053-0.345,0.109-0.548,0.167c-0.931,0.266-1.102,1.175-0.991,1.765c-0.024,0.53-0.463,0.954-0.999,0.954
		c-0.552,0-1-0.449-1-1c0-0.069-0.014-0.137-0.042-0.2c-0.111-0.257-0.514-0.554-1.082-0.396c-2.671,0.736-4.66,1.261-4.66,1.261
		c-0.25,0.062-0.497-0.044-0.629-0.264c-0.05-0.083-0.149-0.302-0.012-0.561l8.896-16.594
		C20.507,13.675,24.854,18.996,24.553,25.076z"/>
</g>
<circle cx="15.467" cy="22.591" r="2.5"/>
<circle cx="9.096" cy="23.926" r="2.5"/>
<g>
	<path d="M21.927,27.627c-0.025,0-0.051-0.001-0.076-0.003c-0.551-0.042-0.964-0.522-0.922-1.073
		c0.393-5.168-3.241-9.712-8.271-10.343c-0.548-0.069-0.936-0.569-0.867-1.117c0.069-0.548,0.555-0.938,1.117-0.868
		c6.089,0.764,10.488,6.246,10.016,12.479C22.883,27.228,22.444,27.627,21.927,27.627z"/>
</g>
</svg>