<?xml version="1.0" encoding="iso-8859-1"?><!-- Generator: Adobe Illustrator 23.0.3, SVG Export Plug-In . SVG Version: 6.00 Build 0)  --><svg xmlns="http://www.w3.org/2000/svg" xmlns:xlink="http://www.w3.org/1999/xlink" viewBox="0 0 50 50" width="500px" height="500px"><circle style="fill:none;stroke:#000000;stroke-width:2;stroke-miterlimit:10;" cx="39" cy="39" r="10"/><path d="M39.367,38.421c-1.41-0.332-2.207-0.565-2.207-1.48c0-1.095,0.591-1.605,1.86-1.605c1.47,0,1.791,0.989,1.803,1.818l0.007,0.464h1.77l0.03-0.439c0.055-0.824-0.273-1.743-0.855-2.397c-0.492-0.551-1.14-0.904-1.889-1.03V32H38.11v1.75c-2.679,0.4-2.759,2.812-2.759,3.095c0,2.476,1.954,2.924,3.525,3.284c1.41,0.324,2.207,0.555,2.207,1.527c0,0.583-0.272,1.562-2.092,1.562c-0.04,0-0.985-0.007-1.578-0.615c-0.35-0.359-0.519-0.877-0.502-1.54l0.012-0.483H35.09l0.013,0.484c0.059,2.136,1.043,3.347,3.006,3.694V46h1.776v-1.219c2.857-0.431,3.006-2.679,3.006-3.139C42.892,39.251,40.937,38.791,39.367,38.421z"/><path d="M27,44H4.122c0.739-3.998,4.323-5.391,7.797-6.74c2-0.778,3.913-1.528,5.12-2.768C18.11,35.408,19.914,36,22,36c1.939,0,3.688-0.574,4.793-1.436c0.303-0.833,0.687-1.626,1.146-2.37c-0.001-0.004-0.001-0.009-0.003-0.013c0.004,0,0.008-0.001,0.012-0.002c0.516-0.834,1.114-1.611,1.8-2.306c-0.904,0.173-1.912,0.325-3.04,0.43c-0.282,0.026-0.541,0.171-0.709,0.398c-0.169,0.228-0.234,0.516-0.179,0.794C25.9,31.898,25.9,32.218,25.9,32.5c0,0.056,0.021,0.109,0.03,0.164C25.618,33.128,24.233,34,22,34c-2.144,0-3.555-0.772-3.908-1.279c0.107-0.754,0.108-1.11,0.108-1.422c0-0.507-0.379-0.933-0.882-0.993c-4.104-0.488-6.509-1.007-7.161-1.524c0.963-1.405,1.201-3.883,1.492-6.913c0.664-6.92,1.488-15.497,10.738-15.857l0.718,1.436C23.275,7.786,23.621,8,24,8c8.049,0,8.841,6.093,9.04,14.059c0.051,2.051,0.098,3.833,0.437,5.186c0.607-0.286,1.235-0.53,1.888-0.72c-0.237-1.172-0.286-2.909-0.326-4.516C34.883,15.761,34.65,6.382,24.624,6.012l-0.729-1.459C23.725,4.214,23.379,4,23,4C11.355,4,10.334,14.639,9.658,21.679c-0.258,2.688-0.525,5.467-1.321,6.172C8.123,28.041,8,28.313,8,28.6c0,2.267,3.292,2.969,8.067,3.569C16.03,32.273,16,32.382,16,32.5c0,0.017,0.004,0.033,0.004,0.05c-0.7,1.236-2.692,2.022-4.809,2.845c-3.946,1.533-8.858,3.441-9.193,9.55c-0.015,0.274,0.083,0.543,0.272,0.742C2.462,45.887,2.725,46,3,46h25.057C27.651,45.367,27.292,44.702,27,44z"/></svg>