<?xml version="1.0" encoding="iso-8859-1"?><!-- Generator: Adobe Illustrator 21.1.0, SVG Export Plug-In . SVG Version: 6.00 Build 0)  --><svg xmlns="http://www.w3.org/2000/svg" xmlns:xlink="http://www.w3.org/1999/xlink" viewBox="0 0 50 50" width="500px" height="500px"><path style="fill:none;stroke:#000000;stroke-width:2;stroke-linecap:round;stroke-miterlimit:10;" d="M28,7h10c1.105,0,2,0.895,2,2v37c0,1.105-0.895,2-2,2H12c-1.105,0-2-0.895-2-2V9c0-1.105,0.895-2,2-2h10"/><path style="fill:none;stroke:#000000;stroke-width:2;stroke-linecap:round;stroke-linejoin:round;stroke-miterlimit:10;" d="M25,2c-1.657,0-3,1.343-3,3v5h6V5C28,3.343,26.657,2,25,2z"/><circle cx="25" cy="5" r="1"/><path d="M26.584,38h-3.167C23.166,38,23,38.151,23,38.378v3.245C23,41.849,23.165,42,23.417,42h3.167C26.833,42,27,41.849,27,41.622v-3.245C27,38.151,26.834,38,26.584,38z"/><path d="M26.584,16h-3.167C23.166,16,23,16.146,23,16.363v17.274C23,33.854,23.165,34,23.417,34h3.167C26.833,34,27,33.854,27,33.637V16.363C27,16.146,26.834,16,26.584,16z"/></svg>