<?xml version="1.0" encoding="utf-8"?><!-- Generator: Adobe Illustrator 15.0.0, SVG Export Plug-In . SVG Version: 6.00 Build 0)  --><!DOCTYPE svg PUBLIC "-//W3C//DTD SVG 1.1//EN" "http://www.w3.org/Graphics/SVG/1.1/DTD/svg11.dtd"><svg xmlns="http://www.w3.org/2000/svg" xmlns:xlink="http://www.w3.org/1999/xlink" viewBox="0 0 50 50" width="500px" height="500px"><path d="M49.707,48.293L33.178,31.764C33.54,30.525,34.43,29.57,35.5,28.5c2-2.1,4.5-4.7,4.5-10.5c0-8.3-6.7-15-15-15c-5.52,0-10.399,3.016-13.028,7.558L1.707,0.293c-0.391-0.391-1.023-0.391-1.414,0s-0.391,1.023,0,1.414l48,48C48.488,49.902,48.744,50,49,50s0.512-0.098,0.707-0.293C50.098,49.316,50.098,48.684,49.707,48.293z M29.7,19.7L26,23.4v1.186l-5.93-5.93c0.05-0.127,0.124-0.249,0.23-0.356c0.4-0.4,1-0.4,1.4,0l3.3,3.3l3.3-3.3c0.4-0.4,1-0.4,1.4,0C30.1,18.7,30.1,19.3,29.7,19.7z"/><path d="M31,35l-5-5.026V36h-2v-8.037L12.2,16.1l-1.7-1.7C10.2,15.6,10,16.8,10,18c0,6.2,2.8,9.1,4.8,11.3c1.3,1.4,2.2,2.4,2.2,3.7v5h16v-1L31,35z"/><path d="M17,40v3c0,1.654,1.346,3,3,3h10c1.654,0,3-1.346,3-3v-3H17z"/><path d="M27,45c0-0.553,0.447-1,1-1s1,0.447,1,1c0,2.243-1.757,4-4,4s-4-1.757-4-4c0-0.553,0.448-1,1-1s1,0.447,1,1"/></svg>