<?xml version="1.0" encoding="iso-8859-1"?><!-- Generator: Adobe Illustrator 21.1.0, SVG Export Plug-In . SVG Version: 6.00 Build 0)  --><svg xmlns="http://www.w3.org/2000/svg" xmlns:xlink="http://www.w3.org/1999/xlink" viewBox="0 0 50 50" width="500px" height="500px"><path d="M25,8C13.42,8,4,17.42,4,29c0,11.58,9.42,21,21,21s21-9.42,21-21C46,17.42,36.58,8,25,8z M37.14,37.8c-0.39-0.49-0.82-1.07-1.22-1.75c1.29-2.01,2.06-4.4,2.08-6.96l-9.12,0.83c-0.08,0.33-0.2,0.65-0.36,0.94c0.01,0,0.01,0,0.02,0c1.35,1.2,2.13,1.55,3.88,2.01c1.31,5.2,4.94,7.77,4.59,8.12c-0.45,0.45-2.84-3.36-8.13-4.58c-0.46-1.75-0.81-2.53-2.01-3.88c0-0.01,0-0.01,0-0.02c-0.3,0.16-0.61,0.29-0.95,0.37L25.09,42c2.58-0.02,4.99-0.8,7.01-2.11c0.67,0.41,1.24,0.84,1.71,1.24C31.33,42.94,28.29,44,25,44c-8.27,0-15-6.73-15-15c0-3.29,1.06-6.33,2.87-8.81c0.4,0.47,0.83,1.04,1.24,1.71c-1.31,2.02-2.09,4.43-2.11,7.01l9.12-0.83c0.08-0.34,0.21-0.65,0.37-0.95c-0.01,0-0.01,0-0.02,0c-1.35-1.2-2.13-1.55-3.88-2.01c-1.22-5.29-5.03-7.68-4.58-8.13c0.35-0.35,2.92,3.28,8.12,4.59c0.46,1.75,0.81,2.53,2.01,3.88c0,0.01,0,0.01,0,0.02c0.29-0.16,0.61-0.28,0.94-0.36L24.91,16c-2.56,0.02-4.95,0.79-6.96,2.08c-0.68-0.4-1.26-0.83-1.75-1.22C18.67,15.06,21.71,14,25,14c8.27,0,15,6.73,15,15C40,32.29,38.94,35.33,37.14,37.8z"/><path d="M21.61,31.09l-5.86,7.03c-2.3-2.32-3.73-5.52-3.75-9.03l9.12,0.83C21.22,30.34,21.38,30.73,21.61,31.09z"/><path d="M24.91,42c-3.51-0.02-6.71-1.45-9.03-3.75l7.03-5.86c0.36,0.23,0.75,0.39,1.17,0.49L24.91,42z"/><path d="M38,28.91l-9.12-0.83c-0.1-0.42-0.26-0.81-0.49-1.17l5.86-7.03C36.55,22.2,37.98,25.4,38,28.91z"/><path d="M34.12,19.75l-7.03,5.86c-0.36-0.23-0.75-0.39-1.17-0.49L25.09,16C28.6,16.02,31.8,17.45,34.12,19.75z"/><circle cx="25" cy="29" r="2"/><circle style="fill:none;stroke:#000000;stroke-width:2;stroke-miterlimit:10;" cx="25" cy="4" r="3"/><circle cx="25" cy="8" r="2"/></svg>