<?xml version="1.0" encoding="iso-8859-1"?><!-- Generator: Adobe Illustrator 23.0.3, SVG Export Plug-In . SVG Version: 6.00 Build 0)  --><svg xmlns="http://www.w3.org/2000/svg" xmlns:xlink="http://www.w3.org/1999/xlink" viewBox="0 0 50 50" width="500px" height="500px"><line style="fill:none;stroke:#000000;stroke-width:2;stroke-linejoin:round;stroke-miterlimit:10;" x1="12" y1="44.667" x2="12" y2="33"/><circle style="fill:none;stroke:#000000;stroke-width:2;stroke-linecap:round;stroke-linejoin:round;stroke-miterlimit:10;" cx="12" cy="8" r="5"/><path style="fill:none;stroke:#000000;stroke-width:2;stroke-linecap:round;stroke-linejoin:round;stroke-miterlimit:10;" d="M21,32V20.5c0-2.481-2.018-4.5-4.5-4.5h-0.9H8.4H7.5C5.018,16,3,18.019,3,20.5V32"/><path style="fill:none;stroke:#000000;stroke-width:2;stroke-linecap:round;stroke-linejoin:round;stroke-miterlimit:10;" d="M17,32c0,1.105,0.895,2,2,2s2-0.895,2-2"/><path style="fill:none;stroke:#000000;stroke-width:2;stroke-linecap:round;stroke-linejoin:round;stroke-miterlimit:10;" d="M3,32c0,1.105,0.895,2,2,2s2-0.895,2-2"/><path style="fill:none;stroke:#000000;stroke-width:2;stroke-linejoin:round;stroke-miterlimit:10;" d="M12,44.5c0,1.381-1.119,2.5-2.5,2.5S7,45.881,7,44.5V23"/><path style="fill:none;stroke:#000000;stroke-width:2;stroke-linejoin:round;stroke-miterlimit:10;" d="M12,44.5c0,1.381,1.119,2.5,2.5,2.5s2.5-1.119,2.5-2.5V23"/><g><path d="M42,21.522c0-0.008,0-0.015,0-0.022c0-3.584-2.916-6.5-6.5-6.5c-1.284,0-2.511,0.37-3.559,1.059C29.822,12.34,25.858,10,21.517,10c-0.62,0-1.224,0.062-1.819,0.153c-0.228,0.815-0.575,1.579-1.032,2.267c0.904-0.27,1.86-0.42,2.851-0.42c3.98,0,7.58,2.362,9.17,6.018l0.587,1.349l1.039-1.042C33.164,17.471,34.295,17,35.5,17c2.481,0,4.5,2.019,4.5,4.5c0,0.208-0.021,0.413-0.047,0.614l-0.121,0.887l0.869,0.217C43.821,23.998,46,26.787,46,30c0,3.859-3.14,7-7,7H20v2h19c4.962,0,9-4.037,9-9C48,26.153,45.572,22.779,42,21.522z"/></g></svg>