<?xml version="1.0" encoding="utf-8"?><!-- Generator: Adobe Illustrator 17.0.0, SVG Export Plug-In . SVG Version: 6.00 Build 0)  --><!DOCTYPE svg PUBLIC "-//W3C//DTD SVG 1.1//EN" "http://www.w3.org/Graphics/SVG/1.1/DTD/svg11.dtd"><svg xmlns="http://www.w3.org/2000/svg" xmlns:xlink="http://www.w3.org/1999/xlink" viewBox="0 0 50 50" width="500px" height="500px"><path fill="none" stroke="#000000" stroke-width="1.9761" stroke-linecap="round" stroke-miterlimit="10" d="M41.628,24.342C43.858,8.643,34.981,2,25,2C15.028,2,5.862,8.585,8.338,24.3C6.914,25.485,6,27.554,6,30.024c0,3.311,3.097,6.152,5.494,7.054C13.742,44.736,21.928,48,25,48c3.063,0,11.214-3.246,13.488-10.855C41.154,36.278,44,33.181,44,30.024C44,27.64,43.05,25.555,41.628,24.342z"/><line fill="none" stroke="#000000" stroke-width="2" stroke-linecap="square" stroke-miterlimit="10" x1="19" y1="31" x2="31" y2="19"/><line fill="none" stroke="#000000" stroke-width="2" stroke-linecap="square" stroke-miterlimit="10" x1="19" y1="19" x2="31" y2="31"/></svg>