<?xml version="1.0" encoding="iso-8859-1"?><!-- Generator: Adobe Illustrator 23.0.3, SVG Export Plug-In . SVG Version: 6.00 Build 0)  --><svg xmlns="http://www.w3.org/2000/svg" xmlns:xlink="http://www.w3.org/1999/xlink" viewBox="0 0 50 50" width="500px" height="500px"><line style="fill:none;stroke:#000000;stroke-width:2;stroke-linecap:round;stroke-linejoin:round;stroke-miterlimit:10;" x1="4.9" y1="4.9" x2="44.9" y2="44.9"/><g><path d="M19.4,33c-0.3,0.5-0.7,0.9-1.2,1.4c-0.4,0.5-0.9,0.9-1.4,1.3l1.2,1.8c0.3-0.2,0.6-0.4,0.9-0.6c0.3-0.1,0.5-0.3,0.8-0.4c0.3-0.1,0.6-0.2,0.9-0.3c0.3-0.1,0.7-0.1,1.1-0.1c0.7,0,1.3,0.1,1.8,0.2c0.6,0.2,1.1,0.3,1.6,0.5s1,0.4,1.6,0.5c0.5,0.1,1.2,0.2,1.9,0.2c1.1,0,1.9-0.2,2.7-0.5c0.295-0.169,0.612-0.365,0.927-0.569l-1.342-1.342c-0.063,0.037-0.121,0.074-0.186,0.111c-0.7,0.4-1.4,0.6-2.1,0.6c-0.5,0-1.1-0.1-1.5-0.2c-0.5-0.2-0.9-0.3-1.4-0.5s-1-0.4-1.5-0.5c-0.5-0.1-1.2-0.2-1.9-0.2c-0.6,0-1.2,0.1-1.7,0.3c-0.6,0.2-1.1,0.5-1.6,0.7l-0.1-0.1c0.5-0.3,1-0.8,1.4-1.2c0.5-0.4,0.9-0.9,1.2-1.4s0.6-1,0.8-1.6c0.2-0.6,0.3-1.2,0.3-1.8c0-0.5-0.1-1.1-0.2-1.7c-0.199-0.696-0.398-1.194-0.597-1.593l-4.598-4.598c0.074,0.299,0.164,0.596,0.295,0.891c0.3,0.9,0.8,1.8,1.3,2.6h-2V26h2.7c0.3,0.4,0.5,1,0.7,1.7c0.2,0.7,0.3,1.3,0.3,1.8c0,0.7-0.1,1.3-0.3,1.9C20,32,19.7,32.5,19.4,33z"/><path d="M28.9,16.2c0.9,1.1,1.4,2.6,1.4,4.4h2.1c0-2.5-0.6-4.5-2-5.9c-1.4-1.4-3.3-2.1-5.8-2.1c-0.9,0-1.9,0.1-2.8,0.4c-0.9,0.3-1.7,0.7-2.4,1.3c-0.7,0.5-1.3,1.2-1.7,2.1c-0.345,0.621-0.539,1.295-0.631,2.044l2.223,2.223C19.24,20.377,19.2,20.063,19.2,19.7c0-0.9,0.2-1.6,0.5-2.3c0.3-0.6,0.7-1.2,1.2-1.6c0.5-0.5,1.1-0.8,1.8-1c0.6-0.2,1.3-0.3,2-0.3C26.5,14.5,27.9,15,28.9,16.2z"/><path d="M9.503,10.878C13.346,6.664,18.861,4,25,4c11.579,0,21,9.42,21,21c0,6.139-2.664,11.654-6.878,15.497l1.43,1.43C45.127,37.721,48,31.69,48,25C48,12.318,37.683,2,25,2C18.31,2,12.279,4.873,8.073,9.448L9.503,10.878z"/><path d="M37.575,41.779C34.065,44.416,29.719,46,25,46C13.421,46,4,36.58,4,25c0-4.719,1.584-9.065,4.221-12.575l-1.44-1.44C3.787,14.868,2,19.728,2,25c0,12.682,10.317,23,23,23c5.272,0,10.132-1.787,14.015-4.781L37.575,41.779z"/></g></svg>