<?xml version="1.0" encoding="iso-8859-1"?>
<!-- Generator: Adobe Illustrator 27.0.0, SVG Export Plug-In . SVG Version: 6.00 Build 0)  -->
<svg version="1.1" baseProfile="basic" xmlns="http://www.w3.org/2000/svg" xmlns:xlink="http://www.w3.org/1999/xlink" x="0px"
	 y="0px" viewBox="0 0 50 50" xml:space="preserve">
<g id="Layer_1">
</g>
<g id="&#x421;&#x43B;&#x43E;&#x439;_1">
	<path d="M49.03,2.09C48.49,1.61,47.8,1.24,47,0.94C45.39,0.34,43.31,0,41,0s-4.39,0.34-6,0.94c-0.8,0.3-1.49,0.67-2.03,1.15
		C32.43,2.57,32,3.23,32,4v22.38c-0.31-0.17-0.64-0.31-1-0.44c-1.61-0.6-3.69-0.94-6-0.94s-4.39,0.34-6,0.94
		c-0.36,0.13-0.69,0.27-1,0.44V19c0-0.77-0.43-1.43-0.97-1.91c-0.54-0.48-1.23-0.85-2.03-1.15C13.39,15.34,11.31,15,9,15
		s-4.39,0.34-6,0.94c-0.8,0.3-1.49,0.67-2.03,1.15C0.43,17.57,0,18.23,0,19v25c0,0.78,0.43,1.45,0.97,1.94
		C1.51,46.42,2.2,46.77,3,47.06C4.61,47.66,6.7,48,9,48s4.39-0.34,6-0.94c0.79-0.29,1.46-0.62,2-1.09c0.54,0.47,1.21,0.8,2,1.09
		c1.61,0.6,3.7,0.94,6,0.94c2.04,0,3.92-0.27,5.44-0.75c-0.42-0.55-0.79-1.14-1.11-1.76C28.13,45.8,26.62,46,25,46
		c-2.1,0-4.02-0.33-5.31-0.81c-0.65-0.24-1.14-0.51-1.41-0.75C18.01,44.2,18,44.07,18,44v-2.38c0.31,0.17,0.64,0.31,1,0.44
		c1.61,0.6,3.7,0.94,6,0.94c1.17,0,2.29-0.09,3.32-0.25c-0.15-0.64-0.25-1.31-0.29-1.98C27.11,40.91,26.08,41,25,41
		c-2.1,0-4.02-0.33-5.31-0.81c-0.65-0.24-1.14-0.51-1.41-0.75C18.01,39.2,18,39.07,18,39v-2.38c0.31,0.17,0.64,0.31,1,0.44
		c1.61,0.6,3.7,0.94,6,0.94c1.13,0,2.21-0.08,3.21-0.23c0.14-0.75,0.35-1.47,0.62-2.16C27.73,35.85,26.4,36,25,36
		c-2.1,0-4.02-0.33-5.31-0.81c-0.65-0.24-1.14-0.51-1.41-0.75C18.01,34.2,18,34.07,18,34v-2.38c0.31,0.17,0.64,0.31,1,0.44
		c1.61,0.6,3.69,0.94,6,0.94s4.39-0.34,6-0.94c0.01,0,0.01-0.01,0.02-0.01c0.93-1.05,2.04-1.93,3.27-2.6l-0.01-0.01
		C34.01,29.2,34,29.07,34,29v-2.38c0.31,0.17,0.64,0.31,1,0.44c1.61,0.6,3.7,0.94,6,0.94s4.39-0.34,6-0.94
		c0.36-0.13,0.69-0.27,1-0.44V29c0,0.07-0.01,0.2-0.28,0.44c-0.21,0.19-0.57,0.4-1.03,0.6c1.31,0.89,2.44,2.02,3.31,3.34V4
		C50,3.23,49.57,2.57,49.03,2.09z M16,44c0,0.07-0.01,0.2-0.28,0.44c-0.27,0.24-0.76,0.51-1.41,0.75C13.02,45.67,11.1,46,9,46
		s-4.02-0.33-5.31-0.81c-0.65-0.24-1.14-0.51-1.41-0.75C2.01,44.2,2,44.07,2,44v-2.38c0.31,0.17,0.64,0.31,1,0.44
		C4.61,42.66,6.7,43,9,43s4.39-0.34,6-0.94c0.36-0.13,0.69-0.27,1-0.44V44z M16,39c0,0.07-0.01,0.2-0.28,0.44
		c-0.27,0.24-0.76,0.51-1.41,0.75C13.02,40.67,11.1,41,9,41s-4.02-0.33-5.31-0.81c-0.65-0.24-1.14-0.51-1.41-0.75
		C2.01,39.2,2,39.07,2,39v-2.38c0.31,0.17,0.64,0.31,1,0.44C4.61,37.66,6.7,38,9,38s4.39-0.34,6-0.94c0.36-0.13,0.69-0.27,1-0.44V39
		z M16,34c0,0.07-0.01,0.2-0.28,0.44c-0.27,0.24-0.76,0.51-1.41,0.75C13.02,35.67,11.1,36,9,36s-4.02-0.33-5.31-0.81
		c-0.65-0.24-1.14-0.51-1.41-0.75C2.01,34.2,2,34.07,2,34v-2.38c0.31,0.17,0.64,0.31,1,0.44C4.61,32.66,6.7,33,9,33
		s4.39-0.34,6-0.94c0.36-0.13,0.69-0.27,1-0.44V34z M16,29c0,0.07-0.01,0.2-0.28,0.44c-0.27,0.24-0.76,0.51-1.41,0.75
		C13.02,30.67,11.1,31,9,31s-4.02-0.33-5.31-0.81c-0.65-0.24-1.14-0.51-1.41-0.75C2.01,29.2,2,29.07,2,29v-2.38
		c0.31,0.17,0.64,0.31,1,0.44C4.61,27.66,6.7,28,9,28s4.39-0.34,6-0.94c0.36-0.13,0.69-0.27,1-0.44V29z M16,24
		c0,0.07-0.01,0.2-0.28,0.44c-0.27,0.24-0.76,0.51-1.41,0.75C13.02,25.67,11.1,26,9,26s-4.02-0.33-5.31-0.81
		c-0.65-0.24-1.14-0.51-1.41-0.75C2.01,24.2,2,24.07,2,24v-2.38c0.31,0.17,0.64,0.31,1,0.44C4.61,22.66,6.69,23,9,23
		s4.39-0.34,6-0.94c0.36-0.13,0.69-0.27,1-0.44V24z M15.72,19.41c-0.27,0.23-0.76,0.54-1.41,0.78C13.02,20.67,11.11,21,9,21
		s-4.02-0.33-5.31-0.81c-0.65-0.24-1.14-0.55-1.41-0.78C2.01,19.17,2,19.05,2,19s0.01-0.17,0.28-0.41c0.27-0.23,0.76-0.54,1.41-0.78
		C4.98,17.33,6.89,17,9,17s4.02,0.33,5.31,0.81c0.65,0.24,1.14,0.55,1.41,0.78C15.99,18.83,16,18.95,16,19S15.99,19.17,15.72,19.41z
		 M31.72,29.41c-0.27,0.23-0.76,0.54-1.41,0.78C29.02,30.67,27.11,31,25,31s-4.02-0.33-5.31-0.81c-0.65-0.24-1.14-0.55-1.41-0.78
		C18.01,29.17,18,29.05,18,29s0.01-0.17,0.28-0.41c0.27-0.23,0.76-0.54,1.41-0.78C20.98,27.33,22.89,27,25,27s4.02,0.33,5.31,0.81
		c0.65,0.24,1.14,0.55,1.41,0.78C31.99,28.83,32,28.95,32,29S31.99,29.17,31.72,29.41z M48,24c0,0.07-0.01,0.2-0.28,0.44
		c-0.27,0.24-0.76,0.51-1.41,0.75C45.02,25.67,43.1,26,41,26s-4.02-0.33-5.31-0.81c-0.65-0.24-1.14-0.51-1.41-0.75
		C34.01,24.2,34,24.07,34,24v-2.38c0.31,0.17,0.64,0.31,1,0.44c1.61,0.6,3.7,0.94,6,0.94s4.39-0.34,6-0.94
		c0.36-0.13,0.69-0.27,1-0.44V24z M48,19c0,0.07-0.01,0.2-0.28,0.44c-0.27,0.24-0.76,0.51-1.41,0.75C45.02,20.67,43.1,21,41,21
		s-4.02-0.33-5.31-0.81c-0.65-0.24-1.14-0.51-1.41-0.75C34.01,19.2,34,19.07,34,19v-2.38c0.31,0.17,0.64,0.31,1,0.44
		c1.61,0.6,3.7,0.94,6,0.94s4.39-0.34,6-0.94c0.36-0.13,0.69-0.27,1-0.44V19z M48,14c0,0.07-0.01,0.2-0.28,0.44
		c-0.27,0.24-0.76,0.51-1.41,0.75C45.02,15.67,43.1,16,41,16s-4.02-0.33-5.31-0.81c-0.65-0.24-1.14-0.51-1.41-0.75
		C34.01,14.2,34,14.07,34,14v-2.38c0.31,0.17,0.64,0.31,1,0.44c1.61,0.6,3.7,0.94,6,0.94s4.39-0.34,6-0.94
		c0.36-0.13,0.69-0.27,1-0.44V14z M48,9c0,0.07-0.01,0.2-0.28,0.44c-0.27,0.24-0.76,0.51-1.41,0.75C45.02,10.67,43.1,11,41,11
		s-4.02-0.33-5.31-0.81c-0.65-0.24-1.14-0.51-1.41-0.75C34.01,9.2,34,9.07,34,9V6.62c0.31,0.17,0.64,0.31,1,0.44
		C36.61,7.66,38.69,8,41,8s4.39-0.34,6-0.94c0.36-0.13,0.69-0.27,1-0.44V9z M47.72,4.41c-0.27,0.23-0.76,0.54-1.41,0.78
		C45.02,5.67,43.11,6,41,6s-4.02-0.33-5.31-0.81c-0.65-0.24-1.14-0.55-1.41-0.78C34.01,4.17,34,4.05,34,4s0.01-0.17,0.28-0.41
		c0.27-0.23,0.76-0.54,1.41-0.78C36.98,2.33,38.89,2,41,2s4.02,0.33,5.31,0.81c0.65,0.24,1.14,0.55,1.41,0.78
		C47.99,3.83,48,3.95,48,4S47.99,4.17,47.72,4.41z"/>
	<g>
		<g>
			<path d="M43.66,43.05v1.92h-7.59v-1.79c1.2-0.16,2.01-1.07,2.03-2.27c0-0.14-0.03-0.28-0.06-0.4h-1.93v-1.58h1.48
				c-0.23-0.61-0.38-1.12-0.38-1.7c0-1.75,1.38-2.77,3.77-2.77c0.9,0,1.61,0.08,2.23,0.24v1.8c-0.65-0.15-1.24-0.22-1.92-0.22
				c-1.21,0-1.96,0.53-1.96,1.39c0,0.45,0.1,0.85,0.27,1.26h2.75v1.58h-2.32c0.03,0.12,0.06,0.24,0.06,0.38
				c0.04,0.84-0.37,1.64-1.08,2.02v0.14H43.66z"/>
		</g>
		<path d="M40,32c4.411,0,8,3.589,8,8s-3.589,8-8,8s-8-3.589-8-8S35.589,32,40,32 M40,30c-5.523,0-10,4.477-10,10s4.477,10,10,10
			s10-4.477,10-10S45.523,30,40,30L40,30z"/>
	</g>
</g>
</svg>