<?xml version="1.0" encoding="utf-8"?><!-- Generator: Adobe Illustrator 18.0.0, SVG Export Plug-In . SVG Version: 6.00 Build 0)  --><!DOCTYPE svg PUBLIC "-//W3C//DTD SVG 1.0//EN" "http://www.w3.org/TR/2001/REC-SVG-20010904/DTD/svg10.dtd"><svg xmlns="http://www.w3.org/2000/svg" xmlns:xlink="http://www.w3.org/1999/xlink" viewBox="0 0 50 50" width="500px" height="500px"><path fill="none" stroke="#000000" stroke-width="2" stroke-linecap="round" stroke-linejoin="round" stroke-miterlimit="10" d="M11.8,31.9c-2.7-4.4-5.3-12.4-5.3-13.1c0-2.1,5.4-9.9,6.7-11s15.3-5.3,17.5-6.7c3.2,0,12.2,2.3,14.6,6.9c-4.4,3-4.6,12.2-8.7,16.6c-4.2,4.5-9.3,5-11.1,6.4c-1.9,1.4-5.3,5.2-8.8,5.2c-2.1,0-4.3-1.7-4.5-3.8c-0.5-5.6,9.5-9.3,9.5-9.3s4.1-5.6,5.4-6.6c0,0-5.6,1.4-8-0.8c0,0-2,3.9-5.3,4.6c0,0,1,1.3,1.2,3.8c0,0,0.9,1,1.1,1.7"/><path fill="none" stroke="#000000" stroke-width="2" stroke-linecap="round" stroke-linejoin="round" stroke-miterlimit="10" d="M25.4,31.3c2.2,1.8,3.6,4.6,3.6,7.7c0,5.5-4.5,10-10,10S9,44.5,9,39c0-2.8,1.1-5.3,3-7.1"/></svg>