<?xml version="1.0" encoding="iso-8859-1"?><!-- Generator: Adobe Illustrator 21.0.2, SVG Export Plug-In . SVG Version: 6.00 Build 0)  --><svg xmlns="http://www.w3.org/2000/svg" xmlns:xlink="http://www.w3.org/1999/xlink" viewBox="0 0 50 50" width="500px" height="500px"><g></g><path d="M41,3H9C6.243,3,4,5.243,4,8v26c0,2.757,2.243,5,5,5h4c-0.03,2.516-0.292,4.809-2.515,6.143c-0.385,0.231-0.569,0.691-0.449,1.125C10.156,46.7,10.551,47,11,47c3.555,0,8.239-1.41,10.707-8H41c2.757,0,5-2.243,5-5V8C46,5.243,43.757,3,41,3z M14.429,9L18,11.143v1.09l4.702,4.702l-1.768,1.768L16.232,14h-1.09L13,10.429L14.429,9z M36.951,30.99c-0.015,0.073-0.042,0.141-0.063,0.212c-0.025,0.085-0.045,0.172-0.079,0.254c-0.034,0.083-0.081,0.157-0.124,0.235c-0.035,0.065-0.064,0.132-0.106,0.195c-0.183,0.274-0.419,0.51-0.693,0.693c-0.062,0.041-0.129,0.07-0.194,0.105c-0.078,0.043-0.153,0.09-0.236,0.125c-0.083,0.034-0.169,0.054-0.254,0.079c-0.071,0.021-0.139,0.049-0.213,0.063c-0.323,0.064-0.656,0.064-0.979,0c-0.074-0.015-0.142-0.042-0.213-0.063c-0.085-0.025-0.171-0.045-0.254-0.079c-0.083-0.034-0.158-0.082-0.236-0.125c-0.065-0.035-0.132-0.064-0.194-0.105c-0.137-0.092-0.265-0.195-0.381-0.311l-6.318-6.318l3.536-3.536l6.318,6.318c0.116,0.116,0.22,0.244,0.311,0.381c0.041,0.062,0.07,0.129,0.105,0.194c0.043,0.078,0.09,0.153,0.125,0.236c0.034,0.083,0.054,0.169,0.079,0.254c0.021,0.071,0.049,0.139,0.063,0.213C37.015,30.334,37.015,30.666,36.951,30.99z M31,21c-0.734,0-1.435-0.138-2.085-0.38L17.268,32.268c-0.116,0.116-0.244,0.22-0.381,0.311c-0.062,0.041-0.129,0.07-0.194,0.105c-0.078,0.043-0.153,0.09-0.236,0.125c-0.083,0.034-0.169,0.054-0.254,0.079c-0.071,0.021-0.139,0.049-0.213,0.063c-0.323,0.064-0.656,0.064-0.979,0c-0.074-0.015-0.142-0.042-0.213-0.063c-0.085-0.025-0.171-0.045-0.254-0.079c-0.083-0.034-0.158-0.082-0.236-0.125c-0.065-0.035-0.132-0.064-0.194-0.105c-0.274-0.183-0.51-0.419-0.693-0.693c-0.042-0.062-0.07-0.13-0.106-0.195c-0.043-0.078-0.09-0.153-0.124-0.235c-0.034-0.083-0.054-0.169-0.079-0.254c-0.021-0.071-0.048-0.139-0.063-0.212c-0.064-0.323-0.064-0.656,0-0.979c0.015-0.074,0.042-0.142,0.063-0.213c0.025-0.085,0.045-0.171,0.079-0.254c0.034-0.083,0.082-0.158,0.125-0.236c0.035-0.065,0.064-0.132,0.105-0.194c0.092-0.137,0.195-0.265,0.311-0.381L25.38,17.085C25.138,16.435,25,15.734,25,15c0-3.314,2.686-6,6-6c0.926,0,1.799,0.216,2.582,0.59l-4.496,4.496l2.828,2.828l4.496-4.496C36.784,13.201,37,14.074,37,15C37,18.314,34.314,21,31,21z"/></svg>