<?xml version="1.0" encoding="utf-8"?><!-- Generator: Adobe Illustrator 18.1.1, SVG Export Plug-In . SVG Version: 6.00 Build 0)  --><svg xmlns="http://www.w3.org/2000/svg" xmlns:xlink="http://www.w3.org/1999/xlink" viewBox="0 0 50 50" width="500px" height="500px"><line fill="none" stroke="#000000" stroke-width="2" stroke-linecap="round" stroke-miterlimit="10" x1="23.9" y1="36" x2="19" y2="34"/><line fill="none" stroke="#000000" stroke-width="2" stroke-linecap="round" stroke-miterlimit="10" x1="31" y1="34" x2="26.1" y2="36"/><polygon points="26,35 24,35 23,36.5 24,39 22,45 28,45 26,39 27,36.5 "/><path fill="none" stroke="#000000" stroke-width="2" stroke-linecap="round" stroke-linejoin="round" stroke-miterlimit="10" d="M29.9,32.4c-0.1-1.6-0.1-2.8-0.1-4.2c0.7-0.4,2-2.9,2.3-4.9c0.6,0,1.5-0.6,1.7-2.8c0.1-1.2-0.3-2-0.8-2.1C34.8,16.1,34.5,7,28,7l-1-2c-9.4,0-12.8,7.2-10.1,13.3c-0.3,0.2-0.9,0.9-0.8,2.1c0.3,2.2,1.2,2.8,1.7,2.8c0.2,2.1,1.6,4.5,2.3,4.9c0,1.5,0.1,2.6-0.1,4.2C18.4,37.2,6.5,35.8,6,45h38C43.5,35.8,31.7,37.2,29.9,32.4z"/></svg>