<?xml version="1.0" encoding="iso-8859-1"?><!-- Generator: Adobe Illustrator 20.1.0, SVG Export Plug-In . SVG Version: 6.00 Build 0)  --><svg xmlns="http://www.w3.org/2000/svg" xmlns:xlink="http://www.w3.org/1999/xlink" viewBox="0 0 50 50" width="500px" height="500px"><path style="fill:none;stroke:#000000;stroke-width:2;stroke-linejoin:round;stroke-miterlimit:10;" d="M25,11L25,11c-2.209,0-4-1.791-4-4v0c0-2.209,1.791-4,4-4h0c2.209,0,4,1.791,4,4v0C29,9.209,27.209,11,25,11z"/><path style="fill:none;stroke:#000000;stroke-width:2;stroke-linejoin:round;stroke-miterlimit:10;" d="M25,47L25,47c-2.209,0-4-1.791-4-4v0c0-2.209,1.791-4,4-4h0c2.209,0,4,1.791,4,4v0C29,45.209,27.209,47,25,47z"/><rect x="21" y="22" style="fill:none;stroke:#000000;stroke-width:2;stroke-linejoin:round;stroke-miterlimit:10;" width="8" height="6"/><rect x="3" y="22" style="fill:none;stroke:#000000;stroke-width:2;stroke-linejoin:round;stroke-miterlimit:10;" width="8" height="6"/><rect x="39" y="22" style="fill:none;stroke:#000000;stroke-width:2;stroke-linejoin:round;stroke-miterlimit:10;" width="8" height="6"/><line style="fill:none;stroke:#000000;stroke-width:2;stroke-miterlimit:10;" x1="25" y1="11" x2="25" y2="22"/><line style="fill:none;stroke:#000000;stroke-width:2;stroke-miterlimit:10;" x1="25" y1="28" x2="25" y2="39"/><path style="fill:none;stroke:#000000;stroke-width:2;stroke-miterlimit:10;" d="M21,43h-9c-2.761,0-5-2.239-5-5V28"/><path style="fill:none;stroke:#000000;stroke-width:2;stroke-miterlimit:10;" d="M43,28v10c0,2.761-2.239,5-5,5h-9"/><path style="fill:none;stroke:#000000;stroke-width:2;stroke-miterlimit:10;" d="M29,7h9c2.761,0,5,2.239,5,5v10"/><path style="fill:none;stroke:#000000;stroke-width:2;stroke-miterlimit:10;" d="M7,22V12c0-2.761,2.239-5,5-5h9"/></svg>