<svg xmlns="http://www.w3.org/2000/svg"  viewBox="0 0 50 50" width="500px" height="500px"><defs><style>.bba2183a-93c0-4e8f-97e4-023c98ecfd2d{fill:none;stroke:#000;stroke-miterlimit:10;stroke-width:2px;}</style></defs><title>Daily Icons</title><g id="a74392b7-cfa7-4f34-af3b-5b14c575e84e" data-name="Man with money"><circle cx="25" cy="17" r="4"/><path d="M20,37v9.5a2.5,2.5,0,0,0,5,0V36Z"/><path d="M26,37v9.5a2.5,2.5,0,0,0,5,0V36Z"/><path d="M20,37V26.92l-6.3-6.4a2.046,2.046,0,0,1-.54-.73l-2-5a2,2,0,0,1,3.68-1.58l1.81,4.57L20.41,22h9.18l3.76-4.22,1.81-4.57a2,2,0,1,1,3.68,1.58l-2,5a2.046,2.046,0,0,1-.54.73L31,26.06V37Z"/><path class="bba2183a-93c0-4e8f-97e4-023c98ecfd2d" d="M43.354,6.025a1.891,1.891,0,0,0-2.829,0,1.891,1.891,0,0,0,0,2.829c1.7,1.7,3.253-2.4,4.95-.708a1.891,1.891,0,0,1,0,2.829,1.891,1.891,0,0,1-2.829,0"/><line class="bba2183a-93c0-4e8f-97e4-023c98ecfd2d" x1="40.525" y1="6.025" x2="39.111" y2="4.611"/><line class="bba2183a-93c0-4e8f-97e4-023c98ecfd2d" x1="45.475" y1="10.975" x2="46.889" y2="12.389"/><path class="bba2183a-93c0-4e8f-97e4-023c98ecfd2d" d="M23.1,7.832a1.889,1.889,0,0,0,2.756.636,1.89,1.89,0,0,0,.636-2.756c-1.272-2.035-3.71,1.611-4.982-.424a1.89,1.89,0,0,1,.636-2.756,1.889,1.889,0,0,1,2.756.636"/><line class="bba2183a-93c0-4e8f-97e4-023c98ecfd2d" x1="25.855" y1="8.468" x2="26.915" y2="10.164"/><line class="bba2183a-93c0-4e8f-97e4-023c98ecfd2d" x1="22.145" y1="2.532" x2="21.085" y2="0.836"/><path class="bba2183a-93c0-4e8f-97e4-023c98ecfd2d" d="M9.475,8.854a1.891,1.891,0,0,0,0-2.829,1.891,1.891,0,0,0-2.829,0c-1.7,1.7,2.405,3.253.708,4.95a1.891,1.891,0,0,1-2.829,0,1.891,1.891,0,0,1,0-2.829"/><line class="bba2183a-93c0-4e8f-97e4-023c98ecfd2d" x1="9.475" y1="6.025" x2="10.889" y2="4.611"/><line class="bba2183a-93c0-4e8f-97e4-023c98ecfd2d" x1="4.525" y1="10.975" x2="3.111" y2="12.389"/></g></svg>