<?xml version="1.0" encoding="iso-8859-1"?>
<!-- Generator: Adobe Illustrator 18.0.0, SVG Export Plug-In . SVG Version: 6.00 Build 0)  -->
<!DOCTYPE svg PUBLIC "-//W3C//DTD SVG 1.1//EN" "http://www.w3.org/Graphics/SVG/1.1/DTD/svg11.dtd">
<svg version="1.1" id="Layer_1" xmlns="http://www.w3.org/2000/svg" xmlns:xlink="http://www.w3.org/1999/xlink" x="0px" y="0px"
	 width="50px" height="50px" viewBox="0 0 50 50" style="enable-background:new 0 0 50 50;" xml:space="preserve">
<path d="M2.801,8C1.266,8,0,9.266,0,10.801V37c0,1.645,1.355,3,3,3h4.094c0.477,2.828,2.945,5,5.906,5s5.43-2.172,5.906-5h15.188
	c0.477,2.828,2.945,5,5.906,5s5.43-2.172,5.906-5H47c0.832,0,1.551-0.387,2.082-0.918S50,37.832,50,37v-9.598
	c0-1.125-0.418-2.148-0.801-2.934c-0.387-0.781-0.777-1.344-0.777-1.344l-0.012-0.012l-4.117-5.523l-0.012-0.012
	C43.395,16.469,41.973,15,40,15h-8c-0.359,0-0.691,0.082-1,0.207v-4.305C31,9.301,29.699,8,28.098,8H2.801z M2.801,10h25.297
	C28.5,10,29,10.5,29,10.902V38H18.906c-0.477-2.828-2.945-5-5.906-5s-5.43,2.172-5.906,5H3c-0.555,0-1-0.445-1-1V10.801
	C2,10.336,2.336,10,2.801,10z M32,17h4v9c0,0.832,0.387,1.551,0.918,2.082S38.168,29,39,29h9v8c0,0.168-0.113,0.449-0.332,0.668
	S47.168,38,47,38h-1.094c-0.477-2.828-2.945-5-5.906-5s-5.43,2.172-5.906,5H31V18c0-0.168,0.113-0.449,0.332-0.668S31.832,17,32,17z
	 M38,17h2c0.828,0,2.004,0.934,2.719,1.824l4.063,5.449c0,0,0.305,0.438,0.621,1.082c0.254,0.516,0.398,1.117,0.48,1.645H39
	c-0.168,0-0.449-0.113-0.668-0.332S38,26.168,38,26V17z M13,35c2.223,0,4,1.777,4,4s-1.777,4-4,4s-4-1.777-4-4S10.777,35,13,35z
	 M40,35c2.223,0,4,1.777,4,4s-1.777,4-4,4s-4-1.777-4-4S37.777,35,40,35z"/>
<g>
	<path d="M19.5,33c-1.379,0-2.5-1.122-2.5-2.5v-1.579l-0.016,0.004c-0.331,0.09-0.702,0.191-1.013,0.279
		c0,0.03,0.002,0.063,0.007,0.088C15.989,29.353,16,29.439,16,29.5c0,1.378-1.121,2.5-2.5,2.5c-1.024,0-1.907-0.62-2.293-1.503
		c-2.368,0.66-4.116,1.121-4.116,1.121c-0.955,0.236-1.829-0.175-2.291-0.946c-0.377-0.628-0.394-1.391-0.047-2.04l9.06-16.902
		c0.195-0.363,0.596-0.573,1.007-0.52c7.089,0.89,12.226,7.164,11.693,14.283c-0.063,0.78-0.063,0.78-4.511,2.038L22,30.5
		C22,31.878,20.879,33,19.5,33z M17.379,26.804c0.894,0,1.621,0.729,1.621,1.625v2.07c0,0.276,0.225,0.5,0.5,0.5s0.5-0.224,0.5-0.5
		v-2.968c0-0.891,0.6-1.683,1.458-1.925c1.706-0.482,2.611-0.751,3.091-0.9c0.11-5.561-3.833-10.392-9.308-11.407L6.517,29.577
		l0.054,0.106c0.013,0,2.002-0.525,4.673-1.261c0.856-0.236,1.491,0.256,1.674,0.679C12.972,29.227,13,29.363,13,29.5
		c0,0.276,0.225,0.5,0.5,0.5c0.252,0,0.461-0.188,0.495-0.431c-0.147-0.918,0.256-1.954,1.357-2.269
		c0.332-0.095,0.743-0.207,1.107-0.305l0.487-0.133C17.089,26.824,17.234,26.804,17.379,26.804z"/>
</g>
<circle cx="16.321" cy="22.406" r="2.5"/>
<circle cx="9.914" cy="24.426" r="2.5"/>
<g>
	<path d="M21.866,27.383c-0.025,0-0.05-0.001-0.075-0.003c-0.551-0.041-0.964-0.521-0.923-1.071c0.364-4.88-3.158-9.182-8.019-9.792
		c-0.548-0.069-0.936-0.569-0.867-1.117s0.555-0.939,1.117-0.868c5.918,0.743,10.207,5.981,9.763,11.925
		C22.823,26.983,22.385,27.383,21.866,27.383z"/>
</g>
</svg>