<?xml version="1.0" encoding="iso-8859-1"?><!-- Generator: Adobe Illustrator 20.1.0, SVG Export Plug-In . SVG Version: 6.00 Build 0)  --><svg xmlns="http://www.w3.org/2000/svg" xmlns:xlink="http://www.w3.org/1999/xlink" viewBox="0 0 50 50" width="500px" height="500px"><polygon points="28,8 26,24 31,24 22,42 24,27 19,27 "/><polygon style="fill:none;stroke:#000000;stroke-width:2;stroke-linecap:round;stroke-miterlimit:10;" points="48,22 42,22 42,18 41,18 34,25 41,32 42,32 42,28 48,28 "/><polygon style="fill:none;stroke:#000000;stroke-width:2;stroke-linecap:round;stroke-miterlimit:10;" points="2,28 8,28 8,32 9,32 16,25 9,18 8,18 8,22 2,22 "/><line style="fill:none;stroke:#000000;stroke-width:2;stroke-miterlimit:10;" x1="31" y1="18" x2="42" y2="3"/><line style="fill:none;stroke:#000000;stroke-width:2;stroke-miterlimit:10;" x1="8" y1="47" x2="18.237" y2="33.351"/><line style="fill:none;stroke:#000000;stroke-width:2;stroke-miterlimit:10;" x1="19" y1="17" x2="10" y2="7"/><line style="fill:none;stroke:#000000;stroke-width:2;stroke-miterlimit:10;" x1="36" y1="47" x2="29" y2="35"/><line style="fill:none;stroke:#000000;stroke-width:2;stroke-miterlimit:10;" x1="45" y1="43" x2="39" y2="38"/><line style="fill:none;stroke:#000000;stroke-width:2;stroke-miterlimit:10;" x1="22" y1="12" x2="20" y2="6"/></svg>