<?xml version="1.0" encoding="iso-8859-1"?><!-- Generator: Adobe Illustrator 19.2.1, SVG Export Plug-In . SVG Version: 6.00 Build 0)  --><svg xmlns="http://www.w3.org/2000/svg" xmlns:xlink="http://www.w3.org/1999/xlink" viewBox="0 0 50 50" width="500px" height="500px"><polyline style="fill:none;stroke:#000000;stroke-width:2;stroke-linecap:round;stroke-linejoin:round;stroke-miterlimit:10;" points="47,8 15,42 3,42 "/><polyline style="fill:none;stroke:#000000;stroke-width:2;stroke-linecap:round;stroke-linejoin:round;stroke-miterlimit:10;" points="3,8 35,42 47,42 "/><circle cx="46" cy="25" r="1"/><circle cx="43" cy="25" r="1"/><circle cx="40" cy="25" r="1"/><circle cx="37" cy="25" r="1"/><path d="M34.707,24.293c0.391,0.391,0.391,1.024,0,1.414c-0.391,0.391-1.024,0.391-1.414,0L34.707,24.293z"/><path d="M27.293,24.293c0.391-0.391,1.024-0.391,1.414,0l-1.414,1.414C26.902,25.317,26.902,24.683,27.293,24.293z"/><circle cx="25" cy="25" r="1"/><path d="M21.293,24.293c0.391-0.391,1.024-0.391,1.414,0c0.391,0.391,0.391,1.024,0,1.414L21.293,24.293z"/><path d="M15.293,25.707c-0.391-0.391-0.391-1.024,0-1.414l1.414,1.414C16.317,26.098,15.683,26.098,15.293,25.707z"/><circle cx="13" cy="25" r="1"/><circle cx="10" cy="25" r="1"/><circle cx="7" cy="25" r="1"/><circle cx="4" cy="25" r="1"/></svg>