<?xml version="1.0" encoding="iso-8859-1"?><!-- Generator: Adobe Illustrator 23.0.3, SVG Export Plug-In . SVG Version: 6.00 Build 0)  --><svg xmlns="http://www.w3.org/2000/svg" xmlns:xlink="http://www.w3.org/1999/xlink" viewBox="0 0 50 50" width="500px" height="500px"><path style="fill:none;stroke:#000000;stroke-width:2;stroke-linecap:round;stroke-linejoin:round;" d="M35.055,45h7.545c-0.272-4.443-5.73-3.861-6.607-6.167v-1.982c0.365-0.189,1.101-1.414,1.211-2.423c0.44,0,0.991-0.22,0.991-1.321c0-0.881-0.44-1.101-0.44-1.101s0.44-1.432,0.44-2.202c0-2.423-1.789-4.185-5.313-4.185L32.358,26.5c-1.689,0-2.565,1.1-2.858,2.322"/><path style="fill:none;stroke:#000000;stroke-width:2;stroke-linecap:round;stroke-linejoin:round;" d="M19.6,28.822C19.306,27.6,18.43,26.5,16.741,26.5l-0.523-0.881c-3.524,0-5.313,1.762-5.313,4.185c0,0.771,0.44,2.202,0.44,2.202s-0.44,0.22-0.44,1.101c0,1.101,0.551,1.321,0.991,1.321c0.11,1.008,0.847,2.233,1.211,2.423v1.982C12.23,41.139,6.772,40.557,6.5,45h8.545"/><path style="fill:none;stroke:#000000;stroke-width:2;stroke-linecap:round;stroke-linejoin:round;" d="M27,40v-2.25c0.414-0.215,1.25-1.605,1.375-2.75c0.5,0,1.125-0.25,1.125-1.5c0-1-0.5-1.25-0.5-1.25s0.5-1.625,0.5-2.5C29.5,28,28.551,26,26.125,26l-0.594-1c-4,0-6.031,2-6.031,4.75c0,0.875,0.5,2.5,0.5,2.5s-0.5,0.25-0.5,1.25c0,1.25,0.625,1.5,1.125,1.5c0.125,1.145,0.961,2.535,1.375,2.75V40c-0.996,2.617-7.191,1.957-7.5,7h21C35.191,41.957,27.996,42.613,27,40z"/><path style="fill:none;stroke:#000000;stroke-width:1.8586;" d="M28.686,6.107c0.661-0.141,1.355-0.216,2.069-0.216c4.563,0,8.26,3.06,8.26,6.834c0,2.263-1.329,4.268-3.378,5.513c0,0-0.001,1.228,1.125,2.759c-2.329,0.01-3.759-1.694-3.759-1.694c-0.714,0.167-1.47,0.256-2.248,0.256c-2.072,0-3.967-0.632-5.417-1.675"/><g id="surface1_8_"><path style="fill:none;stroke:#000000;stroke-width:1.8586;" d="M30.219,10.956c0,4.394-4.306,7.956-9.617,7.956c-0.907,0-1.786-0.103-2.618-0.298c0,0-1.665,1.984-4.376,1.973c1.311-1.783,1.31-3.213,1.31-3.213c-2.385-1.449-3.933-3.784-3.933-6.419C10.985,6.563,15.29,3,20.602,3C25.913,3,30.219,6.563,30.219,10.956z"/></g></svg>