<?xml version="1.0" encoding="iso-8859-1"?><!-- Generator: Adobe Illustrator 19.1.1, SVG Export Plug-In . SVG Version: 6.00 Build 0)  --><svg xmlns="http://www.w3.org/2000/svg" xmlns:xlink="http://www.w3.org/1999/xlink" viewBox="0 0 50 50" width="500px" height="500px"><path d="M13,8V6h20V3H9v5H4v37h16V29h18V8H13z M14,40h-4v-2h4V40z M14,35h-4v-2h4V35z M14,30h-4v-2h4V30z M14,25h-4v-2h4V25z M14,20h-4v-2h4V20z M14,15h-4v-2h4V15z M23,25h-4v-2h4V25z M23,20h-4v-2h4V20z M23,15h-4v-2h4V15z M32,25h-4v-2h4V25z M32,20h-4v-2h4V20z M32,15h-4v-2h4V15z"/><path d="M32.871,39.622c-0.04-0.437-0.025-0.741-0.025-1.14c0.202-0.104,0.565-0.765,0.628-1.324c0.16-0.012,0.411-0.164,0.485-0.763c0.04-0.322-0.118-0.502-0.213-0.559c0.259-0.761,0.799-3.115-0.998-3.358C32.563,32.16,32.09,32,31.475,32c-2.463,0.044-2.76,1.811-2.221,3.835c-0.095,0.057-0.254,0.237-0.213,0.559c0.075,0.6,0.324,0.751,0.485,0.763c0.061,0.559,0.439,1.22,0.642,1.324c0,0.399,0.015,0.703-0.026,1.14C29.656,40.898,26.153,40.539,26,43h11C36.848,40.539,33.358,40.898,32.871,39.622z"/><path style="fill:none;stroke:#000000;stroke-width:2;stroke-linecap:round;stroke-miterlimit:10;" d="M41,46H22c-1.105,0-2-0.895-2-2V31c0-1.105,0.895-2,2-2h19c1.105,0,2,0.895,2,2v13C43,45.105,42.105,46,41,46z"/></svg>