<?xml version="1.0" encoding="utf-8"?><!-- Generator: Adobe Illustrator 18.0.0, SVG Export Plug-In . SVG Version: 6.00 Build 0)  --><!DOCTYPE svg PUBLIC "-//W3C//DTD SVG 1.0//EN" "http://www.w3.org/TR/2001/REC-SVG-20010904/DTD/svg10.dtd"><svg xmlns="http://www.w3.org/2000/svg" xmlns:xlink="http://www.w3.org/1999/xlink" viewBox="0 0 50 50" width="500px" height="500px"><path fill="none" stroke="#000000" stroke-width="2" stroke-linecap="round" stroke-linejoin="round" stroke-miterlimit="10" d="M48.1,22.8L27.2,1.9c-1.2-1.2-3.2-1.2-4.5,0L1.9,22.8c-1.2,1.2-1.2,3.2,0,4.5l20.8,20.8c1.2,1.2,3.2,1.2,4.5,0l20.8-20.8C49.3,26,49.3,24,48.1,22.8z"/><path fill="none" stroke="#000000" stroke-width="2" stroke-linecap="round" stroke-linejoin="round" stroke-miterlimit="10" d="M48.1,22.8L27.2,1.9c-1.2-1.2-3.2-1.2-4.5,0L1.9,22.8c-1.2,1.2-1.2,3.2,0,4.5l20.8,20.8c1.2,1.2,3.2,1.2,4.5,0l20.8-20.8C49.3,26,49.3,24,48.1,22.8z"/><path d="M26.2,32.7c0.2,0,0.4,0.1,0.4,0.4v2.6c0,0.2-0.1,0.4-0.4,0.4h-2.4c-0.2,0-0.4-0.1-0.4-0.4V33c0-0.2,0.1-0.4,0.4-0.4H26.2z M26.1,14c0.2,0,0.4,0.1,0.4,0.4v14.5c0,0.2-0.1,0.4-0.4,0.4h-2.3c-0.2,0-0.4-0.1-0.4-0.4V14.4c0-0.2,0.1-0.4,0.4-0.4H26.1z"/></svg>