<?xml version="1.0" encoding="utf-8"?><!-- Generator: Adobe Illustrator 15.0.0, SVG Export Plug-In . SVG Version: 6.00 Build 0)  --><!DOCTYPE svg PUBLIC "-//W3C//DTD SVG 1.1//EN" "http://www.w3.org/Graphics/SVG/1.1/DTD/svg11.dtd"><svg xmlns="http://www.w3.org/2000/svg" xmlns:xlink="http://www.w3.org/1999/xlink" viewBox="0 0 50 50" width="500px" height="500px"><path d="M50,28v-1c0-1.654-1.346-3-3-3H3c-1.654,0-3,1.346-3,3v1H50z"/><path d="M37.6,50H12.4c-0.493,0-0.913-0.359-0.988-0.848l-2.037-12.9c-0.096-0.572,0.058-1.155,0.424-1.587C10.157,34.242,10.69,34,11.263,34h27.556c0.549,0,1.076,0.252,1.448,0.69s0.532,1.012,0.438,1.573l-2.119,12.896C38.509,49.644,38.091,50,37.6,50z"/><path d="M40.706,36.264c0.094-0.562-0.066-1.135-0.438-1.573S39.368,34,38.819,34H11.263c-0.573,0-1.106,0.242-1.464,0.665c-0.366,0.432-0.52,1.015-0.424,1.587L9.493,37h31.092L40.706,36.264z"/><path d="M0.42,30l3.712,6.496C4.31,36.808,4.641,37,5,37h2.468l-0.066-0.418c-0.194-1.158,0.124-2.328,0.87-3.209C9.011,32.5,10.101,32,11.263,32h27.556c1.137,0,2.22,0.509,2.974,1.396c0.754,0.889,1.076,2.054,0.887,3.191L42.612,37H45c0.358,0,0.69-0.192,0.868-0.504L49.58,30H0.42z"/><circle stroke="#000000" stroke-width="2" stroke-linecap="round" stroke-linejoin="round" stroke-miterlimit="10" cx="42" cy="18" r="2"/><path fill="none" stroke="#000000" stroke-width="2" stroke-linecap="round" stroke-linejoin="round" stroke-miterlimit="10" d="M46.2,24.8c0-2.7-0.601-4.1-2.8-5.4"/></svg>