<?xml version="1.0" encoding="iso-8859-1"?>
<!-- Generator: Adobe Illustrator 24.1.2, SVG Export Plug-In . SVG Version: 6.00 Build 0)  -->
<svg version="1.1" id="Layer_1" xmlns="http://www.w3.org/2000/svg" xmlns:xlink="http://www.w3.org/1999/xlink" x="0px" y="0px"
	 viewBox="0 0 50 50" style="enable-background:new 0 0 50 50;" xml:space="preserve">
<g>
</g>
<g>
	<g>
		<path d="M25,2C14.65,2,5.87,8.88,3,18.3l15.34,4.02C18.12,21.76,18,21.1,18,20.33c0-0.14,0.01-2.61,1.82-4.44
			c1.04-1.06,2.45-1.67,4.18-1.84V11h2v3.07c3.87,0.52,4.98,4,5,5.92l-2,0.02C28.99,19.6,28.8,16,25,16c-2.09,0-3.56,0.7-4.36,2.09
			C20.01,19.18,20,20.32,20,20.33c0,1.63,0.8,2.45,2.21,3.02l3.88,1.04c0.5,0.12,1,0.24,1.5,0.4l19.82,5.35
			C47.8,28.49,48,26.77,48,25C48,12.32,37.68,2,25,2z M31.64,27.94C31.87,28.52,32,29.2,32,30c0,4.15-3.5,5.63-6,5.94V39h-2v-3.05
			c-4.72-0.44-6-4.01-6-5.95h1l1-0.01C20.01,30.4,20.19,34,25,34c0.2,0,5-0.07,5-4c0-1.91-1.1-2.71-2.99-3.3l-1.29-0.34
			c-0.3-0.07-0.61-0.14-0.94-0.22c-1.03-0.22-2.14-0.48-3.16-0.87L2.5,20.24C2.17,21.78,2,23.37,2,25c0,12.68,10.32,23,23,23
			c10.21,0,18.9-6.7,21.88-15.93L31.64,27.94z"/>
	</g>
</g>
</svg>