<?xml version="1.0" encoding="iso-8859-1"?><!-- Generator: Adobe Illustrator 19.1.1, SVG Export Plug-In . SVG Version: 6.00 Build 0)  --><svg xmlns="http://www.w3.org/2000/svg" xmlns:xlink="http://www.w3.org/1999/xlink" viewBox="0 0 50 50" width="500px" height="500px"><path d="M36,24c-4.338,0-8.133,2.321-10.241,5.778c-0.35-0.307-0.607-0.623-0.758-0.965c0.004-0.483,0.021-1.135,0.039-1.786c0.015-0.556,0.03-1.112,0.037-1.569c0.835-0.886,1.673-2.721,1.984-4.397c0.676-0.366,1.458-1.246,1.698-3.336c0.106-0.915-0.069-1.738-0.45-2.31c0.817-1.96,0.841-5.45-0.445-8.029c-1.02-2.044-2.723-3.253-4.839-3.455l-0.662-1.366C22.196,2.219,21.846,2,21.463,2c-4.276,0-7.681,1.597-9.589,4.497c-1.669,2.536-1.974,5.819-0.855,8.9c-0.383,0.535-0.652,1.322-0.535,2.327c0.241,2.088,1.021,2.968,1.696,3.335c0.27,1.516,0.961,3.45,1.821,4.391v3.361c-0.569,1.316-2.256,2.074-4.199,2.947c-3.328,1.495-7.469,3.355-7.806,9.184c-0.016,0.274,0.083,0.544,0.271,0.744S2.719,42,2.994,42h22.629c2.079,3.581,5.946,6,10.377,6c6.617,0,12-5.383,12-12S42.617,24,36,24z M36,46c-5.514,0-10-4.486-10-10s4.486-10,10-10s10,4.486,10,10S41.514,46,36,46z"/><g><circle fill="none" stroke="#000000" stroke-width="2" stroke-miterlimit="10" stroke-dasharray="0.9848,1.9696" cx="36" cy="36" r="8"/></g><g><path d="M35.049,32.901l-0.335,1.903l0.024,0.024c0.231-0.232,0.676-0.647,1.64-0.647c2.281,0,2.586,2.271,2.586,2.85c0,1.104-0.828,3.004-3.112,3.004c-2.404,0-3.129-1.639-3.113-2.646h1.7c0.04,0.383,0.317,1.257,1.377,1.257c1.139,0,1.449-1.095,1.449-1.615c0-1.464-1.178-1.569-1.449-1.569c-0.759,0-1.113,0.439-1.281,0.671h-1.532l0.826-4.633h4.681v1.401H35.049z"/></g><g><path d="M38.446,6.621c-0.87-1.744-2.315-2.787-4.112-2.986l-0.519-1.071C33.647,2.219,33.298,2,32.915,2c-2.214,0-4.164,0.515-5.724,1.475c1,0.758,1.839,1.768,2.462,3.017c1.433,2.873,1.491,6.389,0.812,8.792c0.292,0.802,0.391,1.719,0.281,2.668c-0.256,2.229-1.064,3.524-1.897,4.275c-0.378,1.462-1.034,2.912-1.786,3.954c-0.007,0.289-0.015,0.594-0.023,0.898l-0.003,0.096c-0.01,0.363-0.019,0.724-0.026,1.051c0.118,0.111,3.702-3.387,9.175-3.387c-0.084-0.966-0.078-1.699-0.07-2.549l0.001-0.318c0.729-0.808,1.387-2.356,1.651-3.66c0.591-0.347,1.246-1.133,1.448-2.896c0.09-0.769-0.049-1.467-0.357-1.975C39.547,11.734,39.551,8.836,38.446,6.621z"/></g></svg>