<?xml version="1.0" encoding="iso-8859-1"?><!-- Generator: Adobe Illustrator 22.1.0, SVG Export Plug-In . SVG Version: 6.00 Build 0)  --><svg xmlns="http://www.w3.org/2000/svg" xmlns:xlink="http://www.w3.org/1999/xlink" viewBox="0 0 50 50" width="500px" height="500px"><polyline style="fill:none;stroke:#000000;stroke-width:2;stroke-linecap:round;stroke-linejoin:round;stroke-miterlimit:10;" points="15,12 15,3 47,3 47,35 25,35 "/><path style="fill:none;stroke:#000000;stroke-width:2;stroke-linecap:round;stroke-linejoin:round;stroke-miterlimit:10;" d="M20.743,37.136v-3.17c0.589-0.3,1.773-2.262,1.952-3.875c0.71,0,1.597-0.352,1.597-2.114c0-1.409-0.71-1.761-0.71-1.761s0.71-2.29,0.71-3.523c0-2.466-1.35-5.284-4.791-5.284L18.658,16c-5.675,0-8.56,2.818-8.56,6.693c0,1.233,0.71,3.523,0.71,3.523s-0.71,0.352-0.71,1.761c0,1.761,0.887,2.114,1.597,2.114c0.177,1.613,1.361,3.575,1.952,3.875v3.17C12.232,40.823,3.44,39.893,3,47h29.808C32.368,39.893,22.158,40.821,20.743,37.136z"/><line style="fill:none;stroke:#000000;stroke-width:2;stroke-linecap:round;stroke-linejoin:round;stroke-miterlimit:10;" x1="20" y1="10" x2="34" y2="10"/><line style="fill:none;stroke:#000000;stroke-width:2;stroke-linecap:round;stroke-linejoin:round;stroke-miterlimit:10;" x1="28" y1="19" x2="34" y2="19"/><line style="fill:none;stroke:#000000;stroke-width:2;stroke-linecap:round;stroke-linejoin:round;stroke-miterlimit:10;" x1="28" y1="28" x2="34" y2="28"/><polyline style="fill:none;stroke:#000000;stroke-width:2;stroke-linecap:round;stroke-linejoin:round;stroke-miterlimit:10;" points="38,9 40,11 43,7 "/><polyline style="fill:none;stroke:#000000;stroke-width:2;stroke-linecap:round;stroke-linejoin:round;stroke-miterlimit:10;" points="38,18 40,20 43,16 "/><polyline style="fill:none;stroke:#000000;stroke-width:2;stroke-linecap:round;stroke-linejoin:round;stroke-miterlimit:10;" points="38,27 40,29 43,25 "/></svg>