<?xml version="1.0" encoding="iso-8859-1"?>
<!-- Generator: Adobe Illustrator 27.0.0, SVG Export Plug-In . SVG Version: 6.00 Build 0)  -->
<svg version="1.1" baseProfile="basic" id="Layer_1"
	 xmlns="http://www.w3.org/2000/svg" xmlns:xlink="http://www.w3.org/1999/xlink" x="0px" y="0px" viewBox="0 0 50 50"
	 xml:space="preserve">
<path style="fill:none;stroke:#000000;stroke-width:2;stroke-miterlimit:10;" d="M25,34L25,34c-4.971,0-9-4.029-9-9V13
	c0-4.971,4.029-9,9-9h0c4.971,0,9,4.029,9,9v12C34,29.971,29.971,34,25,34z"/>
<path style="fill:none;stroke:#000000;stroke-width:2;stroke-linecap:round;stroke-linejoin:round;stroke-miterlimit:10;" d="
	M12,24.852C12,32.113,17.82,38,25,38s13-5.887,13-13.148"/>
<polyline style="fill:none;stroke:#000000;stroke-width:2;stroke-miterlimit:10;" points="27,38 27,45 23,45 23,38 "/>
<path style="fill:none;stroke:#000000;stroke-width:2;stroke-miterlimit:10;" d="M35,48H15v0c0-1.657,1.343-3,3-3h14
	C33.657,45,35,46.343,35,48L35,48z"/>
<path style="fill:none;stroke:#000000;stroke-width:2;stroke-linecap:round;stroke-miterlimit:10;" d="M5.98,3.415
	C3.519,5.921,2,9.287,2,13c0,3.659,1.477,6.98,3.875,9.475"/>
<path style="fill:none;stroke:#000000;stroke-width:2;stroke-linecap:round;stroke-miterlimit:10;" d="M11,6.647
	C9.307,8.275,8.26,10.52,8.26,13c0,2.426,1.006,4.624,2.635,6.242"/>
<path style="fill:none;stroke:#000000;stroke-width:2;stroke-linecap:round;stroke-miterlimit:10;" d="M44.02,22.475
	c2.462-2.506,3.98-5.872,3.98-9.585c0-3.659-1.477-6.98-3.875-9.475"/>
<path style="fill:none;stroke:#000000;stroke-width:2;stroke-linecap:round;stroke-miterlimit:10;" d="M39,19.242
	c1.693-1.628,2.74-3.873,2.74-6.353c0-2.426-1.006-4.624-2.635-6.242"/>
<line style="fill:none;stroke:#000000;stroke-width:2;stroke-linecap:round;stroke-linejoin:round;stroke-miterlimit:10;" x1="17" y1="19.015" x2="22" y2="19.031"/>
<line style="fill:none;stroke:#000000;stroke-width:2;stroke-linecap:round;stroke-linejoin:round;stroke-miterlimit:10;" x1="17" y1="24" x2="22" y2="24.016"/>
<line style="fill:none;stroke:#000000;stroke-width:2;stroke-linecap:round;stroke-linejoin:round;stroke-miterlimit:10;" x1="17" y1="14" x2="22" y2="14.016"/>
<line style="fill:none;stroke:#000000;stroke-width:2;stroke-linecap:round;stroke-linejoin:round;stroke-miterlimit:10;" x1="28" y1="19.015" x2="33" y2="19.031"/>
<line style="fill:none;stroke:#000000;stroke-width:2;stroke-linecap:round;stroke-linejoin:round;stroke-miterlimit:10;" x1="28" y1="24" x2="33" y2="24.016"/>
<line style="fill:none;stroke:#000000;stroke-width:2;stroke-linecap:round;stroke-linejoin:round;stroke-miterlimit:10;" x1="28" y1="14" x2="33" y2="14.016"/>
</svg>