<?xml version="1.0" encoding="iso-8859-1"?><!-- Generator: Adobe Illustrator 23.0.3, SVG Export Plug-In . SVG Version: 6.00 Build 0)  --><svg xmlns="http://www.w3.org/2000/svg" xmlns:xlink="http://www.w3.org/1999/xlink" viewBox="0 0 50 50" width="500px" height="500px"><path style="fill:none;stroke:#000000;stroke-width:2;" d="M7,9c0,3.313-2.688,6-6,6"/><path style="fill:none;stroke:#000000;stroke-width:2;" d="M49,15c-3.313,0-6-2.688-6-6"/><path style="fill:none;stroke:#000000;stroke-width:2;" d="M1,35c3.312,0,6,2.688,6,6"/><path d="M25.387,19.422c-1.445-0.332-2.266-0.566-2.266-1.48c0-1.094,0.609-1.605,1.91-1.605c1.504,0,1.836,0.988,1.848,1.816l0.008,0.465h1.813l0.031-0.438c0.059-0.824-0.277-1.742-0.875-2.398c-0.504-0.551-1.168-0.902-1.938-1.027V13h-1.82v1.75c-2.746,0.398-2.828,2.813-2.828,3.094c0,2.477,2.004,2.926,3.613,3.285c1.445,0.324,2.262,0.555,2.262,1.527c0,0.582-0.277,1.563-2.145,1.563c-0.039,0-1.008-0.008-1.617-0.617c-0.359-0.359-0.531-0.875-0.516-1.539l0.012-0.484H21l0.012,0.484c0.063,2.137,1.07,3.348,3.086,3.695V27h1.82v-1.219c2.93-0.43,3.082-2.68,3.082-3.141C29,20.25,26.996,19.789,25.387,19.422z"/><path style="fill:none;stroke:#000000;stroke-width:2;" d="M9,31h18"/><path style="fill:none;stroke:#000000;stroke-width:2;" d="M9,36h12.792"/><path style="fill:none;stroke:#000000;stroke-width:2;" d="M8,18h7v4H8V18z"/><path style="fill:none;stroke:#000000;stroke-width:2;" d="M35,18h7v4h-7V18z"/><path style="fill:none;stroke:#000000;stroke-width:2;stroke-linejoin:round;" d="M26.936,41H1V9h48v32"/><path style="fill:none;stroke:#000000;stroke-width:2;stroke-linecap:round;stroke-linejoin:round;stroke-miterlimit:10;" d="M38.981,30.625c0.535-0.285,1.226-0.45,2.099-0.466c0.919,0,1.624,0.245,1.9,0.729c2.681,0.373,1.875,3.976,1.488,5.142c0.144,0.088,0.38,0.364,0.321,0.857c-0.111,0.917-0.487,1.149-0.724,1.169c-0.092,0.855-0.634,1.868-0.937,2.027c0,0.611-0.023,1.078,0.037,1.747C43.893,43.782,48.775,43.233,49,47h-5.681"/><path style="fill:none;stroke:#000000;stroke-width:2;stroke-linecap:round;stroke-linejoin:round;stroke-miterlimit:10;" d="M37.147,42.858c-0.072-0.794-0.044-1.348-0.044-2.073c0.36-0.189,1.004-1.391,1.113-2.407c0.283-0.023,0.728-0.299,0.859-1.388c0.07-0.585-0.209-0.914-0.38-1.017c0.46-1.383,1.415-5.663-1.767-6.106C36.6,29.291,35.761,29,34.671,29c-4.361,0.08-4.887,3.293-3.931,6.972c-0.17,0.103-0.45,0.432-0.38,1.017c0.131,1.089,0.576,1.365,0.859,1.388c0.108,1.016,0.778,2.219,1.139,2.407c0,0.725,0.027,1.28-0.045,2.073c-0.863,2.32-6.685,1.669-6.954,6.142h18.715C43.807,44.526,38.01,45.177,37.147,42.858z"/></svg>