<?xml version="1.0" encoding="iso-8859-1"?><!-- Generator: Adobe Illustrator 21.1.0, SVG Export Plug-In . SVG Version: 6.00 Build 0)  --><svg xmlns="http://www.w3.org/2000/svg" xmlns:xlink="http://www.w3.org/1999/xlink" viewBox="0 0 50 50" width="500px" height="500px"><path style="fill:none;stroke:#000000;stroke-width:2;stroke-linejoin:round;stroke-miterlimit:10;" d="M29,21c0,0,0-4-4-4s-4,4-4,4c0,5.667,9,2.542,9,8c0,0,0,4-5,4s-5-5-5-5"/><line style="fill:none;stroke:#000000;stroke-width:2;stroke-linejoin:round;stroke-miterlimit:10;" x1="25" y1="14" x2="25" y2="17"/><line style="fill:none;stroke:#000000;stroke-width:2;stroke-linejoin:round;stroke-miterlimit:10;" x1="25" y1="36" x2="25" y2="33"/><path d="M35,3H15c-1.654,0-3,1.346-3,3v38c0,1.654,1.346,3,3,3h20c1.654,0,3-1.346,3-3V6C38,4.346,36.654,3,35,3z M28,44h-6c-0.552,0-1-0.448-1-1s0.448-1,1-1h6c0.552,0,1,0.448,1,1S28.552,44,28,44z M36,39H14V10h22V39z"/><path style="fill:none;stroke:#000000;stroke-width:2;stroke-linejoin:round;stroke-miterlimit:10;" d="M29,21c0,0,0-4-4-4s-4,4-4,4c0,5.667,9,2.542,9,8c0,0,0,4-5,4s-5-5-5-5"/><line style="fill:none;stroke:#000000;stroke-width:2;stroke-linejoin:round;stroke-miterlimit:10;" x1="25" y1="14" x2="25" y2="17"/><line style="fill:none;stroke:#000000;stroke-width:2;stroke-linejoin:round;stroke-miterlimit:10;" x1="25" y1="36" x2="25" y2="33"/></svg>