<?xml version="1.0" encoding="iso-8859-1"?><!-- Generator: Adobe Illustrator 23.0.3, SVG Export Plug-In . SVG Version: 6.00 Build 0)  --><svg xmlns="http://www.w3.org/2000/svg" xmlns:xlink="http://www.w3.org/1999/xlink" viewBox="0 0 50 50" width="500px" height="500px"><path d="M27.286,17.338V15.4c0.317-0.177,1.505-1.369,1.505-2.445c0.249-0.021,0.641-0.279,0.755-1.298c0.062-0.547-0.133-0.891-0.334-0.951C30.003,8.205,29.571,5,26.143,5l-0.416-1C21,4,19.678,6.968,20.768,10.689c-0.149,0.096-0.395,0.405-0.334,0.951c0.115,1.018,0.507,1.276,0.755,1.298c0,1.14,1.207,2.287,1.525,2.462v1.938c-0.67,1.916-4.625,1.602-5.657,4.384C16.828,22.342,17.32,23,17.98,23H32.02c0.661,0,1.153-0.658,0.923-1.278C31.911,18.94,27.956,19.253,27.286,17.338z"/><path d="M10.286,40.338V38.4c0.317-0.177,1.505-1.369,1.505-2.445c0.249-0.021,0.641-0.279,0.755-1.298c0.062-0.547-0.133-0.891-0.334-0.951C13.003,31.205,12.571,28,9.143,28l-0.416-1C4,27,2.678,29.968,3.768,33.689c-0.149,0.096-0.395,0.405-0.334,0.951c0.115,1.018,0.507,1.276,0.755,1.298c0,1.14,1.207,2.287,1.525,2.462v1.938c-0.67,1.916-4.625,1.602-5.657,4.384C-0.172,45.342,0.32,46,0.98,46H15.02c0.661,0,1.153-0.658,0.923-1.278C14.911,41.94,10.956,42.253,10.286,40.338z"/><path d="M27.286,40.338V38.4c0.317-0.177,1.505-1.369,1.505-2.445c0.249-0.021,0.641-0.279,0.755-1.298c0.062-0.547-0.133-0.891-0.334-0.951C30.003,31.205,29.571,28,26.143,28l-0.416-1c-4.727,0-6.049,2.968-4.959,6.689c-0.149,0.096-0.395,0.405-0.334,0.951c0.115,1.018,0.507,1.276,0.755,1.298c0,1.14,1.207,2.287,1.525,2.462v1.938c-0.67,1.916-4.625,1.602-5.657,4.384C16.828,45.342,17.32,46,17.98,46H32.02c0.661,0,1.153-0.658,0.923-1.278C31.911,41.94,27.956,42.253,27.286,40.338z"/><path d="M44.286,40.338V38.4c0.317-0.177,1.505-1.369,1.505-2.445c0.249-0.021,0.641-0.279,0.755-1.298c0.062-0.547-0.133-0.891-0.334-0.951C47.003,31.205,46.571,28,43.143,28l-0.416-1c-4.727,0-6.049,2.968-4.959,6.689c-0.149,0.096-0.395,0.405-0.334,0.951c0.115,1.018,0.507,1.276,0.755,1.298c0,1.14,1.207,2.287,1.525,2.462v1.938c-0.67,1.916-4.625,1.602-5.657,4.384C33.828,45.342,34.32,46,34.98,46H49.02c0.661,0,1.153-0.658,0.923-1.278C48.911,41.94,44.956,42.253,44.286,40.338z"/><polyline style="fill:none;stroke:#000000;stroke-width:2;stroke-linecap:round;stroke-linejoin:round;stroke-miterlimit:10;" points="33,14 42,14 42,24 "/><polyline style="fill:none;stroke:#000000;stroke-width:2;stroke-linecap:round;stroke-linejoin:round;stroke-miterlimit:10;" points="8,24 8,14 17,14 "/></svg>