<?xml version="1.0" encoding="iso-8859-1"?>
<!-- Generator: Adobe Illustrator 26.5.0, SVG Export Plug-In . SVG Version: 6.00 Build 0)  -->
<svg version="1.1" baseProfile="basic" xmlns="http://www.w3.org/2000/svg" xmlns:xlink="http://www.w3.org/1999/xlink" x="0px"
	 y="0px" viewBox="0 0 50 50" xml:space="preserve">
<g id="&#x421;&#x43B;&#x43E;&#x439;_1">
</g>
<g id="&#x421;&#x43B;&#x43E;&#x439;_2">
</g>
<g id="&#x421;&#x43B;&#x43E;&#x439;_3">
	<g>
		<path d="M18.5,31h-2c-0.276,0-0.5,0.224-0.5,0.5v1c0,0.276,0.224,0.5,0.5,0.5h2c0.276,0,0.5-0.224,0.5-0.5v-1
			C19,31.224,18.776,31,18.5,31z"/>
		<path d="M13.5,23h-2c-0.276,0-0.5,0.224-0.5,0.5v1c0,0.276,0.224,0.5,0.5,0.5h2c0.276,0,0.5-0.224,0.5-0.5v-1
			C14,23.224,13.776,23,13.5,23z"/>
		<path d="M18.5,27h-2c-0.276,0-0.5,0.224-0.5,0.5v1c0,0.276,0.224,0.5,0.5,0.5h2c0.276,0,0.5-0.224,0.5-0.5v-1
			C19,27.224,18.776,27,18.5,27z"/>
		<path d="M43,9H7c-2.75,0-5,2.25-5,5v22c0,2.75,2.25,5,5,5h36c2.75,0,5-2.25,5-5V14C48,11.25,45.75,9,43,9z M21,34
			c0,0.552-0.448,1-1,1H10c-0.552,0-1-0.448-1-1V22c0-0.552,0.448-1,1-1h10c0.552,0,1,0.448,1,1V34z M21.906,19.438
			c-0.242,0.5-0.844,0.711-1.344,0.469L15,17.125l-5.562,2.781c-0.5,0.242-1.102,0.031-1.344-0.469s-0.031-1.102,0.469-1.344l6-3
			c0.098-0.047,0.203-0.078,0.312-0.094c0.191-0.023,0.387,0.008,0.562,0.094l6,3C21.938,18.336,22.148,18.938,21.906,19.438z
			 M38.879,31.504c-0.184,0.312-0.52,0.5-0.879,0.496H27c-0.551,0.078-1.062-0.309-1.141-0.859s0.309-1.062,0.859-1.141
			c0.031,0,0.062,0,0.094,0s0.062,0,0.094,0s0.062,0,0.094,0h11c0.359-0.004,0.695,0.184,0.879,0.496
			C39.059,30.809,39.059,31.191,38.879,31.504z M41.879,27.504c-0.184,0.312-0.52,0.5-0.879,0.496H27
			c-0.551,0.078-1.062-0.309-1.141-0.859s0.309-1.062,0.859-1.141c0.031,0,0.062,0,0.094,0s0.062,0,0.094,0s0.062,0,0.094,0h14
			c0.359-0.004,0.695,0.184,0.879,0.496C42.059,26.809,42.059,27.191,41.879,27.504z M25.859,23.141
			c-0.078-0.551,0.309-1.062,0.859-1.141c0.031,0,0.062,0,0.094,0s0.062,0,0.094,0s0.062,0,0.094,0h11
			c0.359-0.004,0.695,0.184,0.879,0.496c0.18,0.312,0.18,0.695,0,1.008c-0.184,0.312-0.52,0.5-0.879,0.496H27
			C26.449,24.078,25.938,23.691,25.859,23.141z M41.879,19.504c-0.184,0.312-0.52,0.5-0.879,0.496H27
			c-0.551,0.078-1.062-0.309-1.141-0.859s0.309-1.062,0.859-1.141c0.031,0,0.062,0,0.094,0s0.062,0,0.094,0s0.062,0,0.094,0h14
			c0.359-0.004,0.695,0.184,0.879,0.496C42.059,18.809,42.059,19.191,41.879,19.504z"/>
		<path d="M18.5,23h-2c-0.276,0-0.5,0.224-0.5,0.5v1c0,0.276,0.224,0.5,0.5,0.5h2c0.276,0,0.5-0.224,0.5-0.5v-1
			C19,23.224,18.776,23,18.5,23z"/>
		<path d="M13.5,31h-2c-0.276,0-0.5,0.224-0.5,0.5v1c0,0.276,0.224,0.5,0.5,0.5h2c0.276,0,0.5-0.224,0.5-0.5v-1
			C14,31.224,13.776,31,13.5,31z"/>
		<path d="M13.5,27h-2c-0.276,0-0.5,0.224-0.5,0.5v1c0,0.276,0.224,0.5,0.5,0.5h2c0.276,0,0.5-0.224,0.5-0.5v-1
			C14,27.224,13.776,27,13.5,27z"/>
	</g>
</g>
</svg>