<?xml version="1.0" encoding="iso-8859-1"?>
<!-- Generator: Adobe Illustrator 25.4.1, SVG Export Plug-In . SVG Version: 6.00 Build 0)  -->
<svg version="1.1" id="Tone" xmlns="http://www.w3.org/2000/svg" xmlns:xlink="http://www.w3.org/1999/xlink" x="0px" y="0px"
	 viewBox="0 0 50 50" style="enable-background:new 0 0 50 50;" xml:space="preserve">
<g id="Line">
</g>
<path d="M0.812,10C0.336,10.09-0.008,10.512,0,11v28c0,0.551,0.449,1,1,1h48c0.551,0,1-0.449,1-1V11c0-0.551-0.449-1-1-1H1
	c-0.031,0-0.062,0-0.094,0S0.844,10,0.812,10z M2,12h46v26H2V12z M7.719,17c-0.551,0.078-0.938,0.59-0.859,1.141S7.449,19.078,8,19
	h21c0.359,0.004,0.695-0.184,0.879-0.496c0.18-0.312,0.18-0.695,0-1.008c-0.184-0.312-0.52-0.5-0.879-0.496H8
	c-0.031,0-0.062,0-0.094,0s-0.062,0-0.094,0S7.75,17,7.719,17z M7.719,21c-0.551,0.078-0.938,0.59-0.859,1.141S7.449,23.078,8,23h17
	c0.359,0.004,0.695-0.184,0.879-0.496c0.18-0.312,0.18-0.695,0-1.008c-0.184-0.312-0.52-0.5-0.879-0.496H8c-0.031,0-0.062,0-0.094,0
	s-0.062,0-0.094,0S7.75,21,7.719,21z M11.312,26.812c-1.562,0-2.598,1.117-3.25,2.031s-1,1.812-1,1.812
	c-0.148,0.34-0.094,0.734,0.141,1.023c0.23,0.289,0.602,0.426,0.969,0.355c0.363-0.07,0.656-0.336,0.766-0.691
	c0,0,0.27-0.668,0.75-1.344s1.062-1.188,1.625-1.188c0.18,0,0.559,0.176,0.969,0.719c0.336,0.441,0.629,1.125,0.875,1.781
	c-0.051,0.109-0.141,0.199-0.188,0.312c-0.348,0.832-0.586,1.656-0.594,2.438c-0.004,0.391,0.031,0.773,0.281,1.188S13.496,36,14,36
	c0.559,0,1.137-0.395,1.375-0.812s0.293-0.82,0.312-1.25c0.035-0.73-0.148-1.578-0.375-2.406c0.191-0.328,0.359-0.699,0.562-0.938
	C16.262,30.141,16.621,30,16.625,30c0.035,0,0.246,0.062,0.531,0.406c0.238,0.285,0.473,0.75,0.656,1.188
	c-0.309,0.551-0.574,1.078-0.625,1.688c-0.027,0.32-0.012,0.703,0.25,1.094S18.246,35,18.656,35c0.473,0,0.984-0.324,1.219-0.688
	s0.297-0.691,0.312-1.031c0.02-0.41-0.121-0.855-0.219-1.281c0.168-0.227,0.328-0.496,0.5-0.656C20.777,31.059,21.051,31,21,31
	c-0.031,0-0.023-0.039,0.125,0.125s0.34,0.488,0.531,0.844s0.402,0.754,0.656,1.125c0.125,0.188,0.25,0.383,0.469,0.562
	S23.324,34,23.719,34c0.602,0,0.996-0.289,1.312-0.531s0.586-0.48,0.844-0.719C26.395,32.273,26.855,32,27,32
	c0.359,0.004,0.695-0.184,0.879-0.496c0.18-0.312,0.18-0.695,0-1.008c-0.184-0.312-0.52-0.5-0.879-0.496
	c-1.164,0-1.902,0.727-2.469,1.25c-0.25,0.23-0.457,0.457-0.625,0.594c-0.125-0.203-0.285-0.469-0.469-0.812
	c-0.211-0.395-0.457-0.82-0.812-1.219S21.707,29,21,29c-0.801,0-1.383,0.422-1.875,0.875c-0.145-0.242-0.227-0.504-0.406-0.719
	C18.227,28.562,17.539,28,16.625,28c-1,0-1.711,0.609-2.281,1.281c-0.172-0.309-0.262-0.664-0.469-0.938
	C13.266,27.539,12.422,26.812,11.312,26.812z"/>
<path d="M39.535,27H42v-2h-2.867c-0.09-0.185-0.178-0.37-0.301-0.555c-0.88-1.32-0.939-2.638-0.489-3.148
	c0.448-0.504,1.79-0.612,4.21,0.598l0.895-1.789c-4.058-2.03-5.879-0.952-6.604-0.132c-1.053,1.192-1.029,3.155,0,5.026H35v2h2.536
	c-0.15,1.667-2.034,3.123-2.136,3.2c-0.345,0.258-0.485,0.708-0.349,1.116C35.187,31.725,35.569,32,36,32h7v-2h-4.639
	C38.988,29.138,39.469,28.1,39.535,27z"/>
</svg>