<?xml version="1.0" encoding="iso-8859-1"?><!-- Generator: Adobe Illustrator 21.1.0, SVG Export Plug-In . SVG Version: 6.00 Build 0)  --><svg xmlns="http://www.w3.org/2000/svg" xmlns:xlink="http://www.w3.org/1999/xlink" viewBox="0 0 50 50" width="500px" height="500px"><path style="fill:none;stroke:#000000;stroke-width:2;stroke-miterlimit:10;" d="M45.015,44H4.985C3.889,44,3,43.111,3,42.015V7.985C3,6.889,3.889,6,4.985,6h40.03C46.111,6,47,6.889,47,7.985v34.03C47,43.111,46.111,44,45.015,44z"/><circle cx="7" cy="9" r="1"/><circle cx="10" cy="9" r="1"/><circle cx="13" cy="9" r="1"/><line style="fill:none;stroke:#000000;stroke-width:2;stroke-miterlimit:10;" x1="3" y1="12" x2="47" y2="12"/><path style="fill:none;stroke:#000000;stroke-width:2;stroke-miterlimit:10;" d="M31,17v10c2,0,4,0,4-5S33,17,31,17z"/><path style="fill:none;stroke:#000000;stroke-width:2;stroke-miterlimit:10;" d="M38,26c0,0,0.656,1,2,1c0,0,2,0,2-2c0-1-0.999-1.999-1.999-2.999l-0.002-0.002C39,21,38,20,38,19c0-2,2-2,2-2c1.344,0,2,1,2,1"/><line style="fill:none;stroke:#000000;stroke-width:2;stroke-miterlimit:10;" x1="23" y1="25" x2="27" y2="25"/><polygon points="24.072,16 21,28 23.062,28 24.989,19.527 27,28 29.062,28 25.989,16 "/><circle cx="17" cy="15" r="1"/><circle cx="17" cy="18" r="1"/><circle cx="17" cy="21" r="1"/><circle cx="17" cy="24" r="1"/><circle cx="17" cy="27" r="1"/><circle cx="17" cy="30" r="1"/><circle cx="17" cy="33" r="1"/><circle cx="20" cy="33" r="1"/><circle cx="26" cy="33" r="1"/><circle cx="23" cy="33" r="1"/><circle cx="29" cy="33" r="1"/><circle cx="32" cy="33" r="1"/><circle cx="35" cy="33" r="1"/><circle cx="38" cy="33" r="1"/><circle cx="41" cy="33" r="1"/><circle cx="44" cy="33" r="1"/></svg>