<?xml version="1.0" encoding="utf-8"?><!-- Generator: Adobe Illustrator 18.1.1, SVG Export Plug-In . SVG Version: 6.00 Build 0)  --><svg xmlns="http://www.w3.org/2000/svg" xmlns:xlink="http://www.w3.org/1999/xlink" viewBox="0 0 50 50" width="500px" height="500px"><path fill="none" stroke="#000000" stroke-width="2" stroke-linecap="round" stroke-miterlimit="10" d="M30,32c0,2.1-4.1,3-4.1,3"/><polygon points="26,34 24,34 23,35.5 24,38 22,45 28,45 26,38 27,35.5 "/><path fill="none" stroke="#000000" stroke-width="2" stroke-linecap="round" stroke-linejoin="round" stroke-miterlimit="10" d="M30,32c-0.1-1.6-0.2-2.4-0.2-3.8c0.7-0.4,2-2.9,2.3-4.9c0.6,0,1.5-0.6,1.7-2.8c0.1-1.2-0.3-2-0.8-2.1C34.8,16.1,34.5,7,28,7l-1-2c-9.4,0-12.8,7.2-10.1,13.3c-0.3,0.2-0.9,0.9-0.8,2.1c0.3,2.2,1.2,2.8,1.7,2.8c0.2,2.1,1.6,4.5,2.3,4.9c0,1.5-0.1,2.2-0.2,3.8h-1c0,0-1.7,1-3,3C9.9,36.1,6,41,6,45h38c0-5-4.8-9.3-10-10c0,0-1.4-1.9-3-3C30,32,30,32,30,32z"/><polyline fill="none" stroke="#000000" stroke-width="2" stroke-linecap="round" stroke-linejoin="round" stroke-miterlimit="10" points="32,45 36,40 33.2,38 34,35 "/><path fill="none" stroke="#000000" stroke-width="2" stroke-linecap="round" stroke-miterlimit="10" d="M30,32c0,2.1-4.1,3-4.1,3"/><path fill="none" stroke="#000000" stroke-width="2" stroke-linecap="round" stroke-miterlimit="10" d="M31,32c0,2.1-3.9,13-3.9,13"/><polyline fill="none" stroke="#000000" stroke-width="2" stroke-linecap="round" stroke-linejoin="round" stroke-miterlimit="10" points="32,45 36,40 33.2,38 34,35 "/><polyline fill="none" stroke="#000000" stroke-width="2" stroke-linecap="round" stroke-linejoin="round" stroke-miterlimit="10" points="18,45 14,40 16.8,38 16,35 "/><path fill="none" stroke="#000000" stroke-width="2" stroke-linecap="round" stroke-miterlimit="10" d="M20,32c0,2.1,4.1,3,4.1,3"/><path fill="none" stroke="#000000" stroke-width="2" stroke-linecap="round" stroke-miterlimit="10" d="M19,32c0,2.1,3.9,13,3.9,13"/><polyline fill="none" stroke="#000000" stroke-width="2" stroke-linecap="round" stroke-linejoin="round" stroke-miterlimit="10" points="18,45 14,40 16.8,38 16,35 "/></svg>