<?xml version="1.0" encoding="iso-8859-1"?><!-- Generator: Adobe Illustrator 21.1.0, SVG Export Plug-In . SVG Version: 6.00 Build 0)  --><svg xmlns="http://www.w3.org/2000/svg" xmlns:xlink="http://www.w3.org/1999/xlink" viewBox="0 0 50 50" width="500px" height="500px"><path d="M31.5,11h-13c-0.828,0-1.5-0.672-1.5-1.5v-6C17,2.672,17.672,2,18.5,2h13C32.328,2,33,2.672,33,3.5v6C33,10.328,32.328,11,31.5,11z"/><path d="M41,4h-6v5h4v34H11V9h4V4H9C7.346,4,6,5.346,6,7v38c0,1.654,1.346,3,3,3h32c1.158,0,2.165-0.659,2.665-1.622C43.879,45.965,44,45.496,44,45V7C44,5.346,42.654,4,41,4z"/><polyline style="fill:none;stroke:#000000;stroke-width:2;stroke-linecap:round;stroke-miterlimit:10;" points="16,25.916 23.714,33 34,18 "/></svg>