<?xml version="1.0" encoding="utf-8"?><!-- Generator: Adobe Illustrator 17.1.0, SVG Export Plug-In . SVG Version: 6.00 Build 0)  --><!DOCTYPE svg PUBLIC "-//W3C//DTD SVG 1.1//EN" "http://www.w3.org/Graphics/SVG/1.1/DTD/svg11.dtd"><svg xmlns="http://www.w3.org/2000/svg" xmlns:xlink="http://www.w3.org/1999/xlink" viewBox="0 0 50 50" width="500px" height="500px"><rect x="6" y="1" style="fill:none;stroke:#000000;stroke-width:2;stroke-linejoin:round;stroke-miterlimit:10;" width="34" height="44"/><polyline style="fill:none;stroke:#000000;stroke-width:2;stroke-linejoin:round;stroke-miterlimit:10;" points="10,45 10,49 44,49 44,5 40,5 "/><g><path d="M21.5,28.4v-1.5c0-1.4,0.3-2.2,1.1-3.2l2.4-3.3c1.3-1.7,1.7-2.5,1.7-3.8c0-2-1.4-3.3-3.5-3.3c-2,0-3.3,1.2-3.7,3.4c0,0.2-0.2,0.3-0.4,0.3l-2.3-0.4c-0.2,0-0.3-0.2-0.3-0.4c0.5-3.4,3-5.7,6.7-5.7c3.9,0,6.5,2.5,6.5,6.1c0,1.7-0.6,3-1.8,4.7l-2.4,3.3c-0.7,1-0.9,1.5-0.9,2.7v1.1c0,0.2-0.1,0.4-0.4,0.4h-2.4C21.7,28.8,21.5,28.6,21.5,28.4z M21.4,31.9c0-0.2,0.1-0.4,0.4-0.4h2.7c0.2,0,0.4,0.1,0.4,0.4v3.1c0,0.2-0.1,0.4-0.4,0.4h-2.7c-0.2,0-0.4-0.1-0.4-0.4V31.9z"/></g></svg>