<?xml version="1.0" encoding="iso-8859-1"?><!-- Generator: Adobe Illustrator 21.1.0, SVG Export Plug-In . SVG Version: 6.00 Build 0)  --><svg xmlns="http://www.w3.org/2000/svg" xmlns:xlink="http://www.w3.org/1999/xlink" viewBox="0 0 50 50" width="500px" height="500px"><path style="fill:none;stroke:#000000;stroke-width:2;stroke-linecap:round;stroke-miterlimit:10;" d="M25,3v14"/><line style="fill:none;stroke:#000000;stroke-width:2;stroke-linecap:round;stroke-miterlimit:10;" x1="33.051" y1="5.085" x2="25.159" y2="12.978"/><line style="fill:none;stroke:#000000;stroke-width:2;stroke-linecap:round;stroke-miterlimit:10;" x1="28.74" y1="3.396" x2="25.363" y2="6.774"/><line style="fill:none;stroke:#000000;stroke-width:2;stroke-linecap:round;stroke-miterlimit:10;" x1="37.347" y1="6.79" x2="27.032" y2="17.105"/><path d="M41.569,9.072c-0.001-0.001-0.001-0.002-0.002-0.003c-0.001-0.001-0.002-0.001-0.003-0.002C37.377,4.716,31.501,2,25,2C12.318,2,2,12.317,2,25s10.318,23,23,23s23-10.317,23-23C48,18.821,45.547,13.209,41.569,9.072z M32,25c0,3.859-3.14,7-7,7s-7-3.141-7-7s3.14-7,7-7S32,21.141,32,25z M4,25C4,13.421,13.42,4,25,4c5.578,0,10.641,2.201,14.405,5.761l-8.656,8.323C29.189,16.784,27.185,16,25,16c-4.962,0-9,4.037-9,9s4.038,9,9,9c2.122,0,4.071-0.742,5.611-1.975l8.49,8.491C35.37,43.91,30.43,46,25,46C13.42,46,4,36.579,4,25z"/></svg>