<?xml version="1.0" encoding="iso-8859-1"?><!-- Generator: Adobe Illustrator 21.1.0, SVG Export Plug-In . SVG Version: 6.00 Build 0)  --><svg xmlns="http://www.w3.org/2000/svg" xmlns:xlink="http://www.w3.org/1999/xlink" viewBox="0 0 50 50" width="500px" height="500px"><g><g><g><g></g></g></g></g><path d="M36,40V4c0-0.553-0.448-1-1-1H3C2.448,3,2,3.447,2,4v34c0,4.963,4.038,9,9,9l32,0C39.14,47,36,43.859,36,40z M10.03,37.875L10,34.625l-2.625-1.75l9.467-4.009l-1.314-2.23l5.972,0.739l-2,6l-1.35-2.291L10.03,37.875z M23.592,37h-9.185l-0.067-0.123L16.585,35h5.823l3.324-6.063L22.414,23h-6.827l-3.094,5.536l-2.212,0.937l-0.299-0.545L14.414,21h9.173l4.432,7.928L23.592,37z M29,16H9c-0.553,0-1-0.447-1-1s0.447-1,1-1h20c0.553,0,1,0.447,1,1S29.553,16,29,16z M29,11H9c-0.553,0-1-0.447-1-1s0.447-1,1-1h20c0.553,0,1,0.447,1,1S29.553,11,29,11z"/><path d="M45.5,9c0,0-2.5,0.5-2.5,4v24c0,0.552-0.448,1-1,1s-1-0.448-1-1V13c0-1.766,0.508-3.068,1.198-4H38c0,0,0,30.634,0,31c0,2.761,2.239,5,5,5s5-2.239,5-5V13C48,9.5,45.5,9,45.5,9z"/></svg>