<?xml version="1.0" encoding="utf-8"?><!-- Generator: Adobe Illustrator 17.0.0, SVG Export Plug-In . SVG Version: 6.00 Build 0)  --><!DOCTYPE svg PUBLIC "-//W3C//DTD SVG 1.1//EN" "http://www.w3.org/Graphics/SVG/1.1/DTD/svg11.dtd"><svg xmlns="http://www.w3.org/2000/svg" xmlns:xlink="http://www.w3.org/1999/xlink" viewBox="0 0 50 50" width="500px" height="500px"><path fill="none" stroke="#000000" stroke-width="2" stroke-linecap="round" stroke-linejoin="round" stroke-miterlimit="10" d="M42.68,21.286C42.601,20.411,42.631,19.8,42.631,19c0.397-0.208,1.107-1.535,1.227-2.656c0.312-0.026,0.803-0.33,0.948-1.531c0.077-0.645-0.231-1.008-0.419-1.122c0.507-1.526,1.561-6.247-1.949-6.735C42.077,6.321,41.151,6,39.949,6c-4.81,0.088-5.39,3.632-4.336,7.691c-0.187,0.114-0.496,0.477-0.419,1.122c0.144,1.201,0.636,1.506,0.948,1.531c0.12,1.12,0.859,2.447,1.256,2.656c0,0.8,0.03,1.411-0.049,2.287c-0.327,0.88-1.307,1.372-2.457,1.84c-0.861-4.923-6.313-4.426-7.212-6.84C27.601,15.411,27.631,14.8,27.631,14c0.397-0.208,1.107-1.535,1.227-2.656c0.312-0.026,0.803-0.33,0.948-1.531c0.077-0.645-0.231-1.008-0.419-1.122c0.507-1.526,1.561-6.247-1.949-6.735c-0.361-0.635-1.286-0.94-2.489-0.94c-4.81,0.088-5.39,3.617-4.336,7.675c-0.187,0.114-0.496,0.477-0.419,1.122c0.144,1.201,0.636,1.506,0.948,1.531c0.12,1.12,0.859,2.447,1.256,2.656c0,0.8,0.03,1.411-0.049,2.287c-0.898,2.415-6.375,1.917-7.239,6.841c-1.15-0.468-2.13-0.96-2.457-1.841C12.573,20.411,12.602,19.8,12.602,19c0.397-0.208,1.136-1.535,1.256-2.656c0.312-0.026,0.803-0.33,0.948-1.531c0.077-0.645-0.231-1.008-0.419-1.122C15.441,9.632,14.861,6.088,10.051,6C8.849,6,7.923,6.321,7.562,6.956c-3.511,0.488-2.457,5.209-1.949,6.735c-0.188,0.114-0.496,0.477-0.419,1.122c0.144,1.201,0.636,1.506,0.948,1.531c0.12,1.12,0.83,2.447,1.227,2.656c0,0.8,0.03,1.411-0.049,2.287C6.368,23.845,1.296,23.065,1,28v11c0,0,1.447,7.135,13,9.978V48c0.323-5.369,7.08-4.587,8.115-7.371c0.086-0.953,0.054-1.617,0.054-2.488c-0.432-0.227-1.236-1.67-1.366-2.889c-0.339-0.028-0.874-0.359-1.031-1.666c-0.084-0.701,0.252-1.096,0.455-1.221c-1.147-4.415-0.515-8.27,4.717-8.366c1.308,0,2.314,0.349,2.707,1.039c3.819,0.531,2.672,5.667,2.12,7.327c0.204,0.124,0.54,0.519,0.455,1.221c-0.157,1.307-0.691,1.638-1.031,1.666c-0.13,1.219-0.903,2.662-1.335,2.889c0,0.87-0.033,1.535,0.053,2.488C28.951,43.413,35.678,42.631,36,48v0.978C47.553,46.135,49,39,49,39V28C48.704,23.065,43.632,23.845,42.68,21.286z"/></svg>