<?xml version="1.0" encoding="iso-8859-1"?><!-- Generator: Adobe Illustrator 22.0.1, SVG Export Plug-In . SVG Version: 6.00 Build 0)  --><svg xmlns="http://www.w3.org/2000/svg" xmlns:xlink="http://www.w3.org/1999/xlink" viewBox="0 0 50 50" width="500px" height="500px"><g><rect x="31" y="21" width="7" height="10"/><rect x="12" y="21" width="7" height="10"/><path d="M47,7H3c-1.654,0-3,1.346-3,3v30c0,1.654,1.346,3,3,3h44c1.654,0,3-1.346,3-3V10C50,8.346,48.654,7,47,7z M48,33H2v-2h8V9h2v10h7V9h2v22h8V9h2v10h7V9h2v22h8V33z"/></g></svg>