<?xml version="1.0" encoding="utf-8"?><!-- Generator: Adobe Illustrator 15.0.0, SVG Export Plug-In . SVG Version: 6.00 Build 0)  --><!DOCTYPE svg PUBLIC "-//W3C//DTD SVG 1.1//EN" "http://www.w3.org/Graphics/SVG/1.1/DTD/svg11.dtd"><svg xmlns="http://www.w3.org/2000/svg" xmlns:xlink="http://www.w3.org/1999/xlink" viewBox="0 0 50 50" width="500px" height="500px"><path d="M42.662,23.924c0.954-7.205-0.389-13.146-3.896-17.205C35.579,3.031,30.69,1,25,1c-5.768,0-10.718,2.066-13.94,5.818c-3.494,4.069-4.813,9.978-3.825,17.112C5.827,25.38,5,27.604,5,30c0,3.718,3.18,6.703,5.682,7.842C13.267,45.781,21.796,49,25,49c3.171,0,11.647-3.213,14.307-11.136C42.132,36.688,45,33.496,45,30C45,27.58,44.174,25.445,42.662,23.924z M24.402,34.129l-7.814-7.057l1.341-1.485l6.07,5.483l8.706-13.453l1.679,1.086L24.402,34.129z"/></svg>