<?xml version="1.0" encoding="utf-8"?><!-- Generator: Adobe Illustrator 15.0.0, SVG Export Plug-In . SVG Version: 6.00 Build 0)  --><!DOCTYPE svg PUBLIC "-//W3C//DTD SVG 1.1//EN" "http://www.w3.org/Graphics/SVG/1.1/DTD/svg11.dtd"><svg xmlns="http://www.w3.org/2000/svg" xmlns:xlink="http://www.w3.org/1999/xlink" viewBox="0 0 50 50" width="500px" height="500px"><path fill="none" stroke="#000000" stroke-width="2" stroke-linecap="round" stroke-linejoin="round" stroke-miterlimit="10" d="M44,39.9"/><path fill="none" stroke="#000000" stroke-width="2" stroke-linecap="round" stroke-linejoin="round" stroke-miterlimit="10" d="M11,13.9"/><path d="M33,14c0.553,0,1-0.448,1-1s-0.447-1-1-1c-1.598,0-3-2.336-3-5c0-0.241,0.02-0.493,0.048-0.747c0.056-0.552,0.17-1.073,0.33-1.558c0.034-0.112,0.073-0.223,0.112-0.334c0.018-0.044,0.031-0.092,0.049-0.136c0.649-1.763,2.133-3.693,3.93-4.037C33.688,0,33.356,0,33,0H5C2.243,0,0,3.14,0,7s2.243,7,5,7H33z"/><g><path d="M42,41.406c0,3.552,2,5.229,2.885,5.896c0.771,0.581,1.472,1.106,3.221,1.174C49.258,47.192,50,45.217,50,43c0-3.859-2.243-7-5-7h-3V41.406z"/></g><path d="M40,41.375V41v-6.625V27V13V9c0-3.576-1.437-6.234-3.364-7.702c-2.809,0.658-3.795,2.465-4.228,3.639c-0.013,0.037-0.025,0.074-0.039,0.11c-0.027,0.077-0.055,0.156-0.092,0.276c-0.12,0.362-0.2,0.743-0.242,1.152C32.012,6.689,32,6.861,32,7c0,1.717,0.748,2.822,1.066,3.001C34.69,10.036,36,11.368,36,13c0,1.654-1.346,3-3,3H8v25c0,5.634,3.559,9,7,9h30c0.126,0,0.245-0.029,0.356-0.072C42.99,49.113,40,46.583,40,41.375z M17,35h-2c-0.552,0-1-0.447-1-1s0.448-1,1-1h2c0.552,0,1,0.447,1,1S17.552,35,17,35z M17,29h-2c-0.552,0-1-0.447-1-1s0.448-1,1-1h2c0.552,0,1,0.447,1,1S17.552,29,17,29z M17,23h-2c-0.552,0-1-0.448-1-1s0.448-1,1-1h2c0.552,0,1,0.448,1,1S17.552,23,17,23z M33,35H21c-0.552,0-1-0.447-1-1s0.448-1,1-1h12c0.553,0,1,0.447,1,1S33.553,35,33,35z M33,29H21c-0.552,0-1-0.447-1-1s0.448-1,1-1h12c0.553,0,1,0.447,1,1S33.553,29,33,29z M33,23H21c-0.552,0-1-0.448-1-1s0.448-1,1-1h12c0.553,0,1,0.448,1,1S33.553,23,33,23z"/><line fill="none" stroke="#000000" stroke-width="2" stroke-linecap="round" stroke-linejoin="round" stroke-miterlimit="10" x1="21" y1="40" x2="33" y2="40"/><line fill="none" stroke="#000000" stroke-width="2" stroke-linecap="round" stroke-linejoin="round" stroke-miterlimit="10" x1="15" y1="40" x2="17" y2="40"/></svg>