<?xml version="1.0" encoding="iso-8859-1"?><!-- Generator: Adobe Illustrator 21.1.0, SVG Export Plug-In . SVG Version: 6.00 Build 0)  --><svg xmlns="http://www.w3.org/2000/svg" xmlns:xlink="http://www.w3.org/1999/xlink" viewBox="0 0 50 50" width="500px" height="500px"><g></g><path d="M45,7H5c-1.654,0-3,1.346-3,3v30c0,1.654,1.346,3,3,3h5c0.552,0,1-0.448,1-1v-1.5c-0.712-0.593-1.142-1.468-0.957-2.458c0.206-1.098,1.172-1.966,2.286-2.037C13.809,35.912,15,37.043,15,38.5c0,0.8-0.4,1.5-1,2V42c0,0.552,0.448,1,1,1h20c0.552,0,1-0.448,1-1v-1.5c-0.712-0.593-1.142-1.468-0.957-2.458c0.206-1.098,1.172-1.966,2.286-2.037C38.809,35.912,40,37.043,40,38.5c0,0.8-0.4,1.5-1,2V42c0,0.552,0.448,1,1,1h5c1.654,0,3-1.346,3-3V10C48,8.346,46.654,7,45,7z M6,32c0-4.471,5.982-3.631,6.779-5.836c0.066-0.754-0.029-1.299-0.029-1.987c-0.332-0.179-0.881-1.303-0.98-2.269c-0.263-0.021-0.671-0.283-0.793-1.318c-0.066-0.555,0.193-0.867,0.349-0.966c-0.882-3.496-0.397-6.548,3.634-6.624c1.006,0,1.78,0.277,2.082,0.824c2.94,0.42,2.057,4.486,1.633,5.801c0.156,0.098,0.414,0.41,0.349,0.966c-0.121,1.035-0.532,1.297-0.793,1.318c-0.102,0.967-0.65,2.09-0.981,2.269c0,0.688-0.072,1.234-0.006,1.988C18.041,28.369,24,27.529,24,32H6z M42.786,28.571c-0.345,0.494-1.938,2.449-2.613,2.429c-0.676-0.022-3.487-0.084-8.788-5.386c-5.3-5.301-5.362-8.112-5.384-8.788c-0.022-0.676,1.933-2.269,2.428-2.615c0.495-0.345,1.001-0.215,1.176,0.028c0.2,0.277,2.169,3.262,2.386,3.604c0.148,0.234,0.094,0.624-0.104,0.998c-0.197,0.375-1.018,1.81-1.018,1.81s0.579,0.987,2.536,2.944c1.958,1.957,2.944,2.537,2.944,2.537s1.434-0.821,1.809-1.018c0.374-0.198,0.762-0.248,0.998-0.104c0.357,0.218,3.351,2.21,3.604,2.387C43.011,27.572,43.132,28.077,42.786,28.571z"/></svg>