<?xml version="1.0" encoding="utf-8"?><!-- Generator: Adobe Illustrator 19.1.1, SVG Export Plug-In . SVG Version: 6.00 Build 0)  --><svg xmlns="http://www.w3.org/2000/svg" xmlns:xlink="http://www.w3.org/1999/xlink" viewBox="0 0 50 50" width="500px" height="500px"><path fill="none" stroke="#000000" stroke-width="2" stroke-linecap="round" stroke-linejoin="round" stroke-miterlimit="10" d="M28,10h-6V5c0-1.7,1.3-3,3-3l0,0c1.7,0,3,1.3,3,3V10z"/><path d="M38,6H28v4h-6V6H12c-1.7,0-3,1.3-3,3v37c0,1.7,1.3,3,3,3h26c1.7,0,3-1.3,3-3V9C41,7.3,39.7,6,38,6z M32,42H18c-0.6,0-1-0.4-1-1s0.4-1,1-1h14c0.6,0,1,0.4,1,1S32.6,42,32,42z M32,38H18c-0.6,0-1-0.4-1-1s0.4-1,1-1h14c0.6,0,1,0.4,1,1S32.6,38,32,38z M17,32c0.2-3.8,5.2-3.2,5.9-5.2c0.1-0.7,0-1.1,0-1.8c-0.3-0.2-0.9-1.2-1-2c-0.2,0-0.6-0.3-0.7-1.2c-0.1-0.5,0.2-0.8,0.3-0.9c-0.8-3.1-0.4-5.9,3.4-5.9c0.9,0,1.6,0.2,1.9,0.7c2.7,0.4,1.9,4,1.5,5.2c0.1,0.1,0.4,0.4,0.3,0.9C28.6,22.7,28.2,23,28,23c-0.1,0.9-0.6,1.9-1,2c0,0.6,0,1.1,0,1.8c0.7,2,5.7,1.4,5.9,5.2H17z"/><circle cx="25" cy="5" r="1"/></svg>