<?xml version="1.0" encoding="iso-8859-1"?>
<!-- Generator: Adobe Illustrator 23.0.3, SVG Export Plug-In . SVG Version: 6.00 Build 0)  -->
<svg version="1.1" xmlns="http://www.w3.org/2000/svg" xmlns:xlink="http://www.w3.org/1999/xlink" x="0px" y="0px"
	 viewBox="0 0 50 50" style="enable-background:new 0 0 50 50;" xml:space="preserve">
<g id="Layer_10" style="display:none;">
</g>
<g id="filled">
</g>
<g id="outlined">
</g>
<g id="rounded">
</g>
<g id="two_x5F_tone">
</g>
<g id="sharp">
</g>
<g id="win10">
</g>
<g id="ios_x5F_out">
	<path style="fill:none;stroke:#000000;stroke-width:2;stroke-linecap:round;stroke-miterlimit:10;" d="M41,15H30V4"/>
	<path d="M30.41,2H7v46h26.96c-0.56-0.59-1.12-1.26-1.66-2H9V4h20.59L41,15.41v10.66c0.75,0.08,1.4,0.27,2,0.51V14.59L30.41,2z"/>
	<rect x="15" y="30" width="13" height="2"/>
	<path d="M28.29,36H15v2h13.67C28.51,37.36,28.39,36.69,28.29,36z"/>
	<rect x="15" y="24" width="20" height="2"/>
	<path d="M40,50.1l-0.5-0.2C39.2,49.7,30,45,30,32v-0.8l0.8-0.2c2.8-0.6,4.3-1.3,5.5-1.9S38.5,28,40,28s2.5,0.5,3.7,1.1
		s2.7,1.3,5.5,1.9l0.8,0.2V32c0,12.6-9.1,17.7-9.5,17.9L40,50.1z M32,32.8c0.3,9.7,6.2,14,8,15c1.7-1.1,7.7-5.7,8-15
		c-2.5-0.6-4-1.4-5.2-1.9C41.7,30.3,41.1,30,40,30s-1.7,0.3-2.8,0.9C36.1,31.4,34.6,32.2,32,32.8z"/>
</g>
<g id="ios_x5F_filled">
</g>
<g id="color">
</g>
</svg>