<?xml version="1.0" encoding="iso-8859-1"?><!-- Generator: Adobe Illustrator 23.0.3, SVG Export Plug-In . SVG Version: 6.00 Build 0)  --><svg xmlns="http://www.w3.org/2000/svg" xmlns:xlink="http://www.w3.org/1999/xlink" viewBox="0 0 50 50" width="500px" height="500px"><polyline style="fill:none;stroke:#000000;stroke-width:2;stroke-linecap:round;stroke-miterlimit:10;" points="47,46 4,46 4,4 "/><path d="M25,47h-6V21h6V47z"/><path d="M17,47h-6V28h6V47z"/><path d="M9,47H3V34h6V47z"/><path d="M37.5,14c-3.033,0-5.5-2.467-5.5-5.5S34.467,3,37.5,3S43,5.467,43,8.5S40.533,14,37.5,14z"/><path d="M42.5,15h-10c-3.033,0-5.5,2.467-5.5,5.5V32c0,1.104,0.897,2,2,2s2-0.896,2-2v-8.529c0-0.271,0.229-0.5,0.5-0.5s0.5,0.229,0.5,0.5V44.3c0,1.564,0.835,2.7,2.4,2.7c1.482,0,2.6-1.161,2.6-2.7V34c0-0.276,0.224-0.5,0.5-0.5S38,33.724,38,34v10.592c0.004,0.006,0.012,0.01,0.016,0.016C38.153,45.991,39.218,47,40.6,47c1.564,0,2.4-1.136,2.4-2.7V23.645c0-0.271,0.229-0.5,0.5-0.5s0.5,0.229,0.5,0.5V32c0,1.104,0.897,2,2,2s2-0.896,2-2V20.5C48,17.467,45.533,15,42.5,15z"/></svg>