<?xml version="1.0" encoding="iso-8859-1"?>
<!-- Generator: Adobe Illustrator 22.1.0, SVG Export Plug-In . SVG Version: 6.00 Build 0)  -->
<svg version="1.1" id="Layer_1" xmlns="http://www.w3.org/2000/svg" xmlns:xlink="http://www.w3.org/1999/xlink" x="0px" y="0px"
	 viewBox="0 0 50 50" style="enable-background:new 0 0 50 50;" xml:space="preserve">
<path style="fill:none;stroke:#000000;stroke-width:2;stroke-miterlimit:10;" d="M8.487,11c-2.817,0-2.961,3.01-3.737,3.803
	C3.974,15.594,1,15.797,1,17.698"/>
<path style="fill:none;stroke:#000000;stroke-width:2;stroke-miterlimit:10;" d="M41.513,11c2.817,0,2.961,3.01,3.738,3.803
	C46.026,15.594,49,15.797,49,17.698"/>
<ellipse style="fill:none;stroke:#000000;stroke-width:2;stroke-miterlimit:10;" cx="7.959" cy="25" rx="1.959" ry="2"/>
<circle style="fill:none;stroke:#000000;stroke-width:2;stroke-miterlimit:10;" cx="42" cy="25" r="2"/>
<path style="fill:none;stroke:#000000;stroke-width:2;stroke-miterlimit:10;" d="M1,32.302c0,1.901,2.974,2.104,3.75,2.894
	C5.526,35.99,5.67,39,8.487,39"/>
<path style="fill:none;stroke:#000000;stroke-width:2;stroke-miterlimit:10;" d="M49,32.302c0,1.901-2.974,2.104-3.749,2.894
	C44.474,35.99,44.33,39,41.513,39"/>
<polygon style="fill:none;stroke:#000000;stroke-width:2;stroke-linejoin:round;stroke-miterlimit:10;" points="27,39 49,39 49,11 
	27,11 30,18 27,25 30,32 "/>
<polygon style="fill:none;stroke:#000000;stroke-width:2;stroke-linejoin:round;stroke-miterlimit:10;" points="21,39 24,32 21,25 
	24,18 21,11 1,11 1,39 1,39 "/>
<path style="fill:none;stroke:#000000;stroke-width:2;stroke-linejoin:round;stroke-miterlimit:10;" d="M29.214,16.166L30,18l-3,7
	l3,7l-0.786,1.834C32.06,32.154,34,28.83,34,25S32.06,17.846,29.214,16.166z"/>
<path style="fill:none;stroke:#000000;stroke-width:2;stroke-linejoin:round;stroke-miterlimit:10;" d="M22.843,34.699L24,32l-3-7
	l3-7l-1.157-2.699C18.916,16.376,16,20.305,16,25C16,29.695,18.916,33.624,22.843,34.699z"/>
</svg>