<?xml version="1.0" encoding="utf-8"?><!-- Generator: Adobe Illustrator 15.0.0, SVG Export Plug-In . SVG Version: 6.00 Build 0)  --><!DOCTYPE svg PUBLIC "-//W3C//DTD SVG 1.1//EN" "http://www.w3.org/Graphics/SVG/1.1/DTD/svg11.dtd"><svg xmlns="http://www.w3.org/2000/svg" xmlns:xlink="http://www.w3.org/1999/xlink" viewBox="0 0 50 50" width="500px" height="500px"><path d="M45,16H5c-0.552,0-1-0.448-1-1V5c0-0.552,0.448-1,1-1h40c0.553,0,1,0.448,1,1v10C46,15.552,45.553,16,45,16z"/><path d="M29,46H5c-0.552,0-1-0.447-1-1V19c0-0.552,0.448-1,1-1h24c0.553,0,1,0.448,1,1v26C30,45.553,29.553,46,29,46z"/><path d="M45,26H33c-0.553,0-1-0.448-1-1v-6c0-0.552,0.447-1,1-1h12c0.553,0,1,0.448,1,1v6C46,25.552,45.553,26,45,26z"/><path d="M45,36H33c-0.553,0-1-0.447-1-1v-6c0-0.553,0.447-1,1-1h12c0.553,0,1,0.447,1,1v6C46,35.553,45.553,36,45,36z"/><path d="M45,46H33c-0.553,0-1-0.447-1-1v-6c0-0.553,0.447-1,1-1h12c0.553,0,1,0.447,1,1v6C46,45.553,45.553,46,45,46z"/></svg>