<?xml version="1.0" encoding="iso-8859-1"?><!-- Generator: Adobe Illustrator 21.0.2, SVG Export Plug-In . SVG Version: 6.00 Build 0)  --><svg xmlns="http://www.w3.org/2000/svg" xmlns:xlink="http://www.w3.org/1999/xlink" viewBox="0 0 50 50" width="500px" height="500px"><polygon points="24,19 28,19 28,17 34,19 30,19 30,21 "/><polygon points="30,29 30,31 34,31 28,33 28,31 24,31 "/><circle cx="42.5" cy="13.5" r="3.5"/><g><path d="M16,27h-5c-1.103,0-2-0.897-2-2s0.897-2,2-2h5v-7h-5c-4.962,0-9,4.038-9,9s4.038,9,9,9h5V27z"/><rect x="18" y="16" width="4" height="7"/><rect x="18" y="27" width="4" height="7"/></g><path d="M45,18h-5c-2.761,0-5,2.239-5,5v6.5c0,0.825,0.675,1.5,1.5,1.5s1.5-0.675,1.5-1.5v-6c0-0.275,0.225-0.5,0.5-0.5s0.5,0.225,0.5,0.5v15c0,0.825,0.675,1.5,1.5,1.5s1.5-0.675,1.5-1.5v-8c0-0.275,0.225-0.5,0.5-0.5s0.5,0.225,0.5,0.5v8c0,0.825,0.675,1.5,1.5,1.5s1.5-0.675,1.5-1.5v-15c0-0.275,0.225-0.5,0.5-0.5s0.5,0.225,0.5,0.5v6c0,0.825,0.675,1.5,1.5,1.5s1.5-0.675,1.5-1.5V23C50,20.239,47.761,18,45,18z"/></svg>