<?xml version="1.0" encoding="utf-8"?><!-- Generator: Adobe Illustrator 17.0.0, SVG Export Plug-In . SVG Version: 6.00 Build 0)  --><!DOCTYPE svg PUBLIC "-//W3C//DTD SVG 1.1//EN" "http://www.w3.org/Graphics/SVG/1.1/DTD/svg11.dtd"><svg xmlns="http://www.w3.org/2000/svg" xmlns:xlink="http://www.w3.org/1999/xlink" viewBox="0 0 50 50" width="500px" height="500px"><polyline fill="none" stroke="#000000" stroke-width="2" stroke-linecap="round" stroke-miterlimit="10" points="1,33.154 1,23 9,25 23,15 37,19 49,5 49,21.154 "/><polygon fill="none" stroke="#000000" stroke-width="2" stroke-linecap="round" stroke-miterlimit="10" points="1,33 17,37 27,23 41,28 49,21.154 49,49.154 1,49.154 "/><g><circle cx="29" cy="19" r="1"/><circle cx="23" cy="19" r="1"/><circle cx="23" cy="25" r="1"/><circle cx="17" cy="25" r="1"/><circle cx="17" cy="31" r="1"/><circle cx="11" cy="31" r="1"/><circle cx="26" cy="16" r="1"/><circle cx="26" cy="22" r="1"/><circle cx="44" cy="16" r="1"/><circle cx="44" cy="22" r="1"/><circle cx="20" cy="28" r="1"/><circle cx="20" cy="22" r="1"/><circle cx="11" cy="25" r="1"/><circle cx="14" cy="28" r="1"/><circle cx="14" cy="34" r="1"/><circle cx="8" cy="34" r="1"/><circle cx="8" cy="28" r="1"/><circle cx="5" cy="31" r="1"/><circle cx="5" cy="25" r="1"/><circle cx="2" cy="28" r="1"/><circle cx="14" cy="22" r="1"/><circle cx="47" cy="13" r="1"/><circle cx="47" cy="19" r="1"/><circle cx="32" cy="22" r="1"/><circle cx="38" cy="22" r="1"/><circle cx="35" cy="19" r="1"/><circle cx="35" cy="25" r="1"/><circle cx="41" cy="19" r="1"/><circle cx="41" cy="25" r="1"/></g></svg>