<?xml version="1.0" encoding="iso-8859-1"?><!-- Generator: Adobe Illustrator 23.0.3, SVG Export Plug-In . SVG Version: 6.00 Build 0)  --><svg xmlns="http://www.w3.org/2000/svg" xmlns:xlink="http://www.w3.org/1999/xlink" viewBox="0 0 50 50" width="500px" height="500px"><path d="M45,11H17c-0.552,0-1,0.447-1,1v33c0,0.553,0.448,1,1,1h28c0.552,0,1-0.447,1-1V12C46,11.447,45.552,11,45,11z M35,39H23c-0.552,0-1-0.447-1-1s0.448-1,1-1h12c0.552,0,1,0.447,1,1S35.552,39,35,39z M40,33H23c-0.552,0-1-0.447-1-1s0.448-1,1-1h17c0.552,0,1,0.447,1,1S40.552,33,40,33z M22,26c0-0.553,0.448-1,1-1h12c0.552,0,1,0.447,1,1s-0.448,1-1,1H23C22.448,27,22,26.553,22,26z M40,21H23c-0.552,0-1-0.447-1-1s0.448-1,1-1h17c0.552,0,1,0.447,1,1S40.552,21,40,21z"/><path d="M33,4H5C4.448,4,4,4.448,4,5v32c0,0.552,0.448,1,1,1h9v-7h-3c-0.552,0-1-0.447-1-1s0.448-1,1-1h3v-4h-3c-0.552,0-1-0.447-1-1s0.448-1,1-1h3v-4h-3c-0.552,0-1-0.447-1-1s0.448-1,1-1h3v-4h-3c-0.552,0-1-0.447-1-1s0.448-1,1-1h3.184C14.597,9.837,15.696,9,17,9h17V5C34,4.448,33.552,4,33,4z"/></svg>