<?xml version="1.0" encoding="iso-8859-1"?><!-- Generator: Adobe Illustrator 22.0.1, SVG Export Plug-In . SVG Version: 6.00 Build 0)  --><svg xmlns="http://www.w3.org/2000/svg" xmlns:xlink="http://www.w3.org/1999/xlink" viewBox="0 0 50 50" width="500px" height="500px"><path d="M49,8H1C0.448,8,0,8.448,0,9v32c0,0.552,0.448,1,1,1h48c0.552,0,1-0.448,1-1V9C50,8.448,49.552,8,49,8z M35,18h7v4h-7V18z M23.382,23.603c0.608,0.608,1.577,0.615,1.618,0.615c1.866,0,2.145-0.979,2.145-1.562c0-0.972-0.817-1.203-2.263-1.527c-1.611-0.36-3.615-0.808-3.615-3.284c0-0.283,0.082-2.695,2.829-3.095V13h1.821v1.752c0.768,0.126,1.433,0.479,1.937,1.03c0.597,0.654,0.933,1.573,0.877,2.397l-0.031,0.439h-1.815l-0.007-0.464c-0.012-0.829-0.342-1.818-1.849-1.818c-1.301,0-1.907,0.51-1.907,1.605c0,0.915,0.817,1.148,2.263,1.48c1.61,0.37,3.615,0.83,3.614,3.221c0,0.46-0.153,2.708-3.083,3.139V27h-1.821v-1.242c-2.013-0.347-3.022-1.558-3.083-3.694L21,21.58h1.88l-0.012,0.483C22.85,22.726,23.023,23.244,23.382,23.603z M8,18h7v4H8V18z M2,40v-4c2.007,0.409,3.591,1.993,4,4H2z M2,14V9.99L6,10C5.591,12.007,4.007,13.591,2,14z M37,37H13v-2h24V37z M43,32H7v-2h36V32z M48,40h-4c0.409-2.007,1.993-3.591,4-4V40z M48,14c-2.007-0.409-3.591-1.993-4-4h4V14z"/></svg>