<?xml version="1.0" encoding="utf-8"?><!-- Generator: Adobe Illustrator 19.1.1, SVG Export Plug-In . SVG Version: 6.00 Build 0)  --><svg xmlns="http://www.w3.org/2000/svg" xmlns:xlink="http://www.w3.org/1999/xlink" viewBox="0 0 50 50" width="500px" height="500px"><path d="M45,7H5c-2.8,0-5,2.2-5,5v26c0,2.8,2.2,5,5,5h40c2.8,0,5-2.2,5-5V12C50,9.2,47.8,7,45,7z M7,28l-3-3l3-3V28z M19,28c0,0.6-0.4,1-1,1h-7c-0.6,0-1-0.4-1-1v-6c0-0.6,0.4-1,1-1h7c0.6,0,1,0.4,1,1V28z M42,34H26v-1c0.2-3.8,5.2-3.2,5.9-5.2c0.1-0.7,0-1.1,0-1.8c-0.3-0.2-0.9-1.2-1-2c-0.2,0-0.6-0.3-0.7-1.2c-0.1-0.5,0.2-0.8,0.3-0.9C29.8,18.8,30.4,16,34,16c0.9,0,1.6,0.2,1.9,0.7c2.7,0.4,1.9,4,1.5,5.2c0.1,0.1,0.4,0.4,0.3,0.9C37.6,23.7,37.2,24,37,24c-0.1,0.9-0.6,1.9-1,2c0,0.6,0,1.1,0,1.8c0.7,2,5.7,1.4,5.9,5.2V34z"/></svg>