<?xml version="1.0" encoding="iso-8859-1"?><!-- Generator: Adobe Illustrator 23.0.3, SVG Export Plug-In . SVG Version: 6.00 Build 0)  --><svg xmlns="http://www.w3.org/2000/svg" xmlns:xlink="http://www.w3.org/1999/xlink" viewBox="0 0 50 50" width="500px" height="500px"><g><path d="M27.578,19.999c0.992,0.31,2.059,0.488,3.177,0.488c0.659,0,1.312-0.058,1.947-0.173c0.657,0.594,2.072,1.613,4.041,1.612c0.008,0,0.016,0,0.024,0l1.828-0.008l-1.083-1.472c-0.536-0.729-0.768-1.359-0.868-1.757c2.078-1.467,3.301-3.658,3.301-5.965c0-4.189-3.952-7.605-8.87-7.749c1.308,1.718,2.075,3.772,2.075,5.981C33.148,14.721,30.934,18.043,27.578,19.999z"/><path d="M13.919,17.835c-0.106,0.477-0.376,1.273-1.06,2.202l-1.083,1.472l1.827,0.008c0.009,0,0.019,0,0.028,0c2.302,0,3.938-1.223,4.657-1.888c0.753,0.142,1.529,0.213,2.313,0.213c5.815,0,10.546-3.986,10.546-8.886s-4.731-8.886-10.546-8.886c-5.815,0-10.546,3.986-10.546,8.886C10.056,13.624,11.489,16.155,13.919,17.835z"/><path d="M38.833,39.8c-1.042-0.386-2.12-0.786-2.439-1.295v-1.421c0.456-0.502,0.884-1.323,1.102-2.116c0.632-0.267,1.144-0.906,1.144-2.099c0-0.621-0.158-1.056-0.347-1.355c0.144-0.544,0.347-1.407,0.347-2.015c0-1.916-0.618-3.969-2.952-4.24l-0.291-0.488c-0.161-0.27-0.456-0.439-0.772-0.439c-1.716,0-2.961,0.364-3.853,0.947c0.79,1.135,1.23,2.646,1.23,4.47c0,0.548-0.091,1.22-0.277,2.039c0.185,0.521,0.277,1.093,0.277,1.711c0,1.579-0.575,2.865-1.608,3.663c-0.226,0.586-0.516,1.148-0.844,1.64c0.415,0.186,0.974,0.393,1.361,0.537c2.373,0.88,6.238,2.316,6.975,6.557h5.246c0.249,0,0.484-0.102,0.653-0.284c0.172-0.179,0.26-0.421,0.242-0.67C43.827,41.653,40.942,40.583,38.833,39.8z"/><path d="M30.216,41.215c-1.16-0.43-2.359-0.875-2.715-1.441v-1.582c0.508-0.559,0.984-1.473,1.227-2.355c0.703-0.297,1.273-1.008,1.273-2.336c0-0.691-0.176-1.176-0.387-1.508c0.16-0.605,0.387-1.566,0.387-2.242c0-2.133-0.688-4.418-3.285-4.719l-0.324-0.543C26.212,24.188,25.884,24,25.533,24c-5.184,0-6.531,2.973-6.531,5.75c0,0.676,0.227,1.637,0.387,2.242c-0.211,0.332-0.387,0.816-0.387,1.508c0,1.328,0.57,2.039,1.273,2.336c0.238,0.883,0.719,1.797,1.227,2.359v1.586c-0.336,0.578-1.328,1-2.379,1.441c-2.066,0.875-4.895,2.074-5.121,5.715c-0.016,0.277,0.082,0.547,0.27,0.75C14.462,47.887,14.724,48,15.002,48h20c0.277,0,0.539-0.113,0.727-0.316c0.191-0.199,0.289-0.469,0.27-0.746C35.775,43.277,32.564,42.086,30.216,41.215z"/><path d="M18.343,39.381c0.332-0.139,0.808-0.339,1.152-0.514c-0.348-0.509-0.653-1.096-0.888-1.706c-1.031-0.798-1.605-2.083-1.605-3.661c0-0.618,0.093-1.19,0.277-1.711c-0.187-0.819-0.277-1.491-0.277-2.039c0-1.699,0.399-3.152,1.136-4.331c-0.216-0.07-0.444-0.13-0.7-0.159l-0.291-0.488c-0.161-0.27-0.456-0.439-0.772-0.439c-4.657,0-5.868,2.671-5.868,5.166c0,0.607,0.204,1.471,0.347,2.015c-0.19,0.298-0.347,0.734-0.347,1.355c0,1.193,0.512,1.832,1.144,2.099c0.214,0.793,0.646,1.614,1.102,2.12v1.425c-0.302,0.519-1.193,0.898-2.137,1.295c-1.857,0.786-4.398,1.864-4.601,5.135C6,45.191,6.088,45.433,6.256,45.616c0.172,0.179,0.407,0.281,0.656,0.281h5.201C12.824,41.721,16.374,40.215,18.343,39.381z"/></g></svg>