<?xml version="1.0" encoding="iso-8859-1"?>
<!-- Generator: Adobe Illustrator 26.4.1, SVG Export Plug-In . SVG Version: 6.00 Build 0)  -->
<svg version="1.1" baseProfile="basic" id="Layer_1"
	 xmlns="http://www.w3.org/2000/svg" xmlns:xlink="http://www.w3.org/1999/xlink" x="0px" y="0px" viewBox="0 0 50 50"
	 xml:space="preserve">
<g>
	<polygon points="15.289,28.013 14.453,31.298 16.163,31.298 15.327,28.013 	"/>
	<path d="M49,10H1H0.906H0.812C0.336,10.09-0.008,10.512,0,11v28c0,0.551,0.449,1,1,1h48c0.551,0,1-0.449,1-1V11
		C50,10.449,49.551,10,49,10z M9.892,34.731H8.08v-7.84H6v-1.448h5.984v1.448H9.892V34.731z M5.859,21.141
		C5.78,20.59,6.168,20.078,6.719,20h0.094h0.094H7h17c0.359-0.004,0.695,0.184,0.879,0.496c0.18,0.313,0.18,0.696,0,1.008
		c-0.184,0.312-0.52,0.5-0.879,0.496H7C6.449,22.078,5.938,21.692,5.859,21.141z M17.037,34.731l-0.504-1.984h-2.45l-0.498,1.984
		h-1.831l2.616-9.289h1.888l2.609,9.289H17.037z M23.812,34.731l-1.301-3.317h-0.038l-1.301,3.317h-2.112l2.309-4.683l-2.252-4.606
		h2.086l1.244,3.247h0.038l1.263-3.247h2.099l-2.252,4.606L26,34.731H23.812z M28.879,17.504c-0.184,0.312-0.52,0.5-0.879,0.496H7
		c-0.551,0.078-1.062-0.308-1.141-0.859S6.168,16.078,6.719,16h0.094h0.094H7h21c0.359-0.004,0.695,0.184,0.879,0.496
		C29.059,16.809,29.059,17.192,28.879,17.504z M39.832,24.445c0.123,0.185,0.211,0.37,0.301,0.555H43v2h-2.465
		c-0.066,1.1-0.547,2.138-1.174,3H44v2h-7c-0.431,0-0.813-0.275-0.949-0.684c-0.136-0.408,0.005-0.859,0.35-1.117
		c0.102-0.077,1.985-1.532,2.135-3.199H36v-2h1.844c-1.029-1.871-1.053-3.833,0-5.025c0.453-0.513,1.334-1.127,2.922-1.02
		c0.953,0.065,2.16,0.389,3.682,1.15l-0.895,1.789c-2.42-1.21-3.761-1.102-4.209-0.598C38.894,21.807,38.952,23.125,39.832,24.445z"
		/>
</g>
</svg>