<?xml version="1.0" encoding="iso-8859-1"?><!-- Generator: Adobe Illustrator 22.1.0, SVG Export Plug-In . SVG Version: 6.00 Build 0)  --><svg xmlns="http://www.w3.org/2000/svg" xmlns:xlink="http://www.w3.org/1999/xlink" viewBox="0 0 50 50" width="500px" height="500px"><path d="M41.45,18.56c0.36,0.49,0.62,1.2,0.51,2.11c-0.22,1.81-0.96,2.6-1.57,2.94c-0.28,1.35-1.59,3.09-2.39,3.91v0.65c-3.47,0.58-6.44,2.65-8.22,5.53c-0.84-0.38-1.59-0.78-1.9-1.14c-0.05-0.77-0.05-1.43-0.05-2.21c0.81-1.09,1.53-2.64,1.94-4.17c0.9-0.76,1.78-2.1,2.05-4.44c0.13-1.09-0.03-2.13-0.45-3.04c0.76-3,1.43-7.77-0.72-11.27c-0.22-0.36-0.46-0.69-0.75-1c0.89-0.26,1.88-0.41,3-0.43c2.07,0,3.62,0.54,4.46,1.54c1.45,0.3,2.75,0.7,3.48,1.87C42.58,12.15,41.95,16.85,41.45,18.56z"/><path d="M30.25,47H-0.06L0,45.93c0.36-6.12,5.23-8.05,9.14-9.6c2.35-0.94,4.38-1.75,4.99-3.16c0.1-1.15,0.09-2.04,0.08-3.06v-0.47c-0.92-0.93-1.86-2.9-2.21-4.64c-0.72-0.37-1.57-1.28-1.84-3.5c-0.13-1.12,0.2-1.98,0.65-2.54c-1.22-5.12-0.86-9.01,1.07-11.59c1.63-2.17,4.33-3.3,8.01-3.37c2.43,0,4.24,0.66,5.18,1.86c0.41,0.08,0.79,0.2,1.15,0.34c0.36,0.15,0.7,0.32,1.01,0.52c0.69,0.45,1.27,1.03,1.71,1.76C30.99,11.81,29.8,17,29.21,19c0.44,0.55,0.76,1.4,0.63,2.5c-0.26,2.21-1.14,3.12-1.84,3.48c-0.34,1.76-1.26,3.72-2.16,4.65v0.48c-0.01,1.02-0.02,1.91,0.08,3.06c0.42,0.99,1.53,1.68,2.96,2.31C28.31,36.88,28,38.4,28,40C28,42.62,28.83,45.03,30.25,47z"/><g id="IOS_copy_5_"><path d="M40,50c-5.5,0-10-4.5-10-10s4.5-10,10-10s10,4.5,10,10S45.5,50,40,50z M40,32c-4.4,0-8,3.6-8,8s3.6,8,8,8s8-3.6,8-8S44.4,32,40,32z"/></g><polygon points="41,40.5 41,34 39,34 39,39.5 35.4,42.2 36.6,43.8 "/></svg>