<?xml version="1.0" encoding="iso-8859-1"?><!-- Generator: Adobe Illustrator 21.0.2, SVG Export Plug-In . SVG Version: 6.00 Build 0)  --><svg xmlns="http://www.w3.org/2000/svg" xmlns:xlink="http://www.w3.org/1999/xlink" viewBox="0 0 50 50" width="500px" height="500px"><path d="M19.958,41.958h-16c-0.732,0-1.409-0.212-2-0.556v6.556h20v-6.556C21.367,41.747,20.69,41.958,19.958,41.958z"/><path style="fill:none;stroke:#000000;stroke-width:2;stroke-miterlimit:10;" d="M14.958,32.958h-6v-3c0-1.105,0.895-2,2-2h2c1.105,0,2,0.895,2,2V32.958z"/><path d="M17,35v-4.042H2.958h-1v7c0,1.103,0.897,2,2,2h16c1.103,0,2-0.897,2-2V35H17z M11.958,37.958c-0.552,0-1-0.448-1-1s0.448-1,1-1c0.552,0,1,0.448,1,1S12.511,37.958,11.958,37.958z"/><path d="M46,17H30c-0.732,0-1.409-0.212-2-0.556V19h5v4h15v-6.556C47.409,16.788,46.732,17,46,17z"/><path d="M47,6h-1H30h-1h-1v7c0,1.103,0.897,2,2,2h16c1.103,0,2-0.897,2-2V6H47z M38,13c-0.552,0-1-0.448-1-1c0-0.552,0.448-1,1-1s1,0.448,1,1C39,12.552,38.552,13,38,13z"/><line style="fill:none;stroke:#000000;stroke-width:2;stroke-miterlimit:10;" x1="21" y1="31" x2="29" y2="23"/><polyline style="fill:none;stroke:#000000;stroke-width:2;stroke-miterlimit:10;" points="25,22 30,22 30,27 "/><polyline style="fill:none;stroke:#000000;stroke-width:2;stroke-miterlimit:10;" points="25,32 20,32 20,27 "/><path style="fill:none;stroke:#000000;stroke-width:2;stroke-miterlimit:10;" d="M41,8h-6V5c0-1.105,0.895-2,2-2h2c1.105,0,2,0.895,2,2V8z"/></svg>