<?xml version="1.0" encoding="iso-8859-1"?><!-- Generator: Adobe Illustrator 19.1.1, SVG Export Plug-In . SVG Version: 6.00 Build 0)  --><svg xmlns="http://www.w3.org/2000/svg" xmlns:xlink="http://www.w3.org/1999/xlink" viewBox="0 0 50 50" width="500px" height="500px"><g><g><path style="fill:none;stroke:#000000;stroke-width:1.9974;stroke-miterlimit:10;" d="M45,7H3v24h42V7L45,7z"/></g></g><path d="M9.551,32H2v-6.741h2c0,0.365,0.667,0.651,1.474,0.96c0.583,0.224,1.135,0.436,1.513,0.814c0.329,0.329,0.521,0.777,0.724,1.251C8.211,29.451,8.555,30,9.551,30V32z"/><path d="M38.5,22c-1.378,0-2.5-1.122-2.5-2.5s1.122-2.5,2.5-2.5s2.5,1.122,2.5,2.5S39.878,22,38.5,22z"/><path d="M9.5,22C8.122,22,7,20.878,7,19.5S8.122,17,9.5,17s2.5,1.122,2.5,2.5S10.878,22,9.5,22z"/><path d="M24,29c-4.962,0-9-4.486-9-10s4.038-10,9-10s9,4.486,9,10S28.962,29,24,29z"/><path d="M24,47.443L13.764,36H20v-6h8v6h6.236L24,47.443z"/><path style="fill:none;stroke:#000000;stroke-width:2;stroke-miterlimit:10;" d="M3,12.741c0-1.629,2.602-1.803,3.28-2.481C6.96,9.58,7.086,7,9.551,7"/><path d="M4,12.741H2V6h8v2H9.551c-0.996,0-1.34,0.549-1.839,1.716c-0.203,0.474-0.395,0.922-0.725,1.251c-0.378,0.378-0.929,0.589-1.513,0.813C4.667,12.09,4,12.376,4,12.741z"/><polygon style="fill:none;stroke:#231F20;stroke-width:2;stroke-miterlimit:10;" points="45,4 7,4 7,7 45,7 45,28 48,28 48,7 48,4 "/><path d="M38.449,6v2c0.996,0,1.34,0.55,1.839,1.716c0.203,0.474,0.394,0.921,0.724,1.251c0.378,0.378,0.93,0.589,1.513,0.813C43.332,12.09,44,12.376,44,12.741h2V6H38.449z"/><path d="M44,25.259c0,0.365-0.668,0.651-1.475,0.96c-0.583,0.224-1.135,0.436-1.514,0.814c-0.329,0.33-0.521,0.777-0.723,1.25C39.789,29.45,39.445,30,38.449,30v2c0.2,0,0.372-0.031,0.551-0.055V32h7v-6.741H44z"/></svg>