<?xml version="1.0" encoding="iso-8859-1"?>
<!-- Generator: Adobe Illustrator 24.1.2, SVG Export Plug-In . SVG Version: 6.00 Build 0)  -->
<svg version="1.1" id="Layer_1" xmlns="http://www.w3.org/2000/svg" xmlns:xlink="http://www.w3.org/1999/xlink" x="0px" y="0px"
	 viewBox="0 0 50 50" style="enable-background:new 0 0 50 50;" xml:space="preserve">
<path d="M24,2.025c-5.5,0-9.975,4.048-9.975,9.024c0,0.616,0.069,1.231,0.205,1.829c0.015,0.065,0.034,0.13,0.054,0.194l0.052,0.188
	c0.043,0.163,0.086,0.326,0.141,0.486c0.172,0.496,0.406,1.002,0.714,1.535l0.047,0.088c0.415,0.688,0.927,1.323,1.524,1.893L16,22
	l4.073-2.661c0.235,0.092,0.477,0.177,0.732,0.255c0.31,0.095,0.625,0.176,0.944,0.242l0.102,0.023
	c0.295,0.059,0.595,0.104,0.951,0.145l0.121,0.017c0.708,0.068,1.441,0.068,2.158,0l0.169-0.024
	c0.304-0.033,0.604-0.078,0.898-0.137l0.099-0.022c0.322-0.067,0.638-0.148,0.964-0.249c0.243-0.074,0.482-0.158,0.716-0.249L32,22
	l-0.763-4.737c0.597-0.569,1.109-1.204,1.524-1.893l0.065-0.121c0.291-0.5,0.525-1.006,0.697-1.503
	c0.056-0.161,0.1-0.327,0.167-0.58l0.028-0.097c0.02-0.063,0.038-0.126,0.053-0.19c0.136-0.598,0.205-1.213,0.205-1.829
	C33.975,6.073,29.5,2.025,24,2.025z M15.646,15.125L15.646,15.125C15.646,15.125,15.646,15.125,15.646,15.125L15.646,15.125z
	 M22.968,19.548L22.968,19.548L22.968,19.548L22.968,19.548z M24.123,14.678C23.926,14.892,23.657,15,23.388,15
	c-0.239,0-0.479-0.085-0.67-0.258l-3.661-3.308l1.341-1.483l2.926,2.644l4.62-5.008l1.47,1.356L24.123,14.678z M32.415,15.011
	C32.415,15.011,32.415,15.011,32.415,15.011L32.415,15.011L32.415,15.011z"/>
<path d="M21.084,38.269l-2.013-3.539l-0.002-0.157c-0.009-0.925-0.101-1.513-0.937-3.263l-0.16-0.334l0.221-0.293
	c0.797-1.059,0.883-1.566,0.883-1.735V28.83l-0.053-0.105C17.707,26.079,14.67,24,11,24c-8.406,0-9,7.965-9,10.253
	c0,3.265,1.037,5.377,2.135,7.612C4.849,43.323,5,45.171,5,47v2h10.12v-3.5h0.754c2.062,0,3.196-1.037,3.196-2.92v-2.391
	l1.808-0.925c0.131-0.088,0.24-0.247,0.284-0.415C21.212,38.661,21.188,38.465,21.084,38.269z"/>
<path d="M48.595,46.702C48.2,46.072,48,44.827,48,43v-8.638C48,31.48,46.203,24,38,24c-4.484,0-6.389,1.941-7.921,3.504
	c-0.485,0.497-0.573,0.996-0.562,1.329c0.015,0.405,0.173,0.807,0.475,1.197l1.452,0.988c2.071,2.014,4.302,2.668,5.556,2.88V40
	c0,4.963,4.037,9,9,9h1.33c0.545,0,1.046-0.295,1.309-0.77C48.903,47.753,48.887,47.167,48.595,46.702z"/>
<path style="fill:none;stroke:#000000;stroke-width:2;stroke-linecap:square;stroke-linejoin:round;stroke-miterlimit:10;" d="
	M31.276,29.38l-0.411,0.889C30.463,31.143,30,32.414,30,34.5v0.144l-2.212,3.761L30,39.197V40.5c0,1.93,1.57,3.5,3.5,3.5H35v4"/>
</svg>