<?xml version="1.0" encoding="iso-8859-1"?><!-- Generator: Adobe Illustrator 19.1.1, SVG Export Plug-In . SVG Version: 6.00 Build 0)  --><svg xmlns="http://www.w3.org/2000/svg" xmlns:xlink="http://www.w3.org/1999/xlink" viewBox="-280 372 50 50" width="500px" height="500px"><path fill="none" stroke="#000000" stroke-width="2" stroke-linecap="round" stroke-miterlimit="10" d="M-250,404c0,2.1-4.1,3-4.1,3"/><path fill="none" stroke="#000000" stroke-width="2" stroke-linecap="round" stroke-linejoin="round" stroke-miterlimit="10" d="M-250,404v-3.708c0.7-0.4,1.8-2.992,2.1-4.992c0.6,0,1.5-0.6,1.7-2.8c0.1-1.2-0.3-2-0.8-2.1c1.8-2.3,1.5-11.4-5-11.4l-1-2c-9.4,0-12.8,7.2-10.1,13.3c-0.3,0.2-0.9,0.9-0.8,2.1c0.3,2.2,1.2,2.8,1.7,2.8c0.2,2.1,1.5,4.432,2.2,4.832c0,1.5,0,3.874,0,3.874s-1.859,1.48-2.473,2.151"/><path fill="none" stroke="#000000" stroke-width="2" stroke-linecap="round" stroke-miterlimit="10" d="M-250,404c0,2.1-4.1,3-4.1,3"/><path fill="none" stroke="#000000" stroke-width="2" stroke-linecap="round" stroke-miterlimit="10" d="M-260,404c0,2.1,4.1,3,4.1,3"/><path d="M-266.781,413.625c-0.172-0.215-0.248-0.49-0.21-0.763c0.038-0.271,0.186-0.517,0.41-0.676l2.222-1.588l-0.997-3.413C-271.338,408.849-275,413.937-275,418c0,0.553,0.448,1,1,1h11.282L-266.781,413.625z"/><polygon points="-254,411 -252.417,406.979 -254,407 -256,407 -257.625,407 -256,411 -258,418 -258,419 -252,419 -252,418 "/><path d="M-247.318,419h11.282c0.552,0,1-0.447,1-1c0-4.063-3.662-9.151-9.644-10.815l-0.997,3.413l2.222,1.588c0.224,0.159,0.372,0.405,0.41,0.676c0.038,0.273-0.038,0.548-0.21,0.763L-247.318,419z"/><path d="M-247.417,411.814c-0.346-0.247-0.498-0.686-0.379-1.094l1.446-4.949c-0.387-0.41-0.76-0.746-1.08-1.01c-0.774-0.7-1.799-1.52-1.947-1.637c-0.435-0.346-1.063-0.272-1.405,0.159c-0.344,0.433-0.272,1.062,0.159,1.405c0.397,0.316,0.379,0.25,0.99,0.812c-0.075,4.833-2.3,12.012-2.866,13.5h2.666l4.358-5.8L-247.417,411.814z"/><path d="M-262.619,411.814c0.346-0.247,0.498-0.686,0.379-1.094l-1.446-4.949c0.387-0.41,0.76-0.746,1.08-1.01c0.774-0.7,1.799-1.52,1.947-1.637c0.435-0.346,1.063-0.272,1.405,0.159c0.344,0.433,0.272,1.062-0.159,1.405c-0.397,0.316-0.379,0.25-0.99,0.812c0.075,4.833,2.3,12.012,2.866,13.5h-2.666l-4.358-5.8L-262.619,411.814z"/></svg>