<?xml version="1.0" encoding="iso-8859-1"?><!-- Generator: Adobe Illustrator 21.0.0, SVG Export Plug-In . SVG Version: 6.00 Build 0)  --><svg xmlns="http://www.w3.org/2000/svg" xmlns:xlink="http://www.w3.org/1999/xlink" viewBox="0 0 50 50" width="500px" height="500px"><path style="fill:none;stroke:#000000;stroke-width:2;stroke-miterlimit:10;" d="M31,38.815c0-1.117,0-2.13,0-2.762c0.825-0.806,1.206-2.033,1.244-3.208c0.365-0.315,0.934-0.71,1.103-1.662c0.137-0.772-0.152-1.405-0.492-1.861c1.077-1.721,0.922-7.022-3.21-7.022L29,21c-6,0-8.095,4.669-6.374,8.64c-0.234,0.234-0.594,0.911-0.573,1.419c0.049,1.167,0.825,1.608,1.19,1.786c0.139,1.354,0.947,2.656,1.757,3.208c0,0.628,0,2.205,0,2.762C23.89,41.907,17,41,17,47h22C39,41,32.11,41.907,31,38.815z"/><path style="fill:none;stroke:#000000;stroke-width:2;stroke-miterlimit:10;" d="M38.916,47h8.078c-0.319-5.503-6.969-4.702-7.994-7.555c0-0.867,0-1.563,0-2.158c0.622-0.638,0.942-2.031,1-3.061c0.449-0.296,0.97-0.669,1.132-1.9c0.101-0.769-0.233-1.465-0.494-1.726c0.972-1.915,0.889-6.4-2.926-6.4L37.127,23c-1.741,0-3.644,0.837-4.211,1.578"/><polyline style="fill:none;stroke:#000000;stroke-width:2;stroke-miterlimit:10;" points="35,20 35,8 30,8 30,3 8,3 8,8 3,8 3,45 14,45 "/><line style="fill:none;stroke:#000000;stroke-width:2;stroke-miterlimit:10;" x1="8" y1="13" x2="12" y2="13"/><line style="fill:none;stroke:#000000;stroke-width:2;stroke-miterlimit:10;" x1="8" y1="18" x2="12" y2="18"/><line style="fill:none;stroke:#000000;stroke-width:2;stroke-miterlimit:10;" x1="26" y1="13" x2="30" y2="13"/><line style="fill:none;stroke:#000000;stroke-width:2;stroke-miterlimit:10;" x1="11" y1="8" x2="30" y2="8"/><line style="fill:none;stroke:#000000;stroke-width:2;stroke-miterlimit:10;" x1="26" y1="18" x2="30" y2="18"/><line style="fill:none;stroke:#000000;stroke-width:2;stroke-miterlimit:10;" x1="8" y1="23" x2="12" y2="23"/><line style="fill:none;stroke:#000000;stroke-width:2;stroke-miterlimit:10;" x1="8" y1="28" x2="12" y2="28"/><line style="fill:none;stroke:#000000;stroke-width:2;stroke-miterlimit:10;" x1="8" y1="33" x2="12" y2="33"/><line style="fill:none;stroke:#000000;stroke-width:2;stroke-miterlimit:10;" x1="8" y1="38" x2="12" y2="38"/><line style="fill:none;stroke:#000000;stroke-width:2;stroke-miterlimit:10;" x1="17" y1="13" x2="21" y2="13"/><line style="fill:none;stroke:#000000;stroke-width:2;stroke-miterlimit:10;" x1="17" y1="18" x2="21" y2="18"/><g><polygon points="17,22 17,24 19.484,24 20.76,22 "/><polygon points="17,29 19.755,29 19.396,27 17,27 "/><polygon points="17,34 20.449,34 19.615,32 17,32 "/></g><line style="fill:none;stroke:#000000;stroke-width:2;stroke-miterlimit:10;" x1="17" y1="38" x2="21" y2="38"/></svg>