<?xml version="1.0" encoding="iso-8859-1"?><!-- Generator: Adobe Illustrator 22.1.0, SVG Export Plug-In . SVG Version: 6.00 Build 0)  --><svg xmlns="http://www.w3.org/2000/svg" xmlns:xlink="http://www.w3.org/1999/xlink" viewBox="0 0 50 50" width="500px" height="500px"><g><polygon points="23,41 25,41 25,40.188 25,36.126 25,36 23,36 "/><path d="M30.4,2H7v46h36V14.6L30.4,2z M14,10h13v2H14V10z M14,14h13v2H14V14z M14,18h23v2H14V18z M14,22h23v2H14V22z M14,26h11v2H14V26z M39,39.875c0,0.755-0.34,1.318-0.632,1.663v0.212c0,1.24-1.015,2.25-2.263,2.25h-7.264c-1.017,0-1.937-0.401-2.625-1.044C26.145,42.973,26.077,43,26,43h-4c-0.553,0-1-0.447-1-1v-7c0-0.553,0.447-1,1-1h3.584c0.066-0.114,0.127-0.231,0.205-0.339l3.859-5.625c0.248-0.44,0.885-1.035,1.721-1.035c1.084,0,2.291,0.796,2.291,1.938c0,0.894-0.262,1.618-1.172,3.992c-0.006,0.018-0.012,0.033-0.018,0.049h3.636c1.295,0,2.263,1.331,2.263,2.521v0.212c0.292,0.345,0.632,0.908,0.632,1.663C39,37.881,38.848,38.3,38.66,38.625C38.848,38.951,39,39.37,39,39.875z M30,15V4.4L40.6,15H30z"/><path d="M37.001,37.375c0-0.257-0.241-0.456-0.244-0.458c-0.232-0.19-0.388-0.49-0.388-0.791v-0.625c0-0.208-0.187-0.486-0.29-0.524l-3.735,0.004c-0.924,0-1.398-0.408-1.634-0.75c-0.252-0.365-0.472-1.012-0.09-2.014c0.746-1.945,0.991-2.631,1.033-3.118c-0.081-0.05-0.205-0.098-0.284-0.098c0.042,0.006-0.026,0.094-0.028,0.098l-3.914,5.71C27.14,35.211,27,35.648,27,36.126v4.063C27,41.188,27.826,42,28.842,42h7.264c0.145,0,0.263-0.112,0.263-0.25v-0.625c0-0.316,0.149-0.614,0.404-0.803c-0.001,0-0.001,0-0.001,0c-0.001,0,0.229-0.196,0.229-0.447c0-0.258-0.241-0.457-0.244-0.459c-0.239-0.195-0.385-0.498-0.378-0.806c0.008-0.303,0.142-0.593,0.38-0.777C36.778,37.815,37.001,37.621,37.001,37.375z"/></g></svg>