<?xml version="1.0" encoding="iso-8859-1"?><!-- Generator: Adobe Illustrator 19.1.1, SVG Export Plug-In . SVG Version: 6.00 Build 0)  --><svg xmlns="http://www.w3.org/2000/svg" xmlns:xlink="http://www.w3.org/1999/xlink" viewBox="0 0 50 50" width="500px" height="500px"><path fill="none" stroke="#000000" stroke-width="2" stroke-linejoin="round" stroke-miterlimit="10" d="M24,32v-7c0-1.105,0.895-2,2-2h0.5"/><path fill="none" stroke="#000000" stroke-width="2" stroke-linejoin="round" stroke-miterlimit="10" d="M24,25c0-1.105-0.895-2-2-2h-0.5"/><circle cx="26.5" cy="23.5" r="1.5"/><circle cx="21.5" cy="23.5" r="1.5"/><path d="M47.529,27.241l-4.098-7.365C41.986,8.347,35.092,2,24,2C10.36,2,3,11.997,3,21.403c0,4.999,1.958,8.814,3.851,12.504C8.471,37.063,10,40.044,10,43.412V48h24v-3h1.886C40.36,45,44,41.36,44,36.886v-4.221l1.935-0.813c0.857-0.359,1.523-1.07,1.827-1.948C48.065,29.024,47.981,28.055,47.529,27.241z M25.82,38.82C25.507,39.515,24.812,40,24,40s-1.507-0.485-1.82-1.18C21.485,38.507,21,37.812,21,37v-1h6v1C27,37.812,26.515,38.507,25.82,38.82z M28.168,30.973c-0.494,0.874-0.926,1.821-1.089,3.027h-6.157c-0.161-1.195-0.584-2.144-1.071-3.018C16.97,29.481,15,26.473,15,23c0-4.971,4.029-9,9-9s9,4.029,9,9C33,26.466,31.038,29.469,28.168,30.973z"/></svg>