<?xml version="1.0" encoding="iso-8859-1"?><!-- Generator: Adobe Illustrator 21.1.0, SVG Export Plug-In . SVG Version: 6.00 Build 0)  --><svg xmlns="http://www.w3.org/2000/svg" xmlns:xlink="http://www.w3.org/1999/xlink" viewBox="0 0 50 50" width="500px" height="500px"><path d="M44,5H6C4.346,5,3,6.346,3,8v3h44V8C47,6.346,45.654,5,44,5z"/><g><g><path d="M25,21c-1.572,0-3.015,0.532-4.182,1.411l2.003,2.003c0.625-0.416,1.37-0.665,2.179-0.665c0.907,0,1.734,0.313,2.405,0.823c-0.073-0.017-0.141-0.044-0.219-0.044c-0.552,0-1,0.448-1,1c0,0.552,0.448,1,1,1c0.552,0,1-0.448,1-1c0-0.081-0.028-0.154-0.046-0.229C28.671,25.978,29,26.822,29,27.75c0,0.809-0.249,1.554-0.665,2.179l2.253,2.253C31.468,31.015,32,29.572,32,28C32,24.14,28.859,21,25,21z M3,13.05V45h44V13.05H3z M25,37c-4.963,0-9-4.038-9-9c0-1.404,0.332-2.729,0.908-3.914l1.522,1.522C18.157,26.355,18,27.159,18,28c0,3.86,3.141,7,7,7c0.841,0,1.645-0.157,2.393-0.43l1.522,1.522C27.729,36.668,26.404,37,25,37z M21.048,28.225l3.477,3.477C22.7,31.483,21.267,30.05,21.048,28.225z M35.699,38.707C35.504,38.902,35.248,39,34.992,39s-0.512-0.098-0.707-0.293l-20-20c-0.391-0.391-0.391-1.023,0-1.414s1.023-0.391,1.414,0l3.685,3.685C20.924,19.742,22.876,19,25,19c4.963,0,9,4.038,9,9c0,2.124-0.742,4.076-1.977,5.616l3.677,3.677C36.111,37.661,36.09,38.316,35.699,38.707z"/></g></g></svg>