<?xml version="1.0" encoding="iso-8859-1"?><!-- Generator: Adobe Illustrator 19.1.1, SVG Export Plug-In . SVG Version: 6.00 Build 0)  --><svg xmlns="http://www.w3.org/2000/svg" xmlns:xlink="http://www.w3.org/1999/xlink" viewBox="0 0 50 50" width="500px" height="500px"><g><path d="M17.005,15.005H7c-2.754,0-4.995,2.241-4.995,4.995v5c0,2.754,2.241,4.995,4.995,4.995h10.005V15.005z"/><path d="M17.837,40.925c-0.271-0.427-0.704-2.805-0.812-8.93h-0.02H7c-0.123,0-0.243-0.012-0.364-0.018c1.13,3.08,2.197,8.651,2.97,12.7c0.157,0.822,0.635,3.323,3.84,3.323h3.335C19.441,47.999,20,46.368,20,45C20,43.223,19.001,42.08,17.837,40.925z"/><g><path d="M39.852,1.999c-1.485,0-2.395,1.359-3.655,3.241c-2.371,3.542-6.314,9.383-17.202,9.727v15.061c11.029,0.298,14.808,6.388,17.316,10.462C37.564,42.528,38.47,44,40.074,44C41.378,44,43,44,43,23C43,1.999,41.029,1.999,39.852,1.999z"/><path d="M44.977,19.289C44.992,20.467,45,21.699,45,23c0,1.691-0.011,3.263-0.031,4.734c1.752-0.6,2.984-2.2,2.984-4.149C47.954,21.604,46.707,19.928,44.977,19.289z"/></g></g></svg>