<?xml version="1.0" encoding="iso-8859-1"?>
<!-- Generator: Adobe Illustrator 24.1.1, SVG Export Plug-In . SVG Version: 6.00 Build 0)  -->
<svg version="1.1" id="Layer_1" xmlns="http://www.w3.org/2000/svg" xmlns:xlink="http://www.w3.org/1999/xlink" x="0px" y="0px"
	 viewBox="0 0 50 50" style="enable-background:new 0 0 50 50;" xml:space="preserve">
<path d="M45,22h-1H6H5H4v21c0,1.654,1.346,3,3,3h36c1.654,0,3-1.346,3-3V22H45z M29.517,37.263l-7.255,1.248
	c-6.097,0.994-9.313,0.413-9.541-1.195c-0.158-1.089-0.574-3.988-0.713-4.908c-0.129-0.931,1.207-0.825,1.603-0.264
	c0.247,0.36,1.069,1.46,1.623,2.211c0.327,0.444,0.574,0.762,1.059,0.688c0.188-0.032,2.712-0.455,5.73-0.941l-3.603-4.051
	c-0.554-0.561-0.515-0.846-0.247-0.888l0.901-0.148c0.475-0.074,1.346,0.201,1.95,0.614l5.513,3.713l6.146-1.005
	c3.167-0.518,5.146,1.343,5.315,2.465C38.097,35.517,33.99,36.448,29.517,37.263z"/>
<path style="fill:none;stroke:#000000;stroke-width:2;stroke-linecap:round;stroke-miterlimit:10;" d="M11,21.297
	C11.825,22.327,13.078,23,14.5,23s2.675-0.673,3.5-1.703"/>
<path style="fill:none;stroke:#000000;stroke-width:2;stroke-linecap:round;stroke-miterlimit:10;" d="M39,21.297
	C39.824,22.327,41.078,23,42.5,23c2.485,0,3.5-2.015,3.5-4.5S45,11,45,11H5c0,0-1,5.015-1,7.5S5.015,23,7.5,23
	c1.422,0,2.675-0.673,3.5-1.703"/>
<path style="fill:none;stroke:#000000;stroke-width:2;stroke-linecap:round;stroke-miterlimit:10;" d="M32,21.297
	C32.824,22.327,34.078,23,35.5,23s2.676-0.673,3.5-1.703"/>
<path style="fill:none;stroke:#000000;stroke-width:2;stroke-linecap:round;stroke-miterlimit:10;" d="M25,21.297
	C25.825,22.327,27.078,23,28.5,23s2.676-0.673,3.5-1.703"/>
<path style="fill:none;stroke:#000000;stroke-width:2;stroke-linecap:round;stroke-miterlimit:10;" d="M18,21.297
	C18.825,22.327,20.078,23,21.5,23s2.675-0.673,3.5-1.703"/>
<line style="fill:none;stroke:#000000;stroke-width:2;stroke-linecap:round;stroke-miterlimit:10;" x1="39" y1="21.25" x2="39" y2="11.25"/>
<line style="fill:none;stroke:#000000;stroke-width:2;stroke-linecap:round;stroke-miterlimit:10;" x1="32" y1="21.25" x2="32" y2="11"/>
<line style="fill:none;stroke:#000000;stroke-width:2;stroke-linecap:round;stroke-miterlimit:10;" x1="25" y1="21.25" x2="25" y2="11"/>
<line style="fill:none;stroke:#000000;stroke-width:2;stroke-linecap:round;stroke-miterlimit:10;" x1="18" y1="21.25" x2="18" y2="11"/>
<line style="fill:none;stroke:#000000;stroke-width:2;stroke-miterlimit:10;" x1="11" y1="21.25" x2="11" y2="11"/>
<path d="M43,4H7C5.35,4,4,5.35,4,7v5h42V7C46,5.35,44.65,4,43,4z M8,9C7.45,9,7,8.55,7,8s0.45-1,1-1s1,0.45,1,1S8.55,9,8,9z M11,9
	c-0.55,0-1-0.45-1-1s0.45-1,1-1s1,0.45,1,1S11.55,9,11,9z M14,9c-0.55,0-1-0.45-1-1s0.45-1,1-1s1,0.45,1,1S14.55,9,14,9z"/>
</svg>