<?xml version="1.0" encoding="iso-8859-1"?><!-- Generator: Adobe Illustrator 21.1.0, SVG Export Plug-In . SVG Version: 6.00 Build 0)  --><svg xmlns="http://www.w3.org/2000/svg" xmlns:xlink="http://www.w3.org/1999/xlink" viewBox="0 0 50 50" width="500px" height="500px"><path d="M46.46,13.11l-21-11c-0.29-0.15-0.63-0.15-0.92,0l-21,11C3.21,13.29,3,13.63,3,14v31c0,0.55,0.45,1,1,1h17V35h8v11h17c0.55,0,1-0.45,1-1V14C47,13.63,46.79,13.29,46.46,13.11z M15,40H8v-5h7V40z M15,31H8v-5h7V31z M15,22H8v-5h7V22z M29,31h-8v-5h8V31z M29,22h-8v-5h8V22z M42,40h-7v-5h7V40z M42,31h-7v-5h7V31z M42,22h-7v-5h7V22z"/></svg>