<?xml version="1.0" encoding="utf-8"?><!-- Generator: Adobe Illustrator 19.1.1, SVG Export Plug-In . SVG Version: 6.00 Build 0)  --><svg xmlns="http://www.w3.org/2000/svg" xmlns:xlink="http://www.w3.org/1999/xlink" viewBox="0 0 50 50" width="500px" height="500px"><rect x="4" y="7" fill="none" stroke="#000000" stroke-width="2" stroke-linecap="round" stroke-linejoin="round" stroke-miterlimit="10" width="7" height="40"/><rect x="28" y="23" fill="none" stroke="#000000" stroke-width="2" stroke-linecap="round" stroke-linejoin="round" stroke-miterlimit="10" width="7" height="24"/><path d="M47,46V18c0-0.6-0.4-1-1-1h-7c-0.6,0-1,0.4-1,1v28H23V3c0-0.6-0.4-1-1-1h-7c-0.6,0-1,0.4-1,1v43H3c-0.6,0-1,0.4-1,1s0.4,1,1,1h12h7h17h7h1c0.6,0,1-0.4,1-1S47.6,46,47,46z"/></svg>