<?xml version="1.0" encoding="iso-8859-1"?><!-- Generator: Adobe Illustrator 21.0.1, SVG Export Plug-In . SVG Version: 6.00 Build 0)  --><svg xmlns="http://www.w3.org/2000/svg" xmlns:xlink="http://www.w3.org/1999/xlink" viewBox="0 0 50 50" width="500px" height="500px"><path style="fill:none;stroke:#000000;stroke-width:2;stroke-miterlimit:10;" d="M42,10V7c0-1.105-0.895-2-2-2h-5"/><polygon points="36,2 36,8 33,5 "/><path style="fill:none;stroke:#000000;stroke-width:2;stroke-miterlimit:10;" d="M8,40v3c0,1.105,0.895,2,2,2h5"/><polygon points="14,48 14,42 17,45 "/><path d="M43,14v-2H27v2h-5v34h26V14H43z M29,44h-3v-2h3V44z M29,40h-3v-2h3V40z M29,36h-3v-2h3V36z M29,32h-3v-2h3V32z M29,28h-3v-2h3V28z M29,24h-3v-2h3V24z M29,20h-3v-2h3V20z M34,44h-3v-2h3V44z M34,40h-3v-2h3V40z M34,36h-3v-2h3V36z M34,32h-3v-2h3V32z M34,28h-3v-2h3V28z M34,24h-3v-2h3V24z M34,20h-3v-2h3V20z M39,44h-3v-2h3V44z M39,40h-3v-2h3V40z M39,36h-3v-2h3V36z M39,32h-3v-2h3V32z M39,28h-3v-2h3V28z M39,24h-3v-2h3V24z M39,20h-3v-2h3V20z M44,44h-3v-2h3V44z M44,40h-3v-2h3V40z M44,36h-3v-2h3V36z M44,32h-3v-2h3V32z M44,28h-3v-2h3V28z M44,24h-3v-2h3V24z M44,20h-3v-2h3V20z"/><g><path d="M20,12h5v-2h3V4h-5V2H7v2H2v34h18V12z M21,8h3v2h-3V8z M9,34H6v-2h3V34z M9,30H6v-2h3V30z M9,26H6v-2h3V26z M9,22H6v-2h3V22z M9,18H6v-2h3V18z M9,14H6v-2h3V14z M9,10H6V8h3V10z M14,34h-3v-2h3V34z M14,30h-3v-2h3V30z M14,26h-3v-2h3V26z M14,22h-3v-2h3V22z M14,18h-3v-2h3V18z M14,14h-3v-2h3V14z M14,10h-3V8h3V10z M19,34h-3v-2h3V34z M19,30h-3v-2h3V30z M19,26h-3v-2h3V26z M19,22h-3v-2h3V22z M19,18h-3v-2h3V18z M19,14h-3v-2h3V14z M16,10V8h3v2H16z"/></g></svg>