<?xml version="1.0" encoding="iso-8859-1"?><!-- Generator: Adobe Illustrator 22.0.1, SVG Export Plug-In . SVG Version: 6.00 Build 0)  --><svg xmlns="http://www.w3.org/2000/svg" xmlns:xlink="http://www.w3.org/1999/xlink" viewBox="0 0 50 50" width="500px" height="500px"><path style="fill:none;stroke:#000000;stroke-width:2;stroke-miterlimit:10;" d="M23,25c0,2.833-2.167,5-5,5s-5-2.167-5-5s5-10.25,5-10.25S23,22.167,23,25z"/><path style="fill:none;stroke:#000000;stroke-width:2;stroke-linecap:round;stroke-miterlimit:10;" d="M33,4H3"/><polygon style="fill:none;stroke:#000000;stroke-width:2;stroke-linejoin:round;stroke-miterlimit:10;" points="35.3,28 28.7,28 27,33 27,34 37,34 37,33 "/><polygon style="fill:none;stroke:#000000;stroke-width:2;stroke-linejoin:round;stroke-miterlimit:10;" points="35.3,40 28.7,40 27,45 27,46 37,46 37,45 "/><polygon style="fill:none;stroke:#000000;stroke-width:2;stroke-linejoin:round;stroke-miterlimit:10;" points="40.3,34 33.7,34 32,39 32,40 42,40 42,39 "/><polygon style="fill:none;stroke:#000000;stroke-width:2;stroke-linejoin:round;stroke-miterlimit:10;" points="45.3,40 38.7,40 37,45 37,46 47,46 47,45 "/><polygon style="fill:none;stroke:#000000;stroke-width:2;stroke-linejoin:round;stroke-miterlimit:10;" points="25.3,40 18.7,40 17,45 17,46 27,46 27,45 "/><path d="M15.191,41H3c-0.552,0-1,0.447-1,1s0.448,1,1,1h11.511L15.191,41z"/><polygon style="fill:none;stroke:#000000;stroke-width:2;stroke-linejoin:round;stroke-miterlimit:10;" points="30.3,34 23.7,34 22,39 22,40 32,40 32,39 "/><polygon points="30.3,34 33.7,34 32,39 "/><polygon points="25.3,40 28.7,40 27,45 "/><polygon points="35.3,40 38.7,40 37,45 "/><path style="fill:none;stroke:#000000;stroke-width:2;stroke-miterlimit:10;" d="M5,4v9c-1.5,0.5-2,1.625-2,2.5s0.5,2,2,2.5v10c-1.5,0.5-2,1.625-2,2.5s0.5,2,2,2.5v9"/><path style="fill:none;stroke:#000000;stroke-width:2;stroke-miterlimit:10;" d="M31,4v9c1.5,0.5,2,1.625,2,2.5s-0.5,2-2,2.5v7"/></svg>