<?xml version="1.0" encoding="utf-8"?><!-- Generator: Adobe Illustrator 18.1.1, SVG Export Plug-In . SVG Version: 6.00 Build 0)  --><svg xmlns="http://www.w3.org/2000/svg" xmlns:xlink="http://www.w3.org/1999/xlink" viewBox="0 0 50 50" width="500px" height="500px"><path fill="none" stroke="#000000" stroke-width="2" stroke-linecap="round" stroke-linejoin="round" stroke-miterlimit="10" d="M29.9,32.5c0-0.3,0-0.7-0.1-1.2c4.3-0.4,8.4-1.6,8.4-2.8C35,25.6,41.2,7,27,7l-1-2C10.4,5,15.5,25.5,12,28.6c0,1.6,4,2.2,8.2,2.7c0,0.3,0,0.6-0.1,1.3C18.4,37.2,6.5,35.9,6,45h38C43.5,35.9,31.7,37.2,29.9,32.5z"/><polyline fill="none" stroke="#000000" stroke-width="2" stroke-linecap="round" stroke-linejoin="round" stroke-miterlimit="10" points="30.9,34 25,42 19.2,34 "/><path fill="none" stroke="#000000" stroke-width="2" stroke-linecap="round" stroke-linejoin="round" stroke-miterlimit="10" d="M25,42c2.9,0,7.9-1.8,7.9-1.8s0.1-4.4,0.1-4.9"/><path fill="none" stroke="#000000" stroke-width="2" stroke-linecap="round" stroke-linejoin="round" stroke-miterlimit="10" d="M25,42c-2.9,0-7.9-1.8-7.9-1.8S17,35.8,17,35.3"/></svg>