<?xml version="1.0" encoding="iso-8859-1"?><!-- Generator: Adobe Illustrator 22.1.0, SVG Export Plug-In . SVG Version: 6.00 Build 0)  --><svg xmlns="http://www.w3.org/2000/svg" xmlns:xlink="http://www.w3.org/1999/xlink" viewBox="0 0 50 50" width="500px" height="500px"><path d="M45,46H5c-0.552,0-1-0.447-1-1V34c0-0.553,0.448-1,1-1h40c0.552,0,1,0.447,1,1v11C46,45.553,45.552,46,45,46z M6,44h38v-9H6V44z"/><path d="M6.999,24c-0.478,0-0.894-0.341-0.982-0.817c-0.945-5.096,1.004-9.29,5.213-11.219c4.359-1.999,9.794-0.828,12.644,2.722c0.209,0.261,0.274,0.608,0.174,0.928l-1.68,5.31c-0.118,0.371-0.44,0.641-0.827,0.69c-0.385,0.046-0.767-0.13-0.974-0.46c-1.932-3.071-5.727-3.656-8.434-2.9C9.582,18.967,8.037,20.747,8,23.017c-0.008,0.513-0.404,0.937-0.917,0.979C7.055,23.999,7.027,24,6.999,24z M14.344,15.96c2.327,0,4.822,0.756,6.677,2.584l0.95-3.002c-2.369-2.545-6.528-3.309-9.909-1.761c-2.003,0.919-3.341,2.454-3.934,4.43c0.91-0.848,2.084-1.498,3.465-1.884C12.443,16.09,13.379,15.96,14.344,15.96z"/><g><path d="M9.791,8.661c-0.193,0-0.388-0.056-0.56-0.172C8.774,8.18,8.654,7.56,8.962,7.103c0.05-0.074,1.247-1.829,2.958-2.792c1.71-0.964,3.83-1.08,3.919-1.085c0.538-0.038,1.019,0.396,1.047,0.947c0.029,0.551-0.395,1.021-0.946,1.051c-0.018,0.001-1.747,0.101-3.039,0.829s-2.273,2.156-2.283,2.17C10.426,8.508,10.111,8.661,9.791,8.661z"/></g><g><path d="M21.775,10.025c-0.174,0-0.351-0.046-0.512-0.142c-2.004-1.197-3.555-0.863-3.621-0.848c-0.535,0.116-1.073-0.209-1.2-0.741s0.191-1.067,0.723-1.201c0.095-0.024,2.371-0.57,5.124,1.073c0.474,0.283,0.629,0.897,0.346,1.371C22.447,9.852,22.115,10.025,21.775,10.025z"/></g><g><path d="M41.855,43.165c-2.916,0-7.276-0.382-10.97-2.275c-1.399-0.717-2.574-1.43-3.612-2.06c-3.346-2.031-4.874-2.957-8.091-0.979C15.363,40.2,9.803,43,5,43c-0.552,0-1-0.447-1-1s0.448-1,1-1c3.431,0,7.973-1.678,13.135-4.852c4.26-2.622,6.741-1.113,10.177,0.972c1.008,0.612,2.151,1.306,3.486,1.99c5.5,2.817,13,1.907,13.076,1.897c0.545-0.06,1.048,0.317,1.118,0.866c0.07,0.547-0.317,1.048-0.865,1.118C44.998,43.009,43.723,43.165,41.855,43.165z"/></g><g><path d="M38.883,39.162c-2.778,0-5.901-1.351-7.303-4.646c-0.216-0.508,0.02-1.096,0.528-1.312c0.509-0.218,1.096,0.021,1.312,0.528c1.222,2.873,4.25,3.742,6.545,3.335c1.528-0.271,3.194-1.2,3.286-2.994c0.029-0.552,0.508-0.981,1.05-0.948c0.551,0.028,0.976,0.499,0.947,1.05c-0.125,2.444-2.062,4.353-4.934,4.862C39.856,39.119,39.375,39.162,38.883,39.162z"/></g><g><path d="M30,46c-0.375,0-0.734-0.212-0.905-0.573c-0.915-1.938-2.438-2.801-3.555-3.184c-1.628-0.56-3.479-0.447-4.949,0.296c-0.641,0.325-1.274,0.749-1.945,1.198C17.064,44.798,15.27,46,13,46c-0.552,0-1-0.447-1-1s0.448-1,1-1c1.662,0,3.057-0.935,4.534-1.924c0.691-0.463,1.405-0.941,2.154-1.32c1.969-0.998,4.339-1.147,6.501-0.404c2.094,0.718,3.769,2.217,4.715,4.222c0.236,0.499,0.022,1.096-0.478,1.331C30.289,45.97,30.144,46,30,46z"/></g><path d="M21.875,35.125c-0.004,0-0.009,0-0.013,0L12.502,35c-0.097-0.001-0.194-0.017-0.287-0.046c-3.733-1.172-7.332-7.736-6.201-14.128c0.082-0.463,0.474-0.806,0.943-0.825c0.465-0.04,0.888,0.289,1.008,0.742c1.012,3.813,6.21,10.393,14.155,12.413c0.491,0.124,0.811,0.597,0.745,1.1C22.801,34.754,22.376,35.125,21.875,35.125z M12.688,33.002l3.779,0.051c-3.788-2.072-6.697-5.035-8.509-7.778C8.558,29.125,10.777,32.296,12.688,33.002z"/><path d="M36.35,14.642c-1.13-1.129-3.099-1.129-4.228,0L22.079,24.686l-2.363,1.043c-0.113,0.05-0.216,0.121-0.303,0.208l-4.609,4.61l2.072,0.757l3.819-3.82l2.363-1.043c0.113-0.05,0.216-0.12,0.303-0.208l10.176-10.175c0.373-0.375,1.025-0.373,1.399,0c0.191,0.192,0.296,0.444,0.296,0.715c0,0.27-0.105,0.523-0.294,0.712l-8.477,8.432c-0.14,0.14-0.236,0.319-0.275,0.513l-0.646,3.23l-3.468,3.367l-0.478,0.348l2.049,0.913l3.513-3.412c0.145-0.141,0.244-0.323,0.284-0.521l0.647-3.237l8.263-8.219C37.524,17.725,37.524,15.816,36.35,14.642z"/><g><path d="M32.927,15.156c-0.967-1.501-1.226-2.948-0.531-3.672c0.316-0.331,1.53-0.665,2.565-0.224c0.325,0.138,0.697,0.058,0.982-0.152c0.285-0.211,0.433-0.593,0.396-0.946c-0.173-1.639-0.245-2.317,0.727-3.289l3.112-3.112c0.391-0.391,0.391-1.023,0-1.414s-1.023-0.391-1.414,0l-3.112,3.112c-1.215,1.214-1.447,2.357-1.407,3.606c-1.271-0.094-2.565,0.276-3.292,1.033c-1.463,1.522-1.22,4.016,0.49,6.455L32.927,15.156z"/><path d="M46.538,12.957c-0.391-0.391-1.024-0.391-1.415,0l-0.987,0.986c-0.972,0.973-1.652,0.902-3.362,0.72c-0.358-0.038-0.699,0.114-0.909,0.399c-0.211,0.285-0.256,0.66-0.117,0.986c0.444,1.043,0.053,2.186-0.281,2.506c-0.709,0.679-2.157,0.427-3.633-0.504l-1.384,1.488c1.332,0.915,2.697,1.404,3.904,1.404c0.966,0,1.832-0.307,2.498-0.944c0.696-0.668,1.171-1.914,1.089-3.231c1.236,0.047,2.384-0.183,3.61-1.41l0.987-0.986C46.928,13.98,46.928,13.348,46.538,12.957z"/></g></svg>