<?xml version="1.0" encoding="iso-8859-1"?><!-- Generator: Adobe Illustrator 21.1.0, SVG Export Plug-In . SVG Version: 6.00 Build 0)  --><svg xmlns="http://www.w3.org/2000/svg" xmlns:xlink="http://www.w3.org/1999/xlink" viewBox="0 0 50 50" width="500px" height="500px"><g><g><polygon style="fill:none;stroke:#000000;stroke-width:2;stroke-miterlimit:10;" points="25,7 25,3 9,3 9,7 5,7 5,47 29,47 29,7 "/></g></g><polyline style="fill:none;stroke:#000000;stroke-width:2;stroke-miterlimit:10;" points="29,15 45,15 45,47 29,47 "/><rect x="22" y="10" width="2" height="2"/><rect x="18" y="10" width="2" height="2"/><rect x="14" y="10" width="2" height="2"/><rect x="10" y="10" width="2" height="2"/><rect x="22" y="15" width="2" height="4"/><rect x="18" y="15" width="2" height="4"/><rect x="14" y="15" width="2" height="4"/><rect x="10" y="15" width="2" height="4"/><rect x="22" y="21" width="2" height="4"/><rect x="18" y="21" width="2" height="4"/><rect x="14" y="21" width="2" height="4"/><rect x="10" y="21" width="2" height="4"/><rect x="22" y="27" width="2" height="4"/><rect x="18" y="27" width="2" height="4"/><rect x="14" y="27" width="2" height="4"/><rect x="10" y="27" width="2" height="4"/><rect x="22" y="33" width="2" height="4"/><rect x="18" y="33" width="2" height="4"/><rect x="14" y="33" width="2" height="4"/><rect x="10" y="33" width="2" height="4"/><rect x="22" y="39" width="2" height="5"/><rect x="10" y="39" width="2" height="5"/><rect x="40" y="18" width="2" height="2"/><rect x="36" y="18" width="2" height="2"/><rect x="32" y="18" width="2" height="2"/><rect x="40" y="22" width="2" height="2"/><rect x="36" y="22" width="2" height="2"/><rect x="32" y="22" width="2" height="2"/><rect x="40" y="26" width="2" height="2"/><rect x="36" y="26" width="2" height="2"/><rect x="32" y="26" width="2" height="2"/><rect x="40" y="30" width="2" height="2"/><rect x="36" y="30" width="2" height="2"/><rect x="32" y="30" width="2" height="2"/><rect x="40" y="34" width="2" height="2"/><rect x="36" y="34" width="2" height="2"/><rect x="32" y="34" width="2" height="2"/><rect x="40" y="38" width="2" height="2"/><rect x="36" y="38" width="2" height="2"/><rect x="32" y="38" width="2" height="2"/><rect x="40" y="42" width="2" height="2"/><rect x="36" y="42" width="2" height="2"/><rect x="32" y="42" width="2" height="2"/><rect x="15" y="39" width="4" height="8"/></svg>