<?xml version="1.0" encoding="iso-8859-1"?><!-- Generator: Adobe Illustrator 22.1.0, SVG Export Plug-In . SVG Version: 6.00 Build 0)  --><svg xmlns="http://www.w3.org/2000/svg" xmlns:xlink="http://www.w3.org/1999/xlink" viewBox="0 0 50 50" width="500px" height="500px"><g></g><polygon points="26.428,19.073 35.518,28.168 45.225,18.543 36.088,9.405 26.429,19.072 "/><path d="M25.015,17.657l9.659-9.666l-5.095-5.095C28.354,1.673,26.729,1,25,1s-3.354,0.673-4.577,1.896l-5.082,5.082l0,0L15.34,7.979L25.015,17.657z"/><path d="M23.6,19.072l-9.675-9.679L2.897,20.422C1.675,21.644,1.001,23.27,1.001,25s0.674,3.355,1.896,4.578l5.105,5.106L23.6,19.072z"/><path d="M25.014,20.488L9.417,36.097l0.002,0.002l11.004,11.003c1.224,1.223,2.849,1.896,4.577,1.896s3.354-0.673,4.578-1.896l11.021-11.02l0.001-0.001L25.014,20.488z"/><path d="M46.639,19.957l-9.707,9.625l5.082,5.085l5.089-5.089c1.212-1.211,1.886-2.823,1.896-4.537c0.012-1.745-0.661-3.386-1.896-4.62L46.639,19.957z"/></svg>