<?xml version="1.0" encoding="iso-8859-1"?><!-- Generator: Adobe Illustrator 19.1.1, SVG Export Plug-In . SVG Version: 6.00 Build 0)  --><svg xmlns="http://www.w3.org/2000/svg" xmlns:xlink="http://www.w3.org/1999/xlink" viewBox="0 0 50 50" width="500px" height="500px"><polyline style="fill:none;stroke:#000000;stroke-width:2;stroke-miterlimit:10;" points="41,29 41,9 36,9 36,4 14,4 14,9 9,9 9,44 24,44 "/><line style="fill:none;stroke:#000000;stroke-width:2;stroke-miterlimit:10;" x1="14" y1="14" x2="18" y2="14"/><line style="fill:none;stroke:#000000;stroke-width:2;stroke-miterlimit:10;" x1="14" y1="19" x2="18" y2="19"/><line style="fill:none;stroke:#000000;stroke-width:2;stroke-miterlimit:10;" x1="32" y1="14" x2="36" y2="14"/><line style="fill:none;stroke:#000000;stroke-width:2;stroke-miterlimit:10;" x1="17" y1="9" x2="36" y2="9"/><line style="fill:none;stroke:#000000;stroke-width:2;stroke-miterlimit:10;" x1="14" y1="24" x2="18" y2="24"/><line style="fill:none;stroke:#000000;stroke-width:2;stroke-miterlimit:10;" x1="14" y1="29" x2="18" y2="29"/><line style="fill:none;stroke:#000000;stroke-width:2;stroke-miterlimit:10;" x1="14" y1="34" x2="18" y2="34"/><line style="fill:none;stroke:#000000;stroke-width:2;stroke-miterlimit:10;" x1="14" y1="39" x2="18" y2="39"/><line style="fill:none;stroke:#000000;stroke-width:2;stroke-miterlimit:10;" x1="23" y1="19" x2="27" y2="19"/><line style="fill:none;stroke:#000000;stroke-width:2;stroke-miterlimit:10;" x1="23" y1="24" x2="27" y2="24"/><line style="fill:none;stroke:#000000;stroke-width:2;stroke-miterlimit:10;" x1="32" y1="19" x2="36" y2="19"/><line style="fill:none;stroke:#000000;stroke-width:2;stroke-miterlimit:10;" x1="32" y1="24" x2="36" y2="24"/><line style="fill:none;stroke:#000000;stroke-width:2;stroke-miterlimit:10;" x1="23" y1="14" x2="27" y2="14"/><path d="M36.871,39.622c-0.04-0.437-0.025-0.741-0.025-1.14c0.202-0.104,0.565-0.765,0.628-1.324c0.16-0.012,0.411-0.164,0.485-0.763c0.04-0.322-0.118-0.502-0.213-0.559c0.259-0.761,0.799-3.115-0.998-3.358C36.563,32.16,36.09,32,35.475,32c-2.463,0.044-2.76,1.811-2.221,3.835c-0.095,0.057-0.254,0.237-0.213,0.559c0.075,0.6,0.324,0.751,0.485,0.763c0.061,0.559,0.439,1.22,0.642,1.324c0,0.399,0.015,0.703-0.026,1.14C33.656,40.898,30.153,40.539,30,43h11C40.848,40.539,37.358,40.898,36.871,39.622z"/><path style="fill:none;stroke:#000000;stroke-width:2;stroke-linecap:round;stroke-miterlimit:10;" d="M45,46H26c-1.105,0-2-0.895-2-2V31c0-1.105,0.895-2,2-2h19c1.105,0,2,0.895,2,2v13C47,45.105,46.105,46,45,46z"/></svg>