<?xml version="1.0" encoding="utf-8"?><!-- Generator: Adobe Illustrator 15.0.0, SVG Export Plug-In . SVG Version: 6.00 Build 0)  --><!DOCTYPE svg PUBLIC "-//W3C//DTD SVG 1.1//EN" "http://www.w3.org/Graphics/SVG/1.1/DTD/svg11.dtd"><svg xmlns="http://www.w3.org/2000/svg" xmlns:xlink="http://www.w3.org/1999/xlink" viewBox="0 0 50 50" width="500px" height="500px"><g><path d="M21,30.1c0.7,0,1.2,0.4,1.4,1c0.1,0.101,0.1,0.101,0.2,0.101c0.232-0.14,0.507-0.214,0.785-0.214c0.321,0,0.647,0.1,0.915,0.313c0.5,0.399,0.6,1,0.4,1.601c0,0.101,0.1,0.101,0.1,0.199C25.4,33.2,25.9,33.7,26,34.3c0.1,0.601-0.2,1.2-0.7,1.5c0,0.101,0,0.2,0,0.3c0.3,0.4,0.4,1.101,0.1,1.601c-0.261,0.436-0.75,0.72-1.268,0.72c-0.077,0-0.155-0.007-0.232-0.02c0,0.101-0.1,0.101-0.2,0.199c0,0.601-0.3,1.101-0.9,1.301C22.6,40,22.5,40,22.3,40c-0.4,0-0.8-0.2-1.1-0.5c-0.1,0-0.1,0-0.2,0s-0.1,0-0.2,0c-0.292,0.292-0.693,0.479-1.121,0.479c-0.157,0-0.318-0.024-0.479-0.078c-0.5-0.2-0.9-0.7-0.9-1.301c0-0.1-0.1-0.1-0.2-0.199c-0.078,0.013-0.155,0.02-0.232,0.02c-0.518,0-1.007-0.284-1.268-0.72c-0.3-0.5-0.3-1.101,0.1-1.601c0-0.1,0-0.199,0-0.3c-0.5-0.3-0.8-0.899-0.7-1.5s0.6-1.101,1.2-1.2c0-0.1,0.1-0.1,0.1-0.199c-0.2-0.601-0.1-1.2,0.4-1.601c0.268-0.215,0.593-0.313,0.915-0.313c0.278,0,0.553,0.074,0.785,0.214c0.1-0.101,0.1-0.101,0.2-0.101C19.8,30.5,20.4,30.1,21,30.1 M21,28.1c-0.863,0-1.685,0.332-2.311,0.887c-0.025,0-0.049,0-0.074,0c-0.79,0-1.559,0.268-2.165,0.753c-0.69,0.552-1.108,1.312-1.218,2.149c-0.625,0.522-1.068,1.26-1.205,2.082c-0.135,0.809,0.031,1.627,0.433,2.314c-0.169,0.814-0.031,1.684,0.426,2.443c0.422,0.705,1.081,1.229,1.839,1.494c0.377,0.68,0.983,1.232,1.732,1.532c0.036,0.015,0.073,0.028,0.11,0.041c0.361,0.12,0.735,0.181,1.112,0.181c0.445,0,0.888-0.088,1.303-0.252C21.405,41.904,21.854,42,22.3,42c0.346,0,0.754-0.021,1.268-0.252c0.771-0.293,1.377-0.841,1.743-1.537c0.744-0.271,1.389-0.789,1.805-1.482c0.429-0.713,0.559-1.586,0.403-2.408c0.416-0.693,0.59-1.526,0.453-2.348c-0.137-0.824-0.58-1.562-1.205-2.084c-0.108-0.839-0.527-1.6-1.22-2.15c-0.604-0.484-1.373-0.752-2.163-0.752c-0.015,0-0.03,0-0.045,0C22.72,28.424,21.9,28.1,21,28.1L21,28.1z"/></g><polyline fill="none" stroke="#000000" stroke-width="2" stroke-linejoin="round" stroke-miterlimit="10" points="25,40 25,48 21,45 17,48 17,40 "/><path d="M41,4H9C8.448,4,8,4.448,8,5v40c0,0.553,0.448,1,1,1h8v-2v-4.537c-1.225-1.099-2-2.688-2-4.463c0-3.313,2.687-6,6-6s6,2.688,6,6c0,1.773-0.775,3.364-2,4.463V44v2h16c0.553,0,1-0.447,1-1V5C42,4.448,41.553,4,41,4z M35,24H15v-2h20V24z M35,18H15v-2h20V18z"/></svg>