<?xml version="1.0" encoding="iso-8859-1"?><!-- Generator: Adobe Illustrator 23.0.3, SVG Export Plug-In . SVG Version: 6.00 Build 0)  --><svg xmlns="http://www.w3.org/2000/svg" xmlns:xlink="http://www.w3.org/1999/xlink" viewBox="0 0 50 50" width="500px" height="500px"><line style="fill:none;stroke:#000000;stroke-width:2;stroke-linecap:round;stroke-linejoin:round;stroke-miterlimit:10;" x1="14" y1="44.667" x2="14" y2="34"/><circle style="fill:none;stroke:#000000;stroke-width:2;stroke-linecap:round;stroke-linejoin:round;stroke-miterlimit:10;" cx="14" cy="7" r="4"/><path style="fill:none;stroke:#000000;stroke-width:2;stroke-linecap:round;stroke-linejoin:round;stroke-miterlimit:10;" d="M14,44.5c0,1.381,1.119,2.5,2.5,2.5s2.5-1.119,2.5-2.5V18h12c1.105,0,2-0.895,2-2s-0.895-2-2-2H9.5C7.015,14,5,16.015,5,18.5V31c0,1.105,0.895,2,2,2s2-0.895,2-2"/><path style="fill:none;stroke:#000000;stroke-width:2;stroke-linecap:round;stroke-linejoin:round;stroke-miterlimit:10;" d="M14,44.5c0,1.381-1.119,2.5-2.5,2.5S9,45.881,9,44.5V21"/><line style="fill:none;stroke:#000000;stroke-width:2;stroke-linecap:round;stroke-linejoin:round;stroke-miterlimit:10;" x1="45" y1="25" x2="24" y2="25"/><line style="fill:none;stroke:#000000;stroke-width:2;stroke-linecap:round;stroke-linejoin:round;stroke-miterlimit:10;" x1="45" y1="32" x2="24" y2="32"/><line style="fill:none;stroke:#000000;stroke-width:2;stroke-linecap:round;stroke-linejoin:round;stroke-miterlimit:10;" x1="45" y1="18" x2="37" y2="18"/><line style="fill:none;stroke:#000000;stroke-width:2;stroke-linecap:round;stroke-linejoin:round;stroke-miterlimit:10;" x1="45" y1="39" x2="24" y2="39"/><line style="fill:none;stroke:#000000;stroke-width:2;stroke-linecap:round;stroke-linejoin:round;stroke-miterlimit:10;" x1="45" y1="46" x2="24" y2="46"/></svg>