<?xml version="1.0" encoding="iso-8859-1"?><!-- Generator: Adobe Illustrator 19.2.1, SVG Export Plug-In . SVG Version: 6.00 Build 0)  --><svg xmlns="http://www.w3.org/2000/svg" xmlns:xlink="http://www.w3.org/1999/xlink" viewBox="0 0 50 50" width="500px" height="500px"><polygon style="fill:none;stroke:#000000;stroke-width:2;stroke-linejoin:round;stroke-miterlimit:10;" points="31.5,47 4,19.5 17.75,4.375 46.625,33.25 "/><g><g><g><polyline style="fill:none;stroke:#000000;stroke-width:2;stroke-linejoin:round;" points="32.344,39.555 31.616,40.241 30.909,39.534 "/><line style="fill:none;stroke:#000000;stroke-width:2;stroke-linejoin:round;stroke-dasharray:2.1151,2.1151;" x1="29.413" y1="38.038" x2="12.214" y2="20.839"/><polyline style="fill:none;stroke:#000000;stroke-width:2;stroke-linejoin:round;" points="11.466,20.091 10.759,19.384 11.445,18.656 "/><line style="fill:none;stroke:#000000;stroke-width:2;stroke-linejoin:round;stroke-dasharray:1.74,1.74;" x1="12.637" y1="17.389" x2="16.811" y2="12.955"/><polyline style="fill:none;stroke:#000000;stroke-width:2;stroke-linejoin:round;" points="17.408,12.321 18.093,11.593 18.8,12.3 "/><line style="fill:none;stroke:#000000;stroke-width:2;stroke-linejoin:round;stroke-dasharray:1.8762,1.8762;" x1="20.127" y1="13.627" x2="38.037" y2="31.537"/><polyline style="fill:none;stroke:#000000;stroke-width:2;stroke-linejoin:round;" points="38.7,32.2 39.407,32.907 38.679,33.592 "/><line style="fill:none;stroke:#000000;stroke-width:2;stroke-linejoin:round;stroke-dasharray:1.74,1.74;" x1="37.412" y1="34.785" x2="32.978" y2="38.959"/></g></g></g><polygon style="fill:none;stroke:#000000;stroke-width:2;stroke-linejoin:round;stroke-miterlimit:10;" points="48,29.125 21.875,3 17.75,4.375 46.625,33.25 "/><path style="fill:none;stroke:#000000;stroke-width:2;stroke-linejoin:round;stroke-miterlimit:10;" d="M38.635,19.76c0.93-0.93,4.504-2.088,6.134-3.717c3.108-3.108,2.874-7.715-0.111-10.701s-7.593-3.219-10.701-0.111c-1.628,1.628-2.957,5.371-3.671,6.085"/></svg>