<?xml version="1.0" encoding="iso-8859-1"?><!-- Generator: Adobe Illustrator 19.2.1, SVG Export Plug-In . SVG Version: 6.00 Build 0)  --><svg xmlns="http://www.w3.org/2000/svg" xmlns:xlink="http://www.w3.org/1999/xlink" viewBox="0 0 50 50" width="500px" height="500px"><circle cx="4" cy="25" r="1"/><circle cx="7" cy="25" r="1"/><circle cx="10" cy="25" r="1"/><circle cx="13" cy="25" r="1"/><path d="M16.707,25.707c-0.391,0.391-1.024,0.391-1.414,0c-0.391-0.391-0.391-1.024,0-1.414L16.707,25.707z"/><path d="M22.707,25.707l-1.414-1.414c0.391-0.391,1.024-0.391,1.414,0C23.098,24.683,23.098,25.317,22.707,25.707z"/><circle cx="25" cy="25" r="1"/><circle cx="28" cy="25" r="1"/><circle cx="31" cy="25" r="1"/><circle cx="34" cy="25" r="1"/><circle cx="37" cy="25" r="1"/><circle cx="40" cy="25" r="1"/><circle cx="43" cy="25" r="1"/><circle cx="46" cy="25" r="1"/><polyline style="fill:none;stroke:#000000;stroke-width:2;stroke-linecap:round;stroke-linejoin:round;stroke-miterlimit:10;" points="3,8 35,42 47,42 "/></svg>