<?xml version="1.0" encoding="iso-8859-1"?><!-- Generator: Adobe Illustrator 19.1.1, SVG Export Plug-In . SVG Version: 6.00 Build 0)  --><svg xmlns="http://www.w3.org/2000/svg" xmlns:xlink="http://www.w3.org/1999/xlink" viewBox="-280 372 50 50" width="500px" height="500px"><g><path d="M-235.186,417.547c0.044-0.066,0.098-0.128,0.125-0.202c0.015-0.04,0.009-0.085,0.019-0.127c0.02-0.089,0.046-0.178,0.04-0.272c-0.021-0.381-0.06-0.745-0.115-1.094c-0.429-2.725-1.859-4.509-3.645-5.802c-1.647-1.192-3.596-1.967-5.355-2.661c-0.336-0.133-0.663-0.263-0.981-0.393c-0.019-0.008-0.035-0.015-0.054-0.023c-0.302-0.124-0.596-0.247-0.879-0.372c-0.008,0.696-0.066,5.475-0.069,5.618c-0.008,0.415-0.271,0.782-0.661,0.923C-246.972,413.217-251.96,415-255,415c-0.002,0-0.004,0-0.005,0c0,0,0.001,0,0.002,0h0c-3.04-0.002-8.024-1.783-8.235-1.859c-0.385-0.138-0.646-0.497-0.661-0.905c-0.012-0.336-0.109-4.895-0.123-5.559c-0.567,0.244-1.168,0.48-1.782,0.719c-1.094,0.425-2.261,0.883-3.386,1.448c-2.931,1.471-5.566,3.687-5.808,8.103c-0.015,0.274,0.083,0.543,0.272,0.742c0.189,0.199,0.452,0.312,0.727,0.312h38c0.137,0,0.271-0.028,0.395-0.082c0.124-0.053,0.237-0.131,0.331-0.231c0,0,0,0,0,0c0,0,0,0,0,0C-235.234,417.646-235.217,417.593-235.186,417.547z"/><path d="M-260.853,404.179c-0.006,0.052-0.013,0.106-0.021,0.165c-0.21,0.492-0.626,0.913-1.171,1.292c0.012,0.603,0.03,1.414,0.049,2.294c0.002-0.001,0.003-0.002,0.005-0.003c0.017,0.932,0.054,2.607,0.075,3.553c1.412,0.469,4.814,1.521,6.916,1.521c2.1,0,5.5-1.05,6.913-1.52c0.028-1.594,0.064-3.703,0.091-5.313c0,0-0.008-0.058-0.028-0.143c0.002-0.172,0.004-0.357,0.006-0.516c-0.484-0.358-0.866-0.751-1.082-1.213c0-0.035-0.001-0.072-0.002-0.109c2.606-0.321,8.303-1.296,8.303-3.687c0-0.282-0.119-0.552-0.328-0.741c-0.705-0.639-0.772-3.354-0.833-5.75c-0.155-6.248-0.389-15.626-10.415-15.998l-0.729-1.458c-0.17-0.339-0.516-0.553-0.895-0.553c-11.645,0-12.666,10.639-13.342,17.678c-0.258,2.688-0.525,5.467-1.321,6.172c-0.214,0.19-0.337,0.463-0.337,0.749C-269,402.88-265.671,403.577-260.853,404.179z M-265.351,393.87c0.664-6.921,1.488-15.498,10.738-15.858l0.718,1.436c0.17,0.339,0.516,0.553,0.895,0.553c8.049,0,8.841,6.093,9.04,14.059c0.069,2.795,0.127,5.098,0.933,6.484c-0.856,0.547-3.467,1.408-7.266,1.761c-0.282,0.026-0.54,0.172-0.709,0.399c-0.17,0.228-0.234,0.516-0.179,0.794c0.081,0.402,0.081,0.722,0.081,1.003c0,0.122,0.022,0.243,0.066,0.357c0.165,0.431,0.409,0.803,0.684,1.152l-4.644,6.296l-4.561-6.291c0.243-0.323,0.447-0.675,0.592-1.068c0.024-0.066,0.042-0.135,0.052-0.205c0.11-0.77,0.11-1.127,0.11-1.441c0-0.507-0.379-0.933-0.882-0.993c-4.104-0.488-6.509-1.007-7.161-1.524C-265.879,399.377-265.642,396.9-265.351,393.87z"/></g></svg>