<?xml version="1.0" encoding="iso-8859-1"?><!-- Generator: Adobe Illustrator 23.0.2, SVG Export Plug-In . SVG Version: 6.00 Build 0)  --><svg xmlns="http://www.w3.org/2000/svg" xmlns:xlink="http://www.w3.org/1999/xlink" viewBox="0 0 50 50" width="500px" height="500px"><g><path d="M9,30c-3.859,0-7,3.138-7,6.996c0,4.317,3.991,8.373,6.136,10.551l0.151,0.154C8.475,47.892,8.731,48,9,48s0.525-0.108,0.713-0.299l0.151-0.154C12.009,45.369,16,41.314,16,36.996C16,33.138,12.859,30,9,30z"/><path d="M41,30c-3.859,0-7,3.138-7,6.996c0,4.317,3.991,8.373,6.136,10.551l0.151,0.154C40.475,47.892,40.731,48,41,48s0.525-0.108,0.713-0.299l0.151-0.154C44.009,45.369,48,41.314,48,36.996C48,33.138,44.859,30,41,30z"/></g><path d="M41,9c0-0.216-0.07-0.427-0.2-0.6L38,4.667V3c0-0.552-0.447-1-1-1H13c-0.553,0-1,0.448-1,1v1.667L9.2,8.4C9.07,8.573,9,8.784,9,9c0,1.858,1.279,3.411,3,3.858V25c0,0.552,0.447,1,1,1h24c0.553,0,1-0.448,1-1V12.858C39.721,12.411,41,10.858,41,9z M14,24V12.858c0.79-0.205,1.479-0.643,2-1.24C16.734,12.458,17.799,13,19,13s2.266-0.542,3-1.382C22.734,12.458,23.799,13,25,13s2.266-0.542,3-1.382C28.734,12.458,29.799,13,31,13s2.266-0.542,3-1.382c0.521,0.597,1.21,1.035,2,1.24V24H14z"/><circle cx="30" cy="29" r="1"/><circle cx="32" cy="32" r="1"/><circle cx="20" cy="29" r="1"/><circle cx="18" cy="32" r="1"/></svg>