<?xml version="1.0" encoding="iso-8859-1"?><!-- Generator: Adobe Illustrator 22.0.1, SVG Export Plug-In . SVG Version: 6.00 Build 0)  --><svg xmlns="http://www.w3.org/2000/svg" xmlns:xlink="http://www.w3.org/1999/xlink" viewBox="0 0 50 50" width="500px" height="500px"><line style="fill:none;stroke:#000000;stroke-width:2;stroke-linecap:round;stroke-linejoin:round;stroke-miterlimit:10;" x1="6" y1="45" x2="8" y2="45"/><line style="fill:none;stroke:#000000;stroke-width:2;stroke-linecap:round;stroke-linejoin:round;stroke-miterlimit:10;" x1="13" y1="45" x2="15" y2="45"/><line style="fill:none;stroke:#000000;stroke-width:2;stroke-linecap:round;stroke-linejoin:round;stroke-miterlimit:10;" x1="20" y1="45" x2="22" y2="45"/><line style="fill:none;stroke:#000000;stroke-width:2;stroke-linecap:round;stroke-linejoin:round;stroke-miterlimit:10;" x1="27" y1="45" x2="29" y2="45"/><path style="fill:none;stroke:#000000;stroke-width:2;stroke-linecap:round;stroke-linejoin:round;stroke-miterlimit:10;" d="M34,45h10c2.209,0,4-1.791,4-4V9c0-2.209-1.791-4-4-4H10C7.791,5,6,6.791,6,9v29.875"/><polyline style="fill:none;stroke:#000000;stroke-width:2;stroke-linecap:round;stroke-miterlimit:10;" points="1,34 6,39 11,34 "/><circle cx="24" cy="17" r="1"/><circle cx="26" cy="19" r="1"/><circle cx="22" cy="19" r="1"/><path style="fill:none;stroke:#000000;stroke-width:2;stroke-miterlimit:10;" d="M36,34H18c-0.552,0-1-0.448-1-1v-3h20v3C37,33.552,36.552,34,36,34z"/><path style="fill:none;stroke:#000000;stroke-width:2;stroke-miterlimit:10;" d="M17,26v-5c0-2.761,2.239-5,5-5h10c2.761,0,5,2.239,5,5v5"/><path style="fill:none;stroke:#000000;stroke-width:2;stroke-miterlimit:10;" d="M36,30H18c-1.105,0-2-0.895-2-2l0,0c0-1.105,0.895-2,2-2h18c1.105,0,2,0.895,2,2l0,0C38,29.105,37.105,30,36,30z"/><path style="fill:none;stroke:#000000;stroke-width:2;stroke-linecap:round;stroke-linejoin:round;stroke-miterlimit:10;" d="M16,23c2.375,0,3.5-1,3.5-1s0.875,1,2.5,1s2.5-1,2.5-1s1.125,1,2.5,1s2.5-1,2.5-1s1.125,1,2.5,1s2.5-1,2.5-1s1.125,1,3.5,1"/></svg>