<?xml version="1.0" encoding="iso-8859-1"?><!-- Generator: Adobe Illustrator 23.0.3, SVG Export Plug-In . SVG Version: 6.00 Build 0)  --><svg xmlns="http://www.w3.org/2000/svg" xmlns:xlink="http://www.w3.org/1999/xlink" viewBox="0 0 50 50" width="500px" height="500px"><polyline style="fill:none;stroke:#000000;stroke-width:2;stroke-linecap:round;stroke-miterlimit:10;" points="41,15 30,15 30,4 "/><line style="fill:none;stroke:#000000;stroke-width:2;stroke-linecap:round;stroke-miterlimit:10;" x1="47" y1="33" x2="37" y2="49"/><path style="fill:none;stroke:#000000;stroke-width:2;stroke-linecap:round;stroke-miterlimit:10;" d="M49,45c0-1.105-0.895-2-2-2c-1.105,0-2,0.895-2,2v2c0,0,0,0,0,0c0,1.105,0.895,2,2,2s2-0.895,2-2V45z"/><path style="fill:none;stroke:#000000;stroke-width:2;stroke-linecap:round;stroke-miterlimit:10;" d="M39,35c0-1.105-0.895-2-2-2c-1.105,0-2,0.895-2,2v2c0,0,0,0,0,0c0,1.105,0.895,2,2,2s2-0.895,2-2V35z"/><path d="M34.456,47.41L35.337,46H9V4h20.586L41,15.414v16.617c0.62,0.833,1,1.854,1,2.969v0.34l1-1.6V14.586L30.414,2H7v46h27.176C34.247,47.798,34.338,47.6,34.456,47.41z"/><line style="fill:none;stroke:#000000;stroke-width:2;stroke-linecap:round;stroke-linejoin:round;stroke-miterlimit:10;" x1="36" y1="21" x2="14" y2="21"/><line style="fill:none;stroke:#000000;stroke-width:2;stroke-linecap:round;stroke-linejoin:round;stroke-miterlimit:10;" x1="30" y1="33" x2="14" y2="33"/><line style="fill:none;stroke:#000000;stroke-width:2;stroke-linecap:round;stroke-linejoin:round;stroke-miterlimit:10;" x1="30" y1="39" x2="14" y2="39"/><line style="fill:none;stroke:#000000;stroke-width:2;stroke-linecap:round;stroke-linejoin:round;stroke-miterlimit:10;" x1="36" y1="27" x2="14" y2="27"/></svg>