<?xml version="1.0" encoding="iso-8859-1"?>
<!-- Generator: Adobe Illustrator 24.1.2, SVG Export Plug-In . SVG Version: 6.00 Build 0)  -->
<svg version="1.1" id="Layer_1" xmlns="http://www.w3.org/2000/svg" xmlns:xlink="http://www.w3.org/1999/xlink" x="0px" y="0px"
	 viewBox="0 0 50 50" style="enable-background:new 0 0 50 50;" xml:space="preserve">
<g>
</g>
<g>
	<path d="M47,7H29c-1.7,0-3,1.3-3,3v33.8c0.5-0.2,0.9-0.4,1.2-0.8H47c1.7,0,3-1.3,3-3V10C50,8.3,48.7,7,47,7z M33.292,15.12
		c-0.39-0.39-0.39-1.03,0-1.42c0.39-0.39,1.03-0.39,1.42,0l3.29,3.3l3.29-3.3c0.39-0.39,1.03-0.39,1.42,0
		c0.39,0.39,0.39,1.03,0,1.42l-3.3,3.29l3.3,3.29c0.39,0.39,0.39,1.03,0,1.42c-0.2,0.19-0.45,0.29-0.71,0.29s-0.51-0.1-0.71-0.29
		l-3.29-3.3l-3.29,3.3c-0.2,0.19-0.45,0.29-0.71,0.29s-0.51-0.1-0.71-0.29c-0.39-0.39-0.39-1.03,0-1.42l3.3-3.29L33.292,15.12z
		 M45,36H31c-0.6,0-1-0.4-1-1c0-0.6,0.4-1,1-1h14c0.6,0,1,0.4,1,1C46,35.6,45.6,36,45,36z M45,31H31c-0.6,0-1-0.4-1-1
		c0-0.6,0.4-1,1-1h14c0.6,0,1,0.4,1,1C46,30.6,45.6,31,45,31z M21,7H3c-1.7,0-3,1.3-3,3v30c0,1.7,1.3,3,3,3h19.8
		c0.3,0.4,0.8,0.6,1.2,0.8V10C24,8.3,22.7,7,21,7z M19,36H5c-0.6,0-1-0.4-1-1c0-0.6,0.4-1,1-1h14c0.6,0,1,0.4,1,1
		C20,35.6,19.6,36,19,36z M19,31H5c-0.6,0-1-0.4-1-1c0-0.6,0.4-1,1-1h14c0.6,0,1,0.4,1,1C20,30.6,19.6,31,19,31z M20,15.16l-9,8
		c-0.19,0.17-0.42,0.25-0.66,0.25c-0.26,0-0.51-0.1-0.71-0.29l-4-4c-0.39-0.39-0.39-1.03,0-1.42c0.39-0.39,1.03-0.39,1.42,0
		l3.33,3.34l8.3-7.38c0.41-0.36,1.04-0.33,1.41,0.09C20.45,14.16,20.42,14.79,20,15.16z"/>
</g>
</svg>