<?xml version="1.0" encoding="iso-8859-1"?><!-- Generator: Adobe Illustrator 22.0.1, SVG Export Plug-In . SVG Version: 6.00 Build 0)  --><svg xmlns="http://www.w3.org/2000/svg" xmlns:xlink="http://www.w3.org/1999/xlink" viewBox="0 0 50 50" width="500px" height="500px"><circle cx="25" cy="7" r="1"/><circle cx="25" cy="11" r="1"/><circle cx="25" cy="15" r="1"/><circle cx="25" cy="19" r="1"/><circle cx="25" cy="23" r="1"/><circle cx="25" cy="27" r="1"/><circle cx="25" cy="31" r="1"/><circle cx="25" cy="35" r="1"/><circle cx="25" cy="39" r="1"/><circle cx="25" cy="43" r="1"/><path d="M22,37h-9v-2h9v-3H7v-2h15V8H1C0.448,8,0,8.448,0,9v32c0,0.552,0.448,1,1,1h21V37z M8,18h7v4H8V18z M2,40v-4c2.007,0.409,3.591,1.993,4,4H2z M2,14V9.99L6,10C5.591,12.007,4.007,13.591,2,14z"/><path d="M49,8H28v22h15v2H28v3h9v2h-9v5h21c0.552,0,1-0.448,1-1V9C50,8.448,49.552,8,49,8z M42,22h-7v-4h7V22z M48,40h-4c0.409-2.007,1.993-3.591,4-4V40z M48,14c-2.007-0.409-3.591-1.993-4-4h4V14z"/></svg>