<?xml version="1.0" encoding="utf-8"?><!-- Generator: Adobe Illustrator 15.0.0, SVG Export Plug-In . SVG Version: 6.00 Build 0)  --><!DOCTYPE svg PUBLIC "-//W3C//DTD SVG 1.1//EN" "http://www.w3.org/Graphics/SVG/1.1/DTD/svg11.dtd"><svg xmlns="http://www.w3.org/2000/svg" xmlns:xlink="http://www.w3.org/1999/xlink" viewBox="0 0 50 50" width="500px" height="500px"><path d="M38,26c-6.617,0-12,5.383-12,12s5.383,12,12,12s12-5.383,12-12S44.617,26,38,26z M38.8,44.6V46h-1.5v-1.5c-1.3-0.1-3.5-0.9-3.7-4h1.5c0,1,0.601,2.7,2.9,2.7s2.8-1,2.8-2.2c0-3.6-6.8-1.1-6.8-5.8c0-2.5,2.1-3.5,3.3-3.601V30h1.5v1.8c2.101,0.3,2.8,1.8,3.2,3.4h-1.4c-0.3-1.2-1-2.101-2.5-2.101C36,33.1,35.7,34.5,35.7,35.2c0,1.399,1.399,1.8,2.899,2.2C40.4,37.8,42.4,38.5,42.4,40.9C42.4,43.7,39.8,44.5,38.8,44.6z"/><path d="M10,12c-3.309,0-6-2.691-6-6s2.691-6,6-6s6,2.691,6,6S13.309,12,10,12z"/><path d="M15.5,13h-10C2.467,13,0,15.467,0,18.5V33c0,1.103,0.897,2,2,2s2-0.897,2-2V21c0-0.271,0.229-0.5,0.5-0.5S5,20.729,5,21v26.3C5,48.864,5.835,50,7.4,50c1.482,0,2.6-1.161,2.6-2.7V33.7c0-0.276,0.224-0.5,0.5-0.5s0.5,0.224,0.5,0.5V44h5V21c0-0.271,0.229-0.5,0.5-0.5S17,20.729,17,21v12c0,1.103,0.897,2,2,2s2-0.897,2-2V18.5C21,15.467,18.533,13,15.5,13z"/><path d="M11,47.592c0.004,0.005,0.012,0.01,0.016,0.015C11.153,48.991,12.218,50,13.6,50c1.564,0,2.4-1.136,2.4-2.7V46h-5V47.592z"/><path d="M19.081,41.106c-0.625,1.459-1.104,2.564-3.081,2.83v2.009c3.318-0.341,4.203-2.38,4.919-4.052C21.639,40.214,22.159,39,25,39v-2C20.841,37,19.865,39.276,19.081,41.106z"/></svg>