<?xml version="1.0" encoding="utf-8"?><!-- Generator: Adobe Illustrator 15.0.0, SVG Export Plug-In . SVG Version: 6.00 Build 0)  --><!DOCTYPE svg PUBLIC "-//W3C//DTD SVG 1.1//EN" "http://www.w3.org/Graphics/SVG/1.1/DTD/svg11.dtd"><svg xmlns="http://www.w3.org/2000/svg" xmlns:xlink="http://www.w3.org/1999/xlink" viewBox="0 0 50 50" width="500px" height="500px"><path d="M50,28v-1c0-1.654-1.346-3-3-3H3c-1.654,0-3,1.346-3,3v1H50z"/><path d="M37.6,50H12.4c-0.493,0-0.913-0.359-0.988-0.848l-2.037-12.9c-0.096-0.572,0.058-1.155,0.424-1.587C10.157,34.242,10.69,34,11.263,34h27.556c0.549,0,1.076,0.252,1.448,0.69s0.532,1.012,0.438,1.573l-2.119,12.896C38.509,49.644,38.091,50,37.6,50z"/><path d="M17.305,11.001c-0.124,1.248,0.45,2.796,1.063,3.653c0.213,0.32,0.509,0.551,0.768,0.712c0.19,0.653,0.64,1.858,1.605,3.047c-0.022,0.306-0.266,0.53-0.412,0.638c-2.442,0.456-5.17,1.486-7.037,2.949h23.291c-1.915-1.444-4.648-2.413-6.954-2.874c-0.078-0.019-0.301-0.125-0.339-0.207c-0.008-0.016-0.014-0.108,0.069-0.297c0.877-1.164,1.475-2.409,1.72-3.156c0.533-0.481,1.622-1.659,1.719-3.308c0.024-0.407,0.08-1.354-0.215-2.049c0.383-1.744,0.438-5.033-1.022-7.026c-0.837-1.142-2.062-1.718-3.542-1.644c-0.783-0.956-2.293-1.578-3.974-1.578c-2.275,0-4.279,1.135-5.49,3.104c-1.326,2.101-1.696,4.811-1.003,7.085C17.364,10.408,17.324,10.809,17.305,11.001z"/><path d="M40.706,36.264c0.094-0.562-0.066-1.135-0.438-1.573S39.368,34,38.819,34H11.263c-0.573,0-1.106,0.242-1.464,0.665c-0.366,0.432-0.52,1.015-0.424,1.587L9.493,37h31.092L40.706,36.264z"/><path d="M0.42,30l3.712,6.496C4.31,36.808,4.641,37,5,37h2.468l-0.066-0.418c-0.194-1.158,0.124-2.328,0.87-3.209C9.011,32.5,10.101,32,11.263,32h27.556c1.137,0,2.22,0.509,2.974,1.396c0.754,0.889,1.076,2.054,0.887,3.191L42.612,37H45c0.358,0,0.69-0.192,0.868-0.504L49.58,30H0.42z"/><circle stroke="#000000" stroke-width="2" stroke-linecap="round" stroke-linejoin="round" stroke-miterlimit="10" cx="42" cy="18" r="2"/><path fill="none" stroke="#000000" stroke-width="2" stroke-linecap="round" stroke-linejoin="round" stroke-miterlimit="10" d="M46.2,24.8c0-2.7-0.601-4.1-2.8-5.4"/></svg>