<?xml version="1.0" encoding="utf-8"?><!-- Generator: Adobe Illustrator 18.1.1, SVG Export Plug-In . SVG Version: 6.00 Build 0)  --><svg xmlns="http://www.w3.org/2000/svg" xmlns:xlink="http://www.w3.org/1999/xlink" viewBox="0 0 50 50" width="500px" height="500px"><path fill="none" stroke="#000000" stroke-width="2" stroke-linecap="round" stroke-linejoin="round" stroke-miterlimit="10" d="M47,31c1.4-1.4,1.4-3.6,0-4.9c-1.4-1.4-3.6-1.4-4.9,0l-5,6V7.9C37,6,35.4,5,34,5s-3,1-3,3v15V4c0-1.4-1.1-3-3-3s-3,1.6-3,3c0,0,0,18.5,0,18V6c0-1.4-0.7-3-3-3c-2,0-3,1.2-3,4v17V12c0-1.4-0.2-4-3-4s-3,2.6-3,4v29c0,4.4,3.6,8,8,8h8.1c2.5,0,4.8-1.1,6.3-3.1L47,31z"/><line fill="none" stroke="#000000" stroke-width="2" stroke-linecap="round" stroke-miterlimit="10" x1="20.5" y1="40" x2="30.5" y2="30"/><line fill="none" stroke="#000000" stroke-width="2" stroke-linecap="round" stroke-miterlimit="10" x1="20.5" y1="30" x2="30.5" y2="40"/></svg>