<?xml version="1.0" encoding="utf-8"?><!-- Generator: Adobe Illustrator 15.0.0, SVG Export Plug-In . SVG Version: 6.00 Build 0)  --><!DOCTYPE svg PUBLIC "-//W3C//DTD SVG 1.1//EN" "http://www.w3.org/Graphics/SVG/1.1/DTD/svg11.dtd"><svg xmlns="http://www.w3.org/2000/svg" xmlns:xlink="http://www.w3.org/1999/xlink" viewBox="0 0 50 50" width="500px" height="500px"><path fill="none" stroke="#000000" stroke-width="2" stroke-linecap="round" stroke-miterlimit="10" d="M29,40h5c3.9,0,7-3.1,7-7v-2"/><path d="M27,43h-2c-1.654,0-3-1.346-3-3s1.346-3,3-3h2c1.654,0,3,1.346,3,3S28.654,43,27,43z"/><path d="M42,32h-2c-0.553,0-1-0.447-1-1v-8c0-0.552,0.447-1,1-1h2c1.654,0,3,1.346,3,3v4C45,30.654,43.654,32,42,32z"/><path d="M28.4,4l-2-2H26C13.3,2,8.4,10.2,8,18v6.7c-0.7,0.8-1,1.8-1,3.1c0,2.3,1.5,4.2,3.7,4.7C13.3,39.3,17.6,48,25,48c3.685,0,6.604-2.209,8.918-5.215c1.32-1.479,3.471-5.693,3.858-6.464c0.008-0.008,0.017-0.014,0.023-0.021c0.395-0.854,0.741-1.696,1.077-2.522c-0.708-0.287-1.277-0.837-1.596-1.528c-0.643,1.601-1.285,3.051-1.929,4.364c-0.087,0.133-0.174,0.279-0.259,0.449C33.875,39.5,31.9,42,31.9,42c-2.2,2.7-4.5,4-7,4c-4.8,0-8.9-4.8-12.7-14.8L12,30.6l-0.6-0.1c-1.3,0-2.4-1.2-2.4-2.7c0-0.669,0.112-1.228,0.333-1.635l2.35,0.783c0.304,0.103,0.64,0.051,0.901-0.137C12.846,26.623,13,26.321,13,26v-6.068c2.882-0.246,11.471-1.301,15.883-5.365c2.475,3.1,6.459,4.644,8.117,5.179V23c0-1.302,0.839-2.401,2-2.816c0.002,0,0.003-0.001,0.005-0.001c0.152-0.054,0.308-0.101,0.47-0.129C39.646,20.02,39.82,20,40,20h2v-2C41.6,9.2,36.7,4.2,28.4,4z"/></svg>