<?xml version="1.0" encoding="iso-8859-1"?><!-- Generator: Adobe Illustrator 23.0.3, SVG Export Plug-In . SVG Version: 6.00 Build 0)  --><svg xmlns="http://www.w3.org/2000/svg" xmlns:xlink="http://www.w3.org/1999/xlink" viewBox="0 0 50 50" width="500px" height="500px"><path style="fill:none;stroke:#000000;stroke-width:2;stroke-linecap:round;stroke-linejoin:round;" d="M2,20L25,2l23,18"/><path style="fill:none;stroke:#000000;stroke-width:2;stroke-linecap:round;stroke-linejoin:round;" d="M45,17.668V46H5V17.668"/><path style="fill:none;stroke:#000000;stroke-width:2;" d="M27.444,16.038c-1.039,0-1.946,0.557-2.444,1.388c-0.498-0.831-1.405-1.388-2.444-1.388c-1.575,0-2.852,1.276-2.852,2.852C19.704,21.326,25,25,25,25s5.296-3.693,5.296-6.111C30.296,17.314,29.02,16.038,27.444,16.038z"/><path style="fill:none;stroke:#000000;stroke-width:2;stroke-linecap:round;stroke-linejoin:round;" d="M24.5,34h4c1.105,0,2-0.895,2-2v0c0-1.105-0.895-2-2-2h-8.226c-0.498,0-0.978,0.186-1.346,0.521L12.904,36"/><path style="fill:none;stroke:#000000;stroke-width:2;stroke-linecap:round;stroke-linejoin:round;" d="M30.5,32.672l3.182-3.182c0.781-0.781,2.047-0.781,2.828,0l0,0c0.781,0.781,0.781,2.047,0,2.828l-5.457,5.142c-0.371,0.35-0.862,0.545-1.372,0.544L21.376,38c-0.509,0-1,0.194-1.371,0.543l-3.589,3.374"/></svg>