<?xml version="1.0" encoding="iso-8859-1"?><!-- Generator: Adobe Illustrator 21.0.1, SVG Export Plug-In . SVG Version: 6.00 Build 0)  --><svg xmlns="http://www.w3.org/2000/svg" xmlns:xlink="http://www.w3.org/1999/xlink" viewBox="0 0 50 50" width="500px" height="500px"><g><g><polygon style="fill:none;stroke:#000000;stroke-width:2;stroke-miterlimit:10;" points="39,23 39,21 30,21 30,23 25,23 25,47 44,47 44,23 "/></g></g><line style="fill:none;stroke:#000000;stroke-width:2;stroke-linejoin:round;stroke-miterlimit:10;" x1="38" y1="27" x2="41" y2="27"/><line style="fill:none;stroke:#000000;stroke-width:2;stroke-linejoin:round;stroke-miterlimit:10;" x1="33" y1="27" x2="36" y2="27"/><line style="fill:none;stroke:#000000;stroke-width:2;stroke-linejoin:round;stroke-miterlimit:10;" x1="28" y1="27" x2="31" y2="27"/><line style="fill:none;stroke:#000000;stroke-width:2;stroke-linejoin:round;stroke-miterlimit:10;" x1="38" y1="31" x2="41" y2="31"/><line style="fill:none;stroke:#000000;stroke-width:2;stroke-linejoin:round;stroke-miterlimit:10;" x1="33" y1="31" x2="36" y2="31"/><line style="fill:none;stroke:#000000;stroke-width:2;stroke-linejoin:round;stroke-miterlimit:10;" x1="28" y1="31" x2="31" y2="31"/><line style="fill:none;stroke:#000000;stroke-width:2;stroke-linejoin:round;stroke-miterlimit:10;" x1="38" y1="35" x2="41" y2="35"/><line style="fill:none;stroke:#000000;stroke-width:2;stroke-linejoin:round;stroke-miterlimit:10;" x1="33" y1="35" x2="36" y2="35"/><line style="fill:none;stroke:#000000;stroke-width:2;stroke-linejoin:round;stroke-miterlimit:10;" x1="28" y1="35" x2="31" y2="35"/><line style="fill:none;stroke:#000000;stroke-width:2;stroke-linejoin:round;stroke-miterlimit:10;" x1="38" y1="39" x2="41" y2="39"/><line style="fill:none;stroke:#000000;stroke-width:2;stroke-linejoin:round;stroke-miterlimit:10;" x1="33" y1="39" x2="36" y2="39"/><line style="fill:none;stroke:#000000;stroke-width:2;stroke-linejoin:round;stroke-miterlimit:10;" x1="28" y1="39" x2="31" y2="39"/><line style="fill:none;stroke:#000000;stroke-width:2;stroke-linejoin:round;stroke-miterlimit:10;" x1="38" y1="43" x2="41" y2="43"/><line style="fill:none;stroke:#000000;stroke-width:2;stroke-linejoin:round;stroke-miterlimit:10;" x1="33" y1="43" x2="36" y2="43"/><line style="fill:none;stroke:#000000;stroke-width:2;stroke-linejoin:round;stroke-miterlimit:10;" x1="28" y1="43" x2="31" y2="43"/><g><path d="M26,24h5V4h-5V2H10v2H5v34h21V24z M24,8h3v2h-3V8z M24,12h3v2h-3V12z M24,16h3v2h-3V16z M24,20h3v2h-3V20z M12,34H9v-2h3V34z M12,30H9v-2h3V30z M12,26H9v-2h3V26z M12,22H9v-2h3V22z M12,18H9v-2h3V18z M12,14H9v-2h3V14z M12,10H9V8h3V10z M17,34h-3v-2h3V34z M17,30h-3v-2h3V30z M17,26h-3v-2h3V26z M17,22h-3v-2h3V22z M17,18h-3v-2h3V18z M17,14h-3v-2h3V14z M17,10h-3V8h3V10z M22,34h-3v-2h3V34z M22,30h-3v-2h3V30z M22,26h-3v-2h3V26z M22,22h-3v-2h3V22z M22,18h-3v-2h3V18z M22,14h-3v-2h3V14z M19,10V8h3v2H19z"/></g></svg>