<?xml version="1.0" encoding="utf-8"?><!-- Generator: Adobe Illustrator 15.0.0, SVG Export Plug-In . SVG Version: 6.00 Build 0)  --><!DOCTYPE svg PUBLIC "-//W3C//DTD SVG 1.1//EN" "http://www.w3.org/Graphics/SVG/1.1/DTD/svg11.dtd"><svg xmlns="http://www.w3.org/2000/svg" xmlns:xlink="http://www.w3.org/1999/xlink" viewBox="0 0 50 50" width="500px" height="500px"><path fill="none" stroke="#000000" stroke-width="2" stroke-linecap="round" stroke-linejoin="round" stroke-miterlimit="10" d="M6.826,21.096c0,0-3.826-0.876-3.826-4.327c0-1.415,0.714-2.717,1.963-3.256"/><polyline fill="none" stroke="#000000" stroke-width="2" stroke-linecap="round" stroke-linejoin="round" stroke-miterlimit="10" points="27,23 27,22 23,22 23,23 "/><path d="M47.229,21.799c-0.496-0.497-1.155-0.771-1.854-0.771h-1.627c-0.173,0-0.285-0.024-0.346-0.046c-0.28-1.609-1.533-6.245-6.771-8.407c0.058-1.937,0.536-3.536,1.549-6.269c0.129-0.348,0.055-0.739-0.193-1.015C37.74,5.017,37.356,4.9,36.999,4.99c-3.404,0.854-5.811,2.664-7.332,5.52c-1.754-0.37-3.576-0.557-5.43-0.557c-5.267,0-9.698,1.457-13.548,4.453c-3.466,2.699-5.253,7.096-5.032,12.38c0.194,4.629,3.517,7.957,5.557,9.588c0.28,0.216,0.285,0.22,0.2,0.483c-0.307,0.943-0.869,2.292-0.887,2.335c-0.258,0.679-0.236,1.417,0.062,2.081s0.836,1.172,1.516,1.43l3.214,1.214c1.365,0.518,2.994-0.219,3.508-1.572c0,0,0.429-1.119,0.778-2.05c0.035-0.094,0.065-0.163,0.088-0.214c0.141,0.021,0.338,0.062,0.544,0.105c0.809,0.169,2.03,0.425,3.998,0.425c1.771,0,2.972-0.128,3.766-0.213c0.372-0.04,0.655-0.073,0.877-0.073h0.001c0.013,0.032,0.028,0.073,0.046,0.125c0.322,0.96,0.714,1.887,0.716,1.889c0.396,1.051,1.417,1.756,2.543,1.756c0.331,0,0.656-0.06,0.965-0.177l3.214-1.215c0.681-0.258,1.221-0.766,1.52-1.431c0.298-0.663,0.319-1.402,0.062-2.077l-0.516-1.365c-0.02-0.052-0.035-0.073-0.063-0.122c0.001,0,0.038-0.065,0.205-0.155c2.363-1.286,4.248-3.293,5.454-5.808c0.222-0.467,0.321-0.585,0.723-0.585h1.627c1.447,0,2.625-1.177,2.625-2.624v-4.878C48,22.957,47.727,22.297,47.229,21.799z M28,33c0,1.105-0.895,2-2,2c0,0.553-0.447,1-1,1c-0.552,0-1-0.447-1-1c-1.105,0-2-0.895-2-2v-1h6V33z M28.072,30h-6.145C21.487,26.732,19,25.438,19,22c0-3.314,2.686-6,6-6c3.314,0,6,2.686,6,6C31,25.365,28.512,26.72,28.072,30z"/></svg>