<?xml version="1.0" encoding="iso-8859-1"?><!-- Generator: Adobe Illustrator 21.0.0, SVG Export Plug-In . SVG Version: 6.00 Build 0)  --><svg xmlns="http://www.w3.org/2000/svg" xmlns:xlink="http://www.w3.org/1999/xlink" viewBox="0 0 50 50" width="500px" height="500px"><g id="Layer_1"></g><g id="Layer_2"><line style="fill:none;stroke:#000000;stroke-width:2;stroke-linecap:round;stroke-linejoin:round;stroke-miterlimit:10;" x1="12" y1="44.667" x2="12" y2="34"/><circle style="fill:none;stroke:#000000;stroke-width:2;stroke-linecap:round;stroke-linejoin:round;stroke-miterlimit:10;" cx="12" cy="7" r="4"/><path style="fill:none;stroke:#000000;stroke-width:2;stroke-linecap:round;stroke-linejoin:round;stroke-miterlimit:10;" d="M29,14H15l-3,6l-3-6H8.4H7.5C5.015,14,3,16.015,3,18.5V31"/><path style="fill:none;stroke:#000000;stroke-width:2;stroke-linecap:round;stroke-linejoin:round;stroke-miterlimit:10;" d="M29,14c1.105,0,2,0.895,2,2s-0.895,2-2,2H17v26.5c0,1.381-1.119,2.5-2.5,2.5S12,45.881,12,44.5"/><path style="fill:none;stroke:#000000;stroke-width:2;stroke-linecap:round;stroke-linejoin:round;stroke-miterlimit:10;" d="M3,31c0,1.105,0.895,2,2,2s2-0.895,2-2"/><path style="fill:none;stroke:#000000;stroke-width:2;stroke-linecap:round;stroke-linejoin:round;stroke-miterlimit:10;" d="M12,44.5c0,1.381-1.119,2.5-2.5,2.5S7,45.881,7,44.5V20.125"/><polyline style="fill:none;stroke:#000000;stroke-width:2;stroke-linecap:square;stroke-linejoin:round;stroke-miterlimit:10;" points="24,10 24,5 45,5 45,40.094 47,45 22,45 24,39.969 24,22 "/><line style="fill:none;stroke:#000000;stroke-width:2;stroke-linecap:round;stroke-linejoin:round;stroke-miterlimit:10;" x1="24" y1="40" x2="45" y2="40"/><path d="M14,21v4c0,0.552-0.448,1-1,1h-2c-0.552,0-1-0.448-1-1v-4c0-0.552,0.448-1,1-1h2C13.552,20,14,20.448,14,21z"/><polyline style="fill:none;stroke:#000000;stroke-width:2;stroke-linejoin:round;stroke-miterlimit:10;" points="28,11 28,9 41,9 41,29 28,29 28,21 "/></g></svg>