<?xml version="1.0" encoding="iso-8859-1"?><!-- Generator: Adobe Illustrator 23.0.3, SVG Export Plug-In . SVG Version: 6.00 Build 0)  --><svg xmlns="http://www.w3.org/2000/svg" xmlns:xlink="http://www.w3.org/1999/xlink" viewBox="0 0 50 50" width="500px" height="500px"><line style="fill:none;stroke:#000000;stroke-width:4;stroke-miterlimit:10;" x1="31.229" y1="32.229" x2="44.5" y2="45.5"/><polyline style="fill:none;stroke:#000000;stroke-width:2;stroke-miterlimit:10;" points="4,20 9,20 15,14 27,26 33,20 47,20 "/><path d="M34.698,23C33.304,29.838,27.244,35,20,35c-8.271,0-15-6.729-15-15S11.729,5,20,5c7.244,0,13.304,5.162,14.698,12h2.021C35.296,9.054,28.349,3,20,3C10.626,3,3,10.626,3,20s7.626,17,17,17c8.349,0,15.296-6.054,16.719-14H34.698z"/></svg>