<?xml version="1.0" encoding="utf-8"?><!-- Generator: Adobe Illustrator 15.0.0, SVG Export Plug-In . SVG Version: 6.00 Build 0)  --><!DOCTYPE svg PUBLIC "-//W3C//DTD SVG 1.1//EN" "http://www.w3.org/Graphics/SVG/1.1/DTD/svg11.dtd"><svg xmlns="http://www.w3.org/2000/svg" xmlns:xlink="http://www.w3.org/1999/xlink" viewBox="0 0 50 50" width="500px" height="500px"><ellipse cx="8" cy="21" rx="8" ry="3"/><path d="M8,25c-3.2,0-6.4-0.7-8-2.1c0,1.2,0,2.6,0,3.1c0,1.7,3.6,3,8,3s8-1.3,8-3c0-0.5,0-1.9,0-3.1C14.4,24.3,11.2,25,8,25z"/><path d="M8,30c-3.2,0-6.4-0.7-8-2.1C0,29.1,0,30.5,0,31c0,1.7,3.6,3,8,3s8-1.3,8-3c0-0.5,0-1.9,0-3.1C14.4,29.3,11.2,30,8,30z"/><path d="M8,35c-3.2,0-6.4-0.7-8-2.1C0,34.1,0,35.5,0,36c0,1.7,3.6,3,8,3s8-1.3,8-3c0-0.5,0-1.9,0-3.1C14.4,34.3,11.2,35,8,35z"/><path d="M8,40c-3.2,0-6.4-0.7-8-2.1C0,39.1,0,40.5,0,41c0,1.7,3.6,3,8,3s8-1.3,8-3c0-0.5,0-1.9,0-3.1C14.4,39.3,11.2,40,8,40z"/><path d="M8,45c-3.2,0-6.4-0.7-8-2.1C0,44.1,0,45.5,0,46c0,1.7,3.6,3,8,3s8-1.3,8-3c0-0.5,0-1.9,0-3.1C14.4,44.3,11.2,45,8,45z"/><ellipse cx="42" cy="6" rx="8" ry="3"/><path d="M42,10c-3.199,0-6.399-0.7-8-2.1c0,1.2,0,2.6,0,3.1c0,1.7,3.601,3,8,3c4.4,0,8-1.3,8-3c0-0.5,0-1.9,0-3.1C48.4,9.3,45.201,10,42,10z"/><path d="M42,15c-3.199,0-6.399-0.7-8-2.1c0,1.199,0,2.6,0,3.1c0,1.7,3.601,3,8,3c4.4,0,8-1.3,8-3c0-0.5,0-1.9,0-3.1C48.4,14.3,45.201,15,42,15z"/><path d="M42,20c-3.199,0-6.399-0.7-8-2.1c0,1.199,0,2.6,0,3.1c0,1.7,3.601,3,8,3c4.4,0,8-1.3,8-3c0-0.5,0-1.9,0-3.1C48.4,19.3,45.201,20,42,20z"/><path d="M42,25c-3.199,0-6.399-0.7-8-2.1c0,1.199,0,2.6,0,3.1c0,1.7,3.601,3,8,3c4.4,0,8-1.3,8-3c0-0.5,0-1.9,0-3.1C48.4,24.3,45.201,25,42,25z"/><path d="M42,30c-3.199,0-6.399-0.7-8-2.1c0,1.199,0,2.6,0,3.1c0,1.7,3.601,3,8,3c4.4,0,8-1.3,8-3c0-0.5,0-1.9,0-3.1C48.4,29.3,45.201,30,42,30z"/><path d="M42,35c-3.199,0-6.399-0.7-8-2.1c0,1.199,0,2.6,0,3.1c0,1.7,3.601,3,8,3c4.4,0,8-1.3,8-3c0-0.5,0-1.9,0-3.1C48.4,34.3,45.201,35,42,35z"/><path d="M42,40c-3.199,0-6.399-0.7-8-2.1c0,1.199,0,2.6,0,3.1c0,1.7,3.601,3,8,3c4.4,0,8-1.3,8-3c0-0.5,0-1.9,0-3.1C48.4,39.3,45.201,40,42,40z"/><path d="M42,45c-3.199,0-6.399-0.7-8-2.1c0,1.199,0,2.6,0,3.1c0,1.7,3.601,3,8,3c4.4,0,8-1.3,8-3c0-0.5,0-1.9,0-3.1C48.4,44.3,45.201,45,42,45z"/><ellipse cx="25" cy="31" rx="8" ry="3"/><path d="M25,35c-3.2,0-6.4-0.7-8-2.1c0,1.199,0,2.6,0,3.1c0,1.7,3.6,3,8,3c4.4,0,8-1.3,8-3c0-0.5,0-1.9,0-3.1C31.4,34.3,28.2,35,25,35z"/><path d="M25,40c-3.2,0-6.4-0.7-8-2.1c0,1.199,0,2.6,0,3.1c0,1.7,3.6,3,8,3c4.4,0,8-1.3,8-3c0-0.5,0-1.9,0-3.1C31.4,39.3,28.2,40,25,40z"/><path d="M25,45c-3.2,0-6.4-0.7-8-2.1c0,1.199,0,2.6,0,3.1c0,1.7,3.6,3,8,3c4.4,0,8-1.3,8-3c0-0.5,0-1.9,0-3.1C31.4,44.3,28.2,45,25,45z"/></svg>