<?xml version="1.0" encoding="iso-8859-1"?><!-- Generator: Adobe Illustrator 21.0.0, SVG Export Plug-In . SVG Version: 6.00 Build 0)  --><svg xmlns="http://www.w3.org/2000/svg" xmlns:xlink="http://www.w3.org/1999/xlink" viewBox="0 0 50 50" width="500px" height="500px"><line style="fill:none;stroke:#000000;stroke-width:2;stroke-miterlimit:10;" x1="42" y1="19" x2="29" y2="19"/><line style="fill:none;stroke:#000000;stroke-width:2;stroke-miterlimit:10;" x1="42" y1="25" x2="29" y2="25"/><path d="M50,35.601l-3.355-1.773l-0.656-3.727l-3.76,0.53L39.5,28l-2.729,2.63l-3.76-0.53l-0.656,3.727L29,35.6l1.668,3.4L29,42.399l3.355,1.773l0.656,3.727l3.76-0.53L39.5,50l2.729-2.63l3.76,0.53l0.656-3.727L50,42.4L48.332,39L50,35.601z M45.703,42.408l-0.867,0.458l-0.17,0.963l-0.32,1.821l-1.837-0.259l-0.971-0.137l-0.706,0.68l-1.334,1.285l-1.334-1.286l-0.706-0.68l-0.971,0.137l-1.837,0.259l-0.32-1.821l-0.17-0.963l-0.867-0.458l-1.639-0.867l0.815-1.661L32.902,39l-0.431-0.879l-0.815-1.662l1.64-0.867l0.867-0.458l0.17-0.963l0.32-1.821l1.837,0.259l0.971,0.137l0.706-0.68l1.332-1.283l1.334,1.286l0.706,0.68l0.971-0.137l1.837-0.259l0.32,1.821l0.17,0.963l0.867,0.458l1.639,0.866l-0.815,1.661L46.098,39l0.431,0.879l0.815,1.662L45.703,42.408z"/><path d="M45,7H5c-1.654,0-3,1.346-3,3v30c0,1.654,1.346,3,3,3h6c0.552,0,1-0.448,1-1v-1.5c0-0.297-0.132-0.578-0.36-0.768c-0.29-0.242-0.754-0.758-0.614-1.505c0.123-0.656,0.71-1.182,1.366-1.223c0.439-0.032,0.841,0.113,1.143,0.396c0.3,0.282,0.465,0.672,0.465,1.1c0,0.607-0.401,1.033-0.64,1.232C13.132,39.922,13,40.203,13,40.5V42c0,0.552,0.448,1,1,1h12.477l0.982-2H15v-0.069c0.648-0.683,1-1.531,1-2.431c0-0.986-0.389-1.895-1.096-2.558c-0.709-0.666-1.642-0.993-2.638-0.935c-1.566,0.1-2.914,1.298-3.206,2.851C8.849,38.982,9.19,40.08,10,40.932V41H5c-0.551,0-1-0.449-1-1V10c0-0.551,0.449-1,1-1h40c0.551,0,1,0.449,1,1v18.08l2-0.282V10C48,8.346,46.654,7,45,7z"/><path style="fill:none;stroke:#000000;stroke-width:2;stroke-miterlimit:10;" d="M8,31c0.222-3.803,5.317-3.249,6.026-5.222C14.085,25.103,14,24.616,14,24c-0.295-0.16-0.783-1.166-0.871-2.03c-0.234-0.019-0.596-0.253-0.705-1.179c-0.059-0.497,0.172-0.776,0.31-0.864c-0.784-3.128-0.353-5.859,3.23-5.927c0.894,0,1.582,0.248,1.851,0.737c2.613,0.376,1.828,4.014,1.452,5.19c0.139,0.088,0.368,0.367,0.31,0.864c-0.108,0.926-0.473,1.16-0.705,1.179C18.781,22.835,18.294,23.84,18,24c0,0.616-0.064,1.104-0.005,1.779C18.703,27.751,23.779,27.197,24,31H8z"/></svg>