<?xml version="1.0" encoding="iso-8859-1"?><!-- Generator: Adobe Illustrator 21.0.0, SVG Export Plug-In . SVG Version: 6.00 Build 0)  --><svg xmlns="http://www.w3.org/2000/svg" xmlns:xlink="http://www.w3.org/1999/xlink" viewBox="0 0 50 50" width="500px" height="500px"><polyline style="fill:none;stroke:#000000;stroke-width:2;stroke-miterlimit:10;" points="36,14 36,4 26,4 "/><polyline style="fill:none;stroke:#000000;stroke-width:2;stroke-miterlimit:10;" points="13,17 21,9 26,14 36,4 "/><rect x="4" y="22" style="fill:none;stroke:#000000;stroke-width:2;stroke-linecap:round;stroke-linejoin:round;stroke-miterlimit:10;" width="42" height="24"/><line style="fill:none;stroke:#000000;stroke-width:2;stroke-linecap:round;stroke-linejoin:round;stroke-miterlimit:10;" x1="39" y1="22" x2="39" y2="46"/><line style="fill:none;stroke:#000000;stroke-width:2;stroke-linecap:round;stroke-linejoin:round;stroke-miterlimit:10;" x1="11" y1="22" x2="11" y2="46"/><path style="fill:none;stroke:#000000;stroke-width:2;stroke-linecap:round;stroke-linejoin:round;stroke-miterlimit:10;" d="M31,39c1.657,0,3-1.343,3-3s-1.343-3-3-3c-0.36,0-1,0-1,0c0-2.761-2.239-5-5-5s-5,2.239-5,5c0,0-0.64,0-1,0c-1.657,0-3,1.343-3,3s1.343,3,3,3"/></svg>