<?xml version="1.0" encoding="iso-8859-1"?><!-- Generator: Adobe Illustrator 19.1.1, SVG Export Plug-In . SVG Version: 6.00 Build 0)  --><svg xmlns="http://www.w3.org/2000/svg" xmlns:xlink="http://www.w3.org/1999/xlink" viewBox="0 0 50 50" width="500px" height="500px"><path d="M25,2C12.318,2,2,12.318,2,25c0,12.683,10.318,23,23,23c12.683,0,23-10.317,23-23C48,12.318,37.683,2,25,2z M17.127,30.481c1.958,0,3.445-1.056,3.855-2.728h2.287c-0.41,2.922-2.84,4.871-6.142,4.871c-4.111,0.001-6.674-2.963-6.674-7.751c0-4.799,2.553-7.763,6.665-7.763c3.261,0,5.783,2.112,6.152,5.127h-2.287c-0.431-1.815-1.917-2.983-3.866-2.983c-2.656,0-4.317,2.163-4.317,5.619C12.8,28.318,14.461,30.481,17.127,30.481z M33.404,30.481c1.958,0,3.445-1.056,3.855-2.728h2.287c-0.41,2.922-2.84,4.871-6.142,4.871c-4.111,0.001-6.674-2.963-6.674-7.751c0-4.799,2.553-7.763,6.665-7.763c3.261,0,5.783,2.112,6.152,5.127H37.26c-0.431-1.815-1.917-2.983-3.866-2.983c-2.656,0-4.317,2.163-4.317,5.619C29.077,28.318,30.738,30.481,33.404,30.481z"/></svg>