<?xml version="1.0" encoding="iso-8859-1"?><!-- Generator: Adobe Illustrator 23.0.3, SVG Export Plug-In . SVG Version: 6.00 Build 0)  --><svg xmlns="http://www.w3.org/2000/svg" xmlns:xlink="http://www.w3.org/1999/xlink" viewBox="0 0 50 50" width="500px" height="500px"><path style="fill:none;stroke:#000000;stroke-width:2;stroke-linecap:round;stroke-linejoin:round;stroke-miterlimit:10;" d="M15.5,39v-2.25c0.415-0.213,1.249-1.605,1.375-2.75c0.5,0,1.125-0.25,1.125-1.5c0-1-0.5-1.25-0.5-1.25s0.5-1.625,0.5-2.5C18,27,17.049,25,14.625,25l-0.594-1C10.033,24,8,26,8,28.75c0,0.875,0.5,2.5,0.5,2.5S8,31.5,8,32.5C8,33.75,8.625,34,9.125,34c0.125,1.145,0.959,2.537,1.375,2.75V39c-0.996,2.616-7.19,1.956-7.5,7h21C23.69,40.956,16.497,41.615,15.5,39z"/><path style="fill:none;stroke:#000000;stroke-width:2;stroke-linecap:round;stroke-linejoin:round;stroke-miterlimit:10;" d="M38.5,39v-2.25c0.415-0.213,1.249-1.605,1.375-2.75c0.5,0,1.125-0.25,1.125-1.5c0-1-0.5-1.25-0.5-1.25s0.5-1.625,0.5-2.5C41,27,40.049,25,37.625,25l-0.594-1C33.033,24,31,26,31,28.75c0,0.875,0.5,2.5,0.5,2.5S31,31.5,31,32.5c0,1.25,0.625,1.5,1.125,1.5c0.125,1.145,0.959,2.537,1.375,2.75V39c-0.996,2.616-7.19,1.956-7.5,7h21C46.69,40.956,39.497,41.615,38.5,39z"/><rect x="23" y="46" width="4" height="1"/><path style="fill:none;stroke:#000000;stroke-width:2;stroke-linejoin:round;stroke-miterlimit:10;" d="M33,4H17.091C15.941,4,15,4.945,15,6.1V16c0,1.155,0.85,2,2,2h6l2,4l2-4h6.091c1.15,0,2-0.845,2-2V6.1C35.091,4.945,34.15,4,33,4z"/></svg>