<?xml version="1.0" encoding="iso-8859-1"?><!-- Generator: Adobe Illustrator 23.0.3, SVG Export Plug-In . SVG Version: 6.00 Build 0)  --><svg xmlns="http://www.w3.org/2000/svg" xmlns:xlink="http://www.w3.org/1999/xlink" viewBox="0 0 50 50" width="500px" height="500px"><line style="fill:none;stroke:#000000;stroke-width:4;stroke-miterlimit:10;" x1="31.229" y1="32.229" x2="44.5" y2="45.5"/><g><path d="M27,27.414l-12-12L9.414,21H5.051C5.029,20.668,5,20.338,5,20s0.029-0.668,0.051-1h3.535L15,12.586l12,12L32.586,19h4.364C36.429,10.079,29.051,3,20,3C10.611,3,3,10.611,3,20s7.611,17,17,17c9.051,0,16.429-7.079,16.95-16h-3.535L27,27.414z"/><path d="M47,19H36.95c0.019,0.333,0.05,0.662,0.05,1s-0.031,0.667-0.05,1H47V19z"/></g></svg>