<?xml version="1.0" encoding="iso-8859-1"?><!-- Generator: Adobe Illustrator 19.1.1, SVG Export Plug-In . SVG Version: 6.00 Build 0)  --><svg xmlns="http://www.w3.org/2000/svg" xmlns:xlink="http://www.w3.org/1999/xlink" viewBox="0 0 50 50" width="500px" height="500px"><g><path d="M32.414,2H7v46h36V12.586L32.414,2z M20,40h-6v-6h6V40z M20,32h-6v-6h6V32z M20,24h-6v-6h6V24z M36,38H22v-2h14V38z M36,30H22v-2h14V30z M36,22H22v-2h14V22z M32,13V4.414L40.586,13H32z"/><rect x="16" y="36" width="2" height="2"/><rect x="16" y="28" width="2" height="2"/><rect x="16" y="20" width="2" height="2"/></g></svg>