<?xml version="1.0" encoding="utf-8"?><!-- Generator: Adobe Illustrator 17.0.0, SVG Export Plug-In . SVG Version: 6.00 Build 0)  --><!DOCTYPE svg PUBLIC "-//W3C//DTD SVG 1.1//EN" "http://www.w3.org/Graphics/SVG/1.1/DTD/svg11.dtd"><svg xmlns="http://www.w3.org/2000/svg" xmlns:xlink="http://www.w3.org/1999/xlink" viewBox="0 0 50 50" width="500px" height="500px"><path fill="none" stroke="#000000" stroke-width="2" stroke-linecap="round" stroke-miterlimit="10" d="M38,21c4.822,0,11-3.53,11-9.5C49,6.802,44.793,2,38,2c-7.941,0-11,5.733-11,9.5C27,17.398,33.178,21,38,21z"/><ellipse fill="none" stroke="#000000" stroke-width="2" stroke-linecap="round" stroke-miterlimit="10" cx="29" cy="32.5" rx="2" ry="1.5"/><ellipse fill="none" stroke="#000000" stroke-width="2" stroke-linecap="round" stroke-miterlimit="10" cx="34" cy="26.5" rx="3" ry="2.5"/><path fill="none" stroke="#000000" stroke-width="2" stroke-linecap="round" stroke-miterlimit="10" d="M21.154,38.558c-0.123-1.349-0.076-2.291-0.076-3.524c0.615-0.321,1.716-2.366,1.902-4.093c0.484-0.039,1.245-0.508,1.469-2.36c0.12-0.994-0.358-1.553-0.649-1.729c0.786-2.352,2.42-9.627-3.021-10.38C20.219,15.495,18.785,15,16.921,15c-7.456,0.136-8.355,5.598-6.721,11.852c-0.29,0.176-0.769,0.735-0.649,1.729c0.224,1.851,0.985,2.32,1.469,2.36c0.185,1.727,1.331,3.771,1.947,4.093c0,1.233,0.046,2.175-0.077,3.524C11.414,42.502,1.46,41.394,1,49h32C32.541,41.394,22.629,42.502,21.154,38.558z"/></svg>