<?xml version="1.0" encoding="utf-8"?><!-- Generator: Adobe Illustrator 18.1.1, SVG Export Plug-In . SVG Version: 6.00 Build 0)  --><svg xmlns="http://www.w3.org/2000/svg" xmlns:xlink="http://www.w3.org/1999/xlink" viewBox="0 0 50 50" width="500px" height="500px"><path fill="none" stroke="#000000" stroke-width="2" stroke-linejoin="round" stroke-miterlimit="10" d="M15,45c7,0,3-7,10-7"/><line fill="none" stroke="#000000" stroke-width="2" stroke-linecap="round" stroke-linejoin="round" stroke-miterlimit="10" x1="10" y1="47.7" x2="10" y2="33.7"/><path fill="none" stroke="#000000" stroke-width="2" stroke-linecap="round" stroke-linejoin="round" stroke-miterlimit="10" d="M5,21v26.3C5,48.3,5.7,49,6.7,49h1.7c0.9,0,1.7-0.7,1.7-1.7c0,0.9,0.7,1.7,1.7,1.7h1.7c0.9,0,1.7-0.7,1.7-1.7V21"/><circle fill="none" stroke="#000000" stroke-width="2" stroke-linecap="round" stroke-linejoin="round" stroke-miterlimit="10" cx="10" cy="6" r="5"/><path fill="none" stroke="#000000" stroke-width="2" stroke-linecap="round" stroke-linejoin="round" stroke-miterlimit="10" d="M19,32V18.5c0-2.5-2-4.5-4.5-4.5h-0.9H6.4H5.5C3,14,1,16,1,18.5V32"/><path fill="none" stroke="#000000" stroke-width="2" stroke-linecap="round" stroke-linejoin="round" stroke-miterlimit="10" d="M15,32c0,1.1,0.9,2,2,2s2-0.9,2-2"/><path fill="none" stroke="#000000" stroke-width="2" stroke-linecap="round" stroke-linejoin="round" stroke-miterlimit="10" d="M1,32c0,1.1,0.9,2,2,2s2-0.9,2-2"/><rect x="10" y="43" width="5" height="3"/><g><path fill="none" stroke="#000000" stroke-width="2" stroke-linecap="round" stroke-linejoin="round" stroke-miterlimit="10" d="M38,27c-6.1,0-11,4.9-11,11s4.9,11,11,11c6.1,0,11-4.9,11-11S44.1,27,38,27z"/></g><path d="M42.4,40.9c0-2.4-2-3.1-3.8-3.5c-1.5-0.4-2.9-0.8-2.9-2.2c0-0.7,0.3-2.1,2.4-2.1c1.5,0,2.2,0.9,2.5,2.1H42c-0.4-1.6-1.1-3.1-3.2-3.4V30h-1.5v1.6c-1.2,0.1-3.3,1.1-3.3,3.6c0,4.7,6.8,2.2,6.8,5.8c0,1.2-0.5,2.2-2.8,2.2c-2.3,0-2.9-1.7-2.9-2.7h-1.5c0.2,3.1,2.4,3.9,3.7,4V46h1.5v-1.4C39.8,44.5,42.4,43.7,42.4,40.9z"/></svg>