<?xml version="1.0" encoding="iso-8859-1"?><!-- Generator: Adobe Illustrator 22.0.1, SVG Export Plug-In . SVG Version: 6.00 Build 0)  --><svg xmlns="http://www.w3.org/2000/svg" xmlns:xlink="http://www.w3.org/1999/xlink" viewBox="0 0 50 50" width="500px" height="500px"><path style="fill:none;stroke:#000000;stroke-width:2;stroke-linecap:round;stroke-miterlimit:10;" d="M33,4H3"/><polygon points="36.3,28 29.7,28 28,32.167 28,33 38,33 38,32.167 "/><polygon points="36.3,42 29.7,42 28,46.167 28,47 38,47 38,46.167 "/><polygon points="41.3,35 34.7,35 33,39.167 33,40 43,40 43,39.167 "/><polygon points="46.3,42 39.7,42 38,46.167 38,47 48,47 48,46.167 "/><polygon points="26.3,42 19.7,42 18,46.167 18,47 28,47 28,46.167 "/><polygon points="31.3,35 24.7,35 23,39.167 23,40 33,40 33,39.167 "/><path d="M17.848,41.244l0.1-0.244H3c-0.552,0-1,0.447-1,1s0.448,1,1,1h14.132L17.848,41.244z"/><path d="M17.132,42l0.397,0.027l0.319-0.782L18.356,40H19.7H21v-0.833v-0.392l0.148-0.363l1.7-4.167L23.356,33H24.7H26v-0.833v-0.392l0.148-0.363l1.7-4.167L28.356,26H29.7H32v-1v-7c1.5-0.5,2-1.625,2-2.5s-0.5-2-2-2.5V4H4v9c-1.5,0.5-2,1.625-2,2.5s0.5,2,2,2.5v10c-1.5,0.5-2,1.625-2,2.5s0.5,2,2,2.5v9H17.132z M18,14.75c0,0,5,7.417,5,10.25c0,2.833-2.167,5-5,5s-5-2.167-5-5C13,22.167,18,14.75,18,14.75z"/></svg>