<?xml version="1.0" encoding="iso-8859-1"?><!-- Generator: Adobe Illustrator 19.1.1, SVG Export Plug-In . SVG Version: 6.00 Build 0)  --><svg xmlns="http://www.w3.org/2000/svg" xmlns:xlink="http://www.w3.org/1999/xlink" viewBox="0 0 50 50" width="500px" height="500px"><circle style="fill:none;stroke:#000000;stroke-width:2;stroke-linecap:round;stroke-linejoin:round;stroke-miterlimit:10;" cx="19" cy="4" r="2"/><path d="M12,29c-2.206,0-4,1.794-4,4s1.794,4,4,4s4-1.794,4-4h-4V29z"/><path d="M44,18H26c-1.654,0-3,1.346-3,3v23c0,1.654,1.346,3,3,3h18c1.654,0,3-1.346,3-3V21C47,19.346,45.654,18,44,18z M31,42c0,0.552-0.448,1-1,1h-2c-0.552,0-1-0.448-1-1v-1c0-0.552,0.448-1,1-1h2c0.552,0,1,0.448,1,1V42z M31,37c0,0.552-0.448,1-1,1h-2c-0.552,0-1-0.448-1-1v-1c0-0.552,0.448-1,1-1h2c0.552,0,1,0.448,1,1V37z M31,32c0,0.552-0.448,1-1,1h-2c-0.552,0-1-0.448-1-1v-1c0-0.552,0.448-1,1-1h2c0.552,0,1,0.448,1,1V32z M37,42c0,0.552-0.448,1-1,1h-2c-0.552,0-1-0.448-1-1v-1c0-0.552,0.448-1,1-1h2c0.552,0,1,0.448,1,1V42z M37,37c0,0.552-0.448,1-1,1h-2c-0.552,0-1-0.448-1-1v-1c0-0.552,0.448-1,1-1h2c0.552,0,1,0.448,1,1V37z M37,32c0,0.552-0.448,1-1,1h-2c-0.552,0-1-0.448-1-1v-1c0-0.552,0.448-1,1-1h2c0.552,0,1,0.448,1,1V32z M43,42c0,0.552-0.448,1-1,1h-2c-0.552,0-1-0.448-1-1v-1c0-0.552,0.448-1,1-1h2c0.552,0,1,0.448,1,1V42z M43,37c0,0.552-0.448,1-1,1h-2c-0.552,0-1-0.448-1-1v-1c0-0.552,0.448-1,1-1h2c0.552,0,1,0.448,1,1V37z M43,32c0,0.552-0.448,1-1,1h-2c-0.552,0-1-0.448-1-1v-1c0-0.552,0.448-1,1-1h2c0.552,0,1,0.448,1,1V32z M43,27c0,0.553-0.447,1-1,1H28c-0.553,0-1-0.447-1-1v-4c0-0.552,0.447-1,1-1h14c0.553,0,1,0.448,1,1V27z"/><path d="M33,3H21c-0.552,0-1,0.448-1,1s0.448,1,1,1h6v3c0,1.105-0.895,2-2,2H13c-1.105,0-2-0.895-2-2V7V5h6c0.552,0,1-0.448,1-1s-0.448-1-1-1H5C3.346,3,2,4.346,2,6v35c0,1.654,1.346,3,3,3h16V21c0-2.757,2.243-5,5-5h10V6C36,4.346,34.654,3,33,3z M12,39c-3.309,0-6-2.691-6-6s2.691-6,6-6s6,2.691,6,6S15.309,39,12,39z M19,23H5v-2h2v-3h2v3h2v-6h2v6h2v-4h2v4h2V23z"/></svg>