<?xml version="1.0" encoding="iso-8859-1"?>
<!-- Generator: Adobe Illustrator 25.2.3, SVG Export Plug-In . SVG Version: 6.00 Build 0)  -->
<svg version="1.1" baseProfile="basic" xmlns="http://www.w3.org/2000/svg" xmlns:xlink="http://www.w3.org/1999/xlink" x="0px"
	 y="0px" viewBox="0 0 50 50" xml:space="preserve">
<polyline style="fill:none;stroke:#000000;stroke-width:2;stroke-linecap:round;stroke-linejoin:round;stroke-miterlimit:10;" points="
	41,15 30,15 30,4 "/>
<polygon style="fill:none;stroke:#000000;stroke-width:2;stroke-linecap:round;stroke-linejoin:round;stroke-miterlimit:10;" points="
	42,47 8,47 8,3 30,3 42,15 "/>
<path d="M42,15v32H8V3h22v12H42z M34.707,32.293c-0.391-0.391-1.023-0.391-1.414,0L30,35.586l-3.293-3.293
	c-0.391-0.391-1.023-0.391-1.414,0s-0.391,1.023,0,1.414L28.586,37l-3.293,3.293c-0.391,0.391-0.391,1.023,0,1.414
	C25.488,41.902,25.744,42,26,42s0.512-0.098,0.707-0.293L30,38.414l3.293,3.293C33.488,41.902,33.744,42,34,42
	s0.512-0.098,0.707-0.293c0.391-0.391,0.391-1.023,0-1.414L31.414,37l3.293-3.293C35.098,33.316,35.098,32.684,34.707,32.293z
	 M16,23h18c0.553,0,1-0.448,1-1s-0.447-1-1-1H16c-0.553,0-1,0.448-1,1S15.447,23,16,23z M34,27H16c-0.553,0-1,0.448-1,1s0.447,1,1,1
	h18c0.553,0,1-0.448,1-1S34.553,27,34,27z M21,33h-5c-0.553,0-1,0.448-1,1s0.447,1,1,1h5c0.553,0,1-0.448,1-1S21.553,33,21,33z"/>
<polyline style="fill:none;stroke:#000000;stroke-width:2;stroke-linecap:round;stroke-linejoin:round;stroke-miterlimit:10;" points="
	30,3 30,15 42,15 "/>
</svg>