<?xml version="1.0" encoding="utf-8"?><!-- Generator: Adobe Illustrator 15.0.0, SVG Export Plug-In . SVG Version: 6.00 Build 0)  --><!DOCTYPE svg PUBLIC "-//W3C//DTD SVG 1.1//EN" "http://www.w3.org/Graphics/SVG/1.1/DTD/svg11.dtd"><svg xmlns="http://www.w3.org/2000/svg" xmlns:xlink="http://www.w3.org/1999/xlink" viewBox="0 0 50 50" width="500px" height="500px"><path d="M32,50H18V24h14V50z"/><path d="M16,50H2V35h14V50z"/><path d="M48,50H34V11h14V50z"/><path d="M21.999,18L21.999,18c-0.552,0-1-0.448-1-1L21,9h-8c-0.552,0-1-0.448-1-1s0.448-1,1-1h10l-0.001,10C22.999,17.552,22.551,18,21.999,18z"/><path d="M3,28c-0.256,0-0.512-0.098-0.707-0.293c-0.391-0.391-0.391-1.023,0-1.414l18-18c0.391-0.391,1.023-0.391,1.414,0s0.391,1.023,0,1.414l-18,18C3.512,27.902,3.256,28,3,28z"/></svg>