<?xml version="1.0" encoding="iso-8859-1"?>
<!-- Generator: Adobe Illustrator 27.0.0, SVG Export Plug-In . SVG Version: 6.00 Build 0)  -->
<svg version="1.1" baseProfile="basic" xmlns="http://www.w3.org/2000/svg" xmlns:xlink="http://www.w3.org/1999/xlink" x="0px"
	 y="0px" viewBox="0 0 50 50" xml:space="preserve">
<g id="Layer_1">
</g>
<g id="&#x421;&#x43B;&#x43E;&#x439;_1">
	<path d="M45.38,23.03h-1.63c-0.17,0-0.28-0.04-0.34-0.06c-0.29-1.61-1.55-6.25-6.79-8.41c0.06-1.93,0.56-3.51,1.57-6.25
		c0.13-0.35,0.06-0.75-0.19-1.03c-0.19-0.21-0.45-0.3-0.72-0.31C37.19,6.96,37.09,6.98,37,7c-3.4,0.86-5.82,2.64-7.34,5.5
		c-1.76-0.37-3.56-0.56-5.41-0.56c-5.27,0-9.71,1.47-13.56,4.47C8.86,17.83,7.5,19.74,6.66,22C5.86,21.72,4,20.87,4,18.78
		c0-1.08,0.5-1.98,1.34-2.34c0.51-0.22,0.75-0.81,0.54-1.32c-0.22-0.5-0.81-0.74-1.32-0.53C3,15.27,2,16.92,2,18.78
		c0,3.04,2.45,4.61,4.09,5.16c-0.34,1.5-0.5,3.12-0.43,4.84c0.19,4.63,3.52,7.96,5.56,9.6c0.28,0.21,0.27,0.2,0.19,0.46
		c-0.31,0.95-0.86,2.3-0.88,2.35c-0.26,0.68-0.23,1.43,0.06,2.09c0.3,0.67,0.82,1.15,1.5,1.41l3.22,1.22
		c1.37,0.52,3.02-0.21,3.53-1.57c0,0,0.41-1.1,0.75-2.03c0.04-0.09,0.07-0.17,0.1-0.22c0.14,0.02,0.35,0.05,0.56,0.1
		c0.81,0.17,2.03,0.43,4,0.43c1.77,0,2.95-0.13,3.75-0.21c0.08-0.01,0.16-0.02,0.23-0.03C28.08,41.61,28,40.81,28,40
		c0-6.62,5.38-12,12-12c3.06,0,5.85,1.14,7.96,3.03c0.02-0.16,0.04-0.33,0.04-0.5v-4.87C48,24.21,46.82,23.03,45.38,23.03z
		 M36.47,26.94c-1.06,0-1.91-0.88-1.91-1.94c0-1.05,0.85-1.91,1.91-1.91c1.05,0,1.91,0.86,1.91,1.91S37.52,26.94,36.47,26.94z
		 M18.5,2.56c-4.14,0-7.5,3.37-7.5,7.5c0,1.13,0.26,2.21,0.75,3.22c3.66-2.22,7.77-3.34,12.5-3.34c0.59,0,1.16,0.06,1.75,0.09
		C25.98,5.91,22.62,2.56,18.5,2.56z"/>
	<g>
		<path d="M40,30c-5.5,0-10,4.5-10,10s4.5,10,10,10s10-4.5,10-10S45.5,30,40,30z M43.66,44.97h-7.59v-1.79
			c1.2-0.16,2.01-1.07,2.03-2.27c0-0.14-0.03-0.28-0.06-0.4h-1.93v-1.58h1.48c-0.23-0.61-0.38-1.12-0.38-1.7
			c0-1.75,1.38-2.77,3.77-2.77c0.9,0,1.61,0.08,2.23,0.24v1.8c-0.65-0.15-1.24-0.22-1.92-0.22c-1.21,0-1.96,0.53-1.96,1.39
			c0,0.45,0.1,0.85,0.27,1.26h2.75v1.58h-2.32c0.03,0.12,0.06,0.24,0.06,0.38c0.04,0.84-0.37,1.64-1.08,2.02v0.14h4.65V44.97z"/>
	</g>
</g>
</svg>