<?xml version="1.0" encoding="iso-8859-1"?>
<!-- Generator: Adobe Illustrator 24.1.2, SVG Export Plug-In . SVG Version: 6.00 Build 0)  -->
<svg version="1.1" baseProfile="basic" id="Layer_1"
	 xmlns="http://www.w3.org/2000/svg" xmlns:xlink="http://www.w3.org/1999/xlink" x="0px" y="0px" viewBox="0 0 50 50"
	 xml:space="preserve">
<line style="fill:none;stroke:#000000;stroke-width:2;stroke-linecap:round;stroke-linejoin:round;stroke-miterlimit:10;" x1="36" y1="39" x2="42" y2="45"/>
<line style="fill:none;stroke:#000000;stroke-width:2;stroke-linecap:round;stroke-linejoin:round;stroke-miterlimit:10;" x1="42" y1="39" x2="36" y2="45"/>
<path style="fill:none;stroke:#000000;stroke-width:2;stroke-linejoin:round;stroke-miterlimit:10;" d="M29.832,31.998
	C29.8,31.03,29.8,29.162,29.8,28.2c0.7-0.4,2-2.9,2.3-4.9c0.6,0,1.5-0.6,1.7-2.8c0.1-1.2-0.3-2-0.8-2.1C34.8,16.1,34.5,7,28,7l-1-2
	c-9.4,0-12.8,7.2-10.1,13.3c-0.3,0.2-0.9,0.9-0.8,2.1c0.3,2.2,1.2,2.8,1.7,2.8c0.2,2.1,1.6,4.5,2.3,4.9c0,1.5,0.1,2.6-0.1,4.2
	C18.4,37.2,6.5,35.8,6,45h20"/>
<path style="fill:none;stroke:#000000;stroke-width:2;stroke-miterlimit:10;" d="M30,35h18c0.552,0,1,0.448,1,1v12
	c0,0.552-0.448,1-1,1H30c-0.552,0-1-0.448-1-1V36C29,35.448,29.448,35,30,35z"/>
<path d="M26,45V34h-2l-1,1.5l1,2.5l-2,7H26z"/>
<path style="fill:none;stroke:#000000;stroke-width:2;stroke-linecap:round;stroke-miterlimit:10;" d="M20,32c0,2.1,4.1,3,4.1,3"/>
<path style="fill:none;stroke:#000000;stroke-width:2;stroke-miterlimit:10;" d="M42,35v-3c0-0.552-0.448-1-1-1h-4
	c-0.552,0-1,0.448-1,1v3"/>
</svg>