<?xml version="1.0" encoding="iso-8859-1"?><!-- Generator: Adobe Illustrator 21.1.0, SVG Export Plug-In . SVG Version: 6.00 Build 0)  --><svg xmlns="http://www.w3.org/2000/svg" xmlns:xlink="http://www.w3.org/1999/xlink" viewBox="0 0 50 50" width="500px" height="500px"><path d="M34.91,44.59l-1.82,0.82l-3.76-8.35c0.61-0.26,1.19-0.6,1.73-1.02L34.91,44.59z"/><path d="M32.07,16.19c-0.32-0.63-0.72-1.23-1.22-1.76l5.32-7.98l1.66,1.1L32.07,16.19z"/><path d="M46,24v2H32.89c-0.57-0.85-1.33-1.5-2.16-2H46z"/><path style="fill:#FFFFFF;" d="M30.73,24h-0.06l-0.02-0.05C30.68,23.96,30.71,23.98,30.73,24z"/><circle style="fill:none;stroke:#000000;stroke-width:2;stroke-miterlimit:10;" cx="25" cy="25" r="22"/><path d="M24.783,26.144C21.761,25.472,18,24.636,18,20.334c-0.001-0.094-0.009-2.596,1.817-4.443c1.045-1.057,2.451-1.67,4.183-1.838V11h2v3.071c3.868,0.517,4.976,4.002,5,5.916l-2,0.025C28.991,19.605,28.805,16,25,16c-2.093,0-3.562,0.704-4.365,2.093C20.006,19.18,20,20.316,20,20.327c0,2.574,1.982,3.146,5.217,3.863C28.239,24.862,32,25.698,32,30c0,4.151-3.502,5.63-6,5.936V39h-2v-3.046c-4.716-0.443-6-4.01-6-5.954h1l1-0.007C20.005,30.403,20.191,34,25,34c0.202-0.001,5-0.07,5-4C30,27.433,28.018,26.861,24.783,26.144z"/></svg>