<?xml version="1.0" encoding="iso-8859-1"?><!-- Generator: Adobe Illustrator 23.0.3, SVG Export Plug-In . SVG Version: 6.00 Build 0)  --><svg xmlns="http://www.w3.org/2000/svg" xmlns:xlink="http://www.w3.org/1999/xlink" viewBox="0 0 50 50" width="500px" height="500px"><line style="fill:none;stroke:#000000;stroke-width:2;stroke-linecap:round;stroke-linejoin:round;stroke-miterlimit:10;" x1="10" y1="5" x2="10" y2="29"/><path style="fill:none;stroke:#000000;stroke-width:2;stroke-linecap:round;stroke-linejoin:round;stroke-miterlimit:10;" d="M31,21c1.657,0,3-1.343,3-3s-1.343-3-3-3c-0.36,0-1,0-1,0c0-2.761-2.239-5-5-5s-5,2.239-5,5c0,0-0.64,0-1,0c-1.657,0-3,1.343-3,3s1.343,3,3,3"/><g id="IOS_copy_1_"><path d="M40,50l-0.5-0.2c-0.3-0.2-9.5-4.9-9.5-17.9v-0.8l0.8-0.2c2.8-0.6,4.3-1.3,5.5-1.9s2.2-1.1,3.7-1.1s2.5,0.5,3.7,1.1s2.7,1.3,5.5,1.9l0.8,0.2v0.8c0,12.6-9.1,17.7-9.5,17.9L40,50z M32,32.7c0.3,9.7,6.2,14,8,15c1.7-1.1,7.7-5.7,8-15c-2.5-0.6-4-1.4-5.2-1.9c-1.1-0.6-1.7-0.9-2.8-0.9s-1.7,0.3-2.8,0.9C36.1,31.3,34.6,32.1,32,32.7z"/></g><g><path d="M3,30h25v-2H4V6h35v19.967c0.317-0.039,0.645-0.067,1-0.067s0.683,0.028,1,0.067V6h5v21.859c0.562,0.232,1.21,0.462,2,0.686V5c0-0.552-0.447-1-1-1H3C2.447,4,2,4.448,2,5v24C2,29.552,2.447,30,3,30z"/><path d="M28.626,37.656C22.509,35.666,14.085,34,3,34c-0.553,0-1,0.448-1,1s0.447,1,1,1c11.601,0,20.238,1.908,26.27,4.035C29.019,39.288,28.81,38.486,28.626,37.656z"/><path d="M3,33c10.592,0,18.902,0.81,25.169,1.83c-0.07-0.667-0.114-1.359-0.135-2.073C21.74,31.767,13.485,31,3,31c-0.553,0-1,0.448-1,1S2.447,33,3,33z"/></g></svg>