<?xml version="1.0" encoding="iso-8859-1"?><!-- Generator: Adobe Illustrator 23.0.3, SVG Export Plug-In . SVG Version: 6.00 Build 0)  --><svg xmlns="http://www.w3.org/2000/svg" xmlns:xlink="http://www.w3.org/1999/xlink" viewBox="0 0 50 50" width="500px" height="500px"><path d="M47.071,32.929c-3.898-3.898-10.244-3.898-14.143,0c-3.899,3.899-3.899,10.243,0,14.143c1.949,1.949,4.511,2.925,7.071,2.925s5.122-0.976,7.071-2.925C50.971,43.172,50.971,36.828,47.071,32.929z M44.95,41H41v3.95c0,0.553-0.447,1-1,1s-1-0.447-1-1V41h-3.95c-0.553,0-1-0.447-1-1s0.447-1,1-1H39v-3.95c0-0.553,0.447-1,1-1s1,0.447,1,1V39h3.95c0.553,0,1,0.447,1,1S45.503,41,44.95,41z"/><line style="fill:none;stroke:#000000;stroke-width:2;stroke-linecap:round;stroke-linejoin:round;stroke-miterlimit:10;" x1="25" y1="25" x2="25" y2="45"/><path d="M44,10H6c-0.552,0-1-0.448-1-1V5c0-0.552,0.448-1,1-1h38c0.553,0,1,0.448,1,1v4C45,9.552,44.553,10,44,10z"/><circle cx="29" cy="34" r="1"/><circle cx="21" cy="34" r="1"/><path style="fill:none;stroke:#000000;stroke-width:2;stroke-linecap:round;stroke-linejoin:round;stroke-miterlimit:10;" d="M40,17c0,1.657,1.343,3,3,3s3-1.343,3-3c0-0.347-2-8-2-8H6c0,0-2,7.653-2,8c0,1.657,1.343,3,3,3s3-1.343,3-3"/><path style="fill:none;stroke:#000000;stroke-width:2;stroke-linecap:round;stroke-linejoin:round;stroke-miterlimit:10;" d="M34,17c0,1.657,1.343,3,3,3s3-1.343,3-3"/><path style="fill:none;stroke:#000000;stroke-width:2;stroke-linecap:round;stroke-linejoin:round;stroke-miterlimit:10;" d="M28,17c0,1.657,1.343,3,3,3c1.657,0,3-1.343,3-3"/><path style="fill:none;stroke:#000000;stroke-width:2;stroke-linecap:round;stroke-linejoin:round;stroke-miterlimit:10;" d="M22,17c0,1.657,1.343,3,3,3s3-1.343,3-3"/><path style="fill:none;stroke:#000000;stroke-width:2;stroke-linecap:round;stroke-linejoin:round;stroke-miterlimit:10;" d="M16,17c0,1.657,1.343,3,3,3s3-1.343,3-3"/><path style="fill:none;stroke:#000000;stroke-width:2;stroke-linecap:round;stroke-linejoin:round;stroke-miterlimit:10;" d="M10,17c0,1.657,1.343,3,3,3s3-1.343,3-3"/><path d="M28.697,44H12V26h26v2.18c0.652-0.11,1.317-0.18,2-0.18c2.188,0,4.234,0.595,6,1.618V19H4v26c0,0.553,0.448,1,1,1h24.618C29.252,45.367,28.945,44.699,28.697,44z"/></svg>