<?xml version="1.0" encoding="iso-8859-1"?><!-- Generator: Adobe Illustrator 19.1.1, SVG Export Plug-In . SVG Version: 6.00 Build 0)  --><svg xmlns="http://www.w3.org/2000/svg" xmlns:xlink="http://www.w3.org/1999/xlink" viewBox="0 0 50 50" width="500px" height="500px"><path style="fill:none;stroke:#000000;stroke-width:2;stroke-linejoin:round;stroke-miterlimit:10;" d="M39,9h-2c-0.552,0-1-0.448-1-1V2c0-0.552,0.448-1,1-1h2c0.552,0,1,0.448,1,1v6C40,8.552,39.552,9,39,9z"/><line style="fill:none;stroke:#000000;stroke-width:2;stroke-linejoin:round;stroke-miterlimit:10;" x1="13" y1="27" x2="39" y2="27"/><line style="fill:none;stroke:#000000;stroke-width:2;stroke-linejoin:round;stroke-miterlimit:10;" x1="13" y1="34" x2="39" y2="34"/><line style="fill:none;stroke:#000000;stroke-width:2;stroke-linejoin:round;stroke-miterlimit:10;" x1="26" y1="21" x2="26" y2="41"/><line style="fill:none;stroke:#000000;stroke-width:2;stroke-linejoin:round;stroke-miterlimit:10;" x1="19" y1="27" x2="19" y2="41"/><line style="fill:none;stroke:#000000;stroke-width:2;stroke-linejoin:round;stroke-miterlimit:10;" x1="33" y1="20" x2="33" y2="41"/><polyline style="fill:none;stroke:#000000;stroke-width:2;stroke-linecap:round;stroke-miterlimit:10;" points="1.3,4 6,4 6,8.7 "/><line style="fill:none;stroke:#000000;stroke-width:2;stroke-linecap:round;stroke-miterlimit:10;" x1="14" y1="14" x2="14" y2="6"/><line style="fill:none;stroke:#000000;stroke-width:2;stroke-linecap:round;stroke-miterlimit:10;" x1="14" y1="14" x2="18" y2="17"/><path style="fill:none;stroke:#000000;stroke-width:2;stroke-linecap:round;stroke-miterlimit:10;" d="M8.9,2c1.6-0.7,3.3-1,5.1-1c7.2,0,13,5.8,13,13s-5.8,13-13,13S1,21.2,1,14c0-3.6,1.5-6.8,3.8-9.2"/><g><path d="M46,4h-6v5h-4V4H22.319c2.622,2.182,4.356,5.38,4.63,9H48V6C48,4.841,47.159,4,46,4z"/></g><polygon points="27,21 27,27 20,27 "/><path d="M27,15c-0.167,2.202-0.875,4.244-1.996,6H39v19H13V26.95c-3.62-0.274-6.818-2.008-9-4.63V46c0,1.105,0.895,2,2,2h40c1.105,0,2-0.895,2-2V15H27z"/></svg>