<?xml version="1.0" encoding="utf-8"?><!-- Generator: Adobe Illustrator 18.1.1, SVG Export Plug-In . SVG Version: 6.00 Build 0)  --><svg xmlns="http://www.w3.org/2000/svg" xmlns:xlink="http://www.w3.org/1999/xlink" viewBox="0 0 50 50" width="500px" height="500px"><ellipse fill="none" stroke="#000000" stroke-width="2" stroke-miterlimit="10" cx="25" cy="30" rx="8" ry="3"/><path fill="none" stroke="#000000" stroke-width="2" stroke-miterlimit="10" d="M17,30c0,0.8,0,4.2,0,5c0,1.7,3.6,3,8,3s8-1.3,8-3c0-0.8,0-4.2,0-5"/><path fill="none" stroke="#000000" stroke-width="2" stroke-miterlimit="10" d="M17,35c0,0.8,0,4.2,0,5c0,1.7,3.6,3,8,3s8-1.3,8-3c0-0.8,0-4.2,0-5"/><path fill="none" stroke="#000000" stroke-width="2" stroke-miterlimit="10" d="M17,40c0,0.8,0,4.2,0,5c0,1.7,3.6,3,8,3s8-1.3,8-3c0-0.8,0-4.2,0-5"/><ellipse fill="none" stroke="#000000" stroke-width="2" stroke-miterlimit="10" cx="9" cy="20" rx="8" ry="3"/><path fill="none" stroke="#000000" stroke-width="2" stroke-miterlimit="10" d="M1,20c0,0.8,0,4.2,0,5c0,1.7,3.6,3,8,3s8-1.3,8-3c0-0.8,0-4.2,0-5"/><path fill="none" stroke="#000000" stroke-width="2" stroke-miterlimit="10" d="M1,25c0,0.8,0,4.2,0,5c0,1.7,3.6,3,8,3s8-1.3,8-3c0-0.8,0-4.2,0-5"/><path fill="none" stroke="#000000" stroke-width="2" stroke-miterlimit="10" d="M1,30c0,0.8,0,4.2,0,5c0,1.7,3.6,3,8,3s8-1.3,8-3c0-0.8,0-4.2,0-5"/><path fill="none" stroke="#000000" stroke-width="2" stroke-miterlimit="10" d="M1,35c0,0.8,0,4.2,0,5c0,1.7,3.6,3,8,3s8-1.3,8-3c0-0.8,0-4.2,0-5"/><path fill="none" stroke="#000000" stroke-width="2" stroke-miterlimit="10" d="M1,40c0,0.8,0,4.2,0,5c0,1.7,3.6,3,8,3s8-1.3,8-3c0-0.8,0-4.2,0-5"/><ellipse fill="none" stroke="#000000" stroke-width="2" stroke-miterlimit="10" cx="41" cy="5" rx="8" ry="3"/><path fill="none" stroke="#000000" stroke-width="2" stroke-miterlimit="10" d="M33,5c0,0.8,0,4.2,0,5c0,1.7,3.6,3,8,3s8-1.3,8-3c0-0.8,0-4.2,0-5"/><path fill="none" stroke="#000000" stroke-width="2" stroke-miterlimit="10" d="M33,10c0,0.8,0,4.2,0,5c0,1.7,3.6,3,8,3s8-1.3,8-3c0-0.8,0-4.2,0-5"/><path fill="none" stroke="#000000" stroke-width="2" stroke-miterlimit="10" d="M33,15c0,0.8,0,4.2,0,5c0,1.7,3.6,3,8,3s8-1.3,8-3c0-0.8,0-4.2,0-5"/><path fill="none" stroke="#000000" stroke-width="2" stroke-miterlimit="10" d="M33,20c0,0.8,0,4.2,0,5c0,1.7,3.6,3,8,3s8-1.3,8-3c0-0.8,0-4.2,0-5"/><path fill="none" stroke="#000000" stroke-width="2" stroke-miterlimit="10" d="M33,25c0,0.8,0,4.2,0,5c0,1.7,3.6,3,8,3s8-1.3,8-3c0-0.8,0-4.2,0-5"/><path fill="none" stroke="#000000" stroke-width="2" stroke-miterlimit="10" d="M33,30c0,0.8,0,4.2,0,5c0,1.7,3.6,3,8,3s8-1.3,8-3c0-0.8,0-4.2,0-5"/><path fill="none" stroke="#000000" stroke-width="2" stroke-miterlimit="10" d="M33,35c0,0.8,0,4.2,0,5c0,1.7,3.6,3,8,3s8-1.3,8-3c0-0.8,0-4.2,0-5"/><path fill="none" stroke="#000000" stroke-width="2" stroke-miterlimit="10" d="M33,40c0,0.8,0,4.2,0,5c0,1.7,3.6,3,8,3s8-1.3,8-3c0-0.8,0-4.2,0-5"/></svg>