<?xml version="1.0" encoding="iso-8859-1"?><!-- Generator: Adobe Illustrator 22.0.1, SVG Export Plug-In . SVG Version: 6.00 Build 0)  --><svg xmlns="http://www.w3.org/2000/svg" xmlns:xlink="http://www.w3.org/1999/xlink" viewBox="0 0 50 50" width="500px" height="500px"><rect x="27" y="28" style="fill:none;stroke:#000000;stroke-width:2;stroke-linecap:round;stroke-linejoin:round;stroke-miterlimit:10;" width="22" height="21"/><line style="fill:none;stroke:#000000;stroke-width:2;stroke-linecap:round;stroke-linejoin:round;stroke-miterlimit:10;" x1="34" y1="32" x2="42" y2="32"/><path style="fill:none;stroke:#000000;stroke-width:2;stroke-linecap:round;stroke-linejoin:round;stroke-miterlimit:10;" d="M30.428,27.625l0.497-0.75c0.569-0.963,1.136-2.364,1.325-3.625c0.6,0,1.55-0.55,1.75-2.75c0.1-1.2-0.5-2-1-2.1c0.591-0.755,1.007-2.242,1-3.9C33.986,11.107,32.367,7,28,7l-1-2c-7.482,0-11,4.5-11,9.5c0,1.266,0.349,2.556,0.9,3.8c-0.3,0.2-1,0.875-0.9,2.075c0.3,2.2,1.25,2.875,1.75,2.875c0.2,2.1,1.5,4.25,2.25,4.75v4.5C18.4,37.4,6.5,35.8,6,45h21"/></svg>