<?xml version="1.0" encoding="utf-8"?><!-- Generator: Adobe Illustrator 20.1.0, SVG Export Plug-In . SVG Version: 6.00 Build 0)  --><svg xmlns="http://www.w3.org/2000/svg" xmlns:xlink="http://www.w3.org/1999/xlink" viewBox="0 0 50 50" width="500px" height="500px"><path d="M40,21.7c0-0.6-0.2-1.2-0.5-1.7l-1.1-1.7c-0.6-0.9-1.5-1.4-2.6-1.4h-2.6c0.1,0.7,0.2,1.3,0.1,2h2.5c0.4,0,0.7,0.2,0.9,0.5l1.1,1.7c0.1,0.2,0.2,0.4,0.2,0.6L38,44c0,1.2-0.9,2-2.1,2H14.1c-1.2,0-2.1-0.9-2.1-2.1V21.7c0-0.2,0.1-0.4,0.2-0.6l1.1-1.7c0.2-0.3,0.5-0.5,0.9-0.5h4.1c0-0.7,0.1-1.4,0.3-2h-4.4c-1,0-2,0.5-2.6,1.4L10.5,20c-0.3,0.5-0.5,1.1-0.5,1.7v22.2c0,2.3,1.8,4.1,4.1,4.1h21.8c2.3,0,4.1-1.8,4.1-4.1L40,21.7z"/><path fill="#FFFFFF" d="M21.4,2.4c-0.1,0-0.2,0-0.3,0c0,0,0.1,0,0.1,0C21.3,2.3,21.4,2.4,21.4,2.4z"/><path fill="#FFFFFF" d="M21,2.4c-0.1,0-0.1,0.1-0.2,0.1C20.8,2.4,20.9,2.4,21,2.4z"/><path fill="#FFFFFF" d="M20.7,2.6c-0.1,0-0.1,0.1-0.2,0.2C20.5,2.7,20.6,2.6,20.7,2.6z"/><path fill="#FFFFFF" d="M20.4,2.8c-0.1,0.1-0.1,0.2-0.1,0.3C20.3,3,20.3,2.9,20.4,2.8z"/><path d="M22,4.5l9.6,1.8l1,1.4l1.3,1.8L32,20H19.2L22,4.5 M21.2,2.3c-0.5,0-0.9,0.3-1,0.8L16.8,22h16.8L36,9.1c-1.2-1.8-1.9-2.8-3.2-4.6L21.4,2.4C21.4,2.4,21.3,2.3,21.2,2.3L21.2,2.3z"/><g><path d="M25,24c-5.5,0-10,4.5-10,10c0,5.5,4.5,10,10,10s10-4.5,10-10C35,28.5,30.5,24,25,24z M26,34c0,0.6-0.4,1-1,1h-7c-0.6,0-1-0.4-1-1s0.4-1,1-1h6v-5c0-0.6,0.4-1,1-1s1,0.4,1,1V34z"/></g><line fill="#FFFFFF" stroke="#000000" stroke-width="2" stroke-miterlimit="10" x1="31" y1="8.5" x2="23" y2="7"/><line fill="#FFFFFF" stroke="#000000" stroke-width="2" stroke-miterlimit="10" x1="32" y1="12.8" x2="22" y2="11"/><line fill="#FFFFFF" stroke="#000000" stroke-width="2" stroke-miterlimit="10" x1="31.2" y1="16.8" x2="21.2" y2="15"/><path d="M34,22H16c-0.6,0-1-0.4-1-1s0.4-1,1-1h18c0.6,0,1,0.4,1,1S34.6,22,34,22z"/></svg>