<?xml version="1.0" encoding="iso-8859-1"?><!-- Generator: Adobe Illustrator 21.1.0, SVG Export Plug-In . SVG Version: 6.00 Build 0)  --><svg xmlns="http://www.w3.org/2000/svg" xmlns:xlink="http://www.w3.org/1999/xlink" viewBox="0 0 50 50" width="500px" height="500px"><path d="M48.62,19.21l-23-18c-0.37-0.28-0.87-0.28-1.24,0l-23,18c-0.43,0.34-0.51,0.97-0.17,1.41c0.34,0.43,0.97,0.51,1.41,0.17L4,19.71V46c0,0.55,0.45,1,1,1h40c0.55,0,1-0.45,1-1V19.71l1.38,1.08C47.57,20.93,47.78,21,48,21c0.3,0,0.59-0.13,0.79-0.38C49.13,20.18,49.05,19.55,48.62,19.21z M26.03,38.06V40H24v-1.875c-3.67-0.3-6.01-2.475-6.03-5.475h2.34c0.15,1.83,1.97,3.36,4.72,3.36s4.63-1.34,4.63-3.35c0-5.2-11.21-1.66-11.21-9.2c0-2.96,2.1-4.975,5.55-5.335V16h2.03v2.09c3.33,0.32,5.55,2.41,5.64,5.34h-2.32c-0.06-1.71-1.61-3.24-4.32-3.24c-2.71,0-4.23,1.43-4.23,3.13c0,4.71,11.23,1.72,11.23,9.15C32.03,35.68,29.82,37.72,26.03,38.06z"/></svg>