<?xml version="1.0" encoding="utf-8"?><!-- Generator: Adobe Illustrator 18.1.1, SVG Export Plug-In . SVG Version: 6.00 Build 0)  --><svg xmlns="http://www.w3.org/2000/svg" xmlns:xlink="http://www.w3.org/1999/xlink" viewBox="0 0 50 50" width="500px" height="500px"><path fill="none" stroke="#000000" stroke-width="2" stroke-miterlimit="10" d="M11,17H3c-1.1,0-2-0.9-2-2V9c0-1.1,0.9-2,2-2h8c1.1,0,2,0.9,2,2v6C13,16.1,12.1,17,11,17z"/><path fill="none" stroke="#000000" stroke-width="2" stroke-miterlimit="10" d="M31,17h-8c-1.1,0-2-0.9-2-2V9c0-1.1,0.9-2,2-2h8c1.1,0,2,0.9,2,2v6C33,16.1,32.1,17,31,17z"/><path fill="none" stroke="#000000" stroke-width="2" stroke-miterlimit="10" d="M31,43h-8c-1.1,0-2-0.9-2-2v-6c0-1.1,0.9-2,2-2h8c1.1,0,2,0.9,2,2v6C33,42.1,32.1,43,31,43z"/><path fill="none" stroke="#000000" stroke-width="2" stroke-miterlimit="10" d="M11,43H3c-1.1,0-2-0.9-2-2v-6c0-1.1,0.9-2,2-2h8c1.1,0,2,0.9,2,2v6C13,42.1,12.1,43,11,43z"/><path fill="none" stroke="#000000" stroke-width="2" stroke-miterlimit="10" d="M47,30h-8c-1.1,0-2-0.9-2-2v-6c0-1.1,0.9-2,2-2h8c1.1,0,2,0.9,2,2v6C49,29.1,48.1,30,47,30z"/><path fill="none" stroke="#000000" stroke-width="2" stroke-miterlimit="10" d="M33,12h6c2.2,0,4,1.8,4,4v4"/><path fill="none" stroke="#000000" stroke-width="2" stroke-miterlimit="10" d="M33,38h6c2.2,0,4-1.8,4-4v-4"/><line fill="none" stroke="#000000" stroke-width="2" stroke-miterlimit="10" x1="13" y1="12" x2="21" y2="12"/><line fill="none" stroke="#000000" stroke-width="2" stroke-miterlimit="10" x1="13" y1="38" x2="21" y2="38"/></svg>