<?xml version="1.0" encoding="iso-8859-1"?><!-- Generator: Adobe Illustrator 23.0.3, SVG Export Plug-In . SVG Version: 6.00 Build 0)  --><svg xmlns="http://www.w3.org/2000/svg" xmlns:xlink="http://www.w3.org/1999/xlink" viewBox="0 0 50 50" width="500px" height="500px"><polyline style="fill:none;stroke:#000000;stroke-width:2;stroke-linecap:round;stroke-miterlimit:10;" points="43,15 32,15 32,4 "/><g><g><path style="fill:none;stroke:#000000;stroke-width:2;stroke-linecap:round;stroke-miterlimit:10;" d="M24,23c0-4.971-4.029-9-9-9s-9,4.029-9,9v9l3.484,1.394L10.2,47h9.6l0.716-13.606L24,32V23z"/></g></g><circle style="fill:none;stroke:#000000;stroke-width:2;stroke-miterlimit:10;" cx="15" cy="7" r="4"/><g><path d="M32.414,2H19.889c0.587,0.574,1.068,1.251,1.425,2h10.271L43,15.414V46H22.857l-0.105,2H45V14.586L32.414,2z"/></g><line style="fill:none;stroke:#000000;stroke-width:2;stroke-miterlimit:10;" x1="15" y1="14" x2="15" y2="16"/><line style="fill:none;stroke:#000000;stroke-width:2;stroke-miterlimit:10;" x1="15" y1="17" x2="15" y2="27"/></svg>