<?xml version="1.0" encoding="iso-8859-1"?><!-- Generator: Adobe Illustrator 21.1.0, SVG Export Plug-In . SVG Version: 6.00 Build 0)  --><svg xmlns="http://www.w3.org/2000/svg" xmlns:xlink="http://www.w3.org/1999/xlink" viewBox="0 0 50 50" width="500px" height="500px"><g></g><path d="M41,14c-2.757,0-5-2.243-5-5s2.243-5,5-5s5,2.243,5,5S43.757,14,41,14z"/><path d="M43,43c-2.757,0-5-2.243-5-5s2.243-5,5-5s5,2.243,5,5S45.757,43,43,43z"/><path d="M23,48c-2.757,0-5-2.243-5-5s2.243-5,5-5s5,2.243,5,5S25.757,48,23,48z"/><path d="M7,36c-2.757,0-5-2.243-5-5s2.243-5,5-5s5,2.243,5,5S9.757,36,7,36z"/><path d="M18,12c-2.757,0-5-2.243-5-5s2.243-5,5-5s5,2.243,5,5S20.757,12,18,12z"/><line style="fill:none;stroke:#000000;stroke-width:2;stroke-miterlimit:10;" x1="38.156" y1="11.844" x2="33.854" y2="16.146"/><line style="fill:none;stroke:#000000;stroke-width:2;stroke-miterlimit:10;" x1="19.665" y1="10.538" x2="21.31" y2="14.034"/><line style="fill:none;stroke:#000000;stroke-width:2;stroke-miterlimit:10;" x1="23.673" y1="38.967" x2="24.202" y2="34.764"/><line style="fill:none;stroke:#000000;stroke-width:2;stroke-miterlimit:10;" x1="39.985" y1="35.55" x2="34.516" y2="31.06"/><line style="fill:none;stroke:#000000;stroke-width:2;stroke-miterlimit:10;" x1="10.714" y1="29.507" x2="15.681" y2="27.972"/><path d="M26,12c-6.617,0-12,5.383-12,12s5.383,12,12,12s12-5.383,12-12S32.617,12,26,12z M22,20.625C21.985,18.521,23.241,17,26,17c0.926,0,1.684,0.253,1.937,0.76c1.531,0.192,2.053,1.52,2.063,2.74c0.008,0.928-0.068,1.74-0.25,2.25c0.168,0.084,0.334,0.494,0.25,1C29.832,24.678,29.253,25,29,25c-0.084,0.844-0.663,2.081-1,2.25V29c0.54,1.297,3.135,1.288,4.717,2.393C30.941,33.007,28.589,34,26,34s-4.941-0.993-6.717-2.607C20.865,30.288,23.46,30.297,24,29v-1.75c-0.337-0.169-0.916-1.406-1-2.25c-0.253,0-0.916-0.322-1-1.25c-0.084-0.506,0.082-0.916,0.25-1C22.049,22.004,22.005,21.286,22,20.625z"/></svg>