<?xml version="1.0" encoding="iso-8859-1"?><!-- Generator: Adobe Illustrator 19.2.1, SVG Export Plug-In . SVG Version: 6.00 Build 0)  --><svg xmlns="http://www.w3.org/2000/svg" xmlns:xlink="http://www.w3.org/1999/xlink" viewBox="0 0 50 50" width="500px" height="500px"><circle cx="4" cy="25" r="1"/><circle cx="7" cy="25" r="1"/><circle cx="10" cy="25" r="1"/><circle cx="13" cy="25" r="1"/><circle cx="16" cy="25" r="1"/><circle cx="19" cy="25" r="1"/><circle cx="22" cy="25" r="1"/><circle cx="25" cy="25" r="1"/><path d="M27.293,25.707c-0.391-0.391-0.391-1.024,0-1.414c0.391-0.391,1.024-0.391,1.414,0L27.293,25.707z"/><path d="M34.707,25.707c-0.391,0.391-1.024,0.391-1.414,0l1.414-1.414C35.098,24.683,35.098,25.317,34.707,25.707z"/><circle cx="37" cy="25" r="1"/><circle cx="40" cy="25" r="1"/><circle cx="43" cy="25" r="1"/><circle cx="46" cy="25" r="1"/><polyline style="fill:none;stroke:#000000;stroke-width:2;stroke-linecap:round;stroke-linejoin:round;stroke-miterlimit:10;" points="47,8 15,42 3,42 "/></svg>