<?xml version="1.0" encoding="iso-8859-1"?><!-- Generator: Adobe Illustrator 19.2.1, SVG Export Plug-In . SVG Version: 6.00 Build 0)  --><svg xmlns="http://www.w3.org/2000/svg" xmlns:xlink="http://www.w3.org/1999/xlink" viewBox="0 0 50 50" width="500px" height="500px"><line style="fill:none;stroke:#000000;stroke-width:2;stroke-linecap:round;stroke-miterlimit:10;" x1="33.729" y1="33.729" x2="47" y2="47"/><line style="fill:none;stroke:#000000;stroke-width:2;stroke-linecap:round;stroke-miterlimit:10;" x1="8.5" y1="33.5" x2="33.5" y2="8.5"/><g><path d="M17.386,21.079l1.896-1.896c-1.32-0.542-2.245-1.355-2.245-2.896c0-1.077,0.44-3.432,3.967-3.432c1.487,0,2.515,0.564,3.18,1.426l1.619-1.619c-0.798-0.973-1.927-1.694-3.617-1.979V8h-2.364v2.621c-1.949,0.233-5.338,1.851-5.338,5.922C14.484,19.09,15.731,20.332,17.386,21.079z"/><path d="M24.71,20.825l-1.856,1.856c1.534,0.546,2.664,1.388,2.664,3.221c0,1.929-0.857,3.63-4.513,3.63c-1.72,0-2.853-0.612-3.579-1.423l-1.667,1.667c1.269,1.309,2.908,1.766,4.065,1.936V34h2.364v-2.246c1.753-0.169,5.884-1.454,5.884-6.106C28.07,23,26.605,21.647,24.71,20.825z"/></g><circle style="fill:none;stroke:#000000;stroke-width:2;stroke-linecap:round;stroke-miterlimit:10;" cx="21" cy="21" r="18"/></svg>