<?xml version="1.0" encoding="iso-8859-1"?><!-- Generator: Adobe Illustrator 23.0.3, SVG Export Plug-In . SVG Version: 6.00 Build 0)  --><svg xmlns="http://www.w3.org/2000/svg" xmlns:xlink="http://www.w3.org/1999/xlink" viewBox="0 0 50 50" width="500px" height="500px"><path style="fill:none;stroke:#000000;stroke-width:2;stroke-linecap:round;stroke-miterlimit:10;" d="M38,22c0-7.18-5.82-13-13-13s-13,5.82-13,13c0,9.205,8,11.99,8,16h10C30,33.99,38,31.295,38,22z"/><path style="fill:none;stroke:#000000;stroke-width:2;stroke-linecap:round;stroke-miterlimit:10;" d="M30,38H20v5c0,1.105,0.895,2,2,2h6c1.105,0,2-0.895,2-2V38z"/><path d="M28,44c0,1.657-1.343,3-3,3s-3-1.343-3-3H28z"/><line style="fill:none;stroke:#000000;stroke-width:2;stroke-linecap:round;stroke-miterlimit:10;" x1="42" y1="22" x2="46" y2="22"/><line style="fill:none;stroke:#000000;stroke-width:2;stroke-linecap:round;stroke-miterlimit:10;" x1="4" y1="22" x2="8" y2="22"/><line style="fill:none;stroke:#000000;stroke-width:2;stroke-linecap:round;stroke-miterlimit:10;" x1="37.021" y1="34.021" x2="39.849" y2="36.849"/><line style="fill:none;stroke:#000000;stroke-width:2;stroke-linecap:round;stroke-miterlimit:10;" x1="10.151" y1="7.151" x2="12.979" y2="9.979"/><line style="fill:none;stroke:#000000;stroke-width:2;stroke-linecap:round;stroke-miterlimit:10;" x1="37.021" y1="9.979" x2="39.849" y2="7.151"/><line style="fill:none;stroke:#000000;stroke-width:2;stroke-linecap:round;stroke-miterlimit:10;" x1="10.151" y1="36.849" x2="12.979" y2="34.021"/><line style="fill:none;stroke:#000000;stroke-width:2;stroke-linecap:round;stroke-miterlimit:10;" x1="25" y1="1" x2="25" y2="5"/><line style="fill:none;stroke:#000000;stroke-width:2;stroke-linecap:round;stroke-miterlimit:10;" x1="30" y1="42" x2="24" y2="42"/><line style="fill:none;stroke:#000000;stroke-width:2;stroke-linecap:round;stroke-miterlimit:10;" x1="21" y1="42" x2="20" y2="42"/><line style="fill:none;stroke:#000000;stroke-width:2;stroke-miterlimit:10;" x1="25" y1="30" x2="25" y2="33"/><line style="fill:none;stroke:#000000;stroke-width:2;stroke-miterlimit:10;" x1="25" y1="13" x2="25" y2="16"/><path style="fill:none;stroke:#000000;stroke-width:2;stroke-miterlimit:10;" d="M20,26c0,2.209,2.239,4,5,4s5-1.791,5-4c0-5.029-9-2.088-9-7c0-1.657,1.791-3,4-3s4,1.343,4,3"/></svg>