<?xml version="1.0" encoding="iso-8859-1"?><!-- Generator: Adobe Illustrator 21.0.2, SVG Export Plug-In . SVG Version: 6.00 Build 0)  --><svg xmlns="http://www.w3.org/2000/svg" xmlns:xlink="http://www.w3.org/1999/xlink" viewBox="0 0 50 50" width="500px" height="500px"><circle cx="12" cy="38" r="1"/><path style="fill:none;stroke:#000000;stroke-width:2;stroke-miterlimit:10;" d="M15,32H9v-2c0-1.105,0.895-2,2-2h2c1.105,0,2,0.895,2,2V32z"/><polyline style="fill:none;stroke:#000000;stroke-width:2;stroke-miterlimit:10;" points="21,38 21,47 3,47 3,38 "/><g><path style="fill:none;stroke:#000000;stroke-width:2;stroke-miterlimit:10;" d="M29,13V7h18v6c0,1.65-1.35,3-3,3H32C30.35,16,29,14.65,29,13z"/></g><circle cx="38" cy="13" r="1"/><path style="fill:none;stroke:#000000;stroke-width:2;stroke-miterlimit:10;" d="M41,7h-6V5c0-1.105,0.895-2,2-2h2c1.105,0,2,0.895,2,2V7z"/><g><rect x="28" y="13" width="2" height="6"/><polygon points="46,13 46,21 33,21 33,23 48,23 48,13 "/></g><path d="M20,35v3c0,1.103-0.897,2-2,2H6c-1.103,0-2-0.897-2-2v-5h13v-2H2v7c0,2.206,1.794,4,4,4h12c2.206,0,4-1.794,4-4v-3H20z"/><line style="fill:none;stroke:#000000;stroke-width:2;stroke-miterlimit:10;" x1="21" y1="31" x2="29" y2="23"/><polyline style="fill:none;stroke:#000000;stroke-width:2;stroke-miterlimit:10;" points="25,22 30,22 30,27 "/><polyline style="fill:none;stroke:#000000;stroke-width:2;stroke-miterlimit:10;" points="25,32 20,32 20,27 "/></svg>