<?xml version="1.0" encoding="utf-8"?><!-- Generator: Adobe Illustrator 18.1.0, SVG Export Plug-In . SVG Version: 6.00 Build 0)  --><!DOCTYPE svg PUBLIC "-//W3C//DTD SVG 1.1//EN" "http://www.w3.org/Graphics/SVG/1.1/DTD/svg11.dtd"><svg xmlns="http://www.w3.org/2000/svg" xmlns:xlink="http://www.w3.org/1999/xlink" viewBox="0 0 50 50" width="500px" height="500px"><path fill="none" stroke="#000000" stroke-width="2" stroke-linecap="round" stroke-miterlimit="10" d="M18,39v4c0,1.1,0.9,2,2,2h10c1.1,0,2-0.9,2-2v-4H18z"/><path fill="none" stroke="#000000" stroke-width="2" stroke-linecap="round" stroke-miterlimit="10" d="M28,45c0,1.7-1.3,3-3,3c-1.7,0-3-1.3-3-3"/><g><path d="M12.7,13.8C14.4,8.7,19.3,5,25,5c7.2,0,13,5.8,13,13c0,5-2,7.1-3.9,9.1c-1.3,1.4-2.7,2.9-3,5.1l1.9,1.9V33c0-1.9,1.1-3.1,2.5-4.5c2-2.1,4.5-4.7,4.5-10.5c0-8.3-6.7-15-15-15c-6.2,0-11.6,3.8-13.9,9.3L12.7,13.8z"/><path d="M12,18c0-0.6,0.1-1.3,0.2-1.9l-1.7-1.7C10.2,15.6,10,16.8,10,18c0,6.2,2.8,9.1,4.8,11.3c1.3,1.4,2.2,2.4,2.2,3.7v6h2v-6c0-2.1-1.3-3.5-2.7-5.1C14.3,25.8,12,23.4,12,18z"/><path d="M26,27.1v-3.7l3.7-3.7c0.4-0.4,0.4-1,0-1.4s-1-0.4-1.4,0L25,21.6l-3.3-3.3c-0.4-0.4-1-0.4-1.4,0s-0.4,1,0,1.4l3.7,3.7v1.7L26,27.1z"/><polygon points="31,35 31,39 33,39 33,37 "/><polygon points="24,28 24,36 26,36 26,30 "/></g><line fill="none" stroke="#000000" stroke-width="2" stroke-linecap="round" stroke-linejoin="round" stroke-miterlimit="10" x1="1" y1="1" x2="49" y2="49"/></svg>