<?xml version="1.0" encoding="iso-8859-1"?><!-- Generator: Adobe Illustrator 21.1.0, SVG Export Plug-In . SVG Version: 6.00 Build 0)  --><svg xmlns="http://www.w3.org/2000/svg" xmlns:xlink="http://www.w3.org/1999/xlink" viewBox="0 0 50 50" width="500px" height="500px"><path style="fill:none;stroke:#000000;stroke-width:2;stroke-linecap:round;stroke-miterlimit:10;" d="M19,40H7c-2.209,0-4-1.791-4-4V14c0-2.209,1.791-4,4-4h36c2.209,0,4,1.791,4,4v20"/><rect x="3" y="16" width="44" height="5"/><line style="fill:none;stroke:#000000;stroke-width:2;stroke-miterlimit:10;" x1="9" y1="25" x2="25" y2="25"/><g id="IOS_copy"><path d="M36,50c-7.6,0-13.4-8.1-13.6-8.4L22,41l0.4-0.6c0.2-0.3,6-8.4,13.6-8.4s13.4,8.1,13.6,8.4L50,41l-0.4,0.6C49.4,41.9,43.6,50,36,50z M24.5,41c1.5,1.8,6,7,11.5,7s10.1-5.2,11.5-7c-1.4-1.8-6-7-11.5-7S25.9,39.2,24.5,41z M36,47c-3.3,0-6-2.7-6-6s2.7-6,6-6s6,2.7,6,6S39.3,47,36,47z M36,37c-2.2,0-4,1.8-4,4s1.8,4,4,4s4-1.8,4-4S38.2,37,36,37z M34,41c0,1.1,0.9,2,2,2s2-0.9,2-2s-0.9-2-2-2S34,39.9,34,41z"/></g></svg>