<?xml version="1.0" encoding="iso-8859-1"?><!-- Generator: Adobe Illustrator 22.1.0, SVG Export Plug-In . SVG Version: 6.00 Build 0)  --><svg xmlns="http://www.w3.org/2000/svg" xmlns:xlink="http://www.w3.org/1999/xlink" viewBox="0 0 50 50" width="500px" height="500px"><line style="fill:none;stroke:#000000;stroke-width:2;stroke-linecap:round;stroke-miterlimit:10;" x1="16" y1="2" x2="16" y2="9.5"/><line style="fill:none;stroke:#000000;stroke-width:2;stroke-linecap:round;stroke-miterlimit:10;" x1="8.926" y1="3.554" x2="11.406" y2="9.75"/><line style="fill:none;stroke:#000000;stroke-width:2;stroke-linecap:round;stroke-miterlimit:10;" x1="4" y1="8" x2="7" y2="11"/><line style="fill:none;stroke:#000000;stroke-width:2;stroke-linecap:round;stroke-miterlimit:10;" x1="23.045" y1="3.679" x2="20.563" y2="9.75"/><line style="fill:none;stroke:#000000;stroke-width:2;stroke-linecap:round;stroke-miterlimit:10;" x1="28.127" y1="8" x2="25.127" y2="11"/><path style="fill:none;stroke:#000000;stroke-width:2;stroke-linecap:round;stroke-miterlimit:10;" d="M39,45v2c0,0.552,0.448,1,1,1s2.448,0,3,0s1-0.448,1-1v-2"/><path style="fill:none;stroke:#000000;stroke-width:2;stroke-linecap:round;stroke-miterlimit:10;" d="M6,45v2c0,0.552,0.448,1,1,1s2.448,0,3,0s1-0.448,1-1v-2"/><line style="fill:none;stroke:#000000;stroke-width:2;stroke-linecap:round;stroke-miterlimit:10;" x1="16" y1="19" x2="16" y2="41"/><line style="fill:none;stroke:#000000;stroke-width:2;stroke-linecap:round;stroke-miterlimit:10;" x1="11" y1="19" x2="11" y2="41"/><line style="fill:none;stroke:#000000;stroke-width:2;stroke-linecap:round;stroke-miterlimit:10;" x1="21" y1="19" x2="21" y2="40"/><path d="M42,14H8c-4.411,0-8,3.589-8,8v20c0,2.206,1.794,4,4,4h42c2.206,0,4-1.794,4-4V22C50,17.589,46.411,14,42,14z M16,40c-5.523,0-10-4.477-10-10c0-5.523,4.477-10,10-10s10,4.477,10,10C26,35.523,21.523,40,16,40z M39.001,38c-2.209,0-4-1.791-4-4c0-2.209,1.791-4,4-4c2.209,0,4,1.791,4,4C43.001,36.209,41.21,38,39.001,38z M45,24H32v-4h13V24z"/><line style="fill:none;stroke:#000000;stroke-width:2;stroke-linecap:round;stroke-miterlimit:10;" x1="41" y1="18" x2="41" y2="25"/></svg>