<?xml version="1.0" encoding="utf-8"?><!-- Generator: Adobe Illustrator 18.1.1, SVG Export Plug-In . SVG Version: 6.00 Build 0)  --><svg xmlns="http://www.w3.org/2000/svg" xmlns:xlink="http://www.w3.org/1999/xlink" viewBox="0 0 50 50" width="500px" height="500px"><path fill="none" stroke="#000000" stroke-width="2" stroke-linecap="round" stroke-miterlimit="10" d="M41.7,32.2l-2.9,13.2c-0.2,0.9-1,1.6-2,1.6H13.2c-0.9,0-1.7-0.7-2-1.6L8.9,34.9"/><path fill="none" stroke="#000000" stroke-width="2" stroke-linecap="round" stroke-miterlimit="10" d="M29,26c0,0-17,0.9-17-8c-3.9,0-8,3-8,8.3C4,32.7,9,37,19,37c10.4,0,13.8-4.3,16.5-6c2.9-1.8,6.2-1.8,5.9,1.6c0,0,4.6-1.8,4.6-7.6c0-4.4-4.5-9.4-11-10.8C34.2,8,28.9,4,25.1,3H25c0,4.8-6,3.7-6,9c-3.7,0-7,2.9-7,6"/><g><line fill="none" stroke="#000000" stroke-width="2" stroke-linecap="round" stroke-miterlimit="10" x1="34.1" y1="42.2" x2="35.3" y2="33.5"/><line fill="none" stroke="#000000" stroke-width="2" stroke-linecap="round" stroke-miterlimit="10" x1="29.7" y1="42.2" x2="30.2" y2="35.1"/><line fill="none" stroke="#000000" stroke-width="2" stroke-linecap="round" stroke-miterlimit="10" x1="25.4" y1="42.2" x2="25.2" y2="36.7"/><line fill="none" stroke="#000000" stroke-width="2" stroke-linecap="round" stroke-miterlimit="10" x1="21.1" y1="42.2" x2="20.5" y2="37.2"/><line fill="none" stroke="#000000" stroke-width="2" stroke-linecap="round" stroke-miterlimit="10" x1="16.8" y1="42.2" x2="15.6" y2="37"/></g></svg>