<?xml version="1.0" encoding="iso-8859-1"?><!-- Generator: Adobe Illustrator 22.0.1, SVG Export Plug-In . SVG Version: 6.00 Build 0)  --><svg xmlns="http://www.w3.org/2000/svg" xmlns:xlink="http://www.w3.org/1999/xlink" viewBox="0 0 50 50" width="500px" height="500px"><g></g><line style="fill:none;stroke:#000000;stroke-width:2;stroke-miterlimit:10;" x1="25" y1="25" x2="14" y2="25"/><polyline style="fill:none;stroke:#000000;stroke-width:2;stroke-linejoin:round;stroke-miterlimit:10;" points="14,16 14,42 25,42 "/><rect x="6" y="3" style="fill:none;stroke:#000000;stroke-width:2;stroke-linecap:round;stroke-linejoin:round;stroke-miterlimit:10;" width="16" height="10"/><path d="M44,48H28c-0.553,0-1-0.448-1-1V37c0-0.552,0.447-1,1-1h16c0.553,0,1,0.448,1,1v10C45,47.552,44.553,48,44,48z"/><path d="M44,31H28c-0.553,0-1-0.448-1-1V20c0-0.552,0.447-1,1-1h16c0.553,0,1,0.448,1,1v10C45,30.552,44.553,31,44,31z"/></svg>