<?xml version="1.0" encoding="iso-8859-1"?><!-- Generator: Adobe Illustrator 21.1.0, SVG Export Plug-In . SVG Version: 6.00 Build 0)  --><svg xmlns="http://www.w3.org/2000/svg" xmlns:xlink="http://www.w3.org/1999/xlink" viewBox="0 0 50 50" width="500px" height="500px"><g><g><g><g></g></g></g></g><path d="M25.003,28C23.347,28,22,26.655,22,25s1.347-3,3.003-3c1.656,0,2.947,1.345,2.947,3S26.658,28,25.003,28z M25.003,24.998V25V24.998z"/><path d="M33.478,22h2.097c-1.04-3.652-3.92-6.535-7.575-7.574v2.099C30.55,17.431,32.571,19.453,33.478,22z"/><path d="M16.522,28h-2.097c1.04,3.652,3.92,6.535,7.575,7.574v-2.099C19.45,32.569,17.429,30.547,16.522,28z"/><path d="M14.425,22h2.097c0.907-2.547,2.929-4.569,5.478-5.475v-2.099C18.345,15.465,15.465,18.348,14.425,22z"/><path d="M33.475,28c-0.906,2.55-2.928,4.571-5.475,5.478v2.097c3.652-1.04,6.535-3.92,7.574-7.575H33.475z"/><path d="M43.747,22h2.016C44.441,12.826,37.177,5.562,28,4.24v2.021C36.074,7.55,42.458,13.93,43.747,22z"/><path d="M43.739,28C42.45,36.074,36.07,42.458,28,43.747v2.016C37.174,44.441,44.438,37.177,45.76,28H43.739z"/><path d="M6.253,28H4.236C5.559,37.174,12.823,44.438,22,45.76v-2.021C13.926,42.45,7.542,36.07,6.253,28z"/><path d="M4.236,22h2.016C7.542,13.93,13.926,7.55,22,6.261V4.24C12.823,5.562,5.559,12.826,4.236,22z"/><line style="fill:none;stroke:#000000;stroke-width:2;stroke-miterlimit:10;" x1="25" y1="1" x2="25" y2="19"/><line style="fill:none;stroke:#000000;stroke-width:2;stroke-miterlimit:10;" x1="1" y1="25" x2="19" y2="25"/><line style="fill:none;stroke:#000000;stroke-width:2;stroke-miterlimit:10;" x1="31" y1="25" x2="49" y2="25"/><line style="fill:none;stroke:#000000;stroke-width:2;stroke-miterlimit:10;" x1="25" y1="31" x2="25" y2="49"/></svg>