<?xml version="1.0" encoding="iso-8859-1"?><!-- Generator: Adobe Illustrator 19.2.0, SVG Export Plug-In . SVG Version: 6.00 Build 0)  --><svg xmlns="http://www.w3.org/2000/svg" xmlns:xlink="http://www.w3.org/1999/xlink" viewBox="0 0 50 50" width="500px" height="500px"><g><g><g><path style="fill:none;" d="M0,50V0h50v50H0z"/><g><path d="M41.069,28.048C40.717,28.016,40.36,28,40,28c-4.997,0-9.305,3.095-11.104,7.462C28.335,35.166,27.69,35,27,35c-2.243,0-4,1.757-4,4s1.757,4,4,4c0.468,0,0.914-0.076,1.328-0.218c0.597,2.49,1.976,4.686,3.861,6.308c-1.464,0.582-3.033,0.881-4.57,0.909c-0.007,0-0.212,0-0.218,0C12.805,50,3,36.401,3,23.7C3,6.207,15.551,0,26.3,0C42.695,0,48,10.039,48,14.9C48.055,22.629,44.174,25.815,41.069,28.048z M23,10.5c0,2.485,1.567,4.5,3.5,4.5c1.934,0,3.5-2.015,3.5-4.5S28.434,6,26.5,6C24.567,6,23,8.015,23,10.5z M18,28.5c0-2.485-1.567-4.5-3.5-4.5S11,26.015,11,28.5s1.567,4.5,3.5,4.5S18,30.985,18,28.5z M19,15.5c0-2.485-1.567-4.5-3.5-4.5S12,13.015,12,15.5s1.567,4.5,3.5,4.5S19,17.985,19,15.5z M41,15.5c0-2.485-1.566-4.5-3.5-4.5S34,13.015,34,15.5s1.566,4.5,3.5,4.5S41,17.985,41,15.5z"/></g><g><g ><path d="M40,30c-5.5,0-10,4.5-10,10s4.5,10,10,10s10-4.5,10-10S45.5,30,40,30z M43.4,42.5c0,2.5-2.4,2.8-2.8,2.8v1.4h-1.1v-1.4c-0.4,0-3-0.3-3-3.3h2c0,0.3,0,1.7,1.5,1.7c1.3,0,1.3-1,1.3-1.2c0-2.2-4.5-1.3-4.5-4.8c0-2.1,1.9-2.8,2.8-2.8v-1.5h1.1v1.5c0.7,0.1,2.6,0.6,2.6,3.2h-2c0-0.6-0.1-1.7-1.3-1.7s-1.2,1-1.2,1.2C39,39.8,43.4,39,43.4,42.5z"/></g></g></g></g></g></svg>