<?xml version="1.0" encoding="utf-8"?><!-- Generator: Adobe Illustrator 15.0.0, SVG Export Plug-In . SVG Version: 6.00 Build 0)  --><!DOCTYPE svg PUBLIC "-//W3C//DTD SVG 1.1//EN" "http://www.w3.org/Graphics/SVG/1.1/DTD/svg11.dtd"><svg xmlns="http://www.w3.org/2000/svg" xmlns:xlink="http://www.w3.org/1999/xlink" viewBox="0 0 50 50" width="500px" height="500px"><path d="M27,45h-2c-1.654,0-3-1.346-3-3s1.346-3,3-3h2c1.654,0,3,1.346,3,3S28.654,45,27,45z"/><path d="M45,24h-2v11h2c2.2,0,4-1.8,4-4v-3C49,25.8,47.2,24,45,24z"/><path d="M42.898,37c0,0-1.898,0-1.898-2s0-4,0-4c0,1.3-2.5,1.6-2.5,1.6c-0.4,0-0.8,0.4-0.9,0.801c-0.346,1.589-0.844,3.127-1.476,4.62c-0.088,0.177-0.181,0.374-0.28,0.604c-0.382,0.881-0.799,1.666-1.219,2.375H38C40.414,41,42.435,39.279,42.898,37z"/><path d="M48.968,35.489C47.908,36.426,46.521,37,45,37h-0.08c-0.488,3.387-3.401,6-6.92,6h-4.711c-0.469,0.619-0.891,1.104-1.206,1.443c-0.056,0.06-0.111,0.12-0.168,0.179c-0.26,0.27-0.415,0.409-0.415,0.409l0.001,0.002C29.598,46.844,27.372,48,25,48c-4.8,0-8.9-4.8-12.7-14.8c-0.1-0.4-0.5-0.601-0.8-0.601C10.1,32.5,9,31.3,9,29.8c0-0.6,0.1-1.399,0.5-1.7c0.4-0.3,1.2-0.199,1.2-0.199c0.1,0,0.2,0,0.3,0c8.3,0,16.2-8.2,19-13.5c3,6.4,8,12.3,8.2,12.6c0.2,0.2,0.5,0.4,0.8,0.4c0,0,1.423,0.015,2,1.202c0,0,0-2.603,0-4.603s2-2,2-2h2c0.675,0,1.321,0.117,1.927,0.323C46.191,11.881,39.653,4.408,30.74,4.016l-0.786-2.515C29.824,1.084,29.438,0.8,29,0.8C9.757,0.8,0,16.344,0,47c0,0.294,0.13,0.574,0.354,0.764C0.537,47.918,0.766,48,1,48c0.056,0,0.111-0.005,0.167-0.014C1.225,47.977,7.11,47,18,47c0.011,0,0.02-0.006,0.03-0.006C19.982,48.818,22.28,50,25,50c2.734,0,5.233-1.169,7.373-3.025C32.416,46.98,32.455,47,32.5,47c10.662,0,16.27,0.975,16.324,0.984C48.883,47.995,48.941,48,49,48c0.232,0,0.461-0.081,0.642-0.233C49.869,47.576,50,47.296,50,47C50,41.417,49.455,37.699,48.968,35.489z"/><path d="M29,41c-0.553,0-1,0.447-1,1s0.447,1,1,1h4.289c0.421-0.556,0.879-1.23,1.336-2H29z"/></svg>