<?xml version="1.0" encoding="iso-8859-1"?><!-- Generator: Adobe Illustrator 20.0.0, SVG Export Plug-In . SVG Version: 6.00 Build 0)  --><svg xmlns="http://www.w3.org/2000/svg" xmlns:xlink="http://www.w3.org/1999/xlink" viewBox="0 0 50 50" width="500px" height="500px"><path style="fill:none;stroke:#000000;stroke-width:2;stroke-miterlimit:10;" d="M15.525,5H44c1.657,0,3,1.343,3,3v34c0,1.657-1.343,3-3,3H7c-1.657,0-3-1.343-3-3V13.556"/><line style="fill:none;stroke:#000000;stroke-width:2;stroke-miterlimit:10;" x1="18" y1="12" x2="47" y2="12"/><line style="fill:none;stroke:#000000;stroke-width:2;stroke-miterlimit:10;" x1="4" y1="38" x2="47" y2="38"/><polygon style="fill-rule:evenodd;clip-rule:evenodd;fill:none;stroke:#000000;stroke-width:2;stroke-linecap:round;stroke-linejoin:round;stroke-miterlimit:10;" points="10,1 12.108,3.512 15.29,2.719 15.519,5.99 18.56,7.219 16.822,10 18.56,12.781 15.519,14.01 15.29,17.281 12.108,16.488 10,19 7.892,16.488 4.71,17.281 4.481,14.01 1.44,12.781 3.178,10 1.44,7.219 4.481,5.99 4.71,2.719 7.892,3.512 "/></svg>