<?xml version="1.0" encoding="iso-8859-1"?><!-- Generator: Adobe Illustrator 23.0.3, SVG Export Plug-In . SVG Version: 6.00 Build 0)  --><svg xmlns="http://www.w3.org/2000/svg" xmlns:xlink="http://www.w3.org/1999/xlink" viewBox="0 0 50 50" width="500px" height="500px"><path d="M25,10c-2.206,0-4-1.794-4-4s1.794-4,4-4s4,1.794,4,4S27.206,10,25,10z"/><path d="M40.496,12.561l-9.598-5.485C30.774,7.758,30.535,8.399,30.2,8.98l9.303,5.316c0.156,0.09,0.327,0.132,0.495,0.132c0.348,0,0.685-0.181,0.869-0.504C41.143,13.445,40.976,12.835,40.496,12.561z"/><path d="M7,19c-2.206,0-4-1.794-4-4s1.794-4,4-4s4,1.794,4,4S9.206,19,7,19z"/><path d="M22.868,6.075c-0.273-0.479-0.885-0.649-1.364-0.372l-9.791,5.595c0.411,0.523,0.737,1.115,0.957,1.756l9.826-5.615C22.976,7.165,23.143,6.555,22.868,6.075z"/><path d="M25,48c-2.206,0-4-1.794-4-4s1.794-4,4-4s4,1.794,4,4S27.206,48,25,48z"/><path d="M19.8,41.02l-9.303-5.316c-0.48-0.276-1.091-0.108-1.364,0.372c-0.274,0.479-0.107,1.09,0.372,1.364l9.598,5.485C19.226,42.242,19.465,41.601,19.8,41.02z"/><path d="M43,19c-2.206,0-4-1.794-4-4s1.794-4,4-4s4,1.794,4,4S45.206,19,43,19z"/><path d="M43,21c-0.341,0-0.674-0.035-1-0.09V32c0,0.553,0.447,1,1,1s1-0.447,1-1V20.91C43.674,20.965,43.341,21,43,21z"/><path d="M7,39c-2.206,0-4-1.794-4-4s1.794-4,4-4s4,1.794,4,4S9.206,39,7,39z"/><path d="M7,29c0.341,0,0.674,0.035,1,0.09V18c0-0.553-0.447-1-1-1s-1,0.447-1,1v11.09C6.326,29.035,6.659,29,7,29z"/><path d="M43,39c-2.206,0-4-1.794-4-4s1.794-4,4-4s4,1.794,4,4S45.206,39,43,39z"/><path d="M37.33,36.945l-9.826,5.615c-0.479,0.274-0.646,0.885-0.372,1.364c0.185,0.323,0.521,0.504,0.869,0.504c0.168,0,0.339-0.042,0.495-0.132l9.791-5.595C37.876,38.179,37.551,37.587,37.33,36.945z"/><path d="M27,28.338V26.4c0.316-0.176,1.791-1.369,1.791-2.446c0.249-0.021,0.641-0.28,0.756-1.297c0.062-0.546-0.132-0.891-0.334-0.951C30.003,19.204,29.429,16,26,16l-0.273-1c-4.727,0-6.049,2.969-4.959,6.689c-0.149,0.097-0.396,0.404-0.334,0.951c0.115,1.018,0.507,1.276,0.756,1.297c0,1.14,1.493,2.286,1.81,2.463v1.938c-0.72,2.058-6,1.662-6,5.054C17,33.71,17.175,34,17.493,34h15.014C32.825,34,33,33.71,33,33.392C33,30,27.72,30.395,27,28.338z"/></svg>