<?xml version="1.0" encoding="iso-8859-1"?><!-- Generator: Adobe Illustrator 21.1.0, SVG Export Plug-In . SVG Version: 6.00 Build 0)  --><svg xmlns="http://www.w3.org/2000/svg" xmlns:xlink="http://www.w3.org/1999/xlink" viewBox="0 0 50 50" width="500px" height="500px"><polyline style="fill:none;stroke:#000000;stroke-width:2;stroke-linecap:round;stroke-miterlimit:10;" points="41,10 48.5,17 41,24 "/><polyline style="fill:none;stroke:#000000;stroke-width:2;stroke-linecap:round;stroke-miterlimit:10;" points="9,40 2,33 9,26 "/><line style="fill:none;stroke:#000000;stroke-width:4;stroke-miterlimit:10;" x1="25" y1="6" x2="25" y2="10"/><line style="fill:none;stroke:#000000;stroke-width:4;stroke-miterlimit:10;" x1="25" y1="40" x2="25" y2="44"/><path style="fill:none;stroke:#000000;stroke-width:4;stroke-miterlimit:10;" d="M33,19c0,0,0-8-8-8s-8,7-8,7c0,9,16,5,16,14c0,0,0,7-8,7s-8-8-8-8"/><g><path d="M13,18c0-0.631,0.073-1.307,0.21-2H2c-0.553,0-1,0.447-1,1s0.447,1,1,1H13z"/><path d="M36.954,18H48c0.553,0,1-0.447,1-1s-0.447-1-1-1H36.619C36.787,16.682,36.898,17.354,36.954,18z"/><path d="M48.5,32H37c0,0.631-0.073,1.307-0.21,2H48.5c0.553,0,1-0.447,1-1S49.053,32,48.5,32z"/><path d="M13.046,32H2.5c-0.553,0-1,0.447-1,1s0.447,1,1,1h10.881C13.213,33.318,13.102,32.646,13.046,32z"/></g></svg>