<?xml version="1.0" encoding="iso-8859-1"?><!-- Generator: Adobe Illustrator 21.1.0, SVG Export Plug-In . SVG Version: 6.00 Build 0)  --><svg xmlns="http://www.w3.org/2000/svg" xmlns:xlink="http://www.w3.org/1999/xlink" viewBox="0 0 50 50" width="500px" height="500px"><g><g></g></g><path d="M40,6V4c0-0.552-0.448-1-1-1H11c-0.552,0-1,0.448-1,1v2H40z"/><path d="M42,11V9c0-0.552-0.448-1-1-1H9C8.448,8,8,8.448,8,9v2H42z"/><path d="M44,14c0-0.552-0.448-1-1-1H7c-0.552,0-1,0.448-1,1v13h12c1.105,0,2,0.895,2,2v0.777c0,2.61,1.903,4.945,4.5,5.199C27.48,35.267,30,32.922,30,30v-1c0-1.105,0.895-2,2-2h12V14z"/><path d="M46,29H33c-0.552,0-1,0.448-1,1v1c-0.487,3.388-3.479,6-7,6s-6.513-2.612-7-6v-1c0-0.552-0.448-1-1-1H4c-0.552,0-1,0.448-1,1v16c0,0.552,0.448,1,1,1h42c0.552,0,1-0.448,1-1V30C47,29.448,46.552,29,46,29z"/></svg>