<?xml version="1.0" encoding="iso-8859-1"?>
<!-- Generator: Adobe Illustrator 23.0.6, SVG Export Plug-In . SVG Version: 6.00 Build 0)  -->
<svg version="1.1" xmlns="http://www.w3.org/2000/svg" xmlns:xlink="http://www.w3.org/1999/xlink" x="0px" y="0px"
	 viewBox="0 0 50 50" style="enable-background:new 0 0 50 50;" xml:space="preserve">
<g id="Perch">
</g>
<g id="Acupuncture">
</g>
<g id="Cover_Up">
	<path d="M35.36,23.09l-4.8,0.96L26.31,5.24C26.15,4.61,26.63,4,27.28,4h1.01c0.42,0,0.8,0.27,0.94,0.67L35.36,23.09z"/>
	<path d="M39.46,44c0.96-1.06,1.54-2.46,1.54-4c0-1.82-0.84-3.54-2.24-4.67C38.03,32.8,35.7,31,33,31c-0.98,0-1.93,0.24-2.78,0.68
		c-0.52-0.56-1.12-1.03-1.8-1.38c0.6-1.68,1.47-3.19,2.58-4.3l5-1c5,10,13,11,13,19H39.46z"/>
	<path d="M15,39v2c0,1.667-1.3,2.989-2.966,3c-0.011,0-0.022,0-0.034,0H1V28h6.26l-2.19,9.49c-0.23,1.01,0.35,2.01,1.35,2.34
		c0.19,0.06,0.39,0.09,0.6,0.09c0.8,0,1.55-0.5,1.86-1.25c0.43-1.03,0.59-1.28,0.61-1.32c0.716-1.074,2.054-1.609,3.364-1.227
		C14.162,36.503,15,37.638,15,39z"/>
	<path d="M20,25l-3,14c0-2.76-2.24-5-5-5c-1.75,0-3.29,0.9-4.18,2.26c-0.28,0.42-0.7,1.44-0.8,1.68L9.31,28L10,25c1-4,2.24-5,5-5
		S20.77,21.93,20,25z"/>
	<path d="M39,40c0,2.21-1.79,4-4,4c-1.25,0-2.37-0.57-3.1-1.48C31.34,42.82,30.69,43,30,43c-0.91,0-1.75-0.31-2.43-0.83
		C26.98,43.26,25.82,44,24.5,44c-1.47,0-2.74-0.92-3.24-2.21C20.86,41.93,20.44,42,20,42c-0.55,0-1.07-0.11-1.54-0.31
		C18.78,40.93,20,34,20,34s-0.28-0.08,0,0c0.78-1.56,3.39-2.5,5.25-2.5c2.08,0,3.85,1.34,4.48,3.2C30.45,33.67,31.65,33,33,33
		c2.05,0,3.73,1.54,3.97,3.52C38.18,37.21,39,38.51,39,40z"/>
</g>
<g id="Child_Safe_Zone">
</g>
<g id="Sustainable_Energy">
</g>
</svg>