<?xml version="1.0" encoding="iso-8859-1"?><!-- Generator: Adobe Illustrator 21.1.0, SVG Export Plug-In . SVG Version: 6.00 Build 0)  --><svg xmlns="http://www.w3.org/2000/svg" xmlns:xlink="http://www.w3.org/1999/xlink" viewBox="0 0 50 50" width="500px" height="500px"><path d="M38.804,50l-2.909-2.815l-4.009,0.567l-0.701-3.987l-3.576-1.898l1.778-3.637l-1.778-3.637l3.576-1.898l0.701-3.987l4.009,0.567l2.909-2.815l2.91,2.815l4.009-0.567l0.7,3.987L50,34.591l-1.779,3.637L50,41.866l-3.577,1.898l-0.7,3.987l-4.009-0.567L38.804,50z M36.582,45.067l2.222,2.149l2.223-2.149l3.062,0.433l0.534-3.045l2.731-1.449l-1.359-2.778l1.359-2.778l-2.731-1.449l-0.534-3.045l-3.062,0.433l-2.223-2.149l-2.222,2.149l-3.062-0.433l-0.535,3.045l-2.73,1.449l1.358,2.778l-1.358,2.778l2.73,1.449l0.535,3.045L36.582,45.067z"/><g><g><polygon points="30,47.849 5,47.849 5,7 10,7 10,4 33,4 33,7 38,7 38,24.349 36,26.349 36,8.849 31,8.849 31,5.849 12,5.849 12,8.849 7,8.849 7,46 29.6,46 "/></g></g><g><rect x="11" y="13" style="fill:#020202;" width="5" height="2"/></g><g><rect x="19" y="13" style="fill:#020202;" width="5" height="2"/></g><g><rect x="27" y="13" style="fill:#020202;" width="5" height="2"/></g><g><rect x="27" y="17" style="fill:#020202;" width="5" height="2"/></g><g><rect x="19" y="17" style="fill:#020202;" width="5" height="2"/></g><g><rect x="11" y="17" style="fill:#020202;" width="5" height="2"/></g><g><rect x="11" y="21" style="fill:#020202;" width="5" height="2"/></g><g><rect x="19" y="21" style="fill:#020202;" width="5" height="2"/></g><g><rect x="27" y="21" style="fill:#020202;" width="5" height="2"/></g><g><rect x="19" y="25" style="fill:#020202;" width="5" height="2"/></g><g><rect x="11" y="25" style="fill:#020202;" width="5" height="2"/></g><g><rect x="11" y="29" style="fill:#020202;" width="5" height="2"/></g><g><rect x="19" y="29" style="fill:#020202;" width="5" height="2"/></g><g><rect x="19" y="33" style="fill:#020202;" width="5" height="2"/></g><g><rect x="11" y="33" style="fill:#020202;" width="5" height="2"/></g><g><rect x="11" y="37" style="fill:#020202;" width="5" height="2"/></g><g><rect x="19" y="37" style="fill:#020202;" width="5" height="2"/></g><g><rect x="19" y="41" width="5" height="2"/></g><g><rect x="11" y="41" width="5" height="2"/></g><g><path style="fill:#020202;" d="M27,25v2h3.182l0.069-0.394L32,26.853V25H27z M27,31h2.478l0.352-2H27V31z"/></g></svg>