<?xml version="1.0" encoding="iso-8859-1"?><!-- Generator: Adobe Illustrator 21.1.0, SVG Export Plug-In . SVG Version: 6.00 Build 0)  --><svg xmlns="http://www.w3.org/2000/svg" xmlns:xlink="http://www.w3.org/1999/xlink" viewBox="0 0 50 50" width="500px" height="500px"><path d="M45.05,9H4.95C3.88,9,3,9.93,3,11.07v31.86C3,44.07,3.88,45,4.95,45h40.1c1.07,0,1.95-0.93,1.95-2.07V11.07C47,9.93,46.12,9,45.05,9z M18,13c0-1.1,0.9-2,2-2h10c1.1,0,2,0.9,2,2v1c0,1.1-0.9,2-2,2H20c-1.1,0-2-0.9-2-2V13z M8,38c0.27-4.25,6.1-3.63,6.97-5.84c0.08-0.75,0-1.28,0-1.97c-0.36-0.18-1.38-1.15-1.54-2.23c0,0-0.82-0.36-0.87-1.53C12.54,25.82,13,25.38,13,25.38c-0.86-3.09-0.49-6.3,3.93-6.38c1.1,0,1.93,0.5,2.26,1.05c3.07,0,2.28,4.02,1.81,5.33c0.17,0.16,0.39,0.61,0.39,1.21c0,0.86-0.87,1.38-0.87,1.38c-0.17,1.09-0.99,2-1.49,2.23c0,0.68-0.08,1.21,0,1.96c0.87,2.21,6.7,1.59,6.97,5.84H8z M41,35H29c-0.55,0-1-0.45-1-1s0.45-1,1-1h12c0.55,0,1,0.45,1,1S41.55,35,41,35z M41,30H29c-0.55,0-1-0.45-1-1s0.45-1,1-1h12c0.55,0,1,0.45,1,1S41.55,30,41,30z M41,25H29c-0.55,0-1-0.45-1-1s0.45-1,1-1h12c0.55,0,1,0.45,1,1S41.55,25,41,25z"/><path d="M28,1h-6c-0.55,0-1,0.45-1,1v10c0,0.55,0.45,1,1,1h6c0.55,0,1-0.45,1-1V2C29,1.45,28.55,1,28,1z M25,6c-0.55,0-1-0.45-1-1s0.45-1,1-1s1,0.45,1,1S25.55,6,25,6z"/></svg>