<?xml version="1.0" encoding="iso-8859-1"?>
<!-- Generator: Adobe Illustrator 25.2.3, SVG Export Plug-In . SVG Version: 6.00 Build 0)  -->
<svg version="1.1" baseProfile="basic" id="Layer_1"
	 xmlns="http://www.w3.org/2000/svg" xmlns:xlink="http://www.w3.org/1999/xlink" x="0px" y="0px" viewBox="0 0 48 48"
	 xml:space="preserve">
<path d="M5.34,30.42l-2.06,3.57C1.82,30.97,1,27.58,1,24c0-0.35,0.01-0.7,0.03-1.05L5.34,30.42z M6.5,32.42l-1.48,2.57h2.96
	L6.5,32.42z M7.91,7.58c-2.95,2.9-5.13,6.58-6.19,10.71l7.59-2.77L7.91,7.58z M6.5,28.42l3.89-6.77l-0.72-4.13l-7.82,2.85L6.5,28.42
	z M7.65,30.42l2.64,4.57h2.46l-1.81-10.27L7.65,30.42z M5.03,36.99c2.14,3.11,5.02,5.68,8.39,7.42l-4.29-7.42H5.03z M11.58,16.83
	l0.37,2.12l1.64-2.86L11.58,16.83z M11.44,36.99l2.39,4.13l-0.73-4.13H11.44z M15.14,13.4l2.06-3.57L9.87,7.16l1.35,7.67L15.14,13.4
	z M18.06,12.34l3.02-1.1l-1.97-0.72L18.06,12.34z M22.24,1.07c-4.31,0.32-8.29,1.85-11.62,4.24l7.59,2.76L22.24,1.07z M24,10.18
	l3.88-1.42L24,2.02l-3.88,6.74L24,10.18z M26.92,11.24l3.02,1.1l-1.05-1.82L26.92,11.24z M16.68,45.8c2.3,0.78,4.76,1.2,7.32,1.2
	s5.02-0.42,7.32-1.2l1.55-8.81H15.13L16.68,45.8z M31.49,15.03L24,12.3l-7.49,2.73l-4.02,6.98l2.29,12.98h18.44l2.29-12.98
	L31.49,15.03z M36.05,18.95l0.37-2.12l-2.01-0.74L36.05,18.95z M34.9,36.99l-0.73,4.13l2.39-4.13H34.9z M37.38,5.31
	c-3.33-2.39-7.31-3.92-11.62-4.24l4.03,7L37.38,5.31z M32.86,13.4l3.92,1.43l1.35-7.67L30.8,9.83L32.86,13.4z M37.71,34.99
	l2.64-4.57l-3.29-5.7l-1.81,10.27H37.71z M34.58,44.41c3.37-1.74,6.25-4.31,8.39-7.42h-4.1L34.58,44.41z M40.02,34.99h2.96
	l-1.48-2.57L40.02,34.99z M41.5,28.42l4.65-8.05l-7.82-2.85l-0.72,4.13L41.5,28.42z M40.09,7.58l-1.4,7.94l7.59,2.77
	C45.22,14.16,43.04,10.48,40.09,7.58z M46.97,22.95l-4.31,7.47l2.06,3.57C46.18,30.97,47,27.58,47,24
	C47,23.65,46.99,23.3,46.97,22.95z"/>
</svg>