<?xml version="1.0" encoding="iso-8859-1"?><!-- Generator: Adobe Illustrator 21.1.0, SVG Export Plug-In . SVG Version: 6.00 Build 0)  --><svg xmlns="http://www.w3.org/2000/svg" xmlns:xlink="http://www.w3.org/1999/xlink" viewBox="0 0 50 50" width="500px" height="500px"><g><path style="fill:none;stroke:#000000;stroke-width:2;stroke-linecap:round;stroke-linejoin:round;stroke-miterlimit:10;" d="M29,30.448c1.813,0.452,3,1.202,3,2.052c0,1.381-3.134,2.5-7,2.5s-7-1.119-7-2.5c0-0.85,1.186-1.6,3-2.052"/><path style="fill:none;stroke:#000000;stroke-width:2;stroke-linecap:round;stroke-linejoin:round;stroke-miterlimit:10;" d="M32,36.5c0,1.381-3.134,2.5-7,2.5s-7-1.119-7-2.5"/><path style="fill:none;stroke:#000000;stroke-width:2;stroke-linecap:round;stroke-linejoin:round;stroke-miterlimit:10;" d="M32,40.5c0,1.381-3.134,2.5-7,2.5s-7-1.119-7-2.5"/><path style="fill:none;stroke:#000000;stroke-width:2;stroke-linecap:round;stroke-linejoin:round;stroke-miterlimit:10;" d="M18,32.5v12c0,1.381,3.134,2.5,7,2.5s7-1.119,7-2.5v-12"/><circle style="fill:none;stroke:#000000;stroke-width:2;stroke-miterlimit:10;" cx="25" cy="6" r="3"/><path style="fill:none;stroke:#000000;stroke-width:2;stroke-linecap:round;stroke-linejoin:round;stroke-miterlimit:10;" d="M25,23v7c0,1.105,0.895,2,2,2h0c1.105,0,2-0.895,2-2V17l5.71-5.987c0.586-0.586,0.586-1.536,0-2.121v0c-0.586-0.586-1.536-0.586-2.121,0L26.851,13h-3.702l-5.737-4.109c-0.586-0.586-1.536-0.586-2.121,0l0,0c-0.586,0.586-0.586,1.536,0,2.121L21,17v13c0,1.105,0.895,2,2,2h0c1.105,0,2-0.895,2-2V23"/><ellipse style="fill:none;stroke:#000000;stroke-width:2;stroke-linecap:round;stroke-linejoin:round;stroke-miterlimit:10;" cx="11" cy="36.5" rx="7" ry="2.5"/><path style="fill:none;stroke:#000000;stroke-width:2;stroke-linecap:round;stroke-linejoin:round;stroke-miterlimit:10;" d="M18,40.5c0,1.381-3.134,2.5-7,2.5s-7-1.119-7-2.5"/><ellipse style="fill:none;stroke:#000000;stroke-width:2;stroke-linecap:round;stroke-linejoin:round;stroke-miterlimit:10;" cx="39" cy="40.5" rx="7" ry="2.5"/><path style="fill:none;stroke:#000000;stroke-width:2;stroke-linecap:round;stroke-linejoin:round;stroke-miterlimit:10;" d="M18,44.5c0,1.381-3.134,2.5-7,2.5s-7-1.119-7-2.5v-8"/><path style="fill:none;stroke:#000000;stroke-width:2;stroke-linecap:round;stroke-linejoin:round;stroke-miterlimit:10;" d="M46,40.571V44.5c0,1.381-3.134,2.5-7,2.5s-7-1.119-7-2.5"/></g></svg>