<?xml version="1.0" encoding="utf-8"?><!-- Generator: Adobe Illustrator 15.0.0, SVG Export Plug-In . SVG Version: 6.00 Build 0)  --><!DOCTYPE svg PUBLIC "-//W3C//DTD SVG 1.1//EN" "http://www.w3.org/Graphics/SVG/1.1/DTD/svg11.dtd"><svg xmlns="http://www.w3.org/2000/svg" xmlns:xlink="http://www.w3.org/1999/xlink" viewBox="0 0 50 50" width="500px" height="500px"><g><path d="M20.154,32.551c-0.662,0-1.682,1.333-1.682,3.104c0,0.71,0.262,1.621,0.715,2.291c0.934-1.171,1.795-2.699,1.795-4.356C20.983,32.551,20.443,32.551,20.154,32.551z"/><path d="M30.4,2H7v46h36V14.6L30.4,2z M14,10h13v2H14V10z M14,14h13v2H14V14z M32.508,36.479c-0.793,0-1.684,0.713-2.469,1.342c-0.781,0.624-1.455,1.164-2.227,1.164c-0.834,0-1.125-0.731-1.424-1.612c-0.88,1.405-2.524,3.491-5.785,3.491c-0.425,0-0.818-0.075-1.18-0.21c-0.739,0.715-1.317,1.139-1.385,1.188c-0.177,0.127-0.381,0.188-0.583,0.188c-0.31,0-0.616-0.144-0.811-0.414c-0.323-0.447-0.223-1.072,0.224-1.396c0.012-0.009,0.396-0.291,0.926-0.781c-0.871-1.071-1.322-2.56-1.322-3.783c0-2.767,1.686-5.104,3.682-5.104c1.719,0,2.829,1.192,2.829,3.038c0,2.039-0.918,3.854-1.964,5.258c2.297-0.185,3.306-1.897,3.986-3.053c0.416-0.706,0.775-1.315,1.524-1.315c0.998,0,1.341,1.021,1.703,2.102c0.01,0.029,0.021,0.061,0.031,0.093c0.176-0.135,0.369-0.289,0.525-0.414c0.99-0.793,2.224-1.78,3.719-1.78c0.553,0,1,0.447,1,1S33.061,36.479,32.508,36.479z M37,28H14v-2h23V28z M37,24H14v-2h23V24z M37,20H14v-2h23V20z M30,15V4.4L40.6,15H30z"/></g></svg>