<?xml version="1.0" encoding="iso-8859-1"?>
<!-- Generator: Adobe Illustrator 25.2.3, SVG Export Plug-In . SVG Version: 6.00 Build 0)  -->
<svg version="1.1" baseProfile="basic" id="Layer_1"
	 xmlns="http://www.w3.org/2000/svg" xmlns:xlink="http://www.w3.org/1999/xlink" x="0px" y="0px" viewBox="0 0 50 50"
	 xml:space="preserve">
<path d="M18.35,32.45l-7.66,10.54C5.4,38.78,2,32.28,2,25c0-2.13,0.29-4.19,0.84-6.14l12.39,4.02C15.08,23.56,15,24.27,15,25
	C15,27.97,16.3,30.62,18.35,32.45z"/>
<path d="M15.85,20.98L3.46,16.95C6.61,8.52,14.58,2.43,24,2.03v13.02C20.34,15.41,17.27,17.75,15.85,20.98z"/>
<path d="M30.03,33.63l7.67,10.54C34.06,46.59,29.69,48,25,48s-9.06-1.41-12.7-3.83l7.67-10.54C21.45,34.5,23.16,35,25,35
	S28.55,34.5,30.03,33.63z"/>
<path d="M26,15.05V2.03c9.42,0.4,17.39,6.49,20.54,14.92l-12.39,4.03C32.73,17.75,29.66,15.41,26,15.05z"/>
<path d="M48,25c0,7.28-3.4,13.78-8.69,17.99l-7.66-10.54C33.7,30.62,35,27.97,35,25c0-0.73-0.08-1.44-0.23-2.12l12.39-4.02
	C47.71,20.81,48,22.87,48,25z"/>
<path d="M29,27.642c0.001-2.391-2.004-2.851-3.614-3.221c-1.446-0.332-2.263-0.565-2.263-1.48c0-1.095,0.606-1.605,1.907-1.605
	c1.416,0,1.788,0.871,1.839,1.664h1.855c0.001-0.776-0.314-1.61-0.869-2.218c-0.486-0.531-1.123-0.873-1.856-1.01V18h-0.082h-1.821
	H24v1.77c-2.648,0.444-2.732,2.796-2.732,3.075c0,2.476,2.004,2.924,3.615,3.284c1.446,0.324,2.263,0.555,2.263,1.527
	c0,0.583-0.279,1.562-2.145,1.562c-0.041,0-1.01-0.007-1.618-0.615c-0.359-0.359-0.532-0.877-0.515-1.54L22.869,27h-1.857
	l0.002,0.064c0.06,2.1,1.041,3.301,2.987,3.671V32h0.096h1.821H26v-1.235C28.846,30.303,29,28.097,29,27.642z"/>
</svg>