<?xml version="1.0" encoding="iso-8859-1"?><!-- Generator: Adobe Illustrator 19.2.1, SVG Export Plug-In . SVG Version: 6.00 Build 0)  --><svg xmlns="http://www.w3.org/2000/svg" xmlns:xlink="http://www.w3.org/1999/xlink" viewBox="0 0 50 50" width="500px" height="500px"><line style="fill:none;stroke:#000000;stroke-width:2;stroke-linecap:round;stroke-linejoin:round;stroke-miterlimit:10;" x1="47" y1="47" x2="3" y2="47"/><rect x="4" y="7" style="fill:none;stroke:#000000;stroke-width:2;stroke-linecap:round;stroke-linejoin:round;stroke-miterlimit:10;" width="7" height="40"/><rect x="15" y="3" style="fill:none;stroke:#000000;stroke-width:2;stroke-linecap:round;stroke-linejoin:round;stroke-miterlimit:10;" width="7" height="44"/><rect x="28" y="23" style="fill:none;stroke:#000000;stroke-width:2;stroke-linecap:round;stroke-linejoin:round;stroke-miterlimit:10;" width="7" height="24"/><rect x="39" y="18" style="fill:none;stroke:#000000;stroke-width:2;stroke-linecap:round;stroke-linejoin:round;stroke-miterlimit:10;" width="7" height="29"/><g><circle cx="44" cy="46" r="1"/><circle cx="41" cy="37" r="1"/><circle cx="41" cy="43" r="1"/><circle cx="44" cy="34" r="1"/><circle cx="44" cy="40" r="1"/><circle cx="41" cy="25" r="1"/><circle cx="41" cy="31" r="1"/><circle cx="44" cy="22" r="1"/><circle cx="44" cy="28" r="1"/><circle cx="41" cy="19" r="1"/></g><g><circle cx="17" cy="34" r="1"/><circle cx="17" cy="40" r="1"/><circle cx="20" cy="31" r="1"/><circle cx="20" cy="37" r="1"/><circle cx="17" cy="22" r="1"/><circle cx="17" cy="28" r="1"/><circle cx="20" cy="19" r="1"/><circle cx="20" cy="25" r="1"/><circle cx="17" cy="10" r="1"/><circle cx="17" cy="16" r="1"/><circle cx="20" cy="7" r="1"/><circle cx="20" cy="13" r="1"/><circle cx="17" cy="46" r="1"/><circle cx="20" cy="43" r="1"/><circle cx="17" cy="4" r="1"/></g></svg>