<?xml version="1.0" encoding="iso-8859-1"?><!-- Generator: Adobe Illustrator 21.1.0, SVG Export Plug-In . SVG Version: 6.00 Build 0)  --><svg xmlns="http://www.w3.org/2000/svg" xmlns:xlink="http://www.w3.org/1999/xlink" viewBox="0 0 50 50" width="500px" height="500px"><path style="fill:none;stroke:#000000;stroke-width:2;stroke-linecap:round;stroke-linejoin:round;stroke-miterlimit:10;" d="M25,2c-1.7,0-3,1.3-3,3v5h6V5C28,3.3,26.7,2,25,2z"/><circle cx="25" cy="5" r="1"/><path d="M38,6H28v4h-6V6H12c-1.7,0-3,1.3-3,3v37c0,1.7,1.3,3,3,3h26c1.7,0,3-1.3,3-3V9C41,7.3,39.7,6,38,6z M22,35.414l-6.707-6.707l1.414-1.414L22,32.586l11.293-11.293l1.414,1.414L22,35.414z"/></svg>