<?xml version="1.0" encoding="iso-8859-1"?>
<!-- Generator: Adobe Illustrator 26.4.1, SVG Export Plug-In . SVG Version: 6.00 Build 0)  -->
<svg version="1.1" baseProfile="basic" id="Layer_1"
	 xmlns="http://www.w3.org/2000/svg" xmlns:xlink="http://www.w3.org/1999/xlink" x="0px" y="0px" viewBox="0 0 50 50"
	 xml:space="preserve">
<g>
	<path d="M25,0c-1.848,0-3.359,1.289-3.812,3H9C7.355,3,6,4.355,6,6v39c0,1.645,1.355,3,3,3h32c1.645,0,3-1.355,3-3V6
		c0-1.645-1.355-3-3-3h-8.938C32.043,3,32.02,3,32,3h-3.188C28.359,1.289,26.848,0,25,0z M25,2c1.117,0,2,0.883,2,2
		c0,0.551,0.449,1,1,1h3v2H19V5h3c0.551,0,1-0.449,1-1C23,2.883,23.883,2,25,2z M9,5h8v3c0,0.551,0.449,1,1,1h14
		c0.551,0,1-0.449,1-1V5h8c0.566,0,1,0.434,1,1v39c0,0.566-0.434,1-1,1H9c-0.566,0-1-0.434-1-1V6C8,5.434,8.434,5,9,5z M38,15.938
		c-0.055,0.008-0.105,0.016-0.156,0.031c-0.02,0.008-0.043,0.02-0.062,0.031c-0.258,0.059-0.484,0.215-0.625,0.438l-3.312,4.969
		l-2.125-2.125c-0.207-0.223-0.508-0.336-0.812-0.312c-0.043,0.008-0.086,0.02-0.125,0.031c-0.375,0.066-0.676,0.34-0.781,0.703
		c-0.105,0.367,0.004,0.758,0.281,1.016l2.875,2.875c0.02,0.023,0.039,0.043,0.062,0.062l0.062,0.062
		c0.012,0.012,0.02,0.02,0.031,0.031s0.02,0.02,0.031,0.031s0.02,0.02,0.031,0.031c0.039,0.023,0.082,0.043,0.125,0.062
		c0.02,0.012,0.043,0.023,0.062,0.031c0.02,0.012,0.043,0.023,0.062,0.031c0.012,0,0.02,0,0.031,0
		c0.02,0.012,0.043,0.023,0.062,0.031c0.012,0,0.02,0,0.031,0c0.02,0.012,0.043,0.023,0.062,0.031c0.012,0,0.02,0,0.031,0
		c0.02,0,0.043,0,0.062,0c0.012,0,0.02,0,0.031,0c0.062,0.004,0.125,0.004,0.188,0c0.012,0,0.02,0,0.031,0
		c0.074-0.012,0.148-0.035,0.219-0.062c0.02-0.008,0.043-0.02,0.062-0.031c0.031-0.008,0.062-0.02,0.094-0.031
		c0.023-0.02,0.043-0.039,0.062-0.062c0.02-0.008,0.043-0.02,0.062-0.031c0.035-0.027,0.066-0.059,0.094-0.094
		c0.023-0.031,0.043-0.062,0.062-0.094c0.012-0.012,0.02-0.02,0.031-0.031l0.031-0.031c0.012-0.031,0.023-0.062,0.031-0.094
		l3.938-5.875c0.25-0.309,0.293-0.734,0.109-1.086C38.77,16.121,38.395,15.91,38,15.938z"/>
</g>
<g>
	<path d="M19,27c-4.411,0-8-3.589-8-8s3.589-8,8-8s8,3.589,8,8S23.411,27,19,27z M19,13c-3.309,0-6,2.691-6,6s2.691,6,6,6
		s6-2.691,6-6S22.309,13,19,13z"/>
</g>
<g>
	<path d="M19,23c-1.712,0-3.234-1.088-3.786-2.708c-0.178-0.523,0.101-1.091,0.624-1.269c0.522-0.179,1.091,0.101,1.269,0.624
		C17.383,20.456,18.144,21,19,21c0.847,0,1.605-0.537,1.887-1.335c0.184-0.521,0.756-0.793,1.276-0.611
		c0.521,0.184,0.794,0.755,0.611,1.276C22.21,21.927,20.694,23,19,23z"/>
</g>
<g>
	<circle cx="17" cy="16" r="1"/>
</g>
<g>
	<circle cx="21" cy="16" r="1"/>
</g>
<g>
	<path d="M19,44c-4.411,0-8-3.589-8-8s3.589-8,8-8s8,3.589,8,8S23.411,44,19,44z M19,30c-3.309,0-6,2.691-6,6s2.691,6,6,6
		s6-2.691,6-6S22.309,30,19,30z"/>
</g>
<g>
	<path d="M21.83,39c-0.416,0-0.805-0.262-0.946-0.678c-0.276-0.81-1.037-1.354-1.894-1.354c-0.847,0-1.605,0.536-1.887,1.335
		c-0.184,0.521-0.754,0.791-1.276,0.611c-0.521-0.184-0.794-0.755-0.611-1.275c0.563-1.598,2.079-2.671,3.773-2.671
		c1.712,0,3.234,1.089,3.786,2.709c0.178,0.522-0.101,1.091-0.624,1.269C22.046,38.983,21.937,39,21.83,39z"/>
</g>
<g>
	<circle cx="17" cy="33" r="1"/>
</g>
<g>
	<circle cx="21" cy="33" r="1"/>
</g>
<g>
	<path d="M38,37h-7c-0.553,0-1-0.447-1-1s0.447-1,1-1h7c0.553,0,1,0.447,1,1S38.553,37,38,37z"/>
</g>
</svg>