<?xml version="1.0" encoding="utf-8"?><!-- Generator: Adobe Illustrator 15.0.0, SVG Export Plug-In . SVG Version: 6.00 Build 0)  --><!DOCTYPE svg PUBLIC "-//W3C//DTD SVG 1.1//EN" "http://www.w3.org/Graphics/SVG/1.1/DTD/svg11.dtd"><svg xmlns="http://www.w3.org/2000/svg" xmlns:xlink="http://www.w3.org/1999/xlink" viewBox="0 0 50 50" width="500px" height="500px"><g><path d="M46,0H22c-2.243,0-4,1.757-4,4v16c0,2.243,1.757,4,4,4h15.624l7.718,6.753C45.527,30.915,45.763,31,46,31c0.14,0,0.281-0.029,0.413-0.09C46.771,30.748,47,30.393,47,30v-6.121c1.744-0.433,3-1.982,3-3.879V4C50,1.757,48.243,0,46,0z M35.7,17.6l-0.601-3H32.9l-0.601,3h-1.8L33,6.1h2.1l2.4,11.5H35.7z"/><path d="M34.1,8H34c-0.1,0.8-0.3,1.9-0.4,2.6l-0.5,2.6H35l-0.5-2.6C34.3,9.9,34.2,8.8,34.1,8z"/></g><g><path d="M15.5,26.5c-1.2,0-1.6,2.1-1.6,4.2c0,2.399,0.4,4.399,1.6,4.399c1.1,0,1.5-2,1.5-4.399C17,28.5,16.6,26.5,15.5,26.5z"/><path d="M22,26c-3.364,0-6-2.636-6-6v-1H4c-2.243,0-4,1.757-4,4v16c0,1.896,1.256,3.445,3,3.879V49c0,0.393,0.229,0.748,0.587,0.91C3.719,49.971,3.86,50,4,50c0.238,0,0.473-0.085,0.659-0.247L12.376,43H28c2.243,0,4-1.757,4-4V26H22z M18.7,38.3c-0.9-0.399-2.1-1-2.8-1.399c-0.2-0.101-0.4-0.2-0.5-0.2c-2.1,0-3.4-2-3.4-5.9c0-3.399,1.3-5.8,3.6-5.8c2.4,0,3.3,2.6,3.3,5.7c0,3-0.7,4.7-1.8,5.3v0.1c0.7,0.301,1.5,0.601,2.2,0.801L18.7,38.3z"/></g></svg>