<?xml version="1.0" encoding="iso-8859-1"?>
<!-- Generator: Adobe Illustrator 24.1.2, SVG Export Plug-In . SVG Version: 6.00 Build 0)  -->
<svg version="1.1" baseProfile="basic" id="Layer_1"
	 xmlns="http://www.w3.org/2000/svg" xmlns:xlink="http://www.w3.org/1999/xlink" x="0px" y="0px" viewBox="0 0 50 50"
	 xml:space="preserve">
<path d="M21.889,38.108l-0.301-0.753c-2.12-0.826-3.563-2.062-4.204-3.55c-0.913,0.565-2.094,1.046-3.376,1.562
	c-3.865,1.556-8.676,3.491-9.006,9.578c-0.016,0.274,0.083,0.543,0.272,0.742C5.463,45.887,5.726,46,6,46h13.634L21.889,38.108z"/>
<path d="M33.922,9.779c-1.091-2.239-2.955-3.554-5.291-3.753l-0.736-1.474C27.725,4.214,27.379,4,27,4
	c-4.701,0-8.412,1.724-10.45,4.854c-1.722,2.646-2.014,6.052-0.818,9.228c-0.386,0.535-0.715,1.354-0.623,2.454
	c0.296,2.163,1.12,3.053,1.79,3.416c0.337,1.803,1.32,3.709,2.204,4.61c0,0-0.103,2.885-0.103,3.438
	c0,2.219,2.705,3.336,4.107,3.767L24,38l-2.286,8H26V35.03V35c0-1.657,1.343-3,3-3h0.832l0.001-0.002l0.999-0.033
	c-0.027-0.824-0.03-2.308-0.031-3.313c0.888-0.945,1.786-2.937,2.163-4.557c0.719-0.337,1.625-1.218,1.833-3.511
	c0.084-0.994-0.109-1.846-0.51-2.42C35.195,16.122,35.265,12.534,33.922,9.779z"/>
<path d="M48,34H30c-1.103,0-2,0.897-2,2v12c0,1.103,0.897,2,2,2h18c1.103,0,2-0.897,2-2V36C50,34.897,49.103,34,48,34z
	 M42.707,44.293c0.391,0.391,0.391,1.023,0,1.414C42.512,45.902,42.256,46,42,46s-0.512-0.098-0.707-0.293L39,43.414l-2.293,2.293
	C36.512,45.902,36.256,46,36,46s-0.512-0.098-0.707-0.293c-0.391-0.391-0.391-1.023,0-1.414L37.586,42l-2.293-2.293
	c-0.391-0.391-0.391-1.023,0-1.414s1.023-0.391,1.414,0L39,40.586l2.293-2.293c0.391-0.391,1.023-0.391,1.414,0s0.391,1.023,0,1.414
	L40.414,42L42.707,44.293z"/>
<path style="fill:none;stroke:#000000;stroke-width:2;stroke-miterlimit:10;" d="M42,35v-3c0-0.552-0.448-1-1-1h-4
	c-0.552,0-1,0.448-1,1v3"/>
</svg>