<?xml version="1.0" encoding="iso-8859-1"?>
<!-- Generator: Adobe Illustrator 23.0.3, SVG Export Plug-In . SVG Version: 6.00 Build 0)  -->
<svg version="1.1" id="Layer_1" xmlns="http://www.w3.org/2000/svg" xmlns:xlink="http://www.w3.org/1999/xlink" x="0px" y="0px"
	 viewBox="0 0 50 50" style="enable-background:new 0 0 50 50;" xml:space="preserve">
<path style="fill:none;stroke:#000000;stroke-width:2;stroke-miterlimit:10;" d="M48,18v-6c0-3.3-2.7-6-6-6h-6"/>
<polyline style="fill:none;stroke:#000000;stroke-width:2;stroke-miterlimit:10;" points="40,1 35,6 40,11 "/>
<path style="fill:none;stroke:#000000;stroke-width:2;stroke-miterlimit:10;" d="M2,32v6c0,3.3,2.7,6,6,6h6"/>
<polyline style="fill:none;stroke:#000000;stroke-width:2;stroke-miterlimit:10;" points="9,49 14,44 9,39 "/>
<g>
	<path d="M38,30.5c0-1.378-1.122-2.5-2.5-2.5H30v5h5.5C36.878,33,38,31.878,38,30.5z"/>
	<path d="M36.5,35H30v5h6.5c1.378,0,2.5-1.122,2.5-2.5S37.878,35,36.5,35z"/>
	<path d="M34,18c-8.822,0-16,7.178-16,16s7.178,16,16,16s16-7.178,16-16S42.822,18,34,18z M36.5,42H34v1c0,0.552-0.448,1-1,1
		s-1-0.448-1-1v-1h-4V26h4v-1c0-0.552,0.448-1,1-1s1,0.448,1,1v1h1.5c2.481,0,4.5,2.019,4.5,4.5c0,1.203-0.475,2.298-1.247,3.106
		C40.096,34.386,41,35.839,41,37.5C41,39.981,38.981,42,36.5,42z"/>
</g>
<path d="M16.118,31.997c0.924-8.339,7.54-14.955,15.879-15.879C31.997,16.077,32,16.041,32,16c0-8.822-7.178-16-16-16S0,7.178,0,16
	s7.178,16,16,16C16.041,32,16.077,31.997,16.118,31.997z M12,21.8c-0.9-0.9-1.4-2.1-1.5-3.7h1.9c-0.1,1.1,0.3,1.9,0.8,2.4
	c0.506,0.506,1.091,0.793,1.8,0.992v-5.896c-0.631-0.166-1.186-0.331-1.6-0.497c-0.6-0.2-1-0.5-1.4-0.8s-0.7-0.7-0.8-1.2
	c-0.2-0.5-0.3-1-0.3-1.7c0-0.7,0.1-1.3,0.4-1.8c0.2-0.6,0.6-1,1-1.5c0.4-0.4,0.9-0.7,1.5-1c0.4-0.133,0.8-0.261,1.2-0.335V5
	c0-0.552,0.448-1,1-1h0c0.552,0,1,0.448,1,1v1.734C18.108,6.871,19.041,7.341,19.7,8c0.7,0.7,1.2,1.8,1.5,3.1h-1.9
	c-0.285-1.425-1.027-2.212-2.3-2.545v5.507l1.1,0.338c0.3,0.1,0.6,0.2,1,0.4c0.4,0.2,0.8,0.4,1.2,0.8c0.4,0.3,0.7,0.7,0.9,1.2
	c0.3,0.5,0.4,1.1,0.4,1.8s-0.1,1.4-0.4,1.9c-0.2,0.6-0.6,1.1-1,1.5c-0.4,0.4-0.9,0.7-1.5,1c-0.52,0.173-1.049,0.339-1.7,0.382V25
	c0,0.552-0.448,1-1,1h0c-0.552,0-1-0.448-1-1v-1.678C13.739,23.133,12.706,22.595,12,21.8z"/>
<g>
	<path d="M13.6,9.3c-0.5,0.4-0.7,1.1-0.7,1.9c0,0.4,0.1,0.7,0.2,1c0.1,0.3,0.3,0.5,0.5,0.7c0.2,0.2,0.5,0.3,0.8,0.5
		c0.18,0.06,0.391,0.151,0.6,0.24V8.634C14.506,8.705,13.992,8.908,13.6,9.3z"/>
	<path d="M18.7,17c-0.3-0.2-0.6-0.4-0.9-0.5c-0.291-0.073-0.538-0.189-0.8-0.291v5.414c0.293-0.075,0.577-0.149,0.8-0.223
		c0.3-0.1,0.7-0.3,0.9-0.5c0.3-0.2,0.5-0.5,0.6-0.9c0.1-0.3,0.2-0.8,0.2-1.2s-0.1-0.8-0.2-1.1C19.2,17.4,19,17.2,18.7,17z"/>
</g>
</svg>