<?xml version="1.0" encoding="iso-8859-1"?><!-- Generator: Adobe Illustrator 23.0.3, SVG Export Plug-In . SVG Version: 6.00 Build 0)  --><svg xmlns="http://www.w3.org/2000/svg" xmlns:xlink="http://www.w3.org/1999/xlink" viewBox="0 0 50 50" width="500px" height="500px"><path style="fill:none;stroke:#000000;stroke-width:2;stroke-linecap:round;stroke-linejoin:round;stroke-miterlimit:10;" d="M27,39.934c0-0.714,0-1.127,0-1.734c0.277-0.158,1.317-1.225,1.317-2.188c0.218-0.019,0.561-0.25,0.661-1.161c0.054-0.489-0.116-0.797-0.292-0.851C29.378,31.762,29,29,26,29l-0.364-1c-4.136,0-5.293,2.656-4.339,5.985c-0.13,0.086-0.346,0.362-0.292,0.851c0.101,0.911,0.444,1.142,0.661,1.161c0,1.02,1.056,2.046,1.334,2.203c0,0.736,0,1.076,0,1.734c-0.664,1.941-4.793,1.324-5,5.066h14C31.793,41.258,27.664,41.874,27,39.934z"/><path style="fill:none;stroke:#000000;stroke-width:2;stroke-linecap:round;stroke-linejoin:round;stroke-miterlimit:10;" d="M27,16.934c0-0.714,0-1.127,0-1.734c0.277-0.158,1.317-1.225,1.317-2.188c0.218-0.019,0.561-0.25,0.661-1.161c0.054-0.489-0.116-0.797-0.292-0.851C29.378,8.762,29,6,26,6l-0.364-1c-4.136,0-5.293,2.656-4.339,5.985c-0.13,0.086-0.346,0.362-0.292,0.851c0.101,0.911,0.444,1.142,0.661,1.161c0,1.02,1.056,2.046,1.334,2.203c0,0.736,0,1.076,0,1.734c-0.664,1.941-4.793,1.324-5,5.066h14C31.793,18.258,27.664,18.874,27,16.934z"/><path style="fill:none;stroke:#000000;stroke-width:2;stroke-linecap:round;stroke-linejoin:round;stroke-miterlimit:10;" d="M44,39.934c0-0.714,0-1.127,0-1.734c0.277-0.158,1.317-1.225,1.317-2.188c0.218-0.019,0.561-0.25,0.661-1.161c0.054-0.489-0.116-0.797-0.292-0.851C46.378,31.762,46,29,43,29l-0.364-1c-4.136,0-5.293,2.656-4.339,5.985c-0.13,0.086-0.346,0.362-0.292,0.851c0.101,0.911,0.444,1.142,0.661,1.161c0,1.02,1.056,2.046,1.334,2.203c0,0.736,0,1.076,0,1.734c-0.664,1.941-4.793,1.324-5,5.066h14C48.793,41.258,44.664,41.874,44,39.934z"/><path style="fill:none;stroke:#000000;stroke-width:2;stroke-linecap:round;stroke-linejoin:round;stroke-miterlimit:10;" d="M10,39.934c0-0.714,0-1.127,0-1.734c0.277-0.158,1.317-1.225,1.317-2.188c0.218-0.019,0.561-0.25,0.661-1.161c0.054-0.489-0.116-0.797-0.292-0.851C12.378,31.762,12,29,9,29l-0.364-1c-4.136,0-5.293,2.656-4.339,5.985c-0.13,0.086-0.346,0.362-0.292,0.851c0.101,0.911,0.444,1.142,0.661,1.161c0,1.02,1.056,2.046,1.334,2.203c0,0.736,0,1.076,0,1.734C5.336,41.875,1.207,41.258,1,45h14C14.793,41.258,10.664,41.874,10,39.934z"/><polyline style="fill:none;stroke:#000000;stroke-width:2;stroke-linecap:round;stroke-linejoin:round;stroke-miterlimit:10;" points="33,14 42,14 42,24 "/><polyline style="fill:none;stroke:#000000;stroke-width:2;stroke-linecap:round;stroke-linejoin:round;stroke-miterlimit:10;" points="8,24 8,14 17,14 "/></svg>