<?xml version="1.0" encoding="utf-8"?><!-- Generator: Adobe Illustrator 19.1.1, SVG Export Plug-In . SVG Version: 6.00 Build 0)  --><svg xmlns="http://www.w3.org/2000/svg" xmlns:xlink="http://www.w3.org/1999/xlink" viewBox="0 0 50 50" width="500px" height="500px"><g><path d="M43,5H7c-2.8,0-5,2.2-5,5v30c0,2.8,2.2,5,5,5h36c2.8,0,5-2.2,5-5V10C48,7.2,45.8,5,43,5z M22.3,32h-2l-7.2-9.9H13V32h-2.1V18h2l7.2,9.9h0.2V18h2.1V32z M36.8,32l-1.3-3.7h-5.3L28.9,32h-2.2l5.1-14h2.3l5.1,14H36.8z"/><polygon points="32.8,20.5 30.8,26.5 35,26.5 33,20.5 "/></g></svg>