<?xml version="1.0" encoding="iso-8859-1"?><!-- Generator: Adobe Illustrator 21.1.0, SVG Export Plug-In . SVG Version: 6.00 Build 0)  --><svg xmlns="http://www.w3.org/2000/svg" xmlns:xlink="http://www.w3.org/1999/xlink" viewBox="0 0 50 50" width="500px" height="500px"><path style="fill:none;stroke:#000000;stroke-width:2;stroke-linecap:round;stroke-linejoin:round;stroke-miterlimit:10;" d="M25,2c-1.7,0-3,1.3-3,3v5h6V5C28,3.3,26.7,2,25,2z"/><circle cx="25" cy="5" r="1"/><path d="M38,6H28v4h-6V6H12c-1.7,0-3,1.3-3,3v37c0,1.7,1.3,3,3,3h26c1.7,0,3-1.3,3-3V9C41,7.3,39.7,6,38,6z M32.707,33.707l-7,7C25.512,40.902,25.256,41,25,41s-0.512-0.098-0.707-0.293l-7-7c-0.391-0.391-0.391-1.023,0-1.414s1.023-0.391,1.414,0L24,37.586V18c0-0.552,0.447-1,1-1s1,0.448,1,1v19.586l5.293-5.293c0.391-0.391,1.023-0.391,1.414,0S33.098,33.316,32.707,33.707z"/></svg>