<?xml version="1.0" encoding="iso-8859-1"?><!-- Generator: Adobe Illustrator 21.1.0, SVG Export Plug-In . SVG Version: 6.00 Build 0)  --><svg xmlns="http://www.w3.org/2000/svg" xmlns:xlink="http://www.w3.org/1999/xlink" viewBox="0 0 50 50" width="500px" height="500px"><polyline style="fill:none;stroke:#000000;stroke-width:2;stroke-linecap:round;stroke-linejoin:round;stroke-miterlimit:10;" points="11,45 11,25 39,25 39,45 "/><line style="fill:none;stroke:#000000;stroke-width:2;stroke-linecap:round;stroke-linejoin:round;stroke-miterlimit:10;" x1="25" y1="25" x2="25" y2="45"/><path d="M44,10H6c-0.552,0-1-0.448-1-1V5c0-0.552,0.448-1,1-1h38c0.553,0,1,0.448,1,1v4C45,9.552,44.553,10,44,10z"/><circle cx="29" cy="34" r="1"/><circle cx="21" cy="34" r="1"/><path style="fill:none;stroke:#000000;stroke-width:2;stroke-linecap:round;stroke-linejoin:round;stroke-miterlimit:10;" d="M40,17c0,1.657,1.343,3,3,3s3-1.343,3-3c0-0.347-2-8-2-8H6c0,0-2,7.653-2,8c0,1.657,1.343,3,3,3s3-1.343,3-3"/><path style="fill:none;stroke:#000000;stroke-width:2;stroke-linecap:round;stroke-linejoin:round;stroke-miterlimit:10;" d="M34,17c0,1.657,1.343,3,3,3s3-1.343,3-3"/><path style="fill:none;stroke:#000000;stroke-width:2;stroke-linecap:round;stroke-linejoin:round;stroke-miterlimit:10;" d="M28,17c0,1.657,1.343,3,3,3c1.657,0,3-1.343,3-3"/><path style="fill:none;stroke:#000000;stroke-width:2;stroke-linecap:round;stroke-linejoin:round;stroke-miterlimit:10;" d="M22,17c0,1.657,1.343,3,3,3s3-1.343,3-3"/><path style="fill:none;stroke:#000000;stroke-width:2;stroke-linecap:round;stroke-linejoin:round;stroke-miterlimit:10;" d="M16,17c0,1.657,1.343,3,3,3s3-1.343,3-3"/><path style="fill:none;stroke:#000000;stroke-width:2;stroke-linecap:round;stroke-linejoin:round;stroke-miterlimit:10;" d="M10,17c0,1.657,1.343,3,3,3s3-1.343,3-3"/><path d="M4,19v26c0,0.553,0.448,1,1,1h40c0.553,0,1-0.447,1-1V19H4z M39,44H11V25h28V44z"/></svg>