<?xml version="1.0" encoding="iso-8859-1"?>
<!-- Generator: Adobe Illustrator 24.1.2, SVG Export Plug-In . SVG Version: 6.00 Build 0)  -->
<svg version="1.1" id="Layer_1" xmlns="http://www.w3.org/2000/svg" xmlns:xlink="http://www.w3.org/1999/xlink" x="0px" y="0px"
	 viewBox="0 0 50 50" style="enable-background:new 0 0 50 50;" xml:space="preserve">
<g>
</g>
<g>
	<path style="fill:none;stroke:#000000;stroke-width:2;stroke-linecap:round;stroke-linejoin:round;stroke-miterlimit:10;" d="M25,3
		C12.85,3,3,12.85,3,25s9.85,22,22,22s22-9.85,22-22S37.15,3,25,3z"/>
	<path d="M24.783,26.144C21.761,25.472,18,24.636,18,20.334c-0.001-0.094-0.009-2.596,1.817-4.443
		c1.045-1.057,2.451-1.67,4.183-1.838V11h2v3.071c3.868,0.517,4.976,4.002,5,5.916l-2,0.025C28.991,19.605,28.805,16,25,16
		c-2.093,0-3.562,0.704-4.365,2.093C20.006,19.18,20,20.316,20,20.327c0,2.574,1.982,3.146,5.217,3.863
		C28.239,24.862,32,25.698,32,30c0,4.151-3.502,5.63-6,5.936V39h-2v-3.046c-4.716-0.443-6-4.01-6-5.954h1l1-0.007
		C20.005,30.403,20.191,34,25,34c0.202-0.001,5-0.07,5-4C30,27.433,28.018,26.861,24.783,26.144z"/>
</g>
</svg>