<?xml version="1.0" encoding="iso-8859-1"?><!-- Generator: Adobe Illustrator 19.1.1, SVG Export Plug-In . SVG Version: 6.00 Build 0)  --><svg xmlns="http://www.w3.org/2000/svg" xmlns:xlink="http://www.w3.org/1999/xlink" viewBox="0 0 50 50" width="500px" height="500px"><path style="fill:none;stroke:#000000;stroke-width:2;stroke-linecap:round;stroke-linejoin:round;stroke-miterlimit:10;" d="M47,13l-7-7v3H3v8v7v4h11c0.552,0,1,0.448,1,1v12h-2l4,4l4-4h-2V28c0-2.206-1.794-4-4-4c3.922,0,10.268,0,11,0c1.975,0,2,2,2,2v6h-3l6.5,7l6.5-7h-3v-6c0-4.963-4.038-9-9-9h14v3L47,13z"/></svg>