<?xml version="1.0" encoding="iso-8859-1"?><!-- Generator: Adobe Illustrator 22.0.1, SVG Export Plug-In . SVG Version: 6.00 Build 0)  --><svg xmlns="http://www.w3.org/2000/svg" xmlns:xlink="http://www.w3.org/1999/xlink" viewBox="0 0 50 50" width="500px" height="500px"><path d="M40,35v1c0,0.55-0.45,1-1,1h-2c-0.55,0-1-0.45-1-1v-1H40z"/><path d="M50,43.93c0.02,0.27-0.08,0.55-0.27,0.75S49.28,45,49,45H33.83c0.16-0.45,0.21-0.94,0.14-1.42c-0.35-2.48-1.45-4.25-2.84-5.58c0.2-0.08,0.39-0.16,0.59-0.24c0.85-0.34,1.72-0.69,2.36-1.09c0.24,1.07,1.07,1.92,2.13,2.21c0.33,0.66,1,1.12,1.79,1.12s1.46-0.46,1.79-1.12c1.04-0.29,1.85-1.1,2.11-2.14c0.62,0.42,1.46,0.77,2.33,1.14C46.68,38.91,49.72,40.2,50,43.93z"/><path d="M46,25c0,3.18-1.45,4.94-2.61,6.35c-0.48,0.6-0.91,1.12-1.15,1.65h-8.47c-0.24-0.56-0.68-1.09-1.18-1.7C31.44,29.89,30,28.14,30,25c0-4.41,3.59-8,8-8S46,20.59,46,25z"/><path d="M13,33h6v2c0,0.55-0.45,1-1,1h-4c-0.55,0-1-0.45-1-1V33z"/><path d="M26,20c0,3.14-1.75,5.56-3.17,7.49C21.85,28.85,21,30.02,21,31H11c-0.03-1-0.88-2.17-1.86-3.53C7.74,25.54,6,23.14,6,20.03c0-5.37,4.35-9.86,9.69-10.03c2.72-0.07,5.32,0.92,7.27,2.82C24.92,14.72,26,17.27,26,20z"/><path d="M13,33h6v2c0,0.55-0.45,1-1,1h-4c-0.55,0-1-0.45-1-1V33z"/><path d="M31.99,43.86c0.04,0.29-0.04,0.58-0.23,0.8C31.57,44.87,31.29,45,31,45H1c-0.29,0-0.57-0.13-0.76-0.34c-0.19-0.22-0.27-0.51-0.23-0.8c0.66-4.61,4.52-6.2,7.62-7.48c1.32-0.54,2.52-1.04,3.37-1.68V35c0,1.65,1.35,3,3,3h0.28c0.34,0.6,0.98,1,1.72,1s1.38-0.4,1.72-1H18c1.65,0,3-1.35,3-3v-0.3c0.85,0.64,2.05,1.14,3.37,1.68C27.47,37.66,31.33,39.25,31.99,43.86z"/><line style="fill:none;stroke:#000000;stroke-width:2;stroke-linecap:round;stroke-linejoin:round;stroke-miterlimit:10;" x1="12.626" y1="7.445" x2="12.107" y2="5.514"/><line style="fill:none;stroke:#000000;stroke-width:2;stroke-linecap:round;stroke-linejoin:round;stroke-miterlimit:10;" x1="6.801" y1="10.814" x2="5.386" y2="9.401"/><line style="fill:none;stroke:#000000;stroke-width:2;stroke-linecap:round;stroke-linejoin:round;stroke-miterlimit:10;" x1="25.186" y1="10.801" x2="26.599" y2="9.386"/><line style="fill:none;stroke:#000000;stroke-width:2;stroke-linecap:round;stroke-linejoin:round;stroke-miterlimit:10;" x1="19.355" y1="7.44" x2="19.872" y2="5.508"/><line style="fill:none;stroke:#000000;stroke-width:2;stroke-linecap:round;stroke-linejoin:round;stroke-miterlimit:10;" x1="35.181" y1="14.367" x2="34.668" y2="12.434"/><line style="fill:none;stroke:#000000;stroke-width:2;stroke-linecap:round;stroke-linejoin:round;stroke-miterlimit:10;" x1="30.242" y1="17.202" x2="28.832" y2="15.784"/><line style="fill:none;stroke:#000000;stroke-width:2;stroke-linecap:round;stroke-linejoin:round;stroke-miterlimit:10;" x1="45.798" y1="17.242" x2="47.216" y2="15.832"/><line style="fill:none;stroke:#000000;stroke-width:2;stroke-linecap:round;stroke-linejoin:round;stroke-miterlimit:10;" x1="40.875" y1="14.382" x2="41.397" y2="12.452"/></svg>