<?xml version="1.0" encoding="utf-8"?><!-- Generator: Adobe Illustrator 20.1.0, SVG Export Plug-In . SVG Version: 6.00 Build 0)  --><svg xmlns="http://www.w3.org/2000/svg" xmlns:xlink="http://www.w3.org/1999/xlink" viewBox="0 0 50 50" width="500px" height="500px"><path d="M25.9,4.5c0.5-0.1,1-0.1,1.4,0.2c1.3,0.8,0.9,2.8,0.3,4.8l-4.8-3C23.8,5.5,24.9,4.7,25.9,4.5z"/><path d="M5.1,39l0.7-1c0,0,0,0,0,0c0-0.8,0-2.8,1.1-5.9l4.8,3c-2.3,2.4-4.1,3.3-4.8,3.6c0,0,0,0,0,0l-0.6,1C6.1,39.8,6,39.9,5.8,40c-0.2,0-0.3,0-0.5-0.1C5,39.7,4.9,39.3,5.1,39z"/><path d="M44.4,17.7l-5.8,0.8l0.1,0.8l-10.5-6.6l0,0l0,0c-0.9-0.5-2.2-1.4-3.2-1.3c0,0.7-0.2,1.2-0.5,1.9c0.4-0.1,2.1,0.9,2.7,1.2l11.1,7l0.7,0l1.4,9.7l-8,1.7c-2,0.4-4.1,0.2-5.9-0.7l-10.9-5.5c-1-0.5-1.5-1.6-1-2.7l0,0l0,0c0.4-1,1.4-1.5,2.4-1.3l8.1,2l3.1-4.5l-1.8-1.1l-2.2,3.3l-7.1-1.8c-1.9-0.3-3.7,0.8-4.4,2.6c0,0,0,0,0,0c-0.5,1.1-0.3,2.3,0.2,3.4c0.4,0.8,1,1.3,1.4,1.6c0.1,0.1,11.4,5.8,11.4,5.8c2.2,1.2,4.8,1.4,7.2,0.9l7.9-1.7l0.4,2.9l5.8-0.8L44.4,17.7z M40.9,20.2l1.8-0.2l2,13.6l-1.8,0.3L40.9,20.2z"/><path d="M9,27.6c-0.3,0.6-1,1.3-2,1.4c-0.9,0.1-1.9-0.5-2.2-1.4c-0.2-0.5-0.1-1,0.1-1.4l4.4-10.9c0.1-0.3,0.4-0.5,0.7-0.6l10-1.8l-0.4-2L9.2,12.8C8.6,12.9,8,13.4,7.7,14L3,25.5c-0.2,0.6-0.4,1.2-0.3,1.8C2.9,29.5,4.8,31.2,7,31c1-0.1,2-0.4,2.8-1.2c0-0.4,0.2-0.8,0.4-1.2C9.7,28.3,9.3,28,9,27.6z"/><path d="M21.4,8c-1.2,1.5-3.9,5-6.7,9.4C11.9,22,8.9,27.8,7.6,30.2l5.4,3.4c0.8-1.1,2.3-3.2,4-5.5h-1.5v-1.2c0,0-2.4,3.2-3,4l-2.3-1.4c1.5-2.8,3.9-7.2,6.2-10.9c2-3.2,4-6,5.5-7.8l2.4,1.5c-1,2-2.5,4.9-4.4,8c0,0-1.1,1.9-1.1,1.9c0.7,0,1.3,0.3,1.9,0.7c0.2-0.4,0.5-0.8,0.7-1.1c2.7-4.4,4.7-8.4,5.5-10.2L21.4,8z"/></svg>