<?xml version="1.0" encoding="iso-8859-1"?><!-- Generator: Adobe Illustrator 22.1.0, SVG Export Plug-In . SVG Version: 6.00 Build 0)  --><svg xmlns="http://www.w3.org/2000/svg" xmlns:xlink="http://www.w3.org/1999/xlink" viewBox="0 0 50 50" width="500px" height="500px"><g><path d="M31,30.003c-1.537,0-3.073,0.585-4.243,1.754c-2.339,2.34-2.339,6.146,0,8.486c2.34,2.338,6.146,2.336,8.486,0c2.339-2.34,2.339-6.146,0-8.486C34.073,30.588,32.536,30.003,31,30.003z M34.535,38.121l-1.414,1.414L31,37.414l-2.121,2.121l-1.414-1.414L29.586,36l-2.121-2.121l1.414-1.414L31,34.586l2.121-2.121l1.414,1.414L32.414,36L34.535,38.121z"/><path d="M30.4,2H7v46h36V14.6L30.4,2z M14,10h13v2H14V10z M14,14h13v2H14V14z M14,18h23v2H14V18z M14,22h23v2H14V22z M14,26h10v2H14V26z M36.657,41.657c-1.56,1.56-3.608,2.339-5.657,2.339s-4.098-0.779-5.657-2.339c-3.118-3.119-3.118-8.195,0-11.314c3.119-3.119,8.195-3.119,11.314,0C39.775,33.462,39.775,38.538,36.657,41.657z M30,15V4.4L40.6,15H30z"/></g></svg>