<?xml version="1.0" encoding="iso-8859-1"?><!-- Generator: Adobe Illustrator 23.0.3, SVG Export Plug-In . SVG Version: 6.00 Build 0)  --><svg xmlns="http://www.w3.org/2000/svg" xmlns:xlink="http://www.w3.org/1999/xlink" viewBox="0 0 50 50" width="500px" height="500px"><path style="fill:none;stroke:#000000;stroke-width:2;stroke-linejoin:round;stroke-miterlimit:10;" d="M39,6h6v36c0,2.75-2.25,5-5,5l0,0c-2.75,0-5-2.25-5-5v-5H5v5c0,2.75,2.25,5,5,5l0,0h30"/><path style="fill:none;stroke:#000000;stroke-width:2;stroke-linejoin:round;stroke-miterlimit:10;" d="M17,6h-6v28"/><path style="fill:none;stroke:#000000;stroke-width:2;stroke-linejoin:round;stroke-miterlimit:10;" d="M38,10h-2c-0.552,0-1-0.448-1-1V3c0-0.552,0.448-1,1-1h2c0.552,0,1,0.448,1,1v6C39,9.552,38.552,10,38,10z"/><path style="fill:none;stroke:#000000;stroke-width:2;stroke-linejoin:round;stroke-miterlimit:10;" d="M20,10h-2c-0.552,0-1-0.448-1-1V3c0-0.552,0.448-1,1-1h2c0.552,0,1,0.448,1,1v6C21,9.552,20.552,10,20,10z"/><line style="fill:none;stroke:#000000;stroke-width:2;stroke-linejoin:round;stroke-miterlimit:10;" x1="35.167" y1="6" x2="21" y2="6"/><line style="fill:none;stroke:#000000;stroke-width:2;stroke-linejoin:round;stroke-miterlimit:10;" x1="17" y1="17" x2="39" y2="17"/><line style="fill:none;stroke:#000000;stroke-width:2;stroke-linejoin:round;stroke-miterlimit:10;" x1="17" y1="23" x2="39" y2="23"/><line style="fill:none;stroke:#000000;stroke-width:2;stroke-linejoin:round;stroke-miterlimit:10;" x1="17" y1="29" x2="29" y2="29"/></svg>