<?xml version="1.0" encoding="iso-8859-1"?><!-- Generator: Adobe Illustrator 19.2.0, SVG Export Plug-In . SVG Version: 6.00 Build 0)  --><svg xmlns="http://www.w3.org/2000/svg" xmlns:xlink="http://www.w3.org/1999/xlink" viewBox="0 0 50 50" width="500px" height="500px"><g><g><g><path style="fill:none;" d="M0,50V0h50v50H0z"/><g><path d="M28.901,35.451C28.341,35.161,27.696,35,27,35c-2.276,0-4,1.724-4,4s1.724,4,4,4c0.47,0,0.917-0.074,1.33-0.21c0.156,0.651,0.366,1.282,0.625,1.887C28.342,44.886,27.685,45,27,45c-3.324,0-6-2.676-6-6s2.676-6,6-6c1.015,0,1.969,0.249,2.805,0.69C29.457,34.249,29.154,34.837,28.901,35.451z M41.074,28.048C40.72,28.016,40.362,28,40,28c-0.893,0-1.765,0.099-2.604,0.286c0.823-0.72,1.775-1.343,2.729-2.036c2.914-2.118,5.923-4.612,5.875-11.344c0-1.814-1.126-5.127-4.156-7.875S33.91,2,26.313,2c-5.645,0-10.977,1.739-14.875,5.281S5,16.165,5,23.688C5,35.67,14.329,48,27.406,48H27.5h0.094c1.07-0.019,2.105-0.182,3.074-0.478c0.46,0.57,0.972,1.097,1.527,1.574c-1.424,0.571-2.977,0.875-4.569,0.904c-0.01,0-0.021,0-0.031,0H27.5h-0.094C13.083,50,3,36.705,3,23.688C3,15.71,5.767,9.745,10.094,5.813S20.257,0,26.312,0c8.003,0,13.424,2.461,16.844,5.563C46.576,8.664,48,12.32,48,14.906c0.052,7.369-3.651,10.762-6.688,12.969C41.232,27.933,41.153,27.991,41.074,28.048z M29.75,6.719C30.535,7.728,31,9.047,31,10.5s-0.465,2.772-1.25,3.781S27.814,16,26.5,16s-2.465-0.71-3.25-1.719S22,11.953,22,10.5s0.465-2.772,1.25-3.781S25.186,5,26.5,5S28.965,5.71,29.75,6.719z M18.75,11.719C19.535,12.728,20,14.047,20,15.5s-0.465,2.772-1.25,3.781S16.814,21,15.5,21s-2.465-0.71-3.25-1.719S11,16.953,11,15.5s0.465-2.772,1.25-3.781S14.186,10,15.5,10S17.965,10.71,18.75,11.719z M40.75,11.719C41.535,12.728,42,14.047,42,15.5s-0.465,2.772-1.25,3.781S38.814,21,37.5,21s-2.465-0.71-3.25-1.719S33,16.953,33,15.5s0.465-2.772,1.25-3.781S36.186,10,37.5,10S39.965,10.71,40.75,11.719z M17.75,24.719C18.535,25.728,19,27.047,19,28.5s-0.465,2.772-1.25,3.781C16.965,33.29,15.814,34,14.5,34s-2.465-0.71-3.25-1.719C10.465,31.272,10,29.953,10,28.5s0.465-2.772,1.25-3.781S13.186,23,14.5,23S16.965,23.71,17.75,24.719z M35.813,12.938C35.33,13.557,35,14.468,35,15.5s0.33,1.943,0.813,2.563S36.881,19,37.5,19c0.619,0,1.205-0.318,1.688-0.938S40,16.532,40,15.5s-0.33-1.943-0.813-2.563C38.705,12.318,38.119,12,37.5,12C36.881,12,36.295,12.318,35.813,12.938z M12.813,25.938C12.33,26.557,12,27.468,12,28.5s0.33,1.943,0.813,2.563S13.881,32,14.5,32s1.205-0.318,1.688-0.938S17,29.532,17,28.5s-0.33-1.943-0.813-2.563S15.119,25,14.5,25S13.295,25.318,12.813,25.938z M24.813,7.938C24.33,8.557,24,9.468,24,10.5s0.33,1.943,0.813,2.563C25.295,13.682,25.881,14,26.5,14s1.205-0.318,1.688-0.938S29,11.532,29,10.5s-0.33-1.943-0.813-2.563S27.119,7,26.5,7S25.295,7.318,24.813,7.938z M13.813,12.938C13.33,13.557,13,14.468,13,15.5s0.33,1.943,0.813,2.563S14.881,19,15.5,19s1.205-0.318,1.688-0.938S18,16.532,18,15.5s-0.33-1.943-0.813-2.563C16.705,12.318,16.119,12,15.5,12S14.295,12.318,13.813,12.938z"/></g><g><g><g ></g><g ></g><g ></g><g ></g><g ></g><g ></g><g ></g><g ><path d="M40,30c-5.5,0-10,4.5-10,10s4.5,10,10,10s10-4.5,10-10S45.5,30,40,30z M40,48c-4.4,0-8-3.6-8-8s3.6-8,8-8s8,3.6,8,8S44.4,48,40,48z M39,37.7c0,2.1,4.5,1.3,4.5,4.8c0,2.5-2.4,2.8-2.8,2.8v1.4h-1.1v-1.4c-0.4,0-3-0.3-3-3.3h2c0,0.3,0,1.7,1.5,1.7c1.3,0,1.3-1,1.3-1.2c0-2.2-4.5-1.3-4.5-4.8c0-2.1,1.9-2.8,2.8-2.8v-1.5h1.1v1.5c0.7,0.1,2.6,0.6,2.6,3.2h-2c0-0.6-0.1-1.7-1.3-1.7C39,36.5,39,37.5,39,37.7z"/></g></g></g></g></g></g></svg>