<?xml version="1.0" encoding="utf-8"?><!-- Generator: Adobe Illustrator 15.0.0, SVG Export Plug-In . SVG Version: 6.00 Build 0)  --><!DOCTYPE svg PUBLIC "-//W3C//DTD SVG 1.1//EN" "http://www.w3.org/Graphics/SVG/1.1/DTD/svg11.dtd"><svg xmlns="http://www.w3.org/2000/svg" xmlns:xlink="http://www.w3.org/1999/xlink" viewBox="0 0 50 50" width="500px" height="500px"><path d="M35.4,24.8c0,0.8,0.399,1.2,1,1.2c0.8,0,1.6-0.9,1.8-2.1l0.2-1.9c-0.2,0-0.4-0.1-0.601-0.1C36.4,21.9,35.4,23.2,35.4,24.8z"/><path d="M47,7H3c-1.654,0-3,1.346-3,3v33c0,1.654,1.346,3,3,3h6h0l0,0c0.552,0,1-0.447,1-1v-1.5c-0.6-0.5-1-1.2-1-2c0-1.4,1.1-2.5,2.5-2.5s2.5,1.1,2.5,2.5c0,0.8-0.4,1.5-1,2V45c0,0.553,0.447,1,1,1l0,0h0h22c0.553,0,1-0.447,1-1v-1.5c-0.6-0.5-1-1.2-1-2c0-1.4,1.1-2.5,2.5-2.5s2.5,1.1,2.5,2.5c0,0.8-0.4,1.5-1,2V45c0,0.553,0.447,1,1,1h6c1.654,0,3-1.346,3-3V10C50,8.346,48.654,7,47,7z M7,34c0.3-4.5,6.2-3.8,7.2-6.1c0-0.801,0-1.4,0-2.101c-0.4-0.2-1.1-1.4-1.2-2.4c-0.3,0-0.8-0.3-0.9-1.4c-0.1-0.6,0.2-0.9,0.4-1c-1-3.7-0.4-6.9,4-7c1.1,0,2,0.3,2.3,0.9c3.2,0.4,2.3,4.7,1.8,6.1c0.2,0.1,0.5,0.4,0.4,1c-0.2,1.1-0.6,1.4-0.9,1.4c-0.1,1-0.7,2.2-1.1,2.4c0,0.8-0.1,1.3,0,2.101c0.8,2.3,6.7,1.6,7,6.1H7z M40.1,27.6c-1,0-1.699-0.5-1.8-1.5c-0.7,1-1.6,1.5-2.7,1.5c-1.3,0-2.3-1-2.3-2.6c0-2.5,1.9-4.7,4.9-4.7c0.899,0,1.899,0.2,2.5,0.5L40.1,24.5c-0.199,1.2-0.1,1.7,0.5,1.7c0.9,0,2-1.1,2-3.4c0-2.6-1.699-4.6-4.899-4.6s-5.9,2.4-5.9,6.3c0,3.4,2.2,5.3,5.3,5.3c1.101,0,2.2-0.2,3-0.6l0.2,1.1C39,30.8,37.9,31,36.5,31C33,31,30,28.6,30,24.7c0-4.1,3.1-7.7,7.7-7.7c3.7,0,6.3,2.4,6.3,5.8C44,25.8,42.3,27.6,40.1,27.6z"/></svg>