<?xml version="1.0" encoding="utf-8"?><!-- Generator: Adobe Illustrator 17.0.0, SVG Export Plug-In . SVG Version: 6.00 Build 0)  --><!DOCTYPE svg PUBLIC "-//W3C//DTD SVG 1.1//EN" "http://www.w3.org/Graphics/SVG/1.1/DTD/svg11.dtd"><svg xmlns="http://www.w3.org/2000/svg" xmlns:xlink="http://www.w3.org/1999/xlink" viewBox="0 0 50 50" width="500px" height="500px"><polyline fill="none" stroke="#000000" stroke-width="2" stroke-linecap="round" stroke-linejoin="round" stroke-miterlimit="10" points="49,16 25,4 1,16 "/><path fill="none" stroke="#000000" stroke-width="1.956" stroke-linejoin="round" stroke-miterlimit="10" d="M47,42c0,0-3.667-2.997-11-2.997S25,42,25,42V19.92c0,0,3.754-2.92,11-2.92c7.246,0,11,2.92,11,2.92V42z"/><path fill="none" stroke="#000000" stroke-width="1.956" stroke-linejoin="round" stroke-miterlimit="10" d="M3,42c0,0,3.667-2.997,11-2.997S25,42,25,42V19.92c0,0-3.754-2.92-11-2.92c-7.246,0-11,2.92-11,2.92V42z"/><path fill="none" stroke="#000000" stroke-width="2" stroke-linejoin="round" stroke-miterlimit="10" d="M47,41v4H29c0,0-1,2-4,2s-4-2-4-2H3v-4"/></svg>