<?xml version="1.0" encoding="utf-8"?><!-- Generator: Adobe Illustrator 18.1.0, SVG Export Plug-In . SVG Version: 6.00 Build 0)  --><!DOCTYPE svg PUBLIC "-//W3C//DTD SVG 1.0//EN" "http://www.w3.org/TR/2001/REC-SVG-20010904/DTD/svg10.dtd"><svg xmlns="http://www.w3.org/2000/svg" xmlns:xlink="http://www.w3.org/1999/xlink" viewBox="0 0 50 50" width="500px" height="500px"><path d="M31.2,39.5c0.6,0.6,1.3,0.9,2.2,1.1v-5.9c-0.8-0.2-1.5-0.4-2-0.6c-0.6-0.2-1-0.5-1.4-0.8c-0.4-0.3-0.7-0.7-0.8-1.2c-0.2-0.5-0.3-1-0.3-1.7c0-0.7,0.1-1.3,0.4-1.8c0.2-0.6,0.6-1,1-1.5c0.4-0.4,0.9-0.7,1.5-1c0.6-0.2,1.2-0.4,1.8-0.4v-1.5h1.2v1.5c1.2,0.1,2.2,0.6,2.9,1.3c0.7,0.7,1.2,1.8,1.5,3.1h-1.9c-0.3-1.5-1.1-2.3-2.5-2.6v5.5l1.3,0.4c0.3,0.1,0.6,0.2,1,0.4c0.4,0.2,0.8,0.4,1.2,0.8c0.4,0.3,0.7,0.7,0.9,1.2c0.3,0.5,0.4,1.1,0.4,1.8c0,0.7-0.1,1.4-0.4,1.9c-0.2,0.6-0.6,1.1-1,1.5c-0.4,0.4-0.9,0.7-1.5,1c-0.6,0.2-1.2,0.4-2,0.4v1.8h-1.2v-1.8c-1.5-0.1-2.7-0.7-3.5-1.6c-0.9-0.9-1.4-2.1-1.5-3.7h1.9C30.3,38.2,30.7,39,31.2,39.5z M31.6,28.3c-0.5,0.4-0.7,1.1-0.7,1.9c0,0.4,0.1,0.7,0.2,1c0.1,0.3,0.3,0.5,0.5,0.7c0.2,0.2,0.5,0.3,0.8,0.5c0.3,0.1,0.7,0.3,1,0.4v-5.2C32.8,27.6,32.1,27.8,31.6,28.3z M35.8,40.4c0.3-0.1,0.7-0.3,0.9-0.5c0.3-0.2,0.5-0.5,0.6-0.9c0.1-0.3,0.2-0.8,0.2-1.2c0-0.4-0.1-0.8-0.2-1.1c-0.1-0.3-0.3-0.5-0.6-0.7c-0.3-0.2-0.6-0.4-0.9-0.5c-0.4-0.1-0.7-0.3-1.1-0.4v5.6C35.1,40.6,35.5,40.5,35.8,40.4z"/><path d="M20,11c-1-1-2.1-1.5-3.2-1.5c-1.1,0-2,0.5-2.7,1.4c-0.6,0.8-1,1.7-1.2,3h6.3l-0.6,1.3h-5.8c0,0.1,0,0.2,0,0.4s0,0.2,0,0.3c0,0.1,0,0.2,0,0.2c0,0.1,0,0.1,0,0.2h5.5l-0.6,1.3h-4.8c0.5,3.2,1.9,4.8,4.2,4.8c0.7,0,1.3-0.1,1.9-0.4c0.4-0.2,0.9-0.6,1.5-1.2v2.3c-1,0.6-2.1,1-3.4,1c-3.6,0-5.7-2.1-6.4-6.4H9l0.6-1.3h1c0-0.1,0-0.1,0-0.2c0-0.1,0-0.1,0-0.2c0-0.1,0-0.3,0-0.4s0-0.2,0-0.3H9l0.6-1.3h1.2c0.4-1.8,1-3.2,2-4.3c1.1-1.2,2.5-1.8,4.3-1.8c1.3,0,2.7,0.5,4,1.4L20,11z"/><circle style="fill:none;stroke:#000000;stroke-width:2;stroke-miterlimit:10;" cx="34" cy="34" r="15"/><path style="fill:none;stroke:#000000;stroke-width:2;stroke-miterlimit:10;" d="M49,18v-6c0-3.3-2.7-6-6-6h-6"/><polyline style="fill:none;stroke:#000000;stroke-width:2;stroke-miterlimit:10;" points="41,1 36,6 41,11 "/><path style="fill:none;stroke:#000000;stroke-width:2;stroke-miterlimit:10;" d="M1,32v6c0,3.3,2.7,6,6,6h6"/><polyline style="fill:none;stroke:#000000;stroke-width:2;stroke-miterlimit:10;" points="9,49 14,44 9,39 "/><path style="fill:none;stroke:#000000;stroke-width:2;stroke-miterlimit:10;" d="M30.6,19.4c0.3-1.1,0.4-2.2,0.4-3.4c0-8.3-6.7-15-15-15S1,7.7,1,16c0,8.3,6.7,15,15,15c1.2,0,2.3-0.1,3.4-0.4"/></svg>