<?xml version="1.0" encoding="iso-8859-1"?><!-- Generator: Adobe Illustrator 20.1.0, SVG Export Plug-In . SVG Version: 6.00 Build 0)  --><svg xmlns="http://www.w3.org/2000/svg" xmlns:xlink="http://www.w3.org/1999/xlink" viewBox="0 0 50 50" width="500px" height="500px"><path style="fill:none;stroke:#000000;stroke-width:2;stroke-miterlimit:10;" d="M33,47H17c-1.105,0-2-0.895-2-2V5c0-1.105,0.895-2,2-2h16c1.105,0,2,0.895,2,2v40C35,46.105,34.105,47,33,47z"/><path style="fill:none;stroke:#000000;stroke-width:2;stroke-miterlimit:10;" d="M35,5h10c1.105,0,2,0.895,2,2v36c0,1.105-0.895,2-2,2H35"/><path style="fill:none;stroke:#000000;stroke-width:2;stroke-miterlimit:10;" d="M15,45H5c-1.105,0-2-0.895-2-2V7c0-1.105,0.895-2,2-2h10"/><line style="fill:none;stroke:#000000;stroke-width:2;stroke-miterlimit:10;" x1="19" y1="11" x2="31" y2="11"/><line style="fill:none;stroke:#000000;stroke-width:2;stroke-miterlimit:10;" x1="19" y1="15" x2="31" y2="15"/><line style="fill:none;stroke:#000000;stroke-width:2;stroke-miterlimit:10;" x1="35" y1="13" x2="43" y2="13"/><line style="fill:none;stroke:#000000;stroke-width:2;stroke-miterlimit:10;" x1="35" y1="17" x2="43" y2="17"/><line style="fill:none;stroke:#000000;stroke-width:2;stroke-miterlimit:10;" x1="7" y1="13" x2="15" y2="13"/><line style="fill:none;stroke:#000000;stroke-width:2;stroke-miterlimit:10;" x1="7" y1="17" x2="15" y2="17"/><line style="fill:none;stroke:#000000;stroke-width:2;stroke-miterlimit:10;" x1="23" y1="27" x2="31" y2="27"/><circle cx="20" cy="27" r="1"/><line style="fill:none;stroke:#000000;stroke-width:2;stroke-miterlimit:10;" x1="23" y1="31" x2="31" y2="31"/><line style="fill:none;stroke:#000000;stroke-width:2;stroke-miterlimit:10;" x1="12" y1="27" x2="15" y2="27"/><line style="fill:none;stroke:#000000;stroke-width:2;stroke-miterlimit:10;" x1="12" y1="31" x2="15" y2="31"/><circle cx="20" cy="31" r="1"/><line style="fill:none;stroke:#000000;stroke-width:2;stroke-miterlimit:10;" x1="23" y1="35" x2="31" y2="35"/><line style="fill:none;stroke:#000000;stroke-width:2;stroke-miterlimit:10;" x1="35" y1="27" x2="43" y2="27"/><line style="fill:none;stroke:#000000;stroke-width:2;stroke-miterlimit:10;" x1="35" y1="31" x2="43" y2="31"/><line style="fill:none;stroke:#000000;stroke-width:2;stroke-miterlimit:10;" x1="35" y1="35" x2="43" y2="35"/><circle cx="20" cy="35" r="1"/><circle cx="9" cy="27" r="1"/><circle cx="9" cy="31" r="1"/><line style="fill:none;stroke:#000000;stroke-width:2;stroke-miterlimit:10;" x1="23" y1="39" x2="31" y2="39"/><circle cx="20" cy="39" r="1"/></svg>