<?xml version="1.0" encoding="utf-8"?><!-- Generator: Adobe Illustrator 19.1.1, SVG Export Plug-In . SVG Version: 6.00 Build 0)  --><svg xmlns="http://www.w3.org/2000/svg" xmlns:xlink="http://www.w3.org/1999/xlink" viewBox="0 0 50 50" width="500px" height="500px"><path d="M16.6,41.5l-0.8-1.7c-1.3-0.4-2.9-1.2-3.2-1.4l-0.2-0.1c-0.7,0.5-1.8,0.9-3,1.4c-3.1,1.2-7,2.6-7.3,7.3c0,0.3,0.1,0.5,0.3,0.7C2.5,47.9,2.7,48,3,48h12v-1C15,44.1,16.6,41.5,16.6,41.5z"/><path d="M24.7,39.7c-1.2-0.4-2.3-0.9-3-1.4l-0.2,0.1c-0.4,0.2-1.9,1-3.3,1.4l-0.8,1.7c0,0,1.7,2.6,1.7,5.5h0v1h12c0.3,0,0.5-0.1,0.7-0.3c0.2-0.2,0.3-0.5,0.3-0.7C31.7,42.3,27.8,40.8,24.7,39.7z"/><path d="M10.8,31.8c0.4,1.5,1.4,2.8,2.2,3.4c0,0.2,0,0.4,0,0.6c0,0.2,0,0.4,0,0.7l0.4,0.2c1,0.6,2.8,1.3,3.5,1.3s2.5-0.8,3.5-1.3l0.4-0.2c0-0.2,0-0.4,0-0.7c0-0.2,0-0.4,0-0.5c0.9-0.7,1.8-2,2.1-3.5c0.6-0.5,1.4-1.5,1.4-2.7c0-0.8-0.2-1.5-0.5-2.1c0.4-1.4,1.3-5.3-0.4-7.7c-0.5-0.7-1.3-1.4-2.8-1.6c-0.8-1-2.3-1.7-3.9-1.7c-2.7,0.1-4.7,0.9-6,2.5c-1.4,1.9-1.7,4.8-0.9,8.3c-0.3,0.4-0.6,1.1-0.6,1.9C9.5,30.3,10.2,31.3,10.8,31.8z"/><path d="M47.3,7.1l-15-5c-0.2-0.1-0.4-0.1-0.6,0l-15,5C16.3,7.2,16,7.6,16,8v6.1c0.3,0,0.6,0,0.8,0l0,0h0c1.9,0,3.7,0.7,4.9,1.8c0.1,0,0.1,0.1,0.2,0.1V12h8v4h-7.6c1.2,0.4,2.2,1.1,2.9,2.1c0.2,0.3,0.4,0.6,0.5,0.9H30v4h-3.4c0,1.1-0.1,2.1-0.3,3H30v4h-3.6c-0.3,1.3-0.9,2.2-1.5,2.8c0,0.1-0.1,0.1-0.1,0.2H30v4h-6.6c0.6,0.3,1.3,0.6,2,0.8c2.7,1,6.5,2.4,8,6.2H47c0.6,0,1-0.4,1-1V8C48,7.6,47.7,7.2,47.3,7.1z M42,37h-8v-4h8V37z M42,30h-8v-4h8V30z M42,23h-8v-4h8V23z M42,16h-8v-4h8V16z"/></svg>