<?xml version="1.0" encoding="iso-8859-1"?><!-- Generator: Adobe Illustrator 21.0.0, SVG Export Plug-In . SVG Version: 6.00 Build 0)  --><svg xmlns="http://www.w3.org/2000/svg" xmlns:xlink="http://www.w3.org/1999/xlink" viewBox="0 0 50 50" width="500px" height="500px"><path style="fill:none;stroke:#000000;stroke-width:2.0097;stroke-linecap:round;stroke-miterlimit:10;" d="M21,6c-8,0-8.941,6.458-7,14c-0.345,0.212-0.994,0.793-1,2c-0.011,2.218,1.426,2.953,2,3c-0.034,2.029,1.115,4.474,2,5.125c0,1.487,0.017,2.507,0,4C15.007,38.981,3.546,37.829,3,47h38c-0.545-9.171-12.044-8.03-14-12.875c-0.022-1.626,0-2.638,0-4.125c0.968-0.692,2-3,2-4"/><line style="fill-rule:evenodd;clip-rule:evenodd;fill:none;stroke:#000000;stroke-width:2;stroke-miterlimit:10;" x1="29" y1="7" x2="36" y2="7"/><line style="fill-rule:evenodd;clip-rule:evenodd;fill:none;stroke:#000000;stroke-width:2;stroke-miterlimit:10;" x1="38" y1="7" x2="41" y2="7"/><line style="fill-rule:evenodd;clip-rule:evenodd;fill:none;stroke:#000000;stroke-width:2;stroke-miterlimit:10;" x1="29" y1="12" x2="32" y2="12"/><line style="fill-rule:evenodd;clip-rule:evenodd;fill:none;stroke:#000000;stroke-width:2;stroke-miterlimit:10;" x1="34" y1="12" x2="41" y2="12"/><path style="fill:none;stroke:#000000;stroke-width:2;stroke-linejoin:round;stroke-miterlimit:10;" d="M43,17h-9c0,0-2,5-5,5c1-2,0-5,0-5h-3c-1.105,0-2-0.895-2-2V4c0-1.105,0.895-2,2-2h17c1.105,0,2,0.895,2,2v11C45,16.105,44.105,17,43,17z"/></svg>