<?xml version="1.0" encoding="iso-8859-1"?><!-- Generator: Adobe Illustrator 23.0.3, SVG Export Plug-In . SVG Version: 6.00 Build 0)  --><svg xmlns="http://www.w3.org/2000/svg" xmlns:xlink="http://www.w3.org/1999/xlink" viewBox="0 0 50 50" width="500px" height="500px"><path d="M39,28c-6.065,0-11,4.935-11,11s4.935,11,11,11s11-4.935,11-11S45.065,28,39,28z M39.885,44.781V46h-1.776v-1.242c-1.963-0.347-2.947-1.558-3.006-3.694L35.09,40.58h1.833l-0.012,0.483c-0.017,0.663,0.152,1.181,0.502,1.54c0.593,0.608,1.538,0.615,1.578,0.615c1.82,0,2.092-0.979,2.092-1.562c0-0.972-0.797-1.203-2.207-1.527c-1.571-0.36-3.525-0.808-3.525-3.284c0-0.283,0.08-2.695,2.759-3.095V32h1.776v1.752c0.749,0.126,1.397,0.479,1.889,1.03c0.582,0.654,0.91,1.573,0.855,2.397l-0.03,0.439h-1.77l-0.007-0.464c-0.012-0.829-0.333-1.818-1.803-1.818c-1.269,0-1.86,0.51-1.86,1.605c0,0.915,0.797,1.148,2.207,1.48c1.57,0.37,3.525,0.83,3.524,3.221C42.891,42.102,42.742,44.35,39.885,44.781z"/><path d="M26,39c0-2.498,0.717-4.824,1.939-6.805c-0.001-0.004-0.001-0.009-0.003-0.013c0.004,0,0.008-0.001,0.012-0.002c0.516-0.834,1.114-1.611,1.8-2.306c-0.904,0.173-1.912,0.325-3.04,0.43c-0.282,0.026-0.541,0.171-0.709,0.398c-0.169,0.228-0.234,0.516-0.179,0.794C25.9,31.898,25.9,32.218,25.9,32.5c0,0.056,0.021,0.109,0.03,0.164C25.618,33.128,24.233,34,22,34c-2.144,0-3.555-0.772-3.908-1.279c0.107-0.754,0.108-1.11,0.108-1.422c0-0.507-0.379-0.933-0.882-0.993c-4.104-0.488-6.509-1.007-7.161-1.524c0.963-1.405,1.201-3.883,1.492-6.913c0.664-6.92,1.488-15.497,10.738-15.857l0.718,1.436C23.275,7.786,23.621,8,24,8c8.049,0,8.841,6.093,9.04,14.059c0.051,2.051,0.098,3.833,0.437,5.186c0.607-0.286,1.235-0.53,1.888-0.72c-0.237-1.172-0.286-2.909-0.326-4.516C34.883,15.761,34.65,6.382,24.624,6.012l-0.729-1.459C23.725,4.214,23.379,4,23,4C11.355,4,10.334,14.639,9.658,21.679c-0.258,2.688-0.525,5.467-1.321,6.172C8.123,28.041,8,28.313,8,28.6c0,2.267,3.292,2.969,8.067,3.569C16.03,32.273,16,32.382,16,32.5c0,0.017,0.004,0.033,0.004,0.05c-0.7,1.236-2.692,2.022-4.809,2.845c-3.946,1.533-8.858,3.441-9.193,9.55c-0.015,0.274,0.083,0.543,0.272,0.742C2.462,45.887,2.725,46,3,46h25.057C26.761,43.978,26,41.58,26,39z"/></svg>