<?xml version="1.0" encoding="iso-8859-1"?><!-- Generator: Adobe Illustrator 19.1.1, SVG Export Plug-In . SVG Version: 6.00 Build 0)  --><svg xmlns="http://www.w3.org/2000/svg" xmlns:xlink="http://www.w3.org/1999/xlink" viewBox="0 0 50 50" width="500px" height="500px"><line style="fill:none;stroke:#000000;stroke-width:2;stroke-linecap:round;stroke-linejoin:bevel;stroke-miterlimit:10;" x1="25" y1="6" x2="25" y2="4"/><line style="fill:none;stroke:#000000;stroke-width:2;stroke-linecap:round;stroke-linejoin:bevel;stroke-miterlimit:10;" x1="11" y1="11" x2="9" y2="9"/><line style="fill:none;stroke:#000000;stroke-width:2;stroke-linecap:round;stroke-linejoin:bevel;stroke-miterlimit:10;" x1="7" y1="25" x2="4" y2="25"/><line style="fill:none;stroke:#000000;stroke-width:2;stroke-linecap:round;stroke-linejoin:bevel;stroke-miterlimit:10;" x1="11" y1="39" x2="9" y2="41"/><line style="fill:none;stroke:#000000;stroke-width:2;stroke-linecap:round;stroke-linejoin:bevel;stroke-miterlimit:10;" x1="25" y1="44" x2="25" y2="46"/><line style="fill:none;stroke:#000000;stroke-width:2;stroke-linecap:round;stroke-linejoin:bevel;stroke-miterlimit:10;" x1="39" y1="39" x2="41" y2="41"/><line style="fill:none;stroke:#000000;stroke-width:2;stroke-linecap:round;stroke-linejoin:bevel;stroke-miterlimit:10;" x1="43" y1="25" x2="46" y2="25"/><line style="fill:none;stroke:#000000;stroke-width:2;stroke-linecap:round;stroke-linejoin:bevel;stroke-miterlimit:10;" x1="39" y1="11" x2="41" y2="9"/><path d="M24,21v-9.799c0-0.403-0.237-0.776-0.611-0.926C22.958,10.101,22.492,10,22,10c-1.457,0-2.775,0.802-3.472,2.036C18.354,12.012,18.177,12,18,12c-2.206,0-4,1.794-4,4c0,0.042,0.001,0.084,0.002,0.126c0.029,0.265,0.069,0.369,0.139,0.584C14.188,16.849,14.624,18,16,18c0.553,0,1,0.448,1,1s-0.447,1-1,1c-2.312,0-3.474-1.754-3.765-2.681c-0.019-0.06-0.011-0.119-0.019-0.179C11.47,17.867,11,18.878,11,20c0,0.677,0.168,1.326,0.484,1.903C10.565,22.649,10,23.782,10,25s0.565,2.351,1.484,3.097C11.168,28.674,11,29.323,11,30c0,1.861,1.275,3.556,3,4c-0.001,0.033-0.019,0,0,0c0.052-0.001,1.008-0.001,1.502-0.479C15.832,33.201,16,32.689,16,32c0-0.552,0.447-1,1-1s1,0.448,1,1c0,1.267-0.381,2.271-1.133,2.983c-0.803,0.761-1.782,0.945-2.328,0.986C15.229,37.176,16.513,38,18,38c0.177,0,0.354-0.012,0.528-0.036C19.225,39.198,20.543,40,22,40c0.493,0,0.959-0.102,1.392-0.277C23.764,39.572,24,39.199,24,38.797V23c-1.103,0-2,0.897-2,2c0,0.552-0.447,1-1,1s-1-0.448-1-1C20,22.794,21.794,21,24,21z"/><path d="M38.305,28.525c-0.201-0.195-1.28-1.104-2.624,0.194C35.487,28.907,35.236,29,34.986,29c-0.262,0-0.523-0.102-0.719-0.305c-0.384-0.397-0.373-1.03,0.024-1.414c2.057-1.987,4.169-1.203,5.184-0.385C39.79,26.322,39.98,25.679,39.98,25c0-1.218-0.565-2.351-1.484-3.097c0.316-0.577,0.484-1.226,0.484-1.903c0-1.119-0.468-2.128-1.211-2.854c-0.003,0.027,0.005,0.052-0.001,0.078C37.567,18.184,36.521,20,34,20c-0.553,0-1-0.448-1-1s0.447-1,1-1c1.797,0,2-1.958,2-2c0-2.206-1.813-4-4.02-4c-0.177,0-0.354,0.012-0.528,0.036C30.756,10.802,29.438,10,27.98,10c-0.483,0-0.941,0.098-1.366,0.266C26.239,10.414,26,10.789,26,11.193v15.363C26.591,26.212,27.268,26,28,26c0.553,0,1,0.448,1,1s-0.447,1-1,1c-1.103,0-2,0.897-2,2v8.807c0,0.404,0.239,0.779,0.615,0.928C27.04,39.903,27.497,40,27.98,40c1.458,0,2.775-0.802,3.472-2.036C31.627,37.988,31.804,38,31.98,38c2.206,0,4-1.794,4-4c0-0.042-0.001-0.084-0.002-0.126C37.703,33.43,38.98,31.861,38.98,30C38.98,29.229,38.44,28.656,38.305,28.525z"/></svg>