<?xml version="1.0" encoding="iso-8859-1"?><!-- Generator: Adobe Illustrator 23.0.3, SVG Export Plug-In . SVG Version: 6.00 Build 0)  --><svg xmlns="http://www.w3.org/2000/svg" xmlns:xlink="http://www.w3.org/1999/xlink" viewBox="0 0 50 50" width="500px" height="500px"><path style="fill:none;stroke:#000000;stroke-width:2;stroke-linejoin:round;stroke-miterlimit:10;" d="M29,21c0,0,0-4-4-4s-4,3.488-4,3.488c0,4.949,9,3.054,9,8.512c0,0,0,4-5,4s-5-5-5-5"/><line style="fill:none;stroke:#000000;stroke-width:2;stroke-linejoin:round;stroke-miterlimit:10;" x1="25" y1="14" x2="25" y2="17"/><line style="fill:none;stroke:#000000;stroke-width:2;stroke-linejoin:round;stroke-miterlimit:10;" x1="25" y1="36" x2="25" y2="33"/><polyline style="fill:none;stroke:#000000;stroke-width:4;stroke-linecap:round;stroke-miterlimit:10;" points="35.051,16 42.051,16 42.051,9 "/><polyline style="fill:none;stroke:#000000;stroke-width:4;stroke-linecap:round;stroke-miterlimit:10;" points="15.051,34 8.051,34 8.051,41 "/><path style="fill:none;stroke:#000000;stroke-width:4;stroke-linecap:round;stroke-miterlimit:10;" d="M7.102,24c0.521-9.473,8.345-17,17.949-17c6.665,0,12.483,3.622,15.595,9.005"/><path style="fill:none;stroke:#000000;stroke-width:4;stroke-linecap:round;stroke-miterlimit:10;" d="M43,26c-0.521,9.473-8.345,17-17.949,17c-6.662,0-12.479-3.619-15.591-8.999"/></svg>