<?xml version="1.0" encoding="iso-8859-1"?><!-- Generator: Adobe Illustrator 21.0.2, SVG Export Plug-In . SVG Version: 6.00 Build 0)  --><svg xmlns="http://www.w3.org/2000/svg" xmlns:xlink="http://www.w3.org/1999/xlink" viewBox="0 0 50 50" width="500px" height="500px"><path style="fill:none;stroke:#000000;stroke-width:2;stroke-linecap:round;stroke-miterlimit:10;" d="M29,31v-3c0.657-0.349,2.193-2.725,2.391-4.599c0,0,1.331-0.552,1.57-2.561c0.128-1.079-0.693-1.877-0.693-1.877C33.824,16.959,33,9,28,9l-1-2c-8,0-11.712,6.465-9.268,11.963c0,0-0.822,0.798-0.693,1.877c0.239,2.009,1.57,2.561,1.57,2.561C18.806,25.275,20.342,27.651,21,28v3c-1.577,4.28-13,3.667-13,12h34C42,34.636,30.577,35.28,29,31z"/><path style="fill:none;stroke:#000000;stroke-width:2;stroke-linecap:round;stroke-miterlimit:10;" d="M17.102,13.527c-0.317-0.083-0.663-0.127-1.039-0.127L15.375,12c-6.447,0-8.797,5.029-6.929,9.305c-0.237,0.149-0.628,0.621-0.53,1.46c0.183,1.563,0.805,1.959,1.199,1.992c0.151,1.458,1.087,3.183,1.59,3.455c0,1.041,0.038,1.836-0.063,2.975C9.438,34.515,1,33.633,1,40h7"/><path style="fill:none;stroke:#000000;stroke-width:2;stroke-linecap:round;stroke-miterlimit:10;" d="M41.588,40H49c-0.373-6.388-8.801-5.457-10-8.769v-2.96c0.5-0.27,1.708-1.987,1.859-3.437c0,0,1.012-0.427,1.193-1.982c0.098-0.835-0.527-1.452-0.527-1.452c1.183-1.551,0.989-7.864-3.473-7.864L37.368,12c-1.636,0-3.277,0.233-4.694,0.828"/><path style="fill:none;stroke:#000000;stroke-width:2;stroke-linecap:round;stroke-linejoin:round;stroke-miterlimit:10;" d="M21,31c0,0,2,2,4,2s4-2,4-2"/><polygon points="27,43 23,43 24,32 26,32 "/><path style="fill:none;stroke:#000000;stroke-width:2;stroke-linejoin:round;stroke-miterlimit:10;" d="M36,32c1.716,0,2.936-1.295,2.936-1.295"/><polygon points="37,36 35,35 35,31 36.556,31 "/><path style="fill:none;stroke:#000000;stroke-width:2;stroke-linejoin:round;stroke-miterlimit:10;" d="M14,32c-2.085,0-3.221-1.295-3.221-1.295"/><polygon points="13,36 15,35 15,31 13.444,31 "/><path style="fill:none;stroke:#000000;stroke-width:2;stroke-linecap:round;stroke-miterlimit:10;" d="M28,43c0,0,2.56-6,2.56-10.125"/><path style="fill:none;stroke:#000000;stroke-width:2;stroke-linecap:round;stroke-miterlimit:10;" d="M19.44,32.875C19.44,37,22,43,22,43"/><path d="M40.343,38.353c0,0,1.657,2.512,1.657,4.647l-13.678-0.015c0,0,2.867-9.319,2.867-9.65C33.064,33.941,38.027,35.706,40.343,38.353z"/><path d="M9.657,38.353C9.657,38.353,8,40.865,8,43l13.678-0.015c0,0-2.867-9.319-2.867-9.65C16.936,33.941,11.973,35.706,9.657,38.353z"/><path d="M39.888,39.951l-1.216-3.231l1.775-3.948c0,0,8.554,2.262,8.554,7.229L39.888,39.951z"/><path d="M10.112,39.951l1.354-3.412l-1.913-3.767C9.554,32.771,1,35.033,1,40L10.112,39.951z"/></svg>