<?xml version="1.0" encoding="iso-8859-1"?><!-- Generator: Adobe Illustrator 19.2.1, SVG Export Plug-In . SVG Version: 6.00 Build 0)  --><svg xmlns="http://www.w3.org/2000/svg" xmlns:xlink="http://www.w3.org/1999/xlink" viewBox="0 0 50 50" width="500px" height="500px"><circle style="fill-rule:evenodd;clip-rule:evenodd;fill:none;stroke:#000000;stroke-width:2;stroke-linecap:round;stroke-linejoin:round;stroke-miterlimit:10;" cx="25" cy="25" r="22"/><path d="M10.453,24.873c0-4.799,2.553-7.763,6.665-7.763c3.261,0,5.783,2.112,6.152,5.127h-2.287c-0.431-1.815-1.917-2.983-3.866-2.983c-2.656,0-4.317,2.163-4.317,5.619c0,3.445,1.661,5.608,4.327,5.608c1.958,0,3.445-1.056,3.855-2.728h2.287c-0.41,2.922-2.84,4.871-6.142,4.871C13.016,32.625,10.453,29.661,10.453,24.873z"/><path d="M26.73,24.873c0-4.799,2.553-7.763,6.665-7.763c3.261,0,5.783,2.112,6.152,5.127H37.26c-0.431-1.815-1.917-2.983-3.866-2.983c-2.656,0-4.317,2.163-4.317,5.619c0,3.445,1.661,5.608,4.327,5.608c1.958,0,3.445-1.056,3.855-2.728h2.287c-0.41,2.922-2.84,4.871-6.142,4.871C29.293,32.625,26.73,29.661,26.73,24.873z"/></svg>