<?xml version="1.0" encoding="iso-8859-1"?><!-- Generator: Adobe Illustrator 19.1.1, SVG Export Plug-In . SVG Version: 6.00 Build 0)  --><svg xmlns="http://www.w3.org/2000/svg" xmlns:xlink="http://www.w3.org/1999/xlink" viewBox="0 0 50 50" width="500px" height="500px"><g><path d="M38.931,3.994c0.046-0.01,0.112-0.079,0.113-0.121c0.007-0.62,0.005-1.239,0.005-1.873c-0.599,0.135-1.163,0.257-1.723,0.394c-0.064,0.016-0.155,0.109-0.156,0.168c-0.012,0.587-0.007,1.173-0.007,1.806C37.788,4.237,38.36,4.12,38.931,3.994z"/><path d="M38.867,45.993c-0.36-0.086-0.723-0.157-1.086-0.231c-0.198-0.04-0.396-0.077-0.618-0.12c0,0.621-0.004,1.199,0.005,1.777c0.001,0.061,0.062,0.164,0.112,0.176c0.578,0.14,1.159,0.267,1.77,0.405c0-0.633,0.004-1.246-0.008-1.858C39.041,46.089,38.936,46.009,38.867,45.993z"/><path d="M30.139,44.461c0,0.625,0,1.225,0,1.827c0,0,0,0.001,0,0.001c0.632,0.098,1.244,0.193,1.871,0.29c0,0,0-0.001,0-0.001c0-0.625,0-1.221,0-1.852C31.377,44.636,30.763,44.549,30.139,44.461C30.139,44.46,30.139,44.461,30.139,44.461z"/><path d="M27.269,5.779c0.008-0.556,0.005-1.112,0.005-1.691c-0.663,0.071-1.286,0.138-1.908,0.205c0,0.602,0,1.176,0,1.776c0.607-0.058,1.197-0.112,1.787-0.175C27.197,5.889,27.269,5.82,27.269,5.779z"/><path d="M24.292,43.846c-0.429-0.041-0.859-0.07-1.303-0.105l0,0c0,0-0.001,0-0.001,0c0,0.602,0,1.168,0,1.762c0.63,0.052,1.248,0.103,1.897,0.157c0-0.403,0-0.781,0-1.16C24.885,43.906,24.885,43.902,24.292,43.846z"/><path d="M37.156,42.855c0.011,0.059,0.03,0.111,0.062,0.153c0.116,0.152,0.462,0.133,0.709,0.18c0.366,0.07,0.733,0.133,1.105,0.199c0-0.606,0-1.17,0-1.742c-0.62-0.103-1.222-0.203-1.869-0.309c0,0.169-0.001,0.325-0.001,0.475c0,0.15,0,0.295,0.002,0.439C37.167,42.445,37.123,42.679,37.156,42.855z"/><path d="M39.534,41.735c0,0.598,0,1.165,0,1.751c0,0,0,0.001,0,0.001c0.612,0.125,1.218,0.248,1.837,0.374c0,0,0-0.001,0-0.001c0-0.603,0-1.181,0-1.788C40.752,41.958,40.151,41.848,39.534,41.735C39.534,41.734,39.534,41.735,39.534,41.735z"/><path d="M39.525,6.07c0.635-0.133,1.234-0.259,1.843-0.387c-0.001-0.59-0.001-1.167-0.001-1.787c-0.583,0.131-1.155,0.258-1.725,0.392c-0.046,0.011-0.112,0.075-0.113,0.116c-0.007,0.549-0.005,1.097-0.005,1.665c0,0,0.001,0,0.001,0C39.525,6.069,39.525,6.07,39.525,6.07z"/><path d="M25.366,41.96c0,0.547,0,1.049,0,1.568c0,0,0,0.001,0,0.001c0.631,0.06,1.249,0.119,1.892,0.181c0-0.553,0-1.062,0-1.587c0,0,0-0.001,0-0.001c-0.642-0.055-1.265-0.109-1.892-0.163C25.366,41.959,25.366,41.96,25.366,41.96z"/><path d="M36.691,2.534c-0.423,0.085-0.829,0.166-1.235,0.25C34.81,2.919,34.81,2.92,34.81,3.586c0,0.402,0,0.803,0,1.228c0.656-0.123,1.266-0.237,1.881-0.352C36.691,3.794,36.691,3.172,36.691,2.534z"/><path d="M34.816,46.955c0.001,0.052,0.062,0.14,0.109,0.15c0.582,0.125,1.167,0.24,1.767,0.36c0-0.651,0-1.281,0-1.928c-0.62-0.115-1.231-0.228-1.881-0.349C34.811,45.816,34.808,46.386,34.816,46.955z"/><path d="M34.35,4.772c0.013-0.577,0.008-1.155,0.008-1.764h0l0,0c-0.62,0.108-1.206,0.209-1.791,0.319c-0.039,0.007-0.09,0.089-0.09,0.137c-0.006,0.568-0.004,1.137-0.004,1.738c0.6-0.097,1.154-0.182,1.704-0.281C34.244,4.909,34.349,4.825,34.35,4.772z"/><path d="M24.87,4.338c-0.647,0.055-1.263,0.108-1.88,0.161c0,0.596,0,1.162,0,1.757c0.634-0.048,1.251-0.094,1.88-0.142C24.87,5.516,24.87,4.941,24.87,4.338z"/><path d="M27.747,45.968c0.631,0.082,1.246,0.163,1.876,0.245c0-0.62,0-1.212,0-1.822c-0.629-0.075-1.244-0.147-1.876-0.222C27.747,44.782,27.747,45.359,27.747,45.968z"/><path d="M29.623,3.785c-0.638,0.084-1.258,0.166-1.87,0.247c0,0.612,0,1.195,0,1.799c0.637-0.076,1.253-0.15,1.87-0.223C29.623,4.988,29.623,4.395,29.623,3.785z"/><path d="M22.49,4.536c-0.632,0.035-1.245,0.069-1.882,0.104c0,0.599,0,1.17,0,1.756c0.645-0.037,1.264-0.073,1.882-0.109C22.49,5.69,22.49,5.123,22.49,4.536z"/><path d="M20.591,45.212c0.001,0.056,0.115,0.147,0.184,0.155c0.277,0.032,0.557,0.039,0.837,0.053c0.293,0.015,0.586,0.029,0.882,0.043c0-0.596,0-1.161,0-1.754c-0.649-0.033-1.266-0.065-1.911-0.098C20.583,44.169,20.577,44.691,20.591,45.212z"/><path d="M15.836,45.233c0.633,0,1.251,0,1.882,0c0-0.561,0-1.126,0-1.718c-0.629,0-1.248,0-1.882,0C15.836,44.07,15.836,44.627,15.836,45.233z"/><path d="M18.222,45.292c0.646,0,1.263,0,1.879,0c0-0.565,0-1.123,0-1.72c-0.632,0-1.25,0-1.879,0C18.222,44.123,18.222,44.681,18.222,45.292z"/><path d="M17.718,4.77c-0.634,0-1.253,0-1.875,0c0,0.592,0,1.155,0,1.713c0.636,0,1.248,0,1.875,0C17.718,5.885,17.718,5.326,17.718,4.77z"/><path d="M15.321,4.763c-0.638,0-1.257,0-1.88,0c0,0.578,0,1.137,0,1.718c0.632,0,1.252,0,1.88,0C15.321,5.912,15.321,5.349,15.321,4.763z"/><path d="M37.185,8.662c0.635-0.106,1.244-0.207,1.857-0.309c0-0.587,0-1.144,0-1.746c-0.643,0.119-1.258,0.234-1.857,0.345C37.185,7.538,37.185,8.084,37.185,8.662z"/><path d="M39.538,8.268c0.626-0.117,1.233-0.231,1.831-0.343c0-0.617,0-1.195,0-1.787c-0.62,0.127-1.227,0.252-1.831,0.376C39.538,7.107,39.538,7.674,39.538,8.268z"/><path d="M34.821,9.016c0.643-0.095,1.255-0.186,1.864-0.276c0,0,0-0.001,0-0.001c0-0.576,0-1.129,0-1.703c0,0,0-0.001,0-0.001c-0.634,0.103-1.245,0.203-1.864,0.304c0,0,0,0.001,0,0.001C34.821,7.9,34.821,8.439,34.821,9.016z"/><path d="M36.683,41.258c-0.627-0.092-1.233-0.182-1.857-0.274c0,0,0,0.001,0,0.001c0,0.57,0,1.116,0,1.675c0,0,0,0.001,0,0.001c0.62,0.1,1.226,0.199,1.857,0.301C36.683,42.373,36.683,41.818,36.683,41.258C36.683,41.259,36.683,41.258,36.683,41.258z"/><path d="M34.825,44.763c0.622,0.114,1.232,0.226,1.864,0.341c0-0.579,0-1.135,0-1.706c-0.624-0.104-1.234-0.206-1.864-0.311C34.825,43.659,34.825,44.205,34.825,44.763z"/><path d="M36.692,4.897c-0.582,0.106-1.152,0.206-1.719,0.317c-0.06,0.011-0.154,0.086-0.155,0.133c-0.011,0.512-0.007,1.024-0.007,1.568c0.651-0.109,1.262-0.211,1.881-0.315C36.692,6.021,36.692,5.464,36.692,4.897z"/><path d="M26.729,40.097c-0.054-0.005-0.107-0.017-0.161-0.021c-0.4-0.028-0.8-0.055-1.209-0.083c0,0.54,0,1.035,0,1.566c0.647,0.054,1.27,0.106,1.884,0.157c0.017-0.05,0.028-0.067,0.028-0.084c0.002-0.307,0.004-0.614,0.005-0.921C27.277,40.148,27.276,40.148,26.729,40.097z"/><path d="M8.178,10.555c-0.632-0.035-1.249-0.069-1.877-0.104c0,0.535,0,1.036,0,1.563c0.633,0.034,1.251,0.066,1.877,0.1C8.178,11.578,8.178,11.075,8.178,10.555z"/><path d="M6.3,39.955c0,0.525,0,1.028,0,1.567c0.639-0.044,1.255-0.087,1.88-0.13c0,0,0-0.001,0-0.001c0-0.528,0-1.028,0-1.554c0,0,0-0.001,0-0.001c-0.633,0.04-1.25,0.079-1.88,0.118C6.3,39.954,6.3,39.955,6.3,39.955z"/><path d="M6.433,15.952c0.575,0.008,1.149,0.005,1.74,0.005c0-0.47,0-0.977,0-1.527c-0.632,0-1.243,0-1.886,0c0,0.452-0.004,0.928,0.006,1.404C6.294,15.876,6.384,15.951,6.433,15.952z"/><path d="M8.176,16.386c-0.633,0-1.246,0-1.875,0c0,0.487,0,0.99,0,1.55c0.636,0,1.248,0,1.875,0C8.176,17.439,8.176,16.93,8.176,16.386z"/><path d="M6.302,39.554c0.635-0.039,1.251-0.076,1.88-0.114c0-0.523,0-1.017,0-1.556c-0.644,0.036-1.262,0.071-1.88,0.105C6.302,38.527,6.302,39.03,6.302,39.554z"/><path d="M8.182,20.301c-0.643,0-1.253,0-1.877,0c0,0.511,0,1.019,0,1.549c0.637,0,1.255,0,1.877,0C8.182,21.332,8.182,20.838,8.182,20.301z"/><path d="M6.307,29.68c0.638,0,1.255,0,1.878,0c0-0.529,0-1.015,0-1.517c-0.644,0-1.262,0-1.878,0C6.307,28.695,6.307,29.204,6.307,29.68z"/><path d="M6.3,31.644c0.634,0,1.252,0,1.878,0c0-0.54,0-1.041,0-1.526c-0.634,0-1.251,0-1.878,0C6.3,30.656,6.3,31.158,6.3,31.644z"/><path d="M15.843,10.335c0.641,0,1.258,0,1.882,0c0-0.516,0-1.003,0-1.508c-0.645,0-1.264,0-1.882,0C15.843,9.35,15.843,9.849,15.843,10.335z"/><path d="M15.325,8.823c-0.638,0-1.256,0-1.884,0c0,0.509,0,1.003,0,1.519c0.631,0,1.25,0,1.884,0C15.325,9.845,15.325,9.351,15.325,8.823z"/><path d="M13.445,19.971c0.634,0,1.252,0,1.876,0c0-0.514,0-1.012,0-1.51c-0.638,0-1.256,0-1.876,0C13.445,18.974,13.445,19.467,13.445,19.971z"/><path d="M15.326,30.027c-0.633,0-1.252,0-1.884,0c0,0.516,0,1.009,0,1.511c0.647,0,1.266,0,1.884,0C15.326,31.018,15.326,30.524,15.326,30.027z"/><path d="M11.052,23.824c0.634,0,1.254,0,1.885,0c0-0.505,0-1.001,0-1.521c-0.64,0-1.259,0-1.885,0C11.052,22.815,11.052,23.309,11.052,23.824z"/><path d="M13.451,23.825c0.64,0,1.258,0,1.875,0c0-0.513,0-1.007,0-1.509c-0.635,0-1.254,0-1.875,0C13.451,22.831,13.451,23.33,13.451,23.825z"/><path d="M10.545,20.347c-0.629,0-1.247,0-1.869,0c0,0.506,0,1.001,0,1.522c0.631,0,1.249,0,1.869,0C10.545,21.364,10.545,20.868,10.545,20.347z"/><path d="M12.933,26.181c-0.641,0-1.26,0-1.885,0c0,0.515,0,1.01,0,1.516c0.631,0,1.251,0,1.885,0C12.933,27.186,12.933,26.692,12.933,26.181z"/><path d="M13.452,27.684c0.641,0,1.259,0,1.882,0c0-0.507,0-0.994,0-1.508c-0.644,0-1.263,0-1.882,0C13.452,26.692,13.452,27.191,13.452,27.684z"/><path d="M8.677,29.648c0.631,0,1.248,0,1.872,0c0-0.518,0-1.013,0-1.512c-0.644,0-1.259,0-1.872,0C8.677,28.663,8.677,29.156,8.677,29.648z"/><path d="M10.543,25.772c0-0.517,0-1.018,0-1.527c-0.629,0-1.245,0-1.861,0c0,0.519,0,1.019,0,1.527C9.314,25.772,9.924,25.772,10.543,25.772z"/><path d="M8.676,31.59c0.631,0,1.247,0,1.867,0c0-0.53,0-1.023,0-1.505c-0.632,0-1.248,0-1.867,0C8.676,30.613,8.676,31.107,8.676,31.59z"/><path d="M8.676,41.365c0.632-0.029,1.249-0.058,1.866-0.087c0-0.528,0-1.022,0-1.548c-0.632,0.028-1.249,0.056-1.866,0.084C8.676,40.347,8.676,40.842,8.676,41.365z"/><path d="M11.058,37.347c0.64,0,1.258,0,1.881,0c0-0.529,0-1.015,0-1.502c-0.647,0-1.266,0-1.881,0C11.058,36.378,11.058,36.878,11.058,37.347z"/><path d="M10.536,10.629c-0.629,0-1.238,0-1.861,0c0,0.479,0,0.973,0,1.531c0.635,0,1.251,0,1.861,0C10.536,11.67,10.536,11.169,10.536,10.629z"/><path d="M11.05,33.486c0.647,0,1.264,0,1.883,0c0-0.528,0-1.02,0-1.506c-0.634,0-1.253,0-1.883,0C11.05,32.5,11.05,32.993,11.05,33.486z"/><path d="M8.679,35.474c0.633,0,1.249,0,1.864,0c0-0.54,0-1.034,0-1.514c-0.63,0-1.246,0-1.864,0C8.679,34.502,8.679,35.003,8.679,35.474z"/><path d="M17.715,39.661c-0.636,0-1.255,0-1.881,0c0,0.508,0,1.002,0,1.515c0.652,0,1.269,0,1.881,0C17.715,40.664,17.715,40.172,17.715,39.661z"/><path d="M13.448,41.174c0.637,0,1.256,0,1.881,0c0-0.515,0-1.008,0-1.51c-0.63,0-1.248,0-1.881,0C13.448,40.197,13.448,40.688,13.448,41.174z"/><path d="M8.675,37.429c0.626,0,1.236,0,1.867,0c0-0.554,0-1.047,0-1.515c-0.631,0-1.247,0-1.867,0C8.675,36.454,8.675,36.947,8.675,37.429z"/><path d="M12.937,14.58c-0.63,0-1.249,0-1.882,0c0,0.505,0,0.997,0,1.518c0.636,0,1.254,0,1.882,0C12.937,15.599,12.937,15.105,12.937,14.58z"/><path d="M10.539,12.575c-0.633,0-1.248,0-1.867,0c0,0.496,0,0.981,0,1.521c0.636,0,1.246,0,1.867,0C10.539,13.609,10.539,13.111,10.539,12.575z"/><path d="M8.683,18.395c0,0.517,0,1.018,0,1.536c0.625,0,1.229,0,1.852,0c0-0.514,0-1.013,0-1.536C9.903,18.395,9.293,18.395,8.683,18.395z"/><path d="M11.049,29.616c0.637,0,1.261,0,1.892,0c0-0.516,0-1.002,0-1.501c-0.645,0-1.264,0-1.892,0C11.049,28.63,11.049,29.123,11.049,29.616z"/><path d="M12.938,10.714c-0.626,0-1.245,0-1.882,0c0,0.491,0,0.991,0,1.521c0.636,0,1.253,0,1.882,0C12.938,11.74,12.938,11.247,12.938,10.714z"/><path d="M8.685,32.011c0,0.552,0,1.052,0,1.528c0.633,0,1.242,0,1.856,0c0-0.539,0-1.039,0-1.528C9.914,32.011,9.305,32.011,8.685,32.011z"/><path d="M11.05,41.212c0.645,0,1.263,0,1.883,0c0-0.534,0-1.027,0-1.502c-0.634,0-1.252,0-1.883,0C11.05,40.238,11.05,40.731,11.05,41.212z"/><path d="M11.058,43.151c0.641,0,1.259,0,1.883,0c0-0.534,0-1.022,0-1.511c-0.643,0-1.262,0-1.883,0C11.058,42.181,11.058,42.682,11.058,43.151z"/><path d="M11.05,39.282c0.639,0,1.263,0,1.881,0c0-0.535,0-1.028,0-1.506c-0.636,0-1.254,0-1.881,0C11.05,38.307,11.05,38.8,11.05,39.282z"/><path d="M13.444,18.044c0.633,0,1.251,0,1.883,0c0-0.496,0-0.99,0-1.514c-0.641,0-1.259,0-1.883,0C13.444,17.037,13.444,17.529,13.444,18.044z"/><path d="M11.06,18.03c0.634,0,1.245,0,1.871,0c0-0.517,0-1.008,0-1.523c-0.636,0-1.255,0-1.871,0C11.06,17.015,11.06,17.515,11.06,18.03z"/><path d="M13.446,25.75c0.635,0,1.253,0,1.882,0c0-0.506,0-0.998,0-1.507c-0.63,0-1.248,0-1.882,0C13.446,24.76,13.446,25.252,13.446,25.75z"/><path d="M17.715,43.102c0-0.512,0-1.005,0-1.511c-0.63,0-1.242,0-1.875,0c0,0.509,0,1.001,0,1.511C16.477,43.102,17.095,43.102,17.715,43.102z"/><path d="M17.712,6.909c-0.641,0-1.261,0-1.879,0c0,0.511,0,0.997,0,1.49c0.651,0,1.271,0,1.879,0C17.712,7.88,17.712,7.387,17.712,6.909z"/><path d="M12.931,20.373c-0.636,0-1.254,0-1.88,0c0,0.512,0,1.005,0,1.515c0.631,0,1.25,0,1.88,0C12.931,21.381,12.931,20.881,12.931,20.373z"/><path d="M15.324,31.957c-0.63,0-1.243,0-1.877,0c0,0.522,0,1.015,0,1.506c0.637,0,1.257,0,1.877,0C15.324,32.949,15.324,32.456,15.324,31.957z"/><path d="M43.641,31.998c-0.117-1.164-0.426-2.269-1.016-3.293c-0.184-0.319-0.376-0.506-0.776-0.468c-0.33,0.031-0.668-0.022-1.002-0.037c-0.43-0.02-0.861-0.039-1.307-0.06c0-0.645-0.01-1.26,0.006-1.874c0.005-0.191-0.061-0.282-0.23-0.332c-0.744-0.22-1.484-0.459-2.234-0.659c-0.432-0.115-0.881-0.167-1.333-0.249c0-0.218,0-0.417,0-0.616c0-0.712,0.001-0.708,0.682-0.945c1.182-0.41,2.352-0.844,3.355-1.627c1.121-0.876,1.926-1.982,2.401-3.319c0.43-1.208,0.468-2.465,0.377-3.728c-0.07-0.97-0.291-1.907-0.748-2.773c-0.358-0.678-0.872-1.226-1.527-1.624c-1.389-0.843-2.919-1.07-4.514-0.981c-0.466,0.026-0.932,0.057-1.405,0.086c-0.009-0.158-0.017-0.287-0.025-0.424c-0.623,0.078-1.218,0.152-1.822,0.227c0-0.561,0-1.075,0-1.604c0.614-0.091,1.219-0.181,1.825-0.271c0-0.714,0-1.4,0-2.078c-2.207,0.307-4.404,0.613-6.619,0.921c0,1.314,0,2.625,0,3.982c-1.386,0.062-2.756,0.124-4.142,0.186c0-0.549,0-1.061,0-1.589c0.595-0.034,1.178-0.067,1.753-0.099c0-0.786,0-1.53,0-2.242c-2.387,0.131-4.749,0.262-7.137,0.393c0,1.273,0,2.536,0,3.826c-1.599,0-3.171,0-4.758,0c0,0.655,0,1.283,0,1.96c0.626,0,1.236,0,1.85,0c0,0.54,0,1.032,0,1.515c-0.633,0-1.244,0-1.846,0c0,0.644,0,1.273,0,1.93c0.795,0,1.57,0,2.381,0c0,2.076,0,4.125,0,6.199c0.629,0,1.223,0,1.819,0c0,0.508,0,0.99,0,1.5c-0.613,0-1.207,0-1.813,0c0,0.793,0,1.557,0,2.357c0.615,0,1.215,0,1.821,0c0,0.511,0,0.988,0,1.501c-0.612,0-1.213,0-1.845,0c0,2.077,0,4.119,0,6.187c-0.808,0-1.583,0-2.363,0c0,1.318,0,2.608,0,3.899c0.613,0,1.207,0,1.837,0c0,0.496,0,0.978,0,1.499c0.992,0,1.949,0,2.938,0c0,1.311,0,2.582,0,3.844c1.613,0.071,3.191,0.141,4.81,0.212c0-0.497,0-0.979,0-1.48c0.632,0.055,1.223,0.106,1.846,0.16c0-0.828,0-1.629,0-2.462c0.968,0.074,1.903,0.145,2.863,0.218c0,1.345,0,2.663,0,3.962c2.218,0.308,4.408,0.613,6.622,0.921c0-1.382,0-2.755,0-4.155c0.396,0.028,0.748,0.053,1.1,0.078c1.215,0.085,2.42,0.069,3.61-0.25c2.194-0.587,3.686-1.89,4.286-4.126C43.731,34.817,43.783,33.413,43.641,31.998z M39.561,12.823c0.585-0.086,1.179-0.173,1.807-0.265c0,0.606,0,1.191,0,1.808c-0.593,0.073-1.189,0.146-1.807,0.222C39.561,13.998,39.561,13.426,39.561,12.823z M39.553,17.339c0.602-0.056,1.193-0.112,1.806-0.169c0,0.599,0,1.189,0,1.811c-0.592,0.039-1.19,0.079-1.806,0.12C39.553,18.489,39.553,17.922,39.553,17.339z M20.632,12.52c0.629-0.031,1.238-0.06,1.862-0.09c0,0.524,0,1.017,0,1.536c-0.623,0.028-1.233,0.056-1.862,0.084C20.632,13.536,20.632,13.043,20.632,12.52z M21.763,18.474c0,0.486,0,0.968,0,1.473c-0.605,0-1.214,0-1.844,0c0-0.479,0-0.961,0-1.473C20.535,18.474,21.138,18.474,21.763,18.474z M18.263,12.59c0.615,0,1.216,0,1.835,0c0,0.468,0,0.96,0,1.492c-0.612,0-1.214,0-1.835,0C18.263,13.617,18.263,13.125,18.263,12.59z M17.25,18.03c0-0.5,0-0.985,0-1.486c0.613,0,1.223,0,1.853,0c0,0.503,0,0.986,0,1.486C18.472,18.03,17.868,18.03,17.25,18.03z M17.721,37.343c-0.616,0-1.224,0-1.85,0c0-0.475,0-0.967,0-1.49c0.614,0,1.216,0,1.85,0C17.721,36.337,17.721,36.821,17.721,37.343z M19.63,33.456c-0.623,0-1.233,0-1.859,0c0-0.484,0-0.968,0-1.477c0.614,0,1.222,0,1.859,0C19.63,32.469,19.63,32.953,19.63,33.456z M19.632,31.522c-0.62,0-1.229,0-1.857,0c0-0.481,0-0.964,0-1.475c0.616,0,1.225,0,1.857,0C19.632,30.541,19.632,31.018,19.632,31.522z M19.691,24.249c0.609,0,1.218,0,1.84,0c0,0.496,0,0.989,0,1.498c-0.608,0-1.209,0-1.84,0C19.691,25.245,19.691,24.759,19.691,24.249z M22.501,41.164c-0.617,0-1.234,0-1.865,0c0-0.499,0-0.975,0-1.475c0.617,0,1.233,0,1.865,0C22.501,40.178,22.501,40.663,22.501,41.164z M24.114,15.226c0.158-0.01,5.165-0.259,5.768-0.275c3.905-0.099,3.8,1.579,3.828,2.8c0.051,2.241-0.883,4.257-5.579,4.62c-0.159,0.012-3.963,0.171-4.018,0.171C24.114,20.096,24.114,17.672,24.114,15.226z M27.316,37.567c-0.308-0.014-1.53-0.071-1.842-0.085c0-0.503,0-1.003,0-1.478c0.609,0,1.219,0,1.842,0C27.316,36.545,27.316,37.039,27.316,37.567z M32.067,37.905c-0.456-0.035-1.684-0.131-1.841-0.143c0-0.516,0-1.024,0-1.564c0.468,0.033,0.923,0.064,1.381,0.096c0.153,0.011,0.306,0.021,0.46,0.032C32.067,36.854,32.067,37.363,32.067,37.905z M34.637,33.032c-0.113,0.427-0.433,2.026-4.202,2.022c-0.923-0.001-6.188-0.217-6.323-0.217c0-2.469,0-4.875,0-7.318c0.117,0,3.463,0.071,4.019,0.101c5.875,0.312,6.016,1.444,6.613,3.552C34.915,31.777,34.8,32.42,34.637,33.032z M41.366,35.132c-0.605-0.07-1.195-0.139-1.805-0.21c0-0.58,0-1.154,0-1.768c0.593,0.057,1.189,0.114,1.805,0.173C41.366,33.943,41.366,34.527,41.366,35.132z"/></g></svg>