<?xml version="1.0" encoding="iso-8859-1"?><!-- Generator: Adobe Illustrator 21.0.1, SVG Export Plug-In . SVG Version: 6.00 Build 0)  --><svg xmlns="http://www.w3.org/2000/svg" xmlns:xlink="http://www.w3.org/1999/xlink" viewBox="0 0 50 50" width="500px" height="500px"><path style="fill:none;stroke:#000000;stroke-width:2;stroke-linecap:round;stroke-miterlimit:10;" d="M32,8V5c0-1.104-0.896-2-2-2H20c-1.104,0-2,0.896-2,2v3"/><circle cx="25" cy="22" r="2"/><circle style="fill:none;stroke:#000000;stroke-width:2;stroke-linecap:round;stroke-miterlimit:10;" cx="40" cy="36" r="9"/><line style="fill:none;stroke:#000000;stroke-width:2;stroke-miterlimit:10;" x1="27" y1="49" x2="34" y2="42"/><path d="M45.083,7H4.917C3.309,7,2,8.296,2,9.889v30.222C2,41.704,3.309,43,4.917,43h23.84l0.909-0.909C29.46,41.739,29.288,41.37,29.118,41H4.917C4.411,41,4,40.601,4,40.111V27.833C4.29,27.933,4.595,28,4.917,28h26.164c0.681-0.758,1.449-1.435,2.3-2H4.917C4.411,26,4,25.551,4,25V9.889C4,9.399,4.411,9,4.917,9h40.166C45.589,9,46,9.399,46,9.889V23v2v0.629c0.716,0.417,1.387,0.902,2,1.453V9.889C48,8.296,46.691,7,45.083,7z"/></svg>