<?xml version="1.0" encoding="iso-8859-1"?><!-- Generator: Adobe Illustrator 19.1.0, SVG Export Plug-In . SVG Version: 6.00 Build 0)  --><svg xmlns="http://www.w3.org/2000/svg" xmlns:xlink="http://www.w3.org/1999/xlink" viewBox="0 0 50 50" width="500px" height="500px"><line style="fill:none;stroke:#000000;stroke-width:2;stroke-miterlimit:10;" x1="14" y1="11" x2="27" y2="11"/><line style="fill:none;stroke:#000000;stroke-width:2;stroke-miterlimit:10;" x1="14" y1="15" x2="27" y2="15"/><line style="fill:none;stroke:#000000;stroke-width:2;stroke-miterlimit:10;" x1="14" y1="19" x2="37" y2="19"/><line style="fill:none;stroke:#000000;stroke-width:2;stroke-miterlimit:10;" x1="14" y1="23" x2="37" y2="23"/><line style="fill:none;stroke:#000000;stroke-width:2;stroke-miterlimit:10;" x1="14" y1="27" x2="37" y2="27"/><path style="fill:none;stroke:#000000;stroke-width:2;stroke-linecap:round;stroke-linejoin:round;stroke-miterlimit:10;" d="M32.508,35.479c-1.964,0-3.688,2.506-4.696,2.506c-0.358,0-0.771-2.506-1.283-2.506c-0.642,0-1.548,4.384-5.925,4.384c-1.961,0-3.132-2.446-3.132-4.208c0-2.232,1.326-4.104,2.682-4.104c1.355,0,1.829,0.983,1.829,2.038c0,4.175-4.529,7.441-4.529,7.441"/><polyline style="fill:none;stroke:#000000;stroke-width:2;stroke-linecap:round;stroke-miterlimit:10;" points="41,15 30,15 30,4 "/><polygon style="fill:none;stroke:#000000;stroke-width:2;stroke-linecap:round;stroke-miterlimit:10;" points="42,47 8,47 8,3 30,3 42,15 "/></svg>