<?xml version="1.0" encoding="iso-8859-1"?><!-- Generator: Adobe Illustrator 23.0.3, SVG Export Plug-In . SVG Version: 6.00 Build 0)  --><svg xmlns="http://www.w3.org/2000/svg" xmlns:xlink="http://www.w3.org/1999/xlink" viewBox="0 0 50 50" width="500px" height="500px"><line style="fill:none;stroke:#000000;stroke-width:2;stroke-linejoin:round;stroke-miterlimit:10;" x1="15" y1="44.667" x2="15" y2="33"/><circle style="fill:none;stroke:#000000;stroke-width:2;stroke-linecap:round;stroke-linejoin:round;stroke-miterlimit:10;" cx="15" cy="8" r="5"/><path style="fill:none;stroke:#000000;stroke-width:2;stroke-linecap:round;stroke-linejoin:round;stroke-miterlimit:10;" d="M24,32V20.5c0-2.481-2.018-4.5-4.5-4.5h-0.9h-7.2h-0.9C8.018,16,6,18.019,6,20.5V32"/><path style="fill:none;stroke:#000000;stroke-width:2;stroke-linecap:round;stroke-linejoin:round;stroke-miterlimit:10;" d="M20,32c0,1.105,0.895,2,2,2s2-0.895,2-2"/><path style="fill:none;stroke:#000000;stroke-width:2;stroke-linecap:round;stroke-linejoin:round;stroke-miterlimit:10;" d="M6,32c0,1.105,0.895,2,2,2s2-0.895,2-2"/><path style="fill:none;stroke:#000000;stroke-width:2;stroke-linejoin:round;stroke-miterlimit:10;" d="M15,44.5c0,1.381-1.119,2.5-2.5,2.5S10,45.881,10,44.5V23"/><path style="fill:none;stroke:#000000;stroke-width:2;stroke-linejoin:round;stroke-miterlimit:10;" d="M15,44.5c0,1.381,1.119,2.5,2.5,2.5s2.5-1.119,2.5-2.5V23"/><path d="M44,2H20.274c0.65,0.572,1.206,1.247,1.644,2H43v42H22.787c-0.211,0.741-0.569,1.421-1.047,2H44c0.552,0,1-0.448,1-1V3C45,2.448,44.552,2,44,2z"/><circle cx="39.5" cy="25.5" r="1.5"/></svg>