<?xml version="1.0" encoding="iso-8859-1"?>
<!-- Generator: Adobe Illustrator 25.4.1, SVG Export Plug-In . SVG Version: 6.00 Build 0)  -->
<svg version="1.1" id="Tone" xmlns="http://www.w3.org/2000/svg" xmlns:xlink="http://www.w3.org/1999/xlink" x="0px" y="0px"
	 viewBox="0 0 50 50" style="enable-background:new 0 0 50 50;" xml:space="preserve">
<g id="Line">
</g>
<g>
	<path d="M20.997,31.002C20.996,31.002,21.002,31,21,31C20.984,31,20.979,30.991,20.997,31.002z"/>
	<path d="M49,10H1c-0.031,0-0.062,0-0.094,0s-0.062,0-0.094,0C0.336,10.09-0.008,10.512,0,11v28c0,0.551,0.449,1,1,1h48
		c0.551,0,1-0.449,1-1V11C50,10.449,49.551,10,49,10z M27.879,31.504c-0.184,0.312-0.52,0.5-0.879,0.496
		c-0.145,0-0.605,0.273-1.125,0.75c-0.258,0.238-0.527,0.477-0.844,0.719S24.32,34,23.719,34c-0.395,0-0.719-0.164-0.938-0.344
		s-0.344-0.375-0.469-0.562c-0.254-0.371-0.465-0.77-0.656-1.125s-0.383-0.68-0.531-0.844c-0.073-0.08-0.111-0.111-0.128-0.123
		c0.022,0.005-0.233,0.069-0.528,0.341c-0.172,0.16-0.332,0.43-0.5,0.656c0.098,0.426,0.238,0.871,0.219,1.281
		c-0.016,0.34-0.078,0.668-0.312,1.031S19.129,35,18.656,35c-0.41,0-0.957-0.234-1.219-0.625s-0.277-0.773-0.25-1.094
		c0.051-0.609,0.316-1.137,0.625-1.688c-0.184-0.438-0.418-0.902-0.656-1.188C16.871,30.062,16.66,30,16.625,30
		c-0.004,0-0.363,0.141-0.75,0.594c-0.203,0.238-0.371,0.609-0.562,0.938c0.227,0.828,0.41,1.676,0.375,2.406
		c-0.02,0.43-0.074,0.832-0.312,1.25S14.559,36,14,36c-0.504,0-1.094-0.336-1.344-0.75s-0.285-0.797-0.281-1.188
		c0.008-0.781,0.246-1.605,0.594-2.438c0.047-0.113,0.137-0.203,0.188-0.312c-0.246-0.656-0.539-1.34-0.875-1.781
		c-0.41-0.543-0.789-0.719-0.969-0.719c-0.562,0-1.145,0.512-1.625,1.188s-0.75,1.344-0.75,1.344
		c-0.109,0.355-0.402,0.621-0.766,0.691c-0.367,0.07-0.738-0.066-0.969-0.355c-0.234-0.289-0.289-0.684-0.141-1.023
		c0,0,0.348-0.898,1-1.812s1.688-2.031,3.25-2.031c1.109,0,1.953,0.727,2.562,1.531c0.207,0.273,0.297,0.629,0.469,0.938
		C14.914,28.609,15.625,28,16.625,28c0.914,0,1.602,0.562,2.094,1.156c0.18,0.215,0.262,0.477,0.406,0.719
		C19.617,29.422,20.199,29,21,29c0.707,0,1.27,0.414,1.625,0.812s0.602,0.824,0.812,1.219c0.184,0.344,0.344,0.609,0.469,0.812
		c0.168-0.137,0.375-0.363,0.625-0.594C25.098,30.727,25.836,30,27,30c0.359-0.004,0.695,0.184,0.879,0.496
		C28.059,30.809,28.059,31.191,27.879,31.504z M6.859,22.141C6.781,21.59,7.168,21.078,7.719,21c0.031,0,0.062,0,0.094,0
		s0.062,0,0.094,0S7.969,21,8,21h17c0.359-0.004,0.695,0.184,0.879,0.496c0.18,0.312,0.18,0.695,0,1.008
		c-0.184,0.312-0.52,0.5-0.879,0.496H8C7.449,23.078,6.937,22.691,6.859,22.141z M29.879,18.504c-0.184,0.312-0.52,0.5-0.879,0.496
		H8c-0.551,0.078-1.062-0.309-1.141-0.859S7.168,17.078,7.719,17c0.031,0,0.062,0,0.094,0s0.062,0,0.094,0S7.969,17,8,17h21
		c0.359-0.004,0.695,0.184,0.879,0.496C30.059,17.809,30.059,18.191,29.879,18.504z M38.832,24.445
		c0.123,0.185,0.211,0.37,0.301,0.555H42v2h-2.465c-0.066,1.1-0.547,2.138-1.174,3H43v2h-7c-0.431,0-0.812-0.275-0.948-0.684
		c-0.137-0.408,0.004-0.858,0.349-1.116c0.101-0.077,1.986-1.534,2.136-3.2H35v-2h1.843c-1.028-1.871-1.052-3.834,0-5.026
		c0.725-0.821,2.546-1.898,6.604,0.132l-0.895,1.789c-2.42-1.21-3.762-1.102-4.21-0.598C37.892,21.808,37.952,23.125,38.832,24.445z
		"/>
</g>
</svg>