<?xml version="1.0" encoding="utf-8"?><!-- Generator: Adobe Illustrator 15.0.0, SVG Export Plug-In . SVG Version: 6.00 Build 0)  --><!DOCTYPE svg PUBLIC "-//W3C//DTD SVG 1.1//EN" "http://www.w3.org/Graphics/SVG/1.1/DTD/svg11.dtd"><svg xmlns="http://www.w3.org/2000/svg" xmlns:xlink="http://www.w3.org/1999/xlink" viewBox="0 0 50 50" width="500px" height="500px"><path d="M33,10c-0.553,0-1-0.448-1-1c0-2.804-3.075-5-7-5c-3.925,0-7,2.196-7,5c0,0.552-0.448,1-1,1s-1-0.448-1-1c0-3.925,3.953-7,9-7s9,3.075,9,7C34,9.552,33.553,10,33,10z"/><g><path d="M23,32h4c0.552,0,1-0.448,1-1v-2c0-0.552-0.448-1-1-1h-4c-0.551,0-1,0.448-1,1v2C22,31.552,22.449,32,23,32z"/><path d="M1,29h19c0-1.654,1.346-3,3-3h4c1.654,0,3,1.346,3,3h19c0.552,0,1-0.448,1-1V11c0-1.654-1.346-3-3-3H3c-1.654,0-3,1.346-3,3v17C0,28.552,0.449,29,1,29z"/><path d="M49,31H30c0,1.654-1.346,3-3,3h-4c-1.654,0-3-1.346-3-3H1c-0.353,0-0.686-0.072-1-0.185V45c0,1.654,1.346,3,3,3h44c1.654,0,3-1.346,3-3V30.815C49.686,30.928,49.353,31,49,31z"/></g></svg>