<?xml version="1.0" encoding="iso-8859-1"?><!-- Generator: Adobe Illustrator 22.1.0, SVG Export Plug-In . SVG Version: 6.00 Build 0)  --><svg xmlns="http://www.w3.org/2000/svg" xmlns:xlink="http://www.w3.org/1999/xlink" viewBox="0 0 50 50" width="500px" height="500px"><g><path d="M30.4,2H7v46h36V14.6L30.4,2z M14,10h13v2H14V10z M14,14h13v2H14V14z M14,18h23v2H14V18z M14,22h23v2H14V22z M14,26h10v2H14V26z M31,44c-4.411,0-8-3.589-8-8s3.589-8,8-8s8,3.589,8,8S35.411,44,31,44z M30,15V4.4L40.6,15H30z"/><path d="M31,30c-3.309,0-6,2.691-6,6s2.691,6,6,6s6-2.691,6-6S34.309,30,31,30z M35,37h-3v3h-2v-3h-3v-2h3v-3h2v3h3V37z"/></g></svg>