<?xml version="1.0" encoding="iso-8859-1"?>
<!-- Generator: Adobe Illustrator 18.0.0, SVG Export Plug-In . SVG Version: 6.00 Build 0)  -->
<!DOCTYPE svg PUBLIC "-//W3C//DTD SVG 1.1//EN" "http://www.w3.org/Graphics/SVG/1.1/DTD/svg11.dtd">
<svg version="1.1" id="Layer_1" xmlns="http://www.w3.org/2000/svg" xmlns:xlink="http://www.w3.org/1999/xlink" x="0px" y="0px"
	 width="50px" height="50px" viewBox="0 0 50 50" style="enable-background:new 0 0 50 50;" xml:space="preserve">
<path d="M49.466,29.203c-0.88-2.271-0.879-3.748,0.001-6.081c0.058-0.154,0.037-0.326-0.057-0.461
	c-0.093-0.135-0.247-0.216-0.411-0.216c-1.66,0-2.603,0.878-3.167,1.403c-0.008,0.008-0.017,0.016-0.025,0.023
	c-0.677-0.626-1.629-1.216-2.64-1.632l0.679-2.376c0.047-0.164,0.006-0.341-0.106-0.469c-0.113-0.127-0.284-0.188-0.453-0.162
	l-3.092,0.491c-1.146,0.261-1.959,1.108-2.126,2.168c-3.728,0.913-4.817,4.24-4.863,4.385c-0.037,0.116-0.029,0.242,0.02,0.354
	c0.057,0.128,1.41,3.084,5.147,3.846c0.875,1.396,3.197,1.798,3.3,1.815c0.027,0.005,0.055,0.007,0.082,0.007
	c0.118,0,0.232-0.041,0.323-0.118c0.112-0.096,0.177-0.234,0.177-0.382v-1.377c1.522-0.412,2.768-1.222,3.558-1.967
	c0.012,0.01,0.023,0.021,0.036,0.03c0.634,0.558,1.593,1.399,3.15,1.399c0.165,0,0.319-0.081,0.413-0.218
	C49.506,29.53,49.526,29.357,49.466,29.203z M38.249,26.479c-0.552,0-1-0.448-1-1c0-0.552,0.448-1,1-1c0.552,0,1,0.448,1,1
	C39.249,26.031,38.801,26.479,38.249,26.479z"/>
<circle style="fill:none;" cx="23.361" cy="21.805" r="1.987"/>
<path d="M8.752,15.125c0.787,0.287,1.319,0.585,1.683,0.873c4.852-3.067,9.836-3.827,14.856-2.262
	c-2.474-4.065-5.677-4.918-5.833-4.957c-0.208-0.052-0.427-0.036-0.625,0.046c-0.062,0.026-6.21,2.578-10.167,4.458
	c-0.364,0.173-0.588,0.547-0.57,0.95C8.115,14.636,8.374,14.987,8.752,15.125z"/>
<path d="M14.353,37.414c-0.088,0.778-0.406,1.543-0.947,2.197c-0.245,0.296-0.298,0.706-0.139,1.055
	c0.16,0.349,0.506,0.575,0.89,0.583l0.238,0.002c1.932,0,4.018-0.464,6.2-1.379c1.409-0.59,2.474-1.214,3.323-1.965
	c-1.224,0.256-2.467,0.4-3.73,0.4C18.281,38.307,16.332,37.998,14.353,37.414z"/>
<path d="M32.421,20.614c-1.057-1.057-3.162-2.932-5.907-4.305l-0.003,0.007c-5.242-2.28-9.761-1.754-14.98,1.339
	c0.003,0.016-0.847,0.641-0.844,0.656c-1.304,1.106-1.93,1.988-2.942,3.122l-0.375,0.417C7.25,21.744,7.12,21.623,6.98,21.493
	C5.84,20.431,4.117,18.827,1,18.827c-0.164,0-0.317,0.081-0.411,0.215c-0.093,0.135-0.115,0.307-0.057,0.46
	c0.384,1.023,0.788,1.727,1.144,2.348c0.626,1.092,1.078,1.881,1.078,3.837c0,2.011-0.427,2.741-1.018,3.753
	c-0.38,0.651-0.811,1.389-1.21,2.577c-0.051,0.152-0.026,0.32,0.068,0.451C0.688,32.6,0.839,32.677,1,32.677
	c2.922,0,4.751-1.606,5.961-2.67c0.146-0.128,0.285-0.251,0.419-0.363c0.328,0.348,0.641,0.69,0.946,1.024
	c1.751,1.916,3.284,3.581,5.852,4.611l0.063,0.022c4.035,1.334,7.92,1.338,11.545,0.013c0,0,0.87-0.423,0.901-0.438
	c2.953-1.469,4.786-2.712,4.939-2.829c0.121-0.093,0.193-0.236,0.196-0.389s-0.065-0.298-0.184-0.395l-5.037-4.122l5.819-5.819
	C32.617,21.126,32.617,20.81,32.421,20.614z M23.361,23.792c-1.097,0-1.987-0.89-1.987-1.987s0.89-1.987,1.987-1.987
	s1.987,0.89,1.987,1.987S24.458,23.792,23.361,23.792z"/>
</svg>