<?xml version="1.0" encoding="iso-8859-1"?><!-- Generator: Adobe Illustrator 21.1.0, SVG Export Plug-In . SVG Version: 6.00 Build 0)  --><svg xmlns="http://www.w3.org/2000/svg" xmlns:xlink="http://www.w3.org/1999/xlink" viewBox="0 0 50 50" width="500px" height="500px"><rect x="27" y="33" style="fill:none;stroke:#000000;stroke-width:2;stroke-miterlimit:10;" width="22" height="16"/><path d="M38.05,47L38.05,47L38.05,47L38.05,47L38.05,47L38.05,47z M37.04,46.01c0-0.56,0.44-1.01,1-1.01l0,0c0.55-0.01,1,0.439,1,0.99l0,0c0.01,0.55-0.43,1-0.99,1.01l0,0C37.5,47,37.05,46.56,37.04,46.01z M33.801,45.293c-0.391-0.392-0.401-1.023-0.01-1.422l0,0c0.381-0.392,1.012-0.401,1.413-0.011l0,0c0.391,0.382,0.401,1.023,0.01,1.412l0,0c-0.19,0.2-0.451,0.3-0.712,0.3l0,0C34.252,45.572,33.991,45.482,33.801,45.293z M40.86,45.22c-0.39-0.39-0.4-1.02-0.01-1.41l0,0c0.39-0.399,1.021-0.399,1.411-0.01l0,0c0.4,0.38,0.4,1.02,0.01,1.41l0,0l0,0l0,0c-0.19,0.2-0.45,0.3-0.71,0.3l0,0C41.31,45.509,41.05,45.41,40.86,45.22z M32,41.069c0-0.01,0-0.029,0-0.039l0,0c0-0.011,0-0.021,0-0.03l0,0c0-0.55,0.45-1,1-1l0,0c0.55,0,1,0.45,1,1l0,0c0,0.01,0,0.02,0,0.03l0,0c0,0.01,0,0.01,0,0.02l0,0c0,0.55-0.44,1-0.99,1.01l0,0H33l0,0C32.45,42.06,32.01,41.62,32,41.069z M42,40.979v-0.01c0-0.55,0.44-1,0.99-1l0,0c0.56,0,1.01,0.44,1.01,1l0,0c0,0.55-0.44,1-0.99,1l0,0C42.45,41.97,42,41.53,42,40.979z M32,41.069L32,41.069L32,41.069L32,41.069L32,41.069L32,41.069z M44,40.97c0-0.01,0-0.01,0-0.01l0,0C44,40.97,44,40.97,44,40.97L44,40.97L44,40.97z M33.749,38.178c-0.389-0.39-0.389-1.029,0-1.418l0,0c0.389-0.39,1.017-0.39,1.416,0l0,0c0.389,0.39,0.389,1.02,0,1.408l0,0c-0.2,0.2-0.449,0.3-0.708,0.3l0,0C34.198,38.468,33.949,38.368,33.749,38.178z M40.82,38.157c-0.399-0.39-0.399-1.019-0.01-1.418l0,0c0.39-0.39,1.019-0.39,1.408,0l0,0c0.399,0.389,0.399,1.018,0.01,1.407l0,0c-0.2,0.2-0.449,0.301-0.709,0.301l0,0C41.269,38.447,41.009,38.347,40.82,38.157z M37.99,37c-0.55,0-1-0.44-1.01-1l0,0c0-0.55,0.45-1,1-1l0,0c0.55,0,1,0.439,1,1l0,0C38.99,36.55,38.54,37,37.99,37L37.99,37z"/><path d="M27,42v-9h6.8V3.95C33.8,3.42,33.38,3,32.86,3H2.94C2.42,3,2,3.42,2,3.95v33.78c0,2.47,0.74,4.46,2.2,5.91C6.53,45.94,9.85,46,10.18,46c0.01,0,0.02,0,0.02,0H26L27,42z M28,32h-7c-0.552,0-1-0.448-1-1s0.448-1,1-1h7c0.552,0,1,0.448,1,1S28.552,32,28,32z M28,28h-7c-0.552,0-1-0.448-1-1s0.448-1,1-1h7c0.552,0,1,0.448,1,1S28.552,28,28,28z M28,24h-7c-0.552,0-1-0.448-1-1s0.448-1,1-1h7c0.552,0,1,0.448,1,1S28.552,24,28,24z M8,10h20c0.552,0,1,0.448,1,1s-0.448,1-1,1H8c-0.552,0-1-0.448-1-1S7.448,10,8,10z M7,15c0-0.552,0.448-1,1-1h20c0.552,0,1,0.448,1,1s-0.448,1-1,1H8C7.448,16,7,15.552,7,15z M16,40H9c-0.552,0-1-0.448-1-1s0.448-1,1-1h7c0.552,0,1,0.448,1,1S16.552,40,16,40z M16,36H9c-0.552,0-1-0.448-1-1s0.448-1,1-1h7c0.552,0,1,0.448,1,1S16.552,36,16,36z M16,32H9c-0.552,0-1-0.448-1-1s0.448-1,1-1h7c0.552,0,1,0.448,1,1S16.552,32,16,32z M16,28H9c-0.552,0-1-0.448-1-1s0.448-1,1-1h7c0.552,0,1,0.448,1,1S16.552,28,16,28z M16,24H9c-0.552,0-1-0.448-1-1s0.448-1,1-1h7c0.552,0,1,0.448,1,1S16.552,24,16,24z M26,40h-5c-0.552,0-1-0.448-1-1s0.448-1,1-1h5V40z M26,36h-5c-0.552,0-1-0.448-1-1s0.448-1,1-1h5V36z"/><path d="M44.907,9.24c-0.373-0.497-0.874-0.821-1.46-1.004l0-0.016c-0.008,0.002-0.014,0.006-0.022,0.008c-0.008-0.002-0.014-0.006-0.022-0.008l0,0.016c-0.585,0.183-1.087,0.506-1.46,1.004C40.956,10.55,41,12.57,41,12.59v20.15h4.849V12.59C45.85,12.57,45.894,10.55,44.907,9.24z"/><path d="M39,32.74L39,32.74V12.63c0-0.07,0.07-2.72,1.63-4.63H36v24.74H39z"/></svg>