<?xml version="1.0" encoding="iso-8859-1"?>
<!-- Generator: Adobe Illustrator 23.0.3, SVG Export Plug-In . SVG Version: 6.00 Build 0)  -->
<svg version="1.1" id="Layer_1" xmlns="http://www.w3.org/2000/svg" xmlns:xlink="http://www.w3.org/1999/xlink" x="0px" y="0px"
	 viewBox="0 0 50 50" style="enable-background:new 0 0 50 50;" xml:space="preserve">
<path style="fill:none;stroke:#000000;stroke-width:2;stroke-linecap:round;" d="M1,24.143C1,25.169,1.895,26,3,26h30.447"/>
<path style="fill:none;stroke:#000000;stroke-width:2;stroke-linecap:round;" d="M41,27.702V10.611C41,9.721,40.255,9,39.333,9
	H2.667C1.745,9,1,9.721,1,10.611v25.778C1,37.279,1.745,38,2.667,38H27"/>
<path style="fill:none;stroke:#000000;stroke-width:2;stroke-linecap:round;" d="M28,9V5.857C28,4.831,27.105,4,26,4H16
	c-1.105,0-2,0.831-2,1.857V9"/>
<path d="M49.536,33.272c0.298-0.189,0.475-0.521,0.463-0.875c-0.011-0.354-0.207-0.675-0.517-0.845l-13.5-7.429
	c-0.301-0.166-0.664-0.166-0.965,0l-13.5,7.429c-0.31,0.17-0.506,0.491-0.517,0.845c-0.012,0.354,0.165,0.686,0.463,0.875
	l5.414,3.438c-1.348,2.324-1.903,5.025-1.877,9.016c0.004,0.55,0.45,0.994,1,0.994c4.841,0,7.825,1.398,8.635,2.784
	C34.815,49.812,35.144,50,35.499,50s0.684-0.188,0.863-0.495c0.81-1.386,3.795-2.784,8.637-2.784c0.55,0,0.996-0.444,1-0.994
	c0.025-3.987-0.531-6.688-1.88-9.015L47,34.883v4.42c-0.43,0.302-0.714,0.8-0.714,1.364c0,0.168,0,0.679,0.843,1.9l0.822,1.193
	l0.824-1.192c0.844-1.223,0.844-1.733,0.844-1.901c0-0.52-0.245-0.98-0.619-1.286v-5.769L49.536,33.272z M35.5,26.142l11.537,6.349
	L35.5,39.815L23.963,32.49L35.5,26.142z M43.992,44.74c-3.757,0.148-6.824,1.132-8.493,2.692c-1.669-1.561-4.735-2.543-8.491-2.692
	c0.063-3.031,0.538-5.156,1.559-6.958l6.397,4.062C35.128,41.948,35.313,42,35.5,42s0.372-0.052,0.536-0.156l6.396-4.061
	C43.453,39.589,43.928,41.714,43.992,44.74z"/>
<circle cx="21" cy="20" r="2"/>
</svg>