<?xml version="1.0" encoding="iso-8859-1"?>
<!-- Generator: Adobe Illustrator 24.2.1, SVG Export Plug-In . SVG Version: 6.00 Build 0)  -->
<svg version="1.1" id="Layer_1" xmlns="http://www.w3.org/2000/svg" xmlns:xlink="http://www.w3.org/1999/xlink" x="0px" y="0px"
	 viewBox="0 0 48 48" style="enable-background:new 0 0 48 48;" xml:space="preserve">
<path d="M43.545,37.614l-10.878-19.74C32.03,16.718,30.816,16,29.5,16s-2.529,0.718-3.167,1.874L15.455,37.614
	c-0.627,1.139-0.607,2.487,0.054,3.607C16.167,42.335,17.33,43,18.621,43h21.758c1.291,0,2.455-0.665,3.112-1.779
	C44.153,40.102,44.173,38.753,43.545,37.614z M28,25.5c0-0.829,0.671-1.5,1.5-1.5s1.5,0.671,1.5,1.5v5c0,0.829-0.671,1.5-1.5,1.5
	S28,31.329,28,30.5V25.5z M29.5,38c-1.105,0-2-0.895-2-2c0-1.105,0.895-2,2-2c1.105,0,2,0.895,2,2C31.5,37.105,30.605,38,29.5,38z"
	/>
<path d="M17.993,14.797l13.189-7.168C30.213,6.055,28.48,5,26.5,5h-17C7.47,5,5.698,6.108,4.745,7.748L17.993,14.797z"/>
<path d="M24.582,16.908C25.571,15.114,27.456,14,29.5,14c0.885,0,1.735,0.22,2.5,0.602v-4.003l-13.284,7.219
	C18.493,17.939,18.247,18,18,18c-0.242,0-0.484-0.059-0.705-0.176L4,10.75V21.5C4,24.533,6.467,27,9.5,27h9.52L24.582,16.908z"/>
</svg>