<?xml version="1.0" encoding="iso-8859-1"?>
<!-- Generator: Adobe Illustrator 26.5.0, SVG Export Plug-In . SVG Version: 6.00 Build 0)  -->
<svg version="1.1" baseProfile="basic" xmlns="http://www.w3.org/2000/svg" xmlns:xlink="http://www.w3.org/1999/xlink" x="0px"
	 y="0px" viewBox="0 0 50 50" xml:space="preserve">
<g id="&#x421;&#x43B;&#x43E;&#x439;_1">
</g>
<g id="&#x421;&#x43B;&#x43E;&#x439;_2">
</g>
<g id="&#x421;&#x43B;&#x43E;&#x439;_3">
	<path d="M43,9H7c-2.75,0-5,2.25-5,5v22c0,2.75,2.25,5,5,5h36c2.75,0,5-2.25,5-5V14C48,11.25,45.75,9,43,9z M46,36
		c0,1.668-1.332,3-3,3H7c-1.668,0-3-1.332-3-3V14c0-1.668,1.332-3,3-3h36c1.668,0,3,1.332,3,3V36z"/>
	<path d="M14.875,15c-0.109,0.016-0.215,0.047-0.312,0.094l-6,3c-0.5,0.242-0.711,0.844-0.469,1.344
		c0.242,0.5,0.844,0.711,1.344,0.469L15,17.125l5.562,2.781c0.5,0.242,1.102,0.031,1.344-0.469s0.031-1.102-0.469-1.344l-6-3
		C15.262,15.008,15.066,14.977,14.875,15z"/>
	<path d="M26.719,18c-0.551,0.078-0.938,0.59-0.859,1.141S26.449,20.078,27,20h14c0.359,0.004,0.695-0.184,0.879-0.496
		c0.18-0.312,0.18-0.695,0-1.008c-0.184-0.312-0.52-0.5-0.879-0.496H27c-0.031,0-0.062,0-0.094,0s-0.062,0-0.094,0
		S26.75,18,26.719,18z"/>
	<path d="M26.719,22c-0.551,0.078-0.938,0.59-0.859,1.141S26.449,24.078,27,24h11c0.359,0.004,0.695-0.184,0.879-0.496
		c0.18-0.312,0.18-0.695,0-1.008c-0.184-0.312-0.52-0.5-0.879-0.496H27c-0.031,0-0.062,0-0.094,0s-0.062,0-0.094,0
		S26.75,22,26.719,22z"/>
	<path d="M26.719,26c-0.551,0.078-0.938,0.59-0.859,1.141S26.449,28.078,27,28h14c0.359,0.004,0.695-0.184,0.879-0.496
		c0.18-0.312,0.18-0.695,0-1.008c-0.184-0.312-0.52-0.5-0.879-0.496H27c-0.031,0-0.062,0-0.094,0s-0.062,0-0.094,0
		S26.75,26,26.719,26z"/>
	<path d="M26.719,30c-0.551,0.078-0.938,0.59-0.859,1.141S26.449,32.078,27,32h11c0.359,0.004,0.695-0.184,0.879-0.496
		c0.18-0.312,0.18-0.695,0-1.008c-0.184-0.312-0.52-0.5-0.879-0.496H27c-0.031,0-0.062,0-0.094,0s-0.062,0-0.094,0
		S26.75,30,26.719,30z"/>
	<path d="M20,21H10c-0.552,0-1,0.448-1,1v12c0,0.552,0.448,1,1,1h10c0.552,0,1-0.448,1-1V22C21,21.448,20.552,21,20,21z M14,32.5
		c0,0.276-0.224,0.5-0.5,0.5h-2c-0.276,0-0.5-0.224-0.5-0.5v-1c0-0.276,0.224-0.5,0.5-0.5h2c0.276,0,0.5,0.224,0.5,0.5V32.5z
		 M19,32.5c0,0.276-0.224,0.5-0.5,0.5h-2c-0.276,0-0.5-0.224-0.5-0.5v-1c0-0.276,0.224-0.5,0.5-0.5h2c0.276,0,0.5,0.224,0.5,0.5
		V32.5z M14,28.5c0,0.276-0.224,0.5-0.5,0.5h-2c-0.276,0-0.5-0.224-0.5-0.5v-1c0-0.276,0.224-0.5,0.5-0.5h2
		c0.276,0,0.5,0.224,0.5,0.5V28.5z M14,24.5c0,0.276-0.224,0.5-0.5,0.5h-2c-0.276,0-0.5-0.224-0.5-0.5v-1c0-0.276,0.224-0.5,0.5-0.5
		h2c0.276,0,0.5,0.224,0.5,0.5V24.5z M19,28.5c0,0.276-0.224,0.5-0.5,0.5h-2c-0.276,0-0.5-0.224-0.5-0.5v-1
		c0-0.276,0.224-0.5,0.5-0.5h2c0.276,0,0.5,0.224,0.5,0.5V28.5z M19,24.5c0,0.276-0.224,0.5-0.5,0.5h-2c-0.276,0-0.5-0.224-0.5-0.5
		v-1c0-0.276,0.224-0.5,0.5-0.5h2c0.276,0,0.5,0.224,0.5,0.5V24.5z"/>
</g>
</svg>