<?xml version="1.0" encoding="iso-8859-1"?>
<!-- Generator: Adobe Illustrator 23.0.3, SVG Export Plug-In . SVG Version: 6.00 Build 0)  -->
<svg version="1.1" xmlns="http://www.w3.org/2000/svg" xmlns:xlink="http://www.w3.org/1999/xlink" x="0px" y="0px"
	 viewBox="0 0 50 50" style="enable-background:new 0 0 50 50;" xml:space="preserve">
<g id="filled">
</g>
<g id="outlined">
</g>
<g id="rounded">
</g>
<g id="two_x5F_tone">
</g>
<g id="sharp">
</g>
<g id="win10">
</g>
<g id="ios_x5F_out">
</g>
<g id="ios_x5F_filled">
	<path d="M16,5V3H8v2H4v24h11V12h4v-2h1V5H16z M13,10h-2V8h2V10z M17,10h-2V8h2V10z M9,10H7V8h2V10z M13,14h-2v-2h2V14z M9,14H7v-2
		h2V14z M13,18h-2v-2h2V18z M9,18H7v-2h2V18z M13,22h-2v-2h2V22z M9,22H7v-2h2V22z M13,26h-2v-2h2V26z M9,26H7v-2h2V26z"/>
	<path d="M29,14v-2h-8v2h-4v24h11V21h4v-2h1v-5H29z M26,19h-2v-2h2V19z M30,19h-2v-2h2V19z M22,19h-2v-2h2V19z M26,23h-2v-2h2V23z
		 M22,23h-2v-2h2V23z M26,27h-2v-2h2V27z M22,27h-2v-2h2V27z M26,31h-2v-2h2V31z M22,31h-2v-2h2V31z M26,35h-2v-2h2V35z M22,35h-2
		v-2h2V35z"/>
	<path d="M42,23v-2h-8v2h-4v24h16V29v-6H42z M39,28h-2v-2h2V28z M43,28h-2v-2h2V28z M35,28h-2v-2h2V28z M39,32h-2v-2h2V32z M35,32
		h-2v-2h2V32z M39,36h-2v-2h2V36z M35,36h-2v-2h2V36z M39,40h-2v-2h2V40z M35,40h-2v-2h2V40z M39,44h-2v-2h2V44z M43,32h-2v-2h2V32z
		 M43,36h-2v-2h2V36z M43,40h-2v-2h2V40z M43,44h-2v-2h2V44z M35,44h-2v-2h2V44z"/>
</g>
<g id="color">
</g>
</svg>