<?xml version="1.0" encoding="iso-8859-1"?><!-- Generator: Adobe Illustrator 21.0.0, SVG Export Plug-In . SVG Version: 6.00 Build 0)  --><svg xmlns="http://www.w3.org/2000/svg" xmlns:xlink="http://www.w3.org/1999/xlink" viewBox="0 0 50 50" width="500px" height="500px"><path style="fill:none;stroke:#000000;stroke-width:2;stroke-linecap:round;stroke-linejoin:round;stroke-miterlimit:10;" d="M27,37c0.552,0,1-0.448,1-1V24c0-3.474-2.333-4.733-3-5v-9h-4v9c-0.667,0.267-3,1.459-3,5v11.994C18,36.914,18.329,37,19,37H27z"/><path style="fill:none;stroke:#000000;stroke-width:2;stroke-linejoin:round;stroke-miterlimit:10;" d="M42.981,34.242c-0.1-0.606-0.598-1.111-1.195-1.212c0-0.101-0.1-0.101-0.1-0.202c0.199-0.606,0.1-1.212-0.398-1.616c-0.498-0.404-1.195-0.404-1.694-0.101c-0.1,0-0.1,0-0.199-0.101l0,0C39.195,30.404,38.697,30,38,30c-0.598,0-1.195,0.404-1.395,1.01l0,0c-0.1,0-0.1,0-0.199,0.101c-0.498-0.303-1.195-0.303-1.694,0.101c-0.498,0.404-0.598,1.01-0.398,1.616c0,0.101-0.1,0.101-0.1,0.202c-0.598,0.101-1.096,0.606-1.195,1.212c-0.1,0.606,0.199,1.212,0.697,1.515c0,0.101,0,0.202,0,0.303c-0.398,0.505-0.398,1.111-0.1,1.616c0.299,0.505,0.897,0.808,1.494,0.707c0.1,0.101,0.199,0.101,0.199,0.202c0,0.606,0.398,1.111,0.897,1.313c0.598,0.202,1.195,0,1.594-0.404c0.1,0,0.1,0,0.199,0s0.1,0,0.199,0C38.498,39.798,38.897,40,39.295,40c0.199,0,0.299,0,0.498-0.101c0.598-0.202,0.897-0.707,0.897-1.313c0.1-0.101,0.199-0.101,0.199-0.202c0.598,0.101,1.195-0.202,1.494-0.707s0.199-1.212-0.1-1.616c0-0.101,0-0.202,0-0.303C42.782,35.455,43.081,34.848,42.981,34.242z"/><polyline style="fill:none;stroke:#000000;stroke-width:2;stroke-linejoin:round;stroke-miterlimit:10;" points="32,42 8,42 8,5 38,5 38,28 "/><polyline style="fill:none;stroke:#000000;stroke-width:2;stroke-linejoin:round;stroke-miterlimit:10;" points="42,38 42,47 38,44 34,47 34,38 "/></svg>