<?xml version="1.0" encoding="iso-8859-1"?><!-- Generator: Adobe Illustrator 19.1.1, SVG Export Plug-In . SVG Version: 6.00 Build 0)  --><svg xmlns="http://www.w3.org/2000/svg" xmlns:xlink="http://www.w3.org/1999/xlink" viewBox="0 0 50 50" width="500px" height="500px"><line fill="none" stroke="#000000" stroke-width="2" stroke-linecap="round" stroke-linejoin="round" stroke-miterlimit="10" x1="15" y1="43" x2="35" y2="43"/><path d="M47,8H3C2.448,8,2,8.448,2,9v30c0,0.553,0.448,1,1,1h44c0.553,0,1-0.447,1-1V9C48,8.448,47.553,8,47,8z M25,13c2.761,0,5,2.239,5,5s-2.239,5-5,5s-5-2.239-5-5S22.239,13,25,13z M16,36h-6v-4h6V36z M24,36h-6v-4h6V36z M32,36h-6v-4h6V36z M17,30c0-2.761,2.239-5,5-5h6c2.761,0,5,2.239,5,5H17z M40,36h-6v-4h6V36z"/></svg>