<?xml version="1.0" encoding="utf-8"?><!-- Generator: Adobe Illustrator 19.1.1, SVG Export Plug-In . SVG Version: 6.00 Build 0)  --><svg xmlns="http://www.w3.org/2000/svg" xmlns:xlink="http://www.w3.org/1999/xlink" viewBox="0 0 50 50" width="500px" height="500px"><polyline fill="none" stroke="#000000" stroke-width="2" stroke-linecap="round" stroke-linejoin="round" stroke-miterlimit="10" points="1,20 4,20 4,47 46,47 46,20 49,20 "/><line fill="none" stroke="#000000" stroke-width="2" stroke-linejoin="round" stroke-miterlimit="10" x1="25" y1="28" x2="25" y2="41"/><polyline fill="none" stroke="#000000" stroke-width="2" stroke-linecap="round" stroke-linejoin="round" stroke-miterlimit="10" points="30,36 25,41 20,36 "/><path d="M25,2c-6.6,0-12,5.4-12,12s5.4,12,12,12c6.6,0,12-5.4,12-12S31.6,2,25,2z M24.9,19.6c-2.5,0-4.1-1.5-4.2-3.5h2.2c0.1,0.9,1,1.6,2,1.6c1.2,0,2-0.8,2-2c0-1.2-0.8-2.1-2-2.1c-0.9,0-1.5,0.4-1.9,1h-2.1L21.4,8h7.1v2h-5.3L23,12.9h0.1c0.5-0.7,1.3-1.1,2.4-1.1c2.1,0,3.7,1.6,3.7,3.8C29.2,17.9,27.5,19.6,24.9,19.6z"/></svg>