<?xml version="1.0" encoding="iso-8859-1"?><!-- Generator: Adobe Illustrator 19.1.1, SVG Export Plug-In . SVG Version: 6.00 Build 0)  --><svg xmlns="http://www.w3.org/2000/svg" xmlns:xlink="http://www.w3.org/1999/xlink" viewBox="0 0 50 50" width="500px" height="500px"><path d="M45,43H5c-0.552,0-1-0.447-1-1v-7c0-0.481,0.343-0.895,0.816-0.982l16-3C20.876,31.006,20.938,31,21,31h8c0.062,0,0.123,0.006,0.185,0.018l16,3C45.657,34.105,46,34.519,46,35v7C46,42.553,45.553,43,45,43z"/><path d="M20,25.053V29h10v-3.947c0-2.12,1.007-3.631,2.173-5.381C33.498,17.683,35,15.429,35,12c0-5.514-4.486-10-10-10c-5.514,0-10,4.486-10,10c0,3.429,1.502,5.683,2.827,7.672C18.993,21.422,20,22.934,20,25.053z"/><path d="M8,48h34c1.654,0,3-1.346,3-3H5C5,46.654,6.346,48,8,48z"/></svg>