<?xml version="1.0" encoding="iso-8859-1"?><!-- Generator: Adobe Illustrator 20.1.0, SVG Export Plug-In . SVG Version: 6.00 Build 0)  --><svg xmlns="http://www.w3.org/2000/svg" xmlns:xlink="http://www.w3.org/1999/xlink" viewBox="0 0 50 50" width="500px" height="500px"><path d="M12,32v-2h1v-2h-1v-2h1v-8H7v-2h6v-2H7v-2h6V4H5C3.346,4,2,5.346,2,7v36c0,1.654,1.346,3,3,3h8V32H12z M9,32c-0.552,0-1-0.448-1-1c0-0.552,0.448-1,1-1s1,0.448,1,1C10,31.552,9.552,32,9,32z M9,28c-0.552,0-1-0.448-1-1c0-0.552,0.448-1,1-1s1,0.448,1,1C10,27.552,9.552,28,9,28z"/><path d="M33,2H17c-1.654,0-3,1.346-3,3v40c0,1.654,1.346,3,3,3h16c1.654,0,3-1.346,3-3V5C36,3.346,34.654,2,33,2z M20,40c-0.552,0-1-0.448-1-1c0-0.552,0.448-1,1-1s1,0.448,1,1C21,39.552,20.552,40,20,40z M20,36c-0.552,0-1-0.448-1-1c0-0.552,0.448-1,1-1s1,0.448,1,1C21,35.552,20.552,36,20,36z M20,32c-0.552,0-1-0.448-1-1c0-0.552,0.448-1,1-1s1,0.448,1,1C21,31.552,20.552,32,20,32z M20,28c-0.552,0-1-0.448-1-1c0-0.552,0.448-1,1-1s1,0.448,1,1C21,27.552,20.552,28,20,28z M31,40h-8v-2h8V40z M31,36h-8v-2h8V36z M31,32h-8v-2h8V32z M31,28h-8v-2h8V28z M31,16H19v-2h12V16z M31,12H19v-2h12V12z"/><path d="M45,4h-8v8h6v2h-6v2h6v2h-6v8h6v2h-6v2h6v2h-6v2h6v2h-6v10h8c1.654,0,3-1.346,3-3V7C48,5.346,46.654,4,45,4z"/></svg>