<?xml version="1.0" encoding="utf-8"?><!-- Generator: Adobe Illustrator 15.0.0, SVG Export Plug-In . SVG Version: 6.00 Build 0)  --><!DOCTYPE svg PUBLIC "-//W3C//DTD SVG 1.1//EN" "http://www.w3.org/Graphics/SVG/1.1/DTD/svg11.dtd"><svg xmlns="http://www.w3.org/2000/svg" xmlns:xlink="http://www.w3.org/1999/xlink" viewBox="0 0 50 50" width="500px" height="500px"><path d="M41.5,50c-2.439,0-4.5-2.061-4.5-4.5V1c0-0.552,0.447-1,1-1h3c2.757,0,5,2.243,5,5v40.5C46,47.939,43.939,50,41.5,50z"/><path d="M38,2H28c-0.553,0-1-0.448-1-1s0.447-1,1-1h10c0.553,0,1,0.448,1,1S38.553,2,38,2z"/><path d="M38,6H28c-0.553,0-1-0.448-1-1s0.447-1,1-1h10c0.553,0,1,0.448,1,1S38.553,6,38,6z"/><path d="M38,10H28c-0.553,0-1-0.448-1-1s0.447-1,1-1h10c0.553,0,1,0.448,1,1S38.553,10,38,10z"/><path d="M38,14H28c-0.553,0-1-0.448-1-1s0.447-1,1-1h10c0.553,0,1,0.448,1,1S38.553,14,38,14z"/><path d="M38,18H28c-0.553,0-1-0.448-1-1s0.447-1,1-1h10c0.553,0,1,0.448,1,1S38.553,18,38,18z"/><path d="M38,22H28c-0.553,0-1-0.448-1-1s0.447-1,1-1h10c0.553,0,1,0.448,1,1S38.553,22,38,22z"/><path d="M38,26H28c-0.553,0-1-0.448-1-1s0.447-1,1-1h10c0.553,0,1,0.448,1,1S38.553,26,38,26z"/><path d="M38,30H28c-0.553,0-1-0.447-1-1s0.447-1,1-1h10c0.553,0,1,0.447,1,1S38.553,30,38,30z"/><path d="M24.995,36.119C24.347,35.99,23.664,35.99,23,36.116V19.3c0-3.991-1.798-13.12-2.618-16.911c-0.311-1.403-1.535-2.383-2.976-2.383h-0.5c-0.042,0-0.083,0.002-0.124,0.008c-1.286,0.161-2.376,1.138-2.647,2.356C13.824,3.644,11,14.844,11,19.3v7.2c0,2.439,2.061,4.5,4.5,4.5c1.355,0,2.5,1.145,2.5,2.5v10.3c0,3.177,2.315,5.815,5.4,6.17c0.205,0.021,0.39,0.021,0.606,0.03c1.604,0,3.111-0.609,4.247-1.759C29.38,47.1,30,45.594,30,44v-1.8C30,39.141,27.88,36.58,24.995,36.119z M17,28c-1.104,0-2-0.896-2-2c0-1.104,0.896-2,2-2s2,0.896,2,2C19,27.104,18.104,28,17,28z M26,44c0,1.1-0.9,2-2,2s-2-0.9-2-2c0-0.4,0-1.6,0-2c0-1.1,0.9-2,2-2s2,0.9,2,2C26,42.4,26,43.6,26,44z"/><path d="M15.5,33c-1.728,0-3.322-0.719-4.5-1.863v4.961C10.678,36.037,10.343,36,10,36c-3.364,0-6,2.636-6,6v2c0,3.364,2.636,6,6,6s6-2.636,6-6v-0.2V33.5C16,33.248,15.752,33,15.5,33z M12,44c0,1.1-0.9,2-2,2s-2-0.9-2-2c0-0.4,0-1.6,0-2c0-1.1,0.9-2,2-2s2,0.9,2,2C12,42.4,12,43.6,12,44z"/></svg>