<?xml version="1.0" encoding="iso-8859-1"?>
<!-- Generator: Adobe Illustrator 24.0.2, SVG Export Plug-In . SVG Version: 6.00 Build 0)  -->
<svg version="1.1" id="&#x421;&#x43B;&#x43E;&#x439;_1"
	 xmlns="http://www.w3.org/2000/svg" xmlns:xlink="http://www.w3.org/1999/xlink" x="0px" y="0px" viewBox="0 0 50 50"
	 style="enable-background:new 0 0 50 50;" xml:space="preserve">
<path style="fill:none;stroke:#000000;stroke-width:2;stroke-linejoin:round;stroke-miterlimit:10;" d="M11.584,47h28.75
	c0,0,7.666,0.091,7.666-7.664C48,31.579,48,4,48,4"/>
<path style="fill:none;stroke:#000000;stroke-width:2;stroke-linejoin:round;stroke-miterlimit:10;" d="M2.001,39.391
	c0,7.613,6.67,7.609,6.67,7.609S16,46.637,16,39s0-35,0-35l32,0c0,0,0,27.579,0,35.336C48,47.091,40.334,47,40.334,47L9,47"/>
<path style="fill:none;stroke:#000000;stroke-width:2;stroke-linecap:round;stroke-linejoin:round;stroke-miterlimit:10;" d="
	M10,38.015V14.942c0-0.818-0.208-1.637-0.679-2.308C8.747,11.817,7.706,11,5.834,11C2.091,11,2,14.818,2,14.818v24.573"/>
<path style="fill:none;stroke:#000000;stroke-width:2;stroke-linejoin:round;stroke-miterlimit:10;" d="M6,11h10"/>
<path style="fill:none;stroke:#000000;stroke-width:2;stroke-linecap:round;stroke-linejoin:round;stroke-miterlimit:10;" d="M42,28
	c-2.333,0-4.667,0-7,0"/>
<path style="fill:none;stroke:#000000;stroke-width:2;stroke-linecap:round;stroke-linejoin:round;stroke-miterlimit:10;" d="M42,32
	c-2.333,0-4.667,0-7,0"/>
<path style="fill:none;stroke:#000000;stroke-width:2;stroke-linecap:round;stroke-linejoin:round;stroke-miterlimit:10;" d="M42,36
	c-2.333,0-4.667,0-7,0"/>
<path style="fill:none;stroke:#000000;stroke-width:2;stroke-linecap:round;stroke-linejoin:round;stroke-miterlimit:10;" d="M42,40
	c-2.333,0-4.667,0-7,0"/>
<path style="fill:none;stroke:#000000;stroke-width:2;stroke-linecap:round;stroke-linejoin:round;stroke-miterlimit:10;" d="M29,28
	c-2.333,0-4.667,0-7,0"/>
<path style="fill:none;stroke:#000000;stroke-width:2;stroke-linecap:round;stroke-linejoin:round;stroke-miterlimit:10;" d="M29,32
	c-2.333,0-4.667,0-7,0"/>
<path style="fill:none;stroke:#000000;stroke-width:2;stroke-linecap:round;stroke-linejoin:round;stroke-miterlimit:10;" d="M29,36
	c-2.333,0-4.667,0-7,0"/>
<path style="fill:none;stroke:#000000;stroke-width:2;stroke-linecap:round;stroke-linejoin:round;stroke-miterlimit:10;" d="M29,40
	c-2.333,0-4.667,0-7,0"/>
<path d="M21,10h22c0.552,0,1-0.448,1-1v0c0-0.552-0.448-1-1-1H21c-0.552,0-1,0.448-1,1v0C20,9.552,20.448,10,21,10z"/>
<rect x="20" y="13" transform="matrix(-1 -2.834589e-11 2.834589e-11 -1 64 37)" width="24" height="11"/>
</svg>