<?xml version="1.0" encoding="iso-8859-1"?>
<!-- Generator: Adobe Illustrator 23.0.3, SVG Export Plug-In . SVG Version: 6.00 Build 0)  -->
<svg version="1.1" id="Layer_1" xmlns="http://www.w3.org/2000/svg" xmlns:xlink="http://www.w3.org/1999/xlink" x="0px" y="0px"
	 viewBox="0 0 50 50" style="enable-background:new 0 0 50 50;" xml:space="preserve">
<ellipse style="fill:none;stroke:#000000;stroke-width:2;stroke-linecap:round;stroke-linejoin:round;stroke-miterlimit:10;" cx="42" cy="34.5" rx="7" ry="2.5"/>
<path style="fill:none;stroke:#000000;stroke-width:2;stroke-linecap:round;stroke-linejoin:round;stroke-miterlimit:10;" d="
	M49,38.5c0,1.381-3.134,2.5-7,2.5s-7-1.119-7-2.5"/>
<path style="fill:none;stroke:#000000;stroke-width:2;stroke-linecap:round;stroke-linejoin:round;stroke-miterlimit:10;" d="
	M49,42.5c0,1.381-3.134,2.5-7,2.5s-7-1.119-7-2.5"/>
<path style="fill:none;stroke:#000000;stroke-width:2;stroke-linecap:round;stroke-linejoin:round;stroke-miterlimit:10;" d="
	M49,34.5v12c0,1.381-3.134,2.5-7,2.5s-7-1.119-7-2.5v-12"/>
<ellipse style="fill:none;stroke:#000000;stroke-width:2;stroke-linecap:round;stroke-linejoin:round;stroke-miterlimit:10;" cx="28" cy="38.5" rx="7" ry="2.5"/>
<path style="fill:none;stroke:#000000;stroke-width:2;stroke-linecap:round;stroke-linejoin:round;stroke-miterlimit:10;" d="
	M35,42.5c0,1.381-3.134,2.5-7,2.5s-7-1.119-7-2.5"/>
<path style="fill:none;stroke:#000000;stroke-width:2;stroke-linecap:round;stroke-linejoin:round;stroke-miterlimit:10;" d="
	M35,38.5v8c0,1.381-3.134,2.5-7,2.5s-7-1.119-7-2.5v-8"/>
<polyline style="fill:none;stroke:#000000;stroke-width:2;stroke-linecap:round;stroke-miterlimit:10;" points="41,15 30,15 30,4 
	"/>
<polyline style="fill:none;stroke:#000000;stroke-width:2;stroke-miterlimit:10;" points="18,47 8,47 8,3 30,3 42,15 42,29 "/>
<path style="fill:none;stroke:#000000;stroke-width:2;stroke-linejoin:round;stroke-miterlimit:10;" d="M23,16c0,0,0-4-4-4
	s-4,3.647-4,3.647c0,5,9,3.353,9,8.353c0,0,0,4-5,4s-5-5-5-5"/>
<line style="fill:none;stroke:#000000;stroke-width:2;stroke-linejoin:round;stroke-miterlimit:10;" x1="19" y1="9" x2="19" y2="12"/>
<line style="fill:none;stroke:#000000;stroke-width:2;stroke-linejoin:round;stroke-miterlimit:10;" x1="19" y1="28" x2="19" y2="31"/>
</svg>