<?xml version="1.0" encoding="iso-8859-1"?>
<!-- Generator: Adobe Illustrator 26.4.1, SVG Export Plug-In . SVG Version: 6.00 Build 0)  -->
<svg version="1.1" baseProfile="basic" id="Layer_1"
	 xmlns="http://www.w3.org/2000/svg" xmlns:xlink="http://www.w3.org/1999/xlink" x="0px" y="0px" viewBox="0 0 50 50"
	 xml:space="preserve">
<path d="M0.812,10C0.336,10.09-0.008,10.512,0,11v28c0,0.551,0.449,1,1,1h48c0.551,0,1-0.449,1-1V11c0-0.551-0.449-1-1-1H1H0.906
	H0.812z M2,12h46v26H2V12z"/>
<path d="M6.719,16c-0.551,0.078-0.938,0.59-0.859,1.141S6.449,18.078,7,18h21c0.359,0.004,0.695-0.184,0.879-0.496
	c0.18-0.312,0.18-0.695,0-1.008c-0.184-0.312-0.52-0.5-0.879-0.496H7H6.906H6.812H6.719z"/>
<path d="M39.766,18.955c-1.588-0.108-2.469,0.507-2.922,1.02c-1.053,1.192-1.029,3.154,0,5.025H35v2h2.535
	c-0.15,1.667-2.033,3.122-2.135,3.199c-0.345,0.258-0.486,0.709-0.35,1.117C35.187,31.725,35.569,32,36,32h7v-2h-4.639
	c0.627-0.862,1.108-1.9,1.174-3H42v-2h-2.867c-0.09-0.185-0.178-0.37-0.301-0.555c-0.88-1.32-0.938-2.638-0.488-3.148
	c0.448-0.504,1.789-0.612,4.209,0.598l0.895-1.789C41.926,19.344,40.718,19.02,39.766,18.955z"/>
<path d="M6.719,20c-0.551,0.078-0.938,0.59-0.859,1.141S6.449,22.078,7,22h17c0.359,0.004,0.695-0.184,0.879-0.496
	c0.18-0.312,0.18-0.695,0-1.008c-0.184-0.312-0.52-0.5-0.879-0.496H7H6.906H6.812H6.719z"/>
<g>
	<path d="M11.984,26.89H9.892v7.841H8.08V26.89H6v-1.448h5.984V26.89z"/>
	<path d="M16.533,32.747h-2.45l-0.498,1.984h-1.831l2.616-9.289h1.888l2.609,9.289h-1.831L16.533,32.747z M14.453,31.298h1.71
		l-0.836-3.285h-0.038L14.453,31.298z"/>
	<path d="M22.447,28.689h0.038l1.263-3.247h2.099l-2.252,4.606L26,34.731h-2.188l-1.301-3.317h-0.038l-1.301,3.317h-2.112
		l2.309-4.683l-2.252-4.606h2.086L22.447,28.689z"/>
</g>
</svg>