<?xml version="1.0" encoding="iso-8859-1"?><!-- Generator: Adobe Illustrator 21.1.0, SVG Export Plug-In . SVG Version: 6.00 Build 0)  --><svg xmlns="http://www.w3.org/2000/svg" xmlns:xlink="http://www.w3.org/1999/xlink" viewBox="0 0 50 50" width="500px" height="500px"><path style="fill:none;stroke:#000000;stroke-width:2;stroke-linecap:round;stroke-linejoin:round;stroke-miterlimit:10;" d="M30,10h15.045C45.573,10,46,10.478,46,11.067v31.867C46,43.522,45.573,44,45.045,44H4.955C4.427,44,4,43.522,4,42.933V11.067C4,10.478,4.427,10,4.955,10H20"/><path style="fill:none;stroke:#000000;stroke-width:2;stroke-linecap:round;stroke-linejoin:round;stroke-miterlimit:10;" d="M19.025,32.165c-0.072-0.754,0-1.28,0-1.97c0.503-0.226,1.326-1.133,1.492-2.229c0,0,0.87-0.515,0.87-1.375c0-0.602-0.213-1.046-0.385-1.209c0.466-1.314,1.263-5.335-1.808-5.335C18.863,19.5,18.033,19,16.929,19c-4.414,0.076-4.787,3.287-3.927,6.381c0,0-0.461,0.437-0.438,1.053c0.045,1.163,0.87,1.531,0.87,1.531c0.158,1.08,1.176,2.05,1.54,2.229c0,0.689,0.072,1.215,0,1.97C14.101,34.369,8.272,33.749,8,38h18C25.728,33.749,19.899,34.369,19.025,32.165z"/><line style="fill:none;stroke:#000000;stroke-width:2;stroke-linecap:round;stroke-linejoin:round;stroke-miterlimit:10;" x1="29" y1="34" x2="41" y2="34"/><line style="fill:none;stroke:#000000;stroke-width:2;stroke-linecap:round;stroke-linejoin:round;stroke-miterlimit:10;" x1="29" y1="29" x2="41" y2="29"/><line style="fill:none;stroke:#000000;stroke-width:2;stroke-linecap:round;stroke-linejoin:round;stroke-miterlimit:10;" x1="29" y1="24" x2="41" y2="24"/><rect x="22" y="2" style="fill:none;stroke:#000000;stroke-width:2;stroke-linecap:round;stroke-linejoin:round;stroke-miterlimit:10;" width="6" height="10"/><path style="fill:none;stroke:#000000;stroke-width:2;stroke-linecap:round;stroke-linejoin:round;stroke-miterlimit:10;" d="M29,10h1c1.105,0,2,0.895,2,2v1c0,1.105-0.895,2-2,2H20c-1.105,0-2-0.895-2-2v-0.5V12c0-1.105,0.895-2,2-2h2"/><circle cx="25" cy="6" r="1"/></svg>