<?xml version="1.0" encoding="iso-8859-1"?>
<!-- Generator: Adobe Illustrator 23.0.3, SVG Export Plug-In . SVG Version: 6.00 Build 0)  -->
<svg version="1.1" id="Layer_1" xmlns="http://www.w3.org/2000/svg" xmlns:xlink="http://www.w3.org/1999/xlink" x="0px" y="0px"
	 viewBox="0 0 50 50" style="enable-background:new 0 0 50 50;" xml:space="preserve">
<path d="M13.2,20.5c0.6,0.6,1.3,0.9,2.2,1.1v-5.9c-0.8-0.2-1.5-0.4-2-0.6c-0.6-0.2-1-0.5-1.4-0.8s-0.7-0.7-0.8-1.2
	c-0.2-0.5-0.3-1-0.3-1.7s0.1-1.3,0.4-1.8c0.2-0.6,0.6-1,1-1.5c0.4-0.4,0.9-0.7,1.5-1c0.6-0.2,1.2-0.4,1.8-0.4l1.2,0
	C18,6.8,19,7.3,19.7,8s1.2,1.8,1.5,3.1h-1.9c-0.3-1.5-1.1-2.3-2.5-2.6V14l1.3,0.4c0.3,0.1,0.6,0.2,1,0.4s0.8,0.4,1.2,0.8
	c0.4,0.3,0.7,0.7,0.9,1.2c0.3,0.5,0.4,1.1,0.4,1.8s-0.1,1.4-0.4,1.9c-0.2,0.6-0.6,1.1-1,1.5s-0.9,0.7-1.5,1c-0.6,0.2-1.2,0.4-2,0.4
	h-1.2c-1.5-0.1-2.7-0.7-3.5-1.6c-0.9-0.9-1.4-2.1-1.5-3.7h1.9C12.3,19.2,12.7,20,13.2,20.5z M13.6,9.3c-0.5,0.4-0.7,1.1-0.7,1.9
	c0,0.4,0.1,0.7,0.2,1s0.3,0.5,0.5,0.7s0.5,0.3,0.8,0.5c0.3,0.1,0.7,0.3,1,0.4V8.6C14.8,8.6,14.1,8.8,13.6,9.3z M17.8,21.4
	c0.3-0.1,0.7-0.3,0.9-0.5c0.3-0.2,0.5-0.5,0.6-0.9c0.1-0.3,0.2-0.8,0.2-1.2s-0.1-0.8-0.2-1.1c-0.1-0.3-0.3-0.5-0.6-0.7
	s-0.6-0.4-0.9-0.5c-0.4-0.1-0.7-0.3-1.1-0.4v5.6C17.1,21.6,17.5,21.5,17.8,21.4z"/>
<circle style="fill:none;stroke:#000000;stroke-width:2;stroke-miterlimit:10;" cx="34" cy="34" r="15"/>
<path style="fill:none;stroke:#000000;stroke-width:2;stroke-miterlimit:10;" d="M48,18v-6c0-3.3-2.7-6-6-6h-6"/>
<polyline style="fill:none;stroke:#000000;stroke-width:2;stroke-miterlimit:10;" points="40,1 35,6 40,11 "/>
<path style="fill:none;stroke:#000000;stroke-width:2;stroke-miterlimit:10;" d="M2,32v6c0,3.3,2.7,6,6,6h6"/>
<polyline style="fill:none;stroke:#000000;stroke-width:2;stroke-miterlimit:10;" points="9,49 14,44 9,39 "/>
<path style="fill:none;stroke:#000000;stroke-width:2;stroke-miterlimit:10;" d="M30.6,19.4c0.3-1.1,0.4-2.2,0.4-3.4
	c0-8.3-6.7-15-15-15S1,7.7,1,16s6.7,15,15,15c1.2,0,2.3-0.1,3.4-0.4"/>
<line style="fill:none;stroke:#000000;stroke-width:2;stroke-linecap:round;stroke-miterlimit:10;" x1="16" y1="5" x2="16" y2="25"/>
<line style="fill:none;stroke:#000000;stroke-width:2;stroke-linecap:round;stroke-miterlimit:10;" x1="33" y1="25" x2="33" y2="27"/>
<line style="fill:none;stroke:#000000;stroke-width:2;stroke-linecap:round;stroke-miterlimit:10;" x1="33" y1="41" x2="33" y2="43"/>
<path style="fill:none;stroke:#000000;stroke-width:2;stroke-linecap:round;stroke-miterlimit:10;" d="M29,34h7.5
	c1.933,0,3.5,1.567,3.5,3.5v0c0,1.933-1.567,3.5-3.5,3.5H29V27h6.5c1.933,0,3.5,1.567,3.5,3.5v0c0,1.933-1.567,3.5-3.5,3.5"/>
</svg>