<?xml version="1.0" encoding="iso-8859-1"?><!-- Generator: Adobe Illustrator 22.1.0, SVG Export Plug-In . SVG Version: 6.00 Build 0)  --><svg xmlns="http://www.w3.org/2000/svg" xmlns:xlink="http://www.w3.org/1999/xlink" viewBox="0 0 50 50" width="500px" height="500px"><g></g><g></g><rect x="32" y="12" width="2" height="2"/><rect x="28" y="12" width="2" height="2"/><rect x="24" y="12" width="2" height="2"/><path d="M40,30c-5.5,0-10,4.5-10,10s4.5,10,10,10s10-4.5,10-10S45.5,30,40,30z M40,48c-4.4,0-8-3.6-8-8s3.6-8,8-8s8,3.6,8,8S44.4,48,40,48z M39,37.7c0,2.1,4.5,1.3,4.5,4.8c0,2.5-2.4,2.8-2.8,2.8v1.4h-1.1v-1.4c-0.4,0-3-0.3-3-3.3h2c0,0.3,0,1.7,1.5,1.7c1.3,0,1.3-1,1.3-1.2c0-2.2-4.5-1.3-4.5-4.8c0-2.1,1.9-2.8,2.8-2.8v-1.5h1.1v1.5c0.7,0.1,2.6,0.6,2.6,3.2h-2c0-0.6-0.1-1.7-1.3-1.7C39,36.5,39,37.5,39,37.7z"/><path d="M31,40c0-2.308,0.876-4.407,2.305-6H32v-4h4v1.947c1.206-0.6,2.561-0.947,4-0.947c0.688,0,1.356,0.084,2,0.231V7c0-1.654-1.346-3-3-3H11C9.346,4,8,5.346,8,7v36c0,1.654,1.346,3,3,3h22.305C31.876,44.407,31,42.308,31,40z M36,28h-4v-4h4V28z M14,9h22v8H14V9z M18,40h-4v-4h4V40z M18,34h-4v-4h4V34z M18,28h-4v-4h4V28z M24,40h-4v-4h4V40z M24,34h-4v-4h4V34z M24,28h-4v-4h4V28z M30,40h-4v-4h4V40z M30,34h-4v-4h4V34z M30,28h-4v-4h4V28z"/></svg>