<?xml version="1.0" encoding="iso-8859-1"?><!-- Generator: Adobe Illustrator 21.1.0, SVG Export Plug-In . SVG Version: 6.00 Build 0)  --><svg xmlns="http://www.w3.org/2000/svg" xmlns:xlink="http://www.w3.org/1999/xlink" viewBox="0 0 50 50" width="500px" height="500px"><rect x="5" y="5" style="fill:none;stroke:#000000;stroke-width:2;stroke-linejoin:round;stroke-miterlimit:10;" width="40" height="40"/><path style="fill:none;stroke:#000000;stroke-width:2;stroke-linecap:round;stroke-miterlimit:10;" d="M19.182,10c-1.329,0-2.498,0.675-3.182,1.697C15.316,10.675,14.147,10,12.818,10C10.71,10,9,11.697,9,13.789c0,4.421,5.091,6.632,7,8.211c1.909-1.579,7-3.789,7-8.211C23,11.697,21.29,10,19.182,10z"/><line style="fill:none;stroke:#000000;stroke-width:2;stroke-miterlimit:10;" x1="26" y1="40" x2="42" y2="40"/><line style="fill:none;stroke:#000000;stroke-width:2;stroke-miterlimit:10;" x1="26" y1="28" x2="42" y2="28"/><line style="fill:none;stroke:#000000;stroke-width:2;stroke-miterlimit:10;" x1="26" y1="34" x2="42" y2="34"/><line style="fill:none;stroke:#000000;stroke-width:2;stroke-miterlimit:10;" x1="26" y1="22" x2="42" y2="22"/><line style="fill:none;stroke:#000000;stroke-width:2;stroke-miterlimit:10;" x1="26" y1="10" x2="42" y2="10"/><line style="fill:none;stroke:#000000;stroke-width:2;stroke-miterlimit:10;" x1="26" y1="16" x2="42" y2="16"/><line style="fill:none;stroke:#000000;stroke-width:2;stroke-miterlimit:10;" x1="8" y1="40" x2="24" y2="40"/><line style="fill:none;stroke:#000000;stroke-width:2;stroke-miterlimit:10;" x1="8" y1="28" x2="24" y2="28"/><line style="fill:none;stroke:#000000;stroke-width:2;stroke-miterlimit:10;" x1="8" y1="34" x2="24" y2="34"/></svg>