<?xml version="1.0" encoding="iso-8859-1"?><!-- Generator: Adobe Illustrator 21.1.0, SVG Export Plug-In . SVG Version: 6.00 Build 0)  --><svg xmlns="http://www.w3.org/2000/svg" xmlns:xlink="http://www.w3.org/1999/xlink" viewBox="0 0 50 50" width="500px" height="500px"><rect x="27" y="33" style="fill:none;stroke:#000000;stroke-width:2;stroke-miterlimit:10;" width="22" height="16"/><path d="M38.05,47L38.05,47L38.05,47L38.05,47L38.05,47L38.05,47z M37.04,46.01c0-0.56,0.44-1.01,1-1.01l0,0c0.55-0.01,1,0.439,1,0.99l0,0c0.01,0.55-0.43,1-0.99,1.01l0,0C37.5,47,37.05,46.56,37.04,46.01z M33.801,45.293c-0.391-0.392-0.401-1.023-0.01-1.422l0,0c0.381-0.392,1.012-0.401,1.413-0.011l0,0c0.391,0.382,0.401,1.023,0.01,1.412l0,0c-0.19,0.2-0.451,0.3-0.712,0.3l0,0C34.252,45.572,33.991,45.482,33.801,45.293z M40.86,45.22c-0.39-0.39-0.4-1.02-0.01-1.41l0,0c0.39-0.399,1.021-0.399,1.411-0.01l0,0c0.4,0.38,0.4,1.02,0.01,1.41l0,0l0,0l0,0c-0.19,0.2-0.45,0.3-0.71,0.3l0,0C41.31,45.509,41.05,45.41,40.86,45.22z M32,41.069c0-0.01,0-0.029,0-0.039l0,0c0-0.011,0-0.021,0-0.03l0,0c0-0.55,0.45-1,1-1l0,0c0.55,0,1,0.45,1,1l0,0c0,0.01,0,0.02,0,0.03l0,0c0,0.01,0,0.01,0,0.02l0,0c0,0.55-0.44,1-0.99,1.01l0,0H33l0,0C32.45,42.06,32.01,41.62,32,41.069z M42,40.979v-0.01c0-0.55,0.44-1,0.99-1l0,0c0.56,0,1.01,0.44,1.01,1l0,0c0,0.55-0.44,1-0.99,1l0,0C42.45,41.97,42,41.53,42,40.979z M32,41.069L32,41.069L32,41.069L32,41.069L32,41.069L32,41.069z M44,40.97c0-0.01,0-0.01,0-0.01l0,0C44,40.97,44,40.97,44,40.97L44,40.97L44,40.97z M33.749,38.178c-0.389-0.39-0.389-1.029,0-1.418l0,0c0.389-0.39,1.017-0.39,1.416,0l0,0c0.389,0.39,0.389,1.02,0,1.408l0,0c-0.2,0.2-0.449,0.3-0.708,0.3l0,0C34.198,38.468,33.949,38.368,33.749,38.178z M40.82,38.157c-0.399-0.39-0.399-1.019-0.01-1.418l0,0c0.39-0.39,1.019-0.39,1.408,0l0,0c0.399,0.389,0.399,1.018,0.01,1.407l0,0c-0.2,0.2-0.449,0.301-0.709,0.301l0,0C41.269,38.447,41.009,38.347,40.82,38.157z M37.99,37c-0.55,0-1-0.44-1.01-1l0,0c0-0.55,0.45-1,1-1l0,0c0.55,0,1,0.439,1,1l0,0C38.99,36.55,38.54,37,37.99,37L37.99,37z"/><path style="fill:none;stroke:#000000;stroke-width:2;stroke-linejoin:round;stroke-miterlimit:10;" d="M3,3v35c0,3.314,2.686,6,6,6h15"/><polyline style="fill:none;stroke:#000000;stroke-width:2;stroke-linejoin:round;stroke-miterlimit:10;" points="3,8 3,3 34,3 34,30 "/><path style="fill:none;stroke:#000000;stroke-width:2;stroke-linejoin:round;stroke-miterlimit:10;" d="M47,30V13c0,0,0.09-4-3.5-4S40,13,40,13v17"/><line style="fill:none;stroke:#000000;stroke-width:2;stroke-linejoin:round;stroke-miterlimit:10;" x1="43.474" y1="9" x2="34.41" y2="9"/><line style="fill:none;stroke:#000000;stroke-width:2;stroke-linecap:round;stroke-linejoin:round;stroke-miterlimit:10;" x1="9" y1="26" x2="16" y2="26"/><line style="fill:none;stroke:#000000;stroke-width:2;stroke-linecap:round;stroke-linejoin:round;stroke-miterlimit:10;" x1="9" y1="22" x2="16" y2="22"/><line style="fill:none;stroke:#000000;stroke-width:2;stroke-linecap:round;stroke-linejoin:round;stroke-miterlimit:10;" x1="9" y1="30" x2="16" y2="30"/><line style="fill:none;stroke:#000000;stroke-width:2;stroke-linecap:round;stroke-linejoin:round;stroke-miterlimit:10;" x1="9" y1="34" x2="16" y2="34"/><line style="fill:none;stroke:#000000;stroke-width:2;stroke-linecap:round;stroke-linejoin:round;stroke-miterlimit:10;" x1="9" y1="38" x2="16" y2="38"/><line style="fill:none;stroke:#000000;stroke-width:2;stroke-linecap:round;stroke-linejoin:round;stroke-miterlimit:10;" x1="21" y1="26" x2="28" y2="26"/><line style="fill:none;stroke:#000000;stroke-width:2;stroke-linecap:round;stroke-linejoin:round;stroke-miterlimit:10;" x1="21" y1="22" x2="28" y2="22"/><line style="fill:none;stroke:#000000;stroke-width:2;stroke-linecap:round;stroke-linejoin:round;stroke-miterlimit:10;" x1="8" y1="14" x2="28" y2="14"/><line style="fill:none;stroke:#000000;stroke-width:2;stroke-linecap:round;stroke-linejoin:round;stroke-miterlimit:10;" x1="8" y1="10" x2="28" y2="10"/><g><path d="M24,35h-3c-0.552,0-1-0.448-1-1s0.448-1,1-1h3V35z"/></g><g><path d="M24,39h-3c-0.552,0-1-0.448-1-1s0.448-1,1-1h3V39z"/></g><g><path d="M24,30h3c0-0.552-0.448-1-1-1h-5c-0.552,0-1,0.448-1,1s0.448,1,1,1h3V30z"/></g></svg>