<?xml version="1.0" encoding="utf-8"?><!-- Generator: Adobe Illustrator 19.1.1, SVG Export Plug-In . SVG Version: 6.00 Build 0)  --><svg xmlns="http://www.w3.org/2000/svg" xmlns:xlink="http://www.w3.org/1999/xlink" viewBox="0 0 50 50" width="500px" height="500px"><path d="M48.9,13.5C46.6,7.8,42.2,3.4,36.5,1.1C36.2,1,36,1,35.7,1.1c-0.2,0.1-0.4,0.3-0.5,0.5l-1,2.3C31.7,2.8,29,2.2,26.2,2c-0.1,0-0.1,0-0.2,0c0,0-0.1,0-0.1,0c-0.3,0-0.6,0-0.9,0C12.3,2,2,12.3,2,25c0,0.3,0,0.6,0,0.9c0,0,0,0.1,0,0.1c0,0.1,0,0.1,0,0.1C2.6,38.3,12.7,48,25,48c6,0,11.4-2.3,15.5-6.1L23.6,25H4C4,13.4,13.4,4,25,4v19.6l16.9,16.9C45.7,36.4,48,31,48,25c0-3.2-0.7-6.3-1.9-9.2l2.3-1c0.2-0.1,0.4-0.3,0.5-0.5C49,14,49,13.8,48.9,13.5z M44.3,14.3C44.3,14.4,44.3,14.3,44.3,14.3C44.3,14.4,44.3,14.4,44.3,14.3l-14.8,6.1l7.1-17.1c4.4,2.1,8,5.6,10,10L44.3,14.3z"/></svg>