<?xml version="1.0" encoding="iso-8859-1"?><!-- Generator: Adobe Illustrator 20.1.0, SVG Export Plug-In . SVG Version: 6.00 Build 0)  --><svg xmlns="http://www.w3.org/2000/svg" xmlns:xlink="http://www.w3.org/1999/xlink" viewBox="0 0 50 50" width="500px" height="500px"><path d="M25,2c-2.757,0-5,2.243-5,5s2.243,5,5,5s5-2.243,5-5S27.757,2,25,2z"/><path d="M25,38c-2.757,0-5,2.243-5,5s2.243,5,5,5s5-2.243,5-5S27.757,38,25,38z"/><path d="M29,21h-8c-0.553,0-1,0.448-1,1v6c0,0.552,0.447,1,1,1h8c0.553,0,1-0.448,1-1v-6C30,21.448,29.553,21,29,21z"/><path d="M11,21H3c-0.553,0-1,0.448-1,1v6c0,0.552,0.447,1,1,1h8c0.553,0,1-0.448,1-1v-6C12,21.448,11.553,21,11,21z"/><path d="M47,21h-8c-0.553,0-1,0.448-1,1v6c0,0.552,0.447,1,1,1h8c0.553,0,1-0.448,1-1v-6C48,21.448,47.553,21,47,21z"/><line style="fill:none;stroke:#000000;stroke-width:2;stroke-miterlimit:10;" x1="25" y1="11" x2="25" y2="22"/><line style="fill:none;stroke:#000000;stroke-width:2;stroke-miterlimit:10;" x1="25" y1="28" x2="25" y2="39"/><path style="fill:none;stroke:#000000;stroke-width:2;stroke-miterlimit:10;" d="M21,43h-9c-2.761,0-5-2.239-5-5V28"/><path style="fill:none;stroke:#000000;stroke-width:2;stroke-miterlimit:10;" d="M43,28v10c0,2.761-2.239,5-5,5h-9"/><path style="fill:none;stroke:#000000;stroke-width:2;stroke-miterlimit:10;" d="M29,7h9c2.761,0,5,2.239,5,5v10"/><path style="fill:none;stroke:#000000;stroke-width:2;stroke-miterlimit:10;" d="M7,22V12c0-2.761,2.239-5,5-5h9"/></svg>