<?xml version="1.0" encoding="utf-8"?><!-- Generator: Adobe Illustrator 15.0.0, SVG Export Plug-In . SVG Version: 6.00 Build 0)  --><!DOCTYPE svg PUBLIC "-//W3C//DTD SVG 1.1//EN" "http://www.w3.org/Graphics/SVG/1.1/DTD/svg11.dtd"><svg xmlns="http://www.w3.org/2000/svg" xmlns:xlink="http://www.w3.org/1999/xlink" viewBox="0 0 50 50" width="500px" height="500px"><path d="M33,14c0.553,0,1-0.448,1-1s-0.447-1-1-1c-1.598,0-3-2.336-3-5c0-0.241,0.02-0.493,0.048-0.747c0.056-0.552,0.17-1.073,0.33-1.558c0.034-0.112,0.073-0.223,0.112-0.334c0.018-0.044,0.031-0.092,0.049-0.136c0.648-1.763,2.133-3.693,3.93-4.037C33.688,0,33.355,0,33,0H5C2.243,0,0,3.14,0,7s2.243,7,5,7H33z"/><line fill="none" stroke="#000000" stroke-width="2" stroke-miterlimit="10" x1="35" y1="40" x2="45" y2="40"/><line fill="none" stroke="#000000" stroke-width="2" stroke-miterlimit="10" x1="40" y1="35" x2="40" y2="45"/><circle fill="none" stroke="#000000" stroke-width="2" stroke-linecap="round" stroke-miterlimit="10" cx="40" cy="40" r="9"/><path d="M40,49c-4.633,0-8.443-3.5-8.941-8H21c-0.552,0-1-0.447-1-1s0.448-1,1-1h10.059c0.162-1.469,0.677-2.831,1.459-4H21c-0.552,0-1-0.447-1-1s0.448-1,1-1h12c0.352,0,0.646,0.191,0.823,0.466C35.436,31.941,37.605,31,40,31v-4v-6.839V13V9c0-3.576-1.438-6.234-3.363-7.702c-2.81,0.658-3.796,2.465-4.229,3.639c-0.014,0.037-0.025,0.074-0.039,0.11c-0.027,0.077-0.055,0.156-0.092,0.276c-0.12,0.362-0.2,0.743-0.242,1.152C32.012,6.689,32,6.861,32,7c0,1.717,0.748,2.822,1.066,3.001C34.689,10.036,36,11.368,36,13c0,1.654-1.346,3-3,3H8v25c0,5.634,4.808,9,9,9h23V49z M21,21h12c0.553,0,1,0.448,1,1s-0.447,1-1,1H21c-0.552,0-1-0.448-1-1S20.448,21,21,21z M21,27h12c0.553,0,1,0.447,1,1s-0.447,1-1,1H21c-0.552,0-1-0.447-1-1S20.448,27,21,27z M17,41h-2c-0.552,0-1-0.447-1-1s0.448-1,1-1h2c0.552,0,1,0.447,1,1S17.552,41,17,41z M17,35h-2c-0.552,0-1-0.447-1-1s0.448-1,1-1h2c0.552,0,1,0.447,1,1S17.552,35,17,35z M17,29h-2c-0.552,0-1-0.447-1-1s0.448-1,1-1h2c0.552,0,1,0.447,1,1S17.552,29,17,29z M17,23h-2c-0.552,0-1-0.448-1-1s0.448-1,1-1h2c0.552,0,1,0.448,1,1S17.552,23,17,23z"/></svg>