<?xml version="1.0" encoding="iso-8859-1"?><!-- Generator: Adobe Illustrator 21.1.0, SVG Export Plug-In . SVG Version: 6.00 Build 0)  --><svg xmlns="http://www.w3.org/2000/svg" xmlns:xlink="http://www.w3.org/1999/xlink" viewBox="0 0 50 50" width="500px" height="500px"><path d="M26,6V2H8v4H4v42h11v-9h4v9h11V6H26z M12,44h-2v-5h2V44z M12,37h-2v-4h2V37z M12,31h-2v-4h2V31z M12,25h-2v-4h2V25z M12,19h-2v-4h2V19z M12,12h-2v-2h2V12z M16,37h-2v-4h2V37z M16,31h-2v-4h2V31z M16,25h-2v-4h2V25z M16,19h-2v-4h2V19z M16,12h-2v-2h2V12z M20,37h-2v-4h2V37z M20,31h-2v-4h2V31z M20,25h-2v-4h2V25z M20,19h-2v-4h2V19z M20,12h-2v-2h2V12z M24,44h-2v-5h2V44z M24,37h-2v-4h2V37z M24,31h-2v-4h2V31z M24,25h-2v-4h2V25z M24,19h-2v-4h2V19z M24,12h-2v-2h2V12z"/><path d="M32,14v4h2v2h-2v2h2v2h-2v2h2v2h-2v2h2v2h-2v2h2v2h-2v2h2v2h-2v2h2v2h-2v4h14V14H32z M38,44h-2v-2h2V44z M38,40h-2v-2h2V40z M38,36h-2v-2h2V36z M38,32h-2v-2h2V32z M38,28h-2v-2h2V28z M38,24h-2v-2h2V24z M38,20h-2v-2h2V20z M42,44h-2v-2h2V44z M42,40h-2v-2h2V40z M42,36h-2v-2h2V36z M42,32h-2v-2h2V32z M42,28h-2v-2h2V28z M42,24h-2v-2h2V24z M42,20h-2v-2h2V20z"/></svg>