<?xml version="1.0" encoding="iso-8859-1"?><!-- Generator: Adobe Illustrator 21.1.0, SVG Export Plug-In . SVG Version: 6.00 Build 0)  --><svg xmlns="http://www.w3.org/2000/svg" xmlns:xlink="http://www.w3.org/1999/xlink" viewBox="0 0 50 50" width="500px" height="500px"><g></g><polyline style="fill:none;stroke:#000000;stroke-width:2;stroke-miterlimit:10;" points="26.125,20 36,25.875 45.75,20 "/><path d="M45,7H5c-1.654,0-3,1.346-3,3v30c0,1.654,1.346,3,3,3h5c0.552,0,1-0.448,1-1v-1.5c-0.712-0.593-1.142-1.468-0.957-2.458c0.206-1.098,1.172-1.966,2.286-2.037C13.809,35.912,15,37.043,15,38.5c0,0.8-0.4,1.5-1,2V42c0,0.552,0.448,1,1,1h20c0.552,0,1-0.448,1-1v-1.5c-0.712-0.593-1.142-1.468-0.957-2.458c0.206-1.098,1.172-1.966,2.286-2.037C38.809,35.912,40,37.043,40,38.5c0,0.8-0.4,1.5-1,2V42c0,0.552,0.448,1,1,1h5c1.654,0,3-1.346,3-3V10C48,8.346,46.654,7,45,7z M6,32c0-4.471,5.982-3.631,6.779-5.836c0.066-0.754-0.029-1.299-0.029-1.987c-0.332-0.179-0.881-1.303-0.98-2.269c-0.263-0.021-0.671-0.283-0.793-1.318c-0.066-0.555,0.193-0.867,0.349-0.966c-0.882-3.496-0.397-6.548,3.634-6.624c1.006,0,1.78,0.277,2.082,0.824c2.94,0.42,2.056,4.486,1.634,5.801c0.156,0.098,0.414,0.41,0.349,0.966c-0.122,1.035-0.532,1.297-0.793,1.318c-0.102,0.967-0.65,2.09-0.981,2.269c0,0.688-0.072,1.234-0.006,1.988C18.041,28.369,24,27.529,24,32H6z M44,32H28V20h16V32z"/></svg>