<?xml version="1.0" encoding="iso-8859-1"?><!-- Generator: Adobe Illustrator 22.1.0, SVG Export Plug-In . SVG Version: 6.00 Build 0)  --><svg xmlns="http://www.w3.org/2000/svg" xmlns:xlink="http://www.w3.org/1999/xlink" viewBox="0 0 50 50" width="500px" height="500px"><line style="fill:none;stroke:#000000;stroke-width:2;stroke-miterlimit:10;" x1="14" y1="11" x2="27" y2="11"/><line style="fill:none;stroke:#000000;stroke-width:2;stroke-miterlimit:10;" x1="14" y1="15" x2="27" y2="15"/><line style="fill:none;stroke:#000000;stroke-width:2;stroke-miterlimit:10;" x1="14" y1="27" x2="27" y2="27"/><line style="fill:none;stroke:#000000;stroke-width:2;stroke-miterlimit:10;" x1="14" y1="19" x2="37" y2="19"/><line style="fill:none;stroke:#000000;stroke-width:2;stroke-miterlimit:10;" x1="14" y1="23" x2="37" y2="23"/><polyline style="fill:none;stroke:#000000;stroke-width:2;stroke-linecap:round;stroke-miterlimit:10;" points="41,15 30,15 30,4 "/><polygon style="fill:none;stroke:#000000;stroke-width:2;stroke-linecap:round;stroke-miterlimit:10;" points="42,47 8,47 8,3 30,3 42,15 "/><path style="fill:none;stroke:#000000;stroke-width:2;stroke-linecap:round;stroke-linejoin:round;stroke-miterlimit:10;" d="M37.368,38.625c0,0,0.632,0.469,0.632,1.25s-0.632,1.25-0.632,1.25v0.625c0,0.691-0.565,1.25-1.263,1.25h-7.263C27.273,43,26,41.741,26,40.188v-2.656v-1.406c0-0.681,0.201-1.322,0.603-1.883l3.87-5.641c0,0,0.343-0.601,0.896-0.601s1.291,0.421,1.291,0.938c0,0.703-0.237,1.369-1.105,3.635c-0.301,0.787-0.158,1.406,0.789,1.406h3.762c0.698,0,1.263,0.831,1.263,1.521v0.625c0,0,0.632,0.469,0.632,1.25C38,38.156,37.368,38.625,37.368,38.625"/><rect x="22" y="35" style="fill:none;stroke:#000000;stroke-width:2;stroke-linecap:round;stroke-linejoin:round;stroke-miterlimit:10;" width="4" height="7"/></svg>