<?xml version="1.0" encoding="iso-8859-1"?><!-- Generator: Adobe Illustrator 21.0.2, SVG Export Plug-In . SVG Version: 6.00 Build 0)  --><svg xmlns="http://www.w3.org/2000/svg" xmlns:xlink="http://www.w3.org/1999/xlink" viewBox="0 0 50 50" width="500px" height="500px"><circle style="fill:none;stroke:#000000;stroke-width:2;stroke-linecap:round;stroke-linejoin:round;stroke-miterlimit:10;" cx="15.5" cy="32.5" r="4.5"/><path style="fill:none;stroke:#000000;stroke-width:2;stroke-linecap:round;stroke-linejoin:round;stroke-miterlimit:10;" d="M22,49v-4.9l4.2-3.3c0.5-0.4,0.9-1.1,1-1.6l1.7-8c0.2-1-0.4-2-1.4-2.2s-2,0.4-2.2,1.4l-1.5,7.2L19,39.9c-1.8,0-5.4,0-6.3,0C11.4,40,9,40.4,9,43.7V49"/><rect x="14" y="3" style="fill:none;stroke:#000000;stroke-width:2;stroke-linecap:round;stroke-linejoin:round;stroke-miterlimit:10;" width="26" height="20"/><line style="fill:none;stroke:#000000;stroke-width:2;stroke-linejoin:round;stroke-miterlimit:10;" x1="27" y1="29" x2="27" y2="23"/><rect x="26" y="7" width="2" height="8"/><circle cx="27" cy="18" r="1"/></svg>