<?xml version="1.0" encoding="utf-8"?><!-- Generator: Adobe Illustrator 15.0.0, SVG Export Plug-In . SVG Version: 6.00 Build 0)  --><!DOCTYPE svg PUBLIC "-//W3C//DTD SVG 1.1//EN" "http://www.w3.org/Graphics/SVG/1.1/DTD/svg11.dtd"><svg xmlns="http://www.w3.org/2000/svg" xmlns:xlink="http://www.w3.org/1999/xlink" viewBox="0 0 50 50" width="500px" height="500px"><path d="M28,36.577V37v2v0.9c0,4.218-2.172,7.934-5.454,10.1H30V36.215L28,36.577z"/><path d="M26.854,14.778L30,17.101V0H15.651C21.902,2.649,25.947,7.812,26.854,14.778z"/><rect x="36" width="11" height="50"/><path d="M24.961,15.867C24.087,6.065,16.482,0,5,0H3v50h12.9C21.469,50,26,45.471,26,39.9V39h-9.5v-2H26v-1.5c0-0.398,0.229-0.664,0.678-0.716L34,33.459V22.542L24.961,15.867z M18,23.5c-1.381,0-2.5-1.119-2.5-2.5s1.119-2.5,2.5-2.5s2.5,1.119,2.5,2.5S19.381,23.5,18,23.5z"/></svg>