<?xml version="1.0" encoding="iso-8859-1"?><!-- Generator: Adobe Illustrator 22.0.1, SVG Export Plug-In . SVG Version: 6.00 Build 0)  --><svg xmlns="http://www.w3.org/2000/svg" xmlns:xlink="http://www.w3.org/1999/xlink" viewBox="0 0 50 50" width="500px" height="500px"><path style="fill:none;stroke:#000000;stroke-width:2;stroke-miterlimit:10;" d="M7,9c0,3.314-2.686,6-6,6"/><path style="fill:none;stroke:#000000;stroke-width:2;stroke-miterlimit:10;" d="M49,15c-3.314,0-6-2.686-6-6"/><path style="fill:none;stroke:#000000;stroke-width:2;stroke-miterlimit:10;" d="M1,35c3.314,0,6,2.686,6,6"/><path style="fill:none;stroke:#000000;stroke-width:2;stroke-miterlimit:10;" d="M43,41c0-3.314,2.686-6,6-6"/><path d="M25.386,19.421c-1.446-0.332-2.263-0.565-2.263-1.48c0-1.095,0.606-1.605,1.907-1.605c1.507,0,1.837,0.989,1.849,1.818l0.007,0.464h1.815l0.031-0.439c0.056-0.824-0.28-1.743-0.877-2.397c-0.505-0.551-1.169-0.904-1.937-1.03V13h-1.821v1.75c-2.747,0.4-2.829,2.812-2.829,3.095c0,2.476,2.004,2.924,3.615,3.284c1.446,0.324,2.263,0.555,2.263,1.527c0,0.583-0.279,1.562-2.145,1.562c-0.041,0-1.01-0.007-1.618-0.615c-0.359-0.359-0.532-0.877-0.515-1.54l0.012-0.483H21l0.013,0.484c0.061,2.136,1.07,3.347,3.083,3.694V27h1.821v-1.219C28.847,25.35,29,23.102,29,22.642C29.001,20.251,26.996,19.791,25.386,19.421z"/><line style="fill:none;stroke:#000000;stroke-width:2;stroke-miterlimit:10;" x1="7" y1="31" x2="43" y2="31"/><line style="fill:none;stroke:#000000;stroke-width:2;stroke-miterlimit:10;" x1="13" y1="36" x2="37" y2="36"/><rect x="8" y="18" style="fill:none;stroke:#000000;stroke-width:2;stroke-miterlimit:10;" width="7" height="4"/><rect x="35" y="18" style="fill:none;stroke:#000000;stroke-width:2;stroke-miterlimit:10;" width="7" height="4"/><rect x="1" y="9" style="fill:none;stroke:#000000;stroke-width:2;stroke-linejoin:round;stroke-miterlimit:10;" width="48" height="32"/></svg>