<?xml version="1.0" encoding="iso-8859-1"?><!-- Generator: Adobe Illustrator 21.1.0, SVG Export Plug-In . SVG Version: 6.00 Build 0)  --><svg xmlns="http://www.w3.org/2000/svg" xmlns:xlink="http://www.w3.org/1999/xlink" viewBox="0 0 50 50" width="500px" height="500px"><path d="M47,16.3c-0.141,0-0.281-0.03-0.413-0.089L25,5.498L3.414,16.21c-0.309,0.14-0.669,0.114-0.955-0.07C2.173,15.957,2,15.64,2,15.3v-3.5c0-0.394,0.231-0.75,0.59-0.912l22-10.8c0.261-0.117,0.56-0.117,0.82,0l22,10.8C47.77,11.049,48,11.406,48,11.8v3.5c0,0.34-0.173,0.657-0.458,0.841C47.378,16.246,47.189,16.3,47,16.3z"/><path d="M25,7.62L4,18v26c0,0.55,0.45,1,1,1h40c0.55,0,1-0.45,1-1V18L25,7.62z M26.03,38.06V40h-2v-1.92c-3.67-0.3-6.04-2.43-6.06-5.43h2.34c0.15,1.83,1.97,3.36,4.72,3.36s4.63-1.34,4.63-3.35c0-5.2-11.21-1.66-11.21-9.2c0-2.96,2.13-5,5.58-5.36V16h2v2.09c3.33,0.32,5.55,2.41,5.64,5.34h-2.32c-0.06-1.71-1.61-3.24-4.32-3.24c-2.71,0-4.23,1.43-4.23,3.13c0,4.71,11.23,1.72,11.23,9.15C32.03,35.68,29.82,37.72,26.03,38.06z"/></svg>