<?xml version="1.0" encoding="iso-8859-1"?>
<!-- Generator: Adobe Illustrator 24.1.2, SVG Export Plug-In . SVG Version: 6.00 Build 0)  -->
<svg version="1.1" id="Layer_1" xmlns="http://www.w3.org/2000/svg" xmlns:xlink="http://www.w3.org/1999/xlink" x="0px" y="0px"
	 viewBox="0 0 50 50" style="enable-background:new 0 0 50 50;" xml:space="preserve">
<g>
</g>
<g>
	<path d="M25,2C12.32,2,2,12.32,2,25s10.32,23,23,23s23-10.32,23-23S37.68,2,25,2z M25,9c1.66,0,3,1.34,3,3c0,1.66-1.34,3-3,3
		s-3-1.34-3-3C22,10.34,23.34,9,25,9z M31,31l-2,1l-1,9h-6l-1-9l-2-1v-8.12C19,18.7,21.34,16,24.97,16c3.66,0,6.03,2.7,6.03,6.88V31
		z"/>
</g>
</svg>