<?xml version="1.0" encoding="iso-8859-1"?><!-- Generator: Adobe Illustrator 23.0.3, SVG Export Plug-In . SVG Version: 6.00 Build 0)  --><svg xmlns="http://www.w3.org/2000/svg" xmlns:xlink="http://www.w3.org/1999/xlink" viewBox="0 0 50 50" width="500px" height="500px"><path style="fill:none;stroke:#000000;stroke-width:2;stroke-linecap:round;stroke-miterlimit:10;" d="M41,30v13c0,1.105,0.895,2,2,2h0c1.105,0,2-0.895,2-2V29c0-2.209-1.791-4-4-4h0c-2.209,0-4,1.791-4,4v14c0,3.314,2.686,6,6,6h0c3.314,0,6-2.686,6-6V30"/><path d="M34,43v-7.165c-0.377-0.154-0.752-0.303-1.117-0.448c-2.237-0.884-4.178-1.66-4.895-2.948c-0.006-0.091-0.023-0.177-0.052-0.258c1.562-0.194,4.189-0.621,6.064-1.437V29c0-1.434,0.435-2.768,1.178-3.879c-0.081-0.968-0.112-2.066-0.138-3.112C34.883,15.761,34.65,6.382,24.624,6.011L23.618,4H23C11.355,4,10.334,14.639,9.658,21.679c-0.258,2.688-0.525,5.467-1.321,6.173L8,28.15v0.45c0,2.267,3.292,2.969,8.067,3.569C16.03,32.274,16,32.383,16,32.5c0,0.017,0.004,0.033,0.004,0.05c-0.7,1.236-2.692,2.022-4.809,2.845c-3.947,1.533-8.858,3.441-9.194,9.55L1.943,46h32.582C34.191,45.06,34,44.053,34,43z M25.819,31.496C25.9,31.899,25.9,32.218,25.9,32.5v0.185l0.004,0.011C25.553,33.167,24.183,34,22,34c-2.143,0-3.555-0.771-3.908-1.279c0.107-0.755,0.108-1.11,0.108-1.422v-0.888l-0.882-0.105c-4.104-0.488-6.508-1.007-7.161-1.524c0.963-1.405,1.201-3.882,1.492-6.913c0.664-6.92,1.488-15.498,10.738-15.858L23.382,8H24c8.049,0,8.841,6.093,9.04,14.059c0.07,2.795,0.127,5.097,0.933,6.484c-0.856,0.547-3.467,1.408-7.266,1.761l-1.106,0.103L25.819,31.496z"/></svg>