<?xml version="1.0" encoding="iso-8859-1"?><!-- Generator: Adobe Illustrator 23.0.3, SVG Export Plug-In . SVG Version: 6.00 Build 0)  --><svg xmlns="http://www.w3.org/2000/svg" xmlns:xlink="http://www.w3.org/1999/xlink" viewBox="0 0 50 50" width="500px" height="500px"><polyline style="fill:none;stroke:#000000;stroke-width:2;stroke-linecap:round;stroke-linejoin:round;stroke-miterlimit:10;" points="5,12 5,5 12,5 "/><polyline style="fill:none;stroke:#000000;stroke-width:2;stroke-linecap:round;stroke-linejoin:round;stroke-miterlimit:10;" points="12,45 5,45 5,38 "/><polyline style="fill:none;stroke:#000000;stroke-width:2;stroke-linecap:round;stroke-linejoin:round;stroke-miterlimit:10;" points="45,38 45,45 38,45 "/><polyline style="fill:none;stroke:#000000;stroke-width:2;stroke-linecap:round;stroke-linejoin:round;stroke-miterlimit:10;" points="38,5 45,5 45,12 "/><line style="fill:none;stroke:#000000;stroke-width:2;stroke-linecap:round;stroke-linejoin:round;stroke-miterlimit:10;" x1="5" y1="5" x2="13" y2="13"/><line style="fill:none;stroke:#000000;stroke-width:2;stroke-linecap:round;stroke-linejoin:round;stroke-miterlimit:10;" x1="45" y1="5" x2="37" y2="13"/><line style="fill:none;stroke:#000000;stroke-width:2;stroke-linecap:round;stroke-linejoin:round;stroke-miterlimit:10;" x1="5" y1="45" x2="13" y2="37"/><line style="fill:none;stroke:#000000;stroke-width:2;stroke-linecap:round;stroke-linejoin:round;stroke-miterlimit:10;" x1="45" y1="45" x2="37" y2="37"/><path d="M24.5,13c-3.033,0-5.5-2.467-5.5-5.5S21.467,2,24.5,2S30,4.467,30,7.5S27.533,13,24.5,13z"/><path d="M29.5,14h-10c-3.033,0-5.5,2.467-5.5,5.5V32c0,1.104,0.897,2,2,2s2-0.896,2-2v-9.529c0-0.271,0.229-0.5,0.5-0.5s0.5,0.229,0.5,0.5V45.3c0,1.564,0.835,2.7,2.4,2.7c1.482,0,2.6-1.161,2.6-2.7V32.458c0-0.276,0.224-0.5,0.5-0.5s0.5,0.224,0.5,0.5v13.134c0.004,0.006,0.012,0.01,0.016,0.016C25.153,46.991,26.218,48,27.6,48c1.564,0,2.4-1.136,2.4-2.7V22.645c0-0.271,0.229-0.5,0.5-0.5s0.5,0.229,0.5,0.5V32c0,1.104,0.897,2,2,2s2-0.896,2-2V19.5C35,16.467,32.533,14,29.5,14z"/></svg>