<?xml version="1.0" encoding="utf-8"?><!-- Generator: Adobe Illustrator 15.0.0, SVG Export Plug-In . SVG Version: 6.00 Build 0)  --><!DOCTYPE svg PUBLIC "-//W3C//DTD SVG 1.1//EN" "http://www.w3.org/Graphics/SVG/1.1/DTD/svg11.dtd"><svg xmlns="http://www.w3.org/2000/svg" xmlns:xlink="http://www.w3.org/1999/xlink" viewBox="0 0 50 50" width="500px" height="500px"><path d="M48.044,26.298c-1.4-1.399-3.6-1.399-4.9,0l-5,6l-0.004,0.044c-0.047-0.012-0.094-0.021-0.133-0.044V6.432c0-1.741-1.531-2.39-2.498-2.39c-1.006,0-2.502,0.667-2.502,2.506V23c0,0.552-0.451,1-1.004,1s-1-0.448-1-1V2.506C31.003,1.495,30.208,0,28.497,0c-1.709,0-2.489,1.495-2.489,2.506v19.507v0.001c0,0.552-0.463,0.999-1.016,0.999c-0.553,0-1-0.448-1-1V4.506C23.992,3.363,23.238,2,21.486,2c-1.75,0-2.5,1.271-2.479,2.479V23c0,0.552-0.475,1-1.027,1c-0.554,0-1-0.448-1-1V9.531C16.98,8.188,16.195,7,14.474,7s-2.467,1.208-2.467,2.583s0,31.417,0,31.417c0,5.634,4.576,9,9,9h8c0.031,0,0.057-0.002,0.088-0.004c0.004,0,0.008,0.003,0.014,0.003c0.043,0,0.086-0.007,0.129-0.007c0.141-0.004,0.275-0.012,0.4-0.021c2.625-0.15,4.992-1.38,6.555-3.453c0-0.002,0.004-0.002,0.004-0.004l0.354-0.451l-0.004,0.035l2.73-3.539l8.521-10.944C48.469,30.563,50,28.594,48.044,26.298z M31.302,39.293c0.391,0.391,0.391,1.023,0,1.414C31.106,40.902,30.851,41,30.595,41s-0.512-0.098-0.707-0.293l-4.294-4.293l-4.292,4.293C21.106,40.902,20.85,41,20.594,41s-0.512-0.098-0.707-0.293c-0.391-0.391-0.391-1.023,0-1.414L24.18,35l-4.293-4.293c-0.391-0.391-0.391-1.023,0-1.414s1.023-0.391,1.414,0l4.292,4.293l4.294-4.293c0.391-0.391,1.023-0.391,1.414,0s0.391,1.023,0,1.414L27.009,35L31.302,39.293z"/></svg>