<?xml version="1.0" encoding="iso-8859-1"?><!-- Generator: Adobe Illustrator 21.1.0, SVG Export Plug-In . SVG Version: 6.00 Build 0)  --><svg xmlns="http://www.w3.org/2000/svg" xmlns:xlink="http://www.w3.org/1999/xlink" viewBox="0 0 50 50" width="500px" height="500px"><g><path style="fill:none;stroke:#000000;stroke-width:2;stroke-miterlimit:10;" d="M44.895,13.193 M46,12.05H4V44h42V12.05L46,12.05z"/></g><g><g><path style="fill:none;stroke:#000000;stroke-width:2;stroke-miterlimit:10;" d="M6,6C4.895,6,4,6.895,4,8v4h42V8c0-1.105-0.895-2-2-2H6z"/></g></g><g><path d="M21,27.75c0,2.209,1.791,4,4,4s4-1.791,4-4c0-0.928-0.329-1.772-0.86-2.451c0.018,0.076,0.046,0.148,0.046,0.229c0,0.552-0.448,1-1,1c-0.552,0-1-0.448-1-1c0-0.552,0.448-1,1-1c0.078,0,0.147,0.027,0.219,0.044C26.734,24.063,25.907,23.75,25,23.75C22.791,23.75,21,25.541,21,27.75z M16,28c0,4.962,4.037,9,9,9s9-4.038,9-9s-4.037-9-9-9S16,23.038,16,28z M18,28c0-3.86,3.141-7,7-7s7,3.14,7,7s-3.141,7-7,7S18,31.86,18,28z"/></g></svg>