<?xml version="1.0" encoding="iso-8859-1"?><!-- Generator: Adobe Illustrator 23.0.3, SVG Export Plug-In . SVG Version: 6.00 Build 0)  --><svg xmlns="http://www.w3.org/2000/svg" xmlns:xlink="http://www.w3.org/1999/xlink" viewBox="0 0 50 50" width="500px" height="500px"><path d="M44,2H20.582C22.065,3.371,23,5.326,23,7.5c0,1.719-0.587,3.299-1.563,4.565C25.131,12.529,28,15.682,28,19.5V32c0,2.206-1.794,4-4,4c-0.345,0-0.68-0.044-1-0.126V45.3c0,1.036-0.254,1.956-0.708,2.7H44c0.552,0,1-0.448,1-1V3C45,2.448,44.552,2,44,2z M39.5,27c-0.828,0-1.5-0.672-1.5-1.5s0.672-1.5,1.5-1.5s1.5,0.672,1.5,1.5S40.328,27,39.5,27z"/><path d="M15.5,13c-3.033,0-5.5-2.467-5.5-5.5S12.467,2,15.5,2S21,4.467,21,7.5S18.533,13,15.5,13z"/><path d="M20.5,14h-10C7.467,14,5,16.467,5,19.5V32c0,1.104,0.897,2,2,2s2-0.896,2-2v-9.529c0-0.271,0.229-0.5,0.5-0.5s0.5,0.229,0.5,0.5V45.3c0,1.564,0.835,2.7,2.4,2.7c1.482,0,2.6-1.161,2.6-2.7V32.458c0-0.276,0.224-0.5,0.5-0.5s0.5,0.224,0.5,0.5v13.134c0.004,0.006,0.012,0.01,0.016,0.016C16.153,46.991,17.218,48,18.6,48c1.564,0,2.4-1.136,2.4-2.7V22.645c0-0.271,0.229-0.5,0.5-0.5s0.5,0.229,0.5,0.5V32c0,1.104,0.897,2,2,2s2-0.896,2-2V19.5C26,16.467,23.533,14,20.5,14z"/></svg>