<?xml version="1.0" encoding="iso-8859-1"?><!-- Generator: Adobe Illustrator 21.0.2, SVG Export Plug-In . SVG Version: 6.00 Build 0)  --><svg xmlns="http://www.w3.org/2000/svg" xmlns:xlink="http://www.w3.org/1999/xlink" viewBox="0 0 50 50" width="500px" height="500px"><path d="M37.167,12.562l-2.927-0.496c-0.156-0.494-0.352-0.975-0.585-1.438l1.726-2.429c0.281-0.396,0.237-0.937-0.104-1.282l-2.107-2.131c-0.347-0.35-0.892-0.396-1.29-0.112l-2.404,1.708c-0.461-0.241-0.938-0.443-1.428-0.605l-0.469-2.916c-0.077-0.482-0.492-0.838-0.981-0.841L23.6,2c-0.002,0-0.004,0-0.006,0c-0.482,0-0.896,0.345-0.983,0.82l-0.531,2.906c-0.501,0.157-0.988,0.354-1.457,0.591l-2.383-1.723c-0.396-0.287-0.94-0.245-1.289,0.099L14.818,6.8c-0.345,0.341-0.396,0.88-0.12,1.28l1.676,2.426c-0.242,0.466-0.445,0.951-0.608,1.449l-2.905,0.466c-0.482,0.077-0.839,0.492-0.842,0.981L12,16.401c-0.003,0.486,0.343,0.903,0.821,0.99l2.914,0.53c0.156,0.496,0.354,0.979,0.59,1.445l-1.732,2.395c-0.286,0.396-0.244,0.941,0.1,1.289l2.107,2.132c0.34,0.345,0.879,0.395,1.279,0.12l2.455-1.695c0.465,0.239,0.945,0.44,1.439,0.6l0.497,2.942c0.081,0.479,0.495,0.831,0.98,0.833L26.45,28c0.002,0,0.004,0,0.006,0c0.488,0,0.905-0.352,0.986-0.834l0.495-2.938c0.489-0.156,0.965-0.35,1.423-0.582l2.441,1.733c0.396,0.28,0.936,0.238,1.282-0.104l2.132-2.107c0.349-0.344,0.396-0.891,0.112-1.29l-1.728-2.43c0.236-0.456,0.436-0.93,0.597-1.417l2.953-0.5c0.479-0.081,0.83-0.495,0.833-0.98L38,13.553C38.003,13.063,37.65,12.643,37.167,12.562z M27.785,17.902c-0.782,0.773-1.803,1.159-2.823,1.159c-1.036,0-2.071-0.398-2.857-1.192c-1.559-1.577-1.544-4.12,0.033-5.679c0.783-0.774,1.803-1.16,2.823-1.16c1.036,0,2.071,0.398,2.856,1.193C29.377,13.8,29.362,16.343,27.785,17.902z"/><path d="M34.564,28.02c-1.271,0-2.55,0.488-3.261,0.907c-0.16,0.095-2.742,1.704-4.639,2.888C27.546,31.927,28.475,32,29.5,32c0.608,0,1.143,0.075,1.645,0.182l5.311-3.293c0.117-0.076,0.274-0.164,0.456-0.255C36.324,28.292,35.55,28.02,34.564,28.02z"/><path d="M42.32,29.957c-0.017-0.014-0.032-0.028-0.049-0.041c-0.113-0.089-0.243-0.17-0.387-0.242c-0.027-0.014-0.054-0.027-0.082-0.04c-0.151-0.069-0.318-0.127-0.507-0.17c-0.031-0.007-0.064-0.012-0.095-0.018c-0.204-0.039-0.426-0.066-0.68-0.066c-0.005,0-0.008-0.001-0.012-0.001c-0.148,0-0.305,0.007-0.472,0.023c-0.635,0.059-1.37,0.471-1.37,0.471l-5.313,3.294c0.764,0.598,1.251,1.367,1.478,2.199l6.065-3.979l1.731-1.135C42.537,30.15,42.434,30.051,42.32,29.957z"/><path d="M47.094,31.282c-1.141-0.765-2.982,0.386-2.982,0.386l-9.299,6.101C34.313,39.451,32.745,41,29.5,41h-5.25c-2.082,0-4.873-0.608-6.119-0.906c-0.03-0.007-0.385-0.094-0.385-0.094C17.317,39.887,17,39.495,17,39.031c0-0.552,0.448-1,1-1c0.096,0,0.276,0.039,0.276,0.039C19.191,38.298,22.179,39,24.25,39c0,0,3.967,0,5.25,0c2.296,0,3.5-0.936,3.5-2.5c0-1.432-1.141-2.5-3.5-2.5c-1.951,0-4.25-0.358-6.482-0.962c-1.48-0.401-2.708-3.509-5.393-4.593C17.404,28.355,16.388,28,14.422,28c-2.325,0-3.421,0.445-4.582,0.917l-0.527,0.211c-2.414,0.939-6.571,2.896-6.747,2.979c-0.499,0.236-0.713,0.832-0.478,1.331c0.235,0.499,4.686,10.371,4.915,10.728c0.297,0.465,0.916,0.601,1.381,0.303l2.467-1.579c1.033-0.647,1.433-0.815,2.912-0.064l1.995,1.016c2.255,1.15,5.344,2.725,6.318,3.19C23.548,47.735,24.772,48,25.819,48c1.81,0,3.089-0.792,4.197-1.477c0.239-0.148,0.478-0.295,0.719-0.433c1.695-0.963,13.547-8.702,14.789-9.567c1.456-1.013,2.278-2.082,2.444-3.176C48.082,32.6,47.965,31.866,47.094,31.282z"/></svg>