<?xml version="1.0" encoding="iso-8859-1"?><!-- Generator: Adobe Illustrator 19.1.1, SVG Export Plug-In . SVG Version: 6.00 Build 0)  --><svg xmlns="http://www.w3.org/2000/svg" xmlns:xlink="http://www.w3.org/1999/xlink" viewBox="0 0 50 50" width="500px" height="500px"><path d="M47.681,11.768l-7-6.5c-0.293-0.271-0.717-0.344-1.081-0.185C39.236,5.242,39,5.603,39,6v2H3C2.448,8,2,8.447,2,9v20c0,0.553,0.448,1,1,1h12v10h-1c-0.393,0-0.749,0.229-0.911,0.587s-0.1,0.776,0.158,1.071l3.5,4C16.938,45.876,17.211,46,17.5,46s0.563-0.124,0.752-0.342l3.5-4c0.258-0.295,0.32-0.714,0.158-1.071S21.393,40,21,40h-1v-9c0-5.828-4.816-5.996-5.021-6c-0.552-0.012-0.99-0.469-0.979-1.021c0.012-0.552,0.482-0.969,1.021-0.979c0.043,0.001,2.7,0.096,4.722,2H26c1.103,0,2,0.897,2,2v5h-2c-0.391,0-0.745,0.228-0.909,0.582c-0.163,0.354-0.104,0.772,0.149,1.068l6,7c0.38,0.443,1.139,0.443,1.519,0l6-7c0.254-0.296,0.313-0.714,0.149-1.068C38.745,32.228,38.391,32,38,32h-2v-4c0-2.546-0.535-4.497-1.354-6.001c-0.789-1.36-1.885-2.518-3.199-3.375c-2.541-1.57-5.241-1.623-5.454-1.624c-0.552-0.003-0.997-0.453-0.994-1.006C25.003,15.444,25.45,15,26,15c0.002,0,0.004,0,0.006,0c0.063,0,3.434,0.062,6.586,2.027L39,17v2c0,0.397,0.236,0.758,0.6,0.917c0.364,0.156,0.788,0.087,1.081-0.185l7-6.5C47.884,13.044,48,12.778,48,12.5S47.884,11.956,47.681,11.768z"/></svg>