<?xml version="1.0" encoding="iso-8859-1"?><!-- Generator: Adobe Illustrator 21.1.0, SVG Export Plug-In . SVG Version: 6.00 Build 0)  --><svg xmlns="http://www.w3.org/2000/svg" xmlns:xlink="http://www.w3.org/1999/xlink" viewBox="0 0 50 50" width="500px" height="500px"><g><g><g><g></g></g></g></g><path style="fill:none;stroke:#000000;stroke-width:2;stroke-linejoin:round;stroke-miterlimit:10;" d="M41,46H11c-4.418,0-8-3.582-8-8V4h32v36"/><path style="fill:none;stroke:#000000;stroke-width:2;stroke-linecap:round;stroke-linejoin:round;stroke-miterlimit:10;" d="M41,37V13c0-1.657,1.343-3,3-3s3,1.343,3,3v27c0,3.314-2.686,6-6,6s-6-2.686-6-6"/><line style="fill:none;stroke:#000000;stroke-width:2;stroke-linecap:round;stroke-linejoin:round;stroke-miterlimit:10;" x1="35" y1="10" x2="44" y2="10"/><line style="fill:none;stroke:#000000;stroke-width:2;stroke-linecap:round;stroke-miterlimit:3;" x1="9" y1="10" x2="29" y2="10"/><line style="fill:none;stroke:#000000;stroke-width:2;stroke-linecap:round;stroke-miterlimit:3;" x1="9" y1="15" x2="29" y2="15"/><polygon points="21.5,27.375 15.528,26.636 16.842,28.866 7.375,32.875 10,34.625 10.03,37.875 18.15,31.084 19.5,33.375 "/><polygon points="23.586,21 14.414,21 9.982,28.928 10.281,29.473 12.492,28.536 15.586,23 22.414,23 25.732,28.938 22.408,35 16.585,35 14.34,36.877 14.408,37 23.592,37 28.018,28.928 "/></svg>