<?xml version="1.0" encoding="utf-8"?><!-- Generator: Adobe Illustrator 15.0.0, SVG Export Plug-In . SVG Version: 6.00 Build 0)  --><!DOCTYPE svg PUBLIC "-//W3C//DTD SVG 1.1//EN" "http://www.w3.org/Graphics/SVG/1.1/DTD/svg11.dtd"><svg xmlns="http://www.w3.org/2000/svg" xmlns:xlink="http://www.w3.org/1999/xlink" viewBox="0 0 50 50" width="500px" height="500px"><g><path d="M37,18c-3.859,0-7,3.14-7,7c0,3.859,3.141,7,7,7s7-3.141,7-7C44,21.14,40.859,18,37,18z M37,30c-2.757,0-5-2.243-5-5s2.243-5,5-5s5,2.243,5,5S39.757,30,37,30z"/><circle cx="37" cy="25" r="3"/><path d="M47,13H3c-1.654,0-3,1.346-3,3v18c0,1.654,1.346,3,3,3h44c1.654,0,3-1.346,3-3V16C50,14.346,48.654,13,47,13z M25,30H5v-2h20V30z M25,26H5v-2h20V26z M25,22H5v-2h20V22z M37,34c-4.963,0-9-4.037-9-9c0-4.962,4.037-9,9-9s9,4.038,9,9C46,29.963,41.963,34,37,34z"/></g><line fill="none" stroke="#000000" stroke-width="2" stroke-linejoin="round" stroke-miterlimit="10" x1="4" y1="39" x2="12" y2="39"/><line fill="none" stroke="#000000" stroke-width="2" stroke-linejoin="round" stroke-miterlimit="10" x1="38" y1="39" x2="46" y2="39"/></svg>