<?xml version="1.0" encoding="utf-8"?><!-- Generator: Adobe Illustrator 15.0.0, SVG Export Plug-In . SVG Version: 6.00 Build 0)  --><!DOCTYPE svg PUBLIC "-//W3C//DTD SVG 1.1//EN" "http://www.w3.org/Graphics/SVG/1.1/DTD/svg11.dtd"><svg xmlns="http://www.w3.org/2000/svg" xmlns:xlink="http://www.w3.org/1999/xlink" viewBox="0 0 50 50" width="500px" height="500px"><path d="M42.676,23.968c0.927-7.232-0.442-13.191-3.974-17.259C35.514,3.035,30.647,1.012,25,1.012c-5.782,0-10.739,2.075-13.96,5.843c-3.478,4.069-4.773,9.963-3.757,17.072c-1.45,1.446-2.271,3.632-2.271,6.097c0,3.682,3.179,6.652,5.676,7.789C13.302,45.764,21.812,48.988,25,48.988c3.168,0,11.636-3.198,14.284-11.085c2.841-1.171,5.704-4.46,5.704-7.88C44.988,27.659,44.132,25.439,42.676,23.968z M18,27c-1.104,0-2-0.896-2-2s0.896-2,2-2s2,0.896,2,2S19.104,27,18,27z M25,27c-1.104,0-2-0.896-2-2s0.896-2,2-2s2,0.896,2,2S26.104,27,25,27z M32,27c-1.104,0-2-0.896-2-2s0.896-2,2-2s2,0.896,2,2S33.104,27,32,27z"/></svg>