<?xml version="1.0" encoding="iso-8859-1"?><!-- Generator: Adobe Illustrator 22.1.0, SVG Export Plug-In . SVG Version: 6.00 Build 0)  --><svg xmlns="http://www.w3.org/2000/svg" xmlns:xlink="http://www.w3.org/1999/xlink" viewBox="0 0 50 50" width="500px" height="500px"><path style="fill:none;stroke:#000000;stroke-width:2;stroke-linecap:round;stroke-linejoin:round;stroke-miterlimit:10;" d="M37,2l6.285,6.797c0.516,0.558,0.769,1.273,0.706,1.995L43.36,18.05c-0.039,0.445-0.196,0.875-0.459,1.255L41.726,21"/><path style="fill:none;stroke:#000000;stroke-width:2;stroke-miterlimit:10;" d="M19.035,32C19.012,32.33,19,32.664,19,33c0,7.732,6.268,14,14,14s14-6.268,14-14s-6.268-14-14-14c-0.507,0-1.007,0.027-1.5,0.079"/><path style="fill:none;stroke:#000000;stroke-width:2;stroke-linecap:round;stroke-miterlimit:10;" d="M18,2l11.546,13.438c3.624,4.167,3.184,10.483-0.984,14.107C26.668,31.192,24.331,32,22.004,32c-2.794,0-5.573-1.164-7.55-3.438L3,15"/><polyline style="fill:none;stroke:#000000;stroke-width:2;stroke-linecap:round;stroke-linejoin:round;stroke-miterlimit:10;" points="23.03,31.875 15,22.385 23.623,15 31.5,24.162 "/></svg>