<?xml version="1.0" encoding="iso-8859-1"?><!-- Generator: Adobe Illustrator 23.0.3, SVG Export Plug-In . SVG Version: 6.00 Build 0)  --><svg xmlns="http://www.w3.org/2000/svg" xmlns:xlink="http://www.w3.org/1999/xlink" viewBox="0 0 50 50" width="500px" height="500px"><path d="M39,28c-6.065,0-11,4.935-11,11s4.935,11,11,11s11-4.935,11-11S45.065,28,39,28z M39.885,44.781V46h-1.776v-1.242c-1.963-0.347-2.947-1.558-3.006-3.694L35.09,40.58h1.833l-0.012,0.483c-0.017,0.663,0.152,1.181,0.502,1.54c0.593,0.608,1.538,0.615,1.578,0.615c1.82,0,2.092-0.979,2.092-1.562c0-0.972-0.797-1.203-2.207-1.527c-1.571-0.36-3.525-0.808-3.525-3.284c0-0.283,0.08-2.695,2.759-3.095V32h1.776v1.752c0.749,0.126,1.397,0.479,1.889,1.03c0.582,0.654,0.91,1.573,0.855,2.397l-0.03,0.439h-1.77l-0.007-0.464c-0.012-0.829-0.333-1.818-1.803-1.818c-1.269,0-1.86,0.51-1.86,1.605c0,0.915,0.797,1.148,2.207,1.48c1.57,0.37,3.525,0.83,3.524,3.221C42.891,42.102,42.742,44.35,39.885,44.781z"/><path d="M26,39c0-2.502,0.719-4.83,1.943-6.813v0v-3.44c0.845-0.916,1.69-2.827,2.001-4.569c0.712-0.35,1.591-1.24,1.795-3.495c0.094-1.125-0.215-1.952-0.642-2.486c0.849-2.728,1.595-6.702-0.203-9.673c-0.853-1.409-2.153-2.296-3.869-2.639C26.061,4.665,24.244,4,21.822,4c0,0-0.001,0-0.001,0c-3.685,0.083-6.377,1.21-8.004,3.349c-1.926,2.534-2.288,5.717-1.078,10.848c-0.413,0.531-0.784,1.38-0.687,2.538c0.295,2.164,1.118,3.054,1.788,3.418c0.318,1.719,1.219,3.673,2.103,4.603v3.553c-0.612,1.375-2.618,2.171-4.927,3.089c-3.893,1.546-8.737,3.47-9.071,9.549L1.887,46h26.17l0,0C26.761,43.978,26,41.58,26,39z M25.943,32.5c-0.017,0.373-1.463,1.5-4,1.5c-2.489,0-4-1.042-4-1.5v-4.2l0.016-0.571l-0.505-0.287c-0.365-0.263-1.536-2.246-1.716-4.136l-0.013-0.896h-0.909c-0.142-0.056-0.59-0.53-0.777-1.894c-0.07-0.838,0.359-1.185,0.358-1.185l0.588-0.393l-0.174-0.685c-1.211-4.784-1.011-7.581,0.596-9.695c1.24-1.63,3.412-2.491,6.435-2.56c1.891,0,3.252,0.476,3.736,1.304l0.245,0.419l0.48,0.067c1.332,0.188,2.273,0.766,2.88,1.769c1.449,2.396,0.685,6.177-0.183,8.605l-0.316,0.823l0.792,0.396c0.089,0.063,0.33,0.409,0.27,1.125c-0.134,1.479-0.603,1.874-0.704,1.892h-0.909l-0.086,0.905c-0.181,1.896-1.239,3.854-1.6,4.126l-0.504,0.287V32.5z"/></svg>