<?xml version="1.0" encoding="iso-8859-1"?><!-- Generator: Adobe Illustrator 21.0.2, SVG Export Plug-In . SVG Version: 6.00 Build 0)  --><svg xmlns="http://www.w3.org/2000/svg" xmlns:xlink="http://www.w3.org/1999/xlink" viewBox="0 0 50 50" width="500px" height="500px"><circle cx="15.5" cy="32.5" r="5.5"/><g><path d="M9,50c-0.552,0-1-0.447-1-1v-5.3c0-2.026,0.802-4.504,4.624-4.797l6.148-0.003l4.149-1.989l1.399-6.715c0.149-0.744,0.593-1.384,1.249-1.794c0.631-0.396,1.386-0.531,2.126-0.383c0.752,0.15,1.392,0.595,1.802,1.251c0.395,0.631,0.53,1.387,0.382,2.126l-1.702,8.012c-0.152,0.76-0.71,1.658-1.354,2.173L23,44.586V49c0,0.553-0.448,1-1,1H9z"/></g><line style="fill:none;stroke:#000000;stroke-width:2;stroke-linejoin:round;stroke-miterlimit:10;" x1="27" y1="29" x2="27" y2="23"/><path d="M40,2H14c-0.552,0-1,0.447-1,1v20c0,0.553,0.448,1,1,1h26c0.552,0,1-0.447,1-1V3C41,2.447,40.552,2,40,2z M27,19c-0.552,0-1-0.448-1-1c0-0.552,0.448-1,1-1s1,0.448,1,1C28,18.552,27.552,19,27,19z M28,15h-2V7h2V15z"/></svg>