<?xml version="1.0" encoding="iso-8859-1"?>
<!-- Generator: Adobe Illustrator 24.1.2, SVG Export Plug-In . SVG Version: 6.00 Build 0)  -->
<svg version="1.1" id="Layer_1" xmlns="http://www.w3.org/2000/svg" xmlns:xlink="http://www.w3.org/1999/xlink" x="0px" y="0px"
	 viewBox="0 0 50 50" style="enable-background:new 0 0 50 50;" xml:space="preserve">
<g>
</g>
<g>
	<path d="M25,2C12.32,2,2,12.32,2,25s10.32,23,23,23s23-10.32,23-23S37.68,2,25,2z M26,35.94V39h-2v-3.05c-4.72-0.44-6-4.01-6-5.95
		h1l1-0.01C20,30.4,20.19,34,25,34c0.2,0,5-0.07,5-4c0-2.57-1.98-3.14-5.22-3.86c-3.02-0.67-6.78-1.5-6.78-5.81
		c0-0.14,0.01-2.61,1.82-4.44c1.04-1.06,2.45-1.67,4.18-1.84V11h2v3.07c3.87,0.52,4.98,4,5,5.92l-2,0.02C28.99,19.6,28.81,16,25,16
		c-2.09,0-3.56,0.7-4.36,2.09C20.01,19.18,20,20.32,20,20.33c0,2.57,1.98,3.14,5.22,3.86C28.24,24.86,32,25.7,32,30
		C32,34.15,28.5,35.63,26,35.94z"/>
</g>
</svg>