<?xml version="1.0" encoding="iso-8859-1"?><!-- Generator: Adobe Illustrator 21.1.0, SVG Export Plug-In . SVG Version: 6.00 Build 0)  --><svg xmlns="http://www.w3.org/2000/svg" xmlns:xlink="http://www.w3.org/1999/xlink" viewBox="0 0 50 50" width="500px" height="500px"><g><path style="fill:none;stroke:#000000;stroke-width:2;stroke-miterlimit:10;" d="M44.895,13.193 M46,12.05H4V44h42V12.05L46,12.05z"/></g><g><g><path style="fill:none;stroke:#000000;stroke-width:2;stroke-miterlimit:10;" d="M6,6C4.895,6,4,6.895,4,8v4h42V8c0-1.105-0.895-2-2-2H6z"/></g></g><g><path d="M34.992,39c0.256,0,0.512-0.098,0.707-0.293c0.391-0.391,0.412-1.046,0-1.414l-20-20c-0.391-0.391-1.023-0.391-1.414,0s-0.391,1.023,0,1.414l20,20C34.48,38.902,34.736,39,34.992,39z"/></g><g><path d="M28.186,25.528c0,0.552-0.448,1-1,1c-0.552,0-1-0.448-1-1c0-0.552,0.448-1,1-1c0.078,0,0.147,0.027,0.219,0.044C26.734,24.063,25.907,23.75,25,23.75c-1.517,0-2.821,0.855-3.499,2.1l5.4,5.4c1.245-0.678,2.1-1.982,2.1-3.499c0-0.928-0.329-1.772-0.86-2.451C28.158,25.375,28.186,25.447,28.186,25.528z M25,19c-2.824,0-5.346,1.31-6.997,3.352l1.427,1.427C20.709,22.094,22.727,21,25,21c3.859,0,7,3.14,7,7c0,2.273-1.094,4.291-2.779,5.571l1.427,1.427C32.69,33.346,34,30.824,34,28C34,23.038,29.963,19,25,19z M21.048,28.225c0.219,1.825,1.652,3.258,3.477,3.477L21.048,28.225z M25,35c-3.859,0-7-3.14-7-7c0-0.841,0.157-1.645,0.43-2.393l-1.522-1.522C16.332,25.271,16,26.596,16,28c0,4.962,4.037,9,9,9c1.404,0,2.729-0.332,3.914-0.908l-1.522-1.522C26.645,34.843,25.841,35,25,35z"/></g></svg>