<?xml version="1.0" encoding="iso-8859-1"?>
<!-- Generator: Adobe Illustrator 25.2.3, SVG Export Plug-In . SVG Version: 6.00 Build 0)  -->
<svg version="1.1" baseProfile="basic" xmlns="http://www.w3.org/2000/svg" xmlns:xlink="http://www.w3.org/1999/xlink" x="0px"
	 y="0px" viewBox="0 0 50 50" xml:space="preserve">
<line style="fill:none;stroke:#000000;stroke-width:2;stroke-linecap:round;stroke-linejoin:round;stroke-miterlimit:10;" x1="1.444" y1="36.778" x2="36.778" y2="1.444"/>
<line style="fill:none;stroke:#000000;stroke-width:2;stroke-linecap:round;stroke-linejoin:round;stroke-miterlimit:10;" x1="48.556" y1="13.222" x2="13.222" y2="48.557"/>
<path d="M3.634,46.481c-2.084-2.084-2.653-4.071-1.495-5.23c0.972-0.972,2.777-0.637,4.253,0.78l-0.944,0.945
	c-0.745-0.644-1.532-0.794-1.955-0.371c-0.538,0.538-0.106,1.627,1.137,2.871c1.247,1.247,2.347,1.688,2.888,1.148
	c0.423-0.423,0.286-1.19-0.343-1.932l0.941-0.942c1.428,1.492,1.742,3.24,0.752,4.23C7.711,49.135,5.717,48.564,3.634,46.481z"/>
<path d="M11.578,38.536c2.079,2.079,2.627,4.105,1.466,5.266c-1.166,1.167-3.192,0.618-5.271-1.461
	c-2.075-2.075-2.615-4.109-1.457-5.268C7.477,35.913,9.503,36.461,11.578,38.536z M8.773,41.341
	c1.233,1.233,2.377,1.665,2.925,1.116c0.544-0.543,0.115-1.688-1.118-2.922c-1.23-1.23-2.38-1.658-2.921-1.117
	C7.116,38.961,7.543,40.11,8.773,41.341z"/>
<path d="M15.505,40.996l-6.383-6.383l0.784-0.784l5.199,1.983l0.051-0.051l-3.592-3.592l0.932-0.931l6.383,6.383l-0.778,0.779
	l-5.241-2.014l-0.051,0.051l3.627,3.627L15.505,40.996z"/>
<path d="M19.794,36.707l-6.383-6.383l2.628-2.628l1.305,1.305l-1.646,1.646l1.455,1.455l1.493-1.493l1.243,1.243l-1.493,1.493
	l2.38,2.38L19.794,36.707z"/>
<path d="M23.146,33.355l-6.383-6.383l0.982-0.982l6.383,6.383L23.146,33.355z"/>
<path d="M20.274,23.452c1.15-1.151,2.942-0.669,4.938,1.326c2.098,2.098,2.611,3.9,1.45,5.062l-1.622,1.622l-6.388-6.388
	L20.274,23.452z M24.718,29.174l0.463-0.463c0.637-0.637,0.326-1.637-0.938-2.902c-1.19-1.19-2.222-1.494-2.84-0.876l-0.463,0.463
	L24.718,29.174z"/>
<path d="M31.848,24.653L29.201,27.3l-6.383-6.383l2.646-2.646l1.305,1.305l-1.664,1.665l1.274,1.274l1.564-1.565l1.193,1.193
	l-1.564,1.565l1.306,1.306l1.664-1.665L31.848,24.653z"/>
<path d="M32.689,23.812l-6.383-6.383l0.784-0.784l5.2,1.984l0.051-0.051l-3.592-3.592l0.931-0.931l6.383,6.383l-0.778,0.778
	l-5.24-2.013l-0.051,0.051l3.627,3.627L32.689,23.812z"/>
<path d="M37.881,18.62l-5.078-5.078l-1.113,1.113l-1.305-1.305l3.208-3.208l1.305,1.305l-1.115,1.116l5.078,5.078L37.881,18.62z"/>
<path d="M40.679,15.822l-6.383-6.383l0.982-0.982l6.383,6.383L40.679,15.822z"/>
<path d="M43.395,10.302l-1.261,1.26l1.154,1.651l-0.975,0.974l-5.088-7.678l1.202-1.202l7.681,5.085l-1.07,1.07L43.395,10.302z
	 M41.153,10.207l0.889-0.888l-2.79-1.96l-0.051,0.051L41.153,10.207z"/>
<path d="M49.384,7.118L46.761,9.74l-6.383-6.383l0.982-0.982l5.043,5.043l1.641-1.64L49.384,7.118z"/>
<path style="fill:none;stroke:#000000;stroke-width:2;stroke-linecap:round;stroke-linejoin:round;stroke-miterlimit:10;" d="
	M6.93,30.89C6.326,29.035,6,27.056,6,25C6,14.507,14.507,6,25,6c2.091,0,4.103,0.338,5.984,0.961"/>
<path style="fill:none;stroke:#000000;stroke-width:2;stroke-linecap:round;stroke-linejoin:round;stroke-miterlimit:10;" d="
	M43.07,19.11C43.674,20.965,44,22.944,44,25c0,10.493-8.507,19-19,19c-2.091,0-4.103-0.338-5.984-0.961"/>
<path style="fill:none;stroke:#000000;stroke-width:2;stroke-linecap:round;stroke-linejoin:round;stroke-miterlimit:10;" d="
	M10.25,27.744C10.086,26.854,10,25.937,10,25c0-8.284,6.716-15,15-15c0.954,0,1.888,0.089,2.793,0.26"/>
<path style="fill:none;stroke:#000000;stroke-width:2;stroke-linecap:round;stroke-linejoin:round;stroke-miterlimit:10;" d="
	M39.75,22.256C39.914,23.146,40,24.063,40,25c0,8.284-6.716,15-15,15c-0.954,0-1.888-0.089-2.793-0.26"/>
</svg>