<?xml version="1.0" encoding="iso-8859-1"?><!-- Generator: Adobe Illustrator 21.1.0, SVG Export Plug-In . SVG Version: 6.00 Build 0)  --><svg xmlns="http://www.w3.org/2000/svg" xmlns:xlink="http://www.w3.org/1999/xlink" viewBox="0 0 50 50" width="500px" height="500px"><path d="M25,42c-7.17,0-13-5.83-13-13c0-2.61,0.78-5.06,2.11-7.1c-0.41-0.67-0.84-1.24-1.24-1.71C11.06,22.67,10,25.71,10,29c0,8.27,6.73,15,15,15c3.29,0,6.33-1.06,8.81-2.87c-0.47-0.4-1.04-0.83-1.71-1.24C30.06,41.22,27.61,42,25,42z M25,14c-3.29,0-6.33,1.06-8.8,2.86c0.49,0.39,1.07,0.82,1.75,1.22C19.98,16.77,22.41,16,25,16c7.17,0,13,5.83,13,13c0,2.59-0.77,5.02-2.08,7.05c0.4,0.68,0.83,1.26,1.22,1.75C38.94,35.33,40,32.29,40,29C40,20.73,33.27,14,25,14z"/><circle style="fill:none;stroke:#000000;stroke-width:2;stroke-miterlimit:10;" cx="25" cy="4" r="3"/><circle cx="25" cy="8" r="2"/><path d="M37.01,40.99c-0.45,0.45-2.84-3.36-8.13-4.58c-0.46-1.75-0.81-2.53-2.01-3.88c0.063-0.83,0.483-1.524,1.67-1.67c1.35,1.2,2.13,1.55,3.88,2.01C33.73,38.07,37.36,40.64,37.01,40.99z"/><path d="M23.14,25.46c-0.019,1.125-0.67,1.629-1.67,1.67c-1.35-1.2-2.13-1.55-3.88-2.01c-1.22-5.29-5.03-7.68-4.58-8.13c0.35-0.35,2.92,3.28,8.12,4.59C21.59,23.33,21.94,24.11,23.14,25.46z"/><circle style="fill:none;stroke:#000000;stroke-width:2;stroke-miterlimit:10;" cx="25" cy="29" r="3"/><circle style="fill:none;stroke:#000000;stroke-width:2;stroke-miterlimit:10;" cx="25" cy="29" r="20"/><polygon points="26,26 24,26 25,15 25,15 "/><polygon points="25,43 25,43 24,32 26,32 "/><polygon points="27.828,27.586 26.414,26.172 34.899,19.101 34.899,19.101 "/><polygon points="15.101,38.899 15.101,38.899 22.172,30.414 23.586,31.828 "/><polygon points="28,30 28,28 39,29 39,29 "/><polygon points="11,29 11,29 22,28 22,30 "/></svg>