<?xml version="1.0" encoding="iso-8859-1"?><!-- Generator: Adobe Illustrator 23.0.1, SVG Export Plug-In . SVG Version: 6.00 Build 0)  --><svg xmlns="http://www.w3.org/2000/svg" xmlns:xlink="http://www.w3.org/1999/xlink" viewBox="0 0 50 50" width="500px" height="500px"><line style="fill:none;stroke:#000000;stroke-width:2;stroke-miterlimit:10;" x1="11" y1="16.966" x2="15" y2="16.966"/><polygon points="12.072,7.966 9,19.966 11.062,19.966 12.989,11.493 15,19.966 17.062,19.966 13.989,7.966 "/><path style="fill:none;stroke:#000000;stroke-width:2;stroke-linecap:round;stroke-linejoin:round;stroke-miterlimit:10;" d="M40.022,31c0-0.599,0-2.898,0-3.497c0-1.398-1.103-2.497-2.506-2.497s-2.506,1.099-2.506,2.497c0,0.599,0-0.101,0,0.498"/><path style="fill:none;stroke:#000000;stroke-width:2;stroke-linecap:round;stroke-linejoin:round;stroke-miterlimit:10;" d="M35.01,31v-4.496c0-1.398-1.103-2.497-2.506-2.497c-1.403,0-2.506,1.099-2.506,2.497c0,0.599,0,3.897,0,4.496"/><path style="fill:none;stroke:#000000;stroke-width:2;stroke-linecap:round;stroke-linejoin:round;stroke-miterlimit:10;" d="M29.997,31c0-0.599,0-11.921,0-12.52c0-1.398-1.103-2.497-2.506-2.497c-1.403,0-2.506,1.099-2.506,2.497c0,0.599,0,15.779,0,15.779s-2.506-3.093-3.007-3.493c-1.203-1.099-3.108-0.999-4.21,0.2c-1.103,1.199-0.902,2.996,0.2,4.195c7.766,9.17,8.93,10.941,16.032,10.816c0.324-0.006,3.65-0.015,4-0.028c4,0,7.034-3.948,7.034-7.948c0,0,0-8.571,0-9.17c0-1.398-1.103-2.497-2.506-2.497S40.022,27.602,40.022,29c0,0.599,0,1.401,0,2"/><g><path d="M21.985,18.48c0-1.732,0.809-3.278,2.067-4.286c0.001-0.079,0.007-0.148,0.007-0.229c0-5.537-2.47-6-5-6h-1v12h1c1.043,0,2.073-0.085,2.927-0.566V18.48z M20.059,9.994c1.266,0.121,2,0.745,2,3.971s-0.734,3.85-2,3.971V9.994z"/><path d="M27.491,12.983c0.381,0,0.753,0.039,1.113,0.113c-0.727-0.729-1.545-1.585-1.545-2.131c0-0.805,0.55-0.988,1-1c0.764,0,1.157,0.54,1.164,0.548l1.673-1.097c-0.354-0.539-1.349-1.452-2.836-1.452c-1.206,0-3,0.799-3,3c0,0.813,0.39,1.542,0.932,2.23C26.468,13.06,26.971,12.983,27.491,12.983z"/></g><path d="M6,20.965v-14c0-1.103,0.897-2,2-2h24c1.103,0,2,0.897,2,2v14.254c0.741,0.209,1.421,0.566,2,1.042V6.965C36,4.76,34.206,3,32,3H8C5.794,3,4,4.76,4,6.965v14c0,2.206,1.794,4,4,4h14V23H8C6.897,23,6,22.068,6,20.965z"/></svg>