<?xml version="1.0" encoding="iso-8859-1"?><!-- Generator: Adobe Illustrator 21.1.0, SVG Export Plug-In . SVG Version: 6.00 Build 0)  --><svg xmlns="http://www.w3.org/2000/svg" xmlns:xlink="http://www.w3.org/1999/xlink" viewBox="0 0 50 50" width="500px" height="500px"><path d="M25,2C12.317,2,2,12.317,2,25s10.317,23,23,23s23-10.317,23-23S37.683,2,25,2z M25,34c3.532,0,6.58-2.039,8.053-5h4.313c-1.688,5.221-6.583,9-12.366,9c-7.18,0-13-5.82-13-13s5.82-13,13-13c5.783,0,10.678,3.779,12.366,9h-4.313c-1.474-2.961-4.522-5-8.053-5c-4.971,0-9,4.029-9,9C16,29.971,20.029,34,25,34z"/></svg>