<?xml version="1.0" encoding="iso-8859-1"?><!-- Generator: Adobe Illustrator 23.0.3, SVG Export Plug-In . SVG Version: 6.00 Build 0)  --><svg xmlns="http://www.w3.org/2000/svg" xmlns:xlink="http://www.w3.org/1999/xlink" viewBox="0 0 50 50" width="500px" height="500px"><g id="IOS_copy_19_"><path d="M40,50c-5.5,0-10-4.5-10-10s4.5-10,10-10s10,4.5,10,10S45.5,50,40,50z M40,32c-4.4,0-8,3.6-8,8s3.6,8,8,8s8-3.6,8-8S44.4,32,40,32z M41,40.5V34h-2v5.5l-3.6,2.7l1.2,1.6L41,40.5z"/></g><path d="M40,3h-7h-4.126C28.428,1.276,26.86,0,25,0s-3.428,1.276-3.874,3H17h-7C8.346,3,7,4.346,7,6v39c0,1.654,1.346,3,3,3h25.889C32.988,46.506,31,43.488,31,40c0-4.971,4.029-9,9-9c1.054,0,2.06,0.19,3,0.523V6C43,4.346,41.654,3,40,3z M26,37.1V39h-2v-1.9c-1.7-0.3-4.7-1.3-5-5.6h2c0,1.3,0.9,3.7,4,3.7s3.8-1.5,3.8-3.1c0-4.8-9.3-1.5-9.3-7.9c0-3.4,2.9-4.8,4.5-5V17h2v2.3c2.9,0.5,3.9,2.5,4.5,4.7h-2c-0.3-1.6-1.3-2.9-3.4-2.9c-3,0-3.4,2-3.4,2.9c0,2.1,1.9,2.6,4,3.1c2.6,0.6,5.3,1.5,5.3,4.8C31,35.9,27.5,37,26,37.1z M32,8c0,0.552-0.449,1-1,1H19c-0.551,0-1-0.448-1-1V5h4c0.552,0,1-0.447,1-1c0-1.103,0.897-2,2-2s2,0.897,2,2c0,0.553,0.448,1,1,1h4V8z"/></svg>