<?xml version="1.0" encoding="iso-8859-1"?><!-- Generator: Adobe Illustrator 22.1.0, SVG Export Plug-In . SVG Version: 6.00 Build 0)  --><svg xmlns="http://www.w3.org/2000/svg" xmlns:xlink="http://www.w3.org/1999/xlink" viewBox="0 0 50 50" width="500px" height="500px"><path style="fill:none;stroke:#000000;stroke-width:2;stroke-linejoin:round;stroke-miterlimit:10;" d="M45.154,7H4.846C3.826,7,3,7.848,3,8.893V43h44V8.893C47,7.848,46.174,7,45.154,7z"/><circle cx="14" cy="13" r="2"/><circle cx="8" cy="13" r="2"/><line style="fill:none;stroke:#000000;stroke-width:2;stroke-linejoin:round;stroke-miterlimit:10;" x1="3" y1="19" x2="47" y2="19"/><rect x="20" y="11" style="fill:none;stroke:#000000;stroke-width:2;stroke-miterlimit:10;" width="22" height="4"/><line style="fill:none;stroke:#000000;stroke-width:2;stroke-linecap:square;stroke-linejoin:round;stroke-miterlimit:10;" x1="27" y1="27" x2="41" y2="27"/><line style="fill:none;stroke:#000000;stroke-width:2;stroke-linecap:square;stroke-linejoin:round;stroke-miterlimit:10;" x1="27" y1="32" x2="41" y2="32"/><path d="M15.558,33.161c-0.046-0.525-0.028-0.891-0.028-1.37c0.231-0.125,0.85-0.92,0.92-1.591c0.182-0.016,0.467-0.198,0.551-0.918c0.045-0.387-0.134-0.604-0.243-0.673C16.868,28.265,17,27.649,17,27c0-0.298-0.021-0.595-0.077-0.875c-0.155-0.777-0.57-1.418-1.506-1.552C15.207,24.192,14.669,24,13.971,24c-1.691,0-2.601,0.87-2.878,2.125C11.032,26.4,11.002,26.693,11,27c-0.003,0.508,0.103,1.052,0.243,1.609c-0.109,0.068-0.288,0.286-0.243,0.673c0.084,0.72,0.37,0.902,0.55,0.918c0.07,0.671,0.706,1.467,0.937,1.591c0,0.479,0.017,0.845-0.029,1.37C11.905,34.695,8.172,34.264,8,37.222V38h12v-0.778C19.828,34.264,16.111,34.695,15.558,33.161z"/><line style="fill:none;stroke:#000000;stroke-width:2;stroke-linecap:square;stroke-linejoin:round;stroke-miterlimit:10;" x1="27" y1="37" x2="38" y2="37"/></svg>