<?xml version="1.0" encoding="iso-8859-1"?><!-- Generator: Adobe Illustrator 22.0.1, SVG Export Plug-In . SVG Version: 6.00 Build 0)  --><svg xmlns="http://www.w3.org/2000/svg" xmlns:xlink="http://www.w3.org/1999/xlink" viewBox="0 0 50 50" width="500px" height="500px"><g></g><path style="fill:none;stroke:#000000;stroke-width:2;stroke-miterlimit:10;" d="M7,9c0,3.314-2.686,6-6,6"/><path style="fill:none;stroke:#000000;stroke-width:2;stroke-miterlimit:10;" d="M49,15c-3.314,0-6-2.686-6-6"/><path style="fill:none;stroke:#000000;stroke-width:2;stroke-miterlimit:10;" d="M1,35c3.314,0,6,2.686,6,6"/><path style="fill:none;stroke:#000000;stroke-width:2;stroke-miterlimit:10;" d="M43,41c0-3.314,2.686-6,6-6"/><rect x="8" y="18" style="fill:none;stroke:#000000;stroke-width:2;stroke-miterlimit:10;" width="7" height="4"/><rect x="35" y="18" style="fill:none;stroke:#000000;stroke-width:2;stroke-miterlimit:10;" width="7" height="4"/><circle cx="25" cy="7" r="1"/><circle cx="25" cy="11" r="1"/><circle cx="25" cy="15" r="1"/><circle cx="25" cy="19" r="1"/><circle cx="25" cy="23" r="1"/><circle cx="25" cy="27" r="1"/><circle cx="25" cy="31" r="1"/><circle cx="25" cy="35" r="1"/><circle cx="25" cy="39" r="1"/><circle cx="25" cy="43" r="1"/><line style="fill:none;stroke:#000000;stroke-width:2;stroke-miterlimit:10;" x1="7" y1="31" x2="22" y2="31"/><line style="fill:none;stroke:#000000;stroke-width:2;stroke-miterlimit:10;" x1="13" y1="36" x2="22" y2="36"/><line style="fill:none;stroke:#000000;stroke-width:2;stroke-miterlimit:10;" x1="28" y1="36" x2="37" y2="36"/><line style="fill:none;stroke:#000000;stroke-width:2;stroke-miterlimit:10;" x1="28" y1="31" x2="43" y2="31"/><polyline style="fill:none;stroke:#000000;stroke-width:2;stroke-linejoin:round;stroke-miterlimit:10;" points="22,41 1,41 1,9 22,9 "/><polyline style="fill:none;stroke:#000000;stroke-width:2;stroke-linejoin:round;stroke-miterlimit:10;" points="28,9 49,9 49,41 28,41 "/></svg>