<?xml version="1.0" encoding="utf-8"?><!-- Generator: Adobe Illustrator 19.1.1, SVG Export Plug-In . SVG Version: 6.00 Build 0)  --><svg xmlns="http://www.w3.org/2000/svg" xmlns:xlink="http://www.w3.org/1999/xlink" viewBox="0 0 50 50" width="500px" height="500px"><path d="M47,19c0-5.3-3.5-9.9-8.5-11.5c-1.3-3.9-4.9-6.5-9-6.5c-1.6,0-3.1,0.4-4.5,1.1C23.6,1.4,22.1,1,20.5,1c-4.1,0-7.7,2.7-9,6.5C6.5,9.1,3,13.7,3,19c0,1.7,0.3,3.3,1,4.8c-0.7,1.3-1,2.7-1,4.2c0,3.1,1.6,5.9,4.1,7.6C7,36,7,36.5,7,37c0,4,3.3,7.2,7.3,7c0.9,2.9,3.6,5,6.7,5c1.4,0,2.8-0.4,4-1.3c1.2,0.8,2.6,1.3,4,1.3c3.1,0,5.8-2.1,6.7-5c4,0.2,7.3-3,7.3-7c0-0.5,0-1-0.1-1.4c2.6-1.6,4.1-4.5,4.1-7.6c0-1.4-0.4-2.9-1-4.2C46.7,22.3,47,20.7,47,19z M23.5,12.9c0-0.2,0.2-0.4,0.4-0.4h2.5v0c0.2,0,0.4,0.2,0.4,0.4v17.3c0,0.2-0.2,0.4-0.4,0.4h-2.5c-0.2,0-0.4-0.2-0.4-0.4V12.9z M26.8,36.9c0,0.2-0.2,0.4-0.4,0.4h-2.7c-0.2,0-0.4-0.2-0.4-0.4V34c0-0.2,0.2-0.4,0.4-0.4h2.7c0.2,0,0.4,0.2,0.4,0.4V36.9z"/></svg>