<?xml version="1.0" encoding="iso-8859-1"?>
<!-- Generator: Adobe Illustrator 24.1.2, SVG Export Plug-In . SVG Version: 6.00 Build 0)  -->
<svg version="1.1" id="Layer_1" xmlns="http://www.w3.org/2000/svg" xmlns:xlink="http://www.w3.org/1999/xlink" x="0px" y="0px"
	 viewBox="0 0 50 50" style="enable-background:new 0 0 50 50;" xml:space="preserve">
<g>
</g>
<g>
	<g>
		<path d="M25,2C14.65,2,5.87,8.88,3,18.3l13,3.47V20c0-4.96,4.04-9,9-9s9,4.04,9,9h-2c0-3.86-3.14-7-7-7s-7,3.14-7,7v2.3
			l29.41,7.84C47.8,28.49,48,26.77,48,25C48,12.32,37.68,2,25,2z M18,24.37V30c0,3.86,3.14,7,7,7s7-3.14,7-7h2c0,4.96-4.04,9-9,9
			s-9-4.04-9-9v-6.16l-13.5-3.6C2.17,21.78,2,23.37,2,25c0,12.68,10.32,23,23,23c10.21,0,18.9-6.7,21.88-15.93L18,24.37z"/>
	</g>
</g>
</svg>