<?xml version="1.0" encoding="iso-8859-1"?><!-- Generator: Adobe Illustrator 21.1.0, SVG Export Plug-In . SVG Version: 6.00 Build 0)  --><svg xmlns="http://www.w3.org/2000/svg" xmlns:xlink="http://www.w3.org/1999/xlink" viewBox="0 0 50 50" width="500px" height="500px"><path d="M49.6,40.4c-0.068-0.102-0.8-1.119-2.02-2.405C47.853,37.368,48,36.69,48,36V14c0-2.757-2.243-5-5-5H7c-2.757,0-5,2.243-5,5v22c0,2.757,2.243,5,5,5h15l0.4,0.6c0.2,0.3,6,8.4,13.6,8.4s13.4-8.1,13.6-8.4L50,41L49.6,40.4z M4,21v-5h42v5H4z M9,26v-2h16v2H9z M36,48c-5.5,0-10-5.2-11.5-7c1.4-1.8,6-7,11.5-7s10.1,5.2,11.5,7C46.1,42.8,41.5,48,36,48z"/><circle cx="36" cy="41" r="2"/><path d="M36,35c-3.3,0-6,2.7-6,6s2.7,6,6,6s6-2.7,6-6S39.3,35,36,35z M36,45c-2.2,0-4-1.8-4-4s1.8-4,4-4s4,1.8,4,4S38.2,45,36,45z"/></svg>