<?xml version="1.0" encoding="iso-8859-1"?><!-- Generator: Adobe Illustrator 19.1.1, SVG Export Plug-In . SVG Version: 6.00 Build 0)  --><svg xmlns="http://www.w3.org/2000/svg" xmlns:xlink="http://www.w3.org/1999/xlink" viewBox="0 0 50 50" width="500px" height="500px"><line style="fill:none;stroke:#231F20;stroke-width:2;stroke-miterlimit:10;" x1="9" y1="37" x2="41" y2="37"/><polyline style="fill:none;stroke:#231F20;stroke-width:2;stroke-linecap:round;stroke-linejoin:round;stroke-miterlimit:10;" points="18,47 25,37 32,47 "/><g><path style="fill:#231F20;" d="M39,5V3c0-0.552-0.448-1-1-1H12c-0.552,0-1,0.448-1,1v2H39z"/><path style="fill:#231F20;" d="M11,8h-0.007c-0.004,0.322-0.022,0.626-0.032,0.94c-0.011,0.383-0.021,0.768-0.038,1.139c-0.007,0.143-0.017,0.281-0.026,0.423c-0.664,12.38-4.662,18.849-4.705,18.908c-0.222,0.304-0.255,0.707-0.084,1.043S6.624,31,7,31h4h22.423c0.657,0,1.248-0.382,1.525-0.978c1.319-2.841,3.905-10.254,4.046-22.021L39,8V7H11V8z"/><path style="fill:#231F20;" d="M36.763,30.864C36.16,32.161,34.849,33,33.423,33H33H11v4c0,0.552,0.448,1,1,1h26c0.552,0,1-0.448,1-1V24.281C38.13,27.692,37.209,29.902,36.763,30.864z"/></g></svg>