<?xml version="1.0" encoding="iso-8859-1"?>
<!-- Generator: Adobe Illustrator 23.0.3, SVG Export Plug-In . SVG Version: 6.00 Build 0)  -->
<svg version="1.1" xmlns="http://www.w3.org/2000/svg" xmlns:xlink="http://www.w3.org/1999/xlink" x="0px" y="0px"
	 viewBox="0 0 50 50" style="enable-background:new 0 0 50 50;" xml:space="preserve">
<g id="filled">
</g>
<g id="outlined">
</g>
<g id="rounded">
</g>
<g id="two_x5F_tone">
</g>
<g id="sharp">
</g>
<g id="win10">
</g>
<g id="ios_x5F_out">
</g>
<g id="ios_x5F_filled">
	<path d="M25,4C13.402,4,4,13.402,4,25s9.402,21,21,21s21-9.402,21-21S36.598,4,25,4z M42,25c0,3.973-1.374,7.619-3.658,10.514
		L14.486,11.658C17.381,9.374,21.027,8,25,8C34.389,8,42,15.611,42,25z M8,25c0-3.973,1.374-7.619,3.658-10.514l23.856,23.856
		C32.619,40.626,28.973,42,25,42C15.611,42,8,34.389,8,25z"/>
	<path d="M19.433,18h-1.89L12.286,31.85l-0.052,0.136h2.075l1.426-3.945h5.506l1.403,3.88l0.023,0.066h2.074L19.433,18z
		 M18.496,20.426l2.15,5.952h-4.318l2.15-5.952H18.496z"/>
	<path d="M30.965,18h-4.969v13.985h4.969c4.257,0,6.798-2.616,6.798-6.998C37.763,20.613,35.222,18,30.965,18z M35.754,25.007
		c0,3.324-1.789,5.231-4.907,5.231h-2.881v-10.49h2.881C33.919,19.748,35.754,21.714,35.754,25.007z"/>
</g>
<g id="color">
</g>
</svg>