<?xml version="1.0" encoding="iso-8859-1"?><!-- Generator: Adobe Illustrator 23.0.3, SVG Export Plug-In . SVG Version: 6.00 Build 0)  --><svg xmlns="http://www.w3.org/2000/svg" xmlns:xlink="http://www.w3.org/1999/xlink" viewBox="0 0 50 50" width="500px" height="500px"><path style="fill:none;stroke:#000000;stroke-width:2;stroke-linecap:round;stroke-miterlimit:10;" d="M32,9V6c0-1.104-0.896-2-2-2H20c-1.104,0-2,0.896-2,2v3"/><circle cx="25" cy="24" r="2"/><g id="IOS_copy"><path d="M41.1,50H37l-0.5-3.2c-0.4-0.1-0.7-0.2-1.1-0.4l-2.7,1.8l-3-3l1.8-2.7c-0.2-0.3-0.3-0.7-0.4-1L28,41v-4.2l3.1-0.5c0.1-0.4,0.3-0.7,0.4-1.1l-1.8-2.5l3-3l2.7,1.9c0.3-0.2,0.7-0.3,1-0.4L37,28h4.2l0.5,3.2c0.3,0.1,0.7,0.2,1,0.4l2.6-1.9l2.9,2.9l-1.8,2.7c0.2,0.3,0.3,0.7,0.4,1l3.2,0.5V41l-3.1,0.6c-0.1,0.3-0.2,0.7-0.4,1.1l1.9,2.6l-3,3l-2.7-1.8c-0.4,0.2-0.7,0.3-1,0.4L41.1,50z M38.6,48h0.8l0.5-2.8l0.6-0.2c0.6-0.2,1.2-0.4,1.8-0.7l0.5-0.3l2.3,1.6l0.6-0.6L44,42.7l0.4-0.6c0.3-0.5,0.5-1.1,0.7-1.7l0.2-0.6l2.7-0.6v-0.8L45.2,38L45,37.4c-0.2-0.6-0.4-1.2-0.7-1.8L44,35.1l1.6-2.3l-0.5-0.5L42.8,34l-0.6-0.4c-0.5-0.3-1.1-0.5-1.7-0.7l-0.6-0.2L39.5,30h-0.8l-0.5,2.8l-0.6,0.1c-0.6,0.2-1.2,0.5-1.9,0.8l-0.5,0.2l-2.3-1.6l-0.6,0.6l1.6,2.3l-0.4,0.5c-0.3,0.5-0.5,1.1-0.6,1.6L32.8,38L30,38.5v0.8l2.7,0.5l0.2,0.6c0.2,0.5,0.4,1.2,0.7,1.8l0.3,0.5L32.3,45l0.6,0.6l2.4-1.6l0.6,0.4c0.5,0.3,1.1,0.5,1.7,0.7l0.6,0.2L38.6,48z M39,42.9c-2.2,0-4-1.8-4-4c0-2.2,1.8-4,4-4s4,1.8,4,4C43,41.2,41.2,42.9,39,42.9z M39,37c-1.1,0-2,0.9-2,2s0.9,2,2,2s2-0.9,2-2C41,37.8,40.1,37,39,37z"/></g><path d="M47,9H3c-1.654,0-3,1.346-3,3v32c0,1.654,1.346,3,3,3h25.767c-0.489-0.624-0.923-1.292-1.293-2H3c-0.552,0-1-0.449-1-1V29.816C2.314,29.928,2.648,30,3,30h26.633c0.734-0.764,1.561-1.433,2.461-2H3c-0.552,0-1-0.449-1-1V12c0-0.551,0.448-1,1-1h44c0.552,0,1,0.449,1,1v14v1v2.653c0.758,0.73,1.436,1.544,2,2.441V12C50,10.346,48.654,9,47,9z"/></svg>