<?xml version="1.0" encoding="iso-8859-1"?><!-- Generator: Adobe Illustrator 21.1.0, SVG Export Plug-In . SVG Version: 6.00 Build 0)  --><svg xmlns="http://www.w3.org/2000/svg" xmlns:xlink="http://www.w3.org/1999/xlink" viewBox="0 0 50 50" width="500px" height="500px"><rect x="5" y="5" style="fill:none;stroke:#000000;stroke-width:2;stroke-linecap:round;stroke-linejoin:round;stroke-miterlimit:10;" width="40" height="40"/><line style="fill:none;stroke:#000000;stroke-width:2;stroke-linecap:round;stroke-linejoin:round;stroke-miterlimit:10;" x1="25" y1="45" x2="25" y2="5"/><line style="fill:none;stroke:#000000;stroke-width:2;stroke-linecap:round;stroke-linejoin:round;stroke-miterlimit:10;" x1="35" y1="45" x2="35" y2="5"/><line style="fill:none;stroke:#000000;stroke-width:2;stroke-linecap:round;stroke-linejoin:round;stroke-miterlimit:10;" x1="15" y1="45" x2="15" y2="5"/><line style="fill:none;stroke:#000000;stroke-width:2;stroke-linecap:round;stroke-linejoin:round;stroke-miterlimit:10;" x1="5" y1="25" x2="45" y2="25"/><line style="fill:none;stroke:#000000;stroke-width:2;stroke-linecap:round;stroke-linejoin:round;stroke-miterlimit:10;" x1="5" y1="35" x2="45" y2="35"/><line style="fill:none;stroke:#000000;stroke-width:2;stroke-linecap:round;stroke-linejoin:round;stroke-miterlimit:10;" x1="5" y1="15" x2="45" y2="15"/><circle cx="8" cy="8" r="1"/><circle cx="12" cy="8" r="1"/><circle cx="8" cy="12" r="1"/><circle cx="12" cy="12" r="1"/><circle cx="18" cy="18" r="1"/><circle cx="22" cy="18" r="1"/><circle cx="18" cy="22" r="1"/><circle cx="22" cy="22" r="1"/><circle cx="28" cy="28" r="1"/><circle cx="32" cy="28" r="1"/><circle cx="28" cy="32" r="1"/><circle cx="32" cy="32" r="1"/><circle cx="38" cy="38" r="1"/><circle cx="42" cy="38" r="1"/><circle cx="38" cy="42" r="1"/><circle cx="42" cy="42" r="1"/></svg>