<?xml version="1.0" encoding="iso-8859-1"?>
<!-- Generator: Adobe Illustrator 22.1.0, SVG Export Plug-In . SVG Version: 6.00 Build 0)  -->
<svg version="1.1" id="Layer_1" xmlns="http://www.w3.org/2000/svg" xmlns:xlink="http://www.w3.org/1999/xlink" x="0px" y="0px"
	 viewBox="0 0 50 50" style="enable-background:new 0 0 50 50;" xml:space="preserve">
<circle cx="25" cy="32" r="1"/>
<circle cx="18" cy="34" r="1"/>
<circle cx="13" cy="39" r="1"/>
<circle cx="37" cy="39" r="1"/>
<circle cx="32" cy="34" r="1"/>
<path style="fill:none;stroke:#000000;stroke-width:2;stroke-linecap:round;stroke-linejoin:round;stroke-miterlimit:10;" d="
	M42.514,42C40.695,33.989,33.562,28,25,28S9.305,33.989,7.486,42"/>
<path d="M26.999,44.993L28,34l-4.813,10.156l0.005,0.001C23.072,44.414,23,44.698,23,45c0,1.105,0.895,2,2,2
	c0.993,0,1.81-0.725,1.967-1.673l0.002,0.001l0.017-0.181C26.989,45.097,27,45.05,27,45C27,44.997,26.999,44.995,26.999,44.993z"/>
<path d="M13,4C6.935,4,2,8.934,2,15s4.935,11,11,11s11-4.934,11-11S19.065,4,13,4z M9.5,10c0.828,0,1.5,0.672,1.5,1.5
	S10.328,13,9.5,13S8,12.328,8,11.5S8.672,10,9.5,10z M17.55,20.855c-0.169,0.111-0.36,0.165-0.549,0.165
	c-0.325,0-0.645-0.158-0.836-0.45C15.527,19.601,14.317,19,13.006,19c-1.289,0-2.489,0.586-3.133,1.529
	c-0.311,0.457-0.936,0.574-1.39,0.263c-0.456-0.312-0.574-0.934-0.263-1.39C9.247,17.898,11.036,17,13.006,17
	c1.976,0,3.826,0.946,4.829,2.47C18.139,19.931,18.011,20.551,17.55,20.855z M16.5,13c-0.828,0-1.5-0.672-1.5-1.5s0.672-1.5,1.5-1.5
	s1.5,0.672,1.5,1.5S17.328,13,16.5,13z"/>
<path d="M37,4c-6.065,0-11,4.935-11,11s4.935,11,11,11s11-4.934,11-11S43.065,4,37,4z M33.5,10c0.828,0,1.5,0.672,1.5,1.5
	S34.328,13,33.5,13S32,12.328,32,11.5S32.672,10,33.5,10z M41.826,18.617c-1.026,1.504-2.815,2.402-4.785,2.402
	c-1.976,0-3.826-0.946-4.829-2.47c-0.304-0.461-0.176-1.082,0.285-1.385c0.461-0.303,1.083-0.176,1.385,0.286
	c0.638,0.968,1.848,1.569,3.159,1.569c1.289,0,2.489-0.586,3.133-1.529c0.312-0.457,0.936-0.574,1.39-0.263
	C42.02,17.539,42.138,18.161,41.826,18.617z M40.5,13c-0.828,0-1.5-0.672-1.5-1.5s0.672-1.5,1.5-1.5s1.5,0.672,1.5,1.5
	S41.328,13,40.5,13z"/>
</svg>