<?xml version="1.0" encoding="iso-8859-1"?>
<!-- Generator: Adobe Illustrator 22.1.0, SVG Export Plug-In . SVG Version: 6.00 Build 0)  -->
<svg version="1.1" id="Layer_1" xmlns="http://www.w3.org/2000/svg" xmlns:xlink="http://www.w3.org/1999/xlink" x="0px" y="0px"
	 viewBox="0 0 50 50" style="enable-background:new 0 0 50 50;" xml:space="preserve">
<path style="fill:none;stroke:#000000;stroke-width:2;stroke-linecap:round;stroke-miterlimit:10;" d="M46,9
	c-10.57,0-13.515,6.132-14.27,13.154l-3.549,6.115c-0.378,0.68-0.151,1.51,0.528,1.888l3.02,1.51l0.906,6.267
	c0.302,1.888,2.048,4.143,3.935,4.067h3.474v4"/>
<path style="fill:none;stroke:#000000;stroke-width:2;stroke-linecap:round;stroke-miterlimit:10;" d="M9.91,46v-4h3.474
	c1.888,0.076,3.633-2.179,3.935-4.067l0.906-6.267l3.02-1.51c0.679-0.378,0.906-1.208,0.528-1.888l-3.549-6.115
	C17.47,15.132,14.525,9,3.955,9"/>
<circle cx="19" cy="8" r="2"/>
<circle cx="5" cy="17" r="2"/>
<circle cx="11" cy="17" r="2"/>
<circle cx="5" cy="23" r="2"/>
<circle cx="11" cy="23" r="2"/>
<circle cx="39" cy="17" r="2"/>
<circle cx="39" cy="23" r="2"/>
<circle cx="31" cy="8" r="2"/>
<circle cx="25" cy="6" r="2"/>
</svg>