<?xml version="1.0" encoding="iso-8859-1"?>
<!-- Generator: Adobe Illustrator 22.1.0, SVG Export Plug-In . SVG Version: 6.00 Build 0)  -->
<svg version="1.1" id="Layer_1" xmlns="http://www.w3.org/2000/svg" xmlns:xlink="http://www.w3.org/1999/xlink" x="0px" y="0px"
	 viewBox="0 0 50 50" style="enable-background:new 0 0 50 50;" xml:space="preserve">
<path d="M7.959,28C6.327,28,5,26.654,5,25s1.327-3,2.959-3s2.959,1.346,2.959,3S9.591,28,7.959,28z"/>
<path d="M42,28c-1.654,0-3-1.346-3-3s1.346-3,3-3s3,1.346,3,3S43.654,28,42,28z"/>
<polygon style="fill:none;stroke:#000000;stroke-width:2;stroke-linejoin:round;stroke-miterlimit:10;" points="27,39 49,39 49,11 
	27,11 30,18 27,25 30,32 "/>
<polygon style="fill:none;stroke:#000000;stroke-width:2;stroke-linejoin:round;stroke-miterlimit:10;" points="21,39 24,32 21,25 
	24,18 21,11 1,11 1,39 1,39 "/>
<path d="M29.722,15.305c-0.278-0.165-0.614-0.181-0.901-0.058L30,18l-3,7l3,7l-1.177,2.746c0.125,0.053,0.256,0.088,0.391,0.088
	c0.175,0,0.351-0.046,0.508-0.139C32.978,32.774,35,29.059,35,25S32.978,17.226,29.722,15.305z"/>
<path d="M22.448,35.62L24,32l-3-7l3-7l-1.552-3.62C18.057,15.652,15,19.994,15,25S18.057,34.348,22.448,35.62z"/>
<path d="M1,11v6.698h1c0-0.538,0.739-0.869,1.784-1.278c0.652-0.256,1.269-0.497,1.681-0.917c0.354-0.361,0.566-0.868,0.791-1.404
	C6.803,12.792,7.226,12,8.487,12v-1H1z"/>
<path d="M1,39v-6.698h1c0,0.538,0.739,0.869,1.784,1.278c0.652,0.256,1.269,0.497,1.681,0.917c0.354,0.361,0.566,0.868,0.791,1.404
	C6.803,37.208,7.226,38,8.487,38v1H1z"/>
<path d="M48.987,11v6.698h-1c0-0.538-0.739-0.869-1.784-1.278c-0.652-0.256-1.269-0.497-1.681-0.917
	c-0.354-0.361-0.566-0.868-0.791-1.404C43.185,12.792,42.762,12,41.5,12v-1H48.987z"/>
<path d="M48.987,39v-6.698h-1c0,0.538-0.739,0.869-1.784,1.278c-0.652,0.256-1.269,0.497-1.681,0.917
	c-0.354,0.361-0.566,0.868-0.791,1.404C43.185,37.208,42.762,38,41.5,38v1H48.987z"/>
</svg>