<?xml version="1.0" encoding="utf-8"?><!-- Generator: Adobe Illustrator 15.0.0, SVG Export Plug-In . SVG Version: 6.00 Build 0)  --><!DOCTYPE svg PUBLIC "-//W3C//DTD SVG 1.1//EN" "http://www.w3.org/Graphics/SVG/1.1/DTD/svg11.dtd"><svg xmlns="http://www.w3.org/2000/svg" xmlns:xlink="http://www.w3.org/1999/xlink" viewBox="0 0 50 50" width="500px" height="500px"><path d="M42.676,23.968c0.927-7.232-0.442-13.191-3.974-17.259C35.514,3.035,30.647,1.012,25,1.012c-5.782,0-10.739,2.075-13.96,5.843c-3.478,4.069-4.773,9.963-3.757,17.072c-1.45,1.446-2.271,3.632-2.271,6.097c0,3.682,3.179,6.652,5.676,7.789C13.302,45.764,21.812,48.988,25,48.988c3.168,0,11.636-3.198,14.284-11.085c2.841-1.171,5.704-4.46,5.704-7.88C44.988,27.659,44.132,25.439,42.676,23.968z M25,35.019c-5.524,0-10.018-4.494-10.018-10.019c0-5.524,4.494-10.018,10.018-10.018c2.623,0,5.135,1.045,7,2.869V15.32c0-0.552,0.447-1,1-1s1,0.448,1,1V21l-5.68-0.001c-0.553,0-1-0.448-1-1s0.448-1,1-1l1.938,0c-1.448-1.266-3.316-1.981-5.258-1.981c-4.401,0-7.982,3.581-7.982,7.982s3.581,7.981,7.982,7.981s7.981-3.58,7.981-7.981c0-0.563,0.456-1.018,1.019-1.018s1.019,0.456,1.019,1.018C35.019,30.524,30.524,35.019,25,35.019z"/></svg>