<?xml version="1.0" encoding="utf-8"?><!-- Generator: Adobe Illustrator 15.0.0, SVG Export Plug-In . SVG Version: 6.00 Build 0)  --><!DOCTYPE svg PUBLIC "-//W3C//DTD SVG 1.1//EN" "http://www.w3.org/Graphics/SVG/1.1/DTD/svg11.dtd"><svg xmlns="http://www.w3.org/2000/svg" xmlns:xlink="http://www.w3.org/1999/xlink" viewBox="0 0 50 50" width="500px" height="500px"><path d="M48.565,26.198l-4.598-7.922C42.607,7.336,36.411,1.133,26,0.154v17.435c2.928,1.19,5,4.061,5,7.411c0,1.785-0.595,3.43-1.587,4.762l5.195,3.597C35.026,33.137,35.495,33,36,33c1.654,0,3,1.346,3,3s-1.346,3-3,3s-3-1.346-3-3c0-0.411,0.084-0.803,0.234-1.16l-5.222-3.614C26.64,32.333,24.897,33,23,33c-4.411,0-8-3.589-8-8c0-3.35,2.072-6.221,5-7.411V0.149C6.8,1.467,2,11.534,2,21c0,4.265,1.271,8.368,3.676,11.866C7.851,36.029,9,39.603,9,43.2V50h24v-5.233l2.007,0.13c2.332,0.216,4.557-0.529,6.274-2.094C43.009,41.228,44,38.967,44,36.6v-4.781l3.485-1.744c0.671-0.372,1.151-0.979,1.354-1.707C49.039,27.646,48.945,26.882,48.565,26.198z"/><circle cx="23" cy="25" r="2"/><path d="M23,19c-3.309,0-6,2.691-6,6s2.691,6,6,6s6-2.691,6-6S26.309,19,23,19z M23,29c-2.206,0-4-1.794-4-4c0-2.206,1.794-4,4-4s4,1.794,4,4C27,27.206,25.206,29,23,29z"/></svg>