<?xml version="1.0" encoding="iso-8859-1"?><!-- Generator: Adobe Illustrator 19.1.1, SVG Export Plug-In . SVG Version: 6.00 Build 0)  --><svg xmlns="http://www.w3.org/2000/svg" xmlns:xlink="http://www.w3.org/1999/xlink" viewBox="0 0 50 50" width="500px" height="500px"><g><g><path style="fill:none;stroke:#000000;stroke-width:2;stroke-linecap:round;stroke-linejoin:round;stroke-miterlimit:10;" d="M28,21.55c0-1.05,0-1.658,0-2.55c0.435-0.232,2-2,2-3.417c0.342-0.028,0.881-0.368,1.039-1.707c0.085-0.719-0.182-1.172-0.459-1.251C31.667,9.333,31,5,26.596,5L26,4c-6.5,0-7.583,3.75-6.541,8.542c-0.205,0.127-0.544,0.532-0.459,1.251c0.158,1.34,0.697,1.679,1.039,1.707c0,1.5,1.525,3.268,1.961,3.5c0,1.083,0,1.583,0,2.55c-1.043,2.854-7.675,1.947-8,7.45h22C35.675,23.497,29.044,24.403,28,21.55z"/></g></g><circle style="fill:none;stroke:#000000;stroke-width:2;stroke-linecap:round;stroke-miterlimit:10;" cx="25" cy="44" r="2"/><path style="fill:none;stroke:#000000;stroke-width:2;stroke-linecap:round;stroke-miterlimit:10;" d="M10,39c0-1.105-0.895-2-2-2s-2,0.895-2,2s0.895,2,2,2S10,40.105,10,39"/><g><path d="M24,32v10c0,0.553,0.448,1,1,1s1-0.447,1-1V32H24z"/></g><path style="fill:none;stroke:#000000;stroke-width:2;stroke-linecap:round;stroke-miterlimit:10;" d="M40,39c0-1.105,0.895-2,2-2s2,0.895,2,2s-0.895,2-2,2S40,40.105,40,39"/><g><path d="M13.501,32L9.2,36.4c-0.332,0.441-0.242,1.068,0.2,1.399C9.58,37.935,9.791,38,9.999,38c0.304,0,0.604-0.138,0.801-0.4L16,32H13.501z"/><path d="M36.499,32H34l5.2,5.6c0.196,0.263,0.497,0.4,0.801,0.4c0.208,0,0.419-0.065,0.599-0.2c0.442-0.331,0.531-0.958,0.2-1.399L36.499,32z"/></g></svg>