<?xml version="1.0" encoding="iso-8859-1"?><!-- Generator: Adobe Illustrator 21.0.0, SVG Export Plug-In . SVG Version: 6.00 Build 0)  --><svg xmlns="http://www.w3.org/2000/svg" xmlns:xlink="http://www.w3.org/1999/xlink" viewBox="0 0 50 50" width="500px" height="500px"><g id="Layer_1_1_"></g><g id="Layer_2"><polyline style="fill:none;stroke:#000000;stroke-width:2;stroke-linejoin:round;stroke-miterlimit:10;" points="24,11 24,5 45,5 45,40.094 47,45 22,45 24,39.969 24,20 "/><line style="fill:none;stroke:#000000;stroke-width:2;stroke-linecap:round;stroke-linejoin:round;stroke-miterlimit:10;" x1="24" y1="40" x2="45" y2="40"/><path d="M12,12c-2.757,0-5-2.243-5-5s2.243-5,5-5s5,2.243,5,5S14.757,12,12,12z"/><polygon points="44,40 46,45 23,45 23,44 24,40 "/><path d="M28.5,13H15.517l-3.015,6H13c0.552,0,1,0.448,1,1v4c0,0.552-0.448,1-1,1h-2c-0.552,0-1-0.448-1-1v-4c0-0.552,0.448-1,1-1h0.502l-2.986-6H7.5C4.467,13,2,15.467,2,18.5V32c0,1.104,0.897,2,2,2s2-0.896,2-2V20.547c0-0.271,0.229-0.5,0.5-0.5s0.5,0.229,0.5,0.5V45.3C7,46.864,7.835,48,9.4,48c1.482,0,2.6-1.161,2.6-2.7V33.7c0-0.276,0.224-0.5,0.5-0.5s0.5,0.224,0.5,0.5v11.892c0.004,0.006,0.012,0.01,0.016,0.016C13.153,46.991,14.218,48,15.6,48c1.564,0,2.4-1.136,2.4-2.7V18h10.5c1.381,0,2.5-1.119,2.5-2.5S29.881,13,28.5,13z"/><polyline style="fill:none;stroke:#000000;stroke-width:2;stroke-linejoin:round;stroke-miterlimit:10;" points="28,11 28,9 41,9 41,29 28,29 28,20 "/></g></svg>