<?xml version="1.0" encoding="utf-8"?><!-- Generator: Adobe Illustrator 18.1.1, SVG Export Plug-In . SVG Version: 6.00 Build 0)  --><svg xmlns="http://www.w3.org/2000/svg" xmlns:xlink="http://www.w3.org/1999/xlink" viewBox="0 0 50 50" width="500px" height="500px"><path fill="none" stroke="#000000" stroke-width="2" stroke-linecap="round" stroke-miterlimit="10" d="M19,27.9c-0.1-0.8,0-1.3,0-2.1c0.4-0.2,1-1.4,1.1-2.4c0.3,0,0.7-0.3,0.9-1.4c0.1-0.6-0.2-0.9-0.4-1c0.5-1.4,1.4-5.7-1.8-6.1c-0.3-0.6-1.2-0.9-2.3-0.9c-4.4,0.1-5,3.3-4,7c-0.2,0.1-0.5,0.4-0.4,1c0.1,1.1,0.6,1.4,0.9,1.4c0.1,1,0.8,2.2,1.2,2.4c0,0.7,0,1.3,0,2.1C13.2,30.2,7.3,29.5,7,34h19C25.7,29.5,19.8,30.2,19,27.9z"/><g><path d="M40.3,30.3C39,30.8,37.9,31,36.5,31C33,31,30,28.6,30,24.7c0-4.1,3.1-7.7,7.7-7.7c3.7,0,6.3,2.4,6.3,5.8c0,3-1.7,4.8-3.9,4.8c-1,0-1.7-0.5-1.8-1.5h0c-0.7,1-1.6,1.5-2.7,1.5c-1.3,0-2.3-1-2.3-2.6c0-2.5,1.9-4.7,4.9-4.7c0.9,0,1.9,0.2,2.5,0.5l-0.6,3.7c-0.2,1.2-0.1,1.7,0.5,1.7c0.9,0,2-1.1,2-3.4c0-2.6-1.7-4.6-4.9-4.6c-3.2,0-5.9,2.4-5.9,6.3c0,3.4,2.2,5.3,5.3,5.3c1.1,0,2.2-0.2,3-0.6L40.3,30.3z M38.4,22c-0.2,0-0.4-0.1-0.6-0.1c-1.4,0-2.4,1.3-2.4,2.9c0,0.8,0.4,1.2,1,1.2c0.8,0,1.6-0.9,1.8-2.1L38.4,22z"/></g><path fill="none" stroke="#000000" stroke-width="2" stroke-linejoin="round" stroke-miterlimit="10" d="M47,8H3c-1.1,0-2,0.9-2,2v33c0,1.1,0.9,2,2,2h7v-1.5c-0.6-0.5-1-1.2-1-2c0-1.4,1.1-2.5,2.5-2.5s2.5,1.1,2.5,2.5c0,0.8-0.4,1.5-1,2V45h24v-1.5c-0.6-0.5-1-1.2-1-2c0-1.4,1.1-2.5,2.5-2.5s2.5,1.1,2.5,2.5c0,0.8-0.4,1.5-1,2V45h7c1.1,0,2-0.9,2-2V10C49,8.9,48.1,8,47,8z"/></svg>