<?xml version="1.0" encoding="iso-8859-1"?><!-- Generator: Adobe Illustrator 23.0.3, SVG Export Plug-In . SVG Version: 6.00 Build 0)  --><svg xmlns="http://www.w3.org/2000/svg" xmlns:xlink="http://www.w3.org/1999/xlink" viewBox="0 0 50 50" width="500px" height="500px"><path style="fill:none;stroke:#000000;stroke-width:2;stroke-miterlimit:10;" d="M27.143,12h-4.286C22.386,12,22,11.55,22,11V3c0-0.55,0.386-1,0.857-1h4.286C27.614,2,28,2.45,28,3v8C28,11.55,27.614,12,27.143,12z"/><path d="M41.931,11.981c-0.005-2.752-2.248-4.99-5-4.99H28c-0.553,0-1,0.447-1,1L26.987,11H23V7.991c0-0.553-0.447-1-1-1h-9c-2.757,0-5,2.243-5,5V42.99c0,2.757,2.243,5,5,5h23.99c2.757,0,5-2.243,5-5.002L41.931,11.981z M22.937,27.73c0.042-0.297,0.042-0.425,0.042-0.552C21.211,26.965,20,26.71,20,26.03C21.474,24.712,18.853,16,25.421,16L26,17c5.979,0,3.653,7.755,5,8.987c0,0.51-2.189,1.02-4,1.19c0.042,0.213,0.042,0.383,0.042,0.51C27.8,29.685,32.789,29.133,33,33H17C17.211,29.133,22.221,29.685,22.937,27.73z M29,43H16v-2h13V43z M34,39H16v-2h18V39z"/></svg>