<?xml version="1.0" encoding="iso-8859-1"?><!-- Generator: Adobe Illustrator 23.0.3, SVG Export Plug-In . SVG Version: 6.00 Build 0)  --><svg xmlns="http://www.w3.org/2000/svg" xmlns:xlink="http://www.w3.org/1999/xlink" viewBox="0 0 50 50" width="500px" height="500px"><path d="M40,4H12c-1.654,0-3,1.346-3,3v6h3c0.552,0,1,0.448,1,1s-0.448,1-1,1H9v4h3c0.552,0,1,0.448,1,1s-0.448,1-1,1H9v4h3c0.552,0,1,0.448,1,1c0,0.553-0.448,1-1,1H9v4h3c0.552,0,1,0.447,1,1c0,0.553-0.448,1-1,1H9v4h3c0.552,0,1,0.447,1,1c0,0.553-0.448,1-1,1H9v4c0,1.654,1.346,3,3,3h28c1.654,0,3-1.346,3-3V7C43,5.346,41.654,4,40,4z M28,39h-4v-4h4V39z M28,30h-4V11h4V30z"/><line style="fill:none;stroke:#000000;stroke-width:2;stroke-linecap:round;stroke-linejoin:round;stroke-miterlimit:10;" x1="8" y1="13" x2="12" y2="13"/><line style="fill:none;stroke:#000000;stroke-width:2;stroke-linecap:round;stroke-linejoin:round;stroke-miterlimit:10;" x1="8" y1="19" x2="12" y2="19"/><line style="fill:none;stroke:#000000;stroke-width:2;stroke-linecap:round;stroke-linejoin:round;stroke-miterlimit:10;" x1="8" y1="25" x2="12" y2="25"/><line style="fill:none;stroke:#000000;stroke-width:2;stroke-linecap:round;stroke-linejoin:round;stroke-miterlimit:10;" x1="8" y1="31" x2="12" y2="31"/><line style="fill:none;stroke:#000000;stroke-width:2;stroke-linecap:round;stroke-linejoin:round;stroke-miterlimit:10;" x1="8" y1="37" x2="12" y2="37"/></svg>