<?xml version="1.0" encoding="iso-8859-1"?><!-- Generator: Adobe Illustrator 23.0.3, SVG Export Plug-In . SVG Version: 6.00 Build 0)  --><svg xmlns="http://www.w3.org/2000/svg" xmlns:xlink="http://www.w3.org/1999/xlink" viewBox="0 0 50 50" width="500px" height="500px"><circle cx="14" cy="7" r="5"/><path d="M15,14.059V16h-2v-1.941C8.5,14.557,5,18.368,5,23v9l3.484,1.394L9.2,48h9.6l0.716-14.606L23,32v-9C23,18.368,19.5,14.557,15,14.059z M15,27h-2v-9h2V27z"/><circle cx="14" cy="7" r="5"/><path d="M15,14.059V16h-2v-1.941C8.5,14.557,5,18.368,5,23v9l3.484,1.394L9.2,48h9.6l0.716-14.606L23,32v-9C23,18.368,19.5,14.557,15,14.059z M15,27h-2v-9h2V27z"/><path d="M32.414,2H18.889C20.19,3.272,21,5.042,21,7c0,2.381-1.198,4.486-3.02,5.751C22.124,14.353,25,18.361,25,23v10.354l-3.549,1.419L20.802,48H45V14.586L32.414,2z M33,14V5.414L41.586,14H33z"/></svg>