<?xml version="1.0" encoding="iso-8859-1"?><!-- Generator: Adobe Illustrator 23.0.3, SVG Export Plug-In . SVG Version: 6.00 Build 0)  --><svg xmlns="http://www.w3.org/2000/svg" xmlns:xlink="http://www.w3.org/1999/xlink" viewBox="0 0 50 50" width="500px" height="500px"><path style="fill:none;stroke:#000000;stroke-width:2;stroke-linecap:round;stroke-linejoin:round;stroke-miterlimit:10;" d="M45,44H5c-1.657,0-3-1.343-3-3V9c0-1.657,1.343-3,3-3h40c1.657,0,3,1.343,3,3v32C48,42.657,46.657,44,45,44z"/><path style="fill:none;stroke:#000000;stroke-width:2;stroke-linecap:round;stroke-linejoin:round;stroke-miterlimit:10;" d="M44,29c0,0-2.536,6-3,6c-1.105,0-2-4.477-2-10s0.895-10,2-10c0.599,0,3,6,3,6"/><circle cx="31" cy="25" r="1"/><circle cx="31" cy="21" r="1"/><circle cx="31" cy="29" r="1"/><ellipse style="fill:none;stroke:#000000;stroke-width:2;stroke-linecap:round;stroke-linejoin:round;stroke-miterlimit:10;" cx="44" cy="25" rx="1" ry="4"/><polyline style="fill:none;stroke:#000000;stroke-width:2;stroke-linecap:round;stroke-linejoin:round;stroke-miterlimit:10;" points="28,11 7,11 7,39 28,39 "/><polyline style="fill:none;stroke:#000000;stroke-width:2;stroke-linecap:round;stroke-linejoin:round;stroke-miterlimit:10;" points="43,18.441 43,11 34,6 34,44 43,39 43,31.317 "/><rect x="6" y="43" width="5" height="3"/><rect x="39" y="43" width="5" height="3"/><line style="fill:none;stroke:#000000;stroke-width:2;stroke-linecap:round;stroke-linejoin:round;stroke-miterlimit:10;" x1="29" y1="6" x2="29" y2="44"/></svg>