<?xml version="1.0" encoding="iso-8859-1"?><!-- Generator: Adobe Illustrator 23.0.3, SVG Export Plug-In . SVG Version: 6.00 Build 0)  --><svg xmlns="http://www.w3.org/2000/svg" xmlns:xlink="http://www.w3.org/1999/xlink" viewBox="0 0 50 50" width="500px" height="500px"><path d="M16,39.364v-2.455c0.453-0.232,1.044-1.751,1.182-3c0.545,0,1.227-0.273,1.227-1.636c0-1.091-0.545-1.364-0.545-1.364s0.545-1.773,0.545-2.727c0-1.909-1.037-4.182-3.682-4.182l-0.648-1C9.718,23,7.5,25.182,7.5,28.182c0,0.955,0.545,2.727,0.545,2.727S7.5,31.182,7.5,32.273c0,1.364,0.682,1.636,1.227,1.636c0.136,1.249,0.819,2.768,1.273,3v2.455c-0.979,2.572-6.601,2.241-7.942,6.179C1.814,46.258,2.377,47,3.132,47h20.732c0.772,0,1.346-0.776,1.062-1.494C23.384,41.607,16.977,41.927,16,39.364z"/><path d="M39,39.364v-2.455c0.453-0.232,1.044-1.751,1.182-3c0.545,0,1.227-0.273,1.227-1.636c0-1.091-0.545-1.364-0.545-1.364s0.545-1.773,0.545-2.727c0-1.909-1.037-4.182-3.682-4.182l-0.648-1c-4.361,0-6.579,2.182-6.579,5.182c0,0.955,0.545,2.727,0.545,2.727S30.5,31.182,30.5,32.273c0,1.364,0.682,1.636,1.227,1.636c0.136,1.249,0.819,2.768,1.273,3v2.455c-0.979,2.572-6.601,2.241-7.942,6.179C24.814,46.258,25.377,47,26.132,47h20.732c0.772,0,1.346-0.776,1.062-1.494C46.384,41.607,39.977,41.927,39,39.364z"/><path d="M25,23c-0.379,0-0.725-0.214-0.895-0.553L22.382,19H17c-1.71,0-3-1.29-3-3V6.1C14,4.391,15.387,3,17.091,3H33c1.704,0,3.091,1.391,3.091,3.1V16c0,1.71-1.29,3-3,3h-5.473l-1.724,3.447C25.725,22.786,25.379,23,25,23z"/></svg>