<?xml version="1.0" encoding="iso-8859-1"?><!-- Generator: Adobe Illustrator 21.1.0, SVG Export Plug-In . SVG Version: 6.00 Build 0)  --><svg xmlns="http://www.w3.org/2000/svg" xmlns:xlink="http://www.w3.org/1999/xlink" viewBox="0 0 50 50" width="500px" height="500px"><circle style="fill:none;stroke:#000000;stroke-width:2;stroke-miterlimit:10;" cx="25" cy="25" r="22"/><path style="fill:none;stroke:#000000;stroke-width:2;stroke-linecap:round;stroke-linejoin:round;stroke-miterlimit:10;" d="M16,12h10.826c2,0,3.7,0.3,5,0.8c1.3,0.6,2.3,1.2,3.1,2.1c0.8,0.8,1.3,1.8,1.6,2.8c0.3,1.1,0.4,2.1,0.4,3c0,1-0.1,2.3-0.4,3.3c-0.3,1.1-0.8,2-1.6,2.8s-1.8,1.5-3.1,2.1s-3,0.8-5,0.8H20V39h-4V12z"/><path style="fill:none;stroke:#000000;stroke-width:2;stroke-linecap:round;stroke-linejoin:round;stroke-miterlimit:10;" d="M20,26h6c0.815,0,1.731-0.1,2.546-0.2c0.815-0.1,1.528-0.4,2.241-0.7c0.611-0.4,1.12-0.9,1.528-1.5c0.407-0.7,0.611-1.5,0.611-2.6s-0.204-1.9-0.611-2.6s-0.917-1.2-1.528-1.5c-0.611-0.4-1.426-0.6-2.241-0.7S26.917,16,26,16h-6C20,16,20,26,20,26z"/></svg>