<?xml version="1.0" encoding="iso-8859-1"?><!-- Generator: Adobe Illustrator 23.0.3, SVG Export Plug-In . SVG Version: 6.00 Build 0)  --><svg xmlns="http://www.w3.org/2000/svg" xmlns:xlink="http://www.w3.org/1999/xlink" viewBox="0 0 50 50" width="500px" height="500px"><path style="fill:none;stroke:#000000;stroke-width:2;stroke-miterlimit:10;" d="M28.988,35.001C28.499,34.572,28.223,34.082,28,33.5c0-1.685,0-2.7,0-4.2c0.7-0.4,2.046-2.8,2.346-4.9c0.6,0,1.5-0.6,1.7-2.8c0.1-1.2-0.4-1.9-0.8-2.1c1-2.8,2.654-11.769-3.746-12.669c-0.7-1.2-2.4-1.8-4.6-1.8C14,5.231,12.931,12,14.831,19.5c-0.3,0.2-0.9,0.9-0.8,2.1c0.3,2.2,1.2,2.8,1.7,2.8c0.2,2.1,1.569,4.5,2.269,4.9c0,1.5,0,2.515,0,4.2c-0.194,0.571-0.541,1.053-1,1.476"/><g><path d="M24.825,35.7l2.183,2.713l3.114-3.794c-0.55-0.38-0.966-0.804-1.206-1.303c0,0-0.201-0.453-0.483-0.927c-0.282-0.474-0.897-0.631-1.371-0.348l-3.516,2.092l1.27,1.572L24.825,35.7z"/><path d="M17.714,32.389c-0.271,0.455-0.683,0.768-0.683,0.768c-0.004,0.037-0.006,0.07-0.01,0.108c-0.202,0.517-0.607,0.951-1.153,1.342l3.125,3.807l2.23-2.773l0.008,0.005l1.271-1.572l-3.416-2.032C18.611,31.758,17.997,31.915,17.714,32.389z"/><path d="M19.78,40.627c-0.189,0.234-0.473,0.371-0.774,0.373c-0.001,0-0.003,0-0.005,0c-0.299,0-0.583-0.134-0.773-0.365l-4.147-5.053c-0.615,0.275-1.283,0.545-1.986,0.823c-3.902,1.546-8.758,3.471-9.092,9.54L2.943,47H20.1v-0.4c0-3.699,2.4-7.8,2.4-7.8l-0.756-0.614L19.78,40.627z"/></g><path d="M36,47v-9.744c-0.715-0.314-1.43-0.599-2.116-0.869c-0.692-0.273-1.352-0.538-1.961-0.809l-4.149,5.056C27.583,40.866,27.299,41,27,41c-0.002,0-0.003,0-0.005,0c-0.301-0.002-0.586-0.139-0.774-0.373l-1.964-2.441L23.5,38.8c0,0,2.4,4,2.4,7.8V47H36z"/><path d="M50,28c0-4.486-3.514-8-8-8s-8,3.514-8,8s3.514,8,8,8S50,32.486,50,28z M40,26c0-1.104,0.896-2,2-2s2,0.896,2,2s-0.896,2-2,2S40,27.104,40,26z"/><path d="M43.707,49.707l2-2C45.895,47.52,46,47.266,46,47v-1.672c0-0.266-0.105-0.52-0.293-0.707L44.56,43.5l1.147-1.137C45.895,42.176,46,41.922,46,41.656v-1.25c0-0.197-0.059-0.391-0.168-0.555l-0.792-1.152l0.792-1.145c0.07-0.105,0.111-0.226,0.137-0.35C44.758,37.717,43.418,38,42,38c-1.431,0-2.78-0.289-4-0.809V47c0,0.266,0.105,0.52,0.293,0.707l2,2C40.48,49.895,40.735,50,41,50h2C43.265,50,43.52,49.895,43.707,49.707z"/></svg>