<?xml version="1.0" encoding="iso-8859-1"?><!-- Generator: Adobe Illustrator 22.1.0, SVG Export Plug-In . SVG Version: 6.00 Build 0)  --><svg xmlns="http://www.w3.org/2000/svg" xmlns:xlink="http://www.w3.org/1999/xlink" viewBox="0 0 24 24" width="384px" height="384px"><g id="zz"><path d="M14.409,12.473c0.536-0.918,1.528-1.488,2.591-1.488s2.056,0.57,2.591,1.488L22,16.602V6c0-1.1-0.9-2-2-2H4C2.9,4,2,4.9,2,6v12c0,1.1,0.9,2,2,2h6.018L14.409,12.473z M5.297,6.811L12,11l6.703-4.189C19.267,6.458,20,6.864,20,7.53v0c0,0.292-0.151,0.564-0.399,0.719l-6.541,4.088c-0.649,0.405-1.471,0.405-2.12,0L4.399,8.249C4.151,8.094,4,7.822,4,7.53v0C4,6.864,4.733,6.458,5.297,6.811z"/><g><path d="M16.136,13.481l-5.259,9.015C10.488,23.163,10.969,24,11.741,24h10.518c0.772,0,1.253-0.837,0.864-1.504l-5.259-9.015C17.478,12.819,16.522,12.819,16.136,13.481z M18,23h-2v-2h2V23z M16,20v-4h2v4H16z"/></g></g></svg>