<?xml version="1.0" encoding="iso-8859-1"?><!-- Generator: Adobe Illustrator 22.1.0, SVG Export Plug-In . SVG Version: 6.00 Build 0)  --><svg xmlns="http://www.w3.org/2000/svg" xmlns:xlink="http://www.w3.org/1999/xlink" viewBox="0 0 50 50" width="500px" height="500px"><g><path d="M38.354,20.942c-1.709,0-3.735-0.959-5.531-2.756c-2.895-2.896-3.663-6.222-1.871-8.088c0.729-0.755,2.017-1.128,3.293-1.033c-0.04-1.248,0.191-2.392,1.406-3.606l3.112-3.112c0.391-0.391,1.023-0.391,1.414,0s0.391,1.023,0,1.414l-3.112,3.112c-0.972,0.972-0.9,1.65-0.727,3.29c0.038,0.353-0.11,0.734-0.396,0.945c-0.286,0.21-0.658,0.29-0.982,0.152c-1.038-0.442-2.25-0.105-2.566,0.224c-0.945,0.984-0.137,3.308,1.843,5.288c1.912,1.912,4.261,2.714,5.229,1.782c0.335-0.32,0.727-1.463,0.282-2.506c-0.139-0.326-0.095-0.701,0.116-0.986c0.21-0.285,0.556-0.439,0.909-0.399c1.709,0.182,2.389,0.254,3.362-0.72l0.987-0.986c0.391-0.391,1.023-0.391,1.414,0s0.391,1.024,0,1.414l-0.987,0.986c-1.226,1.228-2.389,1.449-3.609,1.41c0.082,1.317-0.394,2.563-1.091,3.231C40.186,20.636,39.32,20.942,38.354,20.942z"/></g><g><path d="M21.803,34.063c-8.28-2.105-13.682-9.038-14.733-13c-1.051,5.943,2.309,11.886,5.463,12.876L21.803,34.063z"/></g><g><path d="M23.093,15.312l-1.68,5.31C17.664,14.659,7.107,16.335,7,23C4.929,11.834,17.986,8.948,23.093,15.312z"/></g><g><path d="M9.791,8.661c-0.192,0-0.388-0.056-0.56-0.172C8.775,8.18,8.654,7.56,8.963,7.103c0.051-0.074,1.247-1.829,2.958-2.792c1.709-0.964,3.829-1.08,3.919-1.085c0.546-0.03,1.019,0.396,1.048,0.947c0.028,0.551-0.396,1.021-0.946,1.051c-0.018,0.001-1.747,0.101-3.039,0.829C11.61,6.78,10.63,8.209,10.62,8.223C10.427,8.508,10.111,8.661,9.791,8.661z"/></g><g><path d="M21.775,10.025c-0.175,0-0.351-0.046-0.512-0.142c-2.005-1.197-3.559-0.864-3.622-0.848c-0.535,0.119-1.072-0.208-1.2-0.741c-0.128-0.532,0.191-1.067,0.723-1.201c0.096-0.024,2.371-0.571,5.125,1.073c0.475,0.283,0.629,0.896,0.346,1.371C22.447,9.852,22.116,10.025,21.775,10.025z"/></g><g><path d="M27.167,26.625l8.477-8.431c0.785-0.785,0.785-2.058,0-2.843c-0.777-0.777-2.037-0.777-2.814,0L22.654,25.526l-2.534,1.12l-5.097,5.097l7.31,2.424l4.126-4.006L27.167,26.625z"/></g><path d="M45,33H5c-0.553,0-1,0.447-1,1v11c0,0.553,0.447,1,1,1h7h17.001H45c0.553,0,1-0.447,1-1V34C46,33.447,45.553,33,45,33z M34.313,35c1.477,1.716,3.809,2.235,5.672,1.901c1.179-0.21,2.431-0.818,2.979-1.901H44v1.952c-0.858,0.952-2.116,1.642-3.662,1.918c-0.467,0.084-0.957,0.127-1.458,0.127c-2.593,0-5.463-1.187-6.977-3.997H34.313z M31.233,40.987c-1.467-0.688-2.699-1.375-3.787-1.979c-3.445-1.916-5.174-2.878-8.613-0.941C15.356,40.026,10.506,42.287,6,42.85v-2.014c3.318-0.457,7.355-1.978,11.851-4.512c4.413-2.486,6.995-1.051,10.567,0.936c1.06,0.59,2.262,1.258,3.665,1.917C36.181,41.1,41.298,41.23,44,41.135v2.007c-0.392,0.014-0.827,0.023-1.304,0.023C39.648,43.165,35.093,42.8,31.233,40.987z M27.162,44c-0.838-0.964-1.83-1.486-2.621-1.757c-1.63-0.56-3.479-0.447-4.949,0.296c-0.641,0.325-1.274,0.749-1.945,1.198c-0.13,0.087-0.263,0.175-0.396,0.263H12c1.661,0,3.057-0.935,4.534-1.924c0.69-0.463,1.404-0.941,2.153-1.32c1.968-0.998,4.337-1.147,6.502-0.404c1.888,0.647,3.429,1.933,4.409,3.648H27.162z"/></svg>