<?xml version="1.0" encoding="iso-8859-1"?><!-- Generator: Adobe Illustrator 21.1.0, SVG Export Plug-In . SVG Version: 6.00 Build 0)  --><svg xmlns="http://www.w3.org/2000/svg" xmlns:xlink="http://www.w3.org/1999/xlink" viewBox="0 0 50 50" width="500px" height="500px"><polyline style="fill:none;stroke:#000000;stroke-width:2;stroke-miterlimit:10;" points="15.1,25.6 23.3,33 34.9,15 "/><polygon style="fill:none;stroke:#000000;stroke-width:2;stroke-linejoin:round;stroke-miterlimit:10;" points="25,4.99 29.924,3.524 33.695,6.981 38.724,7.819 40.61,12.533 44.8,15.467 44.486,20.6 47,25 44.486,29.4 44.8,34.533 40.61,37.467 38.724,42.181 33.695,43.019 29.924,46.476 25,45.01 20.076,46.476 16.305,43.019 11.276,42.181 9.39,37.467 5.2,34.533 5.514,29.4 3,25 5.514,20.6 5.2,15.467 9.39,12.533 11.276,7.819 16.305,6.981 20.076,3.524 "/></svg>