<?xml version="1.0" encoding="iso-8859-1"?><!-- Generator: Adobe Illustrator 23.0.3, SVG Export Plug-In . SVG Version: 6.00 Build 0)  --><svg xmlns="http://www.w3.org/2000/svg" xmlns:xlink="http://www.w3.org/1999/xlink" viewBox="0 0 50 50" width="500px" height="500px"><circle cx="40.056" cy="40" r="2"/><polyline style="fill:none;stroke:#000000;stroke-width:2;stroke-linecap:round;stroke-miterlimit:10;" points="40.056,40 47.056,32 47.056,30 "/><line style="fill:none;stroke:#000000;stroke-width:2;stroke-linecap:round;stroke-miterlimit:10;" x1="47.056" y1="32" x2="49.056" y2="32"/><g><path d="M48.586,34.808l-1.395,1.594c0.549,1.083,0.865,2.303,0.865,3.598c0,4.411-3.589,8-8,8s-8-3.589-8-8s3.589-8,8-8c0.919,0,1.798,0.163,2.62,0.45l1.4-1.599c-1.232-0.543-2.59-0.85-4.02-0.85c-5.514,0-10,4.486-10,10s4.486,10,10,10s10-4.486,10-10C50.056,38.097,49.512,36.323,48.586,34.808z"/><path d="M44.056,40c0,2.206-1.794,4-4,4s-4-1.794-4-4c0-2.023,1.514-3.682,3.466-3.946l1.696-1.939C40.843,34.041,40.454,34,40.056,34c-3.309,0-6,2.691-6,6s2.691,6,6,6s6-2.691,6-6c0-0.676-0.117-1.324-0.324-1.93l-1.677,1.917C44.055,39.991,44.056,39.995,44.056,40z"/></g><path d="M31,40c0-1.733,0.498-3.345,1.346-4.718c-0.647-0.348-1.516-0.779-2.696-1.336c-0.754-0.433-1.334-0.917-1.663-1.506c-0.006-0.091-0.023-0.178-0.052-0.26c0.931-0.116,2.239-0.314,3.543-0.627c1.302-1.313,2.908-2.32,4.701-2.922c0.004-0.044,0.02-0.086,0.02-0.131c0-0.282-0.119-0.551-0.328-0.741c-0.705-0.638-0.772-3.354-0.833-5.75C34.883,15.761,34.65,6.382,24.624,6.011l-0.729-1.458C23.724,4.214,23.379,4,23,4C11.355,4,10.334,14.639,9.658,21.679c-0.258,2.688-0.524,5.467-1.321,6.173C8.123,28.042,8,28.314,8,28.6c0,2.266,3.292,2.969,8.067,3.569C16.03,32.273,16,32.383,16,32.5c0,0.017,0.004,0.033,0.004,0.05c-0.699,1.236-2.691,2.023-4.809,2.845c-3.946,1.533-8.858,3.441-9.193,9.55c-0.016,0.274,0.083,0.542,0.271,0.742C2.463,45.887,2.725,46,3,46h30.306C31.876,44.407,31,42.308,31,40z M25.998,30.703c-0.17,0.228-0.234,0.517-0.179,0.794C25.9,31.899,25.9,32.218,25.9,32.5c0,0.056,0.021,0.109,0.03,0.164C25.619,33.127,24.233,34,22,34c-2.144,0-3.556-0.772-3.908-1.279c0.107-0.755,0.108-1.11,0.108-1.421c0-0.506-0.379-0.933-0.882-0.993c-4.104-0.488-6.509-1.007-7.161-1.524c0.963-1.405,1.201-3.882,1.492-6.913c0.664-6.92,1.488-15.498,10.738-15.858l0.718,1.436C23.275,7.786,23.621,8,24,8c8.049,0,8.841,6.093,9.04,14.059c0.069,2.795,0.127,5.097,0.933,6.484c-0.856,0.547-3.467,1.408-7.266,1.761C26.424,30.331,26.167,30.475,25.998,30.703z"/></svg>