<?xml version="1.0" encoding="iso-8859-1"?><!-- Generator: Adobe Illustrator 21.1.0, SVG Export Plug-In . SVG Version: 6.00 Build 0)  --><svg xmlns="http://www.w3.org/2000/svg" xmlns:xlink="http://www.w3.org/1999/xlink" viewBox="0 0 50 50" width="500px" height="500px"><rect x="29" y="19" width="2" height="2"/><rect x="29" y="23" width="2" height="2"/><rect x="29" y="27" width="2" height="2"/><rect x="29" y="36" width="2" height="2"/><rect x="7" y="19" width="2" height="2"/><rect x="7" y="23" width="2" height="2"/><rect x="7" y="27" width="2" height="2"/><rect x="7" y="36" width="2" height="2"/><rect x="33" y="19" width="10" height="2"/><rect x="33" y="23" width="10" height="2"/><rect x="33" y="27" width="8" height="2"/><rect x="33" y="36" width="10" height="2"/><rect x="39" y="32" width="4" height="2"/><rect x="11" y="19" width="10" height="2"/><rect x="11" y="23" width="8" height="2"/><rect x="11" y="27" width="10" height="2"/><rect x="11" y="36" width="10" height="2"/><rect x="17" y="32" width="4" height="2"/><path style="fill:none;stroke:#000000;stroke-width:2;stroke-miterlimit:10;" d="M45.015,44H4.985C3.889,44,3,43.111,3,42.015V7.985C3,6.889,3.889,6,4.985,6h40.03C46.111,6,47,6.889,47,7.985v34.03C47,43.111,46.111,44,45.015,44z"/><line style="fill:none;stroke:#000000;stroke-width:2;stroke-miterlimit:10;" x1="3" y1="13" x2="47" y2="13"/><line style="fill:none;stroke:#000000;stroke-width:2;stroke-miterlimit:10;" x1="25" y1="44" x2="24.999" y2="12"/></svg>