<?xml version="1.0" encoding="iso-8859-1"?>
<!-- Generator: Adobe Illustrator 24.1.2, SVG Export Plug-In . SVG Version: 6.00 Build 0)  -->
<svg version="1.1" id="Layer_1" xmlns="http://www.w3.org/2000/svg" xmlns:xlink="http://www.w3.org/1999/xlink" x="0px" y="0px"
	 viewBox="0 0 50 50" style="enable-background:new 0 0 50 50;" xml:space="preserve">
<g>
</g>
<g>
	<polygon points="23,25.43 32,28.7 32,31.57 23,28.3 	"/>
	<polygon points="30.45,23.96 35.96,25.96 33.01,26.94 27.67,25 	"/>
	<polygon points="34,28.72 38,27.39 38,30.28 34,31.61 	"/>
	<path d="M25,2C12.32,2,2,12.32,2,25s10.32,23,23,23s23-10.32,23-23S37.68,2,25,2z M40,31.72l-7.01,2.34l-11.08-4.03L16,32l-5-2v-7
		l5-2v-6l6-2l11,4v5.75l7,2.55V31.72z"/>
</g>
</svg>