<?xml version="1.0" encoding="iso-8859-1"?><!-- Generator: Adobe Illustrator 19.2.1, SVG Export Plug-In . SVG Version: 6.00 Build 0)  --><svg xmlns="http://www.w3.org/2000/svg" xmlns:xlink="http://www.w3.org/1999/xlink" viewBox="0 0 50 50" width="500px" height="500px"><circle cx="43" cy="25" r="1"/><circle cx="46" cy="25" r="1"/><circle cx="7" cy="25" r="1"/><circle cx="4" cy="25" r="1"/><circle cx="10" cy="25" r="1"/><circle cx="13" cy="25" r="1"/><circle cx="16" cy="25" r="1"/><circle cx="19" cy="25" r="1"/><path d="M21.293,25.707c-0.391-0.391-0.391-1.024,0-1.414c0.391-0.391,1.024-0.391,1.414,0L21.293,25.707z"/><path d="M28.707,25.707c-0.391,0.391-1.024,0.391-1.414,0l1.414-1.414C29.098,24.683,29.098,25.317,28.707,25.707z"/><circle cx="31" cy="25" r="1"/><circle cx="34" cy="25" r="1"/><circle cx="37" cy="25" r="1"/><circle cx="40" cy="25" r="1"/><line style="fill:none;stroke:#000000;stroke-width:2;stroke-linecap:round;stroke-linejoin:round;stroke-miterlimit:10;" x1="35.268" y1="14.732" x2="6" y2="44"/><line style="fill:none;stroke:#000000;stroke-width:2;stroke-linecap:round;stroke-linejoin:round;stroke-miterlimit:10;" x1="38.5" y1="11.5" x2="43.5" y2="6.5"/><line style="fill:none;stroke:#000000;stroke-width:2;stroke-linecap:round;stroke-linejoin:round;stroke-miterlimit:10;" x1="38.5" y1="6.5" x2="43.5" y2="11.5"/><path style="fill:none;stroke:#000000;stroke-width:2;stroke-linecap:round;stroke-linejoin:round;stroke-miterlimit:10;" d="M37,15h8c1.105,0,2-0.895,2-2V5c0-1.105-0.895-2-2-2h-8c-1.105,0-2,0.895-2,2v8C35,14.105,35.895,15,37,15z"/></svg>