<?xml version="1.0" encoding="utf-8"?><!-- Generator: Adobe Illustrator 15.0.0, SVG Export Plug-In . SVG Version: 6.00 Build 0)  --><!DOCTYPE svg PUBLIC "-//W3C//DTD SVG 1.1//EN" "http://www.w3.org/Graphics/SVG/1.1/DTD/svg11.dtd"><svg xmlns="http://www.w3.org/2000/svg" xmlns:xlink="http://www.w3.org/1999/xlink" viewBox="0 0 50 50" width="500px" height="500px"><path d="M31.245,3c-0.802-0.706-1.38-1.2-1.595-1.36C27.984,0.213,26.021,0,25,0c-1.022,0-2.985,0.213-4.601,1.6c-0.235,0.177-0.741,0.607-1.66,1.4H31.245z"/><path d="M49.67,19.259c-0.002-0.001-0.002-0.003-0.004-0.005c0,0-2.445-2.18-5.666-5.034v9.466L49.67,19.259z"/><path d="M35.257,33.051C40.003,36.777,46.518,41.889,50,44.62V21.538l-6,4.685v0.008l-2,1.574v-0.02L35.257,33.051z"/><path d="M6,23.698V14.22c-3.221,2.854-5.666,5.034-5.666,5.034c-0.002,0.002-0.002,0.004-0.004,0.006L6,23.698z"/><path d="M28.376,30.182C27.091,29.152,25.709,29,25,29c-0.294,0-1.843,0.059-3.408,1.207C20.321,31.139,4.403,43.721,0,47.203V49c0,0.553,0.448,1,1,1h48c0.553,0,1-0.447,1-1v-1.838C45.497,43.63,29.656,31.205,28.376,30.182z"/><path d="M14.704,33.049L8,27.803v0.002l-0.27-0.214L0,21.542v23.112C3.454,41.923,9.942,36.795,14.704,33.049z"/><path d="M41,5h-6H15H9C8.448,5,8,5.448,8,6v3v3.449v12.814l8.322,6.512c2.146-1.687,3.711-2.906,4.086-3.183C22.424,27.115,24.433,27,25,27c0.971,0,2.863,0.21,4.625,1.619c0.361,0.289,1.898,1.499,4.012,3.158L42,25.248V12.449V10V6C42,5.448,41.553,5,41,5z M32,18h-6v6h-2v-6h-6v-2h6v-6h2v6h6V18z"/></svg>