<?xml version="1.0" encoding="iso-8859-1"?><!-- Generator: Adobe Illustrator 19.2.0, SVG Export Plug-In . SVG Version: 6.00 Build 0)  --><svg xmlns="http://www.w3.org/2000/svg" xmlns:xlink="http://www.w3.org/1999/xlink" viewBox="0 0 50 50" width="500px" height="500px"><path style="fill:none;stroke:#000000;stroke-width:2;stroke-linecap:round;stroke-linejoin:round;stroke-miterlimit:10;" d="M36.077,27.779c-0.061-0.675-0.038-1.146-0.038-1.762c0.308-0.161,0.858-1.183,0.951-2.046c0.242-0.02,0.623-0.254,0.734-1.18c0.06-0.497-0.179-0.777-0.324-0.865c0.393-1.176,1.21-4.814-1.511-5.19C35.609,16.247,34.892,16,33.961,16c-3.566,0-4.178,2.799-3.361,5.926c-0.145,0.088-0.384,0.368-0.324,0.865c0.112,0.926,0.493,1.16,0.734,1.18c0.093,0.863,0.665,1.886,0.973,2.046c0,0.616,0.023,1.087-0.038,1.762C31.207,29.751,26.23,29.197,26,33v1h16v-1C41.771,29.197,36.815,29.751,36.077,27.779z"/><path style="fill:none;stroke:#000000;stroke-width:2;stroke-linecap:round;stroke-linejoin:round;stroke-miterlimit:10;" d="M49,38c0,2.209-1.791,4-4,4H5c-2.209,0-4-1.791-4-4V12c0-2.209,1.791-4,4-4h40c2.209,0,4,1.791,4,4V38z"/><path style="fill:none;stroke:#000000;stroke-width:2;stroke-linecap:round;stroke-linejoin:round;stroke-miterlimit:10;" d="M18,29h-7c-0.552,0-1-0.448-1-1v-6c0-0.552,0.448-1,1-1h7c0.552,0,1,0.448,1,1v6C19,28.552,18.552,29,18,29z"/><polygon points="7,22 7,28 4,25 "/></svg>