<?xml version="1.0" encoding="utf-8"?><!-- Generator: Adobe Illustrator 18.1.1, SVG Export Plug-In . SVG Version: 6.00 Build 0)  --><svg xmlns="http://www.w3.org/2000/svg" xmlns:xlink="http://www.w3.org/1999/xlink" viewBox="0 0 50 50" width="500px" height="500px"><path fill="none" stroke="#000000" stroke-width="2" stroke-miterlimit="10" d="M35,31h12c1.1,0,2,0.9,2,2v8c0,1.1-0.9,2-2,2H35c-1.1,0-2-0.9-2-2v-8C33,31.9,33.9,31,35,31z"/><path fill="none" stroke="#000000" stroke-width="2" stroke-miterlimit="10" d="M35,7h12c1.1,0,2,0.9,2,2v8c0,1.1-0.9,2-2,2H35c-1.1,0-2-0.9-2-2V9C33,7.9,33.9,7,35,7z"/><path fill="none" stroke="#000000" stroke-width="2" stroke-miterlimit="10" d="M3,19h12c1.1,0,2,0.9,2,2v8c0,1.1-0.9,2-2,2H3c-1.1,0-2-0.9-2-2v-8C1,19.9,1.9,19,3,19z"/><line fill="none" stroke="#000000" stroke-width="2" stroke-miterlimit="10" x1="17" y1="25" x2="33" y2="13"/><line fill="none" stroke="#000000" stroke-width="2" stroke-miterlimit="10" x1="17" y1="25" x2="33" y2="37"/></svg>