<?xml version="1.0" encoding="iso-8859-1"?><!-- Generator: Adobe Illustrator 23.0.3, SVG Export Plug-In . SVG Version: 6.00 Build 0)  --><svg xmlns="http://www.w3.org/2000/svg" xmlns:xlink="http://www.w3.org/1999/xlink" viewBox="0 0 50 50" width="500px" height="500px"><line style="fill:none;stroke:#000000;stroke-width:2;stroke-linecap:round;stroke-linejoin:round;stroke-miterlimit:10;" x1="25" y1="24" x2="25" y2="45"/><rect x="6" y="5" style="fill:none;stroke:#000000;stroke-width:2;stroke-linecap:round;stroke-linejoin:round;stroke-miterlimit:10;" width="38" height="4"/><path style="fill:none;stroke:#000000;stroke-width:2;stroke-linecap:round;stroke-linejoin:round;stroke-miterlimit:10;" d="M40,16c0,1.657,1.343,3,3,3s3-1.343,3-3c0-0.347-2-7-2-7H6c0,0-2,6.653-2,7c0,1.657,1.343,3,3,3s3-1.343,3-3"/><path style="fill:none;stroke:#000000;stroke-width:2;stroke-linecap:round;stroke-linejoin:round;stroke-miterlimit:10;" d="M34,16c0,1.657,1.343,3,3,3s3-1.343,3-3"/><path style="fill:none;stroke:#000000;stroke-width:2;stroke-linecap:round;stroke-linejoin:round;stroke-miterlimit:10;" d="M28,16c0,1.657,1.343,3,3,3c1.657,0,3-1.343,3-3"/><path style="fill:none;stroke:#000000;stroke-width:2;stroke-linecap:round;stroke-linejoin:round;stroke-miterlimit:10;" d="M22,16c0,1.657,1.343,3,3,3s3-1.343,3-3"/><path style="fill:none;stroke:#000000;stroke-width:2;stroke-linecap:round;stroke-linejoin:round;stroke-miterlimit:10;" d="M16,16c0,1.657,1.343,3,3,3s3-1.343,3-3"/><path style="fill:none;stroke:#000000;stroke-width:2;stroke-linecap:round;stroke-linejoin:round;stroke-miterlimit:10;" d="M10,16c0,1.657,1.343,3,3,3s3-1.343,3-3"/><circle cx="29" cy="34" r="1"/><circle cx="21" cy="34" r="1"/><line style="fill:none;stroke:#000000;stroke-width:2;stroke-linecap:round;stroke-miterlimit:10;" x1="40" y1="44.95" x2="40" y2="35.05"/><line style="fill:none;stroke:#000000;stroke-width:2;stroke-linecap:round;stroke-miterlimit:10;" x1="35.05" y1="40" x2="44.95" y2="40"/><circle style="fill:none;stroke:#000000;stroke-width:2;stroke-linecap:round;stroke-miterlimit:10;" cx="40" cy="40" r="9"/><g><path d="M46,29.618V19c0-0.553-0.448-1-1-1s-1,0.447-1,1v9.697C44.699,28.945,45.367,29.252,46,29.618z"/><path d="M28.697,44H12V25h26v3.18c0.652-0.11,1.317-0.18,2-0.18v-4c0-0.553-0.448-1-1-1H11c-0.552,0-1,0.447-1,1v20H6V19c0-0.553-0.448-1-1-1s-1,0.447-1,1v26c0,0.553,0.448,1,1,1h24.618C29.252,45.367,28.945,44.699,28.697,44z"/></g></svg>