<?xml version="1.0" encoding="iso-8859-1"?><!-- Generator: Adobe Illustrator 22.1.0, SVG Export Plug-In . SVG Version: 6.00 Build 0)  --><svg xmlns="http://www.w3.org/2000/svg" xmlns:xlink="http://www.w3.org/1999/xlink" viewBox="0 0 50 50" width="500px" height="500px"><g></g><g></g><rect x="13" y="9" style="fill:none;stroke:#000000;stroke-width:2;stroke-miterlimit:10;" width="24" height="8"/><rect x="32" y="12" width="2" height="2"/><rect x="28" y="12" width="2" height="2"/><rect x="24" y="12" width="2" height="2"/><line style="fill:none;stroke:#000000;stroke-width:2;stroke-linejoin:round;stroke-miterlimit:10;" x1="25" y1="41" x2="25" y2="23"/><line style="fill:none;stroke:#000000;stroke-width:2;stroke-linejoin:round;stroke-miterlimit:10;" x1="19" y1="41" x2="19" y2="23"/><path d="M40,30c-5.5,0-10,4.5-10,10s4.5,10,10,10s10-4.5,10-10S45.5,30,40,30z M40,48c-4.4,0-8-3.6-8-8s3.6-8,8-8s8,3.6,8,8S44.4,48,40,48z M39,37.7c0,2.1,4.5,1.3,4.5,4.8c0,2.5-2.4,2.8-2.8,2.8v1.4h-1.1v-1.4c-0.4,0-3-0.3-3-3.3h2c0,0.3,0,1.7,1.5,1.7c1.3,0,1.3-1,1.3-1.2c0-2.2-4.5-1.3-4.5-4.8c0-2.1,1.9-2.8,2.8-2.8v-1.5h1.1v1.5c0.7,0.1,2.6,0.6,2.6,3.2h-2c0-0.6-0.1-1.7-1.3-1.7C39,36.5,39,37.5,39,37.7z"/><path d="M28.697,44H11c-0.551,0-1-0.448-1-1V7c0-0.552,0.449-1,1-1h28c0.551,0,1,0.448,1,1v21c0.683,0,1.348,0.07,2,0.18V7c0-1.654-1.346-3-3-3H11C9.346,4,8,5.346,8,7v36c0,1.654,1.346,3,3,3h18.618C29.252,45.367,28.945,44.699,28.697,44z"/><path d="M32,31.074V23h-2v10.372C30.565,32.521,31.242,31.753,32,31.074z"/><path d="M29.618,34H13v2h15.697C28.945,35.301,29.252,34.633,29.618,34z"/><path d="M37,28.393V28H13v2h20.372C34.467,29.273,35.692,28.731,37,28.393z"/><path d="M28,40H14V24h22v4.697c0.644-0.228,1.311-0.402,2-0.518V23c0-0.553-0.448-1-1-1H13c-0.552,0-1,0.447-1,1v18c0,0.553,0.448,1,1,1h15.18C28.07,41.348,28,40.683,28,40z"/></svg>