<?xml version="1.0" encoding="utf-8"?><!-- Generator: Adobe Illustrator 15.0.0, SVG Export Plug-In . SVG Version: 6.00 Build 0)  --><!DOCTYPE svg PUBLIC "-//W3C//DTD SVG 1.1//EN" "http://www.w3.org/Graphics/SVG/1.1/DTD/svg11.dtd"><svg xmlns="http://www.w3.org/2000/svg" xmlns:xlink="http://www.w3.org/1999/xlink" viewBox="0 0 50 50" width="500px" height="500px"><path d="M22.4,26.5c0,1.1,0.5,1.8,1.6,1.8c1.2,0,2.5-1.6,2.7-3.2l0.5-2.7C27,22.3,26.6,22.2,26.1,22.2C24,22.2,22.4,24.2,22.4,26.5z"/><line fill="none" stroke="#000000" stroke-width="2" stroke-linecap="round" stroke-linejoin="round" stroke-miterlimit="10" x1="7" y1="13" x2="11" y2="13"/><line fill="none" stroke="#000000" stroke-width="2" stroke-linecap="round" stroke-linejoin="round" stroke-miterlimit="10" x1="7" y1="19" x2="11" y2="19"/><line fill="none" stroke="#000000" stroke-width="2" stroke-linecap="round" stroke-linejoin="round" stroke-miterlimit="10" x1="7" y1="25" x2="11" y2="25"/><line fill="none" stroke="#000000" stroke-width="2" stroke-linecap="round" stroke-linejoin="round" stroke-miterlimit="10" x1="7" y1="31" x2="11" y2="31"/><line fill="none" stroke="#000000" stroke-width="2" stroke-linecap="round" stroke-linejoin="round" stroke-miterlimit="10" x1="7" y1="37" x2="11" y2="37"/><path d="M39,4H11C9.346,4,8,5.346,8,7v6h3c0.552,0,1,0.448,1,1s-0.448,1-1,1H8v4h3c0.552,0,1,0.448,1,1s-0.448,1-1,1H8v4h3c0.552,0,1,0.447,1,1s-0.448,1-1,1H8v4h3c0.552,0,1,0.447,1,1s-0.448,1-1,1H8v4h3c0.552,0,1,0.447,1,1s-0.448,1-1,1H8v4c0,1.654,1.346,3,3,3h28c1.654,0,3-1.346,3-3V7C42,5.346,40.654,4,39,4z M29,30.2c-1.2,0-2.1-0.7-2.2-2.2h-0.1c-0.9,1.5-2.1,2.2-3.6,2.2c-1.7,0-3-1.3-3-3.5c0-3.3,2.5-6.3,6.3-6.3c1.199,0,2.399,0.3,3.1,0.6l-0.8,5c-0.3,1.8-0.101,2.6,0.7,2.6c1.3,0.101,2.8-1.6,2.8-4.7c0-3.7-2.3-6.5-6.5-6.5c-4.3,0-7.9,3.3-7.9,8.6c0,4.5,2.9,7.2,6.9,7.2c1.5,0,2.899-0.3,4-0.9l0.5,1.5c-1.601,0.8-3,1-4.9,1c-4.5,0-8.3-3.2-8.3-8.5C16,20.8,19.9,16,26,16c4.7,0,8,3.3,8,7.8C34,27.8,31.8,30.2,29,30.2z"/></svg>