<?xml version="1.0" encoding="utf-8"?><!-- Generator: Adobe Illustrator 18.0.0, SVG Export Plug-In . SVG Version: 6.00 Build 0)  --><!DOCTYPE svg PUBLIC "-//W3C//DTD SVG 1.0//EN" "http://www.w3.org/TR/2001/REC-SVG-20010904/DTD/svg10.dtd"><svg xmlns="http://www.w3.org/2000/svg" xmlns:xlink="http://www.w3.org/1999/xlink" viewBox="0 0 50 50" width="500px" height="500px"><g><path style="fill:none;stroke:#000000;stroke-width:2;stroke-linecap:round;stroke-linejoin:round;stroke-miterlimit:10;" d="M3.6,32.8c0.6,0.9,1.3,1.5,2.2,1.9c0.9,0.4,1.8,0.6,2.8,0.6c0.5,0,1.1-0.1,1.6-0.3c0.6-0.2,1.1-0.4,1.5-0.8c0.5-0.3,0.8-0.7,1.1-1.2c0.3-0.5,0.4-1.1,0.4-1.7c0-0.9-0.3-1.6-0.9-2.1c-0.6-0.5-1.3-0.9-2.2-1.2c-0.9-0.3-1.8-0.6-2.8-0.9c-1-0.3-2-0.7-2.8-1.3c-0.9-0.5-1.6-1.3-2.2-2.2C2,22.8,1.7,21.6,1.7,20c0-0.7,0.2-1.4,0.5-2.2c0.3-0.8,0.8-1.5,1.4-2.1s1.5-1.2,2.5-1.6c1-0.4,2.2-0.7,3.7-0.7c1.3,0,2.5,0.2,3.7,0.5c1.2,0.4,2.2,1.1,3.1,2.2L14,18.5c-0.4-0.6-1-1.1-1.7-1.5c-0.7-0.4-1.6-0.6-2.5-0.6c-0.9,0-1.6,0.1-2.2,0.4s-1.1,0.5-1.4,0.9c-0.4,0.4-0.6,0.8-0.8,1.2c-0.1,0.4-0.2,0.8-0.2,1.2c0,1,0.3,1.8,0.9,2.3c0.6,0.5,1.3,1,2.2,1.3s1.8,0.6,2.8,0.9c1,0.3,2,0.6,2.8,1.1c0.9,0.5,1.6,1.1,2.2,1.9c0.6,0.8,0.9,1.9,0.9,3.4c0,1.1-0.2,2.2-0.7,3.1c-0.4,0.9-1,1.7-1.8,2.3c-0.7,0.6-1.6,1.1-2.6,1.4c-1,0.3-2.1,0.5-3.2,0.5c-1.5,0-3-0.3-4.3-0.8C2.9,37,1.8,36.1,1,35L3.6,32.8z"/><path style="fill:none;stroke:#000000;stroke-width:2;stroke-linecap:round;stroke-linejoin:round;stroke-miterlimit:10;" d="M24.3,14h4.8l7.5,18h0.1l7.5-18H49v23.7h-3.2V18.2h-0.1l-8,19.5h-2.1l-8-19.5h-0.1v19.5h-3.2V14z"/></g></svg>