<?xml version="1.0" encoding="iso-8859-1"?><!-- Generator: Adobe Illustrator 21.0.2, SVG Export Plug-In . SVG Version: 6.00 Build 0)  --><svg xmlns="http://www.w3.org/2000/svg" xmlns:xlink="http://www.w3.org/1999/xlink" viewBox="0 0 50 50" width="500px" height="500px"><polygon points="24,19 28,19 28,17 34,19 30,19 30,21 "/><polygon points="30,29 30,31 34,31 28,33 28,31 24,31 "/><path style="fill:none;stroke:#000000;stroke-width:2;stroke-miterlimit:10;" d="M21,28H11c-1.657,0-3-1.343-3-3s1.343-3,3-3h10v-5H11c-4.4,0-8,3.6-8,8c0,4.4,3.6,8,8,8h10V28z"/><circle style="fill:none;stroke:#000000;stroke-width:2;stroke-miterlimit:10;" cx="42" cy="13" r="3"/><path style="fill:none;stroke:#000000;stroke-width:2;stroke-miterlimit:10;" d="M44,19h-4c-2.2,0-4,1.8-4,4v5.5c0,0.825,0.675,1.5,1.5,1.5s1.5-0.675,1.5-1.5v9c0,0.825,0.675,1.5,1.5,1.5s1.5-0.675,1.5-1.5c0,0.825,0.675,1.5,1.5,1.5s1.5-0.675,1.5-1.5v-9c0,0.825,0.675,1.5,1.5,1.5s1.5-0.675,1.5-1.5V23C48,20.8,46.2,19,44,19z"/><rect x="41" y="30" width="2" height="8"/><rect x="44" y="23" width="2" height="8"/><rect x="38" y="23" width="2" height="8"/><rect x="16" y="17" width="2" height="5"/><rect x="16" y="28" width="2" height="5"/></svg>