<?xml version="1.0" encoding="iso-8859-1"?><!-- Generator: Adobe Illustrator 23.0.2, SVG Export Plug-In . SVG Version: 6.00 Build 0)  --><svg xmlns="http://www.w3.org/2000/svg" xmlns:xlink="http://www.w3.org/1999/xlink" viewBox="0 0 50 50" width="500px" height="500px"><g><path d="M39,34.9c-2.2,0-4,1.8-4,4c0,2.2,1.8,4,4,4s4-1.7,4-4C43,36.7,41.2,34.9,39,34.9z M39,41c-1.1,0-2-0.9-2-2s0.9-2,2-2s2,0.8,2,2C41,40.1,40.1,41,39,41z"/><path d="M50,41v-4.2l-3.2-0.5c-0.1-0.3-0.2-0.7-0.4-1l1.8-2.7l-2.9-2.9L43,31.381V14.59L28.41,0H7v48h23h3l2.4-1.6c0.4,0.2,0.7,0.3,1.1,0.4L37,50h4.1l0.6-3.1c0.3-0.1,0.6-0.2,1-0.4l2.7,1.8l3-3l-1.9-2.6c0.2-0.4,0.3-0.8,0.4-1.1L50,41z M41.71,31.203c-0.003-0.001-0.007-0.002-0.01-0.003l-0.003-0.018L41.71,31.203z M29,14V3.41L39.59,14H29z M45.7,45l-0.6,0.6L42.8,44l-0.5,0.3c-0.6,0.3-1.2,0.5-1.8,0.7l-0.6,0.2L39.4,48h-0.8l-0.4-2.7l-0.6-0.2c-0.6-0.2-1.2-0.4-1.7-0.7L35.3,44l-2.4,1.6L32.3,45l1.6-2.3l-0.3-0.5c-0.3-0.6-0.5-1.3-0.7-1.8l-0.2-0.6L30,39.3v-0.8l2.8-0.5l0.1-0.7c0.1-0.5,0.3-1.1,0.6-1.6l0.4-0.5l-1.6-2.3l0.6-0.6l2.3,1.6l0.5-0.2c0.7-0.3,1.3-0.6,1.9-0.8l0.6-0.1l0.5-2.8h0.8l0.4,2.7l0.6,0.2c0.6,0.2,1.2,0.4,1.7,0.7l0.6,0.4l2.3-1.7l0.5,0.5L44,35.1l0.3,0.5c0.3,0.6,0.5,1.2,0.7,1.8l0.2,0.6l2.8,0.4v0.8l-2.7,0.6l-0.2,0.6c-0.2,0.6-0.4,1.2-0.7,1.7L44,42.7L45.7,45z"/></g></svg>