<?xml version="1.0" encoding="iso-8859-1"?><!-- Generator: Adobe Illustrator 23.0.3, SVG Export Plug-In . SVG Version: 6.00 Build 0)  --><svg xmlns="http://www.w3.org/2000/svg" xmlns:xlink="http://www.w3.org/1999/xlink" viewBox="0 0 50 50" width="500px" height="500px"><g><g><path d="M20.1,46.6c0-3.7,2.4-7.8,2.4-7.8l-1.6-1.3c0-1.2,2.1-2.5,2.1-2.5s2.1,1.3,2.1,2.5l-1.6,1.3c0,0,2.4,4,2.4,7.8H20.1z"/></g></g><polyline style="fill:none;stroke:#000000;stroke-width:2;stroke-linecap:round;stroke-miterlimit:10;" points="18.5,32.9 23,35.4 27.5,32.9 "/><polyline style="fill:none;stroke:#000000;stroke-width:2;stroke-linecap:round;stroke-linejoin:round;stroke-miterlimit:10;" points="23.3,35.4 27,40 30.3,36 "/><polyline style="fill:none;stroke:#000000;stroke-width:2;stroke-linecap:round;stroke-linejoin:round;stroke-miterlimit:10;" points="22.7,35.4 19,40 15.7,36 "/><polyline style="fill:none;stroke:#000000;stroke-width:2;stroke-linejoin:round;stroke-miterlimit:10;" points="45,34 45,37 44,38.5 45,40 45,42 43.5,43.5 45,45 45,47 43,49 41,49 39,47 39,34 "/><path style="fill:none;stroke:#000000;stroke-width:2;stroke-miterlimit:10;" d="M49,28c0-3.9-3.1-7-7-7s-7,3.1-7,7s3.1,7,7,7S49,31.9,49,28z"/><circle cx="42" cy="26" r="2"/><path d="M36,45H5.122c0.734-3.972,4.275-5.375,7.708-6.735c2.737-1.085,5.322-2.109,6.117-4.442l0.045-0.198c0.158-1.258,0.14-2.225,0.121-3.247C19.107,30.034,19.1,29.68,19.1,29.3l-0.063-0.563l-0.429-0.299c-0.391-0.271-1.635-2.266-1.813-4.133l-0.013-0.896h-0.909c-0.142-0.056-0.59-0.53-0.777-1.894c-0.07-0.838,0.359-1.185,0.358-1.185l0.588-0.393l-0.174-0.685c-1.211-4.784-1.011-8.281,0.596-10.396c1.24-1.63,3.412-2.491,6.435-2.56c1.891,0,3.252,0.476,3.736,1.304l0.245,0.419l0.48,0.067c1.332,0.188,2.273,0.766,2.88,1.769c1.449,2.396,0.685,6.877-0.183,9.306l-0.316,0.823l0.792,0.396c0.089,0.063,0.33,0.409,0.27,1.125c-0.134,1.479-0.603,1.874-0.704,1.892h-0.867l-0.123,0.858c-0.275,1.925-1.429,3.899-1.806,4.173L26.8,28.719V29.3c0,1.528,0,2.632,0.102,4.263l0.064,0.295c0.879,2.296,3.456,3.313,6.183,4.39c0.964,0.381,1.935,0.767,2.852,1.211v-2.201c-0.715-0.315-1.431-0.599-2.117-0.87c-2.335-0.922-4.362-1.722-4.996-3.115c-0.079-1.32-0.087-2.301-0.088-3.518c0.868-0.913,1.787-2.825,2.171-4.562c0.718-0.34,1.618-1.224,1.826-3.51c0.094-1.125-0.215-1.952-0.642-2.486c0.849-2.728,1.595-7.402-0.203-10.373c-0.853-1.409-2.153-2.296-3.869-2.639C27.117,4.965,25.3,4.3,22.879,4.3c0,0-0.001,0-0.001,0c-3.685,0.083-6.377,1.21-8.004,3.349c-1.926,2.534-2.288,6.417-1.078,11.548c-0.413,0.531-0.784,1.38-0.687,2.538c0.295,2.165,1.119,3.055,1.789,3.418c0.338,1.803,1.321,3.709,2.205,4.61c0.002,0.224,0.006,0.439,0.01,0.651c0.018,0.957,0.033,1.789-0.092,2.852c-0.548,1.403-2.582,2.21-4.928,3.14c-3.902,1.546-8.758,3.471-9.092,9.54L2.943,47H36V45z"/></svg>