<?xml version="1.0" encoding="utf-8"?><!-- Generator: Adobe Illustrator 15.0.0, SVG Export Plug-In . SVG Version: 6.00 Build 0)  --><!DOCTYPE svg PUBLIC "-//W3C//DTD SVG 1.1//EN" "http://www.w3.org/Graphics/SVG/1.1/DTD/svg11.dtd"><svg xmlns="http://www.w3.org/2000/svg" xmlns:xlink="http://www.w3.org/1999/xlink" viewBox="0 0 50 50" width="500px" height="500px"><path d="M38,22c-5.676,0-12-4.312-12-10.5C26,7.44,29.258,1,38,1c7.512,0,12,5.339,12,10.5C50,18.351,43.031,22,38,22z"/><path d="M29,35c-1.683,0-3-1.098-3-2.5s1.317-2.5,3-2.5s3,1.098,3,2.5S30.683,35,29,35z"/><path d="M34,30c-2.206,0-4-1.57-4-3.5s1.794-3.5,4-3.5s4,1.57,4,3.5S36.206,30,34,30z"/><path d="M34.063,50H-0.063l0.064-1.061c0.313-5.184,4.462-6.806,7.795-8.108c1.852-0.724,3.603-1.409,4.11-2.512c0.078-0.931,0.071-1.659,0.064-2.495l-0.002-0.329c-0.769-0.805-1.542-2.39-1.841-3.813c-0.617-0.345-1.347-1.143-1.57-2.98c-0.113-0.94,0.155-1.672,0.533-2.164c-1.017-4.25-0.703-7.498,0.936-9.659c1.403-1.852,3.717-2.82,6.876-2.878c2.066,0,3.617,0.549,4.453,1.557c1.464,0.301,2.58,1.055,3.318,2.246c1.721,2.774,0.762,7.036,0.26,8.767c0.365,0.491,0.619,1.212,0.508,2.131c-0.223,1.842-0.953,2.639-1.57,2.982c-0.284,1.363-1.002,2.989-1.797,3.817l-0.001,0.33c-0.008,0.835-0.014,1.562,0.063,2.489c0.507,1.104,2.251,1.788,4.095,2.512c3.321,1.304,7.454,2.926,7.767,8.108L34.063,50z"/></svg>