<?xml version="1.0" encoding="iso-8859-1"?><!-- Generator: Adobe Illustrator 21.1.0, SVG Export Plug-In . SVG Version: 6.00 Build 0)  --><svg xmlns="http://www.w3.org/2000/svg" xmlns:xlink="http://www.w3.org/1999/xlink" viewBox="0 0 50 50" width="500px" height="500px"><circle fill="none" stroke="#000000" stroke-width="2" stroke-linecap="round" stroke-miterlimit="10" cx="25" cy="5" r="2"/><circle fill="none" stroke="#000000" stroke-width="2" stroke-linecap="round" stroke-miterlimit="10" cx="7" cy="14" r="2"/><circle fill="none" stroke="#000000" stroke-width="2" stroke-linecap="round" stroke-miterlimit="10" cx="25" cy="45" r="2"/><path d="M33,17H17c-0.552,0-1,0.448-1,1v14c0,0.553,0.448,1,1,1h16c0.553,0,1-0.447,1-1V18C34,17.448,33.553,17,33,17z M27,23h-4c-0.552,0-1-0.448-1-1s0.448-1,1-1h4c0.553,0,1,0.448,1,1S27.553,23,27,23z"/><circle fill="none" stroke="#000000" stroke-width="2" stroke-linecap="round" stroke-miterlimit="10" cx="43" cy="14" r="2"/><circle fill="none" stroke="#000000" stroke-width="2" stroke-linecap="round" stroke-miterlimit="10" cx="7" cy="36" r="2"/><circle fill="none" stroke="#000000" stroke-width="2" stroke-linecap="round" stroke-miterlimit="10" cx="43" cy="36" r="2"/><g><path d="M8.315,16.181L14,19.863V18c0-0.143,0.023-0.281,0.042-0.419l-4.733-3.137c-0.479-0.274-1.091-0.108-1.365,0.371C7.67,15.295,7.836,15.906,8.315,16.181z"/><path d="M26,15V7c0-0.553-0.448-1-1-1s-1,0.447-1,1v8H26z"/><path d="M36,18v1.863l5.685-3.682c0.479-0.274,0.645-0.886,0.371-1.365c-0.274-0.479-0.885-0.646-1.365-0.371l-4.733,3.137C35.977,17.719,36,17.857,36,18z"/><path d="M41.685,33.819L36,30.137V32c0,0.143-0.023,0.281-0.042,0.419l4.733,3.137c0.157,0.09,0.328,0.132,0.496,0.132c0.347,0,0.684-0.181,0.869-0.503C42.33,34.705,42.164,34.094,41.685,33.819z"/><path d="M14,32v-1.863l-5.685,3.682c-0.479,0.274-0.645,0.886-0.371,1.365c0.185,0.322,0.522,0.503,0.869,0.503c0.168,0,0.339-0.042,0.496-0.132l4.733-3.137C14.023,32.281,14,32.143,14,32z"/><path d="M24,35v8c0,0.553,0.448,1,1,1s1-0.447,1-1v-8H24z"/></g></svg>