<?xml version="1.0" encoding="utf-8"?><!-- Generator: Adobe Illustrator 18.1.1, SVG Export Plug-In . SVG Version: 6.00 Build 0)  --><svg xmlns="http://www.w3.org/2000/svg" xmlns:xlink="http://www.w3.org/1999/xlink" viewBox="0 0 50 50" width="500px" height="500px"><path fill="none" stroke="#000000" stroke-width="2" stroke-linecap="round" stroke-miterlimit="10" d="M9,47c-1.1,0-2-0.9-2-2V21c0-1.1,0.9-2,2-2h32c1.1,0,2,0.9,2,2v24c0,1.1-0.9,2-2,2H9z"/><path fill="none" stroke="#000000" stroke-width="2" stroke-linecap="round" stroke-miterlimit="10" d="M36,19c0,0,0-4.9,0-6c0-6.1-4.9-11-11-11c-6.1,0-11,4.9-11,11c0,1.1,0,6,0,6"/><circle fill="none" stroke="#000000" stroke-width="2" stroke-linecap="round" stroke-miterlimit="10" cx="25" cy="33" r="7"/><path d="M27,33c-1.1,0-2-0.9-2-2c0-0.8,0.5-1.5,1.2-1.8C25.8,29.1,25.4,29,25,29c-2.2,0-4,1.8-4,4c0,2.2,1.8,4,4,4s4-1.8,4-4c0-0.4-0.1-0.8-0.2-1.2C28.5,32.5,27.8,33,27,33z"/></svg>