<?xml version="1.0" encoding="iso-8859-1"?><!-- Generator: Adobe Illustrator 21.1.0, SVG Export Plug-In . SVG Version: 6.00 Build 0)  --><svg xmlns="http://www.w3.org/2000/svg" xmlns:xlink="http://www.w3.org/1999/xlink" viewBox="0 0 50 50" width="500px" height="500px"><g></g><line style="fill:none;stroke:#000000;stroke-width:2;stroke-miterlimit:10;" x1="11" y1="13" x2="28" y2="13"/><line style="fill:none;stroke:#000000;stroke-width:2;stroke-miterlimit:10;" x1="11" y1="18" x2="28" y2="18"/><line style="fill:none;stroke:#000000;stroke-width:2;stroke-miterlimit:10;" x1="11" y1="23" x2="23" y2="23"/><path style="fill:none;stroke:#000000;stroke-width:2;stroke-miterlimit:10;" d="M19.546,4C10.446,4,3,10.571,3,18.715c0,4.113,1.888,7.861,4.946,10.539l-0.224,1.059c-0.783,2.336-2.671,3.624-3.922,4.076c-0.829,0.3-0.927,0.79-0.65,1.067c0.532,0.532,1.405,0.536,2.274,0.546c2.874,0.033,6.709-1.599,8.979-2.732l1.146-0.662l0.076,0.023C16.82,32.907,18.107,33,19.394,33c8.029,0,14.818-4.781,16.304-11.5C35.896,20.604,36,19.673,36,18.715C36,10.571,28.646,4,19.546,4z"/><path d="M47.955,44.788c-0.169-0.715-0.826-1.069-1.735-1.56c-0.896-0.483-2.071-1.117-2.621-2.067c2.799-2.311,4.388-5.425,4.388-8.65c0-4.905-3.671-9.284-9.202-11.316c-0.05,0.319-0.087,0.641-0.157,0.955c-0.077,0.347-0.18,0.683-0.279,1.021c4.602,1.776,7.637,5.361,7.637,9.34c0,2.854-1.487,5.524-4.189,7.521l-0.543,0.401l0.17,0.654c0.537,2.067,2.428,3.136,3.738,3.844c-2.077,0.284-6.583-0.183-8.849-2.864l-0.381-0.452l-0.579,0.116C34.445,41.912,33.389,42,32.125,42c-6.22,0-11.268-2.409-13.234-6.017c-0.813-0.015-1.571-0.068-2.28-0.156C18.464,40.742,24.429,44,32.125,44c1.151,0,2.158-0.069,3.059-0.209c2.206,2.236,5.805,3.205,8.717,3.205c0.193,0,0.384-0.004,0.57-0.013c1.69-0.077,2.793-0.467,3.278-1.16C47.967,45.512,48.04,45.145,47.955,44.788z"/><path d="M34.361,30H39v-2h-2.986C35.515,28.704,34.966,29.374,34.361,30z"/><path d="M26.096,35H39v-2h-8.413C29.209,33.829,27.701,34.502,26.096,35z"/></svg>