<?xml version="1.0" encoding="utf-8"?><!-- Generator: Adobe Illustrator 19.1.1, SVG Export Plug-In . SVG Version: 6.00 Build 0)  --><svg xmlns="http://www.w3.org/2000/svg" xmlns:xlink="http://www.w3.org/1999/xlink" viewBox="0 0 50 50" width="500px" height="500px"><polyline fill="none" stroke="#000000" stroke-width="4" stroke-linecap="round" stroke-linejoin="round" stroke-miterlimit="10" points="46,9 15,42 4,42 "/><polyline fill="none" stroke="#000000" stroke-width="4" stroke-linecap="round" stroke-linejoin="round" stroke-miterlimit="10" points="4,9 35,42 46,42 "/><circle cx="46" cy="25" r="1"/><circle cx="43" cy="25" r="1"/><circle cx="40" cy="25" r="1"/><circle cx="10" cy="25" r="1"/><circle cx="7" cy="25" r="1"/><circle cx="4" cy="25" r="1"/><path d="M12,25c0,0.6,0.4,1,1,1c0.4,0,0.8-0.2,0.9-0.6l-1.2-1.3C12.3,24.2,12,24.6,12,25z"/><path d="M37,26c0.6,0,1-0.4,1-1c0-0.4-0.3-0.8-0.7-0.9l-1.2,1.3C36.2,25.8,36.6,26,37,26z"/><path d="M25,25.5l0.9-0.9C25.7,24.2,25.4,24,25,24s-0.7,0.2-0.9,0.6L25,25.5z"/></svg>