<?xml version="1.0" encoding="iso-8859-1"?><!-- Generator: Adobe Illustrator 21.1.0, SVG Export Plug-In . SVG Version: 6.00 Build 0)  --><svg xmlns="http://www.w3.org/2000/svg" xmlns:xlink="http://www.w3.org/1999/xlink" viewBox="0 0 50 50" width="500px" height="500px"><path style="fill:none;stroke:#000000;stroke-width:2;stroke-linejoin:round;stroke-miterlimit:10;" d="M31,11H19c-0.6,0-1-0.4-1-1V4c0-0.6,0.4-1,1-1h12c0.6,0,1,0.4,1,1v6C32,10.6,31.6,11,31,11z"/><polygon points="32,8 32,10 38,10 38,42 12,42 12,10 18,10 18,8 10,8 10,44 40,44 40,8 "/><path d="M41,4h-9v2h9c0.551,0,1,0.448,1,1v38c0,0.552-0.449,1-1,1H9c-0.551,0-1-0.448-1-1V7c0-0.552,0.449-1,1-1h9V4H9C7.346,4,6,5.346,6,7v38c0,1.654,1.346,3,3,3h32c1.388,0,2.559-0.947,2.9-2.229C43.965,45.525,44,45.266,44,45V7C44,5.346,42.654,4,41,4z"/><polyline style="fill:none;stroke:#000000;stroke-width:2;stroke-linecap:round;stroke-miterlimit:10;" points="16,25.916 23.714,33 34,18 "/></svg>