<?xml version="1.0" encoding="iso-8859-1"?><!-- Generator: Adobe Illustrator 19.1.0, SVG Export Plug-In . SVG Version: 6.00 Build 0)  --><svg xmlns="http://www.w3.org/2000/svg" xmlns:xlink="http://www.w3.org/1999/xlink" viewBox="0 0 50 50" width="500px" height="500px"><path style="fill:none;stroke:#000000;stroke-width:2;stroke-linecap:round;stroke-linejoin:round;stroke-miterlimit:10;" d="M22,31c0-4.045-3-5.23-3-9c0-3.314,2.686-6,6-6s6,2.686,6,6c0,3.689-3,4.955-3,9"/><path style="fill:none;stroke:#000000;stroke-width:2;stroke-linecap:round;stroke-linejoin:round;stroke-miterlimit:10;" d="M45.375,22.029h-1.627c-0.848,0-1.25-0.377-1.313-0.762c-0.443-2.789-2.255-6.413-6.808-8.003c-0.044-2.523,0.518-4.343,1.615-7.304c-2.547,0.639-5.361,2.026-7.027,5.7c-1.877-0.46-3.883-0.707-5.978-0.707c-5.485,0-9.622,1.664-12.934,4.242c-2.991,2.329-4.87,6.229-4.647,11.549c0.168,4.013,2.963,7.075,5.107,8.79c0.309,0.244,0.925,0.635,0.602,1.632c-0.323,0.995-0.903,2.383-0.903,2.383c-0.338,0.886,0.111,1.882,0.996,2.218l3.218,1.216c0.886,0.337,1.881-0.11,2.218-0.997c0,0,0.428-1.115,0.776-2.044c0.661-1.748,1.065-0.33,5.566-0.33c4.677,0,5.149-0.913,5.638,0.52c0.313,0.934,0.703,1.854,0.703,1.854c0.334,0.887,1.33,1.334,2.219,0.997l3.214-1.216c0.888-0.336,1.338-1.332,0.999-2.218l-0.516-1.365c0,0-0.525-0.9,0.6-1.51c2.242-1.22,3.932-3.072,5.028-5.358c0.233-0.49,0.577-1.156,1.626-1.156h1.627c0.895,0,1.625-0.729,1.625-1.624v-4.879C47,22.761,46.27,22.029,45.375,22.029z"/><path style="fill:none;stroke:#000000;stroke-width:2;stroke-linecap:round;stroke-linejoin:round;stroke-miterlimit:10;" d="M6.826,21.096c0,0-3.826-0.876-3.826-4.327c0-1.415,0.714-2.717,1.963-3.256"/><path style="fill:none;stroke:#000000;stroke-width:2;stroke-linecap:round;stroke-linejoin:round;stroke-miterlimit:10;" d="M26,34h-2c-1.105,0-2-0.895-2-2v-1h6v1C28,33.105,27.105,34,26,34z"/><circle cx="25" cy="35" r="1"/><polyline style="fill:none;stroke:#000000;stroke-width:2;stroke-linecap:round;stroke-linejoin:round;stroke-miterlimit:10;" points="27,23 27,22 23,22 23,23 "/></svg>