<?xml version="1.0" encoding="iso-8859-1"?><!-- Generator: Adobe Illustrator 21.1.0, SVG Export Plug-In . SVG Version: 6.00 Build 0)  --><svg xmlns="http://www.w3.org/2000/svg" xmlns:xlink="http://www.w3.org/1999/xlink" viewBox="0 0 50 50" width="500px" height="500px"><circle style="fill:none;stroke:#000000;stroke-width:2;stroke-miterlimit:10;" cx="25" cy="5" r="3"/><circle style="fill:none;stroke:#000000;stroke-width:2;stroke-miterlimit:10;" cx="40" cy="40" r="9"/><line style="fill:none;stroke:#000000;stroke-width:2;stroke-miterlimit:10;" x1="40" y1="35" x2="40" y2="45"/><line style="fill:none;stroke:#000000;stroke-width:2;stroke-miterlimit:10;" x1="35" y1="40" x2="45" y2="40"/><path d="M36,19c0,3.767,0.367,6.854,1.098,9.368c0.645-0.16,1.308-0.271,1.989-0.322C38.368,25.677,38,22.653,38,19c0-6.857-4.048-11.766-10.565-12.811l-0.316,1.975C32.68,9.056,36,13.107,36,19z"/><path d="M28,40c0-0.015,0.002-0.029,0.002-0.043C27.04,39.984,26.043,40,25,40C9.226,40,8,36.938,8,36c0-0.235,0.252-0.49,0.871-1.058C10.664,33.296,14,30.233,14,19c0-5.832,3.271-9.875,8.749-10.813l-0.338-1.972C15.989,7.316,12,12.215,12,19c0,10.354-2.806,12.93-4.482,14.469C6.737,34.186,6,34.863,6,36c0,4.038,6.215,6,19,6c1.102,0,2.158-0.017,3.173-0.047C28.068,41.316,28,40.667,28,40z"/><path d="M28.784,44.237C28.26,45.835,26.771,47,25,47c-2.206,0-4-1.794-4-4c0-0.52,0.098-1.024,0.291-1.499l-1.854-0.752C19.147,41.463,19,42.221,19,43c0,3.309,2.691,6,6,6c2.021,0,3.808-1.007,4.896-2.543C29.451,45.762,29.08,45.019,28.784,44.237z"/></svg>