<?xml version="1.0" encoding="iso-8859-1"?><!-- Generator: Adobe Illustrator 21.1.0, SVG Export Plug-In . SVG Version: 6.00 Build 0)  --><svg xmlns="http://www.w3.org/2000/svg" xmlns:xlink="http://www.w3.org/1999/xlink" viewBox="0 0 50 50" width="500px" height="500px"><circle style="fill:none;stroke:#000000;stroke-width:2;stroke-linecap:round;stroke-miterlimit:10;" cx="25" cy="25" r="22"/><circle style="fill:none;stroke:#000000;stroke-width:2;stroke-linecap:round;stroke-miterlimit:10;" cx="25" cy="25" r="8"/><path style="fill:none;stroke:#000000;stroke-width:2;stroke-linecap:round;stroke-miterlimit:10;" d="M25,3v14"/><line style="fill:none;stroke:#000000;stroke-width:2;stroke-linecap:round;stroke-miterlimit:10;" x1="33.051" y1="5.085" x2="25.159" y2="12.978"/><line style="fill:none;stroke:#000000;stroke-width:2;stroke-linecap:round;stroke-miterlimit:10;" x1="28.74" y1="3.396" x2="25.363" y2="6.774"/><line style="fill:none;stroke:#000000;stroke-width:2;stroke-linecap:round;stroke-miterlimit:10;" x1="37.347" y1="6.79" x2="27.032" y2="17.105"/><path style="fill:none;stroke:#000000;stroke-width:2;stroke-linecap:round;stroke-miterlimit:10;" d="M31,19.231l9.846-9.468"/><line style="fill:none;stroke:#000000;stroke-width:2;stroke-linecap:round;stroke-miterlimit:10;" x1="31.001" y1="31.001" x2="40.308" y2="40.308"/><g><circle cx="45" cy="34" r="1"/><circle cx="45" cy="28" r="1"/><circle cx="45" cy="22" r="1"/><circle cx="45" cy="16" r="1"/><circle cx="42" cy="37" r="1"/><circle cx="42" cy="31" r="1"/><circle cx="42" cy="25" r="1"/><circle cx="42" cy="19" r="1"/><circle cx="36" cy="25" r="1"/><circle cx="36" cy="19" r="1"/><circle cx="42" cy="13" r="1"/><circle cx="39" cy="34" r="1"/><circle cx="39" cy="28" r="1"/><circle cx="39" cy="22" r="1"/><circle cx="33" cy="28" r="1"/><circle cx="33" cy="22" r="1"/><circle cx="39" cy="16" r="1"/><circle cx="36" cy="31" r="1"/></g></svg>