<?xml version="1.0" encoding="iso-8859-1"?><!-- Generator: Adobe Illustrator 23.0.3, SVG Export Plug-In . SVG Version: 6.00 Build 0)  --><svg xmlns="http://www.w3.org/2000/svg" xmlns:xlink="http://www.w3.org/1999/xlink" viewBox="0 0 50 50" width="500px" height="500px"><line style="fill:none;stroke:#000000;stroke-width:2;stroke-miterlimit:10;" x1="25" y1="29" x2="25" y2="49"/><g><path d="M48.302,31.944C44.971,30.693,41.269,30,38.9,30c-7.3,0-9.9,4.4-9.9,7.1c0,0.909,0.206,1.64,0.591,2.16c3.736-2.724,8.6-4.338,12.166-5.23c0.535-0.133,1.079,0.192,1.213,0.728c0.134,0.536-0.192,1.079-0.728,1.213c-3.332,0.833-7.901,2.33-11.346,4.801C30.793,43.131,33.279,47,38,47c7.895,0,8.619-9.901,10.848-13.526C49.195,32.911,48.921,32.176,48.302,31.944z"/><path d="M29.591,39.26C26.379,41.602,24,44.764,24,49c0,0.552,0.448,1,1,1s1-0.448,1-1c0-3.518,2.07-6.201,4.897-8.229C30.647,40.529,30,40,29.591,39.26z"/></g><g><path d="M1.698,31.944C5.029,30.693,8.731,30,11.1,30c7.3,0,9.9,4.4,9.9,7.1c0,0.909-0.206,1.64-0.591,2.16c-3.736-2.724-8.6-4.338-12.166-5.23c-0.535-0.133-1.079,0.192-1.213,0.728c-0.134,0.536,0.192,1.079,0.728,1.213c3.332,0.833,7.901,2.33,11.346,4.801C19.207,43.131,16.721,47,12,47c-7.895,0-8.619-9.901-10.848-13.526C0.805,32.911,1.079,32.176,1.698,31.944z"/><path d="M20.409,39.26C23.621,41.602,26,44.764,26,49c0,0.552-0.448,1-1,1s-1-0.448-1-1c0-3.518-2.07-6.201-4.897-8.229C19.353,40.529,20,40,20.409,39.26z"/></g><path d="M25,2c-7.732,0-14,6.268-14,14s6.268,14,14,14s14-6.268,14-14S32.732,2,25,2z M26,24.942V27h-2v-2.07c-3.92-0.513-5-4.01-5-5.93h2c0.003,0.405,0.147,4,4,4c3.955,0,4-2.877,4-3c0-1.996-1.523-2.657-4.01-3.569C22.767,15.615,20,14.6,20,11.488c0-1.411,0.872-3.958,4-4.411V5h2v2.086c3.128,0.504,4,3.342,4,4.914h-1l-1,0.005C27.994,11.503,27.823,9,25,9c-2.916,0-3,2.233-3,2.488c0,1.633,1.398,2.229,3.679,3.066C28.05,15.423,31,16.506,31,20C31,21.6,29.92,24.515,26,24.942z"/></svg>