<?xml version="1.0" encoding="iso-8859-1"?>
<!-- Generator: Adobe Illustrator 23.0.3, SVG Export Plug-In . SVG Version: 6.00 Build 0)  -->
<svg version="1.1" xmlns="http://www.w3.org/2000/svg" xmlns:xlink="http://www.w3.org/1999/xlink" x="0px" y="0px"
	 viewBox="0 0 50 50" style="enable-background:new 0 0 50 50;" xml:space="preserve">
<g id="filled">
</g>
<g id="outlined">
</g>
<g id="rounded">
</g>
<g id="two_x5F_tone">
</g>
<g id="sharp">
</g>
<g id="win10">
</g>
<g id="ios_x5F_out">
	<path d="M22.03,24.86l-3.02-3.02l1.64,4.55h-4.32l1.92-5.31l-1.36-1.36l-4.6,12.15L12.23,32h2.08l1.42-3.95h5.51L22.67,32h2.07
		L22.03,24.86z"/>
	<path d="M30.96,18H26v5.17l1.97,1.97v-5.39h2.88c3.07,0,4.9,1.97,4.9,5.27c0,2.56-1.06,4.28-2.97,4.93l1.41,1.41
		c2.28-1.01,3.57-3.24,3.57-6.36C37.76,20.62,35.22,18,30.96,18z M26,32h3.17L26,28.83V32z"/>
	<circle style="fill:none;stroke:#000000;stroke-width:2;stroke-linejoin:round;stroke-miterlimit:10;" cx="25" cy="25" r="21"/>
	<path style="fill:none;stroke:#000000;stroke-width:2;stroke-linejoin:round;stroke-miterlimit:10;" d="M42,25
		c0,3.973-1.374,7.619-3.658,10.514L14.486,11.658C17.381,9.374,21.027,8,25,8C34.389,8,42,15.611,42,25z"/>
	<path style="fill:none;stroke:#000000;stroke-width:2;stroke-linejoin:round;stroke-miterlimit:10;" d="M8,25
		c0-3.973,1.374-7.619,3.658-10.514l23.856,23.856C32.619,40.626,28.973,42,25,42C15.611,42,8,34.389,8,25z"/>
</g>
<g id="ios_x5F_filled">
</g>
<g id="color">
</g>
</svg>