<?xml version="1.0" encoding="iso-8859-1"?><!-- Generator: Adobe Illustrator 21.1.0, SVG Export Plug-In . SVG Version: 6.00 Build 0)  --><svg xmlns="http://www.w3.org/2000/svg" xmlns:xlink="http://www.w3.org/1999/xlink" viewBox="0 0 50 50" width="500px" height="500px"><path d="M47,44h-6c-0.553,0-1-0.448-1-1V7c0-0.552,0.447-1,1-1h6c0.553,0,1,0.448,1,1v36C48,43.552,47.553,44,47,44z"/><path d="M37.765,6.356C37.574,6.13,37.295,6,37,6h-6.013c-0.484,0-0.867,0.35-0.961,0.805C30.021,6.82,30.003,6.828,30,6.844L27,27L23,6.793c-0.003-0.015-0.021-0.022-0.028-0.036C22.861,6.325,22.488,6,22.021,6h-4.043c-0.467,0-0.841,0.326-0.951,0.758C17.021,6.772,17.003,6.779,17,6.794L13,27L10,6.844C9.997,6.828,9.979,6.82,9.973,6.805C9.88,6.35,9.496,6,9.013,6H3C2.705,6,2.426,6.13,2.235,6.356C2.046,6.581,1.965,6.879,2.015,7.169l6.977,36C9.073,43.649,9.489,44,9.977,44H16c0.477,0,0.857-0.341,0.957-0.788l0.019,0.004L20,27l3.023,16.217l0.019-0.004C23.143,43.659,23.523,44,24,44h6.023c0.487,0,0.903-0.351,0.985-0.831l6.977-36C38.035,6.879,37.954,6.581,37.765,6.356z"/></svg>