<?xml version="1.0" encoding="iso-8859-1"?><!-- Generator: Adobe Illustrator 23.0.3, SVG Export Plug-In . SVG Version: 6.00 Build 0)  --><svg xmlns="http://www.w3.org/2000/svg" xmlns:xlink="http://www.w3.org/1999/xlink" viewBox="0 0 50 50" width="500px" height="500px"><circle style="fill:none;stroke:#000000;stroke-width:2;stroke-miterlimit:10;" cx="39.113" cy="39" r="10"/><path d="M39.48,38.421c-1.41-0.332-2.207-0.565-2.207-1.48c0-1.095,0.591-1.605,1.86-1.605c1.47,0,1.791,0.989,1.803,1.818l0.007,0.464h1.77l0.03-0.439c0.055-0.824-0.273-1.743-0.855-2.397c-0.492-0.551-1.14-0.904-1.889-1.03V32h-1.776v1.75c-2.679,0.4-2.759,2.812-2.759,3.095c0,2.476,1.954,2.924,3.525,3.284c1.41,0.324,2.207,0.555,2.207,1.527c0,0.583-0.272,1.562-2.092,1.562c-0.04,0-0.985-0.007-1.578-0.615c-0.35-0.359-0.519-0.877-0.502-1.54l0.012-0.483h-1.833l0.013,0.484c0.059,2.136,1.043,3.347,3.006,3.694V46h1.776v-1.219c2.857-0.431,3.006-2.679,3.006-3.139C43.005,39.251,41.05,38.791,39.48,38.421z"/><path d="M27.113,44H4.178c0.732-3.982,4.265-5.385,7.689-6.745c2.009-0.798,3.932-1.567,5.14-2.844C18.065,35.373,19.911,36,22.057,36c1.761,0,3.365-0.474,4.473-1.207c0.15-0.091,0.271-0.166,0.379-0.237c0.304-0.833,0.688-1.626,1.148-2.369v-3.44c0.845-0.916,1.69-2.827,2.001-4.569c0.712-0.35,1.591-1.24,1.795-3.495c0.094-1.125-0.215-1.952-0.642-2.486c0.849-2.728,1.595-6.702-0.203-9.673c-0.853-1.409-2.153-2.296-3.869-2.639C26.174,4.665,24.357,4,21.936,4c0,0-0.001,0-0.001,0c-3.685,0.083-6.377,1.21-8.004,3.349c-1.926,2.534-2.288,5.717-1.078,10.848c-0.413,0.531-0.784,1.38-0.687,2.538c0.295,2.164,1.118,3.054,1.788,3.418c0.318,1.719,1.219,3.673,2.103,4.603v3.553c-0.612,1.375-2.618,2.171-4.927,3.089c-3.893,1.546-8.737,3.47-9.071,9.549L2,46h26.17C27.765,45.367,27.406,44.702,27.113,44z M15.852,23.306l-0.013-0.896H14.93c-0.142-0.056-0.59-0.53-0.777-1.894c-0.07-0.838,0.359-1.185,0.358-1.185l0.588-0.393l-0.174-0.685c-1.211-4.784-1.011-7.581,0.596-9.695c1.24-1.63,3.412-2.491,6.435-2.56c1.891,0,3.252,0.476,3.736,1.304l0.245,0.419l0.48,0.067c1.332,0.188,2.273,0.766,2.88,1.769c1.449,2.396,0.685,6.177-0.183,8.605l-0.316,0.823l0.792,0.396c0.089,0.063,0.33,0.409,0.27,1.125c-0.134,1.479-0.603,1.874-0.704,1.892h-0.909l-0.086,0.905c-0.181,1.896-1.239,3.854-1.6,4.126l-0.504,0.287V32.5c-0.017,0.373-1.463,1.5-4,1.5c-2.489,0-4-1.042-4-1.5v-4.2l0.016-0.571l-0.505-0.287C17.203,27.179,16.032,25.195,15.852,23.306z"/></svg>