<?xml version="1.0" encoding="iso-8859-1"?><!-- Generator: Adobe Illustrator 21.1.0, SVG Export Plug-In . SVG Version: 6.00 Build 0)  --><svg xmlns="http://www.w3.org/2000/svg" xmlns:xlink="http://www.w3.org/1999/xlink" viewBox="0 0 50 50" width="500px" height="500px"><g></g><path style="fill:none;stroke:#000000;stroke-width:2;stroke-miterlimit:10;" d="M7,31c0-4,5.317-3.249,6.026-5.222C13.085,25.103,13,24.616,13,24c-0.295-0.16-0.783-1.166-0.871-2.03c-0.234-0.019-0.596-0.253-0.705-1.179c-0.059-0.497,0.172-0.776,0.31-0.864c-0.784-3.128-0.353-5.859,3.23-5.927c0.894,0,1.582,0.248,1.851,0.737c2.613,0.376,1.828,4.014,1.452,5.19c0.139,0.088,0.368,0.367,0.31,0.864c-0.108,0.926-0.473,1.16-0.705,1.179C17.781,22.835,17.294,23.84,17,24c0,0.616-0.064,1.104-0.005,1.779C17.703,27.751,23,27,23,31H7z"/><path d="M45,7H5c-1.654,0-3,1.346-3,3v30c0,1.654,1.346,3,3,3h6c0.552,0,1-0.448,1-1v-1.5c0-0.297-0.132-0.578-0.36-0.768c-0.29-0.242-0.754-0.758-0.614-1.505c0.123-0.656,0.71-1.182,1.366-1.223c0.439-0.032,0.841,0.113,1.143,0.396c0.3,0.282,0.465,0.672,0.465,1.1c0,0.607-0.401,1.033-0.64,1.232C13.132,39.922,13,40.203,13,40.5V42c0,0.552,0.448,1,1,1h22c0.552,0,1-0.448,1-1v-1.5c0-0.297-0.132-0.578-0.36-0.768c-0.29-0.242-0.754-0.758-0.614-1.505c0.123-0.656,0.71-1.182,1.366-1.223c0.439-0.032,0.841,0.113,1.143,0.396c0.3,0.282,0.465,0.672,0.465,1.1c0,0.607-0.401,1.033-0.64,1.232C38.132,39.922,38,40.203,38,40.5V42c0,0.552,0.448,1,1,1h6c1.654,0,3-1.346,3-3V10C48,8.346,46.654,7,45,7z M46,40c0,0.552-0.449,1-1,1h-5v-0.069c0.648-0.683,1-1.531,1-2.431c0-0.986-0.389-1.895-1.096-2.558c-0.709-0.666-1.642-0.993-2.638-0.935c-1.566,0.1-2.914,1.298-3.206,2.851c-0.211,1.124,0.13,2.222,0.94,3.074V41H15v-0.069c0.648-0.683,1-1.531,1-2.431c0-0.986-0.389-1.895-1.096-2.558c-0.709-0.666-1.642-0.993-2.638-0.935c-1.566,0.1-2.914,1.298-3.206,2.851C8.849,38.982,9.19,40.08,10,40.932V41H5c-0.551,0-1-0.449-1-1V10c0-0.551,0.449-1,1-1h40c0.551,0,1,0.449,1,1V40z"/><rect x="28" y="20" style="fill:none;stroke:#000000;stroke-width:2;stroke-miterlimit:10;" width="15" height="11"/><polyline style="fill:none;stroke:#000000;stroke-width:2;stroke-miterlimit:10;" points="28,21 35.5,24.875 43,21 "/></svg>