<?xml version="1.0" encoding="iso-8859-1"?><!-- Generator: Adobe Illustrator 19.1.0, SVG Export Plug-In . SVG Version: 6.00 Build 0)  --><svg xmlns="http://www.w3.org/2000/svg" xmlns:xlink="http://www.w3.org/1999/xlink" viewBox="0 0 50 50" width="500px" height="500px"><rect x="8" y="4" style="fill:none;stroke:#000000;stroke-width:2;stroke-linejoin:round;stroke-miterlimit:10;" width="34" height="42"/><path style="fill:none;stroke:#000000;stroke-width:2;stroke-linecap:round;stroke-linejoin:round;stroke-miterlimit:10;" d="M26,27c0-4.045-3-5.23-3-9c0-3.314,2.686-6,6-6s6,2.686,6,6c0,3.689-3,4.955-3,9"/><path style="fill:none;stroke:#000000;stroke-width:2;stroke-linecap:round;stroke-linejoin:round;stroke-miterlimit:10;" d="M30,30h-2c-1.105,0-2-0.895-2-2v-1h6v1C32,29.105,31.105,30,30,30z"/><circle cx="29" cy="31" r="1"/><polyline style="fill:none;stroke:#000000;stroke-width:2;stroke-linecap:round;stroke-linejoin:round;stroke-miterlimit:10;" points="31,19 31,18 27,18 27,19 "/><line style="fill:none;stroke:#000000;stroke-width:2;stroke-linecap:round;stroke-linejoin:round;stroke-miterlimit:10;" x1="33" y1="37" x2="25" y2="37"/><polygon points="35,37 32,40 32,34 "/><polygon points="23,37 26,34 26,40 "/><line style="fill:none;stroke:#000000;stroke-width:2;stroke-linecap:round;stroke-linejoin:round;stroke-miterlimit:10;" x1="16" y1="30" x2="16" y2="13"/><polygon points="16,32 13,29 19,29 "/><polygon points="16,11 19,14 13,14 "/></svg>