<?xml version="1.0" encoding="iso-8859-1"?><!-- Generator: Adobe Illustrator 19.1.1, SVG Export Plug-In . SVG Version: 6.00 Build 0)  --><svg xmlns="http://www.w3.org/2000/svg" xmlns:xlink="http://www.w3.org/1999/xlink" viewBox="0 0 50 50" width="500px" height="500px"><g ><path d="M44.2,37.2L41.4,40l2.8,2.8c0.4,0.4,0.4,1,0,1.4c-0.2,0.2-0.5,0.3-0.7,0.3s-0.5-0.1-0.7-0.3L40,41.4l-2.8,2.8c-0.2,0.2-0.5,0.3-0.7,0.3s-0.5-0.1-0.7-0.3c-0.4-0.4-0.4-1,0-1.4l2.8-2.8l-2.8-2.8c-0.4-0.4-0.4-1,0-1.4c0.4-0.4,1-0.4,1.4,0l2.8,2.8l2.8-2.8c0.4-0.4,1-0.4,1.4,0C44.6,36.2,44.6,36.8,44.2,37.2z"/></g><circle style="fill:none;stroke:#000000;stroke-width:2;stroke-linecap:round;stroke-linejoin:round;stroke-miterlimit:10;" cx="40" cy="40" r="9"/><path d="M17,15H6.995C4.241,15,2,17.241,2,19.995v5c0,2.754,2.241,4.995,4.995,4.995H17V15z"/><path d="M17.832,40.919c-0.271-0.427-0.704-2.805-0.812-8.93H17H6.995c-0.123,0-0.243-0.012-0.364-0.018c1.13,3.08,2.197,8.651,2.97,12.7c0.157,0.822,0.635,3.323,3.84,3.323h3.335c2.66,0,3.219-1.631,3.219-2.999C19.995,43.217,18.996,42.074,17.832,40.919z"/><path d="M44.971,19.284c0.015,1.178,0.023,2.41,0.023,3.711c0,1.691-0.011,3.263-0.031,4.734c1.752-0.6,2.984-2.2,2.984-4.149C47.948,21.598,46.702,19.923,44.971,19.284z"/><path d="M40,31c1.008,0,1.975,0.173,2.88,0.479c0.074-2.357,0.115-5.155,0.115-8.484c0-21.001-1.971-21.001-3.148-21.001c-1.485,0-2.395,1.359-3.655,3.241c-2.371,3.542-6.314,9.383-17.202,9.727v15.061c6.691,0.181,10.705,2.496,13.394,5.197C33.976,32.688,36.788,31,40,31z"/></svg>