<?xml version="1.0" encoding="iso-8859-1"?><!-- Generator: Adobe Illustrator 21.1.0, SVG Export Plug-In . SVG Version: 6.00 Build 0)  --><svg xmlns="http://www.w3.org/2000/svg" xmlns:xlink="http://www.w3.org/1999/xlink" viewBox="0 0 50 50" width="500px" height="500px"><path d="M9.072,26.14l-0.13-14.528l-8.607,7.642c-0.002,0.002-0.002,0.004-0.004,0.006L9.072,26.14z"/><path d="M28.376,30.182C27.091,29.153,25.709,29,25,29c-0.294,0-1.843,0.059-3.408,1.207C20.321,31.139,4.403,43.721,0,47.203V49c0,0.553,0.448,1,1,1h48c0.553,0,1-0.447,1-1v-1.838C45.497,43.63,29.656,31.205,28.376,30.182z"/><path d="M49.67,19.26c-0.002-0.002-0.002-0.004-0.004-0.006l-8.607-7.642l-0.13,14.528L49.67,19.26z"/><polyline fill="none" stroke="#000000" stroke-width="2" stroke-miterlimit="10" points="19,17.6 25,11.6 31,17.6 "/><line fill="none" stroke="#000000" stroke-width="2" stroke-linejoin="round" stroke-miterlimit="10" x1="25" y1="13" x2="25" y2="24"/><path d="M34.609,6c-2.797-2.467-4.888-4.307-4.959-4.36C27.984,0.213,26.021,0,25,0c-1.022,0-2.985,0.213-4.601,1.6c-0.076,0.057-2.185,1.914-5.003,4.4H34.609z"/><path d="M35.257,33.051C40.003,36.777,46.518,41.888,50,44.62V21.538l-6,4.685v0.007l-2,1.574v-0.019L35.257,33.051z"/><path d="M14.704,33.049L8,27.803v0.001l-0.27-0.213L0,21.542v23.112C3.454,41.923,9.942,36.795,14.704,33.049z"/><path d="M40,26.809l0.769-0.601L42,25.255v-0.007V6c0-0.552-0.447-1-1-1H9C8.448,5,8,5.448,8,6v19.263l0.965,0.755l0.267,0.21L10,26.828V7h30V26.809z"/></svg>