<?xml version="1.0" encoding="iso-8859-1"?><!-- Generator: Adobe Illustrator 21.1.0, SVG Export Plug-In . SVG Version: 6.00 Build 0)  --><svg xmlns="http://www.w3.org/2000/svg" xmlns:xlink="http://www.w3.org/1999/xlink" viewBox="0 0 50 50" width="500px" height="500px"><path d="M47,11h-1V8c0-0.38-0.216-0.728-0.557-0.896C45.27,7.018,41.121,5,35,5c-5.064,0-8.77,1.378-10,1.904C23.77,6.378,20.064,5,15,5C8.879,5,4.73,7.018,4.557,7.104C4.216,7.272,4,7.62,4,8v3H3c-1.654,0-3,1.346-3,3v26c0,1.654,1.346,3,3,3h19.779c0.549,0.61,1.336,1,2.221,1s1.672-0.39,2.221-1H47c1.654,0,3-1.346,3-3V14C50,12.346,48.654,11,47,11z M44,8.656V37.51C42.267,36.887,39.084,36,35,36s-7.267,0.887-9,1.51V8.656C27.27,8.146,30.605,7,35,7S42.73,8.146,44,8.656z M6,8.656C7.27,8.146,10.605,7,15,7s7.73,1.146,9,1.656V37.51C22.267,36.887,19.084,36,15,36s-7.267,0.887-9,1.51V8.656z"/><line style="fill:none;stroke:#000000;stroke-width:2;stroke-linejoin:round;stroke-miterlimit:10;" x1="35" y1="11" x2="35" y2="14"/><line style="fill:none;stroke:#000000;stroke-width:2;stroke-linejoin:round;stroke-miterlimit:10;" x1="35" y1="29" x2="35" y2="32"/><path style="fill:none;stroke:#000000;stroke-width:2;stroke-linejoin:round;stroke-miterlimit:10;" d="M39,18c0,0,0-4-4-4s-4,3.542-4,3.542c0,4.5,8,3.5,8,8.083c0,0,0,3.375-4,3.375s-4-4-4-4"/></svg>