<?xml version="1.0" encoding="iso-8859-1"?><!-- Generator: Adobe Illustrator 23.0.3, SVG Export Plug-In . SVG Version: 6.00 Build 0)  --><svg xmlns="http://www.w3.org/2000/svg" xmlns:xlink="http://www.w3.org/1999/xlink" viewBox="0 0 50 50" width="500px" height="500px"><circle style="fill:none;stroke:#000000;stroke-width:2;stroke-linecap:round;stroke-miterlimit:10;" cx="25" cy="25" r="22"/><g><path d="M24.759,34.43c-4.513,0-8.759-3.231-8.759-9.461c0-7.079,5.335-9.399,8.759-9.399s7.326,2.014,7.999,5.737h-2.244c-0.709-2.211-2.92-3.662-5.755-3.662c-3.628,0-6.48,2.852-6.48,7.324c0,4.54,2.869,7.459,6.48,7.459c3.071,0,5.198-1.417,5.738-3.544h2.244C32.201,31.938,29.272,34.43,24.759,34.43z"/></g><rect x="24" y="12" width="2" height="4.788"/><rect x="24" y="33.127" width="2" height="4.873"/></svg>