<?xml version="1.0" encoding="iso-8859-1"?><!-- Generator: Adobe Illustrator 21.1.0, SVG Export Plug-In . SVG Version: 6.00 Build 0)  --><svg xmlns="http://www.w3.org/2000/svg" xmlns:xlink="http://www.w3.org/1999/xlink" viewBox="0 0 50 50" width="500px" height="500px"><g><path d="M4,2v42h2V4h28V2H4z"/></g><g><g><path d="M40,20.43V6H8v42h32V34.5l-1.406-4.821l-6.416,1.174l-0.645-6.71l6.703,0.319L40,20.43z M33,37H15c0.27-4.474,6.066-3.822,6.933-6.14c0.072-0.794,0-1.348,0-2.074c-0.362-0.19-1.375-1.21-1.532-2.348c0,0-0.819-0.388-0.864-1.612c-0.024-0.648,0.435-1.108,0.435-1.108C19.117,20.46,19.487,17.08,23.876,17c1.097,0,1.923,0.526,2.251,1.1c3.054,0,2.261,4.232,1.798,5.616c0.171,0.172,0.383,0.64,0.383,1.272c0,0.906-0.864,1.448-0.864,1.448c-0.165,1.156-0.984,2.11-1.484,2.348c0,0.726-0.072,1.28,0,2.074C26.829,33.178,32.73,32.526,33,37z"/></g></g><g><g><path d="M49.56,27.5L38,17.86V24h-7v7h7v6.14L49.56,27.5z M33,29v-3h7v-3.86l6.44,5.36L40,32.86V29H33z"/></g></g></svg>