<?xml version="1.0" encoding="utf-8"?><!-- Generator: Adobe Illustrator 20.1.0, SVG Export Plug-In . SVG Version: 6.00 Build 0)  --><svg xmlns="http://www.w3.org/2000/svg" xmlns:xlink="http://www.w3.org/1999/xlink" viewBox="0 0 50 50" width="500px" height="500px"><polygon points="45.3,17.4 48,35 43.4,35.7 40.7,18.1 "/><path d="M25.9,4.5c0.5-0.1,1-0.1,1.4,0.2c1.3,0.8,0.9,2.8,0.3,4.8l-4.8-3C23.8,5.5,24.9,4.7,25.9,4.5z"/><path d="M5.1,39l0.7-1c0,0,0,0,0,0c0-0.8,0-2.8,1.1-5.9l4.8,3c-2.3,2.4-4.1,3.3-4.8,3.6c0,0,0,0,0,0l-0.6,1C6.1,39.8,6,39.9,5.8,40c-0.2,0-0.3,0-0.5-0.1C5,39.7,4.9,39.3,5.1,39z"/><path d="M38.8,18.9l-10-6.2c-0.1-0.1-0.2-0.1-0.3-0.1c-0.7,1.5-2.4,4.9-4.7,8.7l2.6,0.7l2,0.6l-1.1,1.6l-9.1-2.4c-1.5-0.4-3.1,0.4-3.7,1.9c-0.6,1.5,0.1,3.2,1.5,3.9l11.4,6.4c1.7,0.9,3.6,1.2,5.5,0.9c0.2,0,8-1.8,8-1.8L38.8,18.9z"/><path d="M7,30.3c1.4-0.6,1.9-2.5,2-3c0.3-1.1,1.3-4.1,0.9-7l0.9-0.1c0.7-1.3,1.5-2.5,2.2-3.7c1.4-2.2,2.7-4.1,3.9-5.7L10,11.8c-0.7,0.1-1.2,0.5-1.5,1.1L2.9,25.5c-0.2,0.5-0.4,1.2-0.3,1.8c0.1,1.1,0.6,2.1,1.4,2.8C5.1,30.8,6.4,30.6,7,30.3z"/><path d="M21.4,8c-1.2,1.5-3.9,5-6.7,9.4c-0.9,1.4-1.8,3-2.7,4.5c0,0,0,0,0,0c0,0.9-0.1,1.7-0.2,2.5c-0.3,1.9-0.8,3.5-1.1,4.1c-0.4,1.1-1,1.9-1.6,2.5l3.8,2.4c0.6-0.8,1.6-2.2,2.8-3.8l-0.6-0.4c-2.3-1.2-3.4-3.9-2.5-6.4c0.7-2,2.7-3.3,4.8-3.3c0.4,0,0.8,0.1,1.3,0.2l3.1,0.8c2.4-4,4.2-7.6,5-9.3L21.4,8z"/></svg>