<?xml version="1.0" encoding="iso-8859-1"?><!-- Generator: Adobe Illustrator 22.1.0, SVG Export Plug-In . SVG Version: 6.00 Build 0)  --><svg xmlns="http://www.w3.org/2000/svg" xmlns:xlink="http://www.w3.org/1999/xlink" viewBox="0 0 50 50" width="500px" height="500px"><path d="M47,7H3C2.448,7,2,6.552,2,6V3c0-0.552,0.448-1,1-1h44c0.553,0,1,0.448,1,1v3C48,6.552,47.553,7,47,7z"/><path d="M25,48c-1.654,0-3-1.346-3-3s1.346-3,3-3s3,1.346,3,3S26.654,48,25,48z"/><path d="M4,9v30c0,0.55,0.45,1,1,1h27c0-4.42,3.58-8,8-8c2.39,0,4.54,1.05,6,2.71V9H4z M15,29c-2.76,0-5-2.24-5-5s2.24-5,5-5v5h5C20,26.76,17.76,29,15,29z M18,21v-5c2.76,0,5,2.24,5,5H18z M39,24H28c-0.55,0-1-0.45-1-1s0.45-1,1-1h11c0.55,0,1,0.45,1,1S39.55,24,39,24z M39,19H28c-0.55,0-1-0.45-1-1s0.45-1,1-1h11c0.55,0,1,0.45,1,1S39.55,19,39,19z"/><path d="M24,41v2c0,0.553,0.448,1,1,1s1-0.447,1-1v-2H24z"/><g id="IOS_copy_2_"><path d="M40,50c-5.5,0-10-4.5-10-10s4.5-10,10-10s10,4.5,10,10S45.5,50,40,50z M40,32c-4.4,0-8,3.6-8,8s3.6,8,8,8s8-3.6,8-8S44.4,32,40,32z"/></g><polygon points="41,40.5 41,34 39,34 39,39.5 35.4,42.2 36.6,43.8 "/></svg>