<?xml version="1.0" encoding="iso-8859-1"?><!-- Generator: Adobe Illustrator 21.1.0, SVG Export Plug-In . SVG Version: 6.00 Build 0)  --><svg xmlns="http://www.w3.org/2000/svg" xmlns:xlink="http://www.w3.org/1999/xlink" viewBox="0 0 50 50" width="500px" height="500px"><g></g><ellipse style="fill:none;stroke:#000000;stroke-width:2;stroke-miterlimit:10;" cx="29" cy="16.978" rx="4" ry="3.987"/><line style="fill:none;stroke:#000000;stroke-width:2;stroke-miterlimit:10;" x1="29" y1="10" x2="29" y2="12.991"/><line style="fill:none;stroke:#000000;stroke-width:2;stroke-miterlimit:10;" x1="29" y1="20.966" x2="29" y2="23.956"/><line style="fill:none;stroke:#000000;stroke-width:2;stroke-miterlimit:10;" x1="36" y1="17" x2="33" y2="17"/><line style="fill:none;stroke:#000000;stroke-width:2;stroke-miterlimit:10;" x1="25" y1="17" x2="22" y2="17"/><line style="fill:none;stroke:#000000;stroke-width:2;stroke-miterlimit:10;" x1="33.95" y1="12.044" x2="31.828" y2="14.159"/><line style="fill:none;stroke:#000000;stroke-width:2;stroke-miterlimit:10;" x1="26.172" y1="19.797" x2="24.05" y2="21.913"/><line style="fill:none;stroke:#000000;stroke-width:2;stroke-miterlimit:10;" x1="33.95" y1="21.913" x2="31.828" y2="19.797"/><line style="fill:none;stroke:#000000;stroke-width:2;stroke-miterlimit:10;" x1="26.172" y1="14.159" x2="24.05" y2="12.044"/><ellipse style="fill:none;stroke:#000000;stroke-width:2;stroke-miterlimit:10;" cx="17" cy="25.022" rx="4" ry="3.987"/><line style="fill:none;stroke:#000000;stroke-width:2;stroke-miterlimit:10;" x1="17" y1="18.044" x2="17" y2="21.034"/><line style="fill:none;stroke:#000000;stroke-width:2;stroke-miterlimit:10;" x1="17" y1="29.009" x2="17" y2="32"/><line style="fill:none;stroke:#000000;stroke-width:2;stroke-miterlimit:10;" x1="24" y1="25" x2="21" y2="25"/><line style="fill:none;stroke:#000000;stroke-width:2;stroke-miterlimit:10;" x1="13" y1="25" x2="10" y2="25"/><line style="fill:none;stroke:#000000;stroke-width:2;stroke-miterlimit:10;" x1="21.95" y1="20.087" x2="19.828" y2="22.203"/><line style="fill:none;stroke:#000000;stroke-width:2;stroke-miterlimit:10;" x1="14.172" y1="27.841" x2="12.05" y2="29.956"/><line style="fill:none;stroke:#000000;stroke-width:2;stroke-miterlimit:10;" x1="21.95" y1="29.956" x2="19.828" y2="27.841"/><line style="fill:none;stroke:#000000;stroke-width:2;stroke-miterlimit:10;" x1="14.172" y1="22.203" x2="12.05" y2="20.087"/><path style="fill:none;stroke:#000000;stroke-width:2;stroke-linejoin:round;stroke-miterlimit:10;" d="M10.213,45.875L12,36c-1.75,0-2.589-0.993-2.875-2c-0.25,0-0.219,0-0.625,0C6.015,34,4,32,4,29c0-0.656,0-0.5,0-1.375c-1.412-0.618-2-2-2-3.375c0-1.441,0.857-2.546,2-3.25c-1.13-0.58-2-2.142-2-3.5c0-1.401,0.811-2.691,2-3.25C3.994,14.137,4,14.115,4,14c0-3.314,2.69-6.146,6-6c0.247,0.011,0.576-0.004,0.875,0c1.03-1.823,2.507-3,4.75-3c1.75,0,2.75,0.625,3.25,1C20,5,21.375,4,23.5,4C26,4,27.625,4.625,29,6c1.5-0.875,2.599-1,4.25-1c2.704,0,5.271,1.651,6.25,4c2.651,0,4.863,1.876,5.383,4.373C46.625,13.75,48,14.625,48,16.875c0,1.625-0.75,2.25-1,2.625c0,0,1,0.75,1,2.75c0,1.875-1.25,3.75-4.625,3.75c-0.094,0-0.194,0-0.3,0c-0.627,1.711-2.45,2-3.825,2C38.868,28,38,28,38,28c-0.375,1-1.125,2-2.625,2c-1.25,0-1.875-0.5-2.375-1c-0.379,1.555-2.337,3-4,3c-0.311,0,0,0-1,0c-0.049,3.271-2.717,6-6,6c-4.146,0-6.702,3.565-7.75,7.75"/><polygon points="9.536,44 8.993,47 11.026,47 11.569,44 "/><path d="M14.991,47c0.119-0.531,0.229-1.007,0.229-1.007c0.132-0.529,0.34-1.234,0.649-1.993h-2.132c-0.17,0.488-0.328,0.993-0.461,1.525c0,0-0.18,0.781-0.333,1.475H14.991z"/></svg>