<?xml version="1.0" encoding="iso-8859-1"?><!-- Generator: Adobe Illustrator 21.1.0, SVG Export Plug-In . SVG Version: 6.00 Build 0)  --><svg xmlns="http://www.w3.org/2000/svg" xmlns:xlink="http://www.w3.org/1999/xlink" viewBox="0 0 50 50" width="500px" height="500px"><g></g><path style="fill:none;stroke:#000000;stroke-width:2;stroke-miterlimit:10;" d="M7,31c0-4,5.317-3.249,6.026-5.222C13.085,25.103,13,24.616,13,24c-0.295-0.16-0.783-1.166-0.871-2.03c-0.234-0.019-0.596-0.253-0.705-1.179c-0.059-0.497,0.172-0.776,0.31-0.864c-0.784-3.128-0.353-5.859,3.23-5.927c0.894,0,1.582,0.248,1.851,0.737c2.613,0.376,1.828,4.014,1.452,5.19c0.139,0.088,0.368,0.367,0.31,0.864c-0.108,0.926-0.473,1.16-0.705,1.179C17.781,22.835,17.294,23.84,17,24c0,0.616-0.064,1.104-0.005,1.779C17.703,27.751,23,27,23,31H7z"/><path d="M45,7H5c-1.654,0-3,1.346-3,3v30c0,1.654,1.346,3,3,3h6c0.552,0,1-0.448,1-1v-1.5c0-0.297-0.132-0.578-0.36-0.768c-0.29-0.242-0.754-0.758-0.614-1.505c0.123-0.656,0.71-1.182,1.366-1.223c0.439-0.032,0.841,0.113,1.143,0.396c0.3,0.282,0.465,0.672,0.465,1.1c0,0.607-0.401,1.033-0.64,1.232C13.132,39.922,13,40.203,13,40.5V42c0,0.552,0.448,1,1,1h22c0.552,0,1-0.448,1-1v-1.5c0-0.297-0.132-0.578-0.36-0.768c-0.29-0.242-0.754-0.758-0.614-1.505c0.123-0.656,0.71-1.182,1.366-1.223c0.439-0.032,0.841,0.113,1.143,0.396c0.3,0.282,0.465,0.672,0.465,1.1c0,0.607-0.401,1.033-0.64,1.232C38.132,39.922,38,40.203,38,40.5V42c0,0.552,0.448,1,1,1h6c1.654,0,3-1.346,3-3V10C48,8.346,46.654,7,45,7z M46,40c0,0.552-0.449,1-1,1h-5v-0.069c0.648-0.683,1-1.531,1-2.431c0-0.986-0.389-1.895-1.096-2.558c-0.709-0.666-1.642-0.993-2.638-0.935c-1.566,0.1-2.914,1.298-3.206,2.851c-0.211,1.124,0.13,2.222,0.94,3.074V41H15v-0.069c0.648-0.683,1-1.531,1-2.431c0-0.986-0.389-1.895-1.096-2.558c-0.709-0.666-1.642-0.993-2.638-0.935c-1.566,0.1-2.914,1.298-3.206,2.851C8.849,38.982,9.19,40.08,10,40.932V41H5c-0.551,0-1-0.449-1-1V10c0-0.551,0.449-1,1-1h40c0.551,0,1,0.449,1,1V40z"/><path d="M36.348,26.131c0,0,1.434-0.821,1.809-1.018c0.374-0.198,0.762-0.248,0.998-0.104c0.357,0.218,3.351,2.21,3.604,2.387c0.252,0.177,0.374,0.681,0.027,1.176c-0.345,0.494-1.938,2.449-2.613,2.429c-0.676-0.022-3.487-0.084-8.788-5.386c-5.3-5.301-5.362-8.112-5.384-8.788c-0.022-0.676,1.933-2.269,2.428-2.615c0.495-0.345,1.001-0.215,1.176,0.028c0.2,0.277,2.169,3.262,2.386,3.604c0.148,0.234,0.094,0.624-0.104,0.998c-0.197,0.375-1.018,1.809-1.018,1.809s0.579,0.987,2.536,2.944C35.361,25.551,36.348,26.131,36.348,26.131z"/></svg>