<?xml version="1.0" encoding="iso-8859-1"?><!-- Generator: Adobe Illustrator 21.1.0, SVG Export Plug-In . SVG Version: 6.00 Build 0)  --><svg xmlns="http://www.w3.org/2000/svg" xmlns:xlink="http://www.w3.org/1999/xlink" viewBox="0 0 50 50" width="500px" height="500px"><path d="M25,2C12.318,2,2,12.318,2,25s10.318,23,23,23s23-10.318,23-23S37.682,2,25,2z M30.2,22.1l-0.6,1.5H18.8c-0.1,0.6-0.1,1-0.1,1.5v0.5H29l-0.6,1.5h-9.5c1,7.3,5.3,8.2,7.5,8.2c1.2,0,3.1,0,5.9-2.9V35c-1.9,1.5-3.8,2.2-6.1,2.2c-2.8,0-8.4-1.1-9.6-10.1h-2.2l0.6-1.5h1.5c0-0.1,0-0.7,0-0.7c0-0.2,0-1,0.1-1.3h-2.2l0.6-1.5h1.7c1.6-8.2,7-9.4,9.7-9.4c2.8,0,4.9,0.9,6.3,2.6l-0.9,2c-1.5-1.8-3.3-2.6-5.4-2.6c-2.1,0-6.1,0.8-7.4,7.4H30.2z"/></svg>