<?xml version="1.0" encoding="iso-8859-1"?><!-- Generator: Adobe Illustrator 21.1.0, SVG Export Plug-In . SVG Version: 6.00 Build 0)  --><svg xmlns="http://www.w3.org/2000/svg" xmlns:xlink="http://www.w3.org/1999/xlink" viewBox="0 0 50 50" width="500px" height="500px"><g><g><polygon style="fill:none;stroke:#000000;stroke-width:2;stroke-linecap:round;stroke-linejoin:round;stroke-miterlimit:10;" points="41.875,39.125 48,39.125 34,26 34,45.25 38.03,41.22 41.139,48 45,46.229 41.767,39.179 "/></g></g><path style="fill:none;stroke:#000000;stroke-width:2;stroke-miterlimit:10;" d="M24,45c-7.18,0-13-9.402-13-21S16.82,3,24,3"/><line style="fill:none;stroke:#000000;stroke-width:2;stroke-miterlimit:10;" x1="24" y1="3" x2="24" y2="45"/><line style="fill:none;stroke:#000000;stroke-width:2;stroke-miterlimit:10;" x1="30" y1="24" x2="3" y2="24"/><line style="fill:none;stroke:#000000;stroke-width:2;stroke-miterlimit:10;" x1="42" y1="13" x2="6" y2="13"/><line style="fill:none;stroke:#000000;stroke-width:2;stroke-miterlimit:10;" x1="30" y1="35" x2="6" y2="35"/><path style="fill:none;stroke:#000000;stroke-width:2;stroke-miterlimit:10;" d="M24,45C12.402,45,3,35.598,3,24S12.402,3,24,3s21,9.402,21,21"/><g><path d="M44.849,30.997C45.6,28.759,46,26.405,46,24h-2c0,1.872-0.268,3.71-0.77,5.478L44.849,30.997z"/><path d="M30,41.294C28.233,43.004,26.187,44,24,44v2c2.057,0,4.071-0.296,6-0.843V41.294z"/><path d="M35.959,22.662l2.029,1.902C37.991,24.376,38,24.19,38,24c0-12.131-6.28-22-14-22v2C30.346,4,35.543,12.259,35.959,22.662z"/></g><polygon points="38.453,25 45,25 45,23 37,23 37,23.638 "/></svg>