<?xml version="1.0" encoding="iso-8859-1"?><!-- Generator: Adobe Illustrator 22.0.1, SVG Export Plug-In . SVG Version: 6.00 Build 0)  --><svg xmlns="http://www.w3.org/2000/svg" xmlns:xlink="http://www.w3.org/1999/xlink" viewBox="0 0 50 50" width="500px" height="500px"><path d="M18,20c-5.466,0-11-3.04-11-8.852C7,7.471,9.93,2,18,2c6.374,0,11,3.769,11,8.96C29,16.832,23.333,20,18,20z"/><path d="M30,5c-0.305,0-0.604,0.011-0.9,0.027c1.209,1.68,1.9,3.695,1.9,5.933c0,5.218-3.551,8.678-7.912,10.181C25.266,22.469,27.89,23,30,23c5.333,0,11-3.168,11-9.04C41,8.769,36.374,5,30,5z"/><ellipse cx="3.5" cy="27.5" rx="1.5" ry="1.5"/><path d="M5.5,24C3.57,24,2,22.654,2,21s1.57-3,3.5-3S9,19.346,9,21S7.43,24,5.5,24z"/><ellipse cx="46.5" cy="27.5" rx="1.5" ry="1.5"/><path d="M44.5,24c-1.93,0-3.5-1.346-3.5-3s1.57-3,3.5-3s3.5,1.346,3.5,3S46.43,24,44.5,24z"/><path d="M46,48H26c-0.276,0-0.54-0.114-0.729-0.314c-0.189-0.201-0.287-0.472-0.27-0.747c0.224-3.642,3.054-4.84,5.121-5.715c1.048-0.444,2.042-0.865,2.377-1.442v-1.588c-0.506-0.56-0.986-1.477-1.227-2.358C30.57,35.54,30,34.828,30,33.5c0-0.69,0.176-1.176,0.387-1.508C30.225,31.387,30,30.426,30,29.75c0-2.779,1.347-5.75,6.531-5.75c0.353,0,0.68,0.186,0.86,0.489l0.323,0.544C40.311,25.333,41,27.617,41,29.75c0,0.676-0.225,1.637-0.387,2.242C40.824,32.324,41,32.81,41,33.5c0,1.329-0.57,2.041-1.273,2.335c-0.242,0.882-0.721,1.798-1.227,2.358v1.581c0.355,0.566,1.554,1.011,2.715,1.442c2.346,0.869,5.558,2.061,5.783,5.722c0.017,0.275-0.081,0.546-0.27,0.747C46.54,47.886,46.276,48,46,48z"/><path d="M24,48H4c-0.274,0-0.536-0.112-0.725-0.311c-0.188-0.198-0.288-0.466-0.274-0.739c0.184-3.674,3.26-4.807,5.507-5.634c0.817-0.301,1.654-0.608,2.151-0.971C8.765,40.06,7,39.471,7,38c0-0.266,0.105-0.52,0.293-0.707c0.375-0.375,0.435-2.171,0.478-3.481C7.9,29.904,7.625,24,14,24c1,0,1.625,0.625,1.747,1.021c4.029,0.347,4.219,4.962,4.358,8.366c0.063,1.535,0.141,3.445,0.602,3.906C20.895,37.48,21,37.734,21,38c0,1.423-2.062,2.056-3.676,2.333c0.495,0.368,1.342,0.68,2.168,0.983c2.247,0.827,5.323,1.96,5.507,5.634c0.014,0.273-0.085,0.541-0.274,0.739C24.536,47.888,24.274,48,24,48z"/><rect x="23" y="47" width="4" height="1"/></svg>