<?xml version="1.0" encoding="iso-8859-1"?><!-- Generator: Adobe Illustrator 21.1.0, SVG Export Plug-In . SVG Version: 6.00 Build 0)  --><svg xmlns="http://www.w3.org/2000/svg" xmlns:xlink="http://www.w3.org/1999/xlink" viewBox="0 0 50 50" width="500px" height="500px"><path d="M46,5v15c0,0.55-0.45,1-1,1H30c-0.55,0-1-0.45-1-1V5c0-0.55,0.45-1,1-1h15C45.55,4,46,4.45,46,5z"/><path d="M21,5v15c0,0.55-0.45,1-1,1H5c-0.55,0-1-0.45-1-1V5c0-0.55,0.45-1,1-1h15C20.55,4,21,4.45,21,5z"/><line style="fill:none;stroke:#000000;stroke-width:2;stroke-miterlimit:10;" x1="20" y1="12" x2="30" y2="12"/><path d="M46,30v15c0,0.55-0.45,1-1,1H30c-0.55,0-1-0.45-1-1V30c0-0.55,0.45-1,1-1h15C45.55,29,46,29.45,46,30z"/><polygon style="fill:none;stroke:#000000;stroke-width:2;stroke-linecap:round;stroke-linejoin:round;stroke-miterlimit:10;" points="5,30 20,30 20,33.656 20,45 5,45 "/><line style="fill:none;stroke:#000000;stroke-width:2;stroke-miterlimit:10;" x1="20" y1="38" x2="30" y2="38"/><line style="fill:none;stroke:#000000;stroke-width:2;stroke-miterlimit:10;" x1="38" y1="20" x2="38" y2="30"/><line style="fill:none;stroke:#000000;stroke-width:2;stroke-miterlimit:10;" x1="12" y1="20" x2="12" y2="30"/><line style="fill:none;stroke:#000000;stroke-width:2;stroke-linecap:round;stroke-linejoin:round;stroke-miterlimit:10;" x1="19.5" y1="30.5" x2="5" y2="45"/><line style="fill:none;stroke:#000000;stroke-width:2;stroke-linecap:round;stroke-linejoin:round;stroke-miterlimit:10;" x1="10" y1="30" x2="5.3" y2="34.7"/><line style="fill:none;stroke:#000000;stroke-width:2;stroke-linecap:round;stroke-linejoin:round;stroke-miterlimit:10;" x1="15" y1="30" x2="5" y2="40"/><line style="fill:none;stroke:#000000;stroke-width:2;stroke-linecap:round;stroke-linejoin:round;stroke-miterlimit:10;" x1="20" y1="35" x2="10.4" y2="44.6"/><line style="fill:none;stroke:#000000;stroke-width:2;stroke-linecap:round;stroke-linejoin:round;stroke-miterlimit:10;" x1="20" y1="40" x2="15.4" y2="44.6"/></svg>