<?xml version="1.0" encoding="iso-8859-1"?><!-- Generator: Adobe Illustrator 19.2.1, SVG Export Plug-In . SVG Version: 6.00 Build 0)  --><svg xmlns="http://www.w3.org/2000/svg" xmlns:xlink="http://www.w3.org/1999/xlink" viewBox="0 0 50 50" width="500px" height="500px"><path style="fill:none;stroke:#000000;stroke-width:2;stroke-linecap:round;stroke-linejoin:round;stroke-miterlimit:10;" d="M44,46H26c-1.105,0-2-0.895-2-2V21c0-1.105,0.895-2,2-2h18c1.105,0,2,0.895,2,2v23C46,45.105,45.105,46,44,46z"/><path style="fill:none;stroke:#000000;stroke-width:2;stroke-linecap:round;stroke-linejoin:round;stroke-miterlimit:10;" d="M21,4h12c1.105,0,2,0.895,2,2v13"/><path style="fill:none;stroke:#000000;stroke-width:2;stroke-linecap:round;stroke-linejoin:round;stroke-miterlimit:10;" d="M24,43H5c-1.105,0-2-0.895-2-2V6c0-1.105,0.895-2,2-2h12"/><rect x="28" y="23" style="fill:none;stroke:#000000;stroke-width:2;stroke-linecap:round;stroke-linejoin:round;stroke-miterlimit:10;" width="14" height="4"/><path d="M40,33h2c0.552,0,1-0.448,1-1v-1c0-0.552-0.448-1-1-1h-2c-0.552,0-1,0.448-1,1v1C39,32.552,39.448,33,40,33z"/><path d="M34,33h2c0.552,0,1-0.448,1-1v-1c0-0.552-0.448-1-1-1h-2c-0.552,0-1,0.448-1,1v1C33,32.552,33.448,33,34,33z"/><path d="M28,33h2c0.552,0,1-0.448,1-1v-1c0-0.552-0.448-1-1-1h-2c-0.552,0-1,0.448-1,1v1C27,32.552,27.448,33,28,33z"/><path d="M40,38h2c0.552,0,1-0.448,1-1v-1c0-0.552-0.448-1-1-1h-2c-0.552,0-1,0.448-1,1v1C39,37.552,39.448,38,40,38z"/><path d="M34,38h2c0.552,0,1-0.448,1-1v-1c0-0.552-0.448-1-1-1h-2c-0.552,0-1,0.448-1,1v1C33,37.552,33.448,38,34,38z"/><path d="M28,38h2c0.552,0,1-0.448,1-1v-1c0-0.552-0.448-1-1-1h-2c-0.552,0-1,0.448-1,1v1C27,37.552,27.448,38,28,38z"/><path d="M40,43h2c0.552,0,1-0.448,1-1v-1c0-0.552-0.448-1-1-1h-2c-0.552,0-1,0.448-1,1v1C39,42.552,39.448,43,40,43z"/><path d="M34,43h2c0.552,0,1-0.448,1-1v-1c0-0.552-0.448-1-1-1h-2c-0.552,0-1,0.448-1,1v1C33,42.552,33.448,43,34,43z"/><path d="M28,43h2c0.552,0,1-0.448,1-1v-1c0-0.552-0.448-1-1-1h-2c-0.552,0-1,0.448-1,1v1C27,42.552,27.448,43,28,43z"/><path style="fill:none;stroke:#000000;stroke-width:2;stroke-linecap:round;stroke-linejoin:round;stroke-miterlimit:10;" d="M27,4v4c0,1.105-0.895,2-2,2H13c-1.105,0-2-0.895-2-2V4"/><circle style="fill:none;stroke:#000000;stroke-width:2;stroke-linecap:round;stroke-linejoin:round;stroke-miterlimit:10;" cx="19" cy="4" r="2"/><circle style="fill:none;stroke:#000000;stroke-width:2;stroke-linecap:round;stroke-linejoin:round;stroke-miterlimit:10;" cx="13" cy="33" r="5"/><path d="M13,28v5h5C18,30.239,15.761,28,13,28z"/><line style="fill:none;stroke:#000000;stroke-width:2;stroke-linejoin:round;stroke-miterlimit:10;" x1="7" y1="22" x2="21" y2="22"/><line style="fill:none;stroke:#000000;stroke-width:2;stroke-linejoin:round;stroke-miterlimit:10;" x1="10" y1="18" x2="10" y2="22"/><line style="fill:none;stroke:#000000;stroke-width:2;stroke-linejoin:round;stroke-miterlimit:10;" x1="14" y1="15" x2="14" y2="22"/><line style="fill:none;stroke:#000000;stroke-width:2;stroke-linejoin:round;stroke-miterlimit:10;" x1="18" y1="17" x2="18" y2="22"/></svg>