<?xml version="1.0" encoding="utf-8"?><!-- Generator: Adobe Illustrator 15.0.0, SVG Export Plug-In . SVG Version: 6.00 Build 0)  --><!DOCTYPE svg PUBLIC "-//W3C//DTD SVG 1.1//EN" "http://www.w3.org/Graphics/SVG/1.1/DTD/svg11.dtd"><svg xmlns="http://www.w3.org/2000/svg" xmlns:xlink="http://www.w3.org/1999/xlink" viewBox="0 0 50 50" width="500px" height="500px"><path d="M42.676,23.968c0.927-7.232-0.442-13.191-3.974-17.259C35.514,3.035,30.647,1.012,25,1.012c-5.782,0-10.739,2.075-13.96,5.843c-3.478,4.069-4.773,9.963-3.757,17.072c-1.45,1.446-2.271,3.632-2.271,6.097c0,3.682,3.179,6.652,5.676,7.789C13.302,45.764,21.812,48.988,25,48.988c3.168,0,11.636-3.198,14.284-11.085c2.841-1.171,5.704-4.46,5.704-7.88C44.988,27.659,44.132,25.439,42.676,23.968z M25.673,34.859c0,0.164-0.11,0.273-0.279,0.273h-1.395c-0.168,0-0.28-0.109-0.28-0.273v-1.828c0-0.164,0.112-0.273,0.28-0.273h1.395c0.168,0,0.279,0.109,0.279,0.273V34.859z M27.906,24.732l-1.535,2.02c-0.753,0.9-0.893,1.365-0.893,2.402v0.955c0,0.164-0.111,0.272-0.279,0.272h-0.976c-0.168,0-0.279-0.108-0.279-0.272v-1.063c0-1.119,0.194-1.801,0.893-2.675l1.534-1.993c1.396-1.665,1.703-2.429,1.703-3.576c0-1.965-1.424-3.085-3.293-3.085c-1.841,0-3.069,1.092-3.46,3.058c-0.028,0.164-0.14,0.245-0.308,0.218l-0.948-0.164c-0.168-0.027-0.251-0.164-0.223-0.328c0.391-2.457,2.205-4.204,4.967-4.204c2.875,0,4.8,1.884,4.8,4.504C29.609,22.275,29.135,23.285,27.906,24.732z"/></svg>