<?xml version="1.0" encoding="iso-8859-1"?><!-- Generator: Adobe Illustrator 21.1.0, SVG Export Plug-In . SVG Version: 6.00 Build 0)  --><svg xmlns="http://www.w3.org/2000/svg" xmlns:xlink="http://www.w3.org/1999/xlink" viewBox="0 0 50 50" width="500px" height="500px"><g></g><path d="M45,43c-0.256,0-0.512-0.098-0.707-0.293l-40-40c-0.391-0.391-0.391-1.023,0-1.414s1.023-0.391,1.414,0l40,40c0.391,0.391,0.391,1.023,0,1.414C45.512,42.902,45.256,43,45,43z"/><path d="M29.758,31H16c-0.553,0-1-0.447-1-1s0.447-1,1-1h11.758l-4-4H16c-0.553,0-1-0.447-1-1s0.447-1,1-1h5.758l-4-4H16c-0.553,0-1-0.447-1-1c0-0.481,0.346-0.864,0.798-0.959l-4.839-4.839C10.863,12.654,10.481,13,10,13c-0.552,0-1-0.448-1-1c0-0.481,0.346-0.863,0.798-0.959L3.881,5.124C2.744,6.041,2,7.428,2,9v24c0,2.757,2.243,5,5,5h4.14c0.339,2.896-0.516,4.859-2.654,6.143c-0.385,0.231-0.569,0.691-0.449,1.124C8.156,45.7,8.551,46,9,46c2.56,0,8.708-0.795,11.684-8h16.074L29.758,31z M10,31c-0.552,0-1-0.448-1-1c0-0.552,0.448-1,1-1s1,0.448,1,1C11,30.552,10.552,31,10,31z M10,25c-0.552,0-1-0.448-1-1c0-0.552,0.448-1,1-1s1,0.448,1,1C11,24.552,10.552,25,10,25z M10,19c-0.552,0-1-0.448-1-1c0-0.552,0.448-1,1-1s1,0.448,1,1C11,18.552,10.552,19,10,19z"/><path d="M43,4H7C6.57,4,6.159,4.072,5.76,4.174L18.586,17H40c0.553,0,1,0.447,1,1s-0.447,1-1,1H20.586l4,4H40c0.553,0,1,0.447,1,1s-0.447,1-1,1H26.586l13,13H43c2.757,0,5-2.243,5-5V9C48,6.243,45.757,4,43,4z M40,13H16c-0.553,0-1-0.447-1-1s0.447-1,1-1h24c0.553,0,1,0.447,1,1S40.553,13,40,13z"/></svg>