<?xml version="1.0" encoding="iso-8859-1"?><!-- Generator: Adobe Illustrator 22.0.1, SVG Export Plug-In . SVG Version: 6.00 Build 0)  --><svg xmlns="http://www.w3.org/2000/svg" xmlns:xlink="http://www.w3.org/1999/xlink" viewBox="0 0 50 50" width="500px" height="500px"><g></g><line style="fill:none;stroke:#000000;stroke-width:2;stroke-linecap:round;stroke-linejoin:round;stroke-miterlimit:10;" x1="35" y1="26" x2="15" y2="26"/><circle style="fill:none;stroke:#000000;stroke-width:2;stroke-miterlimit:10;" cx="8" cy="13" r="3"/><circle style="fill:none;stroke:#000000;stroke-width:2;stroke-miterlimit:10;" cx="25" cy="10" r="3"/><path style="fill:none;stroke:#000000;stroke-width:2;stroke-linejoin:round;stroke-miterlimit:10;" d="M15,30c1.654,0,3,1.346,3,3v8c0,1.104-0.896,2-2,2s-2-0.896-2-2v-7H8c-1.56,0-2.86-1.196-2.99-2.751L5,22c0-1.657,1.343-3,3-3s2.812,1.312,3,3v8H15z"/><circle style="fill:none;stroke:#000000;stroke-width:2;stroke-miterlimit:10;" cx="42" cy="13" r="3"/><path style="fill:none;stroke:#000000;stroke-width:2;stroke-linejoin:round;stroke-miterlimit:10;" d="M39,30v-8c0.188-1.688,1.343-3,3-3c1.657,0,3,1.343,3,3l-0.01,9.249C44.86,32.804,43.56,34,42,34h-6v7c0,1.104-0.896,2-2,2s-2-0.896-2-2v-8c0-1.654,1.346-3,3-3H39z"/><path style="fill:none;stroke:#000000;stroke-width:2;stroke-linecap:round;stroke-linejoin:round;stroke-miterlimit:10;" d="M1,24v8c0,3.314,2.686,6,6,6h3"/><path style="fill:none;stroke:#000000;stroke-width:2;stroke-linecap:round;stroke-linejoin:round;stroke-miterlimit:10;" d="M49,24v8c0,3.314-2.686,6-6,6h-3"/><path style="fill:none;stroke:#000000;stroke-width:2;stroke-miterlimit:10;" d="M31,26H19v-5c0-2.761,2.239-5,5-5h2c2.761,0,5,2.239,5,5V26z"/></svg>