<?xml version="1.0" encoding="iso-8859-1"?><!-- Generator: Adobe Illustrator 19.1.1, SVG Export Plug-In . SVG Version: 6.00 Build 0)  --><svg xmlns="http://www.w3.org/2000/svg" xmlns:xlink="http://www.w3.org/1999/xlink" viewBox="0 0 50 50" width="500px" height="500px"><path d="M47.332,32.543L18.457,3.668c-0.192-0.193-0.433-0.298-0.731-0.292C17.453,3.382,17.194,3.5,17.01,3.702L3.26,18.827c-0.359,0.395-0.345,1.002,0.033,1.38l27.5,27.5C30.987,47.902,31.244,48,31.5,48c0.24,0,0.481-0.086,0.673-0.26l15.125-13.75c0.202-0.185,0.32-0.443,0.327-0.717C47.631,33,47.525,32.736,47.332,32.543z M38.081,30.167l-1.414,1.414l-1.327-1.327l1.414-1.414L38.081,30.167z M35.428,27.514l-1.414,1.414l-1.327-1.327l1.414-1.414L35.428,27.514z M32.774,24.86l-1.414,1.415l-1.327-1.327l1.414-1.414L32.774,24.86z M30.121,22.207l-1.414,1.414l-1.327-1.327l1.414-1.414L30.121,22.207z M27.468,19.553l-1.414,1.414l-1.327-1.327l1.414-1.414L27.468,19.553z M24.814,16.9L23.4,18.314l-1.327-1.327l1.414-1.414L24.814,16.9z M22.161,14.247l-1.414,1.414l-1.327-1.327l1.414-1.414L22.161,14.247z M17.364,10.908c0.186-0.197,0.442-0.311,0.713-0.315c0.268-0.023,0.531,0.101,0.722,0.293l0.707,0.707l-1.37,1.413l-0.022-0.021l-0.022,0.022l-1.413-1.371L17.364,10.908z M15.487,12.903l1.456,1.371l-1.192,1.267l-1.456-1.371L15.487,12.903z M13.102,15.437l1.456,1.371l-1.192,1.267l-1.456-1.371L13.102,15.437z M10.759,20.798l-0.707-0.707c-0.382-0.382-0.392-1-0.021-1.393l0.687-0.728l1.455,1.372l-0.02,0.021l0.021,0.021L10.759,20.798z M13.75,23.789l-1.496-1.496l1.414-1.414l1.496,1.496L13.75,23.789z M16.741,26.78l-1.496-1.496l1.414-1.414l1.496,1.496L16.741,26.78z M19.732,29.771l-1.496-1.495l1.414-1.414l1.496,1.495L19.732,29.771z M22.724,32.763l-1.496-1.495l1.414-1.414l1.496,1.495L22.724,32.763z M25.715,35.754l-1.496-1.495l1.414-1.414l1.496,1.495L25.715,35.754z M28.706,38.745l-1.495-1.495l1.414-1.414l1.495,1.495L28.706,38.745z M32.303,40.969c-0.193,0.182-0.439,0.272-0.687,0.272c-0.256,0-0.512-0.098-0.707-0.293l-0.707-0.707l1.414-1.414l0.021,0.021l0.021-0.021l1.373,1.455L32.303,40.969z M34.297,39.091l-1.371-1.455l1.267-1.193l1.371,1.455L34.297,39.091z M36.831,36.706l-1.371-1.457l1.267-1.192l1.371,1.457L36.831,36.706z M40.092,33.636l-0.729,0.685l-1.37-1.413l0.021-0.021l-0.021-0.022l1.413-1.37l0.707,0.707c0.191,0.191,0.297,0.452,0.293,0.723S40.289,33.45,40.092,33.636z"/><path d="M48.476,30.858l0.472-1.417c0.12-0.359,0.026-0.756-0.241-1.023L22.582,2.293c-0.268-0.269-0.664-0.362-1.023-0.242l-1.417,0.472L48.476,30.858z"/><path d="M42.077,18.959c1.237-0.626,2.52-1.331,3.399-2.209c3.421-3.42,3.374-8.629-0.11-12.115c-1.648-1.648-3.775-2.583-5.989-2.633c-2.266-0.056-4.447,0.845-6.126,2.522c-0.856,0.856-1.597,2.155-2.229,3.38L42.077,18.959z"/></svg>