<?xml version="1.0" encoding="iso-8859-1"?>
<!-- Generator: Adobe Illustrator 27.0.0, SVG Export Plug-In . SVG Version: 6.00 Build 0)  -->
<svg version="1.1" baseProfile="basic" xmlns="http://www.w3.org/2000/svg" xmlns:xlink="http://www.w3.org/1999/xlink" x="0px"
	 y="0px" viewBox="0 0 50 50" xml:space="preserve">
<g id="Layer_1">
</g>
<g id="&#x421;&#x43B;&#x43E;&#x439;_1">
	<path d="M28.58,43.69C27.44,43.89,26.22,44,25,44c-3.2,0-6.4-0.7-8-2.09V45c0,1.7,3.6,3,8,3c2.09,0,3.99-0.29,5.42-0.78
		C29.62,46.16,28.99,44.97,28.58,43.69z M8,44c-3.2,0-6.4-0.7-8-2.09V45c0,1.7,3.6,3,8,3s8-1.3,8-3v-3.09C14.4,43.3,11.2,44,8,44z
		 M28,40c0-0.41,0.02-0.82,0.06-1.23C27.08,38.92,26.04,39,25,39c-3.2,0-6.4-0.7-8-2.09V40c0,1.7,3.6,3,8,3
		c1.18,0,2.31-0.09,3.32-0.27C28.11,41.85,28,40.94,28,40z M8,39c-3.2,0-6.4-0.7-8-2.09V40c0,1.7,3.6,3,8,3s8-1.3,8-3v-3.09
		C14.4,38.3,11.2,39,8,39z M25,34c-3.2,0-6.4-0.7-8-2.09V35c0,1.7,3.6,3,8,3c1.14,0,2.22-0.09,3.21-0.25
		c0.3-1.59,0.92-3.08,1.79-4.38C28.51,33.79,26.75,34,25,34z M8,34c-3.2,0-6.4-0.7-8-2.09V35c0,1.7,3.6,3,8,3s8-1.3,8-3v-3.09
		C14.4,33.3,11.2,34,8,34z M25,27c-4.42,0-8,1.34-8,3c0,1.66,3.58,3,8,3c2.46,0,4.67-0.42,6.13-1.07l1.83-1.64
		C32.99,30.19,33,30.1,33,30C33,28.34,29.42,27,25,27z M34,26.91v2.7c0.94-0.54,1.95-0.96,3.02-1.23
		C35.78,28.03,34.73,27.54,34,26.91z M44.46,28.86c1.59,0.64,3.02,1.61,4.18,2.83C49.5,31.21,50,30.63,50,30v-3.09
		C48.81,27.94,46.75,28.59,44.46,28.86z M8,29c-3.2,0-6.4-0.7-8-2.09V30c0,1.7,3.6,3,8,3s8-1.3,8-3v-3.09C14.4,28.3,11.2,29,8,29z
		 M42,24c-3.2,0-6.4-0.7-8-2.09V25c0,1.7,3.6,3,8,3s8-1.3,8-3v-3.09C48.4,23.3,45.2,24,42,24z M8,24c-3.2,0-6.4-0.7-8-2.09V25
		c0,1.7,3.6,3,8,3s8-1.3,8-3v-3.09C14.4,23.3,11.2,24,8,24z M8,17c-4.42,0-8,1.34-8,3c0,1.66,3.58,3,8,3s8-1.34,8-3
		C16,18.34,12.42,17,8,17z M42,19c-3.2,0-6.4-0.7-8-2.09V20c0,1.7,3.6,3,8,3s8-1.3,8-3v-3.09C48.4,18.3,45.2,19,42,19z M42,14
		c-3.2,0-6.4-0.7-8-2.09V15c0,1.7,3.6,3,8,3s8-1.3,8-3v-3.09C48.4,13.3,45.2,14,42,14z M42,9c-3.2,0-6.4-0.7-8-2.09V10
		c0,1.7,3.6,3,8,3s8-1.3,8-3V6.91C48.4,8.3,45.2,9,42,9z M42,2c-4.42,0-8,1.34-8,3c0,1.66,3.58,3,8,3s8-1.34,8-3
		C50,3.34,46.42,2,42,2z"/>
	<g>
		<path d="M40,30c-5.52,0-10,4.48-10,10c0,5.52,4.48,10,10,10s10-4.48,10-10C50,34.48,45.52,30,40,30z M43.66,44.97h-7.59v-1.79
			c1.2-0.16,2.01-1.07,2.03-2.27c0-0.14-0.03-0.28-0.06-0.4h-1.93v-1.58h1.48c-0.23-0.61-0.38-1.12-0.38-1.7
			c0-1.75,1.38-2.77,3.77-2.77c0.9,0,1.61,0.08,2.23,0.24v1.8c-0.65-0.15-1.24-0.22-1.92-0.22c-1.21,0-1.96,0.53-1.96,1.39
			c0,0.45,0.1,0.85,0.27,1.26h2.75v1.58h-2.32c0.03,0.12,0.06,0.24,0.06,0.38c0.04,0.84-0.37,1.64-1.08,2.02v0.14h4.65V44.97z"/>
	</g>
</g>
</svg>