<?xml version="1.0" encoding="iso-8859-1"?><!-- Generator: Adobe Illustrator 23.0.3, SVG Export Plug-In . SVG Version: 6.00 Build 0)  --><svg xmlns="http://www.w3.org/2000/svg" xmlns:xlink="http://www.w3.org/1999/xlink" viewBox="0 0 50 50" width="500px" height="500px"><g><g><path style="fill:none;stroke:#000000;stroke-width:2;stroke-linejoin:round;stroke-miterlimit:10;" d="M28,4c0-1.657-1.343-3-3-3s-3,1.343-3,3h-5v4c0,1.105,0.895,2,2,2h12c1.105,0,2-0.895,2-2V4H28z"/></g></g><g id="IOS_copy_18_"><path d="M40,50c-5.5,0-10-4.5-10-10s4.5-10,10-10s10,4.5,10,10S45.5,50,40,50z M40,32c-4.4,0-8,3.6-8,8s3.6,8,8,8s8-3.6,8-8S44.4,32,40,32z M41,40.5V34h-2v5.5l-3.6,2.7l1.2,1.6L41,40.5z"/></g><g><path d="M41,6v22.05c0.686,0.057,1.352,0.176,2,0.343V6c0-1.654-1.346-3-3-3h-7v2h7C40.551,5,41,5.448,41,6z"/><path d="M29.618,46H10c-0.551,0-1-0.448-1-1V6c0-0.552,0.449-1,1-1h7V3h-7C8.346,3,7,4.346,7,6v39c0,1.654,1.346,3,3,3h21.074C30.523,47.386,30.034,46.718,29.618,46z"/></g><path d="M30.989,32.093C30.991,32.027,31,31.967,31,31.9c0-3.3-2.7-4.2-5.3-4.8c-2.1-0.5-4-1-4-3.1c0-0.9,0.4-2.9,3.4-2.9c2.1,0,3.1,1.3,3.4,2.9h2c-0.6-2.2-1.6-4.2-4.5-4.7V17h-2v2.2c-1.6,0.2-4.5,1.6-4.5,5c0,6.4,9.3,3.1,9.3,7.9c0,1.6-0.7,3.1-3.8,3.1s-4-2.4-4-3.7h-2c0.3,4.3,3.3,5.3,5,5.6V39h2v-1.9c0.643-0.043,1.654-0.272,2.6-0.833C29.11,34.709,29.932,33.297,30.989,32.093z"/></svg>