<?xml version="1.0" encoding="iso-8859-1"?><!-- Generator: Adobe Illustrator 22.1.0, SVG Export Plug-In . SVG Version: 6.00 Build 0)  --><svg xmlns="http://www.w3.org/2000/svg" xmlns:xlink="http://www.w3.org/1999/xlink" viewBox="0 0 50 50" width="500px" height="500px"><g></g><path d="M13.671,24.718c-0.377-0.371-0.983-0.599-1.821-0.686c-0.264-0.029-0.925-0.08-1.984-0.152l-0.494-0.036C9.157,23.83,8.983,23.782,8.851,23.7c-0.184-0.115-0.276-0.357-0.276-0.723c0-0.404,0.104-0.667,0.31-0.788C9.093,22.069,9.517,22,10.156,22c0.658,0,1.061,0.114,1.206,0.322C11.457,22.464,11.5,22.587,11.5,23H14v-0.375c0-1.355-0.556-2.149-1.622-2.444C11.941,20.061,11.209,20,10.181,20c-0.653,0-1.247,0.024-1.782,0.073c-0.643,0.053-1.171,0.231-1.584,0.534c-0.282,0.197-0.486,0.486-0.613,0.866C6.075,21.853,6,22.37,6,23c0,0.828,0.129,1.435,0.364,1.844c0.267,0.481,0.801,0.798,1.603,0.953c0.304,0.054,0.848,0.109,1.631,0.166c0.975,0.067,1.521,0.121,1.638,0.159c0.314,0.097,0.471,0.366,0.471,0.808c0,0.198-0.019,0.432-0.056,0.557c-0.071,0.203-0.218,0.349-0.444,0.44C11.081,27.976,10.788,28,10.328,28H9.428c-0.24-0.005-0.443-0.051-0.612-0.137c-0.244-0.125-0.366-0.479-0.366-0.915c0-0.048,0,0.018,0-0.073H6c0,0.818,0.058,1.266,0.176,1.617c0.211,0.63,0.648,1.049,1.31,1.255C8.026,29.916,8.753,30,10.125,30c0.822,0,1.661-0.039,2.061-0.116c0.953-0.183,1.566-0.618,1.839-1.307c0.15-0.376,0.225-0.968,0.225-1.778c0-0.351-0.016-0.667-0.049-0.947C14.144,25.386,13.968,25.008,13.671,24.718z"/><path d="M34.468,23.651c0-0.844-0.073-1.476-0.219-1.895c-0.284-0.799-0.837-1.329-1.661-1.587C32.227,20.056,31.702,20,31.014,20H26v10l2.691,0l0-2.723c0,0,2.744,0,3,0c0.375,0,0.772-0.057,0.875-0.081c0.82-0.191,1.374-0.677,1.66-1.456C34.387,25.295,34.468,24.665,34.468,23.651z M31.66,24.351c-0.053,0.263-0.16,0.438-0.319,0.525c-0.116,0.064-0.44,0.105-0.972,0.124h-1.678v-2.812h1.7c0.275,0,0.449,0.005,0.522,0.015c0.367,0.064,0.599,0.238,0.696,0.525c0.068,0.205,0.102,0.518,0.102,0.941C31.711,24.014,31.694,24.176,31.66,24.351z"/><path d="M40.99,20h-4.017L34,30h2.72l0.478-1.728h3.596L41.303,30H44L40.99,20z M37.771,26.324L39,22l1.266,4.324H37.771z"/><path d="M21.436,20c-1.037,0-2.035,0.304-2.886,0.878c-0.823,0.555-1.454,1.327-1.83,2.23h-1.01L15,24.633h1.356c-0.009,0.129-0.016,0.25-0.016,0.36c0,0.146,0.009,0.296,0.022,0.446h-0.648L15,27h1.75c0.807,1.836,2.644,2.986,4.686,2.986c1.028,0,2.019-0.299,2.867-0.865l0.019-0.013v-1.902l-0.075,0.086c-0.668,0.763-1.63,1.2-2.638,1.2c-1.156,0-2.227-0.539-2.886-1.493h3.652l0.686-1.5l0.029-0.061h-0.068h-4.893c-0.022-0.162-0.036-0.326-0.036-0.487c0-0.105,0.006-0.212,0.016-0.318h5.356l0.71-1.525h-5.562c0.637-1.048,1.776-1.698,2.997-1.698c1.06,0,2.053,0.475,2.725,1.303l0.043,0.054L25,21.426l-0.022-0.022C24.022,20.499,22.764,20,21.436,20z"/><path style="fill:none;stroke:#000000;stroke-width:2;stroke-miterlimit:10;" d="M45,42H5c-2.209,0-4-1.791-4-4V12c0-2.209,1.791-4,4-4h40c2.209,0,4,1.791,4,4v26C49,40.209,47.209,42,45,42z"/></svg>