<?xml version="1.0" encoding="iso-8859-1"?><!-- Generator: Adobe Illustrator 23.0.3, SVG Export Plug-In . SVG Version: 6.00 Build 0)  --><svg xmlns="http://www.w3.org/2000/svg" xmlns:xlink="http://www.w3.org/1999/xlink" viewBox="0 0 50 50" width="500px" height="500px"><line style="fill:none;stroke:#000000;stroke-width:2;stroke-linecap:round;stroke-linejoin:round;stroke-miterlimit:10;" x1="4.9" y1="4.9" x2="44.9" y2="44.9"/><g><path d="M18.9,35.3l0.1,0.1c0.5-0.2,1-0.5,1.6-0.7c0.5-0.2,1.1-0.3,1.7-0.3c0.7,0,1.4,0.1,1.9,0.2c0.5,0.1,1,0.3,1.5,0.5s0.9,0.3,1.4,0.5c0.4,0.1,1,0.2,1.5,0.2c0.7,0,1.4-0.2,2.1-0.6c0.063-0.036,0.12-0.072,0.181-0.108l-9.071-9.071c0.197,0.397,0.394,0.891,0.59,1.579c0.1,0.6,0.2,1.2,0.2,1.7c0,0.6-0.1,1.2-0.3,1.8c-0.2,0.6-0.5,1.1-0.8,1.6s-0.7,1-1.2,1.4C19.9,34.5,19.4,35,18.9,35.3z"/><path d="M17.068,18.451c0.092-0.752,0.286-1.428,0.632-2.051c0.4-0.9,1-1.6,1.7-2.1c0.7-0.6,1.5-1,2.4-1.3c0.9-0.3,1.9-0.4,2.8-0.4c2.5,0,4.4,0.7,5.8,2.1c1.4,1.4,2,3.4,2,5.9h-2.1c0-1.8-0.5-3.3-1.4-4.4c-1-1.2-2.4-1.7-4.2-1.7c-0.7,0-1.4,0.1-2,0.3c-0.7,0.2-1.3,0.5-1.8,1c-0.5,0.4-0.9,1-1.2,1.6c-0.3,0.7-0.5,1.4-0.5,2.3c0,0.367,0.041,0.684,0.093,0.976l4.224,4.224l1.1,1.1l15.931,15.931C45.125,37.724,48,31.692,48,25C48,12.318,37.683,2,25,2C18.308,2,12.276,4.875,8.069,9.452L17.068,18.451z"/><path d="M32.223,36.434C31.909,36.637,31.594,36.832,31.3,37c-0.8,0.3-1.6,0.5-2.7,0.5c-0.7,0-1.4-0.1-1.9-0.2c-0.6-0.1-1.1-0.3-1.6-0.5s-1-0.3-1.6-0.5c-0.5-0.1-1.1-0.2-1.8-0.2c-0.4,0-0.8,0-1.1,0.1c-0.3,0.1-0.6,0.2-0.9,0.3c-0.3,0.1-0.5,0.3-0.8,0.4c-0.3,0.2-0.6,0.4-0.9,0.6l-1.2-1.8c0.5-0.4,1-0.8,1.4-1.3c0.5-0.5,0.9-0.9,1.2-1.4c0.3-0.5,0.6-1,0.8-1.6c0.2-0.6,0.3-1.2,0.3-1.9c0-0.5-0.1-1.1-0.3-1.8C20,27,19.8,26.4,19.5,26h-2.7v-1.1h2c-0.5-0.8-1-1.7-1.3-2.6c-0.13-0.292-0.219-0.586-0.293-0.882L6.778,10.989C3.786,14.872,2,19.73,2,25c0,12.682,10.317,23,23,23c5.27,0,10.128-1.786,14.011-4.778L32.223,36.434z"/></g></svg>