<?xml version="1.0" encoding="iso-8859-1"?><!-- Generator: Adobe Illustrator 22.0.1, SVG Export Plug-In . SVG Version: 6.00 Build 0)  --><svg xmlns="http://www.w3.org/2000/svg" xmlns:xlink="http://www.w3.org/1999/xlink" viewBox="0 0 50 50" width="500px" height="500px"><g></g><polyline style="fill:none;stroke:#000000;stroke-width:2;stroke-linejoin:round;stroke-miterlimit:10;" points="9,24 9,12 41,12 41,24 "/><line style="fill:none;stroke:#000000;stroke-width:2;stroke-linecap:round;stroke-linejoin:round;stroke-miterlimit:10;" x1="10" y1="8" x2="40" y2="8"/><line style="fill:none;stroke:#000000;stroke-width:2;stroke-linecap:round;stroke-linejoin:round;stroke-miterlimit:10;" x1="11" y1="4" x2="39" y2="4"/><circle cx="35.5" cy="17.5" r="1.5"/><path d="M44,26H6c-0.553,0-1,0.447-1,1v19c0,0.553,0.447,1,1,1h38c0.553,0,1-0.447,1-1V27C45,26.447,44.553,26,44,26z M29,32h-8c-0.553,0-1-0.447-1-1s0.447-1,1-1h8c0.553,0,1,0.447,1,1S29.553,32,29,32z"/><path d="M28.414,24l-7.707-7.707c-0.194-0.194-0.466-0.287-0.736-0.293c-0.275,0.009-0.535,0.13-0.718,0.336L12.44,24H28.414z"/><path d="M31.707,18.293c-0.391-0.391-1.023-0.391-1.414,0l-2.379,2.379l1.914,1.914L31.242,24h3.343h2.828L31.707,18.293z"/></svg>