<?xml version="1.0" encoding="iso-8859-1"?><!-- Generator: Adobe Illustrator 23.0.3, SVG Export Plug-In . SVG Version: 6.00 Build 0)  --><svg xmlns="http://www.w3.org/2000/svg" xmlns:xlink="http://www.w3.org/1999/xlink" viewBox="0 0 50 50" width="500px" height="500px"><polyline style="fill:none;stroke:#000000;stroke-width:2;stroke-linecap:round;stroke-linejoin:round;stroke-miterlimit:10;" points="2,21 25,3 48,21 "/><polyline style="fill:none;stroke:#000000;stroke-width:2;stroke-linecap:round;stroke-linejoin:round;stroke-miterlimit:10;" points="45,18.667 45,47 5,47 5,18.667 "/><g><g><path style="fill:none;stroke:#000000;stroke-width:2;stroke-linecap:round;stroke-miterlimit:10;" d="M31,30c0-3.314-2.686-6-6-6s-6,2.686-6,6c0,2.22,1.208,4.153,3,5.191V38c0,1.105,0.895,2,2,2h2c1.105,0,2-0.895,2-2v-2.809C29.792,34.153,31,32.22,31,30z"/></g></g><path d="M23,40h4c0,1.105-0.895,2-2,2S23,41.105,23,40z"/><line style="fill:none;stroke:#000000;stroke-width:2;stroke-linejoin:round;stroke-miterlimit:10;" x1="25" y1="35" x2="28" y2="35"/><circle cx="35" cy="30" r="1"/><circle cx="39" cy="30" r="1"/><circle cx="37" cy="37" r="1"/><circle cx="34" cy="25" r="1"/><circle cx="37" cy="23" r="1"/><circle cx="34" cy="35" r="1"/><circle cx="15" cy="30" r="1"/><circle cx="11" cy="30" r="1"/><circle cx="13" cy="37" r="1"/><circle cx="16" cy="25" r="1"/><circle cx="13" cy="23" r="1"/><circle cx="16" cy="35" r="1"/></svg>