<?xml version="1.0" encoding="iso-8859-1"?><!-- Generator: Adobe Illustrator 23.0.3, SVG Export Plug-In . SVG Version: 6.00 Build 0)  --><svg xmlns="http://www.w3.org/2000/svg" xmlns:xlink="http://www.w3.org/1999/xlink" viewBox="0 0 50 50" width="500px" height="500px"><line style="fill:none;stroke:#000000;stroke-width:2;stroke-linecap:round;stroke-linejoin:round;stroke-miterlimit:10;" x1="7" y1="24" x2="43" y2="24"/><g><path d="M20,14c-1.654,0-3,1.346-3,3v7h4V14H20z"/><path d="M30,14h-7v10h10v-7C33,15.346,31.654,14,30,14z"/></g><path d="M35,3H15c-1.654,0-3,1.346-3,3v18h2V10h22v14h2V6C38,4.346,36.654,3,35,3z"/><path d="M36,27v12H14V27h-2v17c0,1.654,1.346,3,3,3h20c1.654,0,3-1.346,3-3V27H36z M28,44h-6c-0.552,0-1-0.447-1-1s0.448-1,1-1h6c0.552,0,1,0.447,1,1S28.552,44,28,44z"/><g><path d="M21,27h-4v5c0,1.654,1.346,3,3,3h1V27z"/><path d="M23,27v8h7c1.654,0,3-1.346,3-3v-5H23z"/></g></svg>