<?xml version="1.0" encoding="iso-8859-1"?>
<!-- Generator: Adobe Illustrator 24.1.2, SVG Export Plug-In . SVG Version: 6.00 Build 0)  -->
<svg version="1.1" xmlns="http://www.w3.org/2000/svg" xmlns:xlink="http://www.w3.org/1999/xlink" x="0px" y="0px"
	 viewBox="0 0 50 50" style="enable-background:new 0 0 50 50;" xml:space="preserve">
<g id="Layer_10" style="display:none;">
	<g style="opacity:0.05;">
		<g style="display:inline;">
			<circle style="fill:#FFFFFF;" cx="25" cy="25" r="21.5"/>
			<path d="M25,4c11.579,0,21,9.421,21,21s-9.421,21-21,21S4,36.579,4,25S13.421,4,25,4 M25,3C12.85,3,3,12.85,3,25s9.85,22,22,22
				s22-9.85,22-22S37.15,3,25,3L25,3z"/>
		</g>
		<g style="display:inline;">
			<rect x="5.5" y="5.5" style="fill:#FFFFFF;" width="39" height="39"/>
			<path d="M44,6v38H6V6H44 M45,5H5v40h40V5L45,5z"/>
		</g>
	</g>
</g>
<g id="filled">
</g>
<g id="outlined">
</g>
<g id="rounded">
</g>
<g id="two_x5F_tone">
</g>
<g id="sharp">
</g>
<g id="win10">
</g>
<g id="ios_x5F_out">
	
		<line style="fill:none;stroke:#000000;stroke-width:2;stroke-linecap:round;stroke-linejoin:round;stroke-miterlimit:10;" x1="21" y1="12" x2="31" y2="12"/>
	
		<line style="fill:none;stroke:#000000;stroke-width:2;stroke-linecap:round;stroke-linejoin:round;stroke-miterlimit:10;" x1="37" y1="12" x2="39" y2="12"/>
	
		<line style="fill:none;stroke:#000000;stroke-width:2;stroke-linecap:round;stroke-linejoin:round;stroke-miterlimit:10;" x1="21.5" y1="18" x2="27" y2="18"/>
	
		<line style="fill:none;stroke:#000000;stroke-width:2;stroke-linecap:round;stroke-linejoin:round;stroke-miterlimit:10;" x1="37" y1="18" x2="39" y2="18"/>
	
		<line style="fill:none;stroke:#000000;stroke-width:2;stroke-linecap:round;stroke-linejoin:round;stroke-miterlimit:10;" x1="24" y1="24" x2="31" y2="24"/>
	
		<line style="fill:none;stroke:#000000;stroke-width:2;stroke-linecap:round;stroke-linejoin:round;stroke-miterlimit:10;" x1="37" y1="24" x2="39" y2="24"/>
	
		<line style="fill:none;stroke:#000000;stroke-width:2;stroke-linecap:round;stroke-linejoin:round;stroke-miterlimit:10;" x1="37" y1="30" x2="39" y2="30"/>
	
		<line style="fill:none;stroke:#000000;stroke-width:2;stroke-linecap:round;stroke-linejoin:round;stroke-miterlimit:10;" x1="23" y1="30" x2="27" y2="30"/>
	<circle cx="21" cy="40" r="1"/>
	<circle cx="24" cy="40" r="1"/>
	<circle cx="27" cy="40" r="1"/>
	<circle cx="30" cy="40" r="1"/>
	<circle cx="33" cy="40" r="1"/>
	<circle cx="36" cy="40" r="1"/>
	<circle cx="39" cy="40" r="1"/>
	<polyline style="fill:none;stroke:#000000;stroke-width:2;stroke-linejoin:round;stroke-miterlimit:10;" points="16,15.192 16,3 
		18,4 20,3 22,4 24,3 26,4 28,3 30,4 32,3 34,4 36,3 38,4 40,3 42,4 44,3 44,46 42,47 40,46 38,47 36,46 34,47 32,46 30,47 28,46 
		26,47 24,46 22,47 20,46 18,47 16,46 16,34.808 	"/>
	<path style="fill:none;stroke:#000000;stroke-width:2;stroke-miterlimit:10;" d="M14.042,15c-5.523,0-10,4.477-10,10
		s4.477,10,10,10s10-4.477,10-10S19.565,15,14.042,15z"/>
	<path d="M18.042,27.642c0.001-2.391-2.004-2.851-3.614-3.221c-1.446-0.332-2.263-0.565-2.263-1.48c0-1.095,0.606-1.605,1.907-1.605
		c1.416,0,1.788,0.871,1.839,1.664h1.855c0.001-0.776-0.314-1.61-0.869-2.218c-0.486-0.531-1.164-0.873-1.897-1.01V18h-1.958v1.77
		c-2.648,0.444-2.732,2.796-2.732,3.075c0,2.476,2.004,2.924,3.615,3.284c1.446,0.324,2.263,0.555,2.263,1.527
		c0,0.583-0.279,1.562-2.145,1.562c-0.041,0-1.01-0.007-1.618-0.615c-0.359-0.359-0.532-0.877-0.515-1.54L11.911,27h-1.857
		l0.002,0.064c0.06,2.1,1.041,3.301,2.987,3.671V32H15v-1.235C17.846,30.303,18.042,28.097,18.042,27.642z"/>
</g>
<g id="ios_x5F_filled">
</g>
<g id="color">
</g>
<g id="cute_x5F_color">
</g>
<g id="cute_x5F_out">
</g>
</svg>