<?xml version="1.0" encoding="iso-8859-1"?><!-- Generator: Adobe Illustrator 20.0.0, SVG Export Plug-In . SVG Version: 6.00 Build 0)  --><svg xmlns="http://www.w3.org/2000/svg" xmlns:xlink="http://www.w3.org/1999/xlink" viewBox="0 0 50 50" width="500px" height="500px"><path style="fill:none;stroke:#000000;stroke-width:2;stroke-linecap:round;stroke-linejoin:round;stroke-miterlimit:10;" d="M26.09,31.249C25.102,30.658,24.342,29.959,24,29c0-1,0.08-3,0.08-4c0.673-0.368,1.877-2.71,2.08-4.688c0.529-0.045,1.361-0.582,1.606-2.703c0.131-1.138-0.282-1.855-0.709-1.981C28.649,13.513,28.388,4.9,22.383,4.9L21.463,3c-8.632,0-11.778,6.824-9.278,12.628c-0.317,0.202-0.841,0.843-0.709,1.981c0.245,2.121,1.077,2.658,1.606,2.703C13.284,22.29,14.326,24.632,15,25c0,1,0,3,0,4c-1.613,4.518-11.503,3.287-12.006,12h23.077"/><path style="fill:none;stroke:#000000;stroke-width:2;stroke-linecap:round;stroke-linejoin:round;stroke-miterlimit:10;" d="M35.189,24.927c-0.113-1.302-0.07-2.21-0.07-3.4c0.566-0.31,1.58-2.282,1.752-3.948c0.445-0.038,1.147-0.49,1.352-2.277c0.111-0.959-0.237-1.562-0.597-1.668C38.967,11.853,38.747,4.6,33.69,4.6L32.915,3c-3.41,0-5.803,1.265-7.166,3.112"/><circle style="fill:none;stroke:#000000;stroke-width:2;stroke-miterlimit:10;" cx="36" cy="36" r="11"/><g><circle style="fill:none;stroke:#000000;stroke-width:2;stroke-miterlimit:10;stroke-dasharray:0.9848,1.9696;" cx="36" cy="36" r="8"/></g><g><path d="M35.049,32.901l-0.335,1.903l0.024,0.024c0.231-0.232,0.676-0.647,1.64-0.647c2.281,0,2.586,2.271,2.586,2.85c0,1.104-0.828,3.004-3.112,3.004c-2.404,0-3.129-1.639-3.113-2.646h1.7c0.04,0.383,0.317,1.257,1.377,1.257c1.139,0,1.449-1.095,1.449-1.615c0-1.464-1.178-1.569-1.449-1.569c-0.759,0-1.113,0.439-1.281,0.671h-1.532l0.826-4.633h4.681v1.401H35.049z"/></g></svg>