<?xml version="1.0" encoding="iso-8859-1"?><!-- Generator: Adobe Illustrator 19.1.1, SVG Export Plug-In . SVG Version: 6.00 Build 0)  --><svg xmlns="http://www.w3.org/2000/svg" xmlns:xlink="http://www.w3.org/1999/xlink" viewBox="0 0 50 50" width="500px" height="500px"><g><path d="M44,4H18.601l1.083,0.438c0.824,0.333,1.455,1.009,1.73,1.855c0.274,0.845,0.162,1.763-0.31,2.517L20.36,10l0.745,1.191c0.341,0.547,0.488,1.18,0.442,1.809H46v24H5V20.245c-0.097,0.01-0.193,0.036-0.29,0.036c-0.617,0-1.207-0.19-1.71-0.54V42c0,2.206,1.794,4,4,4h37c2.206,0,4-1.794,4-4V8C48,5.794,46.206,4,44,4z"/><path d="M19.511,6.91c-0.091-0.281-0.302-0.507-0.577-0.618l-2.461-0.995l-0.186-2.648c-0.021-0.295-0.17-0.565-0.41-0.739c-0.107-0.078-0.229-0.124-0.355-0.154c-0.035-0.008-0.07-0.012-0.106-0.017c-0.122-0.016-0.247-0.021-0.369,0.009l-2.576,0.642l-1.706-2.033c-0.19-0.227-0.478-0.34-0.766-0.34s-0.576,0.113-0.766,0.34L7.528,2.391L4.952,1.749C4.83,1.718,4.705,1.723,4.582,1.739C4.547,1.744,4.512,1.747,4.477,1.756C4.351,1.786,4.229,1.832,4.122,1.91c-0.239,0.174-0.389,0.444-0.41,0.739L3.527,5.297L1.065,6.292C0.791,6.403,0.58,6.629,0.489,6.91C0.397,7.191,0.435,7.499,0.592,7.75L1.999,10l-1.407,2.25c-0.157,0.251-0.194,0.558-0.103,0.839c0.091,0.281,0.302,0.507,0.577,0.618l2.461,0.995l0.186,2.648c0.021,0.295,0.17,0.565,0.41,0.739c0.172,0.126,0.379,0.191,0.588,0.191c0.081,0,0.162-0.01,0.242-0.03l2.576-0.642l1.706,2.033C9.424,19.869,9.705,20,10,20s0.576-0.131,0.766-0.357l1.706-2.033l2.576,0.642c0.121,0.03,0.246,0.025,0.368,0.009c0.036-0.005,0.071-0.008,0.106-0.017c0.126-0.03,0.249-0.076,0.356-0.154c0.239-0.174,0.389-0.444,0.41-0.739l0.186-2.648l2.461-0.995c0.274-0.111,0.485-0.337,0.577-0.618c0.091-0.281,0.054-0.588-0.103-0.839L18.001,10l1.407-2.25C19.565,7.499,19.603,7.191,19.511,6.91z"/></g></svg>