<?xml version="1.0" encoding="iso-8859-1"?><!-- Generator: Adobe Illustrator 22.1.0, SVG Export Plug-In . SVG Version: 6.00 Build 0)  --><svg xmlns="http://www.w3.org/2000/svg" xmlns:xlink="http://www.w3.org/1999/xlink" viewBox="0 0 50 50" width="500px" height="500px"><g><path d="M29.08,45H2.13c0.75-4.02,4.3-5.43,7.74-6.8c2.74-1.09,5.33-2.11,6.19-4.45l0.06-0.25c0.11-1.32,0.1-2.33,0.1-3.41l-0.01-0.93l0.02-0.59l-0.53-0.29c-0.44-0.3-1.61-2.34-1.81-4.16l-0.08-0.83l-0.83-0.06c-0.13-0.01-0.64-0.38-0.83-1.97c-0.1-0.82,0.3-1.11,0.3-1.12l0.63-0.38l-0.19-0.72c-1.22-4.74-1.01-8.37,0.61-10.49c1.24-1.63,3.4-2.49,6.41-2.55c1.87,0,3.26,0.47,3.71,1.27l0.24,0.43l0.49,0.07c1.33,0.18,2.27,0.75,2.88,1.74c1.56,2.5,0.67,7.13-0.1,9.47l-0.21,0.74l0.63,0.42c0,0.01,0.4,0.3,0.3,1.12c-0.19,1.59-0.7,1.96-0.83,1.97l-0.83,0.06l-0.08,0.83c-0.2,1.83-1.33,3.87-1.73,4.15l-0.54,0.28v1.55c-0.01,1.07-0.02,2.08,0.1,3.4l0.05,0.25c0.66,1.78,2.32,2.8,4.29,3.67c0.14-0.66,0.34-1.3,0.59-1.92c-1.42-0.64-2.53-1.33-2.95-2.32c-0.1-1.15-0.09-2.04-0.08-3.07v-0.49c0.9-0.92,1.82-2.88,2.16-4.63c0.72-0.37,1.58-1.27,1.84-3.49c0.13-1.1-0.19-1.95-0.63-2.5c0.53-1.84,1.6-6.4,0.15-9.71C29.24,9,29.1,8.72,28.93,8.45c-0.21-0.35-0.46-0.66-0.73-0.94c-0.8-0.84-1.84-1.39-3.12-1.65C24.13,4.66,22.32,4,19.89,4c-3.67,0.07-6.35,1.19-7.99,3.34c-1.95,2.57-2.32,6.48-1.09,11.62c-0.45,0.56-0.78,1.42-0.65,2.54c0.27,2.22,1.12,3.12,1.84,3.49c0.35,1.75,1.29,3.72,2.21,4.64l0.01,0.48c0,1.02,0.01,1.92-0.08,3.07c-0.62,1.42-2.65,2.23-5,3.16c-3.91,1.55-8.77,3.48-9.14,9.6L-0.06,47h30.31C29.8,46.38,29.41,45.71,29.08,45z"/></g><g><path d="M41.46,18.41c0.37,0.49,0.62,1.2,0.51,2.12c-0.22,1.82-0.95,2.61-1.57,2.95c-0.28,1.35-1,2.95-1.79,3.77l-0.01,0.32v0.51c-0.68,0.08-1.35,0.22-1.99,0.41c-0.01-0.32-0.01-0.63-0.01-0.94l0.01-1.38l0.54-0.28c0.29-0.22,1.21-1.8,1.37-3.26l0.09-0.82l0.82-0.07c0.07-0.02,0.42-0.34,0.56-1.46c0.07-0.54-0.18-0.73-0.18-0.73l-0.59-0.43l0.16-0.74c0.6-1.78,1.09-5.36-0.16-7.38c-0.55-0.89-1.38-1.4-2.54-1.55l-0.49-0.07l-0.24-0.42C35.61,8.37,34.46,8,32.95,8c-1.88,0.03-3.05,0.38-3.37,1.01c-0.06,0.11-0.13,0.21-0.22,0.28c-0.29,0.28-0.74,0.35-1.12,0.16C27.75,9.2,27.55,8.6,27.8,8.11c0.11-0.22,0.25-0.42,0.4-0.6c1.12-1.29,3.19-1.48,4.74-1.51c2.06,0,3.61,0.54,4.45,1.54c1.55,0.31,2.73,1.12,3.53,2.4C42.5,12.5,42.04,16.3,41.46,18.41z"/></g><g id="IOS_copy_3_"><path d="M40,50c-5.5,0-10-4.5-10-10s4.5-10,10-10s10,4.5,10,10S45.5,50,40,50z M40,32c-4.4,0-8,3.6-8,8s3.6,8,8,8s8-3.6,8-8S44.4,32,40,32z"/></g><polygon points="41,40.5 41,34 39,34 39,39.5 35.4,42.2 36.6,43.8 "/></svg>