<?xml version="1.0" encoding="iso-8859-1"?><!-- Generator: Adobe Illustrator 23.0.3, SVG Export Plug-In . SVG Version: 6.00 Build 0)  --><svg xmlns="http://www.w3.org/2000/svg" xmlns:xlink="http://www.w3.org/1999/xlink" viewBox="0 0 50 50" width="500px" height="500px"><path d="M26.94,0C14.708,0,7.462,6.319,5.973,18.276l-4.605,7.938c-0.775,1.395-0.297,3.09,1.126,3.88l3.447,1.724v4.884c0,2.367,0.991,4.627,2.719,6.202c1.719,1.566,3.949,2.308,6.246,2.096l2.035-0.131V50h24v-6.8c0-3.596,1.149-7.169,3.324-10.334C46.669,29.369,47.94,25.266,47.94,21C47.94,10.848,42.424,0,26.94,0z M31.793,21.207L27,16.414V35h-2V16.414l-4.793,4.793l-1.414-1.414L26,12.586l7.207,7.207L31.793,21.207z"/></svg>