<?xml version="1.0" encoding="iso-8859-1"?><!-- Generator: Adobe Illustrator 21.1.0, SVG Export Plug-In . SVG Version: 6.00 Build 0)  --><svg xmlns="http://www.w3.org/2000/svg" xmlns:xlink="http://www.w3.org/1999/xlink" viewBox="0 0 50 50" width="500px" height="500px"><path d="M25.96,30.858c-0.072-0.794,0-1.348,0-2.074c0.499-0.238,1.319-1.192,1.484-2.348c0,0,0.864-0.542,0.864-1.448c0-0.632-0.211-1.1-0.382-1.272c0.463-1.384,1.256-5.616-1.798-5.616c-0.328-0.574-1.154-1.1-2.251-1.1c-4.389,0.08-4.759,3.46-3.903,6.718c0,0-0.459,0.46-0.435,1.108c0.044,1.224,0.864,1.612,0.864,1.612c0.157,1.138,1.17,2.158,1.532,2.348c0,0.726,0.072,1.28,0,2.074C21.066,33.178,15.27,32.526,15,37h18C32.73,32.526,26.829,33.178,25.96,30.858z"/><g><polygon points="38,16 38,8 10,8 10,46 38,46 38,39.1 40,37.5 40,48 8,48 8,6 40,6 40,17.43 "/></g><g><polygon points="34,2 34,8 32,8 32,4 6,4 6,42 10,42 10,44 4,44 4,2 "/></g><g><g><path d="M49.56,27.5L38,17.86V24h-7v7h7v6.14L49.56,27.5z M33,29v-3h7v-3.86l6.44,5.36L40,32.86V29H33z"/></g></g></svg>