<?xml version="1.0" encoding="iso-8859-1"?><!-- Generator: Adobe Illustrator 23.0.3, SVG Export Plug-In . SVG Version: 6.00 Build 0)  --><svg xmlns="http://www.w3.org/2000/svg" xmlns:xlink="http://www.w3.org/1999/xlink" viewBox="0 0 50 50" width="500px" height="500px"><path style="fill:none;stroke:#000000;stroke-width:2;stroke-linecap:round;stroke-miterlimit:10;" d="M25,49c0-7.8-9-12-17-14"/><path style="fill:none;stroke:#000000;stroke-width:2;stroke-linecap:round;stroke-linejoin:round;stroke-miterlimit:10;" d="M19,40.1c1.3-0.2,2-1.3,2-3c0-2.7-2.6-7.1-9.9-7.1C8.4,30,4.9,30.9,1,32.5C4.2,34.7,3.2,46,12,46C17.2,46,19.7,42.3,19,40.1z"/><path style="fill:none;stroke:#000000;stroke-width:2;stroke-linecap:round;stroke-miterlimit:10;" d="M42,35c-8,2-17,6.2-17,14"/><path style="fill:none;stroke:#000000;stroke-width:2;stroke-linecap:round;stroke-linejoin:round;stroke-miterlimit:10;" d="M38,47c8.8,0,7.8-12.3,11-14.5c-3.9-1.6-7.4-2.5-10.1-2.5c-7.3,0-9.9,4.4-9.9,7.1c0,1.7,0.7,2.8,2,3C30.3,42.3,32.8,47,38,47z"/><circle style="fill:none;stroke:#000000;stroke-width:2;stroke-miterlimit:10;" cx="25" cy="15" r="14"/><line style="fill:none;stroke:#000000;stroke-width:2;stroke-miterlimit:10;" x1="25" y1="29" x2="25" y2="49"/><path style="fill:none;stroke:#000000;stroke-width:2;stroke-linejoin:round;stroke-miterlimit:10;" d="M29,11c0,0,0-4-4-4s-4,3.488-4,3.488c0,4.949,9,3.054,9,8.512c0,0,0,4-5,4s-5-5-5-5"/><line style="fill:none;stroke:#000000;stroke-width:2;stroke-linejoin:round;stroke-miterlimit:10;" x1="25" y1="4" x2="25" y2="7"/><line style="fill:none;stroke:#000000;stroke-width:2;stroke-linejoin:round;stroke-miterlimit:10;" x1="25" y1="26" x2="25" y2="23"/></svg>