<?xml version="1.0" encoding="iso-8859-1"?><!-- Generator: Adobe Illustrator 19.2.1, SVG Export Plug-In . SVG Version: 6.00 Build 0)  --><svg xmlns="http://www.w3.org/2000/svg" xmlns:xlink="http://www.w3.org/1999/xlink" viewBox="0 0 50 50" width="500px" height="500px"><circle style="fill:none;stroke:#000000;stroke-width:2;stroke-linecap:round;stroke-miterlimit:10;" cx="21" cy="21" r="18"/><line style="fill:none;stroke:#000000;stroke-width:2;stroke-linecap:round;stroke-miterlimit:10;" x1="33.729" y1="33.729" x2="47" y2="47"/><path d="M21,6C12.729,6,6,12.729,6,21c0,3.776,1.413,7.221,3.725,9.861L30.861,9.725C28.221,7.413,24.776,6,21,6z M21.004,12.856c-3.527,0-3.967,2.354-3.967,3.432c0,1.54,0.925,2.353,2.245,2.896l-1.896,1.896c-1.654-0.748-2.902-1.99-2.902-4.536c0-4.072,3.389-5.689,5.338-5.922V8h2.364v2.683c1.69,0.285,2.819,1.006,3.617,1.979l-1.619,1.619C23.519,13.42,22.491,12.856,21.004,12.856z"/><path d="M32.275,11.139L11.139,32.275C13.779,34.587,17.224,36,21,36c8.271,0,15-6.729,15-15C36,17.224,34.587,13.779,32.275,11.139z M22.186,31.754V34h-2.364v-2.286c-1.157-0.17-2.796-0.627-4.065-1.936l1.667-1.667c0.726,0.811,1.86,1.423,3.579,1.423c3.656,0,4.513-1.701,4.513-3.63c0-1.833-1.13-2.675-2.664-3.221l1.856-1.856c1.896,0.822,3.36,2.174,3.36,4.823C28.07,30.3,23.939,31.586,22.186,31.754z"/></svg>