<?xml version="1.0" encoding="iso-8859-1"?><!-- Generator: Adobe Illustrator 21.0.1, SVG Export Plug-In . SVG Version: 6.00 Build 0)  --><svg xmlns="http://www.w3.org/2000/svg" xmlns:xlink="http://www.w3.org/1999/xlink" viewBox="0 0 50 50" width="500px" height="500px"><polyline style="fill:none;stroke:#000000;stroke-width:2;stroke-miterlimit:10;" points="25,10 25,5 20,5 20,3 11,3 11,5 6,5 6,29 17,29 "/><line style="fill:none;stroke:#000000;stroke-width:2;stroke-linejoin:round;stroke-miterlimit:10;" x1="19" y1="9" x2="22" y2="9"/><line style="fill:none;stroke:#000000;stroke-width:2;stroke-linejoin:round;stroke-miterlimit:10;" x1="14" y1="9" x2="17" y2="9"/><line style="fill:none;stroke:#000000;stroke-width:2;stroke-linejoin:round;stroke-miterlimit:10;" x1="9" y1="9" x2="12" y2="9"/><line style="fill:none;stroke:#000000;stroke-width:2;stroke-linejoin:round;stroke-miterlimit:10;" x1="14" y1="13" x2="17" y2="13"/><line style="fill:none;stroke:#000000;stroke-width:2;stroke-linejoin:round;stroke-miterlimit:10;" x1="9" y1="13" x2="12" y2="13"/><line style="fill:none;stroke:#000000;stroke-width:2;stroke-linejoin:round;stroke-miterlimit:10;" x1="14" y1="17" x2="17" y2="17"/><line style="fill:none;stroke:#000000;stroke-width:2;stroke-linejoin:round;stroke-miterlimit:10;" x1="9" y1="17" x2="12" y2="17"/><line style="fill:none;stroke:#000000;stroke-width:2;stroke-linejoin:round;stroke-miterlimit:10;" x1="14" y1="21" x2="17" y2="21"/><line style="fill:none;stroke:#000000;stroke-width:2;stroke-linejoin:round;stroke-miterlimit:10;" x1="9" y1="21" x2="12" y2="21"/><line style="fill:none;stroke:#000000;stroke-width:2;stroke-linejoin:round;stroke-miterlimit:10;" x1="14" y1="25" x2="17" y2="25"/><line style="fill:none;stroke:#000000;stroke-width:2;stroke-linejoin:round;stroke-miterlimit:10;" x1="9" y1="25" x2="12" y2="25"/><g><g><polygon style="fill:none;stroke:#000000;stroke-width:2;stroke-miterlimit:10;" points="39,15 39,13 25,13 25,15 20,15 20,47 44,47 44,15 "/></g></g><line style="fill:none;stroke:#000000;stroke-width:2;stroke-linejoin:round;stroke-miterlimit:10;" x1="38" y1="19" x2="41" y2="19"/><line style="fill:none;stroke:#000000;stroke-width:2;stroke-linejoin:round;stroke-miterlimit:10;" x1="33" y1="19" x2="36" y2="19"/><line style="fill:none;stroke:#000000;stroke-width:2;stroke-linejoin:round;stroke-miterlimit:10;" x1="28" y1="19" x2="31" y2="19"/><line style="fill:none;stroke:#000000;stroke-width:2;stroke-linejoin:round;stroke-miterlimit:10;" x1="23" y1="19" x2="26" y2="19"/><line style="fill:none;stroke:#000000;stroke-width:2;stroke-linejoin:round;stroke-miterlimit:10;" x1="38" y1="23" x2="41" y2="23"/><line style="fill:none;stroke:#000000;stroke-width:2;stroke-linejoin:round;stroke-miterlimit:10;" x1="33" y1="23" x2="36" y2="23"/><line style="fill:none;stroke:#000000;stroke-width:2;stroke-linejoin:round;stroke-miterlimit:10;" x1="28" y1="23" x2="31" y2="23"/><line style="fill:none;stroke:#000000;stroke-width:2;stroke-linejoin:round;stroke-miterlimit:10;" x1="23" y1="23" x2="26" y2="23"/><line style="fill:none;stroke:#000000;stroke-width:2;stroke-linejoin:round;stroke-miterlimit:10;" x1="38" y1="27" x2="41" y2="27"/><line style="fill:none;stroke:#000000;stroke-width:2;stroke-linejoin:round;stroke-miterlimit:10;" x1="33" y1="27" x2="36" y2="27"/><line style="fill:none;stroke:#000000;stroke-width:2;stroke-linejoin:round;stroke-miterlimit:10;" x1="28" y1="27" x2="31" y2="27"/><line style="fill:none;stroke:#000000;stroke-width:2;stroke-linejoin:round;stroke-miterlimit:10;" x1="23" y1="27" x2="26" y2="27"/><line style="fill:none;stroke:#000000;stroke-width:2;stroke-linejoin:round;stroke-miterlimit:10;" x1="38" y1="31" x2="41" y2="31"/><line style="fill:none;stroke:#000000;stroke-width:2;stroke-linejoin:round;stroke-miterlimit:10;" x1="33" y1="31" x2="36" y2="31"/><line style="fill:none;stroke:#000000;stroke-width:2;stroke-linejoin:round;stroke-miterlimit:10;" x1="28" y1="31" x2="31" y2="31"/><line style="fill:none;stroke:#000000;stroke-width:2;stroke-linejoin:round;stroke-miterlimit:10;" x1="23" y1="31" x2="26" y2="31"/><line style="fill:none;stroke:#000000;stroke-width:2;stroke-linejoin:round;stroke-miterlimit:10;" x1="38" y1="35" x2="41" y2="35"/><line style="fill:none;stroke:#000000;stroke-width:2;stroke-linejoin:round;stroke-miterlimit:10;" x1="33" y1="35" x2="36" y2="35"/><line style="fill:none;stroke:#000000;stroke-width:2;stroke-linejoin:round;stroke-miterlimit:10;" x1="28" y1="35" x2="31" y2="35"/><line style="fill:none;stroke:#000000;stroke-width:2;stroke-linejoin:round;stroke-miterlimit:10;" x1="23" y1="35" x2="26" y2="35"/><line style="fill:none;stroke:#000000;stroke-width:2;stroke-linejoin:round;stroke-miterlimit:10;" x1="38" y1="39" x2="41" y2="39"/><line style="fill:none;stroke:#000000;stroke-width:2;stroke-linejoin:round;stroke-miterlimit:10;" x1="33" y1="39" x2="36" y2="39"/><line style="fill:none;stroke:#000000;stroke-width:2;stroke-linejoin:round;stroke-miterlimit:10;" x1="28" y1="39" x2="31" y2="39"/><line style="fill:none;stroke:#000000;stroke-width:2;stroke-linejoin:round;stroke-miterlimit:10;" x1="23" y1="39" x2="26" y2="39"/><line style="fill:none;stroke:#000000;stroke-width:2;stroke-linejoin:round;stroke-miterlimit:10;" x1="38" y1="43" x2="41" y2="43"/><line style="fill:none;stroke:#000000;stroke-width:2;stroke-linejoin:round;stroke-miterlimit:10;" x1="33" y1="43" x2="36" y2="43"/><line style="fill:none;stroke:#000000;stroke-width:2;stroke-linejoin:round;stroke-miterlimit:10;" x1="28" y1="43" x2="31" y2="43"/><line style="fill:none;stroke:#000000;stroke-width:2;stroke-linejoin:round;stroke-miterlimit:10;" x1="23" y1="43" x2="26" y2="43"/></svg>