<?xml version="1.0" encoding="iso-8859-1"?>
<!-- Generator: Adobe Illustrator 25.2.1, SVG Export Plug-In . SVG Version: 6.00 Build 0)  -->
<svg version="1.1" id="Layer_1" xmlns="http://www.w3.org/2000/svg" xmlns:xlink="http://www.w3.org/1999/xlink" x="0px" y="0px"
	 viewBox="0 0 50 50" style="enable-background:new 0 0 50 50;" xml:space="preserve">
<g>
</g>
<path style="fill:none;stroke:#000000;stroke-width:2;stroke-miterlimit:10;" d="M17,40c0-2.761-2.239-5-5-5s-5,2.239-5,5"/>
<g>
	<polygon points="23.05,8 22.18,10 17,10 17,8 	"/>
</g>
<g>
	<path d="M40,27.81l2-0.78V46H12c-3.31,0-6-2.69-6-6V9c0-3.31,2.69-6,6-6c2.97,0,5.44,2.16,5.91,5C17.97,8.32,18,8.66,18,9v31h-2V9
		c0-2.21-1.79-4-4-4S8,6.79,8,9v31c0,2.21,1.79,4,4,4h28V27.81z"/>
</g>
<g>
	
		<ellipse style="fill:none;stroke:#000000;stroke-width:2;stroke-linecap:round;stroke-miterlimit:10;" cx="36.047" cy="14" rx="3.013" ry="3"/>
	<path style="fill:none;stroke:#000000;stroke-width:2;stroke-linecap:round;stroke-miterlimit:10;" d="M44.081,14
		c0-0.404-0.04-0.798-0.097-1.186L47,11.017l-1.029-2.61L42.434,9.16c-0.446-0.583-0.97-1.101-1.558-1.543l0.788-3.405l-2.621-1.119
		L37.127,6.08C36.773,6.033,36.414,6,36.047,6c-0.361,0-0.713,0.032-1.06,0.078L33.051,3L30.43,4.025l0.721,3.642
		c-0.506,0.388-0.966,0.831-1.366,1.327L26.217,8.22l-1.124,2.61l3.023,1.944c-0.061,0.401-0.103,0.808-0.103,1.226
		c0,0.372,0.034,0.736,0.084,1.095L25,16.89l1.029,2.61l3.585-0.721c0.419,0.558,0.905,1.06,1.453,1.492l-0.825,3.517l2.621,1.119
		l2.047-2.996C35.282,21.963,35.66,22,36.047,22c0.375,0,0.741-0.034,1.102-0.084L38.949,25l2.621-1.025l-0.694-3.592
		c0.657-0.493,1.234-1.081,1.711-1.749l3.289,0.959L47,16.983l-3.013-1.824C44.042,14.78,44.081,14.395,44.081,14z"/>
</g>
</svg>