<?xml version="1.0" encoding="iso-8859-1"?><!-- Generator: Adobe Illustrator 21.1.0, SVG Export Plug-In . SVG Version: 6.00 Build 0)  --><svg xmlns="http://www.w3.org/2000/svg" xmlns:xlink="http://www.w3.org/1999/xlink" viewBox="0 0 50 50" width="500px" height="500px"><path d="M38.195,50l-2.909-2.815L31.277,48l-0.701-4.236L27,41.866l1.778-3.637L27,34.591l3.576-1.898l0.701-3.987l4.009,0.567l2.909-2.815l2.91,2.815l4.009-0.567l0.7,3.987l3.577,1.898l-1.779,3.637l1.779,3.637l-3.577,1.898l-0.7,3.987l-4.009-0.567L38.195,50z M35.974,45.067l2.222,2.149l2.223-2.149l3.062,0.433l0.534-3.045l2.731-1.449l-1.359-2.778l1.359-2.778l-2.731-1.449l-0.534-3.045l-3.062,0.433l-2.223-2.149l-2.222,2.149l-3.062-0.433l-0.535,3.045l-2.73,1.449l1.358,2.778l-1.358,2.778l2.73,1.449l0.535,3.045L35.974,45.067z"/><g><g><path d="M32,7V4H9v3H4v41h27.3l0.975-3.615l-2.903-3.187l0.319-2.723l-1.456-1.823l3.976-5.372L35,29.349l2-1V7H32z M15,43h-5v-2h5V43z M15,39h-5v-2h5V39z M15,35h-5v-2h5V35z M15,31h-5v-2h5V31z M15,27h-5v-2h5V27z M15,23h-5v-2h5V23z M15,19h-5v-2h5V19z M15,15h-5v-2h5V15z M23,43h-5v-2h5V43z M23,39h-5v-2h5V39z M23,35h-5v-2h5V35z M23,31h-5v-2h5V31z M23,27h-5v-2h5V27z M23,23h-5v-2h5V23z M23,19h-5v-2h5V19z M23,15h-5v-2h5V15z M31,31h-5v-2h5V31z M31,27h-5v-2h5V27z M31,23h-5v-2h5V23z M31,19h-5v-2h5V19z M31,15h-5v-2h5V15z"/></g></g></svg>