<?xml version="1.0" encoding="iso-8859-1"?>
<!-- Generator: Adobe Illustrator 22.1.0, SVG Export Plug-In . SVG Version: 6.00 Build 0)  -->
<svg version="1.1" id="Layer_1" xmlns="http://www.w3.org/2000/svg" xmlns:xlink="http://www.w3.org/1999/xlink" x="0px" y="0px"
	 viewBox="0 0 50 50" style="enable-background:new 0 0 50 50;" xml:space="preserve">
<circle cx="25" cy="32" r="1"/>
<circle cx="18" cy="34" r="1"/>
<circle cx="13" cy="39" r="1"/>
<circle cx="37" cy="39" r="1"/>
<circle cx="32" cy="34" r="1"/>
<circle cx="9.5" cy="11.5" r="1.5"/>
<circle cx="16.5" cy="11.5" r="1.5"/>
<circle style="fill:none;stroke:#000000;stroke-width:2;stroke-miterlimit:10;" cx="13" cy="15" r="10"/>
<path style="fill:none;stroke:#000000;stroke-width:2;stroke-linecap:round;stroke-miterlimit:10;" d="M17,19.019
	C16.206,17.813,14.716,17,13.005,17c-1.685,0-3.156,0.789-3.959,1.966"/>
<circle cx="33.5" cy="11.5" r="1.5"/>
<circle cx="40.5" cy="11.5" r="1.5"/>
<circle style="fill:none;stroke:#000000;stroke-width:2;stroke-miterlimit:10;" cx="37" cy="15" r="10"/>
<path style="fill:none;stroke:#000000;stroke-width:2;stroke-linecap:round;stroke-miterlimit:10;" d="M33.047,17
	c0.794,1.206,2.284,2.019,3.995,2.019c1.685,0,3.156-0.789,3.959-1.966"/>
<path style="fill:none;stroke:#000000;stroke-width:2;stroke-linecap:round;stroke-linejoin:round;stroke-miterlimit:10;" d="
	M42.514,42C40.695,33.989,33.562,28,25,28S9.305,33.989,7.486,42"/>
<path d="M26.999,44.993L28,34l-4.813,10.156l0.005,0.001C23.072,44.414,23,44.698,23,45c0,1.105,0.895,2,2,2
	c0.993,0,1.81-0.725,1.967-1.673l0.002,0.001l0.017-0.181C26.989,45.097,27,45.05,27,45C27,44.997,26.999,44.995,26.999,44.993z"/>
</svg>