<?xml version="1.0" encoding="iso-8859-1"?><!-- Generator: Adobe Illustrator 22.0.1, SVG Export Plug-In . SVG Version: 6.00 Build 0)  --><svg xmlns="http://www.w3.org/2000/svg" xmlns:xlink="http://www.w3.org/1999/xlink" viewBox="0 0 50 50" width="500px" height="500px"><g></g><path d="M34.801,10.031c0.562-0.038,1.033,0.366,1.078,0.916c0,0,1.001,11.72,1.01,11.803c0.193,1.786,2.426,3.25,5.049,3.25c2.728,0,5.03-1.584,5.058-3.467c0.002-0.121-0.001-0.243-0.02-0.363L43.986,4.832C43.904,4.352,43.487,4,43,4H7C6.493,4,6.066,4.379,6.007,4.883l-2.98,32.716c-0.103,0.923,0.156,1.807,0.709,2.425C4.118,40.45,4.821,40.959,6,40.959c4,0,7-5.33,7-8V14c0-0.553,0.448-1,1-1s1,0.447,1,1v16.892c1.571-2.003,4.596-5.263,8-5.829V11c0-0.553,0.448-1,1-1s1,0.447,1,1c0,0,0.003,13.967,0.003,13.986C25.022,27.182,27.25,29,30,29c2.761,0,5-1.832,5-4.041l-1.114-13.85C33.841,10.559,34.251,10.076,34.801,10.031z M38,10.25c0.112-0.008,0.094-0.008-0.001,0.002C37.999,10.252,37.999,10.25,38,10.25z"/><path d="M41.938,28c-2.007,0-3.817-0.659-5.104-1.709c0,0.001-0.011,0.003-0.029,0.003C36.095,28.981,33.325,31,30,31c-3.01,0-5.586-1.664-6.568-3.98c-0.002,0-0.003,0-0.005,0l-0.099,0.016c-2.018,0.335-4.48,2.191-6.754,5.09l-1.73,2.205c-0.755,3.6-4.189,8.627-8.844,8.627V45c0,0.553,0.448,1,1,1h36c0.552,0,1-0.447,1-1V27.759C43.347,27.915,42.655,28,41.938,28z M31,33l3,3h-2v4h-2v-4h-2L31,33z M41,43H28v-2h13V43z M39,36v4h-2v-4h-2l3-3l3,3H39z"/></svg>