<?xml version="1.0" encoding="iso-8859-1"?>
<!-- Generator: Adobe Illustrator 25.2.3, SVG Export Plug-In . SVG Version: 6.00 Build 0)  -->
<svg version="1.1" baseProfile="basic" id="Layer_8"
	 xmlns="http://www.w3.org/2000/svg" xmlns:xlink="http://www.w3.org/1999/xlink" x="0px" y="0px" viewBox="0 0 50 50"
	 xml:space="preserve">
<path d="M3,48c-0.553,0-1-0.448-1-1V28h2v19C4,47.552,3.553,48,3,48z"/>
<rect x="1" y="23" style="fill:none;stroke:#000000;stroke-width:2;stroke-linecap:round;stroke-linejoin:round;stroke-miterlimit:10;" width="48" height="2"/>
<path d="M48,28v9H30v-9H48z M42,32c0-0.552-0.447-1-1-1h-4c-0.553,0-1,0.448-1,1s0.447,1,1,1h4C41.553,33,42,32.552,42,32z"/>
<path d="M30,39h18v8c0,0.55-0.45,1-1,1H31c-0.55,0-1-0.45-1-1V39z M42,43c0-0.552-0.447-1-1-1h-4c-0.553,0-1,0.448-1,1s0.447,1,1,1
	h4C41.553,44,42,43.552,42,43z"/>
<rect x="5" y="4" width="22" height="13"/>
<rect x="5" y="4" style="fill:none;stroke:#000000;stroke-width:2;stroke-linecap:round;stroke-linejoin:round;stroke-miterlimit:10;" width="22" height="13"/>
<rect x="13" y="20" width="6" height="3"/>
<rect x="35" y="13" width="2" height="9"/>
<rect x="45" y="11" width="2" height="11"/>
<rect x="40" y="9" width="2" height="13"/>
<rect x="35" y="13" style="fill:none;stroke:#000000;stroke-width:2;stroke-linecap:round;stroke-linejoin:round;stroke-miterlimit:10;" width="2" height="9"/>
<rect x="45" y="11" style="fill:none;stroke:#000000;stroke-width:2;stroke-linecap:round;stroke-linejoin:round;stroke-miterlimit:10;" width="2" height="11"/>
<rect x="40" y="9" style="fill:none;stroke:#000000;stroke-width:2;stroke-linecap:round;stroke-linejoin:round;stroke-miterlimit:10;" width="2" height="13"/>
<rect x="3" y="28" width="25" height="6"/>
<rect x="1" y="23" width="48" height="2"/>
</svg>