<?xml version="1.0" encoding="utf-8"?><!-- Generator: Adobe Illustrator 15.0.0, SVG Export Plug-In . SVG Version: 6.00 Build 0)  --><!DOCTYPE svg PUBLIC "-//W3C//DTD SVG 1.1//EN" "http://www.w3.org/Graphics/SVG/1.1/DTD/svg11.dtd"><svg xmlns="http://www.w3.org/2000/svg" xmlns:xlink="http://www.w3.org/1999/xlink" viewBox="0 0 50 50" width="500px" height="500px"><path fill="none" stroke="#000000" stroke-width="2" stroke-miterlimit="10" d="M49,18v-6c0-3.3-2.7-6-6-6h-6"/><polyline fill="none" stroke="#000000" stroke-width="2" stroke-miterlimit="10" points="41,1 36,6 41,11 "/><path fill="none" stroke="#000000" stroke-width="2" stroke-miterlimit="10" d="M1,32v6c0,3.3,2.7,6,6,6h6"/><polyline fill="none" stroke="#000000" stroke-width="2" stroke-miterlimit="10" points="9,49 14,44 9,39 "/><path d="M36.7,36c-0.3-0.2-0.601-0.4-0.9-0.5c-0.399-0.1-0.7-0.3-1.1-0.4V40.7c0.399-0.101,0.8-0.2,1.1-0.3c0.3-0.101,0.7-0.301,0.9-0.5c0.3-0.2,0.5-0.5,0.6-0.9c0.101-0.3,0.2-0.8,0.2-1.2c0-0.399-0.1-0.8-0.2-1.1C37.2,36.4,37,36.2,36.7,36z"/><path d="M30.9,30.2c0,0.399,0.1,0.7,0.199,1c0.101,0.3,0.301,0.5,0.5,0.7c0.2,0.199,0.5,0.3,0.801,0.5c0.3,0.1,0.699,0.3,1,0.399v-5.2c-0.601,0-1.301,0.2-1.801,0.7C31.1,28.7,30.9,29.4,30.9,30.2z"/><path d="M34,18c-8.822,0-16,7.178-16,16s7.178,16,16,16s16-7.178,16-16S42.822,18,34,18z M39.2,39.5c-0.2,0.6-0.601,1.1-1,1.5c-0.4,0.4-0.9,0.7-1.5,1c-0.601,0.2-1.2,0.4-2,0.4v1.8h-1.2v-1.8C32,42.3,30.8,41.7,30,40.8c-0.9-0.899-1.4-2.1-1.5-3.7h1.9C30.3,38.2,30.7,39,31.2,39.5c0.6,0.6,1.3,0.9,2.2,1.1V34.7c-0.801-0.2-1.5-0.4-2-0.601c-0.601-0.199-1-0.5-1.4-0.8s-0.7-0.7-0.8-1.2c-0.2-0.5-0.3-1-0.3-1.699c0-0.7,0.1-1.301,0.399-1.801c0.2-0.6,0.601-1,1-1.5c0.4-0.399,0.9-0.699,1.5-1C32.4,25.9,33,25.7,33.6,25.7v-1.5h1.2v1.5c1.2,0.1,2.2,0.6,2.9,1.3s1.2,1.8,1.5,3.1h-1.9c-0.3-1.5-1.1-2.3-2.5-2.6V33l1.3,0.4c0.301,0.1,0.601,0.199,1,0.399c0.4,0.2,0.801,0.4,1.2,0.8c0.4,0.301,0.7,0.7,0.9,1.2c0.3,0.5,0.399,1.101,0.399,1.8C39.6,38.3,39.5,39,39.2,39.5z"/><path d="M16,0C7.178,0,0,7.178,0,16s7.178,16,16,16c0.041,0,0.078-0.003,0.118-0.003c0.342-3.069,1.462-5.903,3.152-8.31c-0.667,0.252-1.378,0.413-2.17,0.413c-3.6,0-5.7-2.1-6.4-6.4H9l0.6-1.3h1c0-0.1,0-0.1,0-0.2c0-0.1,0-0.1,0-0.2s0-0.3,0-0.4s0-0.2,0-0.3H9L9.6,14h1.2c0.4-1.8,1-3.2,2-4.3c1.1-1.2,2.5-1.8,4.3-1.8c1.3,0,2.7,0.5,4,1.4L20,11c-1-1-2.1-1.5-3.2-1.5c-1.1,0-2,0.5-2.7,1.4c-0.6,0.8-1,1.7-1.2,3h6.3l-0.6,1.3h-5.8c0,0.1,0,0.2,0,0.4c0,0.2,0,0.2,0,0.3s0,0.2,0,0.2c0,0.1,0,0.1,0,0.2h5.5l-0.6,1.3h-4.8c0.5,3.2,1.9,4.8,4.2,4.8c0.7,0,1.3-0.1,1.9-0.4c0.4-0.2,0.9-0.6,1.5-1.2v1.333c2.884-3.277,6.931-5.506,11.497-6.015C31.997,16.078,32,16.041,32,16C32,7.178,24.822,0,16,0z"/></svg>