<?xml version="1.0" encoding="iso-8859-1"?><!-- Generator: Adobe Illustrator 21.1.0, SVG Export Plug-In . SVG Version: 6.00 Build 0)  --><svg xmlns="http://www.w3.org/2000/svg" xmlns:xlink="http://www.w3.org/1999/xlink" viewBox="0 0 50 50" width="500px" height="500px"><g><g></g></g><path d="M16.146,14.307C16.858,14.91,17.613,15,18,15c0.386,0,1.141-0.09,1.854-0.693c0.51-0.431,9.161-7.385,13.92-11.21C33.444,2.449,32.777,2,32,2H4C3.224,2,2.557,2.449,2.226,3.097C6.027,6.151,15.616,13.859,16.146,14.307z"/><path d="M11.373,13.021C8.673,10.848,4.924,7.833,2,5.482V20.52L11.373,13.021z"/><polygon style="fill:none;stroke:#000000;stroke-width:2;stroke-linecap:round;stroke-linejoin:round;stroke-miterlimit:10;" points="12,47 29.5,16 47,47 "/><path d="M26.888,14.525c0.518-0.918,1.519-1.488,2.612-1.488c1.093,0,2.094,0.57,2.612,1.488L34,17.869V5.482c-3.032,2.437-7.228,5.811-9.996,8.041l2.377,1.901L26.888,14.525z"/><path d="M25.385,17.188l-2.975-2.38c-0.697,0.563-1.165,0.943-1.265,1.027C19.945,16.849,18.66,17,18,17c-0.66,0-1.947-0.151-3.146-1.166c-0.116-0.098-0.829-0.675-1.887-1.528L2.224,22.901C2.555,23.55,3.223,24,4,24h17.539L25.385,17.188z"/><path d="M30.654,40C30.885,40,31,40.111,31,40.333v2.333C31,42.889,30.885,43,30.654,43h-2.308C28.115,43,28,42.889,28,42.667v-2.333C28,40.111,28.115,40,28.346,40H30.654z"/><path d="M30.64,26c0.24,0,0.36,0.1,0.36,0.3v11.4c0,0.2-0.12,0.3-0.36,0.3h-2.28C28.12,38,28,37.9,28,37.7V26.3c0-0.2,0.12-0.3,0.36-0.3H30.64z"/></svg>