<?xml version="1.0" encoding="iso-8859-1"?><!-- Generator: Adobe Illustrator 21.1.0, SVG Export Plug-In . SVG Version: 6.00 Build 0)  --><svg xmlns="http://www.w3.org/2000/svg" xmlns:xlink="http://www.w3.org/1999/xlink" viewBox="0 0 50 50" width="500px" height="500px"><g><g><g><g></g></g></g></g><line style="fill:none;stroke:#000000;stroke-width:2;stroke-miterlimit:10;" x1="25" y1="1" x2="25" y2="19"/><line style="fill:none;stroke:#000000;stroke-width:2;stroke-miterlimit:10;" x1="1" y1="25" x2="19" y2="25"/><line style="fill:none;stroke:#000000;stroke-width:2;stroke-miterlimit:10;" x1="31" y1="25" x2="49" y2="25"/><line style="fill:none;stroke:#000000;stroke-width:2;stroke-miterlimit:10;" x1="25" y1="31" x2="25" y2="49"/><path d="M25.003,28C23.347,28,22,26.655,22,25s1.347-3,3.003-3c1.656,0,2.947,1.345,2.947,3S26.658,28,25.003,28z M25.003,24.998V25V24.998z"/><path d="M13.382,22h4.227c0.815-1.995,2.394-3.599,4.392-4.411v-4.194C17.793,14.484,14.471,17.795,13.382,22z"/><path d="M17.608,28h-4.227c1.089,4.205,4.411,7.516,8.618,8.605v-4.194C20.002,31.599,18.423,29.995,17.608,28z"/><path d="M32.411,28c-0.812,1.998-2.416,3.577-4.411,4.392v4.227c4.205-1.089,7.516-4.411,8.605-8.618H32.411z"/><path d="M32.392,22h4.227c-1.089-4.205-4.411-7.516-8.618-8.605v4.194C29.998,18.401,31.577,20.005,32.392,22z"/><path d="M41.732,22h4.032C44.441,12.826,37.177,5.562,28,4.24v4.042C34.971,9.53,40.484,15.031,41.732,22z"/><path d="M8.268,22C9.516,15.031,15.029,9.53,22,8.281V4.24C12.823,5.562,5.559,12.826,4.236,22H8.268z"/><path d="M41.719,28C40.47,34.971,34.969,40.484,28,41.732v4.032C37.174,44.441,44.438,37.177,45.76,28H41.719z"/><path d="M22,41.732C15.031,40.484,9.53,34.971,8.281,28H4.24C5.562,37.177,12.826,44.441,22,45.764V41.732z"/></svg>