<?xml version="1.0" encoding="utf-8"?><!-- Generator: Adobe Illustrator 18.1.1, SVG Export Plug-In . SVG Version: 6.00 Build 0)  --><svg xmlns="http://www.w3.org/2000/svg" xmlns:xlink="http://www.w3.org/1999/xlink" viewBox="0 0 50 50" width="500px" height="500px"><line fill="none" stroke="#000000" stroke-width="2" stroke-miterlimit="10" x1="37" y1="50" x2="37" y2="0"/><line fill="none" stroke="#000000" stroke-width="2" stroke-miterlimit="10" x1="29" y1="20.1" x2="29" y2="0"/><line fill="none" stroke="#000000" stroke-width="2" stroke-miterlimit="10" x1="29" y1="50" x2="29" y2="33.3"/><g><path fill="none" stroke="#000000" stroke-width="2" stroke-miterlimit="10" d="M37,26l-13-9.6C23.4,7.4,16.6,1,5,1H3"/><path fill="none" stroke="#000000" stroke-width="2" stroke-miterlimit="10" d="M3,49h12.9c5,0,9.1-4.1,9.1-9.1v-4.4c0-0.9,0.6-1.6,1.5-1.7L37,31.9"/></g><circle fill="none" stroke="#000000" stroke-width="2" stroke-miterlimit="10" cx="18" cy="21" r="2.5"/><line fill="none" stroke="#000000" stroke-width="2" stroke-linejoin="round" stroke-miterlimit="10" x1="24.5" y1="38" x2="16.5" y2="38"/><g><circle cx="26" cy="13" r="1"/><circle cx="23" cy="10" r="1"/><circle cx="26" cy="1" r="1"/><circle cx="20" cy="1" r="1"/><circle cx="14" cy="1" r="1"/><circle cx="26" cy="7" r="1"/><circle cx="23" cy="4" r="1"/><circle cx="26" cy="43" r="1"/><circle cx="26" cy="49" r="1"/><circle cx="23" cy="46" r="1"/><circle cx="20" cy="49" r="1"/><circle cx="26" cy="37" r="1"/></g><g><circle cx="40" cy="28" r="1"/><circle cx="40" cy="22" r="1"/><circle cx="46" cy="22" r="1"/><circle cx="43" cy="25" r="1"/><circle cx="46" cy="28" r="1"/><circle cx="43" cy="13" r="1"/><circle cx="46" cy="16" r="1"/><circle cx="40" cy="16" r="1"/><circle cx="40" cy="10" r="1"/><circle cx="46" cy="10" r="1"/><circle cx="43" cy="19" r="1"/><circle cx="43" cy="31" r="1"/><circle cx="43" cy="1" r="1"/><circle cx="46" cy="4" r="1"/><circle cx="40" cy="4" r="1"/><circle cx="43" cy="7" r="1"/><circle cx="43" cy="43" r="1"/><circle cx="46" cy="46" r="1"/><circle cx="40" cy="46" r="1"/><circle cx="40" cy="40" r="1"/><circle cx="46" cy="40" r="1"/><circle cx="43" cy="49" r="1"/><circle cx="46" cy="34" r="1"/><circle cx="40" cy="34" r="1"/><circle cx="43" cy="37" r="1"/></g></svg>