<?xml version="1.0" encoding="iso-8859-1"?><!-- Generator: Adobe Illustrator 23.0.3, SVG Export Plug-In . SVG Version: 6.00 Build 0)  --><svg xmlns="http://www.w3.org/2000/svg" xmlns:xlink="http://www.w3.org/1999/xlink" viewBox="0 0 50 50" width="500px" height="500px"><rect x="10" y="28" width="3" height="4"/><rect x="17" y="28" width="3" height="4"/><rect x="24" y="28" width="3" height="4"/><rect x="10" y="36" width="3" height="4"/><rect x="17" y="36" width="3" height="4"/><rect x="24" y="36" width="3" height="4"/><polyline style="fill:none;stroke:#000000;stroke-width:2;stroke-linecap:round;stroke-miterlimit:10;" points="48.471,37 42,37 42,30.545 "/><polygon style="fill:none;stroke:#000000;stroke-width:2;stroke-linecap:round;stroke-miterlimit:10;" points="49,49 34,49 34,30 42.778,30 49,36.391 "/><path d="M31,44H6V24.618l10-5V23c0,0.553,0.448,1,1,1h1c0.155,0,0.309-0.036,0.447-0.105L29,18.618V23c0,0.553,0.448,1,1,1h1v3h2.916l2.328-20.47c0.004-0.038,0.006-0.075,0.006-0.113C36.25,6.109,36.52,6,36.75,6h4.417c0.207,0,0.463,0.249,0.503,0.584L42.907,27h2.003L43.665,6.439c0-0.013-0.001-0.025-0.003-0.039C43.527,5.055,42.432,4,41.167,4H36.75c-1.38,0-2.465,1.028-2.499,2.354l-1.792,15.758C32.322,22.04,32.166,22,32,22h-1v-5c0-0.347-0.18-0.668-0.474-0.851c-0.295-0.183-0.663-0.198-0.973-0.044L18,21.882V18c0-0.347-0.18-0.668-0.474-0.851c-0.295-0.184-0.663-0.198-0.973-0.044l-12,6C4.214,23.275,4,23.621,4,24v21c0,0.553,0.448,1,1,1h26V44z"/></svg>