<?xml version="1.0" encoding="iso-8859-1"?><!-- Generator: Adobe Illustrator 23.0.3, SVG Export Plug-In . SVG Version: 6.00 Build 0)  --><svg xmlns="http://www.w3.org/2000/svg" xmlns:xlink="http://www.w3.org/1999/xlink" viewBox="0 0 50 50" width="500px" height="500px"><path d="M28,44c0,1.657-1.343,3-3,3s-3-1.343-3-3H28z"/><line style="fill:none;stroke:#000000;stroke-width:2;stroke-linecap:round;stroke-miterlimit:10;" x1="42" y1="22" x2="46" y2="22"/><line style="fill:none;stroke:#000000;stroke-width:2;stroke-linecap:round;stroke-miterlimit:10;" x1="4" y1="22" x2="8" y2="22"/><line style="fill:none;stroke:#000000;stroke-width:2;stroke-linecap:round;stroke-miterlimit:10;" x1="37.021" y1="34.021" x2="39.849" y2="36.849"/><line style="fill:none;stroke:#000000;stroke-width:2;stroke-linecap:round;stroke-miterlimit:10;" x1="10.151" y1="7.151" x2="12.979" y2="9.979"/><line style="fill:none;stroke:#000000;stroke-width:2;stroke-linecap:round;stroke-miterlimit:10;" x1="37.021" y1="9.979" x2="39.849" y2="7.151"/><line style="fill:none;stroke:#000000;stroke-width:2;stroke-linecap:round;stroke-miterlimit:10;" x1="10.151" y1="36.849" x2="12.979" y2="34.021"/><line style="fill:none;stroke:#000000;stroke-width:2;stroke-linecap:round;stroke-miterlimit:10;" x1="25" y1="1" x2="25" y2="5"/><path d="M19,39v4c0,1.654,1.346,3,3,3h6c1.654,0,3-1.346,3-3v-4H19z M22,43h-1v-2h1c0.553,0,1,0.447,1,1S22.553,43,22,43z M29,43h-4c-0.553,0-1-0.447-1-1s0.447-1,1-1h4V43z"/><path d="M31.239,37c0.397-0.897,1.255-1.847,2.275-2.97C35.83,31.484,39,27.997,39,22c0-7.72-6.28-14-14-14s-14,6.28-14,14c0,5.93,3.161,9.432,5.47,11.987c1.029,1.14,1.895,2.105,2.293,3.013H31.239z M25.24,23.423C23.028,22.924,20,22.241,20,19c0-1.932,1.721-3.547,4-3.919V13h2v2.081c2.279,0.372,4,1.987,4,3.919h-2c0-1.084-1.374-2-3-2s-3,0.916-3,2c0,1.486,1.121,1.895,3.68,2.472C27.925,21.978,31,22.671,31,26c0,2.472-2.167,4.526-5,4.925V33h-2v-2.075c-2.833-0.399-5-2.452-5-4.925h2c0,1.654,1.794,3,4,3s4-1.346,4-3C29,24.434,27.854,24.012,25.24,23.423z"/></svg>