<?xml version="1.0" encoding="iso-8859-1"?><!-- Generator: Adobe Illustrator 19.1.1, SVG Export Plug-In . SVG Version: 6.00 Build 0)  --><svg xmlns="http://www.w3.org/2000/svg" xmlns:xlink="http://www.w3.org/1999/xlink" viewBox="0 0 50 50" width="500px" height="500px"><path style="fill:none;stroke:#000000;stroke-width:2;stroke-linejoin:round;stroke-miterlimit:10;" d="M40,9h-2c-0.552,0-1-0.448-1-1V2c0-0.552,0.448-1,1-1h2c0.552,0,1,0.448,1,1v6C41,8.552,40.552,9,40,9z"/><line style="fill:none;stroke:#000000;stroke-width:2;stroke-linejoin:round;stroke-miterlimit:10;" x1="13" y1="34" x2="39" y2="34"/><line style="fill:none;stroke:#000000;stroke-width:2;stroke-linejoin:round;stroke-miterlimit:10;" x1="33" y1="20" x2="33" y2="41"/><polyline style="fill:none;stroke:#000000;stroke-width:2;stroke-linecap:round;stroke-miterlimit:10;" points="1.3,4 6,4 6,8.7 "/><line style="fill:none;stroke:#000000;stroke-width:2;stroke-linecap:round;stroke-miterlimit:10;" x1="14" y1="14" x2="14" y2="6"/><line style="fill:none;stroke:#000000;stroke-width:2;stroke-linecap:round;stroke-miterlimit:10;" x1="14" y1="14" x2="18" y2="17"/><path style="fill:none;stroke:#000000;stroke-width:2;stroke-linecap:round;stroke-miterlimit:10;" d="M8.9,2c1.6-0.7,3.3-1,5.1-1c7.2,0,13,5.8,13,13s-5.8,13-13,13S1,21.2,1,14c0-3.6,1.5-6.8,3.8-9.2"/><g><path d="M47,4h-6v2h6v7H29.949C29.97,13.332,30,13.662,30,14s-0.03,0.668-0.051,1H47v31H5V27.218c-0.713-0.487-1.376-1.037-2-1.63V46c0,1.159,0.841,2,2,2h42c1.159,0,2-0.841,2-2V6C49,4.841,48.159,4,47,4z"/><path d="M37,4H26.47c0.505,0.629,0.958,1.299,1.365,2H37V4z"/><path d="M41,19H29.189c-0.228,0.69-0.508,1.355-0.823,2H39v5H25v14h-5V28.822c-0.646,0.262-1.316,0.474-2,0.651V40h-5V29.949c-0.678-0.042-1.347-0.117-2-0.241V42h30V19z M39,40H27V28h12V40z"/></g></svg>