<?xml version="1.0" encoding="iso-8859-1"?><!-- Generator: Adobe Illustrator 22.0.1, SVG Export Plug-In . SVG Version: 6.00 Build 0)  --><svg xmlns="http://www.w3.org/2000/svg" xmlns:xlink="http://www.w3.org/1999/xlink" viewBox="0 0 50 50" width="500px" height="500px"><rect x="27" y="28" style="fill:none;stroke:#000000;stroke-width:2;stroke-linecap:round;stroke-linejoin:round;stroke-miterlimit:10;" width="22" height="21"/><line style="fill:none;stroke:#000000;stroke-width:2;stroke-linecap:round;stroke-linejoin:round;stroke-miterlimit:10;" x1="34" y1="32" x2="42" y2="32"/><path d="M33.114,24.057c0.737-0.326,1.675-1.191,1.883-3.474C35.006,20.47,35,20.359,35,20.25c0.003-0.882-0.272-1.616-0.69-2.119c0.441-0.977,0.696-2.281,0.69-3.635c-0.016-4.04-1.998-8.114-6.369-8.471l-0.736-1.473C27.725,4.214,27.379,4,27,4c-8.29,0-11.999,5.273-11.999,10.5c0,1.119,0.24,2.312,0.716,3.554c-0.396,0.497-0.704,1.197-0.717,2.071c-0.002,0.125-0.002,0.253,0.009,0.385c0.258,1.896,1.015,3.022,1.838,3.489c0.329,1.764,1.27,3.559,2.153,4.456v3.871c-0.582,1.461-2.63,2.254-4.991,3.169c-3.865,1.497-8.676,3.359-9.007,9.45c-0.015,0.274,0.083,0.543,0.272,0.742S5.726,46,6,46h21V28h4.379l0.407-0.616C32.259,26.582,32.819,25.342,33.114,24.057z"/></svg>