<?xml version="1.0" encoding="iso-8859-1"?><!-- Generator: Adobe Illustrator 21.1.0, SVG Export Plug-In . SVG Version: 6.00 Build 0)  --><svg xmlns="http://www.w3.org/2000/svg" xmlns:xlink="http://www.w3.org/1999/xlink" viewBox="0 0 50 50" width="500px" height="500px"><g></g><circle cx="10" cy="12" r="1"/><line style="fill:none;stroke:#000000;stroke-width:2;stroke-linecap:round;stroke-miterlimit:10;" x1="16" y1="12" x2="40" y2="12"/><circle cx="10" cy="18" r="1"/><line style="fill:none;stroke:#000000;stroke-width:2;stroke-linecap:round;stroke-miterlimit:10;" x1="16" y1="18" x2="40" y2="18"/><circle cx="10" cy="24" r="1"/><line style="fill:none;stroke:#000000;stroke-width:2;stroke-linecap:round;stroke-miterlimit:10;" x1="16" y1="24" x2="40" y2="24"/><circle cx="10" cy="30" r="1"/><line style="fill:none;stroke:#000000;stroke-width:2;stroke-linecap:round;stroke-miterlimit:10;" x1="16" y1="30" x2="33" y2="30"/><path style="fill:none;stroke:#000000;stroke-width:2;stroke-linejoin:round;stroke-miterlimit:10;" d="M43,5H7C4.8,5,3,6.8,3,9v24c0,2.2,1.8,4,4,4h5c0.6,3.3,0,6.2-3,8c4.1,0,8.8-2,11-8h23c2.2,0,4-1.8,4-4V9C47,6.8,45.2,5,43,5z"/></svg>