<?xml version="1.0" encoding="iso-8859-1"?>
<!-- Generator: Adobe Illustrator 24.0.2, SVG Export Plug-In . SVG Version: 6.00 Build 0)  -->
<svg version="1.1" id="&#x421;&#x43B;&#x43E;&#x439;_1"
	 xmlns="http://www.w3.org/2000/svg" xmlns:xlink="http://www.w3.org/1999/xlink" x="0px" y="0px" viewBox="0 0 50 50"
	 style="enable-background:new 0 0 50 50;" xml:space="preserve">
<path d="M37,16H25V4c0-0.552,0.447-1,1-1s1,0.448,1,1v10h10c0.553,0,1,0.448,1,1S37.553,16,37,16z"/>
<polygon points="11,22 25.08,22 23.32,24 11,24 "/>
<path d="M18.98,34c0.16,0.32,0.36,0.61,0.59,0.89c-0.2,0.37-0.38,0.74-0.5,1.11H11v-2H18.98z"/>
<path d="M11,28h8.8c-0.56,0.57-0.96,1.25-1.19,2H11V28z"/>
<path d="M37,46H5V4h20.59L37,15.41v3.65c0.7-0.45,1.37-0.84,2-1.18v-3.29L26.41,2H3v46h36v-3.38c-0.69-0.18-1.36-0.44-2-0.76V46z"/>
<path d="M49.08,33.3l-1.14-0.39l-4.96-5.68l-0.38-0.44l-0.93-1.07c0.17-0.17,0.33-0.34,0.49-0.5c0.12-0.13,0.24-0.25,0.35-0.38
	c0.19-0.2,0.37-0.39,0.54-0.58c0.19-0.22,0.38-0.44,0.56-0.65s0.35-0.42,0.5-0.62c0.13-0.17,0.26-0.33,0.37-0.49
	c0.16-0.22,0.3-0.43,0.43-0.63c0.11-0.18,0.22-0.35,0.3-0.51c0.09-0.16,0.16-0.31,0.23-0.46c0.07-0.14,0.12-0.27,0.16-0.4
	c0.03-0.1,0.05-0.19,0.07-0.28c0.02-0.07,0.04-0.14,0.04-0.2c0.08-0.52-0.03-0.94-0.31-1.29c-0.08-0.09-0.17-0.18-0.26-0.25
	c-0.03-0.03-0.06-0.05-0.1-0.06c-0.07-0.05-0.14-0.09-0.21-0.12c-0.04-0.02-0.09-0.04-0.13-0.04c-0.08-0.03-0.16-0.05-0.24-0.07
	c-0.13-0.03-0.27-0.04-0.42-0.04c-0.22,0-0.47,0.03-0.73,0.08c-0.27,0.06-0.56,0.14-0.87,0.25c-0.28,0.1-0.59,0.22-0.91,0.37
	c-0.39,0.17-0.82,0.38-1.27,0.62c-0.4,0.21-0.82,0.45-1.26,0.71c-0.54,0.32-1.11,0.67-1.7,1.06c-0.1,0.07-0.2,0.13-0.3,0.2
	c-0.12,0.08-0.24,0.16-0.36,0.24c-0.37,0.25-0.74,0.51-1.13,0.79c-0.04-0.01-0.09-0.02-0.14-0.03c-1.04-0.13-1.92-0.22-2.8-0.3
	c-0.05,0-0.1-0.01-0.15-0.01c-0.9-0.08-1.8-0.16-2.87-0.3c-0.13-0.01-0.25-0.02-0.37-0.02c-0.41,0-0.82,0.09-1.18,0.27
	c-0.35,0.15-0.66,0.38-0.92,0.68L25.99,24l-3.52,4l-1.06,1.21c-0.26,0.23-0.47,0.5-0.63,0.79c-0.23,0.4-0.37,0.84-0.41,1.31
	c-0.04,0.62,0.09,1.24,0.38,1.77c0.1,0.19,0.22,0.36,0.36,0.53c0.12,0.14,0.25,0.27,0.4,0.39c0.09,0.08,0.18,0.14,0.28,0.2
	c0.14,0.1,0.3,0.19,0.46,0.25c-0.08,0.1-0.15,0.2-0.22,0.3c-0.2,0.28-0.38,0.55-0.53,0.81c-0.09,0.15-0.17,0.3-0.24,0.44
	c-0.03,0.05-0.06,0.11-0.08,0.16c-0.02,0.03-0.03,0.06-0.04,0.09c-0.06,0.12-0.11,0.24-0.15,0.36c-0.04,0.11-0.08,0.22-0.11,0.34
	c-0.03,0.1-0.05,0.19-0.06,0.28c-0.01,0.06-0.02,0.11-0.02,0.17c-0.01,0.03-0.01,0.07-0.01,0.1v0.1c0,0.08,0.01,0.15,0.02,0.21
	c0,0.05,0.01,0.1,0.03,0.15l-0.94,0.76c-0.21,0.18-0.24,0.49-0.07,0.71c0.1,0.12,0.24,0.18,0.39,0.18c0.11,0,0.22-0.03,0.31-0.11
	l0.91-0.74c0.19,0.12,0.46,0.21,0.86,0.21c0.1,0,0.21-0.01,0.33-0.02c0.05-0.01,0.1-0.01,0.15-0.02c0.04,0,0.08-0.01,0.13-0.01
	c0.01-0.01,0.03-0.01,0.04-0.01c0.28-0.06,0.61-0.14,0.99-0.27c0.01,0,0.02-0.01,0.03-0.01c0.01,0,0.02-0.01,0.04-0.02
	c0.12-0.04,0.25-0.08,0.38-0.14c0.16-0.06,0.33-0.13,0.5-0.21c0.3-0.13,0.62-0.28,0.96-0.46c0.2-0.09,0.4-0.2,0.61-0.32
	c0.2-0.11,0.42-0.23,0.64-0.36c0.02-0.01,0.04-0.02,0.06-0.04c0.06-0.03,0.12-0.07,0.18-0.1c0.16-0.09,0.32-0.19,0.49-0.3
	c0.19-0.1,0.39-0.23,0.59-0.36c0.16-0.1,0.32-0.2,0.48-0.31c0.29-0.18,0.59-0.38,0.9-0.59c0.25-0.17,0.51-0.35,0.78-0.54l1.34,1.52
	l3.09,3.48c0.18,0.2,0.37,0.39,0.56,0.58s0.4,0.36,0.61,0.52c0.14,0.12,0.28,0.22,0.43,0.33c0.03,0.02,0.06,0.04,0.09,0.06
	c0.09,0.06,0.17,0.12,0.26,0.17c0,0.01,0.01,0.01,0.01,0.01c0.01,0.01,0.02,0.01,0.03,0.02c0.31,0.2,0.63,0.38,0.97,0.54
	c0.04,0.02,0.07,0.04,0.11,0.05l0.01,0.01c0.08,0.03,0.16,0.07,0.24,0.1c0.19,0.09,0.39,0.16,0.59,0.23
	c0.03,0.01,0.05,0.02,0.08,0.03c0.49,0.17,1,0.3,1.52,0.38l5.94,0.96c0.05,0.01,0.11,0.02,0.16,0.02c0.48,0,0.91-0.35,0.99-0.84
	c0.09-0.55-0.28-1.06-0.83-1.15l-5.94-0.96c-0.21-0.03-0.42-0.08-0.62-0.13c-0.19-0.05-0.37-0.1-0.55-0.16
	c-0.02-0.01-0.05-0.02-0.07-0.03c-0.02-0.01-0.03-0.01-0.05-0.02c-0.02-0.01-0.04-0.01-0.06-0.02c-0.16-0.05-0.31-0.11-0.46-0.18
	c-0.01,0-0.02-0.01-0.03-0.01c-0.37-0.17-0.73-0.37-1.07-0.6c-0.33-0.22-0.64-0.47-0.93-0.74c-0.17-0.16-0.34-0.32-0.49-0.5
	l-3.17-3.56v-0.01l-2.72-3.06c-0.31-0.4-0.31-0.8-0.28-1.01c0.03-0.26,0.16-0.49,0.33-0.62c0.14-0.1,0.32-0.15,0.51-0.15
	c0.23,0,0.48,0.07,0.69,0.2l0.05,0.03l0.99,0.64l3.35,2.15L37,33.64l0.59,0.38L39,32.93l1.26-0.97c0.44-0.34,0.52-0.97,0.19-1.41
	c-0.05-0.06-0.11-0.12-0.17-0.16c-0.05-0.04-0.09-0.07-0.15-0.1h-0.01c-0.02-0.02-0.05-0.02-0.07-0.03
	c-0.03-0.02-0.07-0.03-0.1-0.04c-0.02-0.01-0.04-0.02-0.07-0.02c-0.02,0-0.04,0-0.06-0.01c-0.05-0.02-0.11-0.02-0.17-0.02
	c-0.21,0-0.43,0.06-0.61,0.2L39,30.4l-1.51,1.17L37,31.26l-0.87-0.57c0.3-0.24,0.58-0.47,0.87-0.72c0.61-0.51,1.19-1.01,1.75-1.51
	c0.01-0.01,0.02-0.02,0.04-0.03c0.06-0.05,0.13-0.11,0.19-0.16c0-0.01,0.01-0.01,0.01-0.02L39,28.24c0.08-0.07,0.17-0.14,0.25-0.22
	c0.34-0.3,0.68-0.6,0.99-0.9l1.31,1.5l5.23,6.01l1.66,0.56c0.11,0.04,0.21,0.05,0.32,0.05c0.42,0,0.81-0.26,0.95-0.68
	C49.88,34.04,49.6,33.47,49.08,33.3z M42.89,20.43l0.32,0.4c-0.28,0.44-0.69,0.99-1.25,1.64l-0.93-1.15
	C41.78,20.9,42.4,20.62,42.89,20.43z M22.77,30.68l5.81-6.6c0.08-0.08,0.17-0.15,0.27-0.2c0.13-0.06,0.29-0.09,0.44-0.07
	c0.35,0.05,0.68,0.09,1,0.12c0.69,0.08,1.33,0.14,1.96,0.19c0.3,0.03,0.61,0.05,0.92,0.09c-0.29,0.22-0.58,0.45-0.88,0.69
	c-0.3,0.23-0.61,0.48-0.91,0.72c-0.14,0.12-0.3,0.25-0.48,0.39c-0.06,0.05-0.12,0.1-0.19,0.15s-0.14,0.11-0.21,0.18
	c-0.11,0.09-0.22,0.18-0.34,0.28c-0.19,0.16-0.4,0.33-0.61,0.52c-0.17,0.14-0.35,0.29-0.53,0.45c-0.44,0.38-0.91,0.79-1.38,1.22
	c-0.19,0.17-0.39,0.35-0.58,0.53c-0.2,0.17-0.39,0.36-0.59,0.54c-0.18,0.17-0.36,0.35-0.54,0.52c-0.04,0.04-0.08,0.07-0.11,0.11
	c-0.1,0.09-0.19,0.19-0.29,0.28c-0.15,0.15-0.3,0.29-0.44,0.44c-0.15,0.15-0.29,0.3-0.43,0.44c-0.15,0.15-0.29,0.3-0.42,0.44
	c-0.19,0.2-0.37,0.39-0.55,0.59h-0.01c-0.05,0.02-0.11,0.02-0.16,0.02c-0.03,0-0.07,0-0.1-0.01c-0.31-0.02-0.59-0.16-0.79-0.4
	c-0.19-0.23-0.29-0.53-0.26-0.84c0-0.07,0.01-0.13,0.03-0.2c0.02-0.07,0.04-0.13,0.08-0.2C22.54,30.92,22.64,30.79,22.77,30.68z
	 M23.4,36.71c-0.14,0.06-0.27,0.1-0.39,0.14c0.03-0.05,0.06-0.1,0.09-0.15c0.06-0.1,0.13-0.21,0.21-0.32c0-0.01,0.01-0.02,0.02-0.03
	v-0.01c0.29-0.43,0.7-0.96,1.23-1.57l0.82,1.01c-0.75,0.41-1.35,0.68-1.81,0.87c-0.01,0-0.03,0.01-0.04,0.01
	c-0.04,0.02-0.08,0.04-0.12,0.05H23.4z M28.82,33.67c-0.42,0.28-0.81,0.54-1.18,0.77c-0.03,0.02-0.06,0.04-0.08,0.05
	c-0.15,0.1-0.29,0.19-0.43,0.27l-1.21-1.5c0.2-0.21,0.42-0.43,0.64-0.66c0.25-0.24,0.51-0.5,0.78-0.77c0.05-0.04,0.1-0.09,0.15-0.14
	c0.17-0.17,0.35-0.34,0.54-0.51c0.1-0.1,0.2-0.19,0.31-0.29c-0.03,0.44,0.03,0.87,0.18,1.29c0.06,0.18,0.14,0.34,0.23,0.51
	c0.1,0.17,0.21,0.34,0.33,0.5l0.17,0.19C29.1,33.48,28.96,33.58,28.82,33.67z M39,25.53c-0.04,0.03-0.07,0.07-0.11,0.1
	c-0.19,0.18-0.38,0.36-0.58,0.54c-0.1,0.09-0.2,0.18-0.3,0.27c-0.1,0.09-0.21,0.18-0.31,0.28v0.01c-0.22,0.19-0.45,0.4-0.7,0.61
	c-0.33,0.28-0.67,0.58-1.03,0.88c-0.47,0.4-0.97,0.81-1.49,1.23l-0.12,0.11l-1.42-0.91c-0.09-0.05-0.18-0.11-0.28-0.15
	c-0.01,0-0.02-0.01-0.03-0.01c-0.08-0.05-0.17-0.09-0.25-0.11c-0.08-0.04-0.16-0.07-0.24-0.09c-0.11-0.04-0.22-0.07-0.34-0.08
	c-0.12-0.03-0.24-0.05-0.35-0.05c0.38-0.33,0.77-0.65,1.18-0.98c0.25-0.2,0.49-0.39,0.72-0.57c0.14-0.12,0.28-0.23,0.42-0.34
	c0.33-0.26,0.66-0.51,0.98-0.75c0.21-0.16,0.41-0.32,0.61-0.46c0.04-0.03,0.07-0.06,0.1-0.08c0.27-0.2,0.53-0.4,0.79-0.58
	c0.25-0.19,0.51-0.37,0.75-0.54c0.2-0.14,0.4-0.28,0.6-0.42c0.21-0.14,0.41-0.28,0.61-0.41c0.28-0.18,0.54-0.35,0.79-0.51
	c0.1-0.06,0.19-0.12,0.28-0.18l0.63,0.77l0.69,0.85c-0.43,0.44-0.91,0.91-1.44,1.42C39.11,25.43,39.06,25.48,39,25.53z"/>
</svg>