<?xml version="1.0" encoding="iso-8859-1"?>
<!-- Generator: Adobe Illustrator 24.1.2, SVG Export Plug-In . SVG Version: 6.00 Build 0)  -->
<svg version="1.1" id="Layer_1" xmlns="http://www.w3.org/2000/svg" xmlns:xlink="http://www.w3.org/1999/xlink" x="0px" y="0px"
	 viewBox="0 0 50 50" style="enable-background:new 0 0 50 50;" xml:space="preserve">
<path d="M10.646,40.125C10.646,40.125,10.646,40.125,10.646,40.125L10.646,40.125L10.646,40.125z M17.968,44.548L17.968,44.548
	L17.968,44.548L17.968,44.548z M27.415,40.011C27.415,40.011,27.415,40.011,27.415,40.011L27.415,40.011L27.415,40.011z"/>
<path style="fill:none;stroke:#000000;stroke-width:2;stroke-miterlimit:10;" d="M25,2.013c-4.962,0-9,3.648-9,8.132
	c0,0.555,0.062,1.11,0.185,1.648c0.013,0.059,0.031,0.117,0.049,0.175l0.047,0.169c0.039,0.147,0.078,0.294,0.127,0.438
	c0.155,0.447,0.366,0.903,0.645,1.383l0.043,0.079c0.374,0.62,0.836,1.192,1.375,1.705l-0.689,4.269l3.675-2.398
	c0.212,0.083,0.43,0.159,0.661,0.23c0.279,0.085,0.564,0.158,0.852,0.218l0.092,0.021c0.266,0.053,0.537,0.093,0.858,0.13
	l0.109,0.015c0.639,0.062,1.3,0.062,1.947,0l0.152-0.022c0.274-0.03,0.545-0.07,0.811-0.123l0.089-0.02
	c0.291-0.061,0.575-0.134,0.87-0.224c0.219-0.067,0.435-0.143,0.646-0.224l3.675,2.398l-0.689-4.269
	c0.539-0.513,1-1.085,1.375-1.705l0.059-0.109c0.263-0.451,0.474-0.906,0.629-1.354c0.05-0.145,0.09-0.295,0.15-0.523l0.026-0.087
	c0.018-0.057,0.034-0.114,0.048-0.172C33.938,11.255,34,10.7,34,10.145C34,5.66,29.962,2.013,25,2.013z M17.463,13.817
	C17.463,13.817,17.463,13.817,17.463,13.817L17.463,13.817L17.463,13.817z M24.069,17.803L24.069,17.803L24.069,17.803
	L24.069,17.803z M32.592,13.714C32.592,13.714,32.592,13.714,32.592,13.714L32.592,13.714L32.592,13.714z"/>
<path style="fill:none;stroke:#000000;stroke-width:2;stroke-linecap:square;stroke-miterlimit:10;" d="M38,40L38,40
	c0,4.418,3.582,8,8,8h1.33c0.396,0,0.628-0.432,0.418-0.767C47,46.041,47,43.796,47,43v-8.638C47,31.783,45.46,25,38,25
	c-4.058,0-5.703,1.671-7.205,3.202c-0.192,0.196-0.285,0.396-0.279,0.595c0.009,0.242,0.149,0.47,0.265,0.619l0.413,0.531
	l-0.283,0.613C30.41,31.647,30,33,30,35l0,0l-2.238,3.573c-0.022,0.055-0.025,0.112-0.01,0.167c0.011,0.04,0.038,0.102,0.138,0.159
	L30,40v1c0,2.209,1.791,4,4,4h1v3"/>
<path style="fill:none;stroke:#000000;stroke-width:2;stroke-linecap:square;stroke-miterlimit:10;" d="M15,48v-3h1.253
	c1.94,0,2.697-0.953,2.697-2.419v-2.697l2.03-1.036c0.021-0.013,0.062-0.063,0.078-0.127c0.018-0.066,0.008-0.133-0.029-0.206
	l-2.077-3.651l-0.003-0.288c-0.007-0.801-0.051-1.301-0.888-3.051l-0.29-0.607l0.403-0.536c0.783-1.04,0.783-1.432,0.783-1.435
	C17.743,26.511,14.922,25,11.439,25c-7.941,0-8.559,7.083-8.559,9.253c0,3.146,1.011,5.209,2.083,7.393
	c0.747,1.527,1.126,3.268,1.126,5.174V48"/>
<path style="fill:none;stroke:#000000;stroke-width:2;stroke-linecap:square;stroke-linejoin:round;stroke-miterlimit:10;" d="
	M36,33c0,0-3-1-5-4"/>
<path style="fill:none;stroke:#000000;stroke-width:2;stroke-linecap:square;stroke-linejoin:round;stroke-miterlimit:10;" d="
	M21.469,10.363L24.388,13L29,8"/>
</svg>