<?xml version="1.0" encoding="iso-8859-1"?><!-- Generator: Adobe Illustrator 19.1.1, SVG Export Plug-In . SVG Version: 6.00 Build 0)  --><svg xmlns="http://www.w3.org/2000/svg" xmlns:xlink="http://www.w3.org/1999/xlink" viewBox="0 0 50 50" width="500px" height="500px"><line fill="none" stroke="#000000" stroke-width="2" stroke-miterlimit="10" x1="43.243" y1="34.757" x2="34.757" y2="43.243"/><line fill="none" stroke="#000000" stroke-width="2" stroke-miterlimit="10" x1="43.243" y1="43.243" x2="34.757" y2="34.757"/><path d="M48,32.695V8c0-2.206-1.794-4-4-4H6C3.794,4,2,5.794,2,8v34c0,2.206,1.794,4,4,4h24.521c2.019,2.441,5.07,4,8.479,4c6.065,0,11-4.935,11-11C50,36.654,49.256,34.483,48,32.695z M28.191,37H4V13h42v17.521C44.097,28.947,41.657,28,39,28C33.618,28,29.135,31.888,28.191,37z M39,48c-4.963,0-9-4.037-9-9s4.037-9,9-9s9,4.037,9,9S43.963,48,39,48z"/></svg>