<?xml version="1.0" encoding="iso-8859-1"?>
<!-- Generator: Adobe Illustrator 24.0.1, SVG Export Plug-In . SVG Version: 6.00 Build 0)  -->
<svg version="1.1" id="&#x421;&#x43B;&#x43E;&#x439;_1"
	 xmlns="http://www.w3.org/2000/svg" xmlns:xlink="http://www.w3.org/1999/xlink" x="0px" y="0px" viewBox="0 0 50 50"
	 style="enable-background:new 0 0 50 50;" xml:space="preserve">
<path style="fill:none;stroke:#000000;stroke-width:2;stroke-linecap:round;" d="M22.989,33.62c0.016-1.516,0.016-2.473,0.016-3.815
	c0.67-0.35,1.805-2.584,2.008-4.463c0.527-0.043,1.356-0.553,1.6-2.569c0.131-1.082-0.39-1.691-0.707-1.882
	c0.857-2.56,2.637-10.481-3.292-11.3c-0.61-1.065-2.172-1.603-4.203-1.603c-8.123,0.149-9.103,6.094-7.322,12.903
	c-0.317,0.191-0.838,0.8-0.707,1.882c0.244,2.015,1.073,2.526,1.6,2.569c0.202,1.88,1.335,4.179,2.007,4.529
	c0,1.343,0.016,2.309,0.016,3.815c-1.607,4.294-12.438,3.037-12.939,11.317h34.863C35.429,36.722,24.596,37.914,22.989,33.62z"/>
<path d="M39.2,13c-0.1,0-0.2,0.1-0.2,0.2v1.6c0,0.1,0.1,0.2,0.2,0.2h1.6c0.1,0,0.2-0.1,0.2-0.2v-1.6c0-0.1-0.1-0.2-0.2-0.2H39.2z"/>
<path d="M39.2,5C39.1,5,39,5.1,39,5.2v5.6c0,0.1,0.1,0.2,0.2,0.2h1.6c0.1,0,0.2-0.1,0.2-0.2V5.2C41,5.1,40.9,5,40.8,5H39.2z"/>
<path style="fill:none;stroke:#000000;stroke-width:2;stroke-linecap:round;stroke-linejoin:round;" d="M40,1c-4.971,0-9,4.029-9,9
	c0,2.052,0.694,3.937,1.85,5.45L31,21l4.839-3.024C37.084,18.627,38.497,19,40,19c4.971,0,9-4.029,9-9C49,5.029,44.971,1,40,1z"/>
</svg>