<?xml version="1.0" encoding="utf-8"?><!-- Generator: Adobe Illustrator 15.0.0, SVG Export Plug-In . SVG Version: 6.00 Build 0)  --><!DOCTYPE svg PUBLIC "-//W3C//DTD SVG 1.1//EN" "http://www.w3.org/Graphics/SVG/1.1/DTD/svg11.dtd"><svg xmlns="http://www.w3.org/2000/svg" xmlns:xlink="http://www.w3.org/1999/xlink" viewBox="0 0 50 50" width="500px" height="500px"><path fill="none" stroke="#000000" stroke-width="2" stroke-linecap="round" stroke-linejoin="round" stroke-miterlimit="10" d="M40,19V3H10v16h9.5c1.381,0,2.5,1.119,2.5,2.5l0,0c0,1.381-1.119,2.5-2.5,2.5H17c-1.105,0-2,0.895-2,2l0,0c0,1.105,0.895,2,2,2h16c1.105,0,2-0.895,2-2l0,0c0-1.105-0.895-2-2-2h-2.5c-1.381,0-2.5-1.119-2.5-2.5l0,0c0-1.381,1.119-2.5,2.5-2.5H40z"/><path d="M50,26h-2v-6h2V26z"/><path d="M2,26H0v-6h2V26z"/><line fill="none" stroke="#000000" stroke-width="2" stroke-linecap="round" stroke-linejoin="round" stroke-miterlimit="10" x1="16" y1="9" x2="34" y2="9"/><line fill="none" stroke="#000000" stroke-width="2" stroke-linecap="round" stroke-linejoin="round" stroke-miterlimit="10" x1="16" y1="13" x2="29" y2="13"/><path d="M41.584,18H40v1h-9.5c-1.381,0-2.5,1.119-2.5,2.5s1.119,2.5,2.5,2.5H33c1.105,0,2,0.895,2,2c0,1.105-0.895,2-2,2H17c-1.105,0-2-0.895-2-2c0-1.105,0.895-2,2-2h2.5c1.381,0,2.5-1.119,2.5-2.5S20.881,19,19.5,19H10v-1H4v25c0,2.757,2.243,5,5,5h32c2.757,0,5-2.243,5-5V18H41.584z M33,37c0.552,0,1,0.448,1,1s-0.448,1-1,1s-1-0.448-1-1S32.448,37,33,37z M31,33c0.552,0,1,0.448,1,1s-0.448,1-1,1s-1-0.448-1-1S30.448,33,31,33z M29,37c0.552,0,1,0.448,1,1s-0.448,1-1,1s-1-0.448-1-1S28.448,37,29,37z M27,33c0.552,0,1,0.448,1,1s-0.448,1-1,1s-1-0.448-1-1S26.448,33,27,33z M25,37c0.552,0,1,0.448,1,1s-0.448,1-1,1s-1-0.448-1-1S24.448,37,25,37z M23,33c0.552,0,1,0.448,1,1s-0.448,1-1,1s-1-0.448-1-1S22.448,33,23,33z M21,37c0.552,0,1,0.448,1,1s-0.448,1-1,1s-1-0.448-1-1S20.448,37,21,37z M19,33c0.552,0,1,0.448,1,1s-0.448,1-1,1s-1-0.448-1-1S18.448,33,19,33z M17,37c0.552,0,1,0.448,1,1s-0.448,1-1,1s-1-0.448-1-1S16.448,37,17,37z M11,35c-0.552,0-1-0.448-1-1s0.448-1,1-1s1,0.448,1,1S11.552,35,11,35z M13,39c-0.552,0-1-0.448-1-1s0.448-1,1-1s1,0.448,1,1S13.552,39,13,39z M14,34c0-0.552,0.448-1,1-1s1,0.448,1,1s-0.448,1-1,1S14,34.552,14,34z M34,43H16c-0.552,0-1-0.448-1-1s0.448-1,1-1h18c0.552,0,1,0.448,1,1S34.552,43,34,43z M35,35c-0.552,0-1-0.448-1-1s0.448-1,1-1s1,0.448,1,1S35.552,35,35,35z M37,39c-0.552,0-1-0.448-1-1s0.448-1,1-1s1,0.448,1,1S37.552,39,37,39z M39,35c-0.552,0-1-0.448-1-1s0.448-1,1-1s1,0.448,1,1S39.552,35,39,35z"/></svg>