<?xml version="1.0" encoding="iso-8859-1"?><!-- Generator: Adobe Illustrator 22.1.0, SVG Export Plug-In . SVG Version: 6.00 Build 0)  --><svg xmlns="http://www.w3.org/2000/svg" xmlns:xlink="http://www.w3.org/1999/xlink" viewBox="0 0 50 50" width="500px" height="500px"><g></g><line style="fill:none;stroke:#000000;stroke-width:2;stroke-miterlimit:10;" x1="34.672" y1="9.404" x2="9.411" y2="34.676"/><line style="fill:none;stroke:#000000;stroke-width:2;stroke-miterlimit:10;" x1="34.515" y1="28.58" x2="44.242" y2="18.975"/><path style="fill:none;stroke:#000000;stroke-width:2;stroke-miterlimit:10;" d="M15.33,9.404l25.269,25.264"/><path style="fill:none;stroke:#000000;stroke-width:2;stroke-miterlimit:10;" d="M40.599,34.668l5.797-5.797c1.06-1.06,1.595-2.447,1.603-3.837c0.01-1.413-0.525-2.828-1.602-3.906L28.872,3.603C27.802,2.534,26.401,2,25,2s-2.802,0.534-3.87,1.603L3.604,21.129c-1.069,1.069-1.603,2.47-1.603,3.87s0.534,2.802,1.603,3.87L21.13,46.396c1.069,1.069,2.47,1.603,3.87,1.603s2.802-0.534,3.87-1.603L40.599,34.668z"/></svg>