<?xml version="1.0" encoding="iso-8859-1"?><!-- Generator: Adobe Illustrator 22.0.1, SVG Export Plug-In . SVG Version: 6.00 Build 0)  --><svg xmlns="http://www.w3.org/2000/svg" xmlns:xlink="http://www.w3.org/1999/xlink" viewBox="0 0 50 50" width="500px" height="500px"><g></g><path style="fill:none;stroke:#000000;stroke-width:2;stroke-linecap:round;stroke-linejoin:round;stroke-miterlimit:10;" d="M1,23v8c0,3.314,2.686,6,6,6h3"/><path style="fill:none;stroke:#000000;stroke-width:2;stroke-linecap:round;stroke-linejoin:round;stroke-miterlimit:10;" d="M48,23v8c0,3.314-2.686,6-6,6h-3"/><path d="M7.5,15C5.57,15,4,13.43,4,11.5S5.57,8,7.5,8S11,9.57,11,11.5S9.43,15,7.5,15z"/><path d="M38,11.5C38,9.57,39.57,8,41.5,8S45,9.57,45,11.5S43.43,15,41.5,15S38,13.43,38,11.5z"/><path d="M21,9.5C21,7.57,22.57,6,24.5,6S28,7.57,28,9.5S26.43,13,24.5,13S21,11.43,21,9.5z"/><line style="fill:none;stroke:#000000;stroke-width:2;stroke-linecap:round;stroke-miterlimit:10;" x1="14" y1="26" x2="35" y2="26"/><path d="M31,23H18v-3c0-2.761,2.239-5,5-5h3c2.761,0,5,2.239,5,5V23z"/><path d="M18,32c0-1.657-1.343-3-3-3h-3c-0.552,0-1-0.448-1-1c0,0,0-6.328,0-7.5c0-1.933-1.567-3.5-3.5-3.5S4,18.567,4,20.5c0,1.173,0.013,10.29,0.013,10.29C4.162,32.59,5.693,34,7.5,34H13c0,0,0,6.935,0,7.5c0,1.381,1.119,2.5,2.5,2.5s2.5-1.119,2.5-2.5C18,40.935,18,32,18,32z"/><path d="M41.5,17c-1.933,0-3.5,1.567-3.5,3.5c0,0.679,0,7.5,0,7.5c0,0.552-0.448,1-1,1h-3c-1.657,0-3,1.343-3,3c0,0,0,8.935,0,9.5c0,1.381,1.119,2.5,2.5,2.5s2.5-1.119,2.5-2.5c0-0.565,0-7.5,0-7.5h5.5c1.807,0,3.338-1.41,3.487-3.21c0,0,0.013-9.982,0.013-10.29C45,18.567,43.433,17,41.5,17z"/></svg>