<?xml version="1.0" encoding="iso-8859-1"?><!-- Generator: Adobe Illustrator 21.1.0, SVG Export Plug-In . SVG Version: 6.00 Build 0)  --><svg xmlns="http://www.w3.org/2000/svg" xmlns:xlink="http://www.w3.org/1999/xlink" viewBox="0 0 50 50" width="500px" height="500px"><path style="fill:none;stroke:#000000;stroke-width:2;stroke-miterlimit:10;" d="M11,37c0-2.761-2.239-5-5-5s-5,2.239-5,5"/><path style="fill:none;stroke:#000000;stroke-width:2;stroke-miterlimit:10;" d="M11,37V8c0-2.761-2.239-5-5-5S1,5.239,1,8c0,1.364,0,27.636,0,29c0,2.761,2.239,5,5,5h13h30V8H11"/><polyline style="fill:none;stroke:#000000;stroke-width:2;stroke-miterlimit:10;" points="19,26 27,19 32.5,24.5 41,16 "/><polygon points="42,22 42,15 35,15 "/><line style="fill:none;stroke:#000000;stroke-width:2;stroke-miterlimit:10;" x1="17" y1="33" x2="42" y2="33"/></svg>