<?xml version="1.0" encoding="iso-8859-1"?><!-- Generator: Adobe Illustrator 19.1.1, SVG Export Plug-In . SVG Version: 6.00 Build 0)  --><svg xmlns="http://www.w3.org/2000/svg" xmlns:xlink="http://www.w3.org/1999/xlink" viewBox="0 0 50 50" width="500px" height="500px"><path style="fill:none;stroke:#000000;stroke-width:2;stroke-linecap:round;stroke-linejoin:round;stroke-miterlimit:10;" d="M38,17h4.78c3.047,0,4.22,1.829,4.22,4.22C47,26.055,44.109,32,38,32"/><path d="M38,6H10C9.448,6,9,6.447,9,7v34c0,1.654,1.346,3,3,3h24c1.654,0,3-1.346,3-3V7C39,6.447,38.552,6,38,6z M27.906,14c0.183,1.129,0.011,5-3.906,5C24,19,23.642,14.659,27.906,14z M24,34.99c-3,0-6-1.125-6-4.688c0-2.757,1.811-3.089,2.8-5.901c0.903-2.219,0.702-4.412,3.2-4.412s2.297,2.193,3.2,4.412c0.989,2.812,2.8,3.144,2.8,5.901C30,33.865,27,34.99,24,34.99z"/></svg>