<?xml version="1.0" encoding="iso-8859-1"?><!-- Generator: Adobe Illustrator 23.0.3, SVG Export Plug-In . SVG Version: 6.00 Build 0)  --><svg xmlns="http://www.w3.org/2000/svg" xmlns:xlink="http://www.w3.org/1999/xlink" viewBox="0 0 50 50" width="500px" height="500px"><polyline style="fill:none;stroke:#000000;stroke-width:2;stroke-linecap:round;stroke-miterlimit:10;" points="48.471,37 42,37 42,30.545 "/><polygon style="fill:none;stroke:#000000;stroke-width:2;stroke-linecap:round;stroke-miterlimit:10;" points="49,49 34,49 34,30 42.778,30 49,36.391 "/><path d="M34,30h8.778l1.317,1.353h1.052L43.665,6.439c0-0.013-0.001-0.025-0.003-0.039C43.527,5.055,42.432,4,41.167,4H36.75c-1.38,0-2.465,1.028-2.499,2.354l-1.792,15.758C32.322,22.04,32.166,22,32,22h-1v-5c0-0.347-0.18-0.668-0.474-0.851c-0.295-0.183-0.663-0.198-0.973-0.044L18,21.882V18c0-0.347-0.18-0.668-0.474-0.851c-0.295-0.184-0.663-0.198-0.973-0.044l-12,6C4.214,23.275,4,23.621,4,24v21c0,0.553,0.448,1,1,1h29V30z M12,40H9v-4h3V40z M12,32H9v-4h3V32z M19,40h-3v-4h3V40z M19,32h-3v-4h3V32z M26,40h-3v-4h3V40z M26,32h-3v-4h3V32z"/></svg>