<?xml version="1.0" encoding="utf-8"?><!-- Generator: Adobe Illustrator 15.0.0, SVG Export Plug-In . SVG Version: 6.00 Build 0)  --><!DOCTYPE svg PUBLIC "-//W3C//DTD SVG 1.1//EN" "http://www.w3.org/Graphics/SVG/1.1/DTD/svg11.dtd"><svg xmlns="http://www.w3.org/2000/svg" xmlns:xlink="http://www.w3.org/1999/xlink" viewBox="0 0 50 50" width="500px" height="500px"><path d="M50,13v-1c0-1.654-1.346-3-3-3H3c-1.654,0-3,1.346-3,3v1H50z"/><path d="M40.706,21.264c0.094-0.562-0.065-1.135-0.438-1.572C39.896,19.253,39.368,19,38.818,19H11.263c-0.573,0-1.106,0.242-1.464,0.665c-0.366,0.433-0.52,1.015-0.424,1.587L9.493,22h31.092L40.706,21.264z"/><path d="M0.42,15l3.712,6.496C4.31,21.809,4.641,22,5,22h2.468l-0.066-0.418c-0.194-1.158,0.124-2.328,0.87-3.209C9.011,17.5,10.101,17,11.263,17h27.555c1.138,0,2.221,0.509,2.975,1.396c0.754,0.889,1.076,2.054,0.887,3.19L42.611,22H45c0.357,0,0.689-0.191,0.868-0.504L49.58,15H0.42z"/><circle stroke="#000000" stroke-width="2" stroke-linecap="round" stroke-linejoin="round" stroke-miterlimit="10" cx="42" cy="3" r="2"/><path stroke="#000000" stroke-width="2" stroke-linecap="round" stroke-linejoin="round" stroke-miterlimit="10" d="M46.2,9.8c0-2.7-0.601-4.1-2.8-5.4"/><path d="M44.5,40c-3.032,0-5.5-2.468-5.5-5.5s2.468-5.5,5.5-5.5s5.5,2.468,5.5,5.5S47.532,40,44.5,40z"/><path d="M18.5,40c-3.033,0-5.5-2.468-5.5-5.5s2.467-5.5,5.5-5.5s5.5,2.468,5.5,5.5S21.533,40,18.5,40z"/><path d="M31.5,40c-3.032,0-5.5-2.468-5.5-5.5s2.468-5.5,5.5-5.5s5.5,2.468,5.5,5.5S34.532,40,31.5,40z"/><path d="M40.268,19.689C39.895,19.252,39.368,19,38.818,19H11.263c-0.573,0-1.106,0.242-1.464,0.665c-0.366,0.433-0.52,1.015-0.424,1.587l1.325,7.9C10.774,29.641,11.195,30,11.688,30h0.827c1.37-1.817,3.54-3,5.986-3s4.616,1.183,5.986,3h1.028c1.37-1.817,3.54-3,5.986-3s4.616,1.183,5.986,3h0.871c0.491,0,0.909-0.355,0.986-0.841l1.361-7.896C40.799,20.702,40.639,20.128,40.268,19.689z"/><path d="M5.5,40C2.467,40,0,37.532,0,34.5S2.467,29,5.5,29s5.5,2.468,5.5,5.5S8.533,40,5.5,40z"/><path d="M38.5,50c-3.032,0-5.5-2.468-5.5-5.5s2.468-5.5,5.5-5.5s5.5,2.468,5.5,5.5S41.532,50,38.5,50z"/><path d="M25,50c-3.033,0-5.5-2.468-5.5-5.5S21.967,39,25,39c3.032,0,5.5,2.468,5.5,5.5S28.032,50,25,50z"/><path d="M11.5,50C8.467,50,6,47.532,6,44.5S8.467,39,11.5,39s5.5,2.468,5.5,5.5S14.533,50,11.5,50z"/></svg>