<?xml version="1.0" encoding="iso-8859-1"?><!-- Generator: Adobe Illustrator 22.1.0, SVG Export Plug-In . SVG Version: 6.00 Build 0)  --><svg xmlns="http://www.w3.org/2000/svg" xmlns:xlink="http://www.w3.org/1999/xlink" viewBox="0 0 50 50" width="500px" height="500px"><g></g><path d="M43,4H7C5.346,4,4,5.346,4,7v3h42V7C46,5.346,44.654,4,43,4z M8,8C7.448,8,7,7.552,7,7c0-0.552,0.448-1,1-1s1,0.448,1,1C9,7.552,8.552,8,8,8z M11,8c-0.552,0-1-0.448-1-1c0-0.552,0.448-1,1-1s1,0.448,1,1C12,7.552,11.552,8,11,8z M14,8c-0.552,0-1-0.448-1-1c0-0.552,0.448-1,1-1s1,0.448,1,1C15,7.552,14.552,8,14,8z"/><path d="M4,12v31c0,1.654,1.346,3,3,3h36c1.654,0,3-1.346,3-3V12H4z M26,37.1V39h-2v-1.9c-1.7-0.3-4.7-1.3-5-5.6h2c0,1.3,0.9,3.7,4,3.7s3.8-1.5,3.8-3.1c0-4.8-9.3-1.5-9.3-7.9c0-3.4,2.9-4.8,4.5-5V17h2v2.3c2.9,0.5,3.9,2.5,4.5,4.7h-2c-0.3-1.6-1.3-2.9-3.4-2.9c-3,0-3.4,2-3.4,2.9c0,2.1,1.9,2.6,4,3.1c2.6,0.6,5.3,1.5,5.3,4.8C31,35.9,27.5,37,26,37.1z"/></svg>