<?xml version="1.0" encoding="utf-8"?><!-- Generator: Adobe Illustrator 15.0.0, SVG Export Plug-In . SVG Version: 6.00 Build 0)  --><!DOCTYPE svg PUBLIC "-//W3C//DTD SVG 1.1//EN" "http://www.w3.org/Graphics/SVG/1.1/DTD/svg11.dtd"><svg xmlns="http://www.w3.org/2000/svg" xmlns:xlink="http://www.w3.org/1999/xlink" viewBox="0 0 50 50" width="50px" height="50px"><g><path d="M50,10V5.846C50,4.277,48.724,3,47.154,3H2.846C1.277,3,0,4.277,0,5.846V10H50z"/><path d="M0,12v34c0,0.553,0.448,1,1,1h48c0.553,0,1-0.447,1-1V12H0z M14.925,33.962c-0.26,0-0.52-0.101-0.716-0.302c-0.386-0.396-0.378-1.028,0.018-1.414l5.359-5.226l-5.226-5.359c-0.386-0.396-0.378-1.029,0.018-1.414c0.395-0.387,1.029-0.377,1.414,0.018l6.622,6.791l-6.791,6.622C15.429,33.867,15.177,33.962,14.925,33.962z M36,34H23c-0.552,0-1-0.447-1-1s0.448-1,1-1h13c0.553,0,1,0.447,1,1S36.553,34,36,34z"/></g></svg>