<?xml version="1.0" encoding="iso-8859-1"?>
<!-- Generator: Adobe Illustrator 24.0.0, SVG Export Plug-In . SVG Version: 6.00 Build 0)  -->
<svg version="1.1" xmlns="http://www.w3.org/2000/svg" xmlns:xlink="http://www.w3.org/1999/xlink" x="0px" y="0px"
	 viewBox="0 0 50 50" style="enable-background:new 0 0 50 50;" xml:space="preserve">
<g id="Perch">
</g>
<g id="Acupuncture">
</g>
<g id="Cover_Up">
</g>
<g id="Child_Safe_Zone">
</g>
<g id="Sustainable_Energy">
</g>
<g id="Ice_Maker">
</g>
<g id="Bong">
</g>
<g id="Diving_Helmet">
</g>
<g id="Stretching">
</g>
<g id="Flea">
</g>
<g id="Bouncing_Ball">
</g>
<g id="Rattlesnake">
</g>
<g id="Hydroponics">
</g>
<g id="Electric_Shaver">
</g>
<g id="Dinosaur_Egg">
</g>
<g id="TEXT" style="display:none;">
</g>
<g id="Goalkeeper">
</g>
<g id="Killed_fish">
</g>
<g id="Peterbilt">
</g>
<g id="International">
</g>
<g id="Kenworth">
</g>
<g id="Bursts">
</g>
<g id="Funicular">
</g>
<g id="Neuron">
</g>
<g id="Plasma_Ball">
</g>
<g id="Car_Headlights">
</g>
<g id="Share_Moment">
</g>
<g id="Sun_Elevation">
</g>
<g id="Southwest_Airlines">
</g>
<g id="Brave_Browser">
</g>
<g id="Dog_Pooping">
</g>
<g id="Dog_Peeing">
</g>
<g id="Moonrise">
</g>
<g id="Moonset">
	<g>
		
			<line style="fill:none;stroke:#000000;stroke-width:2;stroke-linecap:round;stroke-linejoin:round;stroke-miterlimit:10;" x1="25" y1="2" x2="25" y2="20"/>
		
			<polyline style="fill:none;stroke:#000000;stroke-width:2;stroke-linecap:round;stroke-linejoin:round;stroke-miterlimit:10;" points="
			32,14 25,20 18,14 		"/>
		
			<polyline style="fill:none;stroke:#000000;stroke-width:2;stroke-linecap:round;stroke-linejoin:round;stroke-miterlimit:10;" points="
			1,49 9.5,49 40.5,49 49,49 		"/>
		
			<path id="Moon_1" style="display:none;fill:none;stroke:#000000;stroke-width:2;stroke-linecap:round;stroke-linejoin:round;stroke-miterlimit:10;" d="
			M40.4,40.66C38.87,41.52,37.11,42,35.25,42c-5.94,0-10.75-4.92-10.75-11c0-0.68,0.06-1.34,0.18-1.99C15.99,29.17,9,36.27,9,45
			c0,1.38,0.17,2.72,0.5,4h31c0.33-1.28,0.5-2.62,0.5-4C41,43.5,40.79,42.04,40.4,40.66z"/>
		<g id="Moon_2">
			<path style="fill:none;stroke:#000000;stroke-width:2;stroke-linecap:round;stroke-linejoin:round;stroke-miterlimit:10;" d="
				M41,45c0,0.42-0.02,0.83-0.05,1.24c-0.02,0.27-0.04,0.53-0.08,0.8c-0.03,0.27-0.07,0.54-0.12,0.81
				c-0.07,0.39-0.16,0.77-0.25,1.15h-31c-0.09-0.38-0.18-0.76-0.25-1.15c-0.05-0.27-0.09-0.54-0.12-0.81
				c-0.04-0.27-0.06-0.53-0.08-0.8C9.02,45.83,9,45.42,9,45c0-0.83,0.06-1.64,0.18-2.44c0.08-0.51,0.19-1.01,0.31-1.51
				c0.32-1.26,0.79-2.47,1.4-3.59c0.12-0.23,0.24-0.45,0.37-0.67s0.27-0.43,0.41-0.64c0.23-0.35,0.47-0.68,0.72-1
				c0.49,0.23,1.04,0.35,1.61,0.35c2.21,0,4-1.79,4-4c0-0.29-0.03-0.57-0.09-0.84c0.35-0.19,0.71-0.34,1.08-0.49
				c0.14-0.06,0.28-0.12,0.43-0.17c0.19-0.07,0.39-0.14,0.59-0.2c0.21-0.07,0.42-0.14,0.63-0.2c0.06-0.01,0.11-0.03,0.17-0.04
				c0.22-0.06,0.44-0.12,0.65-0.17c0.02,0,0.05-0.01,0.07-0.01c0.25-0.05,0.5-0.1,0.76-0.15c0.26-0.04,0.52-0.08,0.78-0.11
				c0.53-0.07,1.07-0.11,1.61-0.11C24.78,29,24.89,29,25,29c6.06,0,11.32,3.36,14.03,8.32C38.39,38.03,38,38.97,38,40
				c0,1.85,1.25,3.4,2.95,3.86c0.01,0.02,0.01,0.05,0.01,0.07C40.99,44.29,41,44.64,41,45z"/>
			<circle cx="34" cy="45" r="1"/>
			<circle cx="31" cy="42" r="1"/>
			<circle cx="28" cy="39" r="1"/>
			<circle cx="25" cy="36" r="1"/>
			<circle cx="22" cy="33" r="1"/>
			<circle cx="25" cy="30" r="1"/>
			<circle cx="34" cy="33" r="1"/>
			<circle cx="37" cy="36" r="1"/>
			<circle cx="34" cy="39" r="1"/>
			<circle cx="31" cy="48" r="1"/>
			<circle cx="28" cy="33" r="1"/>
			<circle cx="31" cy="36" r="1"/>
			<circle cx="40" cy="45" r="1"/>
			<circle cx="37" cy="42" r="1"/>
			<circle cx="37" cy="48" r="1"/>
			<path style="fill:none;stroke:#000000;stroke-width:2;stroke-linecap:round;stroke-linejoin:round;stroke-miterlimit:10;" d="
				M15.337,49.001C15.121,48.546,15,48.037,15,47.5c0-1.933,1.567-3.5,3.5-3.5c0.783,0,1.507,0.257,2.09,0.692"/>
		</g>
	</g>
</g>
<g id="Layer_35">
</g>
</svg>