<?xml version="1.0" encoding="iso-8859-1"?>
<!-- Generator: Adobe Illustrator 23.0.3, SVG Export Plug-In . SVG Version: 6.00 Build 0)  -->
<svg version="1.1" id="Layer_1" xmlns="http://www.w3.org/2000/svg" xmlns:xlink="http://www.w3.org/1999/xlink" x="0px" y="0px"
	 viewBox="0 0 50 50" style="enable-background:new 0 0 50 50;" xml:space="preserve">
<path style="fill:none;stroke:#000000;stroke-width:2;stroke-linecap:round;stroke-linejoin:round;" d="M26.53,49
	c-1.414-1.77-3.773,1.84-3.641-5.488c0.02-0.98,0.02-1.496,0-2.254"/>
<path style="fill:none;stroke:#000000;stroke-width:2;stroke-linecap:round;stroke-linejoin:round;" d="M18.626,41.391l0.199,1.242
	C19.7,51.16,14.118,47.078,14.497,49"/>
<path style="fill:none;stroke:#000000;stroke-width:2;stroke-linecap:round;stroke-linejoin:round;" d="M20.015,16.09
	c-4.023,0-7.582-1.656-7.582-1.656L19.921,1l7.488,13.434C27.409,14.434,24.042,16.09,20.015,16.09z"/>
<path style="fill:none;stroke:#000000;stroke-width:2;stroke-linecap:round;stroke-linejoin:round;" d="M15.608,15.504L8.847,26.902
	c0,0,0.934,0.923,3.492,1.672l-6.262,9.518c0,0,3.527,2.931,14.02,2.931c1.729,0,3.26-0.08,4.611-0.212"/>
<line style="fill:none;stroke:#000000;stroke-width:2;stroke-linecap:round;stroke-linejoin:round;" x1="31.496" y1="27.891" x2="24.397" y2="15.68"/>
<path style="fill:none;stroke:#000000;stroke-width:2;stroke-linecap:round;stroke-linejoin:round;" d="M41.026,17.09
	c-2.619,2.532-3.412,9.592-0.951,10.792c1.032,0.533,2.3-1.465,2.538-2.998c2.38,2.6,4.364,9.061,4.364,13.392
	c0,4.728-2.777,9.925-7.299,10.724c0,0,2.935-3.196,2.935-5.928c0-3.263-1.429-3.865-1.429-3.865
	c-3.174,5.265-5.157-0.133-2.935-6.129c-7.457,2.732-1.587,9.327-8.808,6.129c0,6.196,4.364,9.793,4.364,9.793S25,48.068,25,39.741
	c0-2.798,3.016-8.593,1.348-12.059c2.064,0.068,3.651,2.665,5.315,0.802C33.569,26.417,31.028,18.888,41.026,17.09z"/>
<path style="fill:none;stroke:#000000;stroke-width:2;stroke-linecap:round;stroke-linejoin:round;" d="M11.672,28.368
	c1.742,0.516,5.184,1.412,8.672,1.412c3.125,0,4.806-0.393,6.022-0.706"/>
</svg>