<?xml version="1.0" encoding="iso-8859-1"?><!-- Generator: Adobe Illustrator 19.1.1, SVG Export Plug-In . SVG Version: 6.00 Build 0)  --><svg xmlns="http://www.w3.org/2000/svg" xmlns:xlink="http://www.w3.org/1999/xlink" viewBox="0 0 50 50" width="50px" height="50px"><line style="fill:none;stroke:#000000;stroke-width:2;stroke-linecap:round;stroke-linejoin:round;stroke-miterlimit:10;" x1="11" y1="32" x2="32" y2="32"/><line style="fill:none;stroke:#000000;stroke-width:2;stroke-linecap:round;stroke-linejoin:round;stroke-miterlimit:10;" x1="13" y1="28" x2="24.375" y2="28"/><path style="fill:none;stroke:#000000;stroke-width:2;stroke-linecap:round;stroke-linejoin:round;stroke-miterlimit:10;" d="M32,32c2.76,0,4.999,2.239,4.999,4.999c0,2.76-2.239,4.895-4.999,4.999c-2.135,0.052-3.906-1.25-4.635-3.281"/><g><path d="M36,13c-1.178,0-2.322,0.202-3.416,0.604C31.318,9.13,27.26,6,22.5,6C16.71,6,12,10.71,12,16.5c0,0.165,0.004,0.331,0.014,0.5c-0.004,0-0.009,0-0.014,0c-4.411,0-8,3.589-8,8c0,2.957,1.616,5.538,4.008,6.922c0.019-0.723,0.298-1.377,0.742-1.886C7.098,28.967,6,27.111,6,25c0-3.309,2.691-6,6-6c0.3,0,0.622,0.029,0.984,0.088l1.383,0.228l-0.235-1.382C14.043,17.413,14,16.944,14,16.5c0-4.687,3.813-8.5,8.5-8.5c4.201,0,7.727,3.013,8.383,7.164l0.216,1.368l1.23-0.636C33.481,15.302,34.716,15,36,15c4.411,0,8,3.589,8,8c0,4.013-2.974,7.336-6.831,7.905c0.585,0.497,1.096,1.075,1.519,1.718C42.899,31.444,46,27.582,46,23C46,17.486,41.514,13,36,13z"/></g><path style="fill:none;stroke:#000000;stroke-width:2;stroke-linecap:round;stroke-linejoin:round;stroke-miterlimit:10;" d="M24.375,28c1.913,0,3.5-1.587,3.5-3.5s-1.587-3.5-3.5-3.5c-1.493,0-2.753,0.933-3.267,2.24"/><line style="fill:none;stroke:#000000;stroke-width:2;stroke-linecap:round;stroke-linejoin:round;stroke-miterlimit:10;" x1="9" y1="36" x2="18" y2="36"/><path style="fill:none;stroke:#000000;stroke-width:2;stroke-linecap:round;stroke-linejoin:round;stroke-miterlimit:10;" d="M18,36c1.64,0,3,1.36,3,3s-1.36,3-3,3c-1.16,0-2.16-0.64-2.64-1.6"/></svg>