<?xml version="1.0" encoding="utf-8"?><!-- Generator: Adobe Illustrator 18.1.1, SVG Export Plug-In . SVG Version: 6.00 Build 0)  --><svg xmlns="http://www.w3.org/2000/svg" xmlns:xlink="http://www.w3.org/1999/xlink" viewBox="0 0 50 50" width="50px" height="50px"><path fill="none" stroke="#000000" stroke-width="2" stroke-linecap="round" stroke-miterlimit="10" d="M39,29H11c-0.6,0-1,0.4-1,1v18c0,0.6,0.4,1,1,1h28c0.6,0,1-0.4,1-1V30C40,29.4,39.6,29,39,29z M30.5,44h-11L14,36.7c0,0,4-3.7,11-3.7s11,3.7,11,3.7L30.5,44z"/><line fill="none" stroke="#000000" stroke-width="2" stroke-miterlimit="10" x1="25" y1="29" x2="25" y2="25"/><polygon points="30.4,35.4 23.4,42 26.4,42 "/><path fill="none" stroke="#000000" stroke-width="2" stroke-linecap="round" stroke-miterlimit="10" d="M25,1c-6.1,0-11,4.9-11,11s4.9,11,11,11s11-4.9,11-11S31.1,1,25,1z"/><g><path d="M28,9.9c-0.1-0.3-0.5-2.3-2.9-2.3c-3.4,0-3.5,3.9-3.5,4.4c0,3.6,2.2,4.4,3.5,4.4c2.6,0,2.9-2.6,3-3.1h2c0,1.1-0.9,4.7-5,4.7c-3.7,0-5.6-3.1-5.6-6.1c0-2.6,1.5-6.1,5.6-6.1c4.2,0,4.9,3.3,5,4H28z"/></g><path fill="none" stroke="#000000" stroke-width="2" stroke-linecap="round" stroke-miterlimit="10" d="M35.4,21.3c1.1,0.4,2.3,0.7,3.6,0.7c5.5,0,10-4.5,10-10c0-5.5-4.5-10-10-10c-1.3,0-2.5,0.2-3.6,0.7"/><path fill="none" stroke="#000000" stroke-width="2" stroke-linecap="round" stroke-miterlimit="10" d="M14.6,21.3C13.5,21.8,12.3,22,11,22C5.5,22,1,17.5,1,12C1,6.5,5.5,2,11,2c1.3,0,2.5,0.2,3.6,0.7"/></svg>