<?xml version="1.0" encoding="iso-8859-1"?>
<!-- Generator: Adobe Illustrator 22.0.1, SVG Export Plug-In . SVG Version: 6.00 Build 0)  -->
<svg version="1.1" id="&#x421;&#x43B;&#x43E;&#x439;_2"
	 xmlns="http://www.w3.org/2000/svg" xmlns:xlink="http://www.w3.org/1999/xlink" x="0px" y="0px" viewBox="0 0 50 50"
	 style="enable-background:new 0 0 50 50;" xml:space="preserve">
<g>
	<path style="fill:none;stroke:#000000;stroke-width:2.3;stroke-linecap:round;stroke-miterlimit:10;" d="M25,14.65
		c5.707,0,10.35,4.644,10.35,10.35c0,5.707-4.643,10.35-10.35,10.35c-5.706,0-10.35-4.643-10.35-10.35
		C14.65,19.294,19.294,14.65,25,14.65"/>
</g>
<path style="fill:none;stroke:#000000;stroke-width:2.3;stroke-linecap:round;stroke-miterlimit:10;" d="M8.737,8.737
	C10.103,9.001,10.703,9.557,11,10c0.698,1.042,0.199,2.181,1,3c0.479,0.49,1.16,0.596,1.616,0.617"/>
<path style="fill:none;stroke:#000000;stroke-width:2.3;stroke-linecap:round;stroke-miterlimit:10;" d="M25.177,2.726
	c0.779,1.153,0.811,1.97,0.707,2.494c-0.244,1.23-1.402,1.683-1.414,2.828c-0.007,0.685,0.399,1.242,0.706,1.579"/>
<path style="fill:none;stroke:#000000;stroke-width:2.3;stroke-linecap:round;stroke-miterlimit:10;" d="M35.737,36.737
	C37.103,37.001,37.703,37.557,38,38c0.698,1.042,0.199,2.181,1,3c0.479,0.49,1.16,0.596,1.616,0.617"/>
<path style="fill:none;stroke:#000000;stroke-width:2.3;stroke-linecap:round;stroke-miterlimit:10;" d="M40.726,24.177
	c1.153-0.779,1.97-0.811,2.494-0.707c1.23,0.244,1.683,1.402,2.828,1.414c0.685,0.007,1.242-0.399,1.579-0.706"/>
<path style="fill:none;stroke:#000000;stroke-width:2.3;stroke-linecap:round;stroke-miterlimit:10;" d="M9.627,24.177
	c-1.153,0.779-1.97,0.811-2.494,0.707c-1.23-0.244-1.683-1.402-2.828-1.414c-0.685-0.007-1.242,0.399-1.579,0.706"/>
<path style="fill:none;stroke:#000000;stroke-width:2.3;stroke-linecap:round;stroke-miterlimit:10;" d="M25.177,40.726
	c0.779,1.153,0.811,1.97,0.707,2.494c-0.244,1.23-1.402,1.683-1.414,2.828c-0.007,0.685,0.399,1.242,0.706,1.579"/>
<path style="fill:none;stroke:#000000;stroke-width:2.3;stroke-linecap:round;stroke-miterlimit:10;" d="M36.736,13.617
	c0.264-1.366,0.82-1.966,1.263-2.263c1.042-0.698,2.181-0.199,3-1c0.49-0.479,0.596-1.16,0.617-1.616"/>
<path style="fill:none;stroke:#000000;stroke-width:2.3;stroke-linecap:round;stroke-miterlimit:10;" d="M12.617,36.737
	c-0.264,1.366-0.82,1.966-1.263,2.263c-1.042,0.698-2.181,0.199-3,1c-0.49,0.479-0.596,1.16-0.617,1.616"/>
<path style="fill:none;stroke:#000000;stroke-width:2;stroke-linecap:round;stroke-linejoin:round;stroke-miterlimit:10;" d="M20,27
	c3.333,0,6.667,0,10,0c-0.524,2.33-2.612,4-5,4S20.524,29.33,20,27z"/>
<path style="fill:none;stroke:#000000;stroke-width:2.3;stroke-linecap:round;stroke-miterlimit:10;" d="M20,22
	c0.246-0.631,0.86-1.044,1.531-1.031C22.18,20.981,22.762,21.39,23,22"/>
<path style="fill:none;stroke:#000000;stroke-width:2.3;stroke-linecap:round;stroke-miterlimit:10;" d="M27,22
	c0.216-0.643,0.822-1.078,1.5-1.078S29.784,21.357,30,22"/>
</svg>