<?xml version="1.0" encoding="iso-8859-1"?><!-- Generator: Adobe Illustrator 19.1.0, SVG Export Plug-In . SVG Version: 6.00 Build 0)  --><svg xmlns="http://www.w3.org/2000/svg" xmlns:xlink="http://www.w3.org/1999/xlink" viewBox="0 0 50 50" width="50px" height="50px"><path style="fill:none;stroke:#000000;stroke-width:2;stroke-linecap:round;stroke-linejoin:round;stroke-miterlimit:10;" d="M41.5,35c-1.625,1.509-3.972,2-5.5,2c-1.527,0-3.874-0.491-5.5-2"/><path style="fill:none;stroke:#000000;stroke-width:2;stroke-linecap:round;stroke-linejoin:round;stroke-miterlimit:10;" d="M47,37c-1.527,0-3.874-0.491-5.5-2"/><path style="fill:none;stroke:#000000;stroke-width:2;stroke-linecap:round;stroke-linejoin:round;stroke-miterlimit:10;" d="M8.5,35c-1.625,1.509-3.972,2-5.5,2"/><path style="fill:none;stroke:#000000;stroke-width:2;stroke-linecap:round;stroke-linejoin:round;stroke-miterlimit:10;" d="M41.5,24c-1.625,1.509-3.972,2-5.5,2c-1.527,0-3.874-0.491-5.5-2"/><path style="fill:none;stroke:#000000;stroke-width:2;stroke-linecap:round;stroke-linejoin:round;stroke-miterlimit:10;" d="M47,26c-1.527,0-3.874-0.491-5.5-2"/><path style="fill:none;stroke:#000000;stroke-width:2;stroke-linecap:round;stroke-linejoin:round;stroke-miterlimit:10;" d="M30.5,24c-1.625,1.509-3.972,2-5.5,2c-1.527,0-3.874-0.491-5.5-2"/><path style="fill:none;stroke:#000000;stroke-width:2;stroke-linecap:round;stroke-linejoin:round;stroke-miterlimit:10;" d="M19.5,24c-1.625,1.509-3.972,2-5.5,2c-1.527,0-3.874-0.491-5.5-2"/><path style="fill:none;stroke:#000000;stroke-width:2;stroke-linecap:round;stroke-linejoin:round;stroke-miterlimit:10;" d="M8.5,24c-1.625,1.509-3.972,2-5.5,2"/><path style="fill:none;stroke:#000000;stroke-width:2;stroke-linecap:round;stroke-linejoin:round;stroke-miterlimit:10;" d="M47,15c-1.527,0-3.874-0.491-5.5-2"/><path style="fill:none;stroke:#000000;stroke-width:2;stroke-linecap:round;stroke-linejoin:round;stroke-miterlimit:10;" d="M19.5,13c-1.625,1.509-3.972,2-5.5,2c-1.527,0-3.874-0.491-5.5-2"/><path style="fill:none;stroke:#000000;stroke-width:2;stroke-linecap:round;stroke-linejoin:round;stroke-miterlimit:10;" d="M8.5,13c-1.625,1.509-3.972,2-5.5,2"/><g><path d="M23.503,13.839c-1.136-0.225-2.389-0.706-3.323-1.572c-0.404-0.375-1.038-0.353-1.413,0.053c-0.376,0.405-0.352,1.038,0.053,1.413c1.431,1.328,3.344,1.969,4.978,2.18C23.613,15.253,23.508,14.559,23.503,13.839z"/><path d="M42.233,12.32c-0.376-0.406-1.009-0.429-1.413-0.053c-0.666,0.619-1.497,1.041-2.332,1.315c0.002,0.064,0.012,0.132,0.012,0.196c0,0.675-0.093,1.326-0.252,1.95c1.361-0.319,2.799-0.944,3.932-1.996C42.585,13.357,42.609,12.725,42.233,12.32z"/></g><g><path d="M13.149,35.942c-1.282-0.151-2.852-0.64-3.969-1.675c-0.404-0.375-1.037-0.353-1.413,0.053c-0.376,0.405-0.352,1.038,0.053,1.413c1.3,1.206,3,1.846,4.525,2.112C12.582,37.206,12.854,36.568,13.149,35.942z"/><path d="M31.233,34.32c-0.376-0.406-1.009-0.428-1.413-0.053C28.442,35.546,26.362,36,25,36c-0.039,0-0.084-0.004-0.124-0.005c0.305,0.651,0.586,1.314,0.826,1.977c1.729-0.135,3.899-0.774,5.478-2.239C31.585,35.357,31.609,34.725,31.233,34.32z"/></g><path style="fill:none;stroke:#000000;stroke-width:2;stroke-linecap:round;stroke-miterlimit:10;" d="M36,13.779C36,16.662,33.761,19,31,19s-5-2.338-5-5.221C26,9.894,31,3,31,3S36,9.894,36,13.779z"/><path style="fill:none;stroke:#000000;stroke-width:2;stroke-linecap:round;stroke-miterlimit:10;" d="M24,41.779C24,44.662,21.761,47,19,47s-5-2.338-5-5.221C14,37.894,19,31,19,31S24,37.894,24,41.779z"/></svg>