<?xml version="1.0" encoding="utf-8"?><!-- Generator: Adobe Illustrator 17.1.0, SVG Export Plug-In . SVG Version: 6.00 Build 0)  --><!DOCTYPE svg PUBLIC "-//W3C//DTD SVG 1.1//EN" "http://www.w3.org/Graphics/SVG/1.1/DTD/svg11.dtd"><svg xmlns="http://www.w3.org/2000/svg" xmlns:xlink="http://www.w3.org/1999/xlink" viewBox="0 0 50 50" width="50px" height="50px"><path fill="none" stroke="#000000" stroke-width="2" stroke-linecap="round" stroke-linejoin="round" stroke-miterlimit="10" d="M19.135,44.164c4.11,1.762,4.862,3.469,5.019,4.836c4.192-3.222,0.775-5.569,3.007-7.824c2.216-2.238,9.308-1.519,13.699,2.569c-0.381-1.487,0.075-3.544,1.032-4.845s3.821-0.926,7.107-1.003c-1.601-2.233-4.819-4.989-4.494-6.611c0.325-1.622,1.513-2.96,4.112-4.195c-3.395-2.236-10.476-0.174-11.029-2.659c-0.553-2.485,6.673-4.597,9.73-14.245c-1.849,0.716-5.936,0.565-7.337-0.849S38.426,4.67,38.072,1c-2.216,3.178-3.668,5.943-6.267,6.098c-2.528,0.15-5.016-1.466-6.419-3.705c-0.917,4.863,0.999,15.127-2.293,16.055c-3.286,0.926-3.21-6.638-8.559-9.417c0.153,2.316-0.229,4.554-1.376,5.249c-1.813,1.098-5.222-0.72-7.184-1.93c1.656,2.522,3.762,7.036,2.446,9.031c-1.376,2.084-2.352,2.159-4.509,2.547c3.072,5.184,10.678,5.913,10.817,7.247c0.417,4.022-5.581,4.113-6.231,6.801c1.809-0.898,4.892,1.13,5.269,1.847c-3.46,4.773-10.639,4.848-11.847,5.256c-1.63,0.551-1.005,3.048,1.208,2.843c14.815-1.059,26.389-20.867,31.401-35.185"/><path fill="none" stroke="#000000" stroke-width="2" stroke-linecap="round" stroke-linejoin="round" stroke-miterlimit="10" d="M41.853,34.574c-6.444-2.264-13.137-1.767-17.616-0.547"/><path fill="none" stroke="#000000" stroke-width="2" stroke-linecap="round" stroke-linejoin="round" stroke-miterlimit="10" d="M24.112,33.976c-0.779-2.554-4.514-8.311-9.057-11.579"/></svg>