<?xml version="1.0" encoding="utf-8"?><!-- Generator: Adobe Illustrator 18.1.1, SVG Export Plug-In . SVG Version: 6.00 Build 0)  --><svg xmlns="http://www.w3.org/2000/svg" xmlns:xlink="http://www.w3.org/1999/xlink" viewBox="0 0 50 50" width="50px" height="50px"><path fill="none" stroke="#000000" stroke-width="2" stroke-linejoin="round" stroke-miterlimit="10" d="M49,12C49,12,49,12,49,12C49,12,49,12,49,12c0,0-4.1-1.6-4.4-2.6c-0.5-1.6,1.2-5.2,1.2-5.2s-3.7,2-4.9,1.3C39.7,4.9,38,1,38,1s-1.3,4-2.6,4.5c-1.3,0.5-5.2-1.3-5.2-1.3s1.7,3.9,1.3,5.2C31.2,10.3,27,12,27,12s0,0,0,0c0,0,0,0,0,0s4.1,1.5,4.4,2.6c0.4,1.6-1.2,5.2-1.2,5.2s3.7-2,4.9-1.3C36.3,19.1,38,23,38,23s1.3-4,2.6-4.5c1.3-0.5,5.2,1.3,5.2,1.3s-1.8-3.9-1.3-5.2C44.8,13.6,49,12,49,12z M38,16c-2.2,0-4-1.8-4-4s1.8-4,4-4c2.2,0,4,1.8,4,4S40.2,16,38,16z"/><path fill="none" stroke="#000000" stroke-width="2" stroke-miterlimit="10" d="M15.9,7.1C14.6,4.7,12,3,9,3c-4.4,0-8,3.6-8,8c0,0.8,0.2,1.6,0.4,2.3C1.1,13.8,1,14.4,1,15c0,2.2,1.8,4,4,4c0.6,0,9,0,10,0c3.3,0,6-2.7,6-6C21,10,18.8,7.5,15.9,7.1z"/><circle fill="none" stroke="#000000" stroke-width="2" stroke-miterlimit="10" cx="25" cy="43.5" r="5.5"/><path d="M25.1,37.7c1.4,0.2,2.7,0.7,3.7,1.5l3.8-14.9L25.1,37.7z"/></svg>