<?xml version="1.0" encoding="iso-8859-1"?>
<!-- Generator: Adobe Illustrator 23.0.3, SVG Export Plug-In . SVG Version: 6.00 Build 0)  -->
<svg version="1.1" id="Layer_1" xmlns="http://www.w3.org/2000/svg" xmlns:xlink="http://www.w3.org/1999/xlink" x="0px" y="0px"
	 viewBox="0 0 50 50" style="enable-background:new 0 0 50 50;" xml:space="preserve">
<g>
	<path d="M43,6v8.586l-0.293-0.293c-0.391-0.391-1.023-0.391-1.414,0s-0.391,1.023,0,1.414l1.999,1.999
		c0.092,0.093,0.203,0.166,0.326,0.217C43.74,17.974,43.87,18,44,18s0.26-0.026,0.382-0.077c0.123-0.051,0.234-0.124,0.326-0.217
		l1.999-1.999c0.391-0.391,0.391-1.023,0-1.414s-1.023-0.391-1.414,0L45,14.586V5c0-0.553-0.447-1-1-1H2.578
		C2.283,4,2.004,4.13,1.813,4.355C1.624,4.58,1.543,4.878,1.593,5.169l6.56,38.336C8.398,44.951,9.643,46,11.109,46h19.781
		c1.467,0,2.711-1.049,2.957-2.494L40.265,6H43z M34.126,30.025C34.083,30.02,34.045,30,34,30H8c-0.045,0-0.083,0.02-0.126,0.025
		L6.33,21h29.34L34.126,30.025z M31.877,43.169C31.794,43.65,31.38,44,30.891,44H11.109c-0.489,0-0.903-0.35-0.986-0.832L8.212,32
		h25.576L31.877,43.169z M36.012,19.002C36.008,19.002,36.004,19,36,19H6c-0.004,0-0.008,0.002-0.012,0.002L3.764,6h34.473
		L36.012,19.002z"/>
	<path d="M21,17c1.654,0,3-1.346,3-3c0-1.249-1.615-4.492-2.11-5.457c-0.342-0.666-1.438-0.666-1.779,0
		C19.615,9.508,18,12.751,18,14C18,15.654,19.346,17,21,17z"/>
	<path d="M11,17c1.654,0,3-1.346,3-3c0-1.249-1.615-4.492-2.11-5.457c-0.342-0.666-1.438-0.666-1.779,0C9.615,9.508,8,12.751,8,14
		C8,15.654,9.346,17,11,17z"/>
	<path d="M31,17c1.654,0,3-1.346,3-3c0-1.249-1.615-4.492-2.11-5.457c-0.342-0.666-1.438-0.666-1.779,0
		C29.615,9.508,28,12.751,28,14C28,15.654,29.346,17,31,17z"/>
	<path d="M20.11,34.543C19.615,35.508,18,38.751,18,40c0,1.654,1.346,3,3,3s3-1.346,3-3c0-1.249-1.615-4.492-2.11-5.457
		C21.548,33.877,20.452,33.877,20.11,34.543z M21,41c-0.552,0-1-0.448-1-0.999c0.007-0.356,0.442-1.475,1-2.702
		c0.558,1.228,0.993,2.346,1,2.702C22,40.552,21.551,41,21,41z"/>
	<path d="M43.11,20.543C42.615,21.508,41,24.751,41,26c0,1.654,1.346,3,3,3s3-1.346,3-3c0-1.249-1.615-4.492-2.11-5.457
		C44.548,19.877,43.452,19.877,43.11,20.543z M44,27c-0.552,0-1-0.448-1-0.999c0.007-0.356,0.442-1.475,1-2.702
		c0.558,1.228,0.993,2.346,1,2.702C45,26.552,44.551,27,44,27z"/>
</g>
</svg>