<?xml version="1.0" encoding="iso-8859-1"?><!-- Generator: Adobe Illustrator 22.1.0, SVG Export Plug-In . SVG Version: 6.00 Build 0)  --><svg xmlns="http://www.w3.org/2000/svg" xmlns:xlink="http://www.w3.org/1999/xlink" viewBox="0 0 50 50" width="50px" height="50px"><g></g><line style="fill:none;stroke:#000000;stroke-width:2;stroke-linecap:round;stroke-miterlimit:10;" x1="46" y1="4" x2="4" y2="46"/><line style="fill:none;stroke:#000000;stroke-width:2;stroke-linecap:round;stroke-linejoin:round;stroke-miterlimit:10;" x1="22" y1="43" x2="22" y2="47"/><line style="fill:none;stroke:#000000;stroke-width:2;stroke-linecap:round;stroke-linejoin:round;stroke-miterlimit:10;" x1="20" y1="45" x2="24" y2="45"/><line style="fill:none;stroke:#000000;stroke-width:2;stroke-linecap:round;stroke-linejoin:round;stroke-miterlimit:10;" x1="45" y1="17" x2="45" y2="21"/><line style="fill:none;stroke:#000000;stroke-width:2;stroke-linecap:round;stroke-linejoin:round;stroke-miterlimit:10;" x1="43" y1="19" x2="47" y2="19"/><path d="M15.278,27.651l1.469-1.469c-0.609-0.316-1.186-0.717-1.697-1.228c-1.322-1.322-2.05-3.08-2.05-4.949c0-1.87,0.728-3.628,2.05-4.95c1.365-1.364,3.157-2.047,4.95-2.047s3.585,0.683,4.95,2.047c0.505,0.505,0.91,1.079,1.231,1.694l1.469-1.469c-0.361-0.587-0.786-1.14-1.285-1.639c-3.509-3.51-9.218-3.51-12.728,0C11.936,15.34,11,17.601,11,20.005c0,2.403,0.936,4.664,2.636,6.363C14.141,26.873,14.695,27.294,15.278,27.651z"/><line style="fill:none;stroke:#000000;stroke-width:2;stroke-linecap:round;stroke-linejoin:round;stroke-miterlimit:10;" x1="20" y1="3" x2="20" y2="8"/><line style="fill:none;stroke:#000000;stroke-width:2;stroke-linecap:round;stroke-linejoin:round;stroke-miterlimit:10;" x1="7.979" y1="7.979" x2="11.515" y2="11.515"/><line style="fill:none;stroke:#000000;stroke-width:2;stroke-linecap:round;stroke-linejoin:round;stroke-miterlimit:10;" x1="3" y1="20" x2="8" y2="20"/><line style="fill:none;stroke:#000000;stroke-width:2;stroke-linecap:round;stroke-linejoin:round;stroke-miterlimit:10;" x1="7.979" y1="32.021" x2="11.515" y2="28.485"/><line style="fill:none;stroke:#000000;stroke-width:2;stroke-linecap:round;stroke-linejoin:round;stroke-miterlimit:10;" x1="32.021" y1="7.979" x2="28.485" y2="11.515"/><path style="fill:none;stroke:#000000;stroke-width:2;stroke-linecap:round;stroke-linejoin:round;stroke-miterlimit:10;" d="M41.5,38c-3.59,0-6.5-2.91-6.5-6.5c0-2.302,1.2-4.32,3.005-5.474C37.837,26.017,37.671,26,37.5,26c-5.247,0-9.5,4.253-9.5,9.5s4.253,9.5,9.5,9.5s9.5-4.253,9.5-9.5c0-0.171-0.017-0.337-0.026-0.505C45.82,36.8,43.802,38,41.5,38z"/></svg>