<?xml version="1.0" encoding="iso-8859-1"?><!-- Generator: Adobe Illustrator 19.1.0, SVG Export Plug-In . SVG Version: 6.00 Build 0)  --><svg xmlns="http://www.w3.org/2000/svg" xmlns:xlink="http://www.w3.org/1999/xlink" viewBox="0 0 50 50" width="50px" height="50px"><line style="fill:none;stroke:#000000;stroke-width:2;stroke-linecap:round;stroke-miterlimit:10;" x1="27" y1="43" x2="29" y2="41"/><line style="fill:none;stroke:#000000;stroke-width:2;stroke-linecap:round;stroke-miterlimit:10;" x1="12" y1="38" x2="14" y2="36"/><line style="fill:none;stroke:#000000;stroke-width:2;stroke-linecap:round;stroke-miterlimit:10;" x1="7" y1="43" x2="9" y2="41"/><line style="fill:none;stroke:#000000;stroke-width:2;stroke-linecap:round;stroke-miterlimit:10;" x1="23" y1="37" x2="25" y2="35"/><line style="fill:none;stroke:#000000;stroke-width:2;stroke-linecap:round;stroke-miterlimit:10;" x1="18" y1="42" x2="20" y2="40"/><line style="fill:none;stroke:#000000;stroke-width:2;stroke-linecap:round;stroke-linejoin:round;stroke-miterlimit:10;" x1="3" y1="3" x2="47" y2="47"/><g><path d="M14.014,15.216C14.166,10.661,17.909,7,22.5,7c4.202,0,7.728,3.013,8.384,7.165l0.217,1.369l1.231-0.637C33.48,14.302,34.714,14,36,14c4.411,0,8,3.589,8,8s-3.589,8-8,8h-7.202l2,2H36c5.514,0,10-4.486,10-10s-4.486-10-10-10c-1.179,0-2.323,0.203-3.415,0.603C31.318,8.129,27.26,5,22.5,5c-5.075,0-9.319,3.619-10.29,8.412L14.014,15.216z"/><path d="M32.278,36.308l-0.985,0.985c-0.391,0.391-0.391,1.023,0,1.414C31.488,38.902,31.744,39,32,39s0.512-0.098,0.707-0.293l0.985-0.985L32.278,36.308z"/><path d="M25.97,30H12c-3.309,0-6-2.691-6-6s2.691-6,6-6c0.301,0,0.623,0.029,0.983,0.088l1.288,0.212l-2.299-2.299C7.574,16.017,4,19.598,4,24c0,4.411,3.589,8,8,8h15.97L25.97,30z"/></g></svg>