<?xml version="1.0" encoding="utf-8"?><!-- Generator: Adobe Illustrator 18.1.1, SVG Export Plug-In . SVG Version: 6.00 Build 0)  --><svg xmlns="http://www.w3.org/2000/svg" xmlns:xlink="http://www.w3.org/1999/xlink" viewBox="0 0 50 50" width="50px" height="50px"><path fill="none" stroke="#000000" stroke-width="2" stroke-linecap="round" stroke-linejoin="round" stroke-miterlimit="10" d="M44.9,7.7c1.2,5.6-7.2,12.1-18.8,14.5C14.6,24.7,3,22.1,3,16.4c0-6,7.5-12.1,19-14.5C33.5-0.5,43.7,2.1,44.9,7.7z"/><path fill="none" stroke="#000000" stroke-width="2" stroke-linecap="round" stroke-linejoin="round" stroke-miterlimit="10" d="M3,15.9c0,7.4,9.6,12.3,20.8,12.3c14.7,0,20.2-6.4,20.2-9"/><path fill="none" stroke="#000000" stroke-width="2" stroke-linecap="round" stroke-linejoin="round" stroke-miterlimit="10" d="M40.2,30.3c0,0-2.5,4.1-11.5,4.1c-9.6,0-15.1-6.8-15.1-6.8"/><path fill="none" stroke="#000000" stroke-width="2" stroke-linecap="round" stroke-linejoin="round" stroke-miterlimit="10" d="M17.7,33.2c0,0,2.1,7.7,11.3,7.7c4.2,0,7-1.9,7-1.9"/><path fill="none" stroke="#000000" stroke-width="2" stroke-linecap="round" stroke-linejoin="round" stroke-miterlimit="10" d="M9.6,15.6c1.9-3.4,7.3-6.6,14.1-8c5.5-1.1,10.5-0.8,13.9,0.5"/><path fill="none" stroke="#000000" stroke-width="2" stroke-linecap="round" stroke-linejoin="round" stroke-miterlimit="10" d="M18.5,40.3c0,0,1.5,4.8,7.8,4.8"/><path fill="none" stroke="#000000" stroke-width="2" stroke-linecap="round" stroke-linejoin="round" stroke-miterlimit="10" d="M14.2,49c3,0,5-1.8,5-1.8"/></svg>