<?xml version="1.0" encoding="utf-8"?><!-- Generator: Adobe Illustrator 17.1.0, SVG Export Plug-In . SVG Version: 6.00 Build 0)  --><!DOCTYPE svg PUBLIC "-//W3C//DTD SVG 1.0//EN" "http://www.w3.org/TR/2001/REC-SVG-20010904/DTD/svg10.dtd"><svg xmlns="http://www.w3.org/2000/svg" xmlns:xlink="http://www.w3.org/1999/xlink" viewBox="0 0 50 50" width="50px" height="50px"><g><polyline fill="none" stroke="#000000" stroke-width="2" stroke-linecap="round" stroke-linejoin="round" stroke-miterlimit="10" points="28.7,35.2 1,40 1,49 19,49 "/><polyline fill="none" stroke="#000000" stroke-width="2" stroke-linecap="round" stroke-linejoin="round" stroke-miterlimit="10" points="29,49 49,49 49,40 34.2,36.5 "/><path fill="none" stroke="#000000" stroke-width="2" stroke-linecap="round" stroke-linejoin="round" stroke-miterlimit="10" d="M45.3,39.1l3.4-31.6L35.4,1.2l-16,2.9l-3.8,33.5"/></g><g><path fill="none" stroke="#000000" stroke-width="2" stroke-linecap="round" stroke-linejoin="round" stroke-miterlimit="10" d="M18.1,13.8l-8.3-1.9L1,16.4l2.7,23.1"/></g><polyline fill="none" stroke="#000000" stroke-width="2" stroke-linecap="round" stroke-linejoin="round" stroke-miterlimit="10" points="19,49 27,42 24,40 29,36 29,33 33,24 32,34 35,35 31,40 35,41 29,49 "/><rect x="37.6" y="11.1" transform="matrix(-0.9932 -0.1167 0.1167 -0.9932 78.1736 31.624)" width="4.8" height="4.8"/><rect x="36.7" y="19" transform="matrix(-0.9932 -0.1167 0.1167 -0.9932 75.3997 47.2719)" width="4.8" height="4.8"/><rect x="35.8" y="26.9" transform="matrix(-0.9932 -0.1167 0.1167 -0.9932 72.626 62.9186)" width="4.8" height="4.8"/><rect x="24.9" y="9.6" transform="matrix(-0.9932 -0.1167 0.1167 -0.9932 53.0676 27.1685)" width="4.8" height="4.8"/><rect x="24" y="17.5" transform="matrix(-0.9932 -0.1167 0.1167 -0.9932 50.2938 42.816)" width="4.8" height="4.8"/><rect x="23.1" y="25.5" transform="matrix(-0.9932 -0.1167 0.1167 -0.9932 47.5201 58.4627)" width="4.8" height="4.8"/><rect x="5.1" y="19.2" transform="matrix(-0.9932 0.1167 -0.1167 -0.9932 15.9942 40.9869)" width="3.5" height="3.5"/><rect x="5.8" y="25.8" transform="matrix(-0.9932 0.1167 -0.1167 -0.9932 18.3147 53.9877)" width="3.5" height="3.5"/><rect x="6.6" y="32.3" transform="matrix(0.1167 0.9932 -0.9932 0.1167 41.2104 21.8218)" width="3.5" height="3.5"/><polygon points="17.2,21.5 13.6,21.9 13.2,18.5 16.8,18.1 "/><polyline points="16.6,28.1 14.4,28.5 14,25 17.1,24.5 "/></svg>