<?xml version="1.0" encoding="iso-8859-1"?><!-- Generator: Adobe Illustrator 19.1.0, SVG Export Plug-In . SVG Version: 6.00 Build 0)  --><svg xmlns="http://www.w3.org/2000/svg" xmlns:xlink="http://www.w3.org/1999/xlink" viewBox="0 0 50 50" width="50px" height="50px"><rect x="14.999" y="7" style="fill:none;stroke:#000000;stroke-width:2;stroke-linejoin:round;stroke-miterlimit:10;" width="20.003" height="36"/><line style="fill:none;stroke:#000000;stroke-width:2;stroke-linejoin:round;stroke-miterlimit:10;" x1="15" y1="37" x2="35" y2="37"/><g><path d="M25,13L25,13c-0.552,0-1,0.448-1,1v16c0,0.552,0.448,1,1,1h0c0.552,0,1-0.448,1-1V14C26,13.448,25.552,13,25,13z"/></g><g><path d="M25,40L25,40c-0.552,0-1,0.448-1,1v2h2v-2C26,40.448,25.552,40,25,40z"/></g></svg>