<?xml version="1.0" encoding="iso-8859-1"?><!-- Generator: Adobe Illustrator 21.1.0, SVG Export Plug-In . SVG Version: 6.00 Build 0)  --><svg xmlns="http://www.w3.org/2000/svg" xmlns:xlink="http://www.w3.org/1999/xlink" viewBox="0 0 50 50" width="50px" height="50px"><circle style="fill:none;stroke:#000000;stroke-width:2;stroke-linecap:round;stroke-linejoin:round;stroke-miterlimit:10;" cx="25" cy="25" r="12"/><path style="fill:none;stroke:#000000;stroke-width:2;stroke-linecap:round;stroke-linejoin:round;stroke-miterlimit:10;" d="M40.755,30.497L49,25l-8.245-5.497c-0.524-0.349-0.851-1.14-0.728-1.757l1.943-9.717l-9.717,1.943c-0.617,0.123-1.408-0.204-1.757-0.728L25,1l-5.497,8.245c-0.349,0.524-1.14,0.851-1.757,0.728L8.029,8.029l1.943,9.717c0.123,0.617-0.204,1.408-0.728,1.757L1,25l8.245,5.497c0.524,0.349,0.851,1.14,0.728,1.757l-1.943,9.717l9.717-1.943c0.617-0.123,1.408,0.204,1.757,0.728L25,49l5.497-8.245c0.349-0.524,1.14-0.851,1.757-0.728l9.717,1.943l-1.943-9.717C39.904,31.636,40.231,30.846,40.755,30.497z"/></svg>