<?xml version="1.0" encoding="iso-8859-1"?><!-- Generator: Adobe Illustrator 19.1.0, SVG Export Plug-In . SVG Version: 6.00 Build 0)  --><svg xmlns="http://www.w3.org/2000/svg" xmlns:xlink="http://www.w3.org/1999/xlink" viewBox="0 0 50 50" width="50px" height="50px"><path style="fill:none;stroke:#000000;stroke-width:2;stroke-linejoin:round;stroke-miterlimit:10;" d="M17,27.838V3H9v24.838C5.469,29.381,3,32.9,3,37c0,5.523,4.477,10,10,10s10-4.477,10-10C23,32.9,20.531,29.381,17,27.838z"/><line style="fill:none;stroke:#000000;stroke-width:2;stroke-linejoin:round;stroke-miterlimit:10;" x1="13" y1="14" x2="13" y2="32"/><circle cx="13" cy="37" r="5"/><path style="fill:none;stroke:#000000;stroke-width:2;stroke-miterlimit:10;" d="M48,37c0,2.209-1.791,4-4,4s-4-1.791-4-4s4-8.2,4-8.2S48,34.791,48,37z"/><path style="fill:none;stroke:#000000;stroke-width:2;stroke-miterlimit:10;" d="M47,10c0,1.657-1.343,3-3,3s-3-1.343-3-3s3-6.15,3-6.15S47,8.343,47,10z"/><path style="fill:none;stroke:#000000;stroke-width:2;stroke-miterlimit:10;" d="M38,23.5c0,1.933-1.567,3.5-3.5,3.5S31,25.433,31,23.5s3.5-7.175,3.5-7.175S38,21.567,38,23.5z"/><line style="fill:none;stroke:#000000;stroke-width:2;stroke-linejoin:round;stroke-miterlimit:10;" x1="17" y1="7" x2="21" y2="7"/><line style="fill:none;stroke:#000000;stroke-width:2;stroke-linejoin:round;stroke-miterlimit:10;" x1="17" y1="11" x2="20" y2="11"/><line style="fill:none;stroke:#000000;stroke-width:2;stroke-linejoin:round;stroke-miterlimit:10;" x1="17" y1="15" x2="21" y2="15"/><line style="fill:none;stroke:#000000;stroke-width:2;stroke-linejoin:round;stroke-miterlimit:10;" x1="17" y1="19" x2="20" y2="19"/><line style="fill:none;stroke:#000000;stroke-width:2;stroke-linejoin:round;stroke-miterlimit:10;" x1="17" y1="23" x2="21" y2="23"/></svg>