<?xml version="1.0" encoding="iso-8859-1"?><!-- Generator: Adobe Illustrator 19.1.0, SVG Export Plug-In . SVG Version: 6.00 Build 0)  --><svg xmlns="http://www.w3.org/2000/svg" xmlns:xlink="http://www.w3.org/1999/xlink" viewBox="0 0 50 50" width="50px" height="50px"><path style="fill:none;stroke:#000000;stroke-width:2;stroke-linecap:round;stroke-miterlimit:10;" d="M36,13c-1.49,0-2.891,0.368-4.128,1.008C31.154,9.472,27.238,6,22.5,6c-5.247,0-9.5,4.253-9.5,9.5c0,0.547,0.057,1.08,0.146,1.602C12.772,17.04,12.391,17,12,17c-3.866,0-7,3.134-7,7s3.134,7,7,7c3.758,0,19.633,0,24,0c4.971,0,9-4.029,9-9S40.971,13,36,13z"/><g><g><line style="fill:none;stroke:#000000;stroke-width:2;stroke-linecap:round;stroke-miterlimit:10;" x1="21" y1="31" x2="20.706" y2="31.956"/><line style="fill:none;stroke:#000000;stroke-width:2;stroke-linecap:round;stroke-miterlimit:10;stroke-dasharray:2.3203,4.6406;" x1="19.341" y1="36.391" x2="17.976" y2="40.827"/><line style="fill:none;stroke:#000000;stroke-width:2;stroke-linecap:round;stroke-miterlimit:10;" x1="17.294" y1="43.044" x2="17" y2="44"/></g></g><g><g><line style="fill:none;stroke:#000000;stroke-width:2;stroke-linecap:round;stroke-miterlimit:10;" x1="35" y1="31" x2="34.706" y2="31.956"/><line style="fill:none;stroke:#000000;stroke-width:2;stroke-linecap:round;stroke-miterlimit:10;stroke-dasharray:2.3203,4.6406;" x1="33.341" y1="36.391" x2="31.976" y2="40.827"/><line style="fill:none;stroke:#000000;stroke-width:2;stroke-linecap:round;stroke-miterlimit:10;" x1="31.294" y1="43.044" x2="31" y2="44"/></g></g><g><g><line style="fill:none;stroke:#000000;stroke-width:2;stroke-linecap:round;stroke-miterlimit:10;" x1="28" y1="31" x2="27.706" y2="31.956"/><line style="fill:none;stroke:#000000;stroke-width:2;stroke-linecap:round;stroke-miterlimit:10;stroke-dasharray:1.5394,3.0788;" x1="26.8" y1="34.898" x2="25.895" y2="37.841"/><line style="fill:none;stroke:#000000;stroke-width:2;stroke-linecap:round;stroke-miterlimit:10;" x1="25.442" y1="39.312" x2="25.148" y2="40.268"/></g></g><g><g><line style="fill:none;stroke:#000000;stroke-width:2;stroke-linecap:round;stroke-miterlimit:10;" x1="14" y1="31" x2="13.706" y2="31.956"/><line style="fill:none;stroke:#000000;stroke-width:2;stroke-linecap:round;stroke-miterlimit:10;stroke-dasharray:1.5394,3.0788;" x1="12.8" y1="34.898" x2="11.895" y2="37.841"/><line style="fill:none;stroke:#000000;stroke-width:2;stroke-linecap:round;stroke-miterlimit:10;" x1="11.442" y1="39.312" x2="11.148" y2="40.268"/></g></g></svg>