<?xml version="1.0" encoding="utf-8"?><!-- Generator: Adobe Illustrator 17.1.0, SVG Export Plug-In . SVG Version: 6.00 Build 0)  --><!DOCTYPE svg PUBLIC "-//W3C//DTD SVG 1.1//EN" "http://www.w3.org/Graphics/SVG/1.1/DTD/svg11.dtd"><svg xmlns="http://www.w3.org/2000/svg" xmlns:xlink="http://www.w3.org/1999/xlink" viewBox="0 0 50 50" width="50px" height="50px"><path d="M26.8,17.8c0,0.994-1.8,7.2-1.8,7.2s-1.8-6.206-1.8-7.2c0-0.994,0.806-1.8,1.8-1.8S26.8,16.806,26.8,17.8z"/><path d="M23.2,32.2c0-0.994,1.8-7.2,1.8-7.2s1.8,6.206,1.8,7.2c0,0.994-0.806,1.8-1.8,1.8S23.2,33.194,23.2,32.2z"/><path d="M19.665,19.841C20.526,20.338,25,25,25,25s-6.274-1.544-7.135-2.041c-0.861-0.497-1.156-1.598-0.659-2.459C17.703,19.639,18.804,19.344,19.665,19.841z"/><path d="M30.335,30.159C29.474,29.662,25,25,25,25s6.274,1.544,7.135,2.041c0.861,0.497,1.156,1.598,0.659,2.459C32.297,30.361,31.196,30.656,30.335,30.159z"/><path d="M17.865,27.041C18.726,26.544,25,25,25,25s-4.474,4.662-5.335,5.159c-0.861,0.497-1.962,0.202-2.459-0.659C16.709,28.639,17.004,27.538,17.865,27.041z"/><path d="M32.135,22.959C31.274,23.456,25,25,25,25s4.474-4.662,5.335-5.159c0.861-0.497,1.962-0.202,2.459,0.659C33.291,21.361,32.996,22.462,32.135,22.959z"/><path fill="none" stroke="#000000" stroke-width="2" stroke-linecap="round" stroke-miterlimit="10" d="M32.54,6.145l1.352,3.454l3.667-0.556c7.284-1.104,12.137,7.303,7.54,13.059L42.784,25l2.315,2.898c4.598,5.756-0.256,14.163-7.54,13.059l-3.667-0.556l-1.352,3.454c-2.686,6.86-12.393,6.86-15.08,0l-1.352-3.454l-3.667,0.556c-7.284,1.104-12.137-7.303-7.54-13.059L7.216,25l-2.315-2.898c-4.598-5.756,0.256-14.163,7.54-13.059l3.667,0.556l1.352-3.454C20.146-0.715,29.854-0.715,32.54,6.145z"/></svg>