<?xml version="1.0" encoding="utf-8"?><!-- Generator: Adobe Illustrator 17.1.0, SVG Export Plug-In . SVG Version: 6.00 Build 0)  --><!DOCTYPE svg PUBLIC "-//W3C//DTD SVG 1.0//EN" "http://www.w3.org/TR/2001/REC-SVG-20010904/DTD/svg10.dtd"><svg xmlns="http://www.w3.org/2000/svg" xmlns:xlink="http://www.w3.org/1999/xlink" viewBox="0 0 50 50" width="50px" height="50px"><path fill="none" stroke="#000000" stroke-width="2" stroke-linecap="round" stroke-linejoin="round" stroke-miterlimit="10" d="M41.5,1c-3.3,3.8-4.3,14.4-1.2,16.2c1.3,0.8,2.9-2.2,3.2-4.5c3,3.9,5.5,13.6,5.5,20.1c0,7.1-3.5,14.9-9.2,16.1c0,0,3.7-4.8,3.7-8.9c0-4.9-1.8-5.8-1.8-5.8c-4,7.9-6.5-0.2-3.7-9.2c-9.4,4.1-2,14-11.1,9.2c0,9.3,5.5,14.7,5.5,14.7s-11.1-1.4-11.1-13.9c0-4.2,3.8-12.9,1.7-18.1c2.6,0.1,4.6,4,6.7,1.2C32.1,15,28.9,3.7,41.5,1z"/><path fill="none" stroke="#000000" stroke-width="2" stroke-linecap="round" stroke-linejoin="round" stroke-miterlimit="10" d="M31,11.7L16,6L1,11.7V49h30"/><rect x="7" y="17" width="6" height="6"/><rect x="7" y="27" width="6" height="6"/><rect x="7" y="37" width="6" height="6"/><polyline points="21.5,33 19,33 19,27 22.4,27 "/><polyline points="22.8,23 19,23 19,17 23,17 "/><polyline points="23.3,43 19,43 19,37 21.4,37 "/></svg>