<?xml version="1.0" encoding="utf-8"?><!-- Generator: Adobe Illustrator 18.1.1, SVG Export Plug-In . SVG Version: 6.00 Build 0)  --><svg xmlns="http://www.w3.org/2000/svg" xmlns:xlink="http://www.w3.org/1999/xlink" viewBox="0 0 50 50" width="50px" height="50px"><path fill="none" stroke="#000000" stroke-width="2" stroke-miterlimit="10" d="M33,7c0,23.1-6,11-6,34"/><polyline fill="none" stroke="#000000" stroke-width="2" stroke-miterlimit="10" points="39,1 49,1 49,49 39,49 "/><line fill="none" stroke="#000000" stroke-width="2" stroke-miterlimit="10" x1="49" y1="25" x2="39" y2="25"/><line fill="none" stroke="#000000" stroke-width="2" stroke-miterlimit="10" x1="49" y1="17" x2="44" y2="17"/><line fill="none" stroke="#000000" stroke-width="2" stroke-miterlimit="10" x1="49" y1="9" x2="44" y2="9"/><line fill="none" stroke="#000000" stroke-width="2" stroke-miterlimit="10" x1="49" y1="41" x2="44" y2="41"/><line fill="none" stroke="#000000" stroke-width="2" stroke-miterlimit="10" x1="49" y1="33" x2="44" y2="33"/><polyline fill="none" stroke="#000000" stroke-width="2" stroke-miterlimit="10" points="31,37 27,41 23,37 "/><path fill="none" stroke="#000000" stroke-width="2" stroke-miterlimit="10" d="M11,7c0,23.1-6,11-6,34"/><polyline fill="none" stroke="#000000" stroke-width="2" stroke-miterlimit="10" points="9,37 5,41 1,37 "/><path fill="none" stroke="#000000" stroke-width="2" stroke-miterlimit="10" d="M22,7c0,23.1-6,11-6,34"/><polyline fill="none" stroke="#000000" stroke-width="2" stroke-miterlimit="10" points="20,37 16,41 12,37 "/></svg>