<?xml version="1.0" encoding="iso-8859-1"?>
<!-- Generator: Adobe Illustrator 24.1.0, SVG Export Plug-In . SVG Version: 6.00 Build 0)  -->
<svg version="1.1" id="Layer_1" xmlns="http://www.w3.org/2000/svg" xmlns:xlink="http://www.w3.org/1999/xlink" x="0px" y="0px"
	 viewBox="0 0 50 50" style="enable-background:new 0 0 50 50;" xml:space="preserve">
<g>
</g>
<g>
	<path style="fill:none;stroke:#000000;stroke-width:2;stroke-linecap:round;stroke-miterlimit:10;" d="M25,9c0,0-2.25-1.6,0-4
		s0-4,0-4"/>
	<path style="fill:none;stroke:#000000;stroke-width:2;stroke-linecap:round;stroke-miterlimit:10;" d="M32,9c0,0-2.25-1.6,0-4
		s0-4,0-4"/>
	<path style="fill:none;stroke:#000000;stroke-width:2;stroke-linecap:round;stroke-miterlimit:10;" d="M18,9c0,0-2.25-1.6,0-4
		s0-4,0-4"/>
	<circle style="fill:none;stroke:#000000;stroke-width:2;stroke-linejoin:round;stroke-miterlimit:10;" cx="25" cy="31" r="18"/>
	
		<ellipse style="fill:none;stroke:#000000;stroke-width:2;stroke-linejoin:round;stroke-miterlimit:10;" cx="25" cy="31" rx="9" ry="18"/>
	
		<line style="fill:none;stroke:#000000;stroke-width:2;stroke-linejoin:round;stroke-miterlimit:10;" x1="25" y1="13" x2="25" y2="49"/>
	
		<line style="fill:none;stroke:#000000;stroke-width:2;stroke-linejoin:round;stroke-miterlimit:10;" x1="7" y1="31" x2="43" y2="31"/>
	
		<line style="fill:none;stroke:#000000;stroke-width:2.043;stroke-linecap:round;stroke-linejoin:round;stroke-miterlimit:10;" x1="10.375" y1="22" x2="39.625" y2="22"/>
	
		<line style="fill:none;stroke:#000000;stroke-width:2.043;stroke-linecap:round;stroke-linejoin:round;stroke-miterlimit:10;" x1="10.375" y1="40" x2="39.625" y2="40"/>
</g>
</svg>