<?xml version="1.0" encoding="iso-8859-1"?>
<!-- Generator: Adobe Illustrator 22.1.0, SVG Export Plug-In . SVG Version: 6.00 Build 0)  -->
<svg version="1.1" id="Layer_1" xmlns="http://www.w3.org/2000/svg" xmlns:xlink="http://www.w3.org/1999/xlink" x="0px" y="0px"
	 viewBox="0 0 50 50" style="enable-background:new 0 0 50 50;" xml:space="preserve">
<polyline style="fill:none;stroke:#000000;stroke-width:2;stroke-linecap:round;stroke-linejoin:round;stroke-miterlimit:10;" points="
	3.026,16.765 10.49,4.724 33.938,43 "/>
<line style="fill:none;stroke:#000000;stroke-width:2;stroke-linecap:round;stroke-linejoin:round;stroke-miterlimit:10;" x1="19" y1="10" x2="26.827" y2="22.508"/>
<line style="fill:none;stroke:#000000;stroke-width:2;stroke-linecap:round;stroke-linejoin:round;stroke-miterlimit:10;" x1="24" y1="10" x2="31.827" y2="22.508"/>
<polyline style="fill:none;stroke:#000000;stroke-width:2;stroke-miterlimit:10;" points="5,14 8,16 10,14 13,17 17,15 "/>
<line style="fill:none;stroke:#000000;stroke-width:2;stroke-linecap:round;stroke-linejoin:round;stroke-miterlimit:10;" x1="48" y1="43" x2="2" y2="43"/>
<path style="fill:none;stroke:#000000;stroke-width:2;stroke-linecap:round;stroke-linejoin:round;stroke-miterlimit:10;" d="
	M29.445,27.534c0.274-0.193,0.574-0.334,0.887-0.423c0.858-0.244,1.811-0.089,2.58,0.508c1.329,1.032,1.605,2.994,0.617,4.381"/>
<path style="fill:none;stroke:#000000;stroke-width:2;stroke-linecap:round;stroke-linejoin:round;stroke-miterlimit:10;" d="
	M33.682,31.837c1.468-1.651,3.996-1.8,5.647-0.332c1.445,1.284,1.739,3.38,0.807,4.991c-0.133,0.23-0.291,0.45-0.475,0.657"/>
<circle cx="36.5" cy="25.5" r="1.5"/>
<circle cx="39.5" cy="20.5" r="1.5"/>
<circle cx="41" cy="26" r="1"/>
<circle cx="35" cy="19" r="1"/>
<path style="fill:none;stroke:#000000;stroke-width:2;stroke-linecap:round;stroke-linejoin:round;stroke-miterlimit:10;" d="
	M40.125,36.614c0.279-0.179,0.584-0.323,0.91-0.427C41.416,36.066,41.824,36,42.249,36C44.32,36,46,37.567,46,39.5"/>
</svg>