<svg xmlns="http://www.w3.org/2000/svg"  viewBox="0 0 50 50" width="50px" height="50px"><path d="M25.602,36.386c-0.192,0-0.387-0.056-0.559-0.171c-6.118-4.134-9.771-11.003-9.771-18.377c0-0.552,0.448-1,1-1s1,0.448,1,1 c0,6.708,3.323,12.959,8.89,16.719c0.457,0.31,0.578,0.932,0.269,1.389C26.238,36.231,25.923,36.386,25.602,36.386z"/><path d="M6.826,40c-0.316,0.063-0.582,0.27-0.719,0.563c0,0-1.789,3.438-5.094,3.438c-0.359-0.004-0.695,0.184-0.879,0.496 c-0.18,0.313-0.18,0.695,0,1.008c0.184,0.313,0.52,0.5,0.879,0.496c3.41,0,5.113-2.039,6-3.344c0.883,1.309,2.57,3.344,6,3.344 s5.117-2.035,6-3.344c0.879,1.309,2.57,3.344,6,3.344s5.121-2.035,6-3.344c0.879,1.309,2.566,3.344,6,3.344s5.121-2.035,6-3.344 c0.883,1.305,2.586,3.344,6,3.344c0.359,0.004,0.695-0.184,0.879-0.496c0.18-0.313,0.18-0.695,0-1.008 c-0.184-0.313-0.52-0.5-0.879-0.496c-3.313,0-5.094-3.438-5.094-3.438c-0.164-0.352-0.52-0.578-0.906-0.578 s-0.742,0.227-0.906,0.578c0,0-1.734,3.438-5.094,3.438s-5.094-3.438-5.094-3.438c-0.164-0.352-0.52-0.578-0.906-0.578 s-0.742,0.227-0.906,0.578c0,0-1.734,3.438-5.094,3.438s-5.094-3.438-5.094-3.438c-0.164-0.352-0.52-0.578-0.906-0.578 s-0.742,0.227-0.906,0.578c0,0-1.738,3.438-5.094,3.438S7.92,40.562,7.92,40.562c-0.184-0.379-0.582-0.605-1-0.563 C6.889,40,6.857,40,6.826,40z"/><line x1="46" x2="46" y1="15.667" y2="8" fill="none" stroke="#000" stroke-miterlimit="10" stroke-width="2"/><line x1="42" x2="42" y1="16" y2="11" fill="none" stroke="#000" stroke-miterlimit="10" stroke-width="2"/><line x1="41" x2="45" y1="20" y2="20" fill="none" stroke="#000" stroke-miterlimit="10" stroke-width="2"/><line x1="41" x2="45" y1="24" y2="24" fill="none" stroke="#000" stroke-miterlimit="10" stroke-width="2"/><line x1="41" x2="45" y1="27.994" y2="27.994" fill="none" stroke="#000" stroke-miterlimit="10" stroke-width="2"/><line x1="41" x2="45" y1="31.994" y2="31.994" fill="none" stroke="#000" stroke-miterlimit="10" stroke-width="2"/><line x1="34" x2="34" y1="24" y2="27" fill="none" stroke="#000" stroke-miterlimit="10" stroke-width="2"/><path d="M39,32.745V17h8v16h2V15H37v17.322C37.652,32.499,38.319,32.638,39,32.745z"/><path d="M1.102,25.821c-0.039,0-0.077-0.002-0.116-0.007c-0.549-0.063-0.942-0.56-0.878-1.108 c0.933-8.075,5.01-14.89,11.185-18.697c4.985-3.074,10.882-3.838,15.774-2.048c2.352,0.86,4.14,2.57,4.905,4.692 c0.965,2.677,0.369,5.129-1.556,6.401c-2.038,1.346-4.914,0.985-6.724-0.674c-1.181,1.041-2.358,1.065-3.031,0.959 c-2.14-0.339-3.777-2.531-4.451-4.552c-0.175-0.524,0.108-1.09,0.632-1.265c0.526-0.176,1.091,0.108,1.265,0.632 c0.562,1.686,1.768,3.035,2.867,3.209c0.67,0.107,1.323-0.256,1.931-1.079c0.193-0.262,0.472-0.429,0.827-0.405 c0.325,0.007,0.626,0.172,0.808,0.442c1.028,1.529,3.302,2.035,4.775,1.063c1.677-1.108,1.018-3.383,0.776-4.053 c-0.564-1.563-1.917-2.836-3.712-3.493c-4.32-1.581-9.568-0.88-14.037,1.873c-5.65,3.483-9.386,9.761-10.249,17.224 C2.035,25.445,1.602,25.821,1.102,25.821z"/><path d="M50,37h-8.232c-12.22,0-22.162-9.941-22.162-22.162v-1h2v1C21.606,25.955,30.65,35,41.768,35H50V37z"/><path d="M31,29.439V22h6v-2h-8v7.759C29.621,28.37,30.295,28.923,31,29.439z"/><path d="M35,31.664V29h-2v1.727C33.643,31.078,34.311,31.389,35,31.664z"/></svg>