<svg xmlns="http://www.w3.org/2000/svg"  viewBox="0 0 50.008 50.008" width="50px" height="50px"><title>ios_sad_sun</title><g id="Слой_2" data-name="Слой 2"><g id="Слой_6" data-name="Слой 6"><path d="M37.008,25.006a12,12,0,1,1-12-12A12,12,0,0,1,37.008,25.006Z" fill="none" stroke="#000" stroke-linecap="round" stroke-linejoin="round" stroke-width="2"/><path d="M40.761,30.5,49.008,25l-8.247-5.5a1.843,1.843,0,0,1-.725-1.756l1.942-9.72-9.72,1.945A1.854,1.854,0,0,1,30.5,9.243L25,1l-5.5,8.247a1.853,1.853,0,0,1-1.756.728L8.03,8.03l1.945,9.72a1.854,1.854,0,0,1-.732,1.756L1,25l8.247,5.5a1.857,1.857,0,0,1,.728,1.756L8.034,41.982l9.716-1.946a1.843,1.843,0,0,1,1.756.729L25,49.008l5.5-8.247a1.846,1.846,0,0,1,1.756-.725l9.724,1.942-1.946-9.72A1.846,1.846,0,0,1,40.761,30.5Z" fill="none" stroke="#000" stroke-linecap="round" stroke-linejoin="round" stroke-width="2"/><path d="M19.008,30.008a8.76,8.76,0,0,1,6-2,8.76,8.76,0,0,1,6,2" fill="none" stroke="#000" stroke-linecap="round" stroke-linejoin="round" stroke-width="2"/><path d="M21.008,21.988a1.981,1.981,0,1,1-1.981-1.98A1.979,1.979,0,0,1,21.008,21.988Z"/><path d="M33.008,21.988a1.981,1.981,0,1,1-1.981-1.98A1.979,1.979,0,0,1,33.008,21.988Z"/></g></g></svg>