<?xml version="1.0" encoding="utf-8"?><!-- Generator: Adobe Illustrator 17.1.0, SVG Export Plug-In . SVG Version: 6.00 Build 0)  --><!DOCTYPE svg PUBLIC "-//W3C//DTD SVG 1.1//EN" "http://www.w3.org/Graphics/SVG/1.1/DTD/svg11.dtd"><svg xmlns="http://www.w3.org/2000/svg" xmlns:xlink="http://www.w3.org/1999/xlink" viewBox="0 0 50 50" width="50px" height="50px"><path fill="none" stroke="#000000" stroke-width="2" stroke-linecap="round" stroke-miterlimit="10" d="M15,16c0,3.9-3.1,7-7,7s-7-3.1-7-7C1,10.8,8,1.5,8,1.5S15,10.8,15,16z"/><path fill="none" stroke="#000000" stroke-width="2" stroke-linecap="round" stroke-miterlimit="10" d="M29,42c0,3.9-3.1,7-7,7s-7-3.1-7-7c0-5.2,7-14.5,7-14.5S29,36.8,29,42z"/><path fill="none" stroke="#000000" stroke-width="2" stroke-linecap="round" stroke-miterlimit="10" d="M49,25c0,3.9-3.1,7-7,7s-7-3.1-7-7c0-5.2,7-14.4,7-14.4S49,19.8,49,25z"/></svg>