<?xml version="1.0" encoding="iso-8859-1"?>
<!-- Generator: Adobe Illustrator 25.2.3, SVG Export Plug-In . SVG Version: 6.00 Build 0)  -->
<svg version="1.1" baseProfile="basic" id="Layer_1"
	 xmlns="http://www.w3.org/2000/svg" xmlns:xlink="http://www.w3.org/1999/xlink" x="0px" y="0px" viewBox="0 0 50 50"
	 xml:space="preserve">
<path style="fill:none;stroke:#000000;stroke-width:2;stroke-linecap:round;stroke-miterlimit:10;" d="M25,10V8"/>
<path style="fill:none;stroke:#000000;stroke-width:2;stroke-linecap:round;stroke-linejoin:round;stroke-miterlimit:10;" d="M17,36
	c0,2.209,1.791,4,4,4s4-1.791,4-4l0-12.7"/>
<circle style="fill:none;stroke:#000000;stroke-width:2;stroke-miterlimit:10;" cx="25" cy="25" r="22"/>
<path style="fill:none;stroke:#000000;stroke-width:2;stroke-linejoin:round;stroke-miterlimit:10;" d="M25,10
	c-8.284,0-15,6.716-15,15c0,0.335-0.005,0.669,0.017,0.999c0,0,1.645-2.999,5.201-2.999c2.034,0,3.824,1.193,4.877,3h0.028
	c1.053-1.807,2.843-3,4.877-3c2.035,0,3.824,1.193,4.877,3h0.028c1.053-1.807,2.843-3,4.877-3c2.965,0,5.2,2.999,5.2,2.999
	C40.006,25.669,40,25.335,40,25C40,16.716,33.284,10,25,10z"/>
<circle style="fill:none;stroke:#000000;stroke-width:2;stroke-miterlimit:10;" cx="25" cy="25" r="22"/>
</svg>