<?xml version="1.0" encoding="utf-8"?><!-- Generator: Adobe Illustrator 18.1.1, SVG Export Plug-In . SVG Version: 6.00 Build 0)  --><svg xmlns="http://www.w3.org/2000/svg" xmlns:xlink="http://www.w3.org/1999/xlink" viewBox="0 0 50 50" width="50px" height="50px"><polyline fill="none" stroke="#000000" stroke-width="2" stroke-miterlimit="10" points="39,1 49,1 49,49 39,49 "/><line fill="none" stroke="#000000" stroke-width="2" stroke-miterlimit="10" x1="49" y1="25" x2="39" y2="25"/><line fill="none" stroke="#000000" stroke-width="2" stroke-miterlimit="10" x1="49" y1="17" x2="44" y2="17"/><line fill="none" stroke="#000000" stroke-width="2" stroke-miterlimit="10" x1="49" y1="9" x2="44" y2="9"/><line fill="none" stroke="#000000" stroke-width="2" stroke-miterlimit="10" x1="49" y1="41" x2="44" y2="41"/><line fill="none" stroke="#000000" stroke-width="2" stroke-miterlimit="10" x1="49" y1="33" x2="44" y2="33"/><path fill="none" stroke="#000000" stroke-width="2" stroke-miterlimit="10" d="M30.5,34.2c0,8.2-6.6,14.8-14.8,14.8S1,42.4,1,34.2C1,21.3,15.8,1,15.8,1S30.5,21.3,30.5,34.2z"/><g><circle cx="7" cy="40" r="1"/><circle cx="4" cy="37" r="1"/><circle cx="13" cy="40" r="1"/><circle cx="13" cy="46" r="1"/><circle cx="10" cy="37" r="1"/><circle cx="10" cy="43" r="1"/><circle cx="19" cy="40" r="1"/><circle cx="19" cy="46" r="1"/><circle cx="16" cy="37" r="1"/><circle cx="16" cy="43" r="1"/><circle cx="25" cy="40" r="1"/><circle cx="22" cy="37" r="1"/><circle cx="28" cy="37" r="1"/><circle cx="22" cy="43" r="1"/><circle cx="7" cy="28" r="1"/><circle cx="7" cy="34" r="1"/><circle cx="4" cy="25" r="1"/><circle cx="4" cy="31" r="1"/><circle cx="13" cy="28" r="1"/><circle cx="13" cy="34" r="1"/><circle cx="10" cy="25" r="1"/><circle cx="10" cy="31" r="1"/><circle cx="19" cy="28" r="1"/><circle cx="19" cy="34" r="1"/><circle cx="16" cy="25" r="1"/><circle cx="16" cy="31" r="1"/><circle cx="25" cy="28" r="1"/><circle cx="25" cy="34" r="1"/><circle cx="22" cy="25" r="1"/><circle cx="28" cy="25" r="1"/><circle cx="22" cy="31" r="1"/><circle cx="28" cy="31" r="1"/></g></svg>