<?xml version="1.0" encoding="iso-8859-1"?>
<!-- Generator: Adobe Illustrator 23.0.3, SVG Export Plug-In . SVG Version: 6.00 Build 0)  -->
<svg version="1.1" xmlns="http://www.w3.org/2000/svg" xmlns:xlink="http://www.w3.org/1999/xlink" x="0px" y="0px"
	 viewBox="0 0 50 50" style="enable-background:new 0 0 50 50;" xml:space="preserve">
<g id="filled">
</g>
<g id="outlined">
</g>
<g id="rounded">
</g>
<g id="two_x5F_tone">
</g>
<g id="sharp">
</g>
<g id="win10">
</g>
<g id="ios_x5F_out">
	<circle style="fill:none;stroke:#000000;stroke-width:2;stroke-miterlimit:10;" cx="25" cy="25" r="3"/>
	<path style="fill:none;stroke:#000000;stroke-width:2;stroke-linejoin:round;stroke-miterlimit:10;" d="M36.245,35.049
		c11.642-9.647,4.941-24.013,4.941-24.013s0.523,5.281-1.941,9.013C36.712,5.144,21,4,21,4s5,2,7,6
		C13.458,5.417,4.813,17.964,4.813,17.964s3.977-3.281,8.441-3.013C2.458,24.375,8.813,38.964,8.813,38.964
		s-1.023-5.281,1.441-9.013C12.788,44.856,29,46,29,46s-5-2-7-6c14,4.646,23.187-7.964,23.187-7.964S40.709,35.317,36.245,35.049z"
		/>
</g>
<g id="ios_x5F_filled">
</g>
<g id="color">
</g>
</svg>