<?xml version="1.0" encoding="iso-8859-1"?><!-- Generator: Adobe Illustrator 19.2.0, SVG Export Plug-In . SVG Version: 6.00 Build 0)  --><svg xmlns="http://www.w3.org/2000/svg" xmlns:xlink="http://www.w3.org/1999/xlink" viewBox="0 0 50 50" width="50px" height="50px"><path style="fill:none;stroke:#000000;stroke-width:2;stroke-miterlimit:10;" d="M43.477,9C24.515,9,9,24.515,9,43.477V47h6v-3.114C15,27.999,27.999,15,43.886,15H47V9H43.477z"/><path style="fill:none;stroke:#000000;stroke-width:2;stroke-miterlimit:10;" d="M44.295,21C31.483,21,21,31.483,21,44.295V47h6v-2.295C27,34.967,34.967,27,44.705,27H47v-6H44.295z"/><path d="M46,4v28c-7.692,0.061-13.938,6.307-14,14H4v-3C4,21.495,21.495,4,43,4H46 M48,2h-5C20.45,2,2,20.45,2,43v5h32v-1.886C34,39.451,39.451,34,46.114,34H48V2L48,2z"/></svg>