<?xml version="1.0" encoding="utf-8"?><!-- Generator: Adobe Illustrator 15.0.0, SVG Export Plug-In . SVG Version: 6.00 Build 0)  --><!DOCTYPE svg PUBLIC "-//W3C//DTD SVG 1.1//EN" "http://www.w3.org/Graphics/SVG/1.1/DTD/svg11.dtd"><svg xmlns="http://www.w3.org/2000/svg" xmlns:xlink="http://www.w3.org/1999/xlink" viewBox="0 0 50 50" width="50px" height="50px"><path fill="none" stroke="#000000" stroke-width="2" stroke-linecap="round" stroke-miterlimit="10" d="M36,31c4.971,0,9-4.029,9-9c0-4.971-4.029-9-9-9c-1.49,0-2.891,0.368-4.129,1.008C31.154,9.472,27.238,6,22.5,6c-5.246,0-9.5,4.253-9.5,9.5c0,0.547,0.057,1.08,0.146,1.602C12.771,17.04,12.391,17,12,17c-3.866,0-7,3.134-7,7s3.134,7,7,7C12.529,31,35.523,31,36,31z"/><g><g><line fill="none" stroke="#000000" stroke-width="2" stroke-linecap="round" stroke-miterlimit="10" x1="26" y1="31" x2="25.706" y2="31.956"/><line fill="none" stroke="#000000" stroke-width="2" stroke-linecap="round" stroke-miterlimit="10" stroke-dasharray="1.9051,3.8102" x1="24.585" y1="35.598" x2="23.465" y2="39.239"/><line fill="none" stroke="#000000" stroke-width="2" stroke-linecap="round" stroke-miterlimit="10" x1="22.905" y1="41.061" x2="22.61" y2="42.016"/></g></g><g><g><line fill="none" stroke="#000000" stroke-width="2" stroke-linecap="round" stroke-miterlimit="10" x1="20" y1="31" x2="19.559" y2="32.434"/><line fill="none" stroke="#000000" stroke-width="2" stroke-linecap="round" stroke-miterlimit="10" x1="18.133" y1="37.066" x2="17.692" y2="38.501"/></g></g></svg>