<?xml version="1.0" encoding="utf-8"?><!-- Generator: Adobe Illustrator 19.2.0, SVG Export Plug-In . SVG Version: 6.00 Build 0)  --><svg xmlns="http://www.w3.org/2000/svg" xmlns:xlink="http://www.w3.org/1999/xlink" viewBox="0 0 50 50" width="500px" height="500px"><style type="text/css">.st0{fill:none;stroke:#000000;stroke-width:2;stroke-linecap:round;stroke-miterlimit:10;}</style><g><polygon points="27.1,34 32.1,34 21,44 26.1,36 22,36 29,27 34.1,27 "/></g><g><polygon points="21,27 26,27 14.9,37 20,29 16,29 23,20 28,20 "/></g><path class="st0" d="M35,30h1c5,0,9-4,9-9s-4-9-9-9c-1.5,0-2.9,0.4-4.1,1c-0.7-4.5-4.6-8-9.4-8C17.3,5,13,9.3,13,14.5c0,0.5,0.1,1.1,0.1,1.6C12.8,16,12.4,16,12,16c-3.9,0-7,3.1-7,7s3.1,7,7,7h1"/></svg>