<?xml version="1.0" encoding="utf-8"?><!-- Generator: Adobe Illustrator 20.1.0, SVG Export Plug-In . SVG Version: 6.00 Build 0)  --><svg xmlns="http://www.w3.org/2000/svg" xmlns:xlink="http://www.w3.org/1999/xlink" viewBox="0 0 50 50" width="50px" height="50px"><line fill="none" stroke="#000000" stroke-width="2" stroke-miterlimit="10" x1="3" y1="3" x2="47" y2="18"/><path fill="none" stroke="#000000" stroke-width="2" stroke-miterlimit="10" d="M4.8,3.6c2,2,3.1,5.3,3.6,8.2C9.2,15.6,9,19,9,26s1,10,2,10c0.6,0,2-1,3-10c0.6-5.8,1.6-8.9,3-9c1,0,2,5,3,19c0.3,3.6,1,11,3,11c2.2,0,3.6-4.9,3.7-11.1c0.1-6,0.5-14.1,3.3-13.9c0.9,0.1,2.8,1.8,3,6c0.3,8.7,1,11.8,3,12c1.6,0.1,2.4-4.7,2.4-10.7c0-4,0.4-6,1.6-8.3c1.1-2.1,2.8-3.3,4-4"/></svg>