<?xml version="1.0" encoding="iso-8859-1"?>
<!-- Generator: Adobe Illustrator 26.0.1, SVG Export Plug-In . SVG Version: 6.00 Build 0)  -->
<svg version="1.1" baseProfile="basic" id="Layer_1"
	 xmlns="http://www.w3.org/2000/svg" xmlns:xlink="http://www.w3.org/1999/xlink" x="0px" y="0px" viewBox="0 0 72 72"
	 xml:space="preserve">
<path d="M52.616,43.868L37.484,59H21.553c-4.512,0-7.717-4.526-6.155-8.81C18.248,42.386,26.527,37.143,36,37.143
	C42.596,37.143,48.607,39.69,52.616,43.868z"/>
<path id="overlay_00000052097930906565609550000006092267902420434594_" d="M43.215,63.171c-0.335,0.131-0.713-0.247-0.568-0.582
	L43.251,59l11.887-11.901l3.656,3.641L46.906,62.626L43.215,63.171z"/>
<path d="M59.84,49.677l-3.633-3.647l1.128-1.114c0.539-0.539,1.368-0.611,1.863-0.116l1.793,1.807
	c0.553,0.553,0.509,1.354-0.044,1.936L59.84,49.677z"/>
<path d="M36,36c-6.617,0-12-5.607-12-12.5S29.383,11,36,11s12,5.607,12,12.5S42.617,36,36,36z"/>
</svg>