<?xml version="1.0" encoding="iso-8859-1"?><!-- Generator: Adobe Illustrator 23.0.2, SVG Export Plug-In . SVG Version: 6.00 Build 0)  --><svg xmlns="http://www.w3.org/2000/svg" xmlns:xlink="http://www.w3.org/1999/xlink" viewBox="0 0 32 32" width="512px" height="512px"><g><path d="M12,17c-3.86,0-7-3.141-7-7s3.14-7,7-7s7,3.141,7,7S15.86,17,12,17z M12,5c-2.757,0-5,2.243-5,5s2.243,5,5,5s5-2.243,5-5S14.757,5,12,5z"/></g><g><path d="M17.34,16.55c-0.51,0.45-0.97,0.96-1.38,1.51C14.79,17.38,13.44,17,12,17c-4.41,0-8,3.59-8,8H2c0-5.51,4.49-10,10-10C13.96,15,15.8,15.57,17.34,16.55z"/></g><path d="M24,32c-4.4,0-8-3.6-8-8s3.6-8,8-8s8,3.6,8,8S28.4,32,24,32z M24,18c-3.3,0-6,2.7-6,6s2.7,6,6,6s6-2.7,6-6S27.3,18,24,18z M28.4,22.7L27,21.3l-3.3,3.3l-2.3-2.3L20,23.7l3.7,3.7L28.4,22.7z"/></svg>