<?xml version="1.0" encoding="iso-8859-1"?><!-- Generator: Adobe Illustrator 23.0.3, SVG Export Plug-In . SVG Version: 6.00 Build 0)  --><svg xmlns="http://www.w3.org/2000/svg" xmlns:xlink="http://www.w3.org/1999/xlink" viewBox="0 0 50 50" width="500px" height="500px"><path style="fill:none;stroke:#000000;stroke-width:2;stroke-linecap:round;stroke-miterlimit:10;" d="M30,33.5c0,1.2-2.2,2.5-5,2.5s-5-1.2-5-2.5"/><path d="M45.9,28c-1,0-1.9,0.4-2.7,1.1l0,0L43,29.2l0,0l-0.1,0.1l-0.3,0.3l0,0l-0.7,0.7l-0.2,0.2L30,42.3c-0.1,0.1-0.2,0.3-0.3,0.4l-1.7,6c-0.2,0.5,0.1,1.1,0.7,1.2c0.2,0.1,0.4,0.1,0.5,0l6-1.6c0.2,0,0.3-0.1,0.5-0.3l12.8-12.8l0,0l0.3-0.2c1.6-1.6,1.6-4.2,0-5.8C48,28.3,46.9,28,45.9,28z M45.9,30c0.5,0,1.1,0.2,1.5,0.6c0.8,0.8,0.8,2,0.1,2.8l-2.9-2.9C45,30.2,45.4,30,45.9,30z M43.1,31.9l3,3L35.2,45.8l-3-2.9L43.1,31.9z M31.2,44.8l2.1,2.1l-2.9,0.8L31.2,44.8z"/><path d="M26.97,45H7.121c0.729-3.985,4.232-5.388,7.631-6.747c2.701-1.081,5.253-2.102,6.089-4.413l0.06-0.165V29.3l0.02-0.568l-0.504-0.288c-0.381-0.284-1.44-2.243-1.621-4.139l-0.013-0.896h-0.909c-0.142-0.055-0.589-0.53-0.777-1.892c-0.069-0.839,0.359-1.185,0.358-1.185l0.59-0.392l-0.174-0.686c-1.213-4.783-1.012-8.281,0.596-10.395c1.239-1.63,3.412-2.492,6.435-2.56c1.891,0,3.252,0.476,3.736,1.304l0.244,0.419L29.36,8.09c1.332,0.188,2.274,0.766,2.881,1.768c1.448,2.395,0.685,6.877-0.183,9.305l-0.316,0.824l0.793,0.396c0.089,0.063,0.329,0.408,0.269,1.125C32.669,22.988,32.2,23.382,32.1,23.4H31.19l-0.086,0.906c-0.181,1.896-1.239,3.854-1.601,4.126L29,28.719v4.966l0.066,0.172c0.561,1.465,1.809,2.407,3.34,3.179l1.492-1.504c-1.373-0.623-2.456-1.292-2.899-2.235v-3.551c0.846-0.916,1.69-2.828,2.001-4.57c0.712-0.35,1.59-1.24,1.795-3.493c0.095-1.126-0.215-1.954-0.641-2.488c0.849-2.728,1.594-7.402-0.203-10.373C33.1,7.414,31.8,6.528,30.083,6.185C29.117,4.965,27.301,4.3,24.879,4.3h-0.001C21.193,4.383,18.5,5.51,16.873,7.649c-1.926,2.534-2.287,6.417-1.076,11.547c-0.413,0.531-0.785,1.38-0.688,2.54c0.296,2.159,1.116,3.049,1.785,3.414c0.308,1.75,1.156,3.676,2.007,4.597v3.562c-0.611,1.375-2.601,2.171-4.892,3.088c-3.864,1.546-8.673,3.47-9.007,9.549L4.943,47h21.46L26.97,45z"/></svg>