<?xml version="1.0" encoding="iso-8859-1"?>
<!-- Generator: Adobe Illustrator 24.2.1, SVG Export Plug-In . SVG Version: 6.00 Build 0)  -->
<svg version="1.1" id="Layer_1" xmlns="http://www.w3.org/2000/svg" xmlns:xlink="http://www.w3.org/1999/xlink" x="0px" y="0px"
	 viewBox="0 0 48 48" style="enable-background:new 0 0 48 48;" xml:space="preserve">
<circle cx="25.5" cy="35.5" r="3.5"/>
<path d="M30.641,6.525C29.649,5.645,27.231,4,23,4C10.477,4,3,14.28,3,31.5v5C3,39.538,5.462,42,8.5,42h9.334
	c1.86,1.277,3.948,2,6.166,2c2.216,0,4.304-0.722,6.163-2H39.5c3.038,0,5.5-2.462,5.5-5.5v-5C45,12.512,35.954,6.938,30.641,6.525z
	 M24,41c-5.685,0-10.514-6.833-11-15.56V22.5c0-0.828,0.672-1.5,1.5-1.5c0.396,0,9.38-0.046,14.403-3.89
	c1.645,0.418,6.076,2.125,6.095,8.35C34.996,25.503,35,29.5,35,29.5c0,2.481-2.019,4.5-4.5,4.5H28c-0.829,0-1.5,0.671-1.5,1.5
	S27.171,37,28,37h2.5c0.2,0,0.396-0.015,0.592-0.03C29.159,39.482,26.676,41,24,41z M42,29c0,2.209-1.791,4-4,4h-0.872
	C37.683,31.954,38,30.764,38,29.5c0,0,0.045-4.883,0.062-6.5H38c2.209,0,4,1.791,4,4V29z"/>
<circle cx="19" cy="27" r="2"/>
<circle cx="29" cy="27" r="2"/>
</svg>