<?xml version="1.0" encoding="iso-8859-1"?><!-- Generator: Adobe Illustrator 23.0.2, SVG Export Plug-In . SVG Version: 6.00 Build 0)  --><svg xmlns="http://www.w3.org/2000/svg" xmlns:xlink="http://www.w3.org/1999/xlink" viewBox="0 0 50 50" width="500px" height="500px"><g><g><path d="M34.95,7.83c-0.86-1.39-2.17-2.26-3.88-2.6c-0.94-1.19-2.75-1.84-5.18-1.84c-3.68,0.07-6.38,1.19-8.01,3.34c-1.93,2.55-2.29,6.41-1.07,11.49c-0.45,0.55-0.78,1.4-0.65,2.51c0.27,2.21,1.12,3.11,1.85,3.47c0.34,1.73,1.28,3.68,2.2,4.59l0.01,0.47c0,1.02,0.01,1.9-0.08,3.03c-0.62,1.41-2.65,2.21-5,3.13c-3.91,1.54-8.77,3.45-9.14,9.52L5.94,46H29.6c-0.37-0.63-0.67-1.3-0.91-2H8.13c0.75-3.97,4.3-5.36,7.74-6.71c2.74-1.08,5.33-2.1,6.19-4.41l0.06-0.26c0.11-1.31,0.1-2.31,0.1-3.38l-0.01-0.92l0.02-0.6l-0.54-0.28c-0.44-0.29-1.61-2.31-1.8-4.12L19.8,22.5l-0.82-0.07c-0.13-0.01-0.64-0.37-0.83-1.94c-0.1-0.8,0.29-1.09,0.29-1.09l0.64-0.39l-0.19-0.71c-1.21-4.68-1.01-8.26,0.58-10.36c1.25-1.63,3.42-2.49,6.44-2.55c1.87,0,3.26,0.47,3.71,1.25l0.24,0.43l0.49,0.07c1.34,0.19,2.28,0.76,2.9,1.74c1.53,2.47,0.64,7.04-0.12,9.35l-0.21,0.75l0.63,0.42c0.01,0,0.4,0.29,0.3,1.09c-0.18,1.57-0.7,1.93-0.83,1.94L32.2,22.5l-0.09,0.82c-0.2,1.82-1.33,3.83-1.73,4.11l-0.54,0.28v1.54c-0.01,1.06-0.02,2.06,0.1,3.37L30,32.88c0.04,0.1,0.08,0.2,0.13,0.3c0.5-0.72,1.07-1.39,1.72-1.99v-0.01c-0.02-0.65-0.02-1.25-0.01-1.91v-0.48c0.9-0.92,1.82-2.87,2.16-4.61c0.7-0.36,1.58-1.26,1.84-3.45c0.13-1.09-0.19-1.93-0.63-2.48C35.8,16.27,36.99,11.13,34.95,7.83z"/></g></g><g id="IOS_copy_4_"><g><path d="M50,40c0,5.5-4.5,10-10,10s-10-4.5-10-10s4.5-10,10-10S50,34.5,50,40z M48,40c0-4.4-3.6-8-8-8s-8,3.6-8,8s3.6,8,8,8S48,44.4,48,40z"/></g></g><g id="IOS_copy_3_"><g><path d="M39,44c-0.257,0-0.513-0.099-0.707-0.293l-3-3c-0.391-0.391-0.391-1.023,0-1.414s1.023-0.391,1.414,0l2.354,2.354l5.298-4.415c0.424-0.354,1.054-0.296,1.408,0.128c0.354,0.424,0.296,1.055-0.128,1.408l-6,5C39.454,43.923,39.227,44,39,44z"/></g></g></svg>