<?xml version="1.0" encoding="iso-8859-1"?>
<!-- Generator: Adobe Illustrator 25.4.1, SVG Export Plug-In . SVG Version: 6.00 Build 0)  -->
<svg version="1.1" baseProfile="basic" id="Layer_1"
	 xmlns="http://www.w3.org/2000/svg" xmlns:xlink="http://www.w3.org/1999/xlink" x="0px" y="0px" viewBox="0 0 100 100"
	 xml:space="preserve">
<line style="fill:none;stroke:#000000;stroke-width:2;stroke-linecap:round;stroke-linejoin:round;stroke-miterlimit:10;" x1="87.378" y1="53.273" x2="93.618" y2="53.607"/>
<line style="fill:none;stroke:#000000;stroke-width:2;stroke-linecap:round;stroke-linejoin:round;stroke-miterlimit:10;" x1="85.053" y1="55.932" x2="90.403" y2="58.188"/>
<line style="fill:none;stroke:#000000;stroke-width:2;stroke-linecap:round;stroke-linejoin:round;stroke-miterlimit:10;" x1="73.835" y1="61.236" x2="74.976" y2="67.293"/>
<line style="fill:none;stroke:#000000;stroke-width:2;stroke-linecap:round;stroke-linejoin:round;stroke-miterlimit:10;" x1="70.46" y1="63.624" x2="71.412" y2="68.483"/>
<line style="fill:none;stroke:#000000;stroke-width:2;stroke-linecap:round;stroke-linejoin:round;stroke-miterlimit:10;" x1="82.588" y1="40.255" x2="86.859" y2="35.758"/>
<line style="fill:none;stroke:#000000;stroke-width:2;stroke-linecap:round;stroke-linejoin:round;stroke-miterlimit:10;" x1="78.912" y1="40.631" x2="82.595" y2="34.943"/>
<line style="fill:none;stroke:#000000;stroke-width:2;stroke-linecap:round;stroke-linejoin:round;stroke-miterlimit:10;" x1="74.668" y1="42.002" x2="77.336" y2="35.424"/>
<line style="fill:none;stroke:#000000;stroke-width:2;stroke-linecap:round;stroke-linejoin:round;stroke-miterlimit:10;" x1="72.841" y1="36.252" x2="71.538" y2="42.267"/>
<line style="fill:none;stroke:#000000;stroke-width:2;stroke-linecap:round;stroke-linejoin:round;stroke-miterlimit:10;" x1="53" y1="47" x2="56.145" y2="50"/>
<line style="fill:none;stroke:#000000;stroke-width:2;stroke-linecap:round;stroke-linejoin:round;stroke-miterlimit:10;" x1="51" y1="48" x2="53" y2="54"/>
<line style="fill:none;stroke:#000000;stroke-width:2;stroke-linecap:round;stroke-linejoin:round;stroke-miterlimit:10;" x1="17" y1="34.86" x2="18" y2="42"/>
<line style="fill:none;stroke:#000000;stroke-width:2;stroke-linecap:round;stroke-linejoin:round;stroke-miterlimit:10;" x1="14" y1="38" x2="15" y2="42"/>
<line style="fill:none;stroke:#000000;stroke-width:2;stroke-linecap:round;stroke-linejoin:round;stroke-miterlimit:10;" x1="10" y1="38" x2="12" y2="42"/>
<line style="fill:none;stroke:#000000;stroke-width:2;stroke-linecap:round;stroke-linejoin:round;stroke-miterlimit:10;" x1="41" y1="42" x2="39" y2="48"/>
<line style="fill:none;stroke:#000000;stroke-width:2;stroke-linecap:round;stroke-linejoin:round;stroke-miterlimit:10;" x1="39" y1="42" x2="36" y2="45.44"/>
<line style="fill:none;stroke:#000000;stroke-width:2;stroke-linecap:round;stroke-linejoin:round;stroke-miterlimit:10;" x1="36" y1="66" x2="37" y2="60"/>
<line style="fill:none;stroke:#000000;stroke-width:2;stroke-linecap:round;stroke-linejoin:round;stroke-miterlimit:10;" x1="31" y1="69.295" x2="33" y2="63"/>
<line style="fill:none;stroke:#000000;stroke-width:2;stroke-linecap:round;stroke-linejoin:round;stroke-miterlimit:10;" x1="19.5" y1="66" x2="21.75" y2="60"/>
<line style="fill:none;stroke:#000000;stroke-width:2;stroke-linecap:round;stroke-linejoin:round;stroke-miterlimit:10;" x1="15" y1="63" x2="19.5" y2="58.284"/>
<line style="fill:none;stroke:#000000;stroke-width:2;stroke-linecap:round;stroke-linejoin:round;stroke-miterlimit:10;" x1="12" y1="60" x2="15" y2="57"/>
<path style="fill:none;stroke:#000000;stroke-width:4;stroke-linecap:round;stroke-linejoin:round;stroke-miterlimit:10;" d="M50,62
	c0,0,2.997-0.432,6,2c4.184,3.387,13,6,20,5c9.99-1.427,20.478-13.657,19-24c-1-7-8-9-8-9s-10-3-24,4c-9.671,4.835-8.806,7.468-14,7
	s-11.241-7.696-17-10c-10-4-18.941-1.644-23,1s-4.539,5.044-4,9s4,19,20,22C35.867,71.037,44.479,61.833,50,62z"/>
<path style="fill-rule:evenodd;clip-rule:evenodd;" d="M88.703,43.921c0.511,0.209,0.755,0.794,0.546,1.304
	c-0.209,0.511-0.794,0.756-1.304,0.546c-0.511-0.209-0.756-0.794-0.546-1.304C87.608,43.957,88.192,43.712,88.703,43.921z"/>
<path style="fill-rule:evenodd;clip-rule:evenodd;" d="M58.724,58.965c0.511,0.209,0.755,0.794,0.546,1.305
	c-0.209,0.511-0.794,0.756-1.304,0.546c-0.511-0.209-0.756-0.794-0.546-1.304C57.629,59,58.214,58.756,58.724,58.965z"/>
<path style="fill-rule:evenodd;clip-rule:evenodd;" d="M64.869,61.755c0.511,0.209,0.756,0.794,0.546,1.304
	c-0.209,0.511-0.794,0.756-1.304,0.546c-0.511-0.209-0.756-0.794-0.546-1.304C63.774,61.791,64.358,61.546,64.869,61.755z"/>
<line style="fill:none;stroke:#000000;stroke-width:2;stroke-linecap:round;stroke-linejoin:round;stroke-miterlimit:10;" x1="77.931" y1="63.053" x2="79.701" y2="68.001"/>
<line style="fill:none;stroke:#000000;stroke-width:4;stroke-linecap:round;stroke-linejoin:round;stroke-miterlimit:10;" x1="24" y1="13" x2="70" y2="89"/>
<path style="fill:none;stroke:#000000;stroke-width:2;stroke-linecap:round;stroke-linejoin:round;stroke-miterlimit:10;" d="
	M59.289,55c0,0,6.07-7.746,11.711-9c9-2,13,2,13,2s-1.95,8.007-10,9.796C65,59.796,59.289,55,59.289,55z"/>
<path style="fill:none;stroke:#000000;stroke-width:2;stroke-linecap:round;stroke-linejoin:round;stroke-miterlimit:10;" d="M39,53
	c0,0-8.78-8.487-15-8.101C17.78,45.285,15,49,15,49s5.187,8.423,12,8.778S39,53,39,53z"/>
<line style="fill:none;stroke:#000000;stroke-width:2;stroke-linecap:round;stroke-linejoin:round;stroke-miterlimit:10;" x1="8" y1="55" x2="12" y2="54"/>
</svg>