<?xml version="1.0" encoding="iso-8859-1"?>
<!-- Generator: Adobe Illustrator 25.4.1, SVG Export Plug-In . SVG Version: 6.00 Build 0)  -->
<svg version="1.1" baseProfile="basic" id="Layer_1"
	 xmlns="http://www.w3.org/2000/svg" xmlns:xlink="http://www.w3.org/1999/xlink" x="0px" y="0px" viewBox="0 0 100 100"
	 xml:space="preserve">
<path style="fill:none;stroke:#000000;stroke-width:2;stroke-linecap:round;stroke-linejoin:round;stroke-miterlimit:10;" d="
	M20.532,47.799l0.01,11.922l26.52-0.306l-0.905-12.914C39.86,46.256,31.725,46.567,20.532,47.799z"/>
<path style="fill:none;stroke:#000000;stroke-width:2;stroke-linecap:round;stroke-linejoin:round;stroke-miterlimit:10;" d="
	M51.435,46.665l0.784,11.783l27.569,0.358l-0.592-12.413C67.466,45.743,58.982,46.063,51.435,46.665z"/>
<polygon style="fill:none;stroke:#000000;stroke-width:2;stroke-linecap:round;stroke-linejoin:round;stroke-miterlimit:10;" points="
	20.604,43.423 44.757,41.456 44.26,30.062 19.864,31.049 "/>
<path style="fill:none;stroke:#000000;stroke-width:2;stroke-linecap:round;stroke-linejoin:round;stroke-miterlimit:10;" d="
	M50.928,41.67l-0.54-11.322l27.969-0.333l0.152,11.907C71.016,42.175,61.777,42.082,50.928,41.67z"/>
<line style="fill:none;stroke:#000000;stroke-width:2;stroke-linecap:round;stroke-linejoin:round;stroke-miterlimit:10;" x1="56.56" y1="30.274" x2="58.145" y2="32.835"/>
<path style="fill-rule:evenodd;clip-rule:evenodd;" d="M32.904,54.407c0.558,0.326,0.737,1.028,0.399,1.566
	c-0.337,0.538-1.065,0.709-1.623,0.382c-0.558-0.327-0.737-1.028-0.399-1.566C31.618,54.251,32.346,54.08,32.904,54.407z"/>
<path style="fill-rule:evenodd;clip-rule:evenodd;" d="M73.039,36.119c0.558,0.327,0.737,1.028,0.399,1.566
	c-0.338,0.538-1.065,0.709-1.623,0.382c-0.558-0.326-0.737-1.028-0.399-1.566C71.753,35.964,72.48,35.793,73.039,36.119z"/>
<path style="fill-rule:evenodd;clip-rule:evenodd;" d="M68.201,33.494c0.558,0.326,0.737,1.028,0.399,1.566
	c-0.338,0.538-1.065,0.709-1.623,0.382c-0.558-0.326-0.737-1.028-0.399-1.566C66.916,33.339,67.644,33.168,68.201,33.494z"/>
<line style="fill:none;stroke:#000000;stroke-width:2;stroke-linecap:round;stroke-linejoin:round;stroke-miterlimit:10;" x1="65.909" y1="58.53" x2="64.769" y2="55.581"/>
<line style="fill:none;stroke:#000000;stroke-width:2;stroke-linecap:round;stroke-linejoin:round;stroke-miterlimit:10;" x1="69.98" y1="58.844" x2="68.708" y2="53.838"/>
<line style="fill:none;stroke:#000000;stroke-width:2;stroke-linecap:round;stroke-linejoin:round;stroke-miterlimit:10;" x1="74.144" y1="58.648" x2="73.699" y2="56.213"/>
<line style="fill:none;stroke:#000000;stroke-width:2;stroke-linecap:round;stroke-linejoin:round;stroke-miterlimit:10;" x1="25.015" y1="31.193" x2="25.707" y2="33.228"/>
<line style="fill:none;stroke:#000000;stroke-width:2;stroke-linecap:round;stroke-linejoin:round;stroke-miterlimit:10;" x1="28.593" y1="31.104" x2="29.912" y2="35.175"/>
<line style="fill:none;stroke:#000000;stroke-width:2;stroke-linecap:round;stroke-linejoin:round;stroke-miterlimit:10;" x1="33.07" y1="31.147" x2="34.757" y2="33.431"/>
<path style="fill:none;stroke:#000000;stroke-width:4;stroke-linecap:round;stroke-linejoin:round;stroke-miterlimit:10;" d="
	M90.074,23.491c-29.347,0.314-55.843,0.298-79.898,0v50.536c26.02,2.923,52.688,2.755,79.898,0
	C89.144,62.946,88.623,49.329,90.074,23.491z"/>
<polyline style="fill:none;stroke:#000000;stroke-width:2;stroke-linecap:round;stroke-linejoin:round;stroke-miterlimit:10;" points="
	13.617,87.052 20.715,75.156 28.839,87.391 "/>
<polyline style="fill:none;stroke:#000000;stroke-width:2;stroke-linecap:round;stroke-linejoin:round;stroke-miterlimit:10;" points="
	71.587,87.052 78.685,75.156 86.809,86.391 "/>
<line style="fill:none;stroke:#000000;stroke-width:2;stroke-linecap:round;stroke-linejoin:round;stroke-miterlimit:10;" x1="13.617" y1="74.085" x2="15.527" y2="70.005"/>
<line style="fill:none;stroke:#000000;stroke-width:2;stroke-linecap:round;stroke-linejoin:round;stroke-miterlimit:10;" x1="17.796" y1="74.085" x2="18.602" y2="72.045"/>
<line style="fill:none;stroke:#000000;stroke-width:2;stroke-linecap:round;stroke-linejoin:round;stroke-miterlimit:10;" x1="23.376" y1="75.156" x2="24.711" y2="72.045"/>
<line style="fill:none;stroke:#000000;stroke-width:2;stroke-linecap:round;stroke-linejoin:round;stroke-miterlimit:10;" x1="28.839" y1="75.156" x2="28.839" y2="72.045"/>
<line style="fill:none;stroke:#000000;stroke-width:2;stroke-linecap:round;stroke-linejoin:round;stroke-miterlimit:10;" x1="33.105" y1="74.085" x2="34.36" y2="72.045"/>
<line style="fill:none;stroke:#000000;stroke-width:2;stroke-linecap:round;stroke-linejoin:round;stroke-miterlimit:10;" x1="39.425" y1="76.156" x2="39.715" y2="73.065"/>
<line style="fill:none;stroke:#000000;stroke-width:2;stroke-linecap:round;stroke-linejoin:round;stroke-miterlimit:10;" x1="54.643" y1="76.156" x2="53.619" y2="73.601"/>
<line style="fill:none;stroke:#000000;stroke-width:2;stroke-linecap:round;stroke-linejoin:round;stroke-miterlimit:10;" x1="60.383" y1="75.156" x2="59.422" y2="72.045"/>
<line style="fill:none;stroke:#000000;stroke-width:2;stroke-linecap:round;stroke-linejoin:round;stroke-miterlimit:10;" x1="64.674" y1="75.156" x2="64.571" y2="73.065"/>
<line style="fill:none;stroke:#000000;stroke-width:2;stroke-linecap:round;stroke-linejoin:round;stroke-miterlimit:10;" x1="69.432" y1="75.156" x2="71.467" y2="72.045"/>
<line style="fill:none;stroke:#000000;stroke-width:2;stroke-linecap:round;stroke-linejoin:round;stroke-miterlimit:10;" x1="88.015" y1="55.861" x2="85.108" y2="56.455"/>
<line style="fill:none;stroke:#000000;stroke-width:2;stroke-linecap:round;stroke-linejoin:round;stroke-miterlimit:10;" x1="88.925" y1="49.824" x2="85.108" y2="51.803"/>
<line style="fill:none;stroke:#000000;stroke-width:2;stroke-linecap:round;stroke-linejoin:round;stroke-miterlimit:10;" x1="88.015" y1="45.479" x2="86.562" y2="47.136"/>
<line style="fill:none;stroke:#000000;stroke-width:2;stroke-linecap:round;stroke-linejoin:round;stroke-miterlimit:10;" x1="10.176" y1="51.803" x2="13.327" y2="53.009"/>
<line style="fill:none;stroke:#000000;stroke-width:2;stroke-linecap:round;stroke-linejoin:round;stroke-miterlimit:10;" x1="10.176" y1="47.136" x2="13.327" y2="48.446"/>
<line style="fill:none;stroke:#000000;stroke-width:2;stroke-linecap:round;stroke-linejoin:round;stroke-miterlimit:10;" x1="10.176" y1="43.919" x2="13.327" y2="43.469"/>
<line style="fill:none;stroke:#000000;stroke-width:2;stroke-linecap:round;stroke-linejoin:round;stroke-miterlimit:10;" x1="15.656" y1="23.491" x2="16.424" y2="26.689"/>
<line style="fill:none;stroke:#000000;stroke-width:2;stroke-linecap:round;stroke-linejoin:round;stroke-miterlimit:10;" x1="19.407" y1="25.09" x2="20.246" y2="26.689"/>
<line style="fill:none;stroke:#000000;stroke-width:2;stroke-linecap:round;stroke-linejoin:round;stroke-miterlimit:10;" x1="26.643" y1="25.09" x2="28.196" y2="26.689"/>
<line style="fill:none;stroke:#000000;stroke-width:2;stroke-linecap:round;stroke-linejoin:round;stroke-miterlimit:10;" x1="76.795" y1="23.491" x2="74.988" y2="26.689"/>
<line style="fill:none;stroke:#000000;stroke-width:2;stroke-linecap:round;stroke-linejoin:round;stroke-miterlimit:10;" x1="80.7" y1="23.491" x2="79.605" y2="26.689"/>
<line style="fill:none;stroke:#000000;stroke-width:2;stroke-linecap:round;stroke-linejoin:round;stroke-miterlimit:10;" x1="85.49" y1="23.491" x2="82.979" y2="31.007"/>
<path style="fill:none;stroke:#000000;stroke-width:2;stroke-linecap:round;stroke-linejoin:round;stroke-miterlimit:10;" d="
	M10.516,63.611c21.821,1.025,47.798,1.013,78.63-0.211"/>
<path style="fill:none;stroke:#000000;stroke-width:2;stroke-linecap:round;stroke-linejoin:round;stroke-miterlimit:10;" d="
	M46.365,67.779c-0.963,0.015-2.232,0.529-2.281,2.471c-0.048,1.951,1.665,1.953,2.455,2.05c0.79,0.097,2.257-0.553,2.243-2.139
	C48.764,68.063,47.328,67.764,46.365,67.779z"/>
</svg>