<?xml version="1.0" encoding="iso-8859-1"?><!-- Generator: Adobe Illustrator 22.0.1, SVG Export Plug-In . SVG Version: 6.00 Build 0)  --><svg xmlns="http://www.w3.org/2000/svg" xmlns:xlink="http://www.w3.org/1999/xlink" viewBox="0 0 50 50" width="50px" height="50px"><path d="M31,40c0-2.26,0.839-4.319,2.214-5.9c-1.041-0.541-1.849-1.139-2.214-1.925v-3.726c1.106-1.121,1.636-3.003,1.884-4.387c0.908-0.378,1.91-1.394,2.104-3.617c0.009-0.111,0.014-0.352,0.013-0.452c-0.007-0.982-0.383-1.791-0.854-2.326c0.343-1.17,0.809-2.986,0.852-4.917C35,12.625,35.001,12.5,35,12.375c-0.028-4.009-1.849-6.604-5.018-7.198C29.021,3.822,27.167,3,25,3c-5.816,0-9.663,3.586-9.979,9.25C15.007,12.496,15,12.746,15,13c-0.002,1.647,0.404,3.298,0.854,4.716c-0.218,0.255-0.452,0.6-0.621,1.034C15.096,19.106,15.003,19.523,15,20c0,0.103,0.005,0.337,0.019,0.498c0.273,2.107,1.227,3.113,2.065,3.521c0.277,1.897,0.965,3.488,1.916,4.434v3.775c-0.577,1.386-2.59,2.188-4.908,3.114c-3.901,1.558-8.757,3.496-9.09,9.604L5,46h28.305C31.876,44.407,31,42.308,31,40z"/><circle style="fill:none;stroke:#000000;stroke-width:2;stroke-miterlimit:10;" cx="40" cy="40" r="9"/><line style="fill:none;stroke:#000000;stroke-width:2;stroke-linecap:round;stroke-miterlimit:10;" x1="36.5" y1="36.5" x2="43.5" y2="43.5"/><line style="fill:none;stroke:#000000;stroke-width:2;stroke-linecap:round;stroke-miterlimit:10;" x1="43.5" y1="36.5" x2="36.5" y2="43.5"/></svg>