<?xml version="1.0" encoding="iso-8859-1"?>
<!-- Generator: Adobe Illustrator 25.2.3, SVG Export Plug-In . SVG Version: 6.00 Build 0)  -->
<svg version="1.1" id="Layer_1" xmlns="http://www.w3.org/2000/svg" xmlns:xlink="http://www.w3.org/1999/xlink" x="0px" y="0px"
	 viewBox="0 0 48 48" style="enable-background:new 0 0 48 48;" xml:space="preserve">
<g>
	<path d="M24.507,44c-5.786,0-10.493-4.707-10.493-10.493s4.707-10.493,10.493-10.493C30.293,23.014,35,27.721,35,33.507
		S30.293,44,24.507,44z M24.507,26.014c-4.131,0-7.493,3.361-7.493,7.493S20.376,41,24.507,41C28.639,41,32,37.639,32,33.507
		S28.639,26.014,24.507,26.014z"/>
</g>
<g>
	<path d="M30.477,22.549c0.991,0.543,1.889,1.209,2.679,1.973l2.746-5.099l-1.89-1.018C34.587,18.195,35,17.648,35,17
		c0-0.627-0.384-1.163-0.93-1.388c-1.546-0.661-3.371-0.026-4.167,1.459l-2.347,4.367C29.098,21.878,30.461,22.54,30.477,22.549z"/>
</g>
<g>
	<circle style="fill-rule:evenodd;clip-rule:evenodd;" cx="24.507" cy="33.507" r="2"/>
</g>
<g>
	<path d="M23.5,22c-0.185,0-0.374-0.034-0.556-0.107c-0.77-0.308-1.144-1.18-0.836-1.949l1.999-5C24.333,14.374,24.885,14,25.499,14
		H33.5c0.829,0,1.5,0.672,1.5,1.5S34.329,17,33.5,17h-6.986l-1.621,4.057C24.658,21.644,24.095,22,23.5,22z"/>
</g>
<g>
	<path style="fill-rule:evenodd;clip-rule:evenodd;" d="M33.722,14c0,0,2.679,0.214,2.778,2.848
		c0.051,1.361-0.601,2.585-0.601,2.585L32.5,20.235l-1-4.735L33.722,14z"/>
</g>
<g>
	<circle style="fill-rule:evenodd;clip-rule:evenodd;" cx="37" cy="9" r="4"/>
</g>
<g>
	<path d="M13.312,39H9.382C8.619,39,8,39.672,8,40.5S8.619,42,9.382,42h5.975C14.528,41.104,13.842,40.093,13.312,39z"/>
</g>
<g>
	<path d="M12.06,33.56c0-0.526,0.037-1.046,0.102-1.56H7.654C6.74,32,6,32.672,6,33.5S6.74,35,7.654,35h4.495
		C12.095,34.525,12.06,34.046,12.06,33.56z"/>
</g>
<g>
	<path d="M15.483,25h-9.63C4.829,25,4,25.672,4,26.5S4.829,28,5.853,28h7.522C13.923,26.904,14.634,25.894,15.483,25z"/>
</g>
<g>
	<path style="fill-rule:evenodd;clip-rule:evenodd;" d="M39.43,28.06c-0.177-0.14-0.381-0.235-0.596-0.284l0.001,0l-0.008-0.002
		c-0.002,0-0.004-0.001-0.005-0.001l-3.777-0.914c1.224,1.948,1.911,4.228,1.911,6.61c0,1.023-0.135,2.031-0.379,3.006L37,40.5
		c0,0.828,0.671,1.5,1.5,1.5s1.5-0.672,1.5-1.5V29.236C40,28.777,39.79,28.344,39.43,28.06z"/>
</g>
</svg>