<?xml version="1.0" encoding="iso-8859-1"?>
<!-- Generator: Adobe Illustrator 25.4.1, SVG Export Plug-In . SVG Version: 6.00 Build 0)  -->
<svg version="1.1" baseProfile="basic" id="Layer_1"
	 xmlns="http://www.w3.org/2000/svg" xmlns:xlink="http://www.w3.org/1999/xlink" x="0px" y="0px" viewBox="0 0 50 50"
	 xml:space="preserve">
<rect x="34" y="31" style="fill:none;stroke:#000000;stroke-width:2;stroke-linecap:round;stroke-linejoin:round;stroke-miterlimit:10;" width="12" height="16"/>
<line style="fill:none;stroke:#000000;stroke-width:2;stroke-linecap:round;stroke-linejoin:round;stroke-miterlimit:10;" x1="36" y1="31" x2="36" y2="29"/>
<line style="fill:none;stroke:#000000;stroke-width:2;stroke-linecap:round;stroke-linejoin:round;stroke-miterlimit:10;" x1="40" y1="31" x2="40" y2="29"/>
<line style="fill:none;stroke:#000000;stroke-width:2;stroke-linecap:round;stroke-linejoin:round;stroke-miterlimit:10;" x1="44" y1="31" x2="44" y2="29"/>
<g>
	<path d="M34.945,7.827c-0.86-1.383-2.161-2.254-3.874-2.592c-0.945-1.194-2.755-1.845-5.185-1.845
		c-3.681,0.068-6.375,1.192-8.006,3.343c-1.934,2.549-2.292,6.41-1.07,11.485c-0.451,0.551-0.783,1.401-0.65,2.513
		c0.264,2.194,1.139,3.09,1.842,3.453c0.341,1.733,1.288,3.689,2.209,4.608l0.002,0.468c0.009,1.015,0.017,1.896-0.08,3.033
		c-0.612,1.405-2.649,2.207-4.999,3.131c-3.908,1.537-8.771,3.449-9.135,9.516L5.938,46H32v-2H8.128
		c0.756-3.967,4.303-5.361,7.741-6.714c2.739-1.077,5.327-2.095,6.188-4.409l0.059-0.259c0.118-1.306,0.109-2.311,0.1-3.375
		l-0.005-0.925l0.018-0.594l-0.535-0.281c-0.438-0.297-1.608-2.315-1.801-4.12L19.804,22.5l-0.825-0.067
		c-0.128-0.01-0.644-0.37-0.833-1.938c-0.097-0.808,0.296-1.092,0.298-1.093l0.635-0.387l-0.187-0.72
		c-1.214-4.671-1.013-8.251,0.582-10.353c1.242-1.638,3.412-2.496,6.431-2.552c1.877,0,3.265,0.469,3.712,1.255l0.244,0.428
		l0.488,0.067c1.336,0.186,2.284,0.756,2.897,1.742c1.536,2.473,0.647,7.04-0.12,9.349l-0.211,0.746l0.639,0.423
		c0.004,0.003,0.396,0.286,0.299,1.093c-0.188,1.569-0.705,1.93-0.833,1.939L32.196,22.5l-0.088,0.823
		c-0.195,1.814-1.329,3.829-1.731,4.11l-0.534,0.281l-0.005,1.533c-0.009,1.062-0.018,2.066,0.1,3.37l0.059,0.259
		c0.261,0.701,0.711,1.34,1.339,1.898c0.2,0.178,0.425,0.347,0.665,0.514V32.5c0-0.017,0.008-0.031,0.01-0.048
		c-0.028-0.053-0.069-0.103-0.093-0.158c-0.096-1.135-0.088-2.016-0.079-3.028l0.002-0.479c0.897-0.918,1.821-2.867,2.158-4.602
		c0.704-0.364,1.579-1.259,1.841-3.453c0.131-1.091-0.186-1.93-0.624-2.48C35.796,16.271,36.995,11.127,34.945,7.827z"/>
</g>
<line style="fill:none;stroke:#000000;stroke-width:2;stroke-linecap:round;stroke-linejoin:round;stroke-miterlimit:10;" x1="37" y1="35" x2="43" y2="35"/>
<line style="fill:none;stroke:#000000;stroke-width:2;stroke-linecap:round;stroke-linejoin:round;stroke-miterlimit:10;" x1="37" y1="39" x2="42.974" y2="39"/>
<line style="fill:none;stroke:#000000;stroke-width:2;stroke-linecap:round;stroke-linejoin:round;stroke-miterlimit:10;" x1="37" y1="43" x2="42.974" y2="43"/>
</svg>