<?xml version="1.0" encoding="iso-8859-1"?><!-- Generator: Adobe Illustrator 23.0.1, SVG Export Plug-In . SVG Version: 6.00 Build 0)  --><svg xmlns="http://www.w3.org/2000/svg" xmlns:xlink="http://www.w3.org/1999/xlink" viewBox="0 0 80 80" width="480px" height="480px"><path style="fill:none;stroke:#000000;stroke-width:2;stroke-miterlimit:10;" d="M45,14c0,2.76-2.239,5-5,5c-2.76,0-5-2.24-5-5c0-2.761,2.24-5,5-5C42.761,9,45,11.239,45,14L45,14z"/><path style="fill:none;stroke:#000000;stroke-width:2;stroke-miterlimit:10;" d="M72,28c0,2.76-2.239,5-5,5c-2.76,0-5-2.24-5-5c0-2.761,2.24-5,5-5C69.761,23,72,25.239,72,28L72,28z"/><path style="fill:none;stroke:#000000;stroke-width:2;stroke-miterlimit:10;" d="M72,58c0,2.76-2.239,5-5,5c-2.76,0-5-2.24-5-5c0-2.761,2.24-5,5-5C69.761,53,72,55.239,72,58L72,58z"/><path style="fill:none;stroke:#000000;stroke-width:2;stroke-miterlimit:10;" d="M48.738,47c-0.086,0-0.386,0.051-0.738,0.117v-3.414c0-4.199-3.199-5.449-3.199-5.449S42.582,40.645,38,40.645c-2.059,0-6,1.308-6,5.089v1.453C31.512,47.094,31.008,47,30.895,47c-0.7,0-1.262,0.535-1.262,1.199c0,0.485,0.422,1.524,0.422,1.801c0,0.551,0.468,1,1.05,1h0.915c0.183,3.742,2.953,6.805,6.57,7.449C38.965,58.789,39.453,59,40,59s1.035-0.211,1.41-0.551c3.617-0.644,6.387-3.707,6.57-7.449h0.543c0.582,0,1.055-0.449,1.055-1c0-0.277,0.422-1.316,0.422-1.801C50,47.535,49.434,47,48.738,47L48.738,47z"/><path style="fill:none;stroke:#000000;stroke-width:2;stroke-miterlimit:10;" d="M49,47c0,0,1-4.848,1-7c0-4.246-3.41-5.719-5.43-5.719c0,0-1.351-2.281-5.386-2.281C33.465,32,28,38,28,38s2,0.969,2,4c0,2.281,1,5,1,5"/><path style="fill:none;stroke:#000000;stroke-width:2;stroke-miterlimit:10;" d="M35.43,60c0,0-11.43,2.566-11.43,7v5"/><path style="fill:none;stroke:#000000;stroke-width:2;stroke-miterlimit:10;" d="M56,72v-5c0-4.434-11.43-7-11.43-7"/><path style="fill:none;stroke:#000000;stroke-width:2;stroke-miterlimit:10;" d="M44,57.016v3.988c0,0-1.145,1.996-4,1.996s-4-1.996-4-1.996v-3.988"/><path d="M44,49c0,0.551-0.449,1-1,1s-1-0.449-1-1s0.449-1,1-1S44,48.449,44,49L44,49z"/><path d="M38,49c0,0.551-0.449,1-1,1s-1-0.449-1-1s0.449-1,1-1S38,48.449,38,49L38,49z"/><line style="fill:none;stroke:#000000;stroke-width:2;stroke-linecap:round;stroke-linejoin:round;stroke-miterlimit:10;stroke-dasharray:0,4;" x1="40" y1="19" x2="40" y2="27"/><circle cx="56" cy="35" r="1"/><circle cx="60" cy="33" r="1"/><circle cx="55" cy="52" r="1"/><circle cx="59" cy="54" r="1"/><path style="fill:none;stroke:#000000;stroke-width:2;stroke-miterlimit:10;" d="M8,28c0-2.761,2.239-5,5-5c2.76,0,5,2.239,5,5c0,2.76-2.24,5-5,5C10.239,33,8,30.76,8,28L8,28z"/><path style="fill:none;stroke:#000000;stroke-width:2;stroke-miterlimit:10;" d="M8,58c0-2.761,2.239-5,5-5c2.76,0,5,2.239,5,5c0,2.76-2.24,5-5,5C10.239,63,8,60.76,8,58L8,58z"/><circle cx="24" cy="35" r="1"/><circle cx="20" cy="33" r="1"/><circle cx="25" cy="52" r="1"/><circle cx="21" cy="54" r="1"/></svg>