<?xml version="1.0" encoding="iso-8859-1"?>
<!-- Generator: Adobe Illustrator 23.0.3, SVG Export Plug-In . SVG Version: 6.00 Build 0)  -->
<svg version="1.1" id="Layer_1" xmlns="http://www.w3.org/2000/svg" xmlns:xlink="http://www.w3.org/1999/xlink" x="0px" y="0px"
	 viewBox="0 0 48 48" style="enable-background:new 0 0 48 48;" xml:space="preserve">
<circle style="fill:#A5D6A7;" cx="28" cy="18" r="8"/>
<path style="fill:#A5D6A7;" d="M42.5,37c0,12-29,12-29,0v0c0-2.209,1.791-4,4-4h21.001C40.71,33,42.501,34.791,42.5,37L42.5,37
	L42.5,37z"/>
<path style="fill:none;stroke:#18193F;stroke-width:3;stroke-linecap:round;stroke-linejoin:round;stroke-miterlimit:5;" d="
	M18.9,20.801c-2.065-1.551-3.4-4.02-3.4-6.801c0-4.694,3.806-8.5,8.5-8.5c0.13,0,0.26,0.003,0.389,0.009"/>
<path style="fill:none;stroke:#18193F;stroke-width:3;stroke-linecap:round;stroke-linejoin:round;stroke-miterlimit:5;" d="
	M29.302,7.356C31.251,8.914,32.5,11.311,32.5,14c0,4.694-3.806,8.5-8.5,8.5"/>
<path style="fill:none;stroke:#18193F;stroke-width:3;stroke-linecap:round;stroke-linejoin:round;stroke-miterlimit:10;" d="
	M20.286,42.232C14.465,41.376,9.5,38.465,9.5,33.5v0c0-2.209,1.791-4,4-4h21.001c0.276,0,0.546,0.028,0.806,0.081"/>
<line style="fill:none;stroke:#18193F;stroke-width:3;stroke-linecap:round;stroke-miterlimit:10;" x1="43.5" y1="33.5" x2="41.514" y2="37.075"/>
<line style="fill:none;stroke:#18193F;stroke-width:3;stroke-linecap:round;stroke-miterlimit:10;" x1="26.5" y1="33.5" x2="28.568" y2="37.223"/>
<path style="fill:none;stroke:#18193F;stroke-width:3;stroke-linecap:round;stroke-linejoin:round;stroke-miterlimit:10;" d="
	M46,46.457H24l0.09-0.991c0.512-5.657,5.203-9.922,10.91-9.922s10.398,4.265,10.91,9.922L46,46.457z"/>
<circle style="fill:#18193F;" cx="30" cy="43" r="1.375"/>
<circle style="fill:#18193F;" cx="40" cy="43" r="1.375"/>
</svg>