<?xml version="1.0" encoding="iso-8859-1"?>
<!-- Generator: Adobe Illustrator 24.1.2, SVG Export Plug-In . SVG Version: 6.00 Build 0)  -->
<svg version="1.1" baseProfile="basic" id="Layer_1"
	 xmlns="http://www.w3.org/2000/svg" xmlns:xlink="http://www.w3.org/1999/xlink" x="0px" y="0px" viewBox="0 0 50 50"
	 xml:space="preserve">
<path style="fill:none;stroke:#000000;stroke-width:2;stroke-linecap:round;stroke-linejoin:round;stroke-miterlimit:10;" d="M22,33
	v-2.89c1.895-1.288,3-3.541,3-6.037c0-0.402,0-3.427,0-3.829C25,16.22,21.947,13,18,13s-7,3.22-7,7.244c0,0.402,0,3.427,0,3.829
	c0,2.495,1.105,4.749,3,6.037V33c0,2.817-10,2.032-10,10h28C32,34.951,22,35.898,22,33z"/>
<path style="fill:none;stroke:#000000;stroke-width:2;stroke-linecap:round;stroke-linejoin:round;stroke-miterlimit:10;" d="M39,7
	c-4.971,0-9,3.358-9,7.5c0,1.765,0.721,3.376,1.946,4.658C31.462,21.735,30,23,30,23c2.767,0,4.541-0.438,6.162-1.356
	C37.084,21.893,38.305,22,39,22c4.971,0,9-3.358,9-7.5S43.971,7,39,7z"/>
<circle cx="39" cy="11" r="1"/>
<line style="fill:none;stroke:#000000;stroke-width:2;stroke-linecap:round;stroke-miterlimit:10;" x1="39" y1="14" x2="39" y2="18"/>
</svg>