<?xml version="1.0" encoding="iso-8859-1"?>
<!-- Generator: Adobe Illustrator 26.0.1, SVG Export Plug-In . SVG Version: 6.00 Build 0)  -->
<svg version="1.1" baseProfile="basic" id="Layer_1"
	 xmlns="http://www.w3.org/2000/svg" xmlns:xlink="http://www.w3.org/1999/xlink" x="0px" y="0px" viewBox="0 0 50 50"
	 xml:space="preserve">
<path d="M29.026,26.453c-0.176-0.082-0.288-0.259-0.288-0.453v-3.548c-0.676,0.094-3.238-0.185-3.238-2.748v-7.647
	c0-1.515,1.232-2.748,2.748-2.748h12.505c1.515,0,2.748,1.232,2.748,2.748v7.647c0,1.515-1.232,2.748-2.748,2.748h-6.476
	l-4.718,3.932C29.321,26.581,29.066,26.471,29.026,26.453z M28.248,10.31c-0.963,0-1.748,0.784-1.748,1.748v7.647
	c0,0.963,0.784,1.748,1.748,1.748h0.991c0.276,0,0.5,0.224,0.5,0.5v2.98l4.037-3.365c0.09-0.075,0.203-0.116,0.32-0.116h6.657
	c0.963,0,1.748-0.784,1.748-1.748v-7.647c0-0.963-0.784-1.748-1.748-1.748H28.248z"/>
<path d="M18.5,30c-3.033,0-5.5-2.691-5.5-6s2.467-6,5.5-6s5.5,2.691,5.5,6S21.533,30,18.5,30z M18.5,19c-2.481,0-4.5,2.243-4.5,5
	s2.019,5,4.5,5s4.5-2.243,4.5-5S20.981,19,18.5,19z"/>
<path d="M26.906,42H9.094c-2.084,0-3.061-2.137-2.353-3.629C8.574,34.5,12.993,32,18,32s9.426,2.5,11.259,6.371
	C30,39.933,28.903,42,26.906,42z M18,33c-4.551,0-8.713,2.33-10.355,5.798C7.107,39.935,8.093,41,9.094,41h17.812
	c1.027,0,1.974-1.092,1.449-2.202C26.713,35.33,22.551,33,18,33z"/>
</svg>