<?xml version="1.0" encoding="utf-8"?>
<!-- Generator: Adobe Illustrator 22.0.1, SVG Export Plug-In . SVG Version: 6.00 Build 0)  -->
<svg version="1.1" id="Layer_1" xmlns="http://www.w3.org/2000/svg" xmlns:xlink="http://www.w3.org/1999/xlink" x="0px" y="0px"
	 viewBox="0 0 128 128" style="enable-background:new 0 0 128 128;" xml:space="preserve">
<style type="text/css">
	.st0{fill:none;stroke:#000000;stroke-width:6;stroke-linecap:round;stroke-linejoin:round;stroke-miterlimit:10;}
</style>
<g>
	<path d="M79.9,83.8C74.8,82,69.5,81,64,81c0,0,0,0,0,0s0,0,0,0c-16.4,0-31.6,8.9-39.7,23.1c-0.8,1.4-0.3,3.3,1.1,4.1
		c0.5,0.3,1,0.4,1.5,0.4c1,0,2.1-0.5,2.6-1.5C36.6,94.7,49.8,87,64,87c0,0,0,0,0,0s0,0,0,0c4.7,0,9.4,0.8,13.8,2.5
		c0.3,0.1,0.7,0.2,1,0.2c1.2,0,2.4-0.7,2.8-2C82.2,86.1,81.4,84.4,79.9,83.8z"/>
	<path d="M64,27c-12.7,0-23,10.3-23,23s10.3,23,23,23s23-10.3,23-23S76.7,27,64,27z M64,67c-9.4,0-17-7.6-17-17s7.6-17,17-17
		c9.4,0,17,7.6,17,17S73.4,67,64,67z"/>
	<path d="M91.9,91.9c-7.8,7.8-7.8,20.5,0,28.3c7.8,7.8,20.5,7.8,28.3,0c7.8-7.8,7.8-20.5,0-28.3C112.3,84,99.7,84,91.9,91.9z
		 M112.9,109h-4v4c0,1.7-1.3,3-3,3s-3-1.3-3-3v-4h-4c-1.7,0-3-1.3-3-3s1.3-3,3-3h4v-4c0-1.7,1.3-3,3-3s3,1.3,3,3v4h4
		c1.7,0,3,1.3,3,3S114.6,109,112.9,109z"/>
</g>
</svg>