<?xml version="1.0" encoding="iso-8859-1"?><!-- Generator: Adobe Illustrator 23.0.3, SVG Export Plug-In . SVG Version: 6.00 Build 0)  --><svg xmlns="http://www.w3.org/2000/svg" xmlns:xlink="http://www.w3.org/1999/xlink" viewBox="0 0 24 24" width="480px" height="480px"><g><circle cx="7" cy="3" r="2"/><path d="M9,6H5C3.897,6,3,6.897,3,8v7h1v8h2v-8h2v8h2v-8h1V8C11,6.897,10.103,6,9,6z"/><circle cx="17" cy="7" r="2"/><path d="M21,12c0-1.103-0.897-2-2-2h-4c-1.103,0-2,0.897-2,2v6h1v5h2v-5h2v5h2v-5h1V12z"/></g></svg>