<?xml version="1.0" encoding="utf-8"?><!-- Generator: Adobe Illustrator 15.0.0, SVG Export Plug-In . SVG Version: 6.00 Build 0)  --><!DOCTYPE svg PUBLIC "-//W3C//DTD SVG 1.1//EN" "http://www.w3.org/Graphics/SVG/1.1/DTD/svg11.dtd"><svg xmlns="http://www.w3.org/2000/svg" xmlns:xlink="http://www.w3.org/1999/xlink" viewBox="0 0 50 50" width="50px" height="50px"><path d="M45.938,44.939c-0.363-6.066-5.208-7.979-9.102-9.516c-2.338-0.924-4.369-1.727-4.979-3.133c-0.097-1.133-0.089-2.014-0.08-3.027l0.003-0.479c0.895-0.916,1.816-2.855,2.155-4.59c0.724-0.361,1.58-1.26,1.844-3.465c0.132-1.09-0.187-1.928-0.624-2.48c0.581-1.979,1.78-7.123-0.27-10.423c-0.859-1.384-2.161-2.255-3.874-2.594c-0.944-1.193-2.753-1.843-5.184-1.843c-3.681,0.068-6.375,1.193-8.007,3.343c-1.933,2.547-2.292,6.409-1.069,11.484c-0.45,0.551-0.783,1.401-0.65,2.513c0.263,2.194,1.138,3.09,1.842,3.453c0.34,1.732,1.288,3.689,2.209,4.607l0.002,0.469c0.008,1.014,0.016,1.896-0.08,3.031c-0.612,1.406-2.649,2.209-4.999,3.133c-3.907,1.537-8.771,3.451-9.135,9.516L5.875,46H46L45.938,44.939z M38,44h-8v-4h8V44z"/></svg>