<?xml version="1.0" encoding="iso-8859-1"?><!-- Generator: Adobe Illustrator 22.1.0, SVG Export Plug-In . SVG Version: 6.00 Build 0)  --><svg xmlns="http://www.w3.org/2000/svg" xmlns:xlink="http://www.w3.org/1999/xlink" viewBox="0 0 24 24" width="480px" height="480px"><g id="Filled"><path d="M21.504,12.992C20.424,12.362,18.782,12,17,12c-3.532,0-6,1.323-6,3.217V18h6v-1.333V16c0-1.105,0.895-2,2-2h3.614C22.39,13.661,22.047,13.309,21.504,12.992z"/><g><path d="M9,15.217c0-1.075,0.389-2.024,1.085-2.813C9.204,12.145,8.161,12,7,12c-3.532,0-6,1.323-6,3.217V18h8V15.217z"/></g><path d="M7,10c-1.683,0-3-1.318-3-3s1.317-3,3-3s3,1.318,3,3S8.683,10,7,10z"/><path d="M17,10c-1.683,0-3-1.318-3-3s1.317-3,3-3s3,1.318,3,3S18.683,10,17,10z"/><line style="fill:none;stroke:#000000;stroke-width:2;stroke-miterlimit:10;" x1="20" y1="16" x2="20" y2="24"/><line style="fill:none;stroke:#000000;stroke-width:2;stroke-miterlimit:10;" x1="16" y1="20" x2="24" y2="20"/></g></svg>