<?xml version="1.0" encoding="iso-8859-1"?><!-- Generator: Adobe Illustrator 21.0.2, SVG Export Plug-In . SVG Version: 6.00 Build 0)  --><svg xmlns="http://www.w3.org/2000/svg" xmlns:xlink="http://www.w3.org/1999/xlink" viewBox="0 0 80 80" width="480px" height="480px"><g><g><path style="fill:none;stroke:#000000;stroke-width:2;stroke-miterlimit:10;" d="M56.5,34c-2.485,0-4.5,2.015-4.5,4.5v-3c0-2.485-2.015-4.5-4.5-4.5S43,33.015,43,35.5v-1c0-2.485-2.015-4.5-4.5-4.5S34,32.015,34,34.5v-18c0-2.485-2.015-4.5-4.5-4.5S25,14.015,25,16.5v26.136l-4.39,3.592c-2.665,2.181-3.378,5.962-1.688,8.963l6.7,11.904C26.832,69.976,29.679,72,33,72h1h9h9h1c4.418,0,8-3.582,8-8V38.5C61,36.015,58.985,34,56.5,34z"/></g></g><line style="fill:none;stroke:#000000;stroke-width:2;stroke-linecap:square;stroke-miterlimit:10;" x1="34" y1="35" x2="34" y2="31"/><line style="fill:none;stroke:#000000;stroke-width:2;stroke-linecap:square;stroke-miterlimit:10;" x1="43" y1="37" x2="43" y2="33"/><circle cx="34" cy="46" r="1"/><circle cx="34" cy="50" r="1"/><circle cx="34" cy="54" r="1"/><circle cx="34" cy="58" r="1"/><circle cx="34" cy="62" r="1"/><circle cx="43" cy="46" r="1"/><circle cx="43" cy="50" r="1"/><circle cx="43" cy="54" r="1"/><circle cx="43" cy="58" r="1"/><circle cx="43" cy="62" r="1"/><circle cx="52" cy="46" r="1"/><circle cx="52" cy="50" r="1"/><circle cx="52" cy="54" r="1"/><circle cx="52" cy="58" r="1"/><circle cx="52" cy="62" r="1"/><path style="fill:none;stroke:#000000;stroke-width:2;stroke-miterlimit:10;" d="M34.474,25.807C37.763,24.034,40,20.559,40,16.56c0-5.799-4.701-10.5-10.5-10.5S19,10.761,19,16.56c0,3.999,2.237,7.475,5.526,9.248"/></svg>