<?xml version="1.0" encoding="iso-8859-1"?>
<!-- Generator: Adobe Illustrator 22.1.0, SVG Export Plug-In . SVG Version: 6.00 Build 0)  -->
<svg version="1.1" id="Layer_1_1_" xmlns="http://www.w3.org/2000/svg" xmlns:xlink="http://www.w3.org/1999/xlink" x="0px" y="0px"
	 viewBox="0 0 48 48" style="enable-background:new 0 0 48 48;" xml:space="preserve">
<path d="M28.5,17h10.621L27,4.879V15.5C27,16.327,27.673,17,28.5,17z"/>
<path d="M38.5,34c-2.481,0-4.5-2.019-4.5-4.5s2.019-4.5,4.5-4.5s4.5,2.019,4.5,4.5S40.981,34,38.5,34z"/>
<path d="M43,36h-9c-1.657,0-3,1.343-3,3v2c0,2.761,3.358,5,7.5,5s7.5-2.239,7.5-5v-2C46,37.343,44.657,36,43,36z"/>
<path d="M29,41v-2c0-2.701,2.156-4.894,4.836-4.983C32.702,32.846,32,31.255,32,29.5c0-3.584,2.916-6.5,6.5-6.5
	c0.517,0,1.018,0.067,1.5,0.182V20H28.5c-2.481,0-4.5-2.019-4.5-4.5V4H12.5C10.019,4,8,6.019,8,8.5v31c0,2.481,2.019,4.5,4.5,4.5
	h17.397C29.326,43.094,29,42.081,29,41z"/>
</svg>