<?xml version="1.0" encoding="iso-8859-1"?><!-- Generator: Adobe Illustrator 23.0.3, SVG Export Plug-In . SVG Version: 6.00 Build 0)  --><svg xmlns="http://www.w3.org/2000/svg" xmlns:xlink="http://www.w3.org/1999/xlink" viewBox="0 0 50 50" width="50px" height="50px"><g><circle cx="14" cy="8" r="5"/><path d="M19,14h-9c-2.793,0-5,2.105-5,4.895v11.18c0,1.016,0.984,1.801,2,1.801s2-0.785,2-1.801v-8.699c0-0.25,0.25-0.5,0.5-0.5s0.5,0.25,0.5,0.5v24.016c0,1.438,0.559,2.484,2,2.484c0.52,0,1.05-0.195,1.4-0.588c0.196-0.219,0.332-0.484,0.424-0.762c0.047-0.141,0.082-0.286,0.11-0.432c0.014-0.073,0.026-0.146,0.037-0.22c0.008-0.056,0.027-0.125,0.029-0.197c0-0.009,0-3.32,0-3.32v-10.98c0-0.254,0.246-0.5,0.5-0.5s0.5,0.246,0.5,0.5v10.98c0,0-0.004,3.313,0,3.32c0.006,0.062,0.019,0.119,0.027,0.179c0.055,0.499,0.219,1.019,0.551,1.405c0.355,0.413,0.885,0.615,1.422,0.615c1.441,0,2-1.047,2-2.484V21.375c0-0.25,0.25-0.5,0.5-0.5s0.5,0.25,0.5,0.5v8.699c0,1.016,0.984,1.801,2,1.801s2-0.785,2-1.801v-11.18C24,16.105,21.793,14,19,14z"/><circle cx="35.508" cy="14.508" r="4.492"/><path d="M40,20h-9c-2.793,0-5,2.105-5,4.895v10.18c0,1.016,0.984,1.801,2,1.801s2-0.785,2-1.801v-8.699c0-0.25,0.25-0.5,0.5-0.5s0.5,0.25,0.5,0.5v19.016c0,1.438,0.559,2.484,2,2.484c1.363,0,2-1.066,2-2.484v-9.016c0-0.254,0.246-0.5,0.5-0.5s0.5,0.246,0.5,0.5v5.98c0,0-0.004,3.313,0,3.32c0.125,1.27,0.727,2.199,2,2.199c1.441,0,2-1.047,2-2.484V26.375c0-0.25,0.25-0.5,0.5-0.5s0.5,0.25,0.5,0.5v8.699c0,1.016,0.984,1.801,2,1.801s2-0.785,2-1.801v-10.18C45,22.105,42.793,20,40,20z"/></g></svg>