<?xml version="1.0" encoding="iso-8859-1"?><!-- Generator: Adobe Illustrator 19.1.1, SVG Export Plug-In . SVG Version: 6.00 Build 0)  --><svg xmlns="http://www.w3.org/2000/svg" xmlns:xlink="http://www.w3.org/1999/xlink" viewBox="0 0 50 50" width="50px" height="50px"><path style="fill:none;stroke:#000000;stroke-width:2;stroke-miterlimit:10;" d="M30.988,34.001C30.499,33.572,30.223,33.082,30,32.5c0-1.685,0-2.7,0-4.2c0.7-0.4,2.046-2.8,2.346-4.9c0.6,0,1.5-0.6,1.7-2.8c0.1-1.2-0.4-1.9-0.8-2.1c1-2.8,2.654-11.769-3.746-12.669c-0.7-1.2-2.4-1.8-4.6-1.8C16,4.231,14.931,11,16.831,18.5c-0.3,0.2-0.9,0.9-0.8,2.1c0.3,2.2,1.2,2.8,1.7,2.8c0.2,2.1,1.569,4.5,2.269,4.9c0,1.5,0,2.515,0,4.2c-0.194,0.571-0.541,1.053-1,1.476"/><g><path d="M26.825,34.7l2.183,2.713l3.114-3.794c-0.55-0.38-0.966-0.804-1.206-1.303c0,0-0.201-0.453-0.483-0.927c-0.282-0.474-0.897-0.631-1.371-0.348l-3.516,2.092l1.27,1.572L26.825,34.7z"/><path d="M19.714,31.389c-0.271,0.455-0.683,0.768-0.683,0.768c-0.004,0.037-0.006,0.07-0.01,0.108c-0.202,0.517-0.607,0.951-1.153,1.342l3.125,3.807l2.23-2.773l0.008,0.005l1.271-1.572l-3.416-2.032C20.611,30.758,19.997,30.915,19.714,31.389z"/><path d="M21.78,39.627c-0.189,0.234-0.473,0.371-0.774,0.373c-0.001,0-0.003,0-0.005,0c-0.299,0-0.583-0.134-0.773-0.365l-4.147-5.053c-0.615,0.275-1.283,0.545-1.986,0.823c-3.902,1.546-8.758,3.471-9.092,9.54L4.943,46H22.1v-0.4c0-3.699,2.4-7.8,2.4-7.8l-0.756-0.614L21.78,39.627z"/><path d="M45.057,46l-0.059-1.055c-0.334-6.091-5.203-8.014-9.114-9.558c-0.692-0.273-1.352-0.538-1.961-0.809l-4.149,5.056C29.583,39.866,29.299,40,29,40c-0.002,0-0.003,0-0.005,0c-0.301-0.002-0.586-0.139-0.774-0.373l-1.964-2.441L25.5,37.8c0,0,2.4,4,2.4,7.8V46H45.057z"/></g></svg>