<?xml version="1.0" encoding="iso-8859-1"?>
<!-- Generator: Adobe Illustrator 25.2.3, SVG Export Plug-In . SVG Version: 6.00 Build 0)  -->
<svg version="1.1" baseProfile="basic" id="fluent" xmlns="http://www.w3.org/2000/svg" xmlns:xlink="http://www.w3.org/1999/xlink"
	 x="0px" y="0px" viewBox="0 0 48 48" xml:space="preserve">
<circle style="fill:none;stroke:#000000;stroke-width:3;stroke-miterlimit:5;" cx="24" cy="14" r="8.5"/>
<path d="M25.13,29.54C25,30.02,24.97,30.52,25.04,31H11.98C11.44,31,11,31.44,11,31.98v1.52c0,4.48,5.45,7.03,11.29,7.44
	c-0.13,0.58-0.23,1.18-0.28,1.79l-0.1,1.09l-0.01,0.09C14.87,43.37,8,40.05,8,33.5v-1.52C8,29.79,9.79,28,11.98,28h14.07
	C25.62,28.42,25.3,28.95,25.13,29.54z"/>
<line style="fill:none;stroke:#000000;stroke-width:3;stroke-linecap:round;stroke-miterlimit:10;" x1="43.5" y1="30.5" x2="40.82" y2="35.325"/>
<line style="fill:none;stroke:#000000;stroke-width:3;stroke-linecap:round;stroke-miterlimit:10;" x1="28.5" y1="30.5" x2="31.18" y2="35.325"/>
<path d="M48.095,44H23.905l0.099-1.09C24.567,36.69,29.725,32,36,32s11.433,4.69,11.996,10.91L48.095,44z M30,41.375
	c0.759,0,1.375-0.616,1.375-1.375S30.759,38.625,30,38.625S28.625,39.241,28.625,40S29.241,41.375,30,41.375z M43.375,40
	c0-0.759-0.616-1.375-1.375-1.375S40.625,39.241,40.625,40s0.616,1.375,1.375,1.375S43.375,40.759,43.375,40z"/>
</svg>