<?xml version="1.0" encoding="iso-8859-1"?>
<!-- Generator: Adobe Illustrator 25.0.0, SVG Export Plug-In . SVG Version: 6.00 Build 0)  -->
<svg version="1.1" id="Layer_1" xmlns="http://www.w3.org/2000/svg" xmlns:xlink="http://www.w3.org/1999/xlink" x="0px" y="0px"
	 viewBox="0 0 48 48" style="enable-background:new 0 0 48 48;" xml:space="preserve">
<path d="M35,24c-6.075,0-11,4.925-11,11s4.925,11,11,11s11-4.925,11-11S41.075,24,35,24z M41.707,31.707l-8,8
	C33.512,39.902,33.256,40,33,40s-0.512-0.098-0.707-0.293l-4-4c-0.391-0.391-0.391-1.023,0-1.414s1.023-0.391,1.414,0L33,37.586
	l7.293-7.293c0.391-0.391,1.023-0.391,1.414,0S42.098,31.316,41.707,31.707z"/>
<path d="M24,24c-5.514,0-10-4.486-10-10S18.486,4,24,4s10,4.486,10,10S29.514,24,24,24z"/>
<path d="M22,35c0-2.58,0.761-4.978,2.057-7H12.5C10.019,28,8,30.019,8,32.5v1.2C8,39.476,15.028,44,24,44
	c0.537,0,1.065-0.018,1.587-0.05v0C23.37,41.618,22,38.472,22,35z"/>
</svg>