<?xml version="1.0" encoding="utf-8"?><!-- Generator: Adobe Illustrator 17.0.0, SVG Export Plug-In . SVG Version: 6.00 Build 0)  --><!DOCTYPE svg PUBLIC "-//W3C//DTD SVG 1.1//EN" "http://www.w3.org/Graphics/SVG/1.1/DTD/svg11.dtd"><svg xmlns="http://www.w3.org/2000/svg" xmlns:xlink="http://www.w3.org/1999/xlink" viewBox="0 0 50 50" width="500px" height="500px"><path fill="none" stroke="#000000" stroke-width="2" stroke-linecap="round" stroke-miterlimit="10" d="M29.933,36.528c-0.146-1.612-0.09-2.737-0.09-4.209c0.73-0.384,2.038-2.826,2.259-4.888c0.574-0.047,1.479-0.607,1.744-2.818c0.143-1.187-0.425-1.855-0.771-2.065c0.934-2.809,2.874-11.499-3.588-12.398c-0.665-1.168-2.368-1.759-4.581-1.759c-8.854,0.163-9.922,6.686-7.981,14.156c-0.345,0.21-0.913,0.878-0.771,2.065c0.266,2.211,1.17,2.771,1.744,2.818c0.22,2.062,1.58,4.504,2.312,4.888c0,1.473,0.055,2.598-0.091,4.209C18.367,41.239,6.546,39.916,6,49h38C43.455,39.916,31.685,41.239,29.933,36.528z"/><polyline fill="none" stroke="#000000" stroke-width="2" stroke-linecap="round" stroke-miterlimit="10" points="3.32,37 11,37 11,29.32 "/><path fill="none" stroke="#000000" stroke-width="2" stroke-linecap="round" stroke-miterlimit="10" d="M40.343,36.339C43.852,32.586,46,27.544,46,22c0-11.599-9.401-21-21-21S4,10.401,4,22c0,5.713,2.28,10.892,5.98,14.678"/></svg>