<?xml version="1.0" encoding="iso-8859-1"?><!-- Generator: Adobe Illustrator 22.1.0, SVG Export Plug-In . SVG Version: 6.00 Build 0)  --><svg xmlns="http://www.w3.org/2000/svg" xmlns:xlink="http://www.w3.org/1999/xlink" viewBox="0 0 24 24" width="384px" height="384px"><g id="Outlined"><circle style="fill:none;stroke:#000000;stroke-width:2;stroke-miterlimit:10;" cx="12" cy="7" r="3"/><path d="M20.146,16.854l2,2L17,24h-2v-2L20.146,16.854z M21.854,15.146l-1,1l2,2l1-1c0.195-0.195,0.195-0.512,0-0.707l-1.293-1.293C22.365,14.951,22.049,14.951,21.854,15.146z"/><path d="M15.172,19H5v-0.5c0-0.869,3.708-2.5,7-2.5c1.801,0,3.723,0.489,5.098,1.074l1.5-1.5C16.617,14.536,13.844,14,12,14c-3.141,0-9,1.545-9,4.5V21h10.172L15.172,19z"/></g></svg>