<?xml version="1.0" encoding="iso-8859-1"?>
<!-- Generator: Adobe Illustrator 28.7.1, SVG Export Plug-In . SVG Version: 9.03 Build 54978)  -->
<svg version="1.1" baseProfile="basic" id="Layer_1"
	 xmlns="http://www.w3.org/2000/svg" xmlns:xlink="http://www.w3.org/1999/xlink" x="0px" y="0px" viewBox="0 0 24 24"
	 xml:space="preserve">
<path d="M24,19c0,2.761-2.239,5-5,5s-5-2.239-5-5s2.239-5,5-5S24,16.239,24,19z M21.5,18.5h-2v-2c0-0.276-0.224-0.5-0.5-0.5
	s-0.5,0.224-0.5,0.5v2h-2c-0.276,0-0.5,0.224-0.5,0.5s0.224,0.5,0.5,0.5h2v2c0,0.276,0.224,0.5,0.5,0.5s0.5-0.224,0.5-0.5v-2h2
	c0.276,0,0.5-0.224,0.5-0.5S21.776,18.5,21.5,18.5z"/>
<path d="M12,11c2.206,0,4-1.794,4-4V6c0-2.206-1.794-4-4-4S8,3.794,8,6v1C8,9.206,9.794,11,12,11z"/>
<path d="M13,19c0-1.862,0.848-3.525,2.178-4.625c-0.334-0.13-0.678-0.252-1.042-0.356C14.092,14.006,14.046,14,14,14h-4
	c-0.046,0-0.092,0.006-0.137,0.019c-4.43,1.259-6.69,4.717-6.784,4.863C3.027,18.963,3,19.057,3,19.152V20.5
	C3,20.776,3.224,21,3.5,21h9.849C13.127,20.374,13,19.702,13,19z"/>
</svg>