<?xml version="1.0" encoding="iso-8859-1"?>
<!-- Generator: Adobe Illustrator 24.0.2, SVG Export Plug-In . SVG Version: 6.00 Build 0)  -->
<svg version="1.1" id="Layer_1_1_" xmlns="http://www.w3.org/2000/svg" xmlns:xlink="http://www.w3.org/1999/xlink" x="0px" y="0px"
	 viewBox="0 0 48 48" style="enable-background:new 0 0 48 48;" xml:space="preserve">
<circle style="fill:none;stroke:#000000;stroke-width:3;stroke-miterlimit:5;" cx="15" cy="12" r="8.5"/>
<polygon points="15,34 18,27.5 12,27.5 "/>
<polygon points="15,30 11,40 19,40 "/>
<path d="M22.207,37.244C20.039,38.43,17.22,39,14.5,39C8.961,39,3,36.653,3,31.5v-1.521C3,29.448,3.331,29,3.722,29h19.752
	c0.568-1.089,1.286-2.084,2.127-2.965C25.493,26.025,25.388,26,25.278,26H3.722C1.67,26,0,27.785,0,29.979V31.5
	c0,3.281,1.696,6.132,4.776,8.027C7.367,41.122,10.82,42,14.5,42c2.969,0,6.028-0.6,8.571-1.837
	C22.671,39.241,22.384,38.262,22.207,37.244z"/>
<path d="M35,24c-6.075,0-11,4.925-11,11c0,6.075,4.925,11,11,11s11-4.925,11-11C46,28.925,41.075,24,35,24z M42,36H28
	c-0.552,0-1-0.448-1-1s0.448-1,1-1h14c0.552,0,1,0.448,1,1S42.552,36,42,36z"/>
</svg>