<?xml version="1.0" encoding="iso-8859-1"?>
<!-- Generator: Adobe Illustrator 26.0.1, SVG Export Plug-In . SVG Version: 6.00 Build 0)  -->
<svg version="1.1" baseProfile="basic" id="Layer_1"
	 xmlns="http://www.w3.org/2000/svg" xmlns:xlink="http://www.w3.org/1999/xlink" x="0px" y="0px" viewBox="0 0 72 72"
	 xml:space="preserve">
<path d="M23.5,9c5.238,0,9.5,4.486,9.5,10s-4.262,10-9.5,10S14,24.514,14,19S18.262,9,23.5,9z"/>
<path d="M29.569,31.864c-5.067,4.095-7.682,9.993-3.724,15.136c0,0-9.957,0-13.276,0c-3.782,0-6.969-3.851-4.991-7.63
	C10.24,34.285,16.488,31,23.5,31C25.619,31,27.667,31.305,29.569,31.864z"/>
<path d="M60.313,39.572c-8.01-5.394-19.183-1.829-22.64,7.428c0,0-3.589,0.026-4.673,0c-3.789-0.09-6.489-4.282-4.427-8.006
	c2.78-5.02,9.134-8.159,16.115-7.991c6.846,0.165,12.885,3.441,15.529,8.387C60.25,39.45,60.282,39.511,60.313,39.572z"/>
<path d="M44.5,9c5.238,0,9.5,4.486,9.5,10s-4.262,10-9.5,10S35,24.514,35,19S39.262,9,44.5,9z"/>
<path id="overlay_00000049222644773419110400000014375142436854229139_" d="M51.746,41.062c6.058,0,10.969,4.911,10.969,10.969
	C62.715,58.089,57.804,63,51.746,63s-10.969-4.911-10.969-10.969C40.778,45.973,45.688,41.062,51.746,41.062z M56.371,54.031
	c1.104,0,2-0.896,2-2s-0.896-2-2-2c-0.656,0-2.625,0-2.625,0s0-1.969,0-2.625c0-1.104-0.896-2-2-2s-2,0.896-2,2
	c0,0.656,0,2.625,0,2.625s-1.969,0-2.625,0c-1.104,0-2,0.896-2,2s0.896,2,2,2c0.656,0,2.625,0,2.625,0s0,1.969,0,2.625
	c0,1.104,0.896,2,2,2s2-0.896,2-2c0-0.656,0-2.625,0-2.625S55.715,54.031,56.371,54.031z"/>
</svg>