<?xml version="1.0" encoding="iso-8859-1"?>
<!-- Generator: Adobe Illustrator 29.3.1, SVG Export Plug-In . SVG Version: 9.03 Build 55982)  -->
<svg version="1.1" baseProfile="basic" id="Layer_1"
	 xmlns="http://www.w3.org/2000/svg" xmlns:xlink="http://www.w3.org/1999/xlink" x="0px" y="0px" viewBox="0 0 24 24"
	 xml:space="preserve">
<path d="M11,8c0-1.657-1.343-3-3-3C6.343,5,5,6.343,5,8c0,0.261,0,0.739,0,1c0,1.657,1.343,3,3,3c1.657,0,3-1.343,3-3
	C11,8.739,11,8.261,11,8z"/>
<path d="M19,6c0-1.657-1.343-3-3-3c-1.657,0-3,1.343-3,3c0,0.261,0,0.739,0,1c0,1.657,1.343,3,3,3c1.657,0,3-1.343,3-3
	C19,6.739,19,6.261,19,6z"/>
<path d="M12,19c0-0.962,0.195-1.878,0.546-2.712L10,15H6l-5,2.53V20h11.08C12.033,19.673,12,19.34,12,19z"/>
<path d="M24,19c0,2.761-2.239,5-5,5s-5-2.239-5-5s2.239-5,5-5S24,16.239,24,19z M22,18.25h-2.25V16h-1.5v2.25H16v1.5h2.25V22h1.5
	v-2.25H22V18.25z"/>
</svg>