<?xml version="1.0" encoding="iso-8859-1"?>
<!-- Generator: Adobe Illustrator 26.0.1, SVG Export Plug-In . SVG Version: 6.00 Build 0)  -->
<svg version="1.1" baseProfile="basic" id="Layer_1"
	 xmlns="http://www.w3.org/2000/svg" xmlns:xlink="http://www.w3.org/1999/xlink" x="0px" y="0px" viewBox="0 0 64 64"
	 xml:space="preserve">
<path d="M32,31c-5.514,0-10-4.71-10-10.5S26.486,10,32,10s10,4.71,10,10.5S37.514,31,32,31z"/>
<path d="M41.945,36.501C36.394,39.43,33.67,45.925,35.634,52H17.055c-3.167,0-5.413-3.161-4.31-6.135
	c2.601-7.011,10.23-11.723,18.985-11.723C35.438,34.143,38.938,34.995,41.945,36.501z"/>
<path id="overlay_00000088110348365210363670000012412507198753409465_" d="M48,38c5.523,0,10,4.477,10,10s-4.477,10-10,10
	s-10-4.477-10-10S42.477,38,48,38z M52.854,45.039c0.273-0.421,0.153-0.984-0.269-1.257c-0.423-0.273-0.985-0.153-1.258,0.269
	l-4.413,6.812l-2.323-2.64c-0.332-0.377-0.906-0.414-1.283-0.082c-0.377,0.332-0.414,0.906-0.082,1.283l3.116,3.541
	c0.174,0.197,0.423,0.309,0.683,0.309c0.022,0,0.044-0.001,0.067-0.002c0.284-0.021,0.542-0.174,0.696-0.412L52.854,45.039z"/>
</svg>