<?xml version="1.0" encoding="iso-8859-1"?><!-- Generator: Adobe Illustrator 19.1.1, SVG Export Plug-In . SVG Version: 6.00 Build 0)  --><svg xmlns="http://www.w3.org/2000/svg" xmlns:xlink="http://www.w3.org/1999/xlink" viewBox="0 0 50 50" width="500px" height="500px"><g><g><path d="M19.1,43.6c0-3.7,2.4-7.8,2.4-7.8l-1.6-1.3c0-1.2,2.1-3.054,2.1-3.054s1.672,0.476,2.666,2.454L22.5,35.8c0,0,2.4,4,2.4,7.8H19.1z"/></g></g><path d="M26.015,29.026L22,31.256l-4.015-2.23c-0.482-0.269-1.091-0.094-1.359,0.388c-0.269,0.483-0.095,1.092,0.389,1.36L22,33.544l3.587-1.993c0.444-0.851,0.967-1.654,1.57-2.392C26.848,28.886,26.394,28.814,26.015,29.026z"/><polyline style="fill:none;stroke:#000000;stroke-width:2;stroke-linecap:round;stroke-linejoin:round;stroke-miterlimit:10;" points="21.7,32.4 18,37 14.7,33 "/><path style="fill:none;stroke:#000000;stroke-width:2;stroke-miterlimit:10;" d="M38,49c-6.066,0-11-4.935-11-11s4.934-11,11-11s11,4.935,11,11S44.066,49,38,49z"/><path d="M24.59,42H4.122c0.734-3.972,4.275-5.375,7.708-6.736c2.737-1.084,5.322-2.109,6.116-4.442l0.046-0.198c0.157-1.258,0.14-2.223,0.12-3.245c-0.006-0.344-0.013-0.699-0.013-1.08l-0.063-0.562l-0.428-0.298c-0.391-0.272-1.635-2.268-1.813-4.134l-0.013-0.896h-0.909c-0.142-0.055-0.589-0.53-0.777-1.892c-0.069-0.839,0.359-1.185,0.358-1.185l0.59-0.392l-0.174-0.686c-1.162-4.585-1.002-7.768,0.49-9.73C16.579,4.921,18.82,4.072,22,4c1.892,0,3.253,0.475,3.735,1.303l0.244,0.419l0.48,0.067c1.378,0.194,2.333,0.761,2.921,1.733c1.283,2.12,0.628,5.979-0.322,8.641l-0.316,0.824l0.793,0.396c0.089,0.063,0.329,0.408,0.269,1.125C29.669,19.988,29.2,20.382,29.1,20.4h-0.867l-0.123,0.859c-0.274,1.925-1.428,3.899-1.806,4.173L25.8,25.719V26.3c0,1.528,0,2.631,0.103,4.263l0.063,0.294c0.002,0.005,0.005,0.01,0.007,0.014c0.525-0.883,1.142-1.702,1.842-2.446c-0.011-0.545-0.014-1.081-0.014-1.672c0.868-0.913,1.787-2.826,2.171-4.562c0.717-0.339,1.617-1.223,1.825-3.508c0.095-1.125-0.214-1.951-0.639-2.485c0.66-2.07,1.778-6.663-0.064-9.71c-0.838-1.385-2.152-2.259-3.911-2.604C26.217,2.665,24.4,2,21.979,2h-0.001c-3.842,0.086-6.604,1.201-8.21,3.313c-1.817,2.391-2.136,5.954-0.972,10.882c-0.412,0.531-0.784,1.38-0.688,2.54c0.296,2.164,1.12,3.053,1.79,3.417c0.337,1.802,1.32,3.709,2.204,4.611c0.003,0.224,0.007,0.441,0.011,0.654c0.018,0.957,0.033,1.787-0.092,2.85c-0.549,1.403-2.581,2.209-4.928,3.139c-3.902,1.546-8.759,3.471-9.092,9.541L1.943,44H25.37C25.063,43.357,24.797,42.692,24.59,42z"/><line style="fill:none;stroke:#000000;stroke-width:2;stroke-miterlimit:10;" x1="44" y1="38" x2="32" y2="38"/></svg>