<?xml version="1.0" encoding="utf-8"?><!-- Generator: Adobe Illustrator 15.0.0, SVG Export Plug-In . SVG Version: 6.00 Build 0)  --><!DOCTYPE svg PUBLIC "-//W3C//DTD SVG 1.1//EN" "http://www.w3.org/Graphics/SVG/1.1/DTD/svg11.dtd"><svg xmlns="http://www.w3.org/2000/svg" xmlns:xlink="http://www.w3.org/1999/xlink" viewBox="0 0 50 50" width="50px" height="50px"><path d="M37.583,26C31.154,26,27,21.682,27,15v-2.461C26.594,12.311,25.878,12,25,12c-0.883,0-1.596,0.31-2,0.537V15c0,6.682-4.154,11-10.583,11C5.468,26,1.241,21.761,1.01,14.623l-0.457-0.229C0.214,14.225,0,13.879,0,13.5V12c0-0.418,0.261-0.793,0.653-0.938C0.881,10.978,6.295,9,12,9c4.684,0,8.53,1.333,9.89,1.871C22.502,10.508,23.608,10,25,10s2.497,0.508,3.109,0.871C29.471,10.333,33.316,9,38,9c5.705,0,11.119,1.978,11.347,2.062C49.739,11.207,50,11.582,50,12v1.5c0,0.379-0.214,0.725-0.553,0.895l-0.457,0.229C48.759,21.761,44.532,26,37.583,26z"/><path d="M34.458,41c-4.144,0-7.511-1.745-9.458-3.488C23.053,39.255,19.686,41,15.542,41C8.799,41,7,36.914,7,34.5c0-2.572,2.3-4.223,2.398-4.292c0.343-0.242,0.798-0.245,1.144-0.006c0.345,0.237,0.505,0.665,0.401,1.071c-0.003,0.013-0.413,1.726,0.417,2.784C11.85,34.683,12.738,35,14,35c1.771,0,2.523-1.212,3.552-3.208C18.467,30.015,19.505,28,22,28c1.208,0,2.344,0.491,2.997,0.839C25.648,28.488,26.776,28,28,28c2.494,0,3.532,2.015,4.448,3.792C33.477,33.788,34.229,35,36,35c1.266,0,2.156-0.319,2.646-0.949c0.82-1.058,0.415-2.761,0.411-2.777c-0.104-0.406,0.057-0.834,0.401-1.071c0.346-0.238,0.802-0.236,1.144,0.006C40.699,30.277,43,31.928,43,34.5C43,36.914,41.201,41,34.458,41z"/></svg>