<?xml version="1.0" encoding="utf-8"?><!-- Generator: Adobe Illustrator 21.1.0, SVG Export Plug-In . SVG Version: 6.00 Build 0)  --><svg xmlns="http://www.w3.org/2000/svg" xmlns:xlink="http://www.w3.org/1999/xlink" viewBox="0 0 128 128" width="512px" height="512px"><path d="M87,50c0-12.7-10.3-23-23-23S41,37.3,41,50s10.3,23,23,23S87,62.7,87,50z M47,50c0-9.4,7.6-17,17-17s17,7.6,17,17s-7.6,17-17,17S47,59.4,47,50z"/><path d="M39.7,91.5c0.8,1.4,2.7,1.9,4.1,1C49.9,88.9,56.9,87,64,87c9.8,0,19.2,3.6,26.4,10.1c0.6,0.5,1.3,0.8,2,0.8c0.8,0,1.6-0.3,2.2-1c1.1-1.2,1-3.1-0.2-4.2C86.1,85.1,75.3,81,64,81c-8.2,0-16.3,2.2-23.3,6.4C39.3,88.2,38.8,90.1,39.7,91.5z"/><path d="M23,23C6,39.9,1.2,65.1,10.8,87.1c0.5,1.1,1.6,1.8,2.8,1.8c0.4,0,0.8-0.1,1.2-0.2c1.5-0.7,2.2-2.4,1.6-3.9C7.7,65,12,42.4,27.2,27.2C45.9,8.5,75.5,7.1,95.9,22.9l-5.3,0.6c-1.6,0.2-2.8,1.7-2.6,3.3c0.2,1.5,1.5,2.6,3,2.6c0.1,0,0.2,0,0.4,0l12-1.4c1.6-0.2,2.7-1.6,2.6-3.2l0-0.2c0-0.1,0-0.3,0-0.4l-0.6-10.7c-0.1-1.7-1.5-2.9-3.2-2.8c-1.7,0.1-2.9,1.5-2.8,3.2l0.2,4.1C76.7,0.5,43.8,2.1,23,23z"/><path d="M32.1,105.1l5.3-0.6c1.6-0.2,2.8-1.7,2.6-3.3c-0.2-1.6-1.7-2.8-3.3-2.6l-12,1.4c-1.6,0.2-2.7,1.6-2.6,3.2l0,0.2c0,0.1,0,0.3,0,0.4l0.6,10.7c0.1,1.6,1.4,2.8,3,2.8c0.1,0,0.1,0,0.2,0c1.7-0.1,2.9-1.5,2.8-3.2l-0.2-4.1C38.9,117.9,51.5,122,64,122c14.9,0,29.7-5.7,41-17c17.1-17.1,21.8-42.3,12.1-64.4c-0.7-1.5-2.4-2.2-4-1.5c-1.5,0.7-2.2,2.4-1.5,4c8.7,19.8,4.5,42.5-10.8,57.8C82.1,119.5,52.5,120.9,32.1,105.1z"/></svg>