<?xml version="1.0" encoding="iso-8859-1"?><!-- Generator: Adobe Illustrator 21.1.0, SVG Export Plug-In . SVG Version: 6.00 Build 0)  --><svg xmlns="http://www.w3.org/2000/svg" xmlns:xlink="http://www.w3.org/1999/xlink" viewBox="0 0 64 64" width="512px" height="512px"><g><path d="M59.337,51.071l-7.846-3.901c0.553-0.932,1.011-1.924,1.351-2.925c0.852-0.396,1.588-1.413,1.953-2.774c0.544-2.033-0.002-3.761-1.298-4.108c-0.023-0.006-0.048-0.012-0.073-0.018c-0.082-0.497-0.21-0.99-0.402-1.564c0.087,0.027,0.172,0.058,0.25,0.09c0.346,0.144,0.74,0.084,1.025-0.155c0.286-0.239,0.416-0.617,0.336-0.981c-0.667-3.049-2.306-5.347-4.638-6.687c0-0.01,0.005-0.017,0.005-0.027V7c0-1.654-1.346-3-3-3H17.657c-1.336,0-2.592,0.52-3.536,1.464l-8.656,8.657C4.521,15.066,4,16.322,4,17.657V57c0,1.654,1.346,3,3,3h20.038c0.145,0,0.28-0.034,0.405-0.089C27.621,59.963,27.805,60,28,60h32.11c1.103,0,2-0.897,2-2v-2.452C62.11,53.637,61.048,51.921,59.337,51.071z M52.232,33.662c-0.366,0.031-0.716,0.152-0.995,0.42c-0.267,0.255-0.656,0.839-0.273,1.877c0.393,1.067,0.532,1.694,0.574,2.58c0.017,0.358,0.253,0.664,0.572,0.827c0.25,0.129,0.556,0.133,0.821,0.037c0.076,0.271,0.129,0.813-0.068,1.55c-0.262,0.975-0.733,1.432-0.809,1.472c-0.001,0-0.001,0-0.002,0c-0.442,0-0.833,0.291-0.959,0.715c-1.046,3.521-3.887,7.262-7.094,7.262s-6.048-3.742-7.094-7.262c-0.126-0.424-0.459-0.708-0.901-0.708c-0.001,0-0.001,0-0.002,0c-0.133-0.048-0.604-0.504-0.866-1.479c-0.195-0.73-0.146-1.27-0.07-1.543c0.272,0.118,0.585,0.108,0.853-0.028c0.318-0.164,0.526-0.485,0.543-0.843c0.016-0.327,0.052-0.654,0.107-0.973c0.059-0.333,0.014-0.688-0.049-1.182c-0.093-0.723-0.231-1.816-0.082-3.313c0.193-1.937,1.27-3.048,2.966-3.048c0.216,0,0.427-0.07,0.6-0.2c0.836-0.626,2.591-1.117,3.996-1.117h0.658C48.316,28.707,51.007,30.491,52.232,33.662z M6.879,15.535l8.656-8.657c0.144-0.144,0.299-0.27,0.465-0.38V15c0,0.551-0.448,1-1,1H6.499C6.609,15.835,6.735,15.679,6.879,15.535z M26,55.548V58H7c-0.552,0-1-0.449-1-1V18h9c1.654,0,3-1.346,3-3V6h29c0.552,0,1,0.449,1,1v20.188c-1.028-0.312-2.145-0.481-3.342-0.481H44c-1.431,0-3.52,0.417-4.921,1.325c-2.545,0.141-4.349,2.01-4.631,4.841c-0.172,1.723-0.01,3.001,0.088,3.765c0.029,0.231,0.066,0.52,0.064,0.582c-0.008,0.042-0.015,0.083-0.021,0.125c-0.026,0.006-0.052,0.012-0.076,0.019c-1.296,0.347-1.842,2.075-1.298,4.108c0.365,1.361,1.102,2.378,1.953,2.773c0.345,1.016,0.811,2.024,1.375,2.968l-7.76,3.859C27.062,51.921,26,53.637,26,55.548z M40.18,58H28v-2.452c0-1.146,0.638-2.176,1.664-2.686l8.028-3.992c1.054,1.304,2.318,2.362,3.721,2.969L40.18,58z M42.22,58l1-5h1.561l1,5H42.22z M60.11,58H47.82l-1.233-6.161c1.417-0.613,2.693-1.686,3.754-3.008l8.106,4.031c1.026,0.51,1.664,1.54,1.664,2.686V58z"/><path d="M41.008,32.217c-0.746-0.363-1.654-0.115-2.11,0.579l-1.055,1.602c-0.304,0.461-0.177,1.081,0.285,1.385c0.169,0.112,0.36,0.165,0.549,0.165c0.325,0,0.644-0.158,0.836-0.45l0.89-1.351l0.759,0.37c1.922,0.937,4.067,1.431,6.204,1.431h1.682c0.553,0,1-0.448,1-1s-0.447-1-1-1h-1.682c-1.835,0-3.678-0.425-5.328-1.229L41.008,32.217z"/><path d="M33,24h4c0.553,0,1-0.448,1-1s-0.447-1-1-1h-4c-0.553,0-1,0.448-1,1S32.447,24,33,24z"/><path d="M15,24h14c0.553,0,1-0.448,1-1s-0.447-1-1-1H15c-0.553,0-1,0.448-1,1S14.447,24,15,24z"/><path d="M15,28h16c0.553,0,1-0.448,1-1s-0.447-1-1-1H15c-0.553,0-1,0.448-1,1S14.447,28,15,28z"/><path d="M25,36H15c-0.553,0-1,0.448-1,1s0.447,1,1,1h10c0.553,0,1-0.448,1-1S25.553,36,25,36z"/><path d="M30,33c0-0.552-0.447-1-1-1H15c-0.553,0-1,0.448-1,1s0.447,1,1,1h14C29.553,34,30,33.552,30,33z"/><path d="M9,50c-0.553,0-1,0.448-1,1v2c0,0.552,0.447,1,1,1s1-0.448,1-1v-2C10,50.448,9.553,50,9,50z"/><path d="M14,50c-0.553,0-1,0.448-1,1v2c0,0.552,0.447,1,1,1s1-0.448,1-1v-2C15,50.448,14.553,50,14,50z"/><path d="M19,50c-0.553,0-1,0.448-1,1v2c0,0.552,0.447,1,1,1s1-0.448,1-1v-2C20,50.448,19.553,50,19,50z"/><path d="M24,50c-0.553,0-1,0.448-1,1v2c0,0.552,0.447,1,1,1s1-0.448,1-1v-2C25,50.448,24.553,50,24,50z"/></g></svg>