<?xml version="1.0" encoding="iso-8859-1"?>
<!-- Generator: Adobe Illustrator 25.2.3, SVG Export Plug-In . SVG Version: 6.00 Build 0)  -->
<svg version="1.1" baseProfile="basic" id="fluent" xmlns="http://www.w3.org/2000/svg" xmlns:xlink="http://www.w3.org/1999/xlink"
	 x="0px" y="0px" viewBox="0 0 50 50" xml:space="preserve">
<path d="M33.85,19.61c-0.27,2.21-1.17,2.77-1.75,2.82c-0.22,2.06-1.53,4.5-2.26,4.89c0,1.01-0.02,1.86,0.01,2.81
	C29.58,30.04,29.29,30,29,30c-0.51,0-1.01,0.13-1.46,0.38c-0.7,0.39-1.2,1.02-1.42,1.8c-0.22,0.77-0.13,1.58,0.26,2.28l1.07,1.93
	c-2.4,1.97-4.12,4.61-4.94,7.61H6c0.55-9.08,12.37-7.76,14.12-12.47c0.15-1.61,0.09-2.74,0.09-4.21c-0.73-0.39-2.09-2.83-2.31-4.89
	c-0.58-0.05-1.48-0.61-1.75-2.82c-0.14-1.19,0.43-1.85,0.78-2.06c-1.95-7.47-0.88-14,7.98-14.16c2.21,0,3.91,0.59,4.58,1.76
	c6.46,0.9,4.52,9.59,3.59,12.4C33.42,17.76,33.99,18.42,33.85,19.61z"/>
<line style="fill:none;stroke:#000000;stroke-width:2;stroke-linecap:round;stroke-miterlimit:10;" x1="45" y1="33" x2="42.639" y2="37.25"/>
<line style="fill:none;stroke:#000000;stroke-width:2;stroke-linecap:round;stroke-miterlimit:10;" x1="29" y1="33" x2="31.361" y2="37.25"/>
<path d="M50.094,48H23.906l0.098-1.089C24.613,40.121,30.201,35,37,35s12.387,5.121,12.996,11.911L50.094,48z M31,44.25
	c0.69,0,1.25-0.56,1.25-1.25s-0.56-1.25-1.25-1.25s-1.25,0.56-1.25,1.25S30.31,44.25,31,44.25z M44.25,43
	c0-0.69-0.56-1.25-1.25-1.25s-1.25,0.56-1.25,1.25s0.56,1.25,1.25,1.25S44.25,43.69,44.25,43z"/>
</svg>