<?xml version="1.0" encoding="iso-8859-1"?><!-- Generator: Adobe Illustrator 22.0.1, SVG Export Plug-In . SVG Version: 6.00 Build 0)  --><svg xmlns="http://www.w3.org/2000/svg" xmlns:xlink="http://www.w3.org/1999/xlink" viewBox="0 0 80 80" width="480px" height="480px"><path d="M45,42c0,0.551-0.449,1-1,1c-0.551,0-1-0.449-1-1c0-0.551,0.449-1,1-1C44.551,41,45,41.449,45,42L45,42z"/><path d="M39,42c0,0.551-0.449,1-1,1c-0.551,0-1-0.449-1-1c0-0.551,0.449-1,1-1C38.551,41,39,41.449,39,42L39,42z"/><path style="fill:none;stroke:#000000;stroke-width:2;stroke-miterlimit:10;" d="M48.75,40c-0.086,0-0.395,0.164-0.75,0.375v-1.793c0-3.684-2.918-4.668-2.918-4.668s-1.824,1.75-5.832,1.75c-1.777,0-5.16,1.352-5.242,4.582c-0.36-0.211-0.672-0.379-0.758-0.379c-0.691,0-1.25,0.535-1.25,1.199c0,0.485,0.418,1.52,0.418,1.801c0,0.551,0.465,1,1.043,1h0.551c0.109,3.336,2.554,6.078,5.754,6.649C40.094,50.812,40.523,51,41,51c0.477,0,0.906-0.188,1.234-0.484c3.161-0.563,5.579-3.239,5.75-6.516h0.555c0.578,0,1.043-0.449,1.043-1c0-0.277,0.418-1.316,0.418-1.801C50,40.535,49.441,40,48.75,40L48.75,40z M49.691,40.332c0,0,0.309-3.406,0.309-5.332c0-3.801-3.215-5-5-5c0,0-1.152-2-4.723-2C34.672,28,30,33,30,33s2,1.215,2,3.926c0,2.043,0.297,3.09,0.297,3.09"/><circle style="fill:none;stroke:#000000;stroke-width:2;stroke-miterlimit:10;" cx="41" cy="40" r="19"/><path style="fill:none;stroke:#000000;stroke-width:2;stroke-miterlimit:10;" d="M36.43,50.343c0,0-4.801,1.277-8.18,3.382"/><path style="fill:none;stroke:#000000;stroke-width:2;stroke-miterlimit:10;" d="M53.789,53.749c-3.381-2.12-8.219-3.407-8.219-3.407"/><path style="fill:none;stroke:#000000;stroke-width:2;stroke-miterlimit:10;" d="M45,49v3.988c0,0-1.145,1.996-4,1.996s-4-1.996-4-1.996V49"/><circle style="fill:none;stroke:#000000;stroke-width:2;stroke-miterlimit:10;" cx="16" cy="12" r="5"/><circle style="fill:none;stroke:#000000;stroke-width:2;stroke-miterlimit:10;" cx="68" cy="17" r="5"/><circle style="fill:none;stroke:#000000;stroke-width:2;stroke-miterlimit:10;" cx="13" cy="62" r="5"/><circle style="fill:none;stroke:#000000;stroke-width:2;stroke-miterlimit:10;" cx="58" cy="68" r="5"/><line style="fill:none;stroke:#000000;stroke-width:2;stroke-linecap:round;stroke-linejoin:round;stroke-miterlimit:10;stroke-dasharray:0,4;" x1="18.75" y1="57.5" x2="25.743" y2="52"/><line style="fill:none;stroke:#000000;stroke-width:2;stroke-linecap:round;stroke-linejoin:round;stroke-miterlimit:10;stroke-dasharray:0,4;" x1="19.25" y1="16.25" x2="27.75" y2="25.836"/><line style="fill:none;stroke:#000000;stroke-width:2;stroke-linecap:round;stroke-linejoin:round;stroke-miterlimit:10;stroke-dasharray:0,4;" x1="63" y1="21.25" x2="55.667" y2="27.5"/><path style="fill:none;stroke:#000000;stroke-width:2;stroke-linecap:round;stroke-linejoin:round;stroke-miterlimit:10;stroke-dasharray:0,4;" d="M51.75,58.25l3.25,5"/></svg>