<?xml version="1.0" encoding="iso-8859-1"?>
<!-- Generator: Adobe Illustrator 22.1.0, SVG Export Plug-In . SVG Version: 6.00 Build 0)  -->
<svg version="1.1" id="Layer_1" xmlns="http://www.w3.org/2000/svg" xmlns:xlink="http://www.w3.org/1999/xlink" x="0px" y="0px"
	 viewBox="0 0 50 50" style="enable-background:new 0 0 50 50;" xml:space="preserve">
<line style="fill:none;stroke:#000000;stroke-width:2;stroke-linecap:round;stroke-linejoin:round;stroke-miterlimit:10;" x1="26" y1="44.667" x2="26" y2="33"/>
<circle style="fill:none;stroke:#000000;stroke-width:2;stroke-linecap:round;stroke-linejoin:round;stroke-miterlimit:10;" cx="26" cy="7" r="4"/>
<path style="fill:none;stroke:#000000;stroke-width:2;stroke-linecap:round;stroke-linejoin:round;stroke-miterlimit:10;" d="
	M26,44.5c0,1.381,1.119,2.5,2.5,2.5s2.5-1.119,2.5-2.5V20"/>
<path style="fill:none;stroke:#000000;stroke-width:2;stroke-linejoin:round;stroke-miterlimit:10;" d="M15,8.375
	c0,0,1.597,0.712,1.706,0.753c1.124,0.429,1.608,1.717,1.083,2.766l-2.091,4.181l5.26-0.975c0.361-0.067,0.727-0.1,1.093-0.1h7.877
	c1.857,0,3.638,0.738,4.951,2.051l4.535,4.535c0.685,0.685,0.781,1.762,0.227,2.557l-4.874,6.999C34.378,31.701,33.756,32,33.123,32
	c-0.51,0-1.027-0.194-1.432-0.604c-0.689-0.697-0.708-1.82-0.148-2.624l3.859-5.541L31,20"/>
<path style="fill:none;stroke:#000000;stroke-width:2;stroke-linejoin:round;stroke-miterlimit:10;" d="M26,44.5
	c0,1.466-1.261,2.637-2.757,2.487C21.941,46.857,21,45.666,21,44.358V20c0,0-8.848,1-9,1c-0.604,0-1.185-0.273-1.568-0.76
	c-0.481-0.608-0.567-1.44-0.221-2.135l3.949-7.898"/>
<polyline style="fill:none;stroke:#000000;stroke-width:2;stroke-linecap:round;stroke-linejoin:round;stroke-miterlimit:10;" points="
	16.264,6 16.264,6 14.16,10.207 "/>
</svg>