<?xml version="1.0" encoding="iso-8859-1"?><!-- Generator: Adobe Illustrator 19.1.0, SVG Export Plug-In . SVG Version: 6.00 Build 0)  --><svg xmlns="http://www.w3.org/2000/svg" xmlns:xlink="http://www.w3.org/1999/xlink" viewBox="0 0 50 50" width="500px" height="500px"><path style="fill:none;stroke:#000000;stroke-width:2;stroke-linejoin:round;stroke-miterlimit:10;" d="M22,12c0,0.003,0,2.997,0,3c0,5.414-3.024,10-9.583,10C4.946,25,2,20.08,2,14l-1-0.5V12c0,0,5.408-2,11-2S22,12,22,12s1.216-1,3-1s3,1,3,1s4.408-2,10-2s11,2,11,2v1.5L48,14c0,6.08-2.946,11-10.417,11C31.024,25,28,20.414,28,15c0-0.003,0-2.997,0-3"/><path style="fill:none;stroke:#000000;stroke-width:2;stroke-linecap:round;stroke-linejoin:round;stroke-miterlimit:10;" d="M25,36.104C23.303,37.998,19.792,40,15.542,40C9.542,40,8,36.5,8,34.5c0-2.083,1.974-3.474,1.974-3.474S8.702,36,14,36c4.789,0,4.042-7,8-7c1.541,0,3,1,3,1c0,0,1.46-1,3-1c3.958,0,3.21,7,8,7c5.298,0,4.026-4.974,4.026-4.974S42,32.417,42,34.5c0,2-1.542,5.5-7.542,5.5C30.208,40,26.697,37.998,25,36.104z"/></svg>