<?xml version="1.0" encoding="iso-8859-1"?><!-- Generator: Adobe Illustrator 21.1.0, SVG Export Plug-In . SVG Version: 6.00 Build 0)  --><svg xmlns="http://www.w3.org/2000/svg" xmlns:xlink="http://www.w3.org/1999/xlink" viewBox="0 0 50 50" width="500px" height="500px"><g></g><polygon style="fill:none;stroke:#000000;stroke-width:2;stroke-linejoin:round;stroke-miterlimit:10;" points="5,4 37,4 37,38 5,38 5,24.589 "/><polyline style="fill:none;stroke:#000000;stroke-width:2;stroke-linejoin:round;stroke-miterlimit:10;" points="37.125,8 41,8 41,42 9,42 9,38.25 "/><polyline style="fill:none;stroke:#000000;stroke-width:2;stroke-linejoin:round;stroke-miterlimit:10;" points="41.125,12 45,12 45,46 13,46 13,42 "/><path style="fill:none;stroke:#000000;stroke-width:2;stroke-linecap:round;stroke-miterlimit:10;" d="M32,33c-0.364-5.305-7-4-8-7c0-1,0-2.116,0-3c0.364-0.253,0.879-1.737,1-3c0.375-0.125,1-0.125,1-1.5c0-0.875-0.258-1.124-0.5-1.25c0.49-1.711,1.5-6.875-2-7.25c-0.364-0.505-1.288-1-2.5-1c-5.089,0.126-5.625,4-4.5,8.25c-0.242,0.126-0.5,0.617-0.5,1.375c0,1.25,0.625,1.25,1,1.375c0.121,1.263,0.515,2.747,1,3c0,0.884,0,1.989,0,3c-1,3-7.636,1.695-8,7H32z"/></svg>