<?xml version="1.0" encoding="iso-8859-1"?><!-- Generator: Adobe Illustrator 19.1.0, SVG Export Plug-In . SVG Version: 6.00 Build 0)  --><svg xmlns="http://www.w3.org/2000/svg" xmlns:xlink="http://www.w3.org/1999/xlink" viewBox="0 0 50 50" width="500px" height="500px"><g><path d="M38.733,22.17C37.233,13.854,32.655,8,30,8c-1.328,0-2.265,0.626-3.09,1.179C26.225,9.638,25.684,10,25.002,10c-0.689,0-1.273-0.387-1.948-0.833C22.229,8.62,21.293,8,20,8c-1.869,0-4.532,2.468-6.512,6.713l1.506,1.506C16.824,11.979,19.246,10,20,10c0.69,0,1.274,0.387,1.949,0.834C22.774,11.381,23.71,12,25.002,12c1.289,0,2.209-0.616,3.021-1.159C28.697,10.39,29.279,10,30,10c1.022,0,4.221,3.35,6.007,9.326c-0.011,0.094-0.087,0.222-0.225,0.36C34.457,21.009,29.86,22,25.069,22c-0.022,0-0.045,0-0.067,0c-1.652-0.003-3.176-0.12-4.533-0.307l2.228,2.228c0.798,0.052,1.574,0.078,2.302,0.079c0.023,0,0.046,0,0.069,0c4.197,0,9.146-0.746,11.51-2.397c0.165,0.781,0.312,1.586,0.42,2.437c-0.021,0.152-0.157,0.317-0.273,0.434c-1.383,1.379-6.009,2.427-10.957,2.518l1.921,1.921c4.275-0.278,8.662-1.24,10.448-3.023c0.599-0.596,0.792-1.181,0.842-1.633C44.836,25.454,47,27.121,47,28c0,1.685-5.865,3.995-15.477,4.748l6.558,6.558c0.853-2.101,1.424-4.39,1.708-5.685C45.214,32.459,49,30.573,49,28C49,24.822,43.554,23.086,38.733,22.17z"/><path d="M33.994,38.047c-0.472,1.212-1.438,2.408-3.37,2.051c-1.651-0.306-2.813-1.25-2.813-2.045c0-0.602,2.264-1.223,4.514-1.675l-3.469-3.469C27.616,32.963,26.34,33,25,33c-13.43,0-22-2.961-22-5c0-0.88,2.168-2.548,8.037-3.747c0.385,3.442,8.419,4.728,13.91,4.746l-2.064-2.064c-6.013-0.334-9.782-1.972-9.881-2.898c0.097-0.878,0.233-1.697,0.386-2.488c1.404,0.99,3.7,1.642,6.132,2.023l-2.627-2.627c-1.835-0.545-2.909-1.188-2.909-1.643c0-0.058-0.023-0.109-0.033-0.165c0.085-0.298,0.177-0.582,0.27-0.865l-1.56-1.56c-0.599,1.634-1.096,3.458-1.421,5.462C6.425,23.093,1,24.828,1,28c0,2.567,3.769,4.45,9.174,5.612C10.685,36.427,12.372,44,15.743,44c4.803,0,6.458-3.478,9.07-3.478c2.612,0,4.807,3.478,9.07,3.478c1.308,0,2.403-1.18,3.291-2.774L33.994,38.047z M18.429,40.098c-3.294,0.61-3.792-3.302-3.792-4.098c2.65,0.428,6.605,1.257,6.605,2.053C21.242,38.848,20.08,39.792,18.429,40.098z"/></g><line style="fill:none;stroke:#000000;stroke-width:2;stroke-linecap:round;stroke-linejoin:round;stroke-miterlimit:10;" x1="2.846" y1="2.846" x2="47.154" y2="47.154"/></svg>