<?xml version="1.0" encoding="iso-8859-1"?><!-- Generator: Adobe Illustrator 23.0.3, SVG Export Plug-In . SVG Version: 6.00 Build 0)  --><svg xmlns="http://www.w3.org/2000/svg" xmlns:xlink="http://www.w3.org/1999/xlink" viewBox="0 0 50 50" width="500px" height="500px"><g id="&#x421;&#x43B;&#x43E;&#x439;_1" style="display:none;"></g><g id="ref"></g><g id="&#x421;&#x43B;&#x43E;&#x439;_3"></g><g id="Layer_4"><path style="fill:none;stroke:#000000;stroke-width:2;stroke-linecap:round;stroke-miterlimit:10;" d="M5,11v32c0,1.105,0.895,2,2,2h36c1.105,0,2-0.895,2-2V11"/><circle cx="8" cy="8" r="1"/><circle cx="11" cy="8" r="1"/><circle cx="14" cy="8" r="1"/><path style="fill:none;stroke:#000000;stroke-width:2;stroke-miterlimit:10;" d="M5,11V7c0-1.105,0.895-2,2-2h36c1.105,0,2,0.895,2,2v4H5z"/><g><g><path d="M32.419,23.358l-2.121-0.707l-0.707-2.121l3.996-3.996c-2.23-1.064-4.978-0.679-6.824,1.168c-2.343,2.343-2.343,6.142,0,8.485s6.142,2.343,8.485,0c1.846-1.846,2.231-4.595,1.168-6.824L32.419,23.358z"/><path d="M17.268,39.268l12.374-12.374l-3.536-3.536L13.732,35.732c-0.976,0.976-0.976,2.559,0,3.536l0,0C14.709,40.244,16.291,40.244,17.268,39.268z"/></g><polygon points="17.536,21.95 16.121,21.95 14,18.414 15.414,17 18.95,19.121 18.95,20.536 "/><rect x="16.632" y="24.132" transform="matrix(0.7071 0.7071 -0.7071 0.7071 24.253 -8.2886)" width="11" height="2"/><path d="M33.586,39.414l-6.5-6.5l2.828-2.828l6.5,6.5c0.781,0.781,0.781,2.047,0,2.828l0,0C35.633,40.195,34.367,40.195,33.586,39.414z"/></g></g></svg>