<?xml version="1.0" encoding="iso-8859-1"?>
<!-- Generator: Adobe Illustrator 27.6.1, SVG Export Plug-In . SVG Version: 6.00 Build 0)  -->
<svg version="1.1" baseProfile="basic" id="Layer_1"
	 xmlns="http://www.w3.org/2000/svg" xmlns:xlink="http://www.w3.org/1999/xlink" x="0px" y="0px" viewBox="0 0 32 32"
	 xml:space="preserve">
<rect x="6" y="8" width="2" height="2"/>
<rect x="4" y="10" width="2" height="2"/>
<rect x="8" y="6" width="2" height="2"/>
<rect x="24" y="8" transform="matrix(-1 -1.224647e-16 1.224647e-16 -1 50 18)" width="2" height="2"/>
<rect x="22" y="6" transform="matrix(-1 -1.224647e-16 1.224647e-16 -1 46 14)" width="2" height="2"/>
<line style="fill:none;stroke:#000000;stroke-width:2;stroke-miterlimit:10;" x1="27" y1="13" x2="27" y2="10"/>
<line style="fill:none;stroke:#000000;stroke-width:2;stroke-miterlimit:10;" x1="22" y1="5" x2="10" y2="5"/>
<polyline style="fill:none;stroke:#000000;stroke-width:2;stroke-miterlimit:10;" points="8,13 3,13 3,8 "/>
<rect x="24" y="22" transform="matrix(-1 -1.224647e-16 1.224647e-16 -1 50 46)" width="2" height="2"/>
<rect x="26" y="20" transform="matrix(-1 -1.224647e-16 1.224647e-16 -1 54 42)" width="2" height="2"/>
<rect x="22" y="24" transform="matrix(-1 -1.224647e-16 1.224647e-16 -1 46 50)" width="2" height="2"/>
<rect x="6" y="22" width="2" height="2"/>
<rect x="8" y="24" width="2" height="2"/>
<line style="fill:none;stroke:#000000;stroke-width:2;stroke-miterlimit:10;" x1="5" y1="19" x2="5" y2="22"/>
<line style="fill:none;stroke:#000000;stroke-width:2;stroke-miterlimit:10;" x1="10" y1="27" x2="22" y2="27"/>
<polyline style="fill:none;stroke:#000000;stroke-width:2;stroke-miterlimit:10;" points="24,19 29,19 29,24 "/>
<rect x="14" y="11" width="4" height="4"/>
<polyline style="fill:none;stroke:#000000;stroke-width:2;stroke-miterlimit:10;" points="13,21 13,18 19,18 19,21 "/>
</svg>