<?xml version="1.0" encoding="iso-8859-1"?>
<!-- Generator: Adobe Illustrator 24.1.2, SVG Export Plug-In . SVG Version: 6.00 Build 0)  -->
<svg version="1.1" baseProfile="basic" id="Layer_1"
	 xmlns="http://www.w3.org/2000/svg" xmlns:xlink="http://www.w3.org/1999/xlink" x="0px" y="0px" viewBox="0 0 48 48"
	 xml:space="preserve">
<circle style="fill:none;stroke:#000000;stroke-width:3;stroke-miterlimit:10;" cx="15" cy="17" r="5.5"/>
<path style="fill:none;stroke:#000000;stroke-width:3;stroke-miterlimit:10;" d="M24.5,29.735c0-1.235-1.001-2.235-2.235-2.235
	H7.735C6.5,27.5,5.5,28.501,5.5,29.735V33c0,5.247,4.253,9.5,9.5,9.5s9.5-4.253,9.5-9.5V29.735z"/>
<circle cx="34.5" cy="10.5" r="1.5"/>
<line style="fill:none;stroke:#000000;stroke-width:3;stroke-linecap:round;stroke-linejoin:round;stroke-miterlimit:10;" x1="34.5" y1="15.5" x2="34.5" y2="21.5"/>
<path style="fill:none;stroke:#000000;stroke-width:3;stroke-linejoin:round;stroke-miterlimit:10;" d="M34.5,5.5
	c-4.426,0-7.867,3.605-7.867,8c0,1.143,0.257,2.38,1.15,4.286L25.5,21.5c0,0,7.897,0,9,0c3.761,0,8-2.706,8-8
	C42.5,8.929,39.217,5.5,34.5,5.5z"/>
</svg>