<?xml version="1.0" encoding="iso-8859-1"?>
<!-- Generator: Adobe Illustrator 24.0.2, SVG Export Plug-In . SVG Version: 6.00 Build 0)  -->
<svg version="1.1" id="Layer_1_1_" xmlns="http://www.w3.org/2000/svg" xmlns:xlink="http://www.w3.org/1999/xlink" x="0px" y="0px"
	 viewBox="0 0 48 48" style="enable-background:new 0 0 48 48;" xml:space="preserve">
<g>
	<circle cx="17" cy="12" r="8.5"/>
	<path d="M17,22c-5.514,0-10-4.486-10-10S11.486,2,17,2s10,4.486,10,10S22.514,22,17,22z M17,5c-3.859,0-7,3.141-7,7s3.141,7,7,7
		s7-3.141,7-7S20.859,5,17,5z"/>
</g>
<path d="M45.561,43.439l-4.946-4.946C41.488,37.211,42,35.665,42,34c0-4.411-3.589-8-8-8s-8,3.589-8,8s3.589,8,8,8
	c1.665,0,3.211-0.512,4.493-1.386l4.946,4.946C43.732,45.854,44.116,46,44.5,46s0.768-0.146,1.061-0.439
	C46.146,44.975,46.146,44.025,45.561,43.439z M29,34c0-2.757,2.243-5,5-5s5,2.243,5,5s-2.243,5-5,5S29,36.757,29,34z"/>
<path d="M24,34c0-3.259,1.574-6.15,3.994-7.977C27.921,26.019,27.852,26,27.777,26H6.223C4.17,26,2.5,27.785,2.5,29.979V31.5
	c0,3.281,1.696,6.132,4.776,8.027C9.867,41.122,13.32,42,17,42c3.131,0,6.365-0.667,8.985-2.046C24.744,38.288,24,36.232,24,34z"/>
</svg>