<?xml version="1.0" encoding="utf-8"?><!--  Generator: Adobe Illustrator 17.0.0, SVG Export Plug-In . SVG Version: 6.00 Build 0)  --><!DOCTYPE svg PUBLIC "-//W3C//DTD SVG 1.1//EN" "http://www.w3.org/Graphics/SVG/1.1/DTD/svg11.dtd"><svg xmlns="http://www.w3.org/2000/svg" xmlns:xlink="http://www.w3.org/1999/xlink" viewBox="0 0 50 50" width="500px" height="500px"><path fill="none" stroke="#000000" stroke-width="2" stroke-linecap="round" stroke-miterlimit="10" d="M38,27c-6.075,0-11,4.925-11,11s4.925,11,11,11s11-4.925,11-11S44.075,27,38,27z"/><path fill="none" stroke="#000000" stroke-width="2" stroke-miterlimit="10" d="M26.327,31.297c-0.689-0.409-1.131-1.062-1.394-1.769c-0.146-1.612-0.09-2.737-0.09-4.209c0.73-0.384,2.038-2.826,2.259-4.888c0.574-0.047,1.478-0.607,1.744-2.818c0.143-1.187-0.425-1.855-0.771-2.065c0.934-2.809,2.874-11.499-3.588-12.398c-0.665-1.168-2.368-1.759-4.581-1.759c-8.854,0.163-9.922,6.686-7.981,14.156c-0.345,0.21-0.913,0.878-0.771,2.065c0.266,2.211,1.17,2.771,1.744,2.818c0.22,2.062,1.58,4.504,2.312,4.888c0,1.473,0.055,2.598-0.091,4.209C13.367,34.239,1.546,32.916,1,42h21"/><polygon points="22,41 22,43 25,43 24.359,41 "/><line fill="none" stroke="#000000" stroke-width="2" stroke-miterlimit="10" x1="38" y1="32" x2="38" y2="44"/><line fill="none" stroke="#000000" stroke-width="2" stroke-miterlimit="10" x1="44" y1="38" x2="32" y2="38"/></svg>