<?xml version="1.0" encoding="iso-8859-1"?>
<!-- Generator: Adobe Illustrator 26.0.1, SVG Export Plug-In . SVG Version: 6.00 Build 0)  -->
<svg version="1.1" baseProfile="basic" id="Layer_1"
	 xmlns="http://www.w3.org/2000/svg" xmlns:xlink="http://www.w3.org/1999/xlink" x="0px" y="0px" viewBox="0 0 50 50"
	 xml:space="preserve">
<path d="M33.937,40l-1,1H12.918c-1.801,0-3.177-1.798-2.519-3.569c2.019-5.443,7.998-9.1,14.878-9.1
	c5.804,0,10.956,2.608,13.641,6.689l-0.76,0.76c-2.534-3.887-7.323-6.449-12.881-6.449c-6.464,0-12.214,3.343-13.94,8.448
	C11.043,38.649,11.585,40,12.918,40H33.937z"/>
<path id="overlay_00000050636006601974249030000012572848093957099184_" d="M30.465,46.979c-0.26,0.102-0.553-0.192-0.44-0.451
	l1.015-2.234l9.214-9.225l1.737,1.726l-9.214,9.214L30.465,46.979z"/>
<path d="M42.803,35.971l-1.72-1.731l0.874-0.863c0.417-0.417,1.06-0.474,1.444-0.09l0.293,0.305c0.429,0.429,0.395,1.049-0.034,1.5
	L42.803,35.971z"/>
<path d="M25.5,25c-4.136,0-7.5-3.589-7.5-8s3.364-8,7.5-8s7.5,3.589,7.5,8S29.636,25,25.5,25z M25.5,10c-3.584,0-6.5,3.14-6.5,7
	s2.916,7,6.5,7s6.5-3.14,6.5-7S29.084,10,25.5,10z"/>
</svg>