<?xml version="1.0" encoding="utf-8"?><!-- Generator: Adobe Illustrator 17.0.0, SVG Export Plug-In . SVG Version: 6.00 Build 0)  --><!DOCTYPE svg PUBLIC "-//W3C//DTD SVG 1.1//EN" "http://www.w3.org/Graphics/SVG/1.1/DTD/svg11.dtd"><svg xmlns="http://www.w3.org/2000/svg" xmlns:xlink="http://www.w3.org/1999/xlink" viewBox="0 0 50 50" width="500px" height="500px"><path d="M29.007,4.827c-0.859-1.384-2.161-2.255-3.873-2.593C24.19,1.041,22.38,0.391,19.95,0.391c-3.68,0.067-6.374,1.192-8.005,3.342c-1.934,2.549-2.293,6.411-1.071,11.486c-0.451,0.551-0.784,1.401-0.65,2.513c0.264,2.195,1.139,3.091,1.842,3.454c0.341,1.734,1.288,3.689,2.209,4.607l0.003,0.465c0.009,1.016,0.016,1.898-0.08,3.036c-0.612,1.405-2.649,2.207-4.998,3.131c-3.908,1.536-8.771,3.449-9.136,9.516L0,43h26.281c-1.047-1-1.438-2-1.438-2H2.19c0.756-3.968,4.303-5.362,7.741-6.714c2.739-1.077,5.326-2.095,6.187-4.409l0.059-0.259c0.118-1.307,0.109-2.312,0.1-3.378l-0.005-0.922l0.018-0.595l-0.536-0.281c-0.438-0.297-1.607-2.314-1.799-4.117l-0.087-0.824l-0.825-0.067c-0.128-0.01-0.644-0.37-0.833-1.94c-0.097-0.806,0.296-1.091,0.298-1.092l0.635-0.387l-0.187-0.719c-1.213-4.672-1.012-8.253,0.583-10.354c1.243-1.638,3.413-2.496,6.431-2.552c1.877,0,3.265,0.469,3.712,1.254l0.244,0.428l0.488,0.067c1.336,0.186,2.284,0.756,2.897,1.743c1.536,2.473,0.647,7.04-0.12,9.349l-0.21,0.746l0.638,0.423c0.004,0.003,0.396,0.286,0.299,1.093c-0.189,1.57-0.705,1.931-0.833,1.94l-0.825,0.067l-0.088,0.823c-0.194,1.814-1.328,3.828-1.729,4.108l-0.536,0.281l-0.005,1.535c-0.009,1.062-0.019,2.066,0.099,3.369l0.059,0.259c0.247,0.664,0.635,1.21,1.091,1.668c0.291-0.508,0.832-1.417,1.142-1.725c-0.13-0.17-0.234-0.344-0.313-0.526c-0.096-1.134-0.088-2.014-0.079-3.027l0.002-0.48c0.898-0.917,1.821-2.865,2.158-4.601c0.703-0.364,1.578-1.26,1.841-3.454c0.131-1.091-0.186-1.93-0.624-2.48C29.858,13.271,31.057,8.127,29.007,4.827z"/><circle fill="none" stroke="#000000" stroke-width="2" stroke-linecap="round" stroke-miterlimit="10" cx="36" cy="36" r="9"/><line fill="none" stroke="#000000" stroke-width="2" stroke-miterlimit="10" x1="42" y1="42" x2="49" y2="49"/></svg>