<?xml version="1.0" encoding="utf-8"?><!-- Generator: Adobe Illustrator 15.0.0, SVG Export Plug-In . SVG Version: 6.00 Build 0)  --><!DOCTYPE svg PUBLIC "-//W3C//DTD SVG 1.1//EN" "http://www.w3.org/Graphics/SVG/1.1/DTD/svg11.dtd"><svg xmlns="http://www.w3.org/2000/svg" xmlns:xlink="http://www.w3.org/1999/xlink" viewBox="0 0 50 50" width="50px" height="50px"><path d="M40.063,46H-0.062l0.064-1.061c0.364-6.064,5.228-7.979,9.135-9.516c2.35-0.924,4.387-1.726,4.999-3.132c0.096-1.136,0.088-2.019,0.08-3.032l-0.002-0.468c-0.919-0.917-1.864-2.866-2.208-4.596c-0.723-0.361-1.579-1.26-1.844-3.465c-0.133-1.112,0.2-1.962,0.65-2.513c-1.223-5.075-0.864-8.937,1.069-11.484c1.632-2.15,4.326-3.275,8.007-3.343c2.43,0,4.24,0.65,5.184,1.843c1.712,0.339,3.014,1.209,3.874,2.593c2.051,3.299,0.852,8.443,0.271,10.423c0.438,0.552,0.755,1.39,0.624,2.48c-0.265,2.205-1.121,3.104-1.844,3.465c-0.339,1.732-1.26,3.674-2.155,4.59l-0.002,0.479c-0.009,1.014-0.017,1.895,0.079,3.027c0.611,1.406,2.641,2.208,4.98,3.132c3.894,1.537,8.738,3.45,9.102,9.517L40.063,46z"/><path fill="none" stroke="#000000" stroke-width="2" stroke-linecap="round" stroke-linejoin="round" stroke-miterlimit="10" d="M37,9c-1.523,0-2.98,0.245-4.321,0.692C28.187,11.19,25,14.956,25,19.364c0,3.194,1.674,6.051,4.305,7.952l-0.146-0.108c0.241,0.181,0.491,0.353,0.748,0.515c0,0,0.003,1.864-1.634,4.187c3.384,0.015,5.459-2.57,5.459-2.57c1.039,0.253,2.136,0.39,3.268,0.39c6.627,0,12-4.641,12-10.364C49,13.64,43.627,9,37,9c-1.779,0-3.471,0.335-4.988,0.935"/></svg>