<?xml version="1.0" encoding="iso-8859-1"?>
<!-- Generator: Adobe Illustrator 23.0.6, SVG Export Plug-In . SVG Version: 6.00 Build 0)  -->
<svg version="1.1" id="Layer_1" xmlns="http://www.w3.org/2000/svg" xmlns:xlink="http://www.w3.org/1999/xlink" x="0px" y="0px"
	 viewBox="0 0 64 64" style="enable-background:new 0 0 64 64;" xml:space="preserve">
<g id="surface230591_4_">
	<g>
		<g>
			<g>
				<g>
					<g>
						<path d="M31.249,4.992c-3.312,0-6,2.688-6,6s2.688,6,6,6s6-2.688,6-6S34.562,4.992,31.249,4.992z M31.249,6.992
							c2.211,0,4,1.789,4,4s-1.789,4-4,4s-4-1.789-4-4S29.038,6.992,31.249,6.992z"/>
					</g>
				</g>
			</g>
		</g>
	</g>
</g>
<g>
	<g>
		<g>
			<g>
				<g>
					<path d="M21.817,9l-1.368,2.735c-0.378,0.755-0.23,1.668,0.368,2.265l-2.347,4.695c-0.298,0.596,0.133,1.297,0.798,1.297
						c0.002,0,0.003,0,0.005,0c0.661-0.004,2.029-0.005,3.651-0.005c3.109,0,7.155,0.005,8.963,0.009
						c1.28,0.003,2.55,0.198,3.772,0.578c1.81,0.52,3.39,1.57,4.56,3.05c1.2,1.5,1.78,3.42,1.78,5.35v9.02c0,0.82-0.67,1.5-1.5,1.5
						c-0.83,0-1.5-0.68-1.5-1.5v-10.84c0-0.55-0.45-1-1-1c-0.55,0-1,0.45-1,1v10.92l0.86,19.32c0.02,0.56-0.17,1.08-0.55,1.48
						c-0.381,0.399-0.893,0.617-1.455,0.617c-0.058,0-0.116-0.002-0.175-0.007c-1.01-0.08-1.78-0.98-1.83-2L33,40.444
						c-0.03-0.54-0.47-0.95-1-0.95c-0.53,0-0.97,0.41-1,0.95l-0.85,17.01c-0.05,1.02-0.8,1.93-1.81,2.02
						c-0.075,0.008-0.149,0.012-0.223,0.012c-0.545,0-1.048-0.225-1.427-0.612c-0.38-0.4-0.57-0.92-0.55-1.48l0.86-18.9L26.817,25
						c0-0.939-0.882-1.878-1.817-1.989c-0.03-0.004-2.942-0.006-5.889-0.008c-2.725-0.002-4.435-2.945-3.085-5.313l3.342-5.866
						c0.298-0.547,0.673-1.048,1.114-1.488L21.817,9 M21.818,7c-0.515,0-1.028,0.199-1.415,0.586l-1.336,1.336
						c-0.576,0.575-1.065,1.23-1.455,1.945L14.288,16.7c-0.99,1.738-0.982,3.808,0.023,5.538c1.005,1.73,2.799,2.763,4.799,2.765
						c3.795,0.002,5.168,0.005,5.635,0.006c0.027,0.021,0.056,0.051,0.074,0.077l0.181,13.375l-0.857,18.841
						c-0.04,1.121,0.35,2.161,1.098,2.948c0.785,0.804,1.8,1.235,2.877,1.235c0.146,0,0.294-0.008,0.443-0.025
						c1.623-0.144,2.986-1.362,3.435-2.973c0.444,1.628,1.836,2.855,3.526,2.989c0.112,0.009,0.223,0.013,0.333,0.013
						c1.11,0,2.141-0.439,2.902-1.236c0.751-0.791,1.141-1.831,1.102-2.932l-0.717-16.103c0.418,0.177,0.877,0.274,1.358,0.274
						c1.93,0,3.5-1.57,3.5-3.5v-9.02c0-2.468-0.788-4.811-2.218-6.599c-1.418-1.794-3.346-3.084-5.569-3.723
						c-1.373-0.428-2.841-0.653-4.32-0.656c-1.81-0.004-5.857-0.009-8.968-0.009c-0.677,0-1.309,0-1.865,0.001l1.547-3.093
						c0.385-0.77,0.234-1.7-0.375-2.309l1.375-2.691c0.439-0.877,0.176-1.943-0.619-2.517C22.635,7.124,22.225,7,21.818,7L21.818,7z
						 M21.817,11h0.005H21.817L21.817,11z"/>
				</g>
			</g>
		</g>
	</g>
</g>
<g>
	<g>
		<g>
			<g>
				<g>
					<g>
						<g>
							<path d="M60,34v-2c0-0.553-0.447-1-1-1c-0.553,0-1,0.447-1,1v2c0,0.553,0.447,1,1,1S60,34.553,60,34z"/>
						</g>
					</g>
				</g>
			</g>
		</g>
	</g>
</g>
<g>
	<g>
		<g>
			<g>
				<g>
					<g>
						<g>
							<path d="M55,34v-2c0-0.553-0.447-1-1-1c-0.553,0-1,0.447-1,1v2c0,0.553,0.447,1,1,1S55,34.553,55,34z"/>
						</g>
					</g>
				</g>
			</g>
		</g>
	</g>
</g>
<g>
	<g>
		<g>
			<g>
				<g>
					<g>
						<g>
							<path d="M50,34v-2c0-0.553-0.447-1-1-1c-0.553,0-1,0.447-1,1v2c0,0.553,0.447,1,1,1S50,34.553,50,34z"/>
						</g>
					</g>
				</g>
			</g>
		</g>
	</g>
</g>
<g>
	<g>
		<g>
			<g>
				<g>
					<g>
						<g>
							<path d="M21,34v-2c0-0.553-0.447-1-1-1s-1,0.447-1,1v2c0,0.553,0.447,1,1,1S21,34.553,21,34z"/>
						</g>
					</g>
				</g>
			</g>
		</g>
	</g>
</g>
<g>
	<g>
		<g>
			<g>
				<g>
					<g>
						<g>
							<path d="M16,34v-2c0-0.553-0.447-1-1-1s-1,0.447-1,1v2c0,0.553,0.447,1,1,1C15.553,35,16,34.553,16,34z"/>
						</g>
					</g>
				</g>
			</g>
		</g>
	</g>
</g>
<g>
	<g>
		<g>
			<g>
				<g>
					<g>
						<g>
							<path d="M11,34v-2c0-0.553-0.447-1-1-1s-1,0.447-1,1v2c0,0.553,0.447,1,1,1C10.553,35,11,34.553,11,34z"/>
						</g>
					</g>
				</g>
			</g>
		</g>
	</g>
</g>
<g>
	<g>
		<g>
			<g>
				<g>
					<g>
						<g>
							<path d="M6,34v-2c0-0.553-0.447-1-1-1s-1,0.447-1,1v2c0,0.553,0.447,1,1,1C5.553,35,6,34.553,6,34z"/>
						</g>
					</g>
				</g>
			</g>
		</g>
	</g>
</g>
</svg>