<?xml version="1.0" encoding="iso-8859-1"?><!-- Generator: Adobe Illustrator 19.2.1, SVG Export Plug-In . SVG Version: 6.00 Build 0)  --><svg xmlns="http://www.w3.org/2000/svg" xmlns:xlink="http://www.w3.org/1999/xlink" viewBox="0 0 50 50" width="500px" height="500px"><path style="fill:none;stroke:#000000;stroke-width:2;stroke-linecap:round;stroke-miterlimit:10;" d="M28.154,32.909c-0.944-0.581-1.667-1.269-2.004-2.193c-0.369-1.558-0.327-3.061-0.087-4.146c0.699-0.313,1.971-2.783,2.185-4.815c0.555-0.046,1.43-0.598,1.687-2.776c0.138-1.169-0.411-1.827-0.745-2.034c0.903-2.767,2.426-11.493-3.471-12.211C25.076,3.582,23.428,3,21.288,3c-8.564,0.16-9.697,6.66-7.72,13.944c-0.333,0.207-0.883,0.865-0.745,2.034c0.257,2.178,1.132,2.73,1.687,2.776c0.213,2.032,1.528,4.437,2.236,4.815c0.248,1.816,0.206,2.63-0.088,4.146C14.963,35.355,3.528,34.052,3,43h24.54"/><path style="fill:none;stroke:#000000;stroke-width:2;stroke-linecap:round;stroke-miterlimit:10;" d="M37.682,26.81c-0.28-1.29-0.238-2.525-0.039-3.426c0.605-0.271,1.705-2.407,1.89-4.164c0.48-0.04,1.237-0.517,1.459-2.401c0.119-1.011-0.355-1.58-0.645-1.759c0.781-2.393,2.098-9.94-3.002-10.561C36.789,3.503,35.364,3,33.513,3c-2.777,0.052-4.651,0.875-5.818,2.215"/><path style="fill:none;stroke:#000000;stroke-width:2;stroke-linecap:round;stroke-miterlimit:10;" d="M38,27c-6.075,0-11,4.925-11,11s4.925,11,11,11s11-4.925,11-11S44.075,27,38,27z"/><line style="fill:none;stroke:#000000;stroke-width:2;stroke-miterlimit:10;" x1="38" y1="32" x2="38" y2="44"/><line style="fill:none;stroke:#000000;stroke-width:2;stroke-miterlimit:10;" x1="44" y1="38" x2="32" y2="38"/></svg>