<?xml version="1.0" encoding="iso-8859-1"?>
<!-- Generator: Adobe Illustrator 24.3.0, SVG Export Plug-In . SVG Version: 6.00 Build 0)  -->
<svg version="1.1" id="Layer_1" xmlns="http://www.w3.org/2000/svg" xmlns:xlink="http://www.w3.org/1999/xlink" x="0px" y="0px"
	 viewBox="0 0 48 48" style="enable-background:new 0 0 48 48;" xml:space="preserve">
<g>
	<path d="M34.676,11.326C33.742,8.248,30.88,6,27.5,6h-12C11.364,6,8,9.364,8,13.5v16c0,3.38,2.248,6.243,5.327,7.177
		C14.27,39.808,17.152,42,20.5,42h12c4.136,0,7.5-3.364,7.5-7.5v-16C40,15.164,37.804,12.27,34.676,11.326z M11,29.5v-16
		c0-2.481,2.019-4.5,4.5-4.5h12c2.481,0,4.5,2.019,4.5,4.5v16c0,2.481-2.019,4.5-4.5,4.5h-12C13.019,34,11,31.981,11,29.5z"/>
	<circle cx="21.5" cy="15.5" r="4.5"/>
	<path d="M21.5,32c3.584,0,6.5-2.916,6.5-6.5c0-1.93-1.57-3.5-3.5-3.5h-6c-1.93,0-3.5,1.57-3.5,3.5C15,29.084,17.916,32,21.5,32z"/>
</g>
</svg>