<svg xmlns="http://www.w3.org/2000/svg"  viewBox="0 0 50 50" width="500px" height="500px"><defs><style>.a25080e4-f332-4c61-92b7-335855f01fbe,.ede7be15-4395-4dc4-ab2d-9c0290e9dbcc{fill:none;stroke:#000;stroke-width:2px;}.a25080e4-f332-4c61-92b7-335855f01fbe{stroke-linecap:round;stroke-linejoin:round;}.ede7be15-4395-4dc4-ab2d-9c0290e9dbcc{stroke-miterlimit:10;}</style></defs><title>Daily Icons</title><g id="b95d9606-335e-4045-a7fb-02b72dff5a68" data-name="Man with money"><circle class="a25080e4-f332-4c61-92b7-335855f01fbe" cx="24.5" cy="17" r="4"/><path class="a25080e4-f332-4c61-92b7-335855f01fbe" d="M20,39v7.5a2.5,2.5,0,0,0,5,0V38"/><path class="a25080e4-f332-4c61-92b7-335855f01fbe" d="M25,37v9.5a2.5,2.5,0,0,0,5,0V39"/><path class="a25080e4-f332-4c61-92b7-335855f01fbe" d="M20,39V28.92l-6.3-6.4a2.046,2.046,0,0,1-.54-.73l-2-5a2,2,0,0,1,3.68-1.58l1.81,4.57L20.41,24h8.18l3.76-4.22,1.81-4.57a2,2,0,1,1,3.68,1.58l-2,5a2.046,2.046,0,0,1-.54.73L30,28.06V39"/><path class="ede7be15-4395-4dc4-ab2d-9c0290e9dbcc" d="M43.354,6.025a1.891,1.891,0,0,0-2.829,0,1.891,1.891,0,0,0,0,2.829c1.7,1.7,3.253-2.4,4.95-.708a1.891,1.891,0,0,1,0,2.829,1.891,1.891,0,0,1-2.829,0"/><line class="ede7be15-4395-4dc4-ab2d-9c0290e9dbcc" x1="40.525" y1="6.025" x2="39.111" y2="4.611"/><line class="ede7be15-4395-4dc4-ab2d-9c0290e9dbcc" x1="45.475" y1="10.975" x2="46.889" y2="12.389"/><path class="ede7be15-4395-4dc4-ab2d-9c0290e9dbcc" d="M23.1,7.832a1.889,1.889,0,0,0,2.756.636,1.89,1.89,0,0,0,.636-2.756c-1.272-2.035-3.71,1.611-4.982-.424a1.89,1.89,0,0,1,.636-2.756,1.889,1.889,0,0,1,2.756.636"/><line class="ede7be15-4395-4dc4-ab2d-9c0290e9dbcc" x1="25.855" y1="8.468" x2="26.915" y2="10.164"/><line class="ede7be15-4395-4dc4-ab2d-9c0290e9dbcc" x1="22.145" y1="2.532" x2="21.085" y2="0.836"/><path class="ede7be15-4395-4dc4-ab2d-9c0290e9dbcc" d="M9.475,8.854a1.891,1.891,0,0,0,0-2.829,1.891,1.891,0,0,0-2.829,0c-1.7,1.7,2.405,3.253.708,4.95a1.891,1.891,0,0,1-2.829,0,1.891,1.891,0,0,1,0-2.829"/><line class="ede7be15-4395-4dc4-ab2d-9c0290e9dbcc" x1="9.475" y1="6.025" x2="10.889" y2="4.611"/><line class="ede7be15-4395-4dc4-ab2d-9c0290e9dbcc" x1="4.525" y1="10.975" x2="3.111" y2="12.389"/></g></svg>