<?xml version="1.0" encoding="iso-8859-1"?>
<!-- Generator: Adobe Illustrator 25.2.3, SVG Export Plug-In . SVG Version: 6.00 Build 0)  -->
<svg version="1.1" baseProfile="basic" id="Layer_1"
	 xmlns="http://www.w3.org/2000/svg" xmlns:xlink="http://www.w3.org/1999/xlink" x="0px" y="0px" viewBox="0 0 64 64"
	 xml:space="preserve">
<rect x="19.56" y="47.333" transform="matrix(0.0687 -0.9976 0.9976 0.0687 -24.9866 70.9012)" width="11.844" height="3"/>
<path d="M33.222,48h-2.444c-1.296,0-7.311-3.558-9.52-9.506C20.237,37.764,19,36.295,19,34.095c0-1.384,0.585-2.489,1-3.1V28.5
	c0-7.676,4.822-12.833,12-12.833S44,20.824,44,28.5v2.496c0.415,0.61,1,1.715,1,3.1c0,2.2-1.237,3.668-2.258,4.399
	C40.533,44.442,34.518,48,33.222,48z M32.876,45.048L32.876,45.048L32.876,45.048z M31.124,45.048L31.124,45.048L31.124,45.048z
	 M31.007,45h1.985c0.98-0.442,5.54-3.219,7.081-7.963l0.195-0.6l0.565-0.28C40.936,36.101,42,35.49,42,34.095
	c0-0.876-0.612-1.589-0.619-1.596l-0.369-0.423L41,31.5v-3c0-5.973-3.533-9.833-9-9.833s-9,3.86-9,9.833v3.582l-0.392,0.43l0,0
	c0,0-0.608,0.711-0.608,1.584c0,1.395,1.064,2.006,1.186,2.071l0.532,0.285l0.209,0.585C25.468,41.781,30.027,44.558,31.007,45z"/>
<rect x="37.018" y="42.912" transform="matrix(0.9976 -0.0688 0.0688 0.9976 -3.2689 2.7662)" width="3" height="11.844"/>
<path style="fill-rule:evenodd;clip-rule:evenodd;" d="M32,58c-1.63-1.63,0-5.074,0-5.074c4.074,0,6.111-1.63,6.111-1.63l1-5.074
	l9.025,4.469L41,55L32,58z"/>
<path style="fill-rule:evenodd;clip-rule:evenodd;" d="M39,14c-13,0-19,3-19,13c0,2.143,0,4.143,0,4.143L23,32c0,0-0.143-6.857,2-9
	c0,0,3.143,1,7,1s6-1,6-1c3,2.571,3,9,3,9h3c0,0,0-1.714,0-5.143c0-3-0.857-7.714-3.429-7.714L39,14z"/>
<path d="M59.03,38.96c-1.63,6.48-5.68,12.33-11.22,16.1c-5.51,3.81-12.43,5.49-19.06,4.72c-5.06-0.59-9.91-2.72-13.77-5.94
	c-0.67-0.56-1.3-1.15-1.9-1.77l4.15-2.06l7.66-3.79l1,5.08c0,0,2.04,1.63,6.11,1.63c0,0,0.44,0.93,0.63,2.04
	c1.64-0.06,3.28-0.29,4.88-0.67c2.67-0.64,5.22-1.78,7.5-3.32c4.56-3.1,7.91-7.91,9.28-13.24c0.68-2.66,0.89-5.45,0.63-8.2
	c-0.29-2.75-1.09-5.43-2.33-7.89c-2.46-4.93-6.74-8.95-11.85-11.07c-5.11-2.16-11.02-2.27-16.27-0.53c-2.63,0.89-5.1,2.24-7.27,3.99
	c-2.16,1.76-4.01,3.91-5.42,6.32c-1.41,2.41-2.38,5.07-2.86,7.82c-0.28,1.38-0.31,2.79-0.37,4.19c0.01,1.4,0.14,2.81,0.4,4.19
	l-3.92,0.77c-1.34-6.44-0.21-13.36,3.04-19.11c1.63-2.88,3.77-5.46,6.31-7.6C16.92,8.5,19.86,6.84,23,5.76
	c6.27-2.15,13.33-2.07,19.51,0.47c6.18,2.5,11.4,7.28,14.41,13.24c1.51,2.98,2.49,6.23,2.84,9.55
	C60.1,32.35,59.86,35.72,59.03,38.96z"/>
<polygon points="1.182,37.2 13.018,35.113 8.591,44.611 "/>
</svg>