<?xml version="1.0" encoding="iso-8859-1"?><!-- Generator: Adobe Illustrator 21.1.0, SVG Export Plug-In . SVG Version: 6.00 Build 0)  --><svg xmlns="http://www.w3.org/2000/svg" xmlns:xlink="http://www.w3.org/1999/xlink" viewBox="0 0 50 50" width="500px" height="500px"><g></g><circle style="fill:none;stroke:#000000;stroke-width:2;stroke-miterlimit:10;" cx="26" cy="24" r="11"/><circle style="fill:none;stroke:#000000;stroke-width:2;stroke-miterlimit:10;" cx="41" cy="9" r="4"/><circle style="fill:none;stroke:#000000;stroke-width:2;stroke-miterlimit:10;" cx="43" cy="38" r="4"/><circle style="fill:none;stroke:#000000;stroke-width:2;stroke-miterlimit:10;" cx="23" cy="43" r="4"/><circle style="fill:none;stroke:#000000;stroke-width:2;stroke-miterlimit:10;" cx="7" cy="31" r="4"/><circle style="fill:none;stroke:#000000;stroke-width:2;stroke-miterlimit:10;" cx="18" cy="7" r="4"/><line style="fill:none;stroke:#000000;stroke-width:2;stroke-miterlimit:10;" x1="38.156" y1="11.844" x2="33.854" y2="16.146"/><line style="fill:none;stroke:#000000;stroke-width:2;stroke-miterlimit:10;" x1="19.665" y1="10.538" x2="21.31" y2="14.034"/><line style="fill:none;stroke:#000000;stroke-width:2;stroke-miterlimit:10;" x1="23.673" y1="38.967" x2="24.202" y2="34.764"/><line style="fill:none;stroke:#000000;stroke-width:2;stroke-miterlimit:10;" x1="39.985" y1="35.55" x2="34.516" y2="31.06"/><line style="fill:none;stroke:#000000;stroke-width:2;stroke-miterlimit:10;" x1="10.714" y1="29.507" x2="15.681" y2="27.972"/><path style="fill:none;stroke:#000000;stroke-width:2;stroke-linecap:round;stroke-miterlimit:10;" d="M33.375,32C32,30.25,28.625,30.5,28,29v-1.75c0.337-0.169,0.916-1.406,1-2.25c0.253,0,0.832-0.322,1-1.25c0.084-0.506-0.082-0.916-0.25-1c0.182-0.51,0.258-1.322,0.25-2.25c-0.01-1.22-0.532-2.549-2.063-2.74C27.684,17.253,26.926,17,26,17c-2.759,0-4.015,1.521-4,3.625c0.005,0.661,0.049,1.379,0.25,2.125c-0.168,0.084-0.334,0.494-0.25,1c0.084,0.928,0.747,1.25,1,1.25c0.084,0.844,0.663,2.081,1,2.25V29c-0.625,1.5-4,1.25-5.375,3"/></svg>