<?xml version="1.0" encoding="iso-8859-1"?>
<!-- Generator: Adobe Illustrator 26.0.1, SVG Export Plug-In . SVG Version: 6.00 Build 0)  -->
<svg version="1.1" baseProfile="basic" id="Layer_1"
	 xmlns="http://www.w3.org/2000/svg" xmlns:xlink="http://www.w3.org/1999/xlink" x="0px" y="0px" viewBox="0 0 64 64"
	 xml:space="preserve">
<path d="M14,36c-3.309,0-6-2.916-6-6.5s2.691-6.5,6-6.5s6,2.916,6,6.5S17.309,36,14,36z M14,27c-1.103,0-2,1.122-2,2.5
	s0.897,2.5,2,2.5s2-1.122,2-2.5S15.103,27,14,27z"/>
<path d="M22.409,49c-4.206,0-12.618,0-16.824,0c-1.328,0-2.754-1.127-2.57-2.812C3.523,41.521,8.244,38,14,38
	c5.751,0,10.479,3.516,10.985,8.181C25.17,47.88,23.74,49,22.409,49z M7.564,45h12.872c-1.098-1.768-3.595-3-6.437-3
	S8.662,43.231,7.564,45z"/>
<path d="M32,25c-3.309,0-6-2.916-6-6.5s2.691-6.5,6-6.5s6,2.916,6,6.5S35.309,25,32,25z M32,16c-1.103,0-2,1.122-2,2.5
	s0.897,2.5,2,2.5s2-1.122,2-2.5S33.103,16,32,16z"/>
<path d="M40.409,38c-4.206,0-12.618,0-16.824,0c-1.328,0-2.754-1.127-2.57-2.812C21.523,30.521,26.244,27,32,27
	c5.751,0,10.479,3.516,10.985,8.181C43.17,36.88,41.74,38,40.409,38z M25.564,34h12.872c-1.098-1.768-3.595-3-6.437-3
	S26.662,32.231,25.564,34z"/>
<path d="M50,36c-3.309,0-6-2.916-6-6.5s2.691-6.5,6-6.5s6,2.916,6,6.5S53.309,36,50,36z M50,27c-1.103,0-2,1.122-2,2.5
	s0.897,2.5,2,2.5s2-1.122,2-2.5S51.103,27,50,27z"/>
<path d="M58.409,49c-4.206,0-12.618,0-16.824,0c-1.328,0-2.754-1.127-2.57-2.812C39.523,41.521,44.244,38,50,38
	c5.751,0,10.479,3.516,10.985,8.181C61.17,47.88,59.74,49,58.409,49z M43.564,45h12.872c-1.098-1.768-3.595-3-6.437-3
	S44.662,43.231,43.564,45z"/>
</svg>