<?xml version="1.0" encoding="iso-8859-1"?>
<!-- Generator: Adobe Illustrator 27.0.0, SVG Export Plug-In . SVG Version: 6.00 Build 0)  -->
<svg version="1.1" baseProfile="basic" id="Layer_1"
	 xmlns="http://www.w3.org/2000/svg" xmlns:xlink="http://www.w3.org/1999/xlink" x="0px" y="0px" viewBox="0 0 32 32"
	 xml:space="preserve">
<path d="M31.7,30.287l-2.767-2.711c0.822-1.01,1.317-2.287,1.317-3.678c0-3.252-2.691-5.897-6-5.897
	c-1.087,0-2.104,0.29-2.984,0.789c-0.666-0.353-1.381-0.627-2.151-0.781l-1.133-0.226c-0.349-0.08-0.677-0.794-0.677-1.179
	c0-0.645,0.094-0.854,0.279-1.031c0.955-0.918,1.924-1.918,2.449-3.188c0.611-0.52,0.967-1.277,0.967-2.09
	c0-0.572-0.175-1.12-0.5-1.58V8.223c0.629-1.806,0.185-3.899-1.114-5.154c-0.83-0.802-1.896-1.12-2.95-0.918
	c-1.292-1.159-3.938-1.479-5.895-0.56C10.04,1.826,9.825,2.42,10.06,2.92c0.224,0.481,0.783,0.69,1.27,0.496
	c0.01,0.017,0.017,0.032,0.027,0.05c1.32-0.445,2.732,1.288,1.497,2.518c-0.953,0.919-1.09,3.044-0.59,4.32
	c0.335,0.821,1.073,1.641,1.573,2.407c1.449,2.036,2.023,5.167,0.458,7.419c-0.767,1.168-2.064,2.038-3.457,2.278
	c-1.743,0.31-3.126,1.23-3.429,2.596l-0.201,1.625c-0.24,1.697-2.452,1.635-2.903,0.329c-0.019-0.113-0.046-0.224-0.033-0.342
	l0.151-1.365c0.146-1.319,0.706-2.509,1.557-3.437c0.528-0.544,1.159-0.988,1.836-1.342c0.465-0.225,0.955-0.411,1.482-0.517
	l0.982-0.229c1.451-0.292,2.426-1.547,2.426-3.122c0-1.027-0.385-1.896-1.112-2.514c-0.315-0.268-0.596-0.579-0.855-0.906
	c-0.193-0.266-0.378-0.536-0.551-0.81c-0.176-0.309-0.333-0.623-0.443-0.941c-0.073-0.21-0.214-0.39-0.4-0.511
	C9.129,10.782,9,10.547,9,10.294c0-0.196,0.076-0.382,0.215-0.523c0.22-0.225,0.321-0.539,0.273-0.85
	C9.291,7.628,9.354,6.532,9.652,5.638C9.684,5.56,9.706,5.477,9.741,5.4c-0.005-0.002-0.01-0.005-0.015-0.007
	c0.001-0.003,0.002-0.007,0.003-0.01c0.206-0.512-0.042-1.095-0.555-1.301C8.666,3.879,8.081,4.124,7.874,4.637
	c-0.469,1.164-0.61,2.558-0.422,4.147C7.158,9.23,7,9.751,7,10.294c0,0.811,0.354,1.568,0.963,2.087
	c0.478,1.203,1.316,2.367,2.336,3.233c0.175,0.148,0.407,0.412,0.407,0.989c0,0.481-0.216,1.04-0.851,1.168l-0.982,0.229
	c-3.461,0.695-6.049,3.52-6.438,7.028l-0.151,1.365c-0.102,0.916,0.192,1.836,0.808,2.523C3.705,29.606,4.587,30,5.51,30h16.98
	c0.407,0,0.802-0.089,1.173-0.233c0.193,0.019,0.389,0.029,0.587,0.029c1.165,0,2.251-0.334,3.172-0.901l2.878,2.819
	C30.495,31.906,30.747,32,31,32c0.26,0,0.519-0.101,0.714-0.3C32.101,31.306,32.095,30.672,31.7,30.287z M28.25,23.898
	c0,1.15-0.524,2.176-1.34,2.89c-0.04,0.03-0.087,0.047-0.124,0.084c-0.01,0.01-0.012,0.023-0.022,0.033
	c-0.689,0.549-1.557,0.892-2.515,0.892c-2.206,0-4-1.749-4-3.898S22.044,20,24.25,20S28.25,21.749,28.25,23.898z"/>
</svg>