<?xml version="1.0" encoding="utf-8"?><!-- Generator: Adobe Illustrator 15.0.0, SVG Export Plug-In . SVG Version: 6.00 Build 0)  --><!DOCTYPE svg PUBLIC "-//W3C//DTD SVG 1.1//EN" "http://www.w3.org/Graphics/SVG/1.1/DTD/svg11.dtd"><svg xmlns="http://www.w3.org/2000/svg" xmlns:xlink="http://www.w3.org/1999/xlink" viewBox="0 0 26 26" width="208px" height="208px"><g><g><path fill="#000000" d="M10.061,15.083c0.24,0.323,1.243,1.37,2.939,1.37c1.63,0,2.612-0.948,2.9-1.321    c-0.11-0.364-0.123-0.887,0.127-1.646h-0.009c1.637-1.686,2.888-4.399,2.888-7.07c0-4.107-2.731-6.26-5.905-6.26    c-3.176,0-5.892,2.152-5.892,6.26c0,2.682,1.244,5.406,2.891,7.088C10.267,14.203,10.218,14.712,10.061,15.083z"/></g><g><path fill="#000000" d="M16.979,16.045c0,0-1.948,5.026-3.979,5.026S9,16,9,16l0.007-0.007c-3.268,1.22-6.977,3.354-6.977,5.464    c0,0.584,0,0.23,0,0.811c0,2.947,5.714,3.617,11.002,3.617c5.296,0,10.938-0.67,10.938-3.617c0-0.58,0-0.227,0-0.811    C23.97,19.316,20.355,17.229,16.979,16.045z"/></g></g><path fill="#000000" d="M13,16.029c0.832,0,3.141,4.936,3.141,6.126c0,0.21-6.284,0.198-6.284,0  C9.856,21.059,12.164,16.029,13,16.029z"/></svg>