<?xml version="1.0" encoding="iso-8859-1"?>
<!-- Generator: Adobe Illustrator 24.2.3, SVG Export Plug-In . SVG Version: 6.00 Build 0)  -->
<svg version="1.1" id="Layer_1" xmlns="http://www.w3.org/2000/svg" xmlns:xlink="http://www.w3.org/1999/xlink" x="0px" y="0px"
	 viewBox="0 0 48 48" style="enable-background:new 0 0 48 48;" xml:space="preserve">
<path d="M44.501,30c-0.112,0-0.226-0.012-0.339-0.039C44.077,29.942,35.538,28,24,28c-0.668,0-1.325,0.006-1.971,0.019
	c-0.617,0.022-1.169-0.349-1.409-0.912c-0.24-0.563-0.114-1.215,0.318-1.648l13.064-13.083c0.027-0.059,0.058-0.116,0.093-0.172
	c0.273-0.438,0.755-0.705,1.271-0.705H35.5c0.606,0,1.153,0.365,1.386,0.925c0.07,0.169,0.107,0.346,0.113,0.522
	c1.733,3.835,2.936,9.114,2.998,13.219c2.93,0.436,4.684,0.836,4.842,0.873c0.807,0.187,1.309,0.993,1.122,1.799
	C45.801,29.531,45.184,30,44.501,30z"/>
<path d="M39.282,31.586c-0.239-0.363-0.625-0.604-1.057-0.66c-7.183-0.938-14.482-1.169-21.829-0.661
	c-0.826,0.058-5.62,4.968-5.62,4.968c-0.699,0.444-0.906,1.371-0.463,2.07C11.848,39.722,13.987,41,16.5,41c4.308,0,6.502-7,7.5-7
	s2,7,7,7c3.873,0,7.042-3.059,8.476-8.183C39.593,32.398,39.522,31.949,39.282,31.586z"/>
<line style="fill:none;stroke:#000000;stroke-width:3;stroke-linecap:round;stroke-miterlimit:10;" x1="42.5" y1="5.5" x2="5.5" y2="42.5"/>
<g>
	<path d="M3.499,30c0.112,0,0.226-0.012,0.339-0.039c0.052-0.012,3.621-0.824,9.236-1.399L33.577,8.059
		C32.699,7.368,31.78,7,30.818,7c-3.388,0-5.412,2.16-6.622,3.45c-0.062,0.065-0.128,0.137-0.196,0.208
		c-0.068-0.071-0.135-0.143-0.196-0.208C22.594,9.16,20.569,7,17.182,7c-5.606,0-9.069,12.228-9.177,19.168
		c-2.93,0.436-4.694,0.836-4.844,0.87c-0.807,0.187-1.309,0.993-1.122,1.799C2.199,29.531,2.816,30,3.499,30z"/>
</g>
</svg>