<?xml version="1.0" encoding="utf-8"?><!-- Generator: Adobe Illustrator 17.1.0, SVG Export Plug-In . SVG Version: 6.00 Build 0)  --><!DOCTYPE svg PUBLIC "-//W3C//DTD SVG 1.1//EN" "http://www.w3.org/Graphics/SVG/1.1/DTD/svg11.dtd"><svg xmlns="http://www.w3.org/2000/svg" xmlns:xlink="http://www.w3.org/1999/xlink" viewBox="0 0 24 24" width="480px" height="480px"><path fill="#000000" d="M11.361,19.035c-1.002,0.554-2.147,0.87-3.362,0.87c-1.214,0-2.359-0.315-3.361-0.87  C2.474,19.622,0.777,21.011,0,24h16C15.223,21.011,13.527,19.621,11.361,19.035z"/><path fill="#000000" d="M8,18c3.314,0,6-2.686,6-6s-2.686-6-6-6s-6,2.686-6,6S4.686,18,8,18z M12.011,14  C11.273,15.477,9.763,16.5,8,16.5S4.727,15.477,3.989,14H12.011z"/><path fill="#000000" d="M16.023,6.969H24V0L13.991,0L14,9L16.023,6.969z M22,3h-6V2h6V3z M20,5h-4V4h4V5z"/></svg>