<?xml version="1.0" encoding="iso-8859-1"?>
<!-- Generator: Adobe Illustrator 23.0.3, SVG Export Plug-In . SVG Version: 6.00 Build 0)  -->
<svg version="1.1" id="Layer_1" xmlns="http://www.w3.org/2000/svg" xmlns:xlink="http://www.w3.org/1999/xlink" x="0px" y="0px"
	 viewBox="0 0 50 50" style="enable-background:new 0 0 50 50;" xml:space="preserve">
<path style="fill:none;stroke:#000000;stroke-width:2;stroke-linecap:round;stroke-linejoin:round;stroke-miterlimit:2.6131;" d="
	M42.644,42.743c0-0.882,0-1.392,0-2.142c0.356-0.195,1.618-1.513,1.618-2.703c0.28-0.023,0.721-0.309,0.85-1.434
	c0.069-0.604-0.149-0.985-0.375-1.051c0.89-2.765,0.404-6.362-3.453-6.362l-0.756-1.05c-5.318,0-6.517,3.281-5.29,7.393
	c-0.167,0.106-0.445,0.447-0.375,1.051c0.13,1.125,0.571,1.411,0.85,1.434c0,1.26,1.282,2.527,1.64,2.721c0,0.909,0,1.329,0,2.142
	C36.499,45.14,31.266,44.378,31,49h18C48.731,44.379,43.498,45.139,42.644,42.743z"/>
<g>
	<path d="M33.011,39.608c-0.155-0.18-0.296-0.385-0.428-0.608H9.67C5.44,39,2,35.56,2,31.331c0-5.555,3.926-7.469,6.267-8.116
		l0.761-0.21L8.987,22c0-2.851,2.001-5,4.653-5c1.408,0,2.666,0.484,3.543,1.362l1.104,1.105l0.542-1.464
		C20.429,13.684,24.323,11,28.993,11C35.165,11,40,15.832,40,22c0,0.414-0.03,0.853-0.095,1.382l-0.08,1.119h1.13
		c3.49,0,6.68,3.245,7.012,6.965c0.206,1.094,0.202,2.286-0.027,3.503c0.169,0.562,0.227,1.184,0.153,1.833
		c-0.044,0.386-0.124,0.731-0.22,1.056C49.197,36.303,50,34.295,50,32.099c0-4.729-3.614-8.92-8.016-9.521
		C41.995,22.379,42,22.188,42,22c0-7.29-5.713-13-13.007-13c-5.065,0-9.362,2.672-11.507,7.062C16.387,15.371,15.062,15,13.641,15
		c-3.637,0-6.416,2.766-6.639,6.512C2.54,23.021,0,26.562,0,31.331C0,36.663,4.338,41,9.67,41h24.027
		C33.427,40.577,33.184,40.113,33.011,39.608z"/>
</g>
</svg>