<?xml version="1.0" encoding="iso-8859-1"?>
<!-- Generator: Adobe Illustrator 24.0.2, SVG Export Plug-In . SVG Version: 6.00 Build 0)  -->
<svg version="1.1" id="Layer_1_1_" xmlns="http://www.w3.org/2000/svg" xmlns:xlink="http://www.w3.org/1999/xlink" x="0px" y="0px"
	 viewBox="0 0 48 48" style="enable-background:new 0 0 48 48;" xml:space="preserve">
<circle style="fill:none;stroke:#000000;stroke-width:3;stroke-miterlimit:5;" cx="15" cy="12" r="8.5"/>
<polygon points="15,34 18,27.5 12,27.5 "/>
<polygon points="15,30 11,40 19,40 "/>
<path d="M22.207,37.244C20.039,38.43,17.22,39,14.5,39C8.961,39,3,36.653,3,31.5v-1.521C3,29.448,3.331,29,3.722,29h19.752
	c0.568-1.089,1.286-2.084,2.127-2.965C25.493,26.025,25.388,26,25.278,26H3.722C1.67,26,0,27.785,0,29.979V31.5
	c0,3.281,1.696,6.132,4.776,8.027C7.367,41.122,10.82,42,14.5,42c2.969,0,6.028-0.6,8.571-1.837
	C22.671,39.241,22.384,38.262,22.207,37.244z"/>
<path d="M44.105,32.118l0.895-0.861c-0.401-1.147-0.981-2.205-1.706-3.139l-1.204,0.356c-2.195,0.649-4.485-0.673-5.022-2.898
	l-0.345-1.432C36.162,24.049,35.586,24,35,24c-0.587,0-1.162,0.049-1.723,0.144l-0.345,1.432c-0.537,2.225-2.827,3.547-5.022,2.898
	l-1.204-0.356c-0.724,0.933-1.305,1.992-1.706,3.139l0.895,0.861c1.635,1.574,1.635,4.191,0,5.765L25,38.743
	c0.401,1.147,0.981,2.205,1.706,3.139l1.204-0.356c2.195-0.649,4.485,0.673,5.022,2.898l0.345,1.432C33.838,45.951,34.413,46,35,46
	c0.587,0,1.162-0.049,1.723-0.144l0.345-1.432c0.537-2.225,2.827-3.547,5.022-2.898l1.204,0.356
	c0.724-0.933,1.305-1.992,1.706-3.139l-0.895-0.861C42.469,36.309,42.469,33.691,44.105,32.118z M35,38c-1.657,0-3-1.343-3-3
	c0-1.657,1.343-3,3-3c1.657,0,3,1.343,3,3C38,36.657,36.657,38,35,38z"/>
</svg>