<?xml version="1.0" encoding="iso-8859-1"?><!-- Generator: Adobe Illustrator 23.0.1, SVG Export Plug-In . SVG Version: 6.00 Build 0)  --><svg xmlns="http://www.w3.org/2000/svg" xmlns:xlink="http://www.w3.org/1999/xlink" viewBox="0 0 24 24" width="384px" height="384px"><g id="Outlined_3_"><path d="M12,1L3,5c0,0,0,4,0,6c0,7.83,6.439,11.486,9,12c2.561-0.514,9-4.17,9-12c0-2,0-6,0-6L12,1z M19,11c0,6.134-4.785,9.254-7,9.937C9.785,20.254,5,17.134,5,11V6.3l7-3.111L19,6.3V11z"/></g><g id="Outlined_4_"><path d="M12,12.25c1.792,0,3.25-1.458,3.25-3.25S13.792,5.75,12,5.75S8.75,7.208,8.75,9S10.208,12.25,12,12.25z M12,7.75c0.689,0,1.25,0.561,1.25,1.25s-0.561,1.25-1.25,1.25S10.75,9.689,10.75,9S11.311,7.75,12,7.75z"/><path d="M6.449,17.755C7.229,17.17,8.897,16,12,16s4.771,1.17,5.551,1.755c0.191-0.184,0.376-0.376,0.55-0.58l0.678-0.799l-0.829-0.641C16.398,14.538,13.537,14,12,14s-4.398,0.538-5.949,1.735l-0.829,0.641L5.9,17.175C6.073,17.379,6.258,17.571,6.449,17.755z"/></g></svg>