<?xml version="1.0" encoding="utf-8"?><!-- Generator: Adobe Illustrator 18.1.1, SVG Export Plug-In . SVG Version: 6.00 Build 0)  --><svg xmlns="http://www.w3.org/2000/svg" xmlns:xlink="http://www.w3.org/1999/xlink" viewBox="0 0 50 50" width="500px" height="500px"><path d="M32.2,41H4.1c0.8-4,4.3-5.4,7.7-6.7c2.7-1.1,5.3-2.1,6.1-4.4l0.1-0.2v-4.4l0-0.6l-0.5-0.3c-0.4-0.3-1.4-2.2-1.6-4.1l-0.1-0.8L15,19.4c-0.1,0-0.6-0.4-0.8-1.9c-0.1-0.8,0.3-1.1,0.3-1.1l0.6-0.4l-0.2-0.7c-1.2-4.7-1-8.3,0.6-10.4c1.2-1.6,3.4-2.5,6.4-2.6c1.9,0,3.3,0.5,3.7,1.3l0.2,0.4l0.5,0.1c1.3,0.2,2.3,0.8,2.9,1.7c1.5,2.5,0.6,7-0.1,9.3L28.9,16l0.6,0.4c0,0,0.4,0.3,0.3,1.1c-0.2,1.6-0.7,1.9-0.8,1.9l-0.8,0.1l-0.1,0.8c-0.2,1.9-1.2,3.9-1.6,4.1L26,24.7v5l0.1,0.2c0.9,2.3,3.4,3.3,6.1,4.4c2.8,1.1,5.7,2.3,7.1,4.9l0.5,0.5l1.2-1.5c-1.7-3.2-5.1-4.6-8-5.7c-2.3-0.9-4.3-1.7-4.9-3.1v-3.6c0.9-0.9,1.7-2.9,2-4.6c0.7-0.4,1.6-1.3,1.8-3.5c0.1-1.1-0.2-1.9-0.6-2.5c0.6-2,1.8-7.1-0.3-10.4c-0.9-1.4-2.2-2.3-3.9-2.6c-0.9-1.2-2.8-1.8-5.2-1.8c-3.7,0.1-6.4,1.2-8,3.3c-1.9,2.5-2.3,6.4-1.1,11.5c-0.5,0.6-0.8,1.4-0.7,2.5c0.3,2.2,1.1,3.1,1.8,3.5c0.3,1.7,1.1,3.7,2,4.6v3.6c-0.6,1.4-2.6,2.2-4.9,3.1C7.2,34,2.4,35.9,2,41.9L1.9,43h32.5L32.2,41z"/><polyline fill="none" stroke="#000000" stroke-width="2" stroke-linecap="square" stroke-miterlimit="10" points="34,38.6 40.2,44 48.6,33.3 "/></svg>