<?xml version="1.0" encoding="iso-8859-1"?>
<!-- Generator: Adobe Illustrator 23.0.3, SVG Export Plug-In . SVG Version: 6.00 Build 0)  -->
<svg version="1.1" id="Layer_2" xmlns="http://www.w3.org/2000/svg" xmlns:xlink="http://www.w3.org/1999/xlink" x="0px" y="0px"
	 viewBox="0 0 48 48" style="enable-background:new 0 0 48 48;" xml:space="preserve">
<path style="fill:none;stroke:#000000;stroke-width:3;stroke-linecap:round;stroke-linejoin:round;stroke-miterlimit:10;" d="
	M17.664,19.667C16.318,18.163,15.5,16.177,15.5,14c0-4.694,3.806-8.5,8.5-8.5c0.15,0,0.298,0.004,0.446,0.012"/>
<path style="fill:none;stroke:#000000;stroke-width:3;stroke-linecap:round;stroke-linejoin:round;stroke-miterlimit:10;" d="
	M29.24,7.306C31.225,8.862,32.5,11.282,32.5,14c0,4.694-3.806,8.5-8.5,8.5c-0.618,0-1.221-0.066-1.801-0.191"/>
<path style="fill:none;stroke:#000000;stroke-width:3;stroke-linecap:round;stroke-linejoin:round;stroke-miterlimit:10;" d="
	M28.795,42.032C34.729,40.815,38.5,37.39,38.5,33.7v0c0-2.32-1.88-4.2-4.2-4.2H19.128"/>
<path style="fill:none;stroke:#000000;stroke-width:3;stroke-linecap:round;stroke-linejoin:round;stroke-miterlimit:10;" d="
	M15.011,29.5H13.7c-2.32,0-4.2,1.88-4.2,4.2v0c0,4.606,5.876,8.8,14.5,8.8c0.121,0,0.242-0.001,0.362-0.002"/>
</svg>