<?xml version="1.0" encoding="iso-8859-1"?>
<!-- Generator: Adobe Illustrator 25.4.1, SVG Export Plug-In . SVG Version: 6.00 Build 0)  -->
<svg version="1.1" baseProfile="basic" id="Layer_1"
	 xmlns="http://www.w3.org/2000/svg" xmlns:xlink="http://www.w3.org/1999/xlink" x="0px" y="0px" viewBox="0 0 24 24"
	 xml:space="preserve">
<path style="fill:none;stroke:#000000;stroke-linecap:square;stroke-miterlimit:10;" d="M20.226,6.247l-0.419-0.65l-2.215,0.688
	c-0.947-0.927-2.124-1.615-3.436-1.982L13.687,2c0,0-3.374,0-3.374,0L9.845,4.302C8.532,4.669,7.356,5.357,6.408,6.284L4.184,5.538
	L2.496,8.461c0,0.001,0,0.001,0,0.002l1.76,1.557C4.095,10.654,4,11.315,4,12s0.095,1.346,0.257,1.981l-1.761,1.557c0,0,0,0,0,0
	l1.911,2.847l0.96-0.353"/>
<path d="M22,9H8v14h14V9z M17.357,11.35L13,15.727l-2.341-2.361l0.707-0.707L13,14.293l3.65-3.65L17.357,11.35z M17.357,16.35
	L13,20.727l-2.341-2.361l0.707-0.707L13,19.293l3.65-3.65L17.357,16.35z"/>
</svg>