<?xml version="1.0" encoding="iso-8859-1"?>
<!-- Generator: Adobe Illustrator 23.0.3, SVG Export Plug-In . SVG Version: 6.00 Build 0)  -->
<svg version="1.1" id="Layer_1" xmlns="http://www.w3.org/2000/svg" xmlns:xlink="http://www.w3.org/1999/xlink" x="0px" y="0px"
	 viewBox="0 0 48 48" style="enable-background:new 0 0 48 48;" xml:space="preserve">
<path style="fill:none;stroke:#000000;stroke-width:3;stroke-linecap:round;stroke-linejoin:round;stroke-miterlimit:5;" d="
	M10.09,15.117C9.709,14.152,9.5,13.101,9.5,12c0-4.694,3.806-8.5,8.5-8.5"/>
<path style="fill:none;stroke:#000000;stroke-width:3;stroke-linecap:round;stroke-linejoin:round;stroke-miterlimit:5;" d="
	M25.048,7.248C25.965,8.604,26.5,10.24,26.5,12c0,4.694-3.806,8.5-8.5,8.5c-0.944,0-1.853-0.154-2.701-0.438"/>
<path style="fill:none;stroke:#000000;stroke-width:3;stroke-linecap:round;stroke-linejoin:round;stroke-miterlimit:10;" d="
	M20.819,40.347C12.763,41.231,3.5,38.282,3.5,31.5v0c0-2.209,1.791-4,4-4h15.415"/>
<line style="fill:none;stroke:#000000;stroke-width:3;stroke-linecap:round;stroke-linejoin:round;stroke-miterlimit:10;" x1="37.5" y1="39.5" x2="44.5" y2="46.5"/>
<path style="fill:none;stroke:#000000;stroke-width:3;stroke-linecap:round;stroke-linejoin:round;stroke-miterlimit:10;" d="
	M25.5,34.5c0-3.9,3.1-7,7-7s7,3.1,7,7s-3.1,7-7,7c-2,0-3.8-0.9-5.1-2.2"/>
</svg>