<?xml version="1.0" encoding="utf-8"?><!-- Generator: Adobe Illustrator 21.1.0, SVG Export Plug-In . SVG Version: 6.00 Build 0)  --><svg xmlns="http://www.w3.org/2000/svg" xmlns:xlink="http://www.w3.org/1999/xlink" viewBox="0 0 128 128" width="512px" height="512px"><g><path d="M15.5,57.5c0,11.3,9.2,20.5,20.5,20.5c3.7,0,7.3-1,10.4-2.9c1.4-0.8,1.9-2.7,1-4.1c-0.8-1.4-2.7-1.9-4.1-1c-2.2,1.3-4.8,2-7.4,2c-8,0-14.5-6.5-14.5-14.5c0-7.6,5.9-13.9,13.5-14.4c1.7-0.1,2.9-1.5,2.8-3.2c-0.1-1.7-1.5-2.9-3.2-2.8C23.9,37.7,15.5,46.7,15.5,57.5z"/><path d="M2.1,108.6c0.5,0.3,1,0.4,1.5,0.4c1,0,2.1-0.5,2.6-1.5c4.4-7.8,11.9-13.7,20.6-16.1c1.6-0.4,2.5-2.1,2.1-3.7c-0.4-1.6-2.1-2.5-3.7-2.1C15,88.5,6.2,95.4,1,104.5C0.2,106,0.7,107.8,2.1,108.6z"/><path d="M112.5,57.5c0-10.7-8.4-19.7-19.1-20.4c-1.6-0.1-3.1,1.1-3.2,2.8s1.1,3.1,2.8,3.2c7.6,0.5,13.5,6.8,13.5,14.4c0,8-6.5,14.5-14.5,14.5c-2.6,0-5.2-0.7-7.4-2c-1.4-0.8-3.3-0.4-4.1,1c-0.8,1.4-0.4,3.3,1,4.1c3.1,1.9,6.8,2.9,10.4,2.9C103.3,77.9,112.5,68.8,112.5,57.5z"/><path d="M102.8,85.6c-1.6-0.4-3.3,0.5-3.7,2.1c-0.4,1.6,0.5,3.3,2.1,3.7c8.6,2.4,16.1,8.3,20.6,16.1c0.6,1,1.6,1.5,2.6,1.5c0.5,0,1-0.1,1.5-0.4c1.4-0.8,1.9-2.6,1.1-4.1C121.8,95.4,113,88.5,102.8,85.6z"/><path d="M64,27c-12.7,0-23,10.3-23,23s10.3,23,23,23s23-10.3,23-23S76.7,27,64,27z M64,67c-9.4,0-17-7.6-17-17s7.6-17,17-17s17,7.6,17,17S73.4,67,64,67z"/><path d="M25.5,108.6c0.5,0.3,1,0.4,1.5,0.4c1,0,2.1-0.5,2.6-1.5c7-12.4,20.2-20.1,34.5-20.1c14.2,0,27.4,7.7,34.5,20.1c0.8,1.4,2.6,1.9,4.1,1.1c1.4-0.8,1.9-2.6,1.1-4.1C95.6,90.3,80.4,81.4,64,81.4c-16.4,0-31.6,8.9-39.7,23.1C23.5,106,24,107.8,25.5,108.6z"/></g></svg>