<?xml version="1.0" encoding="iso-8859-1"?>
<!-- Generator: Adobe Illustrator 25.2.3, SVG Export Plug-In . SVG Version: 6.00 Build 0)  -->
<svg version="1.1" baseProfile="basic" id="Layer_1"
	 xmlns="http://www.w3.org/2000/svg" xmlns:xlink="http://www.w3.org/1999/xlink" x="0px" y="0px" viewBox="0 0 48 48"
	 xml:space="preserve">
<path d="M44.78,27C43.33,37.16,34.56,45,24,45c-6.57,0-12.63-2.99-16.64-8.19l0.97-0.75c1.18-0.91,2.84-0.8,3.92,0.23
	C15.39,39.31,19.56,41,24,41c8.35,0,15.31-6.05,16.73-14H44.78z"/>
<path d="M24.111,24h-0.222C18.98,24,15,27.98,15,32.889V34h18v-1.111C33,27.98,29.02,24,24.111,24z"/>
<path d="M25,22h-6v-6c0-2.209,1.791-4,4-4h6v6C29,20.209,27.209,22,25,22z"/>
<polygon points="38,24 48,24 43,16 "/>
<path d="M40.64,11.19l-0.97,0.75c-1.18,0.91-2.84,0.8-3.92-0.23C32.61,8.69,28.44,7,24,7C15.65,7,8.69,13.05,7.28,21H3.22
	C4.67,10.84,13.44,3,24,3C30.57,3,36.63,5.99,40.64,11.19z"/>
<polygon points="10,24 0,24 5,32 "/>
</svg>