<?xml version="1.0" encoding="utf-8"?><!-- Generator: Adobe Illustrator 17.1.0, SVG Export Plug-In . SVG Version: 6.00 Build 0)  --><!DOCTYPE svg PUBLIC "-//W3C//DTD SVG 1.0//EN" "http://www.w3.org/TR/2001/REC-SVG-20010904/DTD/svg10.dtd"><svg xmlns="http://www.w3.org/2000/svg" xmlns:xlink="http://www.w3.org/1999/xlink" viewBox="0 0 50 50" width="500px" height="500px"><g><g><path d="M22.1,45.6c0-3.7,2.4-7.8,2.4-7.8l-1.6-1.3c0-1.2,2.1-2.5,2.1-2.5s2.1,1.3,2.1,2.5l-1.6,1.3c0,0,2.4,4,2.4,7.8L22.1,45.6z"/></g></g><rect style="fill:none;" width="50" height="50"/><polyline style="fill:none;stroke:#000000;stroke-width:2;stroke-linecap:round;stroke-miterlimit:10;" points="20.5,31.9 25,34.4 29.5,31.9 "/><polyline style="fill:none;stroke:#000000;stroke-width:2;stroke-linecap:round;stroke-linejoin:round;stroke-miterlimit:10;" points="25.3,34.4 29,39 32.3,35 "/><polyline style="fill:none;stroke:#000000;stroke-width:2;stroke-linecap:round;stroke-linejoin:round;stroke-miterlimit:10;" points="24.7,34.4 21,39 17.7,35 "/><path style="fill:none;stroke:#000000;stroke-width:2;stroke-linecap:round;stroke-miterlimit:10;" d="M29.9,32.5c-0.1-1.6-0.1-2.7-0.1-4.2c0.7-0.4,2-2.8,2.3-4.9c0.6,0,1.5-0.6,1.7-2.8c0.1-1.2-0.4-1.9-0.8-2.1C34,15.7,35.9,7,29.5,6.1c-0.7-1.2-2.4-1.8-4.6-1.8c-8.9,0.2-9.9,6.7-8,14.2c-0.3,0.2-0.9,0.9-0.8,2.1c0.3,2.2,1.2,2.8,1.7,2.8c0.2,2.1,1.6,4.5,2.3,4.9c0,1.5,0.1,2.6-0.1,4.2C18.4,37.2,6.5,35.9,6,45h38C43.5,35.9,31.7,37.2,29.9,32.5z"/></svg>