<?xml version="1.0" encoding="iso-8859-1"?>
<!-- Generator: Adobe Illustrator 23.0.3, SVG Export Plug-In . SVG Version: 6.00 Build 0)  -->
<svg version="1.1" id="Layer_1" xmlns="http://www.w3.org/2000/svg" xmlns:xlink="http://www.w3.org/1999/xlink" x="0px" y="0px"
	 viewBox="0 0 48 48" style="enable-background:new 0 0 48 48;" xml:space="preserve">
<path style="fill:none;stroke:#000000;stroke-width:3;stroke-linecap:round;stroke-linejoin:round;stroke-miterlimit:10;" d="
	M21.359,26.878C21.451,27.237,21.5,27.613,21.5,28c0,2.485-2.015,4.5-4.5,4.5s-4.5-2.015-4.5-4.5s2.015-4.5,4.5-4.5"/>
<path style="fill:none;stroke:#000000;stroke-width:3;stroke-linecap:round;stroke-linejoin:round;stroke-miterlimit:10;" d="
	M34.649,10.5H30.5c-1.657,0-3,1.343-3,3v8.234c0,0.777,0.848,1.257,1.514,0.857L32.5,20.5h8c1.657,0,3-1.343,3-3v-4
	c0-1.657-1.343-3-3-3h-0.713"/>
<path style="fill:none;stroke:#000000;stroke-width:3;stroke-linecap:round;stroke-linejoin:round;stroke-miterlimit:10;" d="
	M12.766,15.5H8.5c-1.657,0-3-1.343-3-3v-4c0-1.657,1.343-3,3-3h10c1.657,0,3,1.343,3,3v8.234c0,0.777-0.848,1.257-1.514,0.857
	l-3.351-2.011"/>
<path style="fill:none;stroke:#000000;stroke-width:3;stroke-linecap:round;stroke-linejoin:round;stroke-miterlimit:10;" d="
	M15.936,37.5H11.5c-1.105,0-2,0.895-2,2c0,3,2.791,4,5,4h5c2.209,0,5-1,5-4c0-1.105-0.895-2-2-2h-1.543"/>
</svg>