<?xml version="1.0" encoding="iso-8859-1"?>
<!-- Generator: Adobe Illustrator 29.3.1, SVG Export Plug-In . SVG Version: 9.03 Build 55982)  -->
<svg version="1.1" baseProfile="basic" id="Layer_1"
	 xmlns="http://www.w3.org/2000/svg" xmlns:xlink="http://www.w3.org/1999/xlink" x="0px" y="0px" viewBox="0 0 24 24"
	 xml:space="preserve">
<path d="M11,18.5H5.5v-0.944l4.809-2.056h1.32c0.418-0.955,1.031-1.802,1.785-2.5H9.797L3,15.905V21h8.436
	C11.159,20.217,11,19.378,11,18.5z"/>
<circle style="fill:none;stroke:#000000;stroke-width:2.5;stroke-miterlimit:10;" cx="18.5" cy="18.5" r="3.25"/>
<polygon points="20.083,15 19.677,13 17.323,13 16.917,15 "/>
<polygon points="16.26,15.379 14.325,14.731 13.149,16.769 14.677,18.121 "/>
<polygon points="14.677,18.879 13.149,20.231 14.325,22.269 16.26,21.621 "/>
<polygon points="16.917,22 17.323,24 19.677,24 20.083,22 "/>
<polygon points="20.74,21.621 22.675,22.269 23.851,20.231 22.323,18.879 "/>
<polygon points="22.323,18.121 23.851,16.769 22.675,14.731 20.74,15.379 "/>
<path style="fill:none;stroke:#000000;stroke-width:2.5;stroke-linecap:square;stroke-miterlimit:10;" d="M14.75,6
	c0-1.519-1.231-2.75-2.75-2.75S9.25,4.481,9.25,6c0,0.171,0,0.829,0,1c0,1.519,1.231,2.75,2.75,2.75S14.75,8.519,14.75,7
	C14.75,6.829,14.75,6.171,14.75,6z"/>
</svg>