<?xml version="1.0" encoding="iso-8859-1"?>
<!-- Generator: Adobe Illustrator 27.0.0, SVG Export Plug-In . SVG Version: 6.00 Build 0)  -->
<svg version="1.1" baseProfile="basic" xmlns="http://www.w3.org/2000/svg" xmlns:xlink="http://www.w3.org/1999/xlink" x="0px"
	 y="0px" viewBox="0 0 64 64" xml:space="preserve">
<g id="Layer_1">
</g>
<g id="Layer_2">
</g>
<g id="Layer_3">
</g>
<g id="Layer_4">
</g>
<g id="Layer_5">
</g>
<g id="Layer_6">
</g>
<g id="Layer_7">
</g>
<g id="Layer_8">
</g>
<g id="Layer_9">
</g>
<g id="Layer_10">
</g>
<g id="Layer_11">
	<path d="M31.535,56c0,0,2.326,0,2.465,0c8.175,0,14.927-5.902,15.875-13.535L54.61,41.2l4-1.06v-4v-7.48
		c0-13.46-11.35-24.41-25.3-24.41c-0.52,0-4.68,0-4.68,0C15.26,4.25,4.39,15.2,4.39,28.66v11.21l10.777,2.875
		C16.259,50.217,23.173,56,31.535,56z M34,52c-6.608,0-11.986-5.062-12-11.289l0.74-8.604l7.662,3.831l0.899-4.096l8.604,8.479
		l1.658-8.972l4.43,9.698C45.791,47.119,40.489,52,34,52z M12.05,28.66c0-11.25,9.54-20.41,21.26-20.41
		c11.72,0,21.25,9.16,21.25,20.41v8.553l-5.276,1.409l-9.349-20.471L37.344,32.18l-8.396-8.271l-1.351,6.154l-8.338-4.169
		l-1.082,12.588L12.05,36.85V28.66z"/>
</g>
<g id="Layer_12">
</g>
<g id="Layer_13">
</g>
<g id="Layer_14">
</g>
</svg>