<?xml version="1.0" encoding="iso-8859-1"?><!-- Generator: Adobe Illustrator 21.0.2, SVG Export Plug-In . SVG Version: 6.00 Build 0)  --><svg xmlns="http://www.w3.org/2000/svg" xmlns:xlink="http://www.w3.org/1999/xlink" viewBox="0 0 80 80" width="480px" height="480px"><path style="fill:none;stroke:#000000;stroke-width:2;stroke-miterlimit:10;" d="M54,32c0,0,1-5.603,1-9c0-6.703-4.849-9-8-9c0,0-1.972-4-8.274-4C29.79,10,22,20,22,20s3.274,0.968,3.274,5.752C25.274,29.355,26,32,26,32"/><path d="M16,69v-4c0-5.114,12.465-9.701,17.268-11.036l-0.535-1.928c-0.187,0.053-4.634,1.298-9.16,3.435C17.221,58.471,14,61.677,14,65v6h45l-2-2H16z"/><circle cx="44" cy="66" r="1"/><circle cx="45.5" cy="34.5" r="1.5"/><circle cx="34.5" cy="34.5" r="1.5"/><circle cx="40" cy="66" r="1"/><circle cx="36" cy="66" r="1"/><circle cx="32" cy="66" r="1"/><circle cx="28" cy="66" r="1"/><circle cx="24" cy="66" r="1"/><circle cx="20" cy="66" r="1"/><circle cx="52" cy="66" r="1"/><circle cx="48" cy="66" r="1"/><path style="fill:none;stroke:#000000;stroke-width:2;stroke-miterlimit:10;" d="M51.058,57.552L47,47l10.552,4.058l20.26,20.26c1.585,1.585,1.585,4.154,0,5.739l-0.754,0.754c-1.585,1.585-4.154,1.585-5.739,0L51.058,57.552z"/><polygon points="48.948,51.545 47,47 51.545,48.948 "/><rect x="66.698" y="68.419" transform="matrix(0.7071 -0.7071 0.7071 0.7071 -29.5289 71.2891)" style="fill:none;stroke:#000000;stroke-width:2;stroke-miterlimit:10;" width="9.183" height="5.739"/><path style="fill:none;stroke:#000000;stroke-width:2;stroke-miterlimit:10;" d="M57.552,51.058c0,0,0,1.623-0.812,2.435c-0.812,0.812-2.435,0.812-2.435,0.812s0,1.623-0.812,2.435c-0.812,0.812-2.435,0.812-2.435,0.812"/><path d="M44.991,56.991C44.032,57.937,42.418,59,40,59c-3.756,0-5.562-2.538-6-3.262V48h-2v8.236l0.105,0.211C32.199,56.633,34.446,61,40,61c3.099,0,5.166-1.359,6.406-2.594L44.991,56.991z"/><path d="M43.41,48.809c-0.476,0.155-0.963,0.288-1.469,0.378l-0.284,0.051l-0.213,0.193c-0.809,0.734-2.081,0.734-2.89,0l-0.213-0.193l-0.284-0.051C32.81,48.25,29,43.7,29,38.368V37h-1.813c-0.31,0-0.562-0.225-0.562-0.5c0-0.312-0.1-0.661-0.29-1.305C26.209,34.773,26,34.067,26,33.8c0-0.399,0.322-0.731,0.741-0.79c0.111,0.053,0.335,0.169,0.753,0.414L29,34.307v-3.254C29,26.13,34.298,24,37,24c5.653,0,8.94-1.944,10.155-2.84C48.277,21.734,51,23.585,51,28v6.307l1.506-0.883c0.418-0.245,0.643-0.361,0.753-0.414C53.678,33.068,54,33.4,54,33.8c0,0.268-0.209,0.974-0.335,1.396c-0.19,0.644-0.29,0.993-0.29,1.305c0,0.275-0.252,0.5-0.563,0.5H51v1.368c0,1.932-0.506,3.757-1.393,5.349l1.881,0.724c0.871-1.647,1.404-3.494,1.497-5.447c1.333-0.087,2.39-1.171,2.388-2.453c0.014-0.117,0.127-0.498,0.209-0.776C55.788,35.072,56,34.357,56,33.8c0-1.544-1.29-2.8-2.875-2.8c-0.042,0-0.083,0.002-0.125,0.006V28c0-5.563-3.716-8.286-5.681-8.947l-0.574-0.193l-0.437,0.419C46.28,19.306,43.395,22,37,22c-3.479,0-9.968,2.643-10,9.006C26.958,31.002,26.917,31,26.875,31C25.29,31,24,32.256,24,33.8c0,0.558,0.212,1.272,0.417,1.965c0.083,0.278,0.195,0.659,0.208,0.735c0,1.322,1.057,2.407,2.39,2.494c0.283,5.939,4.564,10.939,10.424,12.11C38.174,51.684,39.072,52,40,52s1.826-0.316,2.561-0.896c0.538-0.108,1.058-0.258,1.568-0.428L43.41,48.809z"/></svg>