<?xml version="1.0" encoding="iso-8859-1"?><!-- Generator: Adobe Illustrator 22.1.0, SVG Export Plug-In . SVG Version: 6.00 Build 0)  --><svg xmlns="http://www.w3.org/2000/svg" xmlns:xlink="http://www.w3.org/1999/xlink" viewBox="0 0 50 50" width="500px" height="500px"><path style="fill:none;stroke:#000000;stroke-width:2;stroke-linecap:round;stroke-miterlimit:10;" d="M22,23c0-4.971-3.079-9-8.05-9S6,18.029,6,23v9l3,1.5L10,47h8l1-13.5l3-1.5V23z"/><circle style="fill:none;stroke:#000000;stroke-width:2;stroke-miterlimit:10;" cx="14" cy="7" r="4"/><circle cx="36" cy="21" r="2"/><path style="fill:none;stroke:#000000;stroke-width:2;stroke-miterlimit:10;" d="M44,24c0-4.418-3.582-8-8-8s-8,3.582-8,8c0,3.621,2.407,6.677,5.708,7.663l0.868,0.813l-2.121,2.069l2.121,2.121l-2.121,2.121l2.121,2.121l-2.121,2.121l3.536,3.536L40,42.322V30.921C42.389,29.537,44,26.959,44,24z"/></svg>