<?xml version="1.0" encoding="iso-8859-1"?><!-- Generator: Adobe Illustrator 21.1.0, SVG Export Plug-In . SVG Version: 6.00 Build 0)  --><svg xmlns="http://www.w3.org/2000/svg" xmlns:xlink="http://www.w3.org/1999/xlink" viewBox="0 0 50 50" width="500px" height="500px"><path style="fill:none;stroke:#000000;stroke-width:2;stroke-linecap:round;stroke-miterlimit:10;" d="M4.1,18.033C7.033,9.233,15.283,3,25,3c12.192,0,22,9.808,22,22"/><path style="fill:none;stroke:#000000;stroke-width:2;stroke-linecap:round;stroke-miterlimit:10;" d="M45.9,31.967C42.967,40.675,34.717,47,25,47C12.808,47,3,37.192,3,25"/><path style="fill:none;stroke:#000000;stroke-width:2;stroke-linecap:round;stroke-miterlimit:10;" d="M39.496,40.582c-3.295-2.939-9.338-3.206-10.496-6.234v-3.74c0.623-0.356,2.17-2.491,2.438-4.361c0.534,0,1.384-0.534,1.563-2.494c0.089-1.069-0.629-1.695-0.985-1.873c0.391-1.096,0.98-3.207,0.985-5.297c0.007-2.665-0.805-5.134-4-5.583c-0.623-1.069-2.041-2-4-2c-5.839,0.131-8.059,3.541-8.042,7.875c0.006,1.549,0.273,3.247,0.718,5.006c-0.267,0.178-0.766,0.802-0.676,1.87c0.267,1.959,1.033,2.494,1.478,2.494c0.178,1.87,1.899,4.008,2.522,4.364v3.74c-1.158,3.028-7.42,3.295-10.804,6.145"/><polyline style="fill:none;stroke:#000000;stroke-width:2;stroke-linecap:round;stroke-miterlimit:10;" points="3,10.333 3,18.583 10.333,15.833 "/><polyline style="fill:none;stroke:#000000;stroke-width:2;stroke-linecap:round;stroke-miterlimit:10;" points="47,39.667 47,31.417 39.667,34.167 "/></svg>