<?xml version="1.0" encoding="iso-8859-1"?>
<!-- Generator: Adobe Illustrator 23.0.3, SVG Export Plug-In . SVG Version: 6.00 Build 0)  -->
<svg version="1.1" xmlns="http://www.w3.org/2000/svg" xmlns:xlink="http://www.w3.org/1999/xlink" x="0px" y="0px"
	 viewBox="0 0 50 50" style="enable-background:new 0 0 50 50;" xml:space="preserve">
<g id="Layer_10" style="display:none;">
	<g style="display:inline;opacity:0.05;">
		<g>
			<circle style="fill:#FFFFFF;" cx="25" cy="25" r="21.5"/>
			<path d="M25,4c11.579,0,21,9.421,21,21s-9.421,21-21,21S4,36.579,4,25S13.421,4,25,4 M25,3C12.85,3,3,12.85,3,25s9.85,22,22,22
				s22-9.85,22-22S37.15,3,25,3L25,3z"/>
		</g>
		<g>
			<rect x="5.5" y="5.5" style="fill:#FFFFFF;" width="39" height="39"/>
			<path d="M44,6v38H6V6H44 M45,5H5v40h40V5L45,5z"/>
		</g>
	</g>
</g>
<g id="filled">
</g>
<g id="outlined">
</g>
<g id="rounded">
</g>
<g id="two_x5F_tone">
</g>
<g id="sharp">
</g>
<g id="ios_x5F_out">
</g>
<g id="ios_x5F_filled">
	<path d="M29,34.45V45H7c0.5-9.1,12.2-7.8,13.9-12.5H21c0,1.3,2.2,2.5,5,2.5C27.14,35,28.17,34.79,29,34.45z"/>
	<path d="M34.95,7.82c-0.85-1.41-2.15-2.29-3.87-2.63c-0.48-0.61-1.18-1.08-2.05-1.4c-0.88-0.32-1.94-0.49-3.15-0.49
		c-3.69,0.08-6.38,1.21-8.01,3.35c-1.92,2.53-2.28,6.42-1.07,11.55c-0.42,0.53-0.79,1.38-0.69,2.54c0.29,2.15,1.11,3.04,1.78,3.41
		c0.31,1.75,1.16,3.68,2.01,4.6v3.56c-0.61,1.37-2.6,2.17-4.89,3.09c-3.87,1.54-8.67,3.47-9.01,9.55L5.94,46H29v-2H8.12
		c0.73-3.99,4.23-5.39,7.63-6.75c2.7-1.08,5.25-2.1,6.09-4.41l0.06-0.16V28.3l0.02-0.57l-0.5-0.29c-0.38-0.28-1.44-2.24-1.63-4.13
		l-0.01-0.9h-0.91c-0.14-0.06-0.59-0.53-0.77-1.89c-0.01-0.06-0.01-0.12-0.01-0.18c0-0.7,0.36-1,0.36-1.01l0.59-0.39l-0.17-0.69
		c-1.21-4.78-1.01-8.28,0.6-10.39c1.24-1.63,3.41-2.49,6.43-2.56c1.89,0,3.25,0.48,3.74,1.3l0.24,0.42l0.48,0.07
		c1.33,0.19,2.27,0.77,2.88,1.77c1.45,2.39,0.69,6.88-0.18,9.3l-0.32,0.83l0.8,0.39c0.08,0.07,0.32,0.41,0.26,1.13
		c-0.13,1.48-0.6,1.87-0.7,1.89h-0.91l-0.09,0.91c-0.02,0.23-0.06,0.46-0.11,0.69h2.31c0.64-0.44,1.32-1.37,1.5-3.32
		c0.09-1.12-0.22-1.95-0.64-2.48C36,15.47,36.75,10.79,34.95,7.82z"/>
	<path d="M29,33.36v2.15C28.11,35.82,27.08,36,26,36c-3.36,0-6-1.54-6-3.5c0-0.55,0.45-1,1-1s1,0.45,1,1c0,0.46,1.51,1.5,4,1.5
		C27.31,34,28.33,33.7,29,33.36z"/>
	<path d="M48,49H32c-0.552,0-1-0.448-1-1V27c0-0.552,0.448-1,1-1h12l5,5v17C49,48.552,48.552,49,48,49z M43,32h4l-4-4V32z M45,45
		c0-0.552-0.447-1-1-1h-9c-0.553,0-1,0.448-1,1s0.447,1,1,1h9C44.553,46,45,45.552,45,45z M42,41c0-0.552-0.447-1-1-1h-6
		c-0.553,0-1,0.448-1,1s0.447,1,1,1h6C41.553,42,42,41.552,42,41z M46,37c0-0.552-0.447-1-1-1H35c-0.553,0-1,0.448-1,1s0.447,1,1,1
		h10C45.553,38,46,37.552,46,37z"/>
</g>
<g id="cute_x5F_color">
</g>
<g id="cute_x5F_out">
</g>
</svg>