<?xml version="1.0" encoding="iso-8859-1"?><!-- Generator: Adobe Illustrator 21.0.2, SVG Export Plug-In . SVG Version: 6.00 Build 0)  --><svg xmlns="http://www.w3.org/2000/svg" xmlns:xlink="http://www.w3.org/1999/xlink" viewBox="0 0 80 80" width="480px" height="480px"><g><g><path style="fill:none;stroke:#000000;stroke-width:2;stroke-miterlimit:10;" d="M46.125,32c-0.128,0-0.592,0.249-1.125,0.561V28c0-6.316-5-8-5-8s-3.129,3-10,3c-3.088,0-9,2.368-9,8.053v1.508C20.467,32.249,20.003,32,19.875,32C18.839,32,18,32.806,18,33.8c0,0.725,0.625,2.281,0.625,2.7c0,0.828,0.7,1.5,1.562,1.5H21v0.368c0,5.904,4.267,10.801,9.883,11.802C31.444,50.681,32.182,51,33,51s1.556-0.319,2.117-0.829C40.733,49.169,45,44.272,45,38.368V38h0.812c0.863,0,1.562-0.672,1.562-1.5c0-0.419,0.625-1.975,0.625-2.7C48,32.806,47.161,32,46.125,32z"/></g></g><path style="fill:none;stroke:#000000;stroke-width:2;stroke-miterlimit:10;" d="M47,32c0,0,1-5.603,1-9c0-6.703-4.849-9-8-9c0,0-1.972-4-8.274-4C22.79,10,15,20,15,20s3.274,0.968,3.274,5.752C18.274,29.355,19,32,19,32"/><path style="fill:none;stroke:#000000;stroke-width:2;stroke-miterlimit:10;" d="M50.808,57.281C45.795,54.61,40,53,40,53"/><path style="fill:none;stroke:#000000;stroke-width:2;stroke-miterlimit:10;" d="M26,53c0,0-18,5-18,12v5h42"/><path style="fill:none;stroke:#000000;stroke-width:2;stroke-miterlimit:10;" d="M40,48v8c0,0-2,4-7,4s-7-4-7-4v-8"/><circle cx="37" cy="66" r="1"/><circle cx="38.5" cy="34.5" r="1.5"/><circle cx="27.5" cy="34.5" r="1.5"/><circle cx="54.5" cy="34.5" r="1.5"/><circle cx="33" cy="66" r="1"/><circle cx="29" cy="66" r="1"/><circle cx="25" cy="66" r="1"/><circle cx="21" cy="66" r="1"/><circle cx="17" cy="66" r="1"/><circle cx="13" cy="66" r="1"/><circle cx="45" cy="66" r="1"/><circle cx="41" cy="66" r="1"/><path style="fill:none;stroke:#000000;stroke-width:2;stroke-miterlimit:10;" d="M42.534,45.777c1.42,1.198,3.154,2.037,5.06,2.377c0.505,0.459,1.169,0.746,1.905,0.746s1.401-0.287,1.905-0.746c5.054-0.901,8.895-5.309,8.895-10.622V37.2h0.731c0.777,0,1.406-0.604,1.406-1.35c0-0.377,0.563-1.777,0.563-2.43c0-0.895-0.755-1.62-1.688-1.62c-0.115,0-0.533,0.224-1.013,0.505V28.2c0-5.684-4.5-7.2-4.5-7.2s-2.433,2.333-7.742,2.662"/><path style="fill:none;stroke:#000000;stroke-width:2;stroke-miterlimit:10;" d="M62.1,31.8c0,0,0.9-5.043,0.9-8.1c0-6.033-4.364-8.1-7.2-8.1c0,0-1.775-3.6-7.447-3.6c-2.513,0-4.926,0.879-7.055,2.087"/><line style="fill:none;stroke:#000000;stroke-width:2;stroke-miterlimit:10;" x1="55.8" y1="46.2" x2="55.8" y2="51.4"/><circle style="fill:none;stroke:#000000;stroke-width:2;stroke-miterlimit:10;" cx="64" cy="64" r="15"/><line style="fill:none;stroke:#000000;stroke-width:2;stroke-miterlimit:10;" x1="64" y1="57" x2="64" y2="71"/><line style="fill:none;stroke:#000000;stroke-width:2;stroke-miterlimit:10;" x1="71" y1="64" x2="57" y2="64"/></svg>