<?xml version="1.0" encoding="iso-8859-1"?><!-- Generator: Adobe Illustrator 19.1.1, SVG Export Plug-In . SVG Version: 6.00 Build 0)  --><svg xmlns="http://www.w3.org/2000/svg" xmlns:xlink="http://www.w3.org/1999/xlink" viewBox="0 0 50 50" width="50px" height="50px"><path style="fill:none;stroke:#000000;stroke-width:2;stroke-miterlimit:10;" d="M47,30c0-6.1-5.8-11-13-11s-13,4.9-13,11s5.8,11,13,11c1.8,0,3.5-0.3,5-0.8l5,2.8l-1.4-4.8C45.3,36.2,47,33.3,47,30z"/><path d="M31,27.5c0,0.8-0.7,1.5-1.5,1.5S28,28.3,28,27.5s0.7-1.5,1.5-1.5S31,26.7,31,27.5z M38.5,26c-0.8,0-1.5,0.7-1.5,1.5s0.7,1.5,1.5,1.5s1.5-0.7,1.5-1.5S39.3,26,38.5,26z"/><path d="M21,30c0-6.1,5.8-11,13-11c0.658,0,1.298,0.054,1.929,0.133l-0.034-0.263C34.938,11.533,27.675,6,19,6C9.626,6,2,12.505,2,20.5c0,4.269,2.059,8.109,5.816,10.888l-2.639,7.917l8.25-5.107c2.56,0.807,5.75,1.029,8.73,0.554l0.111-0.018C21.464,33.299,21,31.7,21,30z M25,14c1.1,0,2,0.9,2,2c0,1.1-0.9,2-2,2s-2-0.9-2-2C23,14.9,23.9,14,25,14z M13,18c-1.1,0-2-0.9-2-2c0-1.1,0.9-2,2-2s2,0.9,2,2C15,17.1,14.1,18,13,18z"/></svg>