<?xml version="1.0" encoding="iso-8859-1"?>
<!-- Generator: Adobe Illustrator 24.2.3, SVG Export Plug-In . SVG Version: 6.00 Build 0)  -->
<svg version="1.1" id="Layer_1" xmlns="http://www.w3.org/2000/svg" xmlns:xlink="http://www.w3.org/1999/xlink" x="0px" y="0px"
	 viewBox="0 0 48 48" style="enable-background:new 0 0 48 48;" xml:space="preserve">
<path d="M13.5,17C10.467,17,8,14.532,8,11.5S10.467,6,13.5,6S19,8.467,19,11.5S16.533,17,13.5,17z"/>
<path d="M13.5,30c-4.107,0-6.536-1.467-7.85-2.698C4.601,26.318,4,24.918,4,23.46v-0.219C4,21.444,5.47,20,7.278,20h12.444
	C21.53,20,23,21.444,23,23.241v0.219c0,1.458-0.601,2.858-1.65,3.842C20.036,28.533,17.607,30,13.5,30z"/>
<path d="M34.5,30c-4.107,0-6.536-1.467-7.85-2.698C25.601,26.318,25,24.918,25,23.46v-0.219C25,21.444,26.47,20,28.278,20h12.444
	C42.53,20,44,21.444,44,23.241v0.219c0,1.458-0.601,2.858-1.65,3.842C41.036,28.533,38.607,30,34.5,30z"/>
<path d="M34.5,17c-3.033,0-5.5-2.468-5.5-5.5S31.467,6,34.5,6S40,8.467,40,11.5S37.533,17,34.5,17z"/>
<line style="fill:none;stroke:#000000;stroke-width:3;stroke-linecap:round;stroke-linejoin:round;stroke-miterlimit:10;" x1="28.5" y1="37.5" x2="40.786" y2="37.5"/>
<polyline style="fill:none;stroke:#000000;stroke-width:3;stroke-linecap:round;stroke-linejoin:round;stroke-miterlimit:10;" points="
	37.5,33.5 41.5,37.5 37.5,41.5 "/>
<line style="fill:none;stroke:#000000;stroke-width:3;stroke-linecap:round;stroke-linejoin:round;stroke-miterlimit:10;" x1="19.5" y1="37.5" x2="7.214" y2="37.5"/>
<polyline style="fill:none;stroke:#000000;stroke-width:3;stroke-linecap:round;stroke-linejoin:round;stroke-miterlimit:10;" points="
	10.5,33.5 6.5,37.5 10.5,41.5 "/>
</svg>