<?xml version="1.0" encoding="iso-8859-1"?>
<!-- Generator: Adobe Illustrator 22.1.0, SVG Export Plug-In . SVG Version: 6.00 Build 0)  -->
<svg version="1.1" id="Layer_1" xmlns="http://www.w3.org/2000/svg" xmlns:xlink="http://www.w3.org/1999/xlink" x="0px" y="0px"
	 viewBox="0 0 50 50" style="enable-background:new 0 0 50 50;" xml:space="preserve">
<g>
	<circle cx="13" cy="7" r="5"/>
	<path d="M31,3h-2.4c-1.4,0-2.1,0.8-2.6,1.3L17.2,13l0.005,0.037C17.134,13.03,17.064,13.021,17,13H9c-2.8,0-5,2.1-5,4.9v13.2
		c0,1,1,1.8,2,1.8s2-0.8,2-1.8V20.4c0-0.2,0.3-0.5,0.5-0.5S9,20.2,9,20.4v25c0,1.4,0.6,2.5,2,2.5s2-1.1,2-2.5v-13
		c0-0.3,0.2-0.5,0.5-0.5s0.5,0.2,0.5,0.5v7.1v1.8v4.3c0.1,1.3,0.7,2.2,2,2.2c1.4,0,2-1,2-2.5v-5.9V30v-9.6v-1.6L28.8,7H31
		c1.1,0,2-0.9,2-2C33,3.9,32.1,3,31,3z"/>
</g>
<path d="M33,8v10l6.578-11.352c0.492-0.989,1.693-1.391,2.682-0.899l0,0c0.989,0.492,1.391,1.693,0.899,2.682l-6.127,10.427L37,19v9
	l6.279,4.343C43.844,32.765,44,33.452,44,34v6c0,1.105-0.895,2-2,2s-2-0.895-2-2v-5.047L35,32h-4l-5,2.953V40c0,1.105-0.895,2-2,2
	s-2-0.895-2-2v-6c0-0.548,0.156-1.235,0.721-1.657L29,28V8H33z"/>
<circle cx="33" cy="38" r="4"/>
</svg>