<?xml version="1.0" encoding="iso-8859-1"?>
<!-- Generator: Adobe Illustrator 25.4.1, SVG Export Plug-In . SVG Version: 6.00 Build 0)  -->
<svg version="1.1" baseProfile="basic" id="Layer_1"
	 xmlns="http://www.w3.org/2000/svg" xmlns:xlink="http://www.w3.org/1999/xlink" x="0px" y="0px" viewBox="0 0 100 100"
	 xml:space="preserve">
<path style="fill:none;stroke:#000000;stroke-width:4;stroke-linecap:round;stroke-linejoin:round;stroke-miterlimit:10;" d="
	M70.749,44.466c2.383-17.018-14.152-23.247-28.113-24.583c-12.634-1.209-31.124,5.024-34.571,19.301
	C5.172,51.17,15.458,64.695,24.897,63.823c2.83,7.677-3.993,14.519-5.074,16.573c0,0,11.642-3.588,15.798-8.079
	c4.156-4.491,5.551-7.268,5.551-7.268s2.477,0.473,6.006,0.429"/>
<path style="fill-rule:evenodd;clip-rule:evenodd;" d="M42.009,54.187c-0.417,0.269-0.974,0.149-1.243-0.268
	c-0.269-0.417-0.149-0.974,0.268-1.243c0.417-0.269,0.974-0.149,1.243,0.268C42.546,53.361,42.426,53.918,42.009,54.187z"/>
<path style="fill-rule:evenodd;clip-rule:evenodd;" d="M31.923,54.275c-0.417,0.269-0.974,0.149-1.243-0.268
	c-0.269-0.417-0.149-0.974,0.268-1.243c0.417-0.269,0.974-0.149,1.243,0.268C32.46,53.449,32.34,54.006,31.923,54.275z"/>
<path style="fill-rule:evenodd;clip-rule:evenodd;" d="M38.918,46.895c-0.417,0.269-0.974,0.149-1.243-0.268
	c-0.269-0.417-0.149-0.974,0.268-1.243c0.417-0.269,0.974-0.149,1.243,0.268C39.455,46.069,39.335,46.626,38.918,46.895z"/>
<path style="fill:none;stroke:#000000;stroke-width:4;stroke-linecap:round;stroke-linejoin:round;stroke-miterlimit:10;" d="
	M76.13,45.042c0,0,17.302,1.687,17.059,16.978c-0.225,14.115-16.404,13.412-16.404,13.412s-1.374,6.64,2.128,8.791
	c-9.178,0.035-11.191-7.197-11.191-7.197s-9.421,0.98-14.525-4.614c-4.658-5.104-8.264-9.597-3.129-18.671
	C56.732,41.965,76.13,45.042,76.13,45.042z"/>
<line style="fill:none;stroke:#000000;stroke-width:2;stroke-linecap:round;stroke-linejoin:round;stroke-miterlimit:10;" x1="8.378" y1="44.342" x2="12.375" y2="44.372"/>
<path style="fill:none;stroke:#000000;stroke-width:2;stroke-linecap:round;stroke-linejoin:round;stroke-miterlimit:10;" d="
	M65.073,56.435c-0.855-0.048-3.689-0.139-3.613,2.212c0.076,2.351,1.19,2.551,1.818,2.701c0.627,0.149,3.123-0.489,3.31-2.416
	C66.776,57.005,65.928,56.483,65.073,56.435z"/>
<path style="fill:none;stroke:#000000;stroke-width:2;stroke-linecap:round;stroke-linejoin:round;stroke-miterlimit:10;" d="
	M32.327,37.409c-0.855-0.048-3.689-0.139-3.613,2.212c0.076,2.351,1.19,2.551,1.818,2.701c0.627,0.149,3.123-0.489,3.31-2.415
	C34.03,37.979,33.182,37.456,32.327,37.409z"/>
<path style="fill:none;stroke:#000000;stroke-width:2;stroke-linecap:round;stroke-linejoin:round;stroke-miterlimit:10;" d="
	M78.356,61.678c-0.855,0.048-3.689,0.139-3.612-2.212c0.076-2.351,1.19-2.551,1.818-2.7c0.627-0.149,3.123,0.489,3.31,2.415
	C80.059,61.108,79.211,61.631,78.356,61.678z"/>
<path style="fill:none;stroke:#000000;stroke-width:2;stroke-linecap:round;stroke-linejoin:round;stroke-miterlimit:10;" d="
	M50.838,42.14c-0.855,0.048-3.689,0.139-3.612-2.212c0.076-2.351,1.19-2.551,1.818-2.701c0.627-0.149,3.123,0.489,3.31,2.415
	C52.541,41.57,51.693,42.093,50.838,42.14z"/>
<line style="fill:none;stroke:#000000;stroke-width:2;stroke-linecap:round;stroke-linejoin:round;stroke-miterlimit:10;" x1="52.222" y1="69.713" x2="55.013" y2="67.421"/>
<line style="fill:none;stroke:#000000;stroke-width:2;stroke-linecap:round;stroke-linejoin:round;stroke-miterlimit:10;" x1="55.363" y1="73.232" x2="57.445" y2="70.023"/>
<line style="fill:none;stroke:#000000;stroke-width:2;stroke-linecap:round;stroke-linejoin:round;stroke-miterlimit:10;" x1="58.797" y1="74.75" x2="60.207" y2="72.333"/>
<line style="fill:none;stroke:#000000;stroke-width:2;stroke-linecap:round;stroke-linejoin:round;stroke-miterlimit:10;" x1="64.72" y1="76.577" x2="64.914" y2="73.435"/>
<line style="fill:none;stroke:#000000;stroke-width:2;stroke-linecap:round;stroke-linejoin:round;stroke-miterlimit:10;" x1="80.787" y1="74.402" x2="79.708" y2="70.583"/>
<line style="fill:none;stroke:#000000;stroke-width:2;stroke-linecap:round;stroke-linejoin:round;stroke-miterlimit:10;" x1="85.728" y1="72.556" x2="83.928" y2="69.752"/>
<line style="fill:none;stroke:#000000;stroke-width:2;stroke-linecap:round;stroke-linejoin:round;stroke-miterlimit:10;" x1="82.742" y1="47.34" x2="80.418" y2="49.902"/>
<line style="fill:none;stroke:#000000;stroke-width:2;stroke-linecap:round;stroke-linejoin:round;stroke-miterlimit:10;" x1="86.165" y1="48.839" x2="81.876" y2="52.967"/>
<line style="fill:none;stroke:#000000;stroke-width:2;stroke-linecap:round;stroke-linejoin:round;stroke-miterlimit:10;" x1="57.727" y1="24.067" x2="55.198" y2="28.09"/>
<line style="fill:none;stroke:#000000;stroke-width:2;stroke-linecap:round;stroke-linejoin:round;stroke-miterlimit:10;" x1="61.248" y1="25.256" x2="58.145" y2="28.756"/>
<line style="fill:none;stroke:#000000;stroke-width:2;stroke-linecap:round;stroke-linejoin:round;stroke-miterlimit:10;" x1="15.575" y1="59.213" x2="18.619" y2="56.129"/>
<line style="fill:none;stroke:#000000;stroke-width:2;stroke-linecap:round;stroke-linejoin:round;stroke-miterlimit:10;" x1="18.289" y1="61.03" x2="21.703" y2="57.327"/>
<line style="fill:none;stroke:#000000;stroke-width:2;stroke-linecap:round;stroke-linejoin:round;stroke-miterlimit:10;" x1="7.95" y1="39.025" x2="12.346" y2="39.914"/>
<line style="fill:none;stroke:#000000;stroke-width:2;stroke-linecap:round;stroke-linejoin:round;stroke-miterlimit:10;" x1="10.148" y1="35.099" x2="13.815" y2="35.824"/>
<line style="fill:none;stroke:#000000;stroke-width:2;stroke-linecap:round;stroke-linejoin:round;stroke-miterlimit:10;" x1="23.686" y1="23.497" x2="25.749" y2="27.915"/>
<line style="fill:none;stroke:#000000;stroke-width:2;stroke-linecap:round;stroke-linejoin:round;stroke-miterlimit:10;" x1="27.655" y1="21.679" x2="28.812" y2="27.151"/>
<line style="fill:none;stroke:#000000;stroke-width:2;stroke-linecap:round;stroke-linejoin:round;stroke-miterlimit:10;" x1="31.224" y1="20.48" x2="32.79" y2="24.425"/>
<line style="fill:none;stroke:#000000;stroke-width:2;stroke-linecap:round;stroke-linejoin:round;stroke-miterlimit:10;" x1="36.787" y1="20.209" x2="37.03" y2="23.043"/>
</svg>