<?xml version="1.0" encoding="iso-8859-1"?><!-- Generator: Adobe Illustrator 19.1.1, SVG Export Plug-In . SVG Version: 6.00 Build 0)  --><svg xmlns="http://www.w3.org/2000/svg" xmlns:xlink="http://www.w3.org/1999/xlink" viewBox="0 0 50 50" width="50px" height="50px"><line fill="none" stroke="#000000" stroke-width="2" stroke-linecap="round" stroke-linejoin="round" stroke-miterlimit="10" x1="3" y1="40" x2="19" y2="40"/><line fill="none" stroke="#000000" stroke-width="2" stroke-linecap="round" stroke-linejoin="round" stroke-miterlimit="10" x1="31" y1="40" x2="47" y2="40"/><polyline fill="none" stroke="#000000" stroke-width="2" stroke-linecap="round" stroke-linejoin="round" stroke-miterlimit="10" points="42,35 47,40 42,45 "/><polyline fill="none" stroke="#000000" stroke-width="2" stroke-linecap="round" stroke-linejoin="round" stroke-miterlimit="10" points="8,35 3,40 8,45 "/><circle cx="27" cy="40" r="1"/><circle cx="23" cy="40" r="1"/><g><g><path d="M47,30H3c-0.275,0-0.539-0.113-0.728-0.314c-0.189-0.2-0.287-0.47-0.271-0.744c0.231-3.912,3.173-5.178,5.321-6.104c1.184-0.509,2.214-0.953,2.543-1.633c0.05-0.639,0.045-1.149,0.041-1.733l-0.001-0.137c-0.564-0.642-1.053-1.734-1.272-2.696c-0.473-0.315-0.982-0.963-1.14-2.295c-0.076-0.644,0.069-1.171,0.303-1.564c-0.675-1.972-0.461-4.064,0.607-5.704C9.697,5.092,12.021,4,14.95,4c0.38,0,0.727,0.215,0.896,0.555l0.341,0.687c1.429,0.192,2.57,1.038,3.254,2.429c0.812,1.652,0.82,3.79,0.332,5.132c0.222,0.417,0.318,0.955,0.249,1.541c-0.157,1.332-0.666,1.979-1.138,2.294c-0.215,0.961-0.692,2.049-1.242,2.689l-0.001,0.143c-0.005,0.584-0.009,1.095,0.041,1.732c0.337,0.675,1.484,1.141,2.696,1.632c1.531,0.621,3.443,1.396,4.6,3.034c1.097-1.632,2.9-2.409,4.346-3.031c1.184-0.509,2.214-0.953,2.543-1.633c0.051-0.643,0.046-1.156,0.041-1.743l-0.001-0.127c-0.564-0.642-1.054-1.734-1.271-2.697c-0.473-0.314-0.982-0.962-1.14-2.295c-0.076-0.644,0.069-1.171,0.303-1.564c-0.676-1.972-0.462-4.063,0.606-5.704C31.696,5.092,34.021,4,36.95,4c0.38,0,0.727,0.215,0.896,0.555l0.341,0.687c1.429,0.192,2.569,1.038,3.254,2.428c0.813,1.652,0.821,3.791,0.333,5.132c0.223,0.417,0.318,0.956,0.249,1.542c-0.157,1.332-0.666,1.979-1.139,2.294c-0.215,0.961-0.692,2.049-1.242,2.689l-0.001,0.135c-0.005,0.587-0.01,1.1,0.041,1.741c0.337,0.675,1.484,1.14,2.696,1.631c2.273,0.922,5.389,2.186,5.62,6.106c0.017,0.274-0.081,0.544-0.271,0.744C47.539,29.887,47.275,30,47,30z"/></g></g></svg>