<?xml version="1.0" encoding="iso-8859-1"?><!-- Generator: Adobe Illustrator 21.1.0, SVG Export Plug-In . SVG Version: 6.00 Build 0)  --><svg xmlns="http://www.w3.org/2000/svg" xmlns:xlink="http://www.w3.org/1999/xlink" viewBox="0 0 50 50" width="50px" height="50px"><path d="M32.818,34.795C31.117,34.079,29,33.187,29,32.5v-4.483c2.479-1.866,4-4.888,4-8.017v-6c0-5.514-4.486-10-10-10S13,8.486,13,14v6c0,3.128,1.521,6.151,4,8.017V32.5c0,0.645-2.097,1.542-3.781,2.262C9.149,36.502,3,39.131,3,46v1h40v-1C43,39.086,36.873,36.504,32.818,34.795z"/><g><path d="M42.002,4.914c0-1.121,0.793-1.914,1.9-1.914s1.887,0.793,1.887,1.914c0,1.107-0.779,1.9-1.887,1.9S42.002,6.021,42.002,4.914z"/></g><polygon points="45,21 45,9 41,9 41,11 43,11 43,21 41,21 41,23 47,23 47,21 "/></svg>