<?xml version="1.0" encoding="iso-8859-1"?>
<!-- Generator: Adobe Illustrator 24.1.2, SVG Export Plug-In . SVG Version: 6.00 Build 0)  -->
<svg version="1.1" baseProfile="basic" id="&#x421;&#x43B;&#x43E;&#x439;_1"
	 xmlns="http://www.w3.org/2000/svg" xmlns:xlink="http://www.w3.org/1999/xlink" x="0px" y="0px" viewBox="0 0 24 24"
	 xml:space="preserve">
<path marker-end="none" marker-start="none" style="fill:none;stroke:#000000;stroke-width:1;stroke-linecap:round;stroke-linejoin:round;" d="
	M15.5,5.999c0-1.933-1.567-3.5-3.5-3.5c-1.933,0-3.5,1.567-3.5,3.5c0,0.171,0,0.829,0,1c0,1.933,1.567,3.5,3.5,3.5
	c1.933,0,3.5-1.567,3.5-3.5C15.5,6.829,15.5,6.17,15.5,5.999z"/>
<path marker-end="none" marker-start="none" d="M18.315,20.174l-2.509,3.409c-0.32,0.451-0.951,0.551-1.4,0.22
	c-0.44-0.329-0.54-0.949-0.211-1.4c0.02-0.029,0.051-0.069,0.08-0.1l2.911-3.08C17.485,19.614,17.865,19.943,18.315,20.174z"/>
<path marker-end="none" marker-start="none" style="fill:none;stroke:#000000;stroke-width:1;stroke-linecap:round;stroke-linejoin:round;" d="
	M23.499,16.999c0-1.932-1.568-3.5-3.5-3.5c-1.932,0-3.5,1.568-3.5,3.5c0,1.932,1.568,3.5,3.5,3.5
	C21.931,20.499,23.499,18.931,23.499,16.999z"/>
<path style="fill:none;stroke:#000000;stroke-width:1;stroke-linecap:round;stroke-linejoin:round;" d="M17.879,14.879l4.243,4.243"
	/>
<path style="fill:none;stroke:#000000;stroke-width:1;stroke-linecap:round;stroke-linejoin:round;" d="M15.176,13.905
	c-0.373-0.152-0.765-0.289-1.176-0.405h-4c-4.299,1.221-6.5,4.652-6.5,4.652v2.348h10"/>
</svg>