<?xml version="1.0" encoding="iso-8859-1"?><!-- Generator: Adobe Illustrator 21.1.0, SVG Export Plug-In . SVG Version: 6.00 Build 0)  --><svg xmlns="http://www.w3.org/2000/svg" xmlns:xlink="http://www.w3.org/1999/xlink" viewBox="0 0 64 64" width="512px" height="512px"><g><path d="M10.978,32.431l-1.438,1.39c-0.397,0.383-0.408,1.017-0.024,1.413c0.196,0.203,0.458,0.306,0.719,0.306c0.25,0,0.5-0.094,0.695-0.281l1.438-1.39c0.397-0.383,0.408-1.017,0.024-1.413S11.375,32.048,10.978,32.431z"/><path d="M16.479,35.702c-0.475-0.285-1.088-0.131-1.372,0.343l-1.029,1.715c-0.284,0.474-0.131,1.088,0.343,1.372c0.161,0.097,0.338,0.143,0.514,0.143c0.34,0,0.671-0.173,0.858-0.485l1.029-1.715C17.105,36.601,16.952,35.986,16.479,35.702z"/><path d="M21.267,37.783c-0.529-0.153-1.085,0.155-1.236,0.686l-0.55,1.923c-0.152,0.531,0.155,1.085,0.687,1.236c0.092,0.026,0.184,0.039,0.275,0.039c0.435,0,0.835-0.286,0.961-0.725l0.55-1.923C22.105,38.488,21.798,37.935,21.267,37.783z"/><path d="M64,41.24c0-5.63-3.62-10.59-9.08-13.46c0.06-0.52,0.08-1.05,0.08-1.59C55,14.05,42.66,4.17,27.5,4.17S0,14.05,0,26.19c0,7.61,4.75,14.52,12.74,18.58c-0.16,2-0.71,5.27-2.55,8.32c-0.2,0.34-0.18,0.77,0.05,1.1c0.19,0.26,0.49,0.41,0.81,0.41c0.07,0,0.15,0,0.22-0.02c6.42-1.43,9.49-5.06,10.64-6.83c1.34,0.22,2.69,0.36,4.04,0.42c3.23,5.4,10.11,9.14,18.05,9.14c1.29,0,2.59-0.1,3.87-0.31c0.92,1.36,3.18,3.87,7.71,4.87c0.07,0.02,0.14,0.03,0.21,0.03c0.32,0,0.62-0.15,0.81-0.42c0.24-0.32,0.26-0.76,0.05-1.1c-1.25-2.08-1.64-4.34-1.77-5.65C60.61,51.75,64,46.75,64,41.24z M24.94,46.1c-1.12-0.09-2.24-0.24-3.35-0.44c-0.42-0.08-0.85,0.12-1.06,0.5c-0.55,1.02-2.61,4.14-7.54,5.86c1.36-3.11,1.71-6.11,1.78-7.8c0.02-0.4-0.2-0.78-0.56-0.95C6.56,39.59,2,33.21,2,26.19C2,15.15,13.44,6.17,27.5,6.17S53,15.15,53,26.19c0,0.23-0.01,0.47-0.02,0.7c-2.7-1.1-5.75-1.72-8.98-1.72c-11.03,0-20,7.21-20,16.07C24,42.93,24.33,44.57,24.94,46.1z M53.41,53.23c-0.36,0.18-0.59,0.55-0.57,0.95c0.05,1.12,0.27,3.04,1.05,5.08c-3-1.22-4.28-3.17-4.65-3.84c-0.17-0.32-0.51-0.51-0.87-0.51c-0.06,0-0.12,0-0.19,0.01c-1.38,0.26-2.78,0.39-4.18,0.39c-6.7,0-12.55-2.87-15.64-7.12c-0.47-0.63-0.87-1.29-1.2-1.99C26.41,44.66,26,42.99,26,41.24c0-7.76,8.07-14.07,18-14.07c3.18,0,6.17,0.65,8.76,1.78c0.64,0.29,1.26,0.59,1.84,0.93c4.49,2.56,7.4,6.7,7.4,11.36C62,46.16,58.79,50.64,53.41,53.23z"/><circle cx="38" cy="38" r="2"/><circle cx="50" cy="38" r="2"/><circle cx="18" cy="21" r="2"/><circle cx="36" cy="21" r="2"/><path d="M38.181,12.999c0.382,0,0.747-0.22,0.914-0.592c0.225-0.504,0-1.096-0.505-1.321c-3.372-1.508-7.211-2.271-11.104-2.248c-0.756,0.007-1.518,0.045-2.262,0.111c-0.55,0.05-0.956,0.535-0.907,1.086c0.049,0.55,0.534,0.96,1.085,0.906c0.691-0.062,1.398-0.097,2.102-0.104c3.568-0.066,7.156,0.684,10.268,2.074C37.906,12.972,38.044,12.999,38.181,12.999z"/><path d="M42.931,16.2c0.19,0.169,0.427,0.252,0.663,0.252c0.276,0,0.551-0.113,0.749-0.337c0.367-0.413,0.329-1.045-0.084-1.411c-0.534-0.474-1.106-0.929-1.7-1.354c-0.452-0.32-1.074-0.216-1.395,0.233s-0.216,1.074,0.233,1.396C41.933,15.362,42.45,15.773,42.931,16.2z"/><path d="M38.331,49.335c-2.884-1.004-5.144-2.723-6.365-4.839c-0.276-0.479-0.888-0.644-1.366-0.366c-0.479,0.276-0.643,0.888-0.367,1.366c1.46,2.531,4.103,4.565,7.44,5.728c0.109,0.038,0.22,0.056,0.329,0.056c0.414,0,0.801-0.259,0.944-0.671C39.128,50.087,38.853,49.517,38.331,49.335z"/></g></svg>