<?xml version="1.0" encoding="iso-8859-1"?>
<!-- Generator: Adobe Illustrator 26.0.1, SVG Export Plug-In . SVG Version: 6.00 Build 0)  -->
<svg version="1.1" baseProfile="basic" id="Layer_1"
	 xmlns="http://www.w3.org/2000/svg" xmlns:xlink="http://www.w3.org/1999/xlink" x="0px" y="0px" viewBox="0 0 50 50"
	 xml:space="preserve">
<path d="M35.623,31.574c-3.59,1.493-5.554,5.565-4.187,9.426H12.918c-1.801,0-3.177-1.798-2.519-3.569
	c2.019-5.443,7.998-9.1,14.878-9.1C29.213,28.331,32.849,29.531,35.623,31.574z"/>
<path d="M25.5,25c-4.136,0-7.5-3.589-7.5-8s3.364-8,7.5-8s7.5,3.589,7.5,8S29.636,25,25.5,25z"/>
<path id="overlay_00000114758098583280381060000012398119533340544953_" d="M44.509,37.325C44.793,37.374,45,37.62,45,37.907v1.185
	c0,0.288-0.207,0.534-0.491,0.582l-1.023,0.176c-0.117,0.432-0.286,0.841-0.504,1.22l0.598,0.847
	c0.166,0.235,0.139,0.555-0.065,0.759l-0.838,0.838c-0.203,0.203-0.524,0.231-0.759,0.065l-0.847-0.598
	c-0.379,0.218-0.788,0.387-1.22,0.504l-0.176,1.023C39.626,44.793,39.38,45,39.093,45h-1.185c-0.288,0-0.534-0.207-0.582-0.491
	l-0.176-1.023c-0.432-0.117-0.841-0.286-1.22-0.504l-0.847,0.598c-0.235,0.166-0.555,0.139-0.759-0.065l-0.838-0.838
	c-0.203-0.203-0.231-0.524-0.065-0.759l0.598-0.847c-0.218-0.379-0.387-0.788-0.504-1.22l-1.023-0.176
	C32.207,39.626,32,39.38,32,39.093v-1.185c0-0.288,0.207-0.534,0.491-0.582l1.023-0.176c0.117-0.432,0.286-0.841,0.504-1.22
	l-0.598-0.847c-0.166-0.235-0.139-0.555,0.065-0.759l0.838-0.838c0.203-0.203,0.524-0.231,0.759-0.065l0.847,0.598
	c0.379-0.218,0.788-0.387,1.22-0.504l0.176-1.023C37.374,32.207,37.62,32,37.907,32h1.185c0.288,0,0.534,0.207,0.582,0.491
	l0.176,1.023c0.432,0.117,0.841,0.286,1.22,0.504l0.847-0.598c0.235-0.166,0.555-0.139,0.759,0.065l0.838,0.838
	c0.203,0.203,0.231,0.524,0.065,0.759l-0.598,0.847c0.218,0.379,0.387,0.788,0.504,1.22L44.509,37.325z M38.5,41.1
	c1.436,0,2.6-1.164,2.6-2.6s-1.164-2.6-2.6-2.6s-2.6,1.164-2.6,2.6S37.064,41.1,38.5,41.1z"/>
</svg>