<?xml version="1.0" encoding="iso-8859-1"?><!-- Generator: Adobe Illustrator 21.1.0, SVG Export Plug-In . SVG Version: 6.00 Build 0)  --><svg xmlns="http://www.w3.org/2000/svg" xmlns:xlink="http://www.w3.org/1999/xlink" viewBox="0 0 80 80" width="480px" height="480px"><circle cx="40" cy="13" r="1"/><circle cx="40" cy="67" r="1"/><circle cx="67" cy="40" r="1"/><circle cx="13" cy="40" r="1"/><ellipse transform="matrix(0.7071 -0.7071 0.7071 0.7071 2.5233 47.9081)" cx="59.092" cy="20.908" rx="1" ry="1"/><ellipse transform="matrix(0.7071 -0.7071 0.7071 0.7071 -35.6604 32.0919)" cx="20.908" cy="59.092" rx="1" ry="1"/><ellipse transform="matrix(0.9239 -0.3827 0.3827 0.9239 -3.5031 12.4993)" cx="29.668" cy="15.055" rx="1" ry="1"/><ellipse transform="matrix(0.9239 -0.3827 0.3827 0.9239 -21.0219 24.205)" cx="50.332" cy="64.945" rx="1" ry="1"/><ellipse transform="matrix(0.9239 -0.3827 0.3827 0.9239 -6.4097 27.1116)" cx="64.945" cy="29.668" rx="1" ry="1"/><ellipse transform="matrix(0.9239 -0.3827 0.3827 0.9239 -18.1154 9.5927)" cx="15.055" cy="50.332" rx="1" ry="1"/><ellipse transform="matrix(0.3827 -0.9239 0.9239 0.3827 17.1618 55.795)" cx="50.332" cy="15.055" rx="1" ry="1"/><ellipse transform="matrix(0.3827 -0.9239 0.9239 0.3827 -41.6869 67.5007)" cx="29.668" cy="64.945" rx="1" ry="1"/><ellipse transform="matrix(0.3827 -0.9239 0.9239 0.3827 -6.4097 91.0722)" cx="64.945" cy="50.332" rx="1" ry="1"/><ellipse transform="matrix(0.3827 -0.9239 0.9239 0.3827 -18.1154 32.2235)" cx="15.055" cy="29.668" rx="1" ry="1"/><ellipse transform="matrix(0.9808 -0.1951 0.1951 0.9808 -1.97 7.0357)" cx="34.733" cy="13.519" rx="1" ry="1"/><ellipse transform="matrix(0.9808 -0.1951 0.1951 0.9808 -12.1 10.1087)" cx="45.267" cy="66.481" rx="1" ry="1"/><ellipse transform="matrix(0.9808 -0.1951 0.1951 0.9808 -5.4986 13.6372)" cx="66.481" cy="34.733" rx="1" ry="1"/><ellipse transform="matrix(0.9808 -0.1951 0.1951 0.9808 -8.5715 3.5072)" cx="13.519" cy="45.267" rx="1" ry="1"/><ellipse transform="matrix(0.5556 -0.8315 0.8315 0.5556 9.8513 53.531)" cx="55" cy="17.55" rx="1" ry="1"/><ellipse transform="matrix(0.5556 -0.8315 0.8315 0.5556 -40.8144 48.5409)" cx="25" cy="62.45" rx="1" ry="1"/><ellipse transform="matrix(0.8315 -0.5556 0.5556 0.8315 -3.3644 38.9084)" cx="62.45" cy="25" rx="1" ry="1"/><ellipse transform="matrix(0.8315 -0.5556 0.5556 0.8315 -27.5988 19.0197)" cx="17.55" cy="55" rx="1" ry="1"/><ellipse transform="matrix(0.1951 -0.9808 0.9808 0.1951 23.1772 55.279)" cx="45.267" cy="13.519" rx="1" ry="1"/><ellipse transform="matrix(0.1951 -0.9808 0.9808 0.1951 -37.2472 87.5765)" cx="34.733" cy="66.481" rx="1" ry="1"/><ellipse transform="matrix(0.1951 -0.9808 0.9808 0.1951 9.1137 101.64)" cx="66.481" cy="45.267" rx="1" ry="1"/><ellipse transform="matrix(0.1951 -0.9808 0.9808 0.1951 -23.1838 41.2156)" cx="13.519" cy="34.733" rx="1" ry="1"/><g><g><path style="fill:none;stroke:#000000;stroke-width:2;stroke-miterlimit:10;" d="M50.5,42c-0.068,0-0.256,0.093-0.5,0.231v-4.398c0-5.263-5.167-6.667-5.167-6.667s-1.608,2.5-7.333,2.5c-2.573,0-7.5,1.974-7.5,6.711v1.854C29.756,42.093,29.568,42,29.5,42c-0.828,0-1.5,0.672-1.5,1.5c0,0.604,0.5,1.901,0.5,2.25c0,0.69,0.56,1.25,1.25,1.25h0.274c0.244,4.681,3.701,8.504,8.212,9.309C38.703,56.734,39.318,57,40,57s1.297-0.266,1.764-0.691c4.511-0.804,7.968-4.628,8.212-9.309h0.274c0.69,0,1.25-0.56,1.25-1.25c0-0.349,0.5-1.646,0.5-2.25C52,42.672,51.328,42,50.5,42z"/></g></g><circle cx="45" cy="44" r="1"/><circle cx="35" cy="44" r="1"/><path style="fill:none;stroke:#000000;stroke-width:2;stroke-miterlimit:10;" d="M51.477,42.245c0,0,0.523-5.048,0.523-7.782C52,29.068,48.24,27,45,27c0,0-1.246-3-6.318-3C31.49,24,25,32,25,32s3,0.828,3,4.679c0,2.9,0.574,5.48,0.574,5.48"/><polygon points="17.696,24.718 10.282,17.304 19.718,15.282 "/><polygon points="62.304,55.282 69.718,62.696 60.282,64.718 "/><g><path d="M25.574,12.574C29.886,10.296,34.793,9,40,9c17.094,0,31,13.907,31,31c0,7.469-2.655,14.329-7.071,19.686l1.418,1.418C70.121,55.379,73,48.02,73,40C73,21.804,58.196,7,40,7c-5.763,0-11.184,1.489-15.904,4.096L25.574,12.574z"/><path d="M54.426,67.426C50.114,69.704,45.207,71,40,71C22.906,71,9,57.093,9,40c0-7.469,2.655-14.329,7.071-19.686l-1.418-1.418C9.879,24.621,7,31.98,7,40c0,18.196,14.804,33,33,33c5.763,0,11.184-1.489,15.904-4.096L54.426,67.426z"/></g></svg>