<?xml version="1.0" encoding="iso-8859-1"?>
<!-- Generator: Adobe Illustrator 28.7.1, SVG Export Plug-In . SVG Version: 9.03 Build 54978)  -->
<svg version="1.1" baseProfile="basic" id="Layer_1"
	 xmlns="http://www.w3.org/2000/svg" xmlns:xlink="http://www.w3.org/1999/xlink" x="0px" y="0px" viewBox="0 0 24 24"
	 xml:space="preserve">
<path d="M8,5C6.343,5,5,6.343,5,8c0,0.096,0,0.904,0,1c0,1.657,1.343,3,3,3s3-1.343,3-3c0-0.096,0-0.904,0-1C11,6.343,9.657,5,8,5z"
	/>
<path d="M16,3c-1.657,0-3,1.343-3,3c0,0.096,0,0.904,0,1c0,1.657,1.343,3,3,3s3-1.343,3-3c0-0.096,0-0.904,0-1
	C19,4.343,17.657,3,16,3z"/>
<path d="M12,19c0-1.017,0.222-1.981,0.612-2.854C11.615,15.532,10.431,15,9.293,15H6.707c-2.173,0-4.535,1.933-5.382,2.696
	C1.115,17.885,1,18.151,1,18.434v0.279C1,19.424,1.576,20,2.287,20h9.793C12.033,19.673,12,19.34,12,19z"/>
<path d="M24,19c0,2.761-2.239,5-5,5s-5-2.239-5-5s2.239-5,5-5S24,16.239,24,19z M21.25,18.25h-1.5v-1.5
	c0-0.414-0.336-0.75-0.75-0.75s-0.75,0.336-0.75,0.75v1.5h-1.5C16.336,18.25,16,18.586,16,19s0.336,0.75,0.75,0.75h1.5v1.5
	c0,0.414,0.336,0.75,0.75,0.75s0.75-0.336,0.75-0.75v-1.5h1.5c0.414,0,0.75-0.336,0.75-0.75S21.664,18.25,21.25,18.25z"/>
</svg>