<?xml version="1.0" encoding="iso-8859-1"?>
<!-- Generator: Adobe Illustrator 23.0.3, SVG Export Plug-In . SVG Version: 6.00 Build 0)  -->
<svg version="1.1" xmlns="http://www.w3.org/2000/svg" xmlns:xlink="http://www.w3.org/1999/xlink" x="0px" y="0px"
	 viewBox="0 0 50 50" style="enable-background:new 0 0 50 50;" xml:space="preserve">
<g id="Layer_10" style="display:none;">
	<g style="display:inline;opacity:0.05;">
		<g>
			<circle style="fill:#FFFFFF;" cx="25" cy="25" r="21.5"/>
			<path d="M25,4c11.579,0,21,9.421,21,21s-9.421,21-21,21S4,36.579,4,25S13.421,4,25,4 M25,3C12.85,3,3,12.85,3,25s9.85,22,22,22
				s22-9.85,22-22S37.15,3,25,3L25,3z"/>
		</g>
		<g>
			<rect x="5.5" y="5.5" style="fill:#FFFFFF;" width="39" height="39"/>
			<path d="M44,6v38H6V6H44 M45,5H5v40h40V5L45,5z"/>
		</g>
	</g>
</g>
<g id="filled">
</g>
<g id="outlined">
</g>
<g id="rounded">
</g>
<g id="two_x5F_tone">
</g>
<g id="sharp">
</g>
<g id="ios_x5F_out">
	<path d="M35.15,18.2c0.43,0.53,0.74,1.36,0.65,2.48c-0.18,1.95-0.86,2.88-1.5,3.32h-2.28c0-0.18,0.03-0.37,0.06-0.54
		c0.01-0.05,0.02-0.1,0.02-0.15l0.09-0.91h0.91c0.1-0.02,0.57-0.41,0.7-1.89c0.06-0.72-0.18-1.06-0.27-1.13l-0.79-0.39l0.32-0.83
		c0.87-2.42,1.63-6.91,0.18-9.3c-0.61-1-1.55-1.58-2.88-1.77l-0.48-0.07L29.64,6.6c-0.49-0.82-1.85-1.3-3.74-1.3
		c-3.02,0.07-5.19,0.93-6.43,2.56c-1.61,2.11-1.81,5.61-0.6,10.39l0.17,0.69l-0.58,0.39c0,0-0.37,0.3-0.37,1.01
		c0,0.06,0,0.12,0.01,0.18c0.18,1.36,0.63,1.83,0.77,1.89h0.91l0.02,0.9c0.18,1.89,1.24,3.85,1.62,4.13l0.5,0.29L21.9,28.3v4.38
		l-0.06,0.16c-0.84,2.31-3.39,3.33-6.09,4.41c-3.4,1.36-6.9,2.76-7.63,6.75H29v2H5.94L6,44.95c0.34-6.08,5.14-8.01,9.01-9.55
		c2.29-0.92,4.28-1.72,4.89-3.09v-3.56c-0.85-0.92-1.7-2.85-2.01-4.6c-0.67-0.37-1.49-1.26-1.78-3.41c-0.1-1.16,0.27-2.01,0.69-2.54
		c-1.21-5.13-0.85-9.02,1.07-11.55c1.63-2.14,4.32-3.27,8.01-3.35c1.21,0,2.27,0.17,3.15,0.49c0.87,0.32,1.57,0.79,2.05,1.4
		c1.72,0.34,3.02,1.22,3.87,2.63C36.75,10.79,36,15.47,35.15,18.2z"/>
	<path d="M29,33.36v2.15C28.11,35.82,27.08,36,26,36c-3.36,0-6-1.54-6-3.5c0-0.55,0.45-1,1-1s1,0.45,1,1c0,0.46,1.51,1.5,4,1.5
		C27.31,34,28.33,33.7,29,33.36z"/>
	<polygon style="fill:none;stroke:#000000;stroke-width:2;stroke-linejoin:round;stroke-miterlimit:10;" points="32,27 44,27 49,32 
		49,49 32,49 	"/>
	
		<line style="fill:#FFFFFF;stroke:#000000;stroke-width:2;stroke-linecap:round;stroke-miterlimit:10;" x1="36" y1="45" x2="44" y2="45"/>
	
		<line style="fill:#FFFFFF;stroke:#000000;stroke-width:2;stroke-linecap:round;stroke-miterlimit:10;" x1="36" y1="41" x2="41" y2="41"/>
	
		<line style="fill:#FFFFFF;stroke:#000000;stroke-width:2;stroke-linecap:round;stroke-miterlimit:10;" x1="36" y1="37" x2="45" y2="37"/>
	
		<polyline style="fill:none;stroke:#000000;stroke-width:2;stroke-linecap:round;stroke-linejoin:round;stroke-miterlimit:10;" points="
		43,27 43,33 49,33 	"/>
</g>
<g id="ios_x5F_filled">
</g>
<g id="cute_x5F_color">
</g>
<g id="cute_x5F_out">
</g>
</svg>