<?xml version="1.0" encoding="iso-8859-1"?>
<!-- Generator: Adobe Illustrator 25.4.1, SVG Export Plug-In . SVG Version: 6.00 Build 0)  -->
<svg version="1.1" baseProfile="basic" id="Layer_1"
	 xmlns="http://www.w3.org/2000/svg" xmlns:xlink="http://www.w3.org/1999/xlink" x="0px" y="0px" viewBox="0 0 100 100"
	 xml:space="preserve">
<path style="fill-rule:evenodd;clip-rule:evenodd;" d="M33.267,23.47c-0.376-0.404-0.352-1.038,0.052-1.413
	c0.404-0.376,1.038-0.352,1.413,0.052c0.375,0.404,0.352,1.038-0.053,1.413C34.276,23.898,33.643,23.874,33.267,23.47z"/>
<path style="fill-rule:evenodd;clip-rule:evenodd;" d="M38.392,25.68c-0.375-0.404-0.352-1.038,0.053-1.413
	c0.404-0.376,1.038-0.352,1.413,0.052c0.376,0.405,0.352,1.038-0.052,1.413C39.401,26.108,38.768,26.085,38.392,25.68z"/>
<path style="fill-rule:evenodd;clip-rule:evenodd;" d="M42.767,16.68c-0.376-0.404-0.352-1.038,0.052-1.413
	c0.404-0.376,1.038-0.352,1.413,0.052c0.375,0.405,0.352,1.038-0.053,1.413C43.776,17.108,43.143,17.085,42.767,16.68z"/>
<line style="fill:none;stroke:#000000;stroke-width:2;stroke-linecap:round;stroke-linejoin:round;stroke-miterlimit:10;" x1="62" y1="14" x2="66" y2="6"/>
<line style="fill:none;stroke:#000000;stroke-width:2;stroke-linecap:round;stroke-linejoin:round;stroke-miterlimit:10;" x1="58" y1="13" x2="61" y2="8"/>
<line style="fill:none;stroke:#000000;stroke-width:2;stroke-linecap:round;stroke-linejoin:round;stroke-miterlimit:10;" x1="29" y1="31" x2="34" y2="32"/>
<line style="fill:none;stroke:#000000;stroke-width:2;stroke-linecap:round;stroke-linejoin:round;stroke-miterlimit:10;" x1="44" y1="82" x2="46" y2="74"/>
<line style="fill:none;stroke:#000000;stroke-width:2;stroke-linecap:round;stroke-linejoin:round;stroke-miterlimit:10;" x1="39" y1="78" x2="43" y2="70"/>
<line style="fill:none;stroke:#000000;stroke-width:2;stroke-linecap:round;stroke-linejoin:round;stroke-miterlimit:10;" x1="37" y1="72" x2="41" y2="65"/>
<line style="fill:none;stroke:#000000;stroke-width:2;stroke-linecap:round;stroke-linejoin:round;stroke-miterlimit:10;" x1="35" y1="66" x2="39" y2="59"/>
<path style="fill:none;stroke:#000000;stroke-width:2;stroke-linecap:round;stroke-linejoin:round;stroke-miterlimit:10;" d="M23,55
	c0,0,2-7,7-7"/>
<path style="fill:none;stroke:#000000;stroke-width:4;stroke-linecap:round;stroke-linejoin:round;stroke-miterlimit:10;" d="M27,15
	c14.736-4.726,28.797-9.021,47-10c2.142,18.635,4.768,35.99,7.801,52.27 M61.948,79.329C53.949,80.459,46.575,81.986,41,83"/>
<path style="fill:none;stroke:#000000;stroke-width:4;stroke-linecap:round;stroke-linejoin:round;stroke-miterlimit:10;" d="M80,82
	l12,13c3.441,0.679,5.814-0.255,5-6L84,78"/>
<circle style="fill:none;stroke:#000000;stroke-width:4;stroke-linecap:round;stroke-linejoin:round;stroke-miterlimit:10;" cx="72.5" cy="69.5" r="14.5"/>
<path style="fill:none;stroke:#000000;stroke-width:2;stroke-linecap:round;stroke-linejoin:round;stroke-miterlimit:10;" d="
	M50.073,39.376c0,0-2.459-0.903-1.766,1.783c0.693,2.687,2.17,3.326,2.843,2.136c0.257,1.061,0.615,1.606,0.862,2.716
	c0.248,1.11,2.613,4.925,6.161,4.287c3.17-0.57,4.754-4.402,4.898-5.789c0.144-1.387,0.588-3.117,0.588-3.117
	s0.965,0.81,1.595-0.024c0.63-0.833,0.821-4.522-0.084-4.693c-1.289-0.243-1.655,0.944-1.655,0.944"/>
<path style="fill:none;stroke:#000000;stroke-width:2;stroke-linecap:round;stroke-linejoin:round;stroke-miterlimit:10;" d="
	M49.911,39.089c0,0-3.992-8.812,4.998-10.747c8.633-1.858,8.771,6.145,8.72,8.875"/>
<path style="fill:none;stroke:#000000;stroke-width:2;stroke-linecap:round;stroke-linejoin:round;stroke-miterlimit:10;" d="
	M52.968,48.086c0,0,0.434,2.479-1.702,3.942c-2.135,1.464-5.619,4.229-5.619,4.229l2.108,4.38l23.477-4.919l0.553-3.634
	c0,0-6.697-1.668-7.671-3.008c-0.974-1.339-1.348-2.818-1.348-2.818"/>
<line style="fill:none;stroke:#000000;stroke-width:2;stroke-linecap:round;stroke-linejoin:round;stroke-miterlimit:10;" x1="49.982" y1="60.073" x2="50.66" y2="58.161"/>
<line style="fill:none;stroke:#000000;stroke-width:2;stroke-linecap:round;stroke-linejoin:round;stroke-miterlimit:10;" x1="54.915" y1="59.098" x2="55.381" y2="57.36"/>
<line style="fill:none;stroke:#000000;stroke-width:2;stroke-linecap:round;stroke-linejoin:round;stroke-miterlimit:10;" x1="67.215" y1="50.653" x2="66.575" y2="52.831"/>
<path style="fill:none;stroke:#000000;stroke-width:2;stroke-linecap:round;stroke-linejoin:round;stroke-miterlimit:10;" d="
	M48.695,65.587c0,0,6.366-1.952,11.129-2.264"/>
<line style="fill:none;stroke:#000000;stroke-width:2;stroke-linecap:round;stroke-linejoin:round;stroke-miterlimit:10;" x1="54" y1="80" x2="55" y2="75"/>
<line style="fill:none;stroke:#000000;stroke-width:2;stroke-linecap:round;stroke-linejoin:round;stroke-miterlimit:10;" x1="50" y1="80" x2="50" y2="76"/>
<path style="fill:none;stroke:#000000;stroke-width:4;stroke-linecap:round;stroke-linejoin:round;stroke-miterlimit:10;" d="M26,14
	c0,0-7.788,0.229-9,8s16,69,16,69l39-7"/>
<path style="fill:none;stroke:#000000;stroke-width:2;stroke-linecap:round;stroke-linejoin:round;stroke-miterlimit:10;" d="M34,91
	c0.796-3.359,2.636-5.829,6-7c-7.362-23.993-11.572-47.299-13-70"/>
<line style="fill:none;stroke:#000000;stroke-width:2;stroke-linecap:round;stroke-linejoin:round;stroke-miterlimit:10;" x1="29.101" y1="35" x2="35" y2="37"/>
<path style="fill:none;stroke:#000000;stroke-width:2;stroke-linecap:round;stroke-linejoin:round;stroke-miterlimit:10;" d="M17,32
	c0,0,5.142-6.231,11-4"/>
<path style="fill:none;stroke:#000000;stroke-width:2;stroke-linecap:round;stroke-linejoin:round;stroke-miterlimit:10;" d="M29,74
	c0,0-0.048-3.747,6-6"/>
<line style="fill:none;stroke:#000000;stroke-width:2;stroke-linecap:round;stroke-linejoin:round;stroke-miterlimit:10;" x1="34" y1="59" x2="36" y2="54"/>
<path style="fill:none;stroke:#000000;stroke-width:2;stroke-linecap:round;stroke-linejoin:round;stroke-miterlimit:10;" d="M34,74
	c-1.937,0.981-3.234,2.689-4,5"/>
<path style="fill:none;stroke:#000000;stroke-width:2;stroke-linecap:round;stroke-linejoin:round;stroke-miterlimit:10;" d="M35,80
	c-2.285,1.471-2.824,3.208-3,5"/>
</svg>