<?xml version="1.0" encoding="iso-8859-1"?><!-- Generator: Adobe Illustrator 19.2.1, SVG Export Plug-In . SVG Version: 6.00 Build 0)  --><svg xmlns="http://www.w3.org/2000/svg" xmlns:xlink="http://www.w3.org/1999/xlink" viewBox="0 0 50 50" width="500px" height="500px"><path style="fill:none;stroke:#000000;stroke-width:2;stroke-linecap:round;stroke-miterlimit:10;" d="M25,3c-2.761,0-5,2.239-5,5s2.239,5,5,5c2.761,0,5-2.239,5-5S27.761,3,25,3z"/><path style="fill:none;stroke:#000000;stroke-width:2;stroke-linecap:round;stroke-miterlimit:10;" d="M43,19c-2.209,0-4,1.791-4,4s1.791,4,4,4c2.209,0,4-1.791,4-4S45.209,19,43,19z"/><path style="fill:none;stroke:#000000;stroke-width:2;stroke-linecap:round;stroke-miterlimit:10;" d="M7,19c-2.209,0-4,1.791-4,4s1.791,4,4,4c2.209,0,4-1.791,4-4S9.209,19,7,19z"/><path style="fill:none;stroke:#000000;stroke-width:2;stroke-linecap:round;stroke-miterlimit:10;" d="M33,40c-2.209,0-4,1.791-4,4s1.791,4,4,4c2.209,0,4-1.791,4-4S35.209,40,33,40z"/><path style="fill:none;stroke:#000000;stroke-width:2;stroke-linecap:round;stroke-miterlimit:10;" d="M17,40c-2.209,0-4,1.791-4,4s1.791,4,4,4c2.209,0,4-1.791,4-4S19.209,40,17,40z"/><polyline style="fill:none;stroke:#000000;stroke-width:2;stroke-linecap:round;stroke-miterlimit:10;" points="33.163,40.02 30,29 30,20.857 38.975,23.233 "/><polyline style="fill:none;stroke:#000000;stroke-width:2;stroke-linecap:round;stroke-miterlimit:10;" points="20.692,42.502 25,32 29.335,42.559 "/><polyline style="fill:none;stroke:#000000;stroke-width:2;stroke-linecap:round;stroke-miterlimit:10;" points="11.014,23.21 20,20.857 20,29 16.838,40.018 "/><polyline style="fill:none;stroke:#000000;stroke-width:2;stroke-linecap:round;stroke-miterlimit:10;" points="40.45,19.905 29,16 21,16 9.578,19.86 "/></svg>