<?xml version="1.0" encoding="iso-8859-1"?><!-- Generator: Adobe Illustrator 19.1.1, SVG Export Plug-In . SVG Version: 6.00 Build 0)  --><svg xmlns="http://www.w3.org/2000/svg" xmlns:xlink="http://www.w3.org/1999/xlink" viewBox="0 0 50 50" width="50px" height="50px"><path style="fill:none;stroke:#000000;stroke-width:2;stroke-miterlimit:10;" d="M38,49c-6.066,0-11-4.935-11-11s4.934-11,11-11s11,4.935,11,11S44.066,49,38,49z"/><line style="fill:none;stroke:#000000;stroke-width:2;stroke-miterlimit:10;" x1="44" y1="38" x2="32" y2="38"/><g><path d="M27.956,36.211l-1.188,1.429C26.579,37.868,26.297,38,26,38c-0.003,0-0.005,0-0.008,0c-0.3-0.002-0.583-0.14-0.771-0.373l-1.987-2.471L22.5,35.8c0,0,1.77,2.957,2.268,6.2h-5.53c0.505-3.189,2.262-6.2,2.262-6.2l-0.757-0.615l-1.964,2.442c-0.188,0.233-0.472,0.371-0.771,0.373c-0.002,0-0.005,0-0.008,0c-0.297,0-0.579-0.132-0.769-0.361l-4.19-5.04c-0.605,0.27-1.259,0.533-1.948,0.806c-3.902,1.546-8.759,3.471-9.092,9.541L1.943,44H28.25C27.97,43.412,27.93,37.544,27.956,36.211z"/><path d="M13.898,22.152c0.337,1.802,1.32,3.709,2.204,4.611c0.003,0.224,0.007,0.441,0.011,0.654c0.018,0.957,0.033,1.787-0.092,2.85c-0.206,0.527-0.621,0.969-1.184,1.366l3.15,3.788l2.934-3.647c0.265-0.328,0.698-0.635,1.079-0.517c0,0,0,0,0,0s-0.006-0.192,0,0c0.38-0.117,0.815,0.189,1.079,0.517l0.663,0.824c0.197,0.204,0.39,0.439,0.574,0.714l2.434,2.939l2.4-4.603c-0.55-0.383-0.969-0.807-1.189-1.309c-0.058-1.21-0.161-3.149-0.161-3.585c0.868-0.913,1.787-2.826,2.171-4.562c0.717-0.339,1.617-1.223,1.825-3.508c0.095-1.125-0.214-1.951-0.639-2.485c0.66-2.07,1.778-6.663-0.064-9.71c-0.838-1.385-2.152-2.259-3.911-2.604C26.217,2.665,24.4,2,21.979,2h-0.001c-3.842,0.086-6.604,1.201-8.21,3.313c-1.817,2.391-2.136,5.954-0.972,10.882c-0.412,0.531-0.784,1.38-0.688,2.54C12.404,20.899,13.229,21.788,13.898,22.152z M14.87,16.254c-1.162-4.585-1.002-7.768,0.49-9.73C16.579,4.921,18.82,4.072,22,4c1.892,0,3.253,0.475,3.735,1.303l0.244,0.419l0.48,0.067c1.378,0.194,2.333,0.761,2.921,1.733c1.283,2.12,0.628,5.979-0.322,8.641l-0.316,0.824l0.793,0.396c0.089,0.063,0.329,0.408,0.269,1.125C29.669,19.988,29.2,20.382,29.1,20.4h-0.867l-0.123,0.859c-0.274,1.925-1.428,3.899-1.806,4.173L25.8,25.719V26.3c0,1.036,0.003,1.884,0.034,2.826L22,31.256l-3.89-2.161c0.02-0.593,0.013-1.148,0.002-1.716c-0.006-0.344-0.013-0.699-0.013-1.08l-0.063-0.562l-0.428-0.298c-0.391-0.272-1.635-2.268-1.813-4.134l-0.013-0.896h-0.909c-0.142-0.055-0.589-0.53-0.777-1.892c-0.069-0.839,0.359-1.185,0.358-1.185l0.59-0.392L14.87,16.254z"/></g></svg>