<?xml version="1.0" encoding="iso-8859-1"?><!-- Generator: Adobe Illustrator 23.0.3, SVG Export Plug-In . SVG Version: 6.00 Build 0)  --><svg xmlns="http://www.w3.org/2000/svg" xmlns:xlink="http://www.w3.org/1999/xlink" viewBox="0 0 50 50" width="500px" height="500px"><path style="fill:none;stroke:#000000;stroke-width:2;stroke-linecap:round;stroke-miterlimit:10;" d="M27,32.5c0,1.2-2.2,2.5-5,2.5s-5-1.2-5-2.5"/><path style="fill:none;stroke:#000000;stroke-width:2;stroke-linecap:round;stroke-miterlimit:10;" d="M41,30v13c0,1.105,0.895,2,2,2h0c1.105,0,2-0.895,2-2V29c0-2.209-1.791-4-4-4h0c-2.209,0-4,1.791-4,4v14c0,3.314,2.686,6,6,6h0c3.314,0,6-2.686,6-6V30"/><path d="M34.059,44H4.121c0.728-3.985,4.232-5.388,7.63-6.747c2.702-1.081,5.253-2.102,6.089-4.413l0.06-0.165V28.3l0.02-0.568l-0.504-0.288c-0.381-0.284-1.44-2.243-1.621-4.139l-0.013-0.896h-0.91c-0.142-0.055-0.589-0.53-0.776-1.892c-0.07-0.839,0.359-1.186,0.358-1.186l0.588-0.392l-0.174-0.685c-1.211-4.784-1.011-8.281,0.596-10.395c1.24-1.63,3.412-2.491,6.435-2.56c1.891,0,3.253,0.476,3.736,1.304l0.244,0.419l0.48,0.067c1.332,0.188,2.273,0.766,2.88,1.768c1.449,2.396,0.685,6.877-0.183,9.305l-0.316,0.824l0.792,0.396c0.089,0.064,0.33,0.409,0.27,1.126c-0.134,1.478-0.603,1.872-0.704,1.89h-0.909l-0.086,0.905c-0.181,1.896-1.24,3.854-1.601,4.126L26,27.719v4.966l0.066,0.172c0.878,2.294,3.435,3.311,6.142,4.388c0.601,0.239,1.2,0.487,1.792,0.743v-2.166c-0.352-0.145-0.711-0.3-1.053-0.435c-2.302-0.916-4.301-1.711-4.947-3.089v-3.551c0.845-0.916,1.69-2.827,2.001-4.569c0.712-0.35,1.591-1.24,1.795-3.494c0.094-1.125-0.215-1.953-0.642-2.487c0.849-2.728,1.595-7.402-0.203-10.373c-0.853-1.409-2.153-2.295-3.869-2.638C26.118,3.965,24.301,3.3,21.879,3.3c0,0-0.001,0-0.001,0C18.193,3.383,15.5,4.51,13.874,6.649c-1.926,2.533-2.288,6.417-1.078,11.547c-0.413,0.531-0.784,1.38-0.687,2.539c0.294,2.159,1.115,3.049,1.785,3.415c0.307,1.749,1.156,3.675,2.006,4.597v3.562c-0.611,1.375-2.601,2.171-4.891,3.088c-3.864,1.546-8.673,3.47-9.007,9.549L1.943,46h32.582C34.299,45.362,34.136,44.694,34.059,44z"/></svg>