<?xml version="1.0" encoding="iso-8859-1"?><!-- Generator: Adobe Illustrator 19.2.1, SVG Export Plug-In . SVG Version: 6.00 Build 0)  --><svg xmlns="http://www.w3.org/2000/svg" xmlns:xlink="http://www.w3.org/1999/xlink" viewBox="0 0 50 50" width="500px" height="500px"><polyline style="fill:none;stroke:#000000;stroke-width:2;stroke-linecap:round;stroke-linejoin:round;stroke-miterlimit:10;" points="23.317,39 3,39 3,3 44,3 44,29.854 "/><g><path d="M30.753,28.418l-0.417,2.37l0.03,0.03c0.763-0.768,1.625-0.805,2.042-0.805c2.926,0,3.221,2.891,3.221,3.548c0,1.915-1.515,3.743-3.877,3.743c-2.693,0-3.914-1.741-3.877-3.295h2.118c0.05,0.478,0.416,1.566,1.714,1.566c0.38,0,1.804-0.338,1.804-2.013c0-0.268-0.117-1.953-1.804-1.953c-0.993,0-1.386,0.546-1.596,0.835h-1.908l1.029-5.769h5.83v1.744H30.753z"/></g><line style="fill:none;stroke:#000000;stroke-width:2;stroke-linecap:round;stroke-linejoin:round;stroke-miterlimit:10;" x1="3" y1="12" x2="44" y2="12"/><line style="fill:none;stroke:#000000;stroke-width:2;stroke-linecap:round;stroke-linejoin:round;stroke-miterlimit:10;" x1="3" y1="21" x2="44" y2="21"/><line style="fill:none;stroke:#000000;stroke-width:2;stroke-linecap:round;stroke-linejoin:round;stroke-miterlimit:10;" x1="3" y1="30" x2="21.175" y2="30"/><line style="fill:none;stroke:#000000;stroke-width:2;stroke-linecap:round;stroke-linejoin:round;stroke-miterlimit:10;" x1="17" y1="12" x2="17" y2="3"/><line style="fill:none;stroke:#000000;stroke-width:2;stroke-linecap:round;stroke-linejoin:round;stroke-miterlimit:10;" x1="24" y1="21" x2="24" y2="12"/><line style="fill:none;stroke:#000000;stroke-width:2;stroke-linecap:round;stroke-linejoin:round;stroke-miterlimit:10;" x1="10" y1="21" x2="10" y2="12"/><line style="fill:none;stroke:#000000;stroke-width:2;stroke-linecap:round;stroke-linejoin:round;stroke-miterlimit:10;" x1="10" y1="39" x2="10" y2="30"/><line style="fill:none;stroke:#000000;stroke-width:2;stroke-linecap:round;stroke-linejoin:round;stroke-miterlimit:10;" x1="38" y1="21" x2="38" y2="12"/><line style="fill:none;stroke:#000000;stroke-width:2;stroke-linecap:round;stroke-linejoin:round;stroke-miterlimit:10;" x1="31" y1="12" x2="31" y2="3"/><line style="fill:none;stroke:#000000;stroke-width:2;stroke-linecap:round;stroke-linejoin:round;stroke-miterlimit:10;" x1="17" y1="30" x2="17" y2="21"/><path style="fill-rule:evenodd;clip-rule:evenodd;fill:none;stroke:#000000;stroke-width:2;stroke-linecap:round;stroke-linejoin:round;stroke-miterlimit:10;" d="M28.635,42.471C30.421,45.197,33.498,47,37,47c5.523,0,10-4.477,10-10c0-3.502-1.804-6.579-4.529-8.365"/><circle style="fill-rule:evenodd;clip-rule:evenodd;fill:none;stroke:#000000;stroke-width:2;stroke-linecap:round;stroke-linejoin:round;stroke-miterlimit:10;" cx="32" cy="32" r="11"/></svg>