<?xml version="1.0" encoding="iso-8859-1"?>
<!-- Generator: Adobe Illustrator 25.2.0, SVG Export Plug-In . SVG Version: 6.00 Build 0)  -->
<svg version="1.1" id="Layer_1" xmlns="http://www.w3.org/2000/svg" xmlns:xlink="http://www.w3.org/1999/xlink" x="0px" y="0px"
	 viewBox="0 0 48 48" style="enable-background:new 0 0 48 48;" xml:space="preserve">
<path style="fill:none;stroke:#000000;stroke-width:3;stroke-linecap:round;stroke-linejoin:round;stroke-miterlimit:5;" d="
	M18,22.5c4.694,0,8.5-3.806,8.5-8.5S22.694,5.5,18,5.5S9.5,9.306,9.5,14S13.306,22.5,18,22.5z"/>
<path d="M45.551,43.439l-4.946-4.946c0.873-1.282,1.385-2.828,1.385-4.493c0-4.411-3.589-8-8-8s-8,3.589-8,8s3.589,8,8,8
	c1.665,0,3.211-0.512,4.493-1.386l4.946,4.946C43.722,45.854,44.106,46,44.49,46s0.768-0.146,1.061-0.439
	C46.136,44.975,46.136,44.025,45.551,43.439z M28.99,34c0-2.757,2.243-5,5-5s5,2.243,5,5s-2.243,5-5,5S28.99,36.757,28.99,34z"/>
<path d="M25.41,39.118c-2.192,1.271-5.108,1.881-7.92,1.882C11.953,40.997,6,38.65,6,33.5v-1.521C6,31.448,6.331,31,6.723,31h17.726
	c0.344-1.095,0.879-2.103,1.554-3H6.723C4.67,28,3,29.785,3,31.979V33.5c0,3.281,1.696,6.132,4.776,8.027
	c2.589,1.594,6.038,2.471,9.714,2.473c3.676-0.002,7.125-0.879,9.714-2.473c0.044-0.027,0.08-0.058,0.123-0.085
	C26.576,40.769,25.93,39.987,25.41,39.118z"/>
<line style="fill:none;stroke:#000000;stroke-width:3;stroke-linecap:round;stroke-linejoin:round;stroke-miterlimit:5;" x1="29.75" y1="38.25" x2="38.25" y2="29.75"/>
</svg>