<?xml version="1.0" encoding="iso-8859-1"?>
<!-- Generator: Adobe Illustrator 23.0.3, SVG Export Plug-In . SVG Version: 6.00 Build 0)  -->
<svg version="1.1" id="Layer_1" xmlns="http://www.w3.org/2000/svg" xmlns:xlink="http://www.w3.org/1999/xlink" x="0px" y="0px"
	 viewBox="0 0 48 48" style="enable-background:new 0 0 48 48;" xml:space="preserve">
<path style="fill:none;stroke:#000000;stroke-width:3;stroke-linecap:round;stroke-linejoin:round;stroke-miterlimit:5;" d="
	M19.152,20.983C16.945,19.448,15.5,16.893,15.5,14c0-4.694,3.806-8.5,8.5-8.5"/>
<path style="fill:none;stroke:#000000;stroke-width:3;stroke-linecap:round;stroke-linejoin:round;stroke-miterlimit:5;" d="
	M29.825,7.81C31.472,9.36,32.5,11.56,32.5,14c0,4.694-3.806,8.5-8.5,8.5c-0.164,0-0.327-0.005-0.489-0.014"/>
<path style="fill:none;stroke:#000000;stroke-width:3;stroke-linecap:round;stroke-linejoin:round;stroke-miterlimit:10;" d="
	M24.532,42.495C17.109,42.645,9.5,39.647,9.5,33.5v0c0-2.209,1.791-4,4-4h16.457"/>
<path d="M34.578,34.15c0.357,0,0.705,0.118,1.29,0.327c0.761,0.272,1.709,0.611,2.901,0.611c1.172,0,2.088-0.348,2.757-0.601
	c0.345-0.131,0.605-0.23,0.878-0.286c-0.558,1.173-0.816,2.494-0.721,3.862c0.135,1.927,0.929,3.663,2.202,4.965
	c-0.009,0.014-0.019,0.029-0.029,0.044c-0.773,1.178-1.22,1.612-1.434,1.771c-0.065-0.028-0.141-0.063-0.205-0.092
	c-0.64-0.293-1.711-0.783-3.381-0.783h-0.054h-0.007c-1.666,0.008-2.704,0.469-3.39,0.775c-0.093,0.041-0.212,0.094-0.286,0.124
	c-0.182-0.118-0.598-0.485-1.344-1.618c-2.146-3.269-2.015-6.53-1.249-7.707C33.126,34.585,34.015,34.15,34.578,34.15 M42.513,26.03
	c-1.172,0.08-2.542,0.828-3.342,1.797c-0.725,0.882-1.326,2.193-1.092,3.461c0.033,0.001,0.066,0.002,0.099,0.002
	c1.247,0,2.521-0.748,3.269-1.711C42.166,28.657,42.71,27.357,42.513,26.03L42.513,26.03z M42.946,31.147
	c-1.974,0-2.808,0.941-4.177,0.941c-1.411,0-2.484-0.938-4.191-0.938c-1.676,0-3.461,1.02-4.589,2.758
	c-1.594,2.451-1.322,7.056,1.258,10.986c0.922,1.401,2.154,2.979,3.763,2.993c0.011,0,0.022,0,0.033,0
	c1.406,0,1.819-0.912,3.746-0.921c0.016,0,0.031,0,0.047,0c1.889,0,2.271,0.919,3.669,0.919c0.009,0,0.018,0,0.027,0
	c1.609-0.012,2.91-1.763,3.832-3.167c0.459-0.698,0.717-1.157,1.004-1.753c0.225-0.466,0.051-1.022-0.392-1.29
	c-2.71-1.644-3.166-5.608-0.686-7.723c0.466-0.397,0.412-1.127-0.058-1.519C45.24,31.608,44.069,31.147,42.946,31.147L42.946,31.147
	z"/>
</svg>