<?xml version="1.0" encoding="iso-8859-1"?>
<!-- Generator: Adobe Illustrator 24.3.0, SVG Export Plug-In . SVG Version: 6.00 Build 0)  -->
<svg version="1.1" id="Layer_1_1_" xmlns="http://www.w3.org/2000/svg" xmlns:xlink="http://www.w3.org/1999/xlink" x="0px" y="0px"
	 viewBox="0 0 48 48" style="enable-background:new 0 0 48 48;" xml:space="preserve">
<g>
</g>
<circle style="fill:none;stroke:#000000;stroke-width:3;stroke-linejoin:round;stroke-miterlimit:5;" cx="24" cy="14" r="8.5"/>
<path d="M20.267,40.705C15.242,39.904,11,37.465,11,33.5v-1.521C11,31.439,11.438,31,11.979,31h11.588l3.005-3H11.979
	C9.785,28,8,29.785,8,31.979V33.5c0,3.312,1.885,6.175,5.307,8.063c2.296,1.267,5.214,2.065,8.378,2.331
	C21.013,42.926,20.537,41.848,20.267,40.705z"/>
<path style="fill:none;stroke:#000000;stroke-width:3;stroke-linecap:round;stroke-miterlimit:10;" d="M29.507,38.507l9.869-9.88
	c1.173-1.175,3.077-1.175,4.251-0.001c1.174,1.174,1.174,3.076,0,4.25l-9.884,9.867C32.571,43.914,31.035,44.5,29.5,44.5
	s-3.071-0.586-4.242-1.757c-2.344-2.343-2.344-6.142,0-8.485l8.774-8.757"/>
</svg>