<?xml version="1.0" encoding="iso-8859-1"?><!-- Generator: Adobe Illustrator 23.0.3, SVG Export Plug-In . SVG Version: 6.00 Build 0)  --><svg xmlns="http://www.w3.org/2000/svg" xmlns:xlink="http://www.w3.org/1999/xlink" viewBox="0 0 50 50" width="50px" height="50px"><g><path d="M48.8,29.2C48,28.3,46.9,28,45.9,28s-1.9,0.4-2.7,1.1L43,29.2l-0.1,0.1l-0.3,0.3l-0.7,0.7l-0.2,0.2L30,42.3c-0.1,0.1-0.2,0.3-0.3,0.4l-1.7,6c-0.2,0.5,0.1,1.1,0.7,1.2c0.2,0.1,0.4,0.1,0.5,0l6-1.6c0.2,0,0.3-0.1,0.5-0.3l12.8-12.8l0.3-0.2C50.4,33.4,50.4,30.8,48.8,29.2z M35.2,45.8l-3-2.9l10.9-11l3,3L35.2,45.8z"/><path d="M26.403,47l1.514-5.343l0.278-0.279c0.143-0.209,0.271-0.372,0.387-0.488l5.317-5.357c-1.373-0.623-2.456-1.292-2.899-2.235v-3.551c0.846-0.916,1.69-2.828,2.001-4.57c0.712-0.35,1.59-1.24,1.795-3.493c0.095-1.126-0.215-1.954-0.641-2.488c0.849-2.728,1.594-7.402-0.203-10.373C33.1,7.414,31.8,6.528,30.083,6.185C29.117,4.965,27.301,4.3,24.879,4.3h-0.001C21.193,4.383,18.5,5.51,16.873,7.649c-1.926,2.534-2.287,6.417-1.076,11.547c-0.413,0.531-0.785,1.38-0.688,2.54c0.296,2.159,1.116,3.049,1.785,3.414c0.308,1.75,1.156,3.676,2.007,4.597v3.562c-0.611,1.375-2.601,2.171-4.892,3.088c-3.864,1.546-8.673,3.47-9.007,9.549L4.943,47L26.403,47L26.403,47z M21,33.5c0-0.152-0.039-0.292-0.1-0.421V29.3l0.02-0.568l-0.504-0.288c-0.381-0.284-1.44-2.243-1.621-4.139l-0.013-0.896h-0.909c-0.142-0.055-0.589-0.53-0.777-1.892c-0.069-0.839,0.359-1.185,0.358-1.185l0.59-0.392l-0.174-0.686c-1.213-4.783-1.012-8.281,0.596-10.395c1.239-1.63,3.412-2.492,6.435-2.56c1.891,0,3.252,0.476,3.736,1.304l0.244,0.419L29.36,8.09c1.332,0.188,2.274,0.766,2.881,1.768c1.448,2.395,0.685,6.877-0.183,9.305l-0.316,0.824l0.793,0.396c0.089,0.063,0.329,0.408,0.269,1.125C32.669,22.988,32.2,23.382,32.1,23.4H31.19l-0.086,0.906c-0.181,1.896-1.239,3.854-1.601,4.126L29,28.719v4.78c-0.018,0.374-1.464,1.5-4,1.5C22.511,35,21,33.958,21,33.5z"/></g></svg>