<?xml version="1.0" encoding="iso-8859-1"?><!-- Generator: Adobe Illustrator 21.1.0, SVG Export Plug-In . SVG Version: 6.00 Build 0)  --><svg xmlns="http://www.w3.org/2000/svg" xmlns:xlink="http://www.w3.org/1999/xlink" viewBox="0 0 64 64" width="512px" height="512px"><g><path d="M41,52c-0.553,0-1,0.447-1,1v2c0,0.553,0.447,1,1,1s1-0.447,1-1v-2C42,52.447,41.553,52,41,52z"/><path d="M46,52c-0.553,0-1,0.447-1,1v2c0,0.553,0.447,1,1,1s1-0.447,1-1v-2C47,52.447,46.553,52,46,52z"/><path d="M56,47v2c0,0.553,0.447,1,1,1s1-0.447,1-1v-2c0-0.553-0.447-1-1-1S56,46.447,56,47z"/><path d="M36,52c-0.553,0-1,0.447-1,1v2c0,0.553,0.447,1,1,1s1-0.447,1-1v-2C37,52.447,36.553,52,36,52z"/><path d="M31,52c-0.553,0-1,0.447-1,1v2c0,0.553,0.447,1,1,1s1-0.447,1-1v-2C32,52.447,31.553,52,31,52z"/><path d="M26,52c-0.553,0-1,0.447-1,1v2c0,0.553,0.447,1,1,1s1-0.447,1-1v-2C27,52.447,26.553,52,26,52z"/><path d="M21,52c-0.553,0-1,0.447-1,1v2c0,0.553,0.447,1,1,1s1-0.447,1-1v-2C22,52.447,21.553,52,21,52z"/><path d="M16,52c-0.553,0-1,0.447-1,1v2c0,0.553,0.447,1,1,1s1-0.447,1-1v-2C17,52.447,16.553,52,16,52z"/><path d="M11,52c-0.553,0-1,0.447-1,1v2c0,0.553,0.447,1,1,1s1-0.447,1-1v-2C12,52.447,11.553,52,11,52z"/><path d="M6,52c-0.553,0-1,0.447-1,1v2c0,0.553,0.447,1,1,1s1-0.447,1-1v-2C7,52.447,6.553,52,6,52z"/><path d="M29,46h-6c-0.553,0-1,0.447-1,1s0.447,1,1,1h6c0.553,0,1-0.447,1-1S29.553,46,29,46z"/><path d="M56.976,38.205l-9.17-5.934c0.31-0.331,0.608-0.679,0.892-1.044c0.006-0.007,0.006-0.016,0.012-0.023C50.755,28.556,52,25.167,52,22v-2c0-6.617-5.383-12-12-12c-1.84,0-3.576,0.429-5.135,1.175C32.449,7.193,29.362,6,26,6c-7.72,0-14,6.28-14,14v2c0,3.497,1.371,7.807,3.7,11.334L5.488,39.246C2.103,41.206,0,44.854,0,48.766V57c0,1.654,1.346,3,3,3h46c1.654,0,3-1.346,3-3v-3h7c1.654,0,3-1.346,3-3v-3.56C62,43.693,60.122,40.241,56.976,38.205z M14,22v-2c0-6.617,5.383-12,12-12s12,5.383,12,12v2c0,7.053-5.65,16-12,16S14,29.053,14,22z M50,57c0,0.552-0.448,1-1,1H3c-0.552,0-1-0.448-1-1v-8.234c0-3.2,1.721-6.185,4.49-7.789l10.395-6.018C19.281,37.913,22.423,40,26,40s6.719-2.087,9.115-5.041l10.395,6.018c2.77,1.604,4.49,4.589,4.49,7.789V57z M60,51c0,0.552-0.448,1-1,1h-7v-2c0.553,0,1-0.447,1-1v-2c0-0.553-0.447-1-1-1c-0.123,0-0.239,0.029-0.348,0.07c-0.722-2.836-2.551-5.325-5.141-6.824L36.3,33.334C38.629,29.807,40,25.497,40,22v-2c0-3.582-1.364-6.843-3.584-9.322C37.53,10.246,38.735,10,40,10c5.514,0,10,4.486,10,10v2c0,2.964-1.275,6.152-3.322,8.518c-0.072,0.083-0.141,0.172-0.214,0.252c-0.292,0.321-0.597,0.628-0.917,0.912c0,0-0.001,0.001-0.001,0.001c-0.541,0.48-1.11,0.896-1.693,1.232c-0.479,0.275-0.644,0.887-0.367,1.365c0.185,0.321,0.521,0.501,0.867,0.501c0.169,0,0.341-0.043,0.498-0.134c0.488-0.281,0.96-0.621,1.423-0.985l9.615,6.222C58.463,41.55,60,44.375,60,47.44V51z"/></g></svg>