<?xml version="1.0" encoding="iso-8859-1"?>
<!-- Generator: Adobe Illustrator 24.0.2, SVG Export Plug-In . SVG Version: 6.00 Build 0)  -->
<svg version="1.1" id="Layer_1_1_" xmlns="http://www.w3.org/2000/svg" xmlns:xlink="http://www.w3.org/1999/xlink" x="0px" y="0px"
	 viewBox="0 0 48 48" style="enable-background:new 0 0 48 48;" xml:space="preserve">
<path d="M36.5,14h-0.541C35.449,7.85,30.28,3,24,3S12.551,7.85,12.041,14H11.5C6.813,14,3,17.813,3,22.5S6.813,31,11.5,31h12.26
	C22.661,29.63,22,27.893,22,26c0-4.418,3.582-8,8-8s8,3.582,8,8c0,1.893-0.661,3.63-1.76,5h0.26c4.687,0,8.5-3.813,8.5-8.5
	S41.187,14,36.5,14z"/>
<g>
	<circle cx="30" cy="26" r="6"/>
	<path d="M35.5,34h-11c-1.93,0-3.5,1.57-3.5,3.5V40c0,3.364,3.953,6,9,6s9-2.636,9-6v-2.5C39,35.57,37.43,34,35.5,34z"/>
</g>
</svg>