<?xml version="1.0" encoding="iso-8859-1"?>
<!-- Generator: Adobe Illustrator 22.1.0, SVG Export Plug-In . SVG Version: 6.00 Build 0)  -->
<svg version="1.1" id="Layer_1" xmlns="http://www.w3.org/2000/svg" xmlns:xlink="http://www.w3.org/1999/xlink" x="0px" y="0px"
	 viewBox="0 0 50 50" style="enable-background:new 0 0 50 50;" xml:space="preserve">
<circle cx="26" cy="7" r="5"/>
<path d="M40.268,22.232l-5.035-5.035C33.815,15.78,31.933,15,29.929,15h-7.695c-0.729,0-1.452,0.106-2.155,0.316l-3.912,1.174
	l1.869-3.949c0.591-1.248,0.059-2.738-1.189-3.33c-0.088-0.042-0.264-0.122-0.454-0.209l0.746-1.575
	c0.237-0.499,0.024-1.095-0.476-1.331c-0.497-0.236-1.095-0.024-1.331,0.476L9.24,19.43c-0.423,0.893-0.28,1.95,0.363,2.7
	c0.645,0.749,1.667,1.048,2.615,0.765L20,21c0,4.933,0,23.301,0,24.5c0,1.381,1.119,2.5,2.5,2.5s2.5-1.119,2.5-2.5
	c0-0.367,0-6.475,0-12.5c0-0.552,0.448-1,1-1s1,0.448,1,1c0,5.774,0,11.8,0,12.5c0,1.381,1.119,2.5,2.5,2.5s2.5-1.119,2.5-2.5
	c0-0.594,0-17.865,0-24.465l3.423,3.423l-3.129,5.865c-0.649,1.219-0.188,2.732,1.029,3.383c0.375,0.199,0.777,0.295,1.175,0.295
	c0.894,0,1.758-0.481,2.208-1.324l4-7.5C41.224,24.206,41.046,23.011,40.268,22.232z"/>
</svg>