<?xml version="1.0" encoding="iso-8859-1"?><!-- Generator: Adobe Illustrator 21.1.0, SVG Export Plug-In . SVG Version: 6.00 Build 0)  --><svg xmlns="http://www.w3.org/2000/svg" xmlns:xlink="http://www.w3.org/1999/xlink" viewBox="0 0 50 50" width="500px" height="500px"><path d="M46,40c0,0.6-0.4,1-1,1H35c-0.6,0-1-0.4-1-1s0.4-1,1-1h10.1C45.6,39,46,39.4,46,40z M50,40c0,5.5-4.5,10-10,10s-10-4.5-10-10s4.5-10,10-10S50,34.5,50,40z M48,40c0-4.4-3.6-8-8-8s-8,3.6-8,8s3.6,8,8,8S48,44.4,48,40z"/><path style="fill:none;stroke:#000000;stroke-width:2;stroke-linecap:round;stroke-linejoin:round;stroke-miterlimit:10;" d="M32.246,35.168c-3.12-1.299-6.29-2.282-7.121-4.543C25,29,25.01,28.076,25.01,26.625c0.711-0.378,2.071-2.844,2.286-4.875c0.559-0.046,1.44-0.598,1.698-2.776c0.139-1.169-0.414-1.827-0.751-2.034c0.658-2.824,2.542-11.385-3.494-12.211C24.103,3.579,22.405,3,20.25,3c-8.5,0-9.367,6.582-7.478,13.94c-0.336,0.207-0.889,0.865-0.751,2.034c0.259,2.178,1.139,2.729,1.698,2.776c0.214,2.031,1.558,4.372,2.27,4.75c0.01,2,0.01,2.5-0.115,4.125C14.169,35.265,2.532,34.052,2,43h29.375"/><path style="fill:none;stroke:#000000;stroke-width:2;stroke-linecap:round;stroke-linejoin:round;stroke-miterlimit:10;" d="M41,31c-1.498-0.666-4.467-2.669-4.913-3.893c-0.127-1.429-0.078-2.426-0.078-3.732c0.634-0.34,2.265-2.343,2.457-4.171c0.498-0.042,1.284-0.538,1.515-2.498c0.124-1.052-0.369-1.644-0.67-1.831c0.587-2.541,2.189-9.625-3.02-10.319C35.713,3.521,34.199,3,32.277,3c-2.86,0-4.496,0.969-5.652,2.375"/></svg>