<?xml version="1.0" encoding="iso-8859-1"?>
<!-- Generator: Adobe Illustrator 25.0.1, SVG Export Plug-In . SVG Version: 6.00 Build 0)  -->
<svg version="1.1" id="Layer_1" xmlns="http://www.w3.org/2000/svg" xmlns:xlink="http://www.w3.org/1999/xlink" x="0px" y="0px"
	 viewBox="0 0 48 48" style="enable-background:new 0 0 48 48;" xml:space="preserve">
<line style="fill:none;stroke:#000000;stroke-width:3;stroke-linecap:round;stroke-linejoin:round;stroke-miterlimit:10;" x1="15.5" y1="40.5" x2="32.5" y2="40.5"/>
<path d="M39.5,7h-31C5.467,7,3,9.468,3,12.5v18C3,33.532,5.467,36,8.5,36h31c3.033,0,5.5-2.468,5.5-5.5v-18
	C45,9.468,42.533,7,39.5,7z M23,28.5c0,0.828-0.671,1.5-1.5,1.5h-11C9.671,30,9,29.328,9,28.5v-4c0-0.828,0.671-1.5,1.5-1.5h11
	c0.829,0,1.5,0.672,1.5,1.5V28.5z M23,18.5c0,0.828-0.671,1.5-1.5,1.5h-11C9.671,20,9,19.328,9,18.5v-4c0-0.828,0.671-1.5,1.5-1.5
	h11c0.829,0,1.5,0.672,1.5,1.5V18.5z M39,28.5c0,0.828-0.671,1.5-1.5,1.5h-11c-0.829,0-1.5-0.672-1.5-1.5v-4
	c0-0.828,0.671-1.5,1.5-1.5h11c0.829,0,1.5,0.672,1.5,1.5V28.5z M39,18.5c0,0.828-0.671,1.5-1.5,1.5h-11c-0.829,0-1.5-0.672-1.5-1.5
	v-4c0-0.828,0.671-1.5,1.5-1.5h11c0.829,0,1.5,0.672,1.5,1.5V18.5z"/>
</svg>