<?xml version="1.0" encoding="iso-8859-1"?>
<!-- Generator: Adobe Illustrator 23.0.3, SVG Export Plug-In . SVG Version: 6.00 Build 0)  -->
<svg version="1.1" id="Layer_1" xmlns="http://www.w3.org/2000/svg" xmlns:xlink="http://www.w3.org/1999/xlink" x="0px" y="0px"
	 viewBox="0 0 48 48" style="enable-background:new 0 0 48 48;" xml:space="preserve">
<path style="fill:none;stroke:#000000;stroke-width:3;stroke-linecap:round;stroke-linejoin:round;stroke-miterlimit:5;" d="
	M16.878,18.641C16.006,17.307,15.5,15.712,15.5,14c0-4.527,3.539-8.227,8.001-8.486"/>
<path style="fill:none;stroke:#000000;stroke-width:3;stroke-linecap:round;stroke-linejoin:round;stroke-miterlimit:5;" d="
	M29.359,7.402C31.276,8.961,32.5,11.337,32.5,14c0,4.694-3.806,8.5-8.5,8.5c-0.533,0-1.055-0.049-1.561-0.143"/>
<path style="fill:none;stroke:#000000;stroke-width:3;stroke-linecap:round;stroke-linejoin:round;stroke-miterlimit:10;" d="
	M16.685,41.393C12.556,40.027,9.5,37.396,9.5,33.5v0c0-2.209,1.791-4,4-4h9.734"/>
<path style="fill:none;stroke:#000000;stroke-width:3;stroke-linecap:round;stroke-miterlimit:10;" d="M29.507,38.507l9.869-9.88
	c1.173-1.175,3.077-1.175,4.251-0.001s1.174,3.076,0,4.25l-9.884,9.867C32.571,43.914,31.035,44.5,29.5,44.5
	s-3.071-0.586-4.242-1.757c-2.344-2.343-2.344-6.142,0-8.485l8.774-8.757"/>
</svg>