<?xml version="1.0" encoding="iso-8859-1"?>
<!-- Generator: Adobe Illustrator 26.0.1, SVG Export Plug-In . SVG Version: 6.00 Build 0)  -->
<svg version="1.1" baseProfile="basic" id="Layer_1"
	 xmlns="http://www.w3.org/2000/svg" xmlns:xlink="http://www.w3.org/1999/xlink" x="0px" y="0px" viewBox="0 0 72 72"
	 xml:space="preserve">
<path d="M36,36c-6.617,0-12-5.607-12-12.5S29.383,11,36,11s12,5.607,12,12.5S42.617,36,36,36z"/>
<path d="M44.804,38.759C38.592,42.052,34.098,50.567,38.414,59H21.553c-4.512,0-7.717-4.526-6.155-8.81
	C18.248,42.386,26.527,37.143,36,37.143C39.116,37.143,42.097,37.72,44.804,38.759z"/>
<path id="overlay_00000124846507668489933960000007502770165728524678_" d="M51.875,41.156c6.058,0,10.969,4.911,10.969,10.969
	c0,6.058-4.911,10.969-10.969,10.969s-10.969-4.911-10.969-10.969C40.906,46.067,45.817,41.156,51.875,41.156z M58.283,49.562
	c0.604-0.925,0.343-2.165-0.582-2.768c-0.927-0.603-2.165-0.343-2.768,0.583L50.744,53.8l-2.104-2.382
	c-0.729-0.827-1.995-0.907-2.822-0.176c-0.828,0.731-0.907,1.995-0.176,2.823l3.842,4.353c0.381,0.432,0.928,0.676,1.499,0.676
	c0.048,0,0.097-0.002,0.146-0.005c0.622-0.045,1.188-0.379,1.529-0.902L58.283,49.562z"/>
</svg>