<?xml version="1.0" encoding="iso-8859-1"?><!-- Generator: Adobe Illustrator 19.1.1, SVG Export Plug-In . SVG Version: 6.00 Build 0)  --><svg xmlns="http://www.w3.org/2000/svg" xmlns:xlink="http://www.w3.org/1999/xlink" viewBox="0 0 50 50" width="500px" height="500px"><path style="fill:none;stroke:#000000;stroke-width:2;stroke-miterlimit:10;" d="M34.903,19C34.018,12.216,27.205,7,19,7C10.2,7,3,13,3,20.5c0,4.3,2.3,8,6,10.5l-2,6l6.3-3.9C15,33.7,17,34,19,34c1.025,0,2.028-0.081,3-0.237"/><path style="fill:none;stroke:#000000;stroke-width:2;stroke-miterlimit:10;" d="M47,30c0-6.1-5.8-11-13-11s-13,4.9-13,11s5.8,11,13,11c1.8,0,3.5-0.3,5-0.8l5,2.8l-1.4-4.8C45.3,36.2,47,33.3,47,30z"/><path d="M15,16c0,1.1-0.9,2-2,2s-2-0.9-2-2s0.9-2,2-2S15,14.9,15,16z M25,14c-1.1,0-2,0.9-2,2s0.9,2,2,2s2-0.9,2-2S26.1,14,25,14z"/><path d="M31,27.5c0,0.8-0.7,1.5-1.5,1.5S28,28.3,28,27.5s0.7-1.5,1.5-1.5S31,26.7,31,27.5z M38.5,26c-0.8,0-1.5,0.7-1.5,1.5s0.7,1.5,1.5,1.5s1.5-0.7,1.5-1.5S39.3,26,38.5,26z"/></svg>