<?xml version="1.0" encoding="iso-8859-1"?>
<!-- Generator: Adobe Illustrator 25.0.0, SVG Export Plug-In . SVG Version: 6.00 Build 0)  -->
<svg version="1.1" id="Layer_1" xmlns="http://www.w3.org/2000/svg" xmlns:xlink="http://www.w3.org/1999/xlink" x="0px" y="0px"
	 viewBox="0 0 48 48" style="enable-background:new 0 0 48 48;" xml:space="preserve">
<path d="M35,24c-6.075,0-11,4.925-11,11s4.925,11,11,11s11-4.925,11-11S41.075,24,35,24z M41.707,31.707l-8,8
	C33.512,39.902,33.256,40,33,40s-0.512-0.098-0.707-0.293l-4-4c-0.391-0.391-0.391-1.023,0-1.414s1.023-0.391,1.414,0L33,37.586
	l7.293-7.293c0.391-0.391,1.023-0.391,1.414,0S42.098,31.316,41.707,31.707z"/>
<circle style="fill:none;stroke:#000000;stroke-width:3;stroke-miterlimit:10;" cx="24" cy="14" r="8.5"/>
<path d="M23.467,40.984C15.756,40.818,11,37.131,11,33.7v-1.2c0-0.827,0.673-1.5,1.5-1.5h10.134c0.345-1.068,0.829-2.073,1.424-3
	H12.5C10.019,28,8,30.019,8,32.5v1.2C8,39.476,15.028,44,24,44c0.537,0,1.065-0.018,1.587-0.05
	C24.749,43.069,24.033,42.073,23.467,40.984z"/>
</svg>