<?xml version="1.0" encoding="iso-8859-1"?>
<!-- Generator: Adobe Illustrator 24.1.2, SVG Export Plug-In . SVG Version: 6.00 Build 0)  -->
<svg version="1.1" baseProfile="basic" id="Layer_1"
	 xmlns="http://www.w3.org/2000/svg" xmlns:xlink="http://www.w3.org/1999/xlink" x="0px" y="0px" viewBox="0 0 100 100"
	 xml:space="preserve">
<path style="fill:none;stroke:#000000;stroke-miterlimit:10;" d="M22.411,44.255c2.261,3.444,6.774,5.245,8.56,5.245
	c1.844,0,6.358-1.801,8.619-5.245"/>
<path style="fill:none;stroke:#000000;stroke-width:2;stroke-linejoin:round;stroke-miterlimit:10;" d="M20,33.588
	c0,0-0.567,0.629-0.665,0.756c-0.163,0.215-0.318,0.541-0.334,0.99c-0.01,0.271,0.642,3.695,0.831,4.283
	C20.04,40.277,20.456,40.818,21,41v0.49c0,1.216,0.569,2.394,0.993,3.039c1.272,1.937,3.199,3.355,5.007,4.263
	c0,0.07,0,0.138,0,0.208c0,2.031-2,2.75-2,2.75l-5.59,1.832c-2.223,0.867-3.861,2.762-4.378,5.054l-0.006,0.006
	C14.873,59.34,15.413,60,16.141,60h29.719c0.728,0,1.268-0.66,1.115-1.359l-0.006-0.006c-0.517-2.292-2.155-4.188-4.378-5.054
	L37,51.75c0,0-2-0.75-2-2.75c0-0.07,0-0.138,0-0.208c1.808-0.908,3.736-2.326,5.007-4.263C40.431,43.884,41,42.706,41,41.49V41
	c0.544-0.182,0.96-0.723,1.168-1.384c0.189-0.588,0.841-4.012,0.831-4.283c-0.016-0.448-0.17-0.774-0.334-0.99
	c-0.098-0.127-0.54-0.719-0.54-0.719"/>
<path style="fill:none;stroke:#000000;stroke-linecap:round;stroke-miterlimit:10;" d="M33.5,53.286
	c2.431-0.459,3.05-1.504,3.057-1.518"/>
<path style="fill:none;stroke:#000000;stroke-linecap:round;stroke-miterlimit:10;" d="M25.447,51.776
	C25.452,51.785,26.451,53.5,31,53.5c0.175,0,0.335-0.007,0.5-0.012"/>
<path style="fill:none;stroke:#000000;stroke-miterlimit:10;" d="M60.411,44.255c2.261,3.444,6.774,5.245,8.56,5.245
	c1.844,0,6.358-1.801,8.619-5.245"/>
<path style="fill:none;stroke:#000000;stroke-width:2;stroke-linejoin:round;stroke-miterlimit:10;" d="M58,33.588
	c0,0-0.567,0.629-0.665,0.756c-0.163,0.215-0.318,0.541-0.334,0.99c-0.01,0.271,0.642,3.695,0.831,4.283
	C58.04,40.277,58.456,40.818,59,41v0.49c0,1.216,0.569,2.394,0.993,3.039c1.272,1.937,3.199,3.355,5.007,4.263
	c0,0.07,0,0.138,0,0.208c0,2.031-2,2.75-2,2.75l-5.59,1.832c-2.223,0.867-3.861,2.762-4.378,5.054l-0.006,0.006
	C52.873,59.34,53.413,60,54.141,60h29.719c0.728,0,1.268-0.66,1.115-1.359l-0.006-0.006c-0.517-2.292-2.155-4.188-4.378-5.054
	L75,51.75c0,0-2-0.75-2-2.75c0-0.07,0-0.138,0-0.208c1.808-0.908,3.736-2.326,5.007-4.263C78.431,43.884,79,42.706,79,41.49V41
	c0.544-0.182,0.96-0.723,1.168-1.384c0.189-0.588,0.841-4.012,0.831-4.283c-0.016-0.448-0.17-0.774-0.334-0.99
	c-0.098-0.127-0.54-0.719-0.54-0.719"/>
<path style="fill:none;stroke:#000000;stroke-linecap:round;stroke-miterlimit:10;" d="M71.5,53.286
	c2.431-0.459,3.05-1.504,3.057-1.518"/>
<path style="fill:none;stroke:#000000;stroke-linecap:round;stroke-miterlimit:10;" d="M63.447,51.776
	C63.452,51.785,64.451,53.5,69,53.5c0.175,0,0.335-0.007,0.5-0.012"/>
<path style="fill:none;stroke:#000000;stroke-linecap:round;stroke-linejoin:round;stroke-miterlimit:10;" d="M38.953,30.5
	c0.225,0.33,0.418,0.665,0.582,1"/>
<path style="fill:none;stroke:#000000;stroke-linecap:round;stroke-linejoin:round;stroke-miterlimit:10;" d="M34.5,28.026
	c0.995-1.155,1.657-2.496,2-3.526c0,1.491-0.061,2.515,0.912,4"/>
<path style="fill:none;stroke:#000000;stroke-linecap:round;stroke-linejoin:round;stroke-miterlimit:10;" d="M40.244,33.5
	c0.269,1.153,0.256,2,0.256,2s3-2.125,3-7c0-4.687-1.985-8.188-4.692-8.375c-0.587-1.436-2.695-3.625-7.33-3.625
	c-7.978,0-12.978,6-12.978,12c0,5,2.907,6.861,3,7c0,0,0-3,2-6c0,2,1,3,1,3s3.039-5.359,7-7c0,1-0.5,3.125-2,5
	c1.142,0,2.137-0.312,3-0.802"/>
<path style="fill:none;stroke:#000000;stroke-linecap:round;stroke-linejoin:round;stroke-miterlimit:10;" d="M76.953,30.5
	c0.225,0.33,0.418,0.665,0.582,1"/>
<path style="fill:none;stroke:#000000;stroke-linecap:round;stroke-linejoin:round;stroke-miterlimit:10;" d="M72.5,28.026
	c0.995-1.155,1.657-2.496,2-3.526c0,1.491-0.061,2.515,0.912,4"/>
<path style="fill:none;stroke:#000000;stroke-linecap:round;stroke-linejoin:round;stroke-miterlimit:10;" d="M78.244,33.5
	c0.269,1.153,0.256,2,0.256,2s3-2.125,3-7c0-4.687-1.985-8.188-4.692-8.375c-0.587-1.436-2.695-3.625-7.33-3.625
	c-7.978,0-12.978,6-12.978,12c0,5,2.907,6.861,3,7c0,0,0-3,2-6c0,2,1,3,1,3s3.039-5.359,7-7c0,1-0.5,3.125-2,5
	c1.142,0,2.137-0.312,3-0.802"/>
<g>
	<path style="fill:none;stroke:#000000;stroke-width:2;stroke-linecap:round;stroke-linejoin:round;stroke-miterlimit:10;" d="
		M75,80l-11,0v-7l11,0v-4.5c0-0.445,0.539-0.669,0.854-0.354l9.146,8c0.195,0.195,0.195,0.512,0,0.707l-9.146,8
		C75.539,85.169,75,84.945,75,84.5V80z"/>
	<path style="fill:none;stroke:#000000;stroke-width:2;stroke-linecap:round;stroke-linejoin:round;stroke-miterlimit:10;" d="
		M25,80l11,0v-7l-11,0v-4.5c0-0.445-0.539-0.669-0.854-0.354l-9.146,8c-0.195,0.195-0.195,0.512,0,0.707l9.146,8
		C24.461,85.169,25,84.945,25,84.5V80z"/>
	
		<rect x="41.5" y="72.5" style="fill:none;stroke:#000000;stroke-linecap:round;stroke-linejoin:round;stroke-miterlimit:10;" width="3" height="8"/>
	
		<rect x="48.5" y="72.5" style="fill:none;stroke:#000000;stroke-linecap:round;stroke-linejoin:round;stroke-miterlimit:10;" width="3" height="8"/>
	
		<rect x="55.5" y="72.5" style="fill:none;stroke:#000000;stroke-linecap:round;stroke-linejoin:round;stroke-miterlimit:10;" width="3" height="8"/>
</g>
</svg>