<?xml version="1.0" encoding="iso-8859-1"?>
<!-- Generator: Adobe Illustrator 26.0.1, SVG Export Plug-In . SVG Version: 6.00 Build 0)  -->
<svg version="1.1" baseProfile="basic" id="Layer_1"
	 xmlns="http://www.w3.org/2000/svg" xmlns:xlink="http://www.w3.org/1999/xlink" x="0px" y="0px" viewBox="0 0 64 64"
	 xml:space="preserve">
<path d="M37.151,32.811C36.449,32.482,36,31.776,36,31v-3.063c-2.266-0.372-4-2.344-4-4.713v-9.447C32,11.143,34.143,9,36.776,9
	h15.447C54.857,9,57,11.143,57,13.776v9.447C57,25.857,54.857,28,52.224,28h-7.5l-5.443,4.537
	C38.335,33.325,37.312,32.886,37.151,32.811z M36.776,13C36.349,13,36,13.348,36,13.776v9.447C36,23.652,36.349,24,36.776,24H38
	c1.104,0,2,0.896,2,2v0.73l2.72-2.267C43.079,24.164,43.532,24,44,24h8.224C52.651,24,53,23.652,53,23.224v-9.447
	C53,13.348,52.651,13,52.224,13H36.776z"/>
<path d="M21.5,38c-4.687,0-8.5-4.038-8.5-9s3.813-9,8.5-9s8.5,4.038,8.5,9S26.187,38,21.5,38z M21.5,24c-2.481,0-4.5,2.243-4.5,5
	s2.019,5,4.5,5s4.5-2.243,4.5-5S23.981,24,21.5,24z"/>
<path d="M32.431,55H10.569c-3.166,0-5.619-3.304-4.135-6.387c2.48-5.15,8.394-8.477,15.065-8.477s12.585,3.327,15.065,8.477
	C38.121,51.844,35.437,55,32.431,55z M21.5,44.136c-5.065,0-9.672,2.497-11.462,6.212C9.88,50.687,10.255,51,10.569,51h21.861
	c0.312,0,0.69-0.313,0.531-0.651C31.172,46.633,26.565,44.136,21.5,44.136z"/>
</svg>