<?xml version="1.0" encoding="utf-8"?><!-- Generator: Adobe Illustrator 17.1.0, SVG Export Plug-In . SVG Version: 6.00 Build 0)  --><!DOCTYPE svg PUBLIC "-//W3C//DTD SVG 1.1//EN" "http://www.w3.org/Graphics/SVG/1.1/DTD/svg11.dtd"><svg xmlns="http://www.w3.org/2000/svg" xmlns:xlink="http://www.w3.org/1999/xlink" viewBox="0 0 24 24" width="480px" height="480px" fill-rule="evenodd" clip-rule="evenodd"><polyline fill-rule="evenodd" clip-rule="evenodd" fill="none" stroke="#000000" stroke-width="1.2" stroke-miterlimit="10" points="  23,16.71 16.943,23 14.175,20.168 "/><path fill="#000000" d="M12.466,13.035c-1.033,0.554-2.214,0.87-3.467,0.87c-1.252,0-2.432-0.315-3.466-0.87  C3.301,13.622,1.551,15.011,0.75,18h16.5C16.448,15.011,14.7,13.621,12.466,13.035z"/><path fill="#000000" d="M9,12c3.314,0,6-2.686,6-6s-2.686-6-6-6S3,2.686,3,6S5.686,12,9,12z M13.011,8  C12.273,9.477,10.763,10.5,9,10.5S5.727,9.477,4.989,8H13.011z"/></svg>