<?xml version="1.0" encoding="iso-8859-1"?>
<!-- Generator: Adobe Illustrator 26.0.1, SVG Export Plug-In . SVG Version: 6.00 Build 0)  -->
<svg version="1.1" baseProfile="basic" id="Layer_1"
	 xmlns="http://www.w3.org/2000/svg" xmlns:xlink="http://www.w3.org/1999/xlink" x="0px" y="0px" viewBox="0 0 72 72"
	 xml:space="preserve">
<path d="M42.728,37.717C41.674,37.223,41,36.164,41,35v-2.279c-1.734-0.556-4.101-2.952-4-5.497v-9.447
	C37,14.586,39.586,12,42.776,12h15.447C61.414,12,64,14.586,64,17.776v9.447C64,30.414,61.414,33,58.224,33h-7.138l-5.165,4.305
	C44.501,38.487,42.967,37.829,42.728,37.717z M43.293,18C43.131,18,43,18.131,43,18.293v8.415C43,26.869,43.131,27,43.293,27h1.176
	c1.231,0,1.821,0.742,2.283,1.802l0.071,0.115l1.257-1.222C48.618,27.246,49.298,27,50,27h7.707C57.869,27,58,26.869,58,26.707
	v-8.415C58,18.131,57.869,18,57.707,18H43.293z"/>
<path d="M26.5,43c-5.238,0-9.5-4.486-9.5-10s4.262-10,9.5-10S36,27.486,36,33S31.738,43,26.5,43z M26.5,29c-1.93,0-3.5,1.794-3.5,4
	s1.57,4,3.5,4s3.5-1.794,3.5-4S28.43,29,26.5,29z"/>
<path d="M36.431,61H14.569c-3.939,0-6.895-3.993-4.991-7.63C12.239,48.285,18.488,45,25.5,45s13.261,3.285,15.922,8.369
	C43.4,57.148,40.213,61,36.431,61z M25.5,51c-3.845,0-7.38,1.367-9.435,3.533C15.899,54.708,16.036,55,16.277,55h18.445
	c0.242,0,0.378-0.292,0.212-0.467C32.88,52.367,29.345,51,25.5,51z"/>
</svg>