<?xml version="1.0" encoding="iso-8859-1"?><!-- Generator: Adobe Illustrator 19.2.1, SVG Export Plug-In . SVG Version: 6.00 Build 0)  --><svg xmlns="http://www.w3.org/2000/svg" xmlns:xlink="http://www.w3.org/1999/xlink" viewBox="0 0 50 50" width="50px" height="50px"><path d="M30.933,32.528c-0.146-1.612-0.09-2.737-0.09-4.21c0.73-0.384,2.038-2.826,2.259-4.888c0.574-0.047,1.479-0.607,1.744-2.818c0.143-1.187-0.425-1.855-0.771-2.065c0.934-2.809,2.874-11.499-3.588-12.397c-0.665-1.168-2.368-1.759-4.581-1.759c-8.854,0.163-9.922,6.686-7.981,14.156c-0.345,0.21-0.913,0.878-0.771,2.065c0.266,2.211,1.17,2.771,1.744,2.818c0.22,2.062,1.58,4.504,2.312,4.888c0,1.473,0.055,2.598-0.091,4.21C19.367,37.239,7.546,35.916,7,45h38C44.455,35.916,32.685,37.239,30.933,32.528z"/></svg>