<?xml version="1.0" encoding="iso-8859-1"?><!-- Generator: Adobe Illustrator 19.1.1, SVG Export Plug-In . SVG Version: 6.00 Build 0)  --><svg xmlns="http://www.w3.org/2000/svg" xmlns:xlink="http://www.w3.org/1999/xlink" viewBox="0 0 50 50" width="50px" height="50px"><circle cx="42.5" cy="7.5" r="5.5"/><line fill="#FFFFFF" stroke="#231F20" stroke-width="2" stroke-linecap="round" stroke-linejoin="round" stroke-miterlimit="10" x1="8" y1="40" x2="18" y2="40"/><path d="M25,20c-5.957,0-11.042,3.746-13.061,9h2.166c1.901-4.124,6.063-7,10.895-7c6.617,0,12,5.383,12,12s-5.383,12-12,12c-3.032,0-5.796-1.139-7.911-3h-2.798c2.57,3.053,6.415,5,10.708,5c7.72,0,14-6.28,14-14S32.72,20,25,20z"/><path d="M13.395,37h-2.063c0.313,1.428,0.849,2.771,1.562,4h2.379C14.415,39.81,13.773,38.46,13.395,37z"/><path d="M11.332,31C11.12,31.968,11,32.97,11,34c0,0.338,0.027,0.668,0.051,1h2C13.023,34.669,13,34.338,13,34c0-1.037,0.146-2.039,0.395-3H11.332z"/><path d="M40.862,29.479l-0.597-0.268c0.475,1.513,0.734,3.121,0.734,4.788c0,4.815-2.148,9.13-5.524,12.065c0.262,0.064,0.525,0.105,0.787,0.105c1.304,0,2.551-0.76,3.102-2.026l3.796-8.734C44.143,33.149,43.112,30.488,40.862,29.479z"/><line fill="#FFFFFF" stroke="#231F20" stroke-width="2" stroke-linecap="round" stroke-linejoin="round" stroke-miterlimit="10" x1="3" y1="34" x2="23" y2="34"/><line fill="#FFFFFF" stroke="#231F20" stroke-width="2" stroke-linecap="round" stroke-linejoin="round" stroke-miterlimit="10" x1="7" y1="28" x2="18" y2="28"/><path fill="#231F20" d="M25,20c-5.968,0-11.05,3.741-13.064,9H18c0.552,0,1,0.447,1,1s-0.448,1-1,1h-6.67C11.119,31.967,11,32.969,11,34c0,0.338,0.027,0.668,0.05,1H23c0.552,0,1,0.447,1,1s-0.448,1-1,1H11.33c0.312,1.429,0.846,2.771,1.558,4H18c0.552,0,1,0.447,1,1s-0.448,1-1,1h-3.717c2.568,3.055,6.414,5,10.717,5c7.732,0,14-6.268,14-14S32.732,20,25,20z"/><path d="M18.111,18.994l7.375-6.807l4.215,3.138l-2.455,2.851c3.702,0.524,6.994,2.312,9.432,4.922l2.334-3.223c1.648-2.277,1.191-5.4-1.04-7.11L29.146,6c-1.883-1.442-4.993-1.472-6.731,0.157l-8.541,8.395c-0.595,0.585-0.92,1.368-0.917,2.203c0.004,0.835,0.337,1.615,0.938,2.195C15.067,20.079,16.917,20.099,18.111,18.994z"/></svg>