<?xml version="1.0" encoding="iso-8859-1"?><!-- Generator: Adobe Illustrator 21.1.0, SVG Export Plug-In . SVG Version: 6.00 Build 0)  --><svg xmlns="http://www.w3.org/2000/svg" xmlns:xlink="http://www.w3.org/1999/xlink" viewBox="0 0 50 50" width="500px" height="500px"><circle style="fill:none;stroke:#000000;stroke-width:2;stroke-linecap:round;stroke-miterlimit:10;" cx="25" cy="25.008" r="22"/><path style="fill:none;stroke:#000000;stroke-width:2;stroke-linecap:round;stroke-miterlimit:10;" d="M40,41c-3.404-3.024-9.749-3.022-10.908-6.141C28.958,33.382,29.01,32.35,29.01,31c0.669-0.351,2.298-2.656,2.5-4.548c0.526-0.043,1.356-0.556,1.599-2.583c0.131-1.088-0.39-1.7-0.707-1.893c0.856-2.575,2.634-10.541-3.289-11.364C28.503,9.542,26.942,9,24.914,9c-8.116,0.149-9.095,6.129-7.316,12.976c-0.316,0.192-0.837,0.805-0.707,1.893c0.244,2.027,1.072,2.54,1.599,2.583c0.202,1.89,1.83,4.197,2.501,4.548c0,1.35,0.05,2.382-0.083,3.859C19.751,37.967,13.425,38.003,10,41"/></svg>