<?xml version="1.0" encoding="iso-8859-1"?>
<!-- Generator: Adobe Illustrator 25.4.1, SVG Export Plug-In . SVG Version: 6.00 Build 0)  -->
<svg version="1.1" baseProfile="basic" id="Layer_1"
	 xmlns="http://www.w3.org/2000/svg" xmlns:xlink="http://www.w3.org/1999/xlink" x="0px" y="0px" viewBox="0 0 64 64"
	 xml:space="preserve">
<path d="M33.5,33c3.866,0,7,3.134,7,7h-14C26.5,36.134,29.634,33,33.5,33z"/>
<path d="M33.5,25c1.933,0,3.5,1.567,3.5,3.5c0,1.933-1.567,3.5-3.5,3.5S30,30.433,30,28.5C30,26.567,31.567,25,33.5,25z"/>
<path d="M15.96,48.981C9.916,48.859,5,43.711,5,37.507c0-4.692,2.871-8.881,7.135-10.631c0.793-5.005,5.173-8.869,10.365-8.869
	c0.647,0,1.293,0.062,1.933,0.184c2.831-4.469,7.701-7.184,13.067-7.184c8.547,0,15.5,6.953,15.5,15.5
	c0,0.808-0.065,1.619-0.195,2.426C56.532,30.595,59,34.295,59,38.507c0,5.665-4.468,10.363-9.96,10.474
	C47.042,49.022,17.98,49.022,15.96,48.981z M22.5,22.007c-3.515,0-6.427,2.861-6.492,6.378c-0.017,0.889-0.618,1.66-1.476,1.893
	C11.274,31.163,9,34.136,9,37.507c0,4.043,3.158,7.396,7.04,7.475c1.858,0.038,31.084,0.038,32.919,0
	C52.29,44.915,55,42.01,55,38.507c0-3.022-2.055-5.619-4.996-6.316c-0.532-0.126-0.99-0.465-1.266-0.937
	c-0.276-0.472-0.347-1.037-0.195-1.562C48.846,28.637,49,27.565,49,26.507c0-6.341-5.159-11.5-11.5-11.5
	c-4.394,0-8.34,2.456-10.299,6.41c-0.453,0.915-1.521,1.339-2.478,0.991C23.994,22.142,23.246,22.007,22.5,22.007z"/>
</svg>