<?xml version="1.0" encoding="iso-8859-1"?>
<!-- Generator: Adobe Illustrator 22.1.0, SVG Export Plug-In . SVG Version: 6.00 Build 0)  -->
<svg version="1.1" id="Layer_1" xmlns="http://www.w3.org/2000/svg" xmlns:xlink="http://www.w3.org/1999/xlink" x="0px" y="0px"
	 viewBox="0 0 100 100" style="enable-background:new 0 0 100 100;" xml:space="preserve">
<g>
	<path d="M90.5,49h-26c-0.276,0-0.5,0.224-0.5,0.5s0.224,0.5,0.5,0.5h26c0.276,0,0.5-0.224,0.5-0.5S90.776,49,90.5,49z"/>
	<path d="M59.5,50h2c0.276,0,0.5-0.224,0.5-0.5S61.776,49,61.5,49h-2c-0.276,0-0.5,0.224-0.5,0.5S59.224,50,59.5,50z"/>
	<path d="M90.5,39h-26c-0.276,0-0.5,0.224-0.5,0.5s0.224,0.5,0.5,0.5h26c0.276,0,0.5-0.224,0.5-0.5S90.776,39,90.5,39z"/>
	<path d="M84.5,30h6c0.276,0,0.5-0.224,0.5-0.5S90.776,29,90.5,29h-6c-0.276,0-0.5,0.224-0.5,0.5S84.224,30,84.5,30z"/>
	<path d="M66.5,30h14.938c0.276,0,0.5-0.224,0.5-0.5s-0.224-0.5-0.5-0.5H66.5c-0.276,0-0.5,0.224-0.5,0.5S66.224,30,66.5,30z"/>
	<path d="M90.5,59h-29c-0.276,0-0.5,0.224-0.5,0.5s0.224,0.5,0.5,0.5h29c0.276,0,0.5-0.224,0.5-0.5S90.776,59,90.5,59z"/>
	<path d="M90.5,69h-26c-0.276,0-0.5,0.224-0.5,0.5s0.224,0.5,0.5,0.5h26c0.276,0,0.5-0.224,0.5-0.5S90.776,69,90.5,69z"/>
	<path d="M65,82H10.998c-0.303,0-0.59-0.138-0.78-0.374s-0.262-0.546-0.197-0.842l0.269-1.217c0.927-4.119,3.794-7.488,7.67-9.018
		l11.543-4.108c0.402-0.132,0.517-0.816,0.497-1.417l0-1.487c-4.037-2.771-7-7.262-7-9.589v-2.864
		c-1.878-0.536-2.499-2.604-3.011-4.311C19.533,45.251,19,43.042,19,41.822c0-0.738,0.372-1.954,2.613-2.549
		C20.99,37.545,20,34.01,20,29c0.003-0.444,0.276-1.572,2.737-2.595l0.769,1.847c-1.046,0.435-1.402,0.794-1.505,0.925
		c0.031,6.576,1.876,10.366,1.895,10.404c0.144,0.29,0.139,0.632-0.014,0.917c-0.153,0.286-0.436,0.479-0.757,0.52
		C21.623,41.207,21,41.634,21,41.822c0,0.788,0.38,2.628,0.905,4.377c0.668,2.227,1.085,3.018,2.095,3.018c0.552,0,1,0.448,1,1
		v3.731c0,1.417,2.483,5.611,6.54,8.211C31.827,62.343,32,62.66,32,63.001v1.96c0.079,2.473-1.268,3.183-1.851,3.373l-11.487,4.089
		c-3.227,1.272-5.638,4.109-6.419,7.577h51.512c-0.779-3.464-3.191-6.303-6.451-7.59l-11.48-4.086
		c-0.558-0.183-1.905-0.893-1.825-3.366l0-1.958c0-0.341,0.173-0.658,0.46-0.842c4.057-2.6,6.542-6.794,6.542-8.211v-3.731
		c0-0.552,0.445-1,0.998-1c1.009,0,1.426-0.791,2.095-3.019c0.524-1.748,0.905-3.588,0.905-4.376c0-0.188-0.623-0.616-2.124-0.804
		c-0.321-0.04-0.603-0.233-0.757-0.518c-0.153-0.285-0.159-0.626-0.016-0.917c0.002-0.005,0.336-0.694,0.718-1.957l1.914,0.579
		c-0.123,0.408-0.243,0.765-0.352,1.066c2.244,0.596,2.616,1.812,2.616,2.55c0,1.221-0.533,3.43-0.989,4.952
		c-0.513,1.707-1.132,3.774-3.009,4.311v2.864c0,2.326-2.965,6.817-7.002,9.589v1.424c-0.02,0.663,0.094,1.348,0.472,1.472
		l11.536,4.106c3.908,1.542,6.775,4.911,7.701,9.025l0.27,1.221c0.065,0.296-0.007,0.605-0.197,0.842C65.59,81.862,65.303,82,65,82z
		"/>
</g>
<g>
	<path style="fill:none;stroke:#000000;stroke-linecap:round;stroke-miterlimit:10;" d="M13,76.5c0,0,3.5,1,9.5,1
		c9.83,0,17.584-1.725,23-3.52"/>
	<path style="fill:none;stroke:#000000;stroke-linecap:round;stroke-miterlimit:10;" d="M48.5,72.895c1.166-0.46,2.168-0.9,3-1.294"
		/>
	<path style="fill:none;stroke:#000000;stroke-linejoin:round;" d="M59.5,34.505V33.12c0.615-0.703,1-1.613,1-2.62
		c0-2.209-1.791-4-4-4c-0.153,0-0.298,0.028-0.447,0.045C56.335,25.919,56.5,25.23,56.5,24.5c0-2.761-2.239-5-5-5
		c-0.365,0-0.719,0.044-1.061,0.118C50.004,16.169,47.067,13.5,43.5,13.5c-2.373,0-4.466,1.184-5.732,2.99
		C36.36,15.255,34.52,14.5,32.5,14.5c-3.916,0-7.169,2.816-7.859,6.532c-1.267,0.746-2.141,2.208-2.141,3.913
		c0,2.295,1.314,5.154,8.435,5.516c1.785,3.013,5.06,5.039,8.815,5.039c1.84,0,3.562-0.491,5.054-1.339
		c0.687,1.941,2.52,3.339,4.696,3.339c0.858,0,1.652-0.236,2.358-0.616c0.913,0.72,2.646,1.616,5.642,1.616c6,0,6-6,6-6
		S61.69,34.505,59.5,34.505z"/>
	<path style="fill:none;stroke:#000000;stroke-linejoin:round;" d="M30.508,62.086C31.989,63.096,36,65.5,38,65.5
		s6.011-2.404,7.492-3.414"/>
</g>
</svg>