<?xml version="1.0" encoding="iso-8859-1"?>
<!-- Generator: Adobe Illustrator 26.0.1, SVG Export Plug-In . SVG Version: 6.00 Build 0)  -->
<svg version="1.1" baseProfile="basic" id="Layer_1"
	 xmlns="http://www.w3.org/2000/svg" xmlns:xlink="http://www.w3.org/1999/xlink" x="0px" y="0px" viewBox="0 0 72 72"
	 xml:space="preserve">
<path d="M17,40.5c-3.584,0-6.5-3.14-6.5-7s2.916-7,6.5-7s6.5,3.14,6.5,7S20.584,40.5,17,40.5z M17,31.5c-0.813,0-1.5,0.916-1.5,2
	s0.687,2,1.5,2s1.5-0.916,1.5-2S17.813,31.5,17,31.5z"/>
<path d="M25.409,56c-4.206,0-12.618,0-16.824,0c-2.337,0-3.749-2.078-3.568-3.966C5.563,46.315,10.712,42,17,42
	c6.282,0,11.439,4.31,11.983,10.026C29.162,53.897,27.765,56,25.409,56z M12.187,50h9.628c-1.109-1.215-2.868-2-4.814-2
	S13.295,48.785,12.187,50z"/>
<path d="M36,28.5c-3.584,0-6.5-3.14-6.5-7s2.916-7,6.5-7s6.5,3.14,6.5,7S39.584,28.5,36,28.5z M36,19.5c-0.813,0-1.5,0.916-1.5,2
	s0.687,2,1.5,2s1.5-0.916,1.5-2S36.813,19.5,36,19.5z"/>
<path d="M44.409,44c-0.001-0.001-16.823-0.001-16.824,0c-2.337,0-3.749-2.078-3.568-3.966C24.561,34.314,29.712,30,36,30
	c6.282,0,11.435,4.31,11.983,10.026C48.16,41.897,46.765,44,44.409,44z M31.187,38h9.628c-1.109-1.215-2.868-2-4.814-2
	S32.295,36.785,31.187,38z"/>
<path d="M55,40.5c-3.584,0-6.5-3.14-6.5-7s2.916-7,6.5-7s6.5,3.14,6.5,7S58.584,40.5,55,40.5z M55,31.5c-0.813,0-1.5,0.916-1.5,2
	s0.687,2,1.5,2s1.5-0.916,1.5-2S55.813,31.5,55,31.5z"/>
<path d="M63.409,56c-4.206,0-12.618,0-16.824,0c-2.337,0-3.749-2.078-3.568-3.966C43.563,46.315,48.712,42,55,42
	c6.282,0,11.439,4.31,11.983,10.026C67.162,53.897,65.765,56,63.409,56z M50.187,50h9.628c-1.109-1.215-2.868-2-4.814-2
	S51.295,48.785,50.187,50z"/>
</svg>