<?xml version="1.0" encoding="iso-8859-1"?><!-- Generator: Adobe Illustrator 21.1.0, SVG Export Plug-In . SVG Version: 6.00 Build 0)  --><svg xmlns="http://www.w3.org/2000/svg" xmlns:xlink="http://www.w3.org/1999/xlink" viewBox="0 0 24 24" width="480px" height="480px"><g><path d="M10,9c0-1.7,1.3-3,3-3s3,1.3,3,3s-1.3,3-3,3S10,10.7,10,9z M13,14c-4.6,0-6,3.3-6,3.3V19h12v-1.7C19,17.3,17.6,14,13,14z"/></g><g><g><circle cx="19.5" cy="8.5" r="2.5"/></g><g><path d="M19.5,13c-1.2,0-2.1,0.3-2.8,0.8c2.3,1.1,3.2,3,3.2,3.2v0.1H24v-1.3C24,15.7,22.9,13,19.5,13z"/></g></g><line style="fill:none;stroke:#000000;stroke-width:2;stroke-miterlimit:10;" x1="9" y1="12" x2="1" y2="12"/></svg>