<?xml version="1.0" encoding="iso-8859-1"?>
<!-- Generator: Adobe Illustrator 25.1.0, SVG Export Plug-In . SVG Version: 6.00 Build 0)  -->
<svg version="1.1" id="Layer_1" xmlns="http://www.w3.org/2000/svg" xmlns:xlink="http://www.w3.org/1999/xlink" x="0px" y="0px"
	 viewBox="0 0 48 48" style="enable-background:new 0 0 48 48;" xml:space="preserve">
<circle style="fill:none;stroke:#000000;stroke-width:3;stroke-miterlimit:5;" cx="24" cy="14" r="8.5"/>
<path d="M35,24c-6.075,0-11,4.925-11,11s4.925,11,11,11s11-4.925,11-11S41.075,24,35,24z M36,41v1c0,0.552-0.447,1-1,1s-1-0.448-1-1
	v-1.003c-1.244-0.009-2.382-0.464-3.207-1.289c-0.391-0.391-0.391-1.023,0-1.414s1.023-0.391,1.414,0
	C32.529,38.615,33.109,39,34.038,39H36c0.827,0,1.5-0.673,1.5-1.5S36.827,36,36,36h-1.75c-1.93,0-3.5-1.57-3.5-3.5
	c0-1.844,1.439-3.344,3.25-3.475V28c0-0.552,0.447-1,1-1s1,0.448,1,1v1.015c1.544,0.078,2.529,0.961,2.84,1.443
	c0.3,0.464,0.166,1.083-0.298,1.382c-0.465,0.297-1.084,0.166-1.382-0.298v0c-0.003,0-0.433-0.542-1.372-0.542H34.25
	c-0.827,0-1.5,0.673-1.5,1.5s0.673,1.5,1.5,1.5H36c1.93,0,3.5,1.57,3.5,3.5S37.93,41,36,41z"/>
<path d="M23.468,40.987C17.186,40.849,11,38.289,11,33.5v-1.521C11,31.439,11.438,31,11.979,31h10.655
	c0.345-1.068,0.829-2.073,1.424-3H11.979C9.785,28,8,29.785,8,31.979V33.5c0,3.312,1.885,6.175,5.307,8.063
	C16.154,43.135,19.952,44,24,44c0.528,0,1.058-0.019,1.588-0.05C24.75,43.07,24.034,42.075,23.468,40.987z"/>
</svg>