<?xml version="1.0" encoding="utf-8"?><!-- Generator: Adobe Illustrator 21.0.0, SVG Export Plug-In . SVG Version: 6.00 Build 0)  --><svg xmlns="http://www.w3.org/2000/svg" xmlns:xlink="http://www.w3.org/1999/xlink" viewBox="0 0 100 100" width="400px" height="400px"><g id="wind_sock"></g><g id="umbrella"></g><g id="temperature"></g><g id="snow_rain_night"></g><g id="snow_rain_day"></g><g id="windy_day"></g><g id="windy_night"></g><g id="storm_night"></g><g id="clear_night"></g><g id="snow_night"></g><g id="snow_day"></g><g id="snow_rain"></g><g id="foggy_night"></g><g id="cloudy_night"></g><g id="rain"></g><g id="storm"></g><g id="fog"></g><g id="wind"></g><g id="cloudy"></g><g id="sun"></g><g id="explorer"></g><g id="visio"></g><g id="access"></g><g id="note"></g><g id="outlook"></g><g id="pdf"></g><g id="power_point"></g><g id="exel"></g><g id="word"></g><g id="office"></g><g id="bridge"></g><g id="muse"></g><g id="flash"></g><g id="premiere"></g><g id="after_effects"></g><g id="dreamwever"></g><g id="indesign"></g><g id="lightroom"></g><g id="illustrator"></g><g id="photoshop"></g><g id="presentation"></g><g id="microphone"></g><g id="globe"></g><g id="password"></g><g id="break_link"></g><g id="link"></g><g id="tap"></g><g id="down"></g><g id="top"></g><g id="direction"></g><g id="move"></g><g id="click"><g><path d="M46.728,48.614c-0.276,0-0.5,0.224-0.5,0.5v19c0,0.276,0.224,0.5,0.5,0.5s0.5-0.224,0.5-0.5v-19C47.228,48.838,47.005,48.614,46.728,48.614z"/><path d="M56.728,48.614c-0.276,0-0.5,0.224-0.5,0.5v14c0,0.276,0.224,0.5,0.5,0.5s0.5-0.224,0.5-0.5v-14C57.228,48.838,57.005,48.614,56.728,48.614z"/><path d="M65.728,48.614c-0.276,0-0.5,0.224-0.5,0.5v10c0,0.276,0.224,0.5,0.5,0.5s0.5-0.224,0.5-0.5v-10C66.228,48.838,66.005,48.614,65.728,48.614z"/><path d="M70.728,74.614h-2c-0.276,0-0.5,0.224-0.5,0.5s0.224,0.5,0.5,0.5h2c0.276,0,0.5-0.224,0.5-0.5S71.005,74.614,70.728,74.614z"/><path d="M72.728,74.614h-1c-0.276,0-0.5,0.224-0.5,0.5s0.224,0.5,0.5,0.5h1c0.276,0,0.5-0.224,0.5-0.5S73.005,74.614,72.728,74.614z"/><path d="M56.728,64.614c-0.276,0-0.5,0.224-0.5,0.5v2c0,0.276,0.224,0.5,0.5,0.5s0.5-0.224,0.5-0.5v-2C57.228,64.838,57.005,64.614,56.728,64.614z"/><path d="M56.378,67.764c-0.1,0.09-0.149,0.22-0.149,0.35c0,0.13,0.05,0.26,0.149,0.35c0.091,0.1,0.221,0.15,0.351,0.15s0.26-0.05,0.35-0.15c0.101-0.09,0.15-0.22,0.15-0.35c0-0.13-0.05-0.26-0.15-0.35C56.898,67.574,56.558,67.574,56.378,67.764z"/><path d="M68.228,80.614c-1.654,0-3,1.346-3,3s1.346,3,3,3s3-1.346,3-3S69.883,80.614,68.228,80.614z M68.228,85.614c-1.103,0-2-0.897-2-2s0.897-2,2-2s2,0.897,2,2S69.331,85.614,68.228,85.614z"/><path d="M75.389,39.758c-1.165-1.159-2.696-1.796-4.315-1.796c-0.009,0-0.019,0-0.028,0c-1.855,0.009-3.133,0.394-4.006,0.961c-0.614-2.649-2.994-4.63-5.828-4.63c-1.669,0-3.181,0.687-4.267,1.793c-0.646-2.047-2.334-3.643-4.419-3.993c-1.57-0.264-3.105,0.163-4.297,1.088V21.193c0-3.076-2.502-5.579-5.578-5.579h-0.275c-0.158,0-0.313,0.038-0.454,0.109c-0.53,0.27-5.127,2.711-4.692,5.82v32.763c-1.306-0.505-3.103-1.745-4.853-2.953c-3.57-2.462-7.261-5.009-10.215-4.231c-2.618,0.689-5.356,2.743-5.18,5.624c0.074,1.211,1.942,3.045,9.327,9.692c4.931,4.438,12.349,11.115,12.92,13.127v16.048c0,0.552,0.447,1,1,1h36c0.553,0,1-0.448,1-1V44.163C77.228,42.503,76.575,40.939,75.389,39.758z M75.228,90.614h-34v-15h25.5c0.276,0,0.5-0.224,0.5-0.5s-0.224-0.5-0.5-0.5H40.987c-1.136-2.55-6.102-7.147-13.341-13.662c-3.652-3.287-8.185-7.367-8.672-8.408c-0.039-1.641,1.813-2.991,3.696-3.486c2.051-0.546,5.519,1.839,8.569,3.943c2.742,1.892,5.11,3.525,6.979,3.542c0.262-0.019,0.523-0.102,0.713-0.29c0.189-0.188,0.296-0.444,0.296-0.71V21.467c0-0.057-0.005-0.113-0.015-0.169c-0.219-1.279,2.081-2.955,3.41-3.684h0.026c1.973,0,3.578,1.605,3.578,3.579v15.09c0,0.491,0.357,0.91,0.842,0.987c0.488,0.081,0.955-0.208,1.108-0.676c0.576-1.759,2.258-2.825,4.016-2.529c1.729,0.29,3.034,1.952,3.034,3.866v2.344c0,0.552,0.447,1,1,1s1-0.448,1-1c0-2.196,1.786-3.982,3.982-3.982s3.982,1.787,3.982,3.998l0.035,2.217c0.009,0.547,0.454,0.984,1,0.984c0.003,0,0.005,0,0.008,0c0.549-0.004,0.992-0.451,0.992-1c0-0.687,0-2.513,3.826-2.53c0.006,0,0.013,0,0.019,0c1.087,0,2.117,0.431,2.904,1.214c0.807,0.803,1.251,1.864,1.251,2.988V90.614z"/><path d="M42.727,11.849c-5.077,0-9.208,4.325-9.208,9.642c0,0.276,0.224,0.5,0.5,0.5s0.5-0.224,0.5-0.5c0-4.765,3.682-8.642,8.208-8.642s8.208,3.876,8.208,8.642c0,0.276,0.224,0.5,0.5,0.5s0.5-0.224,0.5-0.5C51.935,16.174,47.805,11.849,42.727,11.849z"/><path d="M30.133,21.991c0.276,0,0.5-0.224,0.5-0.5c0-7.015,5.426-12.722,12.095-12.722s12.095,5.707,12.095,12.722c0,0.276,0.224,0.5,0.5,0.5s0.5-0.224,0.5-0.5c0-7.566-5.874-13.722-13.095-13.722s-13.095,6.156-13.095,13.722C29.633,21.767,29.856,21.991,30.133,21.991z"/></g></g><g id="point"></g><g id="like"></g><g id="support"></g><g id="wifi"></g><g id="music"></g><g id="more"></g><g id="visible"></g><g id="error"></g><g id="list"></g><g id="grid"></g><g id="favorite"></g><g id="exit"></g><g id="power"></g><g id="delete"></g><g id="msg"></g><g id="info"></g><g id="help"></g><g id="warning"></g><g id="cassete"></g><g id="piano"></g><g id="speaker"></g><g id="attention"></g><g id="crown"></g><g id="prize"></g><g id="medal"></g><g id="alarm"></g><g id="stopper"></g><g id="flag"></g><g id="snapchat"></g><g id="dribbble"></g><g id="flickr"></g><g id="youtube"></g><g id="skype"></g><g id="twitter"></g><g id="instagram"></g><g id="linkedin"></g><g id="vimeo"></g><g id="tumbler"></g><g id="google"></g><g id="whatsapp"></g><g id="facebook"></g><g id="curve"></g><g id="paint_bucket"></g><g id="roller"></g><g id="switch"></g><g id="scissors"></g><g id="picker"></g><g id="brush"></g></svg>