<svg xmlns="http://www.w3.org/2000/svg"  viewBox="0 0 50 50" width="50px" height="50px"><path d="M 25 4 C 13.795731 4 4.6034163 12.823708 4.0292969 23.896484 A 2.0002 2.0002 0 1 0 8.0234375 24.103516 C 8.4893181 15.118292 15.888269 8 25 8 C 30.664059 8 35.660008 10.759072 38.748047 15 L 38 15 A 2.0002 2.0002 0 1 0 38 19 L 46 19 L 46 11 A 2.0002 2.0002 0 0 0 43.970703 8.9726562 A 2.0002 2.0002 0 0 0 42 11 L 42 12.669922 C 38.180092 7.413982 31.977626 4 25 4 z M 22.900391 14 L 22.400391 17.199219 C 22.100391 17.299219 21.700391 17.499609 21.400391 17.599609 L 18.699219 15.699219 L 15.699219 18.699219 L 17.5 21.199219 C 17.3 21.499219 17.199609 21.900781 17.099609 22.300781 L 14 22.800781 L 14 27 L 17.099609 27.5 C 17.199609 27.8 17.4 28.2 17.5 28.5 L 15.699219 31.199219 L 18.699219 34.199219 L 21.400391 32.400391 C 21.800391 32.600391 22.1 32.700781 22.5 32.800781 L 22.900391 36 L 27.099609 36 L 27.599609 32.800781 C 27.899609 32.700781 28.299609 32.500391 28.599609 32.400391 L 31.300781 34.199219 L 34.300781 31.199219 L 32.400391 28.599609 C 32.600391 28.299609 32.700781 27.899609 32.800781 27.599609 L 36 27 L 36 22.800781 L 32.800781 22.300781 C 32.700781 22.000781 32.500391 21.600781 32.400391 21.300781 L 34.199219 18.599609 L 31.300781 15.699219 L 28.699219 17.599609 C 28.399219 17.399609 27.999219 17.299219 27.699219 17.199219 L 27.099609 14 L 22.900391 14 z M 25 22 C 26.7 22 28 23.3 28 25 C 28 26.7 26.7 28 25 28 C 23.3 28 22 26.7 22 25 C 22 23.3 23.3 22 25 22 z M 44.048828 23.972656 A 2.0002 2.0002 0 0 0 41.976562 25.896484 C 41.510683 34.881708 34.111731 42 25 42 C 19.33693 42 14.342072 39.241624 11.253906 35.001953 L 12 35.001953 A 2.0002 2.0002 0 1 0 12 31.001953 L 4 31 L 4 39 A 2.0002 2.0002 0 1 0 8 39 L 8 37.330078 C 11.819907 42.586018 18.022374 46 25 46 C 36.204269 46 45.396584 37.176292 45.970703 26.103516 A 2.0002 2.0002 0 0 0 44.048828 23.972656 z"/></svg>