<?xml version="1.0" encoding="iso-8859-1"?>
<!-- Generator: Adobe Illustrator 27.0.0, SVG Export Plug-In . SVG Version: 6.00 Build 0)  -->
<svg version="1.1" baseProfile="basic" xmlns="http://www.w3.org/2000/svg" xmlns:xlink="http://www.w3.org/1999/xlink" x="0px"
	 y="0px" viewBox="0 0 64 64" xml:space="preserve">
<g id="Layer_1">
</g>
<g id="Layer_2">
</g>
<g id="Layer_3">
</g>
<g id="Layer_4">
	<rect x="30" y="17" width="4" height="20"/>
	<rect x="30" y="41" width="4" height="4"/>
	<path d="M49,48c0,3.31-2.69,6-6,6h-7v6h4v-2h3c5.51,0,10-4.49,10-10v-3h-4V48z"/>
	<path d="M29.5,4C28.82,4,28,4,28,4C21,4,11,9.89,8,16c-1.96,3.99-2.89,7.25-2.99,12H5v4l7,28h8l-7-28v-7.5C13,15.4,20.4,8,29.5,8
		C40.61,8,50,17.62,50,29l4,16h4l-4-16C54,15.21,43.01,4,29.5,4z"/>
	<g>
		<defs>
			<rect id="SVGID_1_" x="-1127.783" y="-369" width="103.783" height="77"/>
		</defs>
		<clipPath id="SVGID_00000121970415005239903890000017675123423915391874_">
			<use xlink:href="#SVGID_1_"  style="overflow:visible;"/>
		</clipPath>
		<g style="clip-path:url(#SVGID_00000121970415005239903890000017675123423915391874_);">
			
				<image style="overflow:visible;" width="1094" height="683" xlink:href="68002B8A.jpg"  transform="matrix(1.1976 0 0 1.1976 -1295.7319 -796.9637)">
			</image>
		</g>
	</g>
</g>
</svg>