<?xml version="1.0" encoding="iso-8859-1"?>
<!-- Generator: Adobe Illustrator 24.1.2, SVG Export Plug-In . SVG Version: 6.00 Build 0)  -->
<svg version="1.1" baseProfile="basic" id="&#x421;&#x43B;&#x43E;&#x439;_1"
	 xmlns="http://www.w3.org/2000/svg" xmlns:xlink="http://www.w3.org/1999/xlink" x="0px" y="0px" viewBox="0 0 48 48"
	 xml:space="preserve">
<path marker-start="none" marker-end="none" style="fill-rule:evenodd;clip-rule:evenodd;" d="M17,41.492
	c0-2.48,2.016-4.493,4.5-4.493c0.12,0,0.24,0,0.359,0.013l0.62-3.307c-3.393-0.8-6.184-3.16-7.557-6.293l-5.068,1.947
	C9.949,29.719,10,30.105,10,30.492c0,2.493-2.016,4.507-4.5,4.507S1,32.985,1,30.492c0-2.48,2.016-4.493,4.5-4.493
	c1.736,0,3.244,0.987,3.995,2.427l5.067-1.947C14.197,25.385,14,24.212,14,22.999c0-4.373,2.549-8.147,6.243-9.92l-1.396-3.28
	c-0.425,0.133-0.877,0.2-1.347,0.2c-2.484,0-4.5-2.013-4.5-4.507c0-2.48,2.016-4.493,4.5-4.493S22,3.012,22,5.492
	c0,1.667-0.9,3.12-2.237,3.893l1.4,3.307c1.195-0.453,2.487-0.693,3.837-0.693c2.839,0,5.428,1.08,7.38,2.84l3.561-3.587
	C35.351,10.492,35,9.532,35,8.492c0-2.48,2.016-4.493,4.5-4.493S44,6.012,44,8.492c0,2.493-2.016,4.507-4.5,4.507
	c-1.087,0-2.083-0.387-2.86-1.027l-3.548,3.573C34.896,17.505,36,20.132,36,22.999c0,2.36-0.745,4.547-2.012,6.347l5.244,4.067
	c0.82-0.867,1.981-1.413,3.268-1.413c2.484,0,4.5,2.013,4.5,4.493c0,2.493-2.016,4.507-4.5,4.507S38,38.985,38,36.492
	c0-0.827,0.229-1.613,0.628-2.293l-5.255-4.067c-2.019,2.36-5.021,3.867-8.373,3.867c-0.523,0-1.036-0.04-1.539-0.107l-0.621,3.307
	c1.831,0.573,3.16,2.28,3.16,4.293c0,2.493-2.016,4.507-4.5,4.507S17,43.985,17,41.492z M21.332,41.332
	c0.689-0.693,0.876-1.627,0.416-2.08c-0.459-0.467-1.391-0.28-2.08,0.413c-0.689,0.693-0.875,1.627-0.416,2.08
	C19.712,42.212,20.643,42.025,21.332,41.332z M42.332,36.332c0.689-0.693,0.876-1.627,0.416-2.08
	c-0.459-0.467-1.391-0.28-2.08,0.413c-0.689,0.693-0.875,1.627-0.416,2.08C40.712,37.212,41.643,37.025,42.332,36.332z
	 M32.124,30.012c-0.353-0.813-1.232-1.093-2.025-1.413c-1.112-0.453-2.091-0.587-2.548-1.133C27.292,27.159,27.1,26.532,27,25.999
	c0.519-0.627,0.739-1.227,1.104-2.173c0.099-0.253,0.187-0.48,0.256-0.733c0.527-0.333,0.635-1.2,0.635-1.867
	c0-0.213-0.303-0.6-0.572-0.76c0.273-0.547,0.575-0.907,0.575-1.6c0-2.133-1.748-3.867-3.615-3.867c-0.807,0-1.692,0.507-2.383,1
	c-1.368,0-1.979,1.04-1.979,2.867c0,0.693,0.297,1.053,0.571,1.6c-0.268,0.16-0.571,0.547-0.571,0.76
	c0,0.667,0.108,1.533,0.635,1.867c0.071,0.253,0.159,0.48,0.256,0.733c0.367,0.947,0.569,1.547,1.088,2.173
	c-0.099,0.52-0.292,1.16-0.551,1.467c-0.457,0.547-1.436,0.68-2.548,1.133c-0.795,0.32-1.673,0.6-2.027,1.413
	c1.813,1.84,4.336,2.987,7.125,2.987C27.788,32.999,30.311,31.852,32.124,30.012z M5.332,30.332c0.689-0.693,0.876-1.627,0.416-2.08
	c-0.459-0.467-1.391-0.28-2.08,0.413c-0.689,0.693-0.875,1.627-0.416,2.08C3.712,31.212,4.643,31.025,5.332,30.332z M39.332,8.332
	c0.689-0.693,0.876-1.627,0.416-2.08c-0.459-0.467-1.391-0.28-2.08,0.413c-0.689,0.693-0.875,1.627-0.416,2.08
	C37.712,9.212,38.643,9.025,39.332,8.332z M17.332,5.332c0.689-0.693,0.876-1.627,0.416-2.08c-0.459-0.467-1.391-0.28-2.08,0.413
	c-0.689,0.693-0.875,1.627-0.416,2.08C15.712,6.212,16.643,6.025,17.332,5.332z"/>
<path marker-start="none" marker-end="none" style="fill-rule:evenodd;clip-rule:evenodd;" d="M25,46.999
	c10.488,0,19,0.227,19,0.493c0,0.28-8.512,0.507-19,0.507S6,47.772,6,47.492C6,47.225,14.512,46.999,25,46.999z"/>
</svg>