<?xml version="1.0" encoding="iso-8859-1"?>
<!-- Generator: Adobe Illustrator 25.2.3, SVG Export Plug-In . SVG Version: 6.00 Build 0)  -->
<svg version="1.1" baseProfile="basic" id="fluent" xmlns="http://www.w3.org/2000/svg" xmlns:xlink="http://www.w3.org/1999/xlink"
	 x="0px" y="0px" viewBox="0 0 50 50" xml:space="preserve">
<path d="M34.95,7.83c-0.86-1.39-2.17-2.26-3.88-2.6c-0.94-1.19-2.75-1.84-5.18-1.84c-3.68,0.07-6.38,1.19-8.01,3.34
	c-1.93,2.55-2.29,6.41-1.07,11.49c-0.45,0.55-0.78,1.4-0.65,2.51c0.27,2.21,1.12,3.11,1.85,3.47c0.34,1.73,1.28,3.68,2.2,4.59v0.47
	c0.01,1.01,0.02,1.9-0.07,3.03c-0.62,1.41-2.65,2.21-5,3.13c-3.91,1.54-8.77,3.45-9.14,9.52L5.94,46h24.03
	c-0.35-0.65-0.67-1.32-0.93-2H8.13c0.75-3.97,4.3-5.36,7.74-6.71c2.74-1.08,5.33-2.1,6.19-4.41l0.06-0.26
	c0.11-1.31,0.1-2.31,0.09-3.38v-0.92l0.02-0.6l-0.54-0.28c-0.44-0.29-1.61-2.31-1.8-4.12L19.8,22.5l-0.82-0.07
	c-0.13-0.01-0.64-0.37-0.83-1.94c-0.1-0.8,0.29-1.09,0.3-1.09l0.63-0.39l-0.19-0.71c-1.21-4.68-1.01-8.26,0.58-10.36
	c1.25-1.63,3.42-2.49,6.44-2.55c1.87,0,3.26,0.47,3.71,1.25l0.24,0.43l0.49,0.07c1.34,0.19,2.28,0.76,2.9,1.74
	c1.53,2.47,0.64,7.04-0.12,9.35l-0.21,0.75l0.63,0.42c0.01,0,0.4,0.29,0.3,1.09c-0.18,1.57-0.7,1.93-0.83,1.94L32.2,22.5l-0.09,0.82
	c-0.2,1.82-1.33,3.83-1.73,4.11l-0.54,0.28v1.54c-0.01,1.06-0.02,2.06,0.1,3.37L30,32.88l0.01,0.01c0.54-0.64,1.17-1.18,1.85-1.6
	c-0.03-0.69-0.03-1.33-0.02-2.02v-0.48c0.9-0.92,1.82-2.87,2.16-4.61c0.7-0.36,1.58-1.25,1.84-3.45c0.13-1.09-0.19-1.93-0.63-2.48
	C35.8,16.27,37,11.13,34.95,7.83z"/>
<path d="M43.946,34.147c0.363,0,0.744,0.091,1.117,0.26c-0.995,1.278-1.502,2.89-1.383,4.586c0.137,1.955,1.049,3.684,2.492,4.855
	c-0.133,0.231-0.285,0.475-0.48,0.772c-1.339,2.039-1.967,2.263-2.187,2.265c-0.192,0-0.297-0.04-0.704-0.226
	c-0.602-0.276-1.513-0.692-2.964-0.692l-0.052,0l-0.005,0c-1.456,0.007-2.342,0.401-2.989,0.689
	c-0.423,0.188-0.543,0.232-0.762,0.232c0,0,0,0-0.001,0c-0.275-0.003-0.915-0.278-2.109-2.091c-2.193-3.341-2.359-7.097-1.252-8.8
	c0.728-1.122,1.871-1.847,2.911-1.847c0.547,0,1.024,0.17,1.627,0.386c0.724,0.259,1.545,0.552,2.564,0.552
	c0.989,0,1.772-0.297,2.402-0.536C42.766,34.326,43.236,34.147,43.946,34.147 M43.513,27.03c-1.172,0.08-2.542,0.828-3.342,1.797
	c-0.725,0.882-1.326,2.193-1.092,3.461c0.033,0.001,0.066,0.002,0.099,0.002c1.247,0,2.521-0.748,3.269-1.711
	C43.166,29.657,43.71,28.357,43.513,27.03L43.513,27.03z M43.946,32.147c-1.974,0-2.808,0.941-4.177,0.941
	c-1.411,0-2.484-0.938-4.191-0.938c-1.676,0-3.461,1.02-4.589,2.758c-1.594,2.451-1.322,7.056,1.258,10.986
	c0.922,1.401,2.154,2.979,3.763,2.993c0.011,0,0.022,0,0.033,0c1.406,0,1.819-0.912,3.746-0.921c0.016,0,0.031,0,0.047,0
	c1.889,0,2.271,0.919,3.669,0.919c0.009,0,0.018,0,0.027,0c1.609-0.012,2.91-1.763,3.832-3.167c0.66-1.005,0.905-1.513,1.419-2.651
	c-3.728-1.41-4.327-6.681-0.637-8.703C47.017,32.961,45.439,32.147,43.946,32.147L43.946,32.147z"/>
</svg>