<?xml version="1.0" encoding="iso-8859-1"?>
<!-- Generator: Adobe Illustrator 26.0.1, SVG Export Plug-In . SVG Version: 6.00 Build 0)  -->
<svg version="1.1" baseProfile="basic" id="Layer_1"
	 xmlns="http://www.w3.org/2000/svg" xmlns:xlink="http://www.w3.org/1999/xlink" x="0px" y="0px" viewBox="0 0 72 72"
	 xml:space="preserve">
<path d="M41.728,37.717C40.674,37.223,40,36.164,40,35v-2.279c-1.734-0.556-4.101-2.952-4-5.497v-9.447
	C36,14.586,38.586,12,41.776,12h15.447C60.414,12,63,14.586,63,17.776v9.447C63,30.414,60.414,33,57.224,33h-7.138l-5.165,4.305
	C43.501,38.487,41.967,37.829,41.728,37.717z"/>
<path d="M25.5,43c-5.238,0-9.5-4.486-9.5-10s4.262-10,9.5-10S35,27.486,35,33S30.738,43,25.5,43z"/>
<path d="M35.431,61H13.569c-3.939,0-6.895-3.993-4.991-7.63C11.239,48.285,17.488,45,24.5,45s13.261,3.285,15.922,8.369
	C42.4,57.148,39.213,61,35.431,61z"/>
</svg>