<?xml version="1.0" encoding="iso-8859-1"?><!-- Generator: Adobe Illustrator 22.1.0, SVG Export Plug-In . SVG Version: 6.00 Build 0)  --><svg xmlns="http://www.w3.org/2000/svg" xmlns:xlink="http://www.w3.org/1999/xlink" viewBox="0 0 24 24" width="480px" height="480px"><g id="Filled"><path d="M12,11c-2.206,0-4-1.794-4-4s1.794-4,4-4s4,1.794,4,4S14.206,11,12,11z"/><path d="M20.146,16.854l2,2L17,24h-2v-2L20.146,16.854z M21.854,15.146l-1,1l2,2l1-1c0.195-0.195,0.195-0.512,0-0.707l-1.293-1.293C22.365,14.951,22.049,14.951,21.854,15.146z"/><path d="M18.598,15.573C16.617,14.536,13.844,14,12,14c-3.141,0-9,1.545-9,4.5V21h10.172L18.598,15.573z"/></g></svg>