<?xml version="1.0" encoding="utf-8"?><!-- Generator: Adobe Illustrator 15.0.0, SVG Export Plug-In . SVG Version: 6.00 Build 0)  --><!DOCTYPE svg PUBLIC "-//W3C//DTD SVG 1.1//EN" "http://www.w3.org/Graphics/SVG/1.1/DTD/svg11.dtd"><svg xmlns="http://www.w3.org/2000/svg" xmlns:xlink="http://www.w3.org/1999/xlink" viewBox="0 0 50 50" width="50px" height="50px"><path d="M45.062,50H4.938l0.064-1.06c0.364-6.065,5.228-7.979,9.135-9.516c2.35-0.924,4.387-1.726,4.999-3.132c0.096-1.136,0.088-2.018,0.08-3.032l-0.002-0.468c-0.921-0.919-1.869-2.875-2.209-4.608c-0.704-0.363-1.579-1.259-1.842-3.453c-0.133-1.112,0.2-1.962,0.65-2.513c-1.223-5.075-0.864-8.937,1.069-11.484c1.632-2.15,4.326-3.275,8.007-3.343c2.431,0,4.24,0.65,5.184,1.843c1.713,0.339,3.015,1.21,3.874,2.594c2.05,3.3,0.851,8.444,0.27,10.423c0.438,0.552,0.755,1.39,0.624,2.48c-0.264,2.205-1.121,3.104-1.844,3.465c-0.339,1.733-1.26,3.674-2.155,4.589l-0.003,0.478c-0.009,1.014-0.017,1.895,0.08,3.029c0.611,1.406,2.641,2.208,4.98,3.132c3.893,1.537,8.737,3.45,9.101,9.516L45.062,50z"/><polyline fill="none" stroke="#000000" stroke-width="2" stroke-linecap="round" stroke-miterlimit="10" points="3.32,37 11,37 11,29.32 "/><path fill="none" stroke="#000000" stroke-width="2" stroke-linecap="round" stroke-miterlimit="10" d="M40.343,36.339C43.852,32.586,46,27.544,46,22c0-11.599-9.4-21-21-21C13.401,1,4,10.401,4,22c0,5.713,2.28,10.893,5.98,14.678"/></svg>