<?xml version="1.0" encoding="iso-8859-1"?>
<!-- Generator: Adobe Illustrator 24.0.2, SVG Export Plug-In . SVG Version: 6.00 Build 0)  -->
<svg version="1.1" id="Layer_1_1_" xmlns="http://www.w3.org/2000/svg" xmlns:xlink="http://www.w3.org/1999/xlink" x="0px" y="0px"
	 viewBox="0 0 48 48" style="enable-background:new 0 0 48 48;" xml:space="preserve">
<g>
	<path d="M20.5,12h-17C2.671,12,2,12.672,2,13.5V17c0,5.514,4.486,10,10,10s10-4.486,10-10v-3.5C22,12.672,21.329,12,20.5,12z"/>
	<path d="M44.5,12h-17c-0.829,0-1.5,0.672-1.5,1.5V17c0,5.514,4.486,10,10,10s10-4.486,10-10v-3.5C46,12.672,45.329,12,44.5,12z"/>
</g>
<path style="fill:none;stroke:#000000;stroke-width:3;stroke-linecap:round;stroke-linejoin:round;stroke-miterlimit:5;" d="
	M20.5,16c0-1.933,1.567-3.5,3.5-3.5s3.5,1.567,3.5,3.5"/>
<path d="M41.274,33.215c-0.584-0.352-1.331-0.266-1.82,0.21c-2.094,2.041-4.035,1.002-7.961-1.85l-0.455-0.33
	C29.007,29.776,26.64,29,24.191,29h-0.383c-2.448,0-4.816,0.776-6.847,2.245l-0.454,0.33c-3.927,2.853-5.866,3.89-7.962,1.85
	c-0.488-0.476-1.236-0.562-1.82-0.21c-0.584,0.353-0.857,1.054-0.665,1.708c0.81,2.755,2.546,4.696,5.022,5.614
	c3.499,1.297,8.378,0.423,12.917-2.271c3.148,1.869,6.461,2.862,9.363,2.862c1.281,0,2.483-0.194,3.554-0.591
	c2.477-0.918,4.213-2.859,5.022-5.614C42.131,34.269,41.858,33.567,41.274,33.215z"/>
</svg>