<?xml version="1.0" encoding="iso-8859-1"?><!-- Generator: Adobe Illustrator 23.0.3, SVG Export Plug-In . SVG Version: 6.00 Build 0)  --><svg xmlns="http://www.w3.org/2000/svg" xmlns:xlink="http://www.w3.org/1999/xlink" viewBox="0 0 50 50" width="50px" height="50px"><g><path d="M31.823,42.314c0.346-0.344,0.803-0.549,1.286-0.579l-1.59-1.584c-0.376-0.375-0.587-0.884-0.588-1.415c-0.001-0.53,0.21-1.04,0.585-1.416l2.673-2.675c-0.278-0.122-0.549-0.246-0.81-0.373c-1.366-0.671-2.151-1.326-2.493-2.098c-0.076-1.317-0.085-2.374-0.086-3.523c0.888-0.944,1.786-2.935,2.164-4.555c0.719-0.337,1.625-1.219,1.833-3.515c0.08-0.991-0.113-1.842-0.513-2.416c0.909-2.039,0.98-5.624-0.36-8.381c-1.092-2.242-2.956-3.559-5.294-3.758l-0.736-1.474C27.725,4.214,27.379,4,27,4c-4.7,0-8.412,1.724-10.45,4.854c-1.723,2.646-2.015,6.053-0.819,9.23c-0.386,0.534-0.714,1.354-0.62,2.447c0.292,2.167,1.117,3.057,1.789,3.42c0.337,1.803,1.321,3.71,2.205,4.612c0.002,0.22,0.006,0.432,0.01,0.64c0.018,0.963,0.032,1.799-0.095,2.871c-0.291,0.795-1.021,1.457-2.35,2.136c-0.019,0.01-0.03,0.028-0.048,0.038C12.221,36.467,5,37.578,5,45c0,0,0,1,1,1c2.084,0,23.759,0,23.905,0c-0.313-0.738-0.164-1.61,0.424-2.196L31.823,42.314z M29.306,27.33c-0.313,0.178-0.505,0.51-0.505,0.869c0,1.412,0,2.632,0.1,4.26c0.006,0.101,0.027,0.198,0.063,0.292c0.014,0.036,0.034,0.067,0.048,0.102c-1.095,0.696-2.471,1.094-3.955,1.094c-1.557,0-3.04-0.452-4.152-1.223c0.014-0.039,0.034-0.074,0.047-0.114c0.02-0.061,0.033-0.123,0.041-0.187c0.157-1.263,0.14-2.23,0.122-3.255c-0.007-0.34-0.013-0.69-0.013-1.067c0-0.328-0.223-0.674-0.492-0.86c-0.391-0.271-1.636-2.267-1.813-4.137c-0.048-0.513-0.407-0.896-0.923-0.896c-0.142-0.054-0.59-0.528-0.775-1.894c-0.07-0.836,0.358-1.184,0.358-1.184c0.402-0.271,0.554-0.791,0.356-1.234c-1.206-2.729-1.052-5.7,0.413-7.951c1.571-2.413,4.455-3.798,8.162-3.935l0.718,1.437C27.275,7.786,27.621,8,28,8c1.879,0,3.268,0.895,4.126,2.659c1.239,2.546,0.907,6.076,0.087,7.122c-0.214,0.273-0.271,0.638-0.151,0.963c0.104,0.279,0.324,0.496,0.601,0.596c0.067,0.117,0.192,0.462,0.143,1.07c-0.134,1.474-0.604,1.872-0.703,1.891c-0.495,0-0.915,0.362-0.989,0.852C30.836,24.993,29.687,27.044,29.306,27.33z"/><path d="M40.591,31.083c4.859,1.823,7.808,7.65,5.282,12.37l-6.164-6.195l2.353-2.362l-1.472-1.465c-0.811,0.796-2.102,0.965-2.973,0.614l-4.685,4.689l2.654,2.645l1.768-1.762l6.162,6.186c-3.016,1.656-7.196,1.134-10.281-2.071l-1.494,1.489c0.447,0.621,0.823,1.183,1.288,1.654c0.053,0.053,0.108,0.105,0.163,0.157C32.511,47.174,32,47.777,32,48.5c0,0.828,0.672,1.5,1.5,1.5s1.5-0.672,1.5-1.5c0-0.024-0.006-0.047-0.007-0.071c3.353,1.97,6.999,2.076,10.903-0.261l1.727,1.733l2.364-2.333l-1.738-1.757C53.238,38.29,46.586,30.903,40.591,31.083z"/></g></svg>