<?xml version="1.0" encoding="utf-8"?><!-- Generator: Adobe Illustrator 18.1.1, SVG Export Plug-In . SVG Version: 6.00 Build 0)  --><svg xmlns="http://www.w3.org/2000/svg" xmlns:xlink="http://www.w3.org/1999/xlink" viewBox="0 0 50 50" width="500px" height="500px"><path fill="none" stroke="#000000" stroke-width="2" stroke-linecap="round" stroke-linejoin="round" stroke-miterlimit="10" d="M47.3,33.3c0,0,1.7,3.9,1.7,13.7c0,0-5.6-1-16.5-1"/><path fill="none" stroke="#000000" stroke-width="2" stroke-linecap="round" stroke-linejoin="round" stroke-miterlimit="10" d="M18,46C6.9,46,1,47,1,47C1,10.2,15,1.8,29,1.8L30,5c9.6,0,16,8.4,16,19.3"/><path fill="none" stroke="#000000" stroke-width="2" stroke-linecap="round" stroke-linejoin="round" stroke-miterlimit="10" d="M44,24h-2v11h2c2.2,0,4-1.8,4-4v-3C48,25.8,46.2,24,44,24z"/><path fill="none" stroke="#000000" stroke-width="2" stroke-linecap="round" stroke-linejoin="round" stroke-miterlimit="10" d="M27,44h-2c-1.1,0-2-0.9-2-2v0c0-1.1,0.9-2,2-2h2c1.1,0,2,0.9,2,2v0C29,43.1,28.1,44,27,44z"/><path fill="none" stroke="#000000" stroke-width="2" stroke-linecap="round" stroke-linejoin="round" stroke-miterlimit="10" d="M29,42h9c3.3,0,6-2.7,6-6v-0.7"/><g><path d="M42,30c-0.6,0-1,0.4-1,1c0,1.3-2.5,1.6-2.5,1.6c-0.4,0-0.8,0.4-0.9,0.8c-0.5,2.3-1.3,4.5-2.4,6.6h2.2c0.8-1.8,1.5-3.7,1.9-5.5c1.9-0.4,3.6-1.5,3.6-3.4C43,30.5,42.6,30,42,30z"/><path d="M32.5,44c-2.1,2.4-4.7,4-7.5,4c-4.8,0-8.9-4.8-12.7-14.8c-0.1-0.4-0.5-0.6-0.8-0.6C10.1,32.5,9,31.3,9,29.8c0-0.6,0.1-1.4,0.5-1.7c0.4-0.3,1.2-0.2,1.2-0.2c0.1,0,0.2,0,0.3,0c8.3,0,16.2-8.2,19-13.5c3,6.4,8,12.3,8.2,12.6c0.2,0.2,0.5,0.4,0.8,0.4c0,0,1.6,0,2.1,1.4c0.2,0.5,0.7,0.8,1.3,0.6c0.5-0.2,0.8-0.7,0.6-1.3c-0.7-2.1-2.5-2.6-3.4-2.7c-1.2-1.5-6.2-7.8-8.6-13.9c-0.2-0.4-0.5-0.7-1-0.6c-0.4,0-0.8,0.3-0.9,0.7c-1,3.6-9.3,14.1-17.9,14.3c-0.5-0.1-1.7-0.3-2.8,0.5C7.4,27.2,7,28.3,7,29.8c0,2.3,1.5,4.2,3.7,4.7C13.3,41.3,17.6,50,25,50c4,0,7.5-2.5,10.1-6H32.5z"/></g></svg>