<?xml version="1.0" encoding="iso-8859-1"?>
<!-- Generator: Adobe Illustrator 24.0.2, SVG Export Plug-In . SVG Version: 6.00 Build 0)  -->
<svg version="1.1" xmlns="http://www.w3.org/2000/svg" xmlns:xlink="http://www.w3.org/1999/xlink" x="0px" y="0px"
	 viewBox="0 0 80 80" style="enable-background:new 0 0 80 80;" xml:space="preserve">
<g id="&#x421;&#x43B;&#x43E;&#x439;_1" style="display:none;">
	<path style="display:inline;fill:none;stroke:#00B5B8;stroke-width:2;stroke-miterlimit:10;" d="M8,40C8,22.327,22.327,8,40,8
		s32,14.327,32,32S57.673,72,40,72S8,57.673,8,40"/>
	<g style="display:inline;">
		<path style="fill:#00B5B8;" d="M67,13v54H13V13H67 M69,11H11v58h58V11L69,11z"/>
	</g>
</g>
<g id="&#x421;&#x43B;&#x43E;&#x439;_2">
	<path style="fill:none;stroke:#000000;stroke-width:2;stroke-linecap:round;stroke-linejoin:round;stroke-miterlimit:10;" d="
		M56,18.29c1,0.581,2,1.161,3,1.742"/>
	<path style="fill:none;stroke:#000000;stroke-width:2;stroke-linecap:round;stroke-linejoin:round;stroke-miterlimit:10;" d="
		M23,18.563C28.667,15.375,34.333,12.188,40,9c5.333,3.097,10.667,6.194,16,9.29"/>
	<path style="fill:none;stroke:#000000;stroke-width:2;stroke-linecap:round;stroke-linejoin:round;stroke-miterlimit:10;" d="
		M20,20.25c1-0.562,2-1.125,3-1.687"/>
	<path style="fill:none;stroke:#000000;stroke-width:2;stroke-linecap:round;stroke-linejoin:round;stroke-miterlimit:10;" d="
		M23,63.438C18,60.625,13,57.813,8,55c4.148-2.333,8.296-4.667,12.444-7"/>
	<path style="fill:none;stroke:#000000;stroke-width:2;stroke-linecap:round;stroke-linejoin:round;stroke-miterlimit:10;" d="
		M56,63.71c-5.333,3.097-10.667,6.194-16,9.29c-5.667-3.188-11.333-6.375-17-9.563"/>
	<path style="fill:none;stroke:#000000;stroke-width:2;stroke-linecap:round;stroke-linejoin:round;stroke-miterlimit:10;" d="
		M58.944,48c4.019,2.333,8.037,4.667,12.056,7c-5,2.903-10,5.806-15,8.71"/>
	<path style="fill:none;stroke:#000000;stroke-width:2;stroke-linecap:round;stroke-linejoin:round;stroke-miterlimit:10;" d="
		M23,49.438C18,46.625,13,43.813,8,41c4.148-2.333,8.296-4.667,12.444-7"/>
	<g>
		<g>
			
				<line style="fill:none;stroke:#000000;stroke-width:2;stroke-linecap:round;stroke-linejoin:round;" x1="56" y1="49.71" x2="56" y2="49.71"/>
			
				<path style="fill:none;stroke:#000000;stroke-width:2;stroke-linecap:round;stroke-linejoin:round;stroke-dasharray:0,3.7003;" d="
				M52.8,51.568c-3.733,2.168-7.467,4.335-11.2,6.503"/>
			
				<line style="fill:none;stroke:#000000;stroke-width:2;stroke-linecap:round;stroke-linejoin:round;" x1="40" y1="59" x2="40" y2="59"/>
			
				<path style="fill:none;stroke:#000000;stroke-width:2;stroke-linecap:round;stroke-linejoin:round;stroke-dasharray:0,3.901;" d="
				M36.6,57.087c-3.967-2.231-7.933-4.462-11.9-6.694"/>
			
				<line style="fill:none;stroke:#000000;stroke-width:2;stroke-linecap:round;stroke-linejoin:round;" x1="23" y1="49.438" x2="23" y2="49.438"/>
		</g>
	</g>
	<path style="fill:none;stroke:#000000;stroke-width:2;stroke-linecap:round;stroke-linejoin:round;stroke-miterlimit:10;" d="
		M58.944,34c4.019,2.333,8.037,4.667,12.056,7c-5,2.903-10,5.806-15,8.71"/>
	<path style="fill:none;stroke:#000000;stroke-width:2;stroke-linecap:round;stroke-linejoin:round;stroke-miterlimit:10;" d="
		M23,35.438C18,32.625,13,29.813,8,27c4.148-2.333,8.296-4.667,12.444-7"/>
	<g>
		<g>
			
				<line style="fill:none;stroke:#000000;stroke-width:2;stroke-linecap:round;stroke-linejoin:round;" x1="56" y1="35.71" x2="56" y2="35.71"/>
			
				<path style="fill:none;stroke:#000000;stroke-width:2;stroke-linecap:round;stroke-linejoin:round;stroke-dasharray:0,3.7003;" d="
				M52.8,37.568c-3.733,2.168-7.467,4.335-11.2,6.503"/>
			
				<line style="fill:none;stroke:#000000;stroke-width:2;stroke-linecap:round;stroke-linejoin:round;" x1="40" y1="45" x2="40" y2="45"/>
			
				<path style="fill:none;stroke:#000000;stroke-width:2;stroke-linecap:round;stroke-linejoin:round;stroke-dasharray:0,3.901;" d="
				M36.6,43.087c-3.967-2.231-7.933-4.462-11.9-6.694"/>
			
				<line style="fill:none;stroke:#000000;stroke-width:2;stroke-linecap:round;stroke-linejoin:round;" x1="23" y1="35.438" x2="23" y2="35.438"/>
		</g>
	</g>
	<path style="fill:none;stroke:#000000;stroke-width:2;stroke-linecap:round;stroke-linejoin:round;stroke-miterlimit:10;" d="
		M58.944,20c4.019,2.333,8.037,4.667,12.056,7c-5,2.903-10,5.806-15,8.71"/>
</g>
</svg>