<?xml version="1.0" encoding="iso-8859-1"?>
<!-- Generator: Adobe Illustrator 25.4.1, SVG Export Plug-In . SVG Version: 6.00 Build 0)  -->
<svg version="1.1" baseProfile="basic" id="Layer_1"
	 xmlns="http://www.w3.org/2000/svg" xmlns:xlink="http://www.w3.org/1999/xlink" x="0px" y="0px" viewBox="0 0 64 64"
	 xml:space="preserve">
<path d="M52,35c0.682,0,1.346-0.069,2-0.17V45c0,3.309-2.691,6-6,6H16c-3.309,0-6-2.691-6-6V27h30.003
	C41.966,31.693,46.603,35,52,35z"/>
<path d="M39,22c0,0.682,0.069,1.346,0.17,2H10v-5c0-3.309,2.691-6,6-6h3.896c1.81,0,3.585,0.623,4.998,1.753l1.713,1.37
	C27.312,16.689,28.199,17,29.104,17h10.898C39.359,18.54,39,20.229,39,22z"/>
<path id="overlay_00000128469332411088233160000008919164546356145048_" d="M52,12c5.523,0,10,4.477,10,10c0,5.523-4.477,10-10,10
	s-10-4.477-10-10C42,16.477,46.477,12,52,12z M52.009,16.508c-1.693,0-3.009,1.448-3.009,3.179c0,1.919,1.317,3.31,3.009,3.31
	c1.693,0,2.991-1.392,2.991-3.31C55,17.956,53.683,16.508,52.009,16.508z M57.93,26.988v-0.082c-0.659-1.297-2.842-2.718-5.93-2.718
	c-3.089,0-5.271,1.421-5.93,2.698v0.103c0.597,1.4,2.944,2.965,5.93,2.965C54.986,29.953,57.292,28.388,57.93,26.988z"/>
</svg>