<?xml version="1.0" encoding="iso-8859-1"?><!-- Generator: Adobe Illustrator 23.0.3, SVG Export Plug-In . SVG Version: 6.00 Build 0)  --><svg xmlns="http://www.w3.org/2000/svg" xmlns:xlink="http://www.w3.org/1999/xlink" viewBox="0 0 50 50" width="50px" height="50px"><path d="M45,28c-1.654,0-3-1.346-3-3s1.346-3,3-3s3,1.346,3,3S46.654,28,45,28z"/><line style="fill:none;stroke:#000000;stroke-width:2;stroke-linecap:round;stroke-linejoin:round;stroke-miterlimit:10;" x1="43" y1="25" x2="35" y2="25"/><path d="M5,28c-1.654,0-3-1.346-3-3s1.346-3,3-3s3,1.346,3,3S6.654,28,5,28z"/><line style="fill:none;stroke:#000000;stroke-width:2;stroke-linecap:round;stroke-linejoin:round;stroke-miterlimit:10;" x1="7" y1="25" x2="15" y2="25"/><g><line style="fill:none;stroke:#000000;stroke-width:2;stroke-linecap:round;stroke-linejoin:round;stroke-miterlimit:10;" x1="29" y1="17" x2="33.8" y2="8"/><path d="M35,9c-1.654,0-3-1.346-3-3s1.346-3,3-3s3,1.346,3,3S36.654,9,35,9z"/></g><g><line style="fill:none;stroke:#000000;stroke-width:2;stroke-linecap:round;stroke-linejoin:round;stroke-miterlimit:10;" x1="16.2" y1="8" x2="21" y2="17"/><path d="M15,9c-1.654,0-3-1.346-3-3s1.346-3,3-3s3,1.346,3,3S16.654,9,15,9z"/></g><path d="M31.562,39.86c-1.147-0.507-2.234-0.987-2.562-1.612v-1.806c0.709-0.734,1.679-2.174,1.961-3.452c0.439-0.321,0.879-0.957,1.018-2.207c0.07-0.625-0.041-1.187-0.291-1.602c0.183-0.728,0.286-1.465,0.301-2.16c0.035-1.609-0.489-3.052-1.476-4.061c-0.849-0.867-2.005-1.385-3.375-1.516l-0.291-0.791C26.702,20.261,26.328,20,25.909,20c-4.809,0-7.844,2.472-7.921,6.451c-0.017,0.878,0.099,1.823,0.346,2.815c-0.232,0.386-0.382,0.911-0.31,1.556c0.14,1.242,0.575,1.877,1.011,2.2c0.274,1.329,1.265,2.718,1.966,3.425v1.801c-0.328,0.626-1.415,1.106-2.563,1.613c-2.205,0.976-5.225,2.311-5.436,6.083c-0.015,0.274,0.083,0.543,0.272,0.743C13.462,46.887,13.725,47,14,47h22c0.275,0,0.538-0.113,0.727-0.313c0.189-0.2,0.287-0.469,0.272-0.743C36.787,42.171,33.767,40.836,31.562,39.86z M20.961,32.351c0-0.461-0.313-0.854-0.746-0.968c-0.05-0.084-0.15-0.304-0.205-0.783c-0.021-0.188,0.014-0.289-0.005-0.269c0.351-0.245,0.509-0.687,0.389-1.1c-0.287-0.989-0.424-1.911-0.407-2.741c0.052-2.672,1.947-4.276,5.231-4.471l0.271,0.738c0.145,0.394,0.52,0.654,0.938,0.654c1.146,0,2.04,0.318,2.655,0.947c0.607,0.621,0.929,1.551,0.906,2.618c-0.015,0.699-0.145,1.458-0.375,2.195c-0.08,0.254-0.054,0.53,0.071,0.766c0.074,0.14,0.179,0.259,0.306,0.349c0.01,0.06,0.015,0.151,0.001,0.274c-0.053,0.479-0.152,0.698-0.203,0.782c-0.434,0.112-0.748,0.506-0.748,0.968c0,0.851-1.213,2.553-1.532,2.817C27.195,35.306,27,35.639,27,36v2.448c0,0.015,0.007,0.029,0.008,0.044C26.658,38.705,25.997,39,25,39c-0.997,0-1.658-0.295-2.007-0.508C22.993,38.477,23,38.463,23,38.448V36c0-0.362-0.146-0.664-0.462-0.841C22.169,34.875,20.961,33.267,20.961,32.351z"/></svg>