<?xml version="1.0" encoding="iso-8859-1"?><!-- Generator: Adobe Illustrator 21.0.2, SVG Export Plug-In . SVG Version: 6.00 Build 0)  --><svg xmlns="http://www.w3.org/2000/svg" xmlns:xlink="http://www.w3.org/1999/xlink" viewBox="0 0 80 80" width="480px" height="480px"><circle style="fill:none;stroke:#000000;stroke-width:2;stroke-miterlimit:10;" cx="40" cy="40" r="8"/><circle style="fill:none;stroke:#000000;stroke-width:2;stroke-miterlimit:10;" cx="49" cy="19" r="6"/><circle style="fill:none;stroke:#000000;stroke-width:2;stroke-miterlimit:10;" cx="31" cy="19" r="6"/><circle style="fill:none;stroke:#000000;stroke-width:2;stroke-miterlimit:10;" cx="62" cy="32" r="7"/><path style="fill:none;stroke:#000000;stroke-width:2;stroke-miterlimit:10;" d="M52.096,59H75c0,0,0-1.538,0-3c0-7.15-5.85-13-13-13c-6.926,0-12.615,5.493-12.966,12.336"/><circle style="fill:none;stroke:#000000;stroke-width:2;stroke-miterlimit:10;" cx="62" cy="32" r="7"/><path style="fill:none;stroke:#000000;stroke-width:2;stroke-miterlimit:10;" d="M52.096,59H75c0,0,0-1.538,0-3c0-7.15-5.85-13-13-13c-6.926,0-12.615,5.493-12.966,12.336"/><circle style="fill:none;stroke:#000000;stroke-width:2;stroke-miterlimit:10;" cx="18" cy="32" r="7"/><path style="fill:none;stroke:#000000;stroke-width:2;stroke-miterlimit:10;" d="M27.904,59H5c0,0,0-1.538,0-3c0-7.15,5.85-13,13-13c6.926,0,12.615,5.493,12.966,12.336"/><path style="fill:none;stroke:#000000;stroke-width:2;stroke-miterlimit:10;" d="M54,66c0-7.7-6.3-14-14-14s-14,6.3-14,14c0,1.575,0,3,0,3h28C54,69,54,67.575,54,66z"/><circle cx="50" cy="65" r="1"/><circle cx="46" cy="65" r="1"/><circle cx="42" cy="65" r="1"/><circle cx="38" cy="65" r="1"/><circle cx="34" cy="65" r="1"/><circle cx="30" cy="65" r="1"/><circle cx="72" cy="55" r="1"/><circle cx="68" cy="55" r="1"/><circle cx="64" cy="55" r="1"/><circle cx="60" cy="55" r="1"/><circle cx="56" cy="55" r="1"/><circle cx="52" cy="55" r="1"/><circle cx="28" cy="55" r="1"/><circle cx="24" cy="55" r="1"/><circle cx="20" cy="55" r="1"/><circle cx="16" cy="55" r="1"/><circle cx="12" cy="55" r="1"/><circle cx="8" cy="55" r="1"/></svg>