<?xml version="1.0" encoding="iso-8859-1"?><!-- Generator: Adobe Illustrator 19.2.0, SVG Export Plug-In . SVG Version: 6.00 Build 0)  --><svg xmlns="http://www.w3.org/2000/svg" xmlns:xlink="http://www.w3.org/1999/xlink" viewBox="0 0 50 50" width="500px" height="500px"><g><g><path d="M14.909,47c0-2.865,1.708-5.527,1.708-5.527l-1.182-2.344c0-0.946,1.529-0.582,1.529-0.582s1.525-0.349,1.525,0.582l-1.178,2.344c0,0,1.708,2.617,1.708,5.527H14.909z"/></g></g><path style="fill:none;stroke:#000000;stroke-width:2;stroke-linecap:round;stroke-miterlimit:10;" d="M13.964,38c0,0,1.768,1,3.033,1s2.967-1,2.967-1"/><path style="fill:none;stroke:#000000;stroke-width:2;stroke-linecap:round;stroke-linejoin:round;stroke-miterlimit:10;" d="M20,37.787c-0.107-1.191,0-2.022,0-3.11c0.745-0.356,1.964-1.789,2.21-3.521c0,0,1.288-0.813,1.288-2.172c0-0.949-0.316-1.651-0.569-1.908c0.69-2.075,1.872-8.424-2.679-8.424C19.759,17.789,18.529,17,16.895,17c-6.541,0.12-7.091,5.19-5.818,10.076c0,0-0.684,0.691-0.648,1.663c0.067,1.836,1.288,2.417,1.288,2.417c0.234,1.706,1.742,3.237,2.282,3.521c0,1.088,0.107,1.919,0,3.11C12.706,41.266,3.403,40.289,3,47h28C30.597,40.289,21.294,41.266,20,37.787z"/><polyline style="fill:none;stroke:#000000;stroke-width:2;stroke-linecap:round;stroke-miterlimit:10;" points="46,12.909 37,12.909 37,3.909 "/><polyline style="fill:none;stroke:#000000;stroke-width:2;stroke-linecap:round;stroke-miterlimit:10;" points="17,14 17,3 37,3 46.909,12.909 46.909,43 33,43 "/></svg>