<?xml version="1.0" encoding="iso-8859-1"?>
<!-- Generator: Adobe Illustrator 24.1.2, SVG Export Plug-In . SVG Version: 6.00 Build 0)  -->
<svg version="1.1" id="Layer_1" xmlns="http://www.w3.org/2000/svg" xmlns:xlink="http://www.w3.org/1999/xlink" x="0px" y="0px"
	 viewBox="0 0 64 64" style="enable-background:new 0 0 64 64;" xml:space="preserve">
<path d="M47,29.5c0-1.621-0.592-2.834-1-3.477V22.5C46,13.084,40.505,7,32,7s-14,6.084-14,15.5v3.523c-0.408,0.643-1,1.856-1,3.477
	c0,2.481,1.504,4.197,2.223,4.875c0.796,2.067,2.184,4.074,3.725,5.827l-0.944,13.695l2.993,0.206l0.765-11.095
	C27.857,44.837,29.778,46,30.5,46h3c0.722,0,2.643-1.163,4.738-2.992l2.814-2.806c1.541-1.754,2.929-3.76,3.725-5.827
	C45.496,33.697,47,31.981,47,29.5z M42.593,32.305l-0.361,0.274l-0.149,0.428c-1.757,5.047-7.57,9.314-8.854,9.993H30.77
	c-1.284-0.679-7.097-4.946-8.854-9.993l-0.149-0.428l-0.361-0.274C21.393,32.294,20,31.191,20,29.5c0-1.223,0.623-2.003,0.636-2.02
	L21,27.058V22.5C21,16.457,23.89,10,32,10s11,6.457,11,12.5v4l0.015,0.55l0.335,0.414C43.377,27.497,44,28.277,44,29.5
	C44,31.179,42.598,32.301,42.593,32.305z"/>
<path style="fill-rule:evenodd;clip-rule:evenodd;" d="M40,5C24,5,18,9,18,20c0,2.5,0,5,0,5l3,2c0,0-0.5-8.5,2-11c0,0,4.5,1,9,1
	s8-1,8-1c3.5,3,3,11,3,11l3-1c0,0,0-2,0-6c0-3.5-1-9-4-9L40,5z"/>
<path style="fill-rule:evenodd;clip-rule:evenodd;" d="M35.064,52.725C34.174,52.89,33.157,53,32,53c-5,0-7.5-2-7.5-2v-5L5,52
	l0.443,2.658C5.764,56.586,7.433,58,9.388,58h27.101C35.712,56.373,35.216,54.598,35.064,52.725z"/>
<path d="M51,64c-7.18,0-13-5.82-13-13s5.82-13,13-13s13,5.82,13,13S58.18,64,51,64z M58.647,48.353l-1.971-1.975L50,52l-4.331-2.617
	l-1.671,1.932L50,57L58.647,48.353z"/>
</svg>