<?xml version="1.0" encoding="iso-8859-1"?>
<!-- Generator: Adobe Illustrator 25.0.1, SVG Export Plug-In . SVG Version: 6.00 Build 0)  -->
<svg version="1.1" id="Layer_1" xmlns="http://www.w3.org/2000/svg" xmlns:xlink="http://www.w3.org/1999/xlink" x="0px" y="0px"
	 viewBox="0 0 48 48" style="enable-background:new 0 0 48 48;" xml:space="preserve">
<path style="fill:none;stroke:#000000;stroke-width:3;stroke-linejoin:round;stroke-miterlimit:10;" d="M43.5,30.5v-18
	c0-2.209-1.791-4-4-4h-31c-2.209,0-4,1.791-4,4v18c0,2.209,1.791,4,4,4h31C41.709,34.5,43.5,32.709,43.5,30.5z"/>
<line style="fill:none;stroke:#000000;stroke-width:3;stroke-linecap:round;stroke-linejoin:round;stroke-miterlimit:10;" x1="15.5" y1="40.5" x2="32.5" y2="40.5"/>
<path d="M21.5,30h-11C9.671,30,9,29.328,9,28.5v-4c0-0.828,0.671-1.5,1.5-1.5h11c0.829,0,1.5,0.672,1.5,1.5v4
	C23,29.328,22.329,30,21.5,30z"/>
<path d="M21.5,20h-11C9.671,20,9,19.328,9,18.5v-4c0-0.828,0.671-1.5,1.5-1.5h11c0.829,0,1.5,0.672,1.5,1.5v4
	C23,19.328,22.329,20,21.5,20z"/>
<path d="M37.5,30h-11c-0.829,0-1.5-0.672-1.5-1.5v-4c0-0.828,0.671-1.5,1.5-1.5h11c0.829,0,1.5,0.672,1.5,1.5v4
	C39,29.328,38.329,30,37.5,30z"/>
<path d="M37.5,20h-11c-0.829,0-1.5-0.672-1.5-1.5v-4c0-0.828,0.671-1.5,1.5-1.5h11c0.829,0,1.5,0.672,1.5,1.5v4
	C39,19.328,38.329,20,37.5,20z"/>
</svg>