<?xml version="1.0" encoding="iso-8859-1"?>
<!-- Generator: Adobe Illustrator 23.0.3, SVG Export Plug-In . SVG Version: 6.00 Build 0)  -->
<svg version="1.1" id="Layer_1" xmlns="http://www.w3.org/2000/svg" xmlns:xlink="http://www.w3.org/1999/xlink" x="0px" y="0px"
	 viewBox="0 0 48 48" style="enable-background:new 0 0 48 48;" xml:space="preserve">
<path style="fill:none;stroke:#000000;stroke-width:3;stroke-linecap:round;stroke-linejoin:round;stroke-miterlimit:5;" d="
	M6.493,16.17C10.122,10.316,16.606,6.417,24,6.417c7.084,0,13.333,3.579,17.036,9.027"/>
<polyline style="fill:none;stroke:#000000;stroke-width:3;stroke-linecap:round;stroke-linejoin:round;stroke-miterlimit:5;" points="
	5.5,7.5 5.5,16.5 6.34,16.5 14.5,16.5 "/>
<path style="fill:none;stroke:#000000;stroke-width:3;stroke-linecap:round;stroke-linejoin:round;stroke-miterlimit:5;" d="
	M23.639,26.614c-2.835-0.186-5.078-2.544-5.078-5.427c0-3.004,2.435-5.438,5.438-5.438s5.438,2.435,5.438,5.438
	c0,0.733-0.145,1.433-0.408,2.071"/>
<path style="fill:none;stroke:#000000;stroke-width:3;stroke-linecap:round;stroke-linejoin:round;stroke-miterlimit:10;" d="
	M24.191,41.5c-4.864,0.056-9.793-2.02-9.793-6.23v0c0-2.082,1.688-3.77,3.77-3.77h0.661"/>
<path style="fill:none;stroke:#000000;stroke-width:3;stroke-linecap:round;stroke-linejoin:round;stroke-miterlimit:10;" d="
	M24.404,31.5h5.427c2.082,0,3.77,1.688,3.77,3.77v0h-0.001c0,2.346-1.531,4.03-3.729,5.051"/>
</svg>