<?xml version="1.0" encoding="iso-8859-1"?><!-- Generator: Adobe Illustrator 23.0.2, SVG Export Plug-In . SVG Version: 6.00 Build 0)  --><svg xmlns="http://www.w3.org/2000/svg" xmlns:xlink="http://www.w3.org/1999/xlink" viewBox="0 0 50 50" width="50px" height="50px"><g><path d="M34.85,20.61c-0.27,2.21-1.17,2.77-1.75,2.82c-0.22,2.06-1.53,4.5-2.26,4.89c0,1.36-0.04,2.42,0.06,3.85C29.09,34.27,28,37,28,40c0,1.79,0.39,3.48,1.08,5H7c0.55-9.08,12.37-7.76,14.12-12.47c0.15-1.61,0.09-2.74,0.09-4.21c-0.73-0.39-2.09-2.83-2.31-4.89c-0.58-0.05-1.48-0.61-1.75-2.82c-0.14-1.19,0.43-1.85,0.78-2.06c-1.95-7.47-0.88-14,7.98-14.16c2.21,0,3.91,0.59,4.58,1.76c6.46,0.9,4.52,9.59,3.59,12.4C34.42,18.76,34.99,19.42,34.85,20.61z"/></g><g id="IOS_copy_6_"><g><path d="M50,40c0,5.5-4.5,10-10,10s-10-4.5-10-10s4.5-10,10-10S50,34.5,50,40z M48,40c0-4.4-3.6-8-8-8s-8,3.6-8,8s3.6,8,8,8S48,44.4,48,40z"/></g></g><g id="IOS_copy_5_"><g><path d="M39,44c-0.257,0-0.513-0.099-0.707-0.293l-3-3c-0.391-0.391-0.391-1.023,0-1.414s1.023-0.391,1.414,0l2.354,2.354l5.298-4.415c0.427-0.354,1.056-0.296,1.409,0.128c0.354,0.424,0.296,1.055-0.128,1.408l-6,5C39.454,43.923,39.227,44,39,44z"/></g></g></svg>