<?xml version="1.0" encoding="iso-8859-1"?>
<!-- Generator: Adobe Illustrator 29.3.1, SVG Export Plug-In . SVG Version: 9.03 Build 55982)  -->
<svg version="1.1" baseProfile="basic" id="Layer_1"
	 xmlns="http://www.w3.org/2000/svg" xmlns:xlink="http://www.w3.org/1999/xlink" x="0px" y="0px" viewBox="0 0 24 24"
	 xml:space="preserve">
<path d="M11.58,19.5H4.5v-0.892l3.851-3.153L10,17.59L13.412,13h-4.43L3,17.897V21h8.968C11.785,20.523,11.654,20.021,11.58,19.5z"
	/>
<path style="fill:none;stroke:#000000;stroke-width:1.5;stroke-linecap:round;stroke-linejoin:round;stroke-miterlimit:10;" d="
	M15.25,6c0-1.795-1.455-3.25-3.25-3.25S8.75,4.205,8.75,6c0,0.171,0,0.829,0,1c0,1.795,1.455,3.25,3.25,3.25S15.25,8.795,15.25,7
	C15.25,6.829,15.25,6.171,15.25,6z"/>
<path d="M22.875,18.5c0-0.37-0.06-0.724-0.147-1.068l0.964-0.852l-0.933-1.617l-1.212,0.406c-0.512-0.498-1.15-0.858-1.856-1.059
	l-0.257-1.266h-1.867L17.31,14.31c-0.706,0.201-1.344,0.561-1.856,1.059l-1.212-0.406l-0.933,1.617l0.964,0.852
	c-0.087,0.344-0.147,0.697-0.147,1.068s0.06,0.724,0.147,1.068l-0.964,0.852l0.933,1.617l1.212-0.406
	c0.512,0.498,1.15,0.858,1.856,1.059l0.257,1.266h1.867l0.257-1.266c0.706-0.201,1.344-0.561,1.856-1.059l1.212,0.406l0.933-1.617
	l-0.964-0.852C22.815,19.224,22.875,18.87,22.875,18.5z M18.5,21.125c-1.447,0-2.625-1.178-2.625-2.625s1.178-2.625,2.625-2.625
	s2.625,1.178,2.625,2.625S19.947,21.125,18.5,21.125z"/>
</svg>