<?xml version="1.0" encoding="iso-8859-1"?><!-- Generator: Adobe Illustrator 23.0.3, SVG Export Plug-In . SVG Version: 6.00 Build 0)  --><svg xmlns="http://www.w3.org/2000/svg" xmlns:xlink="http://www.w3.org/1999/xlink" viewBox="0 0 50 50" width="500px" height="500px"><line style="fill:none;stroke:#000000;stroke-width:2;stroke-linecap:round;stroke-linejoin:round;stroke-miterlimit:10;" x1="5" y1="13" x2="9" y2="13"/><line style="fill:none;stroke:#000000;stroke-width:2;stroke-linecap:round;stroke-linejoin:round;stroke-miterlimit:10;" x1="5" y1="19" x2="9" y2="19"/><line style="fill:none;stroke:#000000;stroke-width:2;stroke-miterlimit:10;" x1="7" y1="15" x2="7" y2="19"/><line style="fill:none;stroke:#000000;stroke-width:2;stroke-linecap:round;stroke-linejoin:round;stroke-miterlimit:10;" x1="5" y1="25" x2="9" y2="25"/><line style="fill:none;stroke:#000000;stroke-width:2;stroke-miterlimit:10;" x1="7" y1="21" x2="7" y2="25"/><line style="fill:none;stroke:#000000;stroke-width:2;stroke-linecap:round;stroke-linejoin:round;stroke-miterlimit:10;" x1="5" y1="31" x2="9" y2="31"/><line style="fill:none;stroke:#000000;stroke-width:2;stroke-miterlimit:10;" x1="7" y1="27" x2="7" y2="31"/><line style="fill:none;stroke:#000000;stroke-width:2;stroke-linecap:round;stroke-linejoin:round;stroke-miterlimit:10;" x1="5" y1="37" x2="9" y2="37"/><line style="fill:none;stroke:#000000;stroke-width:2;stroke-miterlimit:10;" x1="7" y1="33" x2="7" y2="37"/><circle style="fill:none;stroke:#000000;stroke-width:2;stroke-linecap:round;stroke-miterlimit:10;" cx="36" cy="36" r="9"/><line style="fill:none;stroke:#000000;stroke-width:2;stroke-miterlimit:10;" x1="42" y1="42" x2="49" y2="49"/><g><path d="M8,7c0-0.552,0.449-1,1-1h28c0.551,0,1,0.448,1,1v17.18c0.689,0.116,1.356,0.29,2,0.518V7c0-1.654-1.346-3-3-3H9C7.346,4,6,5.346,6,7v6h2V7z"/><path d="M15.25,33c0.49-1.055,1.654-1.575,3.323-2.21c1.406-0.534,2.86-1.087,3.363-2.418C21.978,28.259,22,28.14,22,28.019c0-0.914,0.043-1.973,0.043-1.979c0.011-0.271-0.111-0.536-0.3-0.732c-0.063-0.065-0.137-0.122-0.217-0.168c-0.172-0.222-0.519-0.939-0.592-1.595c-0.046-0.418-0.347-0.756-0.743-0.857c-0.035-0.073-0.093-0.239-0.129-0.58c0.368-0.281,0.498-0.788,0.296-1.218c-0.513-1.094-0.476-2.241,0.101-3.148c0.635-0.999,1.842-1.599,3.435-1.719l0.211,0.424C24.274,16.785,24.621,17,25,17c0.797,0,1.35,0.348,1.689,1.064c0.5,1.055,0.302,2.352,0.084,2.617c-0.216,0.264-0.283,0.618-0.178,0.941c0.064,0.199,0.188,0.37,0.351,0.492c0,0.019-0.002,0.04-0.005,0.064c-0.036,0.288-0.095,0.438-0.131,0.508c-0.396,0.102-0.698,0.439-0.745,0.857c-0.057,0.503-0.552,1.403-0.885,1.883C25.063,25.596,25,25.796,25,26v2.019c0,0.121,0.022,0.24,0.064,0.354c0.177,0.469,0.477,0.838,0.847,1.146c0.362-0.562,0.772-1.089,1.22-1.582c-0.051-0.049-0.096-0.099-0.131-0.15v-1.486c0.254-0.399,0.698-1.16,0.925-1.928c0.421-0.28,0.861-0.838,1-1.944c0.059-0.473-0.009-0.91-0.178-1.264c0.402-1.123,0.33-2.731-0.25-3.957c-0.58-1.225-1.58-1.977-2.855-2.162l-0.245-0.492C25.228,14.215,24.881,14,24.502,14c-2.602,0-4.638,0.947-5.731,2.669c-0.827,1.301-0.989,2.929-0.469,4.462c-0.186,0.338-0.293,0.774-0.228,1.298c0.136,1.087,0.564,1.644,0.979,1.929c0.173,0.729,0.518,1.569,0.974,2.104c-0.011,0.352-0.023,0.845-0.026,1.325c-0.293,0.434-1.23,0.789-2.139,1.135c-1.967,0.748-4.662,1.771-4.86,5.019c-0.017,0.274,0.081,0.545,0.27,0.746C13.46,34.886,13.724,35,14,35h10.05c0.057-0.686,0.176-1.352,0.343-2H15.25z"/><path d="M27.074,44H9c-0.551,0-1-0.448-1-1v-4H6v4c0,1.654,1.346,3,3,3h20.372C28.521,45.435,27.754,44.758,27.074,44z"/></g><g><path d="M38,41.65c0.746-0.265,1.422-0.672,2-1.191v-8.919c-0.578-0.519-1.254-0.926-2-1.191"/></g></svg>