<?xml version="1.0" encoding="iso-8859-1"?><!-- Generator: Adobe Illustrator 23.0.3, SVG Export Plug-In . SVG Version: 6.00 Build 0)  --><svg xmlns="http://www.w3.org/2000/svg" xmlns:xlink="http://www.w3.org/1999/xlink" viewBox="0 0 80 80" width="480px" height="480px"><circle cx="13.007" cy="39.334" r="1"/><circle cx="67.007" cy="40" r="1"/><circle cx="40.007" cy="67" r="1"/><circle cx="40.007" cy="13" r="1"/><ellipse cx="20.915" cy="59.092" rx="1" ry="1"/><ellipse cx="59.099" cy="20.908" rx="1" ry="1"/><ellipse cx="29.672" cy="64.946" rx="1" ry="1"/><ellipse cx="50.338" cy="15.055" rx="1" ry="1"/><ellipse cx="15.06" cy="50.332" rx="1" ry="1"/><ellipse cx="64.95" cy="29.668" rx="1" ry="1"/><ellipse cx="50.337" cy="64.945" rx="1" ry="1"/><ellipse cx="29.673" cy="15.055" rx="1" ry="1"/><ellipse cx="66.487" cy="45.268" rx="1" ry="1"/><ellipse cx="34.738" cy="66.482" rx="1" ry="1"/><ellipse cx="45.273" cy="13.519" rx="1" ry="1"/><ellipse cx="17.554" cy="55" rx="1" ry="1"/><ellipse cx="62.455" cy="25" rx="1" ry="1"/><ellipse cx="25.003" cy="62.45" rx="1" ry="1"/><ellipse cx="55.005" cy="17.55" rx="1" ry="1"/><ellipse cx="13.525" cy="44.601" rx="1" ry="1"/><ellipse cx="66.487" cy="34.733" rx="1" ry="1"/><ellipse cx="45.273" cy="66.481" rx="1" ry="1"/><ellipse cx="34.738" cy="13.519" rx="1" ry="1"/><polygon points="13.007,22 16.007,8 27.007,19 "/><path d="M70.025,47.695c0.208,0.037,1.912,0.61,1.912,0.61C72.647,45.582,73,42.811,73,40.056c0-11.414-5.918-22.53-16.493-28.636C48.873,7.013,39.98,5.842,31.466,8.123c-6.226,1.669-11.701,5.039-15.918,9.715c-0.898,0.995,1.022,1.85,1.586,1.231c3.948-4.333,9.052-7.46,14.85-9.014c7.998-2.142,16.352-1.043,23.523,3.098C67.805,20.253,73.387,34.565,70.025,47.695z"/><path d="M62.866,60.916c-3.948,4.333-9.052,7.46-14.85,9.014c-7.998,2.142-16.352,1.043-23.523-3.098C12.219,59.745,6.636,45.477,9.956,32.368c-0.659-0.116-1.31-0.273-1.954-0.461C7.332,34.557,7,37.25,7,39.929c0,11.414,5.918,22.53,16.493,28.636c7.634,4.407,16.527,5.578,25.041,3.297c6.226-1.669,11.701-5.039,15.918-9.715C65.35,61.152,63.43,60.297,62.866,60.916z"/><ellipse cx="13.53" cy="34.065" rx="1" ry="1"/><polygon points="67.01,57.333 64.01,71.333 53.01,60.333 "/><path d="M53.962,40c0-1.111-0.139-2.231-0.412-3.338l2.374-3.017l-2.479-4.29l-3.798,0.547c-1.63-1.562-3.61-2.704-5.781-3.333L42.439,23h-4.953l-1.428,3.568c-2.171,0.63-4.152,1.772-5.782,3.334l-3.797-0.547L24,33.645l2.374,3.017c-0.273,1.107-0.412,2.227-0.412,3.338s0.139,2.231,0.412,3.338L24,46.355l2.479,4.29l3.798-0.547c1.63,1.562,3.61,2.704,5.781,3.333L37.485,57h4.953l1.428-3.568c2.171-0.629,4.151-1.771,5.781-3.333l3.798,0.547l2.479-4.29l-2.374-3.017C53.823,42.231,53.962,41.111,53.962,40z M51.493,36.71c0.312,1.09,0.469,2.197,0.469,3.29s-0.157,2.2-0.469,3.29l-0.14,0.491l2.16,2.746l-1.123,1.945l-3.458-0.498l-0.355,0.367c-1.555,1.605-3.524,2.742-5.697,3.285l-0.495,0.124l-1.3,3.25h-2.246l-1.3-3.25l-0.495-0.124c-2.173-0.543-4.143-1.68-5.697-3.285l-0.355-0.367l-3.458,0.498l-1.123-1.945l2.16-2.746l-0.14-0.491c-0.312-1.09-0.469-2.197-0.469-3.29s0.157-2.2,0.469-3.29l0.14-0.491l-2.16-2.746l1.123-1.945l3.458,0.498l0.355-0.367c1.555-1.605,3.524-2.742,5.697-3.285l0.495-0.124l1.3-3.25h2.246l1.3,3.25l0.495,0.124c2.173,0.543,4.143,1.68,5.697,3.285l0.355,0.367l3.458-0.498l1.123,1.945l-2.16,2.746L51.493,36.71z M39.962,32c-4.411,0-8,3.589-8,8s3.589,8,8,8s8-3.589,8-8S44.373,32,39.962,32z M39.962,46c-3.309,0-6-2.691-6-6s2.691-6,6-6c3.309,0,6,2.691,6,6S43.271,46,39.962,46z"/></svg>