<?xml version="1.0" encoding="iso-8859-1"?>
<!-- Generator: Adobe Illustrator 25.2.0, SVG Export Plug-In . SVG Version: 6.00 Build 0)  -->
<svg version="1.1" id="Layer_1" xmlns="http://www.w3.org/2000/svg" xmlns:xlink="http://www.w3.org/1999/xlink" x="0px" y="0px"
	 viewBox="0 0 48 48" style="enable-background:new 0 0 48 48;" xml:space="preserve">
<path d="M18,24c-5.514,0-10-4.486-10-10S12.486,4,18,4s10,4.486,10,10S23.514,24,18,24z"/>
<path d="M45.551,43.439l-4.946-4.946c0.873-1.282,1.385-2.828,1.385-4.493c0-4.411-3.589-8-8-8s-8,3.589-8,8s3.589,8,8,8
	c1.665,0,3.211-0.512,4.493-1.386l4.946,4.946C43.722,45.854,44.106,46,44.49,46s0.768-0.146,1.061-0.439
	C46.136,44.975,46.136,44.025,45.551,43.439z M28.99,34c0-2.757,2.243-5,5-5s5,2.243,5,5s-2.243,5-5,5S28.99,36.757,28.99,34z"/>
<line style="fill:none;stroke:#000000;stroke-width:3;stroke-linecap:round;stroke-linejoin:round;stroke-miterlimit:5;" x1="29.75" y1="38.25" x2="38.25" y2="29.75"/>
<path d="M24,34c0-2.254,0.755-4.327,2.014-6H6.723C4.67,28,3,29.785,3,31.979V33.5c0,3.281,1.696,6.132,4.776,8.027
	c2.589,1.594,6.038,2.471,9.714,2.473c3.676-0.002,7.125-0.879,9.714-2.473c0.044-0.027,0.08-0.058,0.123-0.085
	c0,0,0.005-0.004,0.006-0.004C25.291,39.607,24,36.957,24,34z"/>
</svg>