<?xml version="1.0" encoding="iso-8859-1"?>
<!-- Generator: Adobe Illustrator 24.3.0, SVG Export Plug-In . SVG Version: 6.00 Build 0)  -->
<svg version="1.1" id="Layer_1" xmlns="http://www.w3.org/2000/svg" xmlns:xlink="http://www.w3.org/1999/xlink" x="0px" y="0px"
	 viewBox="0 0 48 48" style="enable-background:new 0 0 48 48;" xml:space="preserve">
<path style="fill:none;stroke:#000000;stroke-width:3;stroke-linecap:round;stroke-linejoin:round;stroke-miterlimit:10;" d="
	M41.5,11.5v25c0,2.209-1.791,4-4,4h-27c-2.209,0-4-1.791-4-4v-25c0-2.209,1.791-4,4-4h27C39.709,7.5,41.5,9.291,41.5,11.5z"/>
<path d="M37.5,6h-27C7.468,6,5,8.468,5,11.5v2C5,14.328,5.672,15,6.5,15h35c0.828,0,1.5-0.672,1.5-1.5v-2C43,8.468,40.532,6,37.5,6z
	 M10.5,12C9.672,12,9,11.328,9,10.5S9.672,9,10.5,9S12,9.672,12,10.5S11.328,12,10.5,12z M15.5,12c-0.828,0-1.5-0.672-1.5-1.5
	S14.672,9,15.5,9S17,9.672,17,10.5S16.328,12,15.5,12z"/>
<path d="M33.121,31.879l-6.428-6.428c0.272-0.865,0.377-1.803,0.256-2.782c-0.339-2.735-2.464-5.018-5.17-5.544
	c-1.197-0.233-2.345-0.129-3.377,0.226c-0.419,0.144-0.538,0.685-0.225,0.998l3.151,3.151c0.753,0.753,0.887,1.989,0.194,2.798
	C21.12,24.766,20.56,25,20,25c-0.512,0-1.023-0.195-1.414-0.586l-3.237-3.237c-0.313-0.313-0.854-0.194-0.998,0.225
	c-0.355,1.032-0.459,2.18-0.226,3.377c0.526,2.705,2.809,4.831,5.544,5.17c0.978,0.121,1.917,0.017,2.782-0.256l6.428,6.428
	C29.465,36.707,30.232,37,31,37s1.535-0.293,2.121-0.879C34.293,34.95,34.293,33.05,33.121,31.879z"/>
</svg>