<?xml version="1.0" encoding="iso-8859-1"?><!-- Generator: Adobe Illustrator 21.1.0, SVG Export Plug-In . SVG Version: 6.00 Build 0)  --><svg xmlns="http://www.w3.org/2000/svg" xmlns:xlink="http://www.w3.org/1999/xlink" viewBox="0 0 80 80" width="480px" height="480px"><path style="fill:none;stroke:#000000;stroke-width:2;stroke-miterlimit:10;" d="M71,60H9c-1.105,0-2-0.895-2-2V16c0-1.105,0.895-2,2-2h62c1.105,0,2,0.895,2,2v42C73,59.105,72.105,60,71,60z"/><rect x="24" y="64" style="fill:none;stroke:#000000;stroke-width:2;stroke-miterlimit:10;" width="32" height="4"/><rect x="30" y="60" style="fill:none;stroke:#000000;stroke-width:2;stroke-miterlimit:10;" width="20" height="4"/><circle cx="20" cy="34" r="1"/><circle cx="36" cy="30" r="1"/><circle cx="36" cy="26" r="1"/><circle cx="36" cy="22" r="1"/><circle cx="32" cy="22" r="1"/><circle cx="28" cy="22" r="1"/><circle cx="24" cy="22" r="1"/><circle cx="36" cy="34" r="1"/><circle cx="32" cy="34" r="1"/><circle cx="28" cy="34" r="1"/><circle cx="24" cy="34" r="1"/><circle cx="20" cy="22" r="1"/><circle cx="20" cy="52" r="1"/><circle cx="36" cy="48" r="1"/><circle cx="36" cy="44" r="1"/><circle cx="36" cy="40" r="1"/><circle cx="32" cy="40" r="1"/><circle cx="28" cy="40" r="1"/><circle cx="24" cy="40" r="1"/><circle cx="36" cy="52" r="1"/><circle cx="32" cy="52" r="1"/><circle cx="28" cy="52" r="1"/><circle cx="24" cy="52" r="1"/><circle cx="20" cy="40" r="1"/><circle cx="44" cy="34" r="1"/><circle cx="44" cy="30" r="1"/><circle cx="44" cy="26" r="1"/><circle cx="60" cy="22" r="1"/><circle cx="56" cy="22" r="1"/><circle cx="52" cy="22" r="1"/><circle cx="48" cy="22" r="1"/><circle cx="60" cy="34" r="1"/><circle cx="56" cy="34" r="1"/><circle cx="52" cy="34" r="1"/><circle cx="48" cy="34" r="1"/><circle cx="44" cy="22" r="1"/><circle cx="44" cy="52" r="1"/><circle cx="44" cy="48" r="1"/><circle cx="44" cy="44" r="1"/><circle cx="60" cy="40" r="1"/><circle cx="56" cy="40" r="1"/><circle cx="52" cy="40" r="1"/><circle cx="48" cy="40" r="1"/><circle cx="60" cy="52" r="1"/><circle cx="64" cy="30" r="1"/><circle cx="64" cy="26" r="1"/><circle cx="64" cy="22" r="1"/><circle cx="64" cy="34" r="1"/><circle cx="64" cy="48" r="1"/><circle cx="64" cy="44" r="1"/><circle cx="64" cy="40" r="1"/><circle cx="64" cy="52" r="1"/><circle cx="16" cy="30" r="1"/><circle cx="16" cy="26" r="1"/><circle cx="16" cy="22" r="1"/><circle cx="16" cy="34" r="1"/><circle cx="16" cy="48" r="1"/><circle cx="16" cy="44" r="1"/><circle cx="16" cy="40" r="1"/><circle cx="16" cy="52" r="1"/><circle cx="56" cy="52" r="1"/><circle cx="52" cy="52" r="1"/><circle cx="48" cy="52" r="1"/><circle cx="44" cy="40" r="1"/></svg>