<?xml version="1.0" encoding="iso-8859-1"?>
<!-- Generator: Adobe Illustrator 29.3.1, SVG Export Plug-In . SVG Version: 9.03 Build 55982)  -->
<svg version="1.1" baseProfile="basic" id="Layer_1"
	 xmlns="http://www.w3.org/2000/svg" xmlns:xlink="http://www.w3.org/1999/xlink" x="0px" y="0px" viewBox="0 0 24 24"
	 xml:space="preserve">
<path d="M24,19c0,2.761-2.239,5-5,5s-5-2.239-5-5s2.239-5,5-5S24,16.239,24,19z M22,18.375h-2.375V16h-1.25v2.375H16v1.25h2.375V22
	h1.25v-2.375H22V18.375z"/>
<path d="M12,11c2.206,0,4-1.794,4-4V6c0-2.206-1.794-4-4-4S8,3.794,8,6v1C8,9.206,9.794,11,12,11z"/>
<path d="M12.5,19c0-2.339,1.24-4.383,3.094-5.528L15.018,13H8.982L3,17.897V21h9.817C12.613,20.37,12.5,19.698,12.5,19z"/>
</svg>