<?xml version="1.0" encoding="iso-8859-1"?><!-- Generator: Adobe Illustrator 22.0.1, SVG Export Plug-In . SVG Version: 6.00 Build 0)  --><svg xmlns="http://www.w3.org/2000/svg" xmlns:xlink="http://www.w3.org/1999/xlink" viewBox="0 0 80 80" width="480px" height="480px"><path style="fill:none;stroke:#000000;stroke-width:2;stroke-miterlimit:10;" d="M53.125,32c-0.129,0-0.594,0.25-1.125,0.562V28c0-6.316-5-8-5-8s-3.129,3-10,3c-3.09,0-9,2.367-9,8.055v1.507C27.469,32.25,27.004,32,26.875,32C25.84,32,25,32.805,25,33.801c0,0.722,0.625,2.281,0.625,2.699c0,0.828,0.699,1.5,1.563,1.5H28v0.367c0,5.906,4.266,10.801,9.883,11.805C38.445,50.68,39.184,51,40,51s1.555-0.32,2.117-0.828C47.734,49.168,52,44.273,52,38.367V38h0.813c0.863,0,1.562-0.672,1.562-1.5c0-0.418,0.625-1.977,0.625-2.699C55,32.805,54.16,32,53.125,32L53.125,32z M54,32c0,0,1-5.602,1-9c0-6.703-4.848-9-8-9c0,0-1.973-4-8.273-4C29.789,10,22,20,22,20s3.273,0.969,3.273,5.754C25.273,29.355,26,32,26,32 M52.152,54.738C49.246,53.625,47,53,47,53 M33,53c0,0-18,5-18,12v5h35 M47,48v8c0,0-2,4-7,4c-5,0-7-4-7-4v-8"/><path d="M45,66c0,0.551-0.449,1-1,1c-0.551,0-1-0.449-1-1c0-0.551,0.449-1,1-1C44.551,65,45,65.449,45,66L45,66z"/><path d="M47,34.5c0,0.828-0.672,1.5-1.5,1.5c-0.828,0-1.5-0.672-1.5-1.5c0-0.828,0.672-1.5,1.5-1.5C46.328,33,47,33.672,47,34.5L47,34.5z"/><path d="M36,34.5c0,0.828-0.672,1.5-1.5,1.5c-0.828,0-1.5-0.672-1.5-1.5c0-0.828,0.672-1.5,1.5-1.5C35.328,33,36,33.672,36,34.5L36,34.5z"/><path d="M41,66c0,0.551-0.449,1-1,1c-0.551,0-1-0.449-1-1c0-0.551,0.449-1,1-1C40.551,65,41,65.449,41,66L41,66z"/><path d="M37,66c0,0.551-0.449,1-1,1c-0.551,0-1-0.449-1-1c0-0.551,0.449-1,1-1C36.551,65,37,65.449,37,66L37,66z"/><path d="M33,66c0,0.551-0.449,1-1,1c-0.551,0-1-0.449-1-1c0-0.551,0.449-1,1-1C32.551,65,33,65.449,33,66L33,66z"/><path d="M29,66c0,0.551-0.449,1-1,1c-0.551,0-1-0.449-1-1c0-0.551,0.449-1,1-1C28.551,65,29,65.449,29,66L29,66z"/><path d="M25,66c0,0.551-0.449,1-1,1c-0.551,0-1-0.449-1-1c0-0.551,0.449-1,1-1C24.551,65,25,65.449,25,66L25,66z"/><path d="M21,66c0,0.551-0.449,1-1,1c-0.551,0-1-0.449-1-1c0-0.551,0.449-1,1-1C20.551,65,21,65.449,21,66L21,66z"/><path d="M49,66c0,0.551-0.449,1-1,1c-0.551,0-1-0.449-1-1c0-0.551,0.449-1,1-1C48.551,65,49,65.449,49,66L49,66z"/><g><path d="M65.632,63.125l-0.937-0.199v-3.831c1.135,0.151,1.93,0.927,1.958,1.901h2.261c-0.047-2.129-1.693-3.643-4.219-3.869v-1.306H63.39v1.306c-2.668,0.227-4.276,1.693-4.276,3.926c0,1.892,1.183,3.179,3.368,3.718l0.908,0.218v4.03c-1.315-0.142-2.176-0.898-2.261-1.958H58.82c0.009,2.232,1.75,3.727,4.569,3.897v1.221h1.306v-1.23c2.848-0.236,4.484-1.703,4.484-4.049C69.18,64.903,68.035,63.683,65.632,63.125z M63.39,62.651c-1.268-0.265-1.939-0.889-1.939-1.797c0-0.966,0.814-1.703,1.939-1.77V62.651z M64.695,69.037v-3.803c1.495,0.293,2.176,0.898,2.176,1.911C66.871,68.262,66.077,68.952,64.695,69.037z"/><path d="M64,48c-8.822,0-16,7.178-16,16s7.178,16,16,16s16-7.178,16-16S72.822,48,64,48z M64,78c-7.72,0-14-6.28-14-14s6.28-14,14-14s14,6.28,14,14S71.72,78,64,78z"/></g></svg>