<?xml version="1.0" encoding="iso-8859-1"?><!-- Generator: Adobe Illustrator 19.2.0, SVG Export Plug-In . SVG Version: 6.00 Build 0)  --><svg xmlns="http://www.w3.org/2000/svg" xmlns:xlink="http://www.w3.org/1999/xlink" viewBox="0 0 50 50" width="50px" height="50px"><path d="M25,2C15.059,2,7,4.686,7,8c0,0,0,8.083,0,17c0,5.083,5.417,19.083,18,22c12.583-2.917,18-16.917,18-22c0-8.917,0-17,0-17C43,4.686,34.941,2,25,2z M17,11c3.438,0,5.195,3.074,5.561,3.439c0.586,0.586,0.586,1.536,0,2.121c-0.586,0.586-1.536,0.586-2.121,0C20.027,16.149,18.688,13,16,13c-1.387,0-3.047,0.64-5,2C12.855,11.877,15.004,11,17,11z M20,18.5c-0.918,0.906-2.36,1.5-4,1.5s-3.082-0.594-4-1.5c0.918-0.906,2.36-1.5,4-1.5S19.082,17.594,20,18.5z M27,43l-2,2l-2-2v-5h4V43z M34,34h-7l-2-2l-2,2h-7l-5-8l6,5h4l3-3h2l3,3h4l6-5L34,34z M30,18.5c0.918-0.906,2.36-1.5,4-1.5s3.082,0.594,4,1.5c-0.918,0.906-2.36,1.5-4,1.5S30.918,19.406,30,18.5z M34,13c-2.688,0-4.027,3.149-4.439,3.561c-0.586,0.586-1.536,0.586-2.121,0c-0.586-0.586-0.586-1.536,0-2.121C27.805,14.074,29.563,11,33,11c1.996,0,4.145,0.877,6,4C37.047,13.64,35.387,13,34,13z"/></svg>