<?xml version="1.0" encoding="utf-8"?>
<!-- Generator: Adobe Illustrator 22.0.1, SVG Export Plug-In . SVG Version: 6.00 Build 0)  -->
<svg version="1.1" id="Layer_1" xmlns="http://www.w3.org/2000/svg" xmlns:xlink="http://www.w3.org/1999/xlink" x="0px" y="0px"
	 viewBox="0 0 128 128" style="enable-background:new 0 0 128 128;" xml:space="preserve">
<style type="text/css">
	.st0{fill:none;stroke:#000000;stroke-width:6;stroke-linecap:round;stroke-linejoin:round;stroke-miterlimit:10;}
</style>
<g>
</g>
<g>
	<g>
		<path d="M101.5,110.7C93.1,98.4,79,91,64,91c-15,0-29.1,7.4-37.5,19.7c-1.7,2.5-2.5,5.4-2.5,8.4v0c0,1.6,1.4,2.9,3,2.9h74
			c1.6,0,3-1.3,3-2.9l0,0C104.1,116.1,103.2,113.1,101.5,110.7z"/>
		<circle cx="64" cy="60" r="23"/>
		<g>
			<g>
				<path d="M35,60c0-3.6,0.7-7.1,1.9-10.3c0.5-1.3-0.5-2.7-1.9-2.7c-0.2,0-0.4,0-0.5,0C23,47.9,14.2,58.2,15.7,70.1
					c1.2,9,8.4,16.3,17.4,17.6c4.4,0.6,8.6-0.2,12.2-2c1.2-0.6,1.4-2.4,0.4-3.3C39.1,77.1,35,69,35,60z"/>
				<path d="M93,47c-1.4,0-2.4,1.4-1.9,2.7C92.3,52.9,93,56.4,93,60c0,9-4.1,17.1-10.6,22.4c-1.1,0.9-0.9,2.6,0.4,3.3
					c3.6,1.8,7.7,2.7,12.2,2c9.1-1.3,16.3-8.6,17.4-17.7c1.5-12-7.6-22.4-19.2-23C93.1,47,93.1,47,93,47z"/>
			</g>
		</g>
	</g>
</g>
<circle cx="64" cy="60" r="23"/>
<g>
	<path d="M20.6,108.6c2.4-3.8,5.3-7.1,8.5-10.1c1.5-1.4,0.2-3.9-1.8-3.4c-9.9,2.2-18.7,8-24.5,16.4c0,0,0,0,0,0
		C1.6,113.5,3,116,5.3,116h10.4c1.3,0,2.5-0.9,2.8-2.2c0.4-1.8,1.1-3.5,2.1-5.1C20.6,108.7,20.6,108.7,20.6,108.6z"/>
	<path d="M100.6,95.1c-2-0.4-3.3,2.1-1.8,3.4c2.9,2.7,5.6,5.7,7.9,9.1c0.2,0.3,0.5,0.7,0.8,1.2c0.9,1.6,1.6,3.2,2.1,5
		c0.3,1.3,1.5,2.1,2.8,2.1h10.4c2.3,0,3.7-2.5,2.4-4.4c0,0,0,0,0,0C119.3,103.1,110.5,97.3,100.6,95.1z"/>
</g>
</svg>