<?xml version="1.0" encoding="iso-8859-1"?><!-- Generator: Adobe Illustrator 21.1.0, SVG Export Plug-In . SVG Version: 6.00 Build 0)  --><svg xmlns="http://www.w3.org/2000/svg" xmlns:xlink="http://www.w3.org/1999/xlink" viewBox="0 0 50 50" width="500px" height="500px"><path style="fill:none;stroke:#000000;stroke-width:2;stroke-linecap:round;stroke-miterlimit:10;" d="M28,32.5v-5c2.4-1.6,4-4.4,4-7.5c0-0.5,0-5.5,0-6c0-5-4-9-9-9s-9,4-9,9c0,0.5,0,5.5,0,6c0,3.1,1.6,5.9,4,7.5v5C18,36,4,36.1,4,46h38C42,36,28,36.1,28,32.5z"/><g><path d="M42.002,4.914c0-1.121,0.793-1.914,1.9-1.914s1.887,0.793,1.887,1.914c0,1.107-0.779,1.9-1.887,1.9S42.002,6.021,42.002,4.914z"/></g><polygon points="45,21 45,9 41,9 41,11 43,11 43,21 41,21 41,23 47,23 47,21 "/></svg>