<?xml version="1.0" encoding="iso-8859-1"?>
<!-- Generator: Adobe Illustrator 24.0.2, SVG Export Plug-In . SVG Version: 6.00 Build 0)  -->
<svg version="1.1" id="Layer_1_1_" xmlns="http://www.w3.org/2000/svg" xmlns:xlink="http://www.w3.org/1999/xlink" x="0px" y="0px"
	 viewBox="0 0 48 48" style="enable-background:new 0 0 48 48;" xml:space="preserve">
<path d="M36.5,14h-0.541C35.449,7.85,30.28,3,24,3S12.551,7.85,12.041,14H11.5C6.813,14,3,17.813,3,22.5S6.813,31,11.5,31h12.26
	c-0.698-0.869-1.211-1.888-1.498-3H11.5C8.468,28,6,25.532,6,22.5S8.468,17,11.5,17h2.025c0.41,0,0.802-0.168,1.085-0.465
	c0.283-0.296,0.433-0.695,0.413-1.105l-0.013-0.21C15.006,15.146,15,15.074,15,15c0-4.963,4.037-9,9-9s9,4.037,9,9
	c0,0.074-0.006,0.146-0.011,0.22l-0.013,0.21c-0.02,0.41,0.13,0.81,0.413,1.105C33.673,16.832,34.064,17,34.475,17H36.5
	c3.032,0,5.5,2.468,5.5,5.5c0,2.592-1.805,4.765-4.222,5.344C37.501,29.017,36.97,30.09,36.24,31h0.26c4.687,0,8.5-3.813,8.5-8.5
	S41.187,14,36.5,14z"/>
<circle style="fill:none;stroke:#000000;stroke-width:3;stroke-miterlimit:5;" cx="30" cy="26" r="4.5"/>
<path style="fill:none;stroke:#000000;stroke-width:3;stroke-miterlimit:5;" d="M37.5,40c0,2.485-3.358,4.5-7.5,4.5
	s-7.5-2.015-7.5-4.5v-2.5c0-1.105,0.895-2,2-2h11c1.105,0,2,0.895,2,2V40z"/>
</svg>