<?xml version="1.0" encoding="iso-8859-1"?>
<!-- Generator: Adobe Illustrator 25.4.1, SVG Export Plug-In . SVG Version: 6.00 Build 0)  -->
<svg version="1.1" baseProfile="basic" id="Layer_1"
	 xmlns="http://www.w3.org/2000/svg" xmlns:xlink="http://www.w3.org/1999/xlink" x="0px" y="0px" viewBox="0 0 100 100"
	 xml:space="preserve">
<path style="fill-rule:evenodd;clip-rule:evenodd;" d="M51.328,43.626c-0.021,0.426-0.385,0.757-0.813,0.734
	c-0.426-0.021-0.757-0.385-0.734-0.813c0.021-0.426,0.385-0.755,0.813-0.734C51.02,42.835,51.349,43.199,51.328,43.626"/>
<path style="fill-rule:evenodd;clip-rule:evenodd;" d="M46.653,40.01c-0.021,0.427-0.385,0.757-0.813,0.734
	c-0.427-0.021-0.756-0.385-0.734-0.813c0.021-0.426,0.385-0.756,0.813-0.734C46.345,39.219,46.674,39.583,46.653,40.01"/>
<path style="fill-rule:evenodd;clip-rule:evenodd;" d="M47.07,44.403c-0.021,0.427-0.385,0.757-0.813,0.734
	c-0.426-0.021-0.757-0.385-0.734-0.813c0.021-0.426,0.385-0.756,0.813-0.734C46.762,43.613,47.091,43.976,47.07,44.403"/>
<path style="fill:none;stroke:#000000;stroke-width:2;stroke-linecap:round;stroke-linejoin:round;stroke-miterlimit:10;" d="
	M43.084,46.23c0,0-2.637-1.472-2.332,1.712c0.305,3.184,1.871,4.178,2.852,2.944c0.102,1.253,0.41,1.939,0.492,3.248
	c0.082,1.308,2.087,6.078,6.241,5.99c3.712-0.078,6.206-4.154,6.62-5.708c0.414-1.552,1.231-3.442,1.231-3.442
	s0.953,1.095,1.82,0.26c0.867-0.835,1.75-5.001,0.75-5.358c-1.423-0.508-2.055,0.776-2.055,0.776"/>
<path style="fill:none;stroke:#000000;stroke-width:2;stroke-linecap:round;stroke-linejoin:round;stroke-miterlimit:10;" d="
	M42.951,45.874c0,0-2.957-10.752,7.627-11.334c10.164-0.559,8.878,8.578,8.328,11.676"/>
<path style="fill:none;stroke:#000000;stroke-width:2;stroke-linecap:round;stroke-linejoin:round;stroke-miterlimit:10;" d="
	M44.809,56.668c0,0,0.048,2.901-2.648,4.182c-2.695,1.282-7.026,3.652-7.026,3.652 M66.685,65.064c0,0-8.498-3.558-9.365-5.258
	c-0.867-1.701-1.028-3.452-1.028-3.452"/>
<path style="fill:none;stroke:#000000;stroke-width:4;stroke-linecap:round;stroke-linejoin:round;stroke-miterlimit:10;" d="
	M50.727,28.39c-12.676-0.634-21.541,9.957-22.185,22.185c-0.634,12.043,9.956,21.573,22.185,22.185
	c12.677,0.633,21.551-10.142,22.185-22.185C73.556,38.347,62.955,29.001,50.727,28.39z"/>
<line style="fill:none;stroke:#000000;stroke-width:2;stroke-linecap:round;stroke-linejoin:round;stroke-miterlimit:10;" x1="40.273" y1="68.426" x2="42.236" y2="66.704"/>
<line style="fill:none;stroke:#000000;stroke-width:2;stroke-linecap:round;stroke-linejoin:round;stroke-miterlimit:10;" x1="44.399" y1="70.483" x2="46.171" y2="66.794"/>
<line style="fill:none;stroke:#000000;stroke-width:2;stroke-linecap:round;stroke-linejoin:round;stroke-miterlimit:10;" x1="49.716" y1="71.408" x2="50.06" y2="68.963"/>
<line style="fill:none;stroke:#000000;stroke-width:2;stroke-linecap:round;stroke-linejoin:round;stroke-miterlimit:10;" x1="54.269" y1="35.012" x2="52.496" y2="37.357"/>
<line style="fill:none;stroke:#000000;stroke-width:2;stroke-linecap:round;stroke-linejoin:round;stroke-miterlimit:10;" x1="57.375" y1="37.086" x2="55.591" y2="38.789"/>
<line style="fill:none;stroke:#000000;stroke-width:2;stroke-linecap:round;stroke-linejoin:round;stroke-miterlimit:10;" x1="71.78" y1="45.625" x2="69.242" y2="47.729"/>
<line style="fill:none;stroke:#000000;stroke-width:2;stroke-linecap:round;stroke-linejoin:round;stroke-miterlimit:10;" x1="72.284" y1="50.175" x2="68.597" y2="51.771"/>
<line style="fill:none;stroke:#000000;stroke-width:2;stroke-linecap:round;stroke-linejoin:round;stroke-miterlimit:10;" x1="67.15" y1="55.52" x2="70.671" y2="56.64"/>
<line style="fill:none;stroke:#000000;stroke-width:2;stroke-linecap:round;stroke-linejoin:round;stroke-miterlimit:10;" x1="29.911" y1="51.224" x2="32.483" y2="52.249"/>
<line style="fill:none;stroke:#000000;stroke-width:2;stroke-linecap:round;stroke-linejoin:round;stroke-miterlimit:10;" x1="30.521" y1="48.501" x2="32.899" y2="48.019"/>
<line style="fill:none;stroke:#000000;stroke-width:2;stroke-linecap:round;stroke-linejoin:round;stroke-miterlimit:10;" x1="59.251" y1="71.77" x2="60.846" y2="75.251"/>
<line style="fill:none;stroke:#000000;stroke-width:2;stroke-linecap:round;stroke-linejoin:round;stroke-miterlimit:10;" x1="62.859" y1="70.195" x2="65.32" y2="72.824"/>
<line style="fill:none;stroke:#000000;stroke-width:2;stroke-linecap:round;stroke-linejoin:round;stroke-miterlimit:10;" x1="29.947" y1="43.586" x2="26.125" y2="41.565"/>
<line style="fill:none;stroke:#000000;stroke-width:2;stroke-linecap:round;stroke-linejoin:round;stroke-miterlimit:10;" x1="30.851" y1="40.579" x2="27.603" y2="36.712"/>
<line style="fill:none;stroke:#000000;stroke-width:2;stroke-linecap:round;stroke-linejoin:round;stroke-miterlimit:10;" x1="33.711" y1="36.054" x2="31.639" y2="31.636"/>
<path style="fill:none;stroke:#000000;stroke-width:4;stroke-linecap:round;stroke-linejoin:round;stroke-miterlimit:10;" d="
	M83.912,77.469c0,0-8.604,2.443-5.062,9.1c3.542,6.655,12.226,2.619,12.76-1.254C92.145,81.439,83.912,77.469,83.912,77.469z"/>
<line style="fill:none;stroke:#000000;stroke-width:2;stroke-linecap:round;stroke-linejoin:round;stroke-miterlimit:10;" x1="43.149" y1="29.176" x2="40.925" y2="16.374"/>
<line style="fill:none;stroke:#000000;stroke-width:2;stroke-linecap:round;stroke-linejoin:round;stroke-miterlimit:10;" x1="68.01" y1="37.287" x2="74.242" y2="33.177"/>
<line style="fill:none;stroke:#000000;stroke-width:2;stroke-linecap:round;stroke-linejoin:round;stroke-miterlimit:10;" x1="29.172" y1="59.765" x2="18.037" y2="63.022"/>
<path style="fill:none;stroke:#000000;stroke-width:4;stroke-linecap:round;stroke-linejoin:round;stroke-miterlimit:10;" d="
	M36.671,8.84c0,0-2.626,7.004,1.937,7.252c4.564,0.246,6.728-2.508,4.391-6.048C40.661,6.506,36.671,8.84,36.671,8.84z"/>
<path style="fill:none;stroke:#000000;stroke-width:4;stroke-linecap:round;stroke-linejoin:round;stroke-miterlimit:10;" d="
	M75.382,32.699c0,0-1.797-4.324,0.859-7.27c2.656-2.947,7.478-0.02,7.397,4.731C83.554,34.913,75.382,32.699,75.382,32.699z"/>
<path style="fill:none;stroke:#000000;stroke-width:4;stroke-linecap:round;stroke-linejoin:round;stroke-miterlimit:10;" d="
	M16.962,61.269c0,0-8.455-4.195-9.57,0.951c-1.115,5.148-0.448,9.03,5.441,8.521C18.724,70.232,16.962,61.269,16.962,61.269z"/>
<line style="fill:none;stroke:#000000;stroke-width:2;stroke-linecap:round;stroke-linejoin:round;stroke-miterlimit:10;" x1="46.722" y1="72.388" x2="45.509" y2="81.427"/>
<path style="fill:none;stroke:#000000;stroke-width:4;stroke-linecap:round;stroke-linejoin:round;stroke-miterlimit:10;" d="
	M44.896,82.418c0,0-4.7-0.794-4.502,3.86c0.197,4.651,8.103,4.183,8.563-0.128C49.417,81.839,44.896,82.418,44.896,82.418z"/>
<line style="fill:none;stroke:#000000;stroke-width:2;stroke-linecap:round;stroke-linejoin:round;stroke-miterlimit:10;" x1="79.377" y1="79.054" x2="66.572" y2="66.907"/>
<line style="fill:none;stroke:#000000;stroke-width:2;stroke-linecap:round;stroke-linejoin:round;stroke-miterlimit:10;" x1="46.889" y1="28.049" x2="47.921" y2="24.703"/>
<line style="fill:none;stroke:#000000;stroke-width:2;stroke-linecap:round;stroke-linejoin:round;stroke-miterlimit:10;" x1="50.44" y1="28.039" x2="53.727" y2="23.843"/>
<line style="fill:none;stroke:#000000;stroke-width:2;stroke-linecap:round;stroke-linejoin:round;stroke-miterlimit:10;" x1="55.468" y1="28.503" x2="57.987" y2="26.318"/>
<line style="fill:none;stroke:#000000;stroke-width:2;stroke-linecap:round;stroke-linejoin:round;stroke-miterlimit:10;" x1="71.078" y1="40.125" x2="74.102" y2="38.481"/>
<line style="fill:none;stroke:#000000;stroke-width:2;stroke-linecap:round;stroke-linejoin:round;stroke-miterlimit:10;" x1="71.321" y1="61.87" x2="73.782" y2="63.91"/>
<line style="fill:none;stroke:#000000;stroke-width:2;stroke-linecap:round;stroke-linejoin:round;stroke-miterlimit:10;" x1="55.497" y1="73.501" x2="56.178" y2="75.957"/>
</svg>