<?xml version="1.0" encoding="utf-8"?><!-- Generator: Adobe Illustrator 15.0.0, SVG Export Plug-In . SVG Version: 6.00 Build 0)  --><!DOCTYPE svg PUBLIC "-//W3C//DTD SVG 1.1//EN" "http://www.w3.org/Graphics/SVG/1.1/DTD/svg11.dtd"><svg xmlns="http://www.w3.org/2000/svg" xmlns:xlink="http://www.w3.org/1999/xlink" viewBox="0 0 50 50" width="50px" height="50px"><path d="M46.215,7.847C38.813,6.221,34.44,3.922,31.249,2.244C28.771,0.941,26.981,0,25,0s-3.771,0.941-6.249,2.244c-3.192,1.678-7.563,3.977-14.965,5.603L3,8.019v0.804c0,30.464,21.365,40.679,21.581,40.778l0.44,0.203l0.432-0.22C25.669,49.475,47,38.272,47,8.823V8.019L46.215,7.847z M25,33c-5.523,0-10-4.477-10-10c0-5.523,4.477-10,10-10c5.523,0,10,4.477,10,10C35,28.523,30.523,33,25,33z"/><g><path d="M20.001,29.236C21.372,30.337,23.109,31,25,31c1.893,0,3.631-0.664,5.002-1.767c-1.292-0.539-2.598-0.906-2.947-1.847c-0.061-0.672-0.037-1.14-0.037-1.754c0.305-0.16,0.85-1.177,0.941-2.037c0.239-0.02,0.616-0.253,0.727-1.174c0.06-0.495-0.177-0.773-0.32-0.861c0.389-1.17,1.197-4.791-1.495-5.166c-0.277-0.487-0.987-0.733-1.909-0.733c-3.689,0.068-4.134,2.786-3.326,5.898c-0.144,0.088-0.38,0.366-0.321,0.861c0.111,0.921,0.487,1.155,0.727,1.174c0.092,0.859,0.658,1.877,0.963,2.037c0,0.614,0.023,1.082-0.038,1.754C22.616,28.328,21.301,28.695,20.001,29.236z"/></g></svg>