<?xml version="1.0" encoding="iso-8859-1"?>
<!-- Generator: Adobe Illustrator 24.0.2, SVG Export Plug-In . SVG Version: 6.00 Build 0)  -->
<svg version="1.1" id="Layer_1_1_" xmlns="http://www.w3.org/2000/svg" xmlns:xlink="http://www.w3.org/1999/xlink" x="0px" y="0px"
	 viewBox="0 0 48 48" style="enable-background:new 0 0 48 48;" xml:space="preserve">
<circle style="fill:none;stroke:#000000;stroke-width:3;stroke-miterlimit:5;" cx="17" cy="12" r="8.5"/>
<path d="M22.414,38.202C20.717,38.736,18.837,39,17,39c-5.539,0-11.5-2.347-11.5-7.5v-1.521C5.5,29.448,5.831,29,6.223,29h17.252
	c0.575-1.103,1.304-2.111,2.158-3H6.223C4.17,26,2.5,27.785,2.5,29.979V31.5c0,3.281,1.696,6.132,4.776,8.027
	C9.867,41.122,13.32,42,17,42c2.19,0,4.432-0.324,6.479-0.99C23.019,40.129,22.664,39.187,22.414,38.202z"/>
<path d="M35,24c-6.075,0-11,4.925-11,11s4.925,11,11,11s11-4.925,11-11S41.075,24,35,24z M40.707,39.293
	c0.391,0.391,0.391,1.023,0,1.414C40.512,40.902,40.256,41,40,41s-0.512-0.098-0.707-0.293L35,36.414l-4.293,4.293
	C30.512,40.902,30.256,41,30,41s-0.512-0.098-0.707-0.293c-0.391-0.391-0.391-1.023,0-1.414L33.586,35l-4.293-4.293
	c-0.391-0.391-0.391-1.023,0-1.414s1.023-0.391,1.414,0L35,33.586l4.293-4.293c0.391-0.391,1.023-0.391,1.414,0s0.391,1.023,0,1.414
	L36.414,35L40.707,39.293z"/>
</svg>