<?xml version="1.0" encoding="iso-8859-1"?>
<!-- Generator: Adobe Illustrator 23.0.6, SVG Export Plug-In . SVG Version: 6.00 Build 0)  -->
<svg version="1.1" xmlns="http://www.w3.org/2000/svg" xmlns:xlink="http://www.w3.org/1999/xlink" x="0px" y="0px"
	 viewBox="0 0 80 80" style="enable-background:new 0 0 80 80;" xml:space="preserve">
<g id="&#x421;&#x43B;&#x43E;&#x439;_1">
</g>
<g id="&#x421;&#x43B;&#x43E;&#x439;_2">
	<circle style="fill:none;stroke:#000000;stroke-width:2;stroke-linecap:round;stroke-linejoin:round;" cx="40" cy="24" r="6"/>
	<path style="fill:none;stroke:#000000;stroke-width:2;stroke-linecap:round;stroke-linejoin:round;" d="M40,69c0,2.194-1.806,4-4,4
		s-4-1.806-4-4c0-4,0-8,0-12c0-6,0-9,0-15c-2.899-3.04-5.798-6.081-8.696-9.121c-0.37-0.325-0.664-0.732-0.86-1.189l-3.185-8.142
		c-0.695-1.655,0.054-3.572,1.672-4.283c1.618-0.711,3.493,0.055,4.188,1.71l2.882,7.442C30.001,30.611,32,32.806,34,35
		c4.333,0,7.667,0,12,0c2-2.194,3.999-4.389,5.999-6.583l2.882-7.442c0.695-1.655,2.57-2.42,4.188-1.71
		c1.618,0.71,2.367,2.628,1.672,4.283l-3.184,8.142c-0.196,0.457-0.49,0.863-0.86,1.189C53.798,35.919,50.899,38.96,48,42
		c0,6,0,9,0,15c0,4,0,8,0,12c0,2.194-1.806,4-4,4S40,71.194,40,69"/>
	<path style="fill:none;stroke:#000000;stroke-width:2;stroke-miterlimit:10;" d="M63.723,6.749
		c-0.923-1.041-2.516-1.136-3.556-0.212c-0.075,0.067-0.146,0.137-0.212,0.212c-1.041,0.923-1.136,2.516-0.212,3.556
		c0.067,0.075,0.137,0.146,0.212,0.212c2.265,2.265,4.334-3.197,6.594-0.943c1.041,0.923,1.136,2.516,0.212,3.556
		c-0.067,0.075-0.137,0.146-0.212,0.212c-0.923,1.041-2.516,1.136-3.556,0.212c-0.075-0.067-0.146-0.137-0.212-0.212"/>
	<line style="fill:none;stroke:#000000;stroke-width:2;stroke-miterlimit:10;" x1="59.954" y1="6.749" x2="58.07" y2="4.865"/>
	<line style="fill:none;stroke:#000000;stroke-width:2;stroke-miterlimit:10;" x1="66.548" y1="13.343" x2="68.432" y2="15.227"/>
	<path style="fill:none;stroke:#000000;stroke-width:2;stroke-miterlimit:10;" d="M40.74,11.156
		c0.664,1.221,2.192,1.673,3.413,1.009c0.089-0.049,0.176-0.103,0.259-0.162c1.221-0.665,1.672-2.194,1.007-3.415
		c-0.048-0.089-0.102-0.174-0.16-0.256c-1.695-2.711-4.942,2.146-6.637-0.565c-0.806-1.133-0.542-2.705,0.591-3.511
		c0.082-0.058,0.168-0.112,0.256-0.16c1.132-0.807,2.703-0.543,3.51,0.589c0.059,0.083,0.113,0.169,0.162,0.259"/>
	<line style="fill:none;stroke:#000000;stroke-width:2;stroke-miterlimit:10;" x1="44.411" y1="12.003" x2="45.823" y2="14.263"/>
	<line style="fill:none;stroke:#000000;stroke-width:2;stroke-miterlimit:10;" x1="39.468" y1="4.095" x2="38.056" y2="1.836"/>
	<path style="fill:none;stroke:#000000;stroke-width:2;stroke-miterlimit:10;" d="M19.589,11.518
		c1.041-0.923,1.136-2.516,0.212-3.556c-0.067-0.075-0.137-0.146-0.212-0.212c-0.923-1.041-2.516-1.136-3.556-0.212
		c-0.075,0.067-0.146,0.137-0.212,0.212c-2.265,2.265,3.204,4.334,0.943,6.594c-0.923,1.041-2.516,1.136-3.556,0.212
		c-0.075-0.067-0.146-0.137-0.212-0.212c-1.041-0.923-1.136-2.516-0.212-3.556c0.067-0.075,0.137-0.146,0.212-0.212"/>
	<line style="fill:none;stroke:#000000;stroke-width:2;stroke-miterlimit:10;" x1="19.589" y1="7.749" x2="21.473" y2="5.865"/>
	<line style="fill:none;stroke:#000000;stroke-width:2;stroke-miterlimit:10;" x1="12.995" y1="14.343" x2="11.111" y2="16.227"/>
	<g>
		<path d="M40,54c-0.26,0-0.52-0.11-0.71-0.29c-0.09-0.1-0.16-0.21-0.21-0.33C39.03,53.26,39,53.13,39,53
			c0-0.13,0.03-0.26,0.08-0.38c0.05-0.12,0.12-0.23,0.21-0.33c0.38-0.37,1.05-0.37,1.42,0c0.09,0.1,0.16,0.21,0.21,0.33
			C40.98,52.74,41,52.87,41,53c0,0.13-0.02,0.26-0.08,0.38c-0.05,0.12-0.12,0.23-0.21,0.33C40.52,53.89,40.26,54,40,54z"/>
		<path d="M39,65c0-0.55,0.45-1,1-1l0,0c0.55,0,1,0.45,1,1l0,0c0,0.55-0.45,1-1,1l0,0C39.45,66,39,65.55,39,65z M39,61
			c0-0.55,0.45-1,1-1l0,0c0.55,0,1,0.45,1,1l0,0c0,0.55-0.45,1-1,1l0,0C39.45,62,39,61.55,39,61z M39,57c0-0.55,0.45-1,1-1l0,0
			c0.55,0,1,0.45,1,1l0,0c0,0.55-0.45,1-1,1l0,0C39.45,58,39,57.55,39,57z"/>
		<path d="M40,70c-0.26,0-0.52-0.11-0.71-0.29c-0.09-0.1-0.16-0.2-0.21-0.33C39.03,69.26,39,69.13,39,69c0-0.07,0.01-0.13,0.02-0.2
			c0.01-0.06,0.03-0.12,0.06-0.18c0.02-0.06,0.05-0.12,0.09-0.18c0.04-0.05,0.08-0.1,0.12-0.15c0.28-0.28,0.73-0.36,1.09-0.21
			c0.13,0.05,0.23,0.12,0.33,0.21c0.04,0.05,0.08,0.1,0.12,0.15c0.04,0.06,0.07,0.12,0.09,0.18c0.03,0.06,0.05,0.12,0.06,0.18
			C40.99,68.87,41,68.93,41,69c0,0.26-0.11,0.52-0.29,0.71c-0.1,0.09-0.21,0.16-0.33,0.21C40.26,69.97,40.13,70,40,70z"/>
	</g>
</g>
</svg>