<?xml version="1.0" encoding="utf-8"?><!--  Generator: Adobe Illustrator 15.0.0, SVG Export Plug-In . SVG Version: 6.00 Build 0)  --><!DOCTYPE svg PUBLIC "-//W3C//DTD SVG 1.1//EN" "http://www.w3.org/Graphics/SVG/1.1/DTD/svg11.dtd"><svg xmlns="http://www.w3.org/2000/svg" xmlns:xlink="http://www.w3.org/1999/xlink" viewBox="0 0 26 26" width="208px" height="208px"><path fill="#000000" d="M19.5,13.188c-3.486,0-6.313,2.826-6.313,6.313s2.826,6.313,6.313,6.313s6.313-2.826,6.313-6.313  S22.986,13.188,19.5,13.188z M22.983,20.398h-2.61v2.593h-1.758v-2.593h-2.609v-1.793h2.609v-2.592h1.758v2.592h2.61V20.398z"/><g><path fill="#000000" d="M11.688,19.5c0-1.791,0.609-3.438,1.624-4.756c-0.151-0.352-0.21-0.891,0.063-1.734h-0.008   c1.555-1.625,2.586-4.242,2.586-6.818c0-3.959-2.438-6.035-5.452-6.035c-3.017,0-5.438,2.076-5.438,6.035   c0,2.586,1.024,5.213,2.588,6.836c0.609,1.623-0.48,2.225-0.709,2.311c-3.156,1.158-6.86,3.271-6.86,5.357c0,0.563,0,0.223,0,0.781   c0,2.842,5.427,3.488,10.45,3.488c1.102,0,2.216-0.033,3.289-0.111C12.502,23.454,11.688,21.574,11.688,19.5z"/></g></svg>