<?xml version="1.0" encoding="iso-8859-1"?><!-- Generator: Adobe Illustrator 22.1.0, SVG Export Plug-In . SVG Version: 6.00 Build 0)  --><svg xmlns="http://www.w3.org/2000/svg" xmlns:xlink="http://www.w3.org/1999/xlink" viewBox="0 0 24 24" width="384px" height="384px"><g id="Outlined"><circle style="fill:none;stroke:#000000;stroke-width:2;stroke-miterlimit:10;" cx="7" cy="7" r="2"/><path style="fill:none;stroke:#000000;stroke-width:2;stroke-miterlimit:10;" d="M12,17c0-0.157,0-1.624,0-1.783C12,13.909,9.731,13,7,13s-5,0.909-5,2.217C2,15.376,2,16.843,2,17H12z"/><circle style="fill:none;stroke:#000000;stroke-width:2;stroke-miterlimit:10;" cx="17" cy="7" r="2"/><line style="fill:none;stroke:#000000;stroke-width:2;stroke-miterlimit:10;" x1="20" y1="16" x2="20" y2="24"/><line style="fill:none;stroke:#000000;stroke-width:2;stroke-miterlimit:10;" x1="16" y1="20" x2="24" y2="20"/><path d="M13,16v-0.783C13,14.864,14.401,14,17,14h5.614c-0.224-0.339-0.567-0.691-1.11-1.008C20.424,12.362,18.782,12,17,12c-3.532,0-6,1.323-6,3.217V18h6v-1.333V16H13z"/></g></svg>