<?xml version="1.0" encoding="utf-8"?><!-- Generator: Adobe Illustrator 17.0.0, SVG Export Plug-In . SVG Version: 6.00 Build 0)  --><!DOCTYPE svg PUBLIC "-//W3C//DTD SVG 1.1//EN" "http://www.w3.org/Graphics/SVG/1.1/DTD/svg11.dtd"><svg xmlns="http://www.w3.org/2000/svg" xmlns:xlink="http://www.w3.org/1999/xlink" viewBox="0 0 26 26" width="208px" height="208px"><g><rect x="20.922" y="20.29" transform="matrix(0.7071 -0.7071 0.7071 0.7071 -8.9212 21.5369)" fill="#000000" width="1.229" height="2.495"/><path fill="#000000" d="M25.639,23.784c0.384,0.384,0.384,1.007,0,1.391l-0.464,0.463c-0.384,0.384-1.007,0.384-1.391,0   l-2.485-2.485c-0.384-0.384-0.384-1.007-0.001-1.391l0.464-0.464c0.384-0.384,1.008-0.384,1.391,0L25.639,23.784z"/><path fill="#000000" d="M17.5,12c-3.038,0-5.5,2.462-5.5,5.5s2.462,5.5,5.5,5.5s5.5-2.462,5.5-5.5S20.538,12,17.5,12z M17.5,21.5   c-2.21,0-4-1.79-4-4s1.79-4,4-4s4,1.79,4,4S19.71,21.5,17.5,21.5z"/></g><path fill="#000000" d="M11,17.5c0-1.619,0.596-3.097,1.575-4.235c0.022-0.23,0.064-0.482,0.163-0.787H12.73  c1.49-1.558,2.628-4.067,2.628-6.535c0-3.797-2.486-5.786-5.374-5.786c-2.89,0-5.362,1.99-5.362,5.786  c0,2.479,1.132,4.997,2.631,6.552c0.584,1.556-0.46,2.134-0.679,2.215C3.549,15.82,0,17.846,0,19.845c0,0.54,0,0.213,0,0.749  c0,2.724,5.2,3.344,10.012,3.344c1.804,0,3.652-0.087,5.259-0.338C12.781,22.689,11,20.306,11,17.5z"/></svg>