<?xml version="1.0" encoding="iso-8859-1"?>
<!-- Generator: Adobe Illustrator 27.0.0, SVG Export Plug-In . SVG Version: 6.00 Build 0)  -->
<svg version="1.1" baseProfile="basic" xmlns="http://www.w3.org/2000/svg" xmlns:xlink="http://www.w3.org/1999/xlink" x="0px"
	 y="0px" viewBox="0 0 64 64" xml:space="preserve">
<g id="Layer_1">
</g>
<g id="Layer_2">
</g>
<g id="Layer_3">
</g>
<g id="Layer_4">
	<path d="M3,26h16l-5.864-5.864c-0.229-0.229-0.43-0.43-0.616-0.616C16.733,12.62,24.334,8,33,8c13.23,0,24,10.77,24,24
		c0,0.012-0.001,0.024-0.001,0.037h4C60.999,32.024,61,32.012,61,32C61,16.56,48.44,4,33,4h-3c-7.48,0-14.51,2.92-19.79,8.2
		c-0.848,0.843-1.629,1.734-2.348,2.662L3,10V26z"/>
	<path d="M52.864,43.864c0.229,0.229,0.43,0.43,0.616,0.616C49.267,51.38,41.666,56,33,56c-0.559,0-1.112-0.026-1.662-0.064v0
		c-5.051-0.348-9.678-2.266-13.396-5.268c-0.02-0.017-0.04-0.034-0.06-0.051c-0.264-0.214-0.524-0.434-0.778-0.659
		c-0.055-0.048-0.106-0.099-0.161-0.148c-0.217-0.195-0.432-0.392-0.642-0.595c-0.178-0.173-0.349-0.351-0.522-0.529
		c-0.082-0.085-0.168-0.167-0.249-0.253c-3.86-4.104-6.296-9.563-6.509-15.576c0,0,0,0-0.001,0C9.012,32.591,9.001,32.327,9,32.06H2
		c0.02,7.46,2.92,14.46,8.2,19.73C15.49,57.08,22.52,60,30,60h1.498c-0.001-0.014-0.001-0.028-0.002-0.042
		C31.994,59.984,32.495,60,33,60h3c7.48,0,14.51-2.92,19.79-8.2c0.848-0.843,1.629-1.734,2.348-2.662L63,54V38H47L52.864,43.864z"/>
	<circle cx="33" cy="21" r="7"/>
	<polygon points="43,44 43,31 23,31 23,44 27,44 27,35 39,35 39,44 	"/>
</g>
</svg>