<?xml version="1.0" encoding="iso-8859-1"?>
<!-- Generator: Adobe Illustrator 24.1.2, SVG Export Plug-In . SVG Version: 6.00 Build 0)  -->
<svg version="1.1" baseProfile="basic" id="&#x421;&#x43B;&#x43E;&#x439;_1"
	 xmlns="http://www.w3.org/2000/svg" xmlns:xlink="http://www.w3.org/1999/xlink" x="0px" y="0px" viewBox="0 0 24 24"
	 xml:space="preserve">
<path marker-end="none" marker-start="none" d="M11.997,10.999c2.207,0,4-1.795,4-4v-1c0-2.205-1.793-4-4-4c-2.205,0-4,1.795-4,4v1
	C7.997,9.205,9.792,10.999,11.997,10.999z"/>
<path marker-end="none" marker-start="none" d="M15.632,19.409c-0.416-0.74-0.635-1.559-0.635-2.409
	c0-0.888,0.252-1.709,0.659-2.432c-0.476-0.209-0.983-0.396-1.523-0.549c-0.044-0.013-0.089-0.019-0.136-0.019h-4
	c-0.045,0-0.092,0.005-0.137,0.019c-4.429,1.259-6.689,4.717-6.783,4.863c-0.052,0.081-0.08,0.175-0.08,0.271v1.348
	c0,0.275,0.224,0.499,0.5,0.499H14.13L15.632,19.409z"/>
<path marker-end="none" marker-start="none" d="M19.997,12.999c-2.207,0-4,1.793-4,4c0,0.956,0.351,1.824,0.913,2.512l-2.637,2.792
	c-0.029,0.031-0.06,0.071-0.08,0.1c-0.329,0.451-0.229,1.071,0.211,1.4c0.449,0.331,1.079,0.231,1.399-0.22l2.28-3.096
	c0.571,0.316,1.216,0.511,1.915,0.511c2.205,0,4-1.793,4-3.999C23.997,14.793,22.202,12.999,19.997,12.999z M19.997,19.999
	c-1.655,0-3-1.347-3-3c0-1.655,1.345-3,3-3c1.653,0,3,1.345,3,3C22.997,18.653,21.65,19.999,19.997,19.999z"/>
<path style="fill:none;stroke:#000000;stroke-width:1;stroke-linecap:round;stroke-linejoin:round;" d="M17.874,14.878l4.243,4.243"
	/>
</svg>