<?xml version="1.0" encoding="iso-8859-1"?>
<!-- Generator: Adobe Illustrator 26.1.0, SVG Export Plug-In . SVG Version: 6.00 Build 0)  -->
<svg version="1.1" baseProfile="basic" id="Layer_1"
	 xmlns="http://www.w3.org/2000/svg" xmlns:xlink="http://www.w3.org/1999/xlink" x="0px" y="0px" viewBox="0 0 24 24"
	 xml:space="preserve">
<rect x="2" y="5" style="fill:none;stroke:#000000;stroke-width:2;stroke-linecap:round;stroke-linejoin:round;stroke-miterlimit:10;" width="20" height="14"/>
<line style="fill:none;stroke:#000000;stroke-width:2;stroke-linecap:round;stroke-linejoin:round;stroke-miterlimit:10;" x1="19" y1="21" x2="18" y2="19"/>
<line style="fill:none;stroke:#000000;stroke-width:2;stroke-linecap:round;stroke-linejoin:round;stroke-miterlimit:10;" x1="5" y1="21" x2="6" y2="19"/>
<path d="M10,11H6c-0.552,0-1-0.448-1-1V9c0-0.552,0.448-1,1-1h4c0.552,0,1,0.448,1,1v1C11,10.552,10.552,11,10,11z"/>
<path d="M18,11h-4c-0.552,0-1-0.448-1-1V9c0-0.552,0.448-1,1-1h4c0.552,0,1,0.448,1,1v1C19,10.552,18.552,11,18,11z"/>
<path d="M10,16H6c-0.552,0-1-0.448-1-1v-1c0-0.552,0.448-1,1-1h4c0.552,0,1,0.448,1,1v1C11,15.552,10.552,16,10,16z"/>
<path d="M18,16h-4c-0.552,0-1-0.448-1-1v-1c0-0.552,0.448-1,1-1h4c0.552,0,1,0.448,1,1v1C19,15.552,18.552,16,18,16z"/>
</svg>