<?xml version="1.0" encoding="utf-8"?><!-- Generator: Adobe Illustrator 18.1.1, SVG Export Plug-In . SVG Version: 6.00 Build 0)  --><svg xmlns="http://www.w3.org/2000/svg" xmlns:xlink="http://www.w3.org/1999/xlink" viewBox="0 0 26 26" width="208px" height="208px"><g><path fill="none" stroke="#000000" stroke-width="2" stroke-linejoin="round" stroke-miterlimit="10" d="M3,22.3c0,0,0-0.9,0-1.1c0-2,2.9-3.9,6.3-4.5c0,0,1-1.1,0.8-2.1C9,13.4,8.7,12,8.7,12c-0.2-0.1-0.4-0.2-0.6-0.5C7.8,11,7.4,9.9,7.5,9.2c0.1-0.8,0.3-0.5,0.3-0.7C7.1,6.8,7.4,4.7,8.3,3.1c1.7-3.1,5.5-2.2,6.1-1c3.6-0.7,3.4,4.9,2.9,6.4c0,0,0.3,0.1,0.3,1.4c-0.1,1.4-1.2,2.3-1.2,2.3c0,0.4-0.5,1.5-1.2,2.5c-0.6,1.3,0.7,2.1,0.7,2.1c3.4,0.6,6.2,2.5,6.2,4.5c0,0.1,0,1.1,0,1.1c0,1.3-4.9,2.7-9.5,2.7C7.9,25,3,24.5,3,22.3z"/></g></svg>