<?xml version="1.0" encoding="iso-8859-1"?>
<!-- Generator: Adobe Illustrator 25.2.3, SVG Export Plug-In . SVG Version: 6.00 Build 0)  -->
<svg version="1.1" baseProfile="basic" id="fluent" xmlns="http://www.w3.org/2000/svg" xmlns:xlink="http://www.w3.org/1999/xlink"
	 x="0px" y="0px" viewBox="0 0 50 50" xml:space="preserve">
<path d="M32.95,6.83c-0.86-1.39-2.17-2.26-3.88-2.6c-0.94-1.19-2.75-1.84-5.18-1.84c-3.68,0.07-6.38,1.19-8.01,3.34
	c-1.93,2.55-2.29,6.41-1.07,11.49c-0.45,0.55-0.78,1.4-0.65,2.51c0.27,2.21,1.12,3.11,1.85,3.47c0.34,1.73,1.28,3.68,2.2,4.59v0.47
	c0.01,1.01,0.02,1.9-0.07,3.03c-0.62,1.41-2.65,2.21-5,3.13C9.23,35.96,4.37,37.87,4,43.94L3.94,45h18.33
	c0.14-0.69,0.32-1.35,0.55-2H6.13c0.75-3.97,4.3-5.36,7.74-6.71c2.74-1.08,5.33-2.1,6.19-4.41l0.06-0.26
	c0.11-1.31,0.1-2.31,0.09-3.38v-0.92l0.02-0.6l-0.54-0.28c-0.44-0.29-1.61-2.31-1.8-4.12L17.8,21.5l-0.82-0.07
	c-0.13-0.01-0.64-0.37-0.83-1.94c-0.1-0.8,0.29-1.09,0.3-1.09l0.63-0.39l-0.19-0.71c-1.21-4.68-1.01-8.26,0.58-10.36
	c1.25-1.63,3.42-2.49,6.44-2.55c1.87,0,3.26,0.47,3.71,1.25l0.24,0.43l0.49,0.07c1.34,0.19,2.28,0.76,2.9,1.74
	c1.53,2.47,0.64,7.04-0.12,9.35l-0.21,0.75l0.63,0.42c0.01,0,0.4,0.29,0.3,1.09c-0.18,1.57-0.7,1.93-0.83,1.94L30.2,21.5l-0.09,0.82
	c-0.2,1.82-1.33,3.83-1.73,4.11l-0.54,0.28v1.54c-0.01,0.66-0.01,1.29,0.01,1.99C28.21,30.08,28.6,30,29,30
	c0.29,0,0.58,0.04,0.85,0.13c-0.02-0.63-0.02-1.22-0.01-1.86v-0.48c0.9-0.92,1.82-2.87,2.16-4.61c0.7-0.36,1.58-1.25,1.84-3.45
	c0.13-1.09-0.19-1.93-0.63-2.48C33.8,15.27,35,10.13,32.95,6.83z"/>
<path style="fill:none;stroke:#000000;stroke-width:2;stroke-linecap:round;stroke-miterlimit:10;" d="M37,36
	c-6.286,0-11.446,4.833-12,11h24C48.446,40.833,43.286,36,37,36z"/>
<line style="fill:none;stroke:#000000;stroke-width:2;stroke-linecap:round;stroke-miterlimit:10;" x1="45" y1="33" x2="42.639" y2="37.25"/>
<line style="fill:none;stroke:#000000;stroke-width:2;stroke-linecap:round;stroke-miterlimit:10;" x1="29" y1="33" x2="31.361" y2="37.25"/>
<circle cx="32" cy="43" r="1.25"/>
<circle cx="42" cy="43" r="1.25"/>
</svg>