<?xml version="1.0" encoding="iso-8859-1"?>
<!-- Generator: Adobe Illustrator 24.1.2, SVG Export Plug-In . SVG Version: 6.00 Build 0)  -->
<svg version="1.1" baseProfile="basic" id="Layer_1"
	 xmlns="http://www.w3.org/2000/svg" xmlns:xlink="http://www.w3.org/1999/xlink" x="0px" y="0px" viewBox="0 0 100 100"
	 xml:space="preserve">
<path style="fill:none;stroke:#000000;stroke-width:2;stroke-linejoin:round;stroke-miterlimit:10;" d="M49.5,89
	c0,0,30.5-12.5,30.5-26c0-9,0-41,0-41s-3,2-10.5,2c-18,0-20-13-20-13s-2,13-20,13C22,24,19,22,19,22s0,32,0,41
	C19,76.5,49.5,89,49.5,89z"/>
<line style="fill:none;stroke:#000000;stroke-linecap:round;stroke-linejoin:round;stroke-miterlimit:10;" x1="24.5" y1="48.5" x2="24.5" y2="50.5"/>
<line style="fill:none;stroke:#000000;stroke-linecap:round;stroke-linejoin:round;stroke-miterlimit:10;" x1="24.5" y1="45.5" x2="24.5" y2="46.5"/>
<path style="fill:none;stroke:#000000;stroke-linecap:round;stroke-linejoin:round;stroke-miterlimit:10;" d="M24.5,52.5V63
	c0,5.997,13.9,15.072,25,20.017"/>
<path style="fill:none;stroke:#000000;stroke-linecap:round;stroke-linejoin:round;stroke-miterlimit:10;" d="M54.5,80.602
	c9.87-5.122,20-12.483,20-17.602v-8.5"/>
<path style="fill:none;stroke:#000000;stroke-linecap:round;stroke-linejoin:round;stroke-miterlimit:10;" d="M74.5,38.5v-10
	c0,0-3.5,2-8.5,2c-7.136,0-11.193-2.12-13.5-4.407"/>
<path style="fill:none;stroke:#000000;stroke-linecap:round;stroke-linejoin:round;stroke-miterlimit:10;" d="M49.5,20.5
	c0,0-1,10-16.5,10c-5,0-8.5-2-8.5-2v4"/>
<path style="fill:none;stroke:#000000;stroke-linecap:round;stroke-linejoin:round;stroke-miterlimit:10;" d="M60.479,67.587
	c-0.34-1.534-1.414-2.802-2.873-3.382L54,63c0,0-1.5-0.412-1.5-1.75c0-0.015,0-0.153,0-0.328c1.549-0.666,2.861-1.777,3.411-2.619
	c0.278-0.425,0.589-1.127,0.589-1.928V56c0.357-0.12,0.693-0.499,0.829-0.935c0.124-0.387,0.552-2.644,0.545-2.823
	c-0.011-0.296-0.112-0.51-0.219-0.652c-0.027-0.036-0.096-0.128-0.165-0.22c0.503-0.78,1.01-1.98,1.01-3.659
	c0-3.207-1.35-5.602-3.191-5.73c-0.399-0.982-1.832-2.48-4.984-2.48c-5.425,0-8.825,4.105-8.825,8.211
	c0,1.72,0.505,2.92,1.008,3.689c-0.073,0.083-0.14,0.16-0.163,0.191c-0.107,0.142-0.208,0.357-0.219,0.652
	c-0.006,0.179,0.421,2.435,0.545,2.823C42.807,55.501,43.143,55.88,43.5,56v0.375c0,0.801,0.311,1.503,0.589,1.928
	c0.552,0.844,1.869,1.958,3.411,2.624c0,0.172,0,0.308,0,0.323C47.5,62.609,46,63,46,63l-3.606,1.205
	c-1.459,0.58-2.534,1.848-2.873,3.382l-0.004,0.004c-0.101,0.468,0.254,0.909,0.731,0.909h19.503c0.478,0,0.832-0.442,0.731-0.909
	L60.479,67.587z"/>
</svg>