<?xml version="1.0" encoding="utf-8"?><!-- Generator: Adobe Illustrator 19.2.0, SVG Export Plug-In . SVG Version: 6.00 Build 0)  --><svg xmlns="http://www.w3.org/2000/svg" xmlns:xlink="http://www.w3.org/1999/xlink" viewBox="0 0 50 50" width="50px" height="50px"><g><path d="M20.2,34.4C20.1,34.6,20,34.8,20,35v5c0,0.3-0.1,0.6-0.4,0.8l-2,1.3L6.7,45c-0.5,0.1-0.8,0.7-0.7,1.2c0.1,0.5,0.7,0.8,1.2,0.7l11-3c0.1,0,0.2-0.1,0.3-0.1l2.2-1.4c0,0,0.1,0,0.1-0.1c0.7-0.6,1.2-1.5,1.2-2.4v-4h0.6C21.8,35.5,21,35,20.2,34.4z"/><path d="M43.3,45l-10.9-3l-2-1.3C30.1,40.6,30,40.3,30,40v-5c0-0.2-0.1-0.4-0.2-0.6C29,35,28.2,35.5,27.4,36H28v4c0,0.9,0.4,1.8,1.2,2.4c0,0,0.1,0,0.1,0.1l2.2,1.4c0.1,0.1,0.2,0.1,0.3,0.1l11,3c0.1,0,0.2,0,0.3,0c0.4,0,0.8-0.3,1-0.7C44.1,45.7,43.8,45.2,43.3,45z"/></g><path d="M23,32c0-0.3,0.6-1,2-1s2,0.8,2,1H23z"/><path d="M32.5,22c-3,0.1-4.2,0.7-4.5,1c0,0.1,0,0.7,0,1c0,0.6,0.5,1.8,1,2h3c0.5-0.1,1-1.4,1-2c0-0.1,0-0.3,0-0.4c0.7-0.6,1-1.6,1-1.6C33.5,22,33,22,32.5,22z M31.5,24c-0.3,0-0.5-0.2-0.5-0.5s0.2-0.5,0.5-0.5s0.5,0.2,0.5,0.5S31.8,24,31.5,24z"/><path d="M17.5,22c-0.4,0-0.9,0-1.5,0c0,0,0.3,1,1,1.6c0,0.1,0,0.3,0,0.4c0,0.6,0.5,1.9,1,2h3c0.5-0.2,1-1.4,1-2c0-0.3,0-0.9,0-1C21.7,22.8,20.5,22.2,17.5,22z M20.5,24c-0.3,0-0.5-0.2-0.5-0.5s0.2-0.5,0.5-0.5s0.5,0.2,0.5,0.5S20.8,24,20.5,24z"/><path d="M25,3C11.4,3,8,15.3,8,19c0,1.6,0,8,0,8s1.9,0,2,0c0,0.4,0,3,0,3s2.3,0,2.8,0c1.1,1.1,2.7,2.3,4.2,3.3c0,0,0,0,0,0c0,0,0.1,0.1,0.1,0.1c6,4.6,7.4,4.6,7.9,4.6c0.5,0,1.9,0,7.9-4.6c0,0,0.1-0.1,0.1-0.1c1.5-1,3.1-2.1,4.2-3.3c0.5,0,2.8,0,2.8,0s0-2.6,0-3c0.1,0,2,0,2,0s0-6.4,0-8C42,15.3,38.6,3,25,3z M18.1,17.3c0,0-0.1,3-0.1,3.7c1.4-0.2,4.6-3.3,5.7-5.1L23,20.7l1.4-1.1c0.2-0.1,3.1-2.4,5.1-5.9c0.2,2,0.6,4.5,0.7,5.4l0.1,0.9c0.8-0.3,2.1-1.5,2.7-2.8c0.7,1.9,1.4,4.1,1.7,5.5c-0.4,3.1-1.3,6.1-2.1,8c-0.2,0.4-0.5,0.7-0.9,1.1C27.4,35.1,25.4,36,25,36c-0.4,0-2.4-0.9-6.6-4.2c-0.3-0.3-0.6-0.7-0.8-1.1c-0.7-1.5-1.7-4.6-2.2-8.1C15.8,21.7,17,19.4,18.1,17.3z"/></svg>