<?xml version="1.0" encoding="iso-8859-1"?>
<!-- Generator: Adobe Illustrator 24.1.0, SVG Export Plug-In . SVG Version: 6.00 Build 0)  -->
<svg version="1.1" id="Layer_1" xmlns="http://www.w3.org/2000/svg" xmlns:xlink="http://www.w3.org/1999/xlink" x="0px" y="0px"
	 viewBox="0 0 50 50" style="enable-background:new 0 0 50 50;" xml:space="preserve">
<g>
</g>
<g>
	<path style="fill:none;stroke:#000000;stroke-width:2;stroke-linecap:round;stroke-linejoin:round;" d="M17.999,46L18,30
		 M31.999,46L32,30"/>
	<path style="fill:none;stroke:#000000;stroke-width:2;stroke-linecap:round;stroke-linejoin:round;" d="M32,30l4.69,4.69
		c0.739,0.739,1.922,0.784,2.716,0.104l3.555-5.258c0.666-0.985,1.693-1.668,2.859-1.901l0.239-0.048C47.769,27.246,49,25.744,49,24
		v0h-5.558c-0.911,0-1.773,0.414-2.343,1.126L38,29l-6.104-6.976C31.327,21.373,30.504,21,29.639,21h-9.396
		c-0.796,0-1.559,0.316-2.121,0.879L11,29l-2.126-3.543C8.332,24.553,7.355,24,6.301,24H1v0c0,1.744,1.231,3.246,2.942,3.588h0
		c1.305,0.261,2.429,1.084,3.072,2.25L9.69,34.69c0.739,0.739,1.922,0.784,2.716,0.104L18,30"/>
	<circle style="fill:none;stroke:#000000;stroke-width:2;stroke-linecap:round;stroke-linejoin:round;" cx="25" cy="11" r="6"/>
	<path style="fill:none;stroke:#000000;stroke-width:2;stroke-linecap:round;stroke-linejoin:round;" d="M9,24H1l4-8L9,24z"/>
	<path style="fill:none;stroke:#000000;stroke-width:2;stroke-linecap:round;stroke-linejoin:round;" d="M49,22.6
		c0,0.773-0.522,1.4-1.167,1.4h-4.667C42.522,24,42,23.373,42,22.6v-4.2c0-0.773,0.522-1.4,1.167-1.4h4.667
		C48.478,17,49,17.627,49,18.4V22.6z"/>
</g>
</svg>