<svg xmlns="http://www.w3.org/2000/svg"  viewBox="0 0 50 50" width="50px" height="50px"><path d="M 20.21875 0 C 19.730469 0 19.296875 0.359375 19.21875 0.84375 L 18.25 6.6875 C 17.046875 7.035156 15.894531 7.5 14.8125 8.09375 L 10 4.65625 C 9.601563 4.371094 9.066406 4.40625 8.71875 4.75 L 4.8125 8.65625 C 4.46875 9 4.441406 9.539063 4.71875 9.9375 L 8.09375 14.78125 C 7.488281 15.878906 7.007813 17.046875 6.65625 18.25 L 0.84375 19.21875 C 0.363281 19.300781 0 19.730469 0 20.21875 L 0 25.71875 C 0 26.203125 0.335938 26.601563 0.8125 26.6875 L 6.65625 27.71875 C 7.003906 28.921875 7.488281 30.089844 8.09375 31.1875 L 4.65625 36 C 4.371094 36.398438 4.40625 36.933594 4.75 37.28125 L 8.65625 41.1875 C 9 41.53125 9.539063 41.558594 9.9375 41.28125 L 14.8125 37.875 C 15.90625 38.476563 17.054688 38.964844 18.25 39.3125 L 19.21875 45.15625 C 19.296875 45.636719 19.730469 46 20.21875 46 L 25.71875 46 C 25.75 46 25.855469 45.996094 26 46 L 26 49 C 26 49.554688 26.445313 50 27 50 L 49 50 C 49.554688 50 50 49.554688 50 49 L 50 31.84375 C 50 30.273438 48.726563 29 47.15625 29 L 38.78125 29 C 38.941406 28.570313 39.125 28.109375 39.25 27.71875 L 45.15625 26.6875 C 45.636719 26.601563 46 26.203125 46 25.71875 L 46 20.21875 C 46 19.730469 45.640625 19.296875 45.15625 19.21875 L 39.25 18.25 C 38.902344 17.0625 38.4375 15.921875 37.84375 14.84375 L 41.28125 9.9375 C 41.558594 9.539063 41.53125 9 41.1875 8.65625 L 37.28125 4.75 C 36.933594 4.402344 36.398438 4.371094 36 4.65625 L 31.15625 8.15625 C 30.066406 7.554688 28.910156 7.066406 27.71875 6.71875 L 26.6875 0.8125 C 26.601563 0.335938 26.203125 0 25.71875 0 Z M 23 15.65625 C 27.050781 15.65625 30.34375 18.949219 30.34375 23 C 30.34375 27.050781 27.050781 30.34375 23 30.34375 C 18.949219 30.34375 15.65625 27.050781 15.65625 23 C 15.65625 18.949219 18.949219 15.65625 23 15.65625 Z M 28.84375 31 L 47.15625 31 C 47.621094 31 48 31.375 48 31.84375 L 48 32 L 28 32 L 28 31.84375 C 28 31.375 28.375 31 28.84375 31 Z M 28 34 L 48 34 L 48 48 L 28 48 Z M 37 34.59375 L 36.28125 35.28125 L 32.9375 38.625 L 31.65625 37.53125 L 30.90625 36.875 L 29.59375 38.40625 L 30.34375 39.03125 L 32.34375 40.75 L 33.0625 41.375 L 37.71875 36.71875 L 38.40625 36 Z M 37 39.59375 L 36.28125 40.28125 L 32.9375 43.625 L 31.65625 42.53125 L 30.90625 41.875 L 29.59375 43.40625 L 30.34375 44.03125 L 32.34375 45.75 L 33.0625 46.375 L 37.71875 41.71875 L 38.40625 41 Z"/></svg>