<?xml version="1.0" encoding="iso-8859-1"?><!-- Generator: Adobe Illustrator 19.2.1, SVG Export Plug-In . SVG Version: 6.00 Build 0)  --><svg xmlns="http://www.w3.org/2000/svg" xmlns:xlink="http://www.w3.org/1999/xlink" viewBox="0 0 50 50" width="500px" height="500px"><line style="fill:none;stroke:#000000;stroke-width:2;stroke-linecap:round;stroke-linejoin:round;stroke-miterlimit:10;" x1="3" y1="40" x2="19" y2="40"/><line style="fill:none;stroke:#000000;stroke-width:2;stroke-linecap:round;stroke-linejoin:round;stroke-miterlimit:10;" x1="31" y1="40" x2="47" y2="40"/><polyline style="fill:none;stroke:#000000;stroke-width:2;stroke-linecap:round;stroke-linejoin:round;stroke-miterlimit:10;" points="42,35 47,40 42,45 "/><polyline style="fill:none;stroke:#000000;stroke-width:2;stroke-linecap:round;stroke-linejoin:round;stroke-miterlimit:10;" points="8,35 3,40 8,45 "/><circle cx="27" cy="40" r="1"/><circle cx="23" cy="40" r="1"/><g><g><path style="fill:none;stroke:#000000;stroke-width:2;stroke-linecap:round;stroke-linejoin:round;stroke-miterlimit:10;" d="M38.698,21.445c-0.087-0.976-0.054-1.658-0.054-2.55c0.435-0.232,1.214-1.712,1.346-2.961c0.342-0.028,0.881-0.368,1.039-1.707c0.085-0.719-0.182-1.172-0.459-1.251C41.6,11.64,41.432,6.2,37.546,6.2L36.95,5c-5.585,0-7.621,4.31-6.003,7.975c-0.205,0.127-0.544,0.532-0.459,1.251c0.158,1.34,0.697,1.679,1.039,1.707c0.131,1.249,0.941,2.729,1.377,2.961c0,0.892,0.033,1.574-0.054,2.55C31.807,24.298,25.325,23.497,25,29h22C46.675,23.497,39.742,24.298,38.698,21.445z M16.698,21.445c-0.087-0.976-0.054-1.658-0.054-2.55c0.435-0.232,1.214-1.712,1.346-2.961c0.342-0.028,0.881-0.368,1.039-1.707c0.085-0.719-0.182-1.172-0.459-1.251C19.6,11.64,19.432,6.2,15.546,6.2L14.95,5c-5.585,0-7.621,4.31-6.003,7.975c-0.205,0.127-0.544,0.532-0.459,1.251c0.158,1.34,0.697,1.679,1.039,1.707c0.131,1.249,0.941,2.729,1.377,2.961c0,0.892,0.033,1.574-0.054,2.55C9.807,24.298,3.325,23.497,3,29h22C24.675,23.497,17.742,24.298,16.698,21.445z"/></g></g></svg>