<?xml version="1.0" encoding="iso-8859-1"?>
<!-- Generator: Adobe Illustrator 23.0.6, SVG Export Plug-In . SVG Version: 6.00 Build 0)  -->
<svg version="1.1" id="Layer_1" xmlns="http://www.w3.org/2000/svg" xmlns:xlink="http://www.w3.org/1999/xlink" x="0px" y="0px"
	 viewBox="0 0 32 32" style="enable-background:new 0 0 32 32;" xml:space="preserve">
<path d="M16,8c-1.105,0-2,0.895-2,2s0.895,2,2,2s2-0.895,2-2S17.105,8,16,8z"/>
<path d="M24,22c1.1,0,2,0.9,2,2s-0.9,2-2,2s-2-0.9-2-2S22.9,22,24,22z M29.9,25c-0.2,0.9-0.5,1.7-1,2.5l1.5,1.5L29,30.4l-1.5-1.5
	c-0.7,0.5-1.6,0.9-2.5,1V32h-2v-2.1c-0.9-0.2-1.7-0.5-2.5-1L19,30.4L17.6,29l1.5-1.5c-0.5-0.7-0.9-1.6-1-2.5H16v-2h2.1
	c0.2-0.9,0.5-1.7,1-2.5l-1.5-1.4l1.4-1.4l1.5,1.5c0.7-0.5,1.6-0.9,2.5-1V16h2v2.1c0.9,0.2,1.7,0.5,2.5,1l1.5-1.5l1.4,1.4l-1.5,1.5
	c0.5,0.7,0.9,1.6,1,2.5H32v2H29.9z M28,24c0-2.2-1.8-4-4-4s-4,1.8-4,4s1.8,4,4,4S28,26.2,28,24z"/>
<g>
	<path d="M13.02,23.804L14,24c0-2.238,0.744-4.297,1.986-5.963L16,18.018c0.569-0.76,1.242-1.434,2-2.005v-1.101l4.217-0.937
		l-0.434-1.953L17.391,13h-2.781l-4.393-0.977l-0.434,1.953L14,14.913v3.988L13.02,23.804z"/>
	<path d="M14.174,25.825C9.53,24.963,6,20.889,6,16c0-5.514,4.486-10,10-10c4.889,0,8.963,3.53,9.825,8.174
		c0.736,0.136,1.445,0.347,2.115,0.634C27.339,8.749,22.215,4,16,4C9.383,4,4,9.383,4,16c0,6.215,4.749,11.339,10.809,11.94
		C14.521,27.27,14.31,26.561,14.174,25.825z"/>
</g>
</svg>