<?xml version="1.0" encoding="utf-8"?><!-- Generator: Adobe Illustrator 17.0.0, SVG Export Plug-In . SVG Version: 6.00 Build 0)  --><!DOCTYPE svg PUBLIC "-//W3C//DTD SVG 1.1//EN" "http://www.w3.org/Graphics/SVG/1.1/DTD/svg11.dtd"><svg xmlns="http://www.w3.org/2000/svg" xmlns:xlink="http://www.w3.org/1999/xlink" viewBox="0 0 50 50" width="500px" height="500px"><path fill="none" stroke="#000000" stroke-width="2" stroke-linecap="round" stroke-miterlimit="10" d="M24.933,32.528c-0.146-1.612-0.09-2.737-0.09-4.21c0.73-0.384,2.038-2.826,2.259-4.888c0.574-0.047,1.478-0.607,1.744-2.818c0.143-1.187-0.425-1.855-0.771-2.065c0.934-2.809,2.874-11.499-3.588-12.397c-0.665-1.168-2.368-1.759-4.581-1.759c-8.854,0.163-9.922,6.686-7.981,14.156c-0.345,0.21-0.913,0.878-0.771,2.065c0.266,2.211,1.17,2.771,1.744,2.818c0.22,2.062,1.58,4.504,2.312,4.888c0,1.473,0.055,2.598-0.091,4.21C13.367,37.239,1.546,35.916,1,45h38C38.455,35.916,26.685,37.239,24.933,32.528z"/><path fill="none" stroke="#000000" stroke-width="2" stroke-linecap="round" stroke-linejoin="round" stroke-miterlimit="10" d="M32.011,9.935C33.53,9.335,35.22,9,37,9c6.627,0,12,4.64,12,10.364s-5.373,10.364-12,10.364c-1.132,0-2.228-0.135-3.267-0.388c0,0-2.076,2.585-5.46,2.57c1.637-2.322,1.634-4.185,1.634-4.185c-0.257-0.163-0.507-0.335-0.748-0.515"/></svg>