<?xml version="1.0" encoding="iso-8859-1"?><!-- Generator: Adobe Illustrator 23.0.3, SVG Export Plug-In . SVG Version: 6.00 Build 0)  --><svg xmlns="http://www.w3.org/2000/svg" xmlns:xlink="http://www.w3.org/1999/xlink" viewBox="0 0 50 50" width="50px" height="50px"><g id="&#x421;&#x43B;&#x43E;&#x439;_1" style="display:none;"></g><g id="ref"></g><g id="&#x421;&#x43B;&#x43E;&#x439;_3"></g><g id="Layer_4"><path d="M43,4H7C5.346,4,4,5.346,4,7v3h42V7C46,5.346,44.654,4,43,4z M8,8C7.448,8,7,7.552,7,7s0.448-1,1-1s1,0.448,1,1S8.552,8,8,8z M11,8c-0.552,0-1-0.448-1-1s0.448-1,1-1s1,0.448,1,1S11.552,8,11,8z M14,8c-0.552,0-1-0.448-1-1s0.448-1,1-1s1,0.448,1,1S14.552,8,14,8z"/><path d="M4,12v31c0,1.654,1.346,3,3,3h36c1.654,0,3-1.346,3-3V12H4z M13.732,39.268c-0.976-0.976-0.976-2.559,0-3.536l8.793-8.793l-4.99-4.99h-1.414L14,18.414L15.414,17l3.536,2.121v1.414l4.99,4.99l1.463-1.463c-0.806-2.138-0.361-4.64,1.359-6.361c1.846-1.846,4.595-2.231,6.824-1.168l-3.996,3.996l0.707,2.121l2.121,0.707l3.996-3.996c1.064,2.23,0.679,4.978-1.168,6.824c-1.7,1.7-4.161,2.149-6.281,1.383L17.268,39.268C16.291,40.244,14.709,40.244,13.732,39.268z M36.414,39.414c-0.781,0.781-2.047,0.781-2.828,0l-6.5-6.5l2.828-2.828l6.5,6.5C37.195,37.367,37.195,38.633,36.414,39.414z"/></g></svg>