<?xml version="1.0" encoding="iso-8859-1"?><!-- Generator: Adobe Illustrator 21.1.0, SVG Export Plug-In . SVG Version: 6.00 Build 0)  --><svg xmlns="http://www.w3.org/2000/svg" xmlns:xlink="http://www.w3.org/1999/xlink" viewBox="0 0 50 50" width="50px" height="50px"><path d="M45.1,39H35c-0.6,0-1,0.4-1,1c0,0.6,0.4,1,1,1h10c0.6,0,1-0.4,1-1C46,39.4,45.6,39,45.1,39z M45.1,39H35c-0.6,0-1,0.4-1,1c0,0.6,0.4,1,1,1h10c0.6,0,1-0.4,1-1C46,39.4,45.6,39,45.1,39z M45.1,39H35c-0.6,0-1,0.4-1,1c0,0.6,0.4,1,1,1h10c0.6,0,1-0.4,1-1C46,39.4,45.6,39,45.1,39z"/><path d="M41.45,30.11c0,0-0.03-0.01-0.04-0.02c-1.6-0.71-3.865-2.435-4.285-3.215C37,26,37.01,23.87,37.01,23.87c0.83-0.76,1.95-2.32,2.34-3.91c0.65-0.35,1.39-1.18,1.62-3.14c0.12-0.99-0.16-1.76-0.56-2.27c0.5-2.22,1.194-6.467-0.51-8.97c-0.699-1.027-1.72-1.67-3.02-1.94C36.02,2.58,34.41,2,32.28,2c-1.58,0-2.91,0.27-4.05,0.82c0.86,0.52,1.6,1.22,2.18,2.07c1.74,2.53,2.09,6.25,1.06,11.34c0.46,0.92,0.64,1.98,0.51,3.1c-0.28,2.32-1.14,3.64-2.02,4.39c-0.42,1.5-1.15,3.03-1.96,4.11c0,0.73,0,1.37,0.04,2.09c0.54,0.58,2.33,1.28,3.67,1.81c0.55,0.21,1.77,0.71,1.77,0.71c-0.54,0.46-1.03,0.99-1.46,1.56c-0.35-0.14-0.69-0.28-1.03-0.41c-2.31-0.9-4.265-1.595-4.865-2.965C26,29.5,26.01,27.09,26.01,27.09c0.9-0.92,1.84-2.88,2.18-4.58c0.71-0.36,1.54-1.25,1.8-3.42c0.13-1.1-0.2-1.94-0.64-2.48c0.52-2.34,1.5-7.54-0.59-10.59c-0.6-0.87-1.39-1.5-2.36-1.89c-0.16-0.07-0.87-0.28-1.06-0.32C24.41,2.64,22.63,2,20.25,2c-3.44,0-6.006,0.992-7.54,3.04c-1.873,2.501-2.189,6.406-1.038,11.594c-0.44,0.54-0.76,1.38-0.63,2.47c0.26,2.17,1.09,3.06,1.8,3.42c0.33,1.68,1.248,3.546,2.148,4.456c0,0,0.01,2.52-0.115,3.645c-0.6,1.38-2.555,1.965-4.865,2.885C6.15,35.05,1.36,36.96,1,42.94L0.94,44h29.9c1.55,3.52,5.08,6,9.16,6c5.5,0,10-4.5,10-10C50,34.99,46.27,30.81,41.45,30.11z M40,48c-4.4,0-8-3.6-8-8c0-4.4,3.6-8,8-8s8,3.6,8,8C48,44.4,44.4,48,40,48z"/></svg>