<?xml version="1.0" encoding="iso-8859-1"?><!-- Generator: Adobe Illustrator 21.0.2, SVG Export Plug-In . SVG Version: 6.00 Build 0)  --><svg xmlns="http://www.w3.org/2000/svg" xmlns:xlink="http://www.w3.org/1999/xlink" viewBox="0 0 80 80" width="480px" height="480px"><path style="fill:none;stroke:#000000;stroke-width:2;stroke-linecap:round;stroke-miterlimit:10;" d="M40,7c-4.418,0-8,3.582-8,8s3.582,8,8,8s8-3.582,8-8S44.418,7,40,7z"/><path style="fill:none;stroke:#000000;stroke-width:2;stroke-linecap:round;stroke-miterlimit:10;" d="M8,35c0,3.313,2.687,6,6,6s6-2.687,6-6s-2.687-6-6-6S8,31.687,8,35z"/><path style="fill:none;stroke:#000000;stroke-width:2;stroke-linecap:round;stroke-miterlimit:10;" d="M52,62c-3.313,0-6,2.687-6,6s2.687,6,6,6s6-2.687,6-6S55.313,62,52,62z"/><polyline style="fill:none;stroke:#000000;stroke-width:2;stroke-linecap:round;stroke-miterlimit:10;" points="53.154,62.119 48,45 48,37 60,37 "/><path style="fill:none;stroke:#000000;stroke-width:2;stroke-linecap:round;stroke-miterlimit:10;" d="M66,29c-3.313,0-6,2.687-6,6s2.687,6,6,6s6-2.687,6-6S69.313,29,66,29z"/><path style="fill:none;stroke:#000000;stroke-width:2;stroke-linecap:round;stroke-miterlimit:10;" d="M22,68c0,3.313,2.687,6,6,6s6-2.687,6-6s-2.687-6-6-6S22,64.687,22,68z"/><polyline style="fill:none;stroke:#000000;stroke-width:2;stroke-linecap:round;stroke-miterlimit:10;" points="20,37 32,37 32,45 26.846,62.119 "/><polyline style="fill:none;stroke:#000000;stroke-width:2;stroke-linecap:round;stroke-linejoin:round;stroke-miterlimit:10;" points="33.469,65.271 40,51.178 46.531,65.271 "/><polyline style="fill:none;stroke:#000000;stroke-width:2;stroke-linecap:round;stroke-miterlimit:10;" points="62.003,30.17 46,27 40,27 34,27 17.997,30.17 "/><circle cx="48" cy="33" r="1"/><circle cx="40" cy="19" r="1"/><circle cx="44" cy="49" r="1"/><circle cx="46" cy="54" r="1"/><circle cx="48" cy="59" r="1"/><circle cx="36" cy="49" r="1"/><circle cx="34" cy="54" r="1"/><circle cx="32" cy="59" r="1"/><circle cx="52" cy="33" r="1"/><circle cx="56" cy="33" r="1"/><circle cx="40" cy="11" r="1"/><circle cx="36" cy="15" r="1"/><circle cx="44" cy="15" r="1"/><circle cx="66" cy="35" r="1"/><circle cx="14" cy="35" r="1"/><circle cx="28" cy="68" r="1"/><circle cx="52" cy="68" r="1"/><circle cx="32" cy="33" r="1"/><circle cx="28" cy="33" r="1"/><circle cx="24" cy="33" r="1"/></svg>