<?xml version="1.0" encoding="iso-8859-1"?>
<!-- Generator: Adobe Illustrator 22.1.0, SVG Export Plug-In . SVG Version: 6.00 Build 0)  -->
<svg version="1.1" id="Layer_1" xmlns="http://www.w3.org/2000/svg" xmlns:xlink="http://www.w3.org/1999/xlink" x="0px" y="0px"
	 viewBox="0 0 50 50" style="enable-background:new 0 0 50 50;" xml:space="preserve">
<line style="fill:none;stroke:#000000;stroke-width:2;stroke-linecap:round;stroke-linejoin:round;stroke-miterlimit:10;" x1="34" y1="17" x2="34" y2="7"/>
<circle style="fill:none;stroke:#000000;stroke-width:2;stroke-linecap:round;stroke-linejoin:round;stroke-miterlimit:10;" cx="33.9" cy="39" r="3"/>
<line style="fill:none;stroke:#000000;stroke-width:2;stroke-linecap:round;stroke-linejoin:round;stroke-miterlimit:10;" x1="14" y1="44.9" x2="14" y2="33"/>
<circle style="fill:none;stroke:#000000;stroke-width:2;stroke-linecap:round;stroke-linejoin:round;stroke-miterlimit:10;" cx="13.5" cy="7.5" r="4.5"/>
<path style="fill:none;stroke:#000000;stroke-width:2;stroke-linecap:round;stroke-linejoin:round;stroke-miterlimit:10;" d="
	M5,31.4c0,1,1,1.6,2,1.6s2-0.6,2-1.6"/>
<path style="fill:none;stroke:#000000;stroke-width:2;stroke-linecap:round;stroke-linejoin:round;stroke-miterlimit:10;" d="
	M14,44.7C13.8,46,12.8,47,11.5,47S9,46,9,44.7V22"/>
<path style="fill:none;stroke:#000000;stroke-width:2;stroke-linecap:round;stroke-linejoin:round;stroke-miterlimit:10;" d="
	M14,44.7c0,1.3,1.2,2.3,2.5,2.3s2.5-1,2.5-2.3V20.8"/>
<path style="fill:none;stroke:#000000;stroke-width:2;stroke-linecap:round;stroke-linejoin:round;stroke-miterlimit:10;" d="
	M5,31.4V19c0-2.3,1.8-4,4.1-4h9"/>
<path style="fill:none;stroke:#000000;stroke-width:2;stroke-linecap:round;stroke-linejoin:round;stroke-miterlimit:10;" d="M30,9
	v19"/>
<path style="fill:none;stroke:#000000;stroke-width:2;stroke-linecap:round;stroke-linejoin:round;stroke-miterlimit:10;" d="
	M33.9,18V9"/>
<path style="fill:none;stroke:#000000;stroke-width:2;stroke-linecap:round;stroke-linejoin:round;stroke-miterlimit:10;" d="
	M19,20.8L28.8,9H32c1.1,0,2-0.9,2-2s-0.9-2-2-2h-3.4c-1.4,0-2.1,0.8-2.6,1.3l-7.8,8.6"/>
<path style="fill:none;stroke:#000000;stroke-width:2;stroke-linecap:round;stroke-linejoin:round;stroke-miterlimit:10;" d="
	M33.919,17.888l5.658-10.24c0.492-0.989,1.693-1.391,2.682-0.899l0,0c0.989,0.492,1.391,1.693,0.899,2.682l-5.127,9.427"/>
<path style="fill:none;stroke:#000000;stroke-width:2;stroke-linecap:round;stroke-linejoin:round;stroke-miterlimit:10;" d="M36,33
	l5,2.953V41c0,1.105,0.895,2,2,2s2-0.895,2-2v-6c0-0.548-0.156-1.235-0.721-1.657L38,29V19"/>
<path style="fill:none;stroke:#000000;stroke-width:2;stroke-linecap:round;stroke-linejoin:round;stroke-miterlimit:10;" d="M32,33
	l-5,2.953V41c0,1.105-0.895,2-2,2s-2-0.895-2-2v-6c0-0.548,0.156-1.235,0.721-1.657L30,29V19"/>
<line style="fill:none;stroke:#000000;stroke-width:2;stroke-linecap:round;stroke-linejoin:round;stroke-miterlimit:10;" x1="32" y1="33" x2="36" y2="33"/>
</svg>