<?xml version="1.0" encoding="iso-8859-1"?>
<!-- Generator: Adobe Illustrator 24.3.0, SVG Export Plug-In . SVG Version: 6.00 Build 0)  -->
<svg version="1.1" id="Layer_1_1_" xmlns="http://www.w3.org/2000/svg" xmlns:xlink="http://www.w3.org/1999/xlink" x="0px" y="0px"
	 viewBox="0 0 48 48" style="enable-background:new 0 0 48 48;" xml:space="preserve">
<path style="fill:none;stroke:#000000;stroke-width:3;stroke-linecap:round;stroke-linejoin:round;stroke-miterlimit:10;" d="
	M5.5,16.5v-7c0-2.209,1.791-4,4-4h7"/>
<path style="fill:none;stroke:#000000;stroke-width:3;stroke-linecap:round;stroke-linejoin:round;stroke-miterlimit:10;" d="
	M16.5,42.5h-7c-2.209,0-4-1.791-4-4v-7"/>
<path style="fill:none;stroke:#000000;stroke-width:3;stroke-linecap:round;stroke-linejoin:round;stroke-miterlimit:10;" d="
	M42.5,31.5v7c0,2.209-1.791,4-4,4h-7"/>
<path style="fill:none;stroke:#000000;stroke-width:3;stroke-linecap:round;stroke-linejoin:round;stroke-miterlimit:10;" d="
	M31.5,5.5h7c2.209,0,4,1.791,4,4v7"/>
<path d="M24,23c-3.309,0-6-2.691-6-6s2.691-6,6-6s6,2.691,6,6S27.309,23,24,23z"/>
<path d="M24,37c-5.047,0-9-2.636-9-6v-2.5c0-1.93,1.57-3.5,3.5-3.5h11c1.93,0,3.5,1.57,3.5,3.5V31C33,34.364,29.047,37,24,37z"/>
</svg>