<?xml version="1.0" encoding="iso-8859-1"?>
<!-- Generator: Adobe Illustrator 24.2.1, SVG Export Plug-In . SVG Version: 6.00 Build 0)  -->
<svg version="1.1" id="Layer_1" xmlns="http://www.w3.org/2000/svg" xmlns:xlink="http://www.w3.org/1999/xlink" x="0px" y="0px"
	 viewBox="0 0 48 48" style="enable-background:new 0 0 48 48;" xml:space="preserve">
<path style="fill:none;stroke:#000000;stroke-width:3;stroke-miterlimit:10;" d="M23.5,12.5c-1.657,0-3,1.343-3,3s1.343,3,3,3
	s3-1.343,3-3S25.157,12.5,23.5,12.5z"/>
<path d="M45.561,43.439l-4.946-4.946C41.488,37.211,42,35.665,42,34c0-4.411-3.589-8-8-8s-8,3.589-8,8s3.589,8,8,8
	c1.665,0,3.211-0.512,4.493-1.386l4.946,4.946C43.732,45.854,44.116,46,44.5,46s0.768-0.146,1.061-0.439
	C46.146,44.975,46.146,44.025,45.561,43.439z M29,34c0-2.757,2.243-5,5-5s5,2.243,5,5s-2.243,5-5,5S29,36.757,29,34z"/>
<g>
	<path d="M23.5,29c-2.705,0-4.5-1.204-4.5-2v-2h9v1.014c0.896-0.674,1.902-1.209,2.996-1.553C30.974,23.1,29.865,22,28.5,22h-10
		c-1.378,0-2.5,1.121-2.5,2.5V27c0,2.804,3.294,5,7.5,5c0.238,0,0.473-0.009,0.705-0.023c0.239-1.162,0.688-2.245,1.292-3.222
		C24.91,28.904,24.244,29,23.5,29z"/>
	<path d="M26.864,41H11.5c-0.827,0-1.5-0.673-1.5-1.5V39h15.349c-0.532-0.919-0.93-1.926-1.148-3H10V8.5C10,7.673,10.673,7,11.5,7
		h24C36.327,7,37,7.673,37,8.5v15.959c1.095,0.344,2.103,0.879,3,1.554V8.5C40,6.019,37.981,4,35.5,4h-24C9.019,4,7,6.019,7,8.5v31
		c0,2.481,2.019,4.5,4.5,4.5H34C31.204,44,28.679,42.85,26.864,41z"/>
</g>
</svg>