<?xml version="1.0" encoding="iso-8859-1"?><!-- Generator: Adobe Illustrator 23.0.0, SVG Export Plug-In . SVG Version: 6.00 Build 0)  --><svg xmlns="http://www.w3.org/2000/svg" xmlns:xlink="http://www.w3.org/1999/xlink" viewBox="0 0 64 64" width="512px" height="512px"><path d="M41.925,34.214c-0.48,0.513-0.92,1.062-1.418,1.556l8.029,3.596c-0.014-0.691,0.183-1.378,0.578-1.933L41.925,34.214z"/><path d="M5,59c-0.552,0-1-0.449-1-1v-5.672c0-3.46,2.021-6.652,5.215-8.168l14.634-8.351c-0.612-0.37-1.026-0.945-1.231-1.6L8.291,42.387C4.469,44.198,2,48.1,2,52.328V58c0,1.654,1.346,3,3,3h37v-2H5z"/><path d="M8,57c-0.553,0-1-0.448-1-1v-2c0-0.552,0.447-1,1-1s1,0.448,1,1v2C9,56.552,8.553,57,8,57z"/><path d="M13,57c-0.553,0-1-0.448-1-1v-2c0-0.552,0.447-1,1-1s1,0.448,1,1v2C14,56.552,13.553,57,13,57z"/><path d="M18,57c-0.553,0-1-0.448-1-1v-2c0-0.552,0.447-1,1-1s1,0.448,1,1v2C19,56.552,18.553,57,18,57z"/><path d="M23,57c-0.553,0-1-0.448-1-1v-2c0-0.552,0.447-1,1-1s1,0.448,1,1v2C24,56.552,23.553,57,23,57z"/><path d="M28,57c-0.553,0-1-0.448-1-1v-2c0-0.552,0.447-1,1-1s1,0.448,1,1v2C29,56.552,28.553,57,28,57z"/><path d="M33,57c-0.553,0-1-0.448-1-1v-2c0-0.552,0.447-1,1-1s1,0.448,1,1v2C34,56.552,33.553,57,33,57z"/><path d="M27.92,13.88c2.864,1.39,6.006,2.115,9.19,2.12h2.55c0.552,0,1-0.448,1-1s-0.448-1-1-1h-2.55c-2.883-0.004-5.727-0.661-8.32-1.92l-1.56-0.76c-0.905-0.442-1.998-0.142-2.55,0.7l-1.6,2.43c-0.296,0.466-0.158,1.084,0.308,1.38c0.455,0.289,1.058,0.165,1.362-0.28l1.6-2.43L27.92,13.88z"/><path d="M46.28,19.12c-0.141-0.036-0.285-0.056-0.43-0.06c-0.172-1.179-0.48-2.333-0.92-3.44v-0.11c0.474,0.057,0.938,0.178,1.38,0.36c0.51,0.212,1.095-0.03,1.307-0.54c0.079-0.19,0.097-0.4,0.053-0.6C46,7.41,40.56,3,33,3h-1c-2.57,0.011-5.092,0.701-7.31,2C21,5.14,18.42,7.76,18,11.9c-0.185,1.865-0.141,3.746,0.13,5.6c0.054,0.331,0.084,0.665,0.09,1c0,0.187-0.03,0.373-0.09,0.56c-0.148,0.004-0.296,0.024-0.44,0.06c-1.65,0.44-2.34,2.85-1.6,5.61c0.54,2,1.66,3.5,2.88,4c0.623,1.858,1.48,3.628,2.55,5.27l-0.003,0.002c0.304,0.616,1.183,1.678,1.183,1.678C25.16,38.79,28.4,41,32,41c3.584,0,6.811-2.192,9.267-5.271C41.635,35.271,42.48,34,42.48,34c1.059-1.643,1.906-3.414,2.52-5.27c1.23-0.46,2.35-2,2.88-4C48.62,21.98,47.88,19.57,46.28,19.12z M45.95,24.25c-0.5,1.85-1.44,2.62-1.73,2.62c-0.459-0.018-0.872,0.279-1,0.72C41.59,33.26,37.18,39,32,39s-9.59-5.74-11.28-11.4c-0.123-0.423-0.509-0.716-0.95-0.72h-0.02c-0.29,0-1.24-0.78-1.73-2.62c-0.49-1.84-0.05-3.09,0.18-3.15c0.099,0.017,0.191,0.058,0.27,0.12c0.468,0.293,1.085,0.152,1.378-0.316c0.091-0.146,0.143-0.312,0.152-0.484c0.024-0.516,0.081-1.031,0.17-1.54c0.052-0.548,0.025-1.1-0.08-1.64c-0.239-1.707-0.269-3.436-0.09-5.15C20.31,8.91,22.19,7,25,7c0.216,0,0.427-0.07,0.6-0.2C27.523,5.613,29.74,4.99,32,5h1c6.07,0,10.45,3.1,12.25,8.58c-0.673-0.131-1.37,0.045-1.9,0.48c-0.576,0.627-0.693,1.55-0.29,2.3c0.533,1.294,0.838,2.672,0.9,4.07c0.028,0.552,0.498,0.976,1.049,0.948c0.174-0.009,0.344-0.063,0.49-0.158c0.08-0.06,0.172-0.101,0.27-0.12C46.01,21.18,46.45,22.4,45.95,24.25z"/><path d="M52,64h-4c-0.489,0-0.906-0.354-0.986-0.836l-0.454-2.726c-0.52-0.171-1.024-0.379-1.509-0.624l-2.248,1.606c-0.396,0.283-0.942,0.239-1.288-0.106l-2.828-2.828c-0.346-0.346-0.391-0.891-0.106-1.288l1.605-2.248c-0.245-0.485-0.453-0.989-0.624-1.508l-2.726-0.455C36.354,52.906,36,52.489,36,52v-4c0-0.489,0.354-0.906,0.836-0.986l2.726-0.455c0.17-0.519,0.378-1.023,0.624-1.508l-1.606-2.248c-0.284-0.398-0.239-0.943,0.107-1.288l2.828-2.828c0.345-0.347,0.891-0.392,1.288-0.107l2.248,1.605c0.484-0.244,0.989-0.453,1.509-0.624l0.454-2.726C47.094,36.354,47.511,36,48,36h4c0.489,0,0.906,0.354,0.986,0.836l0.454,2.726c0.52,0.171,1.024,0.379,1.509,0.624l2.248-1.605c0.396-0.285,0.941-0.24,1.288,0.107l2.828,2.828c0.346,0.346,0.391,0.891,0.106,1.288l-1.605,2.248c0.245,0.485,0.453,0.989,0.624,1.508l2.726,0.455C63.646,47.094,64,47.511,64,48v4c0,0.489-0.354,0.906-0.836,0.986l-2.726,0.455c-0.171,0.519-0.379,1.023-0.624,1.508l1.605,2.248c0.284,0.397,0.239,0.942-0.106,1.288l-2.828,2.828c-0.347,0.346-0.892,0.391-1.288,0.106l-2.248-1.605c-0.484,0.245-0.989,0.453-1.509,0.624l-0.454,2.726C52.906,63.646,52.489,64,52,64z M48.848,62h2.305l0.418-2.506c0.064-0.388,0.351-0.702,0.73-0.803c0.783-0.207,1.529-0.516,2.218-0.917c0.34-0.199,0.765-0.179,1.085,0.05L57.67,59.3l1.631-1.63l-1.477-2.067c-0.229-0.32-0.249-0.745-0.05-1.085c0.401-0.689,0.71-1.435,0.916-2.216c0.101-0.38,0.414-0.667,0.803-0.731L62,51.153v-2.306l-2.507-0.418c-0.389-0.064-0.702-0.351-0.803-0.731c-0.206-0.781-0.515-1.526-0.916-2.216c-0.199-0.34-0.18-0.765,0.05-1.085l1.477-2.067L57.67,40.7l-2.067,1.477c-0.321,0.229-0.746,0.247-1.085,0.05c-0.688-0.401-1.433-0.71-2.217-0.917c-0.38-0.101-0.666-0.415-0.73-0.803L51.152,38h-2.305l-0.417,2.506c-0.064,0.388-0.351,0.702-0.73,0.803c-0.784,0.207-1.529,0.516-2.217,0.917c-0.34,0.197-0.765,0.179-1.085-0.05L42.33,40.7l-1.631,1.63l1.477,2.067c0.229,0.32,0.249,0.745,0.05,1.085c-0.401,0.689-0.71,1.435-0.916,2.216c-0.101,0.38-0.414,0.667-0.803,0.731L38,48.847v2.306l2.507,0.418c0.389,0.064,0.702,0.351,0.803,0.731c0.206,0.781,0.515,1.526,0.916,2.216c0.199,0.34,0.18,0.765-0.05,1.085l-1.477,2.067l1.631,1.63l2.066-1.476c0.319-0.229,0.745-0.249,1.085-0.05c0.688,0.401,1.435,0.71,2.218,0.917c0.38,0.101,0.666,0.415,0.73,0.803L48.848,62z M63,52h0.01H63z M50,55c-2.757,0-5-2.243-5-5s2.243-5,5-5s5,2.243,5,5S52.757,55,50,55z M50,47c-1.654,0-3,1.346-3,3s1.346,3,3,3s3-1.346,3-3S51.654,47,50,47z"/></svg>