<?xml version="1.0" encoding="iso-8859-1"?><!-- Generator: Adobe Illustrator 19.1.1, SVG Export Plug-In . SVG Version: 6.00 Build 0)  --><svg xmlns="http://www.w3.org/2000/svg" xmlns:xlink="http://www.w3.org/1999/xlink" viewBox="0 0 50 50" width="50px" height="50px"><path d="M25.5,13c-3.033,0-5.5-2.467-5.5-5.5S22.467,2,25.5,2S31,4.467,31,7.5S28.533,13,25.5,13z"/><path d="M30.5,14h-10c-3.033,0-5.5,2.467-5.5,5.5V32c0,1.104,0.897,2,2,2s2-0.896,2-2v-9.529c0-0.271,0.229-0.5,0.5-0.5s0.5,0.229,0.5,0.5V45.3c0,1.564,0.835,2.7,2.4,2.7c1.482,0,2.6-1.161,2.6-2.7V32.458c0-0.276,0.224-0.5,0.5-0.5s0.5,0.224,0.5,0.5v13.134c0.004,0.006,0.012,0.01,0.016,0.016C26.153,46.991,27.218,48,28.6,48c1.564,0,2.4-1.136,2.4-2.7V22.645c0-0.271,0.229-0.5,0.5-0.5s0.5,0.229,0.5,0.5V32c0,1.104,0.897,2,2,2s2-0.896,2-2V19.5C36,16.467,33.533,14,30.5,14z"/></svg>