<?xml version="1.0" encoding="iso-8859-1"?><!-- Generator: Adobe Illustrator 23.0.3, SVG Export Plug-In . SVG Version: 6.00 Build 0)  --><svg xmlns="http://www.w3.org/2000/svg" xmlns:xlink="http://www.w3.org/1999/xlink" viewBox="0 0 50 50" width="500px" height="500px"><path style="fill:none;stroke:#000000;stroke-width:2;stroke-linecap:round;stroke-linejoin:round;stroke-miterlimit:10;" d="M28,38.448c0-1.008,0-1.591,0-2.448c0.396-0.223,2.041-2.329,2.041-3.689c0.311-0.027,0.801-0.353,0.944-1.639c0.077-0.69-0.166-1.125-0.417-1.201c0.251-0.801,0.403-1.65,0.421-2.471c0.053-2.416-1.362-4.588-4.561-4.588L25.909,21c-4.558,0-6.86,2.292-6.921,5.471c-0.018,0.941,0.136,1.966,0.447,3.039c-0.186,0.121-0.494,0.511-0.417,1.201c0.144,1.286,0.634,1.612,0.944,1.639c0,1.44,1.641,3.428,2.039,3.65c0,1.039,0,1.519,0,2.448c-0.949,2.74-7.704,2.269-8,7.552h22C35.704,40.717,28.949,41.187,28,38.448z"/><circle style="fill:none;stroke:#000000;stroke-width:2;stroke-linecap:round;stroke-linejoin:round;stroke-miterlimit:10;" cx="45" cy="25" r="2"/><line style="fill:none;stroke:#000000;stroke-width:2;stroke-linecap:round;stroke-linejoin:round;stroke-miterlimit:10;" x1="43" y1="25" x2="35" y2="25"/><circle style="fill:none;stroke:#000000;stroke-width:2;stroke-linecap:round;stroke-linejoin:round;stroke-miterlimit:10;" cx="5" cy="25" r="2"/><line style="fill:none;stroke:#000000;stroke-width:2;stroke-linecap:round;stroke-linejoin:round;stroke-miterlimit:10;" x1="7" y1="25" x2="15" y2="25"/><g><line style="fill:none;stroke:#000000;stroke-width:2;stroke-linecap:round;stroke-linejoin:round;stroke-miterlimit:10;" x1="29" y1="17" x2="33.8" y2="8"/><circle style="fill:none;stroke:#000000;stroke-width:2;stroke-linecap:round;stroke-miterlimit:10;" cx="35" cy="6" r="2"/></g><g><line style="fill:none;stroke:#000000;stroke-width:2;stroke-linecap:round;stroke-linejoin:round;stroke-miterlimit:10;" x1="16.2" y1="8" x2="21" y2="17"/><circle style="fill:none;stroke:#000000;stroke-width:2;stroke-linecap:round;stroke-miterlimit:10;" cx="15" cy="6" r="2"/></g><path style="fill:none;stroke:#000000;stroke-width:2;stroke-linecap:round;stroke-linejoin:round;stroke-miterlimit:10;" d="M22,39c0,0,1,1,3,1s3-1,3-1"/></svg>