<?xml version="1.0" encoding="iso-8859-1"?><!-- Generator: Adobe Illustrator 19.1.1, SVG Export Plug-In . SVG Version: 6.00 Build 0)  --><svg xmlns="http://www.w3.org/2000/svg" xmlns:xlink="http://www.w3.org/1999/xlink" viewBox="0 0 50 50" width="500px" height="500px"><path d="M50,41v-4.2l-3.2-0.5c-0.1-0.3-0.2-0.7-0.4-1l1.8-2.7l-2.9-2.9l-2.6,1.9c-0.3-0.2-0.7-0.3-1-0.4L41.2,28H37l-0.6,3.2c-0.3,0.1-0.7,0.2-1,0.4l-2.7-1.9l-3,3l1.8,2.5c-0.1,0.4-0.3,0.7-0.4,1.1L28,36.8V41l3.1,0.5c0.1,0.3,0.2,0.7,0.4,1l-1.8,2.7l3,3l2.7-1.8c0.4,0.2,0.7,0.3,1.1,0.4L37,50h4.1l0.6-3.1c0.3-0.1,0.6-0.2,1-0.4l2.7,1.8l3-3l-1.9-2.6c0.2-0.4,0.3-0.8,0.4-1.1L50,41z M45.7,45l-0.6,0.6L42.8,44l-0.5,0.3c-0.6,0.3-1.2,0.5-1.8,0.7l-0.6,0.2L39.4,48h-0.8l-0.4-2.7l-0.6-0.2c-0.6-0.2-1.2-0.4-1.7-0.7L35.3,44l-2.4,1.6L32.3,45l1.6-2.3l-0.3-0.5c-0.3-0.6-0.5-1.3-0.7-1.8l-0.2-0.6L30,39.3v-0.8l2.8-0.5l0.1-0.7c0.1-0.5,0.3-1.1,0.6-1.6l0.4-0.5l-1.6-2.3l0.6-0.6l2.3,1.6l0.5-0.2c0.7-0.3,1.3-0.6,1.9-0.8l0.6-0.1l0.5-2.8h0.8l0.4,2.7l0.6,0.2c0.6,0.2,1.2,0.4,1.7,0.7l0.6,0.4l2.3-1.7l0.5,0.5L44,35.1l0.3,0.5c0.3,0.6,0.5,1.2,0.7,1.8l0.2,0.6l2.8,0.4v0.8l-2.7,0.6l-0.2,0.6c-0.2,0.6-0.4,1.2-0.7,1.7L44,42.7L45.7,45z"/><path style="fill:none;stroke:#000000;stroke-width:2;stroke-miterlimit:10;" d="M39,42c-1.65,0-3-1.35-3-3s1.35-3,3-3s3,1.35,3,3C42,40.725,40.65,42,39,42z"/><polyline style="fill:none;stroke:#000000;stroke-width:2;stroke-linecap:round;stroke-linejoin:round;stroke-miterlimit:10;" points="24.7,34.4 21,39 17.7,35 "/><path d="M34.398,18.196c0.849-2.728,1.087-7.694-0.71-10.665c-0.853-1.409-1.888-2.304-3.604-2.646C29.117,3.665,27.3,3,24.879,3c0,0-0.001,0-0.001,0c-3.685,0.083-6.377,1.21-8.004,3.349c-1.926,2.534-2.377,6.717-1.166,11.848c-0.413,0.531-0.784,1.38-0.687,2.538c0.295,2.164,1.118,3.054,1.788,3.418c0.318,1.719,1.307,3.673,2.191,4.603v3.563c-0.578,1.371-2.589,2.168-4.907,3.087c-3.902,1.546-8.758,3.471-9.092,9.54L4.943,46H28c0-0.037-0.004-0.074-0.004-0.111c-0.015-0.024-0.028-0.06-0.043-0.086C26.723,43.819,26,41.492,26,39c0-1.522,0.279-2.978,0.765-4.339c0.002-0.007,0.004-0.022,0.006-0.028l-0.041-0.05l0.074-0.041c0.014-0.039,0.032-0.077,0.047-0.116c0.093-0.246,0.19-0.49,0.298-0.729c0.027-0.061,0.059-0.119,0.087-0.179c0.192-0.409,0.404-0.804,0.636-1.189c0.074-0.124,0.147-0.248,0.225-0.369c0.111-0.171,0.227-0.337,0.346-0.502c0.044-0.061,0.083-0.125,0.128-0.185l-3.547,1.971l-4.022-2.21l-0.001,0V28.3l0.016-0.571l-0.505-0.287c-0.365-0.263-1.624-2.246-1.804-4.136l-0.013-0.896h-0.909c-0.142-0.056-0.59-0.53-0.777-1.894c-0.07-0.838,0.359-1.185,0.358-1.185l0.588-0.393l-0.174-0.685c-1.211-4.784-0.923-8.581,0.685-10.695C19.705,5.93,21.877,5.068,24.9,5c1.891,0,3.252,0.476,3.736,1.304l0.245,0.419l0.48,0.067c1.332,0.188,2.009,0.773,2.615,1.776c1.449,2.396,1.192,7.169,0.325,9.598l-0.316,0.823l0.792,0.396c0.089,0.063,0.33,0.409,0.27,1.125c-0.134,1.479-0.603,1.874-0.704,1.892h-0.867l-0.123,0.858c-0.288,2.012-1.529,3.921-1.849,4.173L29,27.719v2.853l2.286-2.286l0.201-0.201c0.65-1.026,1.452-2.533,1.732-3.895c0.717-0.341,1.613-1.227,1.82-3.507C35.133,19.558,34.824,18.73,34.398,18.196z M7.122,44c0.734-3.972,4.275-5.375,7.708-6.735c2.581-1.023,5.006-2.006,5.943-4.069l0.002,0.001l3.062,1.716c-0.484,0.46-0.937,1.031-0.937,1.587l1.6,1.3c0,0-1.992,2.97-2.5,6.2H7.122z"/></svg>