<?xml version="1.0" encoding="iso-8859-1"?><!-- Generator: Adobe Illustrator 23.0.3, SVG Export Plug-In . SVG Version: 6.00 Build 0)  --><svg xmlns="http://www.w3.org/2000/svg" xmlns:xlink="http://www.w3.org/1999/xlink" viewBox="0 0 50 50" width="50px" height="50px"><path d="M50,41v-4.2l-3.2-0.5c-0.1-0.3-0.3-0.7-0.4-1l1.8-2.7l-2.9-2.9l-2.6,1.9c-0.3-0.2-0.7-0.3-1-0.4L41.1,28h-4.2l-0.5,3.2c-0.3,0.1-0.7,0.3-1,0.4l-2.7-1.9l-3,3l1.8,2.5c-0.2,0.3-0.3,0.7-0.4,1.1L28,36.8V41l3.1,0.5c0.1,0.3,0.3,0.7,0.4,1l-1.8,2.7l3,3l2.7-1.8c0.4,0.2,0.7,0.3,1.1,0.4l0.4,3.2h4.2l0.5-3.2c0.3-0.1,0.7-0.3,1-0.4l2.7,1.8l3-3l-1.9-2.6c0.2-0.3,0.3-0.7,0.4-1L50,41z M39,42c-1.7,0-3-1.3-3-3s1.3-3,3-3s3,1.3,3,3S40.7,42,39,42z"/><path d="M26,39c0-1.593,0.301-3.112,0.825-4.522L24.997,29l-3.656,10.975C21.138,40.587,20.565,41,19.92,41c-0.975,0-1.69-0.916-1.454-1.862L21,29v-7.441l-8.525-3.034c-0.819-0.292-1.255-1.185-0.98-2.01c0.279-0.837,1.183-1.289,2.02-1.01L21,18h8l7.485-2.495c0.837-0.279,1.741,0.173,2.02,1.01c0.275,0.825-0.161,1.718-0.98,2.01L29,21.559V29l0.333,1.33C31.713,27.678,35.156,26,39,26c3.3,0,6.304,1.24,8.597,3.266C47.858,27.883,48,26.458,48,25C48,12.318,37.683,2,25,2C12.318,2,2,12.318,2,25c0,12.683,10.318,23,23,23c1.458,0,2.883-0.142,4.266-0.403C27.24,45.304,26,42.3,26,39z M25,8c1.657,0,3,1.343,3,3c0,1.657-1.343,3-3,3s-3-1.343-3-3C22,9.343,23.343,8,25,8z"/></svg>