<?xml version="1.0" encoding="utf-8"?>
<!-- Generator: Adobe Illustrator 25.2.3, SVG Export Plug-In . SVG Version: 6.00 Build 0)  -->
<svg version="1.1" id="Layer_1" xmlns="http://www.w3.org/2000/svg" xmlns:xlink="http://www.w3.org/1999/xlink" x="0px" y="0px"
	 viewBox="0 0 48 48" style="enable-background:new 0 0 48 48;" xml:space="preserve">
<style type="text/css">
	.st0{fill:none;stroke:#000000;stroke-width:3;stroke-linecap:round;stroke-linejoin:round;stroke-miterlimit:10;}
</style>
<path d="M24,4C12.4,4,3,13.4,3,25v9.5C3,35.3,3.7,36,4.5,36h2.1l2.1,3.7c0.2,0.4,0.6,0.6,1,0.7c0.4,0.1,0.9,0,1.2-0.3l4.2-3.2
	c-2-3-3.4-7-3.6-11.5c7.5-2,12-10,12-10v8c4.5-1,8-6,8-6v7c3.5,0,5-2,5-2s0,2.3,0,3C36.3,30,34.9,34,32.9,37l4.2,3.2
	c0.3,0.2,0.6,0.3,0.9,0.3c0.1,0,0.2,0,0.3,0c0.4-0.1,0.8-0.4,1-0.7l2.1-3.7h2.1c0.8,0,1.5-0.7,1.5-1.5V25C45,13.4,35.6,4,24,4z"/>
<path class="st0" d="M11.5,25.5c0.5,9.5,5.9,17,12.5,17s12-7.5,12.5-17c0-0.7,0-3,0-3s-1.5,2-5,2v-7c0,0-3.5,5-8,6v-8
	C23.5,15.5,19,23.5,11.5,25.5z"/>
<path d="M30,31c0-0.6,0.4-1,1-1c0.4,0,0.7,0.2,0.9,0.5c0.2-0.3,0.2-0.7,0-1C31.7,29.2,31.4,29,31,29h-2c-1.1,0-2,0.9-2,2s0.9,2,2,2
	c0.5,0,1-0.2,1.3-0.5c0.1-0.1,0.5-0.5,0.5-0.5C30.4,31.9,30,31.5,30,31z"/>
<path d="M18,31c0-0.6-0.4-1-1-1c-0.4,0-0.7,0.2-0.9,0.5c-0.2-0.3-0.2-0.7,0-1c0.2-0.3,0.5-0.5,0.9-0.5h2c1.1,0,2,0.9,2,2s-0.9,2-2,2
	c-0.5,0-1-0.2-1.3-0.5c-0.1-0.1-0.5-0.5-0.5-0.5C17.6,31.9,18,31.5,18,31z"/>
</svg>