<?xml version="1.0" encoding="iso-8859-1"?><!-- Generator: Adobe Illustrator 23.0.3, SVG Export Plug-In . SVG Version: 6.00 Build 0)  --><svg xmlns="http://www.w3.org/2000/svg" xmlns:xlink="http://www.w3.org/1999/xlink" viewBox="0 0 50 50" width="500px" height="500px"><path style="fill:none;stroke:#000000;stroke-width:2;stroke-linecap:round;stroke-linejoin:round;" d="M36.016,36v8.891"/><path style="fill:none;stroke:#000000;stroke-width:2;stroke-linecap:round;stroke-linejoin:round;" d="M40,14.008C40,16.211,38.211,18,36.008,18s-3.992-1.789-3.992-3.992s1.789-3.992,3.992-3.992S40,11.805,40,14.008z"/><path style="fill:none;stroke:#000000;stroke-width:2;stroke-linecap:round;stroke-linejoin:round;" d="M36.906,21h3.207C42.273,21,44,22.605,44,24.758v9.66"/><path style="fill:none;stroke:#000000;stroke-width:2;stroke-linecap:round;stroke-linejoin:round;" d="M14,44.891V33"/><path style="fill:none;stroke:#000000;stroke-width:2;stroke-linecap:round;stroke-linejoin:round;" d="M18,7.5c0,2.484-2.016,4.5-4.5,4.5S9,9.984,9,7.5S11.016,3,13.5,3S18,5.016,18,7.5z"/><path style="fill:none;stroke:#000000;stroke-width:2;stroke-linecap:round;stroke-linejoin:round;" d="M6,29.418C6,30.426,7.004,31,8,31s2-0.574,2-1.582"/><path style="fill:none;stroke:#000000;stroke-width:2;stroke-linecap:round;stroke-linejoin:round;" d="M14,44.707C13.846,45.988,13.007,47,11.982,47s-2.018-1.008-2.018-2.293V21"/><path style="fill:none;stroke:#000000;stroke-width:2;stroke-linecap:round;stroke-linejoin:round;" d="M6,29.418V19c0-2.293,1.816-4,4.086-4h4.996"/><path style="fill:none;stroke:#000000;stroke-width:2;stroke-linecap:round;stroke-linejoin:round;" d="M36,35v10c0,1.105-0.895,2-2,2s-2-0.895-2-2V27"/><path style="fill:none;stroke:#000000;stroke-width:2;stroke-linecap:round;stroke-linejoin:round;" d="M36,36v9c0,1.105,0.895,2,2,2s2-0.895,2-2V27"/><path style="fill:none;stroke:#000000;stroke-width:2;stroke-linecap:round;stroke-linejoin:round;" d="M40,34c0,1.105,0.895,2,2,2s2-0.895,2-2v-9"/><path style="fill:none;stroke:#000000;stroke-width:2;stroke-linecap:round;stroke-linejoin:round;" d="M27.906,34.418v-9.66c0-2.152,1.727-3.758,3.887-3.758H37"/><path style="fill:none;stroke:#000000;stroke-width:2;stroke-linecap:round;stroke-linejoin:round;" d="M31.906,34c0,1.105-0.895,2-2,2s-2-0.895-2-2v-9"/><path style="fill:none;stroke:#000000;stroke-width:2;stroke-linecap:round;stroke-linejoin:round;" d="M18.047,29.418c0,1.008,1.004,1.582,2,1.582s2-0.574,2-1.582"/><path style="fill:none;stroke:#000000;stroke-width:2;stroke-linecap:round;stroke-linejoin:round;" d="M14.965,15h2.996c2.27,0,4.086,1.707,4.086,4v10.418"/><path style="fill:none;stroke:#000000;stroke-width:2;stroke-linecap:round;stroke-linejoin:round;" d="M13.965,32v12.891"/><path style="fill:none;stroke:#000000;stroke-width:2;stroke-linecap:round;stroke-linejoin:round;" d="M18,21v23.707C18,45.992,17.007,47,15.982,47s-1.863-1.012-2.018-2.293"/></svg>