<?xml version="1.0" encoding="iso-8859-1"?>
<!-- Generator: Adobe Illustrator 25.2.3, SVG Export Plug-In . SVG Version: 6.00 Build 0)  -->
<svg version="1.1" id="Layer_1" xmlns="http://www.w3.org/2000/svg" xmlns:xlink="http://www.w3.org/1999/xlink" x="0px" y="0px"
	 viewBox="0 0 64 64" style="enable-background:new 0 0 64 64;" xml:space="preserve">
<path d="M32,25h-8.7l22.12,22.98C45.61,47.99,45.81,48,46,48c9.72,0,13.13-10.18,13.13-10.18L64,25C64,25,52.99,25,32,25z
	 M42.97,40.16c-3.98,0-5.15-3.67-5.15-3.67c4.89-0.68,8.04-7.33,13.09-3.14C50.91,35.12,48.49,40.16,42.97,40.16z M0,25l4.87,12.82
	C4.87,37.82,8.28,48,18,48c6.01,0,10.56-5.4,14-5.4c0.78,0,1.63,0.28,2.53,0.71L18.18,25C6.21,25,0,25,0,25z M21.03,40.16
	c-5.52,0-7.94-5.04-7.94-6.81c5.05-4.19,8.2,2.46,13.09,3.14C26.18,36.49,25.01,40.16,21.03,40.16z"/>
<polygon points="56,61 4.086,6.914 6.914,4.086 59.914,57.086 "/>
</svg>