<?xml version="1.0" encoding="iso-8859-1"?><!-- Generator: Adobe Illustrator 23.0.1, SVG Export Plug-In . SVG Version: 6.00 Build 0)  --><svg xmlns="http://www.w3.org/2000/svg" xmlns:xlink="http://www.w3.org/1999/xlink" viewBox="0 0 24 24" width="480px" height="480px"><g><path d="M22.923,19.76C22.971,19.513,23,19.26,23,19s-0.029-0.513-0.077-0.76l0.806-0.599c0.103-0.077,0.133-0.219,0.068-0.33l-0.936-1.621c-0.064-0.112-0.202-0.157-0.32-0.106l-0.936,0.405c-0.379-0.328-0.817-0.584-1.301-0.752l-0.117-1.012C20.173,14.096,20.065,14,19.936,14h-1.872c-0.129,0-0.237,0.096-0.252,0.224l-0.117,1.012c-0.484,0.168-0.921,0.423-1.301,0.752l-0.936-0.405c-0.118-0.051-0.256-0.006-0.32,0.106l-0.936,1.621c-0.064,0.112-0.035,0.254,0.068,0.33l0.806,0.599C15.029,18.487,15,18.74,15,19s0.029,0.513,0.077,0.76l-0.806,0.599c-0.103,0.077-0.133,0.219-0.068,0.33l0.936,1.621c0.064,0.112,0.202,0.157,0.32,0.106l0.936-0.405c0.379,0.328,0.817,0.584,1.301,0.752l0.117,1.012C17.827,23.904,17.935,24,18.064,24h1.872c0.129,0,0.237-0.096,0.252-0.224l0.117-1.012c0.484-0.168,0.921-0.423,1.301-0.752l0.936,0.405c0.118,0.051,0.256,0.005,0.32-0.106l0.936-1.621c0.064-0.112,0.035-0.254-0.068-0.33L22.923,19.76z M19,20.75c-0.966,0-1.75-0.784-1.75-1.75c0-0.967,0.784-1.75,1.75-1.75s1.75,0.783,1.75,1.75C20.75,19.966,19.966,20.75,19,20.75z"/></g><g><circle cx="12" cy="7" r="4"/><path d="M13.954,14.157C13.246,14.053,12.577,14,12,14c-3.141,0-9,1.545-9,4.5V21h9.294c-0.097-0.324-0.17-0.658-0.219-1h0.005C12.033,19.673,12,19.34,12,19c0-1.077,0.251-2.093,0.687-3.004C13.011,15.316,13.437,14.694,13.954,14.157z"/></g></svg>