<?xml version="1.0" encoding="iso-8859-1"?><!-- Generator: Adobe Illustrator 23.0.3, SVG Export Plug-In . SVG Version: 6.00 Build 0)  --><svg xmlns="http://www.w3.org/2000/svg" xmlns:xlink="http://www.w3.org/1999/xlink" viewBox="0 0 50 50" width="500px" height="500px"><g id="Layer_1"><path style="fill:none;stroke:#000000;stroke-width:2;stroke-linecap:round;stroke-linejoin:round;stroke-miterlimit:10;" d="M27.647,38.742c0-0.882,0-1.392,0-2.142c0.356-0.195,1.618-1.513,1.618-2.703c0.28-0.023,0.721-0.309,0.85-1.434c0.069-0.604-0.149-0.985-0.375-1.051c0.89-2.765,0.404-6.362-3.453-6.362L25.529,24c-5.318,0-6.517,3.281-5.29,7.393c-0.167,0.106-0.445,0.447-0.375,1.051c0.13,1.125,0.571,1.411,0.85,1.434c0,1.26,1.282,2.527,1.64,2.721c0,0.909,0,1.329,0,2.142C21.499,41.14,16.266,40.378,16,45h18C33.734,40.378,28.501,41.138,27.647,38.742z"/><path style="fill:none;stroke:#000000;stroke-width:2;stroke-linejoin:round;stroke-miterlimit:10;" d="M5,7.1V15c0,1.155,0.85,2,2,2h6c1.15,3.15,3.857,4,6,4c-1.569-0.945-2-2-2-4h3c1.15,0,2-0.845,2-2V7.1C22,5.945,21.059,5,19.909,5H7.091C5.941,5,5,5.945,5,7.1z"/><path style="fill:none;stroke:#000000;stroke-width:2;stroke-linejoin:round;stroke-miterlimit:10;" d="M42.909,5H30.091C28.941,5,28,5.945,28,7.1V15c0,1.155,0.85,2,2,2h3c0,2-0.431,3.055-2,4c2.143,0,4.85-0.85,6-4h6c1.15,0,2-0.845,2-2V7.1C45,5.945,44.059,5,42.909,5z"/></g><g id="&#x421;&#x43B;&#x43E;&#x439;_1"></g></svg>