<?xml version="1.0" encoding="utf-8"?><!-- Generator: Adobe Illustrator 19.1.1, SVG Export Plug-In . SVG Version: 6.00 Build 0)  --><svg xmlns="http://www.w3.org/2000/svg" xmlns:xlink="http://www.w3.org/1999/xlink" viewBox="0 0 50 50" width="50px" height="50px"><path d="M37.4,2H17h-1v12.1c0.3,0,0.6,0,0.8,0l0,0h0c1.9,0,3.7,0.7,4.9,1.8c1.4,0.3,2.6,1.1,3.5,2.3c1.9,2.7,1.4,6.6,0.9,8.7c0.2,0.7,0.4,1.5,0.4,2.2c0,1.8-0.9,3.1-1.6,3.8c-0.4,1.2-1.1,2.4-1.9,3.3c0,0.2,0,0.4,0,0.6c0.5,0.3,1.7,0.8,2.5,1.1c2.7,1,6.5,2.4,8,6.2H36h12V12.5L37.4,2z M37,4.4l8.7,8.6H37V4.4z"/><path d="M10.8,31.8c0.4,1.5,1.4,2.8,2.2,3.4c0,0.2,0,0.4,0,0.6c0,0.2,0,0.4,0,0.7l0.4,0.2c1,0.6,2.8,1.3,3.5,1.3c0.7,0,2.3-0.7,3.3-1.2l0.7-0.4c0-0.2,0-0.4,0-0.6c0-0.2,0-0.4,0-0.5c0.9-0.7,1.8-2,2.1-3.5c0.6-0.5,1.4-1.5,1.4-2.7c0-0.8-0.2-1.5-0.5-2.1c0.4-1.4,1.3-5.3-0.4-7.7c-0.5-0.7-1.3-1.4-2.8-1.6c-0.8-1-2.3-1.7-3.9-1.7c-2.7,0.1-4.7,0.9-6,2.5c-1.4,1.9-1.7,4.8-0.9,8.3c-0.3,0.4-0.6,1.1-0.6,1.9C9.5,30.3,10.2,31.3,10.8,31.8z"/><path d="M16.6,41.5l-0.8-1.7c-1.3-0.4-2.9-1.2-3.2-1.4l-0.2-0.1c-0.7,0.5-1.8,0.9-3,1.4c-3.1,1.2-7,2.6-7.3,7.3c0,0.3,0.1,0.5,0.3,0.7C2.5,47.9,2.7,48,3,48h12v-1C15,44.1,16.6,41.5,16.6,41.5z"/><path d="M24.7,39.7c-1.2-0.4-2.3-0.9-3-1.4l-0.4,0.2c-0.3,0.2-1.8,0.9-3.1,1.3l-0.8,1.7c0,0,1.7,2.6,1.7,5.5v1h12c0.3,0,0.5-0.1,0.7-0.3c0.2-0.2,0.3-0.5,0.3-0.7C31.7,42.3,27.8,40.8,24.7,39.7z"/></svg>