<?xml version="1.0" encoding="iso-8859-1"?>
<!-- Generator: Adobe Illustrator 24.0.0, SVG Export Plug-In . SVG Version: 6.00 Build 0)  -->
<svg version="1.1" id="Layer_1" xmlns="http://www.w3.org/2000/svg" xmlns:xlink="http://www.w3.org/1999/xlink" x="0px" y="0px"
	 viewBox="0 0 64 64" style="enable-background:new 0 0 64 64;" xml:space="preserve">
<path d="M46,55c-0.552,0-1,0.448-1,1v2c0,0.552,0.448,1,1,1s1-0.448,1-1v-2C47,55.448,46.552,55,46,55z M51,55c-0.552,0-1,0.448-1,1
	v2c0,0.552,0.448,1,1,1s1-0.448,1-1v-2C52,55.448,51.552,55,51,55z M55,56v2c0,0.552,0.448,1,1,1s1-0.448,1-1v-2
	c0-0.552-0.448-1-1-1S55,55.448,55,56z M41,55c-0.552,0-1,0.448-1,1v2c0,0.552,0.448,1,1,1s1-0.448,1-1v-2
	C42,55.448,41.552,55,41,55z M36,55c-0.552,0-1,0.448-1,1v2c0,0.552,0.448,1,1,1s1-0.448,1-1v-2C37,55.448,36.552,55,36,55z M31,53
	c-0.552,0-1,0.448-1,1v4c0,0.552,0.448,1,1,1s1-0.448,1-1v-4C32,53.448,31.552,53,31,53z M26,55c-0.552,0-1,0.448-1,1v2
	c0,0.552,0.448,1,1,1s1-0.448,1-1v-2C27,55.448,26.552,55,26,55z M21,55c-0.552,0-1,0.448-1,1v2c0,0.552,0.448,1,1,1s1-0.448,1-1v-2
	C22,55.448,21.552,55,21,55z M16,55c-0.552,0-1,0.448-1,1v2c0,0.552,0.448,1,1,1s1-0.448,1-1v-2C17,55.448,16.552,55,16,55z M11,55
	c-0.552,0-1,0.448-1,1v2c0,0.552,0.448,1,1,1s1-0.448,1-1v-2C12,55.448,11.552,55,11,55z M6,55c-0.552,0-1,0.448-1,1v2
	c0,0.552,0.448,1,1,1s1-0.448,1-1v-2C7,55.448,6.552,55,6,55z M22.36,17.83c0.461,0.304,1.081,0.178,1.386-0.283
	c0.001-0.002,0.003-0.005,0.004-0.007l1.6-2.43l1.56,0.76c2.866,1.396,6.012,2.124,9.2,2.13h2.55c0.552,0,1-0.448,1-1s-0.448-1-1-1
	h-2.55c-2.883-0.004-5.727-0.66-8.32-1.92l-1.56-0.76c-0.905-0.442-1.998-0.142-2.55,0.7l-1.6,2.43
	C21.779,16.909,21.904,17.525,22.36,17.83z"/>
<path d="M54.75,42.38L49.81,40c1.489-0.418,2.954-0.915,4.39-1.49c1.533-0.629,2.265-2.382,1.636-3.914
	c-0.072-0.177-0.162-0.346-0.266-0.506l-1.86-2.85c-1.231-1.878-2.118-3.961-2.62-6.15l-2.27-9.89
	C47.141,7.821,40.786,2.439,33.23,2c-1.012-0.664-2.199-1.012-3.41-1c-7.976-0.037-14.891,5.507-16.59,13.3l-2.45,11
	c-0.504,2.242-1.412,4.373-2.68,6.29l-1.66,2.52c-0.914,1.382-0.536,3.243,0.846,4.157C7.448,38.375,7.62,38.466,7.8,38.54
	c1.423,0.564,2.875,1.051,4.35,1.46l-4.9,2.38C3.44,44.218,1.013,48.07,1,52.3V60c0,1.657,1.343,3,3,3h54c1.657,0,3-1.343,3-3v-7.7
	C60.987,48.07,58.56,44.218,54.75,42.38z M8.57,36.69C8.294,36.573,8.084,36.338,8,36.05c-0.087-0.284-0.043-0.592,0.12-0.84
	l1.66-2.52c1.42-2.13,2.437-4.503,3-7l2.45-11C16.743,7.85,22.814,2.985,29.82,3c0.891,0.003,1.758,0.294,2.47,0.83
	c0.162,0.122,0.357,0.192,0.56,0.2c6.751,0.278,12.483,5.036,14,11.62l2.27,9.91c0.55,2.416,1.525,4.715,2.88,6.79l1.9,2.85
	c0.144,0.241,0.18,0.531,0.1,0.8c-0.089,0.286-0.302,0.518-0.58,0.63c-2.086,0.82-4.228,1.489-6.41,2L41.48,36
	c1.059-1.643,1.906-3.414,2.52-5.27c1.23-0.46,2.35-2,2.88-4c0.311-1.086,0.373-2.227,0.18-3.34c-0.102-1.036-0.797-1.918-1.78-2.26
	c-0.144-0.04-0.291-0.063-0.44-0.07c-0.108-0.8-0.286-1.59-0.53-2.36c-0.168-0.527-0.733-0.818-1.26-0.65
	c-0.527,0.168-0.818,0.733-0.65,1.26c0.337,1.009,0.539,2.058,0.6,3.12c0.028,0.552,0.498,0.976,1.05,0.948
	c0.174-0.009,0.344-0.063,0.49-0.158c0.081-0.058,0.173-0.099,0.27-0.12c0.05,0,0.24,0.22,0.34,0.73
	c0.13,0.811,0.079,1.641-0.15,2.43c-0.49,1.84-1.44,2.62-1.73,2.62l0,0c-0.456-0.02-0.868,0.273-1,0.71C40.59,35.26,36.18,41,31,41
	s-9.59-5.74-11.27-11.4c-0.132-0.437-0.544-0.729-1-0.71l0,0c-0.29,0-1.24-0.78-1.73-2.62c-0.227-0.786-0.279-1.612-0.15-2.42
	c0.1-0.51,0.29-0.72,0.33-0.73l0,0c0.098,0.018,0.191,0.059,0.27,0.12c0.461,0.304,1.081,0.176,1.385-0.285
	c0.103-0.156,0.16-0.338,0.165-0.525c0.05-1.04,0.235-2.068,0.55-3.06c0.166-0.527-0.128-1.089-0.655-1.255
	c-0.527-0.166-1.089,0.128-1.255,0.655c-0.24,0.764-0.414,1.547-0.52,2.34c-0.149,0.006-0.297,0.03-0.44,0.07
	c-0.983,0.342-1.678,1.224-1.78,2.26c-0.193,1.113-0.131,2.254,0.18,3.34c0.54,2,1.66,3.5,2.88,4c0.63,1.841,1.491,3.595,2.56,5.22
	l-5.61,2.68C12.751,38.172,10.632,37.507,8.57,36.69z M59,60c0,0.552-0.448,1-1,1H4c-0.552,0-1-0.448-1-1v-7.7
	c0-3.467,1.992-6.625,5.12-8.12l13.58-6.5C24.16,40.79,27.4,43,31,43s6.84-2.21,9.3-5.31l13.58,6.5l0,0
	c3.125,1.493,5.116,4.647,5.12,8.11V60z"/>
<path d="M20.49,44.86l10,6c0.309,0.179,0.691,0.179,1,0l10-6c0.511-0.21,0.754-0.795,0.543-1.306
	c-0.21-0.511-0.795-0.754-1.306-0.543c-0.085,0.035-0.165,0.082-0.238,0.139L31,48.83l-9.49-5.69
	c-0.434-0.342-1.063-0.267-1.404,0.167c-0.342,0.434-0.267,1.063,0.167,1.404c0.072,0.057,0.153,0.104,0.238,0.139L20.49,44.86z"/>
<line style="fill:none;stroke:#000000;stroke-width:2;stroke-linecap:round;stroke-linejoin:round;stroke-miterlimit:10;" x1="50" y1="23" x2="62" y2="23"/>
<line style="fill:none;stroke:#000000;stroke-width:2;stroke-linecap:round;stroke-linejoin:round;stroke-miterlimit:10;" x1="60" y1="18" x2="63" y2="18"/>
<line style="fill:none;stroke:#000000;stroke-width:2;stroke-linecap:round;stroke-linejoin:round;stroke-miterlimit:10;" x1="49" y1="18" x2="56" y2="18"/>
<line style="fill:none;stroke:#000000;stroke-width:2;stroke-linecap:round;stroke-linejoin:round;stroke-miterlimit:10;" x1="51" y1="28" x2="61" y2="28"/>
</svg>