<?xml version="1.0" encoding="utf-8"?>
<!-- Generator: Adobe Illustrator 22.0.1, SVG Export Plug-In . SVG Version: 6.00 Build 0)  -->
<svg version="1.1" id="Layer_1" xmlns="http://www.w3.org/2000/svg" xmlns:xlink="http://www.w3.org/1999/xlink" x="0px" y="0px"
	 viewBox="0 0 128 128" style="enable-background:new 0 0 128 128;" xml:space="preserve">
<style type="text/css">
	.st0{fill:none;stroke:#000000;stroke-width:6;stroke-linecap:round;stroke-linejoin:round;stroke-miterlimit:10;}
</style>
<path d="M2.1,108.6c0.5,0.3,1,0.4,1.5,0.4c1,0,2.1-0.5,2.6-1.5c4.4-7.8,11.9-13.7,20.6-16.1c1.6-0.4,2.5-2.1,2.1-3.7
	s-2.1-2.5-3.7-2.1C15,88.5,6.2,95.4,1,104.5C0.2,106,0.7,107.8,2.1,108.6z"/>
<path d="M102.8,85.6c-1.6-0.4-3.3,0.5-3.7,2.1c-0.4,1.6,0.5,3.3,2.1,3.7c8.6,2.4,16.1,8.3,20.6,16.1c0.6,1,1.6,1.5,2.6,1.5
	c0.5,0,1-0.1,1.5-0.4c1.4-0.8,1.9-2.6,1.1-4.1C121.8,95.4,113,88.5,102.8,85.6z"/>
<path d="M32.1,43.5c1.1-0.3,1.9-1.3,2.1-2.4l0-0.1c0.3-2.1-1.6-3.9-3.7-3.3c-8.6,2.4-14.9,10.4-14.9,19.7c0,11.3,9.2,20.5,20.5,20.5
	c1.8,0,3.5-0.2,5.2-0.7c2.2-0.6,3-3.4,1.3-5c0,0,0,0,0,0c-0.8-0.7-1.8-1-2.9-0.7c-1.2,0.3-2.3,0.4-3.5,0.4c-8,0-14.5-6.5-14.5-14.5
	C21.5,50.9,26,45.3,32.1,43.5z"/>
<path d="M112.5,57.5c0-9.3-6.3-17.3-14.9-19.7c-2-0.6-4,1.2-3.7,3.3l0,0.1c0.2,1.1,1,2.1,2.1,2.4c6.1,1.7,10.5,7.3,10.5,13.9
	c0,8-6.5,14.5-14.5,14.5c-1.2,0-2.4-0.2-3.5-0.4c-1-0.3-2.1,0-2.9,0.7c0,0,0,0,0,0c-1.7,1.6-1,4.4,1.3,5c1.7,0.4,3.4,0.7,5.2,0.7
	C103.3,77.9,112.5,68.8,112.5,57.5z"/>
<path d="M64,73c12.7,0,23-10.3,23-23S76.7,27,64,27S41,37.3,41,50S51.3,73,64,73z"/>
<path d="M103.7,104.1C95.6,89.9,80.4,81,64,81c-16.4,0-31.6,8.9-39.7,23.1c-0.8,1.4-0.3,3.3,1.1,4.1c0.5,0.3,1,0.4,1.5,0.4H101v0
	c0.5,0,1-0.1,1.5-0.4C104,107.4,104.5,105.5,103.7,104.1z"/>
</svg>