<?xml version="1.0" encoding="iso-8859-1"?>
<!-- Generator: Adobe Illustrator 25.2.3, SVG Export Plug-In . SVG Version: 6.00 Build 0)  -->
<svg version="1.1" baseProfile="basic" id="Layer_1"
	 xmlns="http://www.w3.org/2000/svg" xmlns:xlink="http://www.w3.org/1999/xlink" x="0px" y="0px" viewBox="0 0 64 64"
	 xml:space="preserve">
<path style="fill:#020203;" d="M32,8c0,2.55-1.19,4.82-3.05,6.28l-0.02-5.64c0.02-3.31-2.22-5.62-5.15-5.62
	c-3.08,0-4.79,2.71-4.72,6.48l-0.01,4.78C17.19,12.82,16,10.55,16,8c0-4.42,3.58-8,8-8S32,3.58,32,8z"/>
<path style="fill:#020203;" d="M46.5,24.01c2.17,0,4.5,3.19,4.5,7.28c0,4.72,0,11.42-1.66,16.13c-2.75,7.83-13.16,13.17-23.56,9.09
	c-3.07-1.2-8.14-4.13-10.61-10.61c-0.02-0.03-0.78-1.91-1.22-2.96c-1.71-4.11-0.5-8.87,2.98-11.66L19,29.63V39c0,0.55,0.45,1,1,1
	s1-0.45,1-1l0.06-29.54c-0.03-1.5,0.34-4.27,2.43-4.43c2.09-0.16,3.45,1.41,3.44,3.62L27,28.02c0,0.55,0.45,0.99,1,0.99s1-0.45,1-1
	v-9.08c0-1.13,0.55-1.92,1.5-1.92c2.08,0,4.5,1.11,4.5,3.68v9.32c0,0.56,0.45,1,1,1s1-0.44,1-1v-8.08c0-1.13,0.55-1.92,1.5-1.92
	c2.08,0,4.5,1.11,4.5,3.68v7.35c0,0.54,0.455,0.98,0.995,0.99c0.54,0,1.005-0.44,1.005-0.99v-5.11C45,24.8,45.55,24.01,46.5,24.01z"
	/>
</svg>