<?xml version="1.0" encoding="iso-8859-1"?>
<!-- Generator: Adobe Illustrator 29.3.1, SVG Export Plug-In . SVG Version: 9.03 Build 55982)  -->
<svg version="1.1" baseProfile="basic" id="Layer_1"
	 xmlns="http://www.w3.org/2000/svg" xmlns:xlink="http://www.w3.org/1999/xlink" x="0px" y="0px" viewBox="0 0 24 24"
	 xml:space="preserve">
<path d="M11,8c0-1.657-1.343-3-3-3S5,6.343,5,8c0,0.171,0,0.829,0,1c0,1.657,1.343,3,3,3s3-1.343,3-3C11,8.829,11,8.171,11,8z"/>
<path d="M19,6c0-1.657-1.343-3-3-3s-3,1.343-3,3c0,0.171,0,0.829,0,1c0,1.657,1.343,3,3,3s3-1.343,3-3C19,6.829,19,6.171,19,6z"/>
<path d="M12.5,19c0-0.794,0.149-1.551,0.41-2.254L10,15H6l-5,3v2h11.585C12.534,19.673,12.5,19.341,12.5,19z"/>
<path d="M24,19c0,2.761-2.239,5-5,5s-5-2.239-5-5s2.239-5,5-5S24,16.239,24,19z M22,18.375h-2.375V16h-1.25v2.375H16v1.25h2.375V22
	h1.25v-2.375H22V18.375z"/>
</svg>