<?xml version="1.0" encoding="iso-8859-1"?><!-- Generator: Adobe Illustrator 19.1.1, SVG Export Plug-In . SVG Version: 6.00 Build 0)  --><svg xmlns="http://www.w3.org/2000/svg" xmlns:xlink="http://www.w3.org/1999/xlink" viewBox="0 0 50 50" width="50px" height="50px"><path fill="none" stroke="#000000" stroke-width="2" stroke-linecap="round" stroke-miterlimit="10" d="M38,27c-6.075,0-11,4.925-11,11s4.925,11,11,11s11-4.925,11-11S44.075,27,38,27z"/><path d="M27,38c0-2.177,0.641-4.201,1.732-5.909l-0.054-0.033c-0.834-0.513-1.334-1.033-1.569-1.634c-0.254-1.104-0.301-2.279-0.136-3.29c0.941-0.88,1.842-2.921,2.17-4.619c0.703-0.364,1.529-1.256,1.784-3.418c0.127-1.073-0.18-1.9-0.604-2.446c0.735-2.631,1.403-7.49-0.489-10.461c-0.818-1.284-2.004-2.082-3.53-2.375C25.382,2.64,23.625,2,21.27,2c-3.573,0.067-6.196,1.184-7.798,3.319c-1.894,2.524-2.243,6.426-1.02,11.31c-0.433,0.545-0.75,1.38-0.622,2.466c0.255,2.163,1.081,3.055,1.785,3.418c0.34,1.737,1.284,3.696,2.191,4.58c0.173,1.42,0.121,2.122-0.113,3.346c-0.566,1.406-2.549,2.2-4.839,3.117c-3.787,1.517-8.499,3.403-8.852,9.385L1.939,44H27.54h1.224l-0.012-0.059C27.648,42.227,27,40.191,27,38z"/><line fill="none" stroke="#000000" stroke-width="2" stroke-miterlimit="10" x1="38" y1="32" x2="38" y2="44"/><line fill="none" stroke="#000000" stroke-width="2" stroke-miterlimit="10" x1="44" y1="38" x2="32" y2="38"/><path d="M30.918,23.71c-0.387,1.443-1.099,3.122-2.029,4.286c-0.034,0.566,0.009,1.184,0.126,1.775c0.074,0.107,0.258,0.304,0.712,0.583l0.054,0.033l0.186,0.115C31.975,28.352,34.826,27,38,27c0.255,0,0.504,0.021,0.754,0.038l-0.095-0.44c-0.193-0.892-0.229-1.841-0.103-2.66c0.825-0.794,1.58-2.51,1.872-3.972c0.627-0.349,1.336-1.161,1.557-3.03c0.11-0.934-0.146-1.663-0.511-2.159c0.635-2.313,1.189-6.506-0.457-9.091c-0.708-1.112-1.771-1.834-3.092-2.105C37.095,2.557,35.551,2,33.494,2c-1.653,0.031-3.068,0.33-4.253,0.874c0.9,0.564,1.68,1.301,2.279,2.241c2.325,3.651,1.461,8.978,0.943,11.227c0.418,0.891,0.576,1.921,0.45,2.989C32.642,21.635,31.791,22.955,30.918,23.71z"/></svg>