<?xml version="1.0" encoding="iso-8859-1"?><!-- Generator: Adobe Illustrator 22.1.0, SVG Export Plug-In . SVG Version: 6.00 Build 0)  --><svg xmlns="http://www.w3.org/2000/svg" xmlns:xlink="http://www.w3.org/1999/xlink" viewBox="0 0 80 80" width="480px" height="480px"><line style="fill:none;stroke:#000000;stroke-width:2;stroke-miterlimit:10;" x1="47" y1="47" x2="47" y2="52"/><line style="fill:none;stroke:#000000;stroke-width:2;stroke-miterlimit:10;" x1="33" y1="52" x2="33" y2="47"/><path style="fill:none;stroke:#000000;stroke-width:2;stroke-miterlimit:10;" d="M54,32c0,0,1-5.603,1-9c0-6.703-4.849-9-8-9c0,0-1.972-4-8.274-4C29.79,10,22,20,22,20s3.274,0.968,3.274,5.752C25.274,29.355,26,32,26,32"/><path style="fill:none;stroke:#000000;stroke-width:2;stroke-miterlimit:10;" d="M32.5,51c0,0,3.75,6,7.5,6s7.5-6,7.5-6"/><polygon points="41,61 39,61 37,56 40.009,57 43,56 "/><polygon points="41,57 39,57 38,70 42,70 "/><polyline style="fill:none;stroke:#000000;stroke-width:2;stroke-miterlimit:10;" points="30,54.027 32.5,61 38.5,57 "/><circle cx="45.5" cy="34.5" r="1.5"/><circle cx="34.5" cy="34.5" r="1.5"/><g><g><path style="fill:none;stroke:#000000;stroke-width:2;stroke-miterlimit:10;" d="M53.125,32c-0.128,0-0.592,0.249-1.125,0.561V28c0-6.316-5-8-5-8s-3.129,3-10,3c-3.088,0-9,2.368-9,8.053v1.508C27.467,32.249,27.003,32,26.875,32C25.839,32,25,32.806,25,33.8c0,0.725,0.625,2.281,0.625,2.7c0,0.828,0.7,1.5,1.562,1.5h0.841c0.293,5.617,4.441,10.205,9.854,11.171C38.444,49.681,39.182,50,40,50s1.556-0.319,2.117-0.829c5.413-0.965,9.561-5.553,9.854-11.171h0.841c0.863,0,1.562-0.672,1.562-1.5c0-0.419,0.625-1.975,0.625-2.7C55,32.806,54.161,32,53.125,32z"/></g></g><path d="M77.962,63c0-1.111-0.139-2.231-0.412-3.338l2.374-3.017l-2.479-4.29l-3.798,0.547c-1.63-1.562-3.61-2.704-5.781-3.333L66.439,46h-4.953l-1.428,3.568c-2.171,0.63-4.152,1.772-5.782,3.334l-3.797-0.547L48,56.645l2.374,3.017c-0.273,1.107-0.412,2.227-0.412,3.338s0.139,2.231,0.412,3.338L48,69.355l2.479,4.29l3.798-0.547c1.63,1.562,3.61,2.704,5.781,3.333L61.485,80h4.953l1.428-3.568c2.171-0.629,4.151-1.771,5.781-3.333l3.798,0.547l2.479-4.29l-2.374-3.017C77.823,65.231,77.962,64.111,77.962,63z M75.493,59.71c0.312,1.09,0.469,2.197,0.469,3.29s-0.157,2.2-0.469,3.29l-0.14,0.491l2.16,2.746l-1.123,1.945l-3.458-0.498l-0.355,0.367c-1.555,1.605-3.524,2.742-5.697,3.285l-0.495,0.124l-1.3,3.25h-2.246l-1.3-3.25l-0.495-0.124c-2.173-0.543-4.143-1.68-5.697-3.285l-0.355-0.367l-3.458,0.498l-1.123-1.945l2.16-2.746l-0.14-0.491c-0.312-1.09-0.469-2.197-0.469-3.29s0.157-2.2,0.469-3.29l0.14-0.491l-2.16-2.746l1.123-1.945l3.458,0.498l0.355-0.367c1.555-1.605,3.524-2.742,5.697-3.285l0.495-0.124l1.3-3.25h2.246l1.3,3.25l0.495,0.124c2.173,0.543,4.143,1.68,5.697,3.285l0.355,0.367l3.458-0.498l1.123,1.945l-2.16,2.746L75.493,59.71z M63.962,55c-4.411,0-8,3.589-8,8s3.589,8,8,8s8-3.589,8-8S68.373,55,63.962,55z M63.962,69c-3.309,0-6-2.691-6-6s2.691-6,6-6s6,2.691,6,6S67.271,69,63.962,69z"/><g><path d="M48.982,51.392l-1.327-1.148l-1.309,1.513l1.492,1.29C48.191,52.474,48.571,51.922,48.982,51.392z"/><path d="M45.631,58.219l-3.076-2.051l-1.109,1.664l3.762,2.508C45.309,59.619,45.451,58.912,45.631,58.219z"/><path d="M45.982,69H16v-4c0-2.654,4.677-6.037,13.899-10.057l3.755-3.187l-1.309-1.513l-3.385,2.927C21.964,56.229,14,60.325,14,65v6h32.784C46.482,70.351,46.211,69.686,45.982,69z"/></g><circle cx="19" cy="66" r="1"/><circle cx="23" cy="66" r="1"/><circle cx="27" cy="66" r="1"/><circle cx="31" cy="66" r="1"/><circle cx="35" cy="66" r="1"/></svg>