<?xml version="1.0" encoding="iso-8859-1"?>
<!-- Generator: Adobe Illustrator 23.0.3, SVG Export Plug-In . SVG Version: 6.00 Build 0)  -->
<svg version="1.1" id="Layer_1" xmlns="http://www.w3.org/2000/svg" xmlns:xlink="http://www.w3.org/1999/xlink" x="0px" y="0px"
	 viewBox="0 0 48 48" style="enable-background:new 0 0 48 48;" xml:space="preserve">
<path style="fill:none;stroke:#000000;stroke-width:3;stroke-linecap:round;stroke-linejoin:round;stroke-miterlimit:5;" d="
	M14.946,7.256C16.473,4.99,19.062,3.5,22,3.5c4.694,0,8.5,3.806,8.5,8.5s-3.806,8.5-8.5,8.5c-3.929,0-7.235-2.665-8.209-6.286"/>
<path style="fill:none;stroke:#000000;stroke-width:3;stroke-linecap:round;stroke-linejoin:round;stroke-miterlimit:10;" d="
	M25.383,40.279C17.202,41.367,7.5,38.441,7.5,31.5v0c0-2.209,1.791-4,4-4h14.84"/>
<path style="fill:none;stroke:#000000;stroke-width:3;stroke-linecap:round;stroke-linejoin:round;stroke-miterlimit:10;" d="
	M40.474,37.595l-0.009,2.013c0,0.283-0.071,0.495-0.141,0.707l-2.687,4.525c-0.283,0.566-1.131,0.566-1.414,0l-2.687-4.525
	c-0.071-0.212-0.141-0.424-0.141-0.707l0.071-15.203c0-1.98,1.556-3.536,3.536-3.536l0,0c1.98,0,3.536,1.556,3.536,3.536
	l-0.036,7.764"/>
<line style="fill:none;stroke:#000000;stroke-width:3;stroke-linecap:round;stroke-linejoin:round;stroke-miterlimit:10;" x1="33.83" y1="27.164" x2="40.465" y2="27.164"/>
</svg>