<?xml version="1.0" encoding="iso-8859-1"?><!-- Generator: Adobe Illustrator 22.0.1, SVG Export Plug-In . SVG Version: 6.00 Build 0)  --><svg xmlns="http://www.w3.org/2000/svg" xmlns:xlink="http://www.w3.org/1999/xlink" viewBox="0 0 80 80" width="480px" height="480px"><path style="fill:none;stroke:#000000;stroke-width:2;stroke-miterlimit:10;" d="M53.125,32c-0.129,0-0.594,0.25-1.125,0.562V28c0-6.316-5-8-5-8s-3.129,3-10,3c-3.09,0-9,2.367-9,8.055v1.507C27.469,32.25,27.004,32,26.875,32C25.84,32,25,32.805,25,33.801c0,0.722,0.625,2.281,0.625,2.699c0,0.828,0.699,1.5,1.563,1.5H28v0.367c0,5.906,4.266,10.801,9.883,11.805C38.445,50.68,39.184,51,40,51s1.555-0.32,2.117-0.828C47.734,49.168,52,44.273,52,38.367V38h0.813c0.863,0,1.562-0.672,1.562-1.5c0-0.418,0.625-1.977,0.625-2.699C55,32.805,54.16,32,53.125,32L53.125,32z"/><path style="fill:none;stroke:#000000;stroke-width:2;stroke-miterlimit:10;" d="M54,32c0,0,1-5.602,1-9c0-6.703-4.848-9-8-9c0,0-1.973-4-8.273-4C29.789,10,22,20,22,20s3.273,0.969,3.273,5.754C25.273,29.355,26,32,26,32"/><path style="fill:none;stroke:#000000;stroke-width:2;stroke-miterlimit:10;" d="M47,48v8c0,0-2,4-7,4c-5,0-7-4-7-4v-8"/><path d="M45,66c0,0.551-0.449,1-1,1c-0.551,0-1-0.449-1-1c0-0.551,0.449-1,1-1C44.551,65,45,65.449,45,66L45,66z"/><path d="M47,34.5c0,0.828-0.672,1.5-1.5,1.5c-0.828,0-1.5-0.672-1.5-1.5c0-0.828,0.672-1.5,1.5-1.5C46.328,33,47,33.672,47,34.5L47,34.5z"/><path d="M36,34.5c0,0.828-0.672,1.5-1.5,1.5c-0.828,0-1.5-0.672-1.5-1.5c0-0.828,0.672-1.5,1.5-1.5C35.328,33,36,33.672,36,34.5L36,34.5z"/><path d="M41,66c0,0.551-0.449,1-1,1c-0.551,0-1-0.449-1-1c0-0.551,0.449-1,1-1C40.551,65,41,65.449,41,66L41,66z"/><path d="M37,66c0,0.551-0.449,1-1,1c-0.551,0-1-0.449-1-1c0-0.551,0.449-1,1-1C36.551,65,37,65.449,37,66L37,66z"/><path d="M33,66c0,0.551-0.449,1-1,1c-0.551,0-1-0.449-1-1c0-0.551,0.449-1,1-1C32.551,65,33,65.449,33,66L33,66z"/><path d="M29,66c0,0.551-0.449,1-1,1c-0.551,0-1-0.449-1-1c0-0.551,0.449-1,1-1C28.551,65,29,65.449,29,66L29,66z"/><path d="M25,66c0,0.551-0.449,1-1,1c-0.551,0-1-0.449-1-1c0-0.551,0.449-1,1-1C24.551,65,25,65.449,25,66L25,66z"/><path d="M21,66c0,0.551-0.449,1-1,1c-0.551,0-1-0.449-1-1c0-0.551,0.449-1,1-1C20.551,65,21,65.449,21,66L21,66z"/><path d="M49,66c0,0.551-0.449,1-1,1c-0.551,0-1-0.449-1-1c0-0.551,0.449-1,1-1C48.551,65,49,65.449,49,66L49,66z"/><path d="M57,66c0,0.551-0.449,1-1,1c-0.551,0-1-0.449-1-1c0-0.551,0.449-1,1-1C56.551,65,57,65.449,57,66L57,66z"/><path d="M53,66c0,0.551-0.449,1-1,1c-0.551,0-1-0.449-1-1c0-0.551,0.449-1,1-1C52.551,65,53,65.449,53,66L53,66z"/><path d="M61,66c0,0.551-0.449,1-1,1c-0.551,0-1-0.449-1-1c0-0.551,0.449-1,1-1C60.551,65,61,65.449,61,66L61,66z"/><g><path style="fill:none;stroke:#000000;stroke-width:2;stroke-miterlimit:10;" d="M64,51v19c0,3.314,2.686,6,6,6s6-2.686,6-6c0-2.143,0-15.143,0-15.143"/><path style="fill:none;stroke:#000000;stroke-width:2;stroke-miterlimit:10;" d="M72,70c0,0,0-15.571,0-19"/><path style="fill:none;stroke:#000000;stroke-width:2;stroke-miterlimit:10;" d="M72,70c0,1.105-0.895,2-2,2s-2-0.895-2-2V55"/><path style="fill:none;stroke:#000000;stroke-width:2;stroke-miterlimit:10;" d="M72,51c0-2.209-1.791-4-4-4s-4,1.791-4,4"/></g><g><path d="M61,58.01c-5.121-3.488-12.501-5.631-13.732-5.973l-0.535,1.927c3.313,0.92,10.269,3.387,14.268,6.508V58.01z"/><path d="M61,70v-1H16v-4c0-5.114,12.465-9.701,17.268-11.037l-0.535-1.927C30.815,52.569,14,57.458,14,65v6h47.059C61.022,70.671,61,70.338,61,70z"/></g><path d="M75,54.857V70c0,2.757-2.243,5-5,5s-5-2.243-5-5V51c0-1.654,1.346-3,3-3s3,1.346,3,3v19c0,0.551-0.448,1-1,1s-1-0.449-1-1V55h-2v15c0,1.654,1.346,3,3,3s3-1.346,3-3V51c0-2.757-2.243-5-5-5s-5,2.243-5,5v19c0,3.86,3.141,7,7,7s7-3.14,7-7V54.857H75z"/></svg>