<?xml version="1.0" encoding="iso-8859-1"?>
<!-- Generator: Adobe Illustrator 24.0.2, SVG Export Plug-In . SVG Version: 6.00 Build 0)  -->
<svg version="1.1" id="Layer_1_1_" xmlns="http://www.w3.org/2000/svg" xmlns:xlink="http://www.w3.org/1999/xlink" x="0px" y="0px"
	 viewBox="0 0 48 48" style="enable-background:new 0 0 48 48;" xml:space="preserve">
<circle cx="26" cy="9" r="6"/>
<path d="M15,30v-9.5c0-1.328,0.474-2.548,1.261-3.5H6.5C4.57,17,3,18.57,3,20.5V30c0,4.963,4.038,9,9,9
	c2.104,0,4.037-0.731,5.571-1.945C15.969,35.143,15,32.684,15,30z"/>
<circle cx="12" cy="9" r="6"/>
<path d="M22,35c0-7.18,5.82-13,13-13v-1.5c0-1.93-1.57-3.5-3.5-3.5h-11c-1.93,0-3.5,1.57-3.5,3.5V30
	c0,3.694,2.238,6.871,5.428,8.257C22.158,37.214,22,36.127,22,35z"/>
<path d="M35,24c-6.075,0-11,4.925-11,11c0,6.075,4.925,11,11,11s11-4.925,11-11C46,28.925,41.075,24,35,24z M42,36h-6v6
	c0,0.552-0.448,1-1,1s-1-0.448-1-1v-6h-6c-0.552,0-1-0.448-1-1s0.448-1,1-1h6v-6c0-0.552,0.448-1,1-1s1,0.448,1,1v6h6
	c0.552,0,1,0.448,1,1S42.552,36,42,36z"/>
</svg>