<?xml version="1.0" encoding="iso-8859-1"?>
<!-- Generator: Adobe Illustrator 25.4.1, SVG Export Plug-In . SVG Version: 6.00 Build 0)  -->
<svg version="1.1" baseProfile="basic" id="Layer_1"
	 xmlns="http://www.w3.org/2000/svg" xmlns:xlink="http://www.w3.org/1999/xlink" x="0px" y="0px" viewBox="0 0 50 50"
	 xml:space="preserve">
<path d="M33.438,19c0.122,0.345,0.265,0.68,0.434,1H9.5v-1H33.438z"/>
<path id="overlay_00000059273880609060276670000000286496286408711848_" d="M40.5,10c3.59,0,6.5,2.91,6.5,6.5S44.09,23,40.5,23
	S34,20.09,34,16.5S36.91,10,40.5,10z M40.507,12.156c-1.185,0-2.107,1.014-2.107,2.225c0,1.343,0.922,2.317,2.107,2.317
	c1.185,0,2.093-0.974,2.093-2.317C42.6,13.169,41.678,12.156,40.507,12.156z M44.651,19.492v-0.058
	c-0.461-0.908-1.989-1.903-4.151-1.903c-2.162,0-3.69,0.994-4.151,1.888v0.072c0.418,0.98,2.061,2.076,4.151,2.076
	C42.59,21.567,44.204,20.472,44.651,19.492z"/>
<path d="M40.5,24c0.169,0,0.334-0.014,0.5-0.025V35.5c0,1.93-1.57,3.5-3.5,3.5h-25C10.57,39,9,37.43,9,35.5v-21
	c0-1.93,1.57-3.5,3.5-3.5h4c0.753,0,1.499,0.249,2.1,0.7l2.4,1.8c0.429,0.322,0.962,0.5,1.5,0.5h10.938
	c-0.115,0.325-0.216,0.656-0.286,1H22.5c-0.753,0-1.499-0.249-2.1-0.7L18,12.5c-0.43-0.322-0.962-0.5-1.5-0.5h-4
	c-1.378,0-2.5,1.122-2.5,2.5v21c0,1.378,1.122,2.5,2.5,2.5h25c1.378,0,2.5-1.122,2.5-2.5V23.975C40.166,23.986,40.331,24,40.5,24z"
	/>
</svg>