<?xml version="1.0" encoding="iso-8859-1"?>
<!-- Generator: Adobe Illustrator 24.3.0, SVG Export Plug-In . SVG Version: 6.00 Build 0)  -->
<svg version="1.1" xmlns="http://www.w3.org/2000/svg" xmlns:xlink="http://www.w3.org/1999/xlink" x="0px" y="0px"
	 viewBox="0 0 48 48" style="enable-background:new 0 0 48 48;" xml:space="preserve">
<g id="Layer_2" style="display:none;">
</g>
<g id="Layer_1">
	<path style="fill:none;stroke:#000000;stroke-width:3;stroke-linecap:round;stroke-linejoin:round;stroke-miterlimit:10;" d="
		M27.5,35.5h-12c-3.314,0-6-2.686-6-6v-16c0-3.314,2.686-6,6-6h12c3.314,0,6,2.686,6,6v16C33.5,32.814,30.814,35.5,27.5,35.5z"/>
	<path style="fill:none;stroke:#000000;stroke-width:3;stroke-linecap:round;stroke-linejoin:round;stroke-miterlimit:10;" d="
		M33.601,12.601c2.788,0.517,4.899,2.962,4.899,5.899v16c0,3.314-2.686,6-6,6h-12c-2.961,0-5.421-2.145-5.911-4.965"/>
	<circle style="fill:none;stroke:#000000;stroke-width:3;stroke-miterlimit:10;" cx="21.5" cy="15.5" r="3"/>
	<path style="fill:none;stroke:#000000;stroke-width:3;stroke-linecap:round;stroke-linejoin:round;stroke-miterlimit:10;" d="
		M21.5,30.5L21.5,30.5c-2.761,0-5-2.239-5-5v0c0-1.105,0.895-2,2-2h6c1.105,0,2,0.895,2,2v0C26.5,28.261,24.261,30.5,21.5,30.5z"/>
</g>
</svg>