<?xml version="1.0" encoding="utf-8"?><!-- Generator: Adobe Illustrator 15.0.0, SVG Export Plug-In . SVG Version: 6.00 Build 0)  --><!DOCTYPE svg PUBLIC "-//W3C//DTD SVG 1.1//EN" "http://www.w3.org/Graphics/SVG/1.1/DTD/svg11.dtd"><svg xmlns="http://www.w3.org/2000/svg" xmlns:xlink="http://www.w3.org/1999/xlink" viewBox="0 0 50 50" width="50px" height="50px"><rect x="-0.1" fill="none" width="50" height="50"/><circle cx="17" cy="7" r="5"/><circle cx="32.8" cy="7" r="5"/><circle cx="25.027" cy="26.027" r="6"/><path d="M25.027,48.027c-6.156,0-8.368-1.526-8.6-1.7c-0.252-0.188-0.4-0.485-0.4-0.8v-3.5c0-4.963,4.038-9,9-9c4.963,0,9,4.037,9,9v3.5c0,0.314-0.148,0.611-0.4,0.8C33.396,46.501,31.183,48.027,25.027,48.027z"/><path d="M17.723,33.825C16.747,29.912,13.211,27,9,27c-4.962,0-9,4.037-9,9v3.5c0,0.314,0.148,0.611,0.4,0.8C0.632,40.474,2.844,42,9,42c2.133,0,3.783-0.185,5.051-0.432C14.178,38.493,15.569,35.745,17.723,33.825z"/><path d="M41,27c-4.197,0-7.722,2.892-8.713,6.785c2.182,1.924,3.592,4.693,3.718,7.794C37.266,41.82,38.898,42,41,42c6.155,0,8.368-1.526,8.6-1.7c0.252-0.188,0.4-0.485,0.4-0.8V36C50,31.037,45.963,27,41,27z"/><circle cx="41.027" cy="20.027" r="6"/><circle cx="9.027" cy="20.027" r="6"/><path d="M33.027,26.027c0,1.121-0.233,2.188-0.651,3.156c0.975-1.235,2.206-2.241,3.6-2.96c-1.798-1.468-2.948-3.7-2.948-6.196c0-2.511,1.165-4.752,2.98-6.22C35.052,13.297,33.973,13,32.8,13c-3.239,0-5.914,2.144-6.73,5.103C29.988,18.617,33.027,21.97,33.027,26.027z"/><path d="M17.027,20.027c0,2.505-1.16,4.744-2.969,6.212c1.456,0.756,2.728,1.829,3.718,3.146c-0.476-1.022-0.749-2.158-0.749-3.358c0-3.973,2.914-7.269,6.714-7.887C22.938,15.162,20.253,13,17,13c-1.112,0-2.143,0.264-3.062,0.726C15.814,15.191,17.027,17.468,17.027,20.027z"/></svg>