<?xml version="1.0" encoding="iso-8859-1"?>
<!-- Generator: Adobe Illustrator 24.3.0, SVG Export Plug-In . SVG Version: 6.00 Build 0)  -->
<svg version="1.1" id="Layer_1_1_" xmlns="http://www.w3.org/2000/svg" xmlns:xlink="http://www.w3.org/1999/xlink" x="0px" y="0px"
	 viewBox="0 0 48 48" style="enable-background:new 0 0 48 48;" xml:space="preserve">
<path style="fill:none;stroke:#000000;stroke-width:3;stroke-linecap:round;stroke-linejoin:round;stroke-miterlimit:10;" d="
	M5.5,16.5v-7c0-2.209,1.791-4,4-4h7"/>
<path style="fill:none;stroke:#000000;stroke-width:3;stroke-linecap:round;stroke-linejoin:round;stroke-miterlimit:10;" d="
	M16.5,42.5h-7c-2.209,0-4-1.791-4-4v-7"/>
<path style="fill:none;stroke:#000000;stroke-width:3;stroke-linecap:round;stroke-linejoin:round;stroke-miterlimit:10;" d="
	M42.5,31.5v7c0,2.209-1.791,4-4,4h-7"/>
<path style="fill:none;stroke:#000000;stroke-width:3;stroke-linecap:round;stroke-linejoin:round;stroke-miterlimit:10;" d="
	M31.5,5.5h7c2.209,0,4,1.791,4,4v7"/>
<path style="fill:none;stroke:#000000;stroke-width:3;stroke-miterlimit:10;" d="M31.5,31c0,2.485-3.358,4.5-7.5,4.5
	s-7.5-2.015-7.5-4.5v-2.5c0-1.105,0.895-2,2-2h11c1.105,0,2,0.895,2,2V31z"/>
<circle style="fill:none;stroke:#000000;stroke-width:3;stroke-miterlimit:10;" cx="24" cy="17" r="4.5"/>
</svg>