<?xml version="1.0" encoding="utf-8"?>
<!-- Generator: Adobe Illustrator 25.2.3, SVG Export Plug-In . SVG Version: 6.00 Build 0)  -->
<svg version="1.1" id="Layer_1" xmlns="http://www.w3.org/2000/svg" xmlns:xlink="http://www.w3.org/1999/xlink" x="0px" y="0px"
	 viewBox="0 0 48 48" style="enable-background:new 0 0 48 48;" xml:space="preserve">
<style type="text/css">
	.st0{fill:none;stroke:#000000;stroke-width:3;stroke-linejoin:round;stroke-miterlimit:10;}
	.st1{fill:none;stroke:#000000;stroke-width:3;stroke-linecap:round;stroke-linejoin:round;stroke-miterlimit:10;}
</style>
<path class="st0" d="M33.7,35.8L38,39l2.5-4.5h3V25c0-10.8-8.7-19.5-19.5-19.5S4.5,14.2,4.5,25v9.5h3L10,39l4.3-3.2"/>
<path d="M30,31c0-0.6,0.4-1,1-1c0.4,0,0.7,0.2,0.9,0.5c0.2-0.3,0.2-0.7,0-1C31.7,29.2,31.4,29,31,29h-2c-1.1,0-2,0.9-2,2s0.9,2,2,2
	c0.5,0,1-0.2,1.3-0.5c0.1-0.1,0.5-0.5,0.5-0.5C30.4,31.9,30,31.5,30,31z"/>
<path d="M18,31c0-0.6-0.4-1-1-1c-0.4,0-0.7,0.2-0.9,0.5c-0.2-0.3-0.2-0.7,0-1c0.2-0.3,0.5-0.5,0.9-0.5h2c1.1,0,2,0.9,2,2s-0.9,2-2,2
	c-0.5,0-1-0.2-1.3-0.5c-0.1-0.1-0.5-0.5-0.5-0.5C17.6,31.9,18,31.5,18,31z"/>
<path class="st1" d="M36.5,23.5c0,0,0,1.3,0,2c-0.5,9.5-5.9,17-12.5,17s-12-7.5-12.5-17c7.5-2,12-9,12-9v8c4.5-1,8-6,8-6v7
	C35,25.5,36.5,23.5,36.5,23.5z"/>
</svg>