<?xml version="1.0" encoding="utf-8"?><!-- Generator: Adobe Illustrator 15.0.0, SVG Export Plug-In . SVG Version: 6.00 Build 0)  --><!DOCTYPE svg PUBLIC "-//W3C//DTD SVG 1.1//EN" "http://www.w3.org/Graphics/SVG/1.1/DTD/svg11.dtd"><svg xmlns="http://www.w3.org/2000/svg" xmlns:xlink="http://www.w3.org/1999/xlink" viewBox="0 0 50 50" width="50px" height="50px"><path d="M48.565,26.198l-4.598-7.922C42.48,6.319,35.233,0,23,0C7.517,0,2,10.848,2,21c0,4.265,1.271,8.368,3.676,11.866C7.851,36.029,9,39.603,9,43.2V50h24v-5.233l2.007,0.13C39.885,45.346,44,41.455,44,36.6v-4.781l3.485-1.744c0.671-0.372,1.151-0.979,1.354-1.707C49.039,27.646,48.945,26.882,48.565,26.198z M25,33h-4v-4h4V33z M25,17l-1,8h-2l-1-8V7h4V17z"/></svg>