<?xml version="1.0" encoding="iso-8859-1"?><!-- Generator: Adobe Illustrator 22.1.0, SVG Export Plug-In . SVG Version: 6.00 Build 0)  --><svg xmlns="http://www.w3.org/2000/svg" xmlns:xlink="http://www.w3.org/1999/xlink" viewBox="0 0 24 24" width="384px" height="384px"><g id="Sharp"><circle cx="12" cy="15" r="2"/><path d="M16,21v-1c0-1.33-2.665-2-4-2s-4,0.67-4,2v1H16z"/><path d="M22,16v-0.699c0-1.33-1.665-2.051-3-2.051s-3,0.721-3,2.051V16H22z"/><path d="M8,16v-0.699c0-1.33-1.665-2.051-3-2.051s-3,0.721-3,2.051V16H8z"/><circle cx="19" cy="10" r="2"/><circle cx="15" cy="5" r="2"/><circle cx="9" cy="5" r="2"/><circle cx="5" cy="10" r="2"/></g></svg>