<?xml version="1.0" encoding="iso-8859-1"?>
<!-- Generator: Adobe Illustrator 24.0.2, SVG Export Plug-In . SVG Version: 6.00 Build 0)  -->
<svg version="1.1" id="Layer_1_1_" xmlns="http://www.w3.org/2000/svg" xmlns:xlink="http://www.w3.org/1999/xlink" x="0px" y="0px"
	 viewBox="0 0 48 48" style="enable-background:new 0 0 48 48;" xml:space="preserve">
<circle cx="15" cy="12" r="10"/>
<path d="M22,35c0-3.479,1.375-6.632,3.601-8.965C25.493,26.025,25.388,26,25.278,26H3.722C1.67,26,0,27.785,0,29.979V31.5
	c0,3.281,1.696,6.132,4.776,8.027C7.367,41.122,10.82,42,14.5,42c2.969,0,6.028-0.6,8.571-1.837C22.385,38.58,22,36.835,22,35z
	 M14.5,39c-0.815,0-1.639-0.057-2.452-0.161l2.178-7.259L12.818,29h4.364l-1.408,2.581l2.134,7.113C16.79,38.895,15.637,39,14.5,39z
	"/>
<path d="M44.105,32.118l0.895-0.861c-0.401-1.147-0.981-2.205-1.706-3.139l-1.204,0.356c-2.195,0.649-4.485-0.673-5.022-2.898
	l-0.345-1.432C36.162,24.049,35.586,24,35,24c-0.587,0-1.162,0.049-1.723,0.144l-0.345,1.432c-0.537,2.225-2.827,3.547-5.022,2.898
	l-1.204-0.356c-0.724,0.933-1.305,1.992-1.706,3.139l0.895,0.861c1.635,1.574,1.635,4.191,0,5.765L25,38.743
	c0.401,1.147,0.981,2.205,1.706,3.139l1.204-0.356c2.195-0.649,4.485,0.673,5.022,2.898l0.345,1.432C33.838,45.951,34.413,46,35,46
	c0.587,0,1.162-0.049,1.723-0.144l0.345-1.432c0.537-2.225,2.827-3.547,5.022-2.898l1.204,0.356
	c0.724-0.933,1.305-1.992,1.706-3.139l-0.895-0.861C42.469,36.309,42.469,33.691,44.105,32.118z M35,38c-1.657,0-3-1.343-3-3
	c0-1.657,1.343-3,3-3c1.657,0,3,1.343,3,3C38,36.657,36.657,38,35,38z"/>
</svg>