<?xml version="1.0" encoding="iso-8859-1"?>
<!-- Generator: Adobe Illustrator 24.1.0, SVG Export Plug-In . SVG Version: 6.00 Build 0)  -->
<svg version="1.1" id="Layer_1" xmlns="http://www.w3.org/2000/svg" xmlns:xlink="http://www.w3.org/1999/xlink" x="0px" y="0px"
	 viewBox="0 0 50 50" style="enable-background:new 0 0 50 50;" xml:space="preserve">
<g>
</g>
<g>
</g>
<circle cx="25" cy="11" r="6"/>
<path d="M9,22H1l4-8L9,22z"/>
<path d="M49,20.6c0,0.773-0.522,1.4-1.167,1.4h-4.667C42.522,22,42,21.373,42,20.6v-4.2c0-0.773,0.522-1.4,1.167-1.4h4.667
	C48.478,15,49,15.627,49,16.4V20.6z"/>
<path d="M32,30l4.69,4.69c0.739,0.739,1.922,0.784,2.716,0.104l3.702-5.475c0.572-0.845,1.453-1.432,2.454-1.632l1.329-0.266
	C48.117,27.177,49,26.1,49,24.849V24h-5.866c-0.717,0-1.395,0.326-1.843,0.886L38,29l-6.104-6.976
	C31.327,21.373,30.504,21,29.639,21h-9.396c-0.796,0-1.559,0.316-2.121,0.879L11,29l-2.313-3.854C8.261,24.435,7.493,24,6.664,24H1
	v0.525c0,1.439,1.016,2.678,2.427,2.96l0.806,0.161c1.12,0.224,2.085,0.931,2.637,1.931l2.82,5.113
	c0.739,0.739,1.922,0.784,2.716,0.104L18,30v16h14V30z"/>
</svg>