<?xml version="1.0" encoding="iso-8859-1"?>
<!-- Generator: Adobe Illustrator 25.4.1, SVG Export Plug-In . SVG Version: 6.00 Build 0)  -->
<svg version="1.1" baseProfile="basic" id="Layer_1"
	 xmlns="http://www.w3.org/2000/svg" xmlns:xlink="http://www.w3.org/1999/xlink" x="0px" y="0px" viewBox="0 0 72 72"
	 xml:space="preserve">
<path d="M60.451,30.398C64.437,32.703,67,36.981,67,41.79c0,7.112-5.634,13.012-12.559,13.152c-2.19,0.044-33.615,0.044-35.803,0
	C11.118,54.791,5,48.406,5,40.71c0-5.475,3.151-10.396,7.927-12.767c1.391-5.79,6.645-10.133,12.813-10.133
	c0.404,0,0.808,0.019,1.209,0.057c3.461-4.763,8.965-7.617,14.991-7.617c10.244,0,18.579,8.335,18.579,18.58
	C60.52,29.352,60.497,29.875,60.451,30.398z M37.5,28c-1.933,0-3.5,1.567-3.5,3.5s1.567,3.5,3.5,3.5c1.933,0,3.5-1.567,3.5-3.5
	S39.433,28,37.5,28z M30.5,43h14c0-3.866-3.134-7-7-7S30.5,39.134,30.5,43z"/>
</svg>