<?xml version="1.0" encoding="iso-8859-1"?>
<!-- Generator: Adobe Illustrator 24.2.3, SVG Export Plug-In . SVG Version: 6.00 Build 0)  -->
<svg version="1.1" id="Layer_1" xmlns="http://www.w3.org/2000/svg" xmlns:xlink="http://www.w3.org/1999/xlink" x="0px" y="0px"
	 viewBox="0 0 48 48" style="enable-background:new 0 0 48 48;" xml:space="preserve">
<line style="fill:none;stroke:#000000;stroke-width:3;stroke-linecap:round;stroke-miterlimit:10;" x1="42.5" y1="5.5" x2="5.5" y2="42.5"/>
<path style="fill:none;stroke:#000000;stroke-width:3;stroke-linecap:round;stroke-linejoin:round;stroke-miterlimit:10;" d="
	M22,26.519c0.655-0.012,1.322-0.019,2-0.019c11.868,0,20.5,2,20.5,2"/>
<path style="fill:none;stroke:#000000;stroke-width:3;stroke-linecap:round;stroke-linejoin:round;stroke-miterlimit:10;" d="
	M35.367,13c1.875,3.85,3.133,9.403,3.133,13.5"/>
<path style="fill:none;stroke:#000000;stroke-width:3;stroke-linecap:round;stroke-linejoin:round;stroke-miterlimit:10;" d="
	M11.58,36.5c1.116,1.759,2.713,3,4.92,3c4.5,0,7.5-8,7.5-8s2,8,7,8c3.71,0,6.03-3.506,7.031-7.087
	C34.441,31.944,29.588,31.5,24,31.5c-2.69,0-5.21,0.103-7.5,0.262"/>
<g>
	<path d="M3.499,30c0.112,0,0.226-0.012,0.339-0.039c0.052-0.012,3.621-0.824,9.236-1.399l3.295-3.295
		c-1.96,0.136-3.756,0.31-5.346,0.499C11.255,18.433,14.874,10,17.182,10c2.088,0,3.389,1.387,4.434,2.502
		C22.368,13.306,23.02,14,24,14s1.632-0.694,2.385-1.498C27.43,11.387,28.73,10,30.818,10c0.168,0,0.376,0.066,0.612,0.206
		l2.147-2.147C32.699,7.368,31.78,7,30.818,7c-3.388,0-5.412,2.16-6.622,3.45c-0.062,0.065-0.128,0.137-0.196,0.208
		c-0.068-0.071-0.135-0.143-0.196-0.208C22.594,9.16,20.569,7,17.182,7c-5.606,0-9.069,12.228-9.177,19.168
		c-2.93,0.436-4.694,0.836-4.844,0.87c-0.807,0.187-1.309,0.993-1.122,1.799C2.199,29.531,2.816,30,3.499,30z"/>
</g>
</svg>