<?xml version="1.0" encoding="iso-8859-1"?>
<!-- Generator: Adobe Illustrator 26.0.1, SVG Export Plug-In . SVG Version: 6.00 Build 0)  -->
<svg version="1.1" baseProfile="basic" id="Layer_1"
	 xmlns="http://www.w3.org/2000/svg" xmlns:xlink="http://www.w3.org/1999/xlink" x="0px" y="0px" viewBox="0 0 64 64"
	 xml:space="preserve">
<path d="M19.5,8c4.687,0,8.5,4.038,8.5,9s-3.813,9-8.5,9S11,21.962,11,17S14.813,8,19.5,8z"/>
<path d="M27.069,29.969c-0.13,0.128-7.195,6.696-3.507,13.031c0,0-12.051,0-16.068,0c-2.782,0-4.753-2.779-3.783-5.392
	c2.102-5.665,8.245-9.472,15.289-9.472C21.921,28.136,24.681,28.799,27.069,29.969z"/>
<path d="M57.525,39.174C51.034,32.171,39.611,34.343,36,43c0,0-4.129,0-5.505,0c-2.782,0-4.753-2.779-3.783-5.392
	c2.102-5.665,8.245-9.472,15.289-9.472s13.186,3.807,15.289,9.473C57.477,38.115,57.55,38.647,57.525,39.174z"/>
<path d="M42.5,8c4.687,0,8.5,4.038,8.5,9s-3.813,9-8.5,9S34,21.962,34,17S37.813,8,42.5,8z"/>
<path id="overlay_00000103223400348839453900000007760317223102948278_" d="M48,38c5.523,0,10,4.477,10,10c0,5.523-4.477,10-10,10
	s-10-4.477-10-10C38,42.477,42.477,38,48,38z M53,49c0.553,0,1-0.448,1-1s-0.447-1-1-1c-1,0-4,0-4,0s0-3,0-4c0-0.552-0.447-1-1-1
	s-1,0.448-1,1c0,1,0,4,0,4s-3,0-4,0c-0.553,0-1,0.448-1,1s0.447,1,1,1c1,0,4,0,4,0s0,3,0,4c0,0.552,0.447,1,1,1s1-0.448,1-1
	c0-1,0-4,0-4S52,49,53,49z"/>
</svg>