<?xml version="1.0" encoding="iso-8859-1"?>
<!-- Generator: Adobe Illustrator 25.2.3, SVG Export Plug-In . SVG Version: 6.00 Build 0)  -->
<svg version="1.1" baseProfile="basic" id="Layer_1"
	 xmlns="http://www.w3.org/2000/svg" xmlns:xlink="http://www.w3.org/1999/xlink" x="0px" y="0px" viewBox="0 0 72 72"
	 xml:space="preserve">
<path style="fill:#020203;" d="M36,11.5c0,3.04-1.6,5.71-4.01,7.21v-6.88c-0.01-2.74-1.85-4.72-4.38-4.72
	c-2.82,0-4.59,2.61-4.59,5.43v6.18C20.61,17.22,19,14.54,19,11.5C19,6.81,22.81,3,27.5,3S36,6.81,36,11.5z"/>
<path style="fill:#020203;" d="M49.24,27.14c0.303-0.083,6.71-1.469,6.71,11.11c0,3.7,0.36,9.19-1.9,14.3
	c-3.63,8.25-13.77,14.3-25.06,9.86c-3.34-1.32-8.89-4.54-11.55-11.67c-0.98-2.63-1.94-5.48-2.75-8.04
	c-1.45-4.52,0.86-9.39,5.29-11.12L23,30.4v14.1c0,0.28,0.22,0.5,0.5,0.5s0.5-0.22,0.5-0.5l0.02-31.96c0-2.02,1.14-4.26,3.3-4.42
	c2.16-0.16,3.66,1.44,3.67,3.71L31,31.5c0,0.28,0.22,0.5,0.5,0.5s0.5-0.22,0.5-0.5v-9.27c0-1.31,0.64-2.23,1.75-2.23
	c2.42,0,5.25,1.29,5.25,4.29v9.21c0,0.28,0.22,0.5,0.5,0.5s0.5-0.22,0.5-0.5v-8.27c0-1.31,0.64-2.23,1.75-2.23
	c2.42,0,5.25,1.29,5.25,4.29v7.21c0,0.28,0.22,0.5,0.5,0.5s0.5-0.22,0.5-0.5v-6.1C48.01,27.71,48.61,27.31,49.24,27.14z"/>
</svg>