<?xml version="1.0" encoding="iso-8859-1"?>
<!-- Generator: Adobe Illustrator 24.2.1, SVG Export Plug-In . SVG Version: 6.00 Build 0)  -->
<svg version="1.1" id="Layer_1" xmlns="http://www.w3.org/2000/svg" xmlns:xlink="http://www.w3.org/1999/xlink" x="0px" y="0px"
	 viewBox="0 0 48 48" style="enable-background:new 0 0 48 48;" xml:space="preserve">
<path d="M36.5,21H38c2.209,0,4,1.791,4,4v2c0,2.209-1.791,4-4,4h-1.5"/>
<circle cx="25.5" cy="36.5" r="3.5"/>
<path style="fill:none;stroke:#000000;stroke-width:3;stroke-linecap:round;stroke-linejoin:round;stroke-miterlimit:10;" d="
	M24,42.5c-6.596,0-11.978-7.489-12.5-17"/>
<path style="fill:none;stroke:#000000;stroke-width:3;stroke-linecap:round;stroke-linejoin:round;stroke-miterlimit:10;" d="
	M14.5,19.5c0,0,9.5,0,14-4c0,0,8,1,8,10v5c0,3.314-2.686,6-6,6H28"/>
<path style="fill:none;stroke:#000000;stroke-width:3;stroke-linecap:round;stroke-linejoin:round;stroke-miterlimit:10;" d="
	M41.177,17.5C41.177,17.5,41.177,17.5,41.177,17.5C38.156,10.102,32.921,8,30,8c0,0-2-2.5-7-2.5c-9.775,0-18.5,7-18.5,26v5
	c0,2.209,1.791,4,4,4h9.848"/>
<path style="fill:none;stroke:#000000;stroke-width:3;stroke-linecap:round;stroke-linejoin:round;stroke-miterlimit:10;" d="
	M36,40.5h3.5c2.209,0,4-1.791,4-4v-4"/>
<circle cx="19" cy="27" r="2"/>
<circle cx="29" cy="27" r="2"/>
</svg>