<?xml version="1.0" encoding="iso-8859-1"?>
<!-- Generator: Adobe Illustrator 24.2.3, SVG Export Plug-In . SVG Version: 6.00 Build 0)  -->
<svg version="1.1" id="Layer_1" xmlns="http://www.w3.org/2000/svg" xmlns:xlink="http://www.w3.org/1999/xlink" x="0px" y="0px"
	 viewBox="0 0 48 48" style="enable-background:new 0 0 48 48;" xml:space="preserve">
<circle style="fill:none;stroke:#000000;stroke-width:3;stroke-miterlimit:10;" cx="13.5" cy="11.991" r="4.491"/>
<path style="fill:none;stroke:#000000;stroke-width:3;stroke-linecap:round;stroke-linejoin:round;stroke-miterlimit:10;" d="
	M21.5,23.46c0,1.037-0.415,2.035-1.176,2.748C19.189,27.271,17.099,28.5,13.5,28.5s-5.689-1.229-6.824-2.293
	C5.915,25.494,5.5,24.497,5.5,23.46v-0.219c0-0.971,0.796-1.758,1.778-1.758h12.444c0.982,0,1.778,0.787,1.778,1.758V23.46z"/>
<path style="fill:none;stroke:#000000;stroke-width:3;stroke-linecap:round;stroke-linejoin:round;stroke-miterlimit:10;" d="
	M42.5,23.46c0,1.037-0.415,2.035-1.176,2.748C40.189,27.271,38.099,28.5,34.5,28.5s-5.689-1.229-6.824-2.293
	c-0.761-0.713-1.176-1.711-1.176-2.748v-0.219c0-0.971,0.796-1.758,1.778-1.758h12.444c0.982,0,1.778,0.787,1.778,1.758V23.46z"/>
<circle style="fill:none;stroke:#000000;stroke-width:3;stroke-miterlimit:10;" cx="34.5" cy="11.991" r="4.491"/>
<line style="fill:none;stroke:#000000;stroke-width:3;stroke-linecap:round;stroke-linejoin:round;stroke-miterlimit:10;" x1="28.5" y1="37.5" x2="40.786" y2="37.5"/>
<polyline style="fill:none;stroke:#000000;stroke-width:3;stroke-linecap:round;stroke-linejoin:round;stroke-miterlimit:10;" points="
	37.5,33.5 41.5,37.5 37.5,41.5 "/>
<line style="fill:none;stroke:#000000;stroke-width:3;stroke-linecap:round;stroke-linejoin:round;stroke-miterlimit:10;" x1="19.5" y1="37.5" x2="7.214" y2="37.5"/>
<polyline style="fill:none;stroke:#000000;stroke-width:3;stroke-linecap:round;stroke-linejoin:round;stroke-miterlimit:10;" points="
	10.5,33.5 6.5,37.5 10.5,41.5 "/>
</svg>