<?xml version="1.0" encoding="iso-8859-1"?>
<!-- Generator: Adobe Illustrator 24.3.0, SVG Export Plug-In . SVG Version: 6.00 Build 0)  -->
<svg version="1.1" id="Layer_1" xmlns="http://www.w3.org/2000/svg" xmlns:xlink="http://www.w3.org/1999/xlink" x="0px" y="0px"
	 viewBox="0 0 48 48" style="enable-background:new 0 0 48 48;" xml:space="preserve">
<path style="fill:none;stroke:#000000;stroke-width:3;stroke-linecap:round;stroke-linejoin:round;stroke-miterlimit:10;" d="
	M22.409,6.808L8.091,12.505c-0.788,0.314-0.788,1.676,0,1.99l14.318,5.697c1.034,0.411,2.147,0.411,3.181,0l14.318-5.697
	c0.788-0.314,0.788-1.676,0-1.99L25.591,6.808C24.557,6.397,23.443,6.397,22.409,6.808z"/>
<path d="M40.463,21.47l-4.186-1.764l-3.974,1.581L38.741,24L24.98,29.798C24.662,29.932,24.332,30,24,30
	c-0.332,0-0.661-0.068-0.98-0.202L9.259,24l6.438-2.712l-3.974-1.581L7.537,21.47C6.604,21.863,6,22.856,6,24
	s0.604,2.137,1.537,2.53l14.319,6.033C22.547,32.854,23.273,33,24,33s1.453-0.146,2.145-0.438l14.318-6.033
	C41.396,26.137,42,25.144,42,24S41.396,21.863,40.463,21.47z"/>
<g>
	<path d="M40.463,32.111l-4.165-1.657l-3.941,1.661l5.995,2.385l-13.316,5.298c-0.678,0.27-1.395,0.27-2.072,0L9.648,34.5
		l5.994-2.385l-3.941-1.661l-4.165,1.657C6.604,32.482,6,33.42,6,34.5s0.604,2.018,1.537,2.389l14.319,5.696
		c0.691,0.275,1.418,0.413,2.145,0.413s1.453-0.138,2.145-0.413l14.318-5.696C41.396,36.518,42,35.58,42,34.5
		S41.396,32.482,40.463,32.111z"/>
</g>
</svg>