<svg xmlns="http://www.w3.org/2000/svg"  viewBox="0 0 50 50" width="50px" height="50px"><path d="M 25.886719 3.390625 C 22.205719 3.458625 19.511859 4.5814219 17.880859 6.7324219 C 15.946859 9.2814219 15.588547 13.14375 16.810547 18.21875 C 16.359547 18.76975 16.027156 19.618469 16.160156 20.730469 C 16.424156 22.924469 17.298953 23.820594 18.001953 24.183594 C 18.342953 25.916594 19.289937 27.873969 20.210938 28.792969 L 20.212891 29.259766 C 20.221891 30.274766 20.229813 31.155969 20.132812 32.292969 C 19.520813 33.697969 17.484766 34.499828 15.134766 35.423828 C 11.226766 36.960828 6.3620469 38.872453 5.9980469 44.939453 L 5.9375 46 L 32 46 L 32 32.5 C 32 32.483 32.007766 32.468172 32.009766 32.451172 C 31.981766 32.398172 31.941969 32.349922 31.917969 32.294922 C 31.821969 31.159922 31.828891 30.277625 31.837891 29.265625 L 31.839844 28.787109 C 32.736844 27.869109 33.661047 25.920547 33.998047 24.185547 C 34.702047 23.821547 35.577844 22.926422 35.839844 20.732422 C 35.970844 19.641422 35.652844 18.801953 35.214844 18.251953 C 35.795844 16.270953 36.995312 11.126172 34.945312 7.8261719 C 34.085313 6.4431719 32.783312 5.572375 31.070312 5.234375 C 30.125312 4.040375 28.316719 3.390625 25.886719 3.390625 z M 35.984375 27.986328 A 1.0001 1.0001 0 0 0 35 29 L 35 30 L 34 30 A 1.0001 1.0001 0 0 0 33 31 L 33 47 A 1.0001 1.0001 0 0 0 34 48 L 46 48 A 1.0001 1.0001 0 0 0 47 47 L 47 31 A 1.0001 1.0001 0 0 0 46 30 L 45 30 L 45 29 A 1.0001 1.0001 0 1 0 43 29 L 43 30 L 41 30 L 41 29 A 1.0001 1.0001 0 1 0 39 29 L 39 30 L 37 30 L 37 29 A 1.0001 1.0001 0 0 0 35.984375 27.986328 z M 35 32 L 35.832031 32 A 1.0001 1.0001 0 0 0 36.158203 32 L 39.832031 32 A 1.0001 1.0001 0 0 0 40.158203 32 L 43.832031 32 A 1.0001 1.0001 0 0 0 44.158203 32 L 45 32 L 45 46 L 35 46 L 35 32 z M 37 34 A 1.0001 1.0001 0 1 0 37 36 L 43 36 A 1.0001 1.0001 0 1 0 43 34 L 37 34 z M 37 38 A 1.0001 1.0001 0 1 0 37 40 L 42.974609 40 A 1.0001 1.0001 0 1 0 42.974609 38 L 37 38 z M 37 42 A 1.0001 1.0001 0 1 0 37 44 L 42.974609 44 A 1.0001 1.0001 0 1 0 42.974609 42 L 37 42 z"/></svg>