<?xml version="1.0" encoding="iso-8859-1"?><!-- Generator: Adobe Illustrator 23.0.3, SVG Export Plug-In . SVG Version: 6.00 Build 0)  --><svg xmlns="http://www.w3.org/2000/svg" xmlns:xlink="http://www.w3.org/1999/xlink" viewBox="0 0 50 50" width="500px" height="500px"><path style="fill:none;stroke:#000000;stroke-width:2;stroke-linecap:round;stroke-linejoin:round;" d="M32.345,34.863c-1.565-0.732-1.872-0.94-2.367-2.261c-0.098-1.598,0-3.135,0-4.537c0.699-0.398,1.823-2.764,2.124-4.764c0.598,0,1.5-0.602,1.699-2.801c0.098-1.199-0.301-2-0.801-2.102C34.801,16.102,34.5,7,28,7l-1-2c-9.398,0-12.801,7.199-10.102,13.301C16.602,18.5,16,19.199,16.102,20.398c0.297,2.203,1.199,2.801,1.699,2.801c0.199,2.102,1.471,4.411,2.174,4.814c0,1.5,0.147,2.55,0.025,4.288C18.398,37.199,6.5,35.801,6,45h22.415"/><path id="path2090_4_" d="M40.591,31.083c4.859,1.823,7.808,7.65,5.282,12.37l-6.164-6.195l2.353-2.362l-1.472-1.465c-0.811,0.796-2.102,0.965-2.973,0.614l-4.685,4.689l2.654,2.645l1.768-1.762l6.162,6.186c-3.016,1.656-7.196,1.134-10.281-2.071l-1.494,1.489c0.447,0.621,0.823,1.183,1.288,1.654c0.564,0.558,1.25,1.105,1.25,1.105c3.547,2.393,7.434,2.691,11.616,0.188l1.727,1.733l2.364-2.333l-1.738-1.757C53.238,38.29,46.586,30.903,40.591,31.083z"/><circle cx="33.5" cy="48.5" r="1.5"/><path style="fill:none;stroke:#000000;stroke-width:2;stroke-linecap:round;" d="M29.978,33.43c-1.256,0.937-2.997,1.517-4.922,1.517c-1.983,0-3.771-0.616-5.034-1.603"/></svg>