<?xml version="1.0" encoding="iso-8859-1"?>
<!-- Generator: Adobe Illustrator 26.0.1, SVG Export Plug-In . SVG Version: 6.00 Build 0)  -->
<svg version="1.1" baseProfile="basic" id="Layer_1"
	 xmlns="http://www.w3.org/2000/svg" xmlns:xlink="http://www.w3.org/1999/xlink" x="0px" y="0px" viewBox="0 0 72 72"
	 xml:space="preserve">
<path d="M36,36c-6.617,0-12-5.607-12-12.5S29.383,11,36,11s12,5.607,12,12.5S42.617,36,36,36z M36,19c-2.206,0-4,2.019-4,4.5
	s1.794,4.5,4,4.5s4-2.019,4-4.5S38.206,19,36,19z"/>
<path d="M36.807,51c-0.031,0.418-0.455,3.971,1.608,8H21.553c-4.193,0-8.129-4.19-5.841-9.609C18.822,42.03,26.855,37.143,36,37.143
	c3.115,0,6.095,0.579,8.801,1.618c-2.767,1.467-5.013,3.771-6.426,6.57c-0.778-0.111-1.567-0.188-2.375-0.188
	c-4.8,0-9.189,2.03-11.625,5.172C24.158,50.594,24.344,51,24.698,51H36.807z"/>
<path id="overlay_00000116194413241370084350000017922197364145943966_" d="M62.16,50.114c0.485,0.083,0.84,0.504,0.84,0.997v2.029
	c0,0.492-0.354,0.913-0.84,0.997l-1.751,0.301c-0.2,0.739-0.49,1.439-0.863,2.088l1.024,1.45c0.284,0.402,0.237,0.95-0.111,1.299
	l-1.435,1.435c-0.348,0.348-0.896,0.395-1.299,0.111l-1.45-1.024c-0.649,0.373-1.349,0.663-2.088,0.863l-0.301,1.752
	c-0.083,0.485-0.504,0.84-0.997,0.84h-2.029c-0.492,0-0.913-0.355-0.997-0.84l-0.301-1.752c-0.739-0.2-1.439-0.49-2.088-0.863
	l-1.45,1.024c-0.402,0.284-0.95,0.237-1.299-0.111l-1.435-1.435c-0.348-0.348-0.395-0.896-0.111-1.299l1.024-1.45
	c-0.373-0.649-0.663-1.349-0.863-2.088l-1.751-0.301c-0.485-0.083-0.84-0.504-0.84-0.997v-2.029c0-0.492,0.354-0.913,0.84-0.997
	l1.751-0.301c0.2-0.739,0.49-1.439,0.863-2.088l-1.024-1.45c-0.284-0.402-0.237-0.95,0.111-1.299l1.435-1.435
	c0.348-0.348,0.896-0.395,1.299-0.111l1.45,1.024c0.649-0.373,1.349-0.663,2.088-0.863l0.301-1.752
	c0.083-0.485,0.504-0.84,0.997-0.84h2.029c0.492,0,0.913,0.355,0.997,0.84l0.301,1.752c0.739,0.2,1.439,0.49,2.088,0.863l1.45-1.024
	c0.402-0.284,0.95-0.237,1.299,0.111l1.435,1.435c0.348,0.348,0.395,0.896,0.111,1.299l-1.024,1.45
	c0.373,0.649,0.663,1.349,0.863,2.088L62.16,50.114z M51.875,55.25c1.726,0,3.125-1.399,3.125-3.125S53.601,49,51.875,49
	s-3.125,1.399-3.125,3.125S50.149,55.25,51.875,55.25z"/>
</svg>