<?xml version="1.0" encoding="iso-8859-1"?>
<!-- Generator: Adobe Illustrator 23.0.3, SVG Export Plug-In . SVG Version: 6.00 Build 0)  -->
<svg version="1.1" id="Layer_1" xmlns="http://www.w3.org/2000/svg" xmlns:xlink="http://www.w3.org/1999/xlink" x="0px" y="0px"
	 viewBox="0 0 48 48" style="enable-background:new 0 0 48 48;" xml:space="preserve">
<g>
	
		<circle style="fill:none;stroke:#000000;stroke-width:3;stroke-linecap:round;stroke-linejoin:round;" cx="13.983" cy="9.4" r="4.9"/>
	<path style="fill:none;stroke:#000000;stroke-width:3;stroke-linecap:round;stroke-linejoin:round;" d="M22.483,20.2
		c0-3.1-2.5-5.7-5.7-5.7h-5.7c-3.1,0-5.7,2.5-5.7,5.7v7.3c0,1.7,1.3,3,3,3"/>
	<path style="fill:none;stroke:#000000;stroke-width:3;stroke-linecap:round;stroke-linejoin:round;" d="M8.483,35.7v5.8
		c0,1.1,0.9,2,2,2h7c1.1,0,2-0.9,2-2v-11l0,0c1.7,0,3-1.3,3-3v-1.8"/>
	
		<line style="fill:none;stroke:#000000;stroke-width:3;stroke-linecap:round;stroke-linejoin:round;" x1="13.983" y1="42.3" x2="13.983" y2="34.3"/>
</g>
<path style="fill:none;stroke:#000000;stroke-width:3;stroke-linecap:round;stroke-linejoin:round;stroke-miterlimit:10;" d="
	M36.725,13.916c-0.802-0.194-1.656-0.253-2.537-0.154c-3.141,0.354-5.759,2.819-6.277,5.937c-0.512,3.084,0.938,5.874,3.294,7.35
	v6.577"/>
<path style="fill:none;stroke:#000000;stroke-width:3;stroke-linecap:round;stroke-linejoin:round;stroke-miterlimit:10;" d="
	M31.205,38.08v1.608c0,0.225,0.089,0.442,0.249,0.6l2.548,2.548c0.332,0.332,0.87,0.332,1.201,0l3.045-3.045
	c0.332-0.332,0.332-0.87,0-1.201l-1.947-1.946l1.947-1.947c0.332-0.332,0.332-0.87,0-1.201l-1.947-1.947l2.299-2.299
	c0.16-0.16,0.249-0.375,0.249-0.6v-1.628c2.034-1.272,3.397-3.512,3.397-6.088c0-1.85-0.696-3.538-1.841-4.816"/>
<circle cx="35.027" cy="19.235" r="1.698"/>
</svg>