<?xml version="1.0" encoding="iso-8859-1"?>
<!-- Generator: Adobe Illustrator 25.0.0, SVG Export Plug-In . SVG Version: 6.00 Build 0)  -->
<svg version="1.1" baseProfile="basic" id="Layer_1"
	 xmlns="http://www.w3.org/2000/svg" xmlns:xlink="http://www.w3.org/1999/xlink" x="0px" y="0px" viewBox="0 0 72 72"
	 xml:space="preserve">
<path d="M61,61.174l-10.394-4.388l6.606-3.095L61,61.174z"/>
<path d="M46.5,29C56.701,29,65,35.729,65,44s-8.299,15-18.5,15S28,52.271,28,44S36.299,29,46.5,29z M41.5,45
	c1.381,0,2.5-1.119,2.5-2.5c0-1.381-1.119-2.5-2.5-2.5c-1.381,0-2.5,1.119-2.5,2.5C39,43.881,40.119,45,41.5,45z M51.5,45
	c1.381,0,2.5-1.119,2.5-2.5c0-1.381-1.119-2.5-2.5-2.5S49,41.119,49,42.5C49,43.881,50.119,45,51.5,45z"/>
<path d="M12.646,48.651l3.788-7.484l6.606,3.095L12.646,48.651z"/>
<path d="M25,44c0,0.933,0.111,1.842,0.274,2.737C14.913,45.284,7,37.886,7,29c0-9.925,9.869-18,22-18
	c11.033,0,20.193,6.68,21.761,15.357C49.383,26.125,47.959,26,46.5,26C34.626,26,25,34.059,25,44z M36.5,21
	c-1.381,0-2.5,1.119-2.5,2.5c0,1.381,1.119,2.5,2.5,2.5c1.381,0,2.5-1.119,2.5-2.5C39,22.119,37.881,21,36.5,21z M21.5,26
	c1.381,0,2.5-1.119,2.5-2.5c0-1.381-1.119-2.5-2.5-2.5S19,22.119,19,23.5C19,24.881,20.119,26,21.5,26z"/>
</svg>