<?xml version="1.0" encoding="iso-8859-1"?>
<!-- Generator: Adobe Illustrator 26.0.1, SVG Export Plug-In . SVG Version: 6.00 Build 0)  -->
<svg version="1.1" baseProfile="basic" id="Layer_1"
	 xmlns="http://www.w3.org/2000/svg" xmlns:xlink="http://www.w3.org/1999/xlink" x="0px" y="0px" viewBox="0 0 64 64"
	 xml:space="preserve">
<path d="M32,31c-5.514,0-10-4.71-10-10.5S26.486,10,32,10s10,4.71,10,10.5S37.514,31,32,31z M32,14c-3.309,0-6,2.916-6,6.5
	s2.691,6.5,6,6.5s6-2.916,6-6.5S35.309,14,32,14z"/>
<path d="M35,48c0,1.397,0.226,2.739,0.634,4H17.055c-3.167,0-5.413-3.161-4.31-6.135c2.601-7.011,10.23-11.723,18.985-11.723
	c3.707,0,7.207,0.852,10.214,2.358c-1.366,0.721-2.581,1.682-3.605,2.821c-2.037-0.755-4.281-1.18-6.609-1.18
	c-6.98,0-13.245,3.748-15.235,9.114C16.418,47.465,16.548,48,17.055,48H35z"/>
<path id="overlay_00000032614251745864111750000011198280737541029255_" d="M57.245,46.192C57.681,46.267,58,46.646,58,47.088v1.824
	c0,0.443-0.319,0.821-0.755,0.896l-1.574,0.271c-0.18,0.664-0.44,1.294-0.776,1.877l0.921,1.303c0.255,0.361,0.213,0.854-0.1,1.167
	l-1.29,1.29c-0.313,0.313-0.806,0.355-1.167,0.1l-1.303-0.921c-0.583,0.335-1.213,0.596-1.877,0.776l-0.271,1.574
	C49.733,57.681,49.354,58,48.912,58h-1.824c-0.443,0-0.821-0.319-0.896-0.755l-0.271-1.574c-0.664-0.18-1.294-0.44-1.877-0.776
	l-1.303,0.921c-0.361,0.255-0.854,0.213-1.167-0.1l-1.29-1.29c-0.313-0.313-0.355-0.806-0.1-1.167l0.921-1.303
	c-0.335-0.583-0.596-1.213-0.776-1.877l-1.574-0.271C38.319,49.733,38,49.354,38,48.912v-1.824c0-0.443,0.319-0.821,0.755-0.896
	l1.574-0.271c0.18-0.664,0.44-1.294,0.776-1.877l-0.921-1.303c-0.255-0.361-0.213-0.854,0.1-1.167l1.29-1.29
	c0.313-0.313,0.806-0.355,1.167-0.1l1.303,0.921c0.583-0.335,1.213-0.596,1.877-0.776l0.271-1.574
	C46.267,38.319,46.646,38,47.088,38h1.824c0.443,0,0.821,0.319,0.896,0.755l0.271,1.574c0.664,0.18,1.294,0.44,1.877,0.776
	l1.303-0.921c0.361-0.255,0.854-0.213,1.167,0.1l1.29,1.29c0.313,0.313,0.355,0.806,0.1,1.167l-0.921,1.303
	c0.335,0.583,0.596,1.213,0.776,1.877L57.245,46.192z M48,52c2.209,0,4-1.791,4-4s-1.791-4-4-4s-4,1.791-4,4S45.791,52,48,52z"/>
</svg>