<?xml version="1.0" encoding="iso-8859-1"?>
<!-- Generator: Adobe Illustrator 24.3.0, SVG Export Plug-In . SVG Version: 6.00 Build 0)  -->
<svg version="1.1" id="Layer_1" xmlns="http://www.w3.org/2000/svg" xmlns:xlink="http://www.w3.org/1999/xlink" x="0px" y="0px"
	 viewBox="0 0 48 48" style="enable-background:new 0 0 48 48;" xml:space="preserve">
<path d="M40.463,32.111l-4.165-1.657h0l-9.377,3.951C25.987,34.8,25.004,35,24,35c-1.004,0-1.988-0.2-2.923-0.595l-9.375-3.951h0
	l-4.165,1.657C6.604,32.482,6,33.42,6,34.5s0.604,2.018,1.537,2.389l14.319,5.696c0.691,0.275,1.418,0.413,2.145,0.413
	s1.453-0.138,2.145-0.413l14.318-5.696C41.396,36.518,42,35.58,42,34.5S41.396,32.482,40.463,32.111z"/>
<path d="M24,21.998c-0.727,0-1.453-0.138-2.145-0.413L7.537,15.889C6.604,15.518,6,14.58,6,13.5s0.604-2.018,1.537-2.389
	l14.318-5.696c0,0,0,0,0,0c1.383-0.551,2.906-0.551,4.289,0l14.319,5.696C41.396,11.482,42,12.42,42,13.5s-0.604,2.018-1.537,2.389
	l-14.318,5.696C25.453,21.86,24.727,21.998,24,21.998z"/>
<path d="M40.463,21.47l-4.186-1.764l0,0l-9.393,3.737c-0.925,0.368-1.895,0.555-2.884,0.555s-1.96-0.187-2.885-0.555l-9.392-3.737
	L7.537,21.47C6.604,21.863,6,22.856,6,24s0.604,2.137,1.537,2.53l14.319,6.033C22.547,32.854,23.273,33,24,33
	s1.453-0.146,2.145-0.438l14.318-6.033C41.396,26.137,42,25.144,42,24S41.396,21.863,40.463,21.47z"/>
</svg>