<?xml version="1.0" encoding="iso-8859-1"?>
<!-- Generator: Adobe Illustrator 24.1.2, SVG Export Plug-In . SVG Version: 6.00 Build 0)  -->
<svg version="1.1" id="Layer_1" xmlns="http://www.w3.org/2000/svg" xmlns:xlink="http://www.w3.org/1999/xlink" x="0px" y="0px"
	 viewBox="0 0 64 64" style="enable-background:new 0 0 64 64;" xml:space="preserve">
<path d="M20,17c0-2.761,2.239-5,5-5s5,2.239,5,5c0,0.121,0,0.594,0,0.714c0,2.761-2.143,5.714-5,5.714s-5-2.953-5-5.714
	C20,17.594,20,17.121,20,17z"/>
<path d="M35,17.072c0-2.761,2.239-5,5-5s5,2.239,5,5c0,0.121,0,0.594,0,0.714c0,2.761-2.143,5.714-5,5.714s-5-2.953-5-5.714
	C35,17.666,35,17.193,35,17.072z"/>
<path d="M32.015,51c-4.457,0-8.418-2.089-10.982-5.334l0.414-2.112c0.19-0.971,0.884-1.759,1.822-2.074
	C25.08,40.872,28.321,40,32.018,40c3.699,0,6.942,0.873,8.752,1.481c0.936,0.315,1.629,1.104,1.818,2.073L43,45.662
	C40.436,48.909,36.473,51,32.015,51z"/>
<path d="M27,32c0-2.761,2.239-5,5-5s5,2.239,5,5c0,0.121,0,0.594,0,0.714c0,2.761-2.143,5.714-5,5.714s-5-2.953-5-5.714
	C27,32.594,27,32.121,27,32z"/>
<path d="M62.088,38.054c-0.189-0.969-0.882-1.758-1.818-2.073c-1.81-0.608-5.053-1.481-8.752-1.481c-3.697,0-6.938,0.872-8.749,1.48
	c-0.938,0.315-1.632,1.103-1.822,2.074l-0.062,0.317c0.296,0.09,0.581,0.179,0.842,0.267c1.953,0.657,3.411,2.321,3.805,4.341
	l0.248,1.271c1.751,0.792,3.686,1.25,5.734,1.25c4.458,0,8.421-2.091,10.985-5.338L62.088,38.054z"/>
<path d="M18.503,42.978c0.396-2.022,1.856-3.685,3.811-4.342c0.251-0.084,0.522-0.17,0.805-0.256l-0.064-0.326
	c-0.189-0.969-0.882-1.758-1.818-2.073c-1.81-0.608-5.053-1.481-8.752-1.481c-3.698,0-6.939,0.872-8.749,1.48
	c-0.938,0.315-1.632,1.103-1.822,2.074L1.5,40.166C4.064,43.411,8.025,45.5,12.482,45.5c2.064,0,4.013-0.465,5.775-1.268
	L18.503,42.978z"/>
<path d="M7.5,26.5c0-2.761,2.239-5,5-5s5,2.239,5,5c0,0.121,0,0.594,0,0.714c0,2.761-2.143,5.714-5,5.714s-5-2.953-5-5.714
	C7.5,27.094,7.5,26.621,7.5,26.5z"/>
<path d="M27.007,25.772c-0.909,0.412-1.914,0.656-3.007,0.656c-1.327,0-2.528-0.356-3.578-0.946
	c0.045,0.334,0.078,0.672,0.078,1.018v0.714c0,1.74-0.557,3.527-1.54,5.029c1.245,0.278,2.345,0.596,3.234,0.895
	c0.736,0.248,1.401,0.638,1.966,1.137c-0.101-0.518-0.16-1.04-0.16-1.561V32C24,29.48,25.179,27.238,27.007,25.772z"/>
<path d="M46.5,26.5c0-2.761,2.239-5,5-5s5,2.239,5,5c0,0.121,0,0.594,0,0.714c0,2.761-2.143,5.714-5,5.714s-5-2.953-5-5.714
	C46.5,27.094,46.5,26.621,46.5,26.5z"/>
<path d="M43.5,26.5c0-0.32,0.029-0.632,0.069-0.941C42.52,26.146,41.323,26.5,40,26.5c-1.017,0-1.958-0.213-2.817-0.574
	C38.902,27.393,40,29.568,40,32v0.714c0,0.522-0.058,1.046-0.16,1.565c0.567-0.501,1.235-0.895,1.974-1.143
	c0.887-0.298,1.984-0.615,3.226-0.892c-0.983-1.502-1.54-3.289-1.54-5.03V26.5z"/>
</svg>