<?xml version="1.0" encoding="iso-8859-1"?>
<!-- Generator: Adobe Illustrator 24.0.2, SVG Export Plug-In . SVG Version: 6.00 Build 0)  -->
<svg version="1.1" id="Layer_1_1_" xmlns="http://www.w3.org/2000/svg" xmlns:xlink="http://www.w3.org/1999/xlink" x="0px" y="0px"
	 viewBox="0 0 48 48" style="enable-background:new 0 0 48 48;" xml:space="preserve">
<circle style="fill:none;stroke:#000000;stroke-width:3;stroke-miterlimit:5;" cx="26" cy="9" r="4.5"/>
<path d="M15.968,34.489C14.909,35.426,13.522,36,12,36c-3.309,0-6-2.691-6-6v-9.5C6,20.225,6.224,20,6.5,20h8.525
	c0.103-1.133,0.548-2.169,1.236-3H6.5C4.57,17,3,18.57,3,20.5V30c0,4.963,4.038,9,9,9c2.104,0,4.037-0.731,5.571-1.945
	C16.924,36.283,16.386,35.419,15.968,34.489z"/>
<circle style="fill:none;stroke:#000000;stroke-width:3;stroke-miterlimit:5;" cx="12" cy="9" r="4.5"/>
<path d="M22,35c0-0.174,0.019-0.344,0.026-0.517C20.787,33.383,20,31.784,20,30v-9.5c0-0.275,0.224-0.5,0.5-0.5h11
	c0.276,0,0.5,0.225,0.5,0.5v1.862C32.965,22.134,33.966,22,35,22v-1.5c0-1.93-1.57-3.5-3.5-3.5h-11c-1.93,0-3.5,1.57-3.5,3.5V30
	c0,3.694,2.238,6.871,5.428,8.257C22.158,37.214,22,36.127,22,35z"/>
<path d="M35,24c-6.075,0-11,4.925-11,11c0,6.075,4.925,11,11,11s11-4.925,11-11C46,28.925,41.075,24,35,24z M42,36h-6v6
	c0,0.552-0.448,1-1,1s-1-0.448-1-1v-6h-6c-0.552,0-1-0.448-1-1s0.448-1,1-1h6v-6c0-0.552,0.448-1,1-1s1,0.448,1,1v6h6
	c0.552,0,1,0.448,1,1S42.552,36,42,36z"/>
</svg>