<?xml version="1.0" encoding="iso-8859-1"?>
<!-- Generator: Adobe Illustrator 23.0.3, SVG Export Plug-In . SVG Version: 6.00 Build 0)  -->
<svg version="1.1" id="Layer_1" xmlns="http://www.w3.org/2000/svg" xmlns:xlink="http://www.w3.org/1999/xlink" x="0px" y="0px"
	 viewBox="0 0 50 50" style="enable-background:new 0 0 50 50;" xml:space="preserve">
<path style="fill:none;stroke:#000000;stroke-width:2;stroke-linecap:round;stroke-linejoin:round;stroke-miterlimit:2.6131;" d="
	M42.644,40.601c0.356-0.195,1.618-1.513,1.618-2.703c0.28-0.023,0.721-0.309,0.85-1.434c0.069-0.604-0.149-0.985-0.375-1.051
	c0.89-2.765,0.404-6.362-3.453-6.362l-0.756-1.05c-5.318,0-6.517,3.281-5.29,7.393c-0.167,0.106-0.445,0.447-0.375,1.051
	c0.13,1.125,0.571,1.411,0.85,1.434c0,1.26,1.282,2.527,1.64,2.721"/>
<path style="fill:none;stroke:#000000;stroke-width:2;stroke-linecap:round;stroke-linejoin:round;stroke-miterlimit:2.6131;" d="
	M37.353,40.6c0,0.909,0,1.329,0,2.142C36.499,45.14,31.266,44.378,31,49h18c-0.269-4.621-5.502-3.861-6.356-6.257
	c0-0.882,0-1.392,0-2.142"/>
<path d="M37.353,40.6c-0.358-0.194-1.64-1.461-1.64-2.721c-0.279-0.023-0.72-0.309-0.85-1.434c-0.07-0.604,0.208-0.945,0.375-1.051
	c-1.227-4.112-0.028-7.393,5.29-7.393l0.756,1.05c3.857,0,4.343,3.597,3.453,6.362c0.226,0.066,0.444,0.447,0.375,1.051
	c-0.129,1.125-0.57,1.411-0.85,1.434c0,1.19-1.262,2.508-1.618,2.703c0,0.091,0,0.171,0,0.255C46.817,40.121,50,36.479,50,32.099
	c0-4.729-3.614-8.92-8.016-9.521C41.995,22.379,42,22.188,42,22c0-7.29-5.713-13-13.007-13c-5.065,0-9.362,2.672-11.507,7.062
	C16.387,15.371,15.062,15,13.64,15c-3.637,0-6.416,2.766-6.639,6.512C2.54,23.021,0,26.562,0,31.331C0,36.663,4.338,41,9.67,41
	h27.683C37.353,40.872,37.353,40.751,37.353,40.6z"/>
</svg>