<?xml version="1.0" encoding="iso-8859-1"?><!-- Generator: Adobe Illustrator 19.1.1, SVG Export Plug-In . SVG Version: 6.00 Build 0)  --><svg xmlns="http://www.w3.org/2000/svg" xmlns:xlink="http://www.w3.org/1999/xlink" viewBox="0 0 50 50" width="50px" height="50px"><path d="M40.533,22c-1.721,0-2.505,1.188-2.505,2.531V27c0,0.552-0.447,1-1,1C36.475,28,36,27.552,36,27v-4.521C36.021,21.271,35.272,20,33.521,20s-2.506,1.363-2.506,2.506L31,25c0,0.552-0.447,1-1,1c-0.552,0-1.015-0.447-1.016-0.999V25l0.015-3.494C29,20.495,28.219,19,26.51,19c-1.71,0-2.506,1.495-2.506,2.506L24,25c0,0.552-0.448,1-1,1s-1-0.448-1-1V9.548c0-1.839-1.495-2.506-2.502-2.506C18.532,7.042,17,7.691,17,9.432V34.05l-6.025-6.025c-1.367-1.367-3.583-1.367-4.95,0c-1.367,1.366-1.367,3.583,0,4.949L17,44c0.684,0.684,4.125,3.994,8.792,3.994C25.829,47.996,34,48,34,48c4.424,0,9-3.366,9-9c0,0,0-14.087,0-14.417C43,23.208,42.254,22,40.533,22z"/><path d="M19.5,2C15.364,2,12,5.364,12,9.5c0,2.446,1.182,4.616,3,5.986v-2.833c-0.628-0.894-1-1.98-1-3.152C14,6.467,16.467,4,19.5,4S25,6.467,25,9.5c0,1.173-0.372,2.259-1,3.152v2.833c1.818-1.37,3-3.539,3-5.986C27,5.364,23.636,2,19.5,2z"/></svg>