<?xml version="1.0" encoding="iso-8859-1"?>
<!-- Generator: Adobe Illustrator 29.3.1, SVG Export Plug-In . SVG Version: 9.03 Build 55982)  -->
<svg version="1.1" baseProfile="basic" id="Layer_1"
	 xmlns="http://www.w3.org/2000/svg" xmlns:xlink="http://www.w3.org/1999/xlink" x="0px" y="0px" viewBox="0 0 24 24"
	 xml:space="preserve">
<path d="M24,19c0,2.761-2.239,5-5,5s-5-2.239-5-5s2.239-5,5-5S24,16.239,24,19z M22,18.375h-2.375V16h-1.25v2.375H16v1.25h2.375V22
	h1.25v-2.375H22V18.375z"/>
<path style="fill:none;stroke:#000000;stroke-width:1.5;stroke-linecap:square;stroke-miterlimit:10;" d="M15.25,6
	c0-1.795-1.455-3.25-3.25-3.25S8.75,4.205,8.75,6c0,0.171,0,0.829,0,1c0,1.795,1.455,3.25,3.25,3.25S15.25,8.795,15.25,7
	C15.25,6.829,15.25,6.171,15.25,6z"/>
<path d="M12.525,19.5H4.5v-0.892L9.518,14.5h4.798c0.38-0.395,0.809-0.739,1.278-1.029L15.018,13H8.982L3,17.897V21h9.817
	C12.662,20.522,12.565,20.019,12.525,19.5z"/>
</svg>