<?xml version="1.0" encoding="iso-8859-1"?>
<!-- Generator: Adobe Illustrator 28.7.1, SVG Export Plug-In . SVG Version: 9.03 Build 54978)  -->
<svg version="1.1" baseProfile="basic" id="Layer_1"
	 xmlns="http://www.w3.org/2000/svg" xmlns:xlink="http://www.w3.org/1999/xlink" x="0px" y="0px" viewBox="0 0 24 24"
	 xml:space="preserve">
<circle style="fill:none;stroke:#000000;stroke-width:2.5;stroke-miterlimit:10;" cx="18.5" cy="18.5" r="3.25"/>
<path d="M19.799,13.601C19.728,13.251,19.42,13,19.064,13h-1.127c-0.357,0-0.664,0.251-0.735,0.601L16.917,15h3.166L19.799,13.601z"
	/>
<path d="M14.906,14.926c-0.338-0.113-0.709,0.027-0.888,0.336l-0.564,0.976c-0.178,0.309-0.114,0.701,0.153,0.937l1.07,0.946
	l1.583-2.742L14.906,14.926z"/>
<path d="M13.608,19.825c-0.267,0.236-0.331,0.628-0.153,0.937l0.564,0.976c0.178,0.309,0.55,0.449,0.888,0.336l1.354-0.454
	l-1.583-2.742L13.608,19.825z"/>
<path d="M17.201,23.399C17.272,23.749,17.58,24,17.936,24h1.127c0.357,0,0.664-0.251,0.735-0.601L20.083,22h-3.166L17.201,23.399z"
	/>
<path d="M22.094,22.074c0.338,0.113,0.709-0.027,0.888-0.336l0.564-0.976c0.178-0.309,0.114-0.701-0.153-0.937l-1.07-0.946
	l-1.583,2.742L22.094,22.074z"/>
<path d="M23.392,17.175c0.267-0.236,0.331-0.628,0.153-0.937l-0.564-0.976c-0.178-0.309-0.55-0.449-0.888-0.336l-1.354,0.454
	l1.583,2.742L23.392,17.175z"/>
<path style="fill:none;stroke:#000000;stroke-width:2.5;stroke-linecap:round;stroke-linejoin:round;stroke-miterlimit:10;" d="
	M10.75,14.25h-0.697c-3.775,0.922-5.803,3.481-5.803,3.481v2.019h5.5"/>
<path style="fill:none;stroke:#000000;stroke-width:2.5;stroke-linecap:round;stroke-linejoin:round;stroke-miterlimit:10;" d="
	M14.75,6c0-1.519-1.231-2.75-2.75-2.75S9.25,4.481,9.25,6c0,0.171,0,0.829,0,1c0,1.519,1.231,2.75,2.75,2.75S14.75,8.519,14.75,7
	C14.75,6.829,14.75,6.171,14.75,6z"/>
<path d="M8,15l1.207,1.563c0.418,0.542,1.219,0.586,1.695,0.094L12,15.519V14c0,0-1.47,0-2,0C8.739,14,8,15,8,15z"/>
</svg>