<?xml version="1.0" encoding="iso-8859-1"?><!-- Generator: Adobe Illustrator 21.0.2, SVG Export Plug-In . SVG Version: 6.00 Build 0)  --><svg xmlns="http://www.w3.org/2000/svg" xmlns:xlink="http://www.w3.org/1999/xlink" viewBox="0 0 80 80" width="480px" height="480px"><circle cx="41" cy="48" r="1"/><circle cx="45" cy="48" r="1"/><circle cx="45" cy="33" r="1"/><circle cx="21" cy="33" r="1"/><circle cx="33" cy="45" r="1"/><circle cx="33" cy="21" r="1"/><ellipse transform="matrix(0.7071 -0.7071 0.7071 0.7071 -10.1546 24.5146)" cx="24.514" cy="24.515" rx="1" ry="1"/><ellipse transform="matrix(0.7071 -0.7071 0.7071 0.7071 -22.1546 29.4852)" cx="24.514" cy="41.486" rx="1" ry="1"/><ellipse transform="matrix(0.7071 -0.7071 0.7071 0.7071 -5.184 36.5146)" cx="41.485" cy="24.515" rx="1" ry="1"/><ellipse transform="matrix(0.9239 -0.3827 0.3827 0.9239 -7.5154 19.0335)" cx="44.086" cy="28.408" rx="1" ry="1"/><ellipse transform="matrix(0.9239 -0.3827 0.3827 0.9239 -12.718 11.2474)" cx="21.913" cy="37.592" rx="1" ry="1"/><ellipse transform="matrix(0.9239 -0.3827 0.3827 0.9239 -6.2236 12.5392)" cx="28.408" cy="21.914" rx="1" ry="1"/><ellipse transform="matrix(0.3827 -0.9239 0.9239 0.3827 -7.5157 63.9369)" cx="44.086" cy="37.592" rx="1" ry="1"/><ellipse transform="matrix(0.3827 -0.9239 0.9239 0.3827 -12.7182 37.7819)" cx="21.913" cy="28.408" rx="1" ry="1"/><ellipse transform="matrix(0.3827 -0.9239 0.9239 0.3827 -23.1944 53.4607)" cx="28.408" cy="44.087" rx="1" ry="1"/><ellipse transform="matrix(0.3827 -0.9239 0.9239 0.3827 2.9605 48.2581)" cx="37.592" cy="21.914" rx="1" ry="1"/><circle cx="49" cy="48" r="1"/><circle cx="53" cy="48" r="1"/><circle cx="57" cy="48" r="1"/><circle cx="61" cy="48" r="1"/><circle cx="65" cy="48" r="1"/><circle cx="69" cy="48" r="1"/><circle style="fill:none;stroke:#000000;stroke-width:2;stroke-miterlimit:10;" cx="33" cy="33" r="6"/><path style="fill:none;stroke:#000000;stroke-width:2;stroke-miterlimit:10;" d="M72,72H38V45c0-1.657,1.343-3,3-3h28c1.657,0,3,1.343,3,3V72z"/><path d="M35,57h-3.823l-2.175-5.438l-0.501-0.121c-1.888-0.459-3.69-1.205-5.357-2.221l-0.44-0.268l-5.385,2.308l-2.578-2.578l2.308-5.386l-0.268-0.44c-1.014-1.663-1.761-3.465-2.221-5.356l-0.122-0.501L9,34.823v-3.646l5.437-2.175l0.122-0.501c0.46-1.892,1.208-3.693,2.221-5.356l0.268-0.44l-2.308-5.386l2.578-2.578l5.385,2.308l0.44-0.268c1.667-1.016,3.469-1.762,5.357-2.221l0.501-0.121L31.177,9h3.646l2.175,5.438l0.501,0.121c1.888,0.459,3.69,1.205,5.357,2.221l0.44,0.268l5.385-2.308l2.578,2.578l-2.308,5.386l0.268,0.44c1.014,1.663,1.761,3.465,2.221,5.356l0.122,0.501L57,31.177v3.646l-5.438,2.175l-0.122,0.501c-0.123,0.508-0.289,1.005-0.454,1.501h2.099c0.053-0.176,0.122-0.347,0.17-0.524L59,36.177v-6.354l-5.745-2.299c-0.47-1.741-1.162-3.409-2.062-4.974l2.438-5.689l-4.493-4.492l-5.689,2.438c-1.566-0.901-3.235-1.593-4.975-2.062L36.177,7h-6.354l-2.297,5.745c-1.739,0.469-3.408,1.16-4.975,2.062l-5.689-2.438l-4.493,4.492l2.438,5.689c-0.9,1.564-1.592,3.232-2.062,4.974L7,29.823v6.354l5.745,2.299c0.47,1.741,1.162,3.409,2.062,4.974l-2.438,5.689l4.493,4.492l5.689-2.438c1.566,0.901,3.235,1.593,4.975,2.062L29.823,59H35V57z"/><polyline style="fill:none;stroke:#000000;stroke-width:2;stroke-miterlimit:10;" points="55.479,51.942 49.27,57.929 45.925,54.498 "/><polyline style="fill:none;stroke:#000000;stroke-width:2;stroke-miterlimit:10;" points="55.479,60.942 49.27,66.929 45.925,63.498 "/></svg>