<?xml version="1.0" encoding="iso-8859-1"?>
<!-- Generator: Adobe Illustrator 25.2.3, SVG Export Plug-In . SVG Version: 6.00 Build 0)  -->
<svg version="1.1" baseProfile="basic" id="Layer_1"
	 xmlns="http://www.w3.org/2000/svg" xmlns:xlink="http://www.w3.org/1999/xlink" x="0px" y="0px" viewBox="0 0 48 48"
	 xml:space="preserve">
<polyline style="fill:none;stroke:#000000;stroke-width:2;stroke-linecap:round;stroke-linejoin:round;stroke-miterlimit:10;" points="
	34.609,11.95 41.458,11.914 40.187,5.184 "/>
<path style="fill:none;stroke:#000000;stroke-width:2;stroke-linecap:round;stroke-linejoin:round;stroke-miterlimit:10;" d="
	M5.154,26.045C5.085,25.373,5.05,24.691,5.05,24C5.05,12.982,13.982,4.05,25,4.05c6.461,0,12.204,3.071,15.85,7.833"/>
<polyline style="fill:none;stroke:#000000;stroke-width:2;stroke-linecap:round;stroke-linejoin:round;stroke-miterlimit:10;" points="
	15.391,36.05 8.542,36.086 9.813,42.816 "/>
<path style="fill:none;stroke:#000000;stroke-width:2;stroke-linecap:round;stroke-linejoin:round;stroke-miterlimit:10;" d="
	M44.846,21.955c0.069,0.672,0.104,1.354,0.104,2.045c0,11.018-8.932,19.95-19.95,19.95c-6.461,0-12.204-3.071-15.85-7.833"/>
<path style="fill:none;stroke:#000000;stroke-width:2;stroke-linecap:round;stroke-linejoin:round;stroke-miterlimit:10;" d="
	M35.526,27.768l-1.926-1.112C33.86,25.816,34,24.925,34,24s-0.14-1.816-0.399-2.656l1.926-1.112
	c0.478-0.276,0.642-0.888,0.366-1.366l-1-1.732c-0.276-0.478-0.888-0.642-1.366-0.366l-1.936,1.118
	c-1.209-1.303-2.796-2.247-4.591-2.655V13c0-0.552-0.448-1-1-1h-2c-0.552,0-1,0.448-1,1v2.231c-1.795,0.408-3.381,1.352-4.591,2.655
	l-1.936-1.118c-0.478-0.276-1.09-0.112-1.366,0.366l-1,1.732c-0.276,0.478-0.112,1.09,0.366,1.366l1.926,1.112
	C16.14,22.184,16,23.075,16,24s0.14,1.816,0.399,2.656l-1.926,1.112c-0.478,0.276-0.642,0.888-0.366,1.366l1,1.732
	c0.276,0.478,0.888,0.642,1.366,0.366l1.936-1.118c1.209,1.303,2.796,2.247,4.591,2.655V35c0,0.552,0.448,1,1,1h2
	c0.552,0,1-0.448,1-1v-2.231c1.795-0.408,3.381-1.352,4.591-2.655l1.936,1.118c0.478,0.276,1.09,0.112,1.366-0.366l1-1.732
	C36.168,28.656,36.005,28.044,35.526,27.768z"/>
<circle style="fill:none;stroke:#000000;stroke-width:2;stroke-linecap:round;stroke-linejoin:round;stroke-miterlimit:10;" cx="25" cy="24" r="4"/>
</svg>