<?xml version="1.0" encoding="iso-8859-1"?><!-- Generator: Adobe Illustrator 23.0.0, SVG Export Plug-In . SVG Version: 6.00 Build 0)  --><svg xmlns="http://www.w3.org/2000/svg" xmlns:xlink="http://www.w3.org/1999/xlink" viewBox="0 0 64 64" width="512px" height="512px"><path d="M33,54c-10.477,0-19-8.523-19-19s8.523-19,19-19s19,8.523,19,19S43.477,54,33,54z M33,18c-9.374,0-17,7.626-17,17s7.626,17,17,17s17-7.626,17-17S42.374,18,33,18z"/><path d="M55,18c-2.757,0-5-2.243-5-5s2.243-5,5-5s5,2.243,5,5S57.757,18,55,18z M55,10c-1.654,0-3,1.346-3,3s1.346,3,3,3s3-1.346,3-3S56.654,10,55,10z"/><path d="M33,13c-2.757,0-5-2.243-5-5s2.243-5,5-5s5,2.243,5,5S35.757,13,33,13z M33,5c-1.654,0-3,1.346-3,3s1.346,3,3,3s3-1.346,3-3S34.654,5,33,5z"/><path d="M9,19c-2.757,0-5-2.243-5-5s2.243-5,5-5s5,2.243,5,5S11.757,19,9,19z M9,11c-1.654,0-3,1.346-3,3s1.346,3,3,3s3-1.346,3-3S10.654,11,9,11z"/><path d="M10,61c-2.757,0-5-2.243-5-5s2.243-5,5-5s5,2.243,5,5S12.757,61,10,61z M10,53c-1.654,0-3,1.346-3,3s1.346,3,3,3s3-1.346,3-3S11.654,53,10,53z"/><path d="M53,61c-2.757,0-5-2.243-5-5s2.243-5,5-5s5,2.243,5,5S55.757,61,53,61z M53,53c-1.654,0-3,1.346-3,3s1.346,3,3,3s3-1.346,3-3S54.654,53,53,53z"/><path d="M33,39c-4.125,0-7-5.27-7-10c0-3.784,2.875-8,7-8s7,4.216,7,8C40,33.73,37.125,39,33,39z M33,23c-2.947,0-5,3.162-5,6c0,3.7,2.184,8,5,8s5-4.3,5-8C38,26.162,35.947,23,33,23z"/><path d="M43,45H23c-1.084,0-2-0.916-2-2v-1c0-2.207,1.59-4.87,3.487-5.861l3.631-2.497l1.133,1.648l-3.804,2.604C24.189,38.523,23,40.519,23,42v1h20v-1c0-1.479-1.19-3.475-2.449-4.106l-0.122-0.072l-3.645-2.533l1.142-1.643l3.59,2.496C43.412,37.136,45,39.798,45,42v1C45,44.084,44.084,45,43,45z"/><rect x="14.685" y="15.098" transform="matrix(0.6585 -0.7526 0.7526 0.6585 -9.5816 18.5826)" width="2" height="9.501"/><rect x="32" y="12" width="2" height="4.917"/><rect x="44.563" y="17.958" transform="matrix(0.7071 -0.7071 0.7071 0.7071 0.9585 40.2305)" width="8.957" height="2"/><rect x="46.819" y="47.231" transform="matrix(0.7241 -0.6897 0.6897 0.7241 -21.6773 46.9267)" width="2" height="6.658"/><rect x="12.046" y="49.348" transform="matrix(0.7772 -0.6293 0.6293 0.7772 -28.0216 21.5578)" width="8.77" height="2"/></svg>