<?xml version="1.0" encoding="iso-8859-1"?>
<!-- Generator: Adobe Illustrator 23.0.3, SVG Export Plug-In . SVG Version: 6.00 Build 0)  -->
<svg version="1.1" id="Layer_1" xmlns="http://www.w3.org/2000/svg" xmlns:xlink="http://www.w3.org/1999/xlink" x="0px" y="0px"
	 viewBox="0 0 48 48" style="enable-background:new 0 0 48 48;" xml:space="preserve">
<path style="fill:none;stroke:#000000;stroke-width:3;stroke-linecap:round;stroke-linejoin:round;stroke-miterlimit:10;" d="
	M16.791,29.323C12.349,30.958,5.5,29.449,5.5,24.796v0c0-1.82,1.475-3.296,3.296-3.296h5.928"/>
<path style="fill:none;stroke:#000000;stroke-width:3;stroke-linecap:round;stroke-linejoin:round;stroke-miterlimit:10;" d="
	M33.234,21.5h5.97c1.82,0,3.296,1.475,3.296,3.296v0h-0.001c0,3.99-5.035,5.668-9.27,5.035"/>
<path style="fill:none;stroke:#000000;stroke-width:3;stroke-linecap:round;stroke-linejoin:round;stroke-miterlimit:5;" d="
	M17.284,8.925c0.379,0.694,0.594,1.489,0.594,2.336c0,2.694-2.184,4.878-4.878,4.878s-4.878-2.184-4.878-4.878
	S10.306,6.383,13,6.383"/>
<path style="fill:none;stroke:#000000;stroke-width:3;stroke-linecap:round;stroke-linejoin:round;stroke-miterlimit:5;" d="
	M35,16.139c-2.694,0-4.878-2.184-4.878-4.878S32.306,6.383,35,6.383s4.878,2.184,4.878,4.878c0,0.606-0.111,1.187-0.313,1.722"/>
<circle style="fill:none;stroke:#000000;stroke-width:3;stroke-miterlimit:5;" cx="24" cy="22.914" r="4.878"/>
<path style="fill:none;stroke:#000000;stroke-width:3;stroke-linecap:round;stroke-linejoin:round;stroke-miterlimit:10;" d="
	M19.121,39.83c-1.559-0.857-2.621-2.202-2.621-4.035l0,0c0-1.82,1.475-3.296,3.296-3.296h8.409c1.82,0,3.296,1.475,3.296,3.296l0,0
	h-0.001c0,3.118-3.075,4.824-6.44,5.119"/>
</svg>