<?xml version="1.0" encoding="iso-8859-1"?>
<!-- Generator: Adobe Illustrator 25.2.3, SVG Export Plug-In . SVG Version: 6.00 Build 0)  -->
<svg version="1.1" baseProfile="basic" id="fluent" xmlns="http://www.w3.org/2000/svg" xmlns:xlink="http://www.w3.org/1999/xlink"
	 x="0px" y="0px" viewBox="0 0 50 50" xml:space="preserve">
<path d="M34.85,20.61c-0.27,2.21-1.17,2.77-1.75,2.82c-0.22,2.06-1.53,4.5-2.26,4.89c0,1.3-0.04,2.34,0.05,3.68
	c-0.6,0.52-1.13,1.13-1.58,1.82c-1.82,2.79-1.7,7.23,0.15,11.18H7c0.55-9.08,12.37-7.76,14.12-12.47c0.15-1.61,0.09-2.74,0.09-4.21
	c-0.73-0.39-2.09-2.83-2.31-4.89c-0.58-0.05-1.48-0.61-1.75-2.82c-0.14-1.19,0.43-1.85,0.78-2.06c-1.95-7.47-0.88-14,7.98-14.16
	c2.21,0,3.91,0.59,4.58,1.76c6.46,0.9,4.52,9.59,3.59,12.4C34.42,18.76,34.99,19.42,34.85,20.61z"/>
<path d="M48.783,43.067c-0.514,1.137-0.759,1.646-1.419,2.651c-0.922,1.404-2.223,3.155-3.832,3.167
	c-1.431,0.012-1.8-0.934-3.742-0.918c-1.942,0.009-2.347,0.935-3.779,0.921c-1.609-0.015-2.841-1.593-3.763-2.993
	c-2.579-3.93-2.852-8.535-1.258-10.986c1.128-1.738,2.913-2.758,4.589-2.758c1.707,0,2.78,0.938,4.191,0.938
	c1.369,0,2.203-0.941,4.177-0.941c1.493,0,3.072,0.813,4.199,2.217C44.455,36.386,45.055,41.657,48.783,43.067z M42.448,30.579
	c0.718-0.922,1.263-2.222,1.065-3.548c-1.172,0.08-2.542,0.828-3.342,1.797c-0.725,0.882-1.326,2.193-1.092,3.461
	C40.357,32.329,41.68,31.567,42.448,30.579z"/>
</svg>