<?xml version="1.0" encoding="iso-8859-1"?>
<!-- Generator: Adobe Illustrator 24.0.2, SVG Export Plug-In . SVG Version: 6.00 Build 0)  -->
<svg version="1.1" id="Layer_1_1_" xmlns="http://www.w3.org/2000/svg" xmlns:xlink="http://www.w3.org/1999/xlink" x="0px" y="0px"
	 viewBox="0 0 48 48" style="enable-background:new 0 0 48 48;" xml:space="preserve">
<circle style="fill:none;stroke:#000000;stroke-width:4;stroke-miterlimit:5;" cx="27" cy="8" r="4.5"/>
<path d="M15.924,34.797C14.983,35.548,13.794,36,12.5,36C9.468,36,7,33.532,7,30.5V21h8c0-1.538,0.586-2.937,1.54-4H7
	c-2.206,0-4,1.794-4,4v9.5c0,5.238,4.262,9.5,9.5,9.5c2.073,0,3.988-0.675,5.551-1.807C17.164,37.199,16.443,36.052,15.924,34.797z"
	/>
<circle style="fill:none;stroke:#000000;stroke-width:4;stroke-miterlimit:5;" cx="12" cy="8" r="4.5"/>
<path d="M22,35c0-0.473,0.029-0.939,0.078-1.399C21.412,32.635,21,31.467,21,30.215V21h11v1.362C32.965,22.134,33.966,22,35,22
	c0.338,0,0.669,0.025,1,0.051V21c0-2.206-1.794-4-4-4H21c-2.206,0-4,1.794-4,4v9.215c0,3.999,2.324,7.483,5.708,8.988
	C22.256,37.883,22,36.473,22,35z"/>
<path d="M35,24c-6.075,0-11,4.925-11,11c0,6.075,4.925,11,11,11s11-4.925,11-11C46,28.925,41.075,24,35,24z M42,36H28
	c-0.552,0-1-0.448-1-1s0.448-1,1-1h14c0.552,0,1,0.448,1,1S42.552,36,42,36z"/>
</svg>