<?xml version="1.0" encoding="iso-8859-1"?>
<!-- Generator: Adobe Illustrator 24.1.2, SVG Export Plug-In . SVG Version: 6.00 Build 0)  -->
<svg version="1.1" baseProfile="basic" id="Layer_1"
	 xmlns="http://www.w3.org/2000/svg" xmlns:xlink="http://www.w3.org/1999/xlink" x="0px" y="0px" viewBox="0 0 48 48"
	 xml:space="preserve">
<circle cx="15" cy="17" r="7"/>
<path d="M34.5,4c-5.164,0-9.366,4.262-9.366,9.5c0,1.315,0.29,2.598,0.957,4.175l-1.868,3.04c-0.285,0.463-0.297,1.043-0.032,1.518
	C24.456,22.706,24.957,23,25.5,23h9c4.605,0,9.5-3.329,9.5-9.5C44,7.995,40.005,4,34.5,4z M34.5,9c0.828,0,1.5,0.672,1.5,1.5
	S35.328,12,34.5,12S33,11.328,33,10.5S33.672,9,34.5,9z M33,20v-4.5c0-0.828,0.672-1.5,1.5-1.5s1.5,0.672,1.5,1.5v4.323
	C35.504,19.936,35,20,34.5,20H33z"/>
<path d="M22.265,26H7.735C5.676,26,4,27.676,4,29.735V33c0,6.065,4.935,11,11,11s11-4.935,11-11v-3.265
	C26,27.676,24.324,26,22.265,26z"/>
</svg>