<?xml version="1.0" encoding="iso-8859-1"?>
<!-- Generator: Adobe Illustrator 25.2.0, SVG Export Plug-In . SVG Version: 6.00 Build 0)  -->
<svg version="1.1" id="Layer_1" xmlns="http://www.w3.org/2000/svg" xmlns:xlink="http://www.w3.org/1999/xlink" x="0px" y="0px"
	 viewBox="0 0 48 48" style="enable-background:new 0 0 48 48;" xml:space="preserve">
<path style="fill:none;stroke:#000000;stroke-width:3;stroke-linecap:round;stroke-linejoin:round;stroke-miterlimit:5;" d="
	M24.021,23.579c-4.694,0-8.5-3.806-8.5-8.5s3.806-8.5,8.5-8.5H24c4.694,0,8.5,3.806,8.5,8.5s-3.806,8.5-8.5,8.5H24.021z"/>
<g>
	<path d="M43.242,33.12l1.347-1.347c0.714-0.713,1.175-1.558,1.334-2.442c0.05-0.279,0.075-0.557,0.076-0.831
		c0.003-1.194-0.458-2.322-1.319-3.181c-0.859-0.86-1.987-1.322-3.181-1.32c-0.274,0.001-0.552,0.025-0.831,0.076
		c-0.884,0.159-1.729,0.62-2.442,1.334l-1.347,1.347L43.242,33.12z"/>
	<path d="M34.757,28.878l-8.33,8.33c-0.357,0.357-0.62,0.802-0.76,1.285l-1.569,5.48c-0.072,0.19-0.105,0.391-0.098,0.592
		c0.013,0.363,0.156,0.722,0.434,1c0.277,0.277,0.634,0.42,0.996,0.434c0.201,0.007,0.404-0.025,0.595-0.098l5.48-1.569
		c0.483-0.14,0.927-0.402,1.285-0.76l8.331-8.331L34.757,28.878z"/>
</g>
<path d="M22.001,44.638c-0.015-0.441,0.05-0.87,0.192-1.28l0.382-1.334C15.394,41.603,11,38.075,11,34.779v-1.2
	c0-0.827,0.673-1.5,1.5-1.5h16.227l3-3H12.5c-2.481,0-4.5,2.019-4.5,4.5v1.2c0,5.348,6.031,9.617,14.048,10.22
	C22.032,44.879,22.006,44.76,22.001,44.638z"/>
</svg>