<?xml version="1.0" encoding="utf-8"?><!-- Generator: Adobe Illustrator 18.1.1, SVG Export Plug-In . SVG Version: 6.00 Build 0)  --><svg xmlns="http://www.w3.org/2000/svg" xmlns:xlink="http://www.w3.org/1999/xlink" viewBox="0 0 50 50" width="500px" height="500px"><path fill="none" stroke="#000000" stroke-width="2" stroke-miterlimit="10" d="M32,50v-6.3l3.1,0.2c4.3,0.4,7.9-3,7.9-7.3v-5.4l4-2c0.9-0.5,1.2-1.6,0.7-2.5l-4.7-8.1C41.9,9.3,37,1,23,1S3,10.5,3,21c0,4.2,1.3,8.1,3.5,11.3c2.2,3.2,3.5,7,3.5,10.9V50"/><rect x="21" y="29" fill="none" stroke="#000000" stroke-width="2" stroke-linejoin="round" stroke-miterlimit="10" width="4" height="4"/><polygon fill="none" stroke="#000000" stroke-width="2" stroke-linejoin="round" stroke-miterlimit="10" points="25,17 24,25 22,25 21,17 21,7 25,7 "/></svg>