<?xml version="1.0" encoding="iso-8859-1"?>
<!-- Generator: Adobe Illustrator 22.1.0, SVG Export Plug-In . SVG Version: 6.00 Build 0)  -->
<svg version="1.1" id="Layer_1_1_" xmlns="http://www.w3.org/2000/svg" xmlns:xlink="http://www.w3.org/1999/xlink" x="0px" y="0px"
	 viewBox="0 0 48 48" style="enable-background:new 0 0 48 48;" xml:space="preserve">
<line style="fill:none;stroke:#000000;stroke-width:3;stroke-linejoin:round;stroke-miterlimit:10;" x1="38.5" y1="18.5" x2="25.5" y2="5.5"/>
<path d="M38.5,34c-2.481,0-4.5-2.019-4.5-4.5s2.019-4.5,4.5-4.5s4.5,2.019,4.5,4.5S40.981,34,38.5,34z"/>
<path d="M43,36h-9c-1.657,0-3,1.343-3,3v2c0,2.761,3.358,5,7.5,5s7.5-2.239,7.5-5v-2C46,37.343,44.657,36,43,36z"/>
<path d="M29,41H12.5c-0.827,0-1.5-0.673-1.5-1.5v-31C11,7.673,11.673,7,12.5,7H24v8.5c0,2.481,2.019,4.5,4.5,4.5H37v3.182
	C37.482,23.067,37.983,23,38.5,23s1.018,0.067,1.5,0.182V18.5c0-0.828-0.671-1.5-1.5-1.5h-10c-0.827,0-1.5-0.673-1.5-1.5v-10
	C27,4.672,26.329,4,25.5,4h-13C10.019,4,8,6.019,8,8.5v31c0,2.481,2.019,4.5,4.5,4.5h17.397C29.326,43.094,29,42.081,29,41z"/>
</svg>