<?xml version="1.0" encoding="utf-8"?><!-- Generator: Adobe Illustrator 19.2.0, SVG Export Plug-In . SVG Version: 6.00 Build 0)  --><svg xmlns="http://www.w3.org/2000/svg" xmlns:xlink="http://www.w3.org/1999/xlink" viewBox="0 0 50 50" width="500px" height="500px"><g><path d="M20.2,34.4C20.1,34.6,20,34.8,20,35v5c0,0.3-0.1,0.6-0.4,0.8l-2,1.3L6.7,45c-0.5,0.1-0.8,0.7-0.7,1.2c0.1,0.5,0.7,0.8,1.2,0.7l11-3c0.1,0,0.2-0.1,0.3-0.1l2.2-1.4c0,0,0.1,0,0.1-0.1c0.7-0.6,1.2-1.5,1.2-2.4v-4h0.6C21.8,35.5,21,35,20.2,34.4z"/><path d="M43.3,45l-10.9-3l-2-1.3C30.1,40.6,30,40.3,30,40v-5c0-0.2-0.1-0.4-0.2-0.6C29,35,28.2,35.5,27.4,36H28v4c0,0.9,0.4,1.8,1.2,2.4c0,0,0.1,0,0.1,0.1l2.2,1.4c0.1,0.1,0.2,0.1,0.3,0.1l11,3c0.1,0,0.2,0,0.3,0c0.4,0,0.8-0.3,1-0.7C44.1,45.7,43.8,45.2,43.3,45z"/></g><g><path d="M16.4,19C16.3,19,16.3,19,16.4,19C16.4,19,16.4,19,16.4,19L16.4,19z"/><path d="M35.3,19h-0.5c0.1,0.1,0.1,0.2,0.2,0.3c-0.1,4.3-1.3,8.9-2.4,11.5c-0.2,0.4-0.5,0.7-0.9,1.1C27.4,35.1,25.4,36,25,36c-0.4,0-2.4-0.9-6.6-4.2c-0.3-0.3-0.6-0.7-0.8-1.1c-0.8-1.8-2.1-5.6-2.4-9.7c-0.8,1.2-1.5,1.9-1.5,1.9c-0.1,0.2-0.1,0.3-0.2,0.4c0.5,3.3,1.5,6.3,2.3,8.2c0.4,0.7,0.9,1.2,1.3,1.7c0,0,0.1,0.1,0.1,0.1c6,4.6,7.4,4.6,7.9,4.6c0.5,0,1.9,0,7.9-4.6c0.5-0.4,1.1-0.9,1.5-1.8c0.3-0.8,1.6-4.1,2.2-8.2C36.2,21.8,35.8,20.5,35.3,19z"/></g><path d="M33.7,29.4l1.1-5.5c0.2-1-0.8-4.1-1.7-6.7c-0.6,1.3-1.9,2.5-2.7,2.8l-0.1-0.9c-0.1-0.9-0.4-3.4-0.7-5.4c-2,3.5-5,5.8-5.1,5.9L23,20.7l0.7-4.8c-1.1,1.8-4.3,5-5.7,5.1c0-0.8,0.1-3.7,0.1-3.7c-1.5,2.9-3.1,6-3.1,6.1l-0.8,2.1L13.6,23c0.4-1,3.7-7.4,4.8-9.4l1.2-2.2c0,0,0,6.8,0,7.1c2.6-2.5,6.5-8.4,6.5-8.4l-1,7c1.4-1.3,3.4-3.8,4.3-6.2l1.1-2.5l0.3,2.6c0,0,0.5,3.6,0.8,6.1c0.3-0.6,0.6-1.3,0.8-2.1l0.5-2.5l1,2.3c0.2,0.6,0.9,2.3,1.5,4.1c0.9,2.5,1.3,4.9,0.9,5.5L33.7,29.4z"/><path d="M23,32c0-0.3,0.6-1,2-1s2,0.8,2,1H23z"/><path d="M32.5,22c-3,0.1-4.2,0.7-4.5,1c0,0.1,0,0.7,0,1c0,0.6,0.5,1.8,1,2h3c0.5-0.1,1-1.4,1-2c0-0.1,0-0.3,0-0.4c0.7-0.6,1-1.6,1-1.6C33.5,22,33,22,32.5,22z M31.5,24c-0.3,0-0.5-0.2-0.5-0.5s0.2-0.5,0.5-0.5s0.5,0.2,0.5,0.5S31.8,24,31.5,24z"/><path d="M17.5,22c-0.4,0-0.9,0-1.5,0c0,0,0.3,1,1,1.6c0,0.1,0,0.3,0,0.4c0,0.6,0.5,1.9,1,2h3c0.5-0.2,1-1.4,1-2c0-0.3,0-0.9,0-1C21.7,22.8,20.5,22.2,17.5,22z M20.5,24c-0.3,0-0.5-0.2-0.5-0.5s0.2-0.5,0.5-0.5s0.5,0.2,0.5,0.5S20.8,24,20.5,24z"/><path d="M42,19c0-3.7-3.4-16-17-16v2c11.9,0,15,10.6,15,14c0,1,0,3.7,0,6c0,0-2-1-2-1s0,3.6,0,4c-0.4,0-1,0-1,0s-2.2,1.9-3.3,2.7c-0.1,0.2-0.1,0.3-0.2,0.5c-0.3,0.6-0.7,1-1.2,1.4C30.6,33.9,26.4,37,25,37v1l0.4-0.8l3-1.3c0.7-0.3,6.1-3.2,8.8-5.9c0.5,0,2.8,0,2.8,0s0-2.6,0-3c0.1,0,2,0,2,0S42,20.6,42,19C42,19,42,19,42,19z"/><path d="M8,19c0-3.7,3.4-16,17-16v2C13.1,5,10,15.6,10,19c0,1,0,3.7,0,6c0,0,2-1,2-1s0,3.6,0,4c0.4,0,1,0,1,0s2.2,1.9,3.3,2.7c0.1,0.2,0.1,0.3,0.2,0.5c0.3,0.6,0.7,1,1.2,1.4c1.7,1.3,5.9,4.4,7.3,4.4v1l-0.4-0.8l-3-1.3c-0.7-0.3-6.1-3.2-8.8-5.9c-0.5,0-2.8,0-2.8,0s0-2.6,0-3c-0.1,0-2,0-2,0S8,20.6,8,19C8,19,8,19,8,19z"/></svg>