<?xml version="1.0" encoding="iso-8859-1"?>
<!-- Generator: Adobe Illustrator 26.0.1, SVG Export Plug-In . SVG Version: 6.00 Build 0)  -->
<svg version="1.1" baseProfile="basic" id="Layer_1"
	 xmlns="http://www.w3.org/2000/svg" xmlns:xlink="http://www.w3.org/1999/xlink" x="0px" y="0px" viewBox="0 0 72 72"
	 xml:space="preserve">
<path d="M17,26.5c3.584,0,6.5,3.14,6.5,7s-2.916,7-6.5,7s-6.5-3.14-6.5-7S13.416,26.5,17,26.5z"/>
<path d="M28.983,52.026C29.165,53.932,27.74,56,25.409,56c-4.206,0-12.618,0-16.824,0c-2.347,0-3.746-2.109-3.568-3.966
	C5.563,46.315,10.712,42,17,42C23.282,42,28.439,46.31,28.983,52.026z"/>
<path d="M36,14.5c3.584,0,6.5,3.14,6.5,7s-2.916,7-6.5,7s-6.5-3.14-6.5-7S32.416,14.5,36,14.5z"/>
<path d="M47.983,40.026C48.163,41.932,46.74,44,44.409,44c-4.206,0-12.618,0-16.824,0c-2.347,0-3.746-2.109-3.568-3.966
	C24.563,34.315,29.712,30,36,30C42.282,30,47.435,34.31,47.983,40.026z"/>
<path d="M55,26.5c3.584,0,6.5,3.14,6.5,7s-2.916,7-6.5,7s-6.5-3.14-6.5-7S51.416,26.5,55,26.5z"/>
<path d="M66.983,52.026C67.165,53.932,65.74,56,63.409,56c-4.206,0-12.618,0-16.824,0c-2.347,0-3.746-2.109-3.568-3.966
	C43.563,46.315,48.712,42,55,42C61.282,42,66.439,46.31,66.983,52.026z"/>
</svg>