<?xml version="1.0" encoding="utf-8"?><!-- Generator: Adobe Illustrator 19.2.0, SVG Export Plug-In . SVG Version: 6.00 Build 0)  --><svg xmlns="http://www.w3.org/2000/svg" xmlns:xlink="http://www.w3.org/1999/xlink" viewBox="0 0 50 50" width="500px" height="500px"><style type="text/css">.st0{fill:none;stroke:#000000;stroke-width:2;stroke-linecap:round;stroke-linejoin:round;stroke-miterlimit:10;}</style><rect x="33" y="24" width="17" height="2"/><rect x="33" y="16" width="17" height="2"/><path class="st0" d="M23.8,32.8c0-0.5-0.1-0.8-0.1-1c0-0.1,0.1-0.1,0.1-0.2C28,31.2,31,30,31,28.9C27.8,26,33.9,6.5,23,6.5c0,0-1.4-1.5-3.9-1.5C4.4,5,10.7,25.9,7.3,29c0,1.5,2.9,2.2,7,2.6c0,0.3,0,0.6-0.1,1.2C12.5,37.4,1.5,36.1,1,45h17h6.8H37C36.5,36.1,25.5,37.4,23.8,32.8z"/><rect x="31" y="32" width="19" height="2"/></svg>