<?xml version="1.0" encoding="iso-8859-1"?>
<!-- Generator: Adobe Illustrator 24.2.1, SVG Export Plug-In . SVG Version: 6.00 Build 0)  -->
<svg version="1.1" id="Layer_1" xmlns="http://www.w3.org/2000/svg" xmlns:xlink="http://www.w3.org/1999/xlink" x="0px" y="0px"
	 viewBox="0 0 48 48" style="enable-background:new 0 0 48 48;" xml:space="preserve">
<path style="fill:none;stroke:#000000;stroke-width:3;stroke-linecap:round;stroke-miterlimit:10;" d="M10.523,14.5
	c2.987-4.23,7.904-7,13.477-7c9.113,0,16.5,7.387,16.5,16.5v2"/>
<path style="fill:none;stroke:#000000;stroke-width:3;stroke-linecap:round;stroke-miterlimit:10;" d="M37.477,33.5
	c-2.987,4.23-7.904,7-13.477,7c-9.113,0-16.5-7.387-16.5-16.5v-2"/>
<polyline style="fill:none;stroke:#000000;stroke-width:3;stroke-linecap:round;stroke-linejoin:round;stroke-miterlimit:10;" points="
	44.5,22.5 40.5,26.5 36.487,22.487 "/>
<polyline style="fill:none;stroke:#000000;stroke-width:3;stroke-linecap:round;stroke-linejoin:round;stroke-miterlimit:10;" points="
	3.5,25.5 7.5,21.5 11.513,25.513 "/>
<circle cx="24" cy="24" r="2"/>
<path style="fill:none;stroke:#000000;stroke-width:3;stroke-linejoin:round;stroke-miterlimit:10;" d="M32.171,21.679
	c-0.389-1.371-1.114-2.599-2.078-3.594l-0.906,0.343c-0.618,0.234-1.309,0.177-1.881-0.153c-0.572-0.33-0.966-0.9-1.073-1.553
	l-0.158-0.965C25.411,15.59,24.716,15.5,24,15.5c-0.718,0-1.41,0.099-2.076,0.266l-0.156,0.956
	c-0.107,0.652-0.501,1.222-1.073,1.553c-0.572,0.33-1.263,0.387-1.881,0.153l-0.909-0.344c-0.965,0.995-1.686,2.224-2.075,3.595
	l0.752,0.615c0.512,0.419,0.808,1.045,0.808,1.706s-0.296,1.287-0.808,1.706l-0.752,0.615c0.389,1.371,1.109,2.601,2.075,3.595
	l0.909-0.344c0.618-0.234,1.309-0.177,1.881,0.153c0.572,0.33,0.966,0.9,1.073,1.553l0.156,0.956C22.59,32.401,23.282,32.5,24,32.5
	s1.41-0.099,2.076-0.266l0.156-0.956c0.107-0.652,0.501-1.222,1.073-1.553c0.572-0.33,1.263-0.387,1.881-0.153l0.909,0.344
	c0.965-0.995,1.686-2.224,2.075-3.595l-0.752-0.615c-0.512-0.419-0.808-1.045-0.808-1.706s0.296-1.287,0.808-1.706L32.171,21.679z"
	/>
</svg>