<?xml version="1.0" encoding="iso-8859-1"?>
<!-- Generator: Adobe Illustrator 28.7.1, SVG Export Plug-In . SVG Version: 9.03 Build 54978)  -->
<svg version="1.1" baseProfile="basic" id="Layer_1"
	 xmlns="http://www.w3.org/2000/svg" xmlns:xlink="http://www.w3.org/1999/xlink" x="0px" y="0px" viewBox="0 0 24 24"
	 xml:space="preserve">
<path style="fill:none;stroke:#000000;stroke-linecap:round;stroke-linejoin:round;stroke-miterlimit:10;" d="M15.5,6
	c0-1.933-1.567-3.5-3.5-3.5S8.5,4.067,8.5,6c0,0.171,0,0.829,0,1c0,1.933,1.567,3.5,3.5,3.5s3.5-1.567,3.5-3.5
	C15.5,6.829,15.5,6.171,15.5,6z"/>
<path style="fill:none;stroke:#000000;stroke-linecap:round;stroke-linejoin:round;stroke-miterlimit:10;" d="M15.176,13.906
	c-0.373-0.152-0.765-0.29-1.176-0.406h-4c-4.299,1.222-6.5,4.652-6.5,4.652V20.5h10"/>
<path d="M18.315,20.175l-2.51,3.41c-0.32,0.45-0.95,0.55-1.4,0.22c-0.44-0.33-0.54-0.95-0.21-1.4c0.02-0.03,0.05-0.07,0.08-0.1
	l2.91-3.08C17.485,19.615,17.865,19.945,18.315,20.175z"/>
<circle style="fill:none;stroke:#000000;stroke-miterlimit:10;" cx="20" cy="17" r="3.5"/>
</svg>