<?xml version="1.0" encoding="iso-8859-1"?>
<!-- Generator: Adobe Illustrator 23.0.3, SVG Export Plug-In . SVG Version: 6.00 Build 0)  -->
<svg version="1.1" xmlns="http://www.w3.org/2000/svg" xmlns:xlink="http://www.w3.org/1999/xlink" x="0px" y="0px"
	 viewBox="0 0 64 64" style="enable-background:new 0 0 64 64;" xml:space="preserve">
<g id="Layer_10" style="display:none;">
	<g style="display:inline;opacity:0.05;">
		<g>
			<circle style="fill:#FFFFFF;" cx="32" cy="32" r="27"/>
			<path d="M32,6c14.336,0,26,11.664,26,26S46.336,58,32,58S6,46.336,6,32S17.664,6,32,6 M32,4C16.536,4,4,16.536,4,32
				s12.536,28,28,28s28-12.536,28-28S47.464,4,32,4L32,4z"/>
		</g>
		<g>
			<rect x="8" y="8" style="fill:#FFFFFF;" width="48" height="48"/>
			<path d="M55,9v46H9V9H55 M57,7H7v50h50V7L57,7z"/>
		</g>
	</g>
</g>
<g id="filled">
</g>
<g id="outlined">
</g>
<g id="rounded">
</g>
<g id="two_x5F_tone">
</g>
<g id="sharp">
</g>
<g id="ios_x5F_out">
</g>
<g id="ios_x5F_filled">
</g>
<g id="cute_x5F_color">
</g>
<g id="cute_x5F_out">
	<path style="fill:none;stroke:#000000;stroke-width:2;stroke-miterlimit:10;" d="M23.01,35.472L8.701,42.285
		C5.218,43.944,3,47.457,3,51.314V59c0,1.105,0.895,2,2,2h36"/>
	<path style="fill:none;stroke:#000000;stroke-width:2;stroke-linejoin:round;stroke-miterlimit:10;" d="M32,41
		c-5.668,0-10.444-6.097-12.232-12.119c-1.026,0-2.186-1.446-2.699-3.364c-0.276-1.031-0.335-2.056-0.166-2.883
		c0.096-0.471,0.358-1.292,1.032-1.489l0.138-0.041h0.144c0.252,0,0.526,0.094,0.814,0.281c0.028-0.567,0.09-1.13,0.187-1.671
		c0.049-0.279-0.008-0.723-0.086-1.336c-0.149-1.167-0.374-2.929-0.129-5.376C19.372,9.299,21.678,7,25.02,7
		C26.564,5.842,29.5,5,32,5h1c6.456,0,11.268,3.379,13.201,9.271l0.487,1.485l-1.553-0.18c-0.108-0.012-0.216-0.02-0.324-0.02
		c-0.352,0-0.609,0.076-0.766,0.226c-0.243,0.232-0.256,0.646-0.041,1.23c0.65,1.765,0.894,2.868,0.964,4.374
		c0.267-0.174,0.522-0.268,0.762-0.28l0.213-0.011l0.2,0.078c0.62,0.24,0.864,1.018,0.955,1.46c0.169,0.828,0.11,1.853-0.166,2.884
		c-0.512,1.917-1.672,3.363-2.697,3.363C42.444,34.903,37.666,41,32,41z"/>
	
		<line style="fill:none;stroke:#000000;stroke-width:2;stroke-linecap:round;stroke-linejoin:round;stroke-miterlimit:10;" x1="7" y1="55" x2="7" y2="57"/>
	
		<line style="fill:none;stroke:#000000;stroke-width:2;stroke-linecap:round;stroke-linejoin:round;stroke-miterlimit:10;" x1="12" y1="55" x2="12" y2="57"/>
	
		<line style="fill:none;stroke:#000000;stroke-width:2;stroke-linecap:round;stroke-linejoin:round;stroke-miterlimit:10;" x1="17" y1="55" x2="17" y2="57"/>
	
		<line style="fill:none;stroke:#000000;stroke-width:2;stroke-linecap:round;stroke-linejoin:round;stroke-miterlimit:10;" x1="22" y1="55" x2="22" y2="57"/>
	
		<line style="fill:none;stroke:#000000;stroke-width:2;stroke-linecap:round;stroke-linejoin:round;stroke-miterlimit:10;" x1="27" y1="55" x2="27" y2="57"/>
	
		<line style="fill:none;stroke:#000000;stroke-width:2;stroke-linecap:round;stroke-linejoin:round;stroke-miterlimit:10;" x1="32" y1="55" x2="32" y2="57"/>
	
		<line style="fill:none;stroke:#000000;stroke-width:2;stroke-linecap:round;stroke-linejoin:round;stroke-miterlimit:10;" x1="37" y1="55" x2="37" y2="57"/>
	<path d="M27.92,14.88c2.864,1.391,6.006,2.116,9.19,2.12h2.55c0.552,0,1-0.448,1-1c0-0.552-0.448-1-1-1h-2.55
		c-2.883-0.004-5.727-0.66-8.32-1.92l-1.56-0.76c-0.905-0.442-1.998-0.142-2.55,0.7l-1.6,2.43c-0.311,0.456-0.194,1.078,0.262,1.39
		c0.456,0.311,1.078,0.194,1.39-0.262c0.006-0.009,0.012-0.018,0.018-0.028l1.6-2.43L27.92,14.88z"/>
	<path style="fill:none;stroke:#000000;stroke-width:2;stroke-linejoin:round;stroke-miterlimit:10;" d="M42.963,34H56l7,7v20
		c0,1.105-0.879,2-1.963,2H42.963C41.879,63,41,62.105,41,61V36C41,35.041,41.968,34,42.963,34z"/>
	
		<polyline style="fill:none;stroke:#000000;stroke-width:2;stroke-linecap:round;stroke-linejoin:round;stroke-miterlimit:10;" points="
		56,34 56,41 63,41 	"/>
	
		<line style="fill:none;stroke:#000000;stroke-width:2;stroke-linecap:round;stroke-linejoin:round;stroke-miterlimit:10;" x1="46" y1="46" x2="52" y2="46"/>
	
		<line style="fill:none;stroke:#000000;stroke-width:2;stroke-linecap:round;stroke-linejoin:round;stroke-miterlimit:10;" x1="56" y1="46" x2="58" y2="46"/>
	
		<line style="fill:none;stroke:#000000;stroke-width:2;stroke-linecap:round;stroke-linejoin:round;stroke-miterlimit:10;" x1="46" y1="50" x2="58" y2="50"/>
	
		<line style="fill:none;stroke:#000000;stroke-width:2;stroke-linecap:round;stroke-linejoin:round;stroke-miterlimit:10;" x1="46" y1="54" x2="54" y2="54"/>
	
		<line style="fill:none;stroke:#000000;stroke-width:2;stroke-linecap:round;stroke-linejoin:round;stroke-miterlimit:10;" x1="46" y1="58" x2="49" y2="58"/>
	
		<line style="fill:none;stroke:#000000;stroke-width:2;stroke-linecap:round;stroke-linejoin:round;stroke-miterlimit:10;" x1="53" y1="58" x2="58" y2="58"/>
</g>
</svg>