<?xml version="1.0" encoding="iso-8859-1"?><!-- Generator: Adobe Illustrator 22.1.0, SVG Export Plug-In . SVG Version: 6.00 Build 0)  --><svg xmlns="http://www.w3.org/2000/svg" xmlns:xlink="http://www.w3.org/1999/xlink" viewBox="0 0 100 100" width="400px" height="400px"><g><path d="M77.929,80.35c-0.986-4.437-4.096-8.085-8.333-9.767l-10.57-4.006C59.005,66.42,58.993,66.199,59,66v-3.143c2.552-1.538,5.054-3.635,6.832-6.302c0.296-0.445,0.514-0.981,0.683-1.555H70.5c0.276,0,0.5-0.224,0.5-0.5v-6.551c1.692-0.245,3-1.691,3-3.449v-5c0-1.93-1.57-3.5-3.5-3.5h-1.372c0.235-1.322,0.372-2.672,0.372-4c0-7.772-3.262-13.684-7.644-13.987C60.908,15.631,57.502,12,50,12c-8.469,0-21,6.833-21,21.5c0,0.219,0.142,0.411,0.35,0.477c0.211,0.067,0.436-0.011,0.561-0.19c0.304-0.436,0.717-1.052,1.09-1.614v5.354c-1.029,0.847-1.177,1.036-1.232,1.107c-0.479,0.622-1.175,1.983-0.464,4.112l1.792,5.476c0.348,1.088,1.012,1.929,1.904,2.428V51c0,1.734,0.202,4.106,1.168,5.555c1.778,2.667,4.28,4.764,6.832,6.302l0.001,3.191c0.007,0.149-0.006,0.37-0.031,0.525l-10.587,4.014c-4.221,1.678-7.328,5.326-8.314,9.763c-0.198,0.894,0.017,1.814,0.589,2.528C23.229,83.591,24.082,84,24.997,84H75c0.915,0,1.768-0.409,2.34-1.122C77.912,82.164,78.127,81.243,77.929,80.35z M66.754,54C66.942,52.973,67,51.901,67,51v-0.422c0.801-0.549,1.449-1.403,1.761-2.355c0.016-0.049,0.078-0.129,0.144-0.223H70v6H66.754z M70.5,37c1.38,0,2.5,1.12,2.5,2.5v5c0,1.38-1.12,2.5-2.5,2.5H68v-6.899c0.376-0.981,0.69-2.022,0.93-3.101H70.5z M35.832,55.445C35.312,54.664,35,53.002,35,51v-1c0-0.432-0.277-0.814-0.688-0.95c-0.632-0.208-1.073-0.691-1.312-1.442l-1.798-5.49c-0.419-1.256-0.086-1.958,0.12-2.228c0.123-0.132,0.774-0.682,1.307-1.112c0.092-0.075,0.155-0.173,0.214-0.272c1.042,2.45,2.154,4.142,2.241,4.272c0.122,0.183,0.349,0.266,0.561,0.201C35.855,42.915,36,42.721,36,42.5c0-0.042,0.02-3.72,1.274-6.542c0.563,1.572,1.805,2.828,1.872,2.896c0.121,0.121,0.295,0.172,0.462,0.135s0.304-0.157,0.361-0.317c0.037-0.101,3.596-9.722,10.007-12.438c-0.093,1.231-0.559,3.489-2.893,6.99c-0.109,0.164-0.112,0.377-0.007,0.544c0.104,0.167,0.302,0.253,0.493,0.229c0.964-0.138,2.036-0.561,3.188-1.256c0.236-0.143,0.312-0.45,0.169-0.687c-0.143-0.237-0.451-0.31-0.687-0.169c-0.574,0.347-1.121,0.617-1.636,0.81C51,28.733,51,26.418,51,25.5c0-0.161-0.077-0.312-0.208-0.406c-0.131-0.094-0.3-0.119-0.451-0.067c-6.231,2.087-9.949,9.981-11.004,12.523C38.788,36.856,38,35.657,38,34.5c0-0.221-0.145-0.415-0.355-0.479c-0.213-0.066-0.438,0.018-0.561,0.201c-1.344,2.016-1.821,4.834-1.991,6.608C33.944,38.74,32,34.595,32,30.5c0-0.222-0.146-0.416-0.357-0.479c-0.219-0.062-0.441,0.021-0.562,0.207c-0.001,0.001-0.483,0.743-1.019,1.55C30.995,18.979,42.273,13,50,13c7.287,0,10.357,3.552,11.023,5.651C61.089,18.858,61.282,19,61.5,19c3.44,0,7,4.862,7,13c0,3.295-0.803,6.749-2.144,9.387c-0.168-0.969-0.484-1.989-0.955-3.084c-0.109-0.255-0.404-0.372-0.656-0.262c-0.254,0.108-0.371,0.402-0.262,0.656C65.177,40.312,65.5,41.68,65.5,43c0,0.221,0.145,0.415,0.356,0.479C65.903,43.493,65.952,43.5,66,43.5c0.165,0,0.323-0.082,0.417-0.225c0.204-0.31,0.396-0.643,0.583-0.984v4.903c-0.064,0.181-0.115,0.329-0.142,0.411c-0.211,0.646-0.711,1.229-1.273,1.484C65.229,49.253,65,49.608,65,50v1c0,1.148-0.105,2.177-0.291,3H57v-1.5c0-0.276-0.224-0.5-0.5-0.5h-9c-1.379,0-2.5,1.121-2.5,2.5s1.121,2.5,2.5,2.5h9c0.276,0,0.5-0.224,0.5-0.5V55h7.398c-0.072,0.167-0.147,0.321-0.23,0.445C60.424,61.062,52.954,64,50,64S39.576,61.062,35.832,55.445z M56,56h-8.5c-0.827,0-1.5-0.673-1.5-1.5s0.673-1.5,1.5-1.5H56V56z M75.779,81.626C75.589,81.863,75.305,82,75,82H24.997c-0.305,0-0.589-0.137-0.779-0.374c-0.191-0.238-0.263-0.545-0.195-0.847c0.841-3.785,3.495-6.9,7.084-8.328l8.455-3.205C41.956,70.337,45.825,71,50,71c0.856,0,1.709-0.027,2.534-0.081c0.275-0.018,0.484-0.256,0.467-0.531c-0.019-0.276-0.275-0.482-0.531-0.467C51.665,69.974,50.835,70,50,70c-3.518,0-6.781-0.477-9.057-1.278l0.926-0.351C42.975,68.032,43.028,66.574,43,66v-2.054C45.778,65.308,48.409,66,50,66c1.591,0,4.222-0.692,7-2.055l0,2.015c-0.038,0.936,0.118,2.098,1.057,2.39l0.99,0.375c-0.507,0.177-1.058,0.343-1.66,0.488c-0.269,0.064-0.434,0.335-0.369,0.604c0.056,0.229,0.26,0.383,0.486,0.383c0.038,0,0.078-0.005,0.117-0.014c1.093-0.263,2.033-0.577,2.816-0.934l8.435,3.197c3.02,1.198,5.356,3.586,6.536,6.552H35.5c-0.276,0-0.5,0.224-0.5,0.5s0.224,0.5,0.5,0.5h40.25c0.077,0.26,0.166,0.516,0.225,0.783C76.042,81.081,75.971,81.388,75.779,81.626z"/><path d="M54.508,70.731c0.021,0,0.041-0.001,0.062-0.004c0.34-0.042,0.673-0.088,0.997-0.139c0.272-0.043,0.459-0.299,0.417-0.571c-0.043-0.273-0.302-0.456-0.571-0.417c-0.314,0.049-0.636,0.095-0.964,0.135c-0.274,0.033-0.47,0.283-0.436,0.557C54.044,70.546,54.259,70.731,54.508,70.731z"/><path d="M32.5,79h-2c-0.276,0-0.5,0.224-0.5,0.5s0.224,0.5,0.5,0.5h2c0.276,0,0.5-0.224,0.5-0.5S32.776,79,32.5,79z"/><path d="M28.5,79h-1c-0.276,0-0.5,0.224-0.5,0.5s0.224,0.5,0.5,0.5h1c0.276,0,0.5-0.224,0.5-0.5S28.776,79,28.5,79z"/><path d="M52.675,31.391c1.816-1.447,3.757-3.446,5.538-5.698c0.686,3.034,2.294,5.794,3.615,8.06C61.921,33.911,62.088,34,62.26,34c0.086,0,0.173-0.021,0.252-0.068c0.238-0.139,0.319-0.445,0.18-0.684c-1.438-2.467-3.228-5.537-3.696-8.818c-0.028-0.2-0.175-0.364-0.371-0.414c-0.197-0.052-0.402,0.023-0.524,0.185c-1.911,2.548-4.06,4.824-6.048,6.409c-0.216,0.172-0.252,0.486-0.079,0.702C52.146,31.528,52.461,31.564,52.675,31.391z"/><path d="M63.559,36.795c0.09,0.169,0.263,0.265,0.441,0.265c0.08,0,0.16-0.019,0.235-0.059c0.243-0.13,0.336-0.433,0.206-0.677c-0.189-0.355-0.387-0.712-0.589-1.07c-0.137-0.241-0.442-0.326-0.682-0.189c-0.24,0.136-0.325,0.441-0.189,0.682C63.18,36.097,63.373,36.447,63.559,36.795z"/></g></svg>