<?xml version="1.0" encoding="utf-8"?><!-- Generator: Adobe Illustrator 15.0.0, SVG Export Plug-In . SVG Version: 6.00 Build 0)  --><!DOCTYPE svg PUBLIC "-//W3C//DTD SVG 1.1//EN" "http://www.w3.org/Graphics/SVG/1.1/DTD/svg11.dtd"><svg xmlns="http://www.w3.org/2000/svg" xmlns:xlink="http://www.w3.org/1999/xlink" viewBox="0 0 50 50" width="50px" height="50px"><g><path d="M38.732,22.17C37.232,13.854,32.654,8,30,8c-1.328,0-2.266,0.626-3.09,1.179C26.225,9.638,25.684,10,25.002,10c-0.689,0-1.273-0.387-1.948-0.833C22.229,8.62,21.293,8,20,8c-1.869,0-4.532,2.468-6.512,6.713l9.209,9.208c0.798,0.052,1.574,0.078,2.302,0.079c0.023,0,0.046,0,0.069,0c4.198,0,9.146-0.746,11.51-2.397c0.165,0.781,0.313,1.586,0.42,2.437c-0.021,0.152-0.157,0.317-0.273,0.434c-1.383,1.379-6.009,2.426-10.957,2.518l12.313,12.314c0.853-2.102,1.424-4.391,1.708-5.686C45.214,32.459,49,30.573,49,28C49,24.822,43.555,23.086,38.732,22.17z"/><path d="M33.994,38.047c-0.473,1.212-1.438,2.408-3.37,2.051c-1.651-0.306-2.813-1.25-2.813-2.045c0-0.602,2.265-1.223,4.515-1.675l-9.442-9.442c-6.013-0.334-9.782-1.973-9.881-2.898c0.097-0.878,0.233-1.697,0.386-2.488c1.404,0.99,3.7,1.642,6.132,2.023l-6.859-6.86c-0.599,1.634-1.096,3.458-1.421,5.462C6.425,23.093,1,24.828,1,28c0,2.566,3.769,4.45,9.174,5.611C10.685,36.427,12.372,44,15.743,44c4.803,0,6.458-3.479,9.07-3.479S29.62,44,33.883,44c1.309,0,2.403-1.18,3.291-2.773L33.994,38.047z M18.429,40.098c-3.294,0.61-3.792-3.302-3.792-4.098c2.65,0.428,6.605,1.257,6.605,2.053C21.242,38.848,20.08,39.792,18.429,40.098z"/></g><line fill="none" stroke="#000000" stroke-width="2" stroke-linecap="round" stroke-linejoin="round" stroke-miterlimit="10" x1="2.846" y1="2.846" x2="47.154" y2="47.154"/></svg>