<?xml version="1.0" encoding="iso-8859-1"?>
<!-- Generator: Adobe Illustrator 25.2.3, SVG Export Plug-In . SVG Version: 6.00 Build 0)  -->
<svg version="1.1" baseProfile="basic" id="Layer_1"
	 xmlns="http://www.w3.org/2000/svg" xmlns:xlink="http://www.w3.org/1999/xlink" x="0px" y="0px" viewBox="0 0 48 48"
	 xml:space="preserve">
<path style="fill:none;stroke:#000000;stroke-width:2;stroke-linecap:round;stroke-linejoin:round;stroke-miterlimit:10;" d="
	M33.679,37H14.321c-1.251,0-2.135-1.226-1.739-2.413l0.157-0.47C14.355,29.269,18.891,26,24,26h0c5.109,0,9.645,3.269,11.261,8.116
	l0.157,0.47C35.814,35.774,34.93,37,33.679,37z"/>
<ellipse style="fill:none;stroke:#000000;stroke-width:2;stroke-linecap:round;stroke-miterlimit:10;" cx="24" cy="16" rx="5.333" ry="6"/>
<path style="fill:none;stroke:#000000;stroke-width:2;stroke-linecap:round;stroke-linejoin:round;stroke-miterlimit:10;" d="M5,12
	V9c0-2.209,1.791-4,4-4h3"/>
<path style="fill:none;stroke:#000000;stroke-width:2;stroke-linecap:round;stroke-linejoin:round;stroke-miterlimit:10;" d="M12,43
	H9c-2.209,0-4-1.791-4-4v-3"/>
<path style="fill:none;stroke:#000000;stroke-width:2;stroke-linecap:round;stroke-linejoin:round;stroke-miterlimit:10;" d="M43,36
	v3c0,2.209-1.791,4-4,4h-3"/>
<path style="fill:none;stroke:#000000;stroke-width:2;stroke-linecap:round;stroke-linejoin:round;stroke-miterlimit:10;" d="M36,5
	h3c2.209,0,4,1.791,4,4v3"/>
</svg>