<?xml version="1.0" encoding="iso-8859-1"?>
<!-- Generator: Adobe Illustrator 23.0.3, SVG Export Plug-In . SVG Version: 6.00 Build 0)  -->
<svg version="1.1" id="Layer_1" xmlns="http://www.w3.org/2000/svg" xmlns:xlink="http://www.w3.org/1999/xlink" x="0px" y="0px"
	 viewBox="0 0 50 50" style="enable-background:new 0 0 50 50;" xml:space="preserve">
<g id="IOS_copy_10_">
	<path d="M32.862,49.911c-0.2,0-0.4-0.1-0.6-0.2c-0.3-0.2-0.5-0.7-0.4-1.1l1.7-6.5l-5.1-4.2c-0.4-0.2-0.5-0.7-0.4-1.1
		s0.5-0.7,0.9-0.7l6.7-0.4l2.4-6.3c0.2-0.2,0.6-0.5,1-0.5c0.4,0,0.8,0.3,0.9,0.6l2.4,6.3l6.7,0.4c0.4,0,0.8,0.3,0.9,0.7
		c0.1,0.4,0,0.8-0.3,1.1l-5.2,4.2l1.7,6.5c0.1,0.4,0,0.8-0.4,1.1c-0.3,0.2-0.8,0.3-1.1,0l-5.6-3.7l-5.6,3.6
		C33.263,49.811,33.063,49.911,32.862,49.911z M39.063,43.911c0.2,0,0.4,0.1,0.5,0.2l4,2.6l-1.2-4.6c-0.1-0.4,0-0.8,0.3-1l3.7-3
		l-4.8-0.3c-0.4,0-0.7-0.3-0.9-0.6l-1.6-4.5l-1.7,4.4c-0.2,0.4-0.5,0.6-0.9,0.7l-4.8,0.2l3.7,3c0.3,0.2,0.4,0.7,0.3,1l-1.2,4.6
		l4-2.6C38.663,44.011,38.862,43.911,39.063,43.911z"/>
</g>
<path d="M34.206,43.601l0.485-1.855l-1.48-1.219l-3.993-3.289l-0.135-0.111l-0.029-0.019l0.011-0.001l4.507-0.269
	c-2.765-1.028-4.687-2.725-4.687-2.725S28.194,33.407,28,32.997v-3.55c0.845-0.916,1.69-2.827,2.001-4.569
	c0.712-0.35,1.591-1.241,1.795-3.495c0.094-1.126-0.215-1.953-0.641-2.487c0.849-2.728,1.594-7.402-0.203-10.373
	c-0.853-1.409-2.153-2.295-3.869-2.639C26.117,4.666,24.3,4,21.878,4c0,0,0,0-0.001,0C18.193,4.083,15.5,5.21,13.874,7.349
	c-1.926,2.533-2.288,6.416-1.078,11.547c-0.413,0.531-0.784,1.379-0.687,2.539c0.295,2.164,1.118,3.053,1.788,3.417
	c0.318,1.719,1.219,3.673,2.103,4.603v3.554c-0.646,1.458-2.833,2.358-5.145,3.311C6.91,37.943,2,39.966,2,46v1h31.317
	L34.206,43.601z M26,28.419v4.78c-0.018,0.374-1.465,1.5-4,1.5c-2.489,0-4-1.042-4-1.5V29l0.016-0.571l-0.504-0.288
	c-0.365-0.263-1.536-2.246-1.716-4.136l-0.013-0.896h-0.91c-0.142-0.055-0.589-0.53-0.776-1.893
	c-0.07-0.838,0.358-1.185,0.357-1.185l0.589-0.392l-0.174-0.686c-1.211-4.784-1.011-8.281,0.596-10.395
	C16.705,6.93,18.877,6.068,21.9,6c1.891,0,3.253,0.475,3.736,1.304l0.245,0.419l0.48,0.067c1.332,0.188,2.273,0.766,2.88,1.769
	c1.449,2.395,0.685,6.877-0.183,9.305l-0.316,0.825l0.793,0.396c0.089,0.063,0.329,0.409,0.269,1.125
	c-0.134,1.478-0.603,1.873-0.704,1.891h-0.909l-0.086,0.905c-0.181,1.896-1.24,3.854-1.601,4.126L26,28.419z"/>
</svg>