<?xml version="1.0" encoding="iso-8859-1"?>
<!-- Generator: Adobe Illustrator 25.4.1, SVG Export Plug-In . SVG Version: 6.00 Build 0)  -->
<svg version="1.1" baseProfile="basic" id="Layer_1"
	 xmlns="http://www.w3.org/2000/svg" xmlns:xlink="http://www.w3.org/1999/xlink" x="0px" y="0px" viewBox="0 0 100 100"
	 xml:space="preserve">
<line style="fill:none;stroke:#000000;stroke-width:2;stroke-linecap:round;stroke-linejoin:round;stroke-miterlimit:10;" x1="84.449" y1="80.697" x2="76.046" y2="82.09"/>
<line style="fill:none;stroke:#000000;stroke-width:2;stroke-linecap:round;stroke-linejoin:round;stroke-miterlimit:10;" x1="84.569" y1="77.185" x2="79.809" y2="78.348"/>
<line style="fill:none;stroke:#000000;stroke-width:2;stroke-linecap:round;stroke-linejoin:round;stroke-miterlimit:10;" x1="63.2" y1="62.185" x2="61.242" y2="69.244"/>
<line style="fill:none;stroke:#000000;stroke-width:2;stroke-linecap:round;stroke-linejoin:round;stroke-miterlimit:10;" x1="60.246" y1="61.88" x2="58.911" y2="65.709"/>
<line style="fill:none;stroke:#000000;stroke-width:2;stroke-linecap:round;stroke-linejoin:round;stroke-miterlimit:10;" x1="47.236" y1="73.692" x2="48.659" y2="80.24"/>
<line style="fill:none;stroke:#000000;stroke-width:2;stroke-linecap:round;stroke-linejoin:round;stroke-miterlimit:10;" x1="44.293" y1="73.918" x2="44.928" y2="77.391"/>
<line style="fill:none;stroke:#000000;stroke-width:2;stroke-linecap:round;stroke-linejoin:round;stroke-miterlimit:10;" x1="22.541" y1="85.657" x2="26.666" y2="80.426"/>
<path style="fill:none;stroke:#000000;stroke-width:4;stroke-linecap:round;stroke-linejoin:round;stroke-miterlimit:10;" d="
	M53.904,61.313c9.966,0.04,18.335-0.09,29.314-0.476c1.525,6.552,2.174,14.902,1.949,25.05c-23.905,1.305-47.289,1.259-70.377,0.447
	l0.273-24.028l3.545-1.675c2.651,0.09,4.316,0.173,6.998,0.25"/>
<path style="fill:none;stroke:#000000;stroke-width:4;stroke-linecap:round;stroke-linejoin:round;stroke-miterlimit:10;" d="
	M40.102,36.881c-9.127,0.29-16.714,8.355-15.971,16.532c1.079,11.877,11.267,16.531,18.369,15.557
	c8.993-1.233,12.818-8.769,13.022-15.218C55.885,42.32,47.826,36.636,40.102,36.881z"/>
<path style="fill:none;stroke:#000000;stroke-width:4;stroke-linecap:round;stroke-linejoin:round;stroke-miterlimit:10;" d="
	M55.782,50.225c1.985,1.368,4.246,2.109,6.289,2.199c6.901,0.303,10.792-4.818,11.823-9.619c1.829-8.511-3.43-13.864-9.246-14.733
	c-6.873-1.027-13.652,3.978-14.21,10.201"/>
<path style="fill:none;stroke:#000000;stroke-width:4;stroke-linecap:round;stroke-linejoin:round;stroke-miterlimit:10;" d="
	M65.017,26.613c0.785-1.455,1.174-3.083,1.222-4.609c0.216-6.824-4.594-10.216-9.204-10.07c-5.448,0.173-9.976,4.987-9.532,9.868
	c0.448,4.934,3.53,7.78,6.792,8.858"/>
<path style="fill:none;stroke:#000000;stroke-width:2;stroke-linecap:round;stroke-linejoin:round;stroke-miterlimit:10;" d="
	M15.829,73.695c0,0,59.533-0.327,68.757,0.043"/>
<line style="fill:none;stroke:#000000;stroke-width:2;stroke-linecap:round;stroke-linejoin:round;stroke-miterlimit:10;" x1="27.088" y1="61.252" x2="27.942" y2="73.662"/>
<line style="fill:none;stroke:#000000;stroke-width:2;stroke-linecap:round;stroke-linejoin:round;stroke-miterlimit:10;" x1="50.985" y1="64.632" x2="51.992" y2="73.173"/>
<line style="fill:none;stroke:#000000;stroke-width:2;stroke-linecap:round;stroke-linejoin:round;stroke-miterlimit:10;" x1="73.72" y1="61.515" x2="73.709" y2="73.168"/>
<line style="fill:none;stroke:#000000;stroke-width:2;stroke-linecap:round;stroke-linejoin:round;stroke-miterlimit:10;" x1="61.302" y1="74.087" x2="62.178" y2="86.878"/>
<line style="fill:none;stroke:#000000;stroke-width:2;stroke-linecap:round;stroke-linejoin:round;stroke-miterlimit:10;" x1="38.15" y1="73.913" x2="37.067" y2="86.878"/>
<line style="fill:none;stroke:#000000;stroke-width:2;stroke-linecap:round;stroke-linejoin:round;stroke-miterlimit:10;" x1="19.258" y1="85.517" x2="21.6" y2="81.676"/>
<path style="fill:none;stroke:#000000;stroke-width:2;stroke-linecap:round;stroke-linejoin:round;stroke-miterlimit:10;" d="
	M39.141,42.849c1.16,6.997,1.609,13.916,1.432,20.765"/>
<path style="fill:none;stroke:#000000;stroke-width:2;stroke-linecap:round;stroke-linejoin:round;stroke-miterlimit:10;" d="
	M43.461,47.146c-2.136-2.621-5.167-2.392-6.444,0c-1.277,2.392,1.016,4.199,2.864,5.012c1.848,0.813,5.092,1.829,4.296,5.012
	c-0.715,2.864-4.88,4.766-7.16,0.716"/>
<line style="fill:none;stroke:#000000;stroke-width:2;stroke-linecap:round;stroke-linejoin:round;stroke-miterlimit:10;" x1="53.421" y1="44.37" x2="50.822" y2="46.069"/>
<line style="fill:none;stroke:#000000;stroke-width:2;stroke-linecap:round;stroke-linejoin:round;stroke-miterlimit:10;" x1="55.514" y1="47.447" x2="50.857" y2="50.517"/>
<line style="fill:none;stroke:#000000;stroke-width:2;stroke-linecap:round;stroke-linejoin:round;stroke-miterlimit:10;" x1="24.73" y1="49.445" x2="28.057" y2="51.526"/>
<line style="fill:none;stroke:#000000;stroke-width:2;stroke-linecap:round;stroke-linejoin:round;stroke-miterlimit:10;" x1="24.317" y1="54.388" x2="29.59" y2="55.369"/>
</svg>