<?xml version="1.0" encoding="iso-8859-1"?>
<!-- Generator: Adobe Illustrator 28.7.1, SVG Export Plug-In . SVG Version: 9.03 Build 54978)  -->
<svg version="1.1" baseProfile="basic" id="Layer_1"
	 xmlns="http://www.w3.org/2000/svg" xmlns:xlink="http://www.w3.org/1999/xlink" x="0px" y="0px" viewBox="0 0 24 24"
	 xml:space="preserve">
<path d="M24,19c0,2.761-2.239,5-5,5s-5-2.239-5-5s2.239-5,5-5S24,16.239,24,19z M21.5,18.5h-2v-2c0-0.276-0.224-0.5-0.5-0.5
	s-0.5,0.224-0.5,0.5v2h-2c-0.276,0-0.5,0.224-0.5,0.5s0.224,0.5,0.5,0.5h2v2c0,0.276,0.224,0.5,0.5,0.5s0.5-0.224,0.5-0.5v-2h2
	c0.276,0,0.5-0.224,0.5-0.5S21.776,18.5,21.5,18.5z"/>
<path style="fill:none;stroke:#000000;stroke-linecap:round;stroke-linejoin:round;stroke-miterlimit:10;" d="M15.5,6
	c0-1.933-1.567-3.5-3.5-3.5S8.5,4.067,8.5,6c0,0.171,0,0.829,0,1c0,1.933,1.567,3.5,3.5,3.5s3.5-1.567,3.5-3.5
	C15.5,6.829,15.5,6.171,15.5,6z"/>
<path style="fill:none;stroke:#000000;stroke-linecap:round;stroke-linejoin:round;stroke-miterlimit:10;" d="M14.989,13.832
	C14.673,13.709,14.343,13.598,14,13.5h-4c-4.299,1.222-6.5,4.652-6.5,4.652V20.5h9"/>
</svg>