<?xml version="1.0" encoding="iso-8859-1"?>
<!-- Generator: Adobe Illustrator 24.2.1, SVG Export Plug-In . SVG Version: 6.00 Build 0)  -->
<svg version="1.1" id="Layer_1" xmlns="http://www.w3.org/2000/svg" xmlns:xlink="http://www.w3.org/1999/xlink" x="0px" y="0px"
	 viewBox="0 0 48 48" style="enable-background:new 0 0 48 48;" xml:space="preserve">
<path style="fill:none;stroke:#000000;stroke-width:4;stroke-linecap:round;stroke-miterlimit:10;" d="M11,14.032
	C13.931,10.359,18.436,8,23.5,8c8.837,0,16,7.163,16,16v1.5"/>
<path style="fill:none;stroke:#000000;stroke-width:4;stroke-linecap:round;stroke-miterlimit:10;" d="M36.975,33.94
	c-2.931,3.654-7.426,6-12.475,6c-8.837,0-16-7.163-16-16V22"/>
<polyline style="fill:none;stroke:#000000;stroke-width:4;stroke-linecap:round;stroke-linejoin:round;stroke-miterlimit:10;" points="
	13,25.5 8.5,21 4,25.5 "/>
<polyline style="fill:none;stroke:#000000;stroke-width:4;stroke-linecap:round;stroke-linejoin:round;stroke-miterlimit:10;" points="
	44,22.5 39.5,27 35,22.5 "/>
<path d="M31.235,25.912l-0.77-0.616c-0.381-0.305-0.6-0.76-0.6-1.249s0.219-0.944,0.6-1.249l0.769-0.616
	c0.269-0.215,0.37-0.579,0.25-0.902c-0.316-0.851-0.769-1.636-1.349-2.332c-0.22-0.265-0.586-0.358-0.906-0.233l-0.916,0.358
	c-0.455,0.179-0.958,0.14-1.382-0.105c-0.423-0.245-0.708-0.661-0.782-1.145l-0.149-0.98c-0.052-0.341-0.316-0.609-0.656-0.668
	c-1.04-0.179-1.789-0.165-2.696-0.003c-0.337,0.059-0.599,0.328-0.651,0.667l-0.15,0.984c-0.073,0.483-0.358,0.899-0.781,1.144
	c-0.422,0.244-0.926,0.283-1.382,0.105l-0.919-0.359c-0.32-0.124-0.686-0.031-0.906,0.234c-0.578,0.695-1.031,1.48-1.347,2.333
	c-0.119,0.323-0.018,0.687,0.251,0.902l0.77,0.616c0.381,0.305,0.6,0.76,0.6,1.249s-0.219,0.944-0.6,1.249l-0.77,0.616
	c-0.269,0.216-0.37,0.579-0.251,0.902c0.316,0.854,0.769,1.638,1.347,2.333c0.22,0.265,0.586,0.359,0.906,0.234l0.919-0.359
	c0.456-0.178,0.959-0.139,1.382,0.105c0.423,0.245,0.708,0.661,0.782,1.144l0.15,0.984c0.052,0.339,0.313,0.608,0.651,0.667
	c0.468,0.083,0.909,0.123,1.35,0.123s0.883-0.04,1.35-0.123c0.337-0.059,0.599-0.328,0.651-0.667l0.15-0.984
	c0.001,0,0.001,0,0.001,0c0.073-0.483,0.358-0.899,0.781-1.144c0.423-0.244,0.927-0.283,1.382-0.105l0.919,0.359
	c0.32,0.125,0.686,0.031,0.906-0.234c0.578-0.695,1.031-1.48,1.347-2.333C31.606,26.491,31.505,26.128,31.235,25.912z M24,26.048
	c-1.105,0-2-0.895-2-2s0.895-2,2-2s2,0.895,2,2S25.105,26.048,24,26.048z"/>
</svg>