<?xml version="1.0" encoding="iso-8859-1"?>
<!-- Generator: Adobe Illustrator 22.1.0, SVG Export Plug-In . SVG Version: 6.00 Build 0)  -->
<svg version="1.1" id="Layer_1" xmlns="http://www.w3.org/2000/svg" xmlns:xlink="http://www.w3.org/1999/xlink" x="0px" y="0px"
	 viewBox="0 0 100 100" style="enable-background:new 0 0 100 100;" xml:space="preserve">
<path style="fill:none;stroke:#000000;stroke-miterlimit:10;" d="M68,62.5c2.5,0,6.75-2.75,6.75-2.75"/>
<path style="fill:none;stroke:#000000;stroke-linecap:round;stroke-miterlimit:10;" d="M71.5,67.194
	c2.965-0.587,3.625-1.694,3.625-1.694"/>
<path style="fill:none;stroke:#000000;stroke-linecap:round;stroke-miterlimit:10;" d="M60.875,65.5c0,0,1.125,2,7.125,2
	c0.175,0,0.333-0.008,0.5-0.011"/>
<path style="fill:none;stroke:#000000;stroke-linecap:round;stroke-linejoin:round;stroke-miterlimit:10;" d="M79.293,41.5
	c0.227,1.185,0.206,1.983,0.206,1.983s4.001-2.667,4.001-8.825c0-5.92-2.462-10.343-5.818-10.579
	c-0.728-1.813-3.341-4.579-9.089-4.579C58.7,19.5,52.5,27.079,52.5,34.658c0,6.316,3.885,8.667,4,8.842c0,0-0.48-3.211,2-7
	c0,2.526,1,3,1,3s4.088-5.928,9-8c0,1.263-0.14,3.632-2,6c1.154,0,2.143-0.233,3-0.607l2-1.304c1.944-1.782,2.736-4.282,3-5.089
	c0,1.883-0.055,2.39,1.227,4.25c0.183,0.266,0.371,0.514,0.556,0.75"/>
<path style="fill:none;stroke:#000000;stroke-linecap:round;stroke-linejoin:round;stroke-miterlimit:10;" d="M77.782,37.5
	c0.405,0.679,0.72,1.357,0.956,2"/>
<line style="fill:none;stroke:#000000;stroke-linecap:round;stroke-miterlimit:10;" x1="87.5" y1="76.5" x2="60.5" y2="76.5"/>
<path style="fill:none;stroke:#000000;stroke-miterlimit:10;" d="M61.252,59.75c0,0,4.25,2.75,6.75,2.75"/>
<line style="fill:none;stroke:#000000;stroke-linecap:round;stroke-miterlimit:10;" x1="57.5" y1="76.5" x2="55.5" y2="76.5"/>
<line style="fill:none;stroke:#000000;stroke-linecap:round;stroke-miterlimit:10;" x1="52.5" y1="76.5" x2="51.5" y2="76.5"/>
<path style="fill:none;stroke:#000000;stroke-miterlimit:10;" d="M32,62.5c2.5,0,6.75-2.75,6.75-2.75"/>
<path style="fill:none;stroke:#000000;stroke-linecap:round;stroke-miterlimit:10;" d="M35.5,67.194
	c2.965-0.587,3.625-1.694,3.625-1.694"/>
<path style="fill:none;stroke:#000000;stroke-linecap:round;stroke-miterlimit:10;" d="M24.875,65.5c0,0,1.125,2,7.125,2
	c0.175,0,0.333-0.008,0.5-0.011"/>
<path style="fill:none;stroke:#000000;stroke-linecap:round;stroke-linejoin:round;stroke-miterlimit:10;" d="M43.293,41.5
	c0.227,1.185,0.206,1.983,0.206,1.983s4.001-2.667,4.001-8.825c0-5.92-2.462-10.343-5.818-10.579
	c-0.728-1.813-3.341-4.579-9.089-4.579C22.7,19.5,16.5,27.079,16.5,34.658c0,6.316,3.885,8.667,4,8.842c0,0-0.48-3.211,2-7
	c0,2.526,1,3,1,3s4.088-5.928,9-8c0,1.263-0.14,3.632-2,6c1.154,0,2.143-0.233,3-0.607l2-1.304c1.944-1.782,2.736-4.282,3-5.089
	c0,1.883-0.055,2.39,1.227,4.25c0.183,0.266,0.371,0.514,0.556,0.75"/>
<path style="fill:none;stroke:#000000;stroke-linecap:round;stroke-linejoin:round;stroke-miterlimit:10;" d="M41.782,37.5
	c0.405,0.679,0.72,1.357,0.956,2"/>
<line style="fill:none;stroke:#000000;stroke-linecap:round;stroke-miterlimit:10;" x1="51.5" y1="76.5" x2="23.5" y2="76.5"/>
<path style="fill:none;stroke:#000000;stroke-miterlimit:10;" d="M25.252,59.75c0,0,4.25,2.75,6.75,2.75"/>
<path style="fill:none;stroke:#000000;stroke-width:2;stroke-linejoin:round;stroke-miterlimit:10;" d="M18.096,41.031
	c0,0-0.553,0.74-0.675,0.898c-0.204,0.269-0.397,0.676-0.417,1.237c-0.012,0.339,0.802,4.619,1.039,5.354
	c0.26,0.826,0.78,1.503,1.46,1.73v0.613c0,1.52,0.721,3.331,1.25,4.137c1.59,2.422,3.125,4.395,5.25,5.77c0,0.087,0,1.393,0,1.48
	c0,2.5-2.5,3.438-2.5,3.438s-4.578,2.215-6.125,2.938C14.977,69.746,12.002,72,12.002,76c0,0.39-0.004,1.519,0,2
	c0,1.105,0.895,2,2,2H50c1.105,0,2-0.895,2-2c0.004-0.481,0-1.61,0-2c0-4-2.975-6.254-5.375-7.375
	c-1.547-0.723-6.125-2.938-6.125-2.938S38,64.75,38,62.25c0-0.087,0-1.393,0-1.48c2.125-1.375,3.66-3.348,5.25-5.77
	c0.529-0.806,1.25-2.618,1.25-4.137V50.25c0.679-0.227,1.2-0.904,1.46-1.73c0.236-0.735,1.051-5.015,1.039-5.354
	c-0.02-0.561-0.213-0.968-0.417-1.237c-0.122-0.159-0.675-0.898-0.675-0.898"/>
<path style="fill:none;stroke:#000000;stroke-width:2;stroke-linejoin:round;stroke-miterlimit:10;" d="M50.001,80
	C50.001,80,50.002,80,50.001,80H86c1.105,0,2-0.895,2-2c0.004-0.481,0-1.61,0-2c0-4-2.975-6.254-5.375-7.375
	c-1.547-0.723-6.125-2.938-6.125-2.938S74,64.75,74,62.25c0-0.087,0-1.393,0-1.48c2.125-1.375,3.66-3.348,5.25-5.77
	c0.529-0.806,1.25-2.618,1.25-4.137V50.25c0.679-0.227,1.2-0.904,1.46-1.73c0.236-0.735,1.051-5.015,1.039-5.354
	c-0.02-0.561-0.213-0.968-0.417-1.237c-0.122-0.159-0.675-0.898-0.675-0.898"/>
<path style="fill:none;stroke:#000000;stroke-width:2;stroke-linejoin:round;stroke-miterlimit:10;" d="M54.096,41.031
	c0,0-0.553,0.74-0.675,0.898c-0.204,0.269-0.397,0.676-0.417,1.237c-0.012,0.339,0.802,4.619,1.039,5.354
	c0.26,0.826,0.78,1.503,1.46,1.73v0.613c0,1.52,0.721,3.331,1.25,4.137c1.59,2.422,3.125,4.395,5.25,5.77c0,0.087,0,1.393,0,1.48
	c0,2.5-2.5,3.438-2.5,3.438s-4.578,2.215-6.125,2.938c-1.122,0.524-2.366,1.299-3.376,2.381"/>
<line style="fill:none;stroke:#000000;stroke-linecap:round;stroke-miterlimit:10;" x1="20.5" y1="76.5" x2="18.5" y2="76.5"/>
<line style="fill:none;stroke:#000000;stroke-linecap:round;stroke-miterlimit:10;" x1="16.5" y1="76.5" x2="15.5" y2="76.5"/>
</svg>