<?xml version="1.0" encoding="iso-8859-1"?><!-- Generator: Adobe Illustrator 19.1.1, SVG Export Plug-In . SVG Version: 6.00 Build 0)  --><svg xmlns="http://www.w3.org/2000/svg" xmlns:xlink="http://www.w3.org/1999/xlink" viewBox="0 0 50 50" width="50px" height="50px"><path d="M50,41v-4.2l-3.2-0.5c-0.1-0.3-0.3-0.7-0.4-1l1.8-2.7l-2.9-2.9l-2.6,1.9c-0.3-0.2-0.7-0.3-1-0.4L41.1,28h-4.2l-0.5,3.2c-0.3,0.1-0.7,0.3-1,0.4l-2.7-1.9l-3,3l1.8,2.5c-0.2,0.3-0.3,0.7-0.4,1.1L28,36.8V41l3.1,0.5c0.1,0.3,0.3,0.7,0.4,1l-1.8,2.7l3,3l2.7-1.8c0.4,0.2,0.7,0.3,1.1,0.4l0.4,3.2h4.2l0.5-3.2c0.3-0.1,0.7-0.3,1-0.4l2.7,1.8l3-3l-1.9-2.6c0.2-0.3,0.3-0.7,0.4-1L50,41z M39,42c-1.7,0-3-1.3-3-3s1.3-3,3-3s3,1.3,3,3S40.7,42,39,42z"/><g><path d="M21.837,39.627c-0.189,0.234-0.473,0.371-0.774,0.373c-0.001,0-0.003,0-0.005,0c-0.299,0-0.583-0.134-0.773-0.365l-4.147-5.053c-0.615,0.275-1.283,0.545-1.986,0.823c-3.902,1.546-8.758,3.471-9.092,9.54L5,46h17.157v-0.4c0-3.699,2.4-7.8,2.4-7.8l-0.756-0.614L21.837,39.627z"/><path d="M34.454,18.196c0.849-2.728,1.087-7.694-0.71-10.665c-0.853-1.409-1.888-2.304-3.604-2.646C29.174,3.665,27.357,3,24.936,3h-0.001c-3.685,0.083-6.377,1.21-8.004,3.349c-1.926,2.534-2.377,6.717-1.166,11.848c-0.413,0.531-0.784,1.38-0.687,2.538c0.295,2.164,1.118,3.054,1.788,3.418c0.318,1.719,1.307,3.673,2.191,4.603v3.552c-0.014,0.034-0.034,0.065-0.05,0.098c-0.052,0.109-0.11,0.215-0.181,0.317c-0.02,0.029-0.043,0.057-0.064,0.086c-0.087,0.115-0.182,0.226-0.29,0.333c-0.163,0.162-0.341,0.318-0.547,0.466l3.125,3.807l2.23-2.773l0.008,0.005l1.271-1.572l-3.416-2.032c-0.027-0.016-0.057-0.017-0.085-0.03V28.3l0.016-0.571l-0.505-0.287c-0.365-0.263-1.624-2.246-1.804-4.136l-0.013-0.896h-0.909c-0.142-0.056-0.59-0.53-0.777-1.894c-0.07-0.838,0.359-1.185,0.358-1.185l0.588-0.393l-0.174-0.685c-1.211-4.784-0.923-8.581,0.685-10.695c1.24-1.63,3.412-2.491,6.435-2.56c1.891,0,3.252,0.476,3.736,1.304l0.245,0.419l0.48,0.067c1.332,0.188,2.009,0.773,2.615,1.776c1.449,2.396,1.192,7.169,0.325,9.598l-0.316,0.823l0.792,0.396c0.089,0.063,0.33,0.409,0.27,1.125C32.969,21.987,32.5,22.383,32.4,22.4h-0.867l-0.123,0.858c-0.288,2.012-1.529,3.921-1.849,4.173l-0.504,0.287v2.853l2.487-2.487c0.65-1.026,1.452-2.533,1.732-3.895c0.717-0.341,1.613-1.227,1.82-3.507C35.19,19.558,34.88,18.73,34.454,18.196z"/></g></svg>