<?xml version="1.0" encoding="iso-8859-1"?>
<!-- Generator: Adobe Illustrator 26.0.1, SVG Export Plug-In . SVG Version: 6.00 Build 0)  -->
<svg version="1.1" baseProfile="basic" id="Layer_1"
	 xmlns="http://www.w3.org/2000/svg" xmlns:xlink="http://www.w3.org/1999/xlink" x="0px" y="0px" viewBox="0 0 64 64"
	 xml:space="preserve">
<path d="M47.191,40.328L35.076,52H17.055c-3.167,0-5.413-3.161-4.31-6.135c2.601-7.011,10.23-11.723,18.985-11.723
	C37.902,34.143,43.505,36.49,47.191,40.328z"/>
<path id="overlay_00000158023369717387845610000016122855053013183663_" d="M38.569,55.997c-0.335,0.131-0.713-0.247-0.568-0.582
	l1.31-2.882l11.887-11.901l2.241,2.227L41.553,54.746L38.569,55.997z"/>
<path d="M54.486,41.796l-2.218-2.233l1.128-1.114c0.539-0.539,1.368-0.611,1.863-0.116l0.378,0.393
	c0.553,0.553,0.509,1.354-0.044,1.936L54.486,41.796z"/>
<path d="M32,31c-5.514,0-10-4.71-10-10.5S26.486,10,32,10s10,4.71,10,10.5S37.514,31,32,31z"/>
</svg>