<?xml version="1.0" encoding="utf-8"?><!-- Generator: Adobe Illustrator 15.0.0, SVG Export Plug-In . SVG Version: 6.00 Build 0)  --><!DOCTYPE svg PUBLIC "-//W3C//DTD SVG 1.1//EN" "http://www.w3.org/Graphics/SVG/1.1/DTD/svg11.dtd"><svg xmlns="http://www.w3.org/2000/svg" xmlns:xlink="http://www.w3.org/1999/xlink" viewBox="0 0 50 50" width="50px" height="50px"><path d="M36,46c-5.514,0-10-4.486-10-10s4.486-10,10-10s10,4.486,10,10S41.514,46,36,46z M36,28c-4.411,0-8,3.589-8,8s3.589,8,8,8s8-3.589,8-8S40.411,28,36,28z"/><g><path d="M24,36c0-2.457,0.745-4.742,2.018-6.646c-0.011-0.021-0.027-0.039-0.037-0.062c-0.097-1.134-0.088-2.015-0.08-3.026l0.002-0.479c0.898-0.917,1.822-2.865,2.158-4.601c0.703-0.364,1.578-1.26,1.842-3.454c0.132-1.091-0.187-1.93-0.625-2.48c0.58-1.979,1.779-7.123-0.271-10.423c-0.858-1.384-2.161-2.255-3.873-2.593C24.19,1.041,22.38,0.391,19.95,0.391c-3.68,0.067-6.374,1.192-8.005,3.342c-1.934,2.549-2.293,6.411-1.071,11.486c-0.451,0.551-0.784,1.401-0.65,2.513c0.264,2.195,1.139,3.091,1.842,3.454c0.341,1.734,1.288,3.689,2.209,4.607l0.003,0.465c0.009,1.016,0.016,1.898-0.08,3.036c-0.612,1.405-2.649,2.207-4.998,3.131c-3.908,1.536-8.771,3.449-9.136,9.517L0,43h26.273C24.849,41.027,24,38.613,24,36z"/></g><line fill="none" stroke="#000000" stroke-width="2" stroke-miterlimit="10" x1="42" y1="42" x2="49" y2="49"/><path d="M28.943,4.83c-0.858-1.384-2.16-2.255-3.875-2.594c-0.944-1.193-2.754-1.843-5.184-1.843c-3.681,0.068-6.375,1.193-8.007,3.343c-1.933,2.548-2.292,6.41-1.069,11.484c-0.451,0.551-0.783,1.401-0.65,2.513c0.265,2.205,1.122,3.104,1.844,3.465c0.343,1.73,1.288,3.679,2.208,4.596l0.002,0.468c0.009,1.016,0.017,1.896-0.08,3.032c-0.612,1.406-2.649,2.208-4.999,3.132c-3.906,1.537-8.77,3.45-9.134,9.516L-0.062,43h15.14h2.939H22h2.939h5.218c-4.157-3.435-3.38-9.841-2.056-11.77c-0.715-0.364-1.303-0.764-1.726-1.225c-0.178-0.197-0.339-0.421-0.459-0.71c-0.097-1.136-0.089-2.019-0.08-3.03l0.002-0.479c0.896-0.915,1.815-2.857,2.155-4.589c0.723-0.362,1.579-1.261,1.844-3.465c0.131-1.09-0.188-1.929-0.624-2.48C29.795,13.273,30.994,8.129,28.943,4.83z"/></svg>