<?xml version="1.0" encoding="iso-8859-1"?>
<!-- Generator: Adobe Illustrator 26.0.1, SVG Export Plug-In . SVG Version: 6.00 Build 0)  -->
<svg version="1.1" baseProfile="basic" id="Layer_1"
	 xmlns="http://www.w3.org/2000/svg" xmlns:xlink="http://www.w3.org/1999/xlink" x="0px" y="0px" viewBox="0 0 64 64"
	 xml:space="preserve">
<path d="M39.228,48l-4.152,4H17.055c-3.167,0-5.413-3.161-4.31-6.135c2.601-7.011,10.23-11.723,18.985-11.723
	c6.172,0,11.774,2.348,15.46,6.185l-2.896,2.79c-2.959-3.053-7.574-4.975-12.565-4.975c-6.98,0-13.245,3.748-15.235,9.114
	C16.418,47.465,16.548,48,17.055,48H39.228z"/>
<path id="overlay_00000032609374717519112990000013019259712519870108_" d="M38.569,55.997c-0.335,0.131-0.713-0.247-0.568-0.582
	l1.31-2.882l11.887-11.901l2.241,2.227L41.553,54.746L38.569,55.997z"/>
<path d="M54.486,41.796l-2.218-2.233l1.128-1.114c0.539-0.539,1.368-0.611,1.863-0.116l0.378,0.393
	c0.553,0.553,0.509,1.354-0.044,1.936L54.486,41.796z"/>
<path d="M32,31c-5.514,0-10-4.71-10-10.5S26.486,10,32,10s10,4.71,10,10.5S37.514,31,32,31z M32,14c-3.309,0-6,2.916-6,6.5
	s2.691,6.5,6,6.5s6-2.916,6-6.5S35.309,14,32,14z"/>
</svg>