<?xml version="1.0" encoding="iso-8859-1"?>
<!-- Generator: Adobe Illustrator 26.0.1, SVG Export Plug-In . SVG Version: 6.00 Build 0)  -->
<svg version="1.1" baseProfile="basic" id="Layer_1"
	 xmlns="http://www.w3.org/2000/svg" xmlns:xlink="http://www.w3.org/1999/xlink" x="0px" y="0px" viewBox="0 0 64 64"
	 xml:space="preserve">
<path d="M14,23c3.309,0,6,2.916,6,6.5S17.309,36,14,36s-6-2.916-6-6.5S10.691,23,14,23z"/>
<path d="M24.985,46.181C25.168,47.858,23.749,49,22.409,49c-4.206,0-12.618,0-16.824,0c-1.344,0-2.753-1.135-2.57-2.812
	C3.523,41.521,8.244,38,14,38C19.751,38,24.479,41.516,24.985,46.181z"/>
<path d="M32,12c3.309,0,6,2.916,6,6.5S35.309,25,32,25s-6-2.916-6-6.5S28.691,12,32,12z"/>
<path d="M42.985,35.181C43.168,36.858,41.749,38,40.409,38c-4.206,0-12.618,0-16.824,0c-1.344,0-2.753-1.135-2.57-2.812
	C21.523,30.521,26.244,27,32,27C37.751,27,42.479,30.516,42.985,35.181z"/>
<path d="M50,23c3.309,0,6,2.916,6,6.5S53.309,36,50,36s-6-2.916-6-6.5S46.691,23,50,23z"/>
<path d="M60.985,46.181C61.168,47.858,59.749,49,58.409,49c-4.206,0-12.618,0-16.824,0c-1.344,0-2.753-1.135-2.57-2.812
	C39.523,41.521,44.244,38,50,38C55.751,38,60.479,41.516,60.985,46.181z"/>
</svg>