<?xml version="1.0" encoding="iso-8859-1"?>
<!-- Generator: Adobe Illustrator 25.4.1, SVG Export Plug-In . SVG Version: 6.00 Build 0)  -->
<svg version="1.1" baseProfile="basic" id="Layer_1"
	 xmlns="http://www.w3.org/2000/svg" xmlns:xlink="http://www.w3.org/1999/xlink" x="0px" y="0px" viewBox="0 0 72 72"
	 xml:space="preserve">
<path d="M46.557,29c0.75,1.487,1.744,2.827,2.937,3.968H14V29H46.557z"/>
<path id="overlay_00000058561133076055545100000007454248672342872975_" d="M59.5,12C65.299,12,70,16.701,70,22.5
	C70,28.299,65.299,33,59.5,33S49,28.299,49,22.5C49,16.701,53.701,12,59.5,12z M59.51,16.105c-1.862,0-3.31,1.593-3.31,3.497
	c0,2.11,1.448,3.641,3.31,3.641c1.862,0,3.29-1.531,3.29-3.641C62.8,17.698,61.352,16.105,59.51,16.105z M66.023,27.633v-0.091
	c-0.725-1.427-3.126-2.99-6.523-2.99c-3.397,0-5.798,1.563-6.523,2.967v0.113c0.657,1.54,3.239,3.262,6.523,3.262
	S65.321,29.174,66.023,27.633z"/>
<path d="M59.5,37c0.854,0,1.686-0.089,2.5-0.231V49c0,4.962-4.037,9-9,9H19c-4.963,0-9-4.038-9-9V22c0-4.962,4.037-9,9-9h5.246
	c2.037,0,4.035,0.701,5.624,1.974l2.262,1.809C32.307,16.923,32.527,17,32.754,17h13.337c-1.271,2.878-1.208,6.676-0.859,8H32.754
	c-2.037,0-4.035-0.701-5.624-1.974l-2.259-1.807C24.693,21.077,24.473,21,24.246,21H19c-0.552,0-1,0.449-1,1v27c0,0.551,0.448,1,1,1
	h34c0.552,0,1-0.449,1-1V35.909C55.698,36.608,57.553,37,59.5,37z"/>
</svg>