<?xml version="1.0" encoding="iso-8859-1"?>
<!-- Generator: Adobe Illustrator 24.2.1, SVG Export Plug-In . SVG Version: 6.00 Build 0)  -->
<svg version="1.1" id="Layer_1" xmlns="http://www.w3.org/2000/svg" xmlns:xlink="http://www.w3.org/1999/xlink" x="0px" y="0px"
	 viewBox="0 0 48 48" style="enable-background:new 0 0 48 48;" xml:space="preserve">
<path d="M45.561,43.439l-4.946-4.946C41.488,37.211,42,35.665,42,34c0-4.411-3.589-8-8-8s-8,3.589-8,8s3.589,8,8,8
	c1.665,0,3.211-0.512,4.493-1.386l4.946,4.946C43.732,45.854,44.116,46,44.5,46s0.768-0.146,1.061-0.439
	C46.146,44.975,46.146,44.025,45.561,43.439z M29,34c0-2.757,2.243-5,5-5s5,2.243,5,5s-2.243,5-5,5S29,36.757,29,34z"/>
<g>
	<path style="fill-rule:evenodd;clip-rule:evenodd;" d="M26.864,41H11.5c-0.827,0-1.5-0.673-1.5-1.5V39h15.349
		C24.496,37.528,24,35.824,24,34c0-1.063,0.169-2.086,0.477-3.048C24.15,30.981,23.824,31,23.5,31c-3.584,0-7.5-1.794-7.5-4v-2
		c0-1.657,1.343-3,3-3h9c1.478,0,2.7,1.071,2.947,2.478C31.91,24.17,32.935,24,34,24c2.254,0,4.327,0.755,6,2.014V8.5
		C40,6.019,37.981,4,35.5,4h-24C9.019,4,7,6.019,7,8.5v31c0,2.481,2.019,4.5,4.5,4.5H34C31.204,44,28.679,42.85,26.864,41z M23.5,12
		c1.93,0,3.5,1.57,3.5,3.5S25.43,19,23.5,19S20,17.43,20,15.5S21.57,12,23.5,12z"/>
</g>
</svg>