<?xml version="1.0" encoding="iso-8859-1"?><!-- Generator: Adobe Illustrator 23.0.3, SVG Export Plug-In . SVG Version: 6.00 Build 0)  --><svg xmlns="http://www.w3.org/2000/svg" xmlns:xlink="http://www.w3.org/1999/xlink" viewBox="0 0 50 50" width="50px" height="50px"><g id="Layer_1"><path d="M28,39.146V36.8c0.396-0.214,1.739-1.657,1.739-2.96c0.311-0.026,0.801-0.338,0.944-1.571c0.077-0.662-0.166-1.078-0.417-1.151C31.254,28.09,30.714,24,26.429,24l-0.84-1c-5.909,0-7.241,3.593-5.878,8.097c-0.186,0.116-0.494,0.49-0.417,1.151c0.144,1.233,0.634,1.545,0.944,1.571c0,1.38,1.366,2.768,1.763,2.981v2.346c-0.866,2.397-5.895,1.911-6.964,5.657C14.866,45.4,15.315,46,15.936,46h18.128c0.621,0,1.07-0.6,0.9-1.197C33.895,41.056,28.866,41.542,28,39.146z"/><path d="M19,22c-1.489,0-4.992-0.406-6.667-4H7c-1.71,0-3-1.29-3-3V7.1C4,5.391,5.387,4,7.091,4h12.818C21.613,4,23,5.391,23,7.1V15c0,1.71-1.29,3-3,3h-1.948c0.13,1.046,0.533,1.583,1.464,2.144c0.385,0.231,0.568,0.691,0.447,1.124C19.843,21.701,19.449,22,19,22z"/><path d="M31,22c-0.449,0-0.843-0.299-0.963-0.732c-0.121-0.433,0.063-0.893,0.447-1.124c0.932-0.561,1.334-1.097,1.464-2.144H30c-1.71,0-3-1.29-3-3V7.1C27,5.391,28.387,4,30.091,4h12.818C44.613,4,46,5.391,46,7.1V15c0,1.71-1.29,3-3,3h-5.333C35.992,21.594,32.489,22,31,22z"/></g><g id="&#x421;&#x43B;&#x43E;&#x439;_1"></g></svg>