<?xml version="1.0" encoding="utf-8"?><!-- Generator: Adobe Illustrator 17.0.0, SVG Export Plug-In . SVG Version: 6.00 Build 0)  --><!DOCTYPE svg PUBLIC "-//W3C//DTD SVG 1.1//EN" "http://www.w3.org/Graphics/SVG/1.1/DTD/svg11.dtd"><svg xmlns="http://www.w3.org/2000/svg" xmlns:xlink="http://www.w3.org/1999/xlink" viewBox="0 0 50 50" width="500px" height="500px"><path fill="none" stroke="#000000" stroke-width="2" stroke-linecap="round" stroke-miterlimit="10" d="M25,48.694c0,0-21-9.694-21-39.871C17.063,5.955,20.902,1,25,1s7.937,4.955,21,7.823C46,38,25,48.694,25,48.694z"/><circle fill="none" stroke="#000000" stroke-width="2" stroke-linecap="round" stroke-miterlimit="10" cx="25" cy="23" r="10"/><path d="M31.834,30.286c-1.547-1.375-4.252-1.482-4.779-2.899c-0.061-0.672-0.037-1.14-0.037-1.754c0.304-0.16,0.849-1.177,0.941-2.037c0.239-0.02,0.616-0.253,0.727-1.174c0.059-0.495-0.177-0.773-0.321-0.861c0.389-1.17,1.198-4.791-1.495-5.166c-0.277-0.487-0.987-0.733-1.909-0.733c-3.689,0.068-4.134,2.786-3.326,5.898c-0.144,0.088-0.38,0.366-0.321,0.861c0.111,0.921,0.487,1.155,0.727,1.174c0.092,0.859,0.658,1.877,0.963,2.037c0,0.614,0.023,1.082-0.038,1.754c-0.525,1.413-3.224,1.523-4.78,2.885c0,0,3.525,2.463,6.854,2.463S31.834,30.286,31.834,30.286z"/></svg>