<?xml version="1.0" encoding="iso-8859-1"?>
<!-- Generator: Adobe Illustrator 25.4.1, SVG Export Plug-In . SVG Version: 6.00 Build 0)  -->
<svg version="1.1" baseProfile="basic" id="Layer_1"
	 xmlns="http://www.w3.org/2000/svg" xmlns:xlink="http://www.w3.org/1999/xlink" x="0px" y="0px" viewBox="0 0 24 24"
	 xml:space="preserve">
<path d="M22,9H8v14h14V9z M11.711,11.798L13,13.087l2.813-2.813l1.414,1.414L13,15.918l-2.703-2.706L11.711,11.798z M11.711,17.391
	L13,18.68l2.813-2.813l1.414,1.414L13,21.511l-2.703-2.706L11.711,17.391z"/>
<g>
	<path d="M5.957,6.96H21.6l0-0.224l-1.407-2.248l-2.341,0.679c-0.833-0.713-1.797-1.271-2.833-1.64L14.503,1H9.495L8.981,3.527
		C7.955,3.893,6.999,4.445,6.17,5.149L3.727,4.331L1.222,8.669l1.932,1.709C3.052,10.924,3,11.467,3,12s0.052,1.076,0.153,1.622
		l-1.914,1.692L3.381,19.3l1.618,0.072l0.958-0.009V6.96z"/>
</g>
</svg>