<svg xmlns="http://www.w3.org/2000/svg"  viewBox="0 0 50 50" width="50px" height="50px"><path d="M 19 6 C 18.575 6 18.196641 6.2689219 18.056641 6.6699219 C 17.916641 7.0709219 18.044953 7.51725 18.376953 7.78125 C 19.155953 8.40225 19.688 9.1783906 20 10.150391 L 20 26.689453 L 10.242188 40.882812 C 9.8221875 41.493812 9.7751406 42.280547 10.119141 42.935547 C 10.464141 43.592547 11.140813 44 11.882812 44 L 38.117188 44 C 38.859187 44 39.534906 43.591547 39.878906 42.935547 C 40.223906 42.280547 40.177812 41.493812 39.757812 40.882812 L 30 26.689453 L 30 10.060547 C 30.131 9.0185469 30.582891 8.3457187 31.462891 7.8867188 C 31.870891 7.6737187 32.081656 7.2087188 31.972656 6.7617188 C 31.861656 6.3137187 31.461 6 31 6 L 19 6 z M 21.203125 8 L 28.572266 8 C 28.275266 8.551 28.087812 9.1807188 28.007812 9.8867188 C 28.002812 9.9247188 28 9.962 28 10 L 28 27 C 28 27.202 28.061781 27.400406 28.175781 27.566406 L 30.537109 31 L 19.462891 31 L 21.824219 27.566406 C 21.937219 27.400406 22 27.202 22 27 L 22 10 C 22 9.904 21.985984 9.8087969 21.958984 9.7167969 C 21.775984 9.0967969 21.523125 8.524 21.203125 8 z M 6 14 C 5.447 14 5 14.448 5 15 L 5 20.332031 C 1.964 21.733031 0.024 24.669188 0 27.992188 C -0.018 30.417188 0.91128125 32.692438 2.6132812 34.398438 C 4.2912812 36.077438 6.5393125 37 8.9453125 37 L 9 37 L 10 37 C 10.055 37.002 10.129891 37.003906 10.212891 37.003906 L 17.890625 26.023438 C 17.411625 23.315437 15.234953 21.191109 13.001953 20.287109 L 13.001953 15 C 13.001953 14.448 12.554953 14 12.001953 14 L 6 14 z M 34 14 C 33.447 14 33 14.448 33 15 L 33 22.832031 A 1.0001 1.0001 0 0 0 33 23.158203 L 33 27.646484 L 39.542969 37 L 40 37 L 47 37 C 47.553 37 48 36.552 48 36 L 48 23.167969 A 1.0001 1.0001 0 0 0 48 22.841797 L 48 18.029297 C 48.025 17.188297 48.6295 16.292437 49.4375 15.898438 C 49.8555 15.694437 50.078609 15.229391 49.974609 14.775391 C 49.869609 14.321391 49.466 14 49 14 L 34 14 z M 7 16 L 11 16 L 11 21 C 11 21.447 11.296563 21.839891 11.726562 21.962891 C 12.827375 22.276105 13.946661 23.013944 14.763672 24 L 3.4296875 24 C 4.1621036 23.097306 5.1515352 22.380288 6.3476562 21.9375 C 6.7386563 21.7915 7 21.418 7 21 L 7 16 z M 35 16 L 46.568359 16 C 46.225359 16.613 46.021 17.301 46 18 L 46 22 L 35 22 L 35 16 z"/></svg>