<svg xmlns="http://www.w3.org/2000/svg"  viewBox="0 0 50 50" width="50px" height="50px"><path d="M 36.263672 2.0253906 A 1.0001 1.0001 0 0 0 35.365234 2.6015625 L 33.943359 5.6308594 A 1.0001 1.0001 0 0 0 34.466797 6.9785156 L 35.529297 7.4199219 L 34.769531 9.3300781 L 34.726562 9.3125 A 1.0001 1.0001 0 0 0 34.722656 9.3105469 C 34.475384 9.2105481 34.282538 9.1271636 34.046875 9.0585938 C 33.811212 8.9900237 33.44568 8.9131283 33.042969 9.0839844 C 32.640258 9.2548404 32.440362 9.572712 32.326172 9.7910156 C 32.214323 10.004842 32.14086 10.20165 32.044922 10.443359 L 32.044922 10.445312 C 32.043122 10.449813 32.040862 10.452511 32.039062 10.457031 L 27.953125 20.339844 A 1.0001 1.0001 0 0 0 27.894531 20.537109 A 1.0001 1.0001 0 0 0 27.888672 20.548828 L 27.101562 22.664062 A 1.0001 1.0001 0 0 0 27.121094 23.40625 L 28.207031 25.941406 A 1.0001 1.0001 0 0 0 28.753906 26.476562 L 32.373047 27.923828 A 1.0001 1.0001 0 0 0 33.138672 27.914062 L 35.673828 26.828125 A 1.0001 1.0001 0 0 0 36.216797 26.257812 L 37.001953 24.144531 A 1.0001 1.0001 0 0 0 37.041016 24.003906 L 37.042969 23.998047 L 38.339844 20.869141 L 38.683594 21.009766 A 1.0001 1.0001 0 0 0 38.683594 21.011719 C 39.764655 21.453288 40.291704 22.964716 39.822266 24.125 L 37.642578 29.330078 A 1.0006031 1.0006031 0 0 0 37.642578 29.332031 C 36.388524 29.785768 35.343027 30.679507 34.699219 31.830078 L 22.394531 27.056641 A 1.0001 1.0001 0 0 0 22.003906 26.984375 A 1.0001 1.0001 0 0 0 21.671875 28.921875 L 34.060547 33.728516 C 34.024631 33.981396 34 34.237515 34 34.5 C 34 35.37316 34.210917 36.196893 34.576172 36.931641 C 33.881428 37.673199 33.344503 38.011719 30.998047 38.011719 C 29.512047 38.011719 25.1365 36.341438 22.6875 35.273438 C 22.4095 35.165438 22.124938 35.109172 21.835938 35.076172 L 23.109375 37.621094 C 25.143375 38.460094 29.149 40.011719 31 40.011719 C 33.733203 40.011719 34.765953 39.558153 35.796875 38.550781 C 36.523653 39.215853 37.424902 39.692661 38.425781 39.892578 C 38.358238 40.033129 38.285273 40.172451 38.21875 40.306641 C 38.081633 40.58323 37.940407 40.825311 37.826172 41.009766 L 24.804688 41.009766 L 25.181641 41.763672 C 25.384641 42.168672 25.524328 42.591484 25.611328 43.021484 L 44.341797 43.021484 C 44.648797 43.021484 44.990234 43.424953 44.990234 44.001953 L 44.990234 44.982422 L 25.607422 44.982422 C 25.491422 45.554422 25.281891 46.111906 24.962891 46.628906 C 24.883891 46.757906 24.791172 46.875141 24.701172 46.994141 L 45.996094 46.994141 C 46.552094 46.994141 47.001953 46.544281 47.001953 45.988281 L 47.001953 44.001953 C 47.001953 42.351953 45.808797 41.009766 44.341797 41.009766 L 40.103516 41.009766 C 40.312935 40.580572 40.508887 40.170133 40.669922 39.871094 C 43.138926 39.331427 45 37.126119 45 34.5 C 45 33.449252 44.697027 32.469591 44.181641 31.632812 A 1.0002259 1.0002259 0 0 0 44.224609 31.544922 L 46.322266 26.539062 A 1.0001 1.0001 0 0 0 46.326172 26.527344 C 48.212257 21.869319 45.943592 16.514341 41.279297 14.615234 A 1.0001 1.0001 0 0 0 41.265625 14.609375 L 40.982422 14.5 L 41.119141 14.171875 A 1.0001 1.0001 0 0 0 41.125 14.158203 C 41.22392 13.91015 41.30775 13.71441 41.375 13.476562 C 41.44225 13.238717 41.514471 12.880603 41.353516 12.484375 C 41.192547 12.088171 40.878535 11.87296 40.65625 11.751953 C 40.433965 11.630946 40.23033 11.555552 39.978516 11.455078 L 39.927734 11.435547 L 40.677734 9.5527344 L 41.572266 9.9238281 A 1.0001 1.0001 0 0 0 42.857422 9.4296875 L 44.294922 6.40625 A 1.0001 1.0001 0 0 0 43.773438 5.0546875 L 36.654297 2.1015625 A 1.0001 1.0001 0 0 0 36.263672 2.0253906 z M 36.769531 4.3164062 L 42.035156 6.5 L 41.458984 7.7128906 L 36.199219 5.53125 L 36.769531 4.3164062 z M 37.376953 8.1855469 L 38.830078 8.7871094 L 38.076172 10.679688 L 36.621094 10.085938 L 37.376953 8.1855469 z M 33.919922 11.144531 C 33.945742 11.154891 33.945016 11.154826 33.972656 11.166016 L 39.230469 13.308594 A 1.0001 1.0001 0 0 0 39.238281 13.3125 C 39.269891 13.32511 39.267905 13.326141 39.296875 13.337891 C 39.284735 13.368771 39.284924 13.370517 39.271484 13.404297 L 35.501953 22.492188 L 30.119141 20.335938 L 33.892578 11.208984 A 1.0001 1.0001 0 0 0 33.898438 11.195312 C 33.909127 11.168432 33.909862 11.169621 33.919922 11.144531 z M 40.216797 16.347656 L 40.525391 16.46875 C 44.187096 17.959644 45.950571 22.127369 44.472656 25.777344 L 42.689453 30.03125 C 41.900983 29.466169 40.960478 29.105398 39.941406 29.023438 L 41.671875 24.886719 A 1.0001 1.0001 0 0 0 41.677734 24.875 C 42.548092 22.723788 41.669234 20.07119 39.441406 19.160156 L 39.439453 19.160156 L 39.107422 19.023438 L 40.216797 16.347656 z M 8.2324219 22 A 1.0001 1.0001 0 1 0 8.2324219 24 L 9.2324219 24 L 9.2324219 29.791016 L 3.5429688 42.796875 C 2.691055 44.745369 4.1662081 47 6.2929688 47 L 20.998047 47 C 23.186683 47 24.660821 44.615092 23.681641 42.658203 L 17.232422 29.763672 L 17.232422 24 L 18.232422 24 A 1.0001 1.0001 0 1 0 18.232422 22 L 8.2324219 22 z M 29.40625 22.205078 L 34.787109 24.361328 L 34.492188 25.158203 L 32.732422 25.912109 L 29.882812 24.773438 L 29.117188 22.986328 L 29.40625 22.205078 z M 11.232422 24 L 15.232422 24 L 15.232422 30.236328 L 16.615234 33 L 10.011719 33 L 11.232422 30.208984 L 11.232422 24 z M 39.5 30.742188 C 41.585017 30.742188 43.257812 32.414026 43.257812 34.5 C 43.257812 36.586201 41.586201 38.257812 39.5 38.257812 C 37.414983 38.257812 35.742188 36.585974 35.742188 34.5 C 35.742188 32.414026 37.414983 30.742187 39.5 30.742188 z M 9.1367188 35 L 17.615234 35 L 21.892578 43.552734 C 22.243398 44.253846 21.78341 45 20.998047 45 L 6.2929688 45 C 5.5337294 45 5.0709136 44.293162 5.375 43.597656 L 9.1367188 35 z M 11.232422 37 A 1 1 0 0 0 11.232422 39 A 1 1 0 0 0 11.232422 37 z M 14.732422 39 A 1.5 1.5 0 0 0 14.732422 42 A 1.5 1.5 0 0 0 14.732422 39 z"/></svg>