<svg xmlns="http://www.w3.org/2000/svg"  viewBox="0 0 32 32" width="64px" height="64px"><path d="M 6 3.5859375 L 2.2929688 7.2929688 L 3.7070312 8.7070312 L 5 7.4140625 L 5 27 L 6 27 L 27 27 L 27 25 L 8.5410156 25 C 9.0871227 24.075258 9.5729695 22.926603 10.027344 21.648438 C 10.989917 18.940693 11.792755 15.70086 12.320312 13.351562 C 12.630498 11.970448 13.83598 11 15.248047 11 L 27 11 L 27 9 L 15.248047 9 C 12.910114 9 10.880956 10.633225 10.369141 12.912109 C 9.8506983 15.220812 9.0532545 18.41676 8.1425781 20.978516 C 7.7713931 22.022669 7.3786475 22.95008 7 23.660156 L 7 7.4140625 L 8.2929688 8.7070312 L 9.7070312 7.2929688 L 6 3.5859375 z"/></svg>