<svg xmlns="http://www.w3.org/2000/svg"  viewBox="0 0 32 32" width="64px" height="64px"><path d="M 13 4 C 11.097052 4 9.5663443 5.3784898 9.1699219 7.1679688 C 6.8273891 7.5797254 5 9.5443337 5 12 C 5 12.251702 5.0483294 12.472143 5.0839844 12.701172 C 4.4429581 13.647455 4 14.757868 4 16 C 4 17.795579 4.8922365 19.315649 6.1503906 20.412109 C 6.0624281 20.762672 6 21.123172 6 21.5 C 6 23.973438 8.026562 26 10.5 26 C 10.52688 26 10.540416 25.994841 10.566406 25.994141 C 11.149266 27.119862 12.153995 28 13.5 28 C 14.474962 28 15.359073 27.591057 15.996094 26.939453 C 16.632231 27.592275 17.518595 28 18.5 28 C 19.040999 28 19.549334 27.86248 20.009766 27.638672 C 21.012225 29.057457 22.66051 30 24.5 30 C 25.7 30 26.699609 29.6 27.599609 29 L 30.599609 32 L 32 30.599609 L 29 27.599609 C 29.6 26.699609 30 25.6 30 24.5 C 30 22.329349 28.688157 20.426642 26.828125 19.537109 C 27.575671 18.52477 28 17.295489 28 16 C 28 14.801 27.640125 13.652391 26.953125 12.650391 C 26.984125 12.428391 27 12.213 27 12 C 27 9.548 25.226531 7.5020781 22.894531 7.0800781 C 22.477531 5.3160781 20.889 4 19 4 C 17.797968 4 16.729891 4.5430454 15.996094 5.3847656 C 15.261016 4.5446857 14.195189 4 13 4 z M 13 6 C 14.116666 6 15 6.8833339 15 8 L 15 10 C 15 11.668484 13.668484 13 12 13 L 12 15 C 13.150513 15 14.174057 14.573987 15 13.898438 L 15 24.5 C 15 25.340812 14.340812 26 13.5 26 C 12.753542 26 12.155397 25.468934 12.029297 24.767578 L 11.855469 23.806641 L 10.890625 23.957031 C 10.715217 23.984469 10.590743 24 10.5 24 C 9.107438 24 8 22.892562 8 21.5 C 8 21.167461 8.0661695 20.853065 8.1875 20.556641 C 8.4989233 19.790771 9.174279 19.218199 10 19.050781 L 9.6015625 17.089844 C 8.5665742 17.299691 7.6616812 17.866966 7.0175781 18.654297 C 6.3859873 17.950018 6 17.026182 6 16 C 6 15.060678 6.334998 14.215082 6.890625 13.519531 L 7.1914062 13.142578 L 7.0839844 12.671875 C 7.0304095 12.438094 7 12.216228 7 12 C 7 10.331516 8.3315161 9 10 9 L 11 9 L 11 8 C 11 6.8833339 11.883334 6 13 6 z M 19 6 C 20.103 6 21 6.897 21 8 L 21 9 L 22 9 C 23.654 9 25 10.346 25 12 C 25 12.207 24.973016 12.425922 24.916016 12.669922 L 24.808594 13.140625 L 25.109375 13.519531 C 25.691375 14.248531 26 15.106 26 16 C 26 17.161792 25.493257 18.249528 24.626953 19.005859 C 24.584413 19.00485 24.542749 19 24.5 19 C 21.5 19 19 21.5 19 24.5 C 19 24.954141 19.064233 25.394073 19.171875 25.818359 C 18.966289 25.923981 18.744342 26 18.5 26 C 17.673 26 17 25.327 17 24.5 L 17 13.898438 C 17.825943 14.573987 18.849487 15 20 15 L 20 13 C 18.331516 13 17 11.668484 17 10 L 17 8 C 17 6.897 17.897 6 19 6 z M 24.5 21 C 26.4 21 28 22.6 28 24.5 C 28 26.4 26.4 28 24.5 28 C 22.6 28 21 26.4 21 24.5 C 21 22.6 22.6 21 24.5 21 z"/></svg>