<svg xmlns="http://www.w3.org/2000/svg"  viewBox="0 0 32 32" width="64px" height="64px"><path d="M 14 3 C 11.800781 3 10 4.800781 10 7 C 10 8.851563 11.285156 10.40625 13 10.855469 L 13 15.144531 C 11.285156 15.59375 10 17.148438 10 19 C 10 19.222656 10.03125 19.441406 10.066406 19.65625 L 7.164063 20.941406 C 6.617188 20.367188 5.851563 20 5 20 C 3.355469 20 2 21.355469 2 23 C 2 24.644531 3.355469 26 5 26 C 6.644531 26 8 24.644531 8 23 C 8 22.921875 7.984375 22.847656 7.976563 22.769531 L 10.890625 21.476563 C 11.625 22.394531 12.742188 23 14 23 C 15.195313 23 16.261719 22.457031 16.996094 21.613281 L 22.09375 24.164063 C 22.035156 24.433594 22 24.714844 22 25 C 22 27.199219 23.800781 29 26 29 C 28.199219 29 30 27.199219 30 25 C 30 22.800781 28.199219 21 26 21 C 24.804688 21 23.738281 21.542969 23.003906 22.386719 L 17.90625 19.839844 C 17.964844 19.566406 18 19.289063 18 19 C 18 17.148438 16.714844 15.59375 15 15.144531 L 15 10.855469 C 16.714844 10.40625 18 8.851563 18 7 C 18 4.800781 16.199219 3 14 3 Z M 14 5 C 15.117188 5 16 5.882813 16 7 C 16 8.117188 15.117188 9 14 9 C 12.882813 9 12 8.117188 12 7 C 12 5.882813 12.882813 5 14 5 Z M 14 17 C 15.117188 17 16 17.882813 16 19 C 16 20.117188 15.117188 21 14 21 C 12.882813 21 12 20.117188 12 19 C 12 17.882813 12.882813 17 14 17 Z M 5 22 C 5.5625 22 6 22.4375 6 23 C 6 23.5625 5.5625 24 5 24 C 4.4375 24 4 23.5625 4 23 C 4 22.4375 4.4375 22 5 22 Z M 26 23 C 27.117188 23 28 23.882813 28 25 C 28 26.117188 27.117188 27 26 27 C 24.882813 27 24 26.117188 24 25 C 24 23.882813 24.882813 23 26 23 Z"/></svg>