<svg xmlns="http://www.w3.org/2000/svg"  viewBox="0 0 50 50" width="50px" height="50px"><path d="M 25 4 A 2 2 0 0 0 25 8 A 2 2 0 0 0 25 4 z M 19 6 A 2 2 0 0 0 19 10 A 2 2 0 0 0 19 6 z M 31 6 A 2 2 0 0 0 31 10 A 2 2 0 0 0 31 6 z M 3.9550781 8 A 1.0001 1.0001 0 1 0 3.9550781 10 C 9.0467006 10 12.079697 11.429597 14.025391 13.609375 C 15.971084 15.789153 16.864928 18.855968 17.230469 22.259766 L 17.251953 22.470703 L 20.898438 28.753906 C 21.025502 28.982488 20.974098 29.159814 20.757812 29.28125 L 17.310547 31.005859 L 16.332031 37.775391 C 16.218671 38.484077 15.782462 39.390337 15.203125 40.035156 C 14.623792 40.679975 13.958294 41.021515 13.423828 41 L 13.404297 41 L 8.9101562 41 L 8.9101562 46 A 1.0001 1.0001 0 1 0 10.910156 46 L 10.910156 43 L 13.34375 43 C 14.697284 43.05448 15.848791 42.306775 16.689453 41.371094 C 17.530116 40.435413 18.118 39.271111 18.306641 38.091797 L 18.308594 38.083984 L 19.140625 32.326172 L 21.712891 31.041016 L 21.730469 31.029297 C 22.870274 30.394766 23.27498 28.911877 22.646484 27.78125 L 22.642578 27.773438 L 19.160156 21.771484 C 18.752304 18.255137 17.811583 14.849526 15.515625 12.277344 C 13.157819 9.6358718 9.4334556 8 3.9550781 8 z M 46 8 C 40.521623 8 36.795419 9.6357617 34.4375 12.277344 C 32.140593 14.850573 31.20294 18.257273 30.794922 21.775391 L 27.310547 27.775391 L 27.306641 27.783203 C 26.678145 28.91383 27.082851 30.396719 28.222656 31.03125 L 28.242188 31.041016 L 30.814453 32.328125 L 31.646484 38.083984 L 31.648438 38.091797 C 31.837104 39.271281 32.422919 40.43743 33.263672 41.373047 C 34.104425 42.308664 35.256111 43.054503 36.609375 43 L 36.570312 43.001953 L 39.044922 43.001953 L 39.044922 46.001953 A 1.0001 1.0001 0 1 0 41.044922 46.001953 L 41.044922 41.001953 L 36.550781 41.001953 L 36.529297 41.001953 C 35.995561 41.023453 35.33145 40.680039 34.751953 40.035156 C 34.172456 39.390273 33.736379 38.483907 33.623047 37.775391 L 32.644531 31.005859 L 29.195312 29.28125 C 28.979028 29.159814 28.927622 28.982488 29.054688 28.753906 L 32.701172 22.472656 L 32.724609 22.261719 C 33.090643 18.857366 33.983856 15.789293 35.929688 13.609375 C 37.875515 11.429457 40.908377 10 46 10 A 1.0001 1.0001 0 1 0 46 8 z M 5 15 A 2 2 0 0 0 5 19 A 2 2 0 0 0 5 15 z M 11 15 A 2 2 0 0 0 11 19 A 2 2 0 0 0 11 15 z M 39 15 A 2 2 0 0 0 39 19 A 2 2 0 0 0 39 15 z M 5 21 A 2 2 0 0 0 5 25 A 2 2 0 0 0 5 21 z M 11 21 A 2 2 0 0 0 11 25 A 2 2 0 0 0 11 21 z M 39 21 A 2 2 0 0 0 39 25 A 2 2 0 0 0 39 21 z"/></svg>