<svg xmlns="http://www.w3.org/2000/svg"  viewBox="0 0 32 32" width="64px" height="64px"><path d="M 25 1.4394531 L 24.230469 2.359375 C 23.880469 2.779375 21.740313 5.3904687 20.320312 7.9804688 C 19.980313 8.5904687 19.679219 9.1992969 19.449219 9.7792969 C 19.169219 10.499297 19 11.17 19 11.75 C 19 12.22 19.060156 12.690859 19.160156 13.130859 C 19.440156 14.310859 20.059922 15.350625 20.919922 16.140625 C 21.749922 16.920625 22.800703 17.460156 23.970703 17.660156 C 24.300703 17.720156 24.65 17.75 25 17.75 C 25.33 17.75 25.660703 17.719922 25.970703 17.669922 C 28.820703 17.209922 31 14.73 31 11.75 C 31 8.73 26.299531 2.999375 25.769531 2.359375 L 25 1.4394531 z M 13.179688 4 L 12.449219 7.6503906 C 11.449219 8.0303906 10.529453 8.57 9.6894531 9.25 L 6.1503906 8.0605469 L 3.3300781 12.939453 L 6.1308594 15.400391 C 6.0408594 15.940391 6 16.48 6 17 C 6 17.52 6.0408594 18.059609 6.1308594 18.599609 L 3.3300781 21.060547 L 6.1503906 25.939453 L 9.6894531 24.740234 C 10.519453 25.430234 11.459219 25.969609 12.449219 26.349609 L 13.179688 30 L 18.820312 30 L 19.550781 26.349609 C 20.550781 25.969609 21.470547 25.43 22.310547 24.75 L 25.849609 25.939453 L 28.669922 21.060547 L 26.910156 19.519531 C 26.300156 19.669531 25.66 19.75 25 19.75 C 24.69 19.75 24.389844 19.729219 24.089844 19.699219 L 26.119141 21.480469 L 24.939453 23.519531 L 21.849609 22.480469 L 21.410156 22.880859 C 20.520156 23.700859 19.500859 24.290625 18.380859 24.640625 L 17.820312 24.820312 L 17.179688 28 L 14.820312 28 L 14.179688 24.810547 L 13.619141 24.640625 C 12.499141 24.290625 11.479844 23.700859 10.589844 22.880859 L 10.150391 22.480469 L 7.0605469 23.519531 L 5.8808594 21.480469 L 8.3300781 19.330078 L 8.1992188 18.75 C 8.0692188 18.16 8 17.57 8 17 C 8 16.43 8.0692188 15.84 8.1992188 15.25 L 8.3300781 14.669922 L 5.8808594 12.519531 L 7.0605469 10.480469 L 10.150391 11.519531 L 10.589844 11.119141 C 11.479844 10.299141 12.499141 9.709375 13.619141 9.359375 L 14.179688 9.1796875 L 14.820312 6 L 17.179688 6 L 17.730469 8.7304688 C 18.120469 7.7904688 18.639219 6.820625 19.199219 5.890625 L 18.820312 4 L 13.179688 4 z M 25 4.5996094 C 26.79 6.8996094 29 10.24 29 11.75 C 29 13.65 27.680391 15.240625 25.900391 15.640625 C 25.610391 15.710625 25.31 15.75 25 15.75 C 24.61 15.75 24.229141 15.689844 23.869141 15.589844 C 22.209141 15.099844 21 13.57 21 11.75 C 21 11.51 21.059922 11.220391 21.169922 10.900391 C 21.329922 10.360391 21.629766 9.7092969 22.009766 9.0292969 C 22.819766 7.5692969 23.98 5.9196094 25 4.5996094 z M 16 12 C 13.24 12 11 14.24 11 17 C 11 19.76 13.24 22 16 22 C 18.23 22 20.119531 20.539297 20.769531 18.529297 C 20.099531 18.119297 19.51 17.609297 19 17.029297 C 18.98 18.669297 17.64 20 16 20 C 14.35 20 13 18.65 13 17 C 13 15.35 14.35 14 16 14 C 16.52 14 17.009453 14.129141 17.439453 14.369141 C 17.189453 13.659141 17.039766 12.889609 17.009766 12.099609 C 16.679766 12.039609 16.34 12 16 12 z"/></svg>