<svg xmlns="http://www.w3.org/2000/svg"  viewBox="0 0 48 48" width="48px" height="48px"><path d="M 10 3 A 1.0001 1.0001 0 0 0 9 4 C 9 16.984713 23.513672 24.875 23.513672 24.875 C 23.513672 24.875 36.088495 32.117876 36.859375 43 L 10 43 A 1.0001 1.0001 0 1 0 10 45 L 38 45 A 1.0001 1.0001 0 0 0 39 44 C 39 31.015287 24.486328 23.125 24.486328 23.125 C 24.486328 23.125 11.911505 15.882124 11.140625 5 L 38 5 A 1.0001 1.0001 0 1 0 38 3 L 10 3 z M 17 8 A 1.0001 1.0001 0 1 0 17 10 L 37.210938 10 A 1.0001 1.0001 0 1 0 37.210938 8 L 17 8 z M 19 13 A 1.0001 1.0001 0 1 0 19 15 L 34.886719 15 A 1.0001 1.0001 0 1 0 34.886719 13 L 19 13 z M 24 18 A 1.0001 1.0001 0 1 0 24 20 L 30.572266 20 A 1.0001 1.0001 0 1 0 30.572266 18 L 24 18 z M 17.427734 28 A 1.0001 1.0001 0 1 0 17.427734 30 L 24 30 A 1.0001 1.0001 0 1 0 24 28 L 17.427734 28 z M 13.113281 33 A 1.0001 1.0001 0 1 0 13.113281 35 L 29 35 A 1.0001 1.0001 0 1 0 29 33 L 13.113281 33 z M 10.789062 38 A 1.0001 1.0001 0 1 0 10.789062 40 L 31 40 A 1.0001 1.0001 0 1 0 31 38 L 10.789062 38 z"/></svg>