<svg xmlns="http://www.w3.org/2000/svg" width="2in" height="2in" fill-rule="evenodd" clip-rule="evenodd" image-rendering="optimizeQuality" shape-rendering="geometricPrecision" text-rendering="geometricPrecision" viewBox="0 0 2000 2000" id="beaker">
  <path d="M1008 351l-208 0c-9 0-17-7-17-17 0-9 8-16 17-16l208 0c9 0 17 7 17 16 0 10-8 17-17 17zM1008 480l-208 0c-9 0-17-7-17-16 0-9 8-17 17-17l208 0c9 0 17 8 17 17 0 9-8 16-17 16zM1008 610l-208 0c-9 0-17-8-17-17 0-9 8-16 17-16l208 0c9 0 17 7 17 16 0 9-8 17-17 17z"></path>
  <path fill="#efeff0" d="M1612 1853l-1224 0c-22,0 -41,-10 -53,-29 -11,-18 -12,-40 -3,-59l443 -923 0 -679c0,-9 8,-16 17,-16l416 0c9,0 17,7 17,16l0 679 443 923c9,19 8,41 -3,59 -12,19 -31,29 -53,29z"></path>
  <path fill="#c7c7c7" d="M1612 1853l-1224 0c-22,0 -41,-10 -53,-29 -11,-18 -12,-40 -3,-59l306 -638 724 0 306 638c9,19 8,41 -3,59 -12,19 -31,29 -53,29z"></path>
  <path fill="#d7d7d7" d="M978 1017c-50,0 -91,-41 -91,-91 0,-50 41,-91 91,-91 50,0 91,41 91,91 0,50 -41,91 -91,91z"></path>
  <path fill="#b5b6b6" d="M1208 1406c-12 0-23-2-34-7-22-9-40-26-49-48-10-23-10-47-1-70 14-34 47-56 84-56 12 0 23 2 34 6 46 19 69 72 50 118-14 35-47 57-84 57zM1028 1718c-12 0-23-2-34-6-23-9-40-27-50-49-9-22-9-47 0-69 14-35 47-57 84-57 11 0 23 2 34 7 22 9 40 26 49 48 10 23 10 47 1 70-14 34-47 56-84 56zM640 1757c-11 0-23-3-34-7-46-19-68-72-50-118 14-34 47-57 84-57 12 0 24 3 34 7 23 9 40 26 50 49 9 22 10 47 0 69-13 34-46 57-84 57z"></path>
  <path fill="#c2c2c3" d="M1319 180l-638 0c-9,0 -17,-7 -17,-17 0,-9 8,-16 17,-16l638 0c9,0 17,7 17,16 0,10 -8,17 -17,17z"></path>
</svg>
