<svg xmlns="http://www.w3.org/2000/svg" width="2in" height="2in" fill-rule="evenodd" clip-rule="evenodd" image-rendering="optimizeQuality" shape-rendering="geometricPrecision" text-rendering="geometricPrecision" viewBox="0 0 2000 2000" id="binary-code">
  <path fill="#292929" d="M1165 1595l-330 0c-9,0 -16,-7 -16,-16l0 -198c0,-9 7,-16 16,-16l330 0c9,0 16,7 16,16l0 198c0,9 -7,16 -16,16z"></path>
  <path fill="#393939" d="M1800 1398l-1600 0c-30,0 -53,-24 -53,-53l0 -1033c0,-29 23,-53 53,-53l1600 0c30,0 53,24 53,53l0 1033c0,29 -23,53 -53,53z"></path>
  <path fill="#c7c7c7" d="M1724 1214l-1448 0c-9,0 -17,-7 -17,-16l0 -788c0,-9 8,-16 17,-16l1448 0c9,0 17,7 17,16l0 788c0,9 -8,16 -17,16z"></path>
  <path fill="#393939" d="M1383 1741l-766 0c-30,0 -53,-24 -53,-53l0 -73c0,-29 23,-53 53,-53l766 0c30,0 53,24 53,53l0 73c0,29 -23,53 -53,53z"></path>
  <path fill="#5e5e5e" d="M1093 1305l-186 0c-9,0 -16,-7 -16,-16 0,-9 7,-17 16,-17l186 0c9,0 16,8 16,17 0,9 -7,16 -16,16z"></path>
  <path fill="#fff" d="M793 752l-170 0c-9 0-17-8-17-17l0-191c0-9 8-17 17-17l170 0c9 0 17 8 17 17l0 191c0 9-8 17-17 17zm-154-34l137 0 0-157-137 0 0 157zM1279 752l-171 0c-9 0-16-8-16-17l0-191c0-9 7-17 16-17l171 0c9 0 16 8 16 17l0 191c0 9-7 17-16 17zm-154-34l137 0 0-157-137 0 0 157zM883 752c-9 0-16-8-16-17l0-191c0-9 7-17 16-17 10 0 17 8 17 17l0 191c0 9-7 17-17 17zM1377 752c-9 0-16-8-16-17l0-191c0-9 7-17 16-17 9 0 17 8 17 17l0 191c0 9-8 17-17 17zM1016 752c-10 0-17-8-17-17l0-191c0-9 7-17 17-17 9 0 16 8 16 17l0 191c0 9-7 17-16 17zM1377 1075l-170 0c-9 0-17-7-17-17l0-191c0-9 8-16 17-16l170 0c9 0 17 7 17 16l0 191c0 10-8 17-17 17zm-153-33l137 0 0-158-137 0 0 158zM892 1075l-171 0c-9 0-16-7-16-17l0-191c0-9 7-16 16-16l171 0c9 0 16 7 16 16l0 191c0 10-7 17-16 17zm-154-33l137 0 0-158-137 0 0 158zM1117 1075c-10 0-17-7-17-17l0-191c0-9 7-16 17-16 9 0 16 7 16 16l0 191c0 10-7 17-16 17zM623 1075c-9 0-17-7-17-17l0-191c0-9 8-16 17-16 9 0 16 7 16 16l0 191c0 10-7 17-16 17zM984 1075c-9 0-16-7-16-17l0-191c0-9 7-16 16-16 10 0 17 7 17 16l0 191c0 10-7 17-17 17z"></path>
</svg>
