<svg xmlns="http://www.w3.org/2000/svg" width="2in" height="2in" fill-rule="evenodd" clip-rule="evenodd" image-rendering="optimizeQuality" shape-rendering="geometricPrecision" text-rendering="geometricPrecision" viewBox="0 0 2000 2000" id="chip">
  <path fill="#bdbdbe" d="M359 1330l-75 0c-10 0-17-8-17-17 0-9 7-17 17-17l68 0 100-99c3-4 7-5 11-5l100 0c9 0 16 7 16 16 0 10-7 17-16 17l-93 0-99 100c-3 3-8 5-12 5zM563 1079l-279 0c-10 0-17-7-17-16 0-10 7-17 17-17l279 0c9 0 16 7 16 17 0 9-7 16-16 16zM563 953l-279 0c-10 0-17-8-17-17 0-9 7-16 17-16l279 0c9 0 16 7 16 16 0 9-7 17-16 17zM563 812l-90 0c-4 0-8-2-12-5l-111-112-66 0c-10 0-17-7-17-16 0-10 7-17 17-17l73 0c4 0 8 2 11 5l112 112 83 0c9 0 16 7 16 16 0 9-7 17-16 17zM1356 1758c-9 0-17-7-17-16l0-88-104-105c-3-3-5-7-5-12l0-100c0-9 7-16 17-16 9 0 16 7 16 16l0 94 105 104c3 3 5 7 5 12l0 95c0 9-8 16-17 16zM1106 1739c-10 0-17-8-17-17l0-285c0-9 7-16 17-16 9 0 16 7 16 16l0 285c0 9-7 17-16 17zM950 1739c-9 0-16-8-16-17l0-285c0-9 7-16 16-16 9 0 17 7 17 16l0 285c0 9-8 17-17 17zM700 1743c-9 0-17-8-17-17l0-65c0-4 2-8 5-11l105-105 0-108c0-9 7-16 16-16 9 0 17 7 17 16l0 115c0 4-2 9-5 12l-104 104 0 58c0 9-8 17-17 17zM1537 796l-100 0c-9 0-16-8-16-17 0-9 7-17 16-17l93 0 99-99c3-4 8-5 12-5l75 0c10 0 17 7 17 16 0 10-7 17-17 17l-68 0-100 100c-3 3-7 5-11 5zM1716 941l-279 0c-9 0-16-7-16-16 0-10 7-17 16-17l279 0c10 0 17 7 17 17 0 9-7 16-17 16zM1716 1068l-279 0c-9 0-16-8-16-17 0-9 7-17 16-17l279 0c10 0 17 8 17 17 0 9-7 17-17 17zM1716 1325l-73 0c-4 0-8-1-11-5l-112-111-83 0c-9 0-16-8-16-17 0-9 7-17 16-17l90 0c4 0 8 2 12 5l111 112 66 0c10 0 17 7 17 17 0 9-7 16-17 16zM753 579c-9 0-16-7-16-16l0-94-105-104c-3-3-5-7-5-12l0-95c0-9 8-16 17-16 9 0 17 7 17 16l0 88 104 105c3 3 5 7 5 12l0 100c0 9-7 16-17 16zM894 579c-9 0-16-7-16-16l0-285c0-9 7-17 16-17 10 0 17 8 17 17l0 285c0 9-7 16-17 16zM1050 579c-9 0-17-7-17-16l0-285c0-9 8-17 17-17 9 0 17 8 17 17l0 285c0 9-8 16-17 16zM1191 579c-9 0-17-7-17-16l0-115c0-4 2-9 5-12l104-104 0-58c0-9 8-17 17-17 9 0 17 8 17 17l0 65c0 4-2 8-5 11l-105 105 0 108c0 9-7 16-16 16z"></path>
  <path fill="#7b7b7b" d="M1402 1454l-804 0c-29,0 -52,-23 -52,-52l0 -804c0,-29 23,-52 52,-52l804 0c29,0 52,23 52,52l0 804c0,29 -23,52 -52,52z"></path>
  <path fill="#dadada" d="M1000 1194c-107,0 -194,-87 -194,-194 0,-107 87,-194 194,-194 0,0 0,0 0,0 52,0 100,21 137,57 36,37 57,85 57,137 0,107 -87,194 -194,194z"></path>
  <path fill="#7b7b7b" d="M1301 291c-40 0-72-33-72-72 0-40 32-72 72-72 39 0 72 32 72 72 0 39-33 72-72 72zM699 1853c-39 0-72-32-72-72 0-39 33-72 72-72 40 0 72 33 72 72 0 40-32 72-72 72zM1772 1123c-40 0-72-32-72-72 0-40 32-72 72-72 39 0 72 32 72 72 0 40-33 72-72 72zM228 1008c-39 0-72-32-72-72 0-39 33-72 72-72 40 0 72 33 72 72 0 40-32 72-72 72z"></path>
</svg>
