<svg xmlns="http://www.w3.org/2000/svg" width="2in" height="2in" fill-rule="evenodd" clip-rule="evenodd" image-rendering="optimizeQuality" shape-rendering="geometricPrecision" text-rendering="geometricPrecision" viewBox="0 0 2000 2000" id="dna">
  <path fill="#cacaca" d="M1486 722c-99 0-175-16-179-17-6-1-11-6-12-12-1-4-20-92-17-203 4-148 45-265 118-338 7-7 18-7 24 0 7 6 7 17 0 23-147 147-105 440-95 500 60 10 353 52 500-95 6-7 17-7 23 0 7 6 7 17 0 24-73 73-190 114-338 118-8 0-16 0-24 0zM592 1853c-5 0-9-1-12-5-7-6-7-17 0-23 147-147 105-440 95-500-60-10-353-52-500 95-6 7-17 7-23 0-7-6-7-17 0-24 73-73 190-114 338-118 111-3 199 16 203 17 6 1 11 6 12 12 1 4 20 92 17 203-4 148-45 265-118 338-4 4-8 5-12 5z"></path>
  <path fill="#6c6c6c" d="M865 1343c-100,0 -176,-16 -179,-16 -6,-2 -11,-7 -13,-13 0,-4 -19,-92 -16,-202 4,-149 45,-266 118,-339 98,-98 251,-119 363,-119 99,0 175,16 178,17 7,1 12,6 13,13 1,3 19,91 16,202 -3,148 -44,265 -118,339 -98,98 -251,118 -362,118zm-161 -47c24,4 86,14 161,14 105,0 249,-19 339,-109 147,-147 105,-440 95,-500 -25,-4 -87,-13 -161,-13 -105,0 -249,19 -339,108 -147,148 -106,440 -95,500z"></path>
  <path fill="#909090" d="M1656 618c-5 0-9-2-12-5l-257-257c-7-6-7-17 0-23 6-7 17-7 23 0l257 257c7 6 7 17 0 23-3 3-7 5-11 5zM1539 647c-4 0-9-2-12-5l-169-169c-7-7-7-17 0-24 6-6 17-6 23 0l170 170c6 6 6 17 0 23-4 3-8 5-12 5zM608 1666c-5 0-9-2-12-5l-257-257c-7-6-7-17 0-23 6-7 17-7 23 0l257 257c7 6 7 17 0 23-3 3-7 5-11 5zM637 1549c-5 0-9-1-12-5l-169-169c-7-6-7-17 0-23 6-7 17-7 23 0l169 169c7 6 7 17 0 23-3 4-7 5-11 5z"></path>
  <path fill="#b1b1b2" d="M1235 950c-4,0 -8,-1 -11,-4l-170 -170c-6,-6 -6,-17 0,-23 7,-7 17,-7 24,0l169 169c7,7 7,17 0,24 -3,3 -7,4 -12,4z"></path>
  <path fill="#909090" d="M1173 1087c-4,0 -9,-1 -12,-5l-243 -243c-7,-7 -7,-17 0,-24 6,-6 17,-6 23,0l244 244c6,6 6,17 0,23 -4,4 -8,5 -12,5z"></path>
  <path fill="#9d9d9d" d="M1073 1187c-4,0 -8,-2 -12,-5l-243 -243c-7,-7 -7,-17 0,-24 6,-6 17,-6 23,0l244 244c6,6 6,17 0,23 -3,3 -8,5 -12,5z"></path>
  <path fill="#b1b1b2" d="M936 1250c-4,0 -8,-2 -11,-5l-170 -170c-6,-6 -6,-17 0,-23 7,-7 17,-7 24,0l169 169c7,7 7,17 0,24 -3,3 -7,5 -12,5z"></path>
</svg>
