<svg xmlns="http://www.w3.org/2000/svg" width="2in" height="2in" fill-rule="evenodd" clip-rule="evenodd" image-rendering="optimizeQuality" shape-rendering="geometricPrecision" text-rendering="geometricPrecision" viewBox="0 0 2000 2000" id="flask">
  <path fill="#efeff0" d="M1000 1853l0 0c-138,0 -267,-53 -365,-149 -98,-96 -152,-225 -154,-363 -1,-91 21,-180 65,-259 43,-76 104,-141 178,-187 38,-24 61,-66 61,-111l0 -621c0,-9 7,-16 16,-16l398 0c9,0 16,7 16,16l0 621c0,45 23,87 62,111 152,96 242,260 242,439 0,286 -233,519 -519,519l0 0z"></path>
  <path fill="#c2c2c3" d="M785 591l0 -34 223 0c9,0 16,8 16,17 0,9 -7,17 -16,17l-223 0zm0 -124l0 -33 223 0c9,0 16,7 16,16 0,10 -7,17 -16,17l-223 0zm0 -124l0 -33 223 0c9,0 16,8 16,17 0,9 -7,16 -16,16l-223 0z"></path>
  <path fill="#c7c7c7" d="M1000 1853l0 0c-138,0 -267,-53 -365,-149 -98,-96 -152,-225 -154,-363 -1,-68 12,-136 37,-199l965 0c23,60 36,125 36,192 0,286 -233,519 -519,519l0 0z"></path>
  <path fill="#c2c2c3" d="M1305 180l-610 0c-9 0-16-7-16-17 0-9 7-16 16-16l610 0c9 0 16 7 16 16 0 10-7 17-16 17zM979 1017c-48 0-87-39-87-88 0-48 39-87 87-87 48 0 87 39 87 87 0 48-39 88-87 88z"></path>
  <path fill="#b5b6b6" d="M1234 1367c-11 0-22-2-33-6-44-18-66-69-48-114 13-33 45-54 81-54 11 0 22 2 33 6 44 18 66 69 48 114-13 33-45 54-81 54zM1078 1702c-11 0-22-2-33-6-44-18-66-69-48-114 14-33 45-55 81-55 11 0 22 2 33 7 45 18 66 69 48 113-13 34-45 55-81 55zM695 1585c-11 0-22-2-32-7-45-18-67-69-49-113 14-33 46-55 81-55 12 0 23 2 33 7 22 8 39 25 48 46 9 22 9 46 0 67-13 33-45 55-81 55z"></path>
</svg>
