<svg xmlns="http://www.w3.org/2000/svg" width="2in" height="2in" fill-rule="evenodd" clip-rule="evenodd" image-rendering="optimizeQuality" shape-rendering="geometricPrecision" text-rendering="geometricPrecision" viewBox="0 0 2000 2000" id="microscope">
  <path fill="#c7c7c7" d="M868 1082c-13,0 -25,-6 -35,-15l-58 -58c-19,-20 -19,-51 0,-70l23 -23c9,-9 21,-14 35,-14 13,0 25,5 35,14l58 58c9,10 15,22 15,35 0,14 -6,26 -15,35l-23 23c-9,9 -21,15 -35,15z"></path>
  <path fill="#6e6e6e" d="M1486 453l0 0c-4,0 -9,-1 -12,-4l-81 -81c-6,-7 -6,-17 0,-24l125 -124c3,-3 7,-5 12,-5l0 0c4,0 8,2 12,5l80 80c7,7 7,18 0,24l-124 125c-3,3 -8,4 -12,4z"></path>
  <path fill="#888" d="M980 1068c-5 0-9-1-12-5l-189-189c-3-3-5-7-5-12 0-4 2-8 5-11l560-561c7-6 17-6 24 0l189 189c3 3 5 8 5 12 0 4-2 9-5 12-189 189-372 371-561 560-3 4-7 5-11 5zM704 1410c1-2 2-3 4-5 7-6 17-5 24 2 82 94 200 148 325 148 239 0 432-194 432-433 0-110-41-215-116-295-7-7-6-18 0-24 4-3 9-5 13-4 8-20 41-70 47-76 6-6 17-6 23 0 107 107 166 249 166 399 0 312-253 565-565 565-193 0-371-97-476-260-5-8-2-18 5-23 7-4 87 0 118 6z"></path>
  <path fill="#6e6e6e" d="M808 1434l-443 0c-33 0-60-27-60-59 0-33 27-60 60-60l443 0c32 0 59 27 59 60 0 32-27 59-59 59zM1319 850c-79 0-144-64-144-144 0-79 65-144 144-144 80 0 144 65 144 144 0 80-64 144-144 144zM1370 1853l-621 0c-10 0-17-8-17-17l0-165c0-10 7-17 17-17l621 0c9 0 16 7 16 17l0 165c0 9-7 17-16 17z"></path>
  <path fill="#888" d="M1652 360c-11,0 -22,-5 -30,-13l-127 -127c-17,-16 -17,-44 0,-60 8,-8 19,-13 30,-13 12,0 22,5 30,13l127 127c17,16 17,43 0,60 -8,8 -19,13 -30,13z"></path>
</svg>
