<?xml version="1.0" encoding="iso-8859-1"?><!-- Generator: Adobe Illustrator 19.1.1, SVG Export Plug-In . SVG Version: 6.00 Build 0)  --><svg xmlns="http://www.w3.org/2000/svg" xmlns:xlink="http://www.w3.org/1999/xlink" viewBox="0 0 50 50" width="50px" height="50px"><rect x="33" y="35" width="7" height="6"/><path d="M32.82,10.853c0.016-0.285,0.152-0.548,0.375-0.726l4.041-3.215c-0.165-0.131-0.317-0.254-0.451-0.367L36.78,6.552l-5.136-4.317c-0.011-0.009-0.025-0.011-0.036-0.019c-0.059-0.045-0.118-0.09-0.187-0.122C31.325,2.048,29.021,1,25,1c-4.022,0-6.325,1.048-6.421,1.093c-0.069,0.032-0.13,0.077-0.188,0.123c-0.01,0.008-0.024,0.01-0.034,0.018L13.22,6.552l-0.007-0.008c-0.145,0.123-0.313,0.259-0.497,0.404l4.08,3.172c0.227,0.176,0.366,0.441,0.384,0.728c0.018,0.286-0.088,0.566-0.291,0.769l-1.868,1.868l7.914,4.291c0.331-1.177,0.726-2.231,1.148-3.208c-1.644-2.515-3.868-6.127-4.069-10.875C20.858,3.423,22.572,3,25,3c2.425,0,4.138,0.422,4.98,0.69c-0.084,1.525-0.439,3.027-0.956,4.508c-0.483,1.531-1.084,2.991-1.776,4.371c-1.39,2.768-2.82,5.621-3.168,10.24l11.07-9.152l-2.04-2.041C32.91,11.415,32.804,11.137,32.82,10.853z"/><rect x="10" y="35" width="7" height="6"/><rect x="35" y="21" width="5" height="5"/><path d="M38.851,8.183l-3.534,2.811l2.025,2.026c0.199,0.199,0.305,0.473,0.292,0.754c-0.014,0.281-0.145,0.544-0.362,0.723L24,25.471V46h-2V28v-3c0-1.985,0.176-3.704,0.466-5.23l-9.576-5.162c-0.278-0.15-0.469-0.423-0.515-0.735c-0.046-0.313,0.059-0.629,0.282-0.852l2.017-2.017l-3.576-2.78C7.573,11.056,2,16.265,2,25v14c0,0.553,0.448,1,1,1h5v-6V19h2v14h8c0.552,0,1,0.447,1,1v7c0,1.103-0.897,2-2,2h-7v4c0,0.553,0.448,1,1,1h7h5h7h9c0.553,0,1-0.447,1-1v-4h-7c-1.103,0-2-0.897-2-2v-7c0-0.553,0.447-1,1-1h8v-5h-5c-1.103,0-2-0.897-2-2v-6c0-0.552,0.447-1,1-1h8v15v6h5c0.553,0,1-0.447,1-1V25C48,16.223,42.373,11.006,38.851,8.183z M27,39c-0.552,0-1-0.448-1-1c0-0.552,0.448-1,1-1c0.552,0,1,0.448,1,1C28,38.552,27.552,39,27,39z M27,34c-0.552,0-1-0.448-1-1c0-0.552,0.448-1,1-1c0.552,0,1,0.448,1,1C28,33.552,27.552,34,27,34z M27,29c-0.552,0-1-0.448-1-1s0.448-1,1-1c0.552,0,1,0.448,1,1S27.552,29,27,29z"/></svg>