<?xml version="1.0" encoding="iso-8859-1"?><!-- Generator: Adobe Illustrator 21.0.2, SVG Export Plug-In . SVG Version: 6.00 Build 0)  --><svg xmlns="http://www.w3.org/2000/svg" xmlns:xlink="http://www.w3.org/1999/xlink" viewBox="0 0 50 50" width="50px" height="50px"><path style="fill:none;stroke:#000000;stroke-width:2;stroke-linecap:round;stroke-miterlimit:10;" d="M30,16v9l-8.658,17.317C21.117,42.766,21,43.262,21,43.764v0C21,45.551,22.449,47,24.236,47h19.528C45.551,47,47,45.551,47,43.764v0c0-0.502-0.117-0.998-0.342-1.447L38,25v-9"/><line style="fill:none;stroke:#000000;stroke-width:2;stroke-linecap:round;stroke-miterlimit:10;" x1="29" y1="16" x2="39" y2="16"/><path style="fill:none;stroke:#000000;stroke-width:2;stroke-linecap:round;stroke-miterlimit:10;" d="M37,3h1.086c2.209,0,4,1.791,4,4v2H34"/><path style="fill:none;stroke:#000000;stroke-width:2;stroke-linecap:square;stroke-miterlimit:10;" d="M22.086,42H8c-2.209,0-4-1.791-4-4v-4h4.086"/><path d="M12,2C9.243,2,7,4.243,7,7v28h18l5-10v-9h5V7c0-1.654,1.346-3,3-3V2H12z M22,10c0.552,0,1,0.448,1,1s-0.448,1-1,1s-1-0.448-1-1S21.448,10,22,10z M21,17c0,0.552-0.448,1-1,1s-1-0.448-1-1s0.448-1,1-1S21,16.448,21,17z M19,10c0.552,0,1,0.448,1,1s-0.448,1-1,1s-1-0.448-1-1S18.448,10,19,10z M18,15c0,0.552-0.448,1-1,1s-1-0.448-1-1s0.448-1,1-1S18,14.448,18,15z M16,10c0.552,0,1,0.448,1,1s-0.448,1-1,1s-1-0.448-1-1S15.448,10,16,10z M13,10c0.552,0,1,0.448,1,1s-0.448,1-1,1s-1-0.448-1-1S12.448,10,13,10z M13,13c0.552,0,1,0.448,1,1s-0.448,1-1,1s-1-0.448-1-1S12.448,13,13,13z M13,16c0.552,0,1,0.448,1,1s-0.448,1-1,1s-1-0.448-1-1S12.448,16,13,16z M13,19c0.552,0,1,0.448,1,1s-0.448,1-1,1s-1-0.448-1-1S12.448,19,13,19z M13,30c-0.552,0-1-0.448-1-1s0.448-1,1-1s1,0.448,1,1S13.552,30,13,30z M13,27c-0.552,0-1-0.448-1-1s0.448-1,1-1s1,0.448,1,1S13.552,27,13,27z M25,22c-0.552,0-1-0.448-1-1s0.448-1,1-1s1,0.448,1,1S25.552,22,25,22z M26,11c0,7.168-5.832,13-13,13h-1v-2h1c6.065,0,11-4.935,11-11v-1h2V11z M28,12c-0.552,0-1-0.448-1-1s0.448-1,1-1s1,0.448,1,1S28.552,12,28,12z"/><path d="M46.658,42.317L40.5,30h-13l-6.158,12.317C21.117,42.766,21,43.261,21,43.764C21,45.551,22.449,47,24.236,47h19.528C45.551,47,47,45.551,47,43.764C47,43.261,46.883,42.766,46.658,42.317z M32,38c-0.552,0-1-0.448-1-1s0.448-1,1-1s1,0.448,1,1S32.552,38,32,38z M37.5,43c-0.828,0-1.5-0.672-1.5-1.5s0.672-1.5,1.5-1.5s1.5,0.672,1.5,1.5S38.328,43,37.5,43z"/></svg>