<?xml version="1.0" encoding="iso-8859-1"?><!-- Generator: Adobe Illustrator 21.1.0, SVG Export Plug-In . SVG Version: 6.00 Build 0)  --><svg xmlns="http://www.w3.org/2000/svg" xmlns:xlink="http://www.w3.org/1999/xlink" viewBox="0 0 50 50" width="50px" height="50px"><path d="M44.731,25.599c-1.475,2.037-3.56,3.886-6.566,4.387C38.109,29.996,38.053,30,37.999,30c-0.48,0-0.904-0.347-0.985-0.835c-0.091-0.545,0.277-1.06,0.822-1.151c4.589-0.765,6.637-5.637,7.737-8.254c0.066-0.157,0.124-0.291,0.184-0.432c0.337-2.676-0.043-5.146-1.184-7.234c-1.299-2.376-3.45-3.983-5.969-4.484C37.839,5.542,35.654,2,29.669,2C26,2,26,4.595,26,8.187v35.147c0,3.835,1.992,4.655,3.663,4.667c0.013,0,0.025,0,0.038,0c1.719,0,3.306-0.807,4.726-2.38C35.243,45.865,36.106,46,37,46c4.962,0,9-4.038,9-9c0-1.463-0.359-2.842-0.981-4.064C46.474,30.536,46.028,27.676,44.731,25.599z M32,13c0.552,0,1,0.448,1,1c0,1.486,1.264,4,6,4c0.552,0,1,0.448,1,1s-0.448,1-1,1c-6.328,0-8-3.925-8-6C31,13.448,31.448,13,32,13z M37,44c-3.86,0-7-3.14-7-7s3.14-7,7-7s7,3.14,7,7S40.86,44,37,44z"/><path d="M20,2c-4.356,0-7.32,1.937-8.61,5.611c-2.588,0.521-4.88,2.233-6.218,4.68c-1.705,3.12-1.767,7.033-0.241,11.181C6.561,22.196,8.906,21,12,21c4.364,0,6.613,2.199,6.707,2.293c0.391,0.391,0.391,1.023,0,1.414c-0.389,0.39-1.019,0.391-1.41,0.004C17.207,24.625,15.472,23,12,23c-3.951,0-6.449,2.371-7.529,3.679c-0.552,1.425-0.69,3.003-0.317,4.45c0.506,1.965,1.866,3.523,3.877,4.475c-0.752,1.791-0.69,3.591,0.2,5.163c1.117,1.974,3.395,3.312,5.935,3.534C14.83,46.127,16.39,48,20,48c2.467,0,4-1.788,4-4.667V8.187C24,4.564,23.713,2,20,2z M18,39c-0.552,0-1-0.448-1-1c0-0.21-0.059-5.165-5.164-6.014c-0.545-0.09-0.913-0.605-0.822-1.15c0.09-0.544,0.6-0.915,1.15-0.822C17.571,30.913,19,35.631,19,38C19,38.552,18.552,39,18,39z M14,17c-0.552,0-1-0.448-1-1s0.448-1,1-1c3.61,0,4-2.098,4-3c0-0.552,0.448-1,1-1s1,0.448,1,1C20,14.307,18.429,17,14,17z"/><line style="fill:none;stroke:#000000;stroke-width:2;stroke-miterlimit:10;" x1="42" y1="42" x2="49" y2="49"/><circle style="fill:none;stroke:#000000;stroke-width:2;stroke-miterlimit:10;" cx="37" cy="37" r="8"/></svg>