<?xml version="1.0" encoding="iso-8859-1"?>
<!-- Generator: Adobe Illustrator 24.0.2, SVG Export Plug-In . SVG Version: 6.00 Build 0)  -->
<svg version="1.1" id="Layer_1" xmlns="http://www.w3.org/2000/svg" xmlns:xlink="http://www.w3.org/1999/xlink" x="0px" y="0px"
	 viewBox="0 0 50 50" style="enable-background:new 0 0 50 50;" xml:space="preserve">
<path d="M47.676,46.263c-12.164-11.15-17.232-16.467-9.895-25.638c1.919-2.399,2.533-4.865,1.825-7.328
	C37.636,6.434,25.832,2.232,25.33,2.056C25.225,2.019,25.112,2,25,2H8C7.518,2,7.104,2.345,7.017,2.819
	C6.93,3.293,7.193,3.763,7.644,3.935c3.288,1.254,11.946,5.446,12.515,9.723c0.204,1.535-0.72,3.061-2.746,4.534
	c-0.644,0.468-1.279,0.925-1.905,1.375C9.419,23.944,4.16,27.724,3.392,33.328c-0.561,4.083,1.291,8.626,5.827,14.297
	C9.409,47.863,9.696,48,10,48h37c0.412,0,0.782-0.253,0.932-0.638C48.081,46.979,47.979,46.541,47.676,46.263z M31,14
	c1.105,0,2,0.895,2,2c0,1.105-0.895,2-2,2s-2-0.895-2-2C29,14.895,29.895,14,31,14z M16,44c-1.657,0-3-1.343-3-3s1.343-3,3-3
	s3,1.343,3,3S17.657,44,16,44z M23,36c-1.105,0-2-0.895-2-2c0-1.105,0.895-2,2-2s2,0.895,2,2C25,35.105,24.105,36,23,36z M23,26
	c-1.657,0-3-1.343-3-3s1.343-3,3-3s3,1.343,3,3S24.657,26,23,26z M26,10c-1.105,0-2-0.895-2-2c0-1.105,0.895-2,2-2s2,0.895,2,2
	C28,9.105,27.105,10,26,10z M31.5,42c-1.381,0-2.5-1.119-2.5-2.5c0-1.381,1.119-2.5,2.5-2.5s2.5,1.119,2.5,2.5
	C34,40.881,32.881,42,31.5,42z"/>
</svg>