<?xml version="1.0" encoding="utf-8"?><!-- Generator: Adobe Illustrator 15.0.0, SVG Export Plug-In . SVG Version: 6.00 Build 0)  --><!DOCTYPE svg PUBLIC "-//W3C//DTD SVG 1.1//EN" "http://www.w3.org/Graphics/SVG/1.1/DTD/svg11.dtd"><svg xmlns="http://www.w3.org/2000/svg" xmlns:xlink="http://www.w3.org/1999/xlink" viewBox="0 0 50 50" width="50px" height="50px"><g><path d="M44.857,25.485c-0.946-1.576-3.401-2.199-4.873-2.402C39.632,12.711,33.309,5,25,5c-8.308,0-14.631,7.711-14.984,18.083c-1.472,0.203-3.928,0.826-4.873,2.402c-0.12,0.199-0.166,0.434-0.131,0.663c0.291,1.938,2.024,7.003,5.186,7.757C11.931,40.112,18.531,47,25,47s13.068-6.888,14.804-13.095c3.161-0.754,4.895-5.819,5.186-7.757C45.023,25.918,44.977,25.685,44.857,25.485z M17,27c0-2.209,1.119-4,2.5-4s2.5,1.791,2.5,4s-1.119,4-2.5,4S17,29.209,17,27z M25,38c-2.8,0-5,0-5,0s2.2-2.5,5-2.5s5,2.5,5,2.5S27.8,38,25,38z M30.5,31c-1.381,0-2.5-1.791-2.5-4s1.119-4,2.5-4s2.5,1.791,2.5,4S31.881,31,30.5,31z"/></g><path fill="none" stroke="#000000" stroke-width="2" stroke-linecap="round" stroke-linejoin="round" stroke-miterlimit="10" d="M36.4,13c3.8,0,5.199-3.3,5.199-3.3"/><g><path d="M43,11c-2.206,0-4-1.794-4-4s1.794-4,4-4s4,1.794,4,4S45.206,11,43,11z"/></g><path fill="none" stroke="#000000" stroke-width="2" stroke-linecap="round" stroke-linejoin="round" stroke-miterlimit="10" d="M8.4,9.7c0,0,1.4,3.3,5.2,3.3"/><g><path d="M7,11c-2.206,0-4-1.794-4-4s1.794-4,4-4s4,1.794,4,4S9.206,11,7,11z"/></g></svg>