<?xml version="1.0" encoding="iso-8859-1"?>
<!-- Generator: Adobe Illustrator 24.0.0, SVG Export Plug-In . SVG Version: 6.00 Build 0)  -->
<svg version="1.1" id="Layer_1" xmlns="http://www.w3.org/2000/svg" xmlns:xlink="http://www.w3.org/1999/xlink" x="0px" y="0px"
	 viewBox="0 0 50 50" style="enable-background:new 0 0 50 50;" xml:space="preserve">
<path d="M12.5,3c-3.31,0-6,2.69-6,6v32.36C6.5,39.5,8,38,9.86,38h32.3L42.5,3H12.5z M17.5,9c0-0.55,0.45-1,1-1s1,0.45,1,1v5
	c0,1.91,1.51,3.61,3.07,4.71c-0.43,0.19-0.81,0.38-1.1,0.54c-0.28,0.15-0.56,0.32-0.83,0.51c-1.72-1.42-3.14-3.43-3.14-5.76V9z
	 M33.5,14c0,3.12-2.55,5.67-4.94,7c2.39,1.33,4.94,3.88,4.94,7v5c0,0.55-0.45,1-1,1s-1-0.45-1-1v-1h-9c-0.552,0-1-0.448-1-1
	s0.448-1,1-1h9v-2c0-0.341-0.058-0.674-0.147-1H23.5c-0.552,0-1-0.448-1-1s0.448-1,1-1h6.782c-1.45-1.788-3.798-3-4.782-3
	c-1.47,0-6,2.7-6,6v5c0,0.55-0.45,1-1,1s-1-0.45-1-1v-5c0-3.12,2.55-5.67,4.94-7c1.16-0.64,2.28-1,3.06-1
	c0.984,0,3.332-1.212,4.782-3H23.5c-0.552,0-1-0.448-1-1s0.448-1,1-1h7.853c0.089-0.326,0.147-0.659,0.147-1v-2h-9
	c-0.552,0-1-0.448-1-1s0.448-1,1-1h9V9c0-0.55,0.45-1,1-1s1,0.45,1,1V14z"/>
<path style="fill:none;stroke:#000000;stroke-width:2;stroke-miterlimit:10;" d="M7,42.417V8c0-2.761,2-5,5-5c0,0,30.357,0,31,0v35"
	/>
<path style="fill:none;stroke:#000000;stroke-width:2;stroke-miterlimit:10;" d="M44,38H11.5C9.015,38,7,40.015,7,42.5l0,0
	c0,2.485,2.015,4.5,4.5,4.5H44"/>
</svg>