<?xml version="1.0" encoding="iso-8859-1"?><!-- Generator: Adobe Illustrator 21.0.2, SVG Export Plug-In . SVG Version: 6.00 Build 0)  --><svg xmlns="http://www.w3.org/2000/svg" xmlns:xlink="http://www.w3.org/1999/xlink" viewBox="0 0 50 50" width="50px" height="50px"><path d="M31,46c0-1.657,1.343-3,3-3c0.353,0,0.686,0.072,1,0.184V31h8V14.6L30.4,2H7v46h24.779C31.3,47.468,31,46.772,31,46z M30,4.4L40.6,15H30V4.4z M28,37c-1.105,0-2-0.895-2-2c0-0.219,0.044-0.425,0.109-0.622l-5.705-6.418C20.273,27.986,20.138,28,20,28c-0.178,0-0.347-0.031-0.512-0.074l-3.563,3.563C15.969,31.653,16,31.822,16,32c0,1.105-0.895,2-2,2s-2-0.895-2-2c0-1.105,0.895-2,2-2c0.178,0,0.347,0.031,0.512,0.074l3.563-3.563C18.031,26.347,18,26.178,18,26c0-1.105,0.895-2,2-2s2,0.895,2,2c0,0.219-0.044,0.425-0.109,0.622l5.705,6.418C27.727,33.014,27.862,33,28,33c0.101,0,0.199,0.015,0.296,0.03l5.844-7.306C34.053,25.499,34,25.256,34,25c0-1.105,0.895-2,2-2s2,0.895,2,2c0,1.105-0.895,2-2,2c-0.101,0-0.198-0.015-0.296-0.03l-5.845,7.306C29.947,34.501,30,34.744,30,35C30,36.105,29.105,37,28,37z"/><path d="M49,30H35c-0.551,0-1,0.449-1,1v11c-2.211,0-4,1.789-4,4s1.789,4,4,4h11c0.035,0,0.066-0.004,0.098-0.004C47.801,49.941,50,47.711,50,45V31C50,30.449,49.551,30,49,30z M41.613,48H34c-1.191,0-2-0.809-2-2s0.809-2,2-2h7.613C41.258,44.598,41,45.254,41,46S41.258,47.402,41.613,48z M48,45c0,1.656-1.344,3-3,3c-1.191,0-2-0.809-2-2s0.809-2,2-2c0.552,0,1-0.448,1-1c0-0.552-0.448-1-1-1h-9V32h12V45z"/></svg>