<svg xmlns="http://www.w3.org/2000/svg"  viewBox="0 0 50 50" width="50px" height="50px"><path d="M 39.859375 5.0488281 C 30.422375 5.0488281 26.895609 8.0149375 26.099609 8.8359375 L 26.099609 20.691406 L 30.083984 22.177734 C 30.352984 22.277734 30.597781 22.433719 30.800781 22.636719 L 40 31.837891 L 40 5.0488281 L 39.859375 5.0488281 z M 10 5.0625 L 10 32.966797 C 10.239 32.963797 10.475031 32.963891 10.707031 32.962891 C 18.063031 32.938891 21.995 34.14825 24 35.03125 L 24 31.492188 L 23.021484 30.414062 C 22.808484 30.201062 22.647828 29.944156 22.548828 29.660156 L 20.519531 23.859375 C 20.199531 22.943375 20.343344 21.925719 20.902344 21.136719 C 21.466344 20.341719 22.380656 19.868188 23.347656 19.867188 C 23.602656 19.867188 23.753 19.910609 24 19.974609 L 24 8.8496094 C 23.162 8.0236094 19.57 5.0355 10 5.0625 z M 8 11 L 6.5761719 11.027344 C 5.1581719 11.027344 4.005 12.148391 4 13.525391 L 4 38.501953 C 4.005 39.880953 5.55075 41 6.96875 41 L 34 41 L 28.789062 36.183594 C 27.050062 36.669594 25.655625 37.573719 25.515625 37.636719 C 25.382625 37.698719 25.240609 37.726563 25.099609 37.726562 C 24.868609 37.726562 24.639078 37.646187 24.455078 37.492188 C 24.374078 37.428187 20.749437 34.937422 9.0234375 34.982422 C 8.7324375 34.971422 8.4937812 34.884266 8.3007812 34.697266 C 8.1087812 34.509266 8 34.252422 8 33.982422 L 8 11 z M 43.417969 11 L 42 11.001953 L 42 33.837891 L 46 37.837891 L 46 13.496094 C 45.995 12.119094 44.841969 11 43.417969 11 z M 23.171875 21.835938 A 1.0001 1.0001 0 0 0 22.28125 23.179688 L 24.335938 28.769531 A 1.0001 1.0001 0 0 0 24.568359 29.132812 L 41.578125 46.142578 A 1.0001 1.0001 0 0 0 42.59375 46.386719 L 42.595703 46.386719 L 42.912109 46.705078 A 1.0001 1.0001 0 0 0 42.912109 46.707031 C 44.069684 47.864606 45.973748 47.840708 47.130859 46.683594 A 1.0001 1.0001 0 0 0 47.130859 46.681641 C 48.286767 45.522734 48.31218 43.620776 47.154297 42.462891 L 46.798828 42.107422 A 1.0001 1.0001 0 0 0 46.529297 41.193359 L 29.517578 24.181641 A 1.0001 1.0001 0 0 0 29.15625 23.951172 L 23.564453 21.894531 A 1.0001 1.0001 0 0 0 23.171875 21.835938 z M 25.669922 24.800781 L 28.027344 25.666016 L 27.669922 26.023438 A 1.0001 1.0001 0 0 0 27.378906 26.720703 L 27.375 27.013672 L 27.083984 27.015625 A 1.0001 1.0001 0 0 0 26.384766 27.308594 L 26.052734 27.640625 L 25.185547 25.285156 L 25.669922 24.800781 z M 43.201172 40.693359 L 44.408203 41.900391 L 42.285156 44.021484 L 41.078125 42.814453 L 43.201172 40.693359 z"/></svg>