<?xml version="1.0" encoding="iso-8859-1"?><!-- Generator: Adobe Illustrator 21.0.0, SVG Export Plug-In . SVG Version: 6.00 Build 0)  --><svg xmlns="http://www.w3.org/2000/svg" xmlns:xlink="http://www.w3.org/1999/xlink" viewBox="0 0 50 50" width="50px" height="50px"><path d="M38.987,3.414C37.763,3.139,36.421,3,35,3c-3.284,0-5.705,0.704-7.619,2.215c-1.979,1.563-3.214,3.445-4.002,6.108c-0.208,0.711-0.339,1.037-0.453,1.325l-0.105,0.267c-0.142,0.373-0.266,0.546-0.327,0.617c-0.086,0.1-0.203,0.18-0.361,0.246c-0.072,0.031-0.378,0.138-1.257,0.227l-0.749,0.076L19.416,18h2.659l-4.244,18.808c-0.329,1.409-0.677,2.551-1.034,3.395c-0.336,0.793-0.682,1.388-1.028,1.769c-0.325,0.357-0.673,0.614-1.033,0.765c-0.376,0.156-0.898,0.235-1.555,0.235c-0.756,0-1.11-0.08-1.254-0.127l-1.011-0.335L9.88,46.45l0.944,0.268c0.61,0.173,1.298,0.261,2.043,0.261c1.95,0,3.648-0.341,5.05-1.013c1.433-0.689,2.66-1.825,3.647-3.376c0.948-1.492,1.698-3.509,2.229-5.997L27.688,18h5.247l0.811-4h-5.135l0.422-1.949c0.343-1.494,0.892-2.88,1.491-3.741c0.074-0.104,0.148-0.206,0.191-0.255l0.096-0.09C31.389,7.343,32.166,7,33,7c1.197,0,2.277,0.711,2.753,1.813l0.261,0.604l3.002-0.004l0.882-5.795L38.987,3.414z"/></svg>