<?xml version="1.0" encoding="utf-8"?><!-- Generator: Adobe Illustrator 15.0.0, SVG Export Plug-In . SVG Version: 6.00 Build 0)  --><!DOCTYPE svg PUBLIC "-//W3C//DTD SVG 1.1//EN" "http://www.w3.org/Graphics/SVG/1.1/DTD/svg11.dtd"><svg xmlns="http://www.w3.org/2000/svg" xmlns:xlink="http://www.w3.org/1999/xlink" viewBox="0 0 50 50" width="50px" height="50px"><rect x="40.73" y="44.75" transform="matrix(0.7071 0.7071 -0.7071 0.7071 45.75 -18.9503)" width="10.04" height="2"/><path d="M41,21.527V1c0-0.552-0.447-1-1-1H6C5.448,0,5,0.448,5,1v43c0,0.553,0.448,1,1,1h19.826c2.102,1.261,4.55,2,7.174,2c7.72,0,14-6.28,14-14C47,28.255,44.622,24.061,41,21.527z M14,10h19v2H14V10z M14,16h19v2H14V16z M14,22h10.38c-0.759,0.595-1.454,1.264-2.076,2H14V22z M14,28h5.926c-0.248,0.645-0.447,1.313-0.598,2H14V28z M14,34h5.049c0.05,0.682,0.147,1.349,0.292,2H14V34z M33,45c-6.617,0-12-5.383-12-12s5.383-12,12-12s12,5.383,12,12S39.617,45,33,45z"/><g><path d="M24.3,38H38v-3H23.2C23.4,36.1,23.8,37.1,24.3,38z"/><path d="M23.5,30H38v-3H25C24.3,27.9,23.8,28.9,23.5,30z"/></g></svg>