<?xml version="1.0" encoding="iso-8859-1"?>
<!-- Generator: Adobe Illustrator 24.1.0, SVG Export Plug-In . SVG Version: 6.00 Build 0)  -->
<svg version="1.1" id="Layer_1" xmlns="http://www.w3.org/2000/svg" xmlns:xlink="http://www.w3.org/1999/xlink" x="0px" y="0px"
	 viewBox="0 0 50 50" style="enable-background:new 0 0 50 50;" xml:space="preserve">
<g>
</g>
<g>
	<g>
		<path d="M10.578,1.498c0,0,11.254,8.606,17.558,11.774c3.07,1.543,3.172,5.88,0.2,7.604c-1.6,0.928-3.346,1.445-4.274,1.516
			c-0.829,0.064-1.528-0.553-1.662-1.374C20.892,11.806,4.612,5.475,4.612,5.475L10.578,1.498z"/>
		<path d="M23.944,22.894c-1.004,0-1.865-0.747-2.035-1.795C20.465,12.274,4.591,6.001,4.431,5.938
			C4.258,5.871,4.138,5.714,4.117,5.529c-0.02-0.185,0.064-0.365,0.218-0.468l5.967-3.978c0.176-0.118,0.408-0.111,0.578,0.019
			c0.113,0.085,11.289,8.614,17.479,11.725c1.598,0.804,2.585,2.353,2.639,4.144c0.054,1.807-0.848,3.427-2.412,4.335
			c-1.689,0.98-3.509,1.507-4.486,1.581C24.047,22.892,23.996,22.894,23.944,22.894z M5.664,5.371
			c3.465,1.481,15.878,7.327,17.226,15.567c0.096,0.589,0.588,0.995,1.134,0.958c0.895-0.068,2.577-0.588,4.062-1.45
			c1.244-0.722,1.961-2.009,1.918-3.445c-0.043-1.42-0.824-2.648-2.092-3.285C22.198,10.844,12.352,3.464,10.56,2.107L5.664,5.371z"
			/>
	</g>
	<g>
		<path d="M32.495,12.58c1.979,3.957,0.989,6.925,0.989,6.925C39.42,19.505,38.431,11.591,32.495,12.58z"/>
		<path d="M33.484,20c-0.158,0-0.307-0.077-0.4-0.205c-0.093-0.128-0.119-0.294-0.07-0.445c0.009-0.028,0.891-2.843-0.962-6.549
			c-0.071-0.141-0.07-0.306,0.002-0.446c0.071-0.14,0.205-0.238,0.359-0.263c2.01-0.338,3.749,0.262,4.763,1.642
			c0.888,1.208,1.041,2.819,0.389,4.105C36.871,19.212,35.384,20,33.484,20z M33.236,12.997c1.187,2.719,1.057,4.918,0.876,5.979
			c1.216-0.138,2.118-0.688,2.572-1.584c0.483-0.956,0.364-2.162-0.304-3.072C35.703,13.399,34.58,12.935,33.236,12.997z"/>
	</g>
	<g>
		<path d="M33.837,49.483L33.29,31.91c2.502-3.185,0.52-5.978-0.591-7.652c-0.543-0.819-1.703-1.004-2.414-0.331
			c-1.535,1.452-4.584,1.832-6.948,1.888c-0.85,0.02-1.143,1.155-0.413,1.599c0.987,0.6,1.928,1.179,2.247,1.395
			c2.548,1.73,2.129,1.99,2.449,5.092l1.143,15.582H33.837z"/>
		<path d="M33.837,50h-5.075c-0.266,0-0.487-0.208-0.507-0.478l-1.143-15.582c-0.048-0.467-0.08-0.882-0.108-1.244
			c-0.147-1.889-0.166-2.132-2.116-3.456c-0.316-0.215-1.249-0.787-2.225-1.381c-0.524-0.318-0.772-0.934-0.618-1.533
			c0.155-0.599,0.669-1.012,1.279-1.026c2.229-0.052,5.186-0.398,6.615-1.749c0.433-0.409,1.034-0.606,1.629-0.534
			c0.632,0.074,1.198,0.421,1.551,0.954l0.089,0.134c1.083,1.629,3.087,4.64,0.595,7.978l0.541,17.386
			c0.004,0.14-0.048,0.275-0.143,0.376C34.106,49.943,33.975,50,33.837,50z M29.233,48.966h4.081l-0.531-17.04
			c-0.004-0.123,0.036-0.243,0.111-0.339c2.202-2.803,0.561-5.272-0.525-6.904l-0.089-0.135c-0.187-0.282-0.489-0.467-0.826-0.506
			c-0.319-0.034-0.605,0.058-0.824,0.264c-1.661,1.572-4.877,1.97-7.281,2.026c-0.231,0.006-0.301,0.181-0.321,0.255
			c-0.019,0.075-0.043,0.262,0.156,0.383c0.996,0.605,1.947,1.19,2.269,1.409c2.275,1.545,2.4,2.106,2.565,4.235
			c0.027,0.355,0.058,0.761,0.107,1.233L29.233,48.966z"/>
	</g>
	
		<line style="fill:none;stroke:#000000;stroke-width:2;stroke-linecap:round;stroke-linejoin:round;stroke-miterlimit:10;" x1="25" y1="49" x2="24.461" y2="33"/>
</g>
</svg>