<?xml version="1.0"?><svg xmlns="http://www.w3.org/2000/svg"  viewBox="0 0 50 50" width="50px" height="50px">    <path d="M 25 2 C 12.317 2 2 12.317 2 25 C 2 37.683 12.317 48 25 48 C 37.683 48 48 37.683 48 25 C 48 12.317 37.683 2 25 2 z M 25 4 C 36.579 4 46 13.421 46 25 C 46 36.579 36.579 46 25 46 C 13.421 46 4 36.579 4 25 C 4 13.421 13.421 4 25 4 z M 32.5 8 C 28.916 8 26 10.916 26 14.5 C 26 15.959 26.496719 17.368859 27.386719 18.505859 C 27.115719 18.745859 26.855328 18.997625 26.611328 19.265625 C 25.787328 18.464625 24.682 18 23.5 18 C 21.019 18 19 20.019 19 22.5 C 19 24.981 21.019 27 23.5 27 C 23.683 27 23.865875 26.987844 24.046875 26.964844 C 24.533875 32.027844 28.812 36 34 36 C 39.514 36 44 31.514 44 26 C 44 22.204 41.819656 18.744406 38.472656 17.066406 C 38.818656 16.261406 39 15.391 39 14.5 C 39 10.916 36.084 8 32.5 8 z M 12.5 14 C 10.019 14 8 16.019 8 18.5 C 8 20.981 10.019 23 12.5 23 C 14.981 23 17 20.981 17 18.5 C 17 16.019 14.981 14 12.5 14 z M 16.5 27 C 12.916 27 10 29.916 10 33.5 C 10 37.084 12.916 40 16.5 40 C 20.084 40 23 37.084 23 33.5 C 23 29.916 20.084 27 16.5 27 z M 26.5 37 C 24.57 37 23 38.57 23 40.5 C 23 42.43 24.57 44 26.5 44 C 28.43 44 30 42.43 30 40.5 C 30 38.57 28.43 37 26.5 37 z"/></svg>