<?xml version="1.0" encoding="iso-8859-1"?><!-- Generator: Adobe Illustrator 23.0.3, SVG Export Plug-In . SVG Version: 6.00 Build 0)  --><svg xmlns="http://www.w3.org/2000/svg" xmlns:xlink="http://www.w3.org/1999/xlink" viewBox="0 0 50 50" width="50px" height="50px"><polyline style="fill:none;stroke:#000000;stroke-width:2;stroke-linecap:round;stroke-linejoin:round;stroke-miterlimit:10;" points="35,32 35,15 43,15 43,27 "/><polyline style="fill:none;stroke:#000000;stroke-width:2;stroke-linecap:round;stroke-linejoin:round;stroke-miterlimit:10;" points="9,29 9,11 17,11 17,28 "/><path d="M47.418,27.737c-1.108-1.758-3.442-2.285-5.192-1.183l-9.35,5.763C33.585,33.04,34,34.022,34,35.055c0,2.17-1.765,3.935-3.935,3.935c-0.306,0-0.61-0.036-0.903-0.105c-0.769-0.182-10.592-3.124-11.71-3.458c-0.529-0.159-0.829-0.716-0.671-1.245c0.159-0.529,0.717-0.829,1.245-0.671c4.366,1.308,11.059,3.301,11.598,3.429c0.143,0.034,0.291,0.051,0.441,0.051c1.067,0,1.935-0.868,1.935-1.935c0-0.689-0.358-1.308-0.957-1.656c-0.291-0.169-10.162-4.485-12.147-5.356c-3.11-1.366-6.695-1.399-9.833-0.093l-6.448,2.686C2.105,30.847,2,31.31,2,31.943c0,0.552,0,11.995,0,12.045c0,0.552,0.448,1,1,1c0.305,0,0.548-0.165,0.587-0.194l3.485-2.556c1.776-1.303,4.143-1.589,6.226-0.732l11.696,4.146C25.651,45.885,26.331,46,27.007,46c1.291,0,2.563-0.417,3.625-1.222L46.37,32.853C48.041,31.701,48.501,29.454,47.418,27.737z"/><path d="M21.172,26.858c5.925,2.595,8.565,3.758,9.775,4.299L31,31.124V5c0-0.553-0.447-1-1-1h-8c-0.553,0-1,0.447-1,1v21.782L21.172,26.858z"/></svg>