<?xml version="1.0" encoding="iso-8859-1"?><!-- Generator: Adobe Illustrator 21.1.0, SVG Export Plug-In . SVG Version: 6.00 Build 0)  --><svg xmlns="http://www.w3.org/2000/svg" xmlns:xlink="http://www.w3.org/1999/xlink" viewBox="0 0 50 50" width="500px" height="500px"><g><g><g><g></g></g></g></g><path style="fill:none;stroke:#000000;stroke-width:2;stroke-linecap:round;stroke-linejoin:round;stroke-miterlimit:10;" d="M12,10c0-0.78,1.901-4.073,6-4c1.156,0.021,2.5,0.25,4,1c0-1.75,2.575-6,7-6c3.075,0,5,1,6,2c2.5-1.5,4.75-2,8-2"/><path style="fill:none;stroke:#000000;stroke-width:2;stroke-linecap:round;stroke-linejoin:round;stroke-miterlimit:10;" d="M49,6c0,0-1.5,4-8,4c0,0-1.5,2-4.5,2S32,10,32,10"/><line style="fill:none;stroke:#000000;stroke-width:2;stroke-linecap:round;stroke-linejoin:round;stroke-miterlimit:10;" x1="7" y1="15" x2="29" y2="15"/><path style="fill:none;stroke:#000000;stroke-width:2;stroke-linecap:round;stroke-linejoin:round;stroke-miterlimit:10;" d="M9,15c0,0,0,7,0,11S1,45,1,46.8C1,48.2,6.9,49,18,49s17-0.8,17-2.2C35,45,27,30,27,26s0-11,0-11H9z"/><polygon points="13.75,38 20.5,38 15,42 "/><polygon points="20.533,24 18.319,24 14.048,33 18.542,33 14.784,39.499 16.516,40.501 22.008,31 17.211,31 "/></svg>