<?xml version="1.0" encoding="utf-8"?><!-- Generator: Adobe Illustrator 15.0.0, SVG Export Plug-In . SVG Version: 6.00 Build 0)  --><!DOCTYPE svg PUBLIC "-//W3C//DTD SVG 1.1//EN" "http://www.w3.org/Graphics/SVG/1.1/DTD/svg11.dtd"><svg xmlns="http://www.w3.org/2000/svg" xmlns:xlink="http://www.w3.org/1999/xlink" viewBox="0 0 50 50" width="50px" height="50px"><path d="M33.362,17.843C35.865,15.951,37,13.596,37,10.4C37,7.333,33.993,1,24.7,1C14.282,1,12,9.662,12,13v27c0,3.882-2.458,6.246-2.48,6.268c-0.302,0.279-0.401,0.715-0.25,1.098S9.789,48,10.2,48h5.3c0.181,0,0.359-0.049,0.515-0.143C16.136,47.784,19,45.997,19,40v-1.5l1,0.451C21.232,39.435,23.101,40,25.1,40C36.098,40,40,33.536,40,28C40,23.521,37.769,20.11,33.362,17.843z M25.1,36c-2.9,0-5.5-2-6.1-3.8v-20C19,6.5,23.5,5,25,5c1.8,0,6,1.3,6,6.4c0,3.2-1.3,4.8-2.2,6.1c-1.6-0.4-3-0.6-4.1-0.6c-1.7,0-2.7,0.4-2.7,1.3c0,0.9,1.2,1.4,3.2,1.4c1,0,2.1-0.1,3.3-0.4c2.3,1.5,4.6,2.9,4.6,8.6C33.1,34.6,27.8,36,25.1,36z"/></svg>