<?xml version="1.0" encoding="iso-8859-1"?>
<!-- Generator: Adobe Illustrator 23.0.3, SVG Export Plug-In . SVG Version: 6.00 Build 0)  -->
<svg version="1.1" id="Layer_1" xmlns="http://www.w3.org/2000/svg" xmlns:xlink="http://www.w3.org/1999/xlink" x="0px" y="0px"
	 viewBox="0 0 50 50" style="enable-background:new 0 0 50 50;" xml:space="preserve">
<path d="M21.912,31.633L7.5,40.2l1,1.8l14.408-8.574C22.45,32.909,22.119,32.294,21.912,31.633z"/>
<path d="M24.761,27.96c0.445,0,0.856,0.052,1.239,0.14v-17h-2v16.915C24.244,27.983,24.495,27.96,24.761,27.96z"/>
<polygon points="26.659,33.165 27.673,31.441 42.452,40.207 41.438,41.931 "/>
<path style="fill:none;stroke:#000000;stroke-width:2;stroke-miterlimit:10;" d="M43,42H7 M25.581,10L43,40 M7,40l17.419-30"/>
<path d="M25,11c-2.206,0-4-1.794-4-4s1.794-4,4-4s4,1.794,4,4S27.206,11,25,11z"/>
<path d="M25,35.1c-2.206,0-4-1.794-4-4s1.794-4,4-4s4,1.794,4,4S27.206,35.1,25,35.1z"/>
<path d="M45,46c-2.206,0-4-1.794-4-4s1.794-4,4-4s4,1.794,4,4S47.206,46,45,46z"/>
<path d="M5,46c-2.206,0-4-1.794-4-4s1.794-4,4-4s4,1.794,4,4S7.206,46,5,46z"/>
</svg>