<?xml version="1.0" encoding="utf-8"?><!-- Generator: Adobe Illustrator 15.0.0, SVG Export Plug-In . SVG Version: 6.00 Build 0)  --><!DOCTYPE svg PUBLIC "-//W3C//DTD SVG 1.1//EN" "http://www.w3.org/Graphics/SVG/1.1/DTD/svg11.dtd"><svg xmlns="http://www.w3.org/2000/svg" xmlns:xlink="http://www.w3.org/1999/xlink" viewBox="0 0 50 50" width="50px" height="50px"><rect fill="none" width="50" height="50"/><g><g><path d="M37.2,31c-3.643,0-7.505-2.091-11.808-6.393c-3.244-3.244-5.274-6.356-6.035-9.253c-0.929-3.535-0.009-6.718,2.735-9.461C23.958,4.027,26.873,3,30.3,3c4.423,0,8.759,1.743,11.896,4.782c6.108,6.108,6.037,16,1.912,20.125C42.056,29.959,39.731,31,37.2,31z"/><g><path d="M47.723,26.038c-0.566,1.269-1.305,2.388-2.201,3.283C43.081,31.763,40.281,33,37.2,33c-4.2,0-8.525-2.283-13.222-6.979c-3.498-3.498-5.703-6.916-6.555-10.159c-1.106-4.212,0.019-8.148,3.255-11.383c0.878-0.878,1.94-1.596,3.14-2.151C21.482,1.46,19.23,1,17.188,1c-3.011,0-5.567,0.966-7.395,2.793c-2.832,2.832-3.499,7.41-1.877,12.891c1.558,5.263,5.065,10.812,9.877,15.623c6.625,6.625,14.713,10.74,21.108,10.74c3.053,0,5.613-0.947,7.405-2.74C49.382,37.231,49.855,31.929,47.723,26.038z"/></g></g></g><path fill="none" stroke="#333333" stroke-width="3.5385" stroke-miterlimit="10" d="M30.4,44.4"/><path fill="none" stroke="#333333" stroke-width="3.5385" stroke-miterlimit="10" d="M38.3,36.5"/><path d="M5.5,20.5c-0.256,0-0.512-0.098-0.707-0.293c-0.391-0.391-0.391-1.023,0-1.414l3.1-3.1c0.391-0.391,1.023-0.391,1.414,0s0.391,1.023,0,1.414l-3.1,3.1C6.012,20.402,5.756,20.5,5.5,20.5z"/><path d="M4,24c-1.654,0-3-1.346-3-3s1.346-3,3-3s3,1.346,3,3S5.654,24,4,24z"/><path d="M30.5,45.5c-0.256,0-0.512-0.098-0.707-0.293c-0.391-0.391-0.391-1.023,0-1.414l3.1-3.1c0.391-0.391,1.023-0.391,1.414,0s0.391,1.023,0,1.414l-3.1,3.1C31.012,45.402,30.756,45.5,30.5,45.5z"/><path d="M29,49c-1.654,0-3-1.346-3-3s1.346-3,3-3s3,1.346,3,3S30.654,49,29,49z"/><path d="M12.5,38.5c-0.256,0-0.512-0.098-0.707-0.293c-0.391-0.391-0.391-1.023,0-1.414l5.4-5.4c0.391-0.391,1.023-0.391,1.414,0s0.391,1.023,0,1.414l-5.4,5.4C13.012,38.402,12.756,38.5,12.5,38.5z"/><path d="M11,42c-1.654,0-3-1.346-3-3s1.346-3,3-3s3,1.346,3,3S12.654,42,11,42z"/></svg>