<?xml version="1.0" encoding="iso-8859-1"?><!-- Generator: Adobe Illustrator 21.0.0, SVG Export Plug-In . SVG Version: 6.00 Build 0)  --><svg xmlns="http://www.w3.org/2000/svg" xmlns:xlink="http://www.w3.org/1999/xlink" viewBox="0 0 50 50" width="50px" height="50px"><g id="Layer_1"></g><g id="Layer_2"><polygon points="21,9 16,12 32,12 27,9 "/><rect x="22" y="4" style="fill:none;stroke:#000000;stroke-width:2;stroke-linejoin:round;stroke-miterlimit:10;" width="4" height="4.5"/><rect x="13.5" y="17" style="fill:none;stroke:#000000;stroke-width:2;stroke-miterlimit:10;" width="21" height="28"/><rect x="12" y="13" style="fill:none;stroke:#000000;stroke-width:2;stroke-linejoin:round;stroke-miterlimit:10;" width="24" height="4"/><line style="fill:none;stroke:#000000;stroke-width:2;stroke-miterlimit:10;" x1="22.333" y1="8" x2="14" y2="13"/><line style="fill:none;stroke:#000000;stroke-width:2;stroke-miterlimit:10;" x1="34" y1="13" x2="25.668" y2="8.001"/><path d="M13.5,17v28h21V17H13.5z M22,42c0,0.552-0.447,1-1,1h-3v-2h2v-3h2V42z M22,34c0,0.552-0.447,1-1,1h-3v-2h2v-3h2V34z M22,26h-4v-5h4V26z M30,42c0,0.552-0.447,1-1,1h-3v-2h2v-3h2V42z M30,34c0,0.552-0.447,1-1,1h-3v-2h2v-3h2V34z M30,26h-4v-5h4V26z"/><line style="fill:none;stroke:#000000;stroke-width:2;stroke-miterlimit:10;" x1="11" y1="45" x2="37" y2="45"/></g></svg>