<?xml version="1.0" encoding="utf-8"?><!-- Generator: Adobe Illustrator 15.0.0, SVG Export Plug-In . SVG Version: 6.00 Build 0)  --><!DOCTYPE svg PUBLIC "-//W3C//DTD SVG 1.1//EN" "http://www.w3.org/Graphics/SVG/1.1/DTD/svg11.dtd"><svg xmlns="http://www.w3.org/2000/svg" xmlns:xlink="http://www.w3.org/1999/xlink" viewBox="0 0 50 50" width="50px" height="50px"><g><path d="M44,3H6C4.346,3,3,4.346,3,6v38c0,1.654,1.346,3,3,3h38c1.654,0,3-1.346,3-3V6C47,4.346,45.654,3,44,3z M14,31.4H9.3V20H14c4.2,0,5,3.5,5,5.7C19,29.2,17.2,31.4,14,31.4z M29.2,31.3h-8.3V20h8.2v1.7h-6.2v3h5.8v1.6h-5.8v3.3h6.3V31.3z M41,31.4h-0.1H39.6L39.3,30.1C38.8,30.7,37.9,31.7,35.9,31.7c-2.301,0-5.5-1.5-5.5-6c0-2.9,1.699-6,5.5-6c4.199,0,4.8,3.3,4.899,3.9h-2c-0.1-0.4-0.5-2.3-2.899-2.3c-1,0-3.5,0.7-3.5,4.4c0,0.5,0.199,4.399,3.5,4.399C39,30.1,39.1,27.4,39.1,27h-3v-1.5H41V31.4z"/><path d="M13.3,21.6h-2v8.2h2c3.6,0,3.8-2.399,3.8-4.1C17.1,22.7,15.8,21.6,13.3,21.6z"/></g></svg>