<?xml version="1.0" encoding="iso-8859-1"?><!-- Generator: Adobe Illustrator 22.1.0, SVG Export Plug-In . SVG Version: 6.00 Build 0)  --><svg xmlns="http://www.w3.org/2000/svg" xmlns:xlink="http://www.w3.org/1999/xlink" viewBox="0 0 50 50" width="50px" height="50px"><g><path d="M8.114,25.926C4.399,24.097,2,20.205,2,16.012C2,9.94,6.859,5,12.832,5c4.507,0,8.472,2.759,10.103,7.03l-1.869,0.713C19.734,9.254,16.502,7,12.832,7C7.962,7,4,11.042,4,16.012c0,3.438,1.962,6.625,4.997,8.12L8.114,25.926z"/></g><g><path d="M41.538,26.146l-0.896-1.788c0.059-0.031,0.195-0.113,0.32-0.187c0.129-0.077,0.248-0.146,0.294-0.171C44.183,22.438,46,19.376,46,16.012C46,11.042,42.038,7,37.168,7c-3.67,0-6.902,2.254-8.233,5.743l-1.869-0.713C28.696,7.759,32.661,5,37.168,5C43.141,5,48,9.94,48,16.012c0,4.104-2.222,7.841-5.799,9.752l-0.221,0.129C41.802,25.999,41.603,26.114,41.538,26.146z"/></g><g><path d="M26.952,11.473c-1.202-0.251-2.702-0.252-3.904,0.001L8.085,26.435C8.035,26.951,8,27.471,8,28c0,9.389,7.611,17,17,17s17-7.611,17-17c0-0.529-0.035-1.049-0.085-1.565L26.952,11.473z"/><path d="M25,46c-9.925,0-18-8.075-18-18c0-0.506,0.029-1.034,0.091-1.662l0.035-0.356l15.425-15.425l0.291-0.061c1.328-0.28,2.98-0.279,4.314-0.001l0.292,0.061l15.426,15.427l0.035,0.356C42.971,26.966,43,27.494,43,28C43,37.925,34.925,46,25,46z M9.049,26.887C9.016,27.297,9,27.656,9,28c0,8.822,7.178,16,16,16s16-7.178,16-16c0-0.344-0.016-0.703-0.049-1.113L26.464,12.399c-0.919-0.152-2.011-0.151-2.928,0L9.049,26.887z"/></g></svg>