<?xml version="1.0" encoding="iso-8859-1"?>
<!-- Generator: Adobe Illustrator 25.2.3, SVG Export Plug-In . SVG Version: 6.00 Build 0)  -->
<svg version="1.1" baseProfile="basic" id="Layer_1"
	 xmlns="http://www.w3.org/2000/svg" xmlns:xlink="http://www.w3.org/1999/xlink" x="0px" y="0px" viewBox="0 0 50 50"
	 xml:space="preserve">
<path d="M20.74,42.33C18.91,44.57,16.12,46,13,46C7.48,46,3,41.52,3,36c0-4.94,3.59-9.05,8.3-9.85
	C9.83,33.1,13.86,40.14,20.74,42.33z"/>
<path d="M35,14c0,1.54-0.35,3-0.98,4.3c-5.2-4.4-12.84-4.4-18.04,0C15.35,17,15,15.54,15,14c0-5.52,4.48-10,10-10S35,8.48,35,14z"/>
<path d="M35.94,24.05c-3.33,0.3-6.53,1.98-8.65,4.9c-2.62,3.61-2.94,8.2-1.22,12C25.72,40.98,25.36,41,25,41c-6.63,0-12-5.37-12-12
	s5.37-12,12-12C29.87,17,34.05,19.89,35.94,24.05z"/>
<circle cx="37" cy="36" r="10"/>
</svg>