<?xml version="1.0" encoding="iso-8859-1"?>
<!-- Generator: Adobe Illustrator 25.2.3, SVG Export Plug-In . SVG Version: 6.00 Build 0)  -->
<svg version="1.1" baseProfile="basic" id="Layer_1"
	 xmlns="http://www.w3.org/2000/svg" xmlns:xlink="http://www.w3.org/1999/xlink" x="0px" y="0px" viewBox="0 0 50 50"
	 xml:space="preserve">
<path style="fill:none;stroke:#000000;stroke-width:2;stroke-linecap:round;stroke-linejoin:round;stroke-miterlimit:10;" d="M17,3
	h16"/>
<path d="M45,41.3c0,5.3-4.317,6.7-6.6,6.7H11.6C9.317,48,5,46.6,5,41.3c0-3.627,4.2-10.066,9.273-17.487
	c1.684-2.462,3.591-5.252,3.733-5.894L18,3h14v15c0.136,0.561,2.043,3.351,3.727,5.813C40.8,31.234,45,37.672,45,41.3z
	 M18.349,39.746c2.27,0,3.913-1.43,3.987-3.453h-2.159c-0.129,0.95-0.853,1.576-1.821,1.576c-1.24,0-1.994-1.067-1.994-2.797
	c0-1.724,0.754-2.779,1.987-2.779c0.97,0,1.699,0.65,1.815,1.613h2.166c-0.068-2.006-1.755-3.49-3.981-3.49
	c-2.656,0-4.282,1.772-4.282,4.662C14.066,37.967,15.699,39.746,18.349,39.746z M27.911,30.416c-2.655,0-4.367,1.785-4.367,4.662
	c0,2.883,1.693,4.668,4.367,4.668c2.663,0,4.355-1.785,4.355-4.668C32.267,32.201,30.574,30.416,27.911,30.416z M27.911,32.281
	c1.239,0,2.067,1.092,2.067,2.797c0,1.711-0.821,2.803-2.067,2.803c-1.257,0-2.073-1.092-2.073-2.803
	C25.838,33.373,26.666,32.281,27.911,32.281z M33.311,38.022v0.021h1.199v-0.025c0-0.425,0.308-0.725,0.75-0.725
	c0.425,0,0.703,0.254,0.703,0.632c0,0.304-0.192,0.564-0.949,1.265l-1.628,1.531v0.875h3.916v-1.021h-2.171v-0.067l0.851-0.782
	c0.914-0.813,1.249-1.321,1.249-1.893c0-0.91-0.771-1.528-1.924-1.528C34.11,36.305,33.311,36.998,33.311,38.022z"/>
</svg>