<?xml version="1.0" encoding="utf-8"?><!-- Generator: Adobe Illustrator 15.0.0, SVG Export Plug-In . SVG Version: 6.00 Build 0)  --><!DOCTYPE svg PUBLIC "-//W3C//DTD SVG 1.1//EN" "http://www.w3.org/Graphics/SVG/1.1/DTD/svg11.dtd"><svg xmlns="http://www.w3.org/2000/svg" xmlns:xlink="http://www.w3.org/1999/xlink" viewBox="0 0 50 50" width="50px" height="50px"><line fill="none" stroke="#000000" stroke-width="2" stroke-miterlimit="10" x1="25" y1="22" x2="25" y2="2"/><line fill="none" stroke="#000000" stroke-width="2" stroke-miterlimit="10" x1="25" y1="11" x2="33" y2="11"/><line fill="none" stroke="#000000" stroke-width="2" stroke-miterlimit="10" x1="25" y1="5" x2="33" y2="5"/><line fill="none" stroke="#000000" stroke-width="2" stroke-miterlimit="10" x1="25" y1="17" x2="33" y2="17"/><path d="M14,4c0-2.243-1.757-4-4-4H9.6c-0.552,0-1,0.448-1,1s0.448,1,1,1H10c1.14,0,2,0.86,2,2v34c0,2.243,1.757,4,4,4h8V22H14V4z"/><path d="M40.4,0H40c-2.243,0-4,1.757-4,4v18H26v6h7v2h-7v4h7v2h-7v6h8c2.243,0,4-1.757,4-4V4c0-1.14,0.859-2,2-2h0.4c0.553,0,1-0.448,1-1S40.953,0,40.4,0z"/><path d="M20.219,44.625l4,5C24.409,49.862,24.696,50,25,50s0.591-0.138,0.781-0.375l4-5C29.923,44.447,30,44.228,30,44H20C20,44.228,20.077,44.447,20.219,44.625z"/></svg>