<?xml version="1.0" encoding="iso-8859-1"?><!-- Generator: Adobe Illustrator 20.1.0, SVG Export Plug-In . SVG Version: 6.00 Build 0)  --><svg xmlns="http://www.w3.org/2000/svg" xmlns:xlink="http://www.w3.org/1999/xlink" viewBox="0 0 50 50" width="50px" height="50px"><path style="fill:none;stroke:#000000;stroke-width:2;stroke-linecap:round;stroke-linejoin:round;stroke-miterlimit:10;" d="M4.374,15.533C3.045,17.967,2,20.103,2,22.051C2,26.135,9.656,28,17.26,28c2.278,0,22.263,0,25.599,0C47.054,28,48,23.64,48,21S44.119,9,39.669,9"/><path d="M46.005,16.658L46,16c0-3.222-2.658-8-6.331-8H21.834C13.124,8,3,11.932,3,17c0,4.919,8.523,5.952,8.887,5.994C11.924,22.998,11.962,23,12,23h30c1.161,0,2.091-0.344,2.762-1.021C46.046,20.681,46.024,18.543,46.005,16.658z M21.999,19l1-7H37l2,7H21.999z"/><path style="fill:none;stroke:#000000;stroke-width:2;stroke-linecap:round;stroke-linejoin:round;stroke-miterlimit:10;" d="M29.5,44h-9c-0.714,0-1.198-0.726-0.923-1.385l4.038-9.692C23.848,32.364,24.394,32,25,32h0c0.606,0,1.152,0.364,1.385,0.923l4.038,9.692C30.698,43.274,30.214,44,29.5,44z"/><path d="M42.859,28c-3.336,0-23.321,0-25.599,0c-5.774,0-11.568-1.078-14.028-3.383c-0.009,0.011-0.02,0.018-0.029,0.029c-0.204,0.269-0.259,0.623-0.145,0.941l1.289,3.599C4.64,29.967,8.029,32,13.998,32c0.553,0,1,0.448,1,1s-0.447,1-1,1c-3.494,0-6.437-0.651-8.491-1.578l0.798,2.226C7.513,35.455,10.528,36,13.998,36c0.553,0,1,0.448,1,1s-0.447,1-1,1c-1.192,0-4.313-0.077-6.781-0.804l1.129,3.153C8.914,41.935,10.428,43,12.112,43h7.394c0-0.127,0.017-0.257,0.07-0.385l4.038-9.692C23.848,32.364,24.395,32,25,32s1.152,0.364,1.385,0.923l4.038,9.692c0.053,0.128,0.07,0.257,0.07,0.385h6.16c1.776,0,3.358-1.193,3.847-2.901l3.379-11.824c0.036-0.127,0.036-0.258,0.021-0.386C43.575,27.954,43.234,28,42.859,28z"/></svg>