<?xml version="1.0" encoding="iso-8859-1"?><!-- Generator: Adobe Illustrator 21.1.0, SVG Export Plug-In . SVG Version: 6.00 Build 0)  --><svg xmlns="http://www.w3.org/2000/svg" xmlns:xlink="http://www.w3.org/1999/xlink" viewBox="0 0 50 50" width="50px" height="50px"><circle cx="16" cy="6" r="3"/><circle cx="34" cy="6" r="3"/><path d="M10.01,33.69c-3.36,2.96-5.86,6.92-7.04,11.51c-0.14,0.53-0.68,0.86-1.22,0.72c-0.53-0.14-0.86-0.68-0.72-1.22C2.46,39.13,5.69,34.4,10,31.1C10,31.1,10,33.63,10.01,33.69z"/><path d="M48.25,45.97C48.16,45.99,48.08,46,48,46c-0.45,0-0.85-0.3-0.97-0.75c-1.17-4.61-3.68-8.59-7.04-11.55C40,33.63,40,31.11,40,31.11c4.31,3.31,7.55,8.05,8.97,13.65C49.11,45.29,48.78,45.84,48.25,45.97z"/><path d="M11.75,45.97c-0.53-0.14-0.86-0.69-0.72-1.22l0,0c0.14-0.54,0.68-0.86,1.22-0.72l0,0c0.53,0.14,0.85,0.68,0.72,1.22l0,0C12.85,45.7,12.45,46,12,46l0,0C11.92,46,11.83,45.99,11.75,45.97z M12.56,43.08c-0.51-0.2-0.76-0.78-0.56-1.3l0,0c0,0,0,0,0,0.01l0,0c0.2-0.52,0.78-0.77,1.3-0.57l0,0c0.51,0.2,0.76,0.78,0.56,1.3l0,0c-0.15,0.39-0.53,0.63-0.93,0.63l0,0C12.81,43.15,12.68,43.13,12.56,43.08z"/><path d="M37,45.14L37,45.14c-0.14-0.53,0.18-1.08,0.72-1.22l0,0c0.53-0.14,1.08,0.18,1.22,0.72l0,0c0.14,0.53-0.18,1.07-0.71,1.22l0,0c-0.09,0.02-0.17,0.03-0.26,0.03l0,0C37.53,45.89,37.12,45.59,37,45.14z M36.1,42.41c-0.21-0.51,0.05-1.09,0.56-1.3l0,0c0.51-0.2,1.09,0.05,1.3,0.56l0,0c0.2,0.52-0.05,1.1-0.56,1.3l0,0c-0.12,0.05-0.25,0.07-0.37,0.07l0,0C36.63,43.04,36.25,42.81,36.1,42.41z"/><circle cx="41.536" cy="37.141" r="1"/><circle cx="38.905" cy="38.363" r="1"/><circle cx="36.081" cy="39.373" r="1"/><circle cx="33.087" cy="40.153" r="1"/><circle cx="29.944" cy="40.689" r="1"/><circle cx="26.675" cy="40.965" r="1"/><circle cx="23.325" cy="40.965" r="1"/><circle cx="20.056" cy="40.689" r="1"/><circle cx="16.913" cy="40.153" r="1"/><circle cx="13.919" cy="39.373" r="1"/><circle cx="11.095" cy="38.363" r="1"/><circle cx="8.464" cy="37.141" r="1"/><path d="M30.25,28h7.51l-0.77,6.12C36.93,34.62,36.5,35,36,35h-4c-0.5,0-0.93-0.38-0.99-0.88L30.25,28z"/><path d="M42.59,24.93c-0.78,0.25-1.63-0.18-1.89-0.96l-2.71-7.63c-0.09-0.26-0.38-0.39-0.64-0.3c-0.26,0.09-0.39,0.38-0.3,0.64l3.22,8.98C40.5,26.31,40.02,27,39.33,27H28.67c-0.69,0-1.17-0.69-0.94-1.34l3.24-8.98c0.1-0.26-0.04-0.55-0.3-0.64c-0.26-0.09-0.54,0.04-0.64,0.3l-2.78,7.8c0-0.03,0.01-0.05,0.01-0.07h-0.01c-0.29,0.73-1.11,1.11-1.87,0.85c-0.78-0.27-1.19-1.13-0.92-1.91c0.61-1.82,3.37-9.39,3.37-9.39C28.04,13,28.93,11,31.34,11h5.36c2.4,0,3.27,2,3.48,2.62c0,0.01,2.77,7.6,3.37,9.41C43.81,23.82,43.38,24.67,42.59,24.93z"/><path d="M19.33,11h-6.66C10.64,11,9,12.61,9,14.59v9.91c0,0.83,0.67,1.5,1.5,1.5s1.5-0.67,1.5-1.5v-8c0-0.28,0.22-0.5,0.5-0.5s0.5,0.22,0.5,0.5V34c0,0.552,0.448,1,1,1h4c0.552,0,1-0.448,1-1V16.5c0-0.28,0.22-0.5,0.5-0.5s0.5,0.22,0.5,0.5v8c0,0.83,0.67,1.5,1.5,1.5s1.5-0.67,1.5-1.5v-1v-8.91C23,12.61,21.36,11,19.33,11z"/></svg>