<?xml version="1.0" encoding="utf-8"?><!-- Generator: Adobe Illustrator 15.0.0, SVG Export Plug-In . SVG Version: 6.00 Build 0)  --><!DOCTYPE svg PUBLIC "-//W3C//DTD SVG 1.1//EN" "http://www.w3.org/Graphics/SVG/1.1/DTD/svg11.dtd"><svg xmlns="http://www.w3.org/2000/svg" xmlns:xlink="http://www.w3.org/1999/xlink" viewBox="0 0 50 50" width="50px" height="50px"><path d="M25,15.727l0.266-0.105c1.893-0.747,5-1.772,9.236-2.542C34.82,12.097,35,11.06,35,10c0-5.514-4.486-10-10-10c-5.514,0-10,4.486-10,10c0,1.069,0.174,2.102,0.485,3.077c4.243,0.77,7.353,1.797,9.249,2.544L25,15.727z"/><path d="M3,31H2c-1.1,0-2-0.9-2-2v-4c0-1.1,0.9-2,2-2h1c1.7,0,3,1.3,3,3v2C6,29.7,4.7,31,3,31z"/><path d="M47,31h1c1.1,0,2-0.9,2-2v-4c0-1.1-0.9-2-2-2h-1c-1.7,0-3,1.3-3,3v2C44,29.7,45.3,31,47,31z"/><g><path d="M44,26v2c0,1.7,1.3,3,3,3h1v-8h-1C45.3,23,44,24.3,44,26z"/><path d="M42,28v-2c0-2.804,2.196-5,5-5h1v-6c0-0.552-0.447-1-1-1c-10.844,0-18.085,2.332-21,3.482v32.042C27.738,48.378,35.159,44,47,44c0.553,0,1-0.447,1-1V33h-1C44.196,33,42,30.804,42,28z"/></g><g><path d="M6,28v-2c0-1.7-1.3-3-3-3H2v8h1C4.7,31,6,29.7,6,28z"/><path d="M3,14c-0.552,0-1,0.448-1,1v6h1c2.804,0,5,2.196,5,5v2c0,2.804-2.196,5-5,5H2v10c0,0.553,0.448,1,1,1c11.842,0,19.261,4.378,21,5.523V17.482C21.085,16.332,13.844,14,3,14z"/></g></svg>