<svg xmlns="http://www.w3.org/2000/svg"  viewBox="0 0 50 50" width="50px" height="50px"><path d="M 3 7 C 1.3 7 0 8.3 0 10 L 0 40 C 0 41.7 1.3 43 3 43 L 22.800781 43 C 23.100781 43.4 23.6 43.600781 24 43.800781 L 24 41 L 24 36 L 24 10 C 24 8.3 22.7 7 21 7 L 3 7 z M 29 7 C 27.3 7 26 8.3 26 10 L 26 36 L 26 41 L 26 43.800781 C 26.5 43.600781 26.899219 43.4 27.199219 43 L 47 43 C 48.7 43 50 41.7 50 40 L 50 10 C 50 8.3 48.7 7 47 7 L 29 7 z M 10.298828 19 L 12.851562 19 L 17.369141 32 L 14.929688 32 L 13.855469 28.675781 L 9.1816406 28.675781 L 8.0898438 32 L 5.7910156 32 L 10.298828 19 z M 33.878906 19 L 43.185547 19 L 43.185547 20.585938 L 36.529297 29.837891 L 36.529297 29.990234 L 43.353516 29.990234 L 43.353516 32 L 43.351562 32 L 33.693359 32 L 33.693359 30.414062 L 40.376953 21.162109 L 40.376953 21.009766 L 33.878906 21.009766 L 33.878906 19 z M 11.451172 21.478516 L 9.7089844 26.837891 L 13.328125 26.837891 L 11.601562 21.478516 L 11.451172 21.478516 z"/></svg>