<?xml version="1.0" encoding="utf-8"?><!-- Generator: Adobe Illustrator 15.0.0, SVG Export Plug-In . SVG Version: 6.00 Build 0)  --><!DOCTYPE svg PUBLIC "-//W3C//DTD SVG 1.1//EN" "http://www.w3.org/Graphics/SVG/1.1/DTD/svg11.dtd"><svg xmlns="http://www.w3.org/2000/svg" xmlns:xlink="http://www.w3.org/1999/xlink" viewBox="0 0 50 50" width="50px" height="50px"><line fill="none" stroke="#000000" stroke-width="4" stroke-linecap="round" stroke-miterlimit="10" x1="37" y1="19" x2="28" y2="28"/><circle cx="42" cy="26" r="2"/><circle cx="45" cy="10.375" r="2"/><circle cx="41" cy="15" r="2"/><line fill="none" stroke="#000000" stroke-width="4" stroke-linecap="round" stroke-miterlimit="10" x1="30" y1="14" x2="24" y2="20"/><circle cx="38" cy="6" r="2"/><circle cx="42.042" cy="2" r="2"/><circle cx="34" cy="10" r="2"/><circle cx="29" cy="3" r="2"/><path d="M22.99,32.341c-0.089-1.332-0.533-2.575-1.687-3.641c-3.729-3.729-10.034,0-12.253,2.309c-2.752,2.752-2.752,7.192,0,9.945c0.267-0.178,0.622-0.267,0.977-0.267c1.154,0,2.131,0.888,2.309,2.042c2.309,0.622,4.883,0,6.748-1.865c0.888-0.888,1.776-2.042,2.575-3.374c-0.355-0.532-0.622-1.242-0.622-1.953C21.036,34.116,21.836,32.963,22.99,32.341z M16.904,36.89c-0.174,0.122-0.375,0.181-0.573,0.181c-0.315,0-0.625-0.148-0.82-0.426c-0.317-0.452-0.208-1.076,0.245-1.394c0.534-0.374,0.726-0.979,0.513-1.617c-0.245-0.686-1.083-1.059-1.823-0.796c-0.52,0.187-1.093-0.086-1.278-0.605c-0.186-0.521,0.085-1.092,0.606-1.277c1.792-0.639,3.757,0.27,4.385,2.026C18.66,34.479,18.165,36.006,16.904,36.89z"/><path fill="none" stroke="#000000" stroke-width="4" stroke-linecap="round" stroke-linejoin="round" stroke-miterlimit="10" d="M24.506,8.154c0,0-17.174,17.174-18.873,18.873c-4.813,4.813-4.813,12.551,0,17.363s12.551,4.813,17.363,0c1.698-1.699,14.155-14.154,14.155-14.154"/></svg>