<?xml version="1.0" encoding="utf-8"?><!-- Generator: Adobe Illustrator 15.0.0, SVG Export Plug-In . SVG Version: 6.00 Build 0)  --><!DOCTYPE svg PUBLIC "-//W3C//DTD SVG 1.1//EN" "http://www.w3.org/Graphics/SVG/1.1/DTD/svg11.dtd"><svg xmlns="http://www.w3.org/2000/svg" xmlns:xlink="http://www.w3.org/1999/xlink" viewBox="0 0 50 50" width="50px" height="50px"><path d="M28.814,20.804l-10.041,4l0.627,1.528c0.1,0.242,0.291,0.438,0.531,0.539l2.864,1.227c0.125,0.053,0.26,0.08,0.394,0.08c0.126,0,0.252-0.023,0.371-0.07l4.085-1.635c0.246-0.099,0.443-0.291,0.549-0.535l1.228-2.862c0.104-0.247,0.108-0.525,0.007-0.773L28.814,20.804z"/><line fill="none" stroke="#000000" stroke-width="2" stroke-linecap="round" stroke-linejoin="round" stroke-miterlimit="10" x1="35.504" y1="28.438" x2="21.729" y2="34.086"/><path d="M42,50H8c-0.552,0-1-0.447-1-1v-1c0-1.654,1.29-3,2.875-3h30.25C41.71,45,43,46.346,43,48v1C43,49.553,42.553,50,42,50z"/><path d="M16,43.083c-3.906,0-7.083-3.177-7.083-7.083s3.178-7.083,7.083-7.083s7.083,3.177,7.083,7.083S19.906,43.083,16,43.083z"/><path d="M39.365,39.205c-0.557-1.444-1.971-2.415-3.52-2.415c-0.464,0-0.921,0.085-1.354,0.253l-9.858,3.798c-0.278,0.111-0.617,0.109-0.978,0.027c-0.513,0.804-1.142,1.526-1.875,2.132h16.917c0.233-0.273,0.444-0.572,0.595-0.911C39.702,41.168,39.729,40.145,39.365,39.205z"/><path d="M28.073,18.946L23.744,8.473c-0.275-0.692-0.474-1.191-1.043-1.435c-0.568-0.243-1.062-0.043-1.805,0.257l-5.936,2.42c-1.627,0.65-1.88,1.238-1.217,2.899l4.287,10.333L28.073,18.946z"/><path d="M13.052,6.818l0.754-0.313l0.563,1.292l5.59-2.279l-0.576-1.325l0.836-0.346c0.366-0.153,0.65-0.439,0.799-0.806c0.15-0.363,0.148-0.764-0.003-1.119l-0.339-0.987c-0.313-0.722-1.208-1.078-1.921-0.777l-7.168,2.969c-0.74,0.31-1.098,1.168-0.794,1.923l0.335,0.969c0.228,0.554,0.763,0.911,1.361,0.911C12.684,6.93,12.874,6.892,13.052,6.818z"/><path d="M15.152,21.229l-3.011-7.257c-4.274,2.53-6.191,7.874-4.273,12.613l1.399,3.339c1.664-1.841,4.062-3.007,6.732-3.007c0.035,0,0.069,0.005,0.104,0.005l-1.252-3.176C14.502,22.881,14.651,21.943,15.152,21.229z"/></svg>