<?xml version="1.0" encoding="iso-8859-1"?><!-- Generator: Adobe Illustrator 21.1.0, SVG Export Plug-In . SVG Version: 6.00 Build 0)  --><svg xmlns="http://www.w3.org/2000/svg" xmlns:xlink="http://www.w3.org/1999/xlink" viewBox="0 0 50 50" width="50px" height="50px"><path d="M43.996,30.02C43.996,30.013,44,30.007,44,30V8H0v32c0,0.553,0.447,1,1,1h26.353c1.732,2.984,4.955,5,8.647,5c5.514,0,10-4.486,10-10C46,33.757,45.248,31.691,43.996,30.02z M14,14h23v2H14V14z M9,33.949V35H8v-1.055c-0.977-0.2-1.75-0.967-1.949-1.945H8.5C8.775,32,9,31.775,9,31.5S8.775,31,8.5,31C7.121,31,6,29.879,6,28.5c0-1.208,0.86-2.217,2-2.449V25h1v1.055c0.977,0.2,1.75,0.967,1.949,1.945H8.5C8.225,28,8,28.225,8,28.5S8.225,29,8.5,29c1.379,0,2.5,1.121,2.5,2.5C11,32.708,10.14,33.717,9,33.949z M9,20.949V22H8v-1.055c-0.977-0.2-1.75-0.967-1.949-1.945H8.5C8.775,19,9,18.775,9,18.5S8.775,18,8.5,18C7.121,18,6,16.879,6,15.5c0-1.208,0.86-2.217,2-2.449V12h1v1.055c0.977,0.2,1.75,0.967,1.949,1.945H8.5C8.225,15,8,15.225,8,15.5S8.225,16,8.5,16c1.379,0,2.5,1.121,2.5,2.5C11,19.708,10.14,20.717,9,20.949z M24,33H14v-2h10V33z M27,29H14v-2h13V29z M14,20v-2h23v2H14z M36,44c-4.411,0-8-3.589-8-8s3.589-8,8-8s8,3.589,8,8S40.411,44,36,44z"/><line style="fill:none;stroke:#000000;stroke-width:2;stroke-miterlimit:10;" x1="42" y1="42" x2="49" y2="49"/><path d="M41.2,0H2.8C1.256,0,0,1.256,0,2.8V6h44V2.8C44,1.256,42.744,0,41.2,0z M4,4C3.448,4,3,3.552,3,3c0-0.552,0.448-1,1-1s1,0.448,1,1C5,3.552,4.552,4,4,4z M7,4C6.448,4,6,3.552,6,3c0-0.552,0.448-1,1-1s1,0.448,1,1C8,3.552,7.552,4,7,4z M10,4C9.448,4,9,3.552,9,3c0-0.552,0.448-1,1-1s1,0.448,1,1C11,3.552,10.552,4,10,4z"/></svg>