<?xml version="1.0" encoding="utf-8"?><!-- Generator: Adobe Illustrator 15.0.0, SVG Export Plug-In . SVG Version: 6.00 Build 0)  --><!DOCTYPE svg PUBLIC "-//W3C//DTD SVG 1.1//EN" "http://www.w3.org/Graphics/SVG/1.1/DTD/svg11.dtd"><svg xmlns="http://www.w3.org/2000/svg" xmlns:xlink="http://www.w3.org/1999/xlink" viewBox="0 0 50 50" width="50px" height="50px"><path d="M25,2C11.654,2,4,9.727,4,23.2c0,7.771,6.155,11.86,9.462,14.057c0.729,0.484,1.364,0.906,1.682,1.203c0.296,0.422,0.58,1.2,0.879,2.022C17.113,43.476,18.761,48,25,48c6.215,0,7.936-4.656,8.964-7.438c0.314-0.851,0.611-1.654,0.861-1.974c0.312-0.328,1.021-0.805,1.842-1.357C39.929,35.038,46,30.956,46,23.2C46,9.727,38.346,2,25,2z M13.6,27.4c-3.1-3.101-2.8-8.3-2.1-9c0.7-0.7,5.9-1,9,2.1c3.1,3.2,2.8,8.3,2.1,9C21.9,30.2,16.7,30.5,13.6,27.4z M24,37.1c0,0.9-0.6,0.9-1.1,0.9c-0.6,0-1.1,0-1.1-0.9c0-0.8,2.2-4.1,2.2-4.1S24,35.8,24,37.1z M27.1,38c-0.5,0-1.1,0-1.1-0.9c0-1.3,0-4.1,0-4.1s2.2,3.3,2.2,4.1C28.2,38,27.7,38,27.1,38z M36.5,27.4c-3.1,3.1-8.3,2.8-9,2.1s-1-5.9,2.1-9c3.101-3.1,8.301-2.8,9-2.1C39.3,19.1,39.6,24.3,36.5,27.4z"/></svg>