<?xml version="1.0" encoding="iso-8859-1"?><!-- Generator: Adobe Illustrator 22.1.0, SVG Export Plug-In . SVG Version: 6.00 Build 0)  --><svg xmlns="http://www.w3.org/2000/svg" xmlns:xlink="http://www.w3.org/1999/xlink" viewBox="0 0 50 50" width="500px" height="500px"><path style="fill:none;stroke:#000000;stroke-width:2;stroke-linecap:round;stroke-linejoin:round;stroke-miterlimit:10;" d="M21.083,47.292c-6.041-0.208-11.563-1.5-13.905-9.125c3.822,2,6.205-1.875,4.356-5.25c-4.068-7.625-7.89-4.125-8.877-13.25c3.205,3.875,8.413,3.731,9.534,1.583c0.74-1.417,1.429-4.634-3.863-6.167C3.151,13.583,2.37,6.625,2,3.5c2.712,2.125,4.562,4.125,9,3.25c4.841-0.954,8.137,5.75,10.849,1.875C23.541,6.208,20,3.25,20,3.25s13.458-1.083,18.375,9.375"/><path style="fill:none;stroke:#000000;stroke-width:2;stroke-linecap:round;stroke-linejoin:round;stroke-miterlimit:10;" d="M33,13c4.709,0,9,8.096,9,18.031s-4.291,17.948-9,17.948"/><path style="fill:none;stroke:#000000;stroke-width:2;stroke-linecap:round;stroke-linejoin:round;stroke-miterlimit:10;" d="M25.846,49.021c0,0,12.715,0,12.923,0c5.098,0,9.231-8.059,9.231-18s-4.133-18-9.231-18c-0.208,0-12.923,0-12.923,0"/><ellipse style="fill:none;stroke:#000000;stroke-width:2;stroke-linecap:round;stroke-linejoin:round;stroke-miterlimit:10;" cx="25.231" cy="31.021" rx="9.231" ry="18"/><ellipse style="fill:none;stroke:#000000;stroke-width:2;stroke-linecap:round;stroke-linejoin:round;stroke-miterlimit:10;" cx="24.177" cy="31.021" rx="3.823" ry="10"/><polyline style="fill:none;stroke:#000000;stroke-width:2;stroke-linecap:round;stroke-linejoin:round;stroke-miterlimit:10;" points="34.625,30.042 41.833,33.75 47.646,29.813 "/><polyline style="fill:none;stroke:#000000;stroke-width:2;stroke-linecap:round;stroke-linejoin:round;stroke-miterlimit:10;" points="33.583,39.75 39.646,43.063 46.833,39.625 "/><polyline style="fill:none;stroke:#000000;stroke-width:2;stroke-linecap:round;stroke-linejoin:round;stroke-miterlimit:10;" points="32.625,20.25 41.097,23.688 45.333,20.125 "/></svg>