<?xml version="1.0" encoding="iso-8859-1"?><!-- Generator: Adobe Illustrator 19.2.0, SVG Export Plug-In . SVG Version: 6.00 Build 0)  --><svg xmlns="http://www.w3.org/2000/svg" xmlns:xlink="http://www.w3.org/1999/xlink" viewBox="0 0 50 50" width="50px" height="50px"><path d="M44.669,21.257C44.485,21.091,44.247,21,44,21h-8.411l2.814-5.628c0.463-0.922,0.422-2.002-0.11-2.887C38.182,12.302,35.557,8,32,8c-0.092,0-0.183,0.013-0.271,0.038l-9.706,2.738c-1.033,0.207-1.96,0.828-2.544,1.704l-5.311,7.966c-0.033,0.05-0.042,0.106-0.065,0.159l-6.715,1.063c-1.363,0.303-2.412,1.436-2.595,2.738l-0.768,3.374c-0.067,0.296,0.004,0.607,0.193,0.846C4.408,28.861,4.696,29,5,29h3v1.09C5.167,30.568,3,33.032,3,36c0,3.309,2.691,6,6,6s6-2.691,6-6c0-0.702-0.127-1.373-0.35-2h1.532l0.882,2.352c0.003,0.008,0.009,0.013,0.012,0.021c0.011,0.027,0.029,0.049,0.042,0.075c0.042,0.082,0.09,0.157,0.15,0.222c0.026,0.028,0.053,0.051,0.082,0.076c0.063,0.055,0.13,0.1,0.203,0.137c0.033,0.017,0.064,0.034,0.099,0.048C17.762,36.971,17.879,37,18,37h13c0.054,0,0.1-0.022,0.151-0.031c0.067-0.011,0.133-0.016,0.197-0.04c0.065-0.024,0.118-0.063,0.176-0.099c0.051-0.032,0.103-0.059,0.149-0.1c0.055-0.05,0.093-0.112,0.136-0.173c0.027-0.039,0.064-0.067,0.086-0.11L33.118,34h1.232C34.127,34.627,34,35.298,34,36c0,3.309,2.691,6,6,6s6-2.691,6-6c0-2.968-2.167-5.432-5-5.91V29h6c0.304,0,0.59-0.138,0.78-0.374c0.189-0.237,0.262-0.547,0.196-0.843C47.936,27.602,46.964,23.322,44.669,21.257z M21.144,13.588c0.292-0.438,0.755-0.749,1.347-0.87l9.636-2.715c1.968,0.102,3.873,2.555,4.452,3.512c0.177,0.294,0.19,0.652,0.036,0.96L34,19.704V18.5c0-0.828-0.672-1.5-1.5-1.5S31,17.672,31,18.5v6.841L30.634,26H25.5c-0.828,0-1.5,0.672-1.5,1.5s0.672,1.5,1.5,1.5h3.467l-0.556,1H21v-5c0-0.155-0.036-0.309-0.105-0.447l-2-4c-0.195-0.39-0.624-0.611-1.051-0.541l-1.099,0.174L21.144,13.588z M9,38c-1.103,0-2-0.897-2-2s0.897-2,2-2s2,0.897,2,2S10.103,38,9,38z M13.46,32c-0.887-0.988-2.095-1.679-3.46-1.91V29h4.307l1.125,3H13.46z M42,36c0,1.103-0.897,2-2,2s-2-0.897-2-2s0.897-2,2-2S42,34.897,42,36z M39,30.09c-1.365,0.23-2.573,0.921-3.46,1.91h-1.422l1.5-3H39V30.09z"/></svg>