<?xml version="1.0" encoding="iso-8859-1"?><!-- Generator: Adobe Illustrator 19.1.0, SVG Export Plug-In . SVG Version: 6.00 Build 0)  --><svg xmlns="http://www.w3.org/2000/svg" xmlns:xlink="http://www.w3.org/1999/xlink" viewBox="0 0 50 50" width="50px" height="50px"><circle cx="42.003" cy="36" r="2"/><path d="M47.291,31.415c-0.361-0.418-0.996-0.461-1.41-0.1c-0.417,0.362,0.435,1.552-0.1,1.41c-1.115-0.296-1.295-0.633-2.319-0.441c1.484,0.585,2.541,2.026,2.541,3.716c0,2.206-1.794,4-4,4s-4-1.794-4-4c0-0.604,0.145-1.172,0.386-1.686c-0.106,0.125-0.229,0.252-0.386,0.381c-0.428,0.351-1.447,0.305-2,0.305s-1,0.447-1,1c0,3.859,3.141,7,7,7s7-3.141,7-7C49.003,34.314,48.395,32.686,47.291,31.415z"/><path d="M34.003,38c-1.368,0-3-0.694-3-4c0-4.939,4.225-8.958,9.417-8.958c6.253,0,9.583,3.298,9.583,5.679c0,2.274-1.966,2.274-2.706,2.274c-0.228,0-0.477-0.006-0.746-0.014c-1.397-0.036-3.448-0.143-6.186,0.982c-2.799,1.151-3.653,2.173-4.218,2.849C35.682,37.369,35.154,38,34.003,38z"/><path d="M9.915,23.015c-9.918,0-9.918-1.988-9.918-2.642c0-1.563,1.215-3.379,2.782-3.379h14.448c1.567,0,2.782,1.816,2.782,3.379C20.009,21.026,20.009,23.015,9.915,23.015z"/><path d="M35.168,12.381c-3.071,0-5.478-1.562-5.478-3.556c0-1.993,2.406-3.553,5.478-3.553c1.242,0,2.077,0.26,2.632,0.817c0.721,0.724,0.717,1.69,0.714,2.543l-0.001,0.193l0.001,0.193c0.003,0.854,0.007,1.821-0.714,2.545C37.245,12.121,36.409,12.381,35.168,12.381z"/><path d="M39.785,21.847c-1.242-1.844-2.959-4.394-4.29-7.488c-0.112,0.004-0.211,0.022-0.327,0.022c-3.142,0-5.709-1.3-6.845-3.25c0,0,0,0-0.029-0.046c-0.334-0.589-0.532-1.238-0.582-1.927c-1.913,0.832-2.08,0.911-2.142,0.941c-1.236,0.594-1.5,1.578-1.336,2.301c0.261,1.147,1.639,1.888,2.996,1.574c0.794-0.185,1.66-0.749,2.332-1.269c1.289,3.844,2.542,10.261,0.165,13.771C28.577,28.175,26.705,29,24.003,29l-1.436,0.01c-1.469,0-2.465-0.113-2.89-0.677c-0.368-0.488-0.612-1.718,0.196-4.708c-1.894,0.963-5.119,1.39-9.958,1.39c-4.124,0-7.05-0.322-8.976-1.031C0.438,25.331,0.003,27.058,0.003,29c0,6.804,20.774,7,23.143,7c2.156,0,4.149-0.134,5.994-0.373c-0.087-0.494-0.137-1.033-0.137-1.627c0-6.042,5.122-10.958,11.417-10.958c0.055,0,0.105,0.005,0.16,0.006C40.346,22.685,40.087,22.294,39.785,21.847z"/><path d="M13.7,37.519C13.1,38.973,11.671,40,10.003,40c-2.172,0-3.938-1.743-3.99-3.903c-1.046-0.302-2.038-0.648-2.941-1.051C3.028,35.361,3.003,35.679,3.003,36c0,3.859,3.14,7,7,7c3.241,0,5.966-2.217,6.76-5.212C15.766,37.721,14.739,37.632,13.7,37.519z"/><path d="M8.114,36.627C8.378,37.422,9.121,38,10.003,38c0.629,0,1.184-0.298,1.551-0.753C10.39,37.079,9.234,36.875,8.114,36.627z"/></svg>