<?xml version="1.0" encoding="iso-8859-1"?>
<!-- Generator: Adobe Illustrator 23.0.3, SVG Export Plug-In . SVG Version: 6.00 Build 0)  -->
<svg version="1.1" id="Layer_1" xmlns="http://www.w3.org/2000/svg" xmlns:xlink="http://www.w3.org/1999/xlink" x="0px" y="0px"
	 viewBox="0 0 50 50" style="enable-background:new 0 0 50 50;" xml:space="preserve">
<g>
	<circle style="fill:none;stroke:#000000;stroke-width:2;stroke-miterlimit:10;" cx="13" cy="39" r="5"/>
</g>
<line style="fill:none;stroke:#000000;stroke-width:2;stroke-linecap:round;stroke-linejoin:round;stroke-miterlimit:2.6131;" x1="3" y1="3" x2="47" y2="47"/>
<g>
	<path d="M48.401,23.103l-4.12-5.527C43.512,16.614,41.933,15,40,15h-7v19.389l3.253,3.253C36.812,36.106,38.273,35,40,35
		c2.206,0,4,1.794,4,4c0,1.727-1.106,3.188-2.642,3.747l1.507,1.507c1.579-0.867,2.734-2.413,3.045-4.253H47c1.542,0,3-1.458,3-3
		v-9.6C50,25.441,48.581,23.358,48.401,23.103z M39,27.001L39,27.001C38.552,27,38,26.448,38,26v-9h2
		c0.789,0,1.806,0.682,2.698,1.798l4.081,5.475c0.301,0.432,1.026,1.667,1.188,2.728H39z"/>
	<path d="M3.783,8C3.319,8,2.975,8,2.798,8C0.828,8.156,0,9.766,0,10.891C0,11.953,0,37,0,37c0,1.654,1.346,3,3,3h5.101
		C8.035,39.677,8,39.343,8,39c0-2.761,2.239-5,5-5s5,2.239,5,5c0,0.343-0.035,0.677-0.101,1H31v-4.783L3.783,8z"/>
	<path d="M31,32.389V10.9C31,9.355,29.645,8,28.1,8c0,0-14.34,0-21.489,0L31,32.389z"/>
	<path d="M38.479,42.696c-0.984-0.406-1.77-1.192-2.176-2.176L33,37.217V40h1.09c0.478,2.833,2.942,5,5.91,5
		c0.245,0,0.481-0.036,0.718-0.065L38.479,42.696z"/>
</g>
</svg>