<?xml version="1.0" encoding="iso-8859-1"?>
<!-- Generator: Adobe Illustrator 26.4.1, SVG Export Plug-In . SVG Version: 6.00 Build 0)  -->
<svg version="1.1" baseProfile="basic" id="Layer_1"
	 xmlns="http://www.w3.org/2000/svg" xmlns:xlink="http://www.w3.org/1999/xlink" x="0px" y="0px" viewBox="0 0 50 50"
	 xml:space="preserve">
<circle style="fill:none;stroke:#000000;stroke-width:2;stroke-miterlimit:10;" cx="11" cy="33" r="5"/>
<circle style="fill:none;stroke:#000000;stroke-width:2;stroke-miterlimit:10;" cx="39" cy="33" r="5"/>
<line style="fill:none;stroke:#000000;stroke-width:2;stroke-miterlimit:10;" x1="16.011" y1="32.956" x2="34.154" y2="32.98"/>
<path style="fill:none;stroke:#000000;stroke-width:2;stroke-miterlimit:10;" d="M44.112,32.994l2.962,0.004
	C48.137,32.999,49,32.137,49,31.074v-5.662c0-1.968-1.423-3.648-3.365-3.972L37,20H9l-4.71,0.589
	c-1.883,0.235-3.3,1.829-3.314,3.727l-0.047,6.635c-0.008,1.095,0.877,1.987,1.971,1.988l3.057,0.004"/>
<path d="M44.112,32.994l2.962,0.004C48.137,32.999,49,32.137,49,31.074v-5.662c0-1.968-1.423-3.648-3.365-3.972L37,20H9l-4.71,0.589
	c-1.883,0.235-3.3,1.829-3.314,3.727l-0.047,6.635c-0.008,1.095,0.877,1.987,1.971,1.988l3.057,0.004C5.957,32.943,6,28,11,28
	s5,5,5,5h18c0,0,1-5,5-5C44,28,44.112,32.994,44.112,32.994z"/>
<path style="fill:none;stroke:#000000;stroke-width:2;stroke-miterlimit:10;" d="M36.437,19.767l-4.395-6.279
	C31.389,12.555,30.322,12,29.183,12H13.037c-1.296,0-2.53,0.554-3.391,1.523L3,21"/>
<line style="fill:none;stroke:#000000;stroke-width:2;stroke-miterlimit:10;" x1="22" y1="13" x2="22" y2="20"/>
</svg>