<?xml version="1.0" encoding="iso-8859-1"?><!-- Generator: Adobe Illustrator 21.1.0, SVG Export Plug-In . SVG Version: 6.00 Build 0)  --><svg xmlns="http://www.w3.org/2000/svg" xmlns:xlink="http://www.w3.org/1999/xlink" viewBox="0 0 50 50" width="500px" height="500px"><path style="fill:none;stroke:#000000;stroke-width:2;stroke-miterlimit:10;" d="M47,39H3c-1.105,0-2-0.895-2-2V15c0-1.105,0.895-2,2-2h44c1.105,0,2,0.895,2,2v22C49,38.105,48.105,39,47,39z"/><path style="fill:none;stroke:#000000;stroke-width:2;stroke-miterlimit:10;" d="M10,34H8c-1.1,0-2-0.9-2-2V20c0-1.1,0.9-2,2-2h2c1.1,0,2,0.9,2,2v12C12,33.1,11.1,34,10,34z"/><path style="fill:none;stroke:#000000;stroke-width:2;stroke-miterlimit:10;" d="M26,34h-2c-1.1,0-2-0.9-2-2V20c0-1.1,0.9-2,2-2h2c1.1,0,2,0.9,2,2v12C28,33.1,27.1,34,26,34z"/><path style="fill:none;stroke:#000000;stroke-width:2;stroke-miterlimit:10;" d="M44,13v6c0,1.1-0.9,2-2,2h-2c-1.1,0-2-0.9-2-2v-6"/><path style="fill:none;stroke:#000000;stroke-width:2;stroke-linejoin:round;stroke-miterlimit:10;" d="M37,27h7v2l-4.408,10"/><line style="fill:none;stroke:#000000;stroke-width:2;stroke-miterlimit:10;" x1="17" y1="13" x2="17" y2="39"/><line style="fill:none;stroke:#000000;stroke-width:2;stroke-miterlimit:10;" x1="33" y1="13" x2="33" y2="39"/></svg>