<?xml version="1.0" encoding="iso-8859-1"?><!-- Generator: Adobe Illustrator 19.1.1, SVG Export Plug-In . SVG Version: 6.00 Build 0)  --><svg xmlns="http://www.w3.org/2000/svg" xmlns:xlink="http://www.w3.org/1999/xlink" viewBox="0 0 50 50" width="50px" height="50px"><circle cx="39" cy="33" r="3"/><circle cx="10" cy="33" r="3"/><polyline style="fill:none;stroke:#000000;stroke-width:2;stroke-linecap:round;stroke-linejoin:round;stroke-miterlimit:10;" points="16,16 19,12 23,12 "/><path d="M27,25c-2.239,0-3.927-2.441-5.714-5.026C19.674,17.643,17.847,15,16,15c-0.142,0-0.281,0.03-0.409,0.088c-1.555,0.698-3.009,1.96-3.765,2.678c0.367,0.198,0.61,0.332,0.659,0.36C12.697,18.243,18.141,22.32,20,32c0.181,0.942,1,1,1,1h7c0,0,0.818,0.063,1-1c0.381-2.218,1.23-5.287,1.924-7H27z"/><path d="M44.221,17.044C44.148,17.027,44.078,17,44,17c-6.154,0-10.677,0.894-13.669,1.484C28.873,18.772,27.723,19,27,19c-0.821,0-2.179-0.788-3.724-2.163c-0.904-0.804-1.976-1.356-3.117-1.632c0.983,1.048,1.885,2.348,2.771,3.631C24.28,20.788,25.81,23,27,23h4.805c0.711-1.488,1.284-2.425,1.338-2.516c0.11-0.183,0.275-0.325,0.473-0.407c0.282-0.118,6.693-2.767,10.868-3.048C44.395,17.035,44.311,17.036,44.221,17.044z"/><path d="M45.122,18.992c-0.034,0.005-0.067,0.007-0.102,0.008c-3.302,0.068-8.944,2.245-10.325,2.797C34.111,22.84,32.101,26.644,31.2,31h1.094C32.105,31.634,32,32.305,32,33c0,3.859,3.141,7,7,7s7-3.141,7-7c0-3.577-2.7-6.532-6.168-6.946L40.535,25H48c0.304,0,0.59-0.138,0.78-0.374c0.189-0.237,0.262-0.547,0.196-0.843c-0.033-0.144-0.653-2.862-2.052-5.012L45.122,18.992z M44,33c0,2.757-2.243,5-5,5s-5-2.243-5-5s2.243-5,5-5S44,30.243,44,33z"/><path d="M17.748,31c-2.047-8.614-6.195-11.104-6.239-11.129c-0.024-0.013-1.091-0.706-2.371-1.26l-4.75,1.056c-1.364,0.304-2.413,1.437-2.61,2.818L1.01,27.858c-0.021,0.15-0.002,0.295,0.04,0.431c0.003,0.009,0,0.018,0.002,0.027l1,3C2.187,31.725,2.569,32,3,32h0.08C3.033,32.328,3,32.66,3,33c0,3.859,3.141,7,7,7s7-3.141,7-7c0-0.695-0.105-1.366-0.295-2H17.748z M4.821,21.62l1.985-0.441L6,24l-2.539,0.846l0.297-2.078C3.838,22.205,4.266,21.743,4.821,21.62z M10,38c-2.757,0-5-2.243-5-5s2.243-5,5-5s5,2.243,5,5S12.757,38,10,38z"/></svg>