<?xml version="1.0" encoding="iso-8859-1"?><!-- Generator: Adobe Illustrator 20.1.0, SVG Export Plug-In . SVG Version: 6.00 Build 0)  --><svg xmlns="http://www.w3.org/2000/svg" xmlns:xlink="http://www.w3.org/1999/xlink" viewBox="0 0 50 50" width="500px" height="500px"><g><g><path style="fill:none;stroke:#000000;stroke-width:2;stroke-linecap:round;stroke-miterlimit:10;" d="M47,12c0-4.971-4.029-9-9-9c-0.985,0-1.93,0.164-2.817,0.456l6.089,6.089l-1.636,4.091l-4.091,1.636l-6.089-6.089C29.164,10.07,29,11.015,29,12c0,3.917,2.507,7.24,6,8.477V43c0,2.209,1.791,4,4,4s4-1.791,4-4V19.482C45.411,17.868,47,15.12,47,12z"/></g></g><circle style="fill:none;stroke:#000000;stroke-width:2;stroke-linecap:round;stroke-linejoin:round;stroke-miterlimit:10;" cx="9" cy="34" r="4"/><path style="fill:none;stroke:#000000;stroke-width:2;stroke-linejoin:round;stroke-miterlimit:10;" d="M5,34H3c-1.105,0-2-0.895-2-2v-5.438c0-0.918,0.625-1.718,1.515-1.94L13,22l6.869-6.01c0.729-0.638,1.665-0.99,2.634-0.99H27"/><line style="fill:none;stroke:#000000;stroke-width:2;stroke-linejoin:round;stroke-miterlimit:10;" x1="32" y1="34" x2="13" y2="34"/></svg>