<?xml version="1.0" encoding="iso-8859-1"?>
<!-- Generator: Adobe Illustrator 23.0.3, SVG Export Plug-In . SVG Version: 6.00 Build 0)  -->
<svg version="1.1" id="&#x421;&#x43B;&#x43E;&#x439;_1"
	 xmlns="http://www.w3.org/2000/svg" xmlns:xlink="http://www.w3.org/1999/xlink" x="0px" y="0px" viewBox="0 0 50 50"
	 style="enable-background:new 0 0 50 50;" xml:space="preserve">
<g>
	<path style="fill:none;stroke:#000000;stroke-width:2;stroke-linecap:round;stroke-linejoin:round;stroke-miterlimit:10;" d="
		M7,14.518L8,20h8l1-5.482l0,0C13.922,12.494,10.078,12.494,7,14.518L7,14.518z"/>
	<path style="fill:none;stroke:#000000;stroke-width:2;stroke-linecap:round;stroke-linejoin:round;stroke-miterlimit:10;" d="
		M6.598,38.945l-0.52-0.212C4.817,38.219,4,37.04,4,35.735V9.683c0-1.404,0.713-2.722,1.914-3.539L6.686,5.62
		c3.179-2.16,7.449-2.16,10.628,0l0.771,0.524C19.287,6.961,20,8.279,20,9.683v26.052c0,1.305-0.817,2.484-2.078,2.998l-0.52,0.212
		C13.953,40.352,10.047,40.352,6.598,38.945z"/>
	<path style="fill:none;stroke:#000000;stroke-width:2;stroke-linecap:round;stroke-linejoin:round;stroke-miterlimit:10;" d="
		M8,29.051h8v6.123c-2.667,1.1-5.333,1.1-8,0V29.051z"/>
	
		<line style="fill:none;stroke:#000000;stroke-width:2;stroke-linecap:round;stroke-linejoin:round;stroke-miterlimit:10;" x1="17" y1="26.065" x2="17" y2="23.079"/>
	
		<line style="fill:none;stroke:#000000;stroke-width:2;stroke-linecap:round;stroke-linejoin:round;stroke-miterlimit:10;" x1="7" y1="26.065" x2="7" y2="23.079"/>
	
		<line style="fill:none;stroke:#000000;stroke-width:2;stroke-linecap:round;stroke-linejoin:round;stroke-miterlimit:10;" x1="12" y1="4.168" x2="12" y2="12"/>
	
		<line style="fill:none;stroke:#000000;stroke-width:2;stroke-linecap:round;stroke-linejoin:round;stroke-miterlimit:10;" x1="12" y1="20.093" x2="12" y2="29.051"/>
	
		<line style="fill:none;stroke:#000000;stroke-width:2;stroke-linecap:round;stroke-linejoin:round;stroke-miterlimit:10;" x1="12" y1="36.019" x2="12" y2="40"/>
</g>
<g>
	<path style="fill:none;stroke:#000000;stroke-width:2;stroke-linecap:round;stroke-linejoin:round;stroke-miterlimit:10;" d="
		M33,20.518L34,26h8l1-5.482l0,0C39.922,18.494,36.078,18.494,33,20.518L33,20.518z"/>
	<path style="fill:none;stroke:#000000;stroke-width:2;stroke-linecap:round;stroke-linejoin:round;stroke-miterlimit:10;" d="
		M32.598,44.945l-0.52-0.212C30.817,44.219,30,43.04,30,41.735V15.683c0-1.404,0.713-2.722,1.914-3.539l0.771-0.524
		c3.179-2.16,7.449-2.16,10.628,0l0.771,0.524C45.287,12.961,46,14.279,46,15.683v26.052c0,1.305-0.817,2.484-2.078,2.998
		l-0.52,0.212C39.953,46.352,36.047,46.352,32.598,44.945z"/>
	<path style="fill:none;stroke:#000000;stroke-width:2;stroke-linecap:round;stroke-linejoin:round;stroke-miterlimit:10;" d="
		M34,35.051h8v6.123c-2.667,1.1-5.333,1.1-8,0V35.051z"/>
	
		<line style="fill:none;stroke:#000000;stroke-width:2;stroke-linecap:round;stroke-linejoin:round;stroke-miterlimit:10;" x1="43" y1="32.065" x2="43" y2="29.079"/>
	
		<line style="fill:none;stroke:#000000;stroke-width:2;stroke-linecap:round;stroke-linejoin:round;stroke-miterlimit:10;" x1="33" y1="32.065" x2="33" y2="29.079"/>
	
		<line style="fill:none;stroke:#000000;stroke-width:2;stroke-linecap:round;stroke-linejoin:round;stroke-miterlimit:10;" x1="38" y1="10.168" x2="38" y2="18"/>
	
		<line style="fill:none;stroke:#000000;stroke-width:2;stroke-linecap:round;stroke-linejoin:round;stroke-miterlimit:10;" x1="38" y1="26.093" x2="38" y2="35.051"/>
	
		<line style="fill:none;stroke:#000000;stroke-width:2;stroke-linecap:round;stroke-linejoin:round;stroke-miterlimit:10;" x1="38" y1="42.019" x2="38" y2="46"/>
</g>
<g>
	<rect x="24" y="3" width="2" height="6"/>
	<rect x="24" y="16" width="2" height="6"/>
	<rect x="24" y="29" width="2" height="6"/>
	<rect x="24" y="41" width="2" height="6"/>
</g>
</svg>