<?xml version="1.0" encoding="utf-8"?><!-- Generator: Adobe Illustrator 19.1.1, SVG Export Plug-In . SVG Version: 6.00 Build 0)  --><svg xmlns="http://www.w3.org/2000/svg" xmlns:xlink="http://www.w3.org/1999/xlink" viewBox="0 0 50 50" width="50px" height="50px"><path fill="none" stroke="#000000" stroke-width="2" stroke-linejoin="round" stroke-miterlimit="10" d="M25,47L25,47c8.8,0,16-7.2,16-16V19c0-8.8-7.2-16-16-16l0,0C16.2,3,9,10.2,9,19v12C9,39.8,16.2,47,25,47z"/><path d="M25,6c-7.2,0-13,5.8-13,13v12c0,7.2,5.8,13,13,13c7.2,0,13-5.8,13-13V19C38,11.8,32.2,6,25,6z M14.8,15c1.6-4.1,5.6-7,10.2-7s8.6,2.9,10.2,7H14.8z M34,32H22c-1.7,0-3-1.3-3-3c0-1.3,0.9-2.4,2-2.8c0.2-1.2,1.2-2.2,2.5-2.2c0.2,0,0.4,0,0.6,0.1c0.4-1.8,2-3.1,3.9-3.1c1.9,0,3.5,1.4,3.9,3.2c0.9,0.3,1.6,1,1.9,1.9c0.1,0,0.1,0,0.2,0c1.7,0,3,1.3,3,3C37,30.7,35.7,32,34,32z"/><path d="M25,6c-7.2,0-13,5.8-13,13v12c0,7.2,5.8,13,13,13c7.2,0,13-5.8,13-13V19C38,11.8,32.2,6,25,6z M25,8c4.7,0,8.6,2.9,10.2,7H14.8C16.4,10.9,20.3,8,25,8z M36,31c0,6.1-4.9,11-11,11s-11-4.9-11-11V19c0-0.7,0.1-1.4,0.2-2h21.6c0.1,0.6,0.2,1.3,0.2,2V31z"/><line fill="none" stroke="#000000" stroke-width="2" stroke-linecap="round" stroke-linejoin="round" stroke-miterlimit="10" x1="22" y1="12" x2="28" y2="12"/></svg>