<?xml version="1.0" encoding="iso-8859-1"?><!-- Generator: Adobe Illustrator 21.1.0, SVG Export Plug-In . SVG Version: 6.00 Build 0)  --><svg xmlns="http://www.w3.org/2000/svg" xmlns:xlink="http://www.w3.org/1999/xlink" viewBox="0 0 50 50" width="50px" height="50px"><path d="M25,2C12.318,2,2,12.318,2,25s10.318,23,23,23s23-10.318,23-23S37.682,2,25,2z M24.998,41C16.175,41,9,33.823,9,25S16.175,9,24.998,9C33.822,9,41,16.177,41,25S33.822,41,24.998,41z"/><g><path d="M26.982,19.343c0.709,0.248,1.355,0.621,1.922,1.107c0.186,0.159,0.417,0.241,0.651,0.241c0.164,0,0.328-0.04,0.478-0.122l8.084-4.401c0.485-0.264,0.665-0.872,0.4-1.356c-0.265-0.486-0.872-0.664-1.356-0.4l-3.748,2.04c-1.489-1.463-3.346-2.521-5.355-3.052l-0.213-4.16c-0.028-0.552-0.501-0.976-1.05-0.948c-0.551,0.028-0.976,0.498-0.947,1.049l0.465,9.108C26.335,18.856,26.599,19.209,26.982,19.343z"/><path d="M40.044,30.67l-3.515-2.367C36.835,27.233,37,26.126,37,25c0-1.122-0.161-2.224-0.465-3.29l3.368-2.254c0.459-0.307,0.582-0.928,0.275-1.387c-0.308-0.459-0.929-0.583-1.387-0.275l-7.482,5.007c-0.336,0.225-0.503,0.629-0.425,1.026C30.961,24.216,31,24.611,31,25s-0.039,0.784-0.117,1.173c-0.079,0.396,0.088,0.799,0.422,1.024l7.622,5.132c0.171,0.115,0.366,0.17,0.558,0.17c0.322,0,0.637-0.155,0.831-0.441C40.624,31.601,40.502,30.979,40.044,30.67z"/><path d="M12.111,16.402l7.81,4.214c0.149,0.081,0.313,0.12,0.475,0.12c0.237,0,0.472-0.084,0.659-0.248c0.593-0.52,1.27-0.911,2.012-1.164c0.389-0.133,0.658-0.491,0.676-0.902l0.409-9.087c0.025-0.552-0.402-1.019-0.954-1.044c-0.527-0.012-1.02,0.401-1.044,0.954l-0.186,4.145c-2.061,0.535-3.919,1.604-5.438,3.122l-3.468-1.871c-0.489-0.263-1.093-0.081-1.355,0.405C11.444,15.534,11.625,16.14,12.111,16.402z"/><path d="M23.066,30.674c-0.742-0.252-1.419-0.644-2.013-1.164c-0.314-0.275-0.767-0.326-1.134-0.127l-8.809,4.814l0.95,1.76l4.464-2.47c1.506,1.501,3.394,2.583,5.443,3.119l0.186,4.107c0.024,0.536,0.467,0.955,0.998,0.955c0.016,0,0.031,0,0.046-0.001c0.551-0.025,0.979-0.493,0.954-1.044l-0.409-9.045C23.724,31.165,23.456,30.807,23.066,30.674z"/><path d="M38.022,33.828l-4.291-2.361c-0.066-0.04-0.129-0.087-0.201-0.11l-3.495-1.923c-0.365-0.202-0.817-0.154-1.133,0.117c-0.567,0.486-1.213,0.859-1.922,1.107c-0.383,0.134-0.647,0.487-0.667,0.893l-0.465,9.065c-0.028,0.552,0.396,1.021,0.947,1.05c0.018,0.001,0.035,0.001,0.052,0.001c0.529,0,0.97-0.415,0.998-0.949l0.211-4.118c2.002-0.529,3.854-1.581,5.34-3.035l3.661,2.015c0.483,0.267,1.092,0.09,1.358-0.394C38.683,34.702,38.506,34.094,38.022,33.828z"/><path d="M19.108,26.112C19.036,25.731,19,25.357,19,25s0.036-0.731,0.108-1.112c0.074-0.394-0.095-0.794-0.429-1.017l-7.502-4.995c-0.46-0.306-1.081-0.183-1.387,0.278c-0.306,0.46-0.181,1.081,0.278,1.387l3.374,2.246C13.153,22.829,13,23.906,13,25c0,1.095,0.155,2.172,0.445,3.215l-3.377,2.252c-0.459,0.307-0.583,0.927-0.277,1.387c0.193,0.289,0.51,0.445,0.833,0.445c0.19,0,0.383-0.054,0.554-0.168l7.502-5.002C19.013,26.906,19.182,26.506,19.108,26.112z"/><path d="M29,25c0-2.206-1.794-4-4-4s-4,1.794-4,4s1.794,4,4,4S29,27.206,29,25z M25,27c-1.103,0-2-0.897-2-2s0.897-2,2-2s2,0.897,2,2S26.103,27,25,27z"/></g></svg>