<?xml version="1.0" encoding="utf-8"?><!-- Generator: Adobe Illustrator 15.0.0, SVG Export Plug-In . SVG Version: 6.00 Build 0)  --><!DOCTYPE svg PUBLIC "-//W3C//DTD SVG 1.1//EN" "http://www.w3.org/Graphics/SVG/1.1/DTD/svg11.dtd"><svg xmlns="http://www.w3.org/2000/svg" xmlns:xlink="http://www.w3.org/1999/xlink" viewBox="0 0 50 50" width="50px" height="50px"><rect fill="none" width="50" height="50"/><path d="M48.707,16.293l-11-11l-1.414,1.414L42,12.414V20.6c0,1.135,0.483,2.297,1.293,3.107L48,28.414V36h2V19.4C50,18.265,49.517,17.103,48.707,16.293z"/><rect x="38" y="31" width="2" height="5"/><path d="M44,42c-3.364,0-6-2.636-6-6h2c0,2.243,1.757,4,4,4s4-1.757,4-4h2C50,39.364,47.364,42,44,42z"/><path d="M36,50H3c-0.552,0-1-0.447-1-1v-4c0-0.553,0.448-1,1-1h33c0.553,0,1,0.447,1,1v4C37,49.553,36.553,50,36,50z"/><path d="M35,42V5.3C35,2.328,32.672,0,29.7,0H9.3C6.328,0,4,2.328,4,5.3V42H35z M9,6.9C9,5.9,9.9,5,10.9,5h17.2c1,0,1.9,0.9,1.9,1.9v10.2c0,1-0.9,1.9-1.9,1.9H10.9c-1,0-1.9-0.9-1.9-1.9V6.9z"/><path d="M36,25.336v2.203c1.199,0.684,2,1.955,2,3.461h2C40,28.342,38.351,26.144,36,25.336z"/></svg>