<?xml version="1.0" encoding="iso-8859-1"?><!-- Generator: Adobe Illustrator 20.1.0, SVG Export Plug-In . SVG Version: 6.00 Build 0)  --><svg xmlns="http://www.w3.org/2000/svg" xmlns:xlink="http://www.w3.org/1999/xlink" viewBox="0 0 50 50" width="50px" height="50px"><path d="M38,2c-1.058,0-2.111,0.17-3.13,0.506l-1.542,0.509L40.1,9.786l-1.232,3.081l-3.081,1.232l-6.771-6.772l-0.509,1.543C28.17,9.891,28,10.944,28,12c0,3.983,2.384,7.577,6,9.157V43c0,2.757,2.243,5,5,5s5-2.243,5-5V19.999c2.515-1.887,4-4.838,4-7.999C48,6.486,43.514,2,38,2z"/><circle style="fill:none;stroke:#000000;stroke-width:2;stroke-linecap:round;stroke-linejoin:round;stroke-miterlimit:10;" cx="9" cy="34" r="4"/><path style="fill:none;stroke:#000000;stroke-width:2;stroke-linejoin:round;stroke-miterlimit:10;" d="M5,34H3c-1.105,0-2-0.895-2-2v-5.438c0-0.918,0.625-1.718,1.515-1.94L13,22l6.869-6.01c0.729-0.638,1.665-0.99,2.634-0.99H27"/><line style="fill:none;stroke:#000000;stroke-width:2;stroke-linejoin:round;stroke-miterlimit:10;" x1="32" y1="34" x2="13" y2="34"/></svg>