<?xml version="1.0" encoding="iso-8859-1"?><!-- Generator: Adobe Illustrator 21.0.2, SVG Export Plug-In . SVG Version: 6.00 Build 0)  --><svg xmlns="http://www.w3.org/2000/svg" xmlns:xlink="http://www.w3.org/1999/xlink" viewBox="0 0 50 50" width="500px" height="500px"><polyline style="fill:none;stroke:#000000;stroke-width:2;stroke-linecap:square;stroke-miterlimit:10;" points="4,43 4,15 46,15 46,43 "/><g><g><path style="fill:none;stroke:#000000;stroke-width:2;stroke-linecap:round;stroke-linejoin:round;stroke-miterlimit:10;" d="M36.817,29.648l-0.869-0.862l-1.727-4.282C33.61,22.991,32.142,22,30.511,22H19.489c-1.631,0-3.099,0.991-3.71,2.504l-1.727,4.282l-0.869,0.862C12.426,30.399,12,31.421,12,32.488V42c0,0.552,0.448,1,1,1h1c0.552,0,1-0.448,1-1v-1.658C17.045,40.674,20.253,41,25,41s7.955-0.326,10-0.658V42c0,0.552,0.448,1,1,1h1c0.552,0,1-0.448,1-1v-9.512C38,31.421,37.574,30.399,36.817,29.648z"/></g></g><rect x="2" y="7" transform="matrix(-1 -4.302304e-11 4.302304e-11 -1 50 22)" style="fill:none;stroke:#000000;stroke-width:2;stroke-linecap:square;stroke-miterlimit:10;" width="46" height="8"/><rect x="20" y="10" width="10" height="2"/><rect x="21" y="34" width="8" height="2"/><rect x="34" y="10" width="2" height="2"/><rect x="40" y="10" width="2" height="2"/><rect x="8" y="10" width="2" height="2"/><rect x="14" y="10" width="2" height="2"/><circle cx="33.5" cy="34.5" r="1.5"/><circle cx="16.5" cy="34.5" r="1.5"/></svg>