<?xml version="1.0" encoding="iso-8859-1"?><!-- Generator: Adobe Illustrator 22.0.1, SVG Export Plug-In . SVG Version: 6.00 Build 0)  --><svg xmlns="http://www.w3.org/2000/svg" xmlns:xlink="http://www.w3.org/1999/xlink" viewBox="0 0 50 50" width="50px" height="50px"><polyline style="fill:none;stroke:#000000;stroke-width:2;stroke-linecap:round;stroke-linejoin:round;stroke-miterlimit:10;" points="36,16 24,30 10,30 17,16 "/><path style="fill:none;stroke:#000000;stroke-width:2;stroke-linecap:round;stroke-linejoin:round;stroke-miterlimit:10;" d="M42,13c0-3-1.932-2.95-4-3h-3c0,0.3,1.2,8.9,5,20"/><line style="fill:none;stroke:#000000;stroke-width:2;stroke-linecap:round;stroke-linejoin:round;stroke-miterlimit:10;" x1="14.7" y1="11.4" x2="24" y2="30"/><path d="M20,10.6c0,0.7-1.1,1.4-3.7,1.4c-2.7,0-5.3,2.7-5.3-0.5c0-0.9,0.2-1.4,1.3-1.4c0.4,0,6.4,0,6.4,0C19.5,10,20,10,20,10.6z"/><path style="fill:none;stroke:#000000;stroke-width:2;stroke-linecap:round;stroke-linejoin:round;stroke-miterlimit:10;" d="M10,21c1.437,0,2.795,0.337,4,0.936c2.963,1.473,5,4.531,5,8.064c0,4.971-4.029,9-9,9s-9-4.029-9-9S5.029,21,10,21z"/><circle style="fill:none;stroke:#000000;stroke-width:1.9999;stroke-linecap:round;stroke-linejoin:round;stroke-miterlimit:10;" cx="40" cy="30" r="9"/><polyline style="fill:none;stroke:#000000;stroke-width:2;stroke-linecap:round;stroke-linejoin:round;stroke-miterlimit:10;" points="27,11 23,16 29,16 25,21 "/></svg>