<?xml version="1.0" encoding="iso-8859-1"?><!-- Generator: Adobe Illustrator 19.1.0, SVG Export Plug-In . SVG Version: 6.00 Build 0)  --><svg xmlns="http://www.w3.org/2000/svg" xmlns:xlink="http://www.w3.org/1999/xlink" viewBox="0 0 50 50" width="500px" height="500px"><g><path style="fill:none;stroke:#000000;stroke-width:1.9999;stroke-linecap:round;stroke-linejoin:round;stroke-miterlimit:10;" d="M4.955,32.75C4.351,33.687,4,34.803,4,36c0,3.313,2.687,6,6,6s6-2.687,6-6c0-0.414-0.042-0.818-0.122-1.209"/></g><g><path style="fill:none;stroke:#000000;stroke-width:2;stroke-linecap:round;stroke-linejoin:round;stroke-miterlimit:10;" d="M7.477,34.375C7.175,34.844,7,35.4,7,36c0,1.656,1.344,3,3,3s3-1.344,3-3c0-0.207-0.02-0.409-0.062-0.605"/></g><g><path style="fill:none;stroke:#000000;stroke-width:1.9999;stroke-linecap:round;stroke-linejoin:round;stroke-miterlimit:10;" d="M36,36c0,3.313,2.687,6,6,6s6-2.687,6-6c0-1.503-0.553-2.877-1.467-3.93"/></g><path style="fill:none;stroke:#000000;stroke-width:1.9999;stroke-linecap:round;stroke-linejoin:round;stroke-miterlimit:10;" d="M39.783,33.391C40.51,34.324,41.262,35.214,42,36"/><path style="fill:none;stroke:#000000;stroke-width:1.9999;stroke-linecap:round;stroke-linejoin:round;stroke-miterlimit:10;" d="M11.444,34.324C10.971,34.917,10.487,35.48,10,36"/><path style="fill:none;stroke:#000000;stroke-width:1.9999;stroke-linecap:round;stroke-linejoin:round;stroke-miterlimit:10;" d="M34,37c1.659,0,0.833-1.843,5.983-3.961C45.688,30.693,49,33.343,49,30.721c0-1.785-2.879-4.679-8.583-4.679C35.892,26.042,32,29.574,32,34C32,36.74,33.19,37,34,37z"/><path style="fill:none;stroke:#000000;stroke-width:1.9999;stroke-linecap:round;stroke-linejoin:round;stroke-miterlimit:10;" d="M3.24,21.6c0,0-2.24,3.174-2.24,7.4s12.072,6,22.143,6c3.417,0,6.304-0.307,8.69-0.839"/><path style="fill:none;stroke:#000000;stroke-width:1.9999;stroke-linecap:round;stroke-linejoin:round;stroke-miterlimit:10;" d="M30.137,9.194C28.355,9.966,26.247,10.882,26,11c-1.641,0.788-0.539,2.359,1,2c1.276-0.297,3-2,3-2c2,5,5.351,19-6,19c-3.777,0-7.159,0.562-5-7c0,0-0.274-1.268-1.333-1.611"/><path style="fill:none;stroke:#000000;stroke-width:1.9999;stroke-linecap:round;stroke-linejoin:round;stroke-miterlimit:10;" d="M40.65,25.474C40.508,24.977,40.29,24.484,40,24c-1.396-2.28-4.97-6.745-6.644-12.658"/><path style="fill:none;stroke:#000000;stroke-width:1.9999;stroke-linecap:round;stroke-linejoin:round;stroke-miterlimit:10;" d="M37.51,8.825c0,1.412,0.127,2.556-2.345,2.556c-2.474,0-4.477-1.145-4.477-2.556c0-1.408,2.003-2.553,4.477-2.553C37.637,6.271,37.51,7.417,37.51,8.825z"/><path style="fill:none;stroke:#000000;stroke-width:2.0127;stroke-linecap:round;stroke-linejoin:round;stroke-miterlimit:10;" d="M1,20.373c0,1.021,3.958,1.636,8.912,1.636c4.955,0,9.088-0.614,9.088-1.636l0,0C19,19.354,18.206,18,17.224,18H2.776C1.794,18,1,19.354,1,20.373L1,20.373z"/><circle style="fill:none;stroke:#000000;stroke-width:2;stroke-linecap:round;stroke-linejoin:round;stroke-miterlimit:10;" cx="42" cy="36" r="3"/></svg>