<?xml version="1.0" encoding="utf-8"?><!-- Generator: Adobe Illustrator 15.0.0, SVG Export Plug-In . SVG Version: 6.00 Build 0)  --><!DOCTYPE svg PUBLIC "-//W3C//DTD SVG 1.1//EN" "http://www.w3.org/Graphics/SVG/1.1/DTD/svg11.dtd"><svg xmlns="http://www.w3.org/2000/svg" xmlns:xlink="http://www.w3.org/1999/xlink" viewBox="0 0 50 50" width="50px" height="50px"><polyline fill="none" stroke="#000000" stroke-width="2" stroke-linecap="round" stroke-linejoin="round" stroke-miterlimit="10" points="24,20 24,23 26,24 27,24 27,32 28,33 30,33 31,32 31,24 32,24 34,23 34,18 32,16 26,16 "/><circle cx="29" cy="20" r="1.5"/><path d="M28.168,15.476c-1.221-0.862-3.267-2.067-4.936-2.395c-1.066-0.209-2.262-0.248-3.1-0.248c-0.474,0-0.834,0.012-0.992,0.012c-0.392,0-2.6-0.325-3.049-1.908c0,0,0-0.001,0-0.002c-0.022-0.08-0.04-0.164-0.053-0.251C16.027,10.623,16,10.57,16,10.502c0-0.45,0-1.504,2.045-1.504l0.139-0.003c0.566,0.092,4.274,1.347,5.115,1.722c0.25,0.314,0.772,0.962,1.413,1.754c-0.099-0.036-0.197-0.064-0.296-0.098c1.881,0.628,3.737,1.869,4.329,2.287c0.544,0.384,0.963,0.898,1.256,1.479V16h3l0.815,0.816c0.286-0.807,0.233-1.718-0.158-2.407c-1.501-2.518-5.042-8.429-5.506-8.939C27.596,4.859,18.261,0,16.766,0c-0.567,0-1.545,0.403-4.425,1.649C9.257,2.983,4.596,5,2.863,5H1v12c0,0-0.265,0.044,0,0.044c2.265,0,3.464,0.855,4.853,1.844C7.242,19.878,8.817,21,11.463,21c1.727,0,4.012-0.358,5.849-0.646C18.473,20.172,19.57,20,20.044,20c1.346,0,5.458,0.889,6.33,0.978c0.121,0.012,0.238,0.018,0.354,0.018C29.679,20.996,30.407,17.056,28.168,15.476z"/><path d="M2,16c0,0.552-0.448,1-1,1l0,0c-0.552,0-1-0.448-1-1V6c0-0.552,0.448-1,1-1l0,0c0.552,0,1,0.448,1,1V16z"/><path d="M19.412,37.592c0.424-0.922,1.202-1.603,2.351-2.024c-2.271-0.891-5.868-2.225-7.056-2.225c-1.258,0-2.535,0.591-3.211,1.626c0.469,0.106,0.889,0.234,1.127,0.313L19.412,37.592z"/><path d="M49.388,36.464c-0.039-0.017-3.94-1.654-6.293-2.56c-4.262-1.637-6.422-0.739-8.923,0.296c-1.876,0.779-3.996,1.644-7.638,1.8c-0.37,0.019-0.75,0.032-1.16,0.032c-0.755,0-1.426,0.059-2.021,0.171c-0.011-0.004-0.026-0.011-0.037-0.015c-2.129,0.349-3.187,1.312-3.285,2.968c-0.119,2.027,1.633,2.936,5.194,2.936h5.588c2.53,0,6.039-1.048,6.187-1.092c0.005-0.001,0.008,0.002,0.013,0.001c0.051-0.018,0.103-0.032,0.159-0.032c0.276,0,0.5,0.224,0.5,0.5c0,0.233-0.162,0.42-0.378,0.476c-0.004,0.003-0.006,0.014-0.01,0.015c-0.389,0.115-3.876,1.133-6.471,1.133h-5.588c-2.678,0-4.379-0.48-5.353-1.514c-0.616-0.652-0.898-1.487-0.839-2.48c0.011-0.195,0.056-0.367,0.088-0.549l-6.822-2.321c-0.142-0.046-0.662-0.211-1.217-0.323c-0.136-0.028-0.274-0.051-0.409-0.069c-0.031-0.005-0.061-0.009-0.092-0.013c-0.139-0.017-0.274-0.028-0.398-0.028c-0.145,0-0.3,0.017-0.457,0.043c-0.116,0.02-0.234,0.051-0.353,0.086c-0.034,0.009-0.067,0.016-0.101,0.026c-0.149,0.049-0.299,0.107-0.447,0.178c0,0-0.001,0.001-0.002,0.001c-0.152,0.073-0.302,0.157-0.446,0.254C7.615,36.888,7,37.723,7,38.938c0,2.126,1.241,2.838,2.623,3.435C9.8,42.448,27.36,50,29.548,50c0.896,0,3.152-0.771,7.56-2.392c1.208-0.444,2.252-0.828,2.787-0.997c2.952-0.931,5.243,0.735,5.334,0.803c0.256,0.195,0.592,0.254,0.896,0.162c0.308-0.094,0.552-0.329,0.656-0.633l3.165-9.233C50.116,37.212,49.872,36.668,49.388,36.464z"/></svg>