<?xml version="1.0" encoding="iso-8859-1"?><!-- Generator: Adobe Illustrator 22.1.0, SVG Export Plug-In . SVG Version: 6.00 Build 0)  --><svg xmlns="http://www.w3.org/2000/svg" xmlns:xlink="http://www.w3.org/1999/xlink" viewBox="0 0 50 50" width="50px" height="50px"><g><path d="M15.5,49c-2.481,0-4.5-2.019-4.5-4.5s2.019-4.5,4.5-4.5s4.5,2.019,4.5,4.5S17.981,49,15.5,49z M15.5,42c-1.379,0-2.5,1.121-2.5,2.5s1.121,2.5,2.5,2.5s2.5-1.121,2.5-2.5S16.879,42,15.5,42z"/></g><g><path d="M34.5,49c-2.481,0-4.5-2.019-4.5-4.5s2.019-4.5,4.5-4.5s4.5,2.019,4.5,4.5S36.981,49,34.5,49z M34.5,42c-1.379,0-2.5,1.121-2.5,2.5s1.121,2.5,2.5,2.5s2.5-1.121,2.5-2.5S35.879,42,34.5,42z"/></g><g><path d="M41.917,46h-3.968c-0.291,0-0.567-0.127-0.757-0.347c-0.19-0.22-0.275-0.512-0.232-0.8C36.98,44.713,37,44.608,37,44.5c0-1.379-1.121-2.5-2.5-2.5S32,43.121,32,44.5c0,0.108,0.02,0.213,0.034,0.317c0.043,0.288-0.039,0.598-0.229,0.818C31.615,45.855,31.342,46,31.051,46H18.949c-0.291,0-0.567-0.127-0.757-0.347c-0.19-0.22-0.275-0.512-0.232-0.8C17.98,44.713,18,44.608,18,44.5c0-1.379-1.121-2.5-2.5-2.5S13,43.121,13,44.5c0,0.108,0.02,0.213,0.034,0.317c0.043,0.288-0.039,0.598-0.229,0.818C12.615,45.855,12.342,46,12.051,46H9.083C7.383,46,6,44.617,6,42.917V28.083C6,26.383,7.383,25,9.083,25h24.834c1.667,0,3.809,1.086,4.876,2.474l5.591,7.997l0,0C44.787,36.048,45,36.724,45,37.427v5.49C45,44.617,43.617,46,41.917,46z M38.973,44h2.944C42.514,44,43,43.514,43,42.917v-5.49c0-0.291-0.088-0.571-0.255-0.81l-5.564-7.961C36.526,27.807,34.958,27,33.917,27H9.083C8.486,27,8,27.486,8,28.083v14.834C8,43.514,8.486,44,9.083,44h1.944c0.25-2.247,2.16-4,4.473-4s4.223,1.753,4.473,4h10.055c0.25-2.247,2.16-4,4.473-4S38.723,41.753,38.973,44z"/></g><g><g><path d="M39,12c-2-2-4-3-8-3c-0.565,0-1.335,0-2.232,0c-2.07,0-4.839,0-7.482,0C16.97,9,13,9,13,9l-2-4H9c0,0,0,4,0,6c0,3.208,8.713,3.843,11.77,3.968L16,22h4.375l7.469-7H37h2C39,15,41,14,39,12z"/></g><g><polygon points="26.304,7 21.375,3 17,3 19.857,7 "/></g></g><g><path d="M43.565,36.044L38,28.083C37.167,27,35.333,26,33.917,26H9.083C7.933,26,7,26.933,7,28.083v14.833C7,44.067,7.933,45,9.083,45h2.967C12.027,44.835,12,44.671,12,44.5c0-1.933,1.567-3.5,3.5-3.5s3.5,1.567,3.5,3.5c0,0.171-0.027,0.335-0.05,0.5H31.05C31.027,44.835,31,44.671,31,44.5c0-1.933,1.567-3.5,3.5-3.5s3.5,1.567,3.5,3.5c0,0.171-0.027,0.335-0.05,0.5h3.967C43.067,45,44,44.067,44,42.917v-5.49C44,36.932,43.848,36.449,43.565,36.044z M34,35v-5h4.588L42,35H34z"/></g></svg>