<?xml version="1.0" encoding="iso-8859-1"?>
<!-- Generator: Adobe Illustrator 23.0.3, SVG Export Plug-In . SVG Version: 6.00 Build 0)  -->
<svg version="1.1" xmlns="http://www.w3.org/2000/svg" xmlns:xlink="http://www.w3.org/1999/xlink" x="0px" y="0px"
	 viewBox="0 0 50 50" style="enable-background:new 0 0 50 50;" xml:space="preserve">
<g id="fan_x5F_speed_x5F_filled">
</g>
<g id="fan_x5F_speed_x5F_outlined">
</g>
<g id="fresh_x5F_air_x5F_outlined">
</g>
<g id="fresh_x5F_air_x5F_filled">
</g>
<g id="air_x5F_recirculation_x5F_outlined">
</g>
<g id="air_x5F_recirculation_x5F_filled">
</g>
<g id="fuel_x5F_filter_x5F_warning_x5F_outlined">
</g>
<g id="fuel_x5F_filter_x5F_warning_x5F_filled">
</g>
<g id="air_x5F_suspension_x5F_warning_x5F_outlined">
</g>
<g id="air_x5F_suspension_x5F_warning_x5F_filled">
</g>
<g id="convertible_x5F_roof_x5F_warning_x5F_outlined">
</g>
<g id="convertible_x5F_roof_x5F_warning_x5F_filled">
	<path d="M45.66,22.53l-11.1-1.47l-5.53-8.03c-0.21-0.32-0.59-0.49-0.97-0.44c-0.34,0.05-0.64,0.27-0.78,0.59
		c-0.14,0.32-0.1,0.69,0.1,0.98L32.09,21H11.91l-0.1,0.03l-7.72,1.38C1.72,22.84,0,24.93,0,27.34V33c0,1.64,1.36,3,3,3h1.09
		c0.48,2.84,2.95,5,5.91,5s5.43-2.16,5.91-5h18.18c0.48,2.84,2.95,5,5.91,5s5.43-2.16,5.91-5H47c1.64,0,2.991-1.351,2.991-2.991
		L50,27.5C50,25,48.13,22.86,45.66,22.53z M10,39c-2.22,0-4-1.78-4-4c0-2.22,1.78-4,4-4s4,1.78,4,4C14,37.22,12.22,39,10,39z
		 M44,35.12C43.93,37.29,42.18,39,40,39c-2.22,0-4-1.78-4-4c0-2.22,1.78-4,4-4s4,1.78,4,4V35.12z"/>
	<path style="fill:none;stroke:#000000;stroke-width:2;stroke-linecap:round;stroke-miterlimit:10;" d="M11,22c0,0,0-8,12-8"/>
	<polyline points="17,5 17,8 22,4 17,0 17,3 	"/>
	<polyline points="4,14 1,14 5,19 9,14 6,14 	"/>
	<path d="M7.61,7.02l1.41,1.41C7.15,10.41,6,13.06,6,16H4C4,12.52,5.38,9.35,7.61,7.02z"/>
	<path d="M17,3v2c-2.43,0-4.66,0.78-6.48,2.11L9.1,5.69C11.29,4,14.04,3,17,3z"/>
</g>
<g id="hill_x5F_descent_x5F_control_x5F_outlined">
</g>
<g id="hill_x5F_descent_x5F_control_x5F_filled">
</g>
<g id="steering_x5F_lock_x5F_warning_x5F_outlined">
</g>
<g id="steering_x5F_lock_x5F_warning_x5F_filled">
</g>
<g id="hazard_x5F_warning_x5F_flasher_x5F_outlined">
</g>
<g id="hazard_x5F_warning_x5F_flasher_x5F_filled">
</g>
<g id="horn_x5F_outlined">
</g>
<g id="horn_x5F_filled">
</g>
</svg>