<?xml version="1.0" encoding="iso-8859-1"?>
<!-- Generator: Adobe Illustrator 26.4.1, SVG Export Plug-In . SVG Version: 6.00 Build 0)  -->
<svg version="1.1" baseProfile="basic" id="Layer_1"
	 xmlns="http://www.w3.org/2000/svg" xmlns:xlink="http://www.w3.org/1999/xlink" x="0px" y="0px" viewBox="0 0 50 50"
	 xml:space="preserve">
<polyline style="fill:none;stroke:#000000;stroke-width:2;stroke-linejoin:round;stroke-miterlimit:10;" points="0,24 12,24 
	12,28.196 20,20.598 12,13 12,17 0,17 "/>
<path d="M48.406,22.062h-0.031l-4.125-5.5v-0.031L44.219,16.5C43.297,15.387,41.914,14,40,14h-8c-0.355,0-0.684,0.074-1,0.188V9.906
	C31,8.371,29.789,7,28.188,7H2.844C1.285,7,0,8.285,0,9.844V17h2V9.844C2,9.375,2.367,9,2.844,9h25.344C28.617,9,29,9.414,29,9.906
	v26.25C29,36.625,28.629,37,28.156,37h-9.25c-0.477-2.836-2.941-5-5.906-5s-5.43,2.164-5.906,5H3c-0.375,0-1-0.629-1-1V24H0v12
	c0,1.66,1.34,3,3,3h4.094c0.477,2.836,2.941,5,5.906,5s5.43-2.164,5.906-5h9.25c0.738,0,1.398-0.312,1.906-0.781
	C30.582,38.676,31.246,38.992,32,39h1.094c0.477,2.836,2.941,5,5.906,5c3.301,0,6-2.699,6-6s-2.699-6-6-6
	c-2.965,0-5.43,2.164-5.906,5H32c-0.188,0-0.473-0.129-0.688-0.344S31,36.184,31,36V17c0-0.375,0.625-1,1-1h8
	c0.785,0,1.891,0.84,2.656,1.75c0.008,0.012,0.023,0.02,0.031,0.031L42.844,18H38c-1.594,0-3,1.289-3,3v4
	c0,0.832,0.375,1.562,0.906,2.094S37.168,28,38,28h10v8c0,0.375-0.625,1-1,1h-2v1v1h2c1.66,0,3-1.34,3-3v-9.625
	C50,24.086,48.406,22.062,48.406,22.062z M13,42c-2.223,0-4-1.777-4-4s1.777-4,4-4s4,1.777,4,4S15.223,42,13,42z M39,34
	c2.223,0,4,1.777,4,4s-1.777,4-4,4s-4-1.777-4-4S36.777,34,39,34z M38,26c-0.168,0-0.438-0.125-0.656-0.344S37,25.168,37,25v-4
	c0-0.504,0.594-1,1-1h6.344l2.438,3.25c0,0,0.906,1.551,1.094,2.75H38z"/>
</svg>