<?xml version="1.0" encoding="utf-8"?><!-- Generator: Adobe Illustrator 15.0.0, SVG Export Plug-In . SVG Version: 6.00 Build 0)  --><!DOCTYPE svg PUBLIC "-//W3C//DTD SVG 1.1//EN" "http://www.w3.org/Graphics/SVG/1.1/DTD/svg11.dtd"><svg xmlns="http://www.w3.org/2000/svg" xmlns:xlink="http://www.w3.org/1999/xlink" viewBox="0 0 50 50" width="50px" height="50px"><path fill="none" stroke="#000000" stroke-width="2" stroke-linecap="round" stroke-linejoin="round" stroke-miterlimit="10" d="M49,46.654C48.506,46.857,47.909,47,47.154,47c-1.538,0-3.902-0.491-5.539-2c-1.637,1.509-4,2-5.538,2s-3.901-0.491-5.539-2c-1.638,1.509-4,2-5.538,2s-3.901-0.491-5.539-2c-1.637,1.509-4,2-5.538,2s-3.901-0.491-5.538-2c-1.637,1.509-4.001,2-5.539,2C2.155,47,1.555,46.927,1,46.827"/><path fill="none" stroke="#000000" stroke-width="2" stroke-linecap="round" stroke-linejoin="round" stroke-miterlimit="10" d="M49,42.654C48.506,42.857,47.909,43,47.154,43c-1.538,0-3.902-0.491-5.539-2c-1.637,1.509-4,2-5.538,2s-3.901-0.491-5.539-2c-1.638,1.509-4,2-5.538,2s-3.901-0.491-5.539-2c-1.637,1.509-4,2-5.538,2s-3.901-0.491-5.538-2c-1.637,1.509-4.001,2-5.539,2C2.155,43,1.555,42.927,1,42.827"/><path d="M35.381,31c-0.265,0-0.523-0.105-0.715-0.301c-0.26-0.266-0.352-0.654-0.236-1.008l0,0c0.079-0.247,1.874-6.145-3.539-13.596c-0.265-0.363-0.254-0.857,0.025-1.209c0.279-0.352,0.762-0.472,1.171-0.301C37.086,16.69,42.923,21.465,42.923,28c0,0.439-0.287,0.828-0.708,0.956l-6.542,2C35.577,30.985,35.479,31,35.381,31z"/><path d="M31.111,31H15c-0.351,0-0.675-0.184-0.856-0.483c-0.181-0.3-0.191-0.673-0.028-0.983c0.031-0.059,3.183-6.284,0.91-16.312c-0.067-0.297,0.004-0.608,0.194-0.845C15.408,12.138,15.696,12,16,12c5.896,0,11.191,2.331,14.165,6.235c2.511,3.295,3.171,7.455,1.91,12.031C31.956,30.699,31.562,31,31.111,31z"/><path fill="none" stroke="#000000" stroke-width="2" stroke-linecap="round" stroke-linejoin="round" stroke-miterlimit="10" d="M16,9c4.431-2.674,4.788,1.696,8,0"/><path d="M6.35,38.795C6.906,38.282,7.628,38,8.385,38s1.479,0.282,2.033,0.794C11.317,39.623,12.865,40,13.923,40s2.606-0.377,3.503-1.205C17.982,38.282,18.705,38,19.461,38c0.756,0,1.479,0.282,2.032,0.794C22.393,39.622,23.942,40,25,40c1.058,0,2.605-0.378,3.504-1.205C29.06,38.282,29.782,38,30.538,38s1.479,0.282,2.033,0.794C33.471,39.622,35.019,40,36.077,40c1.058,0,2.606-0.377,3.504-1.205C40.137,38.282,40.859,38,41.615,38s1.479,0.282,2.033,0.794c0.033,0.03,0.073,0.057,0.108,0.086c0.925-1.481,1.766-3.356,2.225-5.687c0.058-0.294-0.02-0.598-0.209-0.828C45.582,32.134,45.299,32,45,32H5c-0.552,0-1,0.447-1,1c0,2.622,0.773,4.652,1.785,6.205C5.989,39.082,6.184,38.948,6.35,38.795z"/></svg>