<?xml version="1.0" encoding="iso-8859-1"?>
<!-- Generator: Adobe Illustrator 18.0.0, SVG Export Plug-In . SVG Version: 6.00 Build 0)  -->
<!DOCTYPE svg PUBLIC "-//W3C//DTD SVG 1.1//EN" "http://www.w3.org/Graphics/SVG/1.1/DTD/svg11.dtd">
<svg version="1.1" id="Layer_1" xmlns="http://www.w3.org/2000/svg" xmlns:xlink="http://www.w3.org/1999/xlink" x="0px" y="0px"
	 width="50px" height="50px" viewBox="0 0 50 50" style="enable-background:new 0 0 50 50;" xml:space="preserve">
<path d="M8,48l-5-4l5-4V48z"/>
<line style="fill:none;stroke:#000000;stroke-width:2;stroke-miterlimit:10;" x1="5.706" y1="44" x2="43.335" y2="44"/>
<path d="M42,48l5-4l-5-4V48z"/>
<path d="M45,15l-3-2.25V4H8v8.75L5.001,15C3.748,15.939,3,17.435,3,19v14c0,1.654,1.346,3,3,3h4c1.654,0,3-1.346,3-3v-3h24v3
	c0,1.654,1.346,3,3,3h4c1.654,0,3-1.346,3-3V19C47,17.435,46.253,15.94,45,15z M15,21c0,1.105-0.895,2-2,2H9c-1.105,0-2-0.895-2-2
	v-1c0-1.105,0.895-2,2-2h4c1.105,0,2,0.895,2,2V21z M32,21c0,1.105-0.895,2-2,2H20c-1.105,0-2-0.895-2-2v-4c0-1.105,0.895-2,2-2h10
	c1.105,0,2,0.895,2,2V21z M43,21c0,1.105-0.895,2-2,2h-4c-1.105,0-2-0.895-2-2v-1c0-1.105,0.895-2,2-2h4c1.105,0,2,0.895,2,2V21z"/>
</svg>