<?xml version="1.0" encoding="utf-8"?><!-- Generator: Adobe Illustrator 15.0.0, SVG Export Plug-In . SVG Version: 6.00 Build 0)  --><!DOCTYPE svg PUBLIC "-//W3C//DTD SVG 1.1//EN" "http://www.w3.org/Graphics/SVG/1.1/DTD/svg11.dtd"><svg xmlns="http://www.w3.org/2000/svg" xmlns:xlink="http://www.w3.org/1999/xlink" viewBox="0 0 50 50" width="50px" height="50px"><circle fill="none" stroke="#000000" stroke-width="2" stroke-miterlimit="10" cx="13" cy="41" r="5"/><circle fill="none" stroke="#000000" stroke-width="2" stroke-miterlimit="10" cx="39" cy="41" r="5"/><line fill="none" stroke="#000000" stroke-width="2" stroke-miterlimit="10" x1="18" y1="41" x2="34" y2="41"/><polygon fill="none" stroke="#000000" stroke-width="2" stroke-linecap="round" stroke-linejoin="round" stroke-miterlimit="10" points="42,6.8 1,25 2.3,19.4 37,4 "/><polyline fill="none" stroke="#000000" stroke-linecap="round" stroke-linejoin="round" stroke-miterlimit="10" points="3.3,18.9 9.4,21.3 11.7,15.2 17.8,17.5 20.2,11.5 26.2,13.8 28.6,7.7 34.6,10.1 37,4 "/><path d="M49.866,29H40c-0.6,0-1-0.4-1-1v-5c0-0.6,0.4-1,1-1h7.507l-0.57-1.651C46.186,18.346,44.282,17,42.2,17H25c-1.654,0-3,1.346-3,3v8H3c-1.654,0-3,1.346-3,3v8c0,1.654,1.346,3,3,3h5.101C8.035,41.677,8,41.343,8,41c0-2.762,2.239-5,5-5s5,2.238,5,5c0,0.343-0.035,0.677-0.101,1h16.201C34.035,41.677,34,41.343,34,41c0-2.762,2.238-5,5-5s5,2.238,5,5c0,0.343-0.035,0.677-0.101,1H47c1.654,0,3-1.346,3-3v-8.9C50,29.688,49.94,29.339,49.866,29z M35,28c0,0.6-0.4,1-1,1h-6c-0.6,0-1-0.4-1-1v-5c0-0.6,0.4-1,1-1h6c0.6,0,1,0.4,1,1V28z"/><path fill="none" stroke="#000000" stroke-width="2" stroke-miterlimit="10" d="M49,30.1c0-0.5-0.1-0.899-0.2-1.3L46,20.7c-0.6-1.6-2.1-2.7-3.8-2.7"/><path d="M14,26v-6.1c0-0.332-0.165-0.642-0.439-0.828s-0.623-0.224-0.932-0.101l-6,2.4C6.249,21.523,6,21.891,6,22.3V26H14z"/></svg>