<?xml version="1.0" encoding="iso-8859-1"?><!-- Generator: Adobe Illustrator 21.0.0, SVG Export Plug-In . SVG Version: 6.00 Build 0)  --><svg xmlns="http://www.w3.org/2000/svg" xmlns:xlink="http://www.w3.org/1999/xlink" viewBox="0 0 50 50" width="500px" height="500px"><path style="fill:none;stroke:#000000;stroke-width:2;stroke-linecap:round;stroke-linejoin:round;stroke-miterlimit:10;" d="M24.746,3C33.442,3,41,10.019,41,18.678c0,2.165-0.434,4.23-1.237,6.103C37.952,29,25,47,25,47S12.048,29,10.237,24.781C9.434,22.908,9,20.843,9,18.678C9,10.019,16.05,3,24.746,3"/><path d="M31.289,11c-0.178,0-0.336,0.088-0.432,0.222L26.94,17.1l-2.086-1.953c0,0-0.001-0.001-0.001-0.001l-0.003-0.003l-0.001,0C24.759,15.055,24.636,15,24.5,15c-0.218,0-0.398,0.141-0.467,0.335l-0.006,0.001l-4.753,11.964l0.004,0.002c-0.021,0.056-0.036,0.115-0.036,0.179c0,0.286,0.232,0.518,0.518,0.518c0.163,0,0.302-0.08,0.398-0.198l0.005,0.003L25,22l2.31,1.881l0.007-0.002c0.087,0.073,0.195,0.123,0.318,0.123c0.219,0,0.4-0.143,0.468-0.339l0.007-0.002l3.686-11.974c0.016-0.05,0.024-0.103,0.024-0.157C31.819,11.237,31.582,11,31.289,11z"/></svg>