<?xml version="1.0" encoding="iso-8859-1"?><!-- Generator: Adobe Illustrator 21.0.2, SVG Export Plug-In . SVG Version: 6.00 Build 0)  --><svg xmlns="http://www.w3.org/2000/svg" xmlns:xlink="http://www.w3.org/1999/xlink" viewBox="0 0 50 50" width="50px" height="50px"><g><path d="M23.955,9.291c-1.088-0.85-3.348,0.224-5.049,2.399l-5.312,6.872l3.781,2.969l5.469-6.761C24.545,12.595,25.043,10.142,23.955,9.291z"/></g><circle cx="34.5" cy="7.5" r="4.5"/><g><path d="M7.744,27.703L7.744,27.703c-0.433-0.338-0.511-0.963-0.176-1.398l4.499-5.841c0.339-0.44,0.971-0.519,1.408-0.178l0,0c0.433,0.338,0.511,0.962,0.176,1.398l-4.499,5.842C8.814,27.966,8.181,28.045,7.744,27.703z"/></g><g><path d="M10.526,29.859L10.526,29.859c-0.435-0.34-0.512-0.969-0.172-1.404l3.08-3.939c0.34-0.435,0.969-0.512,1.404-0.172l0,0c0.435,0.34,0.512,0.968,0.172,1.403l-3.08,3.939C11.589,30.123,10.961,30.2,10.526,29.859z"/></g><g><path d="M27.163,20.989l7.334,1.346c0.992,0.182,1.649,1.134,1.467,2.126l0,0c-0.182,0.992-1.134,1.649-2.126,1.467l-7.334-1.346c-0.992-0.182-1.649-1.134-1.467-2.126v0C25.218,21.464,26.17,20.807,27.163,20.989z"/></g><path d="M27.511,26.801l-1.369-0.251c-2.075-0.381-3.454-2.379-3.073-4.455c0.127-0.69,0.435-1.307,0.868-1.809l2.918-3.905c0.331-0.442,0.956-0.532,1.399-0.203c0.442,0.331,0.533,0.958,0.202,1.4l-1.07,1.432c0.005,0.001,0.01,0.001,0.015,0.001c0,0-0.966,1.284-1.553,2.057l-0.319,0.426c-0.005,0.006-0.012,0.008-0.016,0.014c-0.047,0.061-0.083,0.108-0.097,0.125c-0.188,0.23-0.323,0.509-0.38,0.822c-0.182,0.992,0.475,1.944,1.467,2.127L27.8,24.82l4.273-6.296c0.176-0.214,0.336-0.441,0.466-0.687l0.002-0.003l-0.002,0.003c0.456-0.858,0.61-1.896,0.293-2.992c-0.392-1.354-1.529-2.422-2.902-2.738c-1.651-0.379-3.159,0.284-4.066,1.439l-0.009-0.007l-5.899,7.819c-1.439,1.907-1.364,4.557,0.182,6.38l5.828,6.872l-5.394,7.102c-0.873,1.149-0.795,2.833,0.307,3.765c1.175,0.994,2.927,0.789,3.846-0.421l6.902-9.25c0.611-0.795,0.581-1.909-0.071-2.67L27.511,26.801z"/></svg>