<?xml version="1.0" encoding="iso-8859-1"?><!-- Generator: Adobe Illustrator 19.1.1, SVG Export Plug-In . SVG Version: 6.00 Build 0)  --><svg xmlns="http://www.w3.org/2000/svg" xmlns:xlink="http://www.w3.org/1999/xlink" viewBox="0 0 50 50" width="50px" height="50px"><path style="fill:none;stroke:#000000;stroke-width:2;stroke-miterlimit:10;" d="M33,41l-7.414-7.683c-0.742-0.742-0.784-1.931-0.097-2.724l13.105-14.999c0.687-0.793,0.645-1.982-0.097-2.724l-3.683-3.683"/><circle cx="29" cy="13" r="1"/><circle cx="26" cy="18" r="1"/><circle cx="31" cy="15" r="1"/><circle cx="25" cy="15" r="1"/><circle cx="28" cy="16" r="1"/><circle cx="30" cy="18" r="1"/><path d="M46.473,31.812l-2.74-4.795C43.022,25.772,41.692,25,40.259,25H36c-1.654,0-3,1.346-3,3v1.95V30v10h-1.238C31.282,40.716,31,41.575,31,42.5c0,2.481,2.019,4.5,4.5,4.5c2.31,0,4.197-1.756,4.449-4H44c1.654,0,3-1.346,3-3v-6.203C47,33.103,46.817,32.417,46.473,31.812z M39,27h1.259c0.718,0,1.381,0.385,1.736,1.008L44.846,33L45,34h-5c-0.552,0-1-0.448-1-1V27z M35.5,45c-1.379,0-2.5-1.122-2.5-2.5s1.121-2.5,2.5-2.5s2.5,1.122,2.5,2.5S36.879,45,35.5,45z"/><g><path d="M45.555,22.168l-3-2C42.391,20.059,42.197,20,42,20h-3.272l-1.748,2h4.717l2.748,1.832C44.616,23.946,44.809,24,44.999,24c0.323,0,0.641-0.156,0.833-0.445C46.139,23.095,46.015,22.474,45.555,22.168z"/></g><g><circle style="fill:none;stroke:#000000;stroke-width:2;stroke-miterlimit:10;" cx="11.5" cy="42.5" r="3.5"/></g><path d="M28.802,41l-5.351-5.576c-1.838-1.837-1.939-4.822-0.224-6.802L30.76,20H15.266L9.899,40.116L7.971,39.58L13.191,20H9c-0.363,0-0.698,0.197-0.874,0.514l-5,9c-0.115,0.208-0.153,0.449-0.106,0.682l2,10C5.113,40.664,5.523,41,6,41h1.276C7.108,41.471,7,41.971,7,42.5c0,2.481,2.019,4.5,4.5,4.5c1.421,0,2.675-0.675,3.5-1.706C15.825,46.325,17.079,47,18.5,47c2.481,0,4.5-2.019,4.5-4.5c0-0.529-0.108-1.029-0.276-1.5H28.802z M11.5,45C10.121,45,9,43.878,9,42.5s1.121-2.5,2.5-2.5s2.5,1.122,2.5,2.5S12.879,45,11.5,45z M18.5,45c-1.379,0-2.5-1.122-2.5-2.5s1.121-2.5,2.5-2.5s2.5,1.122,2.5,2.5S19.879,45,18.5,45z"/><polygon points="31,25 31,38 25,32 "/><polygon points="35.521,8.479 36.935,7.065 40.315,10.445 43.368,6.955 38.046,1.631 28.537,9.951 35.049,16.463 38.995,11.953 "/></svg>