<?xml version="1.0" encoding="iso-8859-1"?>
<!-- Generator: Adobe Illustrator 18.0.0, SVG Export Plug-In . SVG Version: 6.00 Build 0)  -->
<!DOCTYPE svg PUBLIC "-//W3C//DTD SVG 1.1//EN" "http://www.w3.org/Graphics/SVG/1.1/DTD/svg11.dtd">
<svg version="1.1" id="Layer_1" xmlns="http://www.w3.org/2000/svg" xmlns:xlink="http://www.w3.org/1999/xlink" x="0px" y="0px"
	 width="50px" height="50px" viewBox="0 0 50 50" style="enable-background:new 0 0 50 50;" xml:space="preserve">
<g>
	<path style="fill:none;stroke:#000000;stroke-width:2;stroke-linecap:round;stroke-miterlimit:10;" d="M45,34c0,2.762-2.238,5-5,5
		c-2.762,0-5-2.238-5-5"/>
</g>
<g>
	<path style="fill:none;stroke:#000000;stroke-width:2;stroke-linecap:round;stroke-miterlimit:10;" d="M15,34c0,2.762-2.238,5-5,5
		c-2.762,0-5-2.238-5-5"/>
</g>
<path style="fill:none;stroke:#000000;stroke-width:2;stroke-miterlimit:10;" d="M45,34h2c1.105,0,2-0.895,2-2v-5.611
	c0-1.955-1.414-3.624-3.342-3.946L37,21l-4.8-6.4C31.445,13.593,30.259,13,29,13H15.217c-1.379,0-2.661,0.71-3.392,1.88L8,21
	l-3.566,0.509C2.464,21.791,1,23.479,1,25.469V32c0,1.105,0.895,2,2,2h2"/>
<path style="fill:none;stroke:#000000;stroke-width:2;stroke-linecap:round;stroke-miterlimit:10;" d="M8.553,20.094L6.19,17.376
	C4.884,15.874,2.672,15.56,1,16.641"/>
<line style="fill:none;stroke:#000000;stroke-width:2;stroke-miterlimit:10;" x1="15" y1="34" x2="35" y2="34"/>
</svg>