<?xml version="1.0" encoding="utf-8"?><!-- Generator: Adobe Illustrator 18.1.1, SVG Export Plug-In . SVG Version: 6.00 Build 0)  --><svg xmlns="http://www.w3.org/2000/svg" xmlns:xlink="http://www.w3.org/1999/xlink" viewBox="0 0 50 50" width="50px" height="50px"><path fill="none" stroke="#000000" stroke-width="2" stroke-linecap="round" stroke-linejoin="round" stroke-miterlimit="10" d="M26,11c2-2,5-2,5-2s0.7,1.3,0.9,2.3"/><g><g><g><path d="M35.4,19.5c-1-2.3-2.4-8.3-2.5-8.4c-0.1-0.5-0.6-0.8-1.1-0.8c-0.5,0.1-0.9,0.6-0.8,1.1c0,0.4-0.2,1.3-0.8,2C29.8,13.8,29.4,14,29,14c-6.1,0-7.3,2.9-7.9,4.4c-0.1,0.2-0.2,0.4-0.2,0.6c-3.2,0-5.6-0.9-6-1.5C13.5,15.1,12.4,15,8,15c-6.9,0-7.9,3.4-8,3.8c-0.1,0.3,0,0.6,0.2,0.9C0.3,19.8,1.5,21,3.9,21c0.2,0,0.3,0,0.5,0c1.4-0.6,2.9-1,4.5-1c6.1,0,11,4.9,11,11c0,0.8-0.1,1.6-0.3,2.4c1.8,0.5,3.8,0.6,4.7,0.6h0.2c1.8,0,4.4-0.5,5.5-1.6c0.5-0.5,0.6-1,0.6-1.5c-1.1-7.6,4-10,4.2-10.1C35.4,20.6,35.6,20,35.4,19.5z"/><g><path d="M41,15.3c0-0.8,0-1.8-0.7-2.5c-0.6-0.5-1.4-0.8-2.7-0.8c-0.8,0-1.6,0.1-2.3,0.3c0.6,2.2,1.4,5.1,1.9,6.4c0,0.1,0.1,0.2,0.1,0.3c0.1,0,0.2,0,0.3,0c1.3,0,2.1-0.3,2.7-0.8c0.7-0.7,0.7-1.7,0.7-2.5v-0.2V15.3z"/></g></g></g><path d="M9,28c-1.7,0-3,1.3-3,3s1.3,3,3,3s3-1.3,3-3S10.7,28,9,28z"/></g><g><path d="M9,36c-2.8,0-5-2.2-5-5s2.2-5,5-5c2.4,0,4.4,1.7,4.9,4h4c-0.5-4.5-4.3-8-8.9-8c-5,0-9,4-9,9s4,9,9,9c4.6,0,8.4-3.5,8.9-8h-4C13.4,34.3,11.4,36,9,36z"/></g><g><path d="M37.4,27.5c1.2,2,2.6,3.8,3.9,5.2c0.2,0.2,0.5,0.3,0.7,0.3s0.5-0.1,0.7-0.3c0.4-0.4,0.4-1,0-1.4c-1.2-1.3-2.5-3-3.7-4.9C38.4,26.7,37.9,27,37.4,27.5z"/><path d="M34.7,17.3c-0.2-0.5-0.7-0.8-1.3-0.6c-0.5,0.2-0.8,0.7-0.6,1.3c0.7,1.9,1.6,4,2.6,6c0.5-0.4,1.1-0.8,1.7-1.1C36.2,21.1,35.3,19.2,34.7,17.3z"/><path d="M41,22c-1.4,0-2.7,0.3-3.9,0.9c0.6,1.2,1.3,2.4,2,3.5c0.6-0.2,1.2-0.4,1.9-0.4c2.8,0,5,2.2,5,5s-2.2,5-5,5s-5-2.2-5-5c0-1.4,0.5-2.6,1.4-3.5c-0.7-1.1-1.4-2.3-2-3.6c-2.1,1.6-3.4,4.2-3.4,7c0,5,4,9,9,9s9-4,9-9S46,22,41,22z"/></g><path d="M8,31c0,0.6,0.4,1,1,1h4.9c0.1-0.3,0.1-0.7,0.1-1s0-0.7-0.1-1H9C8.4,30,8,30.4,8,31z"/></svg>