<?xml version="1.0" encoding="iso-8859-1"?><!-- Generator: Adobe Illustrator 19.1.1, SVG Export Plug-In . SVG Version: 6.00 Build 0)  --><svg xmlns="http://www.w3.org/2000/svg" xmlns:xlink="http://www.w3.org/1999/xlink" viewBox="0 0 50 50" width="50px" height="50px"><circle style="fill:none;stroke:#000000;stroke-width:2;stroke-miterlimit:10;" cx="39" cy="33" r="6"/><path d="M39,36c-1.654,0-3-1.346-3-3s1.346-3,3-3s3,1.346,3,3S40.654,36,39,36z"/><circle style="fill:none;stroke:#000000;stroke-width:2;stroke-miterlimit:10;" cx="9" cy="33" r="6"/><path d="M9,36c-1.654,0-3-1.346-3-3s1.346-3,3-3s3,1.346,3,3S10.654,36,9,36z"/><line style="fill:none;stroke:#000000;stroke-width:2;stroke-linecap:round;stroke-linejoin:round;stroke-miterlimit:10;" x1="38" y1="19" x2="38" y2="27"/><polyline style="fill:none;stroke:#000000;stroke-width:2;stroke-linecap:round;stroke-linejoin:round;stroke-miterlimit:10;" points="16,15 19,11 23,11 "/><line style="fill:none;stroke:#000000;stroke-width:2;stroke-miterlimit:10;" x1="40" y1="23" x2="47" y2="23"/><line style="fill:none;stroke:#000000;stroke-width:2;stroke-linecap:round;stroke-linejoin:round;stroke-miterlimit:10;" x1="9" y1="27" x2="15" y2="22"/><g><path d="M27.292,24.957C27.197,24.985,27.099,25,27,25c-2.429,0-3.894-2.764-5.444-5.689C20.237,16.821,18.741,14,17,14h-1c-7.501,0-14.425,7.003-14.716,7.301c-0.035,0.036-0.05,0.082-0.078,0.121c-0.046,0.064-0.097,0.124-0.127,0.196c-0.025,0.061-0.03,0.126-0.042,0.19c-0.013,0.062-0.033,0.121-0.034,0.186c0,0.079,0.023,0.156,0.041,0.233c0.011,0.047,0.007,0.093,0.025,0.139c0.001,0.004,0.005,0.006,0.006,0.01c0.024,0.059,0.069,0.107,0.105,0.161c0.038,0.058,0.068,0.122,0.116,0.17c0.003,0.003,0.003,0.006,0.006,0.009c0.034,0.034,0.078,0.048,0.116,0.075c0.065,0.048,0.127,0.099,0.201,0.13c0.064,0.027,0.132,0.031,0.199,0.044c0.059,0.011,0.114,0.032,0.175,0.032c0.086,0.001,0.169-0.023,0.252-0.045c0.04-0.01,0.081-0.006,0.121-0.021c4.144-1.631,9.668-1.884,11.216-1.923c0.761,0.866,3.101,4.019,4.252,10.993H15c-0.553,0-1,0.448-1,1s0.447,1,1,1h12.417c1.355,0,2.539-0.876,2.945-2.18c1.007-3.234,2.719-6.827,3.721-8.812C33.54,23.142,31.638,23.631,27.292,24.957z"/><path d="M48,16c-6.128,0-12.398,0.888-16.548,1.476C29.384,17.769,27.749,18,27,18c-0.821,0-2.179-0.789-3.724-2.164c-0.68-0.604-1.455-1.068-2.282-1.379c0.854,1.136,1.597,2.536,2.329,3.917c1.111,2.096,2.365,4.463,3.555,4.618c5.174-1.575,6.834-1.952,6.903-1.967C34.052,20.951,41.416,19,48,19c0.002,0,0.003,0.001,0.005,0.001c0.005,0,0.011-0.001,0.016-0.001C48.564,18.988,49,18.544,49,18v-1C49,16.448,48.553,16,48,16z"/></g></svg>