<?xml version="1.0" encoding="iso-8859-1"?><!-- Generator: Adobe Illustrator 19.2.0, SVG Export Plug-In . SVG Version: 6.00 Build 0)  --><svg xmlns="http://www.w3.org/2000/svg" xmlns:xlink="http://www.w3.org/1999/xlink" viewBox="0 0 50 50" width="50px" height="50px"><polygon points="3,32.781 3,27 11,27 11,30.781 "/><polygon points="3,17.219 3,23 11,23 11,19.219 "/><path d="M36.586,18H31h-1.545h-1.315H20v-2h7.612l-8.314-9.866C18.158,4.781,16.479,4,14.71,4H8v12.25l5,1.25V18v7v7v0.5l-5,1.25V46h6.71c1.769,0,3.448-0.781,4.588-2.134L27.612,34H20v-2h8.139h1.315H31h5.586c5.746,0,9.684-5.787,10.414-7C46.269,23.787,42.332,18,36.586,18z M15,42h-2v-6h2V42z M37,28c-0.353,0-0.583,0-1,0v-6c0.375,0,0.647,0,1,0c1.657,0,3,1.343,3,3S38.657,28,37,28z"/></svg>