<?xml version="1.0" encoding="iso-8859-1"?><!-- Generator: Adobe Illustrator 19.1.0, SVG Export Plug-In . SVG Version: 6.00 Build 0)  --><svg xmlns="http://www.w3.org/2000/svg" xmlns:xlink="http://www.w3.org/1999/xlink" viewBox="0 0 50 50" width="500px" height="500px"><g><circle style="fill:none;stroke:#000000;stroke-width:2;stroke-miterlimit:10;" cx="13" cy="37" r="5"/></g><g><circle style="fill:none;stroke:#000000;stroke-width:2;stroke-miterlimit:10;" cx="39" cy="37" r="5"/></g><path style="fill:none;stroke:#000000;stroke-width:2;stroke-miterlimit:10;" d="M44,37h3c1.1,0,2-0.9,2-2v-9.615c0-1.749-1.414-3.729-1.414-3.729l-4.125-5.503C42.618,15.137,41.355,14,40,14h-8c-1.1,0-2,0.9-2,2v21h4 M49,26c0,0-10,0-11,0s-2-1-2-2c0-0.577,0-2.488,0-4c0-1.107,1-2,2-2s6.846,0,6.846,0"/><path style="fill:none;stroke:#000000;stroke-width:2;stroke-miterlimit:10;" d="M18,37h12v-8H1v6.005C1,36.102,1.898,37,2.995,37H8"/><polygon style="fill:none;stroke:#000000;stroke-width:2;stroke-linejoin:round;stroke-miterlimit:10;" points="5,5 4,6 18,23 18,29 26,29 26,23 "/><path style="fill:none;stroke:#000000;stroke-width:2;stroke-linejoin:round;stroke-miterlimit:10;" d="M5,7v12h0c1.105,0,2,0.895,2,2v0c0,1.105-0.895,2-2,2h0c-1.105,0-2-0.895-2-2v0"/></svg>