<?xml version="1.0" encoding="iso-8859-1"?><!-- Generator: Adobe Illustrator 19.2.0, SVG Export Plug-In . SVG Version: 6.00 Build 0)  --><svg xmlns="http://www.w3.org/2000/svg" xmlns:xlink="http://www.w3.org/1999/xlink" viewBox="0 0 50 50" width="500px" height="500px"><g><path d="M37,29h-2v-8h2c2.206,0,4,1.794,4,4S39.206,29,37,29z M37,23v4c1.103,0,2-0.897,2-2S38.103,23,37,23z"/></g><g><rect x="13" y="36" width="2" height="6"/></g><path d="M36.586,17c-1.034,0-3.873,0-7.131,0L19.8,5.201C18.661,3.808,16.956,3,15.157,3H8v13.188L5.485,15.56L3,14.938V17.5V21v2h2h6v1v3H5H3v2v3.5v2.562l2.485-0.621L8,33.812V47h7.157c1.8,0,3.504-0.808,4.644-2.201L29.455,33c2.821,0,5.445,0,7.131,0C43.669,33,48,25,48,25S43.628,17,36.586,17z M5,21v-3.5l3,0.75L11,19v2H5z M5,32.5V29h6v2l-3,0.75L5,32.5z M36.586,31h-7.131H29h-0.493H18v2h8.87l-8.618,10.533C17.49,44.465,16.361,45,15.157,45H10V33.312l1.485-0.371L13,32.562V31v-2v-2v-3v-1v-2v-2v-1.562l-1.515-0.379L10,16.688V5h5.157c1.205,0,2.333,0.535,3.096,1.467L26.87,17H18v2h10.507H29h0.455h7.131c4.435,0,7.754,4.102,9.056,6.008C44.354,26.915,41.073,31,36.586,31z"/></svg>