<?xml version="1.0" encoding="iso-8859-1"?>
<!-- Generator: Adobe Illustrator 22.1.0, SVG Export Plug-In . SVG Version: 6.00 Build 0)  -->
<svg version="1.1" id="Layer_1" xmlns="http://www.w3.org/2000/svg" xmlns:xlink="http://www.w3.org/1999/xlink" x="0px" y="0px"
	 viewBox="0 0 50 50" style="enable-background:new 0 0 50 50;" xml:space="preserve">
<line style="fill:none;stroke:#000000;stroke-width:2;stroke-miterlimit:10;" x1="1" y1="41" x2="11" y2="41"/>
<path style="fill:none;stroke:#000000;stroke-width:2;stroke-miterlimit:10;" d="M1,12h4.017c1.634,0,3.165,0.798,4.1,2.138L16,24H1
	"/>
<circle style="fill:none;stroke:#000000;stroke-width:2;stroke-miterlimit:10;" cx="17.5" cy="40.5" r="6.5"/>
<path style="fill:none;stroke:#000000;stroke-width:2;stroke-linejoin:round;stroke-miterlimit:10;" d="M46.811,23.371l-6.472-3.983
	c-0.094-0.059-0.191-0.112-0.291-0.158c-0.073-0.034-0.148-0.064-0.224-0.09c-0.001,0-0.001,0-0.001,0
	c-0.504-0.175-1.063-0.191-1.601-0.016l-6.087,1.923l-2.177-4.974l4.527-1.132c0.515-0.129,0.957-0.457,1.229-0.912l3-5
	c0.568-0.947,0.262-2.175-0.686-2.744s-2.177-0.261-2.744,0.686l-2.574,4.29l-7.585,1.84c-0.247,0.055-0.492,0.131-0.733,0.236
	c-2.023,0.886-2.945,3.245-2.06,5.268l3.514,8.103c0.394,0.901,1.087,1.571,1.902,1.98c2.081,1.044,8.275,4.144,8.275,4.144
	l2.142,5.566C38.549,39.391,39.496,40,40.501,40c0.298,0,0.602-0.054,0.896-0.167c1.289-0.496,1.932-1.942,1.436-3.231l-2.493-6.484
	c-0.198-0.524-0.571-0.985-1.094-1.285l0,0h-0.001c-0.012-0.006-0.023-0.013-0.035-0.02l-4.8-2.667l4.376-1.842l5.404,3.326
	c0.409,0.25,0.861,0.37,1.308,0.37c0.839,0,1.659-0.423,2.131-1.19C48.353,25.634,47.986,24.094,46.811,23.371z"/>
<circle style="fill:none;stroke:#000000;stroke-width:2;stroke-miterlimit:10;" cx="23.5" cy="6.5" r="3.5"/>
<path d="M31,33.67V38c0,2.21-1.79,4-4,4h-3v-2h3c1.1,0,2-0.9,2-2v-5.33L31,33.67z"/>
<polygon points="22.39,26.27 15.81,24.98 16.19,23.02 21.42,24.05 "/>
</svg>