<?xml version="1.0" encoding="iso-8859-1"?><!-- Generator: Adobe Illustrator 21.0.0, SVG Export Plug-In . SVG Version: 6.00 Build 0)  --><svg xmlns="http://www.w3.org/2000/svg" xmlns:xlink="http://www.w3.org/1999/xlink" viewBox="0 0 50 50" width="50px" height="50px"><circle cx="40" cy="36" r="1"/><circle cx="11" cy="36" r="1"/><circle style="fill:none;stroke:#000000;stroke-width:2;stroke-linecap:round;stroke-miterlimit:10;" cx="40" cy="36" r="5"/><circle style="fill:none;stroke:#000000;stroke-width:2;stroke-linecap:round;stroke-miterlimit:10;" cx="11" cy="36" r="5"/><path d="M46,30v-2h4v-0.625c0-2.444-1.749-4.518-4.159-4.929l-7.947-1.356l-4.576-7.283C32.212,12.049,30.313,11,28.237,11H3c-1.654,0-3,1.346-3,3v14h3v2H0v4c0,1.654,1.346,3,3,3h3.101C6.035,36.677,6,36.343,6,36c0-2.761,2.239-5,5-5s5,2.239,5,5c0,0.343-0.035,0.677-0.101,1h19.202C35.035,36.677,35,36.343,35,36c0-2.761,2.239-5,5-5s5,2.239,5,5c0,0.343-0.035,0.677-0.101,1H50v-7H46z M15,22H4v-7h11V22z M19,22v-7h9.445c0.345,0,0.666,0.178,0.849,0.471L33.366,22H19z"/></svg>