<?xml version="1.0" encoding="iso-8859-1"?>
<!-- Generator: Adobe Illustrator 18.0.0, SVG Export Plug-In . SVG Version: 6.00 Build 0)  -->
<!DOCTYPE svg PUBLIC "-//W3C//DTD SVG 1.1//EN" "http://www.w3.org/Graphics/SVG/1.1/DTD/svg11.dtd">
<svg version="1.1" id="Layer_1" xmlns="http://www.w3.org/2000/svg" xmlns:xlink="http://www.w3.org/1999/xlink" x="0px" y="0px"
	 width="50px" height="50px" viewBox="0 0 50 50" style="enable-background:new 0 0 50 50;" xml:space="preserve">
<g>
	<path d="M34,26c-0.553,0-1,0.448-1,1v4c0,0.552,0.447,1,1,1s1-0.448,1-1v-4C35,26.448,34.553,26,34,26z"/>
	<path d="M40,19H6v16c0,2.209,1.791,4,4,4h30c2.209,0,4-1.791,4-4V23C44,20.791,42.209,19,40,19z M38,32.479
		C38,33.799,36.958,35,35.684,35h-2.895c-0.309,0-0.849-0.156-1.389-0.506c-1.192-0.773-2.536-1.771-3.667-2.594
		c-0.37-0.269-0.58-0.607-0.673-0.9H14.104L12,29.464V28.35L14.104,27h12.908c0.029-0.33,0.244-0.76,0.721-1.112
		c1.108-0.817,2.606-1.767,3.667-2.503C31.93,23.018,32.48,23,32.789,23h2.895C36.958,23,38,23.959,38,25.279V32.479z"/>
</g>
<line style="fill:none;stroke:#000000;stroke-width:2;stroke-linejoin:round;stroke-miterlimit:10;" x1="6" y1="19" x2="42" y2="19"/>
<path style="fill:none;stroke:#000000;stroke-width:2;stroke-miterlimit:10;" d="M40,39H10c-2.209,0-4-2.291-4-4.5V14
	c0-2.209,1.791-4,4-4h14.597c0.908,0,1.79,0.309,2.499,0.877L42.499,19C43.448,19.759,44,20.908,44,22.123V35
	C44,37.209,42.209,39,40,39z"/>
</svg>