<?xml version="1.0" encoding="iso-8859-1"?>
<!-- Generator: Adobe Illustrator 24.1.2, SVG Export Plug-In . SVG Version: 6.00 Build 0)  -->
<svg version="1.1" baseProfile="basic" id="Layer_1"
	 xmlns="http://www.w3.org/2000/svg" xmlns:xlink="http://www.w3.org/1999/xlink" x="0px" y="0px" viewBox="0 0 50 50"
	 xml:space="preserve">
<path d="M25.447,23h-7.065l6-12H15.22c-1.723,0-3.336,0.883-4.25,2.344l-3.563,5.719l-3.125,0.469C1.824,19.883,0,21.988,0,24.469
	V31c0,1.645,1.355,3,3,3h2.094C5.57,36.836,8.035,39,11,39s5.43-2.164,5.906-5h3.541L25.447,23z M11,37c-2.223,0-4-1.777-4-4
	s1.777-4,4-4s4,1.777,4,4S13.223,37,11,37z"/>
<path d="M45.813,20.469l-8.25-1.406L33,13c-0.945-1.258-2.426-2-4-2h-2.382l-5,10h6.935l-5.909,13h10.45
	c0.477,2.836,2.941,5,5.906,5s5.43-2.164,5.906-5H47c1.645,0,2.991-1.347,2.991-2.991L50,25.375
	C50,22.938,48.215,20.871,45.813,20.469z M39,37c-2.223,0-4-1.777-4-4s1.777-4,4-4s4,1.777,4,4S41.223,37,39,37z"/>
</svg>