<?xml version="1.0" encoding="iso-8859-1"?><!-- Generator: Adobe Illustrator 19.1.0, SVG Export Plug-In . SVG Version: 6.00 Build 0)  --><svg xmlns="http://www.w3.org/2000/svg" xmlns:xlink="http://www.w3.org/1999/xlink" viewBox="0 0 50 50" width="500px" height="500px"><circle style="fill:none;stroke:#000000;stroke-width:2;stroke-miterlimit:10;" cx="25" cy="25" r="22"/><circle style="fill:none;stroke:#000000;stroke-width:2;stroke-miterlimit:10;" cx="25" cy="25" r="18"/><circle style="fill:none;stroke:#000000;stroke-width:2;stroke-miterlimit:10;" cx="25" cy="25" r="5"/><path style="fill:none;stroke:#000000;stroke-width:2;stroke-miterlimit:10;" d="M25,21c0-10.333,3-13.751,3-13.751"/><path style="fill:none;stroke:#000000;stroke-width:2;stroke-miterlimit:10;" d="M25,29c0,10.333-3,13.751-3,13.751"/><path style="fill:none;stroke:#000000;stroke-width:2;stroke-miterlimit:10;" d="M29,25c10.333,0,13.751,3,13.751,3"/><path style="fill:none;stroke:#000000;stroke-width:2;stroke-miterlimit:10;" d="M21,25c-10.333,0-13.751-3-13.751-3"/><path style="fill:none;stroke:#000000;stroke-width:2;stroke-miterlimit:10;" d="M27.828,22.172c7.307-7.307,11.845-7.602,11.845-7.602"/><path style="fill:none;stroke:#000000;stroke-width:2;stroke-miterlimit:10;" d="M22.172,27.828c-7.307,7.307-11.845,7.602-11.845,7.602"/><path style="fill:none;stroke:#000000;stroke-width:2;stroke-miterlimit:10;" d="M27.828,27.828c7.307,7.307,7.602,11.845,7.602,11.845"/><path style="fill:none;stroke:#000000;stroke-width:2;stroke-miterlimit:10;" d="M22.172,22.172c-7.307-7.307-7.602-11.845-7.602-11.845"/><path style="fill:none;stroke:#000000;stroke-width:2;stroke-miterlimit:10;" d="M26.531,21.304c3.954-9.547,8.034-11.556,8.034-11.556"/><path style="fill:none;stroke:#000000;stroke-width:2;stroke-miterlimit:10;" d="M23.469,28.696c-3.954,9.547-8.034,11.556-8.034,11.556"/><path style="fill:none;stroke:#000000;stroke-width:2;stroke-miterlimit:10;" d="M28.696,26.531c9.547,3.954,11.556,8.034,11.556,8.034"/><path style="fill:none;stroke:#000000;stroke-width:2;stroke-miterlimit:10;" d="M21.304,23.469c-9.547-3.954-11.556-8.034-11.556-8.034"/><path style="fill:none;stroke:#000000;stroke-width:2;stroke-miterlimit:10;" d="M28.696,23.469c9.547-3.954,13.852-2.491,13.852-2.491"/><path style="fill:none;stroke:#000000;stroke-width:2;stroke-miterlimit:10;" d="M21.304,26.531c-9.547,3.954-13.852,2.491-13.852,2.491"/><path style="fill:none;stroke:#000000;stroke-width:2;stroke-miterlimit:10;" d="M26.531,28.696c3.954,9.547,2.491,13.852,2.491,13.852"/><path style="fill:none;stroke:#000000;stroke-width:2;stroke-miterlimit:10;" d="M23.469,21.304c-3.954-9.547-2.491-13.852-2.491-13.852"/></svg>