<?xml version="1.0" encoding="iso-8859-1"?><!-- Generator: Adobe Illustrator 22.1.0, SVG Export Plug-In . SVG Version: 6.00 Build 0)  --><svg xmlns="http://www.w3.org/2000/svg" xmlns:xlink="http://www.w3.org/1999/xlink" viewBox="0 0 50 50" width="50px" height="50px"><path d="M39,48H10c-0.552,0-1-0.447-1-1l0,0c0-3.309,2.691-6,6-6h19c3.309,0,6,2.691,6,6l0,0C40,47.553,39.552,48,39,48z"/><path d="M8,39c-1.889,0-6-5.629-6-8c0-4.785,5.626-8,14-8c6.927,0,9.52,0,13.219-4.625c0.511-0.639,1.099-1.492,1.721-2.396C33.676,12.005,37.811,6,44,6c2.206,0,4,1.794,4,4v2c0,0.553-0.448,1-1,1c-3.951,0-5.945,3.546-8.47,8.035c-0.836,1.486-1.701,3.023-2.698,4.52C31.611,31.886,27.364,33,20,33c-7.074,0-9.194,3.056-10.333,4.697C9.182,38.396,8.764,39,8,39z"/><path d="M40.273,22.016c-0.857,1.524-1.74,3.092-2.777,4.648C32.798,33.711,27.918,35,20,35c-5.435,0-7.322,1.952-8.37,3.388l0.827,1.034C13.257,39.152,14.11,39,15,39h19c0.465,0,0.918,0.048,1.362,0.125c7.394-7.58,10.05-17.619,10.544-23.959C43.876,15.787,42.426,18.188,40.273,22.016z"/><path d="M26.87,18.048c0.256-0.283,0.516-0.582,0.787-0.922c0.468-0.585,1.035-1.409,1.636-2.281c2.721-3.953,7.237-10.482,14.166-10.813C42.311,2.278,39.516,2,37,2c-6.474,0-14,4.368-14,10C23,14.748,24.404,16.876,26.87,18.048z"/></svg>