<?xml version="1.0" encoding="utf-8"?><!-- Generator: Adobe Illustrator 15.0.0, SVG Export Plug-In . SVG Version: 6.00 Build 0)  --><!DOCTYPE svg PUBLIC "-//W3C//DTD SVG 1.1//EN" "http://www.w3.org/Graphics/SVG/1.1/DTD/svg11.dtd"><svg xmlns="http://www.w3.org/2000/svg" xmlns:xlink="http://www.w3.org/1999/xlink" viewBox="0 0 50 50" width="50px" height="50px"><path fill="none" stroke="#000000" stroke-width="2" stroke-linecap="round" stroke-linejoin="round" stroke-miterlimit="10" d="M21.6,41c-0.3,0.7-0.6,1.4-0.6,2.2c0,2.5,4,5.8,4,5.8s4-3.3,4-5.8c0-0.8-0.2-1.601-0.6-2.2"/><path d="M25.618,0.214c-0.362-0.285-0.873-0.285-1.235,0C24.081,0.451,17,6.104,17,13.9c0,3.769,1.153,13.953,1.842,20.038c0.158,1.396,0.287,2.536,0.377,3.357C19.417,38.283,20.25,39,21.2,39h7.6c0.951,0,1.784-0.717,1.991-1.77C31.306,33.32,33,18.404,33,13.9C33,6.104,25.919,0.451,25.618,0.214z M25,17c-1.657,0-3-1.343-3-3s1.343-3,3-3c1.656,0,3,1.343,3,3S26.656,17,25,17z"/><path d="M17.258,37.687l-0.017-0.085l-0.009-0.087c-0.083-0.747-0.197-1.757-0.335-2.984l-0.042-0.368c-0.119-1.049-0.251-2.224-0.39-3.461l-2.23,2.655C14.083,33.537,14,33.765,14,34v4c0,0.325,0.159,0.631,0.425,0.818C14.596,38.938,14.797,39,15,39c0.114,0,0.229-0.02,0.339-0.06l2.067-0.744C17.35,38.029,17.293,37.863,17.258,37.687z"/><path d="M35.766,33.356l-2.192-2.61c-0.324,2.913-0.624,5.409-0.8,6.745l-0.008,0.063l-0.012,0.062c-0.04,0.201-0.101,0.391-0.164,0.579l2.071,0.745C34.771,38.98,34.886,39,35,39c0.203,0,0.404-0.062,0.575-0.182C35.842,38.631,36,38.325,36,38v-4C36,33.765,35.917,33.537,35.766,33.356z"/></svg>