<?xml version="1.0" encoding="utf-8"?><!-- Generator: Adobe Illustrator 15.0.0, SVG Export Plug-In . SVG Version: 6.00 Build 0)  --><!DOCTYPE svg PUBLIC "-//W3C//DTD SVG 1.1//EN" "http://www.w3.org/Graphics/SVG/1.1/DTD/svg11.dtd"><svg xmlns="http://www.w3.org/2000/svg" xmlns:xlink="http://www.w3.org/1999/xlink" viewBox="0 0 50 50" width="50px" height="50px"><path d="M28.188,13.001H2.846c-1.569,0-2.845,1.273-2.845,2.839v26.164c0,1.566,1.429,2.994,2.999,2.994h4.09C7.568,47.833,10.032,50,13,50s5.432-2.167,5.91-5.001h9.245c1.568,0,2.845-1.274,2.845-2.841V15.906C30.999,14.305,29.737,13.001,28.188,13.001z M13,48c-2.206,0-4-1.794-4-4s1.794-4,4-4s4,1.794,4,4S15.206,48,13,48z"/><g><path d="M48.386,28.057l-4.155-5.542C43.278,21.368,41.771,20,40,20h-7.001v25l0,0c0.479,2.833,3.034,5,6.001,5s5.432-2.167,5.91-5H45h2c1.57,0,3-1.43,3-3v-9.615C50,30.373,48.563,28.305,48.386,28.057z M39,48c-2.206,0-4-1.794-4-4s1.794-4,4-4s4,1.794,4,4S41.206,48,39,48z M48,33c-2.556,0-9.194,0-10,0c-1,0-2-1-2-2c0-0.577,0-2.488,0-4c0-1.107,1-2,2-2c0.706,0,3.821,0,5.596,0l3.177,4.237C47.113,29.716,48,31.213,48,32.385V33z"/></g></svg>