<?xml version="1.0" encoding="iso-8859-1"?>
<!-- Generator: Adobe Illustrator 24.1.2, SVG Export Plug-In . SVG Version: 6.00 Build 0)  -->
<svg version="1.1" baseProfile="basic" id="Layer_1"
	 xmlns="http://www.w3.org/2000/svg" xmlns:xlink="http://www.w3.org/1999/xlink" x="0px" y="0px" viewBox="0 0 50 50"
	 xml:space="preserve">
<polygon points="11,36 9,36 8,32 12,32 "/>
<line style="fill:none;stroke:#000000;stroke-width:2;stroke-linejoin:round;stroke-miterlimit:10;" x1="40" y1="36" x2="28" y2="36"/>
<path style="fill:none;stroke:#000000;stroke-width:2;stroke-linejoin:round;stroke-miterlimit:10;" d="M36,31V18
	c0-1.105,0.895-2,2-2h4.235c1.459,0,2.802,0.794,3.505,2.072l2.022,3.677C48.574,23.226,49,24.884,49,26.569V33c0,1.657-1.343,3-3,3
	"/>
<rect x="1" y="28" style="fill:none;stroke:#000000;stroke-width:2;stroke-linejoin:round;stroke-miterlimit:10;" width="35" height="4"/>
<path style="fill:none;stroke:#000000;stroke-width:2;stroke-linejoin:round;stroke-miterlimit:10;" d="M49,25h-7
	c-0.552,0-1-0.448-1-1v-3c0-0.552,0.448-1,1-1h5"/>
<path d="M27.64,32h-5.28C21.53,32.73,21,33.8,21,35c0,2.21,1.79,4,4,4s4-1.79,4-4C29,33.8,28.47,32.73,27.64,32z M25,37
	c-1.1,0-2-0.9-2-2s0.9-2,2-2s2,0.9,2,2S26.1,37,25,37z"/>
<path d="M16.64,32h-5.28C10.53,32.73,10,33.8,10,35c0,2.21,1.79,4,4,4s4-1.79,4-4C18,33.8,17.47,32.73,16.64,32z M14,37
	c-1.1,0-2-0.9-2-2s0.9-2,2-2s2,0.9,2,2S15.1,37,14,37z"/>
<path d="M8.64,32H3.36C2.53,32.73,2,33.8,2,35c0,2.21,1.79,4,4,4s4-1.79,4-4C10,33.8,9.47,32.73,8.64,32z M6,37c-1.1,0-2-0.9-2-2
	s0.9-2,2-2s2,0.9,2,2S7.1,37,6,37z"/>
<circle style="fill:none;stroke:#000000;stroke-width:2;stroke-linejoin:round;stroke-miterlimit:10;" cx="43" cy="35" r="3"/>
<polygon style="fill:none;stroke:#000000;stroke-width:2;stroke-linejoin:round;stroke-miterlimit:10;" points="1,32 36,32 36,11 
	33,11 33,13 4,13 4,11 1,11 "/>
<line style="fill:none;stroke:#000000;stroke-width:2;stroke-linecap:round;stroke-linejoin:round;stroke-miterlimit:10;" x1="6" y1="17" x2="6" y2="24"/>
<line style="fill:none;stroke:#000000;stroke-width:2;stroke-linecap:round;stroke-linejoin:round;stroke-miterlimit:10;" x1="26" y1="17" x2="26" y2="24"/>
<line style="fill:none;stroke:#000000;stroke-width:2;stroke-linecap:round;stroke-linejoin:round;stroke-miterlimit:10;" x1="31" y1="17" x2="31" y2="24"/>
<line style="fill:none;stroke:#000000;stroke-width:2;stroke-linecap:round;stroke-linejoin:round;stroke-miterlimit:10;" x1="16" y1="17" x2="16" y2="24"/>
<line style="fill:none;stroke:#000000;stroke-width:2;stroke-linecap:round;stroke-linejoin:round;stroke-miterlimit:10;" x1="11" y1="17" x2="11" y2="24"/>
<line style="fill:none;stroke:#000000;stroke-width:2;stroke-linecap:round;stroke-linejoin:round;stroke-miterlimit:10;" x1="21" y1="17" x2="21" y2="24"/>
</svg>