<?xml version="1.0" encoding="iso-8859-1"?><!-- Generator: Adobe Illustrator 21.1.0, SVG Export Plug-In . SVG Version: 6.00 Build 0)  --><svg xmlns="http://www.w3.org/2000/svg" xmlns:xlink="http://www.w3.org/1999/xlink" viewBox="0 0 50 50" width="50px" height="50px"><path style="fill:none;stroke:#000000;stroke-width:2;stroke-linecap:round;stroke-linejoin:round;stroke-miterlimit:10;" d="M7.767,8.304C3.582,12.624,1,18.51,1,25c0,5.498,1.853,10.562,4.964,14.609"/><path style="fill:none;stroke:#000000;stroke-width:2;stroke-linecap:round;stroke-linejoin:round;stroke-miterlimit:10;" d="M44.036,39.609C47.147,35.562,49,30.498,49,25c0-6.49-2.582-12.376-6.767-16.696"/><g><polygon points="14.7,26.069 16.825,26.069 15.763,22.014 "/><path d="M25.702,25.366h-1.547v3.039h1.469c0.224,0,1.258-0.048,1.258-1.469C26.882,26.452,26.808,25.366,25.702,25.366z"/><path d="M26.702,22.296c0-0.676-0.115-1.445-1.328-1.445h-1.219v2.843h1.195C25.808,23.694,26.702,23.49,26.702,22.296z"/><path d="M25,5C13.972,5,5,13.972,5,25s8.972,20,20,20s20-8.972,20-20S36.028,5,25,5z M17.943,30.311l-0.61-2.328H14.2l-0.609,2.328h-2.43l3.555-11.375h2.102l3.578,11.375H17.943z M25.624,30.311h-3.766V18.936h3.516c2.801,0,3.633,1.517,3.633,3.117c0,1.758-1.18,2.297-1.43,2.406c0.292,0.083,1.594,0.498,1.594,2.508C29.171,30.005,26.775,30.311,25.624,30.311z M38.352,27.311c0,1.367-0.764,3.156-3.516,3.156c-3.02,0-4.026-2.272-3.938-3.742h2.305c0,1.229,0.422,1.875,1.633,1.875c0.7,0,1.203-0.364,1.203-1.273c0-2.55-4.859-1.464-4.859-5.367c0-1.064,0.616-3.18,3.609-3.18c2.939,0,3.57,2.337,3.57,3.516H36.07c0-0.239-0.011-1.633-1.32-1.633c-1.225,0-1.273,1.13-1.273,1.312C33.477,24.053,38.352,23.248,38.352,27.311z"/></g></svg>