<svg xmlns="http://www.w3.org/2000/svg"  viewBox="0 0 50 50" width="500px" height="500px">    <path style="text-indent:0;text-align:start;line-height:normal;text-transform:none;block-progression:tb;-inkscape-font-specification:Sans" d="M 25 2 C 15.622621 2 8 9.6226205 8 19 L 8 31 C 8 40.377379 15.622621 48 25 48 C 34.377379 48 42 40.377379 42 31 L 42 19 C 42 9.6226205 34.377379 2 25 2 z M 25 4 C 33.296621 4 40 10.703379 40 19 L 40 31 C 40 39.296621 33.296621 46 25 46 C 16.703379 46 10 39.296621 10 31 L 10 19 C 10 10.703379 16.703379 4 25 4 z M 25 6 C 17.832484 6 12 11.832484 12 19 L 12 31 C 12 38.167516 17.832484 44 25 44 C 32.167516 44 38 38.167516 38 31 L 38 19 C 38 11.832484 32.167516 6 25 6 z M 25 8 C 29.670386 8 33.619695 10.903808 35.21875 15 L 14.78125 15 C 16.380305 10.903808 20.329614 8 25 8 z M 21.8125 11 A 1.001098 1.001098 0 0 0 22 13 L 28 13 A 1.0001 1.0001 0 1 0 28 11 L 22 11 A 1.0001 1.0001 0 0 0 21.90625 11 A 1.001098 1.001098 0 0 0 21.8125 11 z M 14.1875 17 L 35.8125 17 C 35.931547 17.649713 36 18.315271 36 19 L 36 25.59375 C 35.509149 25.309357 34.966493 25.120381 34.375 25.0625 C 33.974551 24.372691 33.410162 23.815763 32.6875 23.46875 C 32.032205 21.467574 30.209537 20 28 20 C 25.967156 20 24.277067 21.247154 23.5 23 C 21.939621 23 20.756333 24.11173 20.3125 25.53125 C 18.998513 26.184807 18 27.437547 18 29 C 18 31.197334 19.802666 33 22 33 L 34 33 C 34.681737 33 35.311294 32.804996 35.875 32.5 C 35.143045 37.870537 30.575219 42 25 42 C 18.913516 42 14 37.086484 14 31 L 14 19 C 14 18.315271 14.068453 17.649713 14.1875 17 z M 28 22 C 29.449311 22 30.64591 23.023492 30.9375 24.375 L 31.0625 24.9375 L 31.59375 25.09375 C 32.193423 25.284737 32.669111 25.752734 32.875 26.34375 L 33.125 27.0625 L 33.875 27.03125 C 34.047582 27.019745 34.092005 27 34 27 C 35.116666 27 36 27.883334 36 29 C 36 30.116666 35.116666 31 34 31 L 22 31 C 20.883334 31 20 30.116666 20 29 C 20 28.116118 20.553172 27.395673 21.34375 27.125 L 21.9375 26.90625 L 22.03125 26.3125 C 22.128654 25.571384 22.729555 25 23.5 25 C 23.603454 25 23.727682 25.0253 23.875 25.0625 L 24.84375 25.3125 L 25.09375 24.3125 C 25.405057 22.987759 26.571518 22 28 22 z" color="#000" overflow="visible" font-family="Sans"/></svg>