<?xml version="1.0" encoding="iso-8859-1"?><!-- Generator: Adobe Illustrator 21.1.0, SVG Export Plug-In . SVG Version: 6.00 Build 0)  --><svg xmlns="http://www.w3.org/2000/svg" xmlns:xlink="http://www.w3.org/1999/xlink" viewBox="0 0 50 50" width="500px" height="500px"><path style="fill:none;stroke:#000000;stroke-width:2;stroke-miterlimit:10;" d="M34.836,13.224C32.881,12.662,29.603,12,25,12s-7.881,0.662-9.836,1.224C13.879,13.594,13,14.769,13,16.107V38.5c0,0.276,0.224,0.5,0.5,0.5h1c0.276,0,0.5-0.224,0.5-0.5V37h20v1.5c0,0.276,0.224,0.5,0.5,0.5h1c0.276,0,0.5-0.224,0.5-0.5V16.107C37,14.769,36.121,13.594,34.836,13.224z"/><line style="fill:none;stroke:#000000;stroke-width:2;stroke-miterlimit:10;" x1="13" y1="28" x2="37" y2="28"/><line style="fill:none;stroke:#000000;stroke-width:2;stroke-miterlimit:10;" x1="13" y1="17" x2="37" y2="17"/><circle cx="32.5" cy="32.5" r="1.5"/><circle cx="17.5" cy="32.5" r="1.5"/><line style="fill:none;stroke:#000000;stroke-width:2;stroke-miterlimit:10;" x1="25" y1="28" x2="25" y2="17"/><rect x="37" y="22" width="2" height="5"/><rect x="11" y="22" width="2" height="5"/><path style="fill:none;stroke:#000000;stroke-width:2;stroke-linejoin:round;stroke-miterlimit:10;" d="M9,5C6.791,5,5,6.791,5,9v32c0,2.209,1.791,4,4,4h32c2.209,0,4-1.791,4-4V9c0-2.209-1.791-4-4-4H9z"/></svg>