<?xml version="1.0" encoding="iso-8859-1"?><!-- Generator: Adobe Illustrator 20.1.0, SVG Export Plug-In . SVG Version: 6.00 Build 0)  --><svg xmlns="http://www.w3.org/2000/svg" xmlns:xlink="http://www.w3.org/1999/xlink" viewBox="0 0 50 50" width="50px" height="50px"><circle cx="17.5" cy="13.5" r="9.5"/><circle cx="37.5" cy="10.5" r="4.5"/><path d="M15.472,27.107c-1.075-0.256-2.199,0.154-2.858,1.042l-9.04,12.196c-0.989,1.334-0.666,3.223,0.709,4.153c1.281,0.866,3.015,0.583,3.953-0.646l7.229-9.467l11.11,4.329c0.219,0.085,0.442,0.145,0.666,0.191l-3.857-9.917L15.472,27.107z"/><path d="M31.711,36.841l6.623-12.139c1.397-2.233,0.435-5.268-1.878-6.286c-1.989-0.876-4.27-0.348-5.517,1.63l-5.487,9.116l3.757,9.661C30.243,38.528,31.162,37.847,31.711,36.841z"/><path d="M27.241,38.906L30,46h2l-2.791-7.177C28.578,39.004,27.907,39.044,27.241,38.906z"/><path d="M39.732,19.512c0.197,0.357,0.36,0.738,0.484,1.138c0.047,0.153,0.081,0.307,0.116,0.462L48,16v-2L39.732,19.512z"/></svg>