<?xml version="1.0" encoding="iso-8859-1"?>
<!-- Generator: Adobe Illustrator 23.0.3, SVG Export Plug-In . SVG Version: 6.00 Build 0)  -->
<svg version="1.1" xmlns="http://www.w3.org/2000/svg" xmlns:xlink="http://www.w3.org/1999/xlink" x="0px" y="0px"
	 viewBox="0 0 50 50" style="enable-background:new 0 0 50 50;" xml:space="preserve">
<g id="fan_x5F_speed_x5F_filled">
</g>
<g id="fan_x5F_speed_x5F_outlined">
</g>
<g id="fresh_x5F_air_x5F_outlined">
</g>
<g id="fresh_x5F_air_x5F_filled">
</g>
<g id="air_x5F_recirculation_x5F_outlined">
</g>
<g id="air_x5F_recirculation_x5F_filled">
</g>
<g id="fuel_x5F_filter_x5F_warning_x5F_outlined">
</g>
<g id="fuel_x5F_filter_x5F_warning_x5F_filled">
</g>
<g id="air_x5F_suspension_x5F_warning_x5F_outlined">
</g>
<g id="air_x5F_suspension_x5F_warning_x5F_filled">
	<polygon points="29,38 25,43 21,38 	"/>
	<line style="stroke:#000000;stroke-width:2;stroke-miterlimit:10;" x1="25" y1="31.996" x2="25" y2="38"/>
	<g>
		<g>
			<path d="M45.812,18.469l-8.25-1.406L33,11c-0.945-1.258-2.426-2-4-2H15.219c-1.723,0-3.336,0.883-4.25,2.344l-3.563,5.719
				l-3.125,0.469C1.824,17.883,0,19.988,0,22.469V29c0,1.645,1.355,3,3,3h2.094C5.57,34.836,8.035,37,11,37s5.43-2.172,5.906-5.008
				H24V26h-3l4-5l4,5h-3v5.992h7.094C33.57,34.828,36.035,37,39,37s5.43-2.164,5.906-5H47c1.645,0,2.991-1.347,2.991-2.991
				L50,23.375C50,20.938,48.215,18.871,45.812,18.469z M11,35c-2.223,0-4-1.777-4-4s1.777-4,4-4s4,1.777,4,4S13.223,35,11,35z
				 M39,35c-2.223,0-4-1.777-4-4s1.777-4,4-4s4,1.777,4,4S41.223,35,39,35z"/>
		</g>
	</g>
</g>
<g id="convertible_x5F_roof_x5F_warning_x5F_outlined">
</g>
<g id="convertible_x5F_roof_x5F_warning_x5F_filled">
</g>
<g id="hill_x5F_descent_x5F_control_x5F_outlined">
</g>
<g id="hill_x5F_descent_x5F_control_x5F_filled">
</g>
<g id="steering_x5F_lock_x5F_warning_x5F_outlined">
</g>
<g id="steering_x5F_lock_x5F_warning_x5F_filled">
</g>
<g id="hazard_x5F_warning_x5F_flasher_x5F_outlined">
</g>
<g id="hazard_x5F_warning_x5F_flasher_x5F_filled">
</g>
<g id="horn_x5F_outlined">
</g>
<g id="horn_x5F_filled">
</g>
</svg>