<svg xmlns="http://www.w3.org/2000/svg"  viewBox="0 0 47 44" width="50px" height="50px"><title>ios-fld_protected-bike-lane</title><g id="Слой_2" data-name="Слой 2"><g id="Слой_6" data-name="Слой 6"><line x1="9" y1="39" x2="9" y2="26" fill="none" stroke="#000" stroke-linecap="round" stroke-miterlimit="10" stroke-width="2"/><path d="M13,33V26a4,4,0,0,0-4-4H9a4,4,0,0,0-4,4v7" fill="none" stroke="#000" stroke-linecap="round" stroke-miterlimit="10" stroke-width="2"/><line x1="9" y1="22" x2="9" y2="18" fill="none" stroke="#000" stroke-linecap="round" stroke-miterlimit="10" stroke-width="2"/><line x1="1" y1="17" x2="17" y2="17" fill="none" stroke="#000" stroke-linecap="round" stroke-miterlimit="10" stroke-width="2"/><path d="M11,9H7a4,4,0,0,0-4,4v1H15V13A4,4,0,0,0,11,9Z"/><circle cx="9" cy="4" r="4"/><path d="M35.89,31.846l-6.937-2.723V28.73h-2v5.193A3.036,3.036,0,0,0,29.938,37h3.968a3.036,3.036,0,0,0,2.985-3.077V31.846Z"/><path d="M47,32H29.836a1.873,1.873,0,0,1-1.883-1.855V22.172S32.816,9.083,33.477,7.784C34.285,6.205,36.316,5.5,37.773,5c0,0,2.282-1,9.227-1" fill="none" stroke="#000" stroke-width="2"/><path d="M31.082,13.848C30.664,14.959,28.758,19,34.9,19H47" fill="none" stroke="#000" stroke-width="2"/><path d="M46,43H25a2,2,0,0,1-2-2V27.5A2.5,2.5,0,0,0,20.5,25h0A2.5,2.5,0,0,0,18,27.5V41a2,2,0,0,1-2,2H2" fill="none" stroke="#000" stroke-linecap="round" stroke-miterlimit="10" stroke-width="2"/><path d="M28,13h-.8c-3.093,0-4.2,1.869-4.2,3.612,0,.847.383,2.218,2.685,2.388C26.327,17.325,27.165,15.143,28,13Z"/><path d="M30,18l-2,4.172V32H47V19Zm7,9.953c-1.678,0-2.19-.43-3.927-1.4C31.918,25.9,31,25.281,31,23.984A1.991,1.991,0,0,1,33,22h4a2.977,2.977,0,1,1,0,5.953Z"/></g></g></svg>