<?xml version="1.0" encoding="iso-8859-1"?>
<!-- Generator: Adobe Illustrator 23.0.3, SVG Export Plug-In . SVG Version: 6.00 Build 0)  -->
<svg version="1.1" xmlns="http://www.w3.org/2000/svg" xmlns:xlink="http://www.w3.org/1999/xlink" x="0px" y="0px"
	 viewBox="0 0 50 50" style="enable-background:new 0 0 50 50;" xml:space="preserve">
<g id="filled">
</g>
<g id="outlined">
</g>
<g id="rounded">
</g>
<g id="two_x5F_tone">
</g>
<g id="sharp">
</g>
<g id="win10">
</g>
<g id="ios_x5F_out">
	<circle style="fill:none;stroke:#000000;stroke-width:2;stroke-miterlimit:10;" cx="39" cy="41" r="5"/>
	<circle style="fill:none;stroke:#000000;stroke-width:2;stroke-miterlimit:10;" cx="11" cy="41" r="5"/>
	<path style="fill:none;stroke:#000000;stroke-width:2;stroke-miterlimit:10;" d="M44,41h3c1.105,0,2-0.895,2-2v-5.611
		c0-1.955-1.414-3.624-3.342-3.946L37,28l-4.8-6.4C31.445,20.593,30.259,20,29,20H15.217c-1.379,0-2.661,0.71-3.392,1.88L8,28
		l-3.566,0.509C2.464,28.791,1,30.479,1,32.469V39c0,1.105,0.895,2,2,2h3"/>
	<line style="fill:none;stroke:#000000;stroke-width:2;stroke-miterlimit:10;" x1="16" y1="41" x2="34" y2="41"/>
	<path style="fill:none;stroke:#000000;stroke-width:2;stroke-linecap:round;stroke-linejoin:round;stroke-miterlimit:10;" d="
		M42.878,28.98C42.878,28.98,53,20,43,10c0,0,0,6-6,6c0,0-1-11-8-13c0,0,0,6-4,10c-3.162,3.162-2,7-2,7"/>
	<path d="M37.659,28.11c3.67-1.875,4.406-4.729,4.469-6.504c0.022-0.603-0.633-0.96-1.137-0.627
		c-1.852,1.225-4.432,1.113-6.058,0.872c-0.771-0.114-1.152-0.808-1.243-1.583c-0.224-1.891-0.841-3.812-1.887-6.455
		c-0.224-0.566-1.017-0.637-1.304-0.1c-1.1,2.057-3.371,3.905-2.874,6.286l2.75-0.012L37.659,28.11z"/>
</g>
<g id="ios_x5F_filled">
</g>
<g id="color">
</g>
</svg>