<?xml version="1.0" encoding="iso-8859-1"?><!-- Generator: Adobe Illustrator 22.1.0, SVG Export Plug-In . SVG Version: 6.00 Build 0)  --><svg xmlns="http://www.w3.org/2000/svg" xmlns:xlink="http://www.w3.org/1999/xlink" viewBox="0 0 50 50" width="50px" height="50px"><g><path d="M47,18H3V9.793C3,8.253,4.253,7,5.793,7h38.414C45.747,7,47,8.253,47,9.793V18z M5,16h40V9.793C45,9.355,44.645,9,44.207,9H5.793C5.355,9,5,9.355,5,9.793V16z"/></g><g><polygon points="31.4,35 18.6,35 16,30 34,30 "/><path d="M31.4,36H18.6c-0.373,0-0.715-0.208-0.888-0.539l-2.6-5c-0.161-0.31-0.148-0.682,0.033-0.979C15.326,29.183,15.65,29,16,29h18c0.35,0,0.674,0.183,0.854,0.481c0.182,0.298,0.194,0.67,0.033,0.979l-2.6,5C32.115,35.792,31.773,36,31.4,36z M19.207,34h11.586l1.56-3H17.647L19.207,34z"/></g><g><path d="M47.656,41h-4.313C42.602,41,42,40.398,42,39.656V30h7v9.656C49,40.398,48.398,41,47.656,41z"/><path d="M47.656,42h-4.313C42.052,42,41,40.948,41,39.656V29h9v10.656C50,40.948,48.948,42,47.656,42z M43,31v8.656C43,39.846,43.154,40,43.344,40h4.313C47.846,40,48,39.846,48,39.656V31H43z"/></g><g><path d="M6.656,41H2.344C1.602,41,1,40.398,1,39.656V30h7v9.656C8,40.398,7.398,41,6.656,41z"/><path d="M6.656,42H2.344C1.052,42,0,40.948,0,39.656V29h9v10.656C9,40.948,7.948,42,6.656,42z M2,31v8.656C2,39.846,2.154,40,2.344,40h4.313C6.846,40,7,39.846,7,39.656V31H2z"/></g><g><line style="fill:#FFFFFF;" x1="8" y1="37" x2="17" y2="32.5"/><rect x="7.469" y="33.75" transform="matrix(0.8944 -0.4472 0.4472 0.8944 -14.221 9.2588)" width="10.062" height="2"/></g><g><line style="fill:#FFFFFF;" x1="42" y1="37" x2="32" y2="32"/><rect x="36" y="28.91" transform="matrix(0.4472 -0.8944 0.8944 0.4472 -10.4046 52.1649)" width="2" height="11.18"/></g><g><rect x="24" y="7" width="2" height="10"/></g><path d="M46.943,16H3.057C1.371,16,0,17.371,0,19.057V31h50V19.057C50,17.371,48.629,16,46.943,16z M7.5,23C6.672,23,6,22.328,6,21.5S6.672,20,7.5,20S9,20.672,9,21.5S8.328,23,7.5,23z M14.5,26c-1.381,0-2.5-1.119-2.5-2.5c0-1.381,1.119-2.5,2.5-2.5s2.5,1.119,2.5,2.5C17,24.881,15.881,26,14.5,26z M22,25c0,0.553-0.447,1-1,1s-1-0.447-1-1v-3c0-0.553,0.447-1,1-1s1,0.447,1,1V25z M26,25c0,0.553-0.447,1-1,1s-1-0.447-1-1v-3c0-0.553,0.447-1,1-1s1,0.447,1,1V25z M30,25c0,0.553-0.447,1-1,1s-1-0.447-1-1v-3c0-0.553,0.447-1,1-1s1,0.447,1,1V25z M35.5,26c-1.381,0-2.5-1.119-2.5-2.5c0-1.381,1.119-2.5,2.5-2.5s2.5,1.119,2.5,2.5C38,24.881,36.881,26,35.5,26z M42.5,23c-0.828,0-1.5-0.672-1.5-1.5s0.672-1.5,1.5-1.5s1.5,0.672,1.5,1.5S43.328,23,42.5,23z"/></svg>