<?xml version="1.0" encoding="iso-8859-1"?><!-- Generator: Adobe Illustrator 19.1.1, SVG Export Plug-In . SVG Version: 6.00 Build 0)  --><svg xmlns="http://www.w3.org/2000/svg" xmlns:xlink="http://www.w3.org/1999/xlink" viewBox="0 0 50 50" width="50px" height="50px"><path d="M38,3H23c-0.266,0-0.52,0.105-0.707,0.293l-6.999,6.999c-0.001,0.001-0.002,0.002-0.003,0.003l-6.999,6.999C8.105,17.48,8,17.734,8,18v25c0,2.206,1.794,4,4,4h26c2.206,0,4-1.794,4-4V7C42,4.794,40.206,3,38,3z M25,36c-3.3,0-6-2.5-6-5.6c0-3.7,6-10.4,6-10.4s6,6.7,6,10.4C31,33.5,28.3,36,25,36z M32,10H18.414l5-5H37L32,10z"/><g><path d="M9.172,13.586l4.708-4.708l0.706-0.706l-1.879-1.879c-0.391-0.391-1.023-0.391-1.414,0l-4,4c-0.391,0.391-0.391,1.023,0,1.414L9.172,13.586z"/></g></svg>