<?xml version="1.0" encoding="iso-8859-1"?>
<!-- Generator: Adobe Illustrator 23.0.3, SVG Export Plug-In . SVG Version: 6.00 Build 0)  -->
<svg version="1.1" id="Layer_1" xmlns="http://www.w3.org/2000/svg" xmlns:xlink="http://www.w3.org/1999/xlink" x="0px" y="0px"
	 viewBox="0 0 50 50" style="enable-background:new 0 0 50 50;" xml:space="preserve">
<path style="fill:none;stroke:#000000;stroke-width:2;stroke-linecap:round;stroke-linejoin:round;" d="M23,40H6
	c-2.761,0-5-2.239-5-5V16c0-2.761,2.239-5,5-5h17c2.761,0,5,2.239,5,5v19C28,37.761,25.761,40,23,40z"/>
<line style="fill:none;stroke:#000000;stroke-width:2;stroke-linecap:round;stroke-linejoin:round;" x1="3" y1="45" x2="7" y2="40"/>
<line style="fill:none;stroke:#000000;stroke-width:2;stroke-linecap:round;stroke-linejoin:round;" x1="26" y1="45" x2="22" y2="40"/>
<path style="fill:none;stroke:#000000;stroke-width:2;stroke-linecap:round;stroke-linejoin:round;" d="M6,19h17
	c0.552,0,1,0.448,1,1v7c0,0.552-0.448,1-1,1H6c-0.552,0-1-0.448-1-1v-7C5,19.448,5.448,19,6,19z"/>
<path style="fill:none;stroke:#000000;stroke-width:2;stroke-linecap:round;stroke-linejoin:round;" d="M20,7H9C7.895,7,7,7.895,7,9
	v2h15V9C22,7.895,21.105,7,20,7z"/>
<path style="fill:none;stroke:#000000;stroke-width:2;stroke-linecap:round;stroke-linejoin:round;" d="M10,15h9
	c1.105,0,2,0.895,2,2v2H8v-2C8,15.895,8.895,15,10,15z"/>
<circle style="fill:none;stroke:#000000;stroke-width:2;stroke-linecap:round;stroke-linejoin:round;" cx="7" cy="34" r="2"/>
<circle style="fill:none;stroke:#000000;stroke-width:2;stroke-linecap:round;stroke-linejoin:round;" cx="22" cy="34" r="2"/>
<circle style="fill:none;stroke:#000000;stroke-width:2;" cx="36" cy="37" r="4"/>
<path style="fill:none;stroke:#000000;stroke-width:2;stroke-linejoin:round;" d="M50,19l-5.923,0c-1.065,0-2.069,0.502-2.708,1.354
	L37.361,26c0,0-2.592-2.769-4.284-1.923c-0.95,0.476-0.846,3.385-0.846,3.385C29.692,24.923,28.5,27.523,28,28.09"/>
<path style="fill:none;stroke:#000000;stroke-width:2;" d="M28,37h4"/>
<line style="fill:none;stroke:#000000;stroke-width:2;" x1="40" y1="37" x2="50" y2="37"/>
<polyline style="fill:none;stroke:#000000;stroke-width:2;stroke-linecap:round;stroke-linejoin:round;" points="30.021,11.596 
	32,8.362 35.043,14.234 40.319,11.723 39.638,16.106 44.021,15.915 "/>
<line style="fill:none;stroke:#000000;stroke-width:2;" x1="37.265" y1="26" x2="50" y2="26"/>
</svg>