<?xml version="1.0" encoding="iso-8859-1"?>
<!-- Generator: Adobe Illustrator 22.1.0, SVG Export Plug-In . SVG Version: 6.00 Build 0)  -->
<svg version="1.1" id="Layer_1" xmlns="http://www.w3.org/2000/svg" xmlns:xlink="http://www.w3.org/1999/xlink" x="0px" y="0px"
	 viewBox="0 0 50 50" style="enable-background:new 0 0 50 50;" xml:space="preserve">
<path style="fill:none;stroke:#000000;stroke-width:2;stroke-miterlimit:10;" d="M1,12h4.017c1.634,0,3.165,0.798,4.1,2.138L16,24H1
	"/>
<circle style="fill:none;stroke:#000000;stroke-width:2;stroke-miterlimit:10;" cx="17.5" cy="40.5" r="6.5"/>
<path d="M24,10c-2.206,0-4-1.794-4-4s1.794-4,4-4s4,1.794,4,4S26.206,10,24,10z"/>
<path d="M47.488,22.396c0,0-7.188-4.102-7.304-4.151c-0.077-0.034-0.156-0.064-0.236-0.09c-0.609-0.203-1.283-0.212-1.928,0.01
	l-6.098,2.033l-1.546-3.699c0,0,4.399-1.053,4.453-1.066c0.657-0.157,1.226-0.574,1.573-1.16l3.25-5.5
	c0.214-0.362,0.326-0.755,0.345-1.147c0.044-0.897-0.398-1.788-1.226-2.277c-1.184-0.701-2.72-0.308-3.424,0.88l-2.659,4.5
	l-7.941,1.344c-0.331,0.056-0.66,0.141-0.983,0.276C22.039,13.069,21.001,14.74,21,16.5c0,0.579,0.111,1.168,0.348,1.735l3.5,8.375
	c0.418,0.999,1.159,1.759,2.046,2.229c0,0.003,8.782,4.352,8.782,4.352l2.566,5.99C38.73,40.319,39.838,41,41.001,41
	c0.395,0,0.796-0.078,1.181-0.243C43.319,40.27,43.999,39.163,44,38c0-0.395-0.077-0.796-0.242-1.182l-2.99-6.976
	c-0.252-0.604-0.703-1.131-1.322-1.471l-4.311-2.371l3.695-1.642l5.682,3.246c0.47,0.269,0.98,0.396,1.485,0.396
	c1.042,0,2.054-0.542,2.607-1.512C48.873,26.018,49,25.505,49,25C48.999,23.96,48.456,22.949,47.488,22.396z"/>
<path d="M25.957,30.606c-1.33-0.706-2.379-1.851-2.954-3.224l-1.377-3.296l-5.433-1.067l-0.887-0.014L16,24H1v18h10.181
	C11.067,41.518,11,41.017,11,40.5c0-3.59,2.91-6.5,6.5-6.5s6.5,2.91,6.5,6.5c0,0.517-0.067,1.018-0.181,1.5H27c2.206,0,4-1.794,4-4
	v-4.893l-0.002-0.002L25.957,30.606z"/>
</svg>