<?xml version="1.0" encoding="utf-8"?><!-- Generator: Adobe Illustrator 17.1.0, SVG Export Plug-In . SVG Version: 6.00 Build 0)  --><!DOCTYPE svg PUBLIC "-//W3C//DTD SVG 1.0//EN" "http://www.w3.org/TR/2001/REC-SVG-20010904/DTD/svg10.dtd"><svg xmlns="http://www.w3.org/2000/svg" xmlns:xlink="http://www.w3.org/1999/xlink" viewBox="0 0 50 50" width="500px" height="500px"><rect style="fill:none;" width="50" height="50"/><path style="fill:none;stroke:#000000;stroke-width:2;stroke-linejoin:round;stroke-miterlimit:10;" d="M49,36V19.4c0-0.9-0.4-1.8-1-2.4L37,6"/><path style="fill:none;stroke:#000000;stroke-width:2;stroke-linejoin:round;stroke-miterlimit:10;" d="M43,12v8.6c0,0.9,0.4,1.8,1,2.4l5,5"/><path style="fill:none;stroke:#000000;stroke-width:2;stroke-linejoin:round;stroke-miterlimit:10;" d="M39,31v5"/><rect x="3" y="45" style="fill:none;stroke:#000000;stroke-width:2;stroke-linejoin:round;stroke-miterlimit:10;" width="33" height="4"/><path style="fill:none;stroke:#000000;stroke-width:2;stroke-linejoin:round;stroke-miterlimit:10;" d="M34,45H5V5.3C5,2.9,6.9,1,9.3,1h20.4C32.1,1,34,2.9,34,5.3V45z"/><path style="fill:none;stroke:#000000;stroke-width:2;stroke-linejoin:round;stroke-miterlimit:10;" d="M28.1,19H10.9C9.9,19,9,18.1,9,17.1V6.9C9,5.9,9.9,5,10.9,5h17.2C29.1,5,30,5.9,30,6.9v10.2C30,18.1,29.1,19,28.1,19z"/><path style="fill:none;stroke:#000000;stroke-width:2;stroke-linejoin:round;stroke-miterlimit:10;" d="M49,36c0,2.8-2.2,5-5,5s-5-2.2-5-5"/><path style="fill:none;stroke:#000000;stroke-width:2;stroke-linejoin:round;stroke-miterlimit:10;" d="M34,26c2.8,0,5,2.2,5,5"/></svg>