<?xml version="1.0" encoding="iso-8859-1"?><!-- Generator: Adobe Illustrator 22.1.0, SVG Export Plug-In . SVG Version: 6.00 Build 0)  --><svg xmlns="http://www.w3.org/2000/svg" xmlns:xlink="http://www.w3.org/1999/xlink" viewBox="0 0 50 50" width="500px" height="500px"><path style="fill:none;stroke:#000000;stroke-width:2;stroke-miterlimit:10;" d="M49,30H1V19.056C1,17.921,1.921,17,3.056,17h43.887C48.079,17,49,17.921,49,19.056V30z"/><path style="fill:none;stroke:#000000;stroke-width:2;stroke-miterlimit:10;" d="M46,17H4V9.793C4,8.803,4.803,8,5.793,8h38.414C45.197,8,46,8.803,46,9.793V17z"/><polygon style="fill:none;stroke:#000000;stroke-width:2;stroke-linejoin:round;stroke-miterlimit:10;" points="31.4,35 18.6,35 16,30 34,30 "/><path style="fill:none;stroke:#000000;stroke-width:2;stroke-miterlimit:10;" d="M47.656,41h-4.313C42.602,41,42,40.398,42,39.656V30h7v9.656C49,40.398,48.398,41,47.656,41z"/><path style="fill:none;stroke:#000000;stroke-width:2;stroke-miterlimit:10;" d="M6.656,41H2.344C1.602,41,1,40.398,1,39.656V30h7v9.656C8,40.398,7.398,41,6.656,41z"/><line style="fill:none;stroke:#000000;stroke-width:2;stroke-miterlimit:10;" x1="8" y1="37" x2="18" y2="32"/><line style="fill:none;stroke:#000000;stroke-width:2;stroke-miterlimit:10;" x1="42" y1="37" x2="33" y2="32.5"/><line style="fill:none;stroke:#000000;stroke-width:2;stroke-miterlimit:10;" x1="25" y1="7" x2="25" y2="17"/><line style="fill:none;stroke:#000000;stroke-width:2;stroke-linecap:round;stroke-miterlimit:10;" x1="21" y1="22" x2="21" y2="25"/><line style="fill:none;stroke:#000000;stroke-width:2;stroke-linecap:round;stroke-miterlimit:10;" x1="25" y1="22" x2="25" y2="25"/><line style="fill:none;stroke:#000000;stroke-width:2;stroke-linecap:round;stroke-miterlimit:10;" x1="29" y1="22" x2="29" y2="25"/><circle style="fill:none;stroke:#000000;stroke-width:2;stroke-miterlimit:10;" cx="14.5" cy="23.5" r="2.5"/><circle style="fill:none;stroke:#000000;stroke-width:2;stroke-miterlimit:10;" cx="35.5" cy="23.5" r="2.5"/><circle cx="42.5" cy="21.5" r="1.5"/><circle cx="7.5" cy="21.5" r="1.5"/></svg>