<?xml version="1.0" encoding="iso-8859-1"?>
<!-- Generator: Adobe Illustrator 23.0.6, SVG Export Plug-In . SVG Version: 6.00 Build 0)  -->
<svg version="1.1" id="&#x421;&#x43B;&#x43E;&#x439;_1"
	 xmlns="http://www.w3.org/2000/svg" xmlns:xlink="http://www.w3.org/1999/xlink" x="0px" y="0px" viewBox="0 0 50 50"
	 style="enable-background:new 0 0 50 50;" xml:space="preserve">
<path d="M37,25.5c0,0-10.5,5.5-20.125,5.5C12.526,31,9,28.538,9,25.5s3.526-5.5,7.875-5.5C26.5,20,37,25.5,37,25.5z"/>
<path style="fill:none;stroke:#000000;stroke-width:2;stroke-linecap:square;stroke-linejoin:round;stroke-miterlimit:10;" d="M2,20
	c5.25,0,8.75-5,15.75-5C26.062,15,37,20,44,20"/>
<path style="fill:none;stroke:#000000;stroke-width:2;stroke-linecap:square;stroke-linejoin:round;stroke-miterlimit:10;" d="M2,13
	c5.25,0,8.75-5,15.75-5C26.062,8,37,13,44,13"/>
<path style="fill:none;stroke:#000000;stroke-width:2;stroke-linecap:square;stroke-linejoin:round;stroke-miterlimit:10;" d="M2,31
	c5.25,0,8.75,5,15.75,5C26.062,36,37,31,44,31"/>
<path style="fill:none;stroke:#000000;stroke-width:2;stroke-linecap:square;stroke-linejoin:round;stroke-miterlimit:10;" d="M2,38
	c5.25,0,8.75,5,15.75,5C26.062,43,37,38,44,38"/>
<path d="M44,10c0,2,0,4,0,6c1.667-1,3.333-2,5-3C47.333,12,45.667,11,44,10z"/>
<path d="M44,17c0,2,0,4,0,6c1.667-1,3.333-2,5-3C47.333,19,45.667,18,44,17z"/>
<path d="M44,28c0,2,0,4,0,6c1.667-1,3.333-2,5-3C47.333,30,45.667,29,44,28z"/>
<path d="M44,35c0,2,0,4,0,6c1.667-1,3.333-2,5-3C47.333,37,45.667,36,44,35z"/>
</svg>