<?xml version="1.0" encoding="iso-8859-1"?>
<!-- Generator: Adobe Illustrator 22.1.0, SVG Export Plug-In . SVG Version: 6.00 Build 0)  -->
<svg version="1.1" id="Layer_1" xmlns="http://www.w3.org/2000/svg" xmlns:xlink="http://www.w3.org/1999/xlink" x="0px" y="0px"
	 viewBox="0 0 50 50" style="enable-background:new 0 0 50 50;" xml:space="preserve">
<path d="M15,1H4C3.447,1,3,1.448,3,2v8c0,0.553,0.447,1,1,1h11c0.553,0,1-0.447,1-1V2C16,1.448,15.553,1,15,1z"/>
<path d="M40,35c1.175-0.469,2.33-0.616,3.4-0.616c1.809,0,3.374,0.421,4.387,0.421c0.765,0,1.214-0.24,1.214-1.084
	C49,33,47.704,29,42,29c-4.525,0-9,3.574-9,8c0,2.74,1.19,3,2,3C36.659,40,36,36.598,40,35z"/>
<path d="M37.165,15.5c1.106,0,1.833-0.212,2.287-0.667c0.565-0.568,0.562-1.369,0.559-2.143l-0.001-0.191l0.001-0.19
	c0.003-0.773,0.007-1.573-0.559-2.141C38.998,9.712,38.272,9.5,37.169,9.5c-0.002,0-0.003,0-0.004,0
	c-2.791,0-4.977,1.317-4.977,2.999C32.188,14.182,34.374,15.5,37.165,15.5z"/>
<line style="fill:none;stroke:#000000;stroke-width:2;stroke-linecap:round;stroke-linejoin:round;stroke-miterlimit:10;" x1="33" y1="12" x2="27" y2="12"/>
<g>
	<path d="M42,40c1.103,0,2-0.897,2-2c0-0.661-0.326-1.243-0.821-1.607c-0.897,0.022-1.7,0.17-2.437,0.464
		c-0.188,0.075-0.357,0.155-0.516,0.238C40.087,37.369,40,37.673,40,38C40,39.103,40.897,40,42,40z"/>
	<path d="M47.786,36.805c-0.577,0-1.203-0.09-1.865-0.186c-0.06-0.009-0.128-0.016-0.189-0.025C45.898,37.034,46,37.504,46,38
		c0,2.206-1.794,4-4,4c-1.738,0-3.205-1.12-3.756-2.672c-0.024,0.048-0.048,0.096-0.071,0.144c-0.357,0.735-0.909,1.845-2.048,2.307
		C37.384,43.731,39.565,45,42,45c3.859,0,7-3.141,7-7c0-0.455-0.059-0.903-0.146-1.345C48.535,36.743,48.191,36.805,47.786,36.805z"
		/>
</g>
<g>
	<path d="M13,40c0.843,0,1.563-0.527,1.856-1.267l-3.827-1.021C11.015,37.807,11,37.902,11,38C11,39.103,11.897,40,13,40z"/>
	<path d="M19.353,39.933l-2.572-0.686C16.254,40.84,14.768,42,13,42c-2.206,0-4-1.794-4-4c0-0.277,0.034-0.545,0.089-0.806
		l-2.895-0.772C6.075,36.938,6,37.465,6,38c0,3.859,3.141,7,7,7c3.172,0,5.854-2.123,6.711-5.021
		C19.591,39.97,19.47,39.964,19.353,39.933z"/>
</g>
<path d="M18.436,25C22.015,25,25,24.387,25,23.368C25,22.351,24.427,21,23.717,21h-9.435C13.573,21,13,22.351,13,23.368
	C13,24.386,14.859,25,18.436,25z"/>
<g>
	<path d="M14,22v-0.923c-0.494,0.253-0.879,1.12-0.975,1.918C13.565,22.981,14,22.543,14,22z"/>
	<path d="M14,19.021V14c0-0.552-0.447-1-1-1H2c-0.553,0-1,0.448-1,1v8c0,0.552,0.447,1,1,1h9.015
		C11.141,21.347,12.102,19.217,14,19.021z"/>
</g>
<path d="M11.499,25H1c-0.553,0-1,0.448-1,1c0,0.553,0.447,1,1,1h13c0.277,0,0.527-0.112,0.708-0.294
	C13.413,26.444,12.165,25.945,11.499,25z"/>
<g>
	<path d="M38.508,17.379c-0.414,0.073-0.854,0.121-1.343,0.121c-1.474,0-2.813-0.297-3.916-0.814
		c0.863,6.561-0.426,12.918-3.421,16.507C28.272,35.056,26.401,36,24.267,36c-0.987,0-1.571-0.649-1.888-1.195
		c-0.856-1.475-1.003-4.369,0.924-8.243C22.013,26.851,20.395,27,18.436,27c-1.532,0-5.659-0.008-7-2.105
		c-5.606,2.597-7.32,7.558-7.398,7.831C3.963,32.992,4,33.278,4.143,33.515S4.52,33.92,4.79,33.978L19.869,38h11.189
		C31.023,37.69,31,37.362,31,37c0-5.327,5.14-10,11-10c0.181,0,0.352,0.01,0.525,0.018C42.167,23.011,40.235,19.651,38.508,17.379z"
		/>
</g>
</svg>