<?xml version="1.0" encoding="utf-8"?><!-- Generator: Adobe Illustrator 18.1.1, SVG Export Plug-In . SVG Version: 6.00 Build 0)  --><svg xmlns="http://www.w3.org/2000/svg" xmlns:xlink="http://www.w3.org/1999/xlink" viewBox="0 0 50 50" width="500px" height="500px"><rect fill="none" width="50" height="50"/><polyline fill="none" stroke="#000000" stroke-width="2" stroke-linejoin="round" stroke-miterlimit="10" points="30.8,29 35,34 35,38 30,36.2 "/><polyline fill="none" stroke="#000000" stroke-width="2" stroke-linejoin="round" stroke-miterlimit="10" points="19.2,29 15,34 15,38 20,36.2 "/><path fill="none" stroke="#000000" stroke-width="2" stroke-linecap="round" stroke-linejoin="round" stroke-miterlimit="10" d="M21.6,41c-0.3,0.7-0.6,1.4-0.6,2.2c0,2.5,4,5.8,4,5.8s4-3.3,4-5.8c0-0.8-0.2-1.6-0.6-2.2"/><path fill="none" stroke="#000000" stroke-width="2" stroke-linejoin="round" stroke-miterlimit="10" d="M25,1c0,0-7,5.5-7,12.9c0,4.6,1.8,19.4,2.2,23.2c0.1,0.5,0.5,0.9,1,0.9l7.6,0c0.5,0,0.9-0.4,1-0.9c0.5-3.8,2.2-18.7,2.2-23.2C32,6.5,25,1,25,1z"/><circle fill="none" stroke="#000000" stroke-width="2" stroke-miterlimit="10" cx="25" cy="14" r="3"/></svg>