<?xml version="1.0" encoding="utf-8"?><!-- Generator: Adobe Illustrator 15.0.0, SVG Export Plug-In . SVG Version: 6.00 Build 0)  --><!DOCTYPE svg PUBLIC "-//W3C//DTD SVG 1.1//EN" "http://www.w3.org/Graphics/SVG/1.1/DTD/svg11.dtd"><svg xmlns="http://www.w3.org/2000/svg" xmlns:xlink="http://www.w3.org/1999/xlink" viewBox="0 0 50 50" width="50px" height="50px"><path d="M45.661,20.546l-11.09-1.479l-5.548-8.036c-0.315-0.456-0.938-0.569-1.392-0.254c-0.454,0.313-0.568,0.937-0.255,1.391L32.094,19H12l-7.895,1.419C1.727,20.851,0,22.919,0,25.338V31c0,1.654,1.346,3,3,3h1.09c0.479,2.833,2.942,5,5.91,5s5.431-2.167,5.91-5h18.18c0.479,2.833,2.943,5,5.91,5s5.432-2.167,5.91-5H47c1.654,0,3-1.346,3-3v-5.498C50,23.006,48.135,20.875,45.661,20.546z M10,37c-2.206,0-4-1.794-4-4s1.794-4,4-4s4,1.794,4,4S12.206,37,10,37z M40,37c-2.206,0-4-1.794-4-4s1.794-4,4-4s4,1.794,4,4S42.206,37,40,37z"/><path d="M21.277,18l-1.048-2.62C19.895,14.542,19.095,14,18.193,14C16.984,14,16,14.984,16,16.193V18H21.277z"/></svg>