<?xml version="1.0" encoding="utf-8"?><!-- Generator: Adobe Illustrator 15.0.0, SVG Export Plug-In . SVG Version: 6.00 Build 0)  --><!DOCTYPE svg PUBLIC "-//W3C//DTD SVG 1.1//EN" "http://www.w3.org/Graphics/SVG/1.1/DTD/svg11.dtd"><svg xmlns="http://www.w3.org/2000/svg" xmlns:xlink="http://www.w3.org/1999/xlink" viewBox="0 0 50 50" width="50px" height="50px"><path d="M9.621,39.5c-0.715,0-1.314-0.092-1.779-0.273l-1.765-0.688c-0.544-0.214-0.894-0.657-0.936-1.187c-0.082-1.005,0.912-1.717,1.666-2.165l11.602-7.824l-1.695-0.662C8.15,23.356-1.663,18.354,0.222,13.522l3.5-8.96C4.06,3.701,4.774,3.187,5.635,3.187c1.399,0,2.95,1.402,3.129,2.831c0.119,0.988,0.608,4.368,0.755,5.38c0.162,1.128,0.27,1.313,0.613,1.446c0.95,0.37,31.942,12.472,31.942,12.472c6.897,2.693,8.637,8.457,7.673,10.926c-0.251,0.646-0.885,0.973-1.883,0.973l0,0c-2.229,0-7.509-1.567-16.608-4.932l-18.528,6.683C11.795,39.305,10.662,39.5,9.621,39.5z"/><g><path d="M18.94,14.136c3.072,1.2,6.657,2.599,10.107,3.946L24.372,9.15c-0.688-1.319-2.12-2.995-3.419-3.503L19.19,4.959c-0.632-0.248-1.292-0.07-1.661,0.426c-0.404,0.542-0.427,1.348-0.086,2.481L18.94,14.136z"/></g><g><path d="M33.032,35.063C33.014,35.206,33,35.352,33,35.5c0,1.93,1.57,3.5,3.5,3.5c1.274,0,2.381-0.692,2.993-1.713C37.647,36.694,35.512,35.958,33.032,35.063z"/></g></svg>