<?xml version="1.0" encoding="utf-8"?><!-- Generator: Adobe Illustrator 18.1.1, SVG Export Plug-In . SVG Version: 6.00 Build 0)  --><svg xmlns="http://www.w3.org/2000/svg" xmlns:xlink="http://www.w3.org/1999/xlink" viewBox="0 0 50 50" width="500px" height="500px"><path fill="none" stroke="#000000" stroke-width="2" stroke-miterlimit="10" d="M48,43v4c0,1.1-0.9,2-2,2h-6c-1.1,0-2-0.9-2-2v-4"/><path fill="none" stroke="#000000" stroke-width="2" stroke-miterlimit="10" d="M12,43v4c0,1.1-0.9,2-2,2H4c-1.1,0-2-0.9-2-2v-4"/><path fill="none" stroke="#000000" stroke-width="2" stroke-linejoin="round" stroke-miterlimit="10" d="M48,22v-2c0-1.7-1.7-9.3-2.9-14.4C44.5,2.9,42,1,39.3,1H10.7C7.9,1,5.5,2.9,4.9,5.6C3.7,10.6,2,18.2,2,20v2"/><path fill="none" stroke="#000000" stroke-width="2" stroke-miterlimit="10" d="M2,22v21h46V22H2z"/><circle fill="none" stroke="#000000" stroke-width="2" stroke-miterlimit="10" cx="40" cy="33" r="3"/><circle fill="none" stroke="#000000" stroke-width="2" stroke-miterlimit="10" cx="10" cy="33" r="3"/></svg>