<?xml version="1.0" encoding="iso-8859-1"?>
<!-- Generator: Adobe Illustrator 23.1.0, SVG Export Plug-In . SVG Version: 6.00 Build 0)  -->
<svg version="1.1" id="Layer_1" xmlns="http://www.w3.org/2000/svg" xmlns:xlink="http://www.w3.org/1999/xlink" x="0px" y="0px"
	 viewBox="0 0 50 50" style="enable-background:new 0 0 50 50;" xml:space="preserve">
<line style="fill:none;stroke:#000000;stroke-width:2;stroke-miterlimit:10;" x1="35.415" y1="14.195" x2="38.415" y2="14.195"/>
<line style="fill:none;stroke:#000000;stroke-width:2;stroke-miterlimit:10;" x1="12.415" y1="14.195" x2="15.415" y2="14.195"/>
<g>
	<path d="M19,21v-3h2v3h9v-3h2v3h4v-8.887c0-1.592-0.882-3.079-2.246-3.788c-5.547-2.877-11.162-2.879-16.688,0.002
		c-1.358,0.708-2.236,2.192-2.236,3.781V21H19z M29.415,8.733c1.133,0.322,2.271,0.774,3.417,1.368
		c0.594,0.308,0.993,0.916,1.114,1.605l-4.531-1.51V8.733z M31.689,14.063l-1.549,1.266c-0.001,0-1.223-1.304-4.797-1.304
		c-3.367,0-4.571,1.307-4.583,1.319l-1.535-1.281c0.17-0.208,1.789-2.038,6.118-2.038C29.894,12.025,31.52,13.855,31.689,14.063z
		 M17.99,10.101c1.147-0.598,2.288-1.052,3.425-1.374v1.469l-4.531,1.51C17.003,11.017,17.4,10.409,17.99,10.101z"/>
	<path d="M13.83,23v24c0,0.553,0.447,1,1,1H36c0.553,0,1-0.447,1-1V23H13.83z"/>
</g>
<rect x="42" y="10" width="2" height="2"/>
<rect x="42" y="14" width="2" height="2"/>
<rect x="42" y="18" width="2" height="2"/>
<rect x="42" y="6" width="2" height="2"/>
<rect x="42" y="22" width="2" height="2"/>
<rect x="42" y="26" width="2" height="2"/>
<rect x="42" y="30" width="2" height="2"/>
<rect x="42" y="34" width="2" height="2"/>
<rect x="42" y="38" width="2" height="2"/>
<rect x="42" y="42" width="2" height="2"/>
<rect x="42" y="46" width="2" height="2"/>
<rect x="7" y="10" width="2" height="2"/>
<rect x="7" y="14" width="2" height="2"/>
<rect x="7" y="18" width="2" height="2"/>
<rect x="7" y="6" width="2" height="2"/>
<rect x="7" y="22" width="2" height="2"/>
<rect x="7" y="26" width="2" height="2"/>
<rect x="7" y="30" width="2" height="2"/>
<rect x="7" y="34" width="2" height="2"/>
<rect x="7" y="38" width="2" height="2"/>
<rect x="7" y="42" width="2" height="2"/>
<rect x="7" y="46" width="2" height="2"/>
<rect x="7" y="2" width="37" height="2"/>
</svg>