<?xml version="1.0" encoding="iso-8859-1"?><!-- Generator: Adobe Illustrator 19.1.1, SVG Export Plug-In . SVG Version: 6.00 Build 0)  --><svg xmlns="http://www.w3.org/2000/svg" xmlns:xlink="http://www.w3.org/1999/xlink" viewBox="0 0 50 50" width="500px" height="500px"><path style="fill:none;stroke:#000000;stroke-width:2;stroke-miterlimit:10;" d="M27,36c0,0,8.21,2.783,8.615,2.931c0.311,0.114,0.404-0.046,0.385-0.254c-0.016-0.184,0.051-0.384,0.001-0.824c-0.041-0.36-0.221-0.472-0.352-0.576C35.518,37.172,27,32,27,32v-7.376C27,22.694,25.532,22,25.025,22C24.517,22,23,22.694,23,24.624V32c0,0-8.478,5.172-8.609,5.276c-0.131,0.104-0.311,0.216-0.352,0.576c-0.05,0.44,0.017,0.641,0.001,0.824c-0.019,0.208,0.073,0.368,0.385,0.254C14.829,38.783,23,36,23,36v7c0,0-2.301,1.683-2.734,1.898c-0.209,0.103-0.246,0.097-0.251,0.592v0.36c0,0.064,0.025,0.176,0.184,0.144C20.445,45.945,25,44,25,44s4.586,1.945,4.832,1.994c0.159,0.032,0.184-0.08,0.184-0.144v-0.36c-0.005-0.495-0.042-0.489-0.251-0.592C29.332,44.683,27,43,27,43V36z"/><line style="fill:none;stroke:#000000;stroke-width:2;stroke-miterlimit:10;" x1="10" y1="47" x2="10" y2="3"/><line style="fill:none;stroke:#000000;stroke-width:2;stroke-miterlimit:10;" x1="25" y1="9" x2="25" y2="3"/><line style="fill:none;stroke:#000000;stroke-width:2;stroke-miterlimit:10;" x1="25" y1="18" x2="25" y2="12"/><line style="fill:none;stroke:#000000;stroke-width:2;stroke-miterlimit:10;" x1="40" y1="3" x2="40" y2="47"/></svg>