<?xml version="1.0" encoding="iso-8859-1"?><!-- Generator: Adobe Illustrator 19.2.1, SVG Export Plug-In . SVG Version: 6.00 Build 0)  --><svg xmlns="http://www.w3.org/2000/svg" xmlns:xlink="http://www.w3.org/1999/xlink" viewBox="0 0 50 50" width="500px" height="500px"><path style="fill:none;stroke:#000000;stroke-width:2;stroke-linejoin:round;stroke-miterlimit:10;" d="M42,17c3.004,7.78,3,21,3,21s-2.383,5.422-8.084,9C30.495,46.718,8.773,36.146,4.533,33.693c0,0-1.533-5.346-1.533-11.471C3,11.606,11.606,3,22.222,3C33.15,3,40.837,12.241,42,17z"/><circle style="fill:none;stroke:#000000;stroke-width:2;stroke-linejoin:round;stroke-miterlimit:10;" cx="20" cy="21" r="4"/><circle cx="20" cy="21" r="1.5"/><path style="fill:none;stroke:#000000;stroke-width:2;stroke-linecap:round;stroke-linejoin:round;stroke-miterlimit:10;" d="M22.987,18c13.578,0,18.906-1.294,18.906-1.294"/><path style="fill:none;stroke:#000000;stroke-width:2;stroke-linecap:round;stroke-linejoin:round;stroke-miterlimit:10;" d="M19.635,25.124c0,0,11.406,10.359,25.365,12.876"/></svg>