<?xml version="1.0" encoding="iso-8859-1"?><!-- Generator: Adobe Illustrator 19.2.1, SVG Export Plug-In . SVG Version: 6.00 Build 0)  --><svg xmlns="http://www.w3.org/2000/svg" xmlns:xlink="http://www.w3.org/1999/xlink" viewBox="0 0 50 50" width="500px" height="500px"><path style="fill:none;stroke:#000000;stroke-width:2;stroke-linecap:round;stroke-miterlimit:10;" d="M40,10l-1.478,6.651C38.217,18.023,37,19,35.593,19H14.407c-1.406,0-2.624-0.977-2.929-2.349L10,10"/><polygon points="42.446,10 42.004,12 50,12 50,10 "/><polygon points="12.993,12 12.551,10 20,10 20,12 "/><line style="fill:none;stroke:#000000;stroke-width:2;stroke-miterlimit:10;" x1="30" y1="11" x2="40" y2="11"/><line style="fill:none;stroke:#000000;stroke-width:2;stroke-miterlimit:10;" x1="0" y1="11" x2="10" y2="11"/><path style="fill:none;stroke:#000000;stroke-width:2;stroke-linecap:round;stroke-miterlimit:10;" d="M26.64,25H23.36C21.504,25,20,23.496,20,21.64V19h10v2.64C30,23.496,28.496,25,26.64,25z"/><path style="fill:none;stroke:#000000;stroke-width:2;stroke-linecap:round;stroke-miterlimit:10;" d="M39,39v-8.104C39,26.535,35.465,23,31.104,23H30"/><path style="fill:none;stroke:#000000;stroke-width:2;stroke-linecap:round;stroke-miterlimit:10;" d="M11,39v-8.104C11,26.535,14.535,23,18.896,23H20"/></svg>