<?xml version="1.0" encoding="iso-8859-1"?>
<!-- Generator: Adobe Illustrator 24.1.2, SVG Export Plug-In . SVG Version: 6.00 Build 0)  -->
<svg version="1.1" baseProfile="basic" id="Layer_1"
	 xmlns="http://www.w3.org/2000/svg" xmlns:xlink="http://www.w3.org/1999/xlink" x="0px" y="0px" viewBox="0 0 50 50"
	 xml:space="preserve">
<circle style="fill:none;stroke:#000000;stroke-width:2;stroke-miterlimit:10;" cx="39" cy="33" r="5"/>
<circle style="fill:none;stroke:#000000;stroke-width:2;stroke-miterlimit:10;" cx="11" cy="33" r="5"/>
<path style="fill:none;stroke:#000000;stroke-width:2;stroke-miterlimit:10;" d="M6,33H3c-1.1,0-2-0.9-2-2v-6.53
	c0-1.99,1.46-3.68,3.43-3.96L8,20l3.83-6.12c0.73-1.17,2.01-1.88,3.39-1.88H29c1.26,0,2.45,0.59,3.2,1.6L37,20l8.66,1.44
	c1.93,0.33,3.34,1.99,3.34,3.95V31c0,1.1-0.9,2-2,2h-3"/>
<path style="fill:none;stroke:#000000;stroke-width:2;stroke-miterlimit:10;" d="M34,33H16"/>
<path style="fill:none;stroke:#000000;stroke-width:2;stroke-miterlimit:10;" d="M22,33l5-11h-7l5-10"/>
</svg>