<?xml version="1.0" encoding="iso-8859-1"?><!-- Generator: Adobe Illustrator 21.0.2, SVG Export Plug-In . SVG Version: 6.00 Build 0)  --><svg xmlns="http://www.w3.org/2000/svg" xmlns:xlink="http://www.w3.org/1999/xlink" viewBox="0 0 50 50" width="500px" height="500px"><path style="fill:none;stroke:#000000;stroke-width:2;stroke-miterlimit:10;" d="M41.475,8.36C39.194,7.736,35.37,7,30,7s-9.194,0.736-11.475,1.36C17.025,8.771,16,10.077,16,11.563V35h28V11.563C44,10.077,42.974,8.771,41.475,8.36z"/><line style="fill:none;stroke:#000000;stroke-width:2;stroke-miterlimit:10;" x1="16" y1="24" x2="44" y2="24"/><line style="fill:none;stroke:#000000;stroke-width:2;stroke-miterlimit:10;" x1="16" y1="12" x2="44" y2="12"/><circle cx="39.5" cy="29.5" r="1.5"/><circle cx="20.5" cy="29.5" r="1.5"/><line style="fill:none;stroke:#000000;stroke-width:2;stroke-miterlimit:10;" x1="30" y1="23" x2="30" y2="12"/><path d="M45,18h1c0.552,0,1,0.448,1,1v4c0,0.552-0.448,1-1,1h-1c-0.552,0-1-0.448-1-1v-4C44,18.448,44.448,18,45,18z"/><path d="M14,18h1c0.552,0,1,0.448,1,1v4c0,0.552-0.448,1-1,1h-1c-0.552,0-1-0.448-1-1v-4C13,18.448,13.448,18,14,18z"/><path style="fill:none;stroke:#000000;stroke-width:2;stroke-miterlimit:10;" d="M39,35h5v4c0,0.55-0.45,1-1,1h-3c-0.55,0-1-0.45-1-1V35z"/><path style="fill:none;stroke:#000000;stroke-width:2;stroke-miterlimit:10;" d="M16,35h5v4c0,0.55-0.45,1-1,1h-3c-0.55,0-1-0.45-1-1V35z"/><line style="fill:none;stroke:#000000;stroke-width:2;stroke-linecap:round;stroke-linejoin:round;stroke-miterlimit:10;" x1="7" y1="9" x2="7" y2="39"/><polygon points="7,6 11,11 3,11 "/><polygon points="7,41 3,36 11,36 "/></svg>