<?xml version="1.0" encoding="iso-8859-1"?><!-- Generator: Adobe Illustrator 19.1.0, SVG Export Plug-In . SVG Version: 6.00 Build 0)  --><svg xmlns="http://www.w3.org/2000/svg" xmlns:xlink="http://www.w3.org/1999/xlink" viewBox="0 0 50 50" width="500px" height="500px"><path style="fill:none;stroke:#000000;stroke-width:2;stroke-linecap:round;stroke-linejoin:round;stroke-miterlimit:10;" d="M49,46.654C48.506,46.857,47.909,47,47.154,47c-1.538,0-3.902-0.491-5.539-2c-1.637,1.509-4,2-5.538,2c-1.538,0-3.901-0.491-5.539-2c-1.637,1.509-4,2-5.538,2s-3.901-0.491-5.539-2c-1.637,1.509-4,2-5.538,2c-1.538,0-3.901-0.491-5.538-2c-1.637,1.509-4.001,2-5.539,2C2.155,47,1.555,46.927,1,46.827"/><path style="fill:none;stroke:#000000;stroke-width:2;stroke-linecap:round;stroke-linejoin:round;stroke-miterlimit:10;" d="M49,42.654C48.506,42.857,47.909,43,47.154,43c-1.538,0-3.902-0.491-5.539-2c-1.637,1.509-4,2-5.538,2c-1.538,0-3.901-0.491-5.539-2c-1.637,1.509-4,2-5.538,2s-3.901-0.491-5.539-2c-1.637,1.509-4,2-5.538,2c-1.538,0-3.901-0.491-5.538-2c-1.637,1.509-4.001,2-5.539,2C2.155,43,1.555,42.927,1,42.827"/><path style="fill:none;stroke:#000000;stroke-width:2;stroke-linecap:round;stroke-linejoin:round;stroke-miterlimit:10;" d="M11,42.471c0,0-6-2.509-6-9.471h40c-1.32,6.701-6,9.471-6,9.471"/><path style="fill:none;stroke:#000000;stroke-width:2;stroke-linecap:round;stroke-linejoin:round;stroke-miterlimit:10;" d="M35.381,30l6.542-2c0-6.417-6.263-10.825-10.224-12.492C37.516,23.514,35.381,30,35.381,30z"/><path style="fill:none;stroke:#000000;stroke-width:2;stroke-linecap:round;stroke-linejoin:round;stroke-miterlimit:10;" d="M16,13c2.394,10.562-1,17-1,17h16.111C34.111,19.111,25.106,13,16,13z"/><path style="fill:none;stroke:#000000;stroke-width:2;stroke-linecap:round;stroke-linejoin:round;stroke-miterlimit:10;" d="M16,9c4.431-2.674,4.788,1.696,8,0"/></svg>