<?xml version="1.0" encoding="iso-8859-1"?><!-- Generator: Adobe Illustrator 20.1.0, SVG Export Plug-In . SVG Version: 6.00 Build 0)  --><svg xmlns="http://www.w3.org/2000/svg" xmlns:xlink="http://www.w3.org/1999/xlink" viewBox="0 0 50 50" width="500px" height="500px"><path style="fill:none;stroke:#000000;stroke-width:2;stroke-linejoin:round;stroke-miterlimit:10;" d="M17,24V11c0-1.105,0.895-2,2-2h12c1.105,0,2,0.895,2,2v13"/><g><g><path style="fill:none;stroke:#000000;stroke-width:2;stroke-linejoin:round;stroke-miterlimit:10;" d="M32,25v5H18v-5h-3v9c0,0.552,0.448,1,1,1h18c0.552,0,1-0.448,1-1v-9H32z"/></g></g><path style="fill:none;stroke:#000000;stroke-width:2;stroke-linejoin:round;stroke-miterlimit:10;" d="M32,37c0,1.013,1,4,1,4H17c0,0,1-2.991,1-4"/><path style="fill:none;stroke:#000000;stroke-width:2;stroke-linejoin:round;stroke-miterlimit:10;" d="M9,24V11c0-1.105-0.895-2-2-2H2"/><path style="fill:none;stroke:#000000;stroke-width:2;stroke-linejoin:round;stroke-miterlimit:10;" d="M2,30h6v-5h3v5v4c0,0.552-0.448,1-1,1H2"/><path style="fill:none;stroke:#000000;stroke-width:2;stroke-linejoin:round;stroke-miterlimit:10;" d="M2,41h7c0,0-1-2.991-1-4"/><g><g><path style="fill:none;stroke:#000000;stroke-width:2;stroke-linejoin:round;stroke-miterlimit:10;" d="M43.995,10.092l-2.285,0.653C40.698,11.034,40,11.959,40,13.012v8.976c0,1.053,0.698,1.978,1.71,2.267l2.285,0.653C45.501,25.338,47,24.207,47,22.641V12.359C47,10.793,45.501,9.662,43.995,10.092z"/></g></g></svg>