<?xml version="1.0" encoding="utf-8"?><!-- Generator: Adobe Illustrator 15.0.0, SVG Export Plug-In . SVG Version: 6.00 Build 0)  --><!DOCTYPE svg PUBLIC "-//W3C//DTD SVG 1.1//EN" "http://www.w3.org/Graphics/SVG/1.1/DTD/svg11.dtd"><svg xmlns="http://www.w3.org/2000/svg" xmlns:xlink="http://www.w3.org/1999/xlink" viewBox="0 0 50 50" width="50px" height="50px"><path d="M42.923,6C42.195,2.102,35.359,0,29,0c-6.36,0-13.195,2.102-13.922,6H42.923z"/><path d="M15,8v12.406c0,0.313,0.147,0.609,0.397,0.798c0.176,0.133,0.388,0.202,0.603,0.202c0.092,0,0.184-0.013,0.274-0.038C16.322,21.354,21.168,20,29,20c7.805,0,12.68,1.354,12.727,1.368c0.303,0.085,0.627,0.024,0.877-0.165C42.854,21.015,43,20.72,43,20.406V8H15z M29,16c-1.656,0-3-1.343-3-3s1.344-3,3-3s3,1.343,3,3S30.656,16,29,16z"/><path d="M30.756,37.145l-1.254-0.502c-0.216-0.674-0.5-1.322-0.848-1.934c-0.956-2.689,0.396-8.131,1.984-12.338c0.023-0.066,0.073-0.195,0.131-0.344C30.195,22.011,29.611,22,29,22c-2.451,0-4.594,0.139-6.379,0.325c-0.908,1.926-3.014,5.847-5.836,7.665c-0.65,0.199-1.291,0.472-1.91,0.812l-1.287-0.516c-0.335-0.134-0.687-0.201-1.046-0.201c-1.159,0-2.188,0.694-2.618,1.771l-2.74,6.86c-0.574,1.444,0.133,3.089,1.574,3.661l1.281,0.512c0.935,2.928,3.075,5.234,5.938,6.377C17.192,49.754,18.469,50,19.768,50c1.693,0,3.374-0.438,4.893-1.268l1.265,0.504c0.336,0.135,0.688,0.203,1.047,0.203c1.158,0,2.188-0.697,2.618-1.775l2.736-6.854C32.904,39.37,32.201,37.727,30.756,37.145z M24.911,41.822c-0.846,2.117-2.864,3.484-5.144,3.484c-0.701,0-1.392-0.135-2.054-0.396c-2.835-1.133-4.221-4.361-3.09-7.197c0.847-2.117,2.865-3.486,5.143-3.486c0.701,0,1.393,0.133,2.056,0.398c1.377,0.549,2.456,1.6,3.038,2.957C25.443,38.939,25.461,40.445,24.911,41.822z"/></svg>