<?xml version="1.0" encoding="iso-8859-1"?><!-- Generator: Adobe Illustrator 19.1.1, SVG Export Plug-In . SVG Version: 6.00 Build 0)  --><svg xmlns="http://www.w3.org/2000/svg" xmlns:xlink="http://www.w3.org/1999/xlink" viewBox="0 0 50 50" width="50px" height="50px"><path d="M33,37H17c0,0.583-0.555,2.505-0.948,3.683c-0.102,0.306-0.051,0.641,0.137,0.901C16.376,41.846,16.678,42,17,42h16c0.321,0,0.624-0.154,0.812-0.416c0.188-0.261,0.239-0.597,0.137-0.901C33.555,39.506,33,37.585,33,37z"/><g><g><g><path d="M34,36H16c-1.103,0-2-0.897-2-2v-9c0-0.552,0.448-1,1-1h3c0.552,0,1,0.448,1,1v5h12v-5c0-0.552,0.447-1,1-1h3c0.553,0,1,0.448,1,1v9C36,35.103,35.103,36,34,36z"/><g><path d="M18,22c1.654,0,3,1.346,3,3v3h8v-3c0-1.654,1.346-3,3-3h2V11c0-1.654-1.346-3-3-3H19c-1.654,0-3,1.346-3,3v11H18z"/></g></g></g></g><path style="fill:none;stroke:#000000;stroke-width:2;stroke-linejoin:round;stroke-miterlimit:10;" d="M41,24V11c0-1.105,0.895-2,2-2h5"/><path style="fill:none;stroke:#000000;stroke-width:2;stroke-linejoin:round;stroke-miterlimit:10;" d="M48,30h-6v-5h-3v5v4c0,0.552,0.448,1,1,1h8"/><path style="fill:none;stroke:#000000;stroke-width:2;stroke-linejoin:round;stroke-miterlimit:10;" d="M48,41h-7c0,0,1-2.991,1-4"/><path style="fill:none;stroke:#000000;stroke-width:2;stroke-linejoin:round;stroke-miterlimit:10;" d="M9,24V11c0-1.105-0.895-2-2-2H2"/><path style="fill:none;stroke:#000000;stroke-width:2;stroke-linejoin:round;stroke-miterlimit:10;" d="M2,30h6v-5h3v5v4c0,0.552-0.448,1-1,1H2"/><path style="fill:none;stroke:#000000;stroke-width:2;stroke-linejoin:round;stroke-miterlimit:10;" d="M2,41h7c0,0-1-2.991-1-4"/></svg>