<?xml version="1.0" encoding="iso-8859-1"?><!-- Generator: Adobe Illustrator 21.0.0, SVG Export Plug-In . SVG Version: 6.00 Build 0)  --><svg xmlns="http://www.w3.org/2000/svg" xmlns:xlink="http://www.w3.org/1999/xlink" viewBox="0 0 50 50" width="500px" height="500px"><line style="fill:none;stroke:#000000;stroke-width:2;stroke-linecap:round;stroke-miterlimit:10;" x1="16" y1="36" x2="35" y2="36"/><path style="fill:none;stroke:#000000;stroke-width:2;stroke-linecap:round;stroke-miterlimit:10;" d="M45,36h4v-8.625c0-1.949-1.405-3.615-3.327-3.943L37.286,22l-4.815-7.661C31.555,12.883,29.957,12,28.237,12H3c-1.105,0-2,0.895-2,2v20c0,1.105,0.895,2,2,2h3"/><circle style="fill:none;stroke:#000000;stroke-width:2;stroke-linecap:round;stroke-miterlimit:10;" cx="40" cy="36" r="5"/><circle cx="40" cy="36" r="1"/><circle cx="11" cy="36" r="1"/><circle style="fill:none;stroke:#000000;stroke-width:2;stroke-linecap:round;stroke-miterlimit:10;" cx="11" cy="36" r="5"/><rect x="5" y="16" style="fill:none;stroke:#000000;stroke-width:2;stroke-linecap:round;stroke-miterlimit:10;" width="10" height="7"/><path style="fill:none;stroke:#000000;stroke-width:2;stroke-linecap:round;stroke-miterlimit:10;" d="M33.366,23H19v-7h9.445c0.345,0,0.666,0.178,0.848,0.471L33.366,23z"/><line style="fill:none;stroke:#000000;stroke-width:2;stroke-miterlimit:10;" x1="1" y1="29" x2="3" y2="29"/><line style="fill:none;stroke:#000000;stroke-width:2;stroke-miterlimit:10;" x1="46" y1="29" x2="49" y2="29"/></svg>