<?xml version="1.0" encoding="iso-8859-1"?>
<!-- Generator: Adobe Illustrator 18.0.0, SVG Export Plug-In . SVG Version: 6.00 Build 0)  -->
<!DOCTYPE svg PUBLIC "-//W3C//DTD SVG 1.1//EN" "http://www.w3.org/Graphics/SVG/1.1/DTD/svg11.dtd">
<svg version="1.1" id="Layer_1" xmlns="http://www.w3.org/2000/svg" xmlns:xlink="http://www.w3.org/1999/xlink" x="0px" y="0px"
	 width="50px" height="50px" viewBox="0 0 50 50" style="enable-background:new 0 0 50 50;" xml:space="preserve">
<path d="M7,48l-5-4l5-4V48z"/>
<line style="fill:none;stroke:#000000;stroke-width:2;stroke-miterlimit:10;" x1="3.706" y1="44" x2="45.335" y2="44"/>
<path d="M43,48l5-4l-5-4V48z"/>
<path d="M2.844,2C1.273,2,0,3.277,0,4.844V29c0,1.566,1.43,3,3,3h4.094c0.477,2.836,2.938,5,5.906,5s5.43-2.164,5.906-5h9.25
	C29.723,32,31,30.723,31,29.156V4.906C31,3.305,29.738,2,28.187,2H2.844z M33,7v25c0.48,2.832,3.031,5,6,5s5.43-2.168,5.906-5H47
	c1.57,0,3-1.43,3-3v-9.625c0-2.012-1.449-4.066-1.625-4.313L44.219,9.5C43.266,8.352,41.77,7,40,7H33z M38,12h5.594l3.188,4.25
	C47.121,16.73,48,18.203,48,19.375V20H38c-1,0-2-1-2-2v-4C36,12.895,37,12,38,12z M13,27c2.207,0,4,1.793,4,4s-1.793,4-4,4
	s-4-1.793-4-4S10.793,27,13,27z M39,27c2.207,0,4,1.793,4,4s-1.793,4-4,4s-4-1.793-4-4S36.793,27,39,27z"/>
</svg>