<?xml version="1.0" encoding="iso-8859-1"?><!-- Generator: Adobe Illustrator 19.2.0, SVG Export Plug-In . SVG Version: 6.00 Build 0)  --><svg xmlns="http://www.w3.org/2000/svg" xmlns:xlink="http://www.w3.org/1999/xlink" viewBox="0 0 50 50" width="500px" height="500px"><g><rect x="36" y="31" width="4" height="2"/></g><g><rect x="22" y="31" width="6" height="2"/></g><g><rect x="10" y="31" width="4" height="2"/></g><g><path d="M6,29c1.7,0,3,1.3,3,3s-1.3,3-3,3s-3-1.3-3-3S4.3,29,6,29 M6,27c-2.8,0-5,2.2-5,5s2.2,5,5,5s5-2.2,5-5S8.8,27,6,27L6,27z"/></g><g><path d="M6,31c-0.6,0-1,0.4-1,1c0,0.6,0.4,1,1,1s1-0.4,1-1C7,31.4,6.6,31,6,31L6,31z"/></g><g><path d="M18,29c1.7,0,3,1.3,3,3s-1.3,3-3,3s-3-1.3-3-3S16.3,29,18,29 M18,27c-2.8,0-5,2.2-5,5s2.2,5,5,5s5-2.2,5-5S20.8,27,18,27L18,27z"/></g><g><path d="M18,31c-0.6,0-1,0.4-1,1c0,0.6,0.4,1,1,1s1-0.4,1-1C19,31.4,18.6,31,18,31L18,31z"/></g><g><path d="M32,29c1.7,0,3,1.3,3,3s-1.3,3-3,3s-3-1.3-3-3S30.3,29,32,29 M32,27c-2.8,0-5,2.2-5,5s2.2,5,5,5s5-2.2,5-5S34.8,27,32,27L32,27z"/></g><g><path d="M32,31c-0.6,0-1,0.4-1,1c0,0.6,0.4,1,1,1c0.6,0,1-0.4,1-1C33,31.4,32.6,31,32,31L32,31z"/></g><g><path d="M44,29c1.7,0,3,1.3,3,3s-1.3,3-3,3s-3-1.3-3-3S42.3,29,44,29 M44,27c-2.8,0-5,2.2-5,5s2.2,5,5,5s5-2.2,5-5S46.8,27,44,27L44,27z"/></g><g><path d="M44,31c-0.6,0-1,0.4-1,1c0,0.6,0.4,1,1,1s1-0.4,1-1C45,31.4,44.6,31,44,31L44,31z"/></g><g><path d="M12,27.7c-0.276,0-0.541-0.114-0.729-0.316C9.83,25.847,7.958,25,6,25c-1.546,0-3.061,0.549-4.382,1.586c-0.434,0.342-1.063,0.267-1.404-0.168c-0.341-0.435-0.266-1.063,0.169-1.404C2.059,23.696,4.002,23,6,23c2.187,0,4.277,0.809,5.983,2.296C13.628,23.808,15.729,23,18,23c1.998,0,3.941,0.696,5.618,2.014c0.435,0.341,0.51,0.97,0.169,1.404c-0.342,0.435-0.971,0.51-1.404,0.168C21.061,25.549,19.546,25,18,25c-2.042,0-3.906,0.839-5.25,2.361c-0.187,0.212-0.453,0.335-0.735,0.339C12.01,27.7,12.005,27.7,12,27.7z"/></g><g><path d="M25.8,28h-1.5c-0.297,0-0.578-0.132-0.768-0.359C22.133,25.962,20.153,25,18.1,25v-2c2.496,0,4.896,1.088,6.653,3h0.577c1.656-1.887,4.112-3,6.67-3v2c-2.114,0-4.138,0.978-5.411,2.614C26.399,27.857,26.108,28,25.8,28z"/></g><g><path d="M38,27.6c-0.005,0-0.01,0-0.015,0c-0.282-0.004-0.549-0.127-0.735-0.338C35.906,25.738,34.042,24.9,32,24.9c-1.546,0-3.061,0.548-4.382,1.586c-0.437,0.343-1.064,0.265-1.404-0.168c-0.342-0.435-0.266-1.063,0.168-1.404C28.06,23.596,30.002,22.9,32,22.9c2.271,0,4.372,0.808,6.017,2.295C39.724,23.708,41.814,22.9,44,22.9c1.998,0,3.94,0.696,5.618,2.014c0.434,0.341,0.51,0.97,0.168,1.404c-0.341,0.433-0.968,0.511-1.404,0.168C47.061,25.448,45.546,24.9,44,24.9c-1.957,0-3.829,0.846-5.271,2.383C38.54,27.485,38.276,27.6,38,27.6z"/></g><g ></g></svg>