<?xml version="1.0" encoding="utf-8"?><!-- Generator: Adobe Illustrator 15.0.0, SVG Export Plug-In . SVG Version: 6.00 Build 0)  --><!DOCTYPE svg PUBLIC "-//W3C//DTD SVG 1.1//EN" "http://www.w3.org/Graphics/SVG/1.1/DTD/svg11.dtd"><svg xmlns="http://www.w3.org/2000/svg" xmlns:xlink="http://www.w3.org/1999/xlink" viewBox="0 0 50 50" width="50px" height="50px"><g><rect y="37" width="44" height="6"/><rect y="45" width="44" height="5"/></g><g><path d="M32.297,22.789c-0.351,0.346-0.396,0.896-0.108,1.295l1.8,2.5c0.171,0.237,0.437,0.388,0.729,0.412C34.744,26.999,34.772,27,34.8,27c0.262,0,0.516-0.104,0.703-0.289l1.26-1.246C36.097,25.169,35.364,25,34.6,25h-0.52l0.334-4.305L32.297,22.789z"/><path d="M49,13h-5.7c-0.532,0-1.089,0.191-1.654,0.568c-0.053,0.035-0.103,0.076-0.148,0.121l-4.91,4.857l-0.36,4.64c0.719,0.167,1.398,0.445,2.025,0.806L44.312,18H49c0.553,0,1-0.448,1-1v-3C50,13.448,49.553,13,49,13z"/></g><path d="M40,35v-4.7c0-2.873-2.473-5.3-5.4-5.3h-0.52l0.917-11.823c0.004-0.049,0.004-0.099,0-0.148C34.797,10.205,30.909,9,22,9c-8.909,0-12.795,1.205-12.998,4.029c-0.003,0.049-0.003,0.099,0,0.148L9.919,25H9.4C6.422,25,4,27.378,4,30.3V35H40z M36,32c0,1.104-0.896,2-2,2s-2-0.896-2-2s0.896-2,2-2S36,30.896,36,32z M23,11.01c8.79,0.105,9.9,1.563,9.996,2.106L32.385,21H23V11.01z M21,11.01V21h-9.385l-0.611-7.883C11.101,12.574,12.211,11.115,21,11.01z M10,30c1.104,0,2,0.896,2,2s-0.896,2-2,2s-2-0.896-2-2S8.896,30,10,30z"/></svg>