<?xml version="1.0" encoding="iso-8859-1"?><!-- Generator: Adobe Illustrator 19.1.1, SVG Export Plug-In . SVG Version: 6.00 Build 0)  --><svg xmlns="http://www.w3.org/2000/svg" xmlns:xlink="http://www.w3.org/1999/xlink" viewBox="0 0 50 50" width="50px" height="50px"><path d="M48.921,25.289l-2.851-3.602l-5.066-9.955C40.146,10.047,38.438,9,36.548,9H4c-2.206,0-4,1.794-4,4v21c0,2.206,1.794,4,4,4h3.101c0.465,2.279,2.484,4,4.899,4s4.434-1.721,4.899-4h19.202c0.465,2.279,2.484,4,4.899,4s4.434-1.721,4.899-4H47c1.654,0,3-1.346,3-3v-6.609C50,27.269,49.616,26.166,48.921,25.289z M39.222,12.64l4.649,9.135l-8.358-0.659c-0.429-0.034-0.787-0.337-0.892-0.754L32.28,11h4.267C37.682,11,38.707,11.628,39.222,12.64z M12,40c-1.654,0-3-1.346-3-3s1.346-3,3-3s3,1.346,3,3S13.654,40,12,40z M41,40c-1.654,0-3-1.346-3-3s1.346-3,3-3s3,1.346,3,3S42.654,40,41,40z"/></svg>