<?xml version="1.0" encoding="utf-8"?><!-- Generator: Adobe Illustrator 15.0.0, SVG Export Plug-In . SVG Version: 6.00 Build 0)  --><!DOCTYPE svg PUBLIC "-//W3C//DTD SVG 1.1//EN" "http://www.w3.org/Graphics/SVG/1.1/DTD/svg11.dtd"><svg xmlns="http://www.w3.org/2000/svg" xmlns:xlink="http://www.w3.org/1999/xlink" viewBox="0 0 50 50" width="50px" height="50px"><path d="M45.822,20.457l-8.295-1.382l-6.995-8.296C29.581,9.648,28.188,9,26.71,9H8.598c-1.901,0-3.613,1.056-4.468,2.755l-3.393,6.76C0.255,19.302,0,20.206,0,21.129v11.18C0,33.793,1.208,35,2.692,35H4.09c0.479,2.833,2.942,5,5.91,5s5.431-2.167,5.91-5h18.18c0.479,2.833,2.943,5,5.91,5s5.432-2.167,5.91-5H47c1.654,0,3-1.346,3-3v-6.611C50,22.936,48.243,20.861,45.822,20.457z M5.917,12.653C6.43,11.633,7.457,11,8.598,11H26.71c0.887,0,1.722,0.389,2.293,1.066L34.849,19H2.729L5.917,12.653z M10,38c-2.206,0-4-1.794-4-4s1.794-4,4-4s4,1.794,4,4S12.206,38,10,38z M40,38c-2.206,0-4-1.794-4-4s1.794-4,4-4s4,1.794,4,4S42.206,38,40,38z"/><line fill="none" stroke="#000000" stroke-width="2" stroke-miterlimit="10" x1="19" y1="10" x2="19" y2="20"/></svg>