<?xml version="1.0" encoding="iso-8859-1"?>
<!-- Generator: Adobe Illustrator 23.0.3, SVG Export Plug-In . SVG Version: 6.00 Build 0)  -->
<svg version="1.1" id="Layer_1" xmlns="http://www.w3.org/2000/svg" xmlns:xlink="http://www.w3.org/1999/xlink" x="0px" y="0px"
	 viewBox="0 0 50 50" style="enable-background:new 0 0 50 50;" xml:space="preserve">
<path d="M28,35V16c0-2.76-2.24-5-5-5H6c-2.76,0-5,2.24-5,5v19c0,2.671,2.104,4.836,4.74,4.974l-3.521,4.402
	c-0.345,0.431-0.275,1.061,0.156,1.405C2.56,45.928,2.78,46,3,46c0.293,0,0.584-0.128,0.781-0.375L8.28,40h12.44l4.5,5.625
	C25.417,45.872,25.708,46,26,46c0.219,0,0.44-0.072,0.624-0.219c0.432-0.345,0.501-0.974,0.156-1.405l-3.521-4.402
	C25.896,39.836,28,37.671,28,35z M8,17c0-1.1,0.9-2,2-2h9c1.1,0,2,0.9,2,2v1H8V17z M7,36c-1.1,0-2-0.9-2-2s0.9-2,2-2s2,0.9,2,2
	S8.1,36,7,36z M22,36c-1.1,0-2-0.9-2-2s0.9-2,2-2s2,0.9,2,2S23.1,36,22,36z M24,27c0,0.55-0.45,1-1,1H6c-0.55,0-1-0.45-1-1v-6
	c0-0.55,0.45-1,1-1h17c0.55,0,1,0.45,1,1V27z"/>
<path d="M20,6H9C7.895,6,7,6.895,7,8v1h15V8C22,6.895,21.105,6,20,6z"/>
<g>
	<path d="M47.543,19H50v-2h-2.457c-1.403,0-2.742,0.688-3.58,1.841l-3.507,4.821c-1.096-0.876-3-2.034-4.632-1.192
		c-0.813,0.419-1.169,1.509-1.317,2.564c-1.354-0.599-2.387-0.046-2.964,0.44c-0.926,0.78-1.457,2.003-1.457,3.354
		c0,0-0.012,8.126-0.012,8.171c0,2.757,2.243,5,5,5c2.414,0,4.434-1.721,4.899-4H50V25l-8.055,0.015l3.636-4.998
		C46.043,19.38,46.778,19,47.543,19z M35.074,40c-1.654,0-3-1.346-3-3s1.346-3,3-3s3,1.346,3,3S36.729,40,35.074,40z"/>
	<path d="M30.874,12.118l1.054-1.722l2.228,4.298c0.248,0.479,0.829,0.675,1.317,0.443l3.568-1.697l-0.391,2.514
		c-0.046,0.296,0.043,0.597,0.243,0.82c0.19,0.212,0.461,0.333,0.745,0.333c0.015,0,0.029,0,0.044-0.001l4.383-0.191
		c0.552-0.024,0.979-0.491,0.955-1.042c-0.023-0.552-0.458-0.968-1.043-0.956l-3.163,0.138l0.493-3.177
		c0.057-0.366-0.094-0.734-0.391-0.955c-0.297-0.222-0.693-0.261-1.027-0.101l-4.403,2.095l-2.599-5.014
		c-0.166-0.32-0.491-0.526-0.853-0.54c-0.364-0.013-0.7,0.17-0.888,0.478l-1.979,3.234c-0.289,0.471-0.141,1.087,0.331,1.375
		C29.969,12.737,30.586,12.588,30.874,12.118z"/>
</g>
</svg>