<?xml version="1.0" encoding="utf-8"?><!-- Generator: Adobe Illustrator 15.0.0, SVG Export Plug-In . SVG Version: 6.00 Build 0)  --><!DOCTYPE svg PUBLIC "-//W3C//DTD SVG 1.1//EN" "http://www.w3.org/Graphics/SVG/1.1/DTD/svg11.dtd"><svg xmlns="http://www.w3.org/2000/svg" xmlns:xlink="http://www.w3.org/1999/xlink" viewBox="0 0 50 50" width="50px" height="50px"><path d="M38.197,30.02c-0.727-0.164-3.2-2.74-5.402-5.626l-0.088-0.101C31.686,23.271,30.414,22,28,22h-8.988C17.182,22,16,23.137,16,24.896V30H5H4c-2.505,0-4,1.495-4,4v8.309C0,43.843,1.29,45,3,45h2.09c0.479,2.833,2.942,5,5.91,5s5.431-2.167,5.91-5h16.18c0.479,2.833,2.943,5,5.91,5s5.432-2.167,5.91-5H47c1.598,0,3-1.402,3-3v-6C50,32.555,40.167,30.414,38.197,30.02z M31.246,25.66c0.813,1.063,2.286,2.91,3.737,4.34H25v-6h3C29.56,24,30.314,24.729,31.246,25.66z M18,24.896C18,24.539,18,24,19.012,24H23v6h-5V24.896z M11,48c-2.206,0-4-1.794-4-4s1.794-4,4-4s4,1.794,4,4S13.206,48,11,48z M39,48c-2.206,0-4-1.794-4-4s1.794-4,4-4s4,1.794,4,4S41.206,48,39,48z"/></svg>