<?xml version="1.0" encoding="iso-8859-1"?><!-- Generator: Adobe Illustrator 19.1.1, SVG Export Plug-In . SVG Version: 6.00 Build 0)  --><svg xmlns="http://www.w3.org/2000/svg" xmlns:xlink="http://www.w3.org/1999/xlink" viewBox="0 0 50 50" width="50px" height="50px"><path d="M32,40H9c-0.552,0-1-0.447-1-1V24c0-0.552,0.448-1,1-1h23c0.553,0,1,0.448,1,1v1.21l11.476-7.062C44.634,18.051,44.814,18,45,18h0.987c0.009,0.001,0.019,0,0.026,0H49c0.553,0,1,0.448,1,1s-0.447,1-1,1h-2.479L32.819,39.573C32.632,39.841,32.326,40,32,40z"/><polyline fill="none" stroke="#000000" stroke-width="2" stroke-linecap="round" stroke-linejoin="round" stroke-miterlimit="10" points="9,27 1,24 1,18 7,20 9,24 "/><line fill="none" stroke="#000000" stroke-width="2" stroke-linecap="round" stroke-linejoin="round" stroke-miterlimit="10" x1="21" y1="24" x2="21" y2="21"/><path d="M25,21h-8c-0.552,0-1-0.448-1-1v-2c0-0.552,0.448-1,1-1h8c0.552,0,1,0.448,1,1v2C26,20.552,25.552,21,25,21z"/><path d="M50,32c0,1.105-0.895,2-2,2s-2-0.895-2-2s2-5,2-5S50,30.895,50,32z"/></svg>