<?xml version="1.0" encoding="iso-8859-1"?>
<!-- Generator: Adobe Illustrator 22.1.0, SVG Export Plug-In . SVG Version: 6.00 Build 0)  -->
<svg version="1.1" id="Layer_1" xmlns="http://www.w3.org/2000/svg" xmlns:xlink="http://www.w3.org/1999/xlink" x="0px" y="0px"
	 viewBox="0 0 50 50" style="enable-background:new 0 0 50 50;" xml:space="preserve">
<path style="fill:none;stroke:#000000;stroke-width:2;stroke-linecap:round;stroke-linejoin:round;stroke-miterlimit:10;" d="
	M9.615,25.172c0.722-4.104,2.74-6.983,5.657-9.899s6.565-4.687,9.899-5.657"/>
<g>
	<path d="M46.385,42.142l-9.192-9.192c-1.134-1.133-3.112-1.133-4.242,0c-1.17,1.17-1.17,3.073,0,4.243l9.192,9.192
		c0.584,0.585,1.353,0.877,2.12,0.877c0.769,0,1.537-0.292,2.122-0.877C47.555,45.215,47.555,43.312,46.385,42.142z"/>
	<path d="M7.494,3.251c-1.17-1.17-3.072-1.17-4.244,0C2.082,4.421,2.082,6.324,3.251,7.494l12.729,12.728
		c0.585,0.585,1.353,0.877,2.121,0.877s1.536-0.292,2.121-0.877c0.566-0.567,0.879-1.32,0.879-2.122s-0.313-1.555-0.879-2.121
		L7.494,3.251z"/>
</g>
<path d="M39.43,24.989l-3.479-10.338c-0.249-0.604-1.065-1.686-1.233-1.854l-5.657-5.657c-0.975-0.974-2.561-0.976-3.535,0
	c-0.473,0.472-0.732,1.1-0.732,1.768s0.26,1.296,0.732,1.768l5.604,5.588c0.019,0.042,0.047,0.178,0.063,0.318l1.083,5.881
	c0.088,0.362-0.066,0.736-0.384,0.932c-3.344,2.054-6.44,5.151-8.496,8.496c-0.195,0.318-0.573,0.472-0.959,0.378l-5.894-1.082
	c-0.102-0.011-0.238-0.039-0.21-0.005l-5.657-5.657c-0.945-0.944-2.59-0.944-3.535,0c-0.473,0.472-0.732,1.1-0.732,1.768
	c0,0.667,0.26,1.295,0.732,1.768l5.656,5.656c0.144,0.144,1.281,1.021,1.887,1.247l10.645,3.547c0.62,0.155,1.266,0.231,1.924,0.231
	c2.83,0,5.912-1.401,8.423-3.91C38.866,32.644,40.31,28.503,39.43,24.989z"/>
<circle cx="27.5" cy="27.5" r="5.5"/>
</svg>