<?xml version="1.0" encoding="iso-8859-1"?><!-- Generator: Adobe Illustrator 19.2.0, SVG Export Plug-In . SVG Version: 6.00 Build 0)  --><svg xmlns="http://www.w3.org/2000/svg" xmlns:xlink="http://www.w3.org/1999/xlink" viewBox="0 0 50 50" width="50px" height="50px"><g ><line style="fill:none;stroke:#000000;stroke-width:2;stroke-miterlimit:10;" x1="17" y1="29" x2="33" y2="29"/><g><path d="M11,21c-4.418,0-8,3.582-8,8s3.582,8,8,8s8-3.582,8-8S15.418,21,11,21z M11,31c-1.105,0-2-0.895-2-2c0-1.105,0.895-2,2-2s2,0.895,2,2C13,30.105,12.104,31,11,31z"/></g><g><path d="M39,21c-4.418,0-8,3.582-8,8s3.582,8,8,8s8-3.582,8-8S43.418,21,39,21z M39,31c-1.105,0-2-0.895-2-2c0-1.105,0.895-2,2-2s2,0.895,2,2C41,30.105,40.104,31,39,31z"/></g><path style="fill:none;stroke:#000000;stroke-width:2;stroke-linecap:round;stroke-miterlimit:10;" d="M28.749,25c1.6-4.099,5.586-7.002,10.251-7.002c3.153,0,5.997,1.327,8.002,3.453"/><path style="fill:none;stroke:#000000;stroke-width:2;stroke-linecap:round;stroke-miterlimit:10;" d="M3,21.448c2.006-2.124,4.848-3.45,8-3.45c4.665,0,8.653,2.904,10.252,7.004"/><line style="fill:none;stroke:#000000;stroke-width:2;stroke-linecap:round;stroke-miterlimit:10;" x1="21.252" y1="24.998" x2="28.749" y2="24.998"/></g><g ></g></svg>