<?xml version="1.0" encoding="iso-8859-1"?>
<!-- Generator: Adobe Illustrator 23.0.3, SVG Export Plug-In . SVG Version: 6.00 Build 0)  -->
<svg version="1.1" id="Layer_1" xmlns="http://www.w3.org/2000/svg" xmlns:xlink="http://www.w3.org/1999/xlink" x="0px" y="0px"
	 viewBox="0 0 50 50" style="enable-background:new 0 0 50 50;" xml:space="preserve">
<g>
	<path style="fill:none;stroke:#000000;stroke-width:2;stroke-miterlimit:10;" d="M33.524,37.712C31.018,39.167,28.106,40,25,40
		c-3.036,0-5.885-0.796-8.352-2.19"/>
	<path style="fill:none;stroke:#000000;stroke-width:2;stroke-miterlimit:10;" d="M13.221,35.258C10.003,32.165,8,27.816,8,23
		c0-9.389,7.611-17,17-17s17,7.611,17,17c0,4.607-1.833,8.787-4.809,11.849"/>
	<line style="fill:none;stroke:#000000;stroke-width:2;stroke-miterlimit:10;" x1="25" y1="9.306" x2="25" y2="20"/>
	<line style="fill:none;stroke:#000000;stroke-width:2;stroke-miterlimit:10;" x1="22" y1="23" x2="11.306" y2="23"/>
	<line style="fill:none;stroke:#000000;stroke-width:2;stroke-miterlimit:10;" x1="38.694" y1="23" x2="28.277" y2="23"/>
	<line style="fill:none;stroke:#000000;stroke-width:2;stroke-miterlimit:10;" x1="15.317" y1="13.317" x2="22.791" y2="20.791"/>
	<line style="fill:none;stroke:#000000;stroke-width:2;stroke-miterlimit:10;" x1="34.683" y1="13.317" x2="27.068" y2="20.932"/>
	
		<polyline style="fill:none;stroke:#000000;stroke-width:2;stroke-linecap:round;stroke-linejoin:round;stroke-miterlimit:10;" points="
		24.867,26.057 12.318,44 7.354,44 22,23.167 	"/>
	
		<polyline style="fill:none;stroke:#000000;stroke-width:2;stroke-linecap:round;stroke-linejoin:round;stroke-miterlimit:10;" points="
		25.422,26.116 37.93,44 42.894,44 28.206,23.106 	"/>
	<circle style="fill:none;stroke:#000000;stroke-width:2;stroke-miterlimit:10;" cx="25" cy="23" r="3"/>
	<circle style="fill:none;stroke:#000000;stroke-width:2;stroke-miterlimit:10;" cx="43.17" cy="35.517" r="5"/>
	<path style="fill:none;stroke:#000000;stroke-width:2;stroke-miterlimit:10;" d="M31.039,34.515C29.235,35.463,27.18,36,25,36
		c-2.143,0-4.164-0.518-5.946-1.437"/>
	<path style="fill:none;stroke:#000000;stroke-width:2;stroke-miterlimit:10;" d="M15.628,32.009C13.381,29.672,12,26.498,12,23
		c0-7.18,5.82-13,13-13s13,5.82,13,13c0,3.375-1.286,6.45-3.395,8.761"/>
	<circle style="fill:none;stroke:#000000;stroke-width:2;stroke-miterlimit:10;" cx="43.17" cy="35.517" r="0.42"/>
</g>
</svg>