<?xml version="1.0" encoding="iso-8859-1"?>
<!-- Generator: Adobe Illustrator 23.0.3, SVG Export Plug-In . SVG Version: 6.00 Build 0)  -->
<svg version="1.1" id="Layer_1" xmlns="http://www.w3.org/2000/svg" xmlns:xlink="http://www.w3.org/1999/xlink" x="0px" y="0px"
	 viewBox="0 0 50 50" style="enable-background:new 0 0 50 50;" xml:space="preserve">
<path style="fill:none;stroke:#000000;stroke-width:2;stroke-miterlimit:10;" d="M43,27c0,11.046-8.954,20-20,20S3,38.046,3,27
	S11.954,7,23,7"/>
<path style="fill:none;stroke:#000000;stroke-width:2;stroke-miterlimit:10;" d="M48,27H38c0-8.271-6.729-15-15-15V2
	C36.785,2,48,13.215,48,27z"/>
<path d="M23,17c-5.514,0-10,4.486-10,10c0,5.514,4.486,10,10,10c5.514,0,10-4.486,10-10C33,21.486,28.514,17,23,17z M23,19
	c0.552,0,1,0.448,1,1s-0.448,1-1,1s-1-0.448-1-1S22.448,19,23,19z M16,26c-0.552,0-1-0.448-1-1s0.448-1,1-1s1,0.448,1,1
	S16.552,26,16,26z M19,34c-0.552,0-1-0.448-1-1s0.448-1,1-1s1,0.448,1,1S19.552,34,19,34z M23,31c-2.206,0-4-1.794-4-4
	c0-2.206,1.794-4,4-4s4,1.794,4,4C27,29.206,25.206,31,23,31z M27,34c-0.552,0-1-0.448-1-1s0.448-1,1-1s1,0.448,1,1S27.552,34,27,34
	z M30,26c-0.552,0-1-0.448-1-1s0.448-1,1-1s1,0.448,1,1S30.552,26,30,26z"/>
</svg>