<?xml version="1.0" encoding="iso-8859-1"?><!-- Generator: Adobe Illustrator 22.0.1, SVG Export Plug-In . SVG Version: 6.00 Build 0)  --><svg xmlns="http://www.w3.org/2000/svg" xmlns:xlink="http://www.w3.org/1999/xlink" viewBox="0 0 50 50" width="500px" height="500px"><line style="fill:none;stroke:#000000;stroke-width:2;stroke-miterlimit:10;" x1="47" y1="44" x2="47" y2="24"/><line style="fill:none;stroke:#000000;stroke-width:2;stroke-miterlimit:10;" x1="3" y1="24" x2="3" y2="44"/><polyline style="fill:none;stroke:#000000;stroke-width:2;stroke-linecap:round;stroke-miterlimit:10;" points="2,13 2,8 48,8 48,13 "/><path style="fill:none;stroke:#000000;stroke-width:2;stroke-miterlimit:10;" d="M7.8,42C7.359,42,7,41.643,7,41.204v-3.417c0,0,2.064-5.608,2.346-6.165c0.342-0.677,1.203-0.979,1.822-1.194c0,0,0.884-0.429,3.831-0.429s3.831,0.429,3.831,0.429c0.529,0.153,1.492,0.467,1.793,1.163C20.967,32.386,23,37.788,23,37.788v3.417C23,41.643,22.641,42,22.2,42H7.8z"/><path style="fill:none;stroke:#000000;stroke-width:2;stroke-miterlimit:10;" d="M8,35c0,0,12.947,0,14,0"/><circle cx="19.5" cy="38.5" r="1.5"/><circle cx="10.5" cy="38.5" r="1.5"/><path d="M7,44h3l1-3H6v2C6,43.552,6.448,44,7,44z"/><path d="M20,44h3c0.552,0,1-0.448,1-1v-2h-5L20,44z"/><path style="fill:none;stroke:#000000;stroke-width:2;stroke-miterlimit:10;" d="M27.8,42c-0.441,0-0.8-0.357-0.8-0.796v-3.417c0,0,2.064-5.608,2.346-6.165c0.342-0.677,1.203-0.979,1.822-1.194c0,0,0.884-0.429,3.831-0.429s3.831,0.429,3.831,0.429c0.529,0.153,1.492,0.467,1.793,1.163C40.967,32.386,43,37.788,43,37.788v3.417C43,41.643,42.641,42,42.2,42H27.8z"/><path style="fill:none;stroke:#000000;stroke-width:2;stroke-miterlimit:10;" d="M28,35c0,0,12.947,0,14,0"/><circle cx="39.5" cy="38.5" r="1.5"/><circle cx="30.5" cy="38.5" r="1.5"/><path d="M27,44h3l1-3h-5v2C26,43.552,26.448,44,27,44z"/><path d="M40,44h3c0.552,0,1-0.448,1-1v-2h-5L40,44z"/><path style="fill:none;stroke:#000000;stroke-width:2;stroke-linecap:round;stroke-linejoin:round;stroke-miterlimit:10;" d="M17,20c0,2.209,1.791,4,4,4s4-1.791,4-4"/><path style="fill:none;stroke:#000000;stroke-width:2;stroke-linecap:round;stroke-linejoin:round;stroke-miterlimit:10;" d="M25,20c0,2.209,1.791,4,4,4s4-1.791,4-4"/><path style="fill:none;stroke:#000000;stroke-width:2;stroke-linecap:round;stroke-linejoin:round;stroke-miterlimit:10;" d="M9,20c0,2.209-1.791,4-4,4s-4-1.791-4-4l1-7h46l1,7c0,2.209-1.791,4-4,4s-4-1.791-4-4"/><path style="fill:none;stroke:#000000;stroke-width:2;stroke-linecap:round;stroke-linejoin:round;stroke-miterlimit:10;" d="M9,20c0,2.209,1.791,4,4,4s4-1.791,4-4"/><path style="fill:none;stroke:#000000;stroke-width:2;stroke-linecap:round;stroke-linejoin:round;stroke-miterlimit:10;" d="M33,20c0,2.209,1.791,4,4,4s4-1.791,4-4"/></svg>