<?xml version="1.0" encoding="iso-8859-1"?><!-- Generator: Adobe Illustrator 20.1.0, SVG Export Plug-In . SVG Version: 6.00 Build 0)  --><svg xmlns="http://www.w3.org/2000/svg" xmlns:xlink="http://www.w3.org/1999/xlink" viewBox="0 0 50 50" width="500px" height="500px"><circle style="fill:none;stroke:#000000;stroke-width:2;stroke-miterlimit:10;" cx="17.5" cy="13.5" r="9.5"/><circle style="fill:none;stroke:#000000;stroke-width:2;stroke-miterlimit:10;" cx="37.5" cy="10.5" r="4.5"/><path style="fill:none;stroke:#000000;stroke-width:2;stroke-miterlimit:10;" d="M15.465,34.386l-7.23,9.467c-0.938,1.229-2.672,1.512-3.953,0.646l0,0c-1.375-0.93-1.698-2.819-0.709-4.153l9.04-12.196c0.658-0.888,1.782-1.298,2.858-1.042l9.813,2.334l5.655-9.394c1.247-1.979,3.528-2.506,5.517-1.63c2.313,1.018,3.275,4.053,1.878,6.286l-6.623,12.139c-0.997,1.827-3.196,2.63-5.136,1.874L15.465,34.386z"/><polygon points="23,28 25,28 32,46 30,46 "/><path d="M40.981,18.679c0.275,0.478,0.502,0.989,0.668,1.53c0.002,0.007,0.003,0.014,0.005,0.021L48,16v-2L40.981,18.679z"/></svg>