<?xml version="1.0" encoding="iso-8859-1"?><!-- Generator: Adobe Illustrator 21.0.2, SVG Export Plug-In . SVG Version: 6.00 Build 0)  --><svg xmlns="http://www.w3.org/2000/svg" xmlns:xlink="http://www.w3.org/1999/xlink" viewBox="0 0 50 50" width="500px" height="500px"><path style="fill:none;stroke:#000000;stroke-width:2;stroke-miterlimit:10;" d="M31,7c0,2.222,1.778,4,4,4s4-1.778,4-4s-1.778-4-4-4S31,4.778,31,7z"/><path style="fill:none;stroke:#000000;stroke-width:2;stroke-miterlimit:10;" d="M24.492,10.269c-1.072-0.838-3.32,0.246-5.021,2.421l-4.312,5.514l3.883,3.036l4.312-5.514C25.055,13.551,25.565,11.108,24.492,10.269z"/><g><path d="M7.744,27.703L7.744,27.703c-0.433-0.338-0.511-0.963-0.176-1.398l4.499-5.841c0.339-0.44,0.971-0.519,1.408-0.178l0,0c0.433,0.338,0.511,0.962,0.176,1.398l-4.499,5.842C8.814,27.966,8.181,28.045,7.744,27.703z"/></g><g><path d="M10.526,29.859L10.526,29.859c-0.435-0.34-0.512-0.969-0.172-1.404l3.08-3.939c0.34-0.435,0.969-0.512,1.404-0.172l0,0c0.435,0.34,0.512,0.968,0.172,1.403l-3.08,3.939C11.589,30.123,10.961,30.2,10.526,29.859z"/></g><path style="fill:none;stroke:#000000;stroke-width:2;stroke-linecap:round;stroke-miterlimit:10;" d="M28.201,22.22l5.095,0.802c1.088,0.163,1.845,1.186,1.682,2.274v0c-0.163,1.088-1.186,1.845-2.274,1.682l-8-1.26c-1.088-0.163-1.845-1.186-1.682-2.274v0c0.041-0.272,0.135-0.523,0.271-0.745l0.021-0.032l4.313-5.713"/><path style="fill:none;stroke:#000000;stroke-width:2;stroke-linecap:round;stroke-miterlimit:10;" d="M28.384,21.977l2.836-3.738c1.292-1.724,0.942-4.168-0.782-5.46s-4.168-0.942-5.46,0.782l-6.211,8.244c-1.031,1.368-0.999,3.262,0.078,4.594l6.432,7.96l-5.727,7.636c-0.785,1.046-0.747,2.565,0.216,3.45c1.108,1.018,2.82,0.837,3.699-0.336l7.056-9.415c0.606-0.809,0.564-1.932-0.102-2.693l-5.045-7.055l0.083-0.109"/></svg>