<?xml version="1.0" encoding="iso-8859-1"?>
<!-- Generator: Adobe Illustrator 22.1.0, SVG Export Plug-In . SVG Version: 6.00 Build 0)  -->
<svg version="1.1" id="Layer_1" xmlns="http://www.w3.org/2000/svg" xmlns:xlink="http://www.w3.org/1999/xlink" x="0px" y="0px"
	 viewBox="0 0 50 50" style="enable-background:new 0 0 50 50;" xml:space="preserve">
<path style="fill:none;stroke:#000000;stroke-width:2;stroke-linecap:round;stroke-linejoin:round;stroke-miterlimit:10;" d="
	M9.797,24.854c0.722-4.104,2.74-6.983,5.657-9.899s6.565-4.687,9.899-5.657"/>
<path style="fill:none;stroke:#000000;stroke-width:2;stroke-miterlimit:10;" d="M16.868,19.197L4.14,6.469
	c-0.781-0.781-0.781-2.047,0-2.828l0,0c0.781-0.781,2.047-0.781,2.828,0l12.728,12.728c0.781,0.781,0.781,2.047,0,2.828l0,0
	C18.916,19.978,17.649,19.978,16.868,19.197z"/>
<circle style="fill:none;stroke:#000000;stroke-width:2;stroke-miterlimit:10;" cx="28" cy="28" r="5"/>
<path style="fill:none;stroke:#000000;stroke-width:2;stroke-miterlimit:10;" d="M24.318,31.357
	c-0.104,0.16-0.216,0.317-0.315,0.478c-0.309,0.503-0.901,0.748-1.475,0.608l-5.854-1.077c0,0-0.406-0.042-0.513-0.149l-5.657-5.657
	c-0.781-0.781-2.047-0.781-2.828,0c-0.781,0.781-0.781,2.047,0,2.828l5.657,5.657c0.126,0.126,1.202,0.943,1.691,1.125l10.607,3.536
	c6.794,1.703,15.279-6.783,13.507-13.877l-3.467-10.307c-0.219-0.529-0.998-1.563-1.125-1.691l-5.657-5.657
	c-0.781-0.781-2.047-0.781-2.828,0c-0.781,0.781-0.781,2.047,0,2.828l5.657,5.657c0.107,0.107,0.149,0.513,0.149,0.513l1.077,5.854
	c0.139,0.574-0.105,1.166-0.608,1.475c-0.369,0.227-0.733,0.47-1.094,0.721"/>
<path style="fill:none;stroke:#000000;stroke-width:2;stroke-miterlimit:10;" d="M34.08,36.409l8.951,8.951
	c0.781,0.781,2.047,0.781,2.828,0l0,0c0.781-0.781,0.781-2.047,0-2.828l-8.971-8.971"/>
</svg>