<?xml version="1.0" encoding="utf-8"?><!-- Generator: Adobe Illustrator 17.1.0, SVG Export Plug-In . SVG Version: 6.00 Build 0)  --><!DOCTYPE svg PUBLIC "-//W3C//DTD SVG 1.1//EN" "http://www.w3.org/Graphics/SVG/1.1/DTD/svg11.dtd"><svg xmlns="http://www.w3.org/2000/svg" xmlns:xlink="http://www.w3.org/1999/xlink" viewBox="0 0 50 50" width="500px" height="500px"><rect x="4" y="39" style="fill:none;stroke:#000000;stroke-width:2;stroke-miterlimit:10;" width="42" height="5"/><path style="fill:none;stroke:#000000;stroke-width:2;stroke-linecap:round;stroke-linejoin:round;stroke-miterlimit:10;" d="M41.3,35h-4.6c-0.4,0-0.7-0.3-0.7-0.7v-2.6c0-0.4,0.3-0.7,0.7-0.7h4.6c0.4,0,0.7,0.3,0.7,0.7v2.6C42,34.7,41.7,35,41.3,35z M13.3,35H8.7C8.3,35,8,34.7,8,34.3v-2.6C8,31.3,8.3,31,8.7,31h4.6c0.4,0,0.7,0.3,0.7,0.7v2.6C14,34.7,13.7,35,13.3,35z"/><path style="fill:none;stroke:#000000;stroke-width:2;stroke-linecap:round;stroke-linejoin:round;stroke-miterlimit:10;" d="M46,40v-8.8c0-2.4-1.9-4.2-4.2-4.2H40l-1.8-13.7c-0.1-1.7-6.1-3.1-14.2-3.1s-12.1,1.4-12.2,3.1L10,27H8.2C5.9,27,4,28.8,4,31.2V40"/><path style="fill:none;stroke:#000000;stroke-width:2.1667;stroke-miterlimit:10;" d="M45.8,22h-1.5c-0.7,0-1.2-0.6-1.2-1.2v-5.5c0-0.7,0.6-1.2,1.2-1.2h1.5c0.7,0,1.2,0.6,1.2,1.2v5.5C47,21.4,46.4,22,45.8,22z"/><path style="fill:none;stroke:#000000;stroke-width:2.1667;stroke-miterlimit:10;" d="M4.2,22h1.5C6.4,22,7,21.4,7,20.8v-5.5C7,14.6,6.4,14,5.8,14H4.2C3.6,14,3,14.6,3,15.2v5.5C3,21.4,3.6,22,4.2,22z"/><path style="fill:none;stroke:#000000;stroke-width:2;stroke-linecap:round;stroke-linejoin:round;stroke-miterlimit:10;" d="M46,45v2c0,1.1-0.9,2-2,2h-4c-1.1,0-2-0.9-2-2v-2"/><path style="fill:none;stroke:#000000;stroke-width:2;stroke-linecap:round;stroke-linejoin:round;stroke-miterlimit:10;" d="M4,45v2c0,1.1,0.9,2,2,2h4c1.1,0,2-0.9,2-2v-2"/><path style="fill:none;stroke:#000000;stroke-width:1.9399;stroke-miterlimit:10;" d="M30.4,27H19.6c-0.9,0-1.6,0.7-1.6,1.6v4.8c0,0.9,0.7,1.6,1.6,1.6h10.8c0.9,0,1.6-0.7,1.6-1.6v-4.8C32,27.7,31.3,27,30.4,27z"/><line style="fill:none;stroke:#000000;stroke-width:2;stroke-miterlimit:10;" x1="44" y1="24" x2="44" y2="28"/><path style="fill:none;stroke:#000000;stroke-width:2;stroke-miterlimit:10;" d="M6,12V3.2C6,2,7,1,8.2,1h33.5C43,1,44,2,44,3.2V12"/><line style="fill:none;stroke:#000000;stroke-width:2;stroke-miterlimit:10;" x1="6" y1="28" x2="6" y2="24"/><path style="fill:none;stroke:#000000;stroke-width:2;stroke-linecap:round;stroke-linejoin:round;stroke-miterlimit:10;" d="M39,22c0,0-4.6,1-14,1s-14-1-14-1"/></svg>