<?xml version="1.0" encoding="utf-8"?><!-- Generator: Adobe Illustrator 18.1.1, SVG Export Plug-In . SVG Version: 6.00 Build 0)  --><svg xmlns="http://www.w3.org/2000/svg" xmlns:xlink="http://www.w3.org/1999/xlink" viewBox="0 0 50 50" width="500px" height="500px"><path fill="none" stroke="#000000" stroke-width="2.004" stroke-linecap="round" stroke-linejoin="round" stroke-miterlimit="10" d="M33.4,14.4c0.9-0.9,2.5-1.4,4.1-1.4c2.5,0,2.4,1.1,2.4,2.5c0,1.4,0.1,2.5-2.4,2.5c-1.2,0-2.8-0.3-3.6-0.7"/><path fill="none" stroke="#000000" stroke-width="2" stroke-linecap="round" stroke-linejoin="round" stroke-miterlimit="10" d="M33.8,17.7c1.7,4.8,5,10.9,8.2,14.3"/><path fill="none" stroke="#000000" stroke-width="2" stroke-linecap="round" stroke-linejoin="round" stroke-miterlimit="10" d="M26,11c2-2,5-2,5-2s0.7,1.3,0.9,2.3"/><path fill="none" stroke="#000000" stroke-width="2" stroke-linecap="round" stroke-linejoin="round" stroke-miterlimit="10" d="M14.5,25.2C11.2,19.2,7.3,20,4,20c-2.1,0-3-1-3-1s0.7-3,7-3c4.4,0,4.9,0.1,6,2c0.7,1.3,4,2,7,2c1.7,0,0-5,8-5c2.2,0,3.1-2.6,3-3.7c0,0,1.5,6.1,2.5,8.6c0,0-6,2.6-4.8,11.1c0,1.1-2.4,2-5.1,2c-2.4,0-6.5-0.6-7.5-2"/><line fill="none" stroke="#000000" stroke-width="2" stroke-linecap="round" stroke-linejoin="round" stroke-miterlimit="10" x1="9" y1="31" x2="16.7" y2="31"/><g><path d="M9,24c3.9,0,7,3.1,7,7s-3.1,7-7,7s-7-3.1-7-7S5.1,24,9,24 M9,22c-5,0-9,4-9,9s4,9,9,9s9-4,9-9S14,22,9,22L9,22z"/></g><g><path d="M9,28c1.7,0,3,1.3,3,3s-1.3,3-3,3s-3-1.3-3-3S7.3,28,9,28 M9,26c-2.8,0-5,2.2-5,5c0,2.8,2.2,5,5,5s5-2.2,5-5C14,28.2,11.8,26,9,26L9,26z"/></g><g><path d="M41,24c3.9,0,7,3.1,7,7s-3.1,7-7,7s-7-3.1-7-7S37.1,24,41,24 M41,22c-5,0-9,4-9,9s4,9,9,9s9-4,9-9S46,22,41,22L41,22z"/></g><g><path d="M41,28c1.7,0,3,1.3,3,3s-1.3,3-3,3s-3-1.3-3-3S39.3,28,41,28 M41,26c-2.8,0-5,2.2-5,5c0,2.8,2.2,5,5,5s5-2.2,5-5C46,28.2,43.8,26,41,26L41,26z"/></g></svg>