<?xml version="1.0" encoding="iso-8859-1"?>
<!-- Generator: Adobe Illustrator 25.2.3, SVG Export Plug-In . SVG Version: 6.00 Build 0)  -->
<svg version="1.1" baseProfile="basic" id="ios" xmlns="http://www.w3.org/2000/svg" xmlns:xlink="http://www.w3.org/1999/xlink"
	 x="0px" y="0px" viewBox="0 0 50 50" xml:space="preserve">
<path d="M24.39,32.64c-0.4,0.44-0.8,0.87-1.21,1.28c-2.01,1.97-4.8,3.1-7.67,3.1L3.84,37.01c-1.32,0-2.43-0.86-2.75-2.15
	c-0.32-1.28,0.24-2.57,1.41-3.19l7.05-3.77l2.65,0.85l-8.75,4.68c-0.54,0.29-0.46,0.8-0.42,0.95s0.2,0.63,0.81,0.63l11.67,0.01
	c2.35,0,4.63-0.92,6.26-2.52c0.17-0.18,0.35-0.35,0.51-0.54L24.39,32.64z"/>
<path d="M47.554,23.167c0,0-0.505-0.337-1.425-0.845c-1.85-1.008-5.523-2.747-9.667-3.274l-4.045-4.045
	c-0.322-0.324-0.825-0.385-1.22-0.152c-7.327,4.372-10.96,12.403-11.106,12.733l-0.16,0.35c-0.119,0.26-0.121,0.559-0.006,0.82
	c0.116,0.262,0.338,0.461,0.61,0.548l5.16,1.65C25.794,30.984,25.896,31,26,31h11.34c3.178,0,6.2-1.371,8.294-3.763l2.181-2.5
	c0.031-0.036,0.061-0.075,0.086-0.115l0.02-0.03C48.217,24.133,48.009,23.471,47.554,23.167z"/>
<path d="M22.51,20c-2.75,3.46-4.15,6.55-4.25,6.77l-0.15,0.33c-0.19,0.42-0.28,0.88-0.26,1.34L1.78,23.32
	c-0.3-0.09-0.53-0.32-0.64-0.61c-0.11-0.29-0.07-0.61,0.1-0.88c0.05-0.08,1.31-2.05,3.6-4.51C5.03,17.12,5.29,17,5.57,17h4.82
	c2.41,0,4.66,1.11,6.12,3H22.51z"/>
<polyline style="fill:none;stroke:#000000;stroke-width:2;stroke-linecap:round;stroke-linejoin:round;stroke-miterlimit:10;" points="
	23,12 28,12 35,19 "/>
<path style="fill:none;stroke:#000000;stroke-width:2;stroke-linecap:round;stroke-linejoin:round;stroke-miterlimit:10;" d="M31,36
	h11c2.189,0.002,4.291-0.685,6.006-1.993"/>
<line style="fill:none;stroke:#000000;stroke-width:2;stroke-linecap:round;stroke-linejoin:round;stroke-miterlimit:10;" x1="33.977" y1="30.052" x2="40" y2="36.023"/>
</svg>