<?xml version="1.0" encoding="utf-8"?><!-- Generator: Adobe Illustrator 15.0.0, SVG Export Plug-In . SVG Version: 6.00 Build 0)  --><!DOCTYPE svg PUBLIC "-//W3C//DTD SVG 1.1//EN" "http://www.w3.org/Graphics/SVG/1.1/DTD/svg11.dtd"><svg xmlns="http://www.w3.org/2000/svg" xmlns:xlink="http://www.w3.org/1999/xlink" viewBox="0 0 50 50" width="50px" height="50px"><path d="M47.001,45c-0.04,0-0.08-0.002-0.12-0.007l-25-3c-0.277-0.033-0.527-0.181-0.691-0.406c-0.163-0.226-0.225-0.51-0.17-0.783C21.029,40.755,23,35.954,23,33c0-2.208-0.454-3.508-0.463-3.524c-0.166-0.31-0.158-0.687,0.023-0.987C22.741,28.187,23.065,28,23.417,28h24.318c0.209,0,0.413,0.065,0.583,0.188c0.247,0.177,1.683,1.5,1.683,5.61c0,4.479-1.97,10.281-2.054,10.526C47.807,44.732,47.423,45,47.001,45z"/><path fill="none" stroke="#000000" stroke-width="2" stroke-linecap="round" stroke-linejoin="round" stroke-miterlimit="10" d="M41,22.081c0-1.256-0.764-2.385-1.93-2.852L36,18l-0.552-4.31C35.189,12.138,33.846,11,32.273,11h-15.02C16.009,11,15,12.009,15,13.254V32"/><polygon points="11.099,26 11,5 8.228,5.765 6.638,10.265 0,12.256 0,23.761 1.211,24.022 "/><path d="M15,33c-0.552,0-1-0.447-1-1V13.254C14,11.459,15.459,10,17.254,10h15.02c2.07,0,3.82,1.482,4.161,3.525l0.482,3.765l2.525,1.011C40.996,18.923,42,20.407,42,22.081c0,0.552-0.447,1-1,1s-1-0.448-1-1c0-0.852-0.511-1.607-1.302-1.924l-3.07-1.229c-0.336-0.135-0.574-0.441-0.62-0.801l-0.552-4.31C34.282,12.78,33.362,12,32.273,12h-15.02C16.563,12,16,12.563,16,13.254V32C16,32.553,15.552,33,15,33z"/><path d="M12,14.242v-0.988C12,10.357,14.357,8,17.254,8h15.02c1.4,0,2.686,0.477,3.727,1.269V5H11v20.98L11.099,26H12V14.242z"/><path d="M12.02,32.362c0.001-0.021,0-0.037,0.001-0.058C12.009,32.215,12,32.112,12,32v-4.014l-1.196-0.006l-8.792-1.758C1.39,27.125,1,28.451,1,30c0,2.851,1.29,5,3,5h3c0.205,0,0.403-0.034,0.594-0.094c0.099-0.03,0.19-0.087,0.285-0.132c0.085-0.042,0.173-0.073,0.254-0.126c0.122-0.079,0.234-0.182,0.347-0.284c0.044-0.04,0.092-0.073,0.135-0.118c0.122-0.125,0.233-0.271,0.342-0.424c0.02-0.028,0.043-0.049,0.063-0.078l-0.005-0.001c0.342-0.508,0.611-1.14,0.779-1.876L12.02,32.362z M3,30c0-1.936,0.751-3,1-3s1,1.064,1,3s-0.751,3-1,3S3,31.936,3,30z"/><circle cx="42.5" cy="26.5" r="1.5"/><circle cx="25.5" cy="26.5" r="1.5"/><path d="M39.442,18.301L38.69,18H21.33l-0.975-4.208c-0.285-1.578-1.63-2.729-3.22-2.792C15.396,11.064,14,12.488,14,14.242V32c0,0.061,0.024,0.112,0.034,0.169C14.014,32.44,14,32.716,14,33c0,3.421,1.505,6,3.5,6h2.166C20.24,37.351,21,34.839,21,33.061c0-2.46-0.758-4.107-0.766-4.122c-0.326-0.609-0.308-1.366,0.052-1.965C20.646,26.373,21.302,26,22,26h0.051c0.245-1.691,1.691-3,3.449-3c1.759,0,3.204,1.309,3.449,3H31v-3h6v3h2.051c0.221-1.527,1.422-2.728,2.949-2.949v-0.97C42,20.407,40.996,18.923,39.442,18.301z M17.5,37c-0.529,0-1.5-1.519-1.5-4s0.971-4,1.5-4s1.5,1.519,1.5,4S18.029,37,17.5,37z"/></svg>