<?xml version="1.0" encoding="iso-8859-1"?>
<!-- Generator: Adobe Illustrator 27.2.0, SVG Export Plug-In . SVG Version: 6.00 Build 0)  -->
<svg version="1.1" baseProfile="basic" xmlns="http://www.w3.org/2000/svg" xmlns:xlink="http://www.w3.org/1999/xlink" x="0px"
	 y="0px" viewBox="0 0 50 50" xml:space="preserve">
<g id="Layer_2">
</g>
<g id="Layer_1">
</g>
<g id="&#x421;&#x43B;&#x43E;&#x439;_1">
	<g>
		<g>
			<path d="M14,3.99c-5.511,0-10,4.489-10,10v22c0,5.511,4.489,10,10,10h22c5.511,0,10-4.489,10-10v-22c0-5.511-4.489-10-10-10H14z
				 M14,5.99h22c4.431,0,8,3.569,8,8v22c0,4.431-3.569,8-8,8H14c-4.431,0-8-3.569-8-8v-22C6,9.56,9.569,5.99,14,5.99z"/>
		</g>
	</g>
</g>
<g id="&#x421;&#x43B;&#x43E;&#x439;_4">
</g>
<g id="Layer_6">
	<g>
		<path d="M12.978,37.757c-0.061,0-0.113-0.003-0.157-0.007H11v-2h1.955c0.05-0.068,0.213-0.359,0.171-1.2
			c-0.035-0.706-0.169-1.645-0.311-2.639c-0.412-2.896-0.61-4.576,0.129-5.428C13.215,26.172,13.59,26,14,26
			c0.607,0,2.031,0,3.97,7.758c0.14,0.409,0.354,0.849,0.577,1.205c-0.01-0.534-0.064-1.197-0.16-1.809
			c-0.011-0.08-0.783-5.845-1.121-7.728c-0.112-0.627-0.722-4.485,0.42-5.642c0.366-0.371,0.858-0.526,1.375-0.44
			c1.22,0.203,2.183,2.226,3.387,5.84c0.759,2.274,3.355,8.666,3.123,5.851c-0.338-4.096-1.374-9.583-1.811-12.643
			C23.335,15.415,23,11,25,11s3,1,5,9c0.765,3.059,2.803,8.784,3.271,9.844C32.823,25.562,33.1,22.752,35,21
			c0.915-0.843,2.47-1.338,4-1l1,4c0,0-4.073-3.817-3,8c0.271,2.988,0,6-2,6s-3.615-3.977-4-5
			c-1.134-3.023-2.711-9.174-3.894-12.872c-0.359-1.124-0.729-2.165-0.729-0.165c0,0.92,0.875,7.042,1.624,11.037
			c0.694,3.701,0.227,5.355-0.934,6.2c-0.307,0.223-0.7,0.255-1.061,0.137c-0.347-0.113-1.052-0.512-2.184-3.341
			c-0.093-0.216-2.485-5.828-3.27-8.18c-0.686-2.056-1.173-2.027-0.988-0.459c0.23,1.944,0.77,7.271,0.802,7.509
			c0.37,2.366,0.204,3.877-0.495,4.469c-0.365,0.308-0.845,0.395-1.312,0.237c-1.522-0.507-2.355-2.802-2.507-3.257
			c-0.467-1.858-1.204-5.181-1.536-4.87c-0.133,0.102,0.191,1.562,0.28,2.183c0.147,1.041,0.288,2.023,0.328,2.821
			c0.065,1.311-0.226,2.259-0.863,2.819C13.794,37.68,13.29,37.757,12.978,37.757z"/>
	</g>
</g>
</svg>