<?xml version="1.0" encoding="iso-8859-1"?><!-- Generator: Adobe Illustrator 21.1.0, SVG Export Plug-In . SVG Version: 6.00 Build 0)  --><svg xmlns="http://www.w3.org/2000/svg" xmlns:xlink="http://www.w3.org/1999/xlink" viewBox="0 0 50 50" width="50px" height="50px"><path d="M40.715,21c0,0,2.792-0.021,3.192-0.021S45,20.683,45,20.345s-0.26-1.542-0.417-1.669S42.656,18,42.135,18c-0.361,0-1.57,0.704-1.57,2.246L40.715,21z"/><path d="M9.285,21c0,0-2.792-0.021-3.192-0.021S5,20.683,5,20.345s0.26-1.542,0.417-1.669S7.344,18,7.865,18c0.361,0,1.57,0.704,1.57,2.246L9.285,21z"/><path d="M46,30c0-3.448-0.715-5.035-1.141-5.674v-0.001c-0.617-0.925-1.41-1.685-2.047-2.296c-0.464-0.444-0.942-0.903-1.072-1.173c-0.271-0.563-0.562-1.263-0.877-2.019c-1.173-2.817-2.503-6.011-4.495-7.053c-1.034-0.54-7.557-0.723-11.385-0.784c-3.795,0.062-10.317,0.245-11.354,0.785c-1.99,1.042-3.32,4.235-4.493,7.052c-0.315,0.756-0.605,1.456-0.876,2.018c-0.131,0.271-0.609,0.73-1.073,1.174c-0.637,0.611-1.43,1.371-2.047,2.297C4.715,24.965,4,26.552,4,30c0,0.353,0.014,0.788,0.034,1.25H4V43c0,1.103,0.897,2,2,2h4c1.103,0,2-0.897,2-2v-1.512C15.162,41.763,19.478,42,25,42s9.838-0.237,13-0.512V43c0,1.103,0.897,2,2,2h4c1.103,0,2-0.897,2-2V31.25h-0.034C45.986,30.788,46,30.353,46,30z M14.513,13.578c0.744-0.268,5.925-0.504,10.471-0.578c4.579,0.074,9.76,0.31,10.459,0.557c1.233,0.645,2.41,3.273,3.321,5.443H11.236C12.147,16.83,13.32,14.204,14.513,13.578z M10.063,21.723c0.202-0.42,0.42-0.928,0.645-1.464c2.217,1.346,6.339,6.513,6.819,7.121c0.348,0.396,0.896,0.644,1.474,0.644h12c0.577,0,1.126-0.249,1.505-0.682c0.45-0.571,4.571-5.737,6.787-7.083c0.225,0.536,0.443,1.044,0.646,1.464c0.058,0.12,0.133,0.236,0.211,0.352c-1.461,0.993-4.448,4.447-6.108,6.545c-0.791,0.906-1.888,1.404-3.042,1.404H19c-1.154,0-2.251-0.498-3.011-1.366c-1.688-2.134-4.678-5.59-6.139-6.583C9.929,21.959,10.005,21.843,10.063,21.723z M5.999,28.233c0,0,0.031-3.222,2.031-3.233c1-0.005,1.693,1.174,2.505,1.502c0.813,0.328,2.472,0.953,2.465,1.694c-0.008,0.806-2.71,0.82-2.71,0.82C5.991,29.081,5.999,28.233,5.999,28.233z M10.764,36.001h-0.643c0.103,0.476,0.282,0.989,0.586,1.293c0.391,0.391,0.391,1.023,0,1.414c-0.195,0.195-0.451,0.293-0.707,0.293s-0.512-0.098-0.707-0.293C8.036,37.451,8,35.248,8,35.001v-1h2.764c1.309,0,2.619-0.309,3.789-0.895c0.494-0.248,1.094-0.046,1.342,0.447c0.247,0.494,0.047,1.095-0.447,1.342C14.001,35.618,12.381,36.001,10.764,36.001z M15,39.001l0.854-0.976c0.57-0.651,1.393-1.024,2.258-1.024h7h7c0.865,0,1.688,0.373,2.258,1.024l0.854,0.976H15z M42,35.001c0,0.247-0.036,2.451-1.293,3.707c-0.195,0.195-0.451,0.293-0.707,0.293s-0.512-0.098-0.707-0.293c-0.391-0.391-0.391-1.023,0-1.414c0.304-0.303,0.483-0.817,0.586-1.293h-0.643c-1.617,0-3.237-0.382-4.684-1.105c-0.494-0.247-0.694-0.848-0.447-1.342c0.248-0.494,0.849-0.695,1.342-0.447c1.17,0.585,2.48,0.895,3.789,0.895H42V35.001z M39.71,29.016c0,0-2.702-0.014-2.71-0.82c-0.007-0.742,1.652-1.367,2.465-1.694c0.813-0.328,1.505-1.507,2.505-1.502c2,0.011,2.031,3.233,2.031,3.233S44.009,29.081,39.71,29.016z"/></svg>