<?xml version="1.0" encoding="iso-8859-1"?><!-- Generator: Adobe Illustrator 21.0.0, SVG Export Plug-In . SVG Version: 6.00 Build 0)  --><svg xmlns="http://www.w3.org/2000/svg" xmlns:xlink="http://www.w3.org/1999/xlink" viewBox="0 0 50 50" width="50px" height="50px"><line style="fill:none;stroke:#000000;stroke-width:2;stroke-linecap:round;stroke-linejoin:round;stroke-miterlimit:10;" x1="38" y1="18" x2="47" y2="27"/><line style="fill:none;stroke:#000000;stroke-width:2;stroke-linecap:round;stroke-linejoin:round;stroke-miterlimit:10;" x1="12" y1="18" x2="3" y2="27"/><path d="M34.213,2.971c-6.174-1.288-12.252-1.288-18.426,0C13.014,3.549,11,6.021,11,8.849v34.024c0,1.795,1.207,3.381,2.936,3.857C16.039,47.31,19.667,48,25,48s8.961-0.69,11.064-1.27C37.793,46.254,39,44.668,39,42.873V8.849C39,6.021,36.986,3.549,34.213,2.971z M16,20.452L19,24v10.432l-3,3V20.452z M24.996,41C19.062,41,16,40,16,40l4-4h10l4,4C34,40,30.93,41,24.996,41z M34,37.432l-3-3V24l3-3.548V37.432z M30,22H20l-4-5c0,0,3.955-1,9-1s9,1,9,1L30,22z"/></svg>