<?xml version="1.0" encoding="iso-8859-1"?>
<!-- Generator: Adobe Illustrator 26.4.1, SVG Export Plug-In . SVG Version: 6.00 Build 0)  -->
<svg version="1.1" baseProfile="basic" id="Layer_1"
	 xmlns="http://www.w3.org/2000/svg" xmlns:xlink="http://www.w3.org/1999/xlink" x="0px" y="0px" viewBox="0 0 50 50"
	 xml:space="preserve">
<line style="fill:none;stroke:#000000;stroke-width:2;stroke-linecap:round;stroke-linejoin:round;stroke-miterlimit:10;" x1="42" y1="9" x2="36" y2="12"/>
<line style="fill:none;stroke:#000000;stroke-width:2;stroke-linecap:round;stroke-linejoin:round;stroke-miterlimit:10;" x1="41.297" y1="14.586" x2="39.277" y2="10.537"/>
<path style="fill:none;stroke:#000000;stroke-width:2;stroke-linecap:round;stroke-linejoin:round;stroke-miterlimit:10;" d="M46,34
	H36l-3,4H11L5,28V17h19l1,5h8c0,0,2,3,2,7h11V34z"/>
<path style="fill:none;stroke:#000000;stroke-width:2;stroke-linejoin:round;stroke-miterlimit:10;" d="M46,11l-5,4l-1,14h6
	c0-3.468-0.497-8.132-2-12C45.104,16.43,48,14,46,11z"/>
<polygon style="fill:none;stroke:#000000;stroke-width:2;stroke-linecap:round;stroke-linejoin:round;stroke-miterlimit:10;" points="
	23,13 10,13 5,17 24,17 "/>
<g>
	<path d="M49.895,41.553l-2-4C47.725,37.214,47.379,37,47,37h-8c-0.379,0-0.725,0.214-0.895,0.553l-2,4
		c-0.155,0.31-0.139,0.678,0.044,0.973S36.653,43,37,43h12c0.347,0,0.668-0.18,0.851-0.475S50.05,41.862,49.895,41.553z"/>
	<circle cx="13.5" cy="38.5" r="4.5"/>
	<circle cx="29.5" cy="38.5" r="4.5"/>
</g>
<path d="M33.5,18h-5.202c-0.025-0.67-0.121-1.412-0.328-2.243c-1.029-4.121-3.052-7.184-3.138-7.312
	c-0.166-0.25-0.436-0.411-0.733-0.44c-0.3-0.03-0.594,0.076-0.806,0.288l-1,1c-0.249,0.249-0.348,0.609-0.263,0.95l3,12
	c0.083,0.33,0.327,0.595,0.649,0.705C25.784,22.982,25.892,23,26,23c0.175,0,0.343-0.059,0.496-0.148C26.646,22.941,26.816,23,27,23
	h6.5c1.379,0,2.5-1.122,2.5-2.5S34.879,18,33.5,18z"/>
<path style="fill:none;stroke:#000000;stroke-width:2;stroke-linecap:round;stroke-linejoin:round;stroke-miterlimit:10;" d="M15,8
	L15,8c-1.105,0-2,0.895-2,2v3h4v-3C17,8.895,16.105,8,15,8z"/>
<line style="fill:none;stroke:#000000;stroke-width:2;stroke-linecap:round;stroke-linejoin:round;stroke-miterlimit:10;" x1="43" y1="35" x2="43" y2="38"/>
<path style="fill:none;stroke:#000000;stroke-width:2;stroke-linecap:round;stroke-linejoin:round;stroke-miterlimit:10;" d="
	M8,33.947l-3.989,0.032C2.351,33.99,1,32.649,1,30.989v0C1,29.338,2.338,28,3.989,28H21"/>
</svg>