<?xml version="1.0" encoding="iso-8859-1"?><!-- Generator: Adobe Illustrator 22.0.1, SVG Export Plug-In . SVG Version: 6.00 Build 0)  --><svg xmlns="http://www.w3.org/2000/svg" xmlns:xlink="http://www.w3.org/1999/xlink" viewBox="0 0 50 50" width="50px" height="50px"><path d="M9.33,32.97l-1.9-0.75c-1.53-0.61-3.31,0.2-3.96,1.8l-1.2,2.97c-0.32,0.79-0.31,1.68,0.01,2.45c0.32,0.73,0.89,1.29,1.62,1.58l2.81,1.11c-0.29-1.04-0.22-2.14,0.2-3.17L9.33,32.97z M40.13,13.24l-4.45-4.13L34.7,8.2l-8.58-3.4c-0.04-0.02-0.09-0.03-0.13-0.04c-0.32-0.12-0.65-0.17-0.98-0.17c-1.19,0-2.33,0.71-2.8,1.87l-2.63,6.5l-8.39,20.75l-2.43,6c-0.3,0.74-0.3,1.55,0.02,2.29c0.29,0.69,0.84,1.25,1.53,1.55c0.04,0.02,0.08,0.03,0.12,0.05l8.59,3.4h12.06l0.15-0.05c0.13-0.04,2.95-1.01,3.58-3.78c0.52,0.06,1.1,0.11,1.64,0.11c0.83,0,1.61-0.11,2.08-0.44c0.96-0.66,1.29-2.71,1.4-4.18c0.86-0.48,2.3-1.34,2.83-1.97l0.16-0.21l3.16-17.7L40.13,13.24z M22.77,36.94c-0.13,0.34-0.52,0.44-0.92,0.44c-0.53,0-1.08-0.18-1.08-0.18l-1.92,2.84c0,0-1.41-0.04-1.59-1.29c-0.27-1.87-0.47-2.47,0.12-3.95c0.45-1.1,1.53-1.77,2.68-1.77c0.36,0,0.73,0.07,1.08,0.21C22.63,33.83,23.36,35.48,22.77,36.94z M25.24,16.12c0.6-1.49,1.16-1.8,2.63-3.01c0.75-0.62,1.44-1.12,2.22-1.12c0.24,0,0.49,0.04,0.75,0.15c0.95,0.37,1.39,1.47,1,2.46c-0.27,0.67-1.12,2.75-1.44,3.56C29.94,19.3,28.85,20,27.73,20c-0.33,0-0.67-0.06-0.99-0.19C25.31,19.24,24.64,17.59,25.24,16.12z M41.05,35.57c-0.45,0.39-1.6,1.08-2.55,1.59l-0.51,0.26L37.96,38c-0.06,1.39-0.36,2.93-0.54,3.18c-0.36,0.17-1.94,0.1-3.31-0.14l-1.18-0.21v1.19c0,1.92-1.7,2.77-2.2,2.98h-5.12c0.91-1.5,2.09-3.62,2.27-4.82c0.05-0.34,0.06-0.73,0.04-1.15l1.49,0.87c0.15,0.09,0.33,0.14,0.5,0.14c0.3,0,0.6-0.14,0.8-0.4l2.33-3.07l2.2,2.18l1.41-1.42l-3.02-2.98c-0.2-0.21-0.47-0.31-0.77-0.29c-0.29,0.02-0.56,0.16-0.73,0.39l-2.48,3.28l-1.98-1.16c-0.18-1.44-0.39-3.28,0.05-3.94c1.06-1.56,2.48-2.4,3.73-3.13c1-0.59,1.87-1.1,2.34-1.89c1.06-1.79,1.42-6.29,1.49-7.34l2.59-6.4l6.05,5.63L41.05,35.57z M15.85,11.49l1.87,0.74l2.64-6.53c0.41-1.01,1.13-1.83,2.02-2.37l-2.8-1.11c-1.53-0.61-3.34,0.26-4.02,1.93l-1.28,3.18c-0.35,0.85-0.35,1.8,0,2.61C14.59,10.66,15.15,11.21,15.85,11.49z M41.94,8.64c-0.17-0.87-0.72-1.65-1.54-2.2c-0.72-0.47-2.12-0.97-3.59,1l4.45,4.13C41.89,10.54,42.12,9.56,41.94,8.64z"/></svg>