<?xml version="1.0" encoding="iso-8859-1"?>
<!-- Generator: Adobe Illustrator 23.0.3, SVG Export Plug-In . SVG Version: 6.00 Build 0)  -->
<svg version="1.1" xmlns="http://www.w3.org/2000/svg" xmlns:xlink="http://www.w3.org/1999/xlink" x="0px" y="0px"
	 viewBox="0 0 50 50" style="enable-background:new 0 0 50 50;" xml:space="preserve">
<g id="Layer_3" style="display:none;">
	<rect x="-328" y="-183" style="display:inline;fill:#FFFFFF;" width="776" height="203"/>
</g>
<g id="Layer_1">
</g>
<g id="Auto_Icons">
	<g>
		<path d="M20.831,31c-0.356,0-1.664,0-1.961,0c-0.442,0-0.796,0.367-0.796,0.818c0,0.536,0.368,0.789,0.826,1.057
			c0.683,0.402,1.269,0.579,1.932,0.579c0.657,0,1.188-0.548,1.188-1.225C22.019,31.551,21.488,31,20.831,31z"/>
		<path d="M20.779,28h8.381c1.489,0,1.727-0.143,1.84-0.714c-0.451-1.1-0.947-2.629-1.083-2.929C29.619,23.721,27.888,23,24.998,23
			c-2.89,0-4.605,0.764-4.943,1.386c-0.121,0.221-0.58,1.721-1.055,2.9C19.169,27.679,19.411,28,20.779,28z"/>
		<path d="M31.894,31.818c0-0.451-0.354-0.818-0.796-0.818c-0.297,0-1.606,0-1.961,0c-0.657,0-1.188,0.551-1.188,1.23
			c0,0.677,0.531,1.225,1.188,1.225c0.663,0,1.249-0.177,1.932-0.579C31.526,32.607,31.894,32.354,31.894,31.818z"/>
		<path d="M46.71,40.785L26.593,5.92c-0.708-1.227-2.478-1.227-3.185,0L3.29,40.785C2.466,42.214,3.496,44,5.145,44h39.709
			C46.504,44,47.534,42.214,46.71,40.785z M34,34v0.998v1.858C34,37.488,33.597,38,33.104,38h-1.201C31.403,38,31,37.488,31,36.856
			V36H19v0.856C19,37.488,18.597,38,18.097,38h-1.201C16.403,38,16,37.488,16,36.856v-1.858V34v-1.634
			c0-1.114,0.191-2.217,0.563-3.256c0.763-2.129,2.058-5.717,2.297-6.206C19.278,22.05,21.41,21,25,21s5.739,0.989,6.107,1.864
			c0.286,0.693,1.553,4.149,2.312,6.228C33.804,30.146,34,31.265,34,32.398V34z"/>
	</g>
</g>
</svg>