<?xml version="1.0" encoding="utf-8"?><!-- Generator: Adobe Illustrator 15.0.0, SVG Export Plug-In . SVG Version: 6.00 Build 0)  --><!DOCTYPE svg PUBLIC "-//W3C//DTD SVG 1.1//EN" "http://www.w3.org/Graphics/SVG/1.1/DTD/svg11.dtd"><svg xmlns="http://www.w3.org/2000/svg" xmlns:xlink="http://www.w3.org/1999/xlink" viewBox="0 0 50 50" width="50px" height="50px"><path d="M29.835,50.021c-0.415,0-0.796-0.254-0.95-0.649c-0.173-0.443-0.017-0.946,0.376-1.214c2.818-1.923,5.68-6.335,5.719-11.857c0.027-3.938-1.348-9.881-7.707-16.601c0.324,8.373-3.195,15.434-3.362,15.762c-0.208,0.412-0.664,0.631-1.116,0.539c-0.451-0.093-0.784-0.476-0.813-0.936c-0.002-0.036-0.255-3.332-2.471-6.072c-0.536,1.751-1.127,3.145-1.665,4.41c-1.02,2.402-1.826,4.3-1.826,7.541c0,2.479,2.008,5.387,3.936,6.924c0.313,0.174,0.523,0.508,0.523,0.892c0,0.563-0.457,1.021-1.021,1.021c-0.009-0.001-0.014,0-0.02,0c-0.111,0-0.223-0.018-0.333-0.056c-7.82-2.697-12.126-8.166-12.126-15.398c0-6.148,2.816-11.106,5.797-16.354c2.684-4.725,5.726-10.081,7.225-17.182c0.076-0.359,0.339-0.65,0.688-0.762c0.351-0.113,0.733-0.026,1.003,0.223C35.838,13.322,43.021,22.164,43.021,34.21c0,7.926-5.604,14.719-13.038,15.8C29.934,50.018,29.884,50.021,29.835,50.021z"/></svg>