<?xml version="1.0" encoding="iso-8859-1"?>
<!-- Generator: Adobe Illustrator 27.2.0, SVG Export Plug-In . SVG Version: 6.00 Build 0)  -->
<svg version="1.1" baseProfile="basic" xmlns="http://www.w3.org/2000/svg" xmlns:xlink="http://www.w3.org/1999/xlink" x="0px"
	 y="0px" viewBox="0 0 50 50" xml:space="preserve">
<g id="Layer_2">
</g>
<g id="Layer_1">
</g>
<g id="&#x421;&#x43B;&#x43E;&#x439;_1">
	<g>
		<g>
			<path d="M36,3.99H14c-5.51,0-10,4.49-10,10v22c0,5.51,4.49,10,10,10h22c5.51,0,10-4.49,10-10v-22C46,8.48,41.51,3.99,36,3.99z
				 M37,32c0.27,2.99,0,6-2,6s-3.62-3.98-4-5c-1.13-3.02-2.71-9.17-3.89-12.87c-0.36-1.13-0.73-2.17-0.73-0.17
				C26.38,20.88,27.25,27,28,31c0.69,3.7,0.23,5.35-0.93,6.2c-0.31,0.22-0.7,0.25-1.06,0.14c-0.35-0.12-1.06-0.52-2.19-3.34
				c-0.09-0.22-2.48-5.83-3.27-8.18c-0.68-2.06-1.17-2.03-0.99-0.46c0.23,1.94,0.77,7.27,0.81,7.51c0.37,2.36,0.2,3.87-0.5,4.47
				c-0.36,0.3-0.84,0.39-1.31,0.23c-1.52-0.5-2.36-2.8-2.51-3.25c-0.47-1.86-1.2-5.18-1.53-4.87c-0.14,0.1,0.19,1.56,0.28,2.18
				c0.14,1.04,0.28,2.02,0.32,2.82c0.07,1.31-0.22,2.26-0.86,2.82c-0.47,0.41-0.97,0.49-1.28,0.49c-0.06,0-0.12-0.01-0.16-0.01H11
				v-2h1.96c0.04-0.07,0.21-0.36,0.17-1.2c-0.04-0.71-0.17-1.64-0.31-2.64c-0.42-2.9-0.61-4.58,0.12-5.43
				C13.21,26.17,13.59,26,14,26c0.61,0,2.03,0,3.97,7.76c0.14,0.41,0.35,0.85,0.58,1.2c-0.01-0.53-0.07-1.19-0.16-1.81
				c-0.01-0.08-0.79-5.84-1.12-7.72c-0.12-0.63-0.73-4.49,0.42-5.65c0.36-0.37,0.85-0.52,1.37-0.44c1.22,0.21,2.18,2.23,3.39,5.84
				c0.76,2.28,3.35,8.67,3.12,5.85c-0.34-4.09-1.37-9.58-1.81-12.64C23.33,15.42,23,11,25,11s3,1,5,9c0.76,3.06,2.8,8.78,3.27,9.84
				C32.82,25.56,33.1,22.75,35,21c0.92-0.84,2.47-1.34,4-1l1,4C40,24,35.93,20.18,37,32z"/>
		</g>
	</g>
</g>
<g id="&#x421;&#x43B;&#x43E;&#x439;_4">
</g>
<g id="Layer_6">
</g>
</svg>