<?xml version="1.0" encoding="iso-8859-1"?>
<!-- Generator: Adobe Illustrator 18.0.0, SVG Export Plug-In . SVG Version: 6.00 Build 0)  -->
<!DOCTYPE svg PUBLIC "-//W3C//DTD SVG 1.1//EN" "http://www.w3.org/Graphics/SVG/1.1/DTD/svg11.dtd">
<svg version="1.1" id="Layer_1" xmlns="http://www.w3.org/2000/svg" xmlns:xlink="http://www.w3.org/1999/xlink" x="0px" y="0px"
	 width="50px" height="50px" viewBox="0 0 50 50" style="enable-background:new 0 0 50 50;" xml:space="preserve">
<g>
	<path style="fill:#212121;" d="M35.685,36h-2.896c-0.301,0-1.09-0.059-1.934-0.606c-1.095-0.71-2.447-1.645-3.71-2.564
		C26.438,32.316,26,31.539,26,30.8v-3.6c0-0.732,0.437-1.508,1.141-2.026c0.746-0.55,1.668-1.175,2.518-1.75
		c0.419-0.284,0.819-0.555,1.173-0.8C31.642,22.061,32.471,22,32.789,22h2.896C37.513,22,39,23.525,39,25.4v7.2
		C39,34.475,37.513,36,35.685,36z M32.789,24c-0.102,0-0.462,0.019-0.818,0.267c-0.358,0.248-0.766,0.524-1.191,0.812
		c-0.827,0.561-1.725,1.168-2.452,1.705c-0.249,0.183-0.322,0.388-0.328,0.433L28,30.8c0.005,0.03,0.076,0.234,0.321,0.412
		c1.236,0.899,2.557,1.812,3.623,2.504C32.37,33.992,32.747,34,32.789,34h2.896C36.41,34,37,33.372,37,32.6v-7.2
		c0-0.772-0.59-1.4-1.315-1.4H32.789z"/>
</g>
<g>
	<polygon style="fill:#212121;" points="27.167,32 13.777,32 11,29.972 11,27.803 13.811,26 27.167,26 27.167,28 14.396,28 
		13,28.896 13,28.956 14.43,30 27.167,30 	"/>
</g>
<g>
	<path style="fill:#212121;" d="M34,32c-0.553,0-1-0.448-1-1v-4c0-0.552,0.447-1,1-1s1,0.448,1,1v4C35,31.552,34.553,32,34,32z"/>
</g>
<path style="fill:none;stroke:#000000;stroke-width:2;stroke-miterlimit:10;" d="M40,39H10c-2.209,0-4-2.291-4-4.5V14
	c0-2.209,1.791-4,4-4h14.597c0.908,0,1.79,0.309,2.499,0.877L42.499,19C43.448,19.759,44,20.908,44,22.123V35
	C44,37.209,42.209,39,40,39z"/>
<line style="fill:none;stroke:#000000;stroke-width:2;stroke-linejoin:round;stroke-miterlimit:10;" x1="6" y1="19" x2="42" y2="19"/>
</svg>