<?xml version="1.0" encoding="iso-8859-1"?><!-- Generator: Adobe Illustrator 21.1.0, SVG Export Plug-In . SVG Version: 6.00 Build 0)  --><svg xmlns="http://www.w3.org/2000/svg" xmlns:xlink="http://www.w3.org/1999/xlink" viewBox="0 0 50 50" width="500px" height="500px"><path d="M25,32.135V29c0,0,8.281-0.024,10,1.135c0,0-7.201,0.228-8.161,0.628C25.88,31.163,25,32.135,25,32.135z"/><path d="M25,32.135V29c0,0-8.281-0.024-10,1.135c0,0,7.201,0.228,8.161,0.628C24.12,31.163,25,32.135,25,32.135z"/><path d="M36.006,29.152c1.294-1.081,1.313-1.304,6.518-2.144c0.746-0.12,0.84,1.223,0.899,1.623C43.518,29.267,43.373,30.866,42,31c-1.39,0.135-1-0.758-2.671-0.758c-0.524,0-1.238,0.088-1.798-0.241C36.554,29.429,36.006,29.152,36.006,29.152z"/><path d="M12.475,30.001c-0.56,0.329-1.274,0.241-1.798,0.241c-1.671,0-1.281,0.893-2.671,0.758c-1.373-0.134-1.518-1.733-1.423-2.369c0.059-0.4,0.153-1.743,0.899-1.623c5.205,0.84,5.224,1.063,6.518,2.144C14,29.152,13.452,29.429,12.475,30.001z"/><path d="M40.715,23c0,0,2.792-0.021,3.192-0.021S45,22.683,45,22.345s-0.26-1.542-0.417-1.669S42.656,20,42.135,20c-0.361,0-1.57,0.704-1.57,2.246L40.715,23z"/><path d="M9.285,23c0,0-2.792-0.021-3.192-0.021S5,22.683,5,22.345s0.26-1.542,0.417-1.669S7.344,20,7.865,20c0.361,0,1.57,0.704,1.57,2.246L9.285,23z"/><path style="fill:none;stroke:#000000;stroke-width:2;stroke-miterlimit:10;" d="M39,40.676V43c0,0.552,0.448,1,1,1h4c0.552,0,1-0.448,1-1V29"/><path style="fill:none;stroke:#000000;stroke-width:2;stroke-miterlimit:10;" d="M11,40.676V43c0,0.552-0.448,1-1,1H6c-0.552,0-1-0.448-1-1V29"/><g><g><path style="fill:none;stroke:#000000;stroke-width:2;stroke-miterlimit:10;" d="M40.839,23.289c-1.185-2.461-2.658-8.477-4.839-9.618C35.021,13.16,25,13,25,13s-10.021,0.16-11,0.671c-2.181,1.141-3.654,7.157-4.839,9.618C8.725,24.195,5,26,5,28c0,2.056,0.389,8.347,0.637,10.239c0.116,0.886,0.797,1.583,1.681,1.713C9.87,40.327,15.734,41,25,41s15.13-0.673,17.682-1.048c0.884-0.13,1.565-0.827,1.681-1.713C44.611,36.347,45,30.056,45,28C45,26,41.275,24.195,40.839,23.289z"/></g></g><line style="fill:none;stroke:#000000;stroke-width:2;stroke-miterlimit:10;" x1="39.873" y1="22" x2="10.127" y2="22"/><path style="fill:none;stroke:#000000;stroke-width:2;stroke-linecap:round;stroke-linejoin:round;stroke-miterlimit:10;" d="M36.918,40.573c5-2,4-5.573,4-5.573c-0.696,0-4.938,2-7,2s-9,0-9,0H25c0,0-6.938,0-9,0s-6.304-2-7-2c0,0-1,3.573,4,5.573"/></svg>