<?xml version="1.0" encoding="iso-8859-1"?>
<!-- Generator: Adobe Illustrator 23.0.3, SVG Export Plug-In . SVG Version: 6.00 Build 0)  -->
<svg version="1.1" xmlns="http://www.w3.org/2000/svg" xmlns:xlink="http://www.w3.org/1999/xlink" x="0px" y="0px"
	 viewBox="0 0 50 50" style="enable-background:new 0 0 50 50;" xml:space="preserve">
<g id="Layer_10" style="display:none;">
</g>
<g id="filled">
</g>
<g id="outlined">
</g>
<g id="rounded">
</g>
<g id="two_x5F_tone">
</g>
<g id="sharp">
</g>
<g id="win10">
</g>
<g id="ios_x5F_out">
</g>
<g id="ios_x5F_filled">
	<path d="M40.33,5L29.6,45H3c-0.46,0-0.87-0.32-0.97-0.77c-0.11-0.45,0.11-0.92,0.52-1.12c1.33-0.67,2.54-1.25,3.65-1.79
		c6.56-3.15,9.55-4.58,13.94-11.84c3.19-5.25,11.74-21.75,11.82-21.91C32.87,5.97,34.53,5,36.33,5H40.33z"/>
	<path d="M47.98,6.18l-7,38C40.9,44.66,40.48,45,40,45h-8.33L42.4,5H47c0.3,0,0.58,0.13,0.77,0.36C47.96,5.59,48.04,5.89,47.98,6.18
		z"/>
</g>
<g id="color">
</g>
<g id="gradient">
</g>
</svg>