<?xml version="1.0" encoding="iso-8859-1"?>
<!-- Generator: Adobe Illustrator 24.1.2, SVG Export Plug-In . SVG Version: 6.00 Build 0)  -->
<svg version="1.1" id="Layer_1_1_" xmlns="http://www.w3.org/2000/svg" xmlns:xlink="http://www.w3.org/1999/xlink" x="0px" y="0px"
	 viewBox="0 0 50 50" style="enable-background:new 0 0 50 50;" xml:space="preserve">
<circle style="fill:none;stroke:#000000;stroke-width:2;stroke-linejoin:round;stroke-miterlimit:10;" cx="42" cy="38" r="4"/>
<path d="M49.4,20.868l-5.001-6.669C43.835,13.448,42.938,13,41.999,13H36c-0.552,0-1,0.447-1,1v24c0,0.553,0.448,1,1,1h2.141
	C38.058,38.679,38,38.347,38,38c0-2.209,1.791-4,4-4s4,1.791,4,4c0,0.347-0.058,0.679-0.141,1H48c1.103,0,2-0.897,2-2V22.668
	C50,22.023,49.787,21.384,49.4,20.868z M48,25h-6c-1.105,0-2-0.895-2-2v-3c0-1.105,0.895-2,2-2h2.75l3.05,4.067
	c0.131,0.175,0.2,0.383,0.2,0.601V25z"/>
<circle style="fill:none;stroke:#000000;stroke-width:2;stroke-linejoin:round;stroke-miterlimit:10;" cx="18" cy="38" r="4"/>
<path style="fill:none;stroke:#000000;stroke-width:2;stroke-linejoin:round;stroke-miterlimit:10;" d="M0,42c2.209,0,4-1.791,4-4
	s-1.791-4-4-4"/>
<line style="fill:none;stroke:#000000;stroke-width:2;stroke-linejoin:round;stroke-miterlimit:10;" x1="7" y1="34" x2="11" y2="34"/>
<path d="M7,9H0v1v1v23c2.209,0,4,1.791,4,4c0,0.347-0.058,0.679-0.141,1H7c0.552,0,1-0.447,1-1V10C8,9.447,7.552,9,7,9z"/>
<path d="M32,9H11c-0.552,0-1,0.447-1,1v28c0,0.553,0.448,1,1,1h3h0.141C14.058,38.679,14,38.347,14,38c0-2.209,1.791-4,4-4
	s4,1.791,4,4c0,0.347-0.058,0.679-0.141,1H22h10c0.552,0,1-0.447,1-1V10C33,9.447,32.552,9,32,9z"/>
</svg>