<?xml version="1.0" encoding="utf-8"?><!-- Generator: Adobe Illustrator 15.0.0, SVG Export Plug-In . SVG Version: 6.00 Build 0)  --><!DOCTYPE svg PUBLIC "-//W3C//DTD SVG 1.1//EN" "http://www.w3.org/Graphics/SVG/1.1/DTD/svg11.dtd"><svg xmlns="http://www.w3.org/2000/svg" xmlns:xlink="http://www.w3.org/1999/xlink" viewBox="0 0 50 50" width="50px" height="50px"><path d="M45.309,10.948H4.692c-2.616,0-4.744,2.117-4.744,4.719v25.667c0,2.602,2.128,4.718,4.744,4.718h40.615c2.616,0,4.745-2.116,4.745-4.718V15.667C50.052,13.065,47.924,10.948,45.309,10.948z M18,30H7v-3h11V30z M43,30h-4v4h-3v-4h-4v-3h4v-4h3v4h4V30z"/><path d="M18,6.846C18,5.277,16.729,4,15.167,4H9.833C8.271,4,7,5.277,7,6.846V10h11V6.846z"/><path d="M43,6.846C43,5.277,41.729,4,40.167,4h-5.334C33.271,4,32,5.277,32,6.846V10h11V6.846z"/></svg>