<?xml version="1.0" encoding="iso-8859-1"?><!-- Generator: Adobe Illustrator 21.1.0, SVG Export Plug-In . SVG Version: 6.00 Build 0)  --><svg xmlns="http://www.w3.org/2000/svg" xmlns:xlink="http://www.w3.org/1999/xlink" viewBox="0 0 50 50" width="500px" height="500px"><path style="fill:none;stroke:#000000;stroke-width:2;stroke-linecap:round;stroke-linejoin:round;stroke-miterlimit:10;" d="M7.767,8.304C3.582,12.624,1,18.51,1,25c0,5.498,1.853,10.562,4.964,14.609"/><path style="fill:none;stroke:#000000;stroke-width:2;stroke-linecap:round;stroke-linejoin:round;stroke-miterlimit:10;" d="M44.036,39.609C47.147,35.562,49,30.498,49,25c0-6.49-2.582-12.376-6.767-16.696"/><circle style="fill:none;stroke:#000000;stroke-width:2;stroke-linecap:round;stroke-linejoin:round;stroke-miterlimit:10;" cx="25" cy="25" r="19"/><path d="M17.333,27.983H14.2l-0.609,2.328h-2.43l3.555-11.375h2.102l3.578,11.375h-2.453L17.333,27.983z M14.7,26.069h2.125l-1.062-4.055L14.7,26.069z"/><path d="M21.858,30.311V18.936h3.516c2.801,0,3.633,1.517,3.633,3.117c0,1.758-1.18,2.297-1.43,2.406c0.292,0.083,1.594,0.498,1.594,2.508c0,3.038-2.396,3.344-3.547,3.344H21.858z M24.155,23.694h1.195c0.458,0,1.352-0.204,1.352-1.398c0-0.676-0.115-1.445-1.328-1.445h-1.219V23.694z M24.155,25.366v3.039h1.469c0.224,0,1.258-0.048,1.258-1.469c0-0.484-0.074-1.57-1.18-1.57H24.155z"/><path d="M36.039,27.327c0-2.55-4.859-1.464-4.859-5.367c0-1.064,0.616-3.18,3.609-3.18c2.939,0,3.57,2.337,3.57,3.516H36.07c0-0.239-0.011-1.633-1.32-1.633c-1.225,0-1.273,1.13-1.273,1.312c0,2.078,4.875,1.273,4.875,5.336c0,1.367-0.764,3.156-3.516,3.156c-3.02,0-4.026-2.272-3.938-3.742h2.305c0,1.229,0.422,1.875,1.633,1.875C35.536,28.6,36.039,28.236,36.039,27.327z"/></svg>