<?xml version="1.0" encoding="iso-8859-1"?><!-- Generator: Adobe Illustrator 22.1.0, SVG Export Plug-In . SVG Version: 6.00 Build 0)  --><svg xmlns="http://www.w3.org/2000/svg" xmlns:xlink="http://www.w3.org/1999/xlink" viewBox="0 0 50 50" width="500px" height="500px"><path style="fill:none;stroke:#000000;stroke-width:2;stroke-linecap:round;stroke-miterlimit:10;" d="M17.757,11.757C18.929,10.586,20.464,10,22,10s3.071,0.586,4.243,1.757"/><path style="fill:none;stroke:#000000;stroke-width:2;stroke-linecap:round;stroke-miterlimit:10;" d="M14.929,8.929c1.947-1.947,4.498-2.924,7.05-2.929c2.566-0.005,5.134,0.971,7.092,2.929"/><path style="fill:none;stroke:#000000;stroke-width:2;stroke-linecap:round;stroke-miterlimit:10;" d="M12.101,6.101c2.728-2.728,6.303-4.095,9.879-4.1c3.59-0.005,7.181,1.361,9.92,4.1"/><circle style="fill:none;stroke:#000000;stroke-width:2;stroke-miterlimit:10;" cx="39" cy="43" r="5"/><circle style="fill:none;stroke:#000000;stroke-width:2;stroke-miterlimit:10;" cx="11" cy="43" r="5"/><line style="fill:none;stroke:#000000;stroke-width:2;stroke-miterlimit:10;" x1="8" y1="30" x2="37" y2="30"/><line style="fill:none;stroke:#000000;stroke-width:2;stroke-miterlimit:10;" x1="22" y1="22" x2="22" y2="30"/><path style="fill:none;stroke:#000000;stroke-width:2;stroke-miterlimit:10;" d="M44,43h3c1.105,0,2-0.895,2-2v-5.611c0-1.955-1.414-3.624-3.342-3.946L37,30l-4.8-6.4C31.445,22.593,30.259,22,29,22H15.217c-1.379,0-2.661,0.71-3.392,1.88L8,30l-3.566,0.509C2.464,30.791,1,32.479,1,34.469V41c0,1.105,0.895,2,2,2h3"/><line style="fill:none;stroke:#000000;stroke-width:2;stroke-miterlimit:10;" x1="16" y1="43" x2="34" y2="43"/><circle cx="22" cy="15" r="2"/><line style="fill:none;stroke:#000000;stroke-width:2;stroke-miterlimit:10;" x1="22" y1="19" x2="22" y2="15"/></svg>