<?xml version="1.0" encoding="iso-8859-1"?>
<!-- Generator: Adobe Illustrator 26.4.1, SVG Export Plug-In . SVG Version: 6.00 Build 0)  -->
<svg version="1.1" baseProfile="basic" id="Layer_1"
	 xmlns="http://www.w3.org/2000/svg" xmlns:xlink="http://www.w3.org/1999/xlink" x="0px" y="0px" viewBox="0 0 50 50"
	 xml:space="preserve">
<line style="fill:none;stroke:#000000;stroke-width:2;stroke-linecap:round;stroke-linejoin:round;stroke-miterlimit:10;" x1="42" y1="9" x2="36" y2="12"/>
<line style="fill:none;stroke:#000000;stroke-width:2;stroke-linecap:round;stroke-linejoin:round;stroke-miterlimit:10;" x1="43" y1="18" x2="39.277" y2="10.537"/>
<path style="fill:none;stroke:#000000;stroke-width:2;stroke-linecap:round;stroke-linejoin:round;stroke-miterlimit:10;" d="M15,8
	L15,8c-1.105,0-2,0.895-2,2v3h4v-3C17,8.895,16.105,8,15,8z"/>
<path d="M49.895,41.553l-2-4C47.725,37.214,47.379,37,47,37h-3v-2c0-0.553-0.447-1-1-1s-1,0.447-1,1v2h-3
	c-0.379,0-0.725,0.214-0.895,0.553l-2,4c-0.155,0.31-0.139,0.678,0.044,0.973S36.653,43,37,43h12c0.347,0,0.668-0.18,0.851-0.475
	S50.05,41.862,49.895,41.553z"/>
<g>
	<path d="M35.47,22c0.323-0.419,0.53-0.93,0.53-1.5c0-1.378-1.121-2.5-2.5-2.5h-5.202c-0.025-0.67-0.121-1.412-0.328-2.243
		c-1.029-4.121-3.052-7.184-3.138-7.312c-0.166-0.25-0.436-0.411-0.733-0.44c-0.302-0.031-0.594,0.077-0.806,0.288l-1,1
		c-0.065,0.065-0.118,0.137-0.162,0.215L24.809,22H35.47z"/>
	<path d="M46.883,26c-0.178-2.4-0.616-5.578-1.668-8.594c0.873-0.652,1.954-1.775,2.333-3.239c0.322-1.248,0.075-2.535-0.716-3.722
		c-0.155-0.233-0.401-0.391-0.679-0.434c-0.276-0.045-0.56,0.032-0.778,0.208l-5,4c-0.218,0.174-0.353,0.431-0.372,0.709L39.212,26
		H46.883z"/>
	<path d="M39.069,28H36h-0.038c-0.117-1.555-0.491-2.919-0.893-4H24c-0.472,0-0.879-0.33-0.978-0.791L21.692,17H4v10h17
		c0.553,0,1,0.447,1,1s-0.447,1-1,1H4.434l2.374,3.957l-2.804,0.022c-0.005,0-0.01,0-0.015,0c-0.528,0-1.026-0.205-1.401-0.578
		C2.209,32.024,2,31.523,2,30.989C2,29.893,2.893,29,3.989,29h0.445l-0.291-0.485C4.049,28.359,4,28.182,4,28v-1H3.989
		C1.79,27,0,28.79,0,30.989c0,1.071,0.419,2.076,1.179,2.831c0.753,0.747,1.75,1.158,2.811,1.158c0.01,0,0.02,0,0.029,0l3.984-0.031
		l0.031,0.051C9.19,33.198,11.206,32,13.5,32c3.584,0,6.5,2.916,6.5,6.5c0,0.169-0.013,0.334-0.025,0.5h3.051
		C23.013,38.834,23,38.669,23,38.5c0-3.584,2.916-6.5,6.5-6.5c2.783,0,5.156,1.761,6.081,4.225L36.5,35H46c0.553,0,1-0.447,1-1v-5
		c0-0.278-0.004-0.617-0.014-1H39.069z"/>
	<path d="M20.62,12H10c-0.228,0-0.447,0.077-0.625,0.219L5.899,15h15.364L20.62,12z"/>
</g>
<g>
	<circle cx="13.5" cy="38.5" r="4.5"/>
	<circle cx="29.5" cy="38.5" r="4.5"/>
</g>
</svg>