<?xml version="1.0" encoding="iso-8859-1"?>
<!-- Generator: Adobe Illustrator 24.0.2, SVG Export Plug-In . SVG Version: 6.00 Build 0)  -->
<svg version="1.1" id="&#x421;&#x43B;&#x43E;&#x439;_1"
	 xmlns="http://www.w3.org/2000/svg" xmlns:xlink="http://www.w3.org/1999/xlink" x="0px" y="0px" viewBox="0 0 50 50"
	 style="enable-background:new 0 0 50 50;" xml:space="preserve">
<g>
	<rect x="14" y="21" width="10" height="9"/>
	<rect x="26" y="21" width="10" height="9"/>
	<path d="M34.56,17.19c-0.94-0.27-2.21-0.57-3.8-0.8C29.16,16.16,27.24,16,25,16c-4.49,0-7.68,0.64-9.56,1.19
		C14.63,17.42,14.05,18.16,14,19h22C35.95,18.16,35.37,17.42,34.56,17.19z"/>
	<path d="M14,39h22v-7H14V39z M32.5,34c0.83,0,1.5,0.67,1.5,1.5c0,0.83-0.67,1.5-1.5,1.5S31,36.33,31,35.5
		C31,34.67,31.67,34,32.5,34z M17.5,34c0.83,0,1.5,0.67,1.5,1.5c0,0.83-0.67,1.5-1.5,1.5S16,36.33,16,35.5
		C16,34.67,16.67,34,17.5,34z"/>
	<path d="M48.62,19.21l-23-17.95c-0.37-0.28-0.87-0.28-1.24,0l-23,17.95c-0.43,0.34-0.51,0.97-0.17,1.41
		c0.34,0.43,0.97,0.51,1.41,0.17L4,19.71V46c0,0.55,0.45,1,1,1h40c0.55,0,1-0.45,1-1V19.71l1.38,1.08C47.57,20.93,47.78,21,48,21
		c0.3,0,0.59-0.13,0.79-0.38C49.13,20.18,49.05,19.55,48.62,19.21z M39,30h-1v11.5c0,0.83-0.67,1.5-1.5,1.5h-1
		c-0.83,0-1.5-0.67-1.5-1.5V41H16v0.5c0,0.83-0.67,1.5-1.5,1.5h-1c-0.83,0-1.5-0.67-1.5-1.5V30h-1v-5h1v-5.89
		c0-1.78,1.19-3.36,2.89-3.85C16.89,14.69,20.27,14,25,14s8.11,0.69,10.11,1.26c0.85,0.24,1.57,0.76,2.08,1.44
		C37.7,17.38,38,18.22,38,19.11V25h1V30z"/>
</g>
</svg>