<?xml version="1.0" encoding="iso-8859-1"?><!-- Generator: Adobe Illustrator 19.2.0, SVG Export Plug-In . SVG Version: 6.00 Build 0)  --><svg xmlns="http://www.w3.org/2000/svg" xmlns:xlink="http://www.w3.org/1999/xlink" viewBox="0 0 50 50" width="500px" height="500px"><circle style="fill:none;stroke:#000000;stroke-width:2;stroke-miterlimit:10;" cx="9" cy="36" r="5"/><circle style="fill:none;stroke:#000000;stroke-width:2;stroke-miterlimit:10;" cx="9" cy="36" r="1"/><circle style="fill:none;stroke:#000000;stroke-width:2;stroke-miterlimit:10;" cx="40" cy="36" r="5"/><circle style="fill:none;stroke:#000000;stroke-width:2;stroke-miterlimit:10;" cx="40" cy="36" r="1"/><path style="fill:none;stroke:#000000;stroke-width:2;stroke-linecap:round;stroke-linejoin:round;stroke-miterlimit:10;" d="M18,36l-3-8H5l0.768-3.373c0.14-0.979,0.871-1.769,1.837-1.984L18,21l2,4v6h9l5-9c0,0,5.708,0,10,0c2.083,1.875,3,6,3,6H35l-4,8"/><path style="fill:none;stroke:#000000;stroke-width:2;stroke-linecap:round;stroke-linejoin:round;stroke-miterlimit:10;" d="M34.889,21.8"/><line style="fill:none;stroke:#000000;stroke-width:2;stroke-linecap:round;stroke-linejoin:round;stroke-miterlimit:10;" x1="18" y1="36" x2="31" y2="36"/><path style="fill:none;stroke:#000000;stroke-width:2;stroke-linecap:round;stroke-linejoin:round;stroke-miterlimit:10;" d="M15,21l5.311-7.966c0.441-0.662,1.128-1.122,1.908-1.278L32,9c3.031,0,5.435,4,5.435,4c0.352,0.586,0.38,1.312,0.074,1.923L34,21.941"/><path d="M31,29h-5.5c-0.828,0-1.5-0.672-1.5-1.5v0c0-0.828,0.672-1.5,1.5-1.5H31V29z"/><path d="M31,28v-9.5c0-0.828,0.672-1.5,1.5-1.5l0,0c0.828,0,1.5,0.672,1.5,1.5V23L31,28z"/><rect x="8" y="28" width="2" height="3"/><rect x="39" y="28" width="2" height="3"/><rect x="33" y="31" transform="matrix(6.002671e-011 -1 1 6.002671e-011 1 67)" width="2" height="4"/><rect x="14" y="31" transform="matrix(6.002671e-011 -1 1 6.002671e-011 -18 48)" width="2" height="4"/></svg>