<?xml version="1.0" encoding="iso-8859-1"?>
<!-- Generator: Adobe Illustrator 26.4.1, SVG Export Plug-In . SVG Version: 6.00 Build 0)  -->
<svg version="1.1" baseProfile="basic" id="Layer_1"
	 xmlns="http://www.w3.org/2000/svg" xmlns:xlink="http://www.w3.org/1999/xlink" x="0px" y="0px" viewBox="0 0 50 50"
	 xml:space="preserve">
<g>
	<path d="M48.375,22.062L44.219,16.5C43.266,15.352,41.77,14,40,14h-7v25c0.48,2.832,3.031,5,6,5s5.43-2.168,5.906-5H47
		c1.57,0,3-1.43,3-3v-9.625C50,24.363,48.551,22.309,48.375,22.062z M39,42c-2.207,0-4-1.793-4-4s1.793-4,4-4s4,1.793,4,4
		S41.207,42,39,42z M48,27H38c-1,0-2-1-2-2v-4c0-1.105,1-2,2-2h5.594l3.188,4.25C47.121,23.73,48,25.203,48,26.375V27z"/>
	<path d="M28.188,7H2.844C1.273,7,0,8.277,0,9.844V17.5h12c0.276,0,0.5-0.224,0.5-0.5v-2.835l6.774,6.434L12.5,27.032V24
		c0-0.276-0.224-0.5-0.5-0.5H0V36c0,1.566,1.43,3,3,3h4.094c0.477,2.836,2.938,5,5.906,5s5.43-2.164,5.906-5h9.25
		C29.723,39,31,37.723,31,36.156V9.906C31,8.305,29.738,7,28.188,7z M13,42c-2.207,0-4-1.793-4-4s1.793-4,4-4s4,1.793,4,4
		S15.207,42,13,42z"/>
</g>
</svg>