<?xml version="1.0" encoding="iso-8859-1"?><!-- Generator: Adobe Illustrator 19.1.0, SVG Export Plug-In . SVG Version: 6.00 Build 0)  --><svg xmlns="http://www.w3.org/2000/svg" xmlns:xlink="http://www.w3.org/1999/xlink" viewBox="0 0 50 50" width="500px" height="500px"><path style="fill:none;stroke:#000000;stroke-width:2;stroke-linecap:round;stroke-linejoin:round;stroke-miterlimit:10;" d="M47,28H22c0,0,1,1.825,1,4.916S22,41,22,41l25,3c0,0,2-5.838,2-10.202S47,28,47,28z"/><polyline style="fill:none;stroke:#000000;stroke-width:2;stroke-miterlimit:10;" points="35,12.836 35,6 11,6 9,6.582 7.411,11.077 1,13 1,25 11,27 15,27 "/><line style="fill:none;stroke:#000000;stroke-width:2;stroke-miterlimit:10;" x1="11" y1="26.822" x2="11" y2="6.139"/><path style="fill:none;stroke:#000000;stroke-width:2;stroke-linecap:round;stroke-linejoin:round;stroke-miterlimit:10;" d="M41,22.081c0-1.256-0.764-2.385-1.93-2.852L36,18l-0.552-4.31C35.19,12.138,33.846,11,32.273,11H17.254C16.009,11,15,12.009,15,13.254V32"/><ellipse style="fill:none;stroke:#000000;stroke-width:2;stroke-linejoin:round;stroke-miterlimit:10;" cx="17.5" cy="33" rx="2.5" ry="5"/><ellipse style="fill:none;stroke:#000000;stroke-width:2;stroke-linejoin:round;stroke-miterlimit:10;" cx="4" cy="30" rx="2" ry="4"/><path style="fill:none;stroke:#000000;stroke-width:2;stroke-linejoin:round;stroke-miterlimit:10;" d="M9,30c0,2.209-0.895,4-2,4s-3,0-3,0"/><line style="fill:none;stroke:#000000;stroke-width:2;stroke-linejoin:round;stroke-miterlimit:10;" x1="6" y1="30" x2="15" y2="32"/><line style="fill:none;stroke:#000000;stroke-width:2;stroke-linejoin:round;stroke-miterlimit:10;" x1="17.5" y1="38" x2="22" y2="38"/><rect x="30" y="23" style="fill:none;stroke:#000000;stroke-width:2;stroke-linecap:round;stroke-linejoin:round;stroke-miterlimit:10;" width="8" height="5"/><circle style="fill:none;stroke:#000000;stroke-width:2;stroke-linecap:round;stroke-linejoin:round;stroke-miterlimit:10;" cx="25.5" cy="26.5" r="1.5"/><circle style="fill:none;stroke:#000000;stroke-width:2;stroke-linecap:round;stroke-linejoin:round;stroke-miterlimit:10;" cx="42.5" cy="26.5" r="1.5"/><path style="fill:none;stroke:#000000;stroke-width:2;stroke-linecap:round;stroke-linejoin:round;stroke-miterlimit:10;" d="M35.943,18H21.33l-0.576-4.196C20.461,12.181,19.048,11,17.399,11"/></svg>