<?xml version="1.0" encoding="iso-8859-1"?><!-- Generator: Adobe Illustrator 19.1.1, SVG Export Plug-In . SVG Version: 6.00 Build 0)  --><svg xmlns="http://www.w3.org/2000/svg" xmlns:xlink="http://www.w3.org/1999/xlink" viewBox="0 0 50 50" width="50px" height="50px"><path d="M49.976,27.38c-0.071-0.318-0.294-0.581-0.595-0.705c-0.099-0.041-2.43-0.982-6.852-1.906C41.523,23.684,40.092,23,38.5,23c-0.962,0-1.866,0.25-2.653,0.685C32.085,23.234,28.105,23,24,23v-4c0-0.265-0.105-0.52-0.293-0.707S23.265,18,23,18c-0.275,0-6.445,0.03-12.361,2.525l-1.678-5.803C8.838,14.294,8.446,14,8.001,14H1c-0.332,0-0.642,0.165-0.828,0.439s-0.224,0.624-0.101,0.932L2,20.192V27c0,0.379,0.214,0.725,0.553,0.895l3.579,1.79C6.675,32.149,8.874,34,11.5,34c1.173,0,2.259-0.372,3.152-1h20.696c0.894,0.628,1.979,1,3.152,1s2.258-0.372,3.152-1H45c0.282,0,0.551-0.119,0.74-0.327l4-4.4C49.959,28.031,50.047,27.698,49.976,27.38z M11.5,32C9.57,32,8,30.43,8,28.5S9.57,25,11.5,25s3.5,1.57,3.5,3.5S13.43,32,11.5,32z M38.5,32c-1.93,0-3.5-1.57-3.5-3.5s1.57-3.5,3.5-3.5s3.5,1.57,3.5,3.5S40.43,32,38.5,32z"/></svg>