<?xml version="1.0" encoding="iso-8859-1"?><!-- Generator: Adobe Illustrator 19.1.1, SVG Export Plug-In . SVG Version: 6.00 Build 0)  --><svg xmlns="http://www.w3.org/2000/svg" xmlns:xlink="http://www.w3.org/1999/xlink" viewBox="0 0 50 50" width="50px" height="50px"><path d="M9,3v44h32V3H9z M26,5v5h-2V5H26z M24,13h2v5h-2V13z M36,36.677c0.019,0.208-0.073,0.368-0.385,0.254C35.21,36.783,27,34,27,34v7c0,0,2.332,1.683,2.765,1.898c0.208,0.104,0.246,0.097,0.251,0.592v1.36c0,0.064-0.025,0.176-0.184,0.144C29.586,44.945,25,43,25,43s-4.555,1.945-4.8,1.994c-0.159,0.032-0.184-0.08-0.184-0.144v-1.36c0.005-0.495,0.042-0.489,0.251-0.592C20.699,42.683,23,41,23,41v-7c0,0-8.171,2.783-8.576,2.931c-0.311,0.114-0.404-0.046-0.385-0.254c0.016-0.184-0.051-0.384-0.001-0.824c0.041-0.36,0.221-0.472,0.352-0.576C14.522,35.172,23,30,23,30v-6.376c0-1.92,1.5-2.615,2.015-2.622c-0.003,0-0.007-0.001-0.009-0.001h0.019c-0.003,0-0.007,0.001-0.009,0.001C25.53,21.008,27,21.704,27,23.624V30c0,0,8.518,5.172,8.649,5.276c0.131,0.104,0.311,0.216,0.352,0.576C36.051,36.293,35.984,36.493,36,36.677z"/></svg>