<?xml version="1.0" encoding="utf-8"?><!-- Generator: Adobe Illustrator 15.0.0, SVG Export Plug-In . SVG Version: 6.00 Build 0)  --><!DOCTYPE svg PUBLIC "-//W3C//DTD SVG 1.1//EN" "http://www.w3.org/Graphics/SVG/1.1/DTD/svg11.dtd"><svg xmlns="http://www.w3.org/2000/svg" xmlns:xlink="http://www.w3.org/1999/xlink" viewBox="0 0 50 50" width="50px" height="50px"><line fill="none" stroke="#000000" stroke-width="2" stroke-linejoin="round" stroke-miterlimit="10" x1="13" y1="25" x2="27" y2="25"/><line fill="none" stroke="#000000" stroke-width="2" stroke-linejoin="round" stroke-miterlimit="10" x1="16.5" y1="18.938" x2="23.5" y2="31.063"/><line fill="none" stroke="#000000" stroke-width="2" stroke-linejoin="round" stroke-miterlimit="10" x1="23.5" y1="18.938" x2="16.5" y2="31.063"/><circle cx="20" cy="25" r="3"/><path d="M47,18h-5c-0.553,0-1-0.448-1-1V4c0-0.552,0.447-1,1-1h5c0.553,0,1,0.448,1,1v13C48,17.552,47.553,18,47,18z"/><path d="M25.651,18C27.692,19.65,29,22.171,29,25c0,4.971-4.029,9-9,9s-9-4.029-9-9s4.029-9,9-9h19V5H20C10.075,5,2,13.075,2,23c0,9.925,8.075,18,18,18c9.925,0,18-8.075,18-18c0-1.714-0.25-3.385-0.717-5H25.651z"/><g><path d="M33.03,38.14C29.526,41.16,24.978,43,20,43s-9.526-1.84-13.031-4.86L6.06,40.66C6.02,40.77,6,40.884,6,41v3c0,0.553,0.448,1,1,1h26c0.553,0,1-0.447,1-1v-3c0-0.116-0.021-0.23-0.06-0.34L33.03,38.14z"/></g></svg>