<?xml version="1.0" encoding="iso-8859-1"?>
<!-- Generator: Adobe Illustrator 23.0.3, SVG Export Plug-In . SVG Version: 6.00 Build 0)  -->
<svg version="1.1" xmlns="http://www.w3.org/2000/svg" xmlns:xlink="http://www.w3.org/1999/xlink" x="0px" y="0px"
	 viewBox="0 0 50 50" style="enable-background:new 0 0 50 50;" xml:space="preserve">
<g id="Layer_10" style="display:none;">
	<g style="opacity:0.05;">
		<g style="display:inline;">
			<circle style="fill:#FFFFFF;" cx="25" cy="25" r="21.5"/>
			<path d="M25,4c11.579,0,21,9.421,21,21s-9.421,21-21,21S4,36.579,4,25S13.421,4,25,4 M25,3C12.85,3,3,12.85,3,25s9.85,22,22,22
				s22-9.85,22-22S37.15,3,25,3L25,3z"/>
		</g>
		<g style="display:inline;">
			<rect x="5.5" y="5.5" style="fill:#FFFFFF;" width="39" height="39"/>
			<path d="M44,6v38H6V6H44 M45,5H5v40h40V5L45,5z"/>
		</g>
	</g>
</g>
<g id="filled">
</g>
<g id="outlined">
</g>
<g id="rounded">
</g>
<g id="two_x5F_tone">
</g>
<g id="sharp">
</g>
<g id="win10">
</g>
<g id="ios_x5F_out">
</g>
<g id="ios_x5F_filled">
	<path d="M32.465,6.937L31.291,8.11c-1.436,0.2-6.76,1.103-9.433,3.777l-1.414,1.414l14.142,14.142l1.828-1.828
		C36.789,25.239,37,24.735,37,24.205c0-2.605,0-10.49,0-10.49l1.121-1.121c0.391-0.391,0.391-1.024,0-1.414l-4.243-4.243
		C33.488,6.546,32.855,6.546,32.465,6.937z"/>
	<g>
		<path d="M26.1,24.61c-0.78,0.78-2.05,0.78-2.83,0l0.71,0.71c0.78,0.78,0.78,2.05,0,2.83c-0.78,0.78-2.05,0.78-2.83,0l-0.71-0.71
			c0.78,0.78,0.78,2.05,0,2.83c-0.78,0.78-2.04,0.78-2.82,0l-0.71-0.71c0.78,0.78,0.78,2.05,0,2.83c-0.78,0.78-2.05,0.78-2.83,0
			l-9.63-9.62c-1.71-1.71-1.71-4.5,0-6.21l5.11-5.11c1.02-1.02,2.486-1.355,4.37-1.08c1.392,0.203,4.3,0.57,5.52,1.1l-1.83,1.83
			l2.12,2.12l3.92,3.92l2.44,2.45C26.88,22.57,26.88,23.83,26.1,24.61z"/>
	</g>
	<path style="fill:none;stroke:#000000;stroke-width:4;stroke-miterlimit:10;" d="M7.716,48.656
		c-4.95-4.95-7.778-12.021-2.828-16.971l2.828-2.828l-1.414,1.414l9.899,9.899c0.781,0.781,2.047,0.781,2.828,0l15.556-15.556"/>
	<path style="fill:none;stroke:#000000;stroke-width:4;stroke-miterlimit:10;" d="M37.414,7.644l4.412-4.457
		C42.577,2.427,43.601,2,44.669,2H50"/>
</g>
<g id="color">
</g>
</svg>