<?xml version="1.0" encoding="iso-8859-1"?><!-- Generator: Adobe Illustrator 19.1.0, SVG Export Plug-In . SVG Version: 6.00 Build 0)  --><svg xmlns="http://www.w3.org/2000/svg" xmlns:xlink="http://www.w3.org/1999/xlink" viewBox="0 0 50 50" width="500px" height="500px"><g><circle style="fill:none;stroke:#000000;stroke-width:2;stroke-miterlimit:10;" cx="39" cy="33" r="5"/></g><g><circle style="fill:none;stroke:#000000;stroke-width:2;stroke-miterlimit:10;" cx="11" cy="33" r="5"/></g><line style="fill:none;stroke:#000000;stroke-width:2;stroke-miterlimit:10;" x1="8" y1="20" x2="37" y2="20"/><line style="fill:none;stroke:#000000;stroke-width:2;stroke-miterlimit:10;" x1="22" y1="12" x2="22" y2="20"/><path style="fill:none;stroke:#000000;stroke-width:2;stroke-miterlimit:10;" d="M44,33h3c1.105,0,2-0.895,2-2v-5.611c0-1.955-1.414-3.624-3.342-3.946L37,20l-4.8-6.4C31.445,12.593,30.259,12,29,12H15.217c-1.379,0-2.661,0.71-3.392,1.88L8,20l-3.566,0.509C2.464,20.791,1,22.479,1,24.469V31c0,1.105,0.895,2,2,2h3"/><line style="fill:none;stroke:#000000;stroke-width:2;stroke-miterlimit:10;" x1="16" y1="33" x2="34" y2="33"/></svg>