<?xml version="1.0" encoding="utf-8"?><!-- Generator: Adobe Illustrator 18.1.1, SVG Export Plug-In . SVG Version: 6.00 Build 0)  --><svg xmlns="http://www.w3.org/2000/svg" xmlns:xlink="http://www.w3.org/1999/xlink" viewBox="0 0 50 50" width="500px" height="500px"><line fill="none" stroke="#000000" stroke-width="2" stroke-linecap="round" stroke-linejoin="round" stroke-miterlimit="10" x1="13" y1="19.9" x2="13" y2="29"/><line fill="none" stroke="#000000" stroke-width="2" stroke-linecap="round" stroke-linejoin="round" stroke-miterlimit="10" x1="7" y1="29" x2="7" y2="22.3"/><g><circle fill="none" stroke="#000000" stroke-width="2" stroke-miterlimit="10" cx="13" cy="41" r="5"/></g><g><circle fill="none" stroke="#000000" stroke-width="2" stroke-miterlimit="10" cx="39" cy="41" r="5"/></g><path fill="none" stroke="#000000" stroke-width="2" stroke-miterlimit="10" d="M44.1,41H47c1.1,0,2-0.9,2-2v-8.9c0-0.5-0.1-0.9-0.2-1.3l-2.8-8.1c-0.6-1.6-2.1-2.7-3.8-2.7H25c-1.1,0-2,0.9-2,2v9H3c-1.1,0-2,0.9-2,2v8c0,1.1,0.9,2,2,2h5"/><line fill="none" stroke="#000000" stroke-width="2" stroke-miterlimit="10" x1="18" y1="41" x2="34" y2="41"/><path fill="none" stroke="#000000" stroke-width="2" stroke-miterlimit="10" d="M34,22h-6c-0.6,0-1,0.4-1,1v5c0,0.6,0.4,1,1,1h6c0.6,0,1-0.4,1-1v-5C35,22.4,34.6,22,34,22z"/><path fill="none" stroke="#000000" stroke-width="2" stroke-miterlimit="10" d="M46.4,22H40c-0.6,0-1,0.4-1,1v5c0,0.6,0.4,1,1,1h8.8"/><polygon fill="none" stroke="#000000" stroke-width="2" stroke-linecap="round" stroke-linejoin="round" stroke-miterlimit="10" points="42,6.8 1,25 2.3,19.4 37,4 "/><polyline fill="none" stroke="#000000" stroke-linecap="round" stroke-linejoin="round" stroke-miterlimit="10" points="3.3,18.9 9.4,21.3 11.7,15.2 17.8,17.5 20.2,11.5 26.2,13.8 28.6,7.7 34.6,10.1 37,4 "/></svg>