<?xml version="1.0" encoding="iso-8859-1"?><!-- Generator: Adobe Illustrator 19.2.0, SVG Export Plug-In . SVG Version: 6.00 Build 0)  --><svg xmlns="http://www.w3.org/2000/svg" xmlns:xlink="http://www.w3.org/1999/xlink" viewBox="0 0 50 50" width="50px" height="50px"><g ><line style="fill:none;stroke:#000000;stroke-width:2;stroke-miterlimit:10;" x1="15" y1="32" x2="9" y2="32"/><line style="fill:none;stroke:#000000;stroke-width:2;stroke-miterlimit:10;" x1="40.999" y1="32" x2="35" y2="32"/><line style="fill:none;stroke:#000000;stroke-width:2;stroke-miterlimit:10;" x1="21" y1="32" x2="29" y2="32"/><g><path d="M6,27c-2.761,0-5,2.239-5,5s2.239,5,5,5s5-2.239,5-5S8.762,27,6,27z M6,33.25c-0.69,0-1.25-0.56-1.25-1.25S5.31,30.75,6,30.75S7.25,31.31,7.25,32S6.691,33.25,6,33.25z"/></g><g><path d="M18,27c-2.761,0-5,2.239-5,5s2.239,5,5,5s5-2.239,5-5S20.762,27,18,27z M18,33.25c-0.69,0-1.25-0.56-1.25-1.25s0.56-1.25,1.25-1.25s1.25,0.56,1.25,1.25S18.691,33.25,18,33.25z"/></g><g><path d="M32,27c-2.761,0-5,2.239-5,5s2.239,5,5,5s5-2.239,5-5S34.761,27,32,27z M32,33.25c-0.69,0-1.25-0.56-1.25-1.25s0.56-1.25,1.25-1.25s1.25,0.56,1.25,1.25S32.69,33.25,32,33.25z"/></g><g><path d="M44,27c-2.761,0-5,2.239-5,5s2.239,5,5,5s5-2.239,5-5S46.761,27,44,27z M44,33.25c-0.69,0-1.25-0.56-1.25-1.25s0.56-1.25,1.25-1.25s1.25,0.56,1.25,1.25S44.69,33.25,44,33.25z"/></g><path style="fill:none;stroke:#000000;stroke-width:2;stroke-linecap:round;stroke-linejoin:round;stroke-miterlimit:10;" d="M1,25.753c1.37-1.098,3.108-1.755,5-1.755c2.393,0,4.534,1.056,6,2.721c1.466-1.665,3.607-2.721,6-2.721c1.89,0,3.627,0.655,4.996,1.751"/><path style="fill:none;stroke:#000000;stroke-width:2;stroke-linejoin:round;stroke-miterlimit:10;" d="M32,23.998c-2.526,0-4.776,1.172-6.242,3c-0.429,0-1.029,0.002-1.515,0.002c-1.466-1.83-3.717-3.002-6.244-3.002"/><path style="fill:none;stroke:#000000;stroke-width:2;stroke-linecap:round;stroke-linejoin:round;stroke-miterlimit:10;" d="M48.996,25.749c-1.369-1.096-3.106-1.751-4.996-1.751c-2.393,0-4.534,1.056-6,2.721c-1.466-1.665-3.607-2.721-6-2.721c-1.892,0-3.631,0.657-5,1.755"/></g><g ></g></svg>