<?xml version="1.0" encoding="iso-8859-1"?><!-- Generator: Adobe Illustrator 22.1.0, SVG Export Plug-In . SVG Version: 6.00 Build 0)  --><svg xmlns="http://www.w3.org/2000/svg" xmlns:xlink="http://www.w3.org/1999/xlink" viewBox="0 0 50 50" width="500px" height="500px"><g></g><g></g><path style="fill:none;stroke:#000000;stroke-width:2;stroke-linecap:round;stroke-linejoin:round;stroke-miterlimit:10;" d="M29,10c1,1,1,1,6,1c0,0.3,5,20,5,20"/><path d="M20,12.547C20,13.244,18.85,14,16.25,14c-1.659,0-3.261,1-4.25,1c-0.625,0-1-0.329-1-1.557V13c0-0.552,0.448-1,1-1h6.625C19.5,12,20,11.95,20,12.547z"/><circle style="fill:none;stroke:#000000;stroke-width:1.9999;stroke-linecap:round;stroke-linejoin:round;stroke-miterlimit:10;" cx="40" cy="31" r="9"/><line style="fill:none;stroke:#000000;stroke-width:2;stroke-linecap:round;stroke-linejoin:round;stroke-miterlimit:10;" x1="9.006" y1="31.535" x2="36" y2="17"/><path style="fill:none;stroke:#000000;stroke-width:2;stroke-linecap:round;stroke-linejoin:round;stroke-miterlimit:10;" d="M19.129,32l-1.676,0.96c-1.389,0.796-1.865,2.558-1.063,3.935l0.968,1.663c0.802,1.378,2.578,1.85,3.966,1.055L23,38.653L19.129,32z"/><line style="fill:none;stroke:#000000;stroke-width:2;stroke-linecap:round;stroke-linejoin:round;stroke-miterlimit:10;" x1="25" y1="36" x2="22.443" y2="37.359"/><line style="fill:none;stroke:#000000;stroke-width:2;stroke-linecap:round;stroke-linejoin:round;stroke-miterlimit:10;" x1="23" y1="32" x2="20.375" y2="33.375"/><path d="M16.545,37.109l-0.49,0.252C14.143,38.348,12.879,39,10,39c-4.411,0-8-3.589-8-8s3.589-8,8-8c3.039,0,5.675,1.713,7.028,4.216l1.745-0.939C17.082,23.147,13.799,21,10,21C4.486,21,0,25.486,0,31s4.486,10,10,10c3.364,0,4.956-0.821,6.972-1.861l0.483-0.249c0.491-0.251,0.687-0.854,0.436-1.346C17.64,37.053,17.036,36.859,16.545,37.109z"/><line style="fill:none;stroke:#000000;stroke-width:2;stroke-linecap:round;stroke-linejoin:round;stroke-miterlimit:10;" x1="14.827" y1="13.527" x2="24.001" y2="23.417"/></svg>