<?xml version="1.0" encoding="iso-8859-1"?><!-- Generator: Adobe Illustrator 21.0.2, SVG Export Plug-In . SVG Version: 6.00 Build 0)  --><svg xmlns="http://www.w3.org/2000/svg" xmlns:xlink="http://www.w3.org/1999/xlink" viewBox="0 0 50 50" width="50px" height="50px"><path d="M41,16h-1V9.563c0-1.928-1.341-3.642-3.26-4.168h0C34.416,4.759,30.493,4,25,4s-9.416,0.759-11.74,1.396C11.341,5.922,10,7.636,10,9.563V16H9c-0.552,0-1,0.448-1,1v4c0,0.552,0.448,1,1,1h1v15c0,1.103,0.897,2,2,2h2c1.103,0,2-0.897,2-2v-3h18v3c0,1.103,0.897,2,2,2h2c1.103,0,2-0.897,2-2V22h1c0.552,0,1-0.448,1-1v-4C42,16.448,41.552,16,41,16z M38,11v10H26V11H38z M12,11h12v10H12V11z M15.5,29c-0.828,0-1.5-0.672-1.5-1.5s0.672-1.5,1.5-1.5s1.5,0.672,1.5,1.5S16.328,29,15.5,29z M34.5,29c-0.828,0-1.5-0.672-1.5-1.5s0.672-1.5,1.5-1.5s1.5,0.672,1.5,1.5S35.328,29,34.5,29z"/><line style="fill:none;stroke:#000000;stroke-width:2;stroke-linecap:round;stroke-linejoin:round;stroke-miterlimit:10;" x1="12" y1="45" x2="38" y2="45"/><polygon points="10,45 15,41 15,49 "/><polygon points="40,45 35,49 35,41 "/></svg>