<?xml version="1.0" encoding="utf-8"?><!-- Generator: Adobe Illustrator 15.0.0, SVG Export Plug-In . SVG Version: 6.00 Build 0)  --><!DOCTYPE svg PUBLIC "-//W3C//DTD SVG 1.1//EN" "http://www.w3.org/Graphics/SVG/1.1/DTD/svg11.dtd"><svg xmlns="http://www.w3.org/2000/svg" xmlns:xlink="http://www.w3.org/1999/xlink" viewBox="0 0 50 50" width="50px" height="50px"><path d="M12,20c-0.552,0-1-0.448-1-1v-1.3c0-0.907-0.239-1.707-0.732-2.445l-1.107-1.711c-0.3-0.464-0.167-1.083,0.296-1.383c0.465-0.3,1.083-0.166,1.383,0.296l1.1,1.7C12.641,15.208,13,16.404,13,17.7V19C13,19.552,12.552,20,12,20z"/><path d="M25,18.6c-0.256,0-0.512-0.098-0.707-0.293c-0.391-0.391-0.391-1.023,0-1.414l5.5-5.5c0.391-0.391,1.023-0.391,1.414,0s0.391,1.023,0,1.414l-5.5,5.5C25.512,18.502,25.256,18.6,25,18.6z"/><path d="M32.9,21c-0.256,0-0.512-0.098-0.707-0.293l-5-5c-0.391-0.391-0.391-1.023,0-1.414s1.023-0.391,1.414,0l5,5c0.391,0.391,0.391,1.023,0,1.414C33.412,20.902,33.156,21,32.9,21z"/><path d="M5.8,35H5.261c1.01,1.221,2.535,2,4.239,2s3.229-0.779,4.239-2H9.5H5.8z"/><path d="M9.5,28h4.239c-1.01-1.221-2.535-2-4.239-2s-3.229,0.779-4.239,2H6.6H9.5z"/><path d="M5.261,28H3.8H3.1C1.419,28,0,29.466,0,31.2v0.7C0,33.552,1.449,35,3.1,35h0.7h1.461C4.474,34.048,4,32.828,4,31.5S4.474,28.952,5.261,28z"/><path d="M36.261,35c1.01,1.221,2.535,2,4.239,2s3.229-0.779,4.239-2H40.5H36.261z"/><path d="M43.3,28h1.439c-1.01-1.221-2.535-2-4.239-2s-3.229,0.779-4.239,2H40.5H43.3z"/><path d="M40.5,24c1.903,0,3.706,0.723,5.085,2H46.8c0.234,0,0.459,0.038,0.686,0.069c-2.304-4.531-11.963-7.63-13.196-8.01c-0.388-0.12-0.815,0.014-1.066,0.338c-0.028,0.036-2.89,3.619-10.223,3.619c-7.343,0-10.103-3.464-10.213-3.606c-0.186-0.248-0.478-0.394-0.787-0.394H5.3c-1.841,0-3.284,1.442-3.284,3.284v4.831C2.367,26.05,2.729,26,3.1,26h0.7h0.616c1.379-1.277,3.181-2,5.084-2s3.706,0.723,5.084,2h20.831C36.794,24.723,38.597,24,40.5,24z"/><path d="M36.261,28H13.739C14.526,28.952,15,30.172,15,31.5s-0.474,2.548-1.261,3.5h22.521C35.474,34.048,35,32.828,35,31.5S35.474,28.952,36.261,28z"/><path d="M46.8,28H45.23h-0.491C45.526,28.952,46,30.172,46,31.5s-0.474,2.548-1.261,3.5h0.491c0.151,0,0.292-0.039,0.421-0.1H46.8c1.71,0,3.101-1.391,3.101-3.101v-0.7C49.9,29.391,48.51,28,46.8,28z"/><path d="M37,31.5c0-1.93,1.57-3.5,3.5-3.5h-4.239C35.474,28.952,35,30.172,35,31.5s0.474,2.548,1.261,3.5H40.5C38.57,35,37,33.43,37,31.5z"/><path d="M44.739,28H43.3h-2.8c1.93,0,3.5,1.57,3.5,3.5S42.43,35,40.5,35h4.239C45.526,34.048,46,32.828,46,31.5S45.526,28.952,44.739,28z"/><path d="M13.739,28H9.5c1.93,0,3.5,1.57,3.5,3.5S11.43,35,9.5,35h4.239C14.526,34.048,15,32.828,15,31.5S14.526,28.952,13.739,28z"/><path d="M9.5,35C7.57,35,6,33.43,6,31.5S7.57,28,9.5,28H6.6H5.261C4.474,28.952,4,30.172,4,31.5s0.474,2.548,1.261,3.5H5.8H9.5z"/></svg>