<?xml version="1.0" encoding="utf-8"?><!-- Generator: Adobe Illustrator 15.0.0, SVG Export Plug-In . SVG Version: 6.00 Build 0)  --><!DOCTYPE svg PUBLIC "-//W3C//DTD SVG 1.1//EN" "http://www.w3.org/Graphics/SVG/1.1/DTD/svg11.dtd"><svg xmlns="http://www.w3.org/2000/svg" xmlns:xlink="http://www.w3.org/1999/xlink" viewBox="0 0 50 50" width="50px" height="50px"><path d="M25,2C12.318,2,2,12.318,2,25c0,12.683,10.318,23,23,23c12.683,0,23-10.317,23-23C48,12.318,37.683,2,25,2z M25,43c-9.941,0-18-8.059-18-18c0-9.941,8.059-18,18-18c9.941,0,18,8.059,18,18C43,34.941,34.941,43,25,43z"/><circle cx="25" cy="25" r="4"/><g><path d="M19.722,9.913c0.006,2.09,0.414,5.378,2.124,9.993c0.563-0.351,1.187-0.612,1.854-0.76c-1.785-4.843-2.035-8.066-1.969-9.808C21.042,9.482,20.375,9.684,19.722,9.913z"/><path d="M30.278,40.087c-0.007-2.09-0.414-5.378-2.124-9.992c-0.563,0.35-1.187,0.611-1.854,0.76c1.785,4.843,2.034,8.065,1.969,9.808C28.958,40.519,29.624,40.316,30.278,40.087z"/><path d="M20.136,21.5c0.394-0.545,0.874-1.022,1.424-1.409c-3.498-3.786-4.963-6.666-5.571-8.302c-0.577,0.394-1.117,0.835-1.636,1.3C15.161,15.018,16.795,17.897,20.136,21.5z"/><path d="M9.338,28.269c0.144,0.689,0.346,1.356,0.576,2.011c2.089-0.007,5.387-0.426,9.989-2.129c-0.349-0.563-0.609-1.185-0.757-1.851C14.302,28.085,11.079,28.334,9.338,28.269z"/><path d="M28.5,20.136c0.545,0.394,1.022,0.874,1.409,1.424c3.785-3.499,6.665-4.963,8.302-5.571c-0.395-0.577-0.836-1.117-1.301-1.636C34.982,15.161,32.103,16.795,28.5,20.136z"/><path d="M25.964,30.915C25.649,30.967,25.329,31,25,31c-0.355,0-0.701-0.037-1.039-0.097c-0.203,5.149-1.204,8.223-1.931,9.81c0.677,0.128,1.37,0.202,2.074,0.242C24.897,39.021,25.779,35.828,25.964,30.915z"/><path d="M21.5,29.863c-0.545-0.393-1.022-0.874-1.409-1.424c-3.786,3.499-6.667,4.963-8.302,5.57c0.395,0.577,0.835,1.117,1.3,1.636C15.018,34.839,17.897,33.204,21.5,29.863z"/><path d="M24.036,19.085C24.351,19.034,24.671,19,25,19c0.355,0,0.701,0.037,1.039,0.096c0.203-5.15,1.204-8.223,1.931-9.809c-0.677-0.127-1.37-0.203-2.073-0.242C25.103,10.979,24.221,14.171,24.036,19.085z"/><path d="M21.781,30.055c-2.157,4.678-4.255,7.134-5.534,8.322c0.58,0.381,1.19,0.716,1.82,1.021c1.473-1.482,3.508-4.095,5.56-8.563C22.962,30.679,22.34,30.412,21.781,30.055z"/><path d="M30.835,26.373c-0.156,0.665-0.423,1.286-0.78,1.846c4.679,2.156,7.134,4.255,8.322,5.534c0.381-0.58,0.717-1.19,1.021-1.82C37.915,30.46,35.303,28.424,30.835,26.373z"/><path d="M31,25c0,0.355-0.037,0.701-0.097,1.039c5.149,0.203,8.223,1.204,9.81,1.931c0.128-0.677,0.202-1.37,0.242-2.073c-1.934-0.794-5.127-1.675-10.04-1.861C30.967,24.351,31,24.671,31,25z"/><path d="M30.854,23.7c4.844-1.786,8.066-2.035,9.809-1.969c-0.145-0.689-0.346-1.355-0.575-2.009c-2.09,0.007-5.378,0.415-9.992,2.124C30.444,22.409,30.706,23.033,30.854,23.7z"/><path d="M28.219,19.945c2.156-4.678,4.255-7.133,5.534-8.322c-0.58-0.381-1.19-0.716-1.819-1.02c-1.474,1.482-3.51,4.095-5.561,8.563C27.038,19.321,27.659,19.587,28.219,19.945z"/><path d="M19,25c0-0.355,0.037-0.701,0.096-1.039c-5.15-0.203-8.223-1.204-9.809-1.931c-0.127,0.677-0.203,1.37-0.242,2.074c1.933,0.793,5.126,1.675,10.04,1.86C19.034,25.649,19,25.329,19,25z"/><path d="M19.165,23.626c0.156-0.665,0.422-1.286,0.78-1.845c-4.678-2.157-7.133-4.255-8.322-5.534c-0.381,0.58-0.716,1.19-1.021,1.819C12.085,19.54,14.697,21.575,19.165,23.626z"/><path d="M29.863,28.5c-0.393,0.545-0.874,1.022-1.424,1.409c3.499,3.786,4.964,6.666,5.571,8.302c0.576-0.395,1.116-0.836,1.635-1.3C34.839,34.982,33.205,32.104,29.863,28.5z"/></g></svg>