<?xml version="1.0" encoding="iso-8859-1"?><!-- Generator: Adobe Illustrator 21.0.0, SVG Export Plug-In . SVG Version: 6.00 Build 0)  --><svg xmlns="http://www.w3.org/2000/svg" xmlns:xlink="http://www.w3.org/1999/xlink" viewBox="0 0 50 50" width="50px" height="50px"><g id="Layer_1"></g><g id="Layer_2"><path d="M34,6c-6.627,0-12,5.373-12,12c0,6.627,5.373,12,12,12s12-5.373,12-12C46,11.373,40.627,6,34,6z M38.243,22.243c-2.343,2.343-6.142,2.343-8.485,0c-2.343-2.343-2.343-6.142,0-8.485c2.343-2.343,6.142-2.343,8.485,0C40.586,16.1,40.586,19.899,38.243,22.243z"/><circle style="fill:none;stroke:#000000;stroke-width:2;stroke-miterlimit:10;" cx="34" cy="18" r="12"/><circle style="fill:none;stroke:#000000;stroke-width:2;stroke-miterlimit:10;" cx="18" cy="35" r="5"/><circle cx="18" cy="35" r="5"/><path style="fill:none;stroke:#000000;stroke-width:2;stroke-miterlimit:10;" d="M42.042,26.875l-17.35,14.144C22,43,20.656,44,18,44c-4.971,0-9-4.029-9-9c0-2.359,1-4,2.393-6.111l12.774-17.847"/><polygon points="6.665,23.059 10.851,13.941 5.865,13.941 10.798,4.057 15.061,4.057 10.811,11.062 16.199,11.062 "/></g></svg>