<?xml version="1.0" encoding="iso-8859-1"?><!-- Generator: Adobe Illustrator 19.2.0, SVG Export Plug-In . SVG Version: 6.00 Build 0)  --><svg xmlns="http://www.w3.org/2000/svg" xmlns:xlink="http://www.w3.org/1999/xlink" viewBox="0 0 50 50" width="500px" height="500px"><g><circle style="fill:none;stroke:#000000;stroke-width:2;stroke-miterlimit:10;" cx="13" cy="38" r="5"/></g><g><circle style="fill:none;stroke:#000000;stroke-width:2;stroke-miterlimit:10;" cx="40" cy="38" r="5"/></g><path style="fill:none;stroke:#000000;stroke-width:2;stroke-miterlimit:10;" d="M45.121,38H47c1.017,0,2-0.983,2-2c0,0,0-6.867,0-8.615c0-1.749-1.414-3.729-1.414-3.729l-4.125-5.503C42.618,17.137,41.355,16,40,16h-8c-1.017,0-2,0.983-2,2v18c0,1.013,0.988,1.993,2,2h3 M49,27H38c-0.552,0-1-0.448-1-1V16"/><path style="fill:none;stroke:#000000;stroke-width:2;stroke-miterlimit:10;" d="M18,38h10.154C29.169,38,30,37.169,30,36.154V30H1v6.005C1,37.102,1.898,38,2.995,38H8"/><path style="fill:none;stroke:#000000;stroke-width:2;stroke-miterlimit:10;" d="M37,16h5.263c1.597,0,2.55-1.78,1.664-3.109l-2.146-3.219C40.668,8.003,38.795,7,36.789,7H7c-3.314,0-6,2.686-6,6v17"/><path style="fill:none;stroke:#000000;stroke-width:2;stroke-miterlimit:10;" d="M23,12H7c-0.552,0-1,0.448-1,1v10c0,0.552,0.448,1,1,1h16c0.552,0,1-0.448,1-1V13C24,12.448,23.552,12,23,12z"/><line style="fill:none;stroke:#000000;stroke-width:2;stroke-linecap:round;stroke-linejoin:round;stroke-miterlimit:10;" x1="30" y1="12" x2="38" y2="12"/></svg>