<?xml version="1.0" encoding="iso-8859-1"?>
<!-- Generator: Adobe Illustrator 24.1.2, SVG Export Plug-In . SVG Version: 6.00 Build 0)  -->
<svg version="1.1" baseProfile="basic" id="&#x421;&#x43B;&#x43E;&#x439;_1"
	 xmlns="http://www.w3.org/2000/svg" xmlns:xlink="http://www.w3.org/1999/xlink" x="0px" y="0px" viewBox="0 0 50 50"
	 xml:space="preserve">
<path style="fill:none;stroke:#000000;stroke-width:2;stroke-miterlimit:10;" d="M9,41.5c0-3.6,2.9-6.5,6.5-6.5s6.5,2.9,6.5,6.5
	S19.1,48,15.5,48S9,45.1,9,41.5z"/>
<path style="fill:none;stroke:#000000;stroke-width:2;stroke-miterlimit:10;" d="M13,41.5c0-1.4,1.1-2.5,2.5-2.5s2.5,1.1,2.5,2.5
	S16.9,44,15.5,44S13,42.9,13,41.5z"/>
<polyline style="fill:none;stroke:#000000;stroke-width:2;stroke-miterlimit:10;" points="4,3 30,3 30,36 28,38 24,38 "/>
<line style="fill:none;stroke:#000000;stroke-width:2;stroke-linecap:round;stroke-linejoin:round;stroke-miterlimit:10;" x1="48" y1="48" x2="30" y2="35.5"/>
<line style="fill:none;stroke:#000000;stroke-width:2;stroke-miterlimit:10;" x1="4" y1="38" x2="7" y2="38"/>
<polygon style="fill-rule:evenodd;clip-rule:evenodd;" points="26.7,38 29,45 32,45 32,41 30,41 30,36 28,38 "/>
</svg>