<?xml version="1.0" encoding="iso-8859-1"?>
<!-- Generator: Adobe Illustrator 22.1.0, SVG Export Plug-In . SVG Version: 6.00 Build 0)  -->
<svg version="1.1" id="Layer_1" xmlns="http://www.w3.org/2000/svg" xmlns:xlink="http://www.w3.org/1999/xlink" x="0px" y="0px"
	 viewBox="0 0 50 50" style="enable-background:new 0 0 50 50;" xml:space="preserve">
<circle style="fill:none;stroke:#000000;stroke-width:2;stroke-miterlimit:10;" cx="24" cy="42" r="5"/>
<path style="fill:none;stroke:#000000;stroke-width:2;stroke-linecap:round;stroke-miterlimit:10;" d="M29,42h2c1.1,0,2-0.9,2-2
	v-5.611c0-1.955-1.414-3.624-3.342-3.946L23,29l-7.232-9.578C15.008,18.52,13.889,18,12.71,18H3"/>
<line style="fill:none;stroke:#000000;stroke-width:2;stroke-linecap:round;stroke-miterlimit:10;" x1="3" y1="42" x2="19" y2="42"/>
<path style="fill:none;stroke:#000000;stroke-width:2;stroke-linecap:round;stroke-linejoin:round;stroke-miterlimit:10;" d="M3,29
	h20"/>
<path style="fill:none;stroke:#000000;stroke-width:2;stroke-miterlimit:10;" d="M5,18v10"/>
<line style="fill:none;stroke:#000000;stroke-width:2;stroke-linecap:round;stroke-linejoin:round;stroke-miterlimit:10;" x1="42" y1="7" x2="30" y2="17"/>
<circle cx="25" cy="21" r="2"/>
<line style="fill:none;stroke:#000000;stroke-width:2;stroke-linecap:round;stroke-linejoin:round;stroke-miterlimit:10;" x1="48" y1="12" x2="38" y2="20"/>
<circle cx="33" cy="24" r="2"/>
<line style="fill:none;stroke:#000000;stroke-width:2;stroke-linecap:round;stroke-linejoin:round;stroke-miterlimit:10;" x1="37" y1="2" x2="27" y2="10"/>
<circle cx="22" cy="14" r="2"/>
<polyline style="fill:none;stroke:#000000;stroke-width:2;stroke-linecap:round;stroke-linejoin:round;stroke-miterlimit:10;" points="
	9,25 12,22 14,24 17,21 "/>
<path d="M31.515,31.569L22.667,29H2v13h17c0-2.761,2.239-5,5-5s5,2.239,5,5h1.941C32.078,42,33,41.078,33,39.941v-6.395
	C33,32.63,32.395,31.824,31.515,31.569z"/>
</svg>