<?xml version="1.0" encoding="iso-8859-1"?><!-- Generator: Adobe Illustrator 19.1.1, SVG Export Plug-In . SVG Version: 6.00 Build 0)  --><svg xmlns="http://www.w3.org/2000/svg" xmlns:xlink="http://www.w3.org/1999/xlink" viewBox="0 0 50 50" width="500px" height="500px"><polyline style="fill:none;stroke:#000000;stroke-width:2;stroke-linejoin:round;stroke-miterlimit:10;" points="28,31 28,39 31,39 "/><polyline style="fill:none;stroke:#000000;stroke-width:2;stroke-linejoin:round;stroke-miterlimit:10;" points="22,31 22,39 19,39 "/><path style="fill:none;stroke:#000000;stroke-width:2;stroke-linejoin:round;stroke-miterlimit:10;" d="M17,47L17,47c-1.105,0-2-0.895-2-2V34c0-1.105,0.895-2,2-2h0c1.105,0,2,0.895,2,2v11C19,46.105,18.105,47,17,47z"/><path style="fill:none;stroke:#000000;stroke-width:2;stroke-linejoin:round;stroke-miterlimit:10;" d="M33,47L33,47c-1.105,0-2-0.895-2-2V34c0-1.105,0.895-2,2-2h0c1.105,0,2,0.895,2,2v11C35,46.105,34.105,47,33,47z"/><path style="fill:none;stroke:#000000;stroke-width:2;stroke-linejoin:round;stroke-miterlimit:10;" d="M25,32c0,0,1.5,0.063,3-1c0-1.813,6-10,6-10s-0.313-4.188-2-6c0,0-2.75-1-7-1"/><path style="fill:none;stroke:#000000;stroke-width:2;stroke-linecap:round;stroke-linejoin:round;stroke-miterlimit:10;" d="M25,32c0,0-1.5,0.063-3-1c0-1.813-6-10-6-10s0.313-4.188,2-6c0,0,2.75-1,7-1v9"/><path style="fill:none;stroke:#000000;stroke-width:2;stroke-linejoin:round;stroke-miterlimit:10;" d="M25,39.999c0,0,1.5,0.063,3-1"/><path style="fill:none;stroke:#000000;stroke-width:2;stroke-linejoin:round;stroke-miterlimit:10;" d="M25,39.999c0,0-1.5,0.063-3-1"/><line style="fill:none;stroke:#000000;stroke-width:2;stroke-linecap:round;stroke-linejoin:round;stroke-miterlimit:10;" x1="12" y1="11" x2="17" y2="10"/><polygon style="fill:none;stroke:#000000;stroke-width:2;stroke-linecap:round;stroke-linejoin:round;stroke-miterlimit:10;" points="25,14 33,11 33,9 25,9 17,9 17,11 "/><line style="fill:none;stroke:#000000;stroke-width:2;stroke-linecap:round;stroke-linejoin:round;stroke-miterlimit:10;" x1="38" y1="11" x2="33" y2="10"/><path style="fill:none;stroke:#000000;stroke-width:2;stroke-linecap:round;stroke-linejoin:round;stroke-miterlimit:10;" d="M19,8l0.726-2.905c0.175-0.699,0.708-1.247,1.402-1.442C22.16,3.365,23.717,3,25,3s2.84,0.365,3.872,0.654c0.694,0.194,1.227,0.743,1.402,1.442L31,8"/><path style="fill:none;stroke:#000000;stroke-width:2;stroke-linecap:round;stroke-linejoin:round;stroke-miterlimit:10;" d="M31,7c0.25-0.25,3.438-3,5-3s1,1,1,1h-3"/><path style="fill:none;stroke:#000000;stroke-width:2;stroke-linecap:round;stroke-linejoin:round;stroke-miterlimit:10;" d="M19.099,7c-0.25-0.25-3.437-3-5-3s-1,1-1,1h3"/><path d="M17.972,27.764c-1.067-4.387-0.974-6.691-0.973-6.714L16,21l-0.999-0.053c-0.005,0.095-0.102,2.182,0.767,6.161c-1.015,0.181-1.954,0.582-2.768,1.151v2.771C13.912,29.806,15.359,29,17,29c0.307,0,0.597-0.141,0.786-0.382S18.044,28.062,17.972,27.764z"/><path d="M37,28.26c-0.814-0.569-1.753-0.97-2.768-1.151c0.868-3.979,0.771-6.066,0.767-6.161l-1.997,0.103c0.001,0.022,0.094,2.327-0.973,6.714c-0.072,0.298-0.004,0.613,0.186,0.854S32.693,29,33,29c1.641,0,3.088,0.806,4,2.031V28.26z"/></svg>