<?xml version="1.0" encoding="iso-8859-1"?><!-- Generator: Adobe Illustrator 19.1.1, SVG Export Plug-In . SVG Version: 6.00 Build 0)  --><svg xmlns="http://www.w3.org/2000/svg" xmlns:xlink="http://www.w3.org/1999/xlink" viewBox="0 0 50 50" width="50px" height="50px"><g><circle cx="20" cy="21" r="1.5"/><path d="M45.982,38.083C45.985,38.055,46,38.029,46,38c0-0.546-0.031-13.433-3.045-21.301C41.611,11.389,33.589,2,22.222,2C11.072,2,2,11.072,2,22.222c0,6.194,1.508,11.523,1.572,11.747c0.071,0.249,0.236,0.461,0.46,0.59c3.79,2.192,25.931,13.137,32.84,13.44C36.887,48,36.901,48,36.916,48c0.188,0,0.372-0.053,0.531-0.153c5.894-3.698,8.366-9.212,8.468-9.444c0.012-0.028,0.009-0.06,0.019-0.089c0.016-0.046,0.042-0.086,0.05-0.135C45.99,38.146,45.98,38.115,45.982,38.083z M43.98,36.778c-10.112-2.175-18.783-8.435-22.161-11.132C23.677,24.915,25,23.114,25,21c0-0.716-0.157-1.393-0.429-2.009c9.634-0.074,14.778-0.795,16.678-1.137C43.467,24.033,43.897,33.447,43.98,36.778z M23,21c0,1.654-1.346,3-3,3s-3-1.346-3-3s1.346-3,3-3S23,19.346,23,21z"/></g></svg>