<?xml version="1.0" encoding="iso-8859-1"?><!-- Generator: Adobe Illustrator 20.1.0, SVG Export Plug-In . SVG Version: 6.00 Build 0)  --><svg xmlns="http://www.w3.org/2000/svg" xmlns:xlink="http://www.w3.org/1999/xlink" viewBox="0 0 50 50" width="50px" height="50px"><path style="fill:none;stroke:#000000;stroke-width:2;stroke-linecap:round;stroke-linejoin:round;stroke-miterlimit:10;" d="M8.485,10C4.474,14.14,2,19.78,2,26c0,5.269,1.776,10.122,4.757,14"/><path style="fill:none;stroke:#000000;stroke-width:2;stroke-linecap:round;stroke-linejoin:round;stroke-miterlimit:10;" d="M43.243,40C46.224,36.122,48,31.269,48,26c0-6.22-2.474-11.86-6.485-16"/><path d="M25,7C14.507,7,6,15.507,6,26s8.507,19,19,19s19-8.507,19-19S35.493,7,25,7z M27,36c0,0.552-0.448,1-1,1h-2c-0.552,0-1-0.448-1-1v-2c0-0.552,0.448-1,1-1h2c0.552,0,1,0.448,1,1V36z M27,28c0,0.552-0.448,1-1,1h-2c-0.552,0-1-0.448-1-1V15c0-0.552,0.448-1,1-1h2c0.552,0,1,0.448,1,1V28z"/></svg>