<?xml version="1.0" encoding="iso-8859-1"?>
<!-- Generator: Adobe Illustrator 25.2.3, SVG Export Plug-In . SVG Version: 6.00 Build 0)  -->
<svg version="1.1" baseProfile="basic" id="Layer_1"
	 xmlns="http://www.w3.org/2000/svg" xmlns:xlink="http://www.w3.org/1999/xlink" x="0px" y="0px" viewBox="0 0 50 50"
	 xml:space="preserve">
<path d="M48.89,21.72l-2.56-4.65c-0.7-1.28-2.04-2.07-3.5-2.07H37c-1.1,0-2,0.9-2,2v12c0,1.1-0.9,2-2,2H21v4l1.05,0.52
	C22.02,35.35,22,35.18,22,35c0-1.66,1.34-3,3-3s3,1.34,3,3c0,0.35-0.06,0.69-0.18,1h12.36C40.06,35.69,40,35.35,40,35
	c0-1.66,1.34-3,3-3s3,1.34,3,3c0,0.35-0.06,0.69-0.18,1H47c1.65,0,3-1.35,3-3v-6.95C50,24.54,49.61,23.04,48.89,21.72z M41,25
	c-0.55,0-1-0.45-1-1v-4c0-0.55,0.45-1,1-1h4.11l2.02,3.68c0.4,0.72,0.66,1.51,0.78,2.32H41z"/>
<path d="M18,31v4h-1c0-1.66-1.34-3-3-3s-3,1.34-3,3H9c0-1.66-1.34-3-3-3s-3,1.34-3,3H2v-4H18z"/>
<path d="M32,29H1c-0.552,0-1-0.448-1-1V12c0-0.552,0.448-1,1-1h31c0.552,0,1,0.448,1,1v16C33,28.552,32.552,29,32,29z"/>
<path d="M25,39c-2.206,0-4-1.794-4-4s1.794-4,4-4s4,1.794,4,4S27.206,39,25,39z M25,33c-1.103,0-2,0.897-2,2s0.897,2,2,2
	s2-0.897,2-2S26.103,33,25,33z"/>
<path d="M14,39c-2.206,0-4-1.794-4-4s1.794-4,4-4s4,1.794,4,4S16.206,39,14,39z M14,33c-1.103,0-2,0.897-2,2s0.897,2,2,2
	s2-0.897,2-2S15.103,33,14,33z"/>
<path d="M6,39c-2.206,0-4-1.794-4-4s1.794-4,4-4s4,1.794,4,4S8.206,39,6,39z M6,33c-1.103,0-2,0.897-2,2s0.897,2,2,2s2-0.897,2-2
	S7.103,33,6,33z"/>
<circle style="fill:none;stroke:#000000;stroke-width:2;stroke-linejoin:round;stroke-miterlimit:10;" cx="43" cy="35" r="3"/>
<path d="M27.64,32h-5.28C21.53,32.73,21,33.8,21,35c0,2.21,1.79,4,4,4s4-1.79,4-4C29,33.8,28.47,32.73,27.64,32z M25,37
	c-1.1,0-2-0.9-2-2s0.9-2,2-2s2,0.9,2,2S26.1,37,25,37z"/>
<path d="M16.64,32h-5.28C10.53,32.73,10,33.8,10,35c0,2.21,1.79,4,4,4s4-1.79,4-4C18,33.8,17.47,32.73,16.64,32z M14,37
	c-1.1,0-2-0.9-2-2s0.9-2,2-2s2,0.9,2,2S15.1,37,14,37z"/>
<path d="M8.64,32H3.36C2.53,32.73,2,33.8,2,35c0,2.21,1.79,4,4,4s4-1.79,4-4C10,33.8,9.47,32.73,8.64,32z M6,37c-1.1,0-2-0.9-2-2
	s0.9-2,2-2s2,0.9,2,2S7.1,37,6,37z"/>
<circle style="fill:none;stroke:#000000;stroke-width:2;stroke-linejoin:round;stroke-miterlimit:10;" cx="43" cy="35" r="3"/>
</svg>