<?xml version="1.0" encoding="iso-8859-1"?><!-- Generator: Adobe Illustrator 19.1.0, SVG Export Plug-In . SVG Version: 6.00 Build 0)  --><svg xmlns="http://www.w3.org/2000/svg" xmlns:xlink="http://www.w3.org/1999/xlink" viewBox="0 0 50 50" width="500px" height="500px"><path style="fill:none;stroke:#000000;stroke-width:2;stroke-miterlimit:10;" d="M44,34v5c0,1.104-0.896,2-2,2h-4c-1.103,0-2-0.896-2-2v-2"/><path style="fill:none;stroke:#000000;stroke-width:2;stroke-miterlimit:10;" d="M14,37v2c0,1.104-0.896,2-2,2H8c-1.103,0-2-0.896-2-2v-5"/><path style="fill:none;stroke:#000000;stroke-width:2;stroke-linecap:round;stroke-linejoin:round;stroke-miterlimit:10;" d="M35,27c0.904,0,3.245,0,4,0c1.104,0,2,0.895,2,2c0,1.307-0.919,1.927-2.08,2.584C37.187,32.567,36.676,33,35,33c-1.656,0-3-1.342-3-3S33.344,27,35,27z"/><path style="fill:none;stroke:#000000;stroke-width:2;stroke-linecap:round;stroke-linejoin:round;stroke-miterlimit:10;" d="M15,27c-0.904,0-3.245,0-4,0c-1.104,0-2,0.895-2,2c0,1.307,0.919,1.927,2.08,2.584C12.813,32.567,13.324,33,15,33c1.656,0,3-1.342,3-3S16.656,27,15,27z"/><path style="fill:none;stroke:#000000;stroke-width:2;stroke-miterlimit:10;" d="M7.9,37C6.853,37,6,36.166,6,35.143v-7.972c0,0,4.901-13.085,5.571-14.386C12.384,11.207,14.429,10.5,15.9,10c0,0,2.1-1,9.1-1s9.1,1,9.1,1c1.257,0.357,3.543,1.089,4.257,2.714C39.171,14.568,44,27.171,44,27.171v7.972C44,36.166,43.147,37,42.1,37H7.9z"/><path style="fill:none;stroke:#000000;stroke-width:2;stroke-miterlimit:10;" d="M9.156,19C8.734,20.078,6.812,24,13,24c2,0,22,0,24,0c6.188,0,4.266-3.922,3.844-5"/><path style="fill:none;stroke:#000000;stroke-width:2;stroke-miterlimit:10;" d="M8.468,20H5.099C2.527,20,2,21.532,2,22.588C2,23.645,2.787,24,4.083,24h2.771"/><path style="fill:none;stroke:#000000;stroke-width:2;stroke-miterlimit:10;" d="M41.532,20h3.369C47.473,20,48,21.532,48,22.588C48,23.645,47.213,24,45.917,24h-2.771"/></svg>