<?xml version="1.0" encoding="iso-8859-1"?><!-- Generator: Adobe Illustrator 22.0.1, SVG Export Plug-In . SVG Version: 6.00 Build 0)  --><svg xmlns="http://www.w3.org/2000/svg" xmlns:xlink="http://www.w3.org/1999/xlink" viewBox="0 0 50 50" width="50px" height="50px"><path d="M23.94,37.44c-0.09-0.23-2.05-5.44-2.4-6.24c-0.49-1.14-1.81-1.55-2.38-1.72C18.81,29.34,17.66,29,15,29c-2.74,0-3.87,0.36-4.19,0.5c-0.7,0.24-1.84,0.64-2.36,1.67c-0.29,0.58-2.04,5.33-2.39,6.27L6,37.61V43c0,0.55,0.45,1,1,1h3l0.33-1h9.34L20,44h3c0.55,0,1-0.45,1-1v-5.39L23.94,37.44z M10.24,32.07c0.16-0.32,0.85-0.55,1.33-0.73c0.01,0,0.87-0.34,3.43-0.34c2.52,0,3.39,0.33,3.39,0.33l0.16,0.06c0.95,0.27,1.12,0.53,1.16,0.6c0.14,0.34,0.64,1.62,1.17,3.01H9.1C9.67,33.49,10.13,32.28,10.24,32.07z M10.5,40C9.67,40,9,39.33,9,38.5S9.67,37,10.5,37s1.5,0.67,1.5,1.5S11.33,40,10.5,40z M19.5,40c-0.83,0-1.5-0.67-1.5-1.5s0.67-1.5,1.5-1.5s1.5,0.67,1.5,1.5S20.33,40,19.5,40z"/><path d="M43.94,37.44c-0.09-0.23-2.05-5.44-2.4-6.24c-0.49-1.14-1.81-1.55-2.38-1.72C38.81,29.34,37.66,29,35,29c-2.74,0-3.87,0.36-4.19,0.5c-0.7,0.24-1.84,0.64-2.36,1.67c-0.29,0.58-2.04,5.33-2.39,6.27L26,37.61V43c0,0.55,0.45,1,1,1h3l0.33-1h9.34L40,44h3c0.55,0,1-0.45,1-1v-5.39L43.94,37.44z M30.24,32.07c0.16-0.32,0.85-0.55,1.33-0.73c0.01,0,0.87-0.34,3.43-0.34c2.52,0,3.39,0.33,3.39,0.33l0.16,0.06c0.95,0.27,1.12,0.53,1.16,0.6c0.14,0.34,0.64,1.62,1.17,3.01H29.1C29.67,33.49,30.13,32.28,30.24,32.07z M30.5,40c-0.83,0-1.5-0.67-1.5-1.5s0.67-1.5,1.5-1.5s1.5,0.67,1.5,1.5S31.33,40,30.5,40z M39.5,40c-0.83,0-1.5-0.67-1.5-1.5s0.67-1.5,1.5-1.5s1.5,0.67,1.5,1.5S40.33,40,39.5,40z"/><line style="fill:none;stroke:#000000;stroke-width:2;stroke-miterlimit:10;" x1="47" y1="44" x2="47" y2="24"/><line style="fill:none;stroke:#000000;stroke-width:2;stroke-miterlimit:10;" x1="3" y1="24" x2="3" y2="44"/><rect x="1" y="7" width="48" height="5"/><path d="M50,20c0,2.76-2.24,5-5,5c-1.63,0-3.09-0.79-4-2c-0.91,1.21-2.37,2-4,2s-3.09-0.79-4-2c-0.91,1.21-2.37,2-4,2s-3.09-0.79-4-2c-0.91,1.21-2.37,2-4,2s-3.09-0.79-4-2c-0.91,1.21-2.37,2-4,2s-3.09-0.79-4-2c-0.91,1.21-2.37,2-4,2c-2.76,0-5-2.24-5-5c0-0.05,0-0.09,0.01-0.14L0.85,14h48.3l0.84,5.86C50,19.91,50,19.95,50,20z"/></svg>