<?xml version="1.0" encoding="iso-8859-1"?><!-- Generator: Adobe Illustrator 19.1.1, SVG Export Plug-In . SVG Version: 6.00 Build 0)  --><svg xmlns="http://www.w3.org/2000/svg" xmlns:xlink="http://www.w3.org/1999/xlink" viewBox="0 0 50 50" width="500px" height="500px"><polyline style="fill:none;stroke:#000000;stroke-width:2;stroke-linecap:round;stroke-linejoin:round;stroke-miterlimit:10;" points="32,21 13,21 9,21 4,30 4,30 6,40 9,40 "/><g><circle style="fill:none;stroke:#000000;stroke-width:2;stroke-miterlimit:10;" cx="35.5" cy="42.5" r="3.5"/></g><g><circle style="fill:none;stroke:#000000;stroke-width:2;stroke-miterlimit:10;" cx="11.5" cy="42.5" r="3.5"/></g><g><circle style="fill:none;stroke:#000000;stroke-width:2;stroke-miterlimit:10;" cx="18.5" cy="42.5" r="3.5"/></g><path style="fill:none;stroke:#000000;stroke-width:2;stroke-miterlimit:10;" d="M38,42h6c1.1,0,2-0.9,2-2v-6.203c0-0.522-0.136-1.035-0.395-1.488l-2.741-4.797C42.33,26.577,41.336,26,40.259,26H34c-1.1,0-2,0.9-2,2v2"/><path style="fill:none;stroke:#000000;stroke-width:2;stroke-miterlimit:10;" d="M46,34h-6c-0.55,0-1-0.45-1-1v-7"/><line style="fill:none;stroke:#000000;stroke-width:2;stroke-linecap:round;stroke-miterlimit:10;" x1="14" y1="21" x2="9" y2="39"/><path style="fill:none;stroke:#000000;stroke-width:2;stroke-miterlimit:10;" d="M32,40l-6.414-6.683c-0.742-0.742-0.784-1.931-0.097-2.724l13.105-14.999c0.687-0.793,0.645-1.982-0.097-2.724l-3.683-3.683"/><polygon style="fill:none;stroke:#000000;stroke-width:2;stroke-miterlimit:10;" points="30,10 35,15 42,7 38,3 "/><circle cx="29" cy="13" r="1"/><circle cx="26" cy="18" r="1"/><circle cx="31" cy="15" r="1"/><circle cx="25" cy="15" r="1"/><circle cx="28" cy="16" r="1"/><circle cx="30" cy="18" r="1"/><line style="fill:none;stroke:#000000;stroke-width:2;stroke-miterlimit:10;" x1="32" y1="23" x2="32" y2="40"/><g><path d="M26.882,39H21c-0.553,0-1,0.448-1,1s0.447,1,1,1h7.802L26.882,39z"/></g><g><path d="M45.555,22.168l-3-2C42.391,20.059,42.197,20,42,20h-3.272l-1.748,2h4.717l2.748,1.832C44.616,23.946,44.809,24,44.999,24c0.323,0,0.641-0.156,0.833-0.445C46.139,23.095,46.015,22.474,45.555,22.168z"/><path d="M32,22h2.325l1.748-2H32c-0.553,0-1,0.448-1,1S31.447,22,32,22z"/></g></svg>