<?xml version="1.0" encoding="iso-8859-1"?>
<!-- Generator: Adobe Illustrator 23.0.6, SVG Export Plug-In . SVG Version: 6.00 Build 0)  -->
<svg version="1.1" id="&#x421;&#x43B;&#x43E;&#x439;_1"
	 xmlns="http://www.w3.org/2000/svg" xmlns:xlink="http://www.w3.org/1999/xlink" x="0px" y="0px" viewBox="0 0 50 50"
	 style="enable-background:new 0 0 50 50;" xml:space="preserve">
<path d="M43.97,29C43.44,40.07,34.18,49,23,49C11.42,49,2,39.58,2,28C2,16.76,10.88,7.55,22,7.03v1.99C12.04,9.55,4,17.92,4,28
	c0,10.48,8.52,19,19,19c10.15,0,18.45-7.99,18.98-18H43.97z"/>
<path d="M30,25c-0.55,0-1,0.45-1,1s0.45,1,1,1s1-0.45,1-1S30.55,25,30,25z M27,33c-0.55,0-1,0.45-1,1s0.45,1,1,1s1-0.45,1-1
	S27.55,33,27,33z M23,20c-0.55,0-1,0.45-1,1s0.45,1,1,1s1-0.45,1-1S23.55,20,23,20z M19,33c-0.55,0-1,0.45-1,1s0.45,1,1,1
	s1-0.45,1-1S19.55,33,19,33z M16,25c-0.55,0-1,0.45-1,1s0.45,1,1,1s1-0.45,1-1S16.55,25,16,25z"/>
<circle style="fill:#FFFFFF;" cx="23" cy="21" r="1"/>
<circle style="fill:#FFFFFF;" cx="30" cy="26" r="1"/>
<circle style="fill:#FFFFFF;" cx="27" cy="34" r="1"/>
<circle style="fill:#FFFFFF;" cx="19" cy="34" r="1"/>
<circle style="fill:#FFFFFF;" cx="16" cy="26" r="1"/>
<circle cx="16" cy="26" r="1"/>
<circle cx="19" cy="34" r="1"/>
<circle cx="23" cy="21" r="1"/>
<circle cx="23" cy="28" r="4"/>
<circle cx="27" cy="34" r="1"/>
<circle cx="30" cy="26" r="1"/>
<g>
	<path d="M37,28c0-7.72-6.28-14-14-14h-1V7.03C10.88,7.55,2,16.76,2,28c0,11.58,9.42,21,21,21c11.18,0,20.44-8.93,20.97-20H37V28z
		 M23,38c-5.51,0-10-4.49-10-10s4.49-10,10-10s10,4.49,10,10S28.51,38,23,38z"/>
	<path d="M41.378,9.622C34.395,2.64,25.908,2.079,24,2c0,0.673,0,1.347,0,2.02v8.01c8.03,0.5,14.47,6.94,14.97,14.97h8.01
		c0.673,0,1.347,0,2.02,0C48.921,25.092,48.36,16.605,41.378,9.622z"/>
</g>
</svg>