<svg xmlns="http://www.w3.org/2000/svg"  viewBox="0 0 50 50" width="500px" height="500px"><defs><style>.b98f56cd-c693-4bc3-8d23-55ad0529e2dc{fill:none;stroke:#000;stroke-miterlimit:10;stroke-width:2px;}</style></defs><title>iOS</title><g id="a4616bce-5493-4959-9dd9-6ce38bab864c" data-name="Auto Icons"><path class="b98f56cd-c693-4bc3-8d23-55ad0529e2dc" d="M1.041,42l-.02-15.979C1.009,16.072,9.407,8,19.772,8H49l-.02,16.021C48.968,33.954,40.577,42,30.23,42Z"/><path d="M15.765,31H8V19h7.765v1.7H9.9v3.393h5.552V25.7H9.9v3.6h5.866Z"/><path d="M18,25c0-3.8,2.111-6.143,5.51-6.143A4.828,4.828,0,0,1,28.6,22.919h-1.89a3.123,3.123,0,0,0-3.2-2.362c-2.2,0-3.568,1.712-3.568,4.447s1.373,4.439,3.577,4.439a3.056,3.056,0,0,0,3.187-2.159H28.6c-.339,2.313-2.348,3.855-5.077,3.855C20.122,31.139,18,28.794,18,25Z"/><path d="M42,25c0,3.765-2.153,6.143-5.7,6.143S30.59,28.769,30.59,25s2.2-6.135,5.714-6.135C39.83,18.861,42,21.223,42,25Zm-9.468,0c0,2.7,1.424,4.447,3.772,4.447,2.322,0,3.755-1.745,3.755-4.447,0-2.719-1.433-4.439-3.755-4.439C34,20.557,32.532,22.277,32.532,25Z"/></g></svg>