<?xml version="1.0" encoding="utf-8"?><!-- Generator: Adobe Illustrator 15.0.0, SVG Export Plug-In . SVG Version: 6.00 Build 0)  --><!DOCTYPE svg PUBLIC "-//W3C//DTD SVG 1.1//EN" "http://www.w3.org/Graphics/SVG/1.1/DTD/svg11.dtd"><svg xmlns="http://www.w3.org/2000/svg" xmlns:xlink="http://www.w3.org/1999/xlink" viewBox="0 0 50 50" width="50px" height="50px"><path fill="none" stroke="#000000" stroke-width="2" stroke-linecap="round" stroke-linejoin="round" stroke-miterlimit="10" d="M19.23,37.924c0,0,12.562,0,21.154,0c7.66,0,7.692-1.924,7.692-1.924"/><g><path d="M48.178,13L29,12.117L9.822,13C8.816,13,8,12.328,8,11.5S8.816,10,9.822,10L29,10.883L48.178,10C49.184,10,50,10.672,50,11.5S49.184,13,48.178,13z"/></g><line fill="none" stroke="#000000" stroke-width="2" stroke-linecap="round" stroke-linejoin="round" stroke-miterlimit="10" x1="29" y1="10" x2="29" y2="14.881"/><path d="M30.133,35.027c-3.566,0-6.588-0.23-8.42-2.043C20.561,31.844,20,30.214,20,28v-2.216c-4.386-1.083-9.928-2.539-12.984-3.343c-1.422-0.374-2.37-0.624-2.527-0.658c-0.945-0.158-1.593-1.012-1.509-2.022C3.064,18.757,3.843,18,4.792,18h18.319c1.483-1.945,3.734-4,7.889-4c8.986,0,19,5.339,19,13c0,8-8.5,8-16,8c-0.697,0-1.379,0.007-2.043,0.014C31.336,35.021,30.727,35.027,30.133,35.027z M38.621,17.253c-0.023,0.001-0.048,0.002-0.072,0.002c-3.123,0-4.549,0-4.549,6.994c0,1.33,0.788,2.75,3,2.75c7.496,0,9.75-0.448,10.852-1.386C47.091,22.058,43.466,18.916,38.621,17.253z"/><path fill="none" stroke="#000000" stroke-width="2" stroke-linecap="round" stroke-linejoin="round" stroke-miterlimit="10" d="M8.396,22.115C7.689,23.247,6.433,24,5,24c-2.209,0-4-1.791-4-4s1.791-4,4-4c1.64,0,3.049,0.986,3.667,2.399"/></svg>