<?xml version="1.0" encoding="utf-8"?><!-- Generator: Adobe Illustrator 15.0.0, SVG Export Plug-In . SVG Version: 6.00 Build 0)  --><!DOCTYPE svg PUBLIC "-//W3C//DTD SVG 1.1//EN" "http://www.w3.org/Graphics/SVG/1.1/DTD/svg11.dtd"><svg xmlns="http://www.w3.org/2000/svg" xmlns:xlink="http://www.w3.org/1999/xlink" viewBox="0 0 50 50" width="50px" height="50px"><path d="M12.496,46.973c-0.713,0-1.078-0.373-1.231-0.596c-0.196-0.283-0.374-0.773-0.103-1.494C11.405,44.234,15.681,33.83,17.255,30H6.641l-2.597,4.992C3.582,35.893,3.046,35.99,2.009,36H1.297c-0.41,0-0.782-0.169-1.021-0.463c-0.24-0.296-0.325-0.683-0.238-1.089c0.086-0.415,1.662-8.089,1.94-9.445c-0.609-2.882-1.917-9.106-1.958-9.57c-0.047-0.524,0.145-0.856,0.314-1.042C0.572,14.131,0.896,14,1.297,14H2c0.439,0.011,1.539,0.039,2.043,1.007L6.641,20h10.614c-1.575-3.83-5.85-14.234-6.093-14.882c-0.271-0.721-0.094-1.21,0.103-1.494c0.154-0.223,0.519-0.596,1.233-0.596l0.182,0.008c0.362,0.031,1.484,0.14,2.352,0.236c1.062,0.118,1.509,0.681,1.75,0.984C17.011,4.538,27.191,17.527,29.129,20h14.605c4.401,0,6.265,3.577,6.265,5c0,1.423-1.863,5-6.265,5H29.129c-2.175,2.776-12.114,15.457-12.306,15.693c-0.281,0.354-0.729,0.917-1.791,1.035c-0.869,0.096-1.991,0.205-2.354,0.235L12.496,46.973z M12.496,44.979l0.005,0.993l0.003-1c-0.003,0-0.006,0-0.009,0V44.979z"/></svg>