<?xml version="1.0" encoding="iso-8859-1"?>
<!-- Generator: Adobe Illustrator 23.0.3, SVG Export Plug-In . SVG Version: 6.00 Build 0)  -->
<svg version="1.1" xmlns="http://www.w3.org/2000/svg" xmlns:xlink="http://www.w3.org/1999/xlink" x="0px" y="0px"
	 viewBox="0 0 50 50" style="enable-background:new 0 0 50 50;" xml:space="preserve">
<g id="Layer_3" style="display:none;">
	<rect x="-118" y="-183" style="display:inline;fill:#FFFFFF;" width="776" height="203"/>
</g>
<g id="Layer_1">
</g>
<g id="Auto_Icons">
	<g>
		
			<line style="fill:none;stroke:#000000;stroke-width:2;stroke-linecap:round;stroke-miterlimit:10;" x1="11" y1="11" x2="4" y2="4"/>
		<polyline style="fill:none;stroke:#000000;stroke-width:2;stroke-linecap:round;stroke-miterlimit:10;" points="12,5 12,12 5,12 
					"/>
		<path d="M27.864,9.724c-10.016,0-18.136,8.122-18.136,18.14s8.12,18.14,18.136,18.14S46,37.882,46,27.864
			S37.88,9.724,27.864,9.724z M12.591,28.863h-0.955c-0.552,0-1-0.447-1-1s0.448-1,1-1h0.955c0.552,0,1,0.447,1,1
			S13.143,28.863,12.591,28.863z M26.864,11.637c0-0.553,0.448-1,1-1s1,0.447,1,1v0.954c0,0.553-0.448,1-1,1s-1-0.447-1-1V11.637z
			 M18.071,39.07l-0.955,0.955c-0.195,0.195-0.452,0.293-0.708,0.293s-0.512-0.098-0.707-0.293c-0.391-0.391-0.391-1.023,0-1.414
			l0.955-0.955c0.391-0.391,1.024-0.391,1.415,0S18.461,38.68,18.071,39.07z M18.071,18.07c-0.195,0.195-0.452,0.293-0.708,0.293
			s-0.512-0.098-0.707-0.293l-0.955-0.954c-0.391-0.391-0.391-1.023,0-1.414c0.391-0.391,1.024-0.391,1.415,0l0.955,0.954
			C18.461,17.047,18.461,17.68,18.071,18.07z M28.864,44.091c0,0.553-0.448,1-1,1s-1-0.447-1-1v-0.954c0-0.553,0.448-1,1-1
			s1,0.447,1,1V44.091z M27.864,29.773c-1.054,0-1.909-0.855-1.909-1.909c0-0.152,0.022-0.298,0.056-0.44l-5.536-5.535
			c-0.391-0.391-0.391-1.023,0-1.414s1.023-0.391,1.414,0l5.536,5.536c0.142-0.033,0.287-0.056,0.439-0.056
			c1.054,0,1.909,0.855,1.909,1.909S28.918,29.773,27.864,29.773z M40.025,40.025c-0.195,0.195-0.451,0.293-0.707,0.293
			s-0.512-0.098-0.708-0.293l-0.955-0.955c-0.39-0.391-0.39-1.023,0-1.414s1.024-0.391,1.415,0l0.955,0.955
			C40.416,39.002,40.416,39.635,40.025,40.025z M40.025,17.116l-0.955,0.954c-0.195,0.195-0.451,0.293-0.707,0.293
			s-0.512-0.098-0.708-0.293c-0.39-0.391-0.39-1.023,0-1.414l0.955-0.954c0.391-0.391,1.024-0.391,1.415,0
			C40.416,16.093,40.416,16.726,40.025,17.116z M44.091,28.863h-0.955c-0.552,0-1-0.447-1-1s0.448-1,1-1h0.955c0.552,0,1,0.447,1,1
			S44.643,28.863,44.091,28.863z"/>
	</g>
</g>
</svg>