<?xml version="1.0" encoding="iso-8859-1"?><!-- Generator: Adobe Illustrator 21.0.0, SVG Export Plug-In . SVG Version: 6.00 Build 0)  --><svg xmlns="http://www.w3.org/2000/svg" xmlns:xlink="http://www.w3.org/1999/xlink" viewBox="0 0 50 50" width="500px" height="500px"><circle style="fill:none;stroke:#000000;stroke-width:2;stroke-linecap:round;stroke-miterlimit:10;" cx="9" cy="33" r="3"/><circle style="fill:none;stroke:#000000;stroke-width:2;stroke-linecap:round;stroke-miterlimit:10;" cx="42" cy="33" r="3"/><line style="fill:none;stroke:#000000;stroke-width:2;stroke-linecap:round;stroke-miterlimit:10;" x1="38.896" y1="33" x2="11.981" y2="33"/><path style="fill:none;stroke:#000000;stroke-width:2;stroke-linecap:round;stroke-miterlimit:10;" d="M45.244,33H47c1.105,0,2-0.895,2-2v-3.317c0-0.949-0.667-1.768-1.597-1.959l-8.234-1.693l-3.972-4.634C34.437,18.51,33.328,18,32.161,18h-21c-0.718,0-1.381,0.385-1.737,1.008l-2.857,5l-3.761,0.366C1.781,24.474,1,25.335,1,26.365V31c0,1.105,0.895,2,2,2h3.021"/><line style="fill:none;stroke:#000000;stroke-width:2;stroke-linecap:round;stroke-miterlimit:10;" x1="6.682" y1="24" x2="39" y2="24"/><line style="fill:none;stroke:#000000;stroke-width:2;stroke-linecap:round;stroke-miterlimit:10;" x1="15" y1="18" x2="15" y2="24"/><line style="fill:none;stroke:#000000;stroke-width:2;stroke-linecap:round;stroke-miterlimit:10;" x1="29" y1="18" x2="29" y2="24"/><line style="fill:none;stroke:#000000;stroke-width:2;stroke-miterlimit:10;" x1="1" y1="28" x2="3" y2="28"/><line style="fill:none;stroke:#000000;stroke-width:2;stroke-miterlimit:10;" x1="47" y1="29" x2="49" y2="29"/></svg>