<?xml version="1.0" encoding="iso-8859-1"?><!-- Generator: Adobe Illustrator 19.1.0, SVG Export Plug-In . SVG Version: 6.00 Build 0)  --><svg xmlns="http://www.w3.org/2000/svg" xmlns:xlink="http://www.w3.org/1999/xlink" viewBox="0 0 50 50" width="500px" height="500px"><circle style="fill:none;stroke:#000000;stroke-width:2;stroke-miterlimit:10;" cx="39" cy="39" r="10"/><polyline style="fill:none;stroke:#000000;stroke-width:2;stroke-miterlimit:10;" points="30.19,44 4,44 4,39 29.028,39 "/><path style="fill:none;stroke:#000000;stroke-width:2;stroke-linecap:round;stroke-linejoin:round;stroke-miterlimit:10;" d="M13.306,35H8.694C8.311,35,8,34.689,8,34.306v-2.613C8,31.311,8.311,31,8.694,31h4.613C13.689,31,14,31.311,14,31.694v2.613C14,34.689,13.689,35,13.306,35z"/><path style="fill:none;stroke:#000000;stroke-width:2;stroke-linecap:round;stroke-linejoin:round;stroke-miterlimit:10;" d="M46,31.814v-0.611C46,28.839,44.113,27,41.785,27H40l-1.835-13.669c-0.114-1.725-6.089-3.1-14.165-3.1s-12.051,1.375-12.165,3.1L10,27H8.215C5.887,27,4,28.839,4,31.203V40"/><path style="fill:none;stroke:#000000;stroke-width:2.1667;stroke-miterlimit:10;" d="M45.758,22h-1.515C43.556,22,43,21.444,43,20.758v-5.515C43,14.556,43.556,14,44.242,14h1.515C46.444,14,47,14.556,47,15.242v5.515C47,21.444,46.444,22,45.758,22z"/><path style="fill:none;stroke:#000000;stroke-width:2.1667;stroke-miterlimit:10;" d="M4.242,22h1.515C6.444,22,7,21.444,7,20.758v-5.515C7,14.556,6.444,14,5.758,14H4.242C3.556,14,3,14.556,3,15.242v5.515C3,21.444,3.556,22,4.242,22z"/><path style="fill:none;stroke:#000000;stroke-width:2;stroke-linecap:round;stroke-linejoin:round;stroke-miterlimit:10;" d="M46,47c0,1.104-0.896,2-2,2h-4"/><path style="fill:none;stroke:#000000;stroke-width:2;stroke-linecap:round;stroke-linejoin:round;stroke-miterlimit:10;" d="M4,45v2c0,1.104,0.897,2,2,2h4c1.103,0,2-0.896,2-2v-2"/><path style="fill:none;stroke:#000000;stroke-width:1.9399;stroke-miterlimit:10;" d="M32,31.725v-3.104C32,27.726,31.274,27,30.379,27H19.621C18.726,27,18,27.726,18,28.621v4.758C18,34.274,18.726,35,19.621,35h10.122"/><line style="fill:none;stroke:#000000;stroke-width:2;stroke-miterlimit:10;" x1="44" y1="23.976" x2="44" y2="28"/><path style="fill:none;stroke:#000000;stroke-width:2;stroke-miterlimit:10;" d="M6,12.024V3.229C6,1.998,6.998,1,8.229,1h33.543C43.002,1,44,1.998,44,3.229v8.795"/><line style="fill:none;stroke:#000000;stroke-width:2;stroke-miterlimit:10;" x1="6" y1="28" x2="6" y2="23.976"/><path style="fill:none;stroke:#000000;stroke-width:2;stroke-linecap:round;stroke-linejoin:round;stroke-miterlimit:10;" d="M39,22c0,0-4.636,1-14,1s-14-1-14-1"/><polyline style="fill:none;stroke:#000000;stroke-width:2;stroke-miterlimit:10;" points="34.034,38.161 38.324,42.451 44.715,36.06 "/></svg>