<?xml version="1.0" encoding="iso-8859-1"?>
<!-- Generator: Adobe Illustrator 23.0.6, SVG Export Plug-In . SVG Version: 6.00 Build 0)  -->
<svg version="1.1" id="&#x421;&#x43B;&#x43E;&#x439;_1"
	 xmlns="http://www.w3.org/2000/svg" xmlns:xlink="http://www.w3.org/1999/xlink" x="0px" y="0px" viewBox="0 0 50 50"
	 style="enable-background:new 0 0 50 50;" xml:space="preserve">
<g>
	<path d="M16.875,23c5.53,0,11.47,1.969,15.255,3.5c-3.784,1.531-9.725,3.5-15.255,3.5C13.413,30,11,28.155,11,26.5
		S13.413,23,16.875,23 M16.875,21C12.526,21,9,23.462,9,26.5s3.526,5.5,7.875,5.5C26.5,32,37,26.5,37,26.5S26.5,21,16.875,21
		L16.875,21z"/>
</g>
<path style="fill:none;stroke:#000000;stroke-width:2;stroke-linecap:square;stroke-linejoin:round;stroke-miterlimit:10;" d="M2,21
	c5.25,0,8.75-5,15.75-5C26.062,16,37,21,44,21"/>
<path style="fill:none;stroke:#000000;stroke-width:2;stroke-linecap:square;stroke-linejoin:round;stroke-miterlimit:10;" d="M2,14
	c5.25,0,8.75-5,15.75-5C26.062,9,37,14,44,14"/>
<path style="fill:none;stroke:#000000;stroke-width:2;stroke-linecap:square;stroke-linejoin:round;stroke-miterlimit:10;" d="M2,32
	c5.25,0,8.75,5,15.75,5C26.062,37,37,32,44,32"/>
<path style="fill:none;stroke:#000000;stroke-width:2;stroke-linecap:square;stroke-linejoin:round;stroke-miterlimit:10;" d="M2,39
	c5.25,0,8.75,5,15.75,5C26.062,44,37,39,44,39"/>
<path d="M44,11c0,2,0,4,0,6c1.667-1,3.333-2,5-3C47.333,13,45.667,12,44,11z"/>
<path d="M44,18c0,2,0,4,0,6c1.667-1,3.333-2,5-3C47.333,20,45.667,19,44,18z"/>
<path d="M44,29c0,2,0,4,0,6c1.667-1,3.333-2,5-3C47.333,31,45.667,30,44,29z"/>
<path d="M44,36c0,2,0,4,0,6c1.667-1,3.333-2,5-3C47.333,38,45.667,37,44,36z"/>
</svg>