<?xml version="1.0" encoding="iso-8859-1"?><!-- Generator: Adobe Illustrator 19.1.0, SVG Export Plug-In . SVG Version: 6.00 Build 0)  --><svg xmlns="http://www.w3.org/2000/svg" xmlns:xlink="http://www.w3.org/1999/xlink" viewBox="0 0 50 50" width="500px" height="500px"><g><circle style="fill:none;stroke:#000000;stroke-width:2;stroke-miterlimit:10;" cx="40" cy="33" r="5"/></g><g><circle style="fill:none;stroke:#000000;stroke-width:2;stroke-miterlimit:10;" cx="10" cy="33" r="5"/></g><path style="fill:none;stroke:#000000;stroke-width:2;stroke-miterlimit:10;" d="M5,33H3c-1.105,0-2-0.895-2-2v-5.662c0-1.933,1.382-3.59,3.284-3.935L12,20h22"/><path style="fill:none;stroke:#000000;stroke-width:2;stroke-linecap:round;stroke-miterlimit:10;" d="M45,33h2c1.105,0,2-0.895,2-2v-5.498c0-2.005-1.484-3.7-3.471-3.965L34,20l-5.8-8.4"/><line style="fill:none;stroke:#000000;stroke-width:2;stroke-miterlimit:10;" x1="15" y1="33" x2="35" y2="33"/><path style="fill:none;stroke:#000000;stroke-width:2;stroke-miterlimit:10;" d="M21,20h-4v-3.807C17,15.534,17.534,15,18.193,15h0c0.488,0,0.926,0.297,1.107,0.75L21,20z"/></svg>