<?xml version="1.0" encoding="utf-8"?><!-- Generator: Adobe Illustrator 15.0.0, SVG Export Plug-In . SVG Version: 6.00 Build 0)  --><!DOCTYPE svg PUBLIC "-//W3C//DTD SVG 1.1//EN" "http://www.w3.org/Graphics/SVG/1.1/DTD/svg11.dtd"><svg xmlns="http://www.w3.org/2000/svg" xmlns:xlink="http://www.w3.org/1999/xlink" viewBox="0 0 50 50" width="50px" height="50px"><path d="M45.8,23.083h-1.5c-1.259,0-2.282-1.024-2.282-2.284v-5.5c0-1.259,1.023-2.283,2.282-2.283h1.5c1.259,0,2.283,1.024,2.283,2.283v5.5C48.083,21.995,46.995,23.083,45.8,23.083z"/><path d="M5.7,23.083H4.2c-1.216,0-2.284-1.114-2.284-2.383v-5.5c0-1.195,1.088-2.284,2.284-2.284h1.6c1.216,0,2.284,1.114,2.284,2.383v5.5C8.083,22.016,6.97,23.083,5.7,23.083z"/><path d="M6,50h4c1.654,0,3-1.346,3-3H3C3,48.654,4.346,50,6,50z"/><path d="M8.915,12.344C9.684,8.886,14.631,7.2,24,7.2c10.557,0,16.293,1.781,17.094,5.29c0.785-0.896,1.924-1.473,3.206-1.473H45V3.2C45,1.436,43.52,0,41.7,0H8.2C6.436,0,5,1.436,5,3.2v7.716h0.8C7.017,10.917,8.126,11.477,8.915,12.344z"/><path d="M29.838,35H19.6c-0.9,0-1.6-0.7-1.6-1.6V28.6c0-0.214,0.042-0.414,0.114-0.6c0.232-0.592,0.8-1,1.486-1h10.8c0.686,0,1.252,0.408,1.484,1C31.958,28.186,32,28.386,32,28.6v3.265C33.804,30.094,36.273,29,39,29c3.277,0,6.176,1.583,8,4.018V31.2c0-0.323-0.038-0.636-0.092-0.941c-0.012-0.063-0.021-0.129-0.034-0.192c-0.058-0.266-0.14-0.521-0.233-0.768c-0.041-0.105-0.086-0.209-0.134-0.311c-0.071-0.156-0.155-0.305-0.241-0.451c-0.115-0.191-0.24-0.378-0.379-0.553c-0.041-0.053-0.084-0.104-0.125-0.152c-0.229-0.268-0.482-0.516-0.762-0.73c-0.202-0.156-0.418-0.295-0.643-0.422c-0.045-0.025-0.09-0.05-0.137-0.074c-0.195-0.104-0.396-0.193-0.607-0.271c-0.121-0.044-0.247-0.078-0.375-0.113c-0.156-0.046-0.313-0.095-0.477-0.125C42.449,26.038,42.13,26,41.8,26h-0.923l-0.445-3.394l-0.414-3.145l-0.818-6.22C38.971,9.395,26.498,9.2,24,9.2c-4.84,0-12.991,0.525-13.192,3.969l-0.725,5.516l-0.538,4.096L9.123,26H8.2c-0.331,0-0.65,0.038-0.961,0.094c-0.165,0.031-0.321,0.08-0.479,0.125c-0.126,0.036-0.253,0.07-0.375,0.114c-0.209,0.078-0.412,0.169-0.606,0.272c-0.046,0.023-0.092,0.049-0.137,0.072C5.418,26.807,5.202,26.945,5,27.102c-0.279,0.217-0.531,0.463-0.761,0.73c-0.042,0.05-0.085,0.102-0.125,0.152c-0.138,0.175-0.263,0.359-0.378,0.553c-0.087,0.146-0.17,0.295-0.242,0.451c-0.048,0.102-0.092,0.205-0.134,0.311c-0.095,0.247-0.176,0.502-0.233,0.768c-0.014,0.063-0.022,0.129-0.034,0.192C3.038,30.564,3,30.877,3,31.2V38h26.051C29.155,36.942,29.429,35.935,29.838,35z M12.798,13.358C12.823,12.93,14.896,11.2,24,11.2c8.428,0,12.831,1.477,13.209,2.23l1.012,7.697C36.74,21.378,32.342,22,25,22s-11.742-0.622-13.221-0.874L12.798,13.358z M14,34.3c0,0.4-0.3,0.7-0.7,0.7H8.7C8.3,35,8,34.7,8,34.3v-2.6C8,31.3,8.3,31,8.7,31h4.6c0.4,0,0.7,0.3,0.7,0.7V34.3z"/><path d="M29.051,40H3v5h28.014C29.943,43.578,29.236,41.868,29.051,40z"/><path d="M39,49c-0.44,0-0.871-0.038-1.297-0.094C38.254,49.568,39.073,50,40,50h4c1.654,0,3-1.346,3-3h-2.018C43.313,48.25,41.246,49,39,49z"/><circle fill="none" stroke="#000000" stroke-width="2" stroke-miterlimit="10" cx="39" cy="39" r="10"/><polyline fill="none" stroke="#000000" stroke-width="2" stroke-miterlimit="10" points="34.034,38.161 38.324,42.451 44.715,36.061 "/></svg>