<svg xmlns="http://www.w3.org/2000/svg"  viewBox="0 0 50 50" width="500px" height="500px"><defs><style>.b58cd82a-e671-4810-815e-2cd434278971,.bbe24ffd-3e7d-4b5c-a63a-f35e78e8af99{fill:none;stroke:#000;stroke-width:2px;}.bbe24ffd-3e7d-4b5c-a63a-f35e78e8af99{stroke-miterlimit:10;}.b58cd82a-e671-4810-815e-2cd434278971{stroke-linejoin:round;}</style></defs><title>iOS</title><g id="fc8a0807-7ddf-4645-ac60-7c8085406bcb" data-name="Auto Icons"><path d="M18,36v1.856A1.174,1.174,0,0,1,16.8,39h-.6A1.172,1.172,0,0,1,15,37.856V35Z"/><path d="M32,36v1.856A1.174,1.174,0,0,0,33.2,39h.6A1.172,1.172,0,0,0,35,37.856V35Z"/><path d="M20.831,31.25H18.87a.808.808,0,0,0-.8.818c0,.536.368.789.826,1.058a3.64,3.64,0,0,0,1.932.579,1.228,1.228,0,0,0,0-2.455Z"/><path d="M29.137,31.25H31.1a.807.807,0,0,1,.8.818c0,.536-.368.789-.825,1.058a3.64,3.64,0,0,1-1.932.579,1.228,1.228,0,0,1,0-2.455Z"/><path class="bbe24ffd-3e7d-4b5c-a63a-f35e78e8af99" d="M17,36a1,1,0,0,1-1-1V32.555a9.973,9.973,0,0,1,.563-3.31c.763-2.164,2.057-5.812,2.3-6.309C19.278,22.068,21.41,21,25,21s5.739,1.006,6.107,1.895c.286.705,1.553,4.218,2.312,6.332A9.937,9.937,0,0,1,34,32.588V35a1,1,0,0,1-1,1Z"/><path class="b58cd82a-e671-4810-815e-2cd434278971" d="M17.5,26.337A2.07,2.07,0,0,0,19.763,28H30.169c2.085,0,2.085-1.148,2.241-2"/><path class="bbe24ffd-3e7d-4b5c-a63a-f35e78e8af99" d="M3.29,40.785,23.407,5.92a1.839,1.839,0,0,1,3.186,0L46.71,40.785A2.143,2.143,0,0,1,44.855,44H5.145A2.143,2.143,0,0,1,3.29,40.785Z"/></g></svg>