<?xml version="1.0" encoding="iso-8859-1"?>
<!-- Generator: Adobe Illustrator 22.1.0, SVG Export Plug-In . SVG Version: 6.00 Build 0)  -->
<svg version="1.1" id="Layer_1" xmlns="http://www.w3.org/2000/svg" xmlns:xlink="http://www.w3.org/1999/xlink" x="0px" y="0px"
	 viewBox="0 0 50 50" style="enable-background:new 0 0 50 50;" xml:space="preserve">
<path style="fill:none;stroke:#000000;stroke-width:2;stroke-miterlimit:10;" d="M40,34c-2.761,0-5,2.239-5,5c0,2.761,2.239,5,5,5
	s5-2.239,5-5C45,36.239,42.761,34,40,34z M10,34c-2.761,0-5,2.239-5,5c0,2.761,2.239,5,5,5s5-2.239,5-5C15,36.239,12.761,34,10,34z"
	/>
<path style="fill:none;stroke:#000000;stroke-width:2;stroke-miterlimit:10;" d="M45,39h2c1.1,0,2-0.9,2-2v-4.611
	c0-1.955-1.414-3.624-3.342-3.946L37,27l-7.232-7.578C29.008,18.52,27.889,18,26.71,18H8.598c-1.512,0-2.895,0.853-3.574,2.204
	L1.59,26.038C1.204,26.667,1,27.391,1,28.129v9.179C1,38.242,1.758,39,2.692,39H5 M15,39h20"/>
<path style="fill:none;stroke:#000000;stroke-width:2;stroke-linecap:round;stroke-linejoin:round;stroke-miterlimit:10;" d="
	M1.749,27H37"/>
<path style="fill:none;stroke:#000000;stroke-width:2;stroke-miterlimit:10;" d="M18,18v9"/>
<path style="fill:none;stroke:#000000;stroke-width:2;stroke-miterlimit:10;" d="M11,14v4"/>
<path style="fill:none;stroke:#000000;stroke-width:2;stroke-miterlimit:10;" d="M25,14v4"/>
<polygon style="fill:none;stroke:#000000;stroke-width:2;stroke-linejoin:round;stroke-miterlimit:10;" points="31,14 5,14 4,10 
	7,7 22,7 33,10 "/>
</svg>