<?xml version="1.0" encoding="utf-8"?><!-- Generator: Adobe Illustrator 18.1.1, SVG Export Plug-In . SVG Version: 6.00 Build 0)  --><svg xmlns="http://www.w3.org/2000/svg" xmlns:xlink="http://www.w3.org/1999/xlink" viewBox="0 0 50 50" width="500px" height="500px"><polygon fill="none" stroke="#000000" stroke-width="2" stroke-linecap="round" stroke-linejoin="round" stroke-miterlimit="10" points="36,17 24,31 10,31 17,17 "/><path fill="none" stroke="#000000" stroke-width="2" stroke-linecap="round" stroke-linejoin="round" stroke-miterlimit="10" d="M29,10c1,1,1,1,6,1c0,0.3,1.2,8.9,5,20"/><line fill="none" stroke="#000000" stroke-width="2" stroke-linecap="round" stroke-linejoin="round" stroke-miterlimit="10" x1="14.7" y1="12.4" x2="24" y2="31"/><path d="M20,11.6c0,0.7-1.1,1.4-3.7,1.4c-2.7,0-5.3,2.7-5.3-0.5c0-0.9,0.2-1.4,1.3-1.4c0.4,0,6.4,0,6.4,0C19.5,11,20,11,20,11.6z"/><circle fill="none" stroke="#000000" stroke-width="2" stroke-linecap="round" stroke-linejoin="round" stroke-miterlimit="10" cx="10" cy="31" r="9"/><circle fill="none" stroke="#000000" stroke-width="1.9999" stroke-linecap="round" stroke-linejoin="round" stroke-miterlimit="10" cx="40" cy="31" r="9"/></svg>