<?xml version="1.0" encoding="iso-8859-1"?><!-- Generator: Adobe Illustrator 21.0.2, SVG Export Plug-In . SVG Version: 6.00 Build 0)  --><svg xmlns="http://www.w3.org/2000/svg" xmlns:xlink="http://www.w3.org/1999/xlink" viewBox="0 0 50 50" width="50px" height="50px"><polygon points="32.47,18.848 33.53,17.152 25,11.821 16.47,17.152 17,18 17,18 17,18 17.53,18.848 18.887,18 31.113,18 "/><polygon style="fill:none;stroke:#000000;stroke-width:2;stroke-miterlimit:10;" points="11,18 39,18 35,31 15,31 "/><line style="fill:none;stroke:#000000;stroke-width:2;stroke-miterlimit:10;" x1="25" y1="18" x2="25" y2="31"/><path d="M31.106,30.553L30.882,31H19.118l-0.224-0.447L18,31h0l0,0l-0.894,0.447l1.447,2.894C19.064,35.364,20.092,36,21.236,36h7.528c1.144,0,2.172-0.635,2.684-1.658l1.447-2.895L31.106,30.553z"/><polygon points="20,34 20,48 21,48 22,48 28,48 29,48 30,48 30,34 "/><circle style="fill:none;stroke:#000000;stroke-width:2;stroke-miterlimit:10;" cx="25" cy="5" r="1"/><polyline style="fill:none;stroke:#000000;stroke-width:2;stroke-miterlimit:10;" points="17,18 25,13 25,5 "/></svg>