<?xml version="1.0" encoding="iso-8859-1"?>
<!-- Generator: Adobe Illustrator 23.0.3, SVG Export Plug-In . SVG Version: 6.00 Build 0)  -->
<svg version="1.1" xmlns="http://www.w3.org/2000/svg" xmlns:xlink="http://www.w3.org/1999/xlink" x="0px" y="0px"
	 viewBox="0 0 50 50" style="enable-background:new 0 0 50 50;" xml:space="preserve">
<g id="Layer_10" style="display:none;">
	<g style="opacity:0.05;">
		<g style="display:inline;">
			<circle style="fill:#FFFFFF;" cx="25" cy="25" r="21.5"/>
			<path d="M25,4c11.579,0,21,9.421,21,21s-9.421,21-21,21S4,36.579,4,25S13.421,4,25,4 M25,3C12.85,3,3,12.85,3,25s9.85,22,22,22
				s22-9.85,22-22S37.15,3,25,3L25,3z"/>
		</g>
		<g style="display:inline;">
			<rect x="5.5" y="5.5" style="fill:#FFFFFF;" width="39" height="39"/>
			<path d="M44,6v38H6V6H44 M45,5H5v40h40V5L45,5z"/>
		</g>
	</g>
</g>
<g id="filled">
</g>
<g id="outlined">
</g>
<g id="rounded">
</g>
<g id="two_x5F_tone">
</g>
<g id="sharp">
</g>
<g id="win10">
</g>
<g id="ios_x5F_out">
	<polyline style="fill:none;stroke:#000000;stroke-width:2;stroke-miterlimit:10;" points="27.818,25.013 16.788,36.044 
		10.131,29.387 	"/>
	<g>
		<path d="M4.47,30.8l1.42,1.42C3.86,34.24,3.15,40.5,7.5,45.5l-1.41,1.41C1.45,41.75,0.672,34.594,4.47,30.8 M4.471,27.972
			l-1.414,1.413c-4.554,4.549-3.875,12.834,1.546,18.862l1.41,1.568l1.491-1.491l1.41-1.41l1.319-1.319l-1.225-1.408
			c-3.769-4.332-2.906-9.358-1.708-10.55l1.421-1.414l-1.418-1.418l-1.42-1.42L4.471,27.972L4.471,27.972z"/>
	</g>
	<path style="fill:none;stroke:#000000;stroke-width:2;stroke-linejoin:round;stroke-miterlimit:10;" d="M30.93,27.558l3.536-3.536
		l0.414-10.899l1.414-1.414l-4.243-4.243l-1.414,1.414c0,0-6.364,0.707-9.192,3.536l-2.774,2.89L30.93,27.558L18.202,40.286
		c-0.781,0.781-2.047,0.781-2.828,0L4.474,29.387l2.769-2.769"/>
	<g>
		<path d="M48,2v2h-5.513c-0.801,0-1.555,0.243-2.122,0.81l-4.778,4.778l-1.414-1.414l4.778-4.778C39.895,2.451,41.665,2,43,2H48
			 M50,0h-2h-5c-1.606,0-4.001,0.519-5.464,1.982l-4.778,4.778l-1.414,1.414l1.414,1.414l1.414,1.414l1.414,1.414l1.414-1.414
			l4.778-4.778C41.928,6.075,42.166,6,42.487,6H48h2V4V2V0L50,0z"/>
	</g>
	<g>
		<path d="M10.888,10.387c0.33,0,0.683,0.03,1.057,0.091l0.538,0.084c2.135,0.33,4.353,0.074,6.841,2.561l-2.063,2.18l4.891,4.891
			c0.39,0.39,0.39,1.025,0,1.414c-0.195,0.195-0.451,0.292-0.707,0.292c-0.256,0-0.512-0.097-0.707-0.292l-1.414-1.414
			c-0.195-0.195-0.451-0.293-0.707-0.293c-0.256,0-0.512,0.098-0.707,0.293c-0.39,0.39-0.39,1.024,0,1.414l2.121,2.121
			c0.39,0.39,0.39,1.025,0,1.414c-0.195,0.195-0.451,0.292-0.707,0.292s-0.512-0.097-0.707-0.292l-2.121-2.121
			c-0.195-0.195-0.451-0.293-0.707-0.293c-0.256,0-0.512,0.098-0.707,0.293c-0.39,0.39-0.39,1.024,0,1.414l1.414,1.414
			c0.39,0.39,0.39,1.025,0,1.414c-0.195,0.195-0.451,0.292-0.707,0.292c-0.256,0-0.512-0.097-0.707-0.292l-1.414-1.414
			c-0.195-0.195-0.451-0.293-0.707-0.293s-0.512,0.098-0.707,0.293c-0.39,0.39-0.39,1.024,0,1.414l0.707,0.707
			c0.39,0.39,0.39,1.025,0,1.414c-0.195,0.195-0.451,0.292-0.707,0.292c-0.256,0-0.512-0.097-0.707-0.292l-8.212-8.212
			c-1.32-1.32-1.32-3.47,0-4.79l5.11-5.11C9.035,10.684,9.854,10.387,10.888,10.387 M10.888,8.387c-1.971,0-3.187,0.802-3.859,1.475
			l-5.11,5.11c-2.1,2.1-2.1,5.518,0,7.618l8.212,8.212c0.566,0.566,1.32,0.878,2.121,0.878c0.802,0,1.555-0.312,2.121-0.878
			c0.37-0.37,0.632-0.821,0.768-1.312c0.21,0.046,0.426,0.069,0.646,0.069c0.802,0,1.555-0.312,2.121-0.878
			c0.378-0.378,0.633-0.832,0.767-1.313c0.21,0.046,0.427,0.069,0.647,0.069c0.802,0,1.555-0.312,2.121-0.878
			c0.566-0.566,0.878-1.32,0.878-2.121c0-0.22-0.023-0.436-0.069-0.646c0.492-0.137,0.942-0.398,1.312-0.768
			c0.566-0.566,0.878-1.32,0.878-2.121c0-0.802-0.312-1.555-0.878-2.121l-3.515-3.515l0.726-0.767l1.337-1.413l-1.376-1.376
			c-2.541-2.541-4.95-2.793-6.886-2.996c-0.357-0.037-0.712-0.074-1.063-0.128l-0.535-0.084C11.788,8.426,11.324,8.387,10.888,8.387
			L10.888,8.387z"/>
	</g>
</g>
<g id="ios_x5F_filled">
</g>
<g id="color">
</g>
</svg>