<?xml version="1.0" encoding="iso-8859-1"?><!-- Generator: Adobe Illustrator 22.1.0, SVG Export Plug-In . SVG Version: 6.00 Build 0)  --><svg xmlns="http://www.w3.org/2000/svg" xmlns:xlink="http://www.w3.org/1999/xlink" viewBox="0 0 50 50" width="500px" height="500px"><path style="fill:none;stroke:#000000;stroke-width:2;stroke-linejoin:round;stroke-miterlimit:10;" d="M10,47v-2c0-2.761,2.239-5,5-5h19c2.761,0,5,2.239,5,5v2H10z"/><line style="fill:none;stroke:#000000;stroke-width:2;stroke-linejoin:round;stroke-miterlimit:10;" x1="15" y1="40" x2="11" y2="35"/><path style="fill:none;stroke:#000000;stroke-width:2;stroke-linejoin:round;stroke-miterlimit:10;" d="M32,39.875C42,31.75,45,19,45,12"/><path style="fill:none;stroke:#000000;stroke-width:2;stroke-linejoin:round;stroke-miterlimit:10;" d="M8,38c-1,0-5-5.791-5-8c0-4,5-7,13-7c7,0,10,0,14-5c2.794-3.492,7-12,14-12c1.657,0,3,1.343,3,3v3c-6,0-8,7-12,13s-8,7-15,7C10,32,9,38,8,38z"/><path style="fill:none;stroke:#000000;stroke-width:2;stroke-linejoin:round;stroke-miterlimit:10;" d="M30,17.929c-3.392-0.485-6-2.403-6-5.929c0-5,7-9,13-9c5,0,6,1.343,6,3"/></svg>