<?xml version="1.0" encoding="utf-8"?><!-- Generator: Adobe Illustrator 15.0.0, SVG Export Plug-In . SVG Version: 6.00 Build 0)  --><!DOCTYPE svg PUBLIC "-//W3C//DTD SVG 1.1//EN" "http://www.w3.org/Graphics/SVG/1.1/DTD/svg11.dtd"><svg xmlns="http://www.w3.org/2000/svg" xmlns:xlink="http://www.w3.org/1999/xlink" viewBox="0 0 50 50" width="50px" height="50px"><path fill="none" stroke="#000000" stroke-width="2" stroke-miterlimit="10" d="M7,39c-3.594,2.762-5.976,1-5.976,9.977C10,48.977,8.682,46.158,11,43"/><path d="M47.982,1c-0.303,0.005-7.489,0.17-14.458,3.639c-2.52,1.257-4.749,2.846-6.628,4.723C21.179,15.079,9.963,29.319,9.489,29.923l-0.115,0.146l-0.055,0.178c-0.162,0.525-0.37,2.559,3.756,6.686c3.156,3.155,5.1,3.818,6.175,3.818c0.243,0,0.41-0.036,0.507-0.066l0.178-0.055l0.146-0.115c0.61-0.481,15.003-11.856,20.558-17.409c1.873-1.876,3.459-4.105,4.712-6.625C48.803,9.525,48.993,2.324,49,2.021l0.021-1.039L47.982,1z M34,20c-2.209,0-4-1.791-4-4s1.791-4,4-4s4,1.791,4,4S36.209,20,34,20z"/><g><path d="M21.318,42.086l-0.146,0.115l-0.127,0.1l0.986,3.941c0.083,0.334,0.333,0.602,0.66,0.708C22.792,46.983,22.896,47,23,47c0.23,0,0.458-0.08,0.64-0.231l6-5C29.868,41.578,30,41.297,30,41v-5.93C25.515,38.769,21.631,41.839,21.318,42.086z"/></g><g><path d="M7.804,28.83l0.113-0.144c0.244-0.31,3.299-4.189,7.004-8.687H9c-0.297,0-0.578,0.132-0.768,0.36l-5,6c-0.22,0.265-0.29,0.624-0.183,0.951s0.374,0.576,0.708,0.659l3.946,0.987L7.804,28.83z"/></g><g><path d="M11.661,38.346c-1.873-1.874-3.004-3.449-3.654-4.762l-0.85,1.43c-0.565,0.999,0.356,2.713,2.738,5.094C11.842,42.054,13.294,43,14.334,43h0c0.313,0,0.53-0.086,0.672-0.167l1.411-0.836C14.979,41.291,13.405,40.09,11.661,38.346z"/></g></svg>