<?xml version="1.0" encoding="utf-8"?><!-- Generator: Adobe Illustrator 15.0.0, SVG Export Plug-In . SVG Version: 6.00 Build 0)  --><!DOCTYPE svg PUBLIC "-//W3C//DTD SVG 1.1//EN" "http://www.w3.org/Graphics/SVG/1.1/DTD/svg11.dtd"><svg xmlns="http://www.w3.org/2000/svg" xmlns:xlink="http://www.w3.org/1999/xlink" viewBox="0 0 50 50" width="50px" height="50px"><path d="M12,26C5.383,26,0,31.383,0,38s5.383,12,12,12s12-5.383,12-12S18.617,26,12,26z M12,42.5c-2.482,0-4.5-2.02-4.5-4.5s2.018-4.5,4.5-4.5s4.5,2.02,4.5,4.5S14.482,42.5,12,42.5z"/><path d="M49.615,24.21C49.101,23.475,48.093,23,47.049,23H28.792L24.647,7.777C24.284,6.063,23.155,5,21.703,5H5.966C4.33,5,3,6.339,3,7.985v16.43c-0.394,0.275-0.776,0.567-1.146,0.878c-0.444,0.374-0.502,1.038-0.128,1.482c0.374,0.445,1.038,0.501,1.482,0.128c2.538-2.135,5.763-3.311,9.08-3.311c7.785,0,14.119,6.334,14.119,14.12c0,0.581,0.471,1.052,1.052,1.052s1.052-0.471,1.052-1.052c0-0.24-0.025-0.474-0.036-0.711h14.498c1.514,0,3.454-1.398,3.993-2.877l2.894-7.938C50.111,25.497,50.024,24.796,49.615,24.21z M8.005,19v-9h12.46l2.454,9H8.005z"/><path d="M40.052,21v-4c0-2.345,0.679-2.924,0.87-2.951c0.29,0.018,0.579-0.079,0.794-0.278c0.214-0.199,0.336-0.479,0.336-0.771v-2c0-0.581-0.471-1.052-1.052-1.052c-4.416,0-7.052,2.571-7.052,6.878V21H40.052z"/><path d="M42.973,39.001h-1.355c0.84,0.733,1.382,1.8,1.382,2.999c0,2.205-1.795,4-3.999,4c-2.205,0-4.001-1.795-4.001-4c0-1.199,0.542-2.266,1.382-2.999h-4.789C31.212,39.94,31,40.951,31,42c0,4.411,3.589,8,8,8s8-3.589,8-8c0-1.391-0.376-2.734-1.043-3.918C45.01,38.646,43.965,39.001,42.973,39.001z"/></svg>