<?xml version="1.0" encoding="iso-8859-1"?><!-- Generator: Adobe Illustrator 21.0.2, SVG Export Plug-In . SVG Version: 6.00 Build 0)  --><svg xmlns="http://www.w3.org/2000/svg" xmlns:xlink="http://www.w3.org/1999/xlink" viewBox="0 0 50 50" width="50px" height="50px"><path d="M46,18h-1v-6.437c0-1.928-1.341-3.642-3.26-4.168h0C39.416,6.759,35.493,6,30,6s-9.416,0.759-11.74,1.396C16.341,7.922,15,9.636,15,11.563V18h-1c-0.552,0-1,0.448-1,1v4c0,0.552,0.448,1,1,1h1v15c0,1.103,0.897,2,2,2h2c1.103,0,2-0.897,2-2v-3h18v3c0,1.103,0.897,2,2,2h2c1.103,0,2-0.897,2-2V24h1c0.552,0,1-0.448,1-1v-4C47,18.448,46.552,18,46,18z M43,13v10H31V13H43z M17,13h12v10H17V13z M20.5,31c-0.828,0-1.5-0.672-1.5-1.5s0.672-1.5,1.5-1.5s1.5,0.672,1.5,1.5S21.328,31,20.5,31z M39.5,31c-0.828,0-1.5-0.672-1.5-1.5s0.672-1.5,1.5-1.5s1.5,0.672,1.5,1.5S40.328,31,39.5,31z"/><line style="fill:none;stroke:#000000;stroke-width:2;stroke-linecap:round;stroke-linejoin:round;stroke-miterlimit:10;" x1="7" y1="9" x2="7" y2="39"/><polygon points="7,6 11,11 3,11 "/><polygon points="7,41 3,36 11,36 "/></svg>