<?xml version="1.0" encoding="iso-8859-1"?><!-- Generator: Adobe Illustrator 21.0.0, SVG Export Plug-In . SVG Version: 6.00 Build 0)  --><svg xmlns="http://www.w3.org/2000/svg" xmlns:xlink="http://www.w3.org/1999/xlink" viewBox="0 0 50 50" width="50px" height="50px"><g id="Layer_1"></g><g id="Layer_2"><path d="M36,21c-1.004-1.424-2-3-4-6c-1.569-2.353-1.567-3-9-3c-0.876,0-2.919,0-4,0c-6,0-11,3-12,10c-0.985,0.004-2.408,0.212-3,1c-1.185,1.578-3,4.34-3,8c0,2,3.544,3.571,5,4l0.101-0.003C6.035,34.675,6,34.342,6,34c0-2.761,2.239-5,5-5s5,2.239,5,5c0,0.255-0.038,0.5-0.075,0.746l19.101-0.49C35.021,34.169,35,34.088,35,34c0-2.761,2.239-5,5-5s5,2.239,5,5c2,0,3-0.99,3-2.114v-5.035C48,25.714,45.34,21.22,36,21z M24,27h-3c-0.552,0-1-0.448-1-1s0.448-1,1-1h3c0.552,0,1,0.448,1,1S24.552,27,24,27z M18,22h-6c0.109-3,2-6.001,6-6h9c1.147,0,1.369,0.042,2,1l3,5H18z"/><circle style="fill:none;stroke:#000000;stroke-width:2;stroke-miterlimit:10;" cx="40" cy="34" r="5"/><circle style="fill:none;stroke:#000000;stroke-width:2;stroke-miterlimit:10;" cx="11" cy="34" r="5"/><path style="fill:none;stroke:#000000;stroke-width:2;stroke-miterlimit:10;" d="M45,34c2,0,3-0.99,3-2.114v-5.035c0-1.137-2.66-5.631-12-5.851c-1.004-1.424-2-3-4-6c-1.569-2.353-1.567-3-9-3c-0.876,0-2.919,0-4,0c-6,0-10,3-11,10c-0.985,0.004-2.408,0.212-3,1c-1.185,1.578-3,4.34-3,8c0,2,2.544,3.571,4,4"/><polyline style="fill:none;stroke:#000000;stroke-width:2;stroke-miterlimit:10;" points="15.975,35 35,35 35.025,34.998 "/><line style="fill:none;stroke:#000000;stroke-width:2;stroke-miterlimit:10;" x1="18" y1="23" x2="18" y2="16"/></g></svg>