<?xml version="1.0" encoding="utf-8"?>
<!-- Generator: Adobe Illustrator 24.1.3, SVG Export Plug-In . SVG Version: 6.00 Build 0)  -->
<svg version="1.1" id="Layer_1" xmlns="http://www.w3.org/2000/svg" xmlns:xlink="http://www.w3.org/1999/xlink" x="0px" y="0px"
	 viewBox="0 0 50 50" style="enable-background:new 0 0 50 50;" xml:space="preserve">
<style type="text/css">
	.st0{fill:none;stroke:#000000;stroke-width:2;stroke-linejoin:round;stroke-miterlimit:10;}
	.st1{fill:none;stroke:#000000;stroke-width:2;stroke-miterlimit:10;}
</style>
<path class="st0" d="M21,33.8V28H7l0,6"/>
<path d="M25.3,35.1l-11-4c-0.2-0.1-0.5-0.1-0.7,0l-11,4C2.3,35.2,2,35.6,2,36c0,1.6,0.9,3.7,1.8,5.3c0.3-0.2,0.6-0.5,0.7-0.6
	C4.9,40.3,5.4,40,6,40c0,0,0,0,0,0c0.6,0,1.1,0.3,1.5,0.7C7.8,41.1,8.9,42,10,42s2.2-0.9,2.5-1.3c0.4-0.4,0.9-0.7,1.5-0.7
	c0,0,0,0,0,0c0.6,0,1.1,0.3,1.5,0.7c0.3,0.4,1.4,1.3,2.5,1.3s2.2-0.9,2.5-1.3c0.4-0.4,0.9-0.7,1.5-0.7c0,0,0,0,0,0
	c0.6,0,1.1,0.3,1.5,0.7c0.1,0.1,0.4,0.4,0.7,0.6c0.9-1.7,1.8-3.7,1.8-5.3C26,35.6,25.7,35.2,25.3,35.1z M9,39c-0.5,0-1-0.7-1-1.5
	S8.5,36,9,36s1,0.7,1,1.5S9.5,39,9,39z M19,39c-0.5,0-1-0.7-1-1.5s0.5-1.5,1-1.5s1,0.7,1,1.5S19.5,39,19,39z"/>
<path class="st0" d="M18,45c3,0,4-2,4-2s1,2,4,2"/>
<path class="st0" d="M10,45c3,0,4-2,4-2s1,2,4,2"/>
<path class="st0" d="M2,45c3,0,4-2,4-2s1,2,4,2"/>
<line class="st1" x1="14" y1="14" x2="14" y2="19"/>
<rect x="3" y="12" width="46" height="2"/>
<line class="st1" x1="43" y1="14" x2="43" y2="46"/>
<line class="st1" x1="31" y1="13" x2="43" y2="36"/>
<line class="st1" x1="31" y1="3" x2="31" y2="46"/>
<polyline class="st1" points="46,13 31,3 6,13 "/>
<line class="st1" x1="43" y1="36" x2="30" y2="36"/>
<path d="M18,17h-8c-0.6,0-1,0.4-1,1v5c0,0.6,0.4,1,1,1h8c0.6,0,1-0.4,1-1v-5C19,17.4,18.6,17,18,17z"/>
</svg>