<?xml version="1.0" encoding="iso-8859-1"?>
<!-- Generator: Adobe Illustrator 18.0.0, SVG Export Plug-In . SVG Version: 6.00 Build 0)  -->
<!DOCTYPE svg PUBLIC "-//W3C//DTD SVG 1.1//EN" "http://www.w3.org/Graphics/SVG/1.1/DTD/svg11.dtd">
<svg version="1.1" id="Layer_1" xmlns="http://www.w3.org/2000/svg" xmlns:xlink="http://www.w3.org/1999/xlink" x="0px" y="0px"
	 width="50px" height="50px" viewBox="0 0 50 50" style="enable-background:new 0 0 50 50;" xml:space="preserve">
<g>
	<path d="M2,31H0v-3h2V31z M31,30h-2v-3h2V30z M2,26H0v-3h2V26z M31,24.986h-2V22h2V24.986z M2,21H0v-3h2V21z M31,20h-2v-3h2V20z
		 M2,16H0v-3h2V16z M31,15h-2v-3.159h2V15z M0,11.023V11c0-1.654,1.346-3,3-3l0.016,2C2.449,10,2,10.449,2,11L0,11.023z
		 M28.62,10.215C28.496,10.117,28.287,10,28,10h-2V8h2c0.671,0,1.331,0.229,1.858,0.645L28.62,10.215z M24,10h-3V8h3V10z M19,10h-3
		V8h3V10z M14,10h-3V8h3V10z M9,10H5.122V8H9V10z"/>
</g>
<path d="M33,13v25c0.48,2.832,3.031,5,6,5s5.43-2.168,5.906-5H47c1.57,0,3-1.43,3-3v-9.625c0-2.012-1.449-4.066-1.625-4.313
	L44.219,15.5C43.266,14.352,41.77,13,40,13H33z M38,18h5.594l3.188,4.25C47.121,22.73,48,24.203,48,25.375V26H38c-1,0-2-1-2-2v-4
	C36,18.895,37,18,38,18z M39,33c2.207,0,4,1.793,4,4s-1.793,4-4,4s-4-1.793-4-4S36.793,33,39,33z"/>
<path d="M29,32v3c0,0.551-0.449,1-1,1h-9.09c-0.478-2.833-2.942-5-5.91-5s-5.431,2.167-5.91,5H3c-0.551,0-1-0.449-1-1v-1.969H0V35
	c0,1.654,1.346,3,3,3h4.09c0.478,2.833,2.942,5,5.91,5s5.431-2.167,5.91-5H28c1.654,0,3-1.346,3-3v-3H29z M13,41
	c-2.206,0-4-1.794-4-4s1.794-4,4-4s4,1.794,4,4S15.206,41,13,41z"/>
</svg>