<?xml version="1.0" encoding="utf-8"?><!-- Generator: Adobe Illustrator 15.0.0, SVG Export Plug-In . SVG Version: 6.00 Build 0)  --><!DOCTYPE svg PUBLIC "-//W3C//DTD SVG 1.1//EN" "http://www.w3.org/Graphics/SVG/1.1/DTD/svg11.dtd"><svg xmlns="http://www.w3.org/2000/svg" xmlns:xlink="http://www.w3.org/1999/xlink" viewBox="0 0 50 50" width="50px" height="50px"><path d="M48.386,21.057l-4.155-5.542C43.278,14.367,41.772,13,40,13h-8c-1.654,0-3,1.346-3,3v22h4.09c0.479,2.833,2.943,5,5.91,5s5.432-2.167,5.91-5H47c1.654,0,3-1.346,3-3v-9.615C50,23.374,48.563,21.304,48.386,21.057z M44.346,19l2.427,3.237c0.305,0.427,1.045,1.667,1.199,2.763H38c-0.448,0-1-0.551-1-1v-4c0-0.554,0.547-1,1-1H44.346z M39,41c-2.206,0-4-1.794-4-4s1.794-4,4-4s4,1.794,4,4S41.206,41,39,41z"/><path d="M27,28H0v7.005C0,36.656,1.344,38,2.995,38H7.09c0.479,2.833,2.942,5,5.91,5s5.431-2.167,5.91-5H27V28z M13,41c-2.206,0-4-1.794-4-4s1.794-4,4-4s4,1.794,4,4S15.206,41,13,41z"/><path d="M17,23.359V26h10v-3c0-0.292-0.128-0.569-0.35-0.759l-21-18C5.255,3.902,4.663,3.923,4.293,4.293l-1,1C2.929,5.657,2.901,6.238,3.228,6.636L17,23.359z"/><path d="M6,18.171v-5.024l-2-2.429V19c0,0.552,0.448,1,1,1c0.551,0,1,0.449,1,1s-0.449,1-1,1s-1-0.449-1-1H2c0,1.654,1.346,3,3,3s3-1.346,3-3C8,19.696,7.164,18.584,6,18.171z"/></svg>