<svg xmlns="http://www.w3.org/2000/svg"  viewBox="0 0 47 45" width="500px" height="500px"><title>ios_protected-bike-lane</title><g id="Слой_2" data-name="Слой 2"><g id="Слой_6" data-name="Слой 6"><path d="M35.891,32.846v2.077A2.033,2.033,0,0,1,33.906,37H29.937a2.033,2.033,0,0,1-1.984-2.077V29.73" fill="none" stroke="#000" stroke-width="2"/><path d="M36.883,23H32.914a1.982,1.982,0,0,0-1.984,1.984c0,1.3.91,1.911,2.058,2.567,1.723.972,2.231,1.4,3.9,1.4a2.977,2.977,0,0,0,0-5.953Z" fill="none" stroke="#000" stroke-linecap="round" stroke-linejoin="round" stroke-width="2"/><path d="M47,33H29.836a1.873,1.873,0,0,1-1.883-1.855V23.172s4.863-13.089,5.524-14.388C34.285,7.205,36.316,6.5,37.773,6c0,0,2.282-1,9.227-1" fill="none" stroke="#000" stroke-width="2"/><path d="M31.082,14.848C30.664,15.959,28.758,20,34.9,20H47" fill="none" stroke="#000" stroke-width="2"/><path d="M30.4,16H27.059c-2.551,0-3.075,1.531-3.075,2.591S24.762,20,26.051,20H28.8" fill="none" stroke="#000" stroke-width="2"/><line x1="9" y1="39" x2="9" y2="26" fill="none" stroke="#000" stroke-linecap="round" stroke-miterlimit="10" stroke-width="2"/><path d="M13,33V26a4,4,0,0,0-4-4H9a4,4,0,0,0-4,4v7" fill="none" stroke="#000" stroke-linecap="round" stroke-miterlimit="10" stroke-width="2"/><line x1="9" y1="22" x2="9" y2="18" fill="none" stroke="#000" stroke-linecap="round" stroke-miterlimit="10" stroke-width="2"/><line x1="1" y1="17" x2="17" y2="17" fill="none" stroke="#000" stroke-linecap="round" stroke-miterlimit="10" stroke-width="2"/><path d="M46,44H25a2,2,0,0,1-2-2V28.5A2.5,2.5,0,0,0,20.5,26h0A2.5,2.5,0,0,0,18,28.5V42a2,2,0,0,1-2,2H2" fill="none" stroke="#000" stroke-linecap="round" stroke-miterlimit="10" stroke-width="2"/><path d="M4,16V13a3,3,0,0,1,3-3h4a3,3,0,0,1,3,3v3" fill="none" stroke="#000" stroke-linecap="round" stroke-miterlimit="10" stroke-width="2"/><circle cx="9" cy="4" r="3" fill="none" stroke="#000" stroke-linecap="round" stroke-miterlimit="10" stroke-width="2"/></g></g></svg>