<?xml version="1.0" encoding="utf-8"?><!-- Generator: Adobe Illustrator 15.0.0, SVG Export Plug-In . SVG Version: 6.00 Build 0)  --><!DOCTYPE svg PUBLIC "-//W3C//DTD SVG 1.1//EN" "http://www.w3.org/Graphics/SVG/1.1/DTD/svg11.dtd"><svg xmlns="http://www.w3.org/2000/svg" xmlns:xlink="http://www.w3.org/1999/xlink" viewBox="0 0 50 50" width="50px" height="50px"><path d="M41,50h-4c-1.654,0-3-1.346-3-3v-2.883l10-1.25V47C44,48.654,42.654,50,41,50z"/><path d="M13,50H9c-1.654,0-3-1.346-3-3v-4.133l10,1.25V47C16,48.654,14.654,50,13,50z"/><path d="M38,5H12c-3.86,0-7,3.14-7,7v31c0,1.654,1.346,3,3,3h34c1.654,0,3-1.346,3-3V12C45,8.14,41.859,5,38,5z M13,41c-1.657,0-3-1.344-3-3s1.343-3,3-3s3,1.344,3,3S14.657,41,13,41z M37,41c-1.656,0-3-1.344-3-3s1.344-3,3-3s3,1.344,3,3S38.656,41,37,41z M40,27c0,1.7-1.3,3-3,3H13c-1.7,0-3-1.3-3-3V13c0-1.7,1.3-3,3-3h24c1.7,0,3,1.3,3,3V27z"/><line fill="none" stroke="#000000" stroke-width="2" stroke-linecap="round" stroke-miterlimit="10" x1="31" y1="6" x2="34" y2="1"/><line fill="none" stroke="#000000" stroke-width="2" stroke-linecap="round" stroke-miterlimit="10" x1="19" y1="6" x2="16" y2="1"/><path d="M4,16c-1.159,0-2,0.841-2,2v6c0,1.159,0.841,2,2,2V16z"/><path d="M46,16v10c1.159,0,2-0.841,2-2v-6C48,16.841,47.159,16,46,16z"/></svg>