<?xml version="1.0" encoding="iso-8859-1"?>
<!-- Generator: Adobe Illustrator 22.1.0, SVG Export Plug-In . SVG Version: 6.00 Build 0)  -->
<svg version="1.1" id="Layer_1" xmlns="http://www.w3.org/2000/svg" xmlns:xlink="http://www.w3.org/1999/xlink" x="0px" y="0px"
	 viewBox="0 0 50 50" style="enable-background:new 0 0 50 50;" xml:space="preserve">
<path style="fill:none;stroke:#000000;stroke-width:2;stroke-miterlimit:10;" d="M44,40v5c0,1.104-0.896,2-2,2h-4
	c-1.103,0-2-0.896-2-2v-2 M14,43v2c0,1.104-0.896,2-2,2H8c-1.103,0-2-0.896-2-2v-5"/>
<path style="fill:none;stroke:#000000;stroke-width:2;stroke-linecap:round;stroke-linejoin:round;stroke-miterlimit:10;" d="M35,33
	c0.904,0,3.245,0,4,0c1.104,0,2,0.895,2,2c0,1.307-0.919,1.927-2.08,2.584C37.187,38.567,36.676,39,35,39c-1.656,0-3-1.342-3-3
	S33.344,33,35,33z M15,33c-0.904,0-3.245,0-4,0c-1.104,0-2,0.895-2,2c0,1.307,0.919,1.927,2.08,2.584C12.813,38.567,13.324,39,15,39
	c1.656,0,3-1.342,3-3S16.656,33,15,33z"/>
<path style="fill:none;stroke:#000000;stroke-width:2;stroke-miterlimit:10;" d="M8.712,26H5.099C2.527,26,2,27.532,2,28.588
	C2,29.645,2.787,30,4.083,30h3.124"/>
<path style="fill:none;stroke:#000000;stroke-width:2;stroke-miterlimit:10;" d="M41.236,26h3.665C47.473,26,48,27.532,48,28.588
	C48,29.645,47.213,30,45.917,30h-3.113"/>
<path d="M44.934,32.813c-0.197-0.516-4.847-12.646-5.661-14.502c-0.537-1.222-1.682-2.014-2.881-2.555
	c-0.211,0.638-0.471,1.254-0.78,1.84c0.771,0.354,1.536,0.849,1.83,1.52c0.744,1.694,4.976,12.72,5.559,14.24v7.786
	C43,41.615,42.596,42,42.1,42H7.9C7.404,42,7,41.615,7,41.143v-7.79c1.964-5.242,4.993-13.203,5.46-14.109
	c0.362-0.703,1.131-1.208,1.954-1.595c-0.314-0.587-0.575-1.206-0.789-1.846c-1.157,0.534-2.313,1.301-2.943,2.525
	c-0.677,1.315-5.114,13.148-5.618,14.493L5,32.99v8.152C5,42.718,6.301,44,7.9,44h34.2c1.599,0,2.9-1.282,2.9-2.857v-8.156
	L44.934,32.813z"/>
<path style="fill:none;stroke:#000000;stroke-width:2;stroke-miterlimit:10;" d="M9.156,25C8.734,26.078,6.812,30,13,30
	c0.998,0,23.002,0,24,0c6.188,0,4.266-3.922,3.844-5"/>
<path d="M25,2c-5.5,0-10,4.5-10,10s4.5,10,10,10s10-4.5,10-10S30.5,2,25,2z M25,20c-4.398,0-8-3.602-8-8s3.602-8,8-8s8,3.602,8,8
	S29.398,20,25,20z M24,9.699c0,2.102,4.5,1.301,4.5,4.801c0,2.5-2.398,2.801-2.801,2.801v1.398h-1.098v-1.398
	c-0.402,0-3-0.301-3-3.301h2c0,0.301,0,1.699,1.5,1.699c1.297,0,1.297-1,1.297-1.199c0-2.199-4.5-1.301-4.5-4.801
	c0-2.098,1.902-2.801,2.801-2.801v-1.5h1.102v1.5C26.5,7,28.398,7.5,28.398,10.102h-2c0-0.602-0.098-1.703-1.297-1.703
	C24,8.5,24,9.5,24,9.699z"/>
</svg>