<?xml version="1.0" encoding="iso-8859-1"?><!-- Generator: Adobe Illustrator 23.0.0, SVG Export Plug-In . SVG Version: 6.00 Build 0)  --><svg xmlns="http://www.w3.org/2000/svg" xmlns:xlink="http://www.w3.org/1999/xlink" viewBox="0 0 50 50" width="500px" height="500px"><g><path d="M47.825,30.684c-1.036-4.736-7.369-26.235-37.008-26.677c-0.01,0-0.019,0-0.029,0c-0.576,0-1.131,0.255-1.511,0.688l-6.634,7.571c-0.406,0.463-0.576,1.087-0.46,1.692l3.532,18.542c0.169,0.885,0.909,1.549,1.807,1.62l2.495,0.197l2.003,0.158c-0.323,0.956-0.505,1.976-0.505,3.039c0,5.262,4.281,9.543,9.543,9.543s9.542-4.281,9.542-9.543c0-0.541-0.056-1.067-0.143-1.584l2.003,0.158l10.435,0.824c0.053,0.004,0.105,0.006,0.158,0.006c0.63,0,1.228-0.298,1.607-0.81l2.818-3.805C47.823,31.838,47.949,31.251,47.825,30.684z M38.56,17.073c2.089,2.322,3.606,4.718,4.71,6.9l-23.039-6.24c-1.377-0.359-2.504-1.309-3.092-2.605s-0.561-2.77,0.03-3.96l2.654-4.25C27.555,8.431,33.838,11.824,38.56,17.073z M21.058,45.058c-4.159,0-7.543-3.384-7.543-7.543s3.384-7.543,7.543-7.543c4.158,0,7.542,3.384,7.542,7.543S25.216,45.058,21.058,45.058z M43.053,34.919l-10.435-0.824l-2.741-0.216c-1.433-3.463-4.844-5.907-8.818-5.907c-3.438,0-6.449,1.834-8.129,4.569l-2.755-0.218l-2.495-0.197L4.147,13.584l6.645-7.577c2.41,0.036,4.708,0.223,6.902,0.544l-2.268,3.639c-0.907,1.814-0.947,3.915-0.108,5.763c0.838,1.848,2.445,3.202,4.399,3.712l24.637,6.673c0.843,2.059,1.294,3.763,1.516,4.776L43.053,34.919z"/><circle cx="21.057" cy="37.514" r="1.971"/></g></svg>