<?xml version="1.0" encoding="iso-8859-1"?><!-- Generator: Adobe Illustrator 20.1.0, SVG Export Plug-In . SVG Version: 6.00 Build 0)  --><svg xmlns="http://www.w3.org/2000/svg" xmlns:xlink="http://www.w3.org/1999/xlink" viewBox="0 0 50 50" width="500px" height="500px"><circle cx="41" cy="30" r="2"/><circle cx="9" cy="30" r="2"/><path style="fill:none;stroke:#000000;stroke-width:2;stroke-linecap:round;stroke-linejoin:round;stroke-miterlimit:10;" d="M41,30c0,0-1.556-0.5-2.222-1.833C38.133,26.878,31,10,31,10h-3"/><path style="fill:none;stroke:#000000;stroke-width:2;stroke-linecap:round;stroke-linejoin:round;stroke-miterlimit:10;" d="M41,17h-7c-1.896,3.89-5,5-5,5v6c0,1.657-1.343,3-3,3h-1l-5-2L9,31v-2l10-4l5,1v-6l-7,1l-6.14-2.213L9,16"/><path style="fill:none;stroke:#000000;stroke-width:2;stroke-linecap:round;stroke-linejoin:round;stroke-miterlimit:10;" d="M6,16h17l3.753-2.252C27.569,13.259,28.503,13,29.454,13h2.713"/><path style="fill:none;stroke:#000000;stroke-width:2;stroke-linecap:round;stroke-linejoin:round;stroke-miterlimit:10;" d="M23.965,20.077c0,0,2.278,1.923,5.035,1.923"/><line style="fill:none;stroke:#000000;stroke-width:2;stroke-linecap:round;stroke-linejoin:round;stroke-miterlimit:10;" x1="18.026" y1="25.203" x2="20.931" y2="20.443"/><circle style="fill:none;stroke:#000000;stroke-width:2;stroke-linecap:round;stroke-linejoin:round;stroke-miterlimit:10;" cx="9" cy="30" r="7"/><circle style="fill:none;stroke:#000000;stroke-width:2;stroke-linecap:round;stroke-linejoin:round;stroke-miterlimit:10;" cx="41" cy="30" r="7"/><path d="M33.725,31.041l-0.994,0.141c-0.112-0.788-0.111-1.588,0.004-2.377l0.993,0.144C33.627,29.638,33.625,30.342,33.725,31.041z M33.944,32.066l-0.961,0.282c0.223,0.76,0.554,1.487,0.985,2.159l0.839-0.538C34.42,33.364,34.137,32.723,33.944,32.066z M38.641,21.989c-0.756,0.223-1.479,0.553-2.148,0.982c-0.673,0.432-1.279,0.954-1.8,1.553l0.756,0.657l0,0c0.45-0.517,0.975-0.983,1.582-1.371c0.602-0.386,1.241-0.668,1.894-0.86l0,0L38.641,21.989z M42.185,21.736c-0.79-0.114-1.59-0.114-2.377-0.001l0.143,0.993l0,0c0.699-0.1,1.402-0.099,2.092,0l0,0L42.185,21.736z M47.19,26.034c-0.002-0.003-0.004-0.005-0.006-0.008l0.839-0.539c-0.432-0.673-0.956-1.278-1.555-1.798l-0.656,0.757C46.331,24.897,46.799,25.425,47.19,26.034z M44.97,23.82l0.542-0.845c-0.67-0.43-1.398-0.761-2.164-0.985l-0.282,0.963l-0.001,0C43.735,23.148,44.376,23.439,44.97,23.82L44.97,23.82z M34.822,26.022l-0.844-0.543c-0.43,0.669-0.763,1.397-0.988,2.162l0.962,0.283C34.148,27.256,34.44,26.616,34.822,26.022z M48.347,30.002c-0.001,0.702-0.102,1.399-0.299,2.07l0,0l0.963,0.282c0.224-0.765,0.338-1.556,0.339-2.351L48.347,30.002C48.347,30.002,48.347,30.002,48.347,30.002z M48.272,28.957l0.994-0.142c-0.113-0.789-0.339-1.558-0.671-2.283L47.68,26.95C47.977,27.599,48.174,28.274,48.272,28.957z M47.682,33.056L47.682,33.056L47.682,33.056L47.682,33.056z M46.552,34.817L46.552,34.817l0.756,0.656c0.522-0.602,0.955-1.275,1.286-2.002l-0.912-0.416C47.395,33.687,47.017,34.281,46.552,34.817z M37.942,36.684l-0.416,0.912c0.724,0.33,1.491,0.556,2.279,0.67l0.144-0.993C39.256,37.173,38.581,36.976,37.942,36.684z M35.443,34.807C35.443,34.807,35.443,34.807,35.443,34.807l-0.761,0.657c0.521,0.604,1.126,1.129,1.797,1.561l0.543-0.845C36.442,35.807,35.91,35.348,35.443,34.807z M40.993,38.353c0.799,0.001,1.591-0.112,2.355-0.336l-0.282-0.961c0,0,0,0,0,0c-0.681,0.2-1.378,0.296-2.072,0.295L40.993,38.353z M45.807,35.554c-0.263,0.228-0.539,0.445-0.841,0.638c-0.298,0.191-0.606,0.349-0.919,0.492l0.419,0.914c0.357-0.163,0.706-0.354,1.038-0.567c0.336-0.216,0.66-0.457,0.96-0.716L45.807,35.554L45.807,35.554z"/><path d="M10.238,22.759l0.17-0.989c0.784,0.135,1.545,0.381,2.262,0.732l-0.441,0.901C11.603,23.096,10.934,22.879,10.238,22.759z M9.195,22.654l0.026-1.001c-0.792-0.021-1.585,0.072-2.357,0.276l0.255,0.964C7.813,22.709,8.511,22.636,9.195,22.654z M17.348,30.213c0.02-0.788-0.073-1.578-0.277-2.346c-0.205-0.773-0.516-1.51-0.927-2.189l-0.857,0.518l0,0c0.355,0.586,0.636,1.23,0.821,1.926c0.183,0.692,0.256,1.385,0.239,2.066l0,0L17.348,30.213z M16.503,33.663c0.35-0.717,0.596-1.478,0.729-2.263l-0.989-0.169l0,0c-0.119,0.696-0.335,1.365-0.641,1.992l0,0L16.503,33.663z M10.878,37.111c0.003-0.001,0.006-0.002,0.009-0.003l0.256,0.964c0.773-0.206,1.509-0.518,2.188-0.93l-0.519-0.856C12.224,36.642,11.578,36.926,10.878,37.111z M13.667,35.676l0.638,0.775c0.614-0.506,1.153-1.097,1.601-1.758l-0.83-0.563l0,0C14.684,34.707,14.211,35.227,13.667,35.676L13.667,35.676z M14.679,25.341l0.776-0.637c-0.505-0.615-1.096-1.154-1.755-1.603l-0.564,0.829C13.711,24.322,14.231,24.796,14.679,25.341z M6.747,36.996c-0.668-0.216-1.3-0.526-1.879-0.919l0,0l-0.564,0.83c0.659,0.448,1.377,0.799,2.134,1.043L6.747,36.996C6.747,36.996,6.747,36.996,6.747,36.996z M7.765,37.245l-0.169,0.989c0.786,0.134,1.587,0.155,2.379,0.06l-0.119-0.999C9.147,37.381,8.445,37.362,7.765,37.245z M4.044,35.428L4.044,35.428L4.044,35.428L4.044,35.428z M2.713,33.813L2.713,33.813l-0.856,0.519c0.413,0.681,0.921,1.299,1.512,1.837l0.675-0.741C3.531,34.961,3.081,34.42,2.713,33.813z M3.574,25.045l-0.741-0.676c-0.536,0.588-0.986,1.249-1.336,1.965l0.901,0.441C2.706,26.146,3.101,25.564,3.574,25.045z M6.126,23.241L6.126,23.241l-0.392-0.926c-0.735,0.311-1.42,0.726-2.036,1.232l0.638,0.776C4.868,23.885,5.469,23.52,6.126,23.241z M1.051,27.438c-0.246,0.76-0.381,1.549-0.401,2.345l1.001,0.026l0,0c0.018-0.709,0.14-1.402,0.354-2.063L1.051,27.438z M2.24,32.878c-0.136-0.32-0.259-0.65-0.35-0.996c-0.09-0.342-0.146-0.684-0.187-1.025l-0.999,0.118c0.046,0.389,0.121,0.78,0.222,1.162c0.102,0.386,0.233,0.768,0.388,1.133L2.24,32.878L2.24,32.878z"/></svg>