<?xml version="1.0" encoding="iso-8859-1"?>
<!-- Generator: Adobe Illustrator 23.0.3, SVG Export Plug-In . SVG Version: 6.00 Build 0)  -->
<svg version="1.1" xmlns="http://www.w3.org/2000/svg" xmlns:xlink="http://www.w3.org/1999/xlink" x="0px" y="0px"
	 viewBox="0 0 50 50" style="enable-background:new 0 0 50 50;" xml:space="preserve">
<g id="fan_x5F_speed_x5F_filled">
</g>
<g id="fan_x5F_speed_x5F_outlined">
</g>
<g id="fresh_x5F_air_x5F_outlined">
</g>
<g id="fresh_x5F_air_x5F_filled">
</g>
<g id="air_x5F_recirculation_x5F_outlined">
</g>
<g id="air_x5F_recirculation_x5F_filled">
</g>
<g id="fuel_x5F_filter_x5F_warning_x5F_outlined">
</g>
<g id="fuel_x5F_filter_x5F_warning_x5F_filled">
</g>
<g id="air_x5F_suspension_x5F_warning_x5F_outlined">
</g>
<g id="air_x5F_suspension_x5F_warning_x5F_filled">
</g>
<g id="convertible_x5F_roof_x5F_warning_x5F_outlined">
	<path style="fill:none;stroke:#000000;stroke-width:2;stroke-linecap:round;stroke-miterlimit:10;" d="M11,22c0,0,0-8,12-8"/>
	<polyline points="17,5 17,8 22,4 17,0 17,3 	"/>
	<polyline points="4,14 1,14 5,19 9,14 6,14 	"/>
	<path d="M7.61,7.02l1.41,1.41C7.15,10.41,6,13.06,6,16H4C4,12.52,5.38,9.35,7.61,7.02z"/>
	<path d="M17,3v2c-2.43,0-4.66,0.78-6.48,2.11L9.1,5.69C11.29,4,14.04,3,17,3z"/>
	<circle style="fill:none;stroke:#000000;stroke-width:2;stroke-miterlimit:10;" cx="40" cy="35" r="5"/>
	<circle style="fill:none;stroke:#000000;stroke-width:2;stroke-miterlimit:10;" cx="10" cy="35" r="5"/>
	<path style="fill:none;stroke:#000000;stroke-width:2;stroke-miterlimit:10;" d="M5,35H3c-1.105,0-2-0.895-2-2v-5.662
		c0-1.933,1.382-3.59,3.284-3.935L12,22h22"/>
	<path style="fill:none;stroke:#000000;stroke-width:2;stroke-linecap:round;stroke-miterlimit:10;" d="M45,35h2
		c1.105,0,2-0.895,2-2v-5.498c0-2.005-1.484-3.7-3.471-3.965L34,22l-5.8-8.4"/>
	<line style="fill:none;stroke:#000000;stroke-width:2;stroke-miterlimit:10;" x1="15" y1="35" x2="35" y2="35"/>
</g>
<g id="convertible_x5F_roof_x5F_warning_x5F_filled">
</g>
<g id="hill_x5F_descent_x5F_control_x5F_outlined">
</g>
<g id="hill_x5F_descent_x5F_control_x5F_filled">
</g>
<g id="steering_x5F_lock_x5F_warning_x5F_outlined">
</g>
<g id="steering_x5F_lock_x5F_warning_x5F_filled">
</g>
<g id="hazard_x5F_warning_x5F_flasher_x5F_outlined">
</g>
<g id="hazard_x5F_warning_x5F_flasher_x5F_filled">
</g>
<g id="horn_x5F_outlined">
</g>
<g id="horn_x5F_filled">
</g>
</svg>