<?xml version="1.0" encoding="iso-8859-1"?>
<!-- Generator: Adobe Illustrator 23.0.6, SVG Export Plug-In . SVG Version: 6.00 Build 0)  -->
<svg version="1.1" id="&#x421;&#x43B;&#x43E;&#x439;_1"
	 xmlns="http://www.w3.org/2000/svg" xmlns:xlink="http://www.w3.org/1999/xlink" x="0px" y="0px" viewBox="0 0 50 50"
	 style="enable-background:new 0 0 50 50;" xml:space="preserve">
<path style="fill:none;stroke:#000000;stroke-width:2;stroke-linecap:round;stroke-linejoin:round;stroke-miterlimit:10;" d="
	M35.111,25.669c0.856-0.291,3.072-1.046,3.786-1.29c1.045-0.356,2.182,0.202,2.538,1.248c0.421,1.237-0.249,2.12-1.136,3.117
	c-1.324,1.489-1.668,2.064-3.254,2.604c-1.568,0.534-3.272-0.303-3.807-1.873C32.704,27.907,33.543,26.203,35.111,25.669z"/>
<path style="fill:none;stroke:#000000;stroke-width:2;stroke-linecap:round;stroke-linejoin:round;stroke-miterlimit:10;" d="
	M19.986,33.99c-0.535-1.569-2.239-2.407-3.807-1.873c-0.856,0.291-3.072,1.046-3.786,1.29c-0.731,0.249-1.224,0.879-1.333,1.593"/>
<path style="fill:none;stroke:#000000;stroke-width:2;stroke-miterlimit:10;" d="M7.751,34c0.107-3.399,0.423-13.044,0.599-14.233
	c0.261-1.756,1.969-3.084,3.2-4.032c0,0,1.665-1.624,8.292-3.88c6.626-2.257,8.936-1.987,8.936-1.987
	c1.305-0.067,3.705-0.111,4.905,1.197c1.368,1.493,10.003,11.866,10.003,11.866l2.57,7.546c0.047,0.171,0.188,0.766-0.105,1.422
	C46.006,32.223,45.743,32.561,45,33c-0.567,0.335-1.562,0.815-3,1"/>
<path style="fill:none;stroke:#000000;stroke-width:2;stroke-miterlimit:10;" d="M8.068,26.428
	c-0.052,1.156-0.607,5.489,5.251,3.494c1.893-0.645,20.825-7.093,22.719-7.737c5.858-1.995,2.774-5.088,2.027-5.972"/>
<path style="fill:none;stroke:#000000;stroke-width:2;stroke-miterlimit:10;" d="M7.739,26.597L4.55,27.683
	c-2.435,0.829-2.44,2.449-2.099,3.449c0.341,1.001,1.2,1.083,2.427,0.665L7.5,30.904"/>
<path style="fill:none;stroke:#000000;stroke-width:2;stroke-miterlimit:10;" d="M38.037,15.937l3.189-1.086
	c2.435-0.829,3.427,0.451,3.768,1.451c0.341,1.001-0.29,1.59-1.517,2.008l-2.623,0.893"/>
<path style="fill:none;stroke:#000000;stroke-width:2;stroke-linecap:round;stroke-linejoin:round;stroke-miterlimit:10;" d="
	M49,35.654C48.506,35.857,47.909,36,47.154,36c-1.538,0-3.902-0.491-5.539-2c-1.637,1.509-4,2-5.538,2s-3.901-0.491-5.539-2
	c-1.637,1.509-4,2-5.538,2s-3.901-0.491-5.539-2c-1.637,1.509-4,2-5.538,2s-3.901-0.491-5.538-2c-1.637,1.509-4.001,2-5.539,2
	C2.156,36,1.555,35.927,1,35.828"/>
<path style="fill:none;stroke:#000000;stroke-width:2;stroke-linecap:round;stroke-linejoin:round;stroke-miterlimit:10;" d="
	M49,39.741C48.506,39.893,47.909,40,47.154,40c-1.538,0-3.902-0.368-5.539-1.497c-1.637,1.13-4,1.497-5.538,1.497
	s-3.901-0.368-5.539-1.497C28.901,39.632,26.538,40,25,40s-3.901-0.368-5.539-1.497c-1.637,1.13-4,1.497-5.538,1.497
	s-3.901-0.368-5.538-1.497C6.748,39.632,4.384,40,2.846,40C2.156,40,1.555,39.946,1,39.871"/>
</svg>