<?xml version="1.0" encoding="iso-8859-1"?><!-- Generator: Adobe Illustrator 19.1.0, SVG Export Plug-In . SVG Version: 6.00 Build 0)  --><svg xmlns="http://www.w3.org/2000/svg" xmlns:xlink="http://www.w3.org/1999/xlink" viewBox="0 0 50 50" width="500px" height="500px"><path style="fill:none;stroke:#000000;stroke-width:2;stroke-linecap:round;stroke-linejoin:round;stroke-miterlimit:10;" d="M38.667,35c0.502,0,1.803,0,2.222,0C41.502,35,42,35.447,42,36c0,0.654-0.511,0.963-1.155,1.292C39.881,37.783,39.598,38,38.667,38C37.747,38,37,37.329,37,36.5S37.747,35,38.667,35z"/><path style="fill:none;stroke:#000000;stroke-width:2;stroke-linecap:round;stroke-linejoin:round;stroke-miterlimit:10;" d="M23.333,35c-0.502,0-1.803,0-2.222,0C20.497,35,20,35.447,20,36c0,0.654,0.51,0.963,1.155,1.292C22.119,37.783,22.402,38,23.333,38C24.253,38,25,37.329,25,36.5S24.253,35,23.333,35z"/><path style="fill:none;stroke:#000000;stroke-width:2;stroke-miterlimit:10;" d="M18.4,42c-0.771,0-1.4-0.625-1.4-1.393v-5.979c0,0,3.612-9.814,4.105-10.789c0.599-1.184,2.105-1.714,3.189-2.089c0,0,1.547-0.75,6.705-0.75s6.705,0.75,6.705,0.75c0.926,0.268,2.611,0.817,3.137,2.036C41.442,25.176,45,34.629,45,34.629v5.979C45,41.375,44.371,42,43.6,42H18.4z"/><path style="fill:none;stroke:#000000;stroke-width:2;stroke-miterlimit:10;" d="M19.341,28.231C19.033,29.039,17.713,32,22.234,32c1.461,0,16.072,0,17.533,0c4.52,0,3.116-2.941,2.808-3.75"/><path style="fill:none;stroke:#000000;stroke-width:2;stroke-miterlimit:10;" d="M39,42v2c0,0.552,0.448,1,1,1h4c0.552,0,1-0.448,1-1v-4"/><path style="fill:none;stroke:#000000;stroke-width:2;stroke-miterlimit:10;" d="M23,42v2c0,0.552-0.448,1-1,1h-4c-0.552,0-1-0.448-1-1v-4"/><path style="fill:none;stroke:#000000;stroke-width:2;stroke-linecap:round;stroke-linejoin:round;stroke-miterlimit:10;" d="M42.667,19c0.502,0,1.803,0,2.222,0C45.502,19,46,19.448,46,20c0,0.654-0.511,0.963-1.155,1.292C43.881,21.783,43.598,22,42.667,22C41.747,22,41,21.329,41,20.5S41.747,19,42.667,19z"/><path style="fill:none;stroke:#000000;stroke-width:2;stroke-miterlimit:10;" d="M22.634,14.224c1.026-2.747,2.204-5.858,2.471-6.385c0.599-1.184,2.105-1.714,3.189-2.089c0,0,1.547-0.75,6.705-0.75s6.705,0.75,6.705,0.75c0.926,0.268,2.611,0.817,3.137,2.036C45.442,9.176,49,18.629,49,18.629v5.979C49,25.375,48.371,26,47.6,26h-5.876"/><path style="fill:none;stroke:#000000;stroke-width:2;stroke-miterlimit:10;" d="M25.164,16c1.461,0,17.141,0,18.602,0c4.52,0,3.116-2.941,2.808-3.75"/><path style="fill:none;stroke:#000000;stroke-width:2;stroke-miterlimit:10;" d="M43,26v2c0,0.552,0.448,1,1,1h4c0.552,0,1-0.448,1-1v-4"/><path style="fill:none;stroke:#000000;stroke-width:2;stroke-linecap:round;stroke-linejoin:round;stroke-miterlimit:10;" d="M7.333,27c-0.502,0-1.803,0-2.222,0C4.497,27,4,27.448,4,28c0,0.654,0.51,0.963,1.155,1.292C6.119,29.783,6.402,30,7.333,30C8.253,30,9,29.329,9,28.5S8.253,27,7.333,27z"/><path style="fill:none;stroke:#000000;stroke-width:2;stroke-miterlimit:10;" d="M17.116,34H2.4C1.629,34,1,33.375,1,32.607v-5.979c0,0,3.612-9.814,4.105-10.789c0.599-1.184,2.105-1.714,3.189-2.089c0,0,1.547-0.75,6.705-0.75s6.705,0.75,6.705,0.75c0.926,0.268,2.611,0.817,3.137,2.036c0.272,0.631,1.153,2.92,2.034,5.234"/><path style="fill:none;stroke:#000000;stroke-width:2;stroke-miterlimit:10;" d="M3.341,20.231C3.033,21.039,1.713,24,6.234,24C7.695,24,21.1,24,21.1,24"/><path style="fill:none;stroke:#000000;stroke-width:2;stroke-miterlimit:10;" d="M7,34v2c0,0.552-0.448,1-1,1H2c-0.552,0-1-0.448-1-1v-4"/></svg>