<?xml version="1.0" encoding="iso-8859-1"?><!-- Generator: Adobe Illustrator 19.0.1, SVG Export Plug-In . SVG Version: 6.00 Build 0)  --><svg xmlns="http://www.w3.org/2000/svg" xmlns:xlink="http://www.w3.org/1999/xlink" viewBox="0 0 50 50" width="500px" height="500px"><path style="fill:none;stroke:#000000;stroke-width:2;stroke-linecap:round;stroke-linejoin:round;stroke-miterlimit:10;" d="M1.004,6c0,0,0.625,0,1.859,0c3.094,0,12.81-5,13.903-5c1.093,0,10.2,4.653,10.646,5.143s5.386,8.778,5.386,8.778c0.452,0.797,0.149,2.231-0.908,2.613l0,0c-0.703,0.254-1.9-0.144-2.373-0.727c0,0-5.411-6.661-5.556-6.866C23.814,9.735,18.708,8,18.278,8C17.849,8,15,7.828,15,10.502c0,2.097,2.703,2.491,3.14,2.491s3.423-0.24,5.092,0.088s3.715,1.533,4.936,2.395c2.326,1.641,1.45,4.829-1.794,4.502C25.502,19.889,21.39,19,20.044,19s-5.788,1-8.581,1C6.727,20,6.08,16.044,1,16.044"/><path style="fill:none;stroke:#000000;stroke-width:2;stroke-linecap:round;stroke-linejoin:round;stroke-miterlimit:10;" d="M36.899,40.95c0,0-3.487,1.05-5.899,1.05c0,0-3.303,0-5.588,0s-4.367-0.421-4.367-2.328c0-1.525,0.921-2.64,4.329-2.64c9.979,0,10.173-4.957,17.362-2.194C45.101,35.748,49,37.386,49,37.386"/><path style="fill:none;stroke:#000000;stroke-width:2;stroke-linecap:round;stroke-linejoin:round;stroke-miterlimit:10;" d="M45.835,46.619c0,0-2.721-2.074-6.242-0.961C37.793,46.227,30.816,49,29.548,49c-1.805,0-18.16-6.955-19.529-7.546C8.61,40.845,8,40.333,8,38.938c0-1.538,1.396-2.144,2.183-2.144c0.635,0,1.805,0.384,1.805,0.384l8.939,3.063"/><path style="fill:none;stroke:#000000;stroke-width:2;stroke-linecap:round;stroke-linejoin:round;stroke-miterlimit:10;" d="M12,36.615c0-1.57,1.571-2.272,2.707-2.272c1.487,0,8.427,2.85,8.427,2.85"/><polyline style="fill:none;stroke:#000000;stroke-width:2;stroke-linecap:round;stroke-linejoin:round;stroke-miterlimit:10;" points="24,20 24,23 26,24 27,24 27,32 28,33 30,33 31,32 31,24 32,24 34,23 34,18 33,17 "/><circle cx="29" cy="20" r="1.5"/></svg>