<?xml version="1.0" encoding="iso-8859-1"?>
<!-- Generator: Adobe Illustrator 23.0.3, SVG Export Plug-In . SVG Version: 6.00 Build 0)  -->
<svg version="1.1" id="Layer_1" xmlns="http://www.w3.org/2000/svg" xmlns:xlink="http://www.w3.org/1999/xlink" x="0px" y="0px"
	 viewBox="0 0 50 50" style="enable-background:new 0 0 50 50;" xml:space="preserve">
<line style="fill:none;stroke:#000000;stroke-width:2;" x1="25" y1="3" x2="25" y2="7"/>
<line style="fill:none;stroke:#000000;stroke-width:2;" x1="25" y1="37" x2="25" y2="41"/>
<line style="fill:none;stroke:#000000;stroke-width:2;" x1="25" y1="31" x2="25" y2="35"/>
<line style="fill:none;stroke:#000000;stroke-width:2;" x1="25" y1="15" x2="25" y2="19.001"/>
<line style="fill:none;stroke:#000000;stroke-width:2;" x1="25" y1="9" x2="25" y2="13"/>
<line style="fill:none;stroke:#000000;stroke-width:2;" x1="25" y1="43" x2="25" y2="47"/>
<line style="fill:none;stroke:#000000;stroke-width:2;" x1="37" y1="25" x2="41" y2="25"/>
<line style="fill:none;stroke:#000000;stroke-width:2;" x1="31" y1="25" x2="35" y2="25"/>
<line style="fill:none;stroke:#000000;stroke-width:2;" x1="15" y1="25" x2="19.001" y2="25"/>
<line style="fill:none;stroke:#000000;stroke-width:2;" x1="9" y1="25" x2="13" y2="25"/>
<line style="fill:none;stroke:#000000;stroke-width:2;" x1="3" y1="25" x2="7" y2="25"/>
<line style="fill:none;stroke:#000000;stroke-width:2;" x1="43" y1="25" x2="47" y2="25"/>
<g>
	<polyline style="fill:none;stroke:#000000;stroke-width:2;" points="47,19 31,19 31,3 	"/>
	<polyline style="fill:none;stroke:#000000;stroke-width:2;" points="31,47 31,31 47,31 	"/>
	<polyline style="fill:none;stroke:#000000;stroke-width:2;" points="3,31 19,31 19,47 	"/>
	<polyline style="fill:none;stroke:#000000;stroke-width:2;" points="19,3 19,19 3,19 	"/>
</g>
</svg>