<?xml version="1.0" encoding="iso-8859-1"?>
<!-- Generator: Adobe Illustrator 24.1.2, SVG Export Plug-In . SVG Version: 6.00 Build 0)  -->
<svg version="1.1" id="Layer_1_1_" xmlns="http://www.w3.org/2000/svg" xmlns:xlink="http://www.w3.org/1999/xlink" x="0px" y="0px"
	 viewBox="0 0 50 50" style="enable-background:new 0 0 50 50;" xml:space="preserve">
<circle style="fill:none;stroke:#000000;stroke-width:2;stroke-linejoin:round;stroke-miterlimit:10;" cx="18" cy="38" r="4"/>
<circle style="fill:none;stroke:#000000;stroke-width:2;stroke-linejoin:round;stroke-miterlimit:10;" cx="42" cy="38" r="4"/>
<path style="fill:none;stroke:#000000;stroke-width:2;stroke-linejoin:round;stroke-miterlimit:10;" d="M0,42c2.209,0,4-1.791,4-4
	s-1.791-4-4-4"/>
<line style="fill:none;stroke:#000000;stroke-width:2;stroke-linejoin:round;stroke-miterlimit:10;" x1="7" y1="34" x2="11" y2="34"/>
<polyline style="fill:none;stroke:#000000;stroke-width:2;stroke-linejoin:round;stroke-miterlimit:10;" points="22,38 35,38 35,10 
	11,10 11,38 14,38 "/>
<polyline style="fill:none;stroke:#000000;stroke-width:2;stroke-linejoin:round;stroke-miterlimit:10;" points="0,10 7,10 7,38 
	4,38 "/>
<path style="fill:none;stroke:#000000;stroke-width:2;stroke-linecap:round;stroke-linejoin:round;stroke-miterlimit:10;" d="M46,38
	h2c0.552,0,1-0.448,1-1V22.668c0-0.433-0.14-0.854-0.4-1.2L43.599,14.8c-0.378-0.504-0.97-0.8-1.6-0.8H35"/>
<path style="fill:none;stroke:#000000;stroke-width:2;stroke-linejoin:round;stroke-miterlimit:10;" d="M49,25h-7
	c-1.105,0-2-0.895-2-2v-3c0-1.105,0.895-2,2-2h4"/>
<line style="fill:none;stroke:#000000;stroke-width:2;stroke-linejoin:round;stroke-miterlimit:10;" x1="35" y1="38" x2="38" y2="38"/>
</svg>