<?xml version="1.0" encoding="iso-8859-1"?>
<!-- Generator: Adobe Illustrator 24.1.0, SVG Export Plug-In . SVG Version: 6.00 Build 0)  -->
<svg version="1.1" id="Layer_1" xmlns="http://www.w3.org/2000/svg" xmlns:xlink="http://www.w3.org/1999/xlink" x="0px" y="0px"
	 viewBox="0 0 50 50" style="enable-background:new 0 0 50 50;" xml:space="preserve">
<g>
</g>
<g>
	<path d="M34.03,23.34l0.02-0.05c1.17-3.04,2.16-5.56,2.41-6.05c0.64-1.23,2.52-1.87,3.76-2.29l0.1-0.04
		c0.02-0.01,1.91-0.82,7.68-0.9v-2c-5.85,0.08-8.02,0.87-8.46,1.06c-1.55,0.53-3.86,1.32-4.86,3.26
		c-0.67,1.31-5.11,13.15-5.62,14.49L29,30.99V44c0,1.65,1.35,3,3,3h4c1.65,0,3-1.35,3-3v-2h9V27H37c-1.7,0-2.9-0.4-3.3-1
		c-0.47-0.69,0.03-1.92,0.27-2.52L34.03,23.34z M35,31h4c1.66,0,3,1.34,3,3c0,1.66-1.34,3-3,3c-1.68,0-2.19-0.43-3.92-1.42
		C33.92,34.93,33,34.31,33,33C33,31.9,33.9,31,35,31z"/>
</g>
<g>
	<path d="M27.81,28.47C28,26,25,29,25,29s-0.16-3.58-1-4c-2-1-4.44,2.06-4.44,2.06L15,21c-0.94-1.26-2.43-2-4-2H2v23h13.09
		c0.48,2.84,2.95,5,5.91,5s5.43-2.16,5.91-5H27V30.63l0.13-0.34l0.06-0.17c0.16-0.41,0.6-1.56,0.65-1.71
		C27.83,28.4,27.82,28.42,27.81,28.47z M21,45c-2.22,0-4-1.78-4-4c0-2.22,1.78-4,4-4s4,1.78,4,4C25,43.22,23.22,45,21,45z"/>
</g>
<path d="M31.707,16.293L27.414,12l3.293-3.293c0.312-0.312,0.383-0.791,0.175-1.179c-0.208-0.388-0.641-0.596-1.078-0.509
	l-4.475,0.895l-2.622-2.622c-0.245-0.246-0.599-0.346-0.937-0.266c-0.338,0.08-0.609,0.328-0.719,0.657l-0.599,1.795L13.53,3.152
	c-0.396-0.246-0.906-0.188-1.237,0.141c-0.329,0.329-0.388,0.842-0.141,1.237l4.637,7.419L14.2,15.4
	c-0.228,0.303-0.264,0.708-0.095,1.047C14.275,16.786,14.621,17,15,17h4.323l1.748,4.372C21.224,21.751,21.591,22,22,22
	s0.776-0.249,0.929-0.628l1.708-4.271l6.222,0.889c0.433,0.062,0.844-0.158,1.036-0.542C32.087,17.062,32.012,16.597,31.707,16.293z
	"/>
</svg>