<?xml version="1.0" encoding="iso-8859-1"?><!-- Generator: Adobe Illustrator 21.0.2, SVG Export Plug-In . SVG Version: 6.00 Build 0)  --><svg xmlns="http://www.w3.org/2000/svg" xmlns:xlink="http://www.w3.org/1999/xlink" viewBox="0 0 50 50" width="500px" height="500px"><path style="fill:none;stroke:#000000;stroke-width:2;stroke-miterlimit:10;" d="M40.475,6.36C38.194,5.736,34.37,5,29,5s-9.194,0.736-11.475,1.36C16.025,6.771,15,8.077,15,9.563V33h28V9.563C43,8.077,41.974,6.771,40.475,6.36z"/><line style="fill:none;stroke:#000000;stroke-width:2;stroke-miterlimit:10;" x1="15" y1="22" x2="43" y2="22"/><line style="fill:none;stroke:#000000;stroke-width:2;stroke-miterlimit:10;" x1="15" y1="10" x2="43" y2="10"/><circle cx="38.5" cy="27.5" r="1.5"/><circle cx="19.5" cy="27.5" r="1.5"/><line style="fill:none;stroke:#000000;stroke-width:2;stroke-miterlimit:10;" x1="29" y1="21" x2="29" y2="10"/><path d="M44,16h1c0.552,0,1,0.448,1,1v4c0,0.552-0.448,1-1,1h-1c-0.552,0-1-0.448-1-1v-4C43,16.448,43.448,16,44,16z"/><path d="M13,16h1c0.552,0,1,0.448,1,1v4c0,0.552-0.448,1-1,1h-1c-0.552,0-1-0.448-1-1v-4C12,16.448,12.448,16,13,16z"/><line style="fill:none;stroke:#000000;stroke-width:2;stroke-linecap:round;stroke-linejoin:round;stroke-miterlimit:10;" x1="16" y1="45" x2="42" y2="45"/><path style="fill:none;stroke:#000000;stroke-width:2;stroke-miterlimit:10;" d="M38,33h5v4c0,0.552-0.448,1-1,1h-3c-0.552,0-1-0.448-1-1V33z"/><path style="fill:none;stroke:#000000;stroke-width:2;stroke-miterlimit:10;" d="M15,33h5v4c0,0.552-0.448,1-1,1h-3c-0.552,0-1-0.448-1-1V33z"/><line style="fill:none;stroke:#000000;stroke-width:2;stroke-linecap:round;stroke-linejoin:round;stroke-miterlimit:10;" x1="7" y1="7" x2="7" y2="37"/><polygon points="7,4 11,9 3,9 "/><polygon points="14,45 19,41 19,49 "/><polygon points="44,45 39,49 39,41 "/><polygon points="7,39 3,34 11,34 "/></svg>