<?xml version="1.0" encoding="iso-8859-1"?><!-- Generator: Adobe Illustrator 23.0.0, SVG Export Plug-In . SVG Version: 6.00 Build 0)  --><svg xmlns="http://www.w3.org/2000/svg" xmlns:xlink="http://www.w3.org/1999/xlink" viewBox="0 0 50 50" width="50px" height="50px"><rect x="4" y="4" style="display:none;fill:none;stroke:#000000;stroke-width:0.25;stroke-miterlimit:10;" width="42" height="42"/><g><circle cx="21.057" cy="37.514" r="1.971"/><path d="M47.825,30.684c-1.036-4.736-7.369-26.235-37.008-26.677c-0.586-0.009-1.154,0.247-1.54,0.688l-6.634,7.571c-0.406,0.463-0.576,1.087-0.46,1.692l3.532,18.542c0.169,0.885,0.909,1.549,1.807,1.62l2.495,0.197l2.002,0.158c-0.323,0.956-0.505,1.976-0.505,3.039c0,5.262,4.281,9.543,9.543,9.543s9.542-4.281,9.542-9.543c0-0.541-0.056-1.067-0.143-1.584l2.003,0.158l10.435,0.824c0.687,0.054,1.354-0.249,1.765-0.803l2.818-3.805C47.823,31.838,47.949,31.251,47.825,30.684z M21.057,45.058c-4.159,0-7.543-3.384-7.543-7.543s3.384-7.543,7.543-7.543s7.542,3.384,7.542,7.543S25.216,45.058,21.057,45.058z M16.841,19.163c-1.66-0.433-3.018-1.577-3.727-3.14c-0.709-1.563-0.676-3.339,0.036-4.774l3.114-4.988C18.447,6.579,20.578,7,22.644,7.566c0.346,0.093,0.682,0.199,1.022,0.3c0.476,0.143,0.948,0.296,1.416,0.456c0.544,0.186,1.079,0.382,1.605,0.59c0.459,0.181,0.914,0.372,1.364,0.572c0.416,0.186,0.827,0.377,1.231,0.577c0.552,0.273,1.098,0.562,1.636,0.867c0.21,0.12,0.423,0.234,0.629,0.358c0.648,0.388,1.281,0.811,1.907,1.252c0.176,0.125,0.355,0.246,0.529,0.375c0.616,0.455,1.219,0.942,1.811,1.455c0.179,0.155,0.355,0.312,0.53,0.471c0.579,0.526,1.149,1.074,1.704,1.661c0.118,0.125,0.23,0.257,0.346,0.384c0.248,0.271,0.498,0.537,0.741,0.82c1.046,1.224,1.67,2.029,2.537,3.45c0.532,0.836,1.002,1.658,1.417,2.457c0.205,0.367,0.421,0.757,0.659,1.189L16.841,19.163z"/></g></svg>