<?xml version="1.0" encoding="iso-8859-1"?><!-- Generator: Adobe Illustrator 21.0.2, SVG Export Plug-In . SVG Version: 6.00 Build 0)  --><svg xmlns="http://www.w3.org/2000/svg" xmlns:xlink="http://www.w3.org/1999/xlink" viewBox="0 0 50 50" width="500px" height="500px"><path style="fill:none;stroke:#000000;stroke-width:2;stroke-miterlimit:10;" d="M36.475,6.36C34.194,5.736,30.37,5,25,5s-9.195,0.736-11.475,1.36C12.025,6.771,11,8.077,11,9.563V33h28V9.563C39,8.077,37.974,6.771,36.475,6.36z"/><line style="fill:none;stroke:#000000;stroke-width:2;stroke-miterlimit:10;" x1="11" y1="22" x2="39" y2="22"/><line style="fill:none;stroke:#000000;stroke-width:2;stroke-miterlimit:10;" x1="11" y1="10" x2="39" y2="10"/><circle cx="34.5" cy="27.5" r="1.5"/><circle cx="15.5" cy="27.5" r="1.5"/><line style="fill:none;stroke:#000000;stroke-width:2;stroke-miterlimit:10;" x1="25" y1="21" x2="25" y2="10"/><path d="M40,16h1c0.552,0,1,0.448,1,1v4c0,0.552-0.448,1-1,1h-1c-0.552,0-1-0.448-1-1v-4C39,16.448,39.448,16,40,16z"/><path d="M9,16h1c0.552,0,1,0.448,1,1v4c0,0.552-0.448,1-1,1H9c-0.552,0-1-0.448-1-1v-4C8,16.448,8.448,16,9,16z"/><line style="fill:none;stroke:#000000;stroke-width:2;stroke-linecap:round;stroke-linejoin:round;stroke-miterlimit:10;" x1="12" y1="45" x2="38" y2="45"/><path style="fill:none;stroke:#000000;stroke-width:2;stroke-miterlimit:10;" d="M34,33h5v4c0,0.552-0.448,1-1,1h-3c-0.552,0-1-0.448-1-1V33z"/><path style="fill:none;stroke:#000000;stroke-width:2;stroke-miterlimit:10;" d="M11,33h5v4c0,0.552-0.448,1-1,1h-3c-0.552,0-1-0.448-1-1V33z"/><polygon points="10,45 15,41 15,49 "/><polygon points="40,45 35,49 35,41 "/></svg>