<?xml version="1.0" encoding="iso-8859-1"?><!-- Generator: Adobe Illustrator 22.0.0, SVG Export Plug-In . SVG Version: 6.00 Build 0)  --><svg xmlns="http://www.w3.org/2000/svg" xmlns:xlink="http://www.w3.org/1999/xlink" viewBox="0 0 50 50" width="50px" height="50px"><circle style="fill:none;stroke:#000000;stroke-width:2;stroke-miterlimit:10;" cx="39.5" cy="40.5" r="4.5"/><circle style="fill:none;stroke:#000000;stroke-width:2;stroke-miterlimit:10;" cx="13.5" cy="40.5" r="4.5"/><line style="fill:none;stroke:#000000;stroke-width:2;stroke-miterlimit:10;" x1="24" y1="22" x2="24" y2="29"/><path style="fill:none;stroke:#000000;stroke-width:2;stroke-miterlimit:10;" d="M38,29l-3.804-5.325C33.446,22.624,32.233,22,30.942,22H17.544c-0.969,0-1.878,0.468-2.441,1.256L11,29"/><path d="M7.796,28.646l3-0.625L11,28h27l0.208,0.022l8.031,1.712c2.18,0.363,3.761,2.23,3.761,4.439V39c0,1.654-1.346,3-3,3h-3v-1h-0.05c0.019-0.166,0.05-0.329,0.05-0.5c0-2.485-2.015-4.5-4.5-4.5S35,38.015,35,40.5c0,0.171,0.032,0.334,0.05,0.5H17.95c0.019-0.166,0.05-0.329,0.05-0.5c0-2.485-2.015-4.5-4.5-4.5S9,38.015,9,40.5c0,0.171,0.032,0.334,0.05,0.5H9v1H7c-1.654,0-3-1.346-3-3v-5.632C4,30.943,5.454,29.134,7.796,28.646z"/><path d="M36.692,17.107l-3.099-3.099C33.194,13.609,33,13.149,33,12.6V9.4c0-0.549,0.194-1.009,0.593-1.407l3.1-3.101C37.269,4.317,38.018,4,38.8,4H43c1.159,0,2,0.841,2,2v10c0,1.159-0.841,2-2,2h-4.2C38.018,18,37.269,17.683,36.692,17.107z"/><path style="fill:none;stroke:#000000;stroke-width:2;stroke-miterlimit:10;" d="M34,11H13C6.4,11,1,16.4,1,23v11c0,1.1,0.9,2,2,2l1,0"/><line style="fill:none;stroke:#000000;stroke-width:2;stroke-miterlimit:10;" x1="50" y1="15" x2="44" y2="15"/><line style="fill:none;stroke:#000000;stroke-width:2;stroke-miterlimit:10;" x1="50" y1="7" x2="44" y2="7"/></svg>