<?xml version="1.0" encoding="iso-8859-1"?>
<!-- Generator: Adobe Illustrator 18.0.0, SVG Export Plug-In . SVG Version: 6.00 Build 0)  -->
<!DOCTYPE svg PUBLIC "-//W3C//DTD SVG 1.1//EN" "http://www.w3.org/Graphics/SVG/1.1/DTD/svg11.dtd">
<svg version="1.1" id="Layer_1" xmlns="http://www.w3.org/2000/svg" xmlns:xlink="http://www.w3.org/1999/xlink" x="0px" y="0px"
	 width="50px" height="50px" viewBox="0 0 50 50" style="enable-background:new 0 0 50 50;" xml:space="preserve">
<path d="M45.658,22.443L37,21l-4.8-6.4C31.445,13.593,30.259,13,29,13H15.217c-1.379,0-2.661,0.71-3.392,1.88l-3.039,4.863
	l-1.473,1.355l-2.878,0.411C2.464,21.791,1,23.479,1,25.469V32c0,1.105,0.895,2,2,2h2c0,2.762,2.238,5,5,5s5-2.238,5-5h20
	c0,2.762,2.238,5,5,5s5-2.238,5-5h2c1.105,0,2-0.895,2-2v-5.612C49,24.433,47.586,22.764,45.658,22.443z"/>
<path style="fill:none;stroke:#000000;stroke-width:2;stroke-linecap:round;stroke-miterlimit:10;" d="M8.553,20.913L6.19,18.194
	C4.884,16.692,2.672,16.379,1,17.459"/>
</svg>