<?xml version="1.0" encoding="iso-8859-1"?><!-- Generator: Adobe Illustrator 21.0.2, SVG Export Plug-In . SVG Version: 6.00 Build 0)  --><svg xmlns="http://www.w3.org/2000/svg" xmlns:xlink="http://www.w3.org/1999/xlink" viewBox="0 0 50 50" width="50px" height="50px"><line style="fill:none;stroke:#000000;stroke-width:2;stroke-linecap:round;stroke-linejoin:round;stroke-miterlimit:10;" x1="5" y1="43" x2="45" y2="43"/><polygon points="3,43 8,39 8,47 "/><polygon points="47,43 42,47 42,39 "/><path d="M46.11,17.72l-3.633-8.477C41.373,6.665,38.848,5,36.044,5H8c-2.757,0-5,2.243-5,5v19c0,1.654,1.346,3,3,3h2.025c0.254,2.799,2.611,5,5.475,5s5.221-2.201,5.475-5h13.051c0.254,2.799,2.611,5,5.475,5s5.221-2.201,5.475-5H44c1.654,0,3-1.346,3-3v-6.947C47,20.556,46.701,19.098,46.11,17.72z M8,11c0-0.552,0.448-1,1-1h8v10H8V11z M19,10h9v10h-9V10z M44.272,18.507c0.208,0.486,0.362,0.986,0.482,1.493H34V10h6.624c0.005,0.011,0.011,0.02,0.016,0.03L44.272,18.507z M13.5,35c-1.93,0-3.5-1.57-3.5-3.5s1.57-3.5,3.5-3.5s3.5,1.57,3.5,3.5S15.43,35,13.5,35z M37.5,35c-1.93,0-3.5-1.57-3.5-3.5s1.57-3.5,3.5-3.5s3.5,1.57,3.5,3.5S39.43,35,37.5,35z"/></svg>