<?xml version="1.0" encoding="iso-8859-1"?>
<!-- Generator: Adobe Illustrator 23.0.3, SVG Export Plug-In . SVG Version: 6.00 Build 0)  -->
<svg version="1.1" id="Layer_1" xmlns="http://www.w3.org/2000/svg" xmlns:xlink="http://www.w3.org/1999/xlink" x="0px" y="0px"
	 viewBox="0 0 50 50" style="enable-background:new 0 0 50 50;" xml:space="preserve">
<g>
	<circle style="fill:none;stroke:#000000;stroke-width:2;stroke-miterlimit:10;" cx="13" cy="39" r="5"/>
</g>
<line style="fill:none;stroke:#000000;stroke-width:2;stroke-linecap:round;stroke-linejoin:round;stroke-miterlimit:2.6131;" x1="3" y1="3" x2="47" y2="47"/>
<g>
	<path d="M2,37V10.8C2,10.352,2.352,10,2.8,10h2.977l-2-2H2.8C1.256,8,0,9.256,0,10.8V37c0,1.654,1.346,3,3,3h5v-2H3
		C2.448,38,2,37.551,2,37z"/>
	<path d="M48.401,23.103l-4.12-5.527C43.512,16.614,41.933,15,40,15h-8c-0.344,0-0.68,0.082-1,0.211V10.9C31,9.355,29.645,8,28.1,8
		H6.605l2,2H28.1c0.446,0,0.9,0.454,0.9,0.9V18v12.395l2,2V18c0-0.449,0.552-1,1-1h4v9c0,1.542,1.458,3,3,3h9v8c0,0.449-0.552,1-1,1
		h-1.09c-0.478-2.833-2.942-5-5.91-5c-2.271,0-4.238,1.274-5.255,3.139l1.507,1.507C36.81,36.108,38.271,35,40,35
		c2.206,0,4,1.794,4,4c0,1.728-1.108,3.19-2.647,3.748l1.507,1.507c1.581-0.867,2.738-2.414,3.049-4.255H47c1.542,0,3-1.458,3-3
		v-9.6C50,25.441,48.581,23.358,48.401,23.103z M39,27c-0.448,0-1-0.551-1-1v-9h2c0.789,0,1.806,0.682,2.698,1.798l4.082,5.476
		c0.301,0.429,1.026,1.661,1.188,2.726H39z"/>
	<path d="M38.471,42.693c-0.977-0.406-1.758-1.187-2.164-2.164L33.777,38H31v-2.777l-2-2V38H18v2h11h2h3.09
		c0.478,2.833,2.942,5,5.91,5c0.243,0,0.477-0.036,0.713-0.065L38.471,42.693z"/>
</g>
</svg>