<?xml version="1.0" encoding="iso-8859-1"?><!-- Generator: Adobe Illustrator 19.1.0, SVG Export Plug-In . SVG Version: 6.00 Build 0)  --><svg xmlns="http://www.w3.org/2000/svg" xmlns:xlink="http://www.w3.org/1999/xlink" viewBox="0 0 50 50" width="500px" height="500px"><g><circle style="fill:none;stroke:#000000;stroke-width:2;stroke-miterlimit:10;" cx="40" cy="34" r="5"/></g><g><circle style="fill:none;stroke:#000000;stroke-width:2;stroke-miterlimit:10;" cx="10" cy="34" r="5"/></g><path style="fill:none;stroke:#000000;stroke-width:2;stroke-miterlimit:10;" d="M45,34h2c1.1,0,2-0.9,2-2v-6.611c0-1.955-1.414-3.624-3.342-3.946L37,20l-7.232-8.578C29.008,10.52,27.889,10,26.71,10H8.598c-1.512,0-2.895,0.853-3.574,2.204L1.59,19.038C1.204,19.667,1,20.391,1,21.129v11.179C1,33.242,1.758,34,2.692,34H5 M15,34h20"/><line style="fill:none;stroke:#000000;stroke-width:2;stroke-linecap:round;stroke-linejoin:round;stroke-miterlimit:10;" x1="1.749" y1="20" x2="37" y2="20"/><line style="fill:none;stroke:#000000;stroke-width:2;stroke-miterlimit:10;" x1="19" y1="10" x2="19" y2="20"/></svg>