<?xml version="1.0" encoding="iso-8859-1"?><!-- Generator: Adobe Illustrator 21.1.0, SVG Export Plug-In . SVG Version: 6.00 Build 0)  --><svg xmlns="http://www.w3.org/2000/svg" xmlns:xlink="http://www.w3.org/1999/xlink" viewBox="0 0 50 50" width="500px" height="500px"><path d="M40.715,21c0,0,2.792-0.021,3.192-0.021S45,20.683,45,20.345s-0.26-1.542-0.417-1.669S42.656,18,42.135,18c-0.361,0-1.57,0.704-1.57,2.246L40.715,21z"/><path d="M9.285,21c0,0-2.792-0.021-3.192-0.021S5,20.683,5,20.345s0.26-1.542,0.417-1.669S7.344,18,7.865,18c0.361,0,1.57,0.704,1.57,2.246L9.285,21z"/><path style="fill:none;stroke:#000000;stroke-width:2;stroke-miterlimit:10;" d="M39,40.676V43c0,0.552,0.448,1,1,1h4c0.552,0,1-0.448,1-1V31.25"/><path style="fill:none;stroke:#000000;stroke-width:2;stroke-miterlimit:10;" d="M11,40.676V43c0,0.552-0.448,1-1,1H6c-0.552,0-1-0.448-1-1V31.25"/><path style="fill:none;stroke:#000000;stroke-width:2;stroke-linecap:round;stroke-miterlimit:10;" d="M10,21c2,1,6.742,7,6.742,7c0.57,0.651,1.393,1.024,2.258,1.024h6h6c0.865,0,1.688-0.373,2.258-1.024c0,0,4.742-6,6.742-7"/><g><g><path style="fill:none;stroke:#000000;stroke-width:2;stroke-miterlimit:10;" d="M44.027,24.88c-1.067-1.6-2.752-2.685-3.188-3.591c-1.185-2.461-2.752-7.477-4.933-8.618C34.927,12.16,25,12,25,12s-9.927,0.16-10.906,0.671c-2.181,1.141-3.748,6.157-4.933,8.618C8.725,22.195,7.04,23.28,5.973,24.88C5.57,25.484,5,26.98,5,30c0,2.056,0.389,6.347,0.637,8.239c0.116,0.886,0.797,1.583,1.681,1.713C9.87,40.327,15.734,41,25,41s15.13-0.673,17.682-1.048c0.884-0.13,1.565-0.827,1.681-1.713C44.611,36.347,45,32.056,45,30C45,26.98,44.43,25.484,44.027,24.88z"/></g></g><line style="fill:none;stroke:#000000;stroke-width:2;stroke-miterlimit:10;" x1="39.873" y1="20" x2="10.127" y2="20"/><path d="M35.224,38l-0.854-0.976C33.8,36.373,32.977,36,32.112,36h-7h-7c-0.865,0-1.688,0.373-2.258,1.024L15,38H35.224z"/><path d="M11.536,26.502c-0.813-0.328-1.505-1.507-2.505-1.502C7.031,25.011,7,28.233,7,28.233s-0.008,0.848,4.291,0.783c0,0,2.702-0.014,2.71-0.82C14.008,27.454,12.349,26.829,11.536,26.502z"/><path d="M40.969,25c-1-0.005-1.693,1.174-2.505,1.502c-0.813,0.328-2.472,0.953-2.465,1.694c0.008,0.806,2.71,0.82,2.71,0.82C43.008,29.081,43,28.233,43,28.233S42.969,25.011,40.969,25z"/><path style="fill:none;stroke:#000000;stroke-width:2;stroke-linecap:round;stroke-miterlimit:10;" d="M15,33c-1.315,0.658-2.766,1-4.236,1H9c0,0,0,2,1,3"/><path style="fill:none;stroke:#000000;stroke-width:2;stroke-linecap:round;stroke-miterlimit:10;" d="M40,37c1-1,1-3,1-3h-1.764c-1.471,0-2.921-0.342-4.236-1"/></svg>