<?xml version="1.0" encoding="iso-8859-1"?>
<!-- Generator: Adobe Illustrator 23.0.2, SVG Export Plug-In . SVG Version: 6.00 Build 0)  -->
<svg version="1.1" id="Layer_1" xmlns="http://www.w3.org/2000/svg" xmlns:xlink="http://www.w3.org/1999/xlink" x="0px" y="0px"
	 viewBox="0 0 50 50" style="enable-background:new 0 0 50 50;" xml:space="preserve">
<g>
	<path style="fill:none;stroke:#010101;stroke-width:2;stroke-linecap:round;stroke-miterlimit:10;" d="M6,38h4.105
		c0.486,0,0.881,0.354,0.981,0.829C11.468,40.64,13.075,42,15,42h20c1.925,0,3.532-1.36,3.914-3.171
		c0.1-0.475,0.495-0.829,0.981-0.829H44"/>
	<path style="fill:none;stroke:#010101;stroke-width:2;stroke-linecap:round;stroke-miterlimit:10;" d="M6,29h4.105
		c0.486,0,0.881-0.354,0.981-0.829C11.468,26.36,13.075,25,15,25h20c1.925,0,3.532,1.36,3.914,3.171
		c0.1,0.475,0.495,0.829,0.981,0.829H44"/>
	<path style="fill:none;stroke:#010101;stroke-width:2;stroke-linecap:round;stroke-miterlimit:10;" d="M33.679,5l-1.403,2.338
		c-0.528,0.88-0.57,1.968-0.111,2.885l0.777,1.554c0.459,0.917,0.417,2.006-0.111,2.885L31.429,17"/>
	<path style="fill:none;stroke:#010101;stroke-width:2;stroke-linecap:round;stroke-miterlimit:10;" d="M19.25,5l-1.403,2.338
		c-0.528,0.88-0.57,1.968-0.111,2.885l0.777,1.554c0.459,0.917,0.417,2.006-0.111,2.885L17,17"/>
	<path style="fill:none;stroke:#010101;stroke-width:2;stroke-linecap:round;stroke-miterlimit:10;" d="M26.875,3l-1.636,2.727
		c-0.616,1.026-0.664,2.296-0.129,3.366l0.907,1.813c0.535,1.07,0.486,2.34-0.129,3.366L24.25,17"/>
</g>
</svg>