<?xml version="1.0" encoding="iso-8859-1"?>
<!-- Generator: Adobe Illustrator 23.0.3, SVG Export Plug-In . SVG Version: 6.00 Build 0)  -->
<svg version="1.1" xmlns="http://www.w3.org/2000/svg" xmlns:xlink="http://www.w3.org/1999/xlink" x="0px" y="0px"
	 viewBox="0 0 50 50" style="enable-background:new 0 0 50 50;" xml:space="preserve">
<g id="fan_x5F_speed_x5F_filled">
</g>
<g id="fan_x5F_speed_x5F_outlined">
</g>
<g id="fresh_x5F_air_x5F_outlined">
</g>
<g id="fresh_x5F_air_x5F_filled">
</g>
<g id="air_x5F_recirculation_x5F_outlined">
</g>
<g id="air_x5F_recirculation_x5F_filled">
	<path d="M15.219,11c-1.723,0-3.336,0.883-4.25,2.344l-3.563,5.719l-3.125,0.469C1.824,19.883,0,21.988,0,24.469V31
		c0,1.645,1.355,3,3,3h2.094C5.57,36.836,8.035,39,11,39s5.43-2.164,5.906-5h16.188c0.477,2.836,2.941,5,5.906,5s5.43-2.164,5.906-5
		H47c1.645,0,2.991-1.347,2.991-2.991L50,25.375c0-2.438-1.785-4.504-4.188-4.906l-8.25-1.406L33,13c-0.945-1.258-2.426-2-4-2
		H15.219z M11,29c2.223,0,4,1.777,4,4s-1.777,4-4,4s-4-1.777-4-4S8.777,29,11,29z M39,29c2.223,0,4,1.777,4,4s-1.777,4-4,4
		s-4-1.777-4-4S36.777,29,39,29z M32.029,22c0,2.76-2.269,5-5.029,5h-4v3l-5-4l5-4v3h4c1.65,0,2.98-1.35,2.98-3
		c0-1.65-1.33-3-2.98-3H15v-2l12.033-0.033C29.793,16.967,32.029,19.24,32.029,22z"/>
</g>
<g id="fuel_x5F_filter_x5F_warning_x5F_outlined">
</g>
<g id="fuel_x5F_filter_x5F_warning_x5F_filled">
</g>
<g id="air_x5F_suspension_x5F_warning_x5F_outlined">
</g>
<g id="air_x5F_suspension_x5F_warning_x5F_filled">
</g>
<g id="convertible_x5F_roof_x5F_warning_x5F_outlined">
</g>
<g id="convertible_x5F_roof_x5F_warning_x5F_filled">
</g>
<g id="hill_x5F_descent_x5F_control_x5F_outlined">
</g>
<g id="hill_x5F_descent_x5F_control_x5F_filled">
</g>
<g id="steering_x5F_lock_x5F_warning_x5F_outlined">
</g>
<g id="steering_x5F_lock_x5F_warning_x5F_filled">
</g>
<g id="hazard_x5F_warning_x5F_flasher_x5F_outlined">
</g>
<g id="hazard_x5F_warning_x5F_flasher_x5F_filled">
</g>
<g id="horn_x5F_outlined">
</g>
<g id="horn_x5F_filled">
</g>
</svg>