<?xml version="1.0" encoding="iso-8859-1"?>
<!-- Generator: Adobe Illustrator 26.4.1, SVG Export Plug-In . SVG Version: 6.00 Build 0)  -->
<svg version="1.1" baseProfile="basic" id="Layer_1"
	 xmlns="http://www.w3.org/2000/svg" xmlns:xlink="http://www.w3.org/1999/xlink" x="0px" y="0px" viewBox="0 0 50 50"
	 xml:space="preserve">
<circle style="fill:none;stroke:#000000;stroke-width:2;stroke-miterlimit:10;" cx="11" cy="33" r="5"/>
<circle style="fill:none;stroke:#000000;stroke-width:2;stroke-miterlimit:10;" cx="39" cy="33" r="5"/>
<line style="fill:none;stroke:#000000;stroke-width:2;stroke-miterlimit:10;" x1="15.798" y1="32.956" x2="33.941" y2="32.98"/>
<path style="fill:none;stroke:#000000;stroke-width:2;stroke-miterlimit:10;" d="M43.947,32.993l3.127,0.004
	C48.137,32.999,49,32.137,49,31.074v-5.662c0-1.968-1.423-3.648-3.365-3.972L37,20H9H3.61c-1.444,0-2.617,1.166-2.627,2.61
	l-0.054,8.341c-0.007,1.095,0.878,1.987,1.973,1.988l3.13,0.004"/>
<path style="fill:none;stroke:#000000;stroke-width:2;stroke-miterlimit:10;" d="M36.628,20.04l-4.586-6.552
	C31.389,12.555,30.322,12,29.183,12H5.868c-1.121,0-2.123,0.702-2.506,1.756L1.34,21.351"/>
<line style="fill:none;stroke:#000000;stroke-width:2;stroke-miterlimit:10;" x1="22" y1="12" x2="22" y2="20"/>
<line style="fill:none;stroke:#000000;stroke-width:2;stroke-miterlimit:10;" x1="11" y1="12" x2="10" y2="20"/>
</svg>