<?xml version="1.0" encoding="utf-8"?><!-- Generator: Adobe Illustrator 15.0.0, SVG Export Plug-In . SVG Version: 6.00 Build 0)  --><!DOCTYPE svg PUBLIC "-//W3C//DTD SVG 1.1//EN" "http://www.w3.org/Graphics/SVG/1.1/DTD/svg11.dtd"><svg xmlns="http://www.w3.org/2000/svg" xmlns:xlink="http://www.w3.org/1999/xlink" viewBox="0 0 50 50" width="50px" height="50px"><path d="M48.999,18.996H45c-0.555,0-1.004,0.45-1.004,1.004v3.996h-0.992v-7.153c0-1.57-1.262-2.847-2.813-2.847H19.99c-0.746,0-1.475,0.308-2.04,0.89l-4.41,5.11H11c-1.544,0-3.004,1.46-3.004,3.004v12c0,1.572,1.432,3.004,3.004,3.004h2.541l4.455,5.16c0.523,0.533,1.25,0.84,1.995,0.84h12.855c0.744,0,1.471-0.307,1.994-0.84l7.343-7.479c0.529-0.535,0.82-1.249,0.82-2.009v-1.672h0.992V36c0,0.555,0.449,1.004,1.004,1.004h4c0.555,0,1.004-0.449,1.004-1.004V20C50.003,19.446,49.554,18.996,48.999,18.996z M32,28l-8,11l3-9h-5l5-10h5l-5,8H32z"/><g><path d="M6.996,26H6v-5c0-0.552-0.448-1-1-1H1c-0.552,0-1,0.448-1,1v16c0,0.553,0.448,1,1,1h4c0.552,0,1-0.447,1-1v-5h0.996V26z"/><path d="M9,32c0.552,0,1-0.447,1-1v-4c0-0.553-0.448-1-1-1H7.996v6H9z"/></g><g><path d="M25,14c0,0.552,0.448,1,1,1h4c0.553,0,1-0.448,1-1v-0.004h-6V14z"/><path d="M21,11h4v1.996h6V11h4c0.553,0,1-0.448,1-1V6c0-0.552-0.447-1-1-1H21c-0.552,0-1,0.448-1,1v4C20,10.552,20.448,11,21,11z"/></g></svg>