<?xml version="1.0" encoding="utf-8"?><!-- Generator: Adobe Illustrator 17.1.0, SVG Export Plug-In . SVG Version: 6.00 Build 0)  --><!DOCTYPE svg PUBLIC "-//W3C//DTD SVG 1.1//EN" "http://www.w3.org/Graphics/SVG/1.1/DTD/svg11.dtd"><svg xmlns="http://www.w3.org/2000/svg" xmlns:xlink="http://www.w3.org/1999/xlink" viewBox="0 0 50 50" width="500px" height="500px"><rect x="4" y="26" style="fill:none;stroke:#000000;stroke-width:2;stroke-miterlimit:10;" width="42" height="5"/><path style="fill:none;stroke:#000000;stroke-width:2;stroke-linecap:round;stroke-linejoin:round;stroke-miterlimit:10;" d="M41.3,22h-4.6c-0.4,0-0.7-0.3-0.7-0.7v-2.6c0-0.4,0.3-0.7,0.7-0.7h4.6c0.4,0,0.7,0.3,0.7,0.7v2.6C42,21.7,41.7,22,41.3,22z M13.3,22H8.7C8.3,22,8,21.7,8,21.3v-2.6C8,18.3,8.3,18,8.7,18h4.6c0.4,0,0.7,0.3,0.7,0.7v2.6C14,21.7,13.7,22,13.3,22z"/><path style="fill:none;stroke:#000000;stroke-width:2;stroke-linecap:round;stroke-linejoin:round;stroke-miterlimit:10;" d="M11.7,1L10,14H8.2C5.9,14,4,15.8,4,18.2V27"/><path style="fill:none;stroke:#000000;stroke-width:2;stroke-linecap:round;stroke-linejoin:round;stroke-miterlimit:10;" d="M46,27v-8.8c0-2.4-1.9-4.2-4.2-4.2H40L38.3,1"/><path style="fill:none;stroke:#000000;stroke-width:2.1667;stroke-miterlimit:10;" d="M45.8,9h-1.5C43.6,9,43,8.4,43,7.8V2.2C43,1.6,43.6,1,44.2,1h1.5C46.4,1,47,1.6,47,2.2v5.5C47,8.4,46.4,9,45.8,9z"/><path style="fill:none;stroke:#000000;stroke-width:2.1667;stroke-miterlimit:10;" d="M4.2,9h1.5C6.4,9,7,8.4,7,7.8V2.2C7,1.6,6.4,1,5.8,1H4.2C3.6,1,3,1.6,3,2.2v5.5C3,8.4,3.6,9,4.2,9z"/><path style="fill:none;stroke:#000000;stroke-width:2;stroke-linecap:round;stroke-linejoin:round;stroke-miterlimit:10;" d="M46,32v2c0,1.1-0.9,2-2,2h-4c-1.1,0-2-0.9-2-2v-2"/><path style="fill:none;stroke:#000000;stroke-width:2;stroke-linecap:round;stroke-linejoin:round;stroke-miterlimit:10;" d="M4,32v2c0,1.1,0.9,2,2,2h4c1.1,0,2-0.9,2-2v-2"/><path style="fill:none;stroke:#000000;stroke-width:1.9399;stroke-miterlimit:10;" d="M30.4,14H19.6c-0.9,0-1.6,0.7-1.6,1.6v4.8c0,0.9,0.7,1.6,1.6,1.6h10.8c0.9,0,1.6-0.7,1.6-1.6v-4.8C32,14.7,31.3,14,30.4,14z"/><line style="fill:none;stroke:#000000;stroke-width:2;stroke-miterlimit:10;" x1="44" y1="11" x2="44" y2="15"/><line style="fill:none;stroke:#000000;stroke-width:2;stroke-miterlimit:10;" x1="6" y1="15" x2="6" y2="11"/><path style="fill:none;stroke:#000000;stroke-width:2;stroke-linecap:round;stroke-linejoin:round;stroke-miterlimit:10;" d="M39,9c0,0-4.6,1-14,1S11,9,11,9"/><line style="fill:none;stroke:#000000;stroke-width:2;stroke-miterlimit:10;" x1="0" y1="37" x2="50" y2="37"/><polyline style="fill:none;stroke:#000000;stroke-width:2;stroke-linecap:round;stroke-miterlimit:10;" points="46,44 42,48 38,44 "/><line style="fill:none;stroke:#000000;stroke-width:2;stroke-miterlimit:10;" x1="42" y1="39" x2="42" y2="47.7"/><polyline style="fill:none;stroke:#000000;stroke-width:2;stroke-linecap:round;stroke-miterlimit:10;" points="12,44 8,48 4,44 "/><line style="fill:none;stroke:#000000;stroke-width:2;stroke-miterlimit:10;" x1="8" y1="39" x2="8" y2="47.7"/><polyline style="fill:none;stroke:#000000;stroke-width:2;stroke-linecap:round;stroke-miterlimit:10;" points="29,44 25,48 21,44 "/><line style="fill:none;stroke:#000000;stroke-width:2;stroke-miterlimit:10;" x1="25" y1="39" x2="25" y2="47.7"/></svg>