<?xml version="1.0" encoding="iso-8859-1"?><!-- Generator: Adobe Illustrator 21.0.0, SVG Export Plug-In . SVG Version: 6.00 Build 0)  --><svg xmlns="http://www.w3.org/2000/svg" xmlns:xlink="http://www.w3.org/1999/xlink" viewBox="0 0 50 50" width="50px" height="50px"><path d="M24.746,2C15.512,2,8,9.482,8,18.678c0,2.271,0.443,4.457,1.318,6.497c1.833,4.271,14.338,21.67,14.87,22.409C24.376,47.845,24.678,48,25,48s0.624-0.155,0.812-0.416c0.532-0.738,13.038-18.138,14.87-22.409C41.557,23.135,42,20.949,42,18.678C42,9.638,34.099,2,24.746,2z M31.795,11.687l-3.686,11.974l-0.007,0.002c-0.068,0.196-0.248,0.34-0.468,0.339c-0.123,0-0.231-0.05-0.318-0.123l-0.007,0.002L25,22l-4.837,5.805l-0.005-0.003C20.063,27.92,19.923,28,19.76,28c-0.286,0-0.518-0.232-0.518-0.518c0-0.063,0.015-0.122,0.036-0.179l-0.004-0.002l4.753-11.964l0.006-0.001C24.102,15.141,24.282,15,24.5,15c0.136,0,0.259,0.055,0.349,0.143l0.001,0l0.003,0.003c0,0,0.001,0.001,0.001,0.001L26.94,17.1l3.918-5.878C30.954,11.088,31.111,11,31.289,11c0.293,0,0.53,0.237,0.53,0.53C31.819,11.585,31.811,11.637,31.795,11.687z"/></svg>