<?xml version="1.0" encoding="iso-8859-1"?>
<!-- Generator: Adobe Illustrator 24.1.2, SVG Export Plug-In . SVG Version: 6.00 Build 0)  -->
<svg version="1.1" baseProfile="basic" id="&#x421;&#x43B;&#x43E;&#x439;_1"
	 xmlns="http://www.w3.org/2000/svg" xmlns:xlink="http://www.w3.org/1999/xlink" x="0px" y="0px" viewBox="0 0 50 50"
	 xml:space="preserve">
<path marker-end="none" marker-start="none" style="fill-rule:evenodd;clip-rule:evenodd;" d="M1,9c0-4.413,3.584-8,8.001-8
	C13.416,1,17,4.587,17,9c0,0.707-0.092,1.387-0.261,2.04c-1.438-1.147-2.474-2.427-2.965-3.533C13.14,5.48,11.241,4,9.002,4
	C6.243,4,4.003,6.24,4.003,9c0,2.227,1.454,4.107,3.464,4.76c1.109,0.48,2.414,1.533,3.563,2.987C10.383,16.907,9.702,17,9.001,17
	C4.584,17,1,13.413,1,9z"/>
<path marker-end="none" marker-start="none" style="fill-rule:evenodd;clip-rule:evenodd;" d="M38.97,16.747
	c1.153-1.467,2.463-2.507,3.575-2.987c2.002-0.653,3.451-2.547,3.451-4.76c0-2.76-2.24-5-4.999-5c-2.07,0-3.847,1.253-4.747,3.44
	c-0.393,1.027-1.468,2.4-2.99,3.6C33.091,10.387,33,9.707,33,9c0-4.413,3.584-8,7.999-8C45.416,1,49,4.587,49,9s-3.584,8-8.001,8
	C40.298,17,39.618,16.907,38.97,16.747z"/>
<path marker-end="none" marker-start="none" style="fill-rule:evenodd;clip-rule:evenodd;" d="M1,41c0-4.413,3.584-8,8.001-8
	c0.7,0,1.38,0.093,2.027,0.267c-1.161,1.467-2.479,2.507-3.595,2.987C5.442,36.92,4.003,38.787,4.003,41c0,2.76,2.239,5,4.999,5
	c2.241,0,4.139-1.48,4.773-3.507c0.491-1.107,1.526-2.387,2.962-3.52C16.908,39.613,17,40.293,17,41c0,4.427-3.584,8-7.999,8
	C4.584,49,1,45.427,1,41z"/>
<path marker-end="none" marker-start="none" style="fill-rule:evenodd;clip-rule:evenodd;" d="M33,41
	c0-0.707,0.091-1.387,0.263-2.04c1.14,0.907,2.03,1.907,2.986,3.6c0.608,1.96,2.507,3.44,4.75,3.44c2.759,0,4.999-2.24,4.999-5
	c0-2.24-1.48-4.133-3.311-4.693c-1.141-0.453-2.51-1.533-3.711-3.04C39.621,33.093,40.299,33,40.999,33C45.416,33,49,36.587,49,41
	c0,4.427-3.584,8-8.001,8C36.584,49,33,45.427,33,41z"/>
<ellipse style="fill-rule:evenodd;clip-rule:evenodd;" cx="9.001" cy="9" rx="3.001" ry="3"/>
<ellipse style="fill-rule:evenodd;clip-rule:evenodd;" cx="40.999" cy="9" rx="3.001" ry="3"/>
<ellipse style="fill-rule:evenodd;clip-rule:evenodd;" cx="9.001" cy="41" rx="3.001" ry="3"/>
<ellipse style="fill-rule:evenodd;clip-rule:evenodd;" cx="40.999" cy="41" rx="3.001" ry="3"/>
<path marker-end="none" marker-start="none" style="fill-rule:evenodd;clip-rule:evenodd;" d="M8.059,38.16l3.781,3.787
	C13.217,38.467,18.5,34,25.003,34c6.504,0,11.784,4.467,13.161,7.947l3.779-3.787c-3.472-1.373-7.941-6.653-7.941-13.16
	s4.469-11.787,7.941-13.16l-3.779-3.787C36.787,11.533,31.507,16,25.003,16C18.5,16,13.217,11.533,11.84,8.053L8.059,11.84
	C11.53,13.213,16,18.493,16,25S11.53,36.787,8.059,38.16z"/>
</svg>