<?xml version="1.0" encoding="iso-8859-1"?>
<!-- Generator: Adobe Illustrator 24.1.2, SVG Export Plug-In . SVG Version: 6.00 Build 0)  -->
<svg version="1.1" baseProfile="basic" id="&#x421;&#x43B;&#x43E;&#x439;_1"
	 xmlns="http://www.w3.org/2000/svg" xmlns:xlink="http://www.w3.org/1999/xlink" x="0px" y="0px" viewBox="0 0 50 50"
	 xml:space="preserve">
<path style="fill-rule:evenodd;clip-rule:evenodd;" d="M29,45l-2-6h-2.3c-1.1-4-4.8-7-9.2-7c-4.4,0-8.1,3-9.2,7H4V2h27v35l-1,1v3h2
	v4H29z"/>
<path style="fill-rule:evenodd;clip-rule:evenodd;" d="M8,41.5c0-4.1,3.4-7.5,7.5-7.5s7.5,3.4,7.5,7.5c0,4.2-3.4,7.5-7.5,7.5
	S8,45.6,8,41.5z M19,41.5c0-1.9-1.6-3.5-3.5-3.5S12,39.6,12,41.5s1.6,3.5,3.5,3.5S19,43.4,19,41.5z"/>
<path style="fill-rule:evenodd;clip-rule:evenodd;" d="M47.4,48.8l-23-16c-0.5-0.3-0.6-0.9-0.3-1.4c0.3-0.5,0.9-0.6,1.4-0.3l23,16
	c0.4,0.3,0.6,0.9,0.2,1.4C48.5,49,47.9,49.1,47.4,48.8z"/>
</svg>