<?xml version="1.0" encoding="iso-8859-1"?>
<!-- Generator: Adobe Illustrator 23.0.6, SVG Export Plug-In . SVG Version: 6.00 Build 0)  -->
<svg version="1.1" id="&#x421;&#x43B;&#x43E;&#x439;_1"
	 xmlns="http://www.w3.org/2000/svg" xmlns:xlink="http://www.w3.org/1999/xlink" x="0px" y="0px" viewBox="0 0 50 50"
	 style="enable-background:new 0 0 50 50;" xml:space="preserve">
<path d="M4.281,27.209c-2.87,0.99-3.28,3.12-2.71,4.79c0.28,0.81,1.09,1.99,3.29,1.42c0.04-1.81,0.1-4.16,0.17-6.47L4.281,27.209z"
	/>
<path d="M46.91,17.09c-0.57-1.66-2.21-3.09-5.09-2.1l-0.79,0.28c1.63,1.94,3.24,3.86,4.17,4.97C47.28,19.34,47.19,17.91,46.91,17.09
	z"/>
<path d="M47.28,32.253c0.331-0.762,0.109-1.451,0.053-1.608c-0.037-0.109-0.1-0.289-0.137-0.398
	c-0.261-0.757-0.523-1.513-0.786-2.266l-1.85-5.35l-0.12-0.14c-0.19-0.24-2.77-3.34-5.32-6.36c-0.02-0.03-0.04-0.05-0.06-0.08
	c-2.11-2.51-4.18-4.95-4.8-5.64c-1.43-1.55-3.91-1.63-5.68-1.54c-0.57-0.03-3.16-0.04-9.33,2.08c-6.28,2.17-8.27,3.79-8.65,4.13
	c-1.3,1.02-3.23,2.54-3.53,4.73C6.88,21.14,6.62,31.7,6.54,34.83C7,34.66,7.441,34.44,7.821,34.179
	c0.339-0.232,0.773-0.243,1.112-0.011c0.593,0.406,1.31,0.71,2.047,0.912c0.18-0.59,0.63-1.07,1.25-1.29
	c0.72-0.24,2.94-1.01,3.8-1.31c1.46-0.5,3.04,0.19,3.7,1.55c0.1,0.04,0.21,0.08,0.3,0.15c1.41,0.97,3.56,1.32,4.97,1.32
	c1.41,0,3.561-0.35,4.971-1.321c0.346-0.238,0.791-0.238,1.137,0c1.41,0.971,3.561,1.321,4.971,1.321c1.41,0,3.55-0.35,4.97-1.32
	c0.135-0.095,0.287-0.152,0.442-0.172c0,0,0.125-0.016,0.266,0.003c0.274,0.037,0.709,0.279,1.17,0.69
	c1.005-0.412,2.011-0.824,3.017-1.236C46.076,33.421,46.898,33.133,47.28,32.253z M12.8,29.3c-1.62,0.56-2.89,0.56-3.46,0.12
	c-0.68-0.51-0.61-1.86-0.58-2.51l0.01-0.21c0.11-3.3,0.21-6.04,0.29-6.6c0.2-1.39,1.77-2.62,2.82-3.44l0.08-0.06
	c0.01-0.02,1.72-1.58,7.95-3.73c6.24-2.14,8.54-1.97,8.55-1.97h0.17c0.79-0.04,3.18-0.17,4.15,0.89c0.57,0.62,2.44,2.83,4.42,5.18
	v0.01l0.14,0.16c0.03,0.03,0.06,0.07,0.09,0.11c0.05,0.05,0.1,0.11,0.15,0.17c0.45,0.54,1.03,1.36,0.85,2.05
	c-0.18,0.7-1.18,1.4-2.8,1.95L12.8,29.3z M40.3,29.04c-1.32,1.51-1.66,2.09-3.26,2.64c-1.57,0.55-3.29-0.3-3.84-1.89
	c-0.55-1.6,0.28-3.32,1.86-3.87c0.86-0.29,3.08-1.06,3.8-1.31c1.05-0.36,2.2,0.2,2.57,1.26C41.86,27.13,41.19,28.03,40.3,29.04z"/>
<path style="fill:none;stroke:#000000;stroke-width:2;stroke-linecap:round;stroke-linejoin:round;stroke-miterlimit:10;" d="
	M49,39.654C48.506,39.857,47.909,40,47.154,40c-1.538,0-3.902-0.491-5.539-2c-1.637,1.509-4,2-5.538,2s-3.901-0.491-5.539-2
	c-1.637,1.509-4,2-5.538,2s-3.901-0.491-5.539-2c-1.637,1.509-4,2-5.538,2s-3.901-0.491-5.538-2c-1.637,1.509-4.001,2-5.539,2
	C2.156,40,1.555,39.927,1,39.828"/>
<path style="fill:none;stroke:#000000;stroke-width:2;stroke-linecap:round;stroke-linejoin:round;stroke-miterlimit:10;" d="
	M49,35.654C48.506,35.857,47.909,36,47.154,36c-1.538,0-3.902-0.491-5.539-2c-1.637,1.509-4,2-5.538,2s-3.901-0.491-5.539-2
	c-1.637,1.509-4,2-5.538,2s-3.901-0.491-5.539-2c-1.637,1.509-4,2-5.538,2s-3.901-0.491-5.538-2c-1.637,1.509-4.001,2-5.539,2
	C2.156,36,1.555,35.927,1,35.828"/>
</svg>