<?xml version="1.0" encoding="utf-8"?><!-- Generator: Adobe Illustrator 18.0.0, SVG Export Plug-In . SVG Version: 6.00 Build 0)  --><!DOCTYPE svg PUBLIC "-//W3C//DTD SVG 1.0//EN" "http://www.w3.org/TR/2001/REC-SVG-20010904/DTD/svg10.dtd"><svg xmlns="http://www.w3.org/2000/svg" xmlns:xlink="http://www.w3.org/1999/xlink" viewBox="0 0 50 50" width="500px" height="500px"><rect x="1" y="37" fill="none" stroke="#000000" stroke-width="2" stroke-miterlimit="10" width="42" height="12"/><line fill="none" stroke="#000000" stroke-width="2" stroke-linejoin="round" stroke-miterlimit="10" x1="1" y1="43" x2="43" y2="43"/><path fill="none" stroke="#000000" stroke-width="2" stroke-linejoin="round" stroke-miterlimit="10" d="M39,37v-6.7c0-2.3-2-4.3-4.4-4.3H33l1-12.9c-0.1-1.4-1.8-3.1-12-3.1s-11.9,1.7-12,3.1L11,26H9.4C7,26,5,27.9,5,30.3V37"/><line fill="none" stroke="#000000" stroke-width="2" stroke-linejoin="round" stroke-miterlimit="10" x1="22" y1="10" x2="22" y2="22"/><path fill="none" stroke="#000000" stroke-width="2" stroke-linejoin="round" stroke-miterlimit="10" d="M34.8,26l9.1-9H49v-3h-5.7c-0.4,0-0.8,0.2-1.1,0.4l-9.2,9.1"/><line fill="none" stroke="#000000" stroke-width="2" stroke-miterlimit="10" x1="33.2" y1="22" x2="10.8" y2="22"/><circle fill="none" stroke="#000000" stroke-width="2" stroke-miterlimit="10" cx="34" cy="32" r="2"/><circle fill="none" stroke="#000000" stroke-width="2" stroke-miterlimit="10" cx="10" cy="32" r="2"/></svg>