<?xml version="1.0" encoding="iso-8859-1"?><!-- Generator: Adobe Illustrator 22.1.0, SVG Export Plug-In . SVG Version: 6.00 Build 0)  --><svg xmlns="http://www.w3.org/2000/svg" xmlns:xlink="http://www.w3.org/1999/xlink" viewBox="0 0 50 50" width="500px" height="500px"><g><path d="M28.37,9.965L21.021,4h-2.077l3.114,4.36l-1.627,1.162l-4.244-5.941c-0.218-0.305-0.247-0.705-0.076-1.039C16.282,2.209,16.625,2,17,2h4.375c0.229,0,0.452,0.079,0.63,0.224l7.625,6.188L28.37,9.965z"/></g><g><path d="M30.917,46h-12c-0.552,0-1-0.447-1-1s0.448-1,1-1h12c0.553,0,1,0.447,1,1S31.47,46,30.917,46z"/></g><g><path d="M41.917,46h-4c-0.553,0-1-0.447-1-1s0.447-1,1-1h4C42.514,44,43,43.514,43,42.917v-5.49c0-0.291-0.088-0.571-0.255-0.81l-5.564-7.961C36.526,27.807,34.958,27,33.917,27H9.083C8.486,27,8,27.486,8,28.083v14.834C8,43.514,8.486,44,9.083,44h2.833c0.552,0,1,0.447,1,1s-0.448,1-1,1H9.083C7.383,46,6,44.617,6,42.917V28.083C6,26.383,7.383,25,9.083,25h24.833c1.667,0,3.809,1.086,4.876,2.474l5.591,7.997C44.787,36.048,45,36.724,45,37.427v5.49C45,44.617,43.617,46,41.917,46z"/></g><g><path d="M20.375,23H16c-0.37,0-0.71-0.204-0.884-0.531c-0.173-0.327-0.152-0.724,0.056-1.03l3.778-5.569C13.599,15.489,8,14.303,8,11V5c0-0.553,0.448-1,1-1h2c0.379,0,0.725,0.214,0.895,0.553L13.618,8H31c4.509,0,6.674,1.26,8.707,3.293c0.912,0.912,1.3,1.834,1.152,2.741c-0.198,1.221-1.288,1.799-1.412,1.86C39.309,15.964,39.155,16,39,16H28.239l-7.18,6.729C20.874,22.903,20.629,23,20.375,23z M17.887,21h2.093l7.181-6.729C27.346,14.097,27.59,14,27.844,14h10.852c0.084-0.074,0.175-0.18,0.19-0.291c0.013-0.084,0.005-0.403-0.593-1.002C36.537,10.951,34.855,10,31,10H13c-0.379,0-0.725-0.214-0.895-0.553L10.382,6H10v5c0,1.254,3.713,2.677,10.811,2.97c0.363,0.015,0.688,0.225,0.852,0.549c0.163,0.324,0.138,0.711-0.065,1.012L17.887,21z"/></g><g><path d="M15.5,49c-2.481,0-4.5-2.019-4.5-4.5s2.019-4.5,4.5-4.5s4.5,2.019,4.5,4.5S17.981,49,15.5,49z M15.5,42c-1.378,0-2.5,1.121-2.5,2.5s1.122,2.5,2.5,2.5s2.5-1.121,2.5-2.5S16.878,42,15.5,42z"/></g><g><path d="M34.5,49c-2.481,0-4.5-2.019-4.5-4.5s2.019-4.5,4.5-4.5s4.5,2.019,4.5,4.5S36.981,49,34.5,49z M34.5,42c-1.379,0-2.5,1.121-2.5,2.5s1.121,2.5,2.5,2.5s2.5-1.121,2.5-2.5S35.879,42,34.5,42z"/></g><g><path d="M42.75,37.031h-9c-0.553,0-1-0.447-1-1v-6c0-0.553,0.447-1,1-1h5.5c0.553,0,1,0.447,1,1s-0.447,1-1,1h-4.5v4h8c0.553,0,1,0.447,1,1S43.303,37.031,42.75,37.031z"/></g></svg>