<?xml version="1.0" encoding="iso-8859-1"?><!-- Generator: Adobe Illustrator 19.1.0, SVG Export Plug-In . SVG Version: 6.00 Build 0)  --><svg xmlns="http://www.w3.org/2000/svg" xmlns:xlink="http://www.w3.org/1999/xlink" viewBox="0 0 50 50" width="500px" height="500px"><path style="fill:none;stroke:#000000;stroke-width:2;stroke-miterlimit:10;" d="M39,37L27.707,25.707c-0.391-0.391-0.391-1.024,0-1.414L39,13l3.998-0.998L46,9l-5-5l-3.002,3.002L37,11L25.707,22.293c-0.391,0.391-1.024,0.391-1.414,0L13,11l-0.998-3.998L9,4L4,9l3.002,3.002L11,13l11.293,11.293c0.391,0.391,0.391,1.024,0,1.414L11,37l-3.998,0.998L4,41l5,5l3.002-3.002L13,39l11.293-11.293c0.391-0.391,1.024-0.391,1.414,0L37,39l0.998,3.998L41,46l5-5l-3.002-3.002L39,37z"/></svg>