<?xml version="1.0" encoding="iso-8859-1"?><!-- Generator: Adobe Illustrator 22.0.1, SVG Export Plug-In . SVG Version: 6.00 Build 0)  --><svg xmlns="http://www.w3.org/2000/svg" xmlns:xlink="http://www.w3.org/1999/xlink" viewBox="0 0 50 50" width="500px" height="500px"><path style="fill:none;stroke:#000000;stroke-width:2;stroke-miterlimit:10;" d="M38.362,14.058l1.898-2.785c1.449-2.127,0.469-3.411-0.41-3.996c-0.881-0.586-1.62-0.131-2.349,0.939l-1.561,2.291"/><path style="fill:none;stroke:#000000;stroke-width:2;stroke-miterlimit:10;" d="M20.19,12.124l-3.97-1.569c-1.031-0.407-1.485-1.686-1.013-2.855l1.283-3.175c0.472-1.167,1.692-1.786,2.724-1.378l9.43,3.725"/><path style="fill:none;stroke:#000000;stroke-width:2;stroke-miterlimit:10;" d="M11.037,42.764l-6.772-2.678c-1.031-0.408-1.509-1.626-1.067-2.719l1.201-2.971c0.442-1.092,1.638-1.649,2.669-1.242l3.824,1.512"/><path style="fill:none;stroke:#000000;stroke-width:2;stroke-linecap:round;stroke-linejoin:round;stroke-miterlimit:10;" d="M30.397,18.157c0.326-0.805,1.168-2.889,1.44-3.561c0.398-0.983-0.049-2.085-0.999-2.46c-1.123-0.444-1.987,0.163-2.97,0.973c-1.469,1.209-2.025,1.516-2.628,3.008c-0.596,1.474,0.073,3.127,1.498,3.69C28.163,20.371,29.8,19.631,30.397,18.157z"/><path style="fill:none;stroke:#000000;stroke-width:2;stroke-linecap:round;stroke-linejoin:round;stroke-miterlimit:10;" d="M21.145,33.237c-1.49-0.59-3.174,0.113-3.762,1.567c-0.596,1.472-0.388,2.074-0.121,3.946c0.178,1.253,1.584,1.288,1.584,1.288l1.921-2.834c0,0,1.687,0.528,2.008-0.266C23.363,35.484,22.635,33.827,21.145,33.237z"/><path style="fill:none;stroke:#000000;stroke-width:2;stroke-miterlimit:10;" d="M30.916,46c0,0,3.018-0.995,3.018-3.979c0,0,3.201,0.572,4.024,0c0.848-0.589,1.006-3.979,1.006-3.979s2.447-1.293,3.018-1.99L45,19.141L34.159,9.056L25.753,5.73c-1.032-0.408-2.203,0.088-2.615,1.108L9.682,40.087c-0.413,1.02,0.089,2.178,1.12,2.586L19.209,46L30.916,46z"/><path style="fill:none;stroke:#000000;stroke-width:2;stroke-linejoin:round;stroke-miterlimit:10;" d="M37.221,12.807l-2.931,7.242c0,0-0.318,5.292-1.362,7.051c-0.815,1.373-4.024,1.99-6.036,4.974c-1.116,1.655,0.301,5.991,0,7.958c-0.256,1.674-3.126,6.024-3.126,6.024"/><polyline style="fill:none;stroke:#000000;stroke-width:2;stroke-linejoin:round;stroke-miterlimit:10;" points="26.743,37.185 29.91,39.037 32.928,35.058 35.946,38.042 "/></svg>