<?xml version="1.0" encoding="iso-8859-1"?>
<!-- Generator: Adobe Illustrator 23.0.3, SVG Export Plug-In . SVG Version: 6.00 Build 0)  -->
<svg version="1.1" id="Layer_1" xmlns="http://www.w3.org/2000/svg" xmlns:xlink="http://www.w3.org/1999/xlink" x="0px" y="0px"
	 viewBox="0 0 50 50" style="enable-background:new 0 0 50 50;" xml:space="preserve">
<path style="fill:none;stroke:#000000;stroke-width:2;stroke-linecap:round;stroke-linejoin:round;" d="M37.786,18.288
	C37.919,17.544,38,16.782,38,16c0-7.206-5.864-13.043-13.08-13c-6.44,0.039-12.009,4.995-12.818,11.384
	c-0.189,1.495-0.108,2.942,0.181,4.311l4.406,18.762C16.902,38.361,17.708,39,18.637,39h12.787c0.932,0,1.74-0.643,1.949-1.551
	L37.786,18.288z"/>
<path style="fill:none;stroke:#000000;stroke-width:2;" d="M24,17c0-0.552,0.448-1,1-1s1,0.448,1,1"/>
<line style="fill:none;stroke:#000000;stroke-width:2;" x1="28" y1="38" x2="28" y2="48"/>
<line style="fill:none;stroke:#000000;stroke-width:2;" x1="22" y1="48" x2="22" y2="38"/>
<path style="fill:none;stroke:#000000;stroke-width:2;stroke-linecap:round;stroke-linejoin:round;" d="M31.929,17
	c1.155,0,2.088-0.978,1.996-2.13c-0.005-0.065-0.011-0.12-0.017-0.164C33.281,10.349,29.531,7,25,7c-4.543,0-8.3,3.366-8.913,7.74
	c-0.002,0.015-0.004,0.031-0.006,0.049c-0.13,1.178,0.805,2.21,1.99,2.21H31.929z"/>
<line style="fill:none;stroke:#000000;stroke-width:2;stroke-linecap:round;stroke-linejoin:round;" x1="25" y1="16" x2="25" y2="12"/>
<line style="fill:none;stroke:#000000;stroke-width:2;stroke-linecap:round;stroke-linejoin:round;" x1="25" y1="7" x2="25" y2="8"/>
<line style="fill:none;stroke:#000000;stroke-width:2;stroke-linecap:round;stroke-linejoin:round;" x1="31.83" y1="10.17" x2="31.123" y2="10.877"/>
<line style="fill:none;stroke:#000000;stroke-width:2;stroke-linecap:round;stroke-linejoin:round;" x1="18.167" y1="10.167" x2="18.874" y2="10.874"/>
<path style="fill:none;stroke:#000000;stroke-width:2;" d="M35.557,28.968C34.11,28.753,33,27.506,33,26c0-1.657,1.343-3,3-3
	c0.314,0,0.616,0.048,0.9,0.137"/>
<line style="fill:none;stroke:#000000;stroke-width:2;stroke-linecap:round;stroke-linejoin:round;" x1="21" y1="24" x2="21" y2="30"/>
</svg>