<?xml version="1.0" encoding="iso-8859-1"?>
<!-- Generator: Adobe Illustrator 25.2.3, SVG Export Plug-In . SVG Version: 6.00 Build 0)  -->
<svg version="1.1" baseProfile="basic" id="ios" xmlns="http://www.w3.org/2000/svg" xmlns:xlink="http://www.w3.org/1999/xlink"
	 x="0px" y="0px" viewBox="0 0 50 50" xml:space="preserve">
<path style="fill:none;stroke:#000000;stroke-width:2;stroke-linejoin:round;stroke-miterlimit:10;" d="M21,28c0,0,4-9,12-13l4,4
	c5.956,0.662,11,4,11,4l-3.123,3.577C42.978,28.752,40.231,30,37.344,30H26L2.08,22.373c0,0,1.593-2.501,4.444-5.373h5.87
	c2.253,0,4.356,1.126,5.606,3l0,0h8"/>
<polyline style="fill:none;stroke:#000000;stroke-width:2;stroke-linecap:round;stroke-linejoin:round;stroke-miterlimit:10;" points="
	25,12 30,12 37,19 "/>
<path style="fill:none;stroke:#000000;stroke-width:2;stroke-linejoin:round;stroke-miterlimit:10;" d="M25.29,30.05
	c-1.03,1.29-1.99,2.33-2.82,3.16c-1.85,1.82-4.37,2.81-6.96,2.81L3.842,36.014c-1.914-0.001-2.554-2.56-0.867-3.462l11.213-5.999"/>
<path style="fill:none;stroke:#000000;stroke-width:2;stroke-linecap:round;stroke-linejoin:round;stroke-miterlimit:10;" d="M31,36
	h11c2.189,0.002,4.291-0.685,6.006-1.993"/>
<line style="fill:none;stroke:#000000;stroke-width:2;stroke-linecap:round;stroke-linejoin:round;stroke-miterlimit:10;" x1="33.977" y1="30.052" x2="40" y2="36.023"/>
</svg>