<?xml version="1.0" encoding="iso-8859-1"?><!-- Generator: Adobe Illustrator 19.1.1, SVG Export Plug-In . SVG Version: 6.00 Build 0)  --><svg xmlns="http://www.w3.org/2000/svg" xmlns:xlink="http://www.w3.org/1999/xlink" viewBox="0 0 50 50" width="50px" height="50px"><path style="fill:none;stroke:#000000;stroke-width:2;stroke-linecap:round;stroke-miterlimit:10;" d="M40,10l-1.478,6.651C38.217,18.023,37,19,35.593,19H14.407c-1.406,0-2.624-0.977-2.929-2.349L10,10"/><polygon points="42.446,10 42.004,12 50,12 50,10 "/><polygon points="12.993,12 12.551,10 20,10 20,12 "/><line style="fill:none;stroke:#000000;stroke-width:2;stroke-miterlimit:10;" x1="30" y1="11" x2="40" y2="11"/><line style="fill:none;stroke:#000000;stroke-width:2;stroke-miterlimit:10;" x1="0" y1="11" x2="10" y2="11"/><path d="M26.64,26h-3.28C20.956,26,19,24.044,19,21.64V18h12v3.64C31,24.044,29.044,26,26.64,26z"/><path d="M31,32h-1.234l-0.908-1.515C28.677,30.185,28.352,30,28,30h-6c-0.352,0-0.677,0.185-0.857,0.485L20.234,32H19c-1.103,0-2,0.897-2,2v7c0,1.103,0.897,2,2,2h12c1.103,0,2-0.897,2-2v-7C33,32.897,32.103,32,31,32z M25,40c-1.657,0-3-1.343-3-3s1.343-3,3-3s3,1.343,3,3S26.657,40,25,40z"/><path style="fill:none;stroke:#000000;stroke-width:2;stroke-linecap:round;stroke-miterlimit:10;" d="M39,39v-8.104C39,26.535,35.465,23,31.104,23H30"/><line style="fill:none;stroke:#000000;stroke-width:2;stroke-miterlimit:10;" x1="39" y1="37" x2="34" y2="37"/><path style="fill:none;stroke:#000000;stroke-width:2;stroke-linecap:round;stroke-miterlimit:10;" d="M11,39v-8.104C11,26.535,14.535,23,18.896,23H20"/><line style="fill:none;stroke:#000000;stroke-width:2;stroke-miterlimit:10;" x1="11" y1="37" x2="16" y2="37"/></svg>