<?xml version="1.0" encoding="utf-8"?><!-- Generator: Adobe Illustrator 15.0.0, SVG Export Plug-In . SVG Version: 6.00 Build 0)  --><!DOCTYPE svg PUBLIC "-//W3C//DTD SVG 1.1//EN" "http://www.w3.org/Graphics/SVG/1.1/DTD/svg11.dtd"><svg xmlns="http://www.w3.org/2000/svg" xmlns:xlink="http://www.w3.org/1999/xlink" viewBox="0 0 50 50" width="50px" height="50px"><path d="M41,47.414l-3.905-3.905l-0.998-3.998L25,28.414L13.903,39.511l-0.998,3.998L9,47.414L2.586,41l3.905-3.905l3.998-0.998L21.586,25L10.489,13.903l-3.998-0.998L2.586,9L9,2.586l3.905,3.905l0.998,3.998L25,21.586l11.097-11.097l0.998-3.998L41,2.586L47.414,9l-3.905,3.905l-3.998,0.998L28.414,25l11.097,11.097l3.998,0.998L47.414,41L41,47.414z"/></svg>