<?xml version="1.0" encoding="iso-8859-1"?><!-- Generator: Adobe Illustrator 19.2.1, SVG Export Plug-In . SVG Version: 6.00 Build 0)  --><svg xmlns="http://www.w3.org/2000/svg" xmlns:xlink="http://www.w3.org/1999/xlink" viewBox="0 0 50 50" width="500px" height="500px"><path style="fill:none;stroke:#000000;stroke-width:2;stroke-linecap:round;stroke-linejoin:round;stroke-miterlimit:10;" d="M38,3L38,3c3.314,0,6,2.686,6,6v5c0,3.314-2.686,6-6,6h0c-3.314,0-6-2.686-6-6V9C32,5.686,34.686,3,38,3z"/><line style="fill:none;stroke:#000000;stroke-width:2;stroke-linecap:round;stroke-linejoin:round;stroke-miterlimit:10;" x1="32" y1="9" x2="44" y2="9"/><path style="fill:none;stroke:#000000;stroke-width:2;stroke-linecap:round;stroke-linejoin:round;stroke-miterlimit:10;" d="M16.474,23.003L11.166,5.879c-0.442-1.424-1.973-2.2-3.383-1.715c-1.35,0.464-2.086,1.917-1.664,3.28l7.837,25.329C14.733,35.286,17.057,37,19.688,37H34.5c1.381,0,2.5-1.119,2.5-2.5c0-1.381-1.119-2.5-2.5-2.5H20.737c-0.876,0-1.651-0.571-1.91-1.408L17.404,26"/><path style="fill:none;stroke:#000000;stroke-width:2;stroke-linecap:round;stroke-linejoin:round;stroke-miterlimit:10;" d="M30,26H16.5c-0.828,0-1.5-0.672-1.5-1.5v0c0-0.828,0.672-1.5,1.5-1.5h11.266C29,23,30,24,30,25.234V26z"/><path d="M34.759,39h-2.119l2.332,6.664c0.036,0.103,0.002,0.181-0.032,0.229S34.842,46,34.734,46H17.266c-0.108,0-0.172-0.058-0.206-0.106s-0.068-0.127-0.032-0.229L19.359,39h-2.119l-2.101,6.004c-0.241,0.688-0.133,1.453,0.289,2.047C15.85,47.646,16.537,48,17.266,48h17.469c0.729,0,1.416-0.354,1.837-0.949c0.421-0.594,0.529-1.359,0.289-2.047L34.759,39z"/></svg>