<?xml version="1.0" encoding="iso-8859-1"?><!-- Generator: Adobe Illustrator 22.0.0, SVG Export Plug-In . SVG Version: 6.00 Build 0)  --><svg xmlns="http://www.w3.org/2000/svg" xmlns:xlink="http://www.w3.org/1999/xlink" viewBox="0 0 50 50" width="500px" height="500px"><circle style="fill:none;stroke:#000000;stroke-width:2;stroke-miterlimit:10;" cx="39.5" cy="40.5" r="4.5"/><circle style="fill:none;stroke:#000000;stroke-width:2;stroke-miterlimit:10;" cx="13.5" cy="40.5" r="4.5"/><line style="fill:none;stroke:#000000;stroke-width:2;stroke-miterlimit:10;" x1="11" y1="29" x2="38" y2="29"/><line style="fill:none;stroke:#000000;stroke-width:2;stroke-miterlimit:10;" x1="24" y1="22" x2="24" y2="29"/><path style="fill:none;stroke:#000000;stroke-width:2;stroke-miterlimit:10;" d="M44,41h3c1.105,0,2-0.895,2-2l0-4.826c0-1.711-1.237-3.172-2.925-3.453L38,29l-3.804-5.325C33.446,22.624,32.233,22,30.942,22H17.544c-0.969,0-1.878,0.468-2.441,1.256L11,29c0,0,0,0-3,0.625c-2.086,0.435-3,2.001-3,3.743L5,39c0,1.105,0.895,2,2,2h2"/><line style="fill:none;stroke:#000000;stroke-width:2;stroke-miterlimit:10;" x1="18" y1="41" x2="35" y2="41"/><path style="fill:none;stroke:#000000;stroke-width:2;stroke-miterlimit:10;" d="M44,6v10c0,0.6-0.4,1-1,1h-4.2c-0.5,0-1-0.2-1.4-0.6l-3.1-3.1c-0.2-0.2-0.3-0.4-0.3-0.7V9.4c0-0.3,0.1-0.5,0.3-0.7l3.1-3.1C37.8,5.2,38.3,5,38.8,5H43C43.6,5,44,5.4,44,6z"/><line style="fill:none;stroke:#000000;stroke-width:2;stroke-miterlimit:10;" x1="50" y1="15" x2="44" y2="15"/><line style="fill:none;stroke:#000000;stroke-width:2;stroke-miterlimit:10;" x1="50" y1="7" x2="44" y2="7"/><path style="fill:none;stroke:#000000;stroke-width:2;stroke-miterlimit:10;" d="M34,11H13C6.4,11,1,16.4,1,23v11c0,1.1,0.9,2,2,2l1,0"/></svg>