<?xml version="1.0" encoding="iso-8859-1"?>
<!-- Generator: Adobe Illustrator 22.1.0, SVG Export Plug-In . SVG Version: 6.00 Build 0)  -->
<svg version="1.1" id="Layer_1" xmlns="http://www.w3.org/2000/svg" xmlns:xlink="http://www.w3.org/1999/xlink" x="0px" y="0px"
	 viewBox="0 0 50 50" style="enable-background:new 0 0 50 50;" xml:space="preserve">
<path style="fill:none;stroke:#000000;stroke-width:2;stroke-linecap:round;stroke-linejoin:round;stroke-miterlimit:10;" d="
	M7.856,34.91C7.313,35.812,7,36.87,7,38c0,3.314,2.686,6,6,6s6-2.686,6-6c0-0.324-0.026-0.642-0.075-0.952"/>
<path style="fill:none;stroke:#000000;stroke-width:2;stroke-linecap:round;stroke-linejoin:round;stroke-miterlimit:10;" d="
	M39.51,12.499c0,1.382,0.127,2.501-2.345,2.501c-2.474,0-4.477-1.121-4.477-2.501c0-1.378,2.003-2.499,4.477-2.499
	C39.637,9.999,39.51,11.121,39.51,12.499z"/>
<path style="fill:none;stroke:#000000;stroke-width:2.013;stroke-linecap:round;stroke-linejoin:round;stroke-miterlimit:10;" d="
	M13,23.368C13,24.386,14.859,25,18.436,25C22.015,25,25,24.387,25,23.368l0,0C25,22.351,24.427,21,23.717,21h-9.435
	C13.573,21,13,22.351,13,23.368L13,23.368z"/>
<path style="fill:none;stroke:#000000;stroke-width:2;stroke-linecap:round;stroke-linejoin:round;stroke-miterlimit:10;" d="
	M36.108,39.137C36.639,41.907,39.076,44,42,44c3.313,0,6-2.687,6-6c0-1.127-0.311-2.182-0.852-3.083"/>
<path style="fill:none;stroke:#000000;stroke-width:2;stroke-linecap:round;stroke-linejoin:round;stroke-miterlimit:10;" d="M35,40
	c1.659,0,1-3.402,5-5c4.667-1.86,9,1.343,9-1.279C49,33,47.704,29,42,29c-4.525,0-9,3.574-9,8C33,39.74,34.19,40,35,40z"/>
<path style="fill:none;stroke:#000000;stroke-width:2;stroke-linecap:round;stroke-linejoin:round;stroke-miterlimit:10;" d="
	M41.582,29.019C42,21,36,15,36,15l-3-1c2,11-1,23-8.733,23h0C21,37,19,32,23,25h-9c-7,2-9,8-9,8l14,4h14
	C33.125,32.39,37.708,29.019,41.582,29.019z"/>
<path style="fill:none;stroke:#000000;stroke-width:2;stroke-linecap:round;stroke-linejoin:round;stroke-miterlimit:10;" d="M42,36
	c-1.105,0-2,0.895-2,2s0.895,2,2,2s2-0.895,2-2S43.105,36,42,36z"/>
<path style="fill:none;stroke:#000000;stroke-width:2;stroke-linecap:round;stroke-linejoin:round;stroke-miterlimit:10;" d="M13,36
	c-1.105,0-2,0.895-2,2s0.895,2,2,2s2-0.895,2-2S14.105,36,13,36z"/>
<line style="fill:none;stroke:#000000;stroke-width:2;stroke-linecap:round;stroke-linejoin:round;stroke-miterlimit:10;" x1="32" y1="12" x2="27" y2="12"/>
<line style="fill:none;stroke:#000000;stroke-width:2;stroke-linecap:round;stroke-linejoin:round;stroke-miterlimit:10;" x1="14" y1="25" x2="1" y2="25"/>
<rect x="2" y="14" style="fill:none;stroke:#000000;stroke-width:2;stroke-linecap:round;stroke-linejoin:round;stroke-miterlimit:10;" width="11" height="11"/>
<rect x="4" y="3" style="fill:none;stroke:#000000;stroke-width:2;stroke-linecap:round;stroke-linejoin:round;stroke-miterlimit:10;" width="11" height="11"/>
</svg>