<?xml version="1.0" encoding="iso-8859-1"?><!-- Generator: Adobe Illustrator 19.1.1, SVG Export Plug-In . SVG Version: 6.00 Build 0)  --><svg xmlns="http://www.w3.org/2000/svg" xmlns:xlink="http://www.w3.org/1999/xlink" viewBox="0 0 50 50" width="500px" height="500px"><path style="fill:none;stroke:#000000;stroke-width:2;stroke-linecap:round;stroke-linejoin:round;stroke-miterlimit:10;" d="M12,46h26c1.657,0,3-1.343,3-3V7c0-1.657-1.343-3-3-3H23L9,18v25C9,44.657,10.343,46,12,46z"/><path style="fill:none;stroke:#000000;stroke-width:2;stroke-linecap:round;stroke-linejoin:round;stroke-miterlimit:10;" d="M25,36c-3.3,0-6-2.5-6-5.6c0-3.7,6-10.4,6-10.4s6,6.7,6,10.4C31,33.5,28.3,36,25,36z"/><polyline style="fill:none;stroke:#000000;stroke-width:2;stroke-linecap:round;stroke-linejoin:round;stroke-miterlimit:10;" points="38,4 31,11 16,11 "/><rect x="9.672" y="9.379" transform="matrix(-0.7071 0.7071 -0.7071 -0.7071 29.4706 10.7929)" style="fill:none;stroke:#000000;stroke-width:2;stroke-linecap:round;stroke-linejoin:round;stroke-miterlimit:10;" width="5.657" height="4.243"/></svg>