<?xml version="1.0" encoding="iso-8859-1"?>
<!-- Generator: Adobe Illustrator 23.0.3, SVG Export Plug-In . SVG Version: 6.00 Build 0)  -->
<svg version="1.1" id="Layer_1" xmlns="http://www.w3.org/2000/svg" xmlns:xlink="http://www.w3.org/1999/xlink" x="0px" y="0px"
	 viewBox="0 0 50 50" style="enable-background:new 0 0 50 50;" xml:space="preserve">
<path d="M47,24v-6H32V3h-6.012l0.024,3.994l-2,0.012l-0.024-4L18,3v15H3v6h4v2H3v6h15v15h6v-4h2v4h6V32h15v-6h-4v-2H47z M13,26H9v-2
	h4V26z M19.001,26H15v-2h4.001V26z M26,41h-2v-4h2V41z M26,35h-2v-4h2V35z M26,19.001h-2V15h2V19.001z M26,13h-2V9h2V13z M35,26h-4
	v-2h4V26z M41,26h-4v-2h4V26z"/>
</svg>