<?xml version="1.0" encoding="iso-8859-1"?><!-- Generator: Adobe Illustrator 21.0.2, SVG Export Plug-In . SVG Version: 6.00 Build 0)  --><svg xmlns="http://www.w3.org/2000/svg" xmlns:xlink="http://www.w3.org/1999/xlink" viewBox="0 0 50 50" width="50px" height="50px"><rect x="15" y="9" width="28" height="2"/><path d="M45,16h-1V9.563c0-1.928-1.341-3.642-3.26-4.168h0C38.416,4.759,34.493,4,29,4s-9.416,0.759-11.74,1.396C15.341,5.922,14,7.636,14,9.563V16h-1c-0.552,0-1,0.448-1,1v4c0,0.552,0.448,1,1,1h1v15c0,1.103,0.897,2,2,2h2c1.103,0,2-0.897,2-2v-3h18v3c0,1.103,0.897,2,2,2h2c1.103,0,2-0.897,2-2V22h1c0.552,0,1-0.448,1-1v-4C46,16.448,45.552,16,45,16z M42,11v10H30V11H42z M16,11h12v10H16V11z M19.5,29c-0.828,0-1.5-0.672-1.5-1.5s0.672-1.5,1.5-1.5s1.5,0.672,1.5,1.5S20.328,29,19.5,29z M38.5,29c-0.828,0-1.5-0.672-1.5-1.5s0.672-1.5,1.5-1.5s1.5,0.672,1.5,1.5S39.328,29,38.5,29z"/><line style="fill:none;stroke:#000000;stroke-width:2;stroke-linecap:round;stroke-linejoin:round;stroke-miterlimit:10;" x1="16" y1="45" x2="42" y2="45"/><line style="fill:none;stroke:#000000;stroke-width:2;stroke-linecap:round;stroke-linejoin:round;stroke-miterlimit:10;" x1="7" y1="7" x2="7" y2="37"/><polygon points="7,4 11,9 3,9 "/><polygon points="14,45 19,41 19,49 "/><polygon points="44,45 39,49 39,41 "/><polygon points="7,39 3,34 11,34 "/></svg>