<?xml version="1.0" encoding="iso-8859-1"?><!-- Generator: Adobe Illustrator 22.1.0, SVG Export Plug-In . SVG Version: 6.00 Build 0)  --><svg xmlns="http://www.w3.org/2000/svg" xmlns:xlink="http://www.w3.org/1999/xlink" viewBox="0 0 50 50" width="50px" height="50px"><path style="fill:none;stroke:#000000;stroke-width:2;stroke-linecap:round;stroke-miterlimit:10;" d="M17.757,11.757C18.929,10.586,20.464,10,22,10s3.071,0.586,4.243,1.757"/><path style="fill:none;stroke:#000000;stroke-width:2;stroke-linecap:round;stroke-miterlimit:10;" d="M14.929,8.929C16.882,6.976,19.441,6,22,6s5.118,0.976,7.071,2.929"/><path style="fill:none;stroke:#000000;stroke-width:2;stroke-linecap:round;stroke-miterlimit:10;" d="M12.101,6.101C14.834,3.367,18.417,2,22,2s7.166,1.367,9.899,4.101"/><circle cx="22" cy="15" r="2"/><line style="fill:none;stroke:#000000;stroke-width:2;stroke-miterlimit:10;" x1="22" y1="19" x2="22" y2="15"/><line style="fill:none;stroke:#000000;stroke-width:2;stroke-miterlimit:10;" x1="22" y1="22" x2="22" y2="30"/><path d="M45.822,30.457L37.56,29.08L33,23c-0.938-1.252-2.434-2-4-2H15.217c-1.735,0-3.32,0.878-4.24,2.35l-3.579,5.726l-3.106,0.443C1.845,29.87,0,31.998,0,34.469V41c0,1.654,1.346,3,3,3h2.09c0.479,2.833,2.942,5,5.91,5s5.431-2.167,5.91-5h16.18c0.479,2.833,2.943,5,5.91,5s5.432-2.167,5.91-5H47c1.654,0,3-1.346,3-3v-5.611C50,32.936,48.243,30.861,45.822,30.457z M12.673,24.41c0.551-0.883,1.502-1.41,2.543-1.41H29c0.939,0,1.837,0.449,2.4,1.2L35,29H9.804L12.673,24.41z M11,47c-2.206,0-4-1.794-4-4s1.794-4,4-4s4,1.794,4,4S13.206,47,11,47z M39,47c-2.206,0-4-1.794-4-4s1.794-4,4-4s4,1.794,4,4S41.206,47,39,47z"/></svg>