<?xml version="1.0" encoding="utf-8"?><!-- Generator: Adobe Illustrator 15.0.0, SVG Export Plug-In . SVG Version: 6.00 Build 0)  --><!DOCTYPE svg PUBLIC "-//W3C//DTD SVG 1.1//EN" "http://www.w3.org/Graphics/SVG/1.1/DTD/svg11.dtd"><svg xmlns="http://www.w3.org/2000/svg" xmlns:xlink="http://www.w3.org/1999/xlink" viewBox="0 0 50 50" width="50px" height="50px"><g id="Слой_1"><line fill="none" stroke="#000000" stroke-width="2" stroke-miterlimit="10" x1="0" y1="37" x2="50" y2="37"/><polyline fill="none" stroke="#000000" stroke-width="2" stroke-linecap="round" stroke-miterlimit="10" points="46,44 42,48 38,44 "/><line fill="none" stroke="#000000" stroke-width="2" stroke-miterlimit="10" x1="42" y1="39" x2="42" y2="47.7"/><polyline fill="none" stroke="#000000" stroke-width="2" stroke-linecap="round" stroke-miterlimit="10" points="12,44 8,48 4,44 "/><line fill="none" stroke="#000000" stroke-width="2" stroke-miterlimit="10" x1="8" y1="39" x2="8" y2="47.7"/><polyline fill="none" stroke="#000000" stroke-width="2" stroke-linecap="round" stroke-miterlimit="10" points="29,44 25,48 21,44 "/><line fill="none" stroke="#000000" stroke-width="2" stroke-miterlimit="10" x1="25" y1="39" x2="25" y2="47.7"/><path d="M45.8,10.083h-1.5c-1.259,0-2.282-1.024-2.282-2.284v-5.5c0-1.259,1.023-2.283,2.282-2.283h1.5c1.259,0,2.283,1.024,2.283,2.283v5.5C48.083,8.995,46.995,10.083,45.8,10.083z"/><path d="M5.7,10.083H4.2c-1.216,0-2.284-1.114-2.284-2.383V2.2c0-1.195,1.088-2.284,2.284-2.284h1.6c1.216,0,2.284,1.114,2.284,2.383v5.5C8.083,9.016,6.97,10.083,5.7,10.083z"/><rect x="3" y="27" width="44" height="5"/><path d="M6,37h4c1.654,0,3-1.346,3-3H3C3,35.654,4.346,37,6,37z"/><path d="M40,37h4c1.654,0,3-1.346,3-3H37C37,35.654,38.346,37,40,37z"/><path d="M10.843,0c-0.008,0.058-0.032,0.109-0.035,0.169l-0.725,5.516L9.545,9.781L9.123,13H8.2c-0.331,0-0.65,0.038-0.961,0.094c-0.165,0.031-0.321,0.08-0.479,0.125c-0.126,0.036-0.253,0.07-0.375,0.114c-0.209,0.078-0.412,0.169-0.606,0.272c-0.046,0.023-0.092,0.049-0.137,0.072C5.418,13.807,5.202,13.945,5,14.102c-0.279,0.217-0.531,0.463-0.761,0.73c-0.042,0.05-0.085,0.102-0.125,0.152c-0.138,0.175-0.263,0.359-0.378,0.553c-0.087,0.146-0.17,0.295-0.242,0.451c-0.048,0.102-0.092,0.205-0.134,0.311c-0.095,0.247-0.176,0.502-0.233,0.768c-0.014,0.063-0.022,0.129-0.034,0.192C3.038,17.564,3,17.877,3,18.2V25h44v-6.8c0-0.323-0.038-0.636-0.092-0.941c-0.012-0.063-0.021-0.129-0.034-0.192c-0.058-0.266-0.14-0.521-0.233-0.768c-0.041-0.105-0.086-0.209-0.134-0.311c-0.071-0.156-0.155-0.305-0.241-0.451c-0.115-0.191-0.24-0.378-0.379-0.553c-0.041-0.053-0.084-0.104-0.125-0.152c-0.229-0.268-0.482-0.516-0.762-0.73c-0.202-0.156-0.418-0.295-0.643-0.422c-0.045-0.025-0.09-0.05-0.137-0.074c-0.195-0.104-0.396-0.193-0.607-0.271c-0.121-0.044-0.247-0.078-0.375-0.113c-0.156-0.046-0.313-0.095-0.477-0.125C42.449,13.038,42.13,13,41.8,13h-0.923l-0.445-3.394l-0.414-3.145l-0.818-6.22C39.194,0.158,39.176,0.08,39.16,0 M37.141,0l1.08,8.127C36.74,8.378,32.342,9,25,9S13.258,8.378,11.779,8.126L12.859,0 M14,21.3c0,0.4-0.3,0.7-0.7,0.7H8.7C8.3,22,8,21.7,8,21.3v-2.6C8,18.3,8.3,18,8.7,18h4.6c0.4,0,0.7,0.3,0.7,0.7V21.3z M32,20.4c0,0.898-0.7,1.6-1.6,1.6H19.6c-0.9,0-1.6-0.7-1.6-1.6V15.6c0-0.214,0.042-0.414,0.114-0.6c0.232-0.592,0.8-1,1.486-1h10.8c0.686,0,1.252,0.408,1.484,1C31.958,15.186,32,15.386,32,15.6V20.4z M42,21.3c0,0.4-0.3,0.7-0.7,0.7h-4.6c-0.4,0-0.7-0.3-0.7-0.7v-2.6c0-0.4,0.3-0.7,0.7-0.7h4.6c0.4,0,0.7,0.3,0.7,0.7V21.3z"/></g><g id="Слой_2"></g></svg>