<?xml version="1.0" encoding="iso-8859-1"?><!-- Generator: Adobe Illustrator 21.0.0, SVG Export Plug-In . SVG Version: 6.00 Build 0)  --><svg xmlns="http://www.w3.org/2000/svg" xmlns:xlink="http://www.w3.org/1999/xlink" viewBox="0 0 50 50" width="500px" height="500px"><g id="Layer_1"></g><g id="Layer_2"><circle style="fill:none;stroke:#000000;stroke-width:2;stroke-miterlimit:10;" cx="40" cy="34" r="5"/><circle style="fill:none;stroke:#000000;stroke-width:2;stroke-miterlimit:10;" cx="11" cy="34" r="5"/><path style="fill:none;stroke:#000000;stroke-width:2;stroke-miterlimit:10;" d="M45,34c2,0,3-0.99,3-2.114v-5.035c0-1.137-2.66-5.631-12-5.851c-1.004-1.424-2-3-4-6c-1.569-2.353-1.567-3-9-3c-0.876,0-2.919,0-4,0c-6,0-10,3-11,10c-0.985,0.004-2.408,0.212-3,1c-1.185,1.578-3,4.34-3,8c0,2,2.544,3.571,4,4"/><polyline style="fill:none;stroke:#000000;stroke-width:2;stroke-miterlimit:10;" points="15.975,35 35,35 35.025,34.998 "/><path d="M24,27h-3c-0.552,0-1-0.448-1-1l0,0c0-0.552,0.448-1,1-1h3c0.552,0,1,0.448,1,1l0,0C25,26.552,24.552,27,24,27z"/><path style="fill:none;stroke:#000000;stroke-width:2;stroke-miterlimit:10;" d="M18,22h14l-3-5c-0.631-0.958-0.853-1-2-1h-9V22z"/><path style="fill:none;stroke:#000000;stroke-width:2;stroke-miterlimit:10;" d="M18,16v6h-6C12.109,19,14,15.999,18,16z"/></g></svg>