<?xml version="1.0" encoding="utf-8"?><!-- Generator: Adobe Illustrator 15.0.0, SVG Export Plug-In . SVG Version: 6.00 Build 0)  --><!DOCTYPE svg PUBLIC "-//W3C//DTD SVG 1.1//EN" "http://www.w3.org/Graphics/SVG/1.1/DTD/svg11.dtd"><svg xmlns="http://www.w3.org/2000/svg" xmlns:xlink="http://www.w3.org/1999/xlink" viewBox="0 0 50 50" width="50px" height="50px"><g><path d="M22.116,47.46c-0.265-0.214-0.466-0.487-0.592-0.792c-0.317-0.087-0.613-0.251-0.858-0.486c-1.075-1.032-2.062-2.182-2.932-3.416c-0.239-0.339-0.363-0.738-0.365-1.141c-0.364-0.171-0.675-0.451-0.883-0.812c-0.762-1.322-1.423-2.745-1.965-4.229c-0.166-0.453-0.161-0.948,0.008-1.396c-0.391-0.266-0.681-0.667-0.807-1.138c-0.455-1.706-0.775-3.497-0.951-5.322c-0.047-0.491,0.088-0.979,0.377-1.374c-0.329-0.353-0.522-0.816-0.536-1.31c-0.009-0.307-0.011-0.617-0.011-0.929c0-1.473,0.084-2.928,0.25-4.325c0.055-0.461,0.267-0.882,0.592-1.198c-0.212-0.398-0.287-0.864-0.198-1.321c0.354-1.824,0.862-3.59,1.511-5.25c0.171-0.439,0.489-0.796,0.888-1.019c-0.104-0.446-0.055-0.924,0.158-1.351c0.768-1.536,1.668-2.974,2.676-4.274c0.252-0.326,0.593-0.559,0.971-0.68c0.061-0.394,0.239-0.768,0.523-1.068c0.791-0.837,1.635-1.606,2.508-2.288c0.25-0.195,0.537-0.324,0.834-0.384c0.154-0.264,0.37-0.495,0.637-0.669c0.735-0.479,1.495-0.904,2.27-1.28h-5.974c-0.042,0-0.086,0.003-0.127,0.008c-0.243,0.031-0.976,0.01-1.573-0.001c-0.516-0.011-0.881-0.02-1.132-0.001c-0.931,0.101-1.668,0.203-2.669,0.607c-0.708,0.287-1.202,0.99-1.201,1.711c0,0.025,0.001,0.05,0.002,0.075c-0.156,0.023-0.349,0.033-0.558,0.019c-0.237-0.017-0.511-0.034-0.777-0.034c-0.682,0-1.143,0.113-1.492,0.368c-0.57,0.414-0.694,0.528-0.975,0.839C9.647,3.708,9.517,3.853,9.289,4.083C8.875,4.496,8.673,5.137,8.775,5.717c0.035,0.201,0.105,0.387,0.206,0.551C8.824,6.494,8.594,6.751,8.433,6.857C8.292,6.846,8.163,6.84,8.045,6.84c-0.275,0-1.114,0-1.679,0.803c-0.527,0.75-0.723,1.172-0.995,1.755C5.272,9.609,5.161,9.85,5.012,10.15c-0.313,0.636-0.363,1.65,0.087,2.292c-0.046,0.186-0.134,0.425-0.218,0.592c-0.514,0.05-1.243,0.264-1.547,1.178c-0.389,1.163-0.496,1.689-0.71,2.737l-0.082,0.4c-0.157,0.804,0.092,1.596,0.63,2.091c0.004,0.362-0.096,1.023-0.211,1.403c-0.556,0.22-1.032,0.756-1.108,1.656c-0.063,0.766-0.06,0.995-0.054,1.451l0.005,0.649c0.002,0.374,0.008,0.745,0.019,1.115c0.026,0.874,0.65,1.676,1.289,2.071c0.043,0.197,0.045,0.543,0.017,0.81c-0.197,0.096-0.372,0.231-0.515,0.401c-0.362,0.431-0.499,1.046-0.395,1.777l0.053,0.377c0.147,1.048,0.197,1.401,0.525,2.611C2.965,34.376,3.433,34.927,4,35.201c0.193,0.265,0.501,0.871,0.68,1.313c-0.049,0.057-0.093,0.117-0.134,0.183c-0.493,0.798-0.103,1.83,0.029,2.129c0.161,0.362,0.244,0.568,0.304,0.717c0.156,0.388,0.217,0.513,0.626,1.197c0.266,0.46,0.954,0.877,1.363,1.026c0.178,0.118,0.537,0.45,0.817,0.747c-0.006,0.015-0.013,0.028-0.019,0.043c-0.254,0.589-0.116,1.397,0.325,1.92l0.315,0.378c0.409,0.495,0.451,0.537,1.118,1.118c0.572,0.499,1.427,0.575,1.887,0.615l0.077,0.008c0.024,0.006,0.049,0.011,0.074,0.015c0.212,0.034,0.47,0.109,0.718,0.198c-0.004,0.015-0.008,0.03-0.011,0.045c-0.183,0.774,0.463,1.557,0.994,1.822c0.935,0.473,1.904,0.823,2.867,1.039c0.108,0.026,0.22,0.039,0.33,0.039c0.155,0.001,0.672,0.045,1.204,0.088c0.637,0.052,1.291,0.103,1.484,0.103c0.344,0,3.954,0.018,7.001,0.034C24.662,49.284,23.341,48.45,22.116,47.46z"/></g><path d="M45.137,22.781c-0.033-0.544-0.313-0.934-0.711-0.9c-0.01,0.002-0.018,0.022-0.029,0.023c-0.057-0.664-0.127-1.324-0.227-1.971c0.012-0.002,0.018,0,0.025-0.003c0.348-0.143,0.555-0.687,0.461-1.215c-0.236-1.322-0.553-2.628-0.938-3.875c-0.146-0.499-0.938-0.707-0.938-0.707s-0.372-0.915-0.606-1.478c0.009-0.009,0.019-0.005,0.025-0.013c0.295-0.312,0.37-0.928,0.163-1.377c-0.518-1.127-1.104-2.195-1.743-3.174c-0.252-0.388-1.205-0.346-1.214-0.332C39.32,7.615,39.02,7.232,38.67,6.818c0.008-0.016,0.02-0.007,0.027-0.023c0.211-0.445,0.141-1.064-0.15-1.382c-0.744-0.8-1.533-1.507-2.346-2.099c-0.328-0.235-1.754-0.025-1.754-0.025l-0.365-0.184c0.006-0.015,0.016-0.018,0.018-0.03C34.197,2.549,33.996,2,33.65,1.851c-0.873-0.372-1.773-0.631-2.683-0.77c-0.26-0.054-1.202-0.077-1.92-0.081c-1.394,0.479-2.735,1.14-4.006,1.967c1.228,0.146-1.545,2.096-1.332,0.953c-0.801,0.625-1.562,1.32-2.285,2.085c1.174,0.112-1.01,2.882-1.367,1.599c-0.922,1.19-1.75,2.508-2.467,3.943c1.066-0.32-0.221,3.192-0.973,2.203c-0.596,1.527-1.072,3.164-1.41,4.904c0.992-0.365,0.523,2.834-0.371,2.374c-0.156,1.313-0.236,2.678-0.236,4.089c0,0.294,0.002,0.586,0.01,0.875c0.967-0.407,1.436,2.52,0.15,2.545c0.17,1.764,0.475,3.432,0.893,5c0.588-0.578,2.109,1.959,0.744,2.361c0.512,1.401,1.123,2.707,1.82,3.916c0.363-0.69,2.197,1.571,1.15,1.799c0.812,1.152,1.713,2.195,2.682,3.125c0.16-0.659,2.072,0.783,1.322,1.166c1.652,1.334,3.465,2.367,5.373,3.087C29.711,48.996,30.35,49,30.35,49c0.974-0.034,1.443-0.145,1.849-0.26c0.354-0.104,1.061-1.202,1.061-1.202s1.277-0.062,1.541-0.062c0.078,0,0.158-0.021,0.236-0.066c0.842-0.492,1.664-1.1,2.444-1.811c0.312-0.279,0.41-0.89,0.226-1.357c-0.006-0.012-0.017-0.012-0.017-0.021c0.367-0.367,0.441-0.457,0.791-0.871c0.004,0.012,0.599,0.074,0.781,0.074c0.15,0,0.305-0.08,0.426-0.24c0.689-0.896,1.33-1.887,1.908-2.951c0.228-0.422,0.189-1.043-0.088-1.392c-0.012-0.013-0.023-0.005-0.033-0.017c0.264-0.535,0.457-0.895,0.693-1.465c0.008,0.008,0.295-0.025,0.404-0.025c0.227,0,0.443-0.182,0.566-0.502c0.45-1.191,0.832-2.453,1.139-3.748c0.123-0.516-0.057-1.082-0.396-1.268c-0.004-0.002-0.01,0.004-0.016,0.002c0.131-0.635,0.236-1.283,0.33-1.938c0.01,0.002,0.01,0.017,0.018,0.019c0.039,0.01,0.078,0.013,0.111,0.013c0.316,0,0.592-0.341,0.646-0.822c0.151-1.351,0.231-2.735,0.231-4.114C45.201,24.236,45.18,23.504,45.137,22.781z M30.438,40.254c-5.028,0-9.106-6.829-9.106-15.249c0-8.423,4.078-15.25,9.106-15.25c5.031,0,9.105,6.828,9.105,15.25C39.543,33.425,35.469,40.254,30.438,40.254z"/></svg>