<?xml version="1.0" encoding="iso-8859-1"?>
<!-- Generator: Adobe Illustrator 23.0.3, SVG Export Plug-In . SVG Version: 6.00 Build 0)  -->
<svg version="1.1" xmlns="http://www.w3.org/2000/svg" xmlns:xlink="http://www.w3.org/1999/xlink" x="0px" y="0px"
	 viewBox="0 0 50 50" style="enable-background:new 0 0 50 50;" xml:space="preserve">
<g id="Layer_3" style="display:none;">
	<rect x="-538" y="-183" style="display:inline;fill:#FFFFFF;" width="776" height="203"/>
</g>
<g id="Layer_1">
</g>
<g id="Auto_Icons">
	<g>
		<g style="display:none;">
			<path style="display:inline;fill:none;stroke:#000000;stroke-width:2;" d="M18.28,30.76h-6.72V20.2h6.72"/>
			<path style="display:inline;fill:none;stroke:#000000;stroke-width:2;" d="M29.231,27.358c-0.13,1.087-0.539,1.926-1.227,2.516
				c-0.69,0.591-1.605,0.886-2.747,0.886c-1.238,0-2.231-0.435-2.978-1.305s-1.119-2.036-1.119-3.495v-0.988
				c0-0.955,0.174-1.795,0.522-2.519c0.347-0.725,0.841-1.282,1.479-1.671c0.638-0.387,1.378-0.582,2.218-0.582
				c1.114,0,2.006,0.304,2.678,0.915c0.672,0.609,1.063,1.453,1.174,2.53"/>
			<path style="display:inline;fill:none;stroke:#000000;stroke-width:2;" d="M40.569,25.813c0,1.007-0.162,1.885-0.485,2.635
				c-0.323,0.751-0.781,1.324-1.374,1.719s-1.284,0.593-2.075,0.593c-0.772,0-1.457-0.199-2.055-0.596
				c-0.597-0.398-1.061-0.965-1.391-1.702c-0.331-0.736-0.5-1.589-0.509-2.558v-0.74c0-0.988,0.164-1.862,0.492-2.62
				c0.328-0.758,0.791-1.338,1.392-1.74c0.599-0.403,1.285-0.604,2.058-0.604c0.786,0,1.478,0.199,2.079,0.596
				c0.599,0.398,1.061,0.974,1.384,1.73c0.323,0.755,0.485,1.633,0.485,2.637V25.813z"/>
			<line style="display:inline;fill:none;stroke:#000000;stroke-width:2;" x1="11.56" y1="25" x2="18.28" y2="25"/>
		</g>
		<g>
			<path d="M19.772,8C9.407,8,1.009,16.072,1.021,26.021L1.041,42H30.23c10.347,0,18.738-8.046,18.75-17.979L49,8H19.772z
				 M16.036,20.794h-5.693v3.316h5.389v1.577h-5.389v3.519h5.693v1.658H8.5V19.136h7.536V20.794z M23.564,29.342
				c1.571,0,2.764-0.817,3.094-2.11h1.835C28.163,29.493,26.214,31,23.564,31c-3.299,0-5.356-2.292-5.356-5.996
				c0-3.712,2.049-6.004,5.348-6.004c2.616,0,4.64,1.634,4.936,3.966h-1.835c-0.346-1.404-1.539-2.308-3.102-2.308
				c-2.131,0-3.464,1.674-3.464,4.346C20.092,27.669,21.425,29.342,23.564,29.342z M35.971,31c-3.447,0-5.545-2.316-5.545-6.004
				c0-3.696,2.139-5.996,5.545-5.996c3.423,0,5.529,2.308,5.529,5.996C41.5,28.676,39.41,31,35.971,31z"/>
			<path d="M35.971,20.658c-2.238,0-3.661,1.681-3.661,4.338c0,2.641,1.382,4.346,3.661,4.346c2.254,0,3.645-1.705,3.645-4.346
				C39.616,22.339,38.226,20.658,35.971,20.658z"/>
		</g>
	</g>
</g>
</svg>