<?xml version="1.0" encoding="iso-8859-1"?>
<!-- Generator: Adobe Illustrator 23.0.2, SVG Export Plug-In . SVG Version: 6.00 Build 0)  -->
<svg version="1.1" id="Layer_1" xmlns="http://www.w3.org/2000/svg" xmlns:xlink="http://www.w3.org/1999/xlink" x="0px" y="0px"
	 viewBox="0 0 50 50" style="enable-background:new 0 0 50 50;" xml:space="preserve">
<g>
	<g>
		<path style="fill:#010101;" d="M24.249,18c-0.175,0-0.353-0.046-0.514-0.143c-0.474-0.284-0.627-0.898-0.343-1.372l1.637-2.728
			c0.441-0.737,0.477-1.636,0.092-2.404l-0.906-1.812c-0.691-1.383-0.63-3.001,0.166-4.327l1.637-2.729
			c0.284-0.473,0.897-0.627,1.372-0.343c0.474,0.284,0.627,0.898,0.343,1.372l-1.637,2.728c-0.441,0.737-0.477,1.636-0.092,2.404
			l0.906,1.812c0.691,1.383,0.63,3.001-0.166,4.327l-1.637,2.729C24.92,17.827,24.589,18,24.249,18z"/>
	</g>
	<g>
		<path style="fill:#010101;" d="M31.428,18c-0.175,0-0.353-0.046-0.514-0.143c-0.474-0.284-0.627-0.898-0.343-1.372l1.402-2.338
			c0.354-0.589,0.382-1.308,0.074-1.923l-0.777-1.555c-0.615-1.229-0.56-2.666,0.147-3.846l1.403-2.339
			c0.284-0.474,0.898-0.628,1.372-0.343c0.474,0.284,0.627,0.898,0.343,1.372l-1.403,2.338c-0.354,0.59-0.381,1.309-0.073,1.923
			l0.777,1.555c0.614,1.23,0.559,2.669-0.148,3.847l-1.402,2.338C32.099,17.827,31.768,18,31.428,18z"/>
	</g>
	<g>
		<path style="fill:#010101;" d="M16.999,18c-0.175,0-0.353-0.046-0.514-0.143c-0.474-0.284-0.627-0.898-0.343-1.372l1.402-2.338
			c0.354-0.59,0.382-1.309,0.074-1.923l-0.777-1.555c-0.615-1.229-0.56-2.667,0.148-3.847l1.402-2.338
			c0.284-0.474,0.898-0.628,1.372-0.343c0.474,0.284,0.627,0.898,0.343,1.372l-1.402,2.338c-0.354,0.59-0.382,1.309-0.074,1.923
			l0.777,1.555c0.615,1.229,0.56,2.667-0.148,3.847l-1.402,2.338C17.67,17.827,17.339,18,16.999,18z"/>
	</g>
	<g>
		<path style="fill:#010101;" d="M43,38.385l-3.105,0c-0.486,0-0.881,0.408-0.981,0.957C38.532,41.431,36.925,43,35,43H15
			c-1.925,0-3.532-1.569-3.914-3.658c-0.1-0.549-0.495-0.957-0.981-0.957l-3.105,0c-0.552,0-1-0.517-1-1.154v-6.462
			c0-0.637,0.448-1.154,1-1.154l3.105,0c0.486,0,0.881-0.408,0.981-0.957C11.468,26.569,13.075,25,15,25h20
			c1.925,0,3.532,1.569,3.914,3.658c0.1,0.549,0.495,0.957,0.981,0.957l3.105,0c0.552,0,1,0.517,1,1.154v6.462
			C44,37.868,43.552,38.385,43,38.385z"/>
	</g>
</g>
</svg>