<?xml version="1.0" encoding="iso-8859-1"?>
<!-- Generator: Adobe Illustrator 24.1.2, SVG Export Plug-In . SVG Version: 6.00 Build 0)  -->
<svg version="1.1" baseProfile="basic" id="&#x421;&#x43B;&#x43E;&#x439;_1"
	 xmlns="http://www.w3.org/2000/svg" xmlns:xlink="http://www.w3.org/1999/xlink" x="0px" y="0px" viewBox="0 0 50 50"
	 xml:space="preserve">
<ellipse style="fill:none;stroke:#000000;stroke-width:2;stroke-linecap:round;stroke-miterlimit:79.8403;" cx="9.004" cy="8.999" rx="2" ry="2"/>
<path marker-end="none" marker-start="none" style="fill-rule:evenodd;clip-rule:evenodd;" d="M7.589,7.585
	c0.781-0.787,2.048-0.787,2.828,0c0.781,0.773,2.367,3.627,1.585,4.414c-0.78,0.773-3.633-0.8-4.415-1.587
	C6.808,9.626,6.809,8.359,7.589,7.585z"/>
<path style="fill:none;stroke:#000000;stroke-width:1.9998;" d="M9.002,15.996C5.137,15.996,2,12.864,2,8.998S5.137,2,9.002,2
	s7.002,3.132,7.002,6.998"/>
<ellipse style="fill:none;stroke:#000000;stroke-width:2;stroke-linecap:round;stroke-miterlimit:79.8403;" cx="40.996" cy="8.999" rx="2" ry="2"/>
<path marker-end="none" marker-start="none" style="fill-rule:evenodd;clip-rule:evenodd;" d="M42.411,7.585
	c-0.781-0.787-2.048-0.787-2.828,0c-0.781,0.773-2.367,3.627-1.585,4.414c0.78,0.773,3.633-0.8,4.415-1.587
	C43.192,9.626,43.191,8.359,42.411,7.585z"/>
<path style="fill:none;stroke:#000000;stroke-width:1.9998;" d="M40.998,15.996c3.864,0,7.002-3.132,7.002-6.998S44.862,2,40.998,2
	c-3.864,0-7.002,3.132-7.002,6.998"/>
<ellipse style="fill:none;stroke:#000000;stroke-width:2;stroke-linecap:round;stroke-miterlimit:79.8403;" cx="9.004" cy="41.013" rx="2" ry="2"/>
<path marker-end="none" marker-start="none" style="fill-rule:evenodd;clip-rule:evenodd;" d="M7.589,42.426
	c0.781,0.773,2.048,0.773,2.828,0c0.781-0.787,2.367-3.64,1.585-4.413c-0.78-0.787-3.633,0.8-4.415,1.573
	C6.808,40.373,6.809,41.64,7.589,42.426z"/>
<path style="fill:none;stroke:#000000;stroke-width:1.9998;" d="M9.002,34.004C5.137,34.004,2,37.136,2,41.002
	C2,44.854,5.137,48,9.002,48s7.002-3.146,7.002-6.998"/>
<ellipse style="fill:none;stroke:#000000;stroke-width:2;stroke-linecap:round;stroke-miterlimit:79.8403;" cx="40.996" cy="41.013" rx="2" ry="2"/>
<path marker-end="none" marker-start="none" style="fill-rule:evenodd;clip-rule:evenodd;" d="M42.411,42.426
	c-0.781,0.773-2.048,0.773-2.828,0c-0.781-0.787-2.367-3.64-1.585-4.413c0.78-0.787,3.633,0.8,4.415,1.573
	C43.192,40.373,43.191,41.64,42.411,42.426z"/>
<path style="fill:none;stroke:#000000;stroke-width:1.9998;" d="M40.998,34.004c3.864,0,7.002,3.132,7.002,6.998
	C48,44.854,44.862,48,40.998,48c-3.864,0-7.002-3.146-7.002-6.998"/>
<path style="fill:none;stroke:#000000;stroke-width:2;stroke-linecap:square;" d="M11.273,9.092l0.4,0.813
	c2.203,3.493,7.281,7.093,13.327,7.093s11.127-3.6,13.329-7.093l0.4-0.813"/>
<path style="fill:none;stroke:#000000;stroke-width:2;stroke-linecap:square;" d="M11.273,40.92l0.4-0.813
	c2.203-3.493,7.281-7.093,13.327-7.093s11.127,3.6,13.329,7.093l0.4,0.813"/>
<path style="fill:none;stroke:#000000;stroke-width:2;stroke-linecap:square;" d="M40.916,11.279l-0.816,0.4
	c-3.488,2.2-7.095,7.28-7.095,13.32c0,6.054,3.607,11.134,7.095,13.334l0.816,0.4"/>
<path style="fill:none;stroke:#000000;stroke-width:2;stroke-linecap:square;" d="M9.087,11.279l0.816,0.4
	c3.488,2.2,7.095,7.28,7.095,13.32c0,6.054-3.607,11.134-7.095,13.334l-0.816,0.4"/>
</svg>