<?xml version="1.0" encoding="iso-8859-1"?>
<!-- Generator: Adobe Illustrator 18.0.0, SVG Export Plug-In . SVG Version: 6.00 Build 0)  -->
<!DOCTYPE svg PUBLIC "-//W3C//DTD SVG 1.1//EN" "http://www.w3.org/Graphics/SVG/1.1/DTD/svg11.dtd">
<svg version="1.1" id="Layer_1" xmlns="http://www.w3.org/2000/svg" xmlns:xlink="http://www.w3.org/1999/xlink" x="0px" y="0px"
	 width="50px" height="50px" viewBox="0 0 50 50" style="enable-background:new 0 0 50 50;" xml:space="preserve">
<rect x="4" y="15" width="10" height="10"/>
<rect x="16" y="15" width="10" height="10"/>
<rect x="10" y="3" width="10" height="10"/>
<path d="M48.375,21.063L44.219,15.5C43.266,14.352,41.77,13,40,13h-7v14H1c-0.553,0-1,0.448-1,1v6c0,2.206,1.794,4,4,4h4.09
	c0.478,2.833,2.942,5,5.91,5s5.431-2.167,5.91-5H33c0.48,2.832,3.031,5,6,5s5.43-2.168,5.906-5H47c1.57,0,3-1.43,3-3v-9.625
	C50,23.363,48.551,21.309,48.375,21.063z M14,41c-2.206,0-4-1.794-4-4s1.794-4,4-4s4,1.794,4,4S16.206,41,14,41z M39,41
	c-2.207,0-4-1.793-4-4s1.793-4,4-4s4,1.793,4,4S41.207,41,39,41z M48,26H38c-1,0-2-1-2-2v-4c0-1.105,1-2,2-2h5.594l3.188,4.25
	C47.121,22.73,48,24.203,48,25.375V26z"/>
</svg>