<?xml version="1.0" encoding="iso-8859-1"?><!-- Generator: Adobe Illustrator 22.1.0, SVG Export Plug-In . SVG Version: 6.00 Build 0)  --><svg xmlns="http://www.w3.org/2000/svg" xmlns:xlink="http://www.w3.org/1999/xlink" viewBox="0 0 50 50" width="50px" height="50px"><circle style="fill:none;stroke:#000000;stroke-width:2;stroke-miterlimit:10;" cx="13" cy="41" r="5"/><circle style="fill:none;stroke:#000000;stroke-width:2;stroke-miterlimit:10;" cx="39" cy="41" r="5"/><line style="fill:none;stroke:#000000;stroke-width:2;stroke-linejoin:round;stroke-miterlimit:10;" x1="10.25" y1="28" x2="21" y2="28"/><line style="fill:none;stroke:#000000;stroke-width:2;stroke-linejoin:round;stroke-miterlimit:10;" x1="21" y1="20" x2="10.083" y2="20"/><line style="fill:none;stroke:#000000;stroke-width:2;stroke-linejoin:round;stroke-miterlimit:10;" x1="21" y1="24" x2="10.083" y2="24"/><line style="fill:none;stroke:#000000;stroke-width:2;stroke-linecap:round;stroke-linejoin:round;stroke-miterlimit:10;" x1="10" y1="17" x2="10" y2="32"/><line style="fill:none;stroke:#000000;stroke-width:2;stroke-linejoin:round;stroke-miterlimit:10;" x1="7" y1="24" x2="0" y2="24"/><line style="fill:none;stroke:#000000;stroke-width:2;stroke-miterlimit:10;" x1="7" y1="28" x2="0" y2="28"/><line style="fill:none;stroke:#000000;stroke-width:2;stroke-miterlimit:10;" x1="0" y1="20" x2="7" y2="20"/><path style="fill:none;stroke:#000000;stroke-width:2;stroke-linecap:round;stroke-linejoin:round;stroke-miterlimit:10;" d="M28,32V17.415c0-1.485-0.823-2.848-2.137-3.54L9,4L4,8"/><path style="fill:none;stroke:#000000;stroke-width:2;stroke-linecap:round;stroke-linejoin:round;stroke-miterlimit:10;" d="M6,13c0.61-0.526,1-1.28,1-2.127C7,9.286,5.657,8,4,8s-3,1.286-3,2.873C1,11.72,1.39,12.474,2,13"/><path style="fill:none;stroke:#000000;stroke-width:2;stroke-linejoin:round;stroke-miterlimit:10;" d="M9,4l14.768,12.722c0.15,0.18,0.232,0.406,0.232,0.64V32H0"/><path d="M47.576,30.302l-4.806-2.06l-2.833-6.893C39.185,19.346,37.282,18,35.2,18H28v13h-4v1H0v10h8.101C8.035,41.677,8,41.343,8,41c0-2.761,2.239-5,5-5s5,2.239,5,5c0,0.343-0.035,0.677-0.101,1l16.2-0.013C34.036,41.668,34,41.338,34,41c0-2.761,2.239-5,5-5s5,2.239,5,5c0,0.336-0.036,0.663-0.099,0.98H44.3l2.5-0.51c1.854-0.378,3.2-2.026,3.2-3.919v-3.572C50,32.376,49.048,30.933,47.576,30.302z M32,29v-6h6.453l2.466,6H32z"/></svg>