<?xml version="1.0" encoding="iso-8859-1"?>
<!-- Generator: Adobe Illustrator 23.0.3, SVG Export Plug-In . SVG Version: 6.00 Build 0)  -->
<svg version="1.1" id="Layer_1" xmlns="http://www.w3.org/2000/svg" xmlns:xlink="http://www.w3.org/1999/xlink" x="0px" y="0px"
	 viewBox="0 0 50 50" style="enable-background:new 0 0 50 50;" xml:space="preserve">
<g>
	<path d="M25,35c-0.87,0-1.717-0.098-2.535-0.275l-3.615,5.17C20.772,40.597,22.838,41,25,41c2.237,0,4.37-0.429,6.348-1.178
		l-3.603-5.151C26.862,34.879,25.946,35,25,35z"/>
	<path d="M43.17,29.518c-0.515,0-1.015,0.066-1.492,0.188C42.521,27.632,43,25.374,43,23c0-9.925-8.075-18-18-18S7,13.075,7,23
		c0,4.123,1.408,7.916,3.75,10.954l3.693-5.254c-0.769-1.418-1.239-3.013-1.38-4.7h6.027C19.035,23.674,19,23.341,19,23
		s0.035-0.674,0.09-1h-6.04c0.213-2.558,1.226-4.888,2.795-6.741l4.27,4.27c0.39-0.547,0.867-1.024,1.414-1.414l-4.27-4.27
		c1.852-1.569,4.183-2.582,6.741-2.795v6.04c0.326-0.055,0.659-0.09,1-0.09s0.674,0.035,1,0.09v-6.04
		c2.558,0.213,4.888,1.226,6.741,2.795l-4.27,4.27c0.547,0.39,1.024,0.867,1.414,1.414l4.27-4.27
		c1.569,1.852,2.582,4.183,2.795,6.741h-6.04c0.055,0.326,0.09,0.659,0.09,1s-0.035,0.674-0.09,1h6.029
		c-0.136,1.605-0.574,3.125-1.281,4.491l2.562,3.644l0,0l1.274,1.812c0.612-1.427,2.029-2.429,3.677-2.429c2.206,0,4,1.794,4,4
		c0,2.13-1.677,3.859-3.777,3.977l1.282,1.824c2.581-0.671,4.495-3.013,4.495-5.801C49.17,32.209,46.479,29.518,43.17,29.518z"/>
	<path d="M30.687,24.898c-0.679,2.029-2.411,3.577-4.547,3.99l10.97,15.685C37.298,44.841,37.604,45,37.93,45h4.963
		c0.373,0,0.715-0.208,0.887-0.539c0.172-0.331,0.146-0.73-0.069-1.036L30.687,24.898z"/>
	<circle cx="25" cy="23" r="4"/>
	<path d="M19.398,25.13L6.537,43.425c-0.215,0.306-0.242,0.705-0.069,1.036C6.639,44.792,6.981,45,7.354,45h4.963
		c0.327,0,0.632-0.159,0.819-0.427l10.946-15.651C21.93,28.59,20.154,27.113,19.398,25.13z"/>
	<path d="M44.59,35.518c0-0.783-0.637-1.421-1.42-1.421c-0.783,0-1.42,0.638-1.42,1.421s0.637,1.42,1.42,1.42
		C43.953,36.938,44.59,36.301,44.59,35.518z"/>
</g>
</svg>