<?xml version="1.0" encoding="iso-8859-1"?><!-- Generator: Adobe Illustrator 21.0.0, SVG Export Plug-In . SVG Version: 6.00 Build 0)  --><svg xmlns="http://www.w3.org/2000/svg" xmlns:xlink="http://www.w3.org/1999/xlink" viewBox="0 0 50 50" width="500px" height="500px"><path style="fill:none;stroke:#000000;stroke-width:2;stroke-linecap:round;stroke-miterlimit:10;" d="M38,42.873c0,1.352-0.897,2.535-2.201,2.893C33.748,46.331,30.217,47,25,47s-8.748-0.669-10.799-1.234C12.897,45.408,12,44.225,12,42.873V8.848c0-2.375,1.666-4.414,3.991-4.899C18.306,3.467,21.46,3,25,3s6.694,0.467,9.009,0.95C36.334,4.435,38,6.473,38,8.848V42.873z"/><line style="fill:none;stroke:#000000;stroke-width:2;stroke-linecap:round;stroke-linejoin:round;stroke-miterlimit:10;" x1="38" y1="18" x2="47" y2="27"/><line style="fill:none;stroke:#000000;stroke-width:2;stroke-linecap:round;stroke-linejoin:round;stroke-miterlimit:10;" x1="12" y1="18" x2="3" y2="27"/><g><path d="M30,22l4-5v0c0,0-3.955-1-9-1s-9,1-9,1v0l4,5H30z"/><path d="M20,36l-4,4c0,0,3.062,1,8.996,1S34,40,34,40l-4-4H20z"/><polygon points="31,24 31,34.432 34,37.432 34,20.452 "/><polygon points="19,24 19,34.432 16,37.432 16,20.452 "/></g></svg>