<?xml version="1.0" encoding="iso-8859-1"?><!-- Generator: Adobe Illustrator 19.1.0, SVG Export Plug-In . SVG Version: 6.00 Build 0)  --><svg xmlns="http://www.w3.org/2000/svg" xmlns:xlink="http://www.w3.org/1999/xlink" viewBox="0 0 50 50" width="500px" height="500px"><path style="fill:none;stroke:#000000;stroke-width:2;stroke-miterlimit:10;" d="M44,37.908V40c0,1.104-0.896,2-2,2h-4c-1.103,0-2-0.896-2-2v-1.322"/><path style="fill:none;stroke:#000000;stroke-width:2;stroke-miterlimit:10;" d="M14,38v2c0,1.104-0.896,2-2,2H8c-1.103,0-2-0.896-2-2v-5"/><path d="M35.726,30.726c0,0,2.561,1.335,3.594,1.022l-0.036,1.157l1.166,1.085c-0.802,1.386-1.673,1.723-2.899,1.934l-0.343-0.987l2.217-0.762l-1.741-0.289l0.498-1.202l-1.591,0.959c-0.011,0.007-0.026,0.005-0.034-0.005l-1.752-2.005l0.512,2.225c0.004,0.017-0.009,0.033-0.026,0.033l-2.546,0.03l2.915,1.164c0.009,0.004,0.016,0.013,0.017,0.023l0.105,1.112c-0.69,0.076-1.25,0.024-2.119-0.288c-1.492-0.536-2.25-2.21-1.644-3.695C32.599,30.82,34.286,30.209,35.726,30.726z"/><path style="fill:none;stroke:#000000;stroke-width:2;stroke-linecap:round;stroke-linejoin:round;stroke-miterlimit:10;" d="M15,28c-0.904,0-3.245,0-4,0c-1.104,0-2,0.895-2,2c0,1.307,0.919,1.927,2.08,2.584C12.813,33.567,13.324,34,15,34c1.656,0,3-1.342,3-3S16.656,28,15,28z"/><path style="fill:none;stroke:#000000;stroke-width:2;stroke-miterlimit:10;" d="M7.9,38C6.853,38,6,37.166,6,36.143v-7.972c0,0,4.901-13.085,5.571-14.386c0.812-1.578,2.425-2.893,5.253-2.665c13.272,1.069,16.006,4.76,16.006,4.76s4.526,0.033,6.095,1.685c1.569,1.652-0.974,5.326-0.974,5.326l3.57,3.36l0.176,5.725c0,0,2.302-0.362,2.302,5.015c0,1.404-0.853,1.857-1.9,1.857L7.9,38z"/><path style="fill:none;stroke:#000000;stroke-width:2;stroke-miterlimit:10;" d="M8.742,20.801c-0.422,1.078-2.024,3.379,4.154,3.729c5.521,0.313,18.368-4.125,21.317,2.346c5.68,4.041,7.369,1.368,7.301-0.845"/><path style="fill:none;stroke:#000000;stroke-width:2;stroke-miterlimit:10;" d="M8.468,21H5.099C2.527,21,2,22.532,2,23.588C2,24.645,2.787,25,4.082,25h2.771"/><path style="fill:none;stroke:#000000;stroke-width:2;stroke-miterlimit:10;" d="M42.129,22.264l3.164,1.157c2.415,0.883,2.385,2.503,2.022,3.495c-0.363,0.992-1.223,1.056-2.441,0.611l-3.164-1.104"/></svg>