<?xml version="1.0" encoding="utf-8"?><!-- Generator: Adobe Illustrator 18.1.1, SVG Export Plug-In . SVG Version: 6.00 Build 0)  --><svg xmlns="http://www.w3.org/2000/svg" xmlns:xlink="http://www.w3.org/1999/xlink" viewBox="0 0 50 50" width="500px" height="500px"><g><path d="M16.3,17.6l3.7,3.7l-0.3-0.7c-1.9-4.6-5.3-13-6.4-15.5c0.5,0,1,0.1,1.5,0.2c0.2,0,0.3,0.1,0.5,0.3c0.2,0.3,8.3,10.6,12.6,16l0.3,0.4h15.6c3.1,0,4.3,2.5,4.3,3c0,0.5-1.1,3-4.3,3H28.2l-0.3,0.4c-0.1,0.1-0.2,0.3-0.4,0.5l1.4,1.4c0.1-0.1,0.1-0.2,0.2-0.3h14.6c4.4,0,6.3-3.6,6.3-5s-1.9-5-6.3-5H29.1C27.2,17.5,17,4.5,16.8,4.3c-0.2-0.3-0.7-0.9-1.8-1c-0.9-0.1-2-0.2-2.4-0.2l-0.2,0c-0.7,0-1.1,0.4-1.2,0.6c-0.2,0.3-0.4,0.8-0.1,1.5C11.4,5.7,14.4,13,16.3,17.6z"/><path d="M26.3,30.4c-4.4,5.6-10.8,13.8-11,14.1c-0.1,0.2-0.2,0.2-0.4,0.2c-0.5,0.1-1,0.1-1.5,0.2c1-2.5,4.5-10.9,6.4-15.5l0.6-1.4H5.4l-3.1,6c0,0-0.1,0-0.1,0C2.7,31.6,4,25.2,4,25.2L4,25l0-0.2c-0.6-2.8-1.5-7-1.8-8.8c0.1,0,0.1,0,0.2,0l3.1,6h12.4l-2-2H6.6L4,15c-0.5-1-1.6-1-2-1H1.3c-0.4,0-0.7,0.1-1,0.4c-0.2,0.2-0.4,0.5-0.3,1c0,0.5,1.4,6.7,2,9.6c-0.3,1.4-1.9,9-1.9,9.4c-0.1,0.4,0,0.8,0.2,1.1c0.2,0.3,0.6,0.5,1,0.5L2,36c1,0,1.6-0.1,2-1l2.6-5h10.6c-1.6,3.8-5.9,14.2-6.1,14.9c-0.3,0.7-0.1,1.2,0.1,1.5c0.2,0.2,0.5,0.6,1.2,0.6l0.2,0c0.4,0,1.5-0.1,2.4-0.2c1.1-0.1,1.5-0.7,1.8-1c0.2-0.2,7.4-9.5,10.9-13.8L26.3,30.4z M12.5,46l0-1v0c0,0,0,0,0,0L12.5,46z"/></g><line fill="none" stroke="#000000" stroke-width="2" stroke-linecap="round" stroke-linejoin="round" stroke-miterlimit="10" x1="1" y1="1" x2="49" y2="49"/></svg>