<?xml version="1.0" encoding="iso-8859-1"?>
<!-- Generator: Adobe Illustrator 22.1.0, SVG Export Plug-In . SVG Version: 6.00 Build 0)  -->
<svg version="1.1" id="Layer_1" xmlns="http://www.w3.org/2000/svg" xmlns:xlink="http://www.w3.org/1999/xlink" x="0px" y="0px"
	 viewBox="0 0 50 50" style="enable-background:new 0 0 50 50;" xml:space="preserve">
<polygon style="fill:none;stroke:#000000;stroke-width:2;stroke-linejoin:round;stroke-miterlimit:10;" points="40,15 34,15 34,21 
	42,21 "/>
<circle cx="13.333" cy="37.667" r="2.667"/>
<path d="M49,20H34c-0.553,0-1,0.448-1,1v4h10c0.553,0,1,0.448,1,1c0,0.553-0.447,1-1,1H28.833c-0.002,0-0.003-0.001-0.005-0.001
	l-0.964,2.892C27.473,31.153,26.322,32,25.001,32c-0.21,0-0.42-0.022-0.613-0.064L10,28.939v3.349
	c0.969-0.602,2.109-0.955,3.333-0.955c3.498,0,6.333,2.836,6.333,6.333c0,0.113-0.011,0.222-0.017,0.334h12.367
	C32.011,37.889,32,37.779,32,37.667c0-3.498,2.836-6.333,6.333-6.333s6.333,2.836,6.333,6.333c0,0.113-0.011,0.222-0.017,0.334H49
	c0.553,0,1-0.447,1-1V21C50,20.448,49.553,20,49,20z"/>
<path d="M30.806,13.408C30.617,13.151,30.318,13,30,13H1c-0.553,0-1,0.448-1,1v10c0,0.474,0.332,0.882,0.796,0.979l24,5
	C24.864,29.994,24.933,30,25.001,30c0.429,0,0.821-0.277,0.953-0.702l5-15C31.05,13.995,30.994,13.664,30.806,13.408z M23,23H11
	c-0.553,0-1-0.448-1-1s0.447-1,1-1h12c0.553,0,1,0.448,1,1S23.553,23,23,23z M24,18H5c-0.553,0-1-0.448-1-1s0.447-1,1-1h19
	c0.553,0,1,0.448,1,1S24.553,18,24,18z"/>
<circle cx="38.333" cy="37.667" r="2.667"/>
<polyline style="fill:none;stroke:#000000;stroke-width:2;stroke-linecap:round;stroke-linejoin:round;stroke-miterlimit:10;" points="
	26.375,24.827 32,8 42,8 "/>
<circle style="fill:none;stroke:#000000;stroke-width:2;stroke-miterlimit:10;" cx="13.333" cy="37.667" r="6.333"/>
<circle style="fill:none;stroke:#000000;stroke-width:2;stroke-miterlimit:10;" cx="38.333" cy="37.667" r="6.333"/>
</svg>