<?xml version="1.0" encoding="iso-8859-1"?>
<!-- Generator: Adobe Illustrator 18.0.0, SVG Export Plug-In . SVG Version: 6.00 Build 0)  -->
<!DOCTYPE svg PUBLIC "-//W3C//DTD SVG 1.1//EN" "http://www.w3.org/Graphics/SVG/1.1/DTD/svg11.dtd">
<svg version="1.1" id="Layer_1" xmlns="http://www.w3.org/2000/svg" xmlns:xlink="http://www.w3.org/1999/xlink" x="0px" y="0px"
	 width="50px" height="50px" viewBox="0 0 50 50" style="enable-background:new 0 0 50 50;" xml:space="preserve">
<g>
	<path style="fill:none;stroke:#000000;stroke-width:2;stroke-linejoin:round;stroke-miterlimit:10;" d="M9,4v9.25L5.6,15.8
		C4.593,16.555,4,17.741,4,19v14c0,1.105,0.895,2,2,2h4c1.105,0,2-0.895,2-2v-4h26v4c0,1.105,0.895,2,2,2h4c1.105,0,2-0.895,2-2V19
		c0-1.259-0.593-2.445-1.6-3.2L41,13.25V4"/>
</g>
<path d="M36.687,24h4.625C42.211,24,43,23.211,43,22.313v-2.625C43,18.789,42.211,18,41.312,18h-4.625
	C35.789,18,35,18.789,35,19.688v2.625C35,23.211,35.789,24,36.687,24z M37,20h4v2h-4V20z"/>
<path d="M8,48l-5-4l5-4V48z"/>
<line style="fill:none;stroke:#000000;stroke-width:2;stroke-miterlimit:10;" x1="5.706" y1="44" x2="43.335" y2="44"/>
<path d="M42,48l5-4l-5-4V48z"/>
<path d="M19.594,23.969h10.813c1.402,0,2.563-1.16,2.563-2.563v-4.813c0-1.402-1.16-2.563-2.563-2.563H19.594
	c-1.402,0-2.563,1.16-2.563,2.563v4.813C17.031,22.809,18.191,23.969,19.594,23.969z M18.969,16.594
	c0-0.398,0.227-0.625,0.625-0.625h10.813c0.398,0,0.625,0.227,0.625,0.625v4.813c0,0.398-0.227,0.625-0.625,0.625H19.594
	c-0.398,0-0.625-0.227-0.625-0.625V16.594z"/>
<path d="M8.687,24h4.625C14.211,24,15,23.211,15,22.313v-2.625C15,18.789,14.211,18,13.312,18H8.687C7.789,18,7,18.789,7,19.688
	v2.625C7,23.211,7.789,24,8.687,24z M9,20h4v2H9V20z"/>
<line style="fill:none;stroke:#000000;stroke-width:2;stroke-linejoin:round;stroke-miterlimit:10;" x1="9" y1="8" x2="41" y2="8"/>
</svg>