<?xml version="1.0" encoding="iso-8859-1"?><!-- Generator: Adobe Illustrator 19.1.1, SVG Export Plug-In . SVG Version: 6.00 Build 0)  --><svg xmlns="http://www.w3.org/2000/svg" xmlns:xlink="http://www.w3.org/1999/xlink" viewBox="0 0 50 50" width="50px" height="50px"><line style="fill:none;stroke:#000000;stroke-width:2;stroke-linejoin:round;stroke-miterlimit:10;" x1="31.001" y1="39" x2="19.001" y2="39"/><path d="M33.5,48c-1.379,0-2.5-1.121-2.5-2.5v-12c0-1.379,1.121-2.5,2.5-2.5s2.5,1.121,2.5,2.5v12C36,46.879,34.879,48,33.5,48z"/><path d="M16.5,48c-1.379,0-2.5-1.121-2.5-2.5v-12c0-1.379,1.121-2.5,2.5-2.5s2.5,1.121,2.5,2.5v12C19,46.879,17.879,48,16.5,48z"/><path d="M25.042,33c-0.047,0-0.075-0.002-0.084-0.002c-0.001-0.002-2.377,0.034-3.958-0.754v6.752c0,0.029,0.014,0.053,0.016,0.081c0.006,0.069,0.021,0.133,0.04,0.199c0.018,0.062,0.037,0.12,0.066,0.176c0.028,0.054,0.063,0.102,0.102,0.151c0.044,0.056,0.088,0.106,0.143,0.152c0.021,0.018,0.032,0.042,0.055,0.058c1.575,1.115,3.171,1.188,3.542,1.188c0.02,0,0.023,0,0.036,0c0.013,0,0.016,0,0.036,0c0.371,0,1.967-0.073,3.542-1.188c0.023-0.016,0.034-0.041,0.055-0.058c0.054-0.045,0.099-0.096,0.143-0.152c0.038-0.049,0.074-0.096,0.102-0.151c0.029-0.056,0.048-0.114,0.066-0.176c0.02-0.066,0.034-0.13,0.04-0.199C28.986,39.048,29,39.024,29,38.995v-6.75C27.612,32.938,25.373,33,25.042,33z"/><path d="M32.732,14.318c-0.038-0.041-0.094-0.058-0.139-0.092l-6.053,1.699L26.275,16H26v7c0,0.127-0.029,0.247-0.073,0.36c-0.136,0.352-0.465,0.597-0.857,0.626C25.045,23.988,25.025,24,25,24c0,0,0,0,0,0s0,0,0,0c-0.552,0-1-0.447-1-1v-7h-0.275l-0.265-0.074l-6.053-1.699c-0.044,0.034-0.1,0.051-0.139,0.092c-1.873,2.012-2.23,6.143-2.265,6.607c-0.018,0.237,0.05,0.474,0.19,0.665c2.076,2.834,3.905,6.122,5.171,8.023l0,0l0.816,0.577C22.538,31.152,24.993,30.995,25,31c0.084,0.002,2.546,0.152,3.902-0.809l0.816-0.577l0,0c1.266-1.9,3.011-5.189,5.088-8.023c0.141-0.191,0.208-0.428,0.19-0.665C34.962,20.461,34.604,16.33,32.732,14.318z"/><line style="fill:none;stroke:#000000;stroke-width:2;stroke-linecap:round;stroke-linejoin:round;stroke-miterlimit:10;" x1="12" y1="11" x2="17" y2="10"/><path d="M16.649,11.937C16.259,11.79,16,11.417,16,11V9c0-0.553,0.448-1,1-1h16c0.552,0,1,0.447,1,1v2c0,0.417-0.259,0.79-0.649,0.937L26,14h-2L16.649,11.937z"/><line style="fill:none;stroke:#000000;stroke-width:2;stroke-linecap:round;stroke-linejoin:round;stroke-miterlimit:10;" x1="38" y1="11" x2="33" y2="10"/><path style="fill:none;stroke:#000000;stroke-width:2;stroke-linecap:round;stroke-linejoin:round;stroke-miterlimit:10;" d="M19,8l0.726-2.905c0.175-0.699,0.708-1.247,1.402-1.442C22.16,3.365,23.717,3,25,3s2.84,0.365,3.872,0.654c0.694,0.194,1.227,0.743,1.402,1.442L31,8"/><path style="fill:none;stroke:#000000;stroke-width:2;stroke-linecap:round;stroke-linejoin:round;stroke-miterlimit:10;" d="M31,7c0.25-0.25,3.438-3,5-3s1,1,1,1h-3"/><path style="fill:none;stroke:#000000;stroke-width:2;stroke-linecap:round;stroke-linejoin:round;stroke-miterlimit:10;" d="M19.099,7c-0.25-0.25-3.437-3-5-3s-1,1-1,1h3"/><path d="M17.972,27.764c-1.067-4.387-0.974-6.691-0.973-6.714L16,21l-0.999-0.053c-0.005,0.095-0.001,2.303,0.767,6.161c-1.015,0.181-1.954,0.582-2.768,1.151v2.771C13.912,29.806,15.359,29,17,29c0.307,0,0.597-0.141,0.786-0.382S18.044,28.062,17.972,27.764z"/><path d="M37,28.26c-0.814-0.569-1.753-0.97-2.768-1.151c0.768-3.733,0.771-6.066,0.767-6.161l-1.997,0.103c0.001,0.022,0.094,2.327-0.973,6.714c-0.072,0.298-0.004,0.613,0.186,0.854S32.693,29,33,29c1.641,0,3.088,0.806,4,2.031V28.26z"/></svg>