<?xml version="1.0" encoding="utf-8"?><!-- Generator: Adobe Illustrator 15.0.0, SVG Export Plug-In . SVG Version: 6.00 Build 0)  --><!DOCTYPE svg PUBLIC "-//W3C//DTD SVG 1.1//EN" "http://www.w3.org/Graphics/SVG/1.1/DTD/svg11.dtd"><svg xmlns="http://www.w3.org/2000/svg" xmlns:xlink="http://www.w3.org/1999/xlink" viewBox="0 0 50 50" width="50px" height="50px"><path d="M44.999,36.991c0-4.099-1.324-5.424-2.326-5.839l-0.164-5.346l-3.275-3.082c0.773-1.349,2.035-4.145,0.416-5.849c-1.552-1.634-5.081-1.931-6.373-1.984c-1.121-1.076-5.055-3.857-16.372-4.768c-0.244-0.02-0.479-0.029-0.707-0.029c-2.484,0-4.443,1.148-5.516,3.233c-0.335,0.65-1.588,3.871-2.832,7.124l-0.039-0.015c-0.031,0.079-0.07,0.166-0.11,0.258c-0.134,0.303-0.32,0.732-0.407,1.218c-1.063,2.796-2.013,5.328-2.23,5.908L5,27.99V35v1.143V40c0,1.654,1.346,3,3,3h4c1.654,0,3-1.346,3-3v-0.823l20,0.495V40c0,1.654,1.346,3,3,3h4c1.654,0,3-1.346,3-3C45,40,44.999,37.324,44.999,36.991z M15,34c-1.676,0-2.187-0.434-3.92-1.416C9.919,31.927,9,31.307,9,30c0-1.105,0.896-2,2-2c0.755,0,3.096,0,4,0c1.656,0,3,1.342,3,3S16.656,34,15,34z M18.795,23.021c-2.253,0.305-4.38,0.591-5.843,0.51c-3.047-0.172-3.59-0.816-3.668-0.944c-0.03-0.049-0.037-0.116-0.037-0.187c1.491-3.916,2.905-7.562,3.212-8.158c0.808-1.57,2.224-2.291,4.284-2.126c12.427,1.001,15.269,4.342,15.282,4.358l0.297,0.401l0.499,0.004c1.586,0.012,4.447,0.395,5.378,1.374c0.684,0.72-0.235,2.854-1.072,4.069l-0.487,0.708l3.83,3.604c-0.079,0.484-0.284,0.956-0.693,1.175c-0.42,0.229-1.726,0.514-4.776-1.604C32.446,21.173,24.887,22.196,18.795,23.021z M36.557,33.639l-1.752-2.006l0.512,2.225c0.004,0.018-0.008,0.033-0.025,0.033l-2.546,0.03l2.915,1.164c0.009,0.004,0.016,0.013,0.017,0.022l0.105,1.113c-0.69,0.075-1.25,0.023-2.119-0.289c-1.492-0.535-2.25-2.209-1.644-3.695c0.58-1.416,2.267-2.027,3.707-1.51c0,0,2.561,1.334,3.594,1.021l-0.036,1.156l1.166,1.086c-0.802,1.386-1.673,1.723-2.899,1.934l-0.343-0.986l2.217-0.763l-1.741-0.289l0.498-1.202l-1.591,0.959C36.58,33.65,36.564,33.648,36.557,33.639z"/><g><path d="M5.366,21.355C5.492,20.778,5.689,20.304,5.822,20H5.099C2.077,20,1,21.854,1,23.588c0,0.844,0.376,2.206,2.623,2.378C4.036,24.867,4.671,23.182,5.366,21.355z"/></g><g><path d="M48.277,24.765c-0.396-1.019-1.285-1.787-2.659-2.29l-3.21-1.103l-0.418,1.201l1.889,1.777l0.604,0.567l0.025,0.828l0.084,2.739c0.569,0.202,1.064,0.307,1.503,0.307c1.031,0,1.798-0.544,2.159-1.531C48.474,26.659,48.656,25.738,48.277,24.765z"/></g></svg>