<?xml version="1.0" encoding="iso-8859-1"?><!-- Generator: Adobe Illustrator 21.1.0, SVG Export Plug-In . SVG Version: 6.00 Build 0)  --><svg xmlns="http://www.w3.org/2000/svg" xmlns:xlink="http://www.w3.org/1999/xlink" viewBox="0 0 50 50" width="50px" height="50px"><path d="M10,20v12c0,0.55-0.45,1-1,1H7c-0.55,0-1-0.45-1-1V20c0-0.55,0.45-1,1-1h2C9.55,19,10,19.45,10,20z"/><path d="M3,12c-1.65,0-3,1.35-3,3v22c0,1.65,1.35,3,3,3h13V12H3z M12,32c0,1.65-1.35,3-3,3H7c-1.65,0-3-1.35-3-3V20c0-1.65,1.35-3,3-3h2c1.65,0,3,1.35,3,3V32z M26,19h-2c-0.55,0-1,0.45-1,1v12c0,0.55,0.45,1,1,1h2c0.55,0,1-0.45,1-1V20C27,19.45,26.55,19,26,19z M26,19h-2c-0.55,0-1,0.45-1,1v12c0,0.55,0.45,1,1,1h2c0.55,0,1-0.45,1-1V20C27,19.45,26.55,19,26,19z M47,12h-1v7c0,1.65-1.35,3-3,3h-2c-1.65,0-3-1.35-3-3v-7h-4v28h5.05L44,28.79V28h-6v-2h7c0.55,0,1,0.45,1,1v2c0,0.14-0.03,0.28-0.08,0.4L41.24,40H47c1.65,0,3-1.35,3-3V15C50,13.35,48.65,12,47,12z M41,20h2c0.55,0,1-0.45,1-1v-7h-4v7C40,19.55,40.45,20,41,20z M26,19h-2c-0.55,0-1,0.45-1,1v12c0,0.55,0.45,1,1,1h2c0.55,0,1-0.45,1-1V20C27,19.45,26.55,19,26,19z M26,19h-2c-0.55,0-1,0.45-1,1v12c0,0.55,0.45,1,1,1h2c0.55,0,1-0.45,1-1V20C27,19.45,26.55,19,26,19z M26,19h-2c-0.55,0-1,0.45-1,1v12c0,0.55,0.45,1,1,1h2c0.55,0,1-0.45,1-1V20C27,19.45,26.55,19,26,19z M26,19h-2c-0.55,0-1,0.45-1,1v12c0,0.55,0.45,1,1,1h2c0.55,0,1-0.45,1-1V20C27,19.45,26.55,19,26,19z M18,12v28h14V12H18z M29,32c0,1.65-1.35,3-3,3h-2c-1.65,0-3-1.35-3-3V20c0-1.65,1.35-3,3-3h2c1.65,0,3,1.35,3,3V32z M26,19h-2c-0.55,0-1,0.45-1,1v12c0,0.55,0.45,1,1,1h2c0.55,0,1-0.45,1-1V20C27,19.45,26.55,19,26,19z M26,19h-2c-0.55,0-1,0.45-1,1v12c0,0.55,0.45,1,1,1h2c0.55,0,1-0.45,1-1V20C27,19.45,26.55,19,26,19z M26,19h-2c-0.55,0-1,0.45-1,1v12c0,0.55,0.45,1,1,1h2c0.55,0,1-0.45,1-1V20C27,19.45,26.55,19,26,19z M26,19h-2c-0.55,0-1,0.45-1,1v12c0,0.55,0.45,1,1,1h2c0.55,0,1-0.45,1-1V20C27,19.45,26.55,19,26,19z M26,19h-2c-0.55,0-1,0.45-1,1v12c0,0.55,0.45,1,1,1h2c0.55,0,1-0.45,1-1V20C27,19.45,26.55,19,26,19z"/></svg>