<?xml version="1.0" encoding="iso-8859-1"?><!-- Generator: Adobe Illustrator 22.1.0, SVG Export Plug-In . SVG Version: 6.00 Build 0)  --><svg xmlns="http://www.w3.org/2000/svg" xmlns:xlink="http://www.w3.org/1999/xlink" viewBox="0 0 50 50" width="50px" height="50px"><g><path d="M38.983,12h-1.661c2.292,2.071,4.173,5.615,5.296,9.957l3.967-3.29c-1.82-3.981-4.52-6.512-7.6-6.626C38.986,12.027,38.983,12.014,38.983,12z"/><path d="M34.726,40.904c-1.122,4.023-2.932,7.203-5.182,9.116h3.002c0.068-0.015,0.131-0.041,0.203-0.041c2.37,0,4.888-2.416,6.657-6.48L34.726,40.904z"/><path d="M23.177,22.021c-1.124,0-2.822,3.589-2.822,9s1.698,9,2.822,9s2.823-3.59,2.823-9S24.301,22.021,23.177,22.021z"/><path d="M42.324,41.159l5.957-3.049c0.46-2.183,0.72-4.568,0.72-7.09c0-0.09-0.006-0.176-0.007-0.265l-5.401,3.586C43.38,36.768,42.948,39.069,42.324,41.159z"/><path d="M43.75,31.036c0,0.275-0.017,0.543-0.022,0.816l5.17-3.433c-0.204-2.867-0.732-5.514-1.528-7.804l-4.263,3.535C43.515,26.321,43.75,28.635,43.75,31.036z"/><path d="M41.597,34.32l-5.608-2.875c-0.027,2.654-0.298,5.155-0.775,7.441l4.914,2.725C40.843,39.493,41.36,37.036,41.597,34.32z"/><path d="M41.75,31.036c0-2.376-0.237-4.609-0.634-6.668l-6.201-2.516c0.563,2.232,0.924,4.692,1.038,7.327l5.768,2.957C41.731,31.77,41.75,31.41,41.75,31.036z"/><path d="M13,31.01c0-11.668,4.697-20.517,11-20.967V10h14.009c-5.656-8.816-17.572-7.797-18.105-7.746c-0.4,0.039-0.738,0.314-0.858,0.699c-0.12,0.384,0.004,0.804,0.312,1.063c0.028,0.024,2.798,2.428,1.673,4.035c-0.846,1.208-1.464,1.003-3.742-0.401c-1.729-1.067-3.885-2.392-6.481-1.881C7.282,6.464,5.671,5.167,3.441,3.371C3.173,3.155,2.899,2.935,2.617,2.713C2.3,2.464,1.867,2.471,1.515,2.668c-0.352,0.198-0.546,0.629-0.498,1.03c0.378,3.194,1.263,10.674,7.034,12.346c1.844,0.534,3.041,1.337,3.462,2.323c0.429,1.004-0.002,2.027-0.208,2.42c-0.25,0.479-0.979,0.837-1.899,0.935c-1.603,0.171-4.112-0.438-5.978-2.693c-0.282-0.34-0.754-0.455-1.159-0.284c-0.407,0.172-0.653,0.59-0.605,1.029c0.612,5.669,2.371,6.944,4.407,8.42c1.384,1.003,2.952,2.14,4.587,5.203c0.873,1.594,0.529,3.076-0.16,3.779c-0.669,0.682-1.683,0.719-2.855,0.104c-0.358-0.188-0.792-0.142-1.104,0.116c-0.31,0.259-0.435,0.678-0.316,1.063c1.981,6.446,6.32,8.602,11.209,9.329C14.706,44.019,13,38.029,13,31.01z"/><path d="M41.345,43.908c-1.081,2.589-2.47,4.698-4.049,6.113h1.474c3.816,0,7.073-3.705,8.833-9.315L41.345,43.908z"/><path d="M40.567,21.987C38.892,15.935,35.701,12,32.75,12h-3.217c1.925,1.629,3.528,4.179,4.655,7.399L40.567,21.987z"/><path d="M24.5,12.001c-5.327,0-9.5,8.35-9.5,19.009c0,10.66,4.173,19.009,9.5,19.009c5.327,0,9.5-8.35,9.5-19.009C34,20.351,29.827,12.001,24.5,12.001z M23.177,42.021c-3.166,0-4.822-5.534-4.822-11s1.656-11,4.822-11S28,25.555,28,31.021S26.343,42.021,23.177,42.021z"/></g></svg>