<?xml version="1.0" encoding="iso-8859-1"?><!-- Generator: Adobe Illustrator 21.1.0, SVG Export Plug-In . SVG Version: 6.00 Build 0)  --><svg xmlns="http://www.w3.org/2000/svg" xmlns:xlink="http://www.w3.org/1999/xlink" viewBox="0 0 50 50" width="500px" height="500px"><path style="fill:none;stroke:#000000;stroke-width:2;stroke-linecap:round;stroke-linejoin:round;stroke-miterlimit:10;" d="M24.998,9C33.822,9,41,16.177,41,25s-7.178,16-16.002,16C16.175,41,9,33.823,9,25S16.175,9,24.998,9"/><path style="fill:none;stroke:#000000;stroke-width:2;stroke-linecap:round;stroke-linejoin:round;stroke-miterlimit:10;" d="M25,3C12.851,3,3,12.85,3,25s9.851,22,22,22s22-9.85,22-22S37.15,3,25,3L25,3z"/><path style="fill:none;stroke:#000000;stroke-width:2;stroke-linecap:round;stroke-linejoin:round;stroke-miterlimit:10;" d="M33.223,17.694c-1.573-1.769-3.708-3.027-6.124-3.494"/><path style="fill:none;stroke:#000000;stroke-width:2;stroke-linecap:round;stroke-linejoin:round;stroke-miterlimit:10;" d="M35.434,28.492C35.801,27.395,36,26.221,36,25c0-1.304-0.227-2.554-0.643-3.715"/><path style="fill:none;stroke:#000000;stroke-width:2;stroke-linecap:round;stroke-linejoin:round;stroke-miterlimit:10;" d="M27.099,35.8c2.417-0.467,4.552-1.725,6.125-3.495"/><path style="fill:none;stroke:#000000;stroke-width:2;stroke-linecap:round;stroke-linejoin:round;stroke-miterlimit:10;" d="M16.721,32.243c1.579,1.804,3.738,3.087,6.186,3.558"/><path style="fill:none;stroke:#000000;stroke-width:2;stroke-linecap:round;stroke-linejoin:round;stroke-miterlimit:10;" d="M14.614,21.367C14.216,22.504,14,23.727,14,25c0,1.219,0.198,2.392,0.564,3.487"/><path style="fill:none;stroke:#000000;stroke-width:2;stroke-linecap:round;stroke-linejoin:round;stroke-miterlimit:10;" d="M22.931,14.194c-2.339,0.445-4.415,1.63-5.976,3.303"/><path style="fill:none;stroke:#000000;stroke-width:2;stroke-linecap:round;stroke-linejoin:round;stroke-miterlimit:10;" d="M37.639,15.291l-8.084,4.401c0,0,0,0,0,0c-0.654-0.562-1.412-1.002-2.243-1.293l-0.465-9.108 M39.486,31.5l-7.621-5.132C31.952,25.925,32,25.468,32,25c0-0.468-0.048-0.925-0.136-1.368l7.483-5.007 M26.847,40.667l0.465-9.066c0.83-0.291,1.589-0.731,2.242-1.292l7.986,4.395 M12.542,34.5l7.853-4.237c0,0,0,0,0,0c0.68,0.596,1.475,1.061,2.349,1.359l0.409,9.045 M10.623,18.708l7.502,4.995C18.046,24.124,18,24.556,18,25s0.046,0.876,0.125,1.297l-7.502,5.002 M23.152,9.292l-0.409,9.087c-0.874,0.298-1.668,0.763-2.348,1.358l-7.809-4.215"/><circle style="fill:none;stroke:#000000;stroke-width:2;stroke-linecap:round;stroke-linejoin:round;stroke-miterlimit:10;" cx="25" cy="25" r="3"/></svg>