<?xml version="1.0" encoding="iso-8859-1"?>
<!-- Generator: Adobe Illustrator 23.0.3, SVG Export Plug-In . SVG Version: 6.00 Build 0)  -->
<svg version="1.1" xmlns="http://www.w3.org/2000/svg" xmlns:xlink="http://www.w3.org/1999/xlink" x="0px" y="0px"
	 viewBox="0 0 50 50" style="enable-background:new 0 0 50 50;" xml:space="preserve">
<g id="fan_x5F_speed_x5F_filled">
</g>
<g id="fan_x5F_speed_x5F_outlined">
</g>
<g id="fresh_x5F_air_x5F_outlined">
</g>
<g id="fresh_x5F_air_x5F_filled">
</g>
<g id="air_x5F_recirculation_x5F_outlined">
</g>
<g id="air_x5F_recirculation_x5F_filled">
</g>
<g id="fuel_x5F_filter_x5F_warning_x5F_outlined">
</g>
<g id="fuel_x5F_filter_x5F_warning_x5F_filled">
</g>
<g id="air_x5F_suspension_x5F_warning_x5F_outlined">
	<polygon points="29,37 25,42 21,37 	"/>
	<polygon points="21,25 25,20 29,25 	"/>
	<circle style="fill:none;stroke:#000000;stroke-width:2;stroke-miterlimit:10;" cx="39" cy="31" r="5"/>
	<circle style="fill:none;stroke:#000000;stroke-width:2;stroke-miterlimit:10;" cx="11" cy="31" r="5"/>
	<path style="fill:none;stroke:#000000;stroke-width:2;stroke-miterlimit:10;" d="M44,31h3c1.105,0,2-0.895,2-2v-5.611
		c0-1.955-1.414-3.624-3.342-3.946L37,18l-4.8-6.4C31.445,10.593,30.259,10,29,10H15.217c-1.379,0-2.661,0.71-3.392,1.88L8,18
		l-3.566,0.509C2.464,18.791,1,20.479,1,22.469V29c0,1.105,0.895,2,2,2h3"/>
	<line style="fill:none;stroke:#000000;stroke-width:2;stroke-miterlimit:10;" x1="16" y1="31" x2="22" y2="31"/>
	<line style="fill:none;stroke:#000000;stroke-width:2;stroke-miterlimit:10;" x1="34" y1="31" x2="28" y2="31"/>
	<line style="stroke:#000000;stroke-width:2;stroke-miterlimit:10;" x1="25" y1="25" x2="25" y2="37"/>
</g>
<g id="air_x5F_suspension_x5F_warning_x5F_filled">
</g>
<g id="convertible_x5F_roof_x5F_warning_x5F_outlined">
</g>
<g id="convertible_x5F_roof_x5F_warning_x5F_filled">
</g>
<g id="hill_x5F_descent_x5F_control_x5F_outlined">
</g>
<g id="hill_x5F_descent_x5F_control_x5F_filled">
</g>
<g id="steering_x5F_lock_x5F_warning_x5F_outlined">
</g>
<g id="steering_x5F_lock_x5F_warning_x5F_filled">
</g>
<g id="hazard_x5F_warning_x5F_flasher_x5F_outlined">
</g>
<g id="hazard_x5F_warning_x5F_flasher_x5F_filled">
</g>
<g id="horn_x5F_outlined">
</g>
<g id="horn_x5F_filled">
</g>
</svg>