<?xml version="1.0" encoding="iso-8859-1"?><!-- Generator: Adobe Illustrator 21.0.2, SVG Export Plug-In . SVG Version: 6.00 Build 0)  --><svg xmlns="http://www.w3.org/2000/svg" xmlns:xlink="http://www.w3.org/1999/xlink" viewBox="0 0 50 50" width="500px" height="500px"><path style="fill:none;stroke:#000000;stroke-width:2;stroke-linejoin:round;stroke-miterlimit:10;" d="M34,20h11.785c-0.135-0.645-0.332-1.278-0.593-1.887L41.714,10H34V20z"/><path style="fill:none;stroke:#000000;stroke-width:2;stroke-linejoin:round;stroke-miterlimit:10;" d="M28,10H9c-0.552,0-1,0.448-1,1v9h20V10z"/><rect x="17" y="10" width="2" height="10"/><circle style="fill:none;stroke:#000000;stroke-width:2;stroke-miterlimit:10;" cx="37.5" cy="31.5" r="4.5"/><circle style="fill:none;stroke:#000000;stroke-width:2;stroke-miterlimit:10;" cx="13.5" cy="31.5" r="4.5"/><path style="fill:none;stroke:#000000;stroke-width:2;stroke-miterlimit:10;" d="M45.191,18.113l-3.633-8.477C40.613,7.43,38.444,6,36.044,6H8c-2.209,0-4,1.791-4,4v19c0,1.105,0.895,2,2,2h3.05c0.252-2.247,2.136-4,4.45-4s4.198,1.753,4.45,4H33.05c0.252-2.247,2.136-4,4.45-4s4.198,1.753,4.45,4H44c1.105,0,2-0.895,2-2v-6.947C46,20.698,45.725,19.358,45.191,18.113z"/><line style="fill:none;stroke:#000000;stroke-width:2;stroke-linecap:round;stroke-linejoin:round;stroke-miterlimit:10;" x1="5" y1="43" x2="45" y2="43"/><polygon points="3,43 8,39 8,47 "/><polygon points="47,43 42,47 42,39 "/></svg>