<?xml version="1.0" encoding="utf-8"?><!-- Generator: Adobe Illustrator 15.0.0, SVG Export Plug-In . SVG Version: 6.00 Build 0)  --><!DOCTYPE svg PUBLIC "-//W3C//DTD SVG 1.1//EN" "http://www.w3.org/Graphics/SVG/1.1/DTD/svg11.dtd"><svg xmlns="http://www.w3.org/2000/svg" xmlns:xlink="http://www.w3.org/1999/xlink" viewBox="0 0 50 50" width="50px" height="50px"><path d="M14,34.45v-0.354l0.122-0.333l0.063-0.172l0.032-0.089c0.239-0.648,1.082-2.934,1.949-5.246c0.112-0.41,0.24-0.755,0.34-1.015l0.521-1.265c0.628-1.647,0.967-2.499,1.168-2.977H6.234c-1.135,0-1.934-0.214-2.189-0.588c-0.162-0.237-0.138-0.6-0.06-0.947c0.961-2.56,1.813-4.781,2.012-5.174c0.422-0.834,1.747-1.292,2.715-1.632C8.728,14.651,10.268,14,14.999,14c4.725,0,6.268,0.65,6.269,0.65l0.158,0.061c0.526,0.152,2.128,0.616,2.497,1.472c0.135,0.314,0.451,1.112,0.914,2.311c0.538-0.109,1.208-0.215,2.028-0.301c-0.485-1.261-0.921-2.375-1.105-2.802c-0.726-1.683-2.846-2.331-3.717-2.583C21.591,12.622,19.725,12,14.999,12c-4.828,0-6.671,0.649-7.07,0.818c-1.181,0.409-2.937,1.03-3.716,2.569c-0.223,0.441-0.988,2.426-1.804,4.589l-0.037-0.012c-0.084,0.218-0.203,0.536-0.298,0.903c-0.924,2.46-1.827,4.912-2.012,5.414L0,26.45V32v0.607V36c0,1.103,0.897,2,2,2h4c1.103,0,2-0.897,2-2v-1h6V34.45z M7.333,30c-0.931,0-1.214-0.217-2.178-0.708C4.51,28.963,4,28.654,4,28c0-0.552,0.497-1,1.111-1c0.419,0,1.72,0,2.222,0C8.253,27,9,27.671,9,28.5S8.253,30,7.333,30z"/><path d="M45.936,34.276c-0.146-0.387-3.573-9.491-4.177-10.887c-0.727-1.682-2.846-2.33-3.717-2.583C37.591,20.622,35.725,20,30.999,20c-4.828,0-6.671,0.649-7.07,0.818c-1.181,0.409-2.937,1.03-3.716,2.569c-0.223,0.441-0.988,2.426-1.804,4.589l-0.037-0.012c-0.084,0.218-0.203,0.536-0.298,0.902c-0.923,2.46-1.827,4.913-2.012,5.415L16,34.45V40v0.607V44c0,1.103,0.897,2,2,2h4c1.103,0,2-0.897,2-2v-1h14v1c0,1.103,0.897,2,2,2h4c1.103,0,2-0.897,2-2v-3.393V40v-5.553L45.936,34.276z M23.333,38c-0.931,0-1.214-0.217-2.178-0.708C20.51,36.963,20,36.654,20,36c0-0.553,0.497-1,1.111-1c0.419,0,1.72,0,2.222,0C24.253,35,25,35.671,25,36.5S24.253,38,23.333,38z M40.846,37.292C39.881,37.783,39.598,38,38.667,38C37.747,38,37,37.329,37,36.5s0.747-1.5,1.667-1.5c0.502,0,1.804,0,2.222,0C41.502,35,42,35.447,42,36C42,36.654,41.488,36.963,40.846,37.292z M41.916,30.437C41.801,30.605,41.36,31,39.768,31H22.234c-1.135,0-1.933-0.215-2.189-0.588c-0.162-0.237-0.138-0.601-0.06-0.946c0.961-2.561,1.813-4.782,2.012-5.175c0.422-0.834,1.747-1.292,2.715-1.632C24.728,22.651,26.268,22,30.999,22c4.726,0,6.268,0.65,6.269,0.65l0.158,0.061c0.526,0.152,2.127,0.616,2.497,1.472c0.236,0.546,0.952,2.4,1.724,4.421l-0.006,0.002l0.059,0.15C41.849,29.134,42.199,30.019,41.916,30.437z"/><g><path d="M49.936,18.276C49.79,17.89,46.362,8.785,45.759,7.39c-0.727-1.682-2.846-2.33-3.717-2.583C41.591,4.622,39.725,4,34.999,4c-4.828,0-6.671,0.648-7.07,0.818c-1.182,0.409-2.937,1.03-3.716,2.569c-0.069,0.136-0.254,0.504-1.414,3.559c0.443,0.131,1.124,0.359,1.86,0.734c0.958-2.524,1.252-3.22,1.338-3.39c0.422-0.834,1.747-1.292,2.716-1.632C28.728,6.651,30.268,6,34.999,6c4.726,0,6.268,0.65,6.269,0.65l0.158,0.061c0.526,0.152,2.127,0.616,2.497,1.472c0.236,0.546,0.952,2.4,1.724,4.42l-0.007,0.003l0.059,0.15c0.149,0.378,0.5,1.263,0.217,1.681C45.8,14.606,45.359,15,43.766,15H27.763c0.009,0.022,0.021,0.055,0.031,0.078c0.058,0.143,0.125,0.311,0.199,0.499c0.015,0.037,0.03,0.078,0.046,0.116c0.079,0.203,0.168,0.43,0.267,0.682c0.014,0.037,0.027,0.071,0.042,0.108c0.116,0.301,0.241,0.623,0.383,0.991l0.22,0.57C29.575,18.017,30.251,18,30.999,18c4.57,0,6.754,0.552,7.691,0.913c0.521,0.152,1.476,0.446,2.437,1.016c0.25-0.545,0.845-0.928,1.54-0.928c0.502,0,1.804,0,2.222,0C45.502,19,46,19.448,46,20c0,0.654-0.512,0.963-1.154,1.292c-0.732,0.373-1.073,0.587-1.603,0.669c0.125,0.203,0.252,0.405,0.352,0.635c0.381,0.88,1.779,4.545,2.863,7.404H48c1.103,0,2-0.897,2-2v-3.392V24v-5.553L49.936,18.276z"/></g></svg>