<?xml version="1.0" encoding="utf-8"?><!-- Generator: Adobe Illustrator 15.0.0, SVG Export Plug-In . SVG Version: 6.00 Build 0)  --><!DOCTYPE svg PUBLIC "-//W3C//DTD SVG 1.1//EN" "http://www.w3.org/Graphics/SVG/1.1/DTD/svg11.dtd"><svg xmlns="http://www.w3.org/2000/svg" xmlns:xlink="http://www.w3.org/1999/xlink" viewBox="0 0 50 50" width="50px" height="50px"><line fill="none" stroke="#000000" stroke-width="2" stroke-miterlimit="10" x1="22" y1="12" x2="22" y2="20"/><path d="M45.822,20.457L37.56,19.08L33,13c-0.938-1.252-2.434-2-4-2H15.217c-1.735,0-3.32,0.878-4.24,2.35l-3.579,5.726l-3.106,0.443C1.845,19.87,0,21.998,0,24.469V31c0,1.654,1.346,3,3,3h2.09c0.479,2.833,2.942,5,5.91,5s5.431-2.167,5.91-5h16.18c0.479,2.833,2.943,5,5.91,5s5.432-2.167,5.91-5H47c1.654,0,3-1.346,3-3v-5.611C50,22.936,48.243,20.861,45.822,20.457z M12.673,14.41c0.551-0.883,1.502-1.41,2.543-1.41H29c0.939,0,1.837,0.449,2.4,1.2L35,19H9.804L12.673,14.41z M11,37c-2.206,0-4-1.794-4-4s1.794-4,4-4s4,1.794,4,4S13.206,37,11,37z M39,37c-2.206,0-4-1.794-4-4s1.794-4,4-4s4,1.794,4,4S41.206,37,39,37z"/></svg>