<?xml version="1.0" encoding="iso-8859-1"?><!-- Generator: Adobe Illustrator 21.1.0, SVG Export Plug-In . SVG Version: 6.00 Build 0)  --><svg xmlns="http://www.w3.org/2000/svg" xmlns:xlink="http://www.w3.org/1999/xlink" viewBox="0 0 50 50" width="50px" height="50px"><path d="M25,2C12.318,2,2,12.317,2,25s10.318,23,23,23s23-10.317,23-23S37.682,2,25,2z M32.113,10.589l1.075-1.791c0.284-0.474,0.897-0.627,1.372-0.343c0.474,0.284,0.627,0.898,0.343,1.372l-1.075,1.791c-0.188,0.313-0.519,0.485-0.858,0.485c-0.175,0-0.353-0.046-0.514-0.143C31.982,11.677,31.829,11.063,32.113,10.589z M24,6.895c0-0.553,0.448-1,1-1s1,0.447,1,1v2.06c0,0.553-0.448,1-1,1s-1-0.447-1-1V6.895z M8.561,15.335c0.284-0.475,0.898-0.628,1.372-0.343l1.791,1.074c0.474,0.284,0.627,0.898,0.343,1.372c-0.188,0.313-0.519,0.485-0.858,0.485c-0.175,0-0.353-0.046-0.513-0.143l-1.791-1.074C8.43,16.423,8.276,15.809,8.561,15.335z M6,24.895c0-0.553,0.448-1,1-1h2.06c0.552,0,1,0.447,1,1s-0.448,1-1,1H7C6.448,25.895,6,25.447,6,24.895z M11.724,33.722l-1.791,1.075c-0.161,0.097-0.338,0.143-0.514,0.143c-0.34,0-0.671-0.173-0.858-0.485c-0.284-0.474-0.131-1.088,0.343-1.372l1.791-1.075c0.473-0.284,1.088-0.131,1.372,0.343C12.351,32.823,12.197,33.438,11.724,33.722z M17.544,11.961c-0.161,0.097-0.338,0.143-0.514,0.143c-0.34,0-0.671-0.173-0.858-0.485l-1.075-1.791c-0.284-0.474-0.131-1.088,0.343-1.372c0.474-0.283,1.088-0.131,1.372,0.343l1.075,1.791C18.171,11.063,18.018,11.677,17.544,11.961z M26.85,27.373C26.345,27.763,25.712,28,25,28c-1.7,0-3-1.3-3-3c0-1.351,0.827-2.437,2.016-2.831l-0.004-0.007l17.307-6.67L26.856,27.384L26.85,27.373z M41.439,34.454c-0.188,0.313-0.519,0.485-0.858,0.485c-0.175,0-0.353-0.046-0.514-0.143l-1.791-1.075c-0.474-0.284-0.627-0.898-0.343-1.372c0.284-0.474,0.898-0.628,1.372-0.343l1.791,1.075C41.57,33.366,41.724,33.98,41.439,34.454z M43,25.895h-2.06c-0.552,0-1-0.447-1-1s0.448-1,1-1H43c0.552,0,1,0.447,1,1S43.552,25.895,43,25.895z"/></svg>