<?xml version="1.0" encoding="iso-8859-1"?>
<!-- Generator: Adobe Illustrator 23.0.3, SVG Export Plug-In . SVG Version: 6.00 Build 0)  -->
<svg version="1.1" xmlns="http://www.w3.org/2000/svg" xmlns:xlink="http://www.w3.org/1999/xlink" x="0px" y="0px"
	 viewBox="0 0 50 50" style="enable-background:new 0 0 50 50;" xml:space="preserve">
<g id="filled">
</g>
<g id="outlined">
</g>
<g id="rounded">
</g>
<g id="two_x5F_tone">
</g>
<g id="sharp">
</g>
<g id="win10">
</g>
<g id="ios_x5F_out">
</g>
<g id="ios_x5F_filled">
	<path d="M15.219,19c-1.723,0-3.336,0.883-4.25,2.344l-3.563,5.719l-3.125,0.469C1.824,27.883,0,29.988,0,32.469V39
		c0,1.645,1.355,3,3,3h2.094C5.57,44.836,8.035,47,11,47s5.43-2.164,5.906-5h16.188c0.477,2.836,2.941,5,5.906,5s5.43-2.164,5.906-5
		H47c1.645,0,2.991-1.347,2.991-2.991L50,33.375c0-2.438-1.785-4.504-4.188-4.906l-8.25-1.406L33,21c-0.945-1.258-2.426-2-4-2
		H15.219z M11,37c2.223,0,4,1.777,4,4s-1.777,4-4,4s-4-1.777-4-4S8.777,37,11,37z M39,37c2.223,0,4,1.777,4,4s-1.777,4-4,4
		s-4-1.777-4-4S36.777,37,39,37z"/>
	<path d="M44,9c0,0,0,6-6,6c0,0-1-11-8-13c0,0,0,6-4,10c-1.7,1.7-2.15,3.61-2.2,5h4.89c0.258-2.047,2.169-4.083,3.087-5.606
		c0.18-0.298,0.594-0.317,0.815-0.048c1.413,1.726,2.241,6.543,2.64,8.764c0.078,0.435,0.429,0.762,0.867,0.816
		c1.589,0.193,4.327,0.32,6.202-1.163c0.329-0.26,0.812-0.065,0.825,0.354c0.041,1.317-0.247,3.571-2.277,5.472l4.5,0.77
		C47.73,23.33,51.45,16.45,44,9z"/>
</g>
<g id="color">
</g>
</svg>