<?xml version="1.0" encoding="iso-8859-1"?>
<!-- Generator: Adobe Illustrator 23.0.3, SVG Export Plug-In . SVG Version: 6.00 Build 0)  -->
<svg version="1.1" xmlns="http://www.w3.org/2000/svg" xmlns:xlink="http://www.w3.org/1999/xlink" x="0px" y="0px"
	 viewBox="0 0 50 50" style="enable-background:new 0 0 50 50;" xml:space="preserve">
<g id="fan_x5F_speed_x5F_filled">
	<g>
		<g>
			<path d="M33.54,20.009c2.289,0,3.085,1.554,4.642,1.864c1.124,0.224,2.312,0.003,3.351-0.482c1.393-0.651,2.486-2.28,3.017-3.723
				c0.237-0.645,0.367-1.334,0.367-2.022c0-0.285-0.022-0.569-0.068-0.85c-0.16-0.976-0.483-2.049-0.955-2.909
				c-0.599-1.09-1.435-1.944-2.351-2.79c-1.73-1.597-3.843-2.673-6.149-2.991c-0.34-0.047-0.68-0.07-1.019-0.07
				C28.55,6.036,24,10.974,24,16.797c0,1.224,0.214,2.391,0.576,3.486c-0.277-0.026-0.55-0.069-0.811-0.145
				c-1.98-0.539-3.757-1.522-3.757-3.678c0-2.289,1.554-3.085,1.864-4.642c0.224-1.124,0.003-2.312-0.482-3.351
				c-0.651-1.393-2.28-2.486-3.723-3.017c-0.645-0.237-1.334-0.367-2.022-0.367c-0.285,0-0.569,0.022-0.85,0.068
				c-0.976,0.16-2.049,0.483-2.909,0.955c-1.089,0.599-1.944,1.435-2.79,2.351c-1.597,1.73-2.673,3.843-2.991,6.149
				c-0.047,0.34-0.07,0.68-0.07,1.019C6.036,21.45,10.974,26,16.797,26c1.224,0,2.391-0.214,3.486-0.576
				c-0.026,0.277-0.069,0.55-0.145,0.811c-0.539,1.98-1.522,3.757-3.678,3.757c-2.289,0-3.085-1.554-4.642-1.864
				c-1.124-0.224-2.312-0.003-3.351,0.482c-1.393,0.651-2.486,2.28-3.017,3.723c-0.237,0.645-0.367,1.334-0.367,2.022
				c0,0.285,0.022,0.569,0.068,0.85c0.16,0.976,0.483,2.049,0.955,2.909c0.599,1.089,1.435,1.944,2.351,2.79
				c1.73,1.597,3.843,2.673,6.149,2.991c0.34,0.047,0.68,0.07,1.019,0.07C21.45,43.964,26,39.026,26,33.203
				c0-1.224-0.214-2.391-0.576-3.486c0.277,0.026,0.55,0.069,0.811,0.145c1.98,0.539,3.757,1.522,3.757,3.678
				c0,2.289-1.554,3.085-1.864,4.642c-0.224,1.124-0.003,2.312,0.482,3.351c0.651,1.393,2.28,2.486,3.723,3.017
				c0.645,0.237,1.334,0.367,2.022,0.367c0.285,0,0.569-0.022,0.85-0.068c0.976-0.16,2.049-0.483,2.909-0.955
				c1.089-0.599,1.944-1.435,2.79-2.351c1.597-1.73,2.673-3.843,2.991-6.149c0.047-0.34,0.07-0.68,0.07-1.019
				C43.964,28.55,39.026,24,33.203,24c-1.224,0-2.391,0.214-3.486,0.576c0.026-0.277,0.069-0.55,0.145-0.811
				C30.401,21.785,31.384,20.009,33.54,20.009z M25,27.277c-1.248,0-2.261-1.012-2.261-2.261c0-1.248,1.012-2.261,2.261-2.261
				s2.261,1.012,2.261,2.261C27.261,26.265,26.248,27.277,25,27.277z"/>
		</g>
	</g>
</g>
<g id="fan_x5F_speed_x5F_outlined">
</g>
<g id="fresh_x5F_air_x5F_outlined">
</g>
<g id="fresh_x5F_air_x5F_filled">
</g>
<g id="air_x5F_recirculation_x5F_outlined">
</g>
<g id="air_x5F_recirculation_x5F_filled">
</g>
<g id="fuel_x5F_filter_x5F_warning_x5F_outlined">
</g>
<g id="fuel_x5F_filter_x5F_warning_x5F_filled">
</g>
<g id="air_x5F_suspension_x5F_warning_x5F_outlined">
</g>
<g id="air_x5F_suspension_x5F_warning_x5F_filled">
</g>
<g id="convertible_x5F_roof_x5F_warning_x5F_outlined">
</g>
<g id="convertible_x5F_roof_x5F_warning_x5F_filled">
</g>
<g id="hill_x5F_descent_x5F_control_x5F_outlined">
</g>
<g id="hill_x5F_descent_x5F_control_x5F_filled">
</g>
<g id="steering_x5F_lock_x5F_warning_x5F_outlined">
</g>
<g id="steering_x5F_lock_x5F_warning_x5F_filled">
</g>
<g id="hazard_x5F_warning_x5F_flasher_x5F_outlined">
</g>
<g id="hazard_x5F_warning_x5F_flasher_x5F_filled">
</g>
<g id="horn_x5F_outlined">
</g>
<g id="horn_x5F_filled">
</g>
</svg>