<?xml version="1.0" encoding="iso-8859-1"?><!-- Generator: Adobe Illustrator 19.2.1, SVG Export Plug-In . SVG Version: 6.00 Build 0)  --><svg xmlns="http://www.w3.org/2000/svg" xmlns:xlink="http://www.w3.org/1999/xlink" viewBox="0 0 50 50" width="50px" height="50px"><polyline style="fill:none;stroke:#000000;stroke-width:2;stroke-linecap:round;stroke-linejoin:round;stroke-miterlimit:10;" points="23,47 23,25 36.636,13.727 33.818,10.909 37.273,8.273 31,3 "/><path style="fill:none;stroke:#000000;stroke-width:2;stroke-linejoin:round;stroke-miterlimit:10;" d="M33,42h6c0.552,0,1-0.448,1-1v-7h-8v7C32,41.552,32.448,42,33,42z"/><path style="fill:none;stroke:#000000;stroke-width:2;stroke-linejoin:round;stroke-miterlimit:10;" d="M40,39h7c0,0,0-3.607,0-14S38.636,9.424,36.14,7.307"/><polyline style="fill:none;stroke:#000000;stroke-width:2;stroke-linecap:round;stroke-linejoin:round;stroke-miterlimit:10;" points="24.47,19.714 13.364,13.727 16.182,10.909 12.727,8.273 19,3 "/><path style="fill:none;stroke:#000000;stroke-width:2;stroke-linejoin:round;stroke-miterlimit:10;" d="M10,39H3c0,0,0-3.607,0-14S11.364,9.424,13.86,7.307"/><polyline style="fill:none;stroke:#000000;stroke-width:2;stroke-linejoin:round;stroke-miterlimit:10;" points="10,19 10,47 40,47 40,19 "/><path style="fill:none;stroke:#000000;stroke-width:2;stroke-linejoin:round;stroke-miterlimit:10;" d="M25,18.412c0-1.924-6-7.048-6-15.412c0,0,2.153-1,6-1s6,1,6,1c0,8.364-8,16-8,22"/><path style="fill:none;stroke:#000000;stroke-width:2;stroke-linejoin:round;stroke-miterlimit:10;" d="M17,42h-6c-0.552,0-1-0.448-1-1v-7h8v7C18,41.552,17.552,42,17,42z"/><path style="fill:none;stroke:#000000;stroke-width:2;stroke-linejoin:round;stroke-miterlimit:10;" d="M39,27h-5c-0.552,0-1-0.448-1-1v-6h7v6C40,26.552,39.552,27,39,27z"/><circle cx="26.421" cy="27.803" r="1"/><circle cx="26.421" cy="32.803" r="1"/><circle cx="26.421" cy="37.803" r="1"/></svg>