<svg xmlns="http://www.w3.org/2000/svg"  viewBox="0 0 50 50" width="50px" height="50px"><path d="M 42 4 C 39.960938 4 38.296875 5.550781 38.0625 7.53125 C 35.507813 8.023438 33.765625 9.851563 32.59375 11.84375 C 30.273438 10.667969 27.703125 10 25 10 C 22.289063 10 19.699219 10.664063 17.375 11.84375 C 16.742188 10.972656 15.925781 10.375 15.03125 10.03125 C 14.101563 9.671875 13.058594 9.585938 11.9375 9.5 C 11.6875 7.535156 10.027344 6 8 6 C 5.800781 6 4 7.800781 4 10 C 4 12.199219 5.800781 14 8 14 C 9.683594 14 11.132813 12.949219 11.71875 11.46875 C 12.792969 11.554688 13.691406 11.667969 14.3125 11.90625 C 14.847656 12.113281 15.257813 12.394531 15.625 12.875 C 9.859375 16.648438 6 23.621094 6 30.6875 C 6 35.910156 8.222656 39.871094 11.71875 42.375 C 15.214844 44.878906 19.902344 46 25 46 C 30.097656 46 34.785156 44.878906 38.28125 42.375 C 41.777344 39.871094 44 35.910156 44 30.6875 C 44 23.605469 40.132813 16.609375 34.34375 12.84375 C 35.292969 11.199219 36.515625 9.882813 38.3125 9.5 C 38.910156 10.964844 40.332031 12 42 12 C 44.199219 12 46 10.199219 46 8 C 46 5.800781 44.199219 4 42 4 Z M 42 6 C 43.117188 6 44 6.882813 44 8 C 44 9.117188 43.117188 10 42 10 C 40.882813 10 40 9.117188 40 8 C 40 6.882813 40.882813 6 42 6 Z M 8 8 C 9.105469 8 9.984375 8.867188 10 9.96875 C 9.910156 10.152344 9.875 10.359375 9.90625 10.5625 C 9.664063 11.394531 8.917969 12 8 12 C 6.882813 12 6 11.117188 6 10 C 6 8.882813 6.882813 8 8 8 Z M 25 12 C 34.238281 12 42 21.332031 42 30.6875 C 42 35.363281 40.15625 38.578125 37.125 40.75 C 34.09375 42.921875 29.800781 44 25 44 C 20.199219 44 15.90625 42.921875 12.875 40.75 C 9.84375 38.578125 8 35.363281 8 30.6875 C 8 21.332031 15.761719 12 25 12 Z M 25 19 C 20.59375 19 17 22.59375 17 27 C 17 31.40625 20.59375 35 25 35 C 29.40625 35 33 31.40625 33 27 C 33 22.59375 29.40625 19 25 19 Z M 25 21 C 28.324219 21 31 23.675781 31 27 C 31 30.324219 28.324219 33 25 33 C 21.675781 33 19 30.324219 19 27 C 19 23.675781 21.675781 21 25 21 Z M 25 24 C 23.300781 24 22 25.300781 22 27 C 22 28.699219 23.300781 30 25 30 C 26.699219 30 28 28.699219 28 27 L 28 26.8125 C 27.800781 26.914063 27.605469 27 27.40625 27 C 26.707031 27 26.1875 26.511719 26.1875 25.8125 C 26.1875 25.3125 26.507813 24.886719 26.90625 24.6875 C 26.40625 24.289063 25.699219 24 25 24 Z M 17.40625 37.1875 C 16.960938 37.242188 16.605469 37.589844 16.542969 38.035156 C 16.476563 38.476563 16.714844 38.910156 17.125 39.09375 C 17.125 39.09375 20.699219 41 25 41 C 29.300781 41 32.875 39.09375 32.875 39.09375 C 33.367188 38.835938 33.554688 38.226563 33.296875 37.734375 C 33.039063 37.242188 32.429688 37.054688 31.9375 37.3125 C 31.9375 37.3125 28.699219 39 25 39 C 21.300781 39 18.0625 37.3125 18.0625 37.3125 C 17.890625 37.214844 17.695313 37.171875 17.5 37.1875 C 17.46875 37.1875 17.4375 37.1875 17.40625 37.1875 Z"/></svg>