<svg xmlns="http://www.w3.org/2000/svg"  viewBox="0 0 50 50" width="50px" height="50px"><path d="M 25 2 C 21.148207 2 18 5.1482075 18 9 C 18 10.071802 18.248319 11.089234 18.683594 12 L 8.8203125 12 A 1.0001 1.0001 0 0 0 7.8457031 12.775391 L 0.025390625 46.775391 A 1.0001 1.0001 0 0 0 1 48 L 49 48 A 1.0001 1.0001 0 0 0 49.974609 46.775391 L 42.154297 12.775391 A 1.0001 1.0001 0 0 0 41.179688 12 L 31.316406 12 C 31.751681 11.089234 32 10.071802 32 9 C 32 5.1482075 28.851793 2 25 2 z M 25 4 C 27.768207 4 30 6.2317925 30 9 C 30 10.140164 29.607697 11.164359 28.966797 12 L 21.033203 12 C 20.392303 11.164359 20 10.140164 20 9 C 20 6.2317925 22.231793 4 25 4 z M 9.6152344 14 L 40.382812 14 L 47.744141 46 L 2.2558594 46 L 9.6152344 14 z M 15.572266 22.380859 L 15.572266 36 L 17.789062 36 L 17.789062 32.578125 L 18.576172 31.789062 L 21.716797 36 L 24.398438 36 L 20.232422 30.388672 L 24.130859 26.177734 L 21.556641 26.177734 L 17.941406 30.183594 L 17.789062 30.183594 L 17.789062 22.380859 L 15.572266 22.380859 z M 29.115234 26.003906 C 26.620234 26.003906 25.072266 27.951266 25.072266 30.947266 C 25.072266 33.888266 26.610125 35.802734 29.078125 35.802734 C 30.437125 35.802734 31.501453 35.230594 32.064453 34.183594 L 32.216797 34.183594 L 32.216797 36.035156 C 32.216797 37.259156 31.3325 37.974609 29.8125 37.974609 C 28.5975 37.974609 27.810016 37.546 27.666016 36.875 L 25.439453 36.875 C 25.619453 38.556 27.263391 39.665969 29.775391 39.667969 C 32.627391 39.667969 34.435547 38.244422 34.435547 35.982422 L 34.435547 26.164062 L 32.296875 26.164062 L 32.296875 27.728516 L 32.146484 27.728516 C 31.609484 26.664516 30.447234 26.003906 29.115234 26.003906 z M 29.775391 27.888672 C 31.313391 27.888672 32.253906 29.078266 32.253906 30.947266 C 32.253906 32.815266 31.322391 33.996094 29.775391 33.996094 C 28.228391 33.996094 27.353516 32.815266 27.353516 30.947266 C 27.353516 29.077266 28.228391 27.888672 29.775391 27.888672 z"/></svg>