<svg xmlns="http://www.w3.org/2000/svg"  viewBox="0 0 50 50" width="50px" height="50px"><path d="M 48.78125 9.03125 L 16.53125 15.75 C 16.164063 15.300781 15.625 15 15 15 C 14.078125 15 13.292969 15.621094 13.0625 16.46875 L 0.78125 19.03125 L 1.21875 20.96875 L 8.03125 19.5625 C 3.003906 23.886719 0.09375 30.5 0.09375 30.5 L 1.90625 31.3125 C 1.90625 31.3125 5.414063 23.636719 10.6875 19.96875 C 11.628906 19.316406 12.601563 18.785156 13.625 18.4375 C 13.984375 18.78125 14.464844 19 15 19 C 15.738281 19 16.371094 18.597656 16.71875 18 C 17.652344 18.039063 18.617188 18.226563 19.625 18.625 C 22.996094 19.960938 26.9375 23.660156 31.125 31.375 C 33.65625 36.03125 36.042969 38.507813 38.4375 39.5 C 40.832031 40.492188 43.125 39.804688 44.8125 38.53125 C 48.1875 35.984375 49.9375 31.25 49.9375 31.25 L 48.0625 30.53125 C 48.0625 30.53125 46.277344 34.933594 43.625 36.9375 C 42.300781 37.9375 40.9375 38.371094 39.21875 37.65625 C 37.5 36.941406 35.292969 34.882813 32.875 30.4375 C 28.6875 22.726563 24.617188 18.601563 20.6875 16.90625 L 49.21875 10.96875 Z"/></svg>