<svg xmlns="http://www.w3.org/2000/svg"  viewBox="0 0 50 50" width="50px" height="50px"><path d="M 23.912109 2 L 20.283203 9 L 23 9 L 20.652344 14.5 L 29 6 L 25.195312 6 L 28.244141 2 L 23.912109 2 z M 12 5 A 1.0001 1.0001 0 0 0 11 6 L 11 11 L 10 11 A 1.0001 1.0001 0 0 0 9 12 L 9 21.234375 C 8.947426 21.202689 8.900655 21.175567 8.8457031 21.142578 C 8.1743324 20.739534 7.2915325 20.249366 6 20.072266 L 6 16 A 1.0001 1.0001 0 0 0 4.984375 14.986328 A 1.0001 1.0001 0 0 0 4 16 L 4 47 A 1.0001 1.0001 0 0 0 5 48 L 45 48 A 1.0001 1.0001 0 0 0 46 47 L 46 16 A 1.0001 1.0001 0 1 0 44 16 L 44 20.072266 C 42.706775 20.249269 41.822787 20.739463 41.150391 21.142578 C 41.097006 21.174583 41.051143 21.199689 41 21.230469 L 41 12 A 1.0001 1.0001 0 0 0 40 11 L 39 11 L 39 6 A 1.0001 1.0001 0 0 0 38 5 L 32 5 A 1.0001 1.0001 0 1 0 32 7 L 37 7 L 37 11 L 36 11 A 1.0001 1.0001 0 0 0 35 12 L 35 20.857422 C 34.213692 20.427787 33.182217 20 31.65625 20 C 29.78973 20 28.641931 20.642601 27.808594 21.142578 C 26.975257 21.642555 26.455321 22 24.988281 22 C 23.523481 22 23.006491 21.642601 22.173828 21.142578 C 21.341165 20.642555 20.193765 20 18.328125 20 C 16.813256 20 15.784098 20.422819 15 20.849609 L 15 12 A 1.0001 1.0001 0 0 0 14 11 L 13 11 L 13 7 L 18 7 A 1.0001 1.0001 0 1 0 18 5 L 12 5 z M 11 13 L 11.832031 13 A 1.0001 1.0001 0 0 0 12.158203 13 L 13 13 L 13 21.835938 C 12.641123 21.932215 12.234764 22 11.662109 22 C 11.404466 22 11.205938 21.976008 11 21.955078 L 11 13 z M 37 13 L 37.832031 13 A 1.0001 1.0001 0 0 0 38.158203 13 L 39 13 L 39 21.953125 C 38.791562 21.974579 38.589562 22 38.328125 22 C 37.760707 22 37.357049 21.932263 37 21.837891 L 37 13 z M 18.328125 22 C 19.793485 22 20.311944 22.357445 21.144531 22.857422 C 21.977118 23.357399 23.123081 24 24.988281 24 C 26.855241 24 28.004478 23.357445 28.837891 22.857422 C 29.671303 22.357399 30.18977 22 31.65625 22 C 33.12441 22 33.644516 22.357422 34.478516 22.857422 C 34.635751 22.951687 34.817737 23.051251 35 23.150391 L 35 33 A 1.0001 1.0001 0 0 0 36 34 L 40 34 A 1.0001 1.0001 0 0 0 41 33 L 41 23.458984 C 41.450422 23.265845 41.849381 23.054276 42.177734 22.857422 C 42.786528 22.492438 43.234871 22.207596 44 22.078125 L 44 46 L 6 46 L 6 22.080078 C 6.7619146 22.209766 7.209141 22.492862 7.8164062 22.857422 C 8.1461952 23.055404 8.5465311 23.266983 9 23.460938 L 9 33 A 1.0001 1.0001 0 0 0 10 34 L 14 34 A 1.0001 1.0001 0 0 0 15 33 L 15 23.144531 C 15.178039 23.047348 15.355808 22.949819 15.509766 22.857422 C 16.342853 22.357445 16.861645 22 18.328125 22 z M 13 23.875 L 13 32 L 11 32 L 11 23.970703 C 11.210427 23.989043 11.43027 24 11.662109 24 C 12.158428 24 12.597638 23.951141 13 23.875 z M 37 23.876953 C 37.399784 23.951892 37.835687 24 38.328125 24 C 38.563091 24 38.787015 23.989477 39 23.970703 L 39 32 L 37 32 L 37 23.876953 z M 37.984375 35.986328 A 1.0001 1.0001 0 0 0 37 37 L 37 39 L 35 39 A 1.0001 1.0001 0 1 0 35 41 L 37 41 L 37 43 A 1.0001 1.0001 0 1 0 39 43 L 39 41 L 41 41 A 1.0001 1.0001 0 1 0 41 39 L 39 39 L 39 37 A 1.0001 1.0001 0 0 0 37.984375 35.986328 z M 9 39 A 1.0001 1.0001 0 1 0 9 41 L 15 41 A 1.0001 1.0001 0 1 0 15 39 L 9 39 z"/></svg>