<svg xmlns="http://www.w3.org/2000/svg"  viewBox="0 0 50 50" width="50px" height="50px"><path d="M 41.984375 3 A 1.0001 1.0001 0 0 0 41.775391 3.0253906 C 41.775391 3.0253906 35.129686 4.4562511 31.292969 8.2929688 C 29.475625 10.110312 28.174023 11.927991 27.316406 13.445312 C 26.96501 14.067015 26.706551 14.621726 26.498047 15.128906 A 1.0001 1.0001 0 0 0 25.990234 14.990234 A 1.0001 1.0001 0 0 0 25.292969 16.707031 L 25.585938 17 L 15.292969 27.292969 A 1.0001 1.0001 0 0 0 15.292969 28.707031 L 15.585938 29 L 14 30.585938 L 13.707031 30.292969 A 1.0001 1.0001 0 0 0 12.292969 30.292969 L 8.5078125 34.078125 L 3.9648438 34.988281 A 1.0001 1.0001 0 0 0 3.1269531 35.472656 A 1.0001 1.0001 0 0 0 3.4316406 36.845703 L 13.292969 46.707031 A 1.0001 1.0001 0 0 0 14.980469 46.195312 L 15.921875 41.492188 L 19.707031 37.707031 A 1.0001 1.0001 0 0 0 19.707031 36.292969 L 19.414062 36 L 21 34.414062 L 21.292969 34.707031 A 1.0001 1.0001 0 0 0 22.707031 34.707031 L 33 24.414062 L 33.292969 24.707031 A 1.0001 1.0001 0 0 0 34.873047 23.501953 C 35.379822 23.293525 35.933646 23.034616 36.554688 22.683594 C 38.07201 21.825977 39.889688 20.524375 41.707031 18.707031 C 45.543749 14.870314 46.974609 8.2246094 46.974609 8.2246094 A 1.0001 1.0001 0 0 0 46.707031 7.2929688 L 44.763672 5.3515625 A 1.0001 1.0001 0 0 0 44.707031 5.2929688 L 42.707031 3.2929688 A 1.0001 1.0001 0 0 0 41.984375 3 z M 41.724609 5.1386719 L 43.244141 6.65625 A 1.0001 1.0001 0 0 0 43.292969 6.7070312 L 44.861328 8.2753906 C 44.65704 9.0586554 43.235012 14.350925 40.292969 17.292969 C 38.610312 18.975625 36.92799 20.174023 35.570312 20.941406 C 34.891475 21.325098 34.292936 21.600729 33.830078 21.773438 C 33.635659 21.845982 33.476481 21.886453 33.335938 21.921875 L 28.087891 16.673828 C 28.119491 16.524111 28.121662 16.451065 28.226562 16.169922 C 28.399272 15.707064 28.674902 15.108526 29.058594 14.429688 C 29.825977 13.07201 31.024375 11.389688 32.707031 9.7070312 C 35.649075 6.7649878 40.941345 5.3429602 41.724609 5.1386719 z M 38.878906 8.0058594 C 38.078 8.0058594 37.27717 8.3087679 36.671875 8.9140625 L 30.292969 15.292969 A 1.0001 1.0001 0 0 0 30.292969 16.707031 L 33.292969 19.707031 A 1.0001 1.0001 0 0 0 34.707031 19.707031 L 41.085938 13.328125 C 42.101506 12.312556 42.067269 10.817985 41.378906 9.625 A 1.0001 1.0001 0 0 0 41.085938 8.9140625 C 40.480643 8.3087679 39.679812 8.0058594 38.878906 8.0058594 z M 38.878906 9.9941406 C 39.164 9.9941406 39.44917 10.10542 39.671875 10.328125 C 40.117286 10.773536 40.117286 11.468652 39.671875 11.914062 L 34 17.585938 L 32.414062 16 L 38.085938 10.328125 C 38.308642 10.10542 38.593812 9.9941406 38.878906 9.9941406 z M 27 18.414062 L 31.585938 23 L 22 32.585938 L 21.763672 32.351562 A 1.0001 1.0001 0 0 0 21.707031 32.292969 L 17.755859 28.34375 A 1.0001 1.0001 0 0 0 17.707031 28.292969 L 17.414062 28 L 27 18.414062 z M 26.5 22 A 1.5 1.5 0 0 0 25 23.5 A 1.5 1.5 0 0 0 26.5 25 A 1.5 1.5 0 0 0 28 23.5 A 1.5 1.5 0 0 0 26.5 22 z M 17 30.414062 L 19.585938 33 L 18 34.585938 L 15.414062 32 L 17 30.414062 z M 13 32.414062 L 13.244141 32.65625 A 1.0001 1.0001 0 0 0 13.292969 32.707031 L 17.244141 36.65625 L 17.292969 36.707031 L 17.585938 37 L 14.292969 40.292969 A 1.0001 1.0001 0 0 0 14.019531 40.804688 L 13.386719 43.972656 L 6.0273438 36.613281 L 8.671875 36.085938 L 11.292969 38.707031 A 1.0001 1.0001 0 1 0 12.707031 37.292969 L 10.414062 35 L 13 32.414062 z"/></svg>