<?xml version="1.0" encoding="iso-8859-1"?><!-- Generator: Adobe Illustrator 21.1.0, SVG Export Plug-In . SVG Version: 6.00 Build 0)  --><svg xmlns="http://www.w3.org/2000/svg" xmlns:xlink="http://www.w3.org/1999/xlink" viewBox="0 0 50 50" width="50px" height="50px"><g><g><polygon points="41.087,0 19,22 26,22 17,33 22,33 11.087,50 33,28 27,28 36,17 30,17 "/><g><path d="M12.411,44.235l1.083-1.687C7.784,38.79,4,32.332,4,25C4,13.42,13.42,4,25,4c2.733,0,5.339,0.541,7.736,1.495l1.54-1.534C31.437,2.704,28.3,2,25,2C12.318,2,2,12.318,2,25C2,33.038,6.147,40.121,12.411,44.235z"/><path d="M39.039,6.801l-1.103,1.691C42.836,12.34,46,18.301,46,25c0,11.58-9.42,21-21,21c-2.15,0-4.225-0.328-6.179-0.931l-1.576,1.582C19.669,47.522,22.28,48,25,48c12.682,0,23-10.318,23-23C48,17.601,44.484,11.011,39.039,6.801z"/></g></g></g></svg>