<?xml version="1.0"?><svg xmlns="http://www.w3.org/2000/svg"  viewBox="0 0 50 50" width="50px" height="50px">    <path d="M 13.878906 11.955078 C 13.565107 11.96222 13.247141 11.978406 12.923828 12.003906 C 9.3708281 12.278906 5.8341562 13.687359 2.4101562 16.193359 L 3.5917969 17.806641 C 6.7097969 15.524641 9.902125 14.242094 13.078125 13.996094 C 17.682125 13.634094 21.187391 15.439797 24.900391 17.341797 C 28.452391 19.161797 32.115516 21.037109 36.853516 21.037109 C 37.249516 21.037109 37.654359 21.025047 38.068359 20.998047 C 41.301359 20.783047 44.483391 19.723562 47.525391 17.851562 L 46.476562 16.148438 C 43.714562 17.849438 40.841547 18.810906 37.935547 19.003906 C 33.154547 19.318906 29.586453 17.4965 25.814453 15.5625 C 22.254766 13.737187 18.585896 11.84795 13.878906 11.955078 z M 2 27 L 2 29 L 48 29 L 48 27 L 2 27 z M 2 36 L 2 38 L 48 38 L 48 36 L 2 36 z"/></svg>