<svg xmlns="http://www.w3.org/2000/svg"  viewBox="0 0 50 50" width="50px" height="50px"><path d="M 25 3 C 18.936593 3 14 7.9365932 14 14 C 14 15.272299 14.228308 16.491932 14.626953 17.630859 C 13.223774 19.182923 12.161124 21.043636 11.5625 23.105469 C 6.1733423 23.812582 2 28.424972 2 34 C 2 40.063407 6.9365932 45 13 45 C 16.583264 45 19.761385 43.267829 21.769531 40.607422 C 22.808622 40.854185 23.886441 41 25 41 C 26.112495 41 27.194651 40.863437 28.234375 40.617188 C 30.244775 43.272871 33.421658 45 37 45 C 43.063291 45 48 40.063287 48 34 C 48 28.425028 43.822906 23.813875 38.4375 23.105469 C 37.83909 21.038374 36.786725 19.164303 35.380859 17.611328 C 35.775078 16.478033 36 15.264897 36 14 C 36 7.9365932 31.063407 3 25 3 z M 25 5 C 29.982593 5 34 9.0174068 34 14 C 34 14.71673 33.907243 15.4081 33.75 16.074219 C 31.351337 14.150864 28.307855 13 25 13 C 21.690781 13 18.650687 14.159537 16.251953 16.085938 C 16.092944 15.416315 16 14.720866 16 14 C 16 9.0174068 20.017407 5 25 5 z M 25 15 C 28.285942 15 31.253282 16.321869 33.417969 18.455078 A 1.0001 1.0001 0 0 0 33.619141 18.662109 C 34.812525 19.895761 35.743266 21.381348 36.322266 23.035156 C 30.574683 23.388318 26 28.165421 26 34 C 26 35.724527 26.410044 37.352048 27.121094 38.806641 C 26.432481 38.929625 25.725488 39 25 39 C 23.863661 39 22.769457 38.832624 21.728516 38.539062 A 1.0001 1.0001 0 0 0 21.714844 38.535156 A 1.0001 1.0001 0 0 0 21.519531 38.484375 C 16.584606 36.995943 13 32.427788 13 27 C 13 26.129163 13.098223 25.282461 13.273438 24.464844 A 1.0004582 1.0004582 0 0 0 13.376953 24.060547 C 13.892291 22.009663 14.925156 20.169846 16.341797 18.693359 A 1.0001 1.0001 0 0 0 16.345703 18.689453 A 1.0001 1.0001 0 0 0 16.605469 18.421875 C 18.767884 16.30567 21.727067 15 25 15 z M 37 25 C 37.199232 25 37.393893 25.016644 37.589844 25.029297 C 42.294262 25.333066 46 29.216824 46 34 C 46 38.982408 41.982411 43 37 43 C 33.925638 43 31.222075 41.467131 29.599609 39.125 A 1.0001 1.0001 0 0 0 29.371094 38.769531 A 1.0001 1.0001 0 0 0 29.369141 38.767578 C 28.505481 37.385337 28 35.755143 28 34 C 28 29.017592 32.017589 25 37 25 z M 11.128906 25.205078 C 11.053019 25.794207 11 26.390533 11 27 C 11 32.855566 14.61498 37.876152 19.728516 39.962891 C 18.081189 41.821716 15.686437 43 13 43 C 8.0174068 43 4 38.982593 4 34 C 4 29.661547 7.0550202 26.06524 11.128906 25.205078 z"/></svg>