<svg xmlns="http://www.w3.org/2000/svg"  viewBox="0 0 50 50" width="50px" height="50px"><path d="M 32.25 5 C 30.632813 5.070313 29.039063 5.523438 27.46875 6.21875 C 23.285156 8.074219 19.15625 11.632813 14.84375 14.78125 C 11.960938 16.886719 9.574219 18.644531 7.84375 20.53125 C 6.113281 22.417969 5.042969 24.484375 5 26.96875 C 4.964844 29.191406 5.699219 31.679688 7.25 34.6875 C 9.730469 39.496094 15.171875 42.957031 21 44.34375 C 26.828125 45.730469 33.191406 45.019531 37.34375 40.9375 C 42.0625 36.292969 44.945313 28.785156 45 21.6875 C 45.039063 16.652344 43.609375 11.773438 40.1875 8.40625 C 38.15625 6.40625 36.042969 5.335938 33.875 5.0625 C 33.332031 4.992188 32.789063 4.976563 32.25 5 Z M 32.3125 7 C 32.742188 6.980469 33.167969 7.007813 33.59375 7.0625 C 35.292969 7.277344 36.988281 8.082031 38.78125 9.84375 C 41.707031 12.722656 43.035156 17.039063 43 21.6875 C 42.949219 28.242188 40.167969 35.367188 35.9375 39.53125 C 32.4375 42.972656 26.824219 43.683594 21.46875 42.40625 C 16.113281 41.128906 11.132813 37.859375 9.03125 33.78125 C 7.566406 30.941406 6.972656 28.777344 7 27.03125 C 7.03125 25.082031 7.78125 23.539063 9.3125 21.875 C 10.84375 20.210938 13.15625 18.476563 16.03125 16.375 C 20.421875 13.167969 24.527344 9.726563 28.28125 8.0625 C 29.6875 7.4375 31.019531 7.054688 32.3125 7 Z M 30 11 C 29.449219 11 29 11.449219 29 12 C 29 12.550781 29.449219 13 30 13 C 30.550781 13 31 12.550781 31 12 C 31 11.449219 30.550781 11 30 11 Z M 35.5 13 C 34.671875 13 34 13.671875 34 14.5 C 34 15.328125 34.671875 16 35.5 16 C 36.328125 16 37 15.328125 37 14.5 C 37 13.671875 36.328125 13 35.5 13 Z M 25.9375 17 C 24.839844 17.066406 23.820313 17.242188 22.875 17.5 C 22.179688 17.6875 21.519531 17.898438 20.90625 18.15625 C 20.886719 18.164063 20.863281 18.179688 20.84375 18.1875 C 20.503906 18.332031 20.1875 18.496094 19.875 18.65625 C 19.820313 18.683594 19.773438 18.722656 19.71875 18.75 C 18.789063 19.234375 17.980469 19.773438 17.28125 20.3125 C 17.246094 20.339844 17.21875 20.378906 17.1875 20.40625 C 15.289063 21.894531 14.269531 23.316406 14.1875 23.4375 C 13.914063 23.722656 13.835938 24.140625 13.988281 24.507813 C 14.136719 24.871094 14.488281 25.113281 14.882813 25.125 C 15.277344 25.136719 15.640625 24.917969 15.8125 24.5625 C 15.8125 24.5625 16.042969 24.304688 16.15625 24.15625 C 16.925781 23.433594 17.46875 24.21875 17.46875 24.21875 C 17.71875 24.539063 17.691406 24.996094 17.4375 25.3125 C 17.394531 25.367188 17.324219 25.414063 17.28125 25.46875 C 15.632813 27.601563 15.03125 29.71875 15.03125 29.71875 C 14.890625 30.226563 15.160156 30.757813 15.65625 30.9375 C 15.679688 30.945313 15.695313 30.960938 15.71875 30.96875 C 15.757813 30.980469 15.800781 30.992188 15.84375 31 C 15.894531 31.007813 15.949219 31 16 31 C 16.085938 31 16.167969 30.988281 16.25 30.96875 C 16.273438 30.964844 16.292969 30.945313 16.3125 30.9375 C 16.480469 30.882813 16.632813 30.785156 16.75 30.65625 C 16.773438 30.628906 16.792969 30.59375 16.8125 30.5625 C 16.878906 30.476563 16.933594 30.382813 16.96875 30.28125 C 16.96875 30.28125 16.988281 30.144531 17.0625 29.9375 C 17.132813 29.746094 17.261719 29.476563 17.40625 29.15625 C 17.410156 29.148438 17.402344 29.132813 17.40625 29.125 C 17.558594 28.789063 17.753906 28.417969 18 28 C 18.128906 27.777344 18.25 27.578125 18.40625 27.34375 C 18.554688 27.125 18.699219 26.910156 18.875 26.6875 C 19.40625 26 20.054688 25.335938 20.84375 24.75 C 21.621094 24.171875 22.519531 23.691406 23.59375 23.375 C 24.320313 23.167969 25.140625 23.023438 26.03125 23 C 26.386719 22.984375 26.707031 22.785156 26.875 22.46875 C 26.882813 22.457031 26.898438 22.449219 26.90625 22.4375 C 26.917969 22.417969 26.929688 22.394531 26.9375 22.375 C 26.941406 22.367188 26.933594 22.351563 26.9375 22.34375 C 26.9375 22.332031 26.9375 22.324219 26.9375 22.3125 C 26.945313 22.292969 26.964844 22.269531 26.96875 22.25 C 26.992188 22.160156 27.003906 22.0625 27 21.96875 C 27 21.957031 27 21.949219 27 21.9375 C 26.992188 21.808594 26.960938 21.679688 26.90625 21.5625 C 26.890625 21.527344 26.863281 21.5 26.84375 21.46875 C 26.800781 21.398438 26.746094 21.335938 26.6875 21.28125 C 26.675781 21.269531 26.667969 21.257813 26.65625 21.25 C 26.625 21.226563 26.59375 21.207031 26.5625 21.1875 C 26.539063 21.171875 26.523438 21.140625 26.5 21.125 C 26.480469 21.113281 26.457031 21.101563 26.4375 21.09375 C 26.429688 21.089844 26.414063 21.097656 26.40625 21.09375 C 26.355469 21.070313 26.304688 21.046875 26.25 21.03125 C 26.238281 21.027344 26.230469 21.035156 26.21875 21.03125 C 26.136719 21.011719 26.054688 21 25.96875 21 C 25.589844 21.011719 25.230469 21.050781 24.875 21.09375 C 24.519531 21.136719 24.175781 21.179688 23.84375 21.25 C 23.578125 21.308594 23.3125 21.363281 23.0625 21.4375 C 22.960938 21.46875 22.878906 21.53125 22.78125 21.5625 C 22.480469 21.660156 22.183594 21.757813 21.90625 21.875 C 21.753906 21.9375 21.617188 22.023438 21.46875 22.09375 C 21.367188 22.140625 21.253906 22.167969 21.15625 22.21875 C 20.796875 22.40625 20.449219 22.597656 20.125 22.8125 C 20.082031 22.839844 20.042969 22.875 20 22.90625 C 19.628906 23.164063 19.121094 23.105469 18.84375 22.75 C 18.539063 22.359375 18.628906 21.78125 19.03125 21.5 C 19.535156 21.144531 20.101563 20.789063 20.71875 20.46875 C 20.878906 20.386719 21.050781 20.328125 21.21875 20.25 C 22.277344 19.753906 23.484375 19.332031 24.84375 19.125 C 25.238281 19.066406 25.644531 19.027344 26.0625 19 C 26.613281 18.964844 27.035156 18.488281 27 17.9375 C 27 17.925781 27 17.917969 27 17.90625 C 26.988281 17.785156 26.957031 17.671875 26.90625 17.5625 C 26.898438 17.550781 26.882813 17.542969 26.875 17.53125 C 26.820313 17.425781 26.746094 17.328125 26.65625 17.25 C 26.644531 17.238281 26.636719 17.226563 26.625 17.21875 C 26.429688 17.0625 26.1875 16.984375 25.9375 17 Z M 34.5 20 C 33.96875 20.058594 33.441406 20.269531 33 20.625 C 31.828125 21.566406 31.691406 23.347656 32.6875 24.46875 L 32.6875 24.5 L 34.03125 26.0625 L 34.0625 26.0625 L 34.0625 26.09375 C 35.085938 27.210938 36.820313 27.324219 38 26.375 C 39.171875 25.433594 39.308594 23.652344 38.3125 22.53125 L 38.3125 22.5 L 36.96875 20.9375 L 36.9375 20.9375 L 36.9375 20.90625 C 36.425781 20.347656 35.738281 20.050781 35.03125 20 C 34.855469 19.988281 34.675781 19.980469 34.5 20 Z M 34.53125 22.03125 C 34.855469 21.949219 35.257813 22.050781 35.46875 22.28125 L 36.8125 23.84375 C 37.09375 24.152344 37.089844 24.539063 36.75 24.8125 C 36.410156 25.085938 35.8125 25.023438 35.53125 24.71875 L 34.1875 23.15625 C 33.90625 22.847656 33.910156 22.460938 34.25 22.1875 C 34.335938 22.121094 34.421875 22.058594 34.53125 22.03125 Z M 26.5 25 C 22.371094 25 19 28.371094 19 32.5 C 19 36.628906 22.371094 40 26.5 40 C 30.628906 40 34 36.628906 34 32.5 C 34 28.371094 30.628906 25 26.5 25 Z M 26.5 27 C 29.550781 27 32 29.449219 32 32.5 C 32 35.550781 29.550781 38 26.5 38 C 23.449219 38 21 35.550781 21 32.5 C 21 29.449219 23.449219 27 26.5 27 Z M 27 32 C 25.894531 32 25 32.894531 25 34 C 25 35.105469 25.894531 36 27 36 C 28.105469 36 29 35.105469 29 34 C 29 32.894531 28.105469 32 27 32 Z M 15 34 C 14.449219 34 14 34.449219 14 35 C 14 35.550781 14.449219 36 15 36 C 15.550781 36 16 35.550781 16 35 C 16 34.449219 15.550781 34 15 34 Z"/></svg>