<?xml version="1.0" encoding="utf-8"?><!-- Generator: Adobe Illustrator 17.1.0, SVG Export Plug-In . SVG Version: 6.00 Build 0)  --><!DOCTYPE svg PUBLIC "-//W3C//DTD SVG 1.0//EN" "http://www.w3.org/TR/2001/REC-SVG-20010904/DTD/svg10.dtd"><svg xmlns="http://www.w3.org/2000/svg" xmlns:xlink="http://www.w3.org/1999/xlink" viewBox="0 0 50 50" width="50px" height="50px"><path fill="none" stroke="#000000" stroke-width="2" stroke-linecap="round" stroke-linejoin="round" stroke-miterlimit="10" d="M29,8v2c4.7,0,11,4.1,11,15.5c0,5.1-1.8,12.5-7,12.5c-4.1,0-6.2-4.7-7.1-7c1.6-2.6,3.1-5.8,3.1-9.2c0-5.3-1.9-7.8-4-7.8s-4,2.5-4,7.8c0,3.3,1.5,6.6,3.1,9.2c-0.9,2.3-2.9,7-7.1,7c-5.2,0-7-7.4-7-12.5C10,14.1,16.3,10,21,10V8C7.1,8,4,18,4,25.5C4,37.3,12.2,41,16.4,41c4.6,0,7.7-2,8.6-5.1c0.9,3.1,4,5.1,8.6,5.1C37.8,41,46,37.3,46,25.5C46,18,42.9,8,29,8z"/></svg>