<svg xmlns="http://www.w3.org/2000/svg"  viewBox="0 0 50 50" width="50px" height="50px"><path d="M 17.75 8 C 14.011905 8 11.186064 9.3518521 8.7578125 10.613281 C 6.329561 11.874711 4.3075397 13 2 13 L 1 13 L 1 15 L 2 15 C 4.9424603 15 7.295439 13.625289 9.6796875 12.386719 C 12.063936 11.148148 14.488095 10 17.75 10 C 21.705487 10 26.464618 11.216375 31.107422 12.464844 C 35.750226 13.713312 40.261905 15 44 15 L 44 17 C 45.667 16 47.333 15 49 14 C 47.333 13 45.667 12 44 11 L 44 13 C 40.738095 13 36.281149 11.786688 31.626953 10.535156 C 26.972757 9.2836248 22.106513 8 17.75 8 z M 17.75 15 C 14.011905 15 11.186064 16.351852 8.7578125 17.613281 C 6.329561 18.874711 4.3075397 20 2 20 L 1 20 L 1 22 L 2 22 C 4.9424603 22 7.295439 20.625289 9.6796875 19.386719 C 12.063936 18.148148 14.488095 17 17.75 17 C 21.705487 17 26.464618 18.216375 31.107422 19.464844 C 35.750226 20.713312 40.261905 22 44 22 L 44 24 C 45.667 23 47.333 22 49 21 C 47.333 20 45.667 19 44 18 L 44 20 C 40.738095 20 36.281149 18.786688 31.626953 17.535156 C 26.972757 16.283625 22.106513 15 17.75 15 z M 16.875 21 C 12.526 21 9 23.462 9 26.5 C 9 29.538 12.526 32 16.875 32 C 26.5 32 37 26.5 37 26.5 C 37 26.5 26.5 21 16.875 21 z M 16.875 23 C 22.405 23 28.345859 24.969 32.130859 26.5 C 28.346859 28.031 22.405 30 16.875 30 C 13.413 30 11 28.155 11 26.5 C 11 24.845 13.413 23 16.875 23 z M 44 29 L 44 31 C 40.261905 31 35.750226 32.286688 31.107422 33.535156 C 26.464618 34.783625 21.705487 36 17.75 36 C 14.488095 36 12.063936 34.851852 9.6796875 33.613281 C 7.295439 32.374711 4.9424603 31 2 31 L 1 31 L 1 33 L 2 33 C 4.3075397 33 6.329561 34.125289 8.7578125 35.386719 C 11.186064 36.648148 14.011905 38 17.75 38 C 22.106513 38 26.972757 36.716375 31.626953 35.464844 C 36.281149 34.213312 40.738095 33 44 33 L 44 35 C 45.667 34 47.333 33 49 32 C 47.333 31 45.667 30 44 29 z M 44 36 L 44 38 C 40.261905 38 35.750226 39.286688 31.107422 40.535156 C 26.464618 41.783625 21.705487 43 17.75 43 C 14.488095 43 12.063936 41.851852 9.6796875 40.613281 C 7.295439 39.374711 4.9424603 38 2 38 L 1 38 L 1 40 L 2 40 C 4.3075397 40 6.329561 41.125289 8.7578125 42.386719 C 11.186064 43.648148 14.011905 45 17.75 45 C 22.106513 45 26.972757 43.716375 31.626953 42.464844 C 36.281149 41.213312 40.738095 40 44 40 L 44 42 C 45.667 41 47.333 40 49 39 C 47.333 38 45.667 37 44 36 z"/></svg>