<?xml version="1.0" encoding="utf-8"?><!-- Generator: Adobe Illustrator 17.1.0, SVG Export Plug-In . SVG Version: 6.00 Build 0)  --><!DOCTYPE svg PUBLIC "-//W3C//DTD SVG 1.0//EN" "http://www.w3.org/TR/2001/REC-SVG-20010904/DTD/svg10.dtd"><svg xmlns="http://www.w3.org/2000/svg" xmlns:xlink="http://www.w3.org/1999/xlink" viewBox="0 0 50 50" width="50px" height="50px"><path fill="none" stroke="#000000" stroke-width="2" stroke-linecap="round" stroke-linejoin="round" stroke-miterlimit="10" d="M11,7h6c0,0,0,11.6,0,18.9c0,3.3,2.1,5.5,5.7,5.5c1.1,0,2.4-1.2,3.6-2.4c1.2-1.2,2.7-3,2.7-5.3C29,17.9,29,7,29,7h6c0,0,0,8.5,0,20.3c0,2.2,0.4,4.7,2.5,4.7c2.3,0,3.5-5,3.5-5h2c0,0-0.4,8-7,8c-3.7,0-5.3-0.9-6.7-5.5c0,0-2.6,2.8-4.1,4c-1.2,1-2.7,1.8-4.6,1.8c-1.6,0-4.2-0.7-6.3-2c0,4.6,0.8,8.3,0.8,11.8c0,1.9-0.8,3.9-3,3.9c-2,0-3-1.7-3-3.9c0-2.9,2-9.4,2-16.4C11,18.9,11,7,11,7z"/></svg>