<svg xmlns="http://www.w3.org/2000/svg"  viewBox="0 0 50 50" width="50px" height="50px"><path d="M 25 4 C 18.936709 4 14 8.9367135 14 15 C 14 21.063287 18.936709 26 25 26 C 31.063291 26 36 21.063287 36 15 C 36 8.9367135 31.063291 4 25 4 z M 13.267578 4.1210938 C 10.621089 6.9744393 9 10.805017 9 15 C 9 17.272084 9.4750461 19.43989 10.332031 21.400391 L 12.164062 20.599609 C 11.415048 18.88611 11 16.993916 11 15 C 11 11.318983 12.414911 7.9810762 14.732422 5.4824219 L 13.267578 4.1210938 z M 36.925781 4.1347656 L 35.435547 5.46875 C 35.955609 6.0495012 36.426971 6.6748721 36.84375 7.3359375 L 38.535156 6.2695312 C 38.057935 5.5125967 37.51972 4.7980145 36.925781 4.1347656 z M 25 6 C 25.89276 6 26.753162 6.1345823 27.566406 6.375 C 26.603835 7.2880589 26 8.5756839 26 10 C 26 12.749516 28.250484 15 31 15 C 32.099732 15 33.116776 14.635617 33.945312 14.029297 C 33.979351 14.34846 34 14.671578 34 15 C 34 15.688845 33.917006 16.356107 33.771484 17 L 30 17 L 30 19 L 33.058594 19 C 31.588666 21.96428 28.54218 24 25 24 C 20.017589 24 16 19.982408 16 15 C 16 13.945884 16.188779 12.938835 16.519531 12 L 21 12 L 21 10 L 17.511719 10 C 19.12347 7.5865687 21.870605 6 25 6 z M 29.675781 7.3144531 C 31.361614 8.3401035 32.677935 9.900691 33.394531 11.767578 C 32.849099 12.506238 31.996893 13 31 13 C 29.331516 13 28 11.668484 28 10 C 28 8.8120073 28.687144 7.8024048 29.675781 7.3144531 z M 39.667969 8.4023438 L 37.835938 9.203125 C 38.584952 10.916624 39 12.808819 39 14.802734 C 39 18.483751 37.585089 21.821658 35.267578 24.320312 L 36.732422 25.679688 C 39.378911 22.826341 41 18.997718 41 14.802734 C 41 12.53065 40.524954 10.362845 39.667969 8.4023438 z M 21.5 14 C 20.416667 14 19.476892 14.442256 18.876953 15.117188 C 18.277014 15.792118 18 16.652778 18 17.5 C 18 18.347222 18.277014 19.207881 18.876953 19.882812 C 19.476892 20.557744 20.416667 21 21.5 21 C 22.583333 21 23.523108 20.557744 24.123047 19.882812 C 24.345264 19.63282 24.311213 19.290887 24.447266 19 L 28 19 L 28 17 L 24.816406 17 C 24.722801 16.332899 24.597132 15.650532 24.123047 15.117188 C 23.523108 14.442255 22.583333 14 21.5 14 z M 21.5 16 C 22.083333 16 22.393559 16.182744 22.626953 16.445312 C 22.860347 16.707881 23 17.097222 23 17.5 C 23 17.902778 22.860347 18.292119 22.626953 18.554688 C 22.393559 18.817256 22.083333 19 21.5 19 C 20.916667 19 20.606441 18.817256 20.373047 18.554688 C 20.139653 18.292119 20 17.902778 20 17.5 C 20 17.097222 20.139653 16.707881 20.373047 16.445312 C 20.606441 16.182744 20.916667 16 21.5 16 z M 13.15625 22.466797 L 11.464844 23.533203 C 11.942065 24.290138 12.48028 25.00472 13.074219 25.667969 L 14.564453 24.332031 C 14.044391 23.75128 13.573029 23.127862 13.15625 22.466797 z M 19.984375 27.820312 L 18.015625 28.179688 C 18.682599 31.846546 19.348599 35.512546 20.015625 39.179688 L 21.984375 38.820312 C 21.317401 35.153455 20.651401 31.487454 19.984375 27.820312 z M 30.015625 27.820312 C 29.348599 31.487454 28.682599 35.153455 28.015625 38.820312 L 29.984375 39.179688 C 30.651401 35.512546 31.317401 31.846546 31.984375 28.179688 L 30.015625 27.820312 z M 15.566406 28.970703 C 14.928782 29.276688 14.341671 29.627099 13.787109 30 L 7 30 C 5.3212443 30 4 31.442766 4 33.125 L 4 44.875 C 4 46.557234 5.3212443 48 7 48 L 43 48 C 44.678756 48 46 46.557234 46 44.875 L 46 33.125 C 46 31.442766 44.678756 30 43 30 L 36.212891 30 C 35.658351 29.627041 35.071152 29.276864 34.433594 28.970703 L 33.566406 30.773438 C 36.421012 32.144246 38 34.066558 38 36 C 38 37.736086 36.809935 39.14697 34.472656 40.251953 C 32.135377 41.356937 28.754688 42 25 42 C 21.245312 42 17.864623 41.356937 15.527344 40.251953 C 13.190065 39.14697 12 37.736086 12 36 C 12 34.066558 13.579327 32.143149 16.433594 30.773438 L 15.566406 28.970703 z M 24 29 L 24 40 L 26 40 L 26 29 L 24 29 z M 7 32 L 11.525391 32 C 10.564998 33.177352 10 34.526523 10 36 C 10 38.64274 11.891604 40.705416 14.558594 42 L 6 42 L 6 33.125 C 6 32.459234 6.4687557 32 7 32 z M 38.472656 32 L 43 32 C 43.531244 32 44 32.459234 44 33.125 L 44 42 L 35.441406 42 C 38.108396 40.705416 40 38.64274 40 36 C 40 34.525626 39.434161 33.177744 38.472656 32 z M 6 44 L 25 44 L 44 44 L 44 44.875 C 44 45.540766 43.531244 46 43 46 L 7 46 C 6.4687557 46 6 45.540766 6 44.875 L 6 44 z"/></svg>