<?xml version="1.0" encoding="utf-8"?><!-- Generator: Adobe Illustrator 18.1.1, SVG Export Plug-In . SVG Version: 6.00 Build 0)  --><svg xmlns="http://www.w3.org/2000/svg" xmlns:xlink="http://www.w3.org/1999/xlink" viewBox="0 0 50 50" width="50px" height="50px"><path fill="none" stroke="#000000" stroke-width="2" stroke-linejoin="round" stroke-miterlimit="10" d="M24,32c-0.1-1.5-0.6-2.9-1.9-4.1c-4.2-4.2-11.3,0-13.8,2.6c-3.1,3.1-3.1,8.1,0,11.2c0.3-0.2,0.7-0.3,1.1-0.3c1.3,0,2.4,1,2.6,2.3c2.6,0.7,5.5,0,7.6-2.1c1-1,2-2.3,2.9-3.8c-0.4-0.6-0.7-1.4-0.7-2.2C21.8,34,22.7,32.7,24,32z"/><line fill="none" stroke="#000000" stroke-width="2" stroke-linecap="round" stroke-miterlimit="10" x1="40" y1="19" x2="31" y2="28"/><line fill="none" stroke="#000000" stroke-width="2" stroke-linecap="round" stroke-miterlimit="10" x1="43" y1="7" x2="30" y2="20"/><circle cx="41" cy="27" r="1"/><circle cx="44" cy="24" r="1"/><circle cx="46" cy="13" r="1"/><circle cx="43" cy="16" r="1"/><line fill="none" stroke="#000000" stroke-width="2" stroke-linecap="round" stroke-miterlimit="10" x1="31" y1="10" x2="23" y2="18"/><circle cx="40" cy="1" r="1"/><circle cx="37" cy="4" r="1"/><circle cx="34" cy="7" r="1"/><circle cx="20" cy="21" r="1"/><circle cx="27" cy="23" r="1"/><circle cx="28" cy="31" r="1"/><circle cx="49" cy="10" r="1"/><circle cx="46" cy="4" r="1"/><circle cx="28" cy="4" r="1"/><circle cx="31" cy="1" r="1"/><circle cx="49" cy="1" r="1"/><path fill="none" stroke="#000000" stroke-width="2" stroke-linecap="round" stroke-linejoin="round" stroke-miterlimit="10" d="M14,31.5c1.4-0.5,3,0.2,3.5,1.6c0.4,1.2,0,2.4-1,3.1"/><path fill="none" stroke="#000000" stroke-width="2" stroke-linecap="round" stroke-linejoin="round" stroke-miterlimit="10" d="M24.8,6.8c0,0-18.2,18.2-20,20c-5.1,5.1-5.1,13.3,0,18.4c5.1,5.1,13.3,5.1,18.4,0c1.8-1.8,15-15,15-15"/></svg>