<?xml version="1.0" encoding="iso-8859-1"?>
<!-- Generator: Adobe Illustrator 27.0.0, SVG Export Plug-In . SVG Version: 6.00 Build 0)  -->
<svg version="1.1" baseProfile="basic" xmlns="http://www.w3.org/2000/svg" xmlns:xlink="http://www.w3.org/1999/xlink" x="0px"
	 y="0px" viewBox="0 0 50 50" xml:space="preserve">
<g id="Layer_1">
</g>
<g id="&#x421;&#x43B;&#x43E;&#x439;_1">
	<g>
		<path d="M37.375,2H12.844C9.656,2,7,4.852,7,8v34c0,1.863,0.922,3.391,2.094,4.406S11.68,48,13,48h24.375
			C40.465,48,43,45.465,43,42.375V7.625C43,4.535,40.465,2,37.375,2z M12.844,4h24.531C39.383,4,41,5.617,41,7.625v20.403
			c-8.708-6.771-19.7-11.162-32-12.785V8C9,6.051,10.938,4,12.844,4z M37.375,46H13c-0.68,0-1.766-0.379-2.594-1.094S9,43.215,9,42
			V17.26c12.43,1.684,23.45,6.276,32,13.341v11.774C41,44.387,39.387,46,37.375,46z"/>
		<path d="M30.594,28.151l-5.314-0.13l-2.905-4.451c-0.311-0.479-0.853-0.727-1.421-0.664c-0.565,0.068-1.034,0.444-1.223,0.981
			l-1.766,5.014l-5.134,1.388c-0.549,0.149-0.958,0.589-1.067,1.147c-0.11,0.558,0.103,1.119,0.555,1.465l4.223,3.229l-0.266,5.31
			c-0.029,0.569,0.263,1.095,0.761,1.371c0.227,0.127,0.475,0.189,0.723,0.189c0.295,0,0.588-0.089,0.842-0.265l4.376-3.018
			l4.966,1.893c0.531,0.205,1.122,0.09,1.539-0.298c0.418-0.387,0.576-0.967,0.414-1.512l-1.518-5.096l3.336-4.138
			c0.357-0.443,0.431-1.04,0.191-1.557C31.665,28.495,31.163,28.165,30.594,28.151z M26.65,33.662
			c-0.308,0.382-0.407,0.89-0.267,1.355l1.297,4.354l-4.245-1.618c-0.457-0.174-0.97-0.111-1.371,0.165l-3.739,2.579l0.227-4.535
			c0.026-0.489-0.192-0.959-0.581-1.255l-3.609-2.76l4.383-1.186c0.472-0.126,0.852-0.477,1.016-0.94l1.509-4.284l2.482,3.805
			c0.268,0.409,0.719,0.66,1.207,0.673l4.542,0.111L26.65,33.662z"/>
		<path d="M27.589,15.991l3.126,0.008l1.766,2.579c0.188,0.275,0.498,0.436,0.825,0.436c0.047,0,0.094-0.003,0.141-0.01
			c0.377-0.054,0.69-0.317,0.809-0.679l0.974-2.972l2.999-0.882c0.365-0.107,0.638-0.412,0.703-0.787
			c0.065-0.375-0.088-0.755-0.396-0.979l-2.524-1.843l0.088-3.125c0.011-0.381-0.195-0.734-0.532-0.912s-0.744-0.15-1.054,0.073
			L31.98,8.729l-2.945-1.05c-0.358-0.129-0.759-0.042-1.032,0.225c-0.273,0.265-0.372,0.662-0.255,1.024l0.958,2.976l-1.908,2.477
			c-0.232,0.302-0.273,0.709-0.105,1.051C26.861,15.773,27.208,15.99,27.589,15.991z M30.771,11.791l-0.498-1.547l1.531,0.546
			c0.31,0.109,0.655,0.062,0.921-0.132l1.317-0.952l-0.045,1.625c-0.009,0.329,0.144,0.642,0.41,0.836l1.312,0.958l-1.559,0.459
			c-0.316,0.093-0.565,0.335-0.668,0.647l-0.506,1.545l-0.918-1.341c-0.186-0.272-0.494-0.435-0.823-0.436l-1.625-0.004l0.992-1.288
			C30.813,12.447,30.873,12.104,30.771,11.791z"/>
	</g>
</g>
</svg>