<?xml version="1.0" encoding="iso-8859-1"?>
<!-- Generator: Adobe Illustrator 23.0.3, SVG Export Plug-In . SVG Version: 6.00 Build 0)  -->
<svg version="1.1" id="Layer_1" xmlns="http://www.w3.org/2000/svg" xmlns:xlink="http://www.w3.org/1999/xlink" x="0px" y="0px"
	 viewBox="0 0 50 50" style="enable-background:new 0 0 50 50;" xml:space="preserve">
<path style="fill:none;stroke:#000000;stroke-width:2;stroke-miterlimit:10;" d="M7,42.417V8c0-2.761,2.239-5,5-5
	c1.643,0,30.357,0,31,0v35c0,0-29.478,0-31,0C9.337,38,7,39.85,7,42.417S9.337,47,12,47c1.522,0,32,0,32,0"/>
<g>
	<g>
		<path style="fill:none;stroke:#000000;stroke-width:2;stroke-linecap:round;stroke-miterlimit:10;" d="M31,19c0-3.314-2.686-6-6-6
			s-6,2.686-6,6c0,2.22,1.208,4.153,3,5.191V27c0,1.105,0.895,2,2,2h2c1.105,0,2-0.895,2-2v-2.809C29.792,23.153,31,21.22,31,19z"/>
	</g>
</g>
<path d="M23,29h4c0,1.105-0.895,2-2,2S23,30.105,23,29z"/>
<line style="fill:none;stroke:#000000;stroke-width:2;stroke-linejoin:round;stroke-miterlimit:10;" x1="25" y1="24" x2="28" y2="24"/>
<circle cx="35" cy="19" r="1"/>
<circle cx="39" cy="19" r="1"/>
<circle cx="37" cy="26" r="1"/>
<circle cx="34" cy="14" r="1"/>
<circle cx="37" cy="12" r="1"/>
<circle cx="34" cy="24" r="1"/>
<circle cx="15" cy="19" r="1"/>
<circle cx="11" cy="19" r="1"/>
<circle cx="13" cy="26" r="1"/>
<circle cx="16" cy="14" r="1"/>
<circle cx="13" cy="12" r="1"/>
<circle cx="16" cy="24" r="1"/>
</svg>