<?xml version="1.0" encoding="utf-8"?><!-- Generator: Adobe Illustrator 17.1.0, SVG Export Plug-In . SVG Version: 6.00 Build 0)  --><!DOCTYPE svg PUBLIC "-//W3C//DTD SVG 1.0//EN" "http://www.w3.org/TR/2001/REC-SVG-20010904/DTD/svg10.dtd"><svg xmlns="http://www.w3.org/2000/svg" xmlns:xlink="http://www.w3.org/1999/xlink" viewBox="0 0 50 50" width="50px" height="50px"><path fill="none" stroke="#000000" stroke-width="2" stroke-linecap="round" stroke-linejoin="round" stroke-miterlimit="10" d="M42,1v11.5c-0.4,0-0.8,0-1.3,0c-0.6,0-0.8-0.2-0.9-0.7c-0.1-0.3-0.1-0.6-0.2-0.9c-1.2-4-1.8-6-7.7-6C27.5,5,19.2,5,18,5c-0.2,0-0.6,0.3-0.7,0.5c4.5,5.9,8.6,11.3,13.2,17.3L14.7,42c0,0,12.6,0,19.4,0c3.7,0.1,6.3-1.5,7.7-4.8c0.1-0.3,0.3-0.6,0.4-0.9c0.7-2.4,2.8-2,2.8-2L42.2,49c0,0-37.7,0-38.1,0s-1-0.3-1-0.6C9.7,40.5,16.1,32.9,22.8,25C16.2,16.9,3.1,1,3.1,1H42z"/></svg>