<svg xmlns="http://www.w3.org/2000/svg"  viewBox="0 0 50 50" width="50px" height="50px"><path d="M 6 2 C 2.699219 2 0 4.699219 0 8 L 0 37 C 0 40.300781 2.699219 43 6 43 L 50 43 L 50 7 L 11.796875 7 C 11.300781 4.191406 8.949219 2 6 2 Z M 6 4 C 8.21875 4 10 5.78125 10 8 L 10 32.546875 C 8.9375 31.589844 7.535156 31 6 31 C 4.464844 31 3.0625 31.589844 2 32.546875 L 2 8 C 2 5.78125 3.78125 4 6 4 Z M 12 9 L 48 9 L 48 41 L 6 41 C 3.78125 41 2 39.21875 2 37 C 2 34.78125 3.78125 33 6 33 C 8.21875 33 10 34.78125 10 37 L 12 37 Z M 35 15 L 37.792969 17.792969 L 32.5 23.085938 L 27.046875 17.628906 L 18.34375 25.25 L 19.65625 26.75 L 26.953125 20.371094 L 32.5 25.914063 L 39.207031 19.207031 L 42 22 L 42 15 Z M 17 32 L 17 34 L 42 34 L 42 32 Z"/></svg>