<svg xmlns="http://www.w3.org/2000/svg"  viewBox="0 0 50 50" width="50px" height="50px"><path d="M 9 4 C 6.2504839 4 4 6.2504839 4 9 L 4 41 C 4 43.749516 6.2504839 46 9 46 L 41 46 C 43.749516 46 46 43.749516 46 41 L 46 9 C 46 6.2504839 43.749516 4 41 4 L 9 4 z M 9 6 L 41 6 C 42.668484 6 44 7.3315161 44 9 L 44 41 C 44 42.668484 42.668484 44 41 44 L 9 44 C 7.3315161 44 6 42.668484 6 41 L 6 9 C 6 7.3315161 7.3315161 6 9 6 z M 16.5 10.900391 C 14.8 10.900391 13.4 11.6 12.5 13 C 11.6 14.4 11.099609 16.500781 11.099609 19.300781 C 11.099609 22.100781 11.6 24.099609 12.5 25.599609 C 13.5 27.099609 14.8 27.800781 16.5 27.800781 C 18.3 27.800781 19.699609 27.099219 20.599609 25.699219 C 21.499609 24.299219 22 22.200391 22 19.400391 C 22 16.700391 21.599609 14.599609 20.599609 13.099609 C 19.599609 11.599609 18.3 10.900391 16.5 10.900391 z M 31.300781 11 L 16 39 L 18.699219 39 L 34 11 L 31.300781 11 z M 16.5 13.300781 C 18.5 13.300781 19.5 15.4 19.5 19.5 C 19.5 23.6 18.5 25.699219 16.5 25.699219 C 15.5 25.699219 14.800781 25.099609 14.300781 24.099609 C 13.800781 22.999609 13.599609 21.500391 13.599609 19.400391 C 13.599609 17.300391 13.900781 15.700781 14.300781 14.800781 C 14.800781 13.800781 15.5 13.300781 16.5 13.300781 z M 33.5 22.199219 C 31.8 22.199219 30.4 22.900781 29.5 24.300781 C 28.6 25.700781 28.099609 27.799609 28.099609 30.599609 C 28.099609 33.299609 28.6 35.400781 29.5 36.800781 C 30.4 38.300781 31.8 39 33.5 39 C 35.3 39 36.699609 38.300391 37.599609 36.900391 C 38.499609 35.500391 39 33.399609 39 30.599609 C 39 27.899609 38.5 25.800781 37.5 24.300781 C 36.6 22.900781 35.2 22.199219 33.5 22.199219 z M 33.5 24.5 C 34.6 24.5 35.300781 25 35.800781 26 C 36.300781 27 36.5 28.499609 36.5 30.599609 C 36.5 32.699609 36.300781 34.300781 35.800781 35.300781 C 35.300781 36.300781 34.5 36.800781 33.5 36.800781 C 32.5 36.800781 31.800781 36.300781 31.300781 35.300781 C 30.800781 34.200781 30.599609 32.699609 30.599609 30.599609 C 30.599609 28.499609 30.800781 27 31.300781 26 C 31.700781 25 32.4 24.5 33.5 24.5 z"/></svg>