<svg xmlns="http://www.w3.org/2000/svg"  viewBox="0 0 50 50" width="50px" height="50px"><path d="M 22 3 C 21.449219 3 21 3.449219 21 4 L 21 7.632813 L 13.722656 12 L 12 12 C 11.449219 12 11 12.449219 11 13 L 11 17 C 11 17.550781 11.449219 18 12 18 L 12.5 18 L 12.5 44 L 11 44 L 11 46 L 37 46 L 37 44 L 35.5 44 L 35.5 18 L 36 18 C 36.550781 18 37 17.550781 37 17 L 37 13 C 37 12.449219 36.550781 12 36 12 L 34.277344 12 L 27 7.632813 L 27 4 C 27 3.449219 26.550781 3 26 3 Z M 23 5 L 25 5 L 25 7.5 L 23 7.5 Z M 21.808594 9.480469 C 21.871094 9.492188 21.9375 9.5 22 9.5 L 26 9.5 C 26.0625 9.5 26.128906 9.496094 26.191406 9.484375 L 30.390625 12 L 17.609375 12 Z M 13 14 L 35 14 L 35 16 L 13 16 Z M 14.5 18 L 33.5 18 L 33.5 44 L 14.5 44 Z M 18 20 C 17.449219 20 17 20.449219 17 21 L 17 26 C 17 26.550781 17.449219 27 18 27 L 22 27 C 22.550781 27 23 26.550781 23 26 L 23 21 C 23 20.449219 22.550781 20 22 20 Z M 26 20 C 25.449219 20 25 20.449219 25 21 L 25 26 C 25 26.550781 25.449219 27 26 27 L 30 27 C 30.550781 27 31 26.550781 31 26 L 31 21 C 31 20.449219 30.550781 20 30 20 Z M 19 22 L 21 22 L 21 25 L 19 25 Z M 27 22 L 29 22 L 29 25 L 27 25 Z M 18 29 C 17.449219 29 17 29.449219 17 30 L 17 35 L 19 35 L 19 31 L 22 31 L 22 29 Z M 26 29 C 25.449219 29 25 29.449219 25 30 L 25 35 L 27 35 L 27 31 L 30 31 L 30 29 Z M 18 37 C 17.449219 37 17 37.449219 17 38 L 17 43 L 19 43 L 19 39 L 22 39 L 22 37 Z M 26 37 C 25.449219 37 25 37.449219 25 38 L 25 43 L 27 43 L 27 39 L 30 39 L 30 37 Z"/></svg>