<svg xmlns="http://www.w3.org/2000/svg"  viewBox="0 0 50 50" width="50px" height="50px"><path d="M 25 1.90625 L 5 13.453125 L 5 36.546875 L 25 48.09375 L 45 36.546875 L 45 35.970703 L 45 13.453125 L 25 1.90625 z M 25 4.2148438 L 43 14.607422 L 43 35.392578 L 25 45.785156 L 7 35.392578 L 7 14.607422 L 25 4.2148438 z M 24.496094 6.6367188 L 9.4960938 15.386719 L 10.503906 17.113281 L 25.503906 8.3632812 L 24.496094 6.6367188 z M 39 16.25 L 39 33.75 L 41 33.75 L 41 16.25 L 39 16.25 z M 10.503906 32.886719 L 9.4960938 34.613281 L 24.496094 43.363281 L 25.503906 41.636719 L 10.503906 32.886719 z"/></svg>