<svg xmlns="http://www.w3.org/2000/svg"  viewBox="0 0 50 50" width="50px" height="50px"><path d="M 17.1875 1 C 14.242188 1 11.636719 1.925781 9.78125 3.78125 C 6.941406 6.621094 6.480469 11.074219 7.71875 15.875 L 5.28125 18.3125 C 4.890625 18.125 4.460938 18 4 18 C 2.355469 18 1 19.355469 1 21 C 1 22.644531 2.355469 24 4 24 C 5.644531 24 7 22.644531 7 21 C 7 20.539063 6.875 20.109375 6.6875 19.71875 L 8.375 18.03125 C 9.960938 22.492188 12.933594 27.210938 17.0625 31.53125 L 12.25 36.3125 C 11.863281 36.132813 11.449219 36 11 36 C 9.355469 36 8 37.355469 8 39 C 8 40.644531 9.355469 42 11 42 C 12.644531 42 14 40.644531 14 39 C 14 38.550781 13.867188 38.136719 13.6875 37.75 L 18.46875 32.9375 C 22.765625 37.070313 27.457031 40.078125 31.90625 41.6875 L 30.28125 43.3125 C 29.890625 43.125 29.460938 43 29 43 C 27.355469 43 26 44.355469 26 46 C 26 47.644531 27.355469 49 29 49 C 30.644531 49 32 47.644531 32 46 C 32 45.539063 31.875 45.109375 31.6875 44.71875 L 34.0625 42.34375 C 38.921875 43.632813 43.441406 43.183594 46.3125 40.3125 C 49.921875 36.703125 49.910156 30.195313 46.59375 23.34375 C 46.988281 21.84375 47.113281 20.191406 47 18.5 C 46.746094 14.789063 45.257813 10.820313 42.21875 7.78125 C 42.207031 7.78125 42.199219 7.78125 42.1875 7.78125 C 38.78125 4.480469 34.359375 3 30.3125 3 C 28.96875 3 27.6875 3.179688 26.5 3.5 C 23.164063 1.851563 20 1 17.1875 1 Z M 17.1875 3 C 19.167969 3 21.460938 3.503906 23.9375 4.53125 C 23.261719 4.917969 22.628906 5.371094 22.09375 5.90625 C 19.238281 8.761719 18.496094 12.117188 19.34375 15.34375 C 20.191406 18.570313 22.484375 21.671875 25.40625 24.59375 C 29.089844 28.277344 33.035156 31 37.1875 31 C 39.542969 31 41.941406 30.058594 44.09375 27.90625 C 44.65625 27.34375 45.128906 26.6875 45.53125 25.96875 C 47.789063 31.621094 47.386719 36.425781 44.90625 38.90625 C 42.605469 41.207031 38.664063 41.671875 33.96875 40.28125 C 29.273438 38.890625 23.964844 35.652344 19.21875 30.90625 C 14.472656 26.160156 11.234375 20.820313 9.84375 16.125 C 8.453125 11.429688 8.917969 7.519531 11.21875 5.21875 C 12.660156 3.777344 14.65625 3 17.1875 3 Z M 30.3125 5 C 33.859375 5 37.789063 6.332031 40.78125 9.21875 C 43.441406 11.878906 44.777344 15.359375 45 18.625 C 45.222656 21.890625 44.300781 24.886719 42.6875 26.5 C 40.839844 28.347656 39.035156 29 37.1875 29 C 33.9375 29 30.328125 26.703125 26.8125 23.1875 C 24.03125 20.40625 21.984375 17.515625 21.28125 14.84375 C 20.578125 12.171875 21.054688 9.757813 23.5 7.3125 C 24.226563 6.585938 25.214844 6.023438 26.375 5.625 C 26.386719 5.625 26.394531 5.625 26.40625 5.625 C 26.679688 5.648438 26.949219 5.558594 27.15625 5.375 C 28.117188 5.132813 29.183594 5 30.3125 5 Z M 4 20 C 4.5625 20 5 20.4375 5 21 C 5 21.5625 4.5625 22 4 22 C 3.4375 22 3 21.5625 3 21 C 3 20.4375 3.4375 20 4 20 Z M 11 38 C 11.5625 38 12 38.4375 12 39 C 12 39.5625 11.5625 40 11 40 C 10.4375 40 10 39.5625 10 39 C 10 38.4375 10.4375 38 11 38 Z M 29 45 C 29.5625 45 30 45.4375 30 46 C 30 46.5625 29.5625 47 29 47 C 28.4375 47 28 46.5625 28 46 C 28 45.4375 28.4375 45 29 45 Z"/></svg>