<svg xmlns="http://www.w3.org/2000/svg"  viewBox="0 0 50 50" width="50px" height="50px"><path d="M 24.9375 1.9960938 A 1.0001 1.0001 0 0 0 24.669922 3.9433594 C 24.669922 3.9433594 29.571057 5.6787813 33.400391 8.5507812 C 35.315057 9.9867812 36.916978 11.696982 37.560547 13.466797 C 38.204116 15.236612 38.056228 17.078153 36.21875 19.375 C 34.162017 21.945981 32.945698 24.338556 32.535156 26.693359 C 32.124614 29.048163 32.551166 31.327607 33.617188 33.537109 C 35.749232 37.956113 40.317477 42.230148 46.324219 47.736328 A 1.0001 1.0001 0 1 0 47.675781 46.263672 C 41.682523 40.769852 37.275627 36.514215 35.419922 32.667969 C 34.492069 30.744846 34.170995 28.957837 34.505859 27.037109 C 34.840724 25.116381 35.862483 23.023519 37.78125 20.625 C 39.943772 17.921847 40.295884 15.138388 39.439453 12.783203 C 38.583022 10.428018 36.684943 8.5132186 34.599609 6.9492188 C 30.428943 3.8212187 25.330078 2.0566406 25.330078 2.0566406 A 1.0001 1.0001 0 0 0 24.9375 1.9960938 z M 7.9785156 3.9960938 A 1.0001 1.0001 0 0 0 7.7246094 5.9609375 C 7.7246094 5.9609375 12.899664 7.4641226 16.582031 9.8398438 C 18.423215 11.027704 19.795454 12.431815 20.107422 13.679688 C 20.263406 14.303622 20.220712 14.904558 19.839844 15.644531 C 19.458975 16.384504 18.701864 17.253403 17.412109 18.191406 C 11.936881 22.17339 6.8058544 25.415359 4.4863281 29.917969 C 3.326565 32.169274 2.9470175 34.755634 3.6699219 37.664062 C 4.3928262 40.572492 6.1637294 43.806224 9.21875 47.625 A 1.0004882 1.0004882 0 1 0 10.78125 46.375 C 7.8362706 42.693776 6.2321738 39.677508 5.6113281 37.179688 C 4.9904825 34.681866 5.298435 32.705726 6.2636719 30.832031 C 8.1941456 27.084641 13.063119 23.82661 18.587891 19.808594 C 20.048136 18.746597 21.041024 17.677996 21.617188 16.558594 C 22.19335 15.439192 22.314719 14.258878 22.048828 13.195312 C 21.517046 11.068185 19.701785 9.4722958 17.667969 8.1601562 C 13.600336 5.5358774 8.2753906 4.0390625 8.2753906 4.0390625 A 1.0001 1.0001 0 0 0 7.9785156 3.9960938 z M 26 7 C 25.083334 7 24.268559 7.3797556 23.751953 7.9609375 C 23.235347 8.5421194 23 9.2777779 23 10 C 23 10.722222 23.235347 11.457881 23.751953 12.039062 C 24.268559 12.620245 25.083334 13 26 13 C 26.916666 13 27.731441 12.620244 28.248047 12.039062 C 28.764653 11.457882 29 10.722222 29 10 C 29 9.2777779 28.764653 8.5421194 28.248047 7.9609375 C 27.731441 7.3797556 26.916666 7 26 7 z M 26 9 C 26.416666 9 26.601893 9.1202444 26.751953 9.2890625 C 26.902014 9.4578806 27 9.7222221 27 10 C 27 10.277778 26.90201 10.542119 26.751953 10.710938 C 26.601893 10.879755 26.416666 11 26 11 C 25.583334 11 25.398107 10.879756 25.248047 10.710938 C 25.097986 10.542118 25 10.277778 25 10 C 25 9.7222221 25.097986 9.4578806 25.248047 9.2890625 C 25.398107 9.1202444 25.583334 9 26 9 z M 31 15 C 30.083334 15 29.268559 15.379756 28.751953 15.960938 C 28.235347 16.542119 28 17.277778 28 18 C 28 18.722222 28.235347 19.457881 28.751953 20.039062 C 29.268559 20.620244 30.083334 21 31 21 C 31.916666 21 32.731441 20.620244 33.248047 20.039062 C 33.764653 19.457881 34 18.722222 34 18 C 34 17.277778 33.764653 16.542119 33.248047 15.960938 C 32.731441 15.379755 31.916666 15 31 15 z M 31 17 C 31.416666 17 31.601893 17.120244 31.751953 17.289062 C 31.902014 17.457881 32 17.722222 32 18 C 32 18.277778 31.90201 18.542119 31.751953 18.710938 C 31.601893 18.879756 31.416666 19 31 19 C 30.583334 19 30.398107 18.879756 30.248047 18.710938 C 30.097986 18.542119 30 18.277778 30 18 C 30 17.722222 30.097986 17.457881 30.248047 17.289062 C 30.398107 17.120244 30.583334 17 31 17 z M 23 21 C 21.75 21 20.685226 21.504756 20.001953 22.273438 C 19.318681 23.042119 19 24.027778 19 25 C 19 25.972222 19.318681 26.957882 20.001953 27.726562 C 20.685226 28.495244 21.75 29 23 29 C 24.25 29 25.314774 28.495244 25.998047 27.726562 C 26.681319 26.957881 27 25.972222 27 25 C 27 24.027778 26.681319 23.042118 25.998047 22.273438 C 25.314774 21.504756 24.25 21 23 21 z M 23 23 C 23.749999 23 24.185226 23.245244 24.501953 23.601562 C 24.81868 23.957881 25 24.472222 25 25 C 25 25.527778 24.81868 26.042118 24.501953 26.398438 C 24.185226 26.754756 23.749999 27 23 27 C 22.250001 27 21.814774 26.754756 21.498047 26.398438 C 21.18132 26.042119 21 25.527778 21 25 C 21 24.472222 21.18132 23.957882 21.498047 23.601562 C 21.814774 23.245244 22.250001 23 23 23 z M 23 33 C 22.083334 33 21.268559 33.379756 20.751953 33.960938 C 20.235347 34.542119 20 35.277778 20 36 C 20 36.722222 20.235347 37.457881 20.751953 38.039062 C 21.268559 38.620244 22.083334 39 23 39 C 23.916666 39 24.731441 38.620244 25.248047 38.039062 C 25.764653 37.457881 26 36.722222 26 36 C 26 35.277778 25.764653 34.542119 25.248047 33.960938 C 24.731441 33.379756 23.916666 33 23 33 z M 23 35 C 23.416666 35 23.601893 35.120244 23.751953 35.289062 C 23.902014 35.457881 24 35.722222 24 36 C 24 36.277778 23.90201 36.542119 23.751953 36.710938 C 23.601893 36.879756 23.416666 37 23 37 C 22.583334 37 22.398107 36.879756 22.248047 36.710938 C 22.097986 36.542119 22 36.277778 22 36 C 22 35.722222 22.097986 35.457881 22.248047 35.289062 C 22.398107 35.120244 22.583334 35 23 35 z M 31.5 38 C 30.416667 38 29.476892 38.442256 28.876953 39.117188 C 28.277014 39.792119 28 40.652778 28 41.5 C 28 42.347222 28.277014 43.207881 28.876953 43.882812 C 29.476892 44.557744 30.416667 45 31.5 45 C 32.583333 45 33.523108 44.557745 34.123047 43.882812 C 34.722986 43.207881 35 42.347222 35 41.5 C 35 40.652778 34.722986 39.792119 34.123047 39.117188 C 33.523108 38.442256 32.583333 38 31.5 38 z M 16 39 C 14.75 39 13.685226 39.504756 13.001953 40.273438 C 12.318681 41.042119 12 42.027778 12 43 C 12 43.972222 12.318681 44.957881 13.001953 45.726562 C 13.685226 46.495244 14.75 47 16 47 C 17.25 47 18.314774 46.495245 18.998047 45.726562 C 19.681319 44.957881 20 43.972222 20 43 C 20 42.027778 19.681319 41.042118 18.998047 40.273438 C 18.314774 39.504756 17.25 39 16 39 z M 31.5 40 C 32.083333 40 32.393559 40.182744 32.626953 40.445312 C 32.860347 40.707881 33 41.097222 33 41.5 C 33 41.902778 32.860347 42.292119 32.626953 42.554688 C 32.393559 42.817256 32.083333 43 31.5 43 C 30.916667 43 30.606441 42.817255 30.373047 42.554688 C 30.139653 42.292119 30 41.902778 30 41.5 C 30 41.097222 30.139653 40.707881 30.373047 40.445312 C 30.606441 40.182744 30.916667 40 31.5 40 z M 16 41 C 16.749999 41 17.185226 41.245244 17.501953 41.601562 C 17.81868 41.957881 18 42.472222 18 43 C 18 43.527778 17.81868 44.042119 17.501953 44.398438 C 17.185226 44.754756 16.749999 45 16 45 C 15.250001 45 14.814774 44.754755 14.498047 44.398438 C 14.18132 44.042119 14 43.527778 14 43 C 14 42.472222 14.18132 41.957882 14.498047 41.601562 C 14.814774 41.245244 15.250001 41 16 41 z"/></svg>