<svg xmlns="http://www.w3.org/2000/svg"  viewBox="0 0 50 50" width="50px" height="50px"><path d="M 24 4 L 24 6 L 5 6 A 1.0001 1.0001 0 0 0 4 7 L 4 34 A 1.0001 1.0001 0 0 0 5 35 L 14 35 L 14 46 L 12 46 L 12 48 L 18 48 L 18 46 L 16 46 L 16 41 L 34 41 L 34 46 L 32 46 L 32 48 L 38 48 L 38 46 L 36 46 L 36 35 L 45 35 A 1.0001 1.0001 0 0 0 46 34 L 46 7 A 1.0001 1.0001 0 0 0 45 6 L 26 6 L 26 4 L 24 4 z M 6 8 L 44 8 L 44 33 L 6 33 L 6 8 z M 8 12 L 8 14 L 10 14 L 10 12 L 8 12 z M 8 17 L 8 19 L 10 19 L 10 17 L 8 17 z M 8 22 L 8 24 L 10 24 L 10 22 L 8 22 z M 8 27 L 8 29 L 10 29 L 10 27 L 8 27 z M 16 35 L 34 35 L 34 39 L 16 39 L 16 35 z"/></svg>