<svg xmlns="http://www.w3.org/2000/svg"  viewBox="0 0 50 50" width="50px" height="50px"><path d="M 29.021484 3 C 19.644483 3 12.021484 10.623005 12.021484 20 C 12.021484 24.223112 13.57851 28.081194 16.134766 31.056641 L 3.1074219 44.085938 L 5.9355469 46.914062 L 19.083984 33.765625 C 21.882334 35.791079 25.309101 37 29.021484 37 C 38.398486 37 46.021484 29.376995 46.021484 20 C 46.021484 10.623005 38.398486 3 29.021484 3 z M 29.021484 5 C 37.317607 5 44.021484 11.703883 44.021484 20 C 44.021484 28.296117 37.317607 35 29.021484 35 C 20.725362 35 14.021484 28.296117 14.021484 20 C 14.021484 11.703883 20.725362 5 29.021484 5 z M 31.125 8.9355469 A 1.0001 1.0001 0 0 0 31.021484 10.929688 L 31.021484 12.101562 C 30.058823 12.242921 29.208638 12.582078 28.503906 13.068359 L 27.728516 12.292969 A 1.0001 1.0001 0 0 0 26.931641 10.654297 A 1.0001 1.0001 0 0 0 26.244141 10.957031 L 24.978516 12.224609 A 1.0001 1.0001 0 0 0 26.316406 13.708984 L 27.095703 14.490234 C 26.579751 15.24863 26.262973 16.110367 26.126953 17 L 24.953125 17 A 1.0001 1.0001 0 0 0 23.941406 16.089844 A 1.0001 1.0001 0 0 0 22.957031 17.103516 L 22.957031 18.896484 A 1.0001 1.0001 0 0 0 24.951172 19 L 26.126953 19 C 26.263054 19.890163 26.579211 20.752998 27.095703 21.511719 L 26.316406 22.291016 A 1.0001 1.0001 0 0 0 24.978516 23.775391 L 26.244141 25.042969 A 1.0001 1.0001 0 0 0 27.728516 23.707031 L 28.503906 22.931641 C 29.208638 23.417922 30.058823 23.757079 31.021484 23.898438 L 31.021484 25.068359 A 1.0001 1.0001 0 0 0 31.125 27.064453 L 32.917969 27.064453 A 1.0001 1.0001 0 0 0 33.021484 25.070312 L 33.021484 23.888672 C 33.923027 23.735115 34.756997 23.380234 35.474609 22.869141 L 36.3125 23.705078 A 1.0001 1.0001 0 0 0 37.796875 25.042969 L 39.0625 23.775391 A 1.0001 1.0001 0 0 0 37.726562 22.291016 L 36.888672 21.453125 C 37.400128 20.735298 37.756531 19.901942 37.910156 19 L 39.087891 19 A 1.0003634 1.0003634 0 0 0 41.085938 18.896484 L 41.085938 17.103516 A 1.0001 1.0001 0 0 0 40.070312 16.089844 A 1.0001 1.0001 0 0 0 39.089844 17 L 37.910156 17 C 37.756531 16.098058 37.400128 15.264702 36.888672 14.546875 L 37.726562 13.708984 A 1.0001 1.0001 0 0 0 39.0625 12.224609 L 37.796875 10.957031 A 1.0001 1.0001 0 0 0 37.078125 10.654297 A 1.0001 1.0001 0 0 0 36.3125 12.294922 L 35.474609 13.132812 C 34.756783 12.621356 33.923427 12.264953 33.021484 12.111328 L 33.021484 10.931641 A 1.0001 1.0001 0 0 0 32.917969 8.9355469 L 31.125 8.9355469 z M 31.927734 14.029297 A 1.0001 1.0001 0 0 0 32.113281 14.03125 C 34.278491 14.080752 36 15.82214 36 18 C 36 20.209387 34.230872 21.978516 32.021484 21.978516 C 30.611819 21.978516 29.679763 21.485193 29.033203 20.757812 C 28.386643 20.030433 28.042969 19.022528 28.042969 18 C 28.042969 17.05076 28.350437 16.123418 28.910156 15.412109 A 1.0001 1.0001 0 0 0 29.445312 14.863281 C 30.04405 14.369255 30.838395 14.04788 31.927734 14.029297 z"/></svg>