<svg xmlns="http://www.w3.org/2000/svg"  viewBox="0 0 50 50" width="50px" height="50px"><path d="M 25 2 C 21.148207 2 18 5.1482075 18 9 C 18 10.071802 18.248319 11.089234 18.683594 12 L 8.8203125 12 A 1.0001 1.0001 0 0 0 7.8457031 12.775391 L 0.025390625 46.775391 A 1.0001 1.0001 0 0 0 1 48 L 49 48 A 1.0001 1.0001 0 0 0 49.974609 46.775391 L 42.154297 12.775391 A 1.0001 1.0001 0 0 0 41.179688 12 L 31.316406 12 C 31.751681 11.089234 32 10.071802 32 9 C 32 5.1482075 28.851793 2 25 2 z M 25 4 C 27.768207 4 30 6.2317925 30 9 C 30 10.140164 29.607697 11.164359 28.966797 12 L 21.033203 12 C 20.392303 11.164359 20 10.140164 20 9 C 20 6.2317925 22.231793 4 25 4 z M 9.6152344 14 L 40.382812 14 L 47.744141 46 L 2.2558594 46 L 9.6152344 14 z M 19 23.435547 L 19 37 L 21.25 37 L 21.25 23.435547 L 19 23.435547 z M 24.181641 23.435547 L 24.181641 37 L 26.318359 37 L 26.318359 35.453125 L 26.470703 35.453125 C 27.024703 36.526125 28.160297 37.161109 29.529297 37.162109 C 31.997297 37.162109 33.544922 35.220375 33.544922 32.109375 C 33.544922 28.979375 32.006297 27.056641 29.529297 27.056641 C 28.187297 27.056641 27.060781 27.710438 26.550781 28.773438 L 26.398438 28.773438 L 26.398438 23.435547 L 24.181641 23.435547 z M 28.830078 28.943359 C 30.341078 28.943359 31.263672 30.141375 31.263672 32.109375 C 31.263672 34.076375 30.350078 35.273438 28.830078 35.273438 C 27.309078 35.273437 26.361328 34.058375 26.361328 32.109375 C 26.361328 30.159375 27.318078 28.943359 28.830078 28.943359 z"/></svg>