<svg xmlns="http://www.w3.org/2000/svg"  viewBox="0 0 50 50" width="50px" height="50px"><path d="M 12 2 C 8.6983746 2 6 4.6983746 6 8 L 6 42.417969 C 6 45.591903 8.832306 48 12 48 L 44 48 L 44 46 L 12 46 C 9.841694 46 8 44.378035 8 42.417969 C 8 40.457903 9.8001368 39 12 39 L 44 39 L 44 2 L 12 2 z M 12 4 L 42 4 L 42 37 L 12 37 C 10.506931 37 9.0923623 37.537598 8 38.417969 L 8 8 C 8 5.7796254 9.7796254 4 12 4 z M 16.943359 15 L 13 25.515625 L 13 26 L 15 26 L 15 25.876953 L 15.703125 24 L 20.296875 24 L 21 25.876953 L 21 26 L 23 26 L 23 25.515625 L 19.056641 15 L 16.943359 15 z M 29.25 15 L 29.25 17 L 34.375 17 L 29 24.166016 L 29 26 L 37 26 L 37 24 L 31.625 24 L 37 16.833984 L 37 15 L 29.25 15 z M 18 17.875 L 19.546875 22 L 16.453125 22 L 18 17.875 z M 24 19 L 24 21 L 28 21 L 28 19 L 24 19 z"/></svg>