<svg xmlns="http://www.w3.org/2000/svg"  viewBox="0 0 50 50" width="50px" height="50px"><path d="M 23 3 A 1.0001 1.0001 0 0 0 22 4 L 22 13 L 22 16 A 1 1 0 0 0 21 17 A 1 1 0 0 0 22 18 L 22 24.970703 C 21.997969 25.008 21.798078 28.667471 21.09375 32.310547 C 20.739789 34.14138 20.248819 35.960104 19.648438 37.228516 C 19.348246 37.862721 19.018695 38.35212 18.724609 38.636719 C 18.430523 38.921318 18.227381 39 18 39 C 17.384563 39 16.913123 38.652268 16.378906 37.726562 C 15.84469 36.800857 15.40195 35.38326 15.080078 33.816406 C 14.436335 30.6827 14.237403 26.984915 13.994141 24.884766 C 13.903162 24.098886 13.791467 22.911457 13.671875 21.740234 A 1 1 0 0 0 14 21 A 1 1 0 0 0 13.490234 20.128906 C 13.385381 19.247429 13.256353 18.351555 13.105469 17.441406 A 1 1 0 0 0 14 18 A 1 1 0 0 0 15 17 A 1 1 0 0 0 14 16 A 1 1 0 0 0 13.005859 16.892578 C 12.934895 16.496426 12.877672 16.09407 12.794922 15.707031 C 12.439071 14.04265 11.977295 12.487834 11.267578 11.251953 C 10.557862 10.016072 9.449 9 8 9 C 7.1875 9 6.4655516 9.4016359 5.9296875 9.9375 C 5.3938234 10.473364 4.9839926 11.150652 4.625 11.919922 C 3.9070149 13.458461 3.4029123 15.387782 3.0195312 17.304688 C 2.2527694 21.138497 2.0019531 24.933594 2.0019531 24.933594 A 1.0002537 1.0002537 0 1 0 3.9980469 25.066406 C 3.9980469 25.066406 4.2472307 21.361503 4.9804688 17.695312 C 5.3470876 15.862218 5.8429851 14.041539 6.4375 12.767578 C 6.7347574 12.130598 7.0593016 11.636013 7.34375 11.351562 C 7.6281984 11.067115 7.8125 11 8 11 C 8.551 11 9.0068258 11.331428 9.5332031 12.248047 C 10.05958 13.164666 10.504866 14.567381 10.837891 16.125 C 11.503939 19.240238 11.754764 22.946263 12.005859 25.115234 C 12.094578 25.881165 12.196486 27.080833 12.308594 28.279297 A 1 1 0 0 0 12 29 A 1 1 0 0 0 12.474609 29.849609 C 12.567257 30.69273 12.68257 31.548564 12.818359 32.423828 A 1 1 0 0 0 12 32 A 1 1 0 0 0 11 33 A 1 1 0 0 0 12 34 A 1 1 0 0 0 12.960938 33.273438 C 13.016576 33.588571 13.057547 33.90941 13.121094 34.21875 C 13.465597 35.895772 13.922732 37.470471 14.646484 38.724609 C 15.370237 39.978748 16.515437 41 18 41 C 18.822619 41 19.561664 40.609932 20.115234 40.074219 C 20.668805 39.538505 21.091597 38.856029 21.457031 38.083984 C 21.655553 37.664573 21.83375 37.212683 22 36.744141 L 22 46 A 1.0001 1.0001 0 0 0 23 47 L 27 47 A 1.0001 1.0001 0 0 0 28 46 L 28 25.044922 C 28.002311 25.010722 28.250639 21.344462 28.980469 17.695312 C 29.347088 15.862219 29.842985 14.041539 30.4375 12.767578 C 30.734757 12.130598 31.059302 11.636012 31.34375 11.351562 C 31.628198 11.067115 31.8125 11 32 11 C 32.551 11 33.006826 11.331428 33.533203 12.248047 C 34.05958 13.164666 34.504866 14.567381 34.837891 16.125 C 35.503939 19.240238 35.754764 22.946263 36.005859 25.115234 C 36.231597 27.064085 36.432087 30.864707 37.121094 34.21875 C 37.465597 35.895772 37.922732 37.470471 38.646484 38.724609 C 39.370237 39.978748 40.515437 41 42 41 C 42.822619 41 43.561664 40.609932 44.115234 40.074219 C 44.668805 39.538505 45.091597 38.856029 45.457031 38.083984 C 46.1879 36.539896 46.685602 34.60862 47.056641 32.689453 C 47.798719 28.851118 47.998047 25.052734 47.998047 25.052734 A 1.0001 1.0001 0 1 0 46.001953 24.947266 C 46.001953 24.947266 45.801672 28.648882 45.09375 32.310547 C 44.739789 34.14138 44.248818 35.960104 43.648438 37.228516 C 43.348247 37.862721 43.018695 38.35212 42.724609 38.636719 C 42.430523 38.921318 42.227381 39 42 39 C 41.384563 39 40.913123 38.652268 40.378906 37.726562 C 39.84469 36.800857 39.40195 35.38326 39.080078 33.816406 C 38.436335 30.6827 38.237403 26.984915 37.994141 24.884766 C 37.756236 22.829737 37.506623 19.035794 36.794922 15.707031 C 36.439071 14.04265 35.977295 12.487834 35.267578 11.251953 C 34.557862 10.016072 33.449 9 32 9 C 31.1875 9 30.465552 9.4016359 29.929688 9.9375 C 29.393822 10.473364 28.983993 11.150652 28.625 11.919922 C 28.393051 12.416954 28.190446 12.964291 28 13.529297 L 28 4 A 1.0001 1.0001 0 0 0 27 3 L 23 3 z M 22 13 A 1 1 0 0 0 21 12 A 1 1 0 0 0 20 13 A 1 1 0 0 0 21 14 A 1 1 0 0 0 22 13 z M 24 5 L 26 5 L 26 25.033203 L 26 45 L 24 45 L 24 25.003906 A 1.0001 1.0001 0 0 0 24 24.919922 L 24 5 z M 18 9 A 1 1 0 0 0 17 10 A 1 1 0 0 0 18 11 A 1 1 0 0 0 19 10 A 1 1 0 0 0 18 9 z M 15 12 A 1 1 0 0 0 14 13 A 1 1 0 0 0 15 14 A 1 1 0 0 0 16 13 A 1 1 0 0 0 15 12 z M 6 24 A 1 1 0 0 0 5 25 A 1 1 0 0 0 6 26 A 1 1 0 0 0 7 25 A 1 1 0 0 0 6 24 z M 10 24 A 1 1 0 0 0 9 25 A 1 1 0 0 0 10 26 A 1 1 0 0 0 11 25 A 1 1 0 0 0 10 24 z M 16 24 A 1 1 0 0 0 15 25 A 1 1 0 0 0 16 26 A 1 1 0 0 0 17 25 A 1 1 0 0 0 16 24 z M 20 24 A 1 1 0 0 0 19 25 A 1 1 0 0 0 20 26 A 1 1 0 0 0 21 25 A 1 1 0 0 0 20 24 z M 30 24 A 1 1 0 0 0 29 25 A 1 1 0 0 0 30 26 A 1 1 0 0 0 31 25 A 1 1 0 0 0 30 24 z M 34 24 A 1 1 0 0 0 33 25 A 1 1 0 0 0 34 26 A 1 1 0 0 0 35 25 A 1 1 0 0 0 34 24 z M 40 24 A 1 1 0 0 0 39 25 A 1 1 0 0 0 40 26 A 1 1 0 0 0 41 25 A 1 1 0 0 0 40 24 z M 44 24 A 1 1 0 0 0 43 25 A 1 1 0 0 0 44 26 A 1 1 0 0 0 45 25 A 1 1 0 0 0 44 24 z M 3 28 A 1 1 0 0 0 2 29 A 1 1 0 0 0 3 30 A 1 1 0 0 0 4 29 A 1 1 0 0 0 3 28 z M 4 32 A 1 1 0 0 0 3 33 A 1 1 0 0 0 4 34 A 1 1 0 0 0 5 33 A 1 1 0 0 0 4 32 z M 5 36 A 1 1 0 0 0 4 37 A 1 1 0 0 0 5 38 A 1 1 0 0 0 6 37 A 1 1 0 0 0 5 36 z M 11 36 A 1 1 0 0 0 10 37 A 1 1 0 0 0 11 38 A 1 1 0 0 0 12 37 A 1 1 0 0 0 11 36 z M 8 39 A 1 1 0 0 0 7 40 A 1 1 0 0 0 8 41 A 1 1 0 0 0 9 40 A 1 1 0 0 0 8 39 z"/></svg>