<svg xmlns="http://www.w3.org/2000/svg"  viewBox="0 0 50 50" width="50px" height="50px"><path d="M 25 2 C 12.309295 2 2 12.309295 2 25 C 2 37.690705 12.309295 48 25 48 C 37.690705 48 48 37.690705 48 25 C 48 12.309295 37.690705 2 25 2 z M 25 4 C 36.609824 4 46 13.390176 46 25 C 46 36.609824 36.609824 46 25 46 C 13.390176 46 4 36.609824 4 25 C 4 13.390176 13.390176 4 25 4 z M 32.5 8 C 28.921732 8 26 10.921732 26 14.5 C 26 16.054126 26.654836 17.400804 27.568359 18.519531 C 27.222126 18.817489 26.908088 19.143943 26.605469 19.486328 C 25.791074 18.640091 24.765482 18 23.5 18 C 21.026562 18 19 20.026562 19 22.5 C 19 24.973438 21.026562 27 23.5 27 C 23.744251 27 23.938651 26.880807 24.169922 26.841797 C 24.620022 31.940408 28.787043 36 34 36 C 39.511334 36 44 31.511334 44 26 C 44 22.075286 41.672403 18.766284 38.371094 17.132812 C 38.737713 16.318417 39 15.447459 39 14.5 C 39 10.921732 36.078268 8 32.5 8 z M 32.5 10 C 34.997732 10 37 12.002268 37 14.5 C 37 15.427642 36.72169 16.280999 36.244141 16.996094 A 1.0001 1.0001 0 0 0 36.734375 18.490234 C 39.802736 19.608102 42 22.534588 42 26 C 42 30.430666 38.430666 34 34 34 C 29.569334 34 26 30.430666 26 26 C 26 25.95062 26.010728 25.847286 26.017578 25.681641 A 1.0001 1.0001 0 0 0 24.580078 24.740234 C 24.23673 24.907066 23.881247 25 23.5 25 C 22.107438 25 21 23.892562 21 22.5 C 21 21.107438 22.107438 20 23.5 20 C 24.469554 20 25.285357 20.548424 25.705078 21.355469 A 1.0001 1.0001 0 0 0 27.414062 21.462891 C 27.959626 20.672979 28.644579 19.987851 29.433594 19.4375 A 1.0001 1.0001 0 0 0 29.523438 17.867188 C 28.588221 17.039529 28 15.847683 28 14.5 C 28 12.002268 30.002268 10 32.5 10 z M 12.5 14 C 10.026563 14 8 16.026563 8 18.5 C 8 20.973437 10.026563 23 12.5 23 C 14.973437 23 17 20.973437 17 18.5 C 17 16.026563 14.973437 14 12.5 14 z M 12.5 16 C 13.892557 16 15 17.107443 15 18.5 C 15 19.892557 13.892557 21 12.5 21 C 11.107443 21 10 19.892557 10 18.5 C 10 17.107443 11.107443 16 12.5 16 z M 16.5 27 C 12.921994 27 10 29.921994 10 33.5 C 10 37.078006 12.921994 40 16.5 40 C 20.078006 40 23 37.078006 23 33.5 C 23 29.921994 20.078006 27 16.5 27 z M 16.5 29 C 18.997126 29 21 31.002874 21 33.5 C 21 35.997126 18.997126 38 16.5 38 C 14.002874 38 12 35.997126 12 33.5 C 12 31.002874 14.002874 29 16.5 29 z M 26.5 37 C 24.578848 37 23 38.578848 23 40.5 C 23 42.421152 24.578848 44 26.5 44 C 28.421152 44 30 42.421152 30 40.5 C 30 38.578848 28.421152 37 26.5 37 z M 26.5 39 C 27.340272 39 28 39.659728 28 40.5 C 28 41.340272 27.340272 42 26.5 42 C 25.659728 42 25 41.340272 25 40.5 C 25 39.659728 25.659728 39 26.5 39 z"/></svg>