<svg xmlns="http://www.w3.org/2000/svg"  viewBox="0 0 50 50" width="50px" height="50px"><path d="M 22 1 C 20.3 1 19 2.3 19 4 C 19 5.3 19.8 6.4007812 21 6.8007812 L 21 7.5 C 12.8 9.3 7 16.5 7 25 L 7 40 L 6 40 C 5.4 40 5 40.4 5 41 L 5 47 C 5 47.6 5.4 48 6 48 L 44 48 C 44.6 48 45 47.6 45 47 L 45 41 C 45 40.4 44.6 40 44 40 L 43 40 L 43 25 C 43 16.6 37.2 9.3 29 7.5 L 29 6.8007812 C 30.2 6.4007813 31 5.3 31 4 C 31 2.3 29.7 1 28 1 L 22 1 z M 22 3 L 28 3 C 28.6 3 29 3.4 29 4 C 29 4.6 28.6 5 28 5 C 27.4 5 27 5.4 27 6 L 27 8.3007812 C 27 8.8007812 27.300781 9.2007813 27.800781 9.3007812 C 35.500781 10.600781 41 17.2 41 25 L 41 40 L 9 40 L 9 25 C 9 17.2 14.499219 10.600781 22.199219 9.3007812 C 22.699219 9.2007813 23 8.8007812 23 8.3007812 L 23 6 C 23 5.4 22.6 5 22 5 C 21.4 5 21 4.6 21 4 C 21 3.4 21.4 3 22 3 z M 25 18 C 20 18 16 22 16 27 C 16 32 20 36 25 36 C 30 36 34 32 34 27 C 34 22 30 18 25 18 z M 25 20 C 28.9 20 32 23.1 32 27 C 32 30.9 28.9 34 25 34 C 21.1 34 18 30.9 18 27 C 18 23.1 21.1 20 25 20 z M 25 25 A 2 2 0 0 0 25 29 A 2 2 0 0 0 25.539062 28.923828 L 29 31 L 26.925781 27.542969 A 2 2 0 0 0 25 25 z M 7 42 L 8 42 L 42 42 L 43 42 L 43 46 L 7 46 L 7 42 z"/></svg>