<svg xmlns="http://www.w3.org/2000/svg"  viewBox="0 0 50 50" width="50px" height="50px"><path d="M 24.964844 1 A 1.0001 1.0001 0 0 0 24.382812 1.2128906 L 4.421875 16.835938 L 1.3828125 19.212891 A 1.0002305 1.0002305 0 1 0 2.6171875 20.787109 L 4 19.705078 L 4 46 A 1.0001 1.0001 0 0 0 5 47 L 45 47 A 1.0001 1.0001 0 0 0 46 46 L 46 19.705078 L 47.382812 20.787109 A 1.0002308 1.0002308 0 1 0 48.617188 19.212891 L 45.632812 16.878906 L 25.617188 1.2128906 A 1.0001 1.0001 0 0 0 24.964844 1 z M 25 3.2695312 L 44 18.138672 L 44 45 L 6 45 L 6 18.138672 L 25 3.2695312 z M 29.890625 15 C 27.839016 15 25.801211 15.814874 24.212891 17.345703 A 1.0001 1.0001 0 0 0 24.152344 17.408203 C 24.198644 17.355063 23.945889 17.623493 23.636719 17.9375 C 23.327548 18.251507 22.903589 18.679008 22.404297 19.181641 C 21.405713 20.186905 20.10428 21.493032 18.800781 22.800781 C 17.497282 24.10853 16.192948 25.417546 15.185547 26.431641 C 14.681847 26.938688 14.251737 27.372274 13.933594 27.695312 C 13.632989 28.000545 13.482516 28.152062 13.357422 28.291016 C 10.224647 31.441759 10.221055 36.545319 13.367188 39.644531 C 14.90897 41.188775 16.960551 42 19.056641 42 C 21.154522 42 23.155247 41.176267 24.734375 39.654297 A 1.0001 1.0001 0 0 0 24.748047 39.640625 C 25.131108 39.256553 35.145795 29.209737 35.636719 28.716797 C 38.777992 25.565291 38.78142 20.452745 35.628906 17.351562 A 1.0001 1.0001 0 0 0 35.623047 17.345703 C 34.035427 15.814472 31.988506 15 29.890625 15 z M 29.890625 17 C 31.474985 17 33.002814 17.599129 34.230469 18.78125 C 36.599911 21.116403 36.604111 24.91355 34.220703 27.304688 A 1.0001 1.0001 0 0 0 34.21875 27.304688 C 34.031437 27.492769 31.936579 29.596057 29.998047 31.541016 L 21.455078 22.96875 C 22.287027 22.133821 23.167203 21.253209 23.824219 20.591797 C 24.324552 20.088117 24.749358 19.659837 25.0625 19.341797 C 25.343977 19.055917 25.470797 18.928366 25.599609 18.785156 C 26.829289 17.599986 28.366234 17 29.890625 17 z M 20.044922 24.386719 L 28.585938 32.957031 C 26.072664 35.478593 23.537809 38.022223 23.345703 38.214844 C 22.106831 39.408874 20.642759 40 19.056641 40 C 17.470522 40 15.945035 39.397697 14.779297 38.228516 A 1.0001 1.0001 0 0 0 14.773438 38.222656 C 12.399964 35.887839 12.39453 32.087807 14.779297 29.695312 A 1.0001 1.0001 0 0 0 14.820312 29.652344 C 14.800522 29.674694 15.045081 29.418741 15.359375 29.099609 C 15.673669 28.780477 16.100841 28.347812 16.603516 27.841797 C 17.560875 26.878076 18.804159 25.631535 20.044922 24.386719 z M 19 27 C 18.448 27 18 27.448 18 28 C 18 28.552 18.448 29 19 29 C 19.552 29 20 28.552 20 28 C 20 27.448 19.552 27 19 27 z M 16 30 C 15.448 30 15 30.448 15 31 C 15 31.552 15.448 32 16 32 C 16.552 32 17 31.552 17 31 C 17 30.448 16.552 30 16 30 z M 22 30 C 21.448 30 21 30.448 21 31 C 21 31.552 21.448 32 22 32 C 22.552 32 23 31.552 23 31 C 23 30.448 22.552 30 22 30 z M 19 33 C 18.448 33 18 33.448 18 34 C 18 34.552 18.448 35 19 35 C 19.552 35 20 34.552 20 34 C 20 33.448 19.552 33 19 33 z M 25 33 C 24.448 33 24 33.448 24 34 C 24 34.552 24.448 35 25 35 C 25.552 35 26 34.552 26 34 C 26 33.448 25.552 33 25 33 z M 16 36 C 15.448 36 15 36.448 15 37 C 15 37.552 15.448 38 16 38 C 16.552 38 17 37.552 17 37 C 17 36.448 16.552 36 16 36 z M 22 36 C 21.448 36 21 36.448 21 37 C 21 37.552 21.448 38 22 38 C 22.552 38 23 37.552 23 37 C 23 36.448 22.552 36 22 36 z"/></svg>