<svg xmlns="http://www.w3.org/2000/svg"  viewBox="0 0 50 50" width="50px" height="50px"><path d="M 14.132812 3.0058594 C 12.436813 3.0058594 10.849188 3.9139063 9.9921875 5.3789062 L 6.65625 11.080078 C 5.78225 12.573078 5.78225 14.430828 6.65625 15.923828 L 9.9921875 21.626953 C 10.848187 23.090953 12.435812 24 14.132812 24 L 20.892578 24 C 22.589578 24 24.17525 23.090953 25.03125 21.626953 L 28.367188 15.923828 C 29.241187 14.430828 29.241187 12.573078 28.367188 11.080078 L 25.03125 5.3789062 C 24.17425 3.9139063 22.588578 3.0058594 20.892578 3.0058594 L 14.132812 3.0058594 z M 14.132812 5.0058594 L 20.892578 5.0058594 C 21.881578 5.0058594 22.804688 5.5346719 23.304688 6.3886719 L 26.640625 12.091797 C 27.149625 12.962797 27.149625 14.043062 26.640625 14.914062 L 23.304688 20.615234 C 22.804688 21.469234 21.881578 22 20.892578 22 L 14.132812 22 C 13.143812 22 12.21775 21.469234 11.71875 20.615234 L 8.3828125 14.914062 C 7.8738125 14.043062 7.8738125 12.962797 8.3828125 12.091797 L 11.71875 6.3886719 C 12.21875 5.5346719 13.143812 5.0058594 14.132812 5.0058594 z M 19 7 A 1 1 0 0 0 19 9 A 1 1 0 0 0 19 7 z M 15 8 A 1 1 0 0 0 15 10 A 1 1 0 0 0 15 8 z M 19.5 11 A 3.5 3.5 0 1 0 19.5 18 A 3.5 3.5 0 1 0 19.5 11 z M 12 12 A 2 2 0 0 0 12 16 A 2 2 0 0 0 12 12 z M 33.132812 16 C 31.435813 16 29.848187 16.910953 28.992188 18.376953 L 25.658203 24.082031 C 24.787203 25.573031 24.787203 27.426969 25.658203 28.917969 L 28.992188 34.625 C 29.850188 36.09 31.436813 37 33.132812 37 L 39.875 37 C 41.572 37 43.157672 36.089047 44.013672 34.623047 L 47.347656 28.917969 C 48.218656 27.426969 48.218656 25.573031 47.347656 24.082031 L 44.015625 18.375 C 43.158625 16.91 41.572 16 39.875 16 L 33.132812 16 z M 14 18 A 1 1 0 0 0 14 20 A 1 1 0 0 0 14 18 z M 33.132812 18 L 39.875 18 C 40.864 18 41.788109 18.530766 42.287109 19.384766 L 45.619141 25.091797 C 46.127141 25.960797 46.128094 27.039203 45.621094 27.908203 L 42.287109 33.615234 C 41.788109 34.470234 40.864 35 39.875 35 L 33.132812 35 C 32.143813 35 31.219703 34.469234 30.720703 33.615234 L 27.386719 27.908203 C 26.878719 27.039203 26.878719 25.960797 27.386719 25.091797 L 30.720703 19.384766 C 31.219703 18.529766 32.144813 18 33.132812 18 z M 34.832031 20.013672 C 34.579781 20.056547 34.345047 20.196875 34.185547 20.421875 C 33.866547 20.872875 33.971875 21.495453 34.421875 21.814453 C 34.871875 22.134453 35.496406 22.029125 35.816406 21.578125 C 36.135406 21.127125 36.028125 20.502594 35.578125 20.183594 C 35.352625 20.024094 35.084281 19.970797 34.832031 20.013672 z M 40.046875 22 C 39.405117 21.985586 38.768516 22.280625 38.369141 22.84375 C 37.730141 23.74475 37.94275 24.993813 38.84375 25.632812 C 39.74475 26.271812 40.993813 26.05725 41.632812 25.15625 C 42.270813 24.25525 42.05725 23.007141 41.15625 22.369141 C 40.818375 22.129516 40.43193 22.008648 40.046875 22 z M 33 24 A 3 3 0 0 0 33 30 A 3 3 0 0 0 33 24 z M 12.146484 26 C 10.449484 26 8.8638125 26.91 8.0078125 28.375 L 4.6738281 34.080078 C 3.8018281 35.572078 3.8018281 37.427922 4.6738281 38.919922 L 8.0078125 44.625 C 8.8638125 46.09 10.449484 47 12.146484 47 L 18.896484 47 C 20.593484 47 22.179156 46.09 23.035156 44.625 L 26.369141 38.919922 C 27.241141 37.427922 27.241141 35.572078 26.369141 34.080078 L 23.035156 28.375 C 22.179156 26.91 20.593484 26 18.896484 26 L 12.146484 26 z M 12.146484 28 L 18.896484 28 C 19.885484 28 20.809594 28.529766 21.308594 29.384766 L 24.642578 35.091797 C 25.150578 35.960797 25.150578 37.039203 24.642578 37.908203 L 21.308594 43.615234 C 20.809594 44.470234 19.885484 45 18.896484 45 L 12.146484 45 C 11.157484 45 10.231422 44.470234 9.7324219 43.615234 L 6.3984375 37.908203 C 5.8904375 37.039203 5.8904375 35.960797 6.3984375 35.091797 L 9.7324219 29.384766 C 10.231422 28.529766 11.157484 28 12.146484 28 z M 38.832031 29.013672 C 38.579781 29.056547 38.343594 29.196375 38.183594 29.421875 C 37.864594 29.872875 37.971875 30.497406 38.421875 30.816406 C 38.872875 31.135406 39.495453 31.028125 39.814453 30.578125 C 40.133453 30.127125 40.028125 29.504547 39.578125 29.185547 C 39.353125 29.025547 39.084281 28.970797 38.832031 29.013672 z M 17.654297 31.001953 C 16.53207 30.957734 15.408359 31.453984 14.693359 32.427734 C 13.549359 33.985734 13.885359 36.174359 15.443359 37.318359 C 17.001359 38.462359 19.189984 38.128313 20.333984 36.570312 C 21.477984 35.013313 21.142937 32.823688 19.585938 31.679688 C 19.001687 31.250688 18.327633 31.028484 17.654297 31.001953 z M 35.832031 31.013672 C 35.579781 31.056547 35.343594 31.196375 35.183594 31.421875 C 34.864594 31.872875 34.971875 32.497406 35.421875 32.816406 C 35.872875 33.135406 36.495453 33.028125 36.814453 32.578125 C 37.133453 32.127125 37.028125 31.504547 36.578125 31.185547 C 36.353125 31.025547 36.084281 30.970797 35.832031 31.013672 z M 10.554688 33.001953 C 10.266043 32.991072 9.9710312 33.062313 9.7070312 33.226562 C 9.0040313 33.664563 8.7885625 34.589969 9.2265625 35.292969 C 9.6645625 35.995969 10.589969 36.210437 11.292969 35.773438 C 11.995969 35.335437 12.211437 34.410031 11.773438 33.707031 C 11.499688 33.267656 11.035762 33.020088 10.554688 33.001953 z M 12.080078 38.001953 C 11.438809 37.976758 10.797422 38.260156 10.388672 38.816406 C 9.7346719 39.706406 9.9264062 40.957328 10.816406 41.611328 C 11.706406 42.265328 12.957328 42.073594 13.611328 41.183594 C 14.265328 40.293594 14.073594 39.042672 13.183594 38.388672 C 12.849844 38.143422 12.46484 38.01707 12.080078 38.001953 z M 16.84375 40.011719 C 16.715484 40.031953 16.589906 40.077391 16.472656 40.150391 C 16.003656 40.442391 15.858391 41.058344 16.150391 41.527344 C 16.442391 41.996344 17.058344 42.141609 17.527344 41.849609 C 17.996344 41.557609 18.141609 40.941656 17.849609 40.472656 C 17.630609 40.120906 17.228547 39.951016 16.84375 40.011719 z"/></svg>