<svg xmlns="http://www.w3.org/2000/svg"  viewBox="0 0 50 50" width="50px" height="50px"><path d="M 20 3 C 10.626 3 3 10.626 3 20 C 3 29.374 10.626 37 20 37 C 23.713098 37 27.145499 35.798263 29.941406 33.769531 L 43.085938 46.914062 L 45.914062 44.085938 L 32.882812 31.054688 C 34.815148 28.800952 36.174043 26.041633 36.71875 23 L 34.697266 23 C 33.303266 29.838 27.244 35 20 35 C 12.066588 35 5.5693721 28.804385 5.0507812 21 L 9.4140625 21 L 15 15.414062 L 27 27.414062 L 33.414062 21 L 47 21 L 47 19 L 32.585938 19 L 27 24.585938 L 15 12.585938 L 8.5859375 19 L 5.0507812 19 C 5.5693721 11.195615 12.066588 5 20 5 C 27.244 5 33.303266 10.162 34.697266 17 L 36.71875 17 C 35.29575 9.054 28.349 3 20 3 z"/></svg>