<svg xmlns="http://www.w3.org/2000/svg"  viewBox="0 0 50 50" width="50px" height="50px"><path d="M 25 2 C 23.329614 2 21.705921 2.1956824 20.146484 2.5527344 A 1.0001 1.0001 0 0 0 19.871094 2.6132812 C 16.780093 3.3637396 13.959345 4.7773085 11.580078 6.6875 A 1.0001 1.0001 0 0 0 11.240234 6.9863281 C 9.1263013 8.7599882 7.3913683 10.931404 6.1464844 13.384766 A 1.0001 1.0001 0 0 0 5.8984375 13.878906 C 4.6904686 16.433555 4 19.263949 4 22.255859 C 4 22.959986 4.0496831 23.652105 4.1230469 24.337891 A 1.0001 1.0001 0 0 0 4.2070312 25.007812 C 4.6868903 28.382869 6.0212632 31.498958 8 34.130859 L 8 37.275391 C 7.5590855 37.551307 7.0973705 37.815329 6.78125 38.162109 C 6.3786515 38.603755 6.0918238 39.155855 6.0273438 39.761719 A 1.0001 1.0001 0 0 0 6 40 L 6 44 C 6 44.580146 6.2762604 45.099309 6.6308594 45.484375 C 6.9854583 45.869441 7.4273983 46.167252 7.9492188 46.441406 C 8.9928596 46.989714 10.373427 47.431067 12.054688 47.804688 C 15.417207 48.551929 19.969446 49 25 49 C 30.030554 49 34.582792 48.551929 37.945312 47.804688 C 39.626573 47.431067 41.00714 46.989714 42.050781 46.441406 C 42.572602 46.167252 43.014542 45.869441 43.369141 45.484375 C 43.72374 45.099309 44 44.580146 44 44 L 44 40 A 1.0001 1.0001 0 0 0 43.972656 39.759766 C 43.907742 39.154665 43.620921 38.603286 43.21875 38.162109 C 42.90263 37.815329 42.440915 37.551307 42 37.275391 L 42 34.126953 C 42.365496 33.641127 42.702559 33.134361 43.023438 32.617188 A 1.0001378 1.0001378 0 0 0 43.242188 32.244141 C 44.985035 29.295899 46 25.89116 46 22.255859 C 46 21.915142 45.989923 21.576799 45.972656 21.240234 A 1.0001 1.0001 0 0 0 45.953125 20.96875 C 45.715024 17.316868 44.470436 13.930575 42.488281 11.058594 A 1.0001 1.0001 0 0 0 42.275391 10.759766 C 40.299155 8.0044688 37.63236 5.7558528 34.521484 4.2226562 A 1.0001 1.0001 0 0 0 34.029297 3.9941406 C 31.925654 3.0231658 29.64247 2.3597386 27.226562 2.1132812 A 1.0001 1.0001 0 0 0 26.984375 2.0859375 A 1.0001 1.0001 0 0 0 26.939453 2.0878906 C 26.300502 2.0312288 25.653903 2 25 2 z M 25 4 C 25.337847 4 25.666593 4.032177 26 4.0488281 L 26 4.2597656 C 26 5.6416704 26.548456 6.9625185 27.523438 7.9375 L 30.292969 10.707031 A 1.0001 1.0001 0 0 0 30.501953 10.871094 C 30.552454 11.340412 30.644197 11.806782 30.822266 12.251953 C 31.379792 13.641952 30.902356 15.222256 29.660156 16.060547 A 1.0001 1.0001 0 0 0 29.65625 16.064453 L 27.548828 17.505859 C 26.799426 17.183874 25.943245 17 25 17 C 24.112661 17 23.304911 17.165889 22.587891 17.453125 L 21.90625 15.476562 L 21.90625 15.474609 C 21.68926 14.839005 21.363661 14.261205 20.966797 13.742188 A 1.0007041 1.0007041 0 0 0 20.960938 13.720703 L 19.839844 9.8808594 A 1.0001 1.0001 0 0 0 19.804688 9.78125 C 19.354655 8.6802766 19.402211 7.4329916 19.933594 6.359375 L 19.935547 6.3554688 L 20.898438 4.4355469 C 22.220008 4.1567333 23.589266 4 25 4 z M 28 4.2480469 C 29.55025 4.4841031 31.045493 4.8789704 32.445312 5.4511719 L 31.132812 7.7441406 A 1.0001 1.0001 0 0 0 31.128906 7.75 C 31.00959 7.9621175 30.909065 8.1816803 30.820312 8.40625 L 28.9375 6.5234375 C 28.332482 5.918419 28 5.1178609 28 4.2597656 L 28 4.2480469 z M 18.28125 5.1933594 L 18.146484 5.4609375 A 1.0001 1.0001 0 0 0 18.144531 5.4648438 C 17.373487 7.0186142 17.292978 8.8263629 17.919922 10.439453 L 18.300781 11.742188 C 17.976635 11.617061 17.64425 11.508928 17.296875 11.439453 C 16.20529 11.221136 15.25588 10.587252 14.642578 9.6679688 L 14.642578 9.6660156 L 13.408203 7.8066406 C 14.877002 6.7174496 16.514051 5.8349222 18.28125 5.1933594 z M 34.255859 6.3125 C 36.456266 7.4932091 38.377767 9.0847542 39.925781 10.974609 L 39.603516 11.082031 C 37.450187 11.796924 36 13.814978 36 16.070312 L 36 19 A 1.0001 1.0001 0 0 0 36.001953 19.070312 C 35.477212 19.323484 34.96663 19.619308 34.542969 20.042969 C 33.931531 20.654407 33.094982 21 32.230469 21 L 30.675781 21 C 30.429463 20.238109 30.047549 19.516627 29.498047 18.898438 C 29.442111 18.835509 29.377582 18.779263 29.318359 18.71875 L 30.779297 17.71875 L 30.785156 17.714844 C 32.798574 16.352049 33.579325 13.755614 32.677734 11.507812 C 32.525546 11.127341 32.449219 10.724527 32.449219 10.320312 C 32.449219 9.7762389 32.594501 9.2221887 32.871094 8.7304688 L 34.255859 6.3125 z M 11.857422 9.0839844 L 12.976562 10.773438 A 1.0001 1.0001 0 0 0 12.978516 10.775391 C 13.885238 12.135474 15.296347 13.078801 16.904297 13.400391 C 18.356484 13.690828 19.538449 14.729596 20.013672 16.123047 A 1.0001 1.0001 0 0 0 20.015625 16.126953 L 20.849609 18.546875 C 20.728449 18.659951 20.610789 18.775997 20.501953 18.898438 C 19.716079 19.782546 19.256121 20.871355 19.083984 22 L 17.080078 22 C 16.580946 22 16.082357 21.850693 15.654297 21.568359 L 15.652344 21.566406 C 14.886448 21.056457 14.001518 20.800781 13.119141 20.800781 C 12.99256 20.800781 12.867786 20.821486 12.742188 20.832031 C 11.980238 18.069923 10.379029 15.621116 8.1640625 13.804688 C 9.1239851 12.040536 10.375303 10.449952 11.857422 9.0839844 z M 41.154297 12.671875 C 42.526304 14.804708 43.452026 17.223898 43.8125 19.820312 L 39.652344 18.685547 A 1.0001 1.0001 0 0 0 39.650391 18.685547 C 39.195007 18.562458 38.729621 18.5 38.269531 18.5 C 38.176722 18.5 38.092392 18.547856 38 18.552734 L 38 16.070312 C 38 14.666543 38.889117 13.424372 40.234375 12.978516 A 1.0001 1.0001 0 0 0 40.236328 12.978516 L 41.154297 12.671875 z M 7.2890625 15.679688 C 9.0013582 17.211847 10.228982 19.206063 10.828125 21.429688 C 10.681359 21.514679 10.533981 21.59844 10.396484 21.697266 A 1.0001 1.0001 0 0 0 10.378906 21.710938 L 9.1289062 22.650391 C 8.784346 22.908434 8.383887 23.074253 7.9414062 23.140625 L 6.0488281 23.410156 C 6.0240187 23.027766 6 22.644416 6 22.255859 C 6 19.934776 6.4678475 17.722982 7.2890625 15.679688 z M 25 19 C 25.688051 19 26.258782 19.12222 26.742188 19.326172 A 1.0001 1.0001 0 0 0 27.445312 19.71875 C 27.65098 19.87004 27.836479 20.040403 28.001953 20.226562 C 28.652013 20.957881 29 21.972222 29 23 C 29 23.766325 28.805387 24.524425 28.4375 25.164062 A 1.0001 1.0001 0 0 0 28.017578 25.751953 C 28.011762 25.758597 28.007818 25.766839 28.001953 25.773438 C 27.351893 26.504756 26.416666 27 25 27 C 23.583334 27 22.648107 26.504756 21.998047 25.773438 C 21.368761 25.06549 21.029298 24.091491 21.007812 23.097656 A 1.0001 1.0001 0 0 0 21.007812 22.898438 C 21.03012 21.905961 21.369587 20.933582 21.998047 20.226562 C 22.084314 20.129512 22.192293 20.049067 22.289062 19.960938 A 1.0001 1.0001 0 0 0 22.908203 19.515625 C 23.460187 19.202772 24.131035 19 25 19 z M 38.269531 20.5 C 38.548816 20.5 38.842974 20.53867 39.126953 20.615234 L 43.984375 21.939453 C 43.986272 22.045806 44 22.149074 44 22.255859 C 44 25.400269 43.16842 28.348447 41.712891 30.929688 L 38.837891 30.880859 A 1.0001 1.0001 0 0 0 38.777344 30.880859 C 37.642318 30.929899 36.654929 30.159413 36.429688 29.033203 C 36.078848 27.292006 34.681833 25.932879 32.916016 25.644531 L 30.597656 25.253906 C 30.866013 24.531724 31 23.764747 31 23 L 32.230469 23 C 33.625955 23 34.968469 22.445593 35.957031 21.457031 C 36.577887 20.836175 37.411436 20.5 38.269531 20.5 z M 13.119141 22.800781 C 13.615904 22.800781 14.111332 22.943362 14.544922 23.232422 A 1.0001 1.0001 0 0 0 14.548828 23.234375 C 15.300279 23.731045 16.180078 24 17.080078 24 L 19.083984 24 C 19.212767 24.844383 19.505301 25.663873 19.974609 26.394531 L 17.621094 27.570312 C 16.764753 27.998162 16.034295 28.642648 15.503906 29.439453 A 1.0001 1.0001 0 0 0 15.501953 29.443359 C 14.852668 30.416436 13.762735 31 12.591797 31 L 9 31 A 1.0001 1.0001 0 0 0 8.4296875 31.169922 C 7.3976593 29.403609 6.6595928 27.462531 6.2871094 25.396484 L 8.2304688 25.119141 A 1.0001 1.0001 0 0 0 8.2382812 25.119141 C 8.9951809 25.005606 9.7149671 24.711333 10.330078 24.25 L 11.580078 23.308594 L 11.564453 23.322266 C 11.767917 23.176026 11.974401 23.069323 12.181641 22.986328 A 1.0001 1.0001 0 0 0 12.435547 22.900391 C 12.665144 22.837313 12.887341 22.800781 13.119141 22.800781 z M 29.5 27.097656 L 32.583984 27.615234 A 1.0001 1.0001 0 0 0 32.589844 27.617188 C 33.541038 27.771057 34.280007 28.491011 34.46875 29.427734 C 34.884248 31.500555 36.758929 32.969835 38.863281 32.878906 L 38.802734 32.878906 L 40.423828 32.90625 C 40.386213 32.956407 40.35454 33.010768 40.316406 33.060547 A 1.0001 1.0001 0 0 0 40.181641 33.289062 C 40.0723 33.368156 39.42457 33.872302 37.1875 34.541016 C 35.221116 35.128814 32.231454 35.723847 28 35.923828 L 28 28.181641 C 28.554495 27.875048 29.099845 27.549541 29.498047 27.101562 C 29.499002 27.100488 29.499046 27.098731 29.5 27.097656 z M 21.486328 27.873047 C 21.656138 27.977531 21.823928 28.084286 22 28.181641 L 22 35.923828 C 17.768546 35.723847 14.778884 35.128814 12.8125 34.541016 C 10.574188 33.871931 9.924972 33.367632 9.8164062 33.289062 A 1.0001 1.0001 0 0 0 9.6816406 33.058594 C 9.6671442 33.039649 9.6550467 33.019 9.640625 33 L 12.591797 33 C 14.429909 33 16.149112 32.080288 17.167969 30.550781 A 1.0001 1.0001 0 0 0 17.169922 30.548828 C 17.507258 30.042047 17.970541 29.631528 18.515625 29.359375 L 21.447266 27.894531 A 1.0001 1.0001 0 0 0 21.486328 27.873047 z M 24 29 L 25 29 L 26 29 L 26 35.984375 C 25.66593 35.989396 25.34781 36 25 36 C 24.65219 36 24.33407 35.989396 24 35.984375 L 24 29 z M 10 35.492188 C 10.610298 35.818537 10.713297 36.002546 12.240234 36.458984 C 14.51176 37.137998 17.911365 37.801153 22.732422 37.962891 A 1.0001 1.0001 0 0 0 23 38 L 27 38 A 1.0001 1.0001 0 0 0 27.267578 37.962891 C 32.08971 37.801271 35.487922 37.138093 37.759766 36.458984 C 39.286703 36.002546 39.389702 35.818537 40 35.492188 L 40 37.617188 A 1.0001 1.0001 0 0 0 40 37.919922 L 40 38.517578 C 39.995282 38.523091 39.989628 38.531967 39.951172 38.572266 C 39.855372 38.672607 39.630301 38.841747 39.291016 39.013672 C 38.612445 39.357521 37.500244 39.718249 36.103516 40.017578 C 33.310061 40.61619 29.3606 41 25 41 C 20.6394 41 16.689941 40.616236 13.896484 40.017578 C 12.499756 39.718249 11.387555 39.357521 10.708984 39.013672 C 10.369699 38.841747 10.144625 38.672607 10.048828 38.572266 C 10.010374 38.531987 10.004718 38.523085 10 38.517578 L 10 37.917969 A 1.0001 1.0001 0 0 0 10 37.613281 L 10 35.492188 z M 8.3730469 39.427734 C 8.4698839 39.595138 8.4760143 39.82162 8.6015625 39.953125 C 8.9320117 40.299252 9.3343635 40.55855 9.8046875 40.796875 C 10.745336 41.273526 11.977916 41.651485 13.476562 41.972656 C 16.473857 42.615 20.5236 43 25 43 C 29.4764 43 33.526144 42.614998 36.523438 41.972656 C 38.022084 41.651485 39.254664 41.273526 40.195312 40.796875 C 40.665638 40.55855 41.067988 40.299252 41.398438 39.953125 C 41.523986 39.82162 41.530116 39.595138 41.626953 39.427734 C 41.651383 39.451984 41.719033 39.484553 41.740234 39.507812 C 41.965317 39.754724 42 39.898209 42 40 L 42 44 C 42 43.9721 42.0234 43.9932 41.898438 44.128906 C 41.773477 44.264602 41.510133 44.467482 41.121094 44.671875 C 40.343016 45.080661 39.087834 45.501308 37.511719 45.851562 C 34.359489 46.552071 29.910446 47 25 47 C 20.089554 47 15.640511 46.552072 12.488281 45.851562 C 10.912166 45.501309 9.6569842 45.080661 8.8789062 44.671875 C 8.4898674 44.467482 8.2265221 44.264602 8.1015625 44.128906 C 7.9766029 43.99321 8 43.972104 8 44 L 8 40 C 8 39.898209 8.034683 39.754726 8.2597656 39.507812 C 8.2809656 39.484552 8.3486176 39.451984 8.3730469 39.427734 z"/></svg>