<svg xmlns="http://www.w3.org/2000/svg"  viewBox="0 0 50 50" width="50px" height="50px"><path d="M 7 2 L 7 48 L 26.158203 48 L 26.726562 46 L 9 46 L 9 4 L 29 4 L 29 16 L 41 16 L 41 28.410156 L 41.625 27.785156 C 42.038 27.372156 42.502 27.029859 43 26.755859 L 43 14.585938 L 30.414062 2 L 7 2 z M 31 5.4140625 L 39.585938 14 L 31 14 L 31 5.4140625 z M 36 23 A 2 2 0 0 0 34 25 A 2 2 0 0 0 34.136719 25.726562 L 28.298828 33.025391 A 2 2 0 0 0 28 33 A 2 2 0 0 0 27.597656 33.042969 L 21.896484 26.628906 A 2 2 0 0 0 22 26 A 2 2 0 0 0 20 24 A 2 2 0 0 0 18 26 A 2 2 0 0 0 18.068359 26.517578 L 14.515625 30.070312 A 2 2 0 0 0 14 30 A 2 2 0 0 0 12 32 A 2 2 0 0 0 14 34 A 2 2 0 0 0 16 32 A 2 2 0 0 0 15.931641 31.482422 L 19.484375 27.929688 A 2 2 0 0 0 20 28 A 2 2 0 0 0 20.402344 27.957031 L 26.103516 34.371094 A 2 2 0 0 0 26 35 A 2 2 0 0 0 28 37 A 2 2 0 0 0 30 35 A 2 2 0 0 0 29.863281 34.273438 L 35.701172 26.974609 A 2 2 0 0 0 36 27 A 2 2 0 0 0 38 25 A 2 2 0 0 0 36 23 z M 45.962891 28 C 44.962891 28 44.061719 28.399609 43.261719 29.099609 L 43.0625 29.199219 L 42.962891 29.300781 L 42.662109 29.599609 L 41.962891 30.300781 L 41.761719 30.5 L 30.0625 42.300781 C 29.9625 42.400781 29.861719 42.599219 29.761719 42.699219 L 28.0625 48.699219 C 27.8625 49.199219 28.161719 49.800391 28.761719 49.900391 C 28.961719 50.000391 29.161719 50.000391 29.261719 49.900391 L 35.261719 48.300781 C 35.461719 48.300781 35.561719 48.2 35.761719 48 L 48.5625 35.199219 L 48.861328 35 C 50.461328 33.4 50.461328 30.799219 48.861328 29.199219 C 48.061328 28.299219 46.962891 28 45.962891 28 z M 45.962891 30 C 46.462891 30 47.062891 30.199609 47.462891 30.599609 C 48.262891 31.399609 48.2625 32.600391 47.5625 33.400391 L 44.662109 30.5 C 45.062109 30.2 45.462891 30 45.962891 30 z M 43.162109 31.900391 L 46.162109 34.900391 L 35.261719 45.800781 L 32.261719 42.900391 L 43.162109 31.900391 z M 31.261719 44.800781 L 33.361328 46.900391 L 30.462891 47.699219 L 31.261719 44.800781 z"/></svg>