<svg xmlns="http://www.w3.org/2000/svg"  viewBox="0 0 50 50" width="50px" height="50px"><path d="M 9 3.5859375 L 4.2929688 8.2929688 A 1.0001 1.0001 0 1 0 5.7070312 9.7070312 L 8 7.4140625 L 8 15 A 1.0001 1.0001 0 1 0 10 15 L 10 7.4140625 L 12.292969 9.7070312 A 1.0001 1.0001 0 1 0 13.707031 8.2929688 L 9 3.5859375 z M 9 18 A 1 1 0 0 0 9 20 A 1 1 0 0 0 9 18 z M 9 22 A 1 1 0 0 0 9 24 A 1 1 0 0 0 9 22 z M 9 26 A 1 1 0 0 0 9 28 A 1 1 0 0 0 9 26 z M 9 30 A 1 1 0 0 0 9 32 A 1 1 0 0 0 9 30 z M 9 34 A 1 1 0 0 0 9 36 A 1 1 0 0 0 9 34 z M 40.990234 35.990234 A 1.0001 1.0001 0 0 0 40.292969 37.707031 L 42.585938 40 L 11.837891 40 C 11.715442 39.627031 11.523973 39.271354 11.248047 38.960938 C 10.731441 38.379756 9.9166665 38 9 38 C 8.0833335 38 7.268559 38.379756 6.7519531 38.960938 C 6.2353472 39.542119 6 40.277778 6 41 C 6 41.722222 6.2353472 42.457881 6.7519531 43.039062 C 7.268559 43.620244 8.0833335 44 9 44 C 9.9166665 44 10.731441 43.620245 11.248047 43.039062 C 11.523973 42.728646 11.715442 42.372969 11.837891 42 L 42.585938 42 L 40.292969 44.292969 A 1.0001 1.0001 0 1 0 41.707031 45.707031 L 46.414062 41 L 41.707031 36.292969 A 1.0001 1.0001 0 0 0 40.990234 35.990234 z M 9 40 C 9.4166663 40 9.6018927 40.120244 9.7519531 40.289062 C 9.9020136 40.457881 10 40.722222 10 41 C 10 41.277778 9.9020136 41.542119 9.7519531 41.710938 C 9.6018927 41.879756 9.4166663 42 9 42 C 8.5833337 42 8.3981073 41.879756 8.2480469 41.710938 C 8.0979864 41.542119 8 41.277778 8 41 C 8 40.722222 8.0979864 40.457881 8.2480469 40.289062 C 8.3981073 40.120244 8.5833337 40 9 40 z"/></svg>