<svg xmlns="http://www.w3.org/2000/svg"  viewBox="0 0 50 50" width="50px" height="50px"><path d="M 10 2 C 6.6983746 2 4 4.6983746 4 8 L 4 42 L 4.0253906 42 C 4.0103453 42.164902 4 42.33134 4 42.5 C 4 45.525577 6.4744232 48 9.5 48 L 43 48 L 43 46 L 9.5 46 C 7.5555768 46 6 44.444423 6 42.5 C 6 40.555577 7.5555768 39 9.5 39 L 43 39 L 43 38 L 43 37 L 43 2 L 10 2 z M 10 4 L 41 4 L 41 37 L 9.5 37 C 8.1733466 37 6.9525799 37.476278 6 38.265625 L 6 8 C 6 5.7796254 7.7796254 4 10 4 z M 18 7 C 16.906937 7 16 7.9069372 16 9 L 16 11 C 16 12.093063 16.906937 13 18 13 L 18 18 C 18 18.605821 17.83052 18.758021 17.265625 19.462891 L 12.099609 25.904297 C 10.806748 27.517169 10.724989 29.587607 11.521484 31.193359 C 12.318232 32.799621 14.009962 34 16.089844 34 L 29.910156 34 C 31.989649 34 33.679694 32.799549 34.476562 31.193359 C 35.273179 29.587678 35.193301 27.517229 33.900391 25.904297 L 33.900391 25.902344 L 28.734375 19.462891 C 28.16948 18.758021 28 18.605821 28 18 L 28 13 C 29.093063 13 30 12.093063 30 11 L 30 9 C 30 7.9069372 29.093063 7 28 7 L 18 7 z M 18 9 L 28 9 L 28 11 L 27.167969 11 A 1.0001 1.0001 0 0 0 26.841797 11 L 19.154297 11 A 1.0001 1.0001 0 0 0 18.984375 10.986328 A 1.0001 1.0001 0 0 0 18.839844 11 L 18 11 L 18 9 z M 20 13 L 26 13 L 26 18 C 26 19.186179 26.608723 20.00776 27.173828 20.712891 L 27.416016 21.015625 C 23.555743 21.055801 23.080478 20.985925 18.599609 20.996094 L 18.826172 20.712891 C 19.391277 20.00776 20 19.186179 20 18 L 20 13 z M 23 17 A 1 1 0 0 0 23 19 A 1 1 0 0 0 23 17 z M 17.001953 22.988281 A 1.0001 1.0001 0 0 0 17.150391 22.998047 C 24.222864 22.954149 22.574799 23.09887 29.007812 23 L 32.339844 27.154297 C 33.150755 28.165143 33.168429 29.331377 32.685547 30.304688 C 32.202665 31.277998 31.236664 32 29.910156 32 L 16.089844 32 C 14.762726 32 13.797205 31.277926 13.314453 30.304688 C 12.831701 29.331449 12.849197 28.165203 13.660156 27.154297 L 17.001953 22.988281 z M 27 25 A 2 2 0 0 0 27 29 A 2 2 0 0 0 27 25 z M 19.5 27 A 1.5 1.5 0 0 0 19.5 30 A 1.5 1.5 0 0 0 19.5 27 z"/></svg>