<svg xmlns="http://www.w3.org/2000/svg"  viewBox="0 0 50 50" width="50px" height="50px"><path d="M 40.099609 5.4179688 A 1.0001 1.0001 0 0 0 39.419922 5.7363281 L 34.587891 10.953125 A 1.0001 1.0001 0 0 0 34.640625 12.367188 L 28.525391 18.96875 A 1.0001 1.0001 0 0 0 28.578125 20.380859 L 24.841797 24.416016 L 22.822266 22.544922 C 22.935276 22.047271 23 21.530901 23 21 C 23 17.145852 19.854151 14 16 14 C 12.145849 14 9 17.145852 9 21 C 9 24.854148 12.145849 28 16 28 C 18.564015 28 20.807954 26.603961 22.027344 24.537109 L 25.576172 27.822266 C 25.367511 27.980994 25.171126 28.161003 24.992188 28.365234 C 24.992188 28.365234 24.990234 28.367188 24.990234 28.367188 L 19.666016 34.326172 C 18.812263 33.512779 16.272759 31.098178 15.222656 30.033203 C 14.029646 28.823977 12.372377 28 10.5 28 C 6.9217323 28 4 30.921732 4 34.5 L 4 44 A 1.0001 1.0001 0 1 0 6 44 L 6 34.5 C 6 32.002268 8.0022677 30 10.5 30 C 11.789623 30 12.931839 30.558726 13.798828 31.4375 C 15.115355 32.772672 19.029297 36.492188 19.029297 36.492188 A 1.0001 1.0001 0 0 0 20.464844 36.433594 L 26.488281 29.691406 A 1.0001 1.0001 0 0 0 26.496094 29.683594 C 27.231418 28.843127 28.476528 28.760166 29.318359 29.496094 C 30.158092 30.230775 30.239721 31.475997 29.505859 32.316406 C 29.505859 32.316406 29.505859 32.318359 29.505859 32.318359 L 21.509766 41.3125 A 1.0001 1.0001 0 0 0 21.505859 41.316406 C 21.10636 41.772494 20.556001 42 19.998047 42 C 19.529706 42 19.067947 41.841024 18.683594 41.505859 L 18.681641 41.505859 L 11.666016 35.253906 A 1.0001168 1.0001168 0 1 0 10.333984 36.746094 L 17.359375 43.003906 A 1.0001 1.0001 0 0 0 17.365234 43.011719 C 18.120592 43.67167 19.064997 44 19.998047 44 C 21.110093 44 22.223258 43.532684 23.009766 42.634766 L 31.005859 33.640625 A 1.0001 1.0001 0 0 0 31.009766 33.634766 C 32.456476 31.981193 32.288527 29.43711 30.634766 27.990234 C 30.459237 27.836788 30.269392 27.711015 30.076172 27.59375 L 32.980469 24.458984 L 32.982422 24.460938 A 1.0001 1.0001 0 0 0 34.394531 24.40625 L 36.673828 21.945312 L 31.539062 44 L 33.589844 44 L 38.5 22.910156 L 43.410156 44 L 45.460938 44 L 39.59375 18.794922 L 40.509766 17.802734 A 1.0001 1.0001 0 0 0 41.923828 17.75 L 46.755859 12.53125 A 1.0001 1.0001 0 0 0 46.701172 11.119141 L 40.832031 5.6816406 A 1.0001 1.0001 0 0 0 40.099609 5.4179688 z M 40.207031 7.8300781 L 44.609375 11.90625 L 41.134766 15.65625 L 39.019531 13.695312 L 36.734375 11.578125 L 40.207031 7.8300781 z M 36.109375 13.726562 L 39.042969 16.443359 L 33.607422 22.310547 L 30.673828 19.59375 L 36.109375 13.726562 z M 16 16 C 18.773271 16 21 18.226731 21 21 C 21 23.773269 18.773271 26 16 26 C 13.226729 26 11 23.773269 11 21 C 11 18.226731 13.226729 16 16 16 z M 30.044922 21.740234 L 31.513672 23.101562 L 27.882812 27.019531 C 27.83337 27.021013 27.783722 27.012338 27.734375 27.015625 C 27.709358 27.017291 27.685138 27.025213 27.660156 27.027344 L 26.308594 25.775391 L 30.044922 21.740234 z"/></svg>