<svg xmlns="http://www.w3.org/2000/svg"  viewBox="0 0 50 50" width="50px" height="50px"><path d="M 6.9042969 4 C 5.3111315 4 4 5.3111315 4 6.9042969 L 4 25 L 4 27 L 4 43.095703 C 4 44.688869 5.3111315 46 6.9042969 46 L 24 46 L 26 46 L 43.095703 46 C 44.688869 46 46 44.688869 46 43.095703 L 46 27 L 46 25 L 46 6.9042969 C 46 5.3111315 44.688869 4 43.095703 4 L 6.9042969 4 z M 6.9042969 6 L 43.095703 6 C 43.598538 6 44 6.4014623 44 6.9042969 L 44 25 L 26 25 L 24 25 L 6 25 L 6 6.9042969 C 6 6.4014623 6.4014623 6 6.9042969 6 z M 14.839844 9.5195312 C 11.655844 9.5195313 9.6191406 11.803812 9.6191406 15.382812 C 9.6191406 19.007812 11.633094 21.253906 14.871094 21.253906 C 17.853094 21.253906 19.757766 19.402047 19.759766 16.498047 L 19.759766 15.097656 L 15.121094 15.097656 L 15.121094 16.662109 L 17.808594 16.662109 L 17.800781 16.894531 C 17.769781 18.435531 16.606344 19.472656 14.902344 19.472656 C 12.911344 19.472656 11.664062 17.907187 11.664062 15.367188 C 11.664062 12.857188 12.887844 11.300781 14.839844 11.300781 C 16.272844 11.300781 17.272781 12.005391 17.675781 13.275391 L 19.666016 13.275391 C 19.310016 10.990391 17.418844 9.5195312 14.839844 9.5195312 z M 22.003906 9.7988281 L 22.003906 20.974609 L 24.001953 20.974609 L 24.001953 17.310547 L 26.425781 17.310547 C 28.686781 17.310547 30.267578 15.793125 30.267578 13.578125 C 30.267578 11.324125 28.741719 9.7988281 26.511719 9.7988281 L 22.003906 9.7988281 z M 34.855469 9.7988281 L 30.890625 20.976562 L 32.910156 20.976562 L 33.871094 18.117188 L 37.984375 18.117188 L 38.931641 20.976562 L 41.076172 20.976562 L 37.101562 9.7988281 L 34.855469 9.7988281 z M 24.001953 11.472656 L 25.984375 11.472656 C 27.424375 11.472656 28.236328 12.208125 28.236328 13.578125 C 28.236328 14.910125 27.401563 15.654297 25.976562 15.654297 L 24.001953 15.654297 L 24.001953 11.472656 z M 35.869141 11.929688 L 36.003906 11.929688 L 37.521484 16.537109 L 34.337891 16.537109 L 35.869141 11.929688 z M 6 27 L 24 27 L 24 44 L 6.9042969 44 C 6.4014623 44 6 43.598538 6 43.095703 L 6 27 z M 26 27 L 44 27 L 44 43.095703 C 44 43.598538 43.598538 44 43.095703 44 L 26 44 L 26 27 z M 14 31 L 14 35 L 10 35 L 10 37 L 14 37 L 14 41 L 16 41 L 16 37 L 20 37 L 20 35 L 16 35 L 16 31 L 14 31 z M 30 35 L 30 37 L 40 37 L 40 35 L 30 35 z"/></svg>