<svg xmlns="http://www.w3.org/2000/svg"  viewBox="0 0 50 50" width="50px" height="50px"><path d="M 25 2 C 12.32034 2 2 12.32034 2 25 C 2 37.65608 12.282393 47.959761 24.929688 47.998047 C 24.953251 47.998118 24.97642 48 25 48 C 37.67966 48 48 37.67966 48 25 C 48 12.32034 37.67966 2 25 2 z M 24 4.0253906 L 24 24.585938 L 9.4785156 39.107422 C 6.0862621 35.377397 4 30.43803 4 25 C 4 13.739179 12.868252 4.5479396 24 4.0253906 z M 26 4.0253906 C 27.399183 4.0910714 28.761625 4.2946086 30.076172 4.6210938 A 1 1 0 0 0 30 5 A 1 1 0 0 0 31 6 A 1 1 0 0 0 31.980469 5.1914062 C 38.404394 7.4557178 43.381496 12.762161 45.21875 19.375 A 1 1 0 0 0 45 20 A 1 1 0 0 0 45.603516 20.916016 C 45.86399 22.236982 46 23.602694 46 25 A 1 1 0 0 0 45 26 A 1 1 0 0 0 45.902344 26.994141 C 45.654135 29.626348 44.904938 32.108188 43.775391 34.367188 A 1 1 0 0 0 43 34 A 1 1 0 0 0 42 35 A 1 1 0 0 0 42.869141 35.990234 C 41.519955 38.178646 39.786604 40.097274 37.753906 41.65625 A 1 1 0 0 0 38 41 A 1 1 0 0 0 37 40 A 1 1 0 0 0 36 41 A 1 1 0 0 0 37 42 A 1 1 0 0 0 37.416016 41.908203 C 36.608979 42.501934 35.770071 43.052064 34.880859 43.527344 A 1 1 0 0 0 34 43 A 1 1 0 0 0 33 44 A 1 1 0 0 0 33.078125 44.386719 C 30.591108 45.424421 27.862768 46 25 46 C 22.134733 46 19.416077 45.407513 16.931641 44.363281 A 1 1 0 0 0 17 44 A 1 1 0 0 0 16 43 A 1 1 0 0 0 15.132812 43.503906 C 14.263318 43.036487 13.428082 42.512118 12.636719 41.931641 A 1 1 0 0 0 13 42 A 1 1 0 0 0 14 41 A 1 1 0 0 0 13 40 A 1 1 0 0 0 12 41 A 1 1 0 0 0 12.220703 41.626953 C 11.763961 41.274597 11.3188 40.90911 10.892578 40.521484 L 25.707031 25.707031 A 1.0001 1.0001 0 0 0 26 25 L 26 4.0253906 z M 28 7 A 1 1 0 0 0 27 8 A 1 1 0 0 0 28 9 A 1 1 0 0 0 29 8 A 1 1 0 0 0 28 7 z M 34 7 A 1 1 0 0 0 33 8 A 1 1 0 0 0 34 9 A 1 1 0 0 0 35 8 A 1 1 0 0 0 34 7 z M 31 10 A 1 1 0 0 0 30 11 A 1 1 0 0 0 31 12 A 1 1 0 0 0 32 11 A 1 1 0 0 0 31 10 z M 37 10 A 1 1 0 0 0 36 11 A 1 1 0 0 0 37 12 A 1 1 0 0 0 38 11 A 1 1 0 0 0 37 10 z M 28 13 A 1 1 0 0 0 27 14 A 1 1 0 0 0 28 15 A 1 1 0 0 0 29 14 A 1 1 0 0 0 28 13 z M 34 13 A 1 1 0 0 0 33 14 A 1 1 0 0 0 34 15 A 1 1 0 0 0 35 14 A 1 1 0 0 0 34 13 z M 40 13 A 1 1 0 0 0 39 14 A 1 1 0 0 0 40 15 A 1 1 0 0 0 41 14 A 1 1 0 0 0 40 13 z M 31 16 A 1 1 0 0 0 30 17 A 1 1 0 0 0 31 18 A 1 1 0 0 0 32 17 A 1 1 0 0 0 31 16 z M 37 16 A 1 1 0 0 0 36 17 A 1 1 0 0 0 37 18 A 1 1 0 0 0 38 17 A 1 1 0 0 0 37 16 z M 43 16 A 1 1 0 0 0 42 17 A 1 1 0 0 0 43 18 A 1 1 0 0 0 44 17 A 1 1 0 0 0 43 16 z M 28 19 A 1 1 0 0 0 27 20 A 1 1 0 0 0 28 21 A 1 1 0 0 0 29 20 A 1 1 0 0 0 28 19 z M 34 19 A 1 1 0 0 0 33 20 A 1 1 0 0 0 34 21 A 1 1 0 0 0 35 20 A 1 1 0 0 0 34 19 z M 40 19 A 1 1 0 0 0 39 20 A 1 1 0 0 0 40 21 A 1 1 0 0 0 41 20 A 1 1 0 0 0 40 19 z M 31 22 A 1 1 0 0 0 30 23 A 1 1 0 0 0 31 24 A 1 1 0 0 0 32 23 A 1 1 0 0 0 31 22 z M 37 22 A 1 1 0 0 0 36 23 A 1 1 0 0 0 37 24 A 1 1 0 0 0 38 23 A 1 1 0 0 0 37 22 z M 43 22 A 1 1 0 0 0 42 23 A 1 1 0 0 0 43 24 A 1 1 0 0 0 44 23 A 1 1 0 0 0 43 22 z M 28 25 A 1 1 0 0 0 27 26 A 1 1 0 0 0 28 27 A 1 1 0 0 0 29 26 A 1 1 0 0 0 28 25 z M 34 25 A 1 1 0 0 0 33 26 A 1 1 0 0 0 34 27 A 1 1 0 0 0 35 26 A 1 1 0 0 0 34 25 z M 40 25 A 1 1 0 0 0 39 26 A 1 1 0 0 0 40 27 A 1 1 0 0 0 41 26 A 1 1 0 0 0 40 25 z M 25 28 A 1 1 0 0 0 24 29 A 1 1 0 0 0 25 30 A 1 1 0 0 0 26 29 A 1 1 0 0 0 25 28 z M 31 28 A 1 1 0 0 0 30 29 A 1 1 0 0 0 31 30 A 1 1 0 0 0 32 29 A 1 1 0 0 0 31 28 z M 37 28 A 1 1 0 0 0 36 29 A 1 1 0 0 0 37 30 A 1 1 0 0 0 38 29 A 1 1 0 0 0 37 28 z M 43 28 A 1 1 0 0 0 42 29 A 1 1 0 0 0 43 30 A 1 1 0 0 0 44 29 A 1 1 0 0 0 43 28 z M 22 31 A 1 1 0 0 0 21 32 A 1 1 0 0 0 22 33 A 1 1 0 0 0 23 32 A 1 1 0 0 0 22 31 z M 28 31 A 1 1 0 0 0 27 32 A 1 1 0 0 0 28 33 A 1 1 0 0 0 29 32 A 1 1 0 0 0 28 31 z M 34 31 A 1 1 0 0 0 33 32 A 1 1 0 0 0 34 33 A 1 1 0 0 0 35 32 A 1 1 0 0 0 34 31 z M 40 31 A 1 1 0 0 0 39 32 A 1 1 0 0 0 40 33 A 1 1 0 0 0 41 32 A 1 1 0 0 0 40 31 z M 19 34 A 1 1 0 0 0 18 35 A 1 1 0 0 0 19 36 A 1 1 0 0 0 20 35 A 1 1 0 0 0 19 34 z M 25 34 A 1 1 0 0 0 24 35 A 1 1 0 0 0 25 36 A 1 1 0 0 0 26 35 A 1 1 0 0 0 25 34 z M 31 34 A 1 1 0 0 0 30 35 A 1 1 0 0 0 31 36 A 1 1 0 0 0 32 35 A 1 1 0 0 0 31 34 z M 37 34 A 1 1 0 0 0 36 35 A 1 1 0 0 0 37 36 A 1 1 0 0 0 38 35 A 1 1 0 0 0 37 34 z M 16 37 A 1 1 0 0 0 15 38 A 1 1 0 0 0 16 39 A 1 1 0 0 0 17 38 A 1 1 0 0 0 16 37 z M 22 37 A 1 1 0 0 0 21 38 A 1 1 0 0 0 22 39 A 1 1 0 0 0 23 38 A 1 1 0 0 0 22 37 z M 28 37 A 1 1 0 0 0 27 38 A 1 1 0 0 0 28 39 A 1 1 0 0 0 29 38 A 1 1 0 0 0 28 37 z M 34 37 A 1 1 0 0 0 33 38 A 1 1 0 0 0 34 39 A 1 1 0 0 0 35 38 A 1 1 0 0 0 34 37 z M 40 37 A 1 1 0 0 0 39 38 A 1 1 0 0 0 40 39 A 1 1 0 0 0 41 38 A 1 1 0 0 0 40 37 z M 19 40 A 1 1 0 0 0 18 41 A 1 1 0 0 0 19 42 A 1 1 0 0 0 20 41 A 1 1 0 0 0 19 40 z M 25 40 A 1 1 0 0 0 24 41 A 1 1 0 0 0 25 42 A 1 1 0 0 0 26 41 A 1 1 0 0 0 25 40 z M 31 40 A 1 1 0 0 0 30 41 A 1 1 0 0 0 31 42 A 1 1 0 0 0 32 41 A 1 1 0 0 0 31 40 z M 22 43 A 1 1 0 0 0 21 44 A 1 1 0 0 0 22 45 A 1 1 0 0 0 23 44 A 1 1 0 0 0 22 43 z M 28 43 A 1 1 0 0 0 27 44 A 1 1 0 0 0 28 45 A 1 1 0 0 0 29 44 A 1 1 0 0 0 28 43 z"/></svg>