<?xml version="1.0" encoding="utf-8"?><!-- Generator: Adobe Illustrator 18.1.1, SVG Export Plug-In . SVG Version: 6.00 Build 0)  --><svg xmlns="http://www.w3.org/2000/svg" xmlns:xlink="http://www.w3.org/1999/xlink" viewBox="0 0 50 50" width="50px" height="50px"><path fill="none" stroke="#000000" stroke-width="2" stroke-linecap="round" stroke-linejoin="round" stroke-miterlimit="10" d="M40.4,1L40,1c-1.7,0-3,1.3-3,3v34c0,1.7-1.3,3-3,3H16c-1.7,0-3-1.3-3-3V4c0-1.7-1.3-3-3-3L9.6,1"/><polyline fill="none" stroke="#000000" stroke-width="2" stroke-linejoin="round" stroke-miterlimit="10" points="29,41 29,44 25,49 21,44 21,41 "/><line fill="none" stroke="#000000" stroke-width="2" stroke-miterlimit="10" x1="25" y1="21" x2="25" y2="2"/><line fill="none" stroke="#000000" stroke-width="2" stroke-miterlimit="10" x1="25" y1="11" x2="33" y2="11"/><line fill="none" stroke="#000000" stroke-width="2" stroke-miterlimit="10" x1="25" y1="5" x2="33" y2="5"/><line fill="none" stroke="#000000" stroke-width="2" stroke-miterlimit="10" x1="25" y1="17" x2="33" y2="17"/><line fill="none" stroke="#000000" stroke-width="2" stroke-miterlimit="10" x1="25" y1="41" x2="25" y2="23"/><line fill="none" stroke="#000000" stroke-width="2" stroke-miterlimit="10" x1="25" y1="29" x2="33" y2="29"/><line fill="none" stroke="#000000" stroke-width="2" stroke-miterlimit="10" x1="25" y1="35" x2="33" y2="35"/><line fill="none" stroke="#000000" stroke-width="2" stroke-miterlimit="10" x1="13" y1="23" x2="37" y2="23"/></svg>