<svg xmlns="http://www.w3.org/2000/svg"  viewBox="0 0 50 50" width="50px" height="50px"><path d="M 18.876953 2.0253906 A 1.0001 1.0001 0 0 0 17.986328 2.5214844 L 11.779297 12.791016 A 1.0006927 1.0006927 0 0 0 13.492188 13.826172 L 40.878906 30.375 C 43.704537 32.082575 47.409585 31.169426 49.117188 28.34375 C 50.824505 25.518547 49.910925 21.814366 47.085938 20.107422 L 47.083984 20.107422 L 19.697266 3.5546875 A 1.0001 1.0001 0 0 0 18.876953 2.0253906 z M 18.664062 5.2675781 L 34.769531 15 L 19.302734 15 L 14.527344 12.113281 L 18.664062 5.2675781 z M 12 16.056641 L 11.142578 17.486328 C 11.142578 17.486328 10.375345 18.762982 9.6054688 20.302734 C 8.8355925 21.842487 8 23.5 8 25 C 8 27.197334 9.8026661 29 12 29 C 14.197334 29 16 27.197334 16 25 C 16 23.5 15.164407 21.842487 14.394531 20.302734 C 13.624655 18.762982 12.857422 17.486328 12.857422 17.486328 L 12 16.056641 z M 38.074219 16.998047 L 46.050781 21.818359 C 47.950788 22.965761 48.552722 25.410177 47.404297 27.310547 C 46.2559 29.210871 43.814433 29.812487 41.914062 28.664062 L 22.613281 17 L 38 17 A 1.0001 1.0001 0 0 0 38.074219 16.998047 z M 37.5 19 A 1.5 1.5 0 0 0 37.5 22 A 1.5 1.5 0 0 0 37.5 19 z M 12 20.085938 C 12.251053 20.539137 12.30315 20.592627 12.605469 21.197266 C 13.335593 22.657513 14 24.5 14 25 C 14 26.116666 13.116666 27 12 27 C 10.883334 27 10 26.116666 10 25 C 10 24.5 10.664407 22.657513 11.394531 21.197266 C 11.69685 20.592627 11.748947 20.539137 12 20.085938 z M 41 22 A 2 2 0 0 0 41 26 A 2 2 0 0 0 41 22 z M 2 37 A 1.0001 1.0001 0 1 0 2 39 L 6 39 C 6 42.301625 8.6983746 45 12 45 C 14.363354 45 16.334666 43.578592 17.306641 41.583984 C 17.85781 41.759989 18.38164 42 19 42 C 21.167612 42 22.937502 40.732376 23.990234 39 L 48 39 A 1.0001 1.0001 0 1 0 48 37 L 23.578125 37 A 1.0001 1.0001 0 0 0 22.662109 37.599609 C 22.044753 39.010253 20.646853 40 19 40 C 18.364053 40 17.76911 39.838042 17.212891 39.556641 A 1.0001 1.0001 0 0 0 15.804688 40.15625 C 15.303285 41.801653 13.810049 43 12 43 C 9.7796254 43 8 41.220375 8 39 C 8 38.725027 8.0272656 38.459633 8.0800781 38.201172 A 1.0001 1.0001 0 0 0 7.1015625 37 L 2 37 z"/></svg>