<svg xmlns="http://www.w3.org/2000/svg"  viewBox="0 0 50 50" width="50px" height="50px"><path d="M 12 2 C 8.502 2 6 4.756 6 8 L 6 42.417969 L 6.0039062 42.417969 C 6.0029063 42.445969 6 42.472 6 42.5 C 6 45.526 8.474 48 11.5 48 L 44 48 L 44 46 L 11.5 46 C 9.556 46 8 44.444 8 42.5 C 8 40.556 9.556 39 11.5 39 L 44 39 L 44 38 L 44 37 L 44 2 L 12 2 z M 12 4 L 42 4 L 42 37 L 11.5 37 C 10.173 37 8.953 37.475625 8 38.265625 L 8 8 C 8 5.722 9.498 4 12 4 z M 20.916016 6.1269531 C 20.753016 6.1407031 20.594125 6.1946094 20.453125 6.2871094 C 20.170125 6.4721094 20 6.787 20 7.125 L 20 8.125 L 20 12.875 L 20 24 L 32 24 L 32 16.9375 L 32 15.123047 L 32 14 C 32 13.583 31.741563 13.2095 31.351562 13.0625 L 27 11.431641 L 27 10.5 C 27 10.115 26.778641 9.7656094 26.431641 9.5996094 L 24 8.4335938 L 24 8 C 24 7.603 23.764391 7.2429844 23.400391 7.0839844 L 21.400391 6.2089844 C 21.245391 6.1404844 21.079016 6.1132031 20.916016 6.1269531 z M 23 10.171875 L 25 11.130859 L 25 12.125 L 25 21 C 25 21.552 24.552 22 24 22 C 23.448 22 23 21.552 23 21 L 23 10.171875 z M 27 13.568359 L 29 14.318359 L 29 21 C 29 21.552 28.552 22 28 22 C 27.448 22 27 21.552 27 21 L 27 13.568359 z M 18.533203 26 C 18.238203 26 18 26.224 18 26.5 C 18 26.776 18.238203 27 18.533203 27 C 19.121203 27 19.599609 27.448 19.599609 28 C 19.599609 28.552 19.122203 29 18.533203 29 L 33.466797 29 C 32.878797 29 32.398437 28.552 32.398438 28 C 32.398438 27.448 32.877797 27 33.466797 27 C 33.762797 27 34 26.776 34 26.5 C 34 26.224 33.761797 26 33.466797 26 L 18.533203 26 z M 18 31 C 17.448 31 17 31.448 17 32 L 17 33 C 17 33.552 17.448 34 18 34 L 34 34 C 34.552 34 35 33.552 35 33 L 35 32 C 35 31.448 34.552 31 34 31 L 18 31 z"/></svg>