<svg xmlns="http://www.w3.org/2000/svg"  viewBox="0 0 50 50" width="50px" height="50px"><path d="M 20.935547 0.001953125 C 20.805828 0.01021875 20.676484 0.04371875 20.552734 0.10546875 C 20.058734 0.35246875 19.858469 0.95326562 20.105469 1.4472656 C 20.881469 3.0002656 20.318469 4.1267344 19.605469 5.5527344 C 18.837469 7.0887344 17.881469 8.9992656 19.105469 11.447266 C 19.281469 11.797266 19.634953 12 20.001953 12 C 20.151953 12 20.304266 11.965531 20.447266 11.894531 C 20.941266 11.647531 21.141531 11.046734 20.894531 10.552734 C 20.118531 8.9997344 20.681531 7.8732656 21.394531 6.4472656 C 22.162531 4.9112656 23.118531 3.0007344 21.894531 0.55273438 C 21.709281 0.18223438 21.324703 -0.02284375 20.935547 0.001953125 z M 25.935547 0.001953125 C 25.805875 0.01021875 25.676234 0.04371875 25.552734 0.10546875 C 25.058734 0.35246875 24.858469 0.95326562 25.105469 1.4472656 C 25.881469 3.0002656 25.318469 4.1267344 24.605469 5.5527344 C 23.837469 7.0887344 22.881469 8.9992656 24.105469 11.447266 C 24.281469 11.797266 24.634953 12 25.001953 12 C 25.151953 12 25.304266 11.965531 25.447266 11.894531 C 25.941266 11.647531 26.141531 11.046734 25.894531 10.552734 C 25.118531 8.9997344 25.681531 7.8732656 26.394531 6.4472656 C 27.162531 4.9112656 28.118531 3.0007344 26.894531 0.55273438 C 26.709281 0.18223438 26.324562 -0.02284375 25.935547 0.001953125 z M 30.935547 0.001953125 C 30.805875 0.01034375 30.676234 0.04346875 30.552734 0.10546875 C 30.058734 0.35246875 29.858469 0.95326562 30.105469 1.4472656 C 30.881469 3.0002656 30.318469 4.1267344 29.605469 5.5527344 C 28.837469 7.0887344 27.881469 8.9992656 29.105469 11.447266 C 29.281469 11.797266 29.634953 12 30.001953 12 C 30.151953 12 30.304266 11.965531 30.447266 11.894531 C 30.941266 11.647531 31.141531 11.046734 30.894531 10.552734 C 30.118531 8.9997344 30.681531 7.8732656 31.394531 6.4472656 C 32.162531 4.9112656 33.118531 3.0007344 31.894531 0.55273438 C 31.709281 0.18148437 31.324562 -0.02321875 30.935547 0.001953125 z M 19 14 C 18.448 14 18 14.448 18 15 C 18 15.552 18.448 16 19 16 L 19 26.9375 L 7.9414062 42.972656 C 6.9924063 44.347656 6.8870625 46.121563 7.6640625 47.601562 C 8.4410625 49.081562 9.9618125 50 11.632812 50 L 38.367188 50 C 40.038187 50 41.558937 49.080563 42.335938 47.601562 C 43.112938 46.121563 43.006594 44.348656 42.058594 42.972656 L 31 26.939453 L 31 16 C 31.553 16 32 15.552 32 15 C 32 14.448 31.553 14 31 14 L 19 14 z M 21 16 L 29 16 L 29 27.5625 L 32.060547 32 L 17.939453 32 L 21 27.5625 L 21 16 z M 16.558594 34 L 33.439453 34 L 40.410156 44.107422 C 40.944156 44.881422 41.002453 45.839875 40.564453 46.671875 C 40.128453 47.502875 39.307187 48 38.367188 48 L 11.632812 48 C 10.693812 48 9.8705938 47.502875 9.4335938 46.671875 C 8.9965938 45.839875 9.0548906 44.880422 9.5878906 44.107422 L 16.558594 34 z M 22 36 C 20.346 36 19 37.346 19 39 C 19 40.654 20.346 42 22 42 C 23.654 42 25 40.654 25 39 C 25 37.346 23.654 36 22 36 z M 22 38 C 22.551 38 23 38.448 23 39 C 23 39.552 22.551 40 22 40 C 21.449 40 21 39.552 21 39 C 21 38.448 21.449 38 22 38 z M 30.5 39 C 28.57 39 27 40.57 27 42.5 C 27 44.43 28.57 46 30.5 46 C 32.43 46 34 44.43 34 42.5 C 34 40.57 32.43 39 30.5 39 z M 30.5 41 C 31.327 41 32 41.673 32 42.5 C 32 43.327 31.327 44 30.5 44 C 29.673 44 29 43.327 29 42.5 C 29 41.673 29.673 41 30.5 41 z"/></svg>