<svg xmlns="http://www.w3.org/2000/svg"  viewBox="0 0 50 50" width="50px" height="50px"><path d="M 31.5 1.25 C 25.766349 1.25 20 5.829514 20 14 L 20 15 C 20 15.321367 19.35752 16.69443 18.169922 18.271484 C 16.982324 19.848538 15.358688 21.745487 13.720703 23.787109 C 10.444733 27.870355 7 32.474941 7 36.925781 C 7 41.167007 8.8647572 45.003059 11.833984 47.736328 A 1.0001 1.0001 0 0 0 12.511719 48 L 33.488281 48 A 1.0001 1.0001 0 0 0 34.166016 47.736328 C 37.135243 45.003059 39 41.167007 39 36.925781 C 39 33.858713 37.326677 30.736978 35.25 27.738281 C 39.111147 23.858161 43 19.60657 43 14 C 43 5.829514 37.233651 1.25 31.5 1.25 z M 31.5 3.25 C 36.202349 3.25 41 6.742486 41 14 C 41 18.899356 37.270702 22.899302 33.25 26.916016 L 32.582031 27.580078 C 32.191031 27.971078 32.191031 28.603141 32.582031 28.994141 C 32.777031 29.189141 33.033062 29.287109 33.289062 29.287109 C 33.461941 29.287109 33.627157 29.225795 33.78125 29.136719 C 35.658961 31.918272 37 34.695436 37 36.925781 C 37 40.126436 35.750376 43.027765 33.703125 45.304688 C 33.594578 45.194611 33.467623 45.101943 33.310547 45.050781 C 33.015547 44.953781 32.700094 44.849281 32.371094 44.738281 C 31.847094 44.560281 31.280516 44.841234 31.103516 45.365234 C 31.030459 45.581516 31.051333 45.799514 31.119141 46 L 14.880859 46 C 14.945771 45.804874 14.968551 45.595261 14.900391 45.384766 C 14.730391 44.858766 14.168578 44.568234 13.642578 44.740234 L 12.685547 45.050781 C 12.529386 45.102338 12.404786 45.194836 12.296875 45.304688 C 10.249624 43.027765 9 40.126436 9 36.925781 C 9 33.587621 12.055267 29.057568 15.279297 25.039062 C 16.891312 23.02981 18.517676 21.134399 19.767578 19.474609 C 20.965931 17.883274 21.90784 16.613292 21.984375 15.183594 A 1.0001 1.0001 0 0 0 22 15 L 22 14 C 22 6.742486 26.797651 3.25 31.5 3.25 z M 31.5 5.25 C 29.635617 5.25 27.735439 5.949429 26.316406 7.4238281 C 24.897373 8.8982272 24 11.119725 24 14 L 24 15 A 1.0001 1.0001 0 0 0 24.013672 15.171875 C 24.085558 16.606428 25.030759 17.878925 26.232422 19.474609 C 27.334546 20.938118 28.738607 22.603115 30.158203 24.349609 L 30.152344 24.355469 C 29.761344 24.746469 29.761344 25.378531 30.152344 25.769531 C 30.347344 25.964531 30.603375 26.0625 30.859375 26.0625 C 31.115375 26.0625 31.371406 25.965531 31.566406 25.769531 L 32.089844 25.244141 A 1.0001 1.0001 0 0 0 32.148438 25.1875 C 32.190247 25.145594 32.231669 25.104397 32.273438 25.0625 C 32.274764 25.06117 32.276026 25.05993 32.277344 25.058594 C 35.716763 21.608497 39 18.180468 39 14 C 39 11.119725 38.102627 8.8982272 36.683594 7.4238281 C 35.264561 5.949429 33.364383 5.25 31.5 5.25 z M 31.5 7.25 C 32.870617 7.25 34.21997 7.748446 35.242188 8.8105469 C 36.264404 9.8726478 37 11.526275 37 14 C 37 16.852512 34.627707 19.784295 31.572266 22.919922 C 30.187912 21.219818 28.8421 19.615345 27.830078 18.271484 C 26.642478 16.694474 26 15.321367 26 15 L 26 14 C 26 11.526275 26.735595 9.8726478 27.757812 8.8105469 C 28.78003 7.748446 30.129383 7.25 31.5 7.25 z M 28.001953 26.869141 C 27.745953 26.867016 27.489469 26.96225 27.292969 27.15625 C 26.807969 27.63325 26.325375 28.116516 25.859375 28.603516 C 25.477375 29.001516 25.491625 29.635578 25.890625 30.017578 C 26.083625 30.202578 26.333031 30.294922 26.582031 30.294922 C 26.845031 30.294922 27.108687 30.190328 27.304688 29.986328 C 27.757688 29.513328 28.221359 29.046031 28.693359 28.582031 C 29.087359 28.194031 29.093078 27.563922 28.705078 27.169922 C 28.511578 26.972422 28.257953 26.871266 28.001953 26.869141 z M 30.115234 30.369141 C 29.859359 30.368391 29.60225 30.464656 29.40625 30.660156 C 28.86025 31.204156 28.335797 31.746875 27.841797 32.296875 C 27.472797 32.707875 27.506969 33.339984 27.917969 33.708984 C 28.107969 33.880984 28.347938 33.964844 28.585938 33.964844 C 28.858937 33.964844 29.131125 33.852812 29.328125 33.632812 C 29.796125 33.109812 30.296406 32.595125 30.816406 32.078125 C 31.208406 31.688125 31.210313 31.056062 30.820312 30.664062 C 30.625813 30.467562 30.371109 30.369891 30.115234 30.369141 z M 23.826172 31.355469 C 23.573297 31.395469 23.335828 31.532859 23.173828 31.755859 C 22.746828 32.342859 22.358484 32.937391 22.021484 33.525391 C 21.746484 34.003391 21.913578 34.616625 22.392578 34.890625 C 22.550578 34.980625 22.720672 35.023438 22.888672 35.023438 C 23.234672 35.023437 23.572813 34.843531 23.757812 34.519531 C 24.058813 33.993531 24.405062 33.458688 24.789062 32.929688 C 25.114063 32.483688 25.015359 31.857203 24.568359 31.533203 C 24.345859 31.371203 24.079047 31.315469 23.826172 31.355469 z M 26.105469 35.5625 C 25.716359 35.540422 25.332641 35.749844 25.150391 36.121094 C 24.786391 36.863094 24.508312 37.627578 24.320312 38.392578 C 24.188312 38.928578 24.516734 39.470562 25.052734 39.601562 C 25.133734 39.621563 25.213969 39.630859 25.292969 39.630859 C 25.742969 39.630859 26.149719 39.323188 26.261719 38.867188 C 26.418719 38.233188 26.641313 37.624906 26.945312 37.003906 C 27.188312 36.507906 26.984281 35.907063 26.488281 35.664062 C 26.364281 35.602563 26.235172 35.569859 26.105469 35.5625 z M 21.236328 36.742188 C 20.852094 36.804906 20.523281 37.091391 20.425781 37.494141 C 20.258781 38.184141 20.140172 38.897234 20.076172 39.615234 C 20.027172 40.165234 20.432422 40.652172 20.982422 40.701172 C 21.012422 40.704172 21.042266 40.705078 21.072266 40.705078 C 21.584266 40.705078 22.021359 40.314922 22.068359 39.794922 C 22.123359 39.175922 22.223188 38.559844 22.367188 37.964844 C 22.498187 37.427844 22.169812 36.887813 21.632812 36.757812 C 21.499063 36.725062 21.364406 36.721281 21.236328 36.742188 z M 26.189453 41.6875 C 25.933453 41.689125 25.678375 41.788375 25.484375 41.984375 C 25.096375 42.377375 25.101141 43.010438 25.494141 43.398438 C 26.017141 43.915438 26.669281 44.390563 27.488281 44.851562 C 27.643281 44.939563 27.812516 44.980469 27.978516 44.980469 C 28.327516 44.980469 28.665609 44.797703 28.849609 44.470703 C 29.120609 43.989703 28.94975 43.380375 28.46875 43.109375 C 27.81675 42.742375 27.289391 42.360563 26.900391 41.976562 C 26.703391 41.782063 26.445453 41.685875 26.189453 41.6875 z M 19.501953 42.177734 C 19.247203 42.150984 18.983031 42.221031 18.769531 42.394531 C 18.366531 42.721531 17.856906 43.040703 17.253906 43.345703 C 16.760906 43.594703 16.561547 44.196453 16.810547 44.689453 C 16.986547 45.037453 17.339078 45.238281 17.705078 45.238281 C 17.856078 45.238281 18.009297 45.204859 18.154297 45.130859 C 18.894297 44.756859 19.507344 44.370219 20.027344 43.949219 C 20.456344 43.602219 20.523781 42.972969 20.175781 42.542969 C 20.002281 42.329469 19.756703 42.204484 19.501953 42.177734 z"/></svg>