<svg xmlns="http://www.w3.org/2000/svg"  viewBox="0 0 50 50" width="50px" height="50px"><path d="M 12 2 C 8.5024444 2 6 4.7560832 6 8 L 6 42.417969 L 6.0039062 42.417969 C 6.0034939 42.445541 6 42.472334 6 42.5 C 6 45.525577 8.4744232 48 11.5 48 L 44 48 L 44 46 L 11.5 46 C 9.5555768 46 8 44.444423 8 42.5 C 8 40.555577 9.5555768 39 11.5 39 L 44 39 L 44 38 L 44 37 L 44 2 L 12 2 z M 12 4 L 42 4 L 42 37 L 11.5 37 C 10.173347 37 8.9525799 37.476278 8 38.265625 L 8 8 C 8 5.7219168 9.4975556 4 12 4 z M 25.244141 10.117188 C 24.700141 10.117188 24.228172 10.241375 23.826172 10.484375 C 23.424172 10.729375 23.116344 11.059563 22.902344 11.476562 C 22.687344 11.894563 22.530641 12.330156 22.431641 12.785156 C 22.332641 13.241156 22.283203 13.725281 22.283203 14.238281 C 22.283203 15.523281 22.544359 16.528953 23.068359 17.251953 C 23.593359 17.975953 24.322813 18.337891 25.257812 18.337891 C 26.167813 18.337891 26.882344 17.973094 27.402344 17.246094 C 27.922344 16.519094 28.183594 15.516281 28.183594 14.238281 C 28.183594 13.832281 28.157516 13.445125 28.103516 13.078125 C 28.049516 12.711125 27.952547 12.343563 27.810547 11.976562 C 27.669547 11.608563 27.491344 11.291438 27.277344 11.023438 C 27.062344 10.756438 26.781594 10.537141 26.433594 10.369141 C 26.085594 10.201141 25.687141 10.117188 25.244141 10.117188 z M 15.671875 10.164062 C 15.464875 11.235062 14.752156 11.771484 13.535156 11.771484 L 13.328125 11.771484 L 13.328125 12.976562 L 15.279297 12.976562 L 15.279297 18.199219 L 17.013672 18.199219 L 17.013672 10.164062 L 15.671875 10.164062 z M 34.820312 10.164062 C 34.613313 11.235062 33.902547 11.771484 32.685547 11.771484 L 32.478516 11.771484 L 32.478516 12.976562 L 34.429688 12.976562 L 34.429688 18.199219 L 36.162109 18.199219 L 36.162109 10.164062 L 34.820312 10.164062 z M 25.232422 11.460938 C 25.699422 11.460937 26.040906 11.685766 26.253906 12.134766 C 26.468906 12.582766 26.576172 13.283234 26.576172 14.240234 C 26.576172 16.092234 26.132141 17.019531 25.244141 17.019531 C 24.341141 17.019531 23.890625 16.119312 23.890625 14.320312 C 23.890625 14.090313 23.892484 13.907531 23.896484 13.769531 C 23.899484 13.631531 23.912547 13.431969 23.935547 13.167969 C 23.957547 12.902969 23.999641 12.688437 24.056641 12.523438 C 24.113641 12.358438 24.189156 12.187812 24.285156 12.007812 C 24.381156 11.827812 24.507922 11.691609 24.669922 11.599609 C 24.831922 11.507609 25.018422 11.460938 25.232422 11.460938 z M 15.671875 23.894531 C 15.127875 23.894531 14.654906 24.017719 14.253906 24.261719 C 13.851906 24.506719 13.542125 24.836906 13.328125 25.253906 C 13.113125 25.671906 12.956422 26.1075 12.857422 26.5625 C 12.758422 27.0185 12.708984 27.502625 12.708984 28.015625 C 12.708984 29.300625 12.970141 30.306297 13.494141 31.029297 C 14.019141 31.753297 14.748594 32.113281 15.683594 32.113281 C 16.593594 32.113281 17.308125 31.750438 17.828125 31.023438 C 18.348125 30.296437 18.609375 29.293625 18.609375 28.015625 C 18.609375 27.609625 18.583297 27.222469 18.529297 26.855469 C 18.475297 26.488469 18.378328 26.120906 18.236328 25.753906 C 18.095328 25.385906 17.917125 25.068781 17.703125 24.800781 C 17.488125 24.533781 17.207375 24.314484 16.859375 24.146484 C 16.511375 23.978484 16.114875 23.894531 15.671875 23.894531 z M 34.820312 23.894531 C 34.276313 23.894531 33.804344 24.017719 33.402344 24.261719 C 33.000344 24.506719 32.692516 24.836906 32.478516 25.253906 C 32.263516 25.671906 32.106812 26.1075 32.007812 26.5625 C 31.908812 27.0185 31.857422 27.502625 31.857422 28.015625 C 31.857422 29.300625 32.120531 30.306297 32.644531 31.029297 C 33.169531 31.753297 33.897031 32.113281 34.832031 32.113281 C 35.742031 32.113281 36.458516 31.750438 36.978516 31.023438 C 37.498516 30.296437 37.757812 29.293625 37.757812 28.015625 C 37.757813 27.609625 37.731734 27.222469 37.677734 26.855469 C 37.623734 26.488469 37.526766 26.120906 37.384766 25.753906 C 37.243766 25.385906 37.065562 25.068781 36.851562 24.800781 C 36.636562 24.533781 36.355812 24.314484 36.007812 24.146484 C 35.659813 23.978484 35.263312 23.894531 34.820312 23.894531 z M 25.246094 23.939453 C 25.039094 25.010453 24.326375 25.546875 23.109375 25.546875 L 22.904297 25.546875 L 22.904297 26.751953 L 24.855469 26.751953 L 24.855469 31.976562 L 26.587891 31.976562 L 26.587891 23.939453 L 25.246094 23.939453 z M 15.658203 25.238281 C 16.125203 25.238281 16.466687 25.460156 16.679688 25.910156 C 16.894688 26.358156 17.001953 27.060578 17.001953 28.017578 C 17.001953 29.869578 16.557922 30.796875 15.669922 30.796875 C 14.766922 30.796875 14.316406 29.896656 14.316406 28.097656 C 14.316406 27.867656 14.318266 27.684875 14.322266 27.546875 C 14.325266 27.408875 14.338328 27.207359 14.361328 26.943359 C 14.383328 26.678359 14.425422 26.465781 14.482422 26.300781 C 14.539422 26.135781 14.614937 25.963203 14.710938 25.783203 C 14.806937 25.603203 14.933703 25.468953 15.095703 25.376953 C 15.257703 25.284953 15.444203 25.238281 15.658203 25.238281 z M 34.808594 25.238281 C 35.274594 25.238281 35.616078 25.460156 35.830078 25.910156 C 36.045078 26.358156 36.152344 27.060578 36.152344 28.017578 C 36.152344 29.869578 35.708312 30.796875 34.820312 30.796875 C 33.917313 30.796875 33.466797 29.896656 33.466797 28.097656 C 33.466797 27.867656 33.468656 27.684875 33.472656 27.546875 C 33.475656 27.408875 33.488719 27.207359 33.511719 26.943359 C 33.533719 26.678359 33.575812 26.465781 33.632812 26.300781 C 33.689813 26.135781 33.765328 25.963203 33.861328 25.783203 C 33.957328 25.603203 34.084094 25.468953 34.246094 25.376953 C 34.408094 25.284953 34.594594 25.238281 34.808594 25.238281 z"/></svg>