<?xml version="1.0"?><svg xmlns="http://www.w3.org/2000/svg"  viewBox="0 0 50 50" width="50px" height="50px">    <path d="M 2.8007812 0 C 1.267448 0 1.1842379e-15 1.2674479 0 2.8007812 L 0 8 L 0 40 A 1.0001 1.0001 0 0 0 1 41 L 24 41 A 1.0001 1.0001 0 1 0 24 39 L 2 39 L 2 8 L 42 8 L 42 25 A 1.0001 1.0001 0 1 0 44 25 L 44 7 L 44 2.8007812 C 44 1.267448 42.732552 1.1842379e-15 41.199219 0 L 2.8007812 0 z M 2.8007812 2 L 41.199219 2 C 41.665885 2 42 2.3341146 42 2.8007812 L 42 6 L 2 6 L 2 2.8007812 C 2 2.3341148 2.3341146 2 2.8007812 2 z M 5 3 A 1 1 0 0 0 4 4 A 1 1 0 0 0 5 5 A 1 1 0 0 0 6 4 A 1 1 0 0 0 5 3 z M 8 3 A 1 1 0 0 0 7 4 A 1 1 0 0 0 8 5 A 1 1 0 0 0 9 4 A 1 1 0 0 0 8 3 z M 11 3 A 1 1 0 0 0 10 4 A 1 1 0 0 0 11 5 A 1 1 0 0 0 12 4 A 1 1 0 0 0 11 3 z M 8 12 L 8 13.050781 C 6.8597492 13.282754 6 14.292052 6 15.5 C 6 16.879 7.121 18 8.5 18 C 8.775 18 9 18.225 9 18.5 C 9 18.775 8.775 19 8.5 19 L 6.0507812 19 C 6.2497203 19.977545 7.0232651 20.745234 8 20.945312 L 8 22 L 9 22 L 9 20.949219 C 10.140251 20.717246 11 19.707948 11 18.5 C 11 17.121 9.879 16 8.5 16 C 8.225 16 8 15.775 8 15.5 C 8 15.225 8.225 15 8.5 15 L 10.949219 15 C 10.75028 14.022455 9.9767349 13.254766 9 13.054688 L 9 12 L 8 12 z M 14 14 L 14 16 L 37 16 L 37 14 L 14 14 z M 14 18 L 14 20 L 37 20 L 37 18 L 14 18 z M 8 25 L 8 26.050781 C 6.8597492 26.282754 6 27.292052 6 28.5 C 6 29.879 7.121 31 8.5 31 C 8.775 31 9 31.225 9 31.5 C 9 31.775 8.775 32 8.5 32 L 6.0507812 32 C 6.2497203 32.977545 7.0232651 33.745234 8 33.945312 L 8 35 L 9 35 L 9 33.949219 C 10.140251 33.717246 11 32.707948 11 31.5 C 11 30.121 9.879 29 8.5 29 C 8.225 29 8 28.775 8 28.5 C 8 28.225 8.225 28 8.5 28 L 10.949219 28 C 10.75028 27.022455 9.9767349 26.254766 9 26.054688 L 9 25 L 8 25 z M 36 26 C 30.488997 26 26 30.488997 26 36 C 26 41.511003 30.488997 46 36 46 C 38.396508 46 40.597385 45.148986 42.322266 43.736328 L 48.292969 49.707031 L 49.707031 48.292969 L 43.736328 42.322266 C 45.148986 40.597385 46 38.396508 46 36 C 46 30.488997 41.511003 26 36 26 z M 14 27 L 14 29 L 27 29 L 27 27 L 14 27 z M 36 28 C 40.430123 28 44 31.569877 44 36 C 44 40.430123 40.430123 44 36 44 C 31.569877 44 28 40.430123 28 36 C 28 31.569877 31.569877 28 36 28 z M 14 31 L 14 33 L 24 33 L 24 31 L 14 31 z"/></svg>