<svg xmlns="http://www.w3.org/2000/svg"  viewBox="0 0 50 50" width="50px" height="50px"><path d="M 9 4 A 1.0001 1.0001 0 0 0 8 5 L 8 9 A 1.0001 1.0001 0 0 0 9 10 L 9 19.789062 C 9 24.2937 7.6665032 28.697511 5.1679688 32.445312 A 1.0001 1.0001 0 0 0 6 34 L 9 34 L 9 38 A 1.0001 1.0001 0 0 0 10 39 L 16.523438 39 L 13.072266 47.628906 A 1.0001 1.0001 0 1 0 14.927734 48.371094 L 18.675781 39 L 26 39 L 26 45 A 1.0001 1.0001 0 1 0 28 45 L 28 39 L 35.324219 39 L 39.072266 48.371094 A 1.0001 1.0001 0 1 0 40.927734 47.628906 L 37.476562 39 L 40 39 A 1.0001 1.0001 0 0 0 41 38 L 41 20 L 40.992188 20 C 40.992789 19.92946 41 19.85965 41 19.789062 L 41 10 A 1.0001 1.0001 0 0 0 42 9 L 42 5 A 1.0001 1.0001 0 0 0 41 4 L 9 4 z M 10 6 L 40 6 L 40 8 L 10 8 L 10 6 z M 11 10 L 39 10 L 39 19.789062 C 39 24.127674 37.70242 28.344479 35.378906 32 L 7.7109375 32 C 9.8221577 28.276645 11 24.089772 11 19.789062 L 11 10 z M 39 29.505859 L 39 37 L 36.148438 37 A 1.0001 1.0001 0 0 0 36 36.986328 A 1.0001 1.0001 0 0 0 35.837891 37 L 27.154297 37 A 1.0001 1.0001 0 0 0 26.984375 36.986328 A 1.0001 1.0001 0 0 0 26.839844 37 L 18.152344 37 A 1.0001 1.0001 0 0 0 17.970703 36.988281 A 1.0001 1.0001 0 0 0 17.851562 37 L 11 37 L 11 34 L 36 34 A 1.0001 1.0001 0 0 0 36.832031 33.554688 C 37.687363 32.271689 38.401427 30.91145 39 29.505859 z"/></svg>