<?xml version="1.0" encoding="utf-8"?><!-- Generator: Adobe Illustrator 17.1.0, SVG Export Plug-In . SVG Version: 6.00 Build 0)  --><!DOCTYPE svg PUBLIC "-//W3C//DTD SVG 1.0//EN" "http://www.w3.org/TR/2001/REC-SVG-20010904/DTD/svg10.dtd"><svg xmlns="http://www.w3.org/2000/svg" xmlns:xlink="http://www.w3.org/1999/xlink" viewBox="0 0 50 50" width="50px" height="50px"><path fill="none" stroke="#000000" stroke-width="2" stroke-linecap="round" stroke-linejoin="round" stroke-miterlimit="10" d="M40.2,31c-0.1,2.8-0.8,4.2-2.9,4.2c-1.7,0-3-2.1-3.9-6.2c0.2-0.7,0.7-2.5,1.4-5.5L38.3,8h-5.7l-2.1,9.5c-1.1-3.7-2.5-6.4-3.9-8S23.2,7,20.9,7c-3.6,0-9.7,2.5-11.4,11.2C9.2,19.7,9,21.4,9,23.4C9,37.5,17.2,40,20.8,40c5.3,0,8.6-2.5,11-7.1c0.7,3,2.2,7.1,5,7.1c1.7,0,2.6-1.1,3.5-2.7c0.9-1.6,1.3-3.7,1.4-6.3H40.2z"/><path fill="none" stroke="#000000" stroke-width="2" stroke-linecap="round" stroke-linejoin="round" stroke-miterlimit="10" d="M29.3,23.5C28.2,19.9,25.1,10,21.4,10c-4.1,0-6.4,4.4-6.4,14c0,9.1,2.2,13,6.2,13c2.3,0,4.1-1.5,5.6-4.8c0.7-1.7,1.4-3.9,1.9-6.5L29.3,23.5z"/></svg>