<svg xmlns="http://www.w3.org/2000/svg"  viewBox="0 0 50 50" width="50px" height="50px"><path d="M 25 3 C 23.75 3 22.685226 3.5047556 22.001953 4.2734375 C 21.318681 5.0421194 21 6.0277779 21 7 C 21 7.9722221 21.318681 8.9578806 22.001953 9.7265625 C 22.267904 10.025757 22.634052 10.242298 23.003906 10.447266 L 6.7753906 38.394531 C 6.2497223 38.151098 5.656416 38 5 38 C 3.7500003 38 2.6852256 38.504756 2.0019531 39.273438 C 1.3186806 40.042119 1 41.027778 1 42 C 1 42.972222 1.3186806 43.957881 2.0019531 44.726562 C 2.6852256 45.495244 3.7500003 46 5 46 C 6.2499997 46 7.3147744 45.495245 7.9980469 44.726562 C 8.4439695 44.224899 8.6817812 43.622535 8.8300781 43 L 41.169922 43 C 41.318219 43.622535 41.55603 44.224899 42.001953 44.726562 C 42.685226 45.495244 43.75 46 45 46 C 46.25 46 47.314774 45.495245 47.998047 44.726562 C 48.681319 43.957881 49 42.972222 49 42 C 49 41.027778 48.681319 40.042119 47.998047 39.273438 C 47.314774 38.504756 46.25 38 45 38 C 44.343584 38 43.750278 38.151098 43.224609 38.394531 L 26.996094 10.447266 C 27.365948 10.242298 27.732096 10.025757 27.998047 9.7265625 C 28.681319 8.9578806 29 7.9722221 29 7 C 29 6.0277779 28.681319 5.0421194 27.998047 4.2734375 C 27.314774 3.5047556 26.25 3 25 3 z M 25 5 C 25.749999 5 26.185226 5.2452444 26.501953 5.6015625 C 26.81868 5.9578806 27 6.4722221 27 7 C 27 7.5277779 26.81868 8.0421194 26.501953 8.3984375 C 26.185226 8.7547556 25.749999 9 25 9 C 24.250001 9 23.814774 8.7547556 23.498047 8.3984375 C 23.18132 8.0421194 23 7.5277779 23 7 C 23 6.4722221 23.18132 5.9578806 23.498047 5.6015625 C 23.814774 5.2452444 24.250001 5 25 5 z M 24.994141 10.998047 C 24.996341 10.99805 24.9978 11 25 11 C 25.0022 11 25.003659 10.998047 25.005859 10.998047 L 25.064453 11.099609 L 24.935547 11.099609 L 24.994141 10.998047 z M 24 12.710938 L 24 27.222656 C 23.186805 27.412837 22.493427 27.820138 22.001953 28.373047 C 21.318681 29.141729 21 30.127387 21 31.099609 C 21 31.434871 21.053185 31.768648 21.130859 32.097656 L 8.3261719 39.707031 L 24 12.710938 z M 26 12.710938 L 41.707031 39.765625 L 28.857422 32.144531 C 28.942783 31.800634 29 31.450865 29 31.099609 C 29 30.127387 28.681319 29.141729 27.998047 28.373047 C 27.506573 27.820138 26.813195 27.412837 26 27.222656 L 26 12.710938 z M 25 29.099609 C 25.749999 29.099609 26.185226 29.344854 26.501953 29.701172 C 26.81868 30.05749 27 30.571832 27 31.099609 C 27 31.627387 26.81868 32.141729 26.501953 32.498047 C 26.185226 32.854365 25.749999 33.099609 25 33.099609 C 24.250001 33.099609 23.814774 32.854365 23.498047 32.498047 C 23.18132 32.141729 23 31.627387 23 31.099609 C 23 30.571832 23.18132 30.05749 23.498047 29.701172 C 23.814774 29.344854 24.250001 29.099609 25 29.099609 z M 27.910156 33.90625 L 39.867188 41 L 10.179688 41 L 22.09375 33.910156 C 22.778689 34.627695 23.799761 35.099609 25 35.099609 C 26.202445 35.099609 27.225228 34.626036 27.910156 33.90625 z M 5 40 C 5.7499995 40 6.1852261 40.245244 6.5019531 40.601562 C 6.8186802 40.957881 7 41.472222 7 42 C 7 42.527778 6.8186802 43.042119 6.5019531 43.398438 C 6.1852261 43.754756 5.7499995 44 5 44 C 4.2500005 44 3.8147739 43.754755 3.4980469 43.398438 C 3.1813198 43.042119 3 42.527778 3 42 C 3 41.472222 3.1813198 40.957881 3.4980469 40.601562 C 3.8147739 40.245244 4.2500005 40 5 40 z M 45 40 C 45.749999 40 46.185226 40.245244 46.501953 40.601562 C 46.81868 40.957881 47 41.472222 47 42 C 47 42.527778 46.81868 43.042119 46.501953 43.398438 C 46.185226 43.754756 45.749999 44 45 44 C 44.250001 44 43.814774 43.754755 43.498047 43.398438 C 43.18132 43.042119 43 42.527778 43 42 C 43 41.472222 43.18132 40.957881 43.498047 40.601562 C 43.814774 40.245244 44.250001 40 45 40 z"/></svg>