<svg xmlns="http://www.w3.org/2000/svg"  viewBox="0 0 50 50" width="50px" height="50px"><path d="M 3 3 A 1.0001 1.0001 0 0 0 2 4 L 2 32 A 1.0001 1.0001 0 0 0 3 33 L 16.917969 33 L 25 33 L 28.082031 33 A 1.0001 1.0001 0 1 0 28.082031 31 L 26 31 L 26 6.6503906 C 28.087511 5.5710542 29.449867 5 33.25 5 L 46 5 L 46 29 A 1.0001 1.0001 0 1 0 48 29 L 48 4 A 1.0001 1.0001 0 0 0 47 3 L 33.25 3 C 29.204303 3 27.305207 3.7466891 25.0625 4.8925781 C 24.242794 4.3445462 23.229937 3.966722 21.919922 3.6523438 C 20.278858 3.2585199 18.344765 3 16.5 3 L 3 3 z M 4 5 L 16.5 5 C 18.154235 5 19.968939 5.24148 21.453125 5.5976562 C 22.784058 5.9170546 23.679578 6.3820333 24 6.5917969 L 24 31 L 16.917969 31 L 4 31 L 4 5 z M 8 9 A 1.0001 1.0001 0 1 0 8 11 L 19 11 A 1.0001 1.0001 0 1 0 19 9 L 8 9 z M 31 9 A 1.0001 1.0001 0 1 0 31 11 L 42 11 A 1.0001 1.0001 0 1 0 42 9 L 31 9 z M 8 13 A 1.0001 1.0001 0 1 0 8 15 L 19 15 A 1.0001 1.0001 0 1 0 19 13 L 8 13 z M 31 13 A 1.0001 1.0001 0 1 0 31 15 L 42 15 A 1.0001 1.0001 0 1 0 42 13 L 31 13 z M 8 17 A 1.0001 1.0001 0 1 0 8 19 L 19 19 A 1.0001 1.0001 0 1 0 19 17 L 8 17 z M 31 17 A 1.0001 1.0001 0 1 0 31 19 L 42 19 A 1.0001 1.0001 0 1 0 42 17 L 31 17 z M 8 21 A 1.0001 1.0001 0 1 0 8 23 L 19 23 A 1.0001 1.0001 0 1 0 19 21 L 8 21 z M 34 22 C 32.35503 22 31 23.35503 31 25 L 31 34.375 L 31 35 L 31 37.257812 L 29.939453 36.197266 C 28.77638 35.034193 26.860339 35.034193 25.697266 36.197266 C 24.534193 37.360339 24.534193 39.27638 25.697266 40.439453 L 31.292969 46.035156 A 1.0001 1.0001 0 0 0 31.300781 46.042969 C 31.300781 46.042969 32.040126 46.766398 33.082031 47.486328 C 34.123948 48.206272 35.473943 49 37 49 L 41.777344 49 C 45.577874 49 48.704347 46.038341 48.972656 42.300781 C 48.979967 42.257734 49 42.174942 49 42 L 49 41.777344 L 49 36.375 L 49 35 C 49 33.35503 47.64497 32 46 32 C 45.392887 32 44.91208 32.336739 44.4375 32.652344 C 43.923011 31.730383 43.121355 31 42 31 C 41.392887 31 40.91208 31.336739 40.4375 31.652344 C 39.923011 30.730383 39.121355 30 38 30 C 37.611652 30 37.342014 30.278986 37 30.416016 L 37 30 L 37 25 C 37 23.35503 35.64497 22 34 22 z M 34 24 C 34.56503 24 35 24.43497 35 25 L 35 30 L 35 33 L 35 34 A 1.0001 1.0001 0 1 0 37 34 L 37 33.013672 A 1.0001 1.0001 0 0 0 37 33 C 37 32.43497 37.43497 32 38 32 C 38.56503 32 39 32.43497 39 33 L 39 34 A 1.0001 1.0001 0 0 0 41 34 C 41 33.43497 41.43497 33 42 33 C 42.56503 33 43 33.43497 43 34 L 43 35 A 1.0001 1.0001 0 0 0 45 35 C 45 34.43497 45.43497 34 46 34 C 46.56503 34 47 34.43497 47 35 L 47 36.375 L 47 41.777344 L 47 42 C 47 41.95319 46.999005 41.981361 46.984375 42.101562 A 1.0001 1.0001 0 0 0 46.978516 42.152344 C 46.78683 44.866868 44.545997 47 41.777344 47 L 37 47 C 36.260057 47 35.110345 46.457866 34.21875 45.841797 C 33.332168 45.229191 32.714044 44.627923 32.707031 44.621094 L 32.699219 44.613281 L 27.111328 39.025391 C 26.712401 38.626464 26.712401 38.010255 27.111328 37.611328 C 27.510255 37.212401 28.126464 37.212401 28.525391 37.611328 L 31.292969 40.378906 A 1.0001 1.0001 0 0 0 33 39.671875 L 33 35 L 33 34.375 L 33 25 C 33 24.43497 33.43497 24 34 24 z M 8 25 A 1.0001 1.0001 0 1 0 8 27 L 19 27 A 1.0001 1.0001 0 1 0 19 25 L 8 25 z"/></svg>