<svg xmlns="http://www.w3.org/2000/svg"  viewBox="0 0 50 50" width="50px" height="50px"><path d="M 7 2 L 7 48 L 28.349609 48 C 28.127609 47.374 28 46.702 28 46 L 9 46 L 9 4 L 29 4 L 29 16 L 41 16 L 41 28 L 43 28 L 43 14.585938 L 30.414062 2 L 7 2 z M 31 5.4140625 L 39.585938 14 L 31 14 L 31 5.4140625 z M 36 23 A 2 2 0 0 0 34 25 A 2 2 0 0 0 34.136719 25.726562 L 28.298828 33.025391 A 2 2 0 0 0 28 33 A 2 2 0 0 0 27.597656 33.042969 L 21.896484 26.628906 A 2 2 0 0 0 22 26 A 2 2 0 0 0 20 24 A 2 2 0 0 0 18 26 A 2 2 0 0 0 18.068359 26.517578 L 14.515625 30.070312 A 2 2 0 0 0 14 30 A 2 2 0 0 0 12 32 A 2 2 0 0 0 14 34 A 2 2 0 0 0 16 32 A 2 2 0 0 0 15.931641 31.482422 L 19.484375 27.929688 A 2 2 0 0 0 20 28 A 2 2 0 0 0 20.402344 27.957031 L 26.103516 34.371094 A 2 2 0 0 0 26 35 A 2 2 0 0 0 28 37 A 2 2 0 0 0 30 35 A 2 2 0 0 0 29.863281 34.273438 L 35.701172 26.974609 A 2 2 0 0 0 36 27 A 2 2 0 0 0 38 25 A 2 2 0 0 0 36 23 z M 35 30 C 34.449 30 34 30.449 34 31 L 34 42 C 31.789 42 30 43.789 30 46 C 30 48.211 31.789 50 34 50 L 45 50 C 45.035 50 45.065656 49.996094 45.097656 49.996094 C 47.800656 49.941094 50 47.711 50 45 L 50 31 C 50 30.449 49.551 30 49 30 L 35 30 z M 36 32 L 48 32 L 48 45 C 48 46.656 46.656 48 45 48 C 43.809 48 43 47.191 43 46 C 43 44.809 43.809 44 45 44 C 45.552 44 46 43.552 46 43 C 46 42.448 45.552 42 45 42 L 36 42 L 36 32 z M 34 44 L 41.613281 44 C 41.258281 44.598 41 45.254 41 46 C 41 46.746 41.258281 47.402 41.613281 48 L 34 48 C 32.809 48 32 47.191 32 46 C 32 44.809 32.809 44 34 44 z"/></svg>