<svg xmlns="http://www.w3.org/2000/svg"  viewBox="0 0 50 50" width="50px" height="50px"><path d="M 2.84375 2 C 1.285156 2 0 3.285156 0 4.84375 L 0 47 L 50 47 L 50 4.84375 C 50 3.285156 48.714844 2 47.15625 2 Z M 2.84375 4 L 47.15625 4 C 47.636719 4 48 4.363281 48 4.84375 L 48 9 L 2 9 L 2 4.84375 C 2 4.363281 2.363281 4 2.84375 4 Z M 2 11 L 48 11 L 48 45 L 2 45 Z M 11.9375 14.0625 C 11.863281 14.472656 11.726563 14.828125 11.53125 15.09375 C 11.335938 15.363281 11.09375 15.566406 10.8125 15.71875 C 10.53125 15.871094 10.195313 15.976563 9.84375 16.03125 C 9.496094 16.085938 9.152344 16.125 8.78125 16.125 L 8.78125 17.1875 L 11.625 17.1875 L 11.625 25 L 12.9375 25 L 12.9375 14.0625 Z M 25 14.0625 C 24.433594 14.0625 23.9375 14.148438 23.53125 14.3125 C 23.125 14.476563 22.796875 14.691406 22.53125 14.96875 C 22.261719 15.246094 22.058594 15.597656 21.90625 15.96875 C 21.753906 16.339844 21.613281 16.714844 21.53125 17.125 C 21.449219 17.535156 21.425781 17.972656 21.40625 18.40625 C 21.386719 18.839844 21.375 19.253906 21.375 19.65625 C 21.375 20.058594 21.386719 20.441406 21.40625 20.875 C 21.425781 21.308594 21.449219 21.746094 21.53125 22.15625 C 21.613281 22.566406 21.753906 22.949219 21.90625 23.3125 C 22.0625 23.675781 22.265625 24.003906 22.53125 24.28125 C 22.796875 24.558594 23.125 24.777344 23.53125 24.9375 C 23.9375 25.097656 24.433594 25.1875 25 25.1875 C 25.574219 25.1875 26.070313 25.097656 26.46875 24.9375 C 26.871094 24.777344 27.203125 24.558594 27.46875 24.28125 C 27.738281 24.003906 27.941406 23.675781 28.09375 23.3125 C 28.246094 22.949219 28.386719 22.566406 28.46875 22.15625 C 28.550781 21.746094 28.574219 21.308594 28.59375 20.875 C 28.613281 20.441406 28.625 20.054688 28.625 19.65625 C 28.625 19.253906 28.613281 18.839844 28.59375 18.40625 C 28.574219 17.972656 28.550781 17.535156 28.46875 17.125 C 28.386719 16.714844 28.246094 16.339844 28.09375 15.96875 C 27.9375 15.597656 27.734375 15.246094 27.46875 14.96875 C 27.203125 14.691406 26.875 14.476563 26.46875 14.3125 C 26.0625 14.148438 25.566406 14.0625 25 14.0625 Z M 37.8125 14.0625 C 37.738281 14.472656 37.601563 14.828125 37.40625 15.09375 C 37.210938 15.363281 36.96875 15.566406 36.6875 15.71875 C 36.40625 15.871094 36.101563 15.976563 35.75 16.03125 C 35.402344 16.085938 35.027344 16.125 34.65625 16.125 L 34.65625 17.1875 L 37.5 17.1875 L 37.5 25 L 38.8125 25 L 38.8125 14.0625 Z M 25 15.21875 C 25.371094 15.21875 25.683594 15.296875 25.9375 15.4375 C 26.195313 15.582031 26.421875 15.769531 26.59375 16 C 26.761719 16.230469 26.878906 16.503906 26.96875 16.8125 C 27.054688 17.121094 27.109375 17.457031 27.15625 17.78125 C 27.203125 18.105469 27.246094 18.425781 27.25 18.75 C 27.253906 19.074219 27.25 19.359375 27.25 19.625 C 27.25 20.035156 27.246094 20.492188 27.21875 21 C 27.195313 21.507813 27.105469 21.992188 26.96875 22.4375 C 26.828125 22.882813 26.589844 23.253906 26.28125 23.5625 C 25.972656 23.871094 25.554688 24.03125 25 24.03125 C 24.445313 24.03125 24.027344 23.871094 23.71875 23.5625 C 23.410156 23.253906 23.171875 22.882813 23.03125 22.4375 C 22.894531 21.992188 22.804688 21.511719 22.78125 21 C 22.753906 20.492188 22.753906 20.035156 22.75 19.625 C 22.75 19.359375 22.746094 19.074219 22.75 18.75 C 22.753906 18.425781 22.796875 18.105469 22.84375 17.78125 C 22.890625 17.457031 22.945313 17.121094 23.03125 16.8125 C 23.121094 16.503906 23.234375 16.230469 23.40625 16 C 23.578125 15.769531 23.804688 15.582031 24.0625 15.4375 C 24.320313 15.292969 24.628906 15.21875 25 15.21875 Z M 12 28.96875 C 11.433594 28.96875 10.9375 29.054688 10.53125 29.21875 C 10.125 29.382813 9.796875 29.628906 9.53125 29.90625 C 9.261719 30.183594 9.058594 30.503906 8.90625 30.875 C 8.753906 31.246094 8.613281 31.621094 8.53125 32.03125 C 8.449219 32.441406 8.425781 32.878906 8.40625 33.3125 C 8.386719 33.746094 8.375 34.160156 8.375 34.5625 C 8.375 34.964844 8.386719 35.378906 8.40625 35.8125 C 8.425781 36.246094 8.449219 36.652344 8.53125 37.0625 C 8.613281 37.472656 8.753906 37.855469 8.90625 38.21875 C 9.058594 38.582031 9.265625 38.910156 9.53125 39.1875 C 9.796875 39.464844 10.125 39.683594 10.53125 39.84375 C 10.9375 40.003906 11.433594 40.09375 12 40.09375 C 12.574219 40.09375 13.070313 40.003906 13.46875 39.84375 C 13.871094 39.683594 14.203125 39.464844 14.46875 39.1875 C 14.738281 38.910156 14.941406 38.582031 15.09375 38.21875 C 15.246094 37.855469 15.386719 37.472656 15.46875 37.0625 C 15.550781 36.652344 15.574219 36.246094 15.59375 35.8125 C 15.613281 35.378906 15.625 34.960938 15.625 34.5625 C 15.625 34.160156 15.613281 33.746094 15.59375 33.3125 C 15.574219 32.878906 15.550781 32.441406 15.46875 32.03125 C 15.386719 31.621094 15.246094 31.246094 15.09375 30.875 C 14.9375 30.503906 14.734375 30.183594 14.46875 29.90625 C 14.203125 29.628906 13.875 29.382813 13.46875 29.21875 C 13.0625 29.054688 12.566406 28.96875 12 28.96875 Z M 24.875 28.96875 C 24.800781 29.378906 24.664063 29.734375 24.46875 30 C 24.273438 30.269531 24.03125 30.472656 23.75 30.625 C 23.46875 30.777344 23.164063 30.882813 22.8125 30.9375 C 22.464844 30.992188 22.089844 31.03125 21.71875 31.03125 L 21.71875 32.09375 L 24.5625 32.09375 L 24.5625 39.90625 L 25.875 39.90625 L 25.875 28.96875 Z M 38 28.96875 C 37.433594 28.96875 36.9375 29.054688 36.53125 29.21875 C 36.125 29.382813 35.796875 29.628906 35.53125 29.90625 C 35.261719 30.183594 35.058594 30.503906 34.90625 30.875 C 34.753906 31.246094 34.613281 31.621094 34.53125 32.03125 C 34.449219 32.441406 34.425781 32.878906 34.40625 33.3125 C 34.386719 33.746094 34.375 34.160156 34.375 34.5625 C 34.375 34.964844 34.386719 35.378906 34.40625 35.8125 C 34.425781 36.246094 34.449219 36.652344 34.53125 37.0625 C 34.613281 37.472656 34.753906 37.855469 34.90625 38.21875 C 35.0625 38.582031 35.265625 38.910156 35.53125 39.1875 C 35.796875 39.464844 36.125 39.683594 36.53125 39.84375 C 36.9375 40.003906 37.433594 40.09375 38 40.09375 C 38.574219 40.09375 39.070313 40.003906 39.46875 39.84375 C 39.871094 39.683594 40.203125 39.464844 40.46875 39.1875 C 40.738281 38.910156 40.941406 38.582031 41.09375 38.21875 C 41.246094 37.855469 41.386719 37.472656 41.46875 37.0625 C 41.550781 36.652344 41.574219 36.246094 41.59375 35.8125 C 41.613281 35.378906 41.625 34.960938 41.625 34.5625 C 41.625 34.160156 41.613281 33.746094 41.59375 33.3125 C 41.574219 32.878906 41.550781 32.441406 41.46875 32.03125 C 41.386719 31.621094 41.246094 31.246094 41.09375 30.875 C 40.9375 30.503906 40.734375 30.183594 40.46875 29.90625 C 40.203125 29.628906 39.875 29.382813 39.46875 29.21875 C 39.0625 29.054688 38.566406 28.96875 38 28.96875 Z M 12 30.125 C 12.371094 30.125 12.679688 30.199219 12.9375 30.34375 C 13.195313 30.488281 13.421875 30.675781 13.59375 30.90625 C 13.761719 31.136719 13.878906 31.410156 13.96875 31.71875 C 14.054688 32.027344 14.109375 32.363281 14.15625 32.6875 C 14.203125 33.011719 14.246094 33.332031 14.25 33.65625 C 14.253906 33.980469 14.25 34.265625 14.25 34.53125 C 14.25 34.941406 14.246094 35.398438 14.21875 35.90625 C 14.195313 36.414063 14.105469 36.898438 13.96875 37.34375 C 13.828125 37.789063 13.589844 38.160156 13.28125 38.46875 C 12.972656 38.777344 12.554688 38.9375 12 38.9375 C 11.445313 38.9375 11.027344 38.777344 10.71875 38.46875 C 10.410156 38.160156 10.171875 37.789063 10.03125 37.34375 C 9.894531 36.898438 9.804688 36.417969 9.78125 35.90625 C 9.753906 35.398438 9.753906 34.941406 9.75 34.53125 C 9.75 34.265625 9.746094 33.980469 9.75 33.65625 C 9.753906 33.332031 9.796875 33.011719 9.84375 32.6875 C 9.890625 32.363281 9.945313 32.027344 10.03125 31.71875 C 10.121094 31.410156 10.234375 31.136719 10.40625 30.90625 C 10.578125 30.675781 10.804688 30.488281 11.0625 30.34375 C 11.320313 30.199219 11.628906 30.125 12 30.125 Z M 38 30.125 C 38.371094 30.125 38.679688 30.199219 38.9375 30.34375 C 39.195313 30.488281 39.421875 30.675781 39.59375 30.90625 C 39.761719 31.136719 39.878906 31.410156 39.96875 31.71875 C 40.054688 32.027344 40.109375 32.363281 40.15625 32.6875 C 40.203125 33.011719 40.246094 33.332031 40.25 33.65625 C 40.253906 33.980469 40.25 34.265625 40.25 34.53125 C 40.25 34.941406 40.246094 35.398438 40.21875 35.90625 C 40.195313 36.414063 40.105469 36.898438 39.96875 37.34375 C 39.828125 37.789063 39.589844 38.160156 39.28125 38.46875 C 38.972656 38.777344 38.554688 38.9375 38 38.9375 C 37.445313 38.9375 37.027344 38.777344 36.71875 38.46875 C 36.410156 38.160156 36.171875 37.789063 36.03125 37.34375 C 35.894531 36.898438 35.804688 36.417969 35.78125 35.90625 C 35.753906 35.398438 35.753906 34.941406 35.75 34.53125 C 35.75 34.265625 35.746094 33.980469 35.75 33.65625 C 35.753906 33.332031 35.796875 33.011719 35.84375 32.6875 C 35.890625 32.363281 35.945313 32.027344 36.03125 31.71875 C 36.121094 31.410156 36.234375 31.136719 36.40625 30.90625 C 36.578125 30.675781 36.804688 30.488281 37.0625 30.34375 C 37.320313 30.199219 37.628906 30.125 38 30.125 Z"/></svg>