<svg xmlns="http://www.w3.org/2000/svg"  viewBox="0 0 50 50" width="50px" height="50px"><path d="M 3 7 C 1.3550302 7 0 8.3550302 0 10 L 0 40 C 0 41.64497 1.3550302 43 3 43 L 22.779297 43 C 23.328373 43.609333 24.115084 44 25 44 C 25.884916 44 26.671627 43.609333 27.220703 43 L 47 43 C 48.64497 43 50 41.64497 50 40 L 50 10 C 50 8.3550302 48.64497 7 47 7 L 27 7 C 26.223035 7 25.535366 7.3416196 25 7.8339844 C 24.464634 7.3416196 23.776965 7 23 7 L 3 7 z M 3 9 L 23 9 C 23.56503 9 24 9.4349698 24 10 L 24 41 L 22 41 L 3 41 C 2.4349698 41 2 40.56503 2 40 L 2 10 C 2 9.4349698 2.4349698 9 3 9 z M 27 9 L 47 9 C 47.56503 9 48 9.4349698 48 10 L 48 40 C 48 40.56503 47.56503 41 47 41 L 28 41 L 26 41 L 26 10 C 26 9.4349698 26.43497 9 27 9 z M 12.298828 19 L 7.7910156 32 L 10.423828 32 L 11.408203 29 L 15.626953 29 L 16.597656 32 L 19.369141 32 L 14.851562 19 L 12.298828 19 z M 32.878906 19 L 32.878906 21.009766 L 39.376953 21.009766 L 39.376953 21.162109 L 32.693359 30.414062 L 32.693359 32 L 42.351562 32 L 42.351562 29.990234 L 35.529297 29.990234 L 35.529297 29.837891 L 42.185547 20.585938 L 42.185547 19 L 32.878906 19 z M 13.455078 22 L 13.595703 22 L 15.205078 27 L 11.830078 27 L 13.455078 22 z"/></svg>