<svg xmlns="http://www.w3.org/2000/svg"  viewBox="0 0 50 50" width="50px" height="50px"><path d="M 4 4 L 4 45 A 1.0001 1.0001 0 0 0 5 46 L 46 46 L 46 44 L 26.414062 44 L 32.707031 37.707031 L 31.292969 36.292969 L 27 40.585938 L 27 17 L 25 17 L 25 40.585938 L 20.707031 36.292969 L 19.292969 37.707031 L 25.585938 44 L 6 44 L 6 4 L 4 4 z M 9 11 A 1 1 0 0 0 9 13 A 1 1 0 0 0 9 11 z M 13 11 A 1 1 0 0 0 13 13 A 1 1 0 0 0 13 11 z M 17 11 A 1 1 0 0 0 17 13 A 1 1 0 0 0 17 11 z M 21 11 A 1 1 0 0 0 21 13 A 1 1 0 0 0 21 11 z M 25 11 A 1 1 0 0 0 25 13 A 1 1 0 0 0 25 11 z M 29 11 A 1 1 0 0 0 29 13 A 1 1 0 0 0 29 11 z M 33 11 A 1 1 0 0 0 33 13 A 1 1 0 0 0 33 11 z M 37 11 A 1 1 0 0 0 37 13 A 1 1 0 0 0 37 11 z M 41 11 A 1 1 0 0 0 41 13 A 1 1 0 0 0 41 11 z M 45 11 A 1 1 0 0 0 45 13 A 1 1 0 0 0 45 11 z"/></svg>