<svg xmlns="http://www.w3.org/2000/svg"  viewBox="0 0 50 50" width="50px" height="50px"><path d="M 21.330078 2 C 15.823488 2 12.560797 4.9852076 11.486328 7.6503906 C 8.6283614 8.1935772 6.0676655 10.127458 4.765625 13.119141 C 3.4274674 16.193809 3.4658081 20.305584 5.5625 24.939453 C 4.3781781 26.508079 3.6967671 28.513067 4.0332031 30.550781 C 4.365129 32.561178 5.749464 34.44545 8.1328125 35.570312 C 7.2011782 37.810718 7.5303514 40.007103 8.7617188 41.550781 C 10.048031 43.16334 12.11837 44.033977 14.289062 44.199219 C 14.945737 45.875004 16.136189 46.998184 17.433594 47.472656 C 18.912784 48.013609 20.410391 48 21.330078 48 C 22.820037 48 24.129732 47.304783 24.984375 46.224609 C 25.823155 47.302034 27.125475 47.990973 28.662109 48.001953 L 28.697266 48.001953 C 29.606266 48.001953 31.087813 47.76225 32.507812 47.03125 C 31.728813 46.68025 31.000078 46.241516 30.330078 45.728516 C 29.669078 45.912516 29.068781 45.987 28.675781 46 C 27.100781 45.989 26 44.892031 26 43.332031 L 26 8.1855469 C 26.000457 4.0007602 27.298164 4 28.669922 4 C 33.654922 4 36.353813 6.9283906 36.882812 8.7753906 L 37.064453 9.4121094 L 37.722656 9.4921875 C 39.865656 9.7531875 41.722406 11.052687 42.816406 13.054688 C 44.464406 16.068688 44.214047 20.133813 42.123047 24.507812 C 41.958047 24.739812 41.285297 25.635953 40.279297 26.501953 C 40.984297 26.722953 41.657922 27.014234 42.294922 27.365234 C 42.558922 27.103234 42.797094 26.848141 42.996094 26.619141 C 43.324094 27.133141 43.569563 27.714359 43.726562 28.318359 C 44.541562 28.951359 45.263047 29.694344 45.873047 30.527344 C 46.150047 28.446344 45.401594 26.323219 44.183594 24.824219 C 46.321594 20.055219 46.462312 15.556703 44.570312 12.095703 C 43.268313 9.7137031 41.109984 8.1044219 38.583984 7.6074219 C 37.544984 5.1534219 34.308922 2 28.669922 2 C 26.93511 2 25.74175 2.4966803 24.994141 3.59375 C 24.954765 3.537641 24.919107 3.4777073 24.876953 3.4238281 C 24.034359 2.3468635 22.703005 2 21.330078 2 z M 21.330078 4 C 22.420152 4 22.924625 4.1754647 23.300781 4.65625 C 23.676937 5.1370353 24 6.2121249 24 8.1855469 C 24 8.1855469 24 8.1875 24 8.1875 L 24 43.332031 L 24 43.333984 C 23.999112 44.965218 22.929421 46 21.330078 46 C 20.418765 46 19.164403 45.9753 18.121094 45.59375 C 17.077784 45.212203 16.263858 44.607007 15.886719 43.091797 L 15.699219 42.332031 L 14.917969 42.332031 C 13.083983 42.332031 11.287373 41.507724 10.326172 40.302734 C 9.3649706 39.097744 9.0711607 37.604558 10.275391 35.597656 L 10.916016 34.529297 L 9.7324219 34.134766 C 7.2701295 33.314151 6.2717641 31.835132 6.0058594 30.224609 C 5.7417587 28.625014 6.3265614 26.847318 7.3671875 25.703125 A 1.0001 1.0001 0 0 0 7.4082031 25.654297 L 7.8476562 25.177734 L 7.8417969 25.164062 C 8.5509204 24.426777 10.158442 23 12 23 C 13.833333 23 15.171991 23.45416 16.052734 23.894531 C 16.933477 24.334903 17.292969 24.707031 17.292969 24.707031 A 1.0001 1.0001 0 1 0 18.707031 23.292969 C 18.707031 23.292969 18.066523 22.665097 16.947266 22.105469 C 15.828009 21.54584 14.166667 21 12 21 C 9.7521637 21 8.0100376 22.211165 6.9589844 23.189453 C 5.4518571 19.375431 5.5966548 16.222445 6.5996094 13.917969 C 7.7212332 11.340827 9.9126002 9.7804015 12.277344 9.4921875 L 12.933594 9.4121094 L 13.117188 8.7753906 C 13.599041 7.0967978 16.220718 4 21.330078 4 z M 18.984375 10.986328 A 1.0001 1.0001 0 0 0 18 12 C 18 12.306919 17.91031 13.100227 17.423828 13.736328 C 16.937345 14.37243 16.067266 15 14 15 A 1.0001 1.0001 0 1 0 14 17 C 16.515734 17 18.145905 16.08582 19.013672 14.951172 C 19.881439 13.816523 20 12.610081 20 12 A 1.0001 1.0001 0 0 0 18.984375 10.986328 z M 31.984375 12.986328 A 1.0001 1.0001 0 0 0 31 14 C 31 15.189277 31.472331 16.686219 32.744141 17.908203 C 34.01595 19.130187 36.058061 20 39 20 A 1.0001 1.0001 0 1 0 39 18 C 36.441939 18 34.98405 17.286563 34.130859 16.466797 C 33.277669 15.647031 33 14.643723 33 14 A 1.0001 1.0001 0 0 0 31.984375 12.986328 z M 37 28 C 32.041282 28 28 32.041282 28 37 C 28 41.958718 32.041282 46 37 46 C 39.119907 46 41.068899 45.256574 42.609375 44.023438 L 48.292969 49.707031 L 49.707031 48.292969 L 44.023438 42.609375 C 45.256574 41.068899 46 39.119907 46 37 C 46 32.041282 41.958718 28 37 28 z M 11.964844 29.998047 A 1.0001 1.0001 0 0 0 11.835938 31.986328 C 14.296178 32.395699 15.48309 33.657245 16.183594 34.970703 C 16.884098 36.284161 17 37.719948 17 38 A 1.0001 1.0001 0 1 0 19 38 C 19 37.364052 18.870965 35.757589 17.949219 34.029297 C 17.027473 32.301005 15.214822 30.521301 12.164062 30.013672 A 1.0001 1.0001 0 0 0 11.964844 29.998047 z M 37 30 C 40.877838 30 44 33.122162 44 37 C 44 40.877838 40.877838 44 37 44 C 33.122162 44 30 40.877838 30 37 C 30 33.122162 33.122162 30 37 30 z"/></svg>