<svg xmlns="http://www.w3.org/2000/svg"  viewBox="0 0 50 50" width="50px" height="50px"><path d="M 5.8125 0 C 5.335938 0.0898438 4.992188 0.511719 5 1 L 5 44 C 5 44.550781 5.449219 45 6 45 L 25.84375 45 C 27.945313 46.257813 30.378906 47 33 47 C 36.503906 47 39.699219 45.695313 42.15625 43.5625 L 48.59375 50 L 50 48.59375 L 43.5625 42.15625 C 45.695313 39.699219 47 36.503906 47 33 C 47 28.253906 44.621094 24.066406 41 21.53125 L 41 1 C 41 0.449219 40.550781 0 40 0 L 6 0 C 5.96875 0 5.9375 0 5.90625 0 C 5.875 0 5.84375 0 5.8125 0 Z M 7 2 L 39 2 L 39 20.375 C 37.175781 19.503906 35.152344 19 33 19 C 29.734375 19 26.726563 20.121094 24.34375 22 L 14 22 L 14 24 L 22.28125 24 C 21.289063 25.179688 20.5 26.535156 19.9375 28 L 14 28 L 14 30 L 19.34375 30 C 19.128906 30.96875 19 31.964844 19 33 C 19 33.339844 19.007813 33.667969 19.03125 34 L 14 34 L 14 36 L 19.3125 36 C 19.902344 38.703125 21.28125 41.128906 23.1875 43 L 7 43 Z M 14 10 L 14 12 L 33 12 L 33 10 Z M 14 16 L 14 18 L 33 18 L 33 16 Z M 33 21 C 35.371094 21 37.578125 21.664063 39.4375 22.84375 C 39.46875 22.867188 39.5 22.886719 39.53125 22.90625 C 42.828125 25.042969 45 28.769531 45 33 C 45 39.640625 39.640625 45 33 45 C 30.589844 45 28.347656 44.3125 26.46875 43.09375 C 23.171875 40.957031 21 37.230469 21 33 C 21 26.359375 26.359375 21 33 21 Z M 25 27 C 24.300781 27.898438 23.800781 28.898438 23.5 30 L 38 30 L 38 27 Z M 23.1875 35 C 23.386719 36.101563 23.8125 37.101563 24.3125 38 L 38 38 L 38 35 Z"/></svg>