<svg xmlns="http://www.w3.org/2000/svg"  viewBox="0 0 50 50" width="50px" height="50px"><path d="M 8.90625 1.96875 C 8.863281 1.976563 8.820313 1.988281 8.78125 2 C 8.316406 2.105469 7.988281 2.523438 8 3 C 8 10.191406 10.089844 15.011719 13.25 18.4375 C 15.941406 21.355469 19.359375 23.261719 22.78125 25 C 19.359375 26.738281 15.941406 28.644531 13.25 31.5625 C 10.089844 34.988281 8 39.808594 8 47 C 7.996094 47.359375 8.183594 47.695313 8.496094 47.878906 C 8.808594 48.058594 9.191406 48.058594 9.503906 47.878906 C 9.816406 47.695313 10.003906 47.359375 10 47 C 10 40.191406 11.910156 36.011719 14.75 32.9375 C 17.566406 29.886719 21.375 27.921875 25.34375 25.9375 C 25.433594 25.90625 25.515625 25.867188 25.59375 25.8125 C 29.542969 23.839844 33.628906 21.816406 36.75 18.4375 C 38.015625 17.066406 39.085938 15.445313 39.9375 13.5625 C 39.949219 13.542969 39.960938 13.519531 39.96875 13.5 C 39.972656 13.488281 39.996094 13.480469 40 13.46875 C 40.027344 13.410156 40.046875 13.34375 40.0625 13.28125 C 40.566406 12.117188 41 10.859375 41.3125 9.46875 C 41.402344 9.285156 41.4375 9.078125 41.40625 8.875 C 41.636719 7.71875 41.820313 6.511719 41.90625 5.1875 C 41.953125 4.480469 42 3.757813 42 3 C 42.007813 2.691406 41.871094 2.398438 41.632813 2.203125 C 41.398438 2.007813 41.082031 1.933594 40.78125 2 C 40.316406 2.105469 39.988281 2.523438 40 3 C 40 3.347656 39.980469 3.664063 39.96875 4 L 12 4 C 11.96875 4 11.9375 4 11.90625 4 C 11.355469 4.027344 10.925781 4.496094 10.953125 5.046875 C 10.980469 5.597656 11.449219 6.027344 12 6 L 39.84375 6 C 39.777344 6.703125 39.675781 7.359375 39.5625 8 L 12.59375 8 C 12.5625 8 12.53125 8 12.5 8 C 12.46875 8 12.4375 8 12.40625 8 C 11.855469 8.050781 11.449219 8.542969 11.5 9.09375 C 11.550781 9.644531 12.042969 10.050781 12.59375 10 L 39.09375 10 C 38.898438 10.699219 38.6875 11.375 38.4375 12 L 15 12 C 14.96875 12 14.9375 12 14.90625 12 C 14.875 12 14.84375 12 14.8125 12 C 14.261719 12.050781 13.855469 12.542969 13.90625 13.09375 C 13.957031 13.644531 14.449219 14.050781 15 14 L 37.46875 14 C 37.066406 14.710938 36.636719 15.386719 36.15625 16 L 18.40625 16 C 18.375 16 18.34375 16 18.3125 16 C 18.28125 16 18.25 16 18.21875 16 C 17.667969 16.050781 17.261719 16.542969 17.3125 17.09375 C 17.363281 17.644531 17.855469 18.050781 18.40625 18 L 34.3125 18 C 33.535156 18.726563 32.695313 19.382813 31.8125 20 L 24 20 C 23.96875 20 23.9375 20 23.90625 20 C 23.875 20 23.84375 20 23.8125 20 C 23.261719 20.050781 22.855469 20.542969 22.90625 21.09375 C 22.957031 21.644531 23.449219 22.050781 24 22 L 28.59375 22 C 27.429688 22.644531 26.222656 23.261719 25 23.875 C 21.160156 21.949219 17.484375 20.023438 14.75 17.0625 C 11.910156 13.988281 10 9.808594 10 3 C 10.011719 2.710938 9.894531 2.433594 9.6875 2.238281 C 9.476563 2.039063 9.191406 1.941406 8.90625 1.96875 Z M 29.125 26.1875 C 28.722656 26.253906 28.398438 26.558594 28.308594 26.957031 C 28.21875 27.355469 28.382813 27.769531 28.71875 28 L 23.3125 28 C 23.269531 27.996094 23.230469 27.996094 23.1875 28 C 23.15625 28 23.125 28 23.09375 28 C 22.542969 28.058594 22.140625 28.558594 22.203125 29.109375 C 22.261719 29.660156 22.761719 30.0625 23.3125 30 L 31.875 30 C 32.738281 30.613281 33.550781 31.28125 34.3125 32 L 17.8125 32 C 17.769531 31.996094 17.730469 31.996094 17.6875 32 C 17.65625 32 17.625 32 17.59375 32 C 17.042969 32.058594 16.640625 32.558594 16.703125 33.109375 C 16.761719 33.660156 17.261719 34.0625 17.8125 34 L 36.15625 34 C 36.339844 34.238281 36.511719 34.46875 36.6875 34.71875 C 36.972656 35.125 37.246094 35.554688 37.5 36 L 14.59375 36 C 14.5625 36 14.53125 36 14.5 36 C 14.46875 36 14.4375 36 14.40625 36 C 13.855469 36.050781 13.449219 36.542969 13.5 37.09375 C 13.550781 37.644531 14.042969 38.050781 14.59375 38 L 38.46875 38 C 38.722656 38.628906 38.929688 39.292969 39.125 40 L 12.59375 40 C 12.5625 40 12.53125 40 12.5 40 C 12.46875 40 12.4375 40 12.40625 40 C 11.855469 40.050781 11.449219 40.542969 11.5 41.09375 C 11.550781 41.644531 12.042969 42.050781 12.59375 42 L 39.5625 42 C 39.675781 42.632813 39.777344 43.308594 39.84375 44 L 12 44 C 11.96875 44 11.9375 44 11.90625 44 C 11.875 44 11.84375 44 11.8125 44 C 11.261719 44.050781 10.855469 44.542969 10.90625 45.09375 C 10.957031 45.644531 11.449219 46.050781 12 46 L 39.96875 46 C 39.980469 46.335938 40 46.652344 40 47 C 39.996094 47.359375 40.183594 47.695313 40.496094 47.878906 C 40.808594 48.058594 41.191406 48.058594 41.503906 47.878906 C 41.816406 47.695313 42.003906 47.359375 42 47 C 42 44.730469 41.789063 42.699219 41.40625 40.875 C 41.398438 40.777344 41.378906 40.683594 41.34375 40.59375 C 41.027344 39.164063 40.582031 37.875 40.0625 36.6875 C 40.054688 36.65625 40.042969 36.625 40.03125 36.59375 C 39.542969 35.492188 38.984375 34.480469 38.34375 33.5625 C 36.082031 30.324219 32.988281 28.175781 29.78125 26.34375 C 29.613281 26.238281 29.417969 26.183594 29.21875 26.1875 C 29.1875 26.1875 29.15625 26.1875 29.125 26.1875 Z"/></svg>