<?xml version="1.0" encoding="iso-8859-1"?>
<!-- Generator: Adobe Illustrator 24.1.0, SVG Export Plug-In . SVG Version: 6.00 Build 0)  -->
<svg version="1.1" id="Layer_1" xmlns="http://www.w3.org/2000/svg" xmlns:xlink="http://www.w3.org/1999/xlink" x="0px" y="0px"
	 viewBox="0 0 50 50" style="enable-background:new 0 0 50 50;" xml:space="preserve">
<g>
</g>
<g>
	<path style="fill:none;stroke:#000000;stroke-width:2;stroke-linecap:round;stroke-linejoin:round;stroke-miterlimit:10;" d="M4,5
		c0,0,16.372,6.367,17.888,15.631c0.135,0.825,0.838,1.445,1.672,1.381c0.933-0.071,2.689-0.591,4.298-1.525
		c2.989-1.734,2.886-6.095-0.201-7.647C21.317,9.654,10,1,10,1"/>
	<path style="fill:none;stroke:#000000;stroke-width:2;stroke-linecap:round;stroke-linejoin:round;stroke-miterlimit:10;" d="
		M32.969,12c2,4,1,7,1,7C39.969,19,38.969,11,32.969,12z"/>
	<path style="fill:none;stroke:#000000;stroke-width:2;stroke-linecap:round;stroke-linejoin:round;stroke-miterlimit:10;" d="
		M34,49l-0.539-17c2.465-3.081,0.512-5.783-0.582-7.402c-0.535-0.792-1.678-0.971-2.379-0.32c-1.513,1.405-4.516,1.772-6.846,1.826
		c-0.837,0.019-1.127,1.118-0.407,1.547c0.972,0.58,1.9,1.14,2.214,1.35c2.511,1.674,2.097,1.925,2.413,4.926L29,49"/>
	
		<line style="fill:none;stroke:#000000;stroke-width:2;stroke-linecap:round;stroke-linejoin:round;stroke-miterlimit:10;" x1="25" y1="49" x2="24.461" y2="33"/>
</g>
</svg>