<svg xmlns="http://www.w3.org/2000/svg"  viewBox="0 0 50 50" width="50px" height="50px"><path d="M 15 4 C 11.142857 4 8.9983118 6.288091 8.3476562 8.6738281 C 8.0223286 9.8666967 8.0075746 11.073268 8.1777344 12.121094 C 8.3478942 13.16892 8.6429827 14.057045 9.2929688 14.707031 A 1.0001 1.0001 0 0 0 10 15 L 12 15 A 1.0001 1.0001 0 0 0 13 14 C 13 14 13.0098 12.861361 13.332031 11.787109 C 13.493169 11.249983 13.735728 10.755658 14.009766 10.451172 C 14.283803 10.146686 14.527778 10 15 10 C 15.78234 10 17.290532 11.000804 18.859375 13.332031 C 20.376521 15.586438 21.950584 18.973706 23.359375 23.181641 L 12.125 43.515625 A 1.0001 1.0001 0 0 0 12.998047 45 C 17.057705 45.0043 20.790231 42.751362 22.675781 39.15625 L 22.675781 39.154297 L 26.113281 32.623047 C 26.92767 35.550662 27.752905 38.281709 28.933594 40.402344 C 30.442141 43.111892 32.73433 45 36 45 C 39.833333 45 42.088222 42.879919 42.943359 40.457031 C 43.798496 38.034143 43.522965 35.404953 42.949219 33.683594 A 1.0001 1.0001 0 0 0 42 33 L 40 33 A 1.0001 1.0001 0 0 0 39.013672 34.164062 C 39.013672 34.164062 39.215889 35.511446 38.904297 36.757812 C 38.748501 37.380997 38.478206 37.938987 38.056641 38.328125 C 37.635075 38.717263 37.05 39 36 39 C 35.375503 39 34.862727 38.724535 34.277344 38.042969 C 33.691961 37.361403 33.122079 36.287055 32.613281 34.986328 C 31.634817 32.484913 30.870223 29.161175 30.068359 26.099609 L 39.894531 6.4472656 A 1.0001 1.0001 0 0 0 39 5 C 35.552295 5.0024 32.37306 6.879116 30.705078 9.8964844 L 26.710938 17.125 C 25.81645 14.572784 24.774022 11.848563 23.273438 9.4746094 C 21.360964 6.4490428 18.669112 4 15 4 z M 15 6 C 17.790888 6 19.853957 7.806035 21.583984 10.542969 C 23.314011 13.279902 24.570622 16.850538 25.572266 19.855469 A 1.0001 1.0001 0 0 0 27.394531 20.023438 L 32.455078 10.863281 C 33.484863 9.000408 35.246306 7.7207275 37.263672 7.2363281 L 28.105469 25.552734 A 1.0001 1.0001 0 0 0 28.033203 26.255859 C 28.856254 29.364611 29.644549 32.883798 30.751953 35.714844 C 31.305655 37.130366 31.933977 38.381957 32.761719 39.345703 C 33.589465 40.30945 34.704497 41 36 41 C 37.45 41 38.614925 40.532737 39.412109 39.796875 C 40.209294 39.061013 40.626499 38.119003 40.845703 37.242188 C 41.053848 36.409607 41.081302 35.621151 41.068359 35 L 41.160156 35 C 41.471132 36.335187 41.614423 38.212584 41.056641 39.792969 C 40.411775 41.620081 39.166667 43 36 43 C 33.44567 43 31.993093 41.783233 30.681641 39.427734 C 29.370188 37.072235 28.415564 33.609806 27.355469 29.689453 A 1.0001 1.0001 0 0 0 25.505859 29.484375 L 20.904297 38.224609 A 1.0001 1.0001 0 0 0 20.904297 38.226562 C 19.654846 40.609704 17.404028 42.20695 14.833984 42.748047 L 25.335938 23.744141 A 1.0001 1.0001 0 0 0 25.410156 22.949219 C 23.924519 18.411187 22.241235 14.776116 20.517578 12.214844 C 18.793921 9.6535709 17.03766 8 15 8 C 13.972222 8 13.091197 8.4783142 12.521484 9.1113281 C 11.951772 9.744342 11.631831 10.500017 11.417969 11.212891 C 11.143719 12.127056 11.182587 12.480588 11.150391 13 L 10.597656 13 C 10.458313 12.768707 10.252225 12.427865 10.150391 11.800781 C 10.023675 11.020482 10.040172 10.070803 10.277344 9.2011719 C 10.751688 7.461909 11.857143 6 15 6 z"/></svg>