<svg xmlns="http://www.w3.org/2000/svg"  viewBox="0 0 50 50" width="50px" height="50px"><path d="M 25 2.9882812 L 25 23.089844 C 23.322871 23.344263 22 24.743578 22 26.488281 C 22 28.408861 23.578329 29.988281 25.5 29.988281 L 43.5 29.988281 C 45.421188 29.988281 47 28.40947 47 26.488281 L 47 2.9882812 L 25 2.9882812 z M 21.015625 3.2695312 A 1.0001 1.0001 0 0 0 20.845703 3.2832031 C 16.069112 4.0245878 12.798817 6.1787323 10.722656 9.0976562 C 8.6963508 11.946488 7.8053184 15.458357 7.3925781 19.066406 L 3.3417969 26.046875 L 3.3378906 26.054688 C 2.6485733 27.295144 3.088337 28.913918 4.3398438 29.609375 L 4.359375 29.619141 L 7.4160156 31.148438 L 8.4003906 38.357422 L 8.4023438 38.369141 C 8.8312394 41.050044 11.181506 43.091631 13.904297 42.982422 L 13.863281 42.984375 L 17 42.986328 L 17 45.988281 L 17 46.988281 L 17.830078 46.988281 A 1.0001 1.0001 0 0 0 18.164062 46.988281 L 19 46.988281 L 19 44.988281 L 19 40.988281 L 13.845703 40.984375 L 13.824219 40.984375 C 12.159009 41.051165 10.650057 39.759831 10.376953 38.052734 L 10.378906 38.076172 L 9.2558594 29.832031 L 5.3125 27.859375 C 4.9857794 27.676667 4.8976664 27.366146 5.0859375 27.027344 L 9.3066406 19.751953 L 9.3300781 19.539062 C 9.7080068 16.02472 10.572426 12.759935 12.353516 10.255859 C 14.134605 7.7517838 16.807888 5.9343808 21.154297 5.2597656 A 1.0001 1.0001 0 0 0 21.015625 3.2695312 z M 27 4.9882812 L 45 4.9882812 L 45 26.488281 C 45 27.329093 44.340812 27.988281 43.5 27.988281 L 43.5 27.986328 C 42.673 27.987328 42 27.315281 42 26.488281 C 42 25.837281 42.419 25.287078 43 25.080078 L 43 23.037109 L 43 22.988281 L 27 22.988281 L 27 4.9882812 z M 38 8.9882812 L 39.292969 10.28125 L 37 12.574219 L 34 9.5742188 L 30.292969 13.28125 L 31.707031 14.695312 L 34 12.402344 L 37 15.402344 L 40.707031 11.695312 L 42 12.988281 L 42 8.9882812 L 38 8.9882812 z M 30 17.988281 L 30 19.988281 L 42 19.988281 L 42 17.988281 L 30 17.988281 z M 25.5 24.988281 L 40.355469 24.988281 C 40.135634 25.443466 40 25.946603 40 26.486328 C 40 27.025795 40.13266 27.531492 40.351562 27.988281 L 25.5 27.988281 C 24.659671 27.988281 24 27.327702 24 26.488281 C 24 25.647952 24.66058 24.988281 25.5 24.988281 z M 38.162109 31.976562 A 1.0001 1.0001 0 0 0 37.28125 32.488281 C 35.876424 34.923523 35 37.675243 35 40.582031 L 35 44.988281 L 35 45.988281 L 35 46.988281 L 35.832031 46.988281 A 1.0001 1.0001 0 0 0 36.158203 46.988281 L 37 46.988281 L 37 45.988281 L 37 44.988281 L 37 40.582031 C 37 38.07682 37.754497 35.671039 39.013672 33.488281 A 1.0001 1.0001 0 0 0 38.162109 31.976562 z"/></svg>