<svg xmlns="http://www.w3.org/2000/svg"  viewBox="0 0 50 50" width="50px" height="50px"><path d="M 7 4 C 5.346 4 4 5.346 4 7 L 4 46 L 34 46 L 34 7 C 34 5.346 32.654 4 31 4 L 7 4 z M 7 6 L 31 6 C 31.551 6 32 6.449 32 7 L 32 34 L 6 34 L 6 7 C 6 6.449 6.449 6 7 6 z M 19 9 C 12.935 9 8 13.935 8 20 C 8 26.065 12.935 31 19 31 C 25.065 31 30 26.065 30 20 C 30 13.935 25.065 9 19 9 z M 19 11 C 23.962 11 28 15.038 28 20 C 28 24.962 23.962 29 19 29 C 14.038 29 10 24.962 10 20 C 10 15.038 14.038 11 19 11 z M 36 11 L 36 13 L 37.998047 13 C 38.800047 13 39.552141 13.311906 40.119141 13.878906 C 40.686141 14.445906 40.999047 15.199953 40.998047 16.001953 L 40.996094 19 L 40 19 C 38.895 19 38 19.895 38 21 L 38 29 C 38 30.105 38.895 31 40 31 L 40.998047 31 L 41 45 C 41 45.552 41.448 46 42 46 C 42.552 46 43 45.552 43 45 L 42.998047 31 L 44 31 C 45.105 31 46 30.105 46 29 L 46 21 C 46 19.895 45.105 19 44 19 L 42.996094 19 L 42.998047 16.001953 C 42.998047 14.665953 42.479156 13.409844 41.535156 12.464844 C 40.590156 11.520844 39.334047 11 37.998047 11 L 36 11 z M 19 13 C 18.448 13 18 13.448 18 14 L 18 18.277344 C 17.405 18.623344 17 19.261 17 20 C 17 21.105 17.895 22 19 22 C 20.105 22 21 21.105 21 20 C 21 19.262 20.595 18.624344 20 18.277344 L 20 14 C 20 13.448 19.552 13 19 13 z M 6 36 L 32 36 L 32 44 L 6 44 L 6 36 z M 10 38 A 2 2 0 0 0 10 42 A 2 2 0 0 0 10 38 z M 16 38 A 2 2 0 0 0 16 42 A 2 2 0 0 0 16 38 z M 22 38 A 2 2 0 0 0 22 42 A 2 2 0 0 0 22 38 z M 28 38 A 2 2 0 0 0 28 42 A 2 2 0 0 0 28 38 z"/></svg>