<svg xmlns="http://www.w3.org/2000/svg"  viewBox="0 0 50 50" width="50px" height="50px"><path d="M 12 2 C 8.5024444 2 6 4.7560832 6 8 L 6 42.417969 L 6.0039062 42.417969 C 6.0034939 42.445541 6 42.472334 6 42.5 C 6 45.525577 8.4744232 48 11.5 48 L 44 48 L 44 46 L 11.5 46 C 9.5555768 46 8 44.444423 8 42.5 C 8 40.555577 9.5555768 39 11.5 39 L 44 39 L 44 38 L 44 37 L 44 2 L 12 2 z M 12 4 L 42 4 L 42 37 L 11.5 37 C 10.173347 37 8.9525799 37.476278 8 38.265625 L 8 8 C 8 5.7219168 9.4975556 4 12 4 z M 18 7.0058594 A 2 1.994 0 1 0 18 10.994141 A 2 1.994 0 1 0 18 7.0058594 z M 33.167969 8.0292969 C 30.899863 7.9699805 28.074844 9.0725 24.996094 11.21875 C 23.950094 10.49175 22.933984 9.8843437 21.958984 9.4023438 C 21.888984 10.093344 21.657297 10.734391 21.279297 11.275391 C 21.930297 11.612391 22.610594 12.021375 23.308594 12.484375 C 22.131594 13.423375 20.929891 14.495891 19.712891 15.712891 C 18.524891 16.900891 17.444234 18.109594 16.490234 19.308594 C 15.822234 18.302594 15.268375 17.327156 14.859375 16.410156 C 14.117375 14.747156 13.525188 12.536422 14.617188 11.107422 C 14.232188 10.494422 14 9.775 14 9 C 14 8.972 14.007812 8.9469219 14.007812 8.9199219 C 13.799813 9.0679219 13.599063 9.2280625 13.414062 9.4140625 C 12.194062 10.633062 11.138203 12.978562 13.033203 17.226562 C 13.565203 18.417562 14.316469 19.693 15.230469 21 C 14.316469 22.307 13.565203 23.582437 13.033203 24.773438 C 11.138203 29.021438 12.194062 31.366938 13.414062 32.585938 C 14.348062 33.520938 15.573719 33.972656 17.011719 33.972656 C 19.247719 33.972656 22.004953 32.872203 25.001953 30.783203 C 26.048953 31.511203 27.065016 32.121516 28.041016 32.603516 C 28.110016 31.910516 28.340703 31.265656 28.720703 30.722656 C 28.070703 30.386656 27.391312 29.979578 26.695312 29.517578 C 27.870313 28.580578 29.072109 27.502109 30.287109 26.287109 C 31.476109 25.099109 32.557719 23.888453 33.511719 22.689453 C 34.179719 23.694453 34.732625 24.671891 35.140625 25.587891 C 35.882625 27.250891 36.474813 29.461625 35.382812 30.890625 C 35.767813 31.505625 36 32.225 36 33 C 36 33.022 35.993188 33.042453 35.992188 33.064453 C 36.197187 32.917453 36.402938 32.769938 36.585938 32.585938 C 37.805937 31.366937 38.860797 29.021438 36.966797 24.773438 C 36.434797 23.582438 35.683531 22.306047 34.769531 20.998047 C 35.683531 19.691047 36.434797 18.417563 36.966797 17.226562 C 38.861797 12.978562 37.805937 10.633062 36.585938 9.4140625 C 35.690438 8.5178125 34.528832 8.0648867 33.167969 8.0292969 z M 32.935547 10.007812 C 33.855547 10.007812 34.617875 10.274125 35.171875 10.828125 C 36.577875 12.234125 35.930625 14.639156 35.140625 16.410156 C 34.731625 17.326156 34.179719 18.302594 33.511719 19.308594 C 32.557719 18.109594 31.477063 16.898938 30.289062 15.710938 C 29.069063 14.490937 27.863547 13.418422 26.685547 12.482422 C 29.101547 10.876422 31.278547 10.007812 32.935547 10.007812 z M 25 13.695312 C 26.258 14.664312 27.561 15.811 28.875 17.125 C 30.162 18.412 31.307969 19.718047 32.292969 20.998047 C 31.307969 22.279047 30.162 23.586047 28.875 24.873047 C 27.559 26.188047 26.256094 27.330734 24.996094 28.302734 C 23.739094 27.333734 22.438 26.186047 21.125 24.873047 C 19.838 23.586047 18.692031 22.279047 17.707031 20.998047 C 18.693031 19.717047 19.838 18.412 21.125 17.125 C 22.439 15.811 23.741 14.666312 25 13.695312 z M 25 18 A 3.009 3 0 0 0 25 24 A 3.009 3 0 0 0 25 18 z M 16.488281 22.691406 C 17.442281 23.890406 18.523891 25.101062 19.712891 26.289062 C 20.931891 27.508063 22.1345 28.579578 23.3125 29.517578 C 19.5555 32.015578 16.381125 32.725875 14.828125 31.171875 C 13.422125 29.765875 14.069375 27.358891 14.859375 25.587891 C 15.268375 24.671891 15.820281 23.697406 16.488281 22.691406 z M 32 31.005859 A 2 1.994 0 1 0 32 34.994141 A 2 1.994 0 1 0 32 31.005859 z"/></svg>