<svg xmlns="http://www.w3.org/2000/svg"  viewBox="0 0 50 50" width="50px" height="50px"><path d="M 25 2 C 12.309288 2 2 12.309297 2 25 C 2 30.985984 4.2954342 36.440793 8.0507812 40.535156 L 4.2929688 44.292969 A 1.0001 1.0001 0 1 0 5.7070312 45.707031 L 9.4648438 41.949219 C 13.559206 45.704567 19.014012 48 25 48 C 37.690712 48 48 37.690703 48 25 C 48 19.014016 45.704566 13.559207 41.949219 9.4648438 L 45.707031 5.7070312 A 1.0001 1.0001 0 0 0 44.980469 3.9902344 A 1.0001 1.0001 0 0 0 44.292969 4.2929688 L 40.535156 8.0507812 C 36.440794 4.295433 30.985988 2 25 2 z M 25 4 C 30.444357 4 35.384624 6.0821617 39.113281 9.4726562 L 9.4726562 39.113281 C 6.0821628 35.384623 4 30.444353 4 25 C 4 13.390175 13.390167 4 25 4 z M 40.527344 10.886719 C 43.917837 14.615377 46 19.555647 46 25 C 46 36.609825 36.609833 46 25 46 C 19.555643 46 14.615376 43.917838 10.886719 40.527344 L 40.527344 10.886719 z"/></svg>