<svg xmlns="http://www.w3.org/2000/svg"  viewBox="0 0 50 50" width="50px" height="50px"><path d="M 25 0.75195312 L 4 12.875 L 4 37.125 L 25 49.248047 L 46 37.125 L 46 36.546875 L 46 12.875 L 25 0.75195312 z M 25 3.0605469 L 43.396484 13.683594 L 35.552734 17.605469 L 36.447266 19.394531 L 44 15.617188 L 44 35.970703 L 26 46.361328 L 26 36 L 24 36 L 24 46.361328 L 6 35.96875 L 6 15.617188 L 13.552734 19.394531 L 14.447266 17.605469 L 6.6035156 13.683594 L 25 3.0605469 z M 25 15 C 20.041279 15 16 19.041283 16 24 C 16 28.958717 20.041279 33 25 33 C 29.958721 33 34 28.958717 34 24 C 34 19.041283 29.958721 15 25 15 z M 25 17 C 28.877841 17 32 20.122161 32 24 C 32 27.877839 28.877841 31 25 31 C 21.122159 31 18 27.877839 18 24 C 18 20.122161 21.122159 17 25 17 z"/></svg>