<svg xmlns="http://www.w3.org/2000/svg"  viewBox="0 0 50 50" width="50px" height="50px"><path d="M 17.980469 3.9902344 A 1.0001 1.0001 0 0 0 17.292969 4.2929688 L 12.292969 9.2929688 A 1.0001 1.0001 0 0 0 12.292969 10.707031 L 17.292969 15.707031 A 1.0001 1.0001 0 1 0 18.707031 14.292969 L 15.414062 11 L 33 11 C 34.668484 11 36 12.331516 36 14 C 36 15.668484 34.668484 17 33 17 L 26 17 A 1.0001 1.0001 0 1 0 26 19 L 33 19 C 35.749516 19 38 16.749516 38 14 C 38 11.250484 35.749516 9 33 9 L 15.414062 9 L 18.707031 5.7070312 A 1.0001 1.0001 0 0 0 17.980469 3.9902344 z M 24.675781 23.992188 C 22.054605 24.048378 20.217493 25.185205 19.457031 26.923828 C 18.75816 28.521638 18.918485 30.421073 19.388672 32.380859 C 19.345552 32.452709 19.256575 32.485422 19.21875 32.566406 C 19.054093 32.918939 18.984373 33.371617 19.054688 33.849609 C 19.121118 34.550628 19.296719 35.108584 19.623047 35.527344 C 19.741198 35.678961 19.93559 35.665164 20.085938 35.769531 C 20.203285 36.318649 20.345669 36.866554 20.578125 37.310547 C 20.7662 37.669772 21.004535 37.899558 21.21875 38.164062 L 21.21875 39.876953 C 21.102688 40.128943 20.872767 40.38051 20.349609 40.673828 C 19.78903 40.988127 19.001564 41.302273 18.166016 41.716797 C 16.806523 42.391255 15.3071 43.49885 14.533203 45.376953 C 14.209674 45.168203 13.710162 44.946562 13.591797 44.751953 C 13.560417 44.251078 13.578923 43.776081 13.595703 43.242188 C 13.631323 43.195928 13.706661 43.159108 13.742188 43.111328 C 13.913775 42.880567 14.067628 42.619947 14.212891 42.330078 C 14.447277 41.862366 14.61219 41.293458 14.748047 40.722656 C 14.894143 40.61898 15.086112 40.634736 15.201172 40.486328 C 15.525437 40.068079 15.697099 39.507932 15.761719 38.810547 C 15.833759 38.332136 15.76582 37.878571 15.601562 37.527344 C 15.563792 37.446594 15.476354 37.415101 15.433594 37.34375 C 15.902896 35.38242 16.063284 33.483093 15.363281 31.884766 C 14.601877 30.146247 12.761285 29.009295 10.136719 28.953125 A 1.0001 1.0001 0 0 0 10.115234 28.953125 C 9.3503577 28.953125 8.6782194 29.026005 8.0703125 29.251953 C 7.7137691 29.384475 7.498986 29.740423 7.2207031 30.017578 C 6.2206636 30.208456 5.3933861 30.704522 4.890625 31.394531 C 4.3549157 32.12976 4.1419043 32.988895 4.0761719 33.816406 C 3.9655656 35.208838 4.2572919 36.46405 4.5605469 37.390625 C 4.5301469 37.445135 4.4654329 37.467625 4.4375 37.527344 C 4.2732789 37.878437 4.203609 38.331568 4.2753906 38.810547 C 4.3399916 39.508327 4.5114169 40.067984 4.8359375 40.486328 C 4.9491202 40.632233 5.1379604 40.616127 5.28125 40.71875 C 5.385582 41.285068 5.5128851 41.852652 5.7304688 42.310547 C 5.8707774 42.60582 6.020997 42.870091 6.1914062 43.103516 C 6.2271193 43.152436 6.3020434 43.191086 6.3378906 43.238281 L 6.3378906 44.835938 C 6.1608997 45.22842 5.8325629 45.529971 5.1953125 45.871094 C 4.5209188 46.2321 3.6110344 46.582285 2.7148438 47.158203 C 2.3906648 47.366445 1.8977549 47.632422 1.4296875 48.052734 C 0.9616201 48.473047 0.48632814 49.15125 0.48632812 50 L 2.4863281 50 C 2.4863281 49.84175 2.5304421 49.752203 2.765625 49.541016 C 3.0008076 49.329828 3.394054 49.100555 3.796875 48.841797 C 4.4676842 48.410715 5.3102687 48.079259 6.140625 47.634766 C 6.9709813 47.190272 7.8578786 46.569136 8.2714844 45.492188 A 1.0001 1.0001 0 0 0 8.3378906 45.132812 L 8.3378906 42.847656 A 1.0001 1.0001 0 0 0 7.796875 41.958984 C 7.9448555 42.034744 7.8781417 42.019102 7.8085938 41.923828 C 7.7346902 41.822599 7.6325507 41.653977 7.5371094 41.453125 C 7.3462267 41.051421 7.1796428 40.517269 7.1425781 40.085938 A 1.0001 1.0001 0 0 0 6.4042969 39.207031 C 6.3782688 39.166547 6.2870901 39.02751 6.2519531 38.601562 A 1.0001 1.0001 0 0 0 6.2421875 38.517578 C 6.2269935 38.427618 6.2414976 38.40649 6.2480469 38.392578 A 1.0001 1.0001 0 0 0 6.5800781 37.222656 C 6.3461256 36.631221 5.9772774 35.145836 6.0703125 33.974609 C 6.11683 33.388996 6.2693812 32.896818 6.5058594 32.572266 C 6.7423375 32.247713 7.0389048 32.027619 7.6835938 31.935547 A 1.0001 1.0001 0 0 0 8.4628906 31.333984 C 8.4877676 31.274974 8.5084846 31.221301 8.7675781 31.125 C 9.0240377 31.02968 9.4888777 30.95661 10.101562 30.955078 C 12.235064 31.002848 13.077415 31.649303 13.53125 32.685547 C 13.985846 33.723528 13.934741 35.411615 13.419922 37.332031 A 1.0001 1.0001 0 0 0 13.789062 38.392578 C 13.795362 38.405948 13.810172 38.426008 13.794922 38.515625 A 1.0001 1.0001 0 0 0 13.785156 38.601562 C 13.750036 39.026977 13.659034 39.166261 13.632812 39.207031 A 1.0001 1.0001 0 0 0 12.904297 40.005859 C 12.826417 40.470814 12.630552 41.021081 12.423828 41.433594 C 12.320466 41.63985 12.213787 41.814324 12.136719 41.917969 C 12.059649 42.021614 11.967055 42.041915 12.15625 41.949219 A 1.0001 1.0001 0 0 0 11.597656 42.847656 C 11.597656 43.562682 11.492422 44.227972 11.603516 45.242188 A 1.0001 1.0001 0 0 0 11.703125 45.582031 C 12.295736 46.762786 13.450575 47.32135 14.691406 47.839844 A 1.0001 1.0001 0 0 0 16.064453 47.078125 C 16.401443 45.011565 17.576284 44.243217 19.054688 43.509766 C 19.793889 43.14304 20.588189 42.831732 21.326172 42.417969 C 22.064155 42.004205 22.809951 41.442852 23.154297 40.523438 A 1.0001 1.0001 0 0 0 23.21875 40.171875 L 23.21875 37.890625 A 1.0001 1.0001 0 0 0 22.824219 37.095703 C 22.917249 37.166773 22.566 36.796121 22.349609 36.382812 C 22.133218 35.969504 21.960293 35.461513 21.929688 35.121094 A 1.0001 1.0001 0 0 0 21.1875 34.244141 C 21.16108 34.203041 21.07171 34.063535 21.035156 33.636719 A 1.0001 1.0001 0 0 0 21.025391 33.560547 C 21.010201 33.467857 21.024677 33.445791 21.03125 33.431641 A 1.0001 1.0001 0 0 0 21.402344 32.369141 C 20.886271 30.450749 20.834775 28.765189 21.289062 27.726562 C 21.742589 26.68968 22.582045 26.041895 24.710938 25.994141 C 25.83767 25.996641 26.325843 26.224637 26.568359 26.564453 A 1.0001 1.0001 0 0 0 27.240234 26.974609 C 27.884264 27.066769 28.167794 27.282921 28.396484 27.603516 C 28.625175 27.92411 28.77339 28.415546 28.814453 29.003906 C 28.896583 30.180626 28.535121 31.656355 28.316406 32.3125 A 1.0001 1.0001 0 0 0 28.669922 33.431641 C 28.676022 33.444761 28.689228 33.464461 28.673828 33.554688 A 1.0001 1.0001 0 0 0 28.664062 33.640625 C 28.628982 34.066953 28.539457 34.205757 28.513672 34.246094 A 1.0001 1.0001 0 0 0 27.773438 35.126953 C 27.736577 35.561999 27.570772 36.094729 27.380859 36.496094 C 27.285899 36.696776 27.185089 36.865477 27.111328 36.966797 C 27.037568 37.068117 26.948795 37.090756 27.132812 36.998047 A 1.0001 1.0001 0 0 0 26.582031 37.890625 C 26.582031 38.597875 26.471731 39.26626 26.587891 40.285156 A 1.0001 1.0001 0 0 0 26.646484 40.523438 C 26.988718 41.437213 27.724409 42.001464 28.455078 42.416016 C 29.185747 42.830567 29.971226 43.140887 30.705078 43.507812 C 32.172783 44.241666 33.359871 45.021666 33.740234 47.097656 A 1.0001 1.0001 0 0 0 35.041016 47.865234 C 36.306225 47.441011 37.672185 46.868678 38.150391 45.453125 A 1.0001 1.0001 0 0 0 38.203125 45.132812 L 38.203125 42.847656 A 1.0001 1.0001 0 0 0 37.804688 42.048828 C 37.90471 42.124035 37.549552 41.75466 37.332031 41.341797 C 37.11451 40.928934 36.938174 40.419271 36.90625 40.078125 A 1.0001 1.0001 0 0 0 36.166016 39.207031 C 36.139976 39.166531 36.05076 39.027484 36.015625 38.601562 A 1.0001 1.0001 0 0 0 36.005859 38.517578 C 35.990429 38.426208 36.005228 38.404121 36.011719 38.390625 A 1.0001 1.0001 0 0 0 36.380859 37.332031 C 35.868224 35.410475 35.817328 33.723499 36.271484 32.685547 C 36.724338 31.650574 37.563504 31.004228 39.691406 30.955078 C 40.648871 30.958378 41.205486 31.309864 41.332031 31.5 A 1.0001 1.0001 0 0 0 42.021484 31.935547 C 42.665514 32.027707 42.950996 32.243859 43.179688 32.564453 C 43.408378 32.885047 43.55464 33.376484 43.595703 33.964844 C 43.677833 35.141564 43.316371 36.617293 43.097656 37.273438 A 1.0001 1.0001 0 0 0 43.451172 38.392578 C 43.457672 38.406718 43.474194 38.428778 43.458984 38.521484 A 1.0001 1.0001 0 0 0 43.449219 38.597656 C 43.412609 39.023663 43.321753 39.165556 43.294922 39.207031 A 1.0001 1.0001 0 0 0 42.552734 40.089844 C 42.517624 40.519823 42.35446 41.052656 42.164062 41.453125 C 42.068863 41.65336 41.966301 41.823395 41.892578 41.923828 C 41.818858 42.024262 41.73073 42.041916 41.919922 41.949219 A 1.0001 1.0001 0 0 0 41.359375 42.847656 C 41.359375 43.562682 41.25414 44.227972 41.365234 45.242188 A 1.0001 1.0001 0 0 0 41.417969 45.472656 C 41.808486 46.554716 42.709334 47.164358 43.552734 47.607422 C 44.396135 48.050485 45.267365 48.391301 45.986328 48.845703 C 46.416587 49.117567 46.842443 49.347125 47.101562 49.5625 C 47.360684 49.777875 47.400391 49.858863 47.400391 50 L 49.400391 50 C 49.400391 49.119137 48.873536 48.436515 48.378906 48.025391 C 47.884277 47.614266 47.371429 47.354433 47.054688 47.154297 C 46.118651 46.562699 45.173771 46.201077 44.482422 45.837891 C 43.823175 45.491569 43.503993 45.198172 43.353516 44.841797 C 43.311176 44.298215 43.339712 43.805982 43.357422 43.238281 C 43.393512 43.191111 43.470006 43.154311 43.505859 43.105469 C 43.677606 42.871496 43.830027 42.60839 43.970703 42.3125 C 44.188498 41.854404 44.313128 41.285578 44.416016 40.71875 C 44.55877 40.616329 44.746454 40.63156 44.859375 40.486328 C 45.184669 40.067959 45.361231 39.509943 45.427734 38.810547 C 45.498054 38.332555 45.428329 37.879877 45.263672 37.527344 C 45.234132 37.464094 45.163419 37.440464 45.130859 37.382812 C 45.392687 36.493828 45.689527 35.226481 45.591797 33.826172 C 45.534237 33.001407 45.334106 32.141781 44.806641 31.402344 C 44.324955 30.727084 43.52184 30.247042 42.558594 30.042969 C 41.852954 29.347176 40.868466 28.953125 39.683594 28.953125 A 1.0001 1.0001 0 0 0 39.662109 28.953125 C 37.037606 29.009295 35.200047 30.144515 34.439453 31.882812 C 33.739974 33.481437 33.89971 35.381972 34.367188 37.34375 C 34.324528 37.41503 34.236964 37.446647 34.199219 37.527344 C 34.034475 37.879554 33.964122 38.333762 34.037109 38.814453 C 34.102069 39.510152 34.275766 40.068857 34.599609 40.486328 C 34.717711 40.638575 34.913876 40.623548 35.064453 40.728516 C 35.183312 41.279145 35.328065 41.828469 35.5625 42.273438 C 35.75026 42.629812 35.989608 42.856231 36.203125 43.119141 L 36.203125 44.845703 C 36.125995 45.033126 35.594796 45.233676 35.263672 45.433594 C 34.471415 43.522007 32.963643 42.400767 31.599609 41.71875 C 30.770962 41.304426 29.993987 40.989293 29.441406 40.675781 C 28.924001 40.382227 28.692904 40.132184 28.576172 39.875 C 28.532742 39.335762 28.561738 38.845385 28.580078 38.279297 C 28.616368 38.231567 28.69246 38.194057 28.728516 38.144531 C 28.898567 37.910945 29.049659 37.647006 29.189453 37.351562 C 29.406141 36.893611 29.533182 36.324677 29.636719 35.757812 C 29.779155 35.655848 29.96546 35.672342 30.078125 35.527344 C 30.403425 35.108698 30.576084 34.548613 30.640625 33.849609 C 30.712465 33.373244 30.646425 32.920961 30.482422 32.568359 C 30.452552 32.504139 30.380709 32.480329 30.347656 32.421875 C 30.609519 31.532902 30.906343 30.265807 30.808594 28.865234 C 30.751034 28.040469 30.552856 27.180843 30.025391 26.441406 C 29.538444 25.758771 28.725914 25.271592 27.748047 25.072266 C 26.978378 24.350643 25.925866 23.992186 24.697266 23.992188 A 1.0001 1.0001 0 0 0 24.675781 23.992188 z"/></svg>