<svg xmlns="http://www.w3.org/2000/svg"  viewBox="0 0 50 50" width="50px" height="50px"><path d="M 27 0 C 19.785714 0 15.211471 2.3656989 12.402344 5.3085938 C 9.5932167 8.2514885 8.5435637 11.700746 8.0292969 13.757812 C 7.722868 14.983746 7.1770507 15.756012 6.4160156 16.585938 C 5.6549805 17.415862 4.6659103 18.267622 3.6875 19.498047 C 1.7306793 21.958897 0 25.862792 0 34 A 1.0001 1.0001 0 0 0 1 35 L 4.4570312 35 C 4.6403064 35.389674 4.7876998 35.820989 5.4648438 36.638672 C 6.2649928 37.60489 7.4968765 38.641973 9.140625 38.921875 C 9.4322147 40.571932 10.158875 42.0249 11.160156 43.240234 C 12.541455 44.916826 14.408268 46.179633 16.382812 47.148438 C 20.331902 49.086047 24.710454 49.860103 26.9375 49.998047 A 1.0001 1.0001 0 0 0 27.242188 49.970703 C 29.375343 49.437414 30.773083 48.61553 31.640625 47.892578 C 32.059317 47.543668 32.040815 47.462979 32.246094 47.195312 C 33.145443 47.636797 36.046787 49 39 49 A 1.0001 1.0001 0 0 0 39.800781 48.599609 C 42.466843 45.044861 44.425739 41.416618 44.890625 37.679688 C 45.383307 37.449326 46.163508 37.050443 47.125 36.28125 C 48.501971 35.179674 50 33.416667 50 31 C 50 26.75 48.368566 23.778666 46.84375 21.376953 C 45.318934 18.97524 44 17.157266 44 15 C 44 10.75 42.364166 7.9501036 40.707031 6.2929688 C 39.308979 4.894916 38.072373 4.3712757 37.652344 4.2070312 C 37.407677 3.8217924 36.852879 3.0334299 35.554688 2.1679688 C 33.884011 1.054184 31.166667 -2.9605947e-16 27 0 z M 27 2 C 29.666158 2 31.568681 2.4603156 32.935547 3.0371094 C 32.62958 3.0195897 32.325551 3 32 3 C 29.666667 3 27.666667 4 26 4 C 22.833333 4 19.617452 4.7814779 17.136719 6.7109375 C 14.655985 8.6403971 13 11.75 13 16 L 13 18 C 13 20.833333 14.379222 23.242377 15.759766 25.626953 C 17.14031 28.011529 18.55218 30.39511 19.013672 33.164062 A 1.0001 1.0001 0 0 0 20.707031 33.707031 C 21.471329 32.942734 25.333333 30 31 30 C 34.666667 30 37.445312 31.832031 37.445312 31.832031 A 1.0001 1.0001 0 0 0 38.970703 31.242188 C 39.421197 29.440212 40.074804 28.32447 40.703125 27.082031 C 40.970235 27.949808 41.280527 28.695579 41.580078 29.394531 C 42.330078 31.144531 43 32.642857 43 36 C 43 39.505278 41.222902 43.156446 38.507812 46.890625 C 35.960239 46.69533 32.447266 45.105469 32.447266 45.105469 A 1.0001 1.0001 0 0 0 31.105469 45.552734 C 31.105469 45.552734 30.991833 45.830374 30.359375 46.357422 C 29.747629 46.86721 28.663873 47.512046 26.90625 47.976562 C 24.950496 47.837336 20.799865 47.088539 17.263672 45.353516 C 15.462591 44.46982 13.833811 43.338783 12.705078 41.96875 C 11.576345 40.598717 10.924896 39.020029 11 37.037109 A 1.0001 1.0001 0 0 0 11 37 C 11 35.166667 11.427734 34.121094 11.927734 32.871094 C 12.427734 31.621094 13 30.166667 13 28 A 1.0001 1.0001 0 1 0 11 28 C 11 29.833333 10.572266 30.878906 10.072266 32.128906 C 9.5856279 33.3455 9.0370445 34.76373 9.0078125 36.835938 C 8.190725 36.566716 7.5276711 35.993799 7.0039062 35.361328 C 6.2821913 34.489823 5.9257814 33.623047 5.9257812 33.623047 A 1.0001 1.0001 0 0 0 5 33 L 2.0527344 33 C 2.1954148 25.944616 3.6452638 22.764674 5.2519531 20.744141 C 6.0967928 19.681691 7.0190976 18.887919 7.890625 17.9375 C 8.7621524 16.987081 9.570132 15.844755 9.9707031 14.242188 C 10.456436 12.299254 11.406783 9.2485114 13.847656 6.6914062 C 16.288529 4.1343011 20.214286 2 27 2 z M 32 5 C 35.308143 5 36.883149 5.8738247 37.802734 7.2050781 C 38.72232 8.5363315 39 10.581556 39 13 L 39 16 C 39 17.611111 39.282151 18.751201 39.539062 19.650391 C 39.795974 20.54958 40 21.166667 40 22 C 40 23.833333 39.581617 24.850437 38.980469 26.052734 C 38.522856 26.96796 37.983304 28.262734 37.496094 29.634766 C 36.73903 29.216921 35.478489 28.605758 33.707031 28.261719 C 33.889175 27.875924 34 27.451505 34 27 C 34 26.583333 33.92772 26.114458 33.832031 25.476562 C 33.736351 24.838667 33.611328 24.085937 33.486328 23.335938 C 33.361328 22.585938 33.236347 21.838668 33.144531 21.226562 C 33.052716 20.614458 33 20.083333 33 20 L 33 19.519531 C 33.07587 19.468541 33.04432 19.471001 33.197266 19.394531 C 33.467309 19.25951 33.847505 19.119962 34.339844 19.048828 A 1.5 1.5 0 0 0 35.5 21.5 A 1.5 1.5 0 0 0 36.980469 20.244141 C 37.055323 20.356504 37.105469 20.447266 37.105469 20.447266 A 1.0001163 1.0001163 0 1 0 38.894531 19.552734 C 38.894531 19.552734 37.666667 17 35 17 C 33.833333 17 32.921991 17.29584 32.302734 17.605469 C 31.683477 17.915097 31.292969 18.292969 31.292969 18.292969 A 1.0001 1.0001 0 0 0 31 19 L 31 20 C 31 20.416667 31.07228 20.885542 31.167969 21.523438 C 31.263649 22.161333 31.388672 22.914063 31.513672 23.664062 C 31.638672 24.414062 31.763653 25.161332 31.855469 25.773438 C 31.947284 26.385542 32 26.916667 32 27 C 32 27.56503 31.56503 28 31 28 C 30.166667 28 29.947266 27.855469 29.447266 27.605469 C 28.947266 27.355469 28.166667 27 27 27 A 1.0001 1.0001 0 0 0 26.208984 28.626953 C 23.578872 29.342003 21.723517 30.531496 20.542969 31.464844 C 19.838959 28.887179 18.64788 26.622616 17.490234 24.623047 C 16.120778 22.257623 15 20.166667 15 18 L 15 16 C 15 12.25 16.344015 9.8596029 18.363281 8.2890625 C 20.382548 6.7185221 23.166667 6 26 6 C 28.333333 6 30.333333 5 32 5 z M 40.785156 9.7070312 C 41.488175 10.999264 42 12.707699 42 15 C 42 17.941734 43.681066 20.123729 45.15625 22.447266 C 46.631434 24.770803 48 27.25 48 31 C 48 32.583333 46.998029 33.820326 45.875 34.71875 C 45.566909 34.965223 45.265376 35.170111 44.980469 35.349609 C 44.885886 32.124688 44.122691 30.245262 43.419922 28.605469 C 42.669922 26.855469 42 25.357143 42 22 A 1.0001 1.0001 0 0 0 41.992188 21.871094 C 41.970509 20.770837 41.694544 19.917234 41.460938 19.099609 C 41.217849 18.248799 41 17.388889 41 16 L 41 13 C 41 11.869329 40.949384 10.761503 40.785156 9.7070312 z M 23 15.998047 C 20.499667 15.998047 18.400391 17.699219 18.400391 17.699219 A 1.0003905 1.0003905 0 1 0 19.599609 19.300781 C 19.599609 19.300781 20.591164 18.627807 21.705078 18.25 A 1.5 1.5 0 0 0 23 20.5 A 1.5 1.5 0 0 0 24.332031 18.314453 C 24.733153 18.468377 25.141532 18.660013 25.503906 18.867188 C 26.307656 19.326702 26.875 19.78125 26.875 19.78125 A 1.0004882 1.0004882 0 1 0 28.125 18.21875 C 28.125 18.21875 27.442344 17.671844 26.496094 17.130859 C 25.549844 16.589875 24.3335 15.998047 23 15.998047 z M 31 32 C 29.288746 32 27.786994 32.471732 26.542969 33.111328 A 1.0001 1.0001 0 1 0 27.457031 34.888672 C 28.477006 34.364268 29.653254 34 31 34 C 31.92904 34 32.828675 34.325328 33.359375 34.767578 A 1.0001 1.0001 0 1 0 34.640625 33.232422 C 33.671325 32.424672 32.36496 32 31 32 z"/></svg>