<svg xmlns="http://www.w3.org/2000/svg"  viewBox="0 0 50 50" width="50px" height="50px"><path d="M 21 4 A 1.0001 1.0001 0 0 0 20 5 L 20 28.515625 C 19.634768 28.357379 19.244523 28.195716 18.896484 28.042969 C 18.280152 27.772493 17.643283 27.570565 17 27.404297 L 17 11 A 1.0001 1.0001 0 0 0 16 10 L 8 10 A 1.0001 1.0001 0 0 0 7 11 L 7 28.810547 L 2.6152344 30.636719 A 1.0001 1.0001 0 1 0 3.3847656 32.482422 L 9.8320312 29.796875 C 12.481356 28.692761 15.463286 28.721482 18.091797 29.875 C 21.782383 31.494718 26.67738 33.517784 28.054688 34.140625 C 28.302045 34.252592 28.801627 34.487516 29.265625 34.710938 C 29.729623 34.934356 30.21732 35.181535 30.257812 35.205078 C 30.703995 35.464594 31 35.929151 31 36.488281 C 31 37.329093 30.340812 37.988281 29.5 37.988281 C 29.380834 37.988281 29.267782 37.974949 29.160156 37.949219 A 1.0001 1.0001 0 0 0 29.158203 37.949219 C 29.132973 37.943219 28.341821 37.721019 27.382812 37.439453 C 26.423804 37.157887 25.203555 36.796274 24.003906 36.439453 C 21.604609 35.725811 19.287109 35.03125 19.287109 35.03125 A 1.0001054 1.0001054 0 1 0 18.712891 36.947266 C 18.712891 36.947266 21.033844 37.641111 23.435547 38.355469 C 24.636398 38.712648 25.857071 39.074613 26.820312 39.357422 C 27.782628 39.639959 28.395226 39.823361 28.695312 39.894531 C 28.955687 39.956791 29.225166 39.988281 29.5 39.988281 C 31.421188 39.988281 33 38.40947 33 36.488281 C 33 35.89616 32.845356 35.339664 32.582031 34.849609 L 43.275391 28.259766 A 1.0001 1.0001 0 0 0 43.285156 28.253906 C 44.122074 27.726144 45.198996 27.970034 45.726562 28.806641 C 46.239013 29.618936 46.024802 30.663506 45.234375 31.208984 A 1.0001 1.0001 0 0 0 45.197266 31.234375 L 29.423828 43.185547 C 28.347119 44.001891 26.936059 44.221423 25.662109 43.769531 L 14.013672 39.640625 C 11.320349 38.529005 8.2378995 38.903354 5.8886719 40.626953 L 2.4042969 43.183594 A 1.0001 1.0001 0 1 0 3.5878906 44.794922 L 7.0722656 42.240234 C 8.861038 40.927834 11.199323 40.643854 13.25 41.490234 A 1.0001 1.0001 0 0 0 13.296875 41.507812 L 24.994141 45.654297 C 26.900191 46.330405 29.021523 46.000953 30.632812 44.779297 L 46.369141 32.855469 C 47.916175 31.78785 48.370658 29.748821 47.554688 28.095703 A 1.0001 1.0001 0 0 0 47.417969 27.740234 C 46.589644 26.42669 45.06325 25.798597 43.613281 26.033203 C 43.405967 26.066746 43.202053 26.127759 43 26.197266 L 43 15 A 1.0001 1.0001 0 0 0 42 14 L 34 14 A 1.0001 1.0001 0 0 0 33 15 L 33 32 A 1.0001 1.0001 0 0 0 33.023438 32.226562 L 31.117188 33.402344 C 30.860975 33.262254 30.546839 33.107561 30.132812 32.908203 C 30.082418 32.883937 30.050599 32.869941 30 32.845703 L 30 5 A 1.0001 1.0001 0 0 0 29 4 L 21 4 z M 22 6 L 24 6 A 1 1 0 0 0 25 7 A 1 1 0 0 0 26 6 L 28 6 L 28 8 A 1 1 0 0 0 27 9 A 1 1 0 0 0 28 10 L 28 14 A 1 1 0 0 0 27 15 A 1 1 0 0 0 28 16 L 28 20 A 1 1 0 0 0 27 21 A 1 1 0 0 0 28 22 L 28 26 A 1 1 0 0 0 27 27 A 1 1 0 0 0 28 28 L 28 31.941406 C 27.436344 31.695992 26.305034 31.216103 25.494141 30.869141 A 1 1 0 0 0 26 30 A 1 1 0 0 0 25 29 A 1 1 0 0 0 24 30 A 1 1 0 0 0 24.03125 30.242188 C 23.26304 29.914425 22.804442 29.716096 21.941406 29.347656 A 1.0001 1.0001 0 0 0 22 29 L 22 28 A 1 1 0 0 0 23 27 A 1 1 0 0 0 22 26 L 22 22 A 1 1 0 0 0 23 21 A 1 1 0 0 0 22 20 L 22 16 A 1 1 0 0 0 23 15 A 1 1 0 0 0 22 14 L 22 10 A 1 1 0 0 0 23 9 A 1 1 0 0 0 22 8 L 22 6 z M 25 11 A 1 1 0 0 0 24 12 A 1 1 0 0 0 25 13 A 1 1 0 0 0 26 12 A 1 1 0 0 0 25 11 z M 9 12 L 15 12 L 15 27.050781 C 14.66299 27.020247 14.326309 26.993419 13.988281 26.990234 C 12.315168 26.974474 10.638837 27.294229 9.0625 27.951172 L 9 27.976562 L 9 12 z M 35 16 L 41 16 L 41 27 A 1.0001 1.0001 0 0 0 41.039062 27.289062 L 35 31.009766 L 35 16 z M 25 17 A 1 1 0 0 0 24 18 A 1 1 0 0 0 25 19 A 1 1 0 0 0 26 18 A 1 1 0 0 0 25 17 z M 25 23 A 1 1 0 0 0 24 24 A 1 1 0 0 0 25 25 A 1 1 0 0 0 26 24 A 1 1 0 0 0 25 23 z"/></svg>