<svg xmlns="http://www.w3.org/2000/svg"  viewBox="0 0 50 50" width="50px" height="50px"><path d="M 47.5 2.59375 L 43.46875 5.15625 L 32.125 12.34375 L 33.3125 9.71875 L 34.625 6.8125 L 31.875 8.4375 C 31.875 8.4375 26.960938 11.371094 21.34375 14.96875 C 15.726563 18.566406 9.464844 22.777344 6.59375 25.59375 C 1.710938 30.476563 1.710938 38.429688 6.59375 43.3125 C 11.476563 48.195313 19.429688 48.195313 24.3125 43.3125 C 26.605469 41.074219 29.882813 36.179688 32.71875 31.75 C 35.554688 27.320313 37.875 23.40625 37.875 23.40625 L 39.28125 20.96875 L 36.65625 21.96875 L 33.6875 23.0625 L 44.84375 6.5625 Z M 40.46875 9.40625 L 30.28125 24.53125 L 28.53125 27.125 L 31.4375 26.03125 L 34.625 24.84375 C 33.78125 26.25 33.015625 27.585938 31.03125 30.6875 C 28.21875 35.082031 24.8125 40.011719 22.90625 41.875 L 22.90625 41.90625 C 18.789063 46.023438 12.117188 46.023438 8 41.90625 C 3.882813 37.789063 3.882813 31.117188 8 27 C 10.527344 24.519531 16.824219 20.234375 22.40625 16.65625 C 26.511719 14.027344 28.429688 12.894531 30.125 11.875 L 28.875 14.59375 L 27.5 17.65625 L 30.34375 15.84375 Z M 15 28 C 11.15625 28 8 31.15625 8 35 C 8 38.84375 11.15625 42 15 42 C 18.84375 42 22 38.84375 22 35 C 22 31.15625 18.84375 28 15 28 Z M 15 30 C 17.753906 30 20 32.246094 20 35 C 20 37.753906 17.753906 40 15 40 C 12.246094 40 10 37.753906 10 35 C 10 32.246094 12.246094 30 15 30 Z"/></svg>