<svg xmlns="http://www.w3.org/2000/svg"  viewBox="0 0 50 50" width="50px" height="50px"><path d="M 7 2 L 7 48 L 43 48 L 43 47 L 43 14.585938 L 30.414062 2 L 7 2 z M 9 4 L 29 4 L 29 16 L 41 16 L 41 46 L 9 46 L 9 4 z M 31 5.4140625 L 39.585938 14 L 31 14 L 31 5.4140625 z M 27 18 A 1.0001 1.0001 0 0 0 26 19 L 26 28 A 1.0001 1.0001 0 0 0 27 29 L 36 29 A 1.0001 1.0001 0 0 0 37 28 C 37 22.488666 32.511334 18 27 18 z M 28 20.201172 C 31.589854 20.667024 34.332976 23.410146 34.798828 27 L 28 27 L 28 20.201172 z M 23 22 C 17.488666 22 13 26.488666 13 32 C 13 37.511334 17.488666 42 23 42 C 28.511334 42 33 37.511334 33 32 A 1.0001 1.0001 0 0 0 32 31 L 24 31 L 24 23 A 1.0001 1.0001 0 0 0 23 22 z M 22 24.201172 L 22 32 A 1.0001 1.0001 0 0 0 23 33 L 30.798828 33 C 30.288508 36.932523 27.075535 40 23 40 C 18.569334 40 15 36.430666 15 32 C 15 27.924465 18.067477 24.711492 22 24.201172 z"/></svg>