<?xml version="1.0" encoding="utf-8"?><!-- Generator: Adobe Illustrator 17.1.0, SVG Export Plug-In . SVG Version: 6.00 Build 0)  --><!DOCTYPE svg PUBLIC "-//W3C//DTD SVG 1.0//EN" "http://www.w3.org/TR/2001/REC-SVG-20010904/DTD/svg10.dtd"><svg xmlns="http://www.w3.org/2000/svg" xmlns:xlink="http://www.w3.org/1999/xlink" viewBox="0 0 50 50" width="50px" height="50px"><path fill="none" stroke="#000000" stroke-width="2" stroke-linecap="round" stroke-linejoin="round" stroke-miterlimit="10" d="M32.3,3H39L26.3,29.4c0.3,1.2,1.7,5.9,1.7,9.3c0,5.7-1.7,8.3-4,8.3c-2.9,0-4-2.9-4-6.5c0-4.4,2.6-9.1,3.9-11C23.4,26.5,20.4,8,15.5,8c-2,0-3.8,1.5-4,5.5H10C10,6.5,12.1,3,16.4,3c2.5,0,4.3,1.4,5.5,4.3c1.2,2.8,2.4,8.1,3.7,17.6L32.3,3z"/></svg>