<?xml version="1.0" encoding="utf-8"?><!-- Generator: Adobe Illustrator 18.1.1, SVG Export Plug-In . SVG Version: 6.00 Build 0)  --><svg xmlns="http://www.w3.org/2000/svg" xmlns:xlink="http://www.w3.org/1999/xlink" viewBox="0 0 50 50" width="50px" height="50px"><ellipse fill="none" stroke="#000000" stroke-width="2" stroke-miterlimit="10" cx="30.5" cy="27" rx="2.5" ry="4"/><ellipse fill="none" stroke="#000000" stroke-width="2" stroke-miterlimit="10" cx="19.5" cy="27" rx="2.5" ry="4"/><path fill="none" stroke="#000000" stroke-width="2" stroke-linejoin="round" stroke-miterlimit="10" d="M25,35.5c-2.8,0-5,2.5-5,2.5s2.2,0,5,0s5,0,5,0S27.8,35.5,25,35.5z"/><path fill="none" stroke="#000000" stroke-width="2" stroke-linecap="round" stroke-linejoin="round" stroke-miterlimit="10" d="M36.4,13c3.8,0,5.2-3.3,5.2-3.3"/><circle fill="none" stroke="#000000" stroke-width="2" stroke-miterlimit="10" cx="43" cy="7" r="3"/><path fill="none" stroke="#000000" stroke-width="2" stroke-linecap="round" stroke-linejoin="round" stroke-miterlimit="10" d="M8.4,9.7c0,0,1.4,3.3,5.2,3.3"/><circle fill="none" stroke="#000000" stroke-width="2" stroke-miterlimit="10" cx="7" cy="7" r="3"/><path fill="none" stroke="#000000" stroke-width="2" stroke-linecap="round" stroke-linejoin="round" stroke-miterlimit="10" d="M25,46c-5.9,0-12.6-6.7-14-13c-2.8,0-4.7-5-5-7c0.9-1.5,4.1-2,5-2c0-10.5,6.1-18,14-18s14,7.5,14,18c0.9,0,4.1,0.5,5,2c-0.3,2-2.2,7-5,7C37.6,39.3,30.9,46,25,46z"/></svg>