<svg xmlns="http://www.w3.org/2000/svg"  viewBox="0 0 50 50" width="50px" height="50px"><path d="M 31.96875 0 C 26.417969 -0.0351563 19.28125 2.601563 11.875 10.1875 C 4.660156 17.605469 1.710938 24.347656 0.59375 29.25 C -0.523438 34.152344 0.21875 37.34375 0.21875 37.34375 C 0.347656 37.886719 0.894531 38.222656 1.4375 38.09375 C 1.980469 37.964844 2.316406 37.417969 2.1875 36.875 C 2.1875 36.875 1.527344 34.234375 2.5625 29.6875 C 2.972656 27.878906 3.671875 25.761719 4.78125 23.4375 C 4.789063 23.425781 4.804688 23.417969 4.8125 23.40625 C 4.929688 23.3125 5.027344 23.195313 5.09375 23.0625 C 9.28125 15.320313 15.375 10.582031 21.03125 8.40625 C 26.6875 6.230469 31.796875 6.757813 34 9 C 36.105469 11.148438 36.859375 14.160156 36.15625 17.75 C 35.453125 21.339844 33.226563 25.457031 29.28125 29.5 C 28.011719 30.808594 27.054688 30.625 26.78125 30.375 C 26.644531 30.25 26.523438 30.085938 26.59375 29.65625 C 26.660156 29.234375 26.992188 28.570313 27.71875 27.8125 L 27.71875 27.78125 C 27.917969 27.582031 28.023438 27.476563 28 27.46875 C 28.09375 27.417969 28.175781 27.355469 28.25 27.28125 C 29.992188 25.382813 31.585938 22.859375 32.28125 20.1875 C 32.976563 17.515625 32.6875 14.582031 30.53125 12.3125 C 29.265625 10.988281 27.679688 10.347656 26.09375 10.25 C 24.507813 10.152344 22.921875 10.539063 21.40625 11.1875 C 18.382813 12.480469 15.640625 14.789063 13.90625 16.625 L 13.875 16.625 C 2.941406 27.675781 2.65625 40.035156 9.09375 46.6875 C 13.648438 51.355469 25.484375 52.761719 38.125 39.8125 C 45.339844 32.394531 48.289063 25.652344 49.40625 20.75 C 50.523438 15.847656 49.78125 12.65625 49.78125 12.65625 C 49.652344 12.113281 49.105469 11.777344 48.5625 11.90625 C 48.019531 12.035156 47.683594 12.582031 47.8125 13.125 C 47.8125 13.125 48.472656 15.765625 47.4375 20.3125 C 47.152344 21.558594 46.746094 22.96875 46.15625 24.46875 C 46.15625 24.472656 46.125 24.464844 46.125 24.46875 C 46.019531 24.585938 45.945313 24.722656 45.90625 24.875 C 41.460938 34.207031 34.851563 39.367188 28.78125 41.5625 C 22.710938 43.757813 17.203125 42.835938 15 40.59375 C 12.910156 38.457031 12.367188 35.621094 13.28125 32.125 C 14.195313 28.628906 16.660156 24.5625 20.625 20.5 C 21.894531 19.191406 22.851563 19.375 23.125 19.625 C 23.261719 19.75 23.382813 19.914063 23.3125 20.34375 C 23.242188 20.773438 22.933594 21.449219 22.1875 22.21875 C 21.984375 22.421875 21.859375 22.527344 21.875 22.53125 C 21.792969 22.582031 21.71875 22.644531 21.65625 22.71875 C 19.914063 24.617188 18.320313 27.140625 17.625 29.8125 C 16.929688 32.484375 17.21875 35.417969 19.375 37.6875 C 20.640625 39.011719 22.226563 39.652344 23.8125 39.75 C 25.398438 39.847656 26.984375 39.460938 28.5 38.8125 C 31.519531 37.523438 34.265625 35.238281 36 33.40625 C 36.011719 33.394531 36.019531 33.386719 36.03125 33.375 C 47.050781 22.332031 47.339844 9.960938 40.90625 3.3125 C 39.199219 1.5625 36.476563 0.273438 33.0625 0.03125 C 32.707031 0.0078125 32.339844 0.00390625 31.96875 0 Z M 31.3125 2 C 35.078125 1.878906 37.960938 3.144531 39.46875 4.6875 C 45.027344 10.433594 45.140625 21.453125 34.59375 32 C 34.582031 32 34.574219 32 34.5625 32 C 32.996094 33.660156 30.359375 35.839844 27.71875 36.96875 C 26.398438 37.53125 25.097656 37.824219 23.9375 37.75 C 22.777344 37.675781 21.746094 37.289063 20.8125 36.3125 C 19.167969 34.582031 18.984375 32.539063 19.5625 30.3125 C 20.140625 28.085938 21.566406 25.761719 23.125 24.0625 L 23.09375 24.03125 C 23.289063 23.851563 23.539063 23.648438 23.59375 23.59375 C 23.605469 23.59375 23.613281 23.59375 23.625 23.59375 C 24.578125 22.613281 25.125 21.621094 25.28125 20.65625 C 25.4375 19.691406 25.132813 18.726563 24.46875 18.125 C 23.144531 16.921875 20.917969 17.304688 19.1875 19.09375 C 15.050781 23.332031 12.382813 27.648438 11.34375 31.625 C 10.304688 35.601563 10.984375 39.335938 13.59375 42 C 16.691406 45.15625 22.890625 45.816406 29.46875 43.4375 C 30.582031 43.035156 31.691406 42.527344 32.8125 41.9375 C 22.332031 50.394531 13.605469 48.460938 10.53125 45.3125 C 4.972656 39.566406 4.863281 28.546875 15.3125 18 C 16.878906 16.339844 19.546875 14.160156 22.1875 13.03125 C 23.507813 12.46875 24.808594 12.175781 25.96875 12.25 C 27.128906 12.324219 28.128906 12.710938 29.0625 13.6875 C 30.707031 15.417969 30.921875 17.460938 30.34375 19.6875 C 29.765625 21.914063 28.308594 24.238281 26.75 25.9375 L 26.78125 25.96875 C 26.59375 26.144531 26.332031 26.355469 26.28125 26.40625 C 25.328125 27.386719 24.78125 28.378906 24.625 29.34375 C 24.46875 30.308594 24.773438 31.273438 25.4375 31.875 C 26.761719 33.078125 28.988281 32.695313 30.71875 30.90625 C 34.875 26.648438 37.328125 22.210938 38.125 18.125 C 38.921875 14.039063 38.003906 10.246094 35.40625 7.59375 C 33.855469 6.015625 31.621094 5.167969 29 5 C 26.378906 4.832031 23.402344 5.355469 20.34375 6.53125 C 19.371094 6.90625 18.386719 7.363281 17.40625 7.875 C 22.660156 3.699219 27.453125 2.121094 31.3125 2 Z"/></svg>