<?xml version="1.0"?><svg xmlns="http://www.w3.org/2000/svg"  viewBox="0 0 50 50" width="50px" height="50px">    <path d="M 12.832031 5 C 6.8590312 5 2 9.9397188 2 16.011719 C 2 19.971421 4.1417199 23.660729 7.5078125 25.599609 L 7.125 25.982422 L 7.0898438 26.337891 C 7.0288438 26.962891 7 27.491 7 28 C 7 37.925 15.075 46 25 46 C 34.925 46 43 37.925 43 28 C 43 27.494 42.970203 26.966844 42.908203 26.339844 L 42.873047 25.982422 L 42.488281 25.597656 C 45.894326 23.642738 48 20.003208 48 16.011719 C 48 9.9397188 43.140969 5 37.167969 5 C 33.127029 5 29.527623 7.2227464 27.650391 10.759766 L 27.447266 10.556641 L 27.15625 10.494141 C 25.82225 10.215141 24.170797 10.217094 22.841797 10.496094 L 22.550781 10.556641 L 22.345703 10.761719 C 20.469735 7.269398 16.805695 5 12.832031 5 z M 12.832031 7 C 16.325295 7 19.41861 9.0444883 20.857422 12.25 L 8.9824219 24.125 C 5.9543914 22.626748 4 19.443773 4 16.011719 C 4 11.041719 7.9620312 7 12.832031 7 z M 37.167969 7 C 42.037969 7 46 11.041719 46 16.011719 C 46 19.375719 44.182859 22.438 41.255859 24 C 41.219703 24.01965 41.121154 24.07823 41.025391 24.134766 L 29.142578 12.251953 C 30.580072 9.0451006 33.673858 7 37.167969 7 z M 24.251953 12.314453 C 24.259001 12.313908 24.266381 12.314982 24.273438 12.314453 A 1 1 0 0 0 24 13 A 1 1 0 0 0 25 14 A 1 1 0 0 0 26 13 A 1 1 0 0 0 25.726562 12.314453 C 25.979822 12.333438 26.228762 12.359348 26.464844 12.398438 L 40.951172 26.886719 C 40.984172 27.296719 41 27.656 41 28 A 1 1 0 0 0 40 29 A 1 1 0 0 0 40.863281 29.990234 C 40.76977 30.738656 40.619367 31.468724 40.425781 32.181641 A 1 1 0 0 0 40 33 A 1 1 0 0 0 40.0625 33.34375 C 39.949036 33.662482 39.839802 33.983852 39.707031 34.292969 A 1 1 0 0 0 39 34 A 1 1 0 0 0 38 35 A 1 1 0 0 0 38.841797 35.988281 C 38.556088 36.481288 38.243198 36.956022 37.908203 37.414062 A 1 1 0 0 0 38 37 A 1 1 0 0 0 37 36 A 1 1 0 0 0 36 37 A 1 1 0 0 0 37 38 A 1 1 0 0 0 37.644531 37.765625 C 36.606696 39.106285 35.373581 40.287633 33.96875 41.242188 A 1 1 0 0 0 34 41 A 1 1 0 0 0 33 40 A 1 1 0 0 0 32 41 A 1 1 0 0 0 32.773438 41.972656 C 32.467142 42.143781 32.150242 42.294163 31.832031 42.445312 A 1 1 0 0 0 31 42 A 1 1 0 0 0 30 43 A 1 1 0 0 0 30.017578 43.181641 C 29.251895 43.43545 28.460089 43.625621 27.648438 43.761719 A 1 1 0 0 0 28 43 A 1 1 0 0 0 27 42 A 1 1 0 0 0 26 43 A 1 1 0 0 0 26.609375 43.919922 C 26.079698 43.973105 25.543447 44 25 44 C 24.457868 44 23.922962 43.972851 23.394531 43.919922 A 1 1 0 0 0 24 43 A 1 1 0 0 0 23 42 A 1 1 0 0 0 22 43 A 1 1 0 0 0 22.355469 43.761719 C 21.542487 43.6256 20.749299 43.435846 19.982422 43.181641 A 1 1 0 0 0 20 43 A 1 1 0 0 0 19 42 A 1 1 0 0 0 18.167969 42.445312 C 17.849758 42.294163 17.532858 42.143781 17.226562 41.972656 A 1 1 0 0 0 18 41 A 1 1 0 0 0 17 40 A 1 1 0 0 0 16 41 A 1 1 0 0 0 16.03125 41.242188 C 14.622213 40.284775 13.385397 39.099593 12.345703 37.753906 A 1 1 0 0 0 13 38 A 1 1 0 0 0 14 37 A 1 1 0 0 0 13 36 A 1 1 0 0 0 12 37 A 1 1 0 0 0 12.089844 37.412109 C 11.754937 36.954027 11.441868 36.479369 11.15625 35.986328 A 1 1 0 0 0 12 35 A 1 1 0 0 0 11 34 A 1 1 0 0 0 10.292969 34.292969 C 10.160198 33.983852 10.050964 33.662482 9.9375 33.34375 A 1 1 0 0 0 10 33 A 1 1 0 0 0 9.5742188 32.181641 C 9.3804667 31.468113 9.2302208 30.737372 9.1367188 29.988281 A 1 1 0 0 0 10 29 A 1 1 0 0 0 9 28 C 9 27.654 9.0158281 27.293719 9.0488281 26.886719 L 23.535156 12.398438 C 23.764406 12.360437 24.006187 12.333453 24.251953 12.314453 z M 23 14 A 1 1 0 0 0 22 15 A 1 1 0 0 0 23 16 A 1 1 0 0 0 24 15 A 1 1 0 0 0 23 14 z M 27 14 A 1 1 0 0 0 26 15 A 1 1 0 0 0 27 16 A 1 1 0 0 0 28 15 A 1 1 0 0 0 27 14 z M 21 16 A 1 1 0 0 0 20 17 A 1 1 0 0 0 21 18 A 1 1 0 0 0 22 17 A 1 1 0 0 0 21 16 z M 25 16 A 1 1 0 0 0 24 17 A 1 1 0 0 0 25 18 A 1 1 0 0 0 26 17 A 1 1 0 0 0 25 16 z M 29 16 A 1 1 0 0 0 28 17 A 1 1 0 0 0 29 18 A 1 1 0 0 0 30 17 A 1 1 0 0 0 29 16 z M 19 18 A 1 1 0 0 0 18 19 A 1 1 0 0 0 19 20 A 1 1 0 0 0 20 19 A 1 1 0 0 0 19 18 z M 23 18 A 1 1 0 0 0 22 19 A 1 1 0 0 0 23 20 A 1 1 0 0 0 24 19 A 1 1 0 0 0 23 18 z M 27 18 A 1 1 0 0 0 26 19 A 1 1 0 0 0 27 20 A 1 1 0 0 0 28 19 A 1 1 0 0 0 27 18 z M 31 18 A 1 1 0 0 0 30 19 A 1 1 0 0 0 31 20 A 1 1 0 0 0 32 19 A 1 1 0 0 0 31 18 z M 17 20 A 1 1 0 0 0 16 21 A 1 1 0 0 0 17 22 A 1 1 0 0 0 18 21 A 1 1 0 0 0 17 20 z M 21 20 A 1 1 0 0 0 20 21 A 1 1 0 0 0 21 22 A 1 1 0 0 0 22 21 A 1 1 0 0 0 21 20 z M 25 20 A 1 1 0 0 0 24 21 A 1 1 0 0 0 25 22 A 1 1 0 0 0 26 21 A 1 1 0 0 0 25 20 z M 29 20 A 1 1 0 0 0 28 21 A 1 1 0 0 0 29 22 A 1 1 0 0 0 30 21 A 1 1 0 0 0 29 20 z M 33 20 A 1 1 0 0 0 32 21 A 1 1 0 0 0 33 22 A 1 1 0 0 0 34 21 A 1 1 0 0 0 33 20 z M 15 22 A 1 1 0 0 0 14 23 A 1 1 0 0 0 15 24 A 1 1 0 0 0 16 23 A 1 1 0 0 0 15 22 z M 19 22 A 1 1 0 0 0 18 23 A 1 1 0 0 0 19 24 A 1 1 0 0 0 20 23 A 1 1 0 0 0 19 22 z M 23 22 A 1 1 0 0 0 22 23 A 1 1 0 0 0 23 24 A 1 1 0 0 0 24 23 A 1 1 0 0 0 23 22 z M 27 22 A 1 1 0 0 0 26 23 A 1 1 0 0 0 27 24 A 1 1 0 0 0 28 23 A 1 1 0 0 0 27 22 z M 31 22 A 1 1 0 0 0 30 23 A 1 1 0 0 0 31 24 A 1 1 0 0 0 32 23 A 1 1 0 0 0 31 22 z M 35 22 A 1 1 0 0 0 34 23 A 1 1 0 0 0 35 24 A 1 1 0 0 0 36 23 A 1 1 0 0 0 35 22 z M 13 24 A 1 1 0 0 0 12 25 A 1 1 0 0 0 13 26 A 1 1 0 0 0 14 25 A 1 1 0 0 0 13 24 z M 17 24 A 1 1 0 0 0 16 25 A 1 1 0 0 0 17 26 A 1 1 0 0 0 18 25 A 1 1 0 0 0 17 24 z M 21 24 A 1 1 0 0 0 20 25 A 1 1 0 0 0 21 26 A 1 1 0 0 0 22 25 A 1 1 0 0 0 21 24 z M 25 24 A 1 1 0 0 0 24 25 A 1 1 0 0 0 25 26 A 1 1 0 0 0 26 25 A 1 1 0 0 0 25 24 z M 29 24 A 1 1 0 0 0 28 25 A 1 1 0 0 0 29 26 A 1 1 0 0 0 30 25 A 1 1 0 0 0 29 24 z M 33 24 A 1 1 0 0 0 32 25 A 1 1 0 0 0 33 26 A 1 1 0 0 0 34 25 A 1 1 0 0 0 33 24 z M 37 24 A 1 1 0 0 0 36 25 A 1 1 0 0 0 37 26 A 1 1 0 0 0 38 25 A 1 1 0 0 0 37 24 z M 11 26 A 1 1 0 0 0 10 27 A 1 1 0 0 0 11 28 A 1 1 0 0 0 12 27 A 1 1 0 0 0 11 26 z M 15 26 A 1 1 0 0 0 14 27 A 1 1 0 0 0 15 28 A 1 1 0 0 0 16 27 A 1 1 0 0 0 15 26 z M 19 26 A 1 1 0 0 0 18 27 A 1 1 0 0 0 19 28 A 1 1 0 0 0 20 27 A 1 1 0 0 0 19 26 z M 23 26 A 1 1 0 0 0 22 27 A 1 1 0 0 0 23 28 A 1 1 0 0 0 24 27 A 1 1 0 0 0 23 26 z M 27 26 A 1 1 0 0 0 26 27 A 1 1 0 0 0 27 28 A 1 1 0 0 0 28 27 A 1 1 0 0 0 27 26 z M 31 26 A 1 1 0 0 0 30 27 A 1 1 0 0 0 31 28 A 1 1 0 0 0 32 27 A 1 1 0 0 0 31 26 z M 35 26 A 1 1 0 0 0 34 27 A 1 1 0 0 0 35 28 A 1 1 0 0 0 36 27 A 1 1 0 0 0 35 26 z M 39 26 A 1 1 0 0 0 38 27 A 1 1 0 0 0 39 28 A 1 1 0 0 0 40 27 A 1 1 0 0 0 39 26 z M 13 28 A 1 1 0 0 0 12 29 A 1 1 0 0 0 13 30 A 1 1 0 0 0 14 29 A 1 1 0 0 0 13 28 z M 17 28 A 1 1 0 0 0 16 29 A 1 1 0 0 0 17 30 A 1 1 0 0 0 18 29 A 1 1 0 0 0 17 28 z M 21 28 A 1 1 0 0 0 20 29 A 1 1 0 0 0 21 30 A 1 1 0 0 0 22 29 A 1 1 0 0 0 21 28 z M 25 28 A 1 1 0 0 0 24 29 A 1 1 0 0 0 25 30 A 1 1 0 0 0 26 29 A 1 1 0 0 0 25 28 z M 29 28 A 1 1 0 0 0 28 29 A 1 1 0 0 0 29 30 A 1 1 0 0 0 30 29 A 1 1 0 0 0 29 28 z M 33 28 A 1 1 0 0 0 32 29 A 1 1 0 0 0 33 30 A 1 1 0 0 0 34 29 A 1 1 0 0 0 33 28 z M 37 28 A 1 1 0 0 0 36 29 A 1 1 0 0 0 37 30 A 1 1 0 0 0 38 29 A 1 1 0 0 0 37 28 z M 11 30 A 1 1 0 0 0 10 31 A 1 1 0 0 0 11 32 A 1 1 0 0 0 12 31 A 1 1 0 0 0 11 30 z M 15 30 A 1 1 0 0 0 14 31 A 1 1 0 0 0 15 32 A 1 1 0 0 0 16 31 A 1 1 0 0 0 15 30 z M 19 30 A 1 1 0 0 0 18 31 A 1 1 0 0 0 19 32 A 1 1 0 0 0 20 31 A 1 1 0 0 0 19 30 z M 23 30 A 1 1 0 0 0 22 31 A 1 1 0 0 0 23 32 A 1 1 0 0 0 24 31 A 1 1 0 0 0 23 30 z M 27 30 A 1 1 0 0 0 26 31 A 1 1 0 0 0 27 32 A 1 1 0 0 0 28 31 A 1 1 0 0 0 27 30 z M 31 30 A 1 1 0 0 0 30 31 A 1 1 0 0 0 31 32 A 1 1 0 0 0 32 31 A 1 1 0 0 0 31 30 z M 35 30 A 1 1 0 0 0 34 31 A 1 1 0 0 0 35 32 A 1 1 0 0 0 36 31 A 1 1 0 0 0 35 30 z M 39 30 A 1 1 0 0 0 38 31 A 1 1 0 0 0 39 32 A 1 1 0 0 0 40 31 A 1 1 0 0 0 39 30 z M 13 32 A 1 1 0 0 0 12 33 A 1 1 0 0 0 13 34 A 1 1 0 0 0 14 33 A 1 1 0 0 0 13 32 z M 17 32 A 1 1 0 0 0 16 33 A 1 1 0 0 0 17 34 A 1 1 0 0 0 18 33 A 1 1 0 0 0 17 32 z M 21 32 A 1 1 0 0 0 20 33 A 1 1 0 0 0 21 34 A 1 1 0 0 0 22 33 A 1 1 0 0 0 21 32 z M 25 32 A 1 1 0 0 0 24 33 A 1 1 0 0 0 25 34 A 1 1 0 0 0 26 33 A 1 1 0 0 0 25 32 z M 29 32 A 1 1 0 0 0 28 33 A 1 1 0 0 0 29 34 A 1 1 0 0 0 30 33 A 1 1 0 0 0 29 32 z M 33 32 A 1 1 0 0 0 32 33 A 1 1 0 0 0 33 34 A 1 1 0 0 0 34 33 A 1 1 0 0 0 33 32 z M 37 32 A 1 1 0 0 0 36 33 A 1 1 0 0 0 37 34 A 1 1 0 0 0 38 33 A 1 1 0 0 0 37 32 z M 15 34 A 1 1 0 0 0 14 35 A 1 1 0 0 0 15 36 A 1 1 0 0 0 16 35 A 1 1 0 0 0 15 34 z M 19 34 A 1 1 0 0 0 18 35 A 1 1 0 0 0 19 36 A 1 1 0 0 0 20 35 A 1 1 0 0 0 19 34 z M 23 34 A 1 1 0 0 0 22 35 A 1 1 0 0 0 23 36 A 1 1 0 0 0 24 35 A 1 1 0 0 0 23 34 z M 27 34 A 1 1 0 0 0 26 35 A 1 1 0 0 0 27 36 A 1 1 0 0 0 28 35 A 1 1 0 0 0 27 34 z M 31 34 A 1 1 0 0 0 30 35 A 1 1 0 0 0 31 36 A 1 1 0 0 0 32 35 A 1 1 0 0 0 31 34 z M 35 34 A 1 1 0 0 0 34 35 A 1 1 0 0 0 35 36 A 1 1 0 0 0 36 35 A 1 1 0 0 0 35 34 z M 17 36 A 1 1 0 0 0 16 37 A 1 1 0 0 0 17 38 A 1 1 0 0 0 18 37 A 1 1 0 0 0 17 36 z M 21 36 A 1 1 0 0 0 20 37 A 1 1 0 0 0 21 38 A 1 1 0 0 0 22 37 A 1 1 0 0 0 21 36 z M 25 36 A 1 1 0 0 0 24 37 A 1 1 0 0 0 25 38 A 1 1 0 0 0 26 37 A 1 1 0 0 0 25 36 z M 29 36 A 1 1 0 0 0 28 37 A 1 1 0 0 0 29 38 A 1 1 0 0 0 30 37 A 1 1 0 0 0 29 36 z M 33 36 A 1 1 0 0 0 32 37 A 1 1 0 0 0 33 38 A 1 1 0 0 0 34 37 A 1 1 0 0 0 33 36 z M 15 38 A 1 1 0 0 0 14 39 A 1 1 0 0 0 15 40 A 1 1 0 0 0 16 39 A 1 1 0 0 0 15 38 z M 19 38 A 1 1 0 0 0 18 39 A 1 1 0 0 0 19 40 A 1 1 0 0 0 20 39 A 1 1 0 0 0 19 38 z M 23 38 A 1 1 0 0 0 22 39 A 1 1 0 0 0 23 40 A 1 1 0 0 0 24 39 A 1 1 0 0 0 23 38 z M 27 38 A 1 1 0 0 0 26 39 A 1 1 0 0 0 27 40 A 1 1 0 0 0 28 39 A 1 1 0 0 0 27 38 z M 31 38 A 1 1 0 0 0 30 39 A 1 1 0 0 0 31 40 A 1 1 0 0 0 32 39 A 1 1 0 0 0 31 38 z M 35 38 A 1 1 0 0 0 34 39 A 1 1 0 0 0 35 40 A 1 1 0 0 0 36 39 A 1 1 0 0 0 35 38 z M 21 40 A 1 1 0 0 0 20 41 A 1 1 0 0 0 21 42 A 1 1 0 0 0 22 41 A 1 1 0 0 0 21 40 z M 25 40 A 1 1 0 0 0 24 41 A 1 1 0 0 0 25 42 A 1 1 0 0 0 26 41 A 1 1 0 0 0 25 40 z M 29 40 A 1 1 0 0 0 28 41 A 1 1 0 0 0 29 42 A 1 1 0 0 0 30 41 A 1 1 0 0 0 29 40 z"/></svg>