<svg xmlns="http://www.w3.org/2000/svg"  viewBox="0 0 50 50" width="50px" height="50px"><path d="M 18.25 4 C 6.269531 4 2 12.695313 2 20.832031 C 2 26.269531 3.328125 28.449219 4.609375 30.554688 C 5.839844 32.570313 7 34.480469 7 39.667969 L 7 45 C 7 45.550781 7.449219 46 8 46 L 21 46 C 21.550781 46 22 45.550781 22 45 L 22 44 C 22 44 24.792969 46 28 46 C 29.082031 46 34 45.207031 34 41 C 34 40.636719 34.175781 40.414063 34.46875 40.09375 C 34.828125 39.691406 35.324219 39.136719 34.703125 38.058594 C 34.324219 37.402344 33.617188 37 32.859375 37 L 32.71875 37 C 32.699219 37 32.675781 37 32.65625 37 C 29.097656 36.976563 25.003906 36.722656 26.332031 33.917969 C 27.25 32 29.667969 32 32 32 L 35 32 C 35.328125 32 35.636719 31.835938 35.824219 31.566406 C 36.007813 31.296875 36.050781 30.949219 35.933594 30.640625 C 35.585938 29.734375 35.707031 30.019531 35.804688 29.683594 L 38.699219 27.953125 C 39.296875 27.625 39.726563 27.082031 39.90625 26.433594 C 40.085938 25.789063 40.003906 25.109375 39.671875 24.515625 C 39.628906 24.4375 39.578125 24.367188 39.519531 24.308594 L 35 19.597656 C 34.96875 14.910156 33.566406 11.035156 30.933594 8.378906 C 28.058594 5.472656 23.789063 4 18.25 4 Z M 24.921875 19.003906 C 25.050781 18.992188 25.183594 19.007813 25.316406 19.050781 L 31.316406 21.050781 C 31.839844 21.226563 32.125 21.792969 31.949219 22.316406 C 31.808594 22.734375 31.417969 23 31 23 C 30.894531 23 30.789063 22.980469 30.683594 22.949219 L 24.683594 20.949219 C 24.160156 20.773438 23.878906 20.207031 24.050781 19.683594 C 24.183594 19.292969 24.53125 19.035156 24.921875 19.003906 Z M 47 28 C 46.449219 28 46 28.449219 46 29 C 46 29.550781 46.449219 30 47 30 C 47.550781 30 48 29.550781 48 29 C 48 28.449219 47.550781 28 47 28 Z M 44 30 C 43.449219 30 43 30.449219 43 31 C 43 31.550781 43.449219 32 44 32 C 44.550781 32 45 31.550781 45 31 C 45 30.449219 44.550781 30 44 30 Z M 41 32 C 40.449219 32 40 32.449219 40 33 C 40 33.550781 40.449219 34 41 34 C 41.550781 34 42 33.550781 42 33 C 42 32.449219 41.550781 32 41 32 Z M 47 32 C 46.449219 32 46 32.449219 46 33 C 46 33.550781 46.449219 34 47 34 C 47.550781 34 48 33.550781 48 33 C 48 32.449219 47.550781 32 47 32 Z M 38 34 C 37.449219 34 37 34.449219 37 35 C 37 35.550781 37.449219 36 38 36 C 38.550781 36 39 35.550781 39 35 C 39 34.449219 38.550781 34 38 34 Z M 44 34 C 43.449219 34 43 34.449219 43 35 C 43 35.550781 43.449219 36 44 36 C 44.550781 36 45 35.550781 45 35 C 45 34.449219 44.550781 34 44 34 Z M 41 36 C 40.449219 36 40 36.449219 40 37 C 40 37.550781 40.449219 38 41 38 C 41.550781 38 42 37.550781 42 37 C 42 36.449219 41.550781 36 41 36 Z M 47 36 C 46.449219 36 46 36.449219 46 37 C 46 37.550781 46.449219 38 47 38 C 47.550781 38 48 37.550781 48 37 C 48 36.449219 47.550781 36 47 36 Z M 44 38 C 43.449219 38 43 38.449219 43 39 C 43 39.550781 43.449219 40 44 40 C 44.550781 40 45 39.550781 45 39 C 45 38.449219 44.550781 38 44 38 Z M 47 40 C 46.449219 40 46 40.449219 46 41 C 46 41.550781 46.449219 42 47 42 C 47.550781 42 48 41.550781 48 41 C 48 40.449219 47.550781 40 47 40 Z"/></svg>