<svg xmlns="http://www.w3.org/2000/svg"  viewBox="0 0 50 50" width="50px" height="50px"><path d="M 22 0 A 1.0001 1.0001 0 0 0 21 1 C 21 7.0368312 21.488292 11.11846 22.421875 14.056641 C 23.273966 16.738347 24.552225 18.467979 26.070312 19.675781 C 26.026505 20.341518 26 21.035621 26 21.771484 C 26 22.150836 26.03574 23.161459 25.96875 24.605469 C 25.90176 26.049479 25.730192 27.864574 25.328125 29.607422 C 24.926058 31.35027 24.285286 33.011877 23.369141 34.166016 C 22.452995 35.320155 21.346425 36 19.660156 36 C 16.813288 36 15.521704 35.553235 14.234375 35.064453 C 12.947046 34.575672 11.584597 34 9.2265625 34 C 8.1973121 34 7.0666427 34.123628 5.9570312 34.720703 C 4.8474198 35.317778 3.8140528 36.355815 2.8476562 37.998047 A 1.0001 1.0001 0 0 0 2.8457031 37.998047 C 1.5991372 40.121951 0.056640625 44.609375 0.056640625 44.609375 A 1.0001 1.0001 0 0 0 0.10351562 45.382812 C 0.10351562 45.382812 1.519929 47.96742 4.859375 48 C 5.3350091 48.0046 5.8452072 47.962909 6.390625 47.867188 A 1.0001 1.0001 0 0 0 7.1777344 47.160156 C 7.2337403 46.967061 7.6846052 45.719402 8.2929688 44.689453 C 8.5971504 44.174479 8.9473241 43.698573 9.2714844 43.396484 C 9.5956447 43.094396 9.8461158 43 10 43 C 10.685366 43 10.878269 43.05694 11.355469 43.376953 C 11.832668 43.696964 12.541365 44.355716 13.738281 45.419922 C 17.081326 48.391517 20.10724 50 25.980469 50 C 36.331183 50 46.533875 43.392571 49.232422 30.591797 C 50.928506 22.724579 49.632559 17.050641 46.998047 13.357422 C 44.362844 9.6632352 40.461184 8 37.117188 8 C 34.708053 8 32.245851 8.4221453 30.25 9.9101562 C 29.945155 9.3373426 29.658829 8.5357119 29.457031 7.4648438 C 29.144993 5.8089679 29 3.6138994 29 1 A 1.0001 1.0001 0 0 0 28 0 L 22 0 z M 23.046875 2 L 27.072266 2 C 27.108906 4.1940709 27.193421 6.2504893 27.492188 7.8359375 C 27.760843 9.2616036 28.136135 10.450851 28.757812 11.359375 C 27.6161 12.768963 26.797862 14.692624 26.363281 17.230469 C 25.558883 16.350692 24.881491 15.192731 24.328125 13.451172 C 23.552848 11.011214 23.108224 7.2810368 23.046875 2 z M 37.117188 10 C 39.79219 10 43.115296 11.357218 45.371094 14.519531 C 47.626891 17.681845 48.890247 22.700209 47.277344 30.175781 A 1.0001 1.0001 0 0 0 47.275391 30.179688 C 44.755985 42.13092 35.493755 48 25.980469 48 C 20.439697 48 18.257361 46.762186 15.066406 43.925781 C 13.891323 42.880987 13.200254 42.204082 12.470703 41.714844 C 11.741153 41.225605 10.919634 41 10 41 C 9.1503842 41 8.4501053 41.428589 7.9082031 41.933594 C 7.3663009 42.438599 6.9358808 43.052974 6.5703125 43.671875 C 6.0047089 44.629432 5.7674142 45.335601 5.5527344 45.939453 C 5.3244348 45.962312 5.0779306 46.001942 4.8789062 46 C 2.9728338 45.981404 2.3723725 45.1891 2.140625 44.804688 C 2.3592685 44.203474 3.6828297 40.527144 4.5722656 39.011719 L 4.5703125 39.011719 C 5.4099128 37.584951 6.1829083 36.870597 6.9042969 36.482422 C 7.6256855 36.094247 8.3498129 36 9.2265625 36 C 11.282528 36 12.178969 36.424328 13.525391 36.935547 C 14.871812 37.446765 16.588025 38 19.660156 38 C 21.936887 38 23.732567 36.925642 24.935547 35.410156 C 26.138526 33.89467 26.835411 31.972293 27.277344 30.056641 C 27.719276 28.140989 27.896161 26.221834 27.966797 24.699219 C 28.037433 23.176604 28 21.986133 28 21.771484 C 28 16.691515 29.117758 13.82972 30.675781 12.205078 C 30.676403 12.20443 30.677112 12.203773 30.677734 12.203125 A 1.0001 1.0001 0 0 0 30.896484 11.984375 C 32.499928 10.467762 34.660251 10 37.117188 10 z M 34.628906 23 C 32.01553 23 30 25.077437 30 27.724609 C 30 29.187222 30.585865 30.423619 31.363281 31.419922 C 32.140697 32.416225 33.103636 33.218607 33.998047 33.974609 C 34.8131 34.665316 36.839844 36.451172 36.839844 36.451172 A 1.0001 1.0001 0 0 0 38.162109 36.449219 C 38.162109 36.449219 40.189176 34.66422 41.003906 33.974609 C 41.896542 33.218841 42.859327 32.416154 43.636719 31.419922 C 44.414111 30.423737 45 29.187105 45 27.724609 C 45 25.077741 42.985246 23 40.371094 23 C 39.099234 23 38.201701 23.61461 37.498047 24.228516 C 36.795473 23.614629 35.899761 23 34.628906 23 z M 34.628906 25 C 35.36505 25 36.27399 25.680589 36.763672 26.210938 A 1.0001 1.0001 0 0 0 38.232422 26.210938 C 38.724569 25.679758 39.63495 25 40.371094 25 C 42.028941 25 43 25.985478 43 27.724609 C 43 28.674114 42.657905 29.423935 42.060547 30.189453 C 41.463189 30.954971 40.605302 31.690034 39.710938 32.447266 C 39.044753 33.011142 38.082486 33.86041 37.5 34.373047 C 36.916455 33.859937 35.955077 33.010016 35.291016 32.447266 A 1.0001 1.0001 0 0 0 35.289062 32.447266 C 34.393521 31.690268 33.536537 30.95465 32.939453 30.189453 C 32.342369 29.424256 32 28.674997 32 27.724609 C 32 25.985782 32.972283 25 34.628906 25 z"/></svg>