<svg xmlns="http://www.w3.org/2000/svg"  viewBox="0 0 128 128" width="64px" height="64px"><path d="M 47 0.86914062 C 42.59 0.86914062 39 4.4591406 39 8.8691406 L 39 31.869141 C 39 33.529141 40.34 34.869141 42 34.869141 C 43.66 34.869141 45 33.529141 45 31.869141 L 45 8.8691406 C 45 7.7691406 45.9 6.8691406 47 6.8691406 L 79 6.8691406 C 80.1 6.8691406 81 7.7691406 81 8.8691406 L 81 31.869141 C 81 33.529141 82.34 34.869141 84 34.869141 C 85.66 34.869141 87 33.529141 87 31.869141 L 87 8.8691406 C 87 4.4591406 83.41 0.86914062 79 0.86914062 L 47 0.86914062 z M 56 14.869141 C 54.34 14.869141 53 16.209141 53 17.869141 L 53 31.869141 C 53 33.529141 54.34 34.869141 56 34.869141 C 57.66 34.869141 59 33.529141 59 31.869141 L 59 17.869141 C 59 16.209141 57.66 14.869141 56 14.869141 z M 70 14.869141 C 68.34 14.869141 67 16.209141 67 17.869141 L 67 31.869141 C 67 33.529141 68.34 34.869141 70 34.869141 C 71.66 34.869141 73 33.529141 73 31.869141 L 73 17.869141 C 73 16.209141 71.66 14.869141 70 14.869141 z M 46.980469 40.869141 C 38.040469 40.869141 29.210469 42.300859 20.730469 45.130859 L 9.890625 48.75 C 4.570625 50.52 1 55.480078 1 61.080078 L 1 73.869141 C 1 81.039141 6.83 86.869141 14 86.869141 C 15.66 86.869141 17 85.529141 17 83.869141 C 17 82.209141 15.66 80.869141 14 80.869141 C 10.14 80.869141 7 77.729141 7 73.869141 L 7 61.080078 C 7 58.060078 8.9190625 55.389453 11.789062 54.439453 L 22.640625 50.820312 C 30.510625 48.200313 38.700234 46.869141 46.990234 46.869141 L 81.029297 46.869141 C 89.319297 46.869141 97.510859 48.200312 105.38086 50.820312 L 116.23047 54.439453 C 119.09047 55.399453 121.01953 58.060078 121.01953 61.080078 L 121.01953 73.869141 C 121.01953 77.729141 117.87953 80.869141 114.01953 80.869141 L 30 80.869141 C 28.34 80.869141 27 82.209141 27 83.869141 C 27 85.529141 28.34 86.869141 30 86.869141 L 111 86.869141 L 111 123.86914 C 111 125.52914 112.34 126.86914 114 126.86914 C 115.66 126.86914 117 125.52914 117 123.86914 L 117 86.509766 C 122.72 85.149766 127 80.009141 127 73.869141 L 127 61.080078 C 127 55.480078 123.42937 50.52 118.10938 48.75 L 107.25977 45.130859 C 98.779766 42.300859 89.949766 40.869141 81.009766 40.869141 L 46.980469 40.869141 z M 14 96.869141 C 12.34 96.869141 11 98.209141 11 99.869141 L 11 123.86914 C 11 125.52914 12.34 126.86914 14 126.86914 C 15.66 126.86914 17 125.52914 17 123.86914 L 17 99.869141 C 17 98.209141 15.66 96.869141 14 96.869141 z"/></svg>