<svg xmlns="http://www.w3.org/2000/svg"  viewBox="0 0 48 46" width="50px" height="50px"><title>ios_veterinarian</title><g id="Слой_2" data-name="Слой 2"><g id="Слой_8" data-name="Слой 8"><polygon points="31 31 26 31 26 26 22 26 22 31 17 31 17 35 22 35 22 40 26 40 26 35 31 35 31 31" fill="none" stroke="#000" stroke-linejoin="round" stroke-width="2"/><path d="M31.95,45a7.965,7.965,0,0,0,8-8.822A12.856,12.856,0,0,0,38.223,31c-4.21-6.913-6.922-13-14.208-13H24c-7.286,0-10,6.087-14.208,13A12.841,12.841,0,0,0,8.07,36.178a7.965,7.965,0,0,0,8,8.822Z" fill="none" stroke="#000" stroke-linejoin="round" stroke-width="2"/><ellipse cx="17" cy="7.5" rx="5" ry="6.5" fill="none" stroke="#000" stroke-linejoin="round" stroke-width="2"/><ellipse cx="6" cy="18.5" rx="5" ry="6.5" fill="none" stroke="#000" stroke-linejoin="round" stroke-width="2"/><ellipse cx="42" cy="18.5" rx="5" ry="6.5" fill="none" stroke="#000" stroke-linejoin="round" stroke-width="2"/><ellipse cx="31" cy="7.5" rx="5" ry="6.5" fill="none" stroke="#000" stroke-linejoin="round" stroke-width="2"/></g></g></svg>