<?xml version="1.0" encoding="utf-8"?><!-- Generator: Adobe Illustrator 18.1.1, SVG Export Plug-In . SVG Version: 6.00 Build 0)  --><svg xmlns="http://www.w3.org/2000/svg" xmlns:xlink="http://www.w3.org/1999/xlink" viewBox="0 0 50 50" width="50px" height="50px"><circle cx="19" cy="22" r="1"/><circle cx="13" cy="22" r="1"/><circle cx="10" cy="25" r="1"/><circle cx="10" cy="31" r="1"/><circle cx="4" cy="31" r="1"/><circle cx="10" cy="37" r="1"/><circle cx="4" cy="37" r="1"/><circle cx="10" cy="43" r="1"/><circle cx="13" cy="34" r="1"/><circle cx="7" cy="28" r="1"/><circle cx="7" cy="34" r="1"/><circle cx="7" cy="40" r="1"/><circle cx="25" cy="34" r="1"/><circle cx="25" cy="40" r="1"/><circle cx="28" cy="31" r="1"/><circle cx="28" cy="37" r="1"/><circle cx="31" cy="34" r="1"/><circle cx="13" cy="28" r="1"/><circle cx="13" cy="46" r="1"/><circle cx="13" cy="40" r="1"/><circle cx="16" cy="19" r="1"/><circle cx="19" cy="28" r="1"/><circle cx="16" cy="25" r="1"/><circle cx="22" cy="25" r="1"/><circle cx="25" cy="28" r="1"/><circle cx="19" cy="34" r="1"/><circle cx="16" cy="31" r="1"/><circle cx="22" cy="31" r="1"/><circle cx="19" cy="40" r="1"/><circle cx="19" cy="46" r="1"/><circle cx="16" cy="37" r="1"/><circle cx="16" cy="43" r="1"/><circle cx="22" cy="37" r="1"/><circle cx="22" cy="43" r="1"/><g><path fill="none" stroke="#000000" stroke-width="2" stroke-linecap="round" stroke-linejoin="round" stroke-miterlimit="10" d="M35,2c-3.3,0-6.6,1.3-9.2,3.8C25.1,6.6,6.6,25,5.8,25.9c-5.1,5.1-5.1,13.3,0,18.3C8.3,46.7,11.6,48,15,48s6.6-1.3,9.2-3.8c0.7-0.7,19.2-19.2,20.1-20.1c5.1-5.1,5.1-13.3,0-18.3C41.7,3.3,38.4,2,35,2L35,2z"/></g><line fill="none" stroke="#000000" stroke-width="2" stroke-linecap="round" stroke-linejoin="round" stroke-miterlimit="10" x1="17.3" y1="15.3" x2="35" y2="33"/></svg>