<svg xmlns="http://www.w3.org/2000/svg"  viewBox="0 0 128 128" width="64px" height="64px"><path d="M124,121H10c-1.65,0-3-1.35-3-3s1.35-3,3-3h114c1.66,0,3-1.34,3-3s-1.34-3-3-3H79V92c0-1.66-1.34-3-3-3s-3,1.34-3,3v17H13 V84c0-1.65,1.35-3,3-3h55c7.17,0,13-5.83,13-13V52c0-1.66-1.34-3-3-3c-6.47,0-13-0.53-19.38-1.58L39.53,43.8 c-13.72-2.24-27.17,6.05-31.28,19.31c-0.49,1.58,0.39,3.26,1.98,3.75c1.58,0.49,3.26-0.4,3.75-1.98 c3.23-10.42,13.8-16.94,24.58-15.17l22.09,3.62c5.72,0.94,11.54,1.48,17.35,1.62V68c0,3.86-3.14,7-7,7H16c-4.96,0-9,4.04-9,9 v25.53c-3.49,1.24-6,4.57-6,8.47c0,4.96,4.04,9,9,9h114c1.66,0,3-1.34,3-3S125.66,121,124,121z"/></svg>