<svg xmlns="http://www.w3.org/2000/svg"  viewBox="0 0 128 128" width="64px" height="64px"><path d="M 39 1 C 27.01 1 16.759297 8.5794531 12.779297 19.189453 C 10.969297 16.289453 8.6097656 13.700313 5.7597656 11.570312 C 4.4297656 10.580312 2.5505469 10.849688 1.5605469 12.179688 C 0.57054688 13.509688 0.83992188 15.390859 2.1699219 16.380859 C 7.7799219 20.570859 11 27 11 34 L 11 60 C 11 63.86 7.86 67 4 67 C 2.34 67 1 68.34 1 70 C 1 71.66 2.34 73 4 73 C 11.17 73 17 67.17 17 60 L 17 29 C 17 16.87 26.87 7 39 7 C 44.28 7 49.379141 8.8998438 53.369141 12.339844 C 54.619141 13.419844 56.519609 13.279297 57.599609 12.029297 C 58.679609 10.769297 58.539062 8.8807813 57.289062 7.8007812 C 52.209063 3.4107813 45.72 1 39 1 z M 89 1 C 80.34 1 72.310937 4.9104688 66.960938 11.730469 C 65.940938 13.030469 66.170703 14.919453 67.470703 15.939453 C 68.770703 16.959453 70.659687 16.729687 71.679688 15.429688 C 75.879687 10.069687 82.2 7 89 7 C 101.13 7 111 16.87 111 29 L 111 60 C 111 63.86 107.86 67 104 67 L 92 67 C 90.34 67 89 68.34 89 70 C 89 71.66 90.34 73 92 73 L 104 73 C 108.02 73 111.61 71.169063 114 68.289062 C 116.39 71.159063 119.98 73 124 73 C 125.66 73 127 71.66 127 70 C 127 68.34 125.66 67 124 67 C 120.14 67 117 63.86 117 60 L 117 34 C 117 27.01 120.21078 20.600391 125.80078 16.400391 C 127.12078 15.400391 127.39039 13.519219 126.40039 12.199219 C 125.40039 10.869219 123.51922 10.609609 122.19922 11.599609 C 119.36922 13.729609 117.0307 16.299453 115.2207 19.189453 C 111.2407 8.5794531 100.99 1 89 1 z M 53 21 C 37.56 21 25 33.56 25 49 L 25 80 C 25 87.17 30.83 93 38 93 L 68 93 C 75.17 93 81 87.17 81 80 L 81 49 C 81 33.56 68.44 21 53 21 z M 53 27 C 65.13 27 75 36.87 75 49 L 75 80 C 75 83.86 71.86 87 68 87 L 38 87 C 34.14 87 31 83.86 31 80 L 31 49 C 31 36.87 40.87 27 53 27 z"/></svg>