<svg xmlns="http://www.w3.org/2000/svg"  viewBox="0 0 50 50" width="500px" height="500px">
  <defs>
    <style>
      .cls-1 {
        fill: none;
        stroke: #000;
        stroke-linecap: round;
        stroke-linejoin: round;
      }
    </style>
  </defs>
  <polygon points="17.842 16 14.842 15 18.842 23 9.842 13 12.842 14 9 8 13.842 8 17.842 16"/>
  <circle class="cls-1" cx="37.5" cy="15" r="4.5"/>
  <circle cx="37.5" cy="15" r="4.5"/>
  <path d="M42.542,24.22949a4.74744,4.74744,0,0,0-5.513-2.72693.505.505,0,0,0-.20868.03064L23,24a3.30637,3.30637,0,0,0-3,3,3.00328,3.00328,0,0,0,3,3l8.97137-1.23749L30.22656,33.04,28.5,31l-5.5.5A4.47356,4.47356,0,0,1,18.25,27l-4.96387,3.50537A3.02565,3.02565,0,0,0,16.71,35.49463L21.333,32.23,24.5387,38H10a3,3,0,0,0,0,6H31.50879a6.48211,6.48211,0,0,0,5.99414-3.98779l5.05469-12.06153A4.71022,4.71022,0,0,0,42.542,24.22949Z"/>
</svg>