<svg xmlns="http://www.w3.org/2000/svg"  viewBox="0 0 128 128" width="64px" height="64px"><path d="M120,46H82V8c0-1.7-1.3-3-3-3H49c-1.7,0-3,1.3-3,3v38H8c-1.7,0-3,1.3-3,3v30c0,1.7,1.3,3,3,3h38v38c0,1.7,1.3,3,3,3h30 c1.7,0,3-1.3,3-3V82h38c1.7,0,3-1.3,3-3V49C123,47.3,121.7,46,120,46z M56.6,74.5l15.9,9.2c1.4,0.8,1.9,2.7,1.1,4.1 c-0.6,1-1.6,1.5-2.6,1.5c-0.5,0-1-0.1-1.5-0.4L68,88v8c0,1.7-1.3,3-3,3s-3-1.3-3-3V84.5l-8.4-4.8c-2.5-1.4-3.8-4.1-3.4-6.9 s2.3-5.1,5-5.9L68.9,63c0.6-0.2,0.7-0.6,0.7-1s-0.1-0.8-0.7-1l-13.7-3.9c-2.7-0.8-4.7-3-5-5.9s1-5.5,3.4-6.9l8.4-4.8V28 c0-1.7,1.3-3,3-3s3,1.3,3,3v8l1.5-0.9c1.4-0.8,3.3-0.3,4.1,1.1c0.8,1.4,0.3,3.3-1.1,4.1l-15.9,9.2c-0.5,0.3-0.5,0.7-0.5,1 c0,0.2,0.2,0.7,0.7,0.8l13.7,3.9c3,0.9,5.1,3.6,5.1,6.7s-2,5.9-5.1,6.7l-13.7,3.9c-0.6,0.2-0.7,0.6-0.7,0.8 C56.1,73.8,56.1,74.2,56.6,74.5z"/></svg>