<?xml version="1.0" encoding="iso-8859-1"?><!-- Generator: Adobe Illustrator 23.0.0, SVG Export Plug-In . SVG Version: 6.00 Build 0)  --><svg xmlns="http://www.w3.org/2000/svg" xmlns:xlink="http://www.w3.org/1999/xlink" viewBox="0 0 50 50" width="50px" height="50px"><g id="&#x421;&#x43B;&#x43E;&#x439;_1" style="display:none;"></g><g id="&#x421;&#x43B;&#x43E;&#x439;_2"><g id="surface1"><path d="M3,17c-1.645,0-3,1.355-3,3v30h6v-5h38v5h6V31c0-1.645-1.355-3-3-3c-0.402,0-0.773,0.105-1.125,0.25C45.531,26.969,44.383,26,43,26H20c-1.301,0-2.402,0.859-2.813,2.031c-0.84-1.234-2.027-2.48-3.656-3.25c-1.039-0.488-2.125-0.707-3.156-0.781C8.617,23.871,7.07,24.191,6,24.5V20C6,18.355,4.645,17,3,17z M3,19c0.555,0,1,0.445,1,1v5.719c-0.023,0.125-0.023,0.25,0,0.375v6.719C3.992,32.875,3.992,32.938,4,33v4c0,0.031,0,0.063,0,0.094V38h42v-0.844c0.004-0.051,0.004-0.105,0-0.156v-6c0-0.555,0.445-1,1-1s1,0.445,1,1v17h-2v-5H4v5H2V20C2,19.445,2.445,19,3,19z M9,26.031c0.379-0.023,0.801-0.027,1.25,0c0.824,0.047,1.676,0.203,2.437,0.563c2.434,1.148,3.504,3.691,3.938,4.844c-1.176,0.375-3.84,1.094-6.281-0.125c-0.012-0.012-0.02-0.02-0.031-0.031c-2.422-1.145-3.461-3.57-3.906-4.719C7.023,26.367,7.859,26.105,9,26.031z M20,28h23c0.555,0,1,0.445,1,1v7H19v-3c0-0.031,0-0.063,0-0.094v-0.625c0.012-0.094,0.012-0.188,0-0.281v-3C19,28.445,19.445,28,20,28z M6,30.156C6.488,30.813,7.102,31.43,7.812,32H6V30.156z M6,34h11v2H6V34z"/></g><line style="fill:none;stroke:#000000;stroke-width:2;stroke-linecap:round;stroke-miterlimit:10;" x1="25" y1="6.333" x2="25" y2="11.667"/><line style="fill:none;stroke:#000000;stroke-width:2;stroke-linecap:round;stroke-miterlimit:10;" x1="27.667" y1="9" x2="22.333" y2="9"/><g><path d="M25,17c-4.411,0-8-3.589-8-8s3.589-8,8-8s8,3.589,8,8S29.411,17,25,17z M25,3c-3.309,0-6,2.691-6,6s2.691,6,6,6s6-2.691,6-6S28.309,3,25,3z"/></g></g><g id="&#x421;&#x43B;&#x43E;&#x439;_3" style="display:none;"></g></svg>