<?xml version="1.0" encoding="iso-8859-1"?><!-- Generator: Adobe Illustrator 21.1.0, SVG Export Plug-In . SVG Version: 6.00 Build 0)  --><svg xmlns="http://www.w3.org/2000/svg" xmlns:xlink="http://www.w3.org/1999/xlink" viewBox="0 0 50 50" width="500px" height="500px"><path d="M10.552,38C11.176,36.436,12,29.896,12,27c0-0.552,0.447-1,1-1s1,0.448,1,1c0,2.896,0.824,9.436,1.448,11h2.894C19.037,34.667,20,17.021,20,9c0-0.552,0.447-1,1-1s1,0.448,1,1c0,8.235,0.947,25.672,1.656,29h4.798C29.156,35.662,30,24.707,30,19c0-0.552,0.447-1,1-1s1,0.448,1,1c0,5.71,0.844,16.667,1.545,19h3.313C37.277,37.582,38,35.603,38,33c0-0.552,0.447-1,1-1s1,0.448,1,1c0,2.713,0.796,4.586,1.172,5H47V6c0-1.654-1.346-3-3-3H6C4.346,3,3,4.346,3,6v32H10.552z"/><path d="M41,40c-0.841,0-1.497-0.705-1.979-1.731C38.549,39.292,37.888,40,37,40h-4c-0.78,0-1.379,0-2.002-5.092C30.376,40,29.778,40,29,40h-6c-0.938,0-1.409,0-2.001-7.872C20.408,40,19.937,40,19,40h-4c-0.861,0-1.434-0.59-2-3.559C12.434,39.41,11.861,40,11,40H3v4c0,1.654,1.346,3,3,3h38c1.654,0,3-1.346,3-3v-4H41z"/></svg>