<?xml version="1.0" encoding="iso-8859-1"?>
<!-- Generator: Adobe Illustrator 23.0.6, SVG Export Plug-In . SVG Version: 6.00 Build 0)  -->
<svg version="1.1" id="Filled" xmlns="http://www.w3.org/2000/svg" xmlns:xlink="http://www.w3.org/1999/xlink" x="0px" y="0px"
	 viewBox="0 0 50 50" style="enable-background:new 0 0 50 50;" xml:space="preserve">
<circle cx="14" cy="14" r="1"/>
<circle cx="18" cy="26" r="1"/>
<circle cx="31" cy="39" r="1"/>
<path d="M42,15H16.816c-0.413,1.163-1.512,2-2.816,2s-2.403-0.837-2.816-2H7c-1.105,0-2,0.895-2,2c0,1.105,0.895,2,2,2h12v4.184
	c1.163,0.413,2,1.512,2,2.816s-0.837,2.403-2,2.816V46.3c0,1.564,0.835,2.7,2.4,2.7c1.482,0,2.6-1.161,2.6-2.7V33.458
	c0-0.276,0.224-0.5,0.5-0.5s0.5,0.224,0.5,0.5v13.134c0.004,0.006,0.012,0.01,0.016,0.016C25.153,47.991,26.218,49,27.6,49
	c1.564,0,2.4-1.136,2.4-2.7v-4.484c-1.163-0.413-2-1.512-2-2.816s0.837-2.403,2-2.816V19h4.184c0.413-1.163,1.512-2,2.816-2
	s2.403,0.837,2.816,2H42c1.105,0,2-0.895,2-2C44,15.895,43.105,15,42,15z"/>
<circle cx="37" cy="20" r="1"/>
<circle cx="24.5" cy="8.5" r="5.5"/>
</svg>