<?xml version="1.0" encoding="iso-8859-1"?>
<!-- Generator: Adobe Illustrator 22.1.0, SVG Export Plug-In . SVG Version: 6.00 Build 0)  -->
<svg version="1.1" id="Layer_1" xmlns="http://www.w3.org/2000/svg" xmlns:xlink="http://www.w3.org/1999/xlink" x="0px" y="0px"
	 viewBox="0 0 50 50" style="enable-background:new 0 0 50 50;" xml:space="preserve">
<g>
</g>
<image style="display:none;overflow:visible;" width="645" height="530" xlink:href="6BF22E87.jpg"  transform="matrix(0.0917 0 0 0.0917 -7 0)">
</image>
<path style="fill:none;stroke:#000000;stroke-width:2;stroke-linecap:round;stroke-linejoin:round;stroke-miterlimit:10;" d="M12,46
	c0-4,3-8,3-10c0-4,0,0,0-3c0-2-2-4-2-10c0,1,0,4.875-3,8"/>
<path style="fill:none;stroke:#000000;stroke-width:2;stroke-linecap:round;stroke-linejoin:round;stroke-miterlimit:10;" d="M5,28
	c0-4.125,2-3.764,2-8.125c0-4.1,1.929-6.354,4.125-7.679c1.609-0.97,3.022-1.315,4.25-1.696C19,9.375,19,5,19,5"/>
<path style="fill:none;stroke:#000000;stroke-width:2;stroke-linecap:round;stroke-linejoin:round;stroke-miterlimit:10;" d="M40,28
	c-3-2.276-3.001-6-3.001-7c0,6-1,9-1,11c0,0.87,0.024,2.625,0.024,3.125C36.023,38,37.999,41,37.999,46"/>
<path style="fill:none;stroke:#000000;stroke-width:2;stroke-linecap:round;stroke-linejoin:round;stroke-miterlimit:10;" d="M27,4
	c0,0-0.054,3.324,5,4c3.015,0.403,7.75,1,9.107,7.25C42.091,19.784,44.553,20.397,45,25"/>
<path d="M25,30h5l-4,5h4l-10,9l4-7h-4L25,30z"/>
</svg>