<svg xmlns="http://www.w3.org/2000/svg"  viewBox="0 0 128 128" width="64px" height="64px"><path d="M81.26,107.94c-0.72,0-1.45-0.08-2.19-0.24c-4.21-0.93-7.22-4.3-7.65-8.58C70.81,93.15,68.97,75,64,75 s-6.81,18.15-7.42,24.11c-0.44,4.29-3.44,7.66-7.65,8.58c-4.2,0.92-8.34-0.87-10.53-4.57c-6.45-10.91-11.33-25.28-13.39-39.45 c-2.2-15.15-0.89-27.92,3.69-35.96C32.33,21.36,37.96,18,45,18c3.88,0,7.33,1.04,10.66,2.04c2.9,0.87,5.65,1.7,8.34,1.7 s5.43-0.83,8.34-1.7C75.67,19.04,79.12,18,83,18c7.04,0,12.67,3.36,16.3,9.72c4.58,8.03,5.89,20.8,3.69,35.96 c-2.06,14.16-6.94,28.54-13.39,39.45C87.79,106.18,84.66,107.94,81.26,107.94z M64,69c10.4,0,12.2,17.76,13.39,29.51 c0.2,2.02,1.67,3.04,2.97,3.33c0.63,0.14,2.78,0.42,4.08-1.77c12.88-21.78,17.57-55.5,9.65-69.38C91.52,26.19,87.89,24,83,24 c-3,0-5.88,0.87-8.94,1.79c-3.19,0.96-6.49,1.95-10.06,1.95s-6.87-0.99-10.06-1.95C50.88,24.87,48,24,45,24 c-4.89,0-8.52,2.19-11.09,6.69c-7.92,13.88-3.23,47.59,9.65,69.38c1.29,2.19,3.45,1.91,4.08,1.77c1.3-0.29,2.77-1.31,2.97-3.33 C51.8,86.76,53.6,69,64,69z"/></svg>