<svg xmlns="http://www.w3.org/2000/svg"  viewBox="0 0 100 100" width="100px" height="100px"><path d="M 52 9 C 44.729464 9 39.487957 10.807189 35.957031 12.904297 C 34.191569 13.952851 32.852419 15.071169 31.892578 16.074219 C 31.072935 16.930759 30.655066 17.616075 30.337891 18.253906 C 23.780929 21.192303 19 28.861543 19 37 C 19 41.925216 19.903743 45.668455 21.035156 48.423828 C 20.561163 48.723814 20.149264 49.055356 19.820312 49.439453 C 19.310594 50.034621 19 50.779063 19 51.548828 C 19 53.628879 19.815882 57.037116 20.613281 59.738281 L 20.828125 60.476562 C 21.186622 61.719054 21.556217 63.039299 22.183594 64.208984 C 22.810971 65.37867 23.771955 66.440873 25.199219 66.847656 L 25 66.804688 L 25 72 C 25 73.404167 25.764339 74.992193 27.009766 76.933594 C 28.255192 78.874994 30.035996 81.063455 32.253906 83.136719 C 36.689727 87.283247 42.898148 91 50 91 C 57.101852 91 63.310273 87.283247 67.746094 83.136719 C 69.964004 81.063455 71.744808 78.874994 72.990234 76.933594 C 74.235661 74.992193 75 73.404167 75 72 L 75 66.804688 L 74.798828 66.847656 C 76.226225 66.440835 77.187108 65.378753 77.814453 64.208984 C 78.441799 63.039216 78.811445 61.718483 79.169922 60.476562 L 79.386719 59.738281 L 79.386719 59.734375 C 80.184895 57.033474 81 53.627998 81 51.548828 C 81 50.2739 80.183933 49.200832 78.949219 48.412109 C 80.082941 45.918656 81 42.749074 81 39 C 81 32.753915 78.050317 28.764459 76.523438 27.109375 C 77.298882 26.494136 78.016572 25.768587 78.583984 24.914062 C 79.408762 23.671947 80 22.321443 80 21 A 1.0001 1.0001 0 0 0 79 20 C 77.481784 20 76.091551 19.417287 74.539062 18.435547 C 72.986575 17.453806 71.313927 16.083926 69.333984 14.683594 C 65.374098 11.882928 60.126729 9 52 9 z M 52 11 C 59.662271 11 64.363073 13.617072 68.179688 16.316406 C 70.087993 17.666074 71.759676 19.046194 73.46875 20.126953 C 74.794498 20.965311 76.206511 21.50555 77.705078 21.761719 C 77.551345 22.395905 77.408035 23.067612 76.916016 23.808594 C 76.240794 24.825478 75.309927 25.726872 74.552734 26.105469 A 1.0001 1.0001 0 0 0 74.375 27.78125 C 74.375 27.78125 79 31.416667 79 39 C 79 45.070302 76.483234 49.253738 74.800781 51.457031 C 74.745681 49.963859 74.752011 48.382041 74.267578 44.726562 C 73.601242 39.698467 72.418348 33.874541 69.798828 30.398438 A 1.0001 1.0001 0 0 0 68.5 30.132812 C 64.814421 32.25669 60.940492 34 53 34 C 44.965626 34 37.37248 30.450235 34.84375 26.464844 A 1.0001 1.0001 0 0 0 33 27 C 33 28.791309 31.117794 32.094562 29.089844 36.548828 C 27.301486 40.476844 25.571823 45.472842 25.167969 51.560547 C 24.757531 51.04142 24.357951 50.59244 23.873047 49.726562 C 23.674419 49.371879 23.475245 48.978769 23.279297 48.5625 A 1.0001 1.0001 0 0 0 23.179688 48.332031 C 22.018379 45.782244 21 42.11881 21 37 C 21 29.604488 25.524943 22.48994 31.253906 19.986328 C 31.287977 20.219093 31.310522 20.41348 31.373047 20.722656 C 31.579645 21.744289 31.966788 23.149184 32.708984 24.714844 A 0.50059586 0.50059586 0 1 0 33.613281 24.285156 C 32.912478 22.806816 32.545215 21.481055 32.351562 20.523438 C 32.254733 20.044629 32.201256 19.659591 32.169922 19.390625 C 32.154252 19.256142 32.144009 19.150169 32.136719 19.074219 C 32.134959 19.055651 32.134354 19.042566 32.132812 19.027344 C 32.346293 18.654933 32.701991 18.121557 33.337891 17.457031 C 34.169049 16.588456 35.367025 15.578993 36.976562 14.623047 C 40.195637 12.711155 45.059536 11 52 11 z M 52 14 C 43.515929 14 38.499245 16.830326 36.169922 18.875 A 0.50030972 0.50030972 0 1 0 36.830078 19.626953 C 38.968755 17.749627 43.738071 15 52 15 C 55.320598 15 57.983602 15.636965 60.306641 16.607422 A 0.50005 0.50005 0 1 0 60.693359 15.685547 C 58.262398 14.670004 55.449402 14 52 14 z M 64.484375 17.767578 A 0.50005 0.50005 0 0 0 64.230469 18.693359 C 64.905962 19.123937 65.564649 19.572626 66.210938 20.029297 A 0.50098374 0.50098374 0 1 0 66.789062 19.210938 C 66.133352 18.747608 65.462038 18.291032 64.769531 17.849609 A 0.50005 0.50005 0 0 0 64.484375 17.767578 z M 68.464844 20.550781 A 0.50005 0.50005 0 0 0 68.207031 21.460938 C 68.54134 21.702327 68.877508 21.938559 69.212891 22.173828 A 0.50005 0.50005 0 1 0 69.787109 21.355469 C 69.452492 21.120737 69.12066 20.887001 68.792969 20.650391 A 0.50005 0.50005 0 0 0 68.464844 20.550781 z M 39.490234 25.882812 A 0.50005 0.50005 0 0 0 39.1875 26.777344 C 42.08607 29.103512 47.215261 31 53 31 C 56.704451 31 59.435796 30.581994 61.642578 29.929688 A 0.50024149 0.50024149 0 1 0 61.357422 28.970703 C 59.254204 29.592397 56.629549 30 53 30 C 47.436739 30 42.46393 28.125879 39.8125 25.998047 A 0.50005 0.50005 0 0 0 39.490234 25.882812 z M 34.658203 29.128906 C 38.413289 33.202871 45.402301 36 53 36 C 60.636378 36 64.972429 34.322063 68.607422 32.330078 C 70.471575 35.30061 71.681474 40.432961 72.285156 44.988281 C 72.884087 49.507744 72.97015 53.026546 72.982422 53.599609 C 72.940922 53.639789 72.940412 53.643447 72.882812 53.697266 C 72.646147 53.918397 72.298816 54.224746 71.837891 54.587891 C 70.916039 55.31418 69.535835 56.265827 67.654297 57.214844 C 63.891221 59.112876 58.129431 60.998047 50 60.998047 C 41.870569 60.998047 36.108779 59.112876 32.345703 57.214844 C 30.464165 56.265827 29.083961 55.31418 28.162109 54.587891 C 27.701184 54.224746 27.353852 53.918397 27.117188 53.697266 C 27.057307 53.641316 27.056255 53.636994 27.013672 53.595703 C 27.089336 46.909287 28.977783 41.623242 30.910156 37.378906 C 32.414939 34.073744 33.989359 31.475065 34.658203 29.128906 z M 40 42 C 35.472619 42 33.074219 43.095703 33.074219 43.095703 L 33.925781 44.904297 C 33.925781 44.904297 35.777381 44 40 44 C 44.222619 44 46.074219 44.904297 46.074219 44.904297 L 46.925781 43.095703 C 46.925781 43.095703 44.527381 42 40 42 z M 60 42 C 55.472619 42 53.074219 43.095703 53.074219 43.095703 L 53.925781 44.904297 C 53.925781 44.904297 55.777381 44 60 44 C 64.222619 44 66.074219 44.904297 66.074219 44.904297 L 66.925781 43.095703 C 66.925781 43.095703 64.527381 42 60 42 z M 39 48 C 37.634 48 36.493859 49.224625 36.130859 50.890625 C 36.364859 50.366625 36.889 50 37.5 50 C 38.328 50 39 50.672 39 51.5 C 39 52.328 38.328 53 37.5 53 C 36.745 53 36.125484 52.440844 36.021484 51.714844 C 36.015484 51.810844 36 51.902 36 52 C 36 54.209 37.343 56 39 56 C 40.657 56 42 54.209 42 52 C 42 49.791 40.657 48 39 48 z M 61 48 C 59.634 48 58.493859 49.224625 58.130859 50.890625 C 58.364859 50.366625 58.889 50 59.5 50 C 60.328 50 61 50.672 61 51.5 C 61 52.328 60.328 53 59.5 53 C 58.745 53 58.125484 52.440844 58.021484 51.714844 C 58.015484 51.810844 58 51.902 58 52 C 58 54.209 59.343 56 61 56 C 62.657 56 64 54.209 64 52 C 64 49.791 62.657 48 61 48 z M 78.033203 50.208984 C 78.756846 50.69491 79 51.128097 79 51.548828 C 79 53.038777 78.23625 56.575315 77.46875 59.171875 A 1.0001 1.0001 0 0 0 77.466797 59.175781 L 77.25 59.919922 A 1.0001 1.0001 0 0 0 77.25 59.921875 C 76.891477 61.163955 76.531639 62.370691 76.052734 63.263672 C 75.744464 63.838483 75.407543 64.250539 75 64.542969 L 75 54.40625 C 75.565973 53.811792 76.812306 52.377803 78.033203 50.208984 z M 21.894531 50.251953 C 21.972673 50.400118 22.048449 50.562944 22.126953 50.703125 C 23.252036 52.712148 24.410346 53.904801 25 54.445312 L 25 64.544922 C 24.591423 64.252416 24.25412 63.839414 23.945312 63.263672 C 23.466439 62.370858 23.108503 61.164385 22.75 59.921875 A 1.0001 1.0001 0 0 0 22.75 59.919922 L 22.53125 59.175781 A 1.0001 1.0001 0 0 0 22.53125 59.171875 C 21.764649 56.575081 21 53.038777 21 51.548828 C 21 51.274593 21.07856 51.045317 21.339844 50.740234 C 21.471975 50.585953 21.657041 50.420904 21.894531 50.251953 z M 27 56.214844 C 28.014607 57.007607 29.47906 58.010208 31.445312 59.001953 C 35.467488 61.030671 41.560431 62.998047 50 62.998047 C 58.439569 62.998047 64.532512 61.030671 68.554688 59.001953 C 70.52094 58.010208 71.985393 57.007607 73 56.214844 L 73 66 L 73 72 C 73 72.470833 72.451839 74.070307 71.306641 75.855469 C 70.161442 77.640631 68.473496 79.717795 66.378906 81.675781 C 62.189727 85.591753 56.398148 89 50 89 C 43.601852 89 37.810273 85.591753 33.621094 81.675781 C 31.526504 79.717795 29.838558 77.640631 28.693359 75.855469 C 27.548161 74.070307 27 72.470833 27 72 L 27 66 L 27 56.214844 z M 31.507812 64.994141 A 0.50005 0.50005 0 0 0 31.455078 64.996094 A 0.50005 0.50005 0 0 0 31.173828 65.878906 C 31.173828 65.878906 38.326087 72 50 72 C 53.605303 72 56.85693 71.422772 59.636719 70.626953 A 0.50005 0.50005 0 1 0 59.363281 69.666016 C 56.65907 70.440197 53.498697 71 50 71 C 38.673913 71 31.826172 65.121094 31.826172 65.121094 A 0.50005 0.50005 0 0 0 31.507812 64.994141 z M 69.513672 64.996094 A 0.50005 0.50005 0 0 0 69.201172 65.099609 C 69.201172 65.099609 68.862409 65.351588 68.232422 65.751953 A 0.50005 0.50005 0 1 0 68.767578 66.595703 C 69.421591 66.180069 69.798828 65.900391 69.798828 65.900391 A 0.50005 0.50005 0 0 0 69.513672 64.996094 z M 66.490234 66.830078 A 0.50005 0.50005 0 0 0 66.265625 66.890625 C 65.439786 67.329106 64.441148 67.808292 63.306641 68.28125 A 0.50075168 0.50075168 0 0 0 63.693359 69.205078 C 64.856852 68.720036 65.880214 68.228909 66.734375 67.775391 A 0.50005 0.50005 0 0 0 66.490234 66.830078 z M 31.478516 71.994141 A 0.50005 0.50005 0 0 0 31.123047 72.830078 C 31.123047 72.830078 38.268116 81 50 81 C 61.795581 81 69.855469 72.851562 69.855469 72.851562 A 0.50005 0.50005 0 1 0 69.144531 72.148438 C 69.144531 72.148438 61.334419 80 50 80 C 38.731884 80 31.876953 72.169922 31.876953 72.169922 A 0.50005 0.50005 0 0 0 31.478516 71.994141 z"/></svg>