<?xml version="1.0" encoding="iso-8859-1"?><!-- Generator: Adobe Illustrator 21.1.0, SVG Export Plug-In . SVG Version: 6.00 Build 0)  --><svg xmlns="http://www.w3.org/2000/svg" xmlns:xlink="http://www.w3.org/1999/xlink" viewBox="0 0 50 50" width="500px" height="500px"><path d="M33.5,18C25.505,18,19,24.505,19,32.5S25.505,47,33.5,47S48,40.495,48,32.5S41.495,18,33.5,18z M41.707,25.707l-15,15C26.512,40.902,26.256,41,26,41s-0.512-0.098-0.707-0.293c-0.391-0.391-0.391-1.023,0-1.414l15-15c0.391-0.391,1.023-0.391,1.414,0S42.098,25.316,41.707,25.707z"/><path d="M17,32.5c0-2.702,0.665-5.247,1.821-7.5H4c0-4.897,0.001-10.528,0-10.957C4.001,9.058,8.038,5.001,13,5c2.403,0,4.663,0.941,6.362,2.648c1.7,1.708,2.637,3.979,2.638,6.395c0,0.194,0,4.442,0,6.648c0.621-0.605,1.291-1.157,2-1.659c0-2.198,0-4.835,0-4.988c-0.001-2.949-1.145-5.722-3.221-7.807C18.702,4.15,15.939,3,12.999,3C6.936,3.001,2.001,7.956,2,14.045C2.001,14.505,2.001,19.753,2.001,25c0,5.291,0,10.58-0.001,10.956c0.001,2.95,1.145,5.722,3.22,7.807C7.298,45.85,10.061,47,13,47c3.123,0,6.078-1.356,8.138-3.609C18.571,40.482,17,36.675,17,32.5z"/></svg>