<?xml version="1.0" encoding="utf-8"?><!-- Generator: Adobe Illustrator 15.0.0, SVG Export Plug-In . SVG Version: 6.00 Build 0)  --><!DOCTYPE svg PUBLIC "-//W3C//DTD SVG 1.1//EN" "http://www.w3.org/Graphics/SVG/1.1/DTD/svg11.dtd"><svg xmlns="http://www.w3.org/2000/svg" xmlns:xlink="http://www.w3.org/1999/xlink" viewBox="0 0 50 50" width="500px" height="500px"><path d="M33,12c-0.553,0-1-0.448-1-1V8c0-0.551-0.448-1-1-1H19c-0.551,0-1,0.449-1,1v3c0,0.552-0.448,1-1,1s-1-0.448-1-1V8c0-1.654,1.346-3,3-3h12c1.654,0,3,1.346,3,3v3C34,11.552,33.553,12,33,12z"/><g><polygon points="42,19.998 42,19 38,19 38,21 42.001,21 42,20.002 42,20 "/><polygon points="12.001,19.997 12,19 8,19 8,21 12.001,21 12.001,20.004 12,20 "/><path d="M6,19c0-1.103,0.897-2,2-2h4c1.103,0,2,0.897,2,2h22c0-1.103,0.897-2,2-2h4c1.103,0,2,0.897,2,2h6v-5c0-1.654-1.346-3-3-3H3c-1.654,0-3,1.346-3,3v5H6z"/><path d="M44,21c0,1.103-0.897,2-2,2h-4c-1.103,0-2-0.897-2-2H14c0,1.103-0.897,2-2,2H8c-1.103,0-2-0.897-2-2H0v21c0,1.654,1.346,3,3,3h44c1.654,0,3-1.346,3-3V21H44z M31,33h-4v4h-4v-4h-4v-4h4v-4h4v4h4V33z"/></g></svg>