<svg xmlns="http://www.w3.org/2000/svg"  viewBox="0 0 128 128" width="64px" height="64px"><path d="M 77 1 C 49.4 1 27 23.4 27 51 C 27 63.7 31.799609 75.299609 39.599609 84.099609 L 2 121.69922 C 0.8 122.89922 0.8 124.80039 2 125.90039 C 2.6 126.50039 3.3996094 126.80078 4.0996094 126.80078 C 4.7996094 126.80078 5.5992188 126.50039 6.1992188 125.90039 L 43.800781 88.300781 C 52.700781 96.200781 64.3 101 77 101 C 104.6 101 127 78.6 127 51 C 127 23.4 104.6 1 77 1 z M 84 21 C 85.7 21 87 22.3 87 24 L 87 30.300781 C 89.7 30.800781 92.200391 31.800391 94.400391 33.400391 L 99.099609 28.699219 C 100.29961 27.499219 102.20078 27.499219 103.30078 28.699219 C 104.50078 29.899219 104.50078 31.800391 103.30078 32.900391 L 98.599609 37.599609 C 100.09961 39.799609 101.19922 42.3 101.69922 45 L 108 45 C 109.7 45 111 46.3 111 48 C 111 49.7 109.7 51 108 51 L 101.69922 51 C 101.19922 53.7 100.19961 56.200391 98.599609 58.400391 L 103.30078 63.099609 C 104.50078 64.299609 104.50078 66.200781 103.30078 67.300781 C 102.70078 67.900781 101.89922 68.199219 101.19922 68.199219 C 100.49922 68.199219 99.699609 67.900781 99.099609 67.300781 L 94.400391 62.599609 C 92.200391 64.099609 89.7 65.199219 87 65.699219 L 87 72 C 87 73.7 85.7 75 84 75 C 82.3 75 81 73.7 81 72 L 81 65.699219 C 78.3 65.199219 75.799609 64.199609 73.599609 62.599609 L 68.900391 67.300781 C 68.300391 67.900781 67.500781 68.199219 66.800781 68.199219 C 66.100781 68.199219 65.299219 67.900781 64.699219 67.300781 C 63.499219 66.100781 63.499219 64.199609 64.699219 63.099609 L 69.400391 58.400391 C 67.900391 56.200391 66.800781 53.7 66.300781 51 L 60 51 C 58.3 51 57 49.7 57 48 C 57 46.3 58.3 45 60 45 L 66.300781 45 C 66.800781 42.3 67.800391 39.799609 69.400391 37.599609 L 64.699219 32.900391 C 63.499219 31.700391 63.499219 29.799219 64.699219 28.699219 C 65.899219 27.499219 67.800391 27.499219 68.900391 28.699219 L 73.599609 33.400391 C 75.799609 31.900391 78.3 30.800781 81 30.300781 L 81 24 C 81 22.3 82.3 21 84 21 z M 87 47 A 4 4 0 0 0 87 55 A 4 4 0 0 0 87 47 z"/></svg>