<svg xmlns="http://www.w3.org/2000/svg"  viewBox="0 0 128 128" width="64px" height="64px"><path d="M100,64l21.5-12.4c1.4-0.8,1.9-2.7,1.1-4.1l-15-26c-0.8-1.4-2.7-1.9-4.1-1.1L82,32.8V8c0-1.7-1.3-3-3-3H49 c-1.7,0-3,1.3-3,3v24.8L24.5,20.4c-1.4-0.8-3.3-0.3-4.1,1.1l-15,26c-0.8,1.4-0.3,3.3,1.1,4.1L28,64L6.5,76.4 c-1.4,0.8-1.9,2.7-1.1,4.1l15,26c0.8,1.4,2.7,1.9,4.1,1.1L46,95.2V120c0,1.7,1.3,3,3,3h30c1.7,0,3-1.3,3-3V95.2l21.5,12.4 c1.4,0.8,3.3,0.3,4.1-1.1l15-26c0.8-1.4,0.3-3.3-1.1-4.1L100,64z M55.6,76.5l15.9,9.2c1.4,0.8,1.9,2.7,1.1,4.1 c-0.6,1-1.6,1.5-2.6,1.5c-0.5,0-1-0.1-1.5-0.4L67,90v8c0,1.7-1.3,3-3,3s-3-1.3-3-3V86.5l-8.4-4.8c-2.5-1.4-3.8-4.1-3.4-6.9 c0.3-2.8,2.3-5.1,5-5.9L67.9,65c0.6-0.2,0.7-0.6,0.7-1s-0.1-0.8-0.7-1l-13.7-3.9c-2.7-0.8-4.7-3-5-5.9c-0.3-2.8,1-5.5,3.4-6.9 l8.4-4.8V30c0-1.7,1.3-3,3-3s3,1.3,3,3v8l1.5-0.9c1.4-0.8,3.3-0.3,4.1,1.1c0.8,1.4,0.3,3.3-1.1,4.1l-15.9,9.2 c-0.5,0.3-0.5,0.7-0.5,1s0.2,0.7,0.7,0.8l13.7,3.9c3,0.9,5.1,3.6,5.1,6.7s-2,5.9-5.1,6.7l-13.7,3.9c-0.6,0.2-0.7,0.6-0.7,0.8 S55.1,76.2,55.6,76.5z"/></svg>