<svg xmlns="http://www.w3.org/2000/svg"  viewBox="0 0 128 128" width="64px" height="64px"><path d="M 93 1 C 91.34 1 90 2.34 90 4 L 90 11.189453 C 85.62 11.739453 81.609063 13.470781 78.289062 16.050781 L 73.199219 10.960938 C 72.029219 9.7909375 70.130938 9.7909375 68.960938 10.960938 C 67.790937 12.130937 67.790937 14.029219 68.960938 15.199219 L 74.050781 20.289062 C 71.470781 23.609063 69.739453 27.62 69.189453 32 L 62 32 C 60.34 32 59 33.34 59 35 C 59 36.66 60.34 38 62 38 L 69.189453 38 C 69.739453 42.38 71.470781 46.390938 74.050781 49.710938 L 68.960938 54.800781 C 67.790937 55.970781 67.790937 57.869062 68.960938 59.039062 C 69.550938 59.629063 70.310078 59.919922 71.080078 59.919922 C 71.850078 59.919922 72.619219 59.629062 73.199219 59.039062 L 78.289062 53.949219 C 81.609062 56.529219 85.62 58.260547 90 58.810547 L 90 66 C 90 67.66 91.34 69 93 69 C 94.66 69 96 67.66 96 66 L 96 58.810547 C 100.38 58.260547 104.39094 56.529219 107.71094 53.949219 L 112.80078 59.039062 C 113.39078 59.629063 114.14992 59.919922 114.91992 59.919922 C 115.68992 59.919922 116.45906 59.629063 117.03906 59.039062 C 118.20906 57.869062 118.20906 55.970781 117.03906 54.800781 L 111.94922 49.710938 C 114.52922 46.390937 116.26055 42.38 116.81055 38 L 124 38 C 125.66 38 127 36.66 127 35 C 127 33.34 125.66 32 124 32 L 116.81055 32 C 116.26055 27.62 114.52922 23.609063 111.94922 20.289062 L 117.03906 15.199219 C 118.20906 14.029219 118.20906 12.130937 117.03906 10.960938 C 115.86906 9.7909375 113.97078 9.7909375 112.80078 10.960938 L 107.71094 16.050781 C 104.39094 13.470781 100.38 11.739453 96 11.189453 L 96 4 C 96 2.34 94.66 1 93 1 z M 93 17 C 102.93 17 111 25.07 111 35 C 111 44.93 102.93 53 93 53 C 83.07 53 75 44.93 75 35 C 75 25.07 83.07 17 93 17 z M 93 31 A 4 4 0 0 0 93 39 A 4 4 0 0 0 93 31 z M 22 37 C 14.96 37 9.3292188 40.360703 5.6992188 46.720703 C 1.1192187 54.750703 -0.19023437 67.519687 2.0097656 82.679688 C 4.0697656 96.839687 8.9503906 111.22086 15.400391 122.13086 C 17.590391 125.83086 21.719688 127.62922 25.929688 126.69922 C 30.139688 125.76922 33.150078 122.39914 33.580078 118.11914 C 34.190078 112.14914 36.03 94 41 94 C 45.97 94 47.809922 112.14938 48.419922 118.10938 C 48.859922 122.39938 51.860312 125.76945 56.070312 126.68945 C 56.800312 126.84945 57.539766 126.92969 58.259766 126.92969 C 61.659766 126.92969 64.799609 125.16914 66.599609 122.11914 C 73.489609 110.46914 78.640859 94.609688 80.380859 79.679688 C 80.570859 78.039688 79.4 76.549609 77.75 76.349609 C 76.1 76.159609 74.609922 77.340469 74.419922 78.980469 C 72.769922 93.120469 67.919688 108.10055 61.429688 119.06055 C 60.139688 121.25055 57.979609 120.97008 57.349609 120.83008 C 56.049609 120.54008 54.580859 119.52 54.380859 117.5 C 53.200859 105.76 51.4 88 41 88 C 30.6 88 28.799375 105.75977 27.609375 117.50977 C 27.409375 119.52977 25.940625 120.54984 24.640625 120.83984 C 24.010625 120.97984 21.860547 121.26031 20.560547 119.07031 C 7.6905469 97.290312 2.9901563 63.569453 10.910156 49.689453 C 13.480156 45.189453 17.11 43 22 43 C 25 43 27.879453 43.869062 30.939453 44.789062 C 34.129453 45.749063 37.43 46.740234 41 46.740234 C 42.93 46.740234 44.969922 46.450078 47.419922 45.830078 C 49.029922 45.420078 49.999844 43.789688 49.589844 42.179688 C 49.179844 40.579687 47.549453 39.609766 45.939453 40.009766 C 43.999453 40.509766 42.429766 40.740234 41.009766 40.740234 C 38.319766 40.740234 35.579922 39.909062 32.669922 39.039062 C 29.329922 38.039062 25.88 37 22 37 z"/></svg>