<?xml version="1.0" encoding="iso-8859-1"?><!-- Generator: Adobe Illustrator 19.1.1, SVG Export Plug-In . SVG Version: 6.00 Build 0)  --><svg xmlns="http://www.w3.org/2000/svg" xmlns:xlink="http://www.w3.org/1999/xlink" viewBox="0 0 50 50" width="500px" height="500px"><g><g><path d="M44,10H6V7c0-1.608,1.272-2.925,2.864-2.997C9.279,2.816,10.398,2,11.694,2h26.612c1.297,0,2.416,0.817,2.83,2.003C42.728,4.075,44,5.392,44,7V10z"/></g></g><path fill="none" stroke="#000000" stroke-width="2" stroke-miterlimit="10" d="M20,31v-8h3c1.105,0,2,0.895,2,2l0,0c0,1.105-0.895,2-2,2h-3"/><polygon points="24,27 22,27 28,36 30,36 "/><polygon points="28,29 30,29 25,36 23,36 "/><path d="M8,12v33c0,1.654,1.346,3,3,3h28c1.654,0,3-1.346,3-3V12H8z M10,20h30v18H10V20z"/></svg>