<?xml version="1.0" encoding="iso-8859-1"?>
<!-- Generator: Adobe Illustrator 22.1.0, SVG Export Plug-In . SVG Version: 6.00 Build 0)  -->
<svg version="1.1" id="Layer_1" xmlns="http://www.w3.org/2000/svg" xmlns:xlink="http://www.w3.org/1999/xlink" x="0px" y="0px"
	 viewBox="0 0 50 50" style="enable-background:new 0 0 50 50;" xml:space="preserve">
<path d="M45,4H5C4.447,4,4,4.447,4,5v8c0,0.553,0.447,1,1,1h40c0.553,0,1-0.447,1-1V5C46,4.447,45.553,4,45,4z"/>
<path d="M30.994,37.255c0.805-1.307,1.16-2.729,0.991-4.073c-0.242-1.938-1.499-3.631-3.733-5.029
	c-0.271-0.17-0.61-0.199-0.908-0.078c-0.298,0.122-0.52,0.379-0.595,0.691c-0.623,2.59-1.128,2.795-3.952,3.941
	c-1.342,0.581-2.277,1.558-2.636,2.749c-0.152,0.51-0.192,1.047-0.124,1.567C17.772,37.256,16,39.175,16,41.5
	c0,2.481,2.019,4.5,4.5,4.5h9c2.481,0,4.5-2.019,4.5-4.5C34,39.542,32.743,37.872,30.994,37.255z"/>
<polygon style="fill:none;stroke:#000000;stroke-width:2;stroke-linejoin:round;stroke-miterlimit:10;" points="38.714,45 
	11.286,45 9,13 41,13 "/>
</svg>