<?xml version="1.0" encoding="iso-8859-1"?>
<!-- Generator: Adobe Illustrator 24.0.2, SVG Export Plug-In . SVG Version: 6.00 Build 0)  -->
<svg version="1.1" id="&#x421;&#x43B;&#x43E;&#x439;_1"
	 xmlns="http://www.w3.org/2000/svg" xmlns:xlink="http://www.w3.org/1999/xlink" x="0px" y="0px" viewBox="0 0 50 50"
	 style="enable-background:new 0 0 50 50;" xml:space="preserve">
<path style="fill:none;stroke:#000000;stroke-width:2;stroke-linecap:round;stroke-linejoin:round;stroke-miterlimit:10;" d="
	M29.008,8.567l0.639-5.664c0,0,0.32-0.903,3.357-0.903c3.037,0,3.357,0.903,3.357,0.903L37,8.567"/>
<path style="fill:none;stroke:#000000;stroke-width:2;stroke-linecap:round;stroke-linejoin:round;stroke-miterlimit:10;" d="
	M29.555,7C29.211,7.59,29,8.268,29,9c0,2.209,1.791,4,4,4s4-1.791,4-4c0-0.732-0.211-1.41-0.555-2H29.555z"/>
<path d="M29.141,10c0.446,1.722,1.997,3,3.859,3s3.412-1.278,3.859-3H29.141z"/>
<path style="fill:none;stroke:#000000;stroke-width:2;stroke-linecap:round;stroke-linejoin:round;stroke-miterlimit:10;" d="M21,30
	c2.333-2.333,4.667-4.667,7-7"/>
<path style="fill:none;stroke:#000000;stroke-width:2;stroke-linecap:round;stroke-linejoin:round;stroke-miterlimit:10;" d="
	M43.116,31l2.528-4.214c0.547-0.912,0.458-2.07-0.223-2.887l-3.5-4.2C40.491,17.984,38.391,17,36.158,17h-6.316
	c-2.233,0-4.333,0.984-5.761,2.699C21.721,22.133,19.36,24.566,17,27"/>
<path style="fill:none;stroke:#000000;stroke-width:2;stroke-linecap:round;stroke-linejoin:round;stroke-miterlimit:10;" d="M38,23
	l2.443,2.736l-2.086,3.478"/>
<path style="fill:none;stroke:#000000;stroke-width:2.012;stroke-linecap:round;stroke-linejoin:round;stroke-miterlimit:10;" d="
	M48,34c-3.767-1.567-7.533-3.133-11.3-4.7c-0.6-0.1-1.1-0.1-1.7,0.1l-6.7,2.4C28.1,32,27.9,32,27.6,32h-3.8c-0.5,0-1.1-0.2-1.5-0.5
	l-7.8-6.3c-1.263-1.035-3.085-0.757-3.9,0.4c-0.689,0.978-0.56,2.444,0.4,3.4c3.433,2.8,6.867,5.6,10.3,8.4c0.5,0.4,1.1,0.6,1.7,0.6
	h5c0.4,0,0.7-0.1,1-0.2l7.1-2.8c3.604,0.782,7.208,1.564,10.811,2.346c0.839,0.113,1.644-0.363,1.935-1.126
	C49.159,35.398,48.804,34.436,48,34z"/>
<path style="fill:none;stroke:#000000;stroke-width:2.167;stroke-linecap:round;stroke-linejoin:round;stroke-miterlimit:10;" d="
	M8,14c-2.209,0-4,1.791-4,4s1.791,4,4,4s4-1.791,4-4S10.209,14,8,14z"/>
<path style="fill:none;stroke:#000000;stroke-width:2;stroke-linecap:round;stroke-linejoin:round;stroke-miterlimit:10;" d="M46,44
	c1.7,0,3.1-1.4,3-3.2c-0.1-1.6-1.5-2.8-3.2-2.8h-23c-1,0-1.7-0.4-2.2-0.7l-13-10.7C5.8,25.1,3,26.5,3,28.9V29c0,0.9,0.4,1.8,1.2,2.3
	l14.3,11.8c0.7,0.6,1.5,0.9,2.4,0.9H46z"/>
<path style="fill:none;stroke:#000000;stroke-width:2;stroke-linecap:round;stroke-linejoin:round;stroke-miterlimit:10;" d="M28,23
	c0,2.667,0,5.333,0,8"/>
</svg>