<svg xmlns="http://www.w3.org/2000/svg"  viewBox="0 0 128 128" width="64px" height="64px"><path d="M30,108.7V121c0,3.3,2.7,6,6,6h8c1.7,0,3-1.3,3-3v-8.6c0-0.1,0-0.2,0-0.3c0,0,0-0.1,0-0.1V99.6C47,81.6,61.6,67,79.6,67 h9.2c1.6,0,3.1,1.2,3.2,2.8c0.1,1.7-1.3,3.2-3,3.2h-9.4c-13,0-23.9,9.4-26.2,21.8c-0.3,1.7,1.7,3,3.1,2C60.3,94,65,92.4,70,92.4 h13.8c1.6,0,3.1,1.2,3.2,2.8c0.1,1.7-1.3,3.2-3,3.2H70c-9.4,0-17,7.6-17,17v8.6c0,1.7,1.3,3,3,3h12c3.3,0,6-2.7,6-6v-4h14 c7.2,0,13-5.8,13-13V87.5c0-0.8,0.3-1.6,0.9-2.1l4-4c2.5-2.5,3.3-6.2,2.1-9.4l-14-38.6c-6.9-18.9-25-31.5-45-31.5 c-5.8,0-11.5,1-16.9,3.1C14.5,11.5,2.7,27.9,1.1,46.6l-0.2,2.1l0.2,0C-0.2,80.4,20.2,100.7,30,108.7z"/></svg>