<?xml version="1.0" encoding="utf-8"?><!-- Generator: Adobe Illustrator 17.0.0, SVG Export Plug-In . SVG Version: 6.00 Build 0)  --><!DOCTYPE svg PUBLIC "-//W3C//DTD SVG 1.1//EN" "http://www.w3.org/Graphics/SVG/1.1/DTD/svg11.dtd"><svg xmlns="http://www.w3.org/2000/svg" xmlns:xlink="http://www.w3.org/1999/xlink" viewBox="0 0 50 50" width="50px" height="50px"><path fill="none" stroke="#000000" stroke-width="2" stroke-linecap="round" stroke-linejoin="round" stroke-miterlimit="10" d="M19.276,23.338l-4.608-11.107c-0.45-1.127-0.465-1.136,0.664-1.587l5.942-2.423c1.129-0.456,1.107-0.469,1.558,0.664l4.621,11.178"/><polygon fill="none" stroke="#000000" stroke-width="2" stroke-linecap="round" stroke-linejoin="round" stroke-miterlimit="10" points="19.335,23.536 27.512,20.26 28.505,22.681 27.278,25.544 23.191,27.178 20.327,25.952 "/><line fill="none" stroke="#000000" stroke-width="2" stroke-linecap="round" stroke-linejoin="round" stroke-miterlimit="10" x1="35.504" y1="28.438" x2="21.729" y2="34.086"/><path fill="none" stroke="#000000" stroke-width="2" stroke-linecap="round" stroke-linejoin="round" stroke-miterlimit="10" d="M42,49H8v-2c0-1.105,0.84-2,1.875-2h30.25C41.16,45,42,45.895,42,47V49z"/><circle fill="none" stroke="#000000" stroke-width="2.1667" stroke-linecap="round" stroke-linejoin="round" stroke-miterlimit="10" cx="16" cy="36" r="6"/><g><path fill="none" stroke="#000000" stroke-width="2" stroke-linecap="round" stroke-linejoin="round" stroke-miterlimit="10" d="M15.435,42.497c0.53,0.934,1.19,1.891,1.756,2.443"/><path fill="none" stroke="#000000" stroke-width="2" stroke-linecap="round" stroke-linejoin="round" stroke-miterlimit="10" d="M32.182,44.94l4.661-1.796c1.428-0.55,2.139-2.153,1.589-3.579c-0.549-1.426-2.154-2.14-3.58-1.588l-9.843,3.791c-1.368,0.552-3.074-0.319-4.191-1.558"/><path fill="none" stroke="#000000" stroke-width="2" stroke-linecap="round" stroke-linejoin="round" stroke-miterlimit="10" d="M15.013,13.767l-1.143,0.445c-4.702,1.915-6.98,7.292-5.08,11.985l2.37,5.656"/><path fill="none" stroke="#000000" stroke-width="2" stroke-linecap="round" stroke-linejoin="round" stroke-miterlimit="10" d="M16.172,29.819l-2.247-5.699c-0.757-1.87,0.155-4.013,2.025-4.776l1.138-0.465"/></g><path fill="none" stroke="#000000" stroke-width="2" stroke-linecap="round" stroke-linejoin="round" stroke-miterlimit="10" d="M20.534,3.212c0.103,0.243-0.014,0.521-0.256,0.622l-7.164,2.969c-0.241,0.101-0.518-0.016-0.617-0.256l-0.781-1.88c-0.097-0.24,0.016-0.516,0.257-0.617l7.164-2.968c0.242-0.101,0.518,0.013,0.621,0.251L20.534,3.212z"/><line fill="none" stroke="#000000" stroke-width="2" stroke-linecap="round" stroke-linejoin="round" stroke-miterlimit="10" x1="18.607" y1="4.741" x2="20.073" y2="8.425"/><line fill="none" stroke="#000000" stroke-width="2" stroke-linecap="round" stroke-linejoin="round" stroke-miterlimit="10" x1="14.846" y1="6.204" x2="16.312" y2="9.888"/></svg>