<svg xmlns="http://www.w3.org/2000/svg"  viewBox="0 0 128 128" width="64px" height="64px"><path d="M 25 37 C 17.96 37 12.329219 40.360703 8.6992188 46.720703 C 4.1192188 54.750703 2.8097656 67.519687 5.0097656 82.679688 C 7.0697656 96.839688 11.950391 111.21914 18.400391 122.11914 C 20.590391 125.81914 24.729688 127.60945 28.929688 126.68945 C 33.139688 125.76945 36.140078 122.39938 36.580078 118.10938 C 37.190078 112.14938 39.03 94 44 94 C 48.97 94 50.809922 112.14914 51.419922 118.11914 C 51.749922 121.33914 53.530547 124.09039 56.310547 125.65039 C 57.840547 126.51039 59.540469 126.93945 61.230469 126.93945 C 62.670469 126.93945 64.109687 126.62023 65.429688 125.99023 C 66.919687 125.28023 67.559844 123.48023 66.839844 121.99023 C 66.129844 120.50023 64.329844 119.87008 62.839844 120.58008 C 61.739844 121.11008 60.37 121.04992 59.25 120.41992 C 58.49 119.98992 57.560625 119.13977 57.390625 117.50977 C 56.200625 105.75977 54.4 88 44 88 C 33.6 88 31.799375 105.75977 30.609375 117.50977 C 30.409375 119.52977 28.940625 120.54984 27.640625 120.83984 C 27.010625 120.96984 24.850547 121.26031 23.560547 119.07031 C 10.680547 97.280312 5.9901563 63.569453 13.910156 49.689453 C 16.480156 45.189453 20.11 43 25 43 C 28 43 30.879453 43.869062 33.939453 44.789062 C 37.129453 45.749063 40.43 46.740234 44 46.740234 C 47.57 46.740234 50.870547 45.749063 54.060547 44.789062 C 57.120547 43.869062 60 43 63 43 C 70.79 43 75.630625 48.729531 77.390625 60.019531 C 77.640625 61.649531 79.170547 62.779531 80.810547 62.519531 C 82.440547 62.269531 83.560547 60.739609 83.310547 59.099609 C 81.100547 44.849609 73.89 37 63 37 C 59.12 37 55.669844 38.039062 52.339844 39.039062 C 49.429844 39.909062 46.69 40.740234 44 40.740234 C 41.31 40.740234 38.560156 39.909062 35.660156 39.039062 C 32.330156 38.039062 28.88 37 25 37 z M 96 71 C 80.56 71 68 83.56 68 99 C 68 114.44 80.56 127 96 127 C 111.44 127 124 114.44 124 99 C 124 83.56 111.44 71 96 71 z M 96 77 C 108.13 77 118 86.87 118 99 C 118 111.13 108.13 121 96 121 C 83.87 121 74 111.13 74 99 C 74 86.87 83.87 77 96 77 z M 104.45508 87.203125 C 103.68758 87.216875 102.92461 87.524141 102.34961 88.119141 L 85.349609 105.7207 C 84.189609 106.9107 84.229922 108.81094 85.419922 109.96094 C 85.999922 110.52094 86.75 110.80078 87.5 110.80078 C 88.29 110.80078 89.070156 110.50062 89.660156 109.89062 L 106.66016 92.289062 C 107.82016 91.099063 107.77984 89.200781 106.58984 88.050781 C 105.99484 87.470781 105.22258 87.189375 104.45508 87.203125 z"/></svg>