<svg xmlns="http://www.w3.org/2000/svg"  viewBox="0 0 128 128" width="64px" height="64px"><path d="M 54 1.0019531 C 53.2325 1.0019531 52.465859 1.2958594 51.880859 1.8808594 C 50.710859 3.0508594 50.710859 4.9491406 51.880859 6.1191406 C 57.960859 12.199141 65.460547 16.300703 73.560547 17.970703 C 74.000547 18.060703 74.429375 18.159766 74.859375 18.259766 C 89.609375 21.749766 101.83078 32.240547 107.55078 46.310547 C 108.79078 49.350547 111.07047 51.759844 113.98047 53.089844 C 118.25047 55.039844 121 59.32 121 64 C 121 68.68 118.25023 72.960156 113.99023 74.910156 C 111.08023 76.240156 108.78906 78.670234 107.53906 81.740234 C 100.28906 99.510234 83.2 111 64 111 C 45.9 111 29.210703 100.41906 21.470703 84.039062 C 19.570703 80.019062 16.509141 76.600156 12.619141 74.160156 C 9.0991406 71.950156 7 68.15 7 64 C 7 59.75 9.1798437 55.910938 12.839844 53.710938 C 16.559844 51.480937 19.520156 48.159141 21.410156 44.119141 C 25.940156 34.439141 33.710547 26.509062 43.310547 21.789062 C 44.800547 21.049062 45.409688 19.259531 44.679688 17.769531 C 43.949687 16.279531 42.150156 15.670391 40.660156 16.400391 C 29.840156 21.720391 21.070703 30.660078 15.970703 41.580078 C 14.590703 44.530078 12.430234 46.950313 9.7402344 48.570312 C 4.2702344 51.860312 1 57.63 1 64 C 1 70.23 4.1496875 75.920234 9.4296875 79.240234 C 12.349687 81.070234 14.640781 83.619609 16.050781 86.599609 C 24.770781 105.06961 43.59 117 64 117 C 85.65 117 104.91984 104.05 113.08984 84 C 113.76984 82.35 114.97047 81.059141 116.48047 80.369141 C 122.87047 77.449141 127 71.02 127 64 C 127 56.98 122.8707 50.550859 116.4707 47.630859 C 114.9507 46.940859 113.75961 45.670781 113.09961 44.050781 C 106.64961 28.180781 92.870234 16.359922 76.240234 12.419922 C 75.760234 12.309922 75.269297 12.199609 74.779297 12.099609 C 67.819297 10.659609 61.369141 7.1308594 56.119141 1.8808594 C 55.534141 1.2958594 54.7675 1.0019531 54 1.0019531 z M 40.759766 61 C 37.959766 61 35.360625 62.270234 33.640625 64.490234 C 31.920625 66.700234 31.339297 69.510937 32.029297 72.210938 C 35.769297 86.810937 48.92 97 64 97 C 79.08 97 92.230703 86.810937 95.970703 72.210938 C 96.660703 69.510937 96.069375 66.700234 94.359375 64.490234 C 92.639375 62.270234 90.050234 61 87.240234 61 L 40.759766 61 z M 40.759766 67 L 87.240234 67 C 88.180234 67 89.050859 67.429922 89.630859 68.169922 C 90.190859 68.899922 90.390156 69.830703 90.160156 70.720703 C 87.100156 82.660703 76.34 91 64 91 C 51.66 91 40.899609 82.660703 37.849609 70.720703 C 37.619609 69.830703 37.810859 68.899922 38.380859 68.169922 C 38.950859 67.429922 39.819766 67 40.759766 67 z"/></svg>