<svg xmlns="http://www.w3.org/2000/svg"  viewBox="0 0 128 128" width="64px" height="64px"><path d="M 45 6 C 38.84 6 33.689844 8.6107812 30.089844 13.550781 C 22.717371 23.691956 22.770597 42.095116 26.369141 59.085938 C 19.689365 59.582923 13.475828 62.412843 8.6894531 67.199219 L 2.0097656 73.880859 C 0.83976563 75.050859 0.83976563 76.949141 2.0097656 78.119141 C 3.1797656 79.289141 5.08 79.289141 6.25 78.119141 L 12.929688 71.439453 C 16.924064 67.454679 22.174165 65.192009 27.791016 65.017578 C 28.336515 67.073574 28.916782 69.10246 29.550781 71.060547 C 29.960781 72.330547 31.130391 73.140625 32.400391 73.140625 C 32.710391 73.140625 33.020078 73.1 33.330078 73 C 34.910078 72.49 35.769766 70.800703 35.259766 69.220703 C 28.319766 47.800703 28.189453 26.369844 34.939453 17.089844 C 37.429453 13.669844 40.72 12 45 12 C 48 12 50.879453 12.869063 53.939453 13.789062 C 57.129453 14.749063 60.43 15.740234 64 15.740234 C 67.57 15.740234 70.870547 14.749063 74.060547 13.789062 C 77.120547 12.869063 80 12 83 12 C 87.28 12 90.570781 13.669844 93.050781 17.089844 C 99.800781 26.369844 99.670234 47.800703 92.740234 69.220703 C 92.230234 70.800703 93.089922 72.49 94.669922 73 C 96.249922 73.51 97.939219 72.650312 98.449219 71.070312 C 99.084821 69.107275 99.666256 67.073285 100.21289 65.011719 C 105.93007 65.121561 111.28237 67.391734 115.33984 71.439453 L 122.01953 78.119141 C 122.60953 78.709141 123.37063 79 124.14062 79 C 124.91063 79 125.67977 78.709141 126.25977 78.119141 C 127.42977 76.949141 127.42977 75.050859 126.25977 73.880859 L 119.58008 67.199219 C 114.73044 62.349576 108.41718 59.507186 101.63672 59.066406 C 105.22913 42.081472 105.27841 23.687871 97.910156 13.560547 C 94.310156 8.6105469 89.16 6 83 6 C 79.12 6 75.669844 7.0390625 72.339844 8.0390625 C 69.429844 8.9090625 66.69 9.7402344 64 9.7402344 C 61.31 9.7402344 58.560156 8.9090625 55.660156 8.0390625 C 52.330156 7.0390625 48.88 6 45 6 z M 64 42 C 58.49 42 54 46.49 54 52 L 54 58 L 47 58 C 45.34 58 44 59.34 44 61 C 44 62.66 45.34 64 47 64 L 54 64 L 54 74 L 47 74 C 45.34 74 44 75.34 44 77 C 44 78.66 45.34 80 47 80 L 54 80 L 54 90 L 47 90 C 45.34 90 44 91.34 44 93 C 44 94.66 45.34 96 47 96 L 54 96 L 54 102 C 54 107.51 58.49 112 64 112 C 69.51 112 74 107.51 74 102 L 74 96 L 81 96 C 82.66 96 84 94.66 84 93 C 84 91.34 82.66 90 81 90 L 74 90 L 74 80 L 81 80 C 82.66 80 84 78.66 84 77 C 84 75.34 82.66 74 81 74 L 74 74 L 74 64 L 81 64 C 82.66 64 84 62.66 84 61 C 84 59.34 82.66 58 81 58 L 74 58 L 74 52 C 74 46.49 69.51 42 64 42 z M 64 48 C 66.21 48 68 49.79 68 52 L 68 102 C 68 104.21 66.21 106 64 106 C 61.79 106 60 104.21 60 102 L 60 52 C 60 49.79 61.79 48 64 48 z"/></svg>