<svg xmlns="http://www.w3.org/2000/svg"  viewBox="0 0 128 128" width="64px" height="64px"><path d="M 64 1 C 29.26 1 1 29.26 1 64 C 1 98.74 29.26 127 64 127 C 98.74 127 127 98.74 127 64 C 127 29.26 98.74 1 64 1 z M 64 7 C 95.43 7 121 32.57 121 64 C 121 78.64 115.44961 91.999375 106.34961 102.10938 L 25.890625 21.650391 C 36.000625 12.550391 49.36 7 64 7 z M 45 21 C 44.54 21 44.090625 21.009063 43.640625 21.039062 C 41.990625 21.149062 40.729844 22.580469 40.839844 24.230469 C 40.949844 25.880469 42.389297 27.139297 44.029297 27.029297 C 44.349297 27.009297 44.67 27 45 27 C 48 27 50.879453 27.869063 53.939453 28.789062 C 57.129453 29.749063 60.43 30.740234 64 30.740234 C 67.57 30.740234 70.870547 29.749063 74.060547 28.789062 C 77.120547 27.869062 80 27 83 27 C 87.11 27 90.299766 28.539453 92.759766 31.689453 C 98.969766 39.689453 99.769297 57.530391 94.779297 77.150391 C 94.369297 78.760391 95.339219 80.390781 96.949219 80.800781 C 97.199219 80.860781 97.449453 80.890625 97.689453 80.890625 C 99.029453 80.890625 100.24961 79.990859 100.59961 78.630859 C 104.91961 61.640859 106.37 39.419766 97.5 28.009766 C 93.93 23.419766 88.92 21 83 21 C 79.12 21 75.669844 22.039062 72.339844 23.039062 C 69.429844 23.909062 66.69 24.740234 64 24.740234 C 61.31 24.740234 58.570156 23.909063 55.660156 23.039062 C 52.330156 22.039062 48.88 21 45 21 z M 21.650391 25.890625 L 102.09961 106.33984 C 91.999609 115.44984 78.64 121 64 121 C 32.57 121 7 95.43 7 64 C 7 49.36 12.550391 36.000625 21.650391 25.890625 z M 27.5 44.050781 C 25.85 43.910781 24.390234 45.119531 24.240234 46.769531 C 22.620234 64.869531 28.440391 89.280859 38.400391 106.13086 C 40.200391 109.18086 43.340234 110.93945 46.740234 110.93945 C 47.460234 110.93945 48.189922 110.86094 48.919922 110.71094 C 53.129922 109.79094 56.130313 106.42086 56.570312 102.13086 C 57.180313 96.160859 58.310547 85.060859 61.310547 80.130859 C 62.170547 78.720859 61.730547 76.869766 60.310547 76.009766 C 58.900547 75.149766 57.049453 75.599766 56.189453 77.009766 C 52.769453 82.629766 51.509375 92.609531 50.609375 101.51953 C 50.409375 103.53953 48.940625 104.55961 47.640625 104.84961 C 47.000625 104.98961 44.850547 105.27008 43.560547 103.08008 C 34.180547 87.210078 28.700703 64.280547 30.220703 47.310547 C 30.370703 45.660547 29.15 44.200781 27.5 44.050781 z M 73.544922 90.193359 C 73.346621 90.181953 73.143203 90.190703 72.939453 90.220703 C 71.299453 90.460703 70.160391 91.979141 70.400391 93.619141 C 70.830391 96.539141 71.150156 99.559141 71.410156 102.11914 C 71.810156 105.97914 74.330234 109.16039 77.990234 110.40039 C 79.040234 110.76039 80.129219 110.92969 81.199219 110.92969 C 83.849219 110.92969 86.420234 109.86969 88.240234 107.92969 C 89.370234 106.71969 89.319375 104.82945 88.109375 103.68945 C 86.899375 102.55945 84.999141 102.61031 83.869141 103.82031 C 82.689141 105.08031 81.050156 105.12047 79.910156 104.73047 C 79.230156 104.49047 77.600859 103.71953 77.380859 101.51953 C 77.120859 98.899531 76.779844 95.799766 76.339844 92.759766 C 76.129844 91.324766 74.933027 90.273203 73.544922 90.193359 z"/></svg>