<?xml version="1.0" encoding="iso-8859-1"?>
<!-- Generator: Adobe Illustrator 23.0.6, SVG Export Plug-In . SVG Version: 6.00 Build 0)  -->
<svg version="1.1" id="Filled" xmlns="http://www.w3.org/2000/svg" xmlns:xlink="http://www.w3.org/1999/xlink" x="0px" y="0px"
	 viewBox="0 0 50 50" style="enable-background:new 0 0 50 50;" xml:space="preserve">
<path d="M21.206,29c-0.154,0-0.31-0.035-0.456-0.11c-0.433-0.222-0.643-0.722-0.499-1.187L22.643,20H19
	c-0.34,0-0.657-0.173-0.841-0.459c-0.184-0.285-0.21-0.646-0.069-0.955l5-11C23.252,7.229,23.608,7,24,7h6
	c0.356,0,0.686,0.189,0.865,0.498c0.179,0.309,0.18,0.688,0.003,0.998L27.723,14H31c0.379,0,0.726,0.215,0.895,0.554
	c0.169,0.34,0.132,0.745-0.096,1.048l-9.794,13C21.811,28.859,21.511,29,21.206,29z"/>
<path d="M45,3.008h-8c-0.548,0-0.992,0.444-0.992,0.992v22c0,6.07-4.938,11.008-11.008,11.008S13.992,32.07,13.992,26V4
	c0-0.548-0.444-0.992-0.992-0.992H5C4.452,3.008,4.008,3.452,4.008,4v22c0,11.575,9.417,20.992,20.992,20.992
	S45.992,37.575,45.992,26V4C45.992,3.452,45.548,3.008,45,3.008z M44.008,4.992V11h-6.016V4.992H44.008z M12.008,4.992V11H5.992
	V4.992H12.008z"/>
</svg>