<svg xmlns="http://www.w3.org/2000/svg"  viewBox="0 0 128 128" width="64px" height="64px"><path d="M 63.900391 0.96484375 C 62.302148 1.0578125 61 2.3375 61 4 L 61 55.5 C 60.3 55.5 59.600391 55.599219 58.900391 55.699219 C 57.200391 55.899219 56.100781 57.399609 56.300781 59.099609 C 56.500781 60.799609 57.999219 61.899219 59.699219 61.699219 C 63.399219 61.299219 67.000781 61.4 70.300781 62 C 72.600781 62.4 75.100391 63.1 77.400391 64 C 78.800391 64.6 80.499609 63.9 81.099609 62.5 C 81.899609 60.9 81.1 59.000391 79.5 58.400391 C 78.8 58.100391 78.2 57.899219 77.5 57.699219 C 77.9 54.999219 78.500781 52.699219 79.300781 50.699219 C 80.500781 47.599219 82.000781 45.3 83.800781 44 C 85.200781 43 86.699609 42.5 88.599609 42.5 C 92.999609 42.5 99.400781 47.699609 105.30078 56.099609 C 105.90078 56.899609 106.80078 57.400391 107.80078 57.400391 C 108.60078 57.400391 109.30039 57.1 109.90039 56.5 C 110.90039 55.5 110.99922 53.799609 110.19922 52.599609 C 105.99922 46.599609 97.599609 36.5 88.599609 36.5 C 85.499609 36.5 82.700781 37.399219 80.300781 39.199219 C 77.500781 41.199219 75.400781 44.399219 73.800781 48.699219 C 73.000781 50.899219 72.300781 53.400781 71.800781 56.300781 C 71.600781 56.300781 71.399219 56.199219 71.199219 56.199219 C 69.799219 55.999219 68.4 55.799219 67 55.699219 L 67 4.0996094 C 67 2.5996094 65.999609 1.3 64.599609 1 C 64.362109 0.9625 64.128711 0.9515625 63.900391 0.96484375 z M 39.199219 36.400391 C 23.899219 36.400391 4.0992187 67.500391 1.1992188 95.900391 C 0.19921875 105.70039 1.0992188 115.00039 1.1992188 116.40039 C 1.0992187 122.30039 6 127.19922 12 127.19922 C 13.2 127.19922 14.399219 126.99961 15.699219 126.59961 L 41.599609 117 C 50.799609 113.7 57 104.99922 57 95.199219 L 57 71.800781 C 57 69.700781 57.000391 67.700781 56.900391 65.800781 C 56.800391 63.900781 54.899609 62.599609 53.099609 63.099609 C 44.799609 65.699609 36.899609 71.499219 32.099609 81.199219 C 31.599609 82.299219 30.500391 82.900391 29.400391 82.900391 C 28.800391 82.900391 28.300781 82.700391 27.800781 82.400391 C 26.500781 81.600391 26.100781 79.8 26.800781 78.5 C 32.300781 67.5 42.000781 59.800781 53.300781 56.800781 C 54.900781 56.400781 55.800391 54.799219 55.400391 53.199219 C 53.900391 46.899219 51.499609 42.3 48.099609 39.5 C 45.599609 37.4 42.599219 36.400391 39.199219 36.400391 z M 94 61 C 92.3 61 91 62.3 91 64 L 91 70.199219 C 86.6 70.699219 82.600781 72.499609 79.300781 75.099609 L 74.900391 70.699219 C 73.700391 69.499219 71.799219 69.499219 70.699219 70.699219 C 69.499219 71.899219 69.499219 73.800391 70.699219 74.900391 L 75.099609 79.300781 C 72.499609 82.600781 70.799219 86.6 70.199219 91 L 64 91 C 62.3 91 61 92.3 61 94 C 61 95.7 62.3 97 64 97 L 70.199219 97 C 70.699219 101.4 72.499609 105.39922 75.099609 108.69922 L 70.699219 113.09961 C 69.499219 114.29961 69.499219 116.20078 70.699219 117.30078 C 71.299219 117.90078 72.100781 118.19922 72.800781 118.19922 C 73.500781 118.19922 74.300391 117.90078 74.900391 117.30078 L 79.300781 112.90039 C 82.600781 115.50039 86.6 117.20078 91 117.80078 L 91 124 C 91 125.7 92.3 127 94 127 C 95.7 127 97 125.7 97 124 L 97 117.80078 C 101.4 117.30078 105.39922 115.50039 108.69922 112.90039 L 113.09961 117.30078 C 113.69961 117.90078 114.49922 118.19922 115.19922 118.19922 C 115.89922 118.19922 116.70078 117.90078 117.30078 117.30078 C 118.50078 116.10078 118.50078 114.19961 117.30078 113.09961 L 112.90039 108.69922 C 115.50039 105.39922 117.20078 101.4 117.80078 97 L 124 97 C 125.7 97 127 95.7 127 94 C 127 92.3 125.7 91 124 91 L 117.80078 91 C 117.30078 86.6 115.50039 82.600781 112.90039 79.300781 L 117.30078 74.900391 C 118.50078 73.700391 118.50078 71.799219 117.30078 70.699219 C 116.10078 69.499219 114.19961 69.499219 113.09961 70.699219 L 108.69922 75.099609 C 105.39922 72.499609 101.4 70.699219 97 70.199219 L 97 64 C 97 62.3 95.7 61 94 61 z M 100 84 C 102.2 84 104 85.8 104 88 C 104 90.2 102.2 92 100 92 C 97.8 92 96 90.2 96 88 C 96 85.8 97.8 84 100 84 z M 88 96 C 90.2 96 92 97.8 92 100 C 92 102.2 90.2 104 88 104 C 85.8 104 84 102.2 84 100 C 84 97.8 85.8 96 88 96 z"/></svg>