<?xml version="1.0" encoding="iso-8859-1"?><!-- Generator: Adobe Illustrator 19.2.0, SVG Export Plug-In . SVG Version: 6.00 Build 0)  --><svg xmlns="http://www.w3.org/2000/svg" xmlns:xlink="http://www.w3.org/1999/xlink" viewBox="0 0 50 50" width="50px" height="50px"><path style="fill:none;stroke:#000000;stroke-width:2;stroke-linecap:round;stroke-linejoin:round;stroke-miterlimit:10;" d="M27,49c0,0-2-3.9-2-9.5"/><path d="M50,27.9c0,0-4.092-1.848-10.664-0.157C45.699,18.263,46,9,46,9s-8.7,2.5-15.5,11.4c0-0.035,0-0.063,0-0.1c0-0.2,0-0.5,0-0.7C30.6,5.5,25,0,25,0s-5.6,5.5-5.5,19.6c0,0.2,0,0.5,0,0.7c0,0.037,0,0.065,0,0.1C12.7,11.5,4,9,4,9s0.301,9.263,6.664,18.743C4.092,26.052,0,27.9,0,27.9s2.7,6.7,11.4,9.6c-2.4,1.4-3.8,2.9-3.9,3L5,43c1.703,0.547,2.753,1,9,1c1.7,0,2.946-0.2,4.446-0.6c3-0.8,5.154-1.805,6.554-3.005c1.4,1.2,3.554,2.205,6.554,3.005C33.054,43.8,34.3,44,36,44c6.247,0,7.297-0.453,9-1l-2.5-2.5c-0.1-0.1-1.5-1.6-3.9-3C47.3,34.6,50,27.9,50,27.9z M37.3,35.9c-1.9,0.7-3.8,1.1-5.5,1.4c0.5,0,1.1,0.2,1.6,0.3c4.4,1.2,7.647,4.228,7.647,4.228C40.5,41.984,39.234,42,38.094,42c-0.843,0-0.928,0-2.094,0c-1.3,0-2.146-0.1-3.646-0.5C28.618,40.446,25.67,38.73,25,38c-0.67,0.73-3.618,2.446-7.354,3.5C16.146,41.9,15.3,42,14,42c-1.166,0-1.252,0-2.094,0c-1.14,0-2.406-0.016-2.952-0.172c0,0,3.247-3.028,7.647-4.228c0.5-0.1,1.1-0.3,1.6-0.3c-1.7-0.3-3.6-0.7-5.5-1.4c-6.3-2.3-9.1-6.6-9.1-6.6s4.112-0.874,9.717,1.141c0.078,0.03,0.156,0.059,0.234,0.089c0.313,0.116,0.628,0.236,0.949,0.37c1.1,0.4,1.6,0.6,2.5,1.1c-0.257-0.24-0.503-0.48-0.745-0.723c-0.182-0.182-0.367-0.379-0.551-0.574c-0.491-0.52-0.985-1.079-1.512-1.7c-0.512-0.613-1.017-1.249-1.492-1.903c-5.089-7.008-6.6-15-6.6-15s7.4,3.7,12.5,10.7c0.844,1.219,1.723,2.329,2.408,3.534c0.615,1.086,1.157,2.151,1.592,3.166c-0.264-1.321-0.524-2.736-0.728-4.235c-0.2-1.792-0.373-3.583-0.373-5.565C21.5,9.8,25,3.3,25,3.3s3.5,6.5,3.5,16.4c0,1.982-0.173,3.773-0.372,5.565c-0.204,1.499-0.464,2.913-0.728,4.235c0.435-1.015,0.978-2.08,1.592-3.166c0.684-1.205,1.564-2.315,2.408-3.534c5.1-7,12.5-10.7,12.5-10.7s-1.511,7.992-6.6,15c-0.475,0.654-0.98,1.289-1.492,1.903c-0.526,0.621-1.021,1.18-1.512,1.7c-0.184,0.194-0.369,0.391-0.551,0.574C33.503,31.52,33.257,31.76,33,32c0.9-0.5,1.4-0.7,2.5-1.1c0.321-0.135,0.636-0.254,0.949-0.37c0.078-0.03,0.155-0.059,0.234-0.089C42.288,28.426,46.4,29.3,46.4,29.3S43.6,33.6,37.3,35.9z"/></svg>