<?xml version="1.0" encoding="iso-8859-1"?><!-- Generator: Adobe Illustrator 19.2.1, SVG Export Plug-In . SVG Version: 6.00 Build 0)  --><svg xmlns="http://www.w3.org/2000/svg" xmlns:xlink="http://www.w3.org/1999/xlink" viewBox="0 0 50 50" width="50px" height="50px"><line style="fill:none;stroke:#000000;stroke-width:2;stroke-miterlimit:10;" x1="16" y1="36" x2="34" y2="36"/><line style="fill:none;stroke:#000000;stroke-width:2;stroke-miterlimit:10;" x1="16" y1="31" x2="34" y2="31"/><line style="fill:none;stroke:#000000;stroke-width:2;stroke-miterlimit:10;" x1="26" y1="26" x2="34" y2="26"/><line style="fill:none;stroke:#000000;stroke-width:2;stroke-miterlimit:10;" x1="26" y1="21" x2="34" y2="21"/><line style="fill:none;stroke:#000000;stroke-width:2;stroke-miterlimit:10;" x1="26" y1="16" x2="34" y2="16"/><line style="fill:none;stroke:#000000;stroke-width:2;stroke-miterlimit:10;" x1="16" y1="21" x2="24" y2="21"/><line style="fill:none;stroke:#000000;stroke-width:2;stroke-miterlimit:10;" x1="20" y1="17" x2="20" y2="25"/><path style="fill:none;stroke:#000000;stroke-width:2;stroke-linecap:square;stroke-linejoin:round;stroke-miterlimit:10;" d="M19,2h12c0.552,0,1,0.448,1,1v5c0,0.552-0.448,1-1,1H19c-0.552,0-1-0.448-1-1V3C18,2.448,18.448,2,19,2z"/><path style="fill:none;stroke:#000000;stroke-width:2;stroke-linecap:square;stroke-miterlimit:10;" d="M32,4h9c1.1,0,2,0.9,2,2v39c0,1.1-0.9,2-2,2H9c-1.1,0-2-0.9-2-2V6c0-1.1,0.9-2,2-2h9"/><polyline style="fill:none;stroke:#000000;stroke-width:2;stroke-miterlimit:10;" points="31.507,8 39,8 39,43 11,43 11,8 18.383,8 "/></svg>