<svg xmlns="http://www.w3.org/2000/svg"  viewBox="0 0 128 128" width="64px" height="64px"><path d="M 34.199219 1 C 32.399219 0.9 31 2.3 31 4 L 31 11 L 4.1992188 11 C 2.5992187 11 1.1 12.200781 1 13.800781 C 0.9 15.600781 2.3 17 4 17 L 114 17 C 117.9 17 121 20.1 121 24 L 121 61 C 121 62.7 122.3 64 124 64 C 125.7 64 127 62.7 127 61 L 127 24 C 127 16.8 121.2 11 114 11 L 97 11 L 97 4.1992188 C 97 2.5992187 95.799219 1.1 94.199219 1 C 92.399219 0.9 91 2.3 91 4 L 91 11 L 37 11 L 37 4.1992188 C 37 2.5992187 35.799219 1.1 34.199219 1 z M 14 31 C 6.8 31 1 36.8 1 44 L 1 114 C 1 121.2 6.8 127 14 127 L 61 127 C 62.7 127 64 125.7 64 124 C 64 122.3 62.7 121 61 121 L 14 121 C 10.1 121 7 117.9 7 114 L 7 44 C 7 40.1 10.1 37 14 37 L 104 37 C 105.7 37 107.1 35.600391 107 33.900391 C 106.9 32.300391 105.40078 31 103.80078 31 L 14 31 z M 94 61 C 92.3 61 91 62.3 91 64 L 91 70.199219 C 86.6 70.699219 82.600781 72.499609 79.300781 75.099609 L 74.900391 70.699219 C 73.700391 69.499219 71.799219 69.499219 70.699219 70.699219 C 69.499219 71.899219 69.499219 73.800391 70.699219 74.900391 L 75.099609 79.300781 C 72.499609 82.600781 70.799219 86.6 70.199219 91 L 64 91 C 62.3 91 61 92.3 61 94 C 61 95.7 62.3 97 64 97 L 70.199219 97 C 70.699219 101.4 72.499609 105.39922 75.099609 108.69922 L 70.699219 113.09961 C 69.499219 114.29961 69.499219 116.20078 70.699219 117.30078 C 71.299219 117.90078 72.100781 118.19922 72.800781 118.19922 C 73.500781 118.19922 74.300391 117.90078 74.900391 117.30078 L 79.300781 112.90039 C 82.600781 115.50039 86.6 117.20078 91 117.80078 L 91 124 C 91 125.7 92.3 127 94 127 C 95.7 127 97 125.7 97 124 L 97 117.80078 C 101.4 117.30078 105.39922 115.50039 108.69922 112.90039 L 113.09961 117.30078 C 113.69961 117.90078 114.49922 118.19922 115.19922 118.19922 C 115.89922 118.19922 116.70078 117.90078 117.30078 117.30078 C 118.50078 116.10078 118.50078 114.19961 117.30078 113.09961 L 112.90039 108.69922 C 115.50039 105.39922 117.20078 101.4 117.80078 97 L 124 97 C 125.7 97 127 95.7 127 94 C 127 92.3 125.7 91 124 91 L 117.80078 91 C 117.30078 86.6 115.50039 82.600781 112.90039 79.300781 L 117.30078 74.900391 C 118.50078 73.700391 118.50078 71.799219 117.30078 70.699219 C 116.10078 69.499219 114.19961 69.499219 113.09961 70.699219 L 108.69922 75.099609 C 105.39922 72.499609 101.4 70.799219 97 70.199219 L 97 64 C 97 62.3 95.7 61 94 61 z M 94 76 C 103.9 76 112 84.1 112 94 C 112 103.9 103.9 112 94 112 C 84.1 112 76 103.9 76 94 C 76 84.1 84.1 76 94 76 z M 99 85 A 4 4 0 0 0 99 93 A 4 4 0 0 0 99 85 z M 89 95 A 4 4 0 0 0 89 103 A 4 4 0 0 0 89 95 z"/></svg>