<?xml version="1.0" encoding="utf-8"?><!-- Generator: Adobe Illustrator 18.1.1, SVG Export Plug-In . SVG Version: 6.00 Build 0)  --><svg xmlns="http://www.w3.org/2000/svg" xmlns:xlink="http://www.w3.org/1999/xlink" viewBox="0 0 50 50" width="50px" height="50px"><path fill="none" stroke="#000000" stroke-width="2" stroke-linecap="round" stroke-linejoin="round" stroke-miterlimit="10" d="M23.2,10.5c-2.1-0.6-3.7-1.1-3.7-1.8c0-2.2,5.6-2,6.3-2c0,0,1.2,0.4,2.9,0.4c1.7,0,3.2-0.5,3.2-1.9c0-1.3-1.8-2.4-4.1-2.4c-2.3,0-1.9,0.1-3.7,0.5C22.3,3.8,16,4.8,16,8.7c0,3.4,3.8,4.6,7.2,5.5"/><path fill="none" stroke="#000000" stroke-width="2" stroke-linecap="round" stroke-linejoin="round" stroke-miterlimit="10" d="M23.4,28.7c-1.3-0.6-2.2-1.3-2.2-2.6c0-3.2,10.7-3.6,10.7-9.2c0-2.6-2.5-4.1-5.2-5.2"/><path fill="none" stroke="#000000" stroke-width="2" stroke-linecap="round" stroke-linejoin="round" stroke-miterlimit="10" d="M24,41.3c-0.8-0.2-1.4-0.5-1.4-0.9c-0.1-1.8,7.6-1.5,7.6-6.2c0-2.4-1.7-3.5-3.7-4.3"/><path fill="none" stroke="#000000" stroke-width="2" stroke-linecap="round" stroke-linejoin="round" stroke-miterlimit="10" d="M22,47c0,0,6,0.1,6-1.8c0-1.7-2.1-2.2-2.1-2.2"/><path fill="none" stroke="#000000" stroke-width="2" stroke-linecap="round" stroke-linejoin="round" stroke-miterlimit="10" d="M26.4,33.1c0.5,0.3,0.9,0.7,0.9,1.1c0,2.1-7.7,2.7-7.7,6c0,1.9,2.5,2.6,4.6,3.2"/><path fill="none" stroke="#000000" stroke-width="2" stroke-linecap="round" stroke-linejoin="round" stroke-miterlimit="10" d="M26.8,15.3c1,0.4,1.7,0.9,1.7,1.6c0,2.6-10.7,2.2-10.7,9.2c0,3.5,3.1,4.9,5.8,5.9"/><path d="M23.9,39.3c0.1,0.8,0.1,1.7,0.1,2c0.3,3.8,0.6,8.7,1,8.7s0.8-5.3,1.1-9.6c0-0.5,0.1-1.3,0.1-1.9L23.9,39.3z"/><path d="M26.3,35.4c0.1-3.5,0.2-7.3,0.3-11c0-0.4,0-1.4,0-2.1l-3.3,1.5c0,0.7,0,1.6,0.1,2c0.1,3.6,0.2,7.4,0.3,10.8L26.3,35.4z"/><path d="M26.7,18.4c0.1-4.4,0.1-8,0.1-9.8c0-0.4,0.1-1,0.1-1.6l-3.7-0.1c0,0.6,0,1.1,0.1,1.5c0,1.9,0,6.2,0.1,11.4L26.7,18.4z"/><path d="M27.5,2.8c0.1-0.4,0.1-1.8,0.1-2.3c0-0.4-0.4-0.6-0.8-0.5L25,0.5L23.1,0c-0.4-0.1-0.9,0.2-0.8,0.5c0,0.8,0.2,2.5,0.3,3.1L27.5,2.8z"/></svg>