<svg xmlns="http://www.w3.org/2000/svg"  viewBox="0 0 128 128" width="64px" height="64px"><path d="M 20 1 C 15.59 1 12 4.59 12 9 L 12 124 C 12 125.66 13.34 127 15 127 C 16.66 127 18 125.66 18 124 L 18 57 L 40 57 C 41.66 57 43 55.66 43 54 L 43 4 C 43 2.34 41.66 1 40 1 L 20 1 z M 76 1 C 71.59 1 68 4.59 68 9 L 68 14 C 68 15.66 69.34 17 71 17 C 72.66 17 74 15.66 74 14 L 74 9 C 74 7.9 74.9 7 76 7 L 88 7 C 89.1 7 90 7.9 90 9 L 90 14 C 90 15.66 91.34 17 93 17 C 94.66 17 96 15.66 96 14 L 96 9 C 96 4.59 92.41 1 88 1 L 76 1 z M 20 7 L 37 7 L 37 51 L 18 51 L 18 9 C 18 7.9 18.9 7 20 7 z M 82 21 C 60.8 21 58.469844 28.689453 57.339844 40.439453 L 49.570312 118.21094 C 49.350312 120.45094 50.089609 122.69914 51.599609 124.36914 C 53.109609 126.03914 55.269297 127 57.529297 127 L 106.4707 127 C 108.7307 127 110.89016 126.03938 112.41016 124.35938 C 113.92016 122.68937 114.65945 120.44922 114.43945 118.19922 L 106.7793 41.609375 L 106.66016 40.429688 C 105.53016 28.689688 103.2 21 82 21 z M 82 27 C 99.34 27 99.789687 31.679766 100.67969 41.009766 L 106.67969 101 L 57.310547 101 L 63.189453 42.210938 L 63.310547 41.009766 C 64.210547 31.679766 64.66 27 82 27 z M 56.708984 107 L 107.28125 107 L 108.46094 118.80078 C 108.53094 119.57078 108.16922 120.08984 107.94922 120.33984 C 107.72922 120.58984 107.2407 121 106.4707 121 L 57.519531 121 C 56.749531 121 56.259062 120.58984 56.039062 120.33984 C 55.809063 120.08984 55.449297 119.57078 55.529297 118.80078 L 56.708984 107 z"/></svg>