<svg xmlns="http://www.w3.org/2000/svg"  viewBox="0 0 128 128" width="64px" height="64px"><path d="M 64.099609 1 C 62.399609 1 61.099609 2.3 61.099609 4 L 61.099609 55.5 C 46.399609 56.5 33.299609 65 26.599609 78.5 C 25.899609 80 26.5 81.8 28 82.5 C 28.4 82.7 28.900781 82.800781 29.300781 82.800781 C 30.400781 82.800781 31.5 82.199609 32 81.099609 C 40.2 64.599609 57.200781 59.500781 70.300781 61.800781 C 71.900781 62.100781 73.500781 61.000391 73.800781 59.400391 C 74.100781 57.800391 73.000391 56.200391 71.400391 55.900391 C 69.900391 55.600391 68.499609 55.500391 67.099609 55.400391 L 67.099609 4 C 67.099609 2.3 65.799609 1 64.099609 1 z M 39 36.400391 C 23.7 36.400391 3.9 67.500391 1 95.900391 C 0 105.70039 0.9 115.00039 1 116.40039 C 1.1 119.90039 2.6996094 123.09961 5.5996094 125.09961 C 7.4996094 126.39961 9.7003906 127.09961 11.900391 127.09961 C 13.100391 127.09961 14.399609 126.9 15.599609 126.5 L 41.5 116.90039 C 50.8 113.70039 57 104.99922 57 95.199219 L 57 77.800781 C 57 76.100781 55.7 74.800781 54 74.800781 C 52.3 74.800781 51 76.100781 51 77.800781 L 51 95.199219 C 51 102.39922 46.4 108.90078 39.5 111.30078 L 13.599609 120.90039 C 12.099609 121.40039 10.399609 121.19922 9.0996094 120.19922 C 7.7996094 119.19922 7 117.79961 7 116.09961 L 7 115.80078 C 7 115.70078 6 106.20039 7 96.400391 C 9.6 70.300391 28 42.300781 39 42.300781 C 41 42.300781 42.699609 42.899609 44.099609 44.099609 C 45.399609 45.099609 47.300781 44.999219 48.300781 43.699219 C 49.400781 42.399219 49.200391 40.5 47.900391 39.5 C 45.400391 37.4 42.4 36.400391 39 36.400391 z M 88.599609 36.400391 C 85.499609 36.400391 82.700781 37.299609 80.300781 39.099609 C 79.000781 40.099609 78.699219 42.000781 79.699219 43.300781 C 80.599219 44.600781 82.400781 44.900391 83.800781 43.900391 C 85.200781 42.900391 86.699609 42.400391 88.599609 42.400391 C 92.999609 42.400391 99.400781 47.6 105.30078 56 C 105.90078 56.8 106.80078 57.300781 107.80078 57.300781 C 108.40078 57.300781 109 57.100781 109.5 56.800781 C 110.9 55.900781 111.19922 53.999609 110.19922 52.599609 C 105.99922 46.599609 97.599609 36.400391 88.599609 36.400391 z M 94 61 C 92.3 61 91 62.3 91 64 L 91 70.199219 C 86.6 70.699219 82.600781 72.499609 79.300781 75.099609 L 74.900391 70.699219 C 73.700391 69.499219 71.799219 69.499219 70.699219 70.699219 C 69.499219 71.899219 69.499219 73.800391 70.699219 74.900391 L 75.099609 79.300781 C 72.499609 82.600781 70.799219 86.6 70.199219 91 L 64 91 C 62.3 91 61 92.3 61 94 C 61 95.7 62.3 97 64 97 L 70.199219 97 C 70.699219 101.4 72.499609 105.39922 75.099609 108.69922 L 70.699219 113.09961 C 69.499219 114.29961 69.499219 116.20078 70.699219 117.30078 C 71.299219 117.90078 72.100781 118.19922 72.800781 118.19922 C 73.500781 118.19922 74.300391 117.90078 74.900391 117.30078 L 79.300781 112.90039 C 82.600781 115.50039 86.6 117.20078 91 117.80078 L 91 124 C 91 125.7 92.3 127 94 127 C 95.7 127 97 125.7 97 124 L 97 117.80078 C 101.4 117.30078 105.39922 115.50039 108.69922 112.90039 L 113.09961 117.30078 C 113.69961 117.90078 114.49922 118.19922 115.19922 118.19922 C 115.89922 118.19922 116.70078 117.90078 117.30078 117.30078 C 118.50078 116.10078 118.50078 114.19961 117.30078 113.09961 L 112.90039 108.69922 C 115.50039 105.39922 117.20078 101.4 117.80078 97 L 124 97 C 125.7 97 127 95.7 127 94 C 127 92.3 125.7 91 124 91 L 117.80078 91 C 117.30078 86.6 115.50039 82.600781 112.90039 79.300781 L 117.30078 74.900391 C 118.50078 73.700391 118.50078 71.799219 117.30078 70.699219 C 116.10078 69.499219 114.19961 69.499219 113.09961 70.699219 L 108.69922 75.099609 C 105.39922 72.499609 101.4 70.799219 97 70.199219 L 97 64 C 97 62.3 95.7 61 94 61 z M 94 76 C 103.9 76 112 84.1 112 94 C 112 103.9 103.9 112 94 112 C 84.1 112 76 103.9 76 94 C 76 84.1 84.1 76 94 76 z M 99 85 A 4 4 0 0 0 99 93 A 4 4 0 0 0 99 85 z M 89 95 A 4 4 0 0 0 89 103 A 4 4 0 0 0 89 95 z"/></svg>