<?xml version="1.0" encoding="utf-8"?><!-- Generator: Adobe Illustrator 18.1.1, SVG Export Plug-In . SVG Version: 6.00 Build 0)  --><svg xmlns="http://www.w3.org/2000/svg" xmlns:xlink="http://www.w3.org/1999/xlink" viewBox="0 0 50 50" width="50px" height="50px"><line fill="none" stroke="#000000" stroke-width="2" stroke-linecap="round" stroke-linejoin="round" stroke-miterlimit="10" x1="23.5" y1="16.9" x2="23.2" y2="6.4"/><path fill="none" stroke="#000000" stroke-width="2" stroke-linejoin="round" stroke-miterlimit="10" d="M25,50v-6.3c0,0-2.6-2.4-0.4-4.7"/><line fill="none" stroke="#000000" stroke-width="2" stroke-linecap="round" stroke-linejoin="round" stroke-miterlimit="10" x1="26.8" y1="6.4" x2="26.5" y2="17.9"/><circle fill="none" stroke="#000000" stroke-width="2" stroke-linecap="round" stroke-linejoin="round" stroke-miterlimit="10" cx="25" cy="4" r="3"/><g><path fill="none" stroke="#000000" stroke-width="2" stroke-linecap="round" stroke-linejoin="round" stroke-miterlimit="10" d="M27.6,29.2c0,0,3.4-2.2,3.4-5.8c0-5.5-10.9-6.1-10.9-8.5c0.8,0.1,3.1,0.1,3.1-1.3c0-0.6-0.6-1.5-2.3-1.5c-1.6,0-3.3,1.2-3.3,3.1c0,5.4,9.9,4.8,9.9,8.6c0,2-2.7,3.5-2.7,3.5"/></g><g><path fill="none" stroke="#000000" stroke-width="2" stroke-linecap="round" stroke-linejoin="round" stroke-miterlimit="10" d="M25.3,35.6c0,0,2-0.8,2-2c0-3.1-7.9-3.6-7.9-9.5c0-2.6,2.7-4.1,2.7-4.1"/><path fill="none" stroke="#000000" stroke-width="2" stroke-linecap="round" stroke-linejoin="round" stroke-miterlimit="10" d="M25,21.3c0,0-2.4,1.3-2.4,3.1c0,2.9,7.9,4.9,7.9,9c0,2.8-2.6,4.1-2.6,4.1"/></g><g><path fill="none" stroke="#000000" stroke-width="2" stroke-linecap="round" stroke-linejoin="round" stroke-miterlimit="10" d="M24.9,43.9C29,36.9,20,39.5,20,33.4c0-2.3,2.6-4.1,2.6-4.1"/><path fill="none" stroke="#000000" stroke-width="2" stroke-linecap="round" stroke-linejoin="round" stroke-miterlimit="10" d="M25.3,31c0,0-2,1.7-2,2.7c0,2,5.7,2,5.7,7.3c0,2.1-2.1,4.7-2.1,4.7"/></g><g><path fill="none" stroke="#000000" stroke-width="2" stroke-linecap="round" stroke-linejoin="round" stroke-miterlimit="10" d="M25.7,18.1c2.3-0.2,4.2-2.3,4.2-3.2c-0.8,0.1-3.1,0.1-3.1-1.3c0-0.6,0.6-1.5,2.3-1.5c1.6,0,3.3,1.2,3.3,3.1c0,3-1.9,3.7-3.5,4.6"/></g><path fill="none" stroke="#000000" stroke-width="2" stroke-linecap="round" stroke-linejoin="round" stroke-miterlimit="10" d="M24.1,41.6"/><path fill="none" stroke="#000000" stroke-width="2" stroke-linecap="round" stroke-linejoin="round" stroke-miterlimit="10" d="M22.3,37.5c0,0-1.3,1.1-1.3,3.1c0,3.7,8.9,3.9,5.5,7.9"/><path fill="none" stroke="#000000" stroke-width="2" stroke-linecap="round" stroke-linejoin="round" stroke-miterlimit="10" d="M23.6,48.5c0,0-3.1-1.5-0.2-4.6"/><path fill="none" stroke="#000000" stroke-width="2" stroke-linecap="round" stroke-linejoin="round" stroke-miterlimit="10" d="M27,8c0,0,3.8,0.1,4.7-1c0-0.3-0.7-0.9-0.7-2.9C31,2.8,32.3,1,34,1c6.3,0,8.7,7.5,15,6.9c-0.2,0.7-1.3,3.1-4.9,3c-0.3,0.8-2.1,1.2-3.3,0.8c-0.3,0.3-1.9,0.9-3,0.4c-0.6,0.5-1.7,0.4-2.4,0c-0.3,0.7-1.7,3.2-3.1,3.3"/><path fill="none" stroke="#000000" stroke-width="2" stroke-linecap="round" stroke-linejoin="round" stroke-miterlimit="10" d="M23,8c0,0-3.8,0.1-4.7-1c0-0.3,0.7-0.9,0.7-2.9C19,2.8,17.7,1,16,1C9.7,1,7.3,8.5,1,7.9c0.2,0.7,1.3,3.1,4.9,3C6.1,11.6,8,12,9.1,11.7c0.3,0.3,1.9,0.9,3,0.4c0.6,0.5,1.7,0.4,2.4,0c0.3,0.7,1.7,3.2,3.1,3.3"/></svg>