<?xml version="1.0" encoding="utf-8"?><!-- Generator: Adobe Illustrator 15.0.0, SVG Export Plug-In . SVG Version: 6.00 Build 0)  --><!DOCTYPE svg PUBLIC "-//W3C//DTD SVG 1.1//EN" "http://www.w3.org/Graphics/SVG/1.1/DTD/svg11.dtd"><svg xmlns="http://www.w3.org/2000/svg" xmlns:xlink="http://www.w3.org/1999/xlink" viewBox="0 0 50 50" width="500px" height="500px"><path d="M44.912,5.087C42.274,2.452,38.769,1,35.041,1c-3.727,0-7.231,1.452-9.872,4.089C24.375,5.886,5.92,24.339,5.085,25.172c-5.438,5.441-5.438,14.297,0.002,19.74C7.725,47.548,11.23,49,14.959,49c3.727,0,7.232-1.451,9.872-4.089c0.677-0.68,19.239-19.242,20.083-20.084C50.354,19.387,50.353,10.532,44.912,5.087z M43.501,23.412c-0.37,0.369-4.152,4.151-8.339,8.336L18.251,14.837c4.196-4.196,7.984-7.984,8.333-8.335C28.846,4.244,31.849,3,35.041,3c3.194,0,6.197,1.244,8.457,3.502C48.158,11.166,48.159,18.752,43.501,23.412z"/></svg>