<svg xmlns="http://www.w3.org/2000/svg"  viewBox="0 0 128 128" width="64px" height="64px"><path d="M85.33 102c-.12 0-.25-.01-.37-.02-1.64-.2-2.81-1.7-2.61-3.34 1.84-14.94-.04-26.84-5.16-32.63-2.38-2.69-5.38-4-9.18-4-3 0-5.88.87-8.94 1.79-3.19.96-6.49 1.95-10.06 1.95s-6.87-.99-10.06-1.95C35.88 62.87 33 62 30 62c-3.8 0-6.8 1.31-9.18 4-5.12 5.8-7.01 17.69-5.16 32.63.2 1.64-.97 3.14-2.61 3.34-1.65.2-3.14-.97-3.35-2.61-1.21-9.78-1.95-27.64 6.62-37.34C19.86 58.03 24.46 56 30 56c3.88 0 7.33 1.04 10.66 2.04 2.9.87 5.65 1.7 8.34 1.7s5.43-.83 8.34-1.7C60.67 57.04 64.12 56 68 56c5.54 0 10.14 2.03 13.68 6.02 8.57 9.7 7.83 27.56 6.62 37.34C88.11 100.89 86.82 102 85.33 102zM49 126.14c-11.06 0-22.11-3.22-31.55-9.66-1.96-1.34-4.62-1.08-6.31.61l-5.02 5.02c-1.17 1.17-3.07 1.17-4.24 0-1.17-1.17-1.17-3.07 0-4.24l5.02-5.02c3.73-3.73 9.59-4.29 13.93-1.33 16.85 11.49 39.49 11.49 56.34 0 4.34-2.96 10.2-2.4 13.93 1.33l5.02 5.02c1.17 1.17 1.17 3.07 0 4.24-1.17 1.17-3.07 1.17-4.24 0l-5.02-5.02c-1.69-1.69-4.35-1.95-6.31-.62C71.12 122.92 60.06 126.14 49 126.14zM99.32 23.84l-7.21 12c-.85 1.42-.39 3.26 1.03 4.12 1.42.85 3.26.39 4.12-1.03l7.21-12c.85-1.42.39-3.26-1.03-4.12C102.01 21.96 100.17 22.42 99.32 23.84zM73.2 15.63c-1.66 0-3 1.34-3 3l0 12c0 1.09.58 2.05 1.46 2.57.45.27.98.43 1.54.43 1.66 0 3-1.34 3-3l0-12C76.2 16.97 74.86 15.63 73.2 15.63zM108.08 54.58c.26.5.65.89 1.1 1.16.87.52 1.99.59 2.96.08l10.6-5.63c1.46-.78 2.02-2.59 1.24-4.06-.78-1.46-2.59-2.02-4.06-1.24l-10.6 5.63C107.86 51.3 107.3 53.12 108.08 54.58z"/></svg>