<svg xmlns="http://www.w3.org/2000/svg"  viewBox="0 0 128 128" width="64px" height="64px"><path d="M 14 1 C 6.8 1 1 6.8 1 14 L 1 114 C 1 121.2 6.8 127 14 127 L 74 127 C 81.2 127 87 121.2 87 114 L 87 77.5 C 87 75.8 85.7 74.5 84 74.5 C 82.3 74.5 81 75.8 81 77.5 L 81 114 C 81 117.9 77.9 121 74 121 L 14 121 C 10.1 121 7 117.9 7 114 L 7 14 C 7 10.1 10.1 7 14 7 L 54 7 C 55.7 7 57 5.7 57 4 C 57 2.3 55.7 1 54 1 L 14 1 z M 94 1 C 92.3 1 91 2.3 91 4 L 91 10.199219 C 86.6 10.699219 82.600781 12.499609 79.300781 15.099609 L 74.900391 10.699219 C 73.700391 9.4992188 71.799219 9.4992188 70.699219 10.699219 C 69.499219 11.899219 69.499219 13.800391 70.699219 14.900391 L 75.099609 19.300781 C 72.499609 22.600781 70.799219 26.6 70.199219 31 L 64 31 C 62.3 31 61 32.3 61 34 C 61 35.7 62.3 37 64 37 L 70.199219 37 C 70.699219 41.4 72.499609 45.399219 75.099609 48.699219 L 70.699219 53.099609 C 69.499219 54.299609 69.499219 56.200781 70.699219 57.300781 C 71.299219 57.900781 72.100781 58.199219 72.800781 58.199219 C 73.500781 58.199219 74.300391 57.900781 74.900391 57.300781 L 79.300781 52.900391 C 82.600781 55.500391 86.6 57.200781 91 57.800781 L 91 64 C 91 65.7 92.3 67 94 67 C 95.7 67 97 65.7 97 64 L 97 57.800781 C 101.4 57.300781 105.39922 55.500391 108.69922 52.900391 L 113.09961 57.300781 C 113.69961 57.900781 114.49922 58.199219 115.19922 58.199219 C 115.89922 58.199219 116.70078 57.900781 117.30078 57.300781 C 118.50078 56.100781 118.50078 54.199609 117.30078 53.099609 L 112.90039 48.699219 C 115.50039 45.399219 117.20078 41.4 117.80078 37 L 124 37 C 125.7 37 127 35.7 127 34 C 127 32.3 125.7 31 124 31 L 117.80078 31 C 117.30078 26.6 115.50039 22.600781 112.90039 19.300781 L 117.30078 14.900391 C 118.50078 13.700391 118.50078 11.799219 117.30078 10.699219 C 116.10078 9.4992188 114.19961 9.4992188 113.09961 10.699219 L 108.69922 15.099609 C 105.39922 12.499609 101.4 10.799219 97 10.199219 L 97 4 C 97 2.3 95.7 1 94 1 z M 100 24 C 102.2 24 104 25.8 104 28 C 104 30.2 102.2 32 100 32 C 97.8 32 96 30.2 96 28 C 96 25.8 97.8 24 100 24 z M 88 36 C 90.2 36 92 37.8 92 40 C 92 42.2 90.2 44 88 44 C 85.8 44 84 42.2 84 40 C 84 37.8 85.8 36 88 36 z M 34 109 C 32.3 109 31 110.3 31 112 C 31 113.7 32.3 115 34 115 L 54 115 C 55.7 115 57 113.7 57 112 C 57 110.3 55.7 109 54 109 L 34 109 z"/></svg>