<?xml version="1.0" encoding="iso-8859-1"?><!-- Generator: Adobe Illustrator 21.1.0, SVG Export Plug-In . SVG Version: 6.00 Build 0)  --><svg xmlns="http://www.w3.org/2000/svg" xmlns:xlink="http://www.w3.org/1999/xlink" viewBox="0 0 50 50" width="50px" height="50px"><line style="fill:none;stroke:#000000;stroke-width:2;stroke-linecap:round;stroke-linejoin:round;stroke-miterlimit:10;" x1="3.165" y1="25" x2="20" y2="25"/><circle cx="19" cy="43" r="1"/><circle cx="4" cy="28" r="1"/><circle cx="4" cy="34" r="1"/><circle cx="7" cy="43" r="1"/><circle cx="16" cy="34" r="1"/><circle cx="16" cy="28" r="1"/><circle cx="16" cy="40" r="1"/><circle cx="10" cy="28" r="1"/><circle cx="10" cy="34" r="1"/><circle cx="13" cy="31" r="1"/><circle cx="7" cy="31" r="1"/><circle cx="10" cy="40" r="1"/><circle cx="13" cy="37" r="1"/><circle cx="19" cy="37" r="1"/><circle cx="13" cy="43" r="1"/><circle cx="7" cy="37" r="1"/><path style="fill:none;stroke:#000000;stroke-width:2;stroke-miterlimit:10;" d="M23,22c-0.002-0.744-0.002-7.034,0-7.957C22.999,8.495,18.522,4.002,13,4C7.477,4.002,3.001,8.495,3,14.043c0.002,0.924,0.002,21.168,0,21.912c0.001,2.773,1.12,5.285,2.929,7.102S10.239,45.999,13,46c3.958,0,7.38-2.3,9-5.636"/><circle style="fill:none;stroke:#000000;stroke-width:2;stroke-miterlimit:10;" cx="33" cy="32" r="14"/><line style="fill:none;stroke:#000000;stroke-width:2;stroke-linecap:round;stroke-miterlimit:10;" x1="40.071" y1="24.929" x2="25.929" y2="39.071"/></svg>