<?xml version="1.0" encoding="iso-8859-1"?>
<!-- Generator: Adobe Illustrator 26.4.1, SVG Export Plug-In . SVG Version: 6.00 Build 0)  -->
<svg version="1.1" baseProfile="basic" id="Layer_1"
	 xmlns="http://www.w3.org/2000/svg" xmlns:xlink="http://www.w3.org/1999/xlink" x="0px" y="0px" viewBox="0 0 50 50"
	 xml:space="preserve">
<g>
	<g>
		<polygon points="31,31 27,31 27,27 23,27 23,31 19,31 19,35 23,35 23,39 27,39 27,35 31,35 		"/>
	</g>
	<g>
		<path d="M27,40h-4c-0.552,0-1-0.447-1-1v-3h-3c-0.552,0-1-0.447-1-1v-4c0-0.553,0.448-1,1-1h3v-3c0-0.553,0.448-1,1-1h4
			c0.552,0,1,0.447,1,1v3h3c0.552,0,1,0.447,1,1v4c0,0.553-0.448,1-1,1h-3v3C28,39.553,27.552,40,27,40z M24,38h2v-3
			c0-0.553,0.448-1,1-1h3v-2h-3c-0.552,0-1-0.447-1-1v-3h-2v3c0,0.553-0.448,1-1,1h-3v2h3c0.552,0,1,0.447,1,1V38z"/>
	</g>
</g>
<g>
	<g>
		<path d="M14,7h2h2V4c0-0.553,0.448-1,1-1s1,0.447,1,1v3h4V4c0-0.553,0.448-1,1-1s1,0.447,1,1v3h4V4c0-0.553,0.448-1,1-1
			s1,0.447,1,1v3h2h2c0.552,0,1-0.447,1-1V1c0-0.553-0.448-1-1-1H14c-0.552,0-1,0.447-1,1v5C13,6.553,13.448,7,14,7z"/>
	</g>
	<g>
		<path d="M36.471,15.065C35.508,13.527,35,11.754,35,9.938V9H15v0.938c0,1.815-0.508,3.589-1.471,5.127l-1.841,2.946
			C10.583,19.779,10,21.814,10,23.898v21.575C10,47.97,12.031,50,14.526,50h20.947C37.969,50,40,47.97,40,45.474V23.898
			c0-2.084-0.583-4.119-1.688-5.887L36.471,15.065z M38,42H12V24h26V42z"/>
	</g>
</g>
</svg>