<svg xmlns="http://www.w3.org/2000/svg"  viewBox="0 0 128 128" width="64px" height="64px"><path d="M 77 1 C 49.4 1 27 23.4 27 51 C 27 63.7 31.799609 75.299609 39.599609 84.099609 L 2 121.69922 C 0.8 122.89922 0.8 124.80039 2 125.90039 C 2.6 126.50039 3.3996094 126.80078 4.0996094 126.80078 C 4.7996094 126.80078 5.5992188 126.50039 6.1992188 125.90039 L 43.800781 88.300781 C 52.700781 96.200781 64.3 101 77 101 C 104.6 101 127 78.6 127 51 C 127 23.4 104.6 1 77 1 z M 77 7 C 101.3 7 121 26.7 121 51 C 121 75.3 101.3 95 77 95 C 52.7 95 33 75.3 33 51 C 33 26.7 52.7 7 77 7 z M 84 21 C 82.3 21 81 22.3 81 24 L 81 30.300781 C 78.3 30.800781 75.799609 31.800391 73.599609 33.400391 L 68.900391 28.699219 C 67.700391 27.499219 65.799219 27.499219 64.699219 28.699219 C 63.499219 29.899219 63.499219 31.800391 64.699219 32.900391 L 69.400391 37.599609 C 67.900391 39.799609 66.800781 42.3 66.300781 45 L 60 45 C 58.3 45 57 46.3 57 48 C 57 49.7 58.3 51 60 51 L 66.300781 51 C 66.800781 53.7 67.800391 56.200391 69.400391 58.400391 L 64.699219 63.099609 C 63.499219 64.299609 63.499219 66.200781 64.699219 67.300781 C 65.299219 67.900781 66.100781 68.199219 66.800781 68.199219 C 67.500781 68.199219 68.300391 67.900781 68.900391 67.300781 L 73.599609 62.599609 C 75.799609 64.099609 78.3 65.199219 81 65.699219 L 81 72 C 81 73.7 82.3 75 84 75 C 85.7 75 87 73.7 87 72 L 87 65.699219 C 89.7 65.199219 92.200391 64.199609 94.400391 62.599609 L 99.099609 67.300781 C 99.699609 67.900781 100.49922 68.199219 101.19922 68.199219 C 101.89922 68.199219 102.70078 67.900781 103.30078 67.300781 C 104.50078 66.100781 104.50078 64.199609 103.30078 63.099609 L 98.599609 58.400391 C 100.09961 56.200391 101.19922 53.7 101.69922 51 L 108 51 C 109.7 51 111 49.7 111 48 C 111 46.3 109.7 45 108 45 L 101.69922 45 C 101.19922 42.3 100.19961 39.799609 98.599609 37.599609 L 103.30078 32.900391 C 104.50078 31.700391 104.50078 29.799219 103.30078 28.699219 C 102.10078 27.499219 100.19961 27.499219 99.099609 28.699219 L 94.400391 33.400391 C 92.200391 31.900391 89.7 30.800781 87 30.300781 L 87 24 C 87 22.3 85.7 21 84 21 z M 84 36 C 90.6 36 96 41.4 96 48 C 96 54.6 90.6 60 84 60 C 77.4 60 72 54.6 72 48 C 72 41.4 77.4 36 84 36 z M 87 47 A 4 4 0 0 0 87 55 A 4 4 0 0 0 87 47 z"/></svg>