<svg xmlns="http://www.w3.org/2000/svg"  viewBox="0 0 128 128" width="64px" height="64px"><path d="M120 76H71.2c-1.6 0-3.1-1.2-3.2-2.8-.1-1.7 1.3-3.2 3-3.2l37.2 0c3.6 0 6.7-2.7 6.8-6.3.1-3.7-2.8-6.7-6.5-6.7h-61c-.9 0-1.3-1-.7-1.7L64.2 36c2.7-2.9 2.5-7.5-.4-10.2l-.1-.1c-2.5-2.4-6.4-2.7-9.2-.7L2.3 61.5C1.4 62.1 1 63.1 1 64v50c0 1.1.6 2.1 1.6 2.6C3.3 117.1 21.8 127 44 127l45.2 0c3.6 0 6.7-2.7 6.8-6.3.1-3.7-2.8-6.7-6.5-6.7H66.2c-1.6 0-3.1-1.2-3.2-2.8-.1-1.7 1.3-3.2 3-3.2l42.7 0c3.3 0 6.2-2.5 6.2-5.8.1-3.4-2.6-6.2-6-6.2l-36.8 0c-1.6 0-3.1-1.2-3.2-2.8-.1-1.7 1.3-3.2 3-3.2l47.7 0c3.8 0 7.2-3 7.3-6.8C127.1 79.3 123.9 76 120 76zM73.3 22.6c2.1-1 4.3-1.6 6.7-1.6 8.3 0 15 6.7 15 15 0 1.7-.3 3.4-.9 5.1-.3.9-.2 1.8.3 2.6.5.8 1.3 1.3 2.2 1.4 3.8.4 7.3 2.2 9.8 5.2.6.7 1.4 1.1 2.3 1.1.7 0 1.4-.2 1.9-.7 1.3-1.1 1.4-3 .3-4.2-2.7-3.2-6.3-5.5-10.3-6.6.2-1.2.3-2.5.3-3.8 0-11.6-9.4-21-21-21-3.3 0-6.4.7-9.3 2.2-1.5.7-2.1 2.5-1.4 4C70 22.7 71.8 23.3 73.3 22.6zM12.7 45c1.7 0 3-1.3 3-3 0-8.3 6.7-15 15-15 2.3 0 4.6.5 6.7 1.6 1.5.7 3.3.1 4-1.4.7-1.5.1-3.3-1.4-4C37.1 21.7 34 21 30.7 21c-11.6 0-21 9.4-21 21C9.7 43.7 11 45 12.7 45zM116 23c6.1 0 11-4.9 11-11s-4.9-11-11-11-11 4.9-11 11S109.9 23 116 23zM116 7c2.8 0 5 2.2 5 5s-2.2 5-5 5-5-2.2-5-5S113.2 7 116 7z"/></svg>