<?xml version="1.0" encoding="iso-8859-1"?><!-- Generator: Adobe Illustrator 22.1.0, SVG Export Plug-In . SVG Version: 6.00 Build 0)  --><svg xmlns="http://www.w3.org/2000/svg" xmlns:xlink="http://www.w3.org/1999/xlink" viewBox="0 0 30 30" width="480px" height="480px"><path style="fill:none;stroke:#000000;stroke-width:2;stroke-linecap:round;stroke-linejoin:round;stroke-miterlimit:10;" d="M12.5,19c1.381,0,2.5,1.119,2.5,2.5"/><path style="fill:none;stroke:#000000;stroke-width:2;stroke-linecap:round;stroke-linejoin:round;stroke-miterlimit:10;" d="M15,8.5c0,1.933-1.567,3.5-3.5,3.5"/><path style="fill:none;stroke:#000000;stroke-width:2;stroke-linecap:round;stroke-linejoin:round;stroke-miterlimit:10;" d="M15,8.5c0,1.933,1.567,3.5,3.5,3.5"/><path style="fill:none;stroke:#000000;stroke-width:2;stroke-linecap:round;stroke-linejoin:round;stroke-miterlimit:10;" d="M19.389,18.03C20.09,18.635,21.002,19,22,19c2.209,0,4-1.791,4-4"/><path d="M27,15c0-1.695-0.844-3.234-2.216-4.149C24.927,10.412,25,9.956,25,9.5c0-2.428-1.933-4.413-4.34-4.497C20.094,3.803,18.879,3,17.5,3c-0.979,0-1.864,0.403-2.5,1.053C14.364,3.403,13.479,3,12.5,3c-1.379,0-2.594,0.803-3.16,2.003C6.933,5.087,5,7.072,5,9.5c0,0.456,0.073,0.912,0.216,1.351C3.844,11.766,3,13.305,3,15s0.844,3.234,2.216,4.149C5.073,19.588,5,20.044,5,20.5c0,2.428,1.933,4.413,4.34,4.497C9.906,26.197,11.121,27,12.5,27c0.979,0,1.864-0.403,2.5-1.053C15.636,26.597,16.521,27,17.5,27c1.379,0,2.594-0.803,3.16-2.003C23.067,24.913,25,22.928,25,20.5c0-0.456-0.073-0.912-0.216-1.351C26.156,18.234,27,16.695,27,15z M12.5,25c-0.724,0-1.342-0.519-1.471-1.232c-0.098-0.534-0.595-0.892-1.139-0.811C9.763,22.977,9.634,23,9.5,23C8.121,23,7,21.878,7,20.5c0-0.443,0.123-0.874,0.366-1.28c0.15-0.251,0.184-0.555,0.091-0.833c-0.094-0.277-0.303-0.5-0.574-0.609C5.739,17.318,5,16.227,5,15s0.739-2.318,1.883-2.778c0.271-0.109,0.48-0.332,0.574-0.609c0.093-0.277,0.06-0.582-0.091-0.833C7.123,10.374,7,9.943,7,9.5C7,8.122,8.121,7,9.5,7c0.134,0,0.263,0.023,0.391,0.043c0.543,0.082,1.041-0.277,1.139-0.811C11.158,5.519,11.776,5,12.5,5C13.327,5,14,5.673,14,6.5v17C14,24.327,13.327,25,12.5,25z M23.117,17.778c-0.271,0.109-0.48,0.332-0.574,0.609c-0.093,0.277-0.06,0.582,0.091,0.833C22.877,19.626,23,20.057,23,20.5c0,1.378-1.121,2.5-2.5,2.5c-0.134,0-0.263-0.023-0.391-0.043c-0.551-0.082-1.042,0.277-1.139,0.811C18.842,24.481,18.224,25,17.5,25c-0.827,0-1.5-0.673-1.5-1.5v-17C16,5.673,16.673,5,17.5,5c0.724,0,1.342,0.519,1.471,1.232c0.097,0.534,0.589,0.893,1.139,0.811C20.237,7.023,20.366,7,20.5,7C21.879,7,23,8.122,23,9.5c0,0.443-0.123,0.874-0.366,1.28c-0.15,0.251-0.184,0.555-0.091,0.833c0.094,0.277,0.303,0.5,0.574,0.609C24.261,12.682,25,13.773,25,15S24.261,17.318,23.117,17.778z"/></svg>