<svg xmlns="http://www.w3.org/2000/svg"  viewBox="0 0 128 128" width="64px" height="64px"><path d="M58.26 126.94c-.72 0-1.45-.08-2.19-.24-4.21-.93-7.22-4.3-7.65-8.58C47.81 112.15 45.97 94 41 94s-6.81 18.15-7.42 24.11c-.44 4.29-3.44 7.66-7.65 8.58-4.2.92-8.34-.87-10.53-4.57C8.95 111.22 4.07 96.84 2.01 82.68c-2.2-15.15-.89-27.92 3.69-35.96C9.33 40.36 14.96 37 22 37c3.88 0 7.33 1.04 10.66 2.04 2.9.87 5.65 1.7 8.34 1.7 2.69 0 5.43-.83 8.33-1.7l.34-.1c1.59-.48 3.26.42 3.74 2.01.48 1.59-.42 3.26-2.01 3.74l-.34.1c-3.19.96-6.49 1.95-10.06 1.95-3.57 0-6.87-.99-10.06-1.95C27.88 43.87 25 43 22 43c-4.89 0-8.52 2.19-11.09 6.69-7.92 13.88-3.23 47.59 9.65 69.38 1.29 2.19 3.45 1.91 4.08 1.77 1.3-.29 2.77-1.31 2.97-3.33C28.8 105.76 30.6 88 41 88s12.2 17.76 13.39 29.51c.2 2.02 1.67 3.04 2.97 3.33.63.14 2.78.42 4.08-1.77C68.57 107.01 73.69 90.12 74.8 75c.12-1.65 1.56-2.9 3.21-2.77 1.65.12 2.89 1.56 2.77 3.21-1.18 15.98-6.61 33.87-14.18 46.68C64.79 125.18 61.66 126.94 58.26 126.94zM94.4 55.51c-1.91 0-3.82-.61-5.42-1.82-6.22-4.72-17.29-13.34-21.42-17.99-7.6-8.43-7.55-21.05.12-28.71C71.53 3.12 76.66 1 82.1 1c4.5 0 8.77 1.45 12.3 4.13C97.93 2.45 102.2 1 106.7 1c5.44 0 10.57 2.12 14.42 5.98h0c0 0 0 0 0 0 7.8 7.8 7.85 20.15.11 28.73-4.12 4.63-15.18 13.25-21.41 17.98C98.22 54.9 96.31 55.51 94.4 55.51zM82.1 7c-3.84 0-7.46 1.5-10.18 4.22-5.5 5.5-5.45 14.3.11 20.47 2.78 3.13 10.28 9.4 20.58 17.22 1.04.79 2.54.79 3.57 0 10.31-7.82 17.81-14.09 20.58-17.21 5.58-6.18 5.63-14.98.12-20.49 0 0 0 0 0 0C114.16 8.5 110.54 7 106.7 7s-7.46 1.5-10.18 4.22c-.56.56-1.33.88-2.12.88l0 0c-.8 0-1.56-.32-2.12-.88C89.56 8.5 85.94 7 82.1 7z"/></svg>