<svg xmlns="http://www.w3.org/2000/svg"  viewBox="0 0 128 128" width="64px" height="64px"><path d="M 56 1 C 54.3 1 53 2.3 53 4 C 53 5.7 54.3 7 56 7 L 61 7 L 61 19.099609 C 50.8 19.799609 41.600391 23.799609 34.400391 30.099609 L 25.800781 21.5 L 29.300781 18 C 30.500781 16.8 30.500781 14.900781 29.300781 13.800781 C 28.100781 12.600781 26.199609 12.600781 25.099609 13.800781 L 13.800781 25.099609 C 12.600781 26.299609 12.600781 28.200781 13.800781 29.300781 C 14.400781 29.900781 15.200391 30.199219 15.900391 30.199219 C 16.600391 30.199219 17.4 29.900781 18 29.300781 L 21.5 25.800781 L 30.099609 34.400391 C 23.799609 41.600391 19.699609 50.9 19.099609 61 L 7 61 L 7 56 C 7 54.3 5.7 53 4 53 C 2.3 53 1 54.3 1 56 L 1 72 C 1 73.7 2.3 75 4 75 C 5.7 75 7 73.7 7 72 L 7 67 L 19.099609 67 C 19.799609 77.2 23.799609 86.399609 30.099609 93.599609 L 21.5 102.19922 L 18 98.599609 C 16.8 97.399609 14.900781 97.399609 13.800781 98.599609 C 12.600781 99.799609 12.600781 101.70078 13.800781 102.80078 L 25.099609 114.09961 C 25.699609 114.69961 26.499219 115 27.199219 115 C 27.899219 115 28.700781 114.69961 29.300781 114.09961 C 30.500781 112.89961 30.500781 111.00039 29.300781 109.90039 L 25.800781 106.40039 L 34.400391 97.800781 C 41.600391 104.10078 50.9 108.20078 61 108.80078 L 61 121 L 56 121 C 54.3 121 53 122.3 53 124 C 53 125.7 54.3 127 56 127 L 72 127 C 73.7 127 75 125.7 75 124 C 75 122.3 73.7 121 72 121 L 67 121 L 67 108.90039 C 67.8 108.80039 68.600391 108.79922 69.400391 108.69922 C 73.900391 119.39922 84.6 127 97 127 C 113.5 127 127 113.5 127 97 C 127 84.6 119.39922 73.900391 108.69922 69.400391 C 108.79922 68.600391 108.90039 67.8 108.90039 67 L 121 67 L 121 72 C 121 73.7 122.3 75 124 75 C 125.7 75 127 73.7 127 72 L 127 56 C 127 54.3 125.7 53 124 53 C 122.3 53 121 54.3 121 56 L 121 61 L 108.90039 61 C 108.20039 50.8 104.20039 41.600391 97.900391 34.400391 L 106.5 25.800781 L 110 29.300781 C 110.6 29.900781 111.39961 30.199219 112.09961 30.199219 C 112.79961 30.199219 113.59922 29.900781 114.19922 29.300781 C 115.39922 28.100781 115.39922 26.199609 114.19922 25.099609 L 102.90039 13.800781 C 101.70039 12.600781 99.799219 12.600781 98.699219 13.800781 C 97.499219 15.000781 97.499219 16.9 98.699219 18 L 102.19922 21.5 L 93.599609 30.099609 C 86.399609 23.799609 77.1 19.699609 67 19.099609 L 67 7 L 72 7 C 73.7 7 75 5.7 75 4 C 75 2.3 73.7 1 72 1 L 56 1 z M 69 36 C 73.4 36 77 39.6 77 44 C 77 48.4 73.4 52 69 52 C 64.6 52 61 48.4 61 44 C 61 39.6 64.6 36 69 36 z M 44 61 C 48.4 61 52 64.6 52 69 C 52 73.4 48.4 77 44 77 C 39.6 77 36 73.4 36 69 C 36 64.6 39.6 61 44 61 z M 97 73 C 110.2 73 121 83.8 121 97 C 121 110.2 110.2 121 97 121 C 83.8 121 73 110.2 73 97 C 73 83.8 83.8 73 97 73 z M 108.96289 88 C 108.20039 88 107.45039 88.300391 106.90039 88.900391 L 96 99.800781 L 91.099609 94.900391 C 89.899609 93.700391 88.000391 93.700391 86.900391 94.900391 C 85.700391 96.100391 85.700391 97.999609 86.900391 99.099609 L 93.900391 106.09961 C 94.500391 106.69961 95.3 107 96 107 C 96.7 107 97.499609 106.69961 98.099609 106.09961 L 111.09961 93.099609 C 112.29961 91.899609 112.29961 90.000391 111.09961 88.900391 C 110.49961 88.300391 109.72539 88 108.96289 88 z"/></svg>