<?xml version="1.0" encoding="iso-8859-1"?><!-- Generator: Adobe Illustrator 23.0.3, SVG Export Plug-In . SVG Version: 6.00 Build 0)  --><svg xmlns="http://www.w3.org/2000/svg" xmlns:xlink="http://www.w3.org/1999/xlink" viewBox="0 0 50 50" width="50px" height="50px"><line style="fill:none;stroke:#000000;stroke-width:2;stroke-miterlimit:10;" x1="21" y1="3" x2="21" y2="10.588"/><line style="fill:none;stroke:#000000;stroke-width:2;stroke-miterlimit:10;" x1="18" y1="20" x2="5" y2="20"/><path style="fill:none;stroke:#000000;stroke-width:2;stroke-miterlimit:10;" d="M19,37H6c-1.105,0-2-0.895-2-2V5c0-1.105,0.895-2,2-2h30c1.105,0,2,0.895,2,2v4.128"/><path style="fill:none;stroke:#000000;stroke-width:2;stroke-miterlimit:10;" d="M42.325,24L46,15.34c0,0-3.804-8-15.028-8c-9.465,0-14.688,7.913-14.688,7.913L20.106,24"/><path style="fill:none;stroke:#000000;stroke-width:2;stroke-miterlimit:10;" d="M31,17c-6.627,0-12,5.373-12,12c0,0.436,0,14,0,14c0,2.209,1.791,4,4,4s4-1.791,4-4v-2.697C28.253,40.746,29.595,41,31,41c6.627,0,12-5.373,12-12C43,22.373,37.627,17,31,17z"/><g><line style="fill:none;stroke:#000000;stroke-width:2;stroke-linecap:round;" x1="30.995" y1="11" x2="30.995" y2="14"/><line style="fill:none;stroke:#000000;stroke-width:2;stroke-linecap:round;" x1="32.495" y1="12.5" x2="29.495" y2="12.5"/></g><g><path d="M25.88,32.442c-0.49-0.044-0.913-0.154-1.293-0.316c0.086,1.415,1.25,2.539,2.686,2.539c0.809,0,1.525-0.363,2.018-0.927C28.578,33.038,27.62,32.597,25.88,32.442z"/><path d="M36.483,26.604c-0.019,0.068-0.029,0.142-0.029,0.208c0,0.645-0.57,1.207-1.694,1.671c-0.063,0.026-0.127,0.038-0.191,0.038c-0.196,0-0.383-0.116-0.462-0.31c-0.105-0.255,0.017-0.547,0.271-0.652c0.894-0.369,1.076-0.684,1.076-0.747c0-0.454,0.137-0.812,0.409-1.063c0.11-0.102,0.235-0.171,0.365-0.227c-0.425-0.981-1.4-1.668-2.538-1.668c-0.642,0-1.221,0.233-1.69,0.601v0.616c0.395,0.26,1.006,0.329,1.226,0.33c0.275,0.001,0.499,0.225,0.5,0.5c0,0.275-0.223,0.499-0.498,0.5c-0.001,0-0.002,0-0.004,0c-0.098,0-0.652-0.014-1.224-0.217v0.015C32,26.64,31.64,27,31.197,27H30.5c-0.276,0-0.5-0.224-0.5-0.5s0.224-0.5,0.5-0.5H31v-2.068c-0.56-0.303-1.191-0.491-1.872-0.491c-1.907,0-3.469,1.345-3.868,3.131l0.995,0.409l0.29-0.599c0.121-0.248,0.418-0.354,0.668-0.232c0.249,0.12,0.353,0.42,0.232,0.668L26.95,27.84c-0.086,0.178-0.264,0.282-0.45,0.282c-0.032,0-0.064-0.013-0.097-0.019l-0.291,0.86c-0.071,0.209-0.265,0.34-0.474,0.34c-0.053,0-0.107-0.009-0.161-0.026c-0.261-0.089-0.401-0.373-0.313-0.634l0.306-0.902l-0.815-0.334c-0.523,0.518-0.853,1.229-0.853,2.023c0,0.416,0.094,0.808,0.254,1.165c0.524,0.483,1.098,0.779,1.911,0.852c2.143,0.191,3.3,0.801,4.166,1.728c0.024,0.018,0.042,0.042,0.066,0.058c0.131,0.114,0.271,0.224,0.422,0.325c1.293,0.862,2.81,0.859,3.388-0.009c0.187-0.28,0.241-0.619,0.199-0.975c-0.652-1.568-2.197-2.675-3.998-2.675c-0.501,0-0.993,0.086-1.462,0.255c-0.262,0.089-0.547-0.042-0.64-0.302s0.042-0.546,0.301-0.64c0.579-0.208,1.185-0.313,1.801-0.313c2.484,0,4.56,1.716,5.147,4.019c0.104,0.018,0.206,0.043,0.315,0.043c0.933,0,1.696-0.692,1.825-1.589c0.783-0.439,1.319-1.267,1.319-2.229C38.819,27.805,37.79,26.721,36.483,26.604z"/></g><path d="M30.221,35.794c0.206-0.069-0.086-0.601,0.337-1.06c-0.154-0.083-0.384-0.245-0.532-0.343c-0.002-0.002-0.005-0.003-0.008-0.005c-0.48,0.554-1.105,0.961-1.799,1.191c-0.146,0.048-0.248,0.178-0.247,0.332l0.006,1.34l0.468,0.016C28.697,36.44,29.391,36.072,30.221,35.794z"/><g><line style="fill:none;stroke:#000000;stroke-width:2;stroke-linecap:round;" x1="14.542" y1="26.458" x2="10.542" y2="30.458"/><line style="fill:none;stroke:#000000;stroke-width:2;stroke-linecap:round;" x1="10.542" y1="26.458" x2="14.542" y2="30.458"/></g><line style="fill:none;stroke:#000000;stroke-width:2;stroke-linecap:round;" x1="9.5" y1="12" x2="15.5" y2="12"/></svg>