<?xml version="1.0" encoding="iso-8859-1"?>
<!-- Generator: Adobe Illustrator 23.0.6, SVG Export Plug-In . SVG Version: 6.00 Build 0)  -->
<svg version="1.1" id="Filled" xmlns="http://www.w3.org/2000/svg" xmlns:xlink="http://www.w3.org/1999/xlink" x="0px" y="0px"
	 viewBox="0 0 50 50" style="enable-background:new 0 0 50 50;" xml:space="preserve">
<path d="M25,27c-5.5,0-10,4.5-10,10s4.5,10,10,10s10-4.5,10-10S30.5,27,25,27z M30,38h-4v4c0,0.552-0.448,1-1,1s-1-0.448-1-1v-4h-4
	c-0.552,0-1-0.448-1-1c0-0.552,0.448-1,1-1h4v-4c0-0.552,0.448-1,1-1s1,0.448,1,1v4h4c0.552,0,1,0.448,1,1
	C31,37.552,30.552,38,30,38z"/>
<path d="M46.4,10.7C46.2,10.6,42.5,9,37,9c-3,0-5.4,0.9-7.1,2.7c-2.9,3.1-2.7,7-2.7,7.3c-1.9,1.8-3.2,4.7-3.2,7.3V28
	c0,0.6,0.4,1,1,1s1-0.4,1-1v-1.7c0-7.1,12-12.6,12.4-12.7c0.5-0.2,1.1,0,1.3,0.5s0,1.1-0.5,1.3c-0.1,0-6.4,2.7-9.5,7.4
	c0.2,0.1,0.3,0.2,0.4,0.2s2,0.9,4.8,0.9C44.7,24,47,11.9,47,11.8C47.1,11.3,46.8,10.9,46.4,10.7z"/>
<path d="M24,17.8c1.5-3.2,1.4-7.1-0.4-10.1C21.7,4.7,18.3,3,14,3C8.5,3,3.9,4.6,3.7,4.7C3.2,4.8,2.9,5.3,3,5.8
	C3.1,6.4,5.5,21,16.2,21c2.2,0,3.7-0.4,3.7-0.4l0,0c0,0,0.4-0.1,0.9-0.3c-3-5.9-10.2-10.6-10.3-10.7C10,9.3,9.9,8.7,10.2,8.2
	s0.9-0.6,1.4-0.3c6.5,3.9,11,11.5,11,11.4c0.9,1.4,1.4,2.9,1.4,4.5V26c0,0.6,0.4,1,1,1s1-0.4,1-1v-2.1C26,21.7,25.2,19.7,24,17.8z"
	/>
</svg>