<svg xmlns="http://www.w3.org/2000/svg"  viewBox="0 0 50 50" width="50px" height="50px"><path d="M 46.214844 7.847656 C 38.8125 6.222656 34.441406 3.921875 31.25 2.242188 C 28.769531 0.941406 26.980469 0 25 0 C 23.019531 0 21.230469 0.941406 18.75 2.242188 C 15.558594 3.921875 11.1875 6.222656 3.785156 7.847656 L 3 8.019531 L 3 8.824219 C 3 39.285156 24.363281 49.503906 24.582031 49.601563 L 25.019531 49.804688 L 25.453125 49.585938 C 25.667969 49.476563 47 38.273438 47 8.824219 L 47 8.019531 Z M 24.417969 31.15625 L 16.585938 24.070313 L 17.929688 22.589844 L 24.015625 28.09375 L 32.699219 14.617188 L 34.382813 15.699219 Z"/></svg>