<svg xmlns="http://www.w3.org/2000/svg"  viewBox="0 0 128 128" width="64px" height="64px"><path d="M 68.199219 1 C 64.199219 0.9 61 4.1 61 8 L 61 56 C 61 57.7 59.600781 59.1 57.800781 59 C 56.200781 58.9 55 57.500781 55 55.800781 L 55 19.199219 C 55 15.899219 52.499219 13 49.199219 13 C 45.799219 12.9 43 15.6 43 19 L 43 62 C 43 63.7 41.600781 65.1 39.800781 65 C 38.200781 64.9 37 63.500781 37 61.800781 L 37 38.699219 C 37 35.099219 34.299219 32.000391 30.699219 31.900391 C 26.999219 31.900391 24 34.8 24 38.5 L 24 67.800781 C 10.8 71.000781 1 82.9 1 97 C 1 113.5 14.5 127 31 127 L 87 127 C 87.9 127 88.9 126.59922 89.5 125.69922 L 126 73.5 C 128 70.7 127.70078 66.800781 125.30078 64.300781 L 125.19922 64.099609 C 122.49922 61.199609 117.9 61.099219 115 63.699219 L 83 92.800781 C 81.7 93.900781 79.800781 93.7 78.800781 92.5 C 77.800781 91.3 77.899609 89.300781 79.099609 88.300781 L 93.699219 74.900391 C 93.899219 74.700391 94 74.399219 94 74.199219 L 94 19.5 C 94 15.9 91.1 13 87.5 13 C 83.9 13 81 15.9 81 19.5 L 81 57 C 81 58.7 79.600781 60.1 77.800781 60 C 76.200781 59.9 75 58.500781 75 56.800781 L 75 8.3007812 C 75 4.5007813 71.999219 1.1 68.199219 1 z M 31 73 C 44.2 73 55 83.8 55 97 C 55 110.2 44.2 121 31 121 C 17.8 121 7 110.2 7 97 C 7 83.8 17.8 73 31 73 z M 43 88 C 42.25 88 41.500391 88.300391 40.900391 88.900391 L 30 99.800781 L 25.099609 94.900391 C 23.899609 93.700391 22.000391 93.700391 20.900391 94.900391 C 19.700391 96.100391 19.700391 97.999609 20.900391 99.099609 L 27.900391 106.09961 C 28.500391 106.69961 29.3 107 30 107 C 30.7 107 31.499609 106.69961 32.099609 106.09961 L 45.099609 93.099609 C 46.299609 91.899609 46.299609 90.000391 45.099609 88.900391 C 44.499609 88.300391 43.75 88 43 88 z"/></svg>