<svg xmlns="http://www.w3.org/2000/svg"  viewBox="0 0 128 128" width="64px" height="64px"><path d="M99.04,27.27C95.41,21.21,89.86,18,83,18c-3.88,0-7.33,1.04-10.66,2.04c-2.9,0.87-5.65,1.7-8.34,1.7s-5.43-0.83-8.34-1.7	C52.33,19.04,48.88,18,45,18c-6.44,0-11.77,2.85-15.39,8.24c-7.12,10.6-8.59,35.31,1.99,62.64C29.4,90.89,28,93.78,28,97	c0,6.07,4.93,11,11,11s11-4.93,11-11s-4.93-11-11-11c-0.68,0-1.35,0.07-2,0.19c-8.24-21.79-9.37-46.23-2.41-56.6	C37.12,25.83,40.52,24,45,24c3,0,5.88,0.87,8.94,1.79c3.19,0.96,6.49,1.95,10.06,1.95s6.87-0.99,10.06-1.95C77.12,24.87,80,24,83,24	c4.77,0,8.33,2.08,10.89,6.36c7.86,13.14,4.17,44.43-7.9,66.96c-2.06,3.85-5.83,4.88-8.67,4.55c-2.88-0.33-6.36-2.2-7.53-6.48	c-1.62-5.95-2.54-12.22-2.75-18.66c6.81-1.21,12.32-6.53,16.06-15.59c3.02-7.31,3.85-14.51,3.88-14.81c0.18-1.65-1-3.13-2.65-3.31	c-1.64-0.19-3.13,1-3.31,2.65c-0.01,0.07-0.77,6.65-3.46,13.19C74.23,66.91,69.67,71,64,71c-13.99,0-16.99-25.08-17.02-25.33	c-0.19-1.65-1.67-2.83-3.31-2.65c-1.65,0.18-2.83,1.67-2.65,3.31c0.03,0.3,0.86,7.51,3.88,14.81c3.76,9.1,9.3,14.43,16.15,15.61	c0.21,6.97,1.2,13.76,2.96,20.22c1.63,6,6.48,10.16,12.64,10.86c0.59,0.07,1.18,0.1,1.76,0.1c5.41,0,10.24-2.88,12.87-7.78	C103,78.27,108.92,43.77,99.04,27.27z M44,97c0,2.76-2.24,5-5,5s-5-2.24-5-5s2.24-5,5-5S44,94.24,44,97z"/></svg>