<svg xmlns="http://www.w3.org/2000/svg"  viewBox="0 0 128 128" width="64px" height="64px"><path d="M 64 1 C 62.34 1 61 2.34 61 4 C 61 5.66 62.34 7 64 7 C 67.17 7 70.360938 7.2592969 73.460938 7.7792969 C 73.630938 7.8092969 73.790938 7.8203125 73.960938 7.8203125 C 75.400937 7.8203125 76.669922 6.7805469 76.919922 5.3105469 C 77.189922 3.6805469 76.089219 2.129375 74.449219 1.859375 C 71.019219 1.289375 67.5 1 64 1 z M 7.7890625 12 C 6.1290625 12 4.7890625 13.34 4.7890625 15 C 4.7890625 16.66 6.1290625 18 7.7890625 18 L 20.960938 18 C 8.2109375 29.88 1 46.3 1 64 C 1 98.74 29.26 127 64 127 C 65.66 127 67 125.66 67 124 C 67 122.34 65.66 121 64 121 C 32.57 121 7 95.43 7 64 C 7 47.56 13.88 32.349062 26 21.539062 L 26 36.220703 C 26 37.880703 27.34 39.220703 29 39.220703 C 30.66 39.220703 32 37.880703 32 36.220703 L 32 15 C 32 13.34 30.66 12 29 12 L 7.7890625 12 z M 101.88281 14.720703 C 101.11906 14.793203 100.38438 15.154063 99.859375 15.789062 C 98.809375 17.069063 98.989766 18.959766 100.25977 20.009766 C 113.43977 30.889766 121 46.93 121 64 C 121 80.46 114.12 95.660938 102 106.46094 L 102 91.789062 C 102 90.129063 100.66 88.789062 99 88.789062 C 97.34 88.789062 96 90.129063 96 91.789062 L 96 113 C 96 114.66 97.34 116 99 116 L 120.21094 116 C 121.87094 116 123.21094 114.66 123.21094 113 C 123.21094 111.34 121.87094 110 120.21094 110 L 107.01953 110 C 119.63953 98.16 127 81.44 127 64 C 127 45.13 118.64008 27.410625 104.08008 15.390625 C 103.44008 14.865625 102.64656 14.648203 101.88281 14.720703 z M 45 41 C 39.46 41 34.860312 43.029531 31.320312 47.019531 C 22.750312 56.719531 23.489219 74.579375 24.699219 84.359375 C 24.889219 85.879375 26.179922 86.990234 27.669922 86.990234 C 27.789922 86.990234 27.919062 86.980703 28.039062 86.970703 C 29.679063 86.770703 30.850391 85.269141 30.650391 83.619141 C 28.810391 68.689141 30.690312 56.79 35.820312 51 C 38.200313 48.31 41.2 47 45 47 C 48 47 50.879453 47.869062 53.939453 48.789062 C 57.129453 49.749063 60.43 50.740234 64 50.740234 C 67.57 50.740234 70.870547 49.749063 74.060547 48.789062 C 77.120547 47.869062 80 47 83 47 C 86.65 47 89.550625 48.199922 91.890625 50.669922 C 96.480625 55.539922 98.610625 65.099375 97.890625 77.609375 C 97.790625 79.259375 99.060938 80.679297 100.71094 80.779297 C 102.37094 80.879297 103.78086 79.610938 103.88086 77.960938 C 104.46086 67.940938 103.60023 54.350547 96.240234 46.560547 C 92.770234 42.870547 88.31 41 83 41 C 79.12 41 75.669844 42.039062 72.339844 43.039062 C 69.439844 43.909062 66.69 44.740234 64 44.740234 C 61.31 44.740234 58.570156 43.909062 55.660156 43.039062 C 52.330156 42.039062 48.88 41 45 41 z"/></svg>