<svg xmlns="http://www.w3.org/2000/svg"  viewBox="0 0 128 128" width="64px" height="64px"><path d="M 81.035156 1.0058594 C 69.275156 1.0058594 57.515547 5.4796875 48.560547 14.429688 C 35.190547 27.799687 31.319453 47.640703 38.689453 64.970703 C 45.859453 81.800703 57.330859 96.560391 71.880859 107.65039 C 74.470859 109.63039 77.700937 110.7207 80.960938 110.7207 C 84.300937 110.7207 87.590703 109.57977 90.220703 107.50977 L 91.439453 106.55078 C 105.21945 95.680781 116.17914 81.419062 123.11914 65.289062 L 123.2207 65.060547 C 130.7007 47.680547 126.88977 27.809688 113.50977 14.429688 C 104.55477 5.4796875 92.795156 1.0058594 81.035156 1.0058594 z M 81.037109 7.0019531 C 91.260859 7.0032031 101.48453 10.894687 109.26953 18.679688 C 120.89953 30.309688 124.21094 47.589219 117.71094 62.699219 L 117.60938 62.929688 C 111.06938 78.139687 100.73047 91.589844 87.730469 101.83984 L 86.509766 102.80078 C 84.939766 104.05078 82.960938 104.73047 80.960938 104.73047 C 78.980937 104.73047 77.099531 104.09063 75.519531 102.89062 C 61.799531 92.420625 50.970703 78.499141 44.220703 62.619141 C 37.810703 47.549141 41.180547 30.299922 52.810547 18.669922 C 60.590547 10.889922 70.813359 7.0007031 81.037109 7.0019531 z M 22 37 C 14.96 37 9.3292188 40.360703 5.6992188 46.720703 C 1.1192188 54.760703 -0.19023438 67.529687 2.0097656 82.679688 C 4.0697656 96.839688 8.9503906 111.21914 15.400391 122.11914 C 17.590391 125.81914 21.729688 127.60945 25.929688 126.68945 C 30.139688 125.76945 33.140078 122.39938 33.580078 118.10938 C 34.190078 112.14938 36.03 94 41 94 C 45.97 94 47.809922 112.14914 48.419922 118.11914 C 48.849922 122.39914 51.860312 125.76922 56.070312 126.69922 C 56.810312 126.85922 57.539766 126.93945 58.259766 126.93945 C 61.659766 126.93945 64.789375 125.17914 66.609375 122.11914 C 66.979375 121.49914 67.339219 120.8607 67.699219 120.2207 C 68.499219 118.7707 67.979297 116.94062 66.529297 116.14062 C 65.079297 115.34062 63.249219 115.86055 62.449219 117.31055 C 62.119219 117.91055 61.779453 118.49031 61.439453 119.07031 C 60.139453 121.26031 57.989375 120.97984 57.359375 120.83984 C 56.059375 120.54984 54.590625 119.52977 54.390625 117.50977 C 53.200625 105.75977 51.4 88 41 88 C 30.6 88 28.799375 105.75977 27.609375 117.50977 C 27.409375 119.52977 25.940625 120.54984 24.640625 120.83984 C 24.010625 120.96984 21.850547 121.26031 20.560547 119.07031 C 7.6805469 97.280312 2.9901563 63.569453 10.910156 49.689453 C 13.480156 45.189453 17.11 43 22 43 L 22.390625 43 C 24.070625 43.02 25.410938 41.730078 25.460938 40.080078 C 25.510938 38.430078 24.199063 37.049766 22.539062 37.009766 C 22.359062 36.999766 22.18 37 22 37 z"/></svg>