<?xml version="1.0" encoding="iso-8859-1"?>
<!-- Generator: Adobe Illustrator 23.0.3, SVG Export Plug-In . SVG Version: 6.00 Build 0)  -->
<svg version="1.1" id="Layer_1" xmlns="http://www.w3.org/2000/svg" xmlns:xlink="http://www.w3.org/1999/xlink" x="0px" y="0px"
	 viewBox="0 0 50 50" style="enable-background:new 0 0 50 50;" xml:space="preserve">
<path d="M44.844,22.906c-0.83-0.266-1.712-0.19-2.485,0.213c-0.772,0.403-1.343,1.086-1.606,1.921l-1.922,6.094l-6.136-3.85
	c-1.276-0.802-2.747-1.226-4.253-1.226c-0.002,0-0.004,0-0.006,0L15.815,26C9.3,26,4,31.321,4,37.862v7.492
	c0,0.284,0.229,0.513,0.511,0.513H11V41c0-0.552,0.447-1,1-1s1,0.448,1,1v4.867h20.002c0.275-0.001,0.498-0.226,0.498-0.504v-8.709
	l4.67,2.89c0.343,0.213,1.18,0.509,1.258,0.533c0.327,0.104,0.658,0.154,0.984,0.154c1.382,0,2.668-0.893,3.107-2.289l3.443-10.915
	C47.507,25.303,46.556,23.455,44.844,22.906z"/>
<g>
	<path d="M30.998,12.963c-0.102-5.83-0.985-9.156-1.026-9.304c-0.056-0.206-0.176-0.388-0.343-0.521C29.294,2.872,27.679,2,20.995,2
		c-6.679,0-8.294,0.872-8.63,1.139c-0.167,0.133-0.287,0.315-0.343,0.521c-0.04,0.147-0.924,3.473-1.026,9.304H30.998z M19.996,5
		l2-0.001L21.997,7L23.999,7l0.002,2L21.997,9l0.001,2.083l-2,0.001l-0.001-2.083l-1.996,0.001l-0.002-2l1.998-0.001L19.996,5z"/>
	<path d="M10.988,14.963c0.019,5.504,4.501,9.976,10.009,9.976c5.509,0,9.991-4.472,10.01-9.976H10.988z"/>
</g>
<g>
	<path d="M38.669,18.96c0.2,0,0.331,0.123,0.331,0.307v1.384c0,0.184-0.132,0.307-0.331,0.307h-1.335
		c-0.2,0-0.333-0.122-0.333-0.307v-1.384c0-0.184,0.135-0.307,0.333-0.307H38.669z"/>
</g>
<g>
	<path d="M39,7.358v9.283C39,16.839,38.839,17,38.641,17h-1.282C37.161,17,37,16.839,37,16.641V7.359C37,7.161,37.161,7,37.359,7
		h1.283C38.84,7,39,7.16,39,7.358z"/>
</g>
</svg>