<?xml version="1.0" encoding="iso-8859-1"?><!-- Generator: Adobe Illustrator 23.0.1, SVG Export Plug-In . SVG Version: 6.00 Build 0)  --><svg xmlns="http://www.w3.org/2000/svg" xmlns:xlink="http://www.w3.org/1999/xlink" viewBox="0 0 50 50" width="500px" height="500px"><g id="&#x421;&#x43B;&#x43E;&#x439;_1" style="display:none;"></g><g id="ref"></g><g id="&#x421;&#x43B;&#x43E;&#x439;_3"><g><path d="M49,26c0-4.072-3.06-7.436-7-7.931V7c0-0.552-0.447-1-1-1H17c-0.553,0-1,0.448-1,1v32c0,0.552,0.447,1,1,1h11v1c0,2.206-1.794,4-4,4H12.5C10.019,45,8,42.981,8,40.5V16.855c2.309-0.677,4-3.664,4-7.355C12,5.294,9.804,2,7,2S2,5.294,2,9.5c0,3.69,1.691,6.678,4,7.355V41h0.019c0.244,3.187,2.795,5.737,5.981,5.981L24,47c3.309,0,6-2.691,6-6v-1h11c0.553,0,1-0.448,1-1v-5.069C45.94,33.436,49,30.072,49,26z M41,32c-3.309,0-6-2.691-6-6s2.691-6,6-6s6,2.691,6,6S44.309,32,41,32z"/><path d="M40.293,25.293c-0.391,0.391-0.433,1.071,0,1.414C41.147,27.383,44,29,44,29s-1.617-2.853-2.293-3.707C41.364,24.86,40.684,24.902,40.293,25.293z"/></g></g><g id="Layer_4"></g></svg>