<svg xmlns="http://www.w3.org/2000/svg"  viewBox="0 0 128 128" width="64px" height="64px"><path d="M124,94c-3.86,0-7-3.14-7-7V61c0-6.99,3.21-13.4,8.8-17.6c1.32-1,1.59-2.88,0.6-4.2c-1-1.33-2.88-1.59-4.2-0.6 c-2.83,2.13-5.17,4.7-6.98,7.59C111.24,35.58,100.99,28,89,28c-10.91,0-20.38,6.28-25,15.41C59.38,34.28,49.91,28,39,28 c-11.99,0-22.24,7.58-26.22,18.19c-1.81-2.9-4.17-5.49-7.02-7.62c-1.33-0.99-3.21-0.72-4.2,0.61c-0.99,1.33-0.72,3.21,0.61,4.2 C7.78,47.57,11,54,11,61v26c0,3.86-3.14,7-7,7c-1.66,0-3,1.34-3,3s1.34,3,3,3c4.02,0,7.61-1.83,10-4.71 c2.39,2.87,5.98,4.71,10,4.71h30c4.02,0,7.61-1.83,10-4.71c2.39,2.87,5.98,4.71,10,4.71h30c4.02,0,7.61-1.83,10-4.71 c2.39,2.87,5.98,4.71,10,4.71c1.66,0,3-1.34,3-3S125.66,94,124,94z M54,94H24c-3.86,0-7-3.14-7-7V61v-5c0-12.13,9.87-22,22-22 s22,9.87,22,22v31C61,90.86,57.86,94,54,94z M104,94H74c-3.86,0-7-3.14-7-7V56c0-12.13,9.87-22,22-22s22,9.87,22,22v5v26 C111,90.86,107.86,94,104,94z"/></svg>