<?xml version="1.0" encoding="iso-8859-1"?>
<!-- Generator: Adobe Illustrator 23.0.3, SVG Export Plug-In . SVG Version: 6.00 Build 0)  -->
<svg version="1.1" id="Layer_1" xmlns="http://www.w3.org/2000/svg" xmlns:xlink="http://www.w3.org/1999/xlink" x="0px" y="0px"
	 viewBox="0 0 50 50" style="enable-background:new 0 0 50 50;" xml:space="preserve">
<path style="fill:none;stroke:#000000;stroke-width:2;stroke-miterlimit:10;" d="M12.009,14.278
	c-0.015,0.215-0.023,0.432-0.023,0.651c0,4.977,4.035,9.012,9.012,9.012s9.012-4.035,9.012-9.012c0-0.291-0.014-0.578-0.041-0.862"
	/>
<line style="fill:none;stroke:#000000;stroke-width:2;stroke-linecap:round;stroke-miterlimit:10;" x1="12" y1="45" x2="12" y2="41"/>
<line style="fill:none;stroke:#000000;stroke-width:2;stroke-linecap:round;stroke-linejoin:round;stroke-miterlimit:10;" x1="33" y1="45" x2="33" y2="36.402"/>
<path style="fill:none;stroke:#000000;stroke-width:2;stroke-linecap:round;stroke-linejoin:round;" d="M11.986,14.063
	c0-6.453,1.001-10.141,1.001-10.141S14.147,3,20.996,3c6.853,0,8.012,0.922,8.012,0.922s1.001,3.688,1.001,10.141H11.986z"/>
<path style="fill:none;stroke:#000000;stroke-width:2;stroke-linecap:square;" d="M20.997,7l0.002,4.083"/>
<path style="fill:none;stroke:#000000;stroke-width:2;stroke-linecap:round;stroke-linejoin:round;stroke-miterlimit:10;" d="
	M33.168,36.223l5.264,3.234c0.273,0.168,1.045,0.446,1.147,0.478c1.452,0.461,3.003-0.342,3.464-1.793l3.443-10.835
	c0.461-1.452-0.342-3.003-1.793-3.464l0,0c-1.452-0.461-3.003,0.342-3.464,1.793l-2.117,6.663l-6.681-4.163
	c-1.198-0.746-2.582-1.142-3.993-1.14C27.486,26.997,26.532,26.999,26.3,27"/>
<path style="fill:none;stroke:#000000;stroke-width:2;stroke-linecap:round;stroke-linejoin:round;stroke-miterlimit:10;" d="M5,45
	v-6.936C5,31.953,9.953,27,16.064,27H27"/>
<path d="M38.669,18.96c0.2,0,0.331,0.123,0.331,0.307v1.384c0,0.184-0.132,0.307-0.331,0.307h-1.335c-0.2,0-0.333-0.122-0.333-0.307
	v-1.384c0-0.184,0.135-0.307,0.333-0.307H38.669z"/>
<path d="M39,7.358v9.283C39,16.839,38.839,17,38.641,17h-1.282C37.161,17,37,16.839,37,16.641V7.359C37,7.161,37.161,7,37.359,7
	h1.283C38.84,7,39,7.16,39,7.358z"/>
<path style="fill:none;stroke:#000000;stroke-width:2;stroke-linecap:square;" d="M23,9l-4,0.002"/>
</svg>