<svg xmlns="http://www.w3.org/2000/svg"  viewBox="0 0 128 128" width="64px" height="64px"><path d="M 81.044922 1.0078125 C 69.284922 1.0078125 57.525312 5.4844531 48.570312 14.439453 C 45.160312 17.849453 42.309141 21.730703 40.119141 25.970703 C 39.359141 27.440703 39.940156 29.249766 41.410156 30.009766 C 42.880156 30.769766 44.689219 30.190703 45.449219 28.720703 C 47.359219 25.040703 49.830547 21.659688 52.810547 18.679688 C 68.380547 3.1096875 93.699531 3.1096875 109.26953 18.679688 C 120.89953 30.309688 124.21094 47.589219 117.71094 62.699219 L 117.60938 62.929688 C 111.06937 78.139687 100.73047 91.589844 87.730469 101.83984 L 86.509766 102.80078 C 85.209766 103.82078 84.979766 105.70977 86.009766 107.00977 C 86.599766 107.75977 87.479141 108.15039 88.369141 108.15039 C 89.019141 108.15039 89.670469 107.93953 90.230469 107.51953 L 91.449219 106.56055 C 105.22922 95.690547 116.19086 81.430781 123.13086 65.300781 L 123.23047 65.070312 C 130.71047 47.690313 126.89953 27.819453 113.51953 14.439453 C 104.56453 5.4844531 92.804922 1.0078125 81.044922 1.0078125 z M 80.970703 27.470703 C 79.310703 27.470703 77.970703 28.810703 77.970703 30.470703 C 77.970703 32.130703 79.310703 33.470703 80.970703 33.470703 C 88.440703 33.470703 94.519531 39.549531 94.519531 47.019531 C 94.519531 50.129531 93.490547 53.050703 91.560547 55.470703 C 90.520547 56.770703 90.739297 58.659453 92.029297 59.689453 C 92.579297 60.139453 93.240391 60.349609 93.900391 60.349609 C 94.780391 60.349609 95.66 59.960937 96.25 59.210938 C 99 55.770938 100.51953 51.439531 100.51953 47.019531 C 100.51953 36.239531 91.750703 27.470703 80.970703 27.470703 z M 22 37 C 14.96 37 9.3292188 40.360703 5.6992188 46.720703 C 1.1192188 54.760703 -0.19023438 67.529687 2.0097656 82.679688 C 4.0697656 96.839688 8.9503906 111.21914 15.400391 122.11914 C 17.590391 125.81914 21.729688 127.60945 25.929688 126.68945 C 30.139688 125.76945 33.140078 122.39938 33.580078 118.10938 C 34.190078 112.14938 36.03 94 41 94 C 45.97 94 47.809922 112.14914 48.419922 118.11914 C 48.849922 122.39914 51.860312 125.76922 56.070312 126.69922 C 56.810312 126.85922 57.539766 126.93945 58.259766 126.93945 C 61.659766 126.93945 64.789609 125.18086 66.599609 122.13086 C 73.049609 111.22086 77.930234 96.839687 79.990234 82.679688 C 82.190234 67.519687 80.880781 54.750703 76.300781 46.720703 C 72.670781 40.360703 67.04 37 60 37 C 56.12 37 52.669844 38.039062 49.339844 39.039062 C 46.429844 39.909062 43.69 40.740234 41 40.740234 C 38.31 40.740234 35.560156 39.909062 32.660156 39.039062 C 29.330156 38.039062 25.88 37 22 37 z M 22 43 C 25 43 27.879453 43.869062 30.939453 44.789062 C 34.129453 45.749063 37.43 46.740234 41 46.740234 C 44.57 46.740234 47.870547 45.749063 51.060547 44.789062 C 54.120547 43.869062 57 43 60 43 C 64.89 43 68.519844 45.189453 71.089844 49.689453 C 79.009844 63.569453 74.319453 97.290312 61.439453 119.07031 C 60.139453 121.26031 57.989375 120.97984 57.359375 120.83984 C 56.059375 120.54984 54.590625 119.52977 54.390625 117.50977 C 53.200625 105.75977 51.4 88 41 88 C 30.6 88 28.799375 105.75977 27.609375 117.50977 C 27.409375 119.52977 25.940625 120.54984 24.640625 120.83984 C 24.010625 120.96984 21.850547 121.26031 20.560547 119.07031 C 7.6805469 97.280312 2.9901563 63.569453 10.910156 49.689453 C 13.480156 45.189453 17.11 43 22 43 z"/></svg>