<?xml version="1.0" encoding="iso-8859-1"?><!-- Generator: Adobe Illustrator 22.0.1, SVG Export Plug-In . SVG Version: 6.00 Build 0)  --><svg xmlns="http://www.w3.org/2000/svg" xmlns:xlink="http://www.w3.org/1999/xlink" viewBox="0 0 30 30" width="480px" height="480px"><circle cx="8.5" cy="15.5" r="2.5"/><line style="fill:none;stroke:#000000;stroke-width:2;stroke-linecap:round;stroke-linejoin:round;stroke-miterlimit:10;" x1="3" y1="26" x2="3" y2="9"/><line style="fill:none;stroke:#000000;stroke-width:2;stroke-linecap:round;stroke-linejoin:round;stroke-miterlimit:10;" x1="27" y1="26" x2="27" y2="21"/><rect x="3" y="20" width="24" height="5"/><path d="M13,13h11c1.657,0,3,1.343,3,3v2H13V13z"/><g><path d="M23,3h-8.172c-0.53,0-1.039,0.211-1.414,0.586L12,5h8c0.552,0,1,0.448,1,1c0,0.552-0.448,1-1,1h-8l1.414,1.414C13.789,8.789,14.298,9,14.828,9H23c1.657,0,3-1.343,3-3S24.657,3,23,3z"/><path d="M9,5C8.448,5,8,5.447,8,6s0.448,1,1,1h3V5H9z"/></g></svg>