<svg xmlns="http://www.w3.org/2000/svg"  viewBox="0 0 128 128" width="64px" height="64px"><path d="M 45 6 C 38.84 6 33.689844 8.6105469 30.089844 13.560547 C 20.929844 26.150547 23.220781 51.520312 29.550781 71.070312 C 29.960781 72.340312 31.140391 73.150391 32.400391 73.150391 C 32.710391 73.150391 33.020312 73.1 33.320312 73 C 34.900312 72.49 35.76 70.800703 35.25 69.220703 C 28.32 47.800703 28.189688 26.369844 34.929688 17.089844 C 37.429688 13.669844 40.72 12 45 12 C 48 12 50.879453 12.869063 53.939453 13.789062 C 57.129453 14.749063 60.43 15.740234 64 15.740234 C 67.57 15.740234 70.870547 14.749063 74.060547 13.789062 C 77.120547 12.869063 80 12 83 12 C 87.28 12 90.570547 13.669844 93.060547 17.089844 C 99.810547 26.369844 99.68 47.800703 92.75 69.220703 C 92.24 70.800703 93.099687 72.49 94.679688 73 C 96.259687 73.51 97.950937 72.650313 98.460938 71.070312 C 104.78094 51.520313 107.07016 26.150547 97.910156 13.560547 C 94.310156 8.6105469 89.16 6 83 6 C 79.12 6 75.669844 7.0390625 72.339844 8.0390625 C 69.439844 8.9090625 66.69 9.7402344 64 9.7402344 C 61.31 9.7402344 58.570156 8.9090625 55.660156 8.0390625 C 52.330156 7.0390625 48.88 6 45 6 z M 64 44 C 58.49 44 54 48.49 54 54 L 54 63 L 51 63 C 49.34 63 48 64.34 48 66 C 48 67.66 49.34 69 51 69 L 54 69 L 54 79 L 51 79 C 49.34 79 48 80.34 48 82 C 48 83.66 49.34 85 51 85 L 54 85 L 54 95 L 51 95 C 49.34 95 48 96.34 48 98 C 48 99.66 49.34 101 51 101 L 54 101 L 54 107 C 54 112.51 58.49 117 64 117 C 69.51 117 74 112.51 74 107 L 74 101 L 77 101 C 78.66 101 80 99.66 80 98 C 80 96.34 78.66 95 77 95 L 74 95 L 74 85 L 77 85 C 78.66 85 80 83.66 80 82 C 80 80.34 78.66 79 77 79 L 74 79 L 74 69 L 77 69 C 78.66 69 80 67.66 80 66 C 80 64.34 78.66 63 77 63 L 74 63 L 74 54 C 74 48.49 69.51 44 64 44 z M 64 50 C 66.21 50 68 51.79 68 54 L 68 107 C 68 109.21 66.21 111 64 111 C 61.79 111 60 109.21 60 107 L 60 54 C 60 51.79 61.79 50 64 50 z"/></svg>