<?xml version="1.0" encoding="iso-8859-1"?>
<!-- Generator: Adobe Illustrator 26.4.1, SVG Export Plug-In . SVG Version: 6.00 Build 0)  -->
<svg version="1.1" baseProfile="basic" id="Layer_1"
	 xmlns="http://www.w3.org/2000/svg" xmlns:xlink="http://www.w3.org/1999/xlink" x="0px" y="0px" viewBox="0 0 50 50"
	 xml:space="preserve">
<g>
	<path d="M35.474,50H14.526C12.031,50,10,47.97,10,45.474V23.898c0-2.084,0.583-4.119,1.688-5.887l1.841-2.946
		C14.492,13.527,15,11.754,15,9.938V8c0-0.553,0.448-1,1-1h18c0.552,0,1,0.447,1,1v1.938c0,1.815,0.508,3.589,1.471,5.127
		l1.841,2.946C39.417,19.779,40,21.814,40,23.898v21.575C40,47.97,37.969,50,35.474,50z M17,9v0.938c0,2.19-0.614,4.33-1.774,6.188
		l-1.841,2.946C12.479,20.521,12,22.189,12,23.898v21.575C12,46.866,13.133,48,14.526,48h20.947C36.867,48,38,46.866,38,45.474
		V23.898c0-1.709-0.479-3.378-1.384-4.826l-1.841-2.946C33.614,14.269,33,12.129,33,9.938V9H17z"/>
</g>
<g>
	<path d="M36,9H14c-0.552,0-1-0.447-1-1V1c0-0.553,0.448-1,1-1h22c0.552,0,1,0.447,1,1v7C37,8.553,36.552,9,36,9z M15,7h20V2H15V7z"
		/>
</g>
<g>
	<path d="M19,8c-0.552,0-1-0.447-1-1V4c0-0.553,0.448-1,1-1s1,0.447,1,1v3C20,7.553,19.552,8,19,8z"/>
</g>
<g>
	<path d="M25,8c-0.552,0-1-0.447-1-1V4c0-0.553,0.448-1,1-1s1,0.447,1,1v3C26,7.553,25.552,8,25,8z"/>
</g>
<g>
	<path d="M31,8c-0.552,0-1-0.447-1-1V4c0-0.553,0.448-1,1-1s1,0.447,1,1v3C32,7.553,31.552,8,31,8z"/>
</g>
<g>
	<path d="M27,40h-4c-0.552,0-1-0.447-1-1v-3h-3c-0.552,0-1-0.447-1-1v-4c0-0.553,0.448-1,1-1h3v-3c0-0.553,0.448-1,1-1h4
		c0.552,0,1,0.447,1,1v3h3c0.552,0,1,0.447,1,1v4c0,0.553-0.448,1-1,1h-3v3C28,39.553,27.552,40,27,40z M24,38h2v-3
		c0-0.553,0.448-1,1-1h3v-2h-3c-0.552,0-1-0.447-1-1v-3h-2v3c0,0.553-0.448,1-1,1h-3v2h3c0.552,0,1,0.447,1,1V38z"/>
</g>
<g>
	<path d="M39,44H11c-0.552,0-1-0.447-1-1V23c0-0.553,0.448-1,1-1h28c0.552,0,1,0.447,1,1v20C40,43.553,39.552,44,39,44z M12,42h26
		V24H12V42z"/>
</g>
</svg>