<svg xmlns="http://www.w3.org/2000/svg"  viewBox="0 0 128 128" width="64px" height="64px"><path d="M96.4 14.4c-17.9-17.9-47-17.9-64.9 0-13.4 13.4-17.2 33.3-9.7 50.6l.1.2c6.9 16.1 17.9 30.4 31.7 41.3l1.2 1c2.6 2.1 5.9 3.2 9.3 3.2 3.3 0 6.5-1.1 9.1-3.1 14.5-11.1 26-25.9 33.2-42.7C113.7 47.6 109.8 27.8 96.4 14.4 96.4 14.4 96.4 14.4 96.4 14.4zM79 52H67v12c0 1.7-1.3 3-3 3s-3-1.3-3-3V52H49c-1.7 0-3-1.3-3-3s1.3-3 3-3h12V34c0-1.7 1.3-3 3-3s3 1.3 3 3v12h12c1.7 0 3 1.3 3 3S80.7 52 79 52zM95 121H33c-1.7 0-3 1.3-3 3s1.3 3 3 3h62c1.7 0 3-1.3 3-3S96.7 121 95 121zM124 121h-10c-1.7 0-3 1.3-3 3s1.3 3 3 3h10c1.7 0 3-1.3 3-3S125.7 121 124 121z"/></svg>