<?xml version="1.0" encoding="iso-8859-1"?>
<!-- Generator: Adobe Illustrator 24.0.3, SVG Export Plug-In . SVG Version: 6.00 Build 0)  -->
<svg version="1.1" id="Layer_1" xmlns="http://www.w3.org/2000/svg" xmlns:xlink="http://www.w3.org/1999/xlink" x="0px" y="0px"
	 viewBox="0 0 50 50" style="enable-background:new 0 0 50 50;" xml:space="preserve">
<g>
</g>
<g>
	<g>
		<path style="fill:none;stroke:#000000;stroke-width:2;stroke-linecap:round;stroke-linejoin:round;stroke-miterlimit:10;" d="
			M2,20L25,2l23,18"/>
		<path style="fill:none;stroke:#000000;stroke-width:2;stroke-linecap:round;stroke-linejoin:round;stroke-miterlimit:10;" d="
			M45,17.667V46H5V17.667"/>
	</g>
	<path d="M16,36c-0.552,0-1,0.448-1,1s0.448,1,1,1c0.552,0,1-0.448,1-1S16.552,36,16,36z M16,30c-0.552,0-1,0.448-1,1s0.448,1,1,1
		c0.552,0,1-0.448,1-1S16.552,30,16,30z M22,30c-0.552,0-1,0.448-1,1s0.448,1,1,1s1-0.448,1-1S22.552,30,22,30z M19,27
		c-0.552,0-1,0.448-1,1s0.448,1,1,1s1-0.448,1-1S19.552,27,19,27z M22,36c-0.552,0-1,0.448-1,1s0.448,1,1,1s1-0.448,1-1
		S22.552,36,22,36z M19,33c-0.552,0-1,0.448-1,1s0.448,1,1,1s1-0.448,1-1S19.552,33,19,33z M25,33c-0.552,0-1,0.448-1,1s0.448,1,1,1
		s1-0.448,1-1S25.552,33,25,33z"/>
	<path style="fill:none;stroke:#000000;stroke-width:2;stroke-linecap:round;stroke-linejoin:round;stroke-miterlimit:10;" d="
		M29.89,16c-1.788,0-3.575,0.707-4.984,2.065C24.527,18.5,14.505,28.5,14.072,28.989c-2.763,2.772-2.763,7.228,0,9.946
		C15.426,40.293,17.214,41,19.056,41s3.575-0.707,4.984-2.065c0.379-0.38,10.401-10.435,10.888-10.924
		c2.763-2.772,2.763-7.228,0-9.946C33.52,16.707,31.732,16,29.89,16L29.89,16z M20.302,23.228l9.588,9.62"/>
</g>
</svg>