<?xml version="1.0" encoding="utf-8"?><!-- Generator: Adobe Illustrator 18.1.0, SVG Export Plug-In . SVG Version: 6.00 Build 0)  --><!DOCTYPE svg PUBLIC "-//W3C//DTD SVG 1.1//EN" "http://www.w3.org/Graphics/SVG/1.1/DTD/svg11.dtd"><svg xmlns="http://www.w3.org/2000/svg" xmlns:xlink="http://www.w3.org/1999/xlink" viewBox="0 0 50 50" width="50px" height="50px"><path fill="none" stroke="#000000" stroke-width="2" stroke-linecap="round" stroke-linejoin="round" stroke-miterlimit="10" d="M5,14v22h40V14H5z"/><line fill="none" stroke="#000000" stroke-width="2" stroke-miterlimit="10" x1="47" y1="15" x2="50" y2="15"/><line fill="none" stroke="#000000" stroke-width="2" stroke-miterlimit="10" x1="47" y1="35" x2="50" y2="35"/><line fill="none" stroke="#000000" stroke-width="2" stroke-miterlimit="10" x1="0" y1="15" x2="3" y2="15"/><line fill="none" stroke="#000000" stroke-width="2" stroke-miterlimit="10" x1="0" y1="35" x2="3" y2="35"/><circle fill="none" stroke="#000000" stroke-width="2" stroke-linecap="round" stroke-linejoin="round" stroke-miterlimit="10" cx="13" cy="25" r="4"/><path fill="none" stroke="#000000" stroke-width="2" stroke-linecap="round" stroke-linejoin="round" stroke-miterlimit="10" d="M39,21h-8v0c0-1.1-0.9-2-2-2h-6c-3.3,0-6,2.7-6,6v0c0,3.3,2.7,6,6,6h6c1.1,0,2-0.9,2-2v0h8c1.1,0,2-0.9,2-2v-4C41,21.9,40.1,21,39,21z"/></svg>