<svg xmlns="http://www.w3.org/2000/svg"  viewBox="0 0 128 128" width="64px" height="64px"><path d="M 56.623047 1.8789062 C 51.191211 1.9065918 45.75 2.8757813 40.5 4.8007812 C 23 11.000781 10.699219 27.199219 9.1992188 45.699219 C 6.3992188 79.899219 28.899219 101.49922 38.699219 109.19922 C 38.799219 109.29922 38.900391 109.30039 38.900391 109.40039 C 39.400391 109.90039 40.2 110.19922 41 110.19922 C 42.7 110.19922 44 108.89922 44 107.19922 C 44 105.69922 43.100391 105 42.400391 104.5 C 33.400391 97.4 12.599609 77.499219 15.099609 46.199219 C 16.499609 29.999219 27.299609 15.900781 42.599609 10.300781 C 53.099609 6.5007813 64.499609 6.9992188 74.599609 11.699219 C 84.699609 16.399219 92.400781 24.800391 96.300781 35.400391 L 102.19922 51.5 C 102.79922 53.1 104.5 53.900781 106 53.300781 C 107.6 52.700781 108.40078 51 107.80078 49.5 L 101.90039 33.400391 C 97.500391 21.400391 88.699609 11.800391 77.099609 6.4003906 C 70.574609 3.3628906 63.606836 1.8433105 56.623047 1.8789062 z M 49.261719 53.136719 C 45.449219 53.299219 42.750391 54.8 40.900391 56.5 C 38.000391 59.2 36.5 62.599609 36.5 66.599609 C 36.5 75.699609 44.499609 87.599609 60.099609 102.09961 C 64.799609 106.49961 70.100391 109.90039 75.900391 112.40039 L 75.900391 124 C 75.900391 125.7 77.200391 127 78.900391 127 C 80.600391 127 81.900391 125.7 81.900391 124 L 81.900391 114.59961 C 87.000391 116.09961 92.400391 117 97.900391 117 C 104.00039 117 109.19961 112.80039 110.59961 106.90039 L 116.69922 80.099609 C 117.29922 77.699609 117.09922 75.100781 116.19922 72.800781 L 113.59961 65.599609 C 112.89961 63.499609 111.30039 61.9 109.40039 61 C 107.50039 60.1 105.19922 60.100391 103.19922 60.900391 L 79.5 70.400391 L 74 65.199219 C 70.8 62.199219 67.600781 59.700781 64.300781 57.800781 C 58.000781 54.150781 53.074219 52.974219 49.261719 53.136719 z M 50.099609 59.199219 C 53.699609 59.199219 57.900781 61.099609 61.300781 63.099609 C 64.200781 64.799609 67.1 66.999219 70 69.699219 L 76.099609 75.400391 L 76.099609 105.90039 L 76 105.90039 C 71.8 103.80039 67.800781 101.10078 64.300781 97.800781 C 50.300781 84.800781 42.599609 73.799219 42.599609 66.699219 C 42.599609 64.399219 43.399609 62.6 45.099609 61 C 46.499609 59.7 48.199609 59.199219 50.099609 59.199219 z"/></svg>