<?xml version="1.0" encoding="iso-8859-1"?><!-- Generator: Adobe Illustrator 22.1.0, SVG Export Plug-In . SVG Version: 6.00 Build 0)  --><svg xmlns="http://www.w3.org/2000/svg" xmlns:xlink="http://www.w3.org/1999/xlink" viewBox="0 0 50 50" width="500px" height="500px"><path d="M44,48H6c-0.553,0-1-0.447-1-1v-5c0-0.553,0.447-1,1-1h38c0.553,0,1,0.447,1,1v5C45,47.553,44.553,48,44,48z"/><path d="M28,7.28V5c1.105,0,2-0.895,2-2c0-1.105-0.895-2-2-2h-6c-1.105,0-2,0.895-2,2c0,1.105,0.895,2,2,2v2.28C14.044,8.699,8,15.637,8,24c0,9.389,0,15,0,15h34c0,0,0-12.232,0-15C42,15.637,35.956,8.699,28,7.28z M25,35c-4.418,0-8-3.582-8-8s3.582-8,8-8s8,3.582,8,8S29.418,35,25,35z"/><circle cx="25" cy="27" r="2"/><polygon points="26,26 29,31 24,28 "/></svg>