<svg xmlns="http://www.w3.org/2000/svg"  viewBox="0 0 128 128" width="64px" height="64px"><path d="M80,22H67V7h12c1.66,0,3-1.34,3-3s-1.34-3-3-3H49c-1.66,0-3,1.34-3,3s1.34,3,3,3h12v15H48c-4.41,0-8,3.59-8,8v59.9 c0,7.72,6.28,14,14,14h7V124c0,1.66,1.34,3,3,3s3-1.34,3-3v-20.1h8c7.17,0,13-5.83,13-13V30C88,25.59,84.41,22,80,22z M82,90.9 c0,3.86-3.14,7-7,7H54c-4.41,0-8-3.59-8-8V78h7c1.66,0,3-1.34,3-3s-1.34-3-3-3h-7V52h7c1.66,0,3-1.34,3-3s-1.34-3-3-3h-7V30 c0-1.1,0.9-2,2-2h32c1.1,0,2,0.9,2,2V90.9z"/></svg>