<?xml version="1.0" encoding="iso-8859-1"?><!-- Generator: Adobe Illustrator 20.0.0, SVG Export Plug-In . SVG Version: 6.00 Build 0)  --><svg xmlns="http://www.w3.org/2000/svg" xmlns:xlink="http://www.w3.org/1999/xlink" viewBox="0 0 50 50" width="50px" height="50px"><path style="fill:none;stroke:#000000;stroke-width:2;stroke-linecap:round;stroke-miterlimit:10;" d="M39,47H11c-1.105,0-2-0.895-2-2V11h32v34C41,46.105,40.105,47,39,47z"/><g><g><path style="fill:none;stroke:#000000;stroke-width:2;stroke-linecap:round;stroke-miterlimit:10;" d="M41,5h-0.667l-0.055-0.329C40.118,3.707,39.283,3,38.306,3H11.694c-0.978,0-1.812,0.707-1.973,1.671L9.667,5H9C7.895,5,7,5.895,7,7v4h36V7C43,5.895,42.105,5,41,5z"/></g></g><path style="fill:none;stroke:#000000;stroke-width:2;stroke-miterlimit:10;" d="M20,31v-8h3c1.105,0,2,0.895,2,2v0c0,1.105-0.895,2-2,2h-3"/><polygon points="24,27 22,27 28,36 30,36 "/><polygon points="28,29 30,29 25,36 23,36 "/><line style="fill:none;stroke:#000000;stroke-width:2;stroke-linecap:round;stroke-miterlimit:10;" x1="9" y1="19" x2="41" y2="19"/><line style="fill:none;stroke:#000000;stroke-width:2;stroke-linecap:round;stroke-miterlimit:10;" x1="9" y1="39" x2="41" y2="39"/></svg>