<?xml version="1.0" encoding="iso-8859-1"?>
<!-- Generator: Adobe Illustrator 24.1.2, SVG Export Plug-In . SVG Version: 6.00 Build 0)  -->
<svg version="1.1" xmlns="http://www.w3.org/2000/svg" xmlns:xlink="http://www.w3.org/1999/xlink" x="0px" y="0px"
	 viewBox="0 0 50 50" style="enable-background:new 0 0 50 50;" xml:space="preserve">
<g id="Layer_10" style="display:none;">
	<g style="display:inline;opacity:0.05;">
		<g>
			<circle style="fill:#FFFFFF;" cx="19" cy="25" r="21.5"/>
			<path d="M19,4c11.579,0,21,9.421,21,21s-9.421,21-21,21S-2,36.579-2,25S7.421,4,19,4 M19,3C6.85,3-3,12.85-3,25s9.85,22,22,22
				s22-9.85,22-22S31.15,3,19,3L19,3z"/>
		</g>
		<g>
			<rect x="-0.5" y="5.5" style="fill:#FFFFFF;" width="39" height="39"/>
			<path d="M38,6v38H0V6H38 M39,5H-1v40h40V5L39,5z"/>
		</g>
	</g>
</g>
<g id="filled">
</g>
<g id="outlined">
</g>
<g id="rounded">
</g>
<g id="two_x5F_tone">
</g>
<g id="sharp">
</g>
<g id="win10">
</g>
<g id="ios_x5F_out">
</g>
<g id="ios_x5F_filled">
	<path d="M47,33c-15.728-0.174-10.816-4.435-25-4v-3c0,0,2.764-10.281-1-20H4c0,0-2.043,13.542,2.016,22.924
		c2.82,6.52,1.129,10.403,3.434,12.964c3.034,3.371,5.281,1.271,10.955,2.461C31.522,46.679,42.08,41.66,47,41V33z"/>
</g>
<g id="color">
</g>
</svg>