<svg xmlns="http://www.w3.org/2000/svg"  viewBox="0 0 128 128" width="64px" height="64px"><path d="M113 115c-3.74 0-7.26-1.46-9.9-4.1L85.2 93H59c-3.74 0-7.26-1.46-9.9-4.1l-19-19C27.46 67.26 26 63.74 26 60s1.46-7.26 4.1-9.9c2.64-2.64 6.16-4.1 9.9-4.1 3.74 0 7.26 1.46 9.9 4.1L64.8 65H91c3.74 0 7.26 1.46 9.9 4.1l22 22c2.64 2.64 4.1 6.16 4.1 9.9s-1.46 7.26-4.1 9.9C120.26 113.54 116.74 115 113 115zM40 52c-2.14 0-4.15.83-5.65 2.34C32.83 55.85 32 57.86 32 60s.83 4.15 2.34 5.66l19 19C54.85 86.17 56.86 87 59 87h27.44c.8 0 1.56.32 2.12.88l18.78 18.78c1.51 1.51 3.52 2.35 5.66 2.35s4.15-.83 5.65-2.34c1.51-1.51 2.35-3.52 2.35-5.66s-.83-4.15-2.34-5.66l-22-22C95.15 71.83 93.14 71 91 71H63.56c-.8 0-1.56-.32-2.12-.88L45.66 54.35C44.15 52.83 42.14 52 40 52zM89 127H39c-1.66 0-3-1.34-3-3s1.34-3 3-3h50c1.66 0 3 1.34 3 3S90.66 127 89 127zM15 49C11.26 49 7.74 47.54 5.1 44.9v0C2.46 42.25 1 38.74 1 35 1 31.26 2.46 27.74 5.1 25.1 7.74 22.46 11.26 21 15 21c3.74 0 7.26 1.46 9.9 4.1v0c2.64 2.64 4.1 6.16 4.1 9.9 0 3.74-1.46 7.26-4.1 9.9C22.26 47.54 18.74 49 15 49zM9.35 40.66C10.86 42.17 12.86 43 15 43 17.14 43 19.15 42.17 20.65 40.66 22.17 39.15 23 37.14 23 35c0-2.14-.83-4.15-2.34-5.66 0 0 0 0 0 0C19.14 27.83 17.14 27 15 27 12.86 27 10.85 27.83 9.35 29.34 7.83 30.85 7 32.86 7 35c0 2.14.83 4.15 2.35 5.66-.01 0-.01 0 0 0z"/></svg>