<svg xmlns="http://www.w3.org/2000/svg"  viewBox="0 0 128 128" width="64px" height="64px"><path d="M107 71.53v-7.28c0-4.83-1.88-9.38-5.3-12.79l-11.9-11.9c-4.71-4.71-4.71-12.39 0-17.1l16.33-16.33c1.17-1.17 1.17-3.07 0-4.24-1.17-1.17-3.07-1.17-4.24 0L85.55 18.21c-7.05 7.05-7.05 18.53 0 25.58l11.9 11.9c2.28 2.28 3.54 5.32 3.54 8.55v7.28c-4.61 1.31-8 5.55-8 10.57V116c0 6.07 4.93 11 11 11s11-4.93 11-11V82.1C115 77.08 111.61 72.84 107 71.53zM109 116c0 2.76-2.24 5-5 5s-5-2.24-5-5V82.1c0-2.76 2.24-5 5-5s5 2.24 5 5V116zM34 1C17.46 1 4 14.46 4 31c0 15.53 11.86 28.34 27 29.85v10.68c-4.61 1.31-8 5.55-8 10.57V116c0 6.07 4.93 11 11 11s11-4.93 11-11V82.1c0-5.02-3.39-9.26-8-10.57V60.85C52.14 59.34 64 46.53 64 31 64 14.46 50.54 1 34 1zM39 82.1V116c0 2.76-2.24 5-5 5s-5-2.24-5-5V82.1c0-2.76 2.24-5 5-5S39 79.35 39 82.1zM34 55c-13.23 0-24-10.77-24-24S20.77 7 34 7s24 10.77 24 24S47.23 55 34 55z"/></svg>