<?xml version="1.0" encoding="iso-8859-1"?>
<!-- Generator: Adobe Illustrator 23.0.6, SVG Export Plug-In . SVG Version: 6.00 Build 0)  -->
<svg version="1.1" id="Line" xmlns="http://www.w3.org/2000/svg" xmlns:xlink="http://www.w3.org/1999/xlink" x="0px" y="0px"
	 viewBox="0 0 50 50" style="enable-background:new 0 0 50 50;" xml:space="preserve">
<circle cx="9" cy="28" r="1"/>
<circle cx="9" cy="34" r="1"/>
<circle cx="6" cy="31" r="1"/>
<circle cx="9" cy="40" r="1"/>
<circle cx="6" cy="37" r="1"/>
<circle cx="45" cy="22" r="1"/>
<circle cx="36" cy="13" r="1"/>
<circle cx="27" cy="22" r="1"/>
<circle cx="42" cy="19" r="1"/>
<circle cx="39" cy="22" r="1"/>
<circle cx="39" cy="16" r="1"/>
<circle cx="45" cy="16" r="1"/>
<circle cx="39" cy="28" r="1"/>
<circle cx="33" cy="16" r="1"/>
<circle cx="33" cy="22" r="1"/>
<circle cx="36" cy="19" r="1"/>
<circle cx="30" cy="19" r="1"/>
<circle cx="33" cy="28" r="1"/>
<circle cx="36" cy="25" r="1"/>
<circle cx="42" cy="25" r="1"/>
<circle cx="36" cy="31" r="1"/>
<circle cx="30" cy="25" r="1"/>
<path style="fill:none;stroke:#000000;stroke-width:2;stroke-linecap:round;stroke-linejoin:round;stroke-miterlimit:10;" d="
	M35.954,35.954L22,22"/>
<path style="fill:none;stroke:#000000;stroke-width:2;stroke-miterlimit:10;" d="M44.073,13.927c-3.903-3.903-10.231-3.903-14.134,0
	C25.89,17.976,15.245,28.614,14.95,28.908c-3.922,3.924-3.934,10.266-0.03,14.173c3.907,3.904,10.249,3.892,14.173-0.03
	c0.342-0.343,10.963-10.964,14.987-14.994C47.976,24.152,47.973,17.828,44.073,13.927L44.073,13.927z"/>
<circle cx="42" cy="13" r="1"/>
<path d="M12.799,45.202c-0.071-0.071-0.131-0.149-0.2-0.222c-2.252-0.1-4.357-1.018-5.961-2.63c-1.7-1.707-2.637-3.979-2.638-6.393
	C4.001,35.608,4,26,4,26h9.617l2.001-2H4v-9.957C4.001,9.059,8.038,5.002,13,5c4.962,0.002,8.999,4.059,9,9.041
	c0,0.959,0,3.581,0,3.581l1.999-1.999c0-0.732,0.001-1.324,0.001-1.58C23.999,7.956,19.064,3.002,13,3
	C6.936,3.002,2.001,7.956,2,14.045c0.002,0.924,0.002,21.163,0,21.91c0.001,2.95,1.145,5.723,3.22,7.808
	C7.298,45.849,10.061,46.999,13,47c0.611,0,1.209-0.066,1.8-0.163C14.093,46.368,13.421,45.824,12.799,45.202z"/>
</svg>