<svg xmlns="http://www.w3.org/2000/svg"  viewBox="0 0 48 46" width="500px" height="500px"><title>ios-fld_veterinarian</title><g id="Слой_2" data-name="Слой 2"><g id="Слой_8" data-name="Слой 8"><ellipse cx="17" cy="7.5" rx="6" ry="7.5"/><ellipse cx="6" cy="18.5" rx="6" ry="7.5"/><ellipse cx="42" cy="18.5" rx="6" ry="7.5"/><ellipse cx="31" cy="7.5" rx="6" ry="7.5"/><path d="M40.938,36.06a13.8,13.8,0,0,0-1.861-5.581c-.46-.754-.9-1.5-1.334-2.227C34.163,22.215,31.071,17,24,17S13.852,22.215,10.271,28.252c-.432.728-.874,1.473-1.333,2.228a13.764,13.764,0,0,0-1.861,5.58,8.822,8.822,0,0,0,2.176,6.892A9.111,9.111,0,0,0,16.065,46H31.95a9.111,9.111,0,0,0,6.812-3.048A8.829,8.829,0,0,0,40.938,36.06ZM31,34a1,1,0,0,1-1,1H26v4a1,1,0,0,1-1,1H23a1,1,0,0,1-1-1V35H18a1,1,0,0,1-1-1V32a1,1,0,0,1,1-1h4V27a1,1,0,0,1,1-1h2a1,1,0,0,1,1,1v4h4a1,1,0,0,1,1,1Z"/></g></g></svg>