<?xml version="1.0" encoding="utf-8"?><!-- Generator: Adobe Illustrator 18.0.0, SVG Export Plug-In . SVG Version: 6.00 Build 0)  --><!DOCTYPE svg PUBLIC "-//W3C//DTD SVG 1.0//EN" "http://www.w3.org/TR/2001/REC-SVG-20010904/DTD/svg10.dtd"><svg xmlns="http://www.w3.org/2000/svg" xmlns:xlink="http://www.w3.org/1999/xlink" viewBox="0 0 50 50" width="50px" height="50px"><line fill="none" stroke="#000000" stroke-width="2" stroke-miterlimit="10" x1="25" y1="50" x2="25" y2="42"/><path fill="none" stroke="#000000" stroke-width="2" stroke-miterlimit="10" d="M28.7,21.3c0,2-1.7,3.7-3.7,3.7s-3.7-1.7-3.7-3.7s3.7-9.1,3.7-9.1S28.7,19.3,28.7,21.3z"/><path fill="none" stroke="#000000" stroke-width="2" stroke-linecap="round" stroke-linejoin="round" stroke-miterlimit="10" d="M25,1C15.6,1,8,1.9,8,4l1.9,34.1c0,1,8.1,1.9,15.1,1.9s15.1-0.8,15.1-1.9L42,4C42,1.9,34.4,1,25,1z M36.2,29H13.8L12.5,6h25L36.2,29z"/><path fill="none" stroke="#000000" stroke-width="2" stroke-linecap="round" stroke-linejoin="round" stroke-miterlimit="10" d="M23,35.2c0,0.4-0.3,0.8-0.8,0.8h-6c-0.4,0-0.6-0.3-0.7-0.6c-0.1-0.4-0.3-0.9-0.4-1.6c-0.1-0.4,0.1-0.8,0.8-0.8h6.5c0.4,0,0.8,0.3,0.8,0.8V35.2z"/><path fill="none" stroke="#000000" stroke-width="2" stroke-linecap="round" stroke-linejoin="round" stroke-miterlimit="10" d="M27,33.8c0-0.4,0.3-0.8,0.8-0.8h6.5c0.7,0,0.8,0.4,0.8,0.8c-0.2,0.7-0.3,1.2-0.4,1.6c-0.1,0.3-0.4,0.6-0.7,0.6h-6c-0.4,0-0.8-0.3-0.8-0.8V33.8z"/></svg>