<?xml version="1.0" encoding="iso-8859-1"?>
<!-- Generator: Adobe Illustrator 22.1.0, SVG Export Plug-In . SVG Version: 6.00 Build 0)  -->
<svg version="1.1" id="Layer_1" xmlns="http://www.w3.org/2000/svg" xmlns:xlink="http://www.w3.org/1999/xlink" x="0px" y="0px"
	 viewBox="0 0 50 50" style="enable-background:new 0 0 50 50;" xml:space="preserve">
<path style="fill:none;stroke:#000000;stroke-width:2;stroke-linecap:round;stroke-linejoin:round;stroke-miterlimit:10;" d="
	M27.008,9.567l0.639-5.664c0,0,0.32-0.903,3.357-0.903s3.357,0.903,3.357,0.903L35,9.567"/>
<path style="fill:none;stroke:#000000;stroke-width:2;stroke-linecap:round;stroke-linejoin:round;stroke-miterlimit:10;" d="
	M27.555,8C27.211,8.59,27,9.268,27,10c0,2.209,1.791,4,4,4s4-1.791,4-4c0-0.732-0.211-1.41-0.555-2H27.555z"/>
<path d="M27.141,11c0.446,1.722,1.997,3,3.859,3s3.412-1.278,3.859-3H27.141z"/>
<path style="fill:none;stroke:#000000;stroke-width:2;stroke-linecap:round;stroke-linejoin:round;stroke-miterlimit:10;" d="M6,34
	c-2.209,0-4,1.791-4,4s1.791,4,4,4s4-1.791,4-4S8.209,34,6,34z"/>
<path style="fill:none;stroke:#000000;stroke-width:2;stroke-linecap:round;stroke-linejoin:round;stroke-miterlimit:10;" d="M48,43
	c0,0,0-2.239,0-5s-2.239-5-5-5c-2.136,0-22.862,0-25,0c-2.761,0-5,2.239-5,5s2.239,5,5,5"/>
<path style="fill:none;stroke:#000000;stroke-width:2;stroke-linecap:round;stroke-linejoin:round;stroke-miterlimit:10;" d="M36,24
	l2.443,2.736l-2.086,3.478c-0.539,0.898-0.446,1.997,0.147,2.786c1.515,0,2.875,0,3.97,0c0.055-0.073,0.122-0.133,0.17-0.214l3-5
	c0.547-0.912,0.458-2.07-0.223-2.887l-3.5-4.2C38.491,18.984,36.391,18,34.158,18h-6.316c-2.233,0-4.333,0.984-5.761,2.699
	L18.58,24.9c-0.681,0.817-0.771,1.975-0.223,2.887l3,5c0.047,0.078,0.106,0.143,0.159,0.214c1.156,0,2.514,0,3.981,0
	c0.592-0.789,0.686-1.888,0.147-2.786l-2.086-3.478L26,24"/>
<path style="fill:none;stroke:#000000;stroke-width:2;stroke-linecap:round;stroke-linejoin:round;stroke-miterlimit:10;" d="M20,38
	c0,0,9.119,0,10.5,0s2.5,1.119,2.5,2.5S31.881,43,30.5,43"/>
<path style="fill:none;stroke:#000000;stroke-width:2;stroke-linejoin:round;stroke-miterlimit:10;" d="M48,43H2v4h46V43z"/>
</svg>