<svg xmlns="http://www.w3.org/2000/svg"  viewBox="0 0 128 128" width="64px" height="64px"><path d="M 56 1 C 54.3 1 53 2.3 53 4 C 53 5.7 54.3 7 56 7 L 61 7 L 61 19.099609 C 50.8 19.799609 41.600391 23.799609 34.400391 30.099609 L 25.800781 21.5 L 29.300781 18 C 30.500781 16.8 30.500781 14.900781 29.300781 13.800781 C 28.100781 12.600781 26.199609 12.600781 25.099609 13.800781 L 19.400391 19.5 L 13.699219 25.199219 C 12.499219 26.399219 12.499219 28.300391 13.699219 29.400391 C 14.299219 30.000391 15.100781 30.300781 15.800781 30.300781 C 16.500781 30.300781 17.300391 30.000391 17.900391 29.400391 L 21.400391 25.900391 L 30 34.5 C 23.7 41.7 19.6 50.999609 19 61.099609 L 7 61.099609 L 7 56.099609 C 7 54.399609 5.7 53.099609 4 53.099609 C 2.3 53.099609 1 54.399609 1 56.099609 L 1 72.099609 C 1 73.699609 2.3 75 4 75 C 5.7 75 7 73.7 7 72 L 7 67 L 19.099609 67 C 19.799609 76.9 23.599609 86.199609 30.099609 93.599609 L 21.5 102.19922 L 18 98.599609 C 16.8 97.399609 14.900781 97.399609 13.800781 98.599609 C 12.600781 99.799609 12.600781 101.70078 13.800781 102.80078 L 19.5 108.5 L 25.199219 114.19922 C 25.799219 114.79922 26.600781 115.09961 27.300781 115.09961 C 28.000781 115.09961 28.800391 114.79922 29.400391 114.19922 C 30.600391 112.99922 30.600391 111.1 29.400391 110 L 25.900391 106.5 L 34.5 97.900391 C 34.7 98.100391 34.999219 98.3 35.199219 98.5 C 35.799219 99 36.399609 99.199219 37.099609 99.199219 C 37.999609 99.199219 38.800391 98.799609 39.400391 98.099609 C 40.500391 96.799609 40.3 94.900391 39 93.900391 C 30.1 86.400391 25 75.6 25 64 C 25 42.5 42.5 25 64 25 C 81.5 25 96.999609 36.799219 101.59961 53.699219 C 102.49961 56.999219 103 60.5 103 64 C 103 65.7 104.3 67 106 67 L 121 67 L 121 72 C 121 73.7 122.3 75 124 75 C 125.7 75 127 73.7 127 72 L 127 56 C 127 54.3 125.7 53 124 53 C 122.3 53 121 54.3 121 56 L 121 61 L 108.90039 61 C 108.70039 58 108.20039 54.999609 107.40039 52.099609 C 105.60039 45.399609 102.20039 39.400391 97.900391 34.400391 L 106.5 25.800781 L 110 29.300781 C 110.6 29.900781 111.39961 30.199219 112.09961 30.199219 C 112.79961 30.199219 113.59922 29.900781 114.19922 29.300781 C 115.39922 28.100781 115.39922 26.199609 114.19922 25.099609 L 108.5 19.400391 L 102.80078 13.699219 C 101.60078 12.499219 99.699609 12.499219 98.599609 13.699219 C 97.399609 14.899219 97.399609 16.800391 98.599609 17.900391 L 102.09961 21.400391 L 93.5 30 C 86.3 23.8 77 19.799609 67 19.099609 L 67 7 L 72 7 C 73.7 7 75 5.7 75 4 C 75 2.3 73.7 1 72 1 L 56 1 z M 64 34 C 58.5 34 54 38.5 54 44 C 54 49.5 58.5 54 64 54 C 69.5 54 74 49.5 74 44 C 74 38.5 69.5 34 64 34 z M 64 40 C 66.2 40 68 41.8 68 44 C 68 46.2 66.2 48 64 48 C 61.8 48 60 46.2 60 44 C 60 41.8 61.8 40 64 40 z M 81 51 C 76.3 51 72.099219 53.4 69.699219 57.5 L 40.800781 107.5 C 38.400781 111.6 38.400781 116.4 40.800781 120.5 C 43.200781 124.6 47.399609 127 52.099609 127 L 109.80078 127 C 114.50078 127 118.69961 124.6 121.09961 120.5 C 123.49961 116.4 123.49961 111.6 121.09961 107.5 L 92.199219 57.5 C 89.899219 53.4 85.7 51 81 51 z M 44 54 C 38.5 54 34 58.5 34 64 C 34 69.5 38.5 74 44 74 C 49.5 74 54 69.5 54 64 C 54 58.5 49.5 54 44 54 z M 81 57 C 83.6 57 85.799609 58.3 87.099609 60.5 L 116 110.5 C 117.2 112.7 117.20039 115.3 115.90039 117.5 C 114.60039 119.7 112.40078 121 109.80078 121 L 52.099609 121 C 49.599609 121 47.3 119.7 46 117.5 C 44.7 115.3 44.7 112.7 46 110.5 L 74.900391 60.5 C 76.200391 58.3 78.4 57 81 57 z M 44 60 C 46.2 60 48 61.8 48 64 C 48 66.2 46.2 68 44 68 C 41.8 68 40 66.2 40 64 C 40 61.8 41.8 60 44 60 z M 81 72 C 79.3 72 78 73.3 78 75 L 78 95 C 78 96.7 79.3 98 81 98 C 82.7 98 84 96.7 84 95 L 84 75 C 84 73.3 82.7 72 81 72 z M 81 104 C 79.3 104 78 105.3 78 107 L 78 110 C 78 111.7 79.3 113 81 113 C 82.7 113 84 111.7 84 110 L 84 107 C 84 105.3 82.7 104 81 104 z"/></svg>