<svg xmlns="http://www.w3.org/2000/svg"  viewBox="0 0 128 128" width="64px" height="64px"><path d="M 64 1.0390625 C 34.53 1.0390625 18.300156 1.0405469 9.6601562 10.060547 C 1.3601562 18.720547 1.0097656 33.740859 1.0097656 66.880859 C 1.0097656 94.970859 1.01 110.43977 9.75 118.75977 C 18.42 126.99977 34.61 127 64 127 C 93.42 127 109.63 126.99984 118.25 118.83984 C 127 110.54984 127 95.040859 127 66.880859 C 127 33.730859 126.64961 18.720547 118.34961 10.060547 C 109.69961 1.0405469 93.47 1.0390625 64 1.0390625 z M 64 7.0390625 C 93.14 7.0390625 107.43953 7.3409375 114.01953 14.210938 C 120.69953 21.180937 121 36.219141 121 66.869141 C 121 94.619141 120.70914 108.24047 114.11914 114.48047 C 107.52914 120.72047 93.2 121 64 121 C 34.83 121 20.520625 120.72016 13.890625 114.41016 C 7.300625 108.14016 7.0097656 94.549141 7.0097656 66.869141 C 7.0097656 36.219141 7.3004688 21.180937 13.980469 14.210938 C 20.560469 7.3409375 34.86 7.0390625 64 7.0390625 z M 26 17 C 24.34 17 23 18.34 23 20 C 23 21.66 24.34 23 26 23 L 32 23 C 33.66 23 35 21.66 35 20 C 35 18.34 33.66 17 32 17 L 26 17 z M 48 17 C 46.34 17 45 18.34 45 20 C 45 21.66 46.34 23 48 23 L 78 23 C 79.66 23 81 21.66 81 20 C 81 18.34 79.66 17 78 17 L 48 17 z M 48.609375 35.970703 C 42.699375 35.970703 37.960156 38.790859 34.910156 44.130859 C 31.130156 50.740859 30.049609 61.219141 31.849609 73.619141 C 33.529609 85.169141 37.509531 96.889062 42.769531 105.78906 C 44.669531 108.99906 48.260156 110.55977 51.910156 109.75977 C 55.560156 108.95977 58.170781 106.03055 58.550781 102.31055 C 60.150781 86.590547 62.4 83.289062 64 83.289062 C 65.6 83.289063 67.849219 86.590547 69.449219 102.31055 C 69.819219 106.03055 72.429844 108.95977 76.089844 109.75977 C 76.729844 109.89977 77.370234 109.9707 77.990234 109.9707 C 80.940234 109.9707 83.660469 108.44906 85.230469 105.78906 C 90.490469 96.889062 94.470391 85.169141 96.150391 73.619141 C 97.950391 61.219141 96.869844 50.750859 93.089844 44.130859 C 90.049844 38.790859 85.310625 35.970703 79.390625 35.970703 C 76.170625 35.970703 73.329844 36.820391 70.589844 37.650391 C 68.279844 38.340391 66.09 39 64 39 C 61.91 39 59.720156 38.340391 57.410156 37.650391 C 54.670156 36.820391 51.839375 35.970703 48.609375 35.970703 z M 79.390625 41.960938 C 83.130625 41.960937 85.910859 43.639609 87.880859 47.099609 C 94.210859 58.199609 90.410547 85.240234 80.060547 102.74023 C 79.210547 104.19023 77.779141 104.00016 77.369141 103.91016 C 76.959141 103.82016 75.580156 103.39094 75.410156 101.71094 C 74.430156 91.980938 72.94 77.289062 64 77.289062 C 55.06 77.289063 53.570078 91.980703 52.580078 101.7207 C 52.410078 103.4007 51.039141 103.82992 50.619141 103.91992 C 50.209141 104.00992 48.779688 104.19 47.929688 102.75 C 37.579688 85.24 33.779375 58.199375 40.109375 47.109375 C 42.079375 43.649375 44.859609 41.970703 48.599609 41.970703 C 50.949609 41.970703 53.249688 42.660625 55.679688 43.390625 C 58.309687 44.180625 61.02 45 64 45 C 66.98 45 69.690547 44.180859 72.310547 43.380859 C 74.750547 42.650859 77.050625 41.960938 79.390625 41.960938 z"/></svg>