<?xml version="1.0" encoding="iso-8859-1"?><!-- Generator: Adobe Illustrator 22.1.0, SVG Export Plug-In . SVG Version: 6.00 Build 0)  --><svg xmlns="http://www.w3.org/2000/svg" xmlns:xlink="http://www.w3.org/1999/xlink" viewBox="0 0 50 50" width="50px" height="50px"><rect x="22" y="20" style="fill:none;stroke:#000000;stroke-width:2;stroke-linecap:round;stroke-linejoin:round;stroke-miterlimit:10;" width="9" height="9"/><circle cx="25" cy="26" r="1"/><circle cx="28" cy="26" r="1"/><line style="fill:none;stroke:#000000;stroke-width:2;stroke-linecap:round;stroke-linejoin:round;stroke-miterlimit:10;" x1="25" y1="23" x2="28" y2="23"/><line style="fill:none;stroke:#000000;stroke-width:2;stroke-linecap:round;stroke-linejoin:round;stroke-miterlimit:10;" x1="19" y1="4" x2="35" y2="4"/><line style="fill:none;stroke:#000000;stroke-width:2;stroke-linecap:round;stroke-linejoin:round;stroke-miterlimit:10;" x1="35" y1="4" x2="35" y2="8"/><line style="fill:none;stroke:#000000;stroke-width:2;stroke-linecap:round;stroke-linejoin:round;stroke-miterlimit:10;" x1="27" y1="5" x2="27" y2="20"/><line style="fill:none;stroke:#000000;stroke-width:2;stroke-linecap:round;stroke-linejoin:round;stroke-miterlimit:10;" x1="27" y1="29" x2="27" y2="35"/><path style="fill:none;stroke:#000000;stroke-width:2;stroke-linecap:round;stroke-linejoin:round;stroke-miterlimit:10;" d="M36.232,17h-2.464C32.791,17,32,16.209,32,15.232v-4.464C32,9.791,32.791,9,33.768,9h2.464C37.209,9,38,9.791,38,10.768v4.464C38,16.209,37.209,17,36.232,17z"/><rect x="4" y="26" style="fill:none;stroke:#000000;stroke-width:2;stroke-miterlimit:10;" width="4" height="20"/><rect x="8" y="39" style="fill:none;stroke:#000000;stroke-width:2;stroke-miterlimit:10;" width="34" height="7"/><rect x="42" y="31" style="fill:none;stroke:#000000;stroke-width:2;stroke-miterlimit:10;" width="4" height="15"/><path style="fill:none;stroke:#000000;stroke-width:2;stroke-miterlimit:10;" d="M18.5,39h-8C9.119,39,8,37.881,8,36.5v0c0-1.381,1.119-2.5,2.5-2.5h8c1.381,0,2.5,1.119,2.5,2.5v0C21,37.881,19.881,39,18.5,39z"/></svg>