<?xml version="1.0" encoding="iso-8859-1"?>
<!-- Generator: Adobe Illustrator 23.0.6, SVG Export Plug-In . SVG Version: 6.00 Build 0)  -->
<svg version="1.1" id="Line" xmlns="http://www.w3.org/2000/svg" xmlns:xlink="http://www.w3.org/1999/xlink" x="0px" y="0px"
	 viewBox="0 0 50 50" style="enable-background:new 0 0 50 50;" xml:space="preserve">
<path style="fill:none;stroke:#000000;stroke-width:2;stroke-linecap:round;" d="M41,23.801v-3.402C41,11.301,36.301,4,25,4
	C12.602,4,9,14.102,9,20.398c0,1.301,0,3.5,0,3.5"/>
<path style="fill:none;stroke:#000000;stroke-width:2;stroke-linecap:round;stroke-linejoin:round;" d="M13.199,22.199
	C14.398,19.301,19,19,19,10c3.801,10.699,17.102-1.398,18,12 M18,41.215c-2.867-2.519-4.997-6.46-6.602-10.613
	C9.5,30.398,8,28.801,8,26.801c0-1.102,0.398-1.902,0.898-2.402 M41.102,24.398c0.5,0.5,0.898,1.301,0.898,2.402
	c0,2-1.5,3.5-3.398,3.699c-1.604,4.214-3.735,8.18-6.602,10.709"/>
<path d="M32,26.5c0,0.828-0.672,1.5-1.5,1.5S29,27.328,29,26.5s0.672-0.5,1.5-0.5S32,25.672,32,26.5z M21,26.5
	c0,0.828-0.672,1.5-1.5,1.5S18,27.328,18,26.5s0.672-0.5,1.5-0.5S21,25.672,21,26.5z"/>
<line style="fill:none;stroke:#000000;stroke-width:2;stroke-miterlimit:10;" x1="25" y1="41" x2="25" y2="49"/>
<path d="M27,42l-2,2l-2-2v-2c0-1.105,0.895-2,2-2h0c1.105,0,2,0.895,2,2V42z"/>
<path d="M25,29c-3.555,0-8,8.975-8,12c0,2.484,2.435,4.473,5,5.411v-2.174c-1.631-0.776-3-2.033-3-3.237c0-2.443,4.047-10,6-10
	s6,7.557,6,10c0,1.204-1.369,2.461-3,3.237v2.174c2.565-0.938,5-2.927,5-5.411C33,37.975,28.555,29,25,29z"/>
</svg>