<?xml version="1.0" encoding="utf-8"?><!-- Generator: Adobe Illustrator 15.0.0, SVG Export Plug-In . SVG Version: 6.00 Build 0)  --><!DOCTYPE svg PUBLIC "-//W3C//DTD SVG 1.1//EN" "http://www.w3.org/Graphics/SVG/1.1/DTD/svg11.dtd"><svg xmlns="http://www.w3.org/2000/svg" xmlns:xlink="http://www.w3.org/1999/xlink" viewBox="0 0 50 50" width="500px" height="500px"><path d="M8.2,48.93L8.2,48.93c-1.055,0-1.432-0.509-1.562-0.813c-0.515-1.189,0.59-1.92,2.595-3.244c3.017-1.994,8.633-5.704,15.671-13.891C33.909,20.51,36.841,13.244,38.416,9.341c0.307-0.761,0.563-1.392,0.798-1.891c1.794-3.805,3.528-6.339,6.156-6.339c0.343,0,0.696,0.046,1.052,0.138c0.963,0.249,1.691,0.835,2.107,1.697c0.826,1.708,0.396,4.492-1.277,8.278c-1.695,3.841-8.223,15.683-17.932,24.229C15.122,47.956,9.565,48.93,8.2,48.93z"/><g><path d="M19.219,25.144c4.527-3.891,9.913-7.689,14.512-10.318c1.362-2.606,2.209-4.692,2.832-6.232c0.334-0.833,0.592-1.463,0.844-1.996c0.686-1.453,1.427-2.866,2.289-4.065c-0.279,0.123-0.559,0.243-0.859,0.389c-2.445,1.188-15.093,7.627-24.07,17.823C4.075,32.887,0.86,39.857,1.417,42.332c0.143,0.637,0.532,0.891,0.751,0.984c0.164,0.07,0.338,0.106,0.516,0.106l0,0c0.941,0,1.461-0.787,2.717-2.688C7.384,37.732,11.074,32.146,19.219,25.144z"/></g></svg>