<?xml version="1.0" encoding="iso-8859-1"?>
<!-- Generator: Adobe Illustrator 23.0.2, SVG Export Plug-In . SVG Version: 6.00 Build 0)  -->
<svg version="1.1" xmlns="http://www.w3.org/2000/svg" xmlns:xlink="http://www.w3.org/1999/xlink" x="0px" y="0px"
	 viewBox="0 0 30 30" style="enable-background:new 0 0 30 30;" xml:space="preserve">
<g id="Layer_1">
</g>
<g id="Layer_2">
</g>
<g id="Layer_3">
</g>
<g id="Layer_4">
</g>
<g id="Layer_5">
</g>
<g id="Layer_6">
	<g>
		<path d="M4.01,23.014l-1.79,1.79l-0.5-0.5c-0.39-0.4-1.02-0.41-1.42-0.03c-0.4,0.39-0.41,1.02-0.03,1.42
			c0.01,0.01,0.02,0.02,0.03,0.03l4,4c0.19,0.19,0.45,0.3,0.72,0.3c0.55,0,1-0.45,1-1c0-0.27-0.11-0.53-0.3-0.72l-0.5-0.5l1.79-1.79
			L4.01,23.014z"/>
		<path d="M23.01,11.774v-3.35l6.71-6.7c0.4-0.39,0.41-1.02,0.03-1.42c-0.39-0.4-1.02-0.41-1.42-0.03
			c-0.01,0.01-0.02,0.02-0.03,0.03l-6.7,6.71h-3.35c-1.06,0-2.08,0.42-2.83,1.17l-1.41,1.41l-2.93-2.93c-0.78-0.77-2.05-0.77-2.83,0
			l-3.46,3.46c-0.78,0.78-0.78,2.05,0,2.83l2.93,2.93l-2.71,2.72l-0.29-0.3c-0.2-0.19-0.45-0.29-0.71-0.29s-0.51,0.1-0.71,0.29
			c-0.39,0.39-0.39,1.03,0,1.42l7,7c0.2,0.19,0.45,0.29,0.71,0.29s0.51-0.1,0.71-0.29c0.39-0.39,0.39-1.03,0-1.42l-0.3-0.29
			l2.72-2.71h0l2.58,2.58c0.39,0.39,0.91,0.59,1.42,0.59s1.02-0.2,1.41-0.59l3.46-3.46c0.78-0.78,0.78-2.04,0-2.82l-2.58-2.59
			l1.41-1.41C22.59,13.854,23.01,12.834,23.01,11.774z M14.363,19.697l-0.223-0.223l0,0l-2.04-2.04c0,0,0,0,0,0l-2.96-2.96l0,0
			l-2.93-2.93l3.45-3.46l5.46,5.46l2.48,2.47l4,4l-3.46,3.46L14.363,19.697z M10.01,23.604l-2.96-2.96c-0.35-0.36-0.35-0.94,0-1.29
			c0.36-0.36,0.94-0.36,1.3,0l1.01,1.01c0.36,0.36,0.94,0.36,1.3,0l0.77-0.77l0,0l1.3,1.3L10.01,23.604z M20.76,12.854l-1.75,1.75
			l-1.29-1.3l1.75-1.75c0.41-0.41,1.1-0.33,1.42,0.16C21.11,12.074,21.06,12.554,20.76,12.854z"/>
	</g>
</g>
</svg>