<svg xmlns="http://www.w3.org/2000/svg"  viewBox="0 0 128 128" width="64px" height="64px"><path d="M 51.900391 1.8007812 C 46.100391 1.8007812 40.4 2.8003906 35 4.9003906 C 17.5 11.500391 5.6996094 27.899609 4.0996094 46.599609 L 3.9003906 48.800781 L 4.0996094 48.800781 C 2.7996094 80.400781 23.2 100.79922 33 108.69922 L 33 124 C 33 125.7 34.3 127 36 127 L 74 127 C 75.7 127 77 125.7 77 124 L 77 117 L 84 117 L 84.199219 118.40039 C 84.899219 123.30039 89.099609 127 94.099609 127 L 117 127 C 122.5 127 127 122.5 127 117 L 127 29 C 127 23.5 122.5 19 117 19 L 88.699219 19 C 79.699219 8.3 66.300391 1.8007812 51.900391 1.8007812 z M 48 25 L 118 25 C 119.7 25 121 26.3 121 28 L 121 31 L 48 31 C 46.3 31 45 29.7 45 28 C 45 26.3 46.3 25 48 25 z M 78.800781 36.900391 L 121 36.900391 L 121 117 C 121 119.2 119.2 121 117 121 L 94.099609 121 C 92.099609 121 90.399609 119.5 90.099609 117.5 L 78.800781 36.900391 z M 100.24219 47.503906 C 99.8625 47.488281 99.474609 47.549219 99.099609 47.699219 C 97.499609 48.299219 96.700781 50 97.300781 51.5 L 104.90039 72.800781 C 105.60039 74.600781 105.09922 76.7 103.69922 78 L 101.19922 80.5 C 99.099219 82.6 98 85.300781 98 88.300781 L 98 104 C 98 105.7 99.3 107 101 107 C 102.7 107 104 105.7 104 104 L 104 88.300781 C 104 87.000781 104.5 85.700781 105.5 84.800781 L 108 82.300781 C 111 79.300781 111.99961 74.800781 110.59961 70.800781 L 102.90039 49.5 C 102.45039 48.3 101.38125 47.550781 100.24219 47.503906 z"/></svg>