<?xml version="1.0" encoding="utf-8"?><!-- Generator: Adobe Illustrator 15.0.0, SVG Export Plug-In . SVG Version: 6.00 Build 0)  --><!DOCTYPE svg PUBLIC "-//W3C//DTD SVG 1.1//EN" "http://www.w3.org/Graphics/SVG/1.1/DTD/svg11.dtd"><svg xmlns="http://www.w3.org/2000/svg" xmlns:xlink="http://www.w3.org/1999/xlink" viewBox="0 0 50 50" width="500px" height="500px"><circle cx="25" cy="3" r="3"/><path d="M20.9,10.1c0.124,0,0.23,0.021,0.348,0.028l-0.099-2.663c-0.949-0.151-1.863-0.42-2.26-0.906c0-0.327,0.765-0.982,0.765-3.167c0-1.419-1.42-3.384-3.276-3.384C9.5,0.008,6.878,8.197,0,7.542c0.219,0.765,1.419,3.384,5.35,3.275c0.219,0.765,2.293,1.201,3.494,0.874c0.327,0.328,2.074,0.983,3.275,0.437c0.655,0.546,1.856,0.437,2.62,0c0.145,0.338,0.524,1.059,1.035,1.769C16.409,11.523,18.725,10.1,20.9,10.1z"/><path d="M33.656-0.057c-1.864,0-3.289,1.973-3.289,3.398c0,2.193,0.768,2.851,0.768,3.18c-0.418,0.511-1.405,0.784-2.404,0.931l-0.059,2.684c0.144-0.01,0.276-0.035,0.428-0.035c2.15,0,4.438,1.391,5.104,3.716c0.486-0.688,0.848-1.376,0.988-1.704c0.767,0.438,1.974,0.548,2.631,0c1.207,0.548,2.961-0.109,3.289-0.438c1.316,0.438,3.289,0,3.618-0.877c3.948,0.109,5.154-2.521,5.373-3.289C43.195,8.166,40.563-0.057,33.656-0.057z"/><path d="M29.9,14.9c0,0.521-0.647,1.436-1.628,2.16c0.884,0.466,1.736,1.008,2.47,1.654c0.932-0.687,1.658-1.66,1.658-3.514c0-1.9-1.7-3.1-3.301-3.1c-1.699,0-2.3,0.9-2.3,1.5C26.8,15,29.1,15,29.9,14.9z"/><path d="M24.626,15.467c0.595,0.231,1.245,0.484,1.91,0.77l0.188-8.562C26.185,7.875,25.608,8,25,8c-0.652,0-1.271-0.134-1.843-0.362l0.271,7.329C24.055,15.246,24.619,15.464,24.626,15.467z"/><path d="M27.5,23.8c0,0.834-0.472,1.58-1.02,2.167c0.007,0.004,0.013,0.009,0.019,0.013c0.241,0.169,0.475,0.332,0.676,0.47c0.629,0.434,1.298,0.897,1.942,1.403C30.024,26.852,31,25.329,31,23.4c0-5.5-10.9-6.1-10.9-8.5c0.8,0.1,3.1,0.1,3.1-1.3c0-0.6-0.6-1.5-2.3-1.5c-1.6,0-3.3,1.2-3.3,3.1C17.6,20.6,27.5,20,27.5,23.8z"/><path d="M27.3,33.6c0,0.283-0.117,0.542-0.287,0.775c0,0,1.987,1.266,2.371,1.921c0.583-0.671,1.116-1.628,1.116-2.896c0-4.101-7.9-6.101-7.9-9c0-0.676,0.328-1.286,0.782-1.809c-0.336-0.14-0.659-0.269-0.921-0.373c-0.629-0.25-1.309-0.522-1.987-0.835c-0.571,0.68-1.074,1.596-1.074,2.717C19.4,30,27.3,30.5,27.3,33.6z"/><path d="M24.893,23.903c-0.185,0.213-0.261,0.368-0.284,0.45c0.054,0.106,0.169,0.238,0.313,0.38c0.034-0.042,0.06-0.09,0.097-0.13c0.355-0.381,0.482-0.671,0.485-0.798c-0.043-0.096-0.17-0.207-0.334-0.321C25.095,23.632,25.004,23.774,24.893,23.903z"/><path d="M28.236,46.406c-0.24-1.345-2.745-2.55-3.574-3.082s-1.113-1.579-0.896-2.773c-0.305-0.251-0.895-0.573-1.288-0.787c-0.359-0.196-0.772-0.423-1.197-0.693C21.121,39.5,21,40.005,21,40.6c0,1.583,1.319,3.28,2.917,4.153c1.829,1.121,2.257,1.484,2.351,2.007c0.045,0.25-0.144,0.638-0.529,1.093c-0.358,0.421-0.307,1.052,0.114,1.409c0.188,0.16,0.418,0.238,0.647,0.238c0.283,0,0.565-0.119,0.763-0.353C28.076,48.189,28.395,47.293,28.236,46.406z"/><path d="M25.892,41.543c0.04,0.081,0.064,0.158,0.119,0.242c0.719,0.396,1.594,0.893,2.366,1.521C28.724,42.567,29,41.754,29,41c0-1.722-0.797-3.266-1.417-3.732c0,0-1.3-1.085-2.251-1.645S23.3,34.506,23.3,33.7c0-0.337,0.234-0.753,0.535-1.156c-0.204-0.127-0.404-0.249-0.583-0.356c-0.666-0.402-1.429-0.868-2.18-1.428C20.507,31.468,20,32.385,20,33.4C20,38.674,26.718,37.451,25.892,41.543z"/><path d="M24.036,47.6c-0.007-0.003-0.739-0.394-0.857-1.029c-0.047-0.253,0.012-0.521,0.124-0.787c-0.03-0.019-0.051-0.036-0.082-0.056c-0.503-0.274-1.077-0.593-1.637-0.975c-0.371,0.742-0.503,1.473-0.371,2.184c0.302,1.622,1.785,2.383,1.953,2.464c0.14,0.067,0.289,0.1,0.435,0.1c0.371,0,0.728-0.208,0.901-0.564C24.741,48.438,24.533,47.841,24.036,47.6z"/></svg>