<svg xmlns="http://www.w3.org/2000/svg"  viewBox="0 0 128 128" width="64px" height="64px"><path d="M57.2 70.1c-1.4-.9-3.2-.5-4.1.9C51.7 73 51 75.5 51 78c0 7.2 5.8 13 13 13 2.4 0 4.8-.7 6.8-1.9 1.4-.9 1.8-2.7 1-4.1-.9-1.4-2.7-1.8-4.1-1-1.1.7-2.4 1-3.7 1-3.9 0-7-3.1-7-7 0-1.4.4-2.7 1.1-3.8C59 72.8 58.6 71 57.2 70.1zM116 97c-1.7 0-3 1.3-3 3s1.3 3 3 3c2.8 0 5 2.2 5 5 0 1.7 1.3 3 3 3s3-1.3 3-3C127 101.9 122.1 97 116 97zM92 127c1.7 0 3-1.3 3-3v-16c0-1.7-1.3-3-3-3s-3 1.3-3 3v16C89 125.7 90.3 127 92 127zM40 53c-3.9 0-7-3.1-7-7 0-1.7-1.3-3-3-3s-3 1.3-3 3c0 7.2 5.8 13 13 13 1.7 0 3-1.3 3-3S41.7 53 40 53zM4 127c1.7 0 3-1.3 3-3v-16c0-2.8 2.2-5 5-5h16c2.8 0 5 2.2 5 5v16c0 1.7 1.3 3 3 3s3-1.3 3-3v-16c0-6.1-4.9-11-11-11H12c-6.1 0-11 4.9-11 11v16C1 125.7 2.3 127 4 127zM7 78c0 7.2 5.8 13 13 13s13-5.8 13-13-5.8-13-13-13S7 70.8 7 78zM27 78c0 3.9-3.1 7-7 7s-7-3.1-7-7 3.1-7 7-7S27 74.1 27 78zM45 108v16c0 1.7 1.3 3 3 3s3-1.3 3-3v-16c0-2.8 2.2-5 5-5h16c2.8 0 5 2.2 5 5v16c0 1.7 1.3 3 3 3s3-1.3 3-3v-16c0-6.1-4.9-11-11-11H56C49.9 97 45 101.9 45 108zM108 91c7.2 0 13-5.8 13-13s-5.8-13-13-13-13 5.8-13 13S100.8 91 108 91zM108 71c3.9 0 7 3.1 7 7s-3.1 7-7 7-7-3.1-7-7S104.1 71 108 71zM84 33c-7.2 0-13 5.8-13 13s5.8 13 13 13 13-5.8 13-13S91.2 33 84 33zM84 53c-3.9 0-7-3.1-7-7s3.1-7 7-7 7 3.1 7 7S87.9 53 84 53zM60 1c-7.2 0-13 5.8-13 13s5.8 13 13 13 13-5.8 13-13S67.2 1 60 1zM60 21c-3.9 0-7-3.1-7-7s3.1-7 7-7 7 3.1 7 7S63.9 21 60 21zM16.1 11.9c-1.2-1.2-3.1-1.2-4.2 0-1.2 1.2-1.2 3.1 0 4.2l110 110c.6.6 1.4.9 2.1.9s1.5-.3 2.1-.9c1.2-1.2 1.2-3.1 0-4.2L16.1 11.9z"/></svg>