<svg xmlns="http://www.w3.org/2000/svg"  viewBox="0 0 128 128" width="64px" height="64px"><path d="M 64 8 C 47.02 8 17.319922 9.3400781 9.1699219 18.330078 C 7.1199219 20.580078 6.8697656 22.809062 7.0097656 24.289062 C 7.0097656 24.319062 7.0195312 24.350859 7.0195312 24.380859 L 16.150391 95.279297 C 19.310391 116.3293 35.609609 127 64.599609 127 C 84.829609 127 109.66945 121.3293 113.18945 94.279297 L 120.99023 24.300781 C 121.13023 22.820781 120.87984 20.599609 118.83984 18.349609 C 110.66984 9.3396094 80.98 8 64 8 z M 64 14 C 104.73 14 113.12063 20.979141 114.39062 22.369141 C 115.07062 23.119141 115.02953 23.560156 115.01953 23.660156 L 107.23047 93.550781 C 104.86047 111.77078 90.519609 121 64.599609 121 C 38.679609 121 24.779609 112.29922 22.099609 94.449219 L 12.980469 23.669922 C 12.970469 23.499922 12.979375 23.059375 13.609375 22.359375 C 17.279375 18.319375 32.44 14 64 14 z M 25.425781 30.837891 C 24.029336 30.814102 22.764219 31.771953 22.449219 33.189453 C 22.089219 34.809453 23.110469 36.409531 24.730469 36.769531 C 27.220469 37.319531 29.990703 37.810703 32.970703 38.220703 C 33.110703 38.240703 33.250625 38.25 33.390625 38.25 C 34.860625 38.25 36.149609 37.160391 36.349609 35.650391 C 36.579609 34.010391 35.429063 32.499531 33.789062 32.269531 C 30.969062 31.879531 28.359297 31.420156 26.029297 30.910156 C 25.826797 30.865156 25.625273 30.841289 25.425781 30.837891 z M 95.740234 32.121094 C 95.395059 32.130957 95.046719 32.160938 94.699219 32.210938 C 86.329219 33.400938 76 34 64 34 C 59.62 34 55.419766 33.919766 51.509766 33.759766 C 49.839766 33.679766 48.460625 34.970859 48.390625 36.630859 C 48.320625 38.290859 49.599766 39.68 51.259766 39.75 C 55.259766 39.92 59.54 40 64 40 C 76.29 40 86.899062 39.380391 95.539062 38.150391 C 96.469063 38.020391 97.390547 38.320703 98.060547 38.970703 C 98.730547 39.620703 99.049219 40.519219 98.949219 41.449219 L 93.330078 91.880859 C 92.740078 96.400859 91.359609 107 64.599609 107 C 38.149609 107 36.720938 97.539766 35.960938 92.509766 L 30.660156 51.349609 C 30.450156 49.709609 28.940781 48.549766 27.300781 48.759766 C 25.660781 48.969766 24.500937 50.479141 24.710938 52.119141 L 30.019531 93.349609 C 31.399531 102.49961 36.569609 113 64.599609 113 C 96.629609 113 98.559062 98.219609 99.289062 92.599609 L 104.91992 42.109375 C 105.22992 39.329375 104.25023 36.610156 102.24023 34.660156 C 100.48148 32.953906 98.156465 32.052051 95.740234 32.121094 z M 56 50 A 4 4 0 0 0 56 58 A 4 4 0 0 0 56 50 z M 46 80 A 4 4 0 0 0 46 88 A 4 4 0 0 0 46 80 z M 66 90 A 4 4 0 0 0 66 98 A 4 4 0 0 0 66 90 z"/></svg>