<svg xmlns="http://www.w3.org/2000/svg"  viewBox="0 0 128 128" width="64px" height="64px"><path d="M 96.548828 2.2480469 C 94.376086 2.2464893 92.286484 3.256875 90.849609 5.140625 L 50.369141 59.509766 C 48.769141 61.759766 48.570078 64.679375 49.830078 67.109375 C 51.080078 69.509375 53.519219 71 56.199219 71 L 76.169922 71 C 76.669922 71 76.969609 71.279219 77.099609 71.449219 C 77.239609 71.629219 77.440547 71.989297 77.310547 72.529297 L 70.369141 100.96094 C 69.599141 104.18094 71.059531 107.38945 74.019531 108.93945 C 75.129531 109.51945 76.300938 109.80078 77.460938 109.80078 C 79.450937 109.80078 81.380781 108.97086 82.800781 107.38086 L 123.24023 62.050781 L 123.25977 62.029297 C 125.13977 59.879297 125.54906 56.809219 124.28906 54.199219 C 123.02906 51.569219 120.46055 50.019141 117.56055 50.119141 L 97.150391 50.119141 C 96.740391 50.119141 96.440078 49.799922 96.330078 49.669922 C 96.080078 49.349922 95.959297 48.960859 96.029297 48.630859 L 103.65039 10.880859 C 104.30039 7.5008594 102.62977 4.290625 99.509766 2.890625 C 98.541016 2.459375 97.536438 2.2487549 96.548828 2.2480469 z M 96.529297 8.25 C 96.719297 8.25 96.900781 8.2991406 97.050781 8.3691406 C 97.380781 8.5091406 97.91 8.8907031 97.75 9.7207031 L 90.140625 47.449219 C 89.710625 49.559219 90.279687 51.760703 91.679688 53.470703 C 93.059688 55.150703 95.050625 56.109375 97.140625 56.109375 L 117.58984 56.109375 L 117.73047 56.109375 C 118.40047 56.079375 118.72938 56.519062 118.85938 56.789062 C 118.96938 56.999063 119.16047 57.560547 118.73047 58.060547 L 78.320312 103.38086 C 77.750313 104.03086 77.070781 103.77086 76.800781 103.63086 C 76.270781 103.35086 76.069219 102.91914 76.199219 102.36914 L 83.130859 73.970703 C 83.680859 71.780703 83.200078 69.519766 81.830078 67.759766 C 80.450078 66.009766 78.390156 65 76.160156 65 L 56.199219 65 C 55.589219 65 55.289922 64.589844 55.169922 64.339844 C 55.029922 64.079844 54.860469 63.549531 55.230469 63.019531 L 95.630859 8.75 C 95.920859 8.37 96.239297 8.25 96.529297 8.25 z M 22 38 C 14.96 38 9.3292188 41.360703 5.6992188 47.720703 C 1.1192188 55.760703 -0.19023438 68.529687 2.0097656 83.679688 C 4.0697656 97.839688 8.9503906 112.22086 15.400391 123.13086 C 17.200391 126.18086 20.340234 127.93945 23.740234 127.93945 C 24.460234 127.93945 25.189688 127.85945 25.929688 127.68945 C 30.139688 126.76945 33.140078 123.39938 33.580078 119.10938 C 34.190078 113.14938 36.03 95 41 95 C 45.97 95 47.809922 113.14961 48.419922 119.09961 C 48.849922 123.37961 51.860312 126.74969 56.070312 127.67969 C 60.280312 128.60969 64.409609 126.80938 66.599609 123.10938 C 67.139609 122.20937 67.659922 121.28984 68.169922 120.33984 C 68.949922 118.88984 68.409219 117.0693 66.949219 116.2793 C 65.499219 115.4993 63.680625 116.04 62.890625 117.5 C 62.420625 118.38 61.929453 119.23031 61.439453 120.07031 C 60.139453 122.26031 57.989375 121.97984 57.359375 121.83984 C 56.059375 121.54984 54.590625 120.52977 54.390625 118.50977 C 53.200625 106.75977 51.4 89 41 89 C 30.6 89 28.799375 106.75977 27.609375 118.50977 C 27.409375 120.52977 25.940625 121.54984 24.640625 121.83984 C 24.000625 121.97984 21.850547 122.26031 20.560547 120.07031 C 7.6805469 98.280312 2.9901563 64.569453 10.910156 50.689453 C 13.480156 46.189453 17.11 44 22 44 C 25 44 27.879219 44.869062 30.949219 45.789062 C 34.139219 46.749063 37.439766 47.740234 41.009766 47.740234 C 42.619766 47.740234 44.320703 47.539141 46.220703 47.119141 C 47.840703 46.759141 48.86 45.159063 48.5 43.539062 C 48.14 41.919063 46.539922 40.899766 44.919922 41.259766 C 43.449922 41.579766 42.17 41.740234 41 41.740234 C 38.31 41.740234 35.560156 40.909062 32.660156 40.039062 C 29.330156 39.039062 25.88 38 22 38 z"/></svg>