<?xml version="1.0" encoding="iso-8859-1"?><!-- Generator: Adobe Illustrator 23.0.0, SVG Export Plug-In . SVG Version: 6.00 Build 0)  --><svg xmlns="http://www.w3.org/2000/svg" xmlns:xlink="http://www.w3.org/1999/xlink" viewBox="0 0 50 50" width="50px" height="50px"><g id="&#x421;&#x43B;&#x43E;&#x439;_1" style="display:none;"></g><g id="&#x421;&#x43B;&#x43E;&#x439;_2"><path style="fill:none;stroke:#000000;stroke-width:2;stroke-miterlimit:10;" d="M29,15h-8l1.739-10.304C22.889,3.72,23.729,3,24.716,3h0.568c0.987,0,1.827,0.72,1.977,1.696L29,15z"/><path style="fill:none;stroke:#000000;stroke-width:2;stroke-miterlimit:10;" d="M31,19.166L31,17c0-1.105-0.895-2-2-2h-8c-1.105,0-2,0.895-2,2l0,2.166c0,0.704-0.367,1.361-0.977,1.712c-4.537,2.614-7.477,7.686-6.966,13.406c0.614,6.873,6.374,12.375,13.267,12.699C32.363,47.362,39,40.956,39,33c0-5.187-2.828-9.703-7.02-12.12C31.369,20.528,31,19.871,31,19.166z"/></g><g id="&#x421;&#x43B;&#x43E;&#x439;_3" style="display:none;"></g></svg>