<?xml version="1.0" encoding="iso-8859-1"?><!-- Generator: Adobe Illustrator 19.1.1, SVG Export Plug-In . SVG Version: 6.00 Build 0)  --><svg xmlns="http://www.w3.org/2000/svg" xmlns:xlink="http://www.w3.org/1999/xlink" viewBox="0 0 50 50" width="500px" height="500px"><path d="M42.024,21.497l-2-15.96c-0.006-0.047-0.015-0.093-0.026-0.139C39.849,4.842,38.161-0.033,25-0.033c-13.162,0-14.849,4.875-14.998,5.43C9.99,5.443,9.981,5.49,9.975,5.537l-2,15.96c-0.041,0.33,0.079,0.659,0.322,0.885C8.49,22.561,8.742,22.658,9,22.658c0.068,0,0.136-0.006,0.204-0.02c0.092-0.019,9.307-1.855,15.796-1.855c6.485,0,15.704,1.836,15.797,1.855c0.325,0.065,0.662-0.03,0.906-0.256C41.946,22.156,42.066,21.826,42.024,21.497z M30,12h-4v4h-2v-4h-4v-2h4V6h2v4h4V12z"/><path fill="none" stroke="#000000" stroke-width="2" stroke-linecap="round" stroke-miterlimit="10" d="M39,21.438v5.042c0,0,3-0.512,3,3.32c0,1.987-1.49,3.602-3.393,3.801C35.891,40.753,31.71,49,25.004,49s-10.886-8.246-13.602-15.398C9.494,33.407,8,31.79,8,29.8c0-3.696,3-3.324,3-3.324v-5.038"/><path d="M41,21.625c0,0,0.77,1.116,1.263,5.447C40.706,25.794,39,26.48,39,26.48l-0.3-4.855H41z"/><path d="M9,21.625c0,0-0.77,1.116-1.263,5.447C9.294,25.794,11,26.48,11,26.48l0.3-4.855H9z"/></svg>