<svg xmlns="http://www.w3.org/2000/svg"  viewBox="0 0 128 128" width="64px" height="64px"><path d="M 50.402344 1.546875 C 49.01875 1.5591797 47.750391 2.5003906 47.400391 3.9003906 L 46 10.099609 C 41.7 9.6996094 37.4 10.500391 33.5 12.400391 L 30.099609 7.1992188 C 29.199609 5.7992188 27.3 5.4007812 26 6.3007812 C 24.6 7.2007813 24.199609 9.1003906 25.099609 10.400391 L 28.5 15.599609 C 25.2 18.399609 22.700781 22 21.300781 26 L 15.199219 24.699219 C 13.599219 24.399219 11.999609 25.4 11.599609 27 C 11.299609 28.6 12.300391 30.199609 13.900391 30.599609 L 20 31.900391 C 19.6 36.300391 20.500781 40.600391 22.300781 44.400391 L 17.099609 47.800781 C 15.699609 48.700781 15.299219 50.600391 16.199219 51.900391 C 16.799219 52.800391 17.699219 53.300781 18.699219 53.300781 C 19.299219 53.300781 19.800781 53.100781 20.300781 52.800781 L 25.5 49.400391 C 28.2 52.600391 31.800391 55.099609 35.900391 56.599609 L 34.599609 62.699219 C 34.299609 64.299219 35.300391 65.900781 36.900391 66.300781 C 37.100391 66.300781 37.3 66.400391 37.5 66.400391 C 38.9 66.400391 40.100391 65.4 40.400391 64 L 41.699219 57.900391 C 42.699219 58.000391 43.4 58 44 58 C 47.6 58 51.100391 57.199609 54.400391 55.599609 L 57.800781 60.800781 C 58.400781 61.700781 59.300781 62.199219 60.300781 62.199219 C 60.900781 62.199219 61.400391 61.999219 61.900391 61.699219 C 63.300391 60.799219 63.700781 58.899609 62.800781 57.599609 L 59.400391 52.400391 C 62.800391 49.500391 65.199609 46.000391 66.599609 41.900391 L 72.699219 43.199219 C 72.899219 43.199219 73.100781 43.300781 73.300781 43.300781 C 74.700781 43.300781 75.899219 42.300391 76.199219 40.900391 C 76.499219 39.300391 75.500391 37.700781 73.900391 37.300781 L 67.900391 36 C 68.300391 31.6 67.399609 27.3 65.599609 23.5 L 70.800781 20.099609 C 72.200781 19.199609 72.599219 17.3 71.699219 16 C 70.799219 14.6 68.899609 14.199609 67.599609 15.099609 L 62.400391 18.5 C 59.700391 15.3 56.1 12.800781 52 11.300781 L 53.300781 5.1992188 C 53.600781 3.5992187 52.6 1.9996094 51 1.5996094 C 50.8 1.5621094 50.6 1.5451172 50.402344 1.546875 z M 37.115234 34.927734 C 37.374609 34.926172 37.637891 34.95 37.900391 35 C 40.100391 35.4 41.4 37.499219 41 39.699219 C 40.5 41.899219 38.400781 43.200781 36.300781 42.800781 C 34.100781 42.300781 32.799219 40.199609 33.199219 38.099609 C 33.636719 36.174609 35.299609 34.938672 37.115234 34.927734 z M 94 43 C 92.3 43 91 44.3 91 46 L 91 52.199219 C 86.6 52.699219 82.600781 54.499609 79.300781 57.099609 L 74.900391 52.699219 C 73.700391 51.499219 71.799219 51.499219 70.699219 52.699219 C 69.499219 53.899219 69.499219 55.800391 70.699219 56.900391 L 75.099609 61.300781 C 72.499609 64.600781 70.799219 68.6 70.199219 73 L 64 73 C 62.3 73 61 74.3 61 76 C 61 77.7 62.3 79 64 79 L 70.199219 79 C 70.699219 83.4 72.499609 87.399219 75.099609 90.699219 L 70.699219 95.099609 C 69.499219 96.299609 69.499219 98.200781 70.699219 99.300781 C 71.299219 99.900781 72.100781 100.19922 72.800781 100.19922 C 73.500781 100.19922 74.300391 99.900781 74.900391 99.300781 L 79.300781 94.900391 C 82.600781 97.500391 86.6 99.200781 91 99.800781 L 91 106 C 91 107.7 92.3 109 94 109 C 95.7 109 97 107.7 97 106 L 97 99.800781 C 101.4 99.300781 105.39922 97.500391 108.69922 94.900391 L 113.09961 99.300781 C 113.69961 99.900781 114.49922 100.19922 115.19922 100.19922 C 115.89922 100.19922 116.70078 99.900781 117.30078 99.300781 C 118.50078 98.100781 118.50078 96.199609 117.30078 95.099609 L 112.90039 90.699219 C 115.50039 87.399219 117.20078 83.4 117.80078 79 L 124 79 C 125.7 79 127 77.7 127 76 C 127 74.3 125.7 73 124 73 L 117.80078 73 C 117.30078 68.6 115.50039 64.600781 112.90039 61.300781 L 117.30078 56.900391 C 118.50078 55.700391 118.50078 53.799219 117.30078 52.699219 C 116.10078 51.499219 114.19961 51.499219 113.09961 52.699219 L 108.69922 57.099609 C 105.39922 54.499609 101.4 52.799219 97 52.199219 L 97 46 C 97 44.3 95.7 43 94 43 z M 26.730469 61.619141 C 26.523438 61.624219 26.312109 61.649219 26.099609 61.699219 C 24.499609 61.999219 23.400781 63.600781 23.800781 65.300781 L 25.099609 71.400391 C 21.099609 72.800391 17.499219 75.199609 14.699219 78.599609 L 9.5 75.199219 C 8.1 74.299219 6.3003906 74.699609 5.4003906 76.099609 C 4.5003906 77.499609 4.9007812 79.299219 6.3007812 80.199219 L 11.5 83.599609 C 9.6 87.599609 8.7992187 91.899609 9.1992188 96.099609 L 3 97.300781 C 1.4 97.600781 0.29921875 99.200391 0.69921875 100.90039 C 0.99921875 102.30039 2.2992187 103.19922 3.6992188 103.19922 C 3.8992188 103.19922 4.1007813 103.19961 4.3007812 103.09961 L 10.400391 101.80078 C 11.800391 105.80078 14.199609 109.39922 17.599609 112.19922 L 14.199219 117.40039 C 13.299219 118.80039 13.699609 120.6 15.099609 121.5 C 15.599609 121.8 16.199219 122 16.699219 122 C 17.699219 122 18.599219 121.49961 19.199219 120.59961 L 22.599609 115.40039 C 25.899609 117.00039 29.5 117.80078 33 117.80078 C 33.7 117.80078 34.399609 117.79922 35.099609 117.69922 L 36.400391 123.80078 C 36.700391 125.20078 37.900781 126.19922 39.300781 126.19922 C 39.500781 126.19922 39.700391 126.19961 39.900391 126.09961 C 41.500391 125.79961 42.599219 124.2 42.199219 122.5 L 40.900391 116.40039 C 44.900391 115.00039 48.500391 112.59922 51.400391 109.19922 L 56.599609 112.59961 C 57.099609 112.89961 57.699219 113.09961 58.199219 113.09961 C 59.199219 113.09961 60.099219 112.59922 60.699219 111.69922 C 61.599219 110.29922 61.200781 108.49961 59.800781 107.59961 L 54.599609 104.19922 C 56.499609 100.19922 57.300391 95.899219 56.900391 91.699219 L 63 90.400391 C 64.6 90.100391 65.700781 88.500781 65.300781 86.800781 C 65.000781 85.200781 63.399219 84.1 61.699219 84.5 L 55.599609 85.800781 C 54.199609 81.800781 51.800391 78.200391 48.400391 75.400391 L 51.800781 70.199219 C 52.700781 68.799219 52.300391 66.999609 50.900391 66.099609 C 49.500391 65.199609 47.700781 65.6 46.800781 67 L 43.400391 72.199219 C 39.400391 70.299219 35.100391 69.500391 30.900391 69.900391 L 29.699219 64 C 29.436719 62.6 28.179687 61.583594 26.730469 61.619141 z M 100 66 C 102.2 66 104 67.8 104 70 C 104 72.2 102.2 74 100 74 C 97.8 74 96 72.2 96 70 C 96 67.8 97.8 66 100 66 z M 88 78 C 90.2 78 92 79.8 92 82 C 92 84.2 90.2 86 88 86 C 85.8 86 84 84.2 84 82 C 84 79.8 85.8 78 88 78 z M 40.884766 87.550781 C 41.651172 87.538477 42.424609 87.749219 43.099609 88.199219 C 44.899609 89.399219 45.500781 91.899219 44.300781 93.699219 C 43.100781 95.499219 40.600781 96.100391 38.800781 94.900391 C 37.000781 93.700391 36.399609 91.200391 37.599609 89.400391 C 38.349609 88.212891 39.607422 87.571289 40.884766 87.550781 z"/></svg>