<?xml version="1.0" encoding="iso-8859-1"?>
<!-- Generator: Adobe Illustrator 23.0.6, SVG Export Plug-In . SVG Version: 6.00 Build 0)  -->
<svg version="1.1" id="Filled" xmlns="http://www.w3.org/2000/svg" xmlns:xlink="http://www.w3.org/1999/xlink" x="0px" y="0px"
	 viewBox="0 0 50 50" style="enable-background:new 0 0 50 50;" xml:space="preserve">
<line style="fill:none;stroke:#000000;stroke-width:2;stroke-linecap:round;stroke-miterlimit:10;" x1="44" y1="45" x2="6" y2="45"/>
<path d="M12,26c-1.654,0-3-1.346-3-3V7c0-1.654,1.346-3,3-3s3,1.346,3,3v16C15,24.654,13.654,26,12,26z"/>
<line style="fill:none;stroke:#000000;stroke-width:2;stroke-linecap:round;stroke-linejoin:round;stroke-miterlimit:10;" x1="12" y1="25" x2="12" y2="41"/>
<path d="M26,26c-1.654,0-3-1.346-3-3V7c0-1.654,1.346-3,3-3s3,1.346,3,3v16C29,24.654,27.654,26,26,26z"/>
<line style="fill:none;stroke:#000000;stroke-width:2;stroke-linecap:round;stroke-linejoin:round;stroke-miterlimit:10;" x1="26" y1="25" x2="26" y2="44"/>
</svg>