<?xml version="1.0" encoding="utf-8"?><!-- Generator: Adobe Illustrator 15.0.0, SVG Export Plug-In . SVG Version: 6.00 Build 0)  --><!DOCTYPE svg PUBLIC "-//W3C//DTD SVG 1.1//EN" "http://www.w3.org/Graphics/SVG/1.1/DTD/svg11.dtd"><svg xmlns="http://www.w3.org/2000/svg" xmlns:xlink="http://www.w3.org/1999/xlink" viewBox="0 0 50 50" width="500px" height="500px"><rect x="47" y="14" width="3" height="2"/><rect x="47" y="34" width="3" height="2"/><rect y="14" width="3" height="2"/><rect y="34" width="3" height="2"/><path d="M45,13H5c-0.552,0-1,0.448-1,1v22c0,0.553,0.448,1,1,1h40c0.553,0,1-0.447,1-1V14C46,13.448,45.553,13,45,13z M41,27c0,1.1-0.9,2-2,2h-8c0,1.1-0.9,2-2,2h-6c-3.3,0-6-2.7-6-6c0,2.209-1.791,4-4,4s-4-1.791-4-4s1.791-4,4-4s4,1.791,4,4c0-3.3,2.7-6,6-6h6c1.1,0,2,0.9,2,2h8c1.1,0,2,0.9,2,2V27z"/></svg>