<svg xmlns="http://www.w3.org/2000/svg"  viewBox="0 0 128 128" width="64px" height="64px"><path d="M4 127h32c1.7 0 3-1.3 3-3v-16c0-6.1-4.9-11-11-11H12c-6.1 0-11 4.9-11 11v16C1 125.7 2.3 127 4 127zM20 65A13 13 0 1020 91 13 13 0 1020 65zM80 127c1.7 0 3-1.3 3-3v-16c0-6.1-4.9-11-11-11H56c-6.1 0-11 4.9-11 11v16c0 1.7 1.3 3 3 3H80zM121.1 125.3L94.9 99.2c-.4-.4-.9-.4-1.3-.1-2.8 2-4.6 5.3-4.6 8.9v16c0 1.7 1.3 3 3 3h28.3C121.2 127 121.7 125.9 121.1 125.3zM116 97h-12.3c-.9 0-1.3 1.1-.7 1.7l22.3 22.3c.6.6 1.7.2 1.7-.7V108C127 101.9 122.1 97 116 97zM108 65A13 13 0 10108 91 13 13 0 10108 65zM94.4 90.2L6.1 1.9C5 .7 3 .7 1.9 1.9c-1.2 1.2-1.2 3.1 0 4.2L31.7 36c-2.9 2.4-4.7 6-4.7 10 0 7.2 5.8 13 13 13 4 0 7.6-1.8 10-4.7l11.1 11.1C55.3 66.7 51 71.8 51 78c0 7.2 5.8 13 13 13 6.2 0 11.3-4.3 12.7-10.1l13.5 13.5c.7.7 1.8 1 2.8.8C95.3 94.7 96.1 91.8 94.4 90.2zM84 33A13 13 0 1084 59 13 13 0 1084 33zM60 1A13 13 0 1060 27 13 13 0 1060 1z"/></svg>