<svg xmlns="http://www.w3.org/2000/svg"  viewBox="0 0 128 128" width="64px" height="64px"><path d="M91 124c0-1.7-1.3-3-3-3H40c-1.7 0-3 1.3-3 3s1.3 3 3 3h48C89.7 127 91 125.7 91 124zM20 1A11 11 0 1020 23 11 11 0 1020 1zM8.5 76.7l1.5.4V111c0 5.5 4.5 10 10 10s10-4.5 10-10V77.1l1.5-.4c4.4-1.1 7.5-5.1 7.5-9.7V40c0-6.1-4.9-11-11-11H12C5.9 29 1 33.9 1 40v27C1 71.6 4.1 75.5 8.5 76.7zM108 1A11 11 0 10108 23 11 11 0 10108 1zM116 29h-16c-6.1 0-11 4.9-11 11v27c0 4.6 3.1 8.5 7.5 9.7l1.5.4V111c0 5.5 4.5 10 10 10s10-4.5 10-10V77.1l1.5-.4c4.4-1.1 7.5-5.1 7.5-9.7V40C127 33.9 122.1 29 116 29z"/></svg>