<svg xmlns="http://www.w3.org/2000/svg"  viewBox="0 0 128 128" width="64px" height="64px"><path d="M 34.199219 1 C 32.399219 0.9 31 2.3 31 4 L 31 11 L 4.1992188 11 C 2.5992187 11 1.1 12.200781 1 13.800781 C 0.9 15.600781 2.3 17 4 17 L 123.90039 17 C 125.60039 17 126.90039 15.7 126.90039 14 C 126.90039 12.3 125.60039 11 123.90039 11 L 97 11 L 97 4.1992188 C 97 2.5992187 95.799219 1.1 94.199219 1 C 92.399219 0.9 91 2.3 91 4 L 91 11 L 37 11 L 37 4.1992188 C 37 2.5992187 35.799219 1.1 34.199219 1 z M 11 31 C 5.5 31 1 35.5 1 41 L 1 117 C 1 122.5 5.5 127 11 127 L 117 127 C 122.5 127 127 122.5 127 117 L 127 41 C 127 35.5 122.5 31 117 31 L 11 31 z M 88 55 C 89.7 55 91 56.3 91 58 L 91 64.199219 C 95.4 64.699219 99.399219 66.499609 102.69922 69.099609 L 107.09961 64.699219 C 108.29961 63.499219 110.20078 63.499219 111.30078 64.699219 C 112.50078 65.899219 112.50078 67.800391 111.30078 68.900391 L 106.90039 73.300781 C 109.50039 76.600781 111.20078 80.6 111.80078 85 L 118 85 C 119.7 85 121 86.3 121 88 C 121 89.7 119.7 91 118 91 L 111.80078 91 C 111.30078 95.4 109.50039 99.399219 106.90039 102.69922 L 111.30078 107.09961 C 112.50078 108.29961 112.50078 110.20078 111.30078 111.30078 C 110.70078 111.90078 109.89922 112.19922 109.19922 112.19922 C 108.49922 112.19922 107.69961 111.90078 107.09961 111.30078 L 102.69922 106.90039 C 99.399219 109.50039 95.4 111.20078 91 111.80078 L 91 118 C 91 119.7 89.7 121 88 121 C 86.3 121 85 119.7 85 118 L 85 111.80078 C 80.6 111.30078 76.600781 109.50039 73.300781 106.90039 L 68.900391 111.30078 C 68.300391 111.90078 67.500781 112.19922 66.800781 112.19922 C 66.100781 112.19922 65.299219 111.90078 64.699219 111.30078 C 63.499219 110.10078 63.499219 108.19961 64.699219 107.09961 L 69.099609 102.69922 C 66.499609 99.399219 64.799219 95.4 64.199219 91 L 58 91 C 56.3 91 55 89.7 55 88 C 55 86.3 56.3 85 58 85 L 64.199219 85 C 64.699219 80.6 66.499609 76.600781 69.099609 73.300781 L 64.699219 68.900391 C 63.499219 67.700391 63.499219 65.799219 64.699219 64.699219 C 65.899219 63.499219 67.800391 63.499219 68.900391 64.699219 L 73.300781 69.099609 C 76.600781 66.499609 80.6 64.799219 85 64.199219 L 85 58 C 85 56.3 86.3 55 88 55 z M 94 78 A 4 4 0 0 0 94 86 A 4 4 0 0 0 94 78 z M 82 90 A 4 4 0 0 0 82 98 A 4 4 0 0 0 82 90 z"/></svg>