<svg xmlns="http://www.w3.org/2000/svg"  viewBox="0 0 128 128" width="64px" height="64px"><path d="M 22 1 C 14.96 1 9.3292188 4.3607031 5.6992188 10.720703 C 1.1192188 18.760703 -0.19023438 31.529688 2.0097656 46.679688 C 4.0697656 60.839687 8.9503906 75.220859 15.400391 86.130859 C 17.200391 89.180859 20.340234 90.939453 23.740234 90.939453 C 24.460234 90.939453 25.189688 90.859453 25.929688 90.689453 C 30.139688 89.769453 33.150078 86.399375 33.580078 82.109375 C 34.190078 76.149375 36.03 58 41 58 C 41.38 58 42.520156 58 43.910156 60.5 C 44.720156 61.94 46.540234 62.470156 47.990234 61.660156 C 49.430234 60.850156 49.950391 59.030078 49.150391 57.580078 C 46.580391 52.970078 43.3 52 41 52 C 30.61 52 28.799375 69.759766 27.609375 81.509766 C 27.409375 83.529766 25.940625 84.549844 24.640625 84.839844 C 24.010625 84.979844 21.850547 85.260312 20.560547 83.070312 C 7.6805469 61.280313 2.9901563 27.569453 10.910156 13.689453 C 13.480156 9.1894531 17.11 7 22 7 C 25 7 27.879453 7.8690625 30.939453 8.7890625 C 34.129453 9.7490625 37.43 10.740234 41 10.740234 C 44.57 10.740234 47.870547 9.7490625 51.060547 8.7890625 C 54.120547 7.8690625 57 7 60 7 C 63.66 7 66.570391 8.2094531 68.900391 10.689453 C 73.530391 15.619453 75.649141 25.310703 74.869141 37.970703 C 74.769141 39.620703 76.029687 41.050391 77.679688 41.150391 C 79.339688 41.250391 80.759375 39.989844 80.859375 38.339844 C 81.489375 28.199844 80.679297 14.460078 73.279297 6.5800781 C 69.789297 2.8800781 65.33 1 60 1 C 56.12 1 52.669844 2.0390625 49.339844 3.0390625 C 46.429844 3.9090625 43.69 4.7402344 41 4.7402344 C 38.31 4.7402344 35.570156 3.9090625 32.660156 3.0390625 C 29.330156 2.0390625 25.88 1 22 1 z M 89 51 C 68.05 51 51 68.05 51 89 C 51 109.95 68.05 127 89 127 C 109.95 127 127 109.95 127 89 C 127 68.05 109.95 51 89 51 z M 89 57 C 106.64 57 121 71.35 121 89 C 121 106.65 106.64 121 89 121 C 71.36 121 57 106.65 57 89 C 57 71.35 71.36 57 89 57 z M 89 76 C 87.34 76 86 77.34 86 79 L 86 99 C 86 100.66 87.34 102 89 102 C 90.66 102 92 100.66 92 99 L 92 79 C 92 77.34 90.66 76 89 76 z M 39.449219 91.052734 C 38.488574 91.120215 37.579297 91.650781 37.060547 92.550781 C 34.650547 96.730781 33.640859 101.51086 34.130859 106.38086 C 35.190859 116.88086 43.549766 125.47055 54.009766 126.81055 C 54.129766 126.82055 54.260625 126.83008 54.390625 126.83008 C 55.880625 126.83008 57.169141 125.73047 57.369141 124.23047 C 57.589141 122.58047 56.419297 121.07914 54.779297 120.86914 C 47.049297 119.87914 40.879609 113.53906 40.099609 105.78906 C 39.739609 102.16906 40.479766 98.630781 42.259766 95.550781 C 43.089766 94.110781 42.600156 92.279219 41.160156 91.449219 C 40.620156 91.137969 40.025605 91.012246 39.449219 91.052734 z"/></svg>