<?xml version="1.0" encoding="iso-8859-1"?><!-- Generator: Adobe Illustrator 23.0.0, SVG Export Plug-In . SVG Version: 6.00 Build 0)  --><svg xmlns="http://www.w3.org/2000/svg" xmlns:xlink="http://www.w3.org/1999/xlink" viewBox="0 0 50 50" width="500px" height="500px"><g id="&#x421;&#x43B;&#x43E;&#x439;_1" style="display:none;"></g><g id="&#x421;&#x43B;&#x43E;&#x439;_2"><g><path d="M32.48,20.014C32.184,19.843,32,19.519,32,19.166V18c0-1.105-0.895-2-2-2H20c-1.105,0-2,0.895-2,2v1.166c0,0.353-0.183,0.677-0.476,0.846c-5.13,2.956-7.99,8.459-7.463,14.362c0.661,7.408,6.772,13.259,14.216,13.609C24.523,47.994,24.766,48,25.01,48c3.876,0,7.525-1.457,10.343-4.146C38.35,40.996,40,37.141,40,33C40,27.665,37.118,22.688,32.48,20.014z"/><path d="M29.846,14l-1.596-9.456C28.023,3.07,26.776,2,25.284,2h-0.568c-1.492,0-2.738,1.07-2.962,2.529L20.155,14H29.846z"/></g></g><g id="&#x421;&#x43B;&#x43E;&#x439;_3" style="display:none;"></g></svg>