<svg xmlns="http://www.w3.org/2000/svg"  viewBox="0 0 128 128" width="64px" height="64px"><path d="M 41 1 C 31.08 1 23 9.07 23 19 C 23 26.86 28.02 33.750625 35.5 36.140625 C 35.8 36.240625 36.109922 36.279297 36.419922 36.279297 C 37.689922 36.279297 38.869297 35.469453 39.279297 34.189453 C 39.789297 32.609453 38.919844 30.919922 37.339844 30.419922 C 32.349844 28.829922 29 24.24 29 19 C 29 12.38 34.38 7 41 7 C 44.07 7 46.990703 8.1597656 49.220703 10.259766 C 50.430703 11.399766 52.330938 11.340859 53.460938 10.130859 C 54.590938 8.9208594 54.540078 7.020625 53.330078 5.890625 C 49.980078 2.730625 45.6 1 41 1 z M 75 11 C 59.56 11 47 23.56 47 39 C 47 54.44 59.56 67 75 67 C 90.44 67 103 54.44 103 39 C 103 23.56 90.44 11 75 11 z M 75 17 C 87.13 17 97 26.87 97 39 C 97 51.13 87.13 61 75 61 C 62.87 61 53 51.13 53 39 C 53 26.87 62.87 17 75 17 z M 35.734375 68.851562 C 28.484668 68.719531 21.266797 70.977734 15.279297 75.490234 C 14.049297 76.420234 13.570312 78.099453 14.320312 79.439453 C 15.240312 81.079453 17.359062 81.469375 18.789062 80.359375 C 26.939062 74.009375 38.329297 73.709922 47.779297 77.919922 L 72 88.710938 C 72.9 89.110938 73.649687 89.759844 74.179688 90.589844 C 75.079688 92.009844 75.219297 93.770547 74.529297 95.310547 C 73.929297 96.660547 72.760234 97.689609 71.240234 98.099609 C 70.090234 98.409609 68.869063 98.239766 67.789062 97.759766 L 50.679688 90.109375 C 49.169688 89.429375 47.390703 90.109141 46.720703 91.619141 C 46.050703 93.129141 46.720469 94.910078 48.230469 95.580078 L 65.490234 103.30078 C 66.950234 103.95078 68.48 104.26953 70 104.26953 C 73.08 104.26953 76.090469 102.9693 78.230469 100.5293 C 78.960469 99.699297 79.559531 98.760234 80.019531 97.740234 C 81.899531 93.510234 80.969922 88.490156 77.419922 85.160156 C 76.519922 84.320156 75.459844 83.669922 74.339844 83.169922 L 48.560547 71.699219 C 44.446797 69.869219 40.084199 68.930781 35.734375 68.851562 z M 98.503906 74.265625 C 97.075156 74.279375 95.644297 74.575391 94.279297 75.150391 L 87.119141 78.269531 C 85.599141 78.929531 84.910313 80.700703 85.570312 82.220703 C 86.230312 83.740703 87.999531 84.429531 89.519531 83.769531 L 96.650391 80.660156 C 97.880391 80.140156 99.240703 80.130859 100.4707 80.630859 C 101.7107 81.130859 102.68094 82.079609 103.21094 83.349609 L 103.66992 84.390625 L 90.490234 90 C 88.970234 90.65 88.260156 92.409453 88.910156 93.939453 C 89.560156 95.469453 91.319844 96.169531 92.839844 95.519531 L 113.33984 86.789062 C 115.96984 85.669062 119.02062 86.739922 120.14062 89.169922 C 120.71062 90.409922 120.74977 91.800313 120.25977 93.070312 C 119.76977 94.340312 118.80078 95.329375 117.55078 95.859375 L 61.210938 119.69922 C 56.680937 121.60922 51.549922 121.46984 47.169922 119.33984 L 19.349609 105.33008 C 18.349609 104.83008 17.159766 104.92031 16.259766 105.57031 L 2.2597656 115.57031 C 0.90976562 116.53031 0.60054688 118.40977 1.5605469 119.75977 C 2.5205469 121.10977 4.39 121.42094 5.75 120.46094 L 18.279297 111.50977 L 44.519531 124.7207 C 47.689531 126.2607 51.139844 127.03906 54.589844 127.03906 C 57.629844 127.03906 60.679063 126.4407 63.539062 125.2207 L 119.89062 101.39062 C 122.65063 100.22062 124.76938 98.040234 125.85938 95.240234 C 126.93937 92.440234 126.84961 89.399922 125.59961 86.669922 C 123.13961 81.319922 116.6 78.899297 111 81.279297 L 109.19922 82.039062 L 108.7207 80.970703 C 107.5707 78.270703 105.4407 76.170312 102.7207 75.070312 C 101.3607 74.520313 99.932656 74.251875 98.503906 74.265625 z"/></svg>