<svg xmlns="http://www.w3.org/2000/svg"  viewBox="0 0 128 128" width="64px" height="64px"><path d="M 67.123047 0.95507812 C 66.720215 0.94838867 66.312891 0.9625 65.900391 1 C 60.200391 1.6 56 6.6007812 56 12.300781 L 56 13.199219 C 54.2 12.299219 52.100391 11.899609 49.900391 12.099609 C 44.200391 12.699609 40 17.8 40 23.5 L 40 32.199219 C 38.5 31.399219 36.799609 31 35.099609 31 L 34.900391 31 C 31.900391 31 29.000391 32.2 26.900391 34.5 C 24.900391 36.6 24 39.399219 24 42.199219 L 24 56 C 24 57.7 25.3 59 27 59 C 28.7 59 30 57.7 30 56 L 30 41.900391 C 30 40.000391 31.100781 38.300391 32.800781 37.400391 C 33.400781 37.100391 34.100781 37 34.800781 37 L 35 37 C 37.7 37 39.900391 39.200391 39.900391 41.900391 L 39.900391 58 C 39.900391 59.7 41.399609 61.1 43.099609 61 C 44.699609 60.9 45.900391 59.400781 45.900391 57.800781 L 45.900391 23.199219 C 45.900391 20.799219 47.500781 18.599609 49.800781 18.099609 C 53.000781 17.399609 55.900391 19.8 55.900391 23 L 55.900391 66.099609 C 55.900391 67.799609 57.399609 69.199609 59.099609 69.099609 C 60.699609 68.999609 61.900391 67.500391 61.900391 65.900391 L 61.900391 12.099609 C 61.900391 9.1996094 64.400391 6.7996094 67.400391 7.0996094 C 70.000391 7.3996094 71.900391 9.7007813 71.900391 12.300781 L 71.900391 62.099609 C 71.900391 63.799609 73.399609 65.199609 75.099609 65.099609 C 76.699609 64.999609 77.900391 63.500391 77.900391 61.900391 L 77.900391 23.099609 C 77.900391 20.199609 80.400391 17.799609 83.400391 18.099609 C 86.000391 18.299609 87.900391 20.599219 87.900391 23.199219 L 87.900391 79.699219 L 79 87.300781 C 77.6 88.500781 77.599609 90.700391 79.099609 91.900391 C 80.199609 92.900391 81.9 92.700781 83 91.800781 L 113.80078 65.599609 C 115.40078 64.299609 117.70078 64.3 119.30078 65.5 C 121.10078 66.9 121.49922 69.500391 120.19922 71.400391 L 84.5 122.30078 C 83.5 123.70078 83.799219 125.5 85.199219 126.5 C 85.699219 126.8 86.300391 127 86.900391 127 C 87.900391 127 88.800391 126.49922 89.400391 125.69922 L 125.09961 74.800781 C 128.29961 70.200781 127.30078 63.899609 122.80078 60.599609 C 118.90078 57.699609 113.39922 58.100781 109.69922 61.300781 L 94 74.599609 L 94 23.300781 C 94 17.300781 89.199219 12.1 83.199219 12 C 81.299219 12 79.6 12.399219 78 13.199219 L 78 12 C 78 6 73.165527 1.0554199 67.123047 0.95507812 z M 31 67 C 14.5 67 1 80.5 1 97 C 1 113.5 14.5 127 31 127 C 47.5 127 61 113.5 61 97 C 61 80.5 47.5 67 31 67 z M 31 73 C 44.2 73 55 83.8 55 97 C 55 110.2 44.2 121 31 121 C 17.8 121 7 110.2 7 97 C 7 83.8 17.8 73 31 73 z M 43 88 C 42.25 88 41.500391 88.300391 40.900391 88.900391 L 30 99.800781 L 25.099609 94.900391 C 23.899609 93.700391 22.000391 93.700391 20.900391 94.900391 C 19.700391 96.100391 19.700391 97.999609 20.900391 99.099609 L 27.900391 106.09961 C 28.500391 106.69961 29.3 107 30 107 C 30.7 107 31.499609 106.69961 32.099609 106.09961 L 45.099609 93.099609 C 46.299609 91.899609 46.299609 90.000391 45.099609 88.900391 C 44.499609 88.300391 43.75 88 43 88 z"/></svg>