<?xml version="1.0" encoding="utf-8"?><!-- Generator: Adobe Illustrator 15.0.0, SVG Export Plug-In . SVG Version: 6.00 Build 0)  --><!DOCTYPE svg PUBLIC "-//W3C//DTD SVG 1.1//EN" "http://www.w3.org/Graphics/SVG/1.1/DTD/svg11.dtd"><svg xmlns="http://www.w3.org/2000/svg" xmlns:xlink="http://www.w3.org/1999/xlink" viewBox="0 0 50 50" width="500px" height="500px"><path d="M50,50h-6v-5H6v5H0V20c0-1.654,1.346-3,3-3s3,1.346,3,3v18h44V50z"/><path d="M12,36c-2.757,0-5-2.243-5-5s2.243-5,5-5s5,2.243,5,5S14.757,36,12,36z"/><path d="M50,36v-5c0-2.757-2.243-5-5-5H19c-0.552,0-1,0.447-1,1v9H50z"/><rect x="19" y="5" width="2" height="4"/><path d="M44,0.08V3h-2V0h-2v3h-2V0h-2v3h-2V0h-2v3h-2V0h-0.4c-1.207,0-2.38,0.312-3.483,0.924L21,3.747L20.542,4H16c-1.654,0-3,1.346-3,3s1.346,3,3,3h4.546L21,10.246l5.214,2.828C27.304,13.68,28.475,14,29.6,14H43c3.859,0,7-3.14,7-7C50,3.48,47.387,0.568,44,0.08z M44,8H21v0.025C20.934,8.012,20.868,8,20.8,8H16c-0.551,0-1-0.449-1-1s0.449-1,1-1h4.8c0.068,0,0.134-0.012,0.2-0.025V6h23V8z"/></svg>