<svg xmlns="http://www.w3.org/2000/svg"  viewBox="0 0 128 128" width="64px" height="64px"><path d="M124.13 91c-9.37 0-17-7.63-17-17 0-1.66 1.34-3 3-3s3 1.34 3 3c0 6.07 4.93 11 11 11 1.66 0 3 1.34 3 3S125.79 91 124.13 91zM4.13 91c-1.66 0-3-1.34-3-3s1.34-3 3-3c7.2 0 11-3.8 11-11 0-1.66 1.34-3 3-3s3 1.34 3 3C21.13 84.49 14.62 91 4.13 91zM81.26 107.94c-.72 0-1.45-.08-2.19-.24-4.21-.93-7.22-4.3-7.65-8.58C70.81 93.15 68.97 75 64 75s-6.81 18.15-7.42 24.11c-.44 4.29-3.44 7.66-7.65 8.58-4.21.92-8.34-.87-10.53-4.57-6.45-10.91-11.33-25.28-13.39-39.45-2.2-15.15-.89-27.92 3.69-35.96C32.33 21.36 37.96 18 45 18c3.88 0 7.33 1.04 10.66 2.04 2.9.87 5.65 1.7 8.34 1.7s5.43-.83 8.34-1.7C75.67 19.04 79.12 18 83 18c7.04 0 12.67 3.36 16.3 9.72 4.58 8.03 5.89 20.8 3.69 35.96-2.06 14.16-6.94 28.54-13.39 39.45C87.79 106.18 84.66 107.94 81.26 107.94zM64 69c10.4 0 12.2 17.76 13.39 29.51.2 2.02 1.67 3.04 2.97 3.33.63.14 2.78.42 4.08-1.77 12.88-21.78 17.57-55.5 9.65-69.38C91.52 26.19 87.89 24 83 24c-3 0-5.88.87-8.94 1.79-3.19.96-6.49 1.95-10.06 1.95s-6.87-.99-10.06-1.95C50.88 24.87 48 24 45 24c-4.89 0-8.52 2.19-11.09 6.69-7.92 13.88-3.23 47.59 9.65 69.38 1.29 2.19 3.45 1.91 4.08 1.77 1.3-.29 2.77-1.31 2.97-3.33C51.8 86.76 53.6 69 64 69zM64 126.87c-17.09 0-34.19-2.33-50.81-6.98-1.6-.45-2.53-2.1-2.08-3.7.45-1.6 2.1-2.53 3.7-2.08 32.18 9.01 66.2 9.01 98.38 0 1.6-.45 3.25.48 3.7 2.08.45 1.6-.48 3.25-2.08 3.7C98.19 124.54 81.09 126.87 64 126.87z"/></svg>