<?xml version="1.0" encoding="iso-8859-1"?>
<!-- Generator: Adobe Illustrator 24.1.1, SVG Export Plug-In . SVG Version: 6.00 Build 0)  -->
<svg version="1.1" id="&#x421;&#x43B;&#x43E;&#x439;_1"
	 xmlns="http://www.w3.org/2000/svg" xmlns:xlink="http://www.w3.org/1999/xlink" x="0px" y="0px" viewBox="0 0 50 50"
	 style="enable-background:new 0 0 50 50;" xml:space="preserve">
<polygon points="5.955,50 13,44 10,44 12,39 5,45 8,45 "/>
<polygon points="0.04,38.987 5,38 5,40 11,35 6,36 6,34 "/>
<polygon points="17,39 18,44 16,44 20.989,50 20,45 22,45 "/>
<path d="M50,26c-15.728-0.174-10.816-4.435-25-4v-3c0,0,2.764-9.281-1-19H7c0,0-0.043,12.542,4.016,21.924
	c2.82,6.52,1.129,10.403,3.434,12.964c3.034,3.371,5.281,1.271,10.955,2.461C36.522,39.679,45.08,34.66,50,34V26z"/>
</svg>