<svg xmlns="http://www.w3.org/2000/svg"  viewBox="0 0 128 128" width="64px" height="64px"><path d="M 35 1 C 29.5 1 25 5.5 25 11 L 25 21.5 C 25 23.2 26.3 24.5 28 24.5 C 29.7 24.5 31 23.2 31 21.5 L 31 11 C 31 8.8 32.8 7 35 7 C 37.2 7 39 8.8 39 11 L 39 91.400391 C 39 91.800391 38.999219 92.2 39.199219 92.5 C 39.499219 93.3 40.000781 93.899219 40.800781 94.199219 C 45.800781 96.499219 49 101.5 49 107 C 49 114.7 42.7 121 35 121 C 27.3 121 21 114.7 21 107 C 21 101.5 24.199219 96.499219 29.199219 94.199219 C 30.299219 93.699219 31 92.600391 31 91.400391 L 31 76.5 C 31 74.8 29.7 73.5 28 73.5 C 26.3 73.5 25 74.8 25 76.5 L 25 89.699219 C 18.9 93.199219 15 99.8 15 107 C 15 117.7 23.400391 126.40039 33.900391 126.90039 C 34.100391 126.90039 100.80078 127 100.80078 127 C 105.50078 127 109.69961 124.6 112.09961 120.5 C 114.39961 116.4 114.39961 111.6 112.09961 107.5 L 83.199219 57.5 C 80.899219 53.4 76.7 51 72 51 C 67.3 51 63.099219 53.4 60.699219 57.5 L 45 84.900391 L 45 11 C 45 5.5 40.5 1 35 1 z M 28 33.5 C 26.3 33.5 25 34.8 25 36.5 L 25 41.5 C 25 43.2 26.3 44.5 28 44.5 C 29.7 44.5 31 43.2 31 41.5 L 31 36.5 C 31 34.8 29.7 33.5 28 33.5 z M 28 53.5 C 26.3 53.5 25 54.8 25 56.5 L 25 61.5 C 25 63.2 26.3 64.5 28 64.5 C 29.7 64.5 31 63.2 31 61.5 L 31 56.5 C 31 54.8 29.7 53.5 28 53.5 z M 72 72 C 73.7 72 75 73.3 75 75 L 75 95 C 75 96.7 73.7 98 72 98 C 70.3 98 69 96.7 69 95 L 69 75 C 69 73.3 70.3 72 72 72 z M 72 104 C 73.7 104 75 105.3 75 107 L 75 110 C 75 111.7 73.7 113 72 113 C 70.3 113 69 111.7 69 110 L 69 107 C 69 105.3 70.3 104 72 104 z"/></svg>