<svg xmlns="http://www.w3.org/2000/svg"  viewBox="0 0 128 128" width="64px" height="64px"><path d="M22 1C14.8 1 9 6.8 9 14s5.8 13 13 13 13-5.8 13-13S29.2 1 22 1zM22 21c-3.9 0-7-3.1-7-7s3.1-7 7-7 7 3.1 7 7S25.9 21 22 21zM10 78.6V118c0 1.7 1.3 3 3 3s3-1.3 3-3V76c0-1.7-1.3-3-3-3-3.3 0-6-2.7-6-6V46c0-3.9 3.1-7 7-7h16c3.9 0 7 3.1 7 7v21c0 3.3-2.7 6-6 6-1.7 0-3 1.3-3 3v36c0 1.7 1.3 3 3 3s3-1.3 3-3V78.6c5.2-1.3 9-6 9-11.6V46c0-7.2-5.8-13-13-13H14C6.8 33 1 38.8 1 46v21C1 72.6 4.8 77.3 10 78.6zM119 14c0-7.2-5.8-13-13-13S93 6.8 93 14s5.8 13 13 13S119 21.2 119 14zM99 14c0-3.9 3.1-7 7-7s7 3.1 7 7-3.1 7-7 7S99 17.9 99 14zM127 46c0-7.2-5.8-13-13-13H99c-7.2 0-13 5.8-13 13v21c0 5.6 3.8 10.3 9 11.6V112c0 1.7 1.3 3 3 3s3-1.3 3-3V76c0-1.7-1.3-3-3-3-3.3 0-6-2.7-6-6V46c0-3.9 3.1-7 7-7h15c3.9 0 7 3.1 7 7v21c0 3.3-2.7 6-6 6-1.7 0-3 1.3-3 3v42c0 1.7 1.3 3 3 3s3-1.3 3-3V78.6c5.2-1.3 9-6 9-11.6V46zM101 124c0-1.7-1.3-3-3-3H31c-1.7 0-3 1.3-3 3s1.3 3 3 3h67C99.7 127 101 125.7 101 124z"/></svg>