<?xml version="1.0" encoding="iso-8859-1"?>
<!-- Generator: Adobe Illustrator 23.0.3, SVG Export Plug-In . SVG Version: 6.00 Build 0)  -->
<svg version="1.1" xmlns="http://www.w3.org/2000/svg" xmlns:xlink="http://www.w3.org/1999/xlink" x="0px" y="0px"
	 viewBox="0 0 50 50" style="enable-background:new 0 0 50 50;" xml:space="preserve">
<g id="Layer_10" style="display:none;">
	<g style="display:inline;opacity:0.05;">
		<g>
			<circle style="fill:#FFFFFF;" cx="25" cy="25" r="21.5"/>
			<path d="M25,4c11.579,0,21,9.421,21,21s-9.421,21-21,21S4,36.579,4,25S13.421,4,25,4 M25,3C12.85,3,3,12.85,3,25s9.85,22,22,22
				s22-9.85,22-22S37.15,3,25,3L25,3z"/>
		</g>
		<g>
			<rect x="5.5" y="5.5" style="fill:#FFFFFF;" width="39" height="39"/>
			<path d="M44,6v38H6V6H44 M45,5H5v40h40V5L45,5z"/>
		</g>
	</g>
</g>
<g id="filled">
</g>
<g id="outlined">
</g>
<g id="rounded">
</g>
<g id="two_x5F_tone">
</g>
<g id="sharp">
</g>
<g id="win10">
</g>
<g id="ios_x5F_out">
</g>
<g id="ios_x5F_filled">
	<path d="M43.93,9.56l-12.16,5.16l-3.12-7.38L40.8,2.19c0.51-0.21,1.1,0.02,1.31,0.53l2.35,5.52C44.67,8.75,44.44,9.34,43.93,9.56z"
		/>
	<path d="M15,17c-1.44,0-2.77,0.51-3.8,1.36c0.73-4.29,3.59-7.99,7.68-9.74l5.97-2.56c0.51-0.21,1.1,0.02,1.31,0.53l3.97,9.36
		c0.33,0.78,0.57,1.6,0.71,2.44C29.8,17.52,28.46,17,27,17H15z"/>
	<path d="M31,23v23c0,2.21-1.79,4-4,4H15c-2.21,0-4-1.79-4-4V23c0-2.21,1.79-4,4-4h12C29.21,19,31,20.79,31,23z M28,38V25
		c0-1.105-0.895-2-2-2H16c-1.105,0-2,0.895-2,2v13c0,1.105,0.895,2,2,2h10C27.105,40,28,39.105,28,38z M18,45c0-0.552-0.447-1-1-1
		h-2c-0.552,0-1,0.448-1,1s0.448,1,1,1h2C17.553,46,18,45.552,18,45z M28,45c0-0.552-0.447-1-1-1h-2c-0.553,0-1,0.448-1,1
		s0.447,1,1,1h2C27.553,46,28,45.552,28,45z M21,43c-1.105,0-2,0.895-2,2s0.895,2,2,2s2-0.895,2-2S22.105,43,21,43z"/>
</g>
<g id="color">
</g>
</svg>