<?xml version="1.0" encoding="iso-8859-1"?><!-- Generator: Adobe Illustrator 22.1.0, SVG Export Plug-In . SVG Version: 6.00 Build 0)  --><svg xmlns="http://www.w3.org/2000/svg" xmlns:xlink="http://www.w3.org/1999/xlink" viewBox="0 0 30 30" width="480px" height="480px"><path d="M4,3h4.868c0.703,0,1.354,0.369,1.715,0.971L13,8H2V5C2,3.895,2.895,3,4,3z"/><path d="M26,5H2v18c0,1.105,0.895,2,2,2h22c1.105,0,2-0.895,2-2V7C28,5.895,27.105,5,26,5z M18,16h-2v2c0,0.552-0.448,1-1,1s-1-0.448-1-1v-2h-2c-0.552,0-1-0.448-1-1s0.448-1,1-1h2v-2c0-0.552,0.448-1,1-1s1,0.448,1,1v2h2c0.552,0,1,0.448,1,1S18.552,16,18,16z M21,15c0,3.314-2.686,6-6,6s-6-2.686-6-6s2.686-6,6-6S21,11.686,21,15z"/></svg>