<?xml version="1.0" encoding="iso-8859-1"?>
<!-- Generator: Adobe Illustrator 23.0.3, SVG Export Plug-In . SVG Version: 6.00 Build 0)  -->
<svg version="1.1" id="Layer_1" xmlns="http://www.w3.org/2000/svg" xmlns:xlink="http://www.w3.org/1999/xlink" x="0px" y="0px"
	 viewBox="0 0 50 50" style="enable-background:new 0 0 50 50;" xml:space="preserve">
<g>
	<path d="M23.5,35.326c0.98,0,1.961-0.373,2.707-1.119l3-3c1.493-1.492,1.493-3.922,0-5.414c-1.492-1.492-3.922-1.492-5.414,0l-3,3
		c-1.493,1.492-1.493,3.922,0,5.414C21.539,34.953,22.52,35.326,23.5,35.326z M26.5,26.673c0.468,0,0.937,0.178,1.293,0.534
		c0.713,0.713,0.713,1.873,0,2.586l-1.274,1.274l-2.586-2.586l1.274-1.274C25.563,26.851,26.032,26.673,26.5,26.673z"/>
	<path d="M35.897,13.912L34,13.279V11H16v2.279l-1.897,0.633C11.648,14.729,10,17.017,10,19.604V41c0,3.309,2.691,6,6,6h18
		c3.309,0,6-2.691,6-6V19.604C40,17.017,38.352,14.729,35.897,13.912z M38,22v16H12V22H38z"/>
	<path d="M15,9h20c0.552,0,1-0.448,1-1V4c0-0.552-0.448-1-1-1H15c-0.552,0-1,0.448-1,1v4C14,8.552,14.448,9,15,9z"/>
</g>
</svg>