<svg xmlns="http://www.w3.org/2000/svg"  viewBox="0 0 128 128" width="64px" height="64px"><path d="M 84.425781 1.1582031 C 84.037969 1.1967969 83.651562 1.3122656 83.289062 1.5097656 C 81.829063 2.2997656 81.299844 4.1200781 82.089844 5.5800781 L 84.949219 10.830078 C 41.249219 35.730078 41.349453 65.159766 41.439453 86.759766 C 41.439453 87.699766 41.449219 88.630781 41.449219 89.550781 C 41.449219 91.210781 42.789219 92.550781 44.449219 92.550781 C 46.109219 92.550781 47.449219 91.210781 47.449219 89.550781 C 47.449219 88.630781 47.449453 87.690234 47.439453 86.740234 C 47.359453 65.530234 47.260312 39.239375 87.820312 16.109375 L 90.650391 21.300781 C 91.190391 22.300781 92.219062 22.869141 93.289062 22.869141 C 93.769063 22.869141 94.270703 22.75 94.720703 22.5 C 96.170703 21.7 96.700156 19.879922 95.910156 18.419922 L 87.359375 2.7109375 C 86.766875 1.6159375 85.589219 1.0424219 84.425781 1.1582031 z M 83 37 C 79.12 37 75.670078 38.039062 72.330078 39.039062 C 71.770078 39.209063 71.220156 39.379063 70.660156 39.539062 C 69.070156 40.009062 68.159141 41.669766 68.619141 43.259766 C 69.079141 44.849766 70.749844 45.760781 72.339844 45.300781 C 72.909844 45.140781 73.480547 44.959063 74.060547 44.789062 C 77.120547 43.869062 80.01 43 83 43 C 87.89 43 91.519844 45.189453 94.089844 49.689453 C 102.00984 63.569453 97.319453 97.280312 84.439453 119.07031 C 83.139453 121.26031 80.989375 120.97984 80.359375 120.83984 C 79.059375 120.54984 77.590625 119.52977 77.390625 117.50977 C 76.200625 105.75977 74.4 88 64 88 C 53.6 88 51.799375 105.75977 50.609375 117.50977 C 50.409375 119.52977 48.940625 120.54984 47.640625 120.83984 C 47.000625 120.97984 44.850547 121.26031 43.560547 119.07031 C 32.210547 99.870312 26.880156 70.239141 31.910156 54.369141 C 33.580156 49.109141 36.219766 45.640781 39.759766 44.050781 C 41.269766 43.370781 41.949531 41.590078 41.269531 40.080078 C 40.589531 38.570078 38.810781 37.890313 37.300781 38.570312 C 32.130781 40.900312 28.399453 45.600547 26.189453 52.560547 C 20.619453 70.110547 26.100391 101.32086 38.400391 122.13086 C 40.200391 125.18086 43.340234 126.93945 46.740234 126.93945 C 47.460234 126.93945 48.189687 126.85945 48.929688 126.68945 C 53.139688 125.76945 56.140078 122.39938 56.580078 118.10938 C 57.190078 112.14938 59.03 94 64 94 C 68.97 94 70.809922 112.14914 71.419922 118.11914 C 71.849922 122.39914 74.860313 125.76922 79.070312 126.69922 C 83.280312 127.62922 87.409609 125.83086 89.599609 122.13086 C 96.049609 111.22086 100.93023 96.839687 102.99023 82.679688 C 105.19023 67.519687 103.88078 54.750703 99.300781 46.720703 C 95.670781 40.360703 90.04 37 83 37 z"/></svg>