<svg xmlns="http://www.w3.org/2000/svg"  viewBox="0 0 128 128" width="64px" height="64px"><path d="M 34 1 C 28.5 1 24 5.5 24 11 C 24 16.5 28.5 21 34 21 C 39.5 21 44 16.5 44 11 C 44 5.5 39.5 1 34 1 z M 34 7 C 36.2 7 38 8.8 38 11 C 38 13.2 36.2 15 34 15 C 31.8 15 30 13.2 30 11 C 30 8.8 31.8 7 34 7 z M 73.5 7.6992188 C 67.4 7.6992188 61.599219 10.100391 57.199219 14.400391 L 33.599609 38.199219 C 30.899609 32.199219 25 28 18 28 C 8.6 28 1 35.6 1 45 C 1 53.3 7.1 60.299219 15 61.699219 L 15 86.400391 C 14.8 91.800391 17.2 96.699609 21.5 99.599609 L 55.699219 122.40039 C 59.499219 124.90039 63.9 126.30078 68.5 126.30078 C 74.6 126.30078 80.400781 123.89961 84.800781 119.59961 L 122.90039 81.5 C 125.60039 78.8 127.20078 75.099219 127.30078 71.199219 L 127.19922 47.199219 C 127.29922 41.999219 124.8 37.200391 120.5 34.400391 L 86.300781 11.599609 C 82.500781 9.0996094 78.1 7.6992188 73.5 7.6992188 z M 18 34 C 24.1 34 29 38.9 29 45 C 29 51.1 24.1 56 18 56 C 11.9 56 7 51.1 7 45 C 7 38.9 11.9 34 18 34 z M 57 40 C 61.4 40 65 43.6 65 48 C 65 52.4 61.4 56 57 56 C 52.6 56 49 52.4 49 48 C 49 43.6 52.6 40 57 40 z M 104.13672 65.800781 C 104.89922 65.800781 105.64922 66.099219 106.19922 66.699219 C 107.49922 67.899219 107.50078 69.8 106.30078 71 L 84.699219 92.5 C 80.299219 96.9 74.400391 99.199219 68.400391 99.199219 C 64.000391 99.199219 59.499219 97.900391 55.699219 95.400391 L 32.699219 80.099609 C 31.299219 79.199609 30.900391 77.300391 31.900391 75.900391 C 32.900391 74.500391 34.699609 74.099609 36.099609 75.099609 L 59.099609 90.400391 C 65.799609 94.900391 74.799609 94.000781 80.599609 88.300781 L 102 66.699219 C 102.6 66.099219 103.37422 65.800781 104.13672 65.800781 z"/></svg>