<?xml version="1.0" encoding="iso-8859-1"?>
<!-- Generator: Adobe Illustrator 24.0.2, SVG Export Plug-In . SVG Version: 6.00 Build 0)  -->
<svg version="1.1" id="&#x421;&#x43B;&#x43E;&#x439;_1"
	 xmlns="http://www.w3.org/2000/svg" xmlns:xlink="http://www.w3.org/1999/xlink" x="0px" y="0px" viewBox="0 0 50 50"
	 style="enable-background:new 0 0 50 50;" xml:space="preserve">
<path d="M37.99,8.46C38,8.53,38,8.6,37.99,8.67c0,0,0,0,0,0.01c-0.04,0.45-0.41,0.82-0.88,0.88c-0.55,0.06-1.04-0.33-1.1-0.88
	L35.71,6l-0.3-2.64C35.16,3.24,34.51,3,33,3c-1.5,0-2.16,0.24-2.4,0.36L30.3,6L30,8.68c-0.06,0.51-0.49,0.89-0.99,0.89
	c-0.04,0-0.08-0.01-0.11-0.01c-0.47-0.06-0.83-0.43-0.89-0.88c0-0.01,0-0.02,0-0.02C28,8.59,28,8.52,28.01,8.45l0.64-5.66
	c0.01-0.07,0.03-0.15,0.06-0.22C28.91,1.98,29.75,1,33,1c3.26,0,4.1,0.98,4.3,1.57c0.03,0.07,0.05,0.14,0.06,0.22L37.99,8.46z"/>
<path d="M37.99,8.68c0-0.01,0-0.01,0-0.01c-0.06-0.75-0.29-1.5-0.68-2.17C37.13,6.19,36.8,6,36.45,6h-6.9
	c-0.35,0-0.68,0.19-0.86,0.5c-0.39,0.67-0.62,1.41-0.68,2.16c0,0,0,0.01,0,0.02C28,8.78,28,8.89,28,9c0,2.76,2.24,5,5,5s5-2.24,5-5
	C38,8.89,38,8.78,37.99,8.68z M30.18,8h5.64C35.94,8.33,36,8.66,36,9c0,0.35-0.06,0.69-0.18,1c-0.41,1.16-1.52,2-2.82,2
	s-2.41-0.84-2.82-2C30.06,9.69,30,9.35,30,9C30,8.66,30.06,8.33,30.18,8z"/>
<path d="M36.86,10c-0.45,1.72-2,3-3.86,3s-3.41-1.28-3.86-3H36.86z"/>
<path d="M29,23c0,0.26-0.1,0.52-0.29,0.71l-5.59,5.59l-1.18-0.95l-0.39-0.32l5.74-5.74c0.09-0.09,0.2-0.16,0.32-0.21
	c0.05-0.02,0.09-0.04,0.14-0.04C27.83,22.01,27.91,22,28,22s0.17,0.01,0.25,0.04c0.05,0,0.09,0.02,0.14,0.04
	c0.12,0.05,0.23,0.12,0.32,0.21c0.09,0.09,0.16,0.2,0.21,0.32c0.02,0.05,0.04,0.09,0.04,0.14C28.99,22.83,29,22.91,29,23z"/>
<path d="M46.5,27.3l-1.3,2.17l-0.04-0.01l-1.97-0.53l1.6-2.66c0.32-0.54,0.27-1.24-0.14-1.73l-3.5-4.2
	C39.91,18.85,38.09,18,36.16,18h-6.32c-1.93,0-3.75,0.85-4.99,2.34l-5.63,5.81l-1.17-0.94l-0.4-0.32L23.36,19
	c1.57-1.88,3.95-3,6.48-3h6.32c2.53,0,4.91,1.11,6.53,3.06l3.5,4.2C47.14,24.4,47.27,26.03,46.5,27.3z"/>
<path d="M6,14.92c-2.8,0-5.08,2.28-5.08,5.08S3.2,25.08,6,25.08c0.92,0,1.79-0.25,2.54-0.68c0.48-0.28,0.91-0.63,1.27-1.05
	c0.79-0.89,1.27-2.07,1.27-3.35C11.08,17.2,8.8,14.92,6,14.92z M6,22.92c-1.61,0-2.92-1.31-2.92-2.92S4.39,17.08,6,17.08
	S8.92,18.39,8.92,20S7.61,22.92,6,22.92z"/>
<path d="M29,23v6.36l-0.68,0.24l-1.03,0.37l-0.07,0.02H27V23c0-0.28,0.11-0.52,0.29-0.71c0.09-0.09,0.2-0.16,0.32-0.21
	c0.05-0.02,0.09-0.04,0.14-0.04C27.83,22.01,27.91,22,28,22s0.17,0.01,0.25,0.04c0.05,0,0.09,0.02,0.14,0.04
	c0.12,0.05,0.23,0.12,0.32,0.21c0.09,0.09,0.16,0.2,0.21,0.32c0.02,0.05,0.04,0.09,0.04,0.14C28.99,22.83,29,22.91,29,23z"/>
<path d="M11.08,20c0,1.28-0.48,2.46-1.27,3.35c-0.36,0.42-0.79,0.77-1.27,1.05C7.79,24.83,6.92,25.08,6,25.08
	c-2.8,0-5.08-2.28-5.08-5.08S3.2,14.92,6,14.92S11.08,17.2,11.08,20z"/>
<path d="M37.99,8.68c0-0.01,0-0.01,0-0.01C38,8.6,38,8.53,37.99,8.46l-0.63-5.67c-0.01-0.08-0.03-0.15-0.06-0.22
	C37.1,1.98,36.26,1,33,1c-3.25,0-4.09,0.98-4.29,1.57c-0.03,0.07-0.05,0.15-0.06,0.22l-0.64,5.66C28,8.52,28,8.59,28.01,8.66
	c0,0,0,0.01,0,0.02C28,8.78,28,8.89,28,9c0,2.76,2.24,5,5,5s5-2.24,5-5C38,8.89,38,8.78,37.99,8.68z M30.18,10
	C30.06,9.69,30,9.35,30,9c0-0.34,0.06-0.67,0.18-1h5.64C35.94,8.33,36,8.66,36,9c0,0.35-0.06,0.69-0.18,1H30.18z"/>
<path d="M46.19,23.26l-3.5-4.2c-1.62-1.95-4-3.06-6.53-3.06h-6.32c-2.53,0-4.91,1.12-6.48,3l-5.71,5.89l0.4,0.32l1.17,0.94
	l0.41,0.33l1.92,1.55l0.39,0.32l1.18,0.95L27,25.42v4.57h0.22l0.07-0.02l1.03-0.37L29,29.36l5.03-1.81
	c0.65-0.21,1.29-0.32,1.95-0.32c0.39,0,0.79,0.03,1.22,0.11l0.1,0.01l0.09,0.03l0.73,0.2l0.04,0.01l1.05-1.74l-1.96-2.18
	c-0.36-0.42-0.33-1.05,0.08-1.42c0.42-0.36,1.05-0.33,1.42,0.08l2.44,2.74c0.29,0.33,0.34,0.8,0.11,1.18
	c-0.412,0.658-0.823,1.316-1.235,1.975c0.867,0.417,1.778,0.831,2.733,1.237c0.719,0.305,1.425,0.589,2.114,0.853
	c0.5-0.939,1.088-2.076,1.588-3.015C47.27,26.03,47.14,24.4,46.19,23.26z"/>
<path d="M45.8,39h-24c-0.67,0-1.153-0.242-1.623-0.52L7.24,27.832c-1.111-0.926-2.632-1.11-3.971-0.483C1.87,28.004,1,29.365,1,30.9
	V31c0,1.292,0.601,2.448,1.61,3.109l14.239,11.75C17.732,46.616,18.759,47,19.9,47H46c1.1,0,2.161-0.456,2.912-1.249
	c0.764-0.807,1.149-1.875,1.086-3.013C49.865,40.607,48.061,39,45.8,39z"/>
<path d="M48.48,34.116c-0.031-0.017-0.063-0.032-0.094-0.045l-11.3-4.7c-0.071-0.03-0.146-0.051-0.222-0.064
	c-0.829-0.136-1.481-0.096-2.204,0.146l-6.7,2.4c-0.096,0.034-0.185,0.082-0.265,0.142c-0.024,0.004-0.063,0-0.097,0h-3.8
	c-0.283,0-0.669-0.129-0.868-0.277l-7.788-6.29c-0.789-0.659-1.834-0.97-2.854-0.848c-0.997,0.116-1.906,0.633-2.462,1.376
	c-0.659,0.79-0.968,1.83-0.849,2.854c0.117,0.997,0.634,1.906,1.409,2.488l10.284,7.887c0.661,0.529,1.488,0.82,2.328,0.82h5
	c0.563,0,0.982-0.14,1.369-0.27l6.815-2.688l10.592,2.295c1.286,0.171,2.554-0.569,3.009-1.765
	C50.281,36.278,49.721,34.79,48.48,34.116z"/>
</svg>