<svg xmlns="http://www.w3.org/2000/svg"  viewBox="0 0 128 128" width="64px" height="64px"><path d="M 64.037109 1.5742188 C 62.799609 1.5742188 61.550391 1.8503906 60.400391 2.4003906 L 15.5 24.900391 C 12.8 26.300391 11.099609 28.999609 11.099609 32.099609 C 11.099609 68.199609 23.599609 91.300391 34.099609 104.40039 C 45.499609 118.50039 58.799609 126 64.099609 126 C 69.299609 126 82.5 118.30039 94 103.90039 C 104.5 90.700391 117 67.599219 117 32.199219 C 117 29.099219 115.29961 26.300391 112.59961 24.900391 L 67.599609 2.4003906 C 66.499609 1.8503906 65.274609 1.5742188 64.037109 1.5742188 z M 64 7.5996094 C 64.3 7.5996094 64.600391 7.7007812 64.900391 7.8007812 L 109.90039 30.300781 C 110.60039 30.600781 111 31.399219 111 32.199219 C 111 65.899219 99.200391 87.699609 89.400391 100.09961 C 77.700391 114.69961 66 120 64 120 C 62 120 50.299219 114.89961 38.699219 100.59961 C 28.799219 88.299609 16.999609 66.499609 17.099609 32.099609 C 17.099609 31.299609 17.499219 30.600781 18.199219 30.300781 L 63.099609 7.8007812 C 63.399609 7.7007813 63.7 7.5996094 64 7.5996094 z M 64 41 C 62.3 41 61 42.3 61 44 L 61 56 L 49 56 C 47.3 56 46 57.3 46 59 C 46 60.7 47.3 62 49 62 L 61 62 L 61 74 C 61 75.7 62.3 77 64 77 C 65.7 77 67 75.7 67 74 L 67 62 L 79 62 C 80.7 62 82 60.7 82 59 C 82 57.3 80.7 56 79 56 L 67 56 L 67 44 C 67 42.3 65.7 41 64 41 z"/></svg>