<svg xmlns="http://www.w3.org/2000/svg"  viewBox="0 0 128 128" width="64px" height="64px"><path d="M 94 1 C 75.8 1 61 15.8 61 34 C 61 52.2 75.8 67 94 67 C 112.2 67 127 52.2 127 34 C 127 15.8 112.2 1 94 1 z M 94 7 C 108.89 7 121 19.11 121 34 C 121 48.89 108.89 61 94 61 C 79.11 61 67 48.89 67 34 C 67 19.11 79.11 7 94 7 z M 104 20 A 4 4 0 0 0 104 28 A 4 4 0 0 0 104 20 z M 80 30 A 4 4 0 0 0 80 38 A 4 4 0 0 0 80 30 z M 104 36 A 4 4 0 0 0 104 44 A 4 4 0 0 0 104 36 z M 22 37 C 14.96 37 9.3292188 40.360703 5.6992188 46.720703 C 1.1192188 54.760703 -0.19023438 67.529687 2.0097656 82.679688 C 4.0697656 96.839688 8.9503906 111.22086 15.400391 122.13086 C 17.200391 125.18086 20.340234 126.93945 23.740234 126.93945 C 24.460234 126.93945 25.189688 126.85945 25.929688 126.68945 C 30.139688 125.76945 33.140078 122.39938 33.580078 118.10938 C 34.190078 112.14938 36.03 94 41 94 C 45.97 94 47.809922 112.14914 48.419922 118.11914 C 48.849922 122.39914 51.860312 125.76922 56.070312 126.69922 C 60.280313 127.62922 64.409609 125.83086 66.599609 122.13086 C 73.489609 110.48086 78.640859 94.619453 80.380859 79.689453 C 80.570859 78.039453 79.4 76.549375 77.75 76.359375 C 76.11 76.169375 74.609922 77.340234 74.419922 78.990234 C 72.769922 93.120234 67.919453 108.11031 61.439453 119.07031 C 60.139453 121.26031 57.989375 120.97984 57.359375 120.83984 C 56.059375 120.54984 54.600625 119.52977 54.390625 117.50977 C 53.200625 105.75977 51.39 88 41 88 C 30.61 88 28.799375 105.75977 27.609375 117.50977 C 27.409375 119.52977 25.940625 120.54984 24.640625 120.83984 C 24.010625 120.97984 21.850547 121.26031 20.560547 119.07031 C 7.6805469 97.280312 2.9901563 63.569453 10.910156 49.689453 C 13.480156 45.189453 17.11 43 22 43 C 25 43 27.879688 43.869062 30.929688 44.789062 C 34.119688 45.749063 37.420234 46.740234 40.990234 46.740234 C 42.930234 46.740234 44.970156 46.450078 47.410156 45.830078 C 49.020156 45.420078 49.990078 43.789687 49.580078 42.179688 C 49.170078 40.569688 47.529688 39.599766 45.929688 40.009766 C 43.989688 40.509766 42.42 40.740234 41 40.740234 C 38.31 40.740234 35.570156 39.909062 32.660156 39.039062 C 29.330156 38.039062 25.88 37 22 37 z"/></svg>