<?xml version="1.0" encoding="iso-8859-1"?><!-- Generator: Adobe Illustrator 23.0.3, SVG Export Plug-In . SVG Version: 6.00 Build 0)  --><svg xmlns="http://www.w3.org/2000/svg" xmlns:xlink="http://www.w3.org/1999/xlink" viewBox="0 0 50 50" width="500px" height="500px"><g id="Layer_1"><line style="fill:none;stroke:#000000;stroke-width:2;stroke-linejoin:round;stroke-miterlimit:10;" x1="25" y1="24" x2="25" y2="12"/><line style="fill:none;stroke:#000000;stroke-width:2;stroke-linejoin:round;stroke-miterlimit:10;" x1="30.196" y1="21" x2="19.804" y2="15"/><line style="fill:none;stroke:#000000;stroke-width:2;stroke-linejoin:round;stroke-miterlimit:10;" x1="19.804" y1="21" x2="30.196" y2="15"/><g><path d="M27.875,28.828c-1.094-0.874-2.271-1.005-2.875-1.005c-0.251,0-1.568,0.05-2.909,1.031c-0.919,0.679-11.788,9.136-17.628,13.679C3.911,42.962,3.43,43.337,3,43.669V46c0,0.553,0.447,1,1,1h42c0.553,0,1-0.447,1-1v-2.087C39.971,38.381,28.657,29.456,27.875,28.828z"/><path d="M47,41.367V22.135l-12.26,9.568C38.388,34.582,43.15,38.336,47,41.367z"/><path d="M46.638,19.854c-0.281-0.25-3.199-2.852-6.638-5.892V8c0-0.553-0.447-1-1-1h-6.944c-1.213-1.089-2.545-2.266-2.905-2.534C27.663,3.19,25.912,3,25,3s-2.663,0.19-4.102,1.426c-0.277,0.209-0.973,0.81-2.395,2.04L17.886,7H11c-0.553,0-1,0.447-1,1v5.962c-3.439,3.04-6.358,5.642-6.638,5.892L12,26.584V9h26v17.584L46.638,19.854z"/><path d="M3.234,40.954c3.474-2.702,8.243-6.412,11.963-9.3L3,22.135v19.001C3.08,41.075,3.153,41.017,3.234,40.954z"/></g></g><g id="&#x421;&#x43B;&#x43E;&#x439;_1"></g></svg>