<?xml version="1.0" encoding="iso-8859-1"?><!-- Generator: Adobe Illustrator 19.2.0, SVG Export Plug-In . SVG Version: 6.00 Build 0)  --><svg xmlns="http://www.w3.org/2000/svg" xmlns:xlink="http://www.w3.org/1999/xlink" viewBox="0 0 50 50" width="500px" height="500px"><path d="M50,27.9c0,0-4.092-1.848-10.664-0.157C45.699,18.263,46,9,46,9s-8.7,2.5-15.5,11.4c0-0.035,0-0.063,0-0.1c0-0.2,0-0.5,0-0.7C30.6,5.5,25,0,25,0s-5.6,5.5-5.5,19.6c0,0.2,0,0.5,0,0.7c0,0.037,0,0.065,0,0.1C12.7,11.5,4,9,4,9s0.301,9.263,6.664,18.743C4.092,26.052,0,27.9,0,27.9s2.7,6.7,11.4,9.6c-2.4,1.4-3.8,2.9-3.9,3L5,43c1.703,0.547,2.753,1,9,1c1.7,0,2.946-0.2,4.446-0.6c3-0.8,5.154-1.805,6.554-3.005c1.4,1.2,3.554,2.205,6.554,3.005C33.054,43.8,34.3,44,36,44c6.247,0,7.297-0.453,9-1l-2.5-2.5c-0.1-0.1-1.5-1.6-3.9-3C47.3,34.6,50,27.9,50,27.9z"/><path style="fill:none;stroke:#000000;stroke-width:2;stroke-linecap:round;stroke-linejoin:round;stroke-miterlimit:10;" d="M27,49c0,0-2-3.9-2-9.5"/></svg>