<svg xmlns="http://www.w3.org/2000/svg"  viewBox="0 0 128 128" width="64px" height="64px"><path d="M 64 1 C 29.94 1 26 31.25 26 54 C 26 55.66 27.34 57 29 57 C 30.66 57 32 55.66 32 54 C 32 41.412383 33.568294 32.158164 36.158203 25.347656 C 37.828124 27.126793 40.1708 28.169922 42.699219 28.169922 L 42.730469 28.169922 C 55.490469 28.129922 72.620469 28.080781 85.230469 28.050781 C 87.76929 28.043336 90.116554 26.984853 91.783203 25.1875 C 94.409122 32.012357 96 41.315097 96 54 L 96 54.089844 C 90.96 52.879844 81.940547 51.740547 74.560547 56.310547 C 74.350547 56.220547 74.139766 56.139609 74.009766 56.099609 C 68.479766 54.389609 63.430781 53.450469 58.550781 53.230469 C 50.620781 52.880469 43.040469 56.039922 37.730469 61.919922 C 32.430469 67.779922 30.039922 75.629219 31.169922 83.449219 L 31.289062 84.269531 C 31.729063 87.309531 32.740781 90.08 34.300781 92.5 C 40.500781 102.12 50.49 107 64 107 C 98.06 107 102 76.75 102 54 C 102 31.25 98.06 1 64 1 z M 64 7 C 72.411181 7 81.521869 8.7051852 87.863281 17.681641 C 88.3015 18.536526 88.307958 19.514316 87.869141 20.400391 C 87.629141 20.900391 86.870937 22.050781 85.210938 22.050781 C 72.600937 22.080781 55.470937 22.129922 42.710938 22.169922 L 42.699219 22.169922 C 41.049219 22.169922 40.289062 21.029062 40.039062 20.539062 C 39.606463 19.690187 39.601657 18.737551 39.992188 17.898438 C 46.339251 8.7385653 55.523675 7 64 7 z M 86.980469 59.025391 C 90.576719 58.990391 93.879844 59.714766 95.839844 60.259766 C 94.199844 96.179766 78.11 101 64 101 C 52.5 101 44.440078 97.150234 39.330078 89.240234 C 38.240078 87.550234 37.530937 85.590156 37.210938 83.410156 L 37.089844 82.589844 C 36.209844 76.539844 38.060156 70.479219 42.160156 65.949219 C 46.270156 61.409219 52.119766 58.960469 58.259766 59.230469 C 61.679766 59.380469 65.239063 59.949687 69.039062 60.929688 C 61.359063 68.959688 58.709844 78.770234 58.589844 79.240234 C 58.169844 80.840234 59.120703 82.480391 60.720703 82.900391 C 60.980703 82.970391 61.230234 83 61.490234 83 C 62.820234 83 64.030625 82.109531 64.390625 80.769531 C 64.420625 80.659531 67.499375 69.409609 76.359375 62.349609 C 79.494375 59.854609 83.384219 59.060391 86.980469 59.025391 z M 102.39844 99.617188 C 101.43486 99.618945 100.49141 100.0832 99.910156 100.93945 C 93.560156 110.33945 86.36 121 64 121 C 62.34 121 61 122.34 61 124 C 61 125.66 62.34 127 64 127 C 89.55 127 98.050625 114.41078 104.89062 104.30078 C 105.81063 102.92078 105.45008 101.06086 104.08008 100.13086 C 103.56258 99.782109 102.97658 99.616133 102.39844 99.617188 z M 38.367188 113.97461 C 37.405371 113.94971 36.449609 114.38672 35.849609 115.23047 C 34.889609 116.57047 35.200781 118.45016 36.550781 119.41016 C 39.790781 121.72016 43.310781 123.44922 47.300781 124.69922 C 47.600781 124.79922 47.899219 124.83984 48.199219 124.83984 C 49.479219 124.83984 50.660781 124.02023 51.050781 122.74023 C 51.550781 121.16023 50.669844 119.48047 49.089844 118.98047 C 45.699844 117.92047 42.739297 116.4693 40.029297 114.5293 C 39.523047 114.1693 38.944277 113.98955 38.367188 113.97461 z"/></svg>