<?xml version="1.0" encoding="iso-8859-1"?>
<!-- Generator: Adobe Illustrator 23.0.6, SVG Export Plug-In . SVG Version: 6.00 Build 0)  -->
<svg version="1.1" id="Filled" xmlns="http://www.w3.org/2000/svg" xmlns:xlink="http://www.w3.org/1999/xlink" x="0px" y="0px"
	 viewBox="0 0 50 50" style="enable-background:new 0 0 50 50;" xml:space="preserve">
<path d="M28,39H10.251c-3.884,0-7.136-3.044-7.248-6.785c-0.058-1.912,0.643-3.72,1.973-5.09C6.306,25.755,8.09,25,10,25h30
	c0.551,0,1-0.448,1-1s-0.449-1-1-1H14c-1.968,0-3.856-0.836-5.18-2.292c-1.343-1.478-1.978-3.393-1.787-5.393
	C7.371,11.774,10.544,9,14.258,9H33c0.551,0,1-0.448,1-1s-0.449-1-1-1H19c-0.415,0-0.786-0.256-0.934-0.643
	c-0.148-0.388-0.042-0.826,0.267-1.103C18.502,5.099,19,4.523,19,4c0-0.546-0.526-1.129-0.667-1.255
	c-0.309-0.276-0.415-0.715-0.267-1.103C18.214,1.256,18.585,1,19,1h14c1.91,0,3.694,0.755,5.024,2.125
	c1.33,1.37,2.03,3.178,1.973,5.09C39.884,11.956,36.633,15,32.749,15H14c-0.551,0-1,0.448-1,1s0.449,1,1,1h25.742
	c3.714,0,6.887,2.774,7.225,6.315l0,0c0.19,2-0.444,3.915-1.787,5.393C43.856,30.164,41.968,31,40,31H10c-0.551,0-1,0.448-1,1
	s0.449,1,1,1h14c2.757,0,5,2.243,5,5C29,38.553,28.552,39,28,39z"/>
<path style="fill:none;stroke:#000000;stroke-width:2;stroke-linecap:round;stroke-linejoin:round;stroke-miterlimit:10;" d="M26,41
	c0,1,0,6,0,6"/>
<polyline style="fill:none;stroke:#000000;stroke-width:2;stroke-linecap:round;stroke-linejoin:round;stroke-miterlimit:10;" points="
	22,44 26,48 30,44 "/>
</svg>