<?xml version="1.0" encoding="iso-8859-1"?>
<!-- Generator: Adobe Illustrator 22.1.0, SVG Export Plug-In . SVG Version: 6.00 Build 0)  -->
<svg version="1.1" id="Layer_1" xmlns="http://www.w3.org/2000/svg" xmlns:xlink="http://www.w3.org/1999/xlink" x="0px" y="0px"
	 viewBox="0 0 50 50" style="enable-background:new 0 0 50 50;" xml:space="preserve">
<g>
	<path d="M35.354,3.791c-0.008-0.076-0.026-0.15-0.051-0.222C35.096,2.983,34.261,2,31.004,2c-3.258,0-4.092,0.983-4.299,1.569
		c-0.025,0.072-0.042,0.146-0.051,0.221l-0.64,5.665c-0.062,0.549,0.333,1.044,0.881,1.106c0.038,0.004,0.076,0.006,0.114,0.006
		c0.502,0,0.935-0.377,0.992-0.888L28.078,9h5.851l0.077,0.68c0.062,0.549,0.56,0.942,1.106,0.881
		c0.549-0.062,0.943-0.557,0.881-1.106L35.354,3.791z"/>
	<path style="fill:none;stroke:#000000;stroke-width:2;stroke-linecap:square;stroke-linejoin:round;stroke-miterlimit:10;" d="
		M27.555,8C27.211,8.59,27,9.268,27,10c0,2.209,1.791,4,4,4s4-1.791,4-4c0-0.732-0.211-1.41-0.555-2"/>
	<path d="M27.141,11c0.446,1.722,1.997,3,3.859,3s3.412-1.278,3.859-3H27.141z"/>
	<path d="M5.5,42C3.019,42,1,39.981,1,37.5S3.019,33,5.5,33s4.5,2.019,4.5,4.5S7.981,42,5.5,42z"/>
	<path d="M48,48H2c-0.552,0-1-0.448-1-1v-2c0-0.552,0.448-1,1-1h46c0.552,0,1,0.448,1,1v2C49,47.552,48.552,48,48,48z"/>
	<path d="M30,42c1.103,0,2-0.897,2-2s-0.897-2-2-2H20c-0.552,0-1-0.448-1-1s0.448-1,1-1h10c2.206,0,4,1.794,4,4
		c0,0.736-0.222,1.41-0.574,2H49v-4c0-3.309-2.691-6-6-6H18c-3.309,0-6,2.691-6,6c0,1.537,0.585,2.938,1.539,4H30z"/>
	<path d="M44.188,24.259l-3.5-4.2c-1.62-1.944-4-3.059-6.53-3.059h-6.316c-2.531,0-4.911,1.115-6.529,3.059l-3.501,4.201
		c-0.952,1.143-1.078,2.767-0.313,4.042L20.319,33h3.718c0.068-0.079,0.14-0.157,0.235-0.214c0.343-0.206,0.586-0.534,0.683-0.922
		s0.037-0.792-0.169-1.135L22.7,27.251c-0.226-0.375-0.18-0.854,0.111-1.181l2.443-2.736c0.368-0.411,0.999-0.447,1.412-0.08
		c0.412,0.368,0.448,1,0.08,1.412l-1.953,2.187l1.708,2.846c0.058,0.096,0.095,0.201,0.143,0.301h8.713
		c0.048-0.1,0.085-0.204,0.143-0.301l1.708-2.846l-1.953-2.187c-0.368-0.412-0.332-1.044,0.08-1.412
		c0.413-0.367,1.044-0.331,1.412,0.08l2.443,2.736c0.292,0.327,0.337,0.805,0.111,1.181l-2.086,3.478
		c-0.206,0.343-0.266,0.747-0.169,1.135s0.34,0.716,0.683,0.922c0.095,0.057,0.167,0.134,0.235,0.214h3.719l2.82-4.699
		C45.266,27.026,45.141,25.402,44.188,24.259z"/>
</g>
</svg>