<svg xmlns="http://www.w3.org/2000/svg"  viewBox="0 0 128 128" width="64px" height="64px"><path d="M 52 1 C 44.8 1 39 6.8 39 14 L 39 121 L 36 121 C 34.3 121 33 122.3 33 124 C 33 125.7 34.3 127 36 127 L 124 127 C 125.7 127 127 125.7 127 124 C 127 122.3 125.7 121 124 121 L 121 121 L 121 14 C 121 6.8 115.2 1 108 1 L 52 1 z M 52 7 L 108 7 C 111.9 7 115 10.1 115 14 L 115 121 L 93 121 L 93 99 C 93 97.3 91.7 96 90 96 L 70 96 C 68.3 96 67 97.3 67 99 L 67 121 L 45 121 L 45 14 C 45 10.1 48.1 7 52 7 z M 80 16 C 78.3 16 77 17.3 77 19 L 77 26 L 70 26 C 68.3 26 67 27.3 67 29 C 67 30.7 68.3 32 70 32 L 77 32 L 77 39 C 77 40.7 78.3 42 80 42 C 81.7 42 83 40.7 83 39 L 83 32 L 90 32 C 91.7 32 93 30.7 93 29 C 93 27.3 91.7 26 90 26 L 83 26 L 83 19 C 83 17.3 81.7 16 80 16 z M 55 51 C 53.3 51 52 52.3 52 54 C 52 55.7 53.3 57 55 57 L 105 57 C 106.7 57 108 55.7 108 54 C 108 52.3 106.7 51 105 51 L 55 51 z M 20 66 C 12.8 66 7 71.8 7 79 L 7 124 C 7 125.7 8.3 127 10 127 C 11.7 127 13 125.7 13 124 L 13 79 C 13 75.1 16.1 72 20 72 L 30 72 C 31.7 72 33 70.7 33 69 C 33 67.3 31.7 66 30 66 L 20 66 z M 55 66 C 53.3 66 52 67.3 52 69 C 52 70.7 53.3 72 55 72 L 105 72 C 106.7 72 108 70.7 108 69 C 108 67.3 106.7 66 105 66 L 55 66 z M 22 81 C 20.3 81 19 82.3 19 84 C 19 85.7 20.3 87 22 87 L 30 87 C 31.7 87 33 85.7 33 84 C 33 82.3 31.7 81 30 81 L 22 81 z M 55 81 C 53.3 81 52 82.3 52 84 C 52 85.7 53.3 87 55 87 L 105 87 C 106.7 87 108 85.7 108 84 C 108 82.3 106.7 81 105 81 L 55 81 z M 22 96 C 20.3 96 19 97.3 19 99 C 19 100.7 20.3 102 22 102 L 30 102 C 31.7 102 33 100.7 33 99 C 33 97.3 31.7 96 30 96 L 22 96 z M 73 102 L 87 102 L 87 121 L 73 121 L 73 102 z"/></svg>