<svg xmlns="http://www.w3.org/2000/svg"  viewBox="0 0 128 128" width="64px" height="64px"><path d="M 64 1.7246094 C 62.625 1.7246094 61.25 2.0492187 60 2.6992188 L 15.5 24.900391 C 13 26.100391 11.399609 28.600391 11.099609 31.400391 C 8.0996094 69.100391 22.499609 93.3 35.099609 107 C 46.499609 119.4 59.199609 126 64.099609 126 C 67.499609 126 78.3 121.60039 89 110.90039 C 101.8 98.200391 117 74.299219 117 32.199219 C 117 29.099219 115.29961 26.300391 112.59961 24.900391 L 68 2.6992188 C 66.75 2.0492187 65.375 1.7246094 64 1.7246094 z M 64 30 C 65.7 30 67 31.3 67 33 L 67 39.300781 C 69.7 39.800781 72.200391 40.800391 74.400391 42.400391 L 79.099609 37.699219 C 80.299609 36.499219 82.200781 36.499219 83.300781 37.699219 C 84.500781 38.899219 84.500781 40.800391 83.300781 41.900391 L 78.599609 46.599609 C 80.099609 48.799609 81.199219 51.3 81.699219 54 L 88 54 C 89.7 54 91 55.3 91 57 C 91 58.7 89.7 60 88 60 L 81.699219 60 C 81.199219 62.7 80.199609 65.200391 78.599609 67.400391 L 83.300781 72.099609 C 84.500781 73.299609 84.500781 75.200781 83.300781 76.300781 C 82.700781 76.900781 81.899219 77.199219 81.199219 77.199219 C 80.499219 77.199219 79.699609 76.900781 79.099609 76.300781 L 74.400391 71.599609 C 72.200391 73.099609 69.7 74.199219 67 74.699219 L 67 81 C 67 82.7 65.7 84 64 84 C 62.3 84 61 82.7 61 81 L 61 74.699219 C 58.3 74.199219 55.799609 73.199609 53.599609 71.599609 L 48.900391 76.300781 C 48.300391 76.900781 47.500781 77.199219 46.800781 77.199219 C 46.000781 77.199219 45.299219 76.900781 44.699219 76.300781 C 43.499219 75.100781 43.499219 73.199609 44.699219 72.099609 L 49.400391 67.400391 C 47.900391 65.200391 46.800781 62.7 46.300781 60 L 40 60 C 38.3 60 37 58.7 37 57 C 37 55.3 38.3 54 40 54 L 46.300781 54 C 46.800781 51.3 47.800391 48.799609 49.400391 46.599609 L 44.699219 41.900391 C 43.499219 40.700391 43.499219 38.799219 44.699219 37.699219 C 45.899219 36.499219 47.800391 36.499219 48.900391 37.699219 L 53.599609 42.400391 C 55.799609 40.900391 58.3 39.800781 61 39.300781 L 61 33 C 61 31.3 62.3 30 64 30 z M 64 45 A 12 12 0 0 0 64 69 A 12 12 0 0 0 64 45 z"/></svg>