<svg xmlns="http://www.w3.org/2000/svg"  viewBox="0 0 50 50" width="50px" height="50px"><path d="M 8 8 L 11.841797 14 L 8.8417969 13 L 17.841797 23 L 13.841797 15 L 16.841797 16 L 12.841797 8 L 8 8 z M 37.5 8 C 35.750001 8 34.310226 8.6922556 33.376953 9.7421875 C 32.443681 10.792119 32 12.152778 32 13.5 C 32 14.847222 32.443681 16.207881 33.376953 17.257812 C 34.310226 18.307744 35.750001 19 37.5 19 C 39.249999 19 40.689774 18.307744 41.623047 17.257812 C 42.556319 16.207881 43 14.847222 43 13.5 C 43 12.152778 42.556319 10.792119 41.623047 9.7421875 C 40.689774 8.6922556 39.249999 8 37.5 8 z M 37.5 10 C 38.749999 10 39.560226 10.432744 40.126953 11.070312 C 40.69368 11.707882 41 12.597222 41 13.5 C 41 14.402778 40.69368 15.292119 40.126953 15.929688 C 39.560226 16.567256 38.749999 17 37.5 17 C 36.250001 17 35.439774 16.567256 34.873047 15.929688 C 34.30632 15.292118 34 14.402778 34 13.5 C 34 13.274306 34.019068 13.050369 34.056641 12.830078 C 34.169358 12.169205 34.448002 11.548489 34.873047 11.070312 C 35.439774 10.432745 36.250001 10 37.5 10 z M 37.673828 20.359375 A 1.0001 1.0001 0 0 0 37.476562 20.378906 C 36.868876 20.408276 36.111328 20.509766 36.111328 20.509766 A 1.0001 1.0001 0 0 0 36.070312 20.515625 L 22.320312 23.015625 L 22.359375 23.009766 C 21.343537 23.154885 20.481437 23.500139 19.873047 24.130859 C 19.745213 24.263388 19.641185 24.411259 19.542969 24.5625 C 19.46632 24.61017 19.383059 24.64673 19.310547 24.701172 L 19.326172 24.6875 L 12.496094 29.591797 C 11.611373 30.21265 11.095128 31.109992 10.984375 32.005859 C 10.873622 32.901727 11.129716 33.768115 11.607422 34.46875 C 12.085127 35.169385 12.797464 35.725054 13.671875 35.949219 C 14.546286 36.173384 15.57152 36.020609 16.472656 35.423828 A 1.0001 1.0001 0 0 0 16.498047 35.40625 L 20.666016 32.458984 L 23.189453 37 L 9.5 37 C 8.4166669 37 7.4768923 37.442256 6.8769531 38.117188 C 6.2770139 38.792119 6 39.652778 6 40.5 C 6 41.347222 6.2770139 42.207881 6.8769531 42.882812 C 7.4768923 43.557744 8.4166669 44 9.5 44 L 31 44 A 1.0001 1.0001 0 0 0 31.099609 43.996094 A 1.0001 1.0001 0 0 0 31.144531 43.990234 C 32.503557 43.964946 33.795756 43.552818 34.884766 42.828125 C 35.447478 42.453661 35.95681 41.999336 36.392578 41.474609 C 36.827994 40.950306 37.191496 40.356545 37.462891 39.707031 L 37.462891 39.705078 L 42.521484 27.646484 C 42.807911 26.962286 42.938365 26.25127 42.927734 25.552734 C 42.917104 24.854199 42.767251 24.167919 42.494141 23.535156 C 41.948475 22.270919 40.91194 21.21763 39.525391 20.695312 C 39.525391 20.695312 39.523438 20.695312 39.523438 20.695312 C 38.932834 20.470575 38.305747 20.355927 37.673828 20.359375 z M 37.679688 22.359375 A 1.0001 1.0001 0 0 0 37.685547 22.359375 C 38.071138 22.357275 38.454118 22.427185 38.814453 22.564453 A 1.0001 1.0001 0 0 0 38.818359 22.566406 C 39.688874 22.893484 40.332953 23.541551 40.669922 24.322266 C 41.006891 25.10298 41.036848 26.015247 40.677734 26.873047 L 35.617188 38.933594 A 1.0001 1.0001 0 0 0 35.617188 38.935547 C 35.228711 39.865803 34.58172 40.632034 33.779297 41.166016 C 32.976874 41.699997 32.019872 42.00092 31.011719 42 A 1.0001 1.0001 0 0 0 31 42 L 9.5 42 C 8.9166671 42 8.6064406 41.817256 8.3730469 41.554688 C 8.1396531 41.292119 8 40.902778 8 40.5 C 8 40.399305 8.0086514 40.300369 8.0253906 40.203125 C 8.0756084 39.911393 8.1980015 39.642239 8.3730469 39.445312 C 8.6064406 39.182744 8.9166671 39 9.5 39 L 24.748047 39 A 1.0001 1.0001 0 0 0 25.046875 39 L 27.878906 39 A 1.0001 1.0001 0 0 0 28.521484 38.884766 A 1.0001 1.0001 0 0 0 28.582031 38.849609 A 1.0001 1.0001 0 0 0 28.607422 38.833984 A 1.0001 1.0001 0 0 0 28.623047 38.822266 A 1.0001 1.0001 0 0 0 28.625 38.820312 A 1.0001 1.0001 0 0 0 29.025391 38.234375 L 30.744141 34.013672 L 30.746094 34.011719 A 1.0001 1.0001 0 0 0 30.878906 33.685547 L 32.865234 28.828125 A 1.0001 1.0001 0 0 0 32.900391 28.734375 A 1.0001 1.0001 0 0 0 32.935547 28.570312 L 37.136719 27.990234 A 1.0001 1.0001 0 1 0 36.863281 26.009766 L 22.482422 27.994141 C 21.651813 27.983652 21 27.333518 21 26.5 C 21 26.237182 21.029445 26.042308 21.085938 25.884766 A 1.0001 1.0001 0 0 0 21.228516 25.628906 C 21.256353 25.591679 21.281726 25.55346 21.314453 25.519531 C 21.518563 25.307929 21.906463 25.095115 22.640625 24.990234 A 1.0001 1.0001 0 0 0 22.679688 24.984375 L 36.408203 22.488281 C 36.439893 22.484481 37.469963 22.359375 37.679688 22.359375 z M 19.105469 27.308594 C 19.475581 28.842889 20.858263 30 22.5 30 A 1.0001 1.0001 0 0 0 22.636719 29.990234 L 25.378906 29.611328 A 1.0001 1.0001 0 0 0 25.402344 29.640625 L 28.738281 33.638672 L 27.367188 37 L 25.478516 37 L 21.875 30.513672 A 1.0001 1.0001 0 0 0 20.423828 30.183594 L 15.367188 33.755859 C 14.881013 34.077828 14.515643 34.100348 14.169922 34.011719 C 13.824196 33.923085 13.488242 33.676896 13.259766 33.341797 C 13.031289 33.006698 12.924961 32.604205 12.96875 32.25 C 13.01254 31.895795 13.167214 31.563474 13.644531 31.228516 A 1.0001 1.0001 0 0 0 13.652344 31.222656 L 19.105469 27.308594 z M 30.683594 28.878906 L 29.59375 31.544922 L 27.712891 29.289062 L 30.683594 28.878906 z"/></svg>