<svg xmlns="http://www.w3.org/2000/svg"  viewBox="0 0 128 128" width="64px" height="64px"><path d="M 64 1 C 29.3 1 1 29.3 1 64 C 1 98.7 29.3 127 64 127 C 98.7 127 127 98.7 127 64 C 127 29.3 98.7 1 64 1 z M 64 7 C 95.4 7 121 32.6 121 64 C 121 78.6 115.40078 91.999609 106.30078 102.09961 L 25.900391 21.699219 C 36.000391 12.599219 49.4 7 64 7 z M 64 14 C 56.8 14 51 19.8 51 27 C 51 34.2 56.8 40 64 40 C 71.2 40 77 34.2 77 27 C 77 19.8 71.2 14 64 14 z M 64 20 C 67.9 20 71 23.1 71 27 C 71 30.9 67.9 34 64 34 C 60.1 34 57 30.9 57 27 C 57 23.1 60.1 20 64 20 z M 21.699219 25.900391 L 102.19922 106.40039 C 91.999219 115.40039 78.6 121 64 121 C 32.6 121 7 95.4 7 64 C 7 49.4 12.599219 36.000391 21.699219 25.900391 z M 64 46 C 62.3 46 61 47.3 61 49 C 61 50.7 62.3 52 64 52 L 72 52 C 74.8 52 77 54.2 77 57 C 77 58.7 78.3 60 80 60 C 81.7 60 83 58.7 83 57 C 83 50.9 78.1 46 72 46 L 64 46 z M 91.988281 60.962891 C 88.675781 60.975391 85.350781 62.250781 82.800781 64.800781 C 81.600781 66.000781 81.600781 67.9 82.800781 69 C 84.000781 70.2 85.9 70.2 87 69 C 89.7 66.3 94.200391 66.3 96.900391 69 C 99.600391 71.7 99.600391 76.200391 96.900391 78.900391 C 95.700391 80.100391 95.700391 81.999609 96.900391 83.099609 C 97.500391 83.699609 98.3 84 99 84 C 99.7 84 100.49961 83.699609 101.09961 83.099609 C 106.19961 77.999609 106.19961 69.799219 101.09961 64.699219 C 98.599609 62.199219 95.300781 60.950391 91.988281 60.962891 z M 35 61 C 27.8 61 22 66.8 22 74 C 22 81.2 27.8 87 35 87 C 42.2 87 48 81.2 48 74 C 48 66.8 42.2 61 35 61 z M 35 67 C 38.9 67 42 70.1 42 74 C 42 77.9 38.9 81 35 81 C 31.1 81 28 77.9 28 74 C 28 70.1 31.1 67 35 67 z M 27 93 C 25.3 93 24 94.3 24 96 C 24 97.7 25.3 99 27 99 L 43 99 C 45.8 99 48 101.2 48 104 L 48 111 C 48 112.7 49.3 114 51 114 C 52.7 114 54 112.7 54 111 L 54 104 C 54 97.9 49.1 93 43 93 L 27 93 z M 80.201172 94.126953 C 79.619922 94.082422 79.025 94.2 78.5 94.5 C 75.1 96.5 73 100.1 73 104 L 73 111 C 73 112.7 74.3 114 76 114 C 77.7 114 79 112.7 79 111 L 79 104 C 79 102.2 80 100.59922 81.5 99.699219 C 82.9 98.899219 83.399609 96.999609 82.599609 95.599609 C 82.099609 94.724609 81.169922 94.201172 80.201172 94.126953 z"/></svg>