<?xml version="1.0" encoding="iso-8859-1"?>
<!-- Generator: Adobe Illustrator 23.0.6, SVG Export Plug-In . SVG Version: 6.00 Build 0)  -->
<svg version="1.1" id="Filled" xmlns="http://www.w3.org/2000/svg" xmlns:xlink="http://www.w3.org/1999/xlink" x="0px" y="0px"
	 viewBox="0 0 50 50" style="enable-background:new 0 0 50 50;" xml:space="preserve">
<path d="M32,26.5c0,0.828-0.672,1.5-1.5,1.5S29,27.328,29,26.5s0.672-0.5,1.5-0.5S32,25.672,32,26.5z M21,26.5
	c0,0.828-0.672,1.5-1.5,1.5S18,27.328,18,26.5s0.672-0.5,1.5-0.5S21,25.672,21,26.5z"/>
<line style="fill:none;stroke:#000000;stroke-width:2;stroke-miterlimit:10;" x1="25" y1="41" x2="25" y2="49"/>
<path d="M27,42l-2,2l-2-2v-2c0-1.105,0.895-2,2-2h0c1.105,0,2,0.895,2,2V42z"/>
<path d="M41.979,23.904C41.983,23.868,42,20.398,42,20.398C42,9.504,35.645,3,25,3C11.553,3,8,14.381,8,20.398v3.5
	c0,0.009,0.005,0.016,0.005,0.025C7.365,24.676,7,25.676,7,26.801c0,2.259,1.54,4.174,3.672,4.688
	c1.816,4.552,3.958,7.944,6.398,10.2c0.395,2.143,2.573,3.844,4.876,4.701c0.018,0.007,0.036,0.019,0.054,0.025v-0.004v-2.583l-1-1
	V40c0-2.206,1.794-4,4-4s4,1.794,4,4v2.829l-1,1v2.583v0.004c0.017-0.006,0.034-0.017,0.051-0.024
	c2.307-0.857,4.489-2.562,4.881-4.709c2.448-2.272,4.589-5.695,6.397-10.291C41.49,30.892,43,29.049,43,26.801
	C43,25.667,42.63,24.658,41.979,23.904z M38.497,29.506c-0.375,0.039-0.696,0.286-0.83,0.639c-1.416,3.719-3.025,6.638-4.817,8.749
	c-0.081,0.049-0.167,0.059-0.252,0.074C31.431,35.369,27.918,29,25,29c-2.92,0-6.436,6.377-7.6,9.976
	c-0.085-0.015-0.171-0.024-0.252-0.073c-1.786-2.093-3.395-4.982-4.816-8.662c-0.135-0.35-0.454-0.594-0.827-0.634
	C10.077,29.454,9,28.248,9,26.801c0-0.948,0.379-1.469,0.605-1.695c0.092-0.092,0.158-0.199,0.207-0.312
	c3.609-1.241,8.407-5.918,9.796-11.611c2.346,2.86,5.873,2.833,8.833,2.81c3.92-0.031,6.184,0.118,7.155,3.533
	c0.61,2.143,2.049,3.915,3.949,4.865l0.615,0.307c0.047,0.148,0.117,0.29,0.235,0.407C40.621,25.332,41,25.853,41,26.801
	C41,28.216,39.947,29.354,38.497,29.506z"/>
</svg>