<svg xmlns="http://www.w3.org/2000/svg"  viewBox="0 0 128 128" width="64px" height="64px"><path d="M71.3 59.1C71.3 59 71.3 59 71.3 59.1c.2-1.7-.9-3.2-2.5-3.4-.6-.1-1.2-.1-1.8-.2V4.1c0-1.5-1-2.8-2.4-3.1C62.7.7 61 2.1 61 4v51.5c-.7.1-1.5.1-2.2.2-1.6.2-2.7 1.7-2.5 3.3 0 0 0 0 0 .1.2 1.6 1.6 2.8 3.2 2.6 1.5-.2 2.9-.3 4.5-.3 0 0 0 0 0 0 1.4 0 2.8.1 4.1.2C69.7 61.8 71.1 60.6 71.3 59.1zM88.5 36.4c-3.1 0-5.9.9-8.3 2.7-2.8 2-5 5.2-6.5 9.5-.5 1.4-1 3-1.4 4.6-.4 1.6.6 3.1 2.1 3.5 11.5 3 21.3 10.8 26.8 21.8.7 1.4.3 3.1-1 3.9-.5.3-1.1.5-1.6.5-1.1 0-2.2-.6-2.7-1.7-4.5-9.1-12.2-15.5-21.4-18.3-1.8-.5-3.7.7-3.8 2.6-.1 2-.2 4-.2 6.2v23.4c0 10.8 4.9 18.8 13.5 21.7l27.9 9.7c1.2.4 2.4.6 3.6.6 6 0 10.9-4.8 11-10.8.1-1.3 1-10.6 0-20.5C123.7 67.5 103.8 36.4 88.5 36.4zM12 127.2C12 127.2 12 127.2 12 127.2c1.2 0 2.4-.2 3.7-.6l25.9-9.6C50.8 113.7 57 105 57 95.2V71.8c0-2.1-.1-4.2-.2-6.1-.1-1.9-2-3.2-3.8-2.6C44 65.8 36.4 72.2 32 81.2c-.8 1.5-2.6 2.1-4.2 1.3-1.4-.8-1.9-2.7-1.1-4.2 5.5-10.8 15.1-18.5 26.4-21.5 1.5-.4 2.5-1.9 2.1-3.4-1.5-6.4-3.9-11-7.4-13.8-2.5-2.1-5.5-3.1-8.9-3.1-15.3 0-35.1 31.1-38 59.5-1 9.8-.1 19.1 0 20.5C1.1 122.3 6 127.2 12 127.2z"/></svg>