<?xml version="1.0" encoding="utf-8"?><!-- Generator: Adobe Illustrator 17.0.0, SVG Export Plug-In . SVG Version: 6.00 Build 0)  --><!DOCTYPE svg PUBLIC "-//W3C//DTD SVG 1.1//EN" "http://www.w3.org/Graphics/SVG/1.1/DTD/svg11.dtd"><svg xmlns="http://www.w3.org/2000/svg" xmlns:xlink="http://www.w3.org/1999/xlink" viewBox="0 0 50 50" width="50px" height="50px"><path fill="none" stroke="#000000" stroke-width="2" stroke-linecap="round" stroke-linejoin="round" stroke-miterlimit="10" d="M12.628,34.505C7.377,37.13,1.144,34.5,1.144,34.5s-0.549-8.199,6.889-12.465"/><path fill="none" stroke="#000000" stroke-width="2" stroke-linecap="round" stroke-linejoin="round" stroke-miterlimit="10" d="M16.31,7.822C7.924,10.549,5.815,19.863,5.815,19.863s4.542,5.009,12.225,2.42c1.558-0.525,5.576-2.427,6.865-3.609"/><path fill="none" stroke="#000000" stroke-width="2" stroke-linecap="round" stroke-linejoin="round" stroke-miterlimit="10" d="M15.923,22.846c-5.055,5.934-2.869,14.101-2.869,14.101S21.857,39,27.242,33.835"/><path fill="none" stroke="#000000" stroke-width="2" stroke-linecap="round" stroke-linejoin="round" stroke-miterlimit="10" d="M15.581,37.458c-3.172,5.579-0.08,11.398-0.08,11.398s7.081,1.401,12.879-6.366"/><path fill="none" stroke="#000000" stroke-width="2" stroke-linecap="round" stroke-linejoin="round" stroke-miterlimit="10" d="M32.018,25.058c-2.134,2.227-3.775,5.345-4.299,6.902c-2.591,7.685,2.419,12.224,2.419,12.224s8.633-1.695,12.352-9.899"/><path fill="none" stroke="#000000" stroke-width="2" stroke-linecap="round" stroke-linejoin="round" stroke-miterlimit="10" d="M4,35.538c-3.205,5.769-1.168,11.633-1.168,11.633s6.914,1.952,11.513-1.354"/><path fill="none" stroke="#000000" stroke-width="2" stroke-linecap="round" stroke-linejoin="round" stroke-miterlimit="10" d="M42.351,7.651c-13.9-13.897-27.667-1.545-27.667-1.545s4.432,4.7,10.909,7.066c-1.392,4.928,0.692,10.544,0.692,10.544s5.618,2.085,10.545,0.695c2.367,6.477,7.064,10.907,7.064,10.907S56.248,21.548,42.351,7.651z"/><path fill="none" stroke="#000000" stroke-width="2" stroke-linecap="round" stroke-linejoin="round" stroke-miterlimit="10" d="M48.924,1.067c-1.62,3.5-6.27,6.896-6.27,6.896"/></svg>