<svg xmlns="http://www.w3.org/2000/svg"  viewBox="0 0 128 128" width="64px" height="64px"><path d="M 45 2 C 32.26 2 21.250781 8.4890625 14.800781 19.789062 C 6.6707812 34.039062 7.2596875 52.770469 9.1796875 65.980469 C 9.3896875 67.470469 10.670625 68.550781 12.140625 68.550781 C 12.290625 68.550781 12.430312 68.539531 12.570312 68.519531 C 14.210313 68.279531 15.349375 66.759141 15.109375 65.119141 C 13.329375 52.849141 12.729766 35.539531 20.009766 22.769531 C 25.369766 13.379531 34.47 8 45 8 L 83 8 C 93.53 8 102.63047 13.379531 107.98047 22.769531 C 115.27047 35.539531 114.67086 52.849141 112.88086 65.119141 C 112.65086 66.759141 113.77992 68.279531 115.41992 68.519531 C 117.05992 68.749531 118.58031 67.620469 118.82031 65.980469 C 120.74031 52.770469 121.32922 34.039062 113.19922 19.789062 C 106.74922 8.4790625 95.74 2 83 2 L 45 2 z M 45 18 C 37.96 18 32.329219 21.360937 28.699219 27.710938 C 24.119219 35.750937 22.809766 48.519922 25.009766 63.669922 C 27.069766 77.839922 31.950391 92.209141 38.400391 103.11914 C 40.590391 106.81914 44.719687 108.60945 48.929688 107.68945 C 53.139688 106.76945 56.140078 103.39938 56.580078 99.109375 C 57.190078 93.149375 59.03 75 64 75 C 68.97 75 70.809922 93.149141 71.419922 99.119141 C 71.849922 103.39914 74.860313 106.76922 79.070312 107.69922 C 79.810313 107.85922 80.539766 107.93945 81.259766 107.93945 C 84.659766 107.93945 87.789609 106.18086 89.599609 103.13086 C 96.049609 92.220859 100.93023 77.839687 102.99023 63.679688 C 105.19023 48.519688 103.88078 35.750703 99.300781 27.720703 C 95.670781 21.360703 90.04 18 83 18 C 79.12 18 75.669844 19.039062 72.339844 20.039062 C 69.429844 20.909062 66.69 21.740234 64 21.740234 C 61.31 21.740234 58.560156 20.909063 55.660156 20.039062 C 52.330156 19.039062 48.88 18 45 18 z M 45 24 C 48 24 50.879453 24.869063 53.939453 25.789062 C 57.129453 26.749063 60.43 27.740234 64 27.740234 C 67.57 27.740234 70.870547 26.749063 74.060547 25.789062 C 77.120547 24.869062 80 24 83 24 C 87.89 24 91.519844 26.189453 94.089844 30.689453 C 102.00984 44.569453 97.319453 78.290312 84.439453 100.07031 C 83.139453 102.26031 80.989375 101.97984 80.359375 101.83984 C 79.059375 101.54984 77.590625 100.52977 77.390625 98.509766 C 76.200625 86.759766 74.4 69 64 69 C 53.6 69 51.799375 86.759766 50.609375 98.509766 C 50.409375 100.52977 48.940625 101.54984 47.640625 101.83984 C 47.010625 101.97984 44.850547 102.26031 43.560547 100.07031 C 30.680547 78.280313 25.990156 44.569453 33.910156 30.689453 C 36.480156 26.189453 40.11 24 45 24 z"/></svg>