<svg xmlns="http://www.w3.org/2000/svg"  viewBox="0 0 128 128" width="64px" height="64px"><path d="M 48.992188 1.78125 C 43.517349 1.7721283 37.946875 2.7085938 32.5 4.6992188 C 15 10.999219 2.6992188 27.199219 1.1992188 45.699219 C -1.6007812 79.899219 20.899219 101.49922 30.699219 109.19922 C 30.799219 109.29922 30.900391 109.30039 30.900391 109.40039 C 31.400391 109.90039 32.2 110.19922 33 110.19922 C 34.7 110.19922 36 108.89922 36 107.19922 C 36 105.69922 35.100391 105 34.400391 104.5 C 25.400391 97.4 4.5996094 77.499219 7.0996094 46.199219 C 8.4996094 29.999219 19.299609 15.900781 34.599609 10.300781 C 56.299609 2.4007812 80.400781 13.600781 88.300781 35.300781 L 101.90039 72.699219 C 102.60039 74.499219 102.09922 76.600391 100.69922 77.900391 L 98.199219 80.400391 C 96.099219 82.500391 95 85.199219 95 88.199219 L 95 104 C 95 107.9 91.9 111 88 111 L 71 111 C 69.3 111 68 112.3 68 114 L 68 124 C 68 125.7 69.3 127 71 127 C 72.7 127 74 125.7 74 124 L 74 117 L 88 117 C 95.2 117 101 111.2 101 104 L 101 88.300781 C 101 87.000781 101.5 85.700781 102.5 84.800781 L 105 82.300781 C 108 79.300781 108.99961 74.800781 107.59961 70.800781 L 93.900391 33.300781 C 86.869141 13.925781 68.545181 1.8138275 48.992188 1.78125 z M 79.599609 67 C 61.599609 67 47 81.599609 47 99.599609 L 47 115 L 47 115.09961 L 47 115.40039 L 47 124 C 47 125.7 48.3 127 50 127 C 51.7 127 53 125.7 53 124 L 53 115.40039 C 53 106.00039 60.6 98.400391 70 98.400391 L 84 98.400391 C 85.7 98.400391 87 97.100391 87 95.400391 C 87 93.700391 85.7 92.400391 84 92.400391 L 70 92.400391 C 63.3 92.400391 57.2 95.300391 53 99.900391 L 53 99.599609 C 53 84.899609 64.899609 73 79.599609 73 L 89 73 C 90.7 73 92 71.7 92 70 C 92 68.3 90.7 67 89 67 L 79.599609 67 z"/></svg>