<svg xmlns="http://www.w3.org/2000/svg"  viewBox="0 0 128 128" width="64px" height="64px"><path d="M110 93A4 4 0 10110 101 4 4 0 10110 93zM123 80A4 4 0 10123 88 4 4 0 10123 80zM123 106A4 4 0 10123 114 4 4 0 10123 106zM1.1 48.7c-1.3 31.6 19.1 52 28.9 59.9V127h39l5-10h14c7.2 0 13-5.8 13-13v-1c0-1.7-1.3-3-3-3h-5c-1.7 0-3-1.3-3-3s1.3-3 3-3h5c1.7 0 3-1.3 3-3v-3.5c0-.8.3-1.6.9-2.1l4-4c2.5-2.5 3.3-6.2 2.1-9.4l-14-38.6c-6.9-18.9-25-31.5-45-31.5-5.8 0-11.5 1-16.9 3.1C14.5 11.5 2.7 27.9 1.1 46.6l-.2 2.1L1.1 48.7z"/></svg>