<svg xmlns="http://www.w3.org/2000/svg"  viewBox="0 0 128 128" width="64px" height="64px"><path d="M 22 1 C 14.96 1 9.3292188 4.3607031 5.6992188 10.720703 C 1.1192188 18.760703 -0.19023438 31.529688 2.0097656 46.679688 C 4.0697656 60.839687 8.9503906 75.219141 15.400391 86.119141 C 17.590391 89.819141 21.719687 91.609453 25.929688 90.689453 C 30.139688 89.769453 33.140078 86.399375 33.580078 82.109375 C 34.190078 76.149375 36.03 58 41 58 C 45.97 58 47.809922 76.149141 48.419922 82.119141 C 48.849922 86.399141 51.860312 89.769219 56.070312 90.699219 C 56.810312 90.859219 57.539766 90.939453 58.259766 90.939453 C 61.659766 90.939453 64.789609 89.180859 66.599609 86.130859 C 73.049609 75.220859 77.930234 60.839688 79.990234 46.679688 C 82.190234 31.519688 80.880781 18.750703 76.300781 10.720703 C 72.670781 4.3607031 67.04 1 60 1 C 56.12 1 52.669844 2.0390625 49.339844 3.0390625 C 46.429844 3.9090625 43.69 4.7402344 41 4.7402344 C 38.31 4.7402344 35.560156 3.9090625 32.660156 3.0390625 C 29.330156 2.0390625 25.88 1 22 1 z M 22 7 C 25 7 27.879453 7.8690625 30.939453 8.7890625 C 34.129453 9.7490625 37.43 10.740234 41 10.740234 C 44.57 10.740234 47.870547 9.7490625 51.060547 8.7890625 C 54.120547 7.8690625 57 7 60 7 C 64.89 7 68.519844 9.1894531 71.089844 13.689453 C 79.009844 27.569453 74.319453 61.290312 61.439453 83.070312 C 60.139453 85.260312 57.989375 84.979844 57.359375 84.839844 C 56.059375 84.549844 54.590625 83.529766 54.390625 81.509766 C 53.200625 69.759766 51.4 52 41 52 C 30.6 52 28.799375 69.759766 27.609375 81.509766 C 27.409375 83.529766 25.940625 84.549844 24.640625 84.839844 C 24.010625 84.979844 21.850547 85.260312 20.560547 83.070312 C 7.6805469 61.280313 2.9901563 27.569453 10.910156 13.689453 C 13.480156 9.1894531 17.11 7 22 7 z M 89.603516 52.255859 C 88.643066 52.340332 87.740234 52.882812 87.240234 53.789062 C 86.440234 55.239062 86.960156 57.069141 88.410156 57.869141 C 89.520156 58.479141 90.410547 59.37 91.060547 60.5 L 119.92969 110.5 C 121.19969 112.69 121.19969 115.31 119.92969 117.5 C 118.66969 119.69 116.39914 121 113.86914 121 L 56.130859 121 C 53.600859 121 51.340313 119.69 50.070312 117.5 C 48.800313 115.31 48.800312 112.69 50.070312 110.5 L 54.679688 102.51953 C 55.509687 101.07953 55.010078 99.249922 53.580078 98.419922 C 52.140078 97.589922 50.310469 98.089531 49.480469 99.519531 L 44.869141 107.5 C 42.519141 111.57 42.519141 116.43 44.869141 120.5 C 47.219141 124.57 51.430859 127 56.130859 127 L 113.86914 127 C 118.56914 127 122.77914 124.57023 125.11914 120.49023 C 127.46914 116.42023 127.46914 111.56023 125.11914 107.49023 L 96.25 57.490234 C 95.06 55.440234 93.360313 53.749141 91.320312 52.619141 C 90.776562 52.319141 90.179785 52.205176 89.603516 52.255859 z M 85 72 C 83.34 72 82 73.34 82 75 L 82 95 C 82 96.66 83.34 98 85 98 C 86.66 98 88 96.66 88 95 L 88 75 C 88 73.34 86.66 72 85 72 z M 85 104 C 83.34 104 82 105.34 82 107 L 82 110 C 82 111.66 83.34 113 85 113 C 86.66 113 88 111.66 88 110 L 88 107 C 88 105.34 86.66 104 85 104 z"/></svg>