<?xml version="1.0" encoding="iso-8859-1"?>
<!-- Generator: Adobe Illustrator 25.4.1, SVG Export Plug-In . SVG Version: 6.00 Build 0)  -->
<svg version="1.1" id="Layer_1" xmlns="http://www.w3.org/2000/svg" xmlns:xlink="http://www.w3.org/1999/xlink" x="0px" y="0px"
	 viewBox="0 0 50 50" style="enable-background:new 0 0 50 50;" xml:space="preserve">
<path d="M29.565,7.963C29.194,6.299,29,3.989,29,1c0-0.552-0.448-1-1-1h-6c-0.552,0-1,0.448-1,1c0,9.391,1.238,14.065,3.251,16.807
	C24.865,13.149,26.645,9.865,29.565,7.963z"/>
<path d="M46.504,12.707C44.125,9.759,40.616,8,37.118,8C29.533,8,26,12.376,26,21.772l0.003,0.253
	c0.091,6.044-0.993,10.522-3.05,12.611C22.049,35.554,20.972,36,19.661,36c-2.991,0-4.373-0.53-5.709-1.043
	C12.725,34.486,11.458,34,9.227,34c-2.092,0-4.312,0.484-6.38,3.999c-1.139,1.942-2.723,6.419-2.789,6.609
	c-0.09,0.253-0.073,0.532,0.045,0.773C0.154,45.487,1.413,47.966,4.86,48c0.499,0,1.004-0.04,1.531-0.133
	c0.375-0.066,0.68-0.34,0.786-0.707C7.601,45.699,9.049,43,10,43c1.008,0,1.236,0.174,3.003,1.762l0.735,0.658
	C17.155,48.458,19.986,50,25.981,50c11.64,0,20.766-7.618,23.25-19.403C51.273,21.131,48.875,15.644,46.504,12.707z M40.357,33.211
	c-0.531,0.45-1.533,1.326-2.198,1.91c-0.377,0.331-0.94,0.331-1.317,0c-0.665-0.583-1.668-1.46-2.198-1.91
	C32.854,31.698,31,30.138,31,27.725C31,25.532,32.494,24,34.629,24c1.228,0,2.291,0.906,2.869,1.532
	C38.078,24.906,39.143,24,40.371,24C42.507,24,44,25.532,44,27.725C44,30.137,42.144,31.698,40.357,33.211z"/>
</svg>