<svg xmlns="http://www.w3.org/2000/svg"  viewBox="0 0 128 128" width="64px" height="64px"><path d="M22.2 81H30c1.7 0 3-1.3 3-3v-9c0-1.7-1.3-3-3-3H20c-7.2 0-13 5.8-13 13v45c0 1.7 1.3 3 3 3h20c1.7 0 3-1.3 3-3v-19c0-1.7-1.3-3-3-3h-7.8c-1.6 0-3.1-1.2-3.2-2.8-.1-1.7 1.3-3.2 3-3.2h8c1.7 0 3-1.3 3-3v-3c0-1.7-1.3-3-3-3h-8c-1.7 0-3.1-1.4-3-3.2C19.1 82.2 20.5 81 22.2 81zM96 127h22c1.7 0 3-1.3 3-3V14c0-7.2-5.8-13-13-13H52c-7.2 0-13 5.8-13 13v110c0 1.7 1.3 3 3 3h22c1.7 0 3-1.3 3-3v-24c0-1.7 1.3-3 3-3h20c1.7 0 3 1.3 3 3v24C93 125.7 94.3 127 96 127zM70 26h7v-7c0-1.7 1.3-3 3-3s3 1.3 3 3v7h7c1.7 0 3 1.3 3 3s-1.3 3-3 3h-7v7c0 1.7-1.3 3-3 3s-3-1.3-3-3v-7h-7c-1.7 0-3-1.3-3-3S68.3 26 70 26zM55 51h50c1.7 0 3 1.3 3 3s-1.3 3-3 3H55c-1.7 0-3-1.3-3-3S53.3 51 55 51zM55 66h50c1.7 0 3 1.3 3 3s-1.3 3-3 3H55c-1.7 0-3-1.3-3-3S53.3 66 55 66zM55 87c-1.7 0-3-1.3-3-3s1.3-3 3-3h50c1.7 0 3 1.3 3 3s-1.3 3-3 3H55z"/></svg>