<svg xmlns="http://www.w3.org/2000/svg"  viewBox="0 0 128 128" width="64px" height="64px"><path d="M 4 1 C 2.3 1 1 2.3 1 4 L 1 29.599609 C 1 39.699609 5.5003906 49.100391 13.400391 55.400391 C 14.000391 55.800391 14.600781 56.099609 15.300781 56.099609 C 16.200781 56.099609 17.099609 55.7 17.599609 55 C 18.599609 53.7 18.399609 51.800781 17.099609 50.800781 C 12.699609 47.100781 9.5 42.3 8 37 L 39 37 C 40.7 37 42 35.7 42 34 C 42 32.3 40.7 31 39 31 L 7 31 L 7 29.599609 L 7 17 L 39 17 C 40.7 17 42 15.7 42 14 C 42 12.3 40.7 11 39 11 L 7 11 L 7 4 C 7 2.3 5.7 1 4 1 z M 54 1 C 52.3 1 51 2.3 51 4 L 51 29.599609 C 51 37.799609 47.300391 45.499219 40.900391 50.699219 L 13.400391 72.699219 C 5.5003906 78.899219 1 88.300391 1 98.400391 L 1 124 C 1 125.7 2.3 127 4 127 C 5.7 127 7 125.7 7 124 L 7 98.400391 C 7 90.200391 10.699609 82.500781 17.099609 77.300781 L 29 67.800781 L 40.900391 77.300781 C 45.400391 80.900781 48.5 85.6 50 91 L 19 91 C 17.3 91 16 92.3 16 94 C 16 95.7 17.3 97 19 97 L 51 97 L 51 98.400391 L 51 111 L 19 111 C 17.3 111 16 112.3 16 114 C 16 115.7 17.3 117 19 117 L 51 117 L 51 124 C 51 125.7 52.3 127 54 127 C 55.7 127 57 125.7 57 124 L 57 108.40039 C 64.6 109.60039 72.600781 108.90039 80.300781 105.90039 L 85.400391 116.90039 L 80.900391 119 C 79.400391 119.7 78.700391 121.5 79.400391 123 C 80.100391 124.5 81.900391 125.2 83.400391 124.5 L 97.900391 117.69922 C 99.400391 116.99922 100.10039 115.19922 99.400391 113.69922 C 98.700391 112.19922 96.900391 111.49922 95.400391 112.19922 L 90.900391 114.30078 L 85.800781 103.30078 C 94.700781 98.400781 101.39922 90.8 105.19922 82 L 116.59961 86.099609 L 114.90039 90.800781 C 114.30039 92.400781 115.09922 94.099609 116.69922 94.599609 C 117.49922 94.899609 118.3 94.8 119 94.5 C 119.7 94.2 120.29961 93.600781 120.59961 92.800781 L 126.09961 77.800781 C 126.49961 76.500781 125.69961 74.799219 124.09961 74.199219 C 122.49961 73.599219 120.80078 74.4 120.30078 76 L 118.59961 80.699219 L 107.19922 76.599609 C 109.89922 67.399609 109.6 57.300781 106 47.800781 L 117 42.699219 L 119.09961 47.199219 C 119.79961 48.699219 121.59961 49.399219 123.09961 48.699219 C 124.59961 47.999219 125.29961 46.199219 124.59961 44.699219 L 117.80078 30.199219 C 117.10078 28.699219 115.30078 27.999219 113.80078 28.699219 C 112.30078 29.399219 111.60078 31.199219 112.30078 32.699219 L 114.40039 37.199219 L 103.40039 42.300781 C 98.500391 33.400781 90.899609 26.700391 82.099609 22.900391 L 86.199219 11.5 L 90.900391 13.199219 C 91.700391 13.499219 92.499219 13.399609 93.199219 13.099609 C 93.899219 12.799609 94.500781 12.200391 94.800781 11.400391 C 95.400781 9.8003906 94.6 8.0996094 93 7.5996094 L 78 2.0996094 C 76.4 1.4996094 74.699219 2.3003906 74.199219 3.9003906 C 73.599219 5.5003906 74.4 7.1992187 76 7.6992188 L 80.699219 9.4003906 L 76.599609 20.800781 C 70.299609 19.000781 63.6 18.499609 57 19.599609 L 57 4 C 57 2.3 55.7 1 54 1 z M 55.900391 37.900391 C 58.800391 38.000391 61.500781 39.7 62.800781 42.5 C 64.700781 46.5 62.900391 51.299609 58.900391 53.099609 C 55.500391 54.699609 51.499219 53.600781 49.199219 50.800781 C 52.399219 47.000781 54.600391 42.600391 55.900391 37.900391 z M 81.835938 57.880859 C 86.51875 57.712109 91.074609 60.300781 93.099609 64.800781 C 95.799609 70.800781 93.300781 77.899219 87.300781 80.699219 C 81.300781 83.499219 74.100391 80.900391 71.400391 74.900391 C 68.600391 68.900391 71.199219 61.7 77.199219 59 C 78.699219 58.3 80.275 57.937109 81.835938 57.880859 z M 45.589844 64.544922 C 48.711719 64.437109 51.749609 66.199219 53.099609 69.199219 C 54.799609 72.599219 53.599609 76.700391 50.599609 78.900391 C 48.899609 76.600391 46.899609 74.499219 44.599609 72.699219 L 39.099609 68.300781 C 39.899609 67.000781 41 66.000781 42.5 65.300781 C 43.5 64.825781 44.549219 64.580859 45.589844 64.544922 z"/></svg>