<svg xmlns="http://www.w3.org/2000/svg"  viewBox="0 0 128 128" width="64px" height="64px"><path d="M 56 1 C 54.3 1 53 2.3 53 4 C 53 5.7 54.3 7 56 7 L 61 7 L 61 19.099609 C 50.8 19.799609 41.600391 23.799609 34.400391 30.099609 L 25.800781 21.5 L 29.300781 18 C 30.500781 16.8 30.500781 14.900781 29.300781 13.800781 C 28.100781 12.600781 26.199609 12.600781 25.099609 13.800781 L 13.800781 25.099609 C 12.600781 26.299609 12.600781 28.200781 13.800781 29.300781 C 14.400781 29.900781 15.200391 30.199219 15.900391 30.199219 C 16.600391 30.199219 17.4 29.900781 18 29.300781 L 21.5 25.800781 L 30.099609 34.400391 C 23.799609 41.600391 19.699609 50.9 19.099609 61 L 7 61 L 7 56 C 7 54.3 5.7 53 4 53 C 2.3 53 1 54.3 1 56 L 1 72 C 1 73.7 2.3 75 4 75 C 5.7 75 7 73.7 7 72 L 7 67 L 19.099609 67 C 19.799609 77.2 23.799609 86.399609 30.099609 93.599609 L 21.5 102.19922 L 18 98.599609 C 16.8 97.399609 14.900781 97.399609 13.800781 98.599609 C 12.600781 99.799609 12.600781 101.70078 13.800781 102.80078 L 25.099609 114.09961 C 25.699609 114.69961 26.499219 115 27.199219 115 C 27.899219 115 28.700781 114.69961 29.300781 114.09961 C 30.500781 112.89961 30.500781 111.00039 29.300781 109.90039 L 25.800781 106.40039 L 34.400391 97.800781 C 37.000391 100.10078 39.9 102.09922 43 103.69922 L 40.800781 107.40039 C 38.400781 111.50039 38.400781 116.30039 40.800781 120.40039 C 43.200781 124.50039 47.399609 126.90039 52.099609 126.90039 L 109.80078 126.90039 C 114.50078 126.90039 118.69961 124.50039 121.09961 120.40039 C 123.49961 116.30039 123.39961 111.50039 121.09961 107.40039 L 105.69922 80.699219 C 107.39922 76.399219 108.60039 71.700391 108.90039 66.900391 L 121 66.900391 L 121 71.900391 C 121 73.600391 122.3 74.900391 124 74.900391 C 125.7 74.900391 127 73.600391 127 71.900391 L 127 56 C 127 54.3 125.7 53 124 53 C 122.3 53 121 54.3 121 56 L 121 61 L 108.90039 61 C 108.20039 50.8 104.20039 41.600391 97.900391 34.400391 L 106.5 25.800781 L 110 29.300781 C 110.6 29.900781 111.39961 30.199219 112.09961 30.199219 C 112.79961 30.199219 113.59922 29.900781 114.19922 29.300781 C 115.39922 28.100781 115.39922 26.199609 114.19922 25.099609 L 102.90039 13.800781 C 101.70039 12.600781 99.799219 12.600781 98.699219 13.800781 C 97.499219 15.000781 97.499219 16.9 98.699219 18 L 102.19922 21.5 L 93.599609 30.099609 C 86.399609 23.799609 77.1 19.699609 67 19.099609 L 67 7 L 72 7 C 73.7 7 75 5.7 75 4 C 75 2.3 73.7 1 72 1 L 56 1 z M 64 36 C 68.4 36 72 39.6 72 44 C 72 48.4 68.4 52 64 52 C 59.6 52 56 48.4 56 44 C 56 39.6 59.6 36 64 36 z M 44 56 C 48.4 56 52 59.6 52 64 C 52 68.4 48.4 72 44 72 C 39.6 72 36 68.4 36 64 C 36 59.6 39.6 56 44 56 z M 81 57 C 83.5 57 85.799609 58.3 87.099609 60.5 L 116 110.5 C 117.3 112.7 117.3 115.3 116 117.5 C 114.7 119.7 112.50039 121 109.90039 121 L 52.099609 121 C 49.599609 121 47.3 119.7 46 117.5 C 44.7 115.3 44.7 112.7 46 110.5 L 74.900391 60.5 C 76.200391 58.3 78.5 57 81 57 z M 81 72 C 79.3 72 78 73.3 78 75 L 78 95 C 78 96.7 79.3 98 81 98 C 82.7 98 84 96.7 84 95 L 84 75 C 84 73.3 82.7 72 81 72 z M 81 104 C 79.3 104 78 105.3 78 107 L 78 110 C 78 111.7 79.3 113 81 113 C 82.7 113 84 111.7 84 110 L 84 107 C 84 105.3 82.7 104 81 104 z"/></svg>