<?xml version="1.0" encoding="iso-8859-1"?>
<!-- Generator: Adobe Illustrator 23.0.6, SVG Export Plug-In . SVG Version: 6.00 Build 0)  -->
<svg version="1.1" id="Filled" xmlns="http://www.w3.org/2000/svg" xmlns:xlink="http://www.w3.org/1999/xlink" x="0px" y="0px"
	 viewBox="0 0 50 50" style="enable-background:new 0 0 50 50;" xml:space="preserve">
<path d="M25.771,1.362c-0.38-0.459-1.161-0.459-1.541,0C23.567,2.163,8,21.098,8,31.999C8,41.374,15.626,49,25,49s17-7.626,17-17
	C42,21.098,26.433,2.163,25.771,1.362z M32,33h-6v6c0,0.552-0.448,1-1,1s-1-0.448-1-1v-6h-6c-0.552,0-1-0.448-1-1s0.448-1,1-1h6v-6
	c0-0.552,0.448-1,1-1s1,0.448,1,1v6h6c0.552,0,1,0.448,1,1S32.552,33,32,33z"/>
</svg>