<svg xmlns="http://www.w3.org/2000/svg"  viewBox="0 0 128 128" width="64px" height="64px"><path d="M106 30c7.2 0 13-5.8 13-13s-5.8-13-13-13S93 9.8 93 17 98.8 30 106 30zM106 10c3.9 0 7 3.1 7 7s-3.1 7-7 7-7-3.1-7-7S102.1 10 106 10zM127 49c0-7.2-5.8-13-13-13H98c-7.2 0-13 5.8-13 13v21c0 5.6 3.8 10.3 9 11.6V112c0 6.6 5.4 12 12 12s12-5.4 12-12V81.6c5.2-1.3 9-6 9-11.6V49zM121 70c0 3.3-2.7 6-6 6-1.7 0-3 1.3-3 3v33c0 3.3-2.7 6-6 6s-6-2.7-6-6V79c0-1.7-1.3-3-3-3-3.3 0-6-2.7-6-6V49c0-3.9 3.1-7 7-7h16c3.9 0 7 3.1 7 7V70zM22 4C14.8 4 9 9.8 9 17s5.8 13 13 13 13-5.8 13-13S29.2 4 22 4zM22 24c-3.9 0-7-3.1-7-7s3.1-7 7-7 7 3.1 7 7S25.9 24 22 24zM22 124c6.6 0 12-5.4 12-12V81.6c5.2-1.3 9-6 9-11.6V49c0-7.2-5.8-13-13-13H14C6.8 36 1 41.8 1 49v21c0 5.6 3.8 10.3 9 11.6V112C10 118.6 15.4 124 22 124zM7 70V49c0-3.9 3.1-7 7-7h16c3.9 0 7 3.1 7 7v21c0 3.3-2.7 6-6 6-1.7 0-3 1.3-3 3v33c0 3.3-2.7 6-6 6s-6-2.7-6-6V79c0-1.7-1.3-3-3-3C9.7 76 7 73.3 7 70zM61 4.2v119.6c0 1.6 1.2 3.1 2.9 3.2 1.7.1 3.1-1.3 3.1-3V4c0-1.7-1.4-3.1-3.2-3C62.2 1.1 61 2.5 61 4.2z"/></svg>