<?xml version="1.0" encoding="iso-8859-1"?>
<!-- Generator: Adobe Illustrator 23.0.6, SVG Export Plug-In . SVG Version: 6.00 Build 0)  -->
<svg version="1.1" id="Line" xmlns="http://www.w3.org/2000/svg" xmlns:xlink="http://www.w3.org/1999/xlink" x="0px" y="0px"
	 viewBox="0 0 50 50" style="enable-background:new 0 0 50 50;" xml:space="preserve">
<g id="IOS_copy_13_">
	<path d="M35,37c0,5.5-4.5,10-10,10s-10-4.5-10-10s4.5-10,10-10S35,31.5,35,37z M33,37c0-4.4-3.6-8-8-8s-8,3.6-8,8s3.6,8,8,8
		S33,41.4,33,37z"/>
</g>
<path d="M25,43L25,43c-0.552,0-1-0.448-1-1V32c0-0.552,0.448-1,1-1h0c0.552,0,1,0.448,1,1v10C26,42.552,25.552,43,25,43z"/>
<path d="M31,37L31,37c0,0.552-0.448,1-1,1H20c-0.552,0-1-0.448-1-1l0,0c0-0.552,0.448-1,1-1h10C30.552,36,31,36.448,31,37z"/>
<path style="fill:none;stroke:#000000;stroke-width:2;stroke-linecap:round;stroke-linejoin:round;stroke-miterlimit:10;" d="M25,28
	c0,0,0-0.998,0-1.678C25,18.385,38.75,14.5,38.75,14.5"/>
<path style="fill:none;stroke:#000000;stroke-width:2;stroke-linecap:round;stroke-linejoin:round;stroke-miterlimit:10;" d="M28,20
	c0,0-0.335-10,9-10c5.388,0,9,1.599,9,1.599S43.937,23,34.847,23c-2.626,0-4.426-0.832-4.426-0.832 M23,17.577
	C25.689,12.301,23.335,4,14,4C8.612,4,4,5.599,4,5.599S6.265,20,16.153,20c2.126,0,3.499-0.383,3.499-0.383"/>
<path style="fill:none;stroke:#000000;stroke-width:2;stroke-linecap:round;stroke-linejoin:round;stroke-miterlimit:10;" d="M25,26
	c0,0,0-1.439,0-2.12c0-8.583-14-15.13-14-15.13"/>
</svg>