<svg xmlns="http://www.w3.org/2000/svg"  viewBox="0 0 128 128" width="64px" height="64px"><path d="M 39 28 C 23.56 28 11 40.56 11 56 C 11 57.66 12.34 59 14 59 C 15.66 59 17 57.66 17 56 C 17 43.87 26.87 34 39 34 C 51.13 34 61 43.87 61 56 C 61 57.66 62.34 59 64 59 C 65.66 59 67 57.66 67 56 C 67 43.87 76.87 34 89 34 C 101.13 34 111 43.87 111 56 C 111 57.66 112.34 59 114 59 C 115.66 59 117 57.66 117 56 C 117 40.56 104.44 28 89 28 C 78.09 28 68.62 34.270391 64 43.400391 C 59.38 34.270391 49.91 28 39 28 z M 34 58 C 30.69 58 28 60.69 28 64 L 28 67 L 4 67 C 2.34 67 1 68.34 1 70 C 1 71.66 2.34 73 4 73 L 28 73 L 28 76 C 28 79.31 30.69 82 34 82 L 44 82 C 47.31 82 50 79.31 50 76 L 50 73 L 78 73 L 78 76 C 78 79.31 80.69 82 84 82 L 94 82 C 97.31 82 100 79.31 100 76 L 100 73 L 124 73 C 125.66 73 127 71.66 127 70 C 127 68.34 125.66 67 124 67 L 100 67 L 100 64 C 100 60.69 97.31 58 94 58 L 84 58 C 80.69 58 78 60.69 78 64 L 78 67 L 50 67 L 50 64 C 50 60.69 47.31 58 44 58 L 34 58 z M 34 64 L 44 64 L 44 76 L 34 76 L 34 64 z M 84 64 L 94 64 L 94 76 L 84 76 L 84 64 z M 14 81 C 12.34 81 11 82.34 11 84 L 11 87 C 11 94.17 16.83 100 24 100 L 54 100 C 58.02 100 61.61 98.170781 64 95.300781 C 66.39 98.170781 69.98 100 74 100 L 104 100 C 111.17 100 117 94.17 117 87 L 117 84 C 117 82.34 115.66 81 114 81 C 112.34 81 111 82.34 111 84 L 111 87 C 111 90.86 107.86 94 104 94 L 74 94 C 70.14 94 67 90.86 67 87 L 67 84 C 67 82.34 65.66 81 64 81 C 62.34 81 61 82.34 61 84 L 61 87 C 61 90.86 57.86 94 54 94 L 24 94 C 20.14 94 17 90.86 17 87 L 17 84 C 17 82.34 15.66 81 14 81 z"/></svg>