<?xml version="1.0" encoding="iso-8859-1"?>
<!-- Generator: Adobe Illustrator 23.0.3, SVG Export Plug-In . SVG Version: 6.00 Build 0)  -->
<svg version="1.1" xmlns="http://www.w3.org/2000/svg" xmlns:xlink="http://www.w3.org/1999/xlink" x="0px" y="0px"
	 viewBox="0 0 50 50" style="enable-background:new 0 0 50 50;" xml:space="preserve">
<g id="Layer_10" style="display:none;">
	<g style="display:inline;opacity:0.05;">
		<g>
			<circle style="fill:#FFFFFF;" cx="25" cy="25" r="21.5"/>
			<path d="M25,4c11.579,0,21,9.421,21,21s-9.421,21-21,21S4,36.579,4,25S13.421,4,25,4 M25,3C12.85,3,3,12.85,3,25s9.85,22,22,22
				s22-9.85,22-22S37.15,3,25,3L25,3z"/>
		</g>
		<g>
			<rect x="5.5" y="5.5" style="fill:#FFFFFF;" width="39" height="39"/>
			<path d="M44,6v38H6V6H44 M45,5H5v40h40V5L45,5z"/>
		</g>
	</g>
</g>
<g id="filled">
</g>
<g id="outlined">
</g>
<g id="rounded">
</g>
<g id="two_x5F_tone">
</g>
<g id="sharp">
</g>
<g id="win10">
</g>
<g id="ios_x5F_out">
	<path style="fill:none;stroke:#000000;stroke-width:2;stroke-linejoin:round;stroke-miterlimit:10;" d="M26.81,8.131l13.991-5.939
		c0.508-0.216,1.095,0.021,1.311,0.53l2.344,5.523c0.216,0.508-0.021,1.095-0.53,1.311l-13.993,5.94"/>
	<path style="fill:none;stroke:#000000;stroke-width:2;stroke-linejoin:round;stroke-miterlimit:10;" d="M31,20.246V45
		c0,2.209-1.791,4-4,4H15c-2.209,0-4-1.791-4-4V20.574c0-5.201,3.1-9.902,7.881-11.95l6.141-2.631
		c0.469-0.101,0.943,0.146,1.13,0.587l3.974,9.371C30.703,17.31,31,18.771,31,20.246z"/>
	<path style="fill:none;stroke:#000000;stroke-width:2;stroke-linejoin:round;stroke-miterlimit:10;" d="M26,39H16
		c-0.552,0-1-0.448-1-1V24c0-0.552,0.448-1,1-1h10c0.552,0,1,0.448,1,1v14C27,38.552,26.552,39,26,39z"/>
	
		<line style="fill:none;stroke:#000000;stroke-width:2;stroke-linecap:round;stroke-linejoin:round;stroke-miterlimit:10;" x1="15" y1="44" x2="17" y2="44"/>
	
		<line style="fill:none;stroke:#000000;stroke-width:2;stroke-linecap:round;stroke-linejoin:round;stroke-miterlimit:10;" x1="25" y1="44" x2="27" y2="44"/>
	<circle cx="21" cy="44" r="2"/>
	<path style="fill:none;stroke:#000000;stroke-width:2;stroke-linejoin:round;stroke-miterlimit:10;" d="M11,22c0-2.209,1.791-4,4-4
		h12c2.209,0,4,1.791,4,4"/>
</g>
<g id="ios_x5F_filled">
</g>
<g id="color">
</g>
</svg>