<svg xmlns="http://www.w3.org/2000/svg"  viewBox="0 0 50 50" width="50px" height="50px"><path d="M 7.9882812 -0.013671875 A 1.0001 1.0001 0 0 0 7 0.99609375 C 7 0.99609375 6.9189562 12.661638 11.097656 22.320312 C 12.450032 25.447081 12.71419 27.89237 12.931641 29.994141 C 13.149091 32.095911 13.305068 33.998971 14.707031 35.556641 C 16.375224 37.410127 18.146254 37.887314 19.910156 37.935547 C 21.674059 37.983777 23.503829 37.762825 26.199219 38.328125 C 37.67521 40.733366 44.720528 35.576886 49.09375 34.990234 A 1.0001 1.0001 0 1 0 48.826172 33.009766 C 43.359394 33.743114 37.367384 38.625853 26.609375 36.371094 C 23.630765 35.746394 21.501441 35.979517 19.964844 35.9375 C 18.428246 35.89548 17.559166 35.736263 16.193359 34.21875 C 15.290323 33.21542 15.138222 31.897089 14.919922 29.787109 C 14.701622 27.67713 14.401218 24.920575 12.933594 21.527344 C 8.9942933 12.422019 9 1.0039064 9 1.0039062 A 1.0001 1.0001 0 0 0 7.9882812 -0.013671875 z M 23.970703 -0.013671875 A 1.0001 1.0001 0 0 0 23.027344 1.3613281 C 26.655237 10.728887 24.041016 19.71875 24.041016 19.71875 A 1.0001 1.0001 0 0 0 24 20 L 24 23 A 1.0001 1.0001 0 0 0 25.03125 24 C 32.02751 23.785436 33.742192 24.647797 36.005859 25.681641 C 38.269527 26.715484 41.032606 27.911986 48.988281 28 A 1.0001 1.0001 0 1 0 49.011719 26 C 41.239392 25.914014 39.09427 24.892735 36.835938 23.861328 C 34.727212 22.898248 32.140726 22.006669 26 22.060547 L 26 20.103516 C 26.141515 19.609016 28.687827 10.43836 24.892578 0.63867188 A 1.0001 1.0001 0 0 0 23.970703 -0.013671875 z M 5.9609375 34 L 0 38.986328 L 4.9609375 38 L 4.9609375 40 L 10.960938 35 L 5.9609375 36 L 5.9609375 34 z M 11.960938 39 L 4.9609375 45 L 7.9609375 45 L 5.9140625 50 L 12.960938 44 L 9.9609375 44 L 11.960938 39 z M 16.960938 39 L 17.960938 44 L 15.960938 44 L 20.949219 50 L 19.960938 45 L 21.960938 45 L 16.960938 39 z"/></svg>