<?xml version="1.0" encoding="utf-8"?><!-- Generator: Adobe Illustrator 15.0.0, SVG Export Plug-In . SVG Version: 6.00 Build 0)  --><!DOCTYPE svg PUBLIC "-//W3C//DTD SVG 1.1//EN" "http://www.w3.org/Graphics/SVG/1.1/DTD/svg11.dtd"><svg xmlns="http://www.w3.org/2000/svg" xmlns:xlink="http://www.w3.org/1999/xlink" viewBox="0 0 50 50" width="500px" height="500px"><path d="M23.073,2.526c0.301-0.072,0.56-0.134,0.76-0.189l0.025-0.007l0.025-0.005c0.442-0.098,0.747-0.178,0.991-0.242c0.819-0.213,1.141-0.276,2.708-0.281C27.599,1.304,27.6,0.771,27.6,0.5c0-0.4-0.399-0.6-0.8-0.5L25,0.5L23.1,0c-0.4-0.1-0.9,0.2-0.8,0.5c0,0.525,0.086,1.436,0.174,2.172C22.685,2.62,22.887,2.57,23.073,2.526z"/><path d="M23.38,18.684c0.465-0.18,0.917-0.344,1.339-0.497c0.616-0.223,1.415-0.513,2.001-0.784c0.078-3.94,0.079-7.143,0.079-8.803c0-0.18,0.021-0.403,0.043-0.646c-0.56-0.088-0.979-0.194-1.194-0.255h-0.028c-0.116-0.001-0.27-0.003-0.454-0.003c-0.753,0-1.397,0.032-1.947,0.086c0.014,0.226,0.034,0.436,0.08,0.619C23.3,10.161,23.301,13.995,23.38,18.684z"/><path d="M27.8,2.8c-2.3,0-1.899,0.1-3.7,0.5C22.3,3.8,16,4.8,16,8.7c0,3.109,3.177,4.377,6.321,5.26c-0.012-1.445-0.018-2.708-0.02-3.723C20.663,9.747,19.5,9.295,19.5,8.7c0-1.044,1.264-1.545,2.665-1.786L22.163,6.88l0.775-0.076c0.016-0.002,0.031-0.003,0.047-0.004l0.137-0.014c0.014-0.001,0.031-0.002,0.045-0.003c0.317-0.03,0.627-0.051,0.917-0.064c0.014,0,0.027-0.001,0.041-0.001c0.382-0.016,0.724-0.021,1.005-0.021c0.012,0,0.023-0.001,0.035-0.001c0.035,0,0.055,0,0.088,0c0.138,0,0.263,0.001,0.358,0.002c0.01,0,0.026,0,0.036,0h0.14L25.793,6.7c0.001,0,0.005,0,0.006,0c0,0,0.06,0.019,0.15,0.044c0.029,0.008,0.063,0.018,0.108,0.029c0.014,0.003,0.032,0.008,0.047,0.012c0.196,0.05,0.501,0.119,0.893,0.181l0.089,0.014C27.538,7.047,28.085,7.1,28.7,7.1c1.7,0,3.2-0.5,3.2-1.9C31.9,3.9,30.1,2.8,27.8,2.8z"/><path d="M26.268,34.251c0.023-0.029,0.044-0.04,0.066-0.063c0.089-3.16,0.178-6.508,0.266-9.789c0-0.198,0-0.545,0-0.928c-0.257,0.113-0.511,0.224-0.76,0.332c-0.85,0.368-1.802,0.783-2.522,1.199c0.014,0.324-0.045-0.182,0,0c0.09,3.247,0.263,7.438,0.354,10.569c0.013-0.006,0.026-0.011,0.039-0.017C24.575,35.191,25.994,34.596,26.268,34.251z"/><path d="M27.789,12.176c-0.007,1.066-0.02,2.282-0.04,3.604c0.465,0.31,0.751,0.674,0.751,1.12c0,0.432-0.299,0.78-0.791,1.093l0,0l-0.568,0.318c-0.059,0.027-0.126,0.054-0.188,0.082c-0.102,0.046-0.206,0.091-0.314,0.136c-0.008,0.003-0.016,0.007-0.024,0.01c-0.47,0.195-0.999,0.388-1.563,0.592c-0.414,0.149-0.855,0.31-1.311,0.486L23.524,19.7C20.73,20.801,17.8,22.437,17.8,26.1c0,3.056,2.362,4.511,4.759,5.496c-0.021-0.746-0.041-1.493-0.062-2.244l-0.032-1.158C21.69,27.687,21.2,27.057,21.2,26.1c0-0.633,0.422-1.155,1.094-1.631l-0.001-0.03l0.424-0.245c0.731-0.439,1.662-0.848,2.652-1.277c0.024-0.01,0.05-0.021,0.073-0.032l0.755-0.329l0.007-0.003c2.785-1.227,5.696-2.732,5.696-5.653C31.9,14.655,30.036,13.231,27.789,12.176z"/><path d="M24.16,43.389C24.147,43.385,24.173,43.393,24.16,43.389c0.038,0.507,0.077,1.013,0.116,1.508c0.264-0.03,0.517-0.064,0.74-0.103c0.274-0.053,0.537-0.111,0.769-0.177c0.113-1.371,0.219-2.844,0.314-4.217c0-0.238,0.023-0.547,0.047-0.867c-0.262,0.094-0.518,0.182-0.759,0.265c-0.421,0.144-0.936,0.32-1.321,0.484c0.013,0.004-0.025,0.022-0.087,0.048C23.998,40.76,24,41.13,24,41.3L24.16,43.389z"/><path d="M27.441,30.323c-0.036,1.316-0.072,2.622-0.107,3.894l-0.012,0.397l-0.281,0.281l-0.049,0.046c-0.26,0.288-0.717,0.561-1.467,0.91c-0.026,0.013-0.056,0.025-0.083,0.038c-0.124,0.058-0.254,0.117-0.395,0.179c-0.312,0.138-0.635,0.276-0.97,0.417l-1.363,0.591l0,0c-1.65,0.761-3.114,1.686-3.114,3.124c0,1.594,1.76,2.342,3.566,2.896l-0.162-1.702C23.001,41.363,23,41.331,23,41.3c0-0.082,0-0.215-0.003-0.378C22.749,40.772,22.6,40.599,22.6,40.4c-0.023-0.421,0.389-0.726,1.02-1.008c0.019-0.009,0.036-0.022,0.055-0.03c0.014-0.006,0.033-0.013,0.047-0.019c0.414-0.176,0.916-0.347,1.452-0.531c0.182-0.062,0.37-0.127,0.562-0.195C27.83,37.875,30.2,36.809,30.2,34.2C30.2,32.19,29.003,31.097,27.441,30.323z"/><path d="M26.965,42.326c-0.057,0.766-0.114,1.529-0.175,2.27c0.132,0.149,0.223,0.326,0.228,0.536c-0.158,0.246-0.868,0.481-1.824,0.646c-0.003,0.001-0.006,0.001-0.009,0.002c-0.016,0.003-0.038,0.005-0.054,0.008c-0.908,0.151-2.026,0.241-3.114,0.213c-0.558,0.021-1.007,0.433-1.016,0.983c-0.009,0.553,0.431,1.007,0.983,1.017c0.07,0.001,0.166,0.002,0.282,0.002c1.231,0,4.808-0.116,6.13-1.417C28.791,46.196,29,45.718,29,45.2C29,43.691,27.939,42.784,26.965,42.326z"/><path d="M24.67,48.872C24.773,49.569,24.882,50,25,50c0.117,0,0.235-0.466,0.35-1.221C25.121,48.814,24.896,48.848,24.67,48.872z"/></svg>