<?xml version="1.0" encoding="iso-8859-1"?><!-- Generator: Adobe Illustrator 22.0.1, SVG Export Plug-In . SVG Version: 6.00 Build 0)  --><svg xmlns="http://www.w3.org/2000/svg" xmlns:xlink="http://www.w3.org/1999/xlink" viewBox="0 0 50 50" width="50px" height="50px"><polyline style="fill:none;stroke:#000000;stroke-width:2;stroke-linejoin:round;stroke-miterlimit:10;" points="9,15 3,13 3,9 9,7 "/><polyline style="fill:none;stroke:#000000;stroke-width:2;stroke-linejoin:round;stroke-miterlimit:10;" points="19,7 36,10 36,12 19,15 "/><polyline style="fill:none;stroke:#000000;stroke-width:2;stroke-linejoin:round;stroke-miterlimit:10;" points="12,16 13,26 15,26 16,16 "/><path style="fill:none;stroke:#000000;stroke-width:2;stroke-linejoin:round;stroke-miterlimit:10;" d="M18.879,8.949L20,7.828L17.172,5l-1.121,1.121c-1.133,1.133-2.969,1.133-4.101,0l-1.035-1.035L8.086,7.914l1.035,1.035c1.133,1.133,1.133,2.969,0,4.101l-1.035,1.035l2.828,2.828l1.035-1.035c1.133-1.133,2.969-1.133,4.101,0L17.172,17L20,14.172l-1.121-1.121C17.747,11.918,17.747,10.082,18.879,8.949z"/><circle cx="14" cy="11" r="1"/><line style="fill:none;stroke:#000000;stroke-width:2;stroke-linejoin:round;stroke-miterlimit:10;" x1="14" y1="26" x2="14" y2="46"/><path style="fill:none;stroke:#000000;stroke-width:2;stroke-linecap:round;stroke-linejoin:round;stroke-miterlimit:10;" d="M36,11c0,0,11,0,11,14c0,9-6,17-13,17s-10-7-10-12s3-11,11-11c5,0,5,6,5,6c0,9-9,18-19,20"/></svg>