<?xml version="1.0" encoding="iso-8859-1"?><!-- Generator: Adobe Illustrator 23.0.1, SVG Export Plug-In . SVG Version: 6.00 Build 0)  --><svg xmlns="http://www.w3.org/2000/svg" xmlns:xlink="http://www.w3.org/1999/xlink" viewBox="0 0 50 50" width="50px" height="50px"><g id="&#x421;&#x43B;&#x43E;&#x439;_1" style="display:none;"></g><g id="ref"></g><g id="&#x421;&#x43B;&#x43E;&#x439;_3"><path d="M41,36c-0.338,0-0.671-0.018-1-0.051V38H18V8h22v8.051C40.329,16.018,40.662,16,41,16s0.671,0.018,1,0.051V7c0-0.552-0.447-1-1-1H17c-0.553,0-1,0.448-1,1v32c0,0.552,0.447,1,1,1h24c0.553,0,1-0.448,1-1v-3.051C41.671,35.982,41.338,36,41,36z"/><path d="M41,34c-4.411,0-8-3.589-8-8s3.589-8,8-8s8,3.589,8,8S45.411,34,41,34z M41,20c-3.309,0-6,2.691-6,6s2.691,6,6,6s6-2.691,6-6S44.309,20,41,20z"/><g><path d="M40.293,26.707c-0.433-0.343-0.391-1.023,0-1.414s1.071-0.433,1.414,0C42.383,26.147,44,29,44,29S41.147,27.383,40.293,26.707z"/></g><ellipse style="fill:none;stroke:#000000;stroke-width:2;stroke-miterlimit:10;" cx="7" cy="9.5" rx="4" ry="6.5"/><path style="fill:none;stroke:#000000;stroke-width:2;stroke-miterlimit:10;" d="M7,16v25v-0.5c0,3.038,2.462,5.5,5.5,5.5H12h12c2.761,0,5-2.239,5-5v-2"/></g><g id="Layer_4"></g></svg>