<?xml version="1.0" encoding="iso-8859-1"?>
<!-- Generator: Adobe Illustrator 22.1.0, SVG Export Plug-In . SVG Version: 6.00 Build 0)  -->
<svg version="1.1" id="Layer_1" xmlns="http://www.w3.org/2000/svg" xmlns:xlink="http://www.w3.org/1999/xlink" x="0px" y="0px"
	 viewBox="0 0 50 50" style="enable-background:new 0 0 50 50;" xml:space="preserve">
<path d="M44,48H6c-0.6,0-1-0.4-1-1v-6c0-0.6,0.4-1,1-1h38c0.6,0,1,0.4,1,1v6C45,47.6,44.6,48,44,48z M7,46h36v-4H7V46z"/>
<path d="M25,36c-5,0-9-4-9-9s4-9,9-9s9,4,9,9S30,36,25,36z M25,20c-3.9,0-7,3.1-7,7s3.1,7,7,7s7-3.1,7-7S28.9,20,25,20z"/>
<circle cx="25" cy="27" r="2"/>
<polygon points="26,26 29,31 24,28 "/>
<path d="M42,42H8c-0.6,0-1-0.4-1-1V25c0-8.5,5.8-15.7,14-17.5V6.8c-1.2-0.4-2-1.5-2-2.8c0-1.7,1.3-3,3-3h6c1.7,0,3,1.3,3,3
	c0,1.3-0.8,2.4-2,2.8v0.7c8.2,1.8,14,9.1,14,17.5v16C43,41.6,42.6,42,42,42z M9,40h32V25c0-7.8-5.5-14.4-13.2-15.7
	c-0.5-0.1-0.8-0.5-0.8-1V6c0-0.6,0.4-1,1-1s1-0.4,1-1s-0.4-1-1-1h-6c-0.6,0-1,0.4-1,1s0.4,1,1,1s1,0.4,1,1v2.3c0,0.5-0.3,0.9-0.8,1
	C14.5,10.6,9,17.2,9,25V40z M22,8.3L22,8.3L22,8.3z"/>
</svg>