<svg xmlns="http://www.w3.org/2000/svg"  viewBox="0 0 128 128" width="64px" height="64px"><path d="M78.1 81.9c-1.2-1.2-3.1-1.2-4.2 0L64 91.8l-9.9-9.9c-1.2-1.2-3.1-1.2-4.2 0-1.2 1.2-1.2 3.1 0 4.2l9.9 9.9-9.9 9.9c-1.2 1.2-1.2 3.1 0 4.2.6.6 1.4.9 2.1.9s1.5-.3 2.1-.9l9.9-9.9 9.9 9.9c.6.6 1.4.9 2.1.9s1.5-.3 2.1-.9c1.2-1.2 1.2-3.1 0-4.2L68.2 96l9.9-9.9C79.3 84.9 79.3 83.1 78.1 81.9zM93.9 49.1c.6.6 1.4.9 2.1.9s1.5-.3 2.1-.9l9.9-9.9 9.9 9.9c.6.6 1.4.9 2.1.9s1.5-.3 2.1-.9c1.2-1.2 1.2-3.1 0-4.2l-9.9-9.9 9.9-9.9c1.2-1.2 1.2-3.1 0-4.2-1.2-1.2-3.1-1.2-4.2 0l-9.9 9.9-9.9-9.9c-1.2-1.2-3.1-1.2-4.2 0-1.2 1.2-1.2 3.1 0 4.2l9.9 9.9-9.9 9.9C92.7 46.1 92.7 47.9 93.9 49.1zM34.1 20.9c-1.2-1.2-3.1-1.2-4.2 0L20 30.8l-9.9-9.9c-1.2-1.2-3.1-1.2-4.2 0-1.2 1.2-1.2 3.1 0 4.2l9.9 9.9-9.9 9.9c-1.2 1.2-1.2 3.1 0 4.2C6.5 49.7 7.2 50 8 50s1.5-.3 2.1-.9l9.9-9.9 9.9 9.9c.6.6 1.4.9 2.1.9s1.5-.3 2.1-.9c1.2-1.2 1.2-3.1 0-4.2L24.2 35l9.9-9.9C35.3 23.9 35.3 22.1 34.1 20.9zM108 71A11 11 0 10108 93 11 11 0 10108 71zM116 101h-16c-6.1 0-11 4.9-11 11v12c0 1.7 1.3 3 3 3h32c1.7 0 3-1.3 3-3v-12C127 105.9 122.1 101 116 101zM20 71A11 11 0 1020 93 11 11 0 1020 71zM4 127h32c1.7 0 3-1.3 3-3v-12c0-6.1-4.9-11-11-11H12c-6.1 0-11 4.9-11 11v12C1 125.7 2.3 127 4 127zM64 1A11 11 0 1064 23 11 11 0 1064 1zM45 42v12c0 1.7 1.3 3 3 3h32c1.7 0 3-1.3 3-3V42c0-6.1-4.9-11-11-11H56C49.9 31 45 35.9 45 42z"/></svg>