<svg xmlns="http://www.w3.org/2000/svg"  viewBox="0 0 50 50" width="50px" height="50px"><path d="M 23.53125 0 C 23.054688 0 22.664063 0.335938 22.5625 0.78125 C 22.53125 0.847656 22.5 0.921875 22.5 1 L 22.5 3 L 27.5625 3 L 27.5625 1 C 27.5625 0.449219 27.117188 0 26.5625 0 Z M 22.5 5 L 22.5 7 L 27.5625 7 L 27.5625 5 Z M 22.5 9 L 22.5 11 L 27.5625 11 L 27.5625 9 Z M 16.71875 11 C 16.097656 11.03125 15.449219 11.230469 14.84375 11.59375 C 11.972656 13.324219 0 27.386719 0 37.6875 L 0 38.6875 C -0.015625 41.578125 -0.0117188 43.496094 1.3125 44.75 C 2.242188 45.628906 3.652344 46 6.1875 46 C 6.882813 46 7.652344 45.960938 8.53125 45.90625 L 11.15625 45.75 C 17.117188 45.371094 21.96875 40.261719 21.96875 34.375 C 21.96875 34.375 21.996094 30.824219 22 28.09375 C 20.496094 28.898438 19.046875 29.328125 18.34375 29.5 L 16.75 31.90625 C 16.804688 32.023438 16.835938 32.144531 16.84375 32.28125 L 17 36.09375 C 17.003906 36.199219 16.996094 36.304688 16.96875 36.40625 L 15.90625 39.28125 C 15.78125 39.722656 15.34375 40.09375 14.90625 39.96875 C 14.375 39.816406 14.222656 39.4375 14.375 38.90625 L 15 36.03125 L 14.9375 34.625 L 13.4375 36.90625 C 13.3125 37.09375 13.121094 37.242188 12.90625 37.3125 L 10.375 38.125 L 8.625 41.28125 C 8.34375 41.765625 7.796875 41.808594 7.53125 41.65625 C 7.054688 41.378906 7.105469 40.910156 7.1875 40.59375 L 8.78125 36.84375 C 8.898438 36.601563 9.117188 36.429688 9.375 36.34375 L 11.96875 35.5 L 13.59375 33.03125 L 11.1875 32.90625 L 7.5 34.40625 C 6.933594 34.679688 6.417969 34.457031 6.25 34.09375 C 6.015625 33.59375 6.25 33.292969 6.75 33.0625 L 10.5625 31 C 10.710938 30.929688 10.871094 30.898438 11.03125 30.90625 L 14.875 31.09375 L 16.3125 28.90625 L 14.9375 28.09375 L 10.71875 28 L 7.75 29.5625 C 7.101563 29.898438 6.6875 29.6875 6.5 29.375 C 6.214844 28.902344 6.402344 28.535156 6.875 28.25 L 9.9375 26.125 C 10.097656 26.027344 10.285156 25.992188 10.46875 26 L 13.53125 26.0625 L 12.75 24.5625 C 12.640625 24.359375 12.613281 24.132813 12.65625 23.90625 L 13.5625 20.3125 C 13.667969 19.773438 13.984375 19.300781 14.53125 19.40625 C 15.074219 19.511719 15.199219 19.957031 15.09375 20.5 L 14.6875 23.9375 L 15.96875 26.375 L 17.4375 27.25 C 17.824219 26.785156 18.222656 26.347656 18.625 25.9375 C 19.765625 24.777344 20.929688 23.597656 21.59375 21.28125 C 21.554688 19.640625 21.53125 18.03125 21.5 17.5 C 21.34375 14.59375 20.242188 12.3125 18.53125 11.40625 C 17.957031 11.101563 17.339844 10.96875 16.71875 11 Z M 22 28.09375 C 22 28.09375 24.242188 25.582031 25.03125 24.40625 C 25.84375 25.566406 26.84375 27.167969 28 28.09375 L 28.3125 22.9375 C 28.347656 22.324219 28.355469 21.644531 28.375 20.96875 C 27.78125 19.53125 27.40625 17.867188 27.40625 16.5 L 27.5 13.25 C 27.519531 13.171875 27.5625 13.085938 27.5625 13 L 22.5 13 L 22.5 13.03125 L 22.71875 16.5 C 22.71875 17.960938 22.230469 19.664063 21.625 21.09375 C 21.644531 21.730469 21.6875 22.351563 21.71875 22.9375 Z M 28 28.09375 C 28.003906 30.824219 28.03125 34.375 28.03125 34.375 C 28.03125 40.261719 32.882813 45.371094 38.84375 45.75 L 41.46875 45.90625 C 42.347656 45.960938 43.117188 46 43.8125 46 C 46.347656 46 47.757813 45.628906 48.6875 44.75 C 50.011719 43.496094 50.015625 41.578125 50 38.6875 L 50 37.6875 C 50 27.386719 38.027344 13.324219 35.15625 11.59375 C 33.945313 10.863281 32.648438 10.800781 31.5 11.40625 C 29.789063 12.3125 28.65625 14.59375 28.5 17.5 C 28.46875 18.03125 28.445313 19.640625 28.40625 21.28125 C 29.070313 23.597656 30.234375 24.777344 31.375 25.9375 C 31.777344 26.347656 32.175781 26.785156 32.5625 27.25 L 34.03125 26.375 L 35.34375 23.9375 L 34.90625 20.5 C 34.800781 19.957031 34.925781 19.511719 35.46875 19.40625 C 36.015625 19.300781 36.332031 19.773438 36.4375 20.3125 L 37.375 23.90625 C 37.417969 24.132813 37.359375 24.359375 37.25 24.5625 L 36.46875 26.0625 L 39.53125 26 C 39.714844 25.992188 39.902344 26.027344 40.0625 26.125 L 43.125 28.25 C 43.597656 28.535156 43.785156 28.902344 43.5 29.375 C 43.3125 29.6875 42.929688 29.898438 42.28125 29.5625 L 39.28125 28 L 35.0625 28.09375 L 33.6875 28.90625 L 35.125 31.09375 L 38.96875 30.90625 C 39.128906 30.898438 39.289063 30.929688 39.4375 31 L 43.25 33.0625 C 43.75 33.292969 43.984375 33.59375 43.75 34.09375 C 43.582031 34.457031 43.097656 34.679688 42.53125 34.40625 L 38.8125 32.90625 L 36.40625 33.03125 L 38.03125 35.5 L 40.625 36.34375 C 40.882813 36.429688 41.101563 36.632813 41.21875 36.875 L 42.8125 40.59375 C 42.894531 40.910156 42.945313 41.378906 42.46875 41.65625 C 42.203125 41.808594 41.65625 41.765625 41.375 41.28125 L 39.625 38.125 L 37.09375 37.3125 C 36.878906 37.242188 36.6875 37.09375 36.5625 36.90625 L 35.0625 34.625 L 35 36.03125 L 35.625 38.90625 C 35.777344 39.4375 35.625 39.816406 35.09375 39.96875 C 34.65625 40.09375 34.21875 39.722656 34.09375 39.28125 L 33.03125 36.40625 C 33.003906 36.304688 32.996094 36.199219 33 36.09375 L 33.15625 32.28125 C 33.164063 32.144531 33.195313 32.023438 33.25 31.90625 L 31.65625 29.5 C 30.953125 29.328125 29.503906 28.898438 28 28.09375 Z"/></svg>