<?xml version="1.0" encoding="utf-8"?><!-- Generator: Adobe Illustrator 15.0.0, SVG Export Plug-In . SVG Version: 6.00 Build 0)  --><!DOCTYPE svg PUBLIC "-//W3C//DTD SVG 1.1//EN" "http://www.w3.org/Graphics/SVG/1.1/DTD/svg11.dtd"><svg xmlns="http://www.w3.org/2000/svg" xmlns:xlink="http://www.w3.org/1999/xlink" viewBox="0 0 50 50" width="500px" height="500px"><path d="M9.014,48.016c-0.019,0-0.038,0-0.057-0.001c-1.104-0.03-1.974-0.95-1.943-2.055c0.401-14.404,9.269-18.837,17.091-22.749c7.805-3.902,14.546-7.272,14.882-19.278c0.031-1.104,0.976-1.955,2.055-1.943c1.104,0.031,1.975,0.951,1.943,2.055c-0.403,14.399-9.269,18.833-17.091,22.744c-7.806,3.902-14.547,7.273-14.882,19.282C10.982,47.156,10.093,48.016,9.014,48.016z"/><path fill="none" stroke="#000000" stroke-width="4" stroke-linecap="round" stroke-linejoin="round" stroke-miterlimit="10" d="M9.015,4.016C9.394,17.197,17.197,21.099,25,25"/><line fill="none" stroke="#000000" stroke-width="2" stroke-linecap="round" stroke-linejoin="round" stroke-miterlimit="10" x1="40.9" y1="5" x2="13" y2="5"/><line fill="none" stroke="#000000" stroke-width="2" stroke-linecap="round" stroke-linejoin="round" stroke-miterlimit="10" x1="40.4" y1="9" x2="13.6" y2="9"/><line fill="none" stroke="#000000" stroke-width="2" stroke-linecap="round" stroke-linejoin="round" stroke-miterlimit="10" x1="39.1" y1="13" x2="16" y2="13"/><line fill="none" stroke="#000000" stroke-width="2" stroke-linecap="round" stroke-linejoin="round" stroke-miterlimit="10" x1="36.6" y1="17" x2="19.4" y2="17"/><line fill="none" stroke="#000000" stroke-width="2" stroke-linecap="round" stroke-linejoin="round" stroke-miterlimit="10" x1="32" y1="21" x2="25" y2="21"/><line fill="none" stroke="#000000" stroke-width="2" stroke-linecap="round" stroke-linejoin="round" stroke-miterlimit="10" x1="40.9" y1="45" x2="13" y2="45"/><line fill="none" stroke="#000000" stroke-width="2" stroke-linecap="round" stroke-linejoin="round" stroke-miterlimit="10" x1="40.4" y1="41" x2="13.6" y2="41"/><line fill="none" stroke="#000000" stroke-width="2" stroke-linecap="round" stroke-linejoin="round" stroke-miterlimit="10" x1="39.1" y1="37" x2="15.6" y2="37"/><line fill="none" stroke="#000000" stroke-width="2" stroke-linecap="round" stroke-linejoin="round" stroke-miterlimit="10" x1="36.6" y1="33" x2="18.8" y2="33"/><line fill="none" stroke="#000000" stroke-width="2" stroke-linecap="round" stroke-linejoin="round" stroke-miterlimit="10" x1="32" y1="29" x2="24.3" y2="29"/><path d="M31.444,26.144c-1.448,0.822-2.903,1.558-4.304,2.259c1.027,0.444,2.029,1.038,2.029,1.038c5.703,3.418,9.556,7.55,9.816,16.602c0.031,1.085,0.92,1.942,1.998,1.942c0.02,0,0.039,0,0.059-0.001c1.104-0.031,1.974-0.952,1.941-2.057C42.656,34.534,37.003,29.516,31.444,26.144z"/></svg>