<?xml version="1.0" encoding="iso-8859-1"?><!-- Generator: Adobe Illustrator 23.0.2, SVG Export Plug-In . SVG Version: 6.00 Build 0)  --><svg xmlns="http://www.w3.org/2000/svg" xmlns:xlink="http://www.w3.org/1999/xlink" viewBox="0 0 50 50" width="500px" height="500px"><path d="M31.5,10h-13C17.672,10,17,9.328,17,8.5v-6C17,1.672,17.672,1,18.5,1h13C32.328,1,33,1.672,33,2.5v6C33,9.328,32.328,10,31.5,10z"/><path d="M41,3h-6v5h4v35H11V8h4V3H9C7.346,3,6,4.346,6,6v39c0,1.654,1.346,3,3,3h32c1.654,0,3-1.346,3-3V6C44,4.346,42.654,3,41,3z"/><g><rect x="24" y="18" width="2" height="16"/></g><g><rect x="17" y="25" transform="matrix(0.8661 -0.4999 0.4999 0.8661 -9.6497 15.98)" width="16" height="2"/></g><g><rect x="24" y="18" transform="matrix(0.5 -0.866 0.866 0.5 -10.0169 34.6499)" width="2" height="16"/></g></svg>