<svg xmlns="http://www.w3.org/2000/svg"  viewBox="0 0 128 128" width="64px" height="64px"><path d="M4 127h32c1.7 0 3-1.3 3-3v-16c0-6.1-4.9-11-11-11H12c-6.1 0-11 4.9-11 11v16C1 125.7 2.3 127 4 127zM20 65A13 13 0 1020 91 13 13 0 1020 65zM45 108v16c0 1.7 1.3 3 3 3h32c1.7 0 3-1.3 3-3v-16c0-6.1-4.9-11-11-11H56C49.9 97 45 101.9 45 108zM64 65A13 13 0 1064 91 13 13 0 1064 65zM116 97h-16c-6.1 0-11 4.9-11 11v16c0 1.7 1.3 3 3 3h32c1.7 0 3-1.3 3-3v-16C127 101.9 122.1 97 116 97zM108 65A13 13 0 10108 91 13 13 0 10108 65zM40 33A13 13 0 1040 59 13 13 0 1040 33zM84 33A13 13 0 1084 59 13 13 0 1084 33zM60 1A13 13 0 1060 27 13 13 0 1060 1z"/></svg>