<svg xmlns="http://www.w3.org/2000/svg"  viewBox="0 0 128 128" width="64px" height="64px"><path d="M34 1c-9.92 0-18 8.07-18 18 0 8.9 6.5 16.29 15 17.73v14.8c-4.61 1.31-8 5.55-8 10.57V116c0 6.07 4.93 11 11 11s11-4.93 11-11V62.1c0-5.02-3.39-9.26-8-10.57v-14.8C45.5 35.29 52 27.9 52 19 52 9.07 43.92 1 34 1zM39 62.1V116c0 2.76-2.24 5-5 5s-5-2.24-5-5V62.1c0-2.76 2.24-5 5-5S39 59.35 39 62.1zM34 31c-6.62 0-12-5.38-12-12S27.38 7 34 7s12 5.38 12 12S40.62 31 34 31zM119 16h-17V4c0-1.66-1.34-3-3-3H84c-9.92 0-18 8.07-18 18 0 8.9 6.5 16.29 15 17.73v14.8c-4.61 1.31-8 5.55-8 10.57V116c0 6.07 4.93 11 11 11s11-4.93 11-11V62.1c0-5.02-3.39-9.26-8-10.57V37h12c1.66 0 3-1.34 3-3V22h17c1.66 0 3-1.34 3-3S120.66 16 119 16zM89 62.1V116c0 2.76-2.24 5-5 5s-5-2.24-5-5V62.1c0-2.76 2.24-5 5-5S89 59.35 89 62.1zM96 31H84c-6.62 0-12-5.38-12-12S77.38 7 84 7h12V31z"/></svg>