<?xml version="1.0" encoding="iso-8859-1"?>
<!-- Generator: Adobe Illustrator 23.0.6, SVG Export Plug-In . SVG Version: 6.00 Build 0)  -->
<svg version="1.1" id="Filled" xmlns="http://www.w3.org/2000/svg" xmlns:xlink="http://www.w3.org/1999/xlink" x="0px" y="0px"
	 viewBox="0 0 50 50" style="enable-background:new 0 0 50 50;" xml:space="preserve">
<path d="M44.779,13.221C42.703,11.144,39.942,10,37.006,10c0,0,0,0-0.001,0c-2.936,0-5.697,1.144-7.773,3.22l-5.232,5.23
	c0-1.842,0-4.288,0.001-4.404v-0.002C23.999,7.956,19.064,3.002,13,3C6.936,3.002,2.001,7.956,2,14.045
	c0.002,0.924,0.002,21.163,0,21.91c0.001,2.95,1.145,5.723,3.22,7.808C7.298,45.849,10.061,46.999,13,47
	c1.573-0.001,3.087-0.349,4.48-0.975c1.427,0.638,2.959,0.968,4.497,0.968c2.83,0,5.664-1.08,7.823-3.238
	c0.123-0.124,1.576-1.577,3.574-3.575c3.556-3.557,8.835-8.837,11.411-11.417C49.066,24.476,49.063,17.504,44.779,13.221z M4,14.043
	C4.001,9.059,8.038,5.002,13,5c4.962,0.002,8.999,4.059,9,9.041c0,0.699,0,4.43,0,6.407L18.446,24H4V14.043z M31.96,38.766
	c-1.999,2-3.454,3.455-3.575,3.577c-3.525,3.523-9.247,3.538-12.759,0.03c-3.507-3.511-3.493-9.233,0.031-12.758l7.318-7.314
	l12.724,12.724C34.374,36.351,33.081,37.644,31.96,38.766z"/>
</svg>