<svg xmlns="http://www.w3.org/2000/svg"  viewBox="0 0 128 128" width="64px" height="64px"><path d="M 63.689453 1 C 53.939453 1.17 46 9.24 46 19 L 46 26.207031 C 22.2874 33.990991 5 56.702721 5 83.179688 L 5 108 C 5 118.48 13.52 127 24 127 C 34.48 127 43 118.48 43 108 L 43 82.330078 C 43 70.950078 52.260625 61.529844 63.640625 61.339844 C 69.130625 61.219844 74.420937 63.379375 78.460938 67.359375 C 82.620938 71.449375 85 77.110859 85 82.880859 L 85 108 C 85 118.48 93.52 127 104 127 C 114.48 127 123 118.48 123 108 L 123 82.330078 C 123 66.430078 116.73914 51.500547 105.36914 40.310547 C 98.665863 33.709563 90.683667 28.919058 82 26.138672 L 82 19.339844 C 82 14.429844 79.979219 9.6301563 76.449219 6.1601562 C 72.979219 2.7501563 68.489453 0.93 63.689453 1 z M 63.800781 7 C 66.970781 6.94 69.94 8.1694531 72.25 10.439453 C 74.63 12.789453 76 16.029844 76 19.339844 L 76 24.560547 C 72.092843 23.754464 68.078997 23.330078 64 23.330078 C 63.7 23.330078 63.390078 23.339844 63.080078 23.339844 C 59.290918 23.397829 55.588927 23.837898 52 24.599609 L 52 19 C 52 12.49 57.290781 7.11 63.800781 7 z M 63.189453 29.330078 C 77.489453 29.080078 90.979687 34.530078 101.17969 44.580078 C 111.38969 54.640078 117.00977 68.040078 117.00977 82.330078 L 117.00977 108 C 117.00977 115.17 111.17977 121 104.00977 121 C 96.839766 121 91.009766 115.17 91.009766 108 L 91.009766 82.880859 C 91.009766 75.500859 87.969922 68.290078 82.669922 63.080078 C 77.569922 58.070078 70.960234 55.330078 63.990234 55.330078 L 63.539062 55.330078 C 48.909063 55.580078 37 67.690078 37 82.330078 L 37 108 C 37 115.17 31.17 121 24 121 C 16.83 121 11 115.17 11 108 L 11 83.179688 C 11 53.929687 34.409453 29.780078 63.189453 29.330078 z M 63.939453 39.996094 C 62.535703 39.997344 61.134766 40.064219 59.759766 40.199219 C 58.109766 40.359219 56.910313 41.830469 57.070312 43.480469 C 57.220312 45.030469 58.520781 46.189453 60.050781 46.189453 C 60.150781 46.189453 60.249609 46.189922 60.349609 46.169922 C 62.719609 45.939922 65.170312 45.930156 67.570312 46.160156 C 69.220312 46.330156 70.679844 45.110937 70.839844 43.460938 C 70.999844 41.810938 69.790625 40.349453 68.140625 40.189453 C 66.750625 40.059453 65.343203 39.994844 63.939453 39.996094 z M 86.060547 46.636719 C 85.097852 46.644727 84.155078 47.117969 83.580078 47.980469 C 82.660078 49.360469 83.039922 51.220625 84.419922 52.140625 C 86.419922 53.460625 88.309531 54.999453 90.019531 56.689453 C 90.609531 57.269453 91.370859 57.560547 92.130859 57.560547 C 92.900859 57.560547 93.679766 57.269922 94.259766 56.669922 C 95.429766 55.489922 95.420234 53.599688 94.240234 52.429688 C 92.250234 50.459688 90.070234 48.680625 87.740234 47.140625 C 87.222734 46.795625 86.638164 46.631914 86.060547 46.636719 z M 41.859375 46.683594 C 41.281758 46.680547 40.697187 46.844453 40.179688 47.189453 C 37.859688 48.729453 35.669453 50.520234 33.689453 52.490234 C 32.519453 53.660234 32.509687 55.560469 33.679688 56.730469 C 34.269688 57.330469 35.040547 57.619141 35.810547 57.619141 C 36.570547 57.619141 37.339922 57.33 37.919922 56.75 C 39.629922 55.05 41.509766 53.509687 43.509766 52.179688 C 44.879766 51.259688 45.259844 49.399531 44.339844 48.019531 C 43.764844 47.157031 42.82207 46.688672 41.859375 46.683594 z M 101.89453 68.089844 C 101.69641 68.10959 101.49828 68.149687 101.30078 68.210938 C 99.720781 68.710938 98.840078 70.390703 99.330078 71.970703 C 100.04008 74.260703 100.53906 76.629297 100.78906 79.029297 C 100.94906 80.569297 102.25953 81.710938 103.76953 81.710938 C 103.87953 81.710937 103.97984 81.709453 104.08984 81.689453 C 105.73984 81.519453 106.92977 80.040625 106.75977 78.390625 C 106.45977 75.610625 105.89055 72.849688 105.06055 70.179688 C 104.62305 68.797187 103.28141 67.951621 101.89453 68.089844 z M 25.476562 68.169922 C 24.314531 68.287578 23.277656 69.084531 22.910156 70.269531 C 22.090156 72.939531 21.520469 75.700469 21.230469 78.480469 C 21.060469 80.120469 22.250391 81.599531 23.900391 81.769531 C 24.010391 81.789531 24.120703 81.789062 24.220703 81.789062 C 25.740703 81.789063 27.039453 80.649375 27.189453 79.109375 C 27.439453 76.709375 27.930625 74.339062 28.640625 72.039062 C 29.130625 70.459063 28.240156 68.779062 26.660156 68.289062 C 26.265156 68.166562 25.863906 68.130703 25.476562 68.169922 z M 104 95.240234 C 102.34 95.240234 101 96.580234 101 98.240234 L 101 106.05078 C 101 107.71078 102.34 109.05078 104 109.05078 C 105.66 109.05078 107 107.71078 107 106.05078 L 107 98.240234 C 107 96.580234 105.66 95.240234 104 95.240234 z M 24 95.320312 C 22.34 95.320312 21 96.660313 21 98.320312 L 21 106.13086 C 21 107.79086 22.34 109.13086 24 109.13086 C 25.66 109.13086 27 107.79086 27 106.13086 L 27 98.320312 C 27 96.660312 25.66 95.320312 24 95.320312 z"/></svg>