<svg xmlns="http://www.w3.org/2000/svg"  viewBox="0 0 128 128" width="64px" height="64px"><path d="M 45 18 C 35.86 18 29.11 23.739922 26 34.169922 C 25.53 35.759922 26.429531 37.430391 28.019531 37.900391 C 28.309531 37.990391 28.600859 38.029297 28.880859 38.029297 C 30.170859 38.029297 31.36 37.180859 31.75 35.880859 C 34.1 28.000859 38.56 24 45 24 C 48 24 50.879453 24.869063 53.939453 25.789062 C 57.129453 26.749063 60.43 27.740234 64 27.740234 C 67.57 27.740234 70.870547 26.749063 74.060547 25.789062 C 77.120547 24.869062 80 24 83 24 C 84.75 24 86.359062 24.289609 87.789062 24.849609 C 89.329063 25.459609 91.069688 24.709922 91.679688 23.169922 C 92.289687 21.629922 91.54 19.889297 90 19.279297 C 87.86 18.429297 85.51 18 83 18 C 79.12 18 75.669844 19.039062 72.339844 20.039062 C 69.429844 20.909062 66.69 21.740234 64 21.740234 C 61.31 21.740234 58.560156 20.909063 55.660156 20.039062 C 52.330156 19.039062 48.88 18 45 18 z M 90.498047 32.916016 C 80.412818 32.93792 68.854062 34.386797 56.640625 37.380859 C 31.060625 43.660859 10.179453 55.260937 3.4394531 66.960938 C 1.1394531 70.950937 0.52007812 74.819219 1.5800781 78.449219 C 3.3100781 84.359219 9.3209375 88.720547 18.960938 91.060547 C 19.200938 91.120547 19.439922 91.150391 19.669922 91.150391 C 21.019922 91.150391 22.249844 90.229375 22.589844 88.859375 C 22.979844 87.249375 21.990859 85.630234 20.380859 85.240234 C 13.050859 83.460234 8.4198438 80.449531 7.3398438 76.769531 C 6.7498438 74.769531 7.190625 72.480937 8.640625 69.960938 C 14.510625 59.770937 34.370312 49.020938 58.070312 43.210938 C 91.510313 35.000937 117.90016 39.8 120.66016 49.25 C 121.86016 53.35 118.61 58.829062 111.75 64.289062 C 110.45 65.319063 110.23953 67.2 111.26953 68.5 C 112.30953 69.8 114.19023 70.010469 115.49023 68.980469 C 127.02023 59.800469 127.79992 52.260547 126.41992 47.560547 C 123.63086 38.031797 109.75167 32.874199 90.498047 32.916016 z M 101.0293 47.710938 C 99.379297 47.710937 98.039297 49.029688 98.029297 50.679688 C 97.889297 66.949688 92.559453 86.340312 84.439453 100.07031 C 83.139453 102.26031 80.989375 101.97984 80.359375 101.83984 C 79.059375 101.54984 77.590625 100.52977 77.390625 98.509766 C 76.200625 86.759766 74.4 69 64 69 C 53.6 69 51.799141 86.759531 50.619141 98.519531 C 50.419141 100.53953 48.950391 101.55961 47.650391 101.84961 C 47.010391 101.98961 44.860312 102.27008 43.570312 100.08008 C 38.070312 90.770078 33.660469 78.370547 31.480469 66.060547 C 31.190469 64.430547 29.63 63.340859 28 63.630859 C 26.37 63.920859 25.280313 65.479375 25.570312 67.109375 C 27.870312 80.089375 32.540391 93.220859 38.400391 103.13086 C 40.200391 106.18086 43.340234 107.93945 46.740234 107.93945 C 47.460234 107.93945 48.189687 107.85945 48.929688 107.68945 C 53.139688 106.76945 56.140078 103.39938 56.580078 99.109375 C 57.190078 93.149375 59.03 75 64 75 C 68.97 75 70.809688 93.149141 71.429688 99.119141 C 71.859688 103.39914 74.870078 106.76922 79.080078 107.69922 C 83.290078 108.62922 87.419375 106.83086 89.609375 103.13086 C 98.219375 88.560859 103.8793 67.990234 104.0293 50.740234 C 104.0493 49.080234 102.72055 47.720937 101.06055 47.710938 L 101.0293 47.710938 z"/></svg>