<svg xmlns="http://www.w3.org/2000/svg"  viewBox="0 0 128 128" width="64px" height="64px"><path d="M121 44l-22.6 0c-1.9 0-3.2 1.7-2.9 3.5.6 3.7-.5 7.6-3.3 10.5-2.3 2.4-5.4 3.8-8.8 3.8-.1 0-.2 0-.3 0-3.2 0-6.3-1.2-8.6-3.5L61.9 46.2c-1.2-1.1-1.4-3-.3-4.2 1.1-1.3 3.1-1.4 4.3-.2l12.7 12.3c2.8 2.7 7.4 2.4 9.7-.9 2-2.7 1.5-6.4-.9-8.7l-4.6-4.4-6.3-6.1c-7.1-6.8-18.3-6.7-25.2.3L45.6 40c-.4.4-.4 1 0 1.4l58.5 58.5c.4.4 1 .4 1.4 0l17.5-17.5c.6-.6.9-1.3.9-2.1V47C124 45.3 122.6 44 121 44zM105.7 105.8c-1.2 1.2-1.2 3.1 0 4.2l16.1 16.1c.6.6 1.4.9 2.1.9s1.5-.3 2.1-.9c1.2-1.2 1.2-3.1 0-4.2L110 105.8C108.8 104.6 106.9 104.6 105.7 105.8zM11.8 16.1L35 39.3c1 1 2.5 1.2 3.7.4 1.6-1 1.9-3.3.5-4.7L16.2 12c-1-1-2.7-1.3-3.9-.5C10.7 12.6 10.5 14.8 11.8 16.1zM74.4 112.7c-2.5 2.5-2.8 6.7-.3 9.2 2.5 2.7 6.7 2.7 9.3.1l16.5-16.5c.4-.4.4-1 0-1.4L40 44.3c-.2-.2-.4-.3-.7-.3H7c-1.7 0-3 1.3-3 3v34c0 1.7 1.3 3 3 3H16c1.4 0 2.6-1 2.9-2.3.5-2.2 1.6-4.2 3.3-5.9l17-16.5c1.2-1.2 3.1-1.1 4.2 0 1.2 1.2 1.1 3.1 0 4.2L26.5 80c-1.1 1.1-1.7 2.5-1.9 4v0h0c0 0 0 .1 0 .1l0 .7c0 1.6.7 3.1 1.9 4.4 2.5 2.6 6.9 2.4 9.4-.1l15.3-15.3c1.2-1.2 3.2-1.2 4.4.1 1.1 1.2.9 3.1-.2 4.2L37 96.4c-2.7 2.7-3 7.2-.4 10 2.7 2.9 7.3 2.9 10 .2l17.9-17.9c1.2-1.2 3.2-1.2 4.4.1 1.1 1.2.9 3.1-.2 4.2l-14.9 14.9c-2.3 2.3-2.6 6.1-.3 8.5 2.3 2.5 6.2 2.5 8.6.1L81.6 97c1.2-1.2 3.2-1.2 4.4.1 1.1 1.2.9 3.1-.2 4.2L74.4 112.7z"/></svg>