<?xml version="1.0"?><svg xmlns="http://www.w3.org/2000/svg"  viewBox="0 0 80 80" width="80px" height="80px">    <path d="M 37 8 L 37 15 L 30 15 L 30 21 L 37 21 L 37 28 L 43 28 L 43 21 L 50 21 L 50 15 L 49 15 L 43 15 L 43 8 L 37 8 z M 39 10 L 41 10 L 41 17 L 48 17 L 48 19 L 41 19 L 41 26 L 39 26 L 39 19 L 32 19 L 32 17 L 39 17 L 39 10 z M 9.5 24 C 7.578 24 6 25.578 6 27.5 L 6 72 L 13 72 L 13 65 L 67 65 L 67 72 L 74 72 L 74 41.5 C 74 39.578 72.422 38 70.5 38 C 69.5 38 68.60875 38.438187 67.96875 39.117188 C 67.05875 37.867188 65.656 37 64 37 L 31 37 L 31 42.820312 C 29.793 40.742312 27.957344 38.468063 25.277344 37.164062 C 23.820344 36.457062 22.300844 36.120625 20.839844 36.015625 C 17.105844 35.745625 13.908047 36.918063 12.998047 37.289062 L 12.998047 27.5 C 12.999047 25.578 11.422 24 9.5 24 z M 9.5 26 C 10.34 26 11 26.66 11 27.5 L 11 50 C 11 50.551 11.449 51 12 51 C 12.551 51 13 50.551 13 50 L 24.808594 50 C 25.308594 50.02 25.80425 50.027 26.28125 50 L 31 50 C 31 50.551 31.449 51 32 51 C 32.551 51 33 50.551 33 50 L 33 39 L 64 39 C 65.668 39 67 40.332 67 42 C 67 42.551 67.449 43 68 43 C 68.551 43 69 42.551 69 42 L 69 41.5 C 69 40.66 69.66 40 70.5 40 C 71.34 40 72 40.66 72 41.5 L 72 70 L 69 70 L 69 63 L 11 63 L 11 70 L 8 70 L 8 27.5 C 8 26.66 8.66 26 9.5 26 z M 19.570312 38.019531 C 19.933312 38.015531 20.308219 38.023875 20.699219 38.046875 C 21.949219 38.124875 23.226344 38.390844 24.402344 38.964844 C 28.500344 40.952844 30.199625 45.694437 30.640625 47.023438 C 29.882625 47.300438 27.968219 47.934953 25.699219 48.001953 L 24.699219 48.001953 C 23.375219 47.931953 21.969094 47.641312 20.621094 46.945312 C 20.613094 46.941313 20.604656 46.9375 20.597656 46.9375 C 16.499656 44.9455 14.812281 40.335531 14.363281 39.019531 C 15.179281 38.722531 17.035312 38.054531 19.570312 38.019531 z M 13 41.214844 C 13.941 43.292844 15.656031 46.153 18.457031 48 L 13 48 L 13 41.214844 z M 68 45 C 67.449 45 67 45.449 67 46 C 67 46.551 67.449 47 68 47 C 68.551 47 69 46.551 69 46 C 69 45.449 68.551 45 68 45 z M 68 49 C 67.449 49 67 49.449 67 50 C 67 50.551 67.449 51 68 51 C 68.551 51 69 50.551 69 50 C 69 49.449 68.551 49 68 49 z M 12 53 C 11.449 53 11 53.449 11 54 C 11 54.551 11.449 55 12 55 C 12.551 55 13 54.551 13 54 C 13 53.449 12.551 53 12 53 z M 16 53 C 15.449 53 15 53.449 15 54 C 15 54.551 15.449 55 16 55 C 16.551 55 17 54.551 17 54 C 17 53.449 16.551 53 16 53 z M 20 53 C 19.449 53 19 53.449 19 54 C 19 54.551 19.449 55 20 55 C 20.551 55 21 54.551 21 54 C 21 53.449 20.551 53 20 53 z M 24 53 C 23.449 53 23 53.449 23 54 C 23 54.551 23.449 55 24 55 C 24.551 55 25 54.551 25 54 C 25 53.449 24.551 53 24 53 z M 28 53 C 27.449 53 27 53.449 27 54 C 27 54.551 27.449 55 28 55 C 28.551 55 29 54.551 29 54 C 29 53.449 28.551 53 28 53 z M 32 53 C 31.449 53 31 53.449 31 54 C 31 54.551 31.449 55 32 55 C 32.551 55 33 54.551 33 54 C 33 53.449 32.551 53 32 53 z M 36 53 C 35.449 53 35 53.449 35 54 C 35 54.551 35.449 55 36 55 C 36.551 55 37 54.551 37 54 C 37 53.449 36.551 53 36 53 z M 40 53 C 39.449 53 39 53.449 39 54 C 39 54.551 39.449 55 40 55 C 40.551 55 41 54.551 41 54 C 41 53.449 40.551 53 40 53 z M 44 53 C 43.449 53 43 53.449 43 54 C 43 54.551 43.449 55 44 55 C 44.551 55 45 54.551 45 54 C 45 53.449 44.551 53 44 53 z M 48 53 C 47.449 53 47 53.449 47 54 C 47 54.551 47.449 55 48 55 C 48.551 55 49 54.551 49 54 C 49 53.449 48.551 53 48 53 z M 52 53 C 51.449 53 51 53.449 51 54 C 51 54.551 51.449 55 52 55 C 52.551 55 53 54.551 53 54 C 53 53.449 52.551 53 52 53 z M 56 53 C 55.449 53 55 53.449 55 54 C 55 54.551 55.449 55 56 55 C 56.551 55 57 54.551 57 54 C 57 53.449 56.551 53 56 53 z M 60 53 C 59.449 53 59 53.449 59 54 C 59 54.551 59.449 55 60 55 C 60.551 55 61 54.551 61 54 C 61 53.449 60.551 53 60 53 z M 64 53 C 63.449 53 63 53.449 63 54 C 63 54.551 63.449 55 64 55 C 64.551 55 65 54.551 65 54 C 65 53.449 64.551 53 64 53 z M 68 53 C 67.449 53 67 53.449 67 54 C 67 54.551 67.449 55 68 55 C 68.551 55 69 54.551 69 54 C 69 53.449 68.551 53 68 53 z"/></svg>