<svg xmlns="http://www.w3.org/2000/svg"  viewBox="0 0 128 128" width="64px" height="64px"><path d="M122.5 63.9l-15.1-20.6c-4.3-5.9-11.2-9.4-18.5-9.4H14C6.8 34 1 39.8 1 47v62c0 4.4 3.6 8 8 8h9.4c1.4 5.7 6.5 10 12.6 10s11.3-4.3 12.6-10h40.7c1.4 5.7 6.5 10 12.6 10s11.3-4.3 12.6-10h9.4c4.4 0 8-3.6 8-8V77.6C127 72.6 125.5 67.9 122.5 63.9zM31 121c-3.9 0-7-3.1-7-7s3.1-7 7-7 7 3.1 7 7S34.9 121 31 121zM65 74H53v12c0 1.7-1.3 3-3 3s-3-1.3-3-3V74H35c-1.7 0-3-1.3-3-3s1.3-3 3-3h12V56c0-1.7 1.3-3 3-3s3 1.3 3 3v12h12c1.7 0 3 1.3 3 3S66.7 74 65 74zM97 121c-3.9 0-7-3.1-7-7s3.1-7 7-7 7 3.1 7 7S100.9 121 97 121zM99 72c-3.9 0-7-3.1-7-7V41.6c0-.7.6-1.1 1.3-1 3.7 1 7 3.2 9.3 6.3l15.1 20.6c.7 1 1.3 2 1.8 3.1.3.7-.2 1.4-.9 1.4H99zM64 20.9c1.7 0 3-1.3 3-3v-14c0-1.7-1.3-3-3-3s-3 1.3-3 3v14C61 19.5 62.3 20.9 64 20.9zM84.3 25.7c.5.3 1 .4 1.5.4 1 0 2-.5 2.6-1.5l6.2-10.3c.9-1.4.4-3.3-1-4.1-1.4-.9-3.3-.4-4.1 1l-6.2 10.3C82.5 23 82.9 24.9 84.3 25.7zM39.5 24.7c.6.9 1.6 1.5 2.6 1.5.5 0 1.1-.1 1.5-.4 1.4-.9 1.9-2.7 1-4.1l-6.2-10.3c-.9-1.4-2.7-1.9-4.1-1-1.4.9-1.9 2.7-1 4.1L39.5 24.7z"/></svg>