<?xml version="1.0" encoding="iso-8859-1"?><!-- Generator: Adobe Illustrator 23.0.3, SVG Export Plug-In . SVG Version: 6.00 Build 0)  --><svg xmlns="http://www.w3.org/2000/svg" xmlns:xlink="http://www.w3.org/1999/xlink" viewBox="0 0 50 50" width="50px" height="50px"><g id="Layer_1"><line style="fill:none;stroke:#000000;stroke-width:2;stroke-miterlimit:10;" x1="17.65" y1="32.263" x2="4.088" y2="21.587"/><line style="fill:none;stroke:#000000;stroke-width:2;stroke-miterlimit:10;" x1="32.35" y1="32.263" x2="45.913" y2="21.587"/><path style="fill:none;stroke:#000000;stroke-width:2;stroke-miterlimit:10;" d="M45.913,42.875c0,0-16.1-12.6-17.413-13.65C27.188,28.175,25.788,28,25,28s-2.188,0.262-3.5,1.225c-1.313,0.962-17.413,13.65-17.413,13.65"/><path style="fill:none;stroke:#000000;stroke-width:2;stroke-linecap:round;stroke-linejoin:round;stroke-miterlimit:10;" d="M39,14.412c3.763,3.325,7,6.213,7,6.213V46H4V20.625c0,0,3.237-2.887,7-6.213"/><path style="fill:none;stroke:#000000;stroke-width:2;stroke-linecap:round;stroke-linejoin:round;stroke-miterlimit:10;" d="M18.259,8c1.7-1.47,2.918-2.533,3.241-2.775C22.725,4.175,24.212,4,25,4s2.275,0.175,3.5,1.225C28.823,5.467,30.041,6.53,31.672,8"/><polyline style="fill:none;stroke:#000000;stroke-width:2;stroke-linecap:round;stroke-linejoin:round;stroke-miterlimit:10;" points="11,26.925 11,8 39,8 39,26.925 "/><line style="fill:none;stroke:#000000;stroke-width:2;stroke-linejoin:round;stroke-miterlimit:10;" x1="25" y1="24" x2="25" y2="12"/><line style="fill:none;stroke:#000000;stroke-width:2;stroke-linejoin:round;stroke-miterlimit:10;" x1="30.196" y1="21" x2="19.804" y2="15"/><line style="fill:none;stroke:#000000;stroke-width:2;stroke-linejoin:round;stroke-miterlimit:10;" x1="19.804" y1="21" x2="30.196" y2="15"/></g><g id="&#x421;&#x43B;&#x43E;&#x439;_1"></g></svg>