<?xml version="1.0" encoding="utf-8"?><!-- Generator: Adobe Illustrator 18.0.0, SVG Export Plug-In . SVG Version: 6.00 Build 0)  --><svg xmlns="http://www.w3.org/2000/svg" xmlns:xlink="http://www.w3.org/1999/xlink" viewBox="0 0 50 50" width="500px" height="500px"><polygon points="1,50 1,46 8.4,38.6 10.4,40.6 "/><line fill="none" stroke="#000000" stroke-width="2" stroke-linecap="round" stroke-linejoin="round" stroke-miterlimit="10" x1="26" y1="7" x2="42" y2="23"/><line fill="none" stroke="#000000" stroke-width="2" stroke-linecap="round" stroke-linejoin="round" stroke-miterlimit="10" x1="38" y1="1" x2="48" y2="11"/><rect x="34.6" y="4.2" transform="matrix(-0.7071 0.7071 -0.7071 -0.7071 74.1004 -11.7479)" width="9.8" height="10.5"/><path d="M28.3,9.3l-22,22C6.1,31.5,6,31.9,6,32.2l2,8c0.1,0.4,0.4,0.6,0.7,0.7l8,2c0.1,0,0.2,0,0.2,0c0.3,0,0.5-0.1,0.7-0.3l22-22C40.1,20.3,28.7,8.9,28.3,9.3z M14.7,34.7C14.5,34.9,14.2,35,14,35s-0.5-0.1-0.7-0.3l-3.8-3.6c0-0.1,0-0.1,0-0.1l1.4-1.4c0.1,0,0.1,0,0.1,0l3.7,3.7C15.1,33.7,15.1,34.3,14.7,34.7z M16.7,28.7C16.5,28.9,16.2,29,16,29s-0.5-0.1-0.7-0.3L13.6,27c-0.1,0-0.1-0.1,0,0l1.3-1.4c0.1,0,0.1,0,0.1,0l1.7,1.7C17.1,27.7,17.1,28.3,16.7,28.7z M22.7,26.7C22.5,26.9,22.2,27,22,27s-0.5-0.1-0.7-0.3l-3.8-3.6c0-0.1,0-0.1,0-0.1l1.4-1.4c0.1,0,0.1,0,0.1,0l3.7,3.7C23.1,25.7,23.1,26.3,22.7,26.7z M24.7,20.7C24.5,20.9,24.2,21,24,21s-0.5-0.1-0.7-0.3L21.6,19c-0.1,0-0.1-0.1,0,0l1.3-1.4c0.1,0,0.1,0,0.1,0l1.7,1.7C25.1,19.7,25.1,20.3,24.7,20.7z M30.6,18.7c-0.2,0.2-0.5,0.3-0.7,0.3c-0.2,0-0.5-0.1-0.7-0.3L25.5,15c0-0.1,0-0.1,0-0.1l1.4-1.4l3.7,3.8C31,17.7,31,18.3,30.6,18.7z"/></svg>