<svg xmlns="http://www.w3.org/2000/svg"  viewBox="0 0 128 128" width="64px" height="64px"><path d="M 39 28 C 27.01 28 16.759297 35.579453 12.779297 46.189453 C 10.969297 43.289453 8.6097656 40.700312 5.7597656 38.570312 C 4.4297656 37.580312 2.5505469 37.849688 1.5605469 39.179688 C 0.57054688 40.509687 0.83992187 42.390859 2.1699219 43.380859 C 7.7799219 47.570859 11 54 11 61 L 11 87 C 11 90.86 7.86 94 4 94 C 2.34 94 1 95.34 1 97 C 1 98.66 2.34 100 4 100 C 8.02 100 11.61 98.169063 14 95.289062 C 16.39 98.159063 19.98 100 24 100 L 54 100 C 58.02 100 61.61 98.170781 64 95.300781 C 66.39 98.170781 69.98 100 74 100 L 104 100 C 108.02 100 111.61 98.169063 114 95.289062 C 116.39 98.159063 119.98 100 124 100 C 125.66 100 127 98.66 127 97 C 127 95.34 125.66 94 124 94 C 120.14 94 117 90.86 117 87 L 117 61 C 117 54.01 120.21078 47.600391 125.80078 43.400391 C 127.12078 42.400391 127.39039 40.519219 126.40039 39.199219 C 125.41039 37.869219 123.51922 37.609609 122.19922 38.599609 C 119.36922 40.729609 117.0307 43.299453 115.2207 46.189453 C 111.2407 35.579453 100.99 28 89 28 C 78.09 28 68.62 34.270391 64 43.400391 C 59.38 34.270391 49.91 28 39 28 z M 39 34 C 51.13 34 61 43.87 61 56 L 61 87 C 61 90.86 57.86 94 54 94 L 24 94 C 20.14 94 17 90.86 17 87 L 17 56 C 17 43.87 26.87 34 39 34 z M 89 34 C 101.13 34 111 43.87 111 56 L 111 87 C 111 90.86 107.86 94 104 94 L 74 94 C 70.14 94 67 90.86 67 87 L 67 56 C 67 43.87 76.87 34 89 34 z M 34 58 C 30.69 58 28 60.69 28 64 L 28 76 C 28 79.31 30.69 82 34 82 L 44 82 C 47.31 82 50 79.31 50 76 L 50 64 C 50 60.69 47.31 58 44 58 L 34 58 z M 84 58 C 80.69 58 78 60.69 78 64 L 78 76 C 78 79.31 80.69 82 84 82 L 94 82 C 97.31 82 100 79.31 100 76 L 100 64 C 100 60.69 97.31 58 94 58 L 84 58 z M 34 64 L 44 64 L 44 76 L 34 76 L 34 64 z M 84 64 L 94 64 L 94 76 L 84 76 L 84 64 z"/></svg>