<?xml version="1.0" encoding="iso-8859-1"?>
<!-- Generator: Adobe Illustrator 23.0.3, SVG Export Plug-In . SVG Version: 6.00 Build 0)  -->
<svg version="1.1" id="Layer_1" xmlns="http://www.w3.org/2000/svg" xmlns:xlink="http://www.w3.org/1999/xlink" x="0px" y="0px"
	 viewBox="0 0 50 50" style="enable-background:new 0 0 50 50;" xml:space="preserve">
<path d="M27.916,44h-4.922H8.12c0.73-3.99,4.23-5.39,7.63-6.75c2.006-0.803,3.927-1.574,5.128-2.865
	C22.257,35.416,24.07,36,25.997,36c1.929,0,3.741-0.584,5.119-1.615c0.733,0.788,1.736,1.382,2.862,1.908L34,36.267v-2.195
	c-0.903-0.499-1.591-1.053-1.906-1.761v-3.56c0.85-0.92,1.7-2.85,2.01-4.6c0.67-0.37,1.49-1.26,1.78-3.41
	c0.1-1.16-0.27-2.01-0.69-2.54c0.045-0.189,0.081-0.371,0.119-0.555c0.773-2.775,1.32-7.048-0.363-9.825
	c-0.85-1.41-2.15-2.29-3.87-2.63c-0.48-0.61-1.18-1.08-2.05-1.4c-0.88-0.32-1.94-0.49-3.15-0.49c-3.69,0.08-6.38,1.21-8.01,3.35
	c-1.92,2.53-2.28,6.42-1.07,11.55c-0.42,0.53-0.79,1.38-0.69,2.54c0.29,2.15,1.11,3.04,1.78,3.41c0.31,1.75,1.16,3.68,2.01,4.6v3.56
	c-0.61,1.37-2.6,2.17-4.89,3.09c-3.87,1.54-8.67,3.47-9.01,9.55L5.94,46h17.054h4.417C27.454,45.311,27.621,44.635,27.916,44z
	 M19.8,23.31l-0.02-0.9h-0.91c-0.14-0.06-0.59-0.53-0.77-1.89c-0.01-0.06-0.01-0.12-0.01-0.18c0-0.71,0.37-1.01,0.37-1.01l0.58-0.39
	l-0.17-0.69c-1.21-4.78-1.01-8.28,0.6-10.39c1.24-1.63,3.41-2.49,6.43-2.56c1.89,0,3.25,0.48,3.74,1.3l0.24,0.42l0.48,0.07
	c1.33,0.19,2.27,0.77,2.88,1.77c1.348,2.222,0.776,6.387-0.011,8.906c-0.039,0.165-0.062,0.316-0.105,0.484l-0.17,0.69l0.58,0.39
	c0,0,0.37,0.3,0.37,1.01c0,0.06,0,0.12-0.01,0.18c-0.18,1.36-0.63,1.83-0.77,1.89h-0.91l-0.02,0.9c-0.18,1.89-1.24,3.85-1.62,4.13
	l-0.5,0.29l0.02,0.57v4.348C29.052,33.499,27.558,34,25.997,34c-1.56,0-3.054-0.501-4.097-1.352V28.3l0.02-0.57l-0.5-0.29
	C21.04,27.16,19.98,25.2,19.8,23.31z"/>
<path style="fill:none;stroke:#000000;stroke-width:2;stroke-linecap:round;stroke-linejoin:round;" d="M48.467,44.681L42,36.775V31
	h-5v6.337l-6.008,7.344C29.58,46.408,30.808,49,33.039,49H46.42C48.651,49,49.88,46.408,48.467,44.681z"/>
<line style="fill:none;stroke:#000000;stroke-width:2;stroke-linecap:round;stroke-linejoin:round;" x1="34" y1="41" x2="45" y2="41"/>
<line style="fill:none;stroke:#000000;stroke-width:2;stroke-linecap:round;stroke-linejoin:round;" x1="36" y1="31" x2="43" y2="31"/>
</svg>