<?xml version="1.0" encoding="iso-8859-1"?>
<!-- Generator: Adobe Illustrator 23.0.6, SVG Export Plug-In . SVG Version: 6.00 Build 0)  -->
<svg version="1.1" id="Filled" xmlns="http://www.w3.org/2000/svg" xmlns:xlink="http://www.w3.org/1999/xlink" x="0px" y="0px"
	 viewBox="0 0 50 50" style="enable-background:new 0 0 50 50;" xml:space="preserve">
<path d="M48.41,16.983L33.017,1.59c-0.779-0.779-2.049-0.779-2.828,0L1.59,30.188c-0.78,0.779-0.78,2.049,0,2.828L16.983,48.41
	c0.39,0.39,0.902,0.585,1.414,0.585s1.024-0.195,1.414-0.585L48.41,19.812C49.19,19.032,49.19,17.763,48.41,16.983z M29,8
	c1.654,0,3,1.346,3,3s-1.346,3-3,3s-3-1.346-3-3S27.346,8,29,8z M23,14c1.654,0,3,1.346,3,3s-1.346,3-3,3s-3-1.346-3-3
	S21.346,14,23,14z M17,20c1.654,0,3,1.346,3,3s-1.346,3-3,3s-3-1.346-3-3S15.346,20,17,20z M8,29c0-1.654,1.346-3,3-3s3,1.346,3,3
	s-1.346,3-3,3S8,30.654,8,29z M13,38c-0.256,0-0.512-0.098-0.707-0.293c-0.391-0.391-0.391-1.023,0-1.414l24-24
	c0.391-0.391,1.023-0.391,1.414,0s0.391,1.023,0,1.414l-24,24C13.512,37.902,13.256,38,13,38z M21,42c-1.654,0-3-1.346-3-3
	s1.346-3,3-3s3,1.346,3,3S22.654,42,21,42z M27,36c-1.654,0-3-1.346-3-3s1.346-3,3-3s3,1.346,3,3S28.654,36,27,36z M33,30
	c-1.654,0-3-1.346-3-3s1.346-3,3-3s3,1.346,3,3S34.654,30,33,30z M39,24c-1.654,0-3-1.346-3-3s1.346-3,3-3s3,1.346,3,3
	S40.654,24,39,24z"/>
</svg>