<svg xmlns="http://www.w3.org/2000/svg"  viewBox="0 0 50 50" width="50px" height="50px"><path d="M 26 0 C 25.449219 0 25 0.449219 25 1 L 25 3 C 25 3.550781 25.449219 4 26 4 C 26.554688 4 27 3.550781 27 3 L 27 1 C 27 0.449219 26.554688 0 26 0 Z M 18.9375 2.9375 C 18.683594 2.9375 18.414063 3.023438 18.21875 3.21875 C 17.828125 3.609375 17.828125 4.234375 18.21875 4.625 L 19.625 6.0625 C 19.820313 6.257813 20.085938 6.34375 20.34375 6.34375 C 20.601563 6.34375 20.867188 6.257813 21.0625 6.0625 C 21.453125 5.671875 21.453125 5.015625 21.0625 4.625 L 19.625 3.21875 C 19.429688 3.023438 19.191406 2.9375 18.9375 2.9375 Z M 33.0625 2.9375 C 32.808594 2.9375 32.570313 3.023438 32.375 3.21875 L 30.9375 4.625 C 30.546875 5.015625 30.546875 5.671875 30.9375 6.0625 C 31.132813 6.257813 31.398438 6.34375 31.65625 6.34375 C 31.914063 6.34375 32.179688 6.257813 32.375 6.0625 L 33.78125 4.625 C 34.171875 4.234375 34.171875 3.609375 33.78125 3.21875 C 33.585938 3.023438 33.316406 2.9375 33.0625 2.9375 Z M 26 6 C 23.792969 6 22 7.792969 22 10 L 22 11 L 30 11 L 30 10 C 30 7.792969 28.207031 6 26 6 Z M 16 9 C 15.449219 9 15 9.449219 15 10 C 15 10.550781 15.449219 11 16 11 L 18 11 C 18.550781 11 19 10.550781 19 10 C 19 9.449219 18.550781 9 18 9 Z M 34 9 C 33.445313 9 33 9.449219 33 10 C 33 10.550781 33.445313 11 34 11 L 36 11 C 36.554688 11 37 10.550781 37 10 C 37 9.449219 36.554688 9 36 9 Z M 2.78125 13 C 1.253906 13 0 14.234375 0 15.75 L 0 40.25 C 0 41.765625 1.253906 43 2.78125 43 L 7 43 C 7 46.308594 9.691406 49 13 49 C 16.308594 49 19 46.308594 19 43 L 33 43 C 33 46.308594 35.691406 49 39 49 C 42.308594 49 45 46.308594 45 43 L 47.21875 43 C 48.746094 43 50 41.765625 50 40.25 L 50 33.25 C 50 31.324219 48.628906 29.363281 48.5 29.1875 L 39.46875 15.21875 C 39.445313 15.183594 39.402344 15.125 39.375 15.09375 L 39.1875 14.90625 C 38.414063 13.976563 37.640625 13 35.96875 13 Z M 32 18 L 38.84375 18 L 46 29 L 32 29 Z M 14 21 L 16 21 L 16 25 L 20 25 L 20 27 L 16 27 L 16 31 L 14 31 L 14 27 L 10 27 L 10 25 L 14 25 Z M 13 39 C 15.207031 39 17 40.792969 17 43 C 17 45.207031 15.207031 47 13 47 C 10.792969 47 9 45.207031 9 43 C 9 40.792969 10.792969 39 13 39 Z M 39 39 C 41.207031 39 43 40.792969 43 43 C 43 45.207031 41.207031 47 39 47 C 36.792969 47 35 45.207031 35 43 C 35 40.792969 36.792969 39 39 39 Z"/></svg>