<svg xmlns="http://www.w3.org/2000/svg"  viewBox="0 0 128 128" width="64px" height="64px"><path d="M3.4,124.6c0.6,0.6,1.4,0.9,2.1,0.9s1.5-0.3,2.1-0.9l23.1-23.1l8.5,8.5c2.5,2.5,5.9,3.8,9.2,3.8s6.7-1.3,9.2-3.8l56.5-56.5 c1.2-1.2,1.2-3.1,0-4.2L98.5,33.7l9.9-9.9l11.3,11.3c0.6,0.6,1.4,0.9,2.1,0.9s1.5-0.3,2.1-0.9c1.2-1.2,1.2-3.1,0-4.2L97.1,4 c-1.2-1.2-3.1-1.2-4.2,0c-1.2,1.2-1.2,3.1,0,4.2l11.3,11.3l-9.9,9.9L78.7,13.9c-1.1-1.1-3.1-1.1-4.2,0L18,70.4 c-5.1,5.1-5.1,13.3,0,18.4l8.5,8.5L3.4,120.4C2.2,121.6,2.2,123.5,3.4,124.6z M76.6,20.3l15.6,15.6c0,0,0,0,0,0s0,0,0,0l15.6,15.6 L94.3,64.8l-4.9-5c-1.2-1.2-3.1-1.2-4.2,0c-1.2,1.2-1.2,3.1,0,4.2l4.9,5L80.1,79l-5-5c-1.2-1.2-3.1-1.2-4.2,0 c-1.2,1.2-1.2,3.1,0,4.2l5,5l-9.8,9.8L34.9,61.9L76.6,20.3z"/></svg>