<svg xmlns="http://www.w3.org/2000/svg"  viewBox="0 0 128 128" width="64px" height="64px"><path d="M 64 1 C 29.26 1 1 29.26 1 64 C 1 98.74 29.26 127 64 127 C 98.74 127 127 98.74 127 64 C 127 62.34 125.66 61 124 61 C 122.34 61 121 62.34 121 64 C 121 95.43 95.43 121 64 121 C 32.57 121 7 95.43 7 64 C 7 32.57 32.57 7 64 7 C 80.22 7 95.699219 14.02 106.44922 26 L 88.5 26 C 86.84 26 85.5 27.34 85.5 29 C 85.5 30.66 86.84 32 88.5 32 L 113.5 32 C 115.16 32 116.5 30.66 116.5 29 L 116.5 4 C 116.5 2.34 115.16 1 113.5 1 C 111.84 1 110.5 2.34 110.5 4 L 110.5 21.519531 C 98.64 8.5695313 81.72 1 64 1 z M 45 41 C 39.46 41 34.860312 43.029297 31.320312 47.029297 C 22.750312 56.719297 23.489219 74.589141 24.699219 84.369141 C 24.909219 86.009141 26.400781 87.180469 28.050781 86.980469 C 29.690781 86.770469 30.860156 85.270859 30.660156 83.630859 C 28.810156 68.690859 30.700312 56.8 35.820312 51 C 38.200312 48.31 41.2 47 45 47 C 48 47 50.879219 47.869062 53.949219 48.789062 C 57.139219 49.749063 60.439766 50.740234 64.009766 50.740234 C 67.579766 50.740234 70.880313 49.749063 74.070312 48.789062 C 77.130313 47.869063 80.009766 47 83.009766 47 C 86.809766 47 89.809453 48.31 92.189453 51 C 97.309453 56.79 99.189609 68.690859 97.349609 83.630859 C 97.149609 85.280859 98.320937 86.780469 99.960938 86.980469 C 100.08094 86.990469 100.21008 87 100.33008 87 C 101.82008 87 103.11078 85.889375 103.30078 84.359375 C 104.51078 74.579375 105.24969 56.719531 96.679688 47.019531 C 93.139687 43.029531 88.54 41 83 41 C 79.12 41 75.669844 42.039062 72.339844 43.039062 C 69.429844 43.909062 66.69 44.740234 64 44.740234 C 61.31 44.740234 58.560156 43.909062 55.660156 43.039062 C 52.330156 42.039062 48.88 41 45 41 z"/></svg>