<svg xmlns="http://www.w3.org/2000/svg"  viewBox="0 0 128 128" width="64px" height="64px"><path d="M 4 1 C 2.3 1 1 2.3 1 4 L 1 29.599609 C 1 39.699609 5.5003906 49.100391 13.400391 55.400391 C 14.000391 55.800391 14.600781 56.099609 15.300781 56.099609 C 16.200781 56.099609 17.099609 55.7 17.599609 55 C 18.599609 53.7 18.399609 51.800781 17.099609 50.800781 C 12.699609 47.100781 9.5 42.3 8 37 L 39 37 C 40.7 37 42 35.7 42 34 C 42 32.3 40.7 31 39 31 L 7 31 L 7 29.599609 L 7 17 L 39 17 C 40.7 17 42 15.7 42 14 C 42 12.3 40.7 11 39 11 L 7 11 L 7 4 C 7 2.3 5.7 1 4 1 z M 54 1 C 52.3 1 51 2.3 51 4 L 51 29.599609 C 51 37.799609 47.300391 45.499219 40.900391 50.699219 L 13.400391 72.699219 C 5.5003906 78.899219 1 88.300391 1 98.400391 L 1 124 C 1 125.7 2.3 127 4 127 C 5.7 127 7 125.7 7 124 L 7 98.400391 C 7 90.200391 10.699609 82.500781 17.099609 77.300781 L 44.599609 55.300781 C 52.499609 49.100781 57 39.699609 57 29.599609 L 57 4 C 57 2.3 55.7 1 54 1 z M 79.142578 2.2871094 C 77.975391 2.3058594 76.850391 2.9992187 76.400391 4.1992188 C 75.800391 5.6992188 76.499609 7.4996094 78.099609 8.0996094 L 82.699219 10 L 78 21.300781 C 74.9 20.300781 71.600781 19.599219 68.300781 19.199219 C 66.700781 18.999219 65.2 20.200391 65 21.900391 C 64.8 23.600391 65.999219 24.999219 67.699219 25.199219 C 81.999219 26.499219 94.300391 35.600781 99.900391 48.800781 C 108.30039 68.600781 98.999219 91.500391 79.199219 99.900391 C 75.599219 101.40039 71.700781 102.40078 67.800781 102.80078 C 66.200781 103.00078 64.899609 104.39961 65.099609 106.09961 C 65.299609 107.59961 66.599609 108.80078 68.099609 108.80078 L 68.400391 108.80078 C 71.900391 108.40078 75.399219 107.7 78.699219 106.5 L 83.400391 117.59961 L 78.800781 119.59961 C 77.300781 120.19961 76.599219 122 77.199219 123.5 C 77.699219 124.6 78.8 125.30078 80 125.30078 C 80.4 125.30078 80.799219 125.19961 81.199219 125.09961 L 95.900391 118.80078 C 97.400391 118.20078 98.1 116.40039 97.5 114.90039 C 96.9 113.40039 95.099609 112.70078 93.599609 113.30078 L 89 115.30078 L 84.300781 104.19922 C 93.400781 99.599219 100.3 92.299609 104.5 83.599609 L 115.69922 88.099609 L 113.80078 92.699219 C 113.20078 94.199219 113.9 95.999609 115.5 96.599609 C 115.9 96.699609 116.19961 96.800781 116.59961 96.800781 C 117.79961 96.800781 118.90039 96.100391 119.40039 94.900391 L 125.40039 80.099609 C 126.00039 78.599609 125.30078 76.900781 123.80078 76.300781 C 122.30078 75.700781 120.50039 76.4 119.90039 78 L 118 82.599609 L 106.69922 78 C 109.69922 68.9 109.8 58.799219 106.5 49.199219 L 117.59961 44.5 L 119.59961 49.099609 C 120.09961 50.199609 121.20039 50.900391 122.40039 50.900391 C 122.80039 50.900391 123.19961 50.799219 123.59961 50.699219 C 125.09961 50.099219 125.79922 48.300781 125.19922 46.800781 L 122.09961 39.400391 L 119 32 C 118.4 30.5 116.59961 29.800391 115.09961 30.400391 C 113.59961 31.000391 112.9 32.800781 113.5 34.300781 L 115.5 38.900391 L 104.40039 43.599609 C 99.900391 34.699609 92.600781 27.700391 83.800781 23.400391 L 88.300781 12.199219 L 92.900391 14.099609 C 93.300391 14.199609 93.6 14.300781 94 14.300781 C 95.2 14.300781 96.300781 13.600391 96.800781 12.400391 C 97.400781 10.900391 96.699609 9.1 95.099609 8.5 L 80.300781 2.5 C 79.925781 2.35 79.531641 2.2808594 79.142578 2.2871094 z M 77.849609 53.886719 C 75.899609 53.899219 73.949609 54.299609 72.099609 55.099609 C 68.399609 56.699609 65.599609 59.600781 64.099609 63.300781 C 62.599609 67.000781 62.599219 71.100781 64.199219 74.800781 C 65.799219 78.500781 68.700391 81.300781 72.400391 82.800781 C 74.200391 83.500781 76.1 83.900391 78 83.900391 C 80 83.900391 82.000391 83.499219 83.900391 82.699219 C 91.500391 79.499219 95.100781 70.6 91.800781 63 C 90.200781 59.3 87.299609 56.5 83.599609 55 C 81.749609 54.25 79.799609 53.874219 77.849609 53.886719 z M 78 59.900391 C 79.1 59.900391 80.300391 60.099609 81.400391 60.599609 C 83.600391 61.499609 85.400781 63.200391 86.300781 65.400391 C 88.200781 70.000391 86.1 75.299219 81.5 77.199219 C 79.3 78.099219 76.799609 78.200781 74.599609 77.300781 C 72.399609 76.400781 70.599219 74.7 69.699219 72.5 C 68.799219 70.2 68.799219 67.8 69.699219 65.5 C 70.599219 63.3 72.3 61.499609 74.5 60.599609 C 75.6 60.099609 76.8 59.900391 78 59.900391 z M 42.962891 72.076172 C 42.000977 72.004883 41.025391 72.386719 40.400391 73.199219 C 39.400391 74.499219 39.600391 76.400391 40.900391 77.400391 C 45.400391 81.000391 48.5 85.699609 50 91.099609 L 19 91.099609 C 17.3 91.099609 16 92.399609 16 94.099609 C 16 95.799609 17.3 97.099609 19 97.099609 L 51 97.099609 L 51 98.5 L 51 111 L 19 111 C 17.3 111 16 112.3 16 114 C 16 115.7 17.3 117 19 117 L 51 117 L 51 124 C 51 125.7 52.3 127 54 127 C 55.7 127 57 125.7 57 124 L 57 98.400391 C 57 88.300391 52.499609 78.899219 44.599609 72.699219 C 44.112109 72.324219 43.540039 72.118945 42.962891 72.076172 z"/></svg>