<svg xmlns="http://www.w3.org/2000/svg"  viewBox="0 0 128 128" width="64px" height="64px"><path d="M 124 9.0019531 C 123.2325 9.0019531 122.46586 9.2958594 121.88086 9.8808594 L 116.88086 14.880859 C 115.71086 16.050859 115.71086 17.949141 116.88086 19.119141 C 117.46086 19.709141 118.23 20 119 20 C 119.77 20 120.53914 19.709141 121.11914 19.119141 L 126.11914 14.119141 C 127.28914 12.949141 127.28914 11.050859 126.11914 9.8808594 C 125.53414 9.2958594 124.7675 9.0019531 124 9.0019531 z M 19 24 C 18.849362 24 18.705152 24.023615 18.560547 24.044922 C 18.516437 24.051435 18.471573 24.048161 18.427734 24.056641 C 18.426481 24.056882 18.425081 24.056398 18.423828 24.056641 C 18.232288 24.093779 18.047633 24.151069 17.871094 24.222656 C 17.687564 24.297078 17.512841 24.388527 17.349609 24.496094 C 17.009568 24.720174 16.720174 25.009568 16.496094 25.349609 C 16.388527 25.512841 16.297078 25.687564 16.222656 25.871094 C 16.151069 26.047633 16.093779 26.232288 16.056641 26.423828 C 16.047869 26.468876 16.051616 26.515212 16.044922 26.560547 C 16.023615 26.705152 16 26.849362 16 27 L 16 49 C 16 50.66 17.34 52 19 52 C 20.66 52 22 50.66 22 49 L 22 34.238281 L 54.810547 67.050781 C 57.340547 69.580781 60.67 70.849609 64 70.849609 C 67.33 70.849609 70.659453 69.580781 73.189453 67.050781 L 106.11914 34.119141 C 107.28914 32.949141 107.28914 31.050859 106.11914 29.880859 C 104.94914 28.710859 103.05086 28.710859 101.88086 29.880859 L 68.949219 62.810547 C 66.219219 65.540547 61.780781 65.540547 59.050781 62.810547 L 26.238281 30 L 41 30 C 42.66 30 44 28.66 44 27 C 44 25.34 42.66 24 41 24 L 19 24 z M 45 81 C 39.46 81 34.860312 83.029297 31.320312 87.029297 C 22.750312 96.719297 23.489219 114.58914 24.699219 124.36914 C 24.909219 126.00914 26.400781 127.18047 28.050781 126.98047 C 29.690781 126.77047 30.860156 125.27086 30.660156 123.63086 C 28.810156 108.69086 30.700312 96.8 35.820312 91 C 38.200312 88.31 41.2 87 45 87 C 48 87 50.879219 87.869062 53.949219 88.789062 C 57.139219 89.749063 60.439766 90.740234 64.009766 90.740234 C 67.579766 90.740234 70.880313 89.749062 74.070312 88.789062 C 77.130313 87.869062 80.009766 87 83.009766 87 C 86.809766 87 89.809453 88.31 92.189453 91 C 97.309453 96.79 99.189609 108.69086 97.349609 123.63086 C 97.149609 125.28086 98.320937 126.78047 99.960938 126.98047 C 100.08094 126.99047 100.21008 127 100.33008 127 C 101.82008 127 103.11078 125.88938 103.30078 124.35938 C 104.51078 114.57938 105.24969 96.719531 96.679688 87.019531 C 93.139687 83.029531 88.54 81 83 81 C 79.12 81 75.669844 82.039062 72.339844 83.039062 C 69.429844 83.909063 66.69 84.740234 64 84.740234 C 61.31 84.740234 58.560156 83.909063 55.660156 83.039062 C 52.330156 82.039063 48.88 81 45 81 z"/></svg>