<?xml version="1.0" encoding="iso-8859-1"?>
<!-- Generator: Adobe Illustrator 22.1.0, SVG Export Plug-In . SVG Version: 6.00 Build 0)  -->
<svg version="1.1" id="Layer_1" xmlns="http://www.w3.org/2000/svg" xmlns:xlink="http://www.w3.org/1999/xlink" x="0px" y="0px"
	 viewBox="0 0 50 50" style="enable-background:new 0 0 50 50;" xml:space="preserve">
<g>
</g>
<path d="M43.939,19.305c-0.737-1.195-1.434-2.324-1.855-4.267c-1.527-7.036-6.995-7.634-9.951-8.029
	C28.091,6.469,28.002,4.101,28,4.017c0,0-0.002-0.09-0.008-0.141c-0.068-0.547-0.566-0.933-1.116-0.868l-8,1
	c0,0-0.002,0.017-0.003,0.02c-0.487,0.065-0.87,0.465-0.873,0.97c-0.001,0.148-0.059,3.659-2.921,4.548L14.565,9.7
	c-1.154,0.347-2.464,0.738-3.957,1.64C7.551,13.184,6,16.056,6,19.875c0,1.969-0.422,2.786-0.91,3.733
	C4.578,24.602,3.997,25.125,4,27.414c0,0.344,0.191,0.663,0.485,0.84c0,0,3.305,1.95,4.407,2.63c0.078,0.048,0.205,0.11,0.303,0.11
	c0.138,0,0.263-0.056,0.354-0.146L10,30.396C13,27.271,13,24,13,23c0,6,2,8,2,10c0,0.617,0,0.929,0,1.084c0,0.081,0,0.126,0,0.135
	c0,0.206,0,0.692,0,1.781c0,2-3,6-3,10c0,0.552,0.448,1,1,1h23.999c0.552,0,1-0.448,1-1c0-5-1.976-8-1.976-10.875
	c0-0.5-0.024-2.255-0.024-3.125c0-2,1-5,1-11c0,1,0.001,4.288,3.001,6.564c0,0,0.257,0.212,0.536,0.367
	C40.607,27.971,40.684,28,40.771,28c0.09,0,0.175-0.024,0.248-0.066c0.039-0.022,4.689-2.663,4.689-2.663
	c0.207-0.207,0.317-0.502,0.289-0.793C45.736,21.779,44.822,20.735,43.939,19.305z M30,35l-10,9l4-7h-4l5-7h5l-4,5H30z"/>
</svg>