<svg xmlns="http://www.w3.org/2000/svg"  viewBox="0 0 128 128" width="64px" height="64px"><path d="M 45 18 C 37.96 18 32.329219 21.360703 28.699219 27.720703 C 24.119219 35.760703 22.809766 48.529688 25.009766 63.679688 C 27.069766 77.849688 31.950391 92.220859 38.400391 103.13086 C 40.200391 106.18086 43.340234 107.93945 46.740234 107.93945 C 47.460234 107.93945 48.189687 107.85945 48.929688 107.68945 C 53.139688 106.76945 56.140078 103.39938 56.580078 99.109375 C 57.190078 93.149375 59.03 75 64 75 C 68.97 75 70.809922 93.149141 71.419922 99.119141 C 71.849922 103.39914 74.860313 106.76922 79.070312 107.69922 C 83.280312 108.62922 87.409609 106.83086 89.599609 103.13086 C 96.049609 92.220859 100.93023 77.839687 102.99023 63.679688 C 105.19023 48.519688 103.88078 35.750703 99.300781 27.720703 C 95.670781 21.360703 90.04 18 83 18 C 79.12 18 75.669844 19.039062 72.339844 20.039062 C 69.429844 20.909062 66.69 21.740234 64 21.740234 C 61.31 21.740234 58.570156 20.909063 55.660156 20.039062 C 52.330156 19.039062 48.88 18 45 18 z M 45 24 C 48 24 50.879453 24.869063 53.939453 25.789062 C 57.129453 26.749063 60.43 27.740234 64 27.740234 C 67.57 27.740234 70.870547 26.749063 74.060547 25.789062 C 77.120547 24.869062 80 24 83 24 C 87.89 24 91.519844 26.189453 94.089844 30.689453 C 102.00984 44.569453 97.319453 78.280312 84.439453 100.07031 C 83.139453 102.26031 80.989375 101.97984 80.359375 101.83984 C 79.059375 101.54984 77.600625 100.52977 77.390625 98.509766 C 76.200625 86.759766 74.39 69 64 69 C 53.61 69 51.799375 86.759766 50.609375 98.509766 C 50.409375 100.52977 48.940625 101.54984 47.640625 101.83984 C 47.010625 101.97984 44.850547 102.26031 43.560547 100.07031 C 30.680547 78.280313 25.990156 44.569453 33.910156 30.689453 C 36.480156 26.189453 40.11 24 45 24 z M 12.316406 62.542969 C 12.117422 62.531562 11.915938 62.540312 11.710938 62.570312 C 10.070937 62.810313 8.9299219 64.330703 9.1699219 65.970703 C 11.519922 82.120703 17.149141 98.629766 24.619141 111.25977 C 29.309141 119.19977 37.589766 123.92969 46.759766 123.92969 L 81.220703 123.92969 C 90.390703 123.92969 98.669375 119.18977 103.35938 111.25977 C 110.82938 98.619766 116.46055 82.120703 118.81055 65.970703 C 119.05055 64.330703 117.90953 62.810313 116.26953 62.570312 C 114.62953 62.330312 113.10914 63.469375 112.86914 65.109375 C 110.62914 80.519375 105.27922 96.220938 98.199219 108.21094 C 94.599219 114.30094 88.250703 117.92969 81.220703 117.92969 L 46.75 117.92969 C 39.72 117.92969 33.379297 114.30094 29.779297 108.21094 C 22.699297 96.220938 17.349375 80.509375 15.109375 65.109375 C 14.899375 63.674375 13.709297 62.622812 12.316406 62.542969 z"/></svg>