<svg xmlns="http://www.w3.org/2000/svg"  viewBox="0 0 128 128" width="64px" height="64px"><path d="M75.7 96.69c-1.26 0-2.54-.25-3.78-.77-3.9-1.62-6.21-5.4-5.9-9.61.5-6.74 1.83-24.63-3.09-25.5C57.67 59.88 52.8 77.5 51.2 83.29c-1.13 4.1-4.62 6.88-8.87 7.07-4.25.2-7.96-2.25-9.46-6.23-4.47-11.86-6.78-26.87-6.36-41.19.45-15.32 3.96-27.68 9.87-34.8 4.68-5.64 10.81-7.97 17.75-6.75 3.82.67 7.04 2.29 10.15 3.86 2.71 1.37 5.27 2.65 7.91 3.12 2.65.47 5.49.13 8.5-.23 3.46-.41 7.04-.83 10.86-.16 6.96 1.23 11.93 5.54 14.39 12.48 6.68 18.84-6.63 54.01-22.99 72.87C81.05 95.52 78.42 96.69 75.7 96.69zM63.98 54.91c10.26 1.81 8.92 19.89 8.03 31.85-.18 2.43 1.66 3.39 2.22 3.62 1.18.49 2.9.49 4.19-.99 16.64-19.17 27.27-51.7 21.87-66.93-1.74-4.92-4.94-7.72-9.78-8.58-2.95-.52-5.94-.17-9.11.21-3.31.39-6.73.8-10.25.18-3.52-.62-6.59-2.17-9.57-3.67-2.85-1.44-5.54-2.79-8.49-3.31-4.82-.85-8.77.68-12.09 4.67-10.22 12.31-11.44 46.36-2.51 70.05.86 2.29 2.96 2.38 3.57 2.35.62-.03 2.71-.31 3.36-2.68C49.24 67.82 54.16 53.18 63.98 54.91zM64 126.87c-17.09 0-34.19-2.33-50.81-6.98-1.6-.45-2.53-2.1-2.08-3.7.45-1.6 2.1-2.53 3.7-2.08 32.18 9.01 66.2 9.01 98.38 0 1.6-.45 3.25.48 3.7 2.08.45 1.6-.48 3.25-2.08 3.7C98.19 124.54 81.09 126.87 64 126.87zM124.13 91c-10.49 0-17-6.51-17-17 0-1.66 1.34-3 3-3s3 1.34 3 3c0 7.2 3.8 11 11 11 1.66 0 3 1.34 3 3S125.79 91 124.13 91zM4.13 91c-1.66 0-3-1.34-3-3s1.34-3 3-3c7.2 0 11-3.8 11-11 0-1.66 1.34-3 3-3s3 1.34 3 3C21.13 84.49 14.62 91 4.13 91z"/></svg>