<?xml version="1.0" encoding="utf-8"?><!-- Generator: Adobe Illustrator 15.0.0, SVG Export Plug-In . SVG Version: 6.00 Build 0)  --><!DOCTYPE svg PUBLIC "-//W3C//DTD SVG 1.1//EN" "http://www.w3.org/Graphics/SVG/1.1/DTD/svg11.dtd"><svg xmlns="http://www.w3.org/2000/svg" xmlns:xlink="http://www.w3.org/1999/xlink" viewBox="0 0 50 50" width="500px" height="500px"><path d="M12.067,37.943c-1.471,0.472-3.053,0.727-4.744,0.727c-2.158,0-4.073-0.39-5.41-0.759c-1.559,5.008-0.101,9.372-0.026,9.588c0.107,0.309,0.359,0.546,0.673,0.635c0.088,0.024,2.191,0.609,4.887,0.609c0,0,0,0,0.001,0c1.667,0,3.176-0.227,4.528-0.659C11.243,45.786,10.555,41.955,12.067,37.943z"/><path d="M10.812,25.74c-2.702-0.542-4.691-1.747-5.896-2.675c-5.152,4.663-4.79,11.188-4.769,11.502c0.025,0.377,0.261,0.708,0.609,0.854c0.121,0.052,3,1.249,6.568,1.249c0.895,0,1.746-0.093,2.568-0.242C9.542,34.35,9.175,30.078,10.812,25.74z"/><path d="M17.172,40.35c-1.543,0-2.824-0.145-3.682-0.276c-1.159,4.831,1.015,9.039,1.127,9.252c0.141,0.265,0.395,0.453,0.689,0.512c0.061,0.012,0.621,0.117,1.532,0.117c0,0,0,0,0,0c2.301,0,6.418-0.662,10.349-4.569c-0.948-1.162-2.335-3.296-2.922-6.246C21.756,40.083,19.213,40.35,17.172,40.35z"/><path d="M44.895,35.318c-0.255,0-0.5-0.097-0.687-0.272c-0.189-0.18-4.505-4.294-6.996-10.457c-0.97,0.199-2.011,0.299-3.107,0.299c-3.795,0-7.031-1.185-7.167-1.235c-0.273-0.101-0.488-0.316-0.59-0.589c-0.084-0.228-1.949-5.346-0.934-10.274c-6.162-2.49-10.278-6.807-10.458-6.998c-0.185-0.196-0.283-0.458-0.271-0.728c0.011-0.27,0.13-0.523,0.331-0.703c0.242-0.217,5.015-4.315,13.01-4.315c5.397,0,10.455,2.32,15.032,6.897c14.399,14.4,2.71,27.898,2.58,28.042c-0.18,0.2-0.434,0.32-0.702,0.331C44.922,35.318,44.908,35.318,44.895,35.318z"/><path d="M23.207,14.008c-4.605-2.157-7.943-5.126-9.181-6.319C6.845,11.21,4.923,19.271,4.84,19.642c-0.072,0.318,0.015,0.651,0.234,0.893c0.129,0.143,3.229,3.491,8.642,3.491c0,0,0,0,0.001,0c1.514,0,3.076-0.268,4.642-0.795c1.032-0.348,3.422-1.411,5.276-2.484C23.255,18.944,22.946,16.533,23.207,14.008z"/><path d="M35.992,26.795c-0.613,0.063-1.244,0.094-1.888,0.094c-1.667,0-3.222-0.206-4.507-0.458c-1.436,1.997-2.449,4.091-2.826,5.21c-2.769,8.211,2.472,13.081,2.696,13.284c0.186,0.168,0.425,0.259,0.671,0.259c0.064,0,0.129-0.006,0.192-0.019c0.349-0.068,8.086-1.668,12.264-8.9C41.632,35.309,38.35,31.839,35.992,26.795z"/><path d="M27.512,25.934c-0.691-0.197-1.146-0.358-1.27-0.404c-0.821-0.305-1.466-0.95-1.77-1.771c-0.047-0.128-0.173-0.482-0.33-1.004c-1.939,1.075-4.15,2.037-5.145,2.372c-1.772,0.597-3.549,0.899-5.281,0.899c-0.298,0-0.584-0.016-0.871-0.032c-2.253,5.409-0.834,10.927-0.757,11.213c0.095,0.356,0.379,0.631,0.739,0.715c0.075,0.018,1.867,0.429,4.345,0.429c0,0,0,0,0.001,0c1.964,0,4.441-0.266,6.824-1.253c-0.098-1.806,0.119-3.84,0.879-6.094C25.264,29.849,26.192,27.898,27.512,25.934z"/><path d="M44.473,5.53c0.413,0.413,0.794,0.826,1.166,1.238c1.482-1.369,3.27-3.287,4.192-5.281c0.232-0.501,0.014-1.096-0.487-1.328c-0.501-0.234-1.096-0.014-1.327,0.488c-0.793,1.712-2.411,3.431-3.762,4.673C44.327,5.392,44.4,5.458,44.473,5.53z"/></svg>