<?xml version="1.0" encoding="iso-8859-1"?>
<!-- Generator: Adobe Illustrator 25.2.3, SVG Export Plug-In . SVG Version: 6.00 Build 0)  -->
<svg version="1.1" baseProfile="basic" id="fluent" xmlns="http://www.w3.org/2000/svg" xmlns:xlink="http://www.w3.org/1999/xlink"
	 x="0px" y="0px" viewBox="0 0 50 50" xml:space="preserve">
<path d="M45,7v36c0,2.757-2.243,5-5,5H12c-2.757,0-5-2.243-5-5V7c0-2.757,2.243-5,5-5h28C42.757,2,45,4.243,45,7z M26,14
	c-6.075,0-11,4.925-11,11s4.925,11,11,11s11-4.925,11-11S32.075,14,26,14z"/>
<path d="M31,23h-3v-3c0-0.552-0.448-1-1-1h-2c-0.552,0-1,0.448-1,1v3h-3c-0.552,0-1,0.448-1,1v2c0,0.552,0.448,1,1,1h3v3
	c0,0.552,0.448,1,1,1h2c0.552,0,1-0.448,1-1v-3h3c0.552,0,1-0.448,1-1v-2C32,23.448,31.552,23,31,23z"/>
<path d="M8,18H6.5C5.673,18,5,17.327,5,16.5v-4C5,11.673,5.673,11,6.5,11H8V18z"/>
<path d="M8,39H6.5C5.673,39,5,38.327,5,37.5v-4C5,32.673,5.673,32,6.5,32H8V39z"/>
</svg>