<?xml version="1.0" encoding="utf-8"?><!-- Generator: Adobe Illustrator 16.0.0, SVG Export Plug-In . SVG Version: 6.00 Build 0)  --><!DOCTYPE svg PUBLIC "-//W3C//DTD SVG 1.1//EN" "http://www.w3.org/Graphics/SVG/1.1/DTD/svg11.dtd"><svg xmlns="http://www.w3.org/2000/svg" xmlns:xlink="http://www.w3.org/1999/xlink" viewBox="0 0 50 50" width="50px" height="50px"><rect x="23" y="25" width="4" height="12"/><rect x="19" y="29" width="12" height="4"/><path fill="none" stroke="#000000" stroke-width="2" stroke-linecap="round" stroke-miterlimit="10" d="M47,12H3c-1.104,0-2,0.896-2,2v28c0,1.104,0.896,2,2,2h44c1.104,0,2-0.896,2-2V14C49,12.896,48.104,12,47,12z"/><path fill="none" stroke="#000000" stroke-width="2" stroke-linecap="round" stroke-miterlimit="10" d="M33,11V8c0-1.104-0.896-2-2-2H19c-1.104,0-2,0.896-2,2v3"/><line fill="none" stroke="#000000" stroke-width="2" stroke-linecap="round" stroke-miterlimit="10" x1="1" y1="20" x2="7" y2="20"/><line fill="none" stroke="#000000" stroke-width="2" stroke-linecap="round" stroke-miterlimit="10" x1="13" y1="20" x2="37" y2="20"/><line fill="none" stroke="#000000" stroke-width="2" stroke-linecap="round" stroke-miterlimit="10" x1="43" y1="20" x2="49" y2="20"/><path fill="none" stroke="#000000" stroke-width="2" stroke-linecap="round" stroke-miterlimit="10" d="M13,21c0,0.552-0.447,1-1,1H8c-0.553,0-1-0.448-1-1v-2c0-0.552,0.447-1,1-1h4c0.553,0,1,0.448,1,1V21z"/><path fill="none" stroke="#000000" stroke-width="2" stroke-linecap="round" stroke-miterlimit="10" d="M43,21c0,0.552-0.447,1-1,1h-4c-0.553,0-1-0.448-1-1v-2c0-0.552,0.447-1,1-1h4c0.553,0,1,0.448,1,1V21z"/></svg>