<svg xmlns="http://www.w3.org/2000/svg"  viewBox="0 0 128 128" width="64px" height="64px"><path d="M124 81h-9.2c-.6 0-1.2.2-1.7.5-.2.1-.3.2-.5.4l-5.5 5.5c-1.2 1.2-1.2 3.1 0 4.2.6.6 1.4.9 2.1.9s1.5-.3 2.1-.9L116 87h8c1.7 0 3-1.3 3-3S125.7 81 124 81zM36.2 106c2.1 2.1 4.8 3.2 7.8 3.2 1.1 0 2.3-.2 3.3-.5.4 2.1 1.4 4.1 3 5.7 3.4 3.4 8.6 4.1 12.7 2.1.5 1.8 1.4 3.6 2.9 5 2.1 2.1 5 3.2 7.8 3.2 2.8 0 5.6-1.1 7.8-3.2l10.1-10.1c1.2-1.2 1.2-3.1 0-4.2-1.2-1.2-3.1-1.2-4.2 0l-10.1 10.1c-1.9 1.9-5.1 1.9-7.1 0-1.9-1.9-1.9-5.1 0-7.1l8.5-8.5c1.2-1.2 1.2-3.1 0-4.2-1.2-1.2-3.1-1.2-4.2 0l-12.7 12.7c-1 1-2.2 1.5-3.6 1.5-1.4 0-2.6-.5-3.6-1.5-.9-.9-1.4-2.2-1.4-3.5 0-1.3.5-2.6 1.5-3.5 0 0 0 0 0 0l9.9-9.9c1.2-1.2 1.2-3.1 0-4.2-1.2-1.2-3.1-1.2-4.2 0L50.3 99l-2.8 2.8c-1.9 1.9-5.1 2-7.1 0-1.9-2-1.9-5.1 0-7.1l2.1-2.1.7-.7 11.3-11.3c1.2-1.2 1.2-3.1 0-4.2-1.2-1.2-3.1-1.2-4.2 0L39 87.6c-.9.9-2.2 1.5-3.5 1.5 0 0 0 0 0 0-1.3 0-2.6-.5-3.6-1.5-1.9-1.9-1.9-5.1 0-7l14.4-14.4c1.2-1.2 1.2-3.1 0-4.2-1.2-1.2-3.1-1.2-4.2 0L27.7 76.3c-4.3 4.3-4.3 11.2 0 15.5 1.6 1.6 3.7 2.7 5.8 3.1C32.3 98.7 33.2 103 36.2 106zM83.2 56.5c-1.3 0-2.6-.5-3.6-1.4L68.9 44.8c-1.2-1.1-3.1-1.1-4.2.1-1.1 1.2-1.1 3.1.1 4.2l10.7 10.3c2.1 2 4.8 3.1 7.6 3.1.1 0 .2 0 .2 0 2.9-.1 5.7-1.3 7.7-3.4 4.2-4.4 4.1-11.4-.3-15.6L78.6 31.9c-7.6-7.3-19.5-7.8-27.7-1.2-1.3 1-1.5 2.9-.5 4.2 1 1.3 2.9 1.5 4.2.5 5.8-4.7 14.4-4.3 19.8.9l12.2 11.7c2 1.9 2.1 5.1.1 7.1C85.8 55.9 84.6 56.5 83.2 56.5zM124 41h-21.3c-1.7 0-3 1.3-3 3s1.3 3 3 3H124c1.7 0 3-1.3 3-3S125.7 41 124 41zM24.4 41.2H4c-1.7 0-3 1.3-3 3s1.3 3 3 3h20.4c1.7 0 3-1.3 3-3S26.1 41.2 24.4 41.2zM4 87h10c1.7 0 3-1.3 3-3s-1.3-3-3-3H4c-1.7 0-3 1.3-3 3S2.3 87 4 87zM124 127c.8 0 1.5-.3 2.1-.9 1.2-1.2 1.2-3.1 0-4.2l-110-110c-1.2-1.2-3.1-1.2-4.2 0-1.2 1.2-1.2 3.1 0 4.2l110 110C122.4 126.7 123.2 127 124 127z"/></svg>