<svg xmlns="http://www.w3.org/2000/svg"  viewBox="0 0 128 128" width="64px" height="64px"><path d="M127 14c0-7.17-5.83-13-13-13H99c-1.66 0-3 1.34-3 3s1.34 3 3 3h15c3.86 0 7 3.14 7 7v15c0 1.66 1.34 3 3 3s3-1.34 3-3V14zM4 32c1.66 0 3-1.34 3-3V14c0-3.86 3.14-7 7-7h15c1.66 0 3-1.34 3-3s-1.34-3-3-3H14C6.83 1 1 6.83 1 14v15C1 30.66 2.34 32 4 32zM14 127h15c1.66 0 3-1.34 3-3s-1.34-3-3-3H14c-3.86 0-7-3.14-7-7V99c0-1.66-1.34-3-3-3s-3 1.34-3 3v15C1 121.17 6.83 127 14 127zM127 114V99c0-1.66-1.34-3-3-3s-3 1.34-3 3v15c0 3.86-3.14 7-7 7H99c-1.66 0-3 1.34-3 3s1.34 3 3 3h15C121.17 127 127 121.17 127 114zM46.74 109.94c-3.4 0-6.54-1.76-8.34-4.81-6.45-10.91-11.33-25.28-13.39-39.45-2.2-15.15-.89-27.92 3.69-35.96C32.33 23.36 37.96 20 45 20c3.88 0 7.33 1.04 10.66 2.04 2.91.87 5.65 1.7 8.34 1.7s5.43-.83 8.34-1.7C75.67 21.04 79.12 20 83 20c7.04 0 12.67 3.36 16.3 9.72 4.58 8.03 5.89 20.8 3.69 35.96-2.06 14.16-6.94 28.54-13.39 39.45-2.19 3.7-6.32 5.5-10.53 4.57-4.21-.93-7.22-4.3-7.65-8.58C70.81 95.15 68.97 77 64 77s-6.81 18.15-7.42 24.11c-.44 4.29-3.44 7.66-7.65 8.58C48.19 109.86 47.46 109.94 46.74 109.94zM45 26c-4.89 0-8.52 2.19-11.09 6.69-7.92 13.88-3.23 47.59 9.65 69.38 1.29 2.19 3.45 1.91 4.08 1.77 1.3-.29 2.77-1.31 2.97-3.33C51.8 88.76 53.61 71 64 71s12.2 17.76 13.39 29.51c.21 2.02 1.67 3.04 2.97 3.33.63.14 2.78.42 4.08-1.77 12.88-21.79 17.57-55.5 9.65-69.38C91.52 28.19 87.89 26 83 26c-3 0-5.88.87-8.94 1.79-3.19.96-6.49 1.95-10.06 1.95s-6.87-.99-10.06-1.95C50.88 26.87 48 26 45 26z"/></svg>