<svg xmlns="http://www.w3.org/2000/svg"  viewBox="0 0 128 128" width="64px" height="64px"><path d="M 54 1 C 48.08 1 43.060234 3.4295313 39.490234 8.0195312 C 30.600234 19.469531 32.089453 41.749063 36.439453 58.789062 C 36.849453 60.389063 38.489844 61.359219 40.089844 60.949219 C 41.689844 60.539219 42.66 58.900781 42.25 57.300781 C 37.22 37.620781 38.000469 19.719219 44.230469 11.699219 C 46.690469 8.5392188 49.89 7 54 7 C 57 7 59.879453 7.8690625 62.939453 8.7890625 C 66.129453 9.7490625 69.43 10.740234 73 10.740234 C 76.57 10.740234 79.870547 9.7490625 83.060547 8.7890625 C 86.120547 7.8690625 89 7 92 7 C 96.48 7 99.880156 8.8298437 102.41016 12.589844 C 109.66016 23.379844 108.15047 49.390547 98.980469 71.810547 C 98.350469 73.340547 99.089141 75.090703 100.61914 75.720703 C 100.98914 75.870703 101.37 75.939453 101.75 75.939453 C 102.93 75.939453 104.0493 75.240078 104.5293 74.080078 C 116.0593 45.900078 114.69062 20.13 107.39062 9.25 C 103.77062 3.85 98.45 1 92 1 C 88.12 1 84.669844 2.0390625 81.339844 3.0390625 C 78.429844 3.9090625 75.69 4.7402344 73 4.7402344 C 70.31 4.7402344 67.570156 3.9090625 64.660156 3.0390625 C 61.330156 2.0390625 57.88 1 54 1 z M 73 52 C 65.05 52 62.629844 62.699219 61.839844 66.199219 C 61.469844 67.819219 62.479609 69.419062 64.099609 69.789062 C 65.709609 70.159063 67.319453 69.149297 67.689453 67.529297 C 69.059453 61.479297 70.99 58 73 58 C 74.65 58 77.709219 60.299453 79.699219 75.689453 C 79.889219 77.209453 81.179922 78.310547 82.669922 78.310547 C 82.789922 78.310547 82.920547 78.299062 83.060547 78.289062 C 84.700547 78.079063 85.860391 76.569688 85.650391 74.929688 C 84.180391 63.589687 81.53 52 73 52 z M 35.664062 68.849609 C 28.374512 68.733691 21.119141 71.034375 15.119141 75.609375 C 13.799141 76.609375 13.550781 78.490547 14.550781 79.810547 C 15.560781 81.130547 17.439766 81.380859 18.759766 80.380859 C 26.619766 74.390859 37.099141 73.159688 46.119141 77.179688 L 72.009766 88.689453 C 72.909766 89.089453 73.659453 89.740313 74.189453 90.570312 C 75.089453 92.000313 75.219063 93.759062 74.539062 95.289062 C 74.329062 95.759062 74.060469 96.180547 73.730469 96.560547 C 72.270469 98.210547 69.949453 98.720313 67.939453 97.820312 L 47.939453 88.880859 L 45.490234 94.359375 L 65.490234 103.30078 C 66.950234 103.95078 68.48 104.26953 70 104.26953 C 73.08 104.26953 76.080703 102.9693 78.220703 100.5293 C 78.950703 99.699297 79.559766 98.760234 80.009766 97.740234 C 81.509766 94.360234 81.230234 90.479375 79.240234 87.359375 C 78.080234 85.529375 76.419453 84.100703 74.439453 83.220703 L 48.560547 71.699219 C 44.424297 69.857969 40.037793 68.91916 35.664062 68.849609 z M 115.2832 80.359375 C 113.84461 80.383125 112.38773 80.677031 110.99023 81.269531 L 90.490234 90 C 88.970234 90.65 88.260156 92.419453 88.910156 93.939453 C 89.550156 95.459453 91.319844 96.169531 92.839844 95.519531 L 113.33984 86.789062 C 115.97984 85.679062 119.03063 86.739922 120.14062 89.169922 C 120.71063 90.419922 120.74977 91.800313 120.25977 93.070312 C 119.76977 94.340312 118.81078 95.329375 117.55078 95.859375 L 61.199219 119.68945 C 56.669219 121.60945 51.540156 121.47008 47.160156 119.33008 L 19.339844 105.32031 C 18.349844 104.82031 17.16 104.91055 16.25 105.56055 L 2.25 115.56055 C 0.9 116.53055 0.59078125 118.4 1.5507812 119.75 C 2.5207812 121.1 4.3902344 121.40922 5.7402344 120.44922 L 18.269531 111.5 L 44.509766 124.71094 C 47.679766 126.26094 51.129844 127.03906 54.589844 127.03906 C 57.629844 127.03906 60.679297 126.43094 63.529297 125.21094 L 119.88086 101.38086 C 122.64086 100.21086 124.75961 98.030469 125.84961 95.230469 C 126.93961 92.430469 126.83984 89.390156 125.58984 86.660156 C 123.74484 82.647656 119.59898 80.288125 115.2832 80.359375 z"/></svg>