<?xml version="1.0" encoding="iso-8859-1"?><!-- Generator: Adobe Illustrator 22.1.0, SVG Export Plug-In . SVG Version: 6.00 Build 0)  --><svg xmlns="http://www.w3.org/2000/svg" xmlns:xlink="http://www.w3.org/1999/xlink" viewBox="0 0 50 50" width="500px" height="500px"><g><path d="M31,19h-9c-0.553,0-1,0.448-1,1v9c0,0.553,0.447,1,1,1h9c0.553,0,1-0.447,1-1v-9C32,19.448,31.553,19,31,19z M25,27c-0.552,0-1-0.448-1-1s0.448-1,1-1s1,0.448,1,1S25.552,27,25,27z M28,27c-0.552,0-1-0.448-1-1s0.448-1,1-1s1,0.448,1,1S28.552,27,28,27z M28,23h-3c-0.553,0-1-0.448-1-1s0.447-1,1-1h3c0.553,0,1,0.448,1,1S28.553,23,28,23z"/></g><g><path d="M35,5H19c-0.553,0-1-0.448-1-1s0.447-1,1-1h16c0.553,0,1,0.448,1,1S35.553,5,35,5z"/></g><g><path d="M35,11c-0.553,0-1-0.448-1-1V4c0-0.552,0.447-1,1-1s1,0.448,1,1v6C36,10.552,35.553,11,35,11z"/></g><g><path d="M27,21c-0.553,0-1-0.448-1-1V5c0-0.552,0.447-1,1-1s1,0.448,1,1v15C28,20.552,27.553,21,27,21z"/></g><g><path d="M27,38c-0.553,0-1-0.447-1-1v-8c0-0.553,0.447-1,1-1s1,0.447,1,1v8C28,37.553,27.553,38,27,38z"/></g><g><path d="M36.232,17h-2.464C32.791,17,32,16.209,32,15.232v-4.464C32,9.791,32.791,9,33.768,9h2.464C37.209,9,38,9.791,38,10.768v4.464C38,16.209,37.209,17,36.232,17z"/><path d="M36.232,18h-2.465C32.241,18,31,16.758,31,15.232v-4.465C31,9.242,32.241,8,33.768,8h2.465C37.759,8,39,9.242,39,10.768v4.465C39,16.758,37.759,18,36.232,18z M33.768,10C33.345,10,33,10.344,33,10.768v4.465C33,15.656,33.345,16,33.768,16h2.465C36.655,16,37,15.656,37,15.232v-4.465C37,10.344,36.655,10,36.232,10H33.768z"/></g><g><rect x="3" y="26" width="4" height="21"/></g><g><rect x="9" y="40" width="32" height="7"/></g><g><rect x="43" y="31" width="4" height="16"/></g><g><path d="M19.5,38h-8C10.119,38,9,36.881,9,35.5v0c0-1.381,1.119-2.5,2.5-2.5h8c1.381,0,2.5,1.119,2.5,2.5v0C22,36.881,20.881,38,19.5,38z"/></g></svg>