<?xml version="1.0" encoding="iso-8859-1"?>
<!-- Generator: Adobe Illustrator 25.2.3, SVG Export Plug-In . SVG Version: 6.00 Build 0)  -->
<svg version="1.1" baseProfile="basic" id="fluent" xmlns="http://www.w3.org/2000/svg" xmlns:xlink="http://www.w3.org/1999/xlink"
	 x="0px" y="0px" viewBox="0 0 50 50" xml:space="preserve">
<path d="M49.999,20.33c0,6.51-2.84,11.55-7.47,13.64l-0.99-1.76c3.99-1.73,6.46-6.14,6.46-11.88c0-8.72-3.14-13.33-9.07-13.33
	c-3.94,0-5.93,1.64-5.93,4.86c0,1.34,0.38,2.07,0.83,2.92c0.51,0.99,1.09,2.12,0.97,4.07c-0.03,0.55-0.52,0.97-1.06,0.93
	c-0.55-0.03-0.97-0.51-0.94-1.06c0.09-1.39-0.28-2.11-0.75-3.01c-0.49-0.95-1.05-2.02-1.05-3.85c0-2.06,0.77-6.86,7.93-6.86
	C43.059,5,49.999,6.99,49.999,20.33z"/>
<path d="M33.879,24.43c-0.47,1.34-0.88,2.5-0.88,3.96c0,0.27,0.03,1.16,0.43,2.09c-0.04,0.06-0.07,0.12-0.1,0.18l-1.03,1.84
	c-0.93-1.27-1.3-2.81-1.3-4.11c0-1.8,0.51-3.23,0.99-4.62c0.52-1.47,1.01-2.86,1.01-4.77c0-0.55,0.45-1,1-1s1,0.45,1,1
	C34.999,21.25,34.409,22.94,33.879,24.43z"/>
<path d="M37.999,19c0,0.55-0.45,1-1,1c-6.14,0-9,2.22-9,7v13.15l-2,3.56V27c0-4.11,1.91-9,11-9C37.549,18,37.999,18.45,37.999,19z"
	/>
<path style="fill:none;stroke:#000000;stroke-width:2;stroke-linecap:round;stroke-linejoin:round;stroke-miterlimit:10;" d="
	M41.153,24.903c-0.639-1.278-1.949-1.278-1.949-1.278C39.483,20.281,36.999,19,36.999,19s2.501-2.184,1.048-4.769"/>
<path style="fill:none;stroke:#000000;stroke-width:2;stroke-linecap:round;stroke-linejoin:round;stroke-miterlimit:10;" d="
	M37.319,24.903c0,0,0.639-0.639,1.917-1.278"/>
<path style="fill:none;stroke:#000000;stroke-width:2;stroke-linecap:round;stroke-miterlimit:10;" d="M36.999,19
	c0,0,1.417-0.486,4.611-1.764c0,0,0.389-1.236,0.389-2.236"/>
<path style="fill:none;stroke:#000000;stroke-width:2;stroke-linecap:round;stroke-miterlimit:10;" d="M41.61,17.236
	c0,0,1.01-0.236,2.389,0.764"/>
<path style="fill:none;stroke:#000000;stroke-width:2;stroke-linecap:round;stroke-linejoin:round;stroke-miterlimit:10;" d="
	M36.045,14.062c0,0,1.097,0.539,2.088,0.044c0.941-0.47,0.495-1.98,0.495-1.98"/>
<path style="fill:none;stroke:#000000;stroke-width:2;stroke-linecap:round;stroke-miterlimit:10;" d="M15.999,19c0,4,2,6,2,9.386
	c0,1.646-0.705,3.97-2.904,5.037"/>
<path style="fill:none;stroke:#000000;stroke-width:2;stroke-linecap:round;stroke-linejoin:round;stroke-miterlimit:10;" d="
	M22.999,48c0,0,0-14,0-21c0-6.886-5.528-8-10-8"/>
<path style="fill:none;stroke:#000000;stroke-width:2;stroke-linecap:round;stroke-linejoin:round;stroke-miterlimit:10;" d="
	M8.845,24.903c0.639-1.278,1.949-1.278,1.949-1.278C10.514,20.281,12.999,19,12.999,19s-2.501-2.184-1.048-4.769"/>
<path style="fill:none;stroke:#000000;stroke-width:2;stroke-linecap:round;stroke-linejoin:round;stroke-miterlimit:10;" d="
	M12.678,24.903c0,0-0.639-0.639-1.917-1.278"/>
<path style="fill:none;stroke:#000000;stroke-width:2;stroke-linecap:round;stroke-miterlimit:10;" d="M12.999,19
	c0,0-1.417-0.486-4.611-1.764c0,0-0.389-1.236-0.389-2.236"/>
<path style="fill:none;stroke:#000000;stroke-width:2;stroke-linecap:round;stroke-miterlimit:10;" d="M8.387,17.236
	c0,0-1.01-0.236-2.389,0.764"/>
<path style="fill:none;stroke:#000000;stroke-width:2;stroke-linecap:round;stroke-linejoin:round;stroke-miterlimit:10;" d="
	M13.953,14.062c0,0-1.097,0.539-2.088,0.044c-0.941-0.47-0.495-1.98-0.495-1.98"/>
<path d="M37.8,45c0.1,0,0.2,0.1,0.2,0.2v1.6c0,0.1-0.1,0.2-0.2,0.2h-1.6c-0.1,0-0.2-0.1-0.2-0.2v-1.6c0-0.1,0.1-0.2,0.2-0.2H37.8z"
	/>
<path d="M36.2,37c-0.1,0-0.2,0.1-0.2,0.2v5.6c0,0.1,0.1,0.2,0.2,0.2h1.6c0.1,0,0.2-0.1,0.2-0.2v-5.6c0-0.1-0.1-0.2-0.2-0.2H36.2z"/>
<path d="M47.9,47.6l-9-16C38.7,31.2,38.1,30,37,30s-1.7,1.2-1.9,1.6l-9,16C26,47.8,26,47.9,26,48.1c0,1.1,0.9,1.9,1.9,1.9h18.2
	c1,0,1.9-0.8,1.9-1.9C48,47.9,48,47.8,47.9,47.6z M28.2,48L37,32.221L45.8,48H28.2z"/>
<path style="fill:none;stroke:#000000;stroke-width:2;stroke-linecap:round;stroke-miterlimit:10;" d="M11.073,6
	c5.037,0,6.926,2.605,6.926,5.86s-2,4.14-2,7.14c0,5,2,6,2,9.386c0,2.2-1.259,5.614-5.667,5.614C6.036,34,0.999,28.791,0.999,20.326
	C0.999,9.907,5.406,6,11.073,6z"/>
</svg>