<?xml version="1.0" encoding="iso-8859-1"?>
<!-- Generator: Adobe Illustrator 23.0.6, SVG Export Plug-In . SVG Version: 6.00 Build 0)  -->
<svg version="1.1" id="Line" xmlns="http://www.w3.org/2000/svg" xmlns:xlink="http://www.w3.org/1999/xlink" x="0px" y="0px"
	 viewBox="0 0 50 50" style="enable-background:new 0 0 50 50;" xml:space="preserve">
<path style="fill:none;stroke:#000000;stroke-width:2;stroke-linejoin:round;stroke-miterlimit:10;" d="M25,44.667V33"/>
<circle style="fill:none;stroke:#000000;stroke-width:2;stroke-linecap:round;stroke-linejoin:round;stroke-miterlimit:10;" cx="25" cy="8" r="5"/>
<path style="fill:none;stroke:#000000;stroke-width:2;stroke-linejoin:round;stroke-miterlimit:10;" d="M20,29v15.5
	c0,1.381,1.119,2.5,2.5,2.5s2.5-1.119,2.5-2.5 M11,16H8c-1.105,0-2,0.895-2,2s0.895,2,2,2h12v3 M40,20h2c1.105,0,2-0.895,2-2
	s-0.895-2-2-2H17 M30,34V20h4 M25,44.5c0,1.381,1.119,2.5,2.5,2.5s2.5-1.119,2.5-2.5V40"/>
<circle cx="14" cy="16" r="1"/>
<circle cx="20" cy="26" r="1"/>
<circle cx="30" cy="37" r="1"/>
<circle cx="37" cy="20" r="1"/>
</svg>