<svg xmlns="http://www.w3.org/2000/svg"  viewBox="0 0 128 128" width="64px" height="64px"><path d="M 81.839844 12.794922 C 79.001785 12.811174 76.157656 13.318438 73.410156 14.320312 C 67.130156 16.600313 62.120781 21.19 59.300781 27.25 C 56.480781 33.3 56.180703 40.089141 58.470703 46.369141 L 77.619141 98.990234 C 81.309141 109.13023 90.920625 115.43945 101.14062 115.43945 C 103.97062 115.43945 106.84992 114.94969 109.66992 113.92969 C 122.61992 109.20969 129.31937 94.840859 124.60938 81.880859 L 105.46094 29.259766 C 103.18094 22.989766 98.579297 17.970391 92.529297 15.150391 C 89.126172 13.564141 85.488777 12.774026 81.839844 12.794922 z M 81.970703 18.800781 C 84.710703 18.800781 87.430234 19.399844 89.990234 20.589844 C 94.590234 22.729844 98.080547 26.540547 99.810547 31.310547 L 108.35938 54.800781 L 72.650391 67.800781 L 64.099609 44.310547 C 62.369609 39.540547 62.600234 34.379297 64.740234 29.779297 C 66.880234 25.179297 70.690938 21.690937 75.460938 19.960938 C 77.580938 19.190938 79.780703 18.800781 81.970703 18.800781 z M 110.42969 60.439453 L 118.98047 83.929688 C 122.55047 93.779687 117.45914 104.69906 107.61914 108.28906 C 97.779141 111.86906 86.849531 106.77969 83.269531 96.929688 L 74.720703 73.439453 L 110.42969 60.439453 z M 32 61 C 16.56 61 4 73.56 4 89 C 4 104.44 16.56 117 32 117 C 47.44 117 60 104.44 60 89 C 60 73.56 47.44 61 32 61 z M 32 67 C 44.13 67 54 76.87 54 89 C 54 101.13 44.13 111 32 111 C 19.87 111 10 101.13 10 89 C 10 76.87 19.87 67 32 67 z M 40.445312 77.195312 C 39.677813 77.209063 38.914844 77.514375 38.339844 78.109375 L 21.339844 95.710938 C 20.189844 96.900937 20.220156 98.799219 21.410156 99.949219 C 21.990156 100.50922 22.740234 100.78906 23.490234 100.78906 C 24.280234 100.78906 25.060391 100.47914 25.650391 99.869141 L 42.650391 82.269531 C 43.800391 81.079531 43.770078 79.179297 42.580078 78.029297 C 41.985078 77.459297 41.212812 77.181562 40.445312 77.195312 z"/></svg>