<svg xmlns="http://www.w3.org/2000/svg"  viewBox="0 0 128 128" width="64px" height="64px"><path d="M 64 1.7246094 C 62.625 1.7246094 61.25 2.0492187 60 2.6992188 L 15.5 24.900391 C 13 26.100391 11.399609 28.600391 11.099609 31.400391 C 8.0996094 69.100391 22.499609 93.3 35.099609 107 C 46.499609 119.4 59.199609 126 64.099609 126 C 67.499609 126 78.3 121.60039 89 110.90039 C 101.8 98.200391 117 74.299219 117 32.199219 C 117 29.099219 115.29961 26.300391 112.59961 24.900391 L 68 2.6992188 C 66.75 2.0492187 65.375 1.7246094 64 1.7246094 z M 64.011719 7.6992188 C 64.474219 7.6992188 64.950391 7.8 65.400391 8 L 110 30.199219 C 110.6 30.599219 111 31.399219 111 32.199219 C 111 68.599219 99 90.299609 89 102.09961 C 78 114.99961 66.2 119.8 64 120 C 62.2 120 50.799609 115.39961 39.099609 102.59961 C 27.499609 89.799609 14.199609 67.200391 17.099609 31.900391 C 17.199609 31.200391 17.599219 30.600781 18.199219 30.300781 L 62.699219 8 C 63.099219 7.8 63.549219 7.6992188 64.011719 7.6992188 z M 64 30 C 62.3 30 61 31.3 61 33 L 61 39.300781 C 58.3 39.800781 55.799609 40.800391 53.599609 42.400391 L 48.900391 37.699219 C 47.700391 36.499219 45.799219 36.499219 44.699219 37.699219 C 43.499219 38.899219 43.499219 40.800391 44.699219 41.900391 L 49.400391 46.599609 C 47.900391 48.799609 46.800781 51.3 46.300781 54 L 40 54 C 38.3 54 37 55.3 37 57 C 37 58.7 38.3 60 40 60 L 46.300781 60 C 46.800781 62.7 47.800391 65.200391 49.400391 67.400391 L 44.699219 72.099609 C 43.499219 73.299609 43.499219 75.200781 44.699219 76.300781 C 45.299219 76.900781 46.100781 77.199219 46.800781 77.199219 C 47.600781 77.199219 48.300391 76.900781 48.900391 76.300781 L 53.599609 71.599609 C 55.799609 73.099609 58.3 74.199219 61 74.699219 L 61 81 C 61 82.7 62.3 84 64 84 C 65.7 84 67 82.7 67 81 L 67 74.699219 C 69.7 74.199219 72.200391 73.199609 74.400391 71.599609 L 79.099609 76.300781 C 79.699609 76.900781 80.499219 77.199219 81.199219 77.199219 C 81.899219 77.199219 82.700781 76.900781 83.300781 76.300781 C 84.500781 75.100781 84.500781 73.199609 83.300781 72.099609 L 78.599609 67.400391 C 80.099609 65.200391 81.199219 62.7 81.699219 60 L 88 60 C 89.7 60 91 58.7 91 57 C 91 55.3 89.7 54 88 54 L 81.699219 54 C 81.199219 51.3 80.199609 48.799609 78.599609 46.599609 L 83.300781 41.900391 C 84.500781 40.700391 84.500781 38.799219 83.300781 37.699219 C 82.100781 36.499219 80.199609 36.499219 79.099609 37.699219 L 74.400391 42.400391 C 72.200391 40.900391 69.7 39.800781 67 39.300781 L 67 33 C 67 31.3 65.7 30 64 30 z M 64 45 C 70.6 45 76 50.4 76 57 C 76 63.6 70.6 69 64 69 C 57.4 69 52 63.6 52 57 C 52 50.4 57.4 45 64 45 z"/></svg>