<svg xmlns="http://www.w3.org/2000/svg"  viewBox="0 0 128 128" width="64px" height="64px"><path d="M101 50c-.77 0-1.54-.29-2.12-.88l-13-13c-1.17-1.17-1.17-3.07 0-4.24 1.17-1.17 3.07-1.17 4.24 0L101 42.76l20.88-20.88c1.17-1.17 3.07-1.17 4.24 0 1.17 1.17 1.17 3.07 0 4.24l-23 23C102.54 49.71 101.77 50 101 50zM81.26 126.94c-.72 0-1.45-.08-2.19-.24-4.21-.93-7.22-4.3-7.65-8.58C70.81 112.15 68.97 94 64 94s-6.81 18.15-7.42 24.11c-.44 4.29-3.44 7.66-7.65 8.58-4.2.92-8.34-.87-10.53-4.57-6.45-10.91-11.33-25.28-13.39-39.45-2.2-15.15-.89-27.92 3.69-35.96C32.33 40.36 37.96 37 45 37c3.88 0 7.33 1.04 10.66 2.04 2.9.87 5.65 1.7 8.34 1.7 2.2 0 4.46-.57 6.58-1.18 1.59-.46 3.25.46 3.71 2.05.46 1.59-.46 3.25-2.05 3.71-2.54.73-5.29 1.41-8.24 1.41-3.57 0-6.87-.99-10.06-1.95C50.88 43.87 48 43 45 43c-4.89 0-8.52 2.19-11.09 6.69-7.92 13.88-3.23 47.59 9.65 69.38 1.29 2.19 3.45 1.9 4.08 1.77 1.3-.29 2.77-1.31 2.97-3.33C51.8 105.76 53.6 88 64 88s12.2 17.76 13.39 29.51c.2 2.02 1.67 3.04 2.97 3.33.63.14 2.78.42 4.08-1.77 8.1-13.69 13.56-33.73 13.59-49.86 0-1.65 1.35-2.99 3-2.99 0 0 0 0 .01 0 1.66 0 3 1.35 2.99 3.01-.04 17.37-5.7 38.14-14.43 52.9C87.79 125.18 84.66 126.94 81.26 126.94z"/></svg>