<svg xmlns="http://www.w3.org/2000/svg"  viewBox="0 0 128 128" width="64px" height="64px"><path d="M61 4.2v119.6c0 1.6 1.2 3.1 2.9 3.2 1.7.1 3.1-1.3 3.1-3V4c0-1.7-1.4-3.1-3.2-3C62.2 1.1 61 2.5 61 4.2zM20 4A11 11 0 1020 26 11 11 0 1020 4zM1 43v24c0 4.6 3.1 8.5 7.5 9.7l1.5.4V114c0 5.5 4.5 10 10 10s10-4.5 10-10V77.1l1.5-.4c4.4-1.1 7.5-5.1 7.5-9.7V43c0-6.1-4.9-11-11-11H12C5.9 32 1 36.9 1 43zM108 4A11 11 0 10108 26 11 11 0 10108 4zM127 43c0-6.1-4.9-11-11-11h-16c-6.1 0-11 4.9-11 11v24c0 4.6 3.1 8.5 7.5 9.7l1.5.4V114c0 5.5 4.5 10 10 10s10-4.5 10-10V77.1l1.5-.4c4.4-1.1 7.5-5.1 7.5-9.7V43z"/></svg>