<?xml version="1.0" encoding="iso-8859-1"?><!-- Generator: Adobe Illustrator 22.1.0, SVG Export Plug-In . SVG Version: 6.00 Build 0)  --><svg xmlns="http://www.w3.org/2000/svg" xmlns:xlink="http://www.w3.org/1999/xlink" viewBox="0 0 50 50" width="500px" height="500px"><g></g><g></g><g></g><path d="M43.167,19.942C43.515,19.207,44,17.849,44,16c0-6.501-6.828-8.807-9.653-8.988c-0.877-0.607-2.417-1.335-3.652-1.709C30.279,5.177,30,4.796,30,4.354c0,0,0-1.173,0-1.354c0-0.552-0.448-1-1-1s-1,0.448-1,1c0,0.181,0,1,0,3s3,8,3,13c0,9-2,10-2,17c0,2.188,0,3.063,0,4c0,4-4,6-4,6s-4-2-4-6c0-0.938,0-1.813,0-4c0-7-2-8-2-17c0-5,3-11,3-13s0-2.819,0-3c0-0.552-0.448-1-1-1s-1,0.448-1,1c0,0.181,0,1.354,0,1.354c0,0.442-0.279,0.823-0.694,0.949c-1.235,0.374-2.775,1.102-3.652,1.709C12.828,7.193,6,9.499,6,16c0,1.849,0.485,3.207,0.833,3.942C6.195,20.979,5,23.405,5,27c0,0.302,0.134,0.573,0.345,0.756c0.03,0.026,4.02,3.026,4.117,3.087c0.343,0.219,0.8,0.215,1.144-0.049c0.223-0.17,0.43-0.375,0.625-0.601C10.583,27.581,10,24.699,10,22c0-0.553,0.447-1,1-1s1,0.447,1,1c0,3.384,1.025,7.225,1.849,10.311C14.467,34.626,15,36.626,15,38c0,1.569-0.484,2.894-0.953,4.175C13.532,43.58,13,45.033,13,47c0,0.553,0.447,1,1,1c0.241,0,21.759,0,22,0c0.553,0,1-0.447,1-1c0-1.967-0.532-3.42-1.047-4.825C35.484,40.894,35,39.569,35,38c0-1.374,0.533-3.374,1.151-5.689C36.975,29.225,38,25.384,38,22c0-0.553,0.447-1,1-1s1,0.447,1,1c0,2.699-0.583,5.581-1.232,8.194c0.195,0.226,0.402,0.431,0.625,0.601c0.344,0.264,0.802,0.267,1.144,0.049c0.097-0.062,4.087-3.061,4.117-3.087C44.866,27.573,45,27.302,45,27C45,23.405,43.805,20.979,43.167,19.942z"/></svg>