<svg xmlns="http://www.w3.org/2000/svg"  viewBox="0 0 128 128" width="64px" height="64px"><path d="M126.1 81.9c-1.2-1.2-3.1-1.2-4.2 0L104 99.8 86.1 81.9c-1.2-1.2-3.1-1.2-4.2 0-1.2 1.2-1.2 3.1 0 4.2L99.8 104l-17.9 17.9c-1.2 1.2-1.2 3.1 0 4.2.6.6 1.4.9 2.1.9s1.5-.3 2.1-.9l17.9-17.9 17.9 17.9c.6.6 1.4.9 2.1.9s1.5-.3 2.1-.9c1.2-1.2 1.2-3.1 0-4.2L108.2 104l17.9-17.9C127.3 85 127.3 83 126.1 81.9zM64.2 73.4c16 0 31.1-6.2 42.4-17.6l14-14c.9-.9 1.5-2.2 1.5-3.5s-.5-2.6-1.5-3.5l-14-14C91.6 5.6 84.2 3.9 79.9 3.9c-2.9 0-5.5.9-8.5 2.2-2.4 1.1-4.7 2.1-7.5 2.1-2.8 0-5.1-1-7.5-2.1-2.6-1.1-5-2.2-8-2.2-6.6 0-15.3 5.5-26.6 16.8l-14 14c-.9.9-1.5 2.2-1.5 3.5s.5 2.6 1.5 3.5l14 14C33.2 67.2 48.2 73.4 64.2 73.4zM34 35h60c1.7 0 3 1.3 3 3s-1.3 3-3 3H34c-1.7 0-3-1.3-3-3S32.3 35 34 35z"/></svg>