<svg xmlns="http://www.w3.org/2000/svg"  viewBox="0 0 128 128" width="64px" height="64px"><path d="M 64 1 C 29.3 1 1 29.3 1 64 C 1 98.7 29.3 127 64 127 C 98.7 127 127 98.7 127 64 C 127 29.3 98.7 1 64 1 z M 64.333984 7.0078125 C 65.316992 7.0131104 66.307031 7.0433594 67.300781 7.0996094 C 96.000781 8.6996094 119.30039 31.999219 120.90039 60.699219 C 121.60039 73.599219 118.00039 85.699609 111.40039 95.599609 C 109.80039 92.299609 106.4 90.099609 102.5 90.099609 L 99.099609 90.099609 C 97.299609 90.099609 96.399219 92.3 97.699219 93.5 L 106.40039 102.19922 L 102.19922 106.40039 L 90.5 94.800781 C 85.8 90.100781 77.6 93.200391 77.5 99.900391 L 77.5 100 L 77.5 119.40039 C 72.1 120.70039 66.499219 121.30039 60.699219 120.90039 C 56.899219 120.70039 53.1 120.09961 49.5 119.09961 L 49.5 100 C 49.5 94.5 45 90 39.5 90 L 24.5 90 C 20.9 90 17.8 91.899219 16 94.699219 C 10.8 86.699219 7.5996094 77.300781 7.0996094 67.300781 C 6.1996094 51.400781 11.899219 36.700391 21.699219 25.900391 L 83 87.300781 C 83.6 87.900781 84.299609 88.199219 85.099609 88.199219 C 87.799609 88.199219 89.099219 84.999609 87.199219 83.099609 L 81.400391 77.300781 L 81.400391 53 C 81.400391 47.5 76.900391 43 71.400391 43 L 56.400391 43 C 53.800391 43 51.499219 43.999609 49.699219 45.599609 L 25.900391 21.699219 C 36.119141 12.511719 49.588867 6.9283447 64.333984 7.0078125 z M 64 15 A 10 10 0 0 0 64 35 A 10 10 0 0 0 64 15 z M 32 62 A 10 10 0 0 0 32 82 A 10 10 0 0 0 32 62 z M 95 62 A 10 10 0 0 0 95 82 A 10 10 0 0 0 95 62 z"/></svg>