<?xml version="1.0" encoding="iso-8859-1"?><!-- Generator: Adobe Illustrator 21.1.0, SVG Export Plug-In . SVG Version: 6.00 Build 0)  --><svg xmlns="http://www.w3.org/2000/svg" xmlns:xlink="http://www.w3.org/1999/xlink" viewBox="0 0 50 50" width="50px" height="50px"><path style="fill:none;stroke:#000000;stroke-width:2;stroke-linecap:round;stroke-linejoin:round;stroke-miterlimit:10;" d="M6,4h38c1.1,0,2,0.9,2,2v38c0,1.1-0.9,2-2,2H6c-1.1,0-2-0.9-2-2V6C4,4.9,4.9,4,6,4z"/><path style="fill:none;stroke:#000000;stroke-width:2;stroke-linecap:round;stroke-linejoin:round;stroke-miterlimit:10;" d="M4,39c0,0,6,0,7,0s2-9.2,2-12c0,2.8,1,12,2,12s3.1,0,4,0s2-22.1,2-30c0,8,1.1,30,2,30s5,0,6,0s2-14.2,2-20c0,5.9,1,20,2,20s3,0,4,0s2-2.9,2-6c0,3.2,1.1,6,2,6s5,0,5,0"/></svg>