<svg xmlns="http://www.w3.org/2000/svg"  viewBox="0 0 128 128" width="64px" height="64px"><path d="M 39 1 C 37.34 1 36 2.34 36 4 L 36 17.210938 C 24.61 17.700937 17.6 19.230078 13 23.830078 C 5.96 30.860078 5.97 43.829453 6 69.689453 L 6 74.480469 L 6 78.820312 C 5.98 102.01031 5.9698438 113.64953 12.589844 120.26953 C 19.399844 127.07953 32.05 127.04977 57.25 127.00977 C 59.4 127.00977 61.65 127 64 127 C 66.35 127 68.6 126.99977 70.75 127.00977 C 72.68 127.00977 74.530313 127.01953 76.320312 127.01953 C 97.850313 127.01953 109.12016 126.55953 115.41016 120.26953 C 122.03016 113.64953 122.02 102.01031 122 78.820312 L 122 74.480469 L 122 69.689453 C 122.02 43.829453 122.03023 30.860078 114.99023 23.830078 C 110.39023 19.240078 103.39023 17.710938 91.990234 17.210938 L 91.990234 4 C 91.990234 2.34 90.650234 1 88.990234 1 C 87.330234 1 85.990234 2.34 85.990234 4 L 85.990234 17.039062 C 81.600234 16.969062 76.679141 16.980234 71.119141 16.990234 C 68.859141 17.000234 66.49 17 64 17 C 61.51 17 59.139141 17.000234 56.869141 16.990234 C 51.309141 16.980234 46.38 16.969063 42 17.039062 L 42 4 C 42 2.34 40.66 1 39 1 z M 48.990234 22.982422 C 51.461523 22.977695 54.081875 22.983984 56.859375 22.990234 C 59.129375 23.000234 61.51 23 64 23 C 66.49 23 68.870625 23.000234 71.140625 22.990234 C 93.350625 22.940234 105.59977 22.920313 110.75977 28.070312 C 112.70977 30.020312 113.94094 32.91 114.71094 37 L 13.289062 37 C 14.059062 32.91 15.290234 30.020312 17.240234 28.070312 C 21.755234 23.564063 31.691211 23.015508 48.990234 22.982422 z M 12.519531 43 L 115.4707 43 C 116.0107 49.59 116.01 58.299687 116 69.679688 L 116 74.470703 L 116 78.820312 C 116.02 99.670312 116.02992 111.15953 111.16992 116.01953 C 106.11992 121.06953 94.299766 121.04977 70.759766 121.00977 C 68.609766 120.99977 66.35 121 64 121 C 61.65 121 59.390234 120.99977 57.240234 121.00977 C 33.700234 121.04977 21.880078 121.06953 16.830078 116.01953 C 11.970078 111.15953 11.98 99.670313 12 78.820312 L 12 74.480469 L 12 69.689453 C 11.99 58.299453 11.979531 49.59 12.519531 43 z M 81 55 C 73.83 55 68 60.83 68 68 L 68 78 C 68 85.17 73.83 91 81 91 L 91 91 C 98.17 91 104 85.17 104 78 L 104 68 C 104 60.83 98.17 55 91 55 L 81 55 z M 81 61 L 91 61 C 94.86 61 98 64.14 98 68 L 98 78 C 98 81.86 94.86 85 91 85 L 81 85 C 77.14 85 74 81.86 74 78 L 74 68 C 74 64.14 77.14 61 81 61 z"/></svg>