<svg xmlns="http://www.w3.org/2000/svg"  viewBox="0 0 128 128" width="64px" height="64px"><path d="M 56 1 C 54.3 1 53 2.3 53 4 C 53 5.7 54.3 7 56 7 L 61 7 L 61 19.099609 C 50.8 19.799609 41.600391 23.799609 34.400391 30.099609 L 25.800781 21.5 L 29.300781 18 C 30.500781 16.8 30.500781 14.900781 29.300781 13.800781 C 28.100781 12.600781 26.199609 12.600781 25.099609 13.800781 L 19.400391 19.5 L 13.699219 25.199219 C 12.499219 26.399219 12.499219 28.300391 13.699219 29.400391 C 14.299219 30.000391 15.100781 30.300781 15.800781 30.300781 C 16.500781 30.300781 17.300391 30.000391 17.900391 29.400391 L 21.400391 25.900391 L 30 34.5 C 23.7 41.7 19.6 50.999609 19 61.099609 L 7 61.099609 L 7 56.099609 C 7 54.399609 5.7 53.099609 4 53.099609 C 2.3 53.099609 1 54.399609 1 56.099609 L 1 72.099609 C 1 73.799609 2.3 75.099609 4 75.099609 C 5.7 75.099609 7 73.799609 7 72.099609 L 7 67.099609 L 19.099609 67.099609 C 19.799609 77.199609 23.799609 86.500781 30.099609 93.800781 L 21.599609 102.30078 L 18 98.599609 C 16.8 97.399609 14.900781 97.399609 13.800781 98.599609 C 12.600781 99.799609 12.600781 101.70078 13.800781 102.80078 L 19.5 108.5 L 25.199219 114.19922 C 25.799219 114.79922 26.600781 115.09961 27.300781 115.09961 C 28.000781 115.09961 28.800391 114.79922 29.400391 114.19922 C 30.600391 112.99922 30.600391 111.1 29.400391 110 L 25.900391 106.5 L 34.400391 98 C 40.500391 103.3 48.000391 107 56.400391 108.5 L 56.900391 108.5 C 58.300391 108.5 59.600391 107.5 59.900391 106 C 60.100391 104.3 59.000391 102.70039 57.400391 102.40039 C 49.300391 101.00039 42.199219 97.200781 36.699219 91.800781 C 36.599219 91.700781 36.6 91.6 36.5 91.5 C 36.4 91.4 36.299219 91.400781 36.199219 91.300781 C 29.199219 84.300781 25 74.6 25 64 C 25 42.5 42.5 25 64 25 C 74.6 25 84.300391 29.199219 91.400391 36.199219 C 91.500391 36.299219 91.499609 36.4 91.599609 36.5 C 91.699609 36.6 91.800391 36.599219 91.900391 36.699219 C 97.300391 42.199219 101.1 49.300391 102.5 57.400391 C 102.8 59.000391 104.3 60.100391 106 59.900391 C 107.6 59.600391 108.7 58.100391 108.5 56.400391 C 107.1 48.000391 103.3 40.400391 98 34.400391 L 106.5 25.900391 L 110 29.400391 C 110.6 30.000391 111.39961 30.300781 112.09961 30.300781 C 112.79961 30.300781 113.59922 30.000391 114.19922 29.400391 C 115.39922 28.200391 115.39922 26.299219 114.19922 25.199219 L 108.5 19.5 L 102.80078 13.800781 C 101.60078 12.600781 99.699609 12.600781 98.599609 13.800781 C 97.399609 15.000781 97.399609 16.9 98.599609 18 L 102.09961 21.5 L 93.599609 30 C 86.399609 23.7 77.100391 19.7 66.900391 19 L 66.900391 7 L 71.900391 7 C 73.600391 7 74.900391 5.7 74.900391 4 C 74.900391 2.3 73.600391 1 71.900391 1 L 56 1 z M 64 34 C 58.5 34 54 38.5 54 44 C 54 49.5 58.5 54 64 54 C 69.5 54 74 49.5 74 44 C 74 38.5 69.5 34 64 34 z M 64 40 C 66.2 40 68 41.8 68 44 C 68 46.2 66.2 48 64 48 C 61.8 48 60 46.2 60 44 C 60 41.8 61.8 40 64 40 z M 44 54 C 38.5 54 34 58.5 34 64 C 34 69.5 38.5 74 44 74 C 49.5 74 54 69.5 54 64 C 54 58.5 49.5 54 44 54 z M 75 59 C 66.7 59 60 65.7 60 74 C 60 75.7 61.3 77 63 77 C 64.7 77 66 75.7 66 74 C 66 69 70 65 75 65 C 76.7 65 78 63.7 78 62 C 78 60.3 76.7 59 75 59 z M 44 60 C 46.2 60 48 61.8 48 64 C 48 66.2 46.2 68 44 68 C 41.8 68 40 66.2 40 64 C 40 61.8 41.8 60 44 60 z M 97 67 C 80.5 67 67 80.5 67 97 C 67 113.5 80.5 127 97 127 C 113.5 127 127 113.5 127 97 C 127 80.5 113.5 67 97 67 z M 97 73 C 110.2 73 121 83.8 121 97 C 121 110.2 110.2 121 97 121 C 83.8 121 73 110.2 73 97 C 73 83.8 83.8 73 97 73 z M 109 88 C 108.25 88 107.50039 88.300391 106.90039 88.900391 L 96 99.800781 L 91.099609 94.900391 C 89.899609 93.700391 88.000391 93.700391 86.900391 94.900391 C 85.700391 96.100391 85.700391 97.999609 86.900391 99.099609 L 93.900391 106.09961 C 94.500391 106.69961 95.3 107 96 107 C 96.7 107 97.499609 106.69961 98.099609 106.09961 L 111.09961 93.099609 C 112.29961 91.899609 112.29961 90.000391 111.09961 88.900391 C 110.49961 88.300391 109.75 88 109 88 z"/></svg>