<?xml version="1.0" encoding="iso-8859-1"?>
<!-- Generator: Adobe Illustrator 26.0.1, SVG Export Plug-In . SVG Version: 6.00 Build 0)  -->
<svg version="1.1" id="Layer_1" xmlns="http://www.w3.org/2000/svg" xmlns:xlink="http://www.w3.org/1999/xlink" x="0px" y="0px"
	 viewBox="0 0 50 50" style="enable-background:new 0 0 50 50;" xml:space="preserve">
<path d="M29.384,6.644c-0.36-0.058-0.701-0.087-1.038-0.111l0.95-4.318c0.11-0.5-0.175-1.002-0.66-1.164l-3-1
	c-0.18-0.06-0.375-0.068-0.559-0.021l-4,1c-0.263,0.065-0.486,0.234-0.622,0.468S20.283,2.01,20.356,2.27l1.297,4.629
	c-0.189,0-0.374,0.003-0.571-0.004c-2.736-0.099-5.011,0.288-6.578,1.125c-1.215,0.648-1.796,1.451-1.977,2.098
	c-1.214,0.596-1.789,0.195-1.845,0.151c-0.394-0.365-1.006-0.358-1.389,0.025c-0.391,0.391-0.391,1.023,0,1.414
	c0.347,0.347,1.054,0.735,2.036,0.735c0.526,0,1.134-0.122,1.804-0.411c0.038,0.035,0.066,0.073,0.107,0.106
	c1.174,0.958,3.586,1.205,5.995,0.62c0.73-0.178,1.769-0.36,2.908-0.522l0.079,2.322h-5.549c-0.828,0-1.5,0.671-1.5,1.5v1.89
	c-1.069,0.775-1.733,1.872-1.673,3.463c0.084,2.238,2.463,3.396,5.081,4.056l0.925,2.737c-1.605,0.512-2.89,1.37-3.005,2.893
	c-0.207,2.746,2.595,3.466,5.263,3.79l0.281,0.833c-0.875,0.482-1.53,1.184-1.546,2.275c-0.023,1.627,1.544,2.616,2.619,3.1
	l0.201,5.941c0.005,0.144,0.04,0.284,0.104,0.413l1,2C24.597,49.791,24.946,50,25.319,50c0.069,0,0.14-0.007,0.21-0.022
	c0.445-0.096,0.771-0.48,0.789-0.937l0.182-4.444c1.013-1.57,1.906-4.178,0.99-5.681c-0.164-0.271-0.351-0.511-0.551-0.725
	c0.22-0.167,0.391-0.395,0.493-0.664c2.115-0.251,3.809-0.916,4.062-2.569c0.111-0.724-0.06-1.372-0.506-1.925
	c-0.389-0.483-0.976-0.846-1.652-1.135l0.271-0.807c2.915-0.562,4.784-1.637,4.891-3.843c0.082-1.669-0.94-2.692-2.461-3.379
	l1.364-4.053c0.79-0.043,1.417-0.697,1.417-1.498v-0.301c1-1.062,1.645-2.44,1.603-4.109C36.358,11.432,34.432,7.454,29.384,6.644z
	 M18,10c-0.552,0-1-0.448-1-1c0-0.093,0.029-0.178,0.053-0.263l1.672-0.418C18.893,8.498,19,8.735,19,9C19,9.552,18.552,10,18,10z
	 M27.847,11.733c1.98,0.065,2.836,1.042,2.953,1.923c0.039,0.293-0.004,0.611-0.133,0.901h-2.936L27.847,11.733z M32.819,17.825
	c-0.757,0.064-1.04,0.562-1.219,1.06L25.677,36.5h-1.256l-5.919-17.604c-0.251-0.722-0.631-1.034-1.329-1.074v-1.266h5.424v1.262
	c-0.489,0.016-0.745,0.222-0.874,0.396c-0.134,0.18-0.262,0.5-0.105,1.019l2.958,8.799c0.068,0.204,0.259,0.341,0.474,0.341
	s0.405-0.137,0.474-0.341l2.935-8.729c0.207-0.534,0.089-0.883-0.048-1.082c-0.178-0.26-0.481-0.403-0.854-0.403h-0.158v-1.261
	h5.423V17.825z"/>
</svg>