<svg xmlns="http://www.w3.org/2000/svg"  viewBox="0 0 128 128" width="64px" height="64px"><path d="M 79 6 C 60.8 6 46 20.8 46 39 C 46 57.2 60.8 72 79 72 C 87.02 72 94.379609 69.119609 100.09961 64.349609 L 121.86914 86.119141 C 122.45914 86.709141 123.22023 87 123.99023 87 C 124.76023 87 125.52938 86.709141 126.10938 86.119141 C 127.28938 84.949141 127.28914 83.050859 126.11914 81.880859 L 104.34961 60.099609 C 109.11961 54.379609 112 47.02 112 39 C 112 20.8 97.2 6 79 6 z M 79 12 C 93.89 12 106 24.11 106 39 C 106 53.89 93.89 66 79 66 C 64.11 66 52 53.89 52 39 C 52 24.11 64.11 12 79 12 z M 68.580078 22.091797 C 67.186504 22.007441 65.87625 22.910547 65.5 24.310547 C 65.07 25.910547 66.019141 27.560234 67.619141 27.990234 C 74.979141 29.970234 80.98 34.729531 85 41.769531 C 86.74 44.819531 88.119375 48.319688 89.109375 52.179688 C 89.449375 53.529687 90.669766 54.429688 92.009766 54.429688 C 92.249766 54.429688 92.499766 54.400078 92.759766 54.330078 C 94.359766 53.920078 95.329922 52.279688 94.919922 50.679688 C 93.799922 46.309688 92.220938 42.309063 90.210938 38.789062 C 85.450938 30.449062 77.979687 24.559453 69.179688 22.189453 C 68.979687 22.135703 68.77916 22.103848 68.580078 22.091797 z M 22 37 C 14.96 37 9.3292188 40.360703 5.6992188 46.720703 C 1.1192188 54.760703 -0.19023438 67.529687 2.0097656 82.679688 C 4.0697656 96.839688 8.9503906 111.21914 15.400391 122.11914 C 17.590391 125.81914 21.719687 127.60945 25.929688 126.68945 C 30.139688 125.76945 33.140078 122.39938 33.580078 118.10938 C 34.190078 112.14938 36.03 94 41 94 C 45.97 94 47.809922 112.14914 48.419922 118.11914 C 48.849922 122.39914 51.860312 125.76922 56.070312 126.69922 C 56.810312 126.85922 57.539766 126.93945 58.259766 126.93945 C 61.659766 126.93945 64.789375 125.17914 66.609375 122.11914 C 71.979375 113.04914 76.299063 101.46977 78.789062 89.509766 C 79.119063 87.889766 78.080938 86.300938 76.460938 85.960938 C 74.840937 85.630938 73.250156 86.669062 72.910156 88.289062 C 70.550156 99.619062 66.479453 110.55031 61.439453 119.07031 C 60.139453 121.26031 57.989375 120.97984 57.359375 120.83984 C 56.059375 120.54984 54.590625 119.52977 54.390625 117.50977 C 53.200625 105.75977 51.4 88 41 88 C 30.6 88 28.799375 105.75977 27.609375 117.50977 C 27.409375 119.52977 25.940625 120.54984 24.640625 120.83984 C 24.010625 120.96984 21.850547 121.26031 20.560547 119.07031 C 7.6805469 97.280312 2.9901563 63.569453 10.910156 49.689453 C 13.480156 45.189453 17.11 43 22 43 C 24.28 43 26.520937 43.530469 28.210938 43.980469 C 29.800938 44.420469 31.450625 43.480859 31.890625 41.880859 C 32.330625 40.290859 31.389063 38.639219 29.789062 38.199219 C 27.739062 37.639219 25 37 22 37 z"/></svg>