<svg xmlns="http://www.w3.org/2000/svg"  viewBox="0 0 128 128" width="64px" height="64px"><path d="M 86.210938 1.1855469 C 84.215937 1.1855469 82.220391 1.6407812 80.400391 2.5507812 L 52.689453 16.410156 C 48.149453 18.680156 45.329766 23.409219 45.509766 28.449219 C 47.239766 77.599219 79.71 96 86.25 96 C 94.09 96 125.23922 75.049219 126.94922 28.449219 C 127.12922 23.399219 124.30977 18.670391 119.75977 16.400391 L 92.019531 2.5507812 C 90.199531 1.6407812 88.205938 1.1855469 86.210938 1.1855469 z M 86.210938 7.1796875 C 87.280937 7.1796875 88.359844 7.4299219 89.339844 7.9199219 L 117.08984 21.769531 C 119.53984 22.989531 121.06094 25.530469 120.96094 28.230469 C 119.29094 73.900469 89.400234 89.77 86.240234 90 C 83.060234 89.8 53.129766 74.230469 51.509766 28.230469 C 51.409766 25.520469 52.930859 22.979766 55.380859 21.759766 L 83.080078 7.9101562 C 84.060078 7.4201563 85.130938 7.1796875 86.210938 7.1796875 z M 103.21094 33.642578 C 102.44344 33.642578 101.67484 33.934531 101.08984 34.519531 L 82.410156 53.199219 L 75.460938 46.25 C 74.290937 45.08 72.390703 45.08 71.220703 46.25 C 70.050703 47.42 70.050703 49.320234 71.220703 50.490234 L 80.300781 59.570312 C 80.880781 60.160313 81.649922 60.449219 82.419922 60.449219 C 83.189922 60.449219 83.959297 60.160547 84.529297 59.560547 L 105.33008 38.759766 C 106.50008 37.589766 106.50008 35.689531 105.33008 34.519531 C 104.74508 33.934531 103.97844 33.642578 103.21094 33.642578 z M 22 37 C 14.96 37 9.3192187 40.360469 5.6992188 46.730469 C 1.1092187 54.770469 -0.19046875 67.550703 2.0195312 82.720703 C 4.0895313 96.900703 8.9796875 111.27969 15.429688 122.17969 C 17.599687 125.83969 21.680078 127.59992 25.830078 126.66992 C 29.990078 125.73992 32.939844 122.40016 33.339844 118.16016 C 34.869844 102.13016 37.44 94 41 94 C 45.99 94 47.790937 111.85031 48.460938 118.57031 C 48.880937 122.78031 51.819453 126.08977 55.939453 127.00977 C 56.679453 127.16977 57.410859 127.25 58.130859 127.25 C 61.470859 127.25 64.559609 125.53906 66.349609 122.53906 C 69.729609 116.90906 72.660078 110.39945 75.080078 103.18945 C 75.610078 101.61945 74.759453 99.920625 73.189453 99.390625 C 71.619453 98.860625 69.920625 99.709297 69.390625 101.2793 C 67.150625 107.9793 64.320938 114.26922 61.210938 119.44922 C 60.210938 121.12922 58.509766 121.43039 57.259766 121.15039 C 56.659766 121.02039 54.679453 120.3907 54.439453 117.9707 C 53.239453 106.0407 51.42 88 41 88 C 31.02 88 28.730859 103.27984 27.380859 117.58984 C 27.140859 120.03984 25.139297 120.67055 24.529297 120.81055 C 23.919297 120.95055 21.849609 121.22914 20.599609 119.11914 C 7.6996094 97.339141 2.9901563 63.599219 10.910156 49.699219 C 13.480156 45.189219 17.1 43 22 43 C 24.99 43 27.879688 43.869062 30.929688 44.789062 C 32.299688 45.209062 33.729922 45.630469 35.169922 45.980469 C 36.789922 46.370469 38.399062 45.369766 38.789062 43.759766 C 39.169063 42.139766 38.180312 40.530625 36.570312 40.140625 C 35.300313 39.830625 34.020156 39.449062 32.660156 39.039062 C 29.330156 38.039062 25.88 37 22 37 z"/></svg>