<?xml version="1.0" encoding="iso-8859-1"?><!-- Generator: Adobe Illustrator 22.0.1, SVG Export Plug-In . SVG Version: 6.00 Build 0)  --><svg xmlns="http://www.w3.org/2000/svg" xmlns:xlink="http://www.w3.org/1999/xlink" viewBox="0 0 50 50" width="500px" height="500px"><path d="M36.174,9.015L19.692,6.107l-1.813-1.814C17.691,4.105,17.438,4,17.172,4s-0.52,0.105-0.707,0.293l-1.121,1.121c-0.74,0.74-1.947,0.74-2.688,0l-1.035-1.035c-0.391-0.391-1.023-0.391-1.414,0L8.46,6.126L2.684,8.051C2.275,8.188,2,8.569,2,9v4c0,0.431,0.275,0.813,0.684,0.949l5.777,1.926l1.747,1.747c0.265,0.265,0.638,0.335,0.974,0.241l0.824,8.238C12.056,26.611,12.486,27,13,27h2c0.514,0,0.944-0.389,0.995-0.9l0.817-8.171C16.926,17.973,17.047,18,17.172,18c0.266,0,0.52-0.105,0.707-0.293l1.813-1.814l16.482-2.909C36.651,12.9,37,12.485,37,12v-2C37,9.515,36.651,9.1,36.174,9.015z M18.172,13.758l0.414,0.414l-1.414,1.415l-0.414-0.414c-0.761-0.76-1.759-1.14-2.758-1.14s-1.997,0.38-2.758,1.14L10.914,15.5L9.5,14.086l0.328-0.328c1.521-1.521,1.521-3.995,0-5.516L9.5,7.914L10.914,6.5l0.328,0.328c1.521,1.521,3.994,1.521,5.516,0l0.414-0.414l1.414,1.415l-0.414,0.414C16.651,9.763,16.651,12.237,18.172,13.758z"/><circle cx="14" cy="11" r="1"/><line style="fill:none;stroke:#000000;stroke-width:2;stroke-linejoin:round;stroke-miterlimit:10;" x1="14" y1="26" x2="14" y2="46"/><path style="fill:none;stroke:#000000;stroke-width:2;stroke-linecap:round;stroke-linejoin:round;stroke-miterlimit:10;" d="M36,11c0,0,1.832,0,4,0.951c3.146,1.38,7,4.762,7,13.049c0,9-6,17-13,17s-10-7-10-12s3-11,11-11c5,0,5,6,5,6c0,9-9,18-19,20"/></svg>