<?xml version="1.0" encoding="iso-8859-1"?><!-- Generator: Adobe Illustrator 21.0.2, SVG Export Plug-In . SVG Version: 6.00 Build 0)  --><svg xmlns="http://www.w3.org/2000/svg" xmlns:xlink="http://www.w3.org/1999/xlink" viewBox="0 0 50 50" width="500px" height="500px"><path style="fill:none;stroke:#000000;stroke-width:2;stroke-miterlimit:10;" d="M35,48V36c0-3.251-1.579-6.143-4-7.972"/><path style="fill:none;stroke:#000000;stroke-width:2;stroke-miterlimit:10;" d="M19,28.028c-2.421,1.829-4,4.722-4,7.972v12"/><path d="M28,20.685v2.34c1.207,0.914,2,2.348,2,3.974v13c0,1.103-0.897,2-2,2h-6c-1.103,0-2-0.897-2-2V27c0-1.627,0.793-3.061,2-3.974v-2.34c-2.361,1.126-4,3.53-4,6.315v13c0,2.206,1.794,4,4,4h6c2.206,0,4-1.794,4-4V27C32,24.215,30.361,21.811,28,20.685z"/><g><line style="fill:none;stroke:#000000;stroke-width:2;stroke-miterlimit:10;" x1="25" y1="27" x2="25" y2="16"/><polygon points="26,27 24.353,27 26.353,35 28,35 "/><polygon points="24,27 26,27 25.875,30 24.625,35 22,35 "/></g><path style="fill:none;stroke:#000000;stroke-width:2;stroke-miterlimit:10;" d="M29,16h-8V5c0-1.105,0.895-2,2-2h4c1.105,0,2,0.895,2,2V16z"/></svg>