<?xml version="1.0" encoding="iso-8859-1"?>
<!-- Generator: Adobe Illustrator 24.1.2, SVG Export Plug-In . SVG Version: 6.00 Build 0)  -->
<svg version="1.1" baseProfile="basic" id="&#x421;&#x43B;&#x43E;&#x439;_1"
	 xmlns="http://www.w3.org/2000/svg" xmlns:xlink="http://www.w3.org/1999/xlink" x="0px" y="0px" viewBox="0 0 48 48"
	 xml:space="preserve">
<path marker-end="none" marker-start="none" style="fill-rule:evenodd;clip-rule:evenodd;" d="M18.999,48l-0.001-17h1.507
	c0.275,0,0.5-0.227,0.5-0.507c0-0.267-0.225-0.493-0.5-0.493h-1.513c-0.551-0.013-0.991-0.467-0.991-1.027L17.999,25
	c-0.896-0.667-1.573-1.6-1.864-3h15.729c-0.292,1.4-0.969,2.333-1.863,3v3.973c0,0.56-0.443,1.013-0.993,1.027h-1.504
	c-0.276,0-0.5,0.227-0.5,0.493c0,0.28,0.224,0.507,0.5,0.507h1.499v17H18.999z M1,19.973V6.027C1,5.467,1.46,5,2.026,5h43.948
	C46.54,5,47,5.467,47,6.027v13.947C47,20.533,46.54,21,45.974,21H2.026C1.46,21,1,20.533,1,19.973z M5.002,19.507V18h38v1.507
	c0,0.28,0.224,0.507,0.5,0.507c0.275,0,0.5-0.227,0.5-0.507V6.493c0-0.28-0.225-0.507-0.5-0.507c-0.276,0-0.5,0.227-0.5,0.507V8h-38
	V6.493c0-0.28-0.225-0.507-0.5-0.507c-0.276,0-0.5,0.227-0.5,0.507v13.013c0,0.28,0.224,0.507,0.5,0.507
	C4.777,20.013,5.002,19.787,5.002,19.507z M5.002,16v-2h38v2H5.002z M5.002,12v-2h38v2H5.002z"/>
<path marker-end="none" marker-start="none" style="fill-rule:evenodd;clip-rule:evenodd;" d="M19.002,48c-2.204,0-8-0.227-8-0.493
	c0-0.28,5.796-0.507,8-0.507l0.576,0.48L19.002,48z"/>
<path marker-end="none" marker-start="none" style="fill-rule:evenodd;clip-rule:evenodd;" d="M29.002,48c2.204,0,8-0.227,8-0.507
	S31.206,47,29.002,47l-0.583,0.493L29.002,48z"/>
</svg>