<?xml version="1.0" encoding="iso-8859-1"?>
<!-- Generator: Adobe Illustrator 24.3.0, SVG Export Plug-In . SVG Version: 6.00 Build 0)  -->
<svg version="1.1" xmlns="http://www.w3.org/2000/svg" xmlns:xlink="http://www.w3.org/1999/xlink" x="0px" y="0px"
	 viewBox="0 0 48 48" style="enable-background:new 0 0 48 48;" xml:space="preserve">
<g id="&#x421;&#x43B;&#x43E;&#x439;_1">
</g>
<g id="&#x421;&#x43B;&#x43E;&#x439;_2">
</g>
<g id="&#x421;&#x43B;&#x43E;&#x439;_3">
</g>
<g id="&#x421;&#x43B;&#x43E;&#x439;_4">
</g>
<g id="&#x421;&#x43B;&#x43E;&#x439;_5">
</g>
<g id="&#x421;&#x43B;&#x43E;&#x439;_6">
	<path style="fill:none;stroke:#000000;stroke-width:3;stroke-linecap:round;stroke-linejoin:round;stroke-miterlimit:10;" d="
		M30.5,23.5h-13l-6-13c0,0,4-7,12.5-7s12.5,7,12.5,7L30.5,23.5z"/>
	
		<line style="fill:none;stroke:#000000;stroke-width:3;stroke-linecap:round;stroke-linejoin:round;stroke-miterlimit:10;" x1="19.5" y1="11.5" x2="21.5" y2="22.5"/>
	
		<line style="fill:none;stroke:#000000;stroke-width:3;stroke-linecap:round;stroke-linejoin:round;stroke-miterlimit:10;" x1="28.5" y1="11.5" x2="26.5" y2="22.5"/>
	<path style="fill:none;stroke:#000000;stroke-width:3;stroke-linecap:round;stroke-linejoin:round;stroke-miterlimit:10;" d="
		M17.452,24.318c-0.606,1.376-0.952,2.962-0.952,4.651c0,2.032,1.105,4.003,2.336,5.605c0.886,1.153,0.918,2.75,0.033,3.903
		c-0.789,1.028-1.675,2.303-2.194,3.44c-0.552,1.209,0.322,2.584,1.652,2.584l11.347,0c1.324,0,2.205-1.368,1.657-2.573
		l-2.165-3.067c-0.946-1.34-0.876-3.122,0.11-4.432c1.185-1.575,2.224-3.488,2.224-5.458c0-1.615-0.316-3.136-0.874-4.469"/>
</g>
</svg>