<?xml version="1.0" encoding="iso-8859-1"?>
<!-- Generator: Adobe Illustrator 24.0.2, SVG Export Plug-In . SVG Version: 6.00 Build 0)  -->
<svg version="1.1" id="&#x421;&#x43B;&#x43E;&#x439;_2"
	 xmlns="http://www.w3.org/2000/svg" xmlns:xlink="http://www.w3.org/1999/xlink" x="0px" y="0px" viewBox="0 0 80 80"
	 style="enable-background:new 0 0 80 80;" xml:space="preserve">
<path style="fill:none;stroke:#000000;stroke-width:2;stroke-miterlimit:10;" d="M18.115,25.75L54.25,61.885
	c1.276,1.276,3.345,1.276,4.62,0l13.173-13.173c1.276-1.276,1.276-3.345,0-4.62L35.909,7.957c-1.276-1.276-3.345-1.276-4.62,0
	L18.115,21.129C16.84,22.405,16.84,24.474,18.115,25.75z M51.763,59.276l17.743-17.743 M20.724,28.237l17.743-17.743"/>
<path style="fill:none;stroke:#000000;stroke-width:2;stroke-miterlimit:10;" d="M27.24,34.863c-0.05-0.001-0.346,0.262-0.631,0.546
	c-2.839,2.839-4.048,6.685-3.64,10.388l-3.121,3.121c-1.678,1.678-1.678,4.397,0,6.075l5.159,5.159c1.678,1.678,4.397,1.678,6.075,0
	l3.121-3.121c3.703,0.407,7.549-0.802,10.388-3.64c0.284-0.284,0.547-0.58,0.546-0.631L27.24,34.863z"/>
<path style="fill:none;stroke:#000000;stroke-width:2;stroke-linecap:round;stroke-miterlimit:10;" d="M18.216,70l8.747-8.747
	 M18.747,53.037L10,61.784"/>
<path style="fill:none;stroke:#000000;stroke-width:2;stroke-linecap:round;stroke-linejoin:round;stroke-miterlimit:10;" d="
	M36.867,17.507c-0.769-0.769-1.538-1.538-2.308-2.308"/>
<line style="fill:none;stroke:#000000;stroke-width:2;stroke-linecap:round;stroke-linejoin:round;stroke-miterlimit:10;stroke-dasharray:0,4;" x1="62.359" y1="43" x2="37.359" y2="18"/>
<line style="fill:none;stroke:#000000;stroke-width:2;stroke-linejoin:round;stroke-miterlimit:10;" x1="65.357" y1="45.997" x2="62.359" y2="43"/>
<path style="fill:none;stroke:#000000;stroke-width:2;stroke-linecap:round;stroke-linejoin:round;stroke-miterlimit:10;" d="
	M32.615,21.824c-0.663-0.656-1.326-1.311-1.989-1.967"/>
<line style="fill:none;stroke:#000000;stroke-width:2;stroke-linecap:round;stroke-linejoin:round;stroke-miterlimit:10;stroke-dasharray:0,4;" x1="58" y1="47.231" x2="33" y2="22.231"/>
<line style="fill:none;stroke:#000000;stroke-width:2;stroke-linejoin:round;stroke-miterlimit:10;" x1="61.061" y1="50.293" x2="58" y2="47.231"/>
<path style="fill:none;stroke:#000000;stroke-width:2;stroke-linecap:round;stroke-linejoin:round;stroke-miterlimit:10;" d="
	M28.44,26.263c-0.835-0.835-1.67-1.67-2.505-2.505"/>
<line style="fill:none;stroke:#000000;stroke-width:2;stroke-linecap:round;stroke-linejoin:round;stroke-miterlimit:10;stroke-dasharray:0,4;" x1="54" y1="51.822" x2="29" y2="26.822"/>
<line style="fill:none;stroke:#000000;stroke-width:2;stroke-linejoin:round;stroke-miterlimit:10;" x1="56.766" y1="54.588" x2="54" y2="51.822"/>
<path style="fill:none;stroke:#000000;stroke-width:2;stroke-linecap:round;stroke-linejoin:round;stroke-miterlimit:10;stroke-dasharray:0,4;" d="
	M23,46c3.667,3.667,7.333,7.333,11,11"/>
</svg>