<?xml version="1.0" encoding="iso-8859-1"?><!-- Generator: Adobe Illustrator 21.1.0, SVG Export Plug-In . SVG Version: 6.00 Build 0)  --><svg xmlns="http://www.w3.org/2000/svg" xmlns:xlink="http://www.w3.org/1999/xlink" viewBox="0 0 64 64" width="512px" height="512px"><g><path d="M30.165,25.803c-0.391-0.391-1.023-0.391-1.414,0s-0.391,1.023,0,1.414l1.414,1.414c0.195,0.195,0.451,0.293,0.707,0.293s0.512-0.098,0.707-0.293c0.391-0.391,0.391-1.023,0-1.414L30.165,25.803z"/><path d="M33.7,22.268c-0.391-0.391-1.023-0.391-1.414,0s-0.391,1.023,0,1.414l1.414,1.414c0.195,0.195,0.451,0.293,0.707,0.293s0.512-0.098,0.707-0.293c0.391-0.391,0.391-1.023,0-1.414L33.7,22.268z"/><path d="M37.235,18.732c-0.391-0.391-1.024-0.391-1.414,0c-0.391,0.391-0.391,1.024,0,1.414l1.415,1.414c0.195,0.195,0.451,0.293,0.707,0.293s0.512-0.098,0.707-0.293c0.391-0.391,0.391-1.024,0-1.414L37.235,18.732z"/><path d="M26.629,29.338c-0.391-0.391-1.023-0.391-1.414,0c-0.391,0.39-0.391,1.023,0,1.414l1.414,1.415c0.195,0.195,0.451,0.293,0.707,0.293s0.512-0.098,0.707-0.293c0.391-0.39,0.391-1.023,0-1.414L26.629,29.338z"/><path d="M26.629,44.895c-0.391-0.391-1.023-0.391-1.414,0s-0.391,1.023,0,1.414l1.414,1.414c0.195,0.195,0.451,0.293,0.707,0.293s0.512-0.098,0.707-0.293c0.391-0.391,0.391-1.023,0-1.414L26.629,44.895z"/><path d="M60.484,7.628c-0.199-1.022-1.165-1.73-2.196-1.616L46.197,7.377c-1.345,0.152-2.612,0.762-3.569,1.72l-4.117,4.117c-1.112-0.502-2.51-0.319-3.397,0.568l-15.571,15.57c-0.581-0.51-1.335-0.791-2.108-0.755c-0.84,0.038-1.631,0.43-2.169,1.076L3.695,43.559c-1,1.2-0.921,2.937,0.184,4.042l11.559,11.56c0.586,0.586,1.352,0.884,2.12,0.884c0.679,0,1.359-0.232,1.922-0.701l13.885-11.571c0.646-0.538,1.038-1.329,1.076-2.169c0.035-0.776-0.245-1.529-0.755-2.108l15.571-15.571c0.921-0.92,1.105-2.291,0.577-3.405l7.909-7.909C60.094,14.258,61.119,10.9,60.484,7.628z M32.084,46.236L18.199,57.807c-0.4,0.332-0.98,0.307-1.347-0.061L5.293,46.186c-0.368-0.368-0.395-0.947-0.062-1.347l8.415-10.098l8.74,8.74c0.195,0.195,0.451,0.293,0.707,0.293s0.512-0.098,0.707-0.293c0.391-0.391,0.391-1.023,0-1.414l-8.868-8.868l1.87-2.244c0.182-0.218,0.439-0.346,0.723-0.358c0.016-0.001,0.031-0.001,0.047-0.001c0.266,0,0.515,0.103,0.705,0.293L32.151,44.76c0.201,0.201,0.305,0.468,0.292,0.752C32.43,45.797,32.303,46.054,32.084,46.236z M47.842,26.51L32.286,42.066L20.972,30.752l15.557-15.556c0.377-0.378,1.036-0.378,1.414,0l9.9,9.899C48.232,25.486,48.232,26.12,47.842,26.51z M48.549,22.975l-8.485-8.485l3.978-3.978c0.638-0.638,1.483-1.045,2.38-1.146L58.513,8l0.008,0.009c0.508,2.619-0.312,5.306-2.193,7.187L48.549,22.975z"/></g></svg>