<?xml version="1.0" encoding="iso-8859-1"?>
<!-- Generator: Adobe Illustrator 25.4.1, SVG Export Plug-In . SVG Version: 6.00 Build 0)  -->
<svg version="1.1" id="Layer_1" xmlns="http://www.w3.org/2000/svg" xmlns:xlink="http://www.w3.org/1999/xlink" x="0px" y="0px"
	 viewBox="0 0 64 64" style="enable-background:new 0 0 64 64;" xml:space="preserve">
<path style="fill:none;stroke:#000000;stroke-width:2;stroke-linecap:round;stroke-linejoin:round;stroke-miterlimit:10;" d="M46,23
	l6-14h-6l-6,14V3h-5v20L29,9h-6l8,18h18v10h9v9H43v4h15v9H29c-1.398-0.992-3.851-4.195-4.867-6.423
	c-0.171-0.374-0.535-0.616-0.945-0.604c-0.006,0-0.011,0-0.017,0c-0.385,0.011-0.715,0.25-0.874,0.6
	c-1.016,2.23-2.847,4.494-4.245,5.486c-2.477,1.758-5.91,1.175-7.668-1.303c-1.758-2.477-1.175-5.911,1.303-7.668
	c1.161-0.824,3.25-1.636,5.322-2.018c-2.603-0.065-5.78-1.148-7.322-2.242c-2.477-1.758-3.06-5.191-1.303-7.668
	c1.758-2.477,5.191-3.06,7.668-1.302C16.99,36.523,18.048,37.584,19,39c-0.673-1.685-1-3.28-1-4.5c0-3.038,2.462-5.5,5.5-5.5
	c3.038,0,5.5,2.462,5.5,5.5c0,0.877-0.635,3.29-1,4.5c0.666-0.798,1.775-2.714,2.379-3.143c2.477-1.758,5.91-1.175,7.668,1.302
	c1.758,2.477,1.175,5.911-1.303,7.668c-1.542,1.094-4.719,2.177-7.322,2.242c2.072,0.382,4.161,1.194,5.322,2.018
	C36.233,50.144,36.976,51.305,37,53"/>
</svg>