<?xml version="1.0" encoding="iso-8859-1"?>
<!-- Generator: Adobe Illustrator 24.0.3, SVG Export Plug-In . SVG Version: 6.00 Build 0)  -->
<svg version="1.1" id="Layer_1" xmlns="http://www.w3.org/2000/svg" xmlns:xlink="http://www.w3.org/1999/xlink" x="0px" y="0px"
	 viewBox="0 0 100 100" style="enable-background:new 0 0 100 100;" xml:space="preserve">
<g>
	<path style="fill:none;stroke:#000000;stroke-width:2;stroke-linecap:round;stroke-linejoin:round;stroke-miterlimit:10;" d="
		M71,30v-9H61v9h-5l0,60.254C56,91.217,56.792,92,57.765,92h16.471C75.208,92,76,91.217,76,90.254V30H71z"/>
	<path style="fill:none;stroke:#000000;stroke-width:2;stroke-linecap:round;stroke-linejoin:round;stroke-miterlimit:10;" d="
		M24.765,92C23.792,92,23,91.228,23,90.279V62h20v28.279C43,91.228,42.208,92,41.235,92H24.765z"/>
	
		<line style="fill:none;stroke:#000000;stroke-width:2;stroke-linecap:round;stroke-linejoin:round;stroke-miterlimit:10;" x1="33" y1="62" x2="33" y2="21"/>
	
		<line style="fill:none;stroke:#000000;stroke-linecap:round;stroke-linejoin:round;stroke-miterlimit:10;" x1="60.5" y1="30.5" x2="71" y2="30.5"/>
	
		<line style="fill:none;stroke:#000000;stroke-linecap:round;stroke-linejoin:round;stroke-miterlimit:10;" x1="74.5" y1="38.5" x2="76" y2="38.5"/>
	
		<line style="fill:none;stroke:#000000;stroke-linecap:round;stroke-linejoin:round;stroke-miterlimit:10;" x1="69" y1="38.5" x2="71.5" y2="38.5"/>
	
		<line style="fill:none;stroke:#000000;stroke-linecap:round;stroke-linejoin:round;stroke-miterlimit:10;" x1="56" y1="38.5" x2="66" y2="38.5"/>
	<g>
		<g>
			<path style="fill:none;stroke:#000000;stroke-linecap:round;stroke-linejoin:round;stroke-miterlimit:10;" d="M29.5,20.5v-9.291
				c0-1.037,4.546-4.639,5.606-4.709c0.833,0,1.394,0.509,1.394,0.984V20.5H29.5z"/>
		</g>
	</g>
</g>
</svg>