<?xml version="1.0" encoding="iso-8859-1"?><!-- Generator: Adobe Illustrator 22.1.0, SVG Export Plug-In . SVG Version: 6.00 Build 0)  --><svg xmlns="http://www.w3.org/2000/svg" xmlns:xlink="http://www.w3.org/1999/xlink" viewBox="0 0 64 64" width="512px" height="512px"><g><path d="M46,59L46,59c-0.554-0.001-1.001-0.449-1-1.001l0.032-25.968c0-3.674-1.331-7.152-3.747-9.794c-0.372-0.407-0.344-1.04,0.063-1.413c0.406-0.37,1.04-0.345,1.413,0.063c2.754,3.011,4.271,6.969,4.271,11.145L47,58.001C46.999,58.553,46.552,59,46,59z"/></g><g><path d="M16,59c-0.553,0-1-0.447-1-1V31.814c0-4.038,1.484-7.882,4.179-10.824c0.374-0.406,1.005-0.435,1.413-0.062c0.407,0.373,0.435,1.006,0.062,1.413C18.298,24.913,17,28.277,17,31.814V58C17,58.553,16.553,59,16,59z"/></g><g><path d="M28.879,39C25.253,39,23,37.084,23,34V16c0-0.553,0.447-1,1-1s1,0.447,1,1v18c0,2.61,2.431,3,3.879,3c0.553,0,1,0.447,1,1S29.432,39,28.879,39z"/></g><g><path d="M21,59c0.552,0,1-0.448,1-1v-2c0-0.552-0.448-1-1-1s-1,0.448-1,1v2C20,58.552,20.448,59,21,59z"/></g><g><path d="M26,59c0.552,0,1-0.448,1-1v-2c0-0.552-0.448-1-1-1s-1,0.448-1,1v2C25,58.552,25.448,59,26,59z"/></g><g><path d="M31,59c0.552,0,1-0.448,1-1v-2c0-0.552-0.448-1-1-1s-1,0.448-1,1v2C30,58.552,30.448,59,31,59z"/></g><g><path d="M36,59c0.552,0,1-0.448,1-1v-2c0-0.552-0.448-1-1-1s-1,0.448-1,1v2C35,58.552,35.448,59,36,59z"/></g><g><path d="M41,59c0.552,0,1-0.448,1-1v-2c0-0.552-0.448-1-1-1s-1,0.448-1,1v2C40,58.552,40.448,59,41,59z"/></g><g><path d="M24,13c-0.553,0-1-0.447-1-1v-2c0-0.553,0.447-1,1-1s1,0.447,1,1v2C25,12.553,24.553,13,24,13z"/></g><g><path d="M34.333,43h-6.666C22.888,43,19,39.112,19,34.333V9.25C19,6.906,20.906,5,23.25,5h15.5C41.094,5,43,6.906,43,9.25v25.083C43,39.112,39.112,43,34.333,43z M23.25,7C22.01,7,21,8.01,21,9.25v25.083C21,38.009,23.991,41,27.667,41h6.666C38.009,41,41,38.009,41,34.333V9.25C41,8.01,39.99,7,38.75,7H23.25z"/></g></svg>