<?xml version="1.0" encoding="iso-8859-1"?><!-- Generator: Adobe Illustrator 22.1.0, SVG Export Plug-In . SVG Version: 6.00 Build 0)  --><svg xmlns="http://www.w3.org/2000/svg" xmlns:xlink="http://www.w3.org/1999/xlink" viewBox="0 0 50 50" width="500px" height="500px"><circle cx="30.5" cy="29.5" r="1.5"/><circle cx="19.5" cy="29.5" r="1.5"/><g><g><path style="fill:none;stroke:#000000;stroke-width:2;stroke-linecap:round;stroke-linejoin:round;stroke-miterlimit:10;" d="M37,31c0,14,9,13,9,13c0-2,1-12-9-14c4-1,5-6.758,5-10c0-6.159-2-13-9-13c-1.015-1.048-4.721-4-9.251-4C15,3,8,9.347,8,20c0,3.234,1,9,5,10"/><path style="fill:none;stroke:#000000;stroke-width:2;stroke-linecap:round;stroke-linejoin:round;stroke-miterlimit:10;" d="M13.028,31c0,14-9,13-9,13c0-2-1-12,9-14"/></g></g><path style="fill:none;stroke:#000000;stroke-width:2;stroke-linecap:round;stroke-miterlimit:10;" d="M31.5,15.625c0,0-1.435,5.011-7.5,6.891C20.118,23.719,13,24,13,30c0,9,8,17,12,17s12-8,12-18.72C37,19.846,31.5,15.625,31.5,15.625"/></svg>