<?xml version="1.0" encoding="iso-8859-1"?>
<!-- Generator: Adobe Illustrator 23.0.6, SVG Export Plug-In . SVG Version: 6.00 Build 0)  -->
<svg version="1.1" id="&#x421;&#x43B;&#x43E;&#x439;_1"
	 xmlns="http://www.w3.org/2000/svg" xmlns:xlink="http://www.w3.org/1999/xlink" x="0px" y="0px" viewBox="0 0 80 80"
	 style="enable-background:new 0 0 80 80;" xml:space="preserve">
<path style="fill:none;stroke:#000000;stroke-width:2;stroke-linecap:round;stroke-linejoin:round;stroke-miterlimit:10;" d="
	M69,41.555c0,5.551-3.778,10.39-9.163,11.736L45,57l0,0c-0.339,0.681-0.766,1.704-1,3c-0.265,1.466-0.169,2.657,0,4
	c0.741,5.878,1.81,6.044,0.726,7.397c-2.139,2.671-6.305,2.669-8.449,0.001C35.187,70.043,36.258,69.888,37,64
	c0.169-1.343,0.265-2.534,0-4c-0.234-1.296-0.661-2.319-1-3l-14.837-3.709C15.778,51.944,12,47.106,12,41.555v0V38h57V41.555
	L69,41.555z"/>
<path style="fill:none;stroke:#000000;stroke-width:2;stroke-linecap:round;stroke-linejoin:round;stroke-miterlimit:10;" d="M13,11
	c0,9,0,18,0,27"/>
<path style="fill:none;stroke:#000000;stroke-width:2;stroke-linecap:round;stroke-linejoin:round;stroke-miterlimit:10;" d="M18,11
	c0,9,0,18,0,27"/>
<path style="fill:none;stroke:#000000;stroke-width:2;stroke-linecap:round;stroke-linejoin:round;stroke-miterlimit:10;" d="M23,11
	c0,9,0,18,0,27"/>
<path style="fill:none;stroke:#000000;stroke-width:2;stroke-linecap:round;stroke-linejoin:round;stroke-miterlimit:10;" d="M28,11
	c0,9,0,18,0,27"/>
<path style="fill:none;stroke:#000000;stroke-width:2;stroke-linecap:round;stroke-linejoin:round;stroke-miterlimit:10;" d="M33,11
	c0,9,0,18,0,27"/>
<path style="fill:none;stroke:#000000;stroke-width:2;stroke-linecap:round;stroke-linejoin:round;stroke-miterlimit:10;" d="M38,11
	c0,9,0,18,0,27"/>
<path style="fill:none;stroke:#000000;stroke-width:2;stroke-linecap:round;stroke-linejoin:round;stroke-miterlimit:10;" d="M43,11
	c0,9,0,18,0,27"/>
<path style="fill:none;stroke:#000000;stroke-width:2;stroke-linecap:round;stroke-linejoin:round;stroke-miterlimit:10;" d="M48,11
	c0,9,0,18,0,27"/>
<path style="fill:none;stroke:#000000;stroke-width:2;stroke-linecap:round;stroke-linejoin:round;stroke-miterlimit:10;" d="M53,11
	c0,9,0,18,0,27"/>
<path style="fill:none;stroke:#000000;stroke-width:2;stroke-linecap:round;stroke-linejoin:round;stroke-miterlimit:10;" d="M58,11
	c0,9,0,18,0,27"/>
<path style="fill:none;stroke:#000000;stroke-width:2;stroke-linecap:round;stroke-linejoin:round;stroke-miterlimit:10;" d="M63,11
	c0,9,0,18,0,27"/>
<path style="fill:none;stroke:#000000;stroke-width:2;stroke-linecap:round;stroke-linejoin:round;stroke-miterlimit:10;" d="M68,11
	c0,9,0,18,0,27"/>
<path d="M63,43c0-0.55,0.45-1,1-1l0,0l0,0l0,0c0.55,0,1,0.45,1,1l0,0c0,0.55-0.45,1-1,1l0,0C63.45,44,63,43.55,63,43z M59,43
	c0-0.55,0.45-1,1-1l0,0l0,0l0,0c0.55,0,1,0.45,1,1l0,0c0,0.55-0.45,1-1,1l0,0C59.45,44,59,43.55,59,43z M55,43c0-0.55,0.45-1,1-1
	l0,0l0,0l0,0c0.55,0,1,0.45,1,1l0,0c0,0.55-0.45,1-1,1l0,0C55.45,44,55,43.55,55,43z M51,43c0-0.55,0.45-1,1-1l0,0l0,0l0,0
	c0.55,0,1,0.45,1,1l0,0c0,0.55-0.45,1-1,1l0,0C51.45,44,51,43.55,51,43z M47,43c0-0.55,0.45-1,1-1l0,0l0,0l0,0c0.55,0,1,0.45,1,1
	l0,0c0,0.55-0.45,1-1,1l0,0C47.45,44,47,43.55,47,43z M43,43c0-0.55,0.45-1,1-1l0,0l0,0l0,0c0.55,0,1,0.45,1,1l0,0
	c0,0.55-0.45,1-1,1l0,0C43.45,44,43,43.55,43,43z M39,43c0-0.55,0.45-1,1-1l0,0l0,0l0,0c0.55,0,1,0.45,1,1l0,0c0,0.55-0.45,1-1,1
	l0,0C39.45,44,39,43.55,39,43z M35,43c0-0.55,0.45-1,1-1l0,0l0,0l0,0c0.55,0,1,0.45,1,1l0,0c0,0.55-0.45,1-1,1l0,0
	C35.45,44,35,43.55,35,43z M31,43c0-0.55,0.45-1,1-1l0,0l0,0l0,0c0.55,0,1,0.45,1,1l0,0c0,0.55-0.45,1-1,1l0,0
	C31.45,44,31,43.55,31,43z M27,43c0-0.55,0.45-1,1-1l0,0l0,0l0,0c0.55,0,1,0.45,1,1l0,0c0,0.55-0.45,1-1,1l0,0
	C27.45,44,27,43.55,27,43z M23,43c0-0.55,0.45-1,1-1l0,0l0,0l0,0c0.55,0,1,0.45,1,1l0,0c0,0.55-0.45,1-1,1l0,0
	C23.45,44,23,43.55,23,43z M19,43c0-0.55,0.45-1,1-1l0,0l0,0l0,0c0.55,0,1,0.45,1,1l0,0c0,0.55-0.45,1-1,1l0,0
	C19.45,44,19,43.55,19,43z M15,43c0-0.55,0.45-1,1-1l0,0l0,0l0,0c0.55,0,1,0.45,1,1l0,0c0,0.55-0.45,1-1,1l0,0
	C15.45,44,15,43.55,15,43z"/>
</svg>