<?xml version="1.0" encoding="iso-8859-1"?>
<!-- Generator: Adobe Illustrator 26.4.1, SVG Export Plug-In . SVG Version: 6.00 Build 0)  -->
<svg version="1.1" baseProfile="basic" id="Layer_1"
	 xmlns="http://www.w3.org/2000/svg" xmlns:xlink="http://www.w3.org/1999/xlink" x="0px" y="0px" viewBox="0 0 64 64"
	 xml:space="preserve">
<path style="fill:none;stroke:#000000;stroke-width:2;stroke-linecap:round;stroke-linejoin:round;stroke-miterlimit:10;" d="M56,22
	c0,15-11,22-21,23v11h7c2.209,0,4,1.791,4,4v0H19v0c0-2.209,1.791-4,4-4h7V45C16,44,9,32,9,22c0,0,3.67-0.025,6,0
	c0.003,0.003,0.004,0.004,0.007,0.007C15.276,31.438,23.005,39,32.5,39c9.992,0,18.028-8.374,17.473-18.487
	C49.509,12.06,42.852,5.006,34.434,4.104c-9.195-0.986-17.148,5.157-19.019,13.589L36,34c0,0,5-1,8-7L24,11c0,0,2-3,6-3
	c4,3,16,13,16,13"/>
</svg>