<?xml version="1.0" encoding="iso-8859-1"?><!-- Generator: Adobe Illustrator 20.1.0, SVG Export Plug-In . SVG Version: 6.00 Build 0)  --><svg xmlns="http://www.w3.org/2000/svg" xmlns:xlink="http://www.w3.org/1999/xlink" viewBox="0 0 50 50" width="500px" height="500px"><path style="fill:none;stroke:#000000;stroke-width:2;stroke-miterlimit:10;" d="M8.668,16.095l25.237,25.237c0.891,0.891,2.336,0.891,3.227,0l9.2-9.2c0.891-0.891,0.891-2.336,0-3.227L21.095,3.668c-0.891-0.891-2.336-0.891-3.227,0l-9.2,9.2C7.777,13.759,7.777,15.204,8.668,16.095z"/><line style="fill:none;stroke:#000000;stroke-width:2;stroke-miterlimit:10;" x1="32.168" y1="39.51" x2="44.56" y2="27.118"/><line style="fill:none;stroke:#000000;stroke-width:2;stroke-miterlimit:10;" x1="10.49" y1="17.832" x2="22.882" y2="5.44"/><g><g><path style="fill:none;stroke:#000000;stroke-width:2;stroke-miterlimit:10;" d="M15.041,22.46c-0.035-0.001-0.242,0.183-0.441,0.381c-1.983,1.983-2.827,4.669-2.542,7.255l-2.18,2.18c-1.172,1.172-1.172,3.071,0,4.243l3.603,3.603c1.172,1.172,3.071,1.172,4.243,0l2.18-2.18c2.586,0.284,5.272-0.56,7.255-2.542c0.198-0.198,0.382-0.405,0.381-0.441L15.041,22.46z"/></g></g><path style="fill:none;stroke:#000000;stroke-width:2;stroke-linecap:round;stroke-miterlimit:10;" d="M8.738,47l6.109-6.109"/><path style="fill:none;stroke:#000000;stroke-width:2;stroke-linecap:round;stroke-miterlimit:10;" d="M9.109,35.153L3,41.262"/><path style="fill:none;stroke:#000000;stroke-width:2;stroke-miterlimit:10;" d="M41.662,30.236L19.764,8.338"/><path style="fill:none;stroke:#000000;stroke-width:2;stroke-miterlimit:10;" d="M38.662,33.236L16.764,11.338"/><path style="fill:none;stroke:#000000;stroke-width:2;stroke-miterlimit:10;" d="M35.662,36.236L13.764,14.338"/></svg>