<?xml version="1.0" encoding="iso-8859-1"?>
<!-- Generator: Adobe Illustrator 23.0.6, SVG Export Plug-In . SVG Version: 6.00 Build 0)  -->
<svg version="1.1" id="Line" xmlns="http://www.w3.org/2000/svg" xmlns:xlink="http://www.w3.org/1999/xlink" x="0px" y="0px"
	 viewBox="0 0 50 50" style="enable-background:new 0 0 50 50;" xml:space="preserve">
<path style="fill:none;stroke:#000000;stroke-width:2;stroke-linecap:round;stroke-linejoin:round;stroke-miterlimit:10;" d="
	M2.998,43.989l3.485-2.556c2.069-1.518,4.779-1.847,7.151-0.868l11.696,4.147c1.59,0.564,3.356,0.29,4.7-0.729l15.774-11.951
	c1.223-0.844,1.563-2.502,0.77-3.759l0,0c-0.816-1.294-2.527-1.681-3.821-0.865l-11.486,7.078"/>
<path style="fill:none;stroke:#000000;stroke-width:2;stroke-linecap:round;stroke-linejoin:round;stroke-miterlimit:10;" d="
	M19.002,35.989c0,0,9.277,2.779,9.927,2.933c0.184,0.044,0.376,0.067,0.573,0.067c1.381,0,2.5-1.119,2.5-2.5
	c0-0.92-0.498-1.717-1.239-2.148c-0.301-0.175-1.766-0.873-2.294-1.112c-1.444-0.653-6.3-2.658-9.973-4.27
	c-2.878-1.263-6.145-1.294-9.046-0.085l-6.448,2.685"/>
<path style="fill:none;stroke:#000000;stroke-width:2;stroke-linecap:round;stroke-linejoin:round;stroke-miterlimit:10;" d="M35,17
	c0,3.866-3.134,7-7,7s-7-3.134-7-7s7-12.091,7-12.091S35,13.134,35,17z"/>
<path style="fill:none;stroke:#000000;stroke-width:2;stroke-linecap:round;stroke-linejoin:round;stroke-miterlimit:10;" d="M28,20
	c-1.657,0-3-1.343-3-3"/>
</svg>