<?xml version="1.0" encoding="iso-8859-1"?>
<!-- Generator: Adobe Illustrator 27.0.0, SVG Export Plug-In . SVG Version: 6.00 Build 0)  -->
<svg version="1.1" baseProfile="basic" xmlns="http://www.w3.org/2000/svg" xmlns:xlink="http://www.w3.org/1999/xlink" x="0px"
	 y="0px" viewBox="0 0 64 64" xml:space="preserve">
<g id="Layer_1">
</g>
<g id="Layer_2">
</g>
<g id="Layer_3">
</g>
<g id="Layer_4">
	<path d="M48,12.908V11.21C48,5.03,42.99,0,36.83,0h-4.67c-5.609,0-12.034,4.16-13.017,9.746C13.108,13.305,7,21.915,7,30v24h4h4V30
		c0-4.152,1.444-8.154,4-11.379V40h7h0.97h17.05H45h3V18.684c2.591,3.194,4,7.151,4,11.316v24h4V30
		c0-5.813-2.246-11.296-6.344-15.456L48,12.908z M26.97,36V11.21c0-3.98,3.22-7.21,7.18-7.21h2.68c3.97,0,7.19,3.23,7.19,7.21V36
		H26.97z"/>
</g>
<g id="Layer_5">
</g>
<g id="Layer_6">
</g>
</svg>