<?xml version="1.0" encoding="iso-8859-1"?>
<!-- Generator: Adobe Illustrator 24.1.2, SVG Export Plug-In . SVG Version: 6.00 Build 0)  -->
<svg version="1.1" xmlns="http://www.w3.org/2000/svg" xmlns:xlink="http://www.w3.org/1999/xlink" x="0px" y="0px"
	 viewBox="0 0 48 48" style="enable-background:new 0 0 48 48;" xml:space="preserve">
<g id="weight" style="display:none;">
</g>
<g id="Layer_43">
</g>
<g id="topic">
</g>
<g id="video_card">
</g>
<g id="motherboard">
</g>
<g id="ethernet_on">
</g>
<g id="ethernet_off">
</g>
<g id="usb_on">
</g>
<g id="usb_off">
</g>
<g id="audio-cable--v2">
</g>
<g id="stack">
</g>
<g id="microsoft_hololens">
</g>
<g id="virtual_reality">
</g>
<g id="webcam">
</g>
<g id="phone-office">
</g>
<g id="inspection">
</g>
<g id="goal">
</g>
<g id="bank">
</g>
<g id="agreement">
</g>
<g id="tax">
</g>
<g id="business">
</g>
<g id="shop">
</g>
<g id="theme_park">
</g>
<g id="city_buildings">
</g>
<g id="food_cart">
</g>
<g id="bridge">
</g>
<g id="prison">
</g>
<g id="airport">
</g>
<g id="waste_separation">
</g>
<g id="elections">
</g>
<g id="lipstick">
</g>
<g id="afro_pick">
</g>
<g id="hair_druer">
</g>
<g id="barbershop">
	<path style="fill:none;stroke:#000000;stroke-width:3;stroke-linecap:round;stroke-linejoin:round;stroke-miterlimit:10;" d="
		M10.5,41.5L10.5,41.5c-1.657,0-3-1.343-3-3v-2c0-1.657,1.343-3,3-3h0c1.657,0,3,1.343,3,3v2C13.5,40.157,12.157,41.5,10.5,41.5z"/>
	<path d="M15,29.97v7.53c0,0.83-0.67,1.5-1.5,1.5S12,38.33,12,37.5v-8.76C12.83,29.43,13.86,29.87,15,29.97z"/>
	<path d="M19.5,26.5h-4c-1.105,0-2-0.895-2-2v-5l2.5-13h1l2.5,13V26.5z"/>
	<path style="fill:none;stroke:#000000;stroke-width:3;stroke-linecap:round;stroke-linejoin:round;stroke-miterlimit:10;" d="
		M19.5,26.5h-4c-1.105,0-2-0.895-2-2v-5l2.5-13h1l2.5,13V38c0,1.933,1.567,3.5,3.5,3.5s3.5-1.567,3.5-3.5s-1.567-3.5-3.5-3.5
		s-3.5,1.567-3.5,3.5"/>
	<path style="fill:none;stroke:#000000;stroke-width:3;stroke-linecap:round;stroke-linejoin:round;stroke-miterlimit:10;" d="
		M28.5,6.5h9c1.105,0,2,0.895,2,2v31c0,1.105-0.895,2-2,2h0c-1.105,0-2-0.895-2-2v-13h-7"/>
	
		<line style="fill:none;stroke:#000000;stroke-width:3;stroke-linecap:round;stroke-linejoin:round;stroke-miterlimit:10;" x1="28.5" y1="11.5" x2="34.5" y2="11.5"/>
	
		<line style="fill:none;stroke:#000000;stroke-width:3;stroke-linecap:round;stroke-linejoin:round;stroke-miterlimit:10;" x1="28.5" y1="16.5" x2="34.5" y2="16.5"/>
	
		<line style="fill:none;stroke:#000000;stroke-width:3;stroke-linecap:round;stroke-linejoin:round;stroke-miterlimit:10;" x1="28.5" y1="21.5" x2="34.5" y2="21.5"/>
	<polygon points="34,7 34,39 36,41 39,41 39,39 39,7 	"/>
</g>
<g id="straight_razor">
</g>
<g id="barber_pole">
</g>
<g id="perfume_bottle">
</g>
<g id="spa_flower">
</g>
<g id="bank_cards">
</g>
<g id="shopping_bag">
</g>
<g id="worldwide_delivery">
</g>
<g id="in_transit">
</g>
<g id="used_product">
</g>
<g id="discount">
</g>
<g id="gift">
</g>
<g id="last_24_hours">
</g>
</svg>