<?xml version="1.0" encoding="iso-8859-1"?>
<!-- Generator: Adobe Illustrator 23.0.2, SVG Export Plug-In . SVG Version: 6.00 Build 0)  -->
<svg version="1.1" xmlns="http://www.w3.org/2000/svg" xmlns:xlink="http://www.w3.org/1999/xlink" x="0px" y="0px"
	 viewBox="0 0 30 30" style="enable-background:new 0 0 30 30;" xml:space="preserve">
<g id="Layer_1">
	<g>
		<path d="M19.83,14.74C22.34,13.32,24,10.83,24,8c0-4.41-4.04-8-9-8c-4.96,0-9,3.59-9,8c0,2.83,1.66,5.32,4.17,6.74
			C7.09,15.77,5,17.74,5,20v4c0,3.31,4.48,6,10,6c5.52,0,10-2.69,10-6v-4C25,17.74,22.91,15.77,19.83,14.74z M8,8c0-3.31,3.14-6,7-6
			s7,2.69,7,6s-3.14,6-7,6S8,11.31,8,8z M22.64,20.13c0.02,0.12,0.03,0.24,0.03,0.37c0,1.45-1.04,2.69-2.74,3.5
			c-1.31,0.63-3.02,1-4.93,1c-1.91,0-3.62-0.37-4.93-1c-1.7-0.81-2.74-2.05-2.74-3.5c0-0.13,0.01-0.25,0.03-0.37
			c0.06-0.04,0.13-0.09,0.19-0.13H7.38c0.39-2.32,3.54-4,7.62-4c4.08,0,7.23,1.68,7.62,4h-0.17C22.51,20.04,22.58,20.09,22.64,20.13
			z"/>
		<path d="M16.06,18.05c-0.15-0.01-0.3-0.02-0.46-0.03C15.4,18.01,15.2,18,15,18s-0.4,0.01-0.6,0.02c-0.16,0.01-0.31,0.02-0.46,0.03
			c-2.27,0.2-3.99,1.06-4.47,1.95c-0.09,0.17-0.14,0.34-0.14,0.5c0,1.18,2.43,2.5,5.67,2.5s5.67-1.32,5.67-2.5
			c0-0.16-0.05-0.33-0.14-0.5C20.05,19.11,18.33,18.25,16.06,18.05z"/>
		<rect x="10.913" y="5.654" transform="matrix(0.6808 -0.7325 0.7325 0.6808 -0.8037 11.4636)" width="3.674" height="2"/>
		<rect x="14.913" y="7.808" transform="matrix(0.6808 -0.7325 0.7325 0.6808 -1.1047 15.0814)" width="3.674" height="2"/>
	</g>
</g>
<g id="Layer_2">
</g>
<g id="Layer_3">
</g>
<g id="Layer_4">
</g>
<g id="Layer_5">
</g>
</svg>