<?xml version="1.0" encoding="iso-8859-1"?>
<!-- Generator: Adobe Illustrator 24.1.2, SVG Export Plug-In . SVG Version: 6.00 Build 0)  -->
<svg version="1.1" xmlns="http://www.w3.org/2000/svg" xmlns:xlink="http://www.w3.org/1999/xlink" x="0px" y="0px"
	 viewBox="0 0 48 48" style="enable-background:new 0 0 48 48;" xml:space="preserve">
<g id="weight" style="display:none;">
</g>
<g id="Layer_43">
</g>
<g id="topic">
</g>
<g id="video_card">
</g>
<g id="motherboard">
</g>
<g id="ethernet_on">
</g>
<g id="ethernet_off">
</g>
<g id="usb_on">
</g>
<g id="usb_off">
</g>
<g id="audio-cable--v2">
</g>
<g id="stack">
</g>
<g id="microsoft_hololens">
</g>
<g id="virtual_reality">
</g>
<g id="webcam">
</g>
<g id="phone-office">
</g>
<g id="inspection">
</g>
<g id="goal">
</g>
<g id="bank">
</g>
<g id="agreement">
</g>
<g id="tax">
</g>
<g id="business">
</g>
<g id="shop">
</g>
<g id="theme_park">
</g>
<g id="city_buildings">
</g>
<g id="food_cart">
</g>
<g id="bridge">
</g>
<g id="prison">
</g>
<g id="airport">
</g>
<g id="waste_separation">
</g>
<g id="elections">
</g>
<g id="lipstick">
</g>
<g id="afro_pick">
</g>
<g id="hair_druer">
</g>
<g id="barbershop">
</g>
<g id="straight_razor">
</g>
<g id="barber_pole">
</g>
<g id="perfume_bottle">
	<path d="M37,15H11c-2.2,0-4,1.8-4,4v9h9v-2c0-1.1,0.9-2,2-2h12c1.1,0,2,0.9,2,2v2h9v-9C41,16.8,39.2,15,37,15z"/>
	<path d="M32,31v2c0,1.1-0.9,2-2,2H18c-1.1,0-2-0.9-2-2v-2H7v9c0,2.2,1.8,4,4,4h26c2.2,0,4-1.8,4-4v-9H32z"/>
	<polyline style="stroke:#000000;stroke-width:3;stroke-linejoin:round;stroke-miterlimit:10;" points="27.5,12 27.5,5.5 19.5,5.5 
		19.5,12 	"/>
</g>
<g id="spa_flower">
</g>
<g id="bank_cards">
</g>
<g id="shopping_bag">
</g>
<g id="worldwide_delivery">
</g>
<g id="in_transit">
</g>
<g id="used_product">
</g>
<g id="discount">
</g>
<g id="gift">
</g>
<g id="last_24_hours">
</g>
</svg>