<?xml version="1.0" encoding="iso-8859-1"?>
<!-- Generator: Adobe Illustrator 24.0.2, SVG Export Plug-In . SVG Version: 6.00 Build 0)  -->
<svg version="1.1" id="&#x421;&#x43B;&#x43E;&#x439;_2"
	 xmlns="http://www.w3.org/2000/svg" xmlns:xlink="http://www.w3.org/1999/xlink" x="0px" y="0px" viewBox="0 0 80 80"
	 style="enable-background:new 0 0 80 80;" xml:space="preserve">
<path style="fill:none;stroke:#000000;stroke-width:2;stroke-linecap:round;stroke-linejoin:round;stroke-miterlimit:10;" d="M47,38
	h13v28.038C60,68.779,57.779,71,55.038,71H24.962C22.221,71,20,68.779,20,66.038V38h13"/>
<path style="fill:none;stroke:#000000;stroke-width:2;stroke-linecap:round;stroke-linejoin:round;stroke-miterlimit:10;" d="M47,38
	H33V10.105C33,8.39,34.39,7,36.105,7h7.791C45.61,7,47,8.39,47,10.105V38z"/>
<path style="fill:none;stroke:#000000;stroke-width:2;stroke-linecap:round;stroke-linejoin:round;stroke-miterlimit:10;" d="M40,38
	c0,6.333,0,12.667,0,19"/>
<path d="M25.843,66L25.843,66c-0.55,0-1-0.45-1-1l0,0c0-0.55,0.45-1,1-1l0,0c0.55,0,1,0.45,1,1S26.393,66,25.843,66z"/>
<path d="M25.543,62.01L25.543,62.01c-0.52,0-0.96-0.4-1-0.92l0,0c-0.05-0.55,0.37-1.03,0.92-1.07l0,0c0.55-0.05,1.03,0.36,1.07,0.92
	l0,0c0.04,0.54-0.37,1.03-0.92,1.07C25.593,62.01,25.563,62.01,25.543,62.01z"/>
<path d="M25.233,58.02L25.233,58.02c-0.52,0-0.96-0.399-1-0.92l0,0c-0.04-0.55,0.37-1.03,0.92-1.069l0,0
	c0.55-0.051,1.03,0.369,1.07,0.92l0,0l0,0l0,0c0.05,0.55-0.37,1.029-0.92,1.069C25.282,58.02,25.253,58.02,25.233,58.02z"/>
<path d="M24.923,54.03L24.923,54.03c-0.52,0-0.96-0.391-1-0.921l0,0c-0.04-0.55,0.37-1.029,0.92-1.069l0,0
	c0.55-0.05,1.03,0.37,1.08,0.92l0,0c0.04,0.55-0.37,1.03-0.92,1.07C24.973,54.03,24.943,54.03,24.923,54.03z"/>
<path d="M24.613,50.05L24.613,50.05c-0.51,0-0.95-0.4-0.99-0.93l0,0c-0.05-0.551,0.37-1.03,0.92-1.07l0,0
	c0.55-0.04,1.03,0.37,1.07,0.92l0,0c0.04,0.55-0.37,1.03-0.92,1.07C24.663,50.05,24.643,50.05,24.613,50.05z"/>
<path d="M24.313,46.06L24.313,46.06c-0.52,0-0.96-0.399-1-0.92v-0.01c-0.04-0.55,0.37-1.03,0.92-1.07l0,0
	c0.55-0.04,1.03,0.37,1.07,0.92l0,0l0,0l0,0c0.05,0.551-0.37,1.03-0.92,1.08C24.363,46.06,24.333,46.06,24.313,46.06z"/>
<path d="M24.003,42.069L24.003,42.069c-0.52,0-0.96-0.399-1-0.92l0,0c-0.04-0.56,0.37-1.029,0.92-1.08l0,0
	c0.55-0.039,1.03,0.37,1.08,0.921l0,0c0.04,0.55-0.37,1.029-0.92,1.079C24.053,42.069,24.023,42.069,24.003,42.069z"/>
<path d="M53,65c0-0.55,0.45-1,1-1l0,0c0.55,0,1,0.45,1,1l0,0c0,0.55-0.45,1-1,1l0,0C53.45,66,53,65.55,53,65z"/>
<path d="M54.23,62.01c-0.55-0.04-0.96-0.53-0.92-1.07l0,0c0.04-0.56,0.52-0.97,1.07-0.92l0,0c0.55,0.04,0.97,0.521,0.92,1.07l0,0
	c-0.04,0.52-0.48,0.92-1,0.92l0,0C54.28,62.01,54.25,62.01,54.23,62.01z"/>
<path d="M54.54,58.02c-0.55-0.04-0.97-0.52-0.92-1.069l0,0l0,0l0,0c0.04-0.551,0.52-0.971,1.07-0.92l0,0
	c0.55,0.039,0.96,0.52,0.92,1.069l0,0c-0.04,0.521-0.48,0.92-1,0.92l0,0C54.59,58.02,54.56,58.02,54.54,58.02z"/>
<path d="M54.84,54.03c-0.55-0.04-0.96-0.521-0.92-1.07l0,0c0.05-0.55,0.53-0.97,1.08-0.92l0,0c0.55,0.04,0.96,0.52,0.92,1.069l0,0
	c-0.04,0.53-0.48,0.921-1,0.921l0,0C54.9,54.03,54.87,54.03,54.84,54.03z"/>
<path d="M55.15,50.04c-0.55-0.04-0.96-0.521-0.92-1.07l0,0c0.04-0.55,0.52-0.96,1.07-0.92l0,0c0.55,0.04,0.97,0.52,0.92,1.07l0,0
	c-0.04,0.529-0.48,0.93-0.99,0.93l0,0C55.2,50.05,55.18,50.05,55.15,50.04z"/>
<path d="M55.46,46.06c-0.55-0.05-0.97-0.529-0.92-1.08l0,0l0,0l0,0c0.04-0.55,0.52-0.96,1.07-0.92l0,0
	c0.55,0.04,0.96,0.521,0.92,1.07v0.01c-0.04,0.521-0.48,0.92-1,0.92l0,0C55.51,46.06,55.48,46.06,55.46,46.06z"/>
<path d="M55.76,42.069c-0.55-0.05-0.96-0.529-0.92-1.079l0,0c0.05-0.551,0.53-0.96,1.08-0.921l0,0c0.55,0.051,0.96,0.521,0.92,1.08
	l0,0c-0.04,0.521-0.48,0.92-1,0.92l0,0C55.82,42.069,55.79,42.069,55.76,42.069z"/>
<path style="fill:none;stroke:#000000;stroke-width:2;stroke-linecap:round;stroke-linejoin:round;stroke-miterlimit:10;stroke-dasharray:0,4;" d="
	M26,65c8.667,0,19.333,0,28,0"/>
<rect x="38" y="54" width="4" height="6"/>
<path style="fill:none;stroke:#000000;stroke-width:2;stroke-linecap:round;stroke-linejoin:round;stroke-miterlimit:10;" d="M33,38
	c4.667,0,9.333,0,14,0"/>
</svg>