<?xml version="1.0" encoding="iso-8859-1"?>
<!-- Generator: Adobe Illustrator 24.0.3, SVG Export Plug-In . SVG Version: 6.00 Build 0)  -->
<svg version="1.1" id="Layer_1" xmlns="http://www.w3.org/2000/svg" xmlns:xlink="http://www.w3.org/1999/xlink" x="0px" y="0px"
	 viewBox="0 0 100 100" style="enable-background:new 0 0 100 100;" xml:space="preserve">
<g>
	<path style="fill:none;stroke:#000000;stroke-width:2;stroke-linecap:round;stroke-linejoin:round;stroke-miterlimit:10;" d="
		M40.668,59c-0.116-0.23-4.4-16.18,10.304-30.754C60.35,18.951,69.496,17,75.516,17C79.569,17,82,17.918,82,17.918l0,0"/>
	<g>
		<path style="fill:none;stroke:#000000;stroke-width:2;stroke-linecap:round;stroke-linejoin:round;stroke-miterlimit:10;" d="
			M19.539,92c-2.349,0-4.586-0.896-6.376-2.575c-0.112-0.224-0.671-1.679,1.231-3.582c1.119-1.119,14.878-14.776,29.644-29.552
			c17.227-17.239,36.02-35.821,37.698-37.612C83.19,17.224,84.085,17,84.644,17c0.447,0,0.671,0.224,0.671,0.224
			c1.79,1.791,2.685,4.03,2.685,6.493s-0.895,4.701-2.685,6.381l-59.4,59.216C24.237,91.104,22,92,19.539,92z"/>
	</g>
	
		<line style="fill:none;stroke:#000000;stroke-linecap:round;stroke-linejoin:round;stroke-miterlimit:10;" x1="55" y1="32" x2="44" y2="21"/>
	
		<line style="fill:none;stroke:#000000;stroke-linecap:round;stroke-linejoin:round;stroke-miterlimit:10;" x1="58.5" y1="42.5" x2="52.5" y2="36.5"/>
	
		<line style="fill:none;stroke:#000000;stroke-linecap:round;stroke-linejoin:round;stroke-miterlimit:10;" x1="52.5" y1="48.5" x2="47.5" y2="43.5"/>
	
		<line style="fill:none;stroke:#000000;stroke-linecap:round;stroke-linejoin:round;stroke-miterlimit:10;" x1="65.5" y1="35.5" x2="59.5" y2="29.5"/>
	
		<line style="fill:none;stroke:#000000;stroke-linecap:round;stroke-linejoin:round;stroke-miterlimit:10;" x1="71.5" y1="29.5" x2="66.5" y2="24.5"/>
	
		<line style="fill:none;stroke:#000000;stroke-linecap:round;stroke-linejoin:round;stroke-miterlimit:10;" x1="76.5" y1="23.5" x2="73.5" y2="20.5"/>
	
		<line style="fill:none;stroke:#000000;stroke-linecap:round;stroke-linejoin:round;stroke-miterlimit:10;" x1="45.5" y1="54.5" x2="42.5" y2="51.5"/>
	
		<line style="fill:none;stroke:#000000;stroke-linecap:round;stroke-linejoin:round;stroke-miterlimit:10;" x1="48.5" y1="38.5" x2="37.5" y2="27.5"/>
	
		<line style="fill:none;stroke:#000000;stroke-linecap:round;stroke-linejoin:round;stroke-miterlimit:10;" x1="44" y1="47" x2="33" y2="36"/>
	
		<line style="fill:none;stroke:#000000;stroke-linecap:round;stroke-linejoin:round;stroke-miterlimit:10;" x1="39.5" y1="55" x2="31.5" y2="47"/>
	
		<line style="fill:none;stroke:#000000;stroke-linecap:round;stroke-linejoin:round;stroke-miterlimit:10;" x1="62.5" y1="26.5" x2="51.5" y2="15.5"/>
	
		<line style="fill:none;stroke:#000000;stroke-linecap:round;stroke-linejoin:round;stroke-miterlimit:10;" x1="70" y1="21.5" x2="60" y2="11.5"/>
	
		<line style="fill:none;stroke:#000000;stroke-linecap:round;stroke-linejoin:round;stroke-miterlimit:10;" x1="78.5" y1="17.5" x2="70.5" y2="9.5"/>
</g>
</svg>