<?xml version="1.0" encoding="iso-8859-1"?>
<!-- Generator: Adobe Illustrator 26.1.0, SVG Export Plug-In . SVG Version: 6.00 Build 0)  -->
<svg version="1.1" baseProfile="basic" id="Layer_1"
	 xmlns="http://www.w3.org/2000/svg" xmlns:xlink="http://www.w3.org/1999/xlink" x="0px" y="0px" viewBox="0 0 24 24"
	 xml:space="preserve">
<g>
	<g>
		<path style="fill:none;stroke:#000000;stroke-linecap:round;stroke-linejoin:round;stroke-miterlimit:10;" d="M14.5,21.5h-5
			 M6.5,21.5h-1c-1.105,0-2-0.895-2-2v-10c0-0.552,0.448-1,1-1h15c0.552,0,1,0.448,1,1v10c0,1.105-0.895,2-2,2h-1"/>
	</g>
</g>
<g>
	<path d="M15,4c2.206,0,4,1.794,4,4H5c0-2.206,1.794-4,4-4H15 M15,3H9C6.243,3,4,5.243,4,8c0,0.552,0.447,1,1,1h14
		c0.553,0,1-0.448,1-1C20,5.243,17.757,3,15,3L15,3z"/>
</g>
</svg>