<?xml version="1.0" encoding="iso-8859-1"?><!-- Generator: Adobe Illustrator 22.1.0, SVG Export Plug-In . SVG Version: 6.00 Build 0)  --><svg xmlns="http://www.w3.org/2000/svg" xmlns:xlink="http://www.w3.org/1999/xlink" viewBox="0 0 50 50" width="500px" height="500px"><path style="fill:none;stroke:#000000;stroke-width:2;stroke-linejoin:round;stroke-miterlimit:10;" d="M46,33c0,0-7,13-21,13S4,33,4,33s7-13,21-13S46,33,46,33z"/><path d="M46,33h-1c0,0-3.91-3.44-10.63-5.49C31.5,26.63,28.29,26,25,26s-6.5,0.63-9.37,1.51C8.91,29.56,5,33,5,33H4c0,0,7-13,21-13S46,33,46,33z"/><path d="M33.787,29.423c-1.556-0.477-3.079-0.833-4.561-1.071C29.709,29.121,30,30.024,30,31c0,2.761-2.239,5-5,5s-5-2.239-5-5c0-0.976,0.291-1.879,0.774-2.648c-1.481,0.238-3.003,0.594-4.558,1.07c-0.389,0.119-0.768,0.242-1.136,0.37C15.032,30.189,15,30.59,15,31c0,5.523,4.477,10,10,10s10-4.477,10-10c0-0.41-0.032-0.811-0.08-1.208C34.552,29.665,34.174,29.541,33.787,29.423z"/><path d="M4.5,18c0.777,0,1.566-0.182,2.302-0.565c0.27-0.141,0.769-0.422,1.444-0.802C12.036,14.497,24.074,8,29,8c9.271,0,19.249,8.67,19.336,8.748c0.398,0.353,1.004,0.332,1.377-0.047c0.373-0.38,0.384-0.984,0.024-1.377C49.276,14.821,38.298,3,26,3C18.715,3,9.325,6.547,5.009,8.359c-1.45,0.609-2.353,1.045-2.353,1.045C1.093,10.109,0,11.674,0,13.5C0,15.985,2.015,18,4.5,18z"/></svg>