<?xml version="1.0" encoding="iso-8859-1"?>
<!-- Generator: Adobe Illustrator 23.0.6, SVG Export Plug-In . SVG Version: 6.00 Build 0)  -->
<svg version="1.1" id="Layer_1" xmlns="http://www.w3.org/2000/svg" xmlns:xlink="http://www.w3.org/1999/xlink" x="0px" y="0px"
	 viewBox="0 0 64 64" style="enable-background:new 0 0 64 64;" xml:space="preserve">
<g>
	<g>
		<g>
			<path d="M58,44.99h-5c-0.553,0-1-0.448-1-1s0.447-1,1-1h5c0.553,0,1,0.448,1,1S58.553,44.99,58,44.99z"/>
		</g>
	</g>
</g>
<g>
	<g>
		<path d="M29.53,6.7c-0.16-0.53-0.72-0.82-1.24-0.66l-1.92,0.58c-0.53,0.16-0.83,0.72-0.67,1.24c0.16,0.53,0.72,0.83,1.25,0.67
			l1.92-0.58C29.39,7.79,29.69,7.23,29.53,6.7z M30.98,11.49c-0.16-0.53-0.72-0.83-1.24-0.67l-1.92,0.58
			c-0.53,0.16-0.82,0.72-0.66,1.25c0.16,0.53,0.71,0.83,1.24,0.67l1.92-0.58C30.85,12.57,31.14,12.02,30.98,11.49z M32.43,16.27
			c-0.16-0.53-0.71-0.82-1.24-0.66l-1.92,0.58c-0.52,0.16-0.82,0.72-0.66,1.24c0.16,0.53,0.72,0.83,1.24,0.67l1.92-0.58
			C32.3,17.36,32.59,16.8,32.43,16.27z M28.08,1.92c-0.16-0.53-0.72-0.83-1.25-0.67l-1.91,0.58c-0.53,0.16-0.83,0.72-0.67,1.25
			c0.16,0.53,0.72,0.83,1.25,0.67l1.91-0.58C27.94,3.01,28.24,2.45,28.08,1.92z"/>
	</g>
</g>
<g>
	<g>
		<path d="M51,21H33c-1.1,0-2,0.89-2,2v4.99c0,1.11,0.9,2,2,2h18c1.1,0,2-0.89,2-2V23C53,21.89,52.1,21,51,21z M51,27.99H33V23h18
			V27.99z"/>
	</g>
</g>
<g>
	<g>
		<g>
			<path d="M21.86,30.05C20.54,28.73,18.79,28,16.93,28c-3.85,0-6.98,3.14-6.98,7c0,0.32,0.05,0.68,0.13,1.05
				c0.33,1.44,1.23,3.17,2.24,4.8c0.99,1.6,2.1,3.09,2.87,4.09c0.04,0.04,0.07,0.08,0.1,0.12c0.17,0.21,0.32,0.4,0.45,0.56
				c0.06,0.08,0.11,0.15,0.16,0.21c0.12,0.14,0.21,0.25,0.26,0.31l0.17,0.2l0.29,0.36l0.27,0.32l0.31-0.33l0.31-0.34l0.15-0.17
				c0.06-0.06,0.16-0.17,0.29-0.32c0.07-0.07,0.14-0.15,0.23-0.25c0.13-0.15,0.28-0.33,0.45-0.53c-0.09-0.03-0.18-0.06-0.26-0.09
				c0.02-0.04,0.04-0.07,0.07-0.11c0.63-1.06,1.53-2.43,2.56-3.72c0.5-0.62,1.02-1.22,1.56-1.75c0.6-1.13,1.06-2.29,1.25-3.38
				c0-0.01,0.01-0.02,0-0.04c0.07-0.34,0.1-0.67,0.1-0.99C23.91,33.13,23.18,31.37,21.86,30.05z M17.05,43.84
				c-0.03,0.04-0.06,0.08-0.09,0.11c-0.06-0.07-0.11-0.14-0.17-0.22c-0.94-1.21-1.97-2.66-2.84-4.07c-1.14-1.84-2-3.6-2-4.66
				c0-2.76,2.23-5,4.98-5c1.33,0,2.57,0.52,3.51,1.46c0.95,0.95,1.47,2.2,1.47,3.54c-0.01,0.94-0.41,2.08-1.01,3.26
				C19.86,40.3,18.23,42.45,17.05,43.84z"/>
		</g>
	</g>
	<g>
		<g>
			<path d="M18.18,45.61l-0.27-0.43l-0.13-0.21c-0.04-0.07-0.12-0.18-0.21-0.34c-0.06-0.08-0.12-0.17-0.18-0.28
				c-0.1-0.15-0.22-0.32-0.34-0.51c-0.06-0.08-0.12-0.17-0.18-0.26c-0.59-0.87-1.41-2.03-2.34-3.2c-0.19-0.24-0.39-0.48-0.58-0.72
				c-1.24-1.47-2.61-2.87-3.87-3.61c-0.32-0.2-0.64-0.35-0.94-0.45c-1.78-0.58-3.67-0.43-5.32,0.42c-1.67,0.85-2.9,2.3-3.48,4.08
				c-1.19,3.67,0.82,7.62,4.48,8.82c0.3,0.1,0.65,0.16,1.03,0.2c0.23,0.02,0.47,0.03,0.72,0.03c1.36,0,3-0.3,4.59-0.71
				c0.01,0,0.02,0,0.03-0.01c1.78-0.44,3.49-1.02,4.66-1.45c0.05-0.01,0.1-0.03,0.14-0.05c0.24-0.09,0.45-0.17,0.63-0.23
				c0.11-0.05,0.21-0.09,0.3-0.12c0.17-0.07,0.3-0.12,0.38-0.15l0.21-0.08l0.46-0.19l0.44-0.18L18.18,45.61z M10.54,46.53
				c-2.12,0.53-4.09,0.82-5.1,0.48c-2.61-0.85-4.04-3.68-3.19-6.3c0.41-1.27,1.29-2.3,2.47-2.91c0.71-0.36,1.48-0.55,2.26-0.55
				c0.51,0,1.03,0.08,1.54,0.25c1,0.33,2.41,1.7,3.8,3.35c1.09,1.3,2.17,2.77,3.02,4.05c0.03,0.04,0.06,0.07,0.08,0.11
				c-0.04,0.02-0.08,0.03-0.13,0.05C13.86,45.58,12.15,46.13,10.54,46.53z"/>
		</g>
	</g>
	<g>
		<g>
			<path d="M18,46.99c0-0.06,0-0.11-0.01-0.16c0-0.25-0.01-0.48-0.02-0.67c-0.01-0.11-0.01-0.21-0.02-0.3
				c-0.01-0.19-0.02-0.34-0.02-0.42l-0.02-0.26l-0.03-0.45l-0.03-0.49l-0.46,0.11l-0.46,0.12l-0.25,0.06
				c-0.09,0.02-0.23,0.06-0.43,0.11c-0.08,0.03-0.17,0.05-0.27,0.08c-0.19,0.05-0.4,0.11-0.64,0.18c-0.05,0.01-0.1,0.03-0.15,0.04
				c-1.02,0.3-2.41,0.73-3.86,1.28c-0.26,0.1-0.53,0.2-0.79,0.31c-1.8,0.72-3.57,1.6-4.69,2.59c-0.29,0.25-0.53,0.51-0.72,0.77
				c-2.26,3.12-1.57,7.5,1.55,9.77C7.88,60.54,9.3,61,10.76,61c0.37,0,0.74-0.03,1.11-0.09c1.84-0.29,3.46-1.28,4.55-2.8
				c0.19-0.26,0.36-0.57,0.51-0.92c0.59-1.37,0.88-3.34,1.01-5.29C18.06,50.06,18.04,48.24,18,46.99z M14.8,56.94
				c-0.78,1.08-1.93,1.79-3.24,2c-1.31,0.2-2.63-0.11-3.71-0.9c-1.34-0.98-2.05-2.5-2.05-4.05c0-1.02,0.31-2.04,0.95-2.93
				c0.63-0.87,2.38-1.8,4.41-2.62c0.01,0,0.02,0,0.03-0.01c1.53-0.62,3.22-1.18,4.67-1.6c0.05-0.02,0.09-0.03,0.13-0.04v0.14
				c0.06,1.55,0.05,3.39-0.07,5.08C15.77,54.16,15.42,56.09,14.8,56.94z"/>
		</g>
	</g>
	<g>
		<g>
			<path d="M21,45.89v1.91c0.58,0.21,1.15,0.42,1.71,0.65c0.1,0.04,0.2,0.08,0.29,0.12v-2.11C22.33,46.28,21.66,46.09,21,45.89z
				 M28.72,49.89c-0.19-0.26-0.43-0.52-0.71-0.77c-1.12-0.98-2.89-1.87-4.69-2.59c-0.1-0.04-0.21-0.08-0.32-0.13
				c-0.68-0.27-1.36-0.51-2-0.73c-0.84-0.28-1.62-0.52-2.26-0.71c-0.01,0-0.01,0-0.01,0c-0.1-0.03-0.2-0.05-0.29-0.08
				c-0.21-0.06-0.4-0.11-0.56-0.15c-0.12-0.04-0.22-0.07-0.31-0.1c-0.18-0.04-0.32-0.08-0.4-0.1l-0.24-0.06l-0.5-0.13l-0.42-0.1
				l-0.03,0.48l-0.03,0.49l-0.02,0.23c-0.01,0.08-0.02,0.21-0.03,0.39c0,0.09-0.01,0.2-0.02,0.33c0,0.19-0.01,0.42-0.02,0.67
				c-0.01,0.05-0.01,0.1-0.01,0.15c-0.02,0.54-0.03,1.18-0.03,1.89c0,0.97,0.03,2.05,0.1,3.14c0.14,1.91,0.43,3.83,1.01,5.18
				c0.14,0.35,0.31,0.66,0.5,0.92c1.1,1.52,2.71,2.51,4.56,2.8c0.37,0.06,0.74,0.09,1.1,0.09c0.93,0,1.84-0.19,2.69-0.55
				c0.49-0.2,0.96-0.47,1.4-0.79c0.29-0.21,0.56-0.45,0.81-0.7C30.39,56.58,30.77,52.72,28.72,49.89z M26,58.05
				c-0.08,0.06-0.17,0.12-0.26,0.18c-0.71,0.44-1.51,0.71-2.33,0.75c-0.37,0.04-0.74,0.02-1.11-0.04c-1.31-0.21-2.47-0.92-3.25-2
				c-0.63-0.87-0.97-2.85-1.11-5.04c-0.13-1.66-0.14-3.45-0.08-4.97v-0.14c0.04,0.01,0.09,0.02,0.13,0.04
				c0.94,0.27,1.98,0.6,3.01,0.97c0.58,0.21,1.15,0.42,1.71,0.65c0.1,0.04,0.2,0.08,0.29,0.12c1.89,0.79,3.5,1.67,4.1,2.49
				C28.72,53.29,28.23,56.43,26,58.05z M21,45.89v1.91c0.58,0.21,1.15,0.42,1.71,0.65c0.1,0.04,0.2,0.08,0.29,0.12v-2.11
				C22.33,46.28,21.66,46.09,21,45.89z"/>
		</g>
	</g>
	<g>
		<g>
			<path d="M18.63,45.08c-0.17,0.2-0.32,0.38-0.45,0.53c-0.09,0.1-0.16,0.18-0.23,0.25c0.01,0.09,0.01,0.19,0.02,0.3
				c0.01,0.19,0.02,0.42,0.02,0.67c0.94,0.27,1.98,0.6,3.01,0.97v-1.91C20.17,45.63,19.36,45.35,18.63,45.08z M18.63,45.08
				c-0.17,0.2-0.32,0.38-0.45,0.53c-0.09,0.1-0.16,0.18-0.23,0.25c0.01,0.09,0.01,0.19,0.02,0.3c0.01,0.19,0.02,0.42,0.02,0.67
				c0.94,0.27,1.98,0.6,3.01,0.97v-1.91C20.17,45.63,19.36,45.35,18.63,45.08z M33.51,40.1c-0.39-1.22-1.1-2.29-2.04-3.1
				c-0.43-0.39-0.91-0.71-1.43-0.98c-1.66-0.85-3.55-1-5.32-0.42c-0.19,0.06-0.38,0.13-0.56,0.22c-0.12,0.05-0.23,0.1-0.35,0.17
				c-1.02,0.52-2.01,1.33-2.91,2.27c-1.72,1.75-3.16,3.92-4.03,5.32c-0.02,0.05-0.05,0.1-0.08,0.15c-0.14,0.23-0.26,0.43-0.36,0.61
				c-0.07,0.11-0.13,0.22-0.18,0.3c-0.12,0.22-0.19,0.35-0.21,0.39l-0.09,0.18l-0.21,0.41l-0.21,0.4l0.35,0.14l0.45,0.18l0.22,0.09
				c0.08,0.03,0.2,0.08,0.37,0.15c0.08,0.03,0.18,0.07,0.28,0.11c0.19,0.07,0.41,0.15,0.66,0.24c0.04,0.02,0.09,0.04,0.14,0.06
				c0.8,0.29,1.85,0.65,3,0.99c0.55,0.17,1.13,0.33,1.71,0.47c0.1,0.03,0.19,0.05,0.29,0.07c1.5,0.37,3.01,0.63,4.29,0.63
				c0.25,0,0.49-0.01,0.72-0.03c0.37-0.04,0.72-0.1,1.03-0.2C32.69,47.72,34.7,43.77,33.51,40.1z M28.41,47.01
				c-1.01,0.33-2.97,0.05-5.09-0.48c-0.11-0.02-0.21-0.05-0.32-0.07c-0.67-0.18-1.34-0.37-2-0.57c-0.83-0.26-1.64-0.54-2.37-0.81
				c-0.09-0.03-0.18-0.06-0.26-0.09c0.02-0.04,0.04-0.07,0.07-0.11c0.63-1.06,1.53-2.43,2.56-3.72c0.5-0.62,1.02-1.22,1.56-1.75
				c0.82-0.81,1.67-1.46,2.49-1.79c0.1-0.05,0.19-0.09,0.29-0.12c1.26-0.41,2.61-0.31,3.79,0.3c1.19,0.61,2.07,1.64,2.48,2.91
				c0.17,0.51,0.25,1.04,0.25,1.55C31.86,44.37,30.52,46.33,28.41,47.01z M18.63,45.08c-0.17,0.2-0.32,0.38-0.45,0.53
				c-0.09,0.1-0.16,0.18-0.23,0.25c0.01,0.09,0.01,0.19,0.02,0.3c0.01,0.19,0.02,0.42,0.02,0.67c0.94,0.27,1.98,0.6,3.01,0.97v-1.91
				C20.17,45.63,19.36,45.35,18.63,45.08z M18.63,45.08c-0.17,0.2-0.32,0.38-0.45,0.53c-0.09,0.1-0.16,0.18-0.23,0.25
				c0.01,0.09,0.01,0.19,0.02,0.3c0.01,0.19,0.02,0.42,0.02,0.67c0.94,0.27,1.98,0.6,3.01,0.97v-1.91
				C20.17,45.63,19.36,45.35,18.63,45.08z M18.63,45.08c-0.17,0.2-0.32,0.38-0.45,0.53c-0.09,0.1-0.16,0.18-0.23,0.25
				c0.01,0.09,0.01,0.19,0.02,0.3c0.01,0.19,0.02,0.42,0.02,0.67c0.94,0.27,1.98,0.6,3.01,0.97v-1.91
				C20.17,45.63,19.36,45.35,18.63,45.08z"/>
		</g>
	</g>
</g>
<g>
	<g>
		<circle cx="17" cy="38" r="1"/>
	</g>
</g>
<g>
	<circle cx="23" cy="43" r="1"/>
</g>
<g>
	<g>
		<circle cx="21" cy="51" r="1"/>
	</g>
</g>
<g>
	<g>
		<circle cx="13" cy="51" r="1"/>
	</g>
</g>
<g>
	<g>
		<circle cx="10" cy="43" r="1"/>
	</g>
</g>
<g>
	<g>
		<path d="M56.67,35H51v-7H33v7h-5.67c-1.16,0-2.24,0.3-3.17,0.82c-0.12,0.06-0.23,0.13-0.35,0.21C22.12,37.11,21,38.96,21,41.05
			v0.11c0.5-0.62,1.02-1.22,1.56-1.75c0.82-0.81,1.67-1.46,2.49-1.79C25.71,37.23,26.5,37,27.33,37H34c0.55,0,1-0.45,1-1v-6h14v6
			c0,0.55,0.45,1,1,1h6.67c2.39,0,4.33,1.82,4.33,4.05v13.89c0,2.24-1.94,4.06-4.33,4.06h-28c-0.23,0-0.46-0.01-0.68-0.04
			c-0.82-0.09-1.58-0.35-2.25-0.73c-0.71,0.44-1.51,0.71-2.33,0.75c0.68,0.64,1.49,1.13,2.37,1.47c0.89,0.36,1.87,0.55,2.89,0.55h28
			c3.49,0,6.33-2.72,6.33-6.06V41.05C63,37.72,60.16,35,56.67,35z"/>
	</g>
</g>
<g>
	<path d="M49,45.01C49,45.01,49,45.01,49,45.01L32.999,45C32.447,45,32,44.552,32,43.999C32,43.447,32.448,43,33,43c0,0,0,0,0.001,0
		l16,0.01c0.552,0,0.999,0.448,0.999,1.001C50,44.562,49.552,45.01,49,45.01z"/>
</g>
<g>
	<g>
		<path d="M45.17,29.99h-2.01l0.5,4.7l2.02,19.05l-1.99,0.21l-1.4-13.24l-0.65-6.14l-1.37,6.01l0.65,6.14l0.89,8.44
			c0.05,0.51,0.49,0.89,0.99,0.89h0.11l3.97-0.43c0.27-0.02,0.51-0.16,0.68-0.36c0.16-0.21,0.24-0.47,0.21-0.74L45.17,29.99z
			 M39.14,29.99l0.48,4.45l1.01-4.45H39.14z M43.08,10.27l-0.89-8.44c-0.06-0.55-0.54-0.94-1.1-0.89l-3.97,0.42
			c-0.27,0.03-0.51,0.16-0.68,0.37c-0.16,0.21-0.24,0.47-0.21,0.73L38.19,21h2.01L38.32,3.25l1.99-0.21l1.4,13.24l0.5,4.72h0.48
			l1.04-4.59L43.08,10.27z"/>
	</g>
</g>
<g>
	<g>
		<path d="M50.69,2.58c-0.14-0.23-0.36-0.39-0.62-0.45l-3.9-0.89c-0.54-0.12-1.08,0.22-1.2,0.76l-1.89,8.27l-1.37,6.01L40.63,21
			h2.06l1.04-4.59L46.7,3.42l1.95,0.44L44.74,21h2.05l4.03-17.67C50.88,3.07,50.83,2.8,50.69,2.58z M42.68,29.99l-1.04,4.58
			l-1.37,6.01L37.3,53.57l-1.95-0.44l4.27-18.69l1.01-4.45h-2.05l-5.4,23.67c-0.06,0.25-0.01,0.53,0.13,0.75
			c0.14,0.23,0.36,0.38,0.62,0.44l3.9,0.89c0.08,0.02,0.15,0.03,0.23,0.03c0.45,0,0.86-0.32,0.97-0.78l1.89-8.27l1.37-6.01
			l1.37-6.02l1.08-4.7H42.68z"/>
	</g>
</g>
</svg>