<?xml version="1.0" encoding="iso-8859-1"?>
<!-- Generator: Adobe Illustrator 23.0.6, SVG Export Plug-In . SVG Version: 6.00 Build 0)  -->
<svg version="1.1" id="Filled" xmlns="http://www.w3.org/2000/svg" xmlns:xlink="http://www.w3.org/1999/xlink" x="0px" y="0px"
	 viewBox="0 0 50 50" style="enable-background:new 0 0 50 50;" xml:space="preserve">
<path d="M28.762,4.261c-0.381-0.445-1.143-0.445-1.523,0C26.498,5.132,20,12.885,20,17c0,4.411,3.589,8,8,8s8-3.589,8-8
	C36,12.885,29.502,5.132,28.762,4.261z M28,21c-2.206,0-4-1.794-4-4c0-0.553,0.448-1,1-1s1,0.447,1,1c0,1.103,0.897,2,2,2
	c0.552,0,1,0.447,1,1S28.552,21,28,21z"/>
<path d="M47.418,27.737c-1.108-1.758-3.442-2.285-5.192-1.183l-9.35,5.763C33.585,33.04,34,34.022,34,35.055
	c0,2.17-1.765,3.935-3.935,3.935c-0.306,0-0.61-0.036-0.903-0.105c-0.769-0.182-10.592-3.124-11.71-3.458
	c-0.529-0.159-0.829-0.716-0.671-1.245c0.159-0.529,0.717-0.829,1.245-0.671c4.366,1.308,11.059,3.301,11.598,3.429
	c0.143,0.034,0.291,0.051,0.441,0.051c1.067,0,1.935-0.868,1.935-1.935c0-0.689-0.358-1.308-0.957-1.656
	c-0.291-0.169-10.162-4.485-12.147-5.356c-3.11-1.366-6.695-1.399-9.833-0.093l-6.448,2.686C2.105,30.847,2,31.31,2,31.943
	c0,0.552,0,11.995,0,12.045c0,0.552,0.448,1,1,1c0.305,0,0.548-0.165,0.587-0.194l3.485-2.556c1.776-1.303,4.143-1.589,6.226-0.732
	l11.696,4.146C25.651,45.885,26.331,46,27.007,46c1.291,0,2.563-0.417,3.625-1.222L46.37,32.853
	C48.041,31.701,48.501,29.454,47.418,27.737z"/>
</svg>