<?xml version="1.0" encoding="iso-8859-1"?>
<!-- Generator: Adobe Illustrator 24.0.3, SVG Export Plug-In . SVG Version: 6.00 Build 0)  -->
<svg version="1.1" id="Layer_1" xmlns="http://www.w3.org/2000/svg" xmlns:xlink="http://www.w3.org/1999/xlink" x="0px" y="0px"
	 viewBox="0 0 100 100" style="enable-background:new 0 0 100 100;" xml:space="preserve">
<g>
	<path style="fill:none;stroke:#000000;stroke-width:2;stroke-linecap:round;stroke-linejoin:round;stroke-miterlimit:10;" d="
		M49.5,62c-15.489,0-28-12.511-28-28s12.511-28,28-28s28,12.511,28,28S64.989,62,49.5,62z"/>
	<path style="fill:none;stroke:#000000;stroke-width:2;stroke-linecap:round;stroke-linejoin:round;stroke-miterlimit:10;" d="
		M86.337,37.5C84.58,56.32,68.788,71,49.5,71S14.42,56.32,12.663,37.5"/>
	<path style="fill:none;stroke:#000000;stroke-linecap:round;stroke-linejoin:round;stroke-miterlimit:10;" d="M72.81,31
		c-0.043-0.336-0.093-0.669-0.149-1"/>
	<path style="fill:none;stroke:#000000;stroke-linecap:round;stroke-linejoin:round;stroke-miterlimit:10;" d="M71.94,27
		c-0.212-0.68-0.454-1.348-0.725-2"/>
	<path style="fill:none;stroke:#000000;stroke-linecap:round;stroke-linejoin:round;stroke-miterlimit:10;" d="M69.709,22
		c-0.629-1.056-1.338-2.059-2.119-3"/>
	<path style="fill:none;stroke:#000000;stroke-linecap:round;stroke-linejoin:round;stroke-miterlimit:10;" d="M65.184,16.5
		c-4.16-3.731-9.657-6-15.684-6C36.521,10.5,26,21.021,26,34s10.521,23.5,23.5,23.5S73,46.979,73,34"/>
	<g>
		<path style="fill:none;stroke:#000000;stroke-width:2;stroke-linecap:round;stroke-linejoin:round;stroke-miterlimit:10;" d="
			M33.5,96v-4.2c0-0.96,0.83-1.8,1.778-1.8h28.444c0.948,0,1.778,0.84,1.778,1.8V96H33.5z"/>
	</g>
	
		<line style="fill:none;stroke:#000000;stroke-width:2;stroke-linecap:round;stroke-linejoin:round;stroke-miterlimit:10;" x1="21" y1="34" x2="16" y2="34"/>
	
		<line style="fill:none;stroke:#000000;stroke-width:2;stroke-linecap:round;stroke-linejoin:round;stroke-miterlimit:10;" x1="77.5" y1="34" x2="83" y2="34"/>
	<g>
		<path style="fill:none;stroke:#000000;stroke-linecap:round;stroke-linejoin:round;stroke-miterlimit:10;" d="M12.25,37
			C10.452,37,9,35.548,9,33.75c0-1.798,1.452-3.25,3.25-3.25s3.25,1.452,3.25,3.25C15.5,35.548,14.048,37,12.25,37z"/>
	</g>
	<g>
		<path style="fill:none;stroke:#000000;stroke-linecap:round;stroke-linejoin:round;stroke-miterlimit:10;" d="M86.75,37
			c-1.798,0-3.25-1.452-3.25-3.25c0-1.798,1.452-3.25,3.25-3.25S90,31.952,90,33.75C90,35.548,88.548,37,86.75,37z"/>
	</g>
	
		<line style="fill:none;stroke:#000000;stroke-width:2;stroke-linecap:round;stroke-linejoin:round;stroke-miterlimit:10;" x1="49.5" y1="71.095" x2="49.5" y2="89.774"/>
</g>
</svg>