<?xml version="1.0" encoding="iso-8859-1"?><!-- Generator: Adobe Illustrator 20.1.0, SVG Export Plug-In . SVG Version: 6.00 Build 0)  --><svg xmlns="http://www.w3.org/2000/svg" xmlns:xlink="http://www.w3.org/1999/xlink" viewBox="0 0 50 50" width="500px" height="500px"><g><g><path style="fill:none;stroke:#000000;stroke-width:2;stroke-linejoin:round;stroke-miterlimit:10;" d="M48,17h-3v-4c0-0.552-0.448-1-1-1H6c-0.552,0-1,0.448-1,1v4H2c-0.552,0-1,0.448-1,1v14c0,0.552,0.448,1,1,1h3v4c0,0.552,0.448,1,1,1h38c0.552,0,1-0.448,1-1v-4h3c0.552,0,1-0.448,1-1V18C49,17.448,48.552,17,48,17z"/></g></g><line style="fill:none;stroke:#000000;stroke-width:2;stroke-linecap:round;stroke-linejoin:round;stroke-miterlimit:10;" x1="34" y1="22.5" x2="34" y2="20.5"/><line style="fill:none;stroke:#000000;stroke-width:2;stroke-linecap:round;stroke-linejoin:round;stroke-miterlimit:10;" x1="34" y1="29.5" x2="34" y2="27.5"/><line style="fill:none;stroke:#000000;stroke-width:2;stroke-linecap:round;stroke-linejoin:round;stroke-miterlimit:10;" x1="15" y1="22.5" x2="15" y2="20.5"/><line style="fill:none;stroke:#000000;stroke-width:2;stroke-linecap:round;stroke-linejoin:round;stroke-miterlimit:10;" x1="15" y1="29.5" x2="15" y2="27.5"/><line style="fill:none;stroke:#000000;stroke-width:2;stroke-linecap:round;stroke-linejoin:round;stroke-miterlimit:10;" x1="44" y1="27.5" x2="44" y2="22.5"/><line style="fill:none;stroke:#000000;stroke-width:2;stroke-linecap:round;stroke-linejoin:round;stroke-miterlimit:10;" x1="6" y1="27.5" x2="6" y2="22.5"/><g><g><path style="fill:none;stroke:#000000;stroke-width:2;stroke-linejoin:round;stroke-miterlimit:10;" d="M39,28.5l3.5-3.5L39,21.5L37.5,23h-9.055c-0.693-1.191-1.968-2-3.445-2s-2.752,0.809-3.445,2H12.5L11,21.5L7.5,25l3.5,3.5l1.5-1.5h9.055c0.693,1.191,1.968,2,3.445,2s2.752-0.809,3.445-2H37.5L39,28.5z"/></g></g></svg>