<?xml version="1.0" encoding="iso-8859-1"?>
<!-- Generator: Adobe Illustrator 25.2.3, SVG Export Plug-In . SVG Version: 6.00 Build 0)  -->
<svg version="1.1" baseProfile="basic" id="Layer_1"
	 xmlns="http://www.w3.org/2000/svg" xmlns:xlink="http://www.w3.org/1999/xlink" x="0px" y="0px" viewBox="0 0 64 64"
	 xml:space="preserve">
<path style="fill:none;stroke:#000000;stroke-width:2;stroke-linecap:round;stroke-linejoin:round;stroke-miterlimit:10;" d="M22,18
	v-4.207c0-2.957,1.998-5.523,4.824-6.178C28.333,7.266,30.103,7,32,7s3.667,0.266,5.176,0.615C40.002,8.27,42,10.837,42,13.793
	v27.473c0,0-3.75,2.733-10,2.733s-10-2.733-10-2.733l0-19.045c-5.449,3.686-7,10.74-7,17.778c0,10.178,0,15,0,15s6.717,3,17,3
	s17-3,17-3s0-3.734,0-15c0-5.376-0.739-10.264-2.987-13.907"/>
</svg>