<?xml version="1.0" encoding="utf-8"?><!-- Generator: Adobe Illustrator 17.0.0, SVG Export Plug-In . SVG Version: 6.00 Build 0)  --><!DOCTYPE svg PUBLIC "-//W3C//DTD SVG 1.1//EN" "http://www.w3.org/Graphics/SVG/1.1/DTD/svg11.dtd"><svg xmlns="http://www.w3.org/2000/svg" xmlns:xlink="http://www.w3.org/1999/xlink" viewBox="0 0 50 50" width="500px" height="500px"><path fill="none" stroke="#000000" stroke-width="2" stroke-linecap="round" stroke-linejoin="round" stroke-miterlimit="10" d="M41,1c0,0-7.562,3.574-15.354,12.665c-7.792,9.092-11.29,17.855-14.645,20.296c-4.464,3.246-6.458,3.237-7.738,3.45c-1.826,0.305-2.459,1.471-2.104,2.816c0.451,1.712,2.914,1.55,4.958,0.768c1.21-0.462,2.886-1.203,4.57-2.405c2.035-1.454,6.553,3.127,9.384,0.475c3.043-2.85-2.335-8.375-1.002-10.861c3.07-5.739,5.11-9.679,8.909-14.188C34.589,6.169,41,1,41,1z"/><path fill="none" stroke="#000000" stroke-width="2" stroke-linecap="round" stroke-linejoin="round" stroke-miterlimit="10" d="M19.297,30.907C31.292,14.06,48.004,8,48.004,8s-12.737,7.341-22.869,20.751c-0.918,1.215-2.955,3.722-4.371,5.811"/><path fill="none" stroke="#000000" stroke-width="2" stroke-linecap="round" stroke-linejoin="round" stroke-miterlimit="10" d="M18.269,39.921c-0.694,1.862-1.134,3.715-1.417,6.168c-0.462,4-4.017,3.609-3.846,0.462c0.151-2.781,0.692-4.59,1.984-7.27"/><circle cx="17" cy="36" r="2"/></svg>