<?xml version="1.0" encoding="iso-8859-1"?>
<!-- Generator: Adobe Illustrator 26.5.3, SVG Export Plug-In . SVG Version: 6.00 Build 0)  -->
<svg version="1.1" baseProfile="basic" id="Layer_1"
	 xmlns="http://www.w3.org/2000/svg" xmlns:xlink="http://www.w3.org/1999/xlink" x="0px" y="0px" viewBox="0 0 50 50"
	 xml:space="preserve">
<path d="M19.125,20.273L4.893,3.069c-0.356-0.43-0.988-0.502-1.432-0.163C3.017,3.244,2.921,3.874,3.243,4.33l12.869,18.247
	c-1.411,2.078-1.414,4.906,0.195,7.012l0.649,0.901l9.533-7.288l-0.649-0.901C24.23,20.195,21.501,19.457,19.125,20.273z"/>
<g>
	<path d="M16.307,29.589l0.632,0.865l0.525-0.401c0.064-0.105,0.145-0.201,0.244-0.278l7.945-6.072
		c0.1-0.077,0.212-0.126,0.326-0.159l0.493-0.377l-0.632-0.865c-1.18-1.544-2.962-2.352-4.766-2.353
		c-0.656,0-1.315,0.107-1.949,0.325l-2.242-2.71l-3.35,1.357l2.578,3.656C14.701,24.655,14.697,27.483,16.307,29.589z"/>
	<path d="M24.067,30.184l1.708,2.235l3.334-2.549l-2.993-3.915l-6.356,4.859l2.993,3.916l1.433-1.096l-1.708-2.235
		c-0.335-0.439-0.251-1.066,0.187-1.402C23.105,29.662,23.732,29.745,24.067,30.184z"/>
	<path d="M19.872,18.038c0.397-0.06,0.798-0.09,1.202-0.09c2.514,0,4.83,1.144,6.381,3.173l0.632,0.865
		c0.637,0.872,0.465,2.089-0.383,2.753l3.602,4.712c0.335,0.438,0.251,1.066-0.187,1.402l-0.299,0.229
		c0.892,0.355,1.72,0.782,2.455,1.296c0.283,0.197,0.549,0.404,0.8,0.62c1.657,1.426,2.57,3.236,2.57,5.099
		c0,0.125-0.026,0.257-0.036,0.384C41.679,36.363,45,32.907,45,29c0-7.536-8.972-13.667-20-13.667c-2.317,0-4.562,0.276-6.707,0.796
		L19.872,18.038z"/>
	<path d="M13.391,38.481c-0.01-0.127-0.036-0.26-0.036-0.384c0-1.395,0.508-2.767,1.47-3.966c0.501-0.625,1.133-1.19,1.852-1.696
		c-0.008-0.001-0.016-0.001-0.024-0.002c-0.532-0.077-1.011-0.365-1.329-0.799l-0.606-0.831c-1.798-2.352-2.129-5.456-0.959-8.093
		l-2.556-3.624C7.238,21.651,5,25.188,5,29C5,32.907,8.321,36.363,13.391,38.481z"/>
	<path d="M25,42.666c-5.536,0-10.597-1.28-14.468-3.384l1.479,1.698c0.294,4.784,6.008,8.612,12.988,8.612
		s12.694-3.828,12.988-8.612l1.479-1.698C35.597,41.387,30.536,42.666,25,42.666z"/>
	<path d="M15.355,38.097c0,0.359,0.074,0.74,0.222,1.188c2.81,0.88,6.017,1.381,9.423,1.381s6.613-0.502,9.423-1.381
		c0.148-0.448,0.222-0.829,0.222-1.188c0-1.628-1.02-2.847-1.875-3.583c-0.201-0.173-0.415-0.339-0.641-0.497
		c-0.899-0.628-2.01-1.132-3.216-1.478l-5.738,4.387c-0.175,0.134-0.389,0.205-0.607,0.205c-0.044,0-0.088-0.003-0.132-0.009
		c-0.263-0.035-0.501-0.173-0.662-0.384l-2.636-3.448c-1.143,0.563-2.094,1.271-2.751,2.091
		C15.702,36.235,15.355,37.149,15.355,38.097z"/>
</g>
</svg>