<?xml version="1.0" encoding="iso-8859-1"?><!-- Generator: Adobe Illustrator 22.1.0, SVG Export Plug-In . SVG Version: 6.00 Build 0)  --><svg xmlns="http://www.w3.org/2000/svg" xmlns:xlink="http://www.w3.org/1999/xlink" viewBox="0 0 50 50" width="500px" height="500px"><path style="fill:none;stroke:#000000;stroke-width:2;stroke-linecap:round;stroke-linejoin:round;stroke-miterlimit:10;" d="M12,27c0,2.664,0.724,6.341,2.062,9.875l0.09,0.246"/><path style="fill:none;stroke:#000000;stroke-width:2;stroke-linecap:round;stroke-linejoin:round;stroke-miterlimit:10;" d="M30.624,45.666l-0.207,0.209C28.82,47.202,27.004,48,25,48c-1.987,0-3.789-0.864-5.375-2.269l-0.129-0.129"/><path style="fill:none;stroke:#000000;stroke-width:2;stroke-linecap:round;stroke-linejoin:round;stroke-miterlimit:10;" d="M38,27c0,2.393-0.417,5.156-1.203,7.875l-0.133,0.372"/><circle cx="30.5" cy="29.5" r="1.5"/><circle cx="19.5" cy="29.5" r="1.5"/><path style="fill:none;stroke:#000000;stroke-width:2;stroke-linecap:round;stroke-linejoin:round;stroke-miterlimit:10;" d="M12,15.75C12,8.432,17.533,2,25,2c4,0,6,2,6,2"/><path style="fill:none;stroke:#000000;stroke-width:2;stroke-linecap:round;stroke-linejoin:round;stroke-miterlimit:10;" d="M25,19c10.667,2.091,13,8,13,8s3-2,3-7.227C41,13.5,36,11,36,11"/><path style="fill:none;stroke:#000000;stroke-width:2;stroke-linecap:round;stroke-linejoin:round;stroke-miterlimit:10;" d="M12,27c0,0,2.2-5.909,13-8c6-1,11-4,11-9c0-5.227-5-6-5-6s0.68,4.273-4.72,6.364C20.462,12.616,9,13.804,9,21.864C9,26,12,27,12,27z"/><circle style="fill:none;stroke:#000000;stroke-width:2;stroke-linecap:round;stroke-linejoin:round;stroke-miterlimit:10;" cx="4" cy="43" r="2"/><circle style="fill:none;stroke:#000000;stroke-width:2;stroke-linecap:round;stroke-linejoin:round;stroke-miterlimit:10;" cx="44" cy="36" r="2"/><circle cx="6" cy="35" r="1"/><circle cx="48" cy="43" r="1"/><path style="fill:none;stroke:#000000;stroke-width:2;stroke-linecap:round;stroke-linejoin:round;stroke-miterlimit:10;" d="M21,39c0-1.311-0.846-2.414-2.018-2.822C18.987,36.119,19,36.061,19,36c0-1.105-0.895-2-2-2s-2,0.895-2,2c0,0.378,0,1,0,1c-1.657,0-3,1.343-3,3s1.343,3,3,3c0,1.657,1.343,3,3,3s3-1.343,3-3c0-0.772-0.3-1.468-0.779-2C20.7,40.468,21,39.772,21,39z"/><path style="fill:none;stroke:#000000;stroke-width:2;stroke-linecap:round;stroke-linejoin:round;stroke-miterlimit:10;" d="M36.251,38.281C36.713,37.828,37,37.198,37,36.5c0-1.381-1.119-2.5-2.5-2.5S32,35.119,32,36.5c0,0.198,0,0.5,0,0.5s-0.302,0-0.5,0c-1.381,0-2.5,1.119-2.5,2.5c0,0.641,0.248,1.22,0.645,1.662C29.247,41.671,29,42.304,29,43c0,1.657,1.343,3,3,3c1.31,0,2.412-0.845,2.821-2.015C34.881,43.989,34.939,44,35,44c1.657,0,3-1.343,3-3C38,39.791,37.281,38.756,36.251,38.281z"/></svg>