<?xml version="1.0" encoding="iso-8859-1"?><!-- Generator: Adobe Illustrator 19.1.0, SVG Export Plug-In . SVG Version: 6.00 Build 0)  --><svg xmlns="http://www.w3.org/2000/svg" xmlns:xlink="http://www.w3.org/1999/xlink" viewBox="0 0 50 50" width="500px" height="500px"><path style="fill:none;stroke:#000000;stroke-width:2;stroke-miterlimit:10;" d="M40,48c0,0,0-5.059,0-15c0-6.79-1.335-12.697-6-15.763"/><path style="fill:none;stroke:#000000;stroke-width:2;stroke-miterlimit:10;" d="M16,17.435c-4.665,3.284-6,9.431-6,15.565c0,8.981,0,15,0,15"/><path style="fill:none;stroke:#000000;stroke-width:2;stroke-miterlimit:10;" d="M34,35c0,0-3.375,3-9,3s-9-3-9-3V8.994c0-2.609,1.798-4.873,4.342-5.451C21.7,3.235,23.293,3,25,3s3.3,0.235,4.658,0.543C32.202,4.121,34,6.386,34,8.994V35z"/><path style="fill:none;stroke:#000000;stroke-width:2;stroke-miterlimit:10;" d="M30,8.994V33c0,0-4.705,2.295-10,0"/></svg>