<?xml version="1.0" encoding="iso-8859-1"?><!-- Generator: Adobe Illustrator 19.1.1, SVG Export Plug-In . SVG Version: 6.00 Build 0)  --><svg xmlns="http://www.w3.org/2000/svg" xmlns:xlink="http://www.w3.org/1999/xlink" viewBox="0 0 50 50" width="500px" height="500px"><path style="fill:none;stroke:#000000;stroke-width:2;stroke-miterlimit:10;" d="M49,23H9v-3c0-1.105,0.895-2,2-2h36c1.105,0,2,0.895,2,2V23z"/><path style="fill:none;stroke:#000000;stroke-width:2;stroke-miterlimit:10;" d="M9,23H1v-3c0-1.105,0.895-2,2-2h4c1.105,0,2,0.895,2,2V23z"/><line style="fill:none;stroke:#000000;stroke-width:2;stroke-miterlimit:10;" x1="46" y1="23" x2="46" y2="41"/><polyline style="fill:none;stroke:#000000;stroke-width:2;stroke-miterlimit:10;" points="12,23 18,30 40,30 46,23 "/><line style="fill:none;stroke:#000000;stroke-width:2;stroke-miterlimit:10;" x1="12" y1="41" x2="12" y2="23"/><line style="fill:none;stroke:#000000;stroke-width:2;stroke-miterlimit:10;" x1="12" y1="36" x2="25" y2="23"/><line style="fill:none;stroke:#000000;stroke-width:2;stroke-miterlimit:10;" x1="46" y1="36" x2="33" y2="23"/></svg>