<?xml version="1.0" encoding="iso-8859-1"?><!-- Generator: Adobe Illustrator 19.1.1, SVG Export Plug-In . SVG Version: 6.00 Build 0)  --><svg xmlns="http://www.w3.org/2000/svg" xmlns:xlink="http://www.w3.org/1999/xlink" viewBox="0 0 50 50" width="500px" height="500px"><path d="M50,23H11v-3c0-1.654,1.346-3,3-3h33c1.654,0,3,1.346,3,3V23z"/><path d="M9,23H0v-3c0-1.654,1.346-3,3-3h3c1.654,0,3,1.346,3,3V23z"/><line style="fill:none;stroke:#000000;stroke-width:2;stroke-miterlimit:10;" x1="46" y1="23" x2="46" y2="41"/><polyline style="fill:none;stroke:#000000;stroke-width:2;stroke-miterlimit:10;" points="14,23 20,30 40,30 46,23 "/><line style="fill:none;stroke:#000000;stroke-width:2;stroke-miterlimit:10;" x1="14" y1="41" x2="14" y2="23"/><line style="fill:none;stroke:#000000;stroke-width:2;stroke-miterlimit:10;" x1="14" y1="36" x2="28" y2="22"/><line style="fill:none;stroke:#000000;stroke-width:2;stroke-miterlimit:10;" x1="46" y1="36" x2="31" y2="21"/></svg>