<?xml version="1.0" encoding="iso-8859-1"?>
<!-- Generator: Adobe Illustrator 24.0.3, SVG Export Plug-In . SVG Version: 6.00 Build 0)  -->
<svg version="1.1" id="Layer_1" xmlns="http://www.w3.org/2000/svg" xmlns:xlink="http://www.w3.org/1999/xlink" x="0px" y="0px"
	 viewBox="0 0 100 100" style="enable-background:new 0 0 100 100;" xml:space="preserve">
<g>
	<path style="fill:none;stroke:#000000;stroke-width:2;stroke-linecap:round;stroke-linejoin:round;stroke-miterlimit:10;" d="
		M19.5,86c-3.032,0-5.5-2.467-5.5-5.5v-60c0-3.033,2.468-5.5,5.5-5.5h60c3.032,0,5.5,2.467,5.5,5.5v60c0,3.033-2.468,5.5-5.5,5.5
		H19.5z"/>
	<path style="fill:none;stroke:#000000;stroke-linecap:round;stroke-linejoin:round;stroke-miterlimit:10;" d="M33.5,47.5
		c-7.168,0-13-5.832-13-13s5.832-13,13-13s13,5.832,13,13S40.668,47.5,33.5,47.5z"/>
	<path style="fill:none;stroke:#000000;stroke-linecap:round;stroke-linejoin:round;stroke-miterlimit:10;" d="M76.755,28
		c1.109,1.913,1.745,4.134,1.745,6.5c0,7.168-5.832,13-13,13s-13-5.832-13-13s5.832-13,13-13"/>
	<path style="fill:none;stroke:#000000;stroke-linecap:round;stroke-linejoin:round;stroke-miterlimit:10;" d="M73.5,24.26
		c0.486,0.381,0.945,0.795,1.372,1.24"/>
	<path style="fill:none;stroke:#000000;stroke-linecap:round;stroke-linejoin:round;stroke-miterlimit:10;" d="M69.5,22.13
		c0.34,0.11,0.673,0.234,1,0.37"/>
	<path style="fill:none;stroke:#000000;stroke-linecap:round;stroke-linejoin:round;stroke-miterlimit:10;" d="M33.5,79.5
		c-7.168,0-13-5.832-13-13s5.832-13,13-13s13,5.832,13,13S40.668,79.5,33.5,79.5z"/>
	<g>
		<path style="fill:none;stroke:#000000;stroke-linecap:round;stroke-linejoin:round;stroke-miterlimit:10;" d="M65.5,79.5
			c-7.168,0-13-5.832-13-13s5.832-13,13-13s13,5.832,13,13S72.668,79.5,65.5,79.5z"/>
	</g>
</g>
</svg>