<?xml version="1.0" encoding="iso-8859-1"?>
<!-- Generator: Adobe Illustrator 18.0.0, SVG Export Plug-In . SVG Version: 6.00 Build 0)  -->
<!DOCTYPE svg PUBLIC "-//W3C//DTD SVG 1.1//EN" "http://www.w3.org/Graphics/SVG/1.1/DTD/svg11.dtd">
<svg version="1.1" id="Layer_1" xmlns="http://www.w3.org/2000/svg" xmlns:xlink="http://www.w3.org/1999/xlink" x="0px" y="0px"
	 width="50px" height="50px" viewBox="0 0 50 50" style="enable-background:new 0 0 50 50;" xml:space="preserve">
<path d="M36.303,13.372l-9.396-3.42c-0.249-0.091-0.524-0.079-0.765,0.033c-0.241,0.112-0.427,0.315-0.517,0.564l-2.052,5.639
	c-0.091,0.249-0.079,0.524,0.033,0.764c0.112,0.241,0.315,0.427,0.564,0.517l9.396,3.42c0.111,0.041,0.227,0.061,0.342,0.061
	c0.145,0,0.289-0.031,0.423-0.094c0.24-0.112,0.426-0.315,0.517-0.564l2.052-5.638C37.089,14.134,36.822,13.56,36.303,13.372z"/>
<g>
	<path d="M34.638,10.637l1.368-3.759c0.229-0.627,0.199-1.306-0.083-1.912c-0.282-0.605-0.783-1.064-1.411-1.292
		c-1.268-0.463-2.746,0.235-3.204,1.494l-1.368,3.759L34.638,10.637z"/>
</g>
<path d="M34.404,23.322l-2.46-0.895l-0.063,0.173c-0.145,0.397-0.023,0.843,0.303,1.113c0.653,0.54,0.899,1.431,0.613,2.218
	l-1.368,3.759l-2.82-1.026l2.394-6.578L29.124,21.4l-2.394,6.578l-1.879-0.684l2.394-6.578l-1.879-0.684l-2.394,6.578l-2.819-1.026
	l1.368-3.759c0.284-0.78,1.04-1.305,1.896-1.305c0.398-0.035,0.803-0.261,0.947-0.658l0.063-0.172l-2.459-0.895
	c-1.059,0.407-1.925,1.246-2.326,2.346l-5.815,15.975c-0.283,0.777-0.309,1.586-0.121,2.334c0.312,1.246,1.217,2.321,2.512,2.792
	l7.518,2.736c0.441,0.161,0.901,0.242,1.368,0.242c1.675,0,3.186-1.058,3.759-2.633l4.104-11.276c0,0,0,0,0-0.001l1.71-4.698
	C35.077,25.512,34.953,24.314,34.404,23.322z M23.985,35.492c-0.189,0.519-0.763,0.787-1.282,0.598
	c-0.519-0.189-0.787-0.763-0.598-1.282l2.052-5.638l1.879,0.684L23.985,35.492z"/>
<line style="fill:none;stroke:#000000;stroke-width:2;stroke-linecap:round;stroke-miterlimit:10;" x1="16.127" y1="17.46" x2="9.372" y2="36.019"/>
<line style="fill:none;stroke:#000000;stroke-width:2;stroke-linecap:round;stroke-miterlimit:10;" x1="10.765" y1="19.765" x2="6.746" y2="30.807"/>
<line style="fill:none;stroke:#000000;stroke-width:2;stroke-linecap:round;stroke-miterlimit:10;" x1="39.914" y1="26.754" x2="33.159" y2="45.313"/>
<line style="fill:none;stroke:#000000;stroke-width:2;stroke-linecap:round;stroke-miterlimit:10;" x1="42.54" y1="31.966" x2="38.521" y2="43.008"/>
</svg>