<?xml version="1.0" encoding="utf-8"?><!-- Generator: Adobe Illustrator 18.1.1, SVG Export Plug-In . SVG Version: 6.00 Build 0)  --><svg xmlns="http://www.w3.org/2000/svg" xmlns:xlink="http://www.w3.org/1999/xlink" viewBox="0 0 50 50" width="500px" height="500px"><circle fill="none" stroke="#000000" stroke-width="2" stroke-miterlimit="10" cx="9" cy="7" r="4"/><path fill="none" stroke="#000000" stroke-width="2" stroke-miterlimit="10" d="M43.1,19.3c2.5,2.7,3.9,6.1,3.9,9.7c0,9.4-9.8,17-22,17S3,38.4,3,29s9.8-17,22-17c2.1,0,4.1,0.2,6,0.6"/><path fill="none" stroke="#000000" stroke-width="2" stroke-linecap="round" stroke-miterlimit="10" d="M11,29c0-4.5,4.2-8.4,10-9.6"/><path fill="none" stroke="#000000" stroke-width="2" stroke-linejoin="round" stroke-miterlimit="10" d="M38,7c-3.9,0-7,3.1-7,7c0,0.7,0.1,1.4,0.3,2.1C28.9,16.4,27,18.5,27,21c0,2.8,2.2,5,5,5s5-2.2,5-5c0,0,0-0.1,0-0.1c0.3,0,0.7,0.1,1,0.1c3.9,0,7-3.1,7-7S41.9,7,38,7z"/></svg>