<?xml version="1.0" encoding="iso-8859-1"?>
<!-- Generator: Adobe Illustrator 23.1.1, SVG Export Plug-In . SVG Version: 6.00 Build 0)  -->
<svg version="1.1" id="Layer_1" xmlns="http://www.w3.org/2000/svg" xmlns:xlink="http://www.w3.org/1999/xlink" x="0px" y="0px"
	 viewBox="0 0 64 64" style="enable-background:new 0 0 64 64;" xml:space="preserve">
<path style="fill:none;stroke:#000000;stroke-width:2;stroke-miterlimit:10;" d="M56.566,31.826c0.546-0.988,0.546-2.188,0-3.176
	l0,0c-0.928-1.572-2.942-2.114-4.532-1.218L7.412,50.608c-2.204,1.159-3.051,3.886-1.894,6.091c0.014,0.026,0.028,0.053,0.043,0.079
	l0,0c1.263,2.146,4.025,2.862,6.169,1.598c0.025-0.014,0.048-0.029,0.073-0.043l43.483-25.159
	C55.827,32.851,56.271,32.384,56.566,31.826z"/>
<path style="fill:none;stroke:#000000;stroke-width:3;stroke-linecap:round;stroke-miterlimit:10;" d="M61,37c-2.232,0-5-3-5-3"/>
<path d="M52,30c-0.552,0-1,0.448-1,1s0.448,1,1,1s1-0.448,1-1S52.552,30,52,30z M9.5,53C8.672,53,8,53.672,8,54.5S8.672,56,9.5,56
	s1.5-0.672,1.5-1.5S10.328,53,9.5,53z"/>
<path style="fill:none;stroke:#000000;stroke-width:2;stroke-miterlimit:10;" d="M51,28.102c-1.69-1.587-3.462-3.081-5.309-4.478
	c-4.452-3.378-11.929-5.329-14.188-6.625L11.214,5.359c-1.237-0.731-2.827-0.31-3.551,0.937c-0.006,0.01-0.012,0.021-0.018,0.031
	L6.347,8.606c-0.715,1.253-0.288,2.854,0.954,3.576c0.006,0.004,0.013,0.008,0.019,0.012l22.586,12.936
	c1.246,0.716,2.831,0.279,3.541-0.978c0.001-0.001,0.001-0.003,0.003-0.004l0.636-1.139C38.7,25.09,43.197,27.425,47.56,30"/>
<path d="M28.507,35.675c0.491-0.254,0.682-0.857,0.429-1.348l-0.919-1.776c-0.254-0.491-0.857-0.682-1.348-0.429
	c-0.491,0.254-0.682,0.857-0.429,1.348l0.919,1.776C27.413,35.737,28.016,35.929,28.507,35.675z M24.066,37.972
	c0.491-0.254,0.682-0.857,0.429-1.348l-0.919-1.776c-0.254-0.491-0.857-0.682-1.348-0.429c-0.491,0.254-0.682,0.857-0.429,1.348
	l0.919,1.776C22.972,38.034,23.576,38.226,24.066,37.972z M19.625,40.27c0.491-0.254,0.682-0.857,0.429-1.348l-0.919-1.776
	c-0.254-0.491-0.857-0.682-1.348-0.429c-0.491,0.254-0.682,0.857-0.429,1.348l0.919,1.776C18.531,40.331,19.135,40.523,19.625,40.27
	z M15.184,42.567c0.491-0.254,0.682-0.857,0.429-1.348l-0.919-1.776c-0.254-0.491-0.857-0.682-1.348-0.429
	c-0.491,0.254-0.682,0.857-0.429,1.348l0.919,1.776C14.09,42.629,14.694,42.821,15.184,42.567z M10.743,44.864
	c0.491-0.254,0.682-0.857,0.429-1.348l-0.919-1.776c-0.254-0.491-0.857-0.682-1.348-0.429c-0.491,0.254-0.682,0.857-0.429,1.348
	l0.919,1.776C9.649,44.926,10.253,45.118,10.743,44.864z M6.302,47.162c0.491-0.254,0.682-0.857,0.429-1.348l-0.919-1.776
	c-0.254-0.491-0.857-0.682-1.348-0.429s-0.682,0.857-0.429,1.348l0.919,1.776C5.208,47.223,5.812,47.415,6.302,47.162z
	 M32.948,33.378c0.491-0.254,0.682-0.857,0.429-1.348l-0.919-1.776c-0.254-0.491-0.857-0.682-1.348-0.429
	c-0.491,0.254-0.682,0.857-0.429,1.348l0.919,1.776C31.854,33.439,32.457,33.631,32.948,33.378z"/>
</svg>