<?xml version="1.0" encoding="iso-8859-1"?><!-- Generator: Adobe Illustrator 21.0.2, SVG Export Plug-In . SVG Version: 6.00 Build 0)  --><svg xmlns="http://www.w3.org/2000/svg" xmlns:xlink="http://www.w3.org/1999/xlink" viewBox="0 0 50 50" width="500px" height="500px"><path style="fill:none;stroke:#000000;stroke-width:2;stroke-miterlimit:10;" d="M28.995,26.837C32.521,28.387,35,31.918,35,36v12"/><path style="fill:none;stroke:#000000;stroke-width:2;stroke-miterlimit:10;" d="M15,48V36c0-4.08,2.476-7.609,6-9.16"/><path d="M25,20c0.34,0,0.672,0.033,1,0.08V12h-2v8.08C24.328,20.033,24.66,20,25,20z"/><path d="M27,2h-4c-1.654,0-3,1.346-3,3v12h10V5C30,3.346,28.654,2,27,2z"/><path d="M25,20c0.34,0,0.672,0.033,1,0.08V27l2,8h-1.647l-0.864-3.456L24.625,35H22l2-8v-6.92C24.328,20.033,24.66,20,25,20c-3.859,0-7,3.141-7,7v13c0,2.206,1.794,4,4,4h6c2.206,0,4-1.794,4-4V27C32,23.141,28.859,20,25,20z"/></svg>