<?xml version="1.0" encoding="utf-8"?><!-- Generator: Adobe Illustrator 15.0.0, SVG Export Plug-In . SVG Version: 6.00 Build 0)  --><!DOCTYPE svg PUBLIC "-//W3C//DTD SVG 1.1//EN" "http://www.w3.org/Graphics/SVG/1.1/DTD/svg11.dtd"><svg xmlns="http://www.w3.org/2000/svg" xmlns:xlink="http://www.w3.org/1999/xlink" viewBox="0 0 50 50" width="500px" height="500px"><path d="M35.781,23.5L35.781,23.5c-0.505,0-0.89-0.286-1.527-0.76c-0.575-0.427-1.444-1.073-2.726-1.766c-1.438-0.779-2.988-0.683-4.258-0.648c-0.942,0.026-1.714,0.021-2.27-0.102c-0.556,0.122-1.328,0.127-2.27,0.102c-1.263-0.035-2.819-0.132-4.257,0.648c-1.281,0.693-2.151,1.339-2.726,1.767c-0.638,0.474-1.022,0.759-1.527,0.759c-1.252,0-1.252-1.429-1.252-2.039c0-2.815,7.995-8.51,9.776-8.51c0.803,0,1.581,0.209,2.254,0.6c0.673-0.391,1.451-0.6,2.255-0.6c1.781,0,9.777,5.694,9.778,8.509c0,0.495-0.021,0.778-0.072,1.013C36.793,23.232,36.221,23.5,35.781,23.5z"/><circle cx="33" cy="5" r="3"/><circle cx="17" cy="5" r="3"/><path fill="none" stroke="#000000" stroke-width="2" stroke-linecap="round" stroke-miterlimit="10" d="M35.07,30.736c3.945-3.832,7.354-9.508,8.061-16.202c2.286,0,3.868-2.449,3.868-5.564c0-3.107-1.842-4.334-4-4.334C42.928,3.382,42.738,2.124,42.5,1"/><path fill="none" stroke="#000000" stroke-width="2" stroke-linecap="round" stroke-miterlimit="10" d="M7.5,1C7.253,2.144,7.076,3.358,7,4.636c-2.274,0-4,1.106-4,4.334c0,3.233,2.071,5.554,3.87,5.554c0.848,6.531,4.143,12.132,7.957,15.975"/><path d="M25.004,39H25c-7.981-0.002-12.028-5.385-12.028-16v-1h1c1.995,0,2.842,1.75,3.523,3.155c0.589,1.217,0.992,1.956,1.614,1.956c0.315,0,0.779-0.069,1.171-0.672c0.57-0.876,0.564-2.204,0.409-2.554l-0.488-1.103l1.174-0.276C22.514,22.24,23.648,22,25,22c1.354,0,2.488,0.24,3.627,0.507l1.173,0.276l-0.486,1.102c-0.155,0.351-0.161,1.679,0.409,2.555c0.392,0.602,0.856,0.671,1.172,0.671c0.618,0,1.016-0.737,1.596-1.951C33.163,23.752,34.001,22,36,22h1v1C37,33.615,32.964,38.998,25.004,39z"/></svg>