<?xml version="1.0" encoding="utf-8"?><!-- Generator: Adobe Illustrator 15.0.0, SVG Export Plug-In . SVG Version: 6.00 Build 0)  --><!DOCTYPE svg PUBLIC "-//W3C//DTD SVG 1.1//EN" "http://www.w3.org/Graphics/SVG/1.1/DTD/svg11.dtd"><svg xmlns="http://www.w3.org/2000/svg" xmlns:xlink="http://www.w3.org/1999/xlink" viewBox="0 0 50 50" width="500px" height="500px"><path fill="none" stroke="#000000" stroke-width="2" stroke-miterlimit="10" d="M11.029,39.326c-4.112-0.896-7.342-2.999-8.943-6.23c-3.785-7.642,2.972-18.704,15.092-24.707c12.12-6.003,25.013-4.675,28.798,2.966c1.597,3.222,1.318,7.051-0.445,10.853"/><g><path d="M34.836,37.395c0,0-3.838-6.844-4.162-7.4c-0.385-0.662-2.152-0.387-3.533,0.498c-1.885,1.205-2.54,2.154-2.372,2.539c0.31,0.728,3.771,7.18,3.991,7.621c0.22,0.441,1.877,0.773,3.646-0.387C34.174,39.107,35.166,38.332,34.836,37.395z"/><g><path d="M49.986,22.835L49.9,22.327l-0.464-0.226c-1.207-0.585-3.289-0.949-5.435-0.949c-2.905,0-5.576,0.648-7.52,1.826c-2.097,1.269-3.685,3.531-4.688,5.307c0.293,0.238,0.489,0.498,0.608,0.702c0.142,0.243,0.907,1.604,1.745,3.096c0.983-1.408,2.66-3.23,3.854-1.426c1.226,1.851-1.277,2.667-2.972,2.997c0.798,1.422,1.484,2.645,1.55,2.762l0.085,0.151l0.058,0.163c0.124,0.354,0.179,0.687,0.186,1.004c0.433,0.042,0.893,0.072,1.384,0.072c2.384,0,4.448-0.609,6.139-1.813C49.618,32.293,50.418,25.408,49.986,22.835z"/></g><g><path d="M26.971,41.547c-0.066-0.134-0.411-0.781-0.87-1.644c-0.27-0.507-0.517-0.974-0.751-1.416c-0.974,1.418-2.693,3.345-3.911,1.507c-1.26-1.903,1.417-2.71,3.109-3.022c-0.938-1.777-1.472-2.811-1.612-3.141c-0.175-0.4-0.233-0.81-0.182-1.226c-0.673-0.146-1.425-0.252-2.247-0.252c-1.536,0-3.009,0.351-4.379,1.042c-4.954,2.503-7.051,8.402-8.07,11.27l-0.3,0.845l0.993,0.48c1.49,0.727,4.591,2.236,8.521,2.236c1.687,0,3.347-0.284,4.937-0.847c2.848-1.009,4.505-3.174,5.445-5.016C27.365,42.14,27.131,41.868,26.971,41.547z"/></g></g></svg>