<?xml version="1.0" encoding="iso-8859-1"?>
<!-- Generator: Adobe Illustrator 24.0.3, SVG Export Plug-In . SVG Version: 6.00 Build 0)  -->
<svg version="1.1" id="Layer_1" xmlns="http://www.w3.org/2000/svg" xmlns:xlink="http://www.w3.org/1999/xlink" x="0px" y="0px"
	 viewBox="0 0 100 100" style="enable-background:new 0 0 100 100;" xml:space="preserve">
<g>
	<path style="fill:none;stroke:#000000;stroke-linecap:round;stroke-linejoin:round;stroke-miterlimit:10;" d="M71.434,69.5
		L71,74.833c0,3.13-2.686,5.667-6,5.667H37c-3.314,0-6-2.537-6-5.667l-2-24.556c0-3.13,0.686-3.778,4-3.778"/>
	<path style="fill:none;stroke:#000000;stroke-linecap:round;stroke-linejoin:round;stroke-miterlimit:10;" d="M71.882,64
		l-0.122,1.5"/>
	<path style="fill:none;stroke:#000000;stroke-linecap:round;stroke-linejoin:round;stroke-miterlimit:10;" d="M72.452,57l-0.244,3"
		/>
	<path style="fill:none;stroke:#000000;stroke-linecap:round;stroke-linejoin:round;stroke-miterlimit:10;" d="M69,46.5
		c3.314,0,4,0.648,4,3.778L72.778,53"/>
	<polyline style="fill:none;stroke:#000000;stroke-linecap:round;stroke-linejoin:round;stroke-miterlimit:10;" points="49,42.5 
		49,61.5 45,74.5 57,74.5 53,61.5 53,42.5 	"/>
	<path style="fill:none;stroke:#000000;stroke-width:2;stroke-linecap:round;stroke-linejoin:round;stroke-miterlimit:10;" d="
		M73,46.5H61v-2.08c0-1.062-0.894-1.92-2-1.92H43c-1.106,0-2,0.858-2,1.92v2.08H29c-3.314,0-6,2.569-6,5.739v32.522
		c0,3.17,2.686,5.739,6,5.739h44c3.314,0,6-2.569,6-5.739V52.239C79,49.069,76.314,46.5,73,46.5z"/>
	<path style="fill:none;stroke:#000000;stroke-width:2;stroke-linecap:round;stroke-linejoin:round;stroke-miterlimit:10;" d="
		M59,9.342C59,8.323,58.285,7.5,57.4,7.5H44.6c-0.885,0-1.6,0.823-1.6,1.842V42.5h16V9.342z"/>
</g>
</svg>