<?xml version="1.0" encoding="iso-8859-1"?>
<!-- Generator: Adobe Illustrator 24.1.2, SVG Export Plug-In . SVG Version: 6.00 Build 0)  -->
<svg version="1.1" baseProfile="basic" id="&#x421;&#x43B;&#x43E;&#x439;_1"
	 xmlns="http://www.w3.org/2000/svg" xmlns:xlink="http://www.w3.org/1999/xlink" x="0px" y="0px" viewBox="0 0 48 48"
	 xml:space="preserve">
<path marker-end="none" marker-start="none" style="fill-rule:evenodd;clip-rule:evenodd;" d="M12.003,48c-1.928,0-7-0.227-7-0.507
	s5.072-0.493,7-0.493l1,1H12.003z"/>
<path marker-end="none" marker-start="none" style="fill-rule:evenodd;clip-rule:evenodd;" d="M35.998,48c1.928,0,7-0.227,7-0.507
	S37.926,47,35.998,47l-1,1H35.998z"/>
<path marker-end="none" marker-start="none" style="fill-rule:evenodd;clip-rule:evenodd;" d="M9.002,44.6V27.4
	c0-1.88,1.521-3.4,3.393-3.4h6.607v-2h1.501c0.275,0,0.5-0.227,0.5-0.507c0-0.267-0.225-0.493-0.5-0.493h-1.501V2.013
	C19.002,1.453,19.454,1,20.01,1h7.985c0.556,0,1.008,0.453,1.008,1.013V21h-1.5c-0.276,0-0.5,0.227-0.5,0.493
	c0,0.28,0.224,0.507,0.5,0.507h1.5v2h6.607c1.872,0,3.393,1.52,3.393,3.4v17.2c0,1.88-1.521,3.4-3.393,3.4H12.395
	C10.523,48,9.002,46.48,9.002,44.6z M37.003,43.6V27.4c0-1.32-1.075-2.4-2.393-2.4h-6.608l-0.005-1.507
	c0-0.267-0.224-0.493-0.499-0.493h-6.989c-0.276,0-0.5,0.227-0.5,0.493L20.003,25h-6.608c-1.32,0-2.393,1.08-2.393,2.4v16.2
	c0,1.32,1.073,2.4,2.393,2.4H34.61C35.929,46,37.003,44.92,37.003,43.6z M13.318,40.24l-1.284-10.533
	C11.781,27.747,13.142,26,15.094,26h5.904v-2h6.001v2h5.912c1.951,0,3.312,1.747,3.059,3.707L34.687,40.24
	C34.486,41.813,33.03,43,31.425,43H16.581C14.975,43,13.519,41.813,13.318,40.24z M15.999,28.947
	C15.975,28.4,15.507,27.973,14.95,28c-0.548,0.027-0.972,0.493-0.949,1.053c0.176,1.893,0.74,6.6,1.327,6.6
	C15.857,35.64,16.141,30.733,15.999,28.947z M24.003,20V2h-3.001v18H24.003z"/>
</svg>