<?xml version="1.0" encoding="utf-8"?><!-- Generator: Adobe Illustrator 15.0.0, SVG Export Plug-In . SVG Version: 6.00 Build 0)  --><!DOCTYPE svg PUBLIC "-//W3C//DTD SVG 1.1//EN" "http://www.w3.org/Graphics/SVG/1.1/DTD/svg11.dtd"><svg xmlns="http://www.w3.org/2000/svg" xmlns:xlink="http://www.w3.org/1999/xlink" viewBox="0 0 50 50" width="500px" height="500px"><path d="M33,24c-3.104,0-6.116-0.967-8-2.519C23.117,23.033,20.105,24,17,24c-5.526,0-7-3.457-7-5.5c0-1.818,1.894-3.474,3.974-3.474c0.497,0,0.918,0.364,0.99,0.855c0.071,0.491-0.228,0.961-0.704,1.103c-0.588,0.176-0.494,0.942-0.481,1.029C13.803,18.178,13.966,19,14.816,19c1.81,0,2.515-1.007,3.515-2.65C19.238,14.857,20.368,13,23,13c0.726,0,1.405,0.166,2,0.485C25.595,13.166,26.274,13,27,13c2.632,0,3.762,1.857,4.67,3.35c0.999,1.643,1.704,2.65,3.514,2.65c0.85,0,1.013-0.822,1.037-0.987c0.013-0.087,0.106-0.853-0.481-1.028c-0.476-0.142-0.775-0.612-0.703-1.103c0.071-0.491,0.493-0.855,0.989-0.855c2.08,0,3.975,1.656,3.975,3.474C40,20.543,38.525,24,33,24z"/><circle cx="33" cy="5" r="3"/><circle cx="17" cy="5" r="3"/><path fill="none" stroke="#000000" stroke-width="2" stroke-linecap="round" stroke-miterlimit="10" d="M7.5,1C7.253,2.144,7.076,3.358,7,4.636c-2.274,0-4,1.106-4,4.334c0,3.233,2.071,5.554,3.87,5.554C8,27,18.944,36,25,36c6.057,0,17-9,18.132-21.466c2.286,0,3.868-2.449,3.868-5.564c0-3.107-1.842-4.334-4-4.334C42.928,3.382,42.738,2.124,42.5,1"/></svg>