<?xml version="1.0" encoding="utf-8"?><!-- Generator: Adobe Illustrator 15.0.0, SVG Export Plug-In . SVG Version: 6.00 Build 0)  --><!DOCTYPE svg PUBLIC "-//W3C//DTD SVG 1.1//EN" "http://www.w3.org/Graphics/SVG/1.1/DTD/svg11.dtd"><svg xmlns="http://www.w3.org/2000/svg" xmlns:xlink="http://www.w3.org/1999/xlink" viewBox="0 0 50 50" width="500px" height="500px"><circle fill="none" stroke="#000000" stroke-width="2" stroke-miterlimit="10" cx="9" cy="7" r="4"/><path d="M44.223,19.081C45.337,17.708,46,15.946,46,14c0-4.486-3.514-8-8-8c-3.6,0-6.567,2.264-7.603,5.475C28.674,11.166,26.866,11,25,11C12.318,11,2,19.075,2,29c0,9.925,10.318,18,23,18c12.683,0,23-8.075,23-18C48,25.402,46.654,21.908,44.223,19.081z M21.203,20.379C15.784,21.5,12,25.045,12,29c0,0.553-0.448,1-1,1s-1-0.447-1-1c0-4.914,4.44-9.264,10.797-10.58c0.541-0.111,1.07,0.236,1.182,0.777C22.091,19.738,21.744,20.267,21.203,20.379z M38,20c-0.107,0-0.232-0.022-0.358-0.04C37.417,19.928,37.192,19.9,37,19.9c-0.553,0-1,0.448-1,1V21c0,2.243-1.757,4-4,4s-4-1.757-4-4c0-1.951,1.504-3.668,3.424-3.908c0.29-0.036,0.549-0.197,0.71-0.441s0.208-0.545,0.128-0.826C32.088,15.219,32,14.604,32,14c0-3.364,2.636-6,6-6s6,2.636,6,6S41.364,20,38,20z"/></svg>