<?xml version="1.0" encoding="iso-8859-1"?>
<!-- Generator: Adobe Illustrator 24.1.2, SVG Export Plug-In . SVG Version: 6.00 Build 0)  -->
<svg version="1.1" baseProfile="basic" id="Layer_1"
	 xmlns="http://www.w3.org/2000/svg" xmlns:xlink="http://www.w3.org/1999/xlink" x="0px" y="0px" viewBox="0 0 64 64"
	 xml:space="preserve">
<polygon points="61,60 18.652,60 1.758,40.993 6.242,37.007 21.348,54 61,54 "/>
<path d="M42.609,27.86c1.093-0.548,2.199-1.007,3.311-1.383C41.271,21.865,33,18.994,33,12.574c0-3.399,2.091-6.839,2.122-6.873
	L33.172,3C33.002,3.186,28,7.604,28,12.574C28,20.318,37.395,23.831,42.609,27.86z"/>
<path d="M48.051,22.447l0.296,1.213l1.207,0.287c0.112,0.027,1.503,0.337,3.052,1.343c0.074-0.001,0.149-0.009,0.223-0.009
	c1.788,0,3.533,0.247,5.211,0.73c-1.766-3.096-4.39-4.852-6.455-5.62c-1.19-3.056-4.637-7.393-11.586-7.393l1.433,3
	C46.123,15.998,47.916,21.904,48.051,22.447z"/>
<polygon points="20.33,48.129 43.341,34.314 41.12,30.982 17.394,45.226 "/>
<path d="M45.526,28.739c-0.894,0.352-1.787,0.759-2.674,1.237l2.241,3.362c0.568-0.293,1.136-0.553,1.704-0.783L45.526,28.739z"/>
<path d="M52.411,31.307c0.539-0.016,1.07,0.003,1.596,0.049l0.878-3.951c-0.915-0.11-1.844-0.139-2.782-0.101L52.411,31.307z"/>
<path d="M50.112,27.494c-0.895,0.134-1.795,0.328-2.696,0.592l1.272,3.817c0.581-0.164,1.158-0.293,1.733-0.389L50.112,27.494z"/>
<path d="M56.854,27.766l-0.867,3.904c0.537,0.135,1.063,0.305,1.578,0.511l1.486-3.715C58.334,28.179,57.6,27.949,56.854,27.766z"/>
<polygon points="14.887,46.732 3.971,53.285 6.029,56.715 17.591,49.774 "/>
</svg>