<?xml version="1.0" encoding="iso-8859-1"?>
<!-- Generator: Adobe Illustrator 24.1.2, SVG Export Plug-In . SVG Version: 6.00 Build 0)  -->
<svg version="1.1" baseProfile="basic" id="Layer_1"
	 xmlns="http://www.w3.org/2000/svg" xmlns:xlink="http://www.w3.org/1999/xlink" x="0px" y="0px" viewBox="0 0 72 72"
	 xml:space="preserve">
<path d="M44,13v8H28v-8c0-2.209,1.791-4,4-4h8C42.209,9,44,10.791,44,13z"/>
<path d="M54.654,40.618c1.71,4.885,1.472,10.17-0.67,14.882l-1.011,2.224C51.517,60.929,48.301,63,44.78,63H27.22
	c-3.521,0-6.736-2.071-8.193-5.276l-1.011-2.223c-2.142-4.713-2.38-9.998-0.67-14.883l3.707-10.591
	C22.314,26.422,25.729,24,29.548,24h12.904c3.819,0,7.233,2.422,8.495,6.026L54.654,40.618z M38.253,49
	c0.64,0,1.115-0.592,0.976-1.217L37.5,40V30h-3v10l-1.729,7.783C32.632,48.408,33.107,49,33.747,49H38.253z"/>
</svg>