<?xml version="1.0" encoding="iso-8859-1"?>
<!-- Generator: Adobe Illustrator 29.2.1, SVG Export Plug-In . SVG Version: 9.03 Build 55982)  -->
<svg version="1.1" baseProfile="basic" id="&#x421;&#x43B;&#x43E;&#x439;_1"
	 xmlns="http://www.w3.org/2000/svg" xmlns:xlink="http://www.w3.org/1999/xlink" x="0px" y="0px" viewBox="0 0 24 24"
	 xml:space="preserve">
<path style="fill:none;stroke:#000000;stroke-width:2.5;stroke-linecap:round;stroke-linejoin:round;stroke-miterlimit:10;" d="
	M8.248,18.002V9.252h7.492v8.751c0,2.069-1.677,3.746-3.746,3.746h0C9.925,21.748,8.248,20.071,8.248,18.002z"/>
<path style="fill:none;stroke:#000000;stroke-width:2.5;stroke-linecap:round;stroke-linejoin:round;stroke-miterlimit:10;" d="
	M5.249,21.748v-3.405c0-2.246,0.892-4.399,2.48-5.987l0,0"/>
<path style="fill:none;stroke:#000000;stroke-width:2.5;stroke-linecap:round;stroke-linejoin:round;stroke-miterlimit:10;" d="
	M18.751,21.748v-3.405c0-2.246-0.892-4.399-2.48-5.987l0,0"/>
<rect x="10.247" y="1.247" style="fill:none;stroke:#000000;stroke-width:2.5;stroke-linecap:round;stroke-linejoin:round;stroke-miterlimit:10;" width="3.507" height="3.507"/>
<g>
	<path d="M12.752,15.995h-1.505c-0.39,0-0.757-0.182-0.994-0.492c-0.236-0.31-0.314-0.712-0.211-1.088l0.708-2.583V5
		c0-0.69,0.56-1.25,1.25-1.25S13.25,4.31,13.25,5v6.832l0.708,2.583c0.103,0.376,0.025,0.778-0.212,1.088
		C13.509,15.812,13.142,15.995,12.752,15.995z"/>
</g>
</svg>