<?xml version="1.0" encoding="iso-8859-1"?>
<!-- Generator: Adobe Illustrator 24.3.0, SVG Export Plug-In . SVG Version: 6.00 Build 0)  -->
<svg version="1.1" xmlns="http://www.w3.org/2000/svg" xmlns:xlink="http://www.w3.org/1999/xlink" x="0px" y="0px"
	 viewBox="0 0 48 48" style="enable-background:new 0 0 48 48;" xml:space="preserve">
<g id="&#x421;&#x43B;&#x43E;&#x439;_1">
	<path d="M41.991,5.008c-1.403-1.471-3.26-1.912-4.696-2c-0.856-0.053-1.314,0.986-0.696,1.58c1.143,1.097,2.574,2.474,2.956,2.856
		c2.45,2.45,0.462,9.918-5.866,16.246c-4.171,4.171-9.351,6.866-13.197,6.866c-1.36,0-2.493-0.807-3.208-1.347
		c-0.25-0.188-1.488-1.434-2.355-2.313c-0.687-0.698-1.932-0.249-1.93,0.731c0,0.012,0,0.024,0,0.037
		c0.034,1.725,0.894,3.215,2.008,4.328C16.37,33.353,18.279,34,20.493,34c4.631,0,10.591-2.833,15.633-7.875
		C43.577,18.674,46.102,9.318,41.991,5.008z"/>
	<path style="fill:none;stroke:#000000;stroke-width:3;stroke-linejoin:round;stroke-miterlimit:10;" d="M15.454,29.55
		c-2.395,1.653-5.453,3.891-7.215,5.671c-2.787,2.817-3.556,5.796-1.858,7.511c1.698,1.716,5.11,0.469,7.432-1.878
		c2.298-2.323,4.773-5.901,6.328-8.294"/>
	<g>
		<path d="M35.5,10c-0.384,0-0.768-0.146-1.061-0.439l-3-3c-0.586-0.585-0.586-1.536,0-2.121c0.586-0.586,1.535-0.586,2.121,0l3,3
			c0.586,0.585,0.586,1.536,0,2.121C36.268,9.854,35.884,10,35.5,10z"/>
	</g>
	
		<line style="fill:none;stroke:#000000;stroke-width:3;stroke-linecap:round;stroke-miterlimit:10;" x1="34.5" y1="15.5" x2="31.5" y2="12.5"/>
	
		<line style="fill:none;stroke:#000000;stroke-width:3;stroke-linecap:round;stroke-miterlimit:10;" x1="30.5" y1="20.5" x2="27.5" y2="17.5"/>
	
		<line style="fill:none;stroke:#000000;stroke-width:3;stroke-linecap:round;stroke-miterlimit:10;" x1="25.5" y1="24.5" x2="22.5" y2="21.5"/>
	
		<line style="fill:none;stroke:#000000;stroke-width:3;stroke-linecap:round;stroke-miterlimit:10;" x1="23.5" y1="13.5" x2="21.59" y2="11.59"/>
	
		<line style="fill:none;stroke:#000000;stroke-width:3;stroke-linecap:round;stroke-miterlimit:10;" x1="19.5" y1="18.5" x2="17.5" y2="16.5"/>
	
		<line style="fill:none;stroke:#000000;stroke-width:3;stroke-linecap:round;stroke-miterlimit:10;" x1="28.5" y1="9.5" x2="26.5" y2="7.5"/>
	<g>
		<path d="M19.5,28c-0.384,0-0.768-0.146-1.061-0.439l-3-3c-0.586-0.585-0.586-1.536,0-2.121c0.586-0.586,1.535-0.586,2.121,0l3,3
			c0.586,0.585,0.586,1.536,0,2.121C20.268,27.854,19.884,28,19.5,28z"/>
	</g>
</g>
<g id="&#x421;&#x43B;&#x43E;&#x439;_2">
</g>
<g id="&#x421;&#x43B;&#x43E;&#x439;_3">
</g>
<g id="&#x421;&#x43B;&#x43E;&#x439;_4">
</g>
<g id="&#x421;&#x43B;&#x43E;&#x439;_5">
</g>
<g id="&#x421;&#x43B;&#x43E;&#x439;_6">
</g>
</svg>