<?xml version="1.0" encoding="iso-8859-1"?>
<!-- Generator: Adobe Illustrator 24.0.3, SVG Export Plug-In . SVG Version: 6.00 Build 0)  -->
<svg version="1.1" id="Layer_1" xmlns="http://www.w3.org/2000/svg" xmlns:xlink="http://www.w3.org/1999/xlink" x="0px" y="0px"
	 viewBox="0 0 100 100" style="enable-background:new 0 0 100 100;" xml:space="preserve">
<g>
	<path style="fill:none;stroke:#000000;stroke-width:2;stroke-linecap:round;stroke-linejoin:round;stroke-miterlimit:10;" d="
		M77,90V58c0-8.095-3.313-15.388-8.609-20.5"/>
	<path style="fill:none;stroke:#000000;stroke-width:2;stroke-linecap:round;stroke-linejoin:round;stroke-miterlimit:10;" d="
		M31.609,37.5C26.313,42.612,23,49.905,23,58v32"/>
	<path style="fill:none;stroke:#000000;stroke-width:2;stroke-linecap:round;stroke-linejoin:round;stroke-miterlimit:10;" d="
		M68,57.091C68,66.43,59.942,74,50,74l0,0c-9.942,0-18-7.57-18-16.909V19.515c0,0,0-7.515,8-7.515h20c8,0,8,7.515,8,7.515V57.091z"
		/>
	<path style="fill:none;stroke:#000000;stroke-linecap:round;stroke-linejoin:round;stroke-miterlimit:10;" d="M63.5,33.5v1
		 M63.5,26.5v3 M55,16h5.385c0.895,0,2.986,0,3.115,2.681V22.5"/>
</g>
</svg>