<?xml version="1.0" encoding="iso-8859-1"?><!-- Generator: Adobe Illustrator 19.2.0, SVG Export Plug-In . SVG Version: 6.00 Build 0)  --><svg xmlns="http://www.w3.org/2000/svg" xmlns:xlink="http://www.w3.org/1999/xlink" viewBox="0 0 50 50" width="500px" height="500px"><g><ellipse cx="29.546" cy="24" rx="5.547" ry="6"/><path d="M42.488,25c2.427,0,4.911-0.5,6.471-4c0,0,1.387,11-12.017,11c-5.431,0-9.388-1.234-11.736-4.264c1.565-2.466,4.558-4.843,8.102-8.145C34.499,20.89,38.906,25,42.488,25z"/></g><g><ellipse cx="20.454" cy="24" rx="5.547" ry="6"/><path d="M16.692,19.59c3.543,3.302,6.537,5.679,8.102,8.145C22.446,30.766,18.489,32,13.058,32C-0.346,32,1.041,21,1.041,21c1.56,3.5,4.044,4,6.471,4C11.094,25,15.501,20.89,16.692,19.59z"/></g></svg>