<?xml version="1.0" encoding="iso-8859-1"?><!-- Generator: Adobe Illustrator 22.0.1, SVG Export Plug-In . SVG Version: 6.00 Build 0)  --><svg xmlns="http://www.w3.org/2000/svg" xmlns:xlink="http://www.w3.org/1999/xlink" viewBox="0 0 64 64" width="512px" height="512px"><g><path d="M19,45c-0.552,0-1,0.448-1,1v2c0,0.552,0.448,1,1,1s1-0.448,1-1v-2C20,45.448,19.552,45,19,45z"/><path d="M14,45c-0.552,0-1,0.448-1,1v2c0,0.552,0.448,1,1,1s1-0.448,1-1v-2C15,45.448,14.552,45,14,45z"/><path d="M50,45c-0.552,0-1,0.448-1,1v2c0,0.552,0.448,1,1,1s1-0.448,1-1v-2C51,45.448,50.552,45,50,45z"/><path d="M45,45c-0.552,0-1,0.448-1,1v2c0,0.552,0.448,1,1,1s1-0.448,1-1v-2C46,45.448,45.552,45,45,45z"/><path d="M35,45c-0.552,0-1,0.448-1,1v2c0,0.552,0.448,1,1,1s1-0.448,1-1v-2C36,45.448,35.552,45,35,45z"/><path d="M40,45c-0.552,0-1,0.448-1,1v2c0,0.552,0.448,1,1,1s1-0.448,1-1v-2C41,45.448,40.552,45,40,45z"/><path d="M24,45c-0.552,0-1,0.448-1,1v2c0,0.552,0.448,1,1,1s1-0.448,1-1v-2C25,45.448,24.552,45,24,45z"/><path d="M29,45c-0.552,0-1,0.448-1,1v2c0,0.552,0.448,1,1,1s1-0.448,1-1v-2C30,45.448,29.552,45,29,45z"/><path d="M55.497,26.041c-0.879-0.144-1.769,0.104-2.439,0.674c-0.409,0.348-0.711,0.792-0.886,1.286h-3.757l-1.707-1.707c-0.391-0.391-1.023-0.391-1.414,0L43.586,28h-4.12c-0.328,0-0.64-0.172-0.834-0.461C37.141,25.323,34.662,24,32,24s-5.141,1.323-6.632,3.539C25.173,27.828,24.862,28,24.534,28h-4.12l-1.707-1.707c-0.391-0.391-1.023-0.391-1.414,0L15.586,28h-3.757c-0.174-0.493-0.477-0.938-0.886-1.286c-0.671-0.571-1.56-0.819-2.439-0.674C7.076,26.273,6,27.591,6,29.107v5.786c0,1.516,1.076,2.834,2.503,3.066c0.881,0.144,1.769-0.103,2.439-0.674c0.409-0.348,0.711-0.792,0.886-1.286h3.757l1.707,1.707c0.391,0.391,1.023,0.391,1.414,0L20.414,36h4.12c0.328,0,0.64,0.172,0.834,0.461C26.859,38.677,29.338,40,32,40s5.141-1.323,6.632-3.539C38.827,36.172,39.138,36,39.466,36h4.12l1.707,1.707c0.391,0.391,1.023,0.391,1.414,0L48.414,36h3.757c0.174,0.493,0.477,0.938,0.886,1.286c0.671,0.57,1.558,0.818,2.439,0.674C56.924,37.727,58,36.409,58,34.893v-5.786C58,27.591,56.924,26.273,55.497,26.041z M56,34.893c0,0.537-0.362,1.017-0.825,1.093c-0.301,0.048-0.595-0.03-0.823-0.224C54.128,35.572,54,35.294,54,35c0-0.552-0.448-1-1-1h-4.586c-0.534,0-1.036,0.208-1.414,0.586l-1,1l-1-1C44.622,34.208,44.12,34,43.586,34h-4.12c-0.995,0-1.927,0.503-2.493,1.344C35.854,37.007,33.995,38,32,38s-3.854-0.993-4.973-2.655C26.461,34.503,25.529,34,24.534,34h-4.12c-0.534,0-1.036,0.208-1.414,0.586l-1,1l-1-1C16.622,34.208,16.12,34,15.586,34H11c-0.552,0-1,0.448-1,1c0,0.294-0.128,0.572-0.353,0.762c-0.228,0.193-0.52,0.271-0.823,0.224C8.362,35.91,8,35.43,8,34.893v-5.786c0-0.537,0.362-1.017,0.825-1.093c0.303-0.047,0.595,0.031,0.823,0.224C9.872,28.428,10,28.706,10,29c0,0.552,0.448,1,1,1h4.586c0.534,0,1.036-0.208,1.414-0.586l1-1l1,1C19.378,29.792,19.88,30,20.414,30h4.12c0.995,0,1.927-0.503,2.493-1.344C28.146,26.993,30.005,26,32,26s3.854,0.993,4.973,2.655C37.539,29.497,38.471,30,39.466,30h4.12c0.534,0,1.036-0.208,1.414-0.586l1-1l1,1C47.378,29.792,47.88,30,48.414,30H53c0.552,0,1-0.448,1-1c0-0.294,0.128-0.572,0.353-0.762c0.227-0.193,0.518-0.273,0.823-0.224C55.638,28.09,56,28.57,56,29.107V34.893z"/><path d="M12,16h32c0.552,0,1-0.448,1-1s-0.448-1-1-1H12c-0.552,0-1,0.448-1,1S11.448,16,12,16z"/><path d="M48,16h4c0.552,0,1-0.448,1-1s-0.448-1-1-1h-4c-0.552,0-1,0.448-1,1S47.448,16,48,16z"/><path d="M61,16l-4.613,0.003l1.123-3.37c0.203-0.608,0.101-1.282-0.274-1.802C56.86,10.311,56.254,10,55.613,10H8.387c-0.641,0-1.248,0.311-1.623,0.831c-0.375,0.52-0.477,1.194-0.274,1.801L7.613,16H3c-1.654,0-3,1.346-3,3v26c0,1.654,1.346,3,3,3l4.612,0L6.49,51.367c-0.203,0.608-0.101,1.282,0.274,1.802C7.14,53.689,7.746,54,8.387,54h47.226c0.641,0,1.248-0.311,1.623-0.831c0.375-0.52,0.477-1.194,0.274-1.801L56.387,48H61c1.654,0,3-1.346,3-3V19C64,17.346,62.654,16,61,16z M62,45c0,0.551-0.449,1-1,1h-4.613c-0.641,0-1.248,0.311-1.623,0.831c-0.375,0.52-0.477,1.194-0.274,1.801L55.613,52L8.388,52l1.122-3.366c0.203-0.608,0.101-1.282-0.274-1.802C8.86,46.311,8.254,46,7.613,46H3c-0.551,0-1-0.449-1-1V19c0-0.551,0.449-1,1-1h4.613c0.641,0,1.248-0.311,1.623-0.831c0.375-0.52,0.477-1.194,0.274-1.801L8.387,12l47.225,0l-1.122,3.367c-0.203,0.608-0.1,1.281,0.274,1.801C55.14,17.689,55.746,18,56.387,18H61c0.551,0,1,0.449,1,1V45z"/></g></svg>