<?xml version="1.0" encoding="iso-8859-1"?>
<!-- Generator: Adobe Illustrator 24.3.0, SVG Export Plug-In . SVG Version: 6.00 Build 0)  -->
<svg version="1.1" xmlns="http://www.w3.org/2000/svg" xmlns:xlink="http://www.w3.org/1999/xlink" x="0px" y="0px"
	 viewBox="0 0 48 48" style="enable-background:new 0 0 48 48;" xml:space="preserve">
<g id="&#x421;&#x43B;&#x43E;&#x439;_1">
</g>
<g id="&#x421;&#x43B;&#x43E;&#x439;_2">
</g>
<g id="&#x421;&#x43B;&#x43E;&#x439;_3">
</g>
<g id="&#x421;&#x43B;&#x43E;&#x439;_4">
</g>
<g id="&#x421;&#x43B;&#x43E;&#x439;_5">
</g>
<g id="&#x421;&#x43B;&#x43E;&#x439;_6">
	<path d="M41.5,27h-35C4.57,27,3,25.43,3,23.5v-14C3,7.57,4.57,6,6.5,6h35C43.43,6,45,7.57,45,9.5v14C45,25.43,43.43,27,41.5,27z
		 M6.5,9C6.224,9,6,9.224,6,9.5v14C6,23.776,6.224,24,6.5,24h35c0.276,0,0.5-0.224,0.5-0.5v-14C42,9.224,41.776,9,41.5,9H6.5z"/>
	<line style="fill:none;stroke:#000000;stroke-width:3;stroke-miterlimit:10;" x1="5" y1="13.5" x2="43" y2="13.5"/>
	<line style="fill:none;stroke:#000000;stroke-width:3;stroke-miterlimit:10;" x1="5" y1="19.5" x2="43" y2="19.5"/>
	<path style="fill:none;stroke:#000000;stroke-width:3;stroke-miterlimit:10;" d="M31.773,26c0,4.293-3.48,7.773-7.773,7.773
		s-7.773-3.48-7.773-7.773"/>
	<rect x="5" y="8" width="4" height="18"/>
	<rect x="39" y="8" width="4" height="18"/>
	<path d="M26.5,33c-0.673,0-1.235,0.446-1.426,1.056h-2.149C22.735,33.446,22.173,33,21.5,33c-0.829,0-1.5,0.671-1.5,1.5v8.999
		c0,1.378,1.122,2.5,2.5,2.5h3c1.378,0,2.5-1.122,2.5-2.5V34.5C28,33.671,27.329,33,26.5,33z"/>
</g>
</svg>