<?xml version="1.0" encoding="iso-8859-1"?>
<!-- Generator: Adobe Illustrator 25.2.3, SVG Export Plug-In . SVG Version: 6.00 Build 0)  -->
<svg version="1.1" baseProfile="basic" id="Layer_1"
	 xmlns="http://www.w3.org/2000/svg" xmlns:xlink="http://www.w3.org/1999/xlink" x="0px" y="0px" viewBox="0 0 50 50"
	 xml:space="preserve">
<path d="M10.5,22.8c-0.276,0-0.5-0.224-0.5-0.5V9.5C10,9.224,10.224,9,10.5,9S11,9.224,11,9.5v12.8C11,22.576,10.776,22.8,10.5,22.8
	z"/>
<path d="M16,22.8c-0.276,0-0.5-0.224-0.5-0.5V9.5C15.5,9.224,15.724,9,16,9s0.5,0.224,0.5,0.5v12.8C16.5,22.576,16.276,22.8,16,22.8
	z"/>
<path d="M22,22.8c-0.276,0-0.5-0.224-0.5-0.5V9.5C21.5,9.224,21.724,9,22,9s0.5,0.224,0.5,0.5v12.8C22.5,22.576,22.276,22.8,22,22.8
	z"/>
<path d="M28,22.8c-0.276,0-0.5-0.224-0.5-0.5V9.5C27.5,9.224,27.724,9,28,9s0.5,0.224,0.5,0.5v12.8C28.5,22.576,28.276,22.8,28,22.8
	z"/>
<path d="M34,22.8c-0.276,0-0.5-0.224-0.5-0.5V9.5C33.5,9.224,33.724,9,34,9s0.5,0.224,0.5,0.5v12.8C34.5,22.576,34.276,22.8,34,22.8
	z"/>
<path d="M39.5,22.8c-0.276,0-0.5-0.224-0.5-0.5V9.5C39,9.224,39.224,9,39.5,9S40,9.224,40,9.5v12.8C40,22.576,39.776,22.8,39.5,22.8
	z"/>
<path d="M24.985,43.998c-1.249,0-2.535-0.327-3.699-1.011c-1.23-0.723-2.189-1.867-2.729-3.188
	c-1.047-2.562-0.581-5.352,1.124-7.344c0.231-0.27,0.345-0.652,0.313-1.06c-0.063-0.791-0.779-1.376-1.573-1.376h-3.088
	c-2.946,0-5.333-2.388-5.333-5.333V22h30v2.687c0,2.946-2.388,5.333-5.333,5.333l-3.076,0c-0.796,0-1.52,0.581-1.585,1.374
	c-0.033,0.408,0.083,0.793,0.318,1.068C31.404,33.727,32,35.338,32,37c0,2.097-0.929,4.066-2.548,5.402
	C28.188,43.444,26.613,43.998,24.985,43.998z M11,23v1.687c0,2.39,1.943,4.333,4.333,4.333h3.156c1.385,0,2.511,1.126,2.511,2.511
	c0,0.594-0.198,1.154-0.559,1.575c-1.186,1.385-1.672,3.223-1.335,5.042c0.44,2.374,2.324,4.276,4.688,4.735
	c1.805,0.346,3.633-0.107,5.021-1.252C30.204,40.485,31,38.798,31,37c0-1.423-0.51-2.804-1.437-3.888
	C29.2,32.687,29,32.125,29,31.531c0-1.385,1.126-2.511,2.511-2.511h3.156c2.39,0,4.333-1.944,4.333-4.333V23H11z"/>
<path d="M27,37c0,1.105-0.895,2-2,2s-2-0.895-2-2s0.895-2,2-2S27,35.895,27,37z"/>
</svg>