<?xml version="1.0" encoding="utf-8"?><!-- Generator: Adobe Illustrator 20.1.0, SVG Export Plug-In . SVG Version: 6.00 Build 0)  --><svg xmlns="http://www.w3.org/2000/svg" xmlns:xlink="http://www.w3.org/1999/xlink" viewBox="0 0 50 50" width="500px" height="500px"><style type="text/css">.st0{fill:none;stroke:#000000;stroke-width:2;stroke-miterlimit:10;}.st1{fill:none;stroke:#000000;stroke-width:2;stroke-linecap:round;stroke-miterlimit:10;}.st2{fill:none;stroke:#000000;stroke-width:2;stroke-linecap:round;stroke-linejoin:round;stroke-miterlimit:10;}.st3{fill:none;stroke:#000000;stroke-linecap:round;stroke-miterlimit:10;}.st4{fill:none;stroke:#000000;stroke-width:3;stroke-linecap:round;stroke-miterlimit:10;}.st5{fill:#FFFFFF;}.st6{stroke:#000000;stroke-width:2;stroke-miterlimit:10;}.st7{fill:none;stroke:#000000;stroke-width:2;stroke-linejoin:round;stroke-miterlimit:10;}.st8{fill:none;}</style><path class="st0" d="M33,13c0-3.8-5.3-5-5.3-5c0-1.4,1.1-2,2.2-2h1.9c0.2,0,0.4-0.1,0.4-0.3l0.6-2C32.9,3.3,32.7,3,32.3,3H28c-7,0-11,4.6-11,10"/><path class="st0" d="M16,14H34c0.5,0,1,0.4,1,1v30c0,1.1-1.1,2-2.4,2H17.4c-1.3,0-2.4-0.9-2.4-2V15C15,14.4,15.4,14,16,14z"/></svg>