<?xml version="1.0" encoding="iso-8859-1"?>
<!-- Generator: Adobe Illustrator 24.0.1, SVG Export Plug-In . SVG Version: 6.00 Build 0)  -->
<svg version="1.1" id="Layer_1" xmlns="http://www.w3.org/2000/svg" xmlns:xlink="http://www.w3.org/1999/xlink" x="0px" y="0px"
	 viewBox="0 0 32 32" style="enable-background:new 0 0 32 32;" xml:space="preserve">
<path style="fill:none;stroke:#000000;stroke-width:2;stroke-miterlimit:10;" d="M27,28c0,0,0-1.089,0-3c0-9.312-2.03-11.704-4-13"
	/>
<path style="fill:none;stroke:#000000;stroke-width:2;stroke-miterlimit:10;" d="M5,28c0,0,0-1.089,0-3c0-9.312,2.03-11.704,4-13"/>
<path style="fill:none;stroke:#000000;stroke-width:2;stroke-miterlimit:10;" d="M13,4h6v7h-6V4z M16,12v4"/>
<path d="M15,17l-1,4h4l-1-4H15z"/>
<path d="M22,6.121v17.083C20.724,23.483,18.082,24,16,24s-4.724-0.517-6-0.796V5.122c-1.217,0.916-2,3.371-2,5v14.66l0.757,0.188
	C8.926,25.012,12.913,26,16,26s7.074-0.988,7.243-1.03L24,24.781v-14.66C24,8.492,23.217,7.037,22,6.121z"/>
</svg>