<?xml version="1.0" encoding="iso-8859-1"?><!-- Generator: Adobe Illustrator 22.0.1, SVG Export Plug-In . SVG Version: 6.00 Build 0)  --><svg xmlns="http://www.w3.org/2000/svg" xmlns:xlink="http://www.w3.org/1999/xlink" viewBox="0 0 64 64" width="512px" height="512px"><g><path d="M61.327,21.48L46.18,2.968c-0.893-1.091-2.213-1.757-3.621-1.828c-1.403-0.064-2.787,0.461-3.784,1.458L2.599,38.774C1.602,39.771,1.07,41.15,1.14,42.558c0.07,1.408,0.736,2.728,1.827,3.621L21.48,61.326c0.558,0.456,1.23,0.682,1.9,0.682c0.77,0,1.536-0.297,2.122-0.883l0.133-0.133c0.378-0.378,0.586-0.88,0.586-1.414s-0.208-1.036-0.586-1.414l-9.899-9.9l1.414-1.414l10.607,10.606c0.195,0.195,0.451,0.293,0.707,0.293s0.512-0.098,0.707-0.293c0.391-0.391,0.391-1.023,0-1.414L18.565,45.435l1.415-1.415l10.607,10.607c0.195,0.195,0.451,0.293,0.707,0.293s0.512-0.098,0.707-0.293c0.391-0.391,0.391-1.023,0-1.414L21.393,42.606l1.414-1.414l10.607,10.607c0.195,0.195,0.451,0.293,0.707,0.293s0.512-0.098,0.707-0.293c0.391-0.391,0.391-1.023,0-1.414L24.221,39.778l1.414-1.414l10.607,10.607c0.195,0.195,0.451,0.293,0.707,0.293s0.512-0.098,0.707-0.293c0.391-0.391,0.391-1.023,0-1.414L27.05,36.95l1.415-1.415l10.607,10.607c0.195,0.195,0.451,0.293,0.707,0.293s0.512-0.098,0.707-0.293c0.391-0.391,0.391-1.023,0-1.414L29.879,34.121l1.414-1.414l10.607,10.607c0.195,0.195,0.451,0.293,0.707,0.293s0.512-0.098,0.707-0.293c0.391-0.391,0.391-1.023,0-1.414L32.707,31.293l1.414-1.414l10.606,10.607c0.195,0.195,0.451,0.293,0.707,0.293s0.512-0.098,0.707-0.293c0.391-0.391,0.391-1.023,0-1.414L35.535,28.465l1.415-1.415l10.607,10.607c0.195,0.195,0.451,0.293,0.707,0.293s0.512-0.098,0.707-0.293c0.391-0.391,0.391-1.023,0-1.414L38.364,25.636l1.414-1.414l10.607,10.607c0.195,0.195,0.451,0.293,0.707,0.293s0.512-0.098,0.707-0.293c0.391-0.391,0.391-1.023,0-1.414L41.192,22.808l1.414-1.414L53.213,32c0.195,0.195,0.451,0.293,0.707,0.293s0.512-0.098,0.707-0.293c0.391-0.391,0.391-1.023,0-1.414L44.021,19.979l1.414-1.414l10.607,10.606c0.195,0.195,0.451,0.293,0.707,0.293s0.512-0.098,0.707-0.293c0.391-0.391,0.391-1.023,0-1.414L46.849,17.151l1.415-1.415l9.899,9.899c0.756,0.756,2.073,0.754,2.827,0.001l0.136-0.136C62.22,24.407,62.307,22.679,61.327,21.48z M59.713,24.086l-0.136,0.136l-9.899-9.899c-0.779-0.78-2.049-0.78-2.828,0l-2.121,2.121c0,0-0.001,0-0.001,0.001s0,0.001,0,0.001l-2.826,2.826c0,0-0.001,0-0.001,0.001l-0.001,0.001l-8.484,8.484l-0.001,0.001c0,0,0,0.001,0,0.001l-8.485,8.484l0,0c0,0,0,0,0,0l-8.485,8.485l0,0l0,0l-2.121,2.121c-0.78,0.78-0.78,2.049,0,2.829l9.898,9.9l-0.133,0.133c-0.365,0.364-0.94,0.393-1.341,0.067L4.233,44.631h0.001c-0.665-0.543-1.054-1.315-1.097-2.173c-0.043-0.857,0.268-1.663,0.875-2.27L40.188,4.013c0.607-0.607,1.417-0.913,2.271-0.875c0.857,0.043,1.629,0.432,2.172,1.097l15.147,18.512C60.105,23.146,60.076,23.723,59.713,24.086z"/><path d="M10.787,37.657c-0.391-0.391-1.023-0.391-1.414,0c-0.391,0.39-0.391,1.023,0,1.414l1.414,1.415c0.195,0.195,0.451,0.293,0.707,0.293s0.512-0.098,0.707-0.293c0.391-0.39,0.391-1.023,0-1.414L10.787,37.657z"/><path d="M7.251,41.192c-0.391-0.391-1.023-0.391-1.414,0s-0.391,1.023,0,1.414l1.414,1.414c0.195,0.195,0.451,0.293,0.707,0.293s0.512-0.098,0.707-0.293c0.391-0.391,0.391-1.023,0-1.414L7.251,41.192z"/><path d="M14.322,34.122c-0.391-0.391-1.023-0.391-1.414,0s-0.391,1.023,0,1.414l1.414,1.414c0.195,0.195,0.451,0.293,0.707,0.293s0.512-0.098,0.707-0.293c0.391-0.391,0.391-1.023,0-1.414L14.322,34.122z"/><path d="M21.394,27.05c-0.391-0.391-1.023-0.391-1.414,0s-0.391,1.023,0,1.414l1.414,1.414c0.195,0.195,0.451,0.293,0.707,0.293s0.512-0.098,0.707-0.293c0.391-0.391,0.391-1.023,0-1.414L21.394,27.05z"/><path d="M17.857,30.585c-0.391-0.39-1.023-0.39-1.414,0s-0.391,1.024,0,1.415l1.415,1.414c0.195,0.195,0.451,0.292,0.707,0.292s0.512-0.098,0.707-0.293c0.391-0.391,0.391-1.024,0-1.415L17.857,30.585z"/><path d="M42.606,5.837c-0.391-0.391-1.023-0.391-1.414,0c-0.391,0.39-0.391,1.023,0,1.414l1.414,1.415c0.195,0.195,0.451,0.293,0.707,0.293s0.512-0.098,0.707-0.293c0.391-0.39,0.391-1.023,0-1.414L42.606,5.837z"/><path d="M28.465,19.979c-0.391-0.391-1.023-0.391-1.414,0s-0.391,1.023,0,1.414l1.414,1.414c0.195,0.195,0.451,0.293,0.707,0.293s0.512-0.098,0.707-0.293c0.391-0.391,0.391-1.023,0-1.414L28.465,19.979z"/><path d="M24.929,23.515c-0.391-0.391-1.023-0.391-1.414,0c-0.391,0.39-0.391,1.023,0,1.414l1.414,1.415c0.195,0.195,0.451,0.293,0.707,0.293s0.512-0.098,0.707-0.293c0.391-0.39,0.391-1.023,0-1.414L24.929,23.515z"/><path d="M32,16.444c-0.391-0.391-1.023-0.391-1.414,0s-0.391,1.023,0,1.414L32,19.272c0.195,0.195,0.451,0.293,0.707,0.293s0.512-0.098,0.707-0.293c0.391-0.391,0.391-1.023,0-1.414L32,16.444z"/><path d="M39.071,9.373c-0.391-0.391-1.023-0.391-1.414,0c-0.391,0.39-0.391,1.023,0,1.414l1.414,1.415c0.195,0.195,0.451,0.293,0.707,0.293s0.512-0.098,0.707-0.293c0.391-0.39,0.391-1.023,0-1.414L39.071,9.373z"/><path d="M35.535,12.908c-0.391-0.391-1.023-0.391-1.414,0s-0.391,1.023,0,1.414l1.414,1.414c0.195,0.195,0.451,0.293,0.707,0.293s0.512-0.098,0.707-0.293c0.391-0.391,0.391-1.023,0-1.414L35.535,12.908z"/></g></svg>