<?xml version="1.0" encoding="iso-8859-1"?>
<!-- Generator: Adobe Illustrator 24.3.0, SVG Export Plug-In . SVG Version: 6.00 Build 0)  -->
<svg version="1.1" xmlns="http://www.w3.org/2000/svg" xmlns:xlink="http://www.w3.org/1999/xlink" x="0px" y="0px"
	 viewBox="0 0 48 48" style="enable-background:new 0 0 48 48;" xml:space="preserve">
<g id="&#x421;&#x43B;&#x43E;&#x439;_1">
	<g>
		<path d="M30.62,29c0.405,0,0.798,0.08,1.17,0.237l6.471,3.363l0.074,0.038l0.076,0.034C38.769,32.834,39,33.192,39,33.584V40
			c0,0.551-0.449,1-1,1H10c-0.551,0-1-0.449-1-1v-6.399c0-0.395,0.233-0.754,0.594-0.914l0.074-0.033l0.072-0.037l6.646-3.387
			C16.753,29.078,17.141,29,17.541,29H30.62 M30.62,26H17.541c-0.838,0-1.667,0.176-2.433,0.516l-6.73,3.429
			C6.932,30.586,6,32.02,6,33.601V40c0,2.209,1.791,4,4,4h28c2.209,0,4-1.791,4-4v-6.416c0-1.573-0.922-3-2.356-3.647l-6.558-3.408
			C32.311,26.181,31.47,26,30.62,26L30.62,26z"/>
	</g>
	<g>
		<path d="M24,5.288c2.203,2.592,5,7.082,5,9.979C29,17.877,26.757,20,24,20c-2.757,0-5-2.123-5-4.733
			C19,12.37,21.797,7.881,24,5.288 M24,2.006c-0.665,0-1.33,0.265-1.81,0.796C19.83,5.41,16,11,16,15.267C16,19.538,19.582,23,24,23
			c4.418,0,8-3.462,8-7.733C32,11,28.17,5.41,25.81,2.802C25.33,2.272,24.665,2.006,24,2.006L24,2.006z"/>
	</g>
	<g>
		<line style="fill:none;stroke:#000000;stroke-width:3;stroke-miterlimit:10;" x1="24" y1="20" x2="24" y2="27.5"/>
	</g>
	<g>
		<path d="M24,11c0,0-3,4.343-3,6s1.343,3,3,3s3-1.343,3-3S24,11,24,11L24,11z"/>
	</g>
</g>
<g id="&#x421;&#x43B;&#x43E;&#x439;_2">
</g>
<g id="&#x421;&#x43B;&#x43E;&#x439;_3">
</g>
<g id="&#x421;&#x43B;&#x43E;&#x439;_4">
</g>
<g id="&#x421;&#x43B;&#x43E;&#x439;_5">
</g>
<g id="&#x421;&#x43B;&#x43E;&#x439;_6">
</g>
</svg>