<?xml version="1.0" encoding="iso-8859-1"?><!-- Generator: Adobe Illustrator 20.1.0, SVG Export Plug-In . SVG Version: 6.00 Build 0)  --><svg xmlns="http://www.w3.org/2000/svg" xmlns:xlink="http://www.w3.org/1999/xlink" viewBox="0 0 50 50" width="500px" height="500px"><path style="fill:none;stroke:#000000;stroke-width:2;stroke-miterlimit:10;" d="M34.56,18.21c-3.43-2.58-9.19-4.07-10.93-5.06L8,4.26C7.047,3.702,5.822,4.023,5.264,4.976C5.259,4.984,5.255,4.992,5.25,5l-1,1.74C3.699,7.697,4.028,8.92,4.985,9.471C4.99,9.474,4.995,9.477,5,9.48l17.4,9.88c0.96,0.547,2.181,0.213,2.728-0.747c0.001-0.001,0.001-0.002,0.002-0.003l0.49-0.87c3.554,1.59,7.019,3.373,10.38,5.34l2.65-1.45C37.348,20.418,35.983,19.277,34.56,18.21z"/><path style="fill:none;stroke:#000000;stroke-width:2;stroke-miterlimit:10;" d="M42.83,24.84c0.422-0.762,0.422-1.688,0-2.45l0,0c-0.717-1.213-2.272-1.631-3.5-0.94L4.87,39.33c-1.702,0.894-2.356,2.998-1.463,4.699c0.011,0.02,0.022,0.041,0.033,0.061l0,0c0.975,1.656,3.108,2.208,4.764,1.233c0.019-0.011,0.037-0.022,0.056-0.033l33.58-19.41C42.259,25.631,42.602,25.271,42.83,24.84z"/><path style="fill:none;stroke:#000000;stroke-width:3;stroke-linecap:round;stroke-miterlimit:10;" d="M47,29c-2,0-4.48-2.87-4.48-2.87"/><circle cx="40" cy="24" r="1"/><circle cx="7" cy="42" r="1"/></svg>