<?xml version="1.0" encoding="utf-8"?><!-- Generator: Adobe Illustrator 15.0.0, SVG Export Plug-In . SVG Version: 6.00 Build 0)  --><!DOCTYPE svg PUBLIC "-//W3C//DTD SVG 1.1//EN" "http://www.w3.org/Graphics/SVG/1.1/DTD/svg11.dtd"><svg xmlns="http://www.w3.org/2000/svg" xmlns:xlink="http://www.w3.org/1999/xlink" viewBox="0 0 50 50" width="500px" height="500px"><ellipse fill="none" stroke="#000000" stroke-width="2" stroke-miterlimit="10" cx="25" cy="16" rx="15" ry="11"/><path d="M25,26c-8.726,0-18,2.453-18,7v5.384C7,42.102,11.887,48,25,48c12.415,0,18-5.623,18-9.616V33C43,28.453,33.726,26,25,26z M25,28c9.913,0,16,2.912,16,5s-6.087,5-16,5S9,35.088,9,33S15.087,28,25,28z"/><ellipse cx="25" cy="33" rx="11" ry="2"/><line fill="none" stroke="#000000" stroke-width="2" stroke-linecap="round" stroke-linejoin="round" stroke-miterlimit="10" x1="17.853" y1="14.944" x2="25.239" y2="10.18"/><line fill="none" stroke="#000000" stroke-width="2" stroke-linecap="round" stroke-linejoin="round" stroke-miterlimit="10" x1="24.761" y1="21.359" x2="32.146" y2="16.594"/><line fill="none" stroke="#000000" stroke-width="2" stroke-linecap="round" stroke-linejoin="round" stroke-miterlimit="10" x1="19.09" y1="19.582" x2="30.91" y2="11.957"/></svg>