<?xml version="1.0" encoding="utf-8"?><!-- Generator: Adobe Illustrator 15.0.0, SVG Export Plug-In . SVG Version: 6.00 Build 0)  --><!DOCTYPE svg PUBLIC "-//W3C//DTD SVG 1.1//EN" "http://www.w3.org/Graphics/SVG/1.1/DTD/svg11.dtd"><svg xmlns="http://www.w3.org/2000/svg" xmlns:xlink="http://www.w3.org/1999/xlink" viewBox="0 0 50 50" width="500px" height="500px"><path d="M41.847,0.469c-0.268-0.429-0.815-0.59-1.274-0.373c-0.316,0.15-7.846,3.771-15.685,12.918c-4.087,4.769-6.99,9.42-9.322,13.157c-2.063,3.308-3.694,5.92-5.152,6.981c-3.816,2.775-5.662,3.035-6.883,3.208c-0.153,0.021-0.296,0.042-0.432,0.064C1.615,36.672,0.88,37.38,0.524,37.93c-0.467,0.723-0.582,1.605-0.333,2.552c0.348,1.321,1.517,2.079,3.207,2.079c0.919,0,2.012-0.225,3.075-0.631c1.817-0.694,3.385-1.521,4.795-2.526c0.063-0.045,0.178-0.105,0.431-0.105c0.597,0,1.456,0.324,2.366,0.667c1.171,0.442,2.498,0.943,3.802,0.943h0c1.126,0,2.098-0.375,2.886-1.114c2.244-2.101,1.016-5.127,0.029-7.559c-0.554-1.364-1.181-2.91-0.833-3.56l0.409-0.766c2.8-5.239,4.823-9.024,8.383-13.25C35.209,6.985,41.564,1.83,41.628,1.778C42.022,1.46,42.116,0.898,41.847,0.469z M17,38c-1.104,0-2-0.896-2-2s0.896-2,2-2s2,0.896,2,2S18.104,38,17,38z"/><g><path d="M48.91,7.578c-0.218-0.47-0.759-0.696-1.247-0.518c-0.545,0.197-10.806,4.01-21.016,13.824c-1.544,2.405-2.903,4.937-4.524,7.968l-0.253,0.474c0.099,0.513,0.524,1.563,0.766,2.157c0.174,0.43,0.368,0.911,0.555,1.426c0.622-0.826,1.246-1.627,1.769-2.298c0.385-0.493,0.721-0.924,0.973-1.258c9.883-13.08,22.445-20.415,22.571-20.487C48.952,8.607,49.129,8.048,48.91,7.578z"/><path d="M17.868,42.908c-1.67,0-3.245-0.595-4.512-1.073c-0.137-0.052-0.292-0.109-0.45-0.168c-0.542,1.576-0.8,3.022-0.898,4.829c-0.06,1.097,0.247,2.06,0.863,2.709C13.355,49.718,13.998,50,14.678,50c1.358,0,2.865-1.174,3.168-3.797c0.144-1.245,0.332-2.328,0.574-3.344C18.235,42.874,18.057,42.908,17.868,42.908z"/></g></svg>