<?xml version="1.0" encoding="iso-8859-1"?>
<!-- Generator: Adobe Illustrator 27.0.0, SVG Export Plug-In . SVG Version: 6.00 Build 0)  -->
<svg version="1.1" baseProfile="basic" xmlns="http://www.w3.org/2000/svg" xmlns:xlink="http://www.w3.org/1999/xlink" x="0px"
	 y="0px" viewBox="0 0 64 64" xml:space="preserve">
<g id="Layer_1">
</g>
<g id="Layer_2">
</g>
<g id="Layer_3">
</g>
<g id="Layer_4">
	<rect x="26" y="4" width="4" height="8"/>
	<rect x="34" y="4" width="4" height="8"/>
	<rect x="34" y="28" width="4" height="8"/>
	<rect x="42" y="4" width="4" height="8"/>
	<path d="M50,8l-3,12H25L22,8V4h-8v4l4,16h3v25c0,6.065,4.937,11,11.006,11h4h0.268v-0.003C42.211,59.863,47,54.981,47,49V24h3l4-16
		V4h-4V8z M43,49c0,3.859-3.129,7-6.976,7h-0.019C32.143,56,29,52.859,29,49V24h14V49z"/>
</g>
<g id="Layer_5">
</g>
<g id="Layer_6">
</g>
</svg>