<?xml version="1.0" encoding="iso-8859-1"?>
<!-- Generator: Adobe Illustrator 18.0.0, SVG Export Plug-In . SVG Version: 6.00 Build 0)  -->
<!DOCTYPE svg PUBLIC "-//W3C//DTD SVG 1.1//EN" "http://www.w3.org/Graphics/SVG/1.1/DTD/svg11.dtd">
<svg version="1.1" id="Layer_1" xmlns="http://www.w3.org/2000/svg" xmlns:xlink="http://www.w3.org/1999/xlink" x="0px" y="0px"
	 width="32px" height="32px" viewBox="0 0 32 32" style="enable-background:new 0 0 32 32;" xml:space="preserve">
<path d="M28,16h-1.998l0.001-0.998L26.006,13h-2.002H18h-2v2v0.443c0.727,0.165,1.402,0.467,2,0.884V15h6.003L24,18h4v10h-9.568
	c-0.225,0.726-0.594,1.405-1.102,2H28h2v-2V18v-2H28z"/>
<g>
	<path style="fill:none;stroke:#000000;stroke-width:2;stroke-linecap:round;stroke-linejoin:round;stroke-miterlimit:10;" d="
		M15.201,24.697c-0.88-1.211-4.98-2.244-4.98-2.244s-0.285,4.219,0.595,5.43c0.88,1.211,2.575,1.479,3.785,0.6
		C15.813,27.602,16.081,25.907,15.201,24.697z"/>
	<path style="fill:none;stroke:#000000;stroke-width:2;stroke-linecap:round;stroke-linejoin:round;stroke-miterlimit:10;" d="
		M12.931,17.71c0,1.497-2.71,4.743-2.71,4.743s-2.71-3.246-2.71-4.743c0-1.497,1.213-2.71,2.71-2.71S12.931,16.213,12.931,17.71z"/>
	<path style="fill:none;stroke:#000000;stroke-width:2;stroke-linecap:round;stroke-linejoin:round;stroke-miterlimit:10;" d="
		M13.895,18.41c-1.423,0.463-3.673,4.043-3.673,4.043s3.925,1.575,5.348,1.112c1.423-0.462,2.203-1.992,1.74-3.415
		C16.847,18.726,15.318,17.947,13.895,18.41z"/>
	<path style="fill:none;stroke:#000000;stroke-width:2;stroke-linecap:round;stroke-linejoin:round;stroke-miterlimit:10;" d="
		M6.548,18.41c1.423,0.463,3.673,4.043,3.673,4.043s-3.925,1.575-5.348,1.112c-1.423-0.462-2.203-1.992-1.74-3.415
		C3.596,18.726,5.125,17.947,6.548,18.41z"/>
	<path style="fill:none;stroke:#000000;stroke-width:2;stroke-linecap:round;stroke-linejoin:round;stroke-miterlimit:10;" d="
		M5.241,24.697c0.88-1.211,4.98-2.244,4.98-2.244s0.285,4.219-0.595,5.43c-0.88,1.211-2.575,1.479-3.785,0.6
		S4.361,25.907,5.241,24.697z"/>
</g>
<g>
	<polygon points="24.034,11 26.413,2.464 24.486,1.927 21.958,11 	"/>
	<path d="M21.4,13l-1.533,5.5c0.112,0.232,0.213,0.472,0.294,0.723c0.472,1.45,0.35,2.998-0.342,4.356
		c-0.312,0.613-0.736,1.142-1.226,1.595c0.027,0.138,0.035,0.278,0.052,0.417l1.226,0.342L23.477,13H21.4z"/>
</g>
<line style="fill:none;stroke:#000000;stroke-width:2;stroke-miterlimit:10;" x1="14.877" y1="14" x2="26.807" y2="14"/>
<path d="M20.326,22c-0.099,0.541-0.25,1.075-0.507,1.579c-0.077,0.15-0.179,0.28-0.268,0.421H28v-2H20.326z"/>
<g>
	<polygon points="18.523,13 22.127,25.933 24.054,25.396 20.6,13 	"/>
	<polygon points="20.042,11 17.514,1.927 15.587,2.464 17.966,11 	"/>
</g>
</svg>