<?xml version="1.0" encoding="iso-8859-1"?>
<!-- Generator: Adobe Illustrator 24.1.2, SVG Export Plug-In . SVG Version: 6.00 Build 0)  -->
<svg version="1.1" baseProfile="basic" id="Layer_1"
	 xmlns="http://www.w3.org/2000/svg" xmlns:xlink="http://www.w3.org/1999/xlink" x="0px" y="0px" viewBox="0 0 64 64"
	 xml:space="preserve">
<g>
	<path d="M22.101,54.627l-4.243,4.243c-0.781,0.781-2.047,0.781-2.828,0L5.13,48.971c-0.781-0.781-0.781-2.047,0-2.828l4.243-4.243
		L22.101,54.627z"/>
	<path d="M58.87,17.858l-4.243,4.243L41.899,9.373l4.243-4.243c0.781-0.781,2.047-0.781,2.828,0l9.899,9.899
		C59.651,15.81,59.651,17.077,58.87,17.858z"/>
	<path d="M60.284,23.515L40.485,3.716c-1.172-1.172-3.071-1.172-4.243,0L3.716,36.243c-1.172,1.172-1.172,3.071,0,4.243
		l19.799,19.799c1.172,1.172,3.071,1.172,4.243,0l32.527-32.527C61.456,26.586,61.456,24.686,60.284,23.515z M46.849,21.393
		l-1.16-1.624l-1.669,1.709v2.743h-2.679l-2.17,2.222l2.727,2.727l-2.121,2.121l-2.435-2.976l-1.808,1.852
		c0.78,1.506,0.556,3.397-0.707,4.66c-1.24,1.24-3.084,1.479-4.577,0.751L28.25,37.63l2.336,2.855l-1.414,1.414l-2.576-2.576
		l-2.374,2.431v2.266h-2.213l-2.222,2.276l0.9,1.26l-1.414,1.414l-1.061-1.061l0,0l-2.121-2.121l0,0l-1.061-1.061l2.121-2.121
		l0.903,1.264l1.925-1.88v-2.213h2.266l2.431-2.374l-2.576-2.576l2.121-2.121l2.338,2.858l1.861-1.817
		c-0.728-1.492-0.489-3.337,0.751-4.577c1.263-1.263,3.154-1.487,4.66-0.707l2.019-1.972l-2.437-2.978l1.414-1.414l2.727,2.727
		l2.222-2.17v-2.679h2.743l1.954-1.908l-1.162-1.627l1.414-1.414l1.414,1.414h0l1.414,1.414v0l1.414,1.414L46.849,21.393z"/>
</g>
</svg>