<?xml version="1.0" encoding="utf-8"?><!-- Generator: Adobe Illustrator 18.1.1, SVG Export Plug-In . SVG Version: 6.00 Build 0)  --><svg xmlns="http://www.w3.org/2000/svg" xmlns:xlink="http://www.w3.org/1999/xlink" viewBox="0 0 50 50" width="500px" height="500px"><path fill="none" stroke="#000000" stroke-width="2" stroke-linecap="round" stroke-linejoin="round" stroke-miterlimit="10" d="M25,2C1.8,2,10.7,36.7,1,41c0,0,6.2,7,12,7c2.2,0,4-1,4-4c0-9.5-3.3-23.7,0-27c0,0,3.8,1,8,1s8-1,8-1c3.3,3.3,0,17.5,0,27c0,3,1.8,4,4,4c5.8,0,12-7,12-7c-9.4-4,0.4-34.1-17-36C32,5,29.8,2,25,2z"/></svg>