<?xml version="1.0" encoding="iso-8859-1"?>
<!-- Generator: Adobe Illustrator 18.0.0, SVG Export Plug-In . SVG Version: 6.00 Build 0)  -->
<!DOCTYPE svg PUBLIC "-//W3C//DTD SVG 1.1//EN" "http://www.w3.org/Graphics/SVG/1.1/DTD/svg11.dtd">
<svg version="1.1" id="Layer_1" xmlns="http://www.w3.org/2000/svg" xmlns:xlink="http://www.w3.org/1999/xlink" x="0px" y="0px"
	 width="24px" height="24px" viewBox="0 0 24 24" style="enable-background:new 0 0 24 24;" xml:space="preserve">
<path d="M22,12h-1.001L21,11.002c0.001-0.531-0.21-1.04-0.585-1.415S19.531,9,19,9h-6c-0.971,0-1.779,0.692-1.961,1.61
	c0.165,0.218,0.319,0.444,0.45,0.687c0.535,0.091,1.04,0.271,1.511,0.513V11h6v3h3v8h-7.756c-0.168,0.718-0.48,1.403-0.944,2H22
	c1.105,0,2-0.895,2-2v-8C24,12.895,23.105,12,22,12z"/>
<path d="M13.669,15.442c-0.486-1.494-2.026-2.434-3.574-2.183c-0.239-1.541-1.574-2.725-3.181-2.725s-2.942,1.184-3.181,2.725
	c-1.548-0.252-3.088,0.688-3.574,2.184c-0.266,0.817-0.197,1.689,0.193,2.456c0.314,0.617,0.807,1.106,1.415,1.412
	c-0.712,1.387-0.327,3.129,0.972,4.073c1.252,0.91,3.099,0.744,4.175-0.335C7.513,23.651,8.337,24,9.199,24
	c0.683,0,1.336-0.213,1.89-0.615c1.299-0.944,1.685-2.687,0.972-4.074C13.453,18.607,14.166,16.971,13.669,15.442z M7.008,19.598
	c-1.105,0-2-0.895-2-2s0.895-2,2-2s2,0.895,2,2S8.113,19.598,7.008,19.598z"/>
<path d="M15.786,17c-0.133,1.147-0.647,2.221-1.448,3.052c0.14,1.006-0.018,2.03-0.442,2.948h9.078v-6H15.786z"/>
<path d="M11,9v1.562c0.109,0.14,0.208,0.287,0.303,0.438H21V9H11z"/>
<g>
	<polygon points="18.631,7 20.461,0.583 18.539,0.034 16.552,7 	"/>
	<path d="M18.061,9h-2.079l-1.224,4.291c0.345,0.456,0.628,0.966,0.813,1.533c0.23,0.709,0.284,1.528,0.21,2.223l0.516,0.016
		l-0.125-1.438L18.061,9z"/>
</g>
<g>
	<polygon points="15.448,7 13.461,0.034 11.539,0.583 13.369,7 	"/>
	<polygon points="13.939,9 17.083,20.023 19.005,19.475 16.018,9 	"/>
</g>
</svg>