<?xml version="1.0" encoding="iso-8859-1"?>
<!-- Generator: Adobe Illustrator 22.1.0, SVG Export Plug-In . SVG Version: 6.00 Build 0)  -->
<svg version="1.1" id="Layer_1" xmlns="http://www.w3.org/2000/svg" xmlns:xlink="http://www.w3.org/1999/xlink" x="0px" y="0px"
	 viewBox="0 0 100 100" style="enable-background:new 0 0 100 100;" xml:space="preserve">
<g>
	<path style="fill:none;stroke:#000000;stroke-width:2;stroke-linecap:round;stroke-linejoin:round;stroke-miterlimit:10;" d="
		M24,67c1.483,0,2.878,0.365,4.111,1L29,53l7-39l7,39c0,0-10,6-10,12c0,10,0,11,0,11c0,4.97-4.029,9-9,9s-9-4.03-9-9
		C15,71.029,19.029,67,24,67z"/>
	
		<circle style="fill:none;stroke:#000000;stroke-width:2;stroke-linecap:round;stroke-linejoin:round;stroke-miterlimit:10;" cx="48" cy="76" r="4"/>
	<path style="fill:none;stroke:#000000;stroke-width:2;stroke-linecap:round;stroke-linejoin:round;stroke-miterlimit:10;" d="
		M36.01,58.76C37.685,60.649,39,62.825,39,65c0,10,0,11,0,11c0,4.97,4.029,9,9,9s9-4.03,9-9c0-4.971-4.029-9-9-9
		c-1.483,0-2.878,0.365-4.111,1L43,53"/>
	<path style="fill:none;stroke:#000000;stroke-width:2;stroke-linecap:round;stroke-linejoin:round;stroke-miterlimit:10;" d="
		M44,84.064c0,0,1,7.936,10,7.936"/>
	
		<circle style="fill:none;stroke:#000000;stroke-width:2;stroke-linecap:round;stroke-linejoin:round;stroke-miterlimit:10;" cx="24" cy="76" r="4"/>
	
		<circle style="fill:none;stroke:#000000;stroke-linecap:round;stroke-linejoin:round;stroke-miterlimit:10;" cx="36" cy="49" r="2.5"/>
</g>
<g>
	<line style="fill:none;stroke:#000000;stroke-linecap:round;stroke-miterlimit:10;" x1="55.5" y1="13.5" x2="67" y2="13.5"/>
	<line style="fill:none;stroke:#000000;stroke-linecap:round;stroke-miterlimit:10;" x1="55.5" y1="17.5" x2="67" y2="17.5"/>
	<line style="fill:none;stroke:#000000;stroke-linecap:round;stroke-miterlimit:10;" x1="55.5" y1="21.5" x2="67" y2="21.5"/>
	<line style="fill:none;stroke:#000000;stroke-linecap:round;stroke-miterlimit:10;" x1="55.5" y1="25.5" x2="67" y2="25.5"/>
	<line style="fill:none;stroke:#000000;stroke-linecap:round;stroke-miterlimit:10;" x1="55.5" y1="29.5" x2="67" y2="29.5"/>
	<line style="fill:none;stroke:#000000;stroke-linecap:round;stroke-miterlimit:10;" x1="55.5" y1="33.5" x2="67" y2="33.5"/>
	<line style="fill:none;stroke:#000000;stroke-linecap:round;stroke-miterlimit:10;" x1="55.5" y1="37.5" x2="67" y2="37.5"/>
	<line style="fill:none;stroke:#000000;stroke-linecap:round;stroke-miterlimit:10;" x1="55.5" y1="41.5" x2="67" y2="41.5"/>
	<line style="fill:none;stroke:#000000;stroke-linecap:round;stroke-miterlimit:10;" x1="55.5" y1="45.5" x2="67" y2="45.5"/>
	<line style="fill:none;stroke:#000000;stroke-linecap:round;stroke-miterlimit:10;" x1="55.5" y1="49.5" x2="67" y2="49.5"/>
	<path style="fill:none;stroke:#000000;stroke-width:2;stroke-linejoin:round;stroke-miterlimit:10;" d="M74,14h-7v35
		c2.253,0,4.625,1.156,4.822,4.291C72.438,63.106,74,85,74,85h4V18C78,15.791,76.209,14,74,14z"/>
	<line style="fill:none;stroke:#000000;stroke-linecap:round;stroke-miterlimit:10;" x1="73.5" y1="14.5" x2="73.5" y2="34.5"/>
	<line style="fill:none;stroke:#000000;stroke-linecap:round;stroke-miterlimit:10;" x1="73.5" y1="37.5" x2="73.5" y2="41.5"/>
	<line style="fill:none;stroke:#000000;stroke-linecap:round;stroke-miterlimit:10;" x1="73.5" y1="44.5" x2="73.5" y2="45.5"/>
</g>
</svg>