<?xml version="1.0" encoding="iso-8859-1"?><!-- Generator: Adobe Illustrator 23.0.1, SVG Export Plug-In . SVG Version: 6.00 Build 0)  --><svg xmlns="http://www.w3.org/2000/svg" xmlns:xlink="http://www.w3.org/1999/xlink" viewBox="0 0 50 50" width="500px" height="500px"><circle style="fill:none;stroke:#000000;stroke-width:2;stroke-miterlimit:10;" cx="32.5" cy="10.5" r="2.5"/><circle style="fill:none;stroke:#000000;stroke-width:2;stroke-miterlimit:10;" cx="39.5" cy="17.5" r="2.5"/><circle style="fill:none;stroke:#000000;stroke-width:2;stroke-miterlimit:10;" cx="30.5" cy="19.5" r="2.5"/><path style="fill:none;stroke:#000000;stroke-width:2;stroke-linecap:round;stroke-miterlimit:10;" d="M32.713,25.772c-5.621,5.621-8.221,8.849-10.187,11.444c-2.593,3.422-5.964,6.198-9.897,7.919C11.447,45.653,10.462,46,10,46c-1.536,0-3.071-0.586-4.243-1.757C4.586,43.071,4,41.536,4,40c0-0.479,0.373-1.52,0.922-2.76c1.713-3.87,4.395-7.232,7.77-9.784c2.718-2.055,6.109-4.742,11.536-10.169"/><path style="fill:none;stroke:#000000;stroke-width:2;stroke-miterlimit:10;" d="M22.768,30.061l-4.718,4.718c-0.391,0.391-1.024,0.391-1.414,0l-1.414-1.414c-0.391-0.391-0.391-1.024,0-1.414l4.718-4.718c0.391-0.391,1.024-0.391,1.414,0l1.414,1.414C23.158,29.037,23.158,29.67,22.768,30.061z"/><line style="fill:none;stroke:#000000;stroke-width:2;stroke-miterlimit:10;" x1="17.465" y1="29.358" x2="20.465" y2="32.358"/><path style="fill:none;stroke:#000000;stroke-width:2;stroke-miterlimit:10;" d="M37,5.814C35.831,4.691,34.245,4,32.5,4c-3.068,0-5.646,2.137-6.325,5C26.06,9.482,24,17.19,24,19.5c0,3.584,2.916,6.5,6.5,6.5c2.31,0,10.018-2.06,10.5-2.175c2.863-0.679,5-3.257,5-6.325c0-1.745-0.691-3.331-1.814-4.5C43.002,11.768,38.232,6.998,37,5.814z"/></svg>