<?xml version="1.0" encoding="iso-8859-1"?><!-- Generator: Adobe Illustrator 22.1.0, SVG Export Plug-In . SVG Version: 6.00 Build 0)  --><svg xmlns="http://www.w3.org/2000/svg" xmlns:xlink="http://www.w3.org/1999/xlink" viewBox="0 0 50 50" width="500px" height="500px"><path d="M27,30v6c0,1.1-0.9,2-2,2s-2-0.9-2-2v-6c0,1.1,0.9,2,2,2S27,31.1,27,30z"/><path d="M14.83,17l0.09,1.06c0.07,0.84,0.35,1.65,0.82,2.35l0.59,0.88c0.44,0.66,0.67,1.43,0.67,2.22v16.2c0,4.36,3.65,8.16,7.97,8.29h0.24c2.03,0,3.93-0.76,5.37-2.16C32.14,44.33,33,42.25,33,40V23.51c0-0.79,0.23-1.56,0.67-2.22l0.59-0.88c0.47-0.7,0.75-1.51,0.82-2.36L35.17,17H14.83z M29,36c0,2.21-1.79,4-4,4s-4-1.79-4-4v-6c0-2.21,1.79-4,4-4s4,1.79,4,4V36z"/><path d="M36,7.08L35.34,15H14.66L14,7.08c-0.02-0.28,0.08-0.55,0.26-0.76C14.45,6.12,14.72,6,15,6h3V4c0-0.55,0.45-1,1-1s1,0.45,1,1v5c0,0.55,0.45,1,1,1s1-0.45,1-1V4c0-0.55,0.45-1,1-1s1,0.45,1,1v5c0,0.55,0.45,1,1,1s1-0.45,1-1V4c0-0.55,0.45-1,1-1s1,0.45,1,1v5c0,0.55,0.45,1,1,1s1-0.45,1-1V4c0-0.55,0.45-1,1-1s1,0.45,1,1v2h3c0.28,0,0.55,0.12,0.74,0.32C35.92,6.53,36.02,6.8,36,7.08z"/></svg>