<?xml version="1.0" encoding="iso-8859-1"?>
<!-- Generator: Adobe Illustrator 23.0.6, SVG Export Plug-In . SVG Version: 6.00 Build 0)  -->
<svg version="1.1" id="&#x421;&#x43B;&#x43E;&#x439;_2"
	 xmlns="http://www.w3.org/2000/svg" xmlns:xlink="http://www.w3.org/1999/xlink" x="0px" y="0px" viewBox="0 0 80 80"
	 style="enable-background:new 0 0 80 80;" xml:space="preserve">
<path style="fill:none;stroke:#000000;stroke-width:2;stroke-linecap:round;stroke-linejoin:round;stroke-miterlimit:10;" d="M55,11
	c-4.333,0-8.667,0-13,0"/>
<path d="M53,16c0-0.55,0.45-1,1-1l0,0c0.55,0,1,0.45,1,1l0,0c0,0.55-0.45,1-1,1l0,0C53.45,17,53,16.55,53,16z M49,16
	c0-0.55,0.45-1,1-1l0,0c0.55,0,1,0.45,1,1l0,0c0,0.55-0.45,1-1,1l0,0C49.45,17,49,16.55,49,16z M45,16c0-0.55,0.45-1,1-1l0,0
	c0.55,0,1,0.45,1,1l0,0c0,0.55-0.45,1-1,1l0,0C45.45,17,45,16.55,45,16z M41,16c0-0.55,0.45-1,1-1l0,0c0.55,0,1,0.45,1,1l0,0
	c0,0.55-0.45,1-1,1l0,0C41.45,17,41,16.55,41,16z"/>
<path d="M53,21c0-0.55,0.45-1,1-1l0,0c0.55,0,1,0.45,1,1l0,0c0,0.55-0.45,1-1,1l0,0C53.45,22,53,21.55,53,21z M49,21
	c0-0.55,0.45-1,1-1l0,0c0.55,0,1,0.45,1,1l0,0c0,0.55-0.45,1-1,1l0,0C49.45,22,49,21.55,49,21z M45,21c0-0.55,0.45-1,1-1l0,0
	c0.55,0,1,0.45,1,1l0,0c0,0.55-0.45,1-1,1l0,0C45.45,22,45,21.55,45,21z M41,21c0-0.55,0.45-1,1-1l0,0c0.55,0,1,0.45,1,1l0,0
	c0,0.55-0.45,1-1,1l0,0C41.45,22,41,21.55,41,21z"/>
<path d="M53,26c0-0.55,0.45-1,1-1l0,0c0.55,0,1,0.45,1,1l0,0c0,0.55-0.45,1-1,1l0,0C53.45,27,53,26.55,53,26z M49,26
	c0-0.55,0.45-1,1-1l0,0c0.55,0,1,0.45,1,1l0,0c0,0.55-0.45,1-1,1l0,0C49.45,27,49,26.55,49,26z M45,26c0-0.55,0.45-1,1-1l0,0
	c0.55,0,1,0.45,1,1l0,0c0,0.55-0.45,1-1,1l0,0C45.45,27,45,26.55,45,26z M41,26c0-0.55,0.45-1,1-1l0,0c0.55,0,1,0.45,1,1l0,0
	c0,0.55-0.45,1-1,1l0,0C41.45,27,41,26.55,41,26z"/>
<path d="M53,31c0-0.55,0.45-1,1-1l0,0c0.55,0,1,0.45,1,1l0,0c0,0.55-0.45,1-1,1l0,0C53.45,32,53,31.55,53,31z M49,31
	c0-0.55,0.45-1,1-1l0,0c0.55,0,1,0.45,1,1l0,0c0,0.55-0.45,1-1,1l0,0C49.45,32,49,31.55,49,31z M45,31c0-0.55,0.45-1,1-1l0,0
	c0.55,0,1,0.45,1,1l0,0c0,0.55-0.45,1-1,1l0,0C45.45,32,45,31.55,45,31z M41,31c0-0.55,0.45-1,1-1l0,0c0.55,0,1,0.45,1,1l0,0
	c0,0.55-0.45,1-1,1l0,0C41.45,32,41,31.55,41,31z"/>
<path d="M53,36c0-0.55,0.45-1,1-1l0,0c0.55,0,1,0.45,1,1l0,0c0,0.55-0.45,1-1,1l0,0l0,0l0,0C53.45,37,53,36.55,53,36z M49,36
	c0-0.55,0.45-1,1-1l0,0c0.55,0,1,0.45,1,1l0,0c0,0.55-0.45,1-1,1l0,0l0,0l0,0C49.45,37,49,36.55,49,36z M45,36c0-0.55,0.45-1,1-1
	l0,0c0.55,0,1,0.45,1,1l0,0c0,0.55-0.45,1-1,1l0,0l0,0l0,0C45.45,37,45,36.55,45,36z M41,36c0-0.55,0.45-1,1-1l0,0
	c0.55,0,1,0.45,1,1l0,0c0,0.55-0.45,1-1,1l0,0l0,0l0,0C41.45,37,41,36.55,41,36z"/>
<path d="M53,41c0-0.55,0.45-1,1-1l0,0c0.55,0,1,0.45,1,1l0,0c0,0.55-0.45,1-1,1l0,0C53.45,42,53,41.55,53,41z M49,41
	c0-0.55,0.45-1,1-1l0,0c0.55,0,1,0.45,1,1l0,0c0,0.55-0.45,1-1,1l0,0C49.45,42,49,41.55,49,41z M45,41c0-0.55,0.45-1,1-1l0,0
	c0.55,0,1,0.45,1,1l0,0c0,0.55-0.45,1-1,1l0,0C45.45,42,45,41.55,45,41z M41,41c0-0.55,0.45-1,1-1l0,0c0.55,0,1,0.45,1,1l0,0
	c0,0.55-0.45,1-1,1l0,0C41.45,42,41,41.55,41,41z"/>
<path style="fill:none;stroke:#000000;stroke-width:2;stroke-linecap:round;stroke-linejoin:round;stroke-miterlimit:10;" d="M63,18
	v-2.083C63,13.213,60.943,11,58.429,11c-1.143,0-2.286,0-3.429,0"/>
<path style="fill:none;stroke:#000000;stroke-width:2;stroke-linecap:round;stroke-linejoin:round;stroke-miterlimit:10;" d="
	M58,70.084c0.334,0.008,0.669-0.019,1-0.084c1.325-0.261,2.484-1.112,3.228-2.299C62.776,66.825,63,65.784,63,64.75V18"/>
<path style="fill:none;stroke:#000000;stroke-width:2;stroke-linecap:round;stroke-linejoin:round;stroke-miterlimit:10;" d="M42,46
	l7.652,0c2.863,0,5.1,2.472,4.816,5.321c-0.432,4.317-0.863,8.635-1.295,12.952c-0.231,2.314,0.995,4.63,3.163,5.472
	c0.535,0.208,1.098,0.325,1.664,0.339"/>
<path d="M29.5,39c-1.381,0-2.5,1.119-2.5,2.5s1.119,2.5,2.5,2.5s2.5-1.119,2.5-2.5S30.881,39,29.5,39z"/>
<path style="fill:none;stroke:#000000;stroke-width:2;stroke-linecap:round;stroke-linejoin:round;stroke-miterlimit:10;" d="
	M23.06,33.322v11.661c0,2.408,2.065,4.436,4.517,4.436l0,0c2.452,0,4.517,2.028,4.517,4.436v8.239v2.282
	c0,3.296,2.452,6.211,5.808,6.591C41.773,71.348,45,68.306,45,64.63v-2.282c0-3.169-2.194-5.957-5.421-6.464
	c-1.291-0.254-2.581,0-3.614,0.507V49.42V33.322c0-4.943-2.452-16.605-3.485-21.294C32.223,10.887,31.19,10,29.9,10h-0.645"/>
<path style="fill:none;stroke:#000000;stroke-width:2;stroke-linecap:round;stroke-linejoin:round;stroke-miterlimit:10;" d="
	M29.255,10c-1.032,0.127-2.065,0.887-2.323,2.028c-1.162,4.69-3.872,16.478-3.872,21.294"/>
<path style="fill:none;stroke:#000000;stroke-width:2;stroke-linejoin:round;stroke-miterlimit:10;" d="M27,49.143V62
	c0,0.386,0,2.186,0,2.571c0,3.6-2.86,6.429-6.5,6.429S14,68.171,14,64.571c0-0.386,0-2.186,0-2.571c0-3.6,2.86-6.429,6.5-6.429
	c0.91,0,1.82,0.257,2.6,0.514V44"/>
<path d="M41,61.667C41,60.2,39.875,59,38.5,59S36,60.2,36,61.667c0,0.533,0,2.133,0,2.667C36,65.8,37.125,67,38.5,67
	s2.5-1.2,2.5-2.667C41,63.8,41,62.2,41,61.667z"/>
<path d="M23,61.667C23,60.2,21.883,59,20.518,59c-1.365,0-2.482,1.2-2.482,2.667c0,0.533,0,2.133,0,2.667
	c0,1.467,1.117,2.667,2.482,2.667C21.883,67,23,65.8,23,64.333C23,63.8,23,62.2,23,61.667z"/>
</svg>