<?xml version="1.0" encoding="iso-8859-1"?><!-- Generator: Adobe Illustrator 22.1.0, SVG Export Plug-In . SVG Version: 6.00 Build 0)  --><svg xmlns="http://www.w3.org/2000/svg" xmlns:xlink="http://www.w3.org/1999/xlink" viewBox="0 0 50 50" width="500px" height="500px"><line style="fill:none;stroke:#000000;stroke-width:2;stroke-linecap:round;stroke-miterlimit:10;" x1="3" y1="29" x2="47" y2="29"/><g><path d="M15,32H3c-0.553,0-1,0.448-1,1v4c0,0.552,0.447,1,1,1h12c0.553,0,1-0.448,1-1v-4C16,32.448,15.553,32,15,32z"/><path d="M31,32H19c-0.553,0-1,0.448-1,1v4c0,0.552,0.447,1,1,1h12c0.553,0,1-0.448,1-1v-4C32,32.448,31.553,32,31,32z"/><path d="M23,40H11c-0.553,0-1,0.448-1,1v4c0,0.552,0.447,1,1,1h12c0.553,0,1-0.448,1-1v-4C24,40.448,23.553,40,23,40z"/><path d="M39,40H27c-0.553,0-1,0.448-1,1v4c0,0.552,0.447,1,1,1h12c0.553,0,1-0.448,1-1v-4C40,40.448,39.553,40,39,40z"/><path d="M47,32H35c-0.553,0-1,0.448-1,1v4c0,0.552,0.447,1,1,1h12c0.553,0,1-0.448,1-1v-4C48,32.448,47.553,32,47,32z"/></g><path style="fill:none;stroke:#000000;stroke-width:2;stroke-linecap:round;stroke-miterlimit:10;" d="M5,5c0,0,8,19,42,19"/><polyline style="fill:none;stroke:#000000;stroke-width:2;stroke-linecap:round;stroke-linejoin:round;stroke-miterlimit:10;" points="5,17 10,17 10,22 "/><line style="fill:none;stroke:#000000;stroke-width:2;stroke-linecap:round;stroke-linejoin:round;stroke-miterlimit:10;" x1="9.121" y1="17.879" x2="3" y2="24"/></svg>