<?xml version="1.0" encoding="iso-8859-1"?>
<!-- Generator: Adobe Illustrator 24.1.2, SVG Export Plug-In . SVG Version: 6.00 Build 0)  -->
<svg version="1.1" baseProfile="basic" id="Layer_1"
	 xmlns="http://www.w3.org/2000/svg" xmlns:xlink="http://www.w3.org/1999/xlink" x="0px" y="0px" viewBox="0 0 64 64"
	 xml:space="preserve">
<path d="M46,52c-1.104,0-2-0.896-2-2V30c0-9.221-5.347-11.013-5.574-11.084c-1.044-0.329-1.643-1.439-1.328-2.487
	c0.315-1.048,1.397-1.652,2.452-1.352C39.895,15.176,48,17.634,48,30v20C48,51.104,47.104,52,46,52z"/>
<path d="M18,52c-1.104,0-2-0.896-2-2V30c0-11.19,7.877-14.694,8.212-14.838c1.016-0.435,2.192,0.036,2.626,1.051
	c0.434,1.011-0.03,2.181-1.037,2.62C25.535,18.953,20,21.56,20,30v20C20,51.104,19.104,52,18,52z"/>
<path d="M32,40c-5.559,0-9-4.153-9-8V14c0-3.86,2.859-7,6.375-7h5.25C38.141,7,41,10.14,41,14v18C41,35.847,37.559,40,32,40z
	 M29.375,11C28.065,11,27,12.346,27,14v18c0,1.677,1.737,4,5,4s5-2.323,5-4V14c0-1.654-1.065-3-2.375-3H29.375z"/>
</svg>