<?xml version="1.0" encoding="iso-8859-1"?><!-- Generator: Adobe Illustrator 21.1.0, SVG Export Plug-In . SVG Version: 6.00 Build 0)  --><svg xmlns="http://www.w3.org/2000/svg" xmlns:xlink="http://www.w3.org/1999/xlink" viewBox="0 0 80 80" width="480px" height="480px"><g><g><path style="fill:none;stroke:#000000;stroke-width:2;stroke-miterlimit:10;" d="M58.632,20.544L49,17.333V17c0-1.105-0.895-2-2-2H23c-7.732,0-14,6.268-14,14s6.268,14,14,14v19.5c0,3.038,2.462,5.5,5.5,5.5s5.5-2.462,5.5-5.5V49c0-3.314,2.686-6,6-6h7c1.105,0,2-0.895,2-2v-0.333l9.632-3.211C59.449,37.184,60,36.419,60,35.558V22.442C60,21.581,59.449,20.816,58.632,20.544z"/></g></g><circle cx="49" cy="37" r="1"/><circle cx="49" cy="33" r="1"/><circle cx="49" cy="29" r="1"/><circle cx="14" cy="25" r="1"/><circle cx="14" cy="29" r="1"/><circle cx="14" cy="33" r="1"/><circle cx="24" cy="43" r="1"/><circle cx="28" cy="43" r="1"/><circle cx="32" cy="43" r="1"/><circle cx="18" cy="27" r="1"/><circle cx="18" cy="31" r="1"/><circle cx="18" cy="36" r="1"/><circle cx="18" cy="22" r="1"/><circle cx="49" cy="25" r="1"/><circle cx="49" cy="21" r="1"/><path style="fill:none;stroke:#000000;stroke-width:2;stroke-linecap:round;stroke-miterlimit:10;" d="M64,24c2,0,3-1,5-1s3,1,5,1"/><path style="fill:none;stroke:#000000;stroke-width:2;stroke-linecap:round;stroke-miterlimit:10;" d="M64,29c2,0,3-1,5-1s3,1,5,1"/><path style="fill:none;stroke:#000000;stroke-width:2;stroke-linecap:round;stroke-miterlimit:10;" d="M64,34c2,0,3-1,5-1s3,1,5,1"/><path style="fill:none;stroke:#000000;stroke-width:2;stroke-linecap:round;stroke-miterlimit:10;" d="M40,43v8c0,1.105-0.895,2-2,2h-4"/></svg>