<?xml version="1.0" encoding="utf-8"?><!-- Generator: Adobe Illustrator 17.0.0, SVG Export Plug-In . SVG Version: 6.00 Build 0)  --><!DOCTYPE svg PUBLIC "-//W3C//DTD SVG 1.1//EN" "http://www.w3.org/Graphics/SVG/1.1/DTD/svg11.dtd"><svg xmlns="http://www.w3.org/2000/svg" xmlns:xlink="http://www.w3.org/1999/xlink" viewBox="0 0 50 50" width="500px" height="500px"><path fill="none" stroke="#000000" stroke-width="2" stroke-linecap="round" stroke-linejoin="round" stroke-miterlimit="10" d="M38,8.614L17.98,3.627C16.725,3.223,15.389,3,14,3C6.822,3,1,8.822,1,16s5.822,13,13,13c1.39,0,2.726-0.223,3.982-0.627L38,23.385V8.614z"/><path fill="none" stroke="#000000" stroke-width="2.0817" stroke-linecap="round" stroke-linejoin="round" stroke-miterlimit="10" d="M41,11c4.92,0,3.154,2,8,2"/><path fill="none" stroke="#000000" stroke-width="2.0817" stroke-linecap="round" stroke-linejoin="round" stroke-miterlimit="10" d="M41,16c4.92,0,3.154,2,8,2"/><path fill="none" stroke="#000000" stroke-width="2.0817" stroke-linecap="round" stroke-linejoin="round" stroke-miterlimit="10" d="M41,21c4.92,0,3.154,2,8,2"/><path fill="none" stroke="#000000" stroke-width="2" stroke-linecap="round" stroke-linejoin="round" stroke-miterlimit="10" d="M21.062,27.625c0,0-2.26,0.672-3.46,4.593c-0.661,2.161-1.221,3.941-1.751,6.211c-1.285,5.508,1.696,5.563,1.033,7.525c-0.427,1.262-3.177,1.01-3.666,0.953l-4.934-0.818c-2.847-0.845-3.641-2.633-3.055-5.447c0.73-3.501,1.487-9.271,1.267-10.93c-0.42-3.175-1.62-4.462-1.62-4.462"/><circle fill="none" stroke="#000000" stroke-width="2" stroke-linecap="round" stroke-linejoin="round" stroke-miterlimit="10" cx="14" cy="16" r="6"/></svg>