<?xml version="1.0" encoding="iso-8859-1"?>
<!-- Generator: Adobe Illustrator 24.1.2, SVG Export Plug-In . SVG Version: 6.00 Build 0)  -->
<svg version="1.1" baseProfile="basic" id="Layer_1"
	 xmlns="http://www.w3.org/2000/svg" xmlns:xlink="http://www.w3.org/1999/xlink" x="0px" y="0px" viewBox="0 0 50 50"
	 xml:space="preserve">
<ellipse style="fill:none;stroke:#000000;stroke-width:2;stroke-miterlimit:10;" cx="18" cy="22.5" rx="4" ry="2.5"/>
<path style="fill:none;stroke:#000000;stroke-width:2;stroke-miterlimit:10;" d="M30,36.85c0,1.105-2.791,2.15-5,2.15
	s-5-1.045-5-2.15c0-1.105,2.791-1.85,5-1.85S30,35.745,30,36.85z"/>
<ellipse style="fill:none;stroke:#000000;stroke-width:2;stroke-miterlimit:10;" cx="32" cy="22.5" rx="4" ry="2.5"/>
<path style="fill:none;stroke:#000000;stroke-width:2;stroke-linecap:round;stroke-linejoin:round;stroke-miterlimit:10;" d="
	M23.812,31c-1.301,0-2.006-0.723-1.69-1.985"/>
<path style="fill:none;stroke:#000000;stroke-width:2;stroke-linecap:round;stroke-linejoin:round;stroke-miterlimit:10;" d="
	M26.188,31h-2.377"/>
<path style="fill:none;stroke:#000000;stroke-width:2;stroke-linecap:round;stroke-linejoin:round;stroke-miterlimit:10;" d="
	M27.879,29.015C28.194,30.277,27.49,31,26.188,31"/>
<path style="fill:none;stroke:#000000;stroke-width:2;stroke-linecap:round;stroke-linejoin:round;stroke-miterlimit:10;" d="M45,25
	c0-7-3.238-12.571-3.238-12.571l-4.19,1.048l2.095-4.19C39.667,9.286,34.429,3,25,3S10.333,9.286,10.333,9.286l2.095,4.19
	l-4.19-1.048C8.238,12.429,5,18,5,25s3.238,12.571,3.238,12.571l4.19-1.048l-2.095,4.19c0,0,5.238,6.286,14.667,6.286
	s14.667-6.286,14.667-6.286l-2.095-4.19l4.19,1.048C41.762,37.571,45,32,45,25z"/>
</svg>