<?xml version="1.0" encoding="utf-8"?><!-- Generator: Adobe Illustrator 21.1.0, SVG Export Plug-In . SVG Version: 6.00 Build 0)  --><svg xmlns="http://www.w3.org/2000/svg" xmlns:xlink="http://www.w3.org/1999/xlink" viewBox="0 0 128 128" width="512px" height="512px"><style type="text/css">.st0{fill:#FFFFFF;}</style><g><path d="M91,113.3c-0.3,3.5,0.8,7,3.2,9.6s5.7,4.1,9.3,4.1c6.9,0,12.5-5.6,12.5-12.5V14.9c0-6.6-4.9-12.1-11.5-12.9l-1-0.1C93.2,0.6,82.7,1,72.4,3.1c-1.6,0.3-2.7,1.9-2.4,3.5c0.3,1.6,1.9,2.7,3.5,2.4c9.6-1.9,19.5-2.3,29.2-1.1l1,0.1c3.5,0.4,6.2,3.4,6.2,7v99.6c0,3.6-2.9,6.5-6.5,6.5c-1.9,0-3.6-0.8-4.8-2.1c-1.3-1.4-1.8-3.2-1.7-5l3.2-34c0.6-6.4-3.7-12.2-10-13.5l-16.6-3.3c-1.6-0.3-3.2,0.7-3.5,2.4c-0.3,1.6,0.7,3.2,2.4,3.5L89,72.3c3.3,0.7,5.5,3.7,5.2,7L91,113.3z"/><path d="M73,57h20c1.7,0,3-1.3,3-3s-1.3-3-3-3H73c-1.7,0-3,1.3-3,3S71.3,57,73,57z"/><path d="M73,45h20c1.7,0,3-1.3,3-3s-1.3-3-3-3H73c-1.7,0-3,1.3-3,3S71.3,45,73,45z"/><path d="M73,33h20c1.7,0,3-1.3,3-3s-1.3-3-3-3H73c-1.7,0-3,1.3-3,3S71.3,33,73,33z"/><path d="M73,21h20c1.7,0,3-1.3,3-3s-1.3-3-3-3H73c-1.7,0-3,1.3-3,3S71.3,21,73,21z"/><path d="M50,87c1.7,0,3-1.3,3-3V4c0-1.7-1.3-3-3-3H26c-1.7,0-3,1.3-3,3v80c0,1.7,1.3,3,3,3s3-1.3,3-3V7h6v35c0,1.7,1.3,3,3,3s3-1.3,3-3V7h6v77C47,85.7,48.3,87,50,87z"/><path d="M53,127c8.5,0,15.4-7.1,15-15.7c-0.4-7.7-6.7-13.9-14.4-14.2c-5.2-0.2-9.7,2.2-12.6,6V66.2c0-1.6-1.2-3.1-2.8-3.2c-1.7-0.1-3.2,1.3-3.2,3v37c-2.8-3.8-7.4-6.2-12.6-6c-7.7,0.3-14,6.6-14.4,14.2c-0.4,8.6,6.5,15.7,15,15.7c6.4,0,12-4.1,14.1-9.8c0.3-0.9,1.5-0.9,1.9,0C41,122.9,46.6,127,53,127z M53,103c5,0,9,4,9,9s-4,9-9,9s-9-4-9-9S48,103,53,103z M23,121c-5,0-9-4-9-9s4-9,9-9s9,4,9,9S28,121,23,121z"/><circle cx="38" cy="54" r="3"/></g></svg>