<?xml version="1.0" encoding="utf-8"?><!-- Generator: Adobe Illustrator 17.0.0, SVG Export Plug-In . SVG Version: 6.00 Build 0)  --><!DOCTYPE svg PUBLIC "-//W3C//DTD SVG 1.1//EN" "http://www.w3.org/Graphics/SVG/1.1/DTD/svg11.dtd"><svg xmlns="http://www.w3.org/2000/svg" xmlns:xlink="http://www.w3.org/1999/xlink" viewBox="0 0 50 50" width="500px" height="500px"><path fill="none" stroke="#000000" stroke-width="2" stroke-linecap="round" stroke-miterlimit="10" d="M27.255,13.952c-0.87,0-1.656,0.304-2.255,0.823c-0.6-0.518-1.385-0.823-2.255-0.823c-1.244,0-8.776,5.362-8.776,7.51c0,2.147,0.386,0.605,4.028-1.367c2.544-1.378,5.448-0.418,7.004-0.904c1.556,0.486,4.46-0.474,7.004,0.904c3.642,1.972,4.028,3.514,4.028,1.367C36.032,19.314,28.499,13.952,27.255,13.952z"/><circle cx="33" cy="5" r="3"/><circle cx="17" cy="5" r="3"/><path fill="none" stroke="#000000" stroke-width="2" stroke-linecap="round" stroke-miterlimit="10" d="M35.07,30.737c3.945-3.832,7.354-9.509,8.061-16.203c2.286,0,3.868-2.449,3.868-5.564c0-3.107-1.842-4.334-4-4.334C42.928,3.382,42.738,2.124,42.5,1"/><path fill="none" stroke="#000000" stroke-width="2" stroke-linecap="round" stroke-miterlimit="10" d="M7.5,1C7.253,2.144,7.076,3.358,7,4.636c-2.274,0-4,1.106-4,4.334c0,3.233,2.071,5.554,3.87,5.554c0.848,6.531,4.143,12.132,7.957,15.975"/><path fill="none" stroke="#000000" stroke-width="2" stroke-linecap="round" stroke-miterlimit="10" d="M36,23c-2.712,0-2.494,5.112-5.106,5.112c-2.548,0-2.987-3.519-2.495-4.631C27.203,23.2,26.199,23,25.004,23l0,0h-0.002C25,23,25,23,25,23l0,0c-1.195,0-2.2,0.2-3.395,0.481c0.492,1.112,0.052,4.631-2.495,4.631c-2.612,0-2.427-5.112-5.138-5.112c0,13,6.086,14.999,11.028,15l0,0h0.002h0.002l0,0C29.945,37.999,36,36,36,23z"/></svg>