<?xml version="1.0" encoding="utf-8"?><!-- Generator: Adobe Illustrator 17.0.0, SVG Export Plug-In . SVG Version: 6.00 Build 0)  --><!DOCTYPE svg PUBLIC "-//W3C//DTD SVG 1.1//EN" "http://www.w3.org/Graphics/SVG/1.1/DTD/svg11.dtd"><svg xmlns="http://www.w3.org/2000/svg" xmlns:xlink="http://www.w3.org/1999/xlink" viewBox="0 0 50 50" width="500px" height="500px"><path fill="none" stroke="#000000" stroke-width="2" stroke-linecap="round" stroke-linejoin="round" stroke-miterlimit="10" d="M14.811,45.103c3.838-3.886,4.058-8.506,5.136-9.565c4.962-4.878,7.264-0.171,16.594-9.197C43.998,19.127,45,13.911,45,11.133c0-4.47-3.666-6.14-4.993-6.14c3.002,3.658,1.312,8.291-6.678,17.104C25.338,30.91,17.969,30.239,16,28c0,2,1.106,3.939,0.405,5.338c-0.961,1.918-4.228,1.841-7.607,6.314c-2.811,3.721-3.459,7.258-2.085,8.632C8.198,49.768,10.951,49.012,14.811,45.103z"/><line fill="none" stroke="#000000" stroke-width="2" stroke-linecap="round" stroke-linejoin="round" stroke-miterlimit="10" x1="12.126" y1="24.126" x2="16" y2="28"/><line fill="none" stroke="#000000" stroke-width="2" stroke-linecap="round" stroke-linejoin="round" stroke-miterlimit="10" x1="20.58" y1="24.58" x2="24" y2="28"/><line fill="none" stroke="#000000" stroke-width="2" stroke-linecap="round" stroke-linejoin="round" stroke-miterlimit="10" x1="25.557" y1="21.557" x2="29" y2="25"/><line fill="none" stroke="#000000" stroke-width="2" stroke-linecap="round" stroke-linejoin="round" stroke-miterlimit="10" x1="29.919" y1="17.919" x2="33" y2="21"/><line fill="none" stroke="#000000" stroke-width="2" stroke-linecap="round" stroke-linejoin="round" stroke-miterlimit="10" x1="33.519" y1="13.413" x2="37" y2="17"/><line fill="none" stroke="#000000" stroke-width="2" stroke-linecap="round" stroke-linejoin="round" stroke-miterlimit="10" x1="36.363" y1="8.363" x2="40" y2="12"/><line fill="none" stroke="#000000" stroke-width="2" stroke-linecap="round" stroke-linejoin="round" stroke-miterlimit="10" x1="19.424" y1="19.424" x2="21.154" y2="21.154"/><line fill="none" stroke="#000000" stroke-width="2" stroke-linecap="round" stroke-linejoin="round" stroke-miterlimit="10" x1="16.424" y1="23.424" x2="17.656" y2="24.656"/><line fill="none" stroke="#000000" stroke-width="2" stroke-linecap="round" stroke-linejoin="round" stroke-miterlimit="10" x1="23.424" y1="15.424" x2="25.293" y2="17.293"/><line fill="none" stroke="#000000" stroke-width="2" stroke-linecap="round" stroke-linejoin="round" stroke-miterlimit="10" x1="27.424" y1="11.424" x2="29.293" y2="13.293"/><line fill="none" stroke="#000000" stroke-width="2" stroke-linecap="round" stroke-linejoin="round" stroke-miterlimit="10" x1="30.424" y1="7.424" x2="32.293" y2="9.293"/><line fill="none" stroke="#000000" stroke-width="2" stroke-linecap="round" stroke-linejoin="round" stroke-miterlimit="10" x1="12.813" y1="18.813" x2="15" y2="21"/><line fill="none" stroke="#000000" stroke-width="2" stroke-linecap="round" stroke-linejoin="round" stroke-miterlimit="10" x1="15.462" y1="13.462" x2="18.007" y2="16.007"/><line fill="none" stroke="#000000" stroke-width="2" stroke-linecap="round" stroke-linejoin="round" stroke-miterlimit="10" x1="19.033" y1="9.033" x2="21.764" y2="11.764"/><line fill="none" stroke="#000000" stroke-width="2" stroke-linecap="round" stroke-linejoin="round" stroke-miterlimit="10" x1="23.259" y1="5.259" x2="26.08" y2="8.08"/><line fill="none" stroke="#000000" stroke-width="2" stroke-linecap="round" stroke-linejoin="round" stroke-miterlimit="10" x1="28.094" y1="2.094" x2="30.689" y2="4.689"/><line fill="none" stroke="#000000" stroke-width="2" stroke-linecap="round" stroke-linejoin="round" stroke-miterlimit="10" x1="36.126" y1="1.126" x2="40" y2="5"/></svg>