<?xml version="1.0" encoding="iso-8859-1"?>
<!-- Generator: Adobe Illustrator 25.4.1, SVG Export Plug-In . SVG Version: 6.00 Build 0)  -->
<svg version="1.1" id="Layer_1" xmlns="http://www.w3.org/2000/svg" xmlns:xlink="http://www.w3.org/1999/xlink" x="0px" y="0px"
	 viewBox="0 0 64 64" style="enable-background:new 0 0 64 64;" xml:space="preserve">
<path style="fill:none;stroke:#000000;stroke-width:2;stroke-linecap:round;stroke-linejoin:round;stroke-miterlimit:10;" d="M51,57
	l5.168-13.077c0.54-1.368-0.063-2.921-1.384-3.565h0c-1.493-0.728-3.288-0.013-3.871,1.542L46,55l-19-7l9.625-23.597l-8.834-3.224
	l1.611-4.238c0.589-1.549,2.321-2.327,3.87-1.738l2.447,0.93l4.341-11.421c0.608-1.599,2.435-2.376,4.02-1.677
	c1.486,0.656,2.106,2.449,1.529,3.967l-4.281,11.263l2.641,1.004c1.549,0.589,2.327,2.321,1.738,3.87l-1.579,4.154l4.166,1.559
	l-11.46,30.95l-24.006-8.984l11.46-30.951L19,18l-7.986,20.409c-0.562,1.436-2.174,2.153-3.617,1.608l-0.405-0.153
	c-1.448-0.547-2.183-2.161-1.645-3.612L11,21"/>
</svg>