<?xml version="1.0" encoding="iso-8859-1"?>
<!-- Generator: Adobe Illustrator 23.0.6, SVG Export Plug-In . SVG Version: 6.00 Build 0)  -->
<svg version="1.1" id="&#x421;&#x43B;&#x43E;&#x439;_2"
	 xmlns="http://www.w3.org/2000/svg" xmlns:xlink="http://www.w3.org/1999/xlink" x="0px" y="0px" viewBox="0 0 80 80"
	 style="enable-background:new 0 0 80 80;" xml:space="preserve">
<path style="fill:none;stroke:#000000;stroke-width:2;stroke-miterlimit:10;" d="M65.2,68H14.8c-1.54,0-2.8-1.26-2.8-2.8V28.8
	c0-1.54,1.26-2.8,2.8-2.8h50.4c1.54,0,2.8,1.26,2.8,2.8v36.4C68,66.74,66.74,68,65.2,68z"/>
<rect x="27" y="39" style="fill:none;stroke:#000000;stroke-width:2;stroke-miterlimit:10;" width="26" height="17"/>
<path style="fill:none;stroke:#000000;stroke-width:2;stroke-miterlimit:10;" d="M46,25c0-1.333,0-2.667,0-4"/>
<path style="fill:none;stroke:#000000;stroke-width:2;stroke-miterlimit:10;" d="M34,26c0-1.667,0-3.333,0-5"/>
<path d="M25,47c0-0.55,0.45-1,1-1l0,0c0.55,0,1,0.45,1,1l0,0c0,0.55-0.45,1-1,1l0,0C25.45,48,25,47.55,25,47z M21,47
	c0-0.55,0.45-1,1-1l0,0c0.55,0,1,0.45,1,1l0,0c0,0.55-0.45,1-1,1l0,0C21.45,48,21,47.55,21,47z M17,47c0-0.55,0.45-1,1-1l0,0
	c0.55,0,1,0.45,1,1l0,0c0,0.55-0.45,1-1,1l0,0C17.45,48,17,47.55,17,47z M13,47c0-0.55,0.45-1,1-1l0,0c0.55,0,1,0.45,1,1l0,0
	c0,0.55-0.45,1-1,1l0,0C13.45,48,13,47.55,13,47z"/>
<path d="M65,47c0-0.55,0.45-1,1-1l0,0c0.55,0,1,0.45,1,1l0,0c0,0.55-0.45,1-1,1l0,0C65.45,48,65,47.55,65,47z M61,47
	c0-0.55,0.45-1,1-1l0,0c0.55,0,1,0.45,1,1l0,0c0,0.55-0.45,1-1,1l0,0C61.45,48,61,47.55,61,47z M57,47c0-0.55,0.45-1,1-1l0,0
	c0.55,0,1,0.45,1,1l0,0c0,0.55-0.45,1-1,1l0,0C57.45,48,57,47.55,57,47z M53.29,47.71C53.109,47.52,53,47.26,53,47l0,0
	c0-0.26,0.109-0.52,0.29-0.71l0,0C53.479,46.11,53.729,46,54,46l0,0c0.26,0,0.52,0.11,0.71,0.29l0,0C54.89,46.48,55,46.74,55,47l0,0
	c0,0.26-0.11,0.52-0.29,0.71l0,0C54.52,47.89,54.26,48,54,48l0,0C53.729,48,53.479,47.89,53.29,47.71z"/>
<path style="fill:none;stroke:#000000;stroke-width:2;stroke-miterlimit:10;" d="M46,21h1.2c1.08,0,1.8-0.732,1.8-1.83v-7.319
	c0-1.098-0.72-1.83-1.8-1.83H32.8c-1.08,0-1.8,0.732-1.8,1.83v7.319c0,1.098,0.72,1.83,1.8,1.83H34"/>
<path d="M45,21c0-0.55,0.45-1,1-1l0,0c0.55,0,1,0.45,1,1l0,0c0,0.55-0.45,1-1,1l0,0C45.45,22,45,21.55,45,21z M41,21
	c0-0.55,0.45-1,1-1l0,0c0.55,0,1,0.45,1,1l0,0c0,0.55-0.45,1-1,1l0,0C41.45,22,41,21.55,41,21z M37,21c0-0.55,0.45-1,1-1l0,0
	c0.55,0,1,0.45,1,1l0,0c0,0.55-0.45,1-1,1l0,0C37.45,22,37,21.55,37,21z M33,21c0-0.55,0.45-1,1-1l0,0c0.55,0,1,0.45,1,1l0,0
	c0,0.55-0.45,1-1,1l0,0C33.45,22,33,21.55,33,21z"/>
<circle cx="40" cy="15" r="1"/>
</svg>