<?xml version="1.0" encoding="utf-8"?><!-- Generator: Adobe Illustrator 21.1.0, SVG Export Plug-In . SVG Version: 6.00 Build 0)  --><svg xmlns="http://www.w3.org/2000/svg" xmlns:xlink="http://www.w3.org/1999/xlink" viewBox="0 0 128 128" width="512px" height="512px"><g><path d="M120.8,81.6c-2.7-1.1-5.7-1.1-8.4,0.1l-1.2,0.5c-2.8-4.7-8.6-6.7-13.8-4.5l-11.6,4.9c-1.5,0.6-2.2,2.4-1.6,3.9c0.5,1.1,1.6,1.8,2.8,1.8c0.4,0,0.8-0.1,1.2-0.2l11.6-4.9c2.1-0.9,4.4-0.2,5.8,1.4l-23.5,10c0.3-4.5-2.1-8.9-6.5-10.8L49.6,72.2c-11-4.9-23.8-3.4-33.4,3.9l-3.9,3c-0.1,0.1-0.2,0.2-0.3,0.3l-1,1c-0.6,0.6-0.9,1.3-0.9,2.1v32H4c-1.7,0-3,1.3-3,3s1.3,3,3,3h9c1.7,0,3-1.3,3-3V83.7l3.8-2.9c7.9-6,18.3-7.2,27.4-3.2L73,89.2c1.2,0.5,2.2,1.5,2.6,2.8s0.4,2.6-0.1,3.8C75,97,74,97.9,72.8,98.4c-1.2,0.5-2.6,0.4-3.8-0.1l-20-8.9c-1.5-0.7-3.3,0-4,1.5c-0.7,1.5,0,3.3,1.5,4l20,8.9c2.7,1.2,5.7,1.3,8.4,0.2c0.4-0.1,0.8-0.3,1.1-0.5c0.2,0,0.3-0.1,0.4-0.1l38.2-16.2c1.2-0.5,2.6-0.5,3.8,0c1.2,0.5,2.2,1.5,2.7,2.7c0.5,1.2,0.5,2.6,0,3.8s-1.5,2.2-2.7,2.7l-56.4,23.8c-4.5,1.9-9.7,1.8-14.1-0.4l-23.8-11.6c-1.5-0.7-3.3-0.1-4,1.4s-0.1,3.3,1.4,4l23.8,11.6c3.2,1.6,6.6,2.3,10.1,2.3c3,0,6.1-0.6,9-1.8l56.4-23.8c2.7-1.1,4.8-3.3,5.9-6c1.1-2.7,1.1-5.7-0.1-8.4C125.6,84.8,123.5,82.7,120.8,81.6z"/><path d="M74,1c-1,0-2,0.5-2.6,1.4l-9.6,15.9c-2.7,4.5-2.8,9.8-0.2,14.4C64.1,37.3,68.8,40,74,40s9.9-2.7,12.4-7.3c2.6-4.5,2.5-9.9-0.2-14.4L76.6,2.4C76,1.5,75,1,74,1z M66.3,26.1c-1.7,0-3-1.3-3-3c0-1.7,1.3-3,3-3s3,1.3,3,3C69.3,24.8,68,26.1,66.3,26.1z"/></g></svg>