<?xml version="1.0" encoding="utf-8"?><!-- Generator: Adobe Illustrator 15.0.0, SVG Export Plug-In . SVG Version: 6.00 Build 0)  --><!DOCTYPE svg PUBLIC "-//W3C//DTD SVG 1.1//EN" "http://www.w3.org/Graphics/SVG/1.1/DTD/svg11.dtd"><svg xmlns="http://www.w3.org/2000/svg" xmlns:xlink="http://www.w3.org/1999/xlink" viewBox="0 0 50 50" width="500px" height="500px"><path d="M8.465,49.991L8.465,49.991c-0.954,0-1.804-0.346-2.458-0.999C4.155,47.141,4.976,43.053,8,39.05c2.08-2.753,4.134-3.896,5.634-4.73c0.934-0.521,1.609-0.896,1.876-1.43c0.262-0.521,0.074-1.363-0.144-2.337C15.195,29.782,15,28.908,15,28c0-0.416,0.258-0.789,0.647-0.936c0.39-0.147,0.829-0.038,1.104,0.275c0.468,0.532,1.607,1.101,3.4,1.101c0,0,0,0,0.001,0c1.827,0,6.695-0.684,12.436-7.015c8.543-9.423,8.835-13.13,6.646-15.798c-0.245-0.299-0.296-0.712-0.131-1.062c0.166-0.349,0.518-0.572,0.904-0.572c1.764,0,5.993,2.054,5.993,7.14c0,4.943-2.948,10.301-8.764,15.927c-5.579,5.397-8.842,6.088-11.464,6.644c-1.803,0.382-3.228,0.684-5.125,2.548c-0.206,0.202-0.498,1.065-0.756,1.827c-0.679,2.003-1.706,5.03-4.369,7.728C12.78,48.583,10.406,49.991,8.465,49.991z"/><line fill="none" stroke="#000000" stroke-width="2" stroke-linecap="round" stroke-linejoin="round" stroke-miterlimit="10" x1="12.126" y1="24.126" x2="16" y2="28"/><line fill="none" stroke="#000000" stroke-width="2" stroke-linecap="round" stroke-linejoin="round" stroke-miterlimit="10" x1="20.58" y1="24.58" x2="24" y2="28"/><line fill="none" stroke="#000000" stroke-width="2" stroke-linecap="round" stroke-linejoin="round" stroke-miterlimit="10" x1="25.557" y1="21.557" x2="29" y2="25"/><line fill="none" stroke="#000000" stroke-width="2" stroke-linecap="round" stroke-linejoin="round" stroke-miterlimit="10" x1="29.919" y1="17.919" x2="33" y2="21"/><line fill="none" stroke="#000000" stroke-width="2" stroke-linecap="round" stroke-linejoin="round" stroke-miterlimit="10" x1="33.52" y1="13.413" x2="37" y2="17"/><line fill="none" stroke="#000000" stroke-width="2" stroke-linecap="round" stroke-linejoin="round" stroke-miterlimit="10" x1="36.363" y1="8.363" x2="40" y2="12"/><line fill="none" stroke="#000000" stroke-width="2" stroke-linecap="round" stroke-linejoin="round" stroke-miterlimit="10" x1="19.424" y1="19.424" x2="21.154" y2="21.154"/><line fill="none" stroke="#000000" stroke-width="2" stroke-linecap="round" stroke-linejoin="round" stroke-miterlimit="10" x1="16.424" y1="23.424" x2="17.656" y2="24.656"/><line fill="none" stroke="#000000" stroke-width="2" stroke-linecap="round" stroke-linejoin="round" stroke-miterlimit="10" x1="23.424" y1="15.424" x2="25.293" y2="17.293"/><line fill="none" stroke="#000000" stroke-width="2" stroke-linecap="round" stroke-linejoin="round" stroke-miterlimit="10" x1="27.424" y1="11.424" x2="29.293" y2="13.293"/><line fill="none" stroke="#000000" stroke-width="2" stroke-linecap="round" stroke-linejoin="round" stroke-miterlimit="10" x1="30.424" y1="7.424" x2="32.293" y2="9.293"/><line fill="none" stroke="#000000" stroke-width="2" stroke-linecap="round" stroke-linejoin="round" stroke-miterlimit="10" x1="12.813" y1="18.813" x2="15" y2="21"/><line fill="none" stroke="#000000" stroke-width="2" stroke-linecap="round" stroke-linejoin="round" stroke-miterlimit="10" x1="15.462" y1="13.462" x2="18.007" y2="16.007"/><line fill="none" stroke="#000000" stroke-width="2" stroke-linecap="round" stroke-linejoin="round" stroke-miterlimit="10" x1="19.033" y1="9.033" x2="21.764" y2="11.764"/><line fill="none" stroke="#000000" stroke-width="2" stroke-linecap="round" stroke-linejoin="round" stroke-miterlimit="10" x1="23.259" y1="5.259" x2="26.08" y2="8.08"/><line fill="none" stroke="#000000" stroke-width="2" stroke-linecap="round" stroke-linejoin="round" stroke-miterlimit="10" x1="28.094" y1="2.094" x2="30.689" y2="4.689"/><line fill="none" stroke="#000000" stroke-width="2" stroke-linecap="round" stroke-linejoin="round" stroke-miterlimit="10" x1="36.126" y1="1.126" x2="40" y2="5"/></svg>