<?xml version="1.0" encoding="iso-8859-1"?><!-- Generator: Adobe Illustrator 19.1.1, SVG Export Plug-In . SVG Version: 6.00 Build 0)  --><svg xmlns="http://www.w3.org/2000/svg" xmlns:xlink="http://www.w3.org/1999/xlink" viewBox="0 0 50 50" width="500px" height="500px"><g><ellipse cx="25.013" cy="16" rx="1.013" ry="1"/><ellipse cx="29.013" cy="16" rx="1.013" ry="1"/><ellipse cx="20.987" cy="16" rx="1.013" ry="1"/></g><g><ellipse cx="25.013" cy="20" rx="1.013" ry="1"/><ellipse cx="29.013" cy="20" rx="1.013" ry="1"/><ellipse cx="20.987" cy="20" rx="1.013" ry="1"/></g><g><ellipse cx="25.013" cy="24" rx="1.013" ry="1"/><ellipse cx="29.013" cy="24" rx="1.013" ry="1"/><ellipse cx="20.987" cy="24" rx="1.013" ry="1"/></g><g><ellipse cx="25.013" cy="28" rx="1.013" ry="1"/><ellipse cx="29.013" cy="28" rx="1.013" ry="1"/><ellipse cx="20.987" cy="28" rx="1.013" ry="1"/></g><g><path style="fill:none;stroke:#000000;stroke-width:2;stroke-linecap:round;stroke-linejoin:round;stroke-miterlimit:10;" d="M10,31V19c0-7.18,5.82-13,13-13h2"/></g><path d="M36,46H14c-0.074,0-0.147-0.008-0.22-0.024C4.191,43.811,2.096,30.707,2.012,30.15c-0.049-0.321,0.061-0.645,0.295-0.87c0.233-0.226,0.563-0.32,0.881-0.262c0.05,0.01,5.015,0.954,10.381,1.61c2.015,0.247,3.836,1.481,4.997,3.387C19.651,35.8,22.237,37,25,37c2.729,0,5.377-1.233,6.442-2.998c1.148-1.901,2.975-3.138,5.011-3.394c5.24-0.659,10.316-1.583,10.367-1.592c0.316-0.059,0.644,0.041,0.876,0.266s0.341,0.548,0.292,0.868c-0.084,0.557-2.18,13.661-11.769,15.826C36.147,45.992,36.074,46,36,46z"/><path d="M31,13H19c-0.553,0-1-0.448-1-1c0-4.187,2.813-7,7-7s7,2.813,7,7C32,12.552,31.553,13,31,13z"/></svg>