<?xml version="1.0" encoding="iso-8859-1"?>
<!-- Generator: Adobe Illustrator 22.1.0, SVG Export Plug-In . SVG Version: 6.00 Build 0)  -->
<svg version="1.1" id="Layer_1" xmlns="http://www.w3.org/2000/svg" xmlns:xlink="http://www.w3.org/1999/xlink" x="0px" y="0px"
	 viewBox="0 0 100 100" style="enable-background:new 0 0 100 100;" xml:space="preserve">
<path style="fill:none;stroke:#000000;stroke-width:2;stroke-linejoin:round;stroke-miterlimit:10;" d="M29.257,83.257
	L16.743,70.743c-2.343-2.343-2.343-6.142,0-8.485l16.235-16.235l21,21L37.743,83.257C35.399,85.601,31.601,85.601,29.257,83.257z"/>
<rect x="38.4" y="32.946" transform="matrix(0.7071 -0.7071 0.7071 0.7071 -14.9708 52.3767)" style="fill:none;stroke:#000000;stroke-width:2;stroke-linejoin:round;stroke-miterlimit:10;" width="34.679" height="22.627"/>
<path style="fill:none;stroke:#000000;stroke-width:2;stroke-linejoin:round;stroke-miterlimit:10;" d="M73.964,37.964L62,26
	c0,0,3.458-3.458,7.979-7.979S83,13,83,13l-1.878,16.575c-0.102,0.9-0.506,1.738-1.146,2.378L73.964,37.964z"/>
<line style="fill:none;stroke:#000000;stroke-linecap:round;stroke-linejoin:round;stroke-miterlimit:10;" x1="29.5" y1="49.5" x2="50.5" y2="70.5"/>
<line style="fill:none;stroke:#000000;stroke-linecap:round;stroke-linejoin:round;stroke-miterlimit:10;" x1="69.5" y1="40.5" x2="68.5" y2="41.5"/>
<line style="fill:none;stroke:#000000;stroke-linecap:round;stroke-linejoin:round;stroke-miterlimit:10;" x1="66.5" y1="43.5" x2="62.5" y2="47.5"/>
<line style="fill:none;stroke:#000000;stroke-linecap:round;stroke-linejoin:round;stroke-miterlimit:10;" x1="59.5" y1="50.5" x2="51.5" y2="58.5"/>
</svg>