<?xml version="1.0" encoding="iso-8859-1"?>
<!-- Generator: Adobe Illustrator 24.3.0, SVG Export Plug-In . SVG Version: 6.00 Build 0)  -->
<svg version="1.1" xmlns="http://www.w3.org/2000/svg" xmlns:xlink="http://www.w3.org/1999/xlink" x="0px" y="0px"
	 viewBox="0 0 48 48" style="enable-background:new 0 0 48 48;" xml:space="preserve">
<g id="&#x421;&#x43B;&#x43E;&#x439;_1">
</g>
<g id="&#x421;&#x43B;&#x43E;&#x439;_2">
</g>
<g id="&#x421;&#x43B;&#x43E;&#x439;_3">
</g>
<g id="&#x421;&#x43B;&#x43E;&#x439;_4">
</g>
<g id="&#x421;&#x43B;&#x43E;&#x439;_5">
	<path style="fill:none;stroke:#000000;stroke-width:3;stroke-linecap:round;stroke-linejoin:round;stroke-miterlimit:10;" d="
		M31.75,14.742c4.057,2.57,6.75,7.099,6.75,12.258v17.5"/>
	<path style="fill:none;stroke:#000000;stroke-width:3;stroke-linecap:round;stroke-linejoin:round;stroke-miterlimit:10;" d="
		M9.5,44.5V27c0-5.157,2.692-9.685,6.748-12.256"/>
	<path d="M27.501,3.989h-7.043c-3.032,0-5.5,2.467-5.5,5.5v18.5c0,3.584,2.887,6.5,6.435,6.5h5.174c3.548,0,6.435-2.916,6.435-6.5
		v-18.5C33.001,6.456,30.533,3.989,27.501,3.989z M30,28c0,2.206-1.794,4-4,4h-3c-0.553,0-1-0.448-1-1s0.447-1,1-1h3
		c1.103,0,2-0.897,2-2V9c0-0.552,0.447-1,1-1s1,0.448,1,1V28z"/>
</g>
<g id="&#x421;&#x43B;&#x43E;&#x439;_6">
</g>
</svg>