<?xml version="1.0" encoding="utf-8"?><!-- Generator: Adobe Illustrator 19.1.1, SVG Export Plug-In . SVG Version: 6.00 Build 0)  --><svg xmlns="http://www.w3.org/2000/svg" xmlns:xlink="http://www.w3.org/1999/xlink" viewBox="0 0 50 50" width="500px" height="500px"><path d="M31,48H19c-0.2,0-0.4-0.1-0.6-0.2C18.2,47.7,14,44.3,14,38V18c0-0.6,0.4-1,1-1h20c0.6,0,1,0.4,1,1v20c0,6.3-4.2,9.7-4.4,9.8C31.4,47.9,31.2,48,31,48z"/><path d="M32,15v-4c0-0.6-0.4-1-1-1H19c-0.6,0-1,0.4-1,1v4H32z"/><path d="M21,5.3V6c-0.6,0-1,0.4-1,1v1h10V7c0-0.6-0.4-1-1-1V3c0-0.4-0.2-0.8-0.6-0.9C25.2,0.7,20.3,0,20.1,0c-0.3,0-0.6,0.1-0.8,0.2C19.1,0.4,19,0.7,19,1v1c0,0.2,0.1,0.4,0.2,0.6L21,5.3z"/></svg>