<?xml version="1.0" encoding="utf-8"?><!-- Generator: Adobe Illustrator 15.0.0, SVG Export Plug-In . SVG Version: 6.00 Build 0)  --><!DOCTYPE svg PUBLIC "-//W3C//DTD SVG 1.1//EN" "http://www.w3.org/Graphics/SVG/1.1/DTD/svg11.dtd"><svg xmlns="http://www.w3.org/2000/svg" xmlns:xlink="http://www.w3.org/1999/xlink" viewBox="0 0 26 26" width="208px" height="208px"><path fill="#000000" d="M19.683,18c-0.521,0-10.702-0.01-11.542-0.01C6.845,17.99,6,16.799,6,15c0-1.56,2.2-2.08,5.4-1.84  C14.396,13.385,21,14.6,21,16C21,16.84,20.682,18,19.683,18z"/><path fill="#000000" d="M21.789,15.128c0.182-0.531,3.727-11.564,4.008-12.425c0.279-0.862,0.411-2.145-1.219-2.563  c-1.828-0.469-3.633,1.244-4.614,5.08c-0.804,3.141-1.693,9.992,0.298,10.598C21.242,16.115,21.505,15.958,21.789,15.128z"/><rect x="14" y="16" fill="#000000" width="2" height="9"/><path fill="#000000" d="M22,26H8c0-0.9,4-2,7-2S22,25.033,22,26z"/><path fill="none" stroke="#000000" stroke-width="2" stroke-linecap="round" stroke-linejoin="round" stroke-miterlimit="10" d="  M10,15c0-4.468,2.234-5.998,5.117-5.998c2.677,0,6.708,1.207,6.708,1.207"/><path fill="#000000" d="M9,15c-0.553,0-0.441,0.447-0.441,1c0,2.688-1.956,5.541-2.689,6H1c-0.553,0-1,0.447-1,1s0.447,1,1,1h4.559  c0.161,0,0.319-0.039,0.462-0.113C6.205,23.791,9.387,21.464,9.387,16C9.387,15.447,9.553,15,9,15z"/></svg>