<?xml version="1.0" encoding="iso-8859-1"?>
<!-- Generator: Adobe Illustrator 25.4.1, SVG Export Plug-In . SVG Version: 6.00 Build 0)  -->
<svg version="1.1" id="Layer_1" xmlns="http://www.w3.org/2000/svg" xmlns:xlink="http://www.w3.org/1999/xlink" x="0px" y="0px"
	 viewBox="0 0 64 64" style="enable-background:new 0 0 64 64;" xml:space="preserve">
<g>
	<path style="fill:none;stroke:#000000;stroke-width:2;stroke-linecap:round;stroke-linejoin:round;stroke-miterlimit:10;" d="
		M15,14v-1c0-3.314,2.686-6,6-6h6c0,2.761,2.239,5.5,5,5.5s5-2.739,5-5.5h6c3.314,0,6,2.686,6,6v4.765
		c-2.389,3.546-3,8.152-3,15.735s0.611,12.189,3,15.735V58H15v-8.765c2.389-3.546,3-8.152,3-15.735S17.389,21.546,15,18"/>
	<path style="fill:none;stroke:#000000;stroke-width:2;stroke-linecap:round;stroke-linejoin:round;stroke-miterlimit:10;" d="
		M15,49.235c2.389-3.546,3-8.152,3-15.735S17.389,21.546,15,18h25v29H24V27h12"/>
	<path style="fill:none;stroke:#000000;stroke-width:2;stroke-linecap:round;stroke-linejoin:round;stroke-miterlimit:10;" d="
		M49,17.765c-2.389,3.546-3,8.152-3,15.735s0.611,12.189,3,15.735"/>
</g>
</svg>