<?xml version="1.0" encoding="iso-8859-1"?><!-- Generator: Adobe Illustrator 19.1.1, SVG Export Plug-In . SVG Version: 6.00 Build 0)  --><svg xmlns="http://www.w3.org/2000/svg" xmlns:xlink="http://www.w3.org/1999/xlink" viewBox="0 0 50 50" width="500px" height="500px"><g><path d="M20.553,24.495l-0.069-0.03L20.47,24.48C20.498,24.485,20.525,24.49,20.553,24.495z"/><path d="M33,31c0-1.914-1.027-3.685-1.849-4.801C29.618,26.508,26.877,27,25,27c-1.767,0-4.486-0.456-6.074-0.773C18.065,27.345,17,29.102,17,31c0,1.813,1.02,4.105,1.918,6.128c0.305,0.685,0.655,1.474,0.873,2.074C20.68,39.466,22.756,40,25,40c0.553,0,1,0.448,1,1s-0.447,1-1,1c-2.369,0-4.513-0.515-5.596-0.826c-0.298,0.42-0.65,0.857-0.918,1.188C17.624,43.427,17,44.198,17,45c0,2.466,6.413,3,8,3s8-0.534,8-3c0-0.802-0.624-1.573-1.486-2.639C30.947,41.662,30,40.492,30,40c0-0.439,0.6-1.788,1.082-2.872C31.98,35.105,33,32.813,33,31z"/></g><g><path d="M25,5c-0.553,0-1,0.448-1,1v18.956C24.357,24.983,24.696,25,25,25c0.304,0,0.644-0.017,1-0.044V6C26,5.448,25.553,5,25,5z"/><path d="M18.348,24.058c0.534,0.132,3.349,0.707,5.515,0.887L21.396,7.268c-0.076-0.547-0.595-0.934-1.128-0.852c-0.548,0.076-0.929,0.582-0.853,1.128l2.254,16.159l-3.742-12.674c-0.156-0.529-0.71-0.833-1.242-0.676c-0.529,0.156-0.832,0.712-0.676,1.242l2.738,9.272l-4.654-7.977C14.745,11.119,17.81,4,25,4c7.15,0,10.232,7.081,10.904,8.893l-4.569,7.833l2.626-9.073c0.153-0.53-0.152-1.085-0.683-1.238c-0.533-0.154-1.086,0.152-1.239,0.683l-3.781,13.065l2.265-16.716c0.074-0.547-0.31-1.051-0.857-1.125c-0.536-0.077-1.05,0.309-1.125,0.856l-2.407,17.767c2.089-0.174,4.771-0.722,5.526-0.892l0.073-0.036l6.354-10.893l-0.131-0.421C37.921,12.595,34.506,2,25,2c-9.644,0-12.926,10.606-12.958,10.713l-0.124,0.416l6.353,10.892C18.298,24.035,18.321,24.045,18.348,24.058z"/></g></svg>