<?xml version="1.0" encoding="iso-8859-1"?>
<!-- Generator: Adobe Illustrator 25.2.3, SVG Export Plug-In . SVG Version: 6.00 Build 0)  -->
<svg version="1.1" baseProfile="basic" id="Layer_10"
	 xmlns="http://www.w3.org/2000/svg" xmlns:xlink="http://www.w3.org/1999/xlink" x="0px" y="0px" viewBox="0 0 100 100"
	 xml:space="preserve">
<path style="fill:none;stroke:#000000;stroke-linecap:round;stroke-miterlimit:10;" d="M53.5,65.592
	c1.632-0.863,2.908-2.31,3.548-4.064"/>
<path style="fill:none;stroke:#000000;stroke-linecap:round;stroke-miterlimit:10;" d="M57.487,59.409
	c0.009-0.15,0.013-0.301,0.013-0.453c0-4.142-3.358-7.5-7.5-7.5s-7.5,3.358-7.5,7.5c0,4.142,3.358,7.5,7.5,7.5
	c0.505,0,0.999-0.05,1.476-0.145"/>
<path style="fill:none;stroke:#000000;stroke-width:2;stroke-linejoin:round;stroke-miterlimit:10;" d="M56.95,21.957
	C44,22.368,23.813,35.538,20.598,37.212c-3.215,1.675-7.18,0.427-8.855-2.788s-0.427-7.18,2.788-8.855
	c1.776-0.922,22.727-10.588,37.496-10.588c19.692,0,37.744,19.692,37.744,19.692S74.992,21.384,56.95,21.957z"/>
<path style="fill:none;stroke:#000000;stroke-linecap:round;stroke-miterlimit:10;" d="M36.412,66.457
	c-1.231-2.223-1.931-4.78-1.931-7.5c0-1.909,0.341-3.725,0.978-5.416"/>
<path style="fill:none;stroke:#000000;stroke-linecap:round;stroke-miterlimit:10;" d="M39.536,70.415
	c-0.649-0.593-1.248-1.241-1.789-1.936"/>
<path style="fill:none;stroke:#000000;stroke-linecap:round;stroke-miterlimit:10;" d="M64.542,53.541
	c0.636,1.692,0.978,3.507,0.978,5.416c0,8.567-6.953,15.52-15.52,15.52c-3.146,0-6.074-0.938-8.52-2.548"/>
<path style="fill:none;stroke:#000000;stroke-width:2;stroke-linejoin:round;stroke-miterlimit:10;" d="M16.001,61.957
	c0,0,11.333-21,34-21s34,21,34,21s-11.333,21-34,21S16.001,61.957,16.001,61.957z"/>
<path style="fill:none;stroke:#000000;stroke-width:2;stroke-linejoin:round;stroke-miterlimit:10;" d="M84,62
	c0,0-7.95-5.427-18.83-8.661c-4.647-1.388-9.844-2.382-15.17-2.382s-10.524,0.994-15.17,2.382C23.95,56.573,16,62,16,62"/>
</svg>