<?xml version="1.0" encoding="iso-8859-1"?>
<!-- Generator: Adobe Illustrator 23.0.6, SVG Export Plug-In . SVG Version: 6.00 Build 0)  -->
<svg version="1.1" id="&#x421;&#x43B;&#x43E;&#x439;_2"
	 xmlns="http://www.w3.org/2000/svg" xmlns:xlink="http://www.w3.org/1999/xlink" x="0px" y="0px" viewBox="0 0 80 80"
	 style="enable-background:new 0 0 80 80;" xml:space="preserve">
<path style="fill:none;stroke:#000000;stroke-width:2;stroke-miterlimit:10;" d="M55.021,27.843
	c-4.785-3.599-12.821-5.678-15.249-7.059L17.965,8.382c-1.33-0.778-3.039-0.331-3.817,0.999c-0.007,0.011-0.013,0.022-0.02,0.033
	l-1.395,2.427c-0.769,1.335-0.31,3.041,1.025,3.81c0.007,0.004,0.014,0.008,0.021,0.013l24.276,13.783
	c1.339,0.763,3.043,0.297,3.806-1.042c0.001-0.001,0.001-0.003,0.003-0.004l0.684-1.214c4.958,2.218,9.793,4.705,14.482,7.449
	l3.697-2.023C58.91,30.923,57.006,29.331,55.021,27.843z"/>
<path d="M10.9,61.42c-0.54-0.13-0.86-0.67-0.73-1.2l0,0c0.13-0.54,0.67-0.87,1.21-0.74l0,0c0.53,0.13,0.86,0.67,0.73,1.21l0,0
	c-0.11,0.46-0.52,0.76-0.97,0.76l0,0C11.06,61.45,10.98,61.44,10.9,61.42z M12.62,57.85c-0.27-0.49-0.09-1.09,0.39-1.36l0,0
	c0.48-0.27,1.09-0.1,1.36,0.39l0,0c0.27,0.48,0.09,1.09-0.39,1.36l0,0l0,0l0,0c-0.15,0.08-0.32,0.12-0.48,0.12l0,0
	C13.14,58.36,12.8,58.17,12.62,57.85z M16.16,55.98c-0.26-0.49-0.07-1.1,0.42-1.35l0,0c0.49-0.25,1.1-0.06,1.35,0.43l0,0
	c0.26,0.49,0.07,1.09-0.43,1.34l0,0c-0.14,0.08-0.3,0.12-0.46,0.12l0,0C16.68,56.52,16.33,56.32,16.16,55.98z M19.71,54.14
	c-0.26-0.49-0.07-1.1,0.42-1.35l0,0c0.49-0.26,1.1-0.06,1.35,0.42l0,0c0.26,0.49,0.07,1.1-0.42,1.35l0,0
	c-0.15,0.08-0.31,0.12-0.47,0.12l0,0C20.23,54.68,19.89,54.48,19.71,54.14z M23.26,52.29c-0.26-0.49-0.07-1.09,0.43-1.34l0,0
	c0.48-0.26,1.09-0.07,1.34,0.42l0,0c0.26,0.49,0.07,1.1-0.42,1.35l0,0c-0.15,0.08-0.31,0.11-0.46,0.11l0,0
	C23.78,52.83,23.44,52.64,23.26,52.29z M26.81,50.45c-0.26-0.49-0.07-1.09,0.43-1.35l0,0c0.49-0.25,1.09-0.06,1.34,0.43l0,0
	c0.26,0.49,0.07,1.1-0.42,1.35l0,0c-0.15,0.08-0.31,0.11-0.46,0.11l0,0C27.34,50.99,26.99,50.79,26.81,50.45z M30.36,48.61
	c-0.25-0.49-0.06-1.09,0.43-1.35l0,0c0.49-0.25,1.09-0.06,1.34,0.43l0,0c0.26,0.49,0.07,1.09-0.42,1.35l0,0
	c-0.15,0.07-0.31,0.11-0.46,0.11l0,0C30.89,49.15,30.54,48.95,30.36,48.61z M33.91,46.77c-0.25-0.49-0.06-1.1,0.43-1.35l0,0
	c0.49-0.25,1.09-0.06,1.34,0.43l0,0c0.26,0.49,0.07,1.09-0.42,1.34l0,0c-0.15,0.08-0.31,0.12-0.46,0.12l0,0
	C34.44,47.31,34.09,47.11,33.91,46.77z M37.46,44.92c-0.25-0.48-0.06-1.09,0.43-1.34l0,0c0.49-0.26,1.09-0.07,1.35,0.42l0,0
	c0.25,0.49,0.06,1.1-0.43,1.35l0,0c-0.15,0.08-0.31,0.11-0.46,0.11l0,0C37.99,45.46,37.64,45.27,37.46,44.92z M41.01,43.08
	c-0.25-0.49-0.06-1.09,0.43-1.34l0,0c0.49-0.26,1.09-0.07,1.35,0.42l0,0c0.25,0.49,0.06,1.1-0.43,1.35l0,0
	c-0.15,0.08-0.31,0.11-0.46,0.11l0,0C41.54,43.62,41.19,43.43,41.01,43.08z M44.56,41.24c-0.25-0.49-0.06-1.09,0.43-1.35l0,0
	c0.49-0.25,1.09-0.06,1.35,0.43l0,0c0.25,0.49,0.06,1.09-0.43,1.35l0,0c-0.15,0.08-0.3,0.11-0.46,0.11l0,0
	C45.09,41.78,44.74,41.58,44.56,41.24z M48.11,39.4c-0.25-0.49-0.06-1.09,0.43-1.35l0,0c0.49-0.25,1.09-0.06,1.35,0.43l0,0
	c0.25,0.49,0.06,1.09-0.43,1.35l0,0c-0.15,0.07-0.3,0.11-0.46,0.11l0,0C48.64,39.94,48.29,39.74,48.11,39.4z"/>
<path style="fill:none;stroke:#000000;stroke-width:2;stroke-linecap:round;stroke-miterlimit:10;" d="M11.603,63.946L11.603,63.946
	c1.36,2.31,4.336,3.08,6.646,1.72c0.027-0.015,0.052-0.031,0.078-0.046l46.849-27.077c0.585-0.347,1.063-0.85,1.381-1.451
	c0.589-1.063,0.589-2.355,0-3.418l0,0c-1-1.692-3.17-2.275-4.883-1.311L49,38.939"/>
<path style="fill:none;stroke:#000000;stroke-width:2;stroke-miterlimit:10;" d="M11.557,63.861
	c0.015,0.028,0.031,0.057,0.046,0.085"/>
<path style="fill:none;stroke:#000000;stroke-width:3;stroke-linecap:round;stroke-miterlimit:10;" d="M72,43.165
	c-2.758,0-6.178-3.958-6.178-3.958"/>
<circle cx="16" cy="61" r="2"/>
<circle cx="61" cy="37" r="1"/>
</svg>