<?xml version="1.0" encoding="utf-8"?><!-- Generator: Adobe Illustrator 17.0.0, SVG Export Plug-In . SVG Version: 6.00 Build 0)  --><!DOCTYPE svg PUBLIC "-//W3C//DTD SVG 1.1//EN" "http://www.w3.org/Graphics/SVG/1.1/DTD/svg11.dtd"><svg xmlns="http://www.w3.org/2000/svg" xmlns:xlink="http://www.w3.org/1999/xlink" viewBox="0 0 50 50" width="500px" height="500px"><path fill="none" stroke="#000000" stroke-width="2" stroke-linecap="round" stroke-linejoin="round" stroke-miterlimit="10" d="M19.426,21.085l-2.421-0.047c-1.047,0.111-0.979-0.625-0.979-1.12c0-3.707-3.073-5.918-7.674-5.918C3.746,14,1,16.212,1,19.918c0,4.791,3.912,6.683,11.85,5.917c0.204-0.006,3.994-0.27,3.994-0.27 M8.502,23C4,23,4,20.744,4,20c0-0.743,0-3,4.502-3C13,17,13,19.257,13,20C13,20.744,13,23,8.502,23z"/><path fill="none" stroke="#000000" stroke-width="2" stroke-linecap="round" stroke-linejoin="round" stroke-miterlimit="10" d="M30.562,17.125L49,14.01c0,0-0.101,1.854-2.351,2.835c0,0-13.448,6.563-20.403,7.88l-3.683,0.65"/><path fill="none" stroke="#000000" stroke-width="2" stroke-linecap="round" stroke-linejoin="round" stroke-miterlimit="10" d="M21.766,28.495c-0.479-0.208-1.19-0.766-0.462-1.809c2.84-4.069,4.926-3.081,8.769-8.933L40,1c-1.812,0-2.719,0.047-5.383,2.666c0,0-10.868,9.99-12.546,13.17c-2.306,4.374-5.214,9.005-6.829,11.96c-3.831,6.993-3.647,11.333,0.732,13.209c3.384,1.453,6.49-0.205,8.302-4.437C26.091,33.336,25.151,29.945,21.766,28.495z M21.573,36.411c-1.742,4.05-3.772,3.18-4.439,2.893c-0.669-0.287-2.706-1.157-0.968-5.213c1.742-4.054,3.774-3.179,4.442-2.895C21.277,31.483,23.314,32.358,21.573,36.411z"/><path fill="none" stroke="#000000" stroke-width="2" stroke-linecap="round" stroke-linejoin="round" stroke-miterlimit="10" d="M14.044,40.786c0.512,0.672,0.375,0.885,0.065,2.657c-0.305,1.728,0.135,3.593,1.184,4.643c0.28,0.279,1.295,1.382,2.058,0.684c0.584-0.535,0.311-1.069-0.298-2.062c-0.238-0.389-0.443-1.493-0.288-2.368c0.086-0.492,0.353-1.41,1.731-1.826"/><circle cx="21" cy="23" r="1.001"/></svg>