<?xml version="1.0" encoding="iso-8859-1"?>
<!-- Generator: Adobe Illustrator 29.2.1, SVG Export Plug-In . SVG Version: 9.03 Build 55982)  -->
<svg version="1.1" baseProfile="basic" id="&#x421;&#x43B;&#x43E;&#x439;_1"
	 xmlns="http://www.w3.org/2000/svg" xmlns:xlink="http://www.w3.org/1999/xlink" x="0px" y="0px" viewBox="0 0 24 24"
	 xml:space="preserve">
<path style="fill:none;stroke:#000000;stroke-width:1.5;stroke-linecap:round;stroke-linejoin:round;stroke-miterlimit:10;" d="
	M7.75,18.005V8.745h8.499v9.261c0,2.347-1.903,4.25-4.25,4.25h0C9.652,22.255,7.75,20.353,7.75,18.005z"/>
<path style="fill:none;stroke:#000000;stroke-width:1.5;stroke-linecap:round;stroke-linejoin:round;stroke-miterlimit:10;" d="
	M5.251,22.255v-4.27c0-2.245,0.892-4.398,2.479-5.985l0,0"/>
<path style="fill:none;stroke:#000000;stroke-width:1.5;stroke-linecap:round;stroke-linejoin:round;stroke-miterlimit:10;" d="
	M18.749,22.255v-4.27c0-2.245-0.892-4.398-2.479-5.985l0,0"/>
<rect x="9.75" y="0.75" style="fill:none;stroke:#000000;stroke-width:1.5;stroke-linecap:round;stroke-linejoin:round;stroke-miterlimit:10;" width="4.501" height="4.501"/>
<g>
	<path d="M13.253,16.002h-2.504c-0.247,0-0.479-0.122-0.618-0.325c-0.14-0.204-0.17-0.463-0.082-0.694l1.201-3.123V5.334
		c0-0.414,0.336-0.75,0.75-0.75s0.75,0.336,0.75,0.75v6.526l1.203,3.123c0.089,0.23,0.059,0.49-0.082,0.694
		C13.732,15.881,13.5,16.002,13.253,16.002z"/>
</g>
</svg>