<?xml version="1.0" encoding="iso-8859-1"?>
<!-- Generator: Adobe Illustrator 22.1.0, SVG Export Plug-In . SVG Version: 6.00 Build 0)  -->
<svg version="1.1" id="Layer_1" xmlns="http://www.w3.org/2000/svg" xmlns:xlink="http://www.w3.org/1999/xlink" x="0px" y="0px"
	 viewBox="0 0 100 100" style="enable-background:new 0 0 100 100;" xml:space="preserve">
<path style="fill:none;stroke:#000000;stroke-width:2;stroke-miterlimit:10;" d="M82,32c1.654,0,3,1.346,3,3v47c0,2.209-1.791,4-4,4
	H19c-2.209,0-4-1.791-4-4V36c0-2.209,1.791-4,4-4H82"/>
<path style="fill:none;stroke:#000000;stroke-linecap:round;stroke-linejoin:round;stroke-miterlimit:10;" d="M15.5,50.5h14"/>
<path style="fill:none;stroke:#000000;stroke-linecap:round;stroke-linejoin:round;stroke-miterlimit:10;" d="M66.5,50.5h9"/>
<path style="fill:none;stroke:#000000;stroke-width:2;stroke-linejoin:round;stroke-miterlimit:10;" d="M37,16v6
	c0,1.105,0.895,2,2,2h4v8h14v-8h4c1.105,0,2-0.895,2-2v-6c0-1.105-0.895-2-2-2H39C37.895,14,37,14.895,37,16z"/>
<path d="M50.514,45.5C50.997,40.523,51,36.125,51,33c0-0.553-0.448-1-1-1s-1,0.447-1,1c0,3.112-0.001,7.521-0.497,12.5H50.514z"/>
<path d="M40.476,70.5c-2.124,3.202-4.768,6.171-8.083,8.706c-0.439,0.335-0.522,0.963-0.187,1.401C32.402,80.865,32.7,81,33.001,81
	c0.211,0,0.425-0.067,0.606-0.206c3.894-2.978,6.911-6.503,9.257-10.294H40.476z"/>
<path style="fill:none;stroke:#000000;stroke-linejoin:round;stroke-miterlimit:10;" d="M36.5,45.5h27c1.657,0,3,1.343,3,3v19
	c0,1.657-1.343,3-3,3h-27c-1.657,0-3-1.343-3-3v-19C33.5,46.843,34.843,45.5,36.5,45.5z"/>
<line style="fill:none;stroke:#000000;stroke-linecap:round;stroke-linejoin:round;stroke-miterlimit:10;" x1="78.5" y1="50.5" x2="80.5" y2="50.5"/>
<line style="fill:none;stroke:#000000;stroke-linejoin:round;stroke-miterlimit:10;" x1="43" y1="23.5" x2="57" y2="23.5"/>
<path style="fill:none;stroke:#000000;stroke-linecap:round;stroke-linejoin:round;stroke-miterlimit:10;" d="M55.5,49.5h-16
	c-1.105,0-2,0.895-2,2v13c0,1.104,0.895,2,2,2h21c1.105,0,2-0.896,2-2v-6"/>
<line style="fill:none;stroke:#000000;stroke-linecap:round;stroke-linejoin:round;stroke-miterlimit:10;" x1="62.5" y1="55.5" x2="62.5" y2="54.5"/>
</svg>