<?xml version="1.0" encoding="iso-8859-1"?>
<!-- Generator: Adobe Illustrator 24.0.2, SVG Export Plug-In . SVG Version: 6.00 Build 0)  -->
<svg version="1.1" id="&#x421;&#x43B;&#x43E;&#x439;_2"
	 xmlns="http://www.w3.org/2000/svg" xmlns:xlink="http://www.w3.org/1999/xlink" x="0px" y="0px" viewBox="0 0 80 80"
	 style="enable-background:new 0 0 80 80;" xml:space="preserve">
<path style="fill:none;stroke:#000000;stroke-width:2;stroke-linecap:round;stroke-linejoin:round;stroke-miterlimit:10;stroke-dasharray:0,4;" d="
	M52.418,6.387c3.258,0,9.559,0.593,10.25,8.786c3.091,0,12.24,1.208,7.321,13.179"/>
<path style="fill:none;stroke:#000000;stroke-width:2;stroke-linecap:round;stroke-linejoin:round;stroke-miterlimit:10;stroke-dasharray:0,4;" d="
	M43.633,4.923c-1.464,1.464-8.871,14.043,7.321,16.107c7.535,0.961,10.661,2.545,11.714,7.321"/>
<path style="fill:none;stroke:#000000;stroke-width:2;stroke-linejoin:round;stroke-miterlimit:10;" d="M23.083,60.075L57.497,36.19
	 M7.342,71l9.831-6.824"/>
<path style="fill:none;stroke:#000000;stroke-width:2;stroke-linecap:round;stroke-linejoin:round;stroke-dasharray:0,4;" d="
	M70.51,34.829c-1.335-1.123-3.293-2.468-5.011-2.468c-2.35,0-4.673,1.508-7.01,3.135"/>
<path style="fill:none;stroke:#000000;stroke-width:2;stroke-linejoin:round;" d="M57.897,35.909
	c-0.212,0.148-0.422,0.295-0.634,0.442"/>
<path style="fill:none;stroke:#000000;stroke-width:2;stroke-linejoin:round;stroke-miterlimit:10;" d="M72.441,64.974H29.682
	L10.176,52.258c-0.714-0.465-1.682-0.283-2.164,0.407l-1.745,2.498c-0.482,0.69-0.293,1.625,0.421,2.091L26.194,69.97
	c1.029,0.672,2.244,1.03,3.488,1.03h42.759C73.301,71,74,70.325,74,69.494v-3.013C74,65.649,73.301,64.974,72.441,64.974z"/>
</svg>