<?xml version="1.0" encoding="iso-8859-1"?>
<!-- Generator: Adobe Illustrator 24.0.2, SVG Export Plug-In . SVG Version: 6.00 Build 0)  -->
<svg version="1.1" id="&#x421;&#x43B;&#x43E;&#x439;_2"
	 xmlns="http://www.w3.org/2000/svg" xmlns:xlink="http://www.w3.org/1999/xlink" x="0px" y="0px" viewBox="0 0 80 80"
	 style="enable-background:new 0 0 80 80;" xml:space="preserve">
<path style="fill:none;stroke:#000000;stroke-width:2;stroke-linecap:round;stroke-linejoin:round;stroke-miterlimit:10;" d="
	M33.044,43h-20c0,0,0,2.274,0,4.421C13.044,57.839,15.901,71,15.901,71h14.286c0,0,2.857-13.161,2.857-23.579
	C33.044,46.024,33.044,43,33.044,43z"/>
<line style="fill:none;stroke:#000000;stroke-width:2;stroke-linecap:round;stroke-linejoin:round;stroke-miterlimit:10;stroke-dasharray:0,4;" x1="62.044" y1="30" x2="50.044" y2="30"/>
<path style="fill:none;stroke:#000000;stroke-width:2;stroke-linecap:round;stroke-linejoin:round;stroke-miterlimit:10;" d="
	M50.044,30h-5c0,0,0,6.856,0,10.25c0,13.477,3.143,30.75,3.143,30.75h15.714c0,0,3.143-16.252,3.143-30.75c0-2.35,0-10.25,0-10.25
	h-5"/>
<path style="fill:none;stroke:#000000;stroke-width:2;stroke-linecap:round;stroke-miterlimit:10;" d="M50.044,29.636V22h12v7.636"
	/>
<path style="fill:none;stroke:#000000;stroke-width:2;stroke-miterlimit:10;" d="M23.044,43c0-9,0-18,0-27"/>
<path style="fill:none;stroke:#000000;stroke-width:2;stroke-linecap:round;stroke-linejoin:round;stroke-miterlimit:10;stroke-dasharray:0,4;" d="
	M46.044,37c6.667,0,13.333,0,20,0"/>
<path style="fill:none;stroke:#000000;stroke-width:2;stroke-linecap:round;stroke-linejoin:round;stroke-miterlimit:10;" d="
	M25.044,17h-5c0-2,0-4,0-6c0.005-0.489,0.083-1.787,1-3c1.426-1.887,3.685-1.991,4-2C25.044,9.667,25.044,13.333,25.044,17z"/>
</svg>