<?xml version="1.0" encoding="iso-8859-1"?>
<!-- Generator: Adobe Illustrator 24.0.2, SVG Export Plug-In . SVG Version: 6.00 Build 0)  -->
<svg version="1.1" id="&#x421;&#x43B;&#x43E;&#x439;_2"
	 xmlns="http://www.w3.org/2000/svg" xmlns:xlink="http://www.w3.org/1999/xlink" x="0px" y="0px" viewBox="0 0 80 80"
	 style="enable-background:new 0 0 80 80;" xml:space="preserve">
<path style="fill:none;stroke:#000000;stroke-width:2;stroke-miterlimit:10;" d="M40,8c-12.703,0-23,7.387-23,16.5S27.297,41,40,41
	s23-7.387,23-16.5S52.703,8,40,8L40,8z"/>
<path style="fill:none;stroke:#000000;stroke-width:2;stroke-linecap:round;stroke-miterlimit:10;" d="M62.903,55
	C64.879,53.661,66,52.128,66,50.5c0-5.247-11.641-9.5-26-9.5s-26,4.253-26,9.5c0,1.628,1.121,3.161,3.097,4.5"/>
<path style="fill:none;stroke:#000000;stroke-width:2;stroke-linecap:round;stroke-linejoin:round;stroke-miterlimit:10;stroke-dasharray:0,4;" d="
	M17.097,55c4.39,2.977,13,5,22.903,5c9.903,0,18.513-2.023,22.903-5"/>
<path style="fill:none;stroke:#000000;stroke-width:2;stroke-miterlimit:10;" d="M14,50.667c0,1.422,0,6.782,0,8.204
	C14,64.133,21.69,72,40,72s26-7.995,26-13.129c0-1.422,0-6.782,0-8.204"/>
<path style="fill:none;stroke:#000000;stroke-width:2;stroke-miterlimit:10;" d="M40,47c-9.389,0-17,1.567-17,3.5
	c0,1.933,7.611,3.5,17,3.5s17-1.567,17-3.5C57,48.567,49.389,47,40,47z"/>
<ellipse style="fill:none;stroke:#000000;stroke-width:2;stroke-linecap:round;stroke-linejoin:round;stroke-miterlimit:10;stroke-dasharray:0,4;" cx="40" cy="24.5" rx="16" ry="10.5"/>
</svg>