<?xml version="1.0" encoding="iso-8859-1"?>
<!-- Generator: Adobe Illustrator 24.1.2, SVG Export Plug-In . SVG Version: 6.00 Build 0)  -->
<svg version="1.1" baseProfile="basic" id="&#x421;&#x43B;&#x43E;&#x439;_1"
	 xmlns="http://www.w3.org/2000/svg" xmlns:xlink="http://www.w3.org/1999/xlink" x="0px" y="0px" viewBox="0 0 48 48"
	 xml:space="preserve">
<path marker-end="none" marker-start="none" style="fill-rule:evenodd;clip-rule:evenodd;" d="M8.997,45.001
	c0-1.489,0.783-2.943,1.929-3.671c0.516-0.327,1.029-0.667,1.541-1.016c0.851,1.543,1.904,3.051,3.197,4.516
	c0.183,0.207,0.499,0.227,0.707,0.044c0.207-0.183,0.227-0.499,0.044-0.707c-0.744-0.841-1.404-1.696-1.988-2.563
	c7.983-5.525,15.251-13.332,19.877-18.556c-0.309-0.148-0.624-0.296-0.944-0.443c-4.62,5.204-11.717,12.783-19.475,18.157
	c-0.209-0.339-0.407-0.681-0.593-1.024c7.852-5.565,15.02-13.413,19.485-18.489c1.444,0.631,2.801,1.28,4.04,1.956
	c0.241,0.133,0.545,0.044,0.677-0.199c0.133-0.241,0.044-0.545-0.199-0.677c-0.273-0.149-0.553-0.297-0.836-0.444
	c0.627-1.039,1.076-1.959,1.321-2.724c0.153-0.393,0.351-1.152,0.208-1.152c-0.116,0-0.196-0.001-0.331,0.056
	c-0.133,0.057-0.297,0.165-0.529,0.368c-0.573,0.501-1.205,1.261-2.349,2.568c-0.012,0.013-0.024,0.027-0.036,0.04
	c-0.417-0.195-0.843-0.388-1.275-0.58c2.001-2.292,2.915-3.461,4.527-3.461c1.255,0,2,1.057,2,2c0,0.385-0.061,0.808-0.179,1.263
	c0.615,0.639,1.317,1.231,2.179,1.737c1.021,0.619,2.276,1,3.329,1c0.397,0,0.68,0.667,0.671,1c0,0.925-0.531,1-1,1
	c-0.949,0-3.452-1.107-6.095-2.425c-4.652,9.176-22.748,25.425-26.905,25.425C10.198,48.001,8.997,46.811,8.997,45.001z
	 M11.957,45.001l0.06-0.001c0.247-0.019,0.867-0.271,1.82-0.821c-0.596-0.757-1.132-1.525-1.613-2.303
	c-0.075,0.049-0.151,0.097-0.225,0.144c-0.529,0.336-1.001,1.128-1.001,1.981C10.997,44.702,11.297,45.001,11.957,45.001z
	 M32.983,19.495l-6.987-3.495c-1.261,1.403-2.609,1.927-4,2c-6.567-2.367-12.895-5.04-19-8c0-2.571,0.669-4.731,2-6
	c10.787,3.912,21.509,8.228,30.64,12.796C34.749,17.429,33.938,18.389,32.983,19.495z M22.117,16.979l0.669-0.093
	c0.836-0.197,1.656-0.653,2.467-1.553c0.291-0.292,0.409-0.979-0.253-1.273l-3.483-1.499c-2.771-1.161-5.609-2.301-8.487-3.416
	L4.757,6.046C4.455,6.674,4.235,7.429,4.113,8.29L4.038,9.386l3.991,1.871c3.093,1.401,6.243,2.729,9.451,3.981L22.117,16.979z"/>
<path marker-end="none" marker-start="none" style="fill-rule:evenodd;clip-rule:evenodd;" d="M11.997,47.998
	c-1.376,0-5-0.221-5-0.499c0-0.279,3.624-0.499,5-0.499V47.998z"/>
<path marker-end="none" marker-start="none" style="fill-rule:evenodd;clip-rule:evenodd;" d="M11.997,47.998
	c6.336,0,23-0.221,23-0.499c0-0.279-16.664-0.499-23-0.499V47.998z"/>
</svg>