<?xml version="1.0" encoding="iso-8859-1"?>
<!-- Generator: Adobe Illustrator 25.2.3, SVG Export Plug-In . SVG Version: 6.00 Build 0)  -->
<svg version="1.1" baseProfile="basic" id="Layer_1"
	 xmlns="http://www.w3.org/2000/svg" xmlns:xlink="http://www.w3.org/1999/xlink" x="0px" y="0px" viewBox="0 0 64 64"
	 xml:space="preserve">
<path d="M14,29c-1.104,0-2-0.896-2-2V13c0-1.104,0.896-2,2-2s2,0.896,2,2v14C16,28.104,15.104,29,14,29z"/>
<path d="M21.2,29c-1.104,0-2-0.896-2-2V13c0-1.104,0.896-2,2-2s2,0.896,2,2v14C23.2,28.104,22.305,29,21.2,29z"/>
<path d="M28.4,29c-1.104,0-2-0.896-2-2V13c0-1.104,0.896-2,2-2s2,0.896,2,2v14C30.4,28.104,29.505,29,28.4,29z"/>
<path d="M35.6,29c-1.104,0-2-0.896-2-2V13c0-1.104,0.896-2,2-2s2,0.896,2,2v14C37.6,28.104,36.704,29,35.6,29z"/>
<path d="M42.8,29c-1.104,0-2-0.896-2-2V13c0-1.104,0.896-2,2-2s2,0.896,2,2v14C44.8,28.104,43.904,29,42.8,29z"/>
<path d="M50,29c-1.104,0-2-0.896-2-2V13c0-1.104,0.896-2,2-2s2,0.896,2,2v14C52,28.104,51.104,29,50,29z"/>
<path d="M31.979,56.999c-0.509,0-1.022-0.039-1.533-0.116c-4.222-0.635-8.118-4.896-8.421-9.155c-0.2-2.811,0.758-5.515,2.677-7.559
	c0.027-0.029,0.035-0.072,0.019-0.108C24.705,40.024,24.669,40,24.63,40H20c-4.418,0-8-3.582-8-8v-6h40v6c0,4.418-3.582,8-8,8h-4.63
	c-0.04,0-0.076,0.024-0.092,0.06c-0.016,0.037-0.008,0.079,0.019,0.108C41.044,42.028,42,44.433,42,47
	c0,2.842-1.216,5.56-3.335,7.456C36.826,56.1,34.438,56.999,31.979,56.999z M16,30v2c0,2.206,1.794,4,4,4h5.093
	C27.247,36,29,37.753,29,39.907c0,1.057-0.42,2.065-1.152,2.768c-1.379,1.322-2.035,3.178-1.801,5.091
	c0.331,2.707,2.541,4.892,5.254,5.194c1.733,0.191,3.407-0.333,4.697-1.486C37.271,50.336,38,48.706,38,47
	c0-1.648-0.658-3.186-1.853-4.331C35.419,41.973,35,40.965,35,39.906C35,37.752,36.752,36,38.906,36H44c2.206,0,4-1.794,4-4v-2H16z"
	/>
<path d="M35,47c0,1.657-1.343,3-3,3c-1.657,0-3-1.343-3-3s1.343-3,3-3C33.657,44,35,45.343,35,47z"/>
</svg>