<?xml version="1.0" encoding="utf-8"?><!-- Generator: Adobe Illustrator 15.0.0, SVG Export Plug-In . SVG Version: 6.00 Build 0)  --><!DOCTYPE svg PUBLIC "-//W3C//DTD SVG 1.1//EN" "http://www.w3.org/Graphics/SVG/1.1/DTD/svg11.dtd"><svg xmlns="http://www.w3.org/2000/svg" xmlns:xlink="http://www.w3.org/1999/xlink" viewBox="0 0 50 50" width="500px" height="500px"><path d="M38.097,29.551l-4.666-11.663C32.974,16.741,31.881,16,30.646,16H19.354c-1.233,0-2.327,0.74-2.786,1.885l-4.666,11.664c-0.612,1.529-0.792,3.197-0.521,4.822l1.353,8.121C12.977,43.945,14.221,45,15.694,45h18.611c1.474,0,2.718-1.055,2.959-2.507l1.354-8.12C38.889,32.75,38.708,31.082,38.097,29.551z M24,18h2v13h-2V18z M26,38l-0.667-2L25,38h-2l1-6h2l1,6H26z"/><g><path d="M31,14V6c0-1.654-1.346-3-3-3h-6c-1.654,0-3,1.346-3,3v8H31z"/></g></svg>