<?xml version="1.0" encoding="iso-8859-1"?><!-- Generator: Adobe Illustrator 22.1.0, SVG Export Plug-In . SVG Version: 6.00 Build 0)  --><svg xmlns="http://www.w3.org/2000/svg" xmlns:xlink="http://www.w3.org/1999/xlink" viewBox="0 0 50 50" width="500px" height="500px"><path style="fill:none;stroke:#000000;stroke-width:2;stroke-linecap:round;stroke-linejoin:round;stroke-miterlimit:10;" d="M14.062,36.875C12.724,33.341,12,29.664,12,27"/><path style="fill:none;stroke:#000000;stroke-width:2;stroke-linecap:round;stroke-linejoin:round;stroke-miterlimit:10;" d="M30.417,45.875C28.82,47.202,27.004,48,25,48c-1.987,0-3.789-0.864-5.375-2.269"/><path style="fill:none;stroke:#000000;stroke-width:2;stroke-linecap:round;stroke-linejoin:round;stroke-miterlimit:10;" d="M38,27c0,2.393-0.417,5.156-1.203,7.875"/><circle cx="30.5" cy="29.5" r="1.5"/><circle cx="19.5" cy="29.5" r="1.5"/><path d="M32.744,3.485C31.853,3.084,30.809,3,30.809,3l-0.01,0.029c-0.118,0.445-0.301,0.987-0.593,1.57c-0.684,1.366-1.949,2.927-4.287,3.833c-0.948,0.367-2.069,0.739-3.257,1.133C16.475,11.616,8,14.427,8,21.864c0,4.652,3.307,5.951,3.651,6.073c0,0,0,0,0.001,0c0.111,0.041,0.237,0.061,0.348,0.063c0.413,0,0.806-0.263,0.948-0.676c0.115-0.285,2.341-5.425,12.217-7.337C32.576,18.751,37,15.018,37,10C37,6.279,34.716,4.327,32.744,3.485z"/><path d="M38.795,12.008c-0.835,4.213-4.299,7.452-9.795,9.135c6.42,2.371,8.053,6.185,8.07,6.225c0.111,0.281,0.343,0.497,0.631,0.587C37.799,27.985,37.9,28,38,28c0.195,0,0.389-0.057,0.555-0.168C38.695,27.738,42,25.47,42,19.773c0-3.161-1.146-5.444-2.398-6.996C39.169,12.263,38.795,12.008,38.795,12.008z"/><path d="M3.5,46C2.121,46,1,44.879,1,43.5S2.121,41,3.5,41S6,42.121,6,43.5S4.879,46,3.5,46z"/><path d="M44.5,39c-1.379,0-2.5-1.121-2.5-2.5s1.121-2.5,2.5-2.5s2.5,1.121,2.5,2.5S45.879,39,44.5,39z"/><circle cx="6" cy="35" r="1"/><circle cx="48" cy="43" r="1"/><path d="M21,39c0-1.316-0.853-2.422-2.033-2.826C18.806,34.949,17.769,34,16.5,34c-1.381,0-2.5,1.119-2.5,2.5c0,0.187,0.024,0.368,0.063,0.544C12.339,37.261,11,38.717,11,40.5c0,1.777,1.33,3.229,3.046,3.454C14.271,45.67,15.723,47,17.5,47c1.933,0,3.5-1.567,3.5-3.5c0-0.906-0.353-1.724-0.919-2.346C20.646,40.609,21,39.847,21,39z"/><path d="M39,41c0-1.129-0.471-2.144-1.224-2.871C37.918,37.78,38,37.4,38,37c0-1.657-1.343-3-3-3s-3,1.343-3,3c-1.657,0-3,1.343-3,3c0,0.626,0.192,1.206,0.52,1.687C29.196,42.217,29,42.833,29,43.5c0,1.933,1.567,3.5,3.5,3.5c1.422,0,2.64-0.851,3.188-2.069C37.568,44.603,39,42.973,39,41z"/><path d="M29,1.697C27.962,1.307,26.63,1,25,1c-6.628,0-12.182,4.883-13.624,11.41c3.25-2.279,7.379-3.657,10.656-4.744c1.168-0.388,2.265-0.752,3.166-1.1C28.237,5.389,28.862,2.761,28.981,2C28.99,1.943,29,1.697,29,1.697z"/></svg>