<?xml version="1.0" encoding="utf-8"?><!-- Generator: Adobe Illustrator 15.0.0, SVG Export Plug-In . SVG Version: 6.00 Build 0)  --><!DOCTYPE svg PUBLIC "-//W3C//DTD SVG 1.1//EN" "http://www.w3.org/Graphics/SVG/1.1/DTD/svg11.dtd"><svg xmlns="http://www.w3.org/2000/svg" xmlns:xlink="http://www.w3.org/1999/xlink" viewBox="0 0 50 50" width="500px" height="500px"><path d="M19,50H9c-1.654,0-3-1.346-3-3V31c0-0.553,0.448-1,1-1h14c0.552,0,1,0.447,1,1v16C22,48.654,20.654,50,19,50z"/><path d="M41,14H31v-3h10V14z"/><line fill="none" stroke="#000000" stroke-width="2" stroke-miterlimit="10" x1="14" y1="29" x2="14" y2="15"/><line fill="none" stroke="#000000" stroke-width="2" stroke-linecap="round" stroke-miterlimit="10" x1="9" y1="9" x2="19" y2="9"/><line fill="none" stroke="#000000" stroke-width="2" stroke-linecap="round" stroke-miterlimit="10" x1="9.5" y1="6" x2="18.5" y2="6"/><line fill="none" stroke="#000000" stroke-width="2" stroke-linecap="round" stroke-miterlimit="10" x1="9.5" y1="12" x2="18.5" y2="12"/><line fill="none" stroke="#000000" stroke-width="2" stroke-linecap="round" stroke-miterlimit="10" x1="10.5" y1="3" x2="17.5" y2="3"/><line fill="none" stroke="#000000" stroke-width="2" stroke-linecap="round" stroke-miterlimit="10" x1="10.5" y1="15" x2="17.5" y2="15"/><line fill="none" stroke="#000000" stroke-width="2" stroke-linecap="round" stroke-miterlimit="10" x1="14" y1="3" x2="14" y2="1"/><g><rect x="28" y="24" width="16" height="2"/><path d="M28,28v19c0,1.654,1.346,3,3,3h10c1.654,0,3-1.346,3-3V28H28z"/><path d="M44,22v-5c0-0.552-0.447-1-1-1H29c-0.553,0-1,0.448-1,1v5H44z"/></g><rect x="28" y="19" width="2" height="13"/><rect x="42" y="18" width="2" height="13"/></svg>