<?xml version="1.0" encoding="utf-8"?><!-- Generator: Adobe Illustrator 15.0.0, SVG Export Plug-In . SVG Version: 6.00 Build 0)  --><!DOCTYPE svg PUBLIC "-//W3C//DTD SVG 1.1//EN" "http://www.w3.org/Graphics/SVG/1.1/DTD/svg11.dtd"><svg xmlns="http://www.w3.org/2000/svg" xmlns:xlink="http://www.w3.org/1999/xlink" viewBox="0 0 50 50" width="500px" height="500px"><rect x="22" y="12" width="6" height="2"/><path d="M43,13H7c-1.654,0-3,1.346-3,3v26c0,1.654,1.346,3,3,3h36c1.654,0,3-1.346,3-3V16C46,14.346,44.654,13,43,13z M7,15h36c0.552,0,1,0.449,1,1v12h-9v-6H15v6H6V16C6,15.449,6.449,15,7,15z M33,24v10H17V24H33z"/><path d="M29,4h-8c-1.159,0-2,0.841-2,2v2c0,1.159,0.841,2,2,2h8c1.159,0,2-0.841,2-2V6C31,4.841,30.159,4,29,4z M25,8c-0.552,0-1-0.448-1-1s0.448-1,1-1c0.553,0,1,0.448,1,1S25.553,8,25,8z"/></svg>