<?xml version="1.0" encoding="iso-8859-1"?>
<!-- Generator: Adobe Illustrator 24.1.2, SVG Export Plug-In . SVG Version: 6.00 Build 0)  -->
<svg version="1.1" baseProfile="basic" id="Layer_1"
	 xmlns="http://www.w3.org/2000/svg" xmlns:xlink="http://www.w3.org/1999/xlink" x="0px" y="0px" viewBox="0 0 50 50"
	 xml:space="preserve">
<path d="M43.09,12.96c-0.31-0.65-1.02-0.99-1.72-0.81l-3.23,0.8l1.72-3.43c0.3-0.59,0.17-1.3-0.31-1.76C37.71,6,32.69,2,25,2
	S12.29,6,10.45,7.76c-0.48,0.46-0.61,1.17-0.31,1.76l1.72,3.43l-3.23-0.8c-0.7-0.18-1.41,0.16-1.72,0.81
	C5.95,14.98,4.09,19.58,4.09,25c0,5.42,1.86,10.02,2.82,12.04c0.31,0.65,1.02,0.99,1.72,0.81l3.23-0.8l-1.72,3.43
	c-0.3,0.59-0.17,1.3,0.31,1.76C12.29,44,17.31,48,25,48s12.71-4,14.55-5.76c0.48-0.46,0.61-1.17,0.31-1.76l-1.72-3.43l3.23,0.8
	c0.7,0.18,1.41-0.16,1.72-0.81c0.96-2.02,2.82-6.62,2.82-12.04C45.91,19.58,44.05,14.98,43.09,12.96z M23.09,29.26
	c-0.06,0.25-0.06,0.46,0.01,0.55C23.17,29.9,23.4,30,23.81,30h2.38c0.41,0,0.64-0.1,0.71-0.19c0.07-0.09,0.07-0.3,0.01-0.55
	c-0.14-0.54,0.19-1.08,0.73-1.22c0.53-0.13,1.07,0.2,1.21,0.73c0.28,1.12-0.05,1.85-0.38,2.27C28.13,31.48,27.46,32,26.19,32h-2.38
	c-1.27,0-1.94-0.52-2.28-0.96c-0.33-0.42-0.66-1.15-0.38-2.27c0.13-0.53,0.68-0.86,1.21-0.73C22.9,28.18,23.23,28.72,23.09,29.26z
	 M13,22.188c0-1.553,2.015-2.813,4.5-2.813s4.5,1.259,4.5,2.813C22,23.741,19.985,25,17.5,25S13,23.741,13,22.188z M25,40
	c-2.651,0-6-1.307-6-2.688S22.349,35,25,35s6,0.932,6,2.312S27.651,40,25,40z M32.5,25c-2.485,0-4.5-1.259-4.5-2.813
	c0-1.553,2.015-2.813,4.5-2.813s4.5,1.259,4.5,2.813C37,23.741,34.985,25,32.5,25z"/>
</svg>