<?xml version="1.0" encoding="iso-8859-1"?>
<!-- Generator: Adobe Illustrator 24.3.0, SVG Export Plug-In . SVG Version: 6.00 Build 0)  -->
<svg version="1.1" xmlns="http://www.w3.org/2000/svg" xmlns:xlink="http://www.w3.org/1999/xlink" x="0px" y="0px"
	 viewBox="0 0 48 48" style="enable-background:new 0 0 48 48;" xml:space="preserve">
<g id="&#x421;&#x43B;&#x43E;&#x439;_1">
</g>
<g id="&#x421;&#x43B;&#x43E;&#x439;_2">
</g>
<g id="&#x421;&#x43B;&#x43E;&#x439;_3">
</g>
<g id="&#x421;&#x43B;&#x43E;&#x439;_4">
</g>
<g id="&#x421;&#x43B;&#x43E;&#x439;_5">
</g>
<g id="&#x421;&#x43B;&#x43E;&#x439;_6">
	<path style="fill:none;stroke:#000000;stroke-width:3;stroke-linecap:round;stroke-linejoin:round;stroke-miterlimit:10;" d="
		M16.5,14c0-7,3-10.5,10-10.5c4.472,0,7,0,7,0v5h-6c0,0,1.285,0.31,2.093,0.993C30.952,10.642,31.5,12.08,31.5,14"/>
	<path d="M29.565,13H18.435C15.438,13,13,15.438,13,18.435v23.114C13,44.003,14.997,46,17.451,46h13.098
		C33.003,46,35,44.003,35,41.549V18.435C35,15.438,32.562,13,29.565,13z"/>
</g>
</svg>