<?xml version="1.0" encoding="utf-8"?><!-- Generator: Adobe Illustrator 15.0.0, SVG Export Plug-In . SVG Version: 6.00 Build 0)  --><!DOCTYPE svg PUBLIC "-//W3C//DTD SVG 1.1//EN" "http://www.w3.org/Graphics/SVG/1.1/DTD/svg11.dtd"><svg xmlns="http://www.w3.org/2000/svg" xmlns:xlink="http://www.w3.org/1999/xlink" viewBox="0 0 50 50" width="500px" height="500px"><path fill="none" stroke="#000000" stroke-width="2" stroke-linecap="round" stroke-miterlimit="10" d="M43.1,14.5c2.301,0,3.9-2.4,3.9-5.6c0-3.1-1.8-4.3-4-4.3c-0.1-1.3-0.3-2.5-0.5-3.6"/><path fill="none" stroke="#000000" stroke-width="2" stroke-linecap="round" stroke-miterlimit="10" d="M7.5,1C7.3,2.1,7.1,3.4,7,4.6C4.7,4.6,3,5.7,3,9c0,3.2,2.1,5.6,3.9,5.6"/><circle cx="33" cy="5" r="3"/><circle cx="17" cy="5" r="3"/><path d="M25,50c-2.301,0-6.719-3-9.968-7.27c-0.283-0.372-1.016-4.699-0.532-6.631c-1.453,2.9-1.998,3.07-2.5,2.401c-4.166-5.832-5.794-17.292-6.396-23.606c-0.042-0.438,0.208-0.851,0.614-1.019c0.424-0.175,0.869-0.264,1.322-0.264c3.013,0,5.734,3.907,8.135,7.354c1.081,1.552,2.715,3.897,3.352,4.037c1-0.002,1.984-0.767,2.937-1.507C22.954,22.726,23.889,22,25,22s2.046,0.726,3.035,1.495C28.987,24.235,29.973,25,31,25c0.605-0.135,2.22-2.458,3.287-3.995c2.403-3.458,5.126-7.376,8.196-7.376c0.435,0,0.863,0.08,1.274,0.237c0.418,0.16,0.679,0.578,0.639,1.023c-1.183,13.218-7.303,25.501-12.209,30.439c-0.185,0.186-0.452,0.292-0.714,0.292h-0.001c-0.378,0-1.811-4.356-2.173-5.42c0.006,1.987,0.138,6.409-0.405,8.07C27.747,49.113,26.481,50,25,50z"/><path fill="none" stroke="#000000" stroke-width="2" stroke-linecap="round" stroke-miterlimit="10" d="M19,19c0.9-0.5,3.7-1,6-1s5.1,0.5,6,1"/></svg>