<?xml version="1.0" encoding="iso-8859-1"?>
<!-- Generator: Adobe Illustrator 24.1.2, SVG Export Plug-In . SVG Version: 6.00 Build 0)  -->
<svg version="1.1" xmlns="http://www.w3.org/2000/svg" xmlns:xlink="http://www.w3.org/1999/xlink" x="0px" y="0px"
	 viewBox="0 0 48 48" style="enable-background:new 0 0 48 48;" xml:space="preserve">
<g id="weight" style="display:none;">
</g>
<g id="Layer_43">
</g>
<g id="topic">
</g>
<g id="video_card">
</g>
<g id="motherboard">
</g>
<g id="ethernet_on">
</g>
<g id="ethernet_off">
</g>
<g id="usb_on">
</g>
<g id="usb_off">
</g>
<g id="audio-cable--v2">
</g>
<g id="stack">
</g>
<g id="microsoft_hololens">
</g>
<g id="virtual_reality">
</g>
<g id="webcam">
</g>
<g id="phone-office">
</g>
<g id="inspection">
</g>
<g id="goal">
</g>
<g id="bank">
</g>
<g id="agreement">
</g>
<g id="tax">
</g>
<g id="business">
</g>
<g id="shop">
</g>
<g id="theme_park">
</g>
<g id="city_buildings">
</g>
<g id="food_cart">
</g>
<g id="bridge">
</g>
<g id="prison">
</g>
<g id="airport">
</g>
<g id="waste_separation">
</g>
<g id="elections">
</g>
<g id="lipstick">
</g>
<g id="afro_pick">
</g>
<g id="hair_druer">
</g>
<g id="barbershop">
</g>
<g id="straight_razor">
</g>
<g id="barber_pole">
</g>
<g id="perfume_bottle">
	<path style="fill:none;stroke:#000000;stroke-width:3;stroke-linejoin:round;stroke-miterlimit:10;" d="M36.5,41.5h-25
		c-2.209,0-4-1.791-4-4v-18c0-2.209,1.791-4,4-4h25c2.209,0,4,1.791,4,4v18C40.5,39.709,38.709,41.5,36.5,41.5z"/>
	<polyline style="fill:none;stroke:#000000;stroke-width:3;stroke-linejoin:round;stroke-miterlimit:10;" points="28.5,15.5 
		28.5,5.5 18.5,5.5 18.5,15.5 	"/>
	<path style="fill:none;stroke:#000000;stroke-width:3;stroke-linejoin:round;stroke-miterlimit:10;" d="M30.5,33.5h-13
		c-0.552,0-1-0.448-1-1v-8c0-0.552,0.448-1,1-1h13c0.552,0,1,0.448,1,1v8C31.5,33.052,31.052,33.5,30.5,33.5z"/>
	
		<line style="fill:none;stroke:#000000;stroke-width:3;stroke-linejoin:round;stroke-miterlimit:10;" x1="8" y1="28.5" x2="17" y2="28.5"/>
	
		<line style="fill:none;stroke:#000000;stroke-width:3;stroke-linejoin:round;stroke-miterlimit:10;" x1="31" y1="28.5" x2="41" y2="28.5"/>
</g>
<g id="spa_flower">
</g>
<g id="bank_cards">
</g>
<g id="shopping_bag">
</g>
<g id="worldwide_delivery">
</g>
<g id="in_transit">
</g>
<g id="used_product">
</g>
<g id="discount">
</g>
<g id="gift">
</g>
<g id="last_24_hours">
</g>
</svg>