<?xml version="1.0" encoding="iso-8859-1"?><!-- Generator: Adobe Illustrator 19.2.1, SVG Export Plug-In . SVG Version: 6.00 Build 0)  --><svg xmlns="http://www.w3.org/2000/svg" xmlns:xlink="http://www.w3.org/1999/xlink" viewBox="0 0 50 50" width="500px" height="500px"><line style="fill:none;stroke:#000000;stroke-width:2;stroke-linejoin:round;stroke-miterlimit:10;" x1="14.186" y1="39.934" x2="36.456" y2="24.478"/><line style="fill:none;stroke:#000000;stroke-width:2;stroke-linejoin:round;stroke-miterlimit:10;" x1="4" y1="47.004" x2="10.362" y2="42.588"/><g><g><path style="fill:none;stroke:#000000;stroke-width:2;stroke-linejoin:round;" d="M45.906,24.562c0,0-0.128-0.139-0.349-0.352"/><path style="fill:none;stroke:#000000;stroke-width:2;stroke-linejoin:round;stroke-dasharray:0.9177,0.9177;" d="M44.877,23.597C44.013,22.87,42.746,22,41.634,22c-1.521,0-3.024,0.976-4.536,2.029"/><path style="fill:none;stroke:#000000;stroke-width:2;stroke-linejoin:round;" d="M36.715,24.296c-0.137,0.096-0.273,0.191-0.41,0.286"/></g></g><path style="fill:none;stroke:#000000;stroke-width:2;stroke-linejoin:round;stroke-miterlimit:10;" d="M46,43H18.577l-12.51-8.441c-0.458-0.309-1.079-0.188-1.388,0.27l-1.119,1.658c-0.309,0.458-0.188,1.079,0.27,1.388l12.51,8.441C17,46.762,17.779,47,18.577,47H46c0.552,0,1-0.448,1-1v-2C47,43.448,46.552,43,46,43z"/><path style="fill:none;stroke:#000000;stroke-width:2;stroke-linecap:round;stroke-linejoin:round;stroke-miterlimit:10;" d="M32,4c2.225,0,6.528,0.405,7,6c2.111,0,7.401,1.458,5,8"/><path style="fill:none;stroke:#000000;stroke-width:2;stroke-linecap:round;stroke-linejoin:round;stroke-miterlimit:10;" d="M26,3c0,0-2,2.419-2,5c0,7.957,12.03,1.098,14,10"/></svg>