<?xml version="1.0" encoding="utf-8"?><!-- Generator: Adobe Illustrator 18.1.1, SVG Export Plug-In . SVG Version: 6.00 Build 0)  --><svg xmlns="http://www.w3.org/2000/svg" xmlns:xlink="http://www.w3.org/1999/xlink" viewBox="0 0 50 50" width="500px" height="500px"><path fill="none" stroke="#000000" stroke-width="2" stroke-miterlimit="10" d="M33,49H17c-1.1,0-2-0.9-2-2V35c0-1.1,0.9-2,2-2h16c1.1,0,2,0.9,2,2v12C35,48.1,34.1,49,33,49z"/><path fill="none" stroke="#000000" stroke-width="2" stroke-miterlimit="10" d="M32,33H18V13c0-0.6,0.4-1,1-1h12c0.6,0,1,0.4,1,1V33z"/><path fill="none" stroke="#000000" stroke-width="2" stroke-linecap="round" stroke-linejoin="round" stroke-miterlimit="10" d="M30,12H20V7c0,0,2.7-4.9,10-6V12z"/></svg>