<?xml version="1.0" encoding="iso-8859-1"?><!-- Generator: Adobe Illustrator 20.1.0, SVG Export Plug-In . SVG Version: 6.00 Build 0)  --><svg xmlns="http://www.w3.org/2000/svg" xmlns:xlink="http://www.w3.org/1999/xlink" viewBox="0 0 50 50" width="500px" height="500px"><path d="M48,16h-2v-3c0-1.103-0.897-2-2-2H6c-1.103,0-2,0.897-2,2v3H2c-1.103,0-2,0.897-2,2v14c0,1.103,0.897,2,2,2h2v3c0,1.103,0.897,2,2,2h38c1.103,0,2-0.897,2-2v-3h2c1.103,0,2-0.897,2-2V18C50,16.897,49.103,16,48,16z M45,27.5c0,0.552-0.447,1-1,1s-1-0.448-1-1V26h-1.5L39,28.5L37.5,27h-2.653C34.935,27.149,35,27.314,35,27.5v2c0,0.552-0.447,1-1,1s-1-0.448-1-1v-2c0-0.186,0.065-0.351,0.153-0.5h-4.708c-0.693,1.191-1.968,2-3.445,2s-2.752-0.809-3.445-2h-5.708C15.935,27.149,16,27.314,16,27.5v2c0,0.552-0.447,1-1,1s-1-0.448-1-1v-2c0-0.186,0.065-0.351,0.153-0.5H12.5L11,28.5L8.5,26H7v1.5c0,0.552-0.447,1-1,1s-1-0.448-1-1v-5c0-0.552,0.447-1,1-1s1,0.448,1,1V24h1.5l2.5-2.5l1.5,1.5h1.653C14.065,22.851,14,22.686,14,22.5v-2c0-0.552,0.447-1,1-1s1,0.448,1,1v2c0,0.186-0.065,0.351-0.153,0.5h5.708c0.693-1.191,1.969-2,3.445-2s2.752,0.809,3.445,2h4.708C33.065,22.851,33,22.686,33,22.5v-2c0-0.552,0.447-1,1-1s1,0.448,1,1v2c0,0.186-0.065,0.351-0.153,0.5H37.5l1.5-1.5l2.5,2.5H43v-1.5c0-0.552,0.447-1,1-1s1,0.448,1,1V27.5z"/></svg>