<?xml version="1.0" encoding="iso-8859-1"?><!-- Generator: Adobe Illustrator 19.1.1, SVG Export Plug-In . SVG Version: 6.00 Build 0)  --><svg xmlns="http://www.w3.org/2000/svg" xmlns:xlink="http://www.w3.org/1999/xlink" viewBox="0 0 50 50" width="500px" height="500px"><path style="fill:none;stroke:#000000;stroke-width:2;stroke-miterlimit:10;" d="M20,25l-7-12c0,0,2.989-10,12-10c8.88,0,12,10,12,10l-7,12"/><path style="fill:none;stroke:#000000;stroke-width:2;stroke-miterlimit:10;" d="M25,47c-3.003,0-7-0.997-7-2s3-3.47,3-5s-3-6.214-3-9s2-5,2-5s2.25,1,5,1s5-1,5-1s2,2.214,2,5s-3,7.47-3,9s3,3.997,3,5S28.003,47,25,47z"/><path style="fill:none;stroke:#000000;stroke-width:2;stroke-linecap:round;stroke-miterlimit:10;" d="M21,40c0,0,1.729,1,4,1"/><path style="fill:none;stroke:#000000;stroke-width:2;stroke-linecap:round;stroke-linejoin:round;stroke-miterlimit:10;" d="M27,26l2.531-18.688 M25,27V6 M28.812,25.844L33,11.375 M16.969,11.313l4.281,14.5 M20.406,7.406L23,26"/></svg>