<?xml version="1.0" encoding="iso-8859-1"?>
<!-- Generator: Adobe Illustrator 24.0.2, SVG Export Plug-In . SVG Version: 6.00 Build 0)  -->
<svg version="1.1" id="&#x421;&#x43B;&#x43E;&#x439;_2"
	 xmlns="http://www.w3.org/2000/svg" xmlns:xlink="http://www.w3.org/1999/xlink" x="0px" y="0px" viewBox="0 0 80 80"
	 style="enable-background:new 0 0 80 80;" xml:space="preserve">
<path style="fill:none;stroke:#000000;stroke-width:2;stroke-linecap:round;stroke-linejoin:round;stroke-miterlimit:10;" d="
	M25.678,66.514L14.076,54.912c-1.393-1.393-1.393-3.65,0-5.043l22.302-22.302c0.178-0.176,1.09-1.042,2.521-1.044
	c1.305-0.002,2.168,0.715,2.378,0.901c0.793-0.793,1.585-1.585,2.378-2.378c3.963,3.963,7.926,7.926,11.889,11.889
	c-0.793,0.793-1.585,1.585-2.378,2.378c0.215,0.252,0.901,1.122,0.901,2.378c0,0.837-0.306,1.464-0.406,1.655
	c-0.163,0.312-0.376,0.605-0.638,0.867L30.721,66.514C29.328,67.907,27.07,67.907,25.678,66.514z"/>
<rect x="43.673" y="20.944" transform="matrix(0.7071 0.7071 -0.7071 0.7071 34.7173 -30.1565)" style="fill:none;stroke:#000000;stroke-width:2;stroke-linecap:round;stroke-linejoin:round;stroke-miterlimit:10;" width="20.176" height="11.77"/>
<path style="fill:none;stroke:#000000;stroke-width:2;stroke-linecap:round;stroke-linejoin:round;stroke-miterlimit:10;" d="
	M27.01,53.58L27.01,53.58c-1.313-1.313-1.313-3.442,0-4.756l20.211-20.211l4.756,4.756L31.766,53.58
	C30.453,54.893,28.324,54.893,27.01,53.58z"/>
<path style="fill:none;stroke:#000000;stroke-width:2;stroke-linecap:round;stroke-linejoin:round;stroke-miterlimit:10;" d="
	M60.3,25.046l8.322-8.322c1.313-1.313,1.313-3.442,0-4.756l0,0c-1.313-1.313-3.442-1.313-4.756,0l-8.322,8.322"/>
<path style="fill:none;stroke:#000000;stroke-width:2;stroke-linecap:round;stroke-linejoin:round;stroke-miterlimit:10;stroke-dasharray:0,4;" d="
	M66.244,45.257c-0.901,2.692-2.867,7.393-7.133,11.889c-4.903,5.167-10.31,7.395-13.078,8.322"/>
<path style="fill:none;stroke:#000000;stroke-width:2;stroke-linecap:round;stroke-linejoin:round;stroke-miterlimit:10;stroke-dasharray:0,4;" d="
	M71,54.769c-1.051,2.149-2.88,5.258-5.945,8.322c-1.691,1.691-4.43,4.04-8.322,5.945"/>
<path style="fill:none;stroke:#000000;stroke-width:2;stroke-linecap:round;stroke-linejoin:round;stroke-miterlimit:10;stroke-dasharray:0,4;" d="
	M35.333,14.346c-2.692,0.901-7.393,2.867-11.889,7.133c-5.167,4.903-7.395,10.31-8.322,13.078"/>
<path style="fill:none;stroke:#000000;stroke-width:2;stroke-linecap:round;stroke-linejoin:round;stroke-miterlimit:10;stroke-dasharray:0,4;" d="
	M27.821,11.59c-2.149,1.051-5.258,2.88-8.322,5.945c-1.691,1.691-4.04,4.43-5.945,8.322"/>
</svg>