<?xml version="1.0" encoding="iso-8859-1"?>
<!-- Generator: Adobe Illustrator 24.3.0, SVG Export Plug-In . SVG Version: 6.00 Build 0)  -->
<svg version="1.1" xmlns="http://www.w3.org/2000/svg" xmlns:xlink="http://www.w3.org/1999/xlink" x="0px" y="0px"
	 viewBox="0 0 48 48" style="enable-background:new 0 0 48 48;" xml:space="preserve">
<g id="&#x421;&#x43B;&#x43E;&#x439;_1">
</g>
<g id="&#x421;&#x43B;&#x43E;&#x439;_2">
</g>
<g id="&#x421;&#x43B;&#x43E;&#x439;_3">
</g>
<g id="&#x421;&#x43B;&#x43E;&#x439;_4">
</g>
<g id="&#x421;&#x43B;&#x43E;&#x439;_5">
</g>
<g id="&#x421;&#x43B;&#x43E;&#x439;_6">
	<path style="fill:none;stroke:#000000;stroke-width:3;stroke-linejoin:round;stroke-miterlimit:10;" d="M24,41.5
		C11.5,41.5,5.5,30,5.5,30s6-10.5,18.5-10.5s18.5,10,18.5,10S36.5,41.5,24,41.5z"/>
	<path style="fill:none;stroke:#000000;stroke-width:3;stroke-linejoin:round;stroke-miterlimit:10;" d="M5.5,30
		c0,0,9-4.25,18.5-4.25s18.5,3.75,18.5,3.75"/>
	<path style="fill:none;stroke:#000000;stroke-width:3;stroke-linejoin:round;stroke-miterlimit:10;" d="M31.02,26.355
		c0.31,0.823,0.48,1.714,0.48,2.645c0,4.142-3.358,7.5-7.5,7.5s-7.5-3.358-7.5-7.5c0-0.899,0.158-1.761,0.448-2.56"/>
	<circle cx="24" cy="29" r="4"/>
	<g>
		<g>
			<path d="M27.878,8c2.941,0,7.11,1.996,10.477,4.157C35.035,10.944,31.356,10,29,10c-5.131,0-12.96,2.84-20.538,5.749
				l-0.354,0.136c-0.183,0.07-0.371,0.106-0.561,0.106c-0.561,0-1.239-0.333-1.487-1.077c-0.183-0.547-0.019-0.998,0.094-1.217
				c0.114-0.22,0.388-0.616,0.944-0.784c0.804-0.244,1.675-0.515,2.598-0.803C15.264,10.375,22.888,8,27.878,8 M27.878,5
				c-6.305,0-15.798,3.267-21.65,5.041c-2.465,0.747-3.829,3.377-3.014,5.821v0c0.641,1.923,2.426,3.128,4.333,3.128
				c0.543,0,1.096-0.098,1.635-0.305C14.588,16.612,23.885,13,29,13c2.822,0,8.788,1.866,12.417,3.727
				c0.362,0.185,0.747,0.274,1.127,0.274c0.879,0,1.726-0.473,2.165-1.305c0.533-1.01,0.302-2.251-0.563-2.997
				C41.238,10.191,33.499,5,27.878,5L27.878,5z"/>
		</g>
	</g>
</g>
</svg>