<?xml version="1.0" encoding="utf-8"?><!-- Generator: Adobe Illustrator 17.0.0, SVG Export Plug-In . SVG Version: 6.00 Build 0)  --><!DOCTYPE svg PUBLIC "-//W3C//DTD SVG 1.1//EN" "http://www.w3.org/Graphics/SVG/1.1/DTD/svg11.dtd"><svg xmlns="http://www.w3.org/2000/svg" xmlns:xlink="http://www.w3.org/1999/xlink" viewBox="0 0 50 50" width="500px" height="500px"><path fill="none" stroke="#000000" stroke-width="2" stroke-linecap="round" stroke-linejoin="round" stroke-miterlimit="10" d="M36.026,16.026C37.96,16.603,37.5,20,35.184,20c-4.789,0-3.921-6-8.184-6c-0.798,0-1.475,0.251-2,0.682C24.475,14.251,23.798,14,23,14c-4.263,0-3.395,6-8.184,6c-2.316,0-2.776-3.397-0.842-3.974c-1.5,0-2.974,1.184-2.974,2.474c0,1.289,0.816,4.5,6,4.5c2.97,0,6.303-1.002,8-2.896C26.697,21.998,30.03,23,33,23c5.184,0,6-3.211,6-4.5C39,17.211,37.526,16.026,36.026,16.026z"/><circle cx="33" cy="5" r="3"/><circle cx="17" cy="5" r="3"/><path fill="none" stroke="#000000" stroke-width="2" stroke-linecap="round" stroke-miterlimit="10" d="M7.5,1C7.253,2.144,7.076,3.358,7,4.636c-2.274,0-4,1.106-4,4.334c0,3.233,2.071,5.554,3.87,5.554C8,27,18.944,36,25,36s17-9,18.132-21.466c2.286,0,3.868-2.449,3.868-5.564c0-3.107-1.842-4.334-4-4.334C42.928,3.382,42.738,2.124,42.5,1"/></svg>