<?xml version="1.0" encoding="utf-8"?><!-- Generator: Adobe Illustrator 21.1.0, SVG Export Plug-In . SVG Version: 6.00 Build 0)  --><svg xmlns="http://www.w3.org/2000/svg" xmlns:xlink="http://www.w3.org/1999/xlink" viewBox="0 0 128 128" width="512px" height="512px"><g><path d="M125.7,29.5l-42-28C83.2,1.2,82.6,1,82,1H46c-0.6,0-1.2,0.2-1.7,0.5l-42,28c-0.7,0.5-1.1,1.2-1.3,2c-0.1,0.8,0,1.6,0.5,2.3l15,21c0.5,0.7,1.2,1.1,2,1.2c0.8,0.1,1.6-0.1,2.2-0.5L31,47.9V124c0,1.7,1.3,3,3,3h8.7c1.7,0,3-1.3,3-3s-1.3-3-3-3H37V78h12.7v46c0,1.7,1.3,3,3,3H94c1.7,0,3-1.3,3-3V47.9l10.2,7.5c0.6,0.5,1.5,0.7,2.2,0.5c0.8-0.1,1.5-0.6,2-1.2l15-21c0.5-0.7,0.7-1.5,0.5-2.3C126.8,30.7,126.3,30,125.7,29.5z M77.2,7L63.3,35.4L50.6,7H77.2z M91,121H55.7V78H91V121z M108.3,48.8l-12.5-9.2c-0.9-0.7-2.1-0.8-3.1-0.3c-1,0.5-1.6,1.5-1.6,2.7v30H37V42c0-1.1-0.6-2.2-1.6-2.7c-1-0.5-2.2-0.4-3.1,0.3l-12.5,9.2l-11.4-16L44.7,8.5l15,33.6c0.1,0.1,0.1,0.3,0.2,0.4l-6.9,14c-1.2,2.4-2.1,5-2.6,7.6c-0.3,1.6,0.7,3.2,2.3,3.6c0.2,0,0.4,0.1,0.6,0.1c1.4,0,2.6-1,2.9-2.4c0.5-2.1,1.2-4.2,2.1-6.2L83.2,8.4l36.6,24.4L108.3,48.8z"/></g></svg>