<?xml version="1.0" encoding="iso-8859-1"?><!-- Generator: Adobe Illustrator 20.1.0, SVG Export Plug-In . SVG Version: 6.00 Build 0)  --><svg xmlns="http://www.w3.org/2000/svg" xmlns:xlink="http://www.w3.org/1999/xlink" viewBox="0 0 50 50" width="500px" height="500px"><path style="fill:none;stroke:#000000;stroke-width:2;stroke-miterlimit:10;" d="M34.56,18.21c-3.43-2.58-9.19-4.07-10.93-5.06L8,4.26C7.047,3.702,5.822,4.023,5.264,4.976C5.259,4.984,5.255,4.992,5.25,5l-1,1.74C3.699,7.697,4.028,8.92,4.985,9.471C4.99,9.474,4.995,9.477,5,9.48l17.4,9.88c0.96,0.547,2.181,0.213,2.728-0.747c0.001-0.001,0.001-0.002,0.002-0.003l0.49-0.87c3.554,1.59,7.019,3.373,10.38,5.34l2.65-1.45C37.348,20.418,35.983,19.277,34.56,18.21z"/><path d="M43.68,21.89c-0.984-1.678-3.122-2.272-4.83-1.34L4.39,38.46c-1.083,0.581-1.884,1.577-2.22,2.76c-0.672,2.312,0.657,4.732,2.969,5.404c0.043,0.013,0.087,0.025,0.131,0.036c1.183,0.313,2.442,0.132,3.49-0.5l33.6-19.43c0.572-0.345,1.038-0.839,1.35-1.43l0,0C44.288,24.234,44.277,22.946,43.68,21.89z M7,43c-0.552,0-1-0.448-1-1s0.448-1,1-1s1,0.448,1,1S7.552,43,7,43z M40,25c-0.552,0-1-0.448-1-1s0.448-1,1-1s1,0.448,1,1S40.552,25,40,25z"/><path d="M47,27.5c-0.657-0.125-1.266-0.429-1.76-0.88c-0.469,0.747-1.106,1.373-1.86,1.83l-0.39,0.22c1.095,1.033,2.502,1.673,4,1.82c0.828,0,1.5-0.672,1.5-1.5s-0.672-1.5-1.5-1.5L47,27.5z"/></svg>