<?xml version="1.0" encoding="iso-8859-1"?>
<!-- Generator: Adobe Illustrator 24.0.2, SVG Export Plug-In . SVG Version: 6.00 Build 0)  -->
<svg version="1.1" id="&#x421;&#x43B;&#x43E;&#x439;_2"
	 xmlns="http://www.w3.org/2000/svg" xmlns:xlink="http://www.w3.org/1999/xlink" x="0px" y="0px" viewBox="0 0 80 80"
	 style="enable-background:new 0 0 80 80;" xml:space="preserve">
<path style="fill:none;stroke:#000000;stroke-width:2;stroke-miterlimit:10;" d="M27,35h26v16H27V35z"/>
<path style="fill:none;stroke:#000000;stroke-width:2;stroke-linejoin:round;stroke-miterlimit:10;" d="M31.138,70
	C26.092,70,21.046,70,16,70c0-2.333,0-4.667,0-7c0.667-0.001,1.333-0.003,2-0.004C18,48.997,18,34.999,18,21c14.667,0,29.333,0,44,0
	c0,14,0,28,0,42c0.667,0,1.333,0,2,0c0,2.333,0,4.667,0,7c-5.087,0-10.174,0-15.262,0"/>
<path style="fill:none;stroke:#000000;stroke-width:2;stroke-linejoin:round;stroke-miterlimit:10;" d="M31,70v-7h18v7"/>
<path style="fill:none;stroke:#000000;stroke-width:2;stroke-miterlimit:10;" d="M59,21v-2.813C59,13.684,55.054,10,50.231,10
	H29.769C24.946,10,21,13.684,21,18.187v2.729"/>
<path style="fill:none;stroke:#000000;stroke-width:2;stroke-linejoin:round;stroke-miterlimit:10;" d="M37,63c0,2.667,0,5.333,0,8
	 M43,63c0,2.667,0,5.333,0,8"/>
<path style="fill:none;stroke:#000000;stroke-width:2;stroke-linejoin:round;stroke-miterlimit:10;" d="M31,70c6,0,12,0,18,0"/>
<path style="fill:none;stroke:#000000;stroke-width:2;stroke-linecap:round;stroke-linejoin:round;stroke-miterlimit:10;stroke-dasharray:0,4;" d="
	M19,63c3.667,0,7.333,0,11,0"/>
<path style="fill:none;stroke:#000000;stroke-width:2;stroke-linecap:round;stroke-linejoin:round;stroke-miterlimit:10;stroke-dasharray:0,4;" d="
	M61,63c-3,0-6,0-9,0"/>
<path style="fill:none;stroke:#000000;stroke-width:2;stroke-linecap:round;stroke-linejoin:round;stroke-miterlimit:10;stroke-dasharray:0,4;" d="
	M22,28c12.333,0,24.667,0,37,0"/>
</svg>