<?xml version="1.0" encoding="iso-8859-1"?>
<!-- Generator: Adobe Illustrator 23.1.1, SVG Export Plug-In . SVG Version: 6.00 Build 0)  -->
<svg version="1.1" id="Layer_1" xmlns="http://www.w3.org/2000/svg" xmlns:xlink="http://www.w3.org/1999/xlink" x="0px" y="0px"
	 viewBox="0 0 64 64" style="enable-background:new 0 0 64 64;" xml:space="preserve">
<path style="fill:none;stroke:#000000;stroke-width:2;stroke-linecap:round;stroke-linejoin:round;stroke-miterlimit:10;" d="
	M51.294,5H46v50c0,2.761,2.239,5,5,5h0c2.761,0,5-2.239,5-5V9.75C56,7.137,53.882,5,51.294,5z M45.765,5H34 M46,10H34 M46,15H34
	 M46,20H34 M46,25H34 M46,30H34 M46,35H34"/>
<path d="M21,30c-1.105,0-2,0.895-2,2c0,1.105,0.895,2,2,2c1.105,0,2-0.895,2-2C23,30.895,22.105,30,21,30z"/>
<path style="fill:none;stroke:#000000;stroke-width:2;stroke-linejoin:round;stroke-miterlimit:10;" d="M29.978,45.875
	C28.8,45.639,27.943,45.526,27,46v-6V25c0-4.619-2.56-13.723-3.502-18.105C23.262,5.829,22.32,5,21.141,5h-0.589
	c-0.943,0.118-1.885,0.829-2.121,1.895C17.371,11.277,15,20.499,15,25v11c0,2.25,1.782,3.835,4.021,3.835l0,0
	C21.259,39.835,23,41.75,23,44v8v2c0,3.079,2.383,5.615,5.446,5.97C31.981,60.325,35,57.483,35,54.048v-2.132
	C35,48.955,32.923,46.349,29.978,45.875z"/>
<path style="fill:none;stroke:#000000;stroke-width:2;stroke-linejoin:round;stroke-miterlimit:10;" d="M19,39.835v11.844
	c0,0.355,0,2.013,0,2.369c0,3.316-2.64,5.922-6,5.922s-6-2.606-6-5.922c0-0.355,0-2.013,0-2.369c0-3.316,2.64-5.922,6-5.922
	c0.84,0,1.28,0.006,2,0.243V35"/>
<path style="fill:none;stroke:#000000;stroke-width:2;stroke-miterlimit:10;" d="M31,52c0-1.1-0.9-2-2-2s-2,0.9-2,2c0,0.4,0,1.6,0,2
	c0,1.1,0.9,2,2,2s2-0.9,2-2C31,53.6,31,52.4,31,52z M15,52c0-1.1-0.9-2-2-2s-2,0.9-2,2c0,0.4,0,1.6,0,2c0,1.1,0.9,2,2,2s2-0.9,2-2
	C15,53.6,15,52.4,15,52z"/>
<path d="M53,14c0-0.552-0.448-1-1-1h-2c-0.552,0-1,0.448-1,1s0.448,1,1,1h2C52.552,15,53,14.552,53,14z M53,9c0-0.552-0.448-1-1-1
	h-2c-0.552,0-1,0.448-1,1s0.448,1,1,1h2C52.552,10,53,9.552,53,9z M53,29c0-0.552-0.448-1-1-1h-2c-0.552,0-1,0.448-1,1s0.448,1,1,1
	h2C52.552,30,53,29.552,53,29z M53,34c0-0.552-0.448-1-1-1h-2c-0.552,0-1,0.448-1,1s0.448,1,1,1h2C52.552,35,53,34.552,53,34z
	 M53,39c0-0.552-0.448-1-1-1h-2c-0.552,0-1,0.448-1,1s0.448,1,1,1h2C52.552,40,53,39.552,53,39z M53,44c0-0.552-0.448-1-1-1h-2
	c-0.552,0-1,0.448-1,1s0.448,1,1,1h2C52.552,45,53,44.552,53,44z M53,49c0-0.552-0.448-1-1-1h-2c-0.552,0-1,0.448-1,1s0.448,1,1,1h2
	C52.552,50,53,49.552,53,49z M53,54c0-0.552-0.448-1-1-1h-2c-0.552,0-1,0.448-1,1s0.448,1,1,1h2C52.552,55,53,54.552,53,54z M53,19
	c0-0.552-0.448-1-1-1h-2c-0.552,0-1,0.448-1,1s0.448,1,1,1h2C52.552,20,53,19.552,53,19z M53,24c0-0.552-0.448-1-1-1h-2
	c-0.552,0-1,0.448-1,1s0.448,1,1,1h2C52.552,25,53,24.552,53,24z"/>
</svg>