<?xml version="1.0" encoding="iso-8859-1"?>
<!-- Generator: Adobe Illustrator 25.2.1, SVG Export Plug-In . SVG Version: 6.00 Build 0)  -->
<svg version="1.1" id="Layer_1" xmlns="http://www.w3.org/2000/svg" xmlns:xlink="http://www.w3.org/1999/xlink" x="0px" y="0px"
	 viewBox="0 0 64 64" style="enable-background:new 0 0 64 64;" xml:space="preserve">
<path d="M31.481,25c0.96,4.943,2.483,9.924,4.675,15.27l-2.775,1.138c0,0-3.38-6.408-4.95-16.408H12v21c0,1.657,1.342,3,3,3
	c6.073,0,11.951-1,17-1s10.927,1,17,1c1.658,0,3-1.343,3-3V25H31.481z"/>
<path d="M52,57H12c-3.309,0-6-2.691-6-6V17c0-2.206,1.794-4,4-4h44c2.206,0,4,1.794,4,4v34C58,54.309,55.309,57,52,57z M10,17v34
	c0,1.103,0.897,2,2,2h40c1.103,0,2-0.897,2-2V17H10z"/>
<rect x="22" y="10" width="19" height="5"/>
<path style="fill:none;stroke:#000000;stroke-width:4;stroke-miterlimit:10;" d="M38,40c-2.584-4.599-6-15.187-6-27"/>
<path d="M26,2v2.277C26.595,4.624,27,5.262,27,6c0,0.738-0.405,1.376-1,1.723V12h12V2H26z"/>
</svg>