<?xml version="1.0" encoding="iso-8859-1"?>
<!-- Generator: Adobe Illustrator 24.1.2, SVG Export Plug-In . SVG Version: 6.00 Build 0)  -->
<svg version="1.1" baseProfile="basic" id="Layer_1"
	 xmlns="http://www.w3.org/2000/svg" xmlns:xlink="http://www.w3.org/1999/xlink" x="0px" y="0px" viewBox="0 0 64 64"
	 xml:space="preserve">
<path d="M52.392,19.238c-0.807-0.876-0.752-2.07-0.724-3.271c0.062-2.645-1.152-4.626-3.585-6.208c0,0,0,0,0,0c0,0,0,0,0,0
	c-2.433-1.582-4.737-1.887-7.129-0.758c-1.086,0.513-2.155,1.047-3.283,0.665c-2.377-0.804-4.777-0.442-5.773,1.137
	c-2.328,3.93,3.197,8.251,7.294,8.656c1.519,0.166,2.865,1.041,3.633,2.362c2.032,3.581,8.223,6.877,10.871,3.154
	C54.735,23.425,54.092,21.084,52.392,19.238z M36.365,15.857c-1.621-1.054-2.446-2.659-1.844-3.585
	c0.602-0.926,2.404-0.823,4.025,0.231c1.621,1.054,2.446,2.659,1.844,3.585C39.787,17.014,37.986,16.911,36.365,15.857z
	 M44.813,14.789c-1.621-1.054-2.507-2.565-1.98-3.375c0.527-0.81,2.268-0.613,3.888,0.441c1.621,1.054,2.507,2.565,1.98,3.375
	C48.174,16.04,46.433,15.843,44.813,14.789z M47.264,22.943c-1.621-1.054-2.446-2.659-1.844-3.585
	c0.602-0.926,2.404-0.823,4.024,0.231c1.621,1.054,2.446,2.659,1.844,3.585C50.686,24.101,48.884,23.997,47.264,22.943z"/>
<path d="M44.993,26.817c-1.668-1.085-3.056-2.508-3.897-3.99c-0.22-0.379-0.53-0.705-0.896-0.943
	c-0.366-0.238-0.79-0.389-1.204-0.435c-1.717-0.169-3.581-0.86-5.249-1.945c-2.21-1.437-3.634-3.263-4.16-5.145l-2.758,4.242
	l0.036,0.023c-1.922,3.854,3.421,7.985,7.423,8.38c1.519,0.166,2.865,1.041,3.633,2.362c1.985,3.497,7.928,6.704,10.671,3.384
	l0.036,0.023l2.758-4.242C49.449,28.815,47.203,28.254,44.993,26.817z"/>
<path d="M40.074,34.351c-1.662-1.081-3.046-2.5-3.884-3.978c-0.22-0.379-0.53-0.705-0.896-0.943
	c-0.366-0.238-0.79-0.389-1.204-0.435c-1.712-0.169-3.571-0.857-5.234-1.938c-1.243-0.808-2.23-1.737-2.959-2.727
	c-0.62,1.074-1.438,2.355-2.437,3.682c-1.034-0.605-2.275-0.817-3.455-0.557c-1.264,0.28-2.339,1.039-3.027,2.139l-2.842,4.544
	c-0.116,0.185-0.197,0.383-0.246,0.586c-0.202,0.837-0.632,1.593-1.349,2.072c-7.852,5.243-9.564,16.937-2.986,19.287
	c2.823,1.009,5.998-0.217,7.619-2.74C22.459,45.118,33.532,49.668,44,35.988C42.729,35.745,41.399,35.212,40.074,34.351z
	 M22.194,29.598c-0.001,0.001-0.002,0.003-0.004,0.004c0.155,0.07,0.306,0.154,0.451,0.251c0.157,0.11,0.31,0.229,0.447,0.376
	c1.007,1.079,1.483,2.497,1.392,3.897c-0.055,0.84-0.313,1.674-0.783,2.425l-2.649,4.235l-5.218-5.588l0.205-0.328l0,0l2.637-4.216
	C19.444,29.423,20.968,29.043,22.194,29.598z"/>
</svg>