<?xml version="1.0" encoding="iso-8859-1"?>
<!-- Generator: Adobe Illustrator 24.3.0, SVG Export Plug-In . SVG Version: 6.00 Build 0)  -->
<svg version="1.1" xmlns="http://www.w3.org/2000/svg" xmlns:xlink="http://www.w3.org/1999/xlink" x="0px" y="0px"
	 viewBox="0 0 48 48" style="enable-background:new 0 0 48 48;" xml:space="preserve">
<g id="&#x421;&#x43B;&#x43E;&#x439;_1">
</g>
<g id="&#x421;&#x43B;&#x43E;&#x439;_2">
</g>
<g id="&#x421;&#x43B;&#x43E;&#x439;_3">
</g>
<g id="&#x421;&#x43B;&#x43E;&#x439;_4">
</g>
<g id="&#x421;&#x43B;&#x43E;&#x439;_5">
	<path style="fill:none;stroke:#000000;stroke-width:3;stroke-linecap:round;stroke-miterlimit:10;" d="M18.522,44.5
		c-1.438-1.174-1.412-3.419,0-5.236"/>
	<g>
		<path d="M16.013,17.886c0.06-2.93-2.625-5.526-6.121-5.852C9.648,12.011,9.406,12,9.167,12c-3.265,0-5.944,2.081-6.134,4.894
			c-0.204,3.019,2.536,5.737,6.12,6.072C9.397,22.989,9.639,23,9.878,23c0.033,0,0.065-0.003,0.098-0.004l-0.003,0.003
			c0,0,7.516,0.442,12.854,0.739l3.836-6.729h-3.623L16.013,17.886z M9.431,19.979c-1.906-0.178-3.497-1.525-3.405-2.882
			C6.106,15.921,7.486,15,9.167,15c0.147,0,0.297,0.007,0.446,0.021c1.906,0.178,3.497,1.525,3.405,2.882
			C12.939,19.079,11.559,20,9.878,20C9.731,20,9.58,19.993,9.431,19.979z"/>
		<path d="M43.523,17.009H31.215l-0.18,0.368c-0.173,0.4-0.425,0.852-0.718,1.28l-3.026,5.317C27.654,23.99,27.901,24,27.997,24
			c2.996,0,10.957-2.042,14.072-2.908c1.593-0.442,2.648-1.258,2.888-2.269C45.131,18.09,44.754,17.009,43.523,17.009z"/>
	</g>
	<path d="M33.823,2.997c-1.188,0-2.035,0.292-3.58,1.885c-2.271,2.342-6.102,6.376-7.554,9.066
		C20.626,17.773,15.613,32.3,15.613,32.3l0.019-0.01c-0.037,0.092-0.085,0.175-0.119,0.269c-1.253,3.43-0.026,7.086,2.741,8.164
		c0.524,0.204,1.066,0.302,1.608,0.302c2.32,0,4.653-1.779,5.669-4.559c1.253-3.43,0.026-7.085-2.741-8.164
		c-0.075-0.029-0.152-0.04-0.228-0.065l6.06-10.647c0.242-0.343,0.448-0.708,0.616-1.092l5.215-10.653
		C35.621,3.749,34.691,2.997,33.823,2.997z M22.714,35.437c-0.621,1.699-1.904,2.589-2.851,2.589c-0.182,0-0.352-0.032-0.519-0.097
		c-1.075-0.419-1.756-2.305-1.013-4.34C18.952,31.889,20.236,31,21.183,31c0.182,0,0.351,0.032,0.518,0.097
		C22.776,31.516,23.457,33.402,22.714,35.437z"/>
</g>
<g id="&#x421;&#x43B;&#x43E;&#x439;_6">
</g>
</svg>