<?xml version="1.0" encoding="iso-8859-1"?>
<!-- Generator: Adobe Illustrator 26.1.0, SVG Export Plug-In . SVG Version: 6.00 Build 0)  -->
<svg version="1.1" baseProfile="basic" id="Layer_1"
	 xmlns="http://www.w3.org/2000/svg" xmlns:xlink="http://www.w3.org/1999/xlink" x="0px" y="0px" viewBox="0 0 24 24"
	 xml:space="preserve">
<g>
	<path d="M15,5.5c1.207,0,2.218,0.86,2.45,2H6.55c0.232-1.14,1.242-2,2.45-2H15 M15,3H9C6.243,3,4,5.243,4,8v1c0,0.552,0.447,1,1,1
		h14c0.553,0,1-0.448,1-1V8C20,5.243,17.757,3,15,3L15,3z"/>
</g>
<g>
	<path style="fill:none;stroke:#000000;stroke-width:2.5;stroke-linecap:round;stroke-linejoin:round;stroke-miterlimit:10;" d="
		M18.25,19.75L18.25,19.75c0.828,0,1.5-0.672,1.5-1.5v-8.5c0-0.552-0.448-1-1-1H5.25c-0.552,0-1,0.448-1,1v8.5
		c0,0.828,0.672,1.5,1.5,1.5h0"/>
</g>
<line style="fill:none;stroke:#000000;stroke-width:2.5;stroke-linecap:round;stroke-linejoin:round;stroke-miterlimit:10;" x1="10.25" y1="19.75" x2="13.75" y2="19.75"/>
</svg>