<?xml version="1.0" encoding="iso-8859-1"?>
<!-- Generator: Adobe Illustrator 25.2.3, SVG Export Plug-In . SVG Version: 6.00 Build 0)  -->
<svg version="1.1" baseProfile="basic" id="Layer_1"
	 xmlns="http://www.w3.org/2000/svg" xmlns:xlink="http://www.w3.org/1999/xlink" x="0px" y="0px" viewBox="0 0 72 72"
	 xml:space="preserve">
<path d="M16,35c-1.657,0-3-1.343-3-3V16c0-1.657,1.343-3,3-3s3,1.343,3,3v16C19,33.657,17.657,35,16,35z"/>
<path d="M24,35c-1.657,0-3-1.343-3-3V16c0-1.657,1.343-3,3-3s3,1.343,3,3v16C27,33.657,25.657,35,24,35z"/>
<path d="M32,35c-1.657,0-3-1.343-3-3V16c0-1.657,1.343-3,3-3s3,1.343,3,3v16C35,33.657,33.657,35,32,35z"/>
<path d="M40,35c-1.657,0-3-1.343-3-3V16c0-1.657,1.343-3,3-3s3,1.343,3,3v16C43,33.657,41.657,35,40,35z"/>
<path d="M48,35c-1.657,0-3-1.343-3-3V16c0-1.657,1.343-3,3-3s3,1.343,3,3v16C51,33.657,49.657,35,48,35z"/>
<path d="M56,35c-1.657,0-3-1.343-3-3V16c0-1.657,1.343-3,3-3s3,1.343,3,3v16C59,33.657,57.657,35,56,35z"/>
<path d="M59,28v6c0,5.523-4.477,10-10,10l-6.379,0c-0.043,0-0.081,0.028-0.095,0.069c-0.014,0.041,0.001,0.086,0.035,0.112
	C45.253,46.185,47,49.386,47,53c0,6.499-5.636,11.681-12.287,10.927c-4.913-0.557-8.936-4.477-9.607-9.376
	c-0.58-4.239,1.261-8.083,4.332-10.371c0.035-0.026,0.049-0.071,0.035-0.112S29.422,44,29.379,44L23,44c-5.523,0-10-4.477-10-10v-6
	H59z M36,50c-1.657,0-3,1.343-3,3s1.343,3,3,3s3-1.343,3-3S37.657,50,36,50z"/>
</svg>