<?xml version="1.0" encoding="iso-8859-1"?><!-- Generator: Adobe Illustrator 20.1.0, SVG Export Plug-In . SVG Version: 6.00 Build 0)  --><svg xmlns="http://www.w3.org/2000/svg" xmlns:xlink="http://www.w3.org/1999/xlink" viewBox="0 0 50 50" width="500px" height="500px"><path style="fill:none;stroke:#000000;stroke-width:2;stroke-miterlimit:10;" d="M8.668,16.095l25.237,25.237c0.891,0.891,2.336,0.891,3.227,0l9.2-9.2c0.891-0.891,0.891-2.336,0-3.227L21.095,3.668c-0.891-0.891-2.336-0.891-3.227,0l-9.2,9.2C7.777,13.759,7.777,15.204,8.668,16.095z"/><line style="fill:none;stroke:#000000;stroke-width:2;stroke-miterlimit:10;" x1="32.168" y1="39.51" x2="44.56" y2="27.118"/><line style="fill:none;stroke:#000000;stroke-width:2;stroke-miterlimit:10;" x1="10.49" y1="17.832" x2="22.882" y2="5.44"/><path style="fill:none;stroke:#000000;stroke-width:2;stroke-miterlimit:10;" d="M41.662,30.236L19.764,8.338"/><path style="fill:none;stroke:#000000;stroke-width:2;stroke-miterlimit:10;" d="M38.662,33.236L16.764,11.338"/><path style="fill:none;stroke:#000000;stroke-width:2;stroke-miterlimit:10;" d="M35.662,36.236L13.764,14.338"/><path d="M32.21,39.636l1.695,1.695c0.891,0.891,2.336,0.891,3.227,0l9.2-9.2c0.891-0.891,0.891-2.336,0-3.227l-1.695-1.695L32.21,39.636z"/><path d="M8.668,16.095l1.811,1.811L22.906,5.479l-1.811-1.811c-0.891-0.891-2.336-0.891-3.227,0l-9.2,9.2C7.777,13.759,7.777,15.204,8.668,16.095z"/><path d="M28.528,34.533L15.461,21.465l-0.406-0.006c-0.439,0.007-0.739,0.252-1.161,0.675c-2.013,2.012-3.044,4.753-2.871,7.583l-1.851,1.851C8.416,32.324,8,33.329,8,34.397s0.416,2.073,1.172,2.828l3.603,3.603C13.53,41.584,14.534,42,15.603,42c1.069,0,2.073-0.416,2.828-1.172l1.852-1.851c2.822,0.175,5.571-0.858,7.581-2.869c0.43-0.427,0.689-0.72,0.677-1.177L28.528,34.533z"/><path d="M11.36,42.242L7.758,38.64c-0.624-0.623-1.087-1.362-1.383-2.166l-4.082,4.081C2.105,40.742,2,40.997,2,41.262s0.105,0.52,0.293,0.707l5.738,5.738C8.227,47.902,8.482,48,8.738,48s0.512-0.098,0.707-0.293l4.082-4.081C12.723,43.329,11.984,42.866,11.36,42.242z"/></svg>