<?xml version="1.0" encoding="utf-8"?><!-- Generator: Adobe Illustrator 15.0.0, SVG Export Plug-In . SVG Version: 6.00 Build 0)  --><!DOCTYPE svg PUBLIC "-//W3C//DTD SVG 1.1//EN" "http://www.w3.org/Graphics/SVG/1.1/DTD/svg11.dtd"><svg xmlns="http://www.w3.org/2000/svg" xmlns:xlink="http://www.w3.org/1999/xlink" viewBox="0 0 50 50" width="500px" height="500px"><path d="M49,14.041c-2.719,0-3.679-0.616-4.525-1.159c-0.703-0.451-1.311-0.841-3.475-0.841c-0.575,0-1.041-0.466-1.041-1.041S40.425,9.959,41,9.959c2.774,0,3.744,0.622,4.599,1.171c0.693,0.445,1.293,0.829,3.401,0.829c0.575,0,1.041,0.466,1.041,1.041S49.575,14.041,49,14.041z"/><path d="M49,19.041c-2.719,0-3.679-0.616-4.525-1.159c-0.703-0.451-1.311-0.841-3.475-0.841c-0.575,0-1.041-0.466-1.041-1.041s0.466-1.041,1.041-1.041c2.774,0,3.744,0.622,4.599,1.171c0.693,0.445,1.293,0.829,3.401,0.829c0.575,0,1.041,0.466,1.041,1.041S49.575,19.041,49,19.041z"/><path d="M49,24.041c-2.719,0-3.679-0.616-4.525-1.159c-0.703-0.451-1.311-0.841-3.475-0.841c-0.575,0-1.041-0.466-1.041-1.041s0.466-1.041,1.041-1.041c2.774,0,3.744,0.622,4.599,1.171c0.693,0.445,1.293,0.829,3.401,0.829c0.575,0,1.041,0.466,1.041,1.041S49.575,24.041,49,24.041z"/><g><path d="M14,11c-2.757,0-5,2.243-5,5s2.243,5,5,5s5-2.243,5-5S16.757,11,14,11z"/><path d="M38.242,7.644L18.286,2.675C16.895,2.227,15.452,2,14,2C6.28,2,0,8.28,0,16s6.28,14,14,14c1.454,0,2.897-0.228,4.224-0.656l20.019-4.989C38.688,24.244,39,23.844,39,23.385V8.614C39,8.155,38.688,7.755,38.242,7.644z M14,23c-3.86,0-7-3.14-7-7s3.14-7,7-7s7,3.14,7,7S17.86,23,14,23z"/><g><path d="M18.771,31.269C17.265,31.747,15.617,32,14,32c-3.147,0-6.076-0.926-8.554-2.502c0.019,0.117,0.042,0.221,0.059,0.345c0.18,1.36-0.465,6.807-1.255,10.596C3.535,43.874,4.796,46.097,8,47.048c0.04,0.012,0.08,0.021,0.121,0.027l4.982,0.825c0.169,0.02,0.622,0.065,1.17,0.065c2.468,0,3.298-0.92,3.559-1.691c0.407-1.204-0.099-2.029-0.505-2.692c-0.533-0.869-1.195-1.951-0.501-4.925c0.48-2.057,0.988-3.715,1.577-5.636l0.156-0.511c0.153-0.499,0.324-0.931,0.501-1.314L18.771,31.269z"/></g></g></svg>