<?xml version="1.0" encoding="iso-8859-1"?><!-- Generator: Adobe Illustrator 19.1.1, SVG Export Plug-In . SVG Version: 6.00 Build 0)  --><svg xmlns="http://www.w3.org/2000/svg" xmlns:xlink="http://www.w3.org/1999/xlink" viewBox="0 0 50 50" width="500px" height="500px"><g><g><path fill="none" stroke="#000000" stroke-width="2" stroke-linejoin="round" d="M45.906,24.562c0,0-0.128-0.139-0.349-0.352"/><path fill="none" stroke="#000000" stroke-width="2" stroke-linejoin="round" stroke-dasharray="0.9177,0.9177" d="M44.877,23.597C44.013,22.87,42.746,22,41.634,22c-1.521,0-3.024,0.976-4.536,2.029"/><path fill="none" stroke="#000000" stroke-width="2" stroke-linejoin="round" d="M36.715,24.296c-0.137,0.096-0.273,0.191-0.41,0.286"/></g></g><path d="M46,48H18.577c-1,0-1.968-0.296-2.796-0.854l-12.51-8.441c-0.442-0.299-0.743-0.752-0.845-1.275c-0.102-0.524,0.006-1.058,0.305-1.501L3.85,34.27c0.298-0.442,0.751-0.742,1.275-0.845c0.525-0.102,1.057,0.006,1.5,0.305L18.883,42H46c1.103,0,2,0.897,2,2v2C48,47.103,47.103,48,46,48z"/><g><polygon points="7.052,43.668 3.43,46.183 4.57,47.825 8.83,44.868 "/><polygon points="17.644,38.751 37.026,25.3 35.886,23.656 15.865,37.551 "/></g><path fill="none" stroke="#000000" stroke-width="2" stroke-linecap="round" stroke-linejoin="round" stroke-miterlimit="10" d="M32,4c2.225,0,6.528,0.405,7,6c2.111,0,7.401,1.458,5,8"/><path fill="none" stroke="#000000" stroke-width="2" stroke-linecap="round" stroke-linejoin="round" stroke-miterlimit="10" d="M26,3c0,0-2,2.419-2,5c0,7.957,12.03,1.098,14,10"/></svg>