<?xml version="1.0" encoding="iso-8859-1"?><!-- Generator: Adobe Illustrator 19.2.1, SVG Export Plug-In . SVG Version: 6.00 Build 0)  --><svg xmlns="http://www.w3.org/2000/svg" xmlns:xlink="http://www.w3.org/1999/xlink" viewBox="0 0 50 50" width="500px" height="500px"><path style="fill:none;stroke:#000000;stroke-width:2;stroke-linecap:round;stroke-linejoin:round;stroke-miterlimit:10;" d="M33,11c0,4.418-8,14-8,14s-8-9.582-8-14s3.582-8,8-8S33,6.582,33,11z"/><path d="M27.5,16.196C27.5,17.577,25,23,25,23s-2.5-5.423-2.5-6.804s1.119-2.5,2.5-2.5S27.5,14.816,27.5,16.196z"/><path d="M17.4,19.902c1.313,0.427,5.698,4.48,5.698,4.48s-5.93,0.702-7.243,0.275c-1.313-0.427-2.032-1.837-1.605-3.15S16.087,19.475,17.4,19.902z"/><path d="M17.803,30.653c0.812-1.117,6.022-4.035,6.022-4.035s-1.165,5.857-1.976,6.974s-2.375,1.365-3.492,0.553C17.239,33.333,16.991,31.77,17.803,30.653z"/><path d="M28.152,33.592c-0.812-1.117-1.976-6.974-1.976-6.974s5.21,2.918,6.022,4.035c0.812,1.117,0.564,2.68-0.553,3.492C30.527,34.956,28.964,34.709,28.152,33.592z"/><path d="M34.145,24.657c-1.313,0.427-7.243-0.275-7.243-0.275s4.385-4.053,5.698-4.48c1.313-0.427,2.724,0.292,3.15,1.605S35.458,24.231,34.145,24.657z"/><path style="fill:none;stroke:#000000;stroke-width:2;stroke-linecap:round;stroke-linejoin:round;stroke-miterlimit:10;" d="M14.157,13.065C18.359,14.431,25,25,25,25s-11.585,4.648-15.787,3.282c-4.202-1.365-6.502-5.879-5.136-10.081S9.955,11.7,14.157,13.065z"/><path style="fill:none;stroke:#000000;stroke-width:2;stroke-linecap:round;stroke-linejoin:round;stroke-miterlimit:10;" d="M10.299,31.624C12.896,28.049,25,25,25,25s0.84,12.454-1.757,16.029c-2.597,3.574-7.6,4.367-11.174,1.77S7.702,35.198,10.299,31.624z"/><path style="fill:none;stroke:#000000;stroke-width:2;stroke-linecap:round;stroke-linejoin:round;stroke-miterlimit:10;" d="M39.701,31.624C37.104,28.049,25,25,25,25s-0.84,12.454,1.757,16.029c2.597,3.574,7.6,4.367,11.174,1.77C41.506,40.201,42.298,35.198,39.701,31.624z"/><path style="fill:none;stroke:#000000;stroke-width:2;stroke-linecap:round;stroke-linejoin:round;stroke-miterlimit:10;" d="M35.843,13.065C31.641,14.431,25,25,25,25s11.585,4.648,15.787,3.282c4.202-1.365,6.502-5.879,5.136-10.081C44.558,14,40.045,11.7,35.843,13.065z"/></svg>