<?xml version="1.0" encoding="iso-8859-1"?>
<!-- Generator: Adobe Illustrator 18.0.0, SVG Export Plug-In . SVG Version: 6.00 Build 0)  -->
<!DOCTYPE svg PUBLIC "-//W3C//DTD SVG 1.1//EN" "http://www.w3.org/Graphics/SVG/1.1/DTD/svg11.dtd">
<svg version="1.1" id="Layer_1" xmlns="http://www.w3.org/2000/svg" xmlns:xlink="http://www.w3.org/1999/xlink" x="0px" y="0px"
	 width="50px" height="50px" viewBox="0 0 50 50" style="enable-background:new 0 0 50 50;" xml:space="preserve">
<g>
	<polygon points="24.361,9.954 28.74,3 19.991,3 20.142,3.253 	"/>
	<path d="M48.29,23.572L36.925,6.226c-0.06-0.092-0.15-0.16-0.252-0.196l-5.889-2.524l-5.241,8.325l4.303,6.835
		C29.947,18.826,30,19.01,30,19.199V27h-2v-7.513L18.041,3.581l-5.696,2.441c-0.11,0.034-0.206,0.105-0.271,0.204L0.71,23.572
		c-0.072,0.111-0.098,0.246-0.071,0.376c0.027,0.13,0.104,0.244,0.215,0.316l5.587,3.66c0.232,0.153,0.541,0.088,0.691-0.143
		L12,20.394V28h-0.5c-0.276,0-0.5,0.224-0.5,0.5v4c0,0.276,0.224,0.5,0.5,0.5H12v14.463c0,0.276,0.224,0.5,0.5,0.5H28V34h2v13.963
		h6.5c0.276,0,0.5-0.224,0.5-0.5V33h0.5c0.276,0,0.5-0.224,0.5-0.5v-4c0-0.276-0.224-0.5-0.5-0.5H37v-7.606l4.867,7.389
		c0.152,0.23,0.46,0.296,0.691,0.143l5.587-3.66c0.111-0.073,0.188-0.187,0.215-0.316C48.388,23.818,48.362,23.683,48.29,23.572z
		 M18,32h-5v-3h5V32z M23,43h-3V28h3V43z M36,32H25v-3h11V32z"/>
</g>
</svg>