<?xml version="1.0" encoding="utf-8"?><!-- Generator: Adobe Illustrator 15.0.0, SVG Export Plug-In . SVG Version: 6.00 Build 0)  --><!DOCTYPE svg PUBLIC "-//W3C//DTD SVG 1.1//EN" "http://www.w3.org/Graphics/SVG/1.1/DTD/svg11.dtd"><svg xmlns="http://www.w3.org/2000/svg" xmlns:xlink="http://www.w3.org/1999/xlink" viewBox="0 0 50 50" width="500px" height="500px"><path d="M37.541,35l-8.755-0.008c-5.58-0.006-11.913-0.012-12.79-0.012c-2.988,0-4.996-2.619-4.996-6.519c0-4.066,4.529-4.397,10-4.397c3.819,0,20,2.081,20,6.244C41,32.644,39.931,35,37.541,35z"/><path d="M41,50H17v-1c0-2.991,6.205-5,12-5c5.795,0,12,2.009,12,5V50z"/><path d="M29,42c1,0,2.006,0.06,3,0.165V36.94l-3.216-0.003c-0.917-0.001-1.854-0.002-2.784-0.003v5.23C26.994,42.06,28,42,29,42z"/><path d="M49.269,1.487C48.787,0.809,47.828,0,46,0c-4.282,0-7.349,3.496-9.113,10.391c-0.844,3.301-1.832,9.215-1.694,13.853c2.938,0.853,5.544,2.026,6.873,3.636c1.489-4.282,4.228-12.148,5.961-17.127l1.543-4.433C50.214,4.464,50.102,2.658,49.269,1.487z"/><path d="M15.996,36.98c-0.096,0-0.188-0.012-0.283-0.016C14.448,43.007,9.261,44,6,44H1c-0.552,0-1,0.447-1,1s0.448,1,1,1h5c2.539,0,10.259-0.707,11.748-9.019C16.858,36.98,16.229,36.98,15.996,36.98z"/><path d="M21,22.065c0.011,0,0.091,0.003,0.206,0.009C21.877,19.211,24.269,18,29,18h4.505c0.076-0.675,0.162-1.344,0.257-2H29c-3.87,0-8.876,0.69-9.827,6.078C19.816,22.065,20.433,22.065,21,22.065z"/></svg>