<?xml version="1.0" encoding="iso-8859-1"?><!-- Generator: Adobe Illustrator 23.0.1, SVG Export Plug-In . SVG Version: 6.00 Build 0)  --><svg xmlns="http://www.w3.org/2000/svg" xmlns:xlink="http://www.w3.org/1999/xlink" viewBox="0 0 50 50" width="500px" height="500px"><path d="M44.907,12.307c-1.189-1.238-5.977-6.025-7.214-7.214C36.289,3.743,34.444,3,32.5,3c-3.492,0-6.493,2.373-7.298,5.769l-0.103,0.405C23.687,14.658,23,18.036,23,19.5c0,4.136,3.364,7.5,7.5,7.5c1.464,0,4.842-0.687,10.326-2.099l0.404-0.103C44.627,23.993,47,20.992,47,17.5C47,15.556,46.257,13.711,44.907,12.307z M30.5,22c-1.381,0-2.5-1.119-2.5-2.5c0-1.381,1.119-2.5,2.5-2.5s2.5,1.119,2.5,2.5C33,20.881,31.881,22,30.5,22z M32.5,13c-1.381,0-2.5-1.119-2.5-2.5C30,9.119,31.119,8,32.5,8S35,9.119,35,10.5C35,11.881,33.881,13,32.5,13z M39.5,20c-1.381,0-2.5-1.119-2.5-2.5c0-1.381,1.119-2.5,2.5-2.5s2.5,1.119,2.5,2.5C42,18.881,40.881,20,39.5,20z"/><path d="M30.5,29c-5.238,0-9.5-4.262-9.5-9.5c0-0.137,0.004-0.291,0.014-0.468c-3.989,3.814-6.681,5.929-8.924,7.626c-3.517,2.659-6.312,6.178-8.082,10.177C3.104,38.875,3,39.619,3,40c0,1.87,0.728,3.627,2.05,4.95S8.13,47,10,47c0.371,0,1.088-0.098,3.03-0.949c3.969-1.736,7.529-4.583,10.293-8.231c1.688-2.228,3.804-4.848,7.636-8.833C30.787,28.996,30.635,29,30.5,29z M21.707,31.121l-4.718,4.718c-0.391,0.391-1.024,0.391-1.414,0l-1.414-1.414c-0.391-0.391-0.391-1.024,0-1.414l4.717-4.717c0.391-0.391,1.024-0.391,1.414,0l1.414,1.414C22.098,30.098,22.098,30.731,21.707,31.121z"/><line style="fill:none;stroke:#000000;stroke-width:2;stroke-miterlimit:10;" x1="15.993" y1="30.007" x2="19.993" y2="34.007"/></svg>