<?xml version="1.0" encoding="iso-8859-1"?>
<!-- Generator: Adobe Illustrator 24.0.2, SVG Export Plug-In . SVG Version: 6.00 Build 0)  -->
<svg version="1.1" id="&#x421;&#x43B;&#x43E;&#x439;_1"
	 xmlns="http://www.w3.org/2000/svg" xmlns:xlink="http://www.w3.org/1999/xlink" x="0px" y="0px" viewBox="0 0 50 50"
	 style="enable-background:new 0 0 50 50;" xml:space="preserve">
<path d="M35.37,27.73c-0.76,0-1.37,0.61-1.37,1.36s0.61,1.36,1.37,1.36c0.75,0,1.36-0.61,1.36-1.36S36.12,27.73,35.37,27.73z
	 M25.37,27.73c-0.76,0-1.37,0.61-1.37,1.36s0.61,1.36,1.37,1.36c0.75,0,1.36-0.61,1.36-1.36S26.12,27.73,25.37,27.73z"/>
<path d="M42.28,27.98c0,5.16-2.08,9.51-3.49,11.87c-0.69,1.15-1.22,1.83-1.29,1.91c-0.19,0.25-0.49,0.38-0.78,0.38
	c-0.22,0-0.44-0.07-0.62-0.22c-0.41-0.32-0.5-0.9-0.22-1.33c0.01-0.01,0.01-0.01,0.02-0.02c0.01-0.02,0.02-0.03,0.03-0.05
	c0.05-0.06,4.35-5.6,4.35-12.54c0-5.07-2.3-8.32-3.66-9.79c-0.52-0.58-0.9-0.88-0.96-0.92c-0.34-0.27-0.46-0.72-0.33-1.11
	c0.04-0.1,0.09-0.2,0.16-0.29c0.04-0.06,0.09-0.11,0.14-0.15c0.01-0.02,0.03-0.03,0.05-0.04c0.05-0.04,0.11-0.08,0.16-0.1
	c0.07-0.04,0.15-0.07,0.24-0.08c0.06-0.01,0.13-0.02,0.19-0.02c0.04,0,0.09,0,0.14,0.01c0.05,0.01,0.09,0.01,0.14,0.03
	c0.16,0.05,0.31,0.13,0.42,0.24C37.68,16.33,42.28,20.38,42.28,27.98z"/>
<path d="M49.79,37.25c-3.37-4.33-2.91-8.02-2.42-11.93c0.18-1.41,0.36-2.86,0.36-4.35c0-5.97-2.67-12.93-10.17-13.18
	C34.39,4.67,31.3,4,29.23,4C19.22,4,13,10.22,13,20.25c0,0.06,0,0.12,0.01,0.18v0.01c0,0.38,0.01,0.76,0.04,1.15
	c0.04,0.49,0.09,0.99,0.15,1.5l0.12-0.12l1.71-1.71C15.01,20.92,15,20.58,15,20.25c0-0.65,0.03-1.28,0.09-1.89
	C15.79,10.58,20.97,6,29.23,6c1.74,0,4.41,0.6,7.19,3.48c0.19,0.19,0.45,0.3,0.72,0.3c8.18,0,8.59,9.32,8.59,11.19
	c0,1.37-0.17,2.7-0.34,4.1c-0.48,3.87-0.98,7.86,2.11,12.43c-1.38,0.63-4.24,1.69-8.71,2.35c-0.68,0.11-1.4,0.2-2.15,0.28
	c-0.27,0.03-0.51,0.16-0.68,0.37c-0.02,0.02-0.04,0.05-0.06,0.07c-0.01,0.01-0.01,0.01-0.02,0.02c-1.75,2.2-3.71,3.41-5.51,3.41
	c-1.79,0-3.73-1.2-5.49-3.38c-0.04-0.06-0.08-0.11-0.14-0.16c0,0-0.04-0.04-0.12-0.11c-0.14-0.12-0.32-0.19-0.51-0.21
	c-0.9-0.09-1.74-0.21-2.52-0.33c-4.23-0.66-6.86-1.7-8.13-2.3c2.44-3.82,2.55-7.42,2.23-10.72c-0.09-0.84-0.2-1.67-0.31-2.47
	c0-0.02,0-0.03-0.01-0.05l-1.67,1.67l-0.11,0.11c0.11,0.87,0.2,1.74,0.21,2.63c0.09,2.75-0.4,5.6-2.61,8.59
	c-0.16,0.22-0.22,0.49-0.18,0.76c0.05,0.27,0.21,0.51,0.43,0.66c0.16,0.1,3.79,2.48,12.05,3.4C25.6,44.61,28.03,46,30.37,46
	c2.34,0,4.78-1.39,6.89-3.93c8.26-0.93,12.1-3.26,12.27-3.36c0.24-0.15,0.4-0.39,0.45-0.67C50.03,37.76,49.96,37.47,49.79,37.25z
	 M13.83,24.4v-0.01l-0.26-0.26c-0.08-0.06-0.16-0.1-0.25-0.13c0.03,0.19,0.05,0.39,0.08,0.59c0.06,0.4,0.11,0.81,0.16,1.21
	c0.26-0.19,0.44-0.5,0.44-0.84C14,24.75,13.94,24.56,13.83,24.4z"/>
<path d="M37.24,16.75c-0.02,0.07-0.19,0.64-0.62,1.44c-0.88,1.65-2.86,4.27-6.87,5.51c-0.6,0.18-1.28,0.35-2,0.52
	c-4.27,1.03-7.29,2.08-7.29,6.23c0,5.41,3.48,9.2,4.16,9.9c0.08,0.07,0.12,0.11,0.12,0.11c0.06,0.05,0.1,0.1,0.14,0.16
	c0.27,0.38,0.24,0.9-0.08,1.26c-0.2,0.21-0.47,0.32-0.74,0.32c-0.24,0-0.48-0.09-0.68-0.27c-0.08-0.07-0.87-0.82-1.79-2.12
	c-1.41-1.97-3.13-5.23-3.13-9.36c0-6.05,5.31-7.33,8.82-8.17c0.68-0.17,1.32-0.32,1.88-0.49c4.94-1.53,6.14-5.55,6.15-5.59
	c0-0.01,0.01-0.03,0.02-0.04c0.05-0.18,0.16-0.33,0.3-0.44c0.01-0.02,0.03-0.03,0.05-0.04c0.05-0.04,0.11-0.08,0.16-0.1
	c0.07-0.04,0.15-0.07,0.24-0.08c0.06-0.01,0.13-0.02,0.19-0.02c0.04,0,0.09,0,0.14,0.01c0.05,0.01,0.09,0.01,0.14,0.03
	c0.16,0.05,0.31,0.13,0.42,0.24C37.23,16.01,37.34,16.38,37.24,16.75z"/>
<path d="M7.14,17.14c-0.19-0.18-0.73-0.74-0.92-0.92c-0.55-0.55-1.46-0.55-2.01-0.09c-0.55,0.46-0.55,1.38,0,1.93l0.92,0.92
	c0.54,0.55,1.46,0.55,2.01,0.09C7.69,18.52,7.69,17.69,7.14,17.14z M7.15,30.85l-0.01-0.01c-0.02-0.02-0.03-0.03-0.05-0.04
	c-0.55-0.51-1.34-0.49-1.87,0.04c-0.19,0.18-0.73,0.74-0.92,0.92c-0.43,0.43-0.52,1.03-0.28,1.54c0.06,0.14,0.16,0.27,0.28,0.39
	s0.26,0.21,0.4,0.28c0.5,0.24,1.09,0.15,1.52-0.28c0.19-0.18,0.73-0.74,0.92-0.92C7.6,32.31,7.6,31.4,7.15,30.85z M13.83,24.4v-0.01
	l-0.26-0.26c-0.08-0.06-0.16-0.1-0.25-0.13c-0.1-0.04-0.21-0.06-0.33-0.06c-0.55,0-1.01,0.46-1.01,1.02c0,0.21,0.07,0.41,0.18,0.57
	c0.07,0.11,0.16,0.19,0.27,0.27c0.16,0.11,0.35,0.17,0.56,0.17c0.21,0,0.4-0.06,0.57-0.17c0.26-0.19,0.44-0.5,0.44-0.84
	C14,24.75,13.94,24.56,13.83,24.4z"/>
<g>
	<path d="M28.92,12.62C28.76,12.24,28.39,12,27.99,12h-3.93c-1.8,0-3.43,0.71-4.56,1.95l-4.27,4.27l-0.14,0.14l-2.78,2.78
		l-0.71,0.71l-1.71,1.7l-0.7,0.7l-0.71,0.71l-1.81,1.8H6.46c-0.34,0-0.68,0.04-1,0.11c-0.11,0.02-0.23,0.05-0.34,0.09
		C4.98,27,4.84,27.05,4.7,27.11s-0.27,0.12-0.41,0.19c-0.39,0.22-0.75,0.49-1.08,0.81l-1.83,1.84C0.46,30.88,0,32.08,0,33.28
		c0,1.19,0.46,2.38,1.38,3.32c0.9,0.9,2.09,1.4,3.34,1.4c1.24,0,2.42-0.5,3.32-1.4l1.83-1.84c0.9-0.91,1.39-2.2,1.34-3.46l2.59-2.62
		l2.01-2.01l12.9-12.97C28.99,13.42,29.08,12.99,28.92,12.62z M15.5,24.14l-0.13,0.13l-1.67,1.67l-0.11,0.11l-4.15,4.18
		c-0.23,0.23-0.34,0.55-0.28,0.86c0.14,0.81-0.15,1.68-0.73,2.27L6.6,35.19c-0.52,0.52-1.2,0.78-1.88,0.78
		c-0.69,0-1.38-0.26-1.89-0.78c-1.07-1.07-1.07-2.76,0-3.84l1.83-1.84c0.48-0.48,1.15-0.76,1.83-0.76c0.13,0,0.26,0.02,0.39,0.04
		c0.05,0.01,0.11,0.01,0.17,0.01c0.27,0,0.53-0.1,0.71-0.3l5.44-5.41l0.12-0.12l1.71-1.71l0.14-0.14l5.8-5.79
		c0.79-0.87,1.86-1.33,3.09-1.33h1.52L15.5,24.14z"/>
	<path d="M7.14,32.77c-0.19,0.18-0.73,0.74-0.92,0.92c-0.43,0.43-1.02,0.52-1.52,0.28c-0.11,0-0.3-0.03-0.45-0.19
		c-0.14-0.13-0.22-0.3-0.23-0.48c-0.24-0.51-0.15-1.11,0.28-1.54c0.19-0.18,0.73-0.74,0.92-0.92c0.53-0.53,1.32-0.55,1.87-0.04h0.06
		v0.05C7.6,31.4,7.6,32.31,7.14,32.77z"/>
	<path d="M14,24.96c0,0.34-0.18,0.65-0.44,0.84c-0.17,0.11-0.36,0.17-0.57,0.17c-0.21,0-0.4-0.06-0.56-0.17
		c-0.11-0.08-0.2-0.16-0.27-0.27c-0.11-0.16-0.18-0.36-0.18-0.57c0-0.56,0.46-1.02,1.01-1.02c0.12,0,0.23,0.02,0.33,0.06
		c0.09,0.03,0.17,0.07,0.25,0.13l0.26,0.26v0.01C13.94,24.56,14,24.75,14,24.96z"/>
</g>
<path d="M13.61,21.04l-0.56,0.55l-0.86,0.85l-0.59-0.59l-2.15-2.17c-0.23-0.22-0.33-0.54-0.28-0.86c0.13-0.81-0.15-1.68-0.73-2.27
	l-1.83-1.83c-1.03-1.05-2.75-1.05-3.79-0.01c-0.53,0.53-0.81,1.21-0.81,1.92c0,0.71,0.28,1.39,0.81,1.91
	c0.36,0.38,1.45,1.48,1.82,1.83c0.59,0.6,1.45,0.89,2.24,0.74c0.33-0.05,0.65,0.05,0.88,0.29l2.13,2.15l0.61,0.61l-1.42,1.4
	l-0.6-0.6l-1.81-1.82c-1.25,0.06-2.54-0.43-3.44-1.35c-0.36-0.35-1.47-1.47-1.84-1.84c-0.89-0.89-1.38-2.07-1.38-3.32
	S0.5,14.2,1.4,13.3c0.9-0.9,2.07-1.39,3.31-1.39c1.25,0,2.42,0.49,3.32,1.39l1.83,1.84c0.91,0.93,1.4,2.2,1.34,3.47l1.81,1.82v0.01
	L13.61,21.04z"/>
<path d="M7.15,30.85c0.45,0.55,0.45,1.46-0.01,1.92c-0.19,0.18-0.73,0.74-0.92,0.92c-0.43,0.43-1.02,0.52-1.52,0.28
	c-0.11,0-0.3-0.03-0.45-0.19c-0.14-0.13-0.22-0.3-0.23-0.48c-0.24-0.51-0.15-1.11,0.28-1.54c0.19-0.18,0.73-0.74,0.92-0.92
	c0.53-0.53,1.32-0.55,1.87-0.04h0.06V30.85z"/>
<path d="M12.16,25.53c-0.11-0.16-0.18-0.36-0.18-0.57c0-0.56,0.46-1.02,1.01-1.02c0.12,0,0.23,0.02,0.33,0.06
	c0.09,0.03,0.17,0.07,0.25,0.13l0.26,0.26v0.01c0.11,0.16,0.17,0.35,0.17,0.56c0,0.34-0.18,0.65-0.44,0.84
	c-0.17,0.11-0.36,0.17-0.57,0.17c-0.21,0-0.4-0.06-0.56-0.17C12.32,25.72,12.23,25.64,12.16,25.53z"/>
<path d="M7.14,17.14c-0.19-0.18-0.73-0.74-0.92-0.92c-0.55-0.55-1.46-0.55-2.01-0.09c-0.55,0.46-0.55,1.38,0,1.93l0.92,0.92
	c0.54,0.55,1.46,0.55,2.01,0.09C7.69,18.52,7.69,17.69,7.14,17.14z M25.37,27.73c-0.76,0-1.37,0.61-1.37,1.36s0.61,1.36,1.37,1.36
	c0.75,0,1.36-0.61,1.36-1.36S26.12,27.73,25.37,27.73z M35.37,27.73c-0.76,0-1.37,0.61-1.37,1.36s0.61,1.36,1.37,1.36
	c0.75,0,1.36-0.61,1.36-1.36S36.12,27.73,35.37,27.73z M35.37,27.73c-0.76,0-1.37,0.61-1.37,1.36s0.61,1.36,1.37,1.36
	c0.75,0,1.36-0.61,1.36-1.36S36.12,27.73,35.37,27.73z M25.37,27.73c-0.76,0-1.37,0.61-1.37,1.36s0.61,1.36,1.37,1.36
	c0.75,0,1.36-0.61,1.36-1.36S26.12,27.73,25.37,27.73z M7.14,17.14c-0.19-0.18-0.73-0.74-0.92-0.92c-0.55-0.55-1.46-0.55-2.01-0.09
	c-0.55,0.46-0.55,1.38,0,1.93l0.92,0.92c0.54,0.55,1.46,0.55,2.01,0.09C7.69,18.52,7.69,17.69,7.14,17.14z M49.79,37.25
	c-3.37-4.33-2.91-8.02-2.42-11.93c0.18-1.41,0.36-2.86,0.36-4.35c0-5.97-2.67-12.93-10.17-13.18C34.39,4.67,31.3,4,29.23,4
	C19.22,4,13,10.22,13,20.25c0,0.06,0,0.12,0.01,0.18l-1.81-1.82c0.06-1.27-0.43-2.54-1.34-3.47L8.03,13.3
	c-0.9-0.9-2.07-1.39-3.32-1.39c-1.24,0-2.41,0.49-3.31,1.39c-0.9,0.9-1.39,2.08-1.39,3.33s0.49,2.43,1.38,3.32
	c0.37,0.37,1.48,1.49,1.84,1.84c0.9,0.92,2.19,1.41,3.44,1.35l1.81,1.82l-1.81,1.8H6.46c-0.34,0-0.68,0.04-1,0.11
	c-0.11,0.02-0.23,0.05-0.34,0.09C4.98,27,4.84,27.05,4.7,27.11s-0.27,0.12-0.41,0.19c-0.39,0.22-0.75,0.49-1.08,0.81l-1.83,1.84
	C0.46,30.88,0,32.08,0,33.28c0,1.19,0.46,2.38,1.38,3.32c0.9,0.9,2.09,1.4,3.34,1.4c1.24,0,2.42-0.5,3.32-1.4l1.83-1.84
	c0.9-0.91,1.39-2.2,1.34-3.46l2.59-2.62c0.09,2.75-0.4,5.6-2.61,8.59c-0.16,0.22-0.22,0.49-0.18,0.76c0.05,0.27,0.21,0.51,0.43,0.66
	c0.16,0.1,3.79,2.48,12.05,3.4C25.6,44.61,28.03,46,30.37,46c2.34,0,4.78-1.39,6.89-3.93c8.26-0.93,12.1-3.26,12.27-3.36
	c0.24-0.15,0.4-0.39,0.45-0.67C50.03,37.76,49.96,37.47,49.79,37.25z M7.76,21.4c-0.23-0.24-0.55-0.34-0.88-0.29
	c-0.79,0.15-1.65-0.14-2.24-0.74c-0.37-0.35-1.46-1.45-1.82-1.83c-0.53-0.52-0.81-1.2-0.81-1.91c0-0.71,0.28-1.39,0.81-1.92
	c1.04-1.04,2.76-1.04,3.79,0.01l1.83,1.83c0.58,0.59,0.86,1.46,0.73,2.27c-0.05,0.32,0.05,0.64,0.28,0.86l2.15,2.17l-1.71,1.7
	L7.76,21.4z M13.7,25.94l-0.11,0.11l-4.15,4.18c-0.23,0.23-0.34,0.55-0.28,0.86c0.14,0.81-0.15,1.68-0.73,2.27L6.6,35.19
	c-0.52,0.52-1.2,0.78-1.88,0.78c-0.69,0-1.38-0.26-1.89-0.78c-1.07-1.07-1.07-2.76,0-3.84l1.83-1.84c0.48-0.48,1.15-0.76,1.83-0.76
	c0.13,0,0.26,0.02,0.39,0.04c0.05,0.01,0.11,0.01,0.17,0.01c0.27,0,0.53-0.1,0.71-0.3l5.44-5.41l0.12-0.12l1.71-1.71l0.14-0.14
	l5.8-5.79c0.79-0.87,1.86-1.33,3.09-1.33h1.52L15.5,24.14l-0.13,0.13L13.7,25.94z M30.37,44c-1.79,0-3.73-1.2-5.49-3.38
	c-0.04-0.06-0.08-0.11-0.14-0.16c0,0-0.04-0.04-0.12-0.11c-0.68-0.7-4.16-4.49-4.16-9.9c0-4.15,3.02-5.2,7.29-6.23
	c0.72-0.17,1.4-0.34,2-0.52c4.01-1.24,5.99-3.86,6.87-5.51c1.36,1.47,3.66,4.72,3.66,9.79c0,6.94-4.3,12.48-4.35,12.54
	c-0.01,0.02-0.02,0.03-0.03,0.05c-0.01,0.01-0.01,0.01-0.02,0.02C34.13,42.79,32.17,44,30.37,44z M36.73,29.09
	c0-0.75-0.61-1.36-1.36-1.36c-0.76,0-1.37,0.61-1.37,1.36s0.61,1.36,1.37,1.36C36.12,30.45,36.73,29.84,36.73,29.09z M25.37,27.73
	c-0.76,0-1.37,0.61-1.37,1.36s0.61,1.36,1.37,1.36c0.75,0,1.36-0.61,1.36-1.36S26.12,27.73,25.37,27.73z M6.22,16.22
	c-0.55-0.55-1.46-0.55-2.01-0.09c-0.55,0.46-0.55,1.38,0,1.93l0.92,0.92c0.54,0.55,1.46,0.55,2.01,0.09c0.55-0.55,0.55-1.38,0-1.93
	C6.95,16.96,6.41,16.4,6.22,16.22z M7.14,17.14c-0.19-0.18-0.73-0.74-0.92-0.92c-0.55-0.55-1.46-0.55-2.01-0.09
	c-0.55,0.46-0.55,1.38,0,1.93l0.92,0.92c0.54,0.55,1.46,0.55,2.01,0.09C7.69,18.52,7.69,17.69,7.14,17.14z M7.14,17.14
	c-0.19-0.18-0.73-0.74-0.92-0.92c-0.55-0.55-1.46-0.55-2.01-0.09c-0.55,0.46-0.55,1.38,0,1.93l0.92,0.92
	c0.54,0.55,1.46,0.55,2.01,0.09C7.69,18.52,7.69,17.69,7.14,17.14z"/>
</svg>