<?xml version="1.0" encoding="iso-8859-1"?>
<!-- Generator: Adobe Illustrator 24.3.0, SVG Export Plug-In . SVG Version: 6.00 Build 0)  -->
<svg version="1.1" xmlns="http://www.w3.org/2000/svg" xmlns:xlink="http://www.w3.org/1999/xlink" x="0px" y="0px"
	 viewBox="0 0 48 48" style="enable-background:new 0 0 48 48;" xml:space="preserve">
<g id="&#x421;&#x43B;&#x43E;&#x439;_1">
</g>
<g id="&#x421;&#x43B;&#x43E;&#x439;_2">
</g>
<g id="&#x421;&#x43B;&#x43E;&#x439;_3">
</g>
<g id="&#x421;&#x43B;&#x43E;&#x439;_4">
</g>
<g id="&#x421;&#x43B;&#x43E;&#x439;_5">
</g>
<g id="&#x421;&#x43B;&#x43E;&#x439;_6">
	<ellipse style="fill:none;stroke:#000000;stroke-width:3;stroke-miterlimit:10;" cx="24" cy="14.5" rx="14.5" ry="11"/>
	<g>
		<path style="fill:none;stroke:#000000;stroke-width:3;stroke-linejoin:round;stroke-miterlimit:10;" d="M24,37.5
			c-8.008,0-14.5-2.686-14.5-6v6c0,2.761,4,7,14.5,7s14.5-4.239,14.5-7v-6C38.5,34.814,32.008,37.5,24,37.5z"/>
		<path d="M24,39c-7.756,0-16-2.628-16-7.5S16.244,24,24,24s16,2.628,16,7.5S31.756,39,24,39z M24,27c-7.936,0-13,2.665-13,4.5
			S16.064,36,24,36s13-2.665,13-4.5S31.936,27,24,27z"/>
	</g>
	<path d="M24,34c-3.804,0-6.742-0.832-8.576-1.729c-0.568-0.277-0.568-1.265,0-1.542C17.258,29.832,20.196,29,24,29
		s6.742,0.832,8.576,1.729c0.568,0.277,0.568,1.265,0,1.542C30.742,33.168,27.804,34,24,34z"/>
	
		<line style="fill:none;stroke:#000000;stroke-width:3;stroke-linecap:round;stroke-miterlimit:10;" x1="24.5" y1="9.5" x2="16.5" y2="15.5"/>
	
		<line style="fill:none;stroke:#000000;stroke-width:3;stroke-linecap:round;stroke-miterlimit:10;" x1="31.5" y1="12.5" x2="23.5" y2="18.5"/>
</g>
</svg>