<?xml version="1.0" encoding="iso-8859-1"?>
<!-- Generator: Adobe Illustrator 24.1.2, SVG Export Plug-In . SVG Version: 6.00 Build 0)  -->
<svg version="1.1" xmlns="http://www.w3.org/2000/svg" xmlns:xlink="http://www.w3.org/1999/xlink" x="0px" y="0px"
	 viewBox="0 0 48 48" style="enable-background:new 0 0 48 48;" xml:space="preserve">
<g id="weight" style="display:none;">
</g>
<g id="Layer_43">
</g>
<g id="topic">
</g>
<g id="video_card">
</g>
<g id="motherboard">
</g>
<g id="ethernet_on">
</g>
<g id="ethernet_off">
</g>
<g id="usb_on">
</g>
<g id="usb_off">
</g>
<g id="audio-cable--v2">
</g>
<g id="stack">
</g>
<g id="microsoft_hololens">
</g>
<g id="virtual_reality">
</g>
<g id="webcam">
</g>
<g id="phone-office">
</g>
<g id="inspection">
</g>
<g id="goal">
</g>
<g id="bank">
</g>
<g id="agreement">
</g>
<g id="tax">
</g>
<g id="business">
</g>
<g id="shop">
</g>
<g id="theme_park">
</g>
<g id="city_buildings">
</g>
<g id="food_cart">
</g>
<g id="bridge">
</g>
<g id="prison">
</g>
<g id="airport">
</g>
<g id="waste_separation">
</g>
<g id="elections">
</g>
<g id="lipstick">
</g>
<g id="afro_pick">
</g>
<g id="hair_druer">
	<path style="fill:none;stroke:#000000;stroke-width:3;stroke-linecap:round;stroke-linejoin:round;stroke-miterlimit:10;" d="
		M21.5,25.52c-0.77,3.89,2.26,11.41,3.66,14.58c0.26,0.58-0.09,1.25-0.72,1.38l-6.09,2.02c-0.49,0-0.91-0.36-0.99-0.84
		c0,0-3.86-9.16-3.86-16.16c0-0.1,0.02-0.2,0.07-0.29"/>
	<path style="fill:none;stroke:#000000;stroke-width:3;stroke-miterlimit:10;" d="M15.904,26.5C10.719,26.5,6.5,22.238,6.5,17
		s4.219-9.5,9.404-9.5c2.727,0,6.721,1.26,10.246,2.371c2.656,0.838,5.166,1.629,6.35,1.629c3.005,0,4.881-0.803,5.926-1.477
		c0.325-0.209,0.697-0.319,1.077-0.319c1.101,0,1.997,0.898,1.997,2.003v10.586c0,1.104-0.896,2.003-1.997,2.003
		c-0.38,0-0.752-0.11-1.077-0.319C37.381,23.303,35.505,22.5,32.5,22.5c-1.184,0-3.693,0.791-6.35,1.629
		C22.625,25.24,18.631,26.5,15.904,26.5z"/>
	<circle cx="16" cy="17" r="3"/>
	
		<line style="fill:none;stroke:#000000;stroke-width:3;stroke-linecap:round;stroke-linejoin:round;stroke-miterlimit:10;" x1="32.5" y1="11.5" x2="32.5" y2="22.5"/>
</g>
<g id="barbershop">
</g>
<g id="straight_razor">
</g>
<g id="barber_pole">
</g>
<g id="perfume_bottle">
</g>
<g id="spa_flower">
</g>
<g id="bank_cards">
</g>
<g id="shopping_bag">
</g>
<g id="worldwide_delivery">
</g>
<g id="in_transit">
</g>
<g id="used_product">
</g>
<g id="discount">
</g>
<g id="gift">
</g>
<g id="last_24_hours">
</g>
</svg>