<?xml version="1.0" encoding="iso-8859-1"?>
<!-- Generator: Adobe Illustrator 18.0.0, SVG Export Plug-In . SVG Version: 6.00 Build 0)  -->
<!DOCTYPE svg PUBLIC "-//W3C//DTD SVG 1.1//EN" "http://www.w3.org/Graphics/SVG/1.1/DTD/svg11.dtd">
<svg version="1.1" id="Layer_1" xmlns="http://www.w3.org/2000/svg" xmlns:xlink="http://www.w3.org/1999/xlink" x="0px" y="0px"
	 width="50px" height="50px" viewBox="0 0 50 50" style="enable-background:new 0 0 50 50;" xml:space="preserve">
<path style="fill:none;stroke:#000000;stroke-width:2;stroke-linecap:round;stroke-linejoin:round;stroke-miterlimit:10;" d="
	M23.792,18.506l-0.369,1.014c-1.234-0.009-2.396,0.737-2.843,1.962l-5.814,15.975c-0.567,1.557,0.236,3.279,1.793,3.845l7.518,2.736
	c1.557,0.567,3.278-0.236,3.845-1.793l5.814-15.975c0.446-1.226,0.035-2.545-0.916-3.331l0.371-1.02"/>
<path style="fill:none;stroke:#000000;stroke-width:2;stroke-linejoin:round;stroke-miterlimit:10;" d="M34.341,4.144L34.341,4.144
	c-1.038-0.378-2.186,0.157-2.563,1.195l-2.394,6.578l3.759,1.368l2.394-6.578C35.914,5.669,35.379,4.521,34.341,4.144z"/>
<g>
	<path d="M27.234,20.718l1.879,0.684l-5.129,14.091c-0.148,0.406-0.531,0.658-0.94,0.658c-0.114,0-0.229-0.019-0.342-0.061v0
		c-0.519-0.189-0.787-0.763-0.598-1.282L27.234,20.718 M26.039,18.154l-0.684,1.879l-5.129,14.091
		c-0.274,0.753-0.238,1.568,0.1,2.294c0.339,0.726,0.94,1.277,1.693,1.551c0.33,0.12,0.675,0.181,1.026,0.181
		c1.256,0,2.389-0.793,2.819-1.974l5.129-14.091l0.684-1.879l-1.879-0.684l-1.879-0.684L26.039,18.154L26.039,18.154z"/>
</g>
<rect x="24.394" y="12.36" transform="matrix(0.9397 0.342 -0.342 0.9397 7.3982 -9.2379)" style="fill:none;stroke:#000000;stroke-width:2;stroke-linejoin:round;stroke-miterlimit:10;" width="11" height="8"/>
<line style="fill:none;stroke:#000000;stroke-width:2;stroke-linecap:round;stroke-linejoin:round;stroke-miterlimit:10;" x1="19.276" y1="26.329" x2="31.709" y2="30.854"/>
<line style="fill:none;stroke:#000000;stroke-width:2;stroke-linecap:round;stroke-miterlimit:10;" x1="16.127" y1="17.46" x2="9.372" y2="36.019"/>
<line style="fill:none;stroke:#000000;stroke-width:2;stroke-linecap:round;stroke-miterlimit:10;" x1="10.765" y1="19.765" x2="6.746" y2="30.807"/>
<line style="fill:none;stroke:#000000;stroke-width:2;stroke-linecap:round;stroke-miterlimit:10;" x1="39.914" y1="26.754" x2="33.159" y2="45.313"/>
<line style="fill:none;stroke:#000000;stroke-width:2;stroke-linecap:round;stroke-miterlimit:10;" x1="42.54" y1="31.966" x2="38.521" y2="43.008"/>
</svg>