<?xml version="1.0" encoding="iso-8859-1"?>
<!-- Generator: Adobe Illustrator 24.1.2, SVG Export Plug-In . SVG Version: 6.00 Build 0)  -->
<svg version="1.1" xmlns="http://www.w3.org/2000/svg" xmlns:xlink="http://www.w3.org/1999/xlink" x="0px" y="0px"
	 viewBox="0 0 48 48" style="enable-background:new 0 0 48 48;" xml:space="preserve">
<g id="weight" style="display:none;">
</g>
<g id="Layer_43">
</g>
<g id="topic">
</g>
<g id="video_card">
</g>
<g id="motherboard">
</g>
<g id="ethernet_on">
</g>
<g id="ethernet_off">
</g>
<g id="usb_on">
</g>
<g id="usb_off">
</g>
<g id="audio-cable--v2">
</g>
<g id="stack">
</g>
<g id="microsoft_hololens">
</g>
<g id="virtual_reality">
</g>
<g id="webcam">
</g>
<g id="phone-office">
</g>
<g id="inspection">
</g>
<g id="goal">
</g>
<g id="bank">
</g>
<g id="agreement">
</g>
<g id="tax">
</g>
<g id="business">
</g>
<g id="shop">
</g>
<g id="theme_park">
</g>
<g id="city_buildings">
</g>
<g id="food_cart">
</g>
<g id="bridge">
</g>
<g id="prison">
</g>
<g id="airport">
</g>
<g id="waste_separation">
</g>
<g id="elections">
</g>
<g id="lipstick">
</g>
<g id="afro_pick">
</g>
<g id="hair_druer">
</g>
<g id="barbershop">
</g>
<g id="straight_razor">
	<path d="M8.086,34.51l30.135-6.651c1.618-0.357,3.219,0.665,3.576,2.283l0.431,1.953c0.357,1.618-0.665,3.219-2.283,3.576
		L9.81,42.322c-1.618,0.357-3.219-0.665-3.576-2.283l-0.431-1.953C5.446,36.468,6.468,34.867,8.086,34.51z"/>
	<path style="fill:none;stroke:#000000;stroke-width:3;stroke-linejoin:round;stroke-miterlimit:10;" d="M8.086,34.51l30.135-6.651
		c1.618-0.357,3.219,0.665,3.576,2.283l0.431,1.953c0.357,1.618-0.665,3.219-2.283,3.576L9.81,42.322
		c-1.618,0.357-3.219-0.665-3.576-2.283l-0.431-1.953C5.446,36.468,6.468,34.867,8.086,34.51z"/>
	<path style="fill:none;stroke:#000000;stroke-width:3;stroke-linecap:round;stroke-linejoin:round;stroke-miterlimit:20;" d="
		M44,38L11.74,5.8c-0.39-0.39-1.02-0.39-1.42,0L9.113,7.011c-2.067,2.075-2.059,5.434,0.018,7.499L19.9,25.21
		c0.39,0.39,1.03,0.39,1.42,0l4.664-4.664"/>
</g>
<g id="barber_pole">
</g>
<g id="perfume_bottle">
</g>
<g id="spa_flower">
</g>
<g id="bank_cards">
</g>
<g id="shopping_bag">
</g>
<g id="worldwide_delivery">
</g>
<g id="in_transit">
</g>
<g id="used_product">
</g>
<g id="discount">
</g>
<g id="gift">
</g>
<g id="last_24_hours">
</g>
</svg>