<?xml version="1.0" encoding="iso-8859-1"?>
<!-- Generator: Adobe Illustrator 23.0.3, SVG Export Plug-In . SVG Version: 6.00 Build 0)  -->
<svg version="1.1" id="Layer_1" xmlns="http://www.w3.org/2000/svg" xmlns:xlink="http://www.w3.org/1999/xlink" x="0px" y="0px"
	 viewBox="0 0 50 50" style="enable-background:new 0 0 50 50;" xml:space="preserve">
<path d="M39,19.207c0-4.066-2.037-8.43-6.493-8.771c-0.671-0.971-2.195-2.586-5.128-3.217c0.408,0.524,0.641,1.157,0.641,1.832
	c0,0.145-0.022,0.286-0.042,0.427c1.566,0.567,2.588,1.509,3.082,2.415c0.175,0.321,0.512,0.521,0.878,0.521
	c5.004,0,5.062,6.516,5.062,6.793c0,2.442-0.487,5.175-1.449,8.123c-0.144,0.438,0.031,0.917,0.424,1.16
	c0.193,0.12,1.153,0.784,1.003,2.063c-0.297,2.509-2.121,3.208-2.188,3.233c-0.368,0.126-0.63,0.455-0.67,0.842
	c-0.229,2.18-2.927,7.244-6.65,8.976c-0.166,0.077-0.308,0.198-0.409,0.351c-0.459,0.686-1.225,1.096-2.048,1.096
	c-0.822,0-1.587-0.409-2.046-1.094c-0.103-0.152-0.244-0.274-0.411-0.351c-3.756-1.737-6.473-6.799-6.7-8.977
	c-0.039-0.374-0.295-0.699-0.646-0.833c-0.077-0.03-1.895-0.754-2.191-3.271c-0.145-1.229,0.716-1.868,0.983-2.034
	c0.396-0.247,0.569-0.735,0.417-1.176c-0.563-1.625-1.394-5.446-1.394-6.724c0-0.766,0.055-1.487,0.141-2.182l-0.871-0.871
	l-1.171,1.171c-0.059,0.609-0.099,1.232-0.099,1.883c0,1.452,0.718,4.776,1.285,6.69c-0.813,0.759-1.457,1.953-1.278,3.477
	c0.33,2.8,2.018,4.125,2.922,4.642c0.602,3.014,3.573,7.938,7.52,9.905c0.843,1.099,2.146,1.747,3.54,1.747
	c1.396,0,2.699-0.649,3.542-1.75c4.161-2.079,6.889-7.172,7.462-9.892c0.913-0.507,2.616-1.815,2.948-4.621
	c0.204-1.741-0.646-2.892-1.301-3.504C38.551,24.386,39,21.672,39,19.207z"/>
<line style="fill:none;stroke:#000000;stroke-width:2;stroke-linecap:round;stroke-linejoin:round;" x1="25.021" y1="9.05" x2="20.778" y2="4.808"/>
<line style="fill:none;stroke:#000000;stroke-width:2;stroke-linecap:round;stroke-linejoin:round;" x1="22.192" y1="11.879" x2="17.95" y2="7.636"/>
<line style="fill:none;stroke:#000000;stroke-width:2;stroke-linecap:round;stroke-linejoin:round;" x1="19.364" y1="14.707" x2="15.121" y2="10.464"/>
<line style="fill:none;stroke:#000000;stroke-width:2;stroke-linecap:round;stroke-linejoin:round;" x1="16.536" y1="17.536" x2="12.293" y2="13.293"/>
<path style="fill:none;stroke:#000000;stroke-width:2;stroke-linecap:round;stroke-linejoin:round;" d="M20.778,4.808L5.222,20.364
	c-0.781,0.781-2.047,0.781-2.828,0l0,0c-0.781-0.781-0.781-2.047,0-2.828L16.536,3.393c0.781-0.781,2.047-0.781,2.828,0
	L20.778,4.808z"/>
<path style="fill:none;stroke:#000000;stroke-width:2;stroke-linecap:round;" d="M31.506,16.285c0,0-1.862,3.788-7.36,3.788
	c-3.221,0-7.793,0.144-7.793,4.329 M31.506,16.285c0,0,3.031,3.829,3.031,8.118"/>
<path d="M29.5,29c-0.828,0-1.5,0.672-1.5,1.5s0.672,1.5,1.5,1.5l0,0c0.828,0,1.5-0.672,1.5-1.5S30.328,29,29.5,29z"/>
<circle cx="20.5" cy="30.5" r="1.5"/>
</svg>