<?xml version="1.0" encoding="iso-8859-1"?>
<!-- Generator: Adobe Illustrator 25.2.3, SVG Export Plug-In . SVG Version: 6.00 Build 0)  -->
<svg version="1.1" baseProfile="basic" id="Layer_1"
	 xmlns="http://www.w3.org/2000/svg" xmlns:xlink="http://www.w3.org/1999/xlink" x="0px" y="0px" viewBox="0 0 48 48"
	 xml:space="preserve">
<path d="M39,24.9V39c0,1.66,1.34,3,3,3h1V20L39,24.9z M32,25v14c0,1.66,1.34,3,3,3h1V24L32,25z M25,25v14c0,1.66,1.34,3,3,3h1V24
	L25,25z M18,25v14c0,1.66,1.34,3,3,3h1V24L18,25z M11,25v14c0,1.66,1.34,3,3,3h1V24L11,25z M4,25v14c0,1.66,1.34,3,3,3h1V24L4,25z"
	/>
<path d="M9,16c-2.761,0-5,2.239-5,5v4h34c2.761,0,5-2.239,5-5v-4H9z"/>
<path d="M23.5,2C19.91,2,17,4.91,17,8.5V13h13V8.5C30,4.91,27.09,2,23.5,2z"/>
</svg>