<?xml version="1.0" encoding="iso-8859-1"?><!-- Generator: Adobe Illustrator 21.0.2, SVG Export Plug-In . SVG Version: 6.00 Build 0)  --><svg xmlns="http://www.w3.org/2000/svg" xmlns:xlink="http://www.w3.org/1999/xlink" viewBox="0 0 50 50" width="500px" height="500px"><g><path d="M6,7v4c0,0.552,0.448,1,1,1h2c0.552,0,1-0.448,1-1V7c0-0.552-0.448-1-1-1H7C6.448,6,6,6.448,6,7z"/><path d="M45.5,18c-1.208,0-2.217,0.86-2.449,2H41v-4c0-1.654-1.346-3-3-3s-3,1.346-3,3h-3v-5c0-1.654-1.346-3-3-3s-3,1.346-3,3v3h-3V9c0-1.654-1.346-3-3-3s-3,1.346-3,3v7h-2.953v-3c0-1.25-0.54-3.954-2.047-5.611V11c0,1.654-1.346,3-3,3H7c-1.654,0-3-1.346-3-3V7.421C2.529,9.081,2,11.758,2,13c0,3.221,0.798,5.68,1.381,7.476C3.713,21.499,4,22.384,4,23v7.337c0,1.896,0.448,3.795,1.297,5.492L9.882,45H43v-9.259c0-1.501,0.584-2.911,1.646-3.973l1.046-1.046C47.18,29.234,48,27.255,48,25.149V20.5C48,19.121,46.879,18,45.5,18z M13.058,18c0,0-0.001,0.001-0.001,0.001L13.047,18H13.058z M18,22c0,0.552-0.448,1-1,1h-3c-0.552,0-1-0.448-1-1v-3c0-0.552,0.448-1,1-1h3c0.552,0,1,0.448,1,1V22z M27,20c0,0.552-0.448,1-1,1h-3c-0.552,0-1-0.448-1-1v-3c0-0.552,0.448-1,1-1h3c0.552,0,1,0.448,1,1V20z M30.05,20.003L30.023,20h0.027C30.05,20.001,30.05,20.002,30.05,20.003z M36,22c0,0.552-0.448,1-1,1h-3c-0.552,0-1-0.448-1-1v-3c0-0.552,0.448-1,1-1h3c0.552,0,1,0.448,1,1V22z M44,26c0,0.552-0.448,1-1,1h-3c-0.552,0-1-0.448-1-1v-3c0-0.552,0.448-1,1-1h3c0.552,0,1,0.448,1,1V26z"/></g></svg>