<?xml version="1.0" encoding="iso-8859-1"?>
<!-- Generator: Adobe Illustrator 24.1.2, SVG Export Plug-In . SVG Version: 6.00 Build 0)  -->
<svg version="1.1" baseProfile="basic" id="Layer_1"
	 xmlns="http://www.w3.org/2000/svg" xmlns:xlink="http://www.w3.org/1999/xlink" x="0px" y="0px" viewBox="0 0 64 64"
	 xml:space="preserve">
<rect x="8" y="54" width="48" height="4"/>
<path d="M56,52l-8-24H16L8.331,51.007L56,52z M40,31c2.761,0,5,1.343,5,3s-2.239,3-5,3s-5-1.343-5-3S37.239,31,40,31z M41,40
	c3.314,0,6,1.791,6,4c0,2.209-2.686,4-6,4s-6-1.791-6-4C35,41.791,37.686,40,41,40z M24,31c2.761,0,5,1.343,5,3s-2.239,3-5,3
	s-5-1.343-5-3S21.239,31,24,31z M23,40c3.314,0,6,1.791,6,4c0,2.209-2.686,4-6,4s-6-1.791-6-4C17,41.791,19.686,40,23,40z"/>
<path d="M48.066,25.835L56,6H8l7.664,19.16L48.066,25.835z M50.092,10l-4.8,12H18.708l-4.8-12H50.092z"/>
</svg>