<?xml version="1.0" encoding="iso-8859-1"?><!-- Generator: Adobe Illustrator 19.2.0, SVG Export Plug-In . SVG Version: 6.00 Build 0)  --><svg xmlns="http://www.w3.org/2000/svg" xmlns:xlink="http://www.w3.org/1999/xlink" viewBox="0 0 50 50" width="500px" height="500px"><g><path d="M20.453,20C22.409,20,24,21.794,24,24c0,0.938-0.283,1.819-0.819,2.547l-0.052,0.071c-0.148,0.193-0.307,0.366-0.474,0.515l-0.037,0.033l-0.035,0.035C20.68,29.084,17.565,30,13.058,30c-3.776,0-6.532-0.943-8.191-2.802c-0.169-0.19-0.323-0.385-0.464-0.584C5.497,26.929,6.576,27,7.512,27c4.63,0,9.511-4.86,10.451-5.843c0.004-0.004,0.008-0.008,0.013-0.014l0.134-0.133C18.762,20.359,19.595,20,20.453,20 M20.453,18c-1.451,0-2.768,0.608-3.756,1.595c0,0,0,0,0,0c-0.003,0-0.167,0.167-0.188,0.189C15.107,21.25,10.936,25,7.512,25c-2.427,0-4.911-0.5-6.471-4c0,0-1.387,11,12.017,11c4.86,0,8.529-0.999,10.932-3.378c0.288-0.258,0.55-0.549,0.785-0.865c0.006-0.008,0.013-0.014,0.019-0.021c-0.001-0.001-0.002-0.002-0.002-0.003C25.546,26.707,26,25.412,26,24C26,20.686,23.517,18,20.453,18L20.453,18z"/></g><g><path d="M29.547,20c0.859,0,1.691,0.359,2.343,1.01l0.128,0.128c0.01,0.011,0.02,0.021,0.028,0.029C32.977,22.14,37.858,27,42.488,27c0.935,0,2.014-0.071,3.108-0.386c-0.14,0.199-0.295,0.395-0.464,0.584C43.474,29.057,40.718,30,36.942,30c-4.506,0-7.622-0.916-9.524-2.799l-0.035-0.035l-0.037-0.033c-0.162-0.145-0.317-0.313-0.48-0.523l-0.047-0.063C26.283,25.819,26,24.938,26,24C26,21.794,27.591,20,29.547,20 M29.547,18C26.483,18,24,20.686,24,24c0,1.412,0.454,2.707,1.208,3.732c-0.001,0.001-0.002,0.002-0.002,0.003c0.006,0.008,0.013,0.014,0.019,0.021c0.235,0.316,0.497,0.607,0.785,0.865C28.413,31.001,32.082,32,36.942,32c13.404,0,12.017-11,12.017-11c-1.56,3.5-4.044,4-6.471,4c-3.424,0-7.595-3.749-8.997-5.216c-0.02-0.022-0.185-0.189-0.188-0.189c0,0,0,0,0,0C32.315,18.608,30.998,18,29.547,18L29.547,18z"/></g></svg>