<?xml version="1.0" encoding="iso-8859-1"?>
<!-- Generator: Adobe Illustrator 24.0.2, SVG Export Plug-In . SVG Version: 6.00 Build 0)  -->
<svg version="1.1" id="&#x421;&#x43B;&#x43E;&#x439;_1"
	 xmlns="http://www.w3.org/2000/svg" xmlns:xlink="http://www.w3.org/1999/xlink" x="0px" y="0px" viewBox="0 0 50 50"
	 style="enable-background:new 0 0 50 50;" xml:space="preserve">
<path d="M25.37,27.73c-0.76,0-1.37,0.61-1.37,1.36s0.61,1.36,1.37,1.36c0.75,0,1.36-0.61,1.36-1.36S26.12,27.73,25.37,27.73z
	 M35.37,27.73c-0.76,0-1.37,0.61-1.37,1.36s0.61,1.36,1.37,1.36c0.75,0,1.36-0.61,1.36-1.36S36.12,27.73,35.37,27.73z"/>
<path style="fill:none;stroke:#000000;stroke-width:2;stroke-linecap:round;stroke-miterlimit:10;" d="M36.275,16.477
	c0,0,5,3.837,5,11.505c0,7.395-4.556,13.156-4.556,13.156"/>
<path d="M15.38,24.32c0-0.02,0-0.03-0.01-0.05l-1.67,1.67l-0.11,0.11c0.11,0.87,0.2,1.74,0.21,2.63l1.89-1.89
	C15.6,25.95,15.49,25.12,15.38,24.32z M49.79,37.25c-3.37-4.33-2.91-8.02-2.42-11.93c0.18-1.41,0.36-2.86,0.36-4.35
	c0-5.97-2.67-12.93-10.17-13.18C34.39,4.67,31.29,4,29.23,4c-9.04,0-14.99,5.08-16.06,13.44l2.61-2.61C17.56,9.21,22.31,6,29.23,6
	c1.74,0,4.4,0.6,7.19,3.48c0.19,0.19,0.45,0.3,0.72,0.3c8.18,0,8.59,9.32,8.59,11.19c0,1.37-0.17,2.7-0.34,4.1
	c-0.48,3.87-0.98,7.86,2.11,12.43c-1.59,0.71-5.14,2.03-10.86,2.63c-0.27,0.03-0.51,0.16-0.68,0.37c-1.78,2.26-3.77,3.5-5.59,3.5
	s-3.8-1.24-5.58-3.49c-0.16-0.21-0.41-0.34-0.68-0.37c-0.38-0.04-0.76-0.08-1.12-0.13c-5.05-0.64-8.13-1.84-9.53-2.5
	c1.78-2.8,2.33-5.48,2.36-8.01l-0.5,0.49l-1.71,1.73c-0.3,1.8-1.02,3.64-2.42,5.55c-0.16,0.22-0.22,0.49-0.18,0.76
	c0.05,0.27,0.21,0.51,0.43,0.66c0.16,0.1,3.79,2.48,12.05,3.4C25.6,44.61,28.03,46,30.37,46c2.34,0,4.78-1.39,6.89-3.93
	c8.26-0.93,12.1-3.26,12.27-3.36c0.24-0.15,0.4-0.39,0.45-0.67C50.03,37.76,49.96,37.47,49.79,37.25z M13.32,24
	c0.02,0.11,0.03,0.22,0.05,0.33l0.2-0.2C13.49,24.07,13.41,24.03,13.32,24z M15.09,18.36l-2.08,2.08c0,0.87,0.09,1.75,0.19,2.65
	l0.12-0.12l1.71-1.71C15.01,20.92,15,20.58,15,20.25C15,19.6,15.03,18.97,15.09,18.36z M15.09,18.36l-2.08,2.08
	c0,0.87,0.09,1.75,0.19,2.65l0.12-0.12l1.71-1.71C15.01,20.92,15,20.58,15,20.25C15,19.6,15.03,18.97,15.09,18.36z M13.32,24
	c0.02,0.11,0.03,0.22,0.05,0.33l0.2-0.2C13.49,24.07,13.41,24.03,13.32,24z M15.09,18.36l-2.08,2.08c0,0.87,0.09,1.75,0.19,2.65
	l0.12-0.12l1.71-1.71C15.01,20.92,15,20.58,15,20.25C15,19.6,15.03,18.97,15.09,18.36z M13.83,24.4v-0.01l-0.26-0.26
	c-0.08-0.06-0.16-0.1-0.25-0.13c0.02,0.11,0.03,0.22,0.05,0.33c0.01,0.08,0.02,0.17,0.03,0.26c0.01,0.07,0.02,0.14,0.03,0.21
	c0.04,0.33,0.09,0.67,0.13,1c0.26-0.19,0.44-0.5,0.44-0.84C14,24.75,13.94,24.56,13.83,24.4z"/>
<path style="fill:none;stroke:#000000;stroke-width:2;stroke-linecap:round;stroke-miterlimit:10;" d="M36.275,16.477
	c0,0-1.305,4.555-6.818,6.265c-3.529,1.094-10,1.41-10,7.713c0,6.469,4.607,10.743,4.607,10.743"/>
<path d="M7.14,17.14c-0.19-0.18-0.73-0.74-0.92-0.92c-0.55-0.55-1.46-0.55-2.01-0.09c-0.55,0.46-0.55,1.38,0,1.93l0.92,0.92
	c0.54,0.55,1.46,0.55,2.01,0.09C7.69,18.52,7.69,17.69,7.14,17.14z M7.15,30.85l-0.01-0.01c-0.02-0.02-0.03-0.03-0.05-0.04
	c-0.55-0.51-1.34-0.49-1.87,0.04c-0.19,0.18-0.73,0.74-0.92,0.92c-0.43,0.43-0.52,1.03-0.28,1.54c0.06,0.14,0.16,0.27,0.28,0.39
	s0.26,0.21,0.4,0.28c0.5,0.24,1.09,0.15,1.52-0.28c0.19-0.18,0.73-0.74,0.92-0.92C7.6,32.31,7.6,31.4,7.15,30.85z M13.83,24.4v-0.01
	l-0.26-0.26c-0.08-0.06-0.16-0.1-0.25-0.13c-0.1-0.04-0.21-0.06-0.33-0.06c-0.55,0-1.01,0.46-1.01,1.02c0,0.21,0.07,0.41,0.18,0.57
	c0.07,0.11,0.16,0.19,0.27,0.27c0.16,0.11,0.35,0.17,0.56,0.17c0.21,0,0.4-0.06,0.57-0.17c0.26-0.19,0.44-0.5,0.44-0.84
	C14,24.75,13.94,24.56,13.83,24.4z"/>
<g>
	<path d="M28.92,12.62C28.76,12.24,28.39,12,27.99,12h-3.93c-1.8,0-3.43,0.71-4.56,1.95l-4.27,4.27l-0.14,0.14l-2.78,2.78
		l-3.12,3.11l-2.52,2.51H6.46c-0.34,0-0.68,0.04-1,0.11c-0.11,0.02-0.23,0.05-0.34,0.09C4.98,27,4.84,27.05,4.7,27.11
		s-0.27,0.12-0.41,0.19c-0.39,0.22-0.75,0.49-1.08,0.81l-1.83,1.84c-1.84,1.87-1.84,4.78,0,6.65c0.9,0.9,2.09,1.4,3.34,1.4
		c1.24,0,2.42-0.5,3.32-1.4l1.83-1.84c0.9-0.91,1.39-2.2,1.34-3.46l2.59-2.62l2.01-2.01l12.9-12.97
		C28.99,13.42,29.08,12.99,28.92,12.62z M15.5,24.14l-0.13,0.13l-1.67,1.67l-0.11,0.11l-4.15,4.18c-0.23,0.23-0.34,0.55-0.28,0.86
		c0.14,0.81-0.15,1.68-0.73,2.27L6.6,35.19c-0.52,0.52-1.2,0.78-1.88,0.78c-0.69,0-1.38-0.26-1.89-0.78c-1.07-1.07-1.07-2.76,0-3.84
		l1.83-1.84c0.48-0.48,1.15-0.76,1.83-0.76c0.13,0,0.26,0.02,0.39,0.04c0.05,0.01,0.11,0.01,0.17,0.01c0.27,0,0.53-0.1,0.71-0.3
		l5.44-5.41l0.12-0.12l1.71-1.71l0.14-0.14l5.8-5.79c0.79-0.87,1.86-1.33,3.09-1.33h1.52L15.5,24.14z"/>
	<path d="M7.15,30.8H7.09c-0.55-0.51-1.34-0.49-1.87,0.04c-0.19,0.18-0.73,0.74-0.92,0.92c-0.43,0.43-0.52,1.03-0.28,1.54
		c0.01,0.18,0.09,0.35,0.23,0.48c0.15,0.16,0.34,0.19,0.45,0.19c0.5,0.24,1.09,0.15,1.52-0.28c0.19-0.18,0.73-0.74,0.92-0.92
		c0.46-0.46,0.46-1.37,0.01-1.92V30.8z"/>
	<path d="M13.83,24.39l-0.26-0.26c-0.08-0.06-0.16-0.1-0.25-0.13c-0.1-0.04-0.21-0.06-0.33-0.06c-0.55,0-1.01,0.46-1.01,1.02
		c0,0.21,0.07,0.41,0.18,0.57c0.07,0.11,0.16,0.19,0.27,0.27c0.16,0.11,0.35,0.17,0.56,0.17c0.21,0,0.4-0.06,0.57-0.17
		c0.26-0.19,0.44-0.5,0.44-0.84c0-0.21-0.06-0.4-0.17-0.56V24.39z"/>
</g>
<path style="fill:none;stroke:#000000;stroke-width:2;stroke-linejoin:round;stroke-miterlimit:10;" d="M12.9,21.74l-0.59-0.6
	l-0.71-0.71l-0.71-0.71l-0.73-0.74c0.18-1.11-0.19-2.3-1.01-3.13c-0.37-0.37-1.46-1.47-1.83-1.84c-1.46-1.47-3.75-1.47-5.21,0
	c-1.47,1.47-1.47,3.77,0,5.24c0.36,0.37,1.46,1.48,1.83,1.84c0.82,0.83,2.01,1.2,3.11,1.01l0.72,0.73l0.71,0.71l0.71,0.71l0.6,0.61"
	/>
</svg>