<?xml version="1.0" encoding="iso-8859-1"?>
<!-- Generator: Adobe Illustrator 25.4.1, SVG Export Plug-In . SVG Version: 6.00 Build 0)  -->
<svg version="1.1" id="Layer_1" xmlns="http://www.w3.org/2000/svg" xmlns:xlink="http://www.w3.org/1999/xlink" x="0px" y="0px"
	 viewBox="0 0 64 64" style="enable-background:new 0 0 64 64;" xml:space="preserve">
<path style="fill:none;stroke:#000000;stroke-width:2;stroke-linecap:round;stroke-linejoin:round;stroke-miterlimit:10;" d="M35,35
	h-6l3-5V19h-5V2h10v17h0c1.657,0,3,1.343,3,3v19.266c0,0-1.75,2.733-8,2.733s-8-2.733-8-2.733V22.221c-5.449,3.686-7,10.74-7,17.778
	c0,10.178,0,15,0,15s4.717,3,15,3s15-3,15-3s0-3.734,0-15c0-5.376-0.739-10.264-2.987-13.907"/>
</svg>