<?xml version="1.0" encoding="iso-8859-1"?>
<!-- Generator: Adobe Illustrator 22.1.0, SVG Export Plug-In . SVG Version: 6.00 Build 0)  -->
<svg version="1.1" id="Layer_1" xmlns="http://www.w3.org/2000/svg" xmlns:xlink="http://www.w3.org/1999/xlink" x="0px" y="0px"
	 viewBox="0 0 100 100" style="enable-background:new 0 0 100 100;" xml:space="preserve">
<path style="fill:none;stroke:#000000;stroke-width:2;stroke-linejoin:round;stroke-miterlimit:10;" d="M14.537,25.119L42.972,41
	c0,0,2.028-3,6.528-3c3,0,5.223,1.085,6.481,1.788c4.327,2.417,7.938,4.433,10.969,6.127c2.362-1.513,4.236-2.767,5.632-3.727
	L21.004,13.381c-0.7-0.391-1.525-0.485-2.296-0.263c-0.77,0.222-1.418,0.743-1.801,1.446l-3.542,6.5
	C12.579,22.509,13.101,24.317,14.537,25.119z"/>
<path style="fill:none;stroke:#000000;stroke-width:2;stroke-linejoin:round;stroke-miterlimit:10;" d="M85.364,49.325l-1.529-0.854
	c-0.361,0.502-0.793,0.968-1.3,1.377c-0.577,0.465-1.861,1.415-3.677,2.716c3.669,2.049,3.679,2.055,3.679,2.055
	c1.617,0.905,3.709,0.151,4.322-1.703C87.314,51.538,86.631,50.033,85.364,49.325z"/>
<path style="fill:none;stroke:#000000;stroke-width:2;stroke-linejoin:round;stroke-miterlimit:10;" d="M83.849,41.466
	C82.675,39.856,80.851,39.001,79,39c-1.227-0.001-2.466,0.373-3.534,1.152C73.11,41.868,55,55,17.667,72.556
	c-2.841,1.336-4.668,3.988-4.669,6.944c0,0.944,0.179,1.905,0.558,2.833c1.186,2.907,3.988,4.669,6.944,4.669
	c9.5,0,57.5-33.502,62.034-37.153C84.086,48.599,84.999,46.851,85,45C85.001,43.773,84.627,42.534,83.849,41.466z"/>
<line style="fill:none;stroke:#000000;stroke-linecap:round;stroke-miterlimit:10;" x1="42.5" y1="35.766" x2="43.5" y2="36.324"/>
<line style="fill:none;stroke:#000000;stroke-linecap:round;stroke-miterlimit:10;" x1="38.5" y1="33.532" x2="40.5" y2="34.649"/>
<path style="fill:#FEFDEF;" d="M20.5,77.5c-1.105,0-2,0.895-2,2s0.895,2,2,2s2-0.895,2-2S21.605,77.5,20.5,77.5z"/>
<path style="fill:#FEFDEF;" d="M78.491,43.509c-1.1,0-1.991,0.891-1.991,1.991s0.891,1.991,1.991,1.991s1.991-0.891,1.991-1.991
	S79.591,43.509,78.491,43.509z"/>
<path style="fill:none;stroke:#000000;stroke-miterlimit:10;" d="M20.5,77.5c-1.105,0-2,0.895-2,2s0.895,2,2,2s2-0.895,2-2
	S21.605,77.5,20.5,77.5z"/>
<path style="fill:none;stroke:#000000;stroke-miterlimit:10;" d="M78.491,43.509c-1.1,0-1.991,0.891-1.991,1.991
	s0.891,1.991,1.991,1.991s1.991-0.891,1.991-1.991S79.591,43.509,78.491,43.509z"/>
<line style="fill:none;stroke:#000000;stroke-linecap:round;stroke-miterlimit:10;" x1="35.5" y1="31.856" x2="17.5" y2="21.803"/>
</svg>