<?xml version="1.0" encoding="iso-8859-1"?>
<!-- Generator: Adobe Illustrator 25.2.3, SVG Export Plug-In . SVG Version: 6.00 Build 0)  -->
<svg version="1.1" baseProfile="basic" id="Layer_1"
	 xmlns="http://www.w3.org/2000/svg" xmlns:xlink="http://www.w3.org/1999/xlink" x="0px" y="0px" viewBox="0 0 48 48"
	 xml:space="preserve">
<path style="fill:none;stroke:#000000;stroke-width:2;stroke-linecap:round;stroke-linejoin:round;stroke-miterlimit:10;" d="
	M7.093,37.104c0.598-0.129,1.381-0.323,2.089-0.52c0.726-0.194,1.454-0.416,2.182-0.638c1.456-0.45,2.9-0.961,4.337-1.494
	c2.868-1.086,5.667-2.359,8.377-3.785c2.723-1.408,5.321-3.03,7.792-4.811c2.515-1.738,4.748-3.796,6.933-5.898l0.125-0.12
	c1.193-1.148,3.091-1.111,4.238,0.082c1.107,1.151,1.106,2.964,0.034,4.12c-2.309,2.481-4.708,4.91-7.381,6.978
	c-2.635,2.116-5.409,4.051-8.311,5.751c-2.892,1.719-5.879,3.267-8.957,4.62c-1.543,0.667-3.098,1.31-4.686,1.892
	c-0.795,0.289-1.591,0.577-2.405,0.841c-0.828,0.274-1.593,0.513-2.553,0.773c-2.134,0.578-4.331-0.684-4.909-2.817
	c-0.578-2.134,0.684-4.331,2.817-4.909c0.063-0.017,0.125-0.032,0.188-0.046L7.093,37.104z"/>
<path style="fill:none;stroke:#000000;stroke-width:2;stroke-linecap:round;stroke-linejoin:round;stroke-miterlimit:10;" d="
	M33.551,19.935L7.674,5.247C7.39,5.086,7.05,5.071,6.755,5.211c-0.509,0.24-1.297,0.726-1.85,1.602
	C4.293,7.781,4.197,8.801,4.209,9.422c0.007,0.354,0.199,0.675,0.508,0.85l16.028,9.097c1.349,0.766,2.946,0.782,4.274,0.141"/>
<path style="fill:none;stroke:#000000;stroke-width:2;stroke-linecap:round;stroke-linejoin:round;stroke-miterlimit:10;" d="M47,26
	c-1.491,0.676-3.891-0.62-4.568-1.018"/>
</svg>