<?xml version="1.0" encoding="utf-8"?><!-- Generator: Adobe Illustrator 15.0.0, SVG Export Plug-In . SVG Version: 6.00 Build 0)  --><!DOCTYPE svg PUBLIC "-//W3C//DTD SVG 1.1//EN" "http://www.w3.org/Graphics/SVG/1.1/DTD/svg11.dtd"><svg xmlns="http://www.w3.org/2000/svg" xmlns:xlink="http://www.w3.org/1999/xlink" viewBox="0 0 50 50" width="500px" height="500px"><path fill="none" stroke="#000000" stroke-width="2" stroke-miterlimit="10" d="M40,48c0,0,0-5.059,0-15c0-6.79-1.335-12.697-6-15.763"/><path fill="none" stroke="#000000" stroke-width="2" stroke-miterlimit="10" d="M16,17.435c-4.665,3.284-6,9.431-6,15.565c0,8.98,0,15,0,15"/><path d="M29.88,2.568c-3.322-0.754-6.437-0.755-9.76,0C17.105,3.253,15,5.896,15,8.994v26.455l0.335,0.298C15.485,35.88,19.063,39,25,39c5.937,0,9.515-3.12,9.664-3.253L35,35.449V8.994C35,5.896,32.895,3.253,29.88,2.568z M31,33.625l-0.562,0.273c-0.139,0.067-2.361,1.126-5.486,1.126c-1.6,0-3.436-0.277-5.35-1.106l0.795-1.836c3.775,1.638,7.273,0.714,8.603,0.242V8.994h2V33.625z"/></svg>