<?xml version="1.0" encoding="utf-8"?><!-- Generator: Adobe Illustrator 18.1.1, SVG Export Plug-In . SVG Version: 6.00 Build 0)  --><svg xmlns="http://www.w3.org/2000/svg" xmlns:xlink="http://www.w3.org/1999/xlink" viewBox="0 0 50 50" width="500px" height="500px"><path fill="none" stroke="#000000" stroke-width="2" stroke-linecap="round" stroke-linejoin="round" stroke-miterlimit="10" d="M41,1h-3v44.5c0,1.9,1.6,3.5,3.5,3.5h0c1.9,0,3.5-1.6,3.5-3.5V5C45,2.8,43.2,1,41,1z"/><line fill="none" stroke="#000000" stroke-width="2" stroke-linecap="round" stroke-linejoin="round" stroke-miterlimit="10" x1="38" y1="1" x2="28" y2="1"/><line fill="none" stroke="#000000" stroke-width="2" stroke-linecap="round" stroke-linejoin="round" stroke-miterlimit="10" x1="38" y1="5" x2="28" y2="5"/><line fill="none" stroke="#000000" stroke-width="2" stroke-linecap="round" stroke-linejoin="round" stroke-miterlimit="10" x1="38" y1="9" x2="28" y2="9"/><line fill="none" stroke="#000000" stroke-width="2" stroke-linecap="round" stroke-linejoin="round" stroke-miterlimit="10" x1="38" y1="13" x2="28" y2="13"/><line fill="none" stroke="#000000" stroke-width="2" stroke-linecap="round" stroke-linejoin="round" stroke-miterlimit="10" x1="38" y1="17" x2="28" y2="17"/><line fill="none" stroke="#000000" stroke-width="2" stroke-linecap="round" stroke-linejoin="round" stroke-miterlimit="10" x1="38" y1="21" x2="28" y2="21"/><line fill="none" stroke="#000000" stroke-width="2" stroke-linecap="round" stroke-linejoin="round" stroke-miterlimit="10" x1="38" y1="25" x2="28" y2="25"/><line fill="none" stroke="#000000" stroke-width="2" stroke-linecap="round" stroke-linejoin="round" stroke-miterlimit="10" x1="38" y1="29" x2="28" y2="29"/><circle cx="17" cy="26" r="2"/><path fill="none" stroke="#000000" stroke-width="2" stroke-linejoin="round" stroke-miterlimit="10" d="M24.8,37.1c-1-0.2-2,0-2.8,0.4V32V19.3c0-3.9-1.9-13.1-2.7-16.8c-0.2-0.9-1-1.6-2-1.6l-0.5,0C16,1,15.2,1.6,15,2.5c-0.9,3.7-3,13-3,16.8v9.2c0,1.9,1.6,3.5,3.5,3.5h0c1.9,0,3.5,1.6,3.5,3.5V42l0,1.8c0,2.6,1.9,4.9,4.5,5.2c3,0.3,5.5-2.1,5.5-5l0-1.8C29,39.7,27.3,37.5,24.8,37.1z"/><path fill="none" stroke="#000000" stroke-width="2" stroke-linejoin="round" stroke-miterlimit="10" d="M15,32v10c0,0.3,0,1.7,0,2c0,2.8-2.2,5-5,5s-5-2.2-5-5c0-0.3,0-1.7,0-2c0-2.8,2.2-5,5-5c0.7,0,1.4,0.2,2,0.4V28"/><path d="M26,42c0-1.1-0.9-2-2-2s-2,0.9-2,2c0,0.4,0,1.6,0,2c0,1.1,0.9,2,2,2s2-0.9,2-2C26,43.6,26,42.4,26,42z"/><path d="M12,42c0-1.1-0.9-2-2-2s-2,0.9-2,2c0,0.4,0,1.6,0,2c0,1.1,0.9,2,2,2s2-0.9,2-2C12,43.6,12,42.4,12,42z"/></svg>