<?xml version="1.0" encoding="utf-8"?><!-- Generator: Adobe Illustrator 15.0.0, SVG Export Plug-In . SVG Version: 6.00 Build 0)  --><!DOCTYPE svg PUBLIC "-//W3C//DTD SVG 1.1//EN" "http://www.w3.org/Graphics/SVG/1.1/DTD/svg11.dtd"><svg xmlns="http://www.w3.org/2000/svg" xmlns:xlink="http://www.w3.org/1999/xlink" viewBox="0 0 50 50" width="500px" height="500px"><circle cx="25" cy="5" r="5"/><path d="M36,14H14c-0.552,0-1-0.448-1-1v-2c0-0.552,0.448-1,1-1h22c0.553,0,1,0.448,1,1v2C37,13.552,36.553,14,36,14z"/><g><path d="M25.995,13.703L17,14h10.496c-0.046-0.108-0.11-0.209-0.198-0.297C26.938,13.342,26.354,13.342,25.995,13.703z"/><path d="M16,13c-0.552,0-1,0.448-1,1h2C17,13.448,16.552,13,16,13z"/><path d="M34,13c-0.553,0-1,0.448-1,1h2C35,13.448,34.553,13,34,13z"/></g><path d="M36,50H14c-0.552,0-1-0.447-1-1v-2c0-0.553,0.448-1,1-1h22c0.553,0,1,0.447,1,1v2C37,49.553,36.553,50,36,50z"/><g><polygon points="18.303,44 33,29.303 33,36.697 25.697,44 35,44 35,16 33,16 33,16.697 17,32.697 17,25.303 26.303,16 15,16 15,44 "/></g></svg>