<?xml version="1.0" encoding="utf-8"?><!-- Generator: Adobe Illustrator 17.0.0, SVG Export Plug-In . SVG Version: 6.00 Build 0)  --><!DOCTYPE svg PUBLIC "-//W3C//DTD SVG 1.1//EN" "http://www.w3.org/Graphics/SVG/1.1/DTD/svg11.dtd"><svg xmlns="http://www.w3.org/2000/svg" xmlns:xlink="http://www.w3.org/1999/xlink" viewBox="0 0 50 50" width="500px" height="500px"><path fill="none" stroke="#000000" stroke-width="2" stroke-linecap="round" stroke-miterlimit="10" d="M25.182,34.552c0,0-4.153-2.511-8.603-0.264C11.964,36.62,9.948,42.333,9,45c1.812,0.877,6.93,3.539,12.874,1.437c4.855-1.718,5.916-7.345,5.916-7.345"/><path fill="none" stroke="#000000" stroke-width="2" stroke-linecap="round" stroke-miterlimit="10" d="M31.482,31.21c0,0,2.044-5.272,5.518-7.376c3.891-2.357,9.918-1.843,12-0.833c0.334,1.991-0.189,8.64-5.15,12.178c-4.055,2.888-9.44,1.053-9.44,1.053"/><path fill="none" stroke="#000000" stroke-width="2" stroke-linecap="round" stroke-linejoin="round" stroke-miterlimit="10" d="M34.365,36.531c0,0-2.971-5.025-3.294-5.582c-0.386-0.662-2.153-0.387-3.534,0.498c-1.884,1.205-2.54,2.154-2.372,2.54c0.31,0.727,2.904,5.36,3.124,5.802c0.22,0.442,1.877,0.774,3.647-0.386C33.703,38.244,34.695,37.469,34.365,36.531z"/><path d="M33.647,33.855c0,0,6.142-0.499,4.355-3.198c-1.787-2.699-4.661,2.722-4.661,2.722L33.647,33.855z"/><path d="M25.794,36.796c0,0-6.142,0.499-4.355,3.198c1.787,2.699,4.661-2.722,4.661-2.722L25.794,36.796z"/><path fill="none" stroke="#000000" stroke-width="2" stroke-miterlimit="10" d="M11.029,39.326c-4.112-0.896-7.342-2.999-8.943-6.231c-3.785-7.641,2.972-18.703,15.092-24.706s25.014-4.675,28.799,2.966c1.596,3.222,1.318,7.051-0.446,10.853"/></svg>