<?xml version="1.0" encoding="iso-8859-1"?>
<!-- Generator: Adobe Illustrator 27.0.0, SVG Export Plug-In . SVG Version: 6.00 Build 0)  -->
<svg version="1.1" baseProfile="basic" xmlns="http://www.w3.org/2000/svg" xmlns:xlink="http://www.w3.org/1999/xlink" x="0px"
	 y="0px" viewBox="0 0 64 64" xml:space="preserve">
<g id="Layer_1">
</g>
<g id="Layer_2">
</g>
<g id="Layer_3">
</g>
<g id="Layer_4">
	<g>
		<rect x="20.635" y="38.329" transform="matrix(0.7071 -0.7071 0.7071 0.7071 -21.5397 28.6567)" width="6.374" height="4"/>
		<path d="M54,14c-0.414,0-0.82,0.033-1.222,0.083C52.922,13.41,53,12.714,53,12c0-5.514-4.486-10-10-10
			c-0.169,0-0.333,0.017-0.5,0.025V2H39c-5.514,0-10,4.486-10,10c0,2.271,0.785,4.438,2.15,6.176c-1.602,0.3-3.073,0.979-4.31,1.954
			c-0.62,0.49-1.19,1.05-1.68,1.67L9.84,37c-1.89,1.89-2.93,4.4-2.93,7.08c0,2.67,1.04,5.19,2.93,7.08C11.34,52.66,14,54,16,54
			c0,0,4.54,0,5,0c2.56,0,4.72-0.89,6.67-2.84l14.78-14.78c1.17-0.76,2.17-1.76,2.93-2.93c0.546-0.833,0.958-1.754,1.235-2.732
			C48.445,32.729,51.074,34,54,34c5.514,0,10-4.486,10-10S59.514,14,54,14z M49,12c0,3.309-2.691,6-6,6s-6-2.691-6-6s2.691-6,6-6
			S49,8.691,49,12z M33.031,11.387C33.019,11.591,33,11.793,33,12C33,11.793,33.01,11.588,33.031,11.387z M35.217,37.953L35.17,38h0
			L24.84,48.33C23.89,49.28,22.75,49.88,21,50l-1.5-0.01c-1.19-0.22-2.29-0.78-3.17-1.66c-2.34-2.34-2.34-6.16,0-8.51l7.73-7.35
			l3.06-2.97l0.03,0.18c0.7,4.13,3.95,7.42,8.07,8.16c0.03,0.01,0.06,0.01,0.1,0.01L35.217,37.953z M42.23,30.94
			c-0.07,0.13-0.16,0.24-0.24,0.37c-0.09,0.14-0.19,0.28-0.29,0.41c-0.05,0.07-0.11,0.12-0.16,0.18c-0.12,0.14-0.23,0.27-0.35,0.39
			c-0.06,0.06-0.13,0.11-0.19,0.16c-0.31,0.28-0.64,0.53-1,0.74c-0.01,0.01-0.03,0.02-0.04,0.02C39.09,33.72,38.08,34,37,34
			c-3.31,0-6-2.69-6-6c0-1.07,0.28-2.07,0.77-2.94c0.04-0.07,0.09-0.15,0.13-0.21c0.01-0.01,0.02-0.01,0.02-0.02
			c0.03-0.05,0.06-0.09,0.09-0.14c0.09-0.14,0.19-0.28,0.29-0.41c0.05-0.07,0.11-0.12,0.16-0.18c0.12-0.14,0.23-0.27,0.35-0.39
			c0.06-0.06,0.12-0.11,0.18-0.16c0.31-0.28,0.65-0.53,1.01-0.74c0.88-0.52,1.9-0.81,3-0.81c3.31,0,6,2.69,6,6
			C43,29.07,42.72,30.07,42.23,30.94z M54,30c-3.309,0-6-2.691-6-6s2.691-6,6-6s6,2.691,6,6S57.309,30,54,30z"/>
		<circle cx="37" cy="28" r="3"/>
		<circle cx="43" cy="12" r="3"/>
		<circle cx="54" cy="24" r="3"/>
	</g>
</g>
<g id="Layer_5">
</g>
<g id="Layer_6">
</g>
<g id="Layer_7">
</g>
</svg>