<?xml version="1.0" encoding="utf-8"?><!-- Generator: Adobe Illustrator 15.0.0, SVG Export Plug-In . SVG Version: 6.00 Build 0)  --><!DOCTYPE svg PUBLIC "-//W3C//DTD SVG 1.1//EN" "http://www.w3.org/Graphics/SVG/1.1/DTD/svg11.dtd"><svg xmlns="http://www.w3.org/2000/svg" xmlns:xlink="http://www.w3.org/1999/xlink" viewBox="0 0 50 50" width="500px" height="500px"><path d="M33,50H17c-1.654,0-3-1.346-3-3V36c0-1.654,1.346-3,3-3h16c1.654,0,3,1.346,3,3v11C36,48.654,34.654,50,33,50z"/><path d="M31,1c0-0.291-0.127-0.568-0.348-0.758c-0.221-0.191-0.516-0.275-0.802-0.231C22.151,1.171,19.244,6.3,19.124,6.518C19.042,6.665,19,6.831,19,7v4h12V1z"/><path d="M33,15c0-1.159-0.841-2-2-2H19c-1.159,0-2,0.841-2,2v16h16V15z"/></svg>