<?xml version="1.0" encoding="iso-8859-1"?><!-- Generator: Adobe Illustrator 19.1.0, SVG Export Plug-In . SVG Version: 6.00 Build 0)  --><svg xmlns="http://www.w3.org/2000/svg" xmlns:xlink="http://www.w3.org/1999/xlink" viewBox="0 0 50 50" width="500px" height="500px"><path style="fill:none;stroke:#000000;stroke-width:2;stroke-miterlimit:10;" d="M30,17H20V6c0-1.105,0.895-2,2-2h6c1.105,0,2,0.895,2,2V17z"/><path style="fill:none;stroke:#000000;stroke-width:2;stroke-miterlimit:10;" d="M30.646,17H19.354c-0.818,0-1.553,0.498-1.857,1.257l-4.666,11.664c-0.544,1.359-0.704,2.842-0.463,4.286l1.353,8.121C13.882,43.293,14.717,44,15.694,44h18.611c0.978,0,1.812-0.707,1.973-1.671l1.353-8.121c0.241-1.444,0.08-2.927-0.463-4.286l-4.666-11.664C32.199,17.498,31.464,17,30.646,17z"/><line style="fill:none;stroke:#000000;stroke-width:2;stroke-miterlimit:10;" x1="25" y1="31" x2="25" y2="17"/><polygon points="26,32 24,32 26,38 27,38 "/><polygon points="24,32 26,32 25,38 23,38 "/></svg>