<?xml version="1.0" encoding="iso-8859-1"?>
<!-- Generator: Adobe Illustrator 24.3.0, SVG Export Plug-In . SVG Version: 6.00 Build 0)  -->
<svg version="1.1" xmlns="http://www.w3.org/2000/svg" xmlns:xlink="http://www.w3.org/1999/xlink" x="0px" y="0px"
	 viewBox="0 0 48 48" style="enable-background:new 0 0 48 48;" xml:space="preserve">
<g id="&#x421;&#x43B;&#x43E;&#x439;_1">
</g>
<g id="&#x421;&#x43B;&#x43E;&#x439;_2">
</g>
<g id="&#x421;&#x43B;&#x43E;&#x439;_3">
</g>
<g id="&#x421;&#x43B;&#x43E;&#x439;_4">
</g>
<g id="&#x421;&#x43B;&#x43E;&#x439;_5">
</g>
<g id="&#x421;&#x43B;&#x43E;&#x439;_6">
	<path style="fill:none;stroke:#000000;stroke-width:3;stroke-linecap:round;stroke-linejoin:round;stroke-miterlimit:10;" d="
		M30.5,23.5h-13l-6-13c0,0,4-7,12.5-7s12.5,7,12.5,7L30.5,23.5z"/>
	
		<line style="fill:none;stroke:#000000;stroke-width:3;stroke-linecap:round;stroke-linejoin:round;stroke-miterlimit:10;" x1="19.5" y1="11.5" x2="21.5" y2="22.5"/>
	
		<line style="fill:none;stroke:#000000;stroke-width:3;stroke-linecap:round;stroke-linejoin:round;stroke-miterlimit:10;" x1="28.5" y1="11.5" x2="26.5" y2="22.5"/>
	<path d="M32.556,41.062l-2.165-3.067c-0.557-0.789-0.523-1.86,0.083-2.665C32.15,33.104,33,30.964,33,28.969
		c0-1.754-0.343-3.5-0.99-5.049c-0.319-0.763-1.196-1.124-1.963-0.805c-0.568,0.238-0.911,0.784-0.92,1.363l-10.175-0.14
		c0.008-0.583-0.327-1.143-0.894-1.393c-0.76-0.335-1.645,0.009-1.978,0.768C15.373,25.315,15,27.133,15,28.969
		c0,2.04,0.891,4.233,2.646,6.519c0.479,0.623,0.492,1.477,0.031,2.076c-1.091,1.423-1.888,2.678-2.367,3.729
		c-0.474,1.037-0.39,2.227,0.225,3.184C16.148,45.431,17.191,46,18.326,46h11.348c1.134,0,2.177-0.569,2.791-1.522
		c0.614-0.954,0.7-2.139,0.23-3.171C32.656,41.22,32.609,41.139,32.556,41.062z"/>
</g>
</svg>