<?xml version="1.0" encoding="iso-8859-1"?><!-- Generator: Adobe Illustrator 22.1.0, SVG Export Plug-In . SVG Version: 6.00 Build 0)  --><svg xmlns="http://www.w3.org/2000/svg" xmlns:xlink="http://www.w3.org/1999/xlink" viewBox="0 0 50 50" width="500px" height="500px"><path d="M29,1h-8c-0.552,0-1,0.447-1,1v3h2.416c0.52-0.595,1.476-1,2.584-1s2.064,0.405,2.584,1H30V2C30,1.447,29.552,1,29,1z"/><path d="M31.106,13.143L30.869,13H19.131l-0.238,0.143C16.456,14.605,15,17.169,15,20v27c0,1.103,0.897,2,2,2h16c1.103,0,2-0.897,2-2V20C35,17.169,33.544,14.605,31.106,13.143z M33,42H17V21h16V42z"/><path d="M30,11V7h-2.416C27.064,7.595,26.108,8,25,8s-2.064-0.405-2.584-1H20v4H30z"/></svg>