<?xml version="1.0" encoding="iso-8859-1"?>
<!-- Generator: Adobe Illustrator 24.1.2, SVG Export Plug-In . SVG Version: 6.00 Build 0)  -->
<svg version="1.1" baseProfile="basic" id="Layer_1"
	 xmlns="http://www.w3.org/2000/svg" xmlns:xlink="http://www.w3.org/1999/xlink" x="0px" y="0px" viewBox="0 0 100 100"
	 xml:space="preserve">
<path style="fill:none;stroke:#000000;stroke-width:2;stroke-linecap:round;stroke-linejoin:round;stroke-miterlimit:10;" d="M84,50
	c0-12-5-22-5-22l-8,2l4.053-7.143C75.053,22.857,66.105,12,50,12S24.947,22.857,24.947,22.857L29,30l-8-2c0,0-5,10-5,22s5,22,5,22
	l7-2l-3,7c0,0,8.895,11,25,11s25-11,25-11l-3-7l7,2C79,72,84,62,84,50z"/>
<path style="fill:none;stroke:#000000;stroke-miterlimit:10;" d="M58.5,69.563c0,1.925-4.743,3.938-8.5,3.938s-8.5-2.013-8.5-3.938
	c0-1.925,4.743-3.063,8.5-3.063S58.5,67.637,58.5,69.563z"/>
<path style="fill:none;stroke:#000000;stroke-linecap:round;stroke-miterlimit:10;" d="M68.321,44.5
	c0.745,0.715,1.179,1.575,1.179,2.5c0,2.484-3.132,4.5-7,4.5s-7-2.016-7-4.5s3.132-4.5,7-4.5c1.275,0,2.471,0.219,3.5,0.602"/>
<path style="fill:none;stroke:#000000;stroke-linecap:round;stroke-miterlimit:10;" d="M38.5,42.5
	c1.277,0.117,2.442,0.456,3.399,0.954"/>
<path style="fill:none;stroke:#000000;stroke-linecap:round;stroke-miterlimit:10;" d="M43.772,44.954
	c0.466,0.603,0.728,1.282,0.728,2c0,2.484-3.132,4.5-7,4.5s-7-2.016-7-4.5c0-2.266,2.607-4.142,6-4.454"/>
<path style="fill:none;stroke:#000000;stroke-linecap:round;stroke-linejoin:round;stroke-miterlimit:10;" d="M54.386,58.5
	c0.481,2.137-0.586,3.129-2.568,3.003h-3.635c-1.983,0.125-3.049-0.867-2.568-3.003"/>
</svg>