<?xml version="1.0" encoding="iso-8859-1"?>
<!-- Generator: Adobe Illustrator 26.1.0, SVG Export Plug-In . SVG Version: 6.00 Build 0)  -->
<svg version="1.1" baseProfile="basic" id="Layer_1"
	 xmlns="http://www.w3.org/2000/svg" xmlns:xlink="http://www.w3.org/1999/xlink" x="0px" y="0px" viewBox="0 0 24 24"
	 xml:space="preserve">
<g>
	<path d="M14,10v3c0,0.552,0.448,1,1,1h1c0.552,0,1,0.449,1,1v6c0,0.551-0.448,1-1,1H7c-0.552,0-1-0.449-1-1v-6c0-0.551,0.448-1,1-1
		h1c0.552,0,1-0.448,1-1v-3H14 M14,9H9c-0.552,0-1,0.448-1,1v3H7c-1.104,0-2,0.895-2,2v6c0,1.105,0.896,2,2,2h9c1.104,0,2-0.895,2-2
		v-6c0-1.105-0.896-2-2-2h-1v-3C15,9.448,14.552,9,14,9L14,9z"/>
</g>
<line style="fill:none;stroke:#000000;stroke-linecap:round;stroke-linejoin:round;stroke-miterlimit:10;" x1="6.5" y1="2.5" x2="9.5" y2="9.5"/>
<line style="fill:none;stroke:#000000;stroke-linecap:round;stroke-linejoin:round;stroke-miterlimit:10;" x1="13.5" y1="9.5" x2="16.5" y2="1.5"/>
<line style="fill:none;stroke:#000000;stroke-linecap:round;stroke-linejoin:round;stroke-miterlimit:10;" x1="11.5" y1="1.5" x2="11.5" y2="9.5"/>
<line style="fill:none;stroke:#000000;stroke-linecap:round;stroke-linejoin:round;stroke-miterlimit:10;" x1="7.5" y1="9.5" x2="15.5" y2="9.5"/>
</svg>