<?xml version="1.0" encoding="iso-8859-1"?>
<!-- Generator: Adobe Illustrator 24.3.0, SVG Export Plug-In . SVG Version: 6.00 Build 0)  -->
<svg version="1.1" xmlns="http://www.w3.org/2000/svg" xmlns:xlink="http://www.w3.org/1999/xlink" x="0px" y="0px"
	 viewBox="0 0 48 48" style="enable-background:new 0 0 48 48;" xml:space="preserve">
<g id="&#x421;&#x43B;&#x43E;&#x439;_1">
</g>
<g id="&#x421;&#x43B;&#x43E;&#x439;_2">
</g>
<g id="&#x421;&#x43B;&#x43E;&#x439;_3">
</g>
<g id="&#x421;&#x43B;&#x43E;&#x439;_4">
</g>
<g id="&#x421;&#x43B;&#x43E;&#x439;_5">
</g>
<g id="&#x421;&#x43B;&#x43E;&#x439;_6">
	
		<line style="fill:none;stroke:#000000;stroke-width:3;stroke-linecap:round;stroke-linejoin:round;stroke-miterlimit:10;" x1="16.5" y1="2.5" x2="16.5" y2="7.5"/>
	
		<line style="fill:none;stroke:#000000;stroke-width:3;stroke-linecap:round;stroke-linejoin:round;stroke-miterlimit:10;" x1="21.5" y1="2.5" x2="21.5" y2="7.5"/>
	
		<line style="fill:none;stroke:#000000;stroke-width:3;stroke-linecap:round;stroke-linejoin:round;stroke-miterlimit:10;" x1="26.5" y1="2.5" x2="26.5" y2="7.5"/>
	
		<line style="fill:none;stroke:#000000;stroke-width:3;stroke-linecap:round;stroke-linejoin:round;stroke-miterlimit:10;" x1="31.5" y1="2.5" x2="31.5" y2="7.5"/>
	<path d="M36,14V5.5C36,4.671,35.328,4,34.5,4h-21C12.672,4,12,4.671,12,5.5V14H36z"/>
	<g>
		<path d="M24,29c-1.105,0-2-0.895-2-2v6c0,1.103,0.897,2,2,2s2-0.897,2-2v-6C26,28.105,25.105,29,24,29z"/>
		<path d="M12.096,16c0.02,0.057,0.035,0.116,0.062,0.171L15,21.854V37c0,4.962,4.037,9,9,9s9-4.038,9-9V21.854l2.842-5.683
			c0.027-0.055,0.041-0.114,0.062-0.171H12.096z M28,33c0,2.206-1.794,4-4,4s-4-1.794-4-4v-6c0-2.206,1.794-4,4-4s4,1.794,4,4V33z"
			/>
	</g>
</g>
</svg>