<?xml version="1.0" encoding="iso-8859-1"?><!-- Generator: Adobe Illustrator 22.1.0, SVG Export Plug-In . SVG Version: 6.00 Build 0)  --><svg xmlns="http://www.w3.org/2000/svg" xmlns:xlink="http://www.w3.org/1999/xlink" viewBox="0 0 50 50" width="500px" height="500px"><path d="M39,10c0-3.86-3.141-7-7-7H18c-3.859,0-7,3.14-7,7v2h28V10z"/><path d="M9,14v32c0,0.553,0.447,1,1,1h8v-7c0-0.553,0.447-1,1-1h12c0.553,0,1,0.447,1,1v7h8c0.553,0,1-0.447,1-1V14H9z M34,33H16V22h18V33z"/><rect x="20" y="41" width="2" height="6"/><rect x="24" y="41" width="2" height="6"/><rect x="28" y="41" width="2" height="6"/></svg>