<?xml version="1.0" encoding="iso-8859-1"?>
<!-- Generator: Adobe Illustrator 24.3.0, SVG Export Plug-In . SVG Version: 6.00 Build 0)  -->
<svg version="1.1" xmlns="http://www.w3.org/2000/svg" xmlns:xlink="http://www.w3.org/1999/xlink" x="0px" y="0px"
	 viewBox="0 0 48 48" style="enable-background:new 0 0 48 48;" xml:space="preserve">
<g id="&#x421;&#x43B;&#x43E;&#x439;_1">
</g>
<g id="&#x421;&#x43B;&#x43E;&#x439;_2">
</g>
<g id="&#x421;&#x43B;&#x43E;&#x439;_3">
</g>
<g id="&#x421;&#x43B;&#x43E;&#x439;_4">
</g>
<g id="&#x421;&#x43B;&#x43E;&#x439;_5">
	<path style="fill:none;stroke:#000000;stroke-width:3;stroke-linecap:round;stroke-linejoin:round;stroke-miterlimit:10;" d="
		M32.112,28.208C35.384,30.672,37.5,34.589,37.5,39v5.5"/>
	<path style="fill:none;stroke:#000000;stroke-width:3;stroke-linecap:round;stroke-linejoin:round;stroke-miterlimit:10;" d="
		M10.5,44.5V39c0-4.446,2.149-8.39,5.465-10.85"/>
	<path d="M27.5,19H25v6.009l1.986,5.826C27.088,31.445,26.618,32,26,32h-3.995c-0.618,0-1.088-0.555-0.986-1.164L23,25.009V19h-2.5
		c-3.033,0-5.5,2.467-5.5,5.5v13c0,4.136,3.364,7.5,7.5,7.5h3c4.136,0,7.5-3.364,7.5-7.5v-13C33,21.467,30.533,19,27.5,19z"/>
	<path d="M25.5,2h-3C20.57,2,19,3.57,19,5.5v8c0,0.829,0.671,1.5,1.5,1.5h7c0.829,0,1.5-0.671,1.5-1.5v-8C29,3.57,27.43,2,25.5,2z"
		/>
</g>
<g id="&#x421;&#x43B;&#x43E;&#x439;_6">
</g>
</svg>