<?xml version="1.0" encoding="utf-8"?><!-- Generator: Adobe Illustrator 15.0.0, SVG Export Plug-In . SVG Version: 6.00 Build 0)  --><!DOCTYPE svg PUBLIC "-//W3C//DTD SVG 1.1//EN" "http://www.w3.org/Graphics/SVG/1.1/DTD/svg11.dtd"><svg xmlns="http://www.w3.org/2000/svg" xmlns:xlink="http://www.w3.org/1999/xlink" viewBox="0 0 50 50" width="500px" height="500px"><path d="M16.788,49.997C16.788,49.997,16.788,49.997,16.788,49.997c-1.01,0-1.815-0.813-2.159-1.16c-1.301-1.303-1.875-3.471-1.505-5.567l0.115-0.639c0.185-1.008,0.185-1.008,0.009-1.238c-0.271-0.356-0.273-0.85-0.004-1.207c0.27-0.357,0.744-0.493,1.161-0.332l4.452,1.728c0.398,0.154,0.654,0.545,0.637,0.971c-0.016,0.427-0.301,0.796-0.71,0.919c-0.792,0.239-0.965,0.642-1.035,1.041c-0.115,0.652,0.054,1.486,0.159,1.68c0.565,0.921,1.344,2.191,0.118,3.315C17.676,49.828,17.248,49.997,16.788,49.997z"/><path d="M40.869,0.505C40.691,0.193,40.359,0,40,0c-2.024,0-3.214,0.131-6.06,2.93c-0.449,0.413-11.015,10.145-12.754,13.44c-1.361,2.582-2.94,5.266-4.333,7.633c-0.939,1.596-1.826,3.103-2.487,4.313c-2.58,4.71-3.394,8.274-2.488,10.897c0.571,1.654,1.817,2.903,3.703,3.711c0.922,0.396,1.849,0.597,2.754,0.597c0,0,0,0,0,0c2.889,0,5.326-1.974,6.861-5.558c0.981-2.288,1.237-4.446,0.74-6.241c-0.52-1.877-1.825-3.311-3.77-4.144c-0.095-0.042-0.153-0.087-0.17-0.073c0.008-0.03,0.035-0.111,0.129-0.247c1.174-1.681,2.182-2.409,3.35-3.251c1.505-1.086,3.211-2.317,5.46-5.744L40.86,1.51C41.044,1.201,41.047,0.817,40.869,0.505z M21.573,36.411c-1.742,4.05-3.772,3.18-4.439,2.894c-0.669-0.287-2.706-1.158-0.968-5.214c1.742-4.054,3.774-3.179,4.442-2.896C21.277,31.482,23.314,32.357,21.573,36.411z M21,24.001c-0.553,0-1.001-0.448-1.001-1.001s0.448-1.001,1.001-1.001s1.001,0.448,1.001,1.001S21.553,24.001,21,24.001z"/><g><path d="M49.666,13.264c-0.227-0.203-0.534-0.292-0.833-0.24l-13.857,2.341l-2.321,3.917l-0.023,0.04l-0.025,0.038c-2.451,3.735-4.397,5.14-5.963,6.269c-0.023,0.017-0.043,0.032-0.066,0.049c7.039-1.384,19.961-7.665,20.472-7.916c2.783-1.213,2.945-3.596,2.95-3.697C50.015,13.761,49.893,13.466,49.666,13.264z"/></g><g><path d="M9.688,27c0.997,0,2.093-0.057,3.191-0.165c0.004,0,0.017-0.001,0.023-0.001c0.647-1.16,1.444-2.516,2.227-3.846c0.605-1.028,1.247-2.121,1.889-3.234C16.928,15.646,13.551,13,8.352,13C3.2,13,0,15.651,0,19.918C0,24.617,3.259,27,9.688,27C9.687,27,9.687,27,9.688,27z M4,20c0-0.743,0-3,4.502-3C13,17,13,19.257,13,20c0,0.744,0,3-4.498,3C4,23,4,20.744,4,20z"/></g></svg>