<?xml version="1.0" encoding="iso-8859-1"?>
<!-- Generator: Adobe Illustrator 23.0.3, SVG Export Plug-In . SVG Version: 6.00 Build 0)  -->
<svg version="1.1" id="Layer_1" xmlns="http://www.w3.org/2000/svg" xmlns:xlink="http://www.w3.org/1999/xlink" x="0px" y="0px"
	 viewBox="0 0 48 48" style="enable-background:new 0 0 48 48;" xml:space="preserve">
<path style="fill:none;stroke:#000000;stroke-width:3;stroke-linecap:round;stroke-linejoin:round;stroke-miterlimit:10;" d="
	M40.624,28.075l1.64-0.328c0.646-0.129,1.238,0.396,1.198,1.054c-0.399,6.631-3.81,10.067-6.037,11.62
	c-1.01,0.704-2.206,1.079-3.438,1.079H21.17"/>
<path style="fill:none;stroke:#000000;stroke-width:3;stroke-linecap:round;stroke-linejoin:round;stroke-miterlimit:10;" d="
	M14.851,41.5h-0.838c-1.232,0-2.43-0.375-3.44-1.08c-2.226-1.553-5.635-4.989-6.034-11.618c-0.04-0.658,0.552-1.183,1.198-1.054
	l6.982,1.397c1.162,0.232,2.228,0.803,3.066,1.641l1.957,1.957c1.126,1.126,2.652,1.758,4.244,1.758h4.029
	c1.592,0,3.118-0.632,4.244-1.758l1.957-1.957c0.838-0.838,1.904-1.409,3.066-1.641"/>
<path style="fill:none;stroke:#000000;stroke-width:3;stroke-linecap:round;stroke-linejoin:round;stroke-miterlimit:10;" d="
	M9.5,28.5v-12c0-5.523,4.477-10,10-10h4"/>
<path style="fill:none;stroke:#000000;stroke-width:3;stroke-linecap:round;stroke-linejoin:round;stroke-miterlimit:10;" d="
	M28.319,12.504h1.079c0.617,0,1.117-0.56,0.989-1.164c-0.587-2.765-3.225-4.85-6.391-4.85c-3.166,0-5.804,2.086-6.391,4.85
	c-0.128,0.604,0.372,1.164,0.989,1.164h3.661H28.319z"/>
<circle cx="19" cy="25" r="1"/>
<circle cx="24" cy="25" r="1"/>
<circle cx="29" cy="25" r="1"/>
<circle cx="19" cy="17" r="1"/>
<circle cx="24" cy="17" r="1"/>
<circle cx="29" cy="17" r="1"/>
<circle cx="19" cy="21" r="1"/>
<circle cx="24" cy="21" r="1"/>
<circle cx="29" cy="21" r="1"/>
</svg>