<?xml version="1.0" encoding="utf-8"?><!-- Generator: Adobe Illustrator 20.1.0, SVG Export Plug-In . SVG Version: 6.00 Build 0)  --><svg xmlns="http://www.w3.org/2000/svg" xmlns:xlink="http://www.w3.org/1999/xlink" viewBox="0 0 50 50" width="500px" height="500px"><path d="M35,13H17c-1.1,0-2,0.9-2,2v29.9c0,1.7,1.5,3.1,3.4,3.1h15.3c1.8,0,3.4-1.4,3.4-3.1V15C37,13.9,36.1,13,35,13z"/><path fill="none" stroke="#000000" stroke-width="2" stroke-miterlimit="10" d="M34,14l0-1c0-3.8-5.3-5-5.3-5c0-1.4,1.1-2,2.2-2h1.9c0.2,0,0.4-0.1,0.4-0.3l0.6-2C33.9,3.3,33.6,3,33.3,3H29c-7,0-11,4.6-11,10l0,1"/></svg>