<?xml version="1.0" encoding="iso-8859-1"?>
<!-- Generator: Adobe Illustrator 25.2.3, SVG Export Plug-In . SVG Version: 6.00 Build 0)  -->
<svg version="1.1" baseProfile="basic" id="Layer_1"
	 xmlns="http://www.w3.org/2000/svg" xmlns:xlink="http://www.w3.org/1999/xlink" x="0px" y="0px" viewBox="0 0 64 64"
	 xml:space="preserve">
<path style="fill:none;stroke:#000000;stroke-width:2;stroke-linecap:round;stroke-linejoin:round;stroke-miterlimit:10;" d="M53,25
	l-6.246-6.246c-1.955-1.955-5.972,2.028-4.004,3.996C44.962,24.962,49,29,49,29l-6.245-6.245c-1.964-1.964-5.963,2.037-4,4L45,33
	l-6.247-6.247c-1.975-1.975-5.953,2.047-3.999,4.001L41,37l-6.249-6.249c-1.947-1.947-5.987,2.013-4.003,3.997L37,41l-6.256-6.256
	c-1.952-1.952-5.978,2.022-4.005,3.995C28.954,40.954,33,45,33,45s-4.047-4.047-6.262-6.262c-1.973-1.973-5.948,2.052-3.996,4.004
	L29,49l-6.261-6.261c-1.958-1.958-5.97,2.03-4.001,3.999L25,53l-6.247-6.247c-2.179-2.179-5.566,2.288-3.745,4.143L21,57
	L10.571,46.429c-2.186-2.182-2.085-6.447,0.27-8.797L37.94,10.569c2.366-2.362,6.377-1.801,8.325-0.013L57,21"/>
</svg>