<?xml version="1.0" encoding="iso-8859-1"?><!-- Generator: Adobe Illustrator 21.0.2, SVG Export Plug-In . SVG Version: 6.00 Build 0)  --><svg xmlns="http://www.w3.org/2000/svg" xmlns:xlink="http://www.w3.org/1999/xlink" viewBox="0 0 50 50" width="500px" height="500px"><path style="fill:none;stroke:#000000;stroke-width:2;stroke-linejoin:round;stroke-miterlimit:10;" d="M9,13H7c-1.105,0-2-0.895-2-2V9c0-1.105,0.895-2,2-2h2c1.105,0,2,0.895,2,2v2C11,12.105,10.105,13,9,13z"/><path style="fill:none;stroke:#000000;stroke-width:2;stroke-linejoin:round;stroke-miterlimit:10;" d="M13.047,17c0-0.873,0-2.27,0-4c0-1.58-1-6-4.047-6H7c-3,0-4,4.42-4,6c0,5,2,8,2,10v7.337c0,1.751,0.408,3.479,1.191,5.045"/><line style="fill:none;stroke:#000000;stroke-width:2;stroke-linejoin:round;stroke-miterlimit:10;" x1="17" y1="12" x2="17" y2="21"/><line style="fill:none;stroke:#000000;stroke-width:2;stroke-linejoin:round;stroke-miterlimit:10;" x1="22" y1="11" x2="22" y2="15"/><line style="fill:none;stroke:#000000;stroke-width:2;stroke-linejoin:round;stroke-miterlimit:10;" x1="26" y1="13" x2="26" y2="18"/><line style="fill:none;stroke:#000000;stroke-width:2;stroke-linejoin:round;stroke-miterlimit:10;" x1="31" y1="12" x2="31" y2="17"/><line style="fill:none;stroke:#000000;stroke-width:2;stroke-linejoin:round;stroke-miterlimit:10;" x1="40" y1="18" x2="40" y2="21"/><path style="fill:none;stroke:#000000;stroke-width:2;stroke-linejoin:round;stroke-miterlimit:10;" d="M47,23v2.149c0,1.825-0.725,3.576-2.016,4.866l-1.046,1.046C42.697,32.303,42,33.986,42,35.741V45"/><path style="fill:none;stroke:#000000;stroke-width:2;stroke-linejoin:round;stroke-miterlimit:10;" d="M31,15v-3.5c0-1.375-1.125-2.5-2.5-2.5h0c-1.375,0-2.5,1.125-2.5,2.5V15"/><path style="fill:none;stroke:#000000;stroke-width:2;stroke-linejoin:round;stroke-miterlimit:10;" d="M25,20h-3c-0.552,0-1-0.448-1-1v-3c0-0.552,0.448-1,1-1h3c0.552,0,1,0.448,1,1v3C26,19.552,25.552,20,25,20z"/><path style="fill:none;stroke:#000000;stroke-width:2;stroke-linejoin:round;stroke-miterlimit:10;" d="M22,20v1c0,1.1,0.9,2,2,2s2-0.9,2-2v-2"/><path style="fill:none;stroke:#000000;stroke-width:2;stroke-linejoin:round;stroke-miterlimit:10;" d="M16,22h-3c-0.552,0-1-0.448-1-1v-3c0-0.552,0.448-1,1-1h3c0.552,0,1,0.448,1,1v3C17,21.552,16.552,22,16,22z"/><path style="fill:none;stroke:#000000;stroke-width:2;stroke-linejoin:round;stroke-miterlimit:10;" d="M13,22v1c0,1.1,0.9,2,2,2s2-0.9,2-2v-2"/><path style="fill:none;stroke:#000000;stroke-width:2;stroke-linejoin:round;stroke-miterlimit:10;" d="M34,22h-3c-0.552,0-1-0.448-1-1v-3c0-0.552,0.448-1,1-1h3c0.552,0,1,0.448,1,1v3C35,21.552,34.552,22,34,22z"/><path style="fill:none;stroke:#000000;stroke-width:2;stroke-linejoin:round;stroke-miterlimit:10;" d="M31,22v1c0,1.1,0.9,2,2,2s2-0.9,2-2v-2"/><path style="fill:none;stroke:#000000;stroke-width:2;stroke-linejoin:round;stroke-miterlimit:10;" d="M47,25v-3.5c0-1.375-1.125-2.5-2.5-2.5h0c-1.204,0-2.216,0.863-2.449,2"/><path style="fill:none;stroke:#000000;stroke-width:2;stroke-linejoin:round;stroke-miterlimit:10;" d="M40,20v-3.5c0-1.375-1.125-2.5-2.5-2.5h0c-1.375,0-2.5,1.125-2.5,2.5V20"/><path style="fill:none;stroke:#000000;stroke-width:2;stroke-linejoin:round;stroke-miterlimit:10;" d="M22,13V9.5C22,8.125,20.875,7,19.5,7h0C18.125,7,17,8.125,17,9.5V13"/><path style="fill:none;stroke:#000000;stroke-width:2;stroke-linejoin:round;stroke-miterlimit:10;" d="M42,26h-3c-0.552,0-1-0.448-1-1v-3c0-0.552,0.448-1,1-1h3c0.552,0,1,0.448,1,1v3C43,25.552,42.552,26,42,26z"/><path d="M12.118,45l-0.224-0.447l-4.809-9.618C6.777,34.318,6.545,33.666,6.366,33H4.302c0.218,0.979,0.546,1.933,0.994,2.829L9.882,45H12.118z"/></svg>