<?xml version="1.0" encoding="iso-8859-1"?>
<!-- Generator: Adobe Illustrator 25.2.3, SVG Export Plug-In . SVG Version: 6.00 Build 0)  -->
<svg version="1.1" baseProfile="basic" id="Layer_1"
	 xmlns="http://www.w3.org/2000/svg" xmlns:xlink="http://www.w3.org/1999/xlink" x="0px" y="0px" viewBox="0 0 48 48"
	 xml:space="preserve">
<line style="fill:none;stroke:#000000;stroke-width:2;stroke-linecap:round;stroke-linejoin:round;stroke-miterlimit:10;" x1="29" y1="26" x2="29" y2="8"/>
<path style="fill:none;stroke:#000000;stroke-width:2;stroke-linecap:round;stroke-linejoin:round;stroke-miterlimit:10;" d="
	M14,15.99V6.145c0-0.732,0.394-1.407,1.038-1.754C16.668,3.513,20.053,2,24,2s7.332,1.513,8.962,2.39
	C33.606,4.737,34,5.413,34,6.145V30c0,0-2.34,5-10,5s-10-5-10-5V14.99c-2.65,1.86-4.44,4.85-4.66,8.3L8.145,40.864
	C8.067,42.02,8.983,43,10.141,43H24h13.859c1.158,0,2.074-0.98,1.995-2.136L38.66,23.29C38.588,22.155,38.387,21.011,38,20"/>
</svg>