<?xml version="1.0" encoding="utf-8"?><!-- Generator: Adobe Illustrator 17.1.0, SVG Export Plug-In . SVG Version: 6.00 Build 0)  --><!DOCTYPE svg PUBLIC "-//W3C//DTD SVG 1.0//EN" "http://www.w3.org/TR/2001/REC-SVG-20010904/DTD/svg10.dtd"><svg xmlns="http://www.w3.org/2000/svg" xmlns:xlink="http://www.w3.org/1999/xlink" viewBox="0 0 50 50" width="500px" height="500px"><path fill="none" stroke="#000000" stroke-width="2" stroke-linecap="round" stroke-miterlimit="10" d="M43.1,14.5c2.3,0,3.9-2.4,3.9-5.6c0-3.1-1.8-4.3-4-4.3c-0.1-1.3-0.3-2.5-0.5-3.6"/><path fill="none" stroke="#000000" stroke-width="2" stroke-linecap="round" stroke-miterlimit="10" d="M7.5,1C7.3,2.1,7.1,3.4,7,4.6C4.7,4.6,3,5.7,3,9c0,3.2,2.1,5.6,3.9,5.6"/><circle cx="33" cy="5" r="3"/><circle cx="17" cy="5" r="3"/><path fill="none" stroke="#000000" stroke-width="2" stroke-linecap="round" stroke-linejoin="round" stroke-miterlimit="10" d="M43.4,14.8C38.7,13,33.6,26,31,26c-2.5,0-4.3-3-6-3c-1.7,0-3.5,3-6,3c-2.6,0-7.8-13.1-12.4-11.2c0.8,8.4,2.7,18.2,6.2,23.1c0.6,0.8,1-0.7,1.7-1.8c-0.4,1.9,0,4.3,0.3,4.7C18.8,46.2,23.1,49,25,49c0.9,0,2.3-0.7,3.9-2c0.5-0.4,0.4-6.8,0.4-6.8s1.7,5,1.9,4.8C36.5,39.8,42.3,27.1,43.4,14.8z"/><path fill="none" stroke="#000000" stroke-width="2" stroke-linecap="round" stroke-miterlimit="10" d="M19,19c0.9-0.5,3.7-1,6-1c2.3,0,5.1,0.5,6,1"/></svg>