<?xml version="1.0" encoding="iso-8859-1"?>
<!-- Generator: Adobe Illustrator 24.3.0, SVG Export Plug-In . SVG Version: 6.00 Build 0)  -->
<svg version="1.1" xmlns="http://www.w3.org/2000/svg" xmlns:xlink="http://www.w3.org/1999/xlink" x="0px" y="0px"
	 viewBox="0 0 48 48" style="enable-background:new 0 0 48 48;" xml:space="preserve">
<g id="&#x421;&#x43B;&#x43E;&#x439;_1">
</g>
<g id="&#x421;&#x43B;&#x43E;&#x439;_2">
</g>
<g id="&#x421;&#x43B;&#x43E;&#x439;_3">
</g>
<g id="&#x421;&#x43B;&#x43E;&#x439;_4">
</g>
<g id="&#x421;&#x43B;&#x43E;&#x439;_5">
</g>
<g id="&#x421;&#x43B;&#x43E;&#x439;_6">
	<path style="fill:none;stroke:#000000;stroke-width:3;stroke-linecap:round;stroke-linejoin:round;stroke-miterlimit:10;" d="
		M30.549,44.5H17.451c-1.63,0-2.951-1.321-2.951-2.951V18.435c0-2.173,1.762-3.935,3.935-3.935h11.13
		c2.173,0,3.935,1.762,3.935,3.935v23.114C33.5,43.179,32.179,44.5,30.549,44.5z"/>
	<path style="fill:none;stroke:#000000;stroke-width:3;stroke-linecap:round;stroke-linejoin:round;stroke-miterlimit:10;" d="
		M16.5,14c0-7,3-10.5,10-10.5c4.472,0,7,0,7,0v5h-6c0,0,1.285,0.31,2.093,0.993C30.952,10.642,31.5,12.08,31.5,14"/>
</g>
</svg>