<?xml version="1.0" encoding="iso-8859-1"?>
<!-- Generator: Adobe Illustrator 24.3.0, SVG Export Plug-In . SVG Version: 6.00 Build 0)  -->
<svg version="1.1" xmlns="http://www.w3.org/2000/svg" xmlns:xlink="http://www.w3.org/1999/xlink" x="0px" y="0px"
	 viewBox="0 0 48 48" style="enable-background:new 0 0 48 48;" xml:space="preserve">
<g id="&#x421;&#x43B;&#x43E;&#x439;_1">
</g>
<g id="&#x421;&#x43B;&#x43E;&#x439;_2">
</g>
<g id="&#x421;&#x43B;&#x43E;&#x439;_3">
</g>
<g id="&#x421;&#x43B;&#x43E;&#x439;_4">
</g>
<g id="&#x421;&#x43B;&#x43E;&#x439;_5">
	<path d="M46.689,16.307c-0.853-0.851-1.956-1.292-3.192-1.314L43,14.995V13.5c0-2.481-2.019-4.5-4.5-4.5H9.433
		c-2.481,0-4.5,2.019-4.5,4.5v1.502l-0.452,0c-2.479,0.002-4.496,2.021-4.496,4.5v8.991c0,2.473,2.012,4.492,4.485,4.5l0.463,0.001
		V34.5c0,2.481,2.019,4.5,4.5,4.5H38.5c2.481,0,4.5-2.019,4.5-4.5V33h0.503c2.479,0,4.497-2.017,4.5-4.496l0.01-9.007
		C48.014,18.292,47.544,17.159,46.689,16.307z M38,27h-3v2c0,0.552-0.447,1-1,1s-1-0.448-1-1v-2h-5.023
		c-0.913,1.208-2.347,2-3.977,2s-3.065-0.792-3.977-2H15v2c0,0.552-0.447,1-1,1s-1-0.448-1-1v-2h-3c-1.657,0-3-1.343-3-3
		s1.343-3,3-3h3v-2c0-0.552,0.447-1,1-1s1,0.448,1,1v2h5.023c0.913-1.208,2.347-2,3.977-2s3.065,0.792,3.977,2H33v-2
		c0-0.552,0.447-1,1-1s1,0.448,1,1v2h3c1.657,0,3,1.343,3,3S39.657,27,38,27z"/>
</g>
<g id="&#x421;&#x43B;&#x43E;&#x439;_6">
</g>
</svg>