<?xml version="1.0" encoding="iso-8859-1"?>
<!-- Generator: Adobe Illustrator 26.1.0, SVG Export Plug-In . SVG Version: 6.00 Build 0)  -->
<svg version="1.1" baseProfile="basic" id="Layer_1"
	 xmlns="http://www.w3.org/2000/svg" xmlns:xlink="http://www.w3.org/1999/xlink" x="0px" y="0px" viewBox="0 0 24 24"
	 xml:space="preserve">
<path d="M20,8.278V8c0-2.757-2.243-5-5-5H9C6.243,3,4,5.243,4,8v0.278C3.405,8.625,3,9.263,3,10v8c0,1.654,1.346,3,3,3h4
	c-0.553,0-1-0.447-1-1s0.447-1,1-1h4c0.553,0,1,0.447,1,1s-0.447,1-1,1h4c1.654,0,3-1.346,3-3v-8C21,9.263,20.595,8.625,20,8.278z
	 M9,5h6c1.654,0,3,1.346,3,3H6C6,6.346,7.346,5,9,5z"/>
</svg>