<?xml version="1.0" encoding="iso-8859-1"?>
<!-- Generator: Adobe Illustrator 24.3.0, SVG Export Plug-In . SVG Version: 6.00 Build 0)  -->
<svg version="1.1" xmlns="http://www.w3.org/2000/svg" xmlns:xlink="http://www.w3.org/1999/xlink" x="0px" y="0px"
	 viewBox="0 0 48 48" style="enable-background:new 0 0 48 48;" xml:space="preserve">
<g id="&#x421;&#x43B;&#x43E;&#x439;_1">
	<path d="M42.012,5.008c-1.403-1.471-3.26-1.912-4.696-2c-0.856-0.053-1.314,0.986-0.696,1.58c1.143,1.097,2.574,2.474,2.956,2.856
		c2.45,2.45,0.462,9.918-5.866,16.246c-4.171,4.171-9.351,6.866-13.197,6.866c-1.36,0-2.493-0.807-3.208-1.347
		c-0.25-0.188-1.488-1.434-2.355-2.313c-0.687-0.698-1.932-0.249-1.93,0.731c0,0.012,0,0.024,0,0.037
		c0.034,1.725,0.894,3.215,2.008,4.328C16.39,33.353,18.3,34,20.513,34c4.631,0,10.591-2.833,15.633-7.875
		C43.597,18.674,46.122,9.318,42.012,5.008z"/>
	<g>
		<path d="M35.52,10c-0.384,0-0.768-0.146-1.061-0.439l-3-3c-0.586-0.585-0.586-1.536,0-2.121c0.586-0.586,1.535-0.586,2.121,0l3,3
			c0.586,0.585,0.586,1.536,0,2.121C36.288,9.854,35.904,10,35.52,10z"/>
	</g>
	
		<line style="fill:none;stroke:#000000;stroke-width:3;stroke-linecap:round;stroke-miterlimit:10;" x1="34.52" y1="15.5" x2="31.52" y2="12.5"/>
	
		<line style="fill:none;stroke:#000000;stroke-width:3;stroke-linecap:round;stroke-miterlimit:10;" x1="30.52" y1="20.5" x2="27.52" y2="17.5"/>
	
		<line style="fill:none;stroke:#000000;stroke-width:3;stroke-linecap:round;stroke-miterlimit:10;" x1="25.52" y1="24.5" x2="22.52" y2="21.5"/>
	
		<line style="fill:none;stroke:#000000;stroke-width:3;stroke-linecap:round;stroke-miterlimit:10;" x1="23.52" y1="13.5" x2="21.61" y2="11.59"/>
	
		<line style="fill:none;stroke:#000000;stroke-width:3;stroke-linecap:round;stroke-miterlimit:10;" x1="19.52" y1="18.5" x2="17.52" y2="16.5"/>
	
		<line style="fill:none;stroke:#000000;stroke-width:3;stroke-linecap:round;stroke-miterlimit:10;" x1="28.52" y1="9.5" x2="26.52" y2="7.5"/>
	<g>
		<path d="M19.52,28c-0.384,0-0.768-0.146-1.061-0.439l-3-3c-0.586-0.585-0.586-1.536,0-2.121c0.586-0.586,1.535-0.586,2.121,0l3,3
			c0.586,0.585,0.586,1.536,0,2.121C20.288,27.854,19.904,28,19.52,28z"/>
	</g>
	<path d="M18.828,32.465c-0.001,0.002-0.002,0.003-0.003,0.005L14.978,30l0,0l-0.568-0.823c-2.343,1.617-5.521,3.934-7.358,5.791
		c-3.244,3.279-3.974,6.779-1.858,8.917c0.709,0.717,1.674,1.095,2.792,1.095c1.925,0,4.248-1.139,6.062-2.973
		c2.323-2.348,4.793-5.892,6.456-8.452L18.828,32.465z"/>
</g>
<g id="&#x421;&#x43B;&#x43E;&#x439;_2">
</g>
<g id="&#x421;&#x43B;&#x43E;&#x439;_3">
</g>
<g id="&#x421;&#x43B;&#x43E;&#x439;_4">
</g>
<g id="&#x421;&#x43B;&#x43E;&#x439;_5">
</g>
<g id="&#x421;&#x43B;&#x43E;&#x439;_6">
</g>
</svg>