<?xml version="1.0" encoding="iso-8859-1"?>
<!-- Generator: Adobe Illustrator 24.0.3, SVG Export Plug-In . SVG Version: 6.00 Build 0)  -->
<svg version="1.1" id="Layer_1" xmlns="http://www.w3.org/2000/svg" xmlns:xlink="http://www.w3.org/1999/xlink" x="0px" y="0px"
	 viewBox="0 0 100 100" style="enable-background:new 0 0 100 100;" xml:space="preserve">
<g>
	<path style="fill:none;stroke:#000000;stroke-width:2;stroke-linecap:round;stroke-linejoin:round;stroke-miterlimit:10;" d="
		M71.949,12.069c-1.086-1.086-2.529-1.684-4.065-1.684c-1.536,0-2.98,0.598-4.066,1.685L13.499,62.257
		c-1.086,1.086-1.684,2.529-1.684,4.065c0,1.536,0.598,2.98,1.657,4.041L36.591,90.5l3.626-3.974l-16.731-16.73L71.298,22.05
		l16.665,16.665L92,35.09L71.949,12.069z"/>
	<path style="fill:#FDD4B2;stroke:#000000;stroke-miterlimit:10;" d="M41.568,52.064l0.313,0.445"/>
	
		<line style="fill:none;stroke:#000000;stroke-linecap:round;stroke-linejoin:round;stroke-miterlimit:10;" x1="27.892" y1="65.509" x2="43.968" y2="81.585"/>
	
		<line style="fill:none;stroke:#000000;stroke-linecap:round;stroke-linejoin:round;stroke-miterlimit:10;" x1="32.179" y1="61.222" x2="48.255" y2="77.298"/>
	
		<line style="fill:none;stroke:#000000;stroke-linecap:round;stroke-linejoin:round;stroke-miterlimit:10;" x1="36.466" y1="56.399" x2="52.543" y2="72.475"/>
	
		<line style="fill:none;stroke:#000000;stroke-linecap:round;stroke-linejoin:round;stroke-miterlimit:10;" x1="41.289" y1="52.112" x2="57.365" y2="68.188"/>
	
		<line style="fill:none;stroke:#000000;stroke-linecap:round;stroke-linejoin:round;stroke-miterlimit:10;" x1="45.576" y1="47.825" x2="61.653" y2="63.901"/>
	
		<line style="fill:none;stroke:#000000;stroke-linecap:round;stroke-linejoin:round;stroke-miterlimit:10;" x1="49.863" y1="43.002" x2="65.94" y2="59.078"/>
	
		<line style="fill:none;stroke:#000000;stroke-linecap:round;stroke-linejoin:round;stroke-miterlimit:10;" x1="54.15" y1="39.251" x2="70.227" y2="55.327"/>
	
		<line style="fill:none;stroke:#000000;stroke-linecap:round;stroke-linejoin:round;stroke-miterlimit:10;" x1="58.437" y1="34.964" x2="74.514" y2="51.04"/>
	
		<line style="fill:none;stroke:#000000;stroke-linecap:round;stroke-linejoin:round;stroke-miterlimit:10;" x1="62.724" y1="30.141" x2="78.801" y2="46.217"/>
	
		<line style="fill:none;stroke:#000000;stroke-linecap:round;stroke-linejoin:round;stroke-miterlimit:10;" x1="67.011" y1="25.854" x2="83.088" y2="41.93"/>
</g>
</svg>