<?xml version="1.0" encoding="iso-8859-1"?>
<!-- Generator: Adobe Illustrator 24.1.2, SVG Export Plug-In . SVG Version: 6.00 Build 0)  -->
<svg version="1.1" baseProfile="basic" id="&#x421;&#x43B;&#x43E;&#x439;_1"
	 xmlns="http://www.w3.org/2000/svg" xmlns:xlink="http://www.w3.org/1999/xlink" x="0px" y="0px" viewBox="0 0 48 48"
	 xml:space="preserve">
<path marker-end="none" marker-start="none" style="fill-rule:evenodd;clip-rule:evenodd;" d="M11.001,48c-1.101,0-4-0.227-4-0.493
	c0-0.28,2.899-0.507,4-0.507l0.355,0.427L11.001,48z"/>
<path marker-end="none" marker-start="none" style="fill-rule:evenodd;clip-rule:evenodd;" d="M37.001,48c1.101,0,4-0.227,4-0.493
	c0-0.28-2.899-0.507-4-0.507l-0.301,0.48L37.001,48z"/>
<path marker-end="none" marker-start="none" style="fill-rule:evenodd;clip-rule:evenodd;" d="M10.995,48V28.013
	c0-1.107,0.903-2.013,2.012-2.013h9.993v-3.987c0-0.56,0.448-1,1-1c0.551,0,1,0.44,1,1V26h9.989c1.109,0,2.012,0.907,2.012,2.013V48
	H10.995z M33.002,47V28.013c0-0.56-0.456-1.013-1.012-1.013H18.001c0,2.4,1,2.76,1,4.32c0,0.933-0.895,1.68-2,1.68
	c-1.104,0-2-0.747-2-1.68c0-1.56,1-1.92,1-4.32h-1.993c-0.557,0-1.012,0.453-1.012,1.013V47H33.002z M16.001,16.12
	c0-4.653,6-6.653,6-13.12c3.352,1.853,6,4.653,6,10c0.795-0.853,1.104-1.987,1.336-3.12c1.365,2.013,2.664,3.733,2.664,6.24
	c0,3.253-3.179,5.76-6,6.88c1.192-1.16,2-2.44,2-4c0-2.653-2-3.92-2-8c-2.256,1.96-4,5.387-4,8c-0.72-0.893-0.699-2.453-0.667-3.747
	c-0.739,1.173-1.333,2.427-1.333,3.747c0,1.4,0.576,2.8,2,4C19.051,22.28,16.001,19.32,16.001,16.12z"/>
</svg>