<?xml version="1.0" encoding="iso-8859-1"?>
<!-- Generator: Adobe Illustrator 23.0.6, SVG Export Plug-In . SVG Version: 6.00 Build 0)  -->
<svg version="1.1" id="&#x421;&#x43B;&#x43E;&#x439;_1"
	 xmlns="http://www.w3.org/2000/svg" xmlns:xlink="http://www.w3.org/1999/xlink" x="0px" y="0px" viewBox="0 0 80 80"
	 style="enable-background:new 0 0 80 80;" xml:space="preserve">
<path style="fill:none;stroke:#000000;stroke-width:1.962;stroke-linecap:round;stroke-linejoin:round;stroke-miterlimit:10;" d="
	M39.717,61.169C37.336,57.839,26.238,55,26.238,55s-0.77,11.599,1.611,14.928c2.381,3.329,6.968,4.068,10.245,1.649
	C41.372,69.158,42.098,64.498,39.717,61.169z"/>
<path style="fill:none;stroke:#000000;stroke-width:1.962;stroke-linecap:round;stroke-linejoin:round;stroke-miterlimit:10;" d="
	M33.119,42.272c0,4.017-7,12.728-7,12.728s-7-8.711-7-12.728S22.252,35,26.117,35S33.119,38.257,33.119,42.272z"/>
<path style="fill:none;stroke:#000000;stroke-width:1.962;stroke-linecap:round;stroke-linejoin:round;stroke-miterlimit:10;" d="
	M36.783,44.348c-3.745,1.205-9.664,10.534-9.664,10.534s10.326,4.103,14.071,2.896c3.745-1.205,5.795-5.188,4.578-8.897
	C44.551,45.172,40.528,43.142,36.783,44.348z"/>
<path style="fill:none;stroke:#000000;stroke-width:1.962;stroke-linecap:round;stroke-linejoin:round;stroke-miterlimit:10;" d="
	M15.7,44.348c3.844,1.205,9.918,10.534,9.918,10.534s-10.597,4.103-14.441,2.896c-3.844-1.205-5.947-5.188-4.698-8.897
	S11.856,43.142,15.7,44.348z"/>
<path style="fill:none;stroke:#000000;stroke-width:1.962;stroke-linecap:round;stroke-linejoin:round;stroke-miterlimit:10;" d="
	M11.613,61.169C14.153,57.839,25.992,55,25.992,55s0.821,11.599-1.719,14.928c-2.54,3.329-7.433,4.068-10.928,1.649
	C9.849,69.16,9.073,64.498,11.613,61.169z"/>
<path style="fill:none;stroke:#000000;stroke-width:2;stroke-linecap:round;stroke-linejoin:round;stroke-miterlimit:10;" d="
	M60.119,37h-15c-1.657,0-3-1.343-3-3v-1c0-1.657,1.343-3,3-3h15c1.657,0,3,1.343,3,3v1C63.119,35.657,61.776,37,60.119,37z"/>
<path style="fill:none;stroke:#000000;stroke-width:2;stroke-linecap:round;stroke-linejoin:round;stroke-miterlimit:10;" d="
	M60.119,37c0,1.544,0,3.088,0,4.632c0,1.86,1.508,3.368,3.368,3.368c4.215,0,7.632,3.417,7.632,7.632v11.736
	c0,4.215-3.417,7.632-7.632,7.632c-6.789,0-13.579,0-20.368,0"/>
<path style="fill:none;stroke:#000000;stroke-width:2;stroke-linecap:round;stroke-linejoin:round;stroke-miterlimit:10;" d="
	M52.119,37c0,9,0,18,0,27"/>
<path style="fill:none;stroke:#000000;stroke-width:2;stroke-linecap:round;stroke-linejoin:round;stroke-miterlimit:10;" d="
	M52.119,15c0,5,0,10,0,15"/>
<path d="M51.12,12c0-0.55,0.449-1,1-1l0,0c0.55,0,1,0.45,1,1l0,0l0,0l0,0c0,0.55-0.45,1-1,1l0,0C51.569,13,51.12,12.55,51.12,12z
	 M51.12,8c0-0.55,0.449-1,1-1l0,0c0.55,0,1,0.45,1,1l0,0l0,0l0,0c0,0.55-0.45,1-1,1l0,0C51.569,9,51.12,8.55,51.12,8z M51.12,4
	c0-0.55,0.449-1,1-1l0,0c0.55,0,1,0.45,1,1l0,0l0,0l0,0c0,0.55-0.45,1-1,1l0,0C51.569,5,51.12,4.55,51.12,4z"/>
<path style="fill:none;stroke:#000000;stroke-width:2;stroke-linecap:round;stroke-linejoin:round;stroke-miterlimit:10;" d="
	M53.803,37c-1.895,9-3.789,18-5.684,27"/>
<path style="fill:none;stroke:#000000;stroke-width:2;stroke-linecap:round;stroke-linejoin:round;stroke-miterlimit:10;" d="
	M58.435,15c-1.053,5-2.105,10-3.158,15"/>
<path d="M58.26,15.81c-0.54-0.12-0.88-0.649-0.77-1.189l0,0c0.119-0.54,0.649-0.88,1.189-0.771l0,0
	c0.54,0.11,0.88,0.641,0.771,1.181l0,0c-0.101,0.479-0.521,0.8-0.98,0.8l0,0C58.399,15.83,58.33,15.819,58.26,15.81z M59.09,11.89
	c-0.54-0.109-0.89-0.64-0.771-1.18l0,0c0.11-0.54,0.641-0.891,1.181-0.771l0,0c0.54,0.11,0.89,0.641,0.77,1.181l0,0
	c-0.1,0.47-0.51,0.8-0.97,0.8l0,0C59.229,11.92,59.16,11.91,59.09,11.89z M59.91,7.979C59.37,7.87,59.02,7.33,59.14,6.79l0,0
	c0.11-0.54,0.641-0.88,1.18-0.771l0,0C60.87,6.13,61.21,6.66,61.1,7.21l0,0C61,7.68,60.58,8,60.12,8l0,0
	C60.05,8,59.979,7.99,59.91,7.979z"/>
<path style="fill:none;stroke:#000000;stroke-width:2;stroke-linecap:round;stroke-linejoin:round;stroke-miterlimit:10;" d="
	M50.435,37c1.895,9,3.789,18,5.684,27"/>
<path style="fill:none;stroke:#000000;stroke-width:2;stroke-linecap:round;stroke-linejoin:round;stroke-miterlimit:10;" d="
	M45.803,15c1.053,5,2.105,10,3.158,15"/>
<path d="M44.79,15.03L44.79,15.03c-0.12-0.54,0.229-1.07,0.77-1.181l0,0c0.54-0.109,1.07,0.23,1.19,0.771l0,0
	c0.109,0.54-0.24,1.069-0.78,1.189l0,0c-0.07,0.01-0.14,0.021-0.2,0.021l0,0C45.3,15.83,44.89,15.51,44.79,15.03z M43.96,11.12
	c-0.11-0.54,0.229-1.07,0.78-1.181l0,0c0.529-0.12,1.069,0.23,1.18,0.771l0,0c0.11,0.54-0.23,1.07-0.771,1.18l0,0
	c-0.069,0.021-0.14,0.021-0.21,0.021l0,0C44.479,11.91,44.06,11.59,43.96,11.12z M43.14,7.2v0.01c-0.109-0.54,0.23-1.08,0.771-1.19
	l0,0C44.45,5.91,44.979,6.25,45.1,6.79l0,0c0,0,0,0,0,0.01l0,0c0.11,0.54-0.24,1.07-0.78,1.18l0,0C44.26,7.99,44.189,8,44.12,8l0,0
	C43.649,8,43.24,7.68,43.14,7.2z"/>
<path d="M25.119,49c0-0.55,0.45-1,1-1l0,0c0.55,0,1,0.45,1,1l0,0l0,0l0,0c0,0.55-0.45,1-1,1l0,0C25.569,50,25.119,49.55,25.119,49z"
	/>
<path d="M25.119,45c0-0.55,0.45-1,1-1l0,0c0.55,0,1,0.45,1,1l0,0l0,0l0,0c0,0.55-0.45,1-1,1l0,0C25.569,46,25.119,45.55,25.119,45z"
	/>
<path d="M25.119,41c0-0.55,0.45-1,1-1l0,0c0.55,0,1,0.45,1,1l0,0l0,0l0,0c0,0.55-0.45,1-1,1l0,0C25.569,42,25.119,41.55,25.119,41z"
	/>
<path d="M31.008,53.17c-0.16-0.53,0.15-1.08,0.68-1.23l0,0c0.53-0.149,1.091,0.15,1.24,0.69l0,0c0.15,0.53-0.16,1.08-0.689,1.229
	l0,0c-0.09,0.03-0.181,0.04-0.28,0.04l0,0C31.529,53.899,31.129,53.609,31.008,53.17z"/>
<path d="M34.848,52.08c-0.149-0.54,0.16-1.09,0.69-1.24l0,0c0.53-0.15,1.08,0.15,1.229,0.69l0,0c0.15,0.529-0.149,1.079-0.68,1.229
	l0,0c-0.1,0.03-0.189,0.04-0.28,0.04l0,0C35.379,52.8,34.968,52.52,34.848,52.08z"/>
<path d="M38.699,50.979c-0.16-0.529,0.149-1.09,0.68-1.239l0,0l0,0l0,0c0.54-0.15,1.09,0.159,1.24,0.689l0,0
	c0.149,0.53-0.16,1.08-0.69,1.23l0,0c-0.09,0.029-0.18,0.04-0.27,0.04l0,0C39.218,51.7,38.819,51.42,38.699,50.979z"/>
<path d="M32.718,66.66c-0.3-0.471-0.16-1.091,0.311-1.38l0,0c0.46-0.301,1.08-0.16,1.38,0.31l0,0c0,0,0,0,0-0.01l0,0
	c0.29,0.47,0.149,1.09-0.311,1.39l0,0c-0.17,0.1-0.35,0.15-0.54,0.15l0,0C33.228,67.12,32.909,66.96,32.718,66.66z"/>
<path d="M30.569,63.29c-0.301-0.471-0.16-1.09,0.31-1.38l0,0c0.46-0.301,1.08-0.17,1.38,0.3l0,0c0.3,0.47,0.16,1.09-0.31,1.38l0,0
	c-0.16,0.11-0.351,0.16-0.54,0.16l0,0C31.079,63.75,30.758,63.59,30.569,63.29z"/>
<path d="M28.419,59.91L28.419,59.91c-0.29-0.471-0.16-1.08,0.31-1.38l0,0c0.471-0.301,1.08-0.16,1.381,0.31l0,0
	c0.29,0.46,0.159,1.08-0.301,1.38l0,0c-0.17,0.1-0.359,0.15-0.54,0.15l0,0C28.938,60.37,28.609,60.21,28.419,59.91z"/>
<path d="M17.669,66.649c-0.46-0.319-0.57-0.939-0.25-1.39l0,0c0.31-0.46,0.94-0.57,1.39-0.25l0,0c0.45,0.32,0.561,0.94,0.25,1.39
	l0,0c-0.199,0.28-0.51,0.431-0.819,0.431l0,0C18.039,66.83,17.838,66.77,17.669,66.649z"/>
<path d="M19.959,63.37c-0.46-0.311-0.57-0.94-0.25-1.391l0,0c0.32-0.449,0.94-0.56,1.39-0.25l0,0c0.46,0.32,0.57,0.94,0.25,1.4l0,0
	l0,0l0,0c-0.189,0.28-0.5,0.42-0.819,0.42l0,0C20.329,63.55,20.129,63.5,19.959,63.37z"/>
<path d="M22.249,60.1c-0.45-0.319-0.561-0.95-0.24-1.399l0,0c0.311-0.45,0.94-0.561,1.391-0.24l0,0c0.449,0.31,0.56,0.939,0.25,1.39
	l0,0c-0.2,0.28-0.511,0.431-0.83,0.431l0,0C22.629,60.28,22.428,60.22,22.249,60.1z"/>
<path d="M20.388,54.479c-0.52-0.18-0.8-0.739-0.63-1.27l0,0c0.17-0.521,0.74-0.8,1.26-0.63l0,0c0.53,0.17,0.811,0.739,0.641,1.27
	l0,0c-0.141,0.42-0.53,0.681-0.95,0.681l0,0C20.598,54.53,20.499,54.51,20.388,54.479z"/>
<path d="M16.598,53.21L16.598,53.21c-0.529-0.17-0.81-0.74-0.64-1.26l0,0c0.18-0.53,0.75-0.811,1.27-0.631l0,0
	c0.521,0.171,0.811,0.74,0.631,1.261l0,0c-0.141,0.42-0.53,0.68-0.95,0.68l0,0C16.808,53.26,16.699,53.25,16.598,53.21z"/>
<path d="M12.798,51.95h0.01c-0.529-0.181-0.81-0.74-0.64-1.271l0,0c0.18-0.52,0.74-0.8,1.27-0.63l0,0l0,0l0,0
	c0.521,0.17,0.801,0.74,0.631,1.27l0,0c-0.141,0.41-0.53,0.681-0.95,0.681l0,0C13.018,52,12.909,51.979,12.798,51.95z"/>
<path d="M69.12,53c0-0.55,0.439-1,1-1l0,0l0,0l0,0c0.55,0,1,0.45,1,1l0,0c0,0.55-0.45,1-1,1l0,0C69.56,54,69.12,53.55,69.12,53z
	 M65.12,53c0-0.55,0.449-1,1-1l0,0l0,0l0,0c0.55,0,1,0.45,1,1l0,0c0,0.55-0.45,1-1,1l0,0C65.569,54,65.12,53.55,65.12,53z M61.12,53
	c0-0.55,0.449-1,1-1l0,0l0,0l0,0c0.55,0,1,0.45,1,1l0,0c0,0.55-0.45,1-1,1l0,0C61.569,54,61.12,53.55,61.12,53z M57.12,53
	c0-0.55,0.439-1,1-1l0,0l0,0l0,0c0.55,0,1,0.45,1,1l0,0c0,0.55-0.45,1-1,1l0,0C57.56,54,57.12,53.55,57.12,53z M53.12,53
	c0-0.55,0.449-1,1-1l0,0l0,0l0,0c0.55,0,1,0.45,1,1l0,0c0,0.55-0.45,1-1,1l0,0C53.569,54,53.12,53.55,53.12,53z"/>
</svg>