<?xml version="1.0" encoding="iso-8859-1"?><!-- Generator: Adobe Illustrator 19.2.1, SVG Export Plug-In . SVG Version: 6.00 Build 0)  --><svg xmlns="http://www.w3.org/2000/svg" xmlns:xlink="http://www.w3.org/1999/xlink" viewBox="0 0 50 50" width="500px" height="500px"><path style="fill:none;stroke:#000000;stroke-width:2;stroke-linecap:round;stroke-linejoin:round;stroke-miterlimit:10;" d="M21,28H7c0,0,0,1.543,0,3c0,7.069,2,16,2,16h10c0,0,2-8.931,2-16C21,30.052,21,28,21,28z"/><path style="fill:none;stroke:#000000;stroke-width:2;stroke-linecap:round;stroke-linejoin:round;stroke-miterlimit:10;" d="M43,19H29c0,0,0,4.682,0,7c0,9.204,2,21,2,21h10c0,0,2-11.099,2-21C43,24.395,43,19,43,19z"/><polyline style="fill:none;stroke:#000000;stroke-width:2;stroke-linecap:round;stroke-miterlimit:10;" points="32,19 32,14 40,14 40,19 "/><line style="fill:none;stroke:#000000;stroke-width:2;stroke-miterlimit:10;" x1="14" y1="26" x2="14" y2="10"/><path style="fill:none;stroke:#000000;stroke-width:2;stroke-linecap:round;stroke-miterlimit:10;" d="M16,5.5c0,1.933-0.895,4.5-2,4.5s-2-2.567-2-4.5S12.895,3,14,3S16,3.567,16,5.5z"/><line style="fill:none;stroke:#000000;stroke-width:2;stroke-linecap:round;stroke-linejoin:round;stroke-miterlimit:10;" x1="29" y1="25" x2="43" y2="25"/><line style="fill:none;stroke:#000000;stroke-width:2;stroke-linecap:round;stroke-linejoin:round;stroke-miterlimit:10;" x1="29.326" y1="29.016" x2="42.674" y2="28.984"/></svg>