<?xml version="1.0" encoding="iso-8859-1"?>
<!-- Generator: Adobe Illustrator 24.0.3, SVG Export Plug-In . SVG Version: 6.00 Build 0)  -->
<svg version="1.1" id="Layer_1" xmlns="http://www.w3.org/2000/svg" xmlns:xlink="http://www.w3.org/1999/xlink" x="0px" y="0px"
	 viewBox="0 0 100 100" style="enable-background:new 0 0 100 100;" xml:space="preserve">
<g>
	<path style="fill:none;stroke:#1F212B;stroke-width:2;stroke-linecap:round;stroke-linejoin:round;stroke-miterlimit:10;" d="
		M70,34h-9v-9c0-0.915-1.067-2-2-2h-3V11.5c0-0.915-0.567-1.5-1.5-1.5H39v6h5v7h-3c-0.933,0-2,1.085-2,2v9h-9
		c-0.933,0-2,1.091-2,2.007v30.987C28,82.841,35.815,91.704,37,93h26c1.18-1.262,9-9.944,9-26.007V36.007C72,35.091,70.933,34,70,34
		z"/>
	<path style="fill:none;stroke:#1F212B;stroke-linecap:round;stroke-miterlimit:10;" d="M32.5,53.5v13.562
		c0,11.012,4.192,18.235,6.561,21.438"/>
	<line style="fill:none;stroke:#1F212B;stroke-linecap:round;stroke-miterlimit:10;" x1="32.5" y1="47.5" x2="32.5" y2="50.5"/>
	<line style="fill:none;stroke:#1F212B;stroke-linecap:round;stroke-miterlimit:10;" x1="32.5" y1="42.5" x2="32.5" y2="44.5"/>
	<line style="fill:none;stroke:#1F212B;stroke-linecap:round;stroke-miterlimit:10;" x1="32.5" y1="38.493" x2="32.5" y2="39.5"/>
	
		<line style="fill:none;stroke:#1F212B;stroke-linecap:round;stroke-linejoin:round;stroke-miterlimit:10;" x1="44" y1="23.5" x2="56" y2="23.5"/>
	
		<line style="fill:none;stroke:#1F212B;stroke-linecap:round;stroke-linejoin:round;stroke-miterlimit:10;" x1="38.5" y1="34.5" x2="61" y2="34.5"/>
</g>
</svg>