<?xml version="1.0" encoding="iso-8859-1"?>
<!-- Generator: Adobe Illustrator 29.2.1, SVG Export Plug-In . SVG Version: 9.03 Build 55982)  -->
<svg version="1.1" baseProfile="basic" id="&#x421;&#x43B;&#x43E;&#x439;_1"
	 xmlns="http://www.w3.org/2000/svg" xmlns:xlink="http://www.w3.org/1999/xlink" x="0px" y="0px" viewBox="0 0 24 24"
	 xml:space="preserve">
<path style="fill:none;stroke:#000000;stroke-width:2;stroke-linecap:round;stroke-linejoin:round;stroke-miterlimit:10;" d="M8,18
	V9h8v9c0,2.209-1.791,4-4,4h0C9.791,22,8,20.209,8,18z"/>
<path style="fill:none;stroke:#000000;stroke-width:2;stroke-linecap:round;stroke-linejoin:round;stroke-miterlimit:10;" d="M5,22
	v-3.792C5,15.879,5.925,13.647,7.571,12l0,0"/>
<path style="fill:none;stroke:#000000;stroke-width:2;stroke-linecap:round;stroke-linejoin:round;stroke-miterlimit:10;" d="M19,22
	v-3.792c0-2.329-0.925-4.562-2.571-6.208l0,0"/>
<polygon style="fill:none;stroke:#000000;stroke-width:2;stroke-linecap:round;stroke-linejoin:round;stroke-miterlimit:10;" points="
	14,5 10,5 10,1 12,1 14,1 "/>
<g>
	<path d="M13,16h-2c-0.321,0-0.623-0.154-0.811-0.416c-0.188-0.261-0.239-0.596-0.138-0.901L11,11.838V5c0-0.552,0.448-1,1-1
		s1,0.448,1,1v6.838l0.949,2.846c0.102,0.305,0.05,0.64-0.138,0.901C13.623,15.846,13.321,16,13,16z"/>
</g>
</svg>