<?xml version="1.0" encoding="iso-8859-1"?>
<!-- Generator: Adobe Illustrator 24.0.2, SVG Export Plug-In . SVG Version: 6.00 Build 0)  -->
<svg version="1.1" id="&#x421;&#x43B;&#x43E;&#x439;_2"
	 xmlns="http://www.w3.org/2000/svg" xmlns:xlink="http://www.w3.org/1999/xlink" x="0px" y="0px" viewBox="0 0 80 80"
	 style="enable-background:new 0 0 80 80;" xml:space="preserve">
<line style="fill:none;stroke:#000000;stroke-width:2;stroke-linecap:round;stroke-linejoin:round;stroke-miterlimit:10;stroke-dasharray:0,4;" x1="48" y1="29" x2="34" y2="29"/>
<path style="fill:none;stroke:#000000;stroke-width:2;stroke-linecap:round;stroke-linejoin:round;stroke-miterlimit:10;" d="M32,29
	c-2,0-4,0-6,0c0,0,0,24.681,0,30.1c0,8.49,5.6,12.9,5.6,12.9h16.8c0,0,5.6-4.41,5.6-12.9c0-5.419,0-30.1,0-30.1c-2,0-4,0-6,0"/>
<polyline style="fill:none;stroke:#000000;stroke-width:2;stroke-linecap:round;stroke-linejoin:round;stroke-miterlimit:10;" points="
	31,29 31,19 49,19 49,29 "/>
<path style="fill:none;stroke:#000000;stroke-width:2;stroke-linecap:round;stroke-linejoin:round;stroke-miterlimit:10;" d="M45,15
	c0-2,0-4,0-6c-3.447-1.678-7.483-2.914-12-3c-0.337-0.006-0.67-0.006-1,0c0,0.667,0,1.333,0,2c1,1,2,2,3,3c0,1.333,0,2.667,0,4
	c-0.333,0-0.667,0-1,0c0,1.333,0,2.667,0,4c4,0,8,0,12,0c0-1.333,0-2.667,0-4C45.667,15,45.333,15,45,15z"/>
<path style="fill:none;stroke:#000000;stroke-width:2;stroke-linecap:round;stroke-linejoin:round;stroke-miterlimit:10;stroke-dasharray:0,4;" d="
	M26,44c9,0,18,0,27,0"/>
</svg>