<?xml version="1.0" encoding="utf-8"?><!-- Generator: Adobe Illustrator 17.0.0, SVG Export Plug-In . SVG Version: 6.00 Build 0)  --><!DOCTYPE svg PUBLIC "-//W3C//DTD SVG 1.1//EN" "http://www.w3.org/Graphics/SVG/1.1/DTD/svg11.dtd"><svg xmlns="http://www.w3.org/2000/svg" xmlns:xlink="http://www.w3.org/1999/xlink" viewBox="0 0 50 50" width="500px" height="500px"><path fill="none" stroke="#000000" stroke-width="2" stroke-linecap="round" stroke-miterlimit="10" d="M37.541,34c-0.972,0-19.977-0.019-21.545-0.019c-2.419,0-3.996-2.199-3.996-5.519c0-2.88,3.01-3.397,9-3.397c5.919,0,19,2.658,19,5.243C40,31.858,39.406,34,37.541,34z"/><path fill="none" stroke="#000000" stroke-width="2" stroke-linecap="round" stroke-miterlimit="10" d="M40.083,30.542c0.335-0.981,7.993-22.972,8.542-24.551C49.399,3.765,49.106,1,46,1c-3.375,0-6.332,2.556-8.144,9.638c-1.102,4.308-2.292,12.398-1.324,16.73"/><line fill="none" stroke="#000000" stroke-width="2" stroke-linecap="round" stroke-miterlimit="10" x1="27" y1="34" x2="27" y2="45"/><line fill="none" stroke="#000000" stroke-width="2" stroke-linecap="round" stroke-miterlimit="10" x1="31" y1="45" x2="31" y2="34"/><path fill="none" stroke="#000000" stroke-width="2" stroke-linecap="round" stroke-miterlimit="10" d="M40,49H18c0-2,5.24-4,11-4S40,47,40,49z"/><path fill="none" stroke="#000000" stroke-width="2" stroke-linecap="round" stroke-miterlimit="10" d="M20,24c0-6,4.452-7,9-7c4.942,0,7,0,7,0"/><path fill="none" stroke="#000000" stroke-width="2" stroke-linecap="round" stroke-miterlimit="10" d="M1,45h5c3,0,11-0.914,11-11.002"/></svg>