<?xml version="1.0" encoding="iso-8859-1"?>
<!-- Generator: Adobe Illustrator 24.0.2, SVG Export Plug-In . SVG Version: 6.00 Build 0)  -->
<svg version="1.1" id="&#x421;&#x43B;&#x43E;&#x439;_2"
	 xmlns="http://www.w3.org/2000/svg" xmlns:xlink="http://www.w3.org/1999/xlink" x="0px" y="0px" viewBox="0 0 80 80"
	 style="enable-background:new 0 0 80 80;" xml:space="preserve">
<path style="fill:none;stroke:#000000;stroke-width:2;stroke-miterlimit:10;" d="M52.897,23c0-5.7-7.881-7.5-7.881-7.5
	c0-2.1,1.636-3,3.272-3h2.825c0.297,0,0.595-0.15,0.595-0.45l0.892-3C52.748,8.45,52.45,8,51.856,8h-6.394
	c-10.409,0-16.358,6.9-16.358,15"/>
<path style="fill:none;stroke:#000000;stroke-width:2;stroke-linecap:round;stroke-miterlimit:10;" d="M51,23c1.167,0,2.333,0,3.5,0
	c0.75,0,1.5,0.594,1.5,1.485V69.03c0,1.633-1.65,2.97-3.6,2.97H29.6c-1.95,0-3.6-1.336-3.6-2.97V24.485C26,23.594,26.6,23,27.5,23
	c1.167,0,2.333,0,3.5,0"/>
<path style="fill:none;stroke:#000000;stroke-width:2;stroke-linecap:round;stroke-linejoin:round;stroke-miterlimit:10;stroke-dasharray:0,4;" d="
	M31,23c6.333,0,12.667,0,19,0"/>
<path style="fill:none;stroke:#000000;stroke-width:2;stroke-linecap:round;stroke-linejoin:round;stroke-miterlimit:10;stroke-dasharray:0,4;" d="
	M27,48c9.333,0,18.667,0,28,0"/>
</svg>