<?xml version="1.0" encoding="iso-8859-1"?><!-- Generator: Adobe Illustrator 21.1.0, SVG Export Plug-In . SVG Version: 6.00 Build 0)  --><svg xmlns="http://www.w3.org/2000/svg" xmlns:xlink="http://www.w3.org/1999/xlink" viewBox="0 0 50 50" width="500px" height="500px"><path d="M41.2,4H8.8C6.15,4,4,6.15,4,8.8v32.4C4,43.85,6.15,46,8.8,46h32.4c2.65,0,4.8-2.15,4.8-4.8V8.8C46,6.15,43.85,4,41.2,4z M33.5,10c3.59,0,6.5,2.91,6.5,6.5c0,3.59-2.91,6.5-6.5,6.5S27,20.09,27,16.5C27,12.91,29.91,10,33.5,10z M22.06,13.13l-8.93,8.93c-0.89-0.54-1.65-1.3-2.18-2.19l8.92-8.93C20.76,11.48,21.52,12.24,22.06,13.13z M16.5,10c0.66,0,1.3,0.1,1.91,0.28l-8.13,8.12C10.1,17.8,10,17.16,10,16.5C10,12.91,12.91,10,16.5,10z M16.5,40c-3.59,0-6.5-2.91-6.5-6.5c0-3.59,2.91-6.5,6.5-6.5s6.5,2.91,6.5,6.5C23,37.09,20.09,40,16.5,40z M16.5,23c-0.66,0-1.3-0.1-1.91-0.28l8.13-8.13C22.9,15.2,23,15.84,23,16.5C23,20.09,20.09,23,16.5,23z M27,33.5c0-3.59,2.91-6.5,6.5-6.5c0.66,0,1.3,0.1,1.91,0.28l-8.13,8.13C27.1,34.8,27,34.16,27,33.5z M27.94,36.87l8.93-8.93c0.89,0.54,1.65,1.3,2.19,2.19l-8.93,8.93C29.24,38.52,28.48,37.76,27.94,36.87z M33.5,40c-0.66,0-1.3-0.1-1.91-0.28l8.13-8.13C39.9,32.2,40,32.84,40,33.5C40,37.09,37.09,40,33.5,40z"/></svg>