<?xml version="1.0" encoding="iso-8859-1"?><!-- Generator: Adobe Illustrator 21.1.0, SVG Export Plug-In . SVG Version: 6.00 Build 0)  --><svg xmlns="http://www.w3.org/2000/svg" xmlns:xlink="http://www.w3.org/1999/xlink" viewBox="0 0 50 50" width="500px" height="500px"><path style="fill:none;stroke:#000000;stroke-width:2;stroke-miterlimit:10;" d="M41.2,5H8.8C6.701,5,5,6.701,5,8.8v32.4C5,43.299,6.701,45,8.8,45h32.4c2.099,0,3.8-1.701,3.8-3.8V8.8C45,6.701,43.299,5,41.2,5z"/><line style="fill:none;stroke:#000000;stroke-width:1.5;stroke-miterlimit:10;" x1="22.406" y1="13.844" x2="13.844" y2="22.406"/><line style="fill:none;stroke:#000000;stroke-width:1.5;stroke-miterlimit:10;" x1="19.156" y1="10.594" x2="10.594" y2="19.156"/><line style="fill:none;stroke:#000000;stroke-width:1.5;stroke-miterlimit:10;" x1="39.406" y1="30.844" x2="30.844" y2="39.406"/><line style="fill:none;stroke:#000000;stroke-width:1.5;stroke-miterlimit:10;" x1="36.156" y1="27.594" x2="27.594" y2="36.156"/><circle style="fill:none;stroke:#000000;stroke-width:2;stroke-miterlimit:10;" cx="33.5" cy="16.5" r="6.5"/><circle style="fill:none;stroke:#000000;stroke-width:2;stroke-miterlimit:10;" cx="33.5" cy="33.5" r="6.5"/><circle style="fill:none;stroke:#000000;stroke-width:2;stroke-miterlimit:10;" cx="16.5" cy="33.5" r="6.5"/><circle style="fill:none;stroke:#000000;stroke-width:2;stroke-miterlimit:10;" cx="16.5" cy="16.5" r="6.5"/></svg>