<?xml version="1.0" encoding="iso-8859-1"?><!-- Generator: Adobe Illustrator 19.1.1, SVG Export Plug-In . SVG Version: 6.00 Build 0)  --><svg xmlns="http://www.w3.org/2000/svg" xmlns:xlink="http://www.w3.org/1999/xlink" viewBox="0 0 50 50" width="500px" height="500px"><g><ellipse cx="25.013" cy="16" rx="1.013" ry="1"/><ellipse cx="29.013" cy="16" rx="1.013" ry="1"/><ellipse cx="20.987" cy="16" rx="1.013" ry="1"/></g><g><ellipse cx="25.013" cy="20" rx="1.013" ry="1"/><ellipse cx="29.013" cy="20" rx="1.013" ry="1"/><ellipse cx="20.987" cy="20" rx="1.013" ry="1"/></g><g><ellipse cx="25.013" cy="24" rx="1.013" ry="1"/><ellipse cx="29.013" cy="24" rx="1.013" ry="1"/><ellipse cx="20.987" cy="24" rx="1.013" ry="1"/></g><g><ellipse cx="25.013" cy="28" rx="1.013" ry="1"/><ellipse cx="29.013" cy="28" rx="1.013" ry="1"/><ellipse cx="20.987" cy="28" rx="1.013" ry="1"/></g><g><path style="fill:none;stroke:#000000;stroke-width:2;stroke-linecap:round;stroke-linejoin:round;stroke-miterlimit:10;" d="M10,31V19c0-7.18,5.82-13,13-13h2"/></g><path style="fill:none;stroke:#000000;stroke-width:2;stroke-linecap:round;stroke-linejoin:round;stroke-miterlimit:10;" d="M36.578,31.601c-1.814,0.228-3.334,1.353-4.279,2.918C30.953,36.749,27.884,38,25,38c-2.877,0-5.939-1.245-7.289-3.465c-0.947-1.557-2.455-2.693-4.264-2.915C7.983,30.952,3,30,3,30s1.968,12.961,11,15h22c9.032-2.039,11-15,11-15S41.906,30.931,36.578,31.601z"/><path style="fill:none;stroke:#000000;stroke-width:2;stroke-linecap:round;stroke-linejoin:round;stroke-miterlimit:10;" d="M19,12c0-3.408,2.134-6,6-6s6,2.657,6,6H19z"/></svg>