<?xml version="1.0" encoding="iso-8859-1"?>
<!-- Generator: Adobe Illustrator 27.0.0, SVG Export Plug-In . SVG Version: 6.00 Build 0)  -->
<svg version="1.1" baseProfile="basic" xmlns="http://www.w3.org/2000/svg" xmlns:xlink="http://www.w3.org/1999/xlink" x="0px"
	 y="0px" viewBox="0 0 64 64" xml:space="preserve">
<g id="Layer_1">
</g>
<g id="Layer_2">
</g>
<g id="Layer_3">
</g>
<g id="Layer_4">
	<path d="M52,22.56V29l-3,12v15h-4V41l3-12v-6.44c0-0.85-0.92-1.56-2-1.56s-2,0.71-2,1.56V26h1v4h-6v-4h1v-7.44
		c0-0.85-0.92-1.56-2-1.56s-2,0.71-2,1.56V25h1v4h-6v-4h1v-6.44c0-0.85-0.92-1.56-2-1.56s-2,0.71-2,1.56V25h1v4h-6v-4h1v-6.44
		c0-0.85-0.92-1.56-2-1.56s-2,0.71-2,1.56V25h1v4h-6v-4h1v-9.44c0-0.85-0.92-1.56-2-1.56s-2,0.71-2,1.56V35l3,12v9H7v-9L4,35V15.56
		C4,12.5,6.69,10,10,10h3.62v0.02C13.75,10.01,13.87,10,14,10c2.52,0,4.67,1.44,5.56,3.48C20.31,13.18,21.13,13,22,13
		c1.54,0,2.94,0.54,4,1.43c1.06-0.89,2.46-1.43,4-1.43s2.94,0.54,4,1.43c1.06-0.89,2.46-1.43,4-1.43c2.87,0,5.27,1.88,5.86,4.37
		C44.52,17.14,45.24,17,46,17C49.31,17,52,19.5,52,22.56z"/>
</g>
<g id="Layer_5">
</g>
<g id="Layer_6">
</g>
</svg>