<?xml version="1.0" encoding="iso-8859-1"?>
<!-- Generator: Adobe Illustrator 26.5.3, SVG Export Plug-In . SVG Version: 6.00 Build 0)  -->
<svg version="1.1" baseProfile="basic" id="Layer_1"
	 xmlns="http://www.w3.org/2000/svg" xmlns:xlink="http://www.w3.org/1999/xlink" x="0px" y="0px" viewBox="0 0 50 50"
	 xml:space="preserve">
<path style="fill:none;stroke:#000000;stroke-width:2;stroke-linecap:round;stroke-linejoin:round;stroke-miterlimit:10;" d="M9,36
	l4,4.593c0,4.418,5.373,8,12,8s12-3.582,12-8L41,36"/>
<path style="fill:none;stroke:#000000;stroke-width:2;stroke-miterlimit:10;" d="M17.087,17.481
	c2.409-0.737,5.089-1.148,7.913-1.148c10.493,0,19,5.671,19,12.667s-8.507,12.667-19,12.667S6,35.996,6,29
	c0-4.064,2.871-7.681,7.335-9.999"/>
<path style="fill:none;stroke:#000000;stroke-width:2;stroke-linecap:round;stroke-linejoin:round;stroke-miterlimit:10;" d="
	M19.344,32.084c-1.569,0.657-2.862,1.58-3.739,2.673c-0.798,0.995-1.25,2.133-1.25,3.34c0,0.537,0.117,1.054,0.288,1.556"/>
<path style="fill:none;stroke:#000000;stroke-width:2;stroke-linecap:round;stroke-linejoin:round;stroke-miterlimit:10;" d="
	M35.357,39.653c0.171-0.503,0.288-1.019,0.288-1.556c0-1.635-0.829-3.141-2.223-4.341c-0.226-0.194-0.466-0.381-0.72-0.558
	c-1.058-0.739-2.353-1.326-3.804-1.707"/>
<line style="fill:none;stroke:#000000;stroke-width:2;stroke-linecap:round;stroke-linejoin:round;stroke-miterlimit:10;" x1="25.334" y1="33.487" x2="23.273" y2="30.791"/>
<path style="fill:none;stroke:#000000;stroke-width:2;stroke-linecap:round;stroke-linejoin:round;stroke-miterlimit:10;" d="
	M19.125,20.273L4.893,3.069c-0.356-0.43-0.988-0.502-1.432-0.163C3.017,3.244,2.921,3.874,3.243,4.33l12.869,18.247
	c-1.411,2.078-1.414,4.906,0.195,7.012l1.215,1.589l9.533-7.288l-1.215-1.589C24.23,20.195,21.501,19.457,19.125,20.273z"/>
<rect x="19.414" y="26.814" transform="matrix(0.7945 -0.6073 0.6073 0.7945 -13.3923 21.0579)" style="fill:none;stroke:#000000;stroke-width:2;stroke-linecap:round;stroke-linejoin:round;stroke-miterlimit:10;" width="10" height="7"/>
</svg>