<?xml version="1.0" encoding="iso-8859-1"?>
<!-- Generator: Adobe Illustrator 24.0.3, SVG Export Plug-In . SVG Version: 6.00 Build 0)  -->
<svg version="1.1" id="Layer_1" xmlns="http://www.w3.org/2000/svg" xmlns:xlink="http://www.w3.org/1999/xlink" x="0px" y="0px"
	 viewBox="0 0 100 100" style="enable-background:new 0 0 100 100;" xml:space="preserve">
<g>
	<path style="fill:none;stroke:#000000;stroke-width:2;stroke-linecap:round;stroke-linejoin:round;stroke-miterlimit:10;" d="
		M41,47.682c-0.425-0.064-0.812-0.064-1.057-0.064c-2.122,0-5.305,0.83-8.96,1.661c-4.48,1.186-9.385,2.216-13.983,2.453l0,0"/>
	<path style="fill:none;stroke:#000000;stroke-width:2;stroke-linecap:round;stroke-linejoin:round;stroke-miterlimit:10;" d="
		M59.5,38.306l34.557-6.464C90.683,38.1,66.092,46.541,52.5,50.631"/>
	<path style="fill:none;stroke:#000000;stroke-width:2;stroke-linecap:round;stroke-linejoin:round;stroke-miterlimit:10;" d="
		M17,51.731h-1c-5.523,0-10-4.505-10-10.061s4.477-10.061,10-10.061s10,4.505,10,10.061c0,1.946-0.549,3.762-1.499,5.302
		c0,0,12.41-3.706,18.999-5.47"/>
	<path style="fill:none;stroke:#000000;stroke-linejoin:round;stroke-miterlimit:10;" d="M49.5,41.5c-1.105,0-2,0.895-2,2
		s0.895,2,2,2s2-0.895,2-2S50.605,41.5,49.5,41.5z"/>
	<path style="fill:none;stroke:#000000;stroke-width:2;stroke-linecap:round;stroke-linejoin:round;stroke-miterlimit:10;" d="
		M45.131,58.056c2.947-2.847,5.541-5.219,6.72-6.88L77.198,8c-10.021,2.491-34.543,35.11-34.897,35.584
		c-0.118,0.119-2.594,2.491,0.354,5.694c1.651,1.779-0.943,5.338-4.48,10.32c-3.655,5.1-7.703,10.943-8.175,16.28l0,0v1.006
		c0,5.557,4.477,10.061,10,10.061s10-4.505,10-10.061s-4.477-10.061-10-10.061c-0.855,0-1.686,0.108-2.478,0.311
		C37.522,67.134,42.097,60.924,45.131,58.056z"/>
	
		<ellipse style="fill:none;stroke:#000000;stroke-width:2;stroke-linecap:round;stroke-linejoin:round;stroke-miterlimit:10;" cx="40" cy="76.884" rx="5" ry="5.031"/>
	
		<ellipse style="fill:none;stroke:#000000;stroke-width:2;stroke-linecap:round;stroke-linejoin:round;stroke-miterlimit:10;" cx="16" cy="41.884" rx="5" ry="5.031"/>
	<path style="fill:none;stroke:#000000;stroke-width:2;stroke-linecap:round;stroke-linejoin:round;stroke-miterlimit:10;" d="
		M35,96c0,0-5-4.024-0.5-10.564"/>
</g>
</svg>