<?xml version="1.0" encoding="iso-8859-1"?>
<!-- Generator: Adobe Illustrator 24.3.0, SVG Export Plug-In . SVG Version: 6.00 Build 0)  -->
<svg version="1.1" xmlns="http://www.w3.org/2000/svg" xmlns:xlink="http://www.w3.org/1999/xlink" x="0px" y="0px"
	 viewBox="0 0 48 48" style="enable-background:new 0 0 48 48;" xml:space="preserve">
<g id="&#x421;&#x43B;&#x43E;&#x439;_1">
</g>
<g id="&#x421;&#x43B;&#x43E;&#x439;_2">
</g>
<g id="&#x421;&#x43B;&#x43E;&#x439;_3">
</g>
<g id="&#x421;&#x43B;&#x43E;&#x439;_4">
</g>
<g id="&#x421;&#x43B;&#x43E;&#x439;_5">
	<path style="fill:none;stroke:#000000;stroke-width:3;stroke-linecap:round;stroke-linejoin:round;stroke-miterlimit:10;" d="
		M32.059,28.168C35.361,30.629,37.5,34.565,37.5,39v5.5"/>
	<path style="fill:none;stroke:#000000;stroke-width:3;stroke-linecap:round;stroke-linejoin:round;stroke-miterlimit:10;" d="
		M10.5,44.5V39c0-4.507,2.209-8.498,5.603-10.95"/>
	<path style="fill:none;stroke:#000000;stroke-width:3;stroke-linecap:round;stroke-linejoin:round;stroke-miterlimit:10;" d="
		M25.5,43.5h-3c-3.314,0-6-2.686-6-6v-13c0-2.209,1.791-4,4-4h7c2.209,0,4,1.791,4,4v13C31.5,40.814,28.814,43.5,25.5,43.5z"/>
	<path style="fill:none;stroke:#000000;stroke-width:3;stroke-linecap:round;stroke-linejoin:round;stroke-miterlimit:10;" d="
		M27.5,13.5h-7v-8c0-1.105,0.895-2,2-2h3c1.105,0,2,0.895,2,2V13.5z"/>
	
		<line style="fill:none;stroke:#000000;stroke-width:3;stroke-linecap:round;stroke-linejoin:round;stroke-miterlimit:10;" x1="24" y1="13.5" x2="24" y2="25.5"/>
	<path d="M22.005,32H26c0.618,0,1.088-0.555,0.986-1.165L25.5,25.009h-3.003l-1.478,5.827C20.917,31.445,21.387,32,22.005,32z"/>
</g>
<g id="&#x421;&#x43B;&#x43E;&#x439;_6">
</g>
</svg>