<?xml version="1.0" encoding="iso-8859-1"?>
<!-- Generator: Adobe Illustrator 24.0.1, SVG Export Plug-In . SVG Version: 6.00 Build 0)  -->
<svg version="1.1" id="Layer_1" xmlns="http://www.w3.org/2000/svg" xmlns:xlink="http://www.w3.org/1999/xlink" x="0px" y="0px"
	 viewBox="0 0 32 32" style="enable-background:new 0 0 32 32;" xml:space="preserve">
<path d="M12.966,18c-0.552,0-1,0.448-1,1s0.448,1,1,1s1-0.448,1-1S13.518,18,12.966,18z M18.966,18c-0.552,0-1,0.448-1,1
	s0.448,1,1,1s1-0.448,1-1S19.518,18,18.966,18z"/>
<path style="fill:none;stroke:#000000;stroke-width:2;stroke-miterlimit:10;" d="M18.966,12c0,5.409-10,1.091-10,6
	c0,3.909,2.855,9,7,9s7-5.071,7-9"/>
<path d="M17,5h-3l-4,3.6L8,6.7C8,6.5,8,6.2,8,6c0-1.7-1.3-3-3-3S2,4.3,2,6s1.3,3,3,3c0.7,0,1.3-0.2,1.7-0.6L8.4,10l-1.7,1.5
	C6.2,11.2,5.6,11,5,11c-1.7,0-3,1.3-3,3s1.3,3,3,3s3-1.3,3-3c0-0.3,0-0.5-0.1-0.7L17,5z M5,7C4.4,7,4,6.6,4,6s0.4-1,1-1s1,0.4,1,1
	S5.6,7,5,7z M5,15c-0.6,0-1-0.4-1-1s0.4-1,1-1s1,0.4,1,1S5.6,15,5,15z"/>
<g>
	<path d="M5.462,18.955C5.307,18.969,5.159,19,5,19c-0.538,0-1.044-0.103-1.526-0.254C3.148,20.839,2.966,23.237,2.966,26v1H12.99
		v-2H4.974C5.011,22.709,5.182,20.709,5.462,18.955z"/>
	<path d="M19.817,7.03l-0.735-1.307L17.57,7.114L18.631,9h0.585c3.646,0,7.533,4.227,7.741,16h-7.914v2h9.923v-1
		C28.966,9.702,22.588,7.3,19.817,7.03z"/>
</g>
</svg>