<?xml version="1.0" encoding="iso-8859-1"?>
<!-- Generator: Adobe Illustrator 24.3.0, SVG Export Plug-In . SVG Version: 6.00 Build 0)  -->
<svg version="1.1" xmlns="http://www.w3.org/2000/svg" xmlns:xlink="http://www.w3.org/1999/xlink" x="0px" y="0px"
	 viewBox="0 0 48 48" style="enable-background:new 0 0 48 48;" xml:space="preserve">
<g id="&#x421;&#x43B;&#x43E;&#x439;_1">
</g>
<g id="&#x421;&#x43B;&#x43E;&#x439;_2">
</g>
<g id="&#x421;&#x43B;&#x43E;&#x439;_3">
</g>
<g id="&#x421;&#x43B;&#x43E;&#x439;_4">
</g>
<g id="&#x421;&#x43B;&#x43E;&#x439;_5">
</g>
<g id="&#x421;&#x43B;&#x43E;&#x439;_6">
	<path style="fill:none;stroke:#000000;stroke-width:3;stroke-linecap:round;stroke-linejoin:round;stroke-miterlimit:10;" d="
		M32.5,22.916V36c0,4.694-3.806,8.5-8.5,8.5h0c-4.694,0-8.5-3.806-8.5-8.5V22.916c0-0.931-0.217-1.85-0.633-2.683l-1.733-3.466
		c-0.417-0.833-0.633-1.752-0.633-2.683V5.5h23v8.584c0,0.931-0.217,1.85-0.633,2.683l-1.733,3.466
		C32.717,21.066,32.5,21.985,32.5,22.916z"/>
	
		<line style="fill:none;stroke:#000000;stroke-width:3;stroke-linecap:round;stroke-linejoin:round;stroke-miterlimit:10;" x1="13.5" y1="14.5" x2="34.5" y2="14.5"/>
	<path style="fill:none;stroke:#000000;stroke-width:3;stroke-linecap:round;stroke-linejoin:round;stroke-miterlimit:10;" d="
		M24,35.5L24,35.5c-1.933,0-3.5-1.567-3.5-3.5v-5.067c0-1.896,1.537-3.433,3.433-3.433h0.135c1.896,0,3.433,1.537,3.433,3.433V32
		C27.5,33.933,25.933,35.5,24,35.5z"/>
	<circle cx="24" cy="26" r="2"/>
	
		<line style="fill:none;stroke:#000000;stroke-width:3;stroke-linecap:round;stroke-linejoin:round;stroke-miterlimit:10;" x1="16.5" y1="2.5" x2="16.5" y2="7.5"/>
	
		<line style="fill:none;stroke:#000000;stroke-width:3;stroke-linecap:round;stroke-linejoin:round;stroke-miterlimit:10;" x1="21.5" y1="2.5" x2="21.5" y2="7.5"/>
	
		<line style="fill:none;stroke:#000000;stroke-width:3;stroke-linecap:round;stroke-linejoin:round;stroke-miterlimit:10;" x1="26.5" y1="2.5" x2="26.5" y2="7.5"/>
	
		<line style="fill:none;stroke:#000000;stroke-width:3;stroke-linecap:round;stroke-linejoin:round;stroke-miterlimit:10;" x1="31.5" y1="2.5" x2="31.5" y2="7.5"/>
</g>
</svg>