<?xml version="1.0" encoding="iso-8859-1"?>
<!-- Generator: Adobe Illustrator 24.1.2, SVG Export Plug-In . SVG Version: 6.00 Build 0)  -->
<svg version="1.1" baseProfile="basic" id="&#x421;&#x43B;&#x43E;&#x439;_1"
	 xmlns="http://www.w3.org/2000/svg" xmlns:xlink="http://www.w3.org/1999/xlink" x="0px" y="0px" viewBox="0 0 48 48"
	 xml:space="preserve">
<path marker-start="none" marker-end="none" style="fill-rule:evenodd;clip-rule:evenodd;" d="M14.489,11.482
	c-0.153,1.204-0.264,2.471-0.341,3.787c-2.391,5.745-3.44,14.719-3.911,25.403l-0.172,5.327h25.935l-0.152-5.435
	c-0.384-9.921-1.193-18.248-2.919-23.936c0.057,1.403,0.083,2.864,0.083,4.371c0,11.36-0.012,20-9,20
	c-9.012,0-9.012-8.628-9.012-19.988c0-11.928,1.535-20.999,9.012-20.999c4.949,0,7.289,3.971,8.307,10.116
	c6.273,6.121,7.315,21.791,7.681,37.871h-32C8.341,32.995,9.269,18.349,14.489,11.482z M22.998,39.974V1.062
	c-1.691,0.237-2.995,1.088-4.001,2.523v34.764C19.962,39.265,21.251,39.822,22.998,39.974z"/>
<path marker-start="none" marker-end="none" style="fill-rule:evenodd;clip-rule:evenodd;" d="M7.999,47.998
	c-1.101,0-4-0.225-4-0.503c0-0.272,2.899-0.497,4-0.497h1L7.999,47.998z"/>
<path marker-start="none" marker-end="none" style="fill-rule:evenodd;clip-rule:evenodd;" d="M40.002,47.998
	c1.101,0,4-0.225,4-0.503c0-0.272-2.899-0.497-4-0.497h-1L40.002,47.998z"/>
</svg>