<?xml version="1.0" encoding="utf-8"?>
<!-- Generator: Adobe Illustrator 22.0.1, SVG Export Plug-In . SVG Version: 6.00 Build 0)  -->
<svg version="1.1" id="Layer_1" xmlns="http://www.w3.org/2000/svg" xmlns:xlink="http://www.w3.org/1999/xlink" x="0px" y="0px"
	 viewBox="0 0 128 128" style="enable-background:new 0 0 128 128;" xml:space="preserve">
<g>
	<path d="M44,1C25.8,1,11,15.8,11,34s14.8,33,33,33c2.2,0,4.5-0.2,6.6-0.7c0.1,0,0.1,0,0.2,0l63.8-14.4c1.4-0.3,2.3-1.5,2.3-2.9V19
		c0-1.4-1-2.6-2.3-2.9c0,0-63.6-14.3-64.1-14.4C48.4,1.2,46.2,1,44,1z M111,21.4v25.2L49.3,60.5C47.6,60.8,45.8,61,44,61
		c-14.9,0-27-12.1-27-27S29.1,7,44,7c1.8,0,3.6,0.2,5.4,0.5l0-0.1c0.7,0.2,1.6,0.4,2.7,0.7L111,21.4z"/>
	<path d="M26,34c0,9.9,8.1,18,18,18s18-8.1,18-18s-8.1-18-18-18S26,24.1,26,34z M56,34c0,6.6-5.4,12-12,12s-12-5.4-12-12
		s5.4-12,12-12S56,27.4,56,34z"/>
	<path d="M111,124.3c0.2,1.5,1.5,2.7,3,2.7c0.1,0,0.2,0,0.3,0c1.6-0.2,2.8-1.6,2.7-3.3c-0.2-1.7-0.4-3.3-0.6-4.9
		c-0.2-1.6-1.8-2.8-3.4-2.5c-1.6,0.2-2.8,1.8-2.5,3.4C110.6,121.1,110.8,122.7,111,124.3z"/>
	<path d="M99,95.2c3.2,1.2,5.9,4.5,8,10c0.6,1.5,2.3,2.3,3.9,1.7c1.5-0.6,2.3-2.3,1.7-3.9c-2.7-7.2-6.6-11.7-11.6-13.5
		c-10.4-3.8-20.9,7-31.1,17.4c-7.4,7.6-15.7,16.2-20.3,13.8c-2-1.1-2.3-3.1-2.3-7.2c0-1,0-2-0.1-3.1c5-1.4,8.7-6.1,8.7-11.5V78
		c0-1.7-1.3-3-3-3s-3,1.3-3,3v21c0,3.3-2.7,6-6,6s-6-2.7-6-6V78c0-1.7-1.3-3-3-3s-3,1.3-3,3v21c0,5.7,4,10.5,9.3,11.7
		c0,0,0,0.1,0,0.1c0.1,0.9,0.1,1.8,0.1,2.8c0,4.1,0,9.7,5.5,12.6c1.5,0.8,3,1.1,4.5,1.1c7.2,0,14.8-7.9,22.9-16.1
		C82.6,102.5,92.2,92.7,99,95.2z"/>
</g>
</svg>