<?xml version="1.0" encoding="iso-8859-1"?>
<!-- Generator: Adobe Illustrator 24.3.0, SVG Export Plug-In . SVG Version: 6.00 Build 0)  -->
<svg version="1.1" xmlns="http://www.w3.org/2000/svg" xmlns:xlink="http://www.w3.org/1999/xlink" x="0px" y="0px"
	 viewBox="0 0 48 48" style="enable-background:new 0 0 48 48;" xml:space="preserve">
<g id="&#x421;&#x43B;&#x43E;&#x439;_1">
</g>
<g id="&#x421;&#x43B;&#x43E;&#x439;_2">
</g>
<g id="&#x421;&#x43B;&#x43E;&#x439;_3">
</g>
<g id="&#x421;&#x43B;&#x43E;&#x439;_4">
</g>
<g id="&#x421;&#x43B;&#x43E;&#x439;_5">
	<path style="fill:none;stroke:#000000;stroke-width:3;stroke-linecap:round;stroke-miterlimit:10;" d="M18.5,44.5
		c-1.438-1.174-1.412-3.419,0-5.236"/>
	<path d="M21.16,31L21.16,31c0.182,0,0.351,0.032,0.518,0.097c1.075,0.419,1.756,2.305,1.013,4.34
		c-0.621,1.699-1.904,2.589-2.851,2.589c-0.182,0-0.352-0.032-0.519-0.097c-1.075-0.419-1.756-2.305-1.013-4.34
		C18.93,31.889,20.213,31,21.16,31 M21.16,28c-2.32,0-4.653,1.779-5.669,4.559c-1.253,3.43-0.026,7.085,2.741,8.164
		c0.524,0.204,1.066,0.302,1.608,0.302c2.32,0,4.653-1.779,5.669-4.559c1.253-3.43,0.026-7.086-2.741-8.164
		C22.244,28.097,21.702,28,21.16,28L21.16,28z"/>
	<path style="fill:none;stroke:#000000;stroke-width:3;stroke-linejoin:round;stroke-miterlimit:10;" d="M19.556,23.191
		C14.319,22.515,9.5,21.5,9.5,21.5 M28.5,17.5h14c0.754,0.001,1.198,1.154,0.855,1.825c-0.306,0.597-0.841,1.21-1.777,1.48
		c-3.106,0.898-9.086,2.542-12.078,2.695c-0.819,0.042-2.529,0.125-4,0 M14.5,18.5l7-1"/>
	<path d="M9.145,15c0.147,0,0.297,0.007,0.446,0.021c1.906,0.178,3.497,1.525,3.405,2.882C12.917,19.079,11.537,20,9.855,20
		c-0.147,0-0.297-0.007-0.446-0.021c-1.906-0.178-3.497-1.525-3.405-2.882C6.083,15.921,7.463,15,9.145,15 M9.145,12
		c-3.265,0-5.944,2.081-6.134,4.894c-0.204,3.019,2.536,5.737,6.12,6.072C9.374,22.989,9.616,23,9.855,23
		c3.265,0,5.944-2.081,6.134-4.894c0.204-3.019-2.536-5.737-6.12-6.072C9.626,12.011,9.383,12,9.145,12L9.145,12z"/>
	<path style="fill:none;stroke:#000000;stroke-width:3;stroke-linejoin:round;stroke-miterlimit:10;" d="M16.805,33.373
		c0,0,3.674-15.336,5.687-19.092c1.415-2.641,6.448-7.138,8.493-9.642c0.584-0.715,1.457-1.13,2.379-1.13h0.108
		c0.724,0,1.219,0.731,0.95,1.403l-5.544,11.872c-0.164,0.377-0.365,0.736-0.6,1.072L22.5,29.5"/>
</g>
<g id="&#x421;&#x43B;&#x43E;&#x439;_6">
</g>
</svg>