<?xml version="1.0" encoding="iso-8859-1"?>
<!-- Generator: Adobe Illustrator 23.0.6, SVG Export Plug-In . SVG Version: 6.00 Build 0)  -->
<svg version="1.1" id="Layer_1" xmlns="http://www.w3.org/2000/svg" xmlns:xlink="http://www.w3.org/1999/xlink" x="0px" y="0px"
	 viewBox="0 0 64 64" style="enable-background:new 0 0 64 64;" xml:space="preserve">
<path d="M55,1c-1.65,0-3,1.35-3,3v17h-3V4c0-1.65-1.35-3-3-3s-3,1.35-3,3v17h-3V4c0-1.65-1.35-3-3-3s-3,1.35-3,3v17h-3V4
	c0-1.65-1.35-3-3-3s-3,1.35-3,3v17h-3V4c0-1.65-1.35-3-3-3s-3,1.35-3,3v17h-3V4c0-1.65-1.35-3-3-3S7,2.35,7,4v32c0,2.21,1.79,4,4,4
	h11.77c-2.4,2.5-3.77,5.85-3.77,9.41C19,56.91,25.06,63,32.5,63S46,56.91,46,49.41c0-3.56-1.37-6.91-3.77-9.41H54c2.21,0,4-1.79,4-4
	V4C58,2.35,56.65,1,55,1z M56,36c0,1.1-0.9,2-2,2H40.375c-0.75,0-1.34,0.644-1.275,1.39c0.001,0.009,0.002,0.018,0.002,0.027
	c0.032,0.358,0.217,0.677,0.499,0.899C42.376,42.5,44,45.828,44,49.41c0,6.38-5.16,11.58-11.5,11.58S21,55.79,21,49.41
	c0-3.582,1.624-6.91,4.398-9.093c0.282-0.222,0.467-0.542,0.499-0.899c0.001-0.009,0.002-0.018,0.002-0.027
	c0.065-0.747-0.525-1.39-1.275-1.39H11c-1.1,0-2-0.9-2-2V4c0-0.55,0.45-1,1-1s1,0.45,1,1v17c0,1.1,0.9,2,2,2h3c1.1,0,2-0.9,2-2V4
	c0-0.55,0.45-1,1-1s1,0.45,1,1v17c0,1.1,0.9,2,2,2h3c1.1,0,2-0.9,2-2V4c0-0.55,0.45-1,1-1s1,0.45,1,1v17c0,1.1,0.9,2,2,2h3
	c1.1,0,2-0.9,2-2V4c0-0.55,0.45-1,1-1s1,0.45,1,1v17c0,1.1,0.9,2,2,2h3c1.1,0,2-0.9,2-2V4c0-0.55,0.45-1,1-1s1,0.45,1,1v17
	c0,1.1,0.9,2,2,2h3c1.1,0,2-0.9,2-2V4c0-0.55,0.45-1,1-1s1,0.45,1,1V36z"/>
<g>
	<path d="M32.5,55c-3.033,0-5.5-2.468-5.5-5.5s2.467-5.5,5.5-5.5s5.5,2.468,5.5,5.5S35.533,55,32.5,55z M32.5,46
		c-1.93,0-3.5,1.57-3.5,3.5s1.57,3.5,3.5,3.5s3.5-1.57,3.5-3.5S34.43,46,32.5,46z"/>
</g>
<path d="M15,32c-0.551,0-1,0.445-1,1v2c0,0.555,0.449,1,1,1s1-0.445,1-1v-2C16,32.445,15.551,32,15,32z"/>
<path d="M20,32c-0.551,0-1,0.445-1,1v2c0,0.555,0.449,1,1,1s1-0.445,1-1v-2C21,32.445,20.551,32,20,32z"/>
<path d="M25,32c-0.551,0-1,0.445-1,1v2c0,0.555,0.449,1,1,1s1-0.445,1-1v-2C26,32.445,25.551,32,25,32z"/>
<path d="M30,32c-0.551,0-1,0.445-1,1v2c0,0.555,0.449,1,1,1s1-0.445,1-1v-2C31,32.445,30.551,32,30,32z"/>
<path d="M35,32c-0.551,0-1,0.445-1,1v2c0,0.555,0.449,1,1,1s1-0.445,1-1v-2C36,32.445,35.551,32,35,32z"/>
<path d="M40,32c-0.551,0-1,0.445-1,1v2c0,0.555,0.449,1,1,1s1-0.445,1-1v-2C41,32.445,40.551,32,40,32z"/>
<path d="M45,32c-0.551,0-1,0.445-1,1v2c0,0.555,0.449,1,1,1s1-0.445,1-1v-2C46,32.445,45.551,32,45,32z"/>
<path d="M50,32c-0.551,0-1,0.445-1,1v2c0,0.555,0.449,1,1,1s1-0.445,1-1v-2C51,32.445,50.551,32,50,32z"/>
<path style="fill:none;stroke:#000000;stroke-width:2;stroke-linecap:round;stroke-miterlimit:10;" d="M40.626,52
	c-0.41,1.338-1.157,2.593-2.238,3.631c-1.778,1.708-4.106,2.488-6.388,2.355"/>
<path style="fill:none;stroke:#000000;stroke-width:2;stroke-linecap:round;stroke-miterlimit:10;" d="M38.981,44
	c1.003,1.179,1.63,2.564,1.887,4"/>
</svg>