<?xml version="1.0" encoding="iso-8859-1"?>
<!-- Generator: Adobe Illustrator 18.0.0, SVG Export Plug-In . SVG Version: 6.00 Build 0)  -->
<!DOCTYPE svg PUBLIC "-//W3C//DTD SVG 1.1//EN" "http://www.w3.org/Graphics/SVG/1.1/DTD/svg11.dtd">
<svg version="1.1" id="Layer_1" xmlns="http://www.w3.org/2000/svg" xmlns:xlink="http://www.w3.org/1999/xlink" x="0px" y="0px"
	 width="50px" height="50px" viewBox="0 0 50 50" style="enable-background:new 0 0 50 50;" xml:space="preserve">
<line style="fill:none;stroke:#000000;stroke-width:2;stroke-miterlimit:10;" x1="26" y1="37" x2="46.25" y2="37"/>
<g>
	<path d="M41.8,28H40v-4h-2v4c0,1.103,0.915,2,2.04,2h1.76c2.316,0,4.2,1.794,4.2,4v8c0,2.206-1.884,4-4.2,4H27.637
		c-0.422,0.743-0.96,1.417-1.612,1.991C26.083,47.993,26.141,48,26.2,48h15.6c3.419,0,6.2-2.691,6.2-6v-8
		C48,30.691,45.219,28,41.8,28z"/>
</g>
<path style="fill:none;stroke:#000000;stroke-width:1.9616;stroke-linecap:round;stroke-linejoin:round;stroke-miterlimit:10;" d="
	M24.788,39.315c-1.571-2.163-8.893-4.007-8.893-4.007s-0.508,7.534,1.063,9.696c1.571,2.162,4.597,2.642,6.759,1.071
	C25.88,44.504,26.359,41.477,24.788,39.315z"/>
<path style="fill:none;stroke:#000000;stroke-width:1.9616;stroke-linecap:round;stroke-linejoin:round;stroke-miterlimit:10;" d="
	M20.735,26.839c0,2.673-4.839,8.469-4.839,8.469s-4.839-5.796-4.839-8.469S13.223,22,15.895,22S20.735,24.167,20.735,26.839z"/>
<path style="fill:none;stroke:#000000;stroke-width:1.9616;stroke-linecap:round;stroke-linejoin:round;stroke-miterlimit:10;" d="
	M22.454,28.089c-2.542,0.826-6.559,7.22-6.559,7.22s7.008,2.812,9.55,1.985c2.542-0.826,3.933-3.556,3.107-6.098
	C27.726,28.654,24.996,27.263,22.454,28.089z"/>
<path style="fill:none;stroke:#000000;stroke-width:1.9616;stroke-linecap:round;stroke-linejoin:round;stroke-miterlimit:10;" d="
	M9.336,28.089c2.542,0.826,6.559,7.22,6.559,7.22s-7.008,2.812-9.55,1.985c-2.542-0.826-3.933-3.556-3.107-6.098
	S6.794,27.263,9.336,28.089z"/>
<path style="fill:none;stroke:#000000;stroke-width:1.9616;stroke-linecap:round;stroke-linejoin:round;stroke-miterlimit:10;" d="
	M7.002,39.315c1.571-2.163,8.893-4.007,8.893-4.007s0.508,7.534-1.063,9.696c-1.571,2.162-4.597,2.642-6.759,1.071
	C5.911,44.505,5.431,41.477,7.002,39.315z"/>
<g>
	<path d="M17.408,29.998c0,0.835-1.512,4.116-1.512,4.116s-1.512-3.281-1.512-4.116s0.677-1.512,1.512-1.512
		S17.408,29.163,17.408,29.998z"/>
	<path d="M11.298,32.24c0.794,0.258,3.447,2.71,3.447,2.71s-3.587,0.425-4.381,0.166c-0.794-0.258-1.229-1.111-0.971-1.906
		S10.504,31.982,11.298,32.24z"/>
	<path d="M11.542,38.744c0.491-0.676,3.643-2.441,3.643-2.441s-0.705,3.543-1.195,4.219s-1.437,0.826-2.112,0.335
		C11.201,40.365,11.05,39.419,11.542,38.744z"/>
	<path d="M17.802,40.521c-0.491-0.676-1.195-4.219-1.195-4.219s3.152,1.765,3.643,2.441s0.341,1.621-0.335,2.112
		C19.239,41.347,18.293,41.197,17.802,40.521z"/>
	<path d="M21.427,35.116c-0.794,0.258-4.381-0.166-4.381-0.166s2.653-2.452,3.447-2.71s1.648,0.177,1.906,0.971
		C22.656,34.005,22.222,34.859,21.427,35.116z"/>
</g>
<g>
	<path d="M37.573,18L40.48,3.438c0.108-0.542-0.243-1.068-0.785-1.176c-0.542-0.108-1.069,0.243-1.176,0.785L35.533,18H37.573z"/>
	<path d="M34.135,25L30.78,41.804c-0.108,0.542,0.243,1.068,0.785,1.177C31.63,42.994,31.696,43,31.761,43
		c0.467,0,0.885-0.329,0.979-0.804L36.175,25H34.135z"/>
</g>
<g>
	<path d="M35,18V2c0-0.552-0.448-1-1-1s-1,0.448-1,1v16H35z"/>
	<path d="M33,25v17c0,0.553,0.448,1,1,1s1-0.447,1-1V25H33z"/>
</g>
<g>
	<path d="M31.825,25l3.434,17.196C35.354,42.671,35.771,43,36.239,43c0.065,0,0.131-0.006,0.197-0.02
		c0.542-0.108,0.893-0.635,0.785-1.177L33.865,25H31.825z"/>
	<path d="M32.467,18L29.48,3.046c-0.108-0.542-0.636-0.894-1.176-0.785c-0.542,0.108-0.893,0.635-0.785,1.176L30.427,18H32.467z"/>
</g>
<path style="fill:none;stroke:#000000;stroke-width:2;stroke-miterlimit:10;" d="M39.5,25h-11c-0.828,0-1.5-0.672-1.5-1.5v-1
	c0-0.828,0.672-1.5,1.5-1.5h11c0.828,0,1.5,0.672,1.5,1.5v1C41,24.328,40.328,25,39.5,25z"/>
</svg>