<?xml version="1.0" encoding="utf-8"?><!-- Generator: Adobe Illustrator 19.1.1, SVG Export Plug-In . SVG Version: 6.00 Build 0)  --><svg xmlns="http://www.w3.org/2000/svg" xmlns:xlink="http://www.w3.org/1999/xlink" viewBox="0 0 50 50" width="500px" height="500px"><path d="M19,48H9c-0.5,0-0.9-0.3-1-0.8C7.9,46.8,6,38.1,6,31v-3c0-0.6,0.4-1,1-1h14c0.6,0,1,0.4,1,1v3c0,7.1-1.9,15.8-2,16.2C19.9,47.7,19.5,48,19,48z"/><path d="M41,17H31v-4h10V17z"/><line fill="none" stroke="#000000" stroke-width="2" stroke-miterlimit="10" x1="14" y1="26" x2="14" y2="10"/><path d="M14,11c-2.1,0-3-3.6-3-5.5C11,2.3,13.1,2,14,2s3,0.3,3,3.5C17,7.4,16.1,11,14,11z"/><path d="M43,19H29c-0.6,0-1,0.4-1,1v6c0,9.2,2,21,2,21.2c0.1,0.5,0.5,0.8,1,0.8h10c0.5,0,0.9-0.3,1-0.8c0-0.1,2-11.3,2-21.2v-6C44,19.4,43.6,19,43,19z M30,26v-1h12v1c0,1,0,2-0.1,3l-11.9,0C30,28,30,27,30,26z"/></svg>