<?xml version="1.0" encoding="iso-8859-1"?>
<!-- Generator: Adobe Illustrator 24.1.2, SVG Export Plug-In . SVG Version: 6.00 Build 0)  -->
<svg version="1.1" baseProfile="basic" id="&#x421;&#x43B;&#x43E;&#x439;_1"
	 xmlns="http://www.w3.org/2000/svg" xmlns:xlink="http://www.w3.org/1999/xlink" x="0px" y="0px" viewBox="0 0 48 48"
	 xml:space="preserve">
<path marker-start="none" marker-end="none" style="fill-rule:evenodd;clip-rule:evenodd;" d="M13.997,47v1H43v-1H13.997z"/>
<path marker-start="none" marker-end="none" style="fill-rule:evenodd;clip-rule:evenodd;" d="M13,48c-2.207,0-8-0.227-8-0.493
	C5,47.227,10.793,47,13,47l0.449,0.52L13,48z"/>
<path marker-start="none" marker-end="none" style="fill-rule:evenodd;clip-rule:evenodd;" d="M43.999,48c1.104,0,4-0.227,4-0.507
	c0-0.28-2.896-0.493-4-0.493l-0.419,0.467L43.999,48z"/>
<path marker-start="none" marker-end="none" style="fill-rule:evenodd;clip-rule:evenodd;" d="M12.998,48V29h3.124l3.876,5.173
	L23.874,29h1.249l-4.124,5.493h15.004L31.879,29h1.249L37,34.16L40.873,29H44v19h-2.001v-5.507l-5.245-7H20.249l-5.249,7V48H12.998z
	 M15,40.827L19.374,35L15,29.16V40.827z M41.999,40.827V29.16L37.626,35L41.999,40.827z M1.501,28C0.673,28,0,27.333,0,26.493
	c0-0.52,0-2.32,0-3C0,22.12,1.121,21,2.501,21h3.997C7.878,21,9,22.12,9,23.493C9,24.027,9,25.24,9,26h1c0-0.76,0-1.973,0-2.507
	C10,22.12,11.121,21,12.501,21h32.996c1.38,0,2.501,1.12,2.501,2.493c0,0.68,0,2.48,0,3c0,0.84-0.673,1.507-1.501,1.507H1.501z
	 M2,27v-2.507C2,23.667,2.672,23,3.501,23h3.997c0.151,0,0.297,0.027,0.436,0.067C7.748,22.453,7.174,22,6.499,22H2.501
	C1.672,22,1,22.667,1,23.493v3C1,26.773,1.224,27,1.501,27H2z M12,27v-2.507C12,23.667,12.672,23,13.501,23h32.996
	c0.151,0,0.297,0.027,0.436,0.067C46.747,22.453,46.173,22,45.497,22H12.501C11.672,22,11,22.667,11,23.493v3
	C11,26.773,11.224,27,11.501,27H12z"/>
</svg>