<?xml version="1.0" encoding="iso-8859-1"?>
<!-- Generator: Adobe Illustrator 23.0.6, SVG Export Plug-In . SVG Version: 6.00 Build 0)  -->
<svg version="1.1" xmlns="http://www.w3.org/2000/svg" xmlns:xlink="http://www.w3.org/1999/xlink" x="0px" y="0px"
	 viewBox="0 0 80 80" style="enable-background:new 0 0 80 80;" xml:space="preserve">
<g id="&#x421;&#x43B;&#x43E;&#x439;_1" style="display:none;">
	<g style="display:inline;">
		<path style="fill:#4EB5B7;" d="M40,10c16.542,0,30,13.458,30,30S56.542,70,40,70S10,56.542,10,40S23.458,10,40,10 M40,8
			C22.327,8,8,22.327,8,40s14.327,32,32,32s32-14.327,32-32S57.673,8,40,8L40,8z"/>
	</g>
	<g style="display:inline;">
		<path style="fill:#4EB5B7;" d="M67,13v54H13V13H67 M69,11H11v58h58V11L69,11z"/>
	</g>
</g>
<g id="&#x421;&#x43B;&#x43E;&#x439;_2">
	<path style="fill:none;stroke:#000000;stroke-width:2;stroke-miterlimit:10;" d="M50.456,15.804c-1.981,0-3.587,1.615-3.587,3.606
		s1.606,3.606,3.587,3.606c1.981,0,3.587-1.615,3.587-3.606S52.437,15.804,50.456,15.804z M60.499,25.902
		c-1.981,0-3.587,1.615-3.587,3.606s1.606,3.606,3.587,3.606c1.981,0,3.587-1.615,3.587-3.606S62.48,25.902,60.499,25.902z
		 M47.587,28.787c-1.981,0-3.587,1.615-3.587,3.606S45.606,36,47.587,36c1.981,0,3.587-1.615,3.587-3.606
		S49.568,28.787,47.587,28.787z"/>
	<path style="fill:none;stroke:#000000;stroke-width:2;stroke-linecap:round;stroke-miterlimit:10;" d="M29.024,38
		c2.585-2.251,5.611-5.055,9.277-8.721"/>
	<path d="M11.35,69.609L11.35,69.609L11.35,69.609c-0.42-0.359-0.47-0.989-0.109-1.409l0,0c0.359-0.42,0.989-0.471,1.409-0.11l0,0
		c0.42,0.36,0.471,0.99,0.11,1.41l0,0c-0.2,0.229-0.479,0.35-0.76,0.35l0,0C11.77,69.85,11.54,69.77,11.35,69.609z M8.729,66.05
		c-0.22-0.51,0.021-1.09,0.53-1.31l0,0c0.5-0.221,1.09,0.02,1.31,0.529l0,0c0.221,0.5-0.02,1.09-0.529,1.311l0,0
		c-0.13,0.05-0.26,0.08-0.391,0.08l0,0C9.26,66.66,8.89,66.43,8.729,66.05z M8.81,62.74c-0.54-0.11-0.89-0.631-0.79-1.181l0,0
		C8.13,61.02,8.66,60.67,9.2,60.78l0,0c0.54,0.1,0.89,0.63,0.79,1.17l0,0C9.89,62.43,9.47,62.76,9.01,62.76l0,0
		C8.939,62.76,8.88,62.75,8.81,62.74z M9.979,58.92c-0.51-0.23-0.729-0.82-0.5-1.32l0,0l0,0l0,0c0.221-0.51,0.811-0.729,1.32-0.5
		l0,0c0.5,0.22,0.72,0.82,0.5,1.32l0,0c-0.17,0.37-0.53,0.59-0.92,0.59l0,0C10.25,59.01,10.109,58.979,9.979,58.92z M11.72,55.319
		c-0.479-0.279-0.63-0.89-0.35-1.369l0,0c0.279-0.471,0.89-0.631,1.37-0.351l0,0c0.47,0.28,0.63,0.9,0.35,1.37l0,0
		c-0.19,0.32-0.521,0.49-0.86,0.49l0,0C12.05,55.46,11.88,55.42,11.72,55.319z M13.85,51.939c-0.439-0.33-0.52-0.96-0.189-1.399l0,0
		c0.33-0.44,0.96-0.53,1.399-0.2l0,0c0.44,0.34,0.53,0.96,0.2,1.4l0,0c-0.2,0.26-0.5,0.399-0.8,0.399l0,0
		C14.25,52.14,14.03,52.08,13.85,51.939z M16.35,48.819c-0.399-0.38-0.42-1.02-0.04-1.42l0,0c0.38-0.399,1.01-0.42,1.41-0.04l0,0
		c0.4,0.381,0.42,1.011,0.04,1.41l0,0c-0.19,0.21-0.46,0.32-0.72,0.32l0,0C16.79,49.09,16.54,49,16.35,48.819z M19.17,45.979
		c-0.351-0.42-0.3-1.05,0.12-1.41l0,0c0.42-0.35,1.05-0.3,1.41,0.12l0,0c0.359,0.42,0.3,1.051-0.12,1.41l0,0
		c-0.181,0.16-0.41,0.24-0.641,0.24l0,0C19.649,46.34,19.37,46.22,19.17,45.979z M22.29,43.479c-0.33-0.439-0.25-1.069,0.18-1.399
		l0,0l0,0l0,0c0.44-0.34,1.07-0.261,1.41,0.18l0,0c0.33,0.44,0.25,1.06-0.18,1.4l0,0c-0.19,0.14-0.4,0.21-0.61,0.21l0,0
		C22.79,43.87,22.49,43.74,22.29,43.479z M25.439,41.02c-0.35-0.43-0.29-1.06,0.141-1.41l0,0l0,0l0,0
		c0.43-0.35,1.06-0.29,1.399,0.131l0,0c0.351,0.43,0.29,1.06-0.13,1.409l0,0c-0.189,0.15-0.41,0.23-0.64,0.23l0,0
		C25.93,41.38,25.64,41.26,25.439,41.02z"/>
	<path style="fill:none;stroke:#000000;stroke-width:2;stroke-linecap:round;stroke-miterlimit:10;" d="M50.611,41.59
		c-8.156,8.156-11.928,12.839-14.781,16.605c-3.762,4.965-8.653,8.993-14.36,11.49c-1.715,0.752-3.144,1.255-3.815,1.255
		c-2.016,0-4.031-0.696-5.656-2.087"/>
	<path style="fill:none;stroke:#000000;stroke-width:2;stroke-miterlimit:10;" d="M36.568,47.606l-6.962,6.962
		c-0.577,0.577-1.511,0.577-2.087,0l-2.087-2.086c-0.577-0.577-0.577-1.511,0-2.086l6.962-6.962c0.577-0.577,1.511-0.577,2.087,0
		l2.087,2.086C37.144,46.095,37.144,47.029,36.568,47.606z"/>
	<line style="fill:none;stroke:#000000;stroke-width:2;stroke-miterlimit:10;" x1="28.743" y1="46.568" x2="33.17" y2="50.995"/>
	<path d="M66.54,23.75L66.54,23.75L66.54,23.75c-0.391-0.4-0.37-1.03,0.029-1.41l0,0c0.391-0.38,1.03-0.37,1.41,0.03l0,0
		c0.38,0.399,0.37,1.029-0.029,1.41l0,0c-0.19,0.189-0.44,0.279-0.69,0.279l0,0C66.99,24.06,66.729,23.95,66.54,23.75z M63.74,20.91
		c-0.391-0.4-0.391-1.03,0-1.42l0,0c0.39-0.391,1.029-0.391,1.42,0.01h-0.011c0.391,0.39,0.391,1.02,0,1.41l0,0
		C64.95,21.1,64.7,21.2,64.439,21.2l0,0C64.189,21.2,63.93,21.1,63.74,20.91z M60.91,18.069c-0.391-0.39-0.391-1.02,0-1.409l0,0
		c0.39-0.391,1.02-0.391,1.409,0l0,0c0.391,0.39,0.391,1.02,0,1.409l0,0c-0.189,0.2-0.449,0.29-0.71,0.29l0,0
		C61.359,18.359,61.1,18.27,60.91,18.069z M58.069,15.25L58.069,15.25L58.069,15.25c-0.39-0.391-0.399-1.021-0.01-1.42l0,0
		c0.391-0.391,1.021-0.391,1.42,0l0,0c0.391,0.38,0.391,1.02,0,1.41l0,0c-0.189,0.199-0.449,0.3-0.71,0.3l0,0
		C58.52,15.54,58.27,15.439,58.069,15.25z"/>
	<path style="fill:none;stroke:#000000;stroke-width:2;stroke-linecap:round;stroke-linejoin:round;stroke-miterlimit:10;" d="
		M56,12c-0.601-0.487-1.658-1.218-3.146-1.649c0,0-1.251-0.351-2.551-0.351c-4.452,0-8.192,3.101-9.177,7.255
		c-0.167,0.699-3.156,11.883-3.156,15.235c0,5.2,4.231,9.431,9.431,9.431c3.352,0,14.536-2.989,15.235-3.156
		c4.154-0.985,7.255-4.726,7.255-9.177c0-1.269-0.351-2.552-0.351-2.552c-0.561-1.987-1.652-3.315-2.281-3.977"/>
</g>
</svg>