<?xml version="1.0" encoding="iso-8859-1"?><!-- Generator: Adobe Illustrator 22.1.0, SVG Export Plug-In . SVG Version: 6.00 Build 0)  --><svg xmlns="http://www.w3.org/2000/svg" xmlns:xlink="http://www.w3.org/1999/xlink" viewBox="0 0 50 50" width="500px" height="500px"><circle cx="25" cy="31" r="5"/><path style="fill:none;stroke:#000000;stroke-width:2;stroke-linecap:round;stroke-linejoin:round;stroke-miterlimit:10;" d="M29,8c-6,0-20.193,8.527-22.152,9.547c-1.959,1.021-4.375,0.26-5.396-1.699s-0.26-4.375,1.699-5.396C4.233,9.89,17,4,26,4c12,0,23,12,23,12S40,8,29,8z"/><path style="fill:none;stroke:#000000;stroke-width:2;stroke-miterlimit:10;" d="M34.37,27.51C34.78,28.6,35,29.77,35,31c0,5.52-4.48,10-10,10s-10-4.48-10-10c0-1.23,0.22-2.4,0.63-3.49"/><path style="fill:none;stroke:#000000;stroke-width:2;stroke-linejoin:round;stroke-miterlimit:10;" d="M4,33c0,0,7-13,21-13s21,13,21,13s-7,13-21,13S4,33,4,33z"/><path style="fill:none;stroke:#000000;stroke-width:2;stroke-linecap:round;stroke-linejoin:round;stroke-miterlimit:10;" d="M46,33c0,0-4.91-3.44-11.63-5.49C31.5,26.63,28.29,26,25,26s-6.5,0.63-9.37,1.51C8.91,29.56,4,33,4,33"/></svg>