<?xml version="1.0" encoding="iso-8859-1"?><!-- Generator: Adobe Illustrator 22.1.0, SVG Export Plug-In . SVG Version: 6.00 Build 0)  --><svg xmlns="http://www.w3.org/2000/svg" xmlns:xlink="http://www.w3.org/1999/xlink" viewBox="0 0 50 50" width="500px" height="500px"><line style="fill:none;stroke:#000000;stroke-width:2;stroke-linecap:round;stroke-linejoin:round;stroke-miterlimit:10;" x1="27" y1="4" x2="27" y2="9"/><line style="fill:none;stroke:#000000;stroke-width:2;stroke-linecap:round;stroke-linejoin:round;stroke-miterlimit:10;" x1="31" y1="4" x2="31" y2="9"/><line style="fill:none;stroke:#000000;stroke-width:2;stroke-linecap:round;stroke-linejoin:round;stroke-miterlimit:10;" x1="23" y1="4" x2="23" y2="9"/><line style="fill:none;stroke:#000000;stroke-width:2;stroke-linecap:round;stroke-linejoin:round;stroke-miterlimit:10;" x1="19" y1="4" x2="19" y2="9"/><path style="fill:none;stroke:#000000;stroke-width:2;stroke-linecap:round;stroke-linejoin:round;stroke-miterlimit:10;" d="M15,7l0.914,10.972c0.056,0.674,0.283,1.324,0.658,1.887l0.588,0.882c0.548,0.821,0.84,1.786,0.84,2.774l0,16.193c0,3.833,3.169,7.179,7,7.294c3.964,0.119,7-3.062,7-7V23.514c0-0.987,0.292-1.952,0.84-2.774l0.588-0.882c0.375-0.563,0.602-1.212,0.658-1.887L35,7H15z"/><line style="fill:none;stroke:#000000;stroke-width:2;stroke-linecap:round;stroke-linejoin:round;stroke-miterlimit:10;" x1="34" y1="16" x2="16" y2="16"/><path style="fill:none;stroke:#000000;stroke-width:2;stroke-linecap:round;stroke-linejoin:round;stroke-miterlimit:10;" d="M22,36c0,1.657,1.343,3,3,3s3-1.343,3-3v-6c0-1.657-1.343-3-3-3s-3,1.343-3,3V36z"/><circle cx="25" cy="30" r="2"/></svg>