<?xml version="1.0" encoding="iso-8859-1"?>
<!-- Generator: Adobe Illustrator 27.0.0, SVG Export Plug-In . SVG Version: 6.00 Build 0)  -->
<svg version="1.1" baseProfile="basic" xmlns="http://www.w3.org/2000/svg" xmlns:xlink="http://www.w3.org/1999/xlink" x="0px"
	 y="0px" viewBox="0 0 64 64" xml:space="preserve">
<g id="Layer_1">
</g>
<g id="Layer_2">
</g>
<g id="Layer_3">
</g>
<g id="Layer_4">
	<path d="M19,39h4v-5h5.348c0.825,2.329,3.04,4,5.651,4s4.827-1.671,5.651-4H45v5h4v-5h4v-4h-4v-5h-4v5h-5.349
		c-0.825-2.329-3.04-4-5.651-4s-4.827,1.671-5.651,4H23v-5h-4v5h-4v4h4V39z"/>
	<polygon points="57,48 11,48 11,16 3,16 3,52 61,52 61,16 57,16 	"/>
</g>
<g id="Layer_5">
</g>
<g id="Layer_6">
</g>
</svg>