<?xml version="1.0" encoding="utf-8"?><!-- Generator: Adobe Illustrator 15.0.0, SVG Export Plug-In . SVG Version: 6.00 Build 0)  --><!DOCTYPE svg PUBLIC "-//W3C//DTD SVG 1.1//EN" "http://www.w3.org/Graphics/SVG/1.1/DTD/svg11.dtd"><svg xmlns="http://www.w3.org/2000/svg" xmlns:xlink="http://www.w3.org/1999/xlink" viewBox="0 0 50 50" width="500px" height="500px"><path d="M38,49c-3.178,0-5-1.822-5-5c0-3.274,0.386-7.094,0.759-10.787C34.364,27.215,35.308,19.389,33,17c-1.282,0.289-4.695,1-8,1c-3.304,0-6.718-0.711-8-1c-2.255,2.444-1.364,10.215-0.758,16.213C16.614,36.906,17,40.726,17,44c0,3.178-1.822,5-5,5c-6.179,0-11.483-7.037-11.749-7.337c-0.211-0.239-0.296-0.564-0.229-0.876s0.28-0.572,0.572-0.701c3.228-1.431,4.203-7.516,5.234-13.956C7.623,14.934,9.855,1,25,1c4.282,0,6.707,2.179,7.509,3.055c10.529,1.417,11.504,12.356,12.365,22.021c0.576,6.458,1.119,12.558,4.518,14.004c0.296,0.126,0.513,0.386,0.584,0.7c0.07,0.313-0.014,0.642-0.227,0.883C49.483,41.963,44.179,49,38,49z"/></svg>