<?xml version="1.0" encoding="iso-8859-1"?><!-- Generator: Adobe Illustrator 21.1.0, SVG Export Plug-In . SVG Version: 6.00 Build 0)  --><svg xmlns="http://www.w3.org/2000/svg" xmlns:xlink="http://www.w3.org/1999/xlink" viewBox="0 0 50 50" width="500px" height="500px"><g></g><path style="fill:none;stroke:#000000;stroke-width:2;stroke-linejoin:round;stroke-miterlimit:10;" d="M3,8v34h44V8H3z"/><path style="fill:none;stroke:#000000;stroke-width:2;stroke-miterlimit:10;" d="M35.928,24.022C35.97,23.686,36,23.347,36,23c0-4.418-3.582-8-8-8c-3.271,0-5.594,1.76-7.096,4.105c-0.228,0.356-0.651,1.089-0.776,1.329c0,0-0.545-0.498-0.741-0.644C18.721,19.294,17.895,19,17,19c-2.209,0-4,1.791-4,4c0,0.115,0.024,0.224,0.034,0.336C10.687,24.151,9,26.376,9,29c0,3.314,2.686,6,6,6s17.876,0,20.5,0c3.038,0,5.5-2.462,5.5-5.5C41,26.607,38.765,24.24,35.928,24.022z"/></svg>