<?xml version="1.0" encoding="iso-8859-1"?><!-- Generator: Adobe Illustrator 19.2.1, SVG Export Plug-In . SVG Version: 6.00 Build 0)  --><svg xmlns="http://www.w3.org/2000/svg" xmlns:xlink="http://www.w3.org/1999/xlink" viewBox="0 0 50 50" width="500px" height="500px"><path style="fill:none;stroke:#000000;stroke-width:2;stroke-linecap:round;stroke-linejoin:round;stroke-miterlimit:10;" d="M29,10h-8c-0.552,0-1-0.448-1-1V5c0-0.552,0.448-1,1-1h8c0.552,0,1,0.448,1,1v4C30,9.552,29.552,10,29,10z"/><path style="fill:none;stroke:#000000;stroke-width:2;stroke-linecap:round;stroke-linejoin:round;stroke-miterlimit:10;" d="M45,10h-8c-0.552,0-1-0.448-1-1V5c0-0.552,0.448-1,1-1h8c0.552,0,1,0.448,1,1v4C46,9.552,45.552,10,45,10z"/><path style="fill:none;stroke:#000000;stroke-width:2;stroke-linecap:round;stroke-linejoin:round;stroke-miterlimit:10;" d="M13,10H5c-0.552,0-1-0.448-1-1V5c0-0.552,0.448-1,1-1h8c0.552,0,1,0.448,1,1v4C14,9.552,13.552,10,13,10z"/><path style="fill:none;stroke:#000000;stroke-width:2;stroke-linecap:round;stroke-linejoin:round;stroke-miterlimit:10;" d="M29,22h-8c-0.552,0-1-0.448-1-1v-4c0-0.552,0.448-1,1-1h8c0.552,0,1,0.448,1,1v4C30,21.552,29.552,22,29,22z"/><path style="fill:none;stroke:#000000;stroke-width:2;stroke-linecap:round;stroke-linejoin:round;stroke-miterlimit:10;" d="M45,22h-8c-0.552,0-1-0.448-1-1v-4c0-0.552,0.448-1,1-1h8c0.552,0,1,0.448,1,1v4C46,21.552,45.552,22,45,22z"/><path style="fill:none;stroke:#000000;stroke-width:2;stroke-linecap:round;stroke-linejoin:round;stroke-miterlimit:10;" d="M13,22H5c-0.552,0-1-0.448-1-1v-4c0-0.552,0.448-1,1-1h8c0.552,0,1,0.448,1,1v4C14,21.552,13.552,22,13,22z"/><path style="fill:none;stroke:#000000;stroke-width:2;stroke-linecap:round;stroke-linejoin:round;stroke-miterlimit:10;" d="M29,34h-8c-0.552,0-1-0.448-1-1v-4c0-0.552,0.448-1,1-1h8c0.552,0,1,0.448,1,1v4C30,33.552,29.552,34,29,34z"/><path style="fill:none;stroke:#000000;stroke-width:2;stroke-linecap:round;stroke-linejoin:round;stroke-miterlimit:10;" d="M29,46h-8c-0.552,0-1-0.448-1-1v-4c0-0.552,0.448-1,1-1h8c0.552,0,1,0.448,1,1v4C30,45.552,29.552,46,29,46z"/><path style="fill:none;stroke:#000000;stroke-width:2;stroke-linecap:round;stroke-linejoin:round;stroke-miterlimit:10;" d="M45,34h-8c-0.552,0-1-0.448-1-1v-4c0-0.552,0.448-1,1-1h8c0.552,0,1,0.448,1,1v4C46,33.552,45.552,34,45,34z"/><path style="fill:none;stroke:#000000;stroke-width:2;stroke-linecap:round;stroke-linejoin:round;stroke-miterlimit:10;" d="M13,34H5c-0.552,0-1-0.448-1-1v-4c0-0.552,0.448-1,1-1h8c0.552,0,1,0.448,1,1v4C14,33.552,13.552,34,13,34z"/></svg>