<?xml version="1.0" encoding="iso-8859-1"?><!-- Generator: Adobe Illustrator 21.1.0, SVG Export Plug-In . SVG Version: 6.00 Build 0)  --><svg xmlns="http://www.w3.org/2000/svg" xmlns:xlink="http://www.w3.org/1999/xlink" viewBox="0 0 50 50" width="50px" height="50px"><path style="fill:none;stroke:#000000;stroke-width:4;stroke-miterlimit:10;" d="M22.649,4.14C23.422,4.053,24.204,4,25,4c11.598,0,21,9.402,21,21s-9.402,21-21,21c-0.791,0-1.568-0.052-2.336-0.137"/><path style="fill:none;stroke:#000000;stroke-width:4;stroke-miterlimit:10;" d="M18.082,44.81c-1.497-0.523-2.914-1.208-4.234-2.038"/><path style="fill:none;stroke:#000000;stroke-width:4;stroke-miterlimit:10;" d="M10.159,39.857c-1.11-1.109-2.078-2.352-2.919-3.686"/><path style="fill:none;stroke:#000000;stroke-width:4;stroke-miterlimit:10;" d="M5.198,31.938c-0.512-1.462-0.88-2.991-1.057-4.58"/><path style="fill:none;stroke:#000000;stroke-width:4;stroke-miterlimit:10;" d="M5.193,18.075c-0.511,1.462-0.878,2.991-1.055,4.581"/><path style="fill:none;stroke:#000000;stroke-width:4;stroke-miterlimit:10;" d="M10.148,10.153c-1.109,1.109-2.076,2.354-2.916,3.688"/><path style="fill:none;stroke:#000000;stroke-width:4;stroke-miterlimit:10;" d="M18.068,5.195c-1.496,0.524-2.913,1.209-4.233,2.041"/><polyline style="fill:none;stroke:#000000;stroke-width:4;stroke-miterlimit:10;" points="32.33,27.292 24.997,34.625 17.663,27.292 "/><line style="fill:none;stroke:#000000;stroke-width:4;stroke-miterlimit:10;" x1="25" y1="13" x2="24.997" y2="34.125"/></svg>