<?xml version="1.0" encoding="iso-8859-1"?>
<!-- Generator: Adobe Illustrator 22.1.0, SVG Export Plug-In . SVG Version: 6.00 Build 0)  -->
<svg version="1.1" id="Layer_1" xmlns="http://www.w3.org/2000/svg" xmlns:xlink="http://www.w3.org/1999/xlink" x="0px" y="0px"
	 viewBox="0 0 50 50" style="enable-background:new 0 0 50 50;" xml:space="preserve">
<polygon style="fill:none;stroke:#000000;stroke-width:2;stroke-linecap:round;stroke-linejoin:round;stroke-miterlimit:10;" points="
	33,49 20,25 33,2 46,25 "/>
<polyline style="fill:none;stroke:#000000;stroke-width:2;stroke-linecap:round;stroke-linejoin:round;stroke-miterlimit:10;" points="
	25,49 12,25 25,2 "/>
<g>
	<g>
		<path d="M17.001,50c-0.355,0-0.699-0.189-0.88-0.523l-0.714-1.319c-0.263-0.486-0.083-1.093,0.403-1.355
			c0.485-0.265,1.092-0.083,1.355,0.402l0.714,1.319c0.263,0.486,0.083,1.093-0.403,1.355C17.325,49.961,17.162,50,17.001,50z"/>
	</g>
	<g>
		<path d="M14.435,45.263c-0.355,0-0.699-0.189-0.88-0.523l-1.389-2.563c-0.263-0.486-0.083-1.093,0.403-1.355
			c0.485-0.265,1.093-0.083,1.356,0.402l1.389,2.563c0.263,0.486,0.083,1.093-0.403,1.355
			C14.759,45.224,14.596,45.263,14.435,45.263z M11.195,39.281c-0.355,0-0.699-0.189-0.88-0.523l-1.388-2.563
			c-0.263-0.486-0.083-1.093,0.403-1.355c0.485-0.265,1.092-0.083,1.355,0.402l1.388,2.563c0.263,0.486,0.083,1.093-0.403,1.355
			C11.519,39.242,11.355,39.281,11.195,39.281z M7.955,33.3c-0.355,0-0.699-0.189-0.88-0.523l-1.389-2.563
			c-0.263-0.486-0.083-1.093,0.403-1.355c0.486-0.265,1.092-0.083,1.356,0.402l1.389,2.563c0.263,0.486,0.083,1.093-0.403,1.355
			C8.279,33.261,8.116,33.3,7.955,33.3z"/>
	</g>
	<g>
		<path d="M4.715,27.319c-0.355,0-0.699-0.189-0.88-0.523l-0.714-1.32c-0.164-0.303-0.161-0.668,0.009-0.968l0.738-1.306
			c0.271-0.48,0.882-0.651,1.363-0.378c0.481,0.272,0.65,0.882,0.378,1.363L5.143,25.01l0.451,0.833
			c0.263,0.486,0.083,1.092-0.403,1.355C5.039,27.28,4.876,27.319,4.715,27.319z"/>
	</g>
	<g>
		<path d="M6.581,21.432c-0.167,0-0.335-0.042-0.491-0.129c-0.48-0.272-0.65-0.882-0.378-1.363l1.383-2.447
			c0.272-0.48,0.88-0.651,1.363-0.378c0.48,0.272,0.65,0.882,0.378,1.363l-1.383,2.447C7.269,21.25,6.93,21.432,6.581,21.432z
			 M9.808,15.723c-0.167,0-0.335-0.042-0.491-0.129c-0.48-0.272-0.65-0.882-0.378-1.363l1.383-2.446
			c0.272-0.48,0.881-0.649,1.363-0.378c0.48,0.272,0.65,0.882,0.378,1.363l-1.383,2.446C10.495,15.541,10.156,15.723,9.808,15.723z
			 M13.034,10.015c-0.167,0-0.335-0.042-0.491-0.129c-0.48-0.272-0.65-0.882-0.378-1.363l1.383-2.447
			c0.272-0.48,0.881-0.651,1.363-0.378c0.48,0.272,0.65,0.882,0.378,1.363l-1.383,2.447C13.722,9.832,13.383,10.015,13.034,10.015z"
			/>
	</g>
	<g>
		<path d="M16.261,4.306c-0.167,0-0.336-0.042-0.491-0.129c-0.481-0.272-0.65-0.882-0.378-1.363l0.738-1.306
			c0.272-0.48,0.882-0.65,1.363-0.378c0.481,0.272,0.65,0.882,0.378,1.363l-0.738,1.306C16.948,4.123,16.609,4.306,16.261,4.306z"/>
	</g>
</g>
</svg>