<?xml version="1.0" encoding="iso-8859-1"?><!-- Generator: Adobe Illustrator 23.0.3, SVG Export Plug-In . SVG Version: 6.00 Build 0)  --><svg xmlns="http://www.w3.org/2000/svg" xmlns:xlink="http://www.w3.org/1999/xlink" viewBox="0 0 50 50" width="500px" height="500px"><path style="fill:none;stroke:#000000;stroke-width:2;stroke-linecap:round;stroke-miterlimit:10;" d="M25,8c-1.657,0-3,1.343-3,3s1.343,3,3,3s3-1.343,3-3S26.657,8,25,8z"/><path style="fill:none;stroke:#000000;stroke-width:2;stroke-linecap:round;stroke-miterlimit:10;" d="M24.997,29l-3.656,10.975C21.138,40.587,20.565,41,19.92,41l0,0c-0.975,0-1.69-0.916-1.454-1.862L21,29v-7.441l-8.525-3.034c-0.819-0.292-1.255-1.185-0.98-2.01l0,0c0.279-0.837,1.183-1.289,2.02-1.01L21,18h4"/><g id="IOS_copy"><path d="M41.1,50H37l-0.5-3.2c-0.4-0.1-0.7-0.2-1.1-0.4l-2.7,1.8l-3-3l1.8-2.7c-0.2-0.3-0.3-0.7-0.4-1L28,41v-4.2l3.1-0.5c0.1-0.4,0.3-0.7,0.4-1.1l-1.8-2.5l3-3l2.7,1.9c0.3-0.2,0.7-0.3,1-0.4L37,28h4.2l0.5,3.2c0.3,0.1,0.7,0.2,1,0.4l2.6-1.9l2.9,2.9l-1.8,2.7c0.2,0.3,0.3,0.7,0.4,1l3.2,0.5V41l-3.1,0.6c-0.1,0.3-0.2,0.7-0.4,1.1l1.9,2.6l-3,3l-2.7-1.8c-0.4,0.2-0.7,0.3-1,0.4L41.1,50z M38.6,48h0.8l0.5-2.8l0.6-0.2c0.6-0.2,1.2-0.4,1.8-0.7l0.5-0.3l2.3,1.6l0.6-0.6L44,42.7l0.4-0.6c0.3-0.5,0.5-1.1,0.7-1.7l0.2-0.6l2.7-0.6v-0.8L45.2,38L45,37.4c-0.2-0.6-0.4-1.2-0.7-1.8L44,35.1l1.6-2.3l-0.5-0.5L42.8,34l-0.6-0.4c-0.5-0.3-1.1-0.5-1.7-0.7l-0.6-0.2L39.5,30h-0.8l-0.5,2.8l-0.6,0.1c-0.6,0.2-1.2,0.5-1.9,0.8l-0.5,0.2l-2.3-1.6l-0.6,0.6l1.6,2.3l-0.4,0.5c-0.3,0.5-0.5,1.1-0.6,1.6L32.8,38L30,38.5v0.8l2.7,0.5l0.2,0.6c0.2,0.5,0.4,1.2,0.7,1.8l0.3,0.5L32.3,45l0.6,0.6l2.4-1.6l0.6,0.4c0.5,0.3,1.1,0.5,1.7,0.7l0.6,0.2L38.6,48z M39,42.9c-2.2,0-4-1.8-4-4c0-2.2,1.8-4,4-4s4,1.8,4,4C43,41.2,41.2,42.9,39,42.9z M39,37c-1.1,0-2,0.9-2,2s0.9,2,2,2s2-0.9,2-2C41,37.8,40.1,37,39,37z"/></g><g><path d="M27.919,45.773C26.962,45.907,25.993,46,25,46C13.42,46,4,36.58,4,25S13.42,4,25,4s21,9.42,21,21c0,0.993-0.093,1.962-0.227,2.919c0.648,0.397,1.258,0.846,1.824,1.347C47.858,27.883,48,26.458,48,25C48,12.318,37.682,2,25,2S2,12.318,2,25s10.318,23,23,23c1.458,0,2.883-0.142,4.266-0.403C28.766,47.03,28.316,46.421,27.919,45.773z"/><path d="M26.327,36.137c0.24-1.067,0.613-2.083,1.098-3.033l-1.472-4.42c-0.174-0.524-0.741-0.81-1.265-0.633c-0.524,0.174-0.808,0.741-0.633,1.265L26.327,36.137z"/><path d="M38.151,14.697c-0.621-0.311-1.325-0.361-1.983-0.141L28.838,17H25c-0.552,0-1,0.448-1,1s0.448,1,1,1h4.162l7.639-2.546c0.152-0.05,0.313-0.039,0.456,0.032c0.143,0.071,0.249,0.194,0.299,0.346c0.102,0.306-0.063,0.643-0.367,0.751L28,20.854V29l0.562,2.275c0.476-0.642,1.008-1.238,1.592-1.782L30,28.877v-6.612l7.861-2.798c1.322-0.471,2.036-1.937,1.593-3.268C39.234,15.541,38.772,15.007,38.151,14.697z"/></g></svg>