<?xml version="1.0" encoding="iso-8859-1"?><!-- Generator: Adobe Illustrator 21.0.2, SVG Export Plug-In . SVG Version: 6.00 Build 0)  --><svg xmlns="http://www.w3.org/2000/svg" xmlns:xlink="http://www.w3.org/1999/xlink" viewBox="0 0 50 50" width="50px" height="50px"><path d="M24,6.004h-5c-1.654,0-3,1.346-3,3V11h11V9.004C27,7.35,25.654,6.004,24,6.004z"/><path d="M31,40c0-4.971,4.029-9,9-9c2.829,0,5.35,1.308,7,3.349V15c0-1.103-0.897-2-2-2H14V9.004c0-1.654-1.346-3-3-3H6c-1.654,0-3,1.346-3,3V15h0.012v26c0,1.103,0.897,2,2,2h26.511C31.19,42.06,31,41.053,31,40z"/><path d="M37,6.004h-5c-1.654,0-3,1.346-3,3V11h11V9.004C40,7.35,38.654,6.004,37,6.004z"/><g><g><g id="IOS_copy_1_"><path d="M44.2,37.2L41.4,40l2.8,2.8c0.4,0.4,0.4,1,0,1.4c-0.2,0.2-0.5,0.3-0.7,0.3s-0.5-0.1-0.7-0.3L40,41.4l-2.8,2.8c-0.2,0.2-0.5,0.3-0.7,0.3s-0.5-0.1-0.7-0.3c-0.4-0.4-0.4-1,0-1.4l2.8-2.8l-2.8-2.8c-0.4-0.4-0.4-1,0-1.4s1-0.4,1.4,0l2.8,2.8l2.8-2.8c0.4-0.4,1-0.4,1.4,0S44.6,36.8,44.2,37.2z M50,40c0,5.5-4.5,10-10,10s-10-4.5-10-10s4.5-10,10-10S50,34.5,50,40z M48,40c0-4.4-3.6-8-8-8s-8,3.6-8,8s3.6,8,8,8S48,44.4,48,40z"/></g></g></g></svg>