<?xml version="1.0" encoding="iso-8859-1"?>
<!-- Generator: Adobe Illustrator 28.2.0, SVG Export Plug-In . SVG Version: 6.00 Build 0)  -->
<svg version="1.1" baseProfile="basic" id="Layer_1"
	 xmlns="http://www.w3.org/2000/svg" xmlns:xlink="http://www.w3.org/1999/xlink" x="0px" y="0px" viewBox="0 0 24 24"
	 xml:space="preserve">
<g>
	<path d="M20.889,18.86c-0.084-0.137-2.108-3.361-6.718-4.825C14.098,14.012,14.021,14,13.944,14h-3.889
		c-0.077,0-0.153,0.012-0.227,0.035c-4.609,1.463-6.634,4.688-6.718,4.825C3.038,18.978,3,19.114,3,19.252v0.998
		C3,20.664,3.336,21,3.75,21h16.5c0.414,0,0.75-0.336,0.75-0.75v-0.998C21,19.114,20.962,18.978,20.889,18.86z"/>
	<path d="M12,11c2.206,0,4-1.794,4-4V6c0-2.206-1.794-4-4-4S8,3.794,8,6v1C8,9.206,9.794,11,12,11z"/>
</g>
</svg>