<?xml version="1.0" encoding="iso-8859-1"?><!-- Generator: Adobe Illustrator 21.1.0, SVG Export Plug-In . SVG Version: 6.00 Build 0)  --><svg xmlns="http://www.w3.org/2000/svg" xmlns:xlink="http://www.w3.org/1999/xlink" viewBox="0 0 50 50" width="50px" height="50px"><line style="fill:none;stroke:#000000;stroke-width:4;stroke-miterlimit:10;" x1="37.5" y1="37.5" x2="46" y2="46"/><polyline style="fill:none;stroke:#000000;stroke-width:4;stroke-linecap:round;stroke-miterlimit:10;" points="3,35.611 10.132,37.79 11.123,30.46 "/><path style="fill:none;stroke:#000000;stroke-width:4;stroke-miterlimit:10;" d="M10,36.9C6.9,33.5,5,29,5,24C5,13.5,13.5,5,24,5"/><polyline style="fill:none;stroke:#000000;stroke-width:4;stroke-linecap:round;stroke-miterlimit:10;" points="45,12.389 37.868,10.21 36.877,17.54 "/><path style="fill:none;stroke:#000000;stroke-width:4;stroke-miterlimit:10;" d="M38,11.1c3.1,3.4,5,7.9,5,12.9c0,10.5-8.5,19-19,19"/><path d="M23,45v-4h4l-2,4l0,0l0,0C23,45,25,45,23,45z M16.43,43.27l-1.84-0.779l1.56-3.681l1.841,0.78v-0.01l1.84,0.779l-1.55,3.69C16.43,43.27,18.28,44.05,16.43,43.27z"/><path d="M26,3v4h-4l2-4l0,0l0,0C26,3,24,3,26,3z M32.57,4.73l1.84,0.779l-1.56,3.681L31.01,8.41v0.01l-1.84-0.779l1.55-3.69C32.57,4.73,30.72,3.95,32.57,4.73z"/></svg>