<?xml version="1.0" encoding="utf-8"?><!-- Generator: Adobe Illustrator 18.1.0, SVG Export Plug-In . SVG Version: 6.00 Build 0)  --><svg xmlns="http://www.w3.org/2000/svg" xmlns:xlink="http://www.w3.org/1999/xlink" viewBox="0 0 50 50" width="500px" height="500px"><path fill="none" stroke="#000000" stroke-width="2" stroke-miterlimit="10" d="M32,50v-6.3l3.1,0.2c4.3,0.4,7.9-3,7.9-7.3v-5.4l4-2c0.9-0.5,1.2-1.6,0.7-2.5l-4.7-8.1C41.9,9.3,37,1,23,1S3,10.5,3,21c0,4.2,1.3,8.1,3.5,11.3c2.2,3.2,3.5,7,3.5,10.9V50"/><circle fill="none" stroke="#000000" stroke-width="2" stroke-miterlimit="10" cx="23" cy="25" r="7"/><circle fill="none" stroke="#000000" stroke-width="2" stroke-miterlimit="10" cx="23" cy="25" r="3"/><circle fill="none" stroke="#000000" stroke-width="2" stroke-miterlimit="10" cx="36" cy="36" r="2"/><line fill="none" stroke="#000000" stroke-width="2" stroke-miterlimit="10" x1="21" y1="18" x2="21" y2="1"/><line fill="none" stroke="#000000" stroke-width="2" stroke-miterlimit="10" x1="25" y1="18" x2="25" y2="1"/><line fill="none" stroke="#000000" stroke-width="2" stroke-miterlimit="10" x1="28" y1="30" x2="34.5" y2="34.5"/></svg>