<?xml version="1.0" encoding="iso-8859-1"?><!-- Generator: Adobe Illustrator 21.1.0, SVG Export Plug-In . SVG Version: 6.00 Build 0)  --><svg xmlns="http://www.w3.org/2000/svg" xmlns:xlink="http://www.w3.org/1999/xlink" viewBox="0 0 50 50" width="500px" height="500px"><path d="M23.475,37.999c-0.286,0-0.475-0.151-0.475-0.376V20.376C23,20.151,23.191,20,23.475,20h3.048C26.81,20,27,20.151,27,20.376v17.248C27,37.849,26.809,38,26.523,38h-3.048V37.999z"/><path style="fill:none;stroke:#000000;stroke-width:2;stroke-linecap:round;stroke-linejoin:round;stroke-miterlimit:10;" d="M9,5h32c2.209,0,4,1.791,4,4v32c0,2.209-1.791,4-4,4H9c-2.209,0-4-1.791-4-4V9C5,6.791,6.791,5,9,5z"/><path d="M23.452,16C23.179,16,23,15.827,23,15.57V12.43c0-0.258,0.18-0.43,0.452-0.43h3.093C26.817,12,27,12.173,27,12.43v3.139c0,0.258-0.183,0.43-0.455,0.43H23.452z"/></svg>