<?xml version="1.0" encoding="iso-8859-1"?><!-- Generator: Adobe Illustrator 23.0.3, SVG Export Plug-In . SVG Version: 6.00 Build 0)  --><svg xmlns="http://www.w3.org/2000/svg" xmlns:xlink="http://www.w3.org/1999/xlink" viewBox="0 0 50 50" width="500px" height="500px"><path style="fill:none;stroke:#000000;stroke-width:2;stroke-miterlimit:10;" d="M44.2,6H5.8C4.8,6,4,6.8,4,7.8V13h42V7.8C46,6.8,45.2,6,44.2,6z"/><line style="fill:none;stroke:#000000;stroke-width:2;stroke-linejoin:round;stroke-miterlimit:10;" x1="15" y1="21" x2="40" y2="21"/><g><circle cx="10" cy="21" r="1"/><circle cx="10" cy="28" r="1"/><circle cx="10" cy="35" r="1"/></g><path d="M50,35.601l-3.355-1.773l-0.656-3.727l-3.76,0.53L39.5,28l-2.729,2.63l-3.76-0.53l-0.656,3.727L29,35.6l1.668,3.4L29,42.399l3.355,1.773l0.656,3.727l3.76-0.53L39.5,50l2.729-2.63l3.76,0.53l0.656-3.727L50,42.4L48.332,39L50,35.601z M45.703,42.408l-0.867,0.458l-0.17,0.963l-0.32,1.821l-1.837-0.259l-0.971-0.137l-0.706,0.68l-1.334,1.285l-1.334-1.286l-0.706-0.68l-0.971,0.137l-1.837,0.259l-0.32-1.821l-0.17-0.963l-0.867-0.458l-1.639-0.867l0.815-1.661L32.902,39l-0.431-0.879l-0.815-1.662l1.64-0.867l0.867-0.458l0.17-0.963l0.32-1.821l1.837,0.259l0.971,0.137l0.706-0.68l1.332-1.283l1.334,1.286l0.706,0.68l0.971-0.137l1.837-0.259l0.32,1.821l0.17,0.963l0.867,0.458l1.639,0.866l-0.815,1.661L46.098,39l0.431,0.879l0.815,1.662L45.703,42.408z"/><g><rect x="15" y="27" width="16" height="2"/><path d="M47,27V13c0-0.553-0.448-1-1-1s-1,0.447-1,1v14H47z"/><rect x="15" y="34" width="12" height="2"/><path d="M27,43H5V13c0-0.553-0.448-1-1-1s-1,0.447-1,1v31c0,0.553,0.448,1,1,1h23V43z"/></g></svg>