<?xml version="1.0" encoding="utf-8"?><!-- Generator: Adobe Illustrator 15.0.0, SVG Export Plug-In . SVG Version: 6.00 Build 0)  --><!DOCTYPE svg PUBLIC "-//W3C//DTD SVG 1.1//EN" "http://www.w3.org/Graphics/SVG/1.1/DTD/svg11.dtd"><svg xmlns="http://www.w3.org/2000/svg" xmlns:xlink="http://www.w3.org/1999/xlink" viewBox="0 0 50 50" width="50px" height="50px"><path d="M44,4h-1v41c0,1.654-1.346,3-3,3H9v1c0,0.553,0.448,1,1,1h34c0.553,0,1-0.447,1-1V5C45,4.449,44.553,4,44,4z"/><path d="M40,0H6C5.448,0,5,0.449,5,1v44c0,0.553,0.448,1,1,1h34c0.553,0,1-0.447,1-1V1C41,0.449,40.553,0,40,0z M24.9,35c0,0.201-0.1,0.4-0.4,0.4h-2.7c-0.2,0-0.4-0.1-0.4-0.4v-3.1c0-0.199,0.1-0.4,0.4-0.4h2.7c0.2,0,0.4,0.1,0.4,0.4V35z M27.9,21.3l-2.4,3.3c-0.7,1-0.9,1.499-0.9,2.7v1.1c0,0.199-0.1,0.4-0.4,0.4h-2.4c-0.1,0-0.3-0.201-0.3-0.4v-1.5c0-1.4,0.3-2.2,1.1-3.2l2.4-3.3c1.3-1.7,1.7-2.5,1.7-3.8c0-2-1.4-3.3-3.5-3.3c-2,0-3.3,1.2-3.7,3.4c0,0.2-0.2,0.3-0.4,0.3l-2.3-0.4c-0.2,0-0.3-0.2-0.3-0.4c0.5-3.4,3-5.7,6.7-5.7c3.899,0,6.5,2.5,6.5,6.1C29.7,18.3,29.1,19.601,27.9,21.3z"/></svg>