<?xml version="1.0" encoding="iso-8859-1"?><!-- Generator: Adobe Illustrator 19.1.1, SVG Export Plug-In . SVG Version: 6.00 Build 0)  --><svg xmlns="http://www.w3.org/2000/svg" xmlns:xlink="http://www.w3.org/1999/xlink" viewBox="0 0 50 50" width="50px" height="50px"><polyline style="fill:none;stroke:#000000;stroke-width:2;stroke-linecap:round;stroke-miterlimit:10;" points="19,20 23.943,25 19,30 "/><line style="fill:none;stroke:#000000;stroke-width:2;stroke-linecap:round;stroke-miterlimit:10;" x1="23.338" y1="25" x2="9" y2="25"/><path d="M45,6H5C3.346,6,2,7.346,2,9v32c0,1.654,1.346,3,3,3h40c1.654,0,3-1.346,3-3V9C48,7.346,46.654,6,45,6z M29,42H5c-0.552,0-1-0.448-1-1V9c0-0.552,0.448-1,1-1h24V42z"/></svg>