<?xml version="1.0" encoding="iso-8859-1"?><!-- Generator: Adobe Illustrator 23.0.3, SVG Export Plug-In . SVG Version: 6.00 Build 0)  --><svg xmlns="http://www.w3.org/2000/svg" xmlns:xlink="http://www.w3.org/1999/xlink" viewBox="0 0 50 50" width="50px" height="50px"><circle cx="25" cy="22" r="2"/><line style="fill:none;stroke:#000000;stroke-width:2;stroke-linecap:round;stroke-linejoin:round;stroke-miterlimit:10;" x1="2.8" y1="1.8" x2="47.2" y2="46.2"/><g><path d="M19.423,19.808C20.303,17.585,22.473,16,25,16c3.3,0,6,2.7,6,6c0,0.696-0.119,1.367-0.335,2h13.209C43.958,23.314,44,22.655,44,22c0-10.477-8.523-19-19-19c-6.1,0-11.523,2.901-15.002,7.384L19.423,19.808z"/><path d="M30.614,31H31c0.553,0,1,0.447,1,1c0,0.114-0.03,0.219-0.065,0.321l14.542,14.542C46.784,46.692,47,46.377,47,46V27c0-0.553-0.447-1-1-1H25.614L30.614,31z"/><path d="M29.786,33H19c-0.553,0-1-0.447-1-1s0.447-1,1-1h8.786l-5-5H4c-0.553,0-1,0.447-1,1v19c0,0.553,0.447,1,1,1h39.786L29.786,33z"/><path d="M6,22c0,0.655,0.042,1.314,0.126,2h13.243c-0.202-0.56-0.318-1.153-0.346-1.763L8.841,12.055C7.052,14.952,6,18.352,6,22z"/></g></svg>