<?xml version="1.0" encoding="iso-8859-1"?><!-- Generator: Adobe Illustrator 22.1.0, SVG Export Plug-In . SVG Version: 6.00 Build 0)  --><svg xmlns="http://www.w3.org/2000/svg" xmlns:xlink="http://www.w3.org/1999/xlink" viewBox="0 0 50 50" width="50px" height="50px"><polyline style="fill:none;stroke:#000000;stroke-width:2;stroke-linecap:round;stroke-linejoin:round;stroke-miterlimit:10;" points="30,23 25,18 30,13 "/><path d="M45,5H5C3.346,5,2,6.346,2,8v34c0,1.654,1.346,3,3,3h40c1.654,0,3-1.346,3-3V8C48,6.346,46.654,5,45,5z M7,25c-0.552,0-1-0.448-1-1c0-0.552,0.448-1,1-1s1,0.448,1,1C8,24.552,7.552,25,7,25z M7,21c-0.552,0-1-0.448-1-1c0-0.552,0.448-1,1-1s1,0.448,1,1C8,20.552,7.552,21,7,21z M7,17c-0.552,0-1-0.448-1-1c0-0.552,0.448-1,1-1s1,0.448,1,1C8,16.552,7.552,17,7,17z M7,13c-0.552,0-1-0.448-1-1c0-0.552,0.448-1,1-1s1,0.448,1,1C8,12.552,7.552,13,7,13z M16,25h-5c-0.553,0-1-0.447-1-1s0.447-1,1-1h5c0.553,0,1,0.447,1,1S16.553,25,16,25z M16,21h-5c-0.553,0-1-0.447-1-1s0.447-1,1-1h5c0.553,0,1,0.447,1,1S16.553,21,16,21z M16,17h-5c-0.553,0-1-0.447-1-1s0.447-1,1-1h5c0.553,0,1,0.447,1,1S16.553,17,16,17z M16,13h-5c-0.553,0-1-0.447-1-1s0.447-1,1-1h5c0.553,0,1,0.447,1,1S16.553,13,16,13z M46,42c0,0.552-0.448,1-1,1H21V7h24c0.552,0,1,0.448,1,1V42z"/></svg>