<?xml version="1.0" encoding="utf-8"?><!-- Generator: Adobe Illustrator 18.1.0, SVG Export Plug-In . SVG Version: 6.00 Build 0)  --><!DOCTYPE svg PUBLIC "-//W3C//DTD SVG 1.1//EN" "http://www.w3.org/Graphics/SVG/1.1/DTD/svg11.dtd"><svg xmlns="http://www.w3.org/2000/svg" xmlns:xlink="http://www.w3.org/1999/xlink" viewBox="0 0 50 50" width="500px" height="500px"><g><circle cx="20" cy="29" r="1"/><circle cx="24" cy="29" r="1"/><circle cx="22" cy="31" r="1"/><circle cx="26" cy="31" r="1"/><circle cx="28" cy="29" r="1"/><circle cx="32" cy="29" r="1"/><circle cx="30" cy="31" r="1"/><circle cx="34" cy="31" r="1"/><circle cx="36" cy="29" r="1"/><circle cx="40" cy="29" r="1"/><circle cx="38" cy="31" r="1"/><circle cx="42" cy="31" r="1"/><circle cx="44" cy="29" r="1"/><circle cx="48" cy="29" r="1"/><circle cx="46" cy="31" r="1"/><circle cx="20" cy="33" r="1"/><circle cx="24" cy="33" r="1"/><circle cx="22" cy="35" r="1"/><circle cx="28" cy="33" r="1"/><circle cx="32" cy="33" r="1"/><circle cx="34" cy="35" r="1"/><circle cx="36" cy="33" r="1"/><circle cx="40" cy="33" r="1"/><circle cx="44" cy="33" r="1"/><circle cx="48" cy="33" r="1"/><circle cx="46" cy="35" r="1"/><circle cx="20" cy="37" r="1"/><circle cx="22" cy="39" r="1"/><circle cx="32" cy="37" r="1"/><circle cx="34" cy="39" r="1"/><circle cx="36" cy="37" r="1"/><circle cx="48" cy="37" r="1"/><circle cx="46" cy="39" r="1"/><circle cx="20" cy="41" r="1"/><circle cx="22" cy="43" r="1"/><circle cx="32" cy="41" r="1"/><circle cx="34" cy="43" r="1"/><circle cx="36" cy="41" r="1"/><circle cx="48" cy="41" r="1"/><circle cx="46" cy="43" r="1"/><circle cx="20" cy="45" r="1"/><circle cx="24" cy="45" r="1"/><circle cx="22" cy="47" r="1"/><circle cx="26" cy="47" r="1"/><circle cx="28" cy="45" r="1"/><circle cx="32" cy="45" r="1"/><circle cx="30" cy="47" r="1"/><circle cx="34" cy="47" r="1"/><circle cx="36" cy="45" r="1"/><circle cx="40" cy="45" r="1"/><circle cx="38" cy="47" r="1"/><circle cx="42" cy="47" r="1"/><circle cx="44" cy="45" r="1"/><circle cx="48" cy="45" r="1"/><circle cx="46" cy="47" r="1"/></g><g><circle cx="3" cy="2" r="1"/><circle cx="7" cy="2" r="1"/><circle cx="5" cy="4" r="1"/><circle cx="9" cy="4" r="1"/><circle cx="11" cy="2" r="1"/><circle cx="15" cy="2" r="1"/><circle cx="13" cy="4" r="1"/><circle cx="17" cy="4" r="1"/><circle cx="19" cy="2" r="1"/><circle cx="23" cy="2" r="1"/><circle cx="21" cy="4" r="1"/><circle cx="25" cy="4" r="1"/><circle cx="27" cy="2" r="1"/><circle cx="31" cy="2" r="1"/><circle cx="29" cy="4" r="1"/><circle cx="3" cy="6" r="1"/><circle cx="7" cy="6" r="1"/><circle cx="11" cy="6" r="1"/><circle cx="15" cy="6" r="1"/><circle cx="19" cy="6" r="1"/><circle cx="23" cy="6" r="1"/><circle cx="27" cy="6" r="1"/><circle cx="31" cy="6" r="1"/><circle cx="9" cy="20" r="1"/><circle cx="9" cy="16" r="1"/><circle cx="11" cy="14" r="1"/><circle cx="13" cy="16" r="1"/><circle cx="21" cy="16" r="1"/><circle cx="25" cy="16" r="1"/><circle cx="23" cy="14" r="1"/><circle cx="27" cy="14" r="1"/><circle cx="11" cy="18" r="1"/><circle cx="13" cy="20" r="1"/><circle cx="23" cy="18" r="1"/><circle cx="27" cy="18" r="1"/></g><path fill="none" stroke="#000000" stroke-width="2" stroke-miterlimit="10" d="M48,49H20c-0.6,0-1-0.4-1-1V22c0-0.6,0.4-1,1-1h28c0.6,0,1,0.4,1,1v26C49,48.6,48.6,49,48,49z"/><path fill="none" stroke="#000000" stroke-width="2" stroke-miterlimit="10" d="M49,27H19"/><path fill="none" stroke="#000000" stroke-width="2" stroke-miterlimit="10" d="M17,29H3c-1.1,0-2-0.9-2-2V3c0-1.1,0.9-2,2-2h28c1.1,0,2,0.9,2,2v16"/><path fill="none" stroke="#000000" stroke-width="2" stroke-miterlimit="10" d="M1,7h32"/><path fill="none" stroke="#000000" stroke-width="2" stroke-miterlimit="10" d="M30,43h-5c-0.6,0-1-0.4-1-1v-6c0-0.6,0.4-1,1-1h5c0.6,0,1,0.4,1,1v6C31,42.6,30.6,43,30,43z"/><path fill="none" stroke="#000000" stroke-width="2" stroke-miterlimit="10" d="M13,21H8c-0.6,0-1-0.4-1-1v-6c0-0.6,0.4-1,1-1h5c0.6,0,1,0.4,1,1v6C14,20.6,13.6,21,13,21z"/><path fill="none" stroke="#000000" stroke-width="2" stroke-miterlimit="10" d="M20,19v-5c0-0.6,0.4-1,1-1h5c0.6,0,1,0.4,1,1v5"/><path fill="none" stroke="#000000" stroke-width="2" stroke-miterlimit="10" d="M43,43h-5c-0.6,0-1-0.4-1-1v-6c0-0.6,0.4-1,1-1h5c0.6,0,1,0.4,1,1v6C44,42.6,43.6,43,43,43z"/></svg>