<?xml version="1.0" encoding="utf-8"?><!-- Generator: Adobe Illustrator 18.1.1, SVG Export Plug-In . SVG Version: 6.00 Build 0)  --><svg xmlns="http://www.w3.org/2000/svg" xmlns:xlink="http://www.w3.org/1999/xlink" viewBox="0 0 50 50" width="50px" height="50px"><path d="M0,33v9c0,1.7,1.3,3,3,3h44c1.7,0,3-1.3,3-3v-9H0z M7,41c-1.1,0-2-0.9-2-2s0.9-2,2-2s2,0.9,2,2S8.1,41,7,41z M14,41c-1.1,0-2-0.9-2-2s0.9-2,2-2s2,0.9,2,2S15.1,41,14,41z M45,41H20v-4h25V41z"/><path fill="none" stroke="#000000" stroke-width="2" stroke-linecap="round" stroke-linejoin="round" stroke-miterlimit="10" d="M3,6h44c1.1,0,2,0.9,2,2v26H1V8C1,6.9,1.9,6,3,6z"/></svg>