<?xml version="1.0" encoding="iso-8859-1"?><!-- Generator: Adobe Illustrator 22.0.1, SVG Export Plug-In . SVG Version: 6.00 Build 0)  --><svg xmlns="http://www.w3.org/2000/svg" xmlns:xlink="http://www.w3.org/1999/xlink" viewBox="0 0 50 50" width="50px" height="50px"><g><g><path d="M44.426,37.052H5.574c-3.102,0-5.625-2.524-5.625-5.626V19.574c0-3.102,2.523-5.625,5.625-5.625h38.852c3.102,0,5.626,2.523,5.626,5.625v11.852C50.052,34.527,47.527,37.052,44.426,37.052z M5.574,16.051c-1.942,0-3.523,1.581-3.523,3.523v11.852c0,1.942,1.581,3.522,3.523,3.522h38.852c1.942,0,3.522-1.58,3.522-3.522V19.574c0-1.942-1.58-3.523-3.522-3.523H5.574z"/></g><g><rect x="30.501" y="16" width="2.09" height="19"/></g><g><path d="M31.545,37H7.571C3.942,37,1,34.058,1,30.429V20.049C1,16.708,3.708,14,7.049,14h24.496V37z"/></g></g></svg>