<?xml version="1.0" encoding="iso-8859-1"?><!-- Generator: Adobe Illustrator 23.0.3, SVG Export Plug-In . SVG Version: 6.00 Build 0)  --><svg xmlns="http://www.w3.org/2000/svg" xmlns:xlink="http://www.w3.org/1999/xlink" viewBox="0 0 50 50" width="500px" height="500px"><line style="fill:none;stroke:#000000;stroke-width:2;stroke-miterlimit:10;" x1="6" y1="14" x2="46" y2="14"/><circle cx="9" cy="11" r="1"/><circle cx="12" cy="11" r="1"/><circle cx="15" cy="11" r="1"/><polyline style="fill:none;stroke:#000000;stroke-width:2;stroke-linecap:round;stroke-linejoin:round;stroke-miterlimit:10;" points="45,41 49,45 45,49 "/><line style="fill:none;stroke:#000000;stroke-width:2;stroke-linecap:round;stroke-linejoin:round;stroke-miterlimit:10;" x1="33" y1="45" x2="49" y2="45"/><polyline style="fill:none;stroke:#000000;stroke-width:2;stroke-linecap:round;stroke-linejoin:round;stroke-miterlimit:10;" points="37,39 33,35 37,31 "/><line style="fill:none;stroke:#000000;stroke-width:2;stroke-linecap:round;stroke-linejoin:round;stroke-miterlimit:10;" x1="33" y1="35" x2="49" y2="35"/><path d="M44,7H8c-1.654,0-3,1.346-3,3v30c0,1.654,1.346,3,3,3h22v-2H8c-0.552,0-1-0.449-1-1V10c0-0.551,0.448-1,1-1h36c0.552,0,1,0.449,1,1v22h2V10C47,8.346,45.654,7,44,7z"/></svg>