<?xml version="1.0" encoding="iso-8859-1"?>
<!-- Generator: Adobe Illustrator 23.0.3, SVG Export Plug-In . SVG Version: 6.00 Build 0)  -->
<svg version="1.1" id="Layer_1" xmlns="http://www.w3.org/2000/svg" xmlns:xlink="http://www.w3.org/1999/xlink" x="0px" y="0px"
	 viewBox="0 0 50 50" style="enable-background:new 0 0 50 50;" xml:space="preserve">
<path d="M44,3H30c-0.553,0-1,0.448-1,1v14c0,0.552,0.447,1,1,1h14c0.553,0,1-0.448,1-1V4C45,3.448,44.553,3,44,3z"/>
<path d="M11,19h2.011v-1c0-1.409,0.6-2.76,1.645-3.707c0.487-0.441,1.055-0.769,1.664-0.988l-2.97-2.546l1.301-1.519l2.76,2.365
	l3.847-4.274l1.486,1.338l-3.968,4.409c2.395,0.38,4.236,2.542,4.236,5.065V19H25c0.553,0,1-0.448,1-1V4c0-0.552-0.447-1-1-1H11
	c-0.553,0-1,0.448-1,1v14C10,18.552,10.447,19,11,19z"/>
<g>
	<path d="M33.318,28.015c-0.842-0.082-1.692,0.192-2.32,0.76c-0.002,0.002-0.005,0.004-0.008,0.007
		c-0.161-1.443-1.276-2.627-2.672-2.767c-0.843-0.08-1.692,0.192-2.32,0.76c-0.071,0.064-0.14,0.132-0.203,0.203
		c-0.408-1.059-1.352-1.851-2.477-1.963c-0.837-0.08-1.681,0.188-2.308,0.749v-7.622c0-1.603-1.183-2.976-2.692-3.127
		c-0.841-0.082-1.692,0.192-2.32,0.76c-0.627,0.568-0.987,1.379-0.987,2.225v17.257l-4.788-4.788
		c-1.133-1.132-2.939-1.27-4.115-0.308c-0.659,0.539-1.062,1.333-1.104,2.177c-0.042,0.846,0.276,1.674,0.875,2.273l10.522,10.492
		C17.628,46.326,19.258,47,20.991,47h8.52c3.584,0,6.5-2.916,6.5-6.5v-9.357C36.011,29.54,34.828,28.167,33.318,28.015z"/>
</g>
</svg>