<?xml version="1.0" encoding="iso-8859-1"?><!-- Generator: Adobe Illustrator 23.0.3, SVG Export Plug-In . SVG Version: 6.00 Build 0)  --><svg xmlns="http://www.w3.org/2000/svg" xmlns:xlink="http://www.w3.org/1999/xlink" viewBox="0 0 50 50" width="50px" height="50px"><path d="M43,7H7c-1.654,0-3,1.346-3,3v30c0,1.654,1.346,3,3,3h20.266c0.683-0.827,1.603-1.458,2.673-1.777l0.05-0.015l0.051-0.012l0.266-0.064L30.824,41H7c-0.552,0-1-0.449-1-1V15h38v9.445l2-0.409V10C46,8.346,44.654,7,43,7z M8,12c-0.552,0-1-0.448-1-1c0-0.552,0.448-1,1-1s1,0.448,1,1C9,11.552,8.552,12,8,12z M11,12c-0.552,0-1-0.448-1-1c0-0.552,0.448-1,1-1s1,0.448,1,1C12,11.552,11.552,12,11,12z M14,12c-0.552,0-1-0.448-1-1c0-0.552,0.448-1,1-1s1,0.448,1,1C15,11.552,14.552,12,14,12z"/><path d="M48.826,25.5L36.13,28.094C35.476,28.209,35,28.777,35,29.441v11.782c0,0.457-0.31,0.856-0.753,0.969L30.8,43.07l-0.29,0.07c-1.31,0.39-2.3,1.52-2.48,2.91c-0.043,0.324-0.04,0.648,0.01,0.973C28.313,48.786,29.98,50,31.765,50h0.101C34.701,50,37,47.701,37,44.866V33.631l11-2.257v6.85c0,0.457-0.31,0.856-0.753,0.969L43.8,40.07l-0.29,0.07c-1.31,0.39-2.3,1.52-2.48,2.91c-0.043,0.324-0.04,0.648,0.01,0.973C41.313,45.786,42.98,47,44.765,47h0.101C47.701,47,50,44.701,50,41.866V26.485C50,25.863,49.439,25.392,48.826,25.5z"/></svg>