<?xml version="1.0" encoding="iso-8859-1"?>
<!-- Generator: Adobe Illustrator 24.2.0, SVG Export Plug-In . SVG Version: 6.00 Build 0)  -->
<svg version="1.1" id="Layer_1" xmlns="http://www.w3.org/2000/svg" xmlns:xlink="http://www.w3.org/1999/xlink" x="0px" y="0px"
	 viewBox="0 0 50 50" style="enable-background:new 0 0 50 50;" xml:space="preserve">
<line style="fill:none;stroke:#000000;stroke-width:2;stroke-miterlimit:10;" x1="23" y1="8" x2="27" y2="8"/>
<line style="fill:none;stroke:#000000;stroke-width:2;stroke-miterlimit:10;" x1="23" y1="12" x2="27" y2="12"/>
<line style="fill:none;stroke:#000000;stroke-width:2;stroke-miterlimit:10;" x1="23" y1="38" x2="27" y2="38"/>
<line style="fill:none;stroke:#000000;stroke-width:2;stroke-miterlimit:10;" x1="23" y1="42" x2="27" y2="42"/>
<line style="fill:none;stroke:#000000;stroke-width:2;stroke-miterlimit:10;" x1="8" y1="27" x2="8" y2="23"/>
<line style="fill:none;stroke:#000000;stroke-width:2;stroke-miterlimit:10;" x1="12" y1="27" x2="12" y2="23"/>
<path style="fill:none;stroke:#000000;stroke-width:2;stroke-miterlimit:10;" d="M17.222,14.393l-2.829,2.829 M14.393,11.565
	l-2.828,2.828"/>
<path style="fill:none;stroke:#000000;stroke-width:2;stroke-miterlimit:10;" d="M14.393,38.435l-2.828-2.828 M17.222,35.607
	l-2.829-2.829"/>
<path style="fill:none;stroke:#000000;stroke-width:2;stroke-miterlimit:10;" d="M27,6c0-1.105-0.895-2-2-2s-2,0.895-2,2
	c0,0.366,0,7.634,0,8c0,1.105,0.895,2,2,2s2-0.895,2-2C27,13.634,27,6.366,27,6z"/>
<path style="fill:none;stroke:#000000;stroke-width:2;stroke-miterlimit:10;" d="M27,36c0-1.105-0.895-2-2-2s-2,0.895-2,2
	c0,0.366,0,7.634,0,8c0,1.105,0.895,2,2,2s2-0.895,2-2C27,43.634,27,36.366,27,36z"/>
<path style="fill:none;stroke:#000000;stroke-width:2;stroke-miterlimit:10;" d="M44,27c1.105,0,2-0.895,2-2s-0.895-2-2-2
	c-0.366,0-7.634,0-8,0c-1.105,0-2,0.895-2,2s0.895,2,2,2C36.366,27,43.634,27,44,27z"/>
<path style="fill:none;stroke:#000000;stroke-width:2;stroke-miterlimit:10;" d="M14,27c1.105,0,2-0.895,2-2s-0.895-2-2-2
	c-0.366,0-7.634,0-8,0c-1.105,0-2,0.895-2,2s0.895,2,2,2C6.366,27,13.634,27,14,27z"/>
<path style="fill:none;stroke:#000000;stroke-width:2;stroke-miterlimit:10;" d="M39.849,12.979c0.781-0.781,0.781-2.047,0-2.828
	s-2.047-0.781-2.828,0c-0.259,0.259-5.398,5.398-5.657,5.657c-0.781,0.781-0.781,2.047,0,2.828c0.781,0.781,2.047,0.781,2.828,0
	C34.451,18.377,39.59,13.238,39.849,12.979z"/>
<path style="fill:none;stroke:#000000;stroke-width:2;stroke-miterlimit:10;" d="M18.636,34.192c0.781-0.781,0.781-2.047,0-2.828
	c-0.781-0.781-2.047-0.781-2.828,0c-0.259,0.259-5.398,5.398-5.657,5.657c-0.781,0.781-0.781,2.047,0,2.828s2.047,0.781,2.828,0
	C13.238,39.59,18.377,34.451,18.636,34.192z"/>
<path style="fill:none;stroke:#000000;stroke-width:2;stroke-miterlimit:10;" d="M37.021,39.849c0.781,0.781,2.047,0.781,2.828,0
	s0.781-2.047,0-2.828c-0.259-0.259-5.398-5.398-5.657-5.657c-0.781-0.781-2.047-0.781-2.828,0s-0.781,2.047,0,2.828
	C31.623,34.451,36.762,39.59,37.021,39.849z"/>
<path style="fill:none;stroke:#000000;stroke-width:2;stroke-miterlimit:10;" d="M15.808,18.636c0.781,0.781,2.047,0.781,2.828,0
	c0.781-0.781,0.781-2.047,0-2.828c-0.259-0.259-5.398-5.398-5.657-5.657c-0.781-0.781-2.047-0.781-2.828,0s-0.781,2.047,0,2.828
	C10.41,13.238,15.549,18.377,15.808,18.636z"/>
</svg>