<?xml version="1.0" encoding="iso-8859-1"?><!-- Generator: Adobe Illustrator 23.0.3, SVG Export Plug-In . SVG Version: 6.00 Build 0)  --><svg xmlns="http://www.w3.org/2000/svg" xmlns:xlink="http://www.w3.org/1999/xlink" viewBox="0 0 50 50" width="50px" height="50px"><circle cx="41.994" cy="7.004" r="1"/><circle cx="37.994" cy="7.004" r="1"/><circle cx="45.994" cy="7.004" r="1"/><circle cx="45.994" cy="11.004" r="1"/><circle cx="33.994" cy="7.004" r="1"/><circle cx="25.994" cy="7.004" r="1"/><circle cx="21.994" cy="7.004" r="1"/><circle cx="29.994" cy="7.004" r="1"/><g id="IOS_copy_10_"><path d="M44.172,44.172c-0.424,0.424-0.99,0.424-1.414,0L40,41.414l-2.758,2.758c-0.424,0.424-0.99,0.424-1.414,0c-0.424-0.424-0.424-0.99,0-1.414L38.586,40l-2.758-2.758c-0.424-0.424-0.424-0.99,0-1.414c0.424-0.424,0.99-0.424,1.414,0L40,38.586l2.758-2.758c0.424-0.424,0.99-0.424,1.414,0c0.424,0.424,0.424,0.99,0,1.414L41.414,40l2.758,2.758C44.596,43.182,44.596,43.748,44.172,44.172z M47.071,47.071c-3.889,3.889-10.253,3.889-14.142,0s-3.889-10.253,0-14.142s10.253-3.889,14.142,0S50.96,43.182,47.071,47.071z M45.657,45.657c3.111-3.111,3.111-8.202,0-11.314c-3.111-3.111-8.202-3.111-11.314,0c-3.111,3.111-3.111,8.202,0,11.314C37.454,48.768,42.546,48.768,45.657,45.657z"/></g><path d="M31,40c0-4.971,4.029-9,9-9c2.826,0,5.344,1.304,6.994,3.341V15c0-1.103-0.897-2-2-2l-25,0.004V9.008c0-1.653-1.345-3-2.999-3L6.001,6.004c0,0,0,0-0.001,0c-0.801,0-1.555,0.312-2.121,0.878S3,8.202,3,9.004L3.006,42c0,1.103,0.897,2,2,2h26.941C31.346,42.794,31,41.439,31,40z"/></svg>