<?xml version="1.0" encoding="iso-8859-1"?>
<!-- Generator: Adobe Illustrator 23.0.3, SVG Export Plug-In . SVG Version: 6.00 Build 0)  -->
<svg version="1.1" id="Layer_1" xmlns="http://www.w3.org/2000/svg" xmlns:xlink="http://www.w3.org/1999/xlink" x="0px" y="0px"
	 viewBox="0 0 50 50" style="enable-background:new 0 0 50 50;" xml:space="preserve">
<g>
	<path d="M5.976,37.759c0.835,1.242,1.795,2.406,2.854,3.461l2.824-2.833c-0.875-0.872-1.668-1.834-2.357-2.86L5.976,37.759z"/>
	<path d="M9.253,14.538l-3.33-2.217c-0.83,1.247-1.54,2.58-2.109,3.962l3.699,1.523C7.981,16.667,8.567,15.567,9.253,14.538z"/>
	<path d="M43.53,21.235l3.92-0.795c-0.298-1.471-0.742-2.914-1.319-4.291l-3.689,1.547C42.918,18.832,43.284,20.022,43.53,21.235z"
		/>
	<path d="M6.447,21.35l-3.926-0.764C2.239,22.033,2.097,23.519,2.097,25v0.044l4-0.044C6.097,23.774,6.215,22.546,6.447,21.35z"/>
	<path d="M28.63,6.444l0.762-3.927C27.953,2.238,26.476,2.097,25,2.097h-0.066l0.066,4C26.221,6.097,27.441,6.214,28.63,6.444z"/>
	<path d="M43.997,12.202c-0.836-1.238-1.798-2.401-2.861-3.456l-2.818,2.839c0.879,0.872,1.674,1.833,2.363,2.854L43.997,12.202z"/>
	<path d="M21.253,6.467l-0.787-3.922c-1.469,0.295-2.913,0.738-4.294,1.315l1.543,3.69C18.853,7.075,20.043,6.71,21.253,6.467z"/>
	<path d="M14.454,9.309L12.222,5.99c-1.24,0.834-2.404,1.796-3.46,2.857l2.836,2.82C12.47,10.792,13.431,9.998,14.454,9.309z"/>
	<path d="M6.465,28.729L2.541,29.51c0.293,1.466,0.733,2.912,1.311,4.296l3.691-1.539C7.068,31.126,6.705,29.936,6.465,28.729z"/>
	<path d="M35.512,40.713l2.227,3.322c1.243-0.833,2.408-1.792,3.465-2.85l-2.83-2.826C37.5,39.233,36.538,40.025,35.512,40.713z"/>
	<path d="M40.724,35.496l3.326,2.223c0.833-1.247,1.546-2.578,2.117-3.957l-3.695-1.532C42,33.367,41.412,34.466,40.724,35.496z"/>
	<path d="M43.903,25c0,1.241-0.121,2.481-0.359,3.688l3.924,0.776c0.289-1.461,0.436-2.963,0.436-4.464v-0.088L43.903,25z"/>
	<path d="M21.332,43.548l-0.771,3.925c1.453,0.286,2.947,0.431,4.439,0.431h0.022l-0.022-4
		C23.767,43.903,22.532,43.784,21.332,43.548z"/>
	<path d="M12.302,44.063c1.246,0.832,2.578,1.542,3.96,2.113l1.527-3.696c-1.14-0.471-2.238-1.058-3.267-1.744L12.302,44.063z"/>
	<path d="M33.693,3.805l-1.52,3.7c1.141,0.468,2.241,1.053,3.271,1.736l2.213-3.332C36.41,5.081,35.076,4.373,33.693,3.805z"/>
	<path d="M28.706,43.541l0.781,3.923c1.469-0.292,2.914-0.731,4.295-1.305l-1.533-3.694C31.109,42.937,29.917,43.299,28.706,43.541z
		"/>
	<circle cx="25" cy="25" r="5"/>
</g>
</svg>