<?xml version="1.0" encoding="iso-8859-1"?><!-- Generator: Adobe Illustrator 21.1.0, SVG Export Plug-In . SVG Version: 6.00 Build 0)  --><svg xmlns="http://www.w3.org/2000/svg" xmlns:xlink="http://www.w3.org/1999/xlink" viewBox="0 0 50 50" width="50px" height="50px"><path d="M47,7H3c-1.654,0-3,1.346-3,3v30c0,1.654,1.346,3,3,3h44c1.654,0,3-1.346,3-3V10C50,8.346,48.654,7,47,7z M12,39H4v-8c0-0.552,0.447-1,1-1s1,0.448,1,1v6h6c0.553,0,1,0.448,1,1S12.553,39,12,39z M12,13H6v6c0,0.552-0.447,1-1,1s-1-0.448-1-1v-8h8c0.553,0,1,0.448,1,1S12.553,13,12,13z M46,39h-8c-0.553,0-1-0.448-1-1s0.447-1,1-1h6v-6c0-0.552,0.447-1,1-1s1,0.448,1,1V39z M46,19c0,0.552-0.447,1-1,1s-1-0.448-1-1v-6h-6c-0.553,0-1-0.448-1-1s0.447-1,1-1h8V19z"/></svg>