<?xml version="1.0" encoding="iso-8859-1"?><!-- Generator: Adobe Illustrator 20.1.0, SVG Export Plug-In . SVG Version: 6.00 Build 0)  --><svg xmlns="http://www.w3.org/2000/svg" xmlns:xlink="http://www.w3.org/1999/xlink" viewBox="0 0 50 50" width="50px" height="50px"><path d="M47.9,22.91L47.82,22h-6.05l0.12,1.11c1.01,9.334-5.739,17.72-15.073,18.729c-5.74,0.621-11.402-1.714-15.037-6.199L16.41,31H3v13.41l4.5-4.5c8.243,9.665,22.76,10.818,32.425,2.575C45.045,38.119,47.996,31.729,48,25C48,24.33,48,23.65,47.9,22.91z"/><path d="M8.11,26.89C7.1,17.556,13.849,9.17,23.183,8.161c5.74-0.621,11.402,1.714,15.037,6.199L33.59,19H47V5.59l-4.5,4.5C34.257,0.425,19.74-0.728,10.075,7.515C4.955,11.881,2.004,18.271,2,25c0,0.67,0,1.35,0.1,2.09L2.18,28h6.05L8.11,26.89z"/></svg>