<?xml version="1.0" encoding="iso-8859-1"?>
<!-- Generator: Adobe Illustrator 23.0.3, SVG Export Plug-In . SVG Version: 6.00 Build 0)  -->
<svg version="1.1" id="Layer_1" xmlns="http://www.w3.org/2000/svg" xmlns:xlink="http://www.w3.org/1999/xlink" x="0px" y="0px"
	 viewBox="0 0 50 50" style="enable-background:new 0 0 50 50;" xml:space="preserve">
<g>
	<g>
		<path style="fill:none;stroke:#000000;stroke-width:2;stroke-linecap:round;stroke-linejoin:round;" d="M25,4
			c0.646,0,1.292,0.305,1.693,0.915"/>
		
			<path style="fill:none;stroke:#000000;stroke-width:2;stroke-linecap:round;stroke-linejoin:round;stroke-dasharray:4.1091,4.1091;" d="
			M28.728,8.484l18.995,33.407C48.509,43.273,47.527,45,45.956,45H4.044c-1.571,0-2.553-1.727-1.767-3.108L22.287,6.698"/>
		<path style="fill:none;stroke:#000000;stroke-width:2;stroke-linecap:round;stroke-linejoin:round;" d="M23.307,4.915
			C23.708,4.305,24.354,4,25,4"/>
	</g>
</g>
<path d="M27,37v2c0,0.552-0.446,1-0.998,1c-0.612,0-1.392,0-2.003,0C23.446,40,23,39.552,23,39v-2c0-0.552,0.446-1,0.998-1
	c0.612,0,1.392,0,2.003,0C26.554,36,27,36.448,27,37z M27,18l-0.002,14c0,0.552-0.446,1-0.998,1c-0.612,0-1.391,0-2.003,0
	C23.445,33,23,32.552,23,32l0.001-14c0-0.552,0.446-1,0.998-1c0.612,0,1.391,0,2.003,0C26.554,17,27,17.448,27,18z"/>
</svg>