<?xml version="1.0" encoding="utf-8"?><!-- Generator: Adobe Illustrator 15.0.0, SVG Export Plug-In . SVG Version: 6.00 Build 0)  --><!DOCTYPE svg PUBLIC "-//W3C//DTD SVG 1.1//EN" "http://www.w3.org/Graphics/SVG/1.1/DTD/svg11.dtd"><svg xmlns="http://www.w3.org/2000/svg" xmlns:xlink="http://www.w3.org/1999/xlink" viewBox="0 0 50 50" width="50px" height="50px"><path d="M44,4h-1v41c0,1.654-1.346,3-3,3H9v1c0,0.553,0.448,1,1,1h34c0.553,0,1-0.447,1-1V5C45,4.448,44.553,4,44,4z"/><g><path d="M40,0H6C5.448,0,5,0.448,5,1v44c0,0.553,0.448,1,1,1h34c0.553,0,1-0.447,1-1V1C41,0.448,40.553,0,40,0z M24.8,35c0,0.2-0.2,0.4-0.4,0.4h-2.7c-0.2,0-0.4-0.2-0.4-0.4v-3c0-0.2,0.2-0.4,0.4-0.4h2.7V31.7c0.2,0,0.4,0.2,0.4,0.399V35z M24.8,28.2c0,0.2-0.2,0.399-0.4,0.399h-2.5c-0.2,0-0.4-0.199-0.4-0.399V10.9c0-0.2,0.2-0.4,0.4-0.4h2.5c0.2,0,0.4,0.2,0.4,0.4V28.2z"/></g></svg>