<?xml version="1.0" encoding="iso-8859-1"?><!-- Generator: Adobe Illustrator 21.1.0, SVG Export Plug-In . SVG Version: 6.00 Build 0)  --><svg xmlns="http://www.w3.org/2000/svg" xmlns:xlink="http://www.w3.org/1999/xlink" viewBox="0 0 50 50" width="50px" height="50px"><path d="M25,2C12.318,2,2,12.318,2,25s10.318,23,23,23s23-10.318,23-23S37.682,2,25,2z M33,35H17c-0.552,0-1-0.448-1-1s0.448-1,1-1h16c0.552,0,1,0.448,1,1S33.552,35,33,35z M35,27H15c-0.552,0-1-0.448-1-1s0.448-1,1-1h20c0.552,0,1,0.448,1,1S35.552,27,35,27z M38,19H12c-0.552,0-1-0.448-1-1s0.448-1,1-1h26c0.552,0,1,0.448,1,1S38.552,19,38,19z"/></svg>