<?xml version="1.0" encoding="iso-8859-1"?><!-- Generator: Adobe Illustrator 21.1.0, SVG Export Plug-In . SVG Version: 6.00 Build 0)  --><svg xmlns="http://www.w3.org/2000/svg" xmlns:xlink="http://www.w3.org/1999/xlink" viewBox="0 0 50 50" width="50px" height="50px"><path d="M46.008,10c-0.005,0-0.01,0-0.015,0H34V6.981C33.988,5.333,32.644,4,30.999,4c-0.006,0-0.013,0-0.019,0l-6.998,0.042c-0.802,0.005-1.554,0.321-2.117,0.892C21.302,5.505,20.994,6.26,21,7.057l0.002,0.945L27,8c2.206,0,4,1.794,4,4v8.089l-2-2.235V12c0-1.103-0.897-2-2-2l-12,0.004V7.005c0-1.653-1.346-3-2.999-3.001L5.002,4C5.001,4,5,4,4.999,4c-0.801,0-1.554,0.312-2.12,0.878S2,6.198,2,7l0.006,37c0,1.103,0.897,2,2,2H27c1.103,0,2-0.897,2-2v-6.677l2-2.236V44c0,0.732-0.212,1.409-0.556,2H46c0.534-0.004,1.035-0.215,1.41-0.596c0.375-0.38,0.58-0.884,0.576-1.411L48,11.986C47.992,10.888,47.097,10,46.008,10z M22.745,33.844l-1.49-1.334l4.403-4.922l-4.403-4.921l1.49-1.334l5.597,6.255L22.745,33.844z M28.745,33.844l-1.49-1.334l4.403-4.922l-4.403-4.921l1.49-1.334l5.597,6.255L28.745,33.844z"/></svg>