<?xml version="1.0" encoding="iso-8859-1"?><!-- Generator: Adobe Illustrator 19.1.1, SVG Export Plug-In . SVG Version: 6.00 Build 0)  --><svg xmlns="http://www.w3.org/2000/svg" xmlns:xlink="http://www.w3.org/1999/xlink" viewBox="0 0 50 50" width="50px" height="50px"><g ><path d="M44,4H6C4.897,4,4,4.897,4,6v38c0,1.103,0.897,2,2,2h38c1.103,0,2-0.897,2-2V6C46,4.897,45.103,4,44,4z M41,25c0,0.553-0.448,1-1,1s-1-0.447-1-1V12.414L17.707,33.707C17.512,33.902,17.256,34,17,34s-0.512-0.098-0.707-0.293c-0.391-0.391-0.391-1.023,0-1.414L37.586,11H25c-0.552,0-1-0.447-1-1s0.448-1,1-1h15c0.13,0,0.26,0.026,0.382,0.077c0.245,0.101,0.44,0.296,0.541,0.541C40.973,9.74,41,9.87,41,10V25z"/></g><g ></g></svg>