<?xml version="1.0" encoding="iso-8859-1"?>
<!-- Generator: Adobe Illustrator 23.0.6, SVG Export Plug-In . SVG Version: 6.00 Build 0)  -->
<svg version="1.1" id="Layer_1" xmlns="http://www.w3.org/2000/svg" xmlns:xlink="http://www.w3.org/1999/xlink" x="0px" y="0px"
	 viewBox="0 0 32 32" style="enable-background:new 0 0 32 32;" xml:space="preserve">
<path d="M21,25.6c0.6-0.9,1-2,1-3.1c0-3-2.5-5.5-5.5-5.5S11,19.5,11,22.5s2.5,5.5,5.5,5.5c1.2,0,2.2-0.4,3.1-1l4,4l1.4-1.4L21,25.6z
	 M16.5,26c-1.9,0-3.5-1.6-3.5-3.5c0-1.9,1.6-3.5,3.5-3.5c1.9,0,3.5,1.6,3.5,3.5C20,24.4,18.4,26,16.5,26z"/>
<path d="M24.484,13.02C23.232,9.438,19.849,7,16,7c-2.586,0-5,1.09-6.71,3.012c-2.301-0.2-4.177,1.581-4.285,3.789
	C3.159,14.863,2,16.834,2,19c0,3.309,2.691,6,6,6h1.436c-0.224-0.633-0.365-1.302-0.411-2H8c-2.206,0-4-1.794-4-4
	c0-1.604,0.955-3.049,2.433-3.681l0.692-0.379L7.02,14.183C7.011,14.123,7,14.063,7,14c0-1.103,0.897-2,2-2
	c0.137,0,0.285,0.02,0.464,0.062l0.624,0.147l0.395-0.505C11.823,9.985,13.834,9,16,9c3.2,0,5.985,2.168,6.775,5.272l0.203,0.798
	l0.822-0.046c0.064-0.004,0.126-0.011,0.221-0.024C26.217,15.012,28,16.802,28,19c0,2.206-1.794,4-4,4h-0.025
	c-0.046,0.698-0.187,1.367-0.411,2H24c3.309,0,6-2.691,6-6C30,15.854,27.567,13.267,24.484,13.02z"/>
</svg>