<?xml version="1.0" encoding="iso-8859-1"?><!-- Generator: Adobe Illustrator 22.1.0, SVG Export Plug-In . SVG Version: 6.00 Build 0)  --><svg xmlns="http://www.w3.org/2000/svg" xmlns:xlink="http://www.w3.org/1999/xlink" viewBox="0 0 50 50" width="50px" height="50px"><path d="M25,47.999c-0.622,0-1.22-0.262-1.641-0.719l-1.487-1.619c-0.072-0.079-0.188-0.1-0.281-0.045l-1.915,1.079c-0.541,0.307-1.19,0.37-1.782,0.179s-1.08-0.626-1.339-1.191l-0.914-2c-0.044-0.097-0.151-0.148-0.256-0.129l-2.152,0.436c-0.611,0.123-1.249-0.018-1.753-0.384c-0.503-0.365-0.832-0.93-0.902-1.547l-0.252-2.183c-0.013-0.105-0.096-0.188-0.201-0.201L7.94,39.423c-0.619-0.071-1.183-0.401-1.549-0.904c-0.365-0.504-0.504-1.142-0.381-1.752l0.435-2.153c0.021-0.105-0.031-0.209-0.128-0.254l-1.999-0.914c-0.566-0.26-1.001-0.747-1.193-1.339c-0.191-0.592-0.127-1.241,0.179-1.783l1.079-1.914c0.053-0.094,0.034-0.209-0.045-0.282l-1.617-1.486C2.263,26.22,2,25.622,2,25s0.263-1.221,0.721-1.642l1.618-1.487c0.078-0.072,0.097-0.187,0.045-0.279l-1.08-1.916c-0.306-0.542-0.37-1.192-0.178-1.783c0.191-0.592,0.627-1.08,1.192-1.338l1.998-0.914c0.098-0.044,0.15-0.149,0.129-0.253l-0.435-2.155c-0.123-0.609,0.016-1.248,0.382-1.751c0.365-0.503,0.93-0.833,1.548-0.904l2.184-0.252c0.105-0.012,0.188-0.095,0.201-0.201l0.252-2.183c0.07-0.617,0.399-1.181,0.902-1.547c0.504-0.366,1.146-0.506,1.752-0.383l2.155,0.436c0.103,0.02,0.209-0.033,0.254-0.13l0.914-1.998c0.26-0.566,0.748-1.001,1.34-1.193c0.591-0.191,1.241-0.126,1.782,0.179l1.914,1.079c0.09,0.052,0.208,0.035,0.281-0.045l1.486-1.617c0.844-0.917,2.439-0.917,3.283,0c0,0,0,0,0,0l1.486,1.618c0.073,0.079,0.19,0.096,0.281,0.044l1.915-1.079C30.866,3,31.513,2.933,32.105,3.125c0.592,0.192,1.08,0.626,1.34,1.192l0.914,1.999c0.044,0.096,0.143,0.153,0.255,0.129l2.153-0.435c0.61-0.124,1.249,0.016,1.753,0.382c0.503,0.366,0.832,0.93,0.902,1.548l0.252,2.182c0.013,0.106,0.096,0.189,0.201,0.201l2.184,0.252c0.618,0.072,1.183,0.401,1.548,0.904c0.366,0.503,0.505,1.142,0.382,1.752l-0.435,2.154c-0.021,0.105,0.031,0.209,0.129,0.254l1.998,0.914c0.565,0.259,1.001,0.747,1.192,1.338c0.192,0.591,0.128,1.241-0.178,1.783l-1.079,1.915c-0.053,0.094-0.034,0.208,0.044,0.281l1.618,1.487C47.737,23.779,48,24.378,48,25s-0.263,1.22-0.721,1.641l-1.618,1.487c-0.078,0.072-0.097,0.188-0.045,0.28l1.08,1.915c0.306,0.542,0.37,1.191,0.179,1.783c-0.192,0.592-0.627,1.079-1.192,1.339l-1.999,0.914c-0.098,0.045-0.15,0.148-0.129,0.253l0.435,2.155c0.123,0.609-0.016,1.247-0.381,1.751c-0.366,0.503-0.93,0.833-1.548,0.904l-2.185,0.252c-0.105,0.013-0.188,0.096-0.201,0.201l-0.252,2.183c-0.07,0.617-0.399,1.182-0.902,1.547c-0.503,0.366-1.138,0.509-1.752,0.384l-2.155-0.436c-0.104-0.022-0.21,0.032-0.255,0.131l-0.913,1.997c-0.259,0.566-0.747,1.001-1.339,1.192S30.865,47,30.323,46.696l-1.914-1.079c-0.093-0.052-0.209-0.034-0.281,0.045l-1.486,1.618C26.22,47.738,25.622,47.999,25,47.999z M21.706,43.584c0.606,0,1.203,0.249,1.639,0.724l1.486,1.618c0.111,0.121,0.226,0.122,0.339-0.001l1.485-1.617c0.703-0.766,1.829-0.947,2.736-0.434l1.915,1.079c0.073,0.041,0.139,0.033,0.183,0.019c0.044-0.014,0.104-0.047,0.138-0.123l0.914-1.998c0.435-0.945,1.449-1.464,2.467-1.258l2.156,0.436c0.077,0.018,0.142-0.012,0.18-0.04c0.037-0.026,0.083-0.076,0.093-0.158l0.252-2.183c0.119-1.034,0.925-1.84,1.959-1.959l2.184-0.252c0.082-0.01,0.132-0.056,0.158-0.094c0.027-0.037,0.056-0.098,0.039-0.18l-0.435-2.155c-0.206-1.02,0.312-2.034,1.259-2.467l1.997-0.914c0.075-0.035,0.108-0.095,0.123-0.139c0.014-0.043,0.022-0.11-0.019-0.183l-1.079-1.914c-0.512-0.904-0.334-2.03,0.432-2.735l1.619-1.488C45.987,25.112,46,25.046,46,25s-0.013-0.112-0.074-0.168l-1.618-1.488c-0.767-0.706-0.944-1.831-0.432-2.737l1.078-1.913c0.041-0.072,0.032-0.139,0.019-0.183c-0.015-0.043-0.047-0.103-0.123-0.138l-1.998-0.914c-0.947-0.433-1.464-1.448-1.258-2.468l0.435-2.154c0.017-0.082-0.012-0.144-0.039-0.181c-0.026-0.037-0.076-0.083-0.158-0.093l-2.184-0.251c-1.034-0.12-1.84-0.925-1.959-1.959L37.437,8.17c-0.01-0.083-0.056-0.132-0.093-0.159c-0.037-0.027-0.103-0.056-0.181-0.039L35.01,8.406c-1.021,0.206-2.034-0.312-2.469-1.256l-0.914-2c-0.035-0.075-0.094-0.108-0.138-0.123c-0.044-0.015-0.111-0.022-0.182,0.018l-1.916,1.08c-0.905,0.509-2.03,0.333-2.736-0.433l-1.486-1.619c-0.113-0.122-0.225-0.122-0.338,0l-1.486,1.618c-0.705,0.767-1.831,0.943-2.736,0.434l-1.915-1.079c-0.07-0.04-0.139-0.032-0.183-0.019c-0.044,0.014-0.103,0.047-0.138,0.123l-0.914,1.998c-0.434,0.946-1.446,1.463-2.468,1.258l-2.155-0.436c-0.082-0.015-0.143,0.012-0.18,0.04c-0.037,0.027-0.083,0.076-0.093,0.158l-0.252,2.184c-0.119,1.034-0.925,1.839-1.959,1.959l-2.184,0.251c-0.082,0.01-0.132,0.056-0.158,0.093c-0.027,0.037-0.056,0.099-0.039,0.18l0.435,2.155c0.206,1.02-0.311,2.035-1.258,2.468L5.15,18.373c-0.076,0.035-0.108,0.094-0.123,0.138c-0.014,0.044-0.022,0.111,0.019,0.183l1.079,1.915c0.512,0.905,0.334,2.03-0.433,2.735l-1.618,1.488C4.013,24.888,4,24.954,4,25s0.013,0.112,0.074,0.168l1.618,1.488c0.767,0.706,0.944,1.832,0.432,2.737l-1.078,1.913c-0.041,0.072-0.032,0.14-0.019,0.183c0.015,0.044,0.048,0.104,0.124,0.139l1.997,0.914c0.946,0.433,1.464,1.447,1.258,2.468l-0.435,2.153c-0.017,0.083,0.012,0.144,0.039,0.181c0.026,0.038,0.076,0.084,0.159,0.094l2.183,0.252c1.034,0.119,1.84,0.925,1.959,1.959l0.252,2.183c0.01,0.082,0.056,0.132,0.093,0.158c0.038,0.028,0.098,0.053,0.181,0.04l2.153-0.436c1.022-0.199,2.034,0.312,2.468,1.256l0.915,2.001c0.034,0.075,0.094,0.108,0.138,0.122c0.042,0.015,0.11,0.021,0.182-0.019l1.916-1.079C20.954,43.679,21.332,43.584,21.706,43.584z"/><path d="M46.603,25.905c0.53-0.487,0.53-1.323,0-1.81l-1.618-1.487c-0.42-0.386-0.519-1.011-0.239-1.508l1.079-1.914c0.353-0.627,0.095-1.422-0.559-1.721l-1.998-0.914c-0.519-0.237-0.806-0.801-0.693-1.361l0.435-2.154c0.142-0.705-0.349-1.382-1.064-1.464l-2.183-0.252c-0.567-0.065-1.014-0.513-1.08-1.08L38.43,8.055c-0.083-0.715-0.759-1.206-1.464-1.064l-2.154,0.435c-0.56,0.113-1.123-0.174-1.361-0.693l-0.914-1.998c-0.299-0.654-1.094-0.913-1.721-0.559l-1.914,1.079c-0.497,0.28-1.122,0.181-1.508-0.239l-1.487-1.618c-0.487-0.53-1.323-0.53-1.81,0l-1.487,1.618c-0.386,0.42-1.011,0.519-1.508,0.239l-1.914-1.079c-0.627-0.353-1.422-0.095-1.721,0.559l-0.914,1.998c-0.237,0.519-0.801,0.806-1.361,0.693l-2.154-0.435c-0.705-0.142-1.382,0.349-1.464,1.064l-0.252,2.183c-0.065,0.567-0.513,1.014-1.08,1.08L8.055,11.57c-0.715,0.083-1.206,0.759-1.064,1.464l0.435,2.154c0.113,0.56-0.174,1.123-0.693,1.361l-1.998,0.914c-0.654,0.299-0.913,1.094-0.559,1.721l1.079,1.914c0.28,0.497,0.181,1.122-0.239,1.508l-1.618,1.487c-0.53,0.487-0.53,1.323,0,1.81l1.618,1.487c0.42,0.386,0.519,1.011,0.239,1.508l-1.079,1.914c-0.353,0.627-0.095,1.422,0.559,1.721l1.998,0.914c0.519,0.237,0.806,0.801,0.693,1.361l-0.435,2.154c-0.142,0.705,0.349,1.382,1.064,1.464l2.183,0.252c0.567,0.065,1.014,0.513,1.08,1.08l0.252,2.183c0.083,0.715,0.759,1.206,1.464,1.064l2.154-0.435c0.56-0.113,1.123,0.174,1.361,0.693l0.914,1.998c0.299,0.654,1.094,0.913,1.721,0.559l1.914-1.079c0.497-0.28,1.122-0.181,1.508,0.239l1.487,1.618c0.487,0.53,1.323,0.53,1.81,0l1.487-1.618c0.386-0.42,1.011-0.519,1.508-0.239l1.914,1.079c0.627,0.353,1.422,0.095,1.721-0.559l0.914-1.998c0.237-0.519,0.801-0.806,1.361-0.693l2.154,0.435c0.705,0.142,1.382-0.349,1.464-1.064l0.252-2.183c0.065-0.567,0.513-1.014,1.08-1.08l2.183-0.252c0.715-0.083,1.206-0.759,1.064-1.464l-0.435-2.154c-0.113-0.56,0.174-1.123,0.693-1.361l1.998-0.914c0.654-0.299,0.913-1.094,0.559-1.721l-1.079-1.914c-0.28-0.497-0.181-1.122,0.239-1.508L46.603,25.905z M24.669,33.577c-0.504,1.018-1.876,1.077-2.429,0.087C17.877,25.852,11,22.345,11,22.345c7.259,0,10.37,3.173,12.444,5.288C26.556,21.288,34.852,17.058,39,16C31.222,21.288,27.045,28.779,24.669,33.577z"/></svg>