<?xml version="1.0" encoding="utf-8"?><!-- Generator: Adobe Illustrator 17.0.0, SVG Export Plug-In . SVG Version: 6.00 Build 0)  --><!DOCTYPE svg PUBLIC "-//W3C//DTD SVG 1.1//EN" "http://www.w3.org/Graphics/SVG/1.1/DTD/svg11.dtd"><svg xmlns="http://www.w3.org/2000/svg" xmlns:xlink="http://www.w3.org/1999/xlink" viewBox="0 0 50 50" width="500px" height="500px"><rect x="1" y="1" fill="none" stroke="#000000" stroke-width="2" stroke-linecap="round" stroke-miterlimit="10" width="20" height="20"/><rect x="1" y="29" fill="none" stroke="#000000" stroke-width="2" stroke-linecap="round" stroke-miterlimit="10" width="20" height="20"/><line fill="none" stroke="#000000" stroke-width="2" stroke-linecap="round" stroke-miterlimit="10" x1="27" y1="7" x2="49" y2="7"/><line fill="none" stroke="#000000" stroke-width="2" stroke-linecap="round" stroke-miterlimit="10" x1="27" y1="14" x2="45" y2="14"/><line fill="none" stroke="#000000" stroke-width="2" stroke-linecap="round" stroke-miterlimit="10" x1="27" y1="36" x2="49" y2="36"/><line fill="none" stroke="#000000" stroke-width="2" stroke-linecap="round" stroke-miterlimit="10" x1="27" y1="43" x2="45" y2="43"/><path fill="none" stroke="#000000" stroke-width="2" stroke-linecap="round" stroke-miterlimit="10" d="M1,13.879V21h20v-3.788l-5.457-5.152l-3.638,1.818L7.364,8.424L1,13.879z"/><circle cx="16" cy="6" r="2"/><path fill="none" stroke="#000000" stroke-width="2" stroke-linecap="round" stroke-miterlimit="10" d="M15.957,39.827c0.329-1.275-1.325-2.304-1.7-2.519c-0.047-0.027-0.074-0.041-0.074-0.041s0.518-2.308-0.737-3.027c-1.255-0.718-2.984,0.896-2.984,0.896s-0.099-0.07-0.266-0.166c-0.571-0.327-1.933-0.949-2.838-0.068c-1.171,1.139-0.071,3.114-0.071,3.114s-1.722,1.426-1.182,2.882c0.131,0.351,0.369,0.593,0.656,0.757c0.903,0.517,2.283,0.272,2.283,0.272s0.598,1.265,1.516,1.791c0.262,0.15,0.551,0.24,0.859,0.223c1.388-0.077,1.886-2.478,1.886-2.478S15.586,41.263,15.957,39.827z"/><path d="M11.068,38.821c0,0,0.913,2.003,0.095,2.134c-0.818,0.13-0.366-2.104-0.366-2.104s-1.742,1.479-2,0.749c-0.258-0.729,1.889-0.998,1.889-0.998s-1.967-1.143-1.332-1.671c0.636-0.527,1.533,1.487,1.533,1.487s0.47-2.187,1.178-1.782c0.708,0.405-0.941,1.918-0.941,1.918s2.18-0.25,2.058,0.569C13.061,39.943,11.068,38.821,11.068,38.821z"/></svg>