<?xml version="1.0" encoding="iso-8859-1"?><!-- Generator: Adobe Illustrator 21.1.0, SVG Export Plug-In . SVG Version: 6.00 Build 0)  --><svg xmlns="http://www.w3.org/2000/svg" xmlns:xlink="http://www.w3.org/1999/xlink" viewBox="0 0 50 50" width="50px" height="50px"><path d="M48.79,20.62C48.59,20.87,48.3,21,48,21c-0.22,0-0.43-0.07-0.62-0.21L46,19.71V46c0,0.55-0.45,1-1,1H32V27H18v20H5c-0.55,0-1-0.45-1-1V19.71l-1.38,1.08c-0.44,0.34-1.07,0.26-1.41-0.17c-0.34-0.44-0.26-1.07,0.17-1.41l23-17.95c0.37-0.28,0.87-0.28,1.24,0L35,8.59C35,7.35,35,6,35,6c0-0.27,0.11-0.52,0.29-0.71C35.48,5.11,35.73,5,36,5h4c0.55,0,1,0.45,1,1c0,0,0,5.57,0,7.27l7.62,5.94C49.05,19.55,49.13,20.18,48.79,20.62z"/><path d="M20,29.1V47h10V29.1H20z M27,38c-0.55,0-1-0.45-1-1s0.45-1,1-1s1,0.45,1,1S27.55,38,27,38z"/></svg>