<?xml version="1.0" encoding="utf-8"?><!-- Generator: Adobe Illustrator 17.0.0, SVG Export Plug-In . SVG Version: 6.00 Build 0)  --><!DOCTYPE svg PUBLIC "-//W3C//DTD SVG 1.1//EN" "http://www.w3.org/Graphics/SVG/1.1/DTD/svg11.dtd"><svg xmlns="http://www.w3.org/2000/svg" xmlns:xlink="http://www.w3.org/1999/xlink" viewBox="0 0 50 50" width="50px" height="50px"><g><path d="M32,14c0,0.76-0.225,1.464-0.594,2.07c0.973,0.699,1.825,1.552,2.525,2.525C34.536,18.225,35.24,18,36,18h10.912C44.654,10.929,39.071,5.345,32,3.088V14z"/><path d="M36,32c-0.76,0-1.464-0.225-2.07-0.594c-0.699,0.973-1.552,1.825-2.525,2.525C31.775,34.536,32,35.24,32,36v10.912c7.071-2.257,12.654-7.84,14.912-14.912H36z"/><path d="M14,18c0.76,0,1.464,0.225,2.07,0.594c0.699-0.973,1.552-1.825,2.525-2.525C18.225,15.464,18,14.76,18,14V3.088C10.929,5.345,5.346,10.929,3.088,18H14z"/><path d="M18,36c0-0.76,0.225-1.464,0.594-2.07c-0.973-0.699-1.825-1.552-2.525-2.525C15.464,31.775,14.76,32,14,32H3.088C5.346,39.071,10.929,44.654,18,46.912V36z"/></g><path d="M25,1c-1.173,0-5,0.145-5,2v11c0,1.103,0.897,2,2,2c0.125,0,0.257-0.027,0.373-0.072c0.009-0.003,0.895-0.341,2.627-0.341c1.708,0,2.593,0.328,2.626,0.341C27.745,15.976,27.872,16,28,16c1.103,0,2-0.897,2-2V3C30,1.145,26.173,1,25,1z M28,34c-0.125,0-0.257,0.027-0.373,0.072c-0.009,0.003-0.895,0.341-2.627,0.341c-1.732,0-2.618-0.337-2.618-0.337C22.261,34.025,22.131,34,22,34c-1.103,0-2,0.897-2,2v11c0,1.855,3.827,2,5,2s5-0.145,5-2V36C30,34.897,29.103,34,28,34z M47,20H36c-1.103,0-2,0.897-2,2c0,0.124,0.027,0.257,0.072,0.373c0.003,0.009,0.341,0.894,0.341,2.627c0,1.732-0.337,2.618-0.337,2.618C34.026,27.739,34,27.869,34,28c0,1.103,0.897,2,2,2h11c1.856,0,2-3.827,2-5S48.856,20,47,20z M16,22c0-1.103-0.897-2-2-2H3c-1.856,0-2,3.827-2,5s0.144,5,2,5h11c1.103,0,2-0.897,2-2c0-0.124-0.027-0.257-0.072-0.373c-0.003-0.009-0.341-0.894-0.341-2.627c0-1.732,0.337-2.618,0.337-2.618C15.974,22.261,16,22.131,16,22z"/><g><path d="M32,3v1.992c0.141,0,0.284-0.023,0.421-0.085c0.253-0.117,6.261-2.812,10.872,1.8c4.611,4.611,1.917,10.618,1.801,10.87c-0.064,0.137-0.088,0.281-0.088,0.423H47c0.026,0,0.048,0.005,0.074,0.006c0.616-1.636,2.493-7.853-2.367-12.713c-4.857-4.858-11.069-2.986-12.71-2.368C31.998,2.949,32,2.977,32,3z"/><path d="M3,18h1.993c0-0.141-0.023-0.284-0.086-0.421c-0.117-0.254-2.812-6.261,1.8-10.872c4.611-4.613,10.618-1.918,10.87-1.801C17.714,4.97,17.857,4.993,18,4.993V3c0-0.023,0.002-0.051,0.003-0.075c-1.641-0.617-7.854-2.487-12.71,2.368c-4.86,4.86-2.983,11.077-2.367,12.713C2.952,18.005,2.974,18,3,18z"/><path d="M47,32h-1.993c0,0.141,0.023,0.284,0.086,0.421c0.117,0.254,2.812,6.261-1.8,10.872c-4.612,4.612-10.619,1.917-10.87,1.801c-0.137-0.064-0.281-0.088-0.423-0.087V47c0,0.024-0.002,0.052-0.003,0.076c0.787,0.295,2.605,0.871,4.816,0.871c2.437,0,5.353-0.699,7.894-3.24c4.86-4.86,2.983-11.077,2.367-12.713C47.048,31.995,47.026,32,47,32z"/><path d="M18,47v-1.993c-0.142,0-0.285,0.023-0.421,0.086c-0.253,0.117-6.261,2.811-10.872-1.8c-4.611-4.611-1.917-10.618-1.801-10.87C4.97,32.286,4.994,32.142,4.994,32H3c-0.026,0-0.048-0.005-0.074-0.006C2.31,33.63,0.433,39.847,5.293,44.707c2.542,2.542,5.457,3.24,7.894,3.24c2.211,0,4.029-0.575,4.816-0.871C18.002,47.052,18,47.024,18,47z"/></g></svg>