<?xml version="1.0" encoding="iso-8859-1"?><!-- Generator: Adobe Illustrator 23.0.3, SVG Export Plug-In . SVG Version: 6.00 Build 0)  --><svg xmlns="http://www.w3.org/2000/svg" xmlns:xlink="http://www.w3.org/1999/xlink" viewBox="0 0 50 50" width="500px" height="500px"><line style="fill:none;stroke:#000000;stroke-width:2;stroke-linecap:round;stroke-miterlimit:10;" x1="36.5" y1="43.5" x2="43.5" y2="36.5"/><line style="fill:none;stroke:#000000;stroke-width:2;stroke-linecap:round;stroke-miterlimit:10;" x1="36.5" y1="36.5" x2="43.5" y2="43.5"/><circle style="fill:none;stroke:#000000;stroke-width:2;stroke-linecap:round;stroke-miterlimit:10;" cx="40" cy="40" r="9"/><path style="fill:none;stroke:#000000;stroke-width:2;stroke-miterlimit:10;" d="M44.2,6H5.8C4.8,6,4,6.8,4,7.8V13h42V7.8C46,6.8,45.2,6,44.2,6z"/><line style="fill:none;stroke:#000000;stroke-width:2;stroke-linejoin:round;stroke-miterlimit:10;" x1="15" y1="21" x2="40" y2="21"/><line style="fill:none;stroke:#000000;stroke-width:2;stroke-linejoin:round;stroke-miterlimit:10;" x1="15" y1="28" x2="33" y2="28"/><line style="fill:none;stroke:#000000;stroke-width:2;stroke-linejoin:round;stroke-miterlimit:10;" x1="15" y1="35" x2="28" y2="35"/><g><circle cx="10" cy="21" r="1"/><circle cx="10" cy="28" r="1"/><circle cx="10" cy="35" r="1"/></g><g><path d="M47,30.267V13c0-0.553-0.448-1-1-1s-1,0.447-1,1v16.102C45.707,29.426,46.375,29.817,47,30.267z"/><path d="M28.393,43H5V13c0-0.553-0.448-1-1-1s-1,0.447-1,1v31c0,0.553,0.448,1,1,1h25.102C28.808,44.361,28.572,43.693,28.393,43z"/></g></svg>