<?xml version="1.0" encoding="iso-8859-1"?><!-- Generator: Adobe Illustrator 19.2.1, SVG Export Plug-In . SVG Version: 6.00 Build 0)  --><svg xmlns="http://www.w3.org/2000/svg" xmlns:xlink="http://www.w3.org/1999/xlink" viewBox="0 0 50 50" width="500px" height="500px"><circle style="fill-rule:evenodd;clip-rule:evenodd;fill:none;stroke:#000000;stroke-width:2;stroke-linecap:round;stroke-linejoin:round;stroke-miterlimit:10;" cx="25" cy="25" r="22"/><path style="fill:none;stroke:#000000;stroke-width:2;stroke-linecap:round;stroke-miterlimit:10;" d="M25,8c-1.657,0-3,1.343-3,3s1.343,3,3,3c1.657,0,3-1.343,3-3S26.657,8,25,8z"/><path style="fill:none;stroke:#000000;stroke-width:2;stroke-linecap:round;stroke-miterlimit:10;" d="M25.003,29l3.656,10.975C28.862,40.587,29.435,41,30.08,41h0c0.975,0,1.69-0.916,1.454-1.862L29,29v-7.441l8.525-3.034c0.819-0.292,1.255-1.185,0.98-2.01v0c-0.279-0.837-1.183-1.289-2.02-1.01L29,18h-4"/><path style="fill:none;stroke:#000000;stroke-width:2;stroke-linecap:round;stroke-miterlimit:10;" d="M24.997,29l-3.656,10.975C21.138,40.587,20.565,41,19.92,41h0c-0.975,0-1.69-0.916-1.454-1.862L21,29v-7.441l-8.525-3.034c-0.819-0.292-1.255-1.185-0.98-2.01l0,0c0.279-0.837,1.183-1.289,2.02-1.01L21,18h4"/></svg>