<?xml version="1.0" encoding="utf-8"?><!-- Generator: Adobe Illustrator 15.0.0, SVG Export Plug-In . SVG Version: 6.00 Build 0)  --><!DOCTYPE svg PUBLIC "-//W3C//DTD SVG 1.1//EN" "http://www.w3.org/Graphics/SVG/1.1/DTD/svg11.dtd"><svg xmlns="http://www.w3.org/2000/svg" xmlns:xlink="http://www.w3.org/1999/xlink" viewBox="0 0 50 50" width="50px" height="50px"><path d="M19,50C8.523,50,0,41.477,0,31s8.523-19,19-19s19,8.523,19,19S29.477,50,19,50z"/><path d="M31,0c-5.1,0-9.7,2-13.1,5.2c0.028-0.009,0.081,0.009,0.124,0.016C20.21,4.443,22.552,4,25,4c11.579,0,21,9.42,21,21c0,2.448-0.442,4.789-1.217,6.976c0.008,0.043,0.025,0.096,0.017,0.124C48,28.7,50,24.1,50,19C50,8.5,41.5,0,31,0z"/><path d="M25,6c-5.1,0-9.7,2-13.1,5.2c0.028-0.009,0.081,0.009,0.124,0.016C14.21,10.443,16.552,10,19,10c11.579,0,21,9.42,21,21c0,2.448-0.442,4.789-1.217,6.976c0.008,0.043,0.025,0.096,0.017,0.124C42,34.7,44,30.1,44,25C44,14.5,35.5,6,25,6z"/></svg>