<?xml version="1.0" encoding="utf-8"?><!-- Generator: Adobe Illustrator 18.1.1, SVG Export Plug-In . SVG Version: 6.00 Build 0)  --><svg xmlns="http://www.w3.org/2000/svg" xmlns:xlink="http://www.w3.org/1999/xlink" viewBox="0 0 50 50" width="500px" height="500px"><path fill="none" stroke="#000000" stroke-width="2" stroke-linecap="round" stroke-linejoin="round" stroke-miterlimit="10" d="M42,23h-2v8h2c1.1,0,2-0.9,2-2v-4C44,23.9,43.1,23,42,23z"/><path fill="none" stroke="#000000" stroke-width="2" stroke-linecap="round" stroke-miterlimit="10" d="M29,40h5c3.9,0,7-3.1,7-7v-2"/><path fill="none" stroke="#000000" stroke-width="2" stroke-linecap="round" stroke-miterlimit="10" d="M27,42h-2c-1.1,0-2-0.9-2-2v0c0-1.1,0.9-2,2-2h2c1.1,0,2,0.9,2,2v0C29,41.1,28.1,42,27,42z"/><path fill="none" stroke="#000000" stroke-width="2" stroke-linecap="round" stroke-linejoin="round" stroke-miterlimit="10" d="M9,25.1l4,1.9v-8c0,0,11.5-0.6,16-6c2.7,4.4,8,6,8,6v8l3-1.5"/><g><path d="M42,18C41.6,9.2,36.7,4.2,28.4,4l-2-2H26C13.3,2,8.4,10.2,8,18l0,6.7c-0.7,0.8-1,1.8-1,3.1c0,2.3,1.5,4.2,3.7,4.7C13.3,39.3,17.6,48,25,48c4,0,7.1-2.6,9.5-6c-0.2,0-0.4,0-0.6,0h-2c-2.2,2.7-4.5,4-7,4c-4.8,0-8.9-4.8-12.7-14.8l-0.2-0.6l-0.6-0.1C10.1,30.5,9,29.3,9,27.8c0-0.9,0.2-1.6,0.6-2l0.3-0.3l0-7.5C10.5,7.9,18.3,4.1,25.6,4l2,2H28c10,0,11.8,7.5,12,12l0,5c0,0.6,0.5,1,1,1c0,0,0,0,0,0c0.6,0,1-0.5,1-1L42,18z"/><path d="M40.6,32c0.5-0.3,0.6-0.9,0.4-1.4c-0.3-0.5-0.9-0.6-1.4-0.4c-0.3,0.2-0.7,0.3-1.1,0.3l-0.6,0.1l-0.2,0.6c-1,2.6-2,4.8-3,6.7c1.2-0.2,2.3-0.7,3.1-1.6c0.6-1.3,1.1-2.6,1.6-3.8C39.8,32.4,40.2,32.2,40.6,32z"/></g></svg>