<?xml version="1.0" encoding="iso-8859-1"?><!-- Generator: Adobe Illustrator 19.2.0, SVG Export Plug-In . SVG Version: 6.00 Build 0)  --><svg xmlns="http://www.w3.org/2000/svg" xmlns:xlink="http://www.w3.org/1999/xlink" viewBox="0 0 50 50" width="50px" height="50px"><g id="Layer_1"><g><g><g id="IOS_copy_1_"><path d="M49.96,36.94c-0.1-0.4-0.5-0.7-0.9-0.7l-6.68-0.39l-2.39-6.29c-0.1-0.3-0.5-0.6-0.9-0.6c-0.4,0-0.8,0.3-1,0.5l-2.39,6.29l-6.69,0.39c-0.39,0-0.79,0.3-0.89,0.7c-0.1,0.4,0,0.9,0.4,1.1l5.08,4.19l-1.69,6.48c-0.1,0.4,0.1,0.9,0.4,1.1c0.2,0.1,0.4,0.2,0.59,0.2c0.2,0,0.4-0.1,0.6-0.2l5.59-3.59l5.59,3.69c0.29,0.3,0.79,0.2,1.09,0c0.4-0.3,0.5-0.7,0.4-1.1l-1.69-6.48l5.18-4.19C49.96,37.74,50.06,37.34,49.96,36.94z M42.68,41.13c-0.3,0.2-0.4,0.6-0.3,1l1.2,4.59l-3.99-2.59c-0.1-0.1-0.3-0.2-0.5-0.2c-0.2,0-0.4,0.1-0.6,0.1l-3.99,2.59l1.2-4.59c0.1-0.3,0-0.8-0.3-1l-3.69-2.99l4.79-0.2c0.39-0.1,0.69-0.3,0.89-0.7l1.7-4.39l1.6,4.49c0.2,0.3,0.49,0.6,0.89,0.6l4.79,0.3L42.68,41.13z"/></g></g></g></g><g id="&#x421;&#x43B;&#x43E;&#x439;_1"><line style="fill:none;stroke:#000000;stroke-width:4;stroke-miterlimit:10;" x1="46" y1="25" x2="4" y2="25"/><line style="fill:none;stroke:#000000;stroke-width:4;stroke-miterlimit:10;" x1="46" y1="10" x2="4" y2="10"/><path d="M27.167,39.622C26.584,39.246,26.184,38.665,26,38H4v4h26.051L27.167,39.622z"/></g></svg>