<?xml version="1.0" encoding="utf-8"?><!-- Generator: Adobe Illustrator 19.2.0, SVG Export Plug-In . SVG Version: 6.00 Build 0)  --><svg xmlns="http://www.w3.org/2000/svg" xmlns:xlink="http://www.w3.org/1999/xlink" viewBox="0 0 50 50" width="500px" height="500px"><style type="text/css">.st0{fill:none;stroke:#000000;stroke-width:2;stroke-linejoin:round;stroke-miterlimit:10;}.st1{fill:none;stroke:#000000;stroke-width:2;stroke-linecap:round;stroke-linejoin:round;stroke-miterlimit:10;}</style><rect x="10" y="3" class="st0" width="31" height="44"/><line class="st1" x1="23" y1="10" x2="34" y2="10"/><line class="st1" x1="23" y1="16" x2="34" y2="16"/><line class="st1" x1="23" y1="27" x2="34" y2="27"/><line class="st1" x1="23" y1="33" x2="34" y2="33"/><line class="st1" x1="23" y1="39" x2="34" y2="39"/><circle cx="17" cy="10" r="2"/><circle cx="17" cy="27" r="2"/><path d="M18,18h-2c-0.6,0-1-0.4-1-1v-2c0-0.6,0.4-1,1-1h2c0.6,0,1,0.4,1,1v2C19,17.6,18.6,18,18,18z"/><path d="M17,37L17,37c1.1,0,2,0.9,2,2v0c0,1.1-0.9,2-2,2h0c-1.1,0-2-0.9-2-2v0C15,37.9,15.9,37,17,37z"/><path d="M18,35h-2c-0.6,0-1-0.4-1-1v-2c0-0.6,0.4-1,1-1h2c0.6,0,1,0.4,1,1v2C19,34.6,18.6,35,18,35z"/></svg>