<?xml version="1.0" encoding="iso-8859-1"?><!-- Generator: Adobe Illustrator 21.1.0, SVG Export Plug-In . SVG Version: 6.00 Build 0)  --><svg xmlns="http://www.w3.org/2000/svg" xmlns:xlink="http://www.w3.org/1999/xlink" viewBox="0 0 50 50" width="50px" height="50px"><g></g><path d="M45,6H5C3.895,6,3,6.895,3,8v34c0,1.105,0.895,2,2,2h40c1.105,0,2-0.895,2-2V8C47,6.895,46.105,6,45,6z M35,8h4v2h-4V8z M35,20.5c0,1.381-1.119,2.5-2.5,2.5S30,21.881,30,20.5c0-1.381,1.119-2.5,2.5-2.5S35,19.119,35,20.5z M29,8h4v2h-4V8z M23,8h4v2h-4V8z M17,8h4v2h-4V8z M11,8h4v2h-4V8z M5,14h2v4H5V14z M5,20h2v4H5V20z M5,26h2v4H5V26z M5,32h2v4H5V32z M9,42H6c-0.552,0-1-0.447-1-1v-3h2v2h2V42z M9,10H7v2H5V9c0-0.553,0.448-1,1-1h3V10z M15,42h-4v-2h4V42z M21,42h-4v-2h4V42z M27,42h-4v-2h4V42z M33,42h-4v-2h4V42z M39,42h-4v-2h4V42z M39.895,30.447C39.719,30.798,39.366,31,38.999,31c-0.15,0-0.303-0.034-0.446-0.105L33,28.118l-5.553,2.776c-0.421,0.211-0.934,0.098-1.228-0.27L19,21.601l-7.219,9.024c-0.345,0.43-0.975,0.501-1.405,0.156c-0.432-0.346-0.501-0.975-0.156-1.406l8-10c0.379-0.475,1.183-0.475,1.562,0l7.495,9.369l5.277-2.639c0.281-0.141,0.613-0.141,0.895,0l6,3C39.941,29.353,40.142,29.953,39.895,30.447z M45,41c0,0.553-0.448,1-1,1h-3v-2h2v-2h2V41z M45,36h-2v-4h2V36z M45,30h-2v-4h2V30z M45,24h-2v-4h2V24z M45,18h-2v-4h2V18z M45,12h-2v-2h-2V8h3c0.552,0,1,0.447,1,1V12z"/></svg>