<?xml version="1.0" encoding="iso-8859-1"?><!-- Generator: Adobe Illustrator 19.1.1, SVG Export Plug-In . SVG Version: 6.00 Build 0)  --><svg xmlns="http://www.w3.org/2000/svg" xmlns:xlink="http://www.w3.org/1999/xlink" viewBox="0 0 50 50" width="50px" height="50px"><polygon style="fill:none;stroke:#000000;stroke-width:2;stroke-linejoin:round;stroke-miterlimit:10;" points="49,36 46,33 33,33 33,49 49,49 "/><circle cx="41" cy="44" r="2"/><rect x="37" y="36" width="8" height="2"/><path d="M24,6.004h-5c-1.654,0-3,1.346-3,3V11h11V9.004C27,7.35,25.654,6.004,24,6.004z"/><path d="M33,33h13l1,1.349V15c0-1.103-0.897-2-2-2H14V9.004c0-1.654-1.346-3-3-3H6c-1.654,0-3,1.346-3,3V15h0.012v26c0,1.103,0.897,2,2,2H33V33z"/><path d="M37,6.004h-5c-1.654,0-3,1.346-3,3V11h11V9.004C40,7.35,38.654,6.004,37,6.004z"/></svg>