<?xml version="1.0" encoding="iso-8859-1"?>
<!-- Generator: Adobe Illustrator 23.0.3, SVG Export Plug-In . SVG Version: 6.00 Build 0)  -->
<svg version="1.1" xmlns="http://www.w3.org/2000/svg" xmlns:xlink="http://www.w3.org/1999/xlink" x="0px" y="0px"
	 viewBox="0 0 50 50" style="enable-background:new 0 0 50 50;" xml:space="preserve">
<g id="Layer_1">
	<path d="M43,7H7c-1.654,0-3,1.346-3,3v30c0,1.654,1.346,3,3,3h19.159c-0.111-0.314-0.177-0.649-0.177-1
		c0-0.351,0.067-0.686,0.178-1H7c-0.551,0-1-0.448-1-1V15h38v16.132c0.83,0.46,1.496,1.044,2,1.717V10C46,8.346,44.654,7,43,7z
		 M8,12c-0.552,0-1-0.448-1-1c0-0.552,0.448-1,1-1s1,0.448,1,1C9,11.552,8.552,12,8,12z M11,12c-0.552,0-1-0.448-1-1
		c0-0.552,0.448-1,1-1s1,0.448,1,1C12,11.552,11.552,12,11,12z M14,12c-0.552,0-1-0.448-1-1c0-0.552,0.448-1,1-1s1,0.448,1,1
		C15,11.552,14.552,12,14,12z"/>
	<path d="M41.412,32.412c0,1.332-4.824,1.332-4.824,0C36.588,31.08,37.668,30,39,30S41.412,31.08,41.412,32.412z"/>
	<path style="fill:none;stroke:#000000;stroke-width:2;stroke-linecap:round;stroke-miterlimit:10;" d="M45,39c0,0,4,0,4-5"/>
	<path style="fill:none;stroke:#000000;stroke-width:2;stroke-linecap:round;stroke-miterlimit:10;" d="M45,45c0,0,4,0.25,4,4"/>
	<path style="fill:none;stroke:#000000;stroke-width:2.0359;stroke-linecap:round;stroke-miterlimit:10;" d="M45,42c0,0,1.609,0,4,0
		"/>
	<path style="fill:none;stroke:#000000;stroke-width:2;stroke-linecap:round;stroke-miterlimit:10;" d="M29,34c0,5,4,5,4,5"/>
	<path style="fill:none;stroke:#000000;stroke-width:2;stroke-linecap:round;stroke-miterlimit:10;" d="M29,49c0-3.75,4-4,4-4"/>
	<path style="fill:none;stroke:#000000;stroke-width:2.0359;stroke-linecap:round;stroke-miterlimit:10;" d="M29,42c2.391,0,4,0,4,0
		"/>
	<path d="M44.737,37.73c0.203-0.476,0.317-1.045,0.317-1.73c0-2.785-3.138-4.054-6.054-4.054S32.946,33.215,32.946,36
		c0,0.685,0.114,1.254,0.317,1.73C32.576,38.397,32,39.557,32,41.261c0,3.681,2.058,7.637,6,8.574V42c0-0.553,0.448-1,1-1
		s1,0.447,1,1v7.835c3.942-0.938,6-4.893,6-8.574C46,39.556,45.424,38.397,44.737,37.73z M39,37.946
		c-3.946,0-3.946-0.945-3.946-1.946c0-1.343,2.308-1.946,3.946-1.946s3.946,0.604,3.946,1.946
		C42.946,37.001,42.946,37.946,39,37.946z"/>
</g>
<g id="Layer_2">
</g>
<g id="Layer_3">
</g>
</svg>