<?xml version="1.0" encoding="utf-8"?><!-- Generator: Adobe Illustrator 15.0.0, SVG Export Plug-In . SVG Version: 6.00 Build 0)  --><!DOCTYPE svg PUBLIC "-//W3C//DTD SVG 1.1//EN" "http://www.w3.org/Graphics/SVG/1.1/DTD/svg11.dtd"><svg xmlns="http://www.w3.org/2000/svg" xmlns:xlink="http://www.w3.org/1999/xlink" viewBox="0 0 50 50" width="50px" height="50px"><path d="M47,44H35c-1.654,0-3-1.346-3-3v-8c0-1.654,1.346-3,3-3h12c1.654,0,3,1.346,3,3v8C50,42.654,48.654,44,47,44z"/><path d="M47,20H35c-1.654,0-3-1.346-3-3V9c0-1.654,1.346-3,3-3h12c1.654,0,3,1.346,3,3v8C50,18.654,48.654,20,47,20z"/><path d="M15,32H3c-1.654,0-3-1.346-3-3v-8c0-1.654,1.346-3,3-3h12c1.654,0,3,1.346,3,3v8C18,30.654,16.654,32,15,32z"/><g><polygon points="20,21.5 20,24 30,16.5 30,14 "/><polygon points="20,28.5 30,36 30,33.5 20,26 "/></g></svg>