<?xml version="1.0" encoding="iso-8859-1"?><!-- Generator: Adobe Illustrator 19.1.1, SVG Export Plug-In . SVG Version: 6.00 Build 0)  --><svg xmlns="http://www.w3.org/2000/svg" xmlns:xlink="http://www.w3.org/1999/xlink" viewBox="0 0 50 50" width="50px" height="50px"><path d="M31,5v40h16c1.7,0,3-1.3,3-3V8c0-1.7-1.3-3-3-3H31z M46,12c0,1.1-0.9,2-2,2s-2-0.9-2-2s0.9-2,2-2S46,10.9,46,12z M35,18h11v4H35V18z M35,12c0-1.1,0.9-2,2-2c1.1,0,2,0.9,2,2s-0.9,2-2,2C35.9,14,35,13.1,35,12z"/><path fill="none" stroke="#000000" stroke-width="2" stroke-linejoin="round" stroke-miterlimit="10" d="M32,6H3C1.9,6,1,6.9,1,8v34c0,1.1,0.9,2,2,2h29"/></svg>