<?xml version="1.0" encoding="iso-8859-1"?>
<!-- Generator: Adobe Illustrator 23.0.3, SVG Export Plug-In . SVG Version: 6.00 Build 0)  -->
<svg version="1.1" id="Layer_1" xmlns="http://www.w3.org/2000/svg" xmlns:xlink="http://www.w3.org/1999/xlink" x="0px" y="0px"
	 viewBox="0 0 50 50" style="enable-background:new 0 0 50 50;" xml:space="preserve">
<line style="fill:none;stroke:#000000;stroke-width:2;stroke-miterlimit:10;" x1="4" y1="13" x2="46" y2="13"/>
<circle cx="7" cy="10" r="1"/>
<circle cx="10" cy="10" r="1"/>
<circle cx="13" cy="10" r="1"/>
<g id="IOS_copy_23_">
	<path d="M43.5,30c-1.7,0-3.3,0.7-4.5,1.8c-1.2-1.1-2.8-1.8-4.5-1.8c-3.6,0-6.5,2.9-6.5,6.4c0,5.5,5,8.8,8.2,10.9
		c0.9,0.6,1.6,1,2.1,1.5l0.6,0.5l0.6-0.5c0.5-0.4,1.3-0.9,2.1-1.5C45,45.1,50,41.9,50,36.4C50,32.9,47.1,30,43.5,30z M40.7,45.6
		C40,46,39.5,46.4,39,46.7c-0.5-0.4-1-0.7-1.7-1.1c-3.1-2-7.3-4.8-7.3-9.2c0-2.4,2-4.4,4.5-4.4c1.5,0,2.8,0.7,3.7,2l0.8,1.2l0.8-1.2
		c0.8-1.2,2.2-2,3.7-2c2.5,0,4.5,2,4.5,4.4C48,40.8,43.8,43.6,40.7,45.6z"/>
</g>
<path d="M27.555,42H6c-0.551,0-1-0.448-1-1V9c0-0.552,0.449-1,1-1h38c0.551,0,1,0.448,1,1v19.139c0.7,0.124,1.37,0.332,2,0.615V9
	c0-1.654-1.346-3-3-3H6C4.346,6,3,7.346,3,9v32c0,1.654,1.346,3,3,3h22.999C28.468,43.383,27.978,42.718,27.555,42z"/>
</svg>