<?xml version="1.0" encoding="iso-8859-1"?><!-- Generator: Adobe Illustrator 21.1.0, SVG Export Plug-In . SVG Version: 6.00 Build 0)  --><svg xmlns="http://www.w3.org/2000/svg" xmlns:xlink="http://www.w3.org/1999/xlink" viewBox="0 0 50 50" width="500px" height="500px"><path style="fill:none;stroke:#000000;stroke-width:2;stroke-miterlimit:10;" d="M41,45H9c-2.209,0-4-1.791-4-4V9c0-2.209,1.791-4,4-4h32c2.209,0,4,1.791,4,4v32C45,43.209,43.209,45,41,45z"/><path style="fill:none;stroke:#000000;stroke-width:2;stroke-miterlimit:10;" d="M21,29h16c0.552,0,1-0.448,1-1V14c0-0.552-0.448-1-1-1H21c-0.552,0-1,0.448-1,1v14C20,28.552,20.448,29,21,29z"/><path style="fill:none;stroke:#000000;stroke-width:2;stroke-miterlimit:10;" d="M18,21h-4c-0.552,0-1,0.448-1,1v14c0,0.552,0.448,1,1,1h16c0.552,0,1-0.448,1-1v-5"/><line style="fill:none;stroke:#000000;stroke-width:2;stroke-miterlimit:10;" x1="20" y1="17" x2="38" y2="17"/><line style="fill:none;stroke:#000000;stroke-width:2;stroke-miterlimit:10;" x1="13" y1="25" x2="18" y2="25"/></svg>