<?xml version="1.0" encoding="utf-8"?><!-- Generator: Adobe Illustrator 15.0.0, SVG Export Plug-In . SVG Version: 6.00 Build 0)  --><!DOCTYPE svg PUBLIC "-//W3C//DTD SVG 1.1//EN" "http://www.w3.org/Graphics/SVG/1.1/DTD/svg11.dtd"><svg xmlns="http://www.w3.org/2000/svg" xmlns:xlink="http://www.w3.org/1999/xlink" viewBox="0 0 50 50" width="50px" height="50px"><path d="M49.778,48.349L30.366,14.701c-0.357-0.619-1.375-0.619-1.732,0L9.134,48.5c-0.179,0.31-0.178,0.69,0,1C9.313,49.81,9.643,50,10,50h39c0.006-0.001,0.014,0,0.02,0c0.553,0,1-0.447,1-1C50.02,48.751,49.929,48.523,49.778,48.349z M28.2,27.3c0-0.2,0.1-0.3,0.3-0.3h1.9c0.199,0,0.3,0.1,0.3,0.3v11.4c0,0.2-0.101,0.3-0.3,0.3h-1.9c-0.2,0-0.3-0.1-0.3-0.3V27.3z M30.8,43.7c0,0.2-0.1,0.3-0.3,0.3h-2c-0.2,0-0.3-0.1-0.3-0.3V41.6c0-0.199,0.1-0.3,0.3-0.3h2c0.2,0,0.3,0.101,0.3,0.3V43.7z"/><path fill="none" stroke="#000000" stroke-width="2" stroke-linecap="round" stroke-miterlimit="10" d="M17.2,28.8C16.5,28.9,15.7,29,15,29C7.3,29,1,22.7,1,15S7.3,1,15,1c6.3,0,11.7,4.2,13.4,10"/><circle cx="15" cy="15" r="1.8"/><polyline fill="none" stroke="#000000" stroke-width="2" stroke-linecap="round" stroke-miterlimit="10" points="10.3,19.7 15,15 15,6 "/></svg>