<?xml version="1.0" encoding="iso-8859-1"?><!-- Generator: Adobe Illustrator 21.1.0, SVG Export Plug-In . SVG Version: 6.00 Build 0)  --><svg xmlns="http://www.w3.org/2000/svg" xmlns:xlink="http://www.w3.org/1999/xlink" viewBox="0 0 50 50" width="50px" height="50px"><path d="M25.217,2.005l8.482,8.279c0.395,0.386,0.403,1.02,0.017,1.414C33.52,11.899,33.26,12,33,12c-0.252,0-0.504-0.095-0.699-0.284L26,5.565V25c0,0.553-0.448,1-1,1s-1-0.447-1-1V5.565l-6.301,6.151c-0.395,0.386-1.027,0.38-1.415-0.018c-0.386-0.395-0.378-1.028,0.017-1.414l8.482-8.279C12.201,2.123,2,12.39,2,25c0,12.683,10.318,23,23,23s23-10.317,23-23C48,12.39,37.799,2.123,25.217,2.005z"/></svg>