<?xml version="1.0" encoding="iso-8859-1"?><!-- Generator: Adobe Illustrator 23.0.3, SVG Export Plug-In . SVG Version: 6.00 Build 0)  --><svg xmlns="http://www.w3.org/2000/svg" xmlns:xlink="http://www.w3.org/1999/xlink" viewBox="0 0 50 50" width="50px" height="50px"><circle style="fill:none;stroke:#000000;stroke-width:2;stroke-linecap:round;stroke-miterlimit:10;" cx="36" cy="36" r="9"/><line style="fill:none;stroke:#000000;stroke-width:2;stroke-miterlimit:10;" x1="42" y1="42" x2="49" y2="49"/><line style="fill:none;stroke:#000000;stroke-width:2;stroke-linecap:round;stroke-linejoin:round;stroke-miterlimit:10;" x1="5" y1="13" x2="9" y2="13"/><line style="fill:none;stroke:#000000;stroke-width:2;stroke-linecap:round;stroke-linejoin:round;stroke-miterlimit:10;" x1="5" y1="19" x2="9" y2="19"/><line style="fill:none;stroke:#000000;stroke-width:2;stroke-linecap:round;stroke-linejoin:round;stroke-miterlimit:10;" x1="5" y1="25" x2="9" y2="25"/><line style="fill:none;stroke:#000000;stroke-width:2;stroke-linecap:round;stroke-linejoin:round;stroke-miterlimit:10;" x1="5" y1="31" x2="9" y2="31"/><line style="fill:none;stroke:#000000;stroke-width:2;stroke-linecap:round;stroke-linejoin:round;stroke-miterlimit:10;" x1="5" y1="37" x2="9" y2="37"/><path d="M24,36c0-0.683,0.07-1.348,0.18-2H14c0.266-4.357,6.147-3.722,7-5.981C21,27.083,21.044,26,21.044,26H21c-0.367-0.184-0.949-1.356-1.059-2.345c-0.288-0.022-0.741-0.291-0.874-1.351c-0.071-0.569,0.214-0.89,0.386-0.99C18.092,18.412,19.805,15,24.502,15L25,16c3.269,0,3.414,4.257,2.547,5.314c0.233,0.063,0.458,0.421,0.386,0.99c-0.133,1.06-0.586,1.329-0.874,1.351C26.948,24.645,26,26,26,26v2.019c0.099,0.263,0.272,0.484,0.491,0.681C28.685,25.847,32.123,24,36,24c1.405,0,2.747,0.254,4,0.697V7c0-1.654-1.346-3-3-3H9C7.346,4,6,5.346,6,7v6h3c0.552,0,1,0.448,1,1s-0.448,1-1,1H6v4h3c0.552,0,1,0.448,1,1s-0.448,1-1,1H6v4h3c0.552,0,1,0.447,1,1c0,0.553-0.448,1-1,1H6v4h3c0.552,0,1,0.447,1,1c0,0.553-0.448,1-1,1H6v4h3c0.552,0,1,0.447,1,1c0,0.553-0.448,1-1,1H6v4c0,1.654,1.346,3,3,3h20.372C26.136,43.851,24,40.176,24,36z"/></svg>