<?xml version="1.0" encoding="iso-8859-1"?><!-- Generator: Adobe Illustrator 19.1.1, SVG Export Plug-In . SVG Version: 6.00 Build 0)  --><svg xmlns="http://www.w3.org/2000/svg" xmlns:xlink="http://www.w3.org/1999/xlink" viewBox="0 0 50 50" width="50px" height="50px"><line fill="none" stroke="#000000" stroke-width="2" stroke-linecap="round" stroke-linejoin="round" stroke-miterlimit="10" x1="6" y1="6" x2="44" y2="44"/><g><path d="M27.085,28.399C28.23,27.695,29,26.442,29,25c0-2.209-1.791-4-4-4c-1.442,0-2.695,0.77-3.399,1.915L27.085,28.399z"/><path d="M21.016,25.158c0.083,2.08,1.745,3.743,3.826,3.826L21.016,25.158z"/></g><g><path d="M31.82,35.963l-1.401-1.402C28.817,35.472,26.971,36,25,36c-0.39,0-0.777-0.036-1.165-0.063C18.316,35.353,14,30.672,14,25c0-1.971,0.528-3.817,1.439-5.419l-3.429-3.428c-5.651,3.467-9.508,7.891-9.769,8.195c-0.321,0.375-0.321,0.929,0,1.304C2.675,26.156,12.993,38,25,38c0.403,0,0.8-0.025,1.194-0.062c2.162-0.14,4.263-0.624,6.245-1.356L31.82,35.963z"/><path d="M47.759,24.348C47.325,23.844,37.008,12,25,12c-4.025,0-7.857,1.333-11.193,3.121l1.379,1.379l0,0l1.414,1.414C18.619,15.524,21.633,14,25,14c0.39,0,0.777,0.036,1.165,0.063C31.684,14.647,36,19.328,36,25c0,3.367-1.524,6.381-3.914,8.4l1.413,1.414c0,0,0.001-0.001,0.001-0.001l0.939,0.939c7.537-3.46,13.007-9.737,13.32-10.101C48.08,25.277,48.08,24.723,47.759,24.348z"/></g></svg>