<?xml version="1.0" encoding="iso-8859-1"?><!-- Generator: Adobe Illustrator 19.1.1, SVG Export Plug-In . SVG Version: 6.00 Build 0)  --><svg xmlns="http://www.w3.org/2000/svg" xmlns:xlink="http://www.w3.org/1999/xlink" viewBox="0 0 50 50" width="50px" height="50px"><path d="M24.5,13c-3.033,0-5.5-2.468-5.5-5.5S21.467,2,24.5,2S30,4.468,30,7.5S27.533,13,24.5,13z"/><path d="M35,48H15c-0.552,0-1-0.447-1-1v-6c0-0.553,0.448-1,1-1h5V24h-5c-0.552,0-1-0.447-1-1v-6c0-0.553,0.448-1,1-1h14c0.552,0,1,0.447,1,1v23h5c0.552,0,1,0.447,1,1v6C36,47.553,35.552,48,35,48z"/></svg>