<?xml version="1.0" encoding="iso-8859-1"?><!-- Generator: Adobe Illustrator 21.1.0, SVG Export Plug-In . SVG Version: 6.00 Build 0)  --><svg xmlns="http://www.w3.org/2000/svg" xmlns:xlink="http://www.w3.org/1999/xlink" viewBox="0 0 50 50" width="50px" height="50px"><circle cx="42" cy="5" r="1"/><circle cx="38" cy="5" r="1"/><circle cx="46" cy="5" r="1"/><circle cx="46" cy="9" r="1"/><circle cx="34" cy="5" r="1"/><circle cx="26" cy="5" r="1"/><circle cx="22" cy="5" r="1"/><circle cx="30" cy="5" r="1"/><path style="fill:none;stroke:#000000;stroke-width:2;stroke-miterlimit:10;" d="M25,45h19.244c0.727,0,1.349-0.521,1.477-1.236L48,32c0-0.552-0.448-1-1-1H27.5c-0.552,0-1,0.448-1,1l-2.484,11.824C23.906,44.437,24.378,45,25,45z"/><path d="M45,11H20V7.004c0-1.654-1.346-3-3-3L6.006,4c-1.654,0-3,1.346-3,3l0.006,32c0,1.103,0.897,2,2,2H23V26c0-0.552,0.448-1,1-1h5.5c0.758,0,1.266,2,2,2H44c0.552,0,1,0.448,1,1v1h2V12.996C47,11.894,46.103,11,45,11z"/></svg>