<?xml version="1.0" encoding="iso-8859-1"?><!-- Generator: Adobe Illustrator 21.1.0, SVG Export Plug-In . SVG Version: 6.00 Build 0)  --><svg xmlns="http://www.w3.org/2000/svg" xmlns:xlink="http://www.w3.org/1999/xlink" viewBox="0 0 50 50" width="500px" height="500px"><line style="fill:none;stroke:#000000;stroke-width:2;stroke-linecap:round;stroke-miterlimit:10;" x1="4" y1="4" x2="14" y2="14"/><line style="fill:none;stroke:#000000;stroke-width:2;stroke-linecap:round;stroke-miterlimit:10;" x1="36" y1="14" x2="46" y2="4"/><line style="fill:none;stroke:#000000;stroke-width:2;stroke-linecap:round;stroke-miterlimit:10;" x1="46" y1="46" x2="35" y2="36"/><line style="fill:none;stroke:#000000;stroke-width:2;stroke-linecap:round;stroke-miterlimit:10;" x1="14" y1="36" x2="4" y2="46"/><polyline style="fill:none;stroke:#000000;stroke-width:2;stroke-linecap:round;stroke-linejoin:round;stroke-miterlimit:10;" points="4,11 4,4 11,4 "/><polyline style="fill:none;stroke:#000000;stroke-width:2;stroke-linecap:round;stroke-linejoin:round;stroke-miterlimit:10;" points="39,4 46,4 46,11 "/><polyline style="fill:none;stroke:#000000;stroke-width:2;stroke-linecap:round;stroke-linejoin:round;stroke-miterlimit:10;" points="11,46 4,46 4,39 "/><polyline style="fill:none;stroke:#000000;stroke-width:2;stroke-linecap:round;stroke-linejoin:round;stroke-miterlimit:10;" points="46,39 46,46 39,46 "/><path d="M39.655,14.587C41.753,17.53,43,21.119,43,25c0,4.085-1.383,7.844-3.685,10.868l1.484,1.349C43.422,33.834,45,29.602,45,25c0-4.433-1.468-8.52-3.918-11.839L39.655,14.587z"/><path d="M8.918,13.161C6.468,16.48,5,20.567,5,25s1.468,8.52,3.918,11.839l1.427-1.427C8.247,32.47,7,28.881,7,25s1.247-7.47,3.345-10.413L8.918,13.161z"/><path d="M13.161,8.918l1.427,1.427C17.53,8.247,21.119,7,25,7s7.47,1.247,10.413,3.345l1.427-1.427C33.52,6.468,29.433,5,25,5S16.48,6.468,13.161,8.918z"/><path d="M25,43c-3.881,0-7.47-1.247-10.413-3.345l-1.427,1.427C16.48,43.532,20.567,45,25,45c4.259,0,8.203-1.349,11.451-3.627l-1.515-1.377C32.086,41.89,28.671,43,25,43z"/></svg>