<?xml version="1.0" encoding="iso-8859-1"?><!-- Generator: Adobe Illustrator 22.1.0, SVG Export Plug-In . SVG Version: 6.00 Build 0)  --><svg xmlns="http://www.w3.org/2000/svg" xmlns:xlink="http://www.w3.org/1999/xlink" viewBox="0 0 50 50" width="500px" height="500px"><path d="M27,7H12C5.383,7,0,12.383,0,19c0,5.584,3.839,10.276,9.013,11.608c0.019-0.684,0.087-1.355,0.203-2.011C5.053,27.388,2,23.547,2,19C2,13.486,6.486,9,12,9h15c5.514,0,10,4.486,10,10s-4.486,10-10,10H15.262C15.095,29.64,15,30.308,15,31h12c6.617,0,12-5.383,12-12S33.617,7,27,7z"/><path d="M40.976,19.389c-0.019,0.684-0.093,1.353-0.208,2.01C44.938,22.603,48,26.447,48,31c0,5.514-4.486,10-10,10H23c-5.514,0-10-4.486-10-10s4.486-10,10-10h11.728C34.895,20.359,35,19.693,35,19H23c-6.617,0-12,5.383-12,12s5.383,12,12,12h15c6.617,0,12-5.383,12-12C50,25.412,46.155,20.717,40.976,19.389z"/></svg>