<?xml version="1.0" encoding="iso-8859-1"?><!-- Generator: Adobe Illustrator 23.0.3, SVG Export Plug-In . SVG Version: 6.00 Build 0)  --><svg xmlns="http://www.w3.org/2000/svg" xmlns:xlink="http://www.w3.org/1999/xlink" viewBox="0 0 50 50" width="50px" height="50px"><line style="fill:none;stroke:#000000;stroke-width:2;stroke-linecap:round;stroke-linejoin:round;stroke-miterlimit:10;" x1="11" y1="20" x2="47" y2="20"/><path d="M7,23H3c-0.552,0-1-0.448-1-1v-4c0-0.552,0.448-1,1-1h4c0.552,0,1,0.448,1,1v4C8,22.552,7.552,23,7,23z"/><line style="fill:none;stroke:#000000;stroke-width:2;stroke-linecap:round;stroke-linejoin:round;stroke-miterlimit:10;" x1="11" y1="10" x2="47" y2="10"/><path d="M7,13H3c-0.552,0-1-0.448-1-1V8c0-0.552,0.448-1,1-1h4c0.552,0,1,0.448,1,1v4C8,12.552,7.552,13,7,13z"/><path d="M7,33H3c-0.552,0-1-0.448-1-1v-4c0-0.552,0.448-1,1-1h4c0.552,0,1,0.448,1,1v4C8,32.552,7.552,33,7,33z"/><path d="M7,43H3c-0.552,0-1-0.448-1-1v-4c0-0.552,0.448-1,1-1h4c0.552,0,1,0.448,1,1v4C8,42.552,7.552,43,7,43z"/><circle style="fill:none;stroke:#000000;stroke-width:2;stroke-linecap:round;stroke-miterlimit:10;" cx="36" cy="36" r="9"/><line style="fill:none;stroke:#000000;stroke-width:2;stroke-miterlimit:10;" x1="42" y1="42" x2="49" y2="49"/><g><path d="M11,31h14.102c0.325-0.707,0.715-1.375,1.165-2H11c-0.552,0-1,0.448-1,1S10.448,31,11,31z"/><path d="M24.393,39H11c-0.552,0-1,0.448-1,1s0.448,1,1,1h14.102C24.808,40.361,24.572,39.693,24.393,39z"/></g></svg>