<?xml version="1.0" encoding="utf-8"?><!-- Generator: Adobe Illustrator 18.1.1, SVG Export Plug-In . SVG Version: 6.00 Build 0)  --><svg xmlns="http://www.w3.org/2000/svg" xmlns:xlink="http://www.w3.org/1999/xlink" viewBox="0 0 50 50" width="50px" height="50px"><path d="M3,5C1.3,5,0,6.3,0,8v34c0,1.7,1.3,3,3,3h16V5H3z M6,10c1.1,0,2,0.9,2,2s-0.9,2-2,2s-2-0.9-2-2S4.9,10,6,10z M15,22H4v-4h11V22z M13,14c-1.1,0-2-0.9-2-2s0.9-2,2-2s2,0.9,2,2S14.1,14,13,14z"/><path fill="none" stroke="#000000" stroke-width="2" stroke-linejoin="round" stroke-miterlimit="10" d="M18,44h29c1.1,0,2-0.9,2-2V8c0-1.1-0.9-2-2-2H18"/></svg>