<?xml version="1.0" encoding="utf-8"?><!-- Generator: Adobe Illustrator 15.0.0, SVG Export Plug-In . SVG Version: 6.00 Build 0)  --><!DOCTYPE svg PUBLIC "-//W3C//DTD SVG 1.1//EN" "http://www.w3.org/Graphics/SVG/1.1/DTD/svg11.dtd"><svg xmlns="http://www.w3.org/2000/svg" xmlns:xlink="http://www.w3.org/1999/xlink" viewBox="0 0 50 50" width="50px" height="50px"><path d="M41,18H9c-1.654,0-3,1.346-3,3v24c0,1.654,1.346,3,3,3h32c1.654,0,3-1.346,3-3V21C44,19.346,42.654,18,41,18z M25,40c-3.866,0-7-3.134-7-7s3.134-7,7-7s7,3.134,7,7S28.866,40,25,40z"/><path d="M27,33c-1.1,0-2-0.9-2-2c0-0.8,0.5-1.5,1.2-1.8C25.8,29.1,25.4,29,25,29c-2.2,0-4,1.8-4,4s1.8,4,4,4s4-1.8,4-4c0-0.4-0.1-0.8-0.2-1.2C28.5,32.5,27.8,33,27,33z"/><g><path d="M15,16v-3c0-5.514,4.486-10,10-10c5.514,0,10,4.486,10,10v3h2v-3c0-6.617-5.383-12-12-12c-6.617,0-12,5.383-12,12v3H15z"/></g></svg>