<?xml version="1.0" encoding="iso-8859-1"?><!-- Generator: Adobe Illustrator 23.0.3, SVG Export Plug-In . SVG Version: 6.00 Build 0)  --><svg xmlns="http://www.w3.org/2000/svg" xmlns:xlink="http://www.w3.org/1999/xlink" viewBox="0 0 50 50" width="50px" height="50px"><path d="M45.842,12.96l-5.455-8.5C40.203,4.173,39.886,4,39.545,4H10.455c-0.34,0-0.658,0.173-0.842,0.46l-5.455,8.5C4.055,13.121,4,13.309,4,13.5V45c0,0.552,0.448,1,1,1h40c0.552,0,1-0.448,1-1V13.5C46,13.309,45.945,13.121,45.842,12.96z M31.707,33.707l-6,6C25.512,39.902,25.256,40,25,40s-0.512-0.098-0.707-0.293l-6-6c-0.391-0.391-0.391-1.023,0-1.414s1.023-0.391,1.414,0L24,36.586V24c0-0.552,0.448-1,1-1s1,0.448,1,1v12.586l4.293-4.293c0.391-0.391,1.023-0.391,1.414,0S32.098,33.316,31.707,33.707z M30,13c-0.552,0-1,0.448-1,1c0,2.206-1.794,4-4,4s-4-1.794-4-4c0-0.552-0.448-1-1-1H6.509l4.492-7h27.998l4.492,7H30z"/></svg>