<?xml version="1.0" encoding="utf-8"?><!-- Generator: Adobe Illustrator 18.1.1, SVG Export Plug-In . SVG Version: 6.00 Build 0)  --><svg xmlns="http://www.w3.org/2000/svg" xmlns:xlink="http://www.w3.org/1999/xlink" viewBox="0 0 50 50" width="500px" height="500px"><polyline fill="none" stroke="#000000" stroke-width="2" stroke-miterlimit="10" points="22,36 22,25 11,25 "/><line fill="none" stroke="#000000" stroke-width="2" stroke-miterlimit="10" x1="4.8" y1="42.2" x2="21.8" y2="25.2"/><path d="M43,7H7c-1.7,0-3,1.3-3,3v28l2-2V10c0-0.6,0.4-1,1-1h36c0.6,0,1,0.4,1,1v30c0,0.6-0.4,1-1,1H11l-2,2h34c1.7,0,3-1.3,3-3V10C46,8.3,44.7,7,43,7z"/><line fill="none" stroke="#000000" stroke-width="2" stroke-miterlimit="10" x1="5" y1="14" x2="45" y2="14"/><circle cx="8" cy="11" r="1"/><circle cx="11" cy="11" r="1"/><circle cx="14" cy="11" r="1"/></svg>