<?xml version="1.0" encoding="iso-8859-1"?><!-- Generator: Adobe Illustrator 21.1.0, SVG Export Plug-In . SVG Version: 6.00 Build 0)  --><svg xmlns="http://www.w3.org/2000/svg" xmlns:xlink="http://www.w3.org/1999/xlink" viewBox="0 0 50 50" width="50px" height="50px"><path d="M48,25c0-3.345-1.901-6.265-4.676-7.74c0.758-2.888,0.019-6.098-2.234-8.351c-1.683-1.683-3.9-2.521-6.119-2.521c-0.751,0-1.502,0.096-2.232,0.288C31.265,3.901,28.345,2,25,2s-6.265,1.901-7.74,4.676c-0.731-0.192-1.481-0.288-2.232-0.288c-2.219,0-4.436,0.838-6.119,2.521c-2.253,2.253-2.992,5.462-2.234,8.351C3.901,18.735,2,21.655,2,25s1.901,6.265,4.676,7.74c-0.758,2.888-0.019,6.098,2.234,8.351c1.683,1.683,3.9,2.521,6.119,2.521c0.751,0,1.502-0.096,2.232-0.288C18.735,46.099,21.655,48,25,48s6.265-1.901,7.74-4.676c0.731,0.192,1.481,0.288,2.232,0.288c2.219,0,4.436-0.838,6.119-2.521c2.253-2.253,2.992-5.462,2.234-8.351C46.099,31.265,48,28.345,48,25z M26,35h-2v-2h2V35z M28.803,26.273C27.299,27.396,26,28.365,26,31h-2c0-3.638,2-5.13,3.607-6.33C28.996,23.634,30,22.885,30,21c0-0.04-0.294-4-5-4s-5,3.96-5,4v1h-2v-1c0-1.268,1.188-6,7-6s7,4.732,7,6C32,23.888,30.301,25.155,28.803,26.273z"/></svg>