<?xml version="1.0" encoding="iso-8859-1"?>
<!-- Generator: Adobe Illustrator 22.1.0, SVG Export Plug-In . SVG Version: 6.00 Build 0)  -->
<svg version="1.1" id="Layer_1" xmlns="http://www.w3.org/2000/svg" xmlns:xlink="http://www.w3.org/1999/xlink" x="0px" y="0px"
	 viewBox="0 0 50 50" style="enable-background:new 0 0 50 50;" xml:space="preserve">
<path d="M22,23H5c-0.552,0-1-0.448-1-1V5c0-0.552,0.448-1,1-1h17c0.552,0,1,0.448,1,1v17C23,22.552,22.552,23,22,23z"/>
<path d="M45,23H28c-0.552,0-1-0.448-1-1V5c0-0.552,0.448-1,1-1h17c0.552,0,1,0.448,1,1v17C46,22.552,45.552,23,45,23z"/>
<path d="M22,46H5c-0.552,0-1-0.448-1-1V28c0-0.552,0.448-1,1-1h17c0.552,0,1,0.448,1,1v17C23,45.552,22.552,46,22,46z"/>
<path d="M45,46H28c-0.552,0-1-0.448-1-1V28c0-0.552,0.448-1,1-1h17c0.552,0,1,0.448,1,1v17C46,45.552,45.552,46,45,46z"/>
</svg>