<?xml version="1.0" encoding="utf-8"?><!-- Generator: Adobe Illustrator 15.0.0, SVG Export Plug-In . SVG Version: 6.00 Build 0)  --><!DOCTYPE svg PUBLIC "-//W3C//DTD SVG 1.1//EN" "http://www.w3.org/Graphics/SVG/1.1/DTD/svg11.dtd"><svg xmlns="http://www.w3.org/2000/svg" xmlns:xlink="http://www.w3.org/1999/xlink" viewBox="0 0 50 50" width="50px" height="50px"><line fill="none" stroke="#000000" stroke-width="4" stroke-linecap="round" stroke-linejoin="round" stroke-miterlimit="10" x1="12" y1="20" x2="46" y2="20"/><path d="M7,23H3c-0.552,0-1-0.448-1-1v-4c0-0.552,0.448-1,1-1h4c0.552,0,1,0.448,1,1v4C8,22.552,7.552,23,7,23z"/><line fill="none" stroke="#000000" stroke-width="4" stroke-linecap="round" stroke-linejoin="round" stroke-miterlimit="10" x1="12" y1="10" x2="46" y2="10"/><path d="M7,13H3c-0.552,0-1-0.448-1-1V8c0-0.552,0.448-1,1-1h4c0.552,0,1,0.448,1,1v4C8,12.552,7.552,13,7,13z"/><line fill="none" stroke="#000000" stroke-width="4" stroke-linecap="round" stroke-linejoin="round" stroke-miterlimit="10" x1="12" y1="30" x2="46" y2="30"/><path d="M7,33H3c-0.552,0-1-0.447-1-1v-4c0-0.553,0.448-1,1-1h4c0.552,0,1,0.447,1,1v4C8,32.553,7.552,33,7,33z"/><line fill="none" stroke="#000000" stroke-width="4" stroke-linecap="round" stroke-linejoin="round" stroke-miterlimit="10" x1="12" y1="40" x2="46" y2="40"/><path d="M7,43H3c-0.552,0-1-0.447-1-1v-4c0-0.553,0.448-1,1-1h4c0.552,0,1,0.447,1,1v4C8,42.553,7.552,43,7,43z"/></svg>