<?xml version="1.0" encoding="iso-8859-1"?><!-- Generator: Adobe Illustrator 21.0.2, SVG Export Plug-In . SVG Version: 6.00 Build 0)  --><svg xmlns="http://www.w3.org/2000/svg" xmlns:xlink="http://www.w3.org/1999/xlink" viewBox="0 0 50 50" width="500px" height="500px"><path style="fill:none;stroke:#000000;stroke-width:2;stroke-miterlimit:10;" d="M28,14H16V9.004c0-1.105,0.895-2,2-2h8c1.105,0,2,0.895,2,2V14z"/><path style="fill:none;stroke:#000000;stroke-width:2;stroke-miterlimit:10;" d="M31,40c0-4.971,4.029-9,9-9c2.308,0,4.407,0.877,6,2.305V15c0-0.552-0.448-1-1-1H16V9.004c0-1.105-0.895-2-2-2H6.006c-1.105,0-2,0.895-2,2V14h0.006v27c0,0.552,0.448,1,1,1h26.219C31.084,41.356,31,40.688,31,40z"/><path style="fill:none;stroke:#000000;stroke-width:2;stroke-miterlimit:10;" d="M40,14H28V9.004c0-1.105,0.895-2,2-2h8c1.105,0,2,0.895,2,2V14z"/><g><g><g id="IOS_copy"><path d="M44.2,37.2L41.4,40l2.8,2.8c0.4,0.4,0.4,1,0,1.4c-0.2,0.2-0.5,0.3-0.7,0.3s-0.5-0.1-0.7-0.3L40,41.4l-2.8,2.8c-0.2,0.2-0.5,0.3-0.7,0.3s-0.5-0.1-0.7-0.3c-0.4-0.4-0.4-1,0-1.4l2.8-2.8l-2.8-2.8c-0.4-0.4-0.4-1,0-1.4s1-0.4,1.4,0l2.8,2.8l2.8-2.8c0.4-0.4,1-0.4,1.4,0S44.6,36.8,44.2,37.2z M50,40c0,5.5-4.5,10-10,10s-10-4.5-10-10s4.5-10,10-10S50,34.5,50,40z M48,40c0-4.4-3.6-8-8-8s-8,3.6-8,8s3.6,8,8,8S48,44.4,48,40z"/></g></g></g></svg>