<?xml version="1.0" encoding="iso-8859-1"?>
<!-- Generator: Adobe Illustrator 23.0.3, SVG Export Plug-In . SVG Version: 6.00 Build 0)  -->
<svg version="1.1" id="Layer_1" xmlns="http://www.w3.org/2000/svg" xmlns:xlink="http://www.w3.org/1999/xlink" x="0px" y="0px"
	 viewBox="0 0 50 50" style="enable-background:new 0 0 50 50;" xml:space="preserve">
<g>
	<path d="M25,48c-0.7,0-1.405-0.032-2.096-0.094l0.18-1.992c1.277,0.115,2.603,0.113,3.875-0.004l0.185,1.991
		C26.44,47.966,25.719,48,25,48z M18.733,47.135c-1.361-0.385-2.693-0.899-3.959-1.529l0.891-1.791
		c1.155,0.575,2.371,1.044,3.613,1.395L18.733,47.135z M31.314,47.123l-0.548-1.924c1.239-0.353,2.454-0.825,3.609-1.402
		l0.894,1.789C34.003,46.218,32.672,46.735,31.314,47.123z M11.165,43.375c-1.129-0.852-2.185-1.812-3.138-2.854l1.476-1.35
		c0.871,0.952,1.835,1.829,2.866,2.607L11.165,43.375z M38.873,43.348l-1.208-1.595c1.029-0.779,1.992-1.658,2.861-2.612
		l1.479,1.347C41.053,41.532,40,42.494,38.873,43.348z M5.463,37.143c-0.748-1.201-1.388-2.478-1.9-3.793l1.863-0.726
		c0.468,1.201,1.051,2.365,1.734,3.461L5.463,37.143z M44.561,37.104l-1.699-1.055c0.681-1.097,1.262-2.263,1.728-3.466l1.865,0.722
		C45.944,34.623,45.307,35.901,44.561,37.104z M2.396,29.271C2.136,27.887,2.003,26.466,2,25.048l2-0.004
		c0.002,1.296,0.124,2.594,0.361,3.857L2.396,29.271z M47.613,29.223l-1.967-0.365C45.881,27.595,46,26.297,46,25l2-0.092V25
		C48,26.419,47.87,27.84,47.613,29.223z M4.345,21.186l-1.967-0.361c0.255-1.39,0.642-2.764,1.149-4.084l1.867,0.718
		C4.931,18.663,4.578,19.917,4.345,21.186z M45.63,21.055c-0.241-1.267-0.602-2.519-1.073-3.72l1.862-0.729
		c0.516,1.316,0.912,2.688,1.175,4.077L45.63,21.055z M7.115,13.989l-1.702-1.05c0.742-1.202,1.6-2.343,2.55-3.39l1.481,1.344
		C8.576,11.849,7.792,12.891,7.115,13.989z M42.816,13.877c-0.685-1.094-1.475-2.13-2.349-3.081l1.473-1.354
		c0.957,1.041,1.822,2.176,2.571,3.373L42.816,13.877z M12.3,8.274l-1.211-1.592c1.126-0.857,2.337-1.612,3.599-2.247l0.898,1.787
		C14.434,6.801,13.329,7.492,12.3,8.274z M37.596,8.195c-1.035-0.776-2.145-1.459-3.3-2.031l0.887-1.793
		c1.265,0.626,2.48,1.374,3.613,2.224L37.596,8.195z M19.191,4.813L18.64,2.891c1.356-0.389,2.759-0.654,4.168-0.787l0.188,1.991
		C21.709,4.216,20.429,4.458,19.191,4.813z M30.681,4.777c-1.239-0.347-2.521-0.581-3.809-0.695l0.176-1.992
		c1.411,0.125,2.815,0.381,4.173,0.761L30.681,4.777z"/>
</g>
<g>
	<path d="M25,30c-2.757,0-5-2.243-5-5s2.243-5,5-5s5,2.243,5,5S27.757,30,25,30z M25,22c-1.654,0-3,1.346-3,3s1.346,3,3,3
		s3-1.346,3-3S26.654,22,25,22z"/>
</g>
</svg>