<?xml version="1.0" encoding="iso-8859-1"?><!-- Generator: Adobe Illustrator 21.1.0, SVG Export Plug-In . SVG Version: 6.00 Build 0)  --><svg xmlns="http://www.w3.org/2000/svg" xmlns:xlink="http://www.w3.org/1999/xlink" viewBox="0 0 50 50" width="500px" height="500px"><path style="fill:none;stroke:#000000;stroke-width:2;stroke-miterlimit:10;" d="M41,45H9c-2.209,0-4-1.791-4-4V9c0-2.209,1.791-4,4-4h32c2.209,0,4,1.791,4,4v32C45,43.209,43.209,45,41,45z"/><path style="fill:none;stroke:#000000;stroke-width:2;stroke-miterlimit:10;" d="M14,37h22c0.552,0,1-0.448,1-1v-2c0-0.552-0.448-1-1-1H14c-0.552,0-1,0.448-1,1v2C13,36.552,13.448,37,14,37z"/></svg>