<?xml version="1.0" encoding="iso-8859-1"?><!-- Generator: Adobe Illustrator 22.1.0, SVG Export Plug-In . SVG Version: 6.00 Build 0)  --><svg xmlns="http://www.w3.org/2000/svg" xmlns:xlink="http://www.w3.org/1999/xlink" viewBox="0 0 50 50" width="50px" height="50px"><path d="M46,7H4c-1.654,0-3,1.346-3,3v30c0,1.654,1.346,3,3,3h42c1.654,0,3-1.346,3-3V10C49,8.346,47.654,7,46,7z M13.932,31h-2.57L7,19h2.337l3.271,9.497h0.147L16,19h2.25L13.932,31z M25.566,27H22.5v4h-0.875H20.5V19h2h3.159c2.429,0,4.091,1.572,4.091,3.992C29.75,25.37,28.029,27,25.566,27z M42,31h-1.863l-5.915-8.166H34V31h-2V19h1.871l5.915,8.159H40V19h2V31z"/><path style="fill:#231F20;" d="M24.034,20.797H22.5v4.424h2.577c1.552,0,2.463-0.798,2.463-2.229C27.54,21.52,26.654,20.797,24.034,20.797z"/></svg>