<?xml version="1.0" encoding="utf-8"?><!-- Generator: Adobe Illustrator 15.0.0, SVG Export Plug-In . SVG Version: 6.00 Build 0)  --><!DOCTYPE svg PUBLIC "-//W3C//DTD SVG 1.1//EN" "http://www.w3.org/Graphics/SVG/1.1/DTD/svg11.dtd"><svg xmlns="http://www.w3.org/2000/svg" xmlns:xlink="http://www.w3.org/1999/xlink" viewBox="0 0 50 50" width="50px" height="50px"><line fill="none" stroke="#000000" stroke-width="2" stroke-linejoin="round" stroke-miterlimit="10" x1="20" y1="7" x2="50" y2="7"/><line fill="none" stroke="#000000" stroke-width="2" stroke-linejoin="round" stroke-miterlimit="10" x1="20" y1="25" x2="50" y2="25"/><path d="M13,50H1c-0.552,0-1-0.447-1-1V37c0-0.553,0.448-1,1-1h12c0.552,0,1,0.447,1,1v12C14,49.553,13.552,50,13,50z"/><line fill="none" stroke="#000000" stroke-width="2" stroke-linejoin="round" stroke-miterlimit="10" x1="20" y1="43" x2="50" y2="43"/><path d="M13,0H1C0.448,0,0,0.448,0,1v12c0,0.552,0.448,1,1,1h12c0.552,0,1-0.448,1-1V1C14,0.448,13.552,0,13,0z M6.59,10.395L2.349,6.759l1.302-1.519L6.41,7.605l3.847-4.274l1.486,1.338L6.59,10.395z"/><path d="M13,18H1c-0.552,0-1,0.448-1,1v12c0,0.553,0.448,1,1,1h12c0.552,0,1-0.447,1-1V19C14,18.448,13.552,18,13,18z M6.59,28.395l-4.241-3.635l1.302-1.519l2.759,2.365l3.847-4.274l1.486,1.338L6.59,28.395z"/></svg>