<?xml version="1.0" encoding="iso-8859-1"?><!-- Generator: Adobe Illustrator 19.2.1, SVG Export Plug-In . SVG Version: 6.00 Build 0)  --><svg xmlns="http://www.w3.org/2000/svg" xmlns:xlink="http://www.w3.org/1999/xlink" viewBox="0 0 50 50" width="50px" height="50px"><rect y="0" transform="matrix(8.978513e-11 -1 1 8.978513e-11 -2.779412e-09 50)" style="fill:none;" width="50" height="50"/><path d="M14,22c0-3.308,2.692-6,6-6h14v-6c0-2.206-1.794-4-4-4H6c-2.206,0-4,1.794-4,4v18c0,2.206,1.794,4,4,4h8V22z"/><path d="M44,18H20c-2.206,0-4,1.794-4,4v18c0,2.206,1.794,4,4,4h24c2.206,0,4-1.794,4-4V22C48,19.794,46.206,18,44,18z"/></svg>