<?xml version="1.0" encoding="iso-8859-1"?><!-- Generator: Adobe Illustrator 22.1.0, SVG Export Plug-In . SVG Version: 6.00 Build 0)  --><svg xmlns="http://www.w3.org/2000/svg" xmlns:xlink="http://www.w3.org/1999/xlink" viewBox="0 0 50 50" width="50px" height="50px"><path d="M10,31c-3.309,0-6-2.691-6-6s2.691-6,6-6s6,2.691,6,6S13.309,31,10,31z"/><path d="M10,46c-3.309,0-6-2.691-6-6s2.691-6,6-6s6,2.691,6,6S13.309,46,10,46z"/><path d="M10,16c-3.309,0-6-2.691-6-6s2.691-6,6-6s6,2.691,6,6S13.309,16,10,16z"/><path d="M25,31c-3.309,0-6-2.691-6-6s2.691-6,6-6s6,2.691,6,6S28.309,31,25,31z"/><path d="M25,46c-3.309,0-6-2.691-6-6s2.691-6,6-6s6,2.691,6,6S28.309,46,25,46z"/><path d="M25,16c-3.309,0-6-2.691-6-6s2.691-6,6-6s6,2.691,6,6S28.309,16,25,16z"/><path d="M40,31c-3.309,0-6-2.691-6-6s2.691-6,6-6s6,2.691,6,6S43.309,31,40,31z"/><path d="M40,46c-3.309,0-6-2.691-6-6s2.691-6,6-6s6,2.691,6,6S43.309,46,40,46z"/><path d="M40,16c-3.309,0-6-2.691-6-6s2.691-6,6-6s6,2.691,6,6S43.309,16,40,16z"/></svg>