<?xml version="1.0" encoding="iso-8859-1"?><!-- Generator: Adobe Illustrator 19.1.0, SVG Export Plug-In . SVG Version: 6.00 Build 0)  --><svg xmlns="http://www.w3.org/2000/svg" xmlns:xlink="http://www.w3.org/1999/xlink" viewBox="0 0 50 50" width="500px" height="500px"><path style="fill:none;stroke:#000000;stroke-width:2;stroke-miterlimit:10;" d="M4,10h42c1.105,0,2,0.895,2,2v26c0,1.105-0.895,2-2,2H4c-1.105,0-2-0.895-2-2V12C2,10.895,2.895,10,4,10z"/><g><path d="M16.489,18.839H16.29l-4.266,3.059V19.46l4.477-3.188h2.367v16.91h-2.379V18.839z"/><path d="M23.813,22.777c0-0.914,0.715-1.629,1.629-1.629c0.926,0,1.629,0.715,1.629,1.629c0,0.902-0.703,1.629-1.629,1.629C24.528,24.406,23.813,23.679,23.813,22.777z M23.813,31.718c0-0.914,0.715-1.629,1.629-1.629c0.926,0,1.629,0.715,1.629,1.629c0,0.902-0.703,1.617-1.629,1.617C24.528,33.335,23.813,32.62,23.813,31.718z"/><path d="M34.805,18.839h-0.199l-4.266,3.059V19.46l4.477-3.188h2.367v16.91h-2.379V18.839z"/></g></svg>