<?xml version="1.0" encoding="iso-8859-1"?><!-- Generator: Adobe Illustrator 22.1.0, SVG Export Plug-In . SVG Version: 6.00 Build 0)  --><svg xmlns="http://www.w3.org/2000/svg" xmlns:xlink="http://www.w3.org/1999/xlink" viewBox="0 0 50 50" width="500px" height="500px"><path style="fill:none;stroke:#000000;stroke-width:2;stroke-linejoin:round;stroke-miterlimit:10;" d="M46,42H4c-1.105,0-2-0.895-2-2V10c0-1.105,0.895-2,2-2h42c1.105,0,2,0.895,2,2v30C48,41.105,47.105,42,46,42z"/><path d="M11.362,31L7,19h2.337l3.271,9.497h0.147L16,19h2.25l-4.318,12H11.362z"/><path d="M25.659,19c2.429,0,4.091,1.572,4.091,3.992c0,2.378-1.721,4.008-4.184,4.008h-3.941v4H20.5V19H25.659z M21.625,25.22h3.452c1.552,0,2.463-0.798,2.463-2.228c0-1.472-0.886-2.195-3.506-2.195h-2.409V25.22z"/><path d="M32,31V19h1.871l5.915,8.159H40V19h2v12h-1.863l-5.915-8.166H34V31H32z"/><rect x="20.5" y="19" width="2" height="12"/></svg>