<?xml version="1.0" encoding="iso-8859-1"?><!-- Generator: Adobe Illustrator 23.0.3, SVG Export Plug-In . SVG Version: 6.00 Build 0)  --><svg xmlns="http://www.w3.org/2000/svg" xmlns:xlink="http://www.w3.org/1999/xlink" viewBox="0 0 50 50" width="50px" height="50px"><g><g><path style="fill:none;stroke:#000000;stroke-width:2;stroke-linecap:round;stroke-linejoin:round;stroke-miterlimit:10;" d="M31,35c0-3.314-2.686-6-6-6s-6,2.686-6,6c0,2.22,1.208,4.153,3,5.191V43c0,1.105,0.895,2,2,2h2c1.105,0,2-0.895,2-2v-2.809C29.792,39.153,31,37.22,31,35z"/></g></g><path d="M23,45h4c0,1.105-0.895,2-2,2S23,46.105,23,45z"/><rect x="22" y="40" width="6" height="5"/><circle cx="35" cy="35" r="1"/><circle cx="39" cy="35" r="1"/><circle cx="37" cy="42" r="1"/><circle cx="34" cy="30" r="1"/><circle cx="37" cy="28" r="1"/><circle cx="34" cy="40" r="1"/><circle cx="15" cy="35" r="1"/><circle cx="11" cy="35" r="1"/><circle cx="13" cy="42" r="1"/><circle cx="16" cy="30" r="1"/><circle cx="13" cy="28" r="1"/><circle cx="16" cy="40" r="1"/><path d="M45.154,4H4.846C3.277,4,2,5.298,2,6.893V41c0,0.553,0.448,1,1,1h6v-2H4V16h42v24h-5v2h6c0.552,0,1-0.447,1-1V6.893C48,5.298,46.723,4,45.154,4z M8,12c-1.105,0-2-0.895-2-2c0-1.105,0.895-2,2-2s2,0.895,2,2C10,11.105,9.105,12,8,12z M14,12c-1.105,0-2-0.895-2-2c0-1.105,0.895-2,2-2s2,0.895,2,2C16,11.105,15.105,12,14,12z M42,12H20V8h22V12z"/></svg>