<?xml version="1.0" encoding="utf-8"?><!-- Generator: Adobe Illustrator 18.1.1, SVG Export Plug-In . SVG Version: 6.00 Build 0)  --><svg xmlns="http://www.w3.org/2000/svg" xmlns:xlink="http://www.w3.org/1999/xlink" viewBox="0 0 50 50" width="500px" height="500px"><line fill="none" stroke="#000000" stroke-width="2" stroke-linecap="round" stroke-linejoin="round" stroke-miterlimit="10" x1="32.3" y1="6.3" x2="43.7" y2="17.7"/><line fill="none" stroke="#000000" stroke-width="2" stroke-linecap="round" stroke-linejoin="round" stroke-miterlimit="10" x1="36.5" y1="4.5" x2="45.7" y2="13.7"/><line fill="none" stroke="#000000" stroke-width="2" stroke-linecap="round" stroke-linejoin="round" stroke-miterlimit="10" x1="30.5" y1="10.5" x2="39.7" y2="19.7"/><circle fill="none" stroke="#000000" stroke-width="2" stroke-miterlimit="10" cx="38" cy="32" r="2"/><circle fill="none" stroke="#000000" stroke-width="2" stroke-miterlimit="10" cx="38" cy="44" r="2"/><circle fill="none" stroke="#000000" stroke-width="2" stroke-miterlimit="10" cx="44" cy="38" r="2"/><circle fill="none" stroke="#000000" stroke-width="2" stroke-miterlimit="10" cx="38" cy="38" r="2"/><circle fill="none" stroke="#000000" stroke-width="2" stroke-miterlimit="10" cx="32" cy="38" r="2"/><circle fill="none" stroke="#000000" stroke-width="2" stroke-linejoin="round" stroke-miterlimit="10" cx="12" cy="12" r="8"/><circle fill="none" stroke="#000000" stroke-width="2" stroke-linejoin="round" stroke-miterlimit="10" cx="38" cy="12" r="8"/><circle fill="none" stroke="#000000" stroke-width="2" stroke-linejoin="round" stroke-miterlimit="10" cx="12" cy="38" r="8"/><circle fill="none" stroke="#000000" stroke-width="2" stroke-linejoin="round" stroke-miterlimit="10" cx="38" cy="38" r="8"/><g><circle cx="9" cy="38" r="1"/><circle cx="15" cy="38" r="1"/><circle cx="15" cy="32" r="1"/><circle cx="15" cy="44" r="1"/><circle cx="9" cy="32" r="1"/><circle cx="9" cy="44" r="1"/><circle cx="18" cy="35" r="1"/><circle cx="18" cy="41" r="1"/><circle cx="6" cy="35" r="1"/><circle cx="6" cy="41" r="1"/><circle cx="12" cy="35" r="1"/><circle cx="12" cy="41" r="1"/></g></svg>