<?xml version="1.0" encoding="iso-8859-1"?><!-- Generator: Adobe Illustrator 23.0.3, SVG Export Plug-In . SVG Version: 6.00 Build 0)  --><svg xmlns="http://www.w3.org/2000/svg" xmlns:xlink="http://www.w3.org/1999/xlink" viewBox="0 0 50 50" width="50px" height="50px"><path d="M43,7H7c-1.654,0-3,1.346-3,3v30c0,1.654,1.346,3,3,3h16.931c-0.403-0.644-0.74-1.313-1.018-2H7c-0.552,0-1-0.449-1-1V15h38v9.564c0.704,0.335,1.368,0.725,2,1.152V10C46,8.346,44.654,7,43,7z M8,12c-0.552,0-1-0.448-1-1c0-0.552,0.448-1,1-1s1,0.448,1,1C9,11.552,8.552,12,8,12z M11,12c-0.552,0-1-0.448-1-1c0-0.552,0.448-1,1-1s1,0.448,1,1C12,11.552,11.552,12,11,12z M14,12c-0.552,0-1-0.448-1-1c0-0.552,0.448-1,1-1s1,0.448,1,1C15,11.552,14.552,12,14,12z"/><g><path d="M37,25c-5.437,0-10.088,2.962-12.023,7.146l-0.002,0.001c-0.615,1.33-0.961,2.781-0.961,4.304c0,2.271,0.769,4.386,2.07,6.167c0.684,0.929,1.522,1.78,2.512,2.52c-0.01,0.039-0.021,0.081-0.033,0.126c-0.145,0.544-0.462,1.402-1.155,2.398l-0.534,0.766c-0.213,0.306-0.238,0.705-0.066,1.035C26.98,49.793,27.321,50,27.694,50h0.932c1.861,0,3.322-0.612,4.37-1.281l1.504-1.013c0.668,0.098,1.834,0.197,2.5,0.197c8.468,0,13-5.317,13-11.452C50,30.137,44.168,25,37,25z M38,40h-7c-0.553,0-1-0.448-1-1s0.447-1,1-1h7c0.553,0,1,0.448,1,1S38.553,40,38,40z M43,36H31c-0.553,0-1-0.448-1-1s0.447-1,1-1h12c0.553,0,1,0.448,1,1S43.553,36,43,36z"/></g></svg>