<?xml version="1.0" encoding="utf-8"?><!-- Generator: Adobe Illustrator 15.0.0, SVG Export Plug-In . SVG Version: 6.00 Build 0)  --><!DOCTYPE svg PUBLIC "-//W3C//DTD SVG 1.1//EN" "http://www.w3.org/Graphics/SVG/1.1/DTD/svg11.dtd"><svg xmlns="http://www.w3.org/2000/svg" xmlns:xlink="http://www.w3.org/1999/xlink" viewBox="0 0 50 50" width="50px" height="50px"><path d="M33,11c-0.256,0-0.512-0.098-0.707-0.293L25,3.414l-7.293,7.293c-0.391,0.391-1.023,0.391-1.414,0s-0.391-1.023,0-1.414L25,0.586l8.707,8.707c0.391,0.391,0.391,1.023,0,1.414C33.512,10.902,33.256,11,33,11z"/><path d="M26,16v16c0,0.553-0.448,1-1,1s-1-0.447-1-1V16H7v34h36V16H26z"/><path d="M26,2.333c0-0.552-0.448-1-1-1s-1,0.448-1,1V16h2V2.333z"/></svg>