<?xml version="1.0" encoding="iso-8859-1"?><!-- Generator: Adobe Illustrator 23.0.3, SVG Export Plug-In . SVG Version: 6.00 Build 0)  --><svg xmlns="http://www.w3.org/2000/svg" xmlns:xlink="http://www.w3.org/1999/xlink" viewBox="0 0 50 50" width="50px" height="50px"><path d="M43,7H7c-1.654,0-3,1.346-3,3v30c0,1.654,1.346,3,3,3h23.523c-0.319-0.626-0.613-1.297-0.887-2H7c-0.552,0-1-0.449-1-1V15h38v11.918c0.2,0.097,0.399,0.194,0.595,0.292c0.427,0.214,0.88,0.431,1.405,0.648V10C46,8.346,44.654,7,43,7z M8,12c-0.552,0-1-0.448-1-1c0-0.552,0.448-1,1-1s1,0.448,1,1C9,11.552,8.552,12,8,12z M11,12c-0.552,0-1-0.448-1-1c0-0.552,0.448-1,1-1s1,0.448,1,1C12,11.552,11.552,12,11,12z M14,12c-0.552,0-1-0.448-1-1c0-0.552,0.448-1,1-1s1,0.448,1,1C15,11.552,14.552,12,14,12z"/><g id="IOS_copy_10_"><path d="M40,50l-0.5-0.2c-0.3-0.2-9.5-4.9-9.5-17.9v-0.8l0.8-0.2c2.8-0.6,4.3-1.3,5.5-1.9s2.2-1.1,3.7-1.1s2.5,0.5,3.7,1.1s2.7,1.3,5.5,1.9l0.8,0.2v0.8c0,12.6-9.1,17.7-9.5,17.9L40,50z"/></g></svg>