<?xml version="1.0" encoding="iso-8859-1"?><!-- Generator: Adobe Illustrator 23.0.3, SVG Export Plug-In . SVG Version: 6.00 Build 0)  --><svg xmlns="http://www.w3.org/2000/svg" xmlns:xlink="http://www.w3.org/1999/xlink" viewBox="0 0 50 50" width="50px" height="50px"><line style="fill:none;stroke:#000000;stroke-width:2;stroke-linejoin:round;stroke-miterlimit:10;" x1="15" y1="21" x2="40" y2="21"/><line style="fill:none;stroke:#000000;stroke-width:2;stroke-linejoin:round;stroke-miterlimit:10;" x1="15" y1="28" x2="35" y2="28"/><line style="fill:none;stroke:#000000;stroke-width:2;stroke-linejoin:round;stroke-miterlimit:10;" x1="15" y1="35" x2="35" y2="35"/><g><circle cx="10" cy="21" r="1"/><circle cx="10" cy="28" r="1"/><circle cx="10" cy="35" r="1"/></g><path d="M41.5,50.005L32.807,40H38v-9h7v9h5.193L41.5,50.005z"/><path d="M32.764,43H5V13h40v16h2V7.8C47,6.256,45.744,5,44.2,5H5.8C4.256,5,3,6.256,3,7.8V44c0,0.553,0.448,1,1,1h30.502L32.764,43z"/></svg>