<?xml version="1.0" encoding="iso-8859-1"?><!-- Generator: Adobe Illustrator 23.0.3, SVG Export Plug-In . SVG Version: 6.00 Build 0)  --><svg xmlns="http://www.w3.org/2000/svg" xmlns:xlink="http://www.w3.org/1999/xlink" viewBox="0 0 50 50" width="50px" height="50px"><g><path d="M34,22h-3v-9h3V22z"/><path d="M46.707,17.293l-8-8C38.52,9.105,38.265,9,38,9H12c-1.654,0-3,1.346-3,3v32c0,1.654,1.346,3,3,3h32c1.654,0,3-1.346,3-3V18C47,17.735,46.895,17.48,46.707,17.293z M17,11h20v11c0,1.105-0.895,2-2,2H19c-1.105,0-2-0.895-2-2V11z M14,44h-2v-2h2V44z M39,45H17V32c0-1.1,0.9-2,2-2h18c1.1,0,2,0.9,2,2V45z M44,44h-2v-2h2V44z"/></g><path d="M12,7h24.414l-3.707-3.707C32.519,3.105,32.265,3,32,3H6C4.343,3,3,4.343,3,6v32c0,1.657,1.343,3,3,3h1V12C7,9.239,9.239,7,12,7z"/></svg>