<?xml version="1.0" encoding="iso-8859-1"?><!-- Generator: Adobe Illustrator 19.1.1, SVG Export Plug-In . SVG Version: 6.00 Build 0)  --><svg xmlns="http://www.w3.org/2000/svg" xmlns:xlink="http://www.w3.org/1999/xlink" viewBox="0 0 50 50" width="50px" height="50px"><path d="M47,19H31c-0.419,0-0.796-0.265-0.928-0.625l-3.054-9.4C26.588,7.794,25.455,7,24.198,7H9.802c-1.257,0-2.39,0.794-2.831,2.008l-3.032,9.334C3.796,18.735,3.419,19,3,19c-0.97,0-2,0.701-2,2v18c0,2.206,1.794,4,4,4h40c2.206,0,4-1.794,4-4V21C49,19.897,48.103,19,47,19z M20,18h-6c-0.552,0-1-0.447-1-1s0.448-1,1-1h6c0.552,0,1,0.447,1,1S20.552,18,20,18z M20,15h-6c-0.552,0-1-0.447-1-1s0.448-1,1-1h6c0.552,0,1,0.447,1,1S20.552,15,20,15z M20,12h-6c-0.552,0-1-0.447-1-1s0.448-1,1-1h6c0.552,0,1,0.447,1,1S20.552,12,20,12z"/><g><path d="M28.897,8.291l0.012,0.032l0.011,0.033L31.728,17h14.298l-2.607-8.025C42.989,7.794,41.856,7,40.599,7H28.191C28.484,7.388,28.726,7.82,28.897,8.291z"/></g></svg>