<?xml version="1.0" encoding="utf-8"?><!-- Generator: Adobe Illustrator 23.0.3, SVG Export Plug-In . SVG Version: 6.00 Build 0)  --><svg xmlns="http://www.w3.org/2000/svg" xmlns:xlink="http://www.w3.org/1999/xlink" viewBox="0 0 50 50" width="50px" height="50px"><path d="M33,17h-4V9h4V17z"/><path d="M46.7,12.5l-8.2-8.2C38.3,4.1,38.1,4,37.8,4H8C6.3,4,5,5.3,5,7v36c0,1.7,1.3,3,3,3h36c1.7,0,3-1.3,3-3V13.2C47,12.9,46.9,12.7,46.7,12.5z M13,6h24v12c0,1.1-0.9,2-2,2H15c-1.1,0-2-0.9-2-2V6z M10,43H8v-2h2V43z M39,44H13V29c0-1.1,0.9-2,2-2h22c1.1,0,2,0.9,2,2V44z M44,43h-2v-2h2V43z"/></svg>