<?xml version="1.0" encoding="utf-8"?><!-- Generator: Adobe Illustrator 18.1.1, SVG Export Plug-In . SVG Version: 6.00 Build 0)  --><svg xmlns="http://www.w3.org/2000/svg" xmlns:xlink="http://www.w3.org/1999/xlink" viewBox="0 0 50 50" width="500px" height="500px"><g><path fill="none" stroke="#000000" stroke-width="2" stroke-linejoin="round" stroke-miterlimit="10" d="M31.8,24.8l3.4-3.4c3.4,2.1,6.9,2.4,9.5-0.3c2.4-2.4,5.2-8.4,4-11.9l-5.3,5.3c-0.7,0.7-1.9,0.7-2.6,0l-5.3-5.3c-0.7-0.7-0.7-1.9,0-2.6l5.3-5.3c-3.5-1.2-9.4,1.5-11.9,4c-2.7,2.7-2.4,6.1-0.3,9.5l-3.4,3.4"/><path fill="none" stroke="#000000" stroke-width="2" stroke-miterlimit="10" d="M6.5,35.4L2.8,39c-1.4,1.4-3.2,5.1,0,8.2c3.2,3.2,6.9,1.4,8.2,0l3.6-3.7"/></g><path fill="none" stroke="#000000" stroke-width="2" stroke-linecap="round" stroke-miterlimit="10" d="M27,16.1l-2.8-3c-3.6-3.9-9.7-4.1-13.5-0.3l-7,7c-3.6,3.6-3.6,9.5,0,13.1l9.1,9.1c0.7,0.9,1.7,1.4,2.9,1.4c1.6,0,3-1,3.5-2.5c0.6,0.4,1.3,0.6,2.1,0.6c2,0,3.7-1.7,3.7-3.7c0-0.2,0-0.4-0.1-0.5c0.6,0.3,1.2,0.5,1.9,0.5c2,0,3.7-1.7,3.7-3.7c0-0.2,0-0.4-0.1-0.5c0.6,0.3,1.2,0.5,1.9,0.5c2,0,3.7-1.7,3.7-3.7c0-1.2-0.6-2.3-1.5-2.9L24.3,17.3"/></svg>