<?xml version="1.0" encoding="iso-8859-1"?><!-- Generator: Adobe Illustrator 21.1.0, SVG Export Plug-In . SVG Version: 6.00 Build 0)  --><svg xmlns="http://www.w3.org/2000/svg" xmlns:xlink="http://www.w3.org/1999/xlink" viewBox="0 0 50 50" width="500px" height="500px"><path style="fill:none;stroke:#000000;stroke-width:2;stroke-linecap:round;stroke-linejoin:round;stroke-miterlimit:10;" d="M33,14.5V27l2-2.695c0.812-1.253,2.428-1.673,3.591-0.955c1.159,0.734,1.462,2.334,0.658,3.585c0,0-3.605,5.438-5.642,8.197C31.54,37.933,29.406,40,23.207,40C13.751,40,13,31.775,13,29.596c0-2.178,0-12.06,0-12.06"/><path style="fill:none;stroke:#000000;stroke-width:2;stroke-linecap:round;stroke-linejoin:round;stroke-miterlimit:10;" d="M28,11.5V23c0,0.374,0-8,0-8"/><path style="fill:none;stroke:#000000;stroke-width:2;stroke-linecap:round;stroke-linejoin:round;stroke-miterlimit:10;" d="M23,14v9c0,0.374,0-11.5,0-11.5"/><path style="fill:none;stroke:#000000;stroke-width:2;stroke-linecap:round;stroke-linejoin:round;stroke-miterlimit:10;" d="M18,13.5V24c0,0.374,0-10.464,0-10.464"/><circle style="fill:none;stroke:#000000;stroke-width:2;stroke-linecap:round;stroke-linejoin:round;stroke-miterlimit:10;" cx="25" cy="25" r="22"/><path style="fill:none;stroke:#000000;stroke-width:1.9857;stroke-linecap:round;stroke-linejoin:round;stroke-miterlimit:10;" d="M13,17.5c0-1.381,1.119-2.5,2.5-2.5s2.5,1.119,2.5,2.5"/><path style="fill:none;stroke:#000000;stroke-width:1.9857;stroke-linecap:round;stroke-linejoin:round;stroke-miterlimit:10;" d="M18,13.5c0-1.381,1.119-2.5,2.5-2.5s2.5,1.119,2.5,2.5"/><path style="fill:none;stroke:#000000;stroke-width:1.9857;stroke-linecap:round;stroke-linejoin:round;stroke-miterlimit:10;" d="M28,14.5c0-1.381,1.119-2.5,2.5-2.5s2.5,1.119,2.5,2.5"/><path style="fill:none;stroke:#000000;stroke-width:1.9857;stroke-linecap:round;stroke-linejoin:round;stroke-miterlimit:10;" d="M23,11.5c0-1.381,1.119-2.5,2.5-2.5s2.5,1.119,2.5,2.5"/></svg>