<?xml version="1.0" encoding="iso-8859-1"?><!-- Generator: Adobe Illustrator 21.1.0, SVG Export Plug-In . SVG Version: 6.00 Build 0)  --><svg xmlns="http://www.w3.org/2000/svg" xmlns:xlink="http://www.w3.org/1999/xlink" viewBox="0 0 50 50" width="50px" height="50px"><path d="M48,25c0-3.345-1.901-6.265-4.676-7.74c0.758-2.888,0.019-6.098-2.234-8.351c-1.683-1.683-3.9-2.521-6.119-2.521c-0.751,0-1.502,0.096-2.232,0.288C31.265,3.901,28.345,2,25,2s-6.265,1.901-7.74,4.676c-0.731-0.192-1.481-0.288-2.232-0.288c-2.219,0-4.436,0.838-6.119,2.521c-2.253,2.253-2.992,5.462-2.234,8.351C3.901,18.735,2,21.655,2,25s1.901,6.265,4.676,7.74c-0.758,2.888-0.019,6.098,2.234,8.351c1.683,1.683,3.9,2.521,6.119,2.521c0.751,0,1.502-0.096,2.232-0.288C18.735,46.099,21.655,48,25,48s6.265-1.901,7.74-4.676c0.731,0.192,1.481,0.288,2.232,0.288c2.219,0,4.436-0.838,6.119-2.521c2.253-2.253,2.992-5.462,2.234-8.351C46.099,31.265,48,28.345,48,25z M21.714,32.985l-7.278-7.278l1.414-1.414l5.864,5.864L34.15,17.722l1.414,1.414L21.714,32.985z"/></svg>