<?xml version="1.0" encoding="iso-8859-1"?><!-- Generator: Adobe Illustrator 23.0.3, SVG Export Plug-In . SVG Version: 6.00 Build 0)  --><svg xmlns="http://www.w3.org/2000/svg" xmlns:xlink="http://www.w3.org/1999/xlink" viewBox="0 0 50 50" width="500px" height="500px"><line style="fill:none;stroke:#000000;stroke-width:2;stroke-miterlimit:10;" x1="5" y1="14" x2="45" y2="14"/><circle cx="8" cy="11" r="1"/><circle cx="11" cy="11" r="1"/><circle cx="14" cy="11" r="1"/><g id="IOS_copy_9_"><path d="M40,50l-0.5-0.2c-0.3-0.2-9.5-4.9-9.5-17.9v-0.8l0.8-0.2c2.8-0.6,4.3-1.3,5.5-1.9s2.2-1.1,3.7-1.1s2.5,0.5,3.7,1.1s2.7,1.3,5.5,1.9l0.8,0.2v0.8c0,12.6-9.1,17.7-9.5,17.9L40,50z M32,32.7c0.3,9.7,6.2,14,8,15c1.7-1.1,7.7-5.7,8-15c-2.5-0.6-4-1.4-5.2-1.9c-1.1-0.6-1.7-0.9-2.8-0.9s-1.7,0.3-2.8,0.9C36.1,31.3,34.6,32.1,32,32.7z"/></g><path d="M29.636,41H7c-0.552,0-1-0.449-1-1V10c0-0.551,0.448-1,1-1h36c0.552,0,1,0.449,1,1v16.918c0.2,0.097,0.399,0.194,0.595,0.292c0.427,0.214,0.88,0.431,1.405,0.648V10c0-1.654-1.346-3-3-3H7c-1.654,0-3,1.346-3,3v30c0,1.654,1.346,3,3,3h23.523C30.204,42.374,29.91,41.703,29.636,41z"/></svg>