<?xml version="1.0" encoding="iso-8859-1"?><!-- Generator: Adobe Illustrator 23.0.3, SVG Export Plug-In . SVG Version: 6.00 Build 0)  --><svg xmlns="http://www.w3.org/2000/svg" xmlns:xlink="http://www.w3.org/1999/xlink" viewBox="0 0 50 50" width="500px" height="500px"><line style="fill:none;stroke:#000000;stroke-width:2;stroke-miterlimit:10;" x1="45" y1="14" x2="5" y2="14"/><circle cx="42" cy="11" r="1"/><circle cx="39" cy="11" r="1"/><circle cx="36" cy="11" r="1"/><path d="M4,10v30c0,1.657,1.343,3,3,3h36c1.657,0,3-1.343,3-3V10c0-1.657-1.343-3-3-3H7C5.343,7,4,8.343,4,10z M7,41c-0.552,0-1-0.448-1-1V10c0-0.552,0.448-1,1-1h36c0.552,0,1,0.448,1,1v30c0,0.552-0.448,1-1,1H7z"/></svg>