<?xml version="1.0" encoding="iso-8859-1"?><!-- Generator: Adobe Illustrator 23.0.3, SVG Export Plug-In . SVG Version: 6.00 Build 0)  --><svg xmlns="http://www.w3.org/2000/svg" xmlns:xlink="http://www.w3.org/1999/xlink" viewBox="0 0 50 50" width="500px" height="500px"><path style="fill:none;stroke:#000000;stroke-width:2;stroke-linejoin:round;stroke-miterlimit:10;" d="M21,7c13,0,26,18,26,18S34,43,21,43c-9.942,0-18-8.058-18-18S11.058,7,21,7z"/><path style="fill:none;stroke:#000000;stroke-width:2;stroke-miterlimit:10;" d="M29,32.53c-0.386-3.501-5.128-3.216-5.814-5.058c-0.064-0.714-0.04-1.213-0.04-1.866c0.324-0.17,0.903-1.252,1.001-2.167c0.255-0.021,0.655-0.269,0.773-1.249c0.063-0.526-0.188-0.822-0.342-0.915c0.414-1.245,1.274-5.097-1.59-5.495c-0.295-0.518-1.05-0.78-2.031-0.78c-3.924,0.072-4.398,2.964-3.538,6.275c-0.153,0.093-0.405,0.389-0.342,0.915c0.118,0.98,0.519,1.228,0.773,1.249c0.097,0.914,0.7,1.997,1.025,2.167c0,0.653,0.024,1.151-0.04,1.866C18.06,29.56,13,29,13,33h16V32.53z"/></svg>