<?xml version="1.0" encoding="utf-8"?><!-- Generator: Adobe Illustrator 15.0.0, SVG Export Plug-In . SVG Version: 6.00 Build 0)  --><!DOCTYPE svg PUBLIC "-//W3C//DTD SVG 1.1//EN" "http://www.w3.org/Graphics/SVG/1.1/DTD/svg11.dtd"><svg xmlns="http://www.w3.org/2000/svg" xmlns:xlink="http://www.w3.org/1999/xlink" viewBox="0 0 50 50" width="50px" height="50px"><line fill="none" stroke="#000000" stroke-width="4" stroke-linejoin="round" stroke-miterlimit="10" x1="11" y1="8" x2="50" y2="8"/><line fill="none" stroke="#000000" stroke-width="4" stroke-linejoin="round" stroke-miterlimit="10" x1="11" y1="25" x2="50" y2="25"/><line fill="none" stroke="#000000" stroke-width="4" stroke-linejoin="round" stroke-miterlimit="10" x1="11" y1="42" x2="50" y2="42"/><g><path d="M3.5,4.3L3.5,4.3L1.9,5.1L1.7,3.9l2.1-1h1.3v8.5H3.5V4.3z"/><path d="M1,28.3v-1L2,26.4c2-1.8,2.9-2.9,2.9-4c0-0.8-0.4-1.4-1.5-1.4c-0.8,0-1.4,0.4-1.8,0.7l-0.5-1.1c0.6-0.5,1.5-0.9,2.6-0.9c1.9,0,2.8,1.2,2.8,2.6c0,1.5-1.1,2.7-2.5,4L3.3,27l0,0h3.5v1.3H1z"/><path d="M1.3,43.7c0.3,0.2,1.1,0.5,1.9,0.5c1.2,0,1.7-0.7,1.7-1.4C4.9,41.8,4,41.4,3,41.4H2.3v-1.2H3c0.7,0,1.7-0.3,1.7-1.2c0-0.6-0.4-1.1-1.4-1.1c-0.7,0-1.4,0.3-1.7,0.5l-0.4-1.2C1.7,36.9,2.6,36.6,3.6,36.6c1.8,0,2.6,1,2.6,2.101c0,0.899-0.5,1.6-1.6,2l0,0c1,0.2,1.8,1,1.9,2.1c0,1.4-1.2,2.601-3.3,2.601c-1,0-1.9-0.301-2.4-0.601L1.3,43.7z"/></g></svg>