<?xml version="1.0" encoding="iso-8859-1"?><!-- Generator: Adobe Illustrator 21.1.0, SVG Export Plug-In . SVG Version: 6.00 Build 0)  --><svg xmlns="http://www.w3.org/2000/svg" xmlns:xlink="http://www.w3.org/1999/xlink" viewBox="0 0 50 50" width="500px" height="500px"><path style="fill:none;stroke:#000000;stroke-width:2;stroke-miterlimit:10;" d="M22.534,3.147C23.344,3.056,24.163,3,24.997,3c12.15,0,22,9.85,22,22s-9.85,22-22,22c-0.829,0-1.643-0.054-2.447-0.144"/><path style="fill:none;stroke:#000000;stroke-width:2;stroke-miterlimit:10;" d="M17.749,45.753c-1.568-0.548-3.053-1.266-4.436-2.135"/><path style="fill:none;stroke:#000000;stroke-width:2;stroke-miterlimit:10;" d="M9.449,40.564c-1.163-1.162-2.177-2.464-3.058-3.862"/><path style="fill:none;stroke:#000000;stroke-width:2;stroke-miterlimit:10;" d="M4.252,32.268c-0.536-1.532-0.922-3.133-1.107-4.798"/><path style="fill:none;stroke:#000000;stroke-width:2;stroke-miterlimit:10;" d="M4.247,17.745c-0.535,1.532-0.92,3.133-1.105,4.799"/><path style="fill:none;stroke:#000000;stroke-width:2;stroke-miterlimit:10;" d="M9.437,9.446c-1.162,1.162-2.175,2.466-3.055,3.864"/><path style="fill:none;stroke:#000000;stroke-width:2;stroke-miterlimit:10;" d="M17.735,4.252C16.167,4.801,14.683,5.518,13.3,6.39"/><polyline style="fill:none;stroke:#000000;stroke-width:2;stroke-miterlimit:10;" points="32.33,27.292 24.997,34.625 17.663,27.292 "/><line style="fill:none;stroke:#000000;stroke-width:2;stroke-miterlimit:10;" x1="25" y1="13" x2="24.997" y2="34.125"/></svg>