<?xml version="1.0" encoding="iso-8859-1"?><!-- Generator: Adobe Illustrator 21.1.0, SVG Export Plug-In . SVG Version: 6.00 Build 0)  --><svg xmlns="http://www.w3.org/2000/svg" xmlns:xlink="http://www.w3.org/1999/xlink" viewBox="0 0 50 50" width="500px" height="500px"><path style="fill:none;stroke:#000000;stroke-width:2;stroke-linecap:round;stroke-miterlimit:10;" d="M46,22.5C46,11.73,37.27,3,26.5,3C14.157,3,4.141,12.939,4.006,25.25C4.141,37.285,13.934,47,26,47c7.723,0,14.516-3.979,18.442-10"/><path style="fill:none;stroke:#000000;stroke-width:2;stroke-linecap:round;stroke-miterlimit:10;" d="M35.595,19c-0.928-5.167-4.127-7-8.595-7c-4.694,0-14,6.417-14,17.5c0,4.694,3.806,8.5,8.5,8.5c5.563,0,7.719-4.491,9.221-6.893"/><path style="fill:none;stroke:#000000;stroke-width:2;stroke-linecap:round;stroke-miterlimit:10;" d="M46,21c0,10-8,17-13,17c-1.657,0-3-1.343-3-3c0,0,0.197-2.365,1.217-5.042"/><line style="fill:none;stroke:#000000;stroke-width:2;stroke-linecap:round;stroke-miterlimit:10;" x1="38" y1="13" x2="30" y2="33"/></svg>