<?xml version="1.0" encoding="iso-8859-1"?><!-- Generator: Adobe Illustrator 21.1.0, SVG Export Plug-In . SVG Version: 6.00 Build 0)  --><svg xmlns="http://www.w3.org/2000/svg" xmlns:xlink="http://www.w3.org/1999/xlink" viewBox="0 0 50 50" width="500px" height="500px"><path style="display:none;fill:none;stroke:#000000;stroke-width:2;stroke-linecap:round;stroke-miterlimit:10;" d="M28,45H7c-1.105,0-2-0.895-2-2V7c0-1.105,0.895-2,2-2h36c1.105,0,2,0.895,2,2v21"/><path d="M8.5,16C8.225,16,8,15.775,8,15.5S8.225,15,8.5,15h2.449c-0.232-1.14-1.242-2-2.449-2C7.121,13,6,14.121,6,15.5S7.121,18,8.5,18C8.775,18,9,18.225,9,18.5S8.775,19,8.5,19H6.051c0.232,1.14,1.242,2,2.449,2c1.379,0,2.5-1.121,2.5-2.5S9.879,16,8.5,16z"/><rect x="8" y="12" width="1" height="2"/><rect x="8" y="20" width="1" height="2"/><path d="M8.5,29C8.225,29,8,28.775,8,28.5S8.225,28,8.5,28h2.449c-0.232-1.14-1.242-2-2.449-2C7.121,26,6,27.121,6,28.5S7.121,31,8.5,31C8.775,31,9,31.225,9,31.5S8.775,32,8.5,32H6.051c0.232,1.14,1.242,2,2.449,2c1.379,0,2.5-1.121,2.5-2.5S9.879,29,8.5,29z"/><rect x="8" y="25" width="1" height="2"/><rect x="8" y="33" width="1" height="2"/><path style="fill:none;stroke:#000000;stroke-width:2;stroke-miterlimit:10;" d="M41.2,1H2.8C1.8,1,1,1.8,1,2.8V7h42V2.8C43,1.8,42.2,1,41.2,1z"/><polyline style="fill:none;stroke:#000000;stroke-width:2;stroke-linecap:round;stroke-linejoin:round;stroke-miterlimit:10;" points="24,40 1,40 1,7 "/><line style="fill:none;stroke:#000000;stroke-width:2;stroke-linecap:round;stroke-linejoin:round;stroke-miterlimit:10;" x1="43" y1="7" x2="43" y2="25"/><line style="fill:none;stroke:#000000;stroke-width:2;stroke-linejoin:round;stroke-miterlimit:10;" x1="14" y1="15" x2="37" y2="15"/><line style="fill:none;stroke:#000000;stroke-width:2;stroke-linejoin:round;stroke-miterlimit:10;" x1="14" y1="19" x2="37" y2="19"/><line style="fill:none;stroke:#000000;stroke-width:2;stroke-linejoin:round;stroke-miterlimit:10;" x1="14" y1="28" x2="27" y2="28"/><line style="fill:none;stroke:#000000;stroke-width:2;stroke-linejoin:round;stroke-miterlimit:10;" x1="14" y1="32" x2="24" y2="32"/><circle style="fill:none;stroke:#000000;stroke-width:2;stroke-linecap:round;stroke-miterlimit:10;" cx="36" cy="36" r="9"/><line style="fill:none;stroke:#000000;stroke-width:2;stroke-miterlimit:10;" x1="42" y1="42" x2="49" y2="49"/><circle cx="5" cy="4" r="1"/><circle cx="8" cy="4" r="1"/><circle cx="11" cy="4" r="1"/></svg>