<?xml version="1.0" encoding="iso-8859-1"?><!-- Generator: Adobe Illustrator 19.1.1, SVG Export Plug-In . SVG Version: 6.00 Build 0)  --><svg xmlns="http://www.w3.org/2000/svg" xmlns:xlink="http://www.w3.org/1999/xlink" viewBox="0 0 50 50" width="50px" height="50px"><path d="M29,11h-8c-1.103,0-2-0.897-2-2V5c0-1.103,0.897-2,2-2h8c1.103,0,2,0.897,2,2v4C31,10.103,30.103,11,29,11z"/><path d="M45,11h-8c-1.103,0-2-0.897-2-2V5c0-1.103,0.897-2,2-2h8c1.103,0,2,0.897,2,2v4C47,10.103,46.103,11,45,11z"/><path d="M13,11H5c-1.103,0-2-0.897-2-2V5c0-1.103,0.897-2,2-2h8c1.103,0,2,0.897,2,2v4C15,10.103,14.103,11,13,11z"/><path d="M29,23h-8c-1.103,0-2-0.897-2-2v-4c0-1.103,0.897-2,2-2h8c1.103,0,2,0.897,2,2v4C31,22.103,30.103,23,29,23z"/><path d="M45,23h-8c-1.103,0-2-0.897-2-2v-4c0-1.103,0.897-2,2-2h8c1.103,0,2,0.897,2,2v4C47,22.103,46.103,23,45,23z"/><path d="M13,23H5c-1.103,0-2-0.897-2-2v-4c0-1.103,0.897-2,2-2h8c1.103,0,2,0.897,2,2v4C15,22.103,14.103,23,13,23z"/><path d="M29,35h-8c-1.103,0-2-0.897-2-2v-4c0-1.103,0.897-2,2-2h8c1.103,0,2,0.897,2,2v4C31,34.103,30.103,35,29,35z"/><path d="M29,47h-8c-1.103,0-2-0.897-2-2v-4c0-1.103,0.897-2,2-2h8c1.103,0,2,0.897,2,2v4C31,46.103,30.103,47,29,47z"/><path d="M45,35h-8c-1.103,0-2-0.897-2-2v-4c0-1.103,0.897-2,2-2h8c1.103,0,2,0.897,2,2v4C47,34.103,46.103,35,45,35z"/><path d="M13,35H5c-1.103,0-2-0.897-2-2v-4c0-1.103,0.897-2,2-2h8c1.103,0,2,0.897,2,2v4C15,34.103,14.103,35,13,35z"/></svg>