<?xml version="1.0" encoding="iso-8859-1"?><!-- Generator: Adobe Illustrator 22.1.0, SVG Export Plug-In . SVG Version: 6.00 Build 0)  --><svg xmlns="http://www.w3.org/2000/svg" xmlns:xlink="http://www.w3.org/1999/xlink" viewBox="0 0 100 100" width="400px" height="400px"><g><path d="M41,22c-9.925,0-18,8.075-18,18s8.075,18,18,18s18-8.075,18-18S50.925,22,41,22z M41,57c-9.374,0-17-7.626-17-17s7.626-17,17-17s17,7.626,17,17S50.374,57,41,57z"/><path d="M50,37c-1.654,0-3,1.346-3,3s1.346,3,3,3s3-1.346,3-3S51.654,37,50,37z M50,42c-1.103,0-2-0.897-2-2s0.897-2,2-2s2,0.897,2,2S51.103,42,50,42z"/><path d="M32,37c-1.654,0-3,1.346-3,3s1.346,3,3,3s3-1.346,3-3S33.654,37,32,37z M32,42c-1.103,0-2-0.897-2-2s0.897-2,2-2s2,0.897,2,2S33.103,42,32,42z"/><path d="M41,36.948c-1.654,0-3,1.346-3,3s1.346,3,3,3s3-1.346,3-3S42.654,36.948,41,36.948z M41,41.948c-1.103,0-2-0.897-2-2s0.897-2,2-2s2,0.897,2,2S42.103,41.948,41,41.948z"/><path d="M66.854,67.146c-0.195-0.195-0.512-0.195-0.707,0s-0.195,0.512,0,0.707l1,1C67.244,68.951,67.372,69,67.5,69s0.256-0.049,0.354-0.146c0.195-0.195,0.195-0.512,0-0.707L66.854,67.146z"/><path d="M69.854,70.146c-0.195-0.195-0.512-0.195-0.707,0s-0.195,0.512,0,0.707l8,8C77.244,78.951,77.372,79,77.5,79s0.256-0.049,0.354-0.146c0.195-0.195,0.195-0.512,0-0.707L69.854,70.146z"/><path d="M83.256,73.809L69.19,59.744C68.066,58.619,66.566,58,64.968,58c-1.229,0-2.397,0.369-3.383,1.048l-3.579-3.578C61.728,51.381,64,45.951,64,40c0-12.682-10.317-23-23-23S18,27.318,18,40s10.317,23,23,23c6.013,0,11.492-2.322,15.595-6.114l3.557,3.557C59.408,61.459,59,62.678,59,63.967c0,1.599,0.619,3.099,1.744,4.224L74.81,82.256C75.934,83.381,77.434,84,79.032,84c1.6,0,3.099-0.619,4.224-1.744C85.585,79.927,85.585,76.138,83.256,73.809z M41,61c-11.579,0-21-9.42-21-21s9.421-21,21-21s21,9.42,21,21S52.579,61,41,61z M81.842,80.842C81.095,81.589,80.098,82,79.032,82c-1.064,0-2.062-0.411-2.809-1.158L62.158,66.776C61.411,66.029,61,65.032,61,63.967s0.411-2.062,1.158-2.809S63.902,60,64.968,60c1.064,0,2.062,0.411,2.809,1.158l14.065,14.065C83.391,76.772,83.391,79.293,81.842,80.842z"/></g></svg>