<?xml version="1.0" encoding="iso-8859-1"?>
<!-- Generator: Adobe Illustrator 23.0.3, SVG Export Plug-In . SVG Version: 6.00 Build 0)  -->
<svg version="1.1" xmlns="http://www.w3.org/2000/svg" xmlns:xlink="http://www.w3.org/1999/xlink" x="0px" y="0px"
	 viewBox="0 0 50 50" style="enable-background:new 0 0 50 50;" xml:space="preserve">
<g id="Layer_10" style="display:none;">
</g>
<g id="filled">
</g>
<g id="outlined">
</g>
<g id="rounded">
</g>
<g id="two_x5F_tone">
</g>
<g id="sharp">
</g>
<g id="win10">
</g>
<g id="ios_x5F_out">
</g>
<g id="ios_x5F_filled">
	<path d="M48,20c0,11.601-10.169,18.408-17.595,23.379c-1.904,1.274-3.548,2.375-4.765,3.389L25,47.302l-0.641-0.534
		c-1.217-1.014-2.86-2.115-4.765-3.389C12.169,38.408,2,31.601,2,20C2,12.832,7.832,7,15,7c3.896,0,7.541,1.734,10,4.699
		C27.459,8.734,31.104,7,35,7C42.168,7,48,12.832,48,20z M40,22h-6v-6h-2v6h-6v2h6v6h2v-6h6V22z"/>
</g>
<g id="color">
</g>
</svg>