<?xml version="1.0" encoding="iso-8859-1"?><!-- Generator: Adobe Illustrator 22.1.0, SVG Export Plug-In . SVG Version: 6.00 Build 0)  --><svg xmlns="http://www.w3.org/2000/svg" xmlns:xlink="http://www.w3.org/1999/xlink" viewBox="0 0 50 50" width="50px" height="50px"><path d="M25,3c-1.654,0-3,1.346-3,3v8c0,1.654,1.346,3,3,3s3-1.346,3-3V6C28,4.346,26.654,3,25,3z"/><path d="M25,33c-1.654,0-3,1.346-3,3v8c0,1.654,1.346,3,3,3s3-1.346,3-3v-8C28,34.346,26.654,33,25,33z"/><path d="M14,22H6c-1.654,0-3,1.346-3,3s1.346,3,3,3h8c1.654,0,3-1.346,3-3S15.654,22,14,22z"/><g><path d="M44,28h-8c-1.654,0-3-1.346-3-3s1.346-3,3-3h8c1.654,0,3,1.346,3,3S45.654,28,44,28z M36,24c-0.552,0-1,0.449-1,1s0.448,1,1,1h8c0.552,0,1-0.449,1-1s-0.448-1-1-1H36z"/></g><g><path d="M38.435,41.434c-0.768,0-1.536-0.292-2.121-0.876L30.658,34.9c-0.565-0.564-0.877-1.317-0.877-2.121c0-0.803,0.312-1.556,0.876-2.121l0,0c0.001,0,0.001,0,0.001,0s0,0,0-0.001c1.131-1.13,3.112-1.129,4.243,0.001l5.656,5.656c1.169,1.17,1.169,3.073,0.001,4.243C39.972,41.141,39.203,41.434,38.435,41.434z M32.778,31.78c-0.269,0-0.52,0.104-0.706,0.291l-0.001,0.001c-0.188,0.187-0.291,0.438-0.291,0.706s0.104,0.52,0.291,0.706l5.656,5.658c0.392,0.389,1.025,0.389,1.415-0.001c0.39-0.389,0.39-1.024-0.001-1.414l-5.656-5.656C33.298,31.884,33.047,31.78,32.778,31.78z"/></g><path d="M19.343,15.102l-5.656-5.657c-1.17-1.168-3.073-1.169-4.243,0c-1.169,1.169-1.169,3.073,0,4.242l5.657,5.657c0.564,0.564,1.318,0.876,2.121,0.876c0.802,0,1.556-0.312,2.121-0.874c0.565-0.566,0.877-1.319,0.877-2.122C20.22,16.42,19.908,15.667,19.343,15.102z"/><path d="M19.343,30.658c-0.001,0-0.001,0-0.001,0s0,0,0-0.001c-1.132-1.129-3.114-1.128-4.242,0.001l-5.658,5.656c-1.168,1.17-1.168,3.073,0.001,4.244c0.585,0.584,1.353,0.876,2.121,0.876c0.769,0,1.538-0.293,2.122-0.877l5.656-5.656c0.565-0.565,0.877-1.318,0.877-2.122C20.219,31.976,19.907,31.223,19.343,30.658z"/><g><path d="M32.778,20.22c-0.803,0-1.557-0.312-2.121-0.876c-0.565-0.565-0.877-1.318-0.877-2.121s0.312-1.557,0.877-2.122l5.656-5.656c1.169-1.168,3.072-1.17,4.243,0l0,0c1.169,1.169,1.169,3.073,0,4.242l-5.657,5.657C34.335,19.908,33.581,20.22,32.778,20.22z M38.436,10.566c-0.257,0-0.513,0.097-0.708,0.292l-5.656,5.656c-0.188,0.188-0.291,0.438-0.291,0.708c0,0.269,0.104,0.52,0.291,0.707c0.375,0.376,1.039,0.375,1.414,0l5.657-5.657c0.39-0.39,0.39-1.024,0-1.414C38.947,10.663,38.691,10.566,38.436,10.566z"/></g></svg>