<?xml version="1.0" encoding="iso-8859-1"?><!-- Generator: Adobe Illustrator 23.0.3, SVG Export Plug-In . SVG Version: 6.00 Build 0)  --><svg xmlns="http://www.w3.org/2000/svg" xmlns:xlink="http://www.w3.org/1999/xlink" viewBox="0 0 50 50" width="50px" height="50px"><g><path d="M43,4H30c-1.654,0-3,1.346-3,3v15c0,0.553,0.448,1,1,1h17c0.552,0,1-0.447,1-1V7C46,5.346,44.654,4,43,4z M29,21V10h15v11H29z"/><path d="M20,4H7C5.346,4,4,5.346,4,7v15c0,0.553,0.448,1,1,1h17c0.552,0,1-0.447,1-1V7C23,5.346,21.654,4,20,4z M6,21V10h15v11H6z"/><path d="M43,27H30c-1.654,0-3,1.346-3,3v15c0,0.553,0.448,1,1,1h17c0.552,0,1-0.447,1-1V30C46,28.346,44.654,27,43,27z M29,44V33h15v11H29z"/><path d="M20,27H7c-1.654,0-3,1.346-3,3v15c0,0.553,0.448,1,1,1h17c0.552,0,1-0.447,1-1V30C23,28.346,21.654,27,20,27z M6,44V33h15v11H6z"/></g></svg>