<?xml version="1.0" encoding="utf-8"?><!-- Generator: Adobe Illustrator 15.0.0, SVG Export Plug-In . SVG Version: 6.00 Build 0)  --><!DOCTYPE svg PUBLIC "-//W3C//DTD SVG 1.1//EN" "http://www.w3.org/Graphics/SVG/1.1/DTD/svg11.dtd"><svg xmlns="http://www.w3.org/2000/svg" xmlns:xlink="http://www.w3.org/1999/xlink" viewBox="0 0 50 50" width="50px" height="50px"><path d="M45,20H31c-0.553,0-1-0.448-1-1V5c0-0.552,0.447-1,1-1h14c0.553,0,1,0.448,1,1v14C46,19.552,45.553,20,45,20z"/><path d="M12,21c-4.962,0-9-4.038-9-9s4.038-9,9-9s9,4.038,9,9S16.962,21,12,21z"/><path d="M12,47c-4.962,0-9-4.037-9-9s4.038-9,9-9s9,4.037,9,9S16.962,47,12,47z"/><path d="M38,47c-4.963,0-9-4.037-9-9s4.037-9,9-9s9,4.037,9,9S42.963,47,38,47z"/></svg>