<?xml version="1.0" encoding="iso-8859-1"?><!-- Generator: Adobe Illustrator 20.1.0, SVG Export Plug-In . SVG Version: 6.00 Build 0)  --><svg xmlns="http://www.w3.org/2000/svg" xmlns:xlink="http://www.w3.org/1999/xlink" viewBox="0 0 50 50" width="50px" height="50px"><path d="M21,3C11.626,3,4,10.626,4,20s7.626,17,17,17s17-7.626,17-17S30.374,3,21,3z M29,18l-2.293-2.293L22.414,20l4.293,4.293L29,22v6h-6l2.293-2.293L21,21.414l-4.293,4.293L19,28h-6v-6l2.293,2.293L19.586,20l-4.293-4.293L13,18v-6h6l-2.293,2.293L21,18.586l4.293-4.293L23,12h6V18z"/><path d="M35.299,32.471c-0.88,1.008-1.865,1.917-2.936,2.72l11.723,11.723l2.828-2.828L35.299,32.471z"/></svg>