<?xml version="1.0" encoding="iso-8859-1"?><!-- Generator: Adobe Illustrator 20.1.0, SVG Export Plug-In . SVG Version: 6.00 Build 0)  --><svg xmlns="http://www.w3.org/2000/svg" xmlns:xlink="http://www.w3.org/1999/xlink" viewBox="0 0 50 50" width="50px" height="50px"><path d="M21,3C11.626,3,4,10.626,4,20s7.626,17,17,17s17-7.626,17-17S30.374,3,21,3z M16,25h-2.13v-6.81h-2.64v-1.605c0.369,0.01,0.728-0.017,1.072-0.083c0.345-0.065,0.654-0.18,0.93-0.345c0.275-0.165,0.508-0.383,0.697-0.653c0.19-0.27,0.315-0.605,0.375-1.005H16V25z M22.185,25H19.83v-2.31h2.354V25z M22.185,19.69H19.83v-2.31h2.354V19.69z M28.965,25h-2.13v-6.81h-2.64v-1.605c0.369,0.01,0.728-0.017,1.072-0.083c0.345-0.065,0.654-0.18,0.93-0.345c0.275-0.165,0.508-0.383,0.697-0.653c0.19-0.27,0.315-0.605,0.375-1.005h1.695V25z"/><path d="M35.299,32.471c-0.88,1.008-1.865,1.917-2.936,2.72l11.723,11.723l2.828-2.828L35.299,32.471z"/></svg>