<?xml version="1.0" encoding="iso-8859-1"?><!-- Generator: Adobe Illustrator 19.1.1, SVG Export Plug-In . SVG Version: 6.00 Build 0)  --><svg xmlns="http://www.w3.org/2000/svg" xmlns:xlink="http://www.w3.org/1999/xlink" viewBox="0 0 50 50" width="50px" height="50px"><path d="M25,2C12.318,2,2,12.318,2,25c0,12.683,10.318,23,23,23c12.683,0,23-10.317,23-23C48,12.318,37.683,2,25,2z M25,8c1.657,0,3,1.343,3,3c0,1.657-1.343,3-3,3s-3-1.343-3-3C22,9.343,23.343,8,25,8z M37.525,18.525L29,21.559V29l2.534,10.138C31.77,40.084,31.055,41,30.08,41c-0.645,0-1.218-0.413-1.421-1.025L24.997,29l-3.656,10.975C21.138,40.587,20.565,41,19.92,41c-0.975,0-1.69-0.916-1.454-1.862L21,29v-7.441l-8.525-3.034c-0.819-0.292-1.255-1.185-0.98-2.01c0.279-0.837,1.183-1.289,2.02-1.01L21,18h8l7.485-2.495c0.837-0.279,1.741,0.173,2.02,1.01C38.78,17.34,38.344,18.233,37.525,18.525z"/></svg>