<?xml version="1.0" encoding="iso-8859-1"?><!-- Generator: Adobe Illustrator 20.0.0, SVG Export Plug-In . SVG Version: 6.00 Build 0)  --><svg xmlns="http://www.w3.org/2000/svg" xmlns:xlink="http://www.w3.org/1999/xlink" viewBox="0 0 50 50" width="500px" height="500px"><line style="fill:none;stroke:#000000;stroke-width:2;stroke-miterlimit:10;" x1="16" y1="15" x2="23" y2="15"/><rect x="9" y="13" transform="matrix(-1 -2.274961e-13 2.274961e-13 -1 22 30)" style="fill:none;stroke:#000000;stroke-width:2;stroke-linecap:round;stroke-linejoin:round;stroke-miterlimit:10;" width="4" height="4"/><line style="fill:none;stroke:#000000;stroke-width:2;stroke-miterlimit:10;" x1="35" y1="15" x2="42" y2="15"/><rect x="28" y="13" transform="matrix(-1 -2.274961e-13 2.274961e-13 -1 60 30)" style="fill:none;stroke:#000000;stroke-width:2;stroke-linecap:round;stroke-linejoin:round;stroke-miterlimit:10;" width="4" height="4"/><line style="fill:none;stroke:#000000;stroke-width:2;stroke-miterlimit:10;" x1="16" y1="25" x2="23" y2="25"/><rect x="9" y="23" transform="matrix(-1 -2.274961e-13 2.274961e-13 -1 22 50)" style="fill:none;stroke:#000000;stroke-width:2;stroke-linecap:round;stroke-linejoin:round;stroke-miterlimit:10;" width="4" height="4"/><line style="fill:none;stroke:#000000;stroke-width:2;stroke-miterlimit:10;" x1="35" y1="25" x2="42" y2="25"/><rect x="28" y="23" transform="matrix(-1 -2.274961e-13 2.274961e-13 -1 60 50)" style="fill:none;stroke:#000000;stroke-width:2;stroke-linecap:round;stroke-linejoin:round;stroke-miterlimit:10;" width="4" height="4"/><line style="fill:none;stroke:#000000;stroke-width:2;stroke-miterlimit:10;" x1="16" y1="35" x2="23" y2="35"/><rect x="9" y="33" transform="matrix(-1 -4.548698e-13 4.548698e-13 -1 22 70)" style="fill:none;stroke:#000000;stroke-width:2;stroke-linecap:round;stroke-linejoin:round;stroke-miterlimit:10;" width="4" height="4"/><line style="fill:none;stroke:#000000;stroke-width:2;stroke-miterlimit:10;" x1="35" y1="35" x2="42" y2="35"/><rect x="28" y="33" transform="matrix(-1 -4.548698e-13 4.548698e-13 -1 60 70)" style="fill:none;stroke:#000000;stroke-width:2;stroke-linecap:round;stroke-linejoin:round;stroke-miterlimit:10;" width="4" height="4"/><path style="fill:none;stroke:#000000;stroke-width:2;stroke-linecap:round;stroke-linejoin:round;stroke-miterlimit:10;" d="M45,44H5c-1.104,0-2-0.896-2-2V8c0-1.104,0.896-2,2-2h40c1.104,0,2,0.896,2,2v34C47,43.104,46.104,44,45,44z"/></svg>