<?xml version="1.0" encoding="iso-8859-1"?><!-- Generator: Adobe Illustrator 21.1.0, SVG Export Plug-In . SVG Version: 6.00 Build 0)  --><svg xmlns="http://www.w3.org/2000/svg" xmlns:xlink="http://www.w3.org/1999/xlink" viewBox="0 0 50 50" width="50px" height="50px"><path style="fill:none;stroke:#000000;stroke-width:4;stroke-miterlimit:10;" d="M22.649,4.14C23.422,4.053,24.204,4,25,4c11.598,0,21,9.402,21,21s-9.402,21-21,21c-0.791,0-1.568-0.052-2.336-0.137"/><path style="fill:none;stroke:#000000;stroke-width:4;stroke-miterlimit:10;" d="M18.082,44.81c-1.497-0.523-2.914-1.208-4.234-2.038"/><path style="fill:none;stroke:#000000;stroke-width:4;stroke-miterlimit:10;" d="M10.159,39.857c-1.11-1.109-2.078-2.352-2.919-3.686"/><path style="fill:none;stroke:#000000;stroke-width:4;stroke-miterlimit:10;" d="M4.141,27.358c0.178,1.59,0.545,3.118,1.057,4.58"/><path style="fill:none;stroke:#000000;stroke-width:4;stroke-miterlimit:10;" d="M4.138,22.656c0.177-1.59,0.543-3.119,1.055-4.581"/><path style="fill:none;stroke:#000000;stroke-width:4;stroke-miterlimit:10;" d="M7.232,13.841c0.84-1.334,1.807-2.579,2.916-3.688"/><path style="fill:none;stroke:#000000;stroke-width:4;stroke-miterlimit:10;" d="M13.835,7.236c1.32-0.831,2.737-1.517,4.233-2.041"/><polyline style="fill:none;stroke:#000000;stroke-width:4;stroke-miterlimit:10;" points="14,25 23,33 35,15 "/></svg>