<?xml version="1.0" encoding="utf-8"?><!-- Generator: Adobe Illustrator 15.0.0, SVG Export Plug-In . SVG Version: 6.00 Build 0)  --><!DOCTYPE svg PUBLIC "-//W3C//DTD SVG 1.1//EN" "http://www.w3.org/Graphics/SVG/1.1/DTD/svg11.dtd"><svg xmlns="http://www.w3.org/2000/svg" xmlns:xlink="http://www.w3.org/1999/xlink" viewBox="0 0 50 50" width="50px" height="50px"><path d="M40.057,46H-0.057l0.058-1.055c0.333-6.069,5.19-7.994,9.092-9.54c2.346-0.93,4.379-1.736,4.928-3.14c0.125-1.063,0.11-1.895,0.092-2.852c-0.004-0.212-0.008-0.428-0.01-0.651c-0.884-0.901-1.867-2.808-2.205-4.611c-0.67-0.363-1.494-1.253-1.789-3.417c-0.098-1.159,0.274-2.008,0.687-2.539c-1.21-5.131-0.849-9.014,1.078-11.547C13.5,4.51,16.193,3.383,19.877,3.3c0,0,0.001,0,0.001,0c2.422,0,4.239,0.665,5.205,1.885C26.8,5.528,28.1,6.414,28.952,7.823c1.797,2.971,1.052,7.645,0.203,10.373c0.426,0.534,0.735,1.362,0.641,2.488c-0.208,2.286-1.108,3.169-1.825,3.508c-0.384,1.736-1.303,3.649-2.171,4.562c0.001,1.217,0.009,2.197,0.088,3.518c0.634,1.394,2.66,2.193,4.995,3.115c3.912,1.545,8.781,3.468,9.115,9.559L40.057,46z"/><line fill="none" stroke="#000000" stroke-width="2" stroke-miterlimit="10" x1="31" y1="25" x2="50" y2="25"/><line fill="none" stroke="#000000" stroke-width="2" stroke-miterlimit="10" x1="33" y1="17" x2="50" y2="17"/><line fill="none" stroke="#000000" stroke-width="2" stroke-miterlimit="10" x1="33" y1="33" x2="50" y2="33"/></svg>