<?xml version="1.0" encoding="iso-8859-1"?>
<!-- Generator: Adobe Illustrator 24.0.0, SVG Export Plug-In . SVG Version: 6.00 Build 0)  -->
<svg version="1.1" id="Layer_1" xmlns="http://www.w3.org/2000/svg" xmlns:xlink="http://www.w3.org/1999/xlink" x="0px" y="0px"
	 viewBox="0 0 50 50" style="enable-background:new 0 0 50 50;" xml:space="preserve">
<circle style="fill:none;stroke:#000000;stroke-width:2;stroke-miterlimit:10;" cx="25" cy="25" r="22"/>
<circle style="fill:none;stroke:#000000;stroke-width:2;stroke-miterlimit:10;" cx="25" cy="23" r="3"/>
<path d="M22.815,25.057L13,19l11.921,0.839c0,0-2.09-0.006-2.732,2.096S22.815,25.057,22.815,25.057z"/>
<path d="M46.91,24H39c-0.552,0-1-0.448-1-1l0,0c0-0.552,0.448-1,1-1h7.91V24z"/>
<path d="M11,24H3.09v-2H11c0.552,0,1,0.448,1,1l0,0C12,23.552,11.552,24,11,24z"/>
<path d="M35.51,15.36L35.51,15.36c-0.325-0.447-0.226-1.072,0.221-1.397l5.481-3.982l1.176,1.618l-5.481,3.982
	C36.46,15.906,35.835,15.807,35.51,15.36z"/>
<path d="M29.02,10.64L29.02,10.64c-0.525-0.17-0.813-0.734-0.643-1.26l1.881-5.799l1.902,0.617l-1.88,5.8
	C30.109,10.523,29.545,10.811,29.02,10.64z"/>
<path d="M19.72,9.998l-1.881-5.799l1.902-0.617l1.881,5.799c0.17,0.525-0.117,1.089-0.643,1.26l0,0
	C20.455,10.811,19.891,10.523,19.72,9.998z"/>
<path d="M13.093,15.581l-5.481-3.982l1.176-1.618l5.481,3.982c0.447,0.325,0.546,0.95,0.221,1.397l0,0
	C14.165,15.807,13.54,15.906,13.093,15.581z"/>
<path style="fill:none;stroke:#000000;stroke-width:2.022;stroke-linecap:round;stroke-linejoin:round;stroke-miterlimit:10;" d="
	M32,36.5c0,0.83-0.67,1.5-1.5,1.5h-13c-0.83,0-1.5-0.67-1.5-1.5c0-1,1.08-1.5,1.08-1.5c0.48-3.4,3.92-5,6.92-5s6.52,1.6,7,5
	C31,35,32,35.5,32,36.5z"/>
<path style="fill:none;stroke:#000000;stroke-width:2.022;stroke-linecap:round;stroke-linejoin:round;stroke-miterlimit:10;" d="
	M16.665,38l-0.608,1.684C15.823,40.331,16.345,41,17.085,41h2.832L21,38"/>
<path style="fill:none;stroke:#000000;stroke-width:2.022;stroke-linecap:round;stroke-linejoin:round;stroke-miterlimit:10;" d="
	M31.335,38l0.608,1.684C32.177,40.331,31.655,41,30.915,41h-2.832L27,38"/>
<path style="fill:none;stroke:#000000;stroke-width:2.022;stroke-linecap:round;stroke-linejoin:round;stroke-miterlimit:10;" d="
	M30.98,33.874c1.33-0.35,2.402-1.399,2.747-2.782v-0.001C33.888,30.45,34.464,30,35.124,30h1.436c0.795,0,1.44,0.645,1.44,1.44V34
	h-2l-0.939,1.877C34.411,37.178,33.081,38,31.627,38"/>
</svg>