<?xml version="1.0" encoding="iso-8859-1"?>
<!-- Generator: Adobe Illustrator 23.0.6, SVG Export Plug-In . SVG Version: 6.00 Build 0)  -->
<svg version="1.1" baseProfile="basic" id="&#x421;&#x43B;&#x43E;&#x439;_1"
	 xmlns="http://www.w3.org/2000/svg" xmlns:xlink="http://www.w3.org/1999/xlink" x="0px" y="0px" viewBox="0 0 50 50"
	 xml:space="preserve">
<path d="M31,8H5C4.447,8,4,8.447,4,9v8c0,0.553,0.447,1,1,1h26c0.553,0,1-0.447,1-1V9C32,8.447,31.553,8,31,8z M12,15H8v-4h4V15z
	 M28,14H15v-2h13V14z"/>
<path d="M35,21H9c-0.553,0-1,0.447-1,1v8c0,0.553,0.447,1,1,1h26c0.553,0,1-0.447,1-1v-8C36,21.447,35.553,21,35,21z M16,28h-4v-4h4
	V28z M32,27H19v-2h13V27z"/>
<path d="M31,34H5c-0.553,0-1,0.447-1,1v8c0,0.553,0.447,1,1,1h26c0.553,0,1-0.447,1-1v-8C32,34.447,31.553,34,31,34z M12,41H8v-4h4
	V41z M28,40H15v-2h13V40z"/>
<path d="M45,27h-5c-0.553,0-1-0.447-1-1s0.447-1,1-1h4V14h-6c-0.553,0-1-0.447-1-1s0.447-1,1-1h7c0.553,0,1,0.447,1,1v13
	C46,26.553,45.553,27,45,27z"/>
<path d="M39.583,8.121c-0.113,0.051-0.215,0.123-0.301,0.212l-3.985,3.989c-0.391,0.39-0.392,1.023-0.003,1.414c0,0,0,0,0,0
	l3.997,3.925c0.39,0.391,1.023,0.392,1.415,0.003c0.391-0.39,0.392-1.023,0.003-1.414l-2.309-2.232l5.976,0.016
	c0.552,0.001,1.001-0.446,1.002-0.998c0.001-0.552-0.446-1.001-0.998-1.002l0,0l-5.94-0.016l2.255-2.268
	c0.398-0.383,0.409-1.016,0.026-1.414C40.425,8.03,39.969,7.944,39.583,8.121z"/>
</svg>