<?xml version="1.0" encoding="iso-8859-1"?><!-- Generator: Adobe Illustrator 23.0.3, SVG Export Plug-In . SVG Version: 6.00 Build 0)  --><svg xmlns="http://www.w3.org/2000/svg" xmlns:xlink="http://www.w3.org/1999/xlink" viewBox="0 0 50 50" width="500px" height="500px"><circle style="fill:none;stroke:#000000;stroke-width:2;stroke-linecap:round;stroke-miterlimit:10;" cx="36" cy="36" r="9"/><line style="fill:none;stroke:#000000;stroke-width:2;stroke-miterlimit:10;" x1="42" y1="42" x2="49" y2="49"/><g><path d="M27.199,44.138L26.868,46h-3.814l-0.942-5.662c-0.065-0.395-0.359-0.711-0.747-0.807c-1.441-0.355-2.822-0.926-4.104-1.694c-0.34-0.204-0.766-0.188-1.088,0.038l-4.703,3.294l-2.695-2.697l3.323-4.647c0.232-0.325,0.249-0.758,0.042-1.1c-0.775-1.281-1.352-2.666-1.711-4.115c-0.096-0.383-0.407-0.675-0.796-0.743l-5.632-0.998v-3.814l5.628-0.938c0.393-0.065,0.709-0.357,0.806-0.743c0.365-1.457,0.94-2.842,1.712-4.117c0.205-0.339,0.19-0.767-0.036-1.091l-3.284-4.697l2.696-2.695l4.663,3.332c0.323,0.232,0.754,0.251,1.096,0.044c1.271-0.763,2.651-1.329,4.104-1.685c0.39-0.096,0.684-0.415,0.749-0.811L23.056,4h3.811l0.994,5.686c0.068,0.39,0.359,0.703,0.743,0.799c1.441,0.359,2.818,0.933,4.091,1.702c0.343,0.208,0.776,0.19,1.102-0.044l4.678-3.363l2.695,2.693l-3.332,4.749c-0.228,0.323-0.242,0.75-0.039,1.089c0.759,1.263,1.325,2.633,1.686,4.069c0.097,0.388,0.414,0.681,0.809,0.745l5.707,0.933v3.811l-1.865,0.327c0.577,0.533,1.1,1.12,1.563,1.757l1.474-0.259c0.479-0.084,0.827-0.5,0.827-0.985v-5.5c0-0.49-0.355-0.908-0.839-0.987l-5.91-0.966c-0.347-1.186-0.818-2.326-1.411-3.405l3.449-4.916c0.279-0.397,0.232-0.938-0.111-1.281l-3.89-3.888c-0.346-0.346-0.893-0.391-1.291-0.104l-4.843,3.481c-1.089-0.602-2.239-1.079-3.433-1.427l-1.029-5.887C28.607,2.35,28.191,2,27.706,2h-5.5c-0.49,0-0.908,0.355-0.987,0.839l-0.955,5.854c-1.198,0.344-2.351,0.817-3.438,1.412l-4.83-3.451c-0.397-0.284-0.943-0.239-1.288,0.106l-3.889,3.887c-0.343,0.343-0.391,0.883-0.112,1.28l3.399,4.862c-0.604,1.095-1.087,2.254-1.438,3.46L2.837,21.22c-0.482,0.08-0.836,0.497-0.836,0.986v5.5c0,0.485,0.348,0.9,0.825,0.984l5.832,1.034c0.349,1.202,0.83,2.362,1.438,3.46l-3.441,4.813c-0.284,0.398-0.239,0.943,0.106,1.289l3.888,3.891c0.344,0.344,0.886,0.39,1.28,0.112l4.871-3.411c1.095,0.602,2.249,1.078,3.444,1.424l0.976,5.862C21.3,47.646,21.717,48,22.206,48h5.5c0.484,0,0.899-0.348,0.984-0.825l0.262-1.477C28.318,45.235,27.731,44.713,27.199,44.138z"/><path d="M32.97,24.401C32.661,20.27,29.209,17,25,17c-4.411,0-8,3.589-8,8c0,4.209,3.27,7.661,7.401,7.97c0.178-0.684,0.413-1.344,0.703-1.975C25.069,30.995,25.035,31,25,31c-3.309,0-6-2.691-6-6s2.691-6,6-6s6,2.691,6,6c0,0.035-0.005,0.069-0.005,0.104C31.626,24.814,32.286,24.579,32.97,24.401z"/></g></svg>