<?xml version="1.0" encoding="iso-8859-1"?>
<!-- Generator: Adobe Illustrator 24.0.2, SVG Export Plug-In . SVG Version: 6.00 Build 0)  -->
<svg version="1.1" id="Layer_1" xmlns="http://www.w3.org/2000/svg" xmlns:xlink="http://www.w3.org/1999/xlink" x="0px" y="0px"
	 viewBox="0 0 50 50" style="enable-background:new 0 0 50 50;" xml:space="preserve">
<g>
	<path d="M25,26c-0.8,0-1.4,0.6-1.4,1.4c0,0.4,0.2,0.7,0.5,1v1.3c0,0.5,0.4,0.9,0.9,0.9s0.9-0.4,0.9-0.9v-1.3c0.3-0.3,0.5-0.6,0.5-1
		C26.4,26.6,25.8,26,25,26z"/>
	<path d="M25,15c-2.2,0-4,1.9-4,4.2V21h8v-1.8C29,16.9,27.2,15,25,15z"/>
	<path d="M48,6H2C0.897,6,0,6.898,0,8v33c0,1.103,0.897,2,2,2h46c1.103,0,2-0.897,2-2V8C50,6.898,49.103,6,48,6z M34,33.1
		c0,1-0.9,1.9-1.9,1.9H17.9c-1.1,0-1.9-0.9-1.9-2V22.9c0-1,0.8-1.9,1.9-1.9H19v-1.8c0-3.4,2.7-6.2,6-6.2s6,2.8,6,6.2V21h1.1
		c1.1,0,1.9,0.9,1.9,1.9V33.1z"/>
</g>
</svg>