<?xml version="1.0" encoding="iso-8859-1"?><!-- Generator: Adobe Illustrator 19.2.1, SVG Export Plug-In . SVG Version: 6.00 Build 0)  --><svg xmlns="http://www.w3.org/2000/svg" xmlns:xlink="http://www.w3.org/1999/xlink" viewBox="0 0 50 50" width="500px" height="500px"><g><g><path style="fill:none;stroke:#000000;stroke-width:2;stroke-linecap:round;stroke-miterlimit:10;" d="M25,3C12.85,3,3,11.954,3,23c0,4.747,1.823,9.104,4.861,12.534C10.096,39.273,4,45.6,4,46.097C4,46.481,4.258,47,5.197,47c4.196,0,8.46-3.444,11.817-5.365C19.49,42.513,22.182,43,25,43c12.15,0,22-8.954,22-20C47,11.954,37.15,3,25,3z"/></g></g><line style="fill:none;stroke:#000000;stroke-width:2;stroke-linecap:round;stroke-miterlimit:10;" x1="27" y1="23" x2="39" y2="23"/><path style="fill:none;stroke:#000000;stroke-width:2;stroke-linecap:round;stroke-miterlimit:10;" d="M29.062,26.955c0,0,2.345,4.367,7.938,7.045"/><path style="fill:none;stroke:#000000;stroke-width:2;stroke-linecap:round;stroke-miterlimit:10;" d="M37,23c0,0-1.208,7.986-10,11"/><line style="fill:none;stroke:#000000;stroke-width:2;stroke-linecap:round;stroke-miterlimit:10;" x1="33" y1="23" x2="33" y2="20"/><line style="fill:none;stroke:#000000;stroke-width:2;stroke-linecap:round;stroke-miterlimit:10;" x1="13.391" y1="22" x2="19.52" y2="22"/><polyline style="fill:none;stroke:#000000;stroke-width:2;stroke-linecap:round;stroke-linejoin:round;stroke-miterlimit:10;" points="12,26 16.5,13 21,26 "/></svg>