<?xml version="1.0" encoding="iso-8859-1"?><!-- Generator: Adobe Illustrator 19.1.1, SVG Export Plug-In . SVG Version: 6.00 Build 0)  --><svg xmlns="http://www.w3.org/2000/svg" xmlns:xlink="http://www.w3.org/1999/xlink" viewBox="0 0 50 50" width="500px" height="500px"><line style="fill:none;stroke:#000000;stroke-width:2;stroke-linecap:round;stroke-linejoin:round;stroke-miterlimit:10;" x1="14" y1="12" x2="20" y2="12"/><line style="fill:none;stroke:#000000;stroke-width:2;stroke-linecap:round;stroke-linejoin:round;stroke-miterlimit:10;" x1="14" y1="15" x2="20" y2="15"/><line style="fill:none;stroke:#000000;stroke-width:2;stroke-linecap:round;stroke-linejoin:round;stroke-miterlimit:10;" x1="14" y1="18" x2="20" y2="18"/><path style="fill:none;stroke:#000000;stroke-width:2;stroke-linecap:round;stroke-linejoin:round;stroke-miterlimit:10;" d="M2,21c0-1,1-1,1-1c0.841,0,1.592-0.526,1.88-1.317l3.043-9.367C8.21,8.526,8.961,8,9.802,8h14.397c0.841,0,1.592,0.526,1.88,1.317l3.043,9.367C29.408,19.474,30.159,20,31,20h16c0.552,0,1,0.448,1,1v18c0,1.657-1.343,3-3,3H5c-1.657,0-3-1.343-3-3V21z"/><path style="fill:none;stroke:#000000;stroke-width:2;stroke-linecap:round;stroke-linejoin:round;stroke-miterlimit:10;" d="M24,8h16.599c0.841,0,1.592,0.526,1.88,1.317l3.043,9.367C45.809,19.474,46.159,20,47,20"/></svg>