<?xml version="1.0" encoding="iso-8859-1"?><!-- Generator: Adobe Illustrator 21.1.0, SVG Export Plug-In . SVG Version: 6.00 Build 0)  --><svg xmlns="http://www.w3.org/2000/svg" xmlns:xlink="http://www.w3.org/1999/xlink" viewBox="0 0 50 50" width="50px" height="50px"><path d="M45,4H5C4.45,4,4,4.45,4,5v40c0,0.55,0.45,1,1,1h40c0.55,0,1-0.45,1-1V5C46,4.45,45.55,4,45,4z M26,9c1.66,0,3,1.34,3,3c0,1.66-1.34,3-3,3s-3-1.34-3-3C23,10.34,24.34,9,26,9z M31.29,34.56C29.71,37.87,26.3,40,22.61,40c-5.3,0-9.61-4.26-9.61-9.5c0-4.96,3.92-9.12,8.92-9.48c0.57-0.03,1.03,0.38,1.07,0.93c0.03,0.55-0.38,1.03-0.93,1.07C18.1,23.3,15,26.58,15,30.5c0,4.14,3.41,7.5,7.61,7.5c2.93,0,5.63-1.69,6.88-4.3c0.24-0.5,0.84-0.71,1.33-0.47C31.32,33.47,31.53,34.07,31.29,34.56z M37.02,38.07c-0.76,0.34-1.64,0-1.98-0.76L32.25,31H26c-1.1,0-2-0.9-2-2v-9c0-1.1,0.9-2,2-2s2,0.9,2,2v2h5.5c0.83,0,1.5,0.67,1.5,1.5c0,0.83-0.67,1.5-1.5,1.5H28v3h4.9c0.8,0,1.51,0.47,1.83,1.19l3.06,6.9C38.12,36.85,37.78,37.74,37.02,38.07z"/></svg>