<?xml version="1.0" encoding="utf-8"?><!-- Generator: Adobe Illustrator 19.2.0, SVG Export Plug-In . SVG Version: 6.00 Build 0)  --><svg xmlns="http://www.w3.org/2000/svg" xmlns:xlink="http://www.w3.org/1999/xlink" viewBox="0 0 50 50" width="50px" height="50px"><rect x="33" y="24" width="17" height="2"/><rect x="33" y="16" width="17" height="2"/><path d="M29.4,35.6c-0.9-0.4-2.6-1.2-2.6-1.2c-1.1-0.6-1.7-1.2-2-1.8c0,0,0-0.1,0-0.1c2.7-0.4,7.2-1.3,7.2-3.6c0-0.3-0.1-0.6-0.3-0.7c-0.8-0.7-0.7-4-0.7-6.9C31,16.2,31,10.5,28.1,7.4c-1.2-1.2-2.8-1.8-4.7-1.9C22.8,5,21.3,4,19.1,4C8.1,4,7.8,14.7,7.6,21.7c-0.1,2.7-0.2,5.8-1,6.5c-0.2,0.2-0.3,0.5-0.3,0.7c0,2.3,3.3,3.1,7,3.5c0,0,0,0.1,0,0.1c-0.6,1.4-2.5,2.2-4.7,3C4.9,37.1,0.4,39,0,44.9c0,0.3,0.1,0.5,0.3,0.7C0.5,45.9,0.7,46,1,46h17h6.8H37c0.3,0,0.5-0.1,0.7-0.3c0.2-0.2,0.3-0.5,0.3-0.7C37.6,39,33.1,37.1,29.4,35.6z"/><rect x="31" y="32" width="19" height="2"/></svg>