<?xml version="1.0" encoding="utf-8"?><!-- Generator: Adobe Illustrator 15.0.0, SVG Export Plug-In . SVG Version: 6.00 Build 0)  --><!DOCTYPE svg PUBLIC "-//W3C//DTD SVG 1.1//EN" "http://www.w3.org/Graphics/SVG/1.1/DTD/svg11.dtd"><svg xmlns="http://www.w3.org/2000/svg" xmlns:xlink="http://www.w3.org/1999/xlink" viewBox="0 0 50 50" width="50px" height="50px"><path d="M48.416,26H17c-0.552,0-1-0.448-1-1s0.448-1,1-1h31.416c0.553,0,1,0.448,1,1S48.969,26,48.416,26z"/><path d="M38.053,36.891c-0.256,0-0.512-0.098-0.707-0.293c-0.391-0.391-0.391-1.023,0-1.414L47.529,25L37.348,14.817c-0.391-0.391-0.391-1.024,0-1.414c0.391-0.391,1.023-0.391,1.414,0L50.357,25L38.76,36.598C38.564,36.793,38.309,36.891,38.053,36.891z"/><path d="M38.053,38.891c-0.801,0-1.555-0.313-2.121-0.879c-1.17-1.17-1.17-3.072,0-4.242L40,29.701V28H17c-1.654,0-3-1.346-3-3s1.346-3,3-3h23v-1.702l-4.066-4.067c-0.566-0.566-0.879-1.32-0.879-2.121c0-0.802,0.313-1.556,0.879-2.121c0.566-0.567,1.32-0.879,2.121-0.879c0.724,0,1.402,0.267,1.945,0.734V3c0-1.654-1.346-3-3-3H3C1.346,0,0,1.346,0,3v44c0,1.654,1.346,3,3,3h34c1.654,0,3-1.346,3-3v-2.362V39v-0.846C39.456,38.623,38.777,38.891,38.053,38.891z"/></svg>