<?xml version="1.0" encoding="iso-8859-1"?><!-- Generator: Adobe Illustrator 19.1.1, SVG Export Plug-In . SVG Version: 6.00 Build 0)  --><svg xmlns="http://www.w3.org/2000/svg" xmlns:xlink="http://www.w3.org/1999/xlink" viewBox="0 0 50 50" width="50px" height="50px"><path fill="#010101" d="M15,19H3c-0.287,0-0.56,0.123-0.75,0.338c-0.19,0.215-0.278,0.501-0.243,0.786l3,24C5.07,44.624,5.496,45,6,45h9c0.552,0,1-0.447,1-1V20C16,19.448,15.552,19,15,19z M11.5,41c-0.828,0-1.5-0.672-1.5-1.5s0.672-1.5,1.5-1.5s1.5,0.672,1.5,1.5S12.328,41,11.5,41z"/><path fill="#010101" d="M47,29c0-0.979-0.354-1.877-0.939-2.572C47.222,25.727,48,24.453,48,23c0-2.206-1.794-4-4-4H29.377C29.986,17.07,31,13.616,31,12c0-3.764-2.752-9-5.462-9H23c-0.552,0-1,0.448-1,1v7.764L18,22v21c0.413,1.164,1.696,2,3,2h19c2.206,0,4-1.794,4-4c0-0.823-0.25-1.588-0.677-2.225C44.88,38.228,46,36.742,46,35c0-0.979-0.354-1.877-0.939-2.572C46.222,31.727,47,30.452,47,29z"/></svg>