<?xml version="1.0" encoding="iso-8859-1"?><!-- Generator: Adobe Illustrator 23.0.3, SVG Export Plug-In . SVG Version: 6.00 Build 0)  --><svg xmlns="http://www.w3.org/2000/svg" xmlns:xlink="http://www.w3.org/1999/xlink" viewBox="0 0 50 50" width="500px" height="500px"><circle style="fill:none;stroke:#000000;stroke-width:2;stroke-miterlimit:10;" cx="25" cy="25" r="22"/><path style="fill:none;stroke:#000000;stroke-width:2;stroke-linecap:round;stroke-miterlimit:10;" d="M32.124,20.364C31.386,16.371,28.842,15,25.288,15C21.555,15,15,19.913,15,28.477C15,32.104,17.181,35,20.914,35c4.425,0,6.086-3,7.334-5.281"/><path style="fill:none;stroke:#000000;stroke-width:2;stroke-linecap:round;stroke-miterlimit:10;" d="M34,39.425C31.39,41.057,28.305,42,25,42c-9.389,0-17-7.611-17-17S15.611,8,25,8s17,7.611,17,17c0,6-5,10-10,10c-4,0-4.169-4.1-3.358-6.169"/><line style="fill:none;stroke:#000000;stroke-width:2;stroke-linecap:round;stroke-miterlimit:10;" x1="34" y1="16" x2="27.674" y2="31.182"/></svg>