<?xml version="1.0" encoding="utf-8"?><!-- Generator: Adobe Illustrator 18.1.0, SVG Export Plug-In . SVG Version: 6.00 Build 0)  --><!DOCTYPE svg PUBLIC "-//W3C//DTD SVG 1.0//EN" "http://www.w3.org/TR/2001/REC-SVG-20010904/DTD/svg10.dtd"><svg xmlns="http://www.w3.org/2000/svg" xmlns:xlink="http://www.w3.org/1999/xlink" viewBox="0 0 50 50" width="500px" height="500px"><path style="fill:none;stroke:#000000;stroke-width:2;stroke-linecap:round;stroke-linejoin:round;stroke-miterlimit:10;" d="M49,38c0,2.2-1.8,4-4,4H5c-2.2,0-4-1.8-4-4V12c0-2.2,1.8-4,4-4h40c2.2,0,4,1.8,4,4V38z"/><g><path d="M13.2,33l-5-14.3h2l4.1,12.4h0l4.1-12.4h2L15.4,33H13.2z"/><path d="M26,18.7V33h-1.9V18.7H26z"/><path d="M37.4,18.7c1.4,0,2.5,0.4,3.3,1.1c0.7,0.7,1.1,1.8,1.1,3.1c0,1.3-0.4,2.4-1.1,3.1c-0.7,0.7-1.8,1.1-3.3,1.1h-4.4V33h-1.9V18.7H37.4z M36.8,25.6c1.1,0,1.9-0.2,2.4-0.7c0.5-0.5,0.8-1.1,0.8-2c0-0.9-0.2-1.5-0.8-1.9s-1.3-0.7-2.4-0.7h-3.7v5.2H36.8z"/></g></svg>