<?xml version="1.0" encoding="utf-8"?><!-- Generator: Adobe Illustrator 18.1.1, SVG Export Plug-In . SVG Version: 6.00 Build 0)  --><svg xmlns="http://www.w3.org/2000/svg" xmlns:xlink="http://www.w3.org/1999/xlink" viewBox="0 0 50 50" width="50px" height="50px"><path d="M47,5H3C1.3,5,0,6.3,0,8v9h50V8C50,6.3,48.7,5,47,5z M7,13c-1.1,0-2-0.9-2-2s0.9-2,2-2s2,0.9,2,2S8.1,13,7,13z M14,13c-1.1,0-2-0.9-2-2s0.9-2,2-2s2,0.9,2,2S15.1,13,14,13z M45,13H20V9h25V13z"/><path fill="none" stroke="#000000" stroke-width="2" stroke-linecap="round" stroke-linejoin="round" stroke-miterlimit="10" d="M3,44h44c1.1,0,2-0.9,2-2V16H1v26C1,43.1,1.9,44,3,44z"/></svg>