<?xml version="1.0" encoding="iso-8859-1"?><!-- Generator: Adobe Illustrator 19.2.0, SVG Export Plug-In . SVG Version: 6.00 Build 0)  --><svg xmlns="http://www.w3.org/2000/svg" xmlns:xlink="http://www.w3.org/1999/xlink" viewBox="0 0 50 50" width="500px" height="500px"><path style="fill:none;stroke:#000000;stroke-width:2;stroke-linecap:round;stroke-linejoin:round;stroke-miterlimit:10;" d="M45,12h2c1.105,0,2,0.895,2,2v26c0,1.105-0.895,2-2,2H3c-1.105,0-2-0.895-2-2V14c0-1.105,0.895-2,2-2h2"/><path style="fill:none;stroke:#000000;stroke-width:2;stroke-linecap:round;stroke-linejoin:round;stroke-miterlimit:10;" d="M45,8c0,0-4.042-2-10-2S25,8,25,8v31c0,0,4.002-2,10-2s10,2,10,2V8z"/><path style="fill:none;stroke:#000000;stroke-width:2;stroke-linecap:round;stroke-linejoin:round;stroke-miterlimit:10;" d="M25,8c0,0-4.042-2-10-2S5,8,5,8v31c0,0,4.002-2,10-2s10,2,10,2V8z"/><path d="M28,41c0,1.657-1.343,3-3,3s-3-1.343-3-3H28z"/><circle cx="35" cy="14" r="2"/><path d="M37,31h-4V19h3c0.552,0,1,0.448,1,1V31z"/><line style="fill:none;stroke:#000000;stroke-width:2;stroke-linecap:round;stroke-linejoin:round;stroke-miterlimit:10;" x1="32" y1="20" x2="35" y2="20"/></svg>