<?xml version="1.0" encoding="utf-8"?><!-- Generator: Adobe Illustrator 18.1.1, SVG Export Plug-In . SVG Version: 6.00 Build 0)  --><svg xmlns="http://www.w3.org/2000/svg" xmlns:xlink="http://www.w3.org/1999/xlink" viewBox="0 0 50 50" width="500px" height="500px"><polyline fill="none" stroke="#000000" stroke-width="2" stroke-linecap="round" stroke-miterlimit="10" points="39,19 39,11 31,11 "/><line fill="none" stroke="#000000" stroke-width="2" stroke-linecap="round" stroke-miterlimit="10" x1="22" y1="28" x2="38.9" y2="11.1"/><path d="M31,0c-7.5,0-13.9,4.3-17,10.6c0.8-0.2,1.7-0.4,2.5-0.5C19.5,5.3,24.9,2,31,2c9.4,0,17,7.6,17,17c0,6.1-3.3,11.5-8.2,14.5c-0.1,0.9-0.3,1.7-0.5,2.5C45.7,32.9,50,26.5,50,19C50,8.5,41.5,0,31,0z"/><path fill="none" stroke="#000000" stroke-width="2" stroke-linecap="round" stroke-miterlimit="10" d="M28.6,15.8c-7-4.4-16.2-3.6-22.3,2.5c-7,7-7,18.4,0,25.5c7,7,18.4,7,25.5,0c6.1-6.1,6.9-15.3,2.5-22.3"/></svg>