<?xml version="1.0" encoding="iso-8859-1"?><!-- Generator: Adobe Illustrator 23.0.3, SVG Export Plug-In . SVG Version: 6.00 Build 0)  --><svg xmlns="http://www.w3.org/2000/svg" xmlns:xlink="http://www.w3.org/1999/xlink" viewBox="0 0 50 50" width="50px" height="50px"><g><path d="M44,5H12c-1.654,0-3,1.346-3,3v30c0,0.553,0.448,1,1,1h36c0.552,0,1-0.447,1-1V8C47,6.346,45.654,5,44,5z M11,37V12h34v25H11z"/><path d="M39,43H5V18h2v-7H6c-1.654,0-3,1.346-3,3v30c0,0.553,0.448,1,1,1h36c0.552,0,1-0.447,1-1v-3h-2V43z"/></g><line style="fill:none;stroke:#000000;stroke-width:2;stroke-linejoin:round;stroke-miterlimit:10;" x1="22" y1="19" x2="39" y2="19"/><line style="fill:none;stroke:#000000;stroke-width:2;stroke-linejoin:round;stroke-miterlimit:10;" x1="22" y1="25" x2="39" y2="25"/><line style="fill:none;stroke:#000000;stroke-width:2;stroke-linejoin:round;stroke-miterlimit:10;" x1="22" y1="31" x2="39" y2="31"/><g><circle cx="17" cy="19" r="1"/><circle cx="17" cy="25" r="1"/><circle cx="17" cy="31" r="1"/></g></svg>