<?xml version="1.0" encoding="iso-8859-1"?><!-- Generator: Adobe Illustrator 22.1.0, SVG Export Plug-In . SVG Version: 6.00 Build 0)  --><svg xmlns="http://www.w3.org/2000/svg" xmlns:xlink="http://www.w3.org/1999/xlink" viewBox="0 0 50 50" width="50px" height="50px"><path d="M40.981,19.39c-0.039,1.376-0.278,2.7-0.689,3.949C43.589,24.327,46,27.386,46,31c0,4.411-3.589,8-8,8H23c-4.411,0-8-3.589-8-8s3.589-8,8-8h8.442C32.402,21.937,33,20.542,33,19H23c-6.617,0-12,5.383-12,12s5.383,12,12,12h15c6.617,0,12-5.383,12-12C50,25.414,46.158,20.721,40.981,19.39z"/><path d="M27,7H12C5.383,7,0,12.383,0,19c0,5.584,3.839,10.276,9.013,11.608c0.038-1.375,0.269-2.702,0.679-3.951C6.403,25.664,4,22.608,4,19c0-4.411,3.589-8,8-8h15c4.411,0,8,3.589,8,8s-3.589,8-8,8h-8.448C17.593,28.062,17,29.459,17,31h10c6.617,0,12-5.383,12-12S33.617,7,27,7z"/></svg>