<?xml version="1.0" encoding="iso-8859-1"?><!-- Generator: Adobe Illustrator 22.0.1, SVG Export Plug-In . SVG Version: 6.00 Build 0)  --><svg xmlns="http://www.w3.org/2000/svg" xmlns:xlink="http://www.w3.org/1999/xlink" viewBox="0 0 50 50" width="500px" height="500px"><line style="fill:none;stroke:#000000;stroke-width:2;stroke-miterlimit:10;" x1="2" y1="31" x2="49" y2="31"/><line style="fill:none;stroke:#000000;stroke-width:2;stroke-miterlimit:10;" x1="20" y1="31" x2="20" y2="9"/><line style="fill:none;stroke:#000000;stroke-width:2;stroke-miterlimit:10;" x1="11" y1="31" x2="11" y2="9"/><line style="fill:none;stroke:#000000;stroke-width:2;stroke-miterlimit:10;" x1="30" y1="31" x2="30" y2="9"/><line style="fill:none;stroke:#000000;stroke-width:2;stroke-miterlimit:10;" x1="39" y1="31" x2="39" y2="9"/><line style="fill:none;stroke:#000000;stroke-width:2;stroke-miterlimit:10;" x1="10" y1="20" x2="20" y2="20"/><line style="fill:none;stroke:#000000;stroke-width:2;stroke-miterlimit:10;" x1="30" y1="20" x2="40" y2="20"/><path style="fill:none;stroke:#000000;stroke-width:2;stroke-miterlimit:10;" d="M47,42H3c-1.105,0-2-0.895-2-2V10c0-1.105,0.895-2,2-2h44c1.105,0,2,0.895,2,2v30C49,41.105,48.105,42,47,42z"/></svg>