<?xml version="1.0" encoding="iso-8859-1"?><!-- Generator: Adobe Illustrator 21.1.0, SVG Export Plug-In . SVG Version: 6.00 Build 0)  --><svg xmlns="http://www.w3.org/2000/svg" xmlns:xlink="http://www.w3.org/1999/xlink" viewBox="0 0 50 50" width="50px" height="50px"><path d="M41,4H9C6.24,4,4,6.24,4,9v32c0,2.76,2.24,5,5,5h32c2.76,0,5-2.24,5-5V9C46,6.24,43.76,4,41,4z M27,37.62c0,0.23-0.19,0.38-0.48,0.38h-3.04C23.19,38,23,37.85,23,37.62V20.38c0-0.23,0.19-0.38,0.48-0.38h3.04c0.29,0,0.48,0.15,0.48,0.38V37.62z M27,15.57c0,0.26-0.18,0.43-0.46,0.43h-3.09C23.18,16,23,15.83,23,15.57v-3.14c0-0.26,0.18-0.43,0.45-0.43h3.09c0.28,0,0.46,0.17,0.46,0.43V15.57z"/></svg>