<?xml version="1.0" encoding="iso-8859-1"?><!-- Generator: Adobe Illustrator 19.2.1, SVG Export Plug-In . SVG Version: 6.00 Build 0)  --><svg xmlns="http://www.w3.org/2000/svg" xmlns:xlink="http://www.w3.org/1999/xlink" viewBox="0 0 50 50" width="500px" height="500px"><rect y="0" transform="matrix(8.978513e-11 -1 1 8.978513e-11 -2.779412e-09 50)" style="fill:none;" width="50" height="50"/><path style="fill:none;stroke:#000000;stroke-width:2;stroke-linecap:round;stroke-linejoin:round;stroke-miterlimit:10;" d="M17,31H6c-1.657,0-3-1.343-3-3V10c0-1.657,1.343-3,3-3h24c1.657,0,3,1.343,3,3v9"/><path style="fill:none;stroke:#000000;stroke-width:2;stroke-linecap:round;stroke-linejoin:round;stroke-miterlimit:10;" d="M47,22v18c0,1.657-1.343,3-3,3H20c-1.657,0-3-1.343-3-3V22c0-1.657,1.343-3,3-3h24C45.657,19,47,20.343,47,22z"/></svg>