<?xml version="1.0" encoding="iso-8859-1"?><!-- Generator: Adobe Illustrator 23.0.3, SVG Export Plug-In . SVG Version: 6.00 Build 0)  --><svg xmlns="http://www.w3.org/2000/svg" xmlns:xlink="http://www.w3.org/1999/xlink" viewBox="0 0 50 50" width="500px" height="500px"><circle style="fill:none;stroke:#000000;stroke-width:2;stroke-linecap:round;stroke-miterlimit:10;" cx="36" cy="36" r="9"/><line style="fill:none;stroke:#000000;stroke-width:2;stroke-miterlimit:10;" x1="42" y1="42" x2="49" y2="49"/><path d="M24,36H9.67C5.441,36,2,32.56,2,28.331c0-3.433,2.313-6.47,5.626-7.385l0.76-0.21l-0.04-1.004c0-2.761,2.247-5.008,5.009-5.008c1.338,0,2.597,0.522,3.543,1.47l1.104,1.105l0.542-1.465C20.158,11.475,24.356,9,28.993,9c6.148,0,11.15,4.548,11.15,10.696c0,0.416-0.03,0.854-0.096,1.382L39.909,22.2h1.131l0.091-0.003C44.922,22.215,48,25.304,48,29.099c0,1.06-0.247,2.061-0.676,2.959c0.303,0.87,0.52,1.78,0.615,2.728C49.224,33.243,50,31.26,50,29.099c0-4.561-3.446-8.331-7.872-8.843c0.01-0.191,0.015-0.377,0.015-0.56C42.143,12.445,36.244,7,28.993,7c-5.009,0-9.584,2.442-11.78,6.878c-1.135-0.751-2.465-1.155-3.857-1.155c-3.704,0-6.746,2.887-6.993,6.528C2.581,20.629,0,24.259,0,28.331C0,33.663,4.338,38,9.67,38h14.51C24.07,37.348,24,36.683,24,36z"/></svg>