<?xml version="1.0" encoding="iso-8859-1"?><!-- Generator: Adobe Illustrator 21.1.0, SVG Export Plug-In . SVG Version: 6.00 Build 0)  --><svg xmlns="http://www.w3.org/2000/svg" xmlns:xlink="http://www.w3.org/1999/xlink" viewBox="0 0 50 50" width="500px" height="500px"><g><g><path style="fill:none;stroke:#000000;stroke-width:2;stroke-miterlimit:10;" d="M47,9H17.2l-0.697-1.743C16.199,6.498,15.464,6,14.646,6H3C1.895,6,1,6.895,1,8v1v2v33h48V11C49,9.895,48.105,9,47,9z"/></g></g><path d="M11.53,30.046H9.841L8,23h1.86l0.938,4.673h0.088L12.014,23h1.436l1.167,4.673h0.088L15.627,23h1.846l-1.841,7.046h-1.68l-1.177-4.316h-0.088L11.53,30.046z"/><path d="M22.843,30.046h-1.689L19.312,23h1.86l0.938,4.673h0.088L23.326,23h1.436l1.167,4.673h0.088L26.939,23h1.846l-1.841,7.046h-1.68l-1.177-4.316H24L22.843,30.046z"/><path d="M34.155,30.046h-1.689L30.625,23h1.86l0.938,4.673h0.088L34.639,23h1.436l1.167,4.673h0.088L38.252,23h1.846l-1.841,7.046h-1.68L35.4,25.729h-0.088L34.155,30.046z"/><path d="M41.278,29.279c0-0.552,0.366-0.933,0.981-0.933c0.62,0,0.986,0.381,0.986,0.933c0,0.547-0.366,0.928-0.986,0.928C41.645,30.207,41.278,29.826,41.278,29.279z"/></svg>