<?xml version="1.0" encoding="iso-8859-1"?><!-- Generator: Adobe Illustrator 23.0.3, SVG Export Plug-In . SVG Version: 6.00 Build 0)  --><svg xmlns="http://www.w3.org/2000/svg" xmlns:xlink="http://www.w3.org/1999/xlink" viewBox="0 0 30 30" width="50px" height="50px"><g><path d="M26,9c0-0.426-0.269-0.784-0.644-0.928l-9.555-3.902C15.556,4.062,15.285,4,15,4s-0.556,0.062-0.801,0.169L4.644,8.072C4.269,8.216,4,8.574,4,9c0,0.426,0.269,0.784,0.644,0.928l9.598,3.921C14.475,13.945,14.731,14,15,14s0.525-0.055,0.759-0.151l9.598-3.921C25.731,9.784,26,9.426,26,9z"/></g><g><path d="M25.356,14.072l-2.428-0.992l-6.41,2.619C16.032,15.899,15.521,16,15,16s-1.032-0.101-1.515-0.3l-6.413-2.62l-2.428,0.992C4.269,14.216,4,14.574,4,15c0,0.426,0.269,0.784,0.644,0.928l9.598,3.921C14.475,19.945,14.731,20,15,20s0.525-0.055,0.759-0.151l9.598-3.921C25.731,15.784,26,15.426,26,15C26,14.574,25.731,14.216,25.356,14.072z"/></g><g><path d="M25.356,20.072l-2.428-0.992l-6.41,2.619C16.032,21.899,15.521,22,15,22s-1.032-0.101-1.515-0.3l-6.413-2.62l-2.428,0.992C4.269,20.216,4,20.574,4,21c0,0.426,0.269,0.784,0.644,0.928l9.598,3.921C14.475,25.945,14.731,26,15,26s0.525-0.055,0.759-0.151l9.598-3.921C25.731,21.784,26,21.426,26,21C26,20.574,25.731,20.216,25.356,20.072z"/></g></svg>