<?xml version="1.0" encoding="iso-8859-1"?><!-- Generator: Adobe Illustrator 21.1.0, SVG Export Plug-In . SVG Version: 6.00 Build 0)  --><svg xmlns="http://www.w3.org/2000/svg" xmlns:xlink="http://www.w3.org/1999/xlink" viewBox="0 0 50 50" width="500px" height="500px"><path style="fill:none;stroke:#000000;stroke-width:2;stroke-miterlimit:10;" d="M22.534,3.147C23.344,3.056,24.163,3,24.997,3c12.15,0,22,9.85,22,22s-9.85,22-22,22c-0.829,0-1.643-0.054-2.447-0.144"/><path style="fill:none;stroke:#000000;stroke-width:2;stroke-miterlimit:10;" d="M17.749,45.753c-1.568-0.548-3.053-1.266-4.436-2.135"/><path style="fill:none;stroke:#000000;stroke-width:2;stroke-miterlimit:10;" d="M9.449,40.564c-1.163-1.162-2.177-2.464-3.058-3.862"/><path style="fill:none;stroke:#000000;stroke-width:2;stroke-miterlimit:10;" d="M3.144,27.47c0.186,1.666,0.571,3.266,1.107,4.798"/><path style="fill:none;stroke:#000000;stroke-width:2;stroke-miterlimit:10;" d="M3.141,22.544c0.185-1.666,0.569-3.268,1.105-4.799"/><path style="fill:none;stroke:#000000;stroke-width:2;stroke-miterlimit:10;" d="M6.383,13.31c0.88-1.398,1.893-2.702,3.055-3.864"/><path style="fill:none;stroke:#000000;stroke-width:2;stroke-miterlimit:10;" d="M13.3,6.39c1.383-0.871,2.867-1.589,4.435-2.138"/><polyline style="fill:none;stroke:#000000;stroke-width:2;stroke-miterlimit:10;" points="14,25 23,33 35,15 "/></svg>