<?xml version="1.0" encoding="iso-8859-1"?><!-- Generator: Adobe Illustrator 22.1.0, SVG Export Plug-In . SVG Version: 6.00 Build 0)  --><svg xmlns="http://www.w3.org/2000/svg" xmlns:xlink="http://www.w3.org/1999/xlink" viewBox="0 0 50 50" width="500px" height="500px"><g></g><path style="fill:none;stroke:#000000;stroke-width:2;stroke-linejoin:round;stroke-miterlimit:10;" d="M23,18V8c0,0,0-1,2-1s2,1,2,1v10"/><line style="fill:none;stroke:#000000;stroke-width:2;stroke-linecap:round;stroke-linejoin:round;stroke-miterlimit:10;" x1="23" y1="22" x2="27" y2="22"/><line style="fill:none;stroke:#000000;stroke-width:2;stroke-linecap:round;stroke-miterlimit:10;" x1="1" y1="22" x2="2" y2="38"/><line style="fill:none;stroke:#000000;stroke-width:2;stroke-linecap:round;stroke-miterlimit:10;" x1="49" y1="22" x2="48" y2="38"/><path d="M4.228,37.27C4.088,37.811,4,38.389,4,39c0,2.761,1.567,5,3.5,5c1.114,0,2.095-0.758,2.736-1.917C7.783,41.113,5.688,39.426,4.228,37.27z"/><path style="fill:none;stroke:#000000;stroke-width:2;stroke-miterlimit:10;" d="M39,18c3.314,0,6,2.686,6,6v6c0,5.523-4.477,10-10,10H15C9.477,40,5,35.523,5,30v-6c0-3.314,2.686-6,6-6H39z"/><path d="M45.772,37.27C45.912,37.811,46,38.389,46,39c0,2.761-1.567,5-3.5,5c-1.114,0-2.095-0.758-2.736-1.917C42.217,41.113,44.312,39.426,45.772,37.27z"/></svg>