<?xml version="1.0" encoding="iso-8859-1"?><!-- Generator: Adobe Illustrator 21.1.0, SVG Export Plug-In . SVG Version: 6.00 Build 0)  --><svg xmlns="http://www.w3.org/2000/svg" xmlns:xlink="http://www.w3.org/1999/xlink" viewBox="0 0 50 50" width="50px" height="50px"><g><g><g></g></g></g><path d="M43.5,31c-1.7,0-3.3,0.689-4.5,1.772C37.8,31.689,36.2,31,34.5,31c-3.6,0-6.5,2.855-6.5,6.301c0,5.415,5,8.663,8.2,10.731c0.9,0.591,1.6,0.984,2.1,1.477L38.9,50l0.6-0.492c0.5-0.394,1.3-0.886,2.1-1.477C45,45.865,50,42.715,50,37.301C50,33.855,47.1,31,43.5,31z M40.7,46.358c-0.7,0.394-1.2,0.788-1.7,1.083c-0.5-0.394-1-0.689-1.7-1.083c-3.1-1.969-7.3-4.725-7.3-9.057c0-2.363,2-4.332,4.5-4.332c1.5,0,2.8,0.719,3.7,1.999L39,36l0.8-1.032c0.8-1.181,2.2-1.999,3.7-1.999c2.5,0,4.5,1.969,4.5,4.332C48,41.632,43.8,44.389,40.7,46.358z"/><path d="M6,2v46h31.625C37.286,47.754,29,43,29,38c0-1.539,0.584-2.938,1.537-4H29h-9v-2h9h2.25h0.125v1.237C32.383,32.468,33.634,32,35,32c1.72,0,3.266,0.727,4.36,1.887C40.368,32.733,41.847,32,43.5,32c0.169,0,0.335,0.01,0.5,0.025V2H6z M17,34h-4v-2h4V34z M17,28h-4v-2h4V28z M17,22h-4v-2h4V22z M17,16h-4v-2h4V16z M37,28H20v-2h17V28z M37,22H20v-2h17V22z M37,16H20v-2h17V16z"/></svg>