<?xml version="1.0" encoding="iso-8859-1"?>
<!-- Generator: Adobe Illustrator 23.0.3, SVG Export Plug-In . SVG Version: 6.00 Build 0)  -->
<svg version="1.1" id="Layer_1" xmlns="http://www.w3.org/2000/svg" xmlns:xlink="http://www.w3.org/1999/xlink" x="0px" y="0px"
	 viewBox="0 0 50 50" style="enable-background:new 0 0 50 50;" xml:space="preserve">
<path style="fill:none;stroke:#000000;stroke-width:2;stroke-linecap:round;stroke-linejoin:round;stroke-miterlimit:10;" d="
	M2.276,41.892L23.233,5.036c0.786-1.382,2.749-1.382,3.535,0l20.956,36.855C48.509,43.273,47.527,45,45.956,45H4.044
	C2.473,45,1.491,43.273,2.276,41.892z"/>
<path d="M27,37v2c0,0.552-0.446,1-0.998,1c-0.612,0-1.392,0-2.003,0C23.446,40,23,39.552,23,39v-2c0-0.552,0.446-1,0.998-1
	c0.612,0,1.392,0,2.003,0C26.554,36,27,36.448,27,37z M27,18l-0.002,14c0,0.552-0.446,1-0.998,1c-0.612,0-1.392,0-2.003,0
	C23.444,33,23,32.552,23,32V18c0-0.552,0.446-1,0.998-1c0.612,0,1.392,0,2.003,0C26.554,17,27,17.448,27,18z"/>
<line style="fill:none;stroke:#000000;stroke-width:2;stroke-linecap:round;stroke-linejoin:round;stroke-miterlimit:10;" x1="37" y1="11" x2="41" y2="6"/>
<line style="fill:none;stroke:#000000;stroke-width:2;stroke-linecap:round;stroke-linejoin:round;stroke-miterlimit:10;" x1="41" y1="16" x2="47" y2="13"/>
<line style="fill:none;stroke:#000000;stroke-width:2;stroke-linecap:round;stroke-linejoin:round;stroke-miterlimit:10;" x1="43" y1="22" x2="49" y2="22"/>
<line style="fill:none;stroke:#000000;stroke-width:2;stroke-linecap:round;stroke-linejoin:round;stroke-miterlimit:10;" x1="13" y1="11" x2="9" y2="6"/>
<line style="fill:none;stroke:#000000;stroke-width:2;stroke-linecap:round;stroke-linejoin:round;stroke-miterlimit:10;" x1="9" y1="16" x2="3" y2="13"/>
<line style="fill:none;stroke:#000000;stroke-width:2;stroke-linecap:round;stroke-linejoin:round;stroke-miterlimit:10;" x1="7" y1="22" x2="1" y2="22"/>
</svg>