<?xml version="1.0" encoding="iso-8859-1"?><!-- Generator: Adobe Illustrator 20.0.0, SVG Export Plug-In . SVG Version: 6.00 Build 0)  --><svg xmlns="http://www.w3.org/2000/svg" xmlns:xlink="http://www.w3.org/1999/xlink" viewBox="0 0 50 50" width="500px" height="500px"><path style="fill:none;stroke:#000000;stroke-width:2;stroke-miterlimit:10;" d="M43,13H7c-2.209,0-4,1.791-4,4v20c0,2.209,1.791,4,4,4h11.362c1.6,0,3.046-0.954,3.677-2.424l1.567-3.657C23.845,34.361,24.393,34,25,34h0c0.607,0,1.155,0.361,1.394,0.919l1.567,3.657C28.591,40.046,30.037,41,31.637,41H43c2.209,0,4-1.791,4-4V17C47,14.791,45.209,13,43,13z"/><path style="fill:none;stroke:#000000;stroke-width:2;stroke-miterlimit:10;" d="M44,13c0-2.209-1.791-4-4-4H10c-2.209,0-4,1.791-4,4"/><circle style="fill:none;stroke:#000000;stroke-width:2;stroke-miterlimit:10;" cx="35.5" cy="27.5" r="5.5"/><circle style="fill:none;stroke:#000000;stroke-width:2;stroke-miterlimit:10;" cx="14.5" cy="27.5" r="5.5"/><line style="fill:none;stroke:#000000;stroke-width:2;stroke-miterlimit:10;" x1="22.071" y1="38" x2="27.929" y2="38"/></svg>