<?xml version="1.0" encoding="iso-8859-1"?>
<!-- Generator: Adobe Illustrator 21.1.0, SVG Export Plug-In . SVG Version: 6.00 Build 0)  -->
<svg version="1.1" id="Layer_1" xmlns="http://www.w3.org/2000/svg" xmlns:xlink="http://www.w3.org/1999/xlink" x="0px" y="0px"
	 viewBox="0 0 50 50" style="enable-background:new 0 0 50 50;" xml:space="preserve">
<g style="display:none;">
	<g style="display:inline;">
		<g>
			<g>
			</g>
		</g>
	</g>
</g>
<path style="fill:none;stroke:#000000;stroke-width:2;stroke-miterlimit:10;" d="M11.25,38H8c-1.105,0-2-0.895-2-2V15
	c0-1.105,0.895-2,2-2h27"/>
<path style="fill:none;stroke:#000000;stroke-width:2;stroke-miterlimit:10;" d="M6.095,27.252l-2.779-1.037
	c-1.037-0.387-1.572-1.562-1.194-2.625L8.955,4.348c0.377-1.063,1.524-1.611,2.561-1.224l25.98,9.69"/>
<path style="fill:none;stroke:#000000;stroke-width:2;stroke-miterlimit:10;" d="M46.681,35.67L16.546,46.876
	c-1.04,0.387-2.19-0.161-2.569-1.224L7.121,26.41c-0.379-1.063,0.158-2.238,1.198-2.625l30.135-11.206
	c1.04-0.387,2.19,0.161,2.569,1.224l6.855,19.242C48.257,34.108,47.721,35.283,46.681,35.67z"/>
<line style="fill:none;stroke:#000000;stroke-width:2;stroke-miterlimit:10;" x1="40.283" y1="38.303" x2="31.732" y2="14.81"/>
<circle cx="37.5" cy="17.5" r="1.5"/>
</svg>