<?xml version="1.0" encoding="utf-8"?><!-- Generator: Adobe Illustrator 15.0.0, SVG Export Plug-In . SVG Version: 6.00 Build 0)  --><!DOCTYPE svg PUBLIC "-//W3C//DTD SVG 1.1//EN" "http://www.w3.org/Graphics/SVG/1.1/DTD/svg11.dtd"><svg xmlns="http://www.w3.org/2000/svg" xmlns:xlink="http://www.w3.org/1999/xlink" viewBox="0 0 50 50" width="50px" height="50px"><path d="M48.807,22.093l-20.899-20.9c-1.529-1.528-4.216-1.569-5.916,0.001L1.193,22.093c-1.592,1.592-1.604,4.178,0,5.914l20.8,20.8C22.762,49.576,23.799,50,24.913,50c1.099,0,2.152-0.414,2.995-1.193l20.8-20.8C50.365,26.349,50.41,23.696,48.807,22.093z M23.4,14.4c0-0.2,0.1-0.4,0.4-0.4h2.3c0.2,0,0.4,0.1,0.4,0.4v14.5c0,0.199-0.1,0.399-0.4,0.399h-2.3c-0.2,0-0.4-0.1-0.4-0.399V14.4z M26.6,35.7c0,0.2-0.1,0.399-0.399,0.399h-2.4c-0.2,0-0.4-0.1-0.4-0.399V33c0-0.2,0.1-0.4,0.4-0.4h2.4V32.7c0.2,0,0.399,0.1,0.399,0.399V35.7z"/></svg>