<?xml version="1.0" encoding="iso-8859-1"?><!-- Generator: Adobe Illustrator 21.1.0, SVG Export Plug-In . SVG Version: 6.00 Build 0)  --><svg xmlns="http://www.w3.org/2000/svg" xmlns:xlink="http://www.w3.org/1999/xlink" viewBox="0 0 50 50" width="500px" height="500px"><polyline style="fill:none;stroke:#000000;stroke-width:2;stroke-linecap:round;stroke-miterlimit:10;" points="2,36.211 9.472,38.494 10.509,30.815 "/><path style="fill:none;stroke:#000000;stroke-width:2;stroke-miterlimit:10;" d="M9.263,37.626C6,34.047,4,29.31,4,24.047c0-11.053,8.947-20,20-20"/><polyline style="fill:none;stroke:#000000;stroke-width:2;stroke-linecap:round;stroke-miterlimit:10;" points="46,11.883 38.528,9.6 37.491,17.279 "/><path style="fill:none;stroke:#000000;stroke-width:2;stroke-miterlimit:10;" d="M38.737,10.468C42,14.047,44,18.784,44,24.047c0,11.053-8.947,20-20,20"/><line style="fill:none;stroke:#000000;stroke-width:2;stroke-miterlimit:10;" x1="37.5" y1="37.5" x2="46" y2="46"/><path d="M33.939,7.8L33.939,7.8l-0.85-0.52l1.05-1.711L34.99,6.1l0,0l0.85,0.521l-1.05,1.699C33.939,7.8,34.79,8.319,33.939,7.8z M30.52,6.149h0.011l-0.94-0.34l0.68-1.88l1.88,0.69l-0.68,1.87C30.52,6.149,31.47,6.49,30.52,6.149z M26.85,5.22L26.85,5.22l-0.99-0.15L26.16,3.09l0.989,0.15l0,0l0.99,0.149l-0.3,1.97C26.85,5.22,27.84,5.359,26.85,5.22z"/><path d="M14.061,40.294L14.061,40.294l0.85,0.52l-1.05,1.711l-0.851-0.53l0,0l-0.85-0.521l1.05-1.699C14.061,40.294,13.21,39.774,14.061,40.294z M17.48,41.944H17.47l0.94,0.34l-0.68,1.88l-1.88-0.69l0.68-1.87C17.48,41.944,16.53,41.603,17.48,41.944z M21.15,42.874L21.15,42.874l0.99,0.15l-0.301,1.979l-0.989-0.15l0,0l-0.99-0.149l0.3-1.97C21.15,42.874,20.16,42.734,21.15,42.874z"/></svg>