<?xml version="1.0" encoding="utf-8"?><!-- Generator: Adobe Illustrator 15.0.0, SVG Export Plug-In . SVG Version: 6.00 Build 0)  --><!DOCTYPE svg PUBLIC "-//W3C//DTD SVG 1.1//EN" "http://www.w3.org/Graphics/SVG/1.1/DTD/svg11.dtd"><svg xmlns="http://www.w3.org/2000/svg" xmlns:xlink="http://www.w3.org/1999/xlink" viewBox="0 0 50 50" width="50px" height="50px"><g><path d="M45,7H5c-2.757,0-5,2.243-5,5v26c0,2.757,2.243,5,5,5h40c2.757,0,5-2.243,5-5V12C50,9.243,47.757,7,45,7z M15.4,33h-2.2L8,18h2l4.3,13.1L19,18h2L15.4,33z M26,33h-2V18h2V33z M40.7,25.9c-0.7,0.7-1.8,1.1-3.3,1.1H33v6h-2V18h6.301c1.399,0,2.5,0.4,3.3,1.1c0.7,0.7,1.306,2.038,1.306,3.338C41.906,23.738,41.4,25.2,40.7,25.9z"/><path d="M36.7,20H33v5h3.7c0,0,3.331,0.281,3.331-2.469S36.7,20,36.7,20z"/></g></svg>