<?xml version="1.0" encoding="utf-8"?><!-- Generator: Adobe Illustrator 15.0.0, SVG Export Plug-In . SVG Version: 6.00 Build 0)  --><!DOCTYPE svg PUBLIC "-//W3C//DTD SVG 1.1//EN" "http://www.w3.org/Graphics/SVG/1.1/DTD/svg11.dtd"><svg xmlns="http://www.w3.org/2000/svg" xmlns:xlink="http://www.w3.org/1999/xlink" viewBox="0 0 50 50" width="50px" height="50px"><path d="M11,18H3c-1.654,0-3-1.346-3-3V9c0-1.654,1.346-3,3-3h8c1.654,0,3,1.346,3,3v6C14,16.654,12.654,18,11,18z"/><g><rect x="16" y="11" width="5" height="2"/><rect x="13" y="11" width="1" height="2"/></g><path d="M31,18h-8c-1.654,0-3-1.346-3-3V9c0-1.654,1.346-3,3-3h8c1.654,0,3,1.346,3,3v6C34,16.654,32.654,18,31,18z"/><path d="M31,44h-8c-1.654,0-3-1.346-3-3v-6c0-1.654,1.346-3,3-3h8c1.654,0,3,1.346,3,3v6C34,42.654,32.654,44,31,44z"/><path d="M11,44H3c-1.654,0-3-1.346-3-3v-6c0-1.654,1.346-3,3-3h8c1.654,0,3,1.346,3,3v6C14,42.654,12.654,44,11,44z"/><g><rect x="13" y="37" width="1" height="2"/><rect x="16" y="37" width="5" height="2"/></g><path d="M47,31h-8c-1.654,0-3-1.346-3-3v-6c0-1.654,1.346-3,3-3h8c1.654,0,3,1.346,3,3v6C50,29.654,48.654,31,47,31z"/><g><rect x="33" y="11" width="1" height="2"/><path d="M39,11h-3v2h3c1.654,0,3,1.346,3,3v1h2v-1C44,13.243,41.757,11,39,11z"/></g><g><rect x="33" y="37" width="1" height="2"/><path d="M42,33v1c0,1.654-1.346,3-3,3h-3v2h3c2.757,0,5-2.243,5-5v-1H42z"/></g></svg>