<?xml version="1.0" encoding="iso-8859-1"?><!-- Generator: Adobe Illustrator 21.1.0, SVG Export Plug-In . SVG Version: 6.00 Build 0)  --><svg xmlns="http://www.w3.org/2000/svg" xmlns:xlink="http://www.w3.org/1999/xlink" viewBox="0 0 50 50" width="50px" height="50px"><path d="M47,8H17.877l-0.445-1.114C16.973,5.74,15.88,5,14.646,5H3C1.346,5,0,6.346,0,8v37h50V11C50,9.346,48.654,8,47,8z M15.632,30.046h-1.68l-1.177-4.316h-0.088l-1.157,4.316H9.841L8,23h1.86l0.938,4.673h0.088L12.014,23h1.436l1.167,4.673h0.088L15.627,23h1.846L15.632,30.046z M26.944,30.046h-1.68l-1.177-4.316H24l-1.157,4.316h-1.689L19.312,23h1.86l0.938,4.673h0.088L23.326,23h1.436l1.167,4.673h0.088L26.939,23h1.846L26.944,30.046z M38.257,30.046h-1.68L35.4,25.729h-0.088l-1.157,4.316h-1.689L30.625,23h1.86l0.938,4.673h0.088L34.639,23h1.436l1.167,4.673h0.088L38.252,23h1.846L38.257,30.046z M42.26,30.207c-0.615,0-0.981-0.381-0.981-0.928c0-0.552,0.366-0.933,0.981-0.933c0.62,0,0.986,0.381,0.986,0.933C43.246,29.826,42.88,30.207,42.26,30.207z"/></svg>