<?xml version="1.0" encoding="iso-8859-1"?>
<!-- Generator: Adobe Illustrator 25.2.0, SVG Export Plug-In . SVG Version: 6.00 Build 0)  -->
<svg version="1.1" id="&#x421;&#x43B;&#x43E;&#x439;_1"
	 xmlns="http://www.w3.org/2000/svg" xmlns:xlink="http://www.w3.org/1999/xlink" x="0px" y="0px" viewBox="0 0 50 50"
	 style="enable-background:new 0 0 50 50;" xml:space="preserve">
<path d="M48,34.857c-0.11,0-0.221-0.019-0.327-0.055l-32-11.074C15.271,23.589,15,23.209,15,22.783V4.286
	c0-0.317,0.15-0.616,0.406-0.805c0.255-0.188,0.588-0.243,0.888-0.151l32,9.856c0.42,0.13,0.706,0.518,0.706,0.956v19.715
	c0,0.323-0.156,0.627-0.42,0.814C48.408,34.794,48.205,34.857,48,34.857z M17,22.071l30,10.382V14.881l-30-9.24V22.071z"/>
<path d="M34.206,38c-0.095,0-0.19-0.014-0.282-0.041l-13.587-4c-0.426-0.125-0.718-0.516-0.718-0.959s0.292-0.834,0.718-0.959
	l6.794-2c0.184-0.055,0.381-0.055,0.564,0l13.587,4C41.708,34.166,42,34.557,42,35s-0.292,0.834-0.718,0.959l-6.794,2
	C34.396,37.986,34.301,38,34.206,38z M24.16,33l10.046,2.958L37.459,35l-10.046-2.958L24.16,33z"/>
<path d="M27,46c-0.1,0-0.198-0.015-0.294-0.044l-26-8C0.28,37.825-0.007,37.429,0,36.983c0.007-0.444,0.308-0.831,0.737-0.948l11-3
	c0.183-0.05,0.375-0.046,0.557,0.009l26,8c0.426,0.131,0.713,0.527,0.706,0.973c-0.007,0.444-0.308,0.831-0.737,0.948l-11,3
	C27.177,45.988,27.089,46,27,46z M4.589,37.058l22.428,6.901l7.395-2.017l-22.428-6.901L4.589,37.058z"/>
<rect x="34.857" y="29.477" width="2" height="3.285"/>
<rect x="30" y="28" width="2" height="4"/>
</svg>