<?xml version="1.0" encoding="iso-8859-1"?><!-- Generator: Adobe Illustrator 22.1.0, SVG Export Plug-In . SVG Version: 6.00 Build 0)  --><svg xmlns="http://www.w3.org/2000/svg" xmlns:xlink="http://www.w3.org/1999/xlink" viewBox="0 0 50 50" width="50px" height="50px"><circle cx="25" cy="27" r="2"/><path d="M26,30c0,0.552-0.448,1-1,1s-1-0.448-1-1s0-2,0-2h2C26,28,26,29.724,26,30z"/><path d="M28,19c0-1.654-1.346-3-3-3s-3,1.346-3,3v3h6V19z"/><path d="M48,25c0-4.134-1.091-8.012-3-11.364V5c0-1.654-1.346-3-3-3c-1.654,0-3,1.346-3,3v1.898c-4.097-3.151-9.179-4.897-14.5-4.897c-12.958,0-23.5,10.318-23.5,23s10.542,23,23.5,23S48,37.683,48,25C48,25.001,48,25,48,25L48,25z M24.5,46.001c-11.855,0-21.5-9.421-21.5-21s9.645-21,21.5-21c6.436,0,12.436,2.781,16.5,7.541V5c0-0.553,0.448-1,1-1s1,0.447,1,1v10H33c-0.552,0-1-0.447-1-1s0.448-1,1-1h6.609C35.921,8.587,30.416,6.001,24.5,6.001c-10.752,0-19.5,8.523-19.5,19s8.748,19,19.5,19s19.5-8.523,19.5-19c0-0.553,0.448-1,1-1s1,0.447,1,1C46,36.58,36.355,46.001,24.5,46.001z M33,23.5v9c0,0.828-0.672,1.5-1.5,1.5h-13c-0.828,0-1.5-0.672-1.5-1.5v-9c0-0.828,0.672-1.5,1.5-1.5H20l0-2.777c0-2.61,1.903-4.945,4.5-5.199C27.48,13.733,30,16.078,30,19v3h1.5C32.328,22,33,22.672,33,23.5z"/></svg>