<?xml version="1.0" encoding="utf-8"?><!-- Generator: Adobe Illustrator 18.0.0, SVG Export Plug-In . SVG Version: 6.00 Build 0)  --><!DOCTYPE svg PUBLIC "-//W3C//DTD SVG 1.0//EN" "http://www.w3.org/TR/2001/REC-SVG-20010904/DTD/svg10.dtd"><svg xmlns="http://www.w3.org/2000/svg" xmlns:xlink="http://www.w3.org/1999/xlink" viewBox="0 0 50 50" width="500px" height="500px"><line style="fill:none;stroke:#000000;stroke-width:2;stroke-linejoin:round;stroke-miterlimit:10;" x1="11" y1="8" x2="50" y2="8"/><line style="fill:none;stroke:#000000;stroke-width:2;stroke-linejoin:round;stroke-miterlimit:10;" x1="11" y1="25" x2="50" y2="25"/><line style="fill:none;stroke:#000000;stroke-width:2;stroke-linejoin:round;stroke-miterlimit:10;" x1="11" y1="42" x2="50" y2="42"/><g><path d="M3.5,4.3L3.5,4.3L1.9,5.1L1.7,3.9l2.1-1h1.3v8.5H3.5V4.3z"/><path d="M1,28.3v-1l1-0.9c2-1.8,2.9-2.9,2.9-4c0-0.8-0.4-1.4-1.5-1.4c-0.8,0-1.4,0.4-1.8,0.7l-0.5-1.1c0.6-0.5,1.5-0.9,2.6-0.9c1.9,0,2.8,1.2,2.8,2.6c0,1.5-1.1,2.7-2.5,4L3.3,27v0h3.5v1.3H1z"/><path d="M1.3,43.7c0.3,0.2,1.1,0.5,1.9,0.5c1.2,0,1.7-0.7,1.7-1.4c0-1-0.9-1.4-1.9-1.4H2.3v-1.2H3c0.7,0,1.7-0.3,1.7-1.2c0-0.6-0.4-1.1-1.4-1.1c-0.7,0-1.4,0.3-1.7,0.5l-0.4-1.2c0.5-0.3,1.4-0.6,2.4-0.6c1.8,0,2.6,1,2.6,2.1c0,0.9-0.5,1.6-1.6,2v0c1,0.2,1.8,1,1.9,2.1c0,1.4-1.2,2.6-3.3,2.6c-1,0-1.9-0.3-2.4-0.6L1.3,43.7z"/></g></svg>