<?xml version="1.0" encoding="iso-8859-1"?><!-- Generator: Adobe Illustrator 21.1.0, SVG Export Plug-In . SVG Version: 6.00 Build 0)  --><svg xmlns="http://www.w3.org/2000/svg" xmlns:xlink="http://www.w3.org/1999/xlink" viewBox="0 0 50 50" width="50px" height="50px"><path d="M40,4H10c-3.309,0-6,2.691-6,6v30c0,3.309,2.691,6,6,6h30c3.309,0,6-2.691,6-6V10C46,6.691,43.309,4,40,4z M33,19c0-0.553,0.448-1,1-1s1,0.447,1,1v3c0,0.553-0.448,1-1,1s-1-0.447-1-1V19z M23,28h1c0.551,0,1-0.448,1-1v-8c0-0.553,0.448-1,1-1s1,0.447,1,1v8c0,1.654-1.346,3-3,3h-1c-0.552,0-1-0.447-1-1S22.448,28,23,28z M16,44h-6c-2.206,0-4-1.794-4-4v-6.9c0-0.553,0.448-1,1-1s1,0.447,1,1V40c0,1.103,0.897,2,2,2h6c0.552,0,1,0.447,1,1S16.552,44,16,44z M17,22c0,0.553-0.448,1-1,1s-1-0.447-1-1v-3c0-0.553,0.448-1,1-1s1,0.447,1,1V22z M16,8h-6c-1.103,0-2,0.897-2,2v6c0,0.553-0.448,1-1,1s-1-0.447-1-1v-6c0-2.206,1.794-4,4-4h6c0.552,0,1,0.447,1,1S16.552,8,16,8z M31.707,34.707C31.613,34.801,29.364,37,25,37s-6.613-2.199-6.707-2.293c-0.391-0.391-0.391-1.023,0-1.414c0.39-0.389,1.02-0.39,1.41-0.004C19.793,33.375,21.528,35,25,35c3.491,0,5.226-1.643,5.298-1.713c0.394-0.382,1.025-0.377,1.412,0.014C32.095,33.692,32.096,34.318,31.707,34.707z M44,40c0,2.206-1.794,4-4,4h-6c-0.552,0-1-0.447-1-1s0.448-1,1-1h6c1.103,0,2-0.897,2-2v-6.9c0-0.553,0.448-1,1-1s1,0.447,1,1V40z M44,16c0,0.553-0.448,1-1,1s-1-0.447-1-1v-6c0-1.103-0.897-2-2-2h-6c-0.552,0-1-0.447-1-1s0.448-1,1-1h6c2.206,0,4,1.794,4,4V16z"/></svg>