<?xml version="1.0" encoding="iso-8859-1"?><!-- Generator: Adobe Illustrator 21.0.0, SVG Export Plug-In . SVG Version: 6.00 Build 0)  --><svg xmlns="http://www.w3.org/2000/svg" xmlns:xlink="http://www.w3.org/1999/xlink" viewBox="0 0 50 50" width="50px" height="50px"><circle style="fill:none;stroke:#000000;stroke-width:2;stroke-linecap:round;stroke-linejoin:round;stroke-miterlimit:10;" cx="17.5" cy="24.5" r="14.5"/><line style="fill:none;stroke:#000000;stroke-width:2;" x1="38" y1="25" x2="50" y2="25"/><circle cx="38" cy="25" r="1"/><path d="M18,10.5c-7.732,0-14,6.268-14,14s6.268,14,14,14s14-6.268,14-14S25.732,10.5,18,10.5z M26.707,19.707l-12,12C14.512,31.902,14.256,32,14,32s-0.512-0.098-0.707-0.293l-5-5c-0.391-0.391-0.391-1.023,0-1.414s1.023-0.391,1.414,0L14,29.586l11.293-11.293c0.391-0.391,1.023-0.391,1.414,0S27.098,19.316,26.707,19.707z"/></svg>