<?xml version="1.0" encoding="iso-8859-1"?>
<!-- Generator: Adobe Illustrator 24.0.2, SVG Export Plug-In . SVG Version: 6.00 Build 0)  -->
<svg version="1.1" id="Layer_1" xmlns="http://www.w3.org/2000/svg" xmlns:xlink="http://www.w3.org/1999/xlink" x="0px" y="0px"
	 viewBox="0 0 50 50" style="enable-background:new 0 0 50 50;" xml:space="preserve">
<path d="M32.1,21H31v-1.8c0-3.4-2.7-6.2-6-6.2s-6,2.8-6,6.2V21h-1.1c-1.1,0-1.9,0.9-1.9,1.9V33c0,1.1,0.8,2,1.9,2h14.2
	c1,0,1.9-0.9,1.9-1.9V22.9C34,21.9,33.2,21,32.1,21z M21,19.2c0-2.3,1.8-4.2,4-4.2s4,1.9,4,4.2V21h-8V19.2z M32,33H18V23h14V33z
	 M25.9,28.4v1.3c0,0.5-0.4,0.9-0.9,0.9s-0.9-0.4-0.9-0.9v-1.3c-0.3-0.3-0.5-0.6-0.5-1c0-0.8,0.6-1.4,1.4-1.4s1.4,0.6,1.4,1.4
	C26.4,27.8,26.2,28.1,25.9,28.4z"/>
<path style="fill:none;stroke:#000000;stroke-width:2;stroke-miterlimit:10;" d="M48,42H2c-0.552,0-1-0.448-1-1V8
	c0-0.552,0.448-1,1-1h46c0.552,0,1,0.448,1,1v33C49,41.552,48.552,42,48,42z"/>
</svg>