<?xml version="1.0" encoding="iso-8859-1"?><!-- Generator: Adobe Illustrator 23.0.3, SVG Export Plug-In . SVG Version: 6.00 Build 0)  --><svg xmlns="http://www.w3.org/2000/svg" xmlns:xlink="http://www.w3.org/1999/xlink" viewBox="0 0 50 50" width="500px" height="500px"><g><g><path style="fill:none;stroke:#000000;stroke-width:2;stroke-linecap:round;stroke-miterlimit:10;" d="M31,36c0-3.314-2.686-6-6-6s-6,2.686-6,6c0,2.22,1.208,4.153,3,5.191V44c0,1.105,0.895,2,2,2h2c1.105,0,2-0.895,2-2v-2.809C29.792,40.153,31,38.22,31,36z"/></g></g><path d="M23,46h4c0,1.105-0.895,2-2,2S23,47.105,23,46z"/><line style="fill:none;stroke:#000000;stroke-width:2;stroke-linejoin:round;stroke-miterlimit:10;" x1="25" y1="41" x2="28" y2="41"/><circle cx="35" cy="36" r="1"/><circle cx="39" cy="36" r="1"/><circle cx="37" cy="43" r="1"/><circle cx="34" cy="31" r="1"/><circle cx="37" cy="29" r="1"/><circle cx="34" cy="41" r="1"/><circle cx="15" cy="36" r="1"/><circle cx="11" cy="36" r="1"/><circle cx="13" cy="43" r="1"/><circle cx="16" cy="31" r="1"/><circle cx="13" cy="29" r="1"/><circle cx="16" cy="41" r="1"/><path style="fill:none;stroke:#000000;stroke-width:2;stroke-linejoin:round;stroke-miterlimit:10;" d="M41,42h6V7.893C47,6.848,46.174,6,45.154,6H4.846C3.826,6,3,6.848,3,7.893V42h6"/><circle cx="14" cy="12" r="2"/><circle cx="8" cy="12" r="2"/><line style="fill:none;stroke:#000000;stroke-width:2;stroke-linejoin:round;stroke-miterlimit:10;" x1="3" y1="18" x2="47" y2="18"/><rect x="20" y="10" style="fill:none;stroke:#000000;stroke-width:2;stroke-miterlimit:10;" width="22" height="4"/></svg>