<?xml version="1.0" encoding="iso-8859-1"?><!-- Generator: Adobe Illustrator 21.1.0, SVG Export Plug-In . SVG Version: 6.00 Build 0)  --><svg xmlns="http://www.w3.org/2000/svg" xmlns:xlink="http://www.w3.org/1999/xlink" viewBox="0 0 50 50" width="50px" height="50px"><line style="fill:none;stroke:#000000;stroke-width:2;stroke-linecap:round;stroke-miterlimit:10;" x1="4" y1="4" x2="14" y2="14"/><line style="fill:none;stroke:#000000;stroke-width:2;stroke-linecap:round;stroke-miterlimit:10;" x1="36" y1="14" x2="46" y2="4"/><line style="fill:none;stroke:#000000;stroke-width:2;stroke-linecap:round;stroke-miterlimit:10;" x1="46" y1="46" x2="35" y2="36"/><line style="fill:none;stroke:#000000;stroke-width:2;stroke-linecap:round;stroke-miterlimit:10;" x1="14" y1="36" x2="4" y2="46"/><polyline style="fill:none;stroke:#000000;stroke-width:2;stroke-linecap:round;stroke-linejoin:round;stroke-miterlimit:10;" points="4,11 4,4 11,4 "/><polyline style="fill:none;stroke:#000000;stroke-width:2;stroke-linecap:round;stroke-linejoin:round;stroke-miterlimit:10;" points="39,4 46,4 46,11 "/><polyline style="fill:none;stroke:#000000;stroke-width:2;stroke-linecap:round;stroke-linejoin:round;stroke-miterlimit:10;" points="11,46 4,46 4,39 "/><polyline style="fill:none;stroke:#000000;stroke-width:2;stroke-linecap:round;stroke-linejoin:round;stroke-miterlimit:10;" points="46,39 46,46 39,46 "/><path d="M38.121,16.121C37.555,16.688,36.801,17,36,17c-0.801,0-1.555-0.312-2.121-0.879C33.312,15.555,33,14.801,33,14c0-0.801,0.312-1.555,0.879-2.121l2.967-2.967C33.527,6.464,29.44,5,25,5s-8.527,1.464-11.846,3.912l2.967,2.967C16.688,12.445,17,13.199,17,14c0,0.801-0.312,1.555-0.879,2.121C15.555,16.688,14.801,17,14,17c-0.801,0-1.555-0.312-2.121-0.879l-2.967-2.967C6.464,16.473,5,20.56,5,25s1.464,8.527,3.912,11.846l2.967-2.967C12.445,33.312,13.199,33,14,33c0.801,0,1.555,0.312,2.121,0.879C16.688,34.445,17,35.199,17,36c0,0.801-0.312,1.555-0.879,2.121l-2.967,2.967C16.473,43.536,20.56,45,25,45c4.265,0,8.211-1.346,11.457-3.621l-3.474-3.158c-0.594-0.539-0.942-1.277-0.979-2.078c-0.038-0.8,0.238-1.568,0.778-2.161C33.348,33.358,34.157,33,35,33h0c0.747,0,1.464,0.277,2.018,0.78l3.787,3.443C43.425,33.841,45,29.609,45,25c0-4.44-1.464-8.527-3.912-11.846L38.121,16.121z"/></svg>