<?xml version="1.0" encoding="iso-8859-1"?>
<!-- Generator: Adobe Illustrator 22.1.0, SVG Export Plug-In . SVG Version: 6.00 Build 0)  -->
<svg version="1.1" id="Layer_1" xmlns="http://www.w3.org/2000/svg" xmlns:xlink="http://www.w3.org/1999/xlink" x="0px" y="0px"
	 viewBox="0 0 50 50" style="enable-background:new 0 0 50 50;" xml:space="preserve">
<circle cx="31" cy="43" r="1"/>
<circle cx="35" cy="43" r="1"/>
<circle cx="47" cy="23" r="1"/>
<circle cx="47" cy="19" r="1"/>
<circle cx="47" cy="27" r="1"/>
<circle cx="47" cy="31" r="1"/>
<circle cx="47" cy="35" r="1"/>
<circle cx="47" cy="39" r="1"/>
<circle cx="47" cy="43" r="1"/>
<circle cx="39" cy="43" r="1"/>
<circle cx="43" cy="43" r="1"/>
<circle cx="27" cy="43" r="1"/>
<circle cx="23" cy="43" r="1"/>
<circle cx="19" cy="43" r="1"/>
<circle cx="15" cy="43" r="1"/>
<circle cx="11" cy="43" r="1"/>
<circle cx="7" cy="43" r="1"/>
<circle cx="3" cy="43" r="1"/>
<circle cx="43" cy="15" r="1"/>
<circle cx="47" cy="15" r="1"/>
<circle cx="39" cy="15" r="1"/>
<circle cx="35" cy="15" r="1"/>
<circle cx="31" cy="15" r="1"/>
<circle cx="27" cy="15" r="1"/>
<circle cx="23" cy="15" r="1"/>
<circle cx="3" cy="11" r="1"/>
<circle cx="3" cy="15" r="1"/>
<circle cx="3" cy="19" r="1"/>
<circle cx="3" cy="23" r="1"/>
<circle cx="3" cy="27" r="1"/>
<circle cx="3" cy="31" r="1"/>
<circle cx="3" cy="35" r="1"/>
<circle cx="3" cy="39" r="1"/>
<circle cx="3" cy="7" r="1"/>
<circle cx="7" cy="7" r="1"/>
<circle cx="11" cy="7" r="1"/>
<circle cx="15" cy="7" r="1"/>
<circle cx="19" cy="11" r="1"/>
<circle cx="19" cy="7" r="1"/>
<circle cx="19" cy="15" r="1"/>
<path d="M45,6H21.587c0.62,0.574,1.146,1.247,1.544,2H45c0.552,0,1,0.448,1,1v3h2V9C48,7.346,46.654,6,45,6z"/>
</svg>