<?xml version="1.0" encoding="iso-8859-1"?><!-- Generator: Adobe Illustrator 23.0.3, SVG Export Plug-In . SVG Version: 6.00 Build 0)  --><svg xmlns="http://www.w3.org/2000/svg" xmlns:xlink="http://www.w3.org/1999/xlink" viewBox="0 0 50 50" width="500px" height="500px"><g><g><path style="fill:none;stroke:#000000;stroke-width:2;stroke-linecap:round;stroke-miterlimit:10;" d="M48.62,30.152L43.545,35L40,34l-1-3.546l4.847-5.075C43.108,25.136,42.321,25,41.5,25c-4.142,0-7.5,3.358-7.5,7.5c0,1.105,0.245,2.15,0.674,3.095l-8.902,8.901c-1.03,1.03-1.03,2.701,0,3.731c1.03,1.03,2.701,1.03,3.731,0l8.901-8.902C39.35,39.755,40.395,40,41.5,40c4.142,0,7.5-3.358,7.5-7.5C49,31.679,48.864,30.891,48.62,30.152z"/></g></g><g><path d="M5,34V12c0-1.141,0.859-2,2-2h36c1.141,0,2,0.859,2,2v10.452c0.705,0.25,1.374,0.571,2,0.958V12c0-2.243-1.757-4-4-4H7c-2.243,0-4,1.757-4,4v22c0,0.738,0.205,1.413,0.539,2H1c-0.553,0-1,0.447-1,1c0,2.757,2.243,5,5,5h18.896l2-2H5c-1.304,0-2.416-0.836-2.829-2H7h20.896l2-2H7C5.859,36,5,35.141,5,34z"/></g></svg>