<?xml version="1.0" encoding="iso-8859-1"?><!-- Generator: Adobe Illustrator 21.1.0, SVG Export Plug-In . SVG Version: 6.00 Build 0)  --><svg xmlns="http://www.w3.org/2000/svg" xmlns:xlink="http://www.w3.org/1999/xlink" viewBox="0 0 50 50" width="50px" height="50px"><path d="M45.154,6H4.846C3.276,6,2,7.276,2,8.846V18h46V8.846C48,7.276,46.724,6,45.154,6z M8,14c-1.104,0-2-0.896-2-2c0-1.105,0.896-2,2-2s2,0.895,2,2C10,13.104,9.104,14,8,14z M14,14c-1.104,0-2-0.896-2-2c0-1.105,0.896-2,2-2s2,0.895,2,2C16,13.104,15.104,14,14,14z M43,14H19v-4h24V14z"/><path d="M24,38c0-7.732,6.268-14,14-14c3.92,0,7.459,1.615,10,4.211V20H2v23c0,0.553,0.447,1,1,1h22.365C24.499,42.179,24,40.15,24,38z"/><circle style="fill:none;stroke:#000000;stroke-width:2;stroke-miterlimit:10;" cx="38" cy="38" r="11"/><ellipse style="fill:none;stroke:#000000;stroke-width:2;stroke-miterlimit:10;" cx="38" cy="38" rx="4" ry="11"/><line style="fill:none;stroke:#000000;stroke-width:2;stroke-miterlimit:10;" x1="27" y1="38" x2="49" y2="38"/><line style="fill:none;stroke:#000000;stroke-width:2;stroke-miterlimit:10;" x1="28.224" y1="33" x2="47.776" y2="33"/><line style="fill:none;stroke:#000000;stroke-width:2;stroke-miterlimit:10;" x1="28.224" y1="43" x2="47.776" y2="43"/></svg>