<?xml version="1.0" encoding="iso-8859-1"?><!-- Generator: Adobe Illustrator 19.1.1, SVG Export Plug-In . SVG Version: 6.00 Build 0)  --><svg xmlns="http://www.w3.org/2000/svg" xmlns:xlink="http://www.w3.org/1999/xlink" viewBox="1 -1 50 50" width="50px" height="50px"><path d="M14,41c-0.529,0-1.038-0.21-1.414-0.586l-11-11c-0.781-0.781-0.781-2.047,0-2.828c0.78-0.781,2.048-0.781,2.828,0l9.446,9.446L36.459,8.725c0.704-0.852,1.966-0.97,2.816-0.266c0.851,0.705,0.97,1.965,0.266,2.816l-24,29c-0.359,0.434-0.884,0.696-1.447,0.723C14.063,40.999,14.031,41,14,41z M25.094,40.998c0.563-0.026,1.087-0.289,1.447-0.723l24-29c0.704-0.851,0.585-2.111-0.266-2.816c-0.851-0.704-2.112-0.585-2.816,0.266L24.86,36.032l-0.446-0.446c-0.78-0.781-2.048-0.781-2.828,0c-0.781,0.781-0.781,2.047,0,2.828l2,2C23.962,40.79,24.471,41,25,41C25.031,41,25.063,40.999,25.094,40.998z"/></svg>