<?xml version="1.0" encoding="iso-8859-1"?>
<!-- Generator: Adobe Illustrator 21.1.0, SVG Export Plug-In . SVG Version: 6.00 Build 0)  -->
<svg version="1.1" id="Layer_1" xmlns="http://www.w3.org/2000/svg" xmlns:xlink="http://www.w3.org/1999/xlink" x="0px" y="0px"
	 viewBox="0 0 50 50" style="enable-background:new 0 0 50 50;" xml:space="preserve">
<g style="display:none;">
	<g style="display:inline;">
		<g>
			<g>
			</g>
		</g>
	</g>
</g>
<circle cx="37.5" cy="17.5" r="1.5"/>
<path d="M48.821,32.71l-6.855-19.243c-0.276-0.773-0.834-1.389-1.571-1.732c-0.725-0.338-1.538-0.371-2.289-0.093L7.971,22.848
	c-1.548,0.575-2.352,2.323-1.792,3.897l6.855,19.243c0.276,0.773,0.834,1.389,1.571,1.732c0.399,0.187,0.825,0.28,1.253,0.28
	c0.349,0,0.699-0.063,1.036-0.188l30.135-11.206C48.577,36.032,49.381,34.284,48.821,32.71z M46.332,34.732l-5.535,2.058
	l-7.699-21.153l5.705-2.122c0.109-0.041,0.224-0.062,0.338-0.062c0.14,0,0.278,0.031,0.409,0.092
	c0.248,0.115,0.437,0.326,0.531,0.592l6.855,19.242C47.132,33.93,46.86,34.536,46.332,34.732z"/>
<path d="M7.274,20.973L31.404,12H8c-1.654,0-3,1.346-3,3v7.699C5.56,21.937,6.332,21.323,7.274,20.973z"/>
<path d="M5,29.396V36c0,1.654,1.346,3,3,3h0.421L5,29.396z"/>
<path d="M8,10h23.404h1.408L11.866,2.188c-0.749-0.279-1.56-0.245-2.282,0.09c-0.737,0.344-1.295,0.96-1.571,1.735l-2.34,6.589
	C6.371,10.23,7.155,10,8,10z"/>
<path d="M3,22.699v-4.572l-1.821,5.128c-0.559,1.572,0.242,3.32,1.787,3.896L3,27.164V22.699z"/>
</svg>