<?xml version="1.0" encoding="iso-8859-1"?><!-- Generator: Adobe Illustrator 23.0.3, SVG Export Plug-In . SVG Version: 6.00 Build 0)  --><svg xmlns="http://www.w3.org/2000/svg" xmlns:xlink="http://www.w3.org/1999/xlink" viewBox="0 0 50 50" width="50px" height="50px"><path d="M21,3C11.626,3,4,10.626,4,20s7.626,17,17,17s17-7.626,17-17S30.374,3,21,3z M13,16c0-1.105,0.895-2,2-2s2,0.895,2,2c0,1.105-0.895,2-2,2S13,17.105,13,16z M26.674,26.738C26.482,26.914,26.241,27,26,27c-0.271,0-0.542-0.109-0.739-0.326C25.201,26.61,23.665,25,21,25c-2.702,0-4.246,1.657-4.261,1.674c-0.371,0.409-1.004,0.439-1.413,0.064c-0.408-0.372-0.437-1.005-0.064-1.412C15.348,25.23,17.425,23,21,23s5.652,2.23,5.739,2.326C27.111,25.733,27.082,26.366,26.674,26.738z M27,18c-1.105,0-2-0.895-2-2c0-1.105,0.895-2,2-2s2,0.895,2,2C29,17.105,28.105,18,27,18z"/><line style="fill:none;stroke:#000000;stroke-width:4;stroke-miterlimit:10;" x1="32.229" y1="32.229" x2="45.5" y2="45.5"/></svg>