<?xml version="1.0" encoding="utf-8"?><!-- Generator: Adobe Illustrator 19.1.1, SVG Export Plug-In . SVG Version: 6.00 Build 0)  --><svg xmlns="http://www.w3.org/2000/svg" xmlns:xlink="http://www.w3.org/1999/xlink" viewBox="0 0 50 50" width="50px" height="50px"><line fill="none" stroke="#000000" stroke-width="2" stroke-linecap="round" stroke-linejoin="round" stroke-miterlimit="10" x1="25" y1="47" x2="25" y2="42"/><line fill="none" stroke="#000000" stroke-width="2" stroke-linecap="round" stroke-linejoin="round" stroke-miterlimit="10" x1="25" y1="32" x2="25" y2="3"/><path d="M28,39h-6c-1.7,0-3-1.3-3-3v-2c0-1.7,1.3-3,3-3h6c1.7,0,3,1.3,3,3v2C31,37.7,29.7,39,28,39z"/><line fill="none" stroke="#000000" stroke-width="2" stroke-linecap="round" stroke-linejoin="round" stroke-miterlimit="10" x1="42" y1="14" x2="42" y2="3"/><path d="M45,21h-6c-1.7,0-3-1.3-3-3v-2c0-1.7,1.3-3,3-3h6c1.7,0,3,1.3,3,3v2C48,19.7,46.7,21,45,21z"/><line fill="none" stroke="#000000" stroke-width="2" stroke-linecap="round" stroke-linejoin="round" stroke-miterlimit="10" x1="8" y1="47" x2="8" y2="26"/><line fill="none" stroke="#000000" stroke-width="2" stroke-linejoin="round" stroke-miterlimit="10" x1="8" y1="40" x2="8" y2="19"/><line fill="none" stroke="#000000" stroke-width="2" stroke-linecap="round" stroke-linejoin="round" stroke-miterlimit="10" x1="42" y1="47" x2="42" y2="29"/><line fill="none" stroke="#000000" stroke-width="2" stroke-linejoin="round" stroke-miterlimit="10" x1="42" y1="43" x2="42" y2="22"/><line fill="none" stroke="#000000" stroke-width="2" stroke-linejoin="round" stroke-miterlimit="10" x1="25" y1="44" x2="25" y2="40"/><line fill="none" stroke="#000000" stroke-width="2" stroke-linecap="round" stroke-linejoin="round" stroke-miterlimit="10" x1="8" y1="11" x2="8" y2="3"/><path d="M11,18H5c-1.7,0-3-1.3-3-3v-2c0-1.7,1.3-3,3-3h6c1.7,0,3,1.3,3,3v2C14,16.7,12.7,18,11,18z"/></svg>