<?xml version="1.0" encoding="iso-8859-1"?><!-- Generator: Adobe Illustrator 21.1.0, SVG Export Plug-In . SVG Version: 6.00 Build 0)  --><svg xmlns="http://www.w3.org/2000/svg" xmlns:xlink="http://www.w3.org/1999/xlink" viewBox="0 0 50 50" width="500px" height="500px"><path style="fill:none;stroke:#000000;stroke-width:2;stroke-miterlimit:10;" d="M46.276,23.384l-2.278-0.57c-0.217-1.907-0.712-3.729-1.448-5.423l1.684-1.629c0.316-0.305,0.383-0.785,0.164-1.166l-0.688-1.192c-0.219-0.38-0.67-0.562-1.091-0.441l-2.271,0.649c-1.12-1.507-2.453-2.839-3.959-3.959l0.649-2.271c0.121-0.422-0.061-0.872-0.441-1.091l-1.192-0.688c-0.38-0.219-0.861-0.152-1.166,0.164L32.61,7.452c-1.695-0.736-3.516-1.231-5.423-1.448l-0.57-2.278C26.509,3.298,26.127,3,25.688,3h-1.375c-0.439,0-0.822,0.298-0.928,0.724l-0.57,2.279c-1.907,0.217-3.729,0.712-5.423,1.448l-1.629-1.684c-0.305-0.316-0.785-0.383-1.166-0.164l-1.192,0.688c-0.38,0.219-0.562,0.67-0.441,1.091l0.649,2.271c-1.507,1.12-2.839,2.453-3.959,3.959l-2.271-0.649c-0.422-0.121-0.872,0.061-1.091,0.441l-0.688,1.192c-0.219,0.38-0.152,0.861,0.164,1.166l1.684,1.629c-0.737,1.695-1.231,3.516-1.448,5.423l-2.278,0.57C3.298,23.491,3,23.873,3,24.312v1.375c0,0.439,0.298,0.822,0.724,0.928l2.278,0.57c0.217,1.907,0.712,3.729,1.448,5.423l-1.684,1.629c-0.316,0.305-0.383,0.786-0.164,1.166l0.688,1.192c0.219,0.38,0.67,0.562,1.091,0.441l2.271-0.649c1.12,1.507,2.453,2.839,3.959,3.959l-0.649,2.271c-0.121,0.422,0.061,0.872,0.441,1.091l1.192,0.688c0.38,0.219,0.861,0.152,1.166-0.164l1.629-1.684c1.695,0.736,3.516,1.231,5.423,1.448l0.57,2.278C23.491,46.702,23.873,47,24.312,47h1.375c0.439,0,0.822-0.298,0.928-0.725l0.57-2.278c1.907-0.217,3.729-0.713,5.423-1.448l1.629,1.684c0.305,0.316,0.785,0.383,1.166,0.164l1.192-0.688c0.38-0.219,0.562-0.67,0.441-1.091l-0.649-2.271c1.507-1.12,2.839-2.453,3.959-3.959l2.271,0.649c0.422,0.121,0.872-0.061,1.091-0.441l0.688-1.192c0.219-0.38,0.152-0.861-0.164-1.166l-1.684-1.629c0.736-1.695,1.231-3.516,1.448-5.423l2.278-0.57C46.702,26.509,47,26.127,47,25.688v-1.375C47,23.873,46.702,23.491,46.276,23.384z"/><path style="fill:none;stroke:#000000;stroke-width:2;stroke-miterlimit:10;" d="M38,25c0,1.654-0.321,3.23-0.884,4.685l-6.22-3.591C30.961,25.739,31,25.374,31,25s-0.039-0.739-0.104-1.094l6.22-3.591C37.679,21.77,38,23.346,38,25z"/><path style="fill:none;stroke:#000000;stroke-width:2;stroke-miterlimit:10;" d="M12,25c0-1.654,0.321-3.23,0.884-4.685l6.22,3.591C19.039,24.261,19,24.626,19,25s0.039,0.739,0.104,1.094l-6.22,3.591C12.321,28.23,12,26.654,12,25z"/><path style="fill:none;stroke:#000000;stroke-width:2;stroke-miterlimit:10;" d="M23,19.349c-0.701,0.248-1.342,0.619-1.895,1.093l-6.224-3.593c1.986-2.462,4.852-4.173,8.119-4.679V19.349z"/><path style="fill:none;stroke:#000000;stroke-width:2;stroke-miterlimit:10;" d="M21.105,29.558c0.554,0.474,1.195,0.845,1.895,1.093v7.179c-3.268-0.506-6.133-2.217-8.119-4.679L21.105,29.558z"/><path style="fill:none;stroke:#000000;stroke-width:2;stroke-miterlimit:10;" d="M27,30.651c0.701-0.248,1.342-0.619,1.895-1.093l6.224,3.593c-1.986,2.462-4.852,4.173-8.119,4.679V30.651z"/><path style="fill:none;stroke:#000000;stroke-width:2;stroke-miterlimit:10;" d="M28.895,20.442C28.341,19.968,27.7,19.597,27,19.349V12.17c3.268,0.506,6.133,2.217,8.119,4.679L28.895,20.442z"/></svg>