<?xml version="1.0" encoding="iso-8859-1"?><!-- Generator: Adobe Illustrator 19.1.0, SVG Export Plug-In . SVG Version: 6.00 Build 0)  --><svg xmlns="http://www.w3.org/2000/svg" xmlns:xlink="http://www.w3.org/1999/xlink" viewBox="0 0 50 50" width="500px" height="500px"><line style="fill:none;stroke:#000000;stroke-width:2;stroke-linecap:round;stroke-linejoin:round;stroke-miterlimit:10;" x1="5" y1="5" x2="45" y2="45"/><g><path d="M27.588,31.726l-6.483,10.13l2.874-13.65c0.006-0.031-0.005-0.06-0.001-0.091L22.862,27h-7.973l3.227-4.746l-1.44-1.44l-4.504,6.623c-0.208,0.307-0.23,0.703-0.057,1.03C12.29,28.795,12.629,29,13,29h8.768l-3.746,17.794c-0.1,0.473,0.153,0.949,0.6,1.131C18.745,47.976,18.873,48,19,48c0.333,0,0.654-0.167,0.843-0.461l9.194-14.365L27.588,31.726z"/><path d="M19.261,20.571l8.717-12.818l-2.956,14.042c-0.062,0.295,0.012,0.602,0.202,0.836C25.414,22.864,25.699,23,26,23h7.173l-4.481,7.001l1.448,1.448l5.703-8.91c0.197-0.308,0.21-0.699,0.035-1.019C35.702,21.199,35.365,21,35,21h-7.768l3.746-17.794c0.099-0.467-0.147-0.939-0.587-1.126c-0.439-0.188-0.95-0.038-1.219,0.357L17.821,19.131L19.261,20.571z"/></g></svg>