<?xml version="1.0" encoding="iso-8859-1"?>
<!-- Generator: Adobe Illustrator 24.0.0, SVG Export Plug-In . SVG Version: 6.00 Build 0)  -->
<svg version="1.1" id="Layer_1" xmlns="http://www.w3.org/2000/svg" xmlns:xlink="http://www.w3.org/1999/xlink" x="0px" y="0px"
	 viewBox="0 0 50 50" style="enable-background:new 0 0 50 50;" xml:space="preserve">
<circle style="fill:none;stroke:#000000;stroke-width:2;stroke-miterlimit:10;" cx="25" cy="25" r="22"/>
<circle style="fill:none;stroke:#000000;stroke-width:2;stroke-miterlimit:10;" cx="25" cy="23" r="3"/>
<path d="M27.185,25.057L37,19l-11.921,0.839c0,0,2.09-0.006,2.732,2.096S27.185,25.057,27.185,25.057z"/>
<path d="M46.91,24H39c-0.552,0-1-0.448-1-1l0,0c0-0.552,0.448-1,1-1h7.91V24z"/>
<path d="M11,24H3.09v-2H11c0.552,0,1,0.448,1,1l0,0C12,23.552,11.552,24,11,24z"/>
<path d="M35.51,15.36L35.51,15.36c-0.325-0.447-0.226-1.072,0.221-1.397l5.481-3.982l1.176,1.618l-5.481,3.982
	C36.46,15.906,35.835,15.807,35.51,15.36z"/>
<path d="M29.02,10.64L29.02,10.64c-0.525-0.17-0.813-0.734-0.643-1.26l1.881-5.799l1.902,0.617l-1.88,5.8
	C30.109,10.523,29.545,10.811,29.02,10.64z"/>
<path d="M19.72,9.998l-1.881-5.799l1.902-0.617l1.881,5.799c0.17,0.525-0.117,1.089-0.643,1.26l0,0
	C20.455,10.811,19.891,10.523,19.72,9.998z"/>
<path d="M13.093,15.581l-5.481-3.982l1.176-1.618l5.481,3.982c0.447,0.325,0.546,0.95,0.221,1.397l0,0
	C14.165,15.807,13.54,15.906,13.093,15.581z"/>
<path d="M19,40c0.828,0,0.612-0.398,0.798-1.205c0.046-0.202-0.016-0.435-0.136-0.67C19.183,37.184,19,37,18,37c-2,0-3,1-3,2
	S17,40,19,40z"/>
<path style="fill:none;stroke:#000000;stroke-width:2;stroke-linecap:round;stroke-linejoin:round;stroke-miterlimit:10;" d="
	M26,39.98c4.14-0.26,5-1.98,5-1.98c1,0,3,0.1,3-1s-1-4-3-4s-2.5,1.41-3,2c0,0-1.4,0-3,0c-1.38,0-3.63,0.34-4.54,0.88
	C19.56,36.42,19,37.17,19,38c-0.005,0.069-0.008,0.459-0.009,0.992c-0.003,2.211,1.789,4.008,4,4.008H29v-1c0-1.1-0.9-2-2-2h-1.05
	c0,0,0-0.01-0.01-0.02H26"/>
<path style="fill:none;stroke:#000000;stroke-width:2;stroke-linecap:round;stroke-linejoin:round;stroke-miterlimit:10;" d="
	M26,39.98c0,0.01,0,0.01,0,0.02h-0.05c0,0,0-0.01-0.01-0.02H26z"/>
<line style="fill:none;stroke:#000000;stroke-width:2;stroke-linecap:round;stroke-linejoin:round;stroke-miterlimit:10;" x1="19" y1="30" x2="15" y2="30"/>
<line style="fill:none;stroke:#000000;stroke-width:2;stroke-linecap:round;stroke-linejoin:round;stroke-miterlimit:10;" x1="16" y1="34" x2="12" y2="34"/>
<path d="M30.143,33.514c-0.051-0.036-0.303-0.284-0.513-0.407c-0.222-0.15-0.471-0.283-0.73-0.401
	c-0.52-0.237-1.094-0.406-1.689-0.518c-0.589-0.126-1.209-0.175-1.826-0.215C24.761,31.952,24.131,31.966,23.5,32l-0.021,0.001
	c-0.829,0.044-1.537-0.592-1.582-1.421c-0.044-0.829,0.592-1.537,1.421-1.582c0.058-0.003,0.125-0.002,0.182,0.001
	c0.729,0.049,1.458,0.124,2.187,0.24c0.731,0.136,1.459,0.289,2.18,0.536c0.719,0.233,1.431,0.538,2.106,0.953
	c0.337,0.208,0.665,0.439,0.976,0.712c0.325,0.294,0.575,0.519,0.909,1.044c0.282,0.443,0.151,1.03-0.292,1.312
	c-0.335,0.213-0.753,0.19-1.058-0.025L30.143,33.514z"/>
</svg>