<?xml version="1.0" encoding="utf-8"?><!-- Generator: Adobe Illustrator 18.0.0, SVG Export Plug-In . SVG Version: 6.00 Build 0)  --><!DOCTYPE svg PUBLIC "-//W3C//DTD SVG 1.0//EN" "http://www.w3.org/TR/2001/REC-SVG-20010904/DTD/svg10.dtd"><svg xmlns="http://www.w3.org/2000/svg" xmlns:xlink="http://www.w3.org/1999/xlink" viewBox="0 0 50 50" width="500px" height="500px"><path fill="none" stroke="#000000" stroke-width="2" stroke-linecap="round" stroke-linejoin="round" stroke-miterlimit="10" d="M22,23h16l8,7v-7c1.7,0,3-1.3,3-3V4c0-1.7-1.3-3-3-3H22c-1.7,0-3,1.3-3,3v16C19,21.7,20.3,23,22,23z"/><path fill="none" stroke="#000000" stroke-width="2" stroke-linejoin="round" stroke-miterlimit="10" d="M31,25v14c0,1.7-1.3,3-3,3H12l-8,7v-7c-1.7,0-3-1.3-3-3V23c0-1.7,1.3-3,3-3h13"/><path d="M32.9,14.6l-0.6,3h-1.8L33,6.1h2.1l2.4,11.5h-1.8l-0.6-3H32.9z M35,13.2l-0.5-2.6c-0.2-0.7-0.3-1.8-0.4-2.6H34c-0.1,0.8-0.3,1.9-0.4,2.6l-0.5,2.6H35z"/><path d="M18.7,38.3c-0.9-0.4-2.1-1-2.8-1.4c-0.2-0.1-0.4-0.2-0.5-0.2c-2.1,0-3.4-2-3.4-5.9c0-3.4,1.3-5.8,3.6-5.8c2.4,0,3.3,2.6,3.3,5.7c0,3-0.7,4.7-1.8,5.3v0.1c0.7,0.3,1.5,0.6,2.2,0.8L18.7,38.3z M15.5,35.1c1.1,0,1.5-2,1.5-4.4c0-2.2-0.4-4.2-1.5-4.2c-1.2,0-1.6,2.1-1.6,4.2C13.9,33.1,14.3,35.1,15.5,35.1L15.5,35.1z"/></svg>