<?xml version="1.0" encoding="utf-8"?><!-- Generator: Adobe Illustrator 15.0.0, SVG Export Plug-In . SVG Version: 6.00 Build 0)  --><!DOCTYPE svg PUBLIC "-//W3C//DTD SVG 1.1//EN" "http://www.w3.org/Graphics/SVG/1.1/DTD/svg11.dtd"><svg xmlns="http://www.w3.org/2000/svg" xmlns:xlink="http://www.w3.org/1999/xlink" viewBox="0 0 50 50" width="50px" height="50px"><path d="M47,0H13c-1.654,0-3,1.346-3,3v21h20.529l-9.182-9.183c-0.391-0.391-0.391-1.023,0-1.414s1.023-0.391,1.414,0L34.357,25L22.76,36.598c-0.195,0.195-0.451,0.293-0.707,0.293s-0.512-0.098-0.707-0.293c-0.391-0.391-0.391-1.023,0-1.414L30.529,26H10v21c0,1.654,1.346,3,3,3h34c1.654,0,3-1.346,3-3V3C50,1.346,48.654,0,47,0z"/><path d="M1,24c-0.552,0-1,0.448-1,1s0.448,1,1,1h9v-2H1z"/></svg>