<?xml version="1.0" encoding="utf-8"?><!-- Generator: Adobe Illustrator 15.0.0, SVG Export Plug-In . SVG Version: 6.00 Build 0)  --><!DOCTYPE svg PUBLIC "-//W3C//DTD SVG 1.1//EN" "http://www.w3.org/Graphics/SVG/1.1/DTD/svg11.dtd"><svg xmlns="http://www.w3.org/2000/svg" xmlns:xlink="http://www.w3.org/1999/xlink" viewBox="0 0 50 50" width="50px" height="50px"><path fill="none" stroke="#000000" stroke-width="2" stroke-linecap="round" stroke-miterlimit="10" d="M19,8V5c0-1.1,0.9-2,2-2h8c1.1,0,2,0.9,2,2v3"/><line fill="none" stroke="#000000" stroke-width="2" stroke-linecap="round" stroke-miterlimit="10" x1="8" y1="8" x2="42" y2="8"/><path d="M9,8v37c0,1.654,1.346,3,3,3h26c1.654,0,3-1.346,3-3V8H9z M20,40c0,0.553-0.448,1-1,1s-1-0.447-1-1V15c0-0.552,0.448-1,1-1s1,0.448,1,1V40z M26,40c0,0.553-0.448,1-1,1s-1-0.447-1-1V15c0-0.552,0.448-1,1-1s1,0.448,1,1V40z M32,40c0,0.553-0.447,1-1,1s-1-0.447-1-1V15c0-0.552,0.447-1,1-1s1,0.448,1,1V40z"/></svg>