<?xml version="1.0" encoding="iso-8859-1"?>
<!-- Generator: Adobe Illustrator 23.0.3, SVG Export Plug-In . SVG Version: 6.00 Build 0)  -->
<svg version="1.1" xmlns="http://www.w3.org/2000/svg" xmlns:xlink="http://www.w3.org/1999/xlink" x="0px" y="0px"
	 viewBox="0 0 50 50" style="enable-background:new 0 0 50 50;" xml:space="preserve">
<g id="Layer_1">
	<line style="fill:none;stroke:#000000;stroke-width:2;stroke-miterlimit:10;" x1="5" y1="14" x2="45" y2="14"/>
	<circle cx="8" cy="11" r="1"/>
	<circle cx="11" cy="11" r="1"/>
	<circle cx="14" cy="11" r="1"/>
	<path style="fill:none;stroke:#000000;stroke-width:2;stroke-linecap:round;stroke-miterlimit:10;" d="M39,49
		c3.857-0.442,6-4.145,6-7.74c0-1.743-0.687-2.777-1.389-3.128"/>
	<path d="M41.412,32.412c0,1.332-4.824,1.332-4.824,0C36.588,31.08,37.668,30,39,30S41.412,31.08,41.412,32.412z"/>
	<path style="fill:none;stroke:#000000;stroke-width:2.1072;stroke-linecap:round;stroke-miterlimit:10;" d="M44,36
		c0,2.092-1.135,3-5,3s-5-0.908-5-3s2.713-3,5-3S44,33.908,44,36z"/>
	<path style="fill:none;stroke:#000000;stroke-width:2;stroke-linecap:round;stroke-miterlimit:10;" d="M45,39c0,0,4,0,4-5"/>
	<path style="fill:none;stroke:#000000;stroke-width:2;stroke-linecap:round;stroke-miterlimit:10;" d="M45,45c0,0,4,0.25,4,4"/>
	<path style="fill:none;stroke:#000000;stroke-width:2.0359;stroke-linecap:round;stroke-miterlimit:10;" d="M45,42c0,0,1.609,0,4,0
		"/>
	<path style="fill:none;stroke:#000000;stroke-width:2;stroke-linecap:round;stroke-miterlimit:10;" d="M34.389,38.132
		C33.687,38.483,33,39.518,33,41.26c0,3.595,2.143,7.298,6,7.74"/>
	<path style="fill:none;stroke:#000000;stroke-width:2;stroke-linecap:round;stroke-miterlimit:10;" d="M29,34c0,5,4,5,4,5"/>
	<path style="fill:none;stroke:#000000;stroke-width:2;stroke-linecap:round;stroke-miterlimit:10;" d="M29,49c0-3.75,4-4,4-4"/>
	<path style="fill:none;stroke:#000000;stroke-width:2.0359;stroke-linecap:round;stroke-miterlimit:10;" d="M29,42c2.391,0,4,0,4,0
		"/>
	
		<line style="fill:none;stroke:#000000;stroke-width:2;stroke-linecap:round;stroke-miterlimit:10;" x1="39" y1="49" x2="39" y2="42"/>
	<path d="M25.982,42c0-0.351,0.067-0.686,0.178-1H7c-0.551,0-1-0.448-1-1V10c0-0.552,0.449-1,1-1h36c0.551,0,1,0.448,1,1v21.132
		c0.83,0.46,1.496,1.044,2,1.717V10c0-1.654-1.346-3-3-3H7c-1.654,0-3,1.346-3,3v30c0,1.654,1.346,3,3,3h19.159
		C26.048,42.686,25.982,42.351,25.982,42z"/>
</g>
<g id="Layer_2">
</g>
<g id="Layer_3">
</g>
</svg>