<?xml version="1.0" encoding="iso-8859-1"?><!-- Generator: Adobe Illustrator 23.0.3, SVG Export Plug-In . SVG Version: 6.00 Build 0)  --><svg xmlns="http://www.w3.org/2000/svg" xmlns:xlink="http://www.w3.org/1999/xlink" viewBox="0 0 50 50" width="500px" height="500px"><g><path d="M16.836,30.641l0.75,4.066l4.297-0.578L25,37l1.383-1.272v-0.002l1.734-1.597l4.297,0.578l0.75-4.066L37,28.707L35.094,25L37,21.289l-3.836-1.934l-0.75-4.066l-4.297,0.578L25,13l-3.117,2.871l-4.297-0.578l-0.75,4.066L13,21.293L14.906,25L13,28.707L16.836,30.641z M18.621,20.695l0.586-3.168l3.34,0.449L25,15.719v18.563l-2.457-2.257l0,0l-3.34,0.449l-0.582-3.168l-2.922-1.477L17.156,25l-1.412-2.745h-0.002l-0.043-0.083L18.621,20.695z"/><path d="M47,7H3C2.449,7,2,7.445,2,8v34c0,0.555,0.449,1,1,1h44c0.551,0,1-0.445,1-1V8C48,7.445,47.551,7,47,7z M46,41H4V9h42V41z"/></g></svg>