<?xml version="1.0" encoding="iso-8859-1"?><!-- Generator: Adobe Illustrator 23.0.3, SVG Export Plug-In . SVG Version: 6.00 Build 0)  --><svg xmlns="http://www.w3.org/2000/svg" xmlns:xlink="http://www.w3.org/1999/xlink" viewBox="0 0 50 50" width="50px" height="50px"><path d="M40,30c-5.514,0-10,4.486-10,10s4.486,10,10,10s10-4.486,10-10S45.514,30,40,30z M44.207,42.793c0.391,0.391,0.391,1.023,0,1.414C44.012,44.402,43.756,44.5,43.5,44.5s-0.512-0.098-0.707-0.293L40,41.414l-2.793,2.793C37.012,44.402,36.756,44.5,36.5,44.5s-0.512-0.098-0.707-0.293c-0.391-0.391-0.391-1.023,0-1.414L38.586,40l-2.793-2.793c-0.391-0.391-0.391-1.023,0-1.414s1.023-0.391,1.414,0L40,38.586l2.793-2.793c0.391-0.391,1.023-0.391,1.414,0s0.391,1.023,0,1.414L41.414,40L44.207,42.793z"/><line style="fill:none;stroke:#000000;stroke-width:2;stroke-linejoin:round;stroke-miterlimit:10;" x1="15" y1="21" x2="40" y2="21"/><line style="fill:none;stroke:#000000;stroke-width:2;stroke-linejoin:round;stroke-miterlimit:10;" x1="15" y1="28" x2="33" y2="28"/><line style="fill:none;stroke:#000000;stroke-width:2;stroke-linejoin:round;stroke-miterlimit:10;" x1="15" y1="35" x2="28" y2="35"/><g><circle cx="10" cy="21" r="1"/><circle cx="10" cy="28" r="1"/><circle cx="10" cy="35" r="1"/></g><path d="M28.393,43H5V13h40v16.102c0.707,0.325,1.375,0.715,2,1.165V7.8C47,6.256,45.744,5,44.2,5H5.8C4.256,5,3,6.256,3,7.8V44c0,0.553,0.448,1,1,1h25.102C28.808,44.361,28.572,43.693,28.393,43z"/></svg>