<?xml version="1.0" encoding="iso-8859-1"?><!-- Generator: Adobe Illustrator 22.1.0, SVG Export Plug-In . SVG Version: 6.00 Build 0)  --><svg xmlns="http://www.w3.org/2000/svg" xmlns:xlink="http://www.w3.org/1999/xlink" viewBox="0 0 50 50" width="50px" height="50px"><path d="M47,36h-5V5c0-0.553-0.448-1-1-1H5C4.448,4,4,4.447,4,5v36c0,0.553,0.448,1,1,1h31v5c0,1.71,1.29,3,3,3s3-1.29,3-3v-5h5c1.71,0,3-1.29,3-3S48.71,36,47,36z M31,6h8c0.552,0,1,0.447,1,1v8c0,0.553-0.448,1-1,1s-1-0.447-1-1V8h-7c-0.552,0-1-0.447-1-1S30.448,6,31,6z M39,22c-0.552,0-1-0.447-1-1v-2c0-0.553,0.448-1,1-1s1,0.447,1,1v2C40,21.553,39.552,22,39,22z M40,25v2c0,0.553-0.448,1-1,1s-1-0.447-1-1v-2c0-0.553,0.448-1,1-1S40,24.447,40,25z M6,19c0-0.553,0.448-1,1-1s1,0.447,1,1v2c0,0.553-0.448,1-1,1s-1-0.447-1-1V19z M6,25c0-0.553,0.448-1,1-1s1,0.447,1,1v2c0,0.553-0.448,1-1,1s-1-0.447-1-1V25z M15,40H7c-0.552,0-1-0.447-1-1v-8c0-0.553,0.448-1,1-1s1,0.447,1,1v7h7c0.552,0,1,0.447,1,1S15.552,40,15,40z M15,8H8v7c0,0.553-0.448,1-1,1s-1-0.447-1-1V7c0-0.553,0.448-1,1-1h8c0.552,0,1,0.447,1,1S15.552,8,15,8z M21,40h-2c-0.552,0-1-0.447-1-1s0.448-1,1-1h2c0.552,0,1,0.447,1,1S21.552,40,21,40z M21,8h-2c-0.552,0-1-0.447-1-1s0.448-1,1-1h2c0.552,0,1,0.447,1,1S21.552,8,21,8z M27,40h-2c-0.552,0-1-0.447-1-1s0.448-1,1-1h2c0.552,0,1,0.447,1,1S27.552,40,27,40z M27,8h-2c-0.552,0-1-0.447-1-1s0.448-1,1-1h2c0.552,0,1,0.447,1,1S27.552,8,27,8z M47,40h-7v7c0,0.6-0.4,1-1,1c-0.6,0-1-0.4-1-1v-7h-7c-0.6,0-1-0.4-1-1c0-0.6,0.4-1,1-1h7v-7c0-0.552,0.448-1,1-1s1,0.448,1,1c0,0.141,0,7,0,7h7c0.6,0,1,0.4,1,1C48,39.6,47.6,40,47,40z"/></svg>