<?xml version="1.0" encoding="iso-8859-1"?><!-- Generator: Adobe Illustrator 23.0.3, SVG Export Plug-In . SVG Version: 6.00 Build 0)  --><svg xmlns="http://www.w3.org/2000/svg" xmlns:xlink="http://www.w3.org/1999/xlink" viewBox="0 0 50 50" width="50px" height="50px"><path d="M43,7H7c-1.657,0-3,1.343-3,3v30c0,1.657,1.343,3,3,3h36c1.657,0,3-1.343,3-3V10C46,8.343,44.657,7,43,7z M42,10c0.552,0,1,0.448,1,1c0,0.552-0.448,1-1,1s-1-0.448-1-1C41,10.448,41.448,10,42,10z M39,10c0.552,0,1,0.448,1,1c0,0.552-0.448,1-1,1s-1-0.448-1-1C38,10.448,38.448,10,39,10z M36,10c0.552,0,1,0.448,1,1c0,0.552-0.448,1-1,1s-1-0.448-1-1C35,10.448,35.448,10,36,10z M44,40c0,0.552-0.448,1-1,1H7c-0.552,0-1-0.448-1-1V15h38V40z"/></svg>