<?xml version="1.0" encoding="utf-8"?><!-- Generator: Adobe Illustrator 15.0.0, SVG Export Plug-In . SVG Version: 6.00 Build 0)  --><!DOCTYPE svg PUBLIC "-//W3C//DTD SVG 1.1//EN" "http://www.w3.org/Graphics/SVG/1.1/DTD/svg11.dtd"><svg xmlns="http://www.w3.org/2000/svg" xmlns:xlink="http://www.w3.org/1999/xlink" viewBox="0 0 50 50" width="50px" height="50px"><line fill="none" stroke="#000000" stroke-width="2" stroke-linecap="round" stroke-linejoin="round" stroke-miterlimit="10" x1="5" y1="5" x2="45" y2="45"/><g><path d="M16.676,20.814l-4.504,6.624c-0.208,0.307-0.23,0.703-0.057,1.029C12.29,28.795,12.629,29,13,29h8.768l-3.746,17.794c-0.1,0.474,0.153,0.949,0.6,1.131C18.745,47.977,18.873,48,19,48c0.333,0,0.654-0.167,0.843-0.461l9.194-14.365L16.676,20.814z"/><path d="M30.141,31.449l5.702-8.91c0.197-0.308,0.21-0.699,0.035-1.019C35.702,21.199,35.365,21,35,21h-7.768l3.746-17.794c0.099-0.467-0.147-0.939-0.588-1.126c-0.438-0.188-0.949-0.038-1.219,0.357L17.821,19.131L30.141,31.449z"/></g></svg>