<?xml version="1.0" encoding="iso-8859-1"?><!-- Generator: Adobe Illustrator 21.1.0, SVG Export Plug-In . SVG Version: 6.00 Build 0)  --><svg xmlns="http://www.w3.org/2000/svg" xmlns:xlink="http://www.w3.org/1999/xlink" viewBox="0 0 50 50" width="500px" height="500px"><g></g><path style="fill:none;stroke:#000000;stroke-width:2;stroke-miterlimit:10;" d="M46,38v4c0,0.552-0.448,1-1,1h-4"/><path style="fill:none;stroke:#000000;stroke-width:2;stroke-miterlimit:10;" d="M9,43H5c-0.552,0-1-0.448-1-1v-4"/><path style="fill:none;stroke:#000000;stroke-width:2;stroke-miterlimit:10;" d="M4,12V8c0-0.552,0.448-1,1-1h4"/><polyline style="fill:none;stroke:#000000;stroke-width:2;stroke-linecap:round;stroke-linejoin:round;stroke-miterlimit:10;" points="41,31 34.5,27 27,31 18,19 9,31 "/><circle style="fill:none;stroke:#000000;stroke-width:2;stroke-linecap:round;stroke-miterlimit:10;" cx="32.5" cy="20.5" r="2.5"/><line style="fill:none;stroke:#000000;stroke-width:2;stroke-miterlimit:10;" x1="11" y1="7" x2="15" y2="7"/><line style="fill:none;stroke:#000000;stroke-width:2;stroke-miterlimit:10;" x1="17" y1="7" x2="21" y2="7"/><line style="fill:none;stroke:#000000;stroke-width:2;stroke-miterlimit:10;" x1="23" y1="7" x2="27" y2="7"/><line style="fill:none;stroke:#000000;stroke-width:2;stroke-miterlimit:10;" x1="29" y1="7" x2="33" y2="7"/><line style="fill:none;stroke:#000000;stroke-width:2;stroke-miterlimit:10;" x1="4" y1="36" x2="4" y2="32"/><line style="fill:none;stroke:#000000;stroke-width:2;stroke-miterlimit:10;" x1="4" y1="30" x2="4" y2="26"/><line style="fill:none;stroke:#000000;stroke-width:2;stroke-miterlimit:10;" x1="4" y1="24" x2="4" y2="20"/><line style="fill:none;stroke:#000000;stroke-width:2;stroke-miterlimit:10;" x1="4" y1="18" x2="4" y2="14"/><line style="fill:none;stroke:#000000;stroke-width:2;stroke-miterlimit:10;" x1="46" y1="36" x2="46" y2="32"/><line style="fill:none;stroke:#000000;stroke-width:2;stroke-miterlimit:10;" x1="46" y1="30" x2="46" y2="26"/><line style="fill:none;stroke:#000000;stroke-width:2;stroke-miterlimit:10;" x1="46" y1="24" x2="46" y2="20"/><line style="fill:none;stroke:#000000;stroke-width:2;stroke-miterlimit:10;" x1="46" y1="18" x2="46" y2="14"/><line style="fill:none;stroke:#000000;stroke-width:2;stroke-miterlimit:10;" x1="35" y1="7" x2="39" y2="7"/><line style="fill:none;stroke:#000000;stroke-width:2;stroke-miterlimit:10;" x1="11" y1="43" x2="15" y2="43"/><line style="fill:none;stroke:#000000;stroke-width:2;stroke-miterlimit:10;" x1="17" y1="43" x2="21" y2="43"/><line style="fill:none;stroke:#000000;stroke-width:2;stroke-miterlimit:10;" x1="23" y1="43" x2="27" y2="43"/><line style="fill:none;stroke:#000000;stroke-width:2;stroke-miterlimit:10;" x1="29" y1="43" x2="33" y2="43"/><line style="fill:none;stroke:#000000;stroke-width:2;stroke-miterlimit:10;" x1="35" y1="43" x2="39" y2="43"/><path style="fill:none;stroke:#000000;stroke-width:2;stroke-miterlimit:10;" d="M41,7h4c0.552,0,1,0.448,1,1v4"/></svg>