<?xml version="1.0" encoding="iso-8859-1"?>
<!-- Generator: Adobe Illustrator 24.0.0, SVG Export Plug-In . SVG Version: 6.00 Build 0)  -->
<svg version="1.1" id="Layer_1" xmlns="http://www.w3.org/2000/svg" xmlns:xlink="http://www.w3.org/1999/xlink" x="0px" y="0px"
	 viewBox="0 0 50 50" style="enable-background:new 0 0 50 50;" xml:space="preserve">
<circle cx="25" cy="23" r="2"/>
<path d="M31,35c-1.1,0-1.464,0.54-1.885,1.164c-0.125,0.184-0.239,0.35-0.352,0.482C28.573,36.871,28.294,37,28,37h-3
	c-1.404,0-3.4,0.367-4.03,0.74C20.355,38.109,20,38.569,20,39c-0.006,0.159-0.008,0.516-0.009,0.994
	c-0.001,0.802,0.311,1.558,0.879,2.126c0.567,0.568,1.32,0.88,2.121,0.88H28c0-0.551-0.449-1-1-1h-1.05
	c-0.395,0-0.736-0.229-0.899-0.562c-0.133-0.257-0.15-0.564-0.035-0.841c0.155-0.374,0.52-0.617,0.924-0.617v0.002
	c3.376-0.213,4.178-1.454,4.186-1.466C30.307,38.22,30.653,38,31,38l0.24,0.001c0.355,0.003,1.365,0.01,1.752-0.143
	C32.911,36.988,32.146,35,31,35z"/>
<path d="M47.97,24H40c-0.55,0-1-0.45-1-1s0.45-1,1-1h7.8c-0.54-4.11-2.16-7.88-4.58-11.01l-5.5,4c-0.18,0.13-0.39,0.19-0.59,0.19
	c-0.31,0-0.61-0.14-0.81-0.41c-0.32-0.45-0.22-1.07,0.22-1.4l5.39-3.92c-2.56-2.79-5.81-4.94-9.46-6.2l-1.89,5.8
	c-0.14,0.42-0.53,0.69-0.95,0.69c-0.1,0-0.21-0.02-0.31-0.05c-0.52-0.17-0.81-0.73-0.64-1.26l1.87-5.75C28.77,2.24,26.91,2,25,2
	s-3.77,0.24-5.55,0.68l1.87,5.75c0.17,0.53-0.12,1.09-0.64,1.26c-0.1,0.03-0.21,0.05-0.31,0.05c-0.42,0-0.81-0.27-0.95-0.69
	l-1.89-5.8c-3.65,1.26-6.9,3.41-9.46,6.2l5.39,3.92c0.44,0.33,0.54,0.95,0.22,1.4c-0.2,0.27-0.5,0.41-0.81,0.41
	c-0.2,0-0.41-0.06-0.59-0.19l-5.5-4C4.36,14.12,2.74,17.89,2.2,22H10c0.55,0,1,0.45,1,1s-0.45,1-1,1H2.03C2.01,24.33,2,24.66,2,25
	c0,12.68,10.32,23,23,23s23-10.32,23-23C48,24.66,47.99,24.33,47.97,24z M15,30h4c0.55,0,1,0.45,1,1s-0.45,1-1,1h-4
	c-0.55,0-1-0.45-1-1S14.45,30,15,30z M11,35c0-0.55,0.45-1,1-1h4c0.55,0,1,0.45,1,1s-0.45,1-1,1h-4C11.45,36,11,35.55,11,35z
	 M34.49,39.23c-0.72,0.73-2.02,0.76-3,0.77c-0.36,0.38-0.98,0.89-2.02,1.29C29.8,41.78,30,42.37,30,43v1c0,0.55-0.45,1-1,1h-6.01
	c-1.33,0-2.59-0.52-3.53-1.47c-0.71-0.7-1.18-1.58-1.37-2.54C16.44,40.98,15,40.85,15,40c0-1,1-2,3-2c0.07,0,0.12,0,0.18,0.01
	c0.28-0.75,0.88-1.46,1.77-1.99C21.12,35.32,23.66,35,25,35h2.49c0.26-0.39,0.65-0.93,1.26-1.35c-0.48-0.2-1-0.36-1.54-0.46
	c-0.59-0.13-1.21-0.18-1.82-0.22c-0.63-0.02-1.26,0-1.89,0.03h-0.02c-0.83,0.05-1.54-0.59-1.58-1.42c-0.05-0.83,0.59-1.54,1.42-1.58
	h0.18c0.73,0.05,1.46,0.12,2.19,0.24c0.73,0.14,1.46,0.29,2.18,0.54c0.72,0.23,1.43,0.53,2.1,0.95c0.34,0.21,0.67,0.44,0.98,0.71
	c0.21,0.2,0.4,0.37,0.59,0.61C33.96,33.47,35,36.67,35,38C35,38.48,34.82,38.9,34.49,39.23z M28.86,24.02
	c-0.03,0.11-0.06,0.21-0.1,0.32c-0.2,0.59-0.54,1.1-0.97,1.52c-0.07,0.08-0.16,0.16-0.25,0.23c-0.1,0.08-0.2,0.16-0.31,0.23
	c-0.1,0.07-0.2,0.13-0.31,0.19c-0.11,0.06-0.24,0.12-0.37,0.17c-0.11,0.05-0.22,0.1-0.34,0.13c-0.26,0.09-0.52,0.14-0.8,0.17
	C25.28,26.99,25.14,27,25,27s-0.28-0.01-0.41-0.02c-0.28-0.03-0.54-0.08-0.8-0.17c-0.12-0.03-0.23-0.08-0.34-0.13
	c-0.13-0.05-0.26-0.11-0.37-0.17s-0.21-0.12-0.31-0.19c-0.11-0.07-0.21-0.15-0.31-0.23c-0.09-0.07-0.18-0.15-0.25-0.23
	c-0.43-0.42-0.77-0.93-0.97-1.52c-0.04-0.11-0.07-0.21-0.1-0.32C21.05,23.69,21,23.35,21,23c0-1.38,0.69-2.59,1.76-3.31
	c0.08-0.06,0.16-0.11,0.25-0.15c0.06-0.04,0.12-0.07,0.18-0.1c0.08-0.05,0.17-0.09,0.26-0.12c0.12-0.05,0.24-0.1,0.36-0.14
	C24.19,19.06,24.59,19,25,19s0.81,0.06,1.19,0.18c0.12,0.04,0.24,0.09,0.36,0.14c0.09,0.03,0.18,0.07,0.26,0.12
	c0.06,0.03,0.12,0.06,0.18,0.1c0.09,0.04,0.17,0.09,0.25,0.15L37,19L28.86,24.02z"/>
</svg>