<?xml version="1.0" encoding="iso-8859-1"?><!-- Generator: Adobe Illustrator 20.1.0, SVG Export Plug-In . SVG Version: 6.00 Build 0)  --><svg xmlns="http://www.w3.org/2000/svg" xmlns:xlink="http://www.w3.org/1999/xlink" viewBox="0 0 50 50" width="500px" height="500px"><g><path d="M30.85,34.993C28.968,35.609,27.004,36,25,36c-9.537,0-18.318-8.545-20.645-11c1.316-1.391,4.704-4.735,9.128-7.374l-1.473-1.473c-5.651,3.467-9.508,7.891-9.769,8.195c-0.321,0.375-0.321,0.929,0,1.304C2.675,26.156,12.993,38,25,38c2.586,0,5.092-0.551,7.439-1.418L30.85,34.993z"/><path d="M47.759,24.348C47.325,23.844,37.008,12,25,12c-4.025,0-7.857,1.333-11.193,3.121l1.501,1.501C18.267,15.103,21.58,14,25,14c9.538,0,18.318,8.545,20.645,11c-1.656,1.75-6.591,6.578-12.742,9.216l1.536,1.536c7.537-3.46,13.007-9.737,13.32-10.101C48.08,25.277,48.08,24.723,47.759,24.348z"/></g><line style="fill:none;stroke:#000000;stroke-width:2;stroke-linecap:round;stroke-linejoin:round;stroke-miterlimit:10;" x1="6" y1="6" x2="44" y2="44"/><g><path d="M27.085,28.399C28.23,27.695,29,26.442,29,25c0-2.209-1.791-4-4-4c-1.442,0-2.695,0.77-3.399,1.915L27.085,28.399z"/><path d="M21.016,25.158c0.083,2.08,1.745,3.743,3.826,3.826L21.016,25.158z"/></g><g><path d="M16.6,17.914C18.619,15.524,21.633,14,25,14c6.065,0,11,4.935,11,11c0,3.367-1.524,6.381-3.914,8.4l1.413,1.414C36.25,32.429,38,28.918,38,25c0-7.168-5.832-13-13-13c-3.918,0-7.428,1.75-9.814,4.5L16.6,17.914z"/><path d="M30.419,34.561C28.817,35.472,26.971,36,25,36c-6.065,0-11-4.935-11-11c0-1.971,0.528-3.817,1.439-5.419l-1.454-1.454C12.735,20.124,12,22.475,12,25c0,7.168,5.832,13,13,13c2.525,0,4.875-0.735,6.872-1.985L30.419,34.561z"/></g></svg>