<?xml version="1.0" encoding="iso-8859-1"?><!-- Generator: Adobe Illustrator 21.1.0, SVG Export Plug-In . SVG Version: 6.00 Build 0)  --><svg xmlns="http://www.w3.org/2000/svg" xmlns:xlink="http://www.w3.org/1999/xlink" viewBox="0 0 50 50" width="50px" height="50px"><g></g><path d="M47,7H3C2.447,7,2,7.448,2,8v34c0,0.552,0.447,1,1,1h44c0.553,0,1-0.448,1-1V8C48,7.448,47.553,7,47,7z M9.707,26.293c0.391,0.391,0.391,1.023,0,1.414C9.512,27.902,9.256,28,9,28s-0.512-0.098-0.707-0.293l-2-2c-0.391-0.391-0.391-1.023,0-1.414l2-2c0.391-0.391,1.023-0.391,1.414,0s0.391,1.023,0,1.414L8.414,25L9.707,26.293z M27.707,36.707l-2,2C25.512,38.902,25.256,39,25,39s-0.512-0.098-0.707-0.293l-2-2c-0.391-0.391-0.391-1.023,0-1.414s1.023-0.391,1.414,0L25,36.586l1.293-1.293c0.391-0.391,1.023-0.391,1.414,0S28.098,36.316,27.707,36.707z M27.707,13.707C27.512,13.902,27.256,14,27,14s-0.512-0.098-0.707-0.293L25,12.414l-1.293,1.293c-0.391,0.391-1.023,0.391-1.414,0s-0.391-1.023,0-1.414l2-2c0.391-0.391,1.023-0.391,1.414,0l2,2C28.098,12.684,28.098,13.316,27.707,13.707z M43.707,25.707l-2,2C41.512,27.902,41.256,28,41,28s-0.512-0.098-0.707-0.293c-0.391-0.391-0.391-1.023,0-1.414L41.586,25l-1.293-1.293c-0.391-0.391-0.391-1.023,0-1.414s1.023-0.391,1.414,0l2,2C44.098,24.684,44.098,25.316,43.707,25.707z"/></svg>