<?xml version="1.0" encoding="utf-8"?><!-- Generator: Adobe Illustrator 15.0.0, SVG Export Plug-In . SVG Version: 6.00 Build 0)  --><!DOCTYPE svg PUBLIC "-//W3C//DTD SVG 1.1//EN" "http://www.w3.org/Graphics/SVG/1.1/DTD/svg11.dtd"><svg xmlns="http://www.w3.org/2000/svg" xmlns:xlink="http://www.w3.org/1999/xlink" viewBox="0 0 50 50" width="50px" height="50px"><path d="M46,9H4c-1.654,0-3,1.346-3,3v26c0,1.654,1.346,3,3,3h42c1.654,0,3-1.346,3-3V12C49,10.346,47.654,9,46,9z M18.868,33.182h-2.379V18.839H16.29l-4.266,3.059V19.46l4.477-3.188h2.367V33.182z M25.442,33.335c-0.914,0-1.629-0.715-1.629-1.617c0-0.913,0.715-1.629,1.629-1.629c0.926,0,1.628,0.716,1.628,1.629C27.07,32.62,26.368,33.335,25.442,33.335z M25.442,24.406c-0.914,0-1.629-0.727-1.629-1.629c0-0.914,0.715-1.629,1.629-1.629c0.926,0,1.628,0.715,1.628,1.629C27.07,23.679,26.368,24.406,25.442,24.406z M37.184,33.182h-2.379V18.839h-0.199l-4.266,3.059V19.46l4.477-3.188h2.367V33.182z"/></svg>