<?xml version="1.0" encoding="utf-8"?><!-- Generator: Adobe Illustrator 15.0.0, SVG Export Plug-In . SVG Version: 6.00 Build 0)  --><!DOCTYPE svg PUBLIC "-//W3C//DTD SVG 1.1//EN" "http://www.w3.org/Graphics/SVG/1.1/DTD/svg11.dtd"><svg xmlns="http://www.w3.org/2000/svg" xmlns:xlink="http://www.w3.org/1999/xlink" viewBox="0 0 50 50" width="50px" height="50px"><path d="M4,15v26.586L19.586,26H11v-2h12v12h-2v-8.586L5.414,43H9h34c1.7,0,3-1.3,3-3V15H4z"/><path d="M43,7H7c-1.7,0-3,1.3-3,3v3h42v-3C46,8.3,44.7,7,43,7z M8,11c-0.552,0-1-0.448-1-1s0.448-1,1-1s1,0.448,1,1S8.552,11,8,11z M11,11c-0.552,0-1-0.448-1-1s0.448-1,1-1s1,0.448,1,1S11.552,11,11,11z M14,11c-0.552,0-1-0.448-1-1s0.448-1,1-1s1,0.448,1,1S14.552,11,14,11z"/></svg>