<?xml version="1.0" encoding="iso-8859-1"?>
<!-- Generator: Adobe Illustrator 23.0.3, SVG Export Plug-In . SVG Version: 6.00 Build 0)  -->
<svg version="1.1" id="Layer_1" xmlns="http://www.w3.org/2000/svg" xmlns:xlink="http://www.w3.org/1999/xlink" x="0px" y="0px"
	 viewBox="0 0 50 50" style="enable-background:new 0 0 50 50;" xml:space="preserve">
<polyline style="fill:none;stroke:#000000;stroke-width:2;stroke-linecap:round;stroke-miterlimit:10;" points="34,13 44,13 44,3 
	"/>
<path style="fill:none;stroke:#000000;stroke-width:2;stroke-linecap:round;stroke-miterlimit:10;" d="M47,25c0,12.15-9.85,22-22,22
	S3,37.15,3,25S12.85,3,25,3c7.723,0,14.516,3.979,18.442,10"/>
<g id="IOS_copy_19_">
	<path d="M32.1,21H21v-1.8c0-2.3,1.8-4.2,4-4.2s4,1.9,4,4.2h2c0-3.4-2.7-6.2-6-6.2s-6,2.8-6,6.2V21h-1.1c-1.1,0-1.9,0.9-1.9,1.9V33
		c0,1.1,0.8,2,1.9,2h14.2c1,0,1.9-0.9,1.9-1.9V22.9C34,21.9,33.2,21,32.1,21z M32,33H18V23h14V33z M24.1,28.4
		c-0.3-0.3-0.5-0.6-0.5-1c0-0.8,0.6-1.4,1.4-1.4s1.4,0.6,1.4,1.4c0,0.4-0.2,0.8-0.5,1v1.3c0,0.5-0.4,0.9-0.9,0.9s-0.9-0.4-0.9-0.9
		V28.4z"/>
</g>
</svg>