<?xml version="1.0" encoding="iso-8859-1"?><!-- Generator: Adobe Illustrator 23.0.3, SVG Export Plug-In . SVG Version: 6.00 Build 0)  --><svg xmlns="http://www.w3.org/2000/svg" xmlns:xlink="http://www.w3.org/1999/xlink" viewBox="0 0 50 50" width="50px" height="50px"><path d="M43,7H7c-1.654,0-3,1.346-3,3v30c0,1.654,1.346,3,3,3h24.263l0.041-0.158L29.068,41H7c-0.551,0-1-0.449-1-1V15h38v18.905l2,0.119V10C46,8.346,44.654,7,43,7z M8,12c-0.552,0-1-0.448-1-1c0-0.552,0.448-1,1-1s1,0.448,1,1C9,11.552,8.552,12,8,12z M11,12c-0.552,0-1-0.448-1-1c0-0.552,0.448-1,1-1s1,0.448,1,1C12,11.552,11.552,12,11,12z M14,12c-0.552,0-1-0.448-1-1c0-0.552,0.448-1,1-1s1,0.448,1,1C15,11.552,14.552,12,14,12z"/><g id="IOS_copy_8_"><path d="M32.862,49.911c-0.2,0-0.4-0.1-0.6-0.2c-0.3-0.2-0.5-0.7-0.4-1.1l1.7-6.5l-5.1-4.2c-0.4-0.2-0.5-0.7-0.4-1.1s0.5-0.7,0.9-0.7l6.7-0.4l2.4-6.3c0.2-0.2,0.6-0.5,1-0.5c0.4,0,0.8,0.3,0.9,0.6l2.4,6.3l6.7,0.4c0.4,0,0.8,0.3,0.9,0.7c0.1,0.4,0,0.8-0.3,1.1l-5.2,4.2l1.7,6.5c0.1,0.4,0,0.8-0.4,1.1c-0.3,0.2-0.8,0.3-1.1,0l-5.6-3.7l-5.6,3.6C33.263,49.811,33.063,49.911,32.862,49.911z"/></g></svg>