<?xml version="1.0" encoding="iso-8859-1"?><!-- Generator: Adobe Illustrator 23.0.3, SVG Export Plug-In . SVG Version: 6.00 Build 0)  --><svg xmlns="http://www.w3.org/2000/svg" xmlns:xlink="http://www.w3.org/1999/xlink" viewBox="0 0 50 50" width="50px" height="50px"><line style="fill:none;stroke:#000000;stroke-width:2;stroke-linejoin:round;stroke-miterlimit:10;" x1="15" y1="21" x2="40" y2="21"/><g><circle cx="10" cy="21" r="1"/><circle cx="10" cy="28" r="1"/><circle cx="10" cy="35" r="1"/></g><path d="M50,35.601l-3.355-1.773l-0.656-3.727l-3.76,0.53L39.5,28l-2.729,2.63l-3.76-0.53l-0.656,3.727L29,35.6l1.668,3.4L29,42.399l3.355,1.773l0.656,3.727l3.76-0.53L39.5,50l2.729-2.63l3.76,0.53l0.656-3.727L50,42.4L48.332,39L50,35.601z"/><g><rect x="15" y="27" width="16" height="2"/><rect x="15" y="34" width="12" height="2"/><path d="M44.2,5H5.8C4.256,5,3,6.256,3,7.8V44c0,0.553,0.448,1,1,1h23v-2H5V13h40v14h2V7.8C47,6.256,45.744,5,44.2,5z"/></g></svg>