<?xml version="1.0" encoding="iso-8859-1"?><!-- Generator: Adobe Illustrator 19.1.1, SVG Export Plug-In . SVG Version: 6.00 Build 0)  --><svg xmlns="http://www.w3.org/2000/svg" xmlns:xlink="http://www.w3.org/1999/xlink" viewBox="0 0 50 50" width="50px" height="50px"><path d="M25,14c-3.309,0-6-2.691-6-6s2.691-6,6-6s6,2.691,6,6S28.309,14,25,14z"/><path fill="none" stroke="#000000" stroke-width="2" stroke-linecap="round" stroke-miterlimit="10" d="M43,19c-2.209,0-4,1.791-4,4s1.791,4,4,4s4-1.791,4-4S45.209,19,43,19z"/><path fill="none" stroke="#000000" stroke-width="2" stroke-linecap="round" stroke-miterlimit="10" d="M7,19c-2.209,0-4,1.791-4,4s1.791,4,4,4s4-1.791,4-4S9.209,19,7,19z"/><path fill="none" stroke="#000000" stroke-width="2" stroke-linecap="round" stroke-miterlimit="10" d="M33,40c-2.209,0-4,1.791-4,4s1.791,4,4,4s4-1.791,4-4S35.209,40,33,40z"/><path fill="none" stroke="#000000" stroke-width="2" stroke-linecap="round" stroke-miterlimit="10" d="M17,40c-2.209,0-4,1.791-4,4s1.791,4,4,4s4-1.791,4-4S19.209,40,17,40z"/><path d="M29,42l-4-10l-4,10l-5-2l4-12v-7.143l-9.181,2.446L9,19.06L21.095,15H29l12.224,4.108l-1.87,4.217L30,21v7l3,12L29,42z"/></svg>