<?xml version="1.0" encoding="iso-8859-1"?><!-- Generator: Adobe Illustrator 23.0.3, SVG Export Plug-In . SVG Version: 6.00 Build 0)  --><svg xmlns="http://www.w3.org/2000/svg" xmlns:xlink="http://www.w3.org/1999/xlink" viewBox="0 0 50 50" width="500px" height="500px"><line style="fill:none;stroke:#000000;stroke-width:2;stroke-miterlimit:10;" x1="6" y1="14" x2="46" y2="14"/><circle cx="9" cy="11" r="1"/><circle cx="12" cy="11" r="1"/><circle cx="15" cy="11" r="1"/><path style="fill:none;stroke:#000000;stroke-width:2;stroke-miterlimit:10;" d="M49,42.828c0-1.016-0.774-1.805-2-1.828c-3.967-0.074-12.688,2.658-15.275,5.151c-0.835,0.804-1.019,2.303-0.215,2.733c0.663,0.36,1.931-0.121,2.845-1.155C37.097,44.626,39.939,36.72,40,33c0.02-1.226-0.847-2-1.634-2c-0.961,0-1.497,0.799-1.366,2c0.398,3.646,5.701,11,10.109,11C48.528,44,49,43.585,49,42.828z"/><path d="M34.625,41H8c-0.552,0-1-0.449-1-1V10c0-0.551,0.448-1,1-1h36c0.552,0,1,0.449,1,1v28.12c0.727-0.082,1.403-0.126,2-0.119V10c0-1.654-1.346-3-3-3H8c-1.654,0-3,1.346-3,3v30c0,1.654,1.346,3,3,3h22.888C31.912,42.296,33.2,41.618,34.625,41z"/></svg>