<?xml version="1.0" encoding="iso-8859-1"?>
<!-- Generator: Adobe Illustrator 23.0.3, SVG Export Plug-In . SVG Version: 6.00 Build 0)  -->
<svg version="1.1" id="Layer_1" xmlns="http://www.w3.org/2000/svg" xmlns:xlink="http://www.w3.org/1999/xlink" x="0px" y="0px"
	 viewBox="0 0 50 50" style="enable-background:new 0 0 50 50;" xml:space="preserve">
<path d="M48.593,42.397L27.637,5.542C27.088,4.577,26.103,4,25,4s-2.088,0.577-2.637,1.542L1.407,42.397
	c-0.551,0.969-0.545,2.124,0.016,3.088C1.975,46.434,2.954,47,4.044,47h41.912c1.09,0,2.069-0.566,2.621-1.515
	C49.138,44.521,49.144,43.367,48.593,42.397z M27,40c0,0.552-0.446,1-0.998,1c-0.612,0-1.392,0-2.004,0C23.446,41,23,40.552,23,40
	v-2c0-0.552,0.446-1,0.998-1c0.612,0,1.392,0,2.003,0C26.554,37,27,37.448,27,38V40z M27,33c0,0.552-0.448,1-1,1
	c-0.612,0-1.392,0-2.003,0C23.444,34,23,33.552,23,33V19c0-0.552,0.446-1,0.998-1c0.612,0,1.392,0,2.003,0
	C26.554,18,27,18.448,27,19V33z"/>
<line style="fill:none;stroke:#000000;stroke-width:2;stroke-linecap:round;stroke-linejoin:round;stroke-miterlimit:10;" x1="37" y1="12" x2="41" y2="7"/>
<line style="fill:none;stroke:#000000;stroke-width:2;stroke-linecap:round;stroke-linejoin:round;stroke-miterlimit:10;" x1="41" y1="17" x2="47" y2="14"/>
<line style="fill:none;stroke:#000000;stroke-width:2;stroke-linecap:round;stroke-linejoin:round;stroke-miterlimit:10;" x1="43" y1="23" x2="49" y2="23"/>
<line style="fill:none;stroke:#000000;stroke-width:2;stroke-linecap:round;stroke-linejoin:round;stroke-miterlimit:10;" x1="13" y1="12" x2="9" y2="7"/>
<line style="fill:none;stroke:#000000;stroke-width:2;stroke-linecap:round;stroke-linejoin:round;stroke-miterlimit:10;" x1="9" y1="17" x2="3" y2="14"/>
<line style="fill:none;stroke:#000000;stroke-width:2;stroke-linecap:round;stroke-linejoin:round;stroke-miterlimit:10;" x1="7" y1="23" x2="1" y2="23"/>
</svg>