<?xml version="1.0" encoding="utf-8"?><!-- Generator: Adobe Illustrator 15.0.0, SVG Export Plug-In . SVG Version: 6.00 Build 0)  --><!DOCTYPE svg PUBLIC "-//W3C//DTD SVG 1.1//EN" "http://www.w3.org/Graphics/SVG/1.1/DTD/svg11.dtd"><svg xmlns="http://www.w3.org/2000/svg" xmlns:xlink="http://www.w3.org/1999/xlink" viewBox="0 0 50 50" width="50px" height="50px"><path d="M24.721,33.093c-0.011-0.153-0.021-0.307-0.019-0.461l-0.665-0.666c-1.222,0.232-2.575-0.175-3.452-1.052l-0.7-0.7c-1.397-1.397-1.451-3.702-0.192-5.192l-1.265-1.265l-6.047,6.048C11.688,29.669,10.99,29.6,10.3,29.6c-5.624,0-10.2,4.576-10.2,10.2S4.676,50,10.3,50c5.625,0,10.2-4.576,10.2-10.2c0-0.847-0.082-1.557-0.262-2.224L24.721,33.093z M13.8,43.2L9,44.5L5.5,41l1.3-4.7l4.7-1.3l3.5,3.5L13.8,43.2z"/><path d="M25.022,19.694c0.671-0.562,1.549-0.893,2.478-0.893c1.036,0,2.024,0.395,2.714,1.083l0.7,0.701c0.912,0.912,1.294,2.211,1.054,3.453l0.7,0.701c0.126,0,0.245,0.028,0.369,0.037l1.067-1.067c0.001-0.001,0.002-0.001,0.003-0.002l1.061-1.061c1.789,0.962,3.502,1.442,5.085,1.442c1.949,0,3.701-0.729,5.154-2.181c2.688-2.688,5.603-8.943,4.241-13.023c-0.109-0.329-0.381-0.577-0.719-0.657c-0.339-0.081-0.692,0.021-0.937,0.266l-5.3,5.3c-0.326,0.323-0.937,0.304-1.286,0l-5.3-5.3c-0.324-0.325-0.304-0.936,0-1.286l5.3-5.3c0.244-0.244,0.345-0.597,0.268-0.933c-0.078-0.336-0.324-0.608-0.65-0.72C37.023-1.119,30.637,1.85,27.993,4.493c-2.729,2.729-2.959,6.483-0.679,10.377l-3.558,3.558L25.022,19.694z"/><polygon points="9.4,6.9 9.8,4.2 2.5,0 0,2.5 4.2,9.8 6.9,9.4 22.5,25 25,22.5 "/><path d="M48.455,40.955L35.3,27.8c-0.747-0.748-1.814-1.129-2.965-1.05l-0.454,0.03l-2.201-2.2l0.233-0.607C30.177,23.29,30.015,22.515,29.5,22l-0.7-0.701c-0.633-0.632-1.967-0.632-2.6,0l-4.901,4.9c-0.691,0.692-0.691,1.907,0,2.6l0.7,0.7c0.491,0.49,1.324,0.662,1.973,0.414l0.607-0.234l2.191,2.192l-0.051,0.476c-0.113,1.061,0.29,2.164,1.079,2.952l13.155,13.155c1.016,1.016,2.348,1.575,3.75,1.575s2.74-0.565,3.767-1.593C50.472,46.337,50.473,42.973,48.455,40.955z M42.293,43.707l-12-12l1.414-1.414l12,12L42.293,43.707z"/></svg>