<?xml version="1.0" encoding="utf-8"?><!-- Generator: Adobe Illustrator 15.0.0, SVG Export Plug-In . SVG Version: 6.00 Build 0)  --><!DOCTYPE svg PUBLIC "-//W3C//DTD SVG 1.1//EN" "http://www.w3.org/Graphics/SVG/1.1/DTD/svg11.dtd"><svg xmlns="http://www.w3.org/2000/svg" xmlns:xlink="http://www.w3.org/1999/xlink" viewBox="0 0 50 50" width="50px" height="50px"><path d="M25,35c-5.514,0-10-4.486-10-10c0-5.514,4.486-10,10-10c5.514,0,10,4.486,10,10C35,30.514,30.514,35,25,35z M17,25 M33,25"/><path d="M44,35c-3.309,0-6-2.691-6-6s2.691-6,6-6s6,2.691,6,6S47.309,35,44,35z"/><path d="M32,12c-3.309,0-6-2.691-6-6s2.691-6,6-6s6,2.691,6,6S35.309,12,32,12z"/><path d="M6,12c-3.309,0-6-2.691-6-6s2.691-6,6-6s6,2.691,6,6S9.309,12,6,12z"/><path d="M6,46c-3.309,0-6-2.691-6-6s2.691-6,6-6s6,2.691,6,6S9.309,46,6,46z"/><path d="M35,50c-3.309,0-6-2.691-6-6s2.691-6,6-6s6,2.691,6,6S38.309,50,35,50z"/><rect x="28.201" y="10.563" transform="matrix(0.9384 0.3457 -0.3457 0.9384 6.4995 -9.2556)" width="2" height="6.066"/><rect x="34.034" y="26.386" transform="matrix(0.9786 0.2059 -0.2059 0.9786 6.4189 -6.8957)" width="4.6" height="2"/><rect x="27.352" y="35.298" transform="matrix(0.4659 0.8848 -0.8848 0.4659 48.6454 -7.996)" width="7.189" height="2"/><rect x="7.809" y="13.146" transform="matrix(0.7071 0.7071 -0.7071 0.7071 14.146 -5.8595)" width="12.674" height="2"/><rect x="12.845" y="28.912" transform="matrix(0.6195 0.785 -0.785 0.6195 31.8057 1.9949)" width="2" height="9.788"/></svg>