<?xml version="1.0" encoding="iso-8859-1"?><!-- Generator: Adobe Illustrator 21.1.0, SVG Export Plug-In . SVG Version: 6.00 Build 0)  --><svg xmlns="http://www.w3.org/2000/svg" xmlns:xlink="http://www.w3.org/1999/xlink" viewBox="0 0 50 50" width="50px" height="50px"><g style="display:none;"></g><path d="M47,7H3C2.447,7,2,7.448,2,8v34c0,0.552,0.447,1,1,1h44c0.553,0,1-0.448,1-1V8C48,7.448,47.553,7,47,7z M37,28.709l-3.834,1.934l-0.75,4.066l-4.297-0.578L25,37l-3.119-2.87l-4.297,0.578l-0.75-4.066L13,28.708L14.906,25L13,21.291l3.834-1.934l0.75-4.066l4.297,0.578L25,13l3.119,2.87l4.297-0.578l0.75,4.066L37,21.292L35.094,25L37,28.709z"/><polygon points="25,15.718 25,15.718 22.545,17.976 19.205,17.527 18.621,20.695 15.7,22.169 17.155,25 15.7,27.83 18.621,29.303 19.205,32.472 22.545,32.023 25,34.282 "/></svg>