<?xml version="1.0" encoding="iso-8859-1"?><!-- Generator: Adobe Illustrator 21.1.0, SVG Export Plug-In . SVG Version: 6.00 Build 0)  --><svg xmlns="http://www.w3.org/2000/svg" xmlns:xlink="http://www.w3.org/1999/xlink" viewBox="0 0 50 50" width="50px" height="50px"><path style="fill:none;stroke:#000000;stroke-width:4;stroke-linecap:round;stroke-miterlimit:10;" d="M33.969,19.923C33.186,15.551,30.485,14,26.713,14c-3.963,0-11.819,5.429-11.819,14.808c0,3.972,3.213,7.192,7.176,7.192c4.696,0,6.517-3.8,7.785-5.833"/><path style="fill:none;stroke:#000000;stroke-width:4;stroke-linecap:round;stroke-miterlimit:10;" d="M31.36,26.519C29.855,30.167,30,33,30,33c0,2,0.987,3,2.566,3C37.625,36,45,29.375,45,21.375v-0.386C45,10.438,35.999,4,26.429,4C14.674,4,5.134,13.488,5.006,25.239C5.134,36.726,14.461,46,25.952,46C33.308,46,39,44,44,38"/><line style="fill:none;stroke:#000000;stroke-width:4;stroke-linecap:round;stroke-miterlimit:10;" x1="35.999" y1="15" x2="29.246" y2="31.769"/></svg>