<?xml version="1.0" encoding="utf-8"?><!-- Generator: Adobe Illustrator 18.1.1, SVG Export Plug-In . SVG Version: 6.00 Build 0)  --><svg xmlns="http://www.w3.org/2000/svg" xmlns:xlink="http://www.w3.org/1999/xlink" viewBox="0 0 50 50" width="500px" height="500px"><path fill="none" stroke="#000000" stroke-width="2" stroke-miterlimit="10" d="M9,13V7c0-1.1,0.9-2,2-2h28c1.1,0,2,0.9,2,2v36c0,1.1-0.9,2-2,2H11c-1.1,0-2-0.9-2-2v-4"/><line fill="none" stroke="#000000" stroke-width="2" stroke-linecap="round" stroke-linejoin="round" stroke-miterlimit="10" x1="7" y1="13" x2="11" y2="13"/><line fill="none" stroke="#000000" stroke-width="2" stroke-linecap="round" stroke-linejoin="round" stroke-miterlimit="10" x1="7" y1="19" x2="11" y2="19"/><line fill="none" stroke="#000000" stroke-width="2" stroke-miterlimit="10" x1="9" y1="15" x2="9" y2="19"/><line fill="none" stroke="#000000" stroke-width="2" stroke-linecap="round" stroke-linejoin="round" stroke-miterlimit="10" x1="7" y1="25" x2="11" y2="25"/><line fill="none" stroke="#000000" stroke-width="2" stroke-miterlimit="10" x1="9" y1="21" x2="9" y2="25"/><line fill="none" stroke="#000000" stroke-width="2" stroke-linecap="round" stroke-linejoin="round" stroke-miterlimit="10" x1="7" y1="31" x2="11" y2="31"/><line fill="none" stroke="#000000" stroke-width="2" stroke-miterlimit="10" x1="9" y1="27" x2="9" y2="31"/><line fill="none" stroke="#000000" stroke-width="2" stroke-linecap="round" stroke-linejoin="round" stroke-miterlimit="10" x1="7" y1="37" x2="11" y2="37"/><line fill="none" stroke="#000000" stroke-width="2" stroke-miterlimit="10" x1="9" y1="33" x2="9" y2="37"/><g><path d="M29.2,33.8c-1.6,0.8-3,1-4.9,1c-4.5,0-8.3-3.2-8.3-8.5C16,20.8,19.9,16,26,16c4.7,0,8,3.3,8,7.8c0,4-2.2,6.4-5,6.4c-1.2,0-2.1-0.7-2.2-2.2h-0.1c-0.9,1.5-2.1,2.2-3.6,2.2c-1.7,0-3-1.3-3-3.5c0-3.3,2.5-6.3,6.3-6.3c1.2,0,2.4,0.3,3.1,0.6L28.7,26c-0.3,1.8-0.1,2.6,0.7,2.6c1.3,0.1,2.8-1.6,2.8-4.7c0-3.7-2.3-6.5-6.5-6.5c-4.3,0-7.9,3.3-7.9,8.6c0,4.5,2.9,7.2,6.9,7.2c1.5,0,2.9-0.3,4-0.9L29.2,33.8z M27.2,22.4c-0.2-0.1-0.6-0.2-1.1-0.2c-2.1,0-3.7,2-3.7,4.3c0,1.1,0.5,1.8,1.6,1.8c1.2,0,2.5-1.6,2.7-3.2L27.2,22.4z"/></g></svg>