<?xml version="1.0" encoding="iso-8859-1"?><!-- Generator: Adobe Illustrator 21.0.0, SVG Export Plug-In . SVG Version: 6.00 Build 0)  --><svg xmlns="http://www.w3.org/2000/svg" xmlns:xlink="http://www.w3.org/1999/xlink" viewBox="0 0 50 50" width="500px" height="500px"><polygon style="fill:none;stroke:#000000;stroke-width:1.7377;stroke-miterlimit:10;" points="8,2.5 9.379,6.075 13.205,6.281 10.231,8.697 11.217,12.399 8,10.318 4.784,12.399 5.77,8.697 2.796,6.281 6.622,6.075 "/><polygon style="fill:none;stroke:#000000;stroke-width:1.7377;stroke-miterlimit:10;" points="8,20 9.379,23.575 13.205,23.781 10.231,26.197 11.217,29.899 8,27.818 4.784,29.899 5.77,26.197 2.796,23.781 6.622,23.575 "/><polygon style="fill:none;stroke:#000000;stroke-width:1.7377;stroke-miterlimit:10;" points="8,37 9.379,40.575 13.205,40.781 10.231,43.197 11.217,46.899 8,44.818 4.784,46.899 5.77,43.197 2.796,40.781 6.622,40.575 "/><line style="fill:none;stroke:#000000;stroke-width:1.9654;stroke-linejoin:round;stroke-miterlimit:10;" x1="20" y1="7" x2="50" y2="7"/><line style="fill:none;stroke:#000000;stroke-width:1.9654;stroke-linejoin:round;stroke-miterlimit:10;" x1="20" y1="25" x2="50" y2="25"/><line style="fill:none;stroke:#000000;stroke-width:1.9654;stroke-linejoin:round;stroke-miterlimit:10;" x1="20" y1="43" x2="50" y2="43"/></svg>