<?xml version="1.0" encoding="iso-8859-1"?><!-- Generator: Adobe Illustrator 19.1.1, SVG Export Plug-In . SVG Version: 6.00 Build 0)  --><svg xmlns="http://www.w3.org/2000/svg" xmlns:xlink="http://www.w3.org/1999/xlink" viewBox="0 0 50 50" width="50px" height="50px"><circle fill="none" stroke="#000000" stroke-width="2" stroke-miterlimit="10" cx="25" cy="25" r="8"/><path d="M25,29c-2.206,0-4-1.794-4-4c0-2.206,1.794-4,4-4c2.206,0,4,1.794,4,4C29,27.206,27.206,29,25,29z"/><path d="M45,5H5C3.346,5,2,6.346,2,8v34c0,1.654,1.346,3,3,3h40c1.654,0,3-1.346,3-3V8C48,6.346,46.654,5,45,5z M25,33c-7.968,0-15-8-15-8s7.032-8,15-8s15,8,15,8S32.968,33,25,33z"/></svg>