<?xml version="1.0" encoding="iso-8859-1"?>
<!-- Generator: Adobe Illustrator 22.1.0, SVG Export Plug-In . SVG Version: 6.00 Build 0)  -->
<svg version="1.1" id="Layer_1" xmlns="http://www.w3.org/2000/svg" xmlns:xlink="http://www.w3.org/1999/xlink" x="0px" y="0px"
	 viewBox="0 0 50 50" style="enable-background:new 0 0 50 50;" xml:space="preserve">
<path d="M41,4H9C6.243,4,4,6.243,4,9v32c0,2.757,2.243,5,5,5h32c2.757,0,5-2.243,5-5V9C46,6.243,43.757,4,41,4z M25,11
	c4.418,0,8,3.582,8,8c0,4.418-3.582,8-8,8c-4.418,0-8-3.582-8-8C17,14.582,20.582,11,25,11z M25,32c6.841,0,12.488,5.29,13,12H12
	C12.512,37.29,18.159,32,25,32z"/>
</svg>