<?xml version="1.0" encoding="iso-8859-1"?>
<!-- Generator: Adobe Illustrator 23.0.3, SVG Export Plug-In . SVG Version: 6.00 Build 0)  -->
<svg version="1.1" id="Layer_1" xmlns="http://www.w3.org/2000/svg" xmlns:xlink="http://www.w3.org/1999/xlink" x="0px" y="0px"
	 viewBox="0 0 50 50" style="enable-background:new 0 0 50 50;" xml:space="preserve">
<g>
	<g>
		<path style="fill:none;stroke:#000000;stroke-width:2;stroke-linecap:round;stroke-linejoin:round;" d="M25,5
			c0.646,0,1.292,0.305,1.693,0.915"/>
		
			<path style="fill:none;stroke:#000000;stroke-width:2;stroke-linecap:round;stroke-linejoin:round;stroke-dasharray:4.1091,4.1091;" d="
			M28.728,9.484l18.995,33.407C48.509,44.273,47.527,46,45.956,46H4.044c-1.571,0-2.553-1.727-1.767-3.108L22.287,7.698"/>
		<path style="fill:none;stroke:#000000;stroke-width:2;stroke-linecap:round;stroke-linejoin:round;" d="M23.307,5.915
			C23.708,5.305,24.354,5,25,5"/>
	</g>
</g>
<path d="M25,8.997L5.666,43h38.668L25,8.997z M23,19c0-0.552,0.447-1,0.999-1c0.612,0,1.391,0,2.003,0C26.554,18,27,18.448,27,19v14
	c0,0.552-0.448,1-1,1c-0.612,0-1.391,0-2.003,0C23.445,34,23,33.552,23,33V19z M27,40c0,0.552-0.446,1-0.998,1
	c-0.612,0-1.392,0-2.004,0C23.446,41,23,40.552,23,40v-2c0-0.552,0.446-1,0.998-1c0.612,0,1.392,0,2.003,0
	C26.554,37,27,37.448,27,38V40z"/>
</svg>