<?xml version="1.0" encoding="utf-8"?><!-- Generator: Adobe Illustrator 15.0.0, SVG Export Plug-In . SVG Version: 6.00 Build 0)  --><!DOCTYPE svg PUBLIC "-//W3C//DTD SVG 1.1//EN" "http://www.w3.org/Graphics/SVG/1.1/DTD/svg11.dtd"><svg xmlns="http://www.w3.org/2000/svg" xmlns:xlink="http://www.w3.org/1999/xlink" viewBox="0 0 50 50" width="50px" height="50px"><path d="M49,8H27c-0.553,0-1-0.448-1-1s0.447-1,1-1h22c0.553,0,1,0.448,1,1S49.553,8,49,8z"/><path d="M45,15H27c-0.553,0-1-0.448-1-1s0.447-1,1-1h18c0.553,0,1,0.448,1,1S45.553,15,45,15z"/><path d="M49,37H27c-0.553,0-1-0.447-1-1s0.447-1,1-1h22c0.553,0,1,0.447,1,1S49.553,37,49,37z"/><path d="M45,44H27c-0.553,0-1-0.447-1-1s0.447-1,1-1h18c0.553,0,1,0.447,1,1S45.553,44,45,44z"/><g><path d="M7.483,7.003l4.684,5.626l3.54-1.769L22,16.535V0H0v13.438L7.483,7.003z M16,4c1.104,0,2,0.896,2,2s-0.896,2-2,2s-2-0.896-2-2S14.896,4,16,4z"/><polygon points="15.38,13.259 11.643,15.126 7.246,9.845 0,16.076 0,22 22,22 22,19.228 "/></g><path d="M0,28v22h22V28H0z M15.957,39.827c-0.371,1.437-2.652,1.636-2.652,1.636s-0.498,2.4-1.886,2.479c-0.308,0.017-0.597-0.073-0.859-0.224c-0.918-0.526-1.516-1.791-1.516-1.791s-1.38,0.245-2.283-0.272c-0.287-0.163-0.525-0.405-0.656-0.756c-0.54-1.457,1.182-2.883,1.182-2.883s-1.1-1.975,0.071-3.113c0.905-0.881,2.267-0.26,2.838,0.068c0.167,0.096,0.266,0.165,0.266,0.165s1.729-1.614,2.984-0.896c1.255,0.719,0.737,3.027,0.737,3.027s0.027,0.014,0.074,0.041C14.632,37.523,16.286,38.552,15.957,39.827z"/><path d="M11.068,38.82c0,0,0.913,2.004,0.095,2.135c-0.818,0.13-0.366-2.104-0.366-2.104s-1.742,1.479-2,0.748c-0.258-0.729,1.889-0.998,1.889-0.998s-1.967-1.143-1.332-1.67c0.636-0.527,1.533,1.486,1.533,1.486s0.47-2.188,1.178-1.782s-0.941,1.919-0.941,1.919s2.18-0.25,2.058,0.568C13.061,39.943,11.068,38.82,11.068,38.82z"/></svg>