<?xml version="1.0" encoding="iso-8859-1"?>
<!-- Generator: Adobe Illustrator 25.2.3, SVG Export Plug-In . SVG Version: 6.00 Build 0)  -->
<svg version="1.1" baseProfile="basic" id="fluent" xmlns="http://www.w3.org/2000/svg" xmlns:xlink="http://www.w3.org/1999/xlink"
	 x="0px" y="0px" viewBox="0 0 50 50" xml:space="preserve">
<path d="M46,3H4C1.79,3,0,4.79,0,7v20c0,2.21,1.79,4,4,4h0.72l2.93-6H5v-4h5.59c0.13-0.06,0.26-0.11,0.39-0.16
	c1.01-0.35,2.09-0.28,3.05,0.19c0.65,0.31,1.19,0.79,1.58,1.38c0.49-0.77,1.21-1.34,2.08-1.64c1-0.34,2.09-0.28,3.05,0.19
	c0.73,0.35,1.32,0.91,1.71,1.59c0.38-0.37,0.83-0.67,1.33-0.88c1.04-0.43,2.19-0.38,3.23,0.12c0.69,0.34,1.2,0.81,1.57,1.35
	l2.86-5.86c0.52-1.08,1.41-1.83,2.5-2.13c0.93-0.25,1.97-0.14,2.85,0.29c1.67,0.81,2.83,3.02,1.86,5.3l-5,10.26H46
	c2.21,0,4-1.79,4-4V7C50,4.79,48.21,3,46,3z M5,9h4v4H5V9z M12,19H5v-4h7V19z M11,13V9h4v4H11z M18,19h-4v-4h4V19z M17,13V9h4v4H17z
	 M24,19h-4v-4h4V19z M23,13V9h4v4H23z M30,19h-4v-4h4V19z M33,13h-4V9h4V13z M39,13h-4V9h4V13z M45,25h-6v-4h6V25z M45,19h-5v-4h5
	V19z M45,13h-4V9h4V13z M35.91,17.23c-0.44-0.21-0.99-0.27-1.45-0.14c-0.54,0.14-0.95,0.5-1.22,1.06l-4.37,8.96
	c-0.01,0.01-0.01,0.02-0.02,0.03l-1.75,3.6c-0.05,0.1-0.11,0.19-0.19,0.26h4.51l5.41-11.09C37.33,18.73,36.74,17.64,35.91,17.23z"/>
<path d="M36.99,35.56l-2.81,5.75c-3.29,6.74-11.45,9.55-18.18,6.26l-5.76-2.8c-4.46-2.18-6.32-7.58-4.14-12.04l4.38-8.99
	c0.24-0.48,0.64-0.84,1.15-1.01c0.21-0.07,0.43-0.11,0.65-0.11c0.3,0,0.6,0.07,0.88,0.2c0.48,0.24,0.84,0.65,1.01,1.15
	c0.17,0.51,0.14,1.05-0.09,1.53l-0.88,1.8c-0.24,0.49-0.03,1.09,0.46,1.33c0.5,0.25,1.1,0.04,1.34-0.46l2.19-4.49
	c0.23-0.48,0.64-0.84,1.15-1.02c0.5-0.17,1.04-0.14,1.52,0.1c0.48,0.23,0.85,0.64,1.02,1.14s0.14,1.04-0.09,1.51l-0.88,1.82
	c-0.24,0.5-0.04,1.09,0.46,1.34c0.5,0.24,1.09,0.03,1.34-0.46l0.87-1.8c0.01-0.01,0.01-0.02,0.02-0.03l0.86-1.77
	c0.21-0.43,0.61-0.8,1.08-0.99c0.36-0.14,0.93-0.25,1.59,0.07c1.22,0.59,1.28,1.92,0.94,2.65l-1.77,3.62
	c-0.24,0.5-0.03,1.1,0.46,1.34c0.5,0.24,1.1,0.03,1.34-0.46l1.75-3.6c0.01-0.01,0.01-0.02,0.02-0.03l4.37-8.96
	c0.27-0.56,0.68-0.92,1.22-1.06c0.46-0.13,1.01-0.07,1.45,0.14c0.83,0.41,1.42,1.5,0.92,2.68l-9.2,18.87
	c-0.25,0.5-0.04,1.1,0.46,1.34s1.09,0.03,1.33-0.46l1.74-3.57c0.01-0.01,0.01-0.02,0.02-0.03c1.44-2.95,4.53-3.35,5.78-2.74
	C37.41,33.54,37.86,33.76,36.99,35.56z"/>
</svg>