<?xml version="1.0" encoding="iso-8859-1"?><!-- Generator: Adobe Illustrator 23.0.3, SVG Export Plug-In . SVG Version: 6.00 Build 0)  --><svg xmlns="http://www.w3.org/2000/svg" xmlns:xlink="http://www.w3.org/1999/xlink" viewBox="0 0 50 50" width="50px" height="50px"><g><path d="M5,34V12c0-1.141,0.859-2,2-2h36c1.141,0,2,0.859,2,2v10.452c0.705,0.25,1.374,0.571,2,0.958V12c0-2.243-1.757-4-4-4H7c-2.243,0-4,1.757-4,4v22c0,0.738,0.205,1.413,0.539,2H1c-0.553,0-1,0.447-1,1c0,2.757,2.243,5,5,5h18.896l6.001-6H7C5.859,36,5,35.141,5,34z"/></g><path d="M49.387,29.282L43.545,35L40,34l-1-3.546l5.716-5.84l-0.555-0.183C43.297,24.145,42.401,24,41.5,24c-4.687,0-8.5,3.813-8.5,8.5c0,0.979,0.167,1.937,0.498,2.856l-8.433,8.433c-1.419,1.419-1.419,3.727,0,5.146c0.709,0.709,1.641,1.063,2.572,1.063s1.863-0.354,2.572-1.063l8.433-8.434C39.563,40.832,40.521,41,41.5,41c4.687,0,8.5-3.813,8.5-8.5c0-0.897-0.145-1.793-0.43-2.66L49.387,29.282z"/></svg>