<?xml version="1.0" encoding="iso-8859-1"?>
<!-- Generator: Adobe Illustrator 25.2.0, SVG Export Plug-In . SVG Version: 6.00 Build 0)  -->
<svg version="1.1" id="&#x421;&#x43B;&#x43E;&#x439;_1"
	 xmlns="http://www.w3.org/2000/svg" xmlns:xlink="http://www.w3.org/1999/xlink" x="0px" y="0px" viewBox="0 0 50 50"
	 style="enable-background:new 0 0 50 50;" xml:space="preserve">
<g>
	<path d="M48,33.857C37.333,30.571,26.667,27.286,16,24c0-6.333,0-12.667,0-19c10.667,3.048,21.333,6.095,32,9.143
		C48,20.714,48,27.286,48,33.857z"/>
	<path d="M48,34.857c-0.099,0-0.198-0.015-0.294-0.044l-32-9.857C15.286,24.826,15,24.438,15,24V5c0-0.313,0.147-0.609,0.397-0.799
		c0.251-0.188,0.576-0.249,0.877-0.163l32,9.143C48.704,13.304,49,13.696,49,14.143v19.715c0,0.317-0.15,0.616-0.406,0.805
		C48.42,34.79,48.211,34.857,48,34.857z M17,23.262l30,9.241V14.896l-30-8.57V23.262z"/>
</g>
<g>
	<path d="M19.619,33c2.265-0.667,4.529-1.333,6.794-2c4.529,1.333,9.058,2.667,13.587,4c-2.333,0.667-4.667,1.333-7,2
		C28.54,35.667,24.079,34.333,19.619,33z"/>
	<path d="M33,38c-0.097,0-0.193-0.014-0.286-0.042l-13.381-4c-0.425-0.127-0.715-0.518-0.714-0.96s0.293-0.832,0.718-0.957l6.794-2
		c0.184-0.055,0.381-0.055,0.564,0l13.587,4c0.427,0.125,0.72,0.518,0.718,0.963s-0.297,0.835-0.726,0.958l-7,2
		C33.185,37.987,33.093,38,33,38z M23.135,33.008l9.871,2.95l3.404-0.973l-9.997-2.943L23.135,33.008z"/>
</g>
<path d="M27,47c-0.1,0-0.198-0.015-0.294-0.044l-26-8C0.28,38.825-0.007,38.429,0,37.983c0.007-0.444,0.308-0.831,0.737-0.948l11-3
	c0.183-0.049,0.375-0.046,0.557,0.009l26,8c0.426,0.131,0.713,0.527,0.706,0.973c-0.007,0.444-0.308,0.831-0.737,0.948l-11,3
	C27.177,46.988,27.089,47,27,47z M4.589,38.058l22.428,6.901l7.395-2.017l-22.428-6.901L4.589,38.058z"/>
<rect x="33.857" y="29.477" width="2" height="3.285"/>
<rect x="29" y="28" width="2" height="4"/>
<path d="M37.681,43.043c-3.447,0.936-6.894,1.872-10.34,2.809c-8.532-2.723-17.064-5.447-25.596-8.17
	c3.234-0.936,6.468-1.872,9.702-2.809C20.191,37.596,28.936,40.319,37.681,43.043z"/>
</svg>