<?xml version="1.0" encoding="iso-8859-1"?>
<!-- Generator: Adobe Illustrator 24.0.0, SVG Export Plug-In . SVG Version: 6.00 Build 0)  -->
<svg version="1.1" id="Layer_1" xmlns="http://www.w3.org/2000/svg" xmlns:xlink="http://www.w3.org/1999/xlink" x="0px" y="0px"
	 viewBox="0 0 50 50" style="enable-background:new 0 0 50 50;" xml:space="preserve">
<path d="M11.031,5H6.088C6.065,5,6.043,5.003,6.02,5.004C6.013,5.004,6.007,5,6,5C5.987,5,5.976,5.007,5.964,5.007
	c-0.017,0.001-0.033,0-0.05,0.003c-0.036,0.002-0.066,0.021-0.1,0.027C5.731,5.053,5.649,5.066,5.575,5.1
	C5.522,5.125,5.478,5.161,5.43,5.195C5.373,5.235,5.316,5.27,5.269,5.321C5.236,5.355,5.215,5.397,5.188,5.436
	c-0.046,0.066-0.091,0.13-0.119,0.206c-0.017,0.046-0.02,0.096-0.03,0.144C5.026,5.848,5,5.904,5,5.968v4.064C5,10.564,5.45,11,6,11
	s1-0.436,1-0.968V7h4.031C11.564,7,12,6.55,12,6S11.564,5,11.031,5z"/>
<path d="M5,13.968v2.064C5,16.564,5.45,17,6,17s1-0.436,1-0.968v-2.064C7,13.436,6.55,13,6,13S5,13.436,5,13.968z"/>
<path d="M17.032,5h-2.064C14.436,5,14,5.45,14,6s0.436,1,0.968,1h2.064C17.564,7,18,6.55,18,6S17.564,5,17.032,5z"/>
<path d="M29.032,5h-2.064C26.436,5,26,5.45,26,6s0.436,1,0.968,1h2.064C29.564,7,30,6.55,30,6S29.564,5,29.032,5z"/>
<path d="M23.032,5h-2.064C20.436,5,20,5.45,20,6s0.436,1,0.968,1h2.064C23.564,7,24,6.55,24,6S23.564,5,23.032,5z"/>
<path d="M32.969,5h4.943c0.023,0,0.045,0.003,0.068,0.004C37.987,5.004,37.993,5,38,5c0.013,0,0.024,0.007,0.036,0.007
	c0.017,0.001,0.033,0,0.05,0.003c0.036,0.002,0.066,0.021,0.1,0.027c0.082,0.016,0.164,0.029,0.238,0.063
	c0.054,0.024,0.097,0.061,0.145,0.095c0.057,0.04,0.115,0.075,0.162,0.126c0.032,0.035,0.054,0.077,0.081,0.116
	c0.046,0.066,0.091,0.13,0.119,0.206c0.017,0.046,0.02,0.096,0.03,0.144C38.974,5.848,39,5.904,39,5.968v4.064
	C39,10.564,38.55,11,38,11s-1-0.436-1-0.968V7h-4.031C32.436,7,32,6.55,32,6S32.436,5,32.969,5z"/>
<path d="M38,13c-0.55,0-1,0.436-1,0.968v2.064C37,16.564,37.45,17,38,17s1-0.436,1-0.968v-2.064C39,13.436,38.55,13,38,13z"/>
<path d="M5,19.968v2.064C5,22.564,5.45,23,6,23s1-0.436,1-0.968v-2.064C7,19.436,6.55,19,6,19S5,19.436,5,19.968z"/>
<path d="M5,31.969v3.943c0,0.023,0.003,0.045,0.004,0.068C5.004,35.987,5,35.993,5,36c0,0.013,0.007,0.024,0.007,0.036
	c0.001,0.017,0,0.033,0.003,0.05c0.002,0.036,0.021,0.066,0.027,0.1c0.016,0.082,0.029,0.164,0.063,0.238
	c0.024,0.054,0.061,0.097,0.095,0.145c0.04,0.057,0.075,0.115,0.126,0.162c0.035,0.032,0.077,0.054,0.116,0.081
	c0.066,0.046,0.13,0.091,0.206,0.119c0.046,0.017,0.096,0.02,0.144,0.03C5.848,36.974,5.904,37,5.968,37h5.064
	C11.564,37,12,36.55,12,36s-0.436-1-0.968-1H7v-3.031C7,31.436,6.55,31,6,31S5,31.436,5,31.969z"/>
<path d="M5,25.968v2.064C5,28.564,5.45,29,6,29s1-0.436,1-0.968v-2.064C7,25.436,6.55,25,6,25S5,25.436,5,25.968z"/>
<path style="fill:none;stroke:#000000;stroke-width:2;stroke-linecap:round;stroke-linejoin:round;stroke-miterlimit:10;" d="M15,42
	V23c0-1.657,1.343-3,3-3h24c1.657,0,3,1.343,3,3v19c0,1.657-1.343,3-3,3H18C16.343,45,15,43.657,15,42z"/>
<path d="M35,34l-3.387,0.425l1.61,3.507L31.941,38.5l-1.522-3.558L28,37V27L35,34z"/>
</svg>