<?xml version="1.0" encoding="iso-8859-1"?><!-- Generator: Adobe Illustrator 23.0.3, SVG Export Plug-In . SVG Version: 6.00 Build 0)  --><svg xmlns="http://www.w3.org/2000/svg" xmlns:xlink="http://www.w3.org/1999/xlink" viewBox="0 0 50 50" width="50px" height="50px"><polyline style="fill:none;stroke:#000000;stroke-width:2;stroke-linecap:round;stroke-miterlimit:10;" points="13,17 6,17 6,10 "/><polyline style="fill:none;stroke:#000000;stroke-width:2;stroke-linecap:round;stroke-miterlimit:10;" points="37,33.001 44,33 44,40 "/><polyline style="fill:none;stroke:#000000;stroke-width:2;stroke-linecap:round;stroke-miterlimit:10;" points="17,37 17,44 10,44 "/><polyline style="fill:none;stroke:#000000;stroke-width:2;stroke-linecap:round;stroke-miterlimit:10;" points="33.001,13 33,6 40,6 "/><path d="M32.071,17.929c-3.898-3.898-10.244-3.898-14.143,0c-3.899,3.899-3.899,10.243,0,14.143c1.949,1.949,4.511,2.925,7.071,2.925s5.122-0.976,7.071-2.925C35.971,28.172,35.971,21.828,32.071,17.929z M29.95,26H26v3.95c0,0.553-0.447,1-1,1s-1-0.447-1-1V26h-3.95c-0.553,0-1-0.447-1-1s0.447-1,1-1H24v-3.95c0-0.553,0.447-1,1-1s1,0.447,1,1V24h3.95c0.553,0,1,0.447,1,1S30.503,26,29.95,26z"/><path style="fill:none;stroke:#000000;stroke-width:2;stroke-linecap:round;stroke-miterlimit:10;" d="M7,16.272C10.241,9.6,17.083,5,25,5"/><path style="fill:none;stroke:#000000;stroke-width:2;stroke-linecap:round;stroke-miterlimit:10;" d="M16.272,43C9.6,39.759,5,32.917,5,25"/><path style="fill:none;stroke:#000000;stroke-width:2;stroke-linecap:round;stroke-miterlimit:10;" d="M43.336,33C40.25,40.064,33.201,45,25,45"/><path style="fill:none;stroke:#000000;stroke-width:2;stroke-linecap:round;stroke-miterlimit:10;" d="M33,6.664C40.064,9.75,45,16.799,45,25"/></svg>