<?xml version="1.0" encoding="iso-8859-1"?><!-- Generator: Adobe Illustrator 23.0.3, SVG Export Plug-In . SVG Version: 6.00 Build 0)  --><svg xmlns="http://www.w3.org/2000/svg" xmlns:xlink="http://www.w3.org/1999/xlink" viewBox="0 0 50 50" width="50px" height="50px"><circle style="fill:none;stroke:#000000;stroke-width:2;stroke-linecap:round;stroke-miterlimit:10;" cx="36" cy="36" r="9"/><line style="fill:none;stroke:#000000;stroke-width:2;stroke-miterlimit:10;" x1="42" y1="42" x2="49" y2="49"/><path d="M24,36c0-6.627,5.373-12,12-12c6.218,0,11.33,4.729,11.939,10.786l0,0C49.224,33.243,50,31.26,50,29.099c0-4.561-3.446-8.331-7.872-8.843c0.01-0.191,0.015-0.377,0.015-0.56C42.143,12.445,36.244,7,28.993,7c-5.009,0-9.584,2.442-11.78,6.878c-1.135-0.751-2.465-1.155-3.857-1.155c-3.704,0-6.746,2.887-6.993,6.528C2.581,20.629,0,24.259,0,28.331C0,33.663,4.338,38,9.67,38h14.51C24.07,37.348,24,36.683,24,36z"/></svg>