<?xml version="1.0" encoding="iso-8859-1"?><!-- Generator: Adobe Illustrator 21.1.0, SVG Export Plug-In . SVG Version: 6.00 Build 0)  --><svg xmlns="http://www.w3.org/2000/svg" xmlns:xlink="http://www.w3.org/1999/xlink" viewBox="0 0 50 50" width="500px" height="500px"><path style="fill:none;stroke:#000000;stroke-width:2;stroke-linecap:round;stroke-linejoin:round;stroke-miterlimit:10;" d="M45,44H29l-4,4l-4-4H5V9c0-2.209,1.791-4,4-4h32c2.209,0,4,1.791,4,4V44z"/><line style="fill:none;stroke:#000000;stroke-width:2;stroke-linecap:round;stroke-linejoin:round;stroke-miterlimit:10;" x1="5" y1="11" x2="45" y2="11"/><path d="M23.475,39.999c-0.286,0-0.475-0.151-0.475-0.376V23.376C23,23.151,23.191,23,23.475,23h3.048C26.81,23,27,23.151,27,23.376v16.248C27,39.849,26.809,40,26.523,40h-3.048V39.999z"/><path d="M23.452,20C23.179,20,23,19.827,23,19.57V16.43c0-0.258,0.18-0.43,0.452-0.43h3.093C26.817,16,27,16.173,27,16.43v3.139c0,0.258-0.183,0.43-0.455,0.43H23.452z"/></svg>