<?xml version="1.0" encoding="iso-8859-1"?><!-- Generator: Adobe Illustrator 23.0.3, SVG Export Plug-In . SVG Version: 6.00 Build 0)  --><svg xmlns="http://www.w3.org/2000/svg" xmlns:xlink="http://www.w3.org/1999/xlink" viewBox="0 0 50 50" width="500px" height="500px"><line style="fill:none;stroke:#000000;stroke-width:2;stroke-miterlimit:10;" x1="5" y1="14" x2="45" y2="14"/><circle cx="8" cy="11" r="1"/><circle cx="11" cy="11" r="1"/><circle cx="14" cy="11" r="1"/><g id="IOS_copy_7_"><path d="M32.862,49.911c-0.2,0-0.4-0.1-0.6-0.2c-0.3-0.2-0.5-0.7-0.4-1.1l1.7-6.5l-5.1-4.2c-0.4-0.2-0.5-0.7-0.4-1.1s0.5-0.7,0.9-0.7l6.7-0.4l2.4-6.3c0.2-0.2,0.6-0.5,1-0.5c0.4,0,0.8,0.3,0.9,0.6l2.4,6.3l6.7,0.4c0.4,0,0.8,0.3,0.9,0.7c0.1,0.4,0,0.8-0.3,1.1l-5.2,4.2l1.7,6.5c0.1,0.4,0,0.8-0.4,1.1c-0.3,0.2-0.8,0.3-1.1,0l-5.6-3.7l-5.6,3.6C33.263,49.811,33.063,49.911,32.862,49.911z M39.063,43.911c0.2,0,0.4,0.1,0.5,0.2l4,2.6l-1.2-4.6c-0.1-0.4,0-0.8,0.3-1l3.7-3l-4.8-0.3c-0.4,0-0.7-0.3-0.9-0.6l-1.6-4.5l-1.7,4.4c-0.2,0.4-0.5,0.6-0.9,0.7l-4.8,0.2l3.7,3c0.3,0.2,0.4,0.7,0.3,1l-1.2,4.6l4-2.6C38.663,44.011,38.862,43.911,39.063,43.911z"/></g><path d="M31.304,42.842L29.068,41H7c-0.551,0-1-0.449-1-1V10c0-0.551,0.449-1,1-1h36c0.551,0,1,0.449,1,1v23.905l2,0.119V10c0-1.654-1.346-3-3-3H7c-1.654,0-3,1.346-3,3v30c0,1.654,1.346,3,3,3h24.263L31.304,42.842z"/></svg>