<?xml version="1.0" encoding="iso-8859-1"?><!-- Generator: Adobe Illustrator 21.1.0, SVG Export Plug-In . SVG Version: 6.00 Build 0)  --><svg xmlns="http://www.w3.org/2000/svg" xmlns:xlink="http://www.w3.org/1999/xlink" viewBox="0 0 50 50" width="50px" height="50px"><path style="fill:none;stroke:#000000;stroke-width:2;stroke-linecap:round;stroke-miterlimit:10;" d="M19,8V5c0-1.1,0.9-2,2-2h8c1.1,0,2,0.9,2,2v3"/><line style="fill:none;stroke:#000000;stroke-width:2;stroke-linecap:round;stroke-miterlimit:10;" x1="8" y1="8" x2="42" y2="8"/><path d="M9,45c0,1.654,1.346,3,3,3h26c1.654,0,3-1.346,3-3V8H9V45z M17.293,21.707c-0.391-0.391-0.391-1.023,0-1.414s1.023-0.391,1.414,0L25,26.586l6.293-6.293c0.391-0.391,1.023-0.391,1.414,0s0.391,1.023,0,1.414L26.414,28l6.293,6.293c0.391,0.391,0.391,1.023,0,1.414C32.512,35.902,32.256,36,32,36s-0.512-0.098-0.707-0.293L25,29.414l-6.293,6.293C18.512,35.902,18.256,36,18,36s-0.512-0.098-0.707-0.293c-0.391-0.391-0.391-1.023,0-1.414L23.586,28L17.293,21.707z"/></svg>