<?xml version="1.0" encoding="utf-8"?><!-- Generator: Adobe Illustrator 15.0.0, SVG Export Plug-In . SVG Version: 6.00 Build 0)  --><!DOCTYPE svg PUBLIC "-//W3C//DTD SVG 1.1//EN" "http://www.w3.org/Graphics/SVG/1.1/DTD/svg11.dtd"><svg xmlns="http://www.w3.org/2000/svg" xmlns:xlink="http://www.w3.org/1999/xlink" viewBox="0 0 50 50" width="50px" height="50px"><g><polygon points="11.007,9.947 8.371,11.264 5.329,7.608 0,12.076 0,16 16,16 16,14.589 "/><path d="M5.582,4.786l3.313,3.981l2.459-1.229L16,11.858V0H0v9.466L5.582,4.786z M11.5,3C12.329,3,13,3.671,13,4.5S12.329,6,11.5,6S10,5.329,10,4.5S10.671,3,11.5,3z"/></g><g><circle cx="8" cy="42" r="1.471"/><path d="M0,34v16h16V34H0z M12.667,42.006c0,0-1.778,0.67-1.925,1.096c-0.19,0.545,0.556,2.2,0.556,2.2s-1.653-0.786-2.19-0.558C8.573,44.973,8,46.667,8,46.667s-0.708-1.662-1.22-1.937C6.268,44.458,4.7,45.3,4.7,45.3s0.68-1.509,0.501-2.204c-0.121-0.47-1.868-1.095-1.868-1.095s0.01-0.003,0.012-0.004l-0.012-0.004c0,0,1.796-0.702,1.925-1.095c0.18-0.547-0.556-2.2-0.556-2.2s1.652,0.786,2.189,0.558C7.427,39.027,8,37.333,8,37.333s0.707,1.662,1.22,1.935c0.512,0.272,2.08-0.569,2.08-0.569s-0.727,1.522-0.501,2.204c0.139,0.426,1.868,1.095,1.868,1.095s-0.01,0.004-0.012,0.005L12.667,42.006z"/></g><line fill="none" stroke="#000000" stroke-width="2" stroke-linecap="round" stroke-miterlimit="10" x1="21" y1="5" x2="49" y2="5"/><line fill="none" stroke="#000000" stroke-width="2" stroke-linecap="round" stroke-miterlimit="10" x1="21" y1="11" x2="49" y2="11"/><line fill="none" stroke="#000000" stroke-width="2" stroke-linecap="round" stroke-miterlimit="10" x1="21" y1="22" x2="49" y2="22"/><line fill="none" stroke="#000000" stroke-width="2" stroke-linecap="round" stroke-miterlimit="10" x1="21" y1="28" x2="49" y2="28"/><line fill="none" stroke="#000000" stroke-width="2" stroke-linecap="round" stroke-miterlimit="10" x1="21" y1="39" x2="49" y2="39"/><line fill="none" stroke="#000000" stroke-width="2" stroke-linecap="round" stroke-miterlimit="10" x1="21" y1="45" x2="49" y2="45"/><g><path d="M10.12,24.509l-0.64-0.367l0.102-0.753c0.119-0.552,0.061-1.246-0.114-1.346c-0.441-0.029-1,0.381-1.217,0.583l-0.598,0.558L6.987,22.71c-0.008-0.005-0.055-0.036-0.125-0.076c-0.517-0.297-0.984-0.313-1.091-0.209c-0.32,0.312,0.039,1.156,0.119,1.299l0.405,0.727L5.654,24.98c-0.288,0.244-0.779,0.849-0.65,1.196c0.008,0.021,0.019,0.049,0.088,0.089c0.146,0.084,0.41,0.132,0.722,0.132c0.237,0,0.418-0.027,0.445-0.031l0.747-0.125l0.328,0.684c0.115,0.238,0.466,0.801,0.81,0.997c0.054,0.031,0.102,0.049,0.133,0.049v1l0.005-1c0.156-0.06,0.472-0.637,0.593-1.199L9.03,26.05l0.736-0.067c0.458-0.044,1.176-0.289,1.249-0.568C11.05,25.278,10.711,24.847,10.12,24.509z M8.055,24.856c0,0,0.733,1.609,0.076,1.714c-0.658,0.105-0.294-1.69-0.294-1.69s-1.399,1.188-1.607,0.602c-0.207-0.586,1.518-0.802,1.518-0.802s-1.58-0.918-1.07-1.342c0.511-0.424,1.231,1.195,1.231,1.195s0.378-1.757,0.946-1.432c0.57,0.326-0.755,1.541-0.755,1.541s1.751-0.201,1.653,0.457C9.656,25.758,8.055,24.856,8.055,24.856z"/><path d="M0,17v16h16V17H0z M12.951,25.915c-0.321,1.24-1.522,1.74-2.313,1.938c-0.292,0.809-0.947,2.043-2.246,2.114l-0.116,0.004c-0.386,0-0.765-0.105-1.127-0.313c-0.561-0.32-0.99-0.845-1.267-1.26c-0.691,0.008-1.309-0.124-1.785-0.396c-0.456-0.262-0.79-0.651-0.967-1.126c-0.412-1.106,0.115-2.179,0.706-2.889c-0.292-0.898-0.363-2.117,0.541-2.995c0.433-0.422,0.996-0.646,1.627-0.646c0.547,0,1.063,0.167,1.472,0.356c0.472-0.318,1.165-0.673,1.913-0.673c0.388,0,0.75,0.094,1.074,0.28c1.117,0.641,1.226,1.969,1.17,2.805C12.332,23.632,13.288,24.611,12.951,25.915z"/></g></svg>