<?xml version="1.0" encoding="iso-8859-1"?><!-- Generator: Adobe Illustrator 21.1.0, SVG Export Plug-In . SVG Version: 6.00 Build 0)  --><svg xmlns="http://www.w3.org/2000/svg" xmlns:xlink="http://www.w3.org/1999/xlink" viewBox="0 0 50 50" width="50px" height="50px"><line style="fill:none;stroke:#000000;stroke-width:2;stroke-miterlimit:10;" x1="19" y1="17" x2="39" y2="17"/><path d="M41,4H9C6.243,4,4,6.243,4,9v32c0,2.757,2.243,5,5,5h32c2.757,0,5-2.243,5-5V9C46,6.243,43.757,4,41,4z M38,28c0,0.552-0.448,1-1,1H21c-0.551,0-1-0.448-1-1V14c0-0.551,0.449-1,1-1h16c0.552,0,1,0.449,1,1V28z M30,37H14c-0.552,0-1-0.448-1-1V22c0-0.552,0.448-1,1-1h4v7c0,1.654,1.346,3,3,3h10v5C31,36.552,30.552,37,30,37z"/><line style="fill:none;stroke:#000000;stroke-width:2;stroke-miterlimit:10;" x1="12" y1="25" x2="20" y2="25"/></svg>