<?xml version="1.0" encoding="iso-8859-1"?><!-- Generator: Adobe Illustrator 23.0.3, SVG Export Plug-In . SVG Version: 6.00 Build 0)  --><svg xmlns="http://www.w3.org/2000/svg" xmlns:xlink="http://www.w3.org/1999/xlink" viewBox="0 0 50 50" width="500px" height="500px"><g><path d="M34,21h-3v-8h3V21z"/><path style="fill:none;stroke:#000000;stroke-width:2;stroke-linecap:round;stroke-linejoin:round;stroke-miterlimit:10;" d="M46,44c0,1.105-0.895,2-2,2H12c-1.105,0-2-0.895-2-2V12c0-1.105,0.895-2,2-2h26l8,8V44z"/><path style="fill:none;stroke:#000000;stroke-width:2;stroke-linecap:round;stroke-linejoin:round;stroke-miterlimit:10;" d="M38,45.836V33c0-1.1-0.9-2-2-2H20c-1.1,0-2,0.9-2,2v12.836"/><path style="fill:none;stroke:#000000;stroke-width:2;stroke-linecap:round;stroke-linejoin:round;stroke-miterlimit:10;" d="M38,10v12c0,1.105-0.895,2-2,2H20c-1.105,0-2-0.895-2-2V10"/><rect x="41" y="41" width="2" height="2"/><rect x="13" y="41" width="2" height="2"/></g><path d="M5,38V6c0-0.551,0.449-1,1-1h25.586l2,2h2.828l-3.707-3.707C32.52,3.105,32.265,3,32,3H6C4.346,3,3,4.346,3,6v32c0,1.654,1.346,3,3,3h1v-2H6C5.449,39,5,38.551,5,38z"/></svg>