<?xml version="1.0" encoding="iso-8859-1"?><!-- Generator: Adobe Illustrator 23.0.3, SVG Export Plug-In . SVG Version: 6.00 Build 0)  --><svg xmlns="http://www.w3.org/2000/svg" xmlns:xlink="http://www.w3.org/1999/xlink" viewBox="0 0 50 50" width="500px" height="500px"><path style="fill:none;stroke:#000000;stroke-width:2;stroke-linecap:round;stroke-linejoin:round;stroke-miterlimit:10;" d="M32,16h-3V9h3V16z"/><path style="fill:none;stroke:#000000;stroke-width:2;stroke-linecap:round;stroke-linejoin:round;stroke-miterlimit:10;" d="M36,18c0,1.105-0.895,2-2,2H15c-1.105,0-2-0.895-2-2V6c0-0.552,0.448-1,1-1h21c0.552,0,1,0.448,1,1V18z"/><rect x="8" y="40" width="2" height="2"/><g id="IOS_copy_12_"><path d="M44.2,37.2L41.4,40l2.8,2.8c0.4,0.4,0.4,1,0,1.4c-0.2,0.2-0.5,0.3-0.7,0.3s-0.5-0.1-0.7-0.3L40,41.4l-2.8,2.8c-0.2,0.2-0.5,0.3-0.7,0.3s-0.5-0.1-0.7-0.3c-0.4-0.4-0.4-1,0-1.4l2.8-2.8l-2.8-2.8c-0.4-0.4-0.4-1,0-1.4c0.4-0.4,1-0.4,1.4,0l2.8,2.8l2.8-2.8c0.4-0.4,1-0.4,1.4,0C44.6,36.2,44.6,36.8,44.2,37.2z M50,40c0,5.5-4.5,10-10,10s-10-4.5-10-10s4.5-10,10-10S50,34.5,50,40z M48,40c0-4.4-3.6-8-8-8s-8,3.6-8,8s3.6,8,8,8S48,44.4,48,40z"/></g><path d="M28.697,44H14V29c0-0.552,0.449-1,1-1h20c0.451,0,0.819,0.306,0.943,0.718c0.623-0.224,1.268-0.401,1.935-0.52C37.524,26.935,36.375,26,35,26H15c-1.654,0-3,1.346-3,3v15H7c-0.551,0-1-0.448-1-1V7c0-0.552,0.449-1,1-1h29.404L44,13.596v15.102c0.699,0.247,1.367,0.555,2,0.921V13.182c0-0.266-0.105-0.52-0.293-0.707l-8.182-8.182C37.338,4.105,37.083,4,36.818,4H7C5.346,4,4,5.346,4,7v36c0,1.654,1.346,3,3,3h22.618C29.252,45.367,28.945,44.699,28.697,44z"/></svg>