<?xml version="1.0" encoding="iso-8859-1"?><!-- Generator: Adobe Illustrator 23.0.3, SVG Export Plug-In . SVG Version: 6.00 Build 0)  --><svg xmlns="http://www.w3.org/2000/svg" xmlns:xlink="http://www.w3.org/1999/xlink" viewBox="0 0 50 50" width="500px" height="500px"><line style="fill:none;stroke:#000000;stroke-width:2;stroke-miterlimit:10;" x1="5" y1="14" x2="45" y2="14"/><circle cx="8" cy="11" r="1"/><circle cx="11" cy="11" r="1"/><circle cx="14" cy="11" r="1"/><g><path d="M37,27c6.065,0,11,4.24,11,9.451c0,4.705-3.401,9.452-11,9.452c-0.529,0-1.582-0.084-2.21-0.176c-0.097-0.014-0.194-0.021-0.29-0.021c-0.396,0-0.785,0.118-1.117,0.341l-1.463,0.986c-0.722,0.461-1.498,0.759-2.316,0.89c0.488-0.865,0.751-1.616,0.891-2.143l0.038-0.145c0.201-0.784-0.09-1.613-0.739-2.098c-0.813-0.609-1.52-1.317-2.095-2.099c-1.102-1.509-1.685-3.234-1.685-4.987c0-1.163,0.252-2.308,0.749-3.404c0.01-0.02,0.02-0.041,0.03-0.061C28.474,29.35,32.481,27,37,27 M37,25c-5.437,0-10.088,2.962-12.023,7.146l-0.002,0.001c-0.615,1.33-0.961,2.781-0.961,4.304c0,2.271,0.769,4.386,2.07,6.167c0.684,0.929,1.522,1.78,2.512,2.52c-0.01,0.039-0.021,0.081-0.033,0.126c-0.145,0.544-0.462,1.402-1.155,2.398l-0.534,0.766c-0.213,0.306-0.238,0.705-0.066,1.035C26.98,49.793,27.321,50,27.694,50h0.932c1.861,0,3.322-0.612,4.37-1.281l1.504-1.013c0.668,0.098,1.834,0.197,2.5,0.197c8.468,0,13-5.317,13-11.452C50,30.137,44.168,25,37,25L37,25z"/></g><path d="M22.913,41H7c-0.552,0-1-0.449-1-1V10c0-0.551,0.448-1,1-1h36c0.552,0,1,0.449,1,1v14.564c0.704,0.335,1.368,0.725,2,1.152V10c0-1.654-1.346-3-3-3H7c-1.654,0-3,1.346-3,3v30c0,1.654,1.346,3,3,3h16.931C23.528,42.356,23.191,41.687,22.913,41z"/><line style="fill:none;stroke:#000000;stroke-width:2;stroke-linecap:round;stroke-miterlimit:10;" x1="31" y1="35" x2="43" y2="35"/><line style="fill:none;stroke:#000000;stroke-width:2;stroke-linecap:round;stroke-miterlimit:10;" x1="31" y1="39" x2="38" y2="39"/></svg>