<?xml version="1.0" encoding="iso-8859-1"?><!-- Generator: Adobe Illustrator 21.1.0, SVG Export Plug-In . SVG Version: 6.00 Build 0)  --><svg xmlns="http://www.w3.org/2000/svg" xmlns:xlink="http://www.w3.org/1999/xlink" viewBox="0 0 50 50" width="500px" height="500px"><line style="fill:none;stroke:#000000;stroke-width:2;stroke-miterlimit:10;" x1="13" y1="24" x2="37" y2="24"/><path style="fill:none;stroke:#000000;stroke-width:2;stroke-miterlimit:10;" d="M35,37H15c-1.105,0-2-0.895-2-2V20c0-1.105,0.895-2,2-2h20c1.105,0,2,0.895,2,2v15C37,36.105,36.105,37,35,37z"/><line style="fill:none;stroke:#000000;stroke-width:2;stroke-miterlimit:10;" x1="5" y1="13" x2="45" y2="13"/><circle cx="8" cy="10" r="1"/><circle cx="11" cy="10" r="1"/><circle cx="14" cy="10" r="1"/><path style="fill:none;stroke:#000000;stroke-width:2;stroke-miterlimit:10;" d="M43,42H7c-1.105,0-2-0.895-2-2V9c0-1.105,0.895-2,2-2h36c1.105,0,2,0.895,2,2v31C45,41.105,44.105,42,43,42z"/></svg>