<?xml version="1.0"?><svg xmlns="http://www.w3.org/2000/svg"  viewBox="0 0 50 50" width="50px" height="50px">    <path d="M 2.8007812 0 C 1.2567813 0 -5.9211895e-16 1.2567813 0 2.8007812 L 0 6 L 44 6 L 44 2.8007812 C 44 1.2567813 42.743219 -5.9211895e-16 41.199219 0 L 2.8007812 0 z M 4 2 C 4.552 2 5 2.448 5 3 C 5 3.552 4.552 4 4 4 C 3.448 4 3 3.552 3 3 C 3 2.448 3.448 2 4 2 z M 7 2 C 7.552 2 8 2.448 8 3 C 8 3.552 7.552 4 7 4 C 6.448 4 6 3.552 6 3 C 6 2.448 6.448 2 7 2 z M 10 2 C 10.552 2 11 2.448 11 3 C 11 3.552 10.552 4 10 4 C 9.448 4 9 3.552 9 3 C 9 2.448 9.448 2 10 2 z M 0 8 L 0 40 C 0 40.553 0.447 41 1 41 L 27.353516 41 C 29.085516 43.984 32.308 46 36 46 C 38.397391 46 40.599697 45.1501 42.324219 43.738281 L 48.292969 49.707031 L 49.707031 48.292969 L 43.738281 42.324219 C 45.1501 40.599697 46 38.397391 46 36 C 46 33.757 45.248094 31.690531 43.996094 30.019531 C 43.996094 30.012531 44 30.007 44 30 L 44 8 L 0 8 z M 8 12 L 9 12 L 9 13.054688 C 9.977 13.254687 10.750219 14.022 10.949219 15 L 8.5 15 C 8.225 15 8 15.225 8 15.5 C 8 15.775 8.225 16 8.5 16 C 9.879 16 11 17.121 11 18.5 C 11 19.708 10.14 20.717219 9 20.949219 L 9 22 L 8 22 L 8 20.945312 C 7.023 20.745313 6.2497812 19.978 6.0507812 19 L 8.5 19 C 8.775 19 9 18.775 9 18.5 C 9 18.225 8.775 18 8.5 18 C 7.121 18 6 16.879 6 15.5 C 6 14.292 6.86 13.282781 8 13.050781 L 8 12 z M 14 14 L 37 14 L 37 16 L 14 16 L 14 14 z M 14 18 L 37 18 L 37 20 L 14 20 L 14 18 z M 8 25 L 9 25 L 9 26.054688 C 9.977 26.254687 10.750219 27.022 10.949219 28 L 8.5 28 C 8.225 28 8 28.225 8 28.5 C 8 28.775 8.225 29 8.5 29 C 9.879 29 11 30.121 11 31.5 C 11 32.708 10.14 33.717219 9 33.949219 L 9 35 L 8 35 L 8 33.945312 C 7.023 33.745312 6.2497812 32.978 6.0507812 32 L 8.5 32 C 8.775 32 9 31.775 9 31.5 C 9 31.225 8.775 31 8.5 31 C 7.121 31 6 29.879 6 28.5 C 6 27.292 6.86 26.282781 8 26.050781 L 8 25 z M 14 27 L 27 27 L 27 29 L 14 29 L 14 27 z M 36 28 C 40.411 28 44 31.589 44 36 C 44 40.411 40.411 44 36 44 C 31.589 44 28 40.411 28 36 C 28 31.589 31.589 28 36 28 z M 14 31 L 24 31 L 24 33 L 14 33 L 14 31 z"/></svg>