<?xml version="1.0" encoding="iso-8859-1"?><!-- Generator: Adobe Illustrator 20.1.0, SVG Export Plug-In . SVG Version: 6.00 Build 0)  --><svg xmlns="http://www.w3.org/2000/svg" xmlns:xlink="http://www.w3.org/1999/xlink" viewBox="0 0 50 50" width="500px" height="500px"><circle style="fill:none;stroke:#000000;stroke-width:2;stroke-linecap:round;stroke-miterlimit:10;" cx="21" cy="20" r="16"/><line style="fill:none;stroke:#000000;stroke-width:4;stroke-miterlimit:10;" x1="32.229" y1="32.229" x2="45.5" y2="45.5"/><path d="M13.87,25v-6.81h-2.64v-1.605c0.369,0.01,0.728-0.017,1.072-0.083c0.345-0.065,0.654-0.18,0.93-0.345c0.275-0.165,0.508-0.383,0.697-0.653c0.19-0.27,0.315-0.605,0.375-1.005H16V25H13.87z"/><path d="M19.83,19.69v-2.31h2.354v2.31H19.83z M22.185,22.69V25H19.83v-2.31H22.185z"/><path d="M26.835,25v-6.81h-2.64v-1.605c0.369,0.01,0.728-0.017,1.072-0.083c0.345-0.065,0.654-0.18,0.93-0.345c0.275-0.165,0.508-0.383,0.697-0.653c0.19-0.27,0.315-0.605,0.375-1.005h1.695V25H26.835z"/></svg>