<?xml version="1.0" encoding="utf-8"?><!-- Generator: Adobe Illustrator 23.0.3, SVG Export Plug-In . SVG Version: 6.00 Build 0)  --><svg xmlns="http://www.w3.org/2000/svg" xmlns:xlink="http://www.w3.org/1999/xlink" viewBox="0 0 50 50" width="500px" height="500px"><style type="text/css">.st0{fill:none;stroke:#000000;stroke-width:2;stroke-linecap:round;stroke-linejoin:round;stroke-miterlimit:10;}</style><path class="st0" d="M32,16h-3V9h3V16z"/><path class="st0" d="M45,43c0,1.1-0.9,2-2,2H7c-1.1,0-2-0.9-2-2V7c0-1.1,0.9-2,2-2h29.8l8.2,8.2V43z"/><path class="st0" d="M37,44.8V29c0-1.1-0.9-2-2-2H15c-1.1,0-2,0.9-2,2v15.8"/><path class="st0" d="M36,18c0,1.1-0.9,2-2,2H15c-1.1,0-2-0.9-2-2V6c0-0.6,0.4-1,1-1h21c0.6,0,1,0.4,1,1V18z"/><rect x="40" y="40" width="2" height="2"/><rect x="8" y="40" width="2" height="2"/></svg>