<?xml version="1.0" encoding="iso-8859-1"?><!-- Generator: Adobe Illustrator 21.1.0, SVG Export Plug-In . SVG Version: 6.00 Build 0)  --><svg xmlns="http://www.w3.org/2000/svg" xmlns:xlink="http://www.w3.org/1999/xlink" viewBox="0 0 50 50" width="500px" height="500px"><g><g><g></g></g></g><line style="fill:none;stroke:#000000;stroke-width:2;stroke-miterlimit:10;" x1="37" y1="15" x2="20" y2="15"/><line style="fill:none;stroke:#000000;stroke-width:2;stroke-miterlimit:10;" x1="17" y1="15" x2="13" y2="15"/><line style="fill:none;stroke:#000000;stroke-width:2;stroke-miterlimit:10;" x1="37" y1="21" x2="20" y2="21"/><line style="fill:none;stroke:#000000;stroke-width:2;stroke-miterlimit:10;" x1="17" y1="21" x2="13" y2="21"/><line style="fill:none;stroke:#000000;stroke-width:2;stroke-miterlimit:10;" x1="37" y1="27" x2="20" y2="27"/><line style="fill:none;stroke:#000000;stroke-width:2;stroke-miterlimit:10;" x1="17" y1="27" x2="13" y2="27"/><line style="fill:none;stroke:#000000;stroke-width:2;stroke-miterlimit:10;" x1="17" y1="33" x2="13" y2="33"/><path d="M43.5,31c-1.7,0-3.3,0.689-4.5,1.772C37.8,31.689,36.2,31,34.5,31c-3.6,0-6.5,2.855-6.5,6.301c0,5.415,5,8.663,8.2,10.731c0.9,0.591,1.6,0.984,2.1,1.477L38.9,50l0.6-0.492c0.5-0.394,1.3-0.886,2.1-1.477C45,45.865,50,42.715,50,37.301C50,33.855,47.1,31,43.5,31z M40.7,46.358c-0.7,0.394-1.2,0.788-1.7,1.083c-0.5-0.394-1-0.689-1.7-1.083c-3.1-1.969-7.3-4.725-7.3-9.057c0-2.363,2-4.332,4.5-4.332c1.5,0,2.8,0.719,3.7,1.999L39,36l0.8-1.032c0.8-1.181,2.2-1.999,3.7-1.999c2.5,0,4.5,1.969,4.5,4.332C48,41.632,43.8,44.389,40.7,46.358z"/><path d="M30.149,46H8V4h34v25.151C42.494,29.062,42.994,29,43.5,29c0.169,0,0.334,0.015,0.5,0.025V2H6v46h26.584C31.77,47.409,30.939,46.747,30.149,46z"/><path d="M27.965,32H20v2h6.705C27.029,33.274,27.453,32.601,27.965,32z"/></svg>