<?xml version="1.0" encoding="iso-8859-1"?><!-- Generator: Adobe Illustrator 23.0.3, SVG Export Plug-In . SVG Version: 6.00 Build 0)  --><svg xmlns="http://www.w3.org/2000/svg" xmlns:xlink="http://www.w3.org/1999/xlink" viewBox="0 0 50 50" width="50px" height="50px"><g><path d="M25,2C12.317,2,2,12.318,2,25s10.317,23,23,23s23-10.318,23-23S37.683,2,25,2z M32,36c-2.152,0-3.293-1.011-3.871-1.858c-0.282-0.414-0.486-0.873-0.626-1.352C26.19,34.484,24.233,36,20.914,36C16.843,36,14,32.906,14,28.477C14,19.64,20.686,14,25.288,14c3.379,0,5.704,1.219,6.957,3.613l0.832-1.998c0.213-0.509,0.801-0.75,1.308-0.538c0.51,0.212,0.751,0.798,0.538,1.308L29.529,29.33c-0.381,1.084-0.424,2.693,0.252,3.685C30.233,33.678,30.959,34,32,34c4.328,0,9-3.441,9-9c0-8.822-7.178-16-16-16S9,16.178,9,25s7.178,16,16,16c3.005,0,5.935-0.838,8.47-2.423c0.469-0.293,1.085-0.149,1.378,0.318c0.293,0.468,0.15,1.085-0.317,1.378C31.676,42.057,28.381,43,25,43c-9.925,0-18-8.075-18-18S15.075,7,25,7s18,8.075,18,18C43,31.794,37.29,36,32,36z"/><path d="M31.096,20.369C30.48,17.357,28.685,16,25.288,16C22.136,16,16,20.404,16,28.477C16,31.226,17.52,34,20.914,34c3.852,0,5.235-2.529,6.457-4.761C27.386,29.211,31.096,20.369,31.096,20.369z"/></g></svg>