<?xml version="1.0" encoding="iso-8859-1"?><!-- Generator: Adobe Illustrator 21.1.0, SVG Export Plug-In . SVG Version: 6.00 Build 0)  --><svg xmlns="http://www.w3.org/2000/svg" xmlns:xlink="http://www.w3.org/1999/xlink" viewBox="0 0 50 50" width="500px" height="500px"><g><g></g></g><path style="fill:none;stroke:#000000;stroke-width:2;stroke-miterlimit:10;" d="M26,23H4c-0.552,0-1-0.448-1-1V4c0-0.552,0.448-1,1-1h28c0.552,0,1,0.448,1,1v18"/><line style="fill:none;stroke:#000000;stroke-width:2;stroke-miterlimit:10;" x1="13" y1="13" x2="3" y2="21"/><line style="fill:none;stroke:#000000;stroke-width:2;stroke-miterlimit:10;" x1="28" y1="18" x2="23" y2="14"/><path style="fill:none;stroke:#000000;stroke-width:2;stroke-miterlimit:10;" d="M33,5c0,0-11.571,9.286-12.5,10.071S18.571,16,18,16s-1.571-0.143-2.5-0.929S3,5,3,5"/><polygon style="fill:none;stroke:#000000;stroke-width:2;stroke-linecap:round;stroke-linejoin:round;stroke-miterlimit:10;" points="12,47 29.5,16 47,47 "/><path d="M30.654,40C30.885,40,31,40.111,31,40.333v2.333C31,42.889,30.885,43,30.654,43h-2.308C28.115,43,28,42.889,28,42.667v-2.333C28,40.111,28.115,40,28.346,40H30.654z"/><path d="M30.64,26c0.24,0,0.36,0.1,0.36,0.3v11.4c0,0.2-0.12,0.3-0.36,0.3h-2.28C28.12,38,28,37.9,28,37.7V26.3c0-0.2,0.12-0.3,0.36-0.3H30.64z"/></svg>