<?xml version="1.0" encoding="iso-8859-1"?><!-- Generator: Adobe Illustrator 19.1.1, SVG Export Plug-In . SVG Version: 6.00 Build 0)  --><svg xmlns="http://www.w3.org/2000/svg" xmlns:xlink="http://www.w3.org/1999/xlink" viewBox="0 0 50 50" width="50px" height="50px"><path d="M48,37V17c0-2.757-2.243-5-5-5H7c-2.757,0-5,2.243-5,5v20c0,2.757,2.243,5,5,5h11c0.15,0,0.298-0.016,0.445-0.033c1.018-0.152,1.898-0.819,2.313-1.785l1.902-5.586C23.084,33.599,23.992,33,25,33c1.009,0,1.917,0.599,2.313,1.526l1.957,5.727c0.39,0.904,1.267,1.563,2.284,1.714C31.702,41.984,31.849,42,32,42h11C45.757,42,48,39.757,48,37z M14.5,33C11.462,33,9,30.538,9,27.5c0-3.038,2.462-5.5,5.5-5.5c3.038,0,5.5,2.462,5.5,5.5C20,30.538,17.538,33,14.5,33z M35.5,33c-3.038,0-5.5-2.462-5.5-5.5c0-3.038,2.462-5.5,5.5-5.5c3.038,0,5.5,2.462,5.5,5.5C41,30.538,38.538,33,35.5,33z"/><g><path d="M25,35c-0.263,0-0.407,0.19-0.478,0.331L23.273,39h3.456l-1.275-3.73C25.365,35.105,25.191,35,25,35z"/></g><g><path d="M7,10h36c0.356,0,0.704,0.035,1.046,0.087C43.137,8.828,41.667,8,40,8H10c-1.667,0-3.137,0.828-4.046,2.087C6.296,10.035,6.644,10,7,10z"/></g></svg>