<?xml version="1.0" encoding="iso-8859-1"?><!-- Generator: Adobe Illustrator 21.1.0, SVG Export Plug-In . SVG Version: 6.00 Build 0)  --><svg xmlns="http://www.w3.org/2000/svg" xmlns:xlink="http://www.w3.org/1999/xlink" viewBox="0 0 50 50" width="500px" height="500px"><path style="fill:none;stroke:#000000;stroke-width:2;stroke-linejoin:round;stroke-miterlimit:10;" d="M5,45V5h40v40H5z"/><path style="fill:none;stroke:#000000;stroke-width:2;stroke-miterlimit:10;" d="M13.667,11.667L13.667,11.667c-1.473,0-2.667,1.193-2.667,2.667v8.043C11,27,16.889,30,19,30s8-3,8-7.624v-8.043c0-1.473-1.193-2.667-2.667-2.667l0,0"/><circle cx="22.5" cy="11.5" r="2.5"/><path d="M15.5,9c1.138,0,2.098,0.76,2.401,1.801C17.965,11.023,18,11.257,18,11.5c0,1.381-1.119,2.5-2.5,2.5S13,12.881,13,11.5S14.119,9,15.5,9z"/><circle style="fill:none;stroke:#000000;stroke-width:2;stroke-miterlimit:10;" cx="36" cy="26" r="3"/><path style="fill:none;stroke:#000000;stroke-width:2;stroke-miterlimit:10;" d="M36,29v2.5c0,4.694-3.806,8.5-8.5,8.5S19,36.194,19,31.5V30"/></svg>