<?xml version="1.0" encoding="iso-8859-1"?>
<!-- Generator: Adobe Illustrator 23.0.3, SVG Export Plug-In . SVG Version: 6.00 Build 0)  -->
<svg version="1.1" id="Layer_1" xmlns="http://www.w3.org/2000/svg" xmlns:xlink="http://www.w3.org/1999/xlink" x="0px" y="0px"
	 viewBox="0 0 50 50" style="enable-background:new 0 0 50 50;" xml:space="preserve">
<path style="fill:none;stroke:#000000;stroke-width:2;" d="M22,8l-4.5,5L14,10"/>
<polyline style="fill:none;stroke:#000000;stroke-width:2;stroke-linecap:round;stroke-linejoin:round;" points="15.681,18 11,18 
	11,4 25,4 25,18 21,18 "/>
<rect x="30" y="4" style="fill:none;stroke:#000000;stroke-width:2;stroke-linecap:round;stroke-linejoin:round;" width="14" height="14"/>
<path style="fill:none;stroke:#000000;stroke-width:2;stroke-linecap:round;stroke-linejoin:round;" d="M33.758,28.013
	C32.261,27.863,31,29.034,31,30.5l0-1.857c0-1.308-0.941-2.499-2.242-2.63C27.261,25.863,26,27.034,26,28.5l0-0.857
	c0-1.308-0.941-2.499-2.242-2.63C22.261,24.863,21,26.034,21,27.5l0-9.857c0-1.308-0.941-2.499-2.242-2.63
	C17.261,14.863,16,16.034,16,17.5v18.464l-5.642-5.642c-0.925-0.925-2.433-1.102-3.445-0.274c-1.164,0.952-1.228,2.672-0.191,3.709
	l10.522,10.491C18.368,45.37,19.892,46,21.48,46H30c3.314,0,6-2.686,6-6l0-9.357C36,29.335,35.059,28.143,33.758,28.013z"/>
</svg>