<?xml version="1.0" encoding="iso-8859-1"?><!-- Generator: Adobe Illustrator 19.1.1, SVG Export Plug-In . SVG Version: 6.00 Build 0)  --><svg xmlns="http://www.w3.org/2000/svg" xmlns:xlink="http://www.w3.org/1999/xlink" viewBox="0 0 50 50" width="500px" height="500px"><g><g><g id="IOS_copy_3_"><path d="M19.2,27.2L16.4,30l2.8,2.8c0.4,0.4,0.4,1,0,1.4c-0.2,0.2-0.5,0.3-0.7,0.3s-0.5-0.1-0.7-0.3L15,31.4l-2.8,2.8c-0.2,0.2-0.5,0.3-0.7,0.3s-0.5-0.1-0.7-0.3c-0.4-0.4-0.4-1,0-1.4l2.8-2.8l-2.8-2.8c-0.4-0.4-0.4-1,0-1.4s1-0.4,1.4,0l2.8,2.8l2.8-2.8c0.4-0.4,1-0.4,1.4,0S19.6,26.8,19.2,27.2z"/></g></g></g><path style="fill:none;stroke:#000000;stroke-width:2;stroke-miterlimit:10;" d="M20,17h-8v-3c0-1.105,0.895-2,2-2h4c1.105,0,2,0.895,2,2V17z"/><polyline style="fill:none;stroke:#000000;stroke-width:2;stroke-linejoin:round;stroke-miterlimit:10;" points="4,9 4,7 26,7 26,14 "/><circle cx="30" cy="7" r="1"/><circle cx="34" cy="7" r="1"/><circle cx="38" cy="7" r="1"/><circle cx="42" cy="7" r="1"/><circle cx="46" cy="7" r="1"/><g><circle cx="38" cy="43" r="1"/><circle cx="42" cy="43" r="1"/></g><g><circle cx="30" cy="43" r="1"/><circle cx="34" cy="43" r="1"/></g><circle cx="46" cy="43" r="1"/><circle cx="46" cy="11" r="1"/><circle cx="46" cy="15" r="1"/><circle cx="46" cy="19" r="1"/><circle cx="46" cy="23" r="1"/><circle cx="46" cy="27" r="1"/><circle cx="46" cy="31" r="1"/><circle cx="46" cy="35" r="1"/><circle cx="46" cy="39" r="1"/><path style="fill:none;stroke:#000000;stroke-width:2;stroke-linecap:round;stroke-linejoin:round;stroke-miterlimit:10;" d="M26,43V17H12v-3c0-1.105-0.895-2-2-2H6c-1.105,0-2,0.895-2,2v29H26z"/><path d="M5,9.101V8H3v2.025C3.584,9.583,4.257,9.253,5,9.101z"/></svg>