<?xml version="1.0" encoding="utf-8"?><!-- Generator: Adobe Illustrator 18.1.1, SVG Export Plug-In . SVG Version: 6.00 Build 0)  --><svg xmlns="http://www.w3.org/2000/svg" xmlns:xlink="http://www.w3.org/1999/xlink" viewBox="0 0 50 50" width="500px" height="500px"><polyline fill="none" stroke="#000000" stroke-width="2" stroke-miterlimit="10" points="27,37 27,26 16,26 "/><line fill="none" stroke="#000000" stroke-width="2" stroke-miterlimit="10" x1="9.8" y1="43.2" x2="26.8" y2="26.2"/><path d="M38,6H12c-1.7,0-3,1.3-3,3v30l2-2V9c0-0.6,0.4-1,1-1h26c0.6,0,1,0.4,1,1v32c0,0.6-0.4,1-1,1H16l-2,2h24c1.7,0,3-1.3,3-3V9C41,7.3,39.7,6,38,6z"/></svg>