<?xml version="1.0" encoding="iso-8859-1"?><!-- Generator: Adobe Illustrator 23.0.3, SVG Export Plug-In . SVG Version: 6.00 Build 0)  --><svg xmlns="http://www.w3.org/2000/svg" xmlns:xlink="http://www.w3.org/1999/xlink" viewBox="0 0 50 50" width="500px" height="500px"><circle cx="25" cy="22" r="2"/><line style="fill:none;stroke:#000000;stroke-width:2;stroke-linecap:round;stroke-linejoin:round;stroke-miterlimit:10;" x1="2.8" y1="2.8" x2="47.2" y2="47.2"/><g><path d="M40.751,45H5V27h17.751l-4.736-4.736c0.038,0.93,0.263,1.861,0.676,2.736H8.314C8.105,23.922,8,22.949,8,22c0-2.823,0.702-5.481,1.924-7.827L8.45,12.699C6.897,15.451,6,18.621,6,22c0,0.966,0.091,1.942,0.277,3H4c-0.552,0-1,0.447-1,1v20c0,0.553,0.448,1,1,1h38.751L40.751,45z"/><path d="M18,32c0,0.553,0.448,1,1,1h9.751l-2-2H19C18.448,31,18,31.447,18,32z"/><path d="M46,25h-2.277C43.909,23.942,44,22.966,44,22c0-10.477-8.523-19-19-19c-6.365,0-11.995,3.157-15.445,7.976l1.427,1.427C14.048,7.937,19.186,5,25,5c9.374,0,17,7.626,17,17c0,0.949-0.105,1.922-0.314,3H31.35c0.426-0.912,0.65-1.923,0.65-3c0-3.859-3.14-7-7-7c-3.085,0-5.706,2.009-6.635,4.786l1.688,1.688C20.32,18.967,22.423,17,25,17c2.757,0,5,2.243,5,5c0,1.138-0.354,2.159-0.995,3h-5.426l2,2H45v18h-1.421l2,2H46c0.552,0,1-0.447,1-1V26C47,25.447,46.552,25,46,25z"/></g></svg>