<?xml version="1.0" encoding="iso-8859-1"?><!-- Generator: Adobe Illustrator 19.1.1, SVG Export Plug-In . SVG Version: 6.00 Build 0)  --><svg xmlns="http://www.w3.org/2000/svg" xmlns:xlink="http://www.w3.org/1999/xlink" viewBox="0 0 50 50" width="500px" height="500px"><path style="fill:none;stroke:#000000;stroke-width:2;stroke-miterlimit:10;" d="M28,14H16V9.004c0-1.105,0.895-2,2-2h8c1.105,0,2,0.895,2,2V14z"/><path style="fill:none;stroke:#000000;stroke-width:2;stroke-miterlimit:10;" d="M46,33.305V15c0-0.552-0.448-1-1-1H16V9.004c0-1.105-0.895-2-2-2H6.006c-1.105,0-2,0.895-2,2V14h0.006v27c0,0.552,0.448,1,1,1H33"/><path style="fill:none;stroke:#000000;stroke-width:2;stroke-miterlimit:10;" d="M40,14H28V9.004c0-1.105,0.895-2,2-2h8c1.105,0,2,0.895,2,2V14z"/><polygon style="fill:none;stroke:#000000;stroke-width:2;stroke-linejoin:round;stroke-miterlimit:10;" points="49,36 46,33 33,33 33,49 49,49 "/><circle cx="41" cy="44" r="2"/><rect x="37" y="36" width="8" height="2"/></svg>