<?xml version="1.0" encoding="iso-8859-1"?><!-- Generator: Adobe Illustrator 22.1.0, SVG Export Plug-In . SVG Version: 6.00 Build 0)  --><svg xmlns="http://www.w3.org/2000/svg" xmlns:xlink="http://www.w3.org/1999/xlink" viewBox="0 0 50 50" width="500px" height="500px"><path style="fill:none;stroke:#000000;stroke-width:2;stroke-linecap:round;stroke-miterlimit:10;" d="M17,33V23c0-0.552,0.448-1,1-1h14c0.552,0,1,0.448,1,1v10c0,0.552-0.448,1-1,1H18C17.448,34,17,33.552,17,33z"/><path style="fill:none;stroke:#000000;stroke-width:2;stroke-linecap:round;stroke-miterlimit:10;" d="M30,22c0,0,0-2.282,0-2.824C30,16.317,27.762,14,25,14s-5,2.317-5,5.176C20,19.718,20,22,20,22"/><polyline style="fill:none;stroke:#000000;stroke-width:2;stroke-linecap:round;stroke-miterlimit:10;" points="34,13 44,13 44,3 "/><path style="fill:none;stroke:#000000;stroke-width:2;stroke-linecap:round;stroke-miterlimit:10;" d="M47,25c0,12.15-9.85,22-22,22S3,37.15,3,25S12.85,3,25,3c7.723,0,14.516,3.979,18.442,10"/><circle cx="25" cy="27" r="2"/><path d="M26,30c0,0.552-0.448,1-1,1s-1-0.448-1-1s0-2,0-2h2C26,28,26,29.724,26,30z"/></svg>