<?xml version="1.0" encoding="iso-8859-1"?><!-- Generator: Adobe Illustrator 21.1.0, SVG Export Plug-In . SVG Version: 6.00 Build 0)  --><svg xmlns="http://www.w3.org/2000/svg" xmlns:xlink="http://www.w3.org/1999/xlink" viewBox="0 0 50 50" width="50px" height="50px"><path d="M46.516,22.414L44.9,22.01c-0.224-1.503-0.615-2.969-1.167-4.373l1.195-1.155c0.646-0.624,0.784-1.604,0.335-2.386l-0.688-1.19c-0.45-0.78-1.369-1.148-2.233-0.904l-1.619,0.463c-0.941-1.179-2.01-2.247-3.188-3.188l0.463-1.618c0.247-0.864-0.124-1.782-0.902-2.232l-1.192-0.688c-0.78-0.45-1.761-0.311-2.384,0.335l-1.157,1.195c-1.406-0.552-2.871-0.943-4.372-1.166l-0.405-1.622C27.367,2.608,26.585,2,25.687,2h-1.375c-0.899,0-1.68,0.608-1.898,1.481l-0.405,1.619c-1.503,0.224-2.968,0.615-4.372,1.167l-1.156-1.194c-0.623-0.646-1.602-0.783-2.386-0.336l-1.192,0.688c-0.779,0.45-1.15,1.368-0.902,2.232l0.463,1.617c-1.178,0.941-2.247,2.01-3.188,3.188l-1.62-0.463c-0.867-0.245-1.783,0.125-2.231,0.903l-0.688,1.192c-0.449,0.779-0.311,1.76,0.335,2.384l1.196,1.156c-0.552,1.404-0.943,2.87-1.167,4.373l-1.615,0.404C2.611,22.63,2,23.411,2,24.313v1.375c0,0.901,0.61,1.682,1.481,1.897L5.1,27.99c0.224,1.503,0.615,2.969,1.167,4.373l-1.195,1.155c-0.646,0.625-0.784,1.605-0.335,2.386l0.688,1.19c0.45,0.78,1.368,1.149,2.233,0.904l1.619-0.463c0.941,1.179,2.01,2.247,3.188,3.188l-0.463,1.618c-0.247,0.864,0.124,1.782,0.902,2.232l1.192,0.688c0.782,0.45,1.762,0.313,2.384-0.335l1.157-1.195c1.406,0.552,2.871,0.943,4.372,1.166l0.405,1.622C22.633,47.392,23.415,48,24.312,48h1.375c0.899,0,1.68-0.609,1.898-1.482l0.405-1.618c1.501-0.224,2.967-0.615,4.373-1.167l1.155,1.194c0.624,0.647,1.604,0.784,2.386,0.336l1.192-0.688c0.779-0.45,1.15-1.368,0.902-2.232l-0.463-1.617c1.178-0.941,2.247-2.01,3.188-3.188l1.62,0.463c0.866,0.245,1.783-0.125,2.231-0.903l0.688-1.192c0.449-0.779,0.311-1.76-0.335-2.384l-1.196-1.156c0.552-1.406,0.944-2.872,1.167-4.373l1.615-0.404C47.389,27.37,48,26.589,48,25.688v-1.375C48,23.411,47.39,22.631,46.516,22.414z M12.884,29.685C12.321,28.23,12,26.654,12,25s0.321-3.23,0.884-4.685l6.22,3.591C19.039,24.261,19,24.626,19,25c0,0.374,0.039,0.739,0.104,1.094L12.884,29.685z M23,37.83c-3.268-0.506-6.133-2.217-8.119-4.679l6.224-3.593c0.554,0.474,1.195,0.845,1.895,1.093V37.83z M23,19.349c-0.701,0.248-1.342,0.619-1.895,1.093l-6.224-3.593c1.986-2.462,4.852-4.173,8.119-4.679V19.349z M27,12.17c3.268,0.506,6.133,2.217,8.119,4.679l-6.224,3.593C28.341,19.968,27.7,19.597,27,19.349V12.17z M27,37.83v-7.179c0.701-0.248,1.342-0.619,1.895-1.093l6.224,3.593C33.133,35.613,30.267,37.324,27,37.83z M37.116,29.685l-6.22-3.591C30.961,25.739,31,25.374,31,25c0-0.374-0.039-0.739-0.104-1.094l6.22-3.591C37.679,21.77,38,23.346,38,25S37.679,28.23,37.116,29.685z"/></svg>