<?xml version="1.0" encoding="iso-8859-1"?><!-- Generator: Adobe Illustrator 21.1.0, SVG Export Plug-In . SVG Version: 6.00 Build 0)  --><svg xmlns="http://www.w3.org/2000/svg" xmlns:xlink="http://www.w3.org/1999/xlink" viewBox="0 0 50 50" width="50px" height="50px"><path d="M43,6H7C5.3,6,4,7.3,4,9v3h42V9C46,7.3,44.7,6,43,6z M8,10c-0.552,0-1-0.448-1-1s0.448-1,1-1s1,0.448,1,1S8.552,10,8,10z M11,10c-0.552,0-1-0.448-1-1s0.448-1,1-1s1,0.448,1,1S11.552,10,11,10z M14,10c-0.552,0-1-0.448-1-1s0.448-1,1-1s1,0.448,1,1S14.552,10,14,10z"/><path d="M4,14v26c0,1.66,1.34,3,3,3h36c1.66,0,3-1.34,3-3V14H4z M37,35c0,1.1-0.9,2-2,2H15c-1.1,0-2-0.9-2-2V20c0-1.1,0.9-2,2-2h20c1.1,0,2,0.9,2,2V35z"/><line style="fill:none;stroke:#000000;stroke-width:2;stroke-miterlimit:10;" x1="11" y1="24" x2="39" y2="24"/></svg>