<?xml version="1.0" encoding="iso-8859-1"?><!-- Generator: Adobe Illustrator 21.1.0, SVG Export Plug-In . SVG Version: 6.00 Build 0)  --><svg xmlns="http://www.w3.org/2000/svg" xmlns:xlink="http://www.w3.org/1999/xlink" viewBox="0 0 50 50" width="50px" height="50px"><g></g><path d="M47,7H3C2.447,7,2,7.447,2,8v34c0,0.553,0.447,1,1,1h44c0.553,0,1-0.447,1-1V8C48,7.447,47.553,7,47,7z M35.5,35c-2.624,0-17.186,0-20.5,0s-6-2.686-6-6c0-2.624,1.687-4.849,4.034-5.664C13.024,23.224,13,23.115,13,23c0-2.209,1.791-4,4-4c0.895,0,1.721,0.294,2.387,0.79c0.195,0.145,0.741,0.644,0.741,0.644c0.125-0.239,0.548-0.973,0.776-1.329C22.406,16.76,24.729,15,28,15c4.418,0,8,3.582,8,8c0,0.347-0.03,0.686-0.072,1.022C38.765,24.24,41,26.607,41,29.5C41,32.538,38.538,35,35.5,35z"/></svg>