<?xml version="1.0" encoding="iso-8859-1"?><!-- Generator: Adobe Illustrator 23.0.3, SVG Export Plug-In . SVG Version: 6.00 Build 0)  --><svg xmlns="http://www.w3.org/2000/svg" xmlns:xlink="http://www.w3.org/1999/xlink" viewBox="0 0 50 50" width="500px" height="500px"><line style="fill:none;stroke:#000000;stroke-width:2;stroke-miterlimit:10;" x1="5" y1="14" x2="45" y2="14"/><circle cx="8" cy="11" r="1"/><circle cx="11" cy="11" r="1"/><circle cx="14" cy="11" r="1"/><g id="IOS_copy_2_"><path d="M44,31c1.1,0,2,0.9,2,2c0,1.1-0.9,2-2,2s-2-0.9-2-2C42,31.9,42.9,31,44,31z M50,35c0,4.4-3.6,8-8,8c-0.3,0-0.7,0-1-0.1V45c0,0.6-0.4,1-1,1h-2v2c0,0.6-0.4,1-1,1h-2.6l-0.7,0.7C33.5,49.9,33.3,50,33,50h-4.9c-0.6,0-1-0.4-1-1v-5c0-0.3,0.1-0.5,0.3-0.7l6.8-6.8C34.1,36,34,35.5,34,35c0-4.4,3.6-8,8-8S50,30.6,50,35z M39,42.4c-0.6-0.2-1.2-0.6-1.7-1l-3.7,3.7c-0.2,0.2-0.5,0.3-0.7,0.3c-0.2,0-0.5-0.1-0.7-0.3c-0.4-0.4-0.4-1,0-1.4l3.6-3.6c-0.4-0.5-0.7-1-1-1.5L29,44.4V48h3.5l0.7-0.7c0.2-0.2,0.4-0.3,0.7-0.3h2v-2c0-0.6,0.4-1,1-1h2v-1.6H39z M48,35c0-3.3-2.7-6-6-6s-6,2.7-6,6s2.7,6,6,6S48,38.3,48,35z"/></g><circle cx="28" cy="32" r="2"/><circle cx="12" cy="32" r="2"/><circle cx="20" cy="32" r="2"/><path d="M26.872,41H7c-0.552,0-1-0.449-1-1V10c0-0.551,0.448-1,1-1h36c0.552,0,1,0.449,1,1v15.201c0.002,0,0.004,0.001,0.006,0.002c0.341,0.07,0.675,0.158,1.002,0.262c0.05,0.016,0.098,0.038,0.148,0.054c0.276,0.092,0.548,0.193,0.813,0.308c0.01,0.004,0.02,0.007,0.03,0.011V10c0-1.654-1.346-3-3-3H7c-1.654,0-3,1.346-3,3v30c0,1.654,1.346,3,3,3h17.872L26.872,41z"/></svg>