<svg xmlns="http://www.w3.org/2000/svg"  viewBox="0 0 50 50" width="500px" height="500px"><path d="M14 11A2 2 0 1 0 14 15 2 2 0 1 0 14 11zM8 11A2 2 0 1 0 8 15 2 2 0 1 0 8 11z"/><path fill="none" stroke="#000" stroke-linejoin="round" stroke-miterlimit="10" stroke-width="2" d="M3 19L47 19"/><path fill="none" stroke="#000" stroke-miterlimit="10" stroke-width="2" d="M20 11H42V15H20z"/><path d="M24.587,42H4V8.893C4,8.4,4.379,8,4.846,8h40.308C45.621,8,46,8.4,46,8.893V26.52c0.719,0.502,1.389,1.067,2,1.691V8.893C48,7.298,46.723,6,45.154,6H4.846C3.277,6,2,7.298,2,8.893V43c0,0.553,0.448,1,1,1h22.365C25.059,43.357,24.794,42.692,24.587,42z"/><path fill="none" stroke="#000" stroke-miterlimit="10" stroke-width="2" d="M38 27A11 11 0 1 0 38 49A11 11 0 1 0 38 27Z"/><path fill="none" stroke="#000" stroke-miterlimit="10" stroke-width="2" d="M38 27A4 11 0 1 0 38 49 4 11 0 1 0 38 27zM27 38L49 38M28.224 33L47.776 33M28.224 43L47.776 43"/></svg>