<?xml version="1.0" encoding="iso-8859-1"?><!-- Generator: Adobe Illustrator 21.1.0, SVG Export Plug-In . SVG Version: 6.00 Build 0)  --><svg xmlns="http://www.w3.org/2000/svg" xmlns:xlink="http://www.w3.org/1999/xlink" viewBox="0 0 50 50" width="500px" height="500px"><rect x="5" y="5" style="fill:none;stroke:#000000;stroke-width:2;stroke-linecap:round;stroke-linejoin:round;stroke-miterlimit:10;" width="40" height="40"/><path style="fill:none;stroke:#000000;stroke-width:2;stroke-linecap:round;stroke-linejoin:round;stroke-miterlimit:10;" d="M20.988,23.022C16.523,23.335,13,27.011,13,31.5c0,4.695,3.853,8.5,8.607,8.5c3.437,0,6.404-1.99,7.784-4.868"/><circle style="fill:none;stroke:#000000;stroke-width:2;stroke-linecap:round;stroke-linejoin:round;stroke-miterlimit:10;" cx="26" cy="13" r="3"/><path style="fill:none;stroke:#000000;stroke-width:2;stroke-linecap:round;stroke-linejoin:round;stroke-miterlimit:10;" d="M32.905,29H28v-3h5.5c0.828,0,1.5-0.672,1.5-1.5l0,0c0-0.828-0.672-1.5-1.5-1.5H28v-2c0-1.105-0.895-2-2-2l0,0c-1.105,0-2,0.895-2,2v9c0,1.105,0.895,2,2,2h6.254l2.789,5.308c0.335,0.758,1.221,1.1,1.979,0.765l0,0c0.758-0.335,1.1-1.221,0.765-1.979l-3.053-5.903C34.414,29.467,33.697,29,32.905,29z"/></svg>