<?xml version="1.0" encoding="iso-8859-1"?>
<!-- Generator: Adobe Illustrator 24.0.0, SVG Export Plug-In . SVG Version: 6.00 Build 0)  -->
<svg version="1.1" id="Layer_1" xmlns="http://www.w3.org/2000/svg" xmlns:xlink="http://www.w3.org/1999/xlink" x="0px" y="0px"
	 viewBox="0 0 50 50" style="enable-background:new 0 0 50 50;" xml:space="preserve">
<path d="M36,5H6C4.9,5,4,5.9,4,7v28c0,1.1,0.9,2,2,2h6v-2H6.97c-0.07,0-0.12-0.03-0.18-0.04c-0.05-0.01-0.1-0.01-0.15-0.03
	c-0.07-0.03-0.14-0.07-0.2-0.12c-0.04-0.02-0.08-0.05-0.12-0.08c-0.05-0.05-0.09-0.1-0.12-0.16c-0.04-0.05-0.08-0.09-0.1-0.15
	c-0.03-0.07-0.05-0.15-0.06-0.23c-0.01-0.04-0.03-0.07-0.03-0.1v-0.05C6.01,34.02,6,34.01,6,34s0-0.01,0-0.02v-4.01
	C6,29.44,6.45,29,7,29s1,0.44,1,0.97V33h4V23c0-3.31,2.69-6,6-6h16v-1.03c0-0.53,0.45-0.97,1-0.97s1,0.44,1,0.97V17h2V7
	C38,5.9,37.1,5,36,5z M8,25.03C8,25.56,7.55,26,7,26s-1-0.44-1-0.97v-2.06C6,22.44,6.45,22,7,22s1,0.44,1,0.97V25.03z M8,19.03
	C8,19.56,7.55,20,7,20s-1-0.44-1-0.97v-2.06C6,16.44,6.45,16,7,16s1,0.44,1,0.97V19.03z M12.03,9H8v3.03C8,12.56,7.55,13,7,13
	s-1-0.44-1-0.97V7.97C6,7.9,6.03,7.85,6.04,7.79c0.01-0.05,0.01-0.1,0.03-0.15C6.1,7.57,6.14,7.5,6.19,7.44
	C6.21,7.4,6.24,7.36,6.27,7.32c0.05-0.05,0.1-0.09,0.16-0.12c0.05-0.04,0.09-0.08,0.15-0.1c0.07-0.03,0.15-0.05,0.23-0.06
	c0.04-0.01,0.07-0.03,0.1-0.03h0.05C6.98,7.01,6.99,7,7,7s0.01,0,0.02,0h5.01C12.56,7,13,7.45,13,8S12.56,9,12.03,9z M19.03,9h-2.06
	C16.44,9,16,8.55,16,8s0.44-1,0.97-1h2.06C19.56,7,20,7.45,20,8S19.56,9,19.03,9z M25.03,9h-2.06C22.44,9,22,8.55,22,8
	s0.44-1,0.97-1h2.06C25.56,7,26,7.45,26,8S25.56,9,25.03,9z M36,12.03c0,0.53-0.45,0.97-1,0.97s-1-0.44-1-0.97V9h-4.03
	C29.44,9,29,8.55,29,8s0.44-1,0.97-1h5.01c0.01,0,0.01,0,0.02,0s0.02,0.01,0.04,0.01h0.05c0.03,0,0.06,0.02,0.1,0.03
	c0.08,0.01,0.16,0.03,0.23,0.06c0.06,0.02,0.1,0.06,0.15,0.1c0.06,0.03,0.11,0.07,0.16,0.12c0.03,0.04,0.06,0.08,0.08,0.12
	c0.05,0.06,0.09,0.13,0.12,0.2c0.02,0.05,0.02,0.1,0.03,0.15C35.97,7.85,36,7.9,36,7.97V12.03z"/>
<path d="M42,19H18c-2.21,0-4,1.79-4,4v19c0,2.21,1.79,4,4,4h24c2.21,0,4-1.79,4-4V23C46,20.79,44.21,19,42,19z M33.22,37.93
	l-1.28,0.57l-1.52-3.56L28,37V27l7,7l-3.39,0.42L33.22,37.93z"/>
</svg>