<?xml version="1.0" encoding="iso-8859-1"?><!-- Generator: Adobe Illustrator 23.0.3, SVG Export Plug-In . SVG Version: 6.00 Build 0)  --><svg xmlns="http://www.w3.org/2000/svg" xmlns:xlink="http://www.w3.org/1999/xlink" viewBox="0 0 50 50" width="50px" height="50px"><path d="M43,7H7c-1.654,0-3,1.346-3,3v30c0,1.654,1.346,3,3,3h15.306c0.216-0.723,0.543-1.396,0.966-2H7c-0.551,0-1-0.449-1-1V15h38v16.943c0.729,0.363,1.4,0.823,2,1.361V10C46,8.346,44.654,7,43,7z M8,12c-0.552,0-1-0.448-1-1c0-0.552,0.448-1,1-1s1,0.448,1,1C9,11.552,8.552,12,8,12z M11,12c-0.552,0-1-0.448-1-1c0-0.552,0.448-1,1-1s1,0.448,1,1C12,11.552,11.552,12,11,12z M14,12c-0.552,0-1-0.448-1-1c0-0.552,0.448-1,1-1s1,0.448,1,1C15,11.552,14.552,12,14,12z"/><path d="M45,50H29c-2.757,0-5-2.243-5-5c0-2.503,1.849-4.583,4.253-4.944C28.862,38.267,30.563,37,32.5,37c0.378,0,0.75,0.049,1.114,0.146C34.724,34.659,37.211,33,40,33c3.86,0,7,3.14,7,7c0,0.138-0.004,0.276-0.013,0.417C48.798,41.193,50,42.969,50,45C50,47.757,47.757,50,45,50z"/></svg>