<?xml version="1.0" encoding="iso-8859-1"?><!-- Generator: Adobe Illustrator 23.0.3, SVG Export Plug-In . SVG Version: 6.00 Build 0)  --><svg xmlns="http://www.w3.org/2000/svg" xmlns:xlink="http://www.w3.org/1999/xlink" viewBox="0 0 50 50" width="50px" height="50px"><g><path d="M21,16c-1.683,0-3,1.317-3,3v3h6v-3C24,17.317,22.683,16,21,16z"/><path d="M47.811,25.414C47.268,24.663,34.357,7,21,7C10.523,7,2,15.523,2,26s8.523,19,19,19c13.357,0,26.268-17.663,26.811-18.414C48.063,26.236,48.063,25.764,47.811,25.414z M29,32c0,1.1-0.9,2-2,2H15c-1.1,0-2-0.9-2-2v-8c0-1.1,0.9-2,2-2h1v-3c0-2.804,2.196-5,5-5s5,2.196,5,5v3h1c1.1,0,2,0.9,2,2V32z"/></g><circle cx="21" cy="27" r="2"/><path d="M22,28h-2v2c0,0.6,0.4,1,1,1l0,0c0.6,0,1-0.4,1-1V28z"/></svg>