<?xml version="1.0" encoding="utf-8"?><!-- Generator: Adobe Illustrator 18.1.1, SVG Export Plug-In . SVG Version: 6.00 Build 0)  --><svg xmlns="http://www.w3.org/2000/svg" xmlns:xlink="http://www.w3.org/1999/xlink" viewBox="0 0 50 50" width="500px" height="500px"><path fill="none" stroke="#000000" stroke-width="2" stroke-linecap="round" stroke-miterlimit="10" d="M24.9,32.5c-0.1-1.6-0.1-2.7-0.1-4.2c0.7-0.4,2-2.8,2.3-4.9c0.6,0,1.5-0.6,1.7-2.8c0.1-1.2-0.4-1.9-0.8-2.1C29,15.7,30.9,7,24.5,6.1c-0.7-1.2-2.4-1.8-4.6-1.8c-8.9,0.2-9.9,6.7-8,14.2c-0.3,0.2-0.9,0.9-0.8,2.1c0.3,2.2,1.2,2.8,1.7,2.8c0.2,2.1,1.6,4.5,2.3,4.9c0,1.5,0.1,2.6-0.1,4.2C13.4,37.2,1.5,35.9,1,45h38C38.5,35.9,26.7,37.2,24.9,32.5z"/><line fill="none" stroke="#000000" stroke-width="2" stroke-miterlimit="10" x1="31" y1="25" x2="50" y2="25"/><line fill="none" stroke="#000000" stroke-width="2" stroke-miterlimit="10" x1="33" y1="17" x2="50" y2="17"/><line fill="none" stroke="#000000" stroke-width="2" stroke-miterlimit="10" x1="33" y1="33" x2="50" y2="33"/></svg>