<?xml version="1.0" encoding="iso-8859-1"?><!-- Generator: Adobe Illustrator 21.1.0, SVG Export Plug-In . SVG Version: 6.00 Build 0)  --><svg xmlns="http://www.w3.org/2000/svg" xmlns:xlink="http://www.w3.org/1999/xlink" viewBox="0 0 50 50" width="50px" height="50px"><path d="M4,12v32c0,0.55,0.45,1,1,1h15.59l3.7,3.71C24.49,48.9,24.74,49,25,49s0.51-0.1,0.71-0.29l3.7-3.71H45c0.55,0,1-0.45,1-1V12H4z M15,37h-3c-0.55,0-1-0.45-1-1s0.45-1,1-1h3c0.55,0,1,0.45,1,1S15.55,37,15,37z M15,31h-3c-0.55,0-1-0.45-1-1s0.45-1,1-1h3c0.55,0,1,0.45,1,1S15.55,31,15,31z M15,25h-3c-0.55,0-1-0.45-1-1s0.45-1,1-1h3c0.55,0,1,0.45,1,1S15.55,25,15,25z M15,19h-3c-0.55,0-1-0.45-1-1s0.45-1,1-1h3c0.55,0,1,0.45,1,1S15.55,19,15,19z M38,37H19c-0.55,0-1-0.45-1-1s0.45-1,1-1h19c0.55,0,1,0.45,1,1S38.55,37,38,37z M38,31H19c-0.55,0-1-0.45-1-1s0.45-1,1-1h19c0.55,0,1,0.45,1,1S38.55,31,38,31z M38,25H19c-0.55,0-1-0.45-1-1s0.45-1,1-1h19c0.55,0,1,0.45,1,1S38.55,25,38,25z M38,19H19c-0.55,0-1-0.45-1-1s0.45-1,1-1h19c0.55,0,1,0.45,1,1S38.55,19,38,19z"/><path d="M46,9v1H4V9c0-2.76,2.24-5,5-5h32C43.76,4,46,6.24,46,9z"/></svg>