<?xml version="1.0" encoding="utf-8"?><!-- Generator: Adobe Illustrator 15.0.0, SVG Export Plug-In . SVG Version: 6.00 Build 0)  --><!DOCTYPE svg PUBLIC "-//W3C//DTD SVG 1.1//EN" "http://www.w3.org/Graphics/SVG/1.1/DTD/svg11.dtd"><svg xmlns="http://www.w3.org/2000/svg" xmlns:xlink="http://www.w3.org/1999/xlink" viewBox="0 0 50 50" width="50px" height="50px"><path d="M34.942,34.238C36.104,33.44,37,32.028,37,30.4c0-1.466-0.709-2.863-1.858-3.673L23.766,15.359l1.161-1.151c0,0-0.692-1.661-0.806-2.578c-1.889-1.645-4.323-2.571-6.834-2.571c-2.747,0-5.337,1.077-7.293,3.033l-7,7c-4.001,4.001-4.001,10.513,0,14.515l9.058,9.059c0.895,1.119,2.188,1.734,3.649,1.734c1.068,0,1.898-0.25,2.582-0.787c0.666-0.439,1.188-1.087,1.452-1.882c0.6,0.399,2.158,1.315,4.107-0.021s1.692-3.479,1.592-3.58c0.6,0.3,2.056,1.038,3.905-0.119s1.695-3.48,1.596-3.581C31.534,34.731,33.354,35.208,34.942,34.238z"/><g><g><path d="M10.565,44.008l-7.074-7.075l-1.398,1.36c-0.97,0.971-2.097,2.869-2.079,5.027c0.013,1.696,0.736,3.286,2.079,4.587c1.36,1.36,2.988,2.079,4.708,2.079c0,0,0,0,0,0c2.196,0,4.029-1.134,4.916-2.089l1.797-1.848C12.372,45.665,11.363,44.973,10.565,44.008z"/></g><g><path d="M49.646,8.876L49.126,7.36l-6.433,6.433c-0.295,0.296-0.892,0.295-1.187,0l-5.3-5.3C36.06,8.346,35.975,8.129,35.975,7.9c0-0.229,0.085-0.445,0.232-0.593l6.434-6.434l-1.517-0.52c-0.674-0.231-1.438-0.348-2.274-0.348c-3.749,0-8.45,2.381-10.656,4.587c-2.283,2.283-2.808,5.219-1.585,8.431c0.045,0.118,0.09,0.232,0.134,0.341c0.176,0.421,0.37,0.844,0.605,1.273l-0.736,0.737l8.017,8.012l0.734-0.735c3.85,2.114,7.498,1.801,10.045-0.845C48.041,19.173,51.001,12.827,49.646,8.876z"/></g></g></svg>