<?xml version="1.0" encoding="iso-8859-1"?><!-- Generator: Adobe Illustrator 23.0.3, SVG Export Plug-In . SVG Version: 6.00 Build 0)  --><svg xmlns="http://www.w3.org/2000/svg" xmlns:xlink="http://www.w3.org/1999/xlink" viewBox="0 0 50 50" width="500px" height="500px"><path style="fill:none;stroke:#000000;stroke-width:2;stroke-miterlimit:10;" d="M44.2,6H5.8C4.8,6,4,6.8,4,7.8V13h42V7.8C46,6.8,45.2,6,44.2,6z"/><line style="fill:none;stroke:#000000;stroke-width:2;stroke-linejoin:round;stroke-miterlimit:10;" x1="15" y1="21" x2="40" y2="21"/><line style="fill:none;stroke:#000000;stroke-width:2;stroke-linejoin:round;stroke-miterlimit:10;" x1="15" y1="28" x2="35" y2="28"/><line style="fill:none;stroke:#000000;stroke-width:2;stroke-linejoin:round;stroke-miterlimit:10;" x1="15" y1="35" x2="35" y2="35"/><g><circle cx="10" cy="21" r="1"/><circle cx="10" cy="28" r="1"/><circle cx="10" cy="35" r="1"/></g><polygon style="fill:none;stroke:#000000;stroke-width:2;stroke-miterlimit:10;" points="35,41 39,41 39,32 44,32 44,41 48,41 41.5,48.48 "/><path d="M47,29V13c0-0.553-0.448-1-1-1s-1,0.447-1,1v16H47z"/><path d="M32.763,43H5V13c0-0.553-0.448-1-1-1s-1,0.447-1,1v31c0,0.553,0.448,1,1,1h30.501L32.763,43z"/></svg>