<?xml version="1.0" encoding="iso-8859-1"?><!-- Generator: Adobe Illustrator 19.1.1, SVG Export Plug-In . SVG Version: 6.00 Build 0)  --><svg xmlns="http://www.w3.org/2000/svg" xmlns:xlink="http://www.w3.org/1999/xlink" viewBox="0 0 50 50" width="50px" height="50px"><path d="M43,7H7c-1.7,0-3,1.3-3,3v3h42v-3C46,8.3,44.7,7,43,7z M8,11c-0.552,0-1-0.448-1-1s0.448-1,1-1s1,0.448,1,1S8.552,11,8,11z M11,11c-0.552,0-1-0.448-1-1s0.448-1,1-1s1,0.448,1,1S11.552,11,11,11z M14,11c-0.552,0-1-0.448-1-1s0.448-1,1-1s1,0.448,1,1S14.552,11,14,11z"/><path d="M4,15v25c0,1.657,1.343,3,3,3h36c1.657,0,3-1.343,3-3V15H4z M33,30h-7v7c0,0.553-0.448,1-1,1s-1-0.447-1-1v-7h-7c-0.552,0-1-0.447-1-1s0.448-1,1-1h7v-7c0-0.552,0.448-1,1-1s1,0.448,1,1v7h7c0.553,0,1,0.447,1,1S33.553,30,33,30z"/></svg>