<?xml version="1.0" encoding="iso-8859-1"?><!-- Generator: Adobe Illustrator 19.2.0, SVG Export Plug-In . SVG Version: 6.00 Build 0)  --><svg xmlns="http://www.w3.org/2000/svg" xmlns:xlink="http://www.w3.org/1999/xlink" viewBox="0 0 50 50" width="500px" height="500px"><g id="Layer_1"><path d="M26.332,39c0.158,0.213,0.345,0.409,0.561,0.581L28.646,41H4v-2H26.332z M46,9v2H4V9H46z M46,24v2H4v-2H46z"/><g><g><g id="IOS_copy"><path d="M49.963,36.941c-0.1-0.4-0.5-0.7-0.9-0.7l-6.68-0.39l-2.39-6.29c-0.1-0.3-0.5-0.6-0.9-0.6c-0.4,0-0.8,0.3-1,0.5l-2.39,6.29l-6.69,0.39c-0.39,0-0.79,0.3-0.89,0.7c-0.1,0.4,0,0.9,0.4,1.1l5.08,4.19l-1.69,6.48c-0.1,0.4,0.1,0.9,0.4,1.1c0.2,0.1,0.4,0.2,0.59,0.2c0.2,0,0.4-0.1,0.6-0.2l5.59-3.59l5.59,3.69c0.29,0.3,0.79,0.2,1.09,0c0.4-0.3,0.5-0.7,0.4-1.1l-1.69-6.48l5.18-4.19C49.963,37.741,50.062,37.341,49.963,36.941z M42.682,41.131c-0.3,0.2-0.4,0.6-0.3,1l1.2,4.59l-3.99-2.59c-0.1-0.1-0.3-0.2-0.5-0.2c-0.2,0-0.4,0.1-0.6,0.1l-3.99,2.59l1.2-4.59c0.1-0.3,0-0.8-0.3-1l-3.69-2.99l4.79-0.2c0.39-0.1,0.69-0.3,0.89-0.7l1.7-4.39l1.6,4.49c0.2,0.3,0.49,0.6,0.89,0.6l4.79,0.3L42.682,41.131z"/></g></g></g></g><g id="&#x421;&#x43B;&#x43E;&#x439;_1"></g></svg>