<?xml version="1.0" encoding="iso-8859-1"?><!-- Generator: Adobe Illustrator 23.0.3, SVG Export Plug-In . SVG Version: 6.00 Build 0)  --><svg xmlns="http://www.w3.org/2000/svg" xmlns:xlink="http://www.w3.org/1999/xlink" viewBox="0 0 50 50" width="500px" height="500px"><circle cx="14" cy="13" r="2"/><circle cx="8" cy="13" r="2"/><line style="fill:none;stroke:#000000;stroke-width:2;stroke-linejoin:round;stroke-miterlimit:10;" x1="3" y1="19" x2="47" y2="19"/><rect x="20" y="11" style="fill:none;stroke:#000000;stroke-width:2;stroke-miterlimit:10;" width="22" height="4"/><g id="IOS_copy_2_"><g><path d="M40,50l-0.5-0.2c-0.3-0.2-9.5-4.9-9.5-17.9v-0.8l0.8-0.2c2.8-0.6,4.3-1.3,5.5-1.9s2.2-1.1,3.7-1.1s2.5,0.5,3.7,1.1s2.7,1.3,5.5,1.9l0.8,0.2v0.8c0,12.6-9.1,17.7-9.5,17.9L40,50z M32,32.7c0.3,9.7,6.2,14,8,15c1.7-1.1,7.7-5.7,8-15c-2.5-0.6-4-1.4-5.2-1.9c-1.1-0.6-1.7-0.9-2.8-0.9s-1.7,0.3-2.8,0.9C36.1,31.3,34.6,32.1,32,32.7z"/></g><g><path d="M40,50l-0.5-0.2c-0.3-0.2-9.5-4.9-9.5-17.9v-0.8l0.8-0.2c2.8-0.6,4.3-1.3,5.5-1.9s2.2-1.1,3.7-1.1s2.5,0.5,3.7,1.1s2.7,1.3,5.5,1.9l0.8,0.2v0.8c0,12.6-9.1,17.7-9.5,17.9L40,50z M32,32.7c0.3,9.7,6.2,14,8,15c1.7-1.1,7.7-5.7,8-15c-2.5-0.6-4-1.4-5.2-1.9c-1.1-0.6-1.7-0.9-2.8-0.9s-1.7,0.3-2.8,0.9C36.1,31.3,34.6,32.1,32,32.7z"/></g></g><path d="M30.045,42H4V8.893C4,8.4,4.379,8,4.846,8h40.309C45.621,8,46,8.4,46,8.893v18.966c0.562,0.232,1.21,0.462,2,0.686V8.893C48,7.298,46.724,6,45.154,6H4.846C3.276,6,2,7.298,2,8.893V43c0,0.552,0.447,1,1,1h28.074C30.711,43.374,30.364,42.713,30.045,42z"/></svg>