<?xml version="1.0" encoding="utf-8"?><!-- Generator: Adobe Illustrator 17.0.0, SVG Export Plug-In . SVG Version: 6.00 Build 0)  --><!DOCTYPE svg PUBLIC "-//W3C//DTD SVG 1.1//EN" "http://www.w3.org/Graphics/SVG/1.1/DTD/svg11.dtd"><svg xmlns="http://www.w3.org/2000/svg" xmlns:xlink="http://www.w3.org/1999/xlink" viewBox="0 0 50 50" width="500px" height="500px"><polygon fill="none" stroke="#000000" stroke-width="2" stroke-linecap="round" stroke-linejoin="round" stroke-miterlimit="10" points="1,46 25,4.431 49,46 "/><path d="M26.221,36.958c0.216,0,0.357,0.144,0.357,0.359v2.618c0,0.215-0.142,0.359-0.357,0.359h-2.439c-0.215,0-0.359-0.143-0.359-0.359v-2.618c0-0.215,0.145-0.359,0.359-0.359H26.221z M26.148,18.905c0.215,0,0.358,0.144,0.358,0.359v14.462c0,0.215-0.143,0.359-0.358,0.359h-2.295c-0.216,0-0.359-0.144-0.359-0.359V19.264c0-0.215,0.144-0.359,0.359-0.359H26.148z"/></svg>