<?xml version="1.0" encoding="iso-8859-1"?><!-- Generator: Adobe Illustrator 21.1.0, SVG Export Plug-In . SVG Version: 6.00 Build 0)  --><svg xmlns="http://www.w3.org/2000/svg" xmlns:xlink="http://www.w3.org/1999/xlink" viewBox="0 0 50 50" width="500px" height="500px"><path style="fill:none;stroke:#000000;stroke-width:2;stroke-miterlimit:10;" d="M31,45h14.993c0.552-0.004,0.997-0.454,0.993-1.007l0.013-32c-0.004-0.552-0.454-0.997-1.007-0.993H33l0-4.012C32.993,5.883,32.092,4.994,30.987,5l-6.999,0.042C22.883,5.048,21.993,5.95,22,7.055L22.006,8"/><path style="fill:none;stroke:#000000;stroke-width:2;stroke-miterlimit:10;" d="M28,16v-4c0-0.552-0.448-1-1-1l-13,0.004V7.005c0-1.105-0.895-2.001-2-2.001L5.001,5C3.896,4.999,3,5.895,3,7l0.006,37c0,0.552,0.448,1,1,1L27,45c0.552,0,1-0.448,1-1v-4"/><polyline style="fill:none;stroke:#000000;stroke-width:2;stroke-miterlimit:10;" points="22,22 27,27.588 22,33.176 "/><polyline style="fill:none;stroke:#000000;stroke-width:2;stroke-miterlimit:10;" points="28,22 33,27.588 28,33.176 "/><polygon points="29,19.089 29,15 27,15 27,16.854 "/><polygon points="27,38.323 27,43 29,43 29,36.087 "/></svg>