<?xml version="1.0" encoding="iso-8859-1"?><!-- Generator: Adobe Illustrator 21.1.0, SVG Export Plug-In . SVG Version: 6.00 Build 0)  --><svg xmlns="http://www.w3.org/2000/svg" xmlns:xlink="http://www.w3.org/1999/xlink" viewBox="0 0 50 50" width="50px" height="50px"><path d="M4,12v32c0,0.55,0.45,1,1,1h15.59l3.7,3.71C24.49,48.9,24.74,49,25,49s0.51-0.1,0.71-0.29l3.7-3.71H45c0.55,0,1-0.45,1-1V12H4z M27,39.62c0,0.23-0.19,0.38-0.48,0.38h-3.04C23.19,40,23,39.85,23,39.62V23.38c0-0.23,0.19-0.38,0.48-0.38h3.04c0.29,0,0.48,0.15,0.48,0.38V39.62z M27,19.57c0,0.26-0.18,0.43-0.46,0.43h-3.09C23.18,20,23,19.83,23,19.57v-3.14c0-0.26,0.18-0.43,0.45-0.43h3.09c0.28,0,0.46,0.17,0.46,0.43V19.57z"/><path d="M46,9v1H4V9c0-2.76,2.24-5,5-5h32C43.76,4,46,6.24,46,9z"/></svg>