<?xml version="1.0" encoding="utf-8"?><!-- Generator: Adobe Illustrator 17.0.0, SVG Export Plug-In . SVG Version: 6.00 Build 0)  --><!DOCTYPE svg PUBLIC "-//W3C//DTD SVG 1.1//EN" "http://www.w3.org/Graphics/SVG/1.1/DTD/svg11.dtd"><svg xmlns="http://www.w3.org/2000/svg" xmlns:xlink="http://www.w3.org/1999/xlink" viewBox="0 0 50 50" width="50px" height="50px"><rect x="0" fill="none" width="50" height="50"/><path d="M49.579,9.98c-0.235-0.236-0.55-0.366-0.887-0.366c-0.534,0-0.962,0.326-1.169,0.512l-6.499,6.537c-0.136,0.023-0.442,0.06-1.05,0.06c-2.187,0-5.241-0.424-5.998-0.748c-0.503-1.1-0.912-5.937-0.579-6.947c1.015-1.014,6.575-6.571,6.613-6.611c0.177-0.198,0.726-0.903,0.384-1.669c-0.131-0.294-0.492-0.787-1.438-0.79l-0.434-0.001c-4.23,0-10.226,0.371-13.433,3.581L24.42,4.202c-4.555,4.585-4.537,11.784,0.044,16.391l5.001,5c2.221,2.229,5.14,3.456,8.219,3.456c3.043,0,5.929-1.212,8.126-3.412l0.661-0.662C49.958,21.49,49.987,14.288,50,11.217C50.004,10.676,49.867,10.271,49.579,9.98z"/><path d="M28.505,27.444l-5.906-5.911l-1.21-1.603L2.3,37.274c-2.021,2.023-3.81,6.653,0,10.464c1.753,1.753,3.594,2.225,5.067,2.225c0.378,0,0.732-0.03,1.054-0.079c1.906-0.287,3.492-1.297,4.371-2.178L30.1,28.663L28.505,27.444z"/></svg>