<?xml version="1.0" encoding="iso-8859-1"?><!-- Generator: Adobe Illustrator 23.0.3, SVG Export Plug-In . SVG Version: 6.00 Build 0)  --><svg xmlns="http://www.w3.org/2000/svg" xmlns:xlink="http://www.w3.org/1999/xlink" viewBox="0 0 50 50" width="50px" height="50px"><path d="M47.811,24.414C47.268,23.663,34.357,6,21,6C10.523,6,2,14.523,2,25s8.523,19,19,19c13.357,0,26.268-17.663,26.811-18.414C48.063,25.236,48.063,24.764,47.811,24.414z M29,33H13c0-4,5.06-3.44,5.835-5.528c0.064-0.715,0.04-1.213,0.04-1.866c-0.325-0.17-0.928-1.253-1.025-2.167c-0.254-0.021-0.655-0.269-0.773-1.249c-0.063-0.526,0.189-0.822,0.342-0.915c-0.86-3.311-0.386-6.203,3.538-6.275c0.981,0,1.736,0.262,2.031,0.78c2.864,0.398,2.004,4.25,1.59,5.495c0.154,0.093,0.405,0.389,0.342,0.915c-0.118,0.98-0.518,1.228-0.773,1.249c-0.098,0.915-0.677,1.997-1.001,2.167c0,0.653-0.024,1.152,0.04,1.866c0.686,1.842,5.428,1.557,5.814,5.058V33z"/></svg>