<?xml version="1.0" encoding="iso-8859-1"?><!-- Generator: Adobe Illustrator 21.1.0, SVG Export Plug-In . SVG Version: 6.00 Build 0)  --><svg xmlns="http://www.w3.org/2000/svg" xmlns:xlink="http://www.w3.org/1999/xlink" viewBox="0 0 50 50" width="50px" height="50px"><path d="M45,4H5C4.45,4,4,4.45,4,5v40c0,0.55,0.45,1,1,1h40c0.55,0,1-0.45,1-1V5C46,4.45,45.55,4,45,4z M37,28.82v2.68c0,5.24-4.26,9.5-9.5,9.5S18,36.74,18,31.5v-0.63c-2.99-0.63-8-3.79-8-8.49v-8.05c0-1.84,1.37-3.35,3.14-3.61C13.47,9.72,14.39,9,15.5,9c1.14,0,2.1,0.76,2.4,1.8c0.07,0.22,0.1,0.46,0.1,0.7c0,1.38-1.12,2.5-2.5,2.5c-0.94,0-1.75-0.53-2.18-1.3C12.57,12.86,12,13.53,12,14.33v8.05c0,3.95,5.25,6.62,7,6.62s7-2.67,7-6.62v-8.05c0-0.8-0.57-1.47-1.32-1.63c-0.43,0.77-1.24,1.3-2.18,1.3c-1.38,0-2.5-1.12-2.5-2.5S21.12,9,22.5,9c1.11,0,2.03,0.72,2.36,1.72c1.77,0.26,3.14,1.77,3.14,3.61v8.05c0,4.7-5.01,7.86-8,8.49v0.63c0,4.14,3.36,7.5,7.5,7.5s7.5-3.36,7.5-7.5v-2.68c-1.16-0.42-2-1.52-2-2.82c0-1.66,1.34-3,3-3s3,1.34,3,3C39,27.3,38.16,28.4,37,28.82z"/></svg>