<?xml version="1.0" encoding="iso-8859-1"?><!-- Generator: Adobe Illustrator 21.1.0, SVG Export Plug-In . SVG Version: 6.00 Build 0)  --><svg xmlns="http://www.w3.org/2000/svg" xmlns:xlink="http://www.w3.org/1999/xlink" viewBox="0 0 50 50" width="50px" height="50px"><g style="display:none;"></g><path d="M45,6H5C3.343,6,2,7.343,2,9v33c0,1.105,0.895,2,2,2h42c1.105,0,2-0.895,2-2V9C48,7.343,46.657,6,45,6z M5,42c-0.552,0-1-0.448-1-1c0-0.552,0.448-1,1-1s1,0.448,1,1C6,41.552,5.552,42,5,42z M5,38c-0.552,0-1-0.448-1-1c0-0.552,0.448-1,1-1s1,0.448,1,1C6,37.552,5.552,38,5,38z M5,34c-0.552,0-1-0.448-1-1c0-0.552,0.448-1,1-1s1,0.448,1,1C6,33.552,5.552,34,5,34z M5,30c-0.552,0-1-0.448-1-1c0-0.552,0.448-1,1-1s1,0.448,1,1C6,29.552,5.552,30,5,30z M5,26c-0.552,0-1-0.448-1-1c0-0.552,0.448-1,1-1s1,0.448,1,1C6,25.552,5.552,26,5,26z M5,22c-0.552,0-1-0.448-1-1c0-0.552,0.448-1,1-1s1,0.448,1,1C6,21.552,5.552,22,5,22z M5,18c-0.552,0-1-0.448-1-1c0-0.552,0.448-1,1-1s1,0.448,1,1C6,17.552,5.552,18,5,18z M5,14c-0.552,0-1-0.448-1-1c0-0.552,0.448-1,1-1s1,0.448,1,1C6,13.552,5.552,14,5,14z M5,10c-0.552,0-1-0.448-1-1c0-0.552,0.448-1,1-1s1,0.448,1,1C6,9.552,5.552,10,5,10z M9,42c-0.552,0-1-0.448-1-1c0-0.552,0.448-1,1-1s1,0.448,1,1C10,41.552,9.552,42,9,42z M9,10c-0.552,0-1-0.448-1-1c0-0.552,0.448-1,1-1s1,0.448,1,1C10,9.552,9.552,10,9,10z M13,42c-0.552,0-1-0.448-1-1c0-0.552,0.448-1,1-1s1,0.448,1,1C14,41.552,13.552,42,13,42z M13,10c-0.552,0-1-0.448-1-1c0-0.552,0.448-1,1-1s1,0.448,1,1C14,9.552,13.552,10,13,10z M17,42c-0.552,0-1-0.448-1-1c0-0.552,0.448-1,1-1s1,0.448,1,1C18,41.552,17.552,42,17,42z M17,18c-0.552,0-1-0.448-1-1c0-0.552,0.448-1,1-1s1,0.448,1,1C18,17.552,17.552,18,17,18z M17,14c-0.552,0-1-0.448-1-1c0-0.552,0.448-1,1-1s1,0.448,1,1C18,13.552,17.552,14,17,14z M17,10c-0.552,0-1-0.448-1-1c0-0.552,0.448-1,1-1s1,0.448,1,1C18,9.552,17.552,10,17,10z M21,42c-0.552,0-1-0.448-1-1c0-0.552,0.448-1,1-1s1,0.448,1,1C22,41.552,21.552,42,21,42z M21,18c-0.552,0-1-0.448-1-1c0-0.552,0.448-1,1-1s1,0.448,1,1C22,17.552,21.552,18,21,18z M25,42c-0.552,0-1-0.448-1-1c0-0.552,0.448-1,1-1s1,0.448,1,1C26,41.552,25.552,42,25,42z M25,18c-0.552,0-1-0.448-1-1c0-0.552,0.448-1,1-1s1,0.448,1,1C26,17.552,25.552,18,25,18z M29,42c-0.552,0-1-0.448-1-1c0-0.552,0.448-1,1-1s1,0.448,1,1C30,41.552,29.552,42,29,42z M29,18c-0.552,0-1-0.448-1-1c0-0.552,0.448-1,1-1s1,0.448,1,1C30,17.552,29.552,18,29,18z M33,42c-0.552,0-1-0.448-1-1c0-0.552,0.448-1,1-1s1,0.448,1,1C34,41.552,33.552,42,33,42z M33,18c-0.552,0-1-0.448-1-1c0-0.552,0.448-1,1-1s1,0.448,1,1C34,17.552,33.552,18,33,18z M37,42c-0.552,0-1-0.448-1-1c0-0.552,0.448-1,1-1s1,0.448,1,1C38,41.552,37.552,42,37,42z M37,18c-0.552,0-1-0.448-1-1c0-0.552,0.448-1,1-1s1,0.448,1,1C38,17.552,37.552,18,37,18z M41,42c-0.552,0-1-0.448-1-1c0-0.552,0.448-1,1-1s1,0.448,1,1C42,41.552,41.552,42,41,42z M41,18c-0.552,0-1-0.448-1-1c0-0.552,0.448-1,1-1s1,0.448,1,1C42,17.552,41.552,18,41,18z M45,42c-0.552,0-1-0.448-1-1c0-0.552,0.448-1,1-1s1,0.448,1,1C46,41.552,45.552,42,45,42z M45,38c-0.552,0-1-0.448-1-1c0-0.552,0.448-1,1-1s1,0.448,1,1C46,37.552,45.552,38,45,38z M45,34c-0.552,0-1-0.448-1-1c0-0.552,0.448-1,1-1s1,0.448,1,1C46,33.552,45.552,34,45,34z M45,30c-0.552,0-1-0.448-1-1c0-0.552,0.448-1,1-1s1,0.448,1,1C46,29.552,45.552,30,45,30z M45,26c-0.552,0-1-0.448-1-1c0-0.552,0.448-1,1-1s1,0.448,1,1C46,25.552,45.552,26,45,26z M45,22c-0.552,0-1-0.448-1-1c0-0.552,0.448-1,1-1s1,0.448,1,1C46,21.552,45.552,22,45,22z M45,18c-0.552,0-1-0.448-1-1c0-0.552,0.448-1,1-1s1,0.448,1,1C46,17.552,45.552,18,45,18z M46,14H20V8h25c0.552,0,1,0.448,1,1V14z"/></svg>