<?xml version="1.0" encoding="iso-8859-1"?>
<!-- Generator: Adobe Illustrator 22.1.0, SVG Export Plug-In . SVG Version: 6.00 Build 0)  -->
<svg version="1.1" id="Layer_1" xmlns="http://www.w3.org/2000/svg" xmlns:xlink="http://www.w3.org/1999/xlink" x="0px" y="0px"
	 viewBox="0 0 50 50" style="enable-background:new 0 0 50 50;" xml:space="preserve">
<g>
	<polygon points="33,49 20,25 33,2 46,25 	"/>
	<path d="M33,50c-0.367,0-0.704-0.201-0.879-0.523l-13-24c-0.164-0.303-0.161-0.668,0.009-0.968l13-23
		c0.354-0.628,1.387-0.628,1.74,0l13,23c0.17,0.3,0.173,0.666,0.009,0.968l-13,24C33.704,49.799,33.367,50,33,50z M21.143,25.01
		L33,46.9l11.857-21.89L33,4.032L21.143,25.01z"/>
</g>
<polyline style="fill:none;stroke:#000000;stroke-width:2;stroke-linecap:round;stroke-linejoin:round;stroke-miterlimit:10;" points="
	25,49 12,25 25,2 "/>
<g>
	<g>
		<path d="M17.001,50c-0.355,0-0.699-0.189-0.88-0.523l-0.715-1.319c-0.264-0.485-0.083-1.093,0.402-1.355s1.093-0.083,1.355,0.402
			l0.715,1.319c0.264,0.485,0.083,1.093-0.402,1.355C17.325,49.961,17.162,50,17.001,50z"/>
	</g>
	<g>
		<path d="M14.436,45.263c-0.355,0-0.699-0.189-0.88-0.523l-1.389-2.563c-0.264-0.486-0.083-1.093,0.402-1.355
			s1.093-0.083,1.355,0.402l1.389,2.563c0.264,0.486,0.083,1.093-0.402,1.355C14.76,45.224,14.597,45.263,14.436,45.263z
			 M11.195,39.281c-0.355,0-0.699-0.189-0.88-0.523l-1.389-2.563c-0.264-0.486-0.083-1.093,0.402-1.355
			c0.485-0.264,1.093-0.083,1.355,0.402l1.389,2.563c0.264,0.486,0.083,1.093-0.402,1.355C11.52,39.242,11.356,39.281,11.195,39.281
			z M7.955,33.301c-0.355,0-0.699-0.189-0.88-0.523l-1.389-2.563c-0.264-0.486-0.083-1.093,0.402-1.355s1.093-0.083,1.355,0.402
			l1.389,2.563c0.264,0.486,0.083,1.093-0.402,1.355C8.279,33.262,8.116,33.301,7.955,33.301z"/>
	</g>
	<g>
		<path d="M4.716,27.319c-0.355,0-0.699-0.189-0.88-0.523l-0.715-1.319c-0.164-0.303-0.161-0.669,0.009-0.969l0.738-1.306
			c0.271-0.481,0.882-0.65,1.362-0.378s0.65,0.882,0.378,1.363L5.143,25.01l0.451,0.833c0.264,0.485,0.083,1.093-0.402,1.355
			C5.04,27.28,4.877,27.319,4.716,27.319z"/>
	</g>
	<g>
		<path d="M6.581,21.432c-0.167,0-0.336-0.042-0.491-0.129c-0.48-0.272-0.65-0.882-0.378-1.363l1.383-2.447
			c0.271-0.481,0.882-0.649,1.362-0.378c0.48,0.272,0.65,0.882,0.378,1.363l-1.383,2.447C7.269,21.25,6.93,21.432,6.581,21.432z
			 M9.808,15.723c-0.167,0-0.336-0.042-0.491-0.129c-0.48-0.272-0.65-0.882-0.378-1.363l1.383-2.446
			c0.271-0.48,0.884-0.65,1.362-0.378c0.48,0.272,0.65,0.882,0.378,1.363l-1.383,2.446C10.495,15.541,10.156,15.723,9.808,15.723z
			 M13.034,10.015c-0.167,0-0.336-0.042-0.491-0.129c-0.48-0.272-0.65-0.882-0.378-1.363l1.383-2.447
			c0.271-0.481,0.884-0.649,1.362-0.378c0.48,0.272,0.65,0.882,0.378,1.363l-1.383,2.447C13.722,9.832,13.383,10.015,13.034,10.015z
			"/>
	</g>
	<g>
		<path d="M16.261,4.306c-0.167,0-0.336-0.042-0.491-0.129c-0.48-0.272-0.65-0.882-0.378-1.363l0.738-1.306
			c0.272-0.481,0.883-0.65,1.362-0.378c0.48,0.272,0.65,0.882,0.378,1.363l-0.738,1.306C16.948,4.123,16.609,4.306,16.261,4.306z"/>
	</g>
</g>
</svg>