<?xml version="1.0" encoding="iso-8859-1"?>
<!-- Generator: Adobe Illustrator 23.0.3, SVG Export Plug-In . SVG Version: 6.00 Build 0)  -->
<svg version="1.1" id="Layer_1" xmlns="http://www.w3.org/2000/svg" xmlns:xlink="http://www.w3.org/1999/xlink" x="0px" y="0px"
	 viewBox="0 0 50 50" style="enable-background:new 0 0 50 50;" xml:space="preserve">
<path d="M44,6H6C4.346,6,3,7.346,3,9v32c0,1.654,1.346,3,3,3h22.999c-0.531-0.617-1.021-1.282-1.444-2H6c-0.551,0-1-0.448-1-1V14h40
	v14.139c0.7,0.124,1.37,0.332,2,0.615V9C47,7.346,45.654,6,44,6z M7,11c-0.552,0-1-0.448-1-1c0-0.552,0.448-1,1-1s1,0.448,1,1
	C8,10.552,7.552,11,7,11z M10,11c-0.552,0-1-0.448-1-1c0-0.552,0.448-1,1-1s1,0.448,1,1C11,10.552,10.552,11,10,11z M13,11
	c-0.552,0-1-0.448-1-1c0-0.552,0.448-1,1-1s1,0.448,1,1C14,10.552,13.552,11,13,11z"/>
<g id="IOS_copy_24_">
	<path d="M43.5,30c-1.7,0-3.3,0.7-4.5,1.8c-1.2-1.1-2.8-1.8-4.5-1.8c-3.6,0-6.5,2.9-6.5,6.4c0,5.5,5,8.8,8.2,10.9
		c0.9,0.6,1.6,1,2.1,1.5l0.6,0.5l0.6-0.5c0.5-0.4,1.3-0.9,2.1-1.5C45,45.1,50,41.9,50,36.4C50,32.9,47.1,30,43.5,30z"/>
</g>
</svg>