<?xml version="1.0" encoding="iso-8859-1"?><!-- Generator: Adobe Illustrator 23.0.3, SVG Export Plug-In . SVG Version: 6.00 Build 0)  --><svg xmlns="http://www.w3.org/2000/svg" xmlns:xlink="http://www.w3.org/1999/xlink" viewBox="0 0 50 50" width="50px" height="50px"><path d="M45.154,6H4.846C3.276,6,2,7.298,2,8.893V43c0,0.552,0.447,1,1,1h28.074c-0.363-0.626-0.71-1.287-1.029-2H4V18h42v9.859c0.562,0.232,1.21,0.462,2,0.686V8.893C48,7.298,46.724,6,45.154,6z M8,14c-1.105,0-2-0.895-2-2c0-1.105,0.895-2,2-2s2,0.895,2,2C10,13.105,9.105,14,8,14z M14,14c-1.105,0-2-0.895-2-2c0-1.105,0.895-2,2-2s2,0.895,2,2C16,13.105,15.105,14,14,14z M42,14H20v-4h22V14z"/><g id="IOS_copy_4_"><g><path d="M40,50l-0.5-0.2c-0.3-0.2-9.5-4.9-9.5-17.9v-0.8l0.8-0.2c2.8-0.6,4.3-1.3,5.5-1.9s2.2-1.1,3.7-1.1s2.5,0.5,3.7,1.1s2.7,1.3,5.5,1.9l0.8,0.2v0.8c0,12.6-9.1,17.7-9.5,17.9L40,50z"/></g><g><path d="M40,50l-0.5-0.2c-0.3-0.2-9.5-4.9-9.5-17.9v-0.8l0.8-0.2c2.8-0.6,4.3-1.3,5.5-1.9s2.2-1.1,3.7-1.1s2.5,0.5,3.7,1.1s2.7,1.3,5.5,1.9l0.8,0.2v0.8c0,12.6-9.1,17.7-9.5,17.9L40,50z"/></g></g></svg>