<?xml version="1.0" encoding="iso-8859-1"?><!-- Generator: Adobe Illustrator 23.0.3, SVG Export Plug-In . SVG Version: 6.00 Build 0)  --><svg xmlns="http://www.w3.org/2000/svg" xmlns:xlink="http://www.w3.org/1999/xlink" viewBox="0 0 50 50" width="50px" height="50px"><polyline style="fill:none;stroke:#000000;stroke-width:4;stroke-linecap:round;stroke-miterlimit:10;" points="44,11 44,17 38,17 "/><polyline style="fill:none;stroke:#000000;stroke-width:4;stroke-linecap:round;stroke-miterlimit:10;" points="6,39 6,33 12,33.001 "/><path style="fill:none;stroke:#000000;stroke-width:4;stroke-linecap:round;stroke-miterlimit:10;" d="M43.974,26C43.454,36.029,35.158,44,25,44c-7.237,0-13.529-4.046-16.737-10"/><path style="fill:none;stroke:#000000;stroke-width:4;stroke-linecap:round;stroke-miterlimit:10;" d="M6.026,24C6.546,13.971,14.842,6,25,6c7.237,0,13.529,4.046,16.737,10"/><path d="M36,27v-4.2l-3.2-0.5c-0.1-0.3-0.3-0.7-0.4-1l1.8-2.7l-2.9-2.9l-2.6,1.9c-0.3-0.2-0.7-0.3-1-0.4L27.1,14h-4.2l-0.5,3.2c-0.3,0.1-0.7,0.3-1,0.4l-2.7-1.9l-3,3l1.8,2.5c-0.2,0.3-0.3,0.7-0.4,1.1L14,22.8V27l3.1,0.5c0.1,0.3,0.3,0.7,0.4,1l-1.8,2.7l3,3l2.7-1.8c0.4,0.2,0.7,0.3,1.1,0.4l0.4,3.2h4.2l0.5-3.2c0.3-0.1,0.7-0.3,1-0.4l2.7,1.8l3-3l-1.9-2.6c0.2-0.3,0.3-0.7,0.4-1L36,27z M25,28c-1.7,0-3-1.3-3-3s1.3-3,3-3s3,1.3,3,3S26.7,28,25,28z"/></svg>