<?xml version="1.0" encoding="iso-8859-1"?><!-- Generator: Adobe Illustrator 23.0.3, SVG Export Plug-In . SVG Version: 6.00 Build 0)  --><svg xmlns="http://www.w3.org/2000/svg" xmlns:xlink="http://www.w3.org/1999/xlink" viewBox="0 0 50 50" width="50px" height="50px"><path d="M48,14H2c-1.103,0-2,0.897-2,2v18c0,1.103,0.897,2,2,2h46c1.103,0,2-0.897,2-2V16C50,14.897,49.103,14,48,14z M10,31H8v-7H5.176v-1.424c0.38,0,0.749-0.032,1.107-0.095s0.683-0.169,0.973-0.316S7.794,21.827,8,21.595C8.206,21.363,8.164,21.337,8.227,21H10V31z M16,31c-1.105,0-2-0.895-2-2c0-1.105,0.895-2,2-2s2,0.895,2,2C18,30.105,17.105,31,16,31z M24,31c-1.105,0-2-0.895-2-2c0-1.105,0.895-2,2-2s2,0.895,2,2C26,30.105,25.105,31,24,31z"/></svg>