<?xml version="1.0" encoding="iso-8859-1"?>
<!-- Generator: Adobe Illustrator 23.0.6, SVG Export Plug-In . SVG Version: 6.00 Build 0)  -->
<svg version="1.1" id="Layer_1" xmlns="http://www.w3.org/2000/svg" xmlns:xlink="http://www.w3.org/1999/xlink" x="0px" y="0px"
	 viewBox="0 0 50 50" style="enable-background:new 0 0 50 50;" xml:space="preserve">
<polyline style="fill:none;stroke:#000000;stroke-width:2;stroke-miterlimit:10;" points="22,3 22,22 3,22 "/>
<rect x="3" y="6" width="14" height="2"/>
<rect x="3" y="12" width="14" height="2"/>
<polyline style="fill:none;stroke:#000000;stroke-width:2;stroke-miterlimit:10;" points="28,3 28,22 47,22 "/>
<rect x="33" y="6" transform="matrix(-1 -4.488999e-11 4.488999e-11 -1 80 14)" width="14" height="2"/>
<rect x="33" y="12" transform="matrix(-1 -4.488999e-11 4.488999e-11 -1 80 26)" width="14" height="2"/>
<polyline style="fill:none;stroke:#000000;stroke-width:2;stroke-miterlimit:10;" points="22,47 22,28 3,28 "/>
<rect x="3" y="42" width="14" height="2"/>
<rect x="3" y="36" width="14" height="2"/>
<polyline style="fill:none;stroke:#000000;stroke-width:2;stroke-miterlimit:10;" points="28,47 28,28 47,28 "/>
<rect x="33" y="42" transform="matrix(-1 4.488975e-11 -4.488975e-11 -1 80 86)" width="14" height="2"/>
<rect x="33" y="36" transform="matrix(-1 4.488975e-11 -4.488975e-11 -1 80 74)" width="14" height="2"/>
</svg>