<?xml version="1.0" encoding="utf-8"?><!-- Generator: Adobe Illustrator 17.0.0, SVG Export Plug-In . SVG Version: 6.00 Build 0)  --><!DOCTYPE svg PUBLIC "-//W3C//DTD SVG 1.1//EN" "http://www.w3.org/Graphics/SVG/1.1/DTD/svg11.dtd"><svg xmlns="http://www.w3.org/2000/svg" xmlns:xlink="http://www.w3.org/1999/xlink" viewBox="0 0 50 50" width="500px" height="500px"><rect x="1" y="1" fill="none" stroke="#000000" stroke-width="2" stroke-linecap="round" stroke-miterlimit="10" width="14" height="14"/><rect x="1" y="18" fill="none" stroke="#000000" stroke-width="2" stroke-linecap="round" stroke-miterlimit="10" width="14" height="14"/><path fill="none" stroke="#000000" stroke-width="2" stroke-linecap="round" stroke-miterlimit="10" d="M1,10.015V15h14v-2.652l-3.82-3.606l-2.547,1.273L5.455,6.197L1,10.015z"/><circle cx="11.5" cy="4.5" r="1.5"/><rect x="1" y="35" fill="none" stroke="#000000" stroke-width="2" stroke-linecap="round" stroke-miterlimit="10" width="14" height="14"/><path d="M12.667,42.006l-0.012-0.004c0.002-0.001,0.012-0.005,0.012-0.005s-1.729-0.669-1.868-1.094c-0.226-0.682,0.501-2.205,0.501-2.205s-1.568,0.842-2.08,0.569C8.707,38.995,8,37.333,8,37.333s-0.573,1.695-1.109,1.923c-0.537,0.228-2.189-0.558-2.189-0.558s0.736,1.653,0.556,2.201c-0.129,0.392-1.925,1.094-1.925,1.094l0.012,0.004c-0.002,0.001-0.012,0.004-0.012,0.004s1.747,0.625,1.868,1.094c0.179,0.696-0.501,2.205-0.501,2.205s1.568-0.842,2.08-0.569C7.292,45.005,8,46.667,8,46.667s0.573-1.695,1.108-1.923c0.537-0.228,2.19,0.558,2.19,0.558s-0.746-1.656-0.556-2.201C10.889,42.676,12.667,42.006,12.667,42.006z M8,43.471c-0.813,0-1.472-0.659-1.472-1.471S7.187,40.529,8,40.529c0.813,0,1.472,0.659,1.472,1.471S8.813,43.471,8,43.471z"/><line fill="none" stroke="#000000" stroke-width="2" stroke-linecap="round" stroke-miterlimit="10" x1="21" y1="5" x2="49" y2="5"/><line fill="none" stroke="#000000" stroke-width="2" stroke-linecap="round" stroke-miterlimit="10" x1="21" y1="11" x2="49" y2="11"/><line fill="none" stroke="#000000" stroke-width="2" stroke-linecap="round" stroke-miterlimit="10" x1="21" y1="22" x2="49" y2="22"/><line fill="none" stroke="#000000" stroke-width="2" stroke-linecap="round" stroke-miterlimit="10" x1="21" y1="28" x2="49" y2="28"/><line fill="none" stroke="#000000" stroke-width="2" stroke-linecap="round" stroke-miterlimit="10" x1="21" y1="39" x2="49" y2="39"/><line fill="none" stroke="#000000" stroke-width="2" stroke-linecap="round" stroke-miterlimit="10" x1="21" y1="45" x2="49" y2="45"/><path fill="none" stroke="#000000" stroke-width="2" stroke-linecap="round" stroke-miterlimit="10" d="M11.983,25.665c0.264-1.024-1.064-1.851-1.366-2.024c-0.038-0.022-0.06-0.033-0.06-0.033s0.416-1.854-0.592-2.432c-1.008-0.577-2.397,0.72-2.397,0.72s-0.08-0.057-0.214-0.133C6.895,21.5,5.8,21,5.073,21.708c-0.941,0.915-0.057,2.502-0.057,2.502s-1.384,1.146-0.949,2.315c0.105,0.282,0.297,0.476,0.527,0.608c0.725,0.415,1.835,0.218,1.835,0.218s0.48,1.017,1.218,1.439c0.211,0.121,0.443,0.193,0.69,0.179c1.115-0.062,1.516-1.991,1.516-1.991S11.684,26.818,11.983,25.665z"/><path d="M8.055,24.856c0,0,0.733,1.609,0.076,1.715c-0.658,0.105-0.294-1.691-0.294-1.691s-1.399,1.188-1.607,0.602c-0.207-0.586,1.518-0.802,1.518-0.802s-1.58-0.918-1.07-1.342c0.511-0.424,1.231,1.195,1.231,1.195s0.378-1.757,0.946-1.432C9.425,23.427,8.1,24.642,8.1,24.642s1.751-0.201,1.653,0.457C9.656,25.758,8.055,24.856,8.055,24.856z"/></svg>