<?xml version="1.0" encoding="iso-8859-1"?><!-- Generator: Adobe Illustrator 21.1.0, SVG Export Plug-In . SVG Version: 6.00 Build 0)  --><svg xmlns="http://www.w3.org/2000/svg" xmlns:xlink="http://www.w3.org/1999/xlink" viewBox="0 0 50 50" width="50px" height="50px"><g><path d="M38.056,24.195c-0.688-0.426-1.709-0.13-2.216,0.654l-2.037,2.748c-0.257,0.346-0.709,0.488-1.116,0.354C32.276,27.814,32,27.431,32,27V14.5c0-0.008,0.004-0.015,0.005-0.023c-0.012-0.82-0.681-1.485-1.505-1.485c-0.808,0-1.464,0.641-1.5,1.44v8.58c0,0.552-0.447,1-1,1s-1-0.448-1-1V11.5c0-0.008,0.004-0.015,0.005-0.023c-0.012-0.82-0.681-1.485-1.505-1.485s-1.492,0.664-1.505,1.485c0,0.008,0.005,0.015,0.005,0.023v11.509c0,0.552-0.447,1-1,1s-1-0.448-1-1v-9.576c-0.036-0.799-0.692-1.44-1.5-1.44c-0.823,0-1.492,0.664-1.505,1.485c0,0.008,0.005,0.015,0.005,0.023v10.509c0,0.552-0.447,1-1,1s-1-0.448-1-1v-6.577c-0.036-0.799-0.692-1.44-1.5-1.44c-0.831,0-1.507,0.676-1.507,1.507l0,0.001c0,0.012,0.007,0.023,0.007,0.035v12.06C14,31.802,14.664,39,23.207,39c5.851,0,7.668-1.849,9.596-4.462c1.998-2.708,5.577-8.102,5.613-8.156c0.253-0.395,0.344-0.863,0.246-1.304C38.579,24.704,38.364,24.39,38.056,24.195z"/><path d="M25,2C12.317,2,2,12.318,2,25s10.317,23,23,23s23-10.318,23-23S37.683,2,25,2z M40.091,27.476c-0.045,0.067-3.651,5.503-5.679,8.25C32.282,38.611,29.969,41,23.207,41C14.936,41,12,34.857,12,29.596v-12.06c0-0.012,0.007-0.023,0.007-0.035l0-0.001c0-1.926,1.567-3.493,3.493-3.493c0.539,0,1.044,0.133,1.5,0.352V13.5c0-0.024,0.012-0.044,0.014-0.068c0.037-1.894,1.584-3.425,3.486-3.425c0.613,0,1.182,0.173,1.683,0.451c0.446-1.415,1.756-2.451,3.317-2.451c1.881,0,3.41,1.498,3.48,3.363c0.462-0.225,0.973-0.363,1.52-0.363c1.902,0,3.449,1.531,3.486,3.425C33.988,14.456,34,14.476,34,14.5v9.475l0.197-0.266c1.065-1.65,3.288-2.216,4.919-1.21c0.771,0.488,1.3,1.249,1.499,2.147C40.828,25.612,40.643,26.617,40.091,27.476z"/></g></svg>