<?xml version="1.0" encoding="iso-8859-1"?><!-- Generator: Adobe Illustrator 23.0.3, SVG Export Plug-In . SVG Version: 6.00 Build 0)  --><svg xmlns="http://www.w3.org/2000/svg" xmlns:xlink="http://www.w3.org/1999/xlink" viewBox="0 0 50 50" width="50px" height="50px"><circle cx="42.006" cy="7.004" r="1"/><circle cx="38.006" cy="7.004" r="1"/><circle cx="46.006" cy="7.004" r="1"/><circle cx="46.006" cy="11.004" r="1"/><circle cx="34.006" cy="7.004" r="1"/><circle cx="26.006" cy="7.004" r="1"/><circle cx="22.006" cy="7.004" r="1"/><circle cx="30.006" cy="7.004" r="1"/><g id="IOS_copy_9_"><path d="M45.9,40c0,0.6-0.4,1-1,1H41v3.9c0,0.6-0.4,1-1,1s-1-0.4-1-1V41h-3.9c-0.6,0-1-0.4-1-1s0.4-1,1-1H39v-3.9c0-0.6,0.4-1,1-1s1,0.4,1,1V39h3.9C45.5,39,45.9,39.4,45.9,40z M50,40c0,5.5-4.5,10-10,10s-10-4.5-10-10s4.5-10,10-10S50,34.5,50,40z M48,40c0-4.4-3.6-8-8-8s-8,3.6-8,8s3.6,8,8,8S48,44.4,48,40z"/></g><path d="M31,40c0-4.971,4.029-9,9-9c2.829,0,5.351,1.308,7.001,3.35L47.006,15c0-1.103-0.897-2-2-2l-25,0.004V9.008c0-1.653-1.345-3-2.999-3L6.013,6.004c0,0,0,0-0.001,0c-0.801,0-1.555,0.312-2.121,0.878s-0.879,1.32-0.879,2.122L3.018,42c0,1.103,0.897,2,2,2h26.929C31.346,42.794,31,41.439,31,40z"/></svg>