<?xml version="1.0" encoding="utf-8"?><!-- Generator: Adobe Illustrator 19.2.0, SVG Export Plug-In . SVG Version: 6.00 Build 0)  --><svg xmlns="http://www.w3.org/2000/svg" xmlns:xlink="http://www.w3.org/1999/xlink" viewBox="0 0 50 50" width="50px" height="50px"><path d="M41,2H10C9.4,2,9,2.4,9,3v44c0,0.6,0.4,1,1,1h31c0.6,0,1-0.4,1-1V3C42,2.4,41.6,2,41,2z M17,41c-1.1,0-2-0.9-2-2s0.9-2,2-2s2,0.9,2,2S18.1,41,17,41z M19,34c0,0.6-0.4,1-1,1h-2c-0.6,0-1-0.4-1-1v-2c0-0.6,0.4-1,1-1h2c0.6,0,1,0.4,1,1V34z M17,29c-1.1,0-2-0.9-2-2s0.9-2,2-2s2,0.9,2,2S18.1,29,17,29z M19,17c0,0.6-0.4,1-1,1h-2c-0.6,0-1-0.4-1-1v-2c0-0.6,0.4-1,1-1h2c0.6,0,1,0.4,1,1V17z M17,12c-1.1,0-2-0.9-2-2s0.9-2,2-2s2,0.9,2,2S18.1,12,17,12z M34,40H23c-0.6,0-1-0.4-1-1s0.4-1,1-1h11c0.6,0,1,0.4,1,1S34.6,40,34,40z M34,34H23c-0.6,0-1-0.4-1-1s0.4-1,1-1h11c0.6,0,1,0.4,1,1S34.6,34,34,34z M34,28H23c-0.6,0-1-0.4-1-1s0.4-1,1-1h11c0.6,0,1,0.4,1,1S34.6,28,34,28z M34,17H23c-0.6,0-1-0.4-1-1s0.4-1,1-1h11c0.6,0,1,0.4,1,1S34.6,17,34,17z M34,11H23c-0.6,0-1-0.4-1-1s0.4-1,1-1h11c0.6,0,1,0.4,1,1S34.6,11,34,11z"/></svg>