<?xml version="1.0" encoding="iso-8859-1"?><!-- Generator: Adobe Illustrator 19.1.0, SVG Export Plug-In . SVG Version: 6.00 Build 0)  --><svg xmlns="http://www.w3.org/2000/svg" xmlns:xlink="http://www.w3.org/1999/xlink" viewBox="0 0 50 50" width="500px" height="500px"><path style="fill:none;stroke:#000000;stroke-width:2;stroke-linecap:round;stroke-linejoin:round;stroke-miterlimit:10;" d="M32,16h-3V7h3V16z"/><path d="M48,16.366V12c0-0.266-0.105-0.52-0.293-0.707l-9-9C38.52,2.105,38.266,2,38,2H5C3.346,2,2,3.346,2,5v40c0,1.654,1.346,3,3,3h40c1.654,0,3-1.346,3-3V28l-2,2v15c0,0.552-0.448,1-1,1H5c-0.552,0-1-0.448-1-1V5c0-0.552,0.448-1,1-1h32.586L46,12.414V16C47.101,16,48,16.366,48,16.366z"/><path d="M12.8,26c-1.544,0-2.8,1.256-2.8,2.8V47h2V28.8c0-0.441,0.358-0.8,0.8-0.8H32l2-2H12.8z"/><polygon points="38,38 38,47 40,47 40,36 "/><path style="fill:none;stroke:#000000;stroke-width:2;stroke-linecap:round;stroke-linejoin:round;stroke-miterlimit:10;" d="M36,19c0,0.552-0.448,1-1,1H12c-0.552,0-1-0.448-1-1V4c0-0.552,0.448-1,1-1h23c0.552,0,1,0.448,1,1V19z"/><rect x="42" y="41" width="2" height="2"/><rect x="6" y="41" width="2" height="2"/><g><polyline style="fill:none;stroke:#000000;stroke-width:2;stroke-linecap:round;stroke-linejoin:round;stroke-miterlimit:10;" points="47.68,24.694 31.978,40.396 26,42 27.603,36.022 43.306,20.321 "/><path d="M48.115,25.648c-0.004,0.003,0.69-0.691,0.69-0.691c1.592-1.592,1.592-4.173,0.002-5.764c-1.594-1.593-4.174-1.591-5.765,0c0,0-0.695,0.695-0.691,0.691L48.115,25.648z"/><polygon points="27.749,35.877 32.123,40.251 26.378,41.622 "/></g></svg>