<?xml version="1.0" encoding="iso-8859-1"?><!-- Generator: Adobe Illustrator 23.0.3, SVG Export Plug-In . SVG Version: 6.00 Build 0)  --><svg xmlns="http://www.w3.org/2000/svg" xmlns:xlink="http://www.w3.org/1999/xlink" viewBox="0 0 50 50" width="50px" height="50px"><g><path d="M22,29h23c0.553,0,1-0.447,1-1V7c0-1.654-1.346-3-3-3H24c-1.654,0-3,1.346-3,3v21C21,28.553,21.447,29,22,29z M23,27V11h21v16H23z"/><path d="M7,22h12v7H6v15h21V31h2v14c0,0.553-0.447,1-1,1H5c-0.553,0-1-0.447-1-1V25C4,23.346,5.346,22,7,22z"/></g></svg>