<?xml version="1.0" encoding="iso-8859-1"?><!-- Generator: Adobe Illustrator 22.1.0, SVG Export Plug-In . SVG Version: 6.00 Build 0)  --><svg xmlns="http://www.w3.org/2000/svg" xmlns:xlink="http://www.w3.org/1999/xlink" viewBox="0 0 50 50" width="50px" height="50px"><g></g><line style="fill:none;stroke:#000000;stroke-width:2;stroke-linecap:round;stroke-miterlimit:10;" x1="1" y1="22" x2="2" y2="38"/><line style="fill:none;stroke:#000000;stroke-width:2;stroke-linecap:round;stroke-miterlimit:10;" x1="49" y1="22" x2="48" y2="38"/><path d="M4.228,37.27C4.088,37.811,4,38.389,4,39c0,2.761,1.567,5,3.5,5c1.114,0,2.095-0.758,2.736-1.917C7.783,41.113,5.688,39.426,4.228,37.27z"/><path d="M39,18H11c-3.859,0-7,3.141-7,7v5c0,6.065,4.935,11,11,11h20c6.065,0,11-4.935,11-11v-5C46,21.141,42.859,18,39,18z M27,24h-4c-0.553,0-1-0.447-1-1s0.447-1,1-1h4c0.553,0,1,0.447,1,1S27.553,24,27,24z"/><path d="M28,16V8c0-0.082-0.034-2-3-2s-3,1.918-3,2v8H28z"/><path d="M45.772,37.27C45.912,37.811,46,38.389,46,39c0,2.761-1.567,5-3.5,5c-1.114,0-2.095-0.758-2.736-1.917C42.217,41.113,44.312,39.426,45.772,37.27z"/></svg>