<?xml version="1.0" encoding="utf-8"?><!-- Generator: Adobe Illustrator 17.0.0, SVG Export Plug-In . SVG Version: 6.00 Build 0)  --><!DOCTYPE svg PUBLIC "-//W3C//DTD SVG 1.1//EN" "http://www.w3.org/Graphics/SVG/1.1/DTD/svg11.dtd"><svg xmlns="http://www.w3.org/2000/svg" xmlns:xlink="http://www.w3.org/1999/xlink" viewBox="0 0 50 50" width="500px" height="500px"><rect x="1" y="1" fill="none" stroke="#000000" stroke-width="2" stroke-linecap="round" stroke-miterlimit="10" width="48" height="48"/><line fill="none" stroke="#000000" stroke-width="2" stroke-linecap="round" stroke-miterlimit="10" x1="17" y1="49" x2="17" y2="1"/><line fill="none" stroke="#000000" stroke-width="2" stroke-linecap="round" stroke-miterlimit="10" x1="33" y1="49" x2="33" y2="1"/><line fill="none" stroke="#000000" stroke-width="2" stroke-linecap="round" stroke-miterlimit="10" x1="1" y1="17" x2="49" y2="17"/><line fill="none" stroke="#000000" stroke-width="2" stroke-linecap="round" stroke-miterlimit="10" x1="1" y1="33" x2="49" y2="33"/><path fill="none" stroke="#000000" stroke-width="2" stroke-linecap="round" stroke-miterlimit="10" d="M17,13.97l-4.366-4.121l-2.911,1.455L6.091,6.939L1,11.303"/><circle cx="12.5" cy="5.5" r="1.5"/><path fill="none" stroke="#000000" stroke-width="2" stroke-linecap="round" stroke-miterlimit="10" d="M33,29.97l-4.366-4.121l-2.911,1.455l-3.633-4.364L17,27.303"/><circle cx="28.5" cy="21.5" r="1.5"/><circle cx="37.5" cy="5.5" r="1.5"/><path d="M30,9.006l-0.013-0.004C29.989,9.001,30,8.997,30,8.997s-1.852-0.717-2.002-1.172c-0.242-0.731,0.537-2.362,0.537-2.362s-1.68,0.903-2.229,0.61C25.758,5.781,25,4,25,4s-0.614,1.816-1.188,2.06c-0.575,0.244-2.345-0.598-2.345-0.598s0.789,1.771,0.596,2.359C21.924,8.241,20,8.994,20,8.994l0.013,0.004C20.011,8.999,20,9.003,20,9.003s1.872,0.669,2.002,1.172c0.192,0.745-0.537,2.362-0.537,2.362s1.68-0.903,2.229-0.61C24.242,12.219,25,14,25,14s0.614-1.816,1.187-2.06c0.575-0.244,2.346,0.598,2.346,0.598s-0.799-1.774-0.596-2.359C28.096,9.724,30,9.006,30,9.006z M25,10.652c-0.913,0-1.654-0.74-1.654-1.652S24.087,7.348,25,7.348c0.913,0,1.654,0.74,1.654,1.652S25.913,10.652,25,10.652z"/><path fill="none" stroke="#000000" stroke-width="2" stroke-linecap="round" stroke-miterlimit="10" d="M44.728,9.597C44.539,8.684,43.722,8,42.77,8c-0.686,0-1.326,0.359-1.689,0.931c-0.861-0.093-1.567,0.456-1.78,1.224C38.576,10.199,38,10.803,38,11.538c0,0.764,0.621,1.385,1.384,1.385h4.924c0.933,0,1.692-0.759,1.692-1.693C46,10.449,45.468,9.785,44.728,9.597z"/><path fill="none" stroke="#000000" stroke-width="2" stroke-linecap="round" stroke-miterlimit="10" d="M13.957,25.827c0.329-1.275-1.325-2.304-1.7-2.519c-0.047-0.027-0.074-0.041-0.074-0.041s0.518-2.308-0.737-3.027c-1.255-0.718-2.984,0.896-2.984,0.896s-0.099-0.07-0.266-0.166c-0.571-0.327-1.933-0.949-2.838-0.068c-1.171,1.139-0.071,3.114-0.071,3.114s-1.722,1.426-1.182,2.882c0.131,0.351,0.369,0.593,0.656,0.757c0.903,0.517,2.283,0.272,2.283,0.272s0.598,1.265,1.516,1.791c0.262,0.15,0.551,0.24,0.859,0.223c1.388-0.077,1.886-2.478,1.886-2.478S13.586,27.263,13.957,25.827z"/><path d="M9.068,24.821c0,0,0.913,2.003,0.095,2.134c-0.818,0.13-0.366-2.104-0.366-2.104s-1.742,1.479-2,0.749c-0.258-0.729,1.889-0.998,1.889-0.998s-1.967-1.143-1.332-1.671c0.636-0.527,1.533,1.487,1.533,1.487s0.47-2.187,1.178-1.782c0.708,0.405-0.941,1.918-0.941,1.918s2.18-0.25,2.058,0.569C11.061,25.943,9.068,24.821,9.068,24.821z"/><path d="M46,25.006l-0.013-0.004C45.989,25.001,46,24.997,46,24.997s-1.852-0.717-2.002-1.172c-0.242-0.731,0.537-2.362,0.537-2.362s-1.68,0.903-2.229,0.61C41.758,21.781,41,20,41,20s-0.614,1.816-1.188,2.06c-0.575,0.244-2.345-0.598-2.345-0.598s0.789,1.771,0.596,2.359C37.924,24.241,36,24.994,36,24.994l0.013,0.004C36.011,24.999,36,25.003,36,25.003s1.872,0.669,2.002,1.172c0.192,0.745-0.537,2.362-0.537,2.362s1.68-0.903,2.229-0.61C40.242,28.219,41,30,41,30s0.614-1.816,1.187-2.06c0.575-0.244,2.346,0.598,2.346,0.598s-0.799-1.774-0.596-2.359C44.096,25.724,46,25.006,46,25.006z M41,26.652c-0.913,0-1.654-0.74-1.654-1.652s0.74-1.652,1.654-1.652c0.913,0,1.654,0.74,1.654,1.652S41.913,26.652,41,26.652z"/><path d="M14,41.006l-0.013-0.004C13.989,41.001,14,40.997,14,40.997s-1.852-0.717-2.002-1.172c-0.242-0.731,0.537-2.362,0.537-2.362s-1.68,0.903-2.229,0.61C9.758,37.781,9,36,9,36s-0.614,1.816-1.188,2.06c-0.575,0.244-2.345-0.598-2.345-0.598s0.789,1.771,0.596,2.359C5.924,40.241,4,40.994,4,40.994l0.013,0.004C4.011,40.999,4,41.003,4,41.003s1.872,0.669,2.002,1.172c0.192,0.745-0.537,2.362-0.537,2.362s1.68-0.903,2.229-0.61C8.242,44.219,9,46,9,46s0.614-1.816,1.187-2.06c0.575-0.244,2.346,0.598,2.346,0.598s-0.799-1.774-0.596-2.359C12.096,41.724,14,41.006,14,41.006z M9,42.652c-0.913,0-1.654-0.74-1.654-1.652S8.087,39.348,9,39.348c0.913,0,1.654,0.74,1.654,1.652S9.913,42.652,9,42.652z"/><circle cx="21.5" cy="37.5" r="1.5"/><path fill="none" stroke="#000000" stroke-width="2" stroke-linecap="round" stroke-miterlimit="10" d="M28.728,41.597C28.539,40.684,27.722,40,26.77,40c-0.686,0-1.326,0.359-1.689,0.931c-0.861-0.093-1.567,0.456-1.78,1.224C22.576,42.199,22,42.803,22,43.538c0,0.764,0.621,1.385,1.384,1.385h4.924c0.933,0,1.692-0.759,1.692-1.693C30,42.449,29.468,41.785,28.728,41.597z"/><path fill="none" stroke="#000000" stroke-width="2" stroke-linecap="round" stroke-miterlimit="10" d="M45.957,41.827c0.329-1.275-1.325-2.304-1.7-2.519c-0.047-0.027-0.074-0.041-0.074-0.041s0.518-2.308-0.737-3.027c-1.255-0.718-2.984,0.896-2.984,0.896s-0.099-0.07-0.266-0.166c-0.571-0.327-1.933-0.949-2.838-0.068c-1.171,1.139-0.071,3.114-0.071,3.114s-1.722,1.426-1.182,2.882c0.131,0.351,0.369,0.593,0.656,0.757c0.903,0.517,2.283,0.272,2.283,0.272s0.598,1.265,1.516,1.791c0.262,0.15,0.551,0.24,0.859,0.223c1.388-0.077,1.886-2.478,1.886-2.478S45.586,43.263,45.957,41.827z"/><path d="M41.068,40.821c0,0,0.913,2.003,0.095,2.134c-0.818,0.13-0.366-2.104-0.366-2.104s-1.742,1.479-2,0.749c-0.258-0.729,1.889-0.998,1.889-0.998s-1.967-1.143-1.332-1.671c0.636-0.527,1.533,1.487,1.533,1.487s0.47-2.187,1.178-1.782c0.708,0.405-0.941,1.918-0.941,1.918s2.18-0.25,2.058,0.569C43.061,41.943,41.068,40.821,41.068,40.821z"/></svg>