<?xml version="1.0" encoding="iso-8859-1"?><!-- Generator: Adobe Illustrator 23.0.3, SVG Export Plug-In . SVG Version: 6.00 Build 0)  --><svg xmlns="http://www.w3.org/2000/svg" xmlns:xlink="http://www.w3.org/1999/xlink" viewBox="0 0 50 50" width="500px" height="500px"><circle cx="41.994" cy="7.004" r="1"/><circle cx="37.994" cy="7.004" r="1"/><circle cx="45.994" cy="7.004" r="1"/><circle cx="45.994" cy="11.004" r="1"/><circle cx="33.994" cy="7.004" r="1"/><circle cx="25.994" cy="7.004" r="1"/><circle cx="21.994" cy="7.004" r="1"/><circle cx="29.994" cy="7.004" r="1"/><g id="IOS_copy_1_"><path d="M45.9,40c0,0.6-0.4,1-1,1H41v3.9c0,0.6-0.4,1-1,1s-1-0.4-1-1V41h-3.9c-0.6,0-1-0.4-1-1s0.4-1,1-1H39v-3.9c0-0.6,0.4-1,1-1s1,0.4,1,1V39h3.9C45.5,39,45.9,39.4,45.9,40z M50,40c0,5.5-4.5,10-10,10s-10-4.5-10-10s4.5-10,10-10S50,34.5,50,40z M48,40c0-4.4-3.6-8-8-8s-8,3.6-8,8s3.6,8,8,8S48,44.4,48,40z"/></g><path d="M28.18,42H5.006L5,9.004c0-0.267,0.104-0.519,0.293-0.708C5.481,8.108,5.732,8.004,6,8.004c0,0,0,0,0.001,0l10.994,0.004c0.551,0,0.999,0.449,0.999,1v5.996l27-0.004v14.099c0.707,0.324,1.375,0.714,2,1.164V15c0-1.103-0.897-2-2-2l-25,0.004V9.008c0-1.653-1.345-3-2.999-3L6.001,6.004c0,0,0,0-0.001,0c-0.801,0-1.555,0.312-2.121,0.878C3.312,7.449,3,8.202,3,9.004L3.006,42c0,1.103,0.897,2,2,2h23.692C28.47,43.356,28.296,42.689,28.18,42z"/></svg>