<?xml version="1.0" encoding="iso-8859-1"?>
<!-- Generator: Adobe Illustrator 24.0.1, SVG Export Plug-In . SVG Version: 6.00 Build 0)  -->
<svg version="1.1" id="Layer_1" xmlns="http://www.w3.org/2000/svg" xmlns:xlink="http://www.w3.org/1999/xlink" x="0px" y="0px"
	 viewBox="0 0 50 50" style="enable-background:new 0 0 50 50;" xml:space="preserve">
<polygon points="23,3 23,23 3,23 3,14 17,14 17,12 3,12 3,8 17,8 17,6 3,6 3,3 "/>
<polygon points="33,6 33,8 47,8 47,12 33,12 33,14 47,14 47,23 27,23 27,3 47,3 47,6 "/>
<polygon points="23,27 23,47 3,47 3,44 17,44 17,42 3,42 3,38 17,38 17,36 3,36 3,27 "/>
<polygon points="33,36 33,38 47,38 47,42 33,42 33,44 47,44 47,47 27,47 27,27 47,27 47,36 "/>
</svg>