<?xml version="1.0" encoding="iso-8859-1"?><!-- Generator: Adobe Illustrator 21.1.0, SVG Export Plug-In . SVG Version: 6.00 Build 0)  --><svg xmlns="http://www.w3.org/2000/svg" xmlns:xlink="http://www.w3.org/1999/xlink" viewBox="0 0 50 50" width="500px" height="500px"><rect x="5" y="5" style="fill:none;stroke:#000000;stroke-width:2;stroke-linecap:round;stroke-linejoin:round;stroke-miterlimit:10;" width="40" height="40"/><path style="fill:none;stroke:#000000;stroke-width:2;stroke-linecap:round;stroke-linejoin:round;stroke-miterlimit:10;" d="M11,18h7v-7h-7V18z"/><path style="fill:none;stroke:#000000;stroke-width:2;stroke-linecap:round;stroke-linejoin:round;stroke-miterlimit:10;" d="M11,31h7v-7h-7V31z"/><line style="fill:none;stroke:#000000;stroke-width:2;stroke-linejoin:round;stroke-miterlimit:10;" x1="5" y1="37" x2="45" y2="37"/><g><circle cx="13" cy="34" r="1"/><circle cx="10" cy="31" r="1"/><circle cx="7" cy="34" r="1"/><circle cx="7" cy="28" r="1"/><circle cx="16" cy="31" r="1"/><circle cx="10" cy="13" r="1"/><circle cx="7" cy="16" r="1"/><circle cx="16" cy="19" r="1"/><circle cx="10" cy="19" r="1"/><circle cx="7" cy="10" r="1"/><circle cx="13" cy="10" r="1"/><circle cx="10" cy="7" r="1"/><circle cx="16" cy="7" r="1"/><circle cx="13" cy="22" r="1"/><circle cx="10" cy="25" r="1"/><circle cx="7" cy="22" r="1"/><circle cx="31" cy="34" r="1"/><circle cx="28" cy="31" r="1"/><circle cx="25" cy="34" r="1"/><circle cx="22" cy="31" r="1"/><circle cx="19" cy="34" r="1"/><circle cx="25" cy="28" r="1"/><circle cx="31" cy="28" r="1"/><circle cx="34" cy="31" r="1"/><circle cx="19" cy="28" r="1"/><circle cx="31" cy="16" r="1"/><circle cx="28" cy="13" r="1"/><circle cx="25" cy="16" r="1"/><circle cx="22" cy="13" r="1"/><circle cx="19" cy="16" r="1"/><circle cx="34" cy="19" r="1"/><circle cx="28" cy="19" r="1"/><circle cx="22" cy="19" r="1"/><circle cx="25" cy="10" r="1"/><circle cx="31" cy="10" r="1"/><circle cx="34" cy="13" r="1"/><circle cx="19" cy="10" r="1"/><circle cx="28" cy="7" r="1"/><circle cx="22" cy="7" r="1"/><circle cx="34" cy="7" r="1"/><circle cx="31" cy="22" r="1"/><circle cx="28" cy="25" r="1"/><circle cx="25" cy="22" r="1"/><circle cx="22" cy="25" r="1"/><circle cx="19" cy="22" r="1"/><circle cx="34" cy="25" r="1"/><circle cx="43" cy="34" r="1"/><circle cx="40" cy="31" r="1"/><circle cx="37" cy="34" r="1"/><circle cx="43" cy="28" r="1"/><circle cx="37" cy="28" r="1"/><circle cx="43" cy="16" r="1"/><circle cx="40" cy="13" r="1"/><circle cx="37" cy="16" r="1"/><circle cx="40" cy="19" r="1"/><circle cx="43" cy="10" r="1"/><circle cx="37" cy="10" r="1"/><circle cx="40" cy="7" r="1"/><circle cx="43" cy="22" r="1"/><circle cx="40" cy="25" r="1"/><circle cx="37" cy="22" r="1"/></g></svg>