<?xml version="1.0" encoding="iso-8859-1"?><!-- Generator: Adobe Illustrator 19.1.1, SVG Export Plug-In . SVG Version: 6.00 Build 0)  --><svg xmlns="http://www.w3.org/2000/svg" xmlns:xlink="http://www.w3.org/1999/xlink" viewBox="0 0 50 50" width="500px" height="500px"><g><g><g id="IOS_copy_5_"><path d="M39.2,27.2L36.4,30l2.8,2.8c0.4,0.4,0.4,1,0,1.4c-0.2,0.2-0.5,0.3-0.7,0.3s-0.5-0.1-0.7-0.3L35,31.4l-2.8,2.8c-0.2,0.2-0.5,0.3-0.7,0.3s-0.5-0.1-0.7-0.3c-0.4-0.4-0.4-1,0-1.4l2.8-2.8l-2.8-2.8c-0.4-0.4-0.4-1,0-1.4s1-0.4,1.4,0l2.8,2.8l2.8-2.8c0.4-0.4,1-0.4,1.4,0S39.6,26.8,39.2,27.2z"/></g></g></g><path style="fill:none;stroke:#000000;stroke-width:2;stroke-miterlimit:10;" d="M40,17h-8v-3c0-1.105,0.895-2,2-2h4c1.105,0,2,0.895,2,2V17z"/><polyline style="fill:none;stroke:#000000;stroke-width:2;stroke-linejoin:round;stroke-miterlimit:10;" points="24,9 24,7 46,7 46,14 "/><circle cx="20" cy="7" r="1"/><circle cx="16" cy="7" r="1"/><circle cx="12" cy="7" r="1"/><circle cx="8" cy="7" r="1"/><circle cx="4" cy="7" r="1"/><g><circle cx="12" cy="43" r="1"/><circle cx="8" cy="43" r="1"/></g><g><circle cx="20" cy="43" r="1"/><circle cx="16" cy="43" r="1"/></g><circle cx="4" cy="43" r="1"/><circle cx="4" cy="11" r="1"/><circle cx="4" cy="15" r="1"/><circle cx="4" cy="19" r="1"/><circle cx="4" cy="23" r="1"/><circle cx="4" cy="27" r="1"/><circle cx="4" cy="31" r="1"/><circle cx="4" cy="35" r="1"/><circle cx="4" cy="39" r="1"/><path style="fill:none;stroke:#000000;stroke-width:2;stroke-linecap:round;stroke-linejoin:round;stroke-miterlimit:10;" d="M46,43V17H32v-3c0-1.105-0.895-2-2-2h-4c-1.105,0-2,0.895-2,2v29H46z"/><path d="M25,9.101V8h-2v2.025C23.584,9.583,24.257,9.253,25,9.101z"/></svg>