<?xml version="1.0" encoding="iso-8859-1"?><!-- Generator: Adobe Illustrator 23.0.3, SVG Export Plug-In . SVG Version: 6.00 Build 0)  --><svg xmlns="http://www.w3.org/2000/svg" xmlns:xlink="http://www.w3.org/1999/xlink" viewBox="0 0 50 50" width="50px" height="50px"><path d="M44.2,5H5.8C4.256,5,3,6.256,3,7.8V44c0,0.553,0.447,1,1,1h42c0.553,0,1-0.447,1-1V7.8C47,6.256,45.744,5,44.2,5z M5,43V13h40v30H5z"/><line style="fill:none;stroke:#000000;stroke-width:2;stroke-linejoin:round;stroke-miterlimit:10;" x1="25" y1="35" x2="25" y2="38"/><line style="fill:none;stroke:#000000;stroke-width:2;stroke-linejoin:round;stroke-miterlimit:10;" x1="25" y1="19" x2="25" y2="29"/><line style="fill:none;stroke:#000000;stroke-width:2;stroke-linejoin:round;stroke-miterlimit:10;" x1="38" y1="32" x2="38" y2="38"/><line style="fill:none;stroke:#000000;stroke-width:2;stroke-linejoin:round;stroke-miterlimit:10;" x1="38" y1="19" x2="38" y2="26"/><line style="fill:none;stroke:#000000;stroke-width:2;stroke-linejoin:round;stroke-miterlimit:10;" x1="12" y1="31" x2="12" y2="38"/><line style="fill:none;stroke:#000000;stroke-width:2;stroke-linejoin:round;stroke-miterlimit:10;" x1="12" y1="19" x2="12" y2="25"/><path d="M15,29H9c-0.553,0-1-0.447-1-1v-3c0-0.553,0.447-1,1-1h6c0.553,0,1,0.447,1,1v3C16,28.553,15.553,29,15,29z"/><path d="M28,33h-6c-0.553,0-1-0.447-1-1v-3c0-0.553,0.447-1,1-1h6c0.553,0,1,0.447,1,1v3C29,32.553,28.553,33,28,33z"/><path d="M41,30h-6c-0.553,0-1-0.447-1-1v-3c0-0.553,0.447-1,1-1h6c0.553,0,1,0.447,1,1v3C42,29.553,41.553,30,41,30z"/></svg>