<?xml version="1.0" encoding="iso-8859-1"?><!-- Generator: Adobe Illustrator 23.0.3, SVG Export Plug-In . SVG Version: 6.00 Build 0)  --><svg xmlns="http://www.w3.org/2000/svg" xmlns:xlink="http://www.w3.org/1999/xlink" viewBox="0 0 50 50" width="500px" height="500px"><rect x="19" y="29" style="fill:none;stroke:#000000;stroke-width:2;stroke-linecap:round;stroke-miterlimit:10;" width="12" height="12"/><rect x="1" y="29" style="fill:none;stroke:#000000;stroke-width:2;stroke-linecap:round;stroke-miterlimit:10;" width="12" height="12"/><rect x="37" y="29" style="fill:none;stroke:#000000;stroke-width:2;stroke-linecap:round;stroke-miterlimit:10;" width="12" height="12"/><circle cx="4" cy="32" r="1"/><circle cx="7" cy="35" r="1"/><circle cx="10" cy="32" r="1"/><circle cx="4" cy="38" r="1"/><circle cx="10" cy="38" r="1"/><circle cx="40" cy="32" r="1"/><circle cx="43" cy="35" r="1"/><circle cx="46" cy="32" r="1"/><circle cx="40" cy="38" r="1"/><circle cx="46" cy="38" r="1"/><path style="fill:none;stroke:#000000;stroke-width:2;stroke-linecap:round;stroke-miterlimit:10;" d="M24,8C9.265,8,5,21,5,21"/><path style="fill:none;stroke:#000000;stroke-width:2;stroke-linecap:round;stroke-miterlimit:10;" d="M24,8c13.059,0,19.766,9.857,20.782,12.405"/><polyline style="fill:none;stroke:#000000;stroke-width:2;stroke-linecap:round;stroke-miterlimit:10;" points="38,21 46,21 46,13 "/></svg>