<?xml version="1.0" encoding="utf-8"?><!-- Generator: Adobe Illustrator 15.0.0, SVG Export Plug-In . SVG Version: 6.00 Build 0)  --><!DOCTYPE svg PUBLIC "-//W3C//DTD SVG 1.1//EN" "http://www.w3.org/Graphics/SVG/1.1/DTD/svg11.dtd"><svg xmlns="http://www.w3.org/2000/svg" xmlns:xlink="http://www.w3.org/1999/xlink" viewBox="0 0 50 50" width="50px" height="50px"><path d="M13,22H8c-1.159,0-2-0.841-2-2v-6c0-1.159,0.841-2,2-2h5c1.159,0,2,0.841,2,2v6C15,21.159,14.159,22,13,22z"/><path d="M20,19h8v-5c0-1.159-0.841-2-2-2h-5c-1.159,0-2,0.841-2,2v5.13C19.319,19.053,19.65,19,20,19z"/><path d="M18,26v22c0,1.159,0.841,2,2,2h28c1.159,0,2-0.841,2-2V26H18z M31,42c0,0.6-0.4,1-1,1h-5c-0.6,0-1-0.4-1-1v-6c0-0.6,0.4-1,1-1h5c0.6,0,1,0.4,1,1V42z M44,42c0,0.6-0.4,1-1,1h-5c-0.6,0-1-0.4-1-1v-6c0-0.6,0.4-1,1-1h5c0.6,0,1,0.4,1,1V42z"/><path d="M17,28H3c-0.551,0-1-0.448-1-1V3c0-0.551,0.449-1,1-1h28c0.552,0,1,0.449,1,1v16h2V3c0-1.654-1.346-3-3-3H3C1.346,0,0,1.346,0,3v24c0,1.654,1.346,3,3,3h14V28z"/><path d="M33,7V3c0-1.159-0.84-2-2-2H3C1.841,1,1,1.841,1,3v4H33z"/><path fill="none" stroke="#000000" stroke-width="2" stroke-miterlimit="10" d="M48,49H20c-0.6,0-1-0.4-1-1V22c0-0.6,0.4-1,1-1h28c0.6,0,1,0.4,1,1v26C49,48.6,48.6,49,48,49z"/></svg>