<?xml version="1.0" encoding="utf-8"?><!-- Generator: Adobe Illustrator 15.0.0, SVG Export Plug-In . SVG Version: 6.00 Build 0)  --><!DOCTYPE svg PUBLIC "-//W3C//DTD SVG 1.1//EN" "http://www.w3.org/Graphics/SVG/1.1/DTD/svg11.dtd"><svg xmlns="http://www.w3.org/2000/svg" xmlns:xlink="http://www.w3.org/1999/xlink" viewBox="0 0 50 50" width="50px" height="50px"><polygon points="12.456,11.056 9.461,12.553 5.971,8.359 2,11.763 2,16 16,16 16,14.401 "/><path d="M2,2v7.129l4.21-3.61l3.774,4.536l2.827-1.413L16,11.651V2H2z M12.5,7C11.671,7,11,6.329,11,5.5S11.671,4,12.5,4S14,4.671,14,5.5S13.329,7,12.5,7z"/><polygon points="28.456,27.057 25.461,28.554 21.97,24.359 18,27.763 18,32 32,32 32,30.402 "/><path d="M22.209,21.521l3.775,4.535l2.827-1.413L32,27.651V18H18v7.129L22.209,21.521z M28.5,20c0.828,0,1.5,0.671,1.5,1.5S29.328,23,28.5,23S27,22.329,27,21.5S27.672,20,28.5,20z"/><circle cx="25" cy="9" r="1.652"/><path d="M18,2v14h14V2H18z M30,9.006c0,0-1.904,0.718-2.063,1.173c-0.203,0.585,0.596,2.359,0.596,2.359s-1.771-0.842-2.346-0.598S25,14,25,14s-0.758-1.781-1.306-2.073c-0.549-0.293-2.229,0.61-2.229,0.61s0.729-1.617,0.537-2.362C21.872,9.672,20,9.003,20,9.003s0.011-0.004,0.013-0.005L20,8.994c0,0,1.924-0.753,2.063-1.173c0.193-0.588-0.596-2.359-0.596-2.359s1.77,0.842,2.345,0.598C24.386,5.816,25,4,25,4s0.758,1.781,1.307,2.073c0.549,0.293,2.229-0.61,2.229-0.61s-0.779,1.631-0.537,2.362C28.148,8.28,30,8.997,30,8.997s-0.012,0.004-0.014,0.005L30,9.006z"/><path d="M34,2v14h14V2H34z M36,5.5C36,4.671,36.672,4,37.5,4S39,4.671,39,5.5S38.328,7,37.5,7S36,6.329,36,5.5z M44.309,12.923h-4.925c-0.763,0-1.384-0.621-1.384-1.385c0-0.735,0.576-1.339,1.301-1.383c0.213-0.768,0.92-1.317,1.78-1.224C41.443,8.359,42.084,8,42.77,8c0.953,0,1.77,0.684,1.959,1.597C45.468,9.785,46,10.449,46,11.23C46,12.164,45.241,12.923,44.309,12.923z"/><path d="M2,18v14h14V18H2z M13.957,25.827c-0.371,1.437-2.652,1.636-2.652,1.636s-0.498,2.4-1.886,2.479c-0.308,0.017-0.597-0.073-0.859-0.224c-0.918-0.526-1.516-1.791-1.516-1.791s-1.38,0.245-2.283-0.272c-0.287-0.163-0.525-0.405-0.656-0.756c-0.54-1.457,1.182-2.882,1.182-2.882s-1.1-1.975,0.071-3.114c0.905-0.881,2.267-0.259,2.838,0.068c0.167,0.096,0.266,0.166,0.266,0.166s1.729-1.614,2.984-0.896c1.255,0.719,0.737,3.027,0.737,3.027s0.027,0.014,0.074,0.041C12.632,23.523,14.286,24.552,13.957,25.827z"/><path d="M9.068,24.821c0,0,0.913,2.003,0.095,2.134c-0.818,0.13-0.366-2.104-0.366-2.104s-1.742,1.479-2,0.749c-0.258-0.729,1.889-0.998,1.889-0.998s-1.967-1.143-1.332-1.671c0.636-0.527,1.533,1.487,1.533,1.487s0.47-2.187,1.178-1.782c0.708,0.405-0.941,1.918-0.941,1.918s2.18-0.25,2.058,0.569C11.061,25.943,9.068,24.821,9.068,24.821z"/><path d="M34,18v14h14V18H34z M46,25.006c0,0-1.904,0.719-2.063,1.174c-0.203,0.584,0.596,2.358,0.596,2.358s-1.771-0.843-2.346-0.599S41,30,41,30s-0.758-1.781-1.307-2.073c-0.549-0.293-2.229,0.61-2.229,0.61s0.729-1.617,0.537-2.362C37.872,25.672,36,25.003,36,25.003s0.012-0.004,0.014-0.005L36,24.994c0,0,1.924-0.753,2.063-1.173c0.193-0.588-0.596-2.359-0.596-2.359s1.77,0.842,2.346,0.598C40.387,21.816,41,20,41,20s0.758,1.781,1.307,2.073c0.549,0.293,2.229-0.61,2.229-0.61s-0.779,1.631-0.537,2.362C44.148,24.28,46,24.997,46,24.997s-0.012,0.004-0.014,0.005L46,25.006z"/><circle cx="41" cy="25" r="1.652"/><circle cx="9" cy="41" r="1.652"/><path d="M2,34v14h14V34H2z M14,41.006c0,0-1.904,0.719-2.063,1.174c-0.203,0.584,0.596,2.358,0.596,2.358s-1.771-0.843-2.346-0.599C9.614,44.184,9,46,9,46s-0.758-1.781-1.306-2.073c-0.549-0.293-2.229,0.61-2.229,0.61s0.729-1.617,0.537-2.362C5.872,41.672,4,41.003,4,41.003s0.011-0.004,0.013-0.005L4,40.994c0,0,1.924-0.753,2.063-1.174c0.193-0.588-0.596-2.358-0.596-2.358s1.77,0.843,2.345,0.599C8.386,37.816,9,36,9,36s0.758,1.781,1.306,2.073c0.549,0.293,2.229-0.61,2.229-0.61s-0.779,1.631-0.537,2.362C12.148,40.279,14,40.997,14,40.997s-0.011,0.004-0.013,0.005L14,41.006z"/><path d="M18,34v14h14V34H18z M20,37.5c0-0.828,0.671-1.5,1.5-1.5s1.5,0.672,1.5,1.5S22.329,39,21.5,39S20,38.328,20,37.5z M28.309,44.923h-4.925c-0.763,0-1.384-0.621-1.384-1.385c0-0.735,0.576-1.339,1.301-1.384c0.213-0.768,0.919-1.316,1.78-1.223C25.444,40.359,26.084,40,26.77,40c0.953,0,1.77,0.684,1.959,1.598C29.468,41.785,30,42.449,30,43.23C30,44.164,29.241,44.923,28.309,44.923z"/><path d="M34,34v14h14V34H34z M45.957,41.827c-0.371,1.437-2.652,1.636-2.652,1.636s-0.498,2.4-1.886,2.479c-0.308,0.017-0.597-0.073-0.858-0.224c-0.918-0.526-1.517-1.791-1.517-1.791s-1.38,0.245-2.282-0.272c-0.287-0.163-0.525-0.405-0.656-0.756c-0.541-1.457,1.182-2.883,1.182-2.883s-1.1-1.975,0.07-3.113c0.906-0.881,2.268-0.26,2.838,0.068c0.168,0.096,0.267,0.165,0.267,0.165s1.729-1.614,2.983-0.896c1.256,0.719,0.738,3.027,0.738,3.027s0.026,0.014,0.073,0.041C44.632,39.523,46.286,40.552,45.957,41.827z"/><path d="M41.068,40.82c0,0,0.912,2.004,0.095,2.135c-0.817,0.13-0.366-2.104-0.366-2.104s-1.742,1.479-2,0.748c-0.258-0.729,1.889-0.998,1.889-0.998s-1.967-1.143-1.332-1.67c0.637-0.527,1.533,1.486,1.533,1.486s0.471-2.188,1.178-1.782c0.709,0.405-0.94,1.919-0.94,1.919s2.181-0.25,2.058,0.568C43.061,41.943,41.068,40.82,41.068,40.82z"/></svg>