<?xml version="1.0" encoding="iso-8859-1"?><!-- Generator: Adobe Illustrator 20.1.0, SVG Export Plug-In . SVG Version: 6.00 Build 0)  --><svg xmlns="http://www.w3.org/2000/svg" xmlns:xlink="http://www.w3.org/1999/xlink" viewBox="0 0 50 50" width="500px" height="500px"><path style="fill:none;stroke:#000000;stroke-width:2;stroke-miterlimit:10;" d="M7,25c0.026-9.941,8.106-17.979,18.047-17.953c5.738,0.015,11.125,2.765,14.503,7.403L36,18h10V8l-3.58,3.58C34.999,1.959,21.184,0.176,11.563,7.597C6.168,11.758,3.005,18.186,3,25c0,0.67,0,1.34,0.09,2h4C7.023,26.335,6.993,25.668,7,25z M46.91,23h-4c1.105,9.88-6.009,18.784-15.889,19.889C26.35,42.964,25.675,43.001,25,43c-5.766,0.001-11.18-2.772-14.55-7.45L14,32H4v10l3.58-3.58c7.421,9.621,21.236,11.404,30.857,3.983C43.832,38.242,46.995,31.814,47,25C47,24.33,47,23.66,46.91,23z"/></svg>