<?xml version="1.0" encoding="iso-8859-1"?><!-- Generator: Adobe Illustrator 23.0.3, SVG Export Plug-In . SVG Version: 6.00 Build 0)  --><svg xmlns="http://www.w3.org/2000/svg" xmlns:xlink="http://www.w3.org/1999/xlink" viewBox="0 0 50 50" width="500px" height="500px"><polyline style="fill:none;stroke:#000000;stroke-width:2;stroke-linecap:round;stroke-miterlimit:10;" points="43,10 43,17 36,17 "/><polyline style="fill:none;stroke:#000000;stroke-width:2;stroke-linecap:round;stroke-miterlimit:10;" points="7,40 7,33 14,33.001 "/><g id="IOS_copy_11_"><path d="M27.1,36H23l-0.5-3.2c-0.4-0.1-0.7-0.2-1.1-0.4l-2.7,1.8l-3-3l1.8-2.7c-0.2-0.3-0.3-0.7-0.4-1L14,27v-4.2l3.1-0.5c0.1-0.4,0.3-0.7,0.4-1.1l-1.8-2.5l3-3l2.7,1.9c0.3-0.2,0.7-0.3,1-0.4L23,14h4.2l0.5,3.2c0.3,0.1,0.7,0.2,1,0.4l2.6-1.9l2.9,2.9l-1.8,2.7c0.2,0.3,0.3,0.7,0.4,1l3.2,0.5V27l-3.1,0.6c-0.1,0.3-0.2,0.7-0.4,1.1l1.9,2.6l-3,3l-2.7-1.8c-0.4,0.2-0.7,0.3-1,0.4L27.1,36z M28.2,19.6c-0.5-0.3-1.1-0.5-1.7-0.7l-0.6-0.2L25.5,16h-0.8l-0.5,2.8l-0.6,0.1c-0.6,0.2-1.2,0.5-1.9,0.8l-0.5,0.2l-2.3-1.6l-0.6,0.6l1.6,2.3l-0.4,0.5c-0.3,0.5-0.5,1.1-0.6,1.6L18.8,24L16,24.5v0.8l2.7,0.5l0.2,0.6c0.2,0.5,0.4,1.2,0.7,1.8l0.3,0.5L18.3,31l0.6,0.6l2.4-1.6l0.6,0.4c0.5,0.3,1.1,0.5,1.7,0.7l0.6,0.2l0.4,2.7h0.8l0.5-2.8l0.6-0.2c0.6-0.2,1.2-0.4,1.8-0.7l0.5-0.3l2.3,1.6l0.6-0.6L30,28.7l0.4-0.6c0.3-0.5,0.5-1.1,0.7-1.7l0.2-0.6l2.7-0.6v-0.8L31.2,24L31,23.4c-0.2-0.6-0.4-1.2-0.7-1.8L30,21.1l1.6-2.3l-0.5-0.5 M25,28.9c-2.2,0-4-1.8-4-4s1.8-4,4-4s4,1.8,4,4C29,27.2,27.2,28.9,25,28.9z M25,23c-1.1,0-2,0.9-2,2s0.9,2,2,2s2-0.9,2-2C27,23.8,26.1,23,25,23z"/></g><path style="fill:none;stroke:#000000;stroke-width:2;stroke-linecap:round;stroke-miterlimit:10;" d="M44,25c0,10.493-8.507,19-19,19c-7.635,0-14.219-4.504-17.239-11"/><path style="fill:none;stroke:#000000;stroke-width:2;stroke-linecap:round;stroke-miterlimit:10;" d="M6,25C6,14.507,14.507,6,25,6c7.635,0,14.219,4.504,17.239,11"/></svg>