<?xml version="1.0" encoding="iso-8859-1"?><!-- Generator: Adobe Illustrator 19.1.1, SVG Export Plug-In . SVG Version: 6.00 Build 0)  --><svg xmlns="http://www.w3.org/2000/svg" xmlns:xlink="http://www.w3.org/1999/xlink" viewBox="0 0 50 50" width="50px" height="50px"><path d="M45,5H5C3.346,5,2,6.346,2,8v34c0,1.654,1.346,3,3,3h40c1.654,0,3-1.346,3-3V8C48,6.346,46.654,5,45,5z M13,37H9v-4h4V37z M13,27H9v-4h4V27z M13,17H9v-4h4V17z M23,36h-7v-2h7V36z M23,26h-7v-2h7V26z M23,16h-7v-2h7V16z M32,37h-4v-4h4V37z M32,27h-4v-4h4V27z M32,17h-4v-4h4V17z M42,36h-7v-2h7V36z M42,26h-7v-2h7V26z M42,16h-7v-2h7V16z"/></svg>