<?xml version="1.0" encoding="iso-8859-1"?><!-- Generator: Adobe Illustrator 21.1.0, SVG Export Plug-In . SVG Version: 6.00 Build 0)  --><svg xmlns="http://www.w3.org/2000/svg" xmlns:xlink="http://www.w3.org/1999/xlink" viewBox="0 0 50 50" width="500px" height="500px"><circle cx="41.994" cy="5.004" r="1"/><circle cx="37.994" cy="5.004" r="1"/><circle cx="45.994" cy="5.004" r="1"/><circle cx="45.994" cy="9.004" r="1"/><circle cx="33.994" cy="5.004" r="1"/><circle cx="25.994" cy="5.004" r="1"/><circle cx="21.994" cy="5.004" r="1"/><circle cx="29.994" cy="5.004" r="1"/><path style="fill:none;stroke:#000000;stroke-width:2;stroke-miterlimit:10;" d="M24.994,45h19.25c0.727,0,1.349-0.521,1.477-1.236L48,32c0-0.552-0.448-1-1-1H27.494c-0.552,0-1,0.448-1,1L24.01,43.824C23.9,44.437,24.372,45,24.994,45z"/><path style="fill:none;stroke:#000000;stroke-width:2;stroke-miterlimit:10;" d="M45.994,31v-3c0-0.552-0.447-1-1-1h-13.5c-0.734,0-1.242-2-2-2h-4.5c-0.552,0-1,0.448-1,1v18"/><path style="fill:none;stroke:#000000;stroke-width:2;stroke-miterlimit:10;" d="M45.994,24V13c0-0.552-0.448-1-1-1l-26,0.004V7.008c0-1.105-0.895-2-2-2L6,5.004c-1.105,0-2,0.895-2,2V12h0.006v27c0,0.552,0.448,1,1,1H21"/></svg>