<?xml version="1.0" encoding="utf-8"?><!-- Generator: Adobe Illustrator 15.0.0, SVG Export Plug-In . SVG Version: 6.00 Build 0)  --><!DOCTYPE svg PUBLIC "-//W3C//DTD SVG 1.1//EN" "http://www.w3.org/Graphics/SVG/1.1/DTD/svg11.dtd"><svg xmlns="http://www.w3.org/2000/svg" xmlns:xlink="http://www.w3.org/1999/xlink" viewBox="0 0 50 50" width="50px" height="50px"><path d="M29,18h-8c-1.654,0-3-1.346-3-3v-5c0-1.654,1.346-3,3-3h8c1.654,0,3,1.346,3,3v5C32,16.654,30.654,18,29,18z"/><path d="M29,43h-8c-1.654,0-3-1.346-3-3v-5c0-1.654,1.346-3,3-3h8c1.654,0,3,1.346,3,3v5C32,41.654,30.654,43,29,43z"/><g><rect x="24" y="20" width="2" height="10"/></g><path d="M11,43H3c-1.654,0-3-1.346-3-3v-5c0-1.654,1.346-3,3-3h8c1.654,0,3,1.346,3,3v5C14,41.654,12.654,43,11,43z"/><path d="M47,43h-8c-1.654,0-3-1.346-3-3v-5c0-1.654,1.346-3,3-3h8c1.654,0,3,1.346,3,3v5C50,41.654,48.654,43,47,43z"/><g><path d="M42,27v3h2v-3c0-2.757-2.243-5-5-5H11c-2.757,0-5,2.243-5,5v3h2v-3c0-1.654,1.346-3,3-3h28C40.654,24,42,25.346,42,27z"/></g></svg>