<?xml version="1.0" encoding="iso-8859-1"?>
<!-- Generator: Adobe Illustrator 24.0.0, SVG Export Plug-In . SVG Version: 6.00 Build 0)  -->
<svg version="1.1" id="Layer_1" xmlns="http://www.w3.org/2000/svg" xmlns:xlink="http://www.w3.org/1999/xlink" x="0px" y="0px"
	 viewBox="0 0 50 50" style="enable-background:new 0 0 50 50;" xml:space="preserve">
<circle cx="25" cy="23" r="2"/>
<path d="M17.371,39.987l-0.374,1.036l2.215-0.018L19.575,40H17.5C17.456,40,17.415,39.989,17.371,39.987z"/>
<path d="M17.5,38h13c0.276,0,0.5-0.224,0.5-0.5c0-0.354-0.455-0.609-0.459-0.612c-0.28-0.151-0.486-0.434-0.531-0.749
	C29.626,33.422,26.696,32,24,32c-2.574,0-5.528,1.295-5.93,4.14c-0.047,0.336-0.262,0.625-0.57,0.768
	C17.403,36.956,17,37.213,17,37.5C17,37.776,17.224,38,17.5,38z"/>
<path d="M36.56,32h-1.436c-0.202,0-0.378,0.137-0.427,0.333c-0.357,1.428-1.343,2.59-2.647,3.201C32.53,35.958,33,36.615,33,37.5
	c0,0.047-0.011,0.091-0.014,0.138c0.496-0.272,0.916-0.677,1.181-1.208l0.938-1.877C35.275,34.214,35.621,34,36,34h1v-1.56
	C37,32.197,36.803,32,36.56,32z"/>
<path d="M30.5,40h-2.075l0.361,1h2.129l-0.317-1.01C30.565,39.991,30.534,40,30.5,40z"/>
<path d="M47.97,24H40c-0.55,0-1-0.45-1-1s0.45-1,1-1h7.8c-0.54-4.11-2.16-7.88-4.58-11.01l-5.5,4c-0.18,0.13-0.39,0.19-0.59,0.19
	c-0.31,0-0.61-0.14-0.81-0.41c-0.32-0.45-0.22-1.07,0.22-1.4l5.39-3.92c-2.56-2.79-5.81-4.94-9.46-6.2l-1.89,5.8
	c-0.14,0.42-0.53,0.69-0.95,0.69c-0.1,0-0.21-0.02-0.31-0.05c-0.52-0.17-0.81-0.73-0.64-1.26l1.87-5.75C28.77,2.24,26.91,2,25,2
	s-3.77,0.24-5.55,0.68l1.87,5.75c0.17,0.53-0.12,1.09-0.64,1.26c-0.1,0.03-0.21,0.05-0.31,0.05c-0.42,0-0.81-0.27-0.95-0.69
	l-1.89-5.8c-3.65,1.26-6.9,3.41-9.46,6.2l5.39,3.92c0.44,0.33,0.54,0.95,0.22,1.4c-0.2,0.27-0.5,0.41-0.81,0.41
	c-0.2,0-0.41-0.06-0.59-0.19l-5.5-4C4.36,14.12,2.74,17.89,2.2,22H10c0.55,0,1,0.45,1,1s-0.45,1-1,1H2.03C2.01,24.33,2,24.66,2,25
	c0,12.68,10.32,23,23,23s23-10.32,23-23C48,24.66,47.99,24.33,47.97,24z M22.76,19.69C23.4,19.26,24.17,19,25,19c2.21,0,4,1.79,4,4
	s-1.79,4-4,4c-1.86,0-3.42-1.26-3.86-2.98L13,19L22.76,19.69z M39,35c0,0.552-0.448,1-1,1h-1.382l-0.662,1.325
	c-0.659,1.317-1.853,2.226-3.244,2.543l0.172,0.476c0.217,0.601,0.129,1.248-0.24,1.774C32.256,42.67,31.61,43,30.916,43h-2.832
	c-0.421,0-0.797-0.264-0.94-0.66L26.298,40h-4.596l-0.845,2.34c-0.143,0.396-0.519,0.66-0.94,0.66h-2.832
	c-0.694,0-1.34-0.33-1.728-0.882c-0.37-0.526-0.458-1.173-0.24-1.774l0.458-1.269C15.221,38.643,15,38.1,15,37.5
	c0-0.991,0.612-1.708,1.175-2.119C16.976,31.688,20.727,30,24,30c2.815,0,5.832,1.263,7.241,3.694
	c0.744-0.364,1.311-1.023,1.516-1.845C33.029,30.76,34.003,30,35.125,30h1.436c1.345,0,2.44,1.095,2.44,2.44L39,35L39,35z"/>
</svg>