<?xml version="1.0" encoding="iso-8859-1"?>
<!-- Generator: Adobe Illustrator 24.0.2, SVG Export Plug-In . SVG Version: 6.00 Build 0)  -->
<svg version="1.1" id="Layer_1" xmlns="http://www.w3.org/2000/svg" xmlns:xlink="http://www.w3.org/1999/xlink" x="0px" y="0px"
	 viewBox="0 0 50 50" style="enable-background:new 0 0 50 50;" xml:space="preserve">
<path d="M48,6H2C0.897,6,0,6.898,0,8v33c0,1.103,0.897,2,2,2h46c1.103,0,2-0.897,2-2V8C50,6.898,49.103,6,48,6z M37.832,22.555
	C37.64,22.844,37.322,23,36.999,23c-0.19,0-0.383-0.055-0.554-0.168L36,22.535V34c0,0.553-0.447,1-1,1h-6.5V24.5h-7V35H15
	c-0.553,0-1-0.447-1-1V22.535l-0.445,0.297c-0.461,0.305-1.081,0.182-1.387-0.277c-0.307-0.46-0.183-1.08,0.277-1.387l12-8
	c0.336-0.225,0.773-0.225,1.109,0l12,8C38.015,21.475,38.139,22.095,37.832,22.555z"/>
</svg>