<?xml version="1.0" encoding="iso-8859-1"?><!-- Generator: Adobe Illustrator 22.1.0, SVG Export Plug-In . SVG Version: 6.00 Build 0)  --><svg xmlns="http://www.w3.org/2000/svg" xmlns:xlink="http://www.w3.org/1999/xlink" viewBox="0 0 50 50" width="500px" height="500px"><path style="fill:none;stroke:#000000;stroke-width:2;stroke-linejoin:round;stroke-miterlimit:10;" d="M25.905,3.397l1.487,1.618c0.386,0.42,1.011,0.519,1.508,0.239l1.914-1.079c0.627-0.353,1.422-0.095,1.721,0.559l0.914,1.998c0.238,0.519,0.801,0.806,1.361,0.693l2.154-0.435c0.705-0.142,1.382,0.349,1.464,1.064l0.252,2.183c0.065,0.567,0.513,1.014,1.08,1.08l2.183,0.252c0.715,0.083,1.206,0.759,1.064,1.464l-0.435,2.154c-0.113,0.56,0.174,1.123,0.693,1.361l1.998,0.914c0.654,0.299,0.913,1.094,0.559,1.721l-1.079,1.914c-0.28,0.497-0.181,1.122,0.239,1.508l1.618,1.487c0.53,0.487,0.53,1.323,0,1.81l-1.618,1.487c-0.42,0.386-0.519,1.011-0.239,1.508l1.079,1.914c0.353,0.627,0.095,1.422-0.559,1.721l-1.998,0.914c-0.519,0.238-0.806,0.801-0.693,1.361l0.435,2.154c0.142,0.705-0.349,1.382-1.064,1.464l-2.183,0.252c-0.567,0.065-1.014,0.513-1.08,1.08l-0.252,2.183c-0.083,0.715-0.759,1.206-1.464,1.064l-2.154-0.435c-0.56-0.113-1.123,0.174-1.361,0.693l-0.914,1.998c-0.299,0.654-1.094,0.913-1.721,0.559l-1.914-1.079c-0.497-0.28-1.122-0.181-1.508,0.239l-1.487,1.618c-0.487,0.53-1.323,0.53-1.81,0l-1.487-1.618c-0.386-0.42-1.011-0.519-1.508-0.239l-1.914,1.079c-0.627,0.353-1.422,0.095-1.721-0.559l-0.914-1.998c-0.238-0.519-0.801-0.806-1.361-0.693l-2.154,0.435c-0.705,0.142-1.382-0.349-1.464-1.064l-0.252-2.183c-0.065-0.567-0.513-1.014-1.08-1.08L8.055,38.43c-0.715-0.083-1.206-0.759-1.064-1.464l0.435-2.154c0.113-0.56-0.174-1.123-0.693-1.361l-1.998-0.914c-0.654-0.299-0.913-1.094-0.559-1.721l1.079-1.914c0.28-0.497,0.181-1.122-0.239-1.508l-1.618-1.487c-0.53-0.487-0.53-1.323,0-1.81l1.618-1.487c0.42-0.386,0.519-1.011,0.239-1.508l-1.079-1.914c-0.353-0.627-0.095-1.422,0.559-1.721l1.998-0.914c0.519-0.238,0.806-0.801,0.693-1.361l-0.435-2.154c-0.142-0.705,0.349-1.382,1.064-1.464l2.183-0.252c0.567-0.065,1.014-0.513,1.08-1.08l0.252-2.183c0.083-0.715,0.759-1.206,1.464-1.064l2.154,0.435c0.56,0.113,1.123-0.174,1.361-0.693l0.914-1.998c0.299-0.654,1.094-0.913,1.721-0.559l1.914,1.079c0.497,0.28,1.122,0.181,1.508-0.239l1.487-1.618C24.582,2.868,25.418,2.868,25.905,3.397z"/><path d="M11,22.345c0,0,6.877,3.507,11.24,11.318c0.553,0.99,1.925,0.932,2.429-0.087C27.045,28.779,31.222,21.288,39,16c-4.148,1.058-12.444,5.288-15.556,11.633C21.37,25.518,18.259,22.345,11,22.345z"/></svg>