<?xml version="1.0" encoding="iso-8859-1"?><!-- Generator: Adobe Illustrator 22.1.0, SVG Export Plug-In . SVG Version: 6.00 Build 0)  --><svg xmlns="http://www.w3.org/2000/svg" xmlns:xlink="http://www.w3.org/1999/xlink" viewBox="0 0 50 50" width="50px" height="50px"><path d="M14,16H6c-1.103,0-2-0.897-2-2V6c0-1.103,0.897-2,2-2h8c1.103,0,2,0.897,2,2v8C16,15.103,15.103,16,14,16z"/><path d="M29,16h-8c-1.103,0-2-0.897-2-2V6c0-1.103,0.897-2,2-2h8c1.103,0,2,0.897,2,2v8C31,15.103,30.103,16,29,16z"/><path d="M44,16h-8c-1.103,0-2-0.897-2-2V6c0-1.103,0.897-2,2-2h8c1.103,0,2,0.897,2,2v8C46,15.103,45.103,16,44,16z"/><path d="M14,31H6c-1.103,0-2-0.897-2-2v-8c0-1.103,0.897-2,2-2h8c1.103,0,2,0.897,2,2v8C16,30.103,15.103,31,14,31z"/><path d="M29,31h-8c-1.103,0-2-0.897-2-2v-8c0-1.103,0.897-2,2-2h8c1.103,0,2,0.897,2,2v8C31,30.103,30.103,31,29,31z"/><path d="M44,31h-8c-1.103,0-2-0.897-2-2v-8c0-1.103,0.897-2,2-2h8c1.103,0,2,0.897,2,2v8C46,30.103,45.103,31,44,31z"/><path d="M14,46H6c-1.103,0-2-0.897-2-2v-8c0-1.103,0.897-2,2-2h8c1.103,0,2,0.897,2,2v8C16,45.103,15.103,46,14,46z"/><path d="M29,46h-8c-1.103,0-2-0.897-2-2v-8c0-1.103,0.897-2,2-2h8c1.103,0,2,0.897,2,2v8C31,45.103,30.103,46,29,46z"/><path d="M44,46h-8c-1.103,0-2-0.897-2-2v-8c0-1.103,0.897-2,2-2h8c1.103,0,2,0.897,2,2v8C46,45.103,45.103,46,44,46z"/></svg>