<?xml version="1.0" encoding="iso-8859-1"?>
<!-- Generator: Adobe Illustrator 26.1.0, SVG Export Plug-In . SVG Version: 6.00 Build 0)  -->
<svg version="1.1" id="Tone" xmlns="http://www.w3.org/2000/svg" xmlns:xlink="http://www.w3.org/1999/xlink" x="0px" y="0px"
	 viewBox="0 0 50 50" style="enable-background:new 0 0 50 50;" xml:space="preserve">
<g id="Line">
</g>
<g>
	<g>
		<g>
			<path d="M25,44C14.523,44,6,35.477,6,25c0-4.157,1.358-7.995,3.631-11.126l-1.427-1.427C5.577,15.954,4,20.291,4,25
				c0,11.579,9.421,21,21,21c4.709,0,9.046-1.577,12.553-4.205l-1.427-1.427C32.995,42.642,29.157,44,25,44z"/>
		</g>
	</g>
	<path d="M47.707,46.293l-7.185-7.185C44.048,35.235,46,30.272,46,25c0-11.579-9.421-21-21-21c-5.265,0-10.235,1.952-14.109,5.477
		L3.707,2.293C3.52,2.098,3.262,1.992,2.992,1.992c-0.41,0-0.773,0.246-0.93,0.621C1.91,2.992,2,3.422,2.293,3.707l44,44
		c0.25,0.262,0.625,0.367,0.973,0.273c0.352-0.09,0.625-0.363,0.715-0.715C48.074,46.918,47.969,46.543,47.707,46.293z M25,6
		c10.477,0,19,8.523,19,19c0,4.738-1.742,9.2-4.892,12.694L12.306,10.892C15.8,7.743,20.268,6,25,6z"/>
</g>
</svg>