<?xml version="1.0" encoding="iso-8859-1"?><!-- Generator: Adobe Illustrator 21.1.0, SVG Export Plug-In . SVG Version: 6.00 Build 0)  --><svg xmlns="http://www.w3.org/2000/svg" xmlns:xlink="http://www.w3.org/1999/xlink" viewBox="0 0 50 50" width="500px" height="500px"><path d="M25,4.19c2.428,0,4.654,1.346,5.806,3.514l0.814,1.53l1.677-0.44c0.545-0.143,1.109-0.216,1.676-0.216c1.735,0,3.358,0.668,4.57,1.879c1.614,1.614,2.252,4.007,1.664,6.246l-0.44,1.677l1.53,0.814c2.167,1.152,3.514,3.378,3.514,5.806s-1.346,4.654-3.514,5.806l-1.53,0.814l0.44,1.677c0.587,2.239-0.05,4.632-1.664,6.246c-1.212,1.212-2.836,1.879-4.57,1.879c-0.566,0-1.13-0.072-1.676-0.216l-1.677-0.44l-0.814,1.53C29.654,44.463,27.428,45.81,25,45.81s-4.654-1.346-5.806-3.514l-0.814-1.53l-1.677,0.44c-0.545,0.143-1.109,0.216-1.676,0.216c-1.735,0-3.358-0.668-4.57-1.879c-1.614-1.614-2.252-4.007-1.664-6.246l0.44-1.677l-1.53-0.814C5.537,29.654,4.19,27.428,4.19,25s1.346-4.654,3.514-5.806l1.53-0.814l-0.44-1.677c-0.587-2.239,0.05-4.632,1.664-6.246c1.212-1.212,2.836-1.879,4.57-1.879c0.566,0,1.13,0.072,1.676,0.216l1.677,0.44l0.814-1.53C20.346,5.537,22.572,4.19,25,4.19 M25,2c-3.345,0-6.265,1.901-7.74,4.676c-0.731-0.192-1.481-0.288-2.232-0.288c-2.219,0-4.436,0.838-6.119,2.521c-2.253,2.253-2.992,5.462-2.234,8.351C3.901,18.735,2,21.655,2,25s1.901,6.265,4.676,7.74c-0.758,2.888-0.019,6.098,2.234,8.351c1.683,1.683,3.9,2.521,6.119,2.521c0.751,0,1.502-0.096,2.232-0.288C18.735,46.099,21.655,48,25,48s6.265-1.901,7.74-4.676c0.731,0.192,1.481,0.288,2.232,0.288c2.219,0,4.436-0.838,6.119-2.521c2.253-2.253,2.992-5.462,2.234-8.351C46.099,31.265,48,28.345,48,25s-1.901-6.265-4.676-7.74c0.758-2.888,0.019-6.098-2.234-8.351c-1.683-1.683-3.9-2.521-6.119-2.521c-0.751,0-1.502,0.096-2.232,0.288C31.265,3.901,28.345,2,25,2L25,2z"/><line style="fill:none;stroke:#000000;stroke-width:2;stroke-miterlimit:10;" x1="25" y1="35" x2="25" y2="33"/><path style="fill:none;stroke:#000000;stroke-width:2;stroke-miterlimit:10;" d="M25,31c0-6,6-5,6-10c0-1-1-5-6-5s-6,4-6,5v1"/></svg>