<?xml version="1.0" encoding="utf-8"?><!-- Generator: Adobe Illustrator 18.1.0, SVG Export Plug-In . SVG Version: 6.00 Build 0)  --><!DOCTYPE svg PUBLIC "-//W3C//DTD SVG 1.0//EN" "http://www.w3.org/TR/2001/REC-SVG-20010904/DTD/svg10.dtd"><svg xmlns="http://www.w3.org/2000/svg" xmlns:xlink="http://www.w3.org/1999/xlink" viewBox="0 0 50 50" width="500px" height="500px"><g><g><circle cx="15" cy="20" r="1"/><circle cx="15" cy="26" r="1"/><circle cx="21" cy="20" r="1"/><circle cx="21" cy="26" r="1"/><circle cx="18" cy="29" r="1"/><circle cx="18" cy="23" r="1"/></g></g><g><path d="M8,34v10H2V34H8 M8,32H2c-1.1,0-2,0.9-2,2v10c0,1.1,0.9,2,2,2h6c1.1,0,2-0.9,2-2V34C10,32.9,9.1,32,8,32L8,32z"/></g><line style="fill:none;stroke:#000000;stroke-width:2;stroke-miterlimit:10;" x1="5" y1="32" x2="5" y2="28"/><line style="fill:none;stroke:#000000;stroke-width:2;stroke-miterlimit:10;" x1="5" y1="50" x2="5" y2="47"/><g><path d="M21,19v10h-6V19H21 M21,17h-6c-1.1,0-2,0.9-2,2v10c0,1.1,0.9,2,2,2h6c1.1,0,2-0.9,2-2V19C23,17.9,22.1,17,21,17L21,17z"/></g><line style="fill:none;stroke:#000000;stroke-width:2;stroke-miterlimit:10;" x1="18" y1="17" x2="18" y2="13"/><line style="fill:none;stroke:#000000;stroke-width:2;stroke-miterlimit:10;" x1="18" y1="35" x2="18" y2="32"/><g><g><circle cx="30" cy="22" r="1"/><circle cx="30" cy="28" r="1"/><circle cx="36" cy="22" r="1"/><circle cx="36" cy="28" r="1"/><circle cx="33" cy="31" r="1"/><circle cx="33" cy="25" r="1"/></g></g><g><path d="M36,21v10h-6V21H36 M36,19h-6c-1.1,0-2,0.9-2,2v10c0,1.1,0.9,2,2,2h6c1.1,0,2-0.9,2-2V21C38,19.9,37.1,19,36,19L36,19z"/></g><line style="fill:none;stroke:#000000;stroke-width:2;stroke-miterlimit:10;" x1="33" y1="19" x2="33" y2="15"/><line style="fill:none;stroke:#000000;stroke-width:2;stroke-miterlimit:10;" x1="33" y1="37" x2="33" y2="34"/><g><g><circle cx="42" cy="7" r="1"/><circle cx="42" cy="13" r="1"/><circle cx="48" cy="7" r="1"/><circle cx="48" cy="13" r="1"/><circle cx="45" cy="16" r="1"/><circle cx="45" cy="10" r="1"/></g></g><g><path d="M48,6v10h-6V6H48 M48,4h-6c-1.1,0-2,0.9-2,2v10c0,1.1,0.9,2,2,2h6c1.1,0,2-0.9,2-2V6C50,4.9,49.1,4,48,4L48,4z"/></g><line style="fill:none;stroke:#000000;stroke-width:2;stroke-miterlimit:10;" x1="45" y1="4" x2="45" y2="0"/><line style="fill:none;stroke:#000000;stroke-width:2;stroke-miterlimit:10;" x1="45" y1="22" x2="45" y2="19"/></svg>