<?xml version="1.0" encoding="iso-8859-1"?><!-- Generator: Adobe Illustrator 22.0.1, SVG Export Plug-In . SVG Version: 6.00 Build 0)  --><svg xmlns="http://www.w3.org/2000/svg" xmlns:xlink="http://www.w3.org/1999/xlink" viewBox="0 0 50 50" width="500px" height="500px"><g><g><path d="M44.426,37.052H5.574c-3.102,0-5.625-2.524-5.625-5.626V19.574c0-3.102,2.523-5.626,5.625-5.626h38.852c3.102,0,5.625,2.524,5.625,5.626v11.852C50.051,34.527,47.528,37.052,44.426,37.052z M5.574,16.052c-1.942,0-3.523,1.58-3.523,3.522v11.852c0,1.942,1.581,3.522,3.523,3.522h38.852c1.942,0,3.523-1.58,3.523-3.522V19.574c0-1.942-1.581-3.522-3.523-3.522H5.574z"/></g><g><rect x="30" y="16" width="2" height="19"/></g><g><circle cx="4" cy="24" r="1"/></g><g><circle cx="10" cy="18" r="1"/></g><g><circle cx="10" cy="24" r="1"/></g><g><circle cx="7" cy="21" r="1"/></g><g><circle cx="16" cy="18" r="1"/></g><g><circle cx="16" cy="24" r="1"/></g><g><circle cx="13" cy="21" r="1"/></g><g><circle cx="22" cy="18" r="1"/></g><g><circle cx="22" cy="24" r="1"/></g><g><circle cx="19" cy="15" r="1"/></g><g><circle cx="19" cy="21" r="1"/></g><g><circle cx="28" cy="18" r="1"/></g><g><circle cx="28" cy="24" r="1"/></g><g><circle cx="25" cy="21" r="1"/></g><g><circle cx="4" cy="18" r="1"/></g><g><circle cx="31" cy="21" r="1"/></g><g><circle cx="7" cy="27" r="1"/></g><g><circle cx="7" cy="33" r="1"/></g><g><circle cx="4" cy="30" r="1"/></g><g><circle cx="13" cy="27" r="1"/></g><g><circle cx="13" cy="33" r="1"/></g><g><circle cx="10" cy="30" r="1"/></g><g><circle cx="19" cy="27" r="1"/></g><g><circle cx="19" cy="33" r="1"/></g><g><circle cx="16" cy="30" r="1"/></g><g><circle cx="25" cy="27" r="1"/></g><g><circle cx="25" cy="33" r="1"/></g><g><circle cx="22" cy="30" r="1"/></g><g><circle cx="31" cy="33" r="1"/></g><g><circle cx="28" cy="30" r="1"/></g></g></svg>