<?xml version="1.0" encoding="utf-8"?><!-- Generator: Adobe Illustrator 15.0.0, SVG Export Plug-In . SVG Version: 6.00 Build 0)  --><!DOCTYPE svg PUBLIC "-//W3C//DTD SVG 1.1//EN" "http://www.w3.org/Graphics/SVG/1.1/DTD/svg11.dtd"><svg xmlns="http://www.w3.org/2000/svg" xmlns:xlink="http://www.w3.org/1999/xlink" viewBox="0 0 50 50" width="50px" height="50px"><path d="M48.807,22.093l-20.899-20.9c-1.529-1.528-4.216-1.569-5.916,0.001L1.193,22.093c-1.592,1.592-1.604,4.178,0,5.914l20.8,20.8C22.762,49.576,23.799,50,24.913,50c1.099,0,2.152-0.414,2.995-1.193l20.8-20.8C50.365,26.349,50.41,23.696,48.807,22.093z M18,27c-1.104,0-2-0.896-2-2s0.896-2,2-2s2,0.896,2,2S19.104,27,18,27z M25,27c-1.104,0-2-0.896-2-2s0.896-2,2-2s2,0.896,2,2S26.104,27,25,27z M32,27c-1.104,0-2-0.896-2-2s0.896-2,2-2s2,0.896,2,2S33.104,27,32,27z"/></svg>