<?xml version="1.0" encoding="iso-8859-1"?><!-- Generator: Adobe Illustrator 22.1.0, SVG Export Plug-In . SVG Version: 6.00 Build 0)  --><svg xmlns="http://www.w3.org/2000/svg" xmlns:xlink="http://www.w3.org/1999/xlink" viewBox="0 0 50 50" width="50px" height="50px"><g></g><line style="fill:none;stroke:#000000;stroke-width:2;stroke-linecap:round;stroke-miterlimit:10;" x1="13.5" y1="6.5" x2="6.5" y2="13.5"/><line style="fill:none;stroke:#000000;stroke-width:2;stroke-linecap:round;stroke-miterlimit:10;" x1="13.5" y1="13.5" x2="6.5" y2="6.5"/><circle style="fill:none;stroke:#000000;stroke-width:2;stroke-linecap:round;stroke-miterlimit:10;" cx="10" cy="10" r="9"/><path d="M25,30c-2.757,0-5-2.243-5-5s2.243-5,5-5s5,2.243,5,5S27.757,30,25,30z"/><path d="M41,4H16.695C18.124,5.593,19,7.692,19,10c0,1.949-0.626,3.748-1.679,5.222l2.968,2.12c0.802-0.494,1.685-0.866,2.627-1.09L23.625,12h2.75l0.709,4.252c0.943,0.224,1.825,0.595,2.627,1.09l3.509-2.507l1.945,1.945l-2.507,3.509c0.494,0.802,0.866,1.685,1.09,2.627L38,23.625v2.75l-4.252,0.709c-0.224,0.943-0.595,1.825-1.09,2.627l2.507,3.509l-1.945,1.945l-3.509-2.507c-0.802,0.494-1.685,0.866-2.627,1.09L26.375,38h-2.75l-0.709-4.252c-0.943-0.224-1.825-0.595-2.627-1.09l-3.509,2.507l-1.945-1.945l2.507-3.509c-0.494-0.802-0.866-1.685-1.09-2.627L12,26.375v-2.75l4.252-0.709c0.224-0.943,0.595-1.825,1.09-2.627l-2.12-2.968C13.748,18.374,11.949,19,10,19c-2.308,0-4.407-0.876-6-2.305V41c0,2.757,2.243,5,5,5h32c2.757,0,5-2.243,5-5V9C46,6.243,43.757,4,41,4z"/></svg>