<?xml version="1.0" encoding="iso-8859-1"?><!-- Generator: Adobe Illustrator 19.2.1, SVG Export Plug-In . SVG Version: 6.00 Build 0)  --><svg xmlns="http://www.w3.org/2000/svg" xmlns:xlink="http://www.w3.org/1999/xlink" viewBox="0 0 50 50" width="500px" height="500px"><path style="fill:none;stroke:#000000;stroke-width:2;stroke-linecap:round;stroke-linejoin:round;stroke-miterlimit:10;" d="M24,16.317c2.363-1.124,4-3.527,4-6.317c0-3.866-3.134-7-7-7s-7,3.134-7,7c0,2.791,1.637,5.193,4,6.317"/><path style="fill:none;stroke:#000000;stroke-width:2;stroke-linecap:round;stroke-linejoin:round;stroke-miterlimit:10;" d="M18,34.756V10c0-1.657,1.343-3,3-3h0c1.657,0,3,1.343,3,3v15"/><path style="fill:none;stroke:#000000;stroke-width:2;stroke-linecap:round;stroke-linejoin:round;stroke-miterlimit:10;" d="M24,25v-2c0-1.657,1.343-3,3-3h0c1.657,0,3,1.343,3,3v2"/><path style="fill:none;stroke:#000000;stroke-width:2;stroke-linecap:round;stroke-linejoin:round;stroke-miterlimit:10;" d="M30,25v-1c0-1.657,1.343-3,3-3h0c1.657,0,3,1.343,3,3v2"/><path style="fill:none;stroke:#000000;stroke-width:2;stroke-linecap:round;stroke-linejoin:round;stroke-miterlimit:10;" d="M36,27v-1c0-1.657,1.343-3,3-3h0c1.657,0,3,1.343,3,3v13.001c0,4.418-3.582,7.999-8,7.999l-7.275-0.001c-3.182-0.001-6.233-1.265-8.483-3.515L6.879,32.121c-1.172-1.172-1.172-3.071,0-4.243l0,0c1.172-1.172,3.071-1.172,4.243,0l6.877,6.877"/></svg>