<?xml version="1.0" encoding="iso-8859-1"?><!-- Generator: Adobe Illustrator 19.1.1, SVG Export Plug-In . SVG Version: 6.00 Build 0)  --><svg xmlns="http://www.w3.org/2000/svg" xmlns:xlink="http://www.w3.org/1999/xlink" viewBox="0 0 50 50" width="50px" height="50px"><g><polygon points="14.789,21 18.211,21 16.5,16.057 "/><path d="M25,2C12.318,2,2,11.42,2,23c0,4.754,1.791,9.409,5.044,13.12c1.308,2.378-1.812,6.551-3.151,8.343C3.207,45.381,3,45.658,3,46.097C3,47.014,3.688,48,5.197,48c3.572,0,7.007-2.178,10.038-4.099c0.653-0.414,1.284-0.813,1.888-1.172C19.652,43.573,22.299,44,25,44c12.683,0,23-9.421,23-21C48,11.42,37.683,2,25,2z M21.327,26.945C21.219,26.982,21.108,27,21,27c-0.415,0-0.802-0.259-0.945-0.673L18.903,23h-4.807l-1.152,3.327c-0.181,0.521-0.75,0.796-1.272,0.618c-0.522-0.181-0.798-0.751-0.618-1.272l4.5-13C15.694,12.27,16.074,12,16.5,12s0.806,0.27,0.945,0.673l4.5,13C22.125,26.194,21.849,26.765,21.327,26.945z M39,24h-1.198c-0.363,1.395-1.367,4.264-3.911,6.873c0.982,0.784,2.154,1.561,3.54,2.225c0.498,0.239,0.709,0.836,0.471,1.334C37.73,34.791,37.372,35,36.999,35c-0.145,0-0.292-0.031-0.431-0.098c-1.672-0.801-3.058-1.742-4.2-2.682c-1.347,1.063-2.992,2.023-5.044,2.726C27.217,34.982,27.107,35,27,35c-0.416,0-0.804-0.261-0.946-0.676c-0.179-0.522,0.1-1.091,0.622-1.271c1.676-0.574,3.043-1.348,4.18-2.206c-1.784-1.797-2.617-3.311-2.675-3.419c-0.262-0.487-0.079-1.094,0.407-1.354c0.49-0.262,1.092-0.079,1.354,0.406c0.024,0.043,0.795,1.416,2.435,3.046c1.991-2.023,2.927-4.224,3.339-5.527H27c-0.553,0-1-0.448-1-1s0.447-1,1-1h5v-2c0-0.552,0.447-1,1-1s1,0.448,1,1v2h5c0.553,0,1,0.448,1,1S39.553,24,39,24z"/></g></svg>