<?xml version="1.0" encoding="iso-8859-1"?><!-- Generator: Adobe Illustrator 19.2.1, SVG Export Plug-In . SVG Version: 6.00 Build 0)  --><svg xmlns="http://www.w3.org/2000/svg" xmlns:xlink="http://www.w3.org/1999/xlink" viewBox="0 0 50 50" width="50px" height="50px"><path d="M45.154,6H4.846C3.276,6,2,7.276,2,8.846V18h46V8.846C48,7.276,46.724,6,45.154,6z M8,14c-1.104,0-2-0.896-2-2c0-1.105,0.896-2,2-2s2,0.895,2,2C10,13.104,9.104,14,8,14z M14,14c-1.104,0-2-0.896-2-2c0-1.105,0.896-2,2-2s2,0.895,2,2C16,13.104,15.104,14,14,14z M43,14H19v-4h24V14z"/><path d="M2,20v23c0,0.553,0.447,1,1,1h44c0.553,0,1-0.447,1-1V20H2z M28,38H8v-5h20V38z M28,29H8v-5h20V29z M42,38h-9V24h9V38z"/></svg>