<?xml version="1.0" encoding="iso-8859-1"?>
<!-- Generator: Adobe Illustrator 24.0.2, SVG Export Plug-In . SVG Version: 6.00 Build 0)  -->
<svg version="1.1" xmlns="http://www.w3.org/2000/svg" xmlns:xlink="http://www.w3.org/1999/xlink" x="0px" y="0px"
	 viewBox="0 0 80 80" style="enable-background:new 0 0 80 80;" xml:space="preserve">
<g id="&#x421;&#x43B;&#x43E;&#x439;_1">
</g>
<g id="&#x421;&#x43B;&#x43E;&#x439;_2">
	<path style="fill:none;stroke:#000000;stroke-width:2;stroke-miterlimit:10;" d="M52.968,34.882C52.968,42.755,40,58.5,40,58.5
		S27.032,43.471,27.032,34.882C27.032,27.768,32.838,22,40,22S52.968,27.768,52.968,34.882z"/>
	<path style="fill:none;stroke:#000000;stroke-width:2;stroke-miterlimit:10;" d="M40,30c-2.209,0-4,1.791-4,4s1.791,4,4,4
		s4-1.791,4-4S42.209,30,40,30z"/>
	<path d="M40,12c-0.552,0-1,0.448-1,1s0.448,1,1,1s1-0.448,1-1S40.552,12,40,12z M40,66c-0.552,0-1,0.448-1,1s0.448,1,1,1
		s1-0.448,1-1S40.552,66,40,66z M67,39c-0.552,0-1,0.448-1,1s0.448,1,1,1s1-0.448,1-1S67.552,39,67,39z M13,39c-0.552,0-1,0.448-1,1
		s0.448,1,1,1s1-0.448,1-1S13.552,39,13,39z"/>
	<path d="M58.384,20.201c-0.391,0.391-0.391,1.024,0,1.414c0.391,0.391,1.024,0.391,1.414,0c0.391-0.391,0.391-1.024,0-1.414
		C59.408,19.811,58.775,19.811,58.384,20.201z"/>
	<path d="M20.201,58.385c-0.391,0.391-0.391,1.024,0,1.414c0.391,0.391,1.024,0.391,1.414,0c0.391-0.391,0.391-1.024,0-1.414
		C21.225,57.994,20.591,57.994,20.201,58.385z"/>
	<path d="M29.285,14.13c-0.51,0.211-0.753,0.796-0.541,1.307s0.796,0.753,1.307,0.541s0.753-0.796,0.541-1.307
		C30.38,14.161,29.795,13.919,29.285,14.13z"/>
	<path d="M49.95,64.02c-0.51,0.211-0.753,0.796-0.541,1.307c0.211,0.51,0.796,0.753,1.307,0.541c0.51-0.211,0.753-0.796,0.541-1.307
		C51.046,64.051,50.461,63.809,49.95,64.02z"/>
	<path d="M64.562,28.743c-0.51,0.211-0.753,0.796-0.541,1.307c0.211,0.51,0.796,0.753,1.307,0.541
		c0.51-0.211,0.753-0.796,0.541-1.307C65.658,28.774,65.073,28.532,64.562,28.743z"/>
	<path d="M14.673,49.408c-0.51,0.211-0.753,0.796-0.541,1.307c0.211,0.51,0.796,0.753,1.307,0.541
		c0.51-0.211,0.753-0.796,0.541-1.307C15.768,49.439,15.183,49.196,14.673,49.408z"/>
	<path d="M49.408,14.672c-0.211,0.51,0.031,1.095,0.541,1.307c0.51,0.211,1.095-0.031,1.307-0.541
		c0.211-0.51-0.031-1.095-0.541-1.307C50.204,13.92,49.619,14.162,49.408,14.672z"/>
	<path d="M28.745,64.56c-0.211,0.51,0.031,1.095,0.541,1.307s1.095-0.031,1.307-0.541c0.211-0.51-0.031-1.095-0.541-1.307
		C29.542,63.808,28.957,64.05,28.745,64.56z"/>
	<path d="M64.021,49.948c-0.211,0.51,0.031,1.095,0.541,1.307c0.51,0.211,1.095-0.031,1.307-0.541
		c0.211-0.51-0.031-1.095-0.541-1.307C64.818,49.195,64.233,49.438,64.021,49.948z"/>
	<path d="M14.132,29.285c-0.211,0.51,0.031,1.095,0.541,1.307c0.51,0.211,1.095-0.031,1.307-0.541
		c0.211-0.51-0.031-1.095-0.541-1.307C14.928,28.532,14.343,28.774,14.132,29.285z"/>
	<path d="M34.539,12.538c-0.542,0.108-0.893,0.634-0.786,1.176s0.634,0.893,1.176,0.786c0.542-0.108,0.893-0.634,0.786-1.176
		C35.607,12.782,35.08,12.43,34.539,12.538z"/>
	<path d="M45.073,65.501c-0.542,0.108-0.893,0.634-0.786,1.176s0.634,0.893,1.176,0.786c0.542-0.108,0.893-0.634,0.786-1.176
		S45.615,65.393,45.073,65.501z"/>
	<path d="M66.287,33.752c-0.542,0.108-0.893,0.634-0.786,1.176c0.108,0.542,0.634,0.893,1.176,0.786
		c0.542-0.108,0.893-0.634,0.786-1.176C67.355,33.996,66.829,33.644,66.287,33.752z"/>
	<path d="M13.324,44.287c-0.542,0.108-0.893,0.634-0.786,1.176c0.108,0.542,0.634,0.893,1.176,0.786
		c0.542-0.108,0.893-0.634,0.786-1.176C14.393,44.531,13.866,44.179,13.324,44.287z"/>
	<path d="M54.168,16.994c-0.307,0.459-0.183,1.08,0.276,1.387c0.459,0.307,1.08,0.183,1.387-0.276
		c0.307-0.459,0.183-1.08-0.276-1.387C55.096,16.411,54.475,16.534,54.168,16.994z"/>
	<path d="M24.171,61.892c-0.307,0.459-0.183,1.08,0.276,1.387c0.459,0.307,1.08,0.183,1.387-0.276
		c0.307-0.459,0.183-1.08-0.276-1.387S24.477,61.433,24.171,61.892z"/>
	<path d="M61.894,24.166c-0.459,0.307-0.583,0.928-0.276,1.387c0.307,0.459,0.928,0.583,1.387,0.276
		c0.459-0.307,0.583-0.928,0.276-1.387C62.975,23.983,62.354,23.859,61.894,24.166z"/>
	<path d="M16.996,54.168c-0.459,0.307-0.583,0.928-0.276,1.387c0.307,0.459,0.928,0.583,1.387,0.276
		c0.459-0.307,0.583-0.928,0.276-1.387C18.076,53.985,17.455,53.861,16.996,54.168z"/>
	<path d="M44.287,13.323c-0.108,0.542,0.244,1.068,0.786,1.176s1.068-0.244,1.176-0.786c0.108-0.542-0.244-1.068-0.786-1.176
		C44.921,12.43,44.395,12.781,44.287,13.323z"/>
	<path d="M33.753,66.285c-0.108,0.542,0.244,1.068,0.786,1.176c0.542,0.108,1.068-0.244,1.176-0.786
		c0.108-0.542-0.244-1.068-0.786-1.176C34.387,65.392,33.861,65.743,33.753,66.285z"/>
	<path d="M65.502,45.072c-0.108,0.542,0.244,1.068,0.786,1.176s1.068-0.244,1.176-0.786c0.108-0.542-0.244-1.068-0.786-1.176
		S65.61,44.53,65.502,45.072z"/>
	<path d="M12.54,34.538c-0.108,0.542,0.244,1.068,0.786,1.176c0.542,0.108,1.068-0.244,1.176-0.786s-0.244-1.068-0.786-1.176
		C13.174,33.645,12.648,33.996,12.54,34.538z"/>
	<path d="M17.696,24.718l-7.414-7.414l9.436-2.022L17.696,24.718z M62.304,55.282l7.414,7.414l-9.436,2.022L62.304,55.282z"/>
	<path d="M25.574,12.574C29.886,10.296,34.793,9,40,9c17.094,0,31,13.907,31,31c0,7.469-2.655,14.329-7.071,19.686l1.418,1.418
		C70.121,55.379,73,48.02,73,40C73,21.804,58.196,7,40,7c-5.763,0-11.184,1.489-15.904,4.096L25.574,12.574z M54.426,67.426
		C50.114,69.704,45.207,71,40,71C22.906,71,9,57.093,9,40c0-7.469,2.655-14.329,7.071-19.686l-1.418-1.418
		C9.879,24.621,7,31.98,7,40c0,18.196,14.804,33,33,33c5.763,0,11.184-1.489,15.904-4.096L54.426,67.426z"/>
</g>
</svg>