<?xml version="1.0" encoding="utf-8"?><!-- Generator: Adobe Illustrator 17.0.0, SVG Export Plug-In . SVG Version: 6.00 Build 0)  --><!DOCTYPE svg PUBLIC "-//W3C//DTD SVG 1.1//EN" "http://www.w3.org/Graphics/SVG/1.1/DTD/svg11.dtd"><svg xmlns="http://www.w3.org/2000/svg" xmlns:xlink="http://www.w3.org/1999/xlink" viewBox="0 0 50 50" width="500px" height="500px"><g><circle cx="22" cy="15" r="1"/><circle cx="19" cy="18" r="1"/><circle cx="22" cy="21" r="1"/><circle cx="25" cy="18" r="1"/><circle cx="25" cy="24" r="1"/><circle cx="10" cy="15" r="1"/><circle cx="16" cy="15" r="1"/><circle cx="7" cy="18" r="1"/><circle cx="13" cy="18" r="1"/><circle cx="16" cy="21" r="1"/><circle cx="22" cy="3" r="1"/><circle cx="19" cy="6" r="1"/><circle cx="22" cy="9" r="1"/><circle cx="25" cy="6" r="1"/><circle cx="19" cy="12" r="1"/><circle cx="25" cy="12" r="1"/><circle cx="16" cy="9" r="1"/><circle cx="34" cy="15" r="1"/><circle cx="31" cy="18" r="1"/><circle cx="28" cy="15" r="1"/><circle cx="28" cy="21" r="1"/><circle cx="34" cy="3" r="1"/><circle cx="31" cy="6" r="1"/><circle cx="34" cy="9" r="1"/><circle cx="31" cy="12" r="1"/><circle cx="28" cy="9" r="1"/><circle cx="28" cy="3" r="1"/><circle cx="37" cy="6" r="1"/><circle cx="37" cy="12" r="1"/><circle cx="43" cy="6" r="1"/><circle cx="40" cy="9" r="1"/><circle cx="13" cy="12" r="1"/></g><polyline fill="none" stroke="#000000" stroke-width="2" stroke-linecap="round" stroke-linejoin="round" stroke-miterlimit="10" points="38.137,15.519 49,17.363 27.994,36.998 1,30.031 12.722,21.058 "/><polyline fill="none" stroke="#000000" stroke-width="2" stroke-linecap="round" stroke-linejoin="round" stroke-miterlimit="10" points="38.232,27.533 49,29.361 27.994,48.995 1,42.028 12.097,33.534 "/><polygon fill="none" stroke="#000000" stroke-width="2" stroke-linecap="round" stroke-linejoin="round" stroke-miterlimit="10" points="27.994,25 1,18.033 23.259,0.995 49,5.366 "/></svg>