<?xml version="1.0" encoding="iso-8859-1"?>
<!-- Generator: Adobe Illustrator 24.2.3, SVG Export Plug-In . SVG Version: 6.00 Build 0)  -->
<svg version="1.1" id="Layer_1" xmlns="http://www.w3.org/2000/svg" xmlns:xlink="http://www.w3.org/1999/xlink" x="0px" y="0px"
	 viewBox="0 0 48 48" style="enable-background:new 0 0 48 48;" xml:space="preserve">
<path style="fill:none;stroke:#000000;stroke-width:3;stroke-linecap:round;stroke-linejoin:round;stroke-miterlimit:10;" d="
	M27.5,42.5c4.694,0,8-3.5,9-8"/>
<path style="fill:none;stroke:#000000;stroke-width:3;stroke-linecap:round;stroke-linejoin:round;stroke-miterlimit:10;" d="
	M30.5,36.5c0,0-1-1-1-3c0-5.5,7-5.5,8.5-9c0,0,4.5,3,4.5,9c0,4-3,7-6.5,7c-1.844,0-2-0.5-2-0.5"/>
<line style="fill:none;stroke:#000000;stroke-width:3;stroke-linecap:round;stroke-linejoin:round;stroke-miterlimit:10;" x1="7" y1="17.5" x2="41" y2="17.5"/>
<path d="M24,4C12.972,4,4,12.972,4,24s8.972,20,20,20c0.115,0,0.227-0.01,0.34-0.017C24.128,43.531,24,43.032,24,42.5
	c0-0.555,0.141-1.073,0.371-1.539C24.247,40.981,24.123,41,24,41c-2.329,0-4.839-3.464-6.127-9h8.255
	c0.188-1.161,0.586-2.151,1.115-3h-9.914C17.12,27.441,17,25.771,17,24c0-10.019,3.689-17,7-17s7,6.981,7,17
	c0,0.521-0.031,1.014-0.051,1.517c0.568-0.352,1.116-0.654,1.6-0.919c0.416-0.228,0.981-0.539,1.444-0.835
	c-0.036-6.414-1.51-12.002-3.823-15.587c5.84,2.285,10.115,7.702,10.742,14.179c0.806,0.706,1.972,1.906,2.99,3.592
	C43.964,25.306,44,24.657,44,24C44,12.972,35.028,4,24,4z M17.83,39.824c-3.786-1.482-6.918-4.271-8.822-7.824h5.8
	C15.471,35.115,16.517,37.788,17.83,39.824z M14,24c0,1.736,0.117,3.404,0.315,5H7.753C7.265,27.418,7,25.74,7,24
	c0-7.196,4.501-13.347,10.83-15.824C15.488,11.805,14,17.485,14,24z"/>
</svg>