<?xml version="1.0" encoding="iso-8859-1"?><!-- Generator: Adobe Illustrator 21.1.0, SVG Export Plug-In . SVG Version: 6.00 Build 0)  --><svg xmlns="http://www.w3.org/2000/svg" xmlns:xlink="http://www.w3.org/1999/xlink" viewBox="0 0 50 50" width="500px" height="500px"><path d="M25,2C12.297,2,2,12.297,2,25c0,12.703,10.297,23,23,23s23-10.297,23-23C48,12.297,37.703,2,25,2z M25,43c-9.925,0-18-8.075-18-18S15.075,7,25,7s18,8.075,18,18S34.925,43,25,43z"/><path d="M25,9C16.178,9,9,16.178,9,25s7.178,16,16,16s16-7.178,16-16S33.822,9,25,9z M25.737,35l-2.684-8.053L15,24.263L32,18L25.737,35z"/></svg>