<?xml version="1.0" encoding="iso-8859-1"?>
<!-- Generator: Adobe Illustrator 28.2.0, SVG Export Plug-In . SVG Version: 6.00 Build 0)  -->
<svg version="1.1" baseProfile="basic" id="Layer_1"
	 xmlns="http://www.w3.org/2000/svg" xmlns:xlink="http://www.w3.org/1999/xlink" x="0px" y="0px" viewBox="0 0 24 24"
	 xml:space="preserve">
<path d="M21.98,14.804C21.887,14.336,21.477,14,21,14h-2c-0.552,0-1,0.448-1,1s0.448,1,1,1h1.18l0.6,3H3.22l0.6-3H5
	c0.552,0,1-0.448,1-1s-0.448-1-1-1H3c-0.477,0-0.887,0.336-0.98,0.804l-1,5c-0.059,0.294,0.017,0.599,0.207,0.83
	C1.417,20.866,1.7,21,2,21h20c0.3,0,0.583-0.134,0.773-0.366c0.19-0.231,0.266-0.536,0.207-0.83L21.98,14.804z"/>
<path d="M12,1C8.14,1,5,4.14,5,8c0,5.26,6.164,9.636,6.427,9.819C11.599,17.94,11.799,18,12,18s0.401-0.06,0.573-0.181
	C12.836,17.636,19,13.26,19,8C19,4.14,15.86,1,12,1z M12,10c-1.105,0-2-0.895-2-2c0-1.105,0.895-2,2-2s2,0.895,2,2
	C14,9.105,13.105,10,12,10z"/>
</svg>