<?xml version="1.0" encoding="iso-8859-1"?><!-- Generator: Adobe Illustrator 22.1.0, SVG Export Plug-In . SVG Version: 6.00 Build 0)  --><svg xmlns="http://www.w3.org/2000/svg" xmlns:xlink="http://www.w3.org/1999/xlink" viewBox="0 0 80 80" width="480px" height="480px"><path style="fill:none;stroke:#000000;stroke-width:2;stroke-miterlimit:10;" d="M52,15H6v52h68V19"/><path style="fill:none;stroke:#000000;stroke-width:2;stroke-miterlimit:10;" d="M58,32.768L43.431,42.922c-2.061,1.437-4.8,1.437-6.861,0L6,21.617"/><circle cx="44" cy="61" r="1"/><circle cx="40" cy="61" r="1"/><circle cx="36" cy="61" r="1"/><circle cx="32" cy="61" r="1"/><circle cx="28" cy="61" r="1"/><circle cx="24" cy="61" r="1"/><circle cx="20" cy="61" r="1"/><circle cx="68" cy="61" r="1"/><circle cx="64" cy="61" r="1"/><circle cx="68" cy="57" r="1"/><circle cx="68" cy="53" r="1"/><circle cx="68" cy="49" r="1"/><circle cx="68" cy="45" r="1"/><circle cx="68" cy="41" r="1"/><circle cx="12" cy="57" r="1"/><circle cx="12" cy="53" r="1"/><circle cx="12" cy="49" r="1"/><circle cx="12" cy="45" r="1"/><circle cx="12" cy="41" r="1"/><circle cx="12" cy="37" r="1"/><circle cx="12" cy="33" r="1"/><circle cx="12" cy="29" r="1"/><circle cx="60" cy="61" r="1"/><circle cx="56" cy="61" r="1"/><circle cx="52" cy="61" r="1"/><circle cx="48" cy="61" r="1"/><circle cx="16" cy="61" r="1"/><circle cx="12" cy="61" r="1"/><path style="fill:none;stroke:#000000;stroke-width:2;stroke-miterlimit:10;" d="M74,18c0,6.075-11,21-11,21S52,24.075,52,18S56.925,7,63,7S74,11.925,74,18z"/><circle style="fill:none;stroke:#000000;stroke-width:2;stroke-miterlimit:10;" cx="63" cy="18" r="3"/></svg>