<?xml version="1.0" encoding="iso-8859-1"?>
<!-- Generator: Adobe Illustrator 25.2.3, SVG Export Plug-In . SVG Version: 6.00 Build 0)  -->
<svg version="1.1" baseProfile="basic" id="Layer_1"
	 xmlns="http://www.w3.org/2000/svg" xmlns:xlink="http://www.w3.org/1999/xlink" x="0px" y="0px" viewBox="0 0 24 24"
	 xml:space="preserve">
<path d="M16,11.438c0,2.957-3.424,5.388-3.57,5.489L12,17.228l-0.43-0.301C11.424,16.825,8,14.394,8,11.438c0-2.206,1.794-4,4-4
	S16,9.232,16,11.438z M12,9.75c-0.966,0-1.75,0.784-1.75,1.75s0.784,1.75,1.75,1.75s1.75-0.784,1.75-1.75S12.966,9.75,12,9.75z"/>
<polygon points="2.923,8.931 2.139,4.895 3.552,4.429 4.523,6.468 6.911,6.655 6.996,8.139 "/>
<polygon points="21.077,15.069 21.861,19.105 20.448,19.571 19.477,17.532 17.089,17.345 17.004,15.861 "/>
<path style="fill:none;stroke:#000000;stroke-width:1.5;stroke-linejoin:round;stroke-miterlimit:10;" d="M4.059,7.302
	C5.666,4.592,8.621,2.775,12,2.775c5.361,0,9.654,4.573,9.191,10.032"/>
<path style="fill:none;stroke:#000000;stroke-width:1.5;stroke-linejoin:round;stroke-miterlimit:10;" d="M19.941,16.698
	c-1.607,2.71-4.562,4.527-7.941,4.527c-5.361,0-9.654-4.573-9.191-10.032"/>
</svg>