<?xml version="1.0" encoding="iso-8859-1"?>
<!-- Generator: Adobe Illustrator 24.2.3, SVG Export Plug-In . SVG Version: 6.00 Build 0)  -->
<svg version="1.1" id="Layer_1" xmlns="http://www.w3.org/2000/svg" xmlns:xlink="http://www.w3.org/1999/xlink" x="0px" y="0px"
	 viewBox="0 0 48 48" style="enable-background:new 0 0 48 48;" xml:space="preserve">
<circle cx="34" cy="14" r="2.5"/>
<path style="fill:none;stroke:#000000;stroke-width:3;stroke-miterlimit:10;" d="M42.5,13.878C42.5,9.251,38.694,5.5,34,5.5
	s-8.5,3.751-8.5,8.378c0,2.076,0.771,3.973,2.04,5.436c0,0,4.034,4.521,5.328,5.737c0.636,0.598,1.629,0.598,2.265,0
	c1.507-1.417,5.328-5.737,5.328-5.737C41.729,17.851,42.5,15.955,42.5,13.878z"/>
<line style="fill:none;stroke:#000000;stroke-width:3;stroke-linecap:round;stroke-linejoin:round;stroke-miterlimit:10;" x1="7" y1="30.5" x2="41" y2="30.5"/>
<path d="M43.723,20.826c-0.195,0.267-0.4,0.529-0.618,0.781c-0.197,0.223-1.071,1.208-2.107,2.348C40.998,23.971,41,23.985,41,24
	c0,7.196-4.501,13.347-10.83,15.824c1.718-2.662,2.969-6.434,3.518-10.824h-3.021C29.698,36.26,26.725,41,24,41
	c-3.311,0-7-6.981-7-17c0-1.771,0.12-3.441,0.328-5h5.854c-0.463-0.955-0.795-1.963-0.987-3h-4.323C19.16,10.464,21.671,7,24,7
	c0.073,0,0.146,0.013,0.22,0.02c0.767-1.068,1.707-2.003,2.78-2.77C26.019,4.101,25.022,4,24,4C12.972,4,4,12.972,4,24
	s8.972,20,20,20s20-8.972,20-20C44,22.917,43.89,21.863,43.723,20.826z M17.83,8.176c-1.313,2.035-2.359,4.709-3.022,7.824h-5.8
	C10.912,12.447,14.044,9.658,17.83,8.176z M7,24c0-1.74,0.265-3.418,0.753-5h6.563C14.117,20.596,14,22.264,14,24
	c0,6.515,1.488,12.195,3.83,15.824C11.501,37.347,7,31.196,7,24z"/>
</svg>