<?xml version="1.0" encoding="iso-8859-1"?>
<!-- Generator: Adobe Illustrator 22.1.0, SVG Export Plug-In . SVG Version: 6.00 Build 0)  -->
<svg version="1.1" id="Layer_1" xmlns="http://www.w3.org/2000/svg" xmlns:xlink="http://www.w3.org/1999/xlink" x="0px" y="0px"
	 viewBox="0 0 100 100" style="enable-background:new 0 0 100 100;" xml:space="preserve">
<circle style="fill:none;stroke:#000000;stroke-miterlimit:10;" cx="36" cy="60" r="3.5"/>
<path style="fill:none;stroke:#000000;stroke-width:2;stroke-linejoin:round;stroke-miterlimit:10;" d="M66.97,26.959
	C66.97,38,51.985,53,51.985,53S37,38,37,26.959C37,18.698,43.71,12,51.985,12S66.97,18.698,66.97,26.959z"/>
<polyline style="fill:none;stroke:#000000;stroke-width:2;stroke-linejoin:round;stroke-miterlimit:10;" points="37.16,29 27,29 
	24,31 24,33 26,36 26,40 18,40 11,53 19,58 19,68 26,72.5 26,78.5 32,84 36,84 47.5,86.5 51.5,78 61,80.5 73,88 81,83 75.5,77 
	87,62 82,57 80,47.5 87,44 89,37.5 87.5,34 77,36 70,29 66.81,29 "/>
<path style="fill:none;stroke:#000000;stroke-miterlimit:10;" d="M52,35.5c-4.686,0-8.5-3.814-8.5-8.5s3.814-8.5,8.5-8.5
	s8.5,3.814,8.5,8.5S56.686,35.5,52,35.5z"/>
<path style="fill:none;stroke:#000000;stroke-linecap:round;stroke-miterlimit:10;" d="M56.5,16.419
	C55.117,15.828,53.596,15.5,52,15.5c-6.34,0-11.5,5.16-11.5,11.5S45.66,38.5,52,38.5c6.171,0,11.21-4.893,11.475-11"/>
<path style="fill:none;stroke:#000000;stroke-linecap:round;stroke-miterlimit:10;" d="M60.698,19.5
	c-0.646-0.748-1.382-1.415-2.198-1.977"/>
<path style="fill:none;stroke:#000000;stroke-linecap:round;stroke-miterlimit:10;" d="M62.951,23.5
	c-0.109-0.34-0.234-0.674-0.373-1"/>
</svg>