<?xml version="1.0" encoding="iso-8859-1"?>
<!-- Generator: Adobe Illustrator 24.2.3, SVG Export Plug-In . SVG Version: 6.00 Build 0)  -->
<svg version="1.1" id="Layer_1" xmlns="http://www.w3.org/2000/svg" xmlns:xlink="http://www.w3.org/1999/xlink" x="0px" y="0px"
	 viewBox="0 0 48 48" style="enable-background:new 0 0 48 48;" xml:space="preserve">
<path style="fill:none;stroke:#000000;stroke-width:3;stroke-linecap:round;stroke-linejoin:round;stroke-miterlimit:10;" d="
	M24,5.5c10.217,0,18.5,8.283,18.5,18.5S34.217,42.5,24,42.5S5.5,34.217,5.5,24"/>
<polyline style="fill:none;stroke:#000000;stroke-width:3;stroke-linecap:round;stroke-linejoin:round;stroke-miterlimit:10;" points="
	7.5,30.5 9.5,27.5 13.5,27.5 17.5,31.5 17.5,37.5 21.5,41.5 "/>
<polyline style="fill:none;stroke:#000000;stroke-width:3;stroke-linecap:round;stroke-linejoin:round;stroke-miterlimit:10;" points="
	30.5,40.5 34.5,32.5 32.5,28.5 29.5,28.5 26.5,25.5 26.397,22.08 29.5,20.5 32.5,20.5 35.5,21.5 37.5,17.5 32.5,15.5 29.5,15.5 
	29.5,12.5 32.5,11.5 32.5,8.5 "/>
<path d="M19.421,5.579c0.773,0.773,0.773,2.025,0,2.798c-0.014,0.014-0.027,0.027-0.041,0.04l-3.427,3.231l2.592,7.445
	c0.209,0.599,0.056,1.264-0.392,1.713c-0.359,0.359-0.942,0.359-1.301,0c-0.026-0.026-0.05-0.053-0.073-0.082l-4.448-5.659
	l-2.723,2.568l0.598,1.286c0.227,0.488,0.124,1.065-0.256,1.445c-0.35,0.35-0.917,0.35-1.266,0l-1.037-1.038l-0.688,0.451
	c-0.496,0.325-1.153,0.257-1.572-0.162c-0.42-0.42-0.487-1.076-0.162-1.572l0.451-0.688l-1.039-1.038
	c-0.323-0.323-0.348-0.831-0.074-1.182l0.074-0.084c0.38-0.38,0.958-0.482,1.445-0.256l1.287,0.597l2.559-2.713L4.352,8.298
	C4.337,8.287,4.323,8.275,4.309,8.263l-0.04-0.038c-0.359-0.359-0.359-0.942,0-1.301C4.68,6.513,5.274,6.351,5.831,6.487
	l0.151,0.045l7.334,2.552l3.267-3.463c0.75-0.795,2.002-0.832,2.797-0.082L19.421,5.579z"/>
</svg>