<?xml version="1.0" encoding="iso-8859-1"?>
<!-- Generator: Adobe Illustrator 26.0.3, SVG Export Plug-In . SVG Version: 6.00 Build 0)  -->
<svg version="1.1" baseProfile="basic" id="Layer_1"
	 xmlns="http://www.w3.org/2000/svg" xmlns:xlink="http://www.w3.org/1999/xlink" x="0px" y="0px" viewBox="0 0 64 64"
	 xml:space="preserve">
<path d="M57.6,23.577c1.333,0.753,2.305,1.887,2.854,3.181c0.778,1.834,0.707,3.988-0.383,5.836l-8.099,13.527
	C49.161,50.816,43.562,54,38,54H26l-2.697,5.008c-0.267,0.456-0.708,0.788-1.227,0.923c-0.17,0.045-0.343,0.066-0.516,0.066
	c-0.355,0-0.707-0.092-1.017-0.271L4.99,50.777c-0.825-0.475-1.193-1.453-0.878-2.337C6.845,40.754,15,27,32,32h6
	c2.147,0,4.089,0.92,5.291,2.481l5.097-8.5c0.895-1.516,2.35-2.608,4.092-3.064C54.221,22.46,56.039,22.694,57.6,23.577z
	 M56.6,30.621c0.467-0.792,0.467-1.729,0.082-2.501c-0.231-0.463-0.6-0.866-1.09-1.143c-0.633-0.357-1.369-0.453-2.075-0.267
	c-0.706,0.185-1.296,0.627-1.66,1.246c0,0-8.592,14.294-8.647,14.358C42.004,43.817,40.1,45,38,45H28c-1.109,0-2-0.916-2-2
	s0.891-2,2-2h10c0.543,0,1.113-0.284,1.528-0.567c0.201-0.137,0.596-0.664,0.724-0.869c0.223-0.356,0.346-0.889,0.346-1.218
	C40.597,36.961,39.415,36,38,36h-6c-0.195,0-0.765-0.193-0.951-0.248c-6.782-1.988-12.703-0.299-17.603,5.026
	c-2.511,2.729-4.115,5.736-4.92,7.478l12.3,7.077l2.651-4.538C23.834,50.184,24.28,50,25,50h13c4.143,0,8.414-2.366,10.509-5.863
	L56.6,30.621z"/>
<path d="M31.374,25.166C29.167,22.084,28,18.396,28,14.5c0-3.595,1.008-7.049,2.913-9.991l3.357,2.176
	C32.785,8.977,32,11.679,32,14.5c0,3.056,0.908,5.938,2.626,8.337L31.374,25.166z"/>
<path d="M34.626,25.166l-3.252-2.329C33.092,20.438,34,17.556,34,14.5c0-2.821-0.785-5.523-2.271-7.815l3.357-2.176
	C36.992,7.451,38,10.905,38,14.5C38,18.396,36.833,22.084,34.626,25.166z"/>
<path d="M33,26c-6.065,0-11-4.935-11-11S26.935,4,33,4s11,4.935,11,11S39.065,26,33,26z M33,8c-3.859,0-7,3.14-7,7s3.141,7,7,7
	s7-3.14,7-7S36.859,8,33,8z"/>
</svg>