<?xml version="1.0" encoding="iso-8859-1"?>
<!-- Generator: Adobe Illustrator 22.1.0, SVG Export Plug-In . SVG Version: 6.00 Build 0)  -->
<svg version="1.1" id="Layer_1" xmlns="http://www.w3.org/2000/svg" xmlns:xlink="http://www.w3.org/1999/xlink" x="0px" y="0px"
	 viewBox="0 0 100 100" style="enable-background:new 0 0 100 100;" xml:space="preserve">
<polyline style="fill:none;stroke:#000000;stroke-linecap:round;stroke-linejoin:round;stroke-miterlimit:10;" points="33.5,57.5 
	29.164,57.5 19.631,82.5 62.5,82.5 "/>
<polyline style="fill:none;stroke:#000000;stroke-linecap:round;stroke-linejoin:round;stroke-miterlimit:10;" points="78.463,77.5 
	70.836,57.5 66.5,57.5 "/>
<line style="fill:none;stroke:#000000;stroke-linecap:round;stroke-linejoin:round;stroke-miterlimit:10;" x1="64.5" y1="82.5" x2="69.5" y2="82.5"/>
<line style="fill:none;stroke:#000000;stroke-linecap:round;stroke-linejoin:round;stroke-miterlimit:10;" x1="71.5" y1="82.5" x2="72.5" y2="82.5"/>
<path style="fill:none;stroke:#000000;stroke-width:2;stroke-linejoin:round;stroke-miterlimit:10;" d="M35.809,53h-8.372
	c-0.827,0-1.568,0.511-1.863,1.286l-11.44,30C13.634,85.595,14.598,87,15.997,87h68.007c1.398,0,2.362-1.405,1.863-2.714l-11.44-30
	C74.131,53.511,73.39,53,72.563,53h-8.372"/>
<path style="fill:none;stroke:#000000;stroke-width:2;stroke-linecap:round;stroke-linejoin:round;stroke-miterlimit:10;" d="M71,34
	c0,16-21,37-21,37S29,50,29,34c0-11.598,9.402-21,21-21S71,22.402,71,34z"/>
<circle style="fill:none;stroke:#000000;stroke-linecap:round;stroke-linejoin:round;stroke-miterlimit:10;" cx="50" cy="34" r="11.5"/>
<path style="fill:none;stroke:#000000;stroke-linecap:round;stroke-linejoin:round;stroke-miterlimit:10;" d="M56.5,19.943
	C54.521,19.026,52.324,18.5,50,18.5c-8.56,0-15.5,6.94-15.5,15.5S41.44,49.5,50,49.5c8.392,0,15.208-6.673,15.475-15"/>
<path style="fill:none;stroke:#000000;stroke-linecap:round;stroke-linejoin:round;stroke-miterlimit:10;" d="M62.229,24.5
	c-1.046-1.345-2.302-2.515-3.729-3.454"/>
<path style="fill:none;stroke:#000000;stroke-linecap:round;stroke-linejoin:round;stroke-miterlimit:10;" d="M64.477,28.5
	c-0.129-0.339-0.268-0.673-0.42-1"/>
</svg>