<?xml version="1.0" encoding="iso-8859-1"?>
<!-- Generator: Adobe Illustrator 24.1.2, SVG Export Plug-In . SVG Version: 6.00 Build 0)  -->
<svg version="1.1" baseProfile="basic" id="Layer_1_1_"
	 xmlns="http://www.w3.org/2000/svg" xmlns:xlink="http://www.w3.org/1999/xlink" x="0px" y="0px" viewBox="0 0 50 50"
	 xml:space="preserve">
<polygon style="fill:none;stroke:#000000;stroke-width:0.5;stroke-linejoin:round;stroke-miterlimit:10;" points="37,31.287 
	37,40.01 39,41.166 39,43.475 33,46.939 27,43.475 27,41.166 33,37.702 33,34.62 30,37.12 20,38.28 13,37.7 9,28.46 13,14.61 
	23,4.22 33,3.06 37,8.83 41,18.07 39,29.62 "/>
<polyline style="fill:none;stroke:#000000;stroke-width:0.5;stroke-linejoin:round;stroke-miterlimit:10;" points="33,3.06 
	37,12.298 33,26.155 23,36.547 13,37.7 "/>
<line style="fill:none;stroke:#000000;stroke-width:0.5;stroke-linejoin:round;stroke-miterlimit:10;" x1="23" y1="36.547" x2="30" y2="37.12"/>
<line style="fill:none;stroke:#000000;stroke-width:0.5;stroke-linejoin:round;stroke-miterlimit:10;" x1="33" y1="34.62" x2="37" y2="31.287"/>
<line style="fill:none;stroke:#000000;stroke-width:0.5;stroke-linejoin:round;stroke-miterlimit:10;" x1="33" y1="26.155" x2="39" y2="29.62"/>
<line style="fill:none;stroke:#000000;stroke-width:0.5;stroke-linejoin:round;stroke-miterlimit:10;" x1="37" y1="12.298" x2="41" y2="18.07"/>
<polyline style="fill:none;stroke:#000000;stroke-width:0.5;stroke-linejoin:round;stroke-miterlimit:10;" points="33,37.702 
	33,40.011 35,41.166 37,40.01 "/>
<polyline style="fill:none;stroke:#000000;stroke-width:0.5;stroke-linejoin:round;stroke-miterlimit:10;" points="27,41.166 
	33,44.63 39,41.166 "/>
<line style="fill:none;stroke:#000000;stroke-width:0.5;stroke-linejoin:round;stroke-miterlimit:10;" x1="33" y1="44.63" x2="33" y2="46.939"/>
<line style="fill:none;stroke:#000000;stroke-width:0.5;stroke-linejoin:round;stroke-miterlimit:10;" x1="35" y1="32.954" x2="35" y2="41.166"/>
<polygon style="fill:none;stroke:#000000;stroke-width:0.5;stroke-linejoin:round;stroke-miterlimit:10;" points="31,6.525 
	34.196,13.917 31.026,24.954 23,33.283 15.026,34.192 11.797,26.849 15.026,15.717 23,7.479 "/>
<line style="fill:none;stroke:#000000;stroke-width:0.5;stroke-linejoin:round;stroke-miterlimit:10;" x1="31.284" y1="24.01" x2="25.5" y2="20.67"/>
<line style="fill:none;stroke:#000000;stroke-width:0.5;stroke-linejoin:round;stroke-miterlimit:10;" x1="24.5" y1="22.402" x2="30.261" y2="25.728"/>
<rect x="21" y="18.072" transform="matrix(0.5 -0.866 0.866 0.5 -6.1506 30.1092)" style="fill:none;stroke:#000000;stroke-width:0.5;stroke-linejoin:round;stroke-miterlimit:10;" width="4" height="4.619"/>
<line style="fill:none;stroke:#000000;stroke-width:0.5;stroke-linejoin:round;stroke-miterlimit:10;" x1="22" y1="22.113" x2="24" y2="18.649"/>
<path d="M33,3.06l4,5.77l4,9.24l-2,11.55l-2,1.667v8.723l2,1.156v2.309l-6,3.464l-6-3.464v-2.309l6-3.464V34.62l-3,2.5l-10,1.16
	l-7-0.58l-4-9.24l4-13.85L23,4.22L33,3.06 M33.48,1.998l-0.596,0.069l-10,1.16l-0.356,0.041L22.28,3.527l-10,10.39l-0.172,0.178
	l-0.069,0.238l-4,13.85l-0.1,0.345l0.143,0.33l4,9.24l0.238,0.55l0.597,0.049l7,0.58l0.099,0.008l0.099-0.011l10-1.16l0.215-0.025
	L26.5,40.3L26,40.588v0.577v2.309v0.577l0.5,0.289l6,3.464l0.5,0.289l0.5-0.289l6-3.464l0.5-0.289v-0.577v-2.309v-0.577L39.5,40.3
	L38,39.433v-7.678l1.64-1.367l0.282-0.235l0.063-0.362l2-11.55l0.051-0.294l-0.119-0.274l-4-9.24l-0.039-0.091L37.822,8.26l-4-5.77
	L33.48,1.998L33.48,1.998z M30.557,37.957l0.083-0.069L32,36.755v0.369L30.557,37.957L30.557,37.957z"/>
</svg>