<?xml version="1.0" encoding="iso-8859-1"?><!-- Generator: Adobe Illustrator 19.1.1, SVG Export Plug-In . SVG Version: 6.00 Build 0)  --><svg xmlns="http://www.w3.org/2000/svg" xmlns:xlink="http://www.w3.org/1999/xlink" viewBox="0 0 50 50" width="500px" height="500px"><path style="fill:none;stroke:#000000;stroke-width:2;stroke-miterlimit:10;" d="M12,3c-4.971,0-9,4.031-9,9c0,6.023,9,17,9,17s9-10.911,9-17C21,7.031,16.972,3,12,3z M12,15c-1.657,0-3-1.344-3-3s1.343-3,3-3s3,1.344,3,3S13.657,15,12,15z"/><path style="fill:none;stroke:#000000;stroke-width:2;stroke-miterlimit:10;" d="M38,21c-4.971,0-9,4.031-9,9c0,5.927,9,17,9,17s9-10.878,9-17C47,25.031,42.972,21,38,21z M38,33c-1.657,0-3-1.344-3-3s1.343-3,3-3c1.657,0,3,1.344,3,3S39.657,33,38,33z"/></svg>