<?xml version="1.0" encoding="iso-8859-1"?><!-- Generator: Adobe Illustrator 21.1.0, SVG Export Plug-In . SVG Version: 6.00 Build 0)  --><svg xmlns="http://www.w3.org/2000/svg" xmlns:xlink="http://www.w3.org/1999/xlink" viewBox="0 0 80 80" width="480px" height="480px"><circle style="fill:none;stroke:#000000;stroke-width:2;stroke-linecap:round;stroke-linejoin:round;stroke-miterlimit:10;" cx="51" cy="27" r="3"/><path style="fill:none;stroke:#000000;stroke-width:2;stroke-linecap:round;stroke-linejoin:round;stroke-miterlimit:10;" d="M24,56l-8.308,10H14c-1.105,0-2,0.895-2,2v2h23v-2c0-1.105-0.895-2-2-2h-1v-5"/><circle cx="28" cy="66" r="1"/><circle cx="24" cy="66" r="1"/><circle cx="46" cy="32" r="1"/><circle cx="68" cy="10" r="1"/><circle cx="65" cy="13" r="1"/><circle cx="62" cy="16" r="1"/><circle cx="59" cy="19" r="1"/><circle cx="56" cy="22" r="1"/><circle cx="20" cy="66" r="1"/><g><g><path style="fill:none;stroke:#000000;stroke-width:2;stroke-linecap:round;stroke-miterlimit:10;" d="M61,53L25,17c-0.828-0.828-2.172-0.828-3,0s-0.828,2.172,0,3l0.233,0.233c-8.67,9.894-8.292,24.953,1.145,34.39c9.437,9.437,24.495,9.814,34.39,1.145L58,56c0.828,0.828,2.172,0.828,3,0S61.828,53.828,61,53z"/></g></g><circle cx="57" cy="55" r="1"/><circle cx="54" cy="52" r="1"/><circle cx="51" cy="49" r="1"/><circle cx="48" cy="46" r="1"/><circle cx="45" cy="43" r="1"/><circle cx="42" cy="40" r="1"/><circle cx="39" cy="37" r="1"/><circle cx="36" cy="34" r="1"/><circle cx="33" cy="31" r="1"/><circle cx="30" cy="28" r="1"/><circle cx="27" cy="25" r="1"/><circle cx="23" cy="21" r="1"/></svg>