<?xml version="1.0" encoding="utf-8"?>
<!-- Generator: Adobe Illustrator 24.3.0, SVG Export Plug-In . SVG Version: 6.00 Build 0)  -->
<svg version="1.1" id="Layer_1" xmlns="http://www.w3.org/2000/svg" xmlns:xlink="http://www.w3.org/1999/xlink" x="0px" y="0px"
	 viewBox="0 0 48 48" style="enable-background:new 0 0 48 48;" xml:space="preserve">
<path d="M24,4C14.6,4,7,11.6,7,21c0,4,1.4,8,4.1,11c0.3,0.3,7.4,8.4,9.8,10.7c0.9,0.8,2,1.2,3.1,1.2c1.1,0,2.2-0.4,3.1-1.2
	c2.8-2.6,9.5-10.4,9.8-10.7C39.6,29,41,25,41,21C41,11.6,33.4,4,24,4z M30.5,22h-9.4l2.4,2.4c0.6,0.6,0.6,1.5,0,2.1
	c-0.3,0.3-0.7,0.4-1.1,0.4s-0.8-0.2-1.1-0.4l-5-5c-0.6-0.6-0.6-1.5,0-2.1l5-5c0.6-0.6,1.5-0.6,2.1,0c0.6,0.6,0.6,1.5,0,2.1L21.1,19
	h9.4c0.8,0,1.5,0.7,1.5,1.5C32,21.3,31.3,22,30.5,22z"/>
</svg>