<?xml version="1.0" encoding="iso-8859-1"?>
<!-- Generator: Adobe Illustrator 25.4.1, SVG Export Plug-In . SVG Version: 6.00 Build 0)  -->
<svg version="1.1" id="Layer_1" xmlns="http://www.w3.org/2000/svg" xmlns:xlink="http://www.w3.org/1999/xlink" x="0px" y="0px"
	 viewBox="0 0 64 64" style="enable-background:new 0 0 64 64;" xml:space="preserve">
<path style="fill:none;stroke:#000000;stroke-width:2;stroke-linecap:round;stroke-linejoin:round;stroke-miterlimit:10;" d="
	M39,26.95V33l11.971,11.971C44.482,51.459,35.206,53.448,27,50.953V56h7v5H6v-5h3l8.915-10.229c-0.295-0.267-0.601-0.516-0.885-0.8
	c-9.373-9.373-9.373-24.569,0-33.941L29,23h6.05C35.032,22.833,35,22.671,35,22.5c0-2.485,2.015-4.5,4.5-4.5s4.5,1.515,4.5,4l7,0
	c-0.505-5.606-5.262-10-11-10V4c9.941,0,18,8.059,18,18"/>
</svg>