<?xml version="1.0" encoding="utf-8"?><!-- Generator: Adobe Illustrator 15.0.0, SVG Export Plug-In . SVG Version: 6.00 Build 0)  --><!DOCTYPE svg PUBLIC "-//W3C//DTD SVG 1.1//EN" "http://www.w3.org/Graphics/SVG/1.1/DTD/svg11.dtd"><svg xmlns="http://www.w3.org/2000/svg" xmlns:xlink="http://www.w3.org/1999/xlink" viewBox="0 0 50 50" width="500px" height="500px"><rect fill="none" width="50" height="50"/><path d="M47.811,48.585l-21.901-48C25.747,0.229,25.392,0,25,0s-0.747,0.229-0.91,0.585l-21.9,48c-0.168,0.369-0.097,0.804,0.181,1.1C2.564,49.89,2.83,50,3.1,50c0.12,0,0.242-0.021,0.358-0.066L25,41.671l21.542,8.263c0.382,0.146,0.81,0.047,1.087-0.249C47.907,49.389,47.979,48.954,47.811,48.585z M24,5.601v34.311L5.025,47.19L24,5.601z"/></svg>