<?xml version="1.0" encoding="iso-8859-1"?><!-- Generator: Adobe Illustrator 22.1.0, SVG Export Plug-In . SVG Version: 6.00 Build 0)  --><svg xmlns="http://www.w3.org/2000/svg" xmlns:xlink="http://www.w3.org/1999/xlink" viewBox="0 0 50 50" width="500px" height="500px"><g></g><polygon points="13,7 20,11 20,12 13,10 "/><polygon points="13,10 6,12 6,11 13,7 "/><polygon points="13,13 10,16 10,17 13,16 16,17 16,16 "/><path d="M13,2c-0.552,0-1,0.448-1,1v12h2V3C14,2.448,13.552,2,13,2z"/><path d="M8.97,21.24l-1,4c-0.06,0.23-0.19,0.42-0.37,0.56l-4,3l-0.35-0.47C3.09,27.25,3,26.13,3,25c0-2.98,0.59-5.83,1.67-8.42L5.8,16.4l3,4C8.98,20.64,9.04,20.95,8.97,21.24z"/><path d="M15.95,37.32L15,40.16V44h-1.09c-4.85-2.84-8.52-7.48-10.07-13H7c0.11,0,0.21,0.02,0.32,0.05L10.16,32H13c0.38,0,0.73,0.21,0.89,0.55l2,4C16.01,36.79,16.03,37.06,15.95,37.32z"/><polyline style="fill:none;stroke:#000000;stroke-width:2;stroke-linecap:round;stroke-linejoin:round;stroke-miterlimit:10;" points="23,15 25,17 23,18 "/><path d="M44.955,40.01c-0.172,2.078-0.911,3.728-2.235,4.763c-1.314,1.028-3.234,1.421-5.551,1.132c-5.426-0.672-12.008-4.899-16.379-10.519c-4.211-5.414-6.72-11.708-6.783-16.942L13,18.108l-0.993,0.331c0.055,5.738,2.66,12.331,7.204,18.174c4.75,6.106,11.702,10.532,17.712,11.276c0.573,0.071,1.129,0.106,1.666,0.106c2.137,0,3.97-0.559,5.362-1.647c2.431-1.9,3.429-5.182,2.92-9.284C46.303,38.089,45.662,39.072,44.955,40.01z"/><path d="M26.503,45.924C26.005,45.959,25.507,46,25,46C13.42,46,4,36.58,4,25c0-4.17,1.249-8.039,3.356-11.307L4.564,14.49C2.934,17.643,2,21.212,2,25c0,12.682,10.318,23,23,23c1.512,0,2.988-0.151,4.419-0.43C28.438,47.084,27.463,46.536,26.503,45.924z"/><path d="M46.98,25.93c-0.22,5.32-2.33,10.15-5.66,13.84c-0.11-0.09-0.18-0.14-0.2-0.15l-2.56-1.71c-0.26-0.18-0.45-0.43-0.55-0.72l-0.64-1.93C37.31,35.11,37.17,35,37,35h-1.43c-0.1,0-0.2,0.04-0.27,0.11l-1.48,1.48C33.56,36.85,33.21,37,32.84,37h-2.68c-0.37,0-0.72-0.15-0.98-0.41l-2.77-2.77C26.15,33.56,26,33.21,26,32.84v-3.65c0-0.43,0.19-0.82,0.52-1.09l4.73-2.79C31.5,25.11,31.8,25,32.12,25h5.27c0.11,0,0.22-0.04,0.29-0.12l2.21-2.35c0.15-0.17,0.39-0.2,0.58-0.09l6.01,3.43C46.52,25.89,46.71,25.91,46.98,25.93z"/><path d="M46.97,23.82c-1.64-0.92-6.47-3.68-6.47-3.68c-0.4-0.22-0.89-0.16-1.21,0.16l-0.45,0.58c-0.16,0.16-0.41,0.17-0.59,0.03l-1.1-2.16c-0.15-0.12-0.19-0.33-0.12-0.5l0.94-1.72c0.1-0.25-0.08-0.53-0.36-0.53h-1.22C36.17,16,36,16.17,36,16.39v4.67c-0.02,0.34-0.21,0.65-0.51,0.81c-0.3,0.17-0.67,0.17-0.97,0.01l-3.1-1.52c-0.14-0.07-0.32-0.04-0.44,0.07l-3.48,3.46C27.36,23.97,27.2,24,27.05,24c-0.26,0-0.51-0.1-0.7-0.29l-1-1c-0.25-0.25-0.35-0.6-0.27-0.94c0.08-0.34,0.33-0.61,0.66-0.72l2.09-0.97c0.11-0.05,0.19-0.15,0.21-0.26l0.47-2.04c0.12-0.49,0.45-0.9,0.92-1.1l1.32-0.57c0.34-0.15,0.61-0.43,0.74-0.77l1.44-3.72c0.14-0.36,0.06-0.76-0.19-1.05l-1.1-1.16c-0.3-0.31-0.79-0.33-1.11-0.04L29.9,9.96c-0.16,0.14-0.17,0.38-0.03,0.54l0.69,0.66c0.18,0.19,0.23,0.45,0.14,0.69l-0.3,0.77c-0.12,0.31-0.47,0.46-0.78,0.34l-1.98-0.63c-0.51-0.2-0.76-0.79-0.56-1.3l0.99-3.4c0.11-0.27,0.33-0.49,0.61-0.58l3-1C31.79,6.02,31.89,6,32,6V4.14C40.36,6.94,46.48,14.63,46.97,23.82z"/><path d="M46,25c0,7.921-4.41,14.827-10.902,18.403c0.794,0.244,1.572,0.425,2.316,0.517c0.207,0.026,0.394,0.023,0.592,0.036C44.036,39.806,48,32.858,48,25C48,12.318,37.682,2,25,2c-3.193,0-6.234,0.658-9,1.84v2.199C18.73,4.737,21.779,4,25,4C36.58,4,46,13.42,46,25z"/></svg>