<?xml version="1.0" encoding="iso-8859-1"?>
<!-- Generator: Adobe Illustrator 25.2.3, SVG Export Plug-In . SVG Version: 6.00 Build 0)  -->
<svg version="1.1" baseProfile="basic" id="Layer_1"
	 xmlns="http://www.w3.org/2000/svg" xmlns:xlink="http://www.w3.org/1999/xlink" x="0px" y="0px" viewBox="0 0 48 48"
	 xml:space="preserve">
<path d="M4.63,19h4.18C10.39,14.19,14.2,10.38,19,8.8V4.63C11.98,6.45,6.45,11.98,4.63,19z M8.8,29H4.63
	C6.45,36.02,11.98,41.55,19,43.37v-4.18C14.19,37.61,10.38,33.8,8.8,29z M39.19,29C37.61,33.81,33.8,37.62,29,39.2v4.17
	c7.02-1.82,12.55-7.35,14.37-14.37H39.19z M29,4.63v4.18c4.81,1.58,8.62,5.39,10.2,10.19h4.17C41.55,11.98,36.02,6.45,29,4.63z"/>
<path d="M24,10h-2V4c0-1.105,0.895-2,2-2h2v6C26,9.105,25.105,10,24,10z"/>
<path d="M24,38h2v6c0,1.105-0.895,2-2,2h-2v-6C22,38.895,22.895,38,24,38z"/>
<path d="M38,24v-2h6c1.105,0,2,0.895,2,2v2h-6C38.895,26,38,25.105,38,24z"/>
<path d="M10,24v2H4c-1.105,0-2-0.895-2-2v-2h6C9.105,22,10,22.895,10,24z"/>
<circle cx="24" cy="24" r="6"/>
</svg>