<?xml version="1.0" encoding="iso-8859-1"?>
<!-- Generator: Adobe Illustrator 25.4.1, SVG Export Plug-In . SVG Version: 6.00 Build 0)  -->
<svg version="1.1" baseProfile="basic" id="Layer_1"
	 xmlns="http://www.w3.org/2000/svg" xmlns:xlink="http://www.w3.org/1999/xlink" x="0px" y="0px" viewBox="0 0 100 100"
	 xml:space="preserve">
<path style="fill:none;stroke:#000000;stroke-width:2;stroke-linecap:round;stroke-linejoin:round;stroke-miterlimit:10;" d="
	M45.53,17.281c-2.591,0.828-5.028,3.12-4.348,6.049c0.917,3.954,9.727,5.022,9.691-0.926C50.846,17.768,48.121,16.453,45.53,17.281z
	"/>
<line style="fill:none;stroke:#000000;stroke-width:2;stroke-linecap:round;stroke-linejoin:round;stroke-miterlimit:10;" x1="30.713" y1="31.782" x2="31.917" y2="39.397"/>
<line style="fill:none;stroke:#000000;stroke-width:2;stroke-linecap:round;stroke-linejoin:round;stroke-miterlimit:10;" x1="26.91" y1="32.596" x2="28.402" y2="37.504"/>
<line style="fill:none;stroke:#000000;stroke-width:2;stroke-linecap:round;stroke-linejoin:round;stroke-miterlimit:10;" x1="21.792" y1="40.129" x2="25.615" y2="44.542"/>
<line style="fill:none;stroke:#000000;stroke-width:2;stroke-linecap:round;stroke-linejoin:round;stroke-miterlimit:10;" x1="20.461" y1="44.145" x2="23.689" y2="48.712"/>
<line style="fill:none;stroke:#000000;stroke-width:2;stroke-linecap:round;stroke-linejoin:round;stroke-miterlimit:10;" x1="14.691" y1="60.337" x2="19.438" y2="56.384"/>
<line style="fill:none;stroke:#000000;stroke-width:2;stroke-linecap:round;stroke-linejoin:round;stroke-miterlimit:10;" x1="16.28" y1="62.948" x2="23.592" y2="58.98"/>
<line style="fill:none;stroke:#000000;stroke-width:2;stroke-linecap:round;stroke-linejoin:round;stroke-miterlimit:10;" x1="16.05" y1="67.793" x2="20.797" y2="65.426"/>
<line style="fill:none;stroke:#000000;stroke-width:2;stroke-linecap:round;stroke-linejoin:round;stroke-miterlimit:10;" x1="16.05" y1="71.935" x2="21.855" y2="68.607"/>
<line style="fill:none;stroke:#000000;stroke-width:2;stroke-linecap:round;stroke-linejoin:round;stroke-miterlimit:10;" x1="22.149" y1="74.372" x2="25.986" y2="69.882"/>
<line style="fill:none;stroke:#000000;stroke-width:2;stroke-linecap:round;stroke-linejoin:round;stroke-miterlimit:10;" x1="29.06" y1="74.664" x2="32.527" y2="67.305"/>
<line style="fill:none;stroke:#000000;stroke-width:2;stroke-linecap:round;stroke-linejoin:round;stroke-miterlimit:10;" x1="40.258" y1="89.582" x2="40.587" y2="84.563"/>
<line style="fill:none;stroke:#000000;stroke-width:2;stroke-linecap:round;stroke-linejoin:round;stroke-miterlimit:10;" x1="34.789" y1="89.729" x2="36.924" y2="85.217"/>
<line style="fill:none;stroke:#000000;stroke-width:2;stroke-linecap:round;stroke-linejoin:round;stroke-miterlimit:10;" x1="29.725" y1="87.007" x2="33.724" y2="83.094"/>
<line style="fill:none;stroke:#000000;stroke-width:2;stroke-linecap:round;stroke-linejoin:round;stroke-miterlimit:10;" x1="47.022" y1="49.867" x2="53.66" y2="50.995"/>
<line style="fill:none;stroke:#000000;stroke-width:2;stroke-linecap:round;stroke-linejoin:round;stroke-miterlimit:10;" x1="49.543" y1="46.317" x2="55.874" y2="46.992"/>
<line style="fill:none;stroke:#000000;stroke-width:2;stroke-linecap:round;stroke-linejoin:round;stroke-miterlimit:10;" x1="53.598" y1="76.752" x2="53.212" y2="80.853"/>
<line style="fill:none;stroke:#000000;stroke-width:2;stroke-linecap:round;stroke-linejoin:round;stroke-miterlimit:10;" x1="58.114" y1="77.129" x2="56.42" y2="82.036"/>
<line style="fill:none;stroke:#000000;stroke-width:2;stroke-linecap:round;stroke-linejoin:round;stroke-miterlimit:10;" x1="62.911" y1="74.539" x2="60.096" y2="83.324"/>
<line style="fill:none;stroke:#000000;stroke-width:2;stroke-linecap:round;stroke-linejoin:round;stroke-miterlimit:10;" x1="81.244" y1="61.152" x2="89.395" y2="59.203"/>
<line style="fill:none;stroke:#000000;stroke-width:2;stroke-linecap:round;stroke-linejoin:round;stroke-miterlimit:10;" x1="76.762" y1="58.068" x2="85.971" y2="55.952"/>
<line style="fill:none;stroke:#000000;stroke-width:2;stroke-linecap:round;stroke-linejoin:round;stroke-miterlimit:10;" x1="73.639" y1="53.265" x2="83.8" y2="52.854"/>
<line style="fill:none;stroke:#000000;stroke-width:2;stroke-linecap:round;stroke-linejoin:round;stroke-miterlimit:10;" x1="74.83" y1="49.352" x2="79.977" y2="48.851"/>
<line style="fill:none;stroke:#000000;stroke-width:2;stroke-linecap:round;stroke-linejoin:round;stroke-miterlimit:10;" x1="68.254" y1="40.817" x2="71.013" y2="35.861"/>
<line style="fill:none;stroke:#000000;stroke-width:2;stroke-linecap:round;stroke-linejoin:round;stroke-miterlimit:10;" x1="63.842" y1="37.838" x2="68.464" y2="34.058"/>
<path style="fill:none;stroke:#000000;stroke-width:4;stroke-linecap:round;stroke-linejoin:round;stroke-miterlimit:10;" d="
	M46.07,49.951c0,0,11.948-17.736,12.009-26.349c0.057-8.068-5.049-14.319-13.354-12.794c-7.199,1.321-12.213,6.391-10.924,15.817
	C34.804,33.959,46.07,49.951,46.07,49.951z"/>
<path style="fill:none;stroke:#000000;stroke-width:4;stroke-linecap:round;stroke-linejoin:round;stroke-miterlimit:10;" d="
	M33.404,31.311c0,0-10.882,1.299-11.93,3.5c-1.048,2.201-0.485,8.911-0.485,8.911s-3.685-0.715-6,1.392
	c-2.315,2.107-7.963,10.63-6.938,13.438s5.491,0.685,6.86,2.356c1.369,1.671-1.016,10.054,1.338,11.734
	c2.354,1.68,5.719,4.394,12.406,2.341c-1.15,7.644-0.454,13.343,2.229,14.876c2.683,1.532,18.57-0.093,18.57-0.093
	s-1.102-8.203,2.214-8.056s21.589,8.756,21.589,8.756s7.572-3.531,8.237-6.524c0.665-2.994-1.971-5.039-1.971-5.039
	s12.757-10.646,12.539-14.892c-0.218-4.246-12.007-15.39-12.007-15.39l6.633-6.229l-0.508-9.51l-14.151,3.181
	c0,0-10.054-7.486-13.989-7.315"/>
<line style="fill:none;stroke:#000000;stroke-width:2;stroke-linecap:round;stroke-linejoin:round;stroke-miterlimit:10;" x1="59.837" y1="37.072" x2="64.732" y2="31.879"/>
<line style="fill:none;stroke:#000000;stroke-width:2;stroke-linecap:round;stroke-linejoin:round;stroke-miterlimit:10;" x1="68.135" y1="80.442" x2="64.298" y2="85.412"/>
<path style="fill-rule:evenodd;clip-rule:evenodd;" d="M52.78,57.429c0.365-0.414,0.997-0.455,1.411-0.09
	c0.414,0.365,0.455,0.997,0.09,1.411c-0.365,0.414-0.997,0.455-1.411,0.09C52.456,58.476,52.415,57.843,52.78,57.429z"/>
<path style="fill-rule:evenodd;clip-rule:evenodd;" d="M36.046,58.909c0.365-0.414,0.997-0.455,1.411-0.09
	c0.414,0.365,0.455,0.997,0.09,1.411c-0.365,0.414-0.997,0.455-1.411,0.09C35.722,59.956,35.682,59.324,36.046,58.909z"/>
<path style="fill-rule:evenodd;clip-rule:evenodd;" d="M41.525,67.781c0.365-0.414,0.997-0.455,1.411-0.09
	c0.414,0.365,0.455,0.997,0.09,1.411c-0.365,0.414-0.997,0.455-1.411,0.09S41.16,68.195,41.525,67.781z"/>
</svg>