<?xml version="1.0" encoding="iso-8859-1"?><!-- Generator: Adobe Illustrator 22.1.0, SVG Export Plug-In . SVG Version: 6.00 Build 0)  --><svg xmlns="http://www.w3.org/2000/svg" xmlns:xlink="http://www.w3.org/1999/xlink" viewBox="0 0 80 80" width="480px" height="480px"><path style="fill:none;stroke:#000000;stroke-width:2;stroke-miterlimit:10;" d="M62,30c0,12.15-22,42-22,42S18,42.15,18,30S27.85,8,40,8S62,17.85,62,30z"/><circle cx="40" cy="12" r="1"/><circle cx="58" cy="30" r="1"/><circle cx="22" cy="30" r="1"/><ellipse cx="30.999" cy="14.412" rx="1" ry="1"/><ellipse cx="55.587" cy="21" rx="1" ry="1"/><ellipse cx="24.411" cy="21" rx="1" ry="1"/><ellipse cx="49" cy="14.413" rx="1" ry="1"/><ellipse cx="35.34" cy="12.613" rx="1" ry="1"/><ellipse cx="57.385" cy="25.341" rx="1" ry="1"/><ellipse cx="22.612" cy="34.659" rx="1" ry="1"/><ellipse cx="27.272" cy="17.272" rx="1" ry="1"/><ellipse cx="52.727" cy="17.272" rx="1" ry="1"/><ellipse cx="22.612" cy="25.342" rx="1" ry="1"/><ellipse cx="57.385" cy="34.659" rx="1" ry="1"/><ellipse cx="44.657" cy="12.614" rx="1" ry="1"/><g><path d="M39.013,43.001L39,41.274c-3.979-0.264-6.401-2.448-6.415-5.676h2.949c0.139,1.655,1.393,2.81,3.466,3.047v-6.344l-1.156-0.32c-3.102-0.793-4.8-2.657-4.8-5.371c0-3.213,2.201-5.342,5.956-5.69V19h2v1.92c3.603,0.32,5.955,2.518,6.04,5.621h-2.908c-0.056-1.531-1.308-2.727-3.144-2.95v5.997l1.294,0.292c3.492,0.849,5.134,2.615,5.134,5.495c0,3.409-2.339,5.537-6.415,5.885V43h-1.987V43.001z M39,29.185v-5.607c-1.781,0.097-2.979,1.266-2.979,2.783C36.021,27.794,36.996,28.781,39,29.185z M40.988,32.663v6.01c2.198-0.126,3.464-1.21,3.464-2.977C44.451,34.095,43.353,33.136,40.988,32.663z"/></g></svg>