<?xml version="1.0" encoding="utf-8"?><!-- Generator: Adobe Illustrator 18.0.0, SVG Export Plug-In . SVG Version: 6.00 Build 0)  --><!DOCTYPE svg PUBLIC "-//W3C//DTD SVG 1.1//EN" "http://www.w3.org/Graphics/SVG/1.1/DTD/svg11.dtd"><svg xmlns="http://www.w3.org/2000/svg" xmlns:xlink="http://www.w3.org/1999/xlink" viewBox="0 0 128 128" width="512px" height="512px"><g><path d="M32.3,75c0.1,0.2,0.2,0.4,0.4,0.6L60.1,112c0,0,0.1,0.1,0.1,0.1c1,1.2,2.4,1.8,3.8,1.8s2.8-0.7,3.8-1.8c0,0,0.1-0.1,0.1-0.1l27.3-36.4c0.3-0.3,0.5-0.5,0.7-0.9c4.5-6.5,6.9-14.2,6.9-22.1C102.8,31.4,85.4,14,64,14c-21.3,0-38.8,17.3-38.9,38.6C25.2,60.6,27.6,68.4,32.3,75z M64,20c18.1,0,32.8,14.7,32.8,32.7c0,6.7-2,13.1-5.9,18.7c-0.1,0.1-0.2,0.2-0.2,0.3L64,107.3L37.4,71.8c0,0-0.1-0.1-0.1-0.1c0-0.1-0.1-0.1-0.2-0.2c-3.9-5.6-6-12.1-6-18.8C31.2,34.6,46,20,64,20z"/><path d="M64,69.8c10.4,0,18.9-8.2,18.9-18.3S74.4,33.1,64,33.1s-18.9,8.2-18.9,18.3S53.6,69.8,64,69.8z M64,39.1c7.1,0,12.9,5.5,12.9,12.3S71.1,63.8,64,63.8s-12.9-5.5-12.9-12.3S56.9,39.1,64,39.1z"/></g></svg>