<?xml version="1.0" encoding="iso-8859-1"?>
<!-- Generator: Adobe Illustrator 24.2.1, SVG Export Plug-In . SVG Version: 6.00 Build 0)  -->
<svg version="1.1" id="Layer_1" xmlns="http://www.w3.org/2000/svg" xmlns:xlink="http://www.w3.org/1999/xlink" x="0px" y="0px"
	 viewBox="0 0 48 48" style="enable-background:new 0 0 48 48;" xml:space="preserve">
<path d="M41.696,37.078l-2.222-5C38.913,30.816,37.658,30,36.275,30h-3.256c-0.637,0.965-1.327,1.964-2.073,3h5.329
	c0.197,0,0.377,0.116,0.457,0.297l2.222,5c0.096,0.216,0.018,0.391-0.038,0.476S38.734,39,38.498,39H9.502
	c-0.236,0-0.364-0.143-0.419-0.228s-0.133-0.26-0.038-0.476l2.222-5c0.08-0.18,0.26-0.296,0.457-0.296h5.329
	c-0.747-1.036-1.437-2.035-2.073-3h-3.256c-1.382,0-2.638,0.816-3.198,2.078l-2.222,5c-0.483,1.087-0.385,2.332,0.263,3.329
	C7.216,41.405,8.313,42,9.502,42h28.995c1.189,0,2.287-0.595,2.935-1.593C42.081,39.41,42.179,38.166,41.696,37.078z"/>
<path d="M24,5c-6.617,0-12,5.383-12,12c0,4.805,5.941,13.18,9.483,17.744c0.608,0.784,1.526,1.234,2.517,1.234
	s1.909-0.45,2.517-1.234C30.059,30.18,36,21.805,36,17C36,10.383,30.617,5,24,5z M24,20c-1.657,0-3-1.343-3-3s1.343-3,3-3
	s3,1.343,3,3S25.657,20,24,20z"/>
</svg>