<?xml version="1.0" encoding="iso-8859-1"?>
<!-- Generator: Adobe Illustrator 25.2.3, SVG Export Plug-In . SVG Version: 6.00 Build 0)  -->
<svg version="1.1" baseProfile="basic" id="Layer_1"
	 xmlns="http://www.w3.org/2000/svg" xmlns:xlink="http://www.w3.org/1999/xlink" x="0px" y="0px" viewBox="0 0 48 48"
	 xml:space="preserve">
<path style="fill:none;stroke:#000000;stroke-width:2;stroke-linecap:round;stroke-linejoin:round;stroke-miterlimit:10;" d="M24,46
	V35H9.692c-0.448,0-0.883-0.151-1.236-0.427L2,29.5l6.456-5.073C8.808,24.151,9.244,24,9.692,24H40c1.105,0,2,0.895,2,2v7
	c0,1.105-0.895,2-2,2H28"/>
<path style="fill:none;stroke:#000000;stroke-width:2;stroke-linecap:round;stroke-linejoin:round;stroke-miterlimit:10;" d="M24,24
	v-6H8c-1.105,0-2-0.895-2-2V9c0-1.105,0.895-2,2-2h30.308c0.448,0,0.883,0.151,1.236,0.427L46,12.5l-6.456,5.073
	C39.192,17.849,38.756,18,38.308,18H28"/>
</svg>