<?xml version="1.0" encoding="iso-8859-1"?><!-- Generator: Adobe Illustrator 21.1.0, SVG Export Plug-In . SVG Version: 6.00 Build 0)  --><svg xmlns="http://www.w3.org/2000/svg" xmlns:xlink="http://www.w3.org/1999/xlink" viewBox="0 0 50 50" width="500px" height="500px"><path d="M46,9v32c0,2.76-2.24,5-5,5H9c-2.76,0-5-2.24-5-5V26h33.59l-4.3,4.29c-0.39,0.39-0.39,1.03,0,1.42C33.49,31.9,33.74,32,34,32s0.51-0.1,0.71-0.29l6.7-6.71l-6.7-6.71c-0.39-0.39-1.03-0.39-1.42,0c-0.39,0.39-0.39,1.03,0,1.42l4.3,4.29H4V9c0-2.76,2.24-5,5-5h32C43.76,4,46,6.24,46,9z"/></svg>