<?xml version="1.0" encoding="iso-8859-1"?>
<!-- Generator: Adobe Illustrator 24.0.2, SVG Export Plug-In . SVG Version: 6.00 Build 0)  -->
<svg version="1.1" id="&#x421;&#x43B;&#x43E;&#x439;_2"
	 xmlns="http://www.w3.org/2000/svg" xmlns:xlink="http://www.w3.org/1999/xlink" x="0px" y="0px" viewBox="0 0 80 80"
	 style="enable-background:new 0 0 80 80;" xml:space="preserve">
<path style="fill:none;stroke:#000000;stroke-width:2;stroke-miterlimit:10;" d="M32,12c11.046,0,20,8.954,20,20
	S32,70.182,32,70.182S12,43.046,12,32S20.954,12,32,12z"/>
<path style="fill:none;stroke:#000000;stroke-width:2;stroke-miterlimit:10;" d="M32,27c-2.761,0-5,2.239-5,5s2.239,5,5,5
	s5-2.239,5-5S34.761,27,32,27z"/>
<path d="M32,16c-0.552,0-1,0.448-1,1s0.448,1,1,1s1-0.448,1-1S32.552,16,32,16z M17,31c-0.552,0-1,0.448-1,1s0.448,1,1,1
	s1-0.448,1-1S17.552,31,17,31z M47,31c-0.552,0-1,0.448-1,1s0.448,1,1,1s1-0.448,1-1S47.552,31,47,31z M39.501,18.01
	c-0.552,0-1,0.448-1,1s0.448,1,1,1s1-0.448,1-1S40.053,18.01,39.501,18.01z M19.011,23.5c-0.552,0-1,0.448-1,1s0.448,1,1,1
	s1-0.448,1-1S19.563,23.5,19.011,23.5z M44.991,23.5c-0.552,0-1,0.448-1,1s0.448,1,1,1s1-0.448,1-1S45.543,23.5,44.991,23.5z
	 M24.5,18.011c-0.552,0-1,0.448-1,1s0.448,1,1,1s1-0.448,1-1S25.052,18.011,24.5,18.011z M35.883,16.511c-0.552,0-1,0.448-1,1
	s0.448,1,1,1s1-0.448,1-1S36.435,16.511,35.883,16.511z M17.513,27.118c-0.552,0-1,0.448-1,1s0.448,1,1,1s1-0.448,1-1
	S18.065,27.118,17.513,27.118z M46.49,34.882c-0.552,0-1,0.448-1,1s0.448,1,1,1s1-0.448,1-1S47.042,34.882,46.49,34.882z
	 M42.608,20.394c-0.552,0-1,0.448-1,1s0.448,1,1,1s1-0.448,1-1S43.16,20.394,42.608,20.394z M21.394,20.393c-0.552,0-1,0.448-1,1
	s0.448,1,1,1s1-0.448,1-1S21.946,20.393,21.394,20.393z M46.49,27.118c-0.552,0-1,0.448-1,1s0.448,1,1,1s1-0.448,1-1
	S47.042,27.118,46.49,27.118z M17.513,34.883c-0.552,0-1,0.448-1,1s0.448,1,1,1s1-0.448,1-1S18.065,34.883,17.513,34.883z
	 M28.119,16.512c-0.552,0-1,0.448-1,1s0.448,1,1,1s1-0.448,1-1S28.671,16.512,28.119,16.512z"/>
<polyline style="fill:none;stroke:#000000;stroke-width:2;stroke-linecap:round;stroke-linejoin:round;stroke-miterlimit:10;" points="
	49,44 55,44 47,67 74,34 61,34 71,13 56,13 51.192,25.789 "/>
</svg>