<?xml version="1.0" encoding="utf-8"?><!-- Generator: Adobe Illustrator 15.0.0, SVG Export Plug-In . SVG Version: 6.00 Build 0)  --><!DOCTYPE svg PUBLIC "-//W3C//DTD SVG 1.1//EN" "http://www.w3.org/Graphics/SVG/1.1/DTD/svg11.dtd"><svg xmlns="http://www.w3.org/2000/svg" xmlns:xlink="http://www.w3.org/1999/xlink" viewBox="0 0 50 50" width="500px" height="500px"><path d="M49.511,2.14c-0.304-0.18-0.68-0.187-0.989-0.018L37.963,7.881l-12.544-5.79c-0.274-0.126-0.594-0.122-0.866,0.014L13,7.882L1.447,2.105C1.137,1.952,0.77,1.968,0.474,2.149C0.18,2.332,0,2.653,0,3v38c0,0.379,0.214,0.725,0.553,0.895l12,6c0.281,0.141,0.613,0.141,0.895,0l11.57-5.785l12.564,5.799C37.714,47.97,37.857,48,38,48c0.165,0,0.33-0.041,0.479-0.122l11-6C49.8,41.703,50,41.366,50,41V3C50,2.647,49.813,2.32,49.511,2.14z M26.9,36c0,0.2-0.101,0.4-0.4,0.4h-2.7c-0.2,0-0.4-0.101-0.4-0.4v-3.1c0-0.2,0.1-0.4,0.4-0.4h2.7c0.2,0,0.4,0.1,0.4,0.4V36z M29.9,22.3l-2.4,3.3c-0.7,1-0.9,1.5-0.9,2.7V29.4c0,0.199-0.1,0.399-0.399,0.399h-2.4c-0.1,0-0.3-0.2-0.3-0.399v-1.5c0-1.4,0.3-2.2,1.1-3.2l2.4-3.3c1.3-1.7,1.7-2.5,1.7-3.8c0-2-1.4-3.3-3.5-3.3c-2,0-3.3,1.2-3.7,3.4c0,0.2-0.2,0.3-0.4,0.3l-2.3-0.4c-0.2,0-0.3-0.2-0.3-0.4c0.5-3.4,3-5.7,6.7-5.7c3.899,0,6.5,2.5,6.5,6.1C31.7,19.3,31.1,20.6,29.9,22.3z"/></svg>