<?xml version="1.0" encoding="iso-8859-1"?>
<!-- Generator: Adobe Illustrator 23.0.3, SVG Export Plug-In . SVG Version: 6.00 Build 0)  -->
<svg version="1.1" id="Layer_1" xmlns="http://www.w3.org/2000/svg" xmlns:xlink="http://www.w3.org/1999/xlink" x="0px" y="0px"
	 viewBox="0 0 50 50" style="enable-background:new 0 0 50 50;" xml:space="preserve">
<path d="M9,17c0,13.813,14.62,30.931,15.242,31.653c0.189,0.219,0.464,0.346,0.754,0.347c0.001,0,0.003,0,0.004,0
	c0.288,0,0.562-0.124,0.752-0.34C26.374,47.95,41,31.114,41,17c0-8.822-7.178-16-16-16S9,8.178,9,17z M17.293,17.293l7-7
	c0.391-0.391,1.023-0.391,1.414,0s0.391,1.023,0,1.414L20.414,17H32c0.553,0,1,0.448,1,1s-0.447,1-1,1H20.414l5.293,5.293
	c0.391,0.391,0.391,1.023,0,1.414C25.512,25.902,25.256,26,25,26s-0.512-0.098-0.707-0.293l-7-7
	C16.902,18.316,16.902,17.684,17.293,17.293z"/>
</svg>