<?xml version="1.0" encoding="iso-8859-1"?><!-- Generator: Adobe Illustrator 23.0.0, SVG Export Plug-In . SVG Version: 6.00 Build 0)  --><svg xmlns="http://www.w3.org/2000/svg" xmlns:xlink="http://www.w3.org/1999/xlink" viewBox="0 0 64 64" width="512px" height="512px"><g><path d="M9.371,40.813c-0.415,0-0.802-0.26-0.945-0.673c-0.181-0.521,0.096-1.091,0.618-1.272l1.89-0.655c0.523-0.182,1.091,0.096,1.272,0.618c0.181,0.521-0.096,1.091-0.618,1.272l-1.89,0.655C9.59,40.795,9.479,40.813,9.371,40.813z"/></g><g><path d="M11.235,44.904c-0.346,0-0.683-0.18-0.868-0.501c-0.275-0.479-0.111-1.09,0.368-1.365l1.734-0.998c0.48-0.275,1.089-0.111,1.365,0.368c0.275,0.479,0.111,1.09-0.368,1.365l-1.734,0.998C11.576,44.861,11.404,44.904,11.235,44.904z"/></g><g><path d="M13.831,48.571c-0.282,0-0.562-0.119-0.76-0.35c-0.359-0.419-0.31-1.051,0.109-1.41l1.519-1.301c0.419-0.359,1.05-0.309,1.41,0.109c0.359,0.419,0.31,1.051-0.109,1.41l-1.519,1.301C14.292,48.492,14.061,48.571,13.831,48.571z"/></g><path d="M15.216,19.103c-0.183,0-0.365-0.05-0.526-0.149c-0.294-0.182-0.474-0.504-0.474-0.851v-2.526c0-0.107,0.017-0.214,0.051-0.316l2.525-7.577C16.929,7.275,17.311,7,17.741,7h3.789c0.552,0,1,0.448,1,1v0.908l1.078-0.54c0.237-0.118,0.512-0.138,0.763-0.054c0.252,0.084,0.46,0.264,0.579,0.501l1.263,2.526c0.16,0.321,0.137,0.704-0.062,1.002l-2.526,3.789c-0.186,0.278-0.498,0.445-0.832,0.445h-2.29l-4.84,2.42C15.522,19.068,15.369,19.103,15.216,19.103z M16.216,15.739v0.746l3.604-1.802c0.139-0.069,0.292-0.105,0.447-0.105h1.991l1.907-2.86l-0.557-1.112l-1.631,0.816c-0.31,0.154-0.678,0.138-0.973-0.044c-0.294-0.182-0.474-0.504-0.474-0.851V9h-2.068L16.216,15.739z"/><path d="M5,28c-0.259,0-0.519-0.101-0.715-0.3c-0.386-0.395-0.379-1.028,0.015-1.415l2.638-2.583c0.305-0.298,0.765-0.371,1.147-0.18l1.285,0.643l1.067-7.467c0.053-0.375,0.314-0.688,0.673-0.807l3.789-1.263c0.525-0.176,1.091,0.109,1.265,0.632c0.175,0.524-0.108,1.09-0.632,1.265l-3.203,1.068l-1.175,8.229c-0.045,0.318-0.241,0.595-0.526,0.744c-0.284,0.149-0.624,0.152-0.911,0.009l-1.888-0.944L5.7,27.715C5.505,27.905,5.252,28,5,28z"/><path d="M37.948,27.943c-0.256,0-0.512-0.098-0.707-0.293l-5.052-5.052c-0.188-0.188-0.293-0.442-0.293-0.707s0.105-0.52,0.293-0.707l5.052-5.051c0.188-0.188,0.442-0.293,0.707-0.293h3.789c0.379,0,0.725,0.214,0.895,0.553l0.368,0.737l0.369-0.737c0.048-0.096,0.111-0.184,0.188-0.26l2.016-2.016l-0.941-1.881c-0.129-0.258-0.14-0.56-0.031-0.827l1.263-3.083c0.209-0.511,0.791-0.755,1.305-0.546c0.511,0.209,0.755,0.793,0.546,1.305l-1.091,2.662l1.06,2.12c0.192,0.385,0.117,0.85-0.188,1.154l-2.411,2.411l-1.19,2.381c-0.169,0.339-0.516,0.553-0.895,0.553l0,0c-0.379,0-0.725-0.214-0.895-0.553l-0.986-1.973h-2.756l-4.052,4.051l4.345,4.345c0.391,0.391,0.391,1.023,0,1.414C38.459,27.846,38.204,27.943,37.948,27.943z"/><path d="M37.948,59.516c-0.256,0-0.512-0.098-0.707-0.293l-2.526-2.526c-0.188-0.188-0.293-0.442-0.293-0.707v-4.516l-2.937-1.958l-3.324,1.108c-0.206,0.068-0.427,0.068-0.632,0l-3.789-1.263c-0.325-0.108-0.571-0.375-0.654-0.706l-1.263-5.052c-0.058-0.232-0.031-0.477,0.076-0.69l2.526-5.051c0.11-0.219,0.296-0.39,0.523-0.481l6.314-2.526c0.239-0.095,0.504-0.095,0.743,0l6.055,2.422l7.301-1.217c0.431-0.072,0.863,0.146,1.059,0.539l3.341,6.683l1.631-0.816c0.397-0.199,0.878-0.111,1.181,0.215c0.302,0.326,0.353,0.813,0.124,1.194l-3.789,6.314l-4.146,7.239c-0.274,0.479-0.885,0.646-1.365,0.371c-0.479-0.274-0.645-0.885-0.371-1.365l4.156-7.257l2.132-3.554c0,0-0.001,0-0.002,0c-0.106,0-0.213-0.017-0.316-0.051c-0.251-0.084-0.459-0.264-0.578-0.501l-3.458-6.917l-6.849,1.142c-0.183,0.031-0.366,0.01-0.536-0.058l-5.943-2.377l-5.59,2.236l-2.19,4.38l1.04,4.161l2.952,0.983l3.472-1.157c0.293-0.097,0.615-0.055,0.871,0.117l3.789,2.526c0.278,0.186,0.445,0.498,0.445,0.832v4.637l2.233,2.233c0.391,0.391,0.391,1.023,0,1.414C38.459,59.418,38.204,59.516,37.948,59.516z"/><path d="M37.948,35.521c-0.333,0-0.646-0.166-0.832-0.445l-2.102-3.153l-2.84,0.947l-2.359,2.358c-0.188,0.188-0.442,0.293-0.707,0.293h-2.526c-0.552,0-1-0.448-1-1v-2.525c0-0.552,0.448-1,1-1h2.112l4.759-4.759c0.188-0.188,0.442-0.293,0.707-0.293h3.253l1.774-2.661l-0.684-0.684c-0.391-0.391-0.391-1.023,0-1.414s1.023-0.391,1.414,0l1.263,1.263c0.337,0.337,0.39,0.865,0.125,1.262l-2.526,3.789c-0.186,0.278-0.498,0.445-0.832,0.445h-3.375l-3.026,3.026l3.559-1.187c0.427-0.143,0.898,0.019,1.148,0.394l1.57,2.355l0.492-0.984c0.119-0.237,0.327-0.417,0.578-0.501l3.396-1.132l1.078-2.155c0.247-0.493,0.846-0.695,1.342-0.447l2.526,1.263c0.494,0.247,0.694,0.848,0.447,1.342c-0.248,0.494-0.846,0.694-1.342,0.447l-1.631-0.816l-0.816,1.631c-0.119,0.237-0.327,0.417-0.578,0.501l-3.396,1.132l-1.077,2.155c-0.16,0.319-0.477,0.529-0.833,0.551C37.989,35.52,37.968,35.521,37.948,35.521z M27.582,33.521h1.112l0.532-0.532c-0.039,0.004-0.079,0.007-0.118,0.007h-1.526V33.521z"/><path d="M45.525,38.046c-0.552,0-1-0.448-1-1v-0.263h-2.789c-0.431,0-0.812-0.275-0.949-0.684l-1.263-3.789c-0.167-0.502,0.086-1.048,0.577-1.245l6.314-2.526c0.516-0.203,1.095,0.045,1.3,0.557c0.205,0.513-0.044,1.095-0.557,1.3l-5.439,2.175l0.737,2.21h3.068c0.552,0,1,0.448,1,1v1.263C46.525,37.599,46.077,38.046,45.525,38.046z"/><path d="M51.838,44.361c-0.15,0-0.303-0.034-0.446-0.105c-0.494-0.247-0.694-0.848-0.447-1.342l2.079-4.157l-1.631-0.816c-0.339-0.169-0.553-0.516-0.553-0.895v-1.263c0-0.459,0.312-0.859,0.757-0.97l5.052-1.263c0.354-0.089,0.729,0.023,0.977,0.291l2.109,2.28c0.375,0.406,0.351,1.038-0.055,1.413c-0.405,0.376-1.039,0.351-1.413-0.055l-1.707-1.845l-3.539,0.885l1.792,0.896c0.494,0.247,0.694,0.848,0.447,1.342l-2.526,5.051C52.559,44.159,52.206,44.361,51.838,44.361z"/><path d="M29.107,26.943h-2.526c-0.51,0-0.971-0.308-1.167-0.779c-0.196-0.472-0.087-1.015,0.274-1.377l1.263-1.263c0.027-0.027,0.053-0.052,0.081-0.075l-0.386-1.158c-0.221-0.662,0.136-1.377,0.798-1.598c0.664-0.224,1.378,0.138,1.598,0.798l1.263,3.789c0.129,0.385,0.063,0.808-0.174,1.138C29.894,26.749,29.513,26.943,29.107,26.943z"/><path d="M32,3C15.984,3,3,15.984,3,32c0,16.016,12.984,29,29,29s29-12.984,29-29C61,15.984,48.016,3,32,3z M33.202,58.97c0,0.007-0.002,0.014-0.002,0.02c-0.264,0-0.535,0-0.804,0C32.263,58.992,32.133,59,32,59C17.088,59,5,46.912,5,32c0-0.664,0.032-1.32,0.08-1.973c0.01-0.133,0.019-0.265,0.03-0.397c0.057-0.66,0.136-1.313,0.24-1.958c0.007-0.042,0.015-0.084,0.022-0.125C7.496,14.755,18.606,5,32,5c12.129,0,22.389,7.997,25.796,19.006c0.001-0.002,0.002-0.004,0.004-0.006c0.051,0.168,0.09,0.338,0.138,0.507c0.09,0.312,0.178,0.625,0.257,0.942c0.028,0.115,0.053,0.231,0.08,0.346c0.103,0.439,0.196,0.881,0.277,1.328c0.002,0.013,0.006,0.025,0.008,0.037c0,0-0.001,0-0.001,0C58.843,28.731,59,30.347,59,32c0,2.513-0.351,4.943-0.993,7.252c-0.003,0.009-0.004,0.019-0.007,0.028c0,0-0.001-0.001-0.001-0.001C54.924,50.283,45.059,58.45,33.202,58.97z"/></svg>