<?xml version="1.0" encoding="iso-8859-1"?>
<!-- Generator: Adobe Illustrator 25.4.1, SVG Export Plug-In . SVG Version: 6.00 Build 0)  -->
<svg version="1.1" baseProfile="basic" id="Layer_1"
	 xmlns="http://www.w3.org/2000/svg" xmlns:xlink="http://www.w3.org/1999/xlink" x="0px" y="0px" viewBox="0 0 100 100"
	 xml:space="preserve">
<path style="fill:none;stroke:#000000;stroke-width:3.6786;stroke-linecap:round;stroke-linejoin:round;stroke-miterlimit:10;" d="
	M50.555,81c0,0-25.725-31.58-25.881-47.02C24.514,18.06,37.975,6.57,51.388,6.27c11.293-0.26,28.105,9.99,27.515,27.33
	C78.38,48.97,50.555,81,50.555,81z"/>
<path style="fill-rule:evenodd;clip-rule:evenodd;" d="M57.944,62.08c-0.028,0.55-0.498,0.97-1.05,0.94s-0.977-0.49-0.948-1.05
	c0.027-0.55,0.497-0.97,1.049-0.94C57.546,61.05,57.971,61.52,57.944,62.08z"/>
<path style="fill-rule:evenodd;clip-rule:evenodd;" d="M51.88,57.93c-0.028,0.56-0.497,0.98-1.049,0.95s-0.976-0.5-0.949-1.05
	c0.027-0.55,0.497-0.97,1.049-0.95C51.482,56.91,51.907,57.38,51.88,57.93z"/>
<path style="fill-rule:evenodd;clip-rule:evenodd;" d="M60.841,57.15c-0.027,0.55-0.497,0.98-1.049,0.95s-0.977-0.5-0.948-1.05
	c0.027-0.55,0.497-0.98,1.049-0.95C60.444,56.13,60.868,56.6,60.841,57.15z"/>
<path style="fill:none;stroke:#000000;stroke-width:1.8393;stroke-linecap:round;stroke-linejoin:round;stroke-miterlimit:10;" d="
	M51.733,14.51c-10.594-0.53-18.003,8.32-18.541,18.54c-0.53,10.06,8.321,18.03,18.541,18.54c10.596,0.53,18.012-8.48,18.542-18.54
	C70.812,22.83,61.954,15.02,51.733,14.51z"/>
<line style="fill:none;stroke:#000000;stroke-width:1.8393;stroke-linecap:round;stroke-linejoin:round;stroke-miterlimit:10;" x1="36.615" y1="61.35" x2="38.898" y2="59.54"/>
<line style="fill:none;stroke:#000000;stroke-width:2;stroke-linecap:round;stroke-linejoin:round;stroke-miterlimit:10;" x1="39.15" y1="65.02" x2="42.319" y2="61.58"/>
<line style="fill:none;stroke:#000000;stroke-width:1.8393;stroke-linecap:round;stroke-linejoin:round;stroke-miterlimit:10;" x1="41.634" y1="68.52" x2="44.782" y2="65.28"/>
<line style="fill:none;stroke:#000000;stroke-width:1.8393;stroke-linecap:round;stroke-linejoin:round;stroke-miterlimit:10;" x1="43.834" y1="71.4" x2="47.507" y2="69.23"/>
<line style="fill:none;stroke:#000000;stroke-width:1.8393;stroke-linecap:round;stroke-linejoin:round;stroke-miterlimit:10;" x1="46.708" y1="75.26" x2="48.795" y2="73.35"/>
<line style="fill:none;stroke:#000000;stroke-width:1.8393;stroke-linecap:round;stroke-linejoin:round;stroke-miterlimit:10;" x1="70.711" y1="45.79" x2="74.833" y2="46.31"/>
<line style="fill:none;stroke:#000000;stroke-width:1.8393;stroke-linecap:round;stroke-linejoin:round;stroke-miterlimit:10;" x1="73.226" y1="40.28" x2="76.961" y2="41.07"/>
<line style="fill:none;stroke:#000000;stroke-width:1.8393;stroke-linecap:round;stroke-linejoin:round;stroke-miterlimit:10;" x1="74.503" y1="36.4" x2="77.95" y2="35.47"/>
<line style="fill:none;stroke:#000000;stroke-width:1.8393;stroke-linecap:round;stroke-linejoin:round;stroke-miterlimit:10;" x1="74.792" y1="31.3" x2="78.3" y2="28.62"/>
<line style="fill:none;stroke:#000000;stroke-width:1.8393;stroke-linecap:round;stroke-linejoin:round;stroke-miterlimit:10;" x1="57.646" y1="7.52" x2="56.028" y2="10.55"/>
<line style="fill:none;stroke:#000000;stroke-width:1.8393;stroke-linecap:round;stroke-linejoin:round;stroke-miterlimit:10;" x1="50.712" y1="6.76" x2="50.691" y2="10.23"/>
<line style="fill:none;stroke:#000000;stroke-width:1.8393;stroke-linecap:round;stroke-linejoin:round;stroke-miterlimit:10;" x1="42.278" y1="48.56" x2="43.983" y2="47.07"/>
<line style="fill:none;stroke:#000000;stroke-width:1.8393;stroke-linecap:round;stroke-linejoin:round;stroke-miterlimit:10;" x1="45.863" y1="50.35" x2="47.404" y2="47.14"/>
<line style="fill:none;stroke:#000000;stroke-width:1.8393;stroke-linecap:round;stroke-linejoin:round;stroke-miterlimit:10;" x1="50.485" y1="51.15" x2="50.783" y2="49.03"/>
<line style="fill:none;stroke:#000000;stroke-width:1.8393;stroke-linecap:round;stroke-linejoin:round;stroke-miterlimit:10;" x1="69.66" y1="28.75" x2="67.456" y2="30.58"/>
<line style="fill:none;stroke:#000000;stroke-width:1.8393;stroke-linecap:round;stroke-linejoin:round;stroke-miterlimit:10;" x1="70.098" y1="32.7" x2="66.894" y2="34.09"/>
<line style="fill:none;stroke:#000000;stroke-width:1.8393;stroke-linecap:round;stroke-linejoin:round;stroke-miterlimit:10;" x1="65.637" y1="37.35" x2="68.697" y2="38.32"/>
<line style="fill:none;stroke:#000000;stroke-width:1.8393;stroke-linecap:round;stroke-linejoin:round;stroke-miterlimit:10;" x1="33.272" y1="33.61" x2="35.508" y2="34.5"/>
<line style="fill:none;stroke:#000000;stroke-width:1.8393;stroke-linecap:round;stroke-linejoin:round;stroke-miterlimit:10;" x1="33.803" y1="31.25" x2="35.868" y2="30.83"/>
<path style="fill:none;stroke:#000000;stroke-width:4;stroke-linecap:round;stroke-linejoin:round;stroke-miterlimit:10;" d="
	M61.189,68.63C75.471,69.82,85,73.85,85,78.64C85,84.36,69.989,89,51.5,89S18,84.36,18,78.64c0-4.65,8.954-8.6,22.634-9.9"/>
</svg>