<?xml version="1.0" encoding="iso-8859-1"?><!-- Generator: Adobe Illustrator 21.0.2, SVG Export Plug-In . SVG Version: 6.00 Build 0)  --><svg xmlns="http://www.w3.org/2000/svg" xmlns:xlink="http://www.w3.org/1999/xlink" viewBox="0 0 80 80" width="480px" height="480px"><path style="fill:none;stroke:#000000;stroke-width:2;stroke-miterlimit:10;" d="M52.59,10.572C48.726,8.917,44.47,8,40,8C22.327,8,8,22.327,8,40s14.327,32,32,32s32-14.327,32-32c0-4.899-1.101-9.541-3.069-13.692"/><path style="fill:none;stroke:#000000;stroke-width:2;stroke-miterlimit:10;" d="M71,19c0,6.075-11,21-11,21S49,25.075,49,19S53.925,8,60,8S71,12.925,71,19z"/><circle style="fill:none;stroke:#000000;stroke-width:2;stroke-miterlimit:10;" cx="60" cy="19" r="3"/><circle cx="44" cy="20" r="1"/><circle cx="40" cy="20" r="1"/><circle cx="36" cy="20" r="1"/><circle cx="32" cy="20" r="1"/><circle cx="28" cy="20" r="1"/><circle cx="24" cy="20" r="1"/><circle cx="20" cy="20" r="1"/><circle cx="40" cy="28" r="1"/><circle cx="40" cy="32" r="1"/><circle cx="40" cy="36" r="1"/><circle cx="40" cy="24" r="1"/><circle cx="40" cy="20" r="1"/><circle cx="40" cy="16" r="1"/><circle cx="40" cy="12" r="1"/><circle cx="24" cy="32" r="1"/><circle cx="23" cy="36" r="1"/><circle cx="47" cy="13" r="1"/><circle cx="25" cy="28" r="1"/><circle cx="26" cy="24" r="1"/><circle cx="30" cy="16" r="1"/><circle cx="33" cy="13" r="1"/><circle cx="37" cy="10" r="1"/><circle cx="43" cy="10" r="1"/><circle cx="32" cy="60" r="1"/><circle cx="36" cy="60" r="1"/><circle cx="40" cy="60" r="1"/><circle cx="44" cy="60" r="1"/><circle cx="48" cy="60" r="1"/><circle cx="52" cy="60" r="1"/><circle cx="56" cy="60" r="1"/><circle cx="60" cy="60" r="1"/><circle cx="20" cy="60" r="1"/><circle cx="24" cy="60" r="1"/><circle cx="28" cy="60" r="1"/><circle cx="40" cy="52" r="1"/><circle cx="40" cy="48" r="1"/><circle cx="40" cy="44" r="1"/><circle cx="40" cy="56" r="1"/><circle cx="40" cy="60" r="1"/><circle cx="40" cy="64" r="1"/><circle cx="40" cy="68" r="1"/><circle cx="25" cy="52" r="1"/><circle cx="24" cy="48" r="1"/><circle cx="23" cy="44" r="1"/><circle cx="56" cy="48" r="1"/><circle cx="57" cy="44" r="1"/><circle cx="26" cy="56" r="1"/><circle cx="30" cy="64" r="1"/><circle cx="33" cy="67" r="1"/><circle cx="55" cy="52" r="1"/><circle cx="54" cy="56" r="1"/><circle cx="50" cy="64" r="1"/><circle cx="47" cy="67" r="1"/><circle cx="43" cy="70" r="1"/><circle cx="37" cy="70" r="1"/><circle cx="36" cy="40" r="1"/><circle cx="40" cy="40" r="1"/><circle cx="44" cy="40" r="1"/><circle cx="48" cy="40" r="1"/><circle cx="52" cy="40" r="1"/><circle cx="56" cy="40" r="1"/><circle cx="16" cy="40" r="1"/><circle cx="20" cy="40" r="1"/><circle cx="24" cy="40" r="1"/><circle cx="28" cy="40" r="1"/><circle cx="32" cy="40" r="1"/><circle cx="64" cy="40" r="1"/><circle cx="12" cy="40" r="1"/><circle cx="68" cy="40" r="1"/></svg>