<?xml version="1.0" encoding="utf-8"?><!-- Generator: Adobe Illustrator 21.0.2, SVG Export Plug-In . SVG Version: 6.00 Build 0)  --><svg xmlns="http://www.w3.org/2000/svg" xmlns:xlink="http://www.w3.org/1999/xlink" viewBox="0 0 50 50" width="500px" height="500px"><style type="text/css">.st0{fill:none;stroke:#000000;stroke-width:2;stroke-linecap:round;stroke-linejoin:round;stroke-miterlimit:10;}</style><circle class="st0" cx="25" cy="25" r="22"/><polygon class="st0" points="26.4,36.6 24.3,34.6 23.1,34.3 20.7,35.5 19.7,34.6 19.4,31.2 23.5,28.5 25.3,30.5 26.5,28.8 28.1,31.7 29,33.6 27.6,36.3 "/><polyline class="st0" points="42,39 38,40 38.4,37.5 41.3,33.4 41.8,32 41.1,31 40.7,28.1 41.8,27.8 42.2,26.7 44.1,26.1 45.5,28.4 46.5,29.6 "/><polyline class="st0" points="46.2,19.4 45,21 44,23 42,22 41,22 40,25 36,19.2 36,16.5 34,13.3 33,13 30,12 30,9 33,9 39,11 40.3,9.6 "/><polyline class="st0" points="9,10.1 13.9,9 16,10 24,8 26,9 24,11 23,14 21,12 19,13 20,14 20,16 17,18 18,19 17,23 15,26 13,23 10,26 8,23 7,23 5,24 3,26 "/><line class="st0" x1="13" y1="28" x2="15" y2="30"/><line class="st0" x1="17" y1="28" x2="18" y2="27"/></svg>