<?xml version="1.0" encoding="iso-8859-1"?>
<!-- Generator: Adobe Illustrator 24.0.1, SVG Export Plug-In . SVG Version: 6.00 Build 0)  -->
<svg version="1.1" id="Layer_1" xmlns="http://www.w3.org/2000/svg" xmlns:xlink="http://www.w3.org/1999/xlink" x="0px" y="0px"
	 viewBox="0 0 32 32" style="enable-background:new 0 0 32 32;" xml:space="preserve">
<path style="fill:none;stroke:#000000;stroke-width:2;stroke-miterlimit:10;" d="M19.806,22.031
	c-4.063,0.016-4.557-0.223-6.589-1.985c-0.931-0.84-2.03-1.048-2.895-1.046c-0.866,0.002-1.498,0.214-1.498,0.214l-4.743,1.82
	l1.314,3.685l4.411-1.688l7.118,3.918l11.882-4.918"/>
<path style="fill:none;stroke:#000000;stroke-width:2;stroke-miterlimit:10;" d="M17.5,5C14.462,5,12,7.462,12,10.5
	s2.462,5.5,5.5,5.5s5.5-2.462,5.5-5.5S20.538,5,17.5,5z"/>
<path d="M13.267,11.058h1.811l1.968,1.463l-0.523,1.927l0.679,1.153l-0.592,0.293l-1.984-2.409h-0.574l-0.905-0.998v-0.998
	l-0.854-0.964c0,0-0.214-1.703,0.567-2.66s1.394-1.722,2.125-2.1c0.731-0.378,1.718-0.525,1.718-0.525l-0.998,0.794l0.505,0.069
	l0.801-0.327l1.184,0.086l0.261,1.119l-1.463,0.275l-0.4-0.551l-0.836,0.189l0.296,1.274l-1.95,0.912l-1.306,1.033L13.267,11.058z
	 M19.537,15.156l0.85-2.637c0,0-0.349-0.878-0.4-0.878c-0.052,0-1.027,0.172-1.027,0.172l-0.941-0.774l0.47-1.445l0.836-0.619
	l0.854-0.121l0.801,0.482l0.331-0.603L20.005,8.32l-1.063,0.327l-0.069-0.998l0.418-0.362l0.523,0.223l-0.087-0.964l1.097-0.121
	c0,0,1.515,1.256,1.95,2.96s-0.035,3.012-0.609,3.924C21.59,14.224,19.868,15.346,19.537,15.156z"/>
</svg>