<?xml version="1.0" encoding="iso-8859-1"?>
<!-- Generator: Adobe Illustrator 24.1.2, SVG Export Plug-In . SVG Version: 6.00 Build 0)  -->
<svg version="1.1" baseProfile="basic" id="&#x421;&#x43B;&#x43E;&#x439;_1"
	 xmlns="http://www.w3.org/2000/svg" xmlns:xlink="http://www.w3.org/1999/xlink" x="0px" y="0px" viewBox="0 0 48 48"
	 xml:space="preserve">
<path marker-end="none" marker-start="none" style="fill-rule:evenodd;clip-rule:evenodd;" d="M2.022,26
	c0-12.147,9.857-22,22.001-22c1.933,0,3.808,0.253,5.595,0.72C29.221,5.733,29.002,6.84,29.002,8c0,2.133,0.737,4.08,1.973,5.627
	c0.156,0.2,0.309,0.387,0.457,0.573c-0.248,0.2-0.437,0.507-0.431,0.787c0.023,0.907,1.271,1.267,1.844,1.987
	c0.279,0.347,0.561,1.24,0.921,0.987c0.172-0.133,0.24-0.28,0.233-0.467c0.953,1.32,1.712,2.573,2.392,4.133
	c-1.269-0.467-2.391-1.147-2.391-0.2V22c0,0.747,1.255,1,2,1c0.253,0,0.629,0.04,0.988,0.147c0.023,0.067,0.045,0.12,0.068,0.187
	c0.077,0.227,0.215,0.387,0.943,0.667c-0.021-0.173,0.001-0.093,0.001,0c0,1.933-3.057,3-5,3c-2.493,0-6-8.04-6-5.467V22
	c0,1.24,1.539,2.28,2.507,3.613C30.646,27.2,31.343,29,33.002,29c0.797,0,2-3.133,2,1c0,1.773-5,3.4-5,6v2c0,1.413-3,1.6-3,3
	c0,1.6-3.059,2-5,2c-1.275,0-4-1.88-4-4c0-0.467,1-0.533,1-1c0-1.507-2-2.787-2-4c0-1.2-0.501-3-2-3c-0.463,0-0.529-1-1-1h-3
	c-1.885,0-4-2.307-4-4c0-1.373-0.004-3.08,1-4c1.629-1.493,2.643-4,5-4c1.052,0,1.848-1,3-1c0.471,0,1,0.613,1,1
	c0,1.427,1.721,2,3,2c0.744,0,0.968-1,2-1c1.052,0,1.544,1,3,1c1.053,0,3,0.053,3-1c0-0.507-0.457-1-1-1c-1.487,0-2.573-2-4-2
	c-0.744,0-0.335,2-1,2c-1.665,0-1.151-4-2.695-4c-1.048,0,1.128,3,0.556,3c-1.197,0-1.431-2-2.861-2c-1.489,0-2.464,2-4,2
	c-0.745,0-2-0.187-2-1c0-0.747,0.98-1,2-1c0.469,0,1-0.387,1-1c0-0.747-1-1.093-1-2c0-0.933,1.025-2,2-2c0.744,0,0.081,2,1,2
	c0.533,0,0.572-0.44,1.131-0.747c0.7-0.387,1.869-0.693,1.869-1.253c0-0.467-1-0.52-1-1c0-0.867,0.752-1.08,1.605-1.573
	C20.661,6.8,21.321,6,23.002,6c2.156,0,2.205,1,3,1c0.505,0,1.247-0.12,1.671-0.427C26.185,6.2,24.626,6,23.023,6
	C12.535,6,4.022,14.507,4.022,25s8.513,19,19.001,19c10.072,0,18.324-7.853,18.961-17.76c-0.567-1.64-1.251-3.853-2.551-4.2
	c1.029-2.493,2.216-4.173,3.992-6.413c1.657,3.093,2.599,6.627,2.599,10.373c0,12.147-9.857,22-22.001,22S2.022,38.147,2.022,26z
	 M31.101,38.88c-0.407-0.44,0.385-1.147,0.527-1.733c0.12-0.493-0.023-1.093,0.276-1.52c0.231-0.32,0.795-0.253,1.043-0.573
	c0.395-0.493,0.473-1.133,0.869-0.96c0.512,0.227-0.012,1.133-0.173,1.667c-0.315,1.053-0.647,2.253-1.519,2.907
	C31.846,38.88,31.334,39.133,31.101,38.88z M31.757,13c-1.099-1.373-1.755-3.107-1.755-5c0-4.413,3.581-8,7.997-8s8,3.587,8,8
	c0,1.893-0.656,3.627-1.755,5c-3.047,3.8-4.757,5.8-6.243,10C36.519,18.8,34.803,16.8,31.757,13z M28.997,15.667
	c0.137-0.84-2.636-1.347-3.881-1.653c-0.447-0.107-1.193,0.427-1.105,0.853c0.172,0.853,1.757,0.72,2.696,0.853
	C27.461,15.827,28.887,16.333,28.997,15.667z M22.002,9.08V7.16c0-0.707-1,1.133-1,1.92c0,0.72-1.745,1.92-1,1.92h1
	C21.747,11,22.002,9.8,22.002,9.08z"/>
<path marker-end="none" marker-start="none" style="fill-rule:evenodd;clip-rule:evenodd;" d="M24.022,47
	c10.488,0,19,0.227,19,0.507c0,0.267-8.512,0.493-19,0.493s-19-0.227-19-0.493C5.022,47.227,13.534,47,24.022,47z"/>
</svg>