<?xml version="1.0" encoding="iso-8859-1"?>
<!-- Generator: Adobe Illustrator 23.0.3, SVG Export Plug-In . SVG Version: 6.00 Build 0)  -->
<svg version="1.1" id="Layer_1" xmlns="http://www.w3.org/2000/svg" xmlns:xlink="http://www.w3.org/1999/xlink" x="0px" y="0px"
	 viewBox="0 0 50 50" style="enable-background:new 0 0 50 50;" xml:space="preserve">
<path style="fill:none;stroke:#000000;stroke-width:2;stroke-linecap:round;stroke-linejoin:round;stroke-miterlimit:10;" d="M35,4
	H15c-1.1,0-2,0.9-2,2v38c0,1.1,0.9,2,2,2h20c1.1,0,2-0.9,2-2V6C37,4.9,36.1,4,35,4z"/>
<line style="fill:none;stroke:#000000;stroke-width:2;stroke-linecap:round;stroke-linejoin:round;stroke-miterlimit:10;" x1="22" y1="43" x2="28" y2="43"/>
<line style="fill:none;stroke:#000000;stroke-width:2;stroke-linecap:round;stroke-linejoin:round;stroke-miterlimit:10;" x1="13" y1="9" x2="37" y2="9"/>
<line style="fill:none;stroke:#000000;stroke-width:2;stroke-linecap:round;stroke-linejoin:round;stroke-miterlimit:10;" x1="13" y1="40" x2="37" y2="40"/>
<g>
	<g>
		<path d="M25,15c3.308,0,6,2.871,6,6.4c0,2.945-3.253,7.794-6.001,11.081C22.251,29.198,19,24.353,19,21.4
			C19,17.871,21.692,15,25,15 M25,13c-4.4,0-8,3.8-8,8.4c0,5.6,8,14.1,8,14.1s8-8.5,8-14.1C33,16.8,29.4,13,25,13L25,13z"/>
	</g>
</g>
<circle style="fill:none;stroke:#000000;stroke-width:2;stroke-miterlimit:10;" cx="25" cy="21" r="3"/>
</svg>