<?xml version="1.0" encoding="utf-8"?><!-- Generator: Adobe Illustrator 17.0.0, SVG Export Plug-In . SVG Version: 6.00 Build 0)  --><!DOCTYPE svg PUBLIC "-//W3C//DTD SVG 1.1//EN" "http://www.w3.org/Graphics/SVG/1.1/DTD/svg11.dtd"><svg xmlns="http://www.w3.org/2000/svg" xmlns:xlink="http://www.w3.org/1999/xlink" viewBox="0 0 50 50" width="500px" height="500px"><path fill="none" stroke="#000000" stroke-width="2" stroke-linecap="round" stroke-linejoin="round" stroke-miterlimit="10" d="M17.372,22.24c1.275-1.275,5.405-1.521,8.657,1.731s3.006,7.382,1.731,8.657L17.372,22.24z"/><path fill="none" stroke="#000000" stroke-width="2" stroke-linecap="round" stroke-linejoin="round" stroke-miterlimit="10" d="M24.362,29.252c-0.998,0.998-2.616,0.998-3.614,0c-0.998-0.998-0.998-2.616,0-3.614"/><path fill="none" stroke="#000000" stroke-width="2" stroke-linecap="round" stroke-linejoin="round" stroke-miterlimit="10" d="M20.609,18.55L31.45,29.391c0,0,12.037-12.037,12.129-12.129c0.998-0.998,0.998-2.616,0-3.614c-0.786-0.786-6.442-6.442-7.228-7.228c-0.998-0.998-2.616-0.998-3.614,0C32.646,6.513,20.609,18.55,20.609,18.55z"/><polyline fill="none" stroke="#000000" stroke-width="2" stroke-linejoin="round" stroke-miterlimit="10" points="21.154,14.318 15.769,8.933 23.703,1 29.087,6.385 "/><polyline fill="none" stroke="#000000" stroke-width="2" stroke-linejoin="round" stroke-miterlimit="10" points="43.614,20.911 49,26.297 41.067,34.231 35.68,28.845 "/></svg>