<?xml version="1.0" encoding="iso-8859-1"?>
<!-- Generator: Adobe Illustrator 25.4.1, SVG Export Plug-In . SVG Version: 6.00 Build 0)  -->
<svg version="1.1" baseProfile="basic" id="Layer_1"
	 xmlns="http://www.w3.org/2000/svg" xmlns:xlink="http://www.w3.org/1999/xlink" x="0px" y="0px" viewBox="0 0 100 100"
	 xml:space="preserve">
<line style="fill:none;stroke:#000000;stroke-width:2;stroke-linecap:round;stroke-linejoin:round;stroke-miterlimit:10;" x1="58.45" y1="75.38" x2="62.31" y2="79.31"/>
<path style="fill:none;stroke:#000000;stroke-width:4;stroke-linecap:round;stroke-linejoin:round;stroke-miterlimit:10;" d="
	M49.999,13c-20-1-33.985,15.71-35,35c-1,19,15.707,34.04,35,35c20,1,34-16,35-35C86.014,28.71,69.292,13.97,49.999,13z"/>
<path style="fill:none;stroke:#000000;stroke-width:2.2835;stroke-linecap:round;stroke-linejoin:round;stroke-miterlimit:10;" d="
	M14.88,50.19c3.203-1.6,66.249-3.75,70.665-2.12"/>
<path style="fill:none;stroke:#000000;stroke-width:2.2835;stroke-linecap:round;stroke-linejoin:round;stroke-miterlimit:10;" d="
	M37.06,14.45c-0.587,1.07-22.184,35.79,2.428,66.69"/>
<path style="fill:none;stroke:#000000;stroke-width:2.2835;stroke-linecap:round;stroke-linejoin:round;stroke-miterlimit:10;" d="
	M64.746,17.87c0,0,18.751,29.33-0.064,60.95"/>
<path style="fill:none;stroke:#000000;stroke-width:2.2835;stroke-linecap:round;stroke-linejoin:round;stroke-miterlimit:10;" d="
	M47.743,12.17c4.474,9.22,6.599,50.64-0.247,70.87"/>
<path style="fill:none;stroke:#000000;stroke-width:2.2835;stroke-linecap:round;stroke-linejoin:round;stroke-miterlimit:10;" d="
	M18.163,32.27c19.613-3.44,40.089-4.19,61.624-1.66"/>
<path style="fill:none;stroke:#000000;stroke-width:2.2835;stroke-linecap:round;stroke-linejoin:round;stroke-miterlimit:10;" d="
	M19.163,64.65c19.613,3.43,45.492,2.84,62.996-1.34"/>
<path style="fill-rule:evenodd;clip-rule:evenodd;" d="M67.683,34.85c-0.299,0.46-0.918,0.6-1.382,0.3
	c-0.464-0.3-0.598-0.92-0.3-1.38c0.299-0.47,0.918-0.6,1.382-0.3C67.847,33.77,67.982,34.38,67.683,34.85"/>
<path style="fill-rule:evenodd;clip-rule:evenodd;" d="M36.751,58.96c-0.299,0.46-0.918,0.59-1.382,0.3
	c-0.464-0.3-0.599-0.92-0.3-1.39c0.299-0.46,0.918-0.59,1.382-0.3C36.915,57.87,37.05,58.49,36.751,58.96"/>
<path style="fill-rule:evenodd;clip-rule:evenodd;" d="M35.163,52.1c-0.299,0.47-0.918,0.6-1.382,0.3
	c-0.464-0.29-0.598-0.91-0.3-1.38c0.299-0.46,0.918-0.6,1.382-0.3C35.327,51.02,35.462,51.64,35.163,52.1"/>
<line style="fill:none;stroke:#000000;stroke-width:2;stroke-linecap:round;stroke-linejoin:round;stroke-miterlimit:10;" x1="76.65" y1="38.13" x2="83.36" y2="33.98"/>
<line style="fill:none;stroke:#000000;stroke-width:2;stroke-linecap:round;stroke-linejoin:round;stroke-miterlimit:10;" x1="78.75" y1="41.6" x2="83.452" y2="39.34"/>
<line style="fill:none;stroke:#000000;stroke-width:2;stroke-linecap:round;stroke-linejoin:round;stroke-miterlimit:10;" x1="16.743" y1="57.62" x2="21.023" y2="54.34"/>
<line style="fill:none;stroke:#000000;stroke-width:2;stroke-linecap:round;stroke-linejoin:round;stroke-miterlimit:10;" x1="18.494" y1="63.31" x2="23.326" y2="57.68"/>
<line style="fill:none;stroke:#000000;stroke-width:2;stroke-linecap:round;stroke-linejoin:round;stroke-miterlimit:10;" x1="25.612" y1="71.03" x2="27.256" y2="69.07"/>
<line style="fill:none;stroke:#000000;stroke-width:2;stroke-linecap:round;stroke-linejoin:round;stroke-miterlimit:10;" x1="27.177" y1="75.56" x2="30.302" y2="71.03"/>
<line style="fill:none;stroke:#000000;stroke-width:2;stroke-linecap:round;stroke-linejoin:round;stroke-miterlimit:10;" x1="16.743" y1="41.5" x2="23.545" y2="43.34"/>
<line style="fill:none;stroke:#000000;stroke-width:2;stroke-linecap:round;stroke-linejoin:round;stroke-miterlimit:10;" x1="18.17" y1="35.71" x2="23.326" y2="37.82"/>
<line style="fill:none;stroke:#000000;stroke-width:2;stroke-linecap:round;stroke-linejoin:round;stroke-miterlimit:10;" x1="22.371" y1="24.87" x2="26.357" y2="27.35"/>
<line style="fill:none;stroke:#000000;stroke-width:2;stroke-linecap:round;stroke-linejoin:round;stroke-miterlimit:10;" x1="26.357" y1="21.53" x2="28.524" y2="23.68"/>
<line style="fill:none;stroke:#000000;stroke-width:2;stroke-linecap:round;stroke-linejoin:round;stroke-miterlimit:10;" x1="53.967" y1="21.92" x2="52.07" y2="14.22"/>
<line style="fill:none;stroke:#000000;stroke-width:2;stroke-linecap:round;stroke-linejoin:round;stroke-miterlimit:10;" x1="57.281" y1="19.76" x2="56.802" y2="12.99"/>
<line style="fill:none;stroke:#000000;stroke-width:2;stroke-linecap:round;stroke-linejoin:round;stroke-miterlimit:10;" x1="54.266" y1="75.56" x2="58.284" y2="83.04"/>
</svg>