<?xml version="1.0" encoding="iso-8859-1"?>
<!-- Generator: Adobe Illustrator 26.0.3, SVG Export Plug-In . SVG Version: 6.00 Build 0)  -->
<svg version="1.1" baseProfile="basic" id="Layer_1"
	 xmlns="http://www.w3.org/2000/svg" xmlns:xlink="http://www.w3.org/1999/xlink" x="0px" y="0px" viewBox="0 0 64 64"
	 xml:space="preserve">
<path d="M57,41c0,6.84-10.75,12-25,12S7,47.84,7,41c0-5.84,7.83-10.46,19-11.68V10.36c0-1.1,0.9-2,2-2s2,0.9,2,2V36h-3.14
	c-1.55,0-2.41,1.78-1.46,2.99l5.14,6.58c0.74,0.95,2.18,0.95,2.92,0l5.14-6.58c0.95-1.21,0.09-2.99-1.46-2.99H34v-6.96
	C47.25,29.49,57,34.48,57,41z"/>
</svg>