<?xml version="1.0" encoding="iso-8859-1"?><!-- Generator: Adobe Illustrator 21.1.0, SVG Export Plug-In . SVG Version: 6.00 Build 0)  --><svg xmlns="http://www.w3.org/2000/svg" xmlns:xlink="http://www.w3.org/1999/xlink" viewBox="0 0 50 50" width="500px" height="500px"><circle style="fill:none;stroke:#000000;stroke-width:2;stroke-miterlimit:10;" cx="25" cy="25" r="22"/><polygon style="fill:none;stroke:#000000;stroke-width:2;stroke-linecap:round;stroke-linejoin:round;stroke-miterlimit:10;" points="17,6 17,8 19,7 20,9 18,12 16,12 12,14 12,12 14,6 "/><polyline style="fill:none;stroke:#000000;stroke-width:2;stroke-linecap:round;stroke-linejoin:round;stroke-miterlimit:10;" points="12,12 9,13 8,20 6,19 3.572,20 "/><polyline style="fill:none;stroke:#000000;stroke-width:2;stroke-linecap:round;stroke-linejoin:round;stroke-miterlimit:10;" points="30,21 26,17 28,15 30,13 33,13 34,15 34,15 35,13 37,11 36,9 37,6.559 "/><polyline style="fill:none;stroke:#000000;stroke-width:2;stroke-linecap:round;stroke-linejoin:round;stroke-miterlimit:10;" points="30,46 28,44 28,40 25,38 22,39 19,38 18,34 20,30 25,28 30,30 36,29 39,35 41,34 38,39 34.709,44.746 "/><polyline style="fill:none;stroke:#000000;stroke-width:2;stroke-linecap:round;stroke-linejoin:round;stroke-miterlimit:10;" points="37,23 35,22 34,24 31,25 30,27 28,24 25,25 23,27 21,27 21,25 23,25 25,23 27,21 30,21 32,18 31,17 "/><polyline style="fill:none;stroke:#000000;stroke-width:2;stroke-linecap:round;stroke-linejoin:round;stroke-miterlimit:10;" points="36,29 36,28 33,28 32,25 37,23 "/><polyline style="fill:none;stroke:#000000;stroke-width:2;stroke-linecap:round;stroke-linejoin:round;stroke-miterlimit:10;" points="46.67,28.805 45,27 41,28 41,29 43,30 41,34 "/><path d="M23,21h-2c-0.404,0-0.769-0.244-0.924-0.617c-0.155-0.374-0.069-0.804,0.217-1.09l1-1c0.021-0.021,0.042-0.041,0.064-0.059l-0.306-0.917c-0.175-0.524,0.108-1.09,0.632-1.265c0.526-0.177,1.091,0.109,1.265,0.632l1,3c0.102,0.305,0.05,0.64-0.138,0.901C23.623,20.846,23.321,21,23,21z"/></svg>