<?xml version="1.0" encoding="iso-8859-1"?>
<!-- Generator: Adobe Illustrator 23.0.3, SVG Export Plug-In . SVG Version: 6.00 Build 0)  -->
<svg version="1.1" id="Layer_1" xmlns="http://www.w3.org/2000/svg" xmlns:xlink="http://www.w3.org/1999/xlink" x="0px" y="0px"
	 viewBox="0 0 50 50" style="enable-background:new 0 0 50 50;" xml:space="preserve">
<path style="fill:none;stroke:#000000;stroke-width:2;" d="M25,2.801c-9.199,0-16.602,7.398-16.602,16.598
	C8.398,30.5,19.602,41.602,25,47.102C30.5,41.5,41.602,30.5,41.602,19.398C41.602,10.301,34.199,2.801,25,2.801z"/>
<g>
	<path d="M19.65,27.399V11.898h6.102c2.868,0,4.619,1.493,4.619,3.867c0,1.622-1.182,3.072-2.696,3.33v0.183
		c2.105,0.247,3.48,1.708,3.48,3.749c0,2.729-1.977,4.372-5.274,4.372H19.65z M21.842,18.526h2.965c2.224,0,3.373-0.816,3.373-2.374
		c0-1.515-1.074-2.396-2.922-2.396h-3.416V18.526z M25.483,25.541c2.245,0,3.427-0.913,3.427-2.643c0-1.719-1.225-2.6-3.588-2.6
		h-3.48v5.242H25.483z"/>
</g>
</svg>