<?xml version="1.0" encoding="iso-8859-1"?>
<!-- Generator: Adobe Illustrator 26.0.3, SVG Export Plug-In . SVG Version: 6.00 Build 0)  -->
<svg version="1.1" baseProfile="basic" id="Layer_1"
	 xmlns="http://www.w3.org/2000/svg" xmlns:xlink="http://www.w3.org/1999/xlink" x="0px" y="0px" viewBox="0 0 72 72"
	 xml:space="preserve">
<path style="fill:#1D1D1B;" d="M26.21,52.67l-7.09,3.56c-0.96,0.49-2.13,0.3-2.89-0.46c-0.76-0.77-0.95-1.93-0.46-2.89l3.56-7.09
	l5.17,1.71L26.21,52.67z"/>
<path style="fill:#1D1D1B;" d="M55.77,55.77c-0.48,0.48-1.12,0.73-1.77,0.73c-0.38,0-0.77-0.09-1.12-0.27l-7.09-3.56l1.71-5.17
	l5.17-1.71l3.56,7.09C56.72,53.84,56.53,55,55.77,55.77z"/>
<path style="fill:#1D1D1B;" d="M56.23,19.12l-3.56,7.09L47.5,24.5l-1.71-5.17l7.09-3.56c0.96-0.49,2.12-0.3,2.89,0.46
	C56.53,17,56.72,18.16,56.23,19.12z"/>
<path style="fill:#1D1D1B;" d="M26.21,19.33L24.5,24.5l-5.17,1.71l-3.56-7.09c-0.49-0.96-0.3-2.12,0.46-2.89
	c0.77-0.76,1.93-0.95,2.89-0.46L26.21,19.33z"/>
<path style="fill:#1D1D1B;" d="M33.17,36l-7.62,7.62l-14.49-4.77C9.83,38.44,9,37.29,9,36c0-1.29,0.83-2.44,2.06-2.85l14.49-4.78
	L33.17,36z"/>
<path style="fill:#1D1D1B;" d="M36,38.83l7.63,7.63l-4.78,14.48C38.44,62.17,37.29,63,36,63s-2.44-0.83-2.85-2.06l-4.78-14.48
	L36,38.83z"/>
<path style="fill:#1D1D1B;" d="M63,36c0,1.29-0.83,2.44-2.06,2.85l-14.49,4.77L38.83,36l7.62-7.62l14.49,4.77
	C62.17,33.56,63,34.71,63,36z"/>
<path style="fill:#1D1D1B;" d="M36,33.17l-7.63-7.62l4.78-14.49C33.56,9.83,34.71,9,36,9s2.44,0.83,2.85,2.06l4.78,14.48L36,33.17z"
	/>
</svg>