<?xml version="1.0" encoding="iso-8859-1"?>
<!-- Generator: Adobe Illustrator 25.2.3, SVG Export Plug-In . SVG Version: 6.00 Build 0)  -->
<svg version="1.1" baseProfile="basic" id="Layer_1"
	 xmlns="http://www.w3.org/2000/svg" xmlns:xlink="http://www.w3.org/1999/xlink" x="0px" y="0px" viewBox="0 0 48 48"
	 xml:space="preserve">
<path d="M10.63,35.25H2.548C2.198,33.89,2,32.471,2,31s0.198-2.89,0.548-4.25h8.082c-0.09,1.4-0.13,2.83-0.13,4.25
	C10.5,32.42,10.54,33.85,10.63,35.25z"/>
<path d="M10.92,38.65c0.33,2.92,0.84,5.67,1.54,8.04c-3.75-1.56-6.82-4.43-8.64-8.04H10.92z"/>
<path d="M10.92,23.35h-7.1c1.81-3.61,4.88-6.48,8.64-8.04C11.76,17.68,11.25,20.43,10.92,23.35z"/>
<path d="M23.11,23.35h-8.78c0.46-3.88,1.23-6.98,2.07-9.15c0.57-0.09,1.14-0.15,1.73-0.18c0.42,3.13,1.85,6.07,4.14,8.48
	L23.11,23.35z"/>
<path d="M23.67,38.65c-0.46,3.88-1.23,6.98-2.07,9.15C20.75,47.93,19.88,48,19,48s-1.75-0.07-2.6-0.2
	c-0.84-2.17-1.61-5.27-2.07-9.15H23.67z"/>
<path d="M14.03,35.25C13.95,33.9,13.9,32.49,13.9,31s0.05-2.9,0.13-4.25h9.94c0.08,1.35,0.13,2.76,0.13,4.25s-0.05,2.9-0.13,4.25
	H14.03z"/>
<path d="M27.08,38.65h7.1c-1.82,3.61-4.89,6.48-8.64,8.04C26.24,44.32,26.75,41.57,27.08,38.65z"/>
<path d="M36,31c0,1.471-0.198,2.89-0.548,4.25H27.37c0.09-1.4,0.13-2.83,0.13-4.25c0-1.12-0.03-2.24-0.09-3.35L33,33.24l2.97-2.97
	C35.99,30.51,36,30.76,36,31z"/>
<path d="M33,29c0,0-8.6-8.607-8.611-8.619c-2.079-2.187-3.402-5.112-3.402-8.367C20.986,5.379,26.365,0,33,0
	s12.014,5.379,12.014,12.014c0,3.255-1.324,6.18-3.402,8.367C41.6,20.393,33,29,33,29z M33,7c-2.761,0-5,2.239-5,5s2.239,5,5,5
	s5-2.239,5-5S35.761,7,33,7z"/>
</svg>