<?xml version="1.0" encoding="iso-8859-1"?>
<!-- Generator: Adobe Illustrator 25.4.1, SVG Export Plug-In . SVG Version: 6.00 Build 0)  -->
<svg version="1.1" baseProfile="basic" id="Layer_1"
	 xmlns="http://www.w3.org/2000/svg" xmlns:xlink="http://www.w3.org/1999/xlink" x="0px" y="0px" viewBox="0 0 100 100"
	 xml:space="preserve">
<path style="fill:none;stroke:#000000;stroke-width:4;stroke-linecap:round;stroke-linejoin:round;stroke-miterlimit:10;" d="
	M50.447,88.53c0,0-27.973-34.34-28.142-51.13C22.131,20.09,36.768,7.6,51.352,7.27c12.28-0.28,30.561,10.86,29.919,29.71
	C80.702,53.7,50.447,88.53,50.447,88.53z"/>
<path style="fill-rule:evenodd;clip-rule:evenodd;" d="M59.945,66.49c-0.02,0.4-0.364,0.71-0.768,0.69
	c-0.404-0.02-0.715-0.36-0.694-0.76c0.02-0.41,0.364-0.72,0.768-0.7C59.654,65.74,59.965,66.09,59.945,66.49z"/>
<path style="fill-rule:evenodd;clip-rule:evenodd;" d="M55.527,63.07c-0.02,0.41-0.364,0.72-0.768,0.7S54.044,63.4,54.064,63
	s0.364-0.71,0.768-0.69C55.236,62.33,55.547,62.67,55.527,63.07z"/>
<path style="fill-rule:evenodd;clip-rule:evenodd;" d="M60.921,62.22c-0.02,0.41-0.364,0.72-0.768,0.7
	c-0.404-0.02-0.715-0.36-0.694-0.77c0.02-0.4,0.364-0.71,0.768-0.69C60.63,61.48,60.941,61.82,60.921,62.22z"/>
<path style="fill:none;stroke:#000000;stroke-width:2;stroke-linecap:round;stroke-linejoin:round;stroke-miterlimit:10;" d="
	M51.728,16.23c-11.52-0.58-19.576,9.05-20.161,20.16c-0.576,10.94,9.048,19.6,20.161,20.16c11.521,0.57,19.585-9.22,20.161-20.16
	C72.473,25.28,62.841,16.78,51.728,16.23z"/>
<line style="fill:none;stroke:#000000;stroke-width:2;stroke-linecap:round;stroke-linejoin:round;stroke-miterlimit:10;" x1="35.289" y1="67.16" x2="37.771" y2="65.2"/>
<line style="fill:none;stroke:#000000;stroke-width:2;stroke-linecap:round;stroke-linejoin:round;stroke-miterlimit:10;" x1="38.045" y1="71.16" x2="41.491" y2="67.41"/>
<line style="fill:none;stroke:#000000;stroke-width:2;stroke-linecap:round;stroke-linejoin:round;stroke-miterlimit:10;" x1="40.746" y1="74.95" x2="44.169" y2="71.44"/>
<line style="fill:none;stroke:#000000;stroke-width:2;stroke-linecap:round;stroke-linejoin:round;stroke-miterlimit:10;" x1="43.138" y1="78.09" x2="47.132" y2="75.73"/>
<line style="fill:none;stroke:#000000;stroke-width:2;stroke-linecap:round;stroke-linejoin:round;stroke-miterlimit:10;" x1="46.264" y1="82.28" x2="48.533" y2="80.21"/>
<line style="fill:none;stroke:#000000;stroke-width:2;stroke-linecap:round;stroke-linejoin:round;stroke-miterlimit:10;" x1="72.364" y1="50.24" x2="76.846" y2="50.81"/>
<line style="fill:none;stroke:#000000;stroke-width:2;stroke-linecap:round;stroke-linejoin:round;stroke-miterlimit:10;" x1="75.098" y1="44.25" x2="79.159" y2="45.12"/>
<line style="fill:none;stroke:#000000;stroke-width:2;stroke-linecap:round;stroke-linejoin:round;stroke-miterlimit:10;" x1="76.487" y1="40.03" x2="80.235" y2="39.02"/>
<line style="fill:none;stroke:#000000;stroke-width:2;stroke-linecap:round;stroke-linejoin:round;stroke-miterlimit:10;" x1="76.801" y1="34.48" x2="80.616" y2="31.57"/>
<line style="fill:none;stroke:#000000;stroke-width:2;stroke-linecap:round;stroke-linejoin:round;stroke-miterlimit:10;" x1="58.157" y1="8.63" x2="56.398" y2="11.92"/>
<line style="fill:none;stroke:#000000;stroke-width:2;stroke-linecap:round;stroke-linejoin:round;stroke-miterlimit:10;" x1="50.617" y1="7.8" x2="50.594" y2="11.57"/>
<line style="fill:none;stroke:#000000;stroke-width:2;stroke-linecap:round;stroke-linejoin:round;stroke-miterlimit:10;" x1="41.446" y1="53.26" x2="43.301" y2="51.63"/>
<line style="fill:none;stroke:#000000;stroke-width:2;stroke-linecap:round;stroke-linejoin:round;stroke-miterlimit:10;" x1="45.345" y1="55.2" x2="47.02" y2="51.71"/>
<line style="fill:none;stroke:#000000;stroke-width:2;stroke-linecap:round;stroke-linejoin:round;stroke-miterlimit:10;" x1="50.37" y1="56.08" x2="50.695" y2="53.77"/>
<line style="fill:none;stroke:#000000;stroke-width:2;stroke-linecap:round;stroke-linejoin:round;stroke-miterlimit:10;" x1="71.221" y1="31.71" x2="68.824" y2="33.7"/>
<line style="fill:none;stroke:#000000;stroke-width:2;stroke-linecap:round;stroke-linejoin:round;stroke-miterlimit:10;" x1="71.697" y1="36.01" x2="68.213" y2="37.52"/>
<line style="fill:none;stroke:#000000;stroke-width:2;stroke-linecap:round;stroke-linejoin:round;stroke-miterlimit:10;" x1="66.846" y1="41.06" x2="70.174" y2="42.12"/>
<line style="fill:none;stroke:#000000;stroke-width:2;stroke-linecap:round;stroke-linejoin:round;stroke-miterlimit:10;" x1="31.654" y1="37" x2="34.085" y2="37.97"/>
<line style="fill:none;stroke:#000000;stroke-width:2;stroke-linecap:round;stroke-linejoin:round;stroke-miterlimit:10;" x1="32.231" y1="34.43" x2="34.477" y2="33.97"/>
</svg>