<?xml version="1.0" encoding="iso-8859-1"?>
<!-- Generator: Adobe Illustrator 24.2.3, SVG Export Plug-In . SVG Version: 6.00 Build 0)  -->
<svg version="1.1" id="Layer_1" xmlns="http://www.w3.org/2000/svg" xmlns:xlink="http://www.w3.org/1999/xlink" x="0px" y="0px"
	 viewBox="0 0 48 48" style="enable-background:new 0 0 48 48;" xml:space="preserve">
<circle style="fill:none;stroke:#000000;stroke-width:3;stroke-miterlimit:10;" cx="24" cy="18" r="4.5"/>
<path style="fill:none;stroke:#000000;stroke-width:3;stroke-miterlimit:10;" d="M36.5,18c0-6.904-5.596-12.5-12.5-12.5
	S11.5,11.096,11.5,18c0,3.098,1.133,5.927,2.999,8.111c0,0,5.933,6.906,7.835,8.721c0.935,0.892,2.396,0.892,3.331,0
	c2.217-2.114,7.835-8.721,7.835-8.721C35.367,23.927,36.5,21.098,36.5,18z"/>
<path d="M35.233,29.443c-0.578,0.656-1.369,1.55-2.24,2.521C37.419,33.005,40,34.691,40,36c0,2.039-6.233,5-16,5S8,38.039,8,36
	c0-1.31,2.586-2.998,7.019-4.039c-0.867-0.965-1.664-1.86-2.248-2.519C8.226,30.755,5,32.953,5,36c0,5.252,9.558,8,19,8
	s19-2.748,19-8C43,32.954,39.776,30.757,35.233,29.443z"/>
</svg>