<?xml version="1.0" encoding="iso-8859-1"?>
<!-- Generator: Adobe Illustrator 25.2.3, SVG Export Plug-In . SVG Version: 6.00 Build 0)  -->
<svg version="1.1" id="Layer_1" xmlns="http://www.w3.org/2000/svg" xmlns:xlink="http://www.w3.org/1999/xlink" x="0px" y="0px"
	 viewBox="0 0 64 64" style="enable-background:new 0 0 64 64;" xml:space="preserve">
<path d="M11.297,39.439C10.459,37.114,10,34.61,10,32c0-12.131,9.869-22,22-22c6.18,0,11.769,2.565,15.769,6.682l2.997-2.648
	C46.031,9.089,39.371,6,32,6C17.664,6,6,17.663,6,32c0,2.969,0.507,5.821,1.428,8.481L11.297,39.439z"/>
<path d="M52.703,24.561C53.541,26.886,54,29.39,54,32c0,12.131-9.869,22-22,22c-6.18,0-11.769-2.565-15.769-6.682l-2.997,2.649
	C17.969,54.911,24.629,58,32,58c14.336,0,26-11.663,26-26c0-2.969-0.507-5.821-1.428-8.481L52.703,24.561z"/>
<polygon points="1.169,36.872 10.717,44.938 15.25,33.29 "/>
<polygon points="62.831,27.128 53.283,19.062 48.75,30.71 "/>
<path d="M32,18.13c-6.075,0-11,4.925-11,11c0,2.75,1.012,5.263,2.681,7.191L32,45.87l8.319-9.548C41.988,34.393,43,31.881,43,29.13
	C43,23.055,38.075,18.13,32,18.13z M32,33.13c-2.209,0-4-1.791-4-4s1.791-4,4-4s4,1.791,4,4S34.209,33.13,32,33.13z"/>
</svg>