<?xml version="1.0" encoding="iso-8859-1"?>
<!-- Generator: Adobe Illustrator 25.0.0, SVG Export Plug-In . SVG Version: 6.00 Build 0)  -->
<svg version="1.1" baseProfile="basic" id="Layer_1"
	 xmlns="http://www.w3.org/2000/svg" xmlns:xlink="http://www.w3.org/1999/xlink" x="0px" y="0px" viewBox="0 0 50 50"
	 xml:space="preserve">
<path d="M41.792,38.856c0.266,0.443,0.272,0.976,0.018,1.426C41.556,40.731,41.096,41,40.579,41H9.422
	c-0.517,0-0.977-0.269-1.231-0.718c-0.254-0.45-0.248-0.982,0.018-1.426l3.456-5.76C12.071,32.42,12.812,32,13.601,32h8.375v1
	h-8.375c-0.439,0-0.853,0.234-1.079,0.611l-3.456,5.76c-0.112,0.188-0.041,0.355-0.005,0.418C9.096,39.853,9.203,40,9.422,40h31.157
	c0.219,0,0.326-0.147,0.361-0.21c0.036-0.063,0.107-0.231-0.005-0.418l-3.456-5.76C37.253,33.234,36.839,33,36.4,33h-6.855l1.059-1
	H36.4c0.789,0,1.53,0.42,1.937,1.096L41.792,38.856z"/>
<path d="M24.857,8c6.065,0,11,4.935,11,11c0,7.75-10.245,16.317-10.681,16.678c-0.093,0.077-0.206,0.115-0.319,0.115
	s-0.226-0.038-0.319-0.115C24.102,35.317,13.857,26.75,13.857,19C13.857,12.935,18.791,8,24.857,8z M24.857,21c1.105,0,2-0.895,2-2
	c0-1.105-0.895-2-2-2s-2,0.895-2,2C22.857,20.105,23.752,21,24.857,21z"/>
</svg>