<?xml version="1.0" encoding="iso-8859-1"?>
<!-- Generator: Adobe Illustrator 26.0.3, SVG Export Plug-In . SVG Version: 6.00 Build 0)  -->
<svg version="1.1" baseProfile="basic" id="Layer_1"
	 xmlns="http://www.w3.org/2000/svg" xmlns:xlink="http://www.w3.org/1999/xlink" x="0px" y="0px" viewBox="0 0 72 72"
	 xml:space="preserve">
<path d="M41,18c0,3.97,1.69,7.72,3.74,10.79l-6.14,5.24c-1.51,1.29-3.69,1.29-5.2,0L14.49,17.89C16.01,16.71,17.93,16,20,16h21.14
	C41.05,16.65,41,17.32,41,18z"/>
<path d="M61,35.93V47c0,4.96-4.04,9-9,9H20c-4.96,0-9-4.04-9-9V25c0-1.44,0.34-2.81,0.95-4.02l18.86,16.09
	C32.31,38.36,34.16,39,36,39s3.69-0.64,5.19-1.93l5.96-5.09c1.88,2.22,3.64,3.78,4.32,4.36C52.74,37.41,54.34,38,56,38
	s3.26-0.59,4.53-1.66C60.65,36.24,60.81,36.1,61,35.93z"/>
<path d="M56,7c6.07,0,11,4.93,11,11c0,7.4-8.13,14.5-9.06,15.29C57.38,33.76,56.69,34,56,34s-1.38-0.24-1.94-0.71
	C53.13,32.5,45,25.4,45,18C45,11.93,49.93,7,56,7z M54,18c0,1.1,0.9,2,2,2s2-0.9,2-2c0-1.1-0.9-2-2-2S54,16.9,54,18z"/>
</svg>