<?xml version="1.0" encoding="iso-8859-1"?>
<!-- Generator: Adobe Illustrator 24.0.2, SVG Export Plug-In . SVG Version: 6.00 Build 0)  -->
<svg version="1.1" id="&#x421;&#x43B;&#x43E;&#x439;_2"
	 xmlns="http://www.w3.org/2000/svg" xmlns:xlink="http://www.w3.org/1999/xlink" x="0px" y="0px" viewBox="0 0 80 80"
	 style="enable-background:new 0 0 80 80;" xml:space="preserve">
<path d="M38,57c-0.552,0-1,0.448-1,1s0.448,1,1,1s1-0.448,1-1S38.552,57,38,57z M35,56c-0.552,0-1,0.448-1,1s0.448,1,1,1
	s1-0.448,1-1S35.552,56,35,56z M32,55c-0.552,0-1,0.448-1,1s0.448,1,1,1c0.552,0,1-0.448,1-1S32.552,55,32,55z M29,54
	c-0.552,0-1,0.448-1,1s0.448,1,1,1s1-0.448,1-1S29.552,54,29,54z"/>
<path style="fill:none;stroke:#000000;stroke-width:2;stroke-linecap:round;stroke-linejoin:round;stroke-miterlimit:10;" d="M8,64
	l12-4l24.844,10.508c0.022,0.01,0.052,0.018,0.079,0.028C45.557,70.827,46.256,71,47,71c0.777,0,1.504-0.193,2.16-0.509
	c0.071-0.022,0.135-0.045,0.184-0.069l20.568-10.917l-0.004-0.009C71.148,58.816,72,57.514,72,56c0-2.209-1.791-4-4-4
	c-0.552,0-1.078,0.112-1.556,0.314l-0.001-0.002l-17.269,7.139l-1.835-1.255C47.755,57.565,48,56.812,48,56
	c0-1.523-0.861-2.831-2.113-3.506c-0.048-0.031-0.09-0.068-0.142-0.096c0,0-12.873-6.448-19.204-9.436
	c-0.009-0.004-0.022-0.008-0.032-0.012C25.477,42.349,24.28,42,23,42c-0.882,0-1.722,0.17-2.499,0.468
	c-0.026,0.004-0.057,0.008-0.072,0.013C18.199,43.16,8,46,8,46"/>
<path style="fill:none;stroke:#000000;stroke-width:2;stroke-linecap:round;stroke-linejoin:round;stroke-miterlimit:10;" d="
	M47.413,58.086c-1.152,1.885-3.509,2.284-5.499,1.326l-0.681-0.277"/>
<path style="fill:none;stroke:#000000;stroke-width:2;stroke-miterlimit:10;" d="M51,13c8.25,0,15,6.75,15,15s-6.75,15-15,15
	s-15-6.75-15-15S42.75,13,51,13z"/>
<path style="fill:none;stroke:#000000;stroke-width:2;stroke-miterlimit:10;" d="M51,13c4.2,0,7.5,6.75,7.5,15S55.2,43,51,43
	s-7.5-6.75-7.5-15S46.8,13,51,13z"/>
<line style="fill:none;stroke:#000000;stroke-width:2;stroke-miterlimit:10;" x1="51" y1="43" x2="51" y2="13"/>
<line style="fill:none;stroke:#000000;stroke-width:2;stroke-miterlimit:10;" x1="36" y1="28" x2="66" y2="28"/>
</svg>