<?xml version="1.0" encoding="iso-8859-1"?>
<!-- Generator: Adobe Illustrator 24.2.3, SVG Export Plug-In . SVG Version: 6.00 Build 0)  -->
<svg version="1.1" id="Layer_1" xmlns="http://www.w3.org/2000/svg" xmlns:xlink="http://www.w3.org/1999/xlink" x="0px" y="0px"
	 viewBox="0 0 48 48" style="enable-background:new 0 0 48 48;" xml:space="preserve">
<path style="fill:none;stroke:#000000;stroke-width:3;stroke-linecap:round;stroke-linejoin:round;stroke-miterlimit:10;" d="
	M27.5,42.5c4.694,0,10-3.5,11-8"/>
<g>
	<path d="M42.326,16c-2.344-5.341-6.958-9.469-12.615-11.159C31.479,7.606,32.719,11.61,33.396,16H42.326z"/>
	<path d="M14,24c0-1.666,0.082-3.345,0.237-5h-9.6C4.223,20.599,4,22.273,4,24s0.223,3.401,0.637,5h9.6
		C14.082,27.345,14,25.666,14,24z"/>
	<path d="M30.362,16C29.164,8.792,26.473,4,24,4s-5.164,4.792-6.362,12H30.362z"/>
	<path d="M14.604,16c0.677-4.39,1.917-8.394,3.685-11.159C12.632,6.531,8.018,10.659,5.674,16H14.604z"/>
	<path d="M5.674,32c2.344,5.341,6.958,9.469,12.615,11.159C16.521,40.394,15.281,36.39,14.604,32H5.674z"/>
</g>
<path d="M29.439,37.561C29.732,37.854,30.116,38,30.5,38c0.779,0,1.563-0.617,1.629-0.673c1.253-1.043,2.278-2.438,2.984-3.79
	C35.292,33.195,35.641,33,36.001,33c0.156,0,0.314,0.036,0.462,0.113c0.489,0.256,0.679,0.86,0.424,1.35
	c-0.62,1.188-2.571,4.449-5.776,5.863c0.018,0.012,0.036,0.023,0.054,0.035c0.113,0.076,0.198,0.136,0.263,0.184
	c0.082,0.044,0.146,0.077,0.239,0.127c0.821,0.44,2.612,1.303,2.779,1.178C34.892,41.946,35.404,42,36,42c4.411,0,8-3.813,8-8.5
	c0-6.726-4.957-10.107-5.168-10.248C38.583,23.086,38.293,23,38,23c-0.144,0-0.287,0.021-0.428,0.062
	c-0.427,0.127-0.775,0.437-0.951,0.847c-0.412,0.963-1.724,1.682-3.111,2.442C31.185,27.626,28,29.372,28,33.5
	C28,36.048,29.292,37.413,29.439,37.561z"/>
<g>
	<path d="M34.787,23.112c0.406-0.949,1.215-1.669,2.215-1.966c0.981-0.293,2.08-0.13,2.939,0.442
		c0.147,0.098,2.263,1.554,3.954,4.35C43.958,25.299,44,24.655,44,24c0-1.727-0.223-3.401-0.637-5h-9.6
		c0.147,1.576,0.224,3.174,0.231,4.761C34.379,23.516,34.695,23.28,34.787,23.112z"/>
	<path d="M30.961,25.51C30.976,25.009,31,24.515,31,24c0-1.744-0.095-3.41-0.252-5H17.252C17.095,20.59,17,22.256,17,24
		s0.095,3.41,0.252,5h9.991C28.226,27.422,29.645,26.324,30.961,25.51z"/>
	<path d="M24,42.5c0-1.93,1.57-3.5,3.5-3.5c0.174,0,0.351-0.007,0.528-0.022c-0.001-0.001-0.002-0.002-0.003-0.003
		C27.688,38.637,26,36.783,26,33.5c0-0.533,0.051-1.027,0.128-1.5h-8.49c1.198,7.208,3.89,12,6.362,12
		c0.109,0,0.22-0.021,0.33-0.039C24.123,43.515,24,43.023,24,42.5z"/>
</g>
</svg>