<?xml version="1.0" encoding="iso-8859-1"?>
<!-- Generator: Adobe Illustrator 25.0.0, SVG Export Plug-In . SVG Version: 6.00 Build 0)  -->
<svg version="1.1" id="Layer_1" xmlns="http://www.w3.org/2000/svg" xmlns:xlink="http://www.w3.org/1999/xlink" x="0px" y="0px"
	 viewBox="0 0 48 48" style="enable-background:new 0 0 48 48;" xml:space="preserve">
<path style="fill:none;stroke:#000000;stroke-width:3;stroke-linecap:round;stroke-linejoin:round;stroke-miterlimit:10;" d="
	M33.941,33.946l3.659-3.659c0.866-0.866,0.866-2.27,0-3.137l0,0c-0.866-0.866-2.27-0.866-3.137,0l-2.296,2.296
	c-3.029,3.029-4.627,2.582-6.374,4.329c-1.263,1.263-1.783,3.081-1.783,5.683c0,2.247-0.01,4.043-0.01,4.043"/>
<path style="fill:none;stroke:#000000;stroke-width:3;stroke-linecap:round;stroke-linejoin:round;stroke-miterlimit:10;" d="
	M34,43.5c0-0.826,0.252-2.568,2.518-4.468c1.613-1.353,3.221-2.633,5.264-4.677c1.478-1.478,1.304-4.192,2.217-14.694L44,19.717
	c0-1.225-0.993-2.218-2.218-2.218s-2.015,0.843-2.218,2.218s-1.333,9.176-1.333,9.176"/>
<path style="fill:none;stroke:#000000;stroke-width:3;stroke-linecap:round;stroke-linejoin:round;stroke-miterlimit:10;" d="
	M14.059,33.946l-3.659-3.66c-0.866-0.866-0.866-2.27,0-3.137l0,0c0.866-0.866,2.27-0.866,3.137,0l2.296,2.296
	c3.029,3.029,4.627,2.582,6.374,4.329c1.263,1.263,1.783,3.081,1.783,5.683C23.99,41.704,24,43.5,24,43.5"/>
<path style="fill:none;stroke:#000000;stroke-width:3;stroke-linecap:round;stroke-linejoin:round;stroke-miterlimit:10;" d="
	M14,43.5c0-0.826-0.252-2.568-2.518-4.468c-1.613-1.353-3.221-2.633-5.264-4.677c-1.478-1.478-1.304-4.192-2.217-14.694L4,19.718
	C4,18.493,4.993,17.5,6.218,17.5s2.015,0.843,2.218,2.218s1.333,9.176,1.333,9.176"/>
<circle style="fill:none;stroke:#000000;stroke-width:3;stroke-linecap:round;stroke-linejoin:round;stroke-miterlimit:10;" cx="24" cy="15" r="9.5"/>
<ellipse style="fill:none;stroke:#000000;stroke-width:3;stroke-linecap:round;stroke-linejoin:round;stroke-miterlimit:10;" cx="24" cy="15" rx="3.5" ry="9.5"/>
<line style="fill:none;stroke:#000000;stroke-width:3;stroke-linecap:round;stroke-linejoin:round;stroke-miterlimit:10;" x1="14.5" y1="15" x2="33" y2="15"/>
</svg>