<?xml version="1.0" encoding="iso-8859-1"?><!-- Generator: Adobe Illustrator 22.1.0, SVG Export Plug-In . SVG Version: 6.00 Build 0)  --><svg xmlns="http://www.w3.org/2000/svg" xmlns:xlink="http://www.w3.org/1999/xlink" viewBox="0 0 80 80" width="480px" height="480px"><g id="Layer_1"><path style="fill:none;stroke:#000000;stroke-width:2;stroke-miterlimit:10;" d="M50,12c11.046,0,20,8.954,20,20S50,70.182,50,70.182S30,43.046,30,32S38.954,12,50,12z"/><circle style="fill:none;stroke:#000000;stroke-width:2;stroke-miterlimit:10;" cx="50" cy="32" r="5"/><circle cx="50" cy="17" r="1"/><circle cx="35" cy="32" r="1"/><circle cx="65" cy="32" r="1"/><ellipse cx="57.501" cy="19.01" rx="1" ry="1"/><ellipse cx="37.011" cy="24.5" rx="1" ry="1"/><ellipse cx="62.991" cy="24.5" rx="1" ry="1"/><ellipse cx="42.5" cy="19.011" rx="1" ry="1"/><ellipse cx="53.883" cy="17.511" rx="1" ry="1"/><ellipse cx="35.513" cy="28.118" rx="1" ry="1"/><ellipse cx="64.49" cy="35.882" rx="1" ry="1"/><ellipse cx="60.608" cy="21.394" rx="1" ry="1"/><ellipse cx="39.394" cy="21.393" rx="1" ry="1"/><ellipse cx="64.49" cy="28.118" rx="1" ry="1"/><ellipse cx="35.513" cy="35.883" rx="1" ry="1"/><ellipse cx="46.119" cy="17.512" rx="1" ry="1"/><path style="fill:none;stroke:#000000;stroke-width:2;stroke-miterlimit:10;" d="M24,46L11,33l13-13"/></g><g id="Layer_2"></g><g id="Layer_3"></g></svg>