<?xml version="1.0" encoding="iso-8859-1"?>
<!-- Generator: Adobe Illustrator 25.4.1, SVG Export Plug-In . SVG Version: 6.00 Build 0)  -->
<svg version="1.1" baseProfile="basic" id="Layer_1"
	 xmlns="http://www.w3.org/2000/svg" xmlns:xlink="http://www.w3.org/1999/xlink" x="0px" y="0px" viewBox="0 0 100 100"
	 xml:space="preserve">
<path style="fill:none;stroke:#000000;stroke-width:4;stroke-linecap:round;stroke-linejoin:round;stroke-miterlimit:10;" d="M25,23
	c21.65,16.243,38.965,31.802,54,47c0,0-29,15-48-3C11.945,48.948,25,23,25,23z"/>
<line style="fill:none;stroke:#000000;stroke-width:4;stroke-linecap:round;stroke-linejoin:round;stroke-miterlimit:10;" x1="13" y1="88" x2="53" y2="88"/>
<polyline style="fill:none;stroke:#000000;stroke-width:4;stroke-linecap:round;stroke-linejoin:round;stroke-miterlimit:10;" points="
	20,87 32,69 44,88 "/>
<polyline style="fill:none;stroke:#000000;stroke-width:4;stroke-linecap:round;stroke-linejoin:round;stroke-miterlimit:10;" points="
	45,38.632 62.74,32.274 58.366,49.841 "/>
<path style="fill:none;stroke:#000000;stroke-width:4;stroke-linecap:round;stroke-linejoin:round;stroke-miterlimit:10;" d="
	M65.556,26C67.552,26.032,69,27.545,69,29.447c0,1.901-1.547,3.317-3.444,3.446c-2.155,0.145-3.443-1.545-3.443-3.446
	C62.113,27.545,63.656,25.971,65.556,26z"/>
<line style="fill:none;stroke:#000000;stroke-width:2;stroke-linecap:round;stroke-linejoin:round;stroke-miterlimit:10;" x1="73" y1="23" x2="78" y2="18"/>
<line style="fill:none;stroke:#000000;stroke-width:2;stroke-linecap:round;stroke-linejoin:round;stroke-miterlimit:10;" x1="83" y1="14" x2="88" y2="9"/>
<path style="fill:none;stroke:#000000;stroke-width:2;stroke-linecap:round;stroke-linejoin:round;stroke-miterlimit:10;" d="M32,29
	c0,0-1.424,2.498-3,8"/>
<line style="fill:none;stroke:#000000;stroke-width:2;stroke-linecap:round;stroke-linejoin:round;stroke-miterlimit:10;" x1="37" y1="33" x2="34" y2="37"/>
<line style="fill:none;stroke:#000000;stroke-width:2;stroke-linecap:round;stroke-linejoin:round;stroke-miterlimit:10;" x1="68" y1="60" x2="64" y2="63"/>
<line style="fill:none;stroke:#000000;stroke-width:2;stroke-linecap:round;stroke-linejoin:round;stroke-miterlimit:10;" x1="63" y1="68" x2="72" y2="64"/>
<line style="fill:none;stroke:#000000;stroke-width:2;stroke-linecap:round;stroke-linejoin:round;stroke-miterlimit:10;" x1="70" y1="69" x2="75" y2="67"/>
<line style="fill:none;stroke:#000000;stroke-width:2;stroke-linecap:round;stroke-linejoin:round;stroke-miterlimit:10;" x1="30" y1="65" x2="29" y2="57"/>
<line style="fill:none;stroke:#000000;stroke-width:2;stroke-linecap:round;stroke-linejoin:round;stroke-miterlimit:10;" x1="33" y1="67" x2="35" y2="61"/>
<line style="fill:none;stroke:#000000;stroke-width:2;stroke-linecap:round;stroke-linejoin:round;stroke-miterlimit:10;" x1="34" y1="69" x2="41" y2="67"/>
<line style="fill:none;stroke:#000000;stroke-width:2;stroke-linecap:round;stroke-linejoin:round;stroke-miterlimit:10;" x1="37" y1="71" x2="46" y2="70"/>
<line style="fill:none;stroke:#000000;stroke-width:2;stroke-linecap:round;stroke-linejoin:round;stroke-miterlimit:10;" x1="28" y1="76" x2="31" y2="79"/>
<line style="fill:none;stroke:#000000;stroke-width:2;stroke-linecap:round;stroke-linejoin:round;stroke-miterlimit:10;" x1="25" y1="88" x2="27" y2="85"/>
<line style="fill:none;stroke:#000000;stroke-width:2;stroke-linecap:round;stroke-linejoin:round;stroke-miterlimit:10;" x1="30" y1="88" x2="32" y2="83"/>
<line style="fill:none;stroke:#000000;stroke-width:2;stroke-linecap:round;stroke-linejoin:round;stroke-miterlimit:10;" x1="35" y1="87" x2="36" y2="85"/>
<line style="fill:none;stroke:#000000;stroke-width:2;stroke-linecap:round;stroke-linejoin:round;stroke-miterlimit:10;" x1="51" y1="76" x2="53" y2="71"/>
<line style="fill:none;stroke:#000000;stroke-width:2;stroke-linecap:round;stroke-linejoin:round;stroke-miterlimit:10;" x1="57" y1="75" x2="58" y2="70"/>
<path style="fill-rule:evenodd;clip-rule:evenodd;" d="M30.841,46.354c-0.299,0.464-0.918,0.599-1.382,0.3
	c-0.464-0.299-0.598-0.918-0.3-1.382c0.299-0.464,0.918-0.599,1.382-0.3C31.005,45.271,31.14,45.89,30.841,46.354"/>
<path style="fill-rule:evenodd;clip-rule:evenodd;" d="M56.841,56.541c-0.299,0.464-0.918,0.599-1.382,0.3
	c-0.464-0.299-0.598-0.918-0.3-1.382c0.299-0.464,0.918-0.599,1.382-0.3C57.005,55.458,57.14,56.077,56.841,56.541"/>
<path style="fill-rule:evenodd;clip-rule:evenodd;" d="M34.841,80.541c-0.299,0.464-0.918,0.599-1.382,0.3
	c-0.464-0.299-0.598-0.918-0.3-1.382c0.299-0.464,0.918-0.599,1.382-0.3C35.005,79.458,35.14,80.077,34.841,80.541"/>
</svg>