<?xml version="1.0" encoding="iso-8859-1"?><!-- Generator: Adobe Illustrator 21.1.0, SVG Export Plug-In . SVG Version: 6.00 Build 0)  --><svg xmlns="http://www.w3.org/2000/svg" xmlns:xlink="http://www.w3.org/1999/xlink" viewBox="0 0 50 50" width="500px" height="500px"><polyline style="fill:none;stroke:#000000;stroke-width:2;stroke-linecap:round;stroke-linejoin:round;stroke-miterlimit:10;" points="47,18 47,46 2,46 2,15 31,15 "/><line style="fill:none;stroke:#000000;stroke-width:2;stroke-linejoin:round;stroke-miterlimit:10;" x1="32" y1="30" x2="47" y2="42"/><line style="fill:none;stroke:#000000;stroke-width:2;stroke-linejoin:round;stroke-miterlimit:10;" x1="2" y1="42" x2="17" y2="30"/><path style="fill:none;stroke:#000000;stroke-width:1.9959;stroke-linejoin:round;stroke-miterlimit:10;" d="M2,20c0,0,17.329,11.003,18.741,11.899C22.153,32.794,23.623,33,24.5,33s2.347-0.205,3.759-1.101c0.705-0.447,5.379-3.415,9.883-6.274"/><path style="fill:none;stroke:#000000;stroke-width:2;stroke-linecap:round;stroke-linejoin:round;stroke-miterlimit:10;" d="M40,2c-4.971,0-9,4.031-9,9c0,5.927,9,17,9,17s9-10.878,9-17C49,6.031,44.972,2,40,2z"/><circle style="fill:none;stroke:#000000;stroke-width:2;stroke-linecap:round;stroke-linejoin:round;stroke-miterlimit:10;" cx="40" cy="11" r="3"/></svg>