<?xml version="1.0" encoding="iso-8859-1"?><!-- Generator: Adobe Illustrator 21.1.0, SVG Export Plug-In . SVG Version: 6.00 Build 0)  --><svg xmlns="http://www.w3.org/2000/svg" xmlns:xlink="http://www.w3.org/1999/xlink" viewBox="0 0 80 80" width="480px" height="480px"><path style="fill:none;stroke:#000000;stroke-width:2;stroke-linecap:round;stroke-miterlimit:10;" d="M70,45c0,8.556-14,26-14,26S42,54.333,42,45"/><circle style="fill:none;stroke:#000000;stroke-width:2;stroke-miterlimit:10;" cx="56" cy="45" r="4"/><circle cx="56" cy="31" r="1"/><ellipse transform="matrix(0.866 -0.5 0.5 0.866 -9.8731 39.1532)" cx="68.124" cy="38" rx="1" ry="1"/><ellipse transform="matrix(0.866 -0.5 0.5 0.866 -9.8731 28.9045)" cx="49" cy="32.876" rx="1" ry="1"/><ellipse transform="matrix(0.5 -0.866 0.866 0.5 3.0289 70.9974)" cx="63" cy="32.876" rx="1" ry="1"/><ellipse transform="matrix(0.5 -0.866 0.866 0.5 -10.9711 56.9974)" cx="43.876" cy="38" rx="1" ry="1"/><ellipse transform="matrix(0.9659 -0.2588 0.2588 0.9659 -8.3401 19.4037)" cx="69.523" cy="41.377" rx="1" ry="1"/><ellipse transform="matrix(0.9659 -0.2588 0.2588 0.9659 -6.3622 14.6286)" cx="52.377" cy="31.477" rx="1" ry="1"/><ellipse transform="matrix(0.7071 -0.7071 0.7071 0.7071 -5.5183 56.8787)" cx="65.899" cy="35.101" rx="1" ry="1"/><ellipse transform="matrix(0.7071 -0.7071 0.7071 0.7071 -11.3173 42.8787)" cx="46.101" cy="35.101" rx="1" ry="1"/><ellipse transform="matrix(0.2588 -0.9659 0.9659 0.2588 13.7873 80.922)" cx="59.623" cy="31.477" rx="1" ry="1"/><ellipse transform="matrix(0.2588 -0.9659 0.9659 0.2588 -8.4835 71.6972)" cx="42.477" cy="41.377" rx="1" ry="1"/><path style="fill:none;stroke:#000000;stroke-width:2;stroke-linecap:round;stroke-miterlimit:10;" d="M38,24c0,8.556-14,26-14,26S10,33.333,10,24"/><circle style="fill:none;stroke:#000000;stroke-width:2;stroke-miterlimit:10;" cx="24" cy="24" r="4"/><circle cx="24" cy="10" r="1"/><ellipse transform="matrix(0.866 -0.5 0.5 0.866 -3.6603 20.3397)" cx="36.124" cy="17" rx="1" ry="1"/><ellipse transform="matrix(0.866 -0.5 0.5 0.866 -3.6603 10.091)" cx="17" cy="11.876" rx="1" ry="1"/><ellipse transform="matrix(0.5 -0.866 0.866 0.5 5.2154 32.7846)" cx="31" cy="11.876" rx="1" ry="1"/><ellipse transform="matrix(0.5 -0.866 0.866 0.5 -8.7846 18.7846)" cx="11.876" cy="17" rx="1" ry="1"/><ellipse transform="matrix(0.9659 -0.2588 0.2588 0.9659 -3.9953 10.406)" cx="37.523" cy="20.377" rx="1" ry="1"/><ellipse transform="matrix(0.9659 -0.2588 0.2588 0.9659 -2.0173 5.6308)" cx="20.377" cy="10.477" rx="1" ry="1"/><ellipse transform="matrix(0.7071 -0.7071 0.7071 0.7071 -0.0416 28.1005)" cx="33.899" cy="14.101" rx="1" ry="1"/><ellipse transform="matrix(0.7071 -0.7071 0.7071 0.7071 -5.8406 14.1005)" cx="14.101" cy="14.101" rx="1" ry="1"/><ellipse transform="matrix(0.2588 -0.9659 0.9659 0.2588 10.3539 34.4476)" cx="27.623" cy="10.477" rx="1" ry="1"/><ellipse transform="matrix(0.2588 -0.9659 0.9659 0.2588 -11.9168 25.2227)" cx="10.477" cy="20.377" rx="1" ry="1"/></svg>