<?xml version="1.0" encoding="iso-8859-1"?>
<!-- Generator: Adobe Illustrator 24.2.1, SVG Export Plug-In . SVG Version: 6.00 Build 0)  -->
<svg version="1.1" id="Layer_1" xmlns="http://www.w3.org/2000/svg" xmlns:xlink="http://www.w3.org/1999/xlink" x="0px" y="0px"
	 viewBox="0 0 48 48" style="enable-background:new 0 0 48 48;" xml:space="preserve">
<path style="fill:none;stroke:#000000;stroke-width:3;stroke-linecap:round;stroke-linejoin:round;stroke-miterlimit:10;" d="
	M31.5,13c0,3.219-4.53,9.416-6.549,12.018c-0.483,0.622-1.42,0.622-1.903,0C21.03,22.416,16.5,16.219,16.5,13
	c0-4.142,3.358-7.5,7.5-7.5S31.5,8.858,31.5,13z"/>
<circle cx="24" cy="13" r="2.143"/>
<circle cx="16.5" cy="31.5" r="2.5"/>
<path style="fill:none;stroke:#000000;stroke-width:3;stroke-linejoin:round;stroke-miterlimit:10;" d="M36,10.5h3.5
	c1.105,0,2,0.895,2,2v8l-3,2l3,6l-1,4v5l-8,3l-8-4l-3,3h-9l-3-3l-1-5l1-3l-3-6l1.652-7.434c0.203-0.915,1.015-1.566,1.952-1.566H12"
	/>
</svg>