<?xml version="1.0" encoding="iso-8859-1"?>
<!-- Generator: Adobe Illustrator 28.2.0, SVG Export Plug-In . SVG Version: 6.00 Build 0)  -->
<svg version="1.1" baseProfile="basic" xmlns="http://www.w3.org/2000/svg" xmlns:xlink="http://www.w3.org/1999/xlink" x="0px"
	 y="0px" viewBox="0 0 24 24" xml:space="preserve">
<g id="&#x421;&#x43B;&#x43E;&#x439;_1">
	<path d="M12,5.177l7.134,14.265l-6.586-1.878c-0.179-0.051-0.364-0.077-0.548-0.077c-0.185,0-0.37,0.026-0.549,0.077l-6.575,1.877
		L12,5.177 M12,2c-0.379,0-0.757,0.199-0.947,0.598l-8.941,17.9C1.769,21.22,2.321,22,3.052,22c0.1,0,0.204-0.015,0.309-0.046
		L12,19.487l8.65,2.467C20.755,21.985,20.859,22,20.959,22c0.731,0,1.283-0.78,0.939-1.502l-8.952-17.9C12.757,2.199,12.379,2,12,2
		L12,2z"/>
</g>
<g id="&#x421;&#x43B;&#x43E;&#x439;_2">
</g>
</svg>