<?xml version="1.0" encoding="iso-8859-1"?><!-- Generator: Adobe Illustrator 21.1.0, SVG Export Plug-In . SVG Version: 6.00 Build 0)  --><svg xmlns="http://www.w3.org/2000/svg" xmlns:xlink="http://www.w3.org/1999/xlink" viewBox="0 0 64 64" width="512px" height="512px"><g><path d="M31,2C15.009,2,2,15.01,2,31s13.009,29,29,29s29-13.01,29-29S46.991,2,31,2z M57.558,26.164c-0.664-0.133-1.448-0.68-1.601-0.839c0-0.001-0.053-0.114,0.031-0.497c0.14-0.638,0.422-1.253,0.812-1.792C57.115,24.053,57.364,25.099,57.558,26.164z M24.409,4.817c-0.046,0.181-0.044,0.375,0.016,0.559c0.033,0.1,0.081,0.192,0.141,0.275c-0.299,0.155-0.537,0.279-0.635,0.327c-0.416,0.206-0.527,0.563-0.656,0.978c-0.015,0.05-0.036,0.116-0.059,0.187c-1.143-0.07-2.313-0.346-3.462-0.68C21.24,5.78,22.794,5.224,24.409,4.817z M17.366,7.71c0.104,0.098,0.226,0.178,0.371,0.225c1.917,0.62,3.962,1.225,6.036,1.226c0.894,0,1.19-0.896,1.4-1.57c0.803-0.416,2.525-1.324,2.525-1.324c0.378-0.2,0.588-0.619,0.521-1.042c-0.067-0.423-0.396-0.756-0.819-0.828h-0.001l0.135-0.141c0.008-0.008,0.01-0.019,0.017-0.027C28.682,4.083,29.831,4,31,4c6.864,0,13.133,2.579,17.902,6.812c-1.377,0.492-2.831,1.296-3.618,2.408c-0.098,0.138-0.201,0.299-0.31,0.471c-0.247,0.389-0.761,1.195-1.028,1.13c-1.131-0.278-1.679-2.597-1.886-3.47c-0.077-0.323-0.141-0.561-0.188-0.672c-1.27-3.062-4.089-4.024-5.293-4.436l-0.254-0.089c-0.42-0.153-0.892-0.01-1.154,0.354s-0.251,0.855,0.026,1.207c0.149,0.188,0.213,0.354,0.232,0.322c-0.066,0.042-0.354,0.217-1.111,0.179c-0.112-1.035-0.57-1.833-1.317-2.256c-0.893-0.504-2.026-0.367-3.031,0.366c-0.735,0.537-1.47,1.098-2.212,1.664c-0.743,0.566-1.495,1.14-2.264,1.702c-1.299,0.953-1.787,2.19-1.272,3.227c0.298,0.604,0.837,0.913,1.194,1.118L30.41,16.9c0.422,0.243,0.958,0.146,1.269-0.23c0.88-1.067,1.336-2.456,1.264-3.836c0.021,0.022,0.05,0.058,0.083,0.11c0.933,1.502,2.619,0.694,3.429,0.309c0.156-0.075,0.375-0.18,0.485-0.229c0.376,0.318,0.957,1.584,1.03,1.96c0.005,0.097-0.082,0.33-0.338,0.577c-0.277,0.266-0.605,0.392-0.763,0.38c-0.981-0.093-1.783,0.341-2.05,1.083c-0.223,0.621,0.012,1.304,0.587,1.7c0.144,0.099,0.42,0.218,0.773,0.328c-0.342,0.094-0.571,0.199-0.724,0.362c-0.24,0.147-0.467,0.28-0.682,0.407c-1.079,0.636-2.011,1.185-3.036,2.438c-0.901,1.1-1.534,2.31-1.866,3.538c-1.067-0.575-2.382-0.714-3.497-0.527c-1.046,0.175-2.796,0.466-3.303,2.533c-0.244,0.992,0.009,2.021,0.676,2.751c0.623,0.682,1.512,0.994,2.446,0.851c0.097-0.015,0.238-0.044,0.402-0.078c0.001-0.001,0.003-0.001,0.004-0.001c-0.078,0.295-0.09,0.64,0.074,1.009c0.349,0.786,1.12,0.896,1.534,0.955c0.025,0.004,0.055,0.008,0.083,0.012c0.004,0.026,0.007,0.054,0.01,0.082c-0.179-0.05-0.357-0.099-0.535-0.148c-1.151-0.317-2.239-0.617-3.337-1.139c-0.982-0.467-2.163-1.758-3.025-2.701l-0.278-0.303c-1.02-1.105-2.218-3.513-2.23-3.537c-0.168-0.34-0.515-0.555-0.894-0.556C18.001,25,18,25,18,25c-0.379,0-0.725,0.214-0.895,0.553l-0.208,0.415c-1.047-1.724-2.671-4.622-3.211-6.822l-0.07-0.288c-0.49-2.015-1.097-4.429-2.858-5.698C12.654,11.012,14.883,9.169,17.366,7.71z M33.748,48.021c-0.352,3.155-0.847,6.333-1.471,9.443c-0.024,0.121-0.057,0.298-0.056,0.504C31.816,57.987,31.409,58,31,58C16.112,58,4,45.888,4,31c0-6.116,2.047-11.761,5.488-16.293c1.252,0.82,1.747,2.825,2.185,4.624l0.071,0.292c0.899,3.667,4.282,8.723,4.426,8.937c0.198,0.294,0.523,0.451,0.894,0.439c0.355-0.023,0.671-0.232,0.83-0.551l0.146-0.291c0.465,0.785,1.048,1.677,1.616,2.292l0.272,0.297c1.028,1.124,2.307,2.523,3.644,3.158c1.256,0.596,2.479,0.934,3.662,1.261c0.586,0.161,1.157,0.318,1.72,0.503l1.647,0.65c0.06,0.028,0.15,0.072,0.212,0.109c-0.055,0.181-0.264,0.511-0.383,0.699l-0.133,0.213c-1.05,1.709-0.949,4.028,0.244,5.639c0.469,0.634,1.054,1.121,1.619,1.592c0.733,0.61,1.366,1.138,1.572,1.826C33.864,46.841,33.819,47.372,33.748,48.021z M34.337,57.356c0.588-3.007,1.058-6.07,1.398-9.114c0.072-0.654,0.171-1.549-0.087-2.418c-0.378-1.268-1.351-2.078-2.209-2.792c-0.496-0.413-0.965-0.804-1.291-1.244C31.439,40.831,31.377,39.4,32,38.386l0.12-0.19c0.371-0.587,0.967-1.529,0.588-2.495c0.15-0.061,0.281-0.105,0.375-0.128c2.434-0.563,5.112-0.254,7.349,0.852c0.924,0.457,1.776,1.324,1.54,1.928c-0.104,0.266-0.09,0.562,0.04,0.817c0.129,0.254,0.361,0.441,0.637,0.514l5.351,1.408c0.111,0.029,0.341,0.09,0.369,0.091c0.013,0.044,0,0.201-0.091,0.365c-0.096,0.173-0.243,0.356-0.398,0.55c-0.181,0.224-0.36,0.45-0.51,0.696c-0.34,0.556-0.512,1.154-0.663,1.683c-0.08,0.279-0.159,0.56-0.267,0.827c-0.391,0.967-1.238,1.809-1.984,2.552c-2.828,2.809-5.717,5.618-8.589,8.351C35.346,56.698,34.866,57.13,34.337,57.356z M37.78,57.137c2.705-2.581,5.421-5.22,8.082-7.865c0.839-0.835,1.884-1.874,2.429-3.22c0.135-0.333,0.236-0.68,0.335-1.026c0.128-0.445,0.248-0.865,0.446-1.189c0.105-0.172,0.235-0.328,0.362-0.485c0.193-0.24,0.413-0.513,0.592-0.837c0.424-0.767,0.54-1.883-0.159-2.644c-0.426-0.467-0.987-0.615-1.36-0.714l-4.495-1.183c-0.083-1.415-1.326-2.667-2.695-3.344c-2.685-1.326-5.77-1.683-8.687-1.007c-0.484,0.112-1.191,0.437-1.658,0.666c-0.212-0.091-0.424-0.176-0.635-0.256c0.005-1.78-0.495-2.162-0.698-2.317c-0.281-0.214-0.585-0.307-0.854-0.358c0.159-0.322,0.305-0.758,0.167-1.261c-0.344-1.243-1.865-0.92-2.774-0.728c-0.118,0.025-0.218,0.048-0.286,0.059c-0.272,0.036-0.497-0.034-0.669-0.224c-0.213-0.232-0.293-0.587-0.21-0.925c0.152-0.62,0.379-0.818,1.689-1.037c1.121-0.187,2.549,0.14,2.996,1.108c0.199,0.432,0.677,0.66,1.137,0.555c0.462-0.108,0.785-0.528,0.771-1.003c-0.042-1.45,0.553-3.004,1.678-4.376c0.8-0.979,1.478-1.377,2.504-1.981c0.295-0.174,0.609-0.359,0.951-0.572c0.004-0.003,0.009-0.006,0.013-0.009c0.208-0.05,0.583-0.123,0.898-0.186c0.839-0.164,1.791-0.352,2.415-0.575c0.354-0.126,1.213-0.503,1.556-1.264c0.176-0.391,0.186-0.823,0.028-1.218c-0.2-0.501-0.625-0.843-1.167-0.938c-0.625-0.116-1.367,0.134-1.873,0.602c-0.022,0.004-0.046,0.006-0.072,0.009c0.168-0.114,0.33-0.245,0.481-0.391c0.638-0.613,0.985-1.384,0.951-2.113C39.946,14.421,38.929,11,37,11c-0.471,0-0.926,0.218-1.409,0.448c-0.249,0.12-0.688,0.329-0.914,0.367c-0.671-1.014-1.647-1.132-2.348-0.902c-0.86,0.284-1.458,1.109-1.391,1.919c0.053,0.63-0.076,1.286-0.354,1.863l-4.171-2.392c-0.105-0.061-0.352-0.202-0.391-0.24c0.006-0.101,0.205-0.426,0.656-0.756c0.779-0.57,1.542-1.151,2.295-1.727c0.732-0.558,1.456-1.11,2.18-1.639c0.341-0.25,0.682-0.344,0.866-0.241c0.207,0.117,0.384,0.582,0.314,1.357c-0.049,0.539,0.34,1.019,0.877,1.083c2.078,0.248,3.413-0.126,3.965-1.113c0.061-0.108,0.109-0.221,0.146-0.337c0.988,0.487,2.102,1.298,2.697,2.732c0.026,0.079,0.056,0.215,0.097,0.388c0.31,1.312,1.037,4.383,3.355,4.952c1.658,0.403,2.658-1.157,3.192-1.999c0.09-0.142,0.174-0.275,0.255-0.39c0.554-0.783,2.047-1.586,3.612-1.963c0.027,0.027,0.061,0.045,0.091,0.069c2.295,2.431,4.144,5.284,5.417,8.432c-0.115,0.083-0.204,0.168-0.252,0.218c-0.875,0.907-1.481,2.037-1.751,3.268c-0.068,0.309-0.274,1.247,0.261,2.041c0.319,0.472,1.775,1.567,3.204,1.723c-0.869,0.987-2.826,3.268-3.571,4.622c-0.397,0.842-0.421,4.264,0.207,5.255c0.486,0.769,1.254,1.509,1.812,1.994c0.125,0.109,0.272,0.167,0.423,0.204C53.351,48.508,46.394,54.901,37.78,57.137z M55.842,36.996c-0.237-0.508-0.265-2.863-0.132-3.303c0.408-0.74,1.393-1.978,2.282-3.036C57.993,30.772,58,30.885,58,31c0,2.523-0.355,4.963-1.006,7.281C56.478,37.806,56.067,37.351,55.842,36.996z"/><path d="M16.857,43.728l-1.414,1.415c-0.39,0.391-0.39,1.024,0,1.414c0.195,0.195,0.451,0.293,0.707,0.293s0.512-0.098,0.708-0.293l1.414-1.415c0.39-0.391,0.39-1.024,0-1.414C17.881,43.337,17.248,43.337,16.857,43.728z"/><path d="M22.104,46.668c-0.478-0.276-1.089-0.113-1.366,0.366l-1,1.731c-0.276,0.479-0.113,1.09,0.366,1.366c0.157,0.091,0.33,0.134,0.499,0.134c0.346,0,0.682-0.179,0.867-0.5l1-1.731C22.746,47.556,22.582,46.944,22.104,46.668z"/><path d="M13.484,35.435c-0.143-0.534-0.688-0.853-1.225-0.707l-1.932,0.518c-0.533,0.143-0.85,0.691-0.707,1.225c0.12,0.447,0.523,0.741,0.965,0.741c0.085,0,0.172-0.011,0.259-0.034l1.932-0.518C13.31,36.517,13.627,35.968,13.484,35.435z"/><path d="M26.565,48.517c-0.534-0.145-1.082,0.173-1.225,0.707l-0.518,1.932c-0.143,0.533,0.173,1.082,0.707,1.225c0.087,0.023,0.174,0.034,0.259,0.034c0.441,0,0.846-0.294,0.965-0.741l0.518-1.932C27.416,49.208,27.099,48.659,26.565,48.517z"/><path d="M15.332,39.896c-0.277-0.479-0.889-0.644-1.366-0.366l-1.732,1c-0.479,0.276-0.642,0.888-0.366,1.366c0.186,0.321,0.521,0.5,0.867,0.5c0.169,0,0.342-0.043,0.499-0.134l1.732-1C15.444,40.986,15.608,40.375,15.332,39.896z"/></g></svg>