<?xml version="1.0" encoding="iso-8859-1"?>
<!-- Generator: Adobe Illustrator 25.4.1, SVG Export Plug-In . SVG Version: 6.00 Build 0)  -->
<svg version="1.1" baseProfile="basic" id="Layer_1"
	 xmlns="http://www.w3.org/2000/svg" xmlns:xlink="http://www.w3.org/1999/xlink" x="0px" y="0px" viewBox="0 0 100 100"
	 xml:space="preserve">
<path style="fill:none;stroke:#000000;stroke-width:4;stroke-linecap:round;stroke-linejoin:round;stroke-miterlimit:10;" d="
	M81.967,61.514c1.738-4.219,2.785-8.805,3.032-13.514c1.015-19.29-15.707-34.035-35-35c-20-1-33.985,15.71-35,35
	c-1,19,15.707,34.035,35,35c3.869,0.194,7.513-0.286,10.882-1.324"/>
<path style="fill:none;stroke:#000000;stroke-width:2.2835;stroke-linecap:round;stroke-linejoin:round;stroke-miterlimit:10;" d="
	M14.88,50.189c3.203-1.595,66.249-3.749,70.665-2.123"/>
<path style="fill:none;stroke:#000000;stroke-width:2.2835;stroke-linecap:round;stroke-linejoin:round;stroke-miterlimit:10;" d="
	M37.06,14.451c-0.587,1.071-22.184,35.792,2.428,66.694"/>
<path style="fill:none;stroke:#000000;stroke-width:2.2835;stroke-linecap:round;stroke-linejoin:round;stroke-miterlimit:10;" d="
	M64.746,17.867c0,0,11.691,18.288,7.348,41.548"/>
<path style="fill:none;stroke:#000000;stroke-width:2.2835;stroke-linecap:round;stroke-linejoin:round;stroke-miterlimit:10;" d="
	M47.743,12.172c4.474,9.218,6.599,50.639-0.247,70.87"/>
<path style="fill:none;stroke:#000000;stroke-width:2.2835;stroke-linecap:round;stroke-linejoin:round;stroke-miterlimit:10;" d="
	M18.163,32.274c19.613-3.441,40.089-4.199,61.624-1.664"/>
<path style="fill:none;stroke:#000000;stroke-width:2.2835;stroke-linecap:round;stroke-linejoin:round;stroke-miterlimit:10;" d="
	M19.163,64.645c11.532,2.022,25.23,2.65,38.118,1.974"/>
<path style="fill-rule:evenodd;clip-rule:evenodd;" d="M67.683,34.848c-0.299,0.464-0.918,0.598-1.382,0.3
	c-0.464-0.299-0.598-0.918-0.3-1.382c0.299-0.464,0.918-0.599,1.382-0.3S67.982,34.384,67.683,34.848"/>
<path style="fill-rule:evenodd;clip-rule:evenodd;" d="M36.751,58.957c-0.299,0.464-0.918,0.598-1.382,0.3
	c-0.464-0.299-0.599-0.918-0.3-1.382s0.918-0.599,1.382-0.3C36.915,57.874,37.05,58.493,36.751,58.957"/>
<path style="fill-rule:evenodd;clip-rule:evenodd;" d="M35.163,52.104c-0.299,0.464-0.918,0.599-1.382,0.3
	c-0.464-0.299-0.598-0.918-0.3-1.382c0.299-0.464,0.918-0.599,1.382-0.3C35.327,51.021,35.462,51.64,35.163,52.104"/>
<line style="fill:none;stroke:#000000;stroke-width:2;stroke-linecap:round;stroke-linejoin:round;stroke-miterlimit:10;" x1="76.65" y1="38.135" x2="83.36" y2="33.982"/>
<line style="fill:none;stroke:#000000;stroke-width:2;stroke-linecap:round;stroke-linejoin:round;stroke-miterlimit:10;" x1="78.75" y1="41.603" x2="83.452" y2="39.344"/>
<line style="fill:none;stroke:#000000;stroke-width:2;stroke-linecap:round;stroke-linejoin:round;stroke-miterlimit:10;" x1="16.743" y1="57.624" x2="21.023" y2="54.335"/>
<line style="fill:none;stroke:#000000;stroke-width:2;stroke-linecap:round;stroke-linejoin:round;stroke-miterlimit:10;" x1="18.494" y1="63.305" x2="23.326" y2="57.684"/>
<line style="fill:none;stroke:#000000;stroke-width:2;stroke-linecap:round;stroke-linejoin:round;stroke-miterlimit:10;" x1="25.612" y1="71.033" x2="27.256" y2="69.067"/>
<line style="fill:none;stroke:#000000;stroke-width:2;stroke-linecap:round;stroke-linejoin:round;stroke-miterlimit:10;" x1="27.177" y1="75.558" x2="30.302" y2="71.033"/>
<line style="fill:none;stroke:#000000;stroke-width:2;stroke-linecap:round;stroke-linejoin:round;stroke-miterlimit:10;" x1="16.743" y1="41.504" x2="23.545" y2="43.341"/>
<line style="fill:none;stroke:#000000;stroke-width:2;stroke-linecap:round;stroke-linejoin:round;stroke-miterlimit:10;" x1="18.17" y1="35.709" x2="23.326" y2="37.824"/>
<line style="fill:none;stroke:#000000;stroke-width:2;stroke-linecap:round;stroke-linejoin:round;stroke-miterlimit:10;" x1="22.371" y1="24.866" x2="26.357" y2="27.346"/>
<line style="fill:none;stroke:#000000;stroke-width:2;stroke-linecap:round;stroke-linejoin:round;stroke-miterlimit:10;" x1="26.357" y1="21.526" x2="28.524" y2="23.677"/>
<line style="fill:none;stroke:#000000;stroke-width:2;stroke-linecap:round;stroke-linejoin:round;stroke-miterlimit:10;" x1="53.967" y1="21.921" x2="52.07" y2="14.217"/>
<line style="fill:none;stroke:#000000;stroke-width:2;stroke-linecap:round;stroke-linejoin:round;stroke-miterlimit:10;" x1="57.281" y1="19.76" x2="56.802" y2="12.987"/>
<path style="fill:none;stroke:#000000;stroke-width:4;stroke-linecap:round;stroke-linejoin:round;stroke-miterlimit:10;" d="
	M69.107,79.799c-4.547,2.728-15.838,2.797-13.641-8.185c1.818-9.094,10.015-9.445,14.55-11.822c4.535-2.378,8.185-5.457,8.185-5.457
	s4.307,6.316,6.366,14.551c1.818,7.275,1.818,14.55-6.366,17.278C71.017,88.559,68.178,81.79,69.107,79.799z"/>
<path style="fill:none;stroke:#000000;stroke-width:4;stroke-linecap:round;stroke-linejoin:round;stroke-miterlimit:10;" d="
	M61.831,88.893c0,0,7.354-5.946,10.913-20.007"/>
</svg>