<?xml version="1.0" encoding="iso-8859-1"?>
<!-- Generator: Adobe Illustrator 22.1.0, SVG Export Plug-In . SVG Version: 6.00 Build 0)  -->
<svg version="1.1" id="Layer_1_1_" xmlns="http://www.w3.org/2000/svg" xmlns:xlink="http://www.w3.org/1999/xlink" x="0px" y="0px"
	 viewBox="0 0 48 48" style="enable-background:new 0 0 48 48;" xml:space="preserve">
<circle cx="24" cy="21" r="4"/>
<path d="M36.594,8.14c-3.485-3.414-8.101-5.197-12.977-5.136c-5.07,0.105-9.705,2.327-13.052,6.257
	c-3.53,4.144-5.118,9.644-4.357,15.089c0.583,4.176,2.496,6.875,6.05,10.687c1.152,1.236,5.201,5.341,8.394,8.566
	C21.544,44.504,22.733,45,24,45s2.456-0.496,3.348-1.397c3.193-3.226,7.242-7.33,8.394-8.565C40.36,30.085,42,27.22,42,21
	C42,16.121,40.08,11.554,36.594,8.14z M33.5,22.5h-2.666c-0.18,0.819-0.505,1.583-0.944,2.268l1.889,1.889
	c0.585,0.586,0.585,1.536,0,2.121c-0.293,0.293-0.677,0.439-1.061,0.439s-0.768-0.146-1.061-0.439l-1.888-1.889
	c-0.685,0.44-1.449,0.765-2.268,0.944V30.5c0,0.828-0.671,1.5-1.5,1.5s-1.5-0.672-1.5-1.5v-2.666
	c-0.819-0.18-1.583-0.505-2.268-0.944l-1.888,1.889c-0.293,0.293-0.677,0.439-1.061,0.439s-0.768-0.146-1.061-0.439
	c-0.586-0.585-0.586-1.535,0-2.121l1.889-1.889c-0.44-0.685-0.765-1.449-0.944-2.268H14.5c-0.829,0-1.5-0.672-1.5-1.5
	s0.671-1.5,1.5-1.5h2.666c0.18-0.819,0.505-1.583,0.944-2.268l-1.889-1.889c-0.585-0.586-0.585-1.536,0-2.121
	c0.586-0.586,1.536-0.586,2.122,0l1.888,1.889c0.685-0.44,1.449-0.765,2.268-0.944V11.5c0-0.828,0.671-1.5,1.5-1.5
	s1.5,0.672,1.5,1.5v2.666c0.819,0.18,1.583,0.505,2.268,0.944l1.888-1.889c0.586-0.586,1.536-0.586,2.122,0
	c0.586,0.585,0.586,1.535,0,2.121l-1.889,1.889c0.44,0.685,0.765,1.449,0.944,2.268H33.5c0.829,0,1.5,0.672,1.5,1.5
	S34.329,22.5,33.5,22.5z"/>
</svg>