<?xml version="1.0" encoding="iso-8859-1"?><!-- Generator: Adobe Illustrator 21.1.0, SVG Export Plug-In . SVG Version: 6.00 Build 0)  --><svg xmlns="http://www.w3.org/2000/svg" xmlns:xlink="http://www.w3.org/1999/xlink" viewBox="0 0 80 80" width="480px" height="480px"><g><g><path style="fill:none;stroke:#000000;stroke-width:2;stroke-linecap:round;stroke-linejoin:round;stroke-miterlimit:10;" d="M65.744,67.039l0.005-0.005L40,11L14.251,67.034l0.005,0.005C14.098,67.326,14,67.65,14,68c0,1.105,0.895,2,2,2c0.255,0,0.497-0.052,0.722-0.14l0.002,0.002l0.018-0.008c0.039-0.016,0.075-0.035,0.113-0.053L40,59l23.146,10.802c0.038,0.018,0.074,0.037,0.113,0.053l0.018,0.008l0.002-0.002C63.503,69.948,63.745,70,64,70c1.105,0,2-0.895,2-2C66,67.65,65.902,67.326,65.744,67.039z"/></g></g><g><circle cx="40" cy="49" r="1"/><circle cx="43" cy="46" r="1"/><circle cx="46" cy="43" r="1"/><circle cx="40" cy="43" r="1"/><circle cx="40" cy="37" r="1"/><circle cx="46" cy="37" r="1"/><circle cx="43" cy="40" r="1"/><circle cx="49" cy="40" r="1"/><circle cx="49" cy="46" r="1"/><circle cx="40" cy="55" r="1"/><circle cx="43" cy="52" r="1"/><circle cx="46" cy="55" r="1"/><circle cx="46" cy="49" r="1"/><circle cx="49" cy="52" r="1"/><circle cx="40" cy="31" r="1"/><circle cx="43" cy="28" r="1"/><circle cx="46" cy="25" r="1"/><circle cx="40" cy="25" r="1"/><circle cx="40" cy="19" r="1"/><circle cx="43" cy="22" r="1"/><circle cx="43" cy="34" r="1"/><circle cx="46" cy="31" r="1"/><circle cx="49" cy="34" r="1"/><circle cx="52" cy="49" r="1"/><circle cx="55" cy="46" r="1"/><circle cx="52" cy="43" r="1"/><circle cx="52" cy="55" r="1"/><circle cx="55" cy="52" r="1"/><circle cx="58" cy="55" r="1"/><circle cx="46" cy="61" r="1"/><circle cx="43" cy="58" r="1"/><circle cx="49" cy="58" r="1"/><circle cx="55" cy="64" r="1"/><circle cx="58" cy="61" r="1"/><circle cx="52" cy="61" r="1"/><circle cx="55" cy="58" r="1"/><circle cx="61" cy="58" r="1"/><circle cx="61" cy="64" r="1"/><circle cx="58" cy="67" r="1"/><circle cx="64" cy="67" r="1"/></g></svg>