<?xml version="1.0" encoding="iso-8859-1"?>
<!-- Generator: Adobe Illustrator 26.0.3, SVG Export Plug-In . SVG Version: 6.00 Build 0)  -->
<svg version="1.1" baseProfile="basic" id="Layer_1"
	 xmlns="http://www.w3.org/2000/svg" xmlns:xlink="http://www.w3.org/1999/xlink" x="0px" y="0px" viewBox="0 0 64 64"
	 xml:space="preserve">
<path d="M37,29.23C48.69,30.27,57,34.99,57,41c0,6.84-10.75,12-25,12S7,47.84,7,41c0-6.01,8.31-10.73,20-11.77v4.02
	c-9.43,0.96-16,4.52-16,7.75c0,3.78,8.98,8,21,8s21-4.22,21-8c0-3.23-6.57-6.79-16-7.75V29.23z"/>
<path d="M34,10.36V37h-4V10.36c0-1.1,0.9-2,2-2S34,9.26,34,10.36z"/>
<path d="M37.145,36c1.543,0,2.409,1.777,1.458,2.993l-5.145,6.575c-0.741,0.947-2.175,0.947-2.917,0l-5.145-6.575
	C24.446,37.777,25.312,36,26.855,36H37.145z"/>
</svg>