<?xml version="1.0" encoding="iso-8859-1"?>
<!-- Generator: Adobe Illustrator 25.0.0, SVG Export Plug-In . SVG Version: 6.00 Build 0)  -->
<svg version="1.1" id="Layer_1" xmlns="http://www.w3.org/2000/svg" xmlns:xlink="http://www.w3.org/1999/xlink" x="0px" y="0px"
	 viewBox="0 0 48 48" style="enable-background:new 0 0 48 48;" xml:space="preserve">
<path style="fill:none;stroke:#000000;stroke-width:3;stroke-miterlimit:10;" d="M28.473,20.5c0.018,0.164,0.027,0.331,0.027,0.5
	c0,2.485-2.015,4.5-4.5,4.5c-0.344,0-0.678-0.039-1-0.112"/>
<path style="fill:none;stroke:#000000;stroke-width:3;stroke-miterlimit:10;" d="M28.388,20c0.037,0.163,0.065,0.33,0.084,0.5"/>
<path style="fill:none;stroke:#000000;stroke-width:3;stroke-miterlimit:10;" d="M14.83,34c2.355,2.637,5.663,6.296,7.105,7.671
	c1.159,1.105,2.971,1.105,4.13,0c2.749-2.622,9.715-10.614,9.715-10.614C38.095,28.349,39.5,24.841,39.5,21
	c0-3.356-1.067-6.463-2.879-9"/>
<line style="fill:none;stroke:#000000;stroke-width:3;stroke-linecap:round;stroke-miterlimit:10;" x1="5.5" y1="42.5" x2="42.5" y2="5.5"/>
<g>
	<path d="M23.595,18.041l2.612-2.612C25.52,15.159,24.779,15,24,15c-3.309,0-6,2.691-6,6c0,0.779,0.159,1.52,0.429,2.208
		l2.612-2.612C21.223,19.267,22.267,18.223,23.595,18.041z"/>
	<path d="M12.57,29.066C10.906,26.712,10,23.893,10,21c0-7.72,6.28-14,14-14c2.919,0,5.726,0.931,8.06,2.576l2.155-2.155
		C31.301,5.233,27.722,4,24,4C14.626,4,7,11.626,7,21c0,3.68,1.216,7.255,3.433,10.203L12.57,29.066z"/>
</g>
</svg>