<?xml version="1.0" encoding="iso-8859-1"?><!-- Generator: Adobe Illustrator 22.1.0, SVG Export Plug-In . SVG Version: 6.00 Build 0)  --><svg xmlns="http://www.w3.org/2000/svg" xmlns:xlink="http://www.w3.org/1999/xlink" viewBox="0 0 24 24" width="384px" height="384px"><g id="Rounded"><g><path d="M12,1C8.686,1,6,3.686,6,7c0,3.323,3.607,8.105,5.227,10.087c0.401,0.49,1.144,0.49,1.545,0C14.393,15.105,18,10.323,18,7C18,3.686,15.314,1,12,1z M12,9.143c-1.183,0-2.143-0.959-2.143-2.143c0-1.184,0.959-2.143,2.143-2.143S14.143,5.816,14.143,7C14.143,8.183,13.183,9.143,12,9.143z"/></g><path d="M16,16.574L16,16.574c0,0.454,0.303,0.86,0.743,0.969c1.805,0.448,2.902,1.07,3.207,1.456c-0.515,0.655-3.256,2-7.95,2s-7.435-1.345-7.95-2c0.304-0.387,1.402-1.008,3.207-1.456C7.697,17.435,8,17.028,8,16.574v0c0-0.649-0.611-1.135-1.24-0.98C3.905,16.299,2,17.56,2,19c0,2.209,4.477,4,10,4s10-1.791,10-4c0-1.44-1.905-2.701-4.76-3.405C16.611,15.44,16,15.926,16,16.574z"/></g></svg>