<?xml version="1.0" encoding="iso-8859-1"?>
<!-- Generator: Adobe Illustrator 24.2.3, SVG Export Plug-In . SVG Version: 6.00 Build 0)  -->
<svg version="1.1" id="Layer_1" xmlns="http://www.w3.org/2000/svg" xmlns:xlink="http://www.w3.org/1999/xlink" x="0px" y="0px"
	 viewBox="0 0 48 48" style="enable-background:new 0 0 48 48;" xml:space="preserve">
<path d="M24,4C14.626,4,7,11.626,7,21c0,4.036,1.449,7.953,4.093,11.048c0.302,0.343,7.427,8.439,9.807,10.708
	C21.769,43.585,22.884,44,24,44s2.231-0.415,3.101-1.244c2.767-2.639,9.524-10.385,9.82-10.725C39.551,28.953,41,25.036,41,21
	C41,11.626,33.374,4,24,4z M24,26c-2.761,0-5-2.239-5-5s2.239-5,5-5s5,2.239,5,5S26.761,26,24,26z"/>
</svg>