<?xml version="1.0" encoding="iso-8859-1"?>
<!-- Generator: Adobe Illustrator 23.0.3, SVG Export Plug-In . SVG Version: 6.00 Build 0)  -->
<svg version="1.1" id="Layer_1" xmlns="http://www.w3.org/2000/svg" xmlns:xlink="http://www.w3.org/1999/xlink" x="0px" y="0px"
	 viewBox="0 0 50 50" style="enable-background:new 0 0 50 50;" xml:space="preserve">
<g>
	<path d="M28,14V2.204C25.354,3.215,23.242,8.125,23.024,14H28z"/>
	<path d="M30,16v11.796c2.646-1.011,4.758-5.921,4.976-11.796H30z"/>
	<path d="M28,27.796V16h-4.976C23.242,21.875,25.354,26.785,28,27.796z"/>
	<path d="M36.974,14h4.975c-0.387-5.042-3.654-9.281-8.162-11.075C35.614,5.451,36.819,9.41,36.974,14z"/>
	<path d="M21.026,16h-4.975c0.387,5.042,3.654,9.281,8.162,11.075C22.386,24.549,21.181,20.59,21.026,16z"/>
	<path d="M36.974,16c-0.155,4.59-1.36,8.549-3.187,11.075c4.508-1.794,7.776-6.033,8.162-11.075H36.974z"/>
	<path d="M21.026,14c0.155-4.59,1.36-8.549,3.187-11.075C19.705,4.719,16.437,8.958,16.051,14H21.026z"/>
	<path d="M30,2.204V14h4.976C34.758,8.125,32.646,3.215,30,2.204z"/>
</g>
<path d="M47.418,29.749c-1.108-1.758-3.442-2.285-5.192-1.183l-9.35,5.763C33.585,35.052,34,36.034,34,37.067
	c0,2.17-1.765,3.935-3.935,3.935c-0.306,0-0.61-0.036-0.903-0.105c-0.769-0.182-10.592-3.124-11.71-3.458
	c-0.529-0.159-0.829-0.716-0.671-1.245c0.159-0.529,0.717-0.829,1.245-0.671c4.366,1.308,11.059,3.301,11.598,3.429
	c0.143,0.034,0.291,0.051,0.441,0.051c1.067,0,1.935-0.868,1.935-1.935c0-0.689-0.358-1.308-0.957-1.656
	c-0.291-0.169-10.162-4.485-12.147-5.356c-3.11-1.366-6.695-1.399-9.833-0.093l-6.448,2.686C2.105,32.859,2,33.322,2,33.955
	C2,34.507,2,45.95,2,46c0,0.552,0.448,1,1,1c0.305,0,0.548-0.165,0.587-0.194l3.485-2.556c1.776-1.303,4.143-1.589,6.226-0.732
	l11.696,4.146c0.657,0.233,1.337,0.348,2.013,0.348c1.291,0,2.563-0.417,3.625-1.222L46.37,34.865
	C48.041,33.713,48.501,31.466,47.418,29.749z"/>
</svg>