<?xml version="1.0" encoding="iso-8859-1"?>
<!-- Generator: Adobe Illustrator 22.0.1, SVG Export Plug-In . SVG Version: 6.00 Build 0)  -->
<svg version="1.1" id="&#x421;&#x43B;&#x43E;&#x439;_2"
	 xmlns="http://www.w3.org/2000/svg" xmlns:xlink="http://www.w3.org/1999/xlink" x="0px" y="0px" viewBox="0 0 50 50"
	 style="enable-background:new 0 0 50 50;" xml:space="preserve">
<circle style="fill:none;stroke:#000000;stroke-width:2;stroke-linecap:round;stroke-miterlimit:10;" cx="25" cy="25" r="22"/>
<path d="M25.98,8.389C25.887,7.922,25.477,7.586,25,7.586s-0.887,0.336-0.98,0.803l-3.303,16.414c-0.026,0.13-0.026,0.264,0,0.395
	l3.301,16.416c0.094,0.467,0.504,0.803,0.98,0.803s0.887-0.336,0.98-0.803l3.303-16.416c0.026-0.13,0.026-0.264,0-0.395L25.98,8.389
	z M24.998,36.345L22.718,25v0l4.563,0L24.998,36.345z"/>
<line style="fill:none;stroke:#000000;stroke-width:2;stroke-linecap:round;stroke-miterlimit:10;" x1="25" y1="3" x2="25" y2="5"/>
<line style="fill:none;stroke:#000000;stroke-width:2;stroke-linecap:round;stroke-miterlimit:10;" x1="25" y1="45" x2="25" y2="47"/>
<line style="fill:none;stroke:#000000;stroke-width:2;stroke-linecap:round;stroke-miterlimit:10;" x1="47" y1="25" x2="45" y2="25"/>
<line style="fill:none;stroke:#000000;stroke-width:2;stroke-linecap:round;stroke-miterlimit:10;" x1="5" y1="25" x2="3" y2="25"/>
</svg>