<?xml version="1.0" encoding="iso-8859-1"?>
<!-- Generator: Adobe Illustrator 18.0.0, SVG Export Plug-In . SVG Version: 6.00 Build 0)  -->
<!DOCTYPE svg PUBLIC "-//W3C//DTD SVG 1.1//EN" "http://www.w3.org/Graphics/SVG/1.1/DTD/svg11.dtd">
<svg version="1.1" id="Layer_1" xmlns="http://www.w3.org/2000/svg" xmlns:xlink="http://www.w3.org/1999/xlink" x="0px" y="0px"
	 width="50px" height="50px" viewBox="0 0 50 50" style="enable-background:new 0 0 50 50;" xml:space="preserve">
<g>
	<path d="M25,41.645l0.797-1.035C26.293,39.957,38,24.523,38,15c0-7.168-5.832-13-13-13S12,7.832,12,15
		c0,9.523,11.707,24.957,12.203,25.609L25,41.645z M22.194,14.973H20C20.143,12.209,21.96,10,25.559,10
		C28.784,10,31,11.986,31,14.622c0,2.008-1.024,3.43-2.662,4.418c-1.624,0.958-2.106,1.697-2.106,3.043v0.819h-2.223v-1.17
		c-0.015-1.69,0.794-2.841,2.545-3.891c1.485-0.911,2.077-1.73,2.077-3.101c0-1.587-1.251-2.75-3.16-2.75
		C23.54,11.989,22.333,13.145,22.194,14.973z M23.511,27.056c0-1.05,0.75-1.785,1.785-1.785s1.755,0.735,1.755,1.785
		c0,1.035-0.717,1.785-1.755,1.785S23.511,28.091,23.511,27.056z"/>
	<path d="M42.703,32h-7.652c-0.391,0.688-0.781,1.355-1.172,2h7.418l4.281,12H4.422l4.281-12h7.418
		c-0.391-0.645-0.781-1.313-1.172-2H7.297L1.578,48h46.844L42.703,32z"/>
</g>
</svg>