<?xml version="1.0" encoding="iso-8859-1"?>
<!-- Generator: Adobe Illustrator 24.0.0, SVG Export Plug-In . SVG Version: 6.00 Build 0)  -->
<svg version="1.1" id="Layer_1" xmlns="http://www.w3.org/2000/svg" xmlns:xlink="http://www.w3.org/1999/xlink" x="0px" y="0px"
	 viewBox="0 0 64 64" style="enable-background:new 0 0 64 64;" xml:space="preserve">
<path style="fill:none;stroke:#000000;stroke-width:2;stroke-linecap:round;stroke-linejoin:round;stroke-miterlimit:10;" d="
	M31.5,3C25.148,3,20,7.961,20,14.077C20,21.372,31.5,35,31.5,35S43,21.612,43,14.077C43,7.961,37.853,3,31.5,3z"/>
<path style="fill:none;stroke:#000000;stroke-width:2;stroke-linejoin:round;stroke-miterlimit:10;" d="M19.286,14
	c-2.714,0-3.792-0.012-3.792,2.694c1.357,2.705,1.077,5.424-0.28,5.424c-2.714-1.353-6.617,0.803-6.155,1.385
	c0.532,0.669-6.87,8.932-5.986,10.106c10.106,4.196,3.254,10.521,8.634,12.181c2.383,1.009,1.472,6.774,1.472,6.774
	s4.567,4.893,5.265,4.342c1.059-0.838,10.541,2.659,10.987,1.865c0.405-0.725,2.052-4.364,3.873-5.351
	c1.237-0.67,12.867,6.274,14.122,6.559c1.497,0.339,5.728-3.841,6.221-4.228c0.328-0.257-1.593-2.503-1.843-3.68
	c-0.353-1.676,7.664-13.541,7.052-14.267c-4.567-2.108-4.622-10.113-4.567-10.542c0.063-0.516,4.616-1.964,4.733-2.371
	c1.414-4.861,1.388-7.003-0.706-7.877c-1.56-1.325-6.915,0.858-9.174,1.046L46.428,14c-2.714,0-2.714,0-2.714,0"/>
<path d="M21,34c-1.657,0-3,1.343-3,3s1.343,3,3,3s3-1.343,3-3S22.657,34,21,34z"/>
<path style="fill:none;stroke:#000000;stroke-width:2;stroke-linecap:round;stroke-linejoin:round;stroke-miterlimit:10;" d="
	M31.5,11c-1.933,0-3.5,1.567-3.5,3.5s1.567,3.5,3.5,3.5s3.5-1.567,3.5-3.5S33.433,11,31.5,11z"/>
<path d="M49.235,47.893c0.283-0.475,0.128-1.088-0.347-1.371l-1.718-1.024c-0.475-0.283-1.088-0.128-1.371,0.347
	c-0.283,0.475-0.128,1.088,0.347,1.371l1.718,1.024C48.339,48.523,48.951,48.368,49.235,47.893z M51.795,43.599
	c0.283-0.475,0.128-1.088-0.347-1.371l-1.718-1.024c-0.475-0.283-1.088-0.128-1.371,0.347c-0.283,0.475-0.128,1.088,0.347,1.371
	l1.718,1.024C50.899,44.229,51.512,44.074,51.795,43.599z M54.356,39.305c0.283-0.475,0.128-1.088-0.347-1.371l-1.718-1.024
	c-0.475-0.283-1.088-0.128-1.371,0.347s-0.128,1.088,0.347,1.371l1.718,1.024C53.46,39.935,54.073,39.78,54.356,39.305z"/>
</svg>