<?xml version="1.0" encoding="iso-8859-1"?>
<!-- Generator: Adobe Illustrator 29.3.0, SVG Export Plug-In . SVG Version: 9.03 Build 55982)  -->
<svg version="1.1" baseProfile="basic" xmlns="http://www.w3.org/2000/svg" xmlns:xlink="http://www.w3.org/1999/xlink" x="0px"
	 y="0px" viewBox="0 0 24 24" xml:space="preserve">
<g id="&#x421;&#x43B;&#x43E;&#x439;_1">
	<path d="M19,1.5c1.379,0,2.5,1.122,2.5,2.5c0,0.644-1.075,2.839-2.5,5.2c-1.425-2.361-2.5-4.556-2.5-5.2
		C16.5,2.622,17.621,1.5,19,1.5 M19,0c-2.209,0-4,1.791-4,4c0,2,4,8,4,8s4-6,4-8C23,1.791,21.209,0,19,0L19,0z"/>
	<circle cx="19" cy="4" r="1"/>
	<path d="M19.835,8.759c0.113,0.274,0.231,0.547,0.315,0.835c-0.198-0.109-0.407-0.211-0.627-0.309
		C19.36,9.542,19.104,9.574,19,9.574c-0.106,0-0.371-0.03-0.534-0.301c-0.095-0.158-0.174-0.297-0.263-0.448
		c-1.524-0.45-3.403-0.713-5.453-0.771V3.537c1.217,0.106,2.351,0.482,3.365,1.045C16.039,4.328,16,4.131,16,4
		c0-0.374,0.077-0.728,0.202-1.058c-1.233-0.574-2.598-0.911-4.04-0.934c-0.062-0.001-0.262,0.001-0.322,0C6.4,2.095,2,6.54,2,12
		c0,5.459,4.398,9.903,9.836,9.992c0.116,0,0.214,0,0.334,0C17.605,21.9,22,17.457,22,12c0-1.759-0.462-3.41-1.263-4.847
		C20.484,7.631,20.179,8.172,19.835,8.759z M11.25,20.463c-3.532-0.307-6.433-2.762-7.4-6.057c0.406,0.223,0.857,0.423,1.361,0.6
		c1.606,0.564,3.727,0.876,6.039,0.941V20.463z M11.25,14.447C9.083,14.38,7.101,14.08,5.707,13.59
		c-0.781-0.274-1.385-0.599-1.75-0.902C3.592,12.384,3.5,12.16,3.5,12s0.092-0.385,0.457-0.688c0.365-0.303,0.969-0.628,1.75-0.902
		c1.394-0.49,3.376-0.79,5.543-0.857V14.447z M11.25,8.053C8.938,8.118,6.817,8.43,5.211,8.994c-0.504,0.177-0.955,0.377-1.361,0.6
		c0.968-3.295,3.868-5.749,7.4-6.057V8.053z M12.75,20.463v-4.516c2.312-0.066,4.433-0.377,6.039-0.941
		c0.504-0.177,0.955-0.377,1.361-0.6C19.183,17.701,16.282,20.155,12.75,20.463z M20.043,12.688
		c-0.365,0.303-0.969,0.628-1.75,0.902c-1.394,0.49-3.376,0.79-5.543,0.857V9.553c2.167,0.067,4.149,0.368,5.543,0.857
		c0.781,0.274,1.385,0.599,1.75,0.902C20.408,11.615,20.5,11.84,20.5,12S20.408,12.384,20.043,12.688z"/>
</g>
<g id="&#x421;&#x43B;&#x43E;&#x439;_2">
</g>
</svg>