<?xml version="1.0" encoding="iso-8859-1"?><!-- Generator: Adobe Illustrator 22.1.0, SVG Export Plug-In . SVG Version: 6.00 Build 0)  --><svg xmlns="http://www.w3.org/2000/svg" xmlns:xlink="http://www.w3.org/1999/xlink" viewBox="0 0 24 24" width="480px" height="480px"><g id="filled"><g><path d="M12,1C8.686,1,6,3.686,6,7c0,4.286,6,11,6,11s6-6.714,6-11C18,3.686,15.314,1,12,1z M12,9.143c-1.183,0-2.143-0.959-2.143-2.143c0-1.184,0.959-2.143,2.143-2.143S14.143,5.816,14.143,7C14.143,8.183,13.183,9.143,12,9.143z"/></g><path d="M19.2,15h-2.388c-0.485,0.731-0.971,1.408-1.419,2h2.454l1.2,3H4.953l1.2-3h2.454c-0.448-0.592-0.934-1.269-1.419-2H4.8L2,22h20L19.2,15z"/></g></svg>