<?xml version="1.0" encoding="utf-8"?><!-- Generator: Adobe Illustrator 15.0.0, SVG Export Plug-In . SVG Version: 6.00 Build 0)  --><!DOCTYPE svg PUBLIC "-//W3C//DTD SVG 1.1//EN" "http://www.w3.org/Graphics/SVG/1.1/DTD/svg11.dtd"><svg xmlns="http://www.w3.org/2000/svg" xmlns:xlink="http://www.w3.org/1999/xlink" viewBox="0 0 26 26" width="208px" height="208px"><path fill="#000000" stroke="#000000" stroke-width="1.8856" stroke-linecap="round" stroke-linejoin="round" stroke-miterlimit="10" d="  M10,25c0,0,1.756-1,4-1s4,1,4,1H10z"/><path fill="none" stroke="#000000" stroke-width="2" stroke-linecap="round" stroke-linejoin="round" stroke-miterlimit="10" d="  M19.922,19.232C18.223,20.351,16.188,21,14,21C8.035,21,3.201,16.166,3.201,10.201c0-3.777,1.939-7.102,4.877-9.031"/><line fill="none" stroke="#000000" stroke-width="2" stroke-linecap="round" stroke-linejoin="round" stroke-miterlimit="10" x1="14" y1="21" x2="14" y2="24"/><g><circle fill="none" stroke="#000000" stroke-width="1.6" stroke-linecap="round" stroke-linejoin="round" stroke-miterlimit="10" cx="14" cy="10" r="8"/><ellipse transform="matrix(0.8412 -0.5407 0.5407 0.8412 -3.1843 9.157)" fill="none" stroke="#000000" stroke-width="1.6" stroke-linecap="round" stroke-linejoin="round" stroke-miterlimit="10" cx="14" cy="10" rx="4" ry="8"/><line fill="none" stroke="#000000" stroke-width="1.6" stroke-linecap="round" stroke-linejoin="round" stroke-miterlimit="10" x1="7.271" y1="14.326" x2="20.73" y2="5.674"/><line fill="none" stroke="#000000" stroke-width="1.6" stroke-linecap="round" stroke-linejoin="round" stroke-miterlimit="10" x1="6.369" y1="10.149" x2="17.211" y2="3.18"/><line fill="none" stroke="#000000" stroke-width="1.6" stroke-linecap="round" stroke-linejoin="round" stroke-miterlimit="10" x1="10.695" y1="16.879" x2="21.537" y2="9.91"/></g></svg>