<?xml version="1.0" encoding="iso-8859-1"?>
<!-- Generator: Adobe Illustrator 23.0.3, SVG Export Plug-In . SVG Version: 6.00 Build 0)  -->
<svg version="1.1" id="Layer_1" xmlns="http://www.w3.org/2000/svg" xmlns:xlink="http://www.w3.org/1999/xlink" x="0px" y="0px"
	 viewBox="0 0 50 50" style="enable-background:new 0 0 50 50;" xml:space="preserve">
<g>
	<path style="fill:none;stroke:#000000;stroke-width:2;stroke-linecap:round;stroke-miterlimit:10;" d="M30.297,12.21
		C30.842,12.073,31.413,12,32,12c3.86,0,7,3.141,7,7c0,3.86-3.14,7-7,7c-0.805,0-1.578-0.137-2.299-0.388"/>
</g>
<line style="fill:none;stroke:#000000;stroke-width:2;stroke-linecap:round;stroke-miterlimit:10;" x1="32" y1="34" x2="32" y2="30"/>
<line style="fill:none;stroke:#000000;stroke-width:2;stroke-linecap:round;stroke-miterlimit:10;" x1="32" y1="8" x2="32" y2="4"/>
<line style="fill:none;stroke:#000000;stroke-width:2;stroke-linecap:round;stroke-miterlimit:10;" x1="43" y1="19" x2="47" y2="19"/>
<line style="fill:none;stroke:#000000;stroke-width:2;stroke-linecap:round;stroke-miterlimit:10;" x1="39.919" y1="11.082" x2="42.69" y2="8.31"/>
<line style="fill:none;stroke:#000000;stroke-width:2;stroke-linecap:round;stroke-miterlimit:10;" x1="39.919" y1="26.92" x2="42.746" y2="29.746"/>
<path d="M17,3C8.729,3,2,9.729,2,18c0,12.931,13.68,28.038,14.262,28.675C16.451,46.882,16.72,47,17,47c0.001,0,0.003,0,0.005,0
	c0.282-0.001,0.551-0.122,0.739-0.332C18.326,46.021,32,30.654,32,18C32,9.729,25.271,3,17,3z M17,24c-3.314,0-6-2.686-6-6
	s2.686-6,6-6s6,2.686,6,6S20.314,24,17,24z"/>
</svg>