<?xml version="1.0" encoding="iso-8859-1"?>
<!-- Generator: Adobe Illustrator 25.2.3, SVG Export Plug-In . SVG Version: 6.00 Build 0)  -->
<svg version="1.1" baseProfile="basic" id="Layer_1"
	 xmlns="http://www.w3.org/2000/svg" xmlns:xlink="http://www.w3.org/1999/xlink" x="0px" y="0px" viewBox="0 0 48 48"
	 xml:space="preserve">
<path d="M39,19c0,7.179-5.821,13-13,13s-13-5.821-13-13c0-7.179,5.821-13,13-13C33.179,6,39,11.821,39,19z"/>
<path d="M28,37.91V44h-4v-6.14C25.33,38.02,26.67,38.03,28,37.91z"/>
<path d="M33,47H16v-1c0-1.657,1.343-3,3-3h17v1C36,45.657,34.657,47,33,47z"/>
<path d="M43.22,29.2C32.65,46.76,6,39.09,6,19c0-1.56,0.21-11.45,9.8-17.22l0.635,1.052c0.772,1.279,0.47,2.913-0.677,3.871
	c-3.997,3.338-6.344,8.584-5.632,14.34c0.89,7.197,6.729,12.999,13.931,13.843c5.721,0.67,10.919-1.666,14.234-5.64
	c0.955-1.145,2.584-1.45,3.863-0.684L43.22,29.2z"/>
</svg>