<?xml version="1.0" encoding="iso-8859-1"?><!-- Generator: Adobe Illustrator 22.1.0, SVG Export Plug-In . SVG Version: 6.00 Build 0)  --><svg xmlns="http://www.w3.org/2000/svg" xmlns:xlink="http://www.w3.org/1999/xlink" viewBox="0 0 100 100" width="400px" height="400px"><path style="fill:none;stroke:#000000;stroke-width:2;stroke-linejoin:round;stroke-miterlimit:10;" d="M77,40c0,16-27,47-27,47S23,56,23,40c0-14.912,12.088-27,27-27S77,25.088,77,40z"/><circle style="fill:none;stroke:#000000;stroke-linejoin:round;stroke-miterlimit:10;" cx="50" cy="40" r="15.5"/><path style="fill:none;stroke:#000000;stroke-linecap:round;stroke-linejoin:round;stroke-miterlimit:10;" d="M59.5,21.849C56.662,20.354,53.434,19.5,50,19.5c-11.322,0-20.5,9.178-20.5,20.5S38.678,60.5,50,60.5c11.153,0,20.207-8.911,20.475-20"/><path style="fill:none;stroke:#000000;stroke-linecap:round;stroke-linejoin:round;stroke-miterlimit:10;" d="M66.216,27.5c-1.167-1.515-2.54-2.862-4.078-4"/><path style="fill:none;stroke:#000000;stroke-linecap:round;stroke-linejoin:round;stroke-miterlimit:10;" d="M69.431,33.5c-0.348-1.04-0.779-2.042-1.281-3"/></svg>