<?xml version="1.0" encoding="iso-8859-1"?>
<!-- Generator: Adobe Illustrator 27.0.0, SVG Export Plug-In . SVG Version: 6.00 Build 0)  -->
<svg version="1.1" baseProfile="basic" xmlns="http://www.w3.org/2000/svg" xmlns:xlink="http://www.w3.org/1999/xlink" x="0px"
	 y="0px" viewBox="0 0 64 64" xml:space="preserve">
<g id="Layer_1">
</g>
<g id="Layer_2">
</g>
<g id="Layer_3">
</g>
<g id="Layer_4">
	<circle cx="33" cy="28" r="8"/>
	<path d="M56,28.5C56,15.89,45.48,5.54,33,5h-2.5C17.54,5,7,15.54,7,28.5c0,11.62,8.61,21.49,19.93,23.22L30,64h4l3.11-12.46
		C47.87,49.4,56,39.88,56,28.5z M38.21,47.14c-1.34,0.42-2.74,0.69-4.19,0.79L33,51.99l-1.01,4.05l-2.18-8.61
		c-1.55-0.38-3.01-0.94-4.37-1.65C19.12,42.48,15,35.9,15,28.5c0-10.44,8.11-18.95,18.5-19.47c0.01,0,0.01,0,0.02,0
		C43.8,9.56,52,18.09,52,28.5C52,37.26,46.18,44.7,38.21,47.14z"/>
</g>
</svg>