<?xml version="1.0" encoding="iso-8859-1"?><!-- Generator: Adobe Illustrator 23.0.0, SVG Export Plug-In . SVG Version: 6.00 Build 0)  --><svg xmlns="http://www.w3.org/2000/svg" xmlns:xlink="http://www.w3.org/1999/xlink" viewBox="0 0 64 64" width="512px" height="512px"><path d="M59,62H5c-0.326,0-0.632-0.159-0.819-0.426c-0.188-0.267-0.232-0.609-0.121-0.916l8-22C12.204,38.263,12.58,38,13,38h14c0.552,0,1,0.448,1,1s-0.448,1-1,1H13.7L6.428,60h51.145L50.3,40H37c-0.552,0-1-0.448-1-1s0.448-1,1-1h14c0.42,0,0.796,0.263,0.94,0.658l8,22c0.111,0.307,0.066,0.648-0.121,0.916C59.632,61.841,59.326,62,59,62z"/><path d="M32,53c-0.552,0-1-0.448-1-1c0-5.565-3.446-10.503-7.095-15.73C20.019,30.702,16,24.944,16,18c0-8.822,7.178-16,16-16s16,7.178,16,16c0,5.683-3.606,11.089-7.423,16.813C36.852,40.397,33,46.172,33,52C33,52.552,32.552,53,32,53z M32,4c-7.72,0-14,6.28-14,14c0,6.315,3.835,11.811,7.545,17.125c2.5,3.582,5.058,7.246,6.432,11.18c1.429-4.345,4.215-8.521,6.936-12.602C42.558,28.239,46,23.078,46,18C46,10.28,39.72,4,32,4z"/><circle cx="32" cy="18" r="2"/><path d="M37.111,15.854c-0.335,0-0.663-0.168-0.852-0.475c-0.411-0.667-0.981-1.235-1.649-1.645c-0.471-0.289-0.618-0.905-0.33-1.375c0.29-0.47,0.906-0.618,1.375-0.33c0.933,0.572,1.73,1.367,2.305,2.299c0.29,0.47,0.144,1.086-0.326,1.376C37.471,15.806,37.29,15.854,37.111,15.854z"/><path d="M32,25c-3.86,0-7-3.14-7-7s3.14-7,7-7c0.552,0,1,0.448,1,1s-0.448,1-1,1c-2.757,0-5,2.243-5,5s2.243,5,5,5s5-2.243,5-5c0-0.552,0.448-1,1-1s1,0.448,1,1C39,21.86,35.86,25,32,25z"/><path d="M12,58c-0.552,0-1-0.448-1-1v-2c0-0.552,0.448-1,1-1s1,0.448,1,1v2C13,57.552,12.552,58,12,58z"/><path d="M17,58c-0.552,0-1-0.448-1-1v-2c0-0.552,0.448-1,1-1s1,0.448,1,1v2C18,57.552,17.552,58,17,58z"/><path d="M22,58c-0.552,0-1-0.448-1-1v-2c0-0.552,0.448-1,1-1s1,0.448,1,1v2C23,57.552,22.552,58,22,58z"/><path d="M27,58c-0.552,0-1-0.448-1-1v-2c0-0.552,0.448-1,1-1s1,0.448,1,1v2C28,57.552,27.552,58,27,58z"/><path d="M32,58c-0.552,0-1-0.448-1-1v-2c0-0.552,0.448-1,1-1s1,0.448,1,1v2C33,57.552,32.552,58,32,58z"/><path d="M37,58c-0.552,0-1-0.448-1-1v-2c0-0.552,0.448-1,1-1s1,0.448,1,1v2C38,57.552,37.552,58,37,58z"/><path d="M42,58c-0.552,0-1-0.448-1-1v-2c0-0.552,0.448-1,1-1s1,0.448,1,1v2C43,57.552,42.552,58,42,58z"/><path d="M47,58c-0.552,0-1-0.448-1-1v-2c0-0.552,0.448-1,1-1s1,0.448,1,1v2C48,57.552,47.552,58,47,58z"/><path d="M52,58c-0.552,0-1-0.448-1-1v-2c0-0.552,0.448-1,1-1s1,0.448,1,1v2C53,57.552,52.552,58,52,58z"/></svg>