<?xml version="1.0" encoding="iso-8859-1"?>
<!-- Generator: Adobe Illustrator 24.2.1, SVG Export Plug-In . SVG Version: 6.00 Build 0)  -->
<svg version="1.1" id="Layer_1" xmlns="http://www.w3.org/2000/svg" xmlns:xlink="http://www.w3.org/1999/xlink" x="0px" y="0px"
	 viewBox="0 0 48 48" style="enable-background:new 0 0 48 48;" xml:space="preserve">
<path d="M24,43.991c-5.121,0-10.243-1.95-14.142-5.849C6.08,34.365,4,29.342,4,24S6.08,13.635,9.858,9.858
	c0.586-0.586,1.535-0.586,2.121,0l26.162,26.163c0.586,0.586,0.586,1.536,0,2.121C34.243,42.041,29.121,43.991,24,43.991z"/>
<path style="fill:none;stroke:#000000;stroke-width:3;stroke-linecap:round;stroke-linejoin:round;stroke-miterlimit:10;" d="
	M24,5.5c10.217,0,18.5,8.283,18.5,18.5"/>
<path d="M27.121,25.121c-1.172,1.172-5.414-3.071-4.243-4.243c1.172-1.172,3.071-1.172,4.243,0
	C28.293,22.05,28.293,23.95,27.121,25.121z"/>
<path style="fill:none;stroke:#000000;stroke-width:3;stroke-linecap:round;stroke-linejoin:round;stroke-miterlimit:10;" d="
	M24,12.5c6.351,0,11.5,5.149,11.5,11.5"/>
</svg>