<?xml version="1.0" encoding="utf-8"?><!-- Generator: Adobe Illustrator 18.1.1, SVG Export Plug-In . SVG Version: 6.00 Build 0)  --><svg xmlns="http://www.w3.org/2000/svg" xmlns:xlink="http://www.w3.org/1999/xlink" viewBox="0 0 50 50" width="500px" height="500px"><polyline fill="none" stroke="#000000" stroke-width="2" stroke-linecap="round" stroke-linejoin="round" stroke-miterlimit="10" points="47.2,10.3 27.5,30 20,32 22,24.5 41.7,4.8 "/><path d="M45.5,12l-18,18L20,32l2-7.5L38.2,8.3l-2.8-1.5l-1.3-0.7L25.3,2c-0.3-0.1-0.6-0.1-0.9,0L13,7.9L1.4,2.1c-0.3-0.2-0.7-0.1-1,0C0.1,2.3-0.1,2.6-0.1,3v38c0,0.4,0.2,0.7,0.6,0.9l12,6c0.3,0.1,0.6,0.1,0.9,0L25,42.1l12.6,5.8C37.7,48,37.9,48,38,48c0.2,0,0.3,0,0.5-0.1l11-6c0.3-0.2,0.5-0.5,0.5-0.9V6.8L45.5,12z"/><line fill="none" stroke="#000000" stroke-width="2" stroke-linecap="round" stroke-linejoin="round" stroke-miterlimit="10" x1="22.7" y1="24.9" x2="27.5" y2="29.7"/><line fill="none" stroke="#000000" stroke-width="2" stroke-linecap="round" stroke-linejoin="round" stroke-miterlimit="10" x1="42.2" y1="5.5" x2="46.9" y2="10.2"/><path d="M48.6,3.4c-1.9-1.9-5-1.9-6.9,0l-0.8,0.8l1.4,1.4c0.5-1,1.5-1.7,2.7-1.7c1.7,0,3,1.3,3,3c0,1.2-0.7,2.2-1.7,2.7l1.4,1.4l0.8-0.8C50.5,8.4,50.5,5.3,48.6,3.4z"/></svg>