<?xml version="1.0" encoding="iso-8859-1"?>
<!-- Generator: Adobe Illustrator 22.1.0, SVG Export Plug-In . SVG Version: 6.00 Build 0)  -->
<svg version="1.1" id="Layer_1" xmlns="http://www.w3.org/2000/svg" xmlns:xlink="http://www.w3.org/1999/xlink" x="0px" y="0px"
	 viewBox="0 0 50 50" style="enable-background:new 0 0 50 50;" xml:space="preserve">
<path style="fill:none;stroke:#000000;stroke-width:2;stroke-linecap:round;stroke-linejoin:round;stroke-miterlimit:10;" d="M15,9
	c0,0-3,0-5,1s-2,0-3,2s-2,3-3,3s-3,0-3,2s1,2,2,1s4,2,4,3s-1,2,1,3s1,3,2,3s3,2,3,2s1.083-1.777,0.083-3.11c-1.342-1.789-1-2,0-2
	S14,24,14,23s1-3,2-3s0-2-1-2s-2-2-1-2s1-1,0-2s1-4,1-4S16,9,15,9z"/>
<path style="fill:none;stroke:#000000;stroke-width:2;stroke-linecap:round;stroke-linejoin:round;stroke-miterlimit:10;" d="M22,10
	c0,0-3,0-4,1s-2,2,0,2s1,2,1,3s0,2,2,0s2-3,2-4S23,10,22,10z"/>
<path style="fill:none;stroke:#000000;stroke-width:2;stroke-linecap:round;stroke-linejoin:round;stroke-miterlimit:10;" d="M15,31
	c0,0-2-1-2,2s1,3,1,3s-1,5-1,6s1,3,2,3s0-1,0-2s0-2,1-3s3-5,3-6S15,31,15,31z"/>
<path style="fill:none;stroke:#000000;stroke-width:2;stroke-linecap:round;stroke-linejoin:round;stroke-miterlimit:10;" d="M26,27
	c0,0-4,0-4,4.242s3,1.061,4,2.121s1,3.576,1,4.637s0,3.847,1,2.787s3-3.182,3-4.242s-1-2.121,0-3.182S32,28.061,26,27z"/>
<path style="fill:none;stroke:#000000;stroke-width:2;stroke-linecap:round;stroke-linejoin:round;stroke-miterlimit:10;" d="
	M26.063,22.14c0,0-1.115,1.86-3.074,0.86s1.959-4,1.959-4s-0.979-2,0-3s2.938-2,3.917,0c1.959-1,5.876-4,8.814-4s0.979,2,0.979,2
	s7.835,0,9.794,1s-1.959,3-1.959,3s-2.938-1-3.917,1c0.979,1,0,4-1.959,4c0,1,0,3-1.959,3c0.979,1,0.979,3,0,3s-2.938-2-2.938-2
	s-0.979,0-0.979,2c-0.979,0-1.959-4-1.959-4s0,1-0.979,2c-0.979,1-3.917-1-3.917-3S26.063,22.14,26.063,22.14z"/>
<path d="M41,30c0,0-2,1-1,2s3-1,4,0s1,2,2,2s-1-3-2-3S41,30,41,30z"/>
<path style="fill:none;stroke:#000000;stroke-width:2;stroke-linecap:round;stroke-linejoin:round;stroke-miterlimit:10;" d="M46,41
	c-1,2-1.938-0.735-3.063-1.048c-0.964-0.268-2.875,1.515-3.688-0.188C38.641,38.489,40,37,42,36s3,0,4,2
	C46.375,38.827,46.563,40.077,46,41z"/>
<path d="M32.063,34.14c0,0-0.75,1-0.438,1.75s-0.313,1.938-0.063,2.25s1.063-0.188,1.375-2S32.5,33.077,32.063,34.14z"/>
</svg>