<?xml version="1.0" encoding="iso-8859-1"?><!-- Generator: Adobe Illustrator 22.1.0, SVG Export Plug-In . SVG Version: 6.00 Build 0)  --><svg xmlns="http://www.w3.org/2000/svg" xmlns:xlink="http://www.w3.org/1999/xlink" viewBox="0 0 80 80" width="480px" height="480px"><path style="fill:none;stroke:#000000;stroke-width:2;stroke-miterlimit:10;" d="M62,30c0,12.15-22,42-22,42S18,42.15,18,30S27.85,8,40,8S62,17.85,62,30z"/><circle cx="40" cy="12" r="1"/><circle cx="58" cy="30" r="1"/><circle cx="22" cy="30" r="1"/><ellipse cx="30.999" cy="14.412" rx="1" ry="1"/><ellipse cx="55.587" cy="21" rx="1" ry="1"/><ellipse cx="24.411" cy="21" rx="1" ry="1"/><ellipse cx="49" cy="14.413" rx="1" ry="1"/><ellipse cx="35.34" cy="12.613" rx="1" ry="1"/><ellipse cx="57.385" cy="25.341" rx="1" ry="1"/><ellipse cx="22.612" cy="34.659" rx="1" ry="1"/><ellipse cx="27.272" cy="17.272" rx="1" ry="1"/><ellipse cx="52.727" cy="17.272" rx="1" ry="1"/><ellipse cx="22.612" cy="25.342" rx="1" ry="1"/><ellipse cx="57.385" cy="34.659" rx="1" ry="1"/><ellipse cx="44.657" cy="12.614" rx="1" ry="1"/><g><g><polygon style="fill:none;stroke:#000000;stroke-width:2;stroke-linecap:round;stroke-miterlimit:10;" points="48.759,27.122 46.716,23.684 42,26.485 42,21 38,21 38,26.485 33.284,23.684 31.241,27.122 36.084,30 31.241,32.878 33.284,36.316 38,33.515 38,39 42,39 42,33.515 46.716,36.316 48.759,32.878 43.916,30 "/></g></g></svg>