<?xml version="1.0" encoding="iso-8859-1"?>
<!-- Generator: Adobe Illustrator 23.1.0, SVG Export Plug-In . SVG Version: 6.00 Build 0)  -->
<svg version="1.1" id="&#x421;&#x43B;&#x43E;&#x439;_1"
	 xmlns="http://www.w3.org/2000/svg" xmlns:xlink="http://www.w3.org/1999/xlink" x="0px" y="0px" viewBox="0 0 50 50"
	 style="enable-background:new 0 0 50 50;" xml:space="preserve">
<circle cx="13" cy="31" r="1"/>
<circle cx="13" cy="27" r="1"/>
<circle cx="13" cy="35" r="1"/>
<circle cx="13" cy="39" r="1"/>
<circle cx="43" cy="45" r="1"/>
<circle cx="47" cy="45" r="1"/>
<circle cx="39" cy="45" r="1"/>
<circle cx="35" cy="45" r="1"/>
<circle cx="31" cy="45" r="1"/>
<circle cx="27" cy="45" r="1"/>
<circle cx="23" cy="45" r="1"/>
<circle cx="19" cy="45" r="1"/>
<circle style="fill:none;stroke:#000000;stroke-width:2;stroke-miterlimit:10;" cx="13" cy="45" r="2"/>
<line style="fill:none;stroke:#000000;stroke-width:2;stroke-linecap:round;stroke-linejoin:round;stroke-miterlimit:10;" x1="23" y1="23" x2="45" y2="41"/>
<path style="fill:none;stroke:#000000;stroke-width:2;stroke-linecap:round;stroke-linejoin:round;stroke-miterlimit:10;" d="M13,9
	c-2.209,0-4,1.791-4,4s1.791,4,4,4s4-1.791,4-4S15.209,9,13,9z"/>
<polygon style="fill:none;stroke:#000000;stroke-width:2;stroke-linecap:round;stroke-linejoin:round;stroke-miterlimit:10;" points="
	6,16 6,20 10,20 13,23 16,20 20,20 20.015,15.885 23,13 20,10 20,6 16,6 13,3 10,6 6,6 6,10 3,13 "/>
</svg>