<?xml version="1.0" encoding="iso-8859-1"?><!-- Generator: Adobe Illustrator 21.1.0, SVG Export Plug-In . SVG Version: 6.00 Build 0)  --><svg xmlns="http://www.w3.org/2000/svg" xmlns:xlink="http://www.w3.org/1999/xlink" viewBox="0 0 50 50" width="500px" height="500px"><circle style="fill:none;stroke:#000000;stroke-width:2;stroke-linecap:round;stroke-miterlimit:10;" cx="25.08" cy="25" r="22"/><path d="M26.08,16.914c2.41-0.058,4.742-0.323,6.92-0.776c0.613,2.381,0.982,5.054,1.055,7.862H26.08V16.914z M26.08,14.915V6.132c2.594,0.638,4.891,3.716,6.351,8.086C30.435,14.622,28.297,14.859,26.08,14.915z M24.08,6.132v8.783c-2.195-0.057-4.333-0.299-6.346-0.711C19.194,9.842,21.488,6.77,24.08,6.132z M24.08,16.914V24h-7.975c0.073-2.814,0.443-5.491,1.058-7.876C19.359,16.585,21.692,16.854,24.08,16.914z M14.106,24H6.131c0.204-3.887,1.574-7.461,3.777-10.388c1.573,0.825,3.359,1.51,5.297,2.04C14.561,18.175,14.177,20.994,14.106,24z M14.106,26c0.071,3,0.454,5.813,1.095,8.332c-1.956,0.535-3.738,1.229-5.284,2.068C7.709,33.471,6.335,29.892,6.131,26H14.106z M16.105,26h7.975v7.086c-2.41,0.058-4.742,0.323-6.92,0.776C16.547,31.481,16.178,28.808,16.105,26z M24.08,35.085v8.783c-2.594-0.638-4.891-3.716-6.351-8.086C19.725,35.378,21.863,35.141,24.08,35.085z M26.08,43.868v-8.783c2.195,0.057,4.333,0.299,6.346,0.711C30.966,40.158,28.672,43.23,26.08,43.868z M26.08,33.086V26h7.975c-0.073,2.814-0.443,5.491-1.058,7.876C30.801,33.415,28.468,33.146,26.08,33.086z M36.054,26h7.975c-0.204,3.887-1.574,7.461-3.777,10.388c-1.573-0.825-3.359-1.51-5.297-2.04C35.599,31.825,35.983,29.006,36.054,26z M36.054,24c-0.071-3-0.454-5.813-1.095-8.332c1.956-0.535,3.738-1.229,5.284-2.068c2.208,2.929,3.582,6.508,3.786,10.4H36.054z M38.933,12.038c-1.337,0.688-2.864,1.26-4.527,1.713c-0.933-2.854-2.215-5.222-3.744-6.911C33.865,7.826,36.697,9.649,38.933,12.038z M19.499,6.84c-1.526,1.686-2.806,4.048-3.739,6.895c-1.648-0.449-3.176-1.015-4.537-1.692C13.46,9.652,16.293,7.827,19.499,6.84z M11.227,37.962c1.337-0.688,2.864-1.26,4.527-1.713c0.933,2.854,2.215,5.222,3.744,6.911C16.295,42.174,13.463,40.351,11.227,37.962z M30.661,43.16c1.526-1.686,2.806-4.048,3.739-6.895c1.648,0.449,3.176,1.015,4.537,1.692C36.7,40.348,33.867,42.173,30.661,43.16z"/></svg>