<?xml version="1.0" encoding="iso-8859-1"?>
<!-- Generator: Adobe Illustrator 24.2.3, SVG Export Plug-In . SVG Version: 6.00 Build 0)  -->
<svg version="1.1" id="Layer_1" xmlns="http://www.w3.org/2000/svg" xmlns:xlink="http://www.w3.org/1999/xlink" x="0px" y="0px"
	 viewBox="0 0 48 48" style="enable-background:new 0 0 48 48;" xml:space="preserve">
<path d="M16.661,22.013c-1.933-2.676-3.413-5.445-4.078-7.928C11.558,16.218,11,18.563,11,21c0,1.959,0.366,3.858,1.035,5.638
	L16.661,22.013z"/>
<path d="M18.794,19.88l7.095-7.094c-3.487-2.466-6.536-3.598-8.447-3.598c-0.772,0-1.358,0.184-1.714,0.539
	c-0.833,0.833-0.678,2.938,0.405,5.493C16.767,16.716,17.674,18.293,18.794,19.88z"/>
<path d="M28.276,14.64l-7.633,7.633c0.753,0.897,1.562,1.787,2.429,2.654c0.893,0.893,1.779,1.702,2.649,2.435l7.635-7.635
	c-0.753-0.897-1.562-1.787-2.429-2.654C30.033,16.178,29.147,15.374,28.276,14.64z"/>
<path d="M30.391,12.525c0.915,0.772,1.811,1.58,2.658,2.427c0.847,0.847,1.654,1.742,2.426,2.657l5.084-5.084
	c-0.637-1.014-1.378-1.971-2.246-2.838c-0.867-0.867-1.824-1.609-2.838-2.245L30.391,12.525z"/>
<path d="M32.639,6.036C30.859,5.366,28.959,5,27,5c-2.437,0-4.784,0.559-6.917,1.584c2.484,0.664,5.253,2.143,7.93,4.077
	L32.639,6.036z"/>
<path d="M35.206,22.12l-7.094,7.094c4.896,3.463,8.926,4.292,10.16,3.059c0.833-0.833,0.678-2.938-0.405-5.493
	C37.233,25.284,36.326,23.707,35.206,22.12z"/>
<path d="M37.339,19.987c1.934,2.676,3.413,5.445,4.078,7.928C42.442,25.782,43,23.437,43,21c0-1.959-0.366-3.858-1.035-5.638
	L37.339,19.987z"/>
<path d="M23.608,29.476c-0.915-0.773-1.81-1.581-2.657-2.427c-0.847-0.847-1.654-1.742-2.426-2.657l-5.084,5.084
	c0.636,1.014,1.378,1.971,2.246,2.838c0.867,0.868,1.824,1.609,2.839,2.245L23.608,29.476z"/>
<path d="M21.362,35.965C23.142,36.634,25.041,37,27,37c2.431,0,4.77-0.556,6.899-1.576c-2.479-0.667-5.243-2.15-7.914-4.083
	L21.362,35.965z"/>
<path style="fill:none;stroke:#000000;stroke-width:3;stroke-linecap:round;stroke-linejoin:round;stroke-miterlimit:10;" d="
	M37.154,31.154l4.342,4.342c-8.006,8.006-20.986,8.006-28.991,0s-8.006-20.986,0-28.991L16.5,10.5"/>
</svg>