<?xml version="1.0" encoding="iso-8859-1"?>
<!-- Generator: Adobe Illustrator 25.0.0, SVG Export Plug-In . SVG Version: 6.00 Build 0)  -->
<svg version="1.1" id="Layer_1" xmlns="http://www.w3.org/2000/svg" xmlns:xlink="http://www.w3.org/1999/xlink" x="0px" y="0px"
	 viewBox="0 0 48 48" style="enable-background:new 0 0 48 48;" xml:space="preserve">
<path style="fill:none;stroke:#000000;stroke-width:3;stroke-linecap:round;stroke-linejoin:round;stroke-miterlimit:10;" d="
	M20.5,31.5h7c1.657,0,3-1.343,3-3s-1.343-3-3-3h-4.393c-5.795,0-5.938-1-9.28-1C7.376,24.5,3.5,33.006,3.5,33.006"/>
<path style="fill:none;stroke:#000000;stroke-width:3;stroke-linecap:round;stroke-linejoin:round;stroke-miterlimit:10;" d="
	M10.5,42.5c0,0,1-4,5-4c4.054,0,8.092,1,12,1c2.827,0,5.256-2.762,16.174-11.934l-0.053,0.055c1.172-1.171,1.172-3.071,0-4.242
	c-1.171-1.172-2.733-1.122-4.242,0C37.87,24.5,29.327,30.88,29.327,30.88"/>
<circle style="fill:none;stroke:#000000;stroke-width:3;stroke-linecap:round;stroke-linejoin:round;stroke-miterlimit:10;" cx="27" cy="13" r="7.5"/>
<ellipse style="fill:none;stroke:#000000;stroke-width:3;stroke-linecap:round;stroke-linejoin:round;stroke-miterlimit:10;" cx="27" cy="13" rx="2.5" ry="7.5"/>
</svg>