<?xml version="1.0" encoding="iso-8859-1"?>
<!-- Generator: Adobe Illustrator 25.4.1, SVG Export Plug-In . SVG Version: 6.00 Build 0)  -->
<svg version="1.1" baseProfile="basic" id="Layer_1"
	 xmlns="http://www.w3.org/2000/svg" xmlns:xlink="http://www.w3.org/1999/xlink" x="0px" y="0px" viewBox="0 0 100 100"
	 xml:space="preserve">
<path style="fill:none;stroke:#000000;stroke-width:2;stroke-linecap:round;stroke-linejoin:round;stroke-miterlimit:10;" d="
	M20.508,59.041c0,0-2.101,8.928-1.584,17.865"/>
<path style="fill:none;stroke:#000000;stroke-width:4;stroke-linecap:round;stroke-linejoin:round;stroke-miterlimit:10;" d="
	M35.602,70.312c0,0,23.458,5.101,25.758,1.729s-0.62-6.957-0.62-6.957c-4.73-0.468-11.97-4.458-14.66-6.793
	c-2.7-2.34-7.303-3.422-11.376-2.696c-6.443,1.149-21.249,3.525-21.249,3.525l-1.433,18.425l14.607-0.195
	c0,0,18.391,11.214,31.611,9.332s32.72-24.8,32.72-24.8s-7.5-1.381-10.73,1.197s-11.85,9.636-20.15,9.734"/>
<path style="fill:none;stroke:#000000;stroke-width:4;stroke-linecap:round;stroke-linejoin:round;stroke-miterlimit:10;" d="
	M65.93,13.038c-12.09-0.604-20.54,9.495-21.15,21.154c-0.61,11.484,9.49,20.571,21.15,21.154c12.09,0.605,20.55-9.67,21.16-21.154
	C87.7,22.533,77.59,13.621,65.93,13.038z"/>
<line style="fill:none;stroke:#000000;stroke-width:2;stroke-linecap:round;stroke-linejoin:round;stroke-miterlimit:10;" x1="25.3" y1="57.898" x2="26.587" y2="61.712"/>
<line style="fill:none;stroke:#000000;stroke-width:2;stroke-linecap:round;stroke-linejoin:round;stroke-miterlimit:10;" x1="29.466" y1="57.107" x2="31.019" y2="62.275"/>
<line style="fill:none;stroke:#000000;stroke-width:2;stroke-linecap:round;stroke-linejoin:round;stroke-miterlimit:10;" x1="45.21" y1="84.719" x2="46.35" y2="81.033"/>
<line style="fill:none;stroke:#000000;stroke-width:2;stroke-linecap:round;stroke-linejoin:round;stroke-miterlimit:10;" x1="48.92" y1="86.18" x2="49.81" y2="81.826"/>
<line style="fill:none;stroke:#000000;stroke-width:2;stroke-linecap:round;stroke-linejoin:round;stroke-miterlimit:10;" x1="53.18" y1="86.505" x2="53.32" y2="82.025"/>
<line style="fill:none;stroke:#000000;stroke-width:2;stroke-linecap:round;stroke-linejoin:round;stroke-miterlimit:10;" x1="48.27" y1="60.375" x2="44.65" y2="64.353"/>
<line style="fill:none;stroke:#000000;stroke-width:2;stroke-linecap:round;stroke-linejoin:round;stroke-miterlimit:10;" x1="51.53" y1="62.022" x2="48.66" y2="65.486"/>
<line style="fill:none;stroke:#000000;stroke-width:2;stroke-linecap:round;stroke-linejoin:round;stroke-miterlimit:10;" x1="26.357" y1="77.381" x2="28.393" y2="72.814"/>
<line style="fill:none;stroke:#000000;stroke-width:2;stroke-linecap:round;stroke-linejoin:round;stroke-miterlimit:10;" x1="22.844" y1="76.989" x2="23.963" y2="71.464"/>
<path style="fill-rule:evenodd;clip-rule:evenodd;" d="M40.45,65.869c-0.24,0.409-0.735,0.567-1.107,0.352
	c-0.373-0.215-0.484-0.722-0.247-1.132c0.236-0.409,0.731-0.567,1.104-0.352C40.57,64.952,40.68,65.459,40.45,65.869"/>
<path style="fill-rule:evenodd;clip-rule:evenodd;" d="M34.341,75.729c-0.236,0.41-0.761,0.55-1.17,0.314
	c-0.41-0.237-0.55-0.761-0.314-1.171c0.237-0.409,0.761-0.55,1.171-0.313C34.437,74.795,34.578,75.319,34.341,75.729"/>
<path style="fill-rule:evenodd;clip-rule:evenodd;" d="M36.585,62.403c-0.236,0.41-0.761,0.55-1.17,0.314
	c-0.41-0.237-0.55-0.761-0.314-1.171c0.237-0.409,0.761-0.55,1.17-0.313C36.681,61.469,36.821,61.993,36.585,62.403"/>
<path style="fill:none;stroke:#000000;stroke-width:2;stroke-linecap:round;stroke-linejoin:round;stroke-miterlimit:10;" d="M45,34
	c0,0,21-3,42,0"/>
<path style="fill:none;stroke:#000000;stroke-width:2;stroke-linecap:round;stroke-linejoin:round;stroke-miterlimit:10;" d="M66,13
	c0,0,2.59,25.775,0,42"/>
<path style="fill:none;stroke:#000000;stroke-width:2;stroke-linecap:round;stroke-linejoin:round;stroke-miterlimit:10;" d="M62,14
	c0,0-17,17-2,40"/>
<path style="fill:none;stroke:#000000;stroke-width:2;stroke-linecap:round;stroke-linejoin:round;stroke-miterlimit:10;" d="M72,15
	c0,0,16,16,2,38"/>
</svg>