<?xml version="1.0" encoding="iso-8859-1"?>
<!-- Generator: Adobe Illustrator 24.1.2, SVG Export Plug-In . SVG Version: 6.00 Build 0)  -->
<svg version="1.1" baseProfile="basic" id="Layer_1"
	 xmlns="http://www.w3.org/2000/svg" xmlns:xlink="http://www.w3.org/1999/xlink" x="0px" y="0px" viewBox="0 0 32 32"
	 xml:space="preserve">
<rect x="8" y="21" width="2" height="2"/>
<rect x="22" y="21" width="2" height="2"/>
<rect x="13" y="25" width="2" height="2"/>
<rect x="8" y="5" width="4" height="2"/>
<rect x="20" y="5" width="4" height="2"/>
<rect x="17" y="25" width="2" height="2"/>
<rect x="19" y="23" width="3" height="2"/>
<rect x="10" y="23" width="3" height="2"/>
<rect x="15" y="27" width="2" height="2"/>
<line style="fill:none;stroke:#000000;stroke-width:2;stroke-miterlimit:10;" x1="25" y1="21" x2="25" y2="17"/>
<line style="fill:none;stroke:#000000;stroke-width:2;stroke-miterlimit:10;" x1="27" y1="17" x2="27" y2="11"/>
<line style="fill:none;stroke:#000000;stroke-width:2;stroke-miterlimit:10;" x1="25" y1="11" x2="25" y2="7"/>
<line style="fill:none;stroke:#000000;stroke-width:2;stroke-miterlimit:10;" x1="7" y1="7" x2="7" y2="11"/>
<line style="fill:none;stroke:#000000;stroke-width:2;stroke-miterlimit:10;" x1="5" y1="11" x2="5" y2="17"/>
<line style="fill:none;stroke:#000000;stroke-width:2;stroke-miterlimit:10;" x1="7" y1="17" x2="7" y2="21"/>
<line style="fill:none;stroke:#000000;stroke-width:2;stroke-miterlimit:10;" x1="20" y1="4" x2="12" y2="4"/>
<rect x="12" y="12" width="2" height="4"/>
<rect x="18" y="12" width="2" height="4"/>
<rect x="14" y="10" width="4" height="2"/>
<rect x="14" y="16" width="4" height="2"/>
</svg>