<?xml version="1.0" encoding="iso-8859-1"?>
<!-- Generator: Adobe Illustrator 27.0.0, SVG Export Plug-In . SVG Version: 6.00 Build 0)  -->
<svg version="1.1" baseProfile="basic" xmlns="http://www.w3.org/2000/svg" xmlns:xlink="http://www.w3.org/1999/xlink" x="0px"
	 y="0px" viewBox="0 0 64 64" xml:space="preserve">
<g id="Layer_1">
	<path d="M30,60h3.75v-0.014C33.833,59.99,33.916,60,34,60c0.284,0,0.564-0.027,0.843-0.067C49.426,58.98,61,46.82,61,32
		S49.426,5.02,34.843,4.067C34.564,4.027,34.284,4,34,4c-0.105,0-0.209,0.012-0.313,0.017C33.458,4.012,33.23,4,33,4
		c-0.042,0-0.083,0.003-0.125,0.003V4H30c-7.484,0-14.515,2.915-19.792,8.204C4.915,17.486,2,24.517,2,32s2.915,14.514,8.205,19.793
		C15.485,57.085,22.516,60,30,60z M11.191,42h11.555c0.519,3.357,1.297,6.45,2.317,9.097c0.613,1.597,1.303,2.986,2.054,4.171
		C20.03,53.475,14.193,48.521,11.191,42z M26,32c0-2.055,0.104-4.06,0.285-6h15.43C41.896,27.94,42,29.945,42,32
		s-0.104,4.06-0.285,6h-15.43C26.104,36.06,26,34.055,26,32z M39.202,49.663c-1.391,3.623-3.204,5.97-4.823,6.294
		c-0.201,0.011-0.403,0.016-0.605,0.023c-1.656-0.201-3.542-2.579-4.978-6.32c-0.86-2.231-1.529-4.831-2.001-7.66h14.408
		C40.732,44.83,40.062,47.431,39.202,49.663z M41.342,54.502c0.573-1.008,1.108-2.139,1.593-3.403c1.02-2.648,1.799-5.742,2.318-9.1
		h9.555C52.162,47.749,47.312,52.282,41.342,54.502z M57,32c0,2.071-0.264,4.082-0.76,6h-10.51C45.902,36.049,46,34.045,46,32
		c0-2.045-0.098-4.05-0.269-6h10.51C56.736,27.918,57,29.929,57,32z M54.809,22h-9.555c-0.519-3.358-1.297-6.451-2.317-9.097
		c-0.486-1.265-1.021-2.397-1.595-3.406C47.312,11.718,52.162,16.25,54.809,22z M33.774,8.02c0.202,0.006,0.404,0.011,0.605,0.023
		c1.618,0.325,3.432,2.671,4.824,6.297c0.86,2.23,1.529,4.831,2.001,7.66H26.796c0.472-2.83,1.142-5.431,2.002-7.663
		C30.232,10.598,32.118,8.22,33.774,8.02z M27.117,8.732c-0.75,1.185-1.44,2.573-2.052,4.168c-1.02,2.648-1.799,5.742-2.318,9.1
		H11.191C14.193,15.48,20.03,10.525,27.117,8.732z M9,32c0-2.071,0.264-4.082,0.76-6h12.509C22.097,27.95,22,29.955,22,32
		c0,2.045,0.098,4.05,0.269,6H9.76C9.264,36.082,9,34.071,9,32z"/>
</g>
<g id="Layer_2">
</g>
<g id="Layer_3">
</g>
<g id="Layer_4">
</g>
</svg>