<?xml version="1.0" encoding="utf-8"?><!-- Generator: Adobe Illustrator 21.1.0, SVG Export Plug-In . SVG Version: 6.00 Build 0)  --><svg xmlns="http://www.w3.org/2000/svg" xmlns:xlink="http://www.w3.org/1999/xlink" viewBox="0 0 128 128" width="512px" height="512px"><path d="M27.2,27.2C37.1,17.4,50.1,12,64,12c11.7,0,22.8,3.8,31.9,10.9l-5.3,0.6c-1.6,0.2-2.8,1.7-2.6,3.3c0.2,1.5,1.5,2.6,3,2.6c0.1,0,0.2,0,0.4,0l12-1.4c1.6-0.2,2.7-1.6,2.6-3.2l-0.7-11.3c-0.1-1.7-1.5-2.9-3.2-2.8c-1.7,0.1-2.9,1.5-2.8,3.2l0.2,4.1C89.4,10.3,77,6,64,6c-15.5,0-30.1,6-41,17C6,39.9,1.2,65.1,10.8,87.1c0.5,1.1,1.6,1.8,2.8,1.8c0.4,0,0.8-0.1,1.2-0.2c1.5-0.7,2.2-2.4,1.6-3.9C7.7,65,12,42.4,27.2,27.2z"/><path d="M113.1,39.1c-1.5,0.7-2.2,2.4-1.5,4c8.7,19.8,4.5,42.5-10.8,57.8C90.9,110.6,77.9,116,64,116c-11.7,0-22.8-3.8-31.9-10.9l5.3-0.6c1.6-0.2,2.8-1.7,2.6-3.3c-0.2-1.6-1.7-2.8-3.3-2.6l-12,1.4c-1.6,0.2-2.7,1.6-2.6,3.2l0.7,11.3c0.1,1.6,1.4,2.8,3,2.8c0.1,0,0.1,0,0.2,0c1.7-0.1,2.9-1.5,2.8-3.2l-0.2-4.1C38.6,117.7,51,122,64,122c15.5,0,30.1-6,41-17c17.1-17.1,21.8-42.3,12.1-64.4C116.4,39.1,114.6,38.4,113.1,39.1z"/><path d="M64,29.8c-13.6,0-24.6,11-25,25c-0.4,14,14.6,33.8,21.1,41.6c1,1.1,2.4,1.8,3.8,1.8s2.9-0.7,3.8-1.8c6.5-7.8,21.6-27.6,21.1-41.6C88.6,40.8,77.6,29.8,64,29.8z M64,64.8c-5.5,0-10-4.5-10-10c0-5.5,4.5-10,10-10s10,4.5,10,10C74,60.3,69.5,64.8,64,64.8z"/></svg>