<?xml version="1.0" encoding="iso-8859-1"?><!-- Generator: Adobe Illustrator 21.1.0, SVG Export Plug-In . SVG Version: 6.00 Build 0)  --><svg xmlns="http://www.w3.org/2000/svg" xmlns:xlink="http://www.w3.org/1999/xlink" viewBox="0 0 80 80" width="480px" height="480px"><polyline style="fill:none;stroke:#000000;stroke-width:2;stroke-miterlimit:10;" points="69,32.118 69,70 11,70 11,32.118 "/><polygon style="fill:none;stroke:#000000;stroke-width:2;stroke-miterlimit:10;" points="8,34 40,14 72,34 72,27 40,7 8,27 "/><circle cx="68" cy="65" r="1"/><circle cx="64" cy="65" r="1"/><circle cx="60" cy="65" r="1"/><circle cx="56" cy="65" r="1"/><circle cx="52" cy="65" r="1"/><circle cx="48" cy="65" r="1"/><circle cx="44" cy="65" r="1"/><circle cx="40" cy="65" r="1"/><circle cx="36" cy="65" r="1"/><circle cx="24" cy="65" r="1"/><circle cx="28" cy="65" r="1"/><circle cx="32" cy="65" r="1"/><circle cx="20" cy="65" r="1"/><circle cx="16" cy="65" r="1"/><circle cx="12" cy="65" r="1"/><path d="M22.896,49.802l6.611-8.75v-0.186h-6.504v-2.881h10.801v2.275l-6.611,8.75v0.186h6.816v2.881H22.896V49.802z"/><path d="M37.949,52.077V37.985h3.584v14.092H37.949z"/><path d="M52.025,37.985c3.027,0,5.078,1.973,5.078,5c0,2.998-2.158,4.961-5.293,4.961h-2.373v4.131h-3.584V37.985H52.025z M49.438,45.241h1.621c1.523,0,2.422-0.781,2.422-2.246c0-1.484-0.889-2.256-2.402-2.256h-1.641V45.241z"/></svg>