<?xml version="1.0" encoding="iso-8859-1"?><!-- Generator: Adobe Illustrator 21.1.0, SVG Export Plug-In . SVG Version: 6.00 Build 0)  --><svg xmlns="http://www.w3.org/2000/svg" xmlns:xlink="http://www.w3.org/1999/xlink" viewBox="0 0 80 80" width="480px" height="480px"><circle cx="40" cy="14" r="1"/><circle cx="40" cy="28" r="1"/><circle cx="40" cy="35" r="1"/><circle cx="40" cy="49" r="1"/><circle cx="55" cy="69" r="1"/><circle cx="59" cy="69" r="1"/><circle cx="36" cy="42" r="1"/><circle cx="40" cy="42" r="1"/><circle cx="28" cy="42" r="1"/><circle cx="32" cy="42" r="1"/><circle cx="44" cy="42" r="1"/><circle cx="48" cy="42" r="1"/><circle cx="52" cy="42" r="1"/><circle cx="56" cy="42" r="1"/><circle cx="36" cy="21" r="1"/><circle cx="40" cy="21" r="1"/><circle cx="32" cy="21" r="1"/><circle cx="44" cy="21" r="1"/><circle cx="48" cy="21" r="1"/><circle cx="28" cy="21" r="1"/><circle cx="20" cy="69" r="1"/><circle cx="15" cy="69" r="1"/><circle cx="24" cy="69" r="1"/><circle cx="64" cy="69" r="1"/><circle cx="70" cy="69" r="1"/><g><g><polygon style="fill:none;stroke:#000000;stroke-width:2;stroke-miterlimit:10;" points="43,28 65,28 73,21 65,14 43,14 43,10 37,10 37,14 11,14 11,28 37,28 37,35 15,35 7,42 15,49 37,49 37,69 43,69 43,49 69,49 69,35 43,35 "/></g></g><line style="fill:none;stroke:#000000;stroke-width:2;stroke-linecap:round;stroke-miterlimit:10;" x1="28" y1="69" x2="37" y2="69"/><line style="fill:none;stroke:#000000;stroke-width:2;stroke-linecap:round;stroke-miterlimit:10;" x1="43" y1="69" x2="51" y2="69"/></svg>