<?xml version="1.0" encoding="iso-8859-1"?><!-- Generator: Adobe Illustrator 21.1.0, SVG Export Plug-In . SVG Version: 6.00 Build 0)  --><svg xmlns="http://www.w3.org/2000/svg" xmlns:xlink="http://www.w3.org/1999/xlink" viewBox="0 0 50 50" width="500px" height="500px"><circle style="fill:none;stroke:#000000;stroke-width:2;stroke-miterlimit:10;" cx="25" cy="25" r="22"/><path d="M45.925,28L45,27l-4,1v1l2,1l-1.75,2.5l-1,0.5l-3.106-6.213l-4.31,0.713l-0.708-1.875l5-2L35,21l-1,2l-3,1l-1,3l-2-3l-3,1l-2,2h-2v-3h2l3.25-3.312l3.25-0.313l3.481-3.697l-2.249-2.422l-1.465,1.361l1.001,1.078l-1.286,1.367l-2.544-2.626L29.935,12h3.096L34,13.937l1-2L37,11l-1-2l0.998-2.436C33.547,4.313,29.428,3,25,3c-4.562,0-8.799,1.389-12.313,3.766l-1.899,5.638L9,13l-1,7l-2-1l-2.422,0.997C3.204,21.605,3,23.278,3,25c0,12.15,9.85,22,22,22c1.864,0,3.672-0.234,5.4-0.67C30.158,46.128,30,46,30,46l-2-2v-4l-3-2l-3,1l-3-1l-1-4l2-4l5-2l5,2l6-1l3,6h1.4L38,39l-3.168,5.531c0.001,0.052,0.004,0.096,0.006,0.146C41.196,41.492,45.792,35.32,46.791,28H45.925z M21,19l1-1v-2h0.75L24,19.625L23,20h-2V19z M18,12h-2l-3.519,1.76L15.055,6H17v2l2-1l1,2L18,12z"/></svg>