<?xml version="1.0" encoding="iso-8859-1"?>
<!-- Generator: Adobe Illustrator 24.0.2, SVG Export Plug-In . SVG Version: 6.00 Build 0)  -->
<svg version="1.1" id="&#x421;&#x43B;&#x43E;&#x439;_2"
	 xmlns="http://www.w3.org/2000/svg" xmlns:xlink="http://www.w3.org/1999/xlink" x="0px" y="0px" viewBox="0 0 80 80"
	 style="enable-background:new 0 0 80 80;" xml:space="preserve">
<path style="fill:none;stroke:#000000;stroke-width:2;stroke-miterlimit:10;" d="M32,12c11.046,0,20,8.954,20,20
	S32,70.182,32,70.182S12,43.046,12,32S20.954,12,32,12z"/>
<path style="fill:none;stroke:#000000;stroke-width:2;stroke-miterlimit:10;" d="M32,27c-2.761,0-5,2.239-5,5s2.239,5,5,5
	s5-2.239,5-5S34.761,27,32,27z"/>
<path d="M32,16c-0.552,0-1,0.448-1,1s0.448,1,1,1s1-0.448,1-1S32.552,16,32,16z M17,31c-0.552,0-1,0.448-1,1s0.448,1,1,1
	s1-0.448,1-1S17.552,31,17,31z M47,31c-0.552,0-1,0.448-1,1s0.448,1,1,1s1-0.448,1-1S47.552,31,47,31z M39.501,18.01
	c-0.552,0-1,0.448-1,1s0.448,1,1,1s1-0.448,1-1S40.053,18.01,39.501,18.01z M19.011,23.5c-0.552,0-1,0.448-1,1s0.448,1,1,1
	s1-0.448,1-1S19.563,23.5,19.011,23.5z M44.991,23.5c-0.552,0-1,0.448-1,1s0.448,1,1,1s1-0.448,1-1S45.543,23.5,44.991,23.5z
	 M24.5,18.011c-0.552,0-1,0.448-1,1s0.448,1,1,1s1-0.448,1-1S25.052,18.011,24.5,18.011z M35.883,16.511c-0.552,0-1,0.448-1,1
	s0.448,1,1,1s1-0.448,1-1S36.435,16.511,35.883,16.511z M17.513,27.118c-0.552,0-1,0.448-1,1s0.448,1,1,1s1-0.448,1-1
	S18.065,27.118,17.513,27.118z M46.49,34.882c-0.552,0-1,0.448-1,1s0.448,1,1,1s1-0.448,1-1S47.042,34.882,46.49,34.882z
	 M42.608,20.394c-0.552,0-1,0.448-1,1s0.448,1,1,1s1-0.448,1-1S43.16,20.394,42.608,20.394z M21.394,20.393c-0.552,0-1,0.448-1,1
	s0.448,1,1,1s1-0.448,1-1S21.946,20.393,21.394,20.393z M46.49,27.118c-0.552,0-1,0.448-1,1s0.448,1,1,1s1-0.448,1-1
	S47.042,27.118,46.49,27.118z M17.513,34.883c-0.552,0-1,0.448-1,1s0.448,1,1,1s1-0.448,1-1S18.065,34.883,17.513,34.883z
	 M28.119,16.512c-0.552,0-1,0.448-1,1s0.448,1,1,1s1-0.448,1-1S28.671,16.512,28.119,16.512z"/>
<path style="fill:none;stroke:#000000;stroke-width:2;stroke-linecap:round;stroke-miterlimit:10;" d="M44.188,16.095
	c1.177-0.48,2.423-0.842,3.726-1.069c9.793-1.707,19.117,4.848,20.824,14.641c1.707,9.793-4.848,19.117-14.641,20.824
	c-3.03,0.528-6.015,0.266-8.743-0.639"/>
<path style="fill:none;stroke:#000000;stroke-width:2;stroke-linecap:round;stroke-miterlimit:10;" d="M46.712,8.13
	c0.401,2.299,0.801,4.597,1.202,6.896"/>
<path style="fill:none;stroke:#000000;stroke-width:2;stroke-linecap:round;stroke-miterlimit:10;" d="M54.097,50.491
	c0.401,2.299,0.801,4.597,1.202,6.896"/>
<path style="fill:none;stroke:#000000;stroke-width:2;stroke-linecap:round;stroke-miterlimit:10;" d="M75.634,28.465
	c-2.299,0.401-4.597,0.801-6.896,1.202"/>
<path style="fill:none;stroke:#000000;stroke-width:2;stroke-linecap:round;stroke-miterlimit:10;" d="M65.384,12.307
	c-1.342,1.909-2.684,3.818-4.026,5.726"/>
<path style="fill:none;stroke:#000000;stroke-width:2;stroke-linecap:round;stroke-miterlimit:10;" d="M65.73,43.111
	c1.909,1.342,3.818,2.684,5.726,4.026"/>
<path style="fill:none;stroke:#000000;stroke-width:2;stroke-linecap:round;stroke-miterlimit:10;" d="M53.696,10.924
	c-0.163,1.323-0.326,2.647-0.489,3.97"/>
<path style="fill:none;stroke:#000000;stroke-width:2;stroke-linecap:round;stroke-miterlimit:10;" d="M48.804,50.623
	c-0.163,1.323-0.326,2.647-0.489,3.97"/>
<path style="fill:none;stroke:#000000;stroke-width:2;stroke-linecap:round;stroke-miterlimit:10;" d="M58.477,12.066
	c-0.453,1.254-0.906,2.508-1.359,3.762"/>
<path style="fill:none;stroke:#000000;stroke-width:2;stroke-linecap:round;stroke-miterlimit:10;" d="M68.27,19.123
	c-1.046,0.826-2.093,1.653-3.139,2.479"/>
<path style="fill:none;stroke:#000000;stroke-width:2;stroke-linecap:round;stroke-miterlimit:10;" d="M70.867,23.297
	c-1.204,0.573-2.407,1.147-3.611,1.72"/>
<path style="fill:none;stroke:#000000;stroke-width:2;stroke-linecap:round;stroke-miterlimit:10;" d="M68.27,19.123
	c-1.046,0.826-2.093,1.653-3.139,2.479"/>
<path style="fill:none;stroke:#000000;stroke-width:2;stroke-linecap:round;stroke-miterlimit:10;" d="M70.867,23.297
	c-1.204,0.573-2.407,1.147-3.611,1.72"/>
<path style="fill:none;stroke:#000000;stroke-width:2;stroke-linecap:round;stroke-miterlimit:10;" d="M72.849,35.371
	c-1.324-0.158-2.648-0.317-3.972-0.475"/>
<path style="fill:none;stroke:#000000;stroke-width:2;stroke-linecap:round;stroke-miterlimit:10;" d="M71.724,40.157
	c-1.256-0.448-2.511-0.897-3.767-1.345"/>
<path style="fill:none;stroke:#000000;stroke-width:2;stroke-linecap:round;stroke-miterlimit:10;" d="M64.604,50.052
	c-0.824-1.048-1.648-2.096-2.472-3.144"/>
<path style="fill:none;stroke:#000000;stroke-width:2;stroke-linecap:round;stroke-miterlimit:10;" d="M60.424,52.64
	c-0.571-1.205-1.142-2.41-1.713-3.615"/>
<path style="fill:none;stroke:#000000;stroke-width:2;stroke-linecap:round;stroke-linejoin:round;stroke-miterlimit:10;stroke-dasharray:0,4;" d="
	M47.575,19.182c2.088-0.529,4.329-0.583,6.572-0.066c7.535,1.735,12.236,9.25,10.5,16.785s-9.25,12.236-16.785,10.5
	c-0.155-0.036-0.309-0.074-0.462-0.115"/>
</svg>