<?xml version="1.0" encoding="iso-8859-1"?>
<!-- Generator: Adobe Illustrator 26.0.3, SVG Export Plug-In . SVG Version: 6.00 Build 0)  -->
<svg version="1.1" baseProfile="basic" id="Layer_1"
	 xmlns="http://www.w3.org/2000/svg" xmlns:xlink="http://www.w3.org/1999/xlink" x="0px" y="0px" viewBox="0 0 64 64"
	 xml:space="preserve">
<path d="M20.01,43.99l6.88-3.46l1.27,3.84L16.4,50.29c-0.77,0.39-1.7,0.23-2.31-0.38c-0.61-0.61-0.76-1.54-0.38-2.31l5.92-11.76
	l3.84,1.27L20.01,43.99z"/>
<path d="M44.37,35.84l5.92,11.76c0.38,0.77,0.23,1.7-0.38,2.31c-0.38,0.39-0.89,0.59-1.41,0.59c-0.31,0-0.61-0.07-0.9-0.21
	l-11.76-5.92l1.27-3.84l6.88,3.46l-3.46-6.88L44.37,35.84z"/>
<path d="M43.99,20.01l-6.88,3.46l-1.27-3.84l11.76-5.92c0.77-0.39,1.71-0.23,2.31,0.38c0.61,0.61,0.76,1.54,0.38,2.31l-5.92,11.76
	l-3.84-1.27L43.99,20.01z"/>
<path d="M14.09,14.09c0.61-0.61,1.54-0.77,2.31-0.38l11.76,5.92l-1.27,3.84l-6.88-3.46l3.46,6.88l-3.84,1.27L13.71,16.4
	C13.33,15.63,13.48,14.7,14.09,14.09z"/>
<path d="M34.828,32l4.545,4.544c0.781,0.781,0.781,2.047,0,2.828c-0.391,0.391-0.902,0.586-1.414,0.586s-1.023-0.195-1.414-0.586
	L32,34.828l-4.545,4.545c-0.391,0.391-0.902,0.586-1.414,0.586s-1.023-0.195-1.414-0.586c-0.781-0.781-0.781-2.047,0-2.828
	L29.172,32l-4.545-4.544c-0.781-0.781-0.781-2.047,0-2.828c0.781-0.781,2.047-0.781,2.828,0L32,29.172l4.545-4.545
	c0.781-0.781,2.047-0.781,2.828,0c0.781,0.781,0.781,2.047,0,2.828L34.828,32z"/>
<path d="M32,58c-0.863,0-1.629-0.553-1.899-1.373l-5.643-17.085L7.373,33.899C6.554,33.628,6,32.863,6,32s0.554-1.628,1.373-1.899
	l17.085-5.643l5.643-17.085C30.371,6.553,31.137,6,32,6s1.629,0.553,1.899,1.373l5.643,17.085l17.085,5.643
	C57.446,30.372,58,31.137,58,32s-0.554,1.628-1.373,1.899l-17.085,5.643l-5.643,17.085C33.629,57.447,32.863,58,32,58z M14.377,32
	l12.291,4.06c0.602,0.198,1.073,0.67,1.272,1.271L32,49.623l4.06-12.292c0.199-0.601,0.671-1.073,1.272-1.271L49.623,32
	l-12.291-4.06c-0.602-0.198-1.073-0.67-1.272-1.271L32,14.377l-4.06,12.292c-0.199,0.601-0.671,1.073-1.272,1.271L14.377,32z"/>
</svg>