<?xml version="1.0" encoding="iso-8859-1"?><!-- Generator: Adobe Illustrator 19.1.1, SVG Export Plug-In . SVG Version: 6.00 Build 0)  --><svg xmlns="http://www.w3.org/2000/svg" xmlns:xlink="http://www.w3.org/1999/xlink" viewBox="0 0 50 50" width="500px" height="500px"><path style="fill:none;stroke:#000000;stroke-width:2;stroke-linecap:round;stroke-linejoin:round;stroke-miterlimit:10;" d="M38.43,36.41c-9.063,6.313-21.527,4.084-27.84-4.979S6.507,9.903,15.57,3.59"/><ellipse transform="matrix(-0.5716 -0.8206 0.8206 -0.5716 26.0213 53.5863)" style="fill:none;stroke:#000000;stroke-width:2;stroke-linejoin:round;stroke-miterlimit:10;" cx="27" cy="20" rx="15.999" ry="7.999"/><line style="fill:none;stroke:#000000;stroke-width:2.043;stroke-linecap:round;stroke-linejoin:round;stroke-miterlimit:10;" x1="33.843" y1="5.485" x2="11.012" y2="21.388"/><line style="fill:none;stroke:#000000;stroke-width:2.043;stroke-linecap:round;stroke-linejoin:round;stroke-miterlimit:10;" x1="42.988" y1="18.612" x2="20.157" y2="34.515"/><line style="fill:none;stroke:#000000;stroke-width:2;stroke-linejoin:round;stroke-miterlimit:10;" x1="13.872" y1="29.144" x2="40.128" y2="10.856"/><line style="fill:none;stroke:#000000;stroke-width:2;stroke-linejoin:round;stroke-miterlimit:10;" x1="17.856" y1="6.872" x2="36.144" y2="33.128"/><line style="fill:none;stroke:#000000;stroke-width:2;stroke-linecap:round;stroke-linejoin:round;stroke-miterlimit:10;" x1="27" y1="40" x2="27" y2="47"/><circle style="fill:none;stroke:#000000;stroke-width:2;stroke-linecap:round;stroke-linejoin:round;stroke-miterlimit:10;" cx="27" cy="20" r="16"/><path style="fill:none;stroke:#000000;stroke-width:2;stroke-linecap:round;stroke-linejoin:round;stroke-miterlimit:10;" d="M18,47h18c0,0-5.083-2-9-2S18,47,18,47z"/></svg>