<?xml version="1.0" encoding="iso-8859-1"?>
<!-- Generator: Adobe Illustrator 26.0.3, SVG Export Plug-In . SVG Version: 6.00 Build 0)  -->
<svg version="1.1" baseProfile="basic" id="Layer_1"
	 xmlns="http://www.w3.org/2000/svg" xmlns:xlink="http://www.w3.org/1999/xlink" x="0px" y="0px" viewBox="0 0 50 50"
	 xml:space="preserve">
<path d="M15.63,34.37l5.59-2.81l0.32,0.96l-6.82,3.43c-0.19,0.09-0.42,0.06-0.57-0.1c-0.16-0.15-0.19-0.38-0.1-0.57l3.43-6.82
	l0.96,0.32L15.63,34.37z"/>
<path d="M32.52,28.46l3.43,6.82c0.09,0.19,0.06,0.42-0.1,0.57C35.76,35.95,35.63,36,35.5,36c-0.08,0-0.15-0.02-0.22-0.05l-6.82-3.43
	l0.32-0.96l5.59,2.81l-2.81-5.59L32.52,28.46z"/>
<path d="M34.37,15.63l-5.59,2.81l-0.32-0.96l6.82-3.43c0.19-0.09,0.42-0.06,0.57,0.1c0.16,0.15,0.19,0.38,0.1,0.57l-3.43,6.82
	l-0.96-0.32L34.37,15.63z"/>
<path d="M14.15,14.15c0.15-0.16,0.38-0.19,0.57-0.1l6.82,3.43l-0.32,0.96l-5.59-2.81l2.81,5.59l-0.96,0.32l-3.43-6.82
	C13.96,14.53,13.99,14.3,14.15,14.15z"/>
<path d="M25.707,25l4.115,4.115c0.195,0.195,0.195,0.512,0,0.707c-0.098,0.098-0.226,0.146-0.354,0.146s-0.256-0.049-0.354-0.146
	L25,25.707l-4.115,4.115c-0.098,0.098-0.226,0.146-0.354,0.146s-0.256-0.049-0.354-0.146c-0.195-0.195-0.195-0.512,0-0.707
	L24.293,25l-4.115-4.115c-0.195-0.195-0.195-0.512,0-0.707s0.512-0.195,0.707,0L25,24.293l4.115-4.115
	c0.195-0.195,0.512-0.195,0.707,0s0.195,0.512,0,0.707L25.707,25z"/>
<path d="M25,43.5c-0.216,0-0.407-0.138-0.475-0.343l-4.39-13.292l-13.293-4.39C6.639,25.407,6.5,25.216,6.5,25
	s0.139-0.407,0.343-0.475l13.293-4.39l4.39-13.292C24.593,6.638,24.796,6.536,25,6.536s0.407,0.103,0.475,0.308l4.39,13.292
	l13.293,4.39C43.361,24.593,43.5,24.784,43.5,25s-0.139,0.407-0.343,0.475l-13.293,4.39l-4.39,13.292
	C25.407,43.362,25.216,43.5,25,43.5z M8.595,25l12.094,3.994c0.15,0.049,0.268,0.167,0.317,0.318L25,41.406l3.994-12.094
	c0.05-0.15,0.167-0.269,0.317-0.318L41.405,25l-12.094-3.994c-0.15-0.049-0.268-0.167-0.317-0.318L25,8.594l-3.994,12.094
	c-0.05,0.15-0.167,0.269-0.317,0.318L8.595,25z"/>
</svg>