<?xml version="1.0" encoding="iso-8859-1"?>
<!-- Generator: Adobe Illustrator 23.0.3, SVG Export Plug-In . SVG Version: 6.00 Build 0)  -->
<svg version="1.1" id="Layer_1" xmlns="http://www.w3.org/2000/svg" xmlns:xlink="http://www.w3.org/1999/xlink" x="0px" y="0px"
	 viewBox="0 0 50 50" style="enable-background:new 0 0 50 50;" xml:space="preserve">
<path style="fill:none;stroke:#000000;stroke-width:2;stroke-linecap:round;stroke-miterlimit:10;" d="M29,46.719
	c-1.297,0.237-2.634,0.361-4,0.361C12.806,47.08,2.92,37.194,2.92,25S12.806,2.92,25,2.92S47.08,12.806,47.08,25"/>
<path style="fill:none;stroke:#000000;stroke-width:2;stroke-linecap:round;stroke-miterlimit:10;" d="M28.42,46
	c-1.077,0.701-2.226,1.08-3.42,1.08c-6.097,0-11.04-9.886-11.04-22.08S18.903,2.92,25,2.92S36.04,12.806,36.04,25"/>
<path style="fill:none;stroke:#000000;stroke-width:2;stroke-miterlimit:10;" d="M7.888,39.048C11.936,36.564,18.1,35,25,35"/>
<path style="fill:none;stroke:#000000;stroke-width:2;stroke-miterlimit:10;" d="M42.112,10.952C38.064,13.436,31.9,15,25,15
	c-6.808,0-12.88-1.564-17.02-3.956"/>
<line style="fill:none;stroke:#000000;stroke-width:2;stroke-miterlimit:10;" x1="2.92" y1="25" x2="47.08" y2="25"/>
<line style="fill:none;stroke:#000000;stroke-width:2;stroke-miterlimit:10;" x1="25" y1="2.92" x2="25" y2="47.08"/>
<path style="fill:none;stroke:#000000;stroke-width:2;stroke-linecap:round;stroke-linejoin:round;stroke-miterlimit:10;" d="
	M29.003,37.52c0-4.285,6.071-10.951,19.997-7.618c-3.333,4.285-0.269,10.161-4.761,14.284c-4.13,3.791-9.634,1.094-10.475-0.952
	C33.764,43.233,29.003,43.233,29.003,37.52z"/>
<path style="fill:none;stroke:#000000;stroke-width:2;stroke-linecap:round;stroke-linejoin:round;stroke-miterlimit:10;" d="M33,49
	c0-6.666,5.352-13.678,10-16"/>
</svg>