<?xml version="1.0" encoding="iso-8859-1"?><!-- Generator: Adobe Illustrator 21.1.0, SVG Export Plug-In . SVG Version: 6.00 Build 0)  --><svg xmlns="http://www.w3.org/2000/svg" xmlns:xlink="http://www.w3.org/1999/xlink" viewBox="0 0 80 80" width="480px" height="480px"><circle style="fill:none;stroke:#000000;stroke-width:2;stroke-linecap:round;stroke-linejoin:round;stroke-miterlimit:10;" cx="51" cy="27" r="3"/><path style="fill:none;stroke:#000000;stroke-width:2;stroke-linecap:round;stroke-linejoin:round;stroke-miterlimit:10;" d="M24,56l-8.308,10H14c-1.105,0-2,0.895-2,2v2h23v-2c0-1.105-0.895-2-2-2h-1v-5"/><circle cx="28" cy="66" r="1"/><circle cx="24" cy="66" r="1"/><circle cx="46" cy="32" r="1"/><circle cx="20" cy="66" r="1"/><g><g><path style="fill:none;stroke:#000000;stroke-width:2;stroke-linecap:round;stroke-miterlimit:10;" d="M61,53L25,17c-0.828-0.828-2.172-0.828-3,0s-0.828,2.172,0,3l0.233,0.233c-8.67,9.894-8.292,24.953,1.145,34.39c9.437,9.437,24.495,9.814,34.39,1.145L58,56c0.828,0.828,2.172,0.828,3,0S61.828,53.828,61,53z"/></g></g><circle cx="57" cy="55" r="1"/><circle cx="54" cy="52" r="1"/><circle cx="51" cy="49" r="1"/><circle cx="48" cy="46" r="1"/><circle cx="45" cy="43" r="1"/><circle cx="42" cy="40" r="1"/><circle cx="39" cy="37" r="1"/><circle cx="36" cy="34" r="1"/><circle cx="33" cy="31" r="1"/><g><ellipse transform="matrix(0.7071 -0.7071 0.7071 0.7071 3.6237 47.1922)" cx="58.778" cy="19.222" rx="1" ry="1"/><ellipse transform="matrix(0.7071 -0.7071 0.7071 0.7071 -0.9328 36.1922)" cx="43.221" cy="19.222" rx="1" ry="1"/><ellipse transform="matrix(0.7071 -0.7071 0.7071 0.7071 -7.3762 51.7486)" cx="58.778" cy="34.778" rx="1" ry="1"/><ellipse transform="matrix(0.9239 -0.3827 0.3827 0.9239 -4.0658 25.1406)" cx="61.162" cy="22.79" rx="1" ry="1"/><ellipse transform="matrix(0.9239 -0.3827 0.3827 0.9239 -2.8817 19.1875)" cx="46.79" cy="16.837" rx="1" ry="1"/><ellipse transform="matrix(0.3827 -0.9239 0.9239 0.3827 18.5258 61.4006)" cx="55.209" cy="16.837" rx="1" ry="1"/><ellipse transform="matrix(0.3827 -0.9239 0.9239 0.3827 8.9228 75.7729)" cx="61.162" cy="31.21" rx="1" ry="1"/><circle cx="62" cy="27" r="1"/><circle cx="51" cy="16" r="1"/></g><g><circle cx="68" cy="27" r="1"/><ellipse transform="matrix(0.866 -0.5 0.5 0.866 -0.445 35.3397)" cx="65.722" cy="18.5" rx="1" ry="1"/><ellipse transform="matrix(0.5 -0.866 0.866 0.5 19.117 57.6672)" cx="59.5" cy="12.278" rx="1" ry="1"/><ellipse transform="matrix(0.9659 -0.2588 0.2588 0.9659 -3.5521 18.2198)" cx="67.42" cy="22.6" rx="1" ry="1"/><ellipse transform="matrix(0.7071 -0.7071 0.7071 0.7071 7.8662 48.9496)" cx="63.021" cy="14.979" rx="1" ry="1"/><ellipse transform="matrix(0.2588 -0.9659 0.9659 0.2588 30.8422 61.3533)" cx="55.4" cy="10.58" rx="1" ry="1"/><g><circle cx="51" cy="10" r="1"/><ellipse transform="matrix(0.866 -0.5 0.5 0.866 -0.445 22.8948)" cx="42.5" cy="12.278" rx="1" ry="1"/><ellipse transform="matrix(0.9659 -0.2588 0.2588 0.9659 -1.1503 12.4214)" cx="46.6" cy="10.58" rx="1" ry="1"/><ellipse transform="matrix(0.7071 -0.7071 0.7071 0.7071 0.8246 31.9496)" cx="38.979" cy="14.979" rx="1" ry="1"/></g><g><g><ellipse transform="matrix(0.5 -0.866 0.866 0.5 2.117 74.6672)" cx="65.722" cy="35.5" rx="1" ry="1"/><ellipse transform="matrix(0.7071 -0.7071 0.7071 0.7071 -9.1338 55.9913)" cx="63.021" cy="39.021" rx="1" ry="1"/><ellipse transform="matrix(0.2588 -0.9659 0.9659 0.2588 19.6405 88.3964)" cx="67.42" cy="31.4" rx="1" ry="1"/></g></g></g><circle cx="30" cy="28" r="1"/><circle cx="27" cy="25" r="1"/><circle cx="23" cy="21" r="1"/></svg>