<?xml version="1.0" encoding="iso-8859-1"?><!-- Generator: Adobe Illustrator 22.1.0, SVG Export Plug-In . SVG Version: 6.00 Build 0)  --><svg xmlns="http://www.w3.org/2000/svg" xmlns:xlink="http://www.w3.org/1999/xlink" viewBox="0 0 24 24" width="384px" height="384px"><g id="Outlined_7_"><path style="fill:none;stroke:#000000;stroke-width:2;stroke-miterlimit:10;" d="M11,20H5v-9H3.606L12,3.445L20.394,11H19v2"/></g><g><path d="M22.051,16c0.173,0,0.32,0.025,0.437,0.073c0.109,0.045,0.196,0.103,0.266,0.176c0.075,0.079,0.132,0.174,0.174,0.288c0.032,0.088,0.054,0.185,0.065,0.289V17l0,0.059c-0.004,0.149-0.028,0.285-0.071,0.401c-0.043,0.116-0.1,0.212-0.175,0.291c-0.069,0.073-0.156,0.131-0.264,0.176C22.364,17.975,22.216,18,22.044,18h-0.832h-0.21l0.003-2H22.051 M22.051,15h-2.044L20,19h1.212h0.832c0.305,0,0.578-0.049,0.818-0.148c0.24-0.099,0.444-0.237,0.612-0.414s0.296-0.387,0.386-0.63c0.089-0.243,0.133-0.508,0.133-0.793c0-0.005-0.001-0.009-0.001-0.014h0.007c0-0.005,0.001-0.009,0.001-0.014c0-0.286-0.044-0.55-0.133-0.793c-0.09-0.243-0.218-0.453-0.386-0.63s-0.372-0.315-0.612-0.414C22.629,15.049,22.356,15,22.051,15L22.051,15z"/></g><rect x="18" y="15" width="1" height="6"/><rect x="20" y="15" width="1" height="6"/><polygon points="13,15 17,15 17,16 14.219,20 17,20 17,21 13,21 13,20 15.716,16 13,16 "/></svg>