<?xml version="1.0" encoding="iso-8859-1"?>
<!-- Generator: Adobe Illustrator 26.0.3, SVG Export Plug-In . SVG Version: 6.00 Build 0)  -->
<svg version="1.1" baseProfile="basic" id="Layer_1"
	 xmlns="http://www.w3.org/2000/svg" xmlns:xlink="http://www.w3.org/1999/xlink" x="0px" y="0px" viewBox="0 0 50 50"
	 xml:space="preserve">
<path d="M20.19,33.19l-5.47,2.76c-0.19,0.09-0.42,0.06-0.57-0.1c-0.16-0.15-0.19-0.38-0.1-0.57l2.76-5.47l2.54,0.84L20.19,33.19z"/>
<path d="M35.85,35.85C35.76,35.95,35.63,36,35.5,36c-0.08,0-0.15-0.02-0.22-0.05l-5.47-2.76l0.84-2.54l2.54-0.84l2.76,5.47
	C36.04,35.47,36.01,35.7,35.85,35.85z"/>
<path d="M35.95,14.72l-2.76,5.47l-2.54-0.84l-0.84-2.54l5.47-2.76c0.19-0.09,0.42-0.06,0.57,0.1C36.01,14.3,36.04,14.53,35.95,14.72
	z"/>
<path d="M20.19,16.81l-0.84,2.54l-2.54,0.84l-2.76-5.47c-0.09-0.19-0.06-0.42,0.1-0.57c0.15-0.16,0.38-0.19,0.57-0.1L20.19,16.81z"
	/>
<path d="M24.29,25l-4.68,4.68L6.84,25.47C6.64,25.41,6.5,25.22,6.5,25c0-0.22,0.14-0.41,0.34-0.47l12.77-4.21L24.29,25z"/>
<path d="M25,25.71l4.68,4.68l-4.21,12.77c-0.06,0.2-0.25,0.34-0.47,0.34s-0.41-0.14-0.47-0.34l-4.21-12.77L25,25.71z"/>
<path d="M43.5,25c0,0.22-0.14,0.41-0.34,0.47l-12.77,4.21L25.71,25l4.68-4.68l12.77,4.21C43.36,24.59,43.5,24.78,43.5,25z"/>
<path d="M25,24.29l-4.68-4.68l4.21-12.77C24.59,6.63,24.8,6.53,25,6.53s0.41,0.1,0.47,0.31l4.21,12.77L25,24.29z"/>
</svg>