<?xml version="1.0" encoding="iso-8859-1"?>
<!-- Generator: Adobe Illustrator 25.2.3, SVG Export Plug-In . SVG Version: 6.00 Build 0)  -->
<svg version="1.1" baseProfile="basic" id="Layer_1"
	 xmlns="http://www.w3.org/2000/svg" xmlns:xlink="http://www.w3.org/1999/xlink" x="0px" y="0px" viewBox="0 0 48 48"
	 xml:space="preserve">
<path d="M45,25v13c0,3.3-2.7,6-6,6H3V31c0-3.3,2.7-6,6-6h7.01c1.97,1.97,7.99,8,7.99,8s6.02-6.03,7.99-8H45z"/>
<circle cx="24" cy="17" r="5"/>
<path style="fill:none;stroke:#000000;stroke-width:4;stroke-miterlimit:10;" d="M24,34c0,0-8.6-8.607-8.611-8.619
	c-2.079-2.187-3.402-5.112-3.402-8.367C11.986,10.379,17.365,5,24,5s12.014,5.379,12.014,12.014c0,3.255-1.324,6.18-3.402,8.367
	C32.6,25.393,24,34,24,34z"/>
</svg>