<?xml version="1.0" encoding="utf-8"?>
<!-- Generator: Adobe Illustrator 25.2.3, SVG Export Plug-In . SVG Version: 6.00 Build 0)  -->
<svg version="1.1" id="Layer_1" xmlns="http://www.w3.org/2000/svg" xmlns:xlink="http://www.w3.org/1999/xlink" x="0px" y="0px"
	 viewBox="0 0 64 64" style="enable-background:new 0 0 64 64;" xml:space="preserve">
<style type="text/css">
	.st0{fill:none;stroke:#000000;stroke-width:4;stroke-miterlimit:10;}
</style>
<path d="M22,13c0.5-0.5,1.1-1,1.7-1.4l-9.1-9.5l-3.5,3.5l9.5,9.1C21,14.1,21.5,13.6,22,13z"/>
<path d="M45,33.8c-0.3,0.4-0.7,0.8-1,1.1c-0.4,0.4-0.7,0.7-1.1,1l9.4,9l1.7-1.7L45,33.8z"/>
<path d="M45,12c-3.3-3.3-7.7-5-12-5s-8.7,1.7-12,5c-6.6,6.6-6.6,17.4,0,24c3.3,3.3,7.7,5,12,5s8.7-1.7,12-5
	C51.7,29.4,51.7,18.6,45,12z M45.1,17l-4.2,4.2c-0.8-0.9-1.6-1.8-2.5-2.7c-0.9-0.9-1.8-1.7-2.7-2.5l4.2-4.2c1.1,0.6,2,1.3,2.9,2.2
	S44.5,16,45.1,17z M42.9,33.9c-0.2,0.2-0.6,0.3-1.2,0.3c-1.6,0-4.1-0.8-6.9-2.6l5.7-5.7C43.2,30,43.6,33.2,42.9,33.9z M32.4,29.8
	c-0.9-0.7-1.8-1.5-2.7-2.4c-0.9-0.9-1.7-1.8-2.4-2.7l6.4-6.4c0.9,0.7,1.8,1.5,2.7,2.4s1.7,1.8,2.4,2.7L32.4,29.8z M23.1,14.1
	c0.2-0.2,0.6-0.3,1.2-0.3c1.6,0,4.1,0.8,6.9,2.6l-5.7,5.7C22.8,18,22.4,14.8,23.1,14.1z M37,10.6l-3.7,3.7c-2.1-1.4-4.2-2.5-6.1-3
	C29,10.4,31,10,33,10C34.4,10,35.7,10.2,37,10.6z M20.3,18.2c0.5,1.9,1.6,4,3,6.1L19.6,28c-0.4-1.3-0.6-2.6-0.6-4
	C19,22,19.4,20,20.3,18.2z M20.9,31l4.2-4.2c0.8,0.9,1.6,1.8,2.5,2.7c0.9,0.9,1.8,1.7,2.7,2.5L26,36.1c-1.1-0.6-2-1.3-2.9-2.2
	S21.5,32,20.9,31z M29,37.4l3.7-3.7c2.1,1.4,4.2,2.5,6.1,3C37,37.6,35,38,33,38C31.6,38,30.3,37.8,29,37.4z M45.7,29.8
	c-0.5-1.9-1.6-4-3-6.1l3.7-3.7c0.4,1.3,0.6,2.6,0.6,4C47,26,46.6,28,45.7,29.8z"/>
<path d="M38,56h-3l-1.5-9h-3L29,56h-3c-2.2,0-4,1.8-4,4h20C42,57.8,40.2,56,38,56z"/>
<path class="st0" d="M48.6,39.6c-8.6,8.6-22.5,8.6-31.1,0S8.9,17,17.4,8.4"/>
</svg>