<?xml version="1.0" encoding="iso-8859-1"?>
<!-- Generator: Adobe Illustrator 27.8.1, SVG Export Plug-In . SVG Version: 6.00 Build 0)  -->
<svg version="1.1" baseProfile="basic" xmlns="http://www.w3.org/2000/svg" xmlns:xlink="http://www.w3.org/1999/xlink" x="0px"
	 y="0px" viewBox="0 0 32 32" xml:space="preserve">
<g id="Layer_1">
</g>
<g id="Layer_2">
	<circle cx="13" cy="7" r="1"/>
	<circle cx="10" cy="7" r="1"/>
	<circle cx="7" cy="7" r="1"/>
	<circle cx="7" cy="13" r="1"/>
	<circle cx="4" cy="7" r="1"/>
	<circle cx="10" cy="4" r="1"/>
	<circle cx="7" cy="4" r="1"/>
	<circle cx="4" cy="4" r="1"/>
	<circle cx="1" cy="7" r="1"/>
	<circle cx="13" cy="10" r="1"/>
	<circle cx="10" cy="10" r="1"/>
	<circle cx="1" cy="10" r="1"/>
	<circle cx="13" cy="13" r="1"/>
	<circle cx="10" cy="13" r="1"/>
	<circle cx="4" cy="10" r="1"/>
	<circle cx="4" cy="13" r="1"/>
	<circle cx="1" cy="13" r="1"/>
	<circle cx="10" cy="16" r="1"/>
	<circle cx="7" cy="16" r="1"/>
	<circle cx="4" cy="16" r="1"/>
	<circle cx="7" cy="19" r="1"/>
	<circle cx="31" cy="16" r="1"/>
	<circle cx="28" cy="16" r="1"/>
	<circle cx="25" cy="16" r="1"/>
	<circle cx="25" cy="22" r="1"/>
	<circle cx="22" cy="16" r="1"/>
	<circle cx="28" cy="13" r="1"/>
	<circle cx="25" cy="13" r="1"/>
	<circle cx="22" cy="13" r="1"/>
	<circle cx="19" cy="16" r="1"/>
	<circle cx="31" cy="19" r="1"/>
	<circle cx="28" cy="19" r="1"/>
	<circle cx="19" cy="19" r="1"/>
	<circle cx="31" cy="22" r="1"/>
	<circle cx="28" cy="22" r="1"/>
	<circle cx="22" cy="19" r="1"/>
	<circle cx="22" cy="22" r="1"/>
	<circle cx="19" cy="22" r="1"/>
	<circle cx="28" cy="25" r="1"/>
	<circle cx="25" cy="25" r="1"/>
	<circle cx="22" cy="25" r="1"/>
	<circle cx="25" cy="28" r="1"/>
</g>
</svg>