<?xml version="1.0" encoding="iso-8859-1"?><!-- Generator: Adobe Illustrator 21.0.2, SVG Export Plug-In . SVG Version: 6.00 Build 0)  --><svg xmlns="http://www.w3.org/2000/svg" xmlns:xlink="http://www.w3.org/1999/xlink" viewBox="0 0 80 80" width="480px" height="480px"><ellipse transform="matrix(0.7071 -0.7071 0.7071 0.7071 0.4018 47.0293)" cx="56.97" cy="23.03" rx="1" ry="1"/><ellipse transform="matrix(0.7071 -0.7071 0.7071 0.7071 -33.5394 32.9705)" cx="23.029" cy="56.971" rx="1" ry="1"/><ellipse transform="matrix(0.7071 -0.7071 0.7071 0.7071 -23.5982 56.9705)" cx="56.97" cy="56.971" rx="1" ry="1"/><ellipse transform="matrix(0.7071 -0.7071 0.7071 0.7071 -9.5394 23.0293)" cx="23.029" cy="23.03" rx="1" ry="1"/><ellipse transform="matrix(0.9239 -0.3827 0.3827 0.9239 -4.4765 13.1495)" cx="30.815" cy="17.827" rx="1" ry="1"/><ellipse transform="matrix(0.9239 -0.3827 0.3827 0.9239 -20.0488 23.5546)" cx="49.184" cy="62.173" rx="1" ry="1"/><ellipse transform="matrix(0.9239 -0.3827 0.3827 0.9239 -7.0601 26.1382)" cx="62.173" cy="30.816" rx="1" ry="1"/><ellipse transform="matrix(0.9239 -0.3827 0.3827 0.9239 -17.4652 10.5659)" cx="17.827" cy="49.185" rx="1" ry="1"/><ellipse transform="matrix(0.3827 -0.9239 0.9239 0.3827 13.8921 56.4452)" cx="49.184" cy="17.827" rx="1" ry="1"/><ellipse transform="matrix(0.3827 -0.9239 0.9239 0.3827 -38.4179 66.8503)" cx="30.815" cy="62.173" rx="1" ry="1"/><ellipse transform="matrix(0.3827 -0.9239 0.9239 0.3827 -7.0604 87.8027)" cx="62.173" cy="49.185" rx="1" ry="1"/><ellipse transform="matrix(0.3827 -0.9239 0.9239 0.3827 -17.4655 35.4928)" cx="17.827" cy="30.816" rx="1" ry="1"/><ellipse transform="matrix(0.9808 -0.1951 0.1951 0.9808 -2.5328 7.2064)" cx="35.318" cy="16.461" rx="1" ry="1"/><ellipse transform="matrix(0.9808 -0.1951 0.1951 0.9808 -11.5373 9.9379)" cx="44.682" cy="63.539" rx="1" ry="1"/><ellipse transform="matrix(0.9808 -0.1951 0.1951 0.9808 -5.6693 13.0744)" cx="63.539" cy="35.318" rx="1" ry="1"/><ellipse transform="matrix(0.9808 -0.1951 0.1951 0.9808 -8.4008 4.0699)" cx="16.461" cy="44.682" rx="1" ry="1"/><ellipse transform="matrix(0.5556 -0.8315 0.8315 0.5556 7.0362 53.2537)" cx="53.333" cy="20.045" rx="1" ry="1"/><ellipse transform="matrix(0.5556 -0.8315 0.8315 0.5556 -38 48.818)" cx="26.666" cy="59.956" rx="1" ry="1"/><ellipse transform="matrix(0.5556 -0.8315 0.8315 0.5556 -17.6998 73.554)" cx="59.955" cy="53.334" rx="1" ry="1"/><ellipse transform="matrix(0.5556 -0.8315 0.8315 0.5556 -13.2641 28.5178)" cx="20.044" cy="26.667" rx="1" ry="1"/><ellipse transform="matrix(0.8315 -0.5556 0.5556 0.8315 -6.6424 18.1931)" cx="26.666" cy="20.045" rx="1" ry="1"/><ellipse transform="matrix(0.8315 -0.5556 0.5556 0.8315 -24.3212 39.7348)" cx="53.333" cy="59.956" rx="1" ry="1"/><ellipse transform="matrix(0.8315 -0.5556 0.5556 0.8315 -4.7109 37.8033)" cx="59.955" cy="26.667" rx="1" ry="1"/><ellipse transform="matrix(0.8315 -0.5556 0.5556 0.8315 -26.2526 20.1245)" cx="20.044" cy="53.334" rx="1" ry="1"/><ellipse transform="matrix(0.1951 -0.9808 0.9808 0.1951 19.8198 57.0733)" cx="44.682" cy="16.461" rx="1" ry="1"/><ellipse transform="matrix(0.1951 -0.9808 0.9808 0.1951 -33.8908 85.7822)" cx="35.318" cy="63.539" rx="1" ry="1"/><ellipse transform="matrix(0.1951 -0.9808 0.9808 0.1951 7.319 98.283)" cx="63.539" cy="44.682" rx="1" ry="1"/><ellipse transform="matrix(0.1951 -0.9808 0.9808 0.1951 -21.3899 44.5725)" cx="16.461" cy="35.318" rx="1" ry="1"/><circle style="fill:none;stroke:#000000;stroke-width:2;stroke-miterlimit:10;" cx="40" cy="40" r="29"/><circle style="fill:none;stroke:#000000;stroke-width:2;stroke-miterlimit:10;" cx="40" cy="40" r="5"/><line style="fill:none;stroke:#000000;stroke-width:2;stroke-linecap:round;stroke-miterlimit:10;" x1="40" y1="5" x2="40" y2="20"/><line style="fill:none;stroke:#000000;stroke-width:2;stroke-linecap:round;stroke-miterlimit:10;" x1="40" y1="5" x2="40" y2="20"/><line style="fill:none;stroke:#000000;stroke-width:2;stroke-linecap:round;stroke-miterlimit:10;" x1="40" y1="60" x2="40" y2="75"/><line style="fill:none;stroke:#000000;stroke-width:2;stroke-linecap:round;stroke-miterlimit:10;" x1="40" y1="60" x2="40" y2="75"/><line style="fill:none;stroke:#000000;stroke-width:2;stroke-linecap:round;stroke-miterlimit:10;" x1="75" y1="40" x2="60" y2="40"/><line style="fill:none;stroke:#000000;stroke-width:2;stroke-linecap:round;stroke-miterlimit:10;" x1="75" y1="40" x2="60" y2="40"/><line style="fill:none;stroke:#000000;stroke-width:2;stroke-linecap:round;stroke-miterlimit:10;" x1="20" y1="40" x2="5" y2="40"/><line style="fill:none;stroke:#000000;stroke-width:2;stroke-linecap:round;stroke-miterlimit:10;" x1="20" y1="40" x2="5" y2="40"/></svg>