<?xml version="1.0" encoding="iso-8859-1"?><!-- Generator: Adobe Illustrator 22.1.0, SVG Export Plug-In . SVG Version: 6.00 Build 0)  --><svg xmlns="http://www.w3.org/2000/svg" xmlns:xlink="http://www.w3.org/1999/xlink" viewBox="0 0 50 50" width="500px" height="500px"><path d="M26,14h6.035c-0.904-4.589-2.216-7-2.91-7H26V14z"/><path d="M17.623,16c-0.337,2.261-0.565,4.936-0.608,8H24v-8H17.623z"/><path d="M24,34v-8h-6.985c0.042,3.064,0.271,5.739,0.608,8H24z"/><path d="M15.01,24c0.04-2.73,0.24-5.475,0.596-8H9.282c-0.713,2.349-1.168,5.058-1.254,8H15.01z"/><path d="M17.965,14H24V7h-3.125C20.181,7,18.869,9.411,17.965,14z"/><path d="M26,16v8h6.985c-0.042-3.064-0.271-5.739-0.608-8H26z"/><path d="M32.985,26H26v8h6.377C32.715,31.739,32.943,29.064,32.985,26z"/><path d="M43.972,24h5.999c-0.138-2.864-0.857-5.593-1.995-8h-5.179C43.479,18.439,43.892,21.151,43.972,24z"/><path d="M40.013,14c-1.728-4.31-4.327-7-6.763-7h-1.452c0.976,1.614,1.735,4.096,2.27,7H40.013z"/><path d="M34.068,36c-0.535,2.904-1.294,5.386-2.27,7h1.452c2.436,0,5.034-2.69,6.763-7H34.068z"/><path d="M15.932,14c0.535-2.904,1.294-5.386,2.27-7H16.75c-2.436,0-5.034,2.69-6.763,7H15.932z"/><path d="M9.987,36c1.728,4.31,4.327,7,6.763,7h1.452c-0.976-1.614-1.735-4.096-2.27-7H9.987z"/><path d="M6.028,26H0.029c0.138,2.864,0.857,5.593,1.995,8h5.179C6.521,31.561,6.108,28.849,6.028,26z"/><path d="M7.203,16H2.024c-1.137,2.407-1.856,5.136-1.995,8h5.999C6.108,21.151,6.521,18.439,7.203,16z"/><path d="M7.834,36H3.106c2.186,3.515,5.334,6.042,8.821,6.775C10.283,41.19,8.867,38.849,7.834,36z"/><path d="M15.606,34c-0.356-2.525-0.556-5.27-0.596-8H8.028c0.087,2.942,0.541,5.651,1.254,8H15.606z"/><path d="M42.797,34h5.179c1.137-2.407,1.856-5.136,1.995-8h-5.999C43.892,28.849,43.479,31.561,42.797,34z"/><path d="M38.073,42.775c3.486-0.734,6.634-3.261,8.821-6.775h-4.728C41.133,38.849,39.717,41.19,38.073,42.775z"/><path d="M11.927,7.225C8.441,7.958,5.293,10.485,3.106,14h4.728C8.867,11.151,10.283,8.81,11.927,7.225z"/><path d="M24,36h-6.035c0.904,4.589,2.216,7,2.91,7H24V36z"/><path d="M32.035,36H26v7h3.125C29.819,43,31.131,40.589,32.035,36z"/><path d="M34.99,26c-0.04,2.73-0.24,5.475-0.596,8h6.324c0.713-2.349,1.168-5.058,1.254-8H34.99z"/><path d="M42.166,14h4.728c-2.186-3.515-5.334-6.042-8.821-6.775C39.717,8.81,41.133,11.151,42.166,14z"/><path d="M34.394,16c0.356,2.525,0.556,5.27,0.596,8h6.982c-0.087-2.942-0.541-5.651-1.254-8H34.394z"/></svg>