<?xml version="1.0" encoding="utf-8"?><!-- Generator: Adobe Illustrator 20.1.0, SVG Export Plug-In . SVG Version: 6.00 Build 0)  --><svg xmlns="http://www.w3.org/2000/svg" xmlns:xlink="http://www.w3.org/1999/xlink" viewBox="0 0 50 50" width="500px" height="500px"><g><path d="M35,4c3.3,0,6,2.9,6,6.4c0,2.4-3.2,8-6,12.1c-2.8-4.1-6-9.7-6-12.1C29,6.9,31.7,4,35,4 M35,2c-4.4,0-8,3.8-8,8.4C27,15,35,26,35,26s8-11,8-15.6C43,5.8,39.4,2,35,2L35,2z"/></g><circle fill="none" stroke="#000000" stroke-width="2" stroke-miterlimit="10" cx="35" cy="10" r="3"/><path d="M33.8,23c0.1,1.3,0.2,2.6,0.2,4c0,10.3-4.1,19-9,19s-9-8.7-9-19c0-10.3,4.1-19,9-19l0.1,0V6.8L25.2,6c-0.1,0-0.1,0-0.2,0c-6.2,0-11,9.2-11,21s4.8,21,11,21s11-9.2,11-21c0-1,0-2.1-0.1-3.1C35,23.8,34.3,23.5,33.8,23z"/><path d="M41.1,13.6c-0.1,0.8-0.4,1.5-0.9,2.1C42.7,18.9,44,22.9,44,27c0,10.5-8.5,19-19,19S6,37.5,6,27S14.5,8,25,8c1.1,0,2.2,0.1,3.4,0.3c0.2-0.7,0.5-1.3,0.9-1.8C27.9,6.2,26.4,6,25,6C13.4,6,4,15.4,4,27s9.4,21,21,21s21-9.4,21-21C46,22.1,44.2,17.3,41.1,13.6z"/><line fill="none" stroke="#000000" stroke-width="2" stroke-miterlimit="10" x1="8" y1="17" x2="30.2" y2="17"/><line fill="none" stroke="#000000" stroke-width="2" stroke-miterlimit="10" x1="8" y1="37" x2="42" y2="37"/><line fill="none" stroke="#000000" stroke-width="2" stroke-miterlimit="10" x1="5" y1="27" x2="45" y2="27"/><line fill="none" stroke="#000000" stroke-width="2" stroke-miterlimit="10" x1="25" y1="7" x2="25" y2="47"/></svg>