<?xml version="1.0" encoding="iso-8859-1"?>
<!-- Generator: Adobe Illustrator 24.2.3, SVG Export Plug-In . SVG Version: 6.00 Build 0)  -->
<svg version="1.1" id="Layer_1" xmlns="http://www.w3.org/2000/svg" xmlns:xlink="http://www.w3.org/1999/xlink" x="0px" y="0px"
	 viewBox="0 0 48 48" style="enable-background:new 0 0 48 48;" xml:space="preserve">
<g>
	<path d="M42.326,16c-2.344-5.341-6.958-9.469-12.615-11.159C31.479,7.606,32.719,11.61,33.396,16H42.326z"/>
	<path d="M43.363,29C43.777,27.401,44,25.727,44,24s-0.223-3.401-0.637-5h-9.6C33.918,20.655,34,22.334,34,24s-0.082,3.345-0.237,5
		H43.363z"/>
	<path d="M14,24c0-1.666,0.082-3.345,0.237-5h-9.6C4.223,20.599,4,22.273,4,24s0.223,3.401,0.637,5h9.6
		C14.082,27.345,14,25.666,14,24z"/>
	<path d="M31,24c0-1.744-0.095-3.41-0.252-5H17.252C17.095,20.59,17,22.256,17,24s0.095,3.41,0.252,5h13.496
		C30.905,27.41,31,25.744,31,24z"/>
	<path d="M30.362,16C29.164,8.792,26.473,4,24,4s-5.164,4.792-6.362,12H30.362z"/>
	<path d="M17.638,32c1.198,7.208,3.89,12,6.362,12s5.164-4.792,6.362-12H17.638z"/>
	<path d="M14.604,16c0.677-4.39,1.917-8.394,3.685-11.159C12.632,6.531,8.018,10.659,5.674,16H14.604z"/>
	<path d="M33.396,32c-0.677,4.39-1.917,8.394-3.685,11.159c5.657-1.69,10.271-5.817,12.615-11.159H33.396z"/>
	<path d="M5.674,32c2.344,5.341,6.958,9.469,12.615,11.159C16.521,40.394,15.281,36.39,14.604,32H5.674z"/>
</g>
</svg>