<?xml version="1.0" encoding="iso-8859-1"?>
<!-- Generator: Adobe Illustrator 25.0.0, SVG Export Plug-In . SVG Version: 6.00 Build 0)  -->
<svg version="1.1" baseProfile="basic" id="Layer_1"
	 xmlns="http://www.w3.org/2000/svg" xmlns:xlink="http://www.w3.org/1999/xlink" x="0px" y="0px" viewBox="0 0 64 64"
	 xml:space="preserve">
<path d="M52.508,47.335c0.818,1.638,0.61,3.539-0.545,4.96s-2.976,2.012-4.743,1.549L32,49.839l-15.22,4.005
	C16.381,53.949,15.979,54,15.583,54c-1.359,0-2.651-0.604-3.546-1.705c-1.155-1.421-1.363-3.322-0.545-4.96l17.822-35.643
	c0.512-1.024,1.541-1.66,2.686-1.66s2.174,0.636,2.686,1.66L52.508,47.335z M48.858,49.773c0.112-0.138,0.215-0.362,0.071-0.649
	L32.047,15.359c-0.019-0.039-0.075-0.039-0.094,0L15.07,49.124c-0.144,0.287-0.041,0.512,0.071,0.649
	c0.112,0.137,0.304,0.283,0.621,0.203L32,45.703l16.237,4.273C48.553,50.057,48.746,49.911,48.858,49.773z"/>
</svg>