<?xml version="1.0" encoding="iso-8859-1"?>
<!-- Generator: Adobe Illustrator 25.0.0, SVG Export Plug-In . SVG Version: 6.00 Build 0)  -->
<svg version="1.1" id="Layer_1" xmlns="http://www.w3.org/2000/svg" xmlns:xlink="http://www.w3.org/1999/xlink" x="0px" y="0px"
	 viewBox="0 0 48 48" style="enable-background:new 0 0 48 48;" xml:space="preserve">
<path style="fill:none;stroke:#000000;stroke-width:3;stroke-miterlimit:10;" d="M36.5,18c0-6.904-5.596-12.5-12.5-12.5
	S11.5,11.096,11.5,18c0,3.098,1.133,5.927,2.999,8.111c0,0,5.933,6.906,7.835,8.721c0.935,0.892,2.396,0.892,3.331,0
	c2.217-2.114,7.835-8.721,7.835-8.721C35.367,23.927,36.5,21.098,36.5,18z"/>
<path d="M41.884,38.488l-1.437-6.225c-0.483-2.09-2.097-3.639-4.109-4.104c-0.061,0.074-1.289,1.53-2.43,2.841h1.18
	c1.171,0,2.173,0.797,2.436,1.938l1.437,6.225c0.104,0.448-0.001,0.912-0.288,1.271C38.386,40.794,37.958,41,37.499,41H10.501
	c-0.459,0-0.887-0.206-1.173-0.566c-0.287-0.359-0.392-0.823-0.288-1.271l1.437-6.225C10.739,31.797,11.741,31,12.912,31h1.195
	c-1.137-1.3-2.381-2.765-2.444-2.841c-2.012,0.465-3.627,2.014-4.11,4.105l-1.437,6.225c-0.31,1.344,0.005,2.734,0.864,3.813
	C7.839,43.381,9.122,44,10.501,44h26.998c1.379,0,2.662-0.619,3.521-1.698C41.879,41.223,42.193,39.832,41.884,38.488z"/>
<circle cx="24" cy="27" r="2"/>
<path style="fill:none;stroke:#000000;stroke-width:3;stroke-linecap:round;stroke-linejoin:round;stroke-miterlimit:10;" d="
	M24,21.5c0-3.5,3.5-3,3.5-6.5c0-1.933-1.567-3.5-3.5-3.5s-3.5,1.567-3.5,3.5v0.389"/>
</svg>