<?xml version="1.0" encoding="iso-8859-1"?>
<!-- Generator: Adobe Illustrator 22.1.0, SVG Export Plug-In . SVG Version: 6.00 Build 0)  -->
<svg version="1.1" id="Layer_1" xmlns="http://www.w3.org/2000/svg" xmlns:xlink="http://www.w3.org/1999/xlink" x="0px" y="0px"
	 viewBox="0 0 50 50" style="enable-background:new 0 0 50 50;" xml:space="preserve">
<polyline style="fill:none;stroke:#000000;stroke-width:2;stroke-linecap:round;stroke-linejoin:round;stroke-miterlimit:10;" points="
	23,29 23,34 22.781,34 18,34 "/>
<circle style="fill:none;stroke:#000000;stroke-width:2;stroke-miterlimit:10;" cx="6" cy="4" r="3"/>
<path d="M6,22L6,22c-0.552,0-1-0.448-1-1v-3c0-0.552,0.448-1,1-1h0c0.552,0,1,0.448,1,1v3C7,21.552,6.552,22,6,22z"/>
<path d="M6,15L6,15c-0.552,0-1-0.448-1-1v-3c0-0.552,0.448-1,1-1h0c0.552,0,1,0.448,1,1v3C7,14.552,6.552,15,6,15z"/>
<path d="M6,29L6,29c-0.552,0-1-0.448-1-1v-3c0-0.552,0.448-1,1-1h0c0.552,0,1,0.448,1,1v3C7,28.552,6.552,29,6,29z"/>
<path d="M6,36L6,36c-0.552,0-1-0.448-1-1v-3c0-0.552,0.448-1,1-1h0c0.552,0,1,0.448,1,1v3C7,35.552,6.552,36,6,36z"/>
<path d="M6,43L6,43c-0.552,0-1-0.448-1-1v-3c0-0.552,0.448-1,1-1h0c0.552,0,1,0.448,1,1v3C7,42.552,6.552,43,6,43z"/>
<path d="M6,50L6,50c-0.552,0-1-0.448-1-1v-3c0-0.552,0.448-1,1-1h0c0.552,0,1,0.448,1,1v3C7,49.552,6.552,50,6,50z"/>
<g>
	<path d="M28.826,34.255L28.826,34.255c-0.302-0.463-0.171-1.082,0.291-1.384l2.513-1.639c0.463-0.302,1.082-0.171,1.384,0.291v0
		c0.302,0.463,0.171,1.082-0.291,1.384l-2.513,1.639C29.747,34.848,29.128,34.718,28.826,34.255z"/>
	<path d="M34.69,30.432L34.69,30.432c-0.302-0.463-0.171-1.082,0.291-1.384l2.513-1.639c0.463-0.302,1.082-0.171,1.384,0.291v0
		c0.302,0.463,0.171,1.082-0.291,1.384l-2.513,1.639C35.611,31.025,34.991,30.894,34.69,30.432z"/>
	<path d="M22.963,38.079L22.963,38.079c-0.302-0.463-0.171-1.082,0.291-1.384l2.513-1.639c0.463-0.302,1.082-0.171,1.384,0.291l0,0
		c0.302,0.463,0.171,1.082-0.291,1.384l-2.513,1.639C23.884,38.672,23.264,38.541,22.963,38.079z"/>
	<path d="M17.099,41.902L17.099,41.902c-0.302-0.463-0.171-1.082,0.291-1.384l2.513-1.639c0.463-0.302,1.082-0.171,1.384,0.291h0
		c0.302,0.463,0.171,1.082-0.291,1.384l-2.513,1.639C18.02,42.495,17.401,42.365,17.099,41.902z"/>
	<path d="M11.236,45.726L11.236,45.726c-0.302-0.463-0.171-1.082,0.291-1.384l2.513-1.639c0.463-0.302,1.082-0.171,1.384,0.291l0,0
		c0.302,0.463,0.171,1.082-0.291,1.384l-2.513,1.639C12.157,46.319,11.537,46.189,11.236,45.726z"/>
	<path d="M5.372,49.549L5.372,49.549c-0.302-0.463-0.171-1.082,0.291-1.384l2.513-1.639c0.463-0.302,1.082-0.171,1.384,0.291l0,0
		c0.302,0.463,0.171,1.082-0.291,1.384l-2.513,1.639C6.293,50.143,5.674,50.012,5.372,49.549z"/>
</g>
<circle style="fill:none;stroke:#000000;stroke-width:2;stroke-miterlimit:10;" cx="44" cy="24" r="3"/>
<path style="fill:none;stroke:#000000;stroke-width:2;stroke-linecap:round;stroke-linejoin:round;stroke-miterlimit:10;" d="
	M9.757,26.047c5.325,0.401,9.945,3.33,12.663,7.59"/>
</svg>