<?xml version="1.0" encoding="iso-8859-1"?>
<!-- Generator: Adobe Illustrator 25.4.1, SVG Export Plug-In . SVG Version: 6.00 Build 0)  -->
<svg version="1.1" baseProfile="basic" id="Layer_1"
	 xmlns="http://www.w3.org/2000/svg" xmlns:xlink="http://www.w3.org/1999/xlink" x="0px" y="0px" viewBox="0 0 100 100"
	 xml:space="preserve">
<line style="fill:none;stroke:#000000;stroke-width:2;stroke-linecap:round;stroke-linejoin:round;stroke-miterlimit:10;" x1="66.652" y1="66.333" x2="64.672" y2="61.481"/>
<line style="fill:none;stroke:#000000;stroke-width:2;stroke-linecap:round;stroke-linejoin:round;stroke-miterlimit:10;" x1="64.409" y1="68.541" x2="61.018" y2="64.298"/>
<line style="fill:none;stroke:#000000;stroke-width:2;stroke-linecap:round;stroke-linejoin:round;stroke-miterlimit:10;" x1="58.884" y1="72.87" x2="57.921" y2="68.672"/>
<line style="fill:none;stroke:#000000;stroke-width:2;stroke-linecap:round;stroke-linejoin:round;stroke-miterlimit:10;" x1="75.941" y1="58.523" x2="75.165" y2="62.101"/>
<line style="fill:none;stroke:#000000;stroke-width:2;stroke-linecap:round;stroke-linejoin:round;stroke-miterlimit:10;" x1="72.899" y1="58.011" x2="68.578" y2="60.829"/>
<line style="fill:none;stroke:#000000;stroke-width:2;stroke-linecap:round;stroke-linejoin:round;stroke-miterlimit:10;" x1="70.383" y1="49.309" x2="72.936" y2="51.256"/>
<line style="fill:none;stroke:#000000;stroke-width:2;stroke-linecap:round;stroke-linejoin:round;stroke-miterlimit:10;" x1="19.942" y1="68.247" x2="17.885" y2="71.292"/>
<line style="fill:none;stroke:#000000;stroke-width:2;stroke-linecap:round;stroke-linejoin:round;stroke-miterlimit:10;" x1="41.158" y1="63.907" x2="43.149" y2="60.763"/>
<line style="fill:none;stroke:#000000;stroke-width:2;stroke-linecap:round;stroke-linejoin:round;stroke-miterlimit:10;" x1="37.635" y1="62.667" x2="39.681" y2="58.566"/>
<line style="fill:none;stroke:#000000;stroke-width:2;stroke-linecap:round;stroke-linejoin:round;stroke-miterlimit:10;" x1="25.676" y1="51.256" x2="29.166" y2="48.614"/>
<line style="fill:none;stroke:#000000;stroke-width:2;stroke-linecap:round;stroke-linejoin:round;stroke-miterlimit:10;" x1="23.26" y1="48.189" x2="27.219" y2="45.797"/>
<path style="fill:none;stroke:#000000;stroke-width:4;stroke-linecap:round;stroke-linejoin:round;stroke-miterlimit:10;" d="
	M88.389,32.097c0,0,0.566,12.765,0.77,21.897c0.204,9.132,0.048,21.358,0.048,21.358s-13.217,8.923-23.971,8.993
	s-17.675-7.526-27.429-6.948C28.052,77.974,13.1,83.841,13.1,83.841l-0.877-41.955c0,0,16.886-9.205,24.703-8.915
	c7.817,0.289,14.37,4.869,27.249,5.368C77.054,38.837,88.389,32.097,88.389,32.097z"/>
<line style="fill:none;stroke:#000000;stroke-width:2;stroke-linecap:round;stroke-linejoin:round;stroke-miterlimit:10;" x1="54.015" y1="47.526" x2="53.916" y2="29.959"/>
<path style="fill:none;stroke:#000000;stroke-width:4;stroke-linecap:round;stroke-linejoin:round;stroke-miterlimit:10;" d="
	M54.648,15.22c-4.848-0.567-7.526,2.632-7.866,7.103c-0.34,4.471,3.075,7.734,7.222,7.19c4.146-0.544,6.292-2.981,6.488-6.56
	C60.688,19.376,59.484,15.786,54.648,15.22z"/>
<path style="fill:none;stroke:#000000;stroke-width:2;stroke-linecap:round;stroke-linejoin:round;stroke-miterlimit:10;" d="
	M71.608,38.552c0,0-1.061,3.09,1.576,5.896c2.637,2.806,3.391,2.686,0.634,6.123c-2.757,3.438-3.26,7.006,0.34,7.821
	c3.6,0.815,4.179-3.73,7.527-2.295c3.349,1.436,7.232,5.003,7.232,5.003"/>
<path style="fill:none;stroke:#000000;stroke-width:2;stroke-linecap:round;stroke-linejoin:round;stroke-miterlimit:10;" d="
	M79.64,79.385c0,0-0.963-5.787-4.617-8.615c-3.654-2.828-6.358-5.721-9.454-3.273c-3.096,2.447-1.695,5.253-5.011,5.852
	c-3.315,0.599-4.115-2.034-7.638-0.62c-3.522,1.414-4.716,5.373-4.716,5.373"/>
<path style="fill:none;stroke:#000000;stroke-width:2;stroke-linecap:round;stroke-linejoin:round;stroke-miterlimit:10;" d="
	M31.431,77.188c0,0-3.283-4.231-0.317-5.667c2.966-1.436,3.962,1.121,7.364-1.359c3.402-2.48,5.646-3.698,2.933-5.809
	c-2.714-2.11-6.643-0.393-7.999-3.111c-1.357-2.719,2.277-4.895,0.23-6.853c-2.047-1.958-4.19,3.002-6.751-0.642
	c-2.561-3.644-4.596-4.036-3.994-7.919c0.602-3.883,1.991-10.159,1.991-10.159"/>
<path style="fill:none;stroke:#000000;stroke-width:2;stroke-linecap:round;stroke-linejoin:round;stroke-miterlimit:10;" d="
	M11.922,61.209c0,0,4.64-1.609,5.723,1.577c1.083,3.187-0.372,5.373,2.626,5.275c2.998-0.098,3.01-4.742,5.449-2.273
	c2.439,2.469-0.099,6.19-2.594,8.996c-2.495,2.806-3.085,5.155-3.085,5.155"/>
<line style="fill:none;stroke:#000000;stroke-width:2;stroke-linecap:round;stroke-linejoin:round;stroke-miterlimit:10;" x1="34.899" y1="37.964" x2="36.562" y2="33.766"/>
<line style="fill:none;stroke:#000000;stroke-width:2;stroke-linecap:round;stroke-linejoin:round;stroke-miterlimit:10;" x1="38.138" y1="39.564" x2="41.301" y2="33.527"/>
<line style="fill:none;stroke:#000000;stroke-width:2;stroke-linecap:round;stroke-linejoin:round;stroke-miterlimit:10;" x1="42.569" y1="40.042" x2="45.272" y2="34.31"/>
<line style="fill:none;stroke:#000000;stroke-width:2;stroke-linecap:round;stroke-linejoin:round;stroke-miterlimit:10;" x1="23.192" y1="44.165" x2="26.551" y2="42.043"/>
<line style="fill:none;stroke:#000000;stroke-width:2;stroke-linecap:round;stroke-linejoin:round;stroke-miterlimit:10;" x1="22.284" y1="67.54" x2="22.079" y2="69.642"/>
<line style="fill:none;stroke:#000000;stroke-width:2;stroke-linecap:round;stroke-linejoin:round;stroke-miterlimit:10;" x1="23.914" y1="78.907" x2="25.161" y2="77.268"/>
<line style="fill:none;stroke:#000000;stroke-width:2;stroke-linecap:round;stroke-linejoin:round;stroke-miterlimit:10;" x1="68.184" y1="53.498" x2="71.73" y2="54.17"/>
<line style="fill:none;stroke:#000000;stroke-width:2;stroke-linecap:round;stroke-linejoin:round;stroke-miterlimit:10;" x1="77.922" y1="57.717" x2="79.147" y2="61.263"/>
<line style="fill:none;stroke:#000000;stroke-width:2;stroke-linecap:round;stroke-linejoin:round;stroke-miterlimit:10;" x1="71.97" y1="68.007" x2="72.178" y2="63.537"/>
<line style="fill:none;stroke:#000000;stroke-width:2;stroke-linecap:round;stroke-linejoin:round;stroke-miterlimit:10;" x1="74.108" y1="69.764" x2="77.331" y2="68.051"/>
<line style="fill:none;stroke:#000000;stroke-width:2;stroke-linecap:round;stroke-linejoin:round;stroke-miterlimit:10;" x1="77.43" y1="72.576" x2="79.694" y2="69.792"/>
<line style="fill:none;stroke:#000000;stroke-width:2;stroke-linecap:round;stroke-linejoin:round;stroke-miterlimit:10;" x1="78.906" y1="75.067" x2="82.911" y2="71.913"/>
<line style="fill:none;stroke:#000000;stroke-width:2;stroke-linecap:round;stroke-linejoin:round;stroke-miterlimit:10;" x1="55.061" y1="71.77" x2="53.861" y2="68.291"/>
<path style="fill-rule:evenodd;clip-rule:evenodd;" d="M61.07,52.987c0.476-0.279,0.637-0.892,0.359-1.368
	c-0.279-0.476-0.892-0.637-1.368-0.358c-0.477,0.279-0.637,0.892-0.359,1.368C59.98,53.105,60.593,53.266,61.07,52.987z"/>
<path style="fill-rule:evenodd;clip-rule:evenodd;" d="M55.132,58.426c0.476-0.279,0.637-0.892,0.359-1.368
	c-0.279-0.476-0.892-0.637-1.368-0.359c-0.477,0.279-0.637,0.892-0.359,1.368C54.043,58.544,54.656,58.704,55.132,58.426z"/>
<path style="fill-rule:evenodd;clip-rule:evenodd;" d="M48.64,51.841c0.477-0.279,0.637-0.892,0.359-1.368
	c-0.279-0.476-0.892-0.637-1.368-0.359c-0.476,0.279-0.637,0.892-0.359,1.368C47.551,51.959,48.164,52.12,48.64,51.841z"/>
</svg>