<?xml version="1.0" encoding="iso-8859-1"?><!-- Generator: Adobe Illustrator 21.1.0, SVG Export Plug-In . SVG Version: 6.00 Build 0)  --><svg xmlns="http://www.w3.org/2000/svg" xmlns:xlink="http://www.w3.org/1999/xlink" viewBox="0 0 80 80" width="480px" height="480px"><g><polyline style="fill:none;stroke:#000000;stroke-width:2;stroke-linecap:round;stroke-miterlimit:10;stroke-dasharray:0.1,4;" points="33.423,24.121 15.251,15.251 24.121,33.422 "/><polyline style="fill:none;stroke:#000000;stroke-width:2;stroke-linecap:round;stroke-miterlimit:10;stroke-dasharray:0.1,4;" points="55.879,33.422 64.749,15.251 46.577,24.121 "/><polyline style="fill:none;stroke:#000000;stroke-width:2;stroke-linecap:round;stroke-miterlimit:10;stroke-dasharray:0.1,4;" points="46.577,55.879 64.749,64.749 55.879,46.577 "/><polyline style="fill:none;stroke:#000000;stroke-width:2;stroke-linecap:round;stroke-miterlimit:10;stroke-dasharray:0.1,4;" points="24.121,46.577 15.251,64.749 33.423,55.879 "/></g><polygon style="fill:none;stroke:#000000;stroke-width:2;stroke-linecap:round;stroke-linejoin:round;stroke-miterlimit:10;" points="48.958,31.042 40,5 31.042,31.042 5,40 31.042,48.958 40,75 48.958,48.958 75,40 "/><g><circle cx="40" cy="34" r="1"/><circle cx="43" cy="31" r="1"/><circle cx="46" cy="28" r="1"/><circle cx="40" cy="28" r="1"/><circle cx="40" cy="22" r="1"/><circle cx="43" cy="25" r="1"/><circle cx="40" cy="40" r="1"/><circle cx="43" cy="37" r="1"/><circle cx="46" cy="34" r="1"/><circle cx="40" cy="16" r="1"/><circle cx="43" cy="19" r="1"/></g><g><circle cx="40" cy="46" r="1"/><circle cx="37" cy="49" r="1"/><circle cx="34" cy="52" r="1"/><circle cx="40" cy="52" r="1"/><circle cx="40" cy="58" r="1"/><circle cx="37" cy="55" r="1"/><circle cx="37" cy="43" r="1"/><circle cx="34" cy="46" r="1"/><circle cx="40" cy="64" r="1"/><circle cx="37" cy="61" r="1"/></g><g><circle cx="46" cy="40" r="1"/><circle cx="49" cy="43" r="1"/><circle cx="52" cy="46" r="1"/><circle cx="52" cy="40" r="1"/><circle cx="58" cy="40" r="1"/><circle cx="55" cy="43" r="1"/><circle cx="43" cy="43" r="1"/><circle cx="46" cy="46" r="1"/><circle cx="64" cy="40" r="1"/><circle cx="61" cy="43" r="1"/></g><g><circle cx="34" cy="40" r="1"/><circle cx="31" cy="37" r="1"/><circle cx="28" cy="34" r="1"/><circle cx="28" cy="40" r="1"/><circle cx="22" cy="40" r="1"/><circle cx="25" cy="37" r="1"/><circle cx="37" cy="37" r="1"/><circle cx="34" cy="34" r="1"/><circle cx="16" cy="40" r="1"/><circle cx="19" cy="37" r="1"/></g></svg>