<?xml version="1.0" encoding="iso-8859-1"?><!-- Generator: Adobe Illustrator 21.1.0, SVG Export Plug-In . SVG Version: 6.00 Build 0)  --><svg xmlns="http://www.w3.org/2000/svg" xmlns:xlink="http://www.w3.org/1999/xlink" viewBox="0 0 64 64" width="512px" height="512px"><g><path d="M57.861,28.481C61.019,23.752,64,19.286,64,14.282c0-7.72-6.28-14-14-14c-4.508,0-8.513,2.15-11.075,5.469C35.749,4.594,32.416,4,29,4C19.819,4,11.627,8.293,6.31,14.972C6.259,15.023,6.2,15.065,6.16,15.128c-0.013,0.021-0.014,0.045-0.025,0.066C2.296,20.113,0,26.292,0,33c0,6.711,2.298,12.893,6.14,17.812c0.01,0.018,0.01,0.039,0.022,0.057c0.055,0.087,0.124,0.159,0.198,0.222C11.679,57.734,19.849,62,29,62c9.208,0,17.422-4.32,22.738-11.033c0.03-0.036,0.07-0.059,0.096-0.1c0.009-0.013,0.009-0.029,0.016-0.043C55.698,45.903,58,39.717,58,33c0-1.419-0.117-2.843-0.322-4.244C57.739,28.665,57.8,28.573,57.861,28.481z M37.785,7.463c-0.142,0.253-0.268,0.514-0.394,0.776c-0.428-0.475-0.87-0.899-1.319-1.297C36.647,7.098,37.219,7.268,37.785,7.463z M30,6.073c2.329,0.327,4.573,1.804,6.566,4.302C36.204,11.617,36,12.925,36,14.282c0,1.761,0.375,3.454,0.991,5.116c-2.264,0.344-4.606,0.538-6.991,0.581V6.073z M28,6.089v13.897c-3.811-0.068-7.477-0.517-10.811-1.311C19.545,11.589,23.558,6.73,28,6.089z M21.958,6.938c-2.791,2.465-5.137,6.359-6.727,11.218c-2.483-0.721-4.747-1.639-6.694-2.74C12.016,11.373,16.666,8.369,21.958,6.938z M8.537,50.584c1.947-1.101,4.211-2.018,6.695-2.74c1.591,4.859,3.937,8.753,6.728,11.218C16.666,57.631,12.016,54.627,8.537,50.584z M28,59.911c-4.442-0.642-8.455-5.5-10.81-12.586c3.333-0.793,7-1.243,10.81-1.311V59.911z M30,59.911V46.014c3.81,0.068,7.477,0.517,10.81,1.311C38.455,54.411,34.442,59.27,30,59.911z M36.041,59.063c2.791-2.465,5.137-6.359,6.728-11.218c2.483,0.721,4.747,1.639,6.695,2.74C45.984,54.627,41.334,57.631,36.041,59.063z M50.725,49.009c-2.139-1.243-4.636-2.277-7.385-3.077c0.663-2.426,1.148-5.052,1.417-7.836c0.054-0.55-0.35-1.039-0.899-1.091c-0.536-0.055-1.038,0.349-1.091,0.899c-0.258,2.665-0.736,5.18-1.377,7.507c-3.52-0.848-7.384-1.327-11.389-1.397V38c0-0.552-0.447-1-1-1s-1,0.448-1,1v6.014c-4.005,0.069-7.869,0.548-11.389,1.397c-0.641-2.327-1.12-4.842-1.377-7.507c-0.054-0.55-0.552-0.953-1.091-0.899c-0.55,0.053-0.953,0.542-0.899,1.091c0.269,2.783,0.755,5.41,1.417,7.836c-2.75,0.8-5.247,1.834-7.385,3.077C3.963,44.526,2,38.989,2,33c0-5.989,1.963-11.526,5.275-16.009c2.138,1.244,4.635,2.277,7.385,3.077c-0.663,2.426-1.148,5.052-1.417,7.836c-0.054,0.55,0.35,1.039,0.899,1.092C14.175,28.999,14.207,29,14.239,29c0.509,0,0.944-0.387,0.994-0.904c0.257-2.666,0.736-5.18,1.377-7.507c3.52,0.848,7.384,1.327,11.39,1.397V28c0,0.552,0.447,1,1,1s1-0.448,1-1v-6.02c2.663-0.046,5.28-0.271,7.8-0.679c1.148,2.395,2.718,4.752,4.337,7.178c0.564,0.846,1.132,1.697,1.687,2.557C43.359,31.122,43,31.51,43,32v2c0,0.552,0.447,1,1,1s1-0.448,1-1v-1.082c1.932,3.207,3.536,6.583,4.006,10.332c0.062,0.5,0.488,0.875,0.992,0.875s0.93-0.375,0.992-0.875c0.545-4.342,2.611-8.182,4.946-11.84C55.968,31.94,56,32.47,56,33C56,38.989,54.037,44.526,50.725,49.009z M49.999,38.71c-1.386-4.13-3.822-7.781-6.199-11.342C40.817,22.9,38,18.679,38,14.282c0-6.617,5.383-12,12-12s12,5.383,12,12c0,4.397-2.818,8.619-5.802,13.088C53.822,30.93,51.385,34.582,49.999,38.71z"/><path d="M4,31c-0.553,0-1,0.448-1,1v2c0,0.552,0.447,1,1,1s1-0.448,1-1v-2C5,31.448,4.553,31,4,31z"/><path d="M9,31c-0.553,0-1,0.448-1,1v2c0,0.552,0.447,1,1,1s1-0.448,1-1v-2C10,31.448,9.553,31,9,31z"/><path d="M14,31c-0.553,0-1,0.448-1,1v2c0,0.552,0.447,1,1,1s1-0.448,1-1v-2C15,31.448,14.553,31,14,31z"/><path d="M19,31c-0.553,0-1,0.448-1,1v2c0,0.552,0.447,1,1,1s1-0.448,1-1v-2C20,31.448,19.553,31,19,31z"/><path d="M24,31c-0.553,0-1,0.448-1,1v2c0,0.552,0.447,1,1,1s1-0.448,1-1v-2C25,31.448,24.553,31,24,31z"/><path d="M29,31c-0.553,0-1,0.448-1,1v2c0,0.552,0.447,1,1,1s1-0.448,1-1v-2C30,31.448,29.553,31,29,31z"/><path d="M34,31c-0.553,0-1,0.448-1,1v2c0,0.552,0.447,1,1,1s1-0.448,1-1v-2C35,31.448,34.553,31,34,31z"/><path d="M39,31c-0.553,0-1,0.448-1,1v2c0,0.552,0.447,1,1,1s1-0.448,1-1v-2C40,31.448,39.553,31,39,31z"/><circle cx="50" cy="14" r="2"/><path d="M55,13c-0.553,0-1,0.448-1,1c0,2.206-1.794,4-4,4s-4-1.794-4-4c0-1.759,1.127-3.294,2.805-3.818c0.526-0.165,0.82-0.726,0.655-1.253c-0.165-0.527-0.725-0.82-1.253-0.656C45.69,9.06,44,11.361,44,14c0,3.309,2.691,6,6,6s6-2.691,6-6C56,13.448,55.553,13,55,13z"/><path d="M51.479,10.282c0.544,0.216,1.044,0.559,1.446,0.99c0.197,0.211,0.464,0.318,0.731,0.318c0.244,0,0.489-0.089,0.682-0.269c0.404-0.377,0.427-1.01,0.05-1.414c-0.603-0.646-1.354-1.159-2.171-1.484c-0.512-0.205-1.095,0.046-1.298,0.56C50.714,9.496,50.965,10.078,51.479,10.282z"/></g></svg>