<?xml version="1.0" encoding="iso-8859-1"?>
<!-- Generator: Adobe Illustrator 23.0.3, SVG Export Plug-In . SVG Version: 6.00 Build 0)  -->
<svg version="1.1" id="Layer_1" xmlns="http://www.w3.org/2000/svg" xmlns:xlink="http://www.w3.org/1999/xlink" x="0px" y="0px"
	 viewBox="0 0 50 50" style="enable-background:new 0 0 50 50;" xml:space="preserve">
<path d="M25,1C16.178,1,9,8.178,9,17c0,13.813,14.62,30.931,15.242,31.653c0.189,0.219,0.464,0.346,0.754,0.347
	c0.001,0,0.003,0,0.004,0c0.288,0,0.562-0.124,0.752-0.341C26.374,47.949,41,31.114,41,17C41,8.178,33.822,1,25,1z M26,28.942V31h-2
	v-2.07c-3.92-0.513-5-4.01-5-5.93h2c0.004,0.405,0.147,4,4,4c3.954,0,4-2.878,4-3c0-1.718-1.463-2.351-3.849-3.239
	C22.856,19.906,20,18.842,20,15.647c0-1.461,0.872-4.099,4-4.568V9h2v2.086c3.128,0.504,4,3.342,4,4.914h-1l-1,0.006
	C27.994,15.504,27.823,13,25,13c-2.916,0-3,2.377-3,2.647c0,1.718,1.463,2.351,3.849,3.239C28.144,19.741,31,20.806,31,24
	C31,25.6,29.92,28.515,26,28.942z"/>
</svg>