<?xml version="1.0" encoding="iso-8859-1"?><!-- Generator: Adobe Illustrator 21.1.0, SVG Export Plug-In . SVG Version: 6.00 Build 0)  --><svg xmlns="http://www.w3.org/2000/svg" xmlns:xlink="http://www.w3.org/1999/xlink" viewBox="0 0 64 64" width="512px" height="512px"><g><path d="M8,19c0-0.552-0.447-1-1-1H1c-0.553,0-1,0.448-1,1s0.447,1,1,1h6C7.553,20,8,19.552,8,19z"/><path d="M63,18h-6c-0.553,0-1,0.448-1,1s0.447,1,1,1h6c0.553,0,1-0.448,1-1S63.553,18,63,18z"/><path d="M8.374,27.063l-3.709,1.498c-0.513,0.207-0.76,0.79-0.553,1.302c0.157,0.389,0.531,0.626,0.927,0.626c0.125,0,0.252-0.024,0.374-0.073l3.709-1.498c0.513-0.207,0.76-0.79,0.553-1.302C9.469,27.104,8.883,26.857,8.374,27.063z"/><path d="M55.252,11.01c0.125,0,0.252-0.024,0.374-0.073l3.709-1.498c0.513-0.207,0.76-0.79,0.553-1.302c-0.206-0.512-0.792-0.758-1.301-0.553l-3.709,1.498c-0.513,0.207-0.76,0.79-0.553,1.302C54.482,10.773,54.856,11.01,55.252,11.01z"/><path d="M9.122,9.082L5.413,7.584C4.906,7.379,4.319,7.625,4.112,8.137c-0.207,0.512,0.04,1.095,0.553,1.302l3.709,1.498c0.122,0.049,0.249,0.073,0.374,0.073c0.396,0,0.77-0.237,0.927-0.626C9.882,9.872,9.635,9.289,9.122,9.082z"/><path d="M59.335,28.562l-3.709-1.498c-0.507-0.206-1.094,0.041-1.301,0.553s0.04,1.095,0.553,1.302l3.709,1.498c0.122,0.049,0.249,0.073,0.374,0.073c0.396,0,0.77-0.237,0.927-0.626C60.095,29.351,59.848,28.769,59.335,28.562z"/><path d="M31.952,0C20.95,0,12,8.95,12,19.952c0,7.154,4.308,13.608,8.868,20.442c4.458,6.679,9.067,13.585,10.088,21.731c0.062,0.5,0.488,0.875,0.992,0.875s0.93-0.375,0.992-0.875c1.023-8.145,5.634-15.05,10.091-21.728c4.562-6.834,8.872-13.29,8.872-20.445C51.903,8.95,42.953,0,31.952,0z M41.368,39.287c-3.712,5.56-7.525,11.272-9.419,17.814c-1.893-6.542-5.706-12.257-9.417-17.817C18.145,32.709,14,26.5,14,19.952C14,10.053,22.054,2,31.952,2s17.951,8.053,17.951,17.952C49.903,26.501,45.758,32.711,41.368,39.287z"/><path d="M26,20c0,3.309,2.691,6,6,6s6-2.691,6-6s-2.691-6-6-6S26,16.691,26,20z M32,16c2.206,0,4,1.794,4,4s-1.794,4-4,4s-4-1.794-4-4S29.794,16,32,16z"/><path d="M40.386,16.567c-0.532,0.15-0.841,0.703-0.69,1.234c1.048,3.71-0.707,7.64-4.173,9.344c-3.957,1.945-8.763,0.311-10.709-3.648c-1.946-3.958-0.31-8.763,3.648-10.709c0.83-0.409,1.714-0.668,2.625-0.772c0.549-0.063,0.943-0.559,0.88-1.107c-0.062-0.549-0.567-0.947-1.106-0.88c-1.141,0.13-2.244,0.455-3.281,0.965c-4.947,2.434-6.993,8.438-4.561,13.387c1.737,3.533,5.295,5.586,8.99,5.586c1.479,0,2.981-0.33,4.396-1.025c4.332-2.13,6.525-7.044,5.214-11.683C41.47,16.726,40.911,16.42,40.386,16.567z"/><path d="M34.938,12.529c0.976,0.386,1.851,0.948,2.602,1.67c0.194,0.187,0.443,0.279,0.693,0.279c0.263,0,0.524-0.103,0.721-0.307c0.383-0.398,0.371-1.031-0.027-1.414c-0.939-0.903-2.033-1.606-3.252-2.088c-0.513-0.202-1.095,0.047-1.298,0.562C34.174,11.745,34.425,12.326,34.938,12.529z"/></g></svg>