<?xml version="1.0" encoding="utf-8"?><!-- Generator: Adobe Illustrator 21.0.0, SVG Export Plug-In . SVG Version: 6.00 Build 0)  --><svg xmlns="http://www.w3.org/2000/svg" xmlns:xlink="http://www.w3.org/1999/xlink" viewBox="0 0 100 100" width="400px" height="400px"><g id="wind_sock"></g><g id="umbrella"></g><g id="temperature"></g><g id="snow_rain_night"></g><g id="snow_rain_day"></g><g id="windy_day"></g><g id="windy_night"></g><g id="storm_night"></g><g id="clear_night"></g><g id="snow_night"></g><g id="snow_day"></g><g id="snow_rain"></g><g id="foggy_night"></g><g id="cloudy_night"></g><g id="rain"></g><g id="storm"></g><g id="fog"></g><g id="wind"></g><g id="cloudy"></g><g id="sun"></g><g id="explorer"></g><g id="visio"></g><g id="access"></g><g id="note"></g><g id="outlook"></g><g id="pdf"></g><g id="power_point"></g><g id="exel"></g><g id="word"></g><g id="office"></g><g id="bridge"></g><g id="muse"></g><g id="flash"></g><g id="premiere"></g><g id="after_effects"></g><g id="dreamwever"></g><g id="indesign"></g><g id="lightroom"></g><g id="illustrator"></g><g id="photoshop"></g><g id="presentation"></g><g id="microphone"></g><g id="globe"><g><path d="M37.707,62.627c2.434,0.946,4.971,1.417,7.505,1.417c2.833,0,5.662-0.59,8.334-1.766c5.06-2.228,8.949-6.292,10.952-11.445c2.003-5.153,1.879-10.778-0.349-15.839c-2.228-5.06-6.293-8.949-11.445-10.952c-5.154-2.005-10.778-1.88-15.839,0.349c-5.06,2.228-8.949,6.293-10.952,11.445c-2.003,5.153-1.879,10.778,0.349,15.839C28.489,56.735,32.554,60.624,37.707,62.627z M33.31,45.413c2.416,0.788,4.664,2.072,6.581,3.805c0.026,0.023,0.047,0.05,0.073,0.073l-7.209,7.98c-0.009-0.008-0.018-0.015-0.026-0.023C32.008,53.12,32.227,49.082,33.31,45.413z M58.244,29.927c0.716,4.009,0.545,7.934-0.441,11.522c-2.329-0.66-4.513-1.775-6.425-3.301l1.826-2.021c0.185-0.205,0.169-0.521-0.036-0.706c-0.204-0.184-0.521-0.169-0.706,0.036l-1.861,2.06c-0.026-0.023-0.055-0.042-0.08-0.065c-1.916-1.732-3.423-3.839-4.452-6.162c3.541-1.45,7.537-2.077,11.722-1.777C57.941,29.651,58.097,29.784,58.244,29.927z M41.34,49.259l4.348-4.814l6.958,6.286c-1.999,2.125-4.404,3.81-7.096,5.005C44.603,53.327,43.178,51.123,41.34,49.259z M44.628,56.119c-3.347,1.318-7.09,1.906-11.006,1.683l7.047-7.801C42.397,51.764,43.735,53.845,44.628,56.119z M46.359,43.703l4.344-4.808c2.026,1.628,4.341,2.831,6.814,3.534c-0.9,2.792-2.315,5.351-4.203,7.557L46.359,43.703z M49.849,38.194c0.026,0.023,0.054,0.042,0.08,0.065l-4.312,4.773l-7.224-6.526c1.917-2.023,4.204-3.642,6.756-4.818C46.235,34.142,47.826,36.367,49.849,38.194z M44.947,43.775l-4.313,4.774c-0.025-0.023-0.047-0.05-0.073-0.073c-2.024-1.829-4.397-3.186-6.946-4.017c0.911-2.658,2.29-5.098,4.108-7.209L44.947,43.775z M38.431,60.763c-1.307-0.508-2.526-1.163-3.662-1.925c0.156,0.003,0.315,0.02,0.47,0.02c3.451,0,6.748-0.624,9.746-1.803c0.527,1.592,0.822,3.263,0.9,4.966C43.373,62.112,40.845,61.701,38.431,60.763z M52.739,60.448c-1.887,0.831-3.863,1.319-5.858,1.501c-0.086-1.811-0.406-3.587-0.974-5.279c2.838-1.253,5.376-3.025,7.483-5.268l2.115,1.91c0.096,0.086,0.215,0.129,0.335,0.129c0.137,0,0.272-0.056,0.371-0.165c0.185-0.205,0.169-0.521-0.036-0.706l-2.119-1.914c2.001-2.333,3.498-5.041,4.44-7.995c1.418,0.324,2.871,0.511,4.342,0.511c0.354,0,0.711-0.036,1.067-0.055c0.027,2.359-0.39,4.726-1.271,6.992C60.825,54.764,57.31,58.436,52.739,60.448z M62.319,35.801c0.895,2.032,1.392,4.167,1.533,6.318c-1.72,0.094-3.43-0.037-5.083-0.41c0.903-3.288,1.15-6.844,0.685-10.489C60.61,32.583,61.578,34.119,62.319,35.801z M45.2,24.626c2.289,0,4.581,0.426,6.779,1.28c1.646,0.639,3.161,1.502,4.531,2.539c-3.843-0.103-7.509,0.563-10.803,1.909c-0.687-1.81-1.09-3.727-1.181-5.694C44.751,24.653,44.975,24.626,45.2,24.626z M37.671,26.221c1.887-0.831,3.862-1.326,5.858-1.508c0.098,2.087,0.528,4.12,1.261,6.039c-2.697,1.235-5.115,2.944-7.139,5.085l-5.987-5.409C33.345,28.664,35.374,27.232,37.671,26.221z M31.009,31.184l5.972,5.395c-1.925,2.23-3.38,4.809-4.334,7.617c-1.983-0.535-4.052-0.757-6.141-0.642c-0.027-2.36,0.39-4.727,1.271-6.994C28.552,34.565,29.657,32.765,31.009,31.184z M26.558,44.552c1.968-0.106,3.917,0.1,5.786,0.6c-1.003,3.409-1.293,7.119-0.807,10.926c-1.411-1.515-2.587-3.259-3.446-5.209C27.197,48.837,26.7,46.703,26.558,44.552z"/><path d="M46.929,71.337v-2.129c7.159-0.586,14.141-4.274,18.786-10.694c5.846-8.078,6.628-18.751,1.99-27.189c-0.949-1.727-2.097-3.299-3.418-4.714l0.494-0.494c0.33-0.33,0.512-0.77,0.511-1.238c0-0.469-0.182-0.908-0.511-1.236c-0.682-0.682-1.793-0.682-2.475,0l-0.593,0.593c-0.272-0.216-0.546-0.43-0.829-0.635c-0.447-0.323-1.071-0.224-1.396,0.225c-0.323,0.447-0.223,1.072,0.225,1.396c2.597,1.879,4.696,4.256,6.241,7.066c4.266,7.765,3.536,17.599-1.859,25.055c-7.581,10.475-21.884,13.111-31.882,5.875c-0.861-0.623-1.683-1.314-2.438-2.054c-0.395-0.386-1.028-0.379-1.414,0.016c-0.387,0.396-0.379,1.028,0.016,1.414c0.826,0.809,1.724,1.563,2.665,2.245c4.167,3.016,9.017,4.462,13.878,4.462c0.337,0,0.674-0.016,1.011-0.03v2.067c-9.72,0.07-19.394,2.169-19.394,6.123c0,0.029,0.008,0.124,0.011,0.153c0.045,0.517,0.478,0.913,0.996,0.913h37.773c0.505,0,0.934-0.406,0.995-0.907c0.005-0.041,0.011-0.118,0.011-0.159C66.322,73.506,56.65,71.407,46.929,71.337z M63.013,24.35c0.293-0.293,0.768-0.293,1.061,0c0.141,0.141,0.218,0.328,0.218,0.529c0.001,0.202-0.077,0.391-0.218,0.531l-0.483,0.483c-0.356-0.35-0.725-0.688-1.105-1.016L63.013,24.35z M29.239,76.527c1.941-1.421,7.855-3.192,17.19-3.192c9.437,0,15.377,1.811,17.254,3.192H29.239z"/><path d="M57.29,53.902c-0.2-0.188-0.517-0.177-0.706,0.026c-0.188,0.202-0.177,0.519,0.026,0.706l0.875,0.812c0.096,0.09,0.218,0.134,0.34,0.134c0.134,0,0.268-0.054,0.366-0.16c0.188-0.202,0.177-0.519-0.026-0.706L57.29,53.902z"/><path d="M53.722,33.931c-0.188,0.202-0.177,0.519,0.026,0.706c0.096,0.09,0.218,0.134,0.34,0.134c0.134,0,0.268-0.054,0.366-0.16l1.353-1.458c0.188-0.202,0.177-0.519-0.026-0.706c-0.2-0.188-0.517-0.176-0.706,0.026L53.722,33.931z"/><path d="M56.485,32.243c0.134,0,0.268-0.054,0.366-0.16l0.338-0.364c0.188-0.202,0.177-0.519-0.026-0.706c-0.2-0.188-0.519-0.177-0.706,0.026l-0.338,0.364c-0.188,0.202-0.177,0.519,0.026,0.706C56.241,32.199,56.363,32.243,56.485,32.243z"/></g></g><g id="password"></g><g id="break_link"></g><g id="link"></g><g id="tap"></g><g id="down"></g><g id="top"></g><g id="direction"></g><g id="move"></g><g id="click"></g><g id="point"></g><g id="like"></g><g id="support"></g><g id="wifi"></g><g id="music"></g><g id="more"></g><g id="visible"></g><g id="error"></g><g id="list"></g><g id="grid"></g><g id="favorite"></g><g id="exit"></g><g id="power"></g><g id="delete"></g><g id="msg"></g><g id="info"></g><g id="help"></g><g id="warning"></g><g id="cassete"></g><g id="piano"></g><g id="speaker"></g><g id="attention"></g><g id="crown"></g><g id="prize"></g><g id="medal"></g><g id="alarm"></g><g id="stopper"></g><g id="flag"></g><g id="snapchat"></g><g id="dribbble"></g><g id="flickr"></g><g id="youtube"></g><g id="skype"></g><g id="twitter"></g><g id="instagram"></g><g id="linkedin"></g><g id="vimeo"></g><g id="tumbler"></g><g id="google"></g><g id="whatsapp"></g><g id="facebook"></g><g id="curve"></g><g id="paint_bucket"></g><g id="roller"></g><g id="switch"></g><g id="scissors"></g><g id="picker"></g><g id="brush"></g></svg>