<?xml version="1.0" encoding="utf-8"?>
<!-- Generator: Adobe Illustrator 25.2.3, SVG Export Plug-In . SVG Version: 6.00 Build 0)  -->
<svg version="1.1" id="Layer_1" xmlns="http://www.w3.org/2000/svg" xmlns:xlink="http://www.w3.org/1999/xlink" x="0px" y="0px"
	 viewBox="0 0 64 64" style="enable-background:new 0 0 64 64;" xml:space="preserve">
<path d="M44,19c-8.8,0-16,7.2-16,16c0,4,1.5,7.7,3.9,10.5L44,59l12.1-13.5C58.5,42.7,60,39,60,35C60,26.2,52.8,19,44,19z M44,41
	c-3.3,0-6-2.7-6-6s2.7-6,6-6s6,2.7,6,6S47.3,41,44,41z"/>
<path d="M19,5C12.9,5,8,9.9,8,16c0,2.8,1,5.3,2.7,7.2L19,33l8.3-9.8C29,21.3,30,18.8,30,16C30,9.9,25.1,5,19,5z M19,20
	c-2.2,0-4-1.8-4-4s1.8-4,4-4s4,1.8,4,4S21.2,20,19,20z"/>
<polygon points="36.3,55 10,55 10,48 10,48 18,44.2 18,42.1 10.3,33 15.7,33 13.4,30 6,30 6,32.5 14.5,42.6 6,46 6,59 39.4,59 "/>
</svg>