<?xml version="1.0" encoding="iso-8859-1"?>
<!-- Generator: Adobe Illustrator 25.0.0, SVG Export Plug-In . SVG Version: 6.00 Build 0)  -->
<svg version="1.1" id="Layer_1" xmlns="http://www.w3.org/2000/svg" xmlns:xlink="http://www.w3.org/1999/xlink" x="0px" y="0px"
	 viewBox="0 0 48 48" style="enable-background:new 0 0 48 48;" xml:space="preserve">
<path d="M41.884,38.488l-1.437-6.225c-0.483-2.09-2.097-3.639-4.109-4.104c-0.061,0.074-1.289,1.53-2.43,2.841h1.18
	c1.171,0,2.173,0.797,2.436,1.938l1.437,6.225c0.104,0.448-0.001,0.912-0.288,1.271C38.386,40.794,37.958,41,37.499,41H10.501
	c-0.459,0-0.887-0.206-1.173-0.566c-0.287-0.359-0.392-0.823-0.288-1.271l1.437-6.225C10.739,31.797,11.741,31,12.912,31h1.195
	c-1.137-1.3-2.381-2.765-2.444-2.841c-2.012,0.465-3.627,2.014-4.11,4.105l-1.437,6.225c-0.31,1.344,0.005,2.734,0.864,3.813
	C7.839,43.381,9.122,44,10.501,44h26.998c1.379,0,2.662-0.619,3.521-1.698C41.879,41.223,42.193,39.832,41.884,38.488z"/>
<path d="M24,4c-7.72,0-14,6.28-14,14c0,3.324,1.192,6.551,3.361,9.088c0.244,0.284,6.004,6.984,7.938,8.828
	C22.057,36.639,23.028,37,24,37s1.943-0.361,2.7-1.083c2.248-2.145,7.712-8.563,7.941-8.832C36.808,24.551,38,21.324,38,18
	C38,10.28,31.72,4,24,4z M24,29c-1.105,0-2-0.895-2-2c0-1.105,0.895-2,2-2s2,0.895,2,2C26,28.105,25.105,29,24,29z M26.727,19.389
	C25.936,20.066,25.5,20.439,25.5,21.5c0,0.828-0.672,1.5-1.5,1.5s-1.5-0.672-1.5-1.5c0-2.439,1.314-3.566,2.273-4.389
	C25.564,16.434,26,16.061,26,15c0-1.103-0.897-2-2-2s-2,0.897-2,2v0.389c0,0.828-0.672,1.5-1.5,1.5s-1.5-0.672-1.5-1.5V15
	c0-2.757,2.243-5,5-5s5,2.243,5,5C29,17.439,27.686,18.566,26.727,19.389z"/>
</svg>