<?xml version="1.0" encoding="iso-8859-1"?>
<!-- Generator: Adobe Illustrator 23.1.0, SVG Export Plug-In . SVG Version: 6.00 Build 0)  -->
<svg version="1.1" id="Layer_1" xmlns="http://www.w3.org/2000/svg" xmlns:xlink="http://www.w3.org/1999/xlink" x="0px" y="0px"
	 viewBox="0 0 50 50" style="enable-background:new 0 0 50 50;" xml:space="preserve">
<g>
	<g>
		<path d="M25.383,15.273c3.649,0,6.087,2.104,6.087,5.049c0,2.038-1.013,3.463-2.824,4.542c-1.746,1.025-2.239,1.705-2.239,3.023
			v0.76h-3.09l-0.014-0.907c-0.119-1.998,0.653-3.197,2.491-4.276c1.652-0.997,2.211-1.705,2.211-3.023
			c0-1.384-1.12-2.384-2.798-2.384c-1.719,0-2.824,1.038-2.931,2.663h-3.13C19.255,17.564,21.425,15.273,25.383,15.273z
			 M22.798,32.882c0-1.292,0.88-2.131,2.211-2.131c1.359,0,2.211,0.839,2.211,2.131c0,1.279-0.853,2.118-2.211,2.118
			C23.678,35,22.798,34.161,22.798,32.882z"/>
	</g>
</g>
<polygon style="fill:none;stroke:#000000;stroke-width:2;stroke-linecap:round;stroke-linejoin:round;" points="40,26 47,26 47,8 
	11,8 3,17 11,26 4,26 4,44 40,44 48,35 "/>
<line style="fill:none;stroke:#000000;stroke-width:2;stroke-linecap:round;stroke-linejoin:round;" x1="11" y1="26" x2="18" y2="26"/>
<line style="fill:none;stroke:#000000;stroke-width:2;stroke-linecap:round;stroke-linejoin:round;" x1="33" y1="26" x2="41" y2="26"/>
</svg>