<?xml version="1.0" encoding="iso-8859-1"?>
<!-- Generator: Adobe Illustrator 22.1.0, SVG Export Plug-In . SVG Version: 6.00 Build 0)  -->
<svg version="1.1" id="Layer_1" xmlns="http://www.w3.org/2000/svg" xmlns:xlink="http://www.w3.org/1999/xlink" x="0px" y="0px"
	 viewBox="0 0 100 100" style="enable-background:new 0 0 100 100;" xml:space="preserve">
<path style="fill:none;stroke:#000000;stroke-width:2;stroke-linejoin:round;stroke-miterlimit:10;" d="M90.97,26.959
	C90.97,38,75.985,53,75.985,53S61,38,61,26.959C61,18.698,67.71,12,75.985,12S90.97,18.698,90.97,26.959z"/>
<ellipse style="fill:none;stroke:#000000;stroke-linecap:round;stroke-miterlimit:10;" cx="49.5" cy="50.5" rx="8" ry="33"/>
<line style="fill:none;stroke:#000000;stroke-linecap:round;stroke-miterlimit:10;" x1="16.375" y1="50.5" x2="69.5" y2="50.5"/>
<line style="fill:none;stroke:#000000;stroke-linecap:round;stroke-miterlimit:10;" x1="22" y1="31.5" x2="58.5" y2="31.5"/>
<line style="fill:none;stroke:#000000;stroke-linecap:round;stroke-miterlimit:10;" x1="22" y1="69.5" x2="77" y2="69.5"/>
<path style="fill:none;stroke:#000000;stroke-width:2;stroke-miterlimit:10;" d="M62.845,19.77C58.755,17.992,54.244,17,49.5,17
	C30.998,17,16,31.999,16,50.5S30.998,84,49.5,84S83,69.001,83,50.5c0-1.979-0.181-3.914-0.51-5.799"/>
<path style="fill:none;stroke:#000000;stroke-miterlimit:10;" d="M76,35.5c-4.686,0-8.5-3.814-8.5-8.5s3.814-8.5,8.5-8.5
	s8.5,3.814,8.5,8.5S80.686,35.5,76,35.5z"/>
<path style="fill:none;stroke:#000000;stroke-linecap:round;stroke-miterlimit:10;" d="M49.5,17.5c-12.703,0-23,14.775-23,33
	s10.297,33,23,33c11.758,0,21.449-12.662,22.826-29"/>
<path style="fill:none;stroke:#000000;stroke-linecap:round;stroke-miterlimit:10;" d="M80.5,16.419
	C79.117,15.828,77.596,15.5,76,15.5c-6.34,0-11.5,5.16-11.5,11.5S69.66,38.5,76,38.5c6.171,0,11.21-4.893,11.475-11"/>
<path style="fill:none;stroke:#000000;stroke-linecap:round;stroke-miterlimit:10;" d="M84.698,19.5
	c-0.646-0.748-1.382-1.415-2.198-1.977"/>
<path style="fill:none;stroke:#000000;stroke-linecap:round;stroke-miterlimit:10;" d="M86.951,23.5
	c-0.109-0.34-0.234-0.674-0.373-1"/>
</svg>