<?xml version="1.0" encoding="iso-8859-1"?>
<!-- Generator: Adobe Illustrator 24.2.3, SVG Export Plug-In . SVG Version: 6.00 Build 0)  -->
<svg version="1.1" id="Layer_1" xmlns="http://www.w3.org/2000/svg" xmlns:xlink="http://www.w3.org/1999/xlink" x="0px" y="0px"
	 viewBox="0 0 48 48" style="enable-background:new 0 0 48 48;" xml:space="preserve">
<path d="M24,4c-7.72,0-14,6.28-14,14c0,3.324,1.193,6.55,3.362,9.088c0.244,0.284,6.003,6.983,7.938,8.829
	C22.057,36.639,23.028,37,24,37s1.943-0.361,2.701-1.083c2.248-2.144,7.711-8.562,7.94-8.832C36.807,24.55,38,21.324,38,18
	C38,10.28,31.72,4,24,4z M24,23c-2.761,0-5-2.239-5-5c0-2.761,2.239-5,5-5s5,2.239,5,5C29,20.761,26.761,23,24,23z"/>
<path d="M35.233,29.443c-0.578,0.656-1.369,1.55-2.24,2.521C37.419,33.005,40,34.691,40,36c0,2.039-6.233,5-16,5S8,38.039,8,36
	c0-1.31,2.586-2.998,7.019-4.039c-0.867-0.965-1.664-1.86-2.248-2.519C8.226,30.755,5,32.953,5,36c0,5.252,9.558,8,19,8
	s19-2.748,19-8C43,32.954,39.776,30.757,35.233,29.443z"/>
</svg>