<?xml version="1.0" encoding="iso-8859-1"?>
<!-- Generator: Adobe Illustrator 23.0.3, SVG Export Plug-In . SVG Version: 6.00 Build 0)  -->
<svg version="1.1" id="Layer_1" xmlns="http://www.w3.org/2000/svg" xmlns:xlink="http://www.w3.org/1999/xlink" x="0px" y="0px"
	 viewBox="0 0 50 50" style="enable-background:new 0 0 50 50;" xml:space="preserve">
<polyline style="fill:none;stroke:#000000;stroke-width:2;stroke-linecap:round;stroke-miterlimit:10;" points="14,15 6,15 6,7 "/>
<polyline style="fill:none;stroke:#000000;stroke-width:2;stroke-linecap:round;stroke-miterlimit:10;" points="36,35.001 44,35 
	44,43 "/>
<path style="fill:none;stroke:#000000;stroke-width:2;stroke-linecap:round;stroke-miterlimit:10;" d="M43.495,35
	C39.949,41.576,32.997,46,25,46C13.402,46,4,36.598,4,25"/>
<path style="fill:none;stroke:#000000;stroke-width:2;stroke-linecap:round;stroke-miterlimit:10;" d="M6.529,15
	C10.084,8.448,17.023,4,25,4c11.598,0,21,9.402,21,21"/>
<g>
	<path d="M25,13c-4.95,0-9,4.275-9,9.45c0,6.3,9,15.862,9,15.862s9-9.563,9-15.862C34,17.275,29.95,13,25,13z M25,25
		c-1.657,0-3-1.343-3-3s1.343-3,3-3s3,1.343,3,3S26.657,25,25,25z"/>
</g>
</svg>