<?xml version="1.0" encoding="iso-8859-1"?>
<!-- Generator: Adobe Illustrator 25.0.0, SVG Export Plug-In . SVG Version: 6.00 Build 0)  -->
<svg version="1.1" id="Layer_1" xmlns="http://www.w3.org/2000/svg" xmlns:xlink="http://www.w3.org/1999/xlink" x="0px" y="0px"
	 viewBox="0 0 48 48" style="enable-background:new 0 0 48 48;" xml:space="preserve">
<circle style="fill:none;stroke:#000000;stroke-width:3;stroke-linecap:round;stroke-linejoin:round;stroke-miterlimit:10;" cx="27" cy="13" r="7.5"/>
<ellipse style="fill:none;stroke:#000000;stroke-width:3;stroke-linecap:round;stroke-linejoin:round;stroke-miterlimit:10;" cx="27" cy="13" rx="2.5" ry="7.5"/>
<path d="M43.367,21.005c-1.026,0-2.152,0.675-4.546,1.917c-1.983,1.03-3.817,2.009-4.982,2.723C33.94,26.083,34,26.537,34,27.005
	c0,3.309-2.692,6-6,6h-7.5c-0.828,0-1.5-0.671-1.5-1.5c0-0.829,0.672-1.5,1.5-1.5H28c1.654,0,3-1.346,3-3
	c0-0.897-0.404-1.694-1.03-2.245c-0.711-0.47-1.555-0.755-2.47-0.755h-4.393H22.5c-0.029,0-0.056-0.007-0.085-0.009
	c-2.636-0.041-3.902-0.313-5.015-0.558c-1.012-0.223-1.968-0.433-3.573-0.433c-7.332,0-11.518,9.001-11.692,9.384
	c-0.226,0.496-0.165,1.074,0.158,1.512l7,9.494C9.578,43.782,10.027,44,10.497,44c0.095,0,0.189-0.009,0.284-0.027
	c0.566-0.108,1.024-0.536,1.171-1.093c0.079-0.295,0.843-2.875,3.548-2.875c1.952,0,3.971,0.252,5.924,0.495
	c1.989,0.249,4.047,0.505,6.076,0.505c2.763,0,4.752-2.119,10.5-8c7.302-7.471,8-8.124,8-9.605
	C46,22.118,44.875,21.005,43.367,21.005"/>
</svg>