<?xml version="1.0" encoding="iso-8859-1"?><!-- Generator: Adobe Illustrator 21.1.0, SVG Export Plug-In . SVG Version: 6.00 Build 0)  --><svg xmlns="http://www.w3.org/2000/svg" xmlns:xlink="http://www.w3.org/1999/xlink" viewBox="0 0 64 64" width="512px" height="512px"><g><path d="M14,4C7.383,4,2,9.361,2,15.952C2,20.215,4.535,23.997,7.219,28c2.561,3.818,5.207,7.767,5.787,12.375c0.062,0.5,0.488,0.875,0.992,0.875s0.929-0.375,0.992-0.875c0.582-4.607,3.229-8.555,5.789-12.374C23.464,23.998,26,20.216,26,15.952C26,9.361,20.617,4,14,4z M19.118,26.889c-1.937,2.889-3.921,5.848-5.119,9.173c-1.198-3.326-3.182-6.286-5.119-9.175C6.37,23.143,4,19.606,4,15.952C4,10.464,8.486,6,14,6s10,4.464,10,9.952C24,19.607,21.629,23.144,19.118,26.889z"/><path d="M50,24c-6.617,0-12,5.361-12,11.952c0,4.263,2.535,8.045,5.219,12.049c2.561,3.818,5.207,7.767,5.787,12.375c0.062,0.5,0.488,0.875,0.992,0.875s0.929-0.375,0.992-0.875c0.582-4.607,3.229-8.555,5.789-12.374C59.464,43.998,62,40.216,62,35.952C62,29.361,56.617,24,50,24z M55.118,46.889c-1.937,2.889-3.921,5.848-5.119,9.173c-1.198-3.326-3.182-6.286-5.119-9.175C42.37,43.143,40,39.606,40,35.952C40,30.464,44.486,26,50,26s10,4.464,10,9.952C60,39.607,57.629,43.144,55.118,46.889z"/><path d="M30,34c-0.553,0-1,0.448-1,1v2c0,0.552,0.447,1,1,1s1-0.448,1-1v-2C31,34.448,30.553,34,30,34z"/><path d="M35,34c-0.553,0-1,0.448-1,1v2c0,0.552,0.447,1,1,1s1-0.448,1-1v-2C36,34.448,35.553,34,35,34z"/><path d="M20,34c-0.553,0-1,0.448-1,1v2c0,0.552,0.447,1,1,1s1-0.448,1-1v-2C21,34.448,20.553,34,20,34z"/><path d="M25,34c-0.553,0-1,0.448-1,1v2c0,0.552,0.447,1,1,1s1-0.448,1-1v-2C26,34.448,25.553,34,25,34z"/><circle cx="50" cy="36" r="2"/><path d="M55,35c-0.553,0-1,0.448-1,1c0,2.206-1.794,4-4,4s-4-1.794-4-4c0-1.759,1.127-3.294,2.805-3.818c0.526-0.165,0.82-0.726,0.655-1.253s-0.723-0.821-1.253-0.656C45.69,31.06,44,33.361,44,36c0,3.309,2.691,6,6,6s6-2.691,6-6C56,35.448,55.553,35,55,35z"/><path d="M51.479,32.282c0.544,0.216,1.044,0.559,1.446,0.99c0.197,0.211,0.464,0.318,0.731,0.318c0.244,0,0.489-0.089,0.682-0.269c0.404-0.377,0.427-1.01,0.05-1.414c-0.603-0.646-1.354-1.159-2.171-1.484c-0.512-0.205-1.095,0.046-1.298,0.56C50.714,31.496,50.965,32.078,51.479,32.282z"/><circle cx="14" cy="16" r="2"/><path d="M19,15c-0.553,0-1,0.448-1,1c0,2.206-1.794,4-4,4s-4-1.794-4-4c0-1.759,1.127-3.294,2.805-3.818c0.526-0.165,0.82-0.726,0.655-1.253s-0.723-0.821-1.253-0.656C9.69,11.06,8,13.361,8,16c0,3.309,2.691,6,6,6s6-2.691,6-6C20,15.448,19.553,15,19,15z"/><path d="M15.479,12.282c0.544,0.216,1.044,0.559,1.446,0.99c0.197,0.211,0.464,0.318,0.731,0.318c0.244,0,0.489-0.089,0.682-0.269c0.404-0.377,0.427-1.01,0.05-1.414c-0.603-0.646-1.354-1.159-2.171-1.484c-0.513-0.204-1.095,0.046-1.298,0.56C14.714,11.496,14.965,12.078,15.479,12.282z"/></g></svg>