<?xml version="1.0" encoding="utf-8"?><!-- Generator: Adobe Illustrator 21.1.0, SVG Export Plug-In . SVG Version: 6.00 Build 0)  --><svg xmlns="http://www.w3.org/2000/svg" xmlns:xlink="http://www.w3.org/1999/xlink" viewBox="0 0 128 128" width="512px" height="512px"><g><path d="M119,66.5c-1.6-0.2-3.1,1-3.3,2.7c-0.6,5.8-2.1,11.5-4.6,16.9c-5.9,12.6-16.3,22.1-29.3,26.9c-13,4.7-27.2,4.1-39.7-1.7c-1.9-0.9-3.7-1.9-5.5-3c1.7-0.1,3.5-0.6,5-1.5c1.8-1,3.7-2.2,5.7-3.6c1.4-1,2.6-2.3,3.5-3.8c1-1.8,2.2-3.7,2.8-5.9c3.9-15-9.1-15.6-9.5-18.9c-0.4-3.7,4.4-6.5,7.3-9.4c2.9-2.9,3.8-7.4,2.3-10c-4.8-8.6-16.2-4.1-17.3,5.1c-0.6,5.5-3.9,11.1-6.7,14s-8.3,1.3-9.8-2.8c-1.7-4.6,4.2-6.3,3.3-12.2c-0.2-1.6-1.9-2.4-4-2.7l-6.8,0.2c0.7-4.9,2.1-9.8,4.3-14.5c7.6-16.4,22.9-27.4,40.8-29.6c1.6-0.2,2.8-1.7,2.6-3.3c-0.2-1.6-1.7-2.8-3.3-2.6C37,9,20,21.3,11.5,39.6c-13.5,29-0.9,63.5,28,77c7.8,3.6,16.1,5.5,24.5,5.5c6.7,0,13.4-1.2,19.9-3.5c14.6-5.3,26.2-15.9,32.7-30c2.8-6,4.5-12.3,5.2-18.8C121.9,68.1,120.7,66.6,119,66.5z"/><path d="M89,76.4c2.4,0,4.6-1.1,6.2-2.9c8.3-10.1,22.3-29.1,21.8-43.6C116.5,14.3,104.2,2,89,2S61.5,14.3,61,29.9c-0.4,14.5,13.5,33.6,21.8,43.6C84.4,75.4,86.6,76.4,89,76.4z M79,30c0-5.5,4.5-10,10-10s10,4.5,10,10s-4.5,10-10,10S79,35.5,79,30z"/></g></svg>