<?xml version="1.0" encoding="utf-8"?><!-- Generator: Adobe Illustrator 15.0.0, SVG Export Plug-In . SVG Version: 6.00 Build 0)  --><!DOCTYPE svg PUBLIC "-//W3C//DTD SVG 1.1//EN" "http://www.w3.org/Graphics/SVG/1.1/DTD/svg11.dtd"><svg xmlns="http://www.w3.org/2000/svg" xmlns:xlink="http://www.w3.org/1999/xlink" viewBox="0 0 50 50" width="500px" height="500px"><path d="M25,0.071C17.32,0.071,11.071,6.32,11.071,14c0,12.245,12.654,28.864,13.192,29.565c0.176,0.229,0.448,0.363,0.736,0.363c0.001,0,0.002,0,0.004,0c0.29-0.001,0.563-0.138,0.737-0.369C26.279,42.847,38.929,25.963,38.929,14C38.929,6.32,32.681,0.071,25,0.071z M25,21c-3.313,0-6-2.687-6-6s2.687-6,6-6s6,2.687,6,6S28.313,21,25,21z"/><path d="M34.255,34.066c-3.1,5.558-6.251,9.814-6.917,10.696c-0.547,0.728-1.417,1.163-2.338,1.166c-0.905,0-1.774-0.429-2.322-1.145c-0.276-0.359-3.638-4.775-6.951-10.711c-7.893,1.094-14.373,3.6-14.695,7.375C1.011,41.529,1,41.613,1,41.7C1,47.092,13.365,50,25,50c11.42,0,23.544-2.803,23.986-8.004c0.021-0.08,0.033-0.164,0.033-0.252C49.02,37.795,42.379,35.186,34.255,34.066z"/></svg>