<?xml version="1.0" encoding="iso-8859-1"?>
<!-- Generator: Adobe Illustrator 29.3.0, SVG Export Plug-In . SVG Version: 9.03 Build 55982)  -->
<svg version="1.1" baseProfile="basic" xmlns="http://www.w3.org/2000/svg" xmlns:xlink="http://www.w3.org/1999/xlink" x="0px"
	 y="0px" viewBox="0 0 24 24" xml:space="preserve">
<g id="&#x421;&#x43B;&#x43E;&#x439;_1">
	<g>
		<path d="M11.25,21.961v-4.976c-3.382-0.094-6.785-0.825-8.831-2.135C3.581,18.747,7.058,21.648,11.25,21.961z"/>
		<path d="M15.5,3.123c0-0.156,0.03-0.304,0.045-0.457c-0.88-0.335-1.817-0.554-2.795-0.627v4.976
			c1.466,0.041,2.929,0.208,4.291,0.484C16.021,5.682,15.5,4.213,15.5,3.123z"/>
		<path d="M2,12c0,1.579,3.909,3.332,9.25,3.485v-6.97C5.909,8.668,2,10.421,2,12z"/>
		<path d="M12.75,21.962c4.191-0.313,7.669-3.214,8.831-7.111c-2.046,1.309-5.449,2.04-8.831,2.134V21.962z"/>
		<path d="M2.419,9.149c2.046-1.309,5.449-2.04,8.831-2.134V2.038C7.059,2.351,3.581,5.252,2.419,9.149z"/>
		<path d="M20.677,10.365C20.461,10.445,20.236,10.5,20,10.5c-0.662,0-1.28-0.332-1.652-0.887c-0.07-0.105-0.13-0.203-0.198-0.306
			c-1.493-0.434-3.337-0.733-5.4-0.792v6.97C18.091,15.332,22,13.579,22,12C22,11.451,21.518,10.882,20.677,10.365z"/>
	</g>
	<path d="M20,0c-1.657,0-3,1.398-3,3.123C17,4.723,20,9,20,9s3-4.277,3-5.877C23,1.398,21.657,0,20,0z M20,4c-0.552,0-1-0.448-1-1
		c0-0.552,0.448-1,1-1s1,0.448,1,1C21,3.552,20.552,4,20,4z"/>
</g>
<g id="&#x421;&#x43B;&#x43E;&#x439;_2">
</g>
</svg>