<?xml version="1.0" encoding="utf-8"?><!-- Generator: Adobe Illustrator 18.0.0, SVG Export Plug-In . SVG Version: 6.00 Build 0)  --><!DOCTYPE svg PUBLIC "-//W3C//DTD SVG 1.1//EN" "http://www.w3.org/Graphics/SVG/1.1/DTD/svg11.dtd"><svg xmlns="http://www.w3.org/2000/svg" xmlns:xlink="http://www.w3.org/1999/xlink" viewBox="0 0 128 128" width="512px" height="512px"><g><path d="M61,25.6c-4.4,0-8.1,1.4-10.7,3.9c-17,17-17.5,44.2-1.7,61.9L31.5,118H17.9c-1.7,0-3,1.3-3,3s1.3,3,3,3h15.3h40h25c1.7,0,3-1.3,3-3v-10c0-1.7-1.3-3-3-3s-3,1.3-3,3v7h-19v-7c0-1.7-1.3-3-3-3s-3,1.3-3,3v7H38.6L53,95.7c8.4,7.1,18.7,10.7,29.1,10.7c11.5,0,23-4.4,31.8-13.2c8.9-8.9,1.9-29.9-15.9-47.7C85.8,33.2,71.6,25.6,61,25.6z M54.5,89C42.6,77,40,59.3,46.8,44.8c0.4,2,0.9,4.1,1.7,6.3c3.2,8.6,9.4,17.9,17.7,26.1c10.5,10.5,22.5,17.6,32.5,19.4C84.2,103.4,66.4,100.9,54.5,89z M109.7,89c-1.4,1.4-3.6,2.2-6.4,2.2c-8.4,0-20.2-6.2-30.7-16l9.9-9.9c1.2-1.2,1.2-3.1,0-4.2c-1.2-1.2-3.1-1.2-4.2,0l-9.9,9.9c-6.6-7.1-11.6-14.7-14.2-21.8c-2.5-7-2.4-12.5,0.4-15.3c1.4-1.4,3.6-2.2,6.4-2.2c9,0,21.8,7.1,32.8,18.1C106.8,62.8,116.6,82.1,109.7,89z"/><path d="M2.7,118.9c-0.6,0.6-0.9,1.3-0.9,2.1s0.3,1.6,0.9,2.1c0.6,0.6,1.3,0.9,2.1,0.9s1.6-0.3,2.1-0.9c0.6-0.6,0.9-1.3,0.9-2.1s-0.3-1.6-0.9-2.1C5.9,117.8,3.9,117.8,2.7,118.9z"/></g></svg>