<?xml version="1.0" encoding="iso-8859-1"?><!-- Generator: Adobe Illustrator 21.1.0, SVG Export Plug-In . SVG Version: 6.00 Build 0)  --><svg xmlns="http://www.w3.org/2000/svg" xmlns:xlink="http://www.w3.org/1999/xlink" viewBox="0 0 64 64" width="512px" height="512px"><g><path d="M31,2C15.01,2,2,15.009,2,31s13.01,29,29,29s29-13.009,29-29S46.99,2,31,2z M31,58C16.112,58,4,45.888,4,31S16.112,4,31,4s27,12.112,27,27S45.888,58,31,58z"/><path d="M31,50c-0.553,0-1,0.448-1,1v2c0,0.552,0.447,1,1,1s1-0.448,1-1v-2C32,50.448,31.553,50,31,50z"/><path d="M37.013,50.077c-0.143-0.534-0.691-0.85-1.225-0.707c-0.533,0.143-0.85,0.691-0.707,1.225l0.518,1.932c0.119,0.447,0.523,0.742,0.965,0.742c0.086,0,0.173-0.011,0.26-0.035c0.533-0.143,0.85-0.691,0.707-1.225L37.013,50.077z"/><path d="M21.75,47.521c-0.479-0.276-1.09-0.113-1.366,0.366l-1,1.732c-0.276,0.478-0.112,1.09,0.366,1.366c0.157,0.091,0.329,0.134,0.499,0.134c0.346,0,0.682-0.179,0.867-0.5l1-1.732C22.393,48.41,22.229,47.798,21.75,47.521z"/><path d="M41.616,47.888c-0.277-0.479-0.891-0.642-1.366-0.366c-0.479,0.276-0.643,0.888-0.366,1.366l1,1.732c0.186,0.321,0.521,0.5,0.867,0.5c0.17,0,0.342-0.043,0.499-0.134c0.479-0.276,0.643-0.888,0.366-1.366L41.616,47.888z"/><path d="M26.212,49.37c-0.533-0.142-1.082,0.174-1.225,0.707l-0.518,1.932c-0.143,0.534,0.174,1.082,0.707,1.225c0.087,0.023,0.174,0.035,0.26,0.035c0.441,0,0.846-0.295,0.965-0.742l0.518-1.932C27.062,50.061,26.745,49.512,26.212,49.37z"/><path d="M38.351,11.322c0.713,0.267,1.42,0.576,2.1,0.919c0.145,0.073,0.298,0.107,0.449,0.107c0.365,0,0.718-0.201,0.894-0.549c0.249-0.493,0.051-1.095-0.442-1.343c-0.744-0.376-1.519-0.715-2.301-1.007c-0.517-0.194-1.093,0.07-1.286,0.586C37.57,10.553,37.833,11.128,38.351,11.322z"/><path d="M16.15,16.151c4.748-4.748,11.548-6.951,18.188-5.886c0.545,0.09,1.059-0.284,1.146-0.829c0.088-0.545-0.284-1.059-0.829-1.146c-7.268-1.166-14.717,1.246-19.918,6.446c-8.967,8.967-8.967,23.559,0,32.526c0.195,0.195,0.451,0.293,0.707,0.293s0.512-0.098,0.707-0.293c0.391-0.391,0.391-1.023,0-1.414C7.963,37.661,7.963,24.339,16.15,16.151z"/><path d="M47.264,14.737c-0.658-0.659-1.363-1.283-2.094-1.856c-0.436-0.341-1.063-0.265-1.404,0.17s-0.265,1.063,0.17,1.404c0.668,0.523,1.312,1.094,1.914,1.696c8.188,8.188,8.188,21.51,0,29.698c-0.391,0.391-0.391,1.023,0,1.414c0.195,0.195,0.451,0.293,0.707,0.293s0.512-0.098,0.707-0.293C56.23,38.296,56.23,23.704,47.264,14.737z"/><path d="M41.603,18.083l-26,11.267c-0.376,0.163-0.615,0.539-0.602,0.949c0.013,0.41,0.274,0.77,0.66,0.909l10.391,3.74l3.741,10.391c0.139,0.386,0.499,0.647,0.909,0.661c0.01,0,0.021,0,0.031,0c0.397,0,0.759-0.236,0.918-0.603l11.267-26c0.163-0.376,0.079-0.814-0.211-1.104C42.416,18.002,41.977,17.92,41.603,18.083z M30.819,42.287l-3.046-8.459c-0.101-0.28-0.321-0.501-0.602-0.602l-8.458-3.045l21.363-9.257L30.819,42.287z"/></g></svg>