<?xml version="1.0" encoding="iso-8859-1"?><!-- Generator: Adobe Illustrator 21.1.0, SVG Export Plug-In . SVG Version: 6.00 Build 0)  --><svg xmlns="http://www.w3.org/2000/svg" xmlns:xlink="http://www.w3.org/1999/xlink" viewBox="0 0 50 50" width="500px" height="500px"><polygon points="23.397,23.396 23.396,23.396 16.719,33.281 26.604,26.604 "/><path d="M45,26c-0.552,0-1-0.447-1-1s0.448-1,1-1h2.975C47.463,12.112,37.888,2.537,26,2.025V5c0,0.553-0.448,1-1,1s-1-0.447-1-1V2.025C12.112,2.537,2.537,12.112,2.025,24H5c0.552,0,1,0.447,1,1s-0.448,1-1,1H2.025C2.537,37.888,12.112,47.463,24,47.975V45c0-0.553,0.448-1,1-1s1,0.447,1,1v2.975C37.888,47.463,47.463,37.888,47.975,26H45z M37.829,13.56l-9.675,14.324c-0.072,0.106-0.163,0.197-0.269,0.27L13.56,37.829C13.39,37.943,13.194,38,13,38c-0.258,0-0.514-0.1-0.708-0.293c-0.339-0.339-0.39-0.87-0.122-1.267l9.676-14.324c0.072-0.106,0.163-0.197,0.269-0.27l14.324-9.676c0.397-0.267,0.928-0.216,1.267,0.122C38.046,12.632,38.097,13.163,37.829,13.56z"/></svg>