<?xml version="1.0" encoding="iso-8859-1"?>
<!-- Generator: Adobe Illustrator 24.1.2, SVG Export Plug-In . SVG Version: 6.00 Build 0)  -->
<svg version="1.1" baseProfile="basic" id="&#x421;&#x43B;&#x43E;&#x439;_1"
	 xmlns="http://www.w3.org/2000/svg" xmlns:xlink="http://www.w3.org/1999/xlink" x="0px" y="0px" viewBox="0 0 48 48"
	 xml:space="preserve">
<path marker-end="none" marker-start="none" style="fill-rule:evenodd;clip-rule:evenodd;" d="M11.515,27.993
	c-2.197-2.733-3.512-6.213-3.512-10c0-8.827,7.164-16,15.996-16c8.832,0,16.001,7.173,16.001,16c0,3.787-1.315,7.267-3.512,10
	c-6.092,7.6-9.515,11.6-12.483,20C21.038,39.593,17.607,35.593,11.515,27.993z M36.006,17.993c0-6.613-5.377-12-12.001-12
	c-6.624,0-12.001,5.387-12.001,12c0,6.627,5.377,12,12.001,12C30.629,29.993,36.006,24.62,36.006,17.993z"/>
<path marker-end="none" marker-start="none" style="fill-rule:evenodd;clip-rule:evenodd;" d="M24.006,46.993
	c6.624,0,12,0.227,12,0.507c0,0.28-5.376,0.507-12,0.507s-12-0.227-12-0.507C12.006,47.22,17.382,46.993,24.006,46.993z"/>
</svg>