<?xml version="1.0" encoding="iso-8859-1"?>
<!-- Generator: Adobe Illustrator 23.0.3, SVG Export Plug-In . SVG Version: 6.00 Build 0)  -->
<svg version="1.1" id="Layer_1" xmlns="http://www.w3.org/2000/svg" xmlns:xlink="http://www.w3.org/1999/xlink" x="0px" y="0px"
	 viewBox="0 0 50 50" style="enable-background:new 0 0 50 50;" xml:space="preserve">
<path d="M25,1C16.178,1,9,8.178,9,17c0,13.813,14.62,30.931,15.243,31.653C24.433,48.874,24.721,48.952,25,49
	c0.288,0,0.562-0.124,0.752-0.341C26.375,47.949,41,31.114,41,17C41,8.178,33.822,1,25,1z M31.515,20.748
	c0.473,0.285,0.626,0.899,0.342,1.372c-0.188,0.313-0.519,0.485-0.858,0.485c-0.175,0-0.353-0.046-0.514-0.143L26,19.768V25
	c0,0.553-0.448,1-1,1s-1-0.447-1-1v-5.232l-4.485,2.695c-0.161,0.097-0.339,0.143-0.514,0.143c-0.339,0-0.67-0.173-0.858-0.485
	c-0.285-0.473-0.131-1.087,0.342-1.372L23.058,18l-4.573-2.748c-0.473-0.285-0.626-0.899-0.342-1.372
	c0.285-0.474,0.899-0.627,1.372-0.343L24,16.232V11c0-0.553,0.448-1,1-1s1,0.447,1,1v5.232l4.485-2.695
	c0.473-0.284,1.087-0.131,1.372,0.343c0.285,0.473,0.131,1.087-0.342,1.372L26.942,18L31.515,20.748z"/>
</svg>