<?xml version="1.0" encoding="iso-8859-1"?><!-- Generator: Adobe Illustrator 19.1.1, SVG Export Plug-In . SVG Version: 6.00 Build 0)  --><svg xmlns="http://www.w3.org/2000/svg" xmlns:xlink="http://www.w3.org/1999/xlink" viewBox="0 0 50 50" width="500px" height="500px"><path style="fill:none;stroke:#000000;stroke-width:2;stroke-linecap:round;stroke-linejoin:round;stroke-miterlimit:10;" d="M38.43,36.41c-9.063,6.313-21.527,4.084-27.84-4.979S6.507,9.903,15.57,3.59"/><path d="M43.695,16.846l-5,3.513c-0.706-1.884-1.602-3.702-2.651-5.362l5.474-3.796C42.559,12.911,43.311,14.812,43.695,16.846z M34.4,16.137l-5.989,4.153l3.423,4.889l5.158-3.624C36.316,19.647,35.435,17.793,34.4,16.137z M30.782,8.909c1.543,1.344,2.942,2.85,4.128,4.44l5.474-3.796c-1.279-1.635-2.848-3.023-4.632-4.101L30.782,8.909z M29.122,7.574l4.586-3.189C31.649,3.497,29.382,3,27,3c-1.774,0-3.478,0.286-5.084,0.797c1.119,0.319,2.307,0.788,3.556,1.444C26.724,5.898,27.948,6.692,29.122,7.574z M24.979,29.995l5.219-3.667l-3.43-4.899l-6.038,4.187C21.94,27.209,23.388,28.695,24.979,29.995z M27.264,18.652l6.002-4.162c-1.182-1.571-2.619-3.069-4.194-4.392l-5.244,3.647L27.264,18.652z M22.186,14.886l-5.229,3.636c0.655,1.861,1.534,3.724,2.629,5.454l6.035-4.185L22.186,14.886z M12.526,28.872l5.43-3.765c-1.088-1.706-2.001-3.535-2.697-5.403l-4.955,3.445C10.693,25.214,11.462,27.141,12.526,28.872z M27.385,8.782c-0.929-0.665-1.883-1.267-2.843-1.772c-2.108-1.107-4.062-1.687-5.548-1.687c-0.197,0-0.386,0.01-0.565,0.031C18.317,5.421,18.2,5.481,18.09,5.55l4.566,6.521L27.385,8.782z M37.64,23.597l-4.634,3.255l4.502,6.429c0.865-1.313,1.161-3.721,0.755-6.664C38.126,25.627,37.915,24.613,37.64,23.597z M39.37,22.382c0.39,1.32,0.694,2.651,0.875,3.962c0.209,1.511,0.24,2.885,0.129,4.115C42.64,27.574,44,23.946,44,20c0-0.284-0.029-0.561-0.043-0.841L39.37,22.382z M26.688,31.291c0.87,0.6,1.767,1.142,2.678,1.61c2.593,1.329,4.94,1.85,6.488,1.505l-4.485-6.404L26.688,31.291z M24.962,32.504l-4.522,3.177C22.46,36.529,24.676,37,27,37c1.828,0,3.583-0.304,5.232-0.845c-1.181-0.304-2.449-0.791-3.779-1.474C27.257,34.066,26.087,33.325,24.962,32.504z M14.583,17.685c-0.842-2.87-1.196-5.698-1.017-8.066C11.336,12.491,10,16.089,10,20c0,0.284,0.029,0.561,0.043,0.842L14.583,17.685z M21.014,13.213L16.45,6.694c-0.092,0.073-0.18,0.152-0.27,0.227c-0.964,1.946-0.911,5.61,0.147,9.551L21.014,13.213z M23.284,31.186c-1.568-1.333-2.993-2.834-4.198-4.43l-5.419,3.758c1.302,1.647,2.901,3.042,4.716,4.115L23.284,31.186z"/><line style="fill:none;stroke:#000000;stroke-width:2;stroke-linecap:round;stroke-linejoin:round;stroke-miterlimit:10;" x1="27" y1="40" x2="27" y2="47"/><path style="fill:none;stroke:#000000;stroke-width:2;stroke-linecap:round;stroke-linejoin:round;stroke-miterlimit:10;" d="M18,47h18c0,0-5.083-2-9-2S18,47,18,47z"/></svg>