<?xml version="1.0" encoding="iso-8859-1"?><!-- Generator: Adobe Illustrator 21.0.2, SVG Export Plug-In . SVG Version: 6.00 Build 0)  --><svg xmlns="http://www.w3.org/2000/svg" xmlns:xlink="http://www.w3.org/1999/xlink" viewBox="0 0 50 50" width="500px" height="500px"><g><g><g></g></g></g><path d="M25,1c-5.514,0-10,4.486-10,10s4.486,10,10,10s10-4.486,10-10S30.514,1,25,1z M25,7c-2.206,0-4,1.794-4,4c0,0.553-0.448,1-1,1s-1-0.447-1-1c0-3.309,2.691-6,6-6c0.552,0,1,0.447,1,1S25.552,7,25,7z"/><path d="M25,23c-1.037,0-2.039-0.146-3-0.395v20.64l3,5.745l3-5.745v-20.64C27.039,22.854,26.037,23,25,23z"/></svg>