<?xml version="1.0" encoding="iso-8859-1"?><!-- Generator: Adobe Illustrator 21.1.0, SVG Export Plug-In . SVG Version: 6.00 Build 0)  --><svg xmlns="http://www.w3.org/2000/svg" xmlns:xlink="http://www.w3.org/1999/xlink" viewBox="0 0 80 80" width="480px" height="480px"><circle cx="42" cy="19" r="1"/><circle cx="38" cy="19" r="1"/><circle cx="40" cy="25" r="1"/><circle cx="50" cy="14" r="1"/><circle cx="54" cy="13" r="1"/><circle cx="58" cy="12" r="1"/><circle cx="62" cy="11" r="1"/><circle cx="66" cy="10" r="1"/><circle cx="64" cy="23" r="1"/><circle cx="60" cy="22" r="1"/><circle cx="56" cy="21" r="1"/><circle cx="30" cy="14" r="1"/><circle cx="26" cy="13" r="1"/><circle cx="22" cy="12" r="1"/><circle cx="18" cy="11" r="1"/><circle cx="14" cy="10" r="1"/><circle cx="10" cy="9" r="1"/><circle cx="12" cy="24" r="1"/><circle cx="70" cy="9" r="1"/><circle cx="68" cy="24" r="1"/><circle cx="16" cy="23" r="1"/><circle cx="20" cy="22" r="1"/><circle cx="24" cy="21" r="1"/><circle cx="44" cy="25" r="1"/><circle cx="36" cy="25" r="1"/><g><g><path style="fill:none;stroke:#000000;stroke-width:2;stroke-linecap:round;stroke-miterlimit:10;" d="M58,69L48,25h1c1.105,0,2-0.895,2-2v-2c0-1.105-0.895-2-2-2h-3v-1c0-3.314-2.686-6-6-6s-6,2.686-6,6v1h-3c-1.105,0-2,0.895-2,2v2c0,1.105,0.895,2,2,2h1L22,69H58z"/></g></g><circle cx="63" cy="69" r="1"/><circle cx="67" cy="69" r="1"/><circle cx="11" cy="69" r="1"/><circle cx="15" cy="69" r="1"/><line style="fill:none;stroke:#000000;stroke-width:2;stroke-linecap:round;stroke-miterlimit:10;" x1="19" y1="69" x2="28" y2="69"/><line style="fill:none;stroke:#000000;stroke-width:2;stroke-linecap:round;stroke-miterlimit:10;" x1="51" y1="69" x2="59" y2="69"/><g><circle cx="31" cy="39" r="1"/><circle cx="34" cy="42" r="1"/><circle cx="37" cy="39" r="1"/><circle cx="40" cy="42" r="1"/><circle cx="43" cy="39" r="1"/><circle cx="46" cy="42" r="1"/><circle cx="49" cy="39" r="1"/><circle cx="31" cy="33" r="1"/><circle cx="34" cy="36" r="1"/><circle cx="37" cy="33" r="1"/><circle cx="40" cy="36" r="1"/><circle cx="43" cy="33" r="1"/><circle cx="46" cy="36" r="1"/><circle cx="49" cy="33" r="1"/></g><g><circle cx="31" cy="57" r="1"/><circle cx="34" cy="60" r="1"/><circle cx="37" cy="57" r="1"/><circle cx="40" cy="60" r="1"/><circle cx="43" cy="57" r="1"/><circle cx="46" cy="60" r="1"/><circle cx="49" cy="57" r="1"/><circle cx="31" cy="51" r="1"/><circle cx="34" cy="54" r="1"/><circle cx="25" cy="57" r="1"/><circle cx="28" cy="60" r="1"/><circle cx="28" cy="54" r="1"/><circle cx="37" cy="51" r="1"/><circle cx="40" cy="54" r="1"/><circle cx="43" cy="51" r="1"/><circle cx="46" cy="54" r="1"/><circle cx="49" cy="51" r="1"/><circle cx="52" cy="60" r="1"/><circle cx="55" cy="57" r="1"/><circle cx="52" cy="54" r="1"/></g></svg>