<?xml version="1.0" encoding="iso-8859-1"?><!-- Generator: Adobe Illustrator 21.1.0, SVG Export Plug-In . SVG Version: 6.00 Build 0)  --><svg xmlns="http://www.w3.org/2000/svg" xmlns:xlink="http://www.w3.org/1999/xlink" viewBox="0 0 50 50" width="500px" height="500px"><path d="M18.64,24.318H13V22h9v2l-5.901,9.695H22V36h-9v-2L18.64,24.318z"/><path d="M27,22v14h-3V22H27z"/><path d="M29,22.303C29.877,22.109,31.046,22,32.256,22c1.829,0,3.321,0.315,4.354,1.238C37.535,24.063,38,25.324,38,26.73c0,1.649-0.491,2.766-1.289,3.639c-1.03,1.14-2.703,1.698-4.173,1.698c-0.196,0-0.283,0-0.404-0.009c-0.054-0.004-0.114-0.01-0.194-0.018V36H29V22.303L29,22.303z M31.941,29.907c0.206,0.048,0.212,0.048,0.495,0.048c1.801,0,2.807-1.163,2.807-3.033c0-1.527-0.67-2.814-2.524-2.814c-0.387,0-0.546,0.048-0.778,0.121V29.907z"/><polyline style="fill:none;stroke:#000000;stroke-width:2;stroke-linecap:round;stroke-linejoin:round;stroke-miterlimit:10;" points="2,20 25,2 48,20 "/><polyline style="fill:none;stroke:#000000;stroke-width:2;stroke-linecap:round;stroke-linejoin:round;stroke-miterlimit:10;" points="45,17.667 45,46 5,46 5,17.667 "/></svg>