<?xml version="1.0" encoding="iso-8859-1"?>
<!-- Generator: Adobe Illustrator 25.4.1, SVG Export Plug-In . SVG Version: 6.00 Build 0)  -->
<svg version="1.1" baseProfile="basic" id="Layer_1"
	 xmlns="http://www.w3.org/2000/svg" xmlns:xlink="http://www.w3.org/1999/xlink" x="0px" y="0px" viewBox="0 0 100 100"
	 xml:space="preserve">
<path style="fill:none;stroke:#000000;stroke-width:4;stroke-linecap:round;stroke-linejoin:round;stroke-miterlimit:10;" d="
	M55.056,12.44c-17.88-0.89-30.381,14.05-31.289,31.29c-0.894,16.99,14.042,30.43,31.289,31.29c17.879,0.89,30.396-14.3,31.289-31.29
	C87.252,26.49,72.304,13.3,55.056,12.44z"/>
<path style="fill:none;stroke:#000000;stroke-width:4;stroke-linecap:round;stroke-linejoin:round;stroke-miterlimit:10;" d="
	M34.14,12.14c0,0-33.213,22.33-9.955,55.91c15.267,22.03,48.55,16.08,61.63,2.14"/>
<line style="fill:none;stroke:#000000;stroke-width:4;stroke-linecap:round;stroke-linejoin:round;stroke-miterlimit:10;" x1="32.331" y1="7" x2="37.995" y2="16.15"/>
<line style="fill:none;stroke:#000000;stroke-width:4;stroke-linecap:round;stroke-linejoin:round;stroke-miterlimit:10;" x1="75.713" y1="68.19" x2="80.01" y2="73.99"/>
<path style="fill:none;stroke:#000000;stroke-width:2;stroke-linecap:round;stroke-linejoin:round;stroke-miterlimit:10;" d="
	M32.078,64.64c0,0,36.254-16.2,49.039-37.27"/>
<path style="fill:none;stroke:#000000;stroke-width:2;stroke-linecap:round;stroke-linejoin:round;stroke-miterlimit:10;" d="
	M39.932,15.87c0,0,20.806,2.4,33.422,21.25c8.407,12.56,2.288,29.53,2.288,29.53"/>
<path style="fill-rule:evenodd;clip-rule:evenodd;" d="M53.459,37.75c-0.464,0.3-1.083,0.17-1.382-0.3
	c-0.299-0.46-0.166-1.08,0.298-1.38c0.464-0.3,1.083-0.16,1.383,0.3C54.056,36.83,53.923,37.45,53.459,37.75"/>
<path style="fill-rule:evenodd;clip-rule:evenodd;" d="M69.65,53.22c-0.464,0.3-1.083,0.16-1.382-0.3
	c-0.3-0.47-0.166-1.08,0.298-1.38c0.464-0.3,1.083-0.17,1.382,0.29C70.247,52.3,70.114,52.92,69.65,53.22"/>
<path style="fill-rule:evenodd;clip-rule:evenodd;" d="M53.851,27.98c-0.464,0.3-1.083,0.17-1.382-0.29
	c-0.3-0.47-0.166-1.09,0.298-1.39c0.464-0.3,1.083-0.16,1.382,0.3C54.448,27.07,54.315,27.68,53.851,27.98"/>
<path style="fill:none;stroke:#000000;stroke-width:2;stroke-linecap:round;stroke-linejoin:round;stroke-miterlimit:10;" d="
	M38.208,16.96c0,0,7.9,23.36,17.941,34.66c10.042,11.3,19.936,15.16,19.936,15.16"/>
<line style="fill:none;stroke:#000000;stroke-width:2;stroke-linecap:round;stroke-linejoin:round;stroke-miterlimit:10;" x1="64.072" y1="59.23" x2="61.244" y2="61.18"/>
<path style="fill:none;stroke:#000000;stroke-width:2;stroke-linecap:round;stroke-linejoin:round;stroke-miterlimit:10;" d="
	M37.892,16.17c0,0-14.62,24.15,3.966,43.73c13.345,14.05,33.957,7.83,33.957,7.83"/>
<line style="fill:none;stroke:#000000;stroke-width:2;stroke-linecap:round;stroke-linejoin:round;stroke-miterlimit:10;" x1="37.441" y1="68.3" x2="40.566" y2="67.31"/>
<line style="fill:none;stroke:#000000;stroke-width:2;stroke-linecap:round;stroke-linejoin:round;stroke-miterlimit:10;" x1="41.553" y1="70.98" x2="45.404" y2="68.68"/>
<line style="fill:none;stroke:#000000;stroke-width:2;stroke-linecap:round;stroke-linejoin:round;stroke-miterlimit:10;" x1="47.983" y1="73.56" x2="49.901" y2="70.49"/>
<line style="fill:none;stroke:#000000;stroke-width:2;stroke-linecap:round;stroke-linejoin:round;stroke-miterlimit:10;" x1="57.701" y1="53.23" x2="54.544" y2="56.32"/>
<line style="fill:none;stroke:#000000;stroke-width:2;stroke-linecap:round;stroke-linejoin:round;stroke-miterlimit:10;" x1="60.321" y1="56.13" x2="58.395" y2="58.96"/>
<line style="fill:none;stroke:#000000;stroke-width:2;stroke-linecap:round;stroke-linejoin:round;stroke-miterlimit:10;" x1="56.6" y1="12.9" x2="56.747" y2="16.12"/>
<line style="fill:none;stroke:#000000;stroke-width:2;stroke-linecap:round;stroke-linejoin:round;stroke-miterlimit:10;" x1="60.859" y1="13.46" x2="60.688" y2="17.85"/>
<line style="fill:none;stroke:#000000;stroke-width:2;stroke-linecap:round;stroke-linejoin:round;stroke-miterlimit:10;" x1="66.441" y1="14.61" x2="65.34" y2="19.64"/>
<line style="fill:none;stroke:#000000;stroke-width:2;stroke-linecap:round;stroke-linejoin:round;stroke-miterlimit:10;" x1="71.484" y1="17.4" x2="68.685" y2="21.5"/>
<line style="fill:none;stroke:#000000;stroke-width:2;stroke-linecap:round;stroke-linejoin:round;stroke-miterlimit:10;" x1="85.65" y1="37.36" x2="81.13" y2="40.11"/>
<line style="fill:none;stroke:#000000;stroke-width:2;stroke-linecap:round;stroke-linejoin:round;stroke-miterlimit:10;" x1="86.385" y1="42.22" x2="81.586" y2="44.5"/>
<line style="fill:none;stroke:#000000;stroke-width:2;stroke-linecap:round;stroke-linejoin:round;stroke-miterlimit:10;" x1="64.973" y1="44.25" x2="62.215" y2="41.08"/>
<line style="fill:none;stroke:#000000;stroke-width:2;stroke-linecap:round;stroke-linejoin:round;stroke-miterlimit:10;" x1="67.796" y1="42.43" x2="64.148" y2="35.46"/>
<line style="fill:none;stroke:#000000;stroke-width:2;stroke-linecap:round;stroke-linejoin:round;stroke-miterlimit:10;" x1="28.421" y1="58.32" x2="31.634" y2="57.18"/>
<line style="fill:none;stroke:#000000;stroke-width:2;stroke-linecap:round;stroke-linejoin:round;stroke-miterlimit:10;" x1="25.881" y1="53.61" x2="29.797" y2="52.24"/>
<line style="fill:none;stroke:#000000;stroke-width:2;stroke-linecap:round;stroke-linejoin:round;stroke-miterlimit:10;" x1="24.718" y1="47.36" x2="28.023" y2="46.97"/>
<line style="fill:none;stroke:#000000;stroke-width:2;stroke-linecap:round;stroke-linejoin:round;stroke-miterlimit:10;" x1="24.718" y1="40.33" x2="27.503" y2="41.95"/>
<line style="fill:none;stroke:#000000;stroke-width:4;stroke-linecap:round;stroke-linejoin:round;stroke-miterlimit:10;" x1="56.597" y1="82.45" x2="56.597" y2="89.46"/>
</svg>