<?xml version="1.0" encoding="iso-8859-1"?><!-- Generator: Adobe Illustrator 22.1.0, SVG Export Plug-In . SVG Version: 6.00 Build 0)  --><svg xmlns="http://www.w3.org/2000/svg" xmlns:xlink="http://www.w3.org/1999/xlink" viewBox="0 0 24 24" width="384px" height="384px"><g id="rounded"><g><path d="M7.111,9.049l4.777-2.758c0.286-0.165,0.34-0.564,0.101-0.792C9.974,3.575,8.027,2.747,7,3.34S5.716,6.033,6.375,8.741C6.453,9.061,6.826,9.214,7.111,9.049z"/><path d="M16.889,14.951l-4.777,2.758c-0.286,0.165-0.34,0.564-0.101,0.792c2.015,1.924,3.963,2.752,4.99,2.159c1.027-0.593,1.284-2.693,0.625-5.401C17.547,14.939,17.174,14.786,16.889,14.951z"/><path d="M13.403,7.726l-5.806,3.352c-0.22,0.127-0.316,0.397-0.215,0.63c0.324,0.75,0.708,1.518,1.154,2.292c0.447,0.773,0.92,1.49,1.408,2.146c0.152,0.204,0.433,0.256,0.653,0.129l5.806-3.352c0.22-0.127,0.316-0.397,0.215-0.63c-0.324-0.75-0.708-1.518-1.154-2.292c-0.447-0.773-0.92-1.49-1.408-2.146C13.905,7.65,13.623,7.599,13.403,7.726z"/><path d="M14.592,4.73l1.598-0.922c0.357-0.206,0.323-0.727-0.052-0.898c-1.183-0.538-2.461-0.844-3.761-0.897c-0.486-0.02-0.683,0.608-0.295,0.902c0.637,0.483,1.275,1.059,1.902,1.72C14.141,4.802,14.393,4.845,14.592,4.73z"/><path d="M17.196,9c0.424,0.734,0.795,1.464,1.121,2.186c0.122,0.27,0.444,0.375,0.7,0.227l2.413-1.393c0.195-0.113,0.298-0.343,0.241-0.56C21.451,8.617,21.116,7.79,20.66,7c-0.456-0.79-1.005-1.493-1.624-2.105c-0.16-0.158-0.411-0.184-0.606-0.072l-2.413,1.393c-0.256,0.148-0.326,0.479-0.154,0.72C16.325,7.58,16.772,8.266,17.196,9z"/><path d="M4.63,10.034C4.371,9.161,4.192,8.32,4.092,7.527C4.031,7.045,3.389,6.902,3.163,7.332c-0.605,1.152-0.978,2.413-1.104,3.706c-0.04,0.41,0.394,0.7,0.751,0.494l1.598-0.922C4.607,10.495,4.696,10.255,4.63,10.034z"/><path d="M19.37,13.966c0.259,0.873,0.439,1.714,0.539,2.507c0.061,0.482,0.703,0.625,0.929,0.195c0.605-1.152,0.978-2.413,1.104-3.706c0.04-0.41-0.394-0.7-0.751-0.494l-1.598,0.922C19.393,13.505,19.304,13.745,19.37,13.966z"/><path d="M9.408,19.27L7.81,20.193c-0.357,0.206-0.323,0.727,0.052,0.898c1.183,0.538,2.461,0.844,3.761,0.897c0.486,0.02,0.683-0.608,0.295-0.902c-0.637-0.483-1.275-1.059-1.902-1.72C9.859,19.198,9.607,19.155,9.408,19.27z"/><path d="M2.569,13.981c-0.195,0.113-0.298,0.343-0.241,0.56C2.549,15.383,2.884,16.21,3.34,17s1.005,1.493,1.624,2.105c0.16,0.158,0.411,0.184,0.606,0.072l2.413-1.393c0.256-0.148,0.326-0.479,0.154-0.72C7.675,16.42,7.228,15.734,6.804,15c-0.424-0.734-0.795-1.464-1.121-2.186c-0.122-0.27-0.444-0.375-0.7-0.227L2.569,13.981z"/></g></g></svg>