<?xml version="1.0" encoding="iso-8859-1"?><!-- Generator: Adobe Illustrator 21.1.0, SVG Export Plug-In . SVG Version: 6.00 Build 0)  --><svg xmlns="http://www.w3.org/2000/svg" xmlns:xlink="http://www.w3.org/1999/xlink" viewBox="0 0 64 64" width="512px" height="512px"><g><path d="M36,36.12V16.41l2.29,2.3c0.39,0.39,1.03,0.39,1.42,0l4-4c0.39-0.39,0.39-1.03,0-1.42l-11-11c-0.39-0.39-1.03-0.39-1.42,0l-11,11c-0.39,0.39-0.39,1.03,0,1.42l4,4c0.39,0.39,1.03,0.39,1.42,0l2.29-2.3v19.71C15.38,36.92,6,41.41,6,47c0,6.17,11.42,11,26,11s26-4.83,26-11C58,41.41,48.62,36.92,36,36.12z M25,16.59L22.41,14L32,4.41L41.59,14L39,16.59l-3.29-3.3c-0.29-0.28-0.72-0.37-1.09-0.21C34.24,13.23,34,13.6,34,14v22.03v2V46h-4v-7.97v-2V14c0-0.4-0.24-0.77-0.62-0.92c-0.37-0.16-0.8-0.07-1.09,0.21L25,16.59z M32,56c-14.36,0-24-4.65-24-9c0-3.93,7.88-8.11,20-8.87V47c0,0.55,0.45,1,1,1h6c0.55,0,1-0.45,1-1v-8.87c12.12,0.76,20,4.94,20,8.87C56,51.35,46.36,56,32,56z"/><path d="M35.937,51.869C34.652,51.956,33.328,52,32,52c-4.198,0-8.308-0.452-11.573-1.271c-0.531-0.136-1.078,0.19-1.213,0.726c-0.135,0.536,0.19,1.079,0.727,1.213C23.409,53.54,27.58,54,32,54c1.373,0,2.742-0.045,4.071-0.136c0.551-0.037,0.968-0.514,0.931-1.065S36.49,51.832,35.937,51.869z"/><path d="M43.574,50.729c-0.971,0.244-2.021,0.457-3.12,0.633c-0.546,0.087-0.917,0.601-0.829,1.146c0.079,0.492,0.504,0.841,0.986,0.841c0.053,0,0.105-0.004,0.159-0.013c1.157-0.186,2.264-0.411,3.29-0.668c0.536-0.134,0.861-0.678,0.727-1.213C44.653,50.919,44.102,50.595,43.574,50.729z"/><path d="M23,34h2c0.553,0,1-0.448,1-1s-0.447-1-1-1h-2c-0.553,0-1,0.448-1,1S22.447,34,23,34z"/><path d="M23,29h2c0.553,0,1-0.448,1-1s-0.447-1-1-1h-2c-0.553,0-1,0.448-1,1S22.447,29,23,29z"/><path d="M23,24h2c0.553,0,1-0.448,1-1s-0.447-1-1-1h-2c-0.553,0-1,0.448-1,1S22.447,24,23,24z"/></g></svg>