<?xml version="1.0" encoding="iso-8859-1"?>
<!-- Generator: Adobe Illustrator 25.2.3, SVG Export Plug-In . SVG Version: 6.00 Build 0)  -->
<svg version="1.1" baseProfile="basic" xmlns="http://www.w3.org/2000/svg" xmlns:xlink="http://www.w3.org/1999/xlink" x="0px"
	 y="0px" viewBox="0 0 50 50" xml:space="preserve">
<path d="M41,17c0,8.498-14.558,29.671-15.177,30.568C25.635,47.839,25.328,48,25,48s-0.636-0.161-0.823-0.432
	C23.557,46.671,9,25.498,9,17C9,8.178,16.177,1,25,1S41,8.178,41,17z M22.449,7v0.21c0.2,0.41,0.88,2.85,0.88,5.29
	c0,1.25-0.18,2.52-0.39,3.5h2.88l3.74-2.22C27.999,9,22.449,7,22.449,7z M15.998,18c0,0,1.001,3,4,5H30c2.999-2,4-5,4-5H15.998z"/>
</svg>