<?xml version="1.0" encoding="iso-8859-1"?><!-- Generator: Adobe Illustrator 21.1.0, SVG Export Plug-In . SVG Version: 6.00 Build 0)  --><svg xmlns="http://www.w3.org/2000/svg" xmlns:xlink="http://www.w3.org/1999/xlink" viewBox="0 0 64 64" width="512px" height="512px"><g id="Layer_1"><g><path d="M60.9,13.2l-4.5-6.001C55.835,6.448,54.938,6,54,6H32V4c0-1.654-1.346-3-3-3s-3,1.346-3,3v2H15c-1.654,0-3,1.346-3,3v12c0,1.654,1.346,3,3,3h11v2H8c-0.938,0-1.835,0.448-2.4,1.2l-4.5,6c-0.795,1.06-0.795,2.54,0,3.6l4.5,6.001C6.165,43.552,7.062,44,8,44h18v10h-2c-1.565,0-3.061,0.747-4,2l-1.5,2H15c-1.654,0-3,1.346-3,3s1.346,3,3,3h28c1.654,0,3-1.346,3-3s-1.346-3-3-3h-3.5L38,55.999C37.061,54.747,35.565,54,34,54h-2V44h15c1.654,0,3-1.346,3-3V29c0-1.654-1.346-3-3-3H32v-2h22c0.938,0,1.835-0.448,2.4-1.2l4.5-6C61.695,15.74,61.695,14.26,60.9,13.2z M28,4c0-0.552,0.449-1,1-1s1,0.448,1,1v2h-2V4z M41,60h2c0.551,0,1,0.448,1,1s-0.449,1-1,1H15c-0.551,0-1-0.448-1-1s0.449-1,1-1h2H41z M34,56c0.939,0,1.837,0.448,2.4,1.199L37,58H21l0.6-0.8c0.563-0.752,1.461-1.2,2.4-1.2H34z M28,54V44h2v10H28z M47,28c0.551,0,1,0.448,1,1v12c0,0.552-0.449,1-1,1H8c-0.313,0-0.612-0.149-0.8-0.399l-4.5-6c-0.265-0.354-0.265-0.848,0-1.201l4.5-5.999C7.388,28.149,7.687,28,8,28H47z M28,26v-2h2v2H28z M59.3,15.601l-4.5,5.999C54.612,21.851,54.313,22,54,22H15c-0.551,0-1-0.448-1-1V9c0-0.552,0.449-1,1-1h39c0.313,0,0.612,0.149,0.8,0.399l4.5,6C59.565,14.753,59.565,15.247,59.3,15.601z"/><path d="M53,10h-4c-0.552,0-1,0.447-1,1s0.448,1,1,1h4c0.552,0,1-0.447,1-1S53.552,10,53,10z"/><path d="M45,10H17c-0.552,0-1,0.447-1,1s0.448,1,1,1h28c0.552,0,1-0.447,1-1S45.552,10,45,10z"/><path d="M39,37c0.552,0,1-0.447,1-1v-2c0-0.553-0.448-1-1-1s-1,0.447-1,1v2C38,36.553,38.448,37,39,37z"/><path d="M44,37c0.552,0,1-0.447,1-1v-2c0-0.553-0.448-1-1-1s-1,0.447-1,1v2C43,36.553,43.448,37,44,37z"/><path d="M34,37c0.552,0,1-0.447,1-1v-2c0-0.553-0.448-1-1-1s-1,0.447-1,1v2C33,36.553,33.448,37,34,37z"/><path d="M29,37c0.552,0,1-0.447,1-1v-2c0-0.553-0.448-1-1-1s-1,0.447-1,1v2C28,36.553,28.448,37,29,37z"/><path d="M24,37c0.552,0,1-0.447,1-1v-2c0-0.553-0.448-1-1-1s-1,0.447-1,1v2C23,36.553,23.448,37,24,37z"/><path d="M19,37c0.552,0,1-0.447,1-1v-2c0-0.553-0.448-1-1-1s-1,0.447-1,1v2C18,36.553,18.448,37,19,37z"/><path d="M14,37c0.552,0,1-0.447,1-1v-2c0-0.553-0.448-1-1-1s-1,0.447-1,1v2C13,36.553,13.448,37,14,37z"/><path d="M8,36c0,0.553,0.448,1,1,1s1-0.447,1-1v-2c0-0.553-0.448-1-1-1s-1,0.447-1,1V36z"/></g></g><g id="&#x421;&#x43B;&#x43E;&#x439;_2"></g><g id="&#x421;&#x43B;&#x43E;&#x439;_3"></g><g id="&#x421;&#x43B;&#x43E;&#x439;_4"></g><g id="&#x421;&#x43B;&#x43E;&#x439;_5"></g></svg>