<?xml version="1.0" encoding="utf-8"?><!-- Generator: Adobe Illustrator 15.0.0, SVG Export Plug-In . SVG Version: 6.00 Build 0)  --><!DOCTYPE svg PUBLIC "-//W3C//DTD SVG 1.1//EN" "http://www.w3.org/Graphics/SVG/1.1/DTD/svg11.dtd"><svg xmlns="http://www.w3.org/2000/svg" xmlns:xlink="http://www.w3.org/1999/xlink" viewBox="0 0 50 50" width="500px" height="500px"><line fill="none" stroke="#000000" stroke-width="2" stroke-linecap="round" stroke-miterlimit="10" x1="25" y1="4" x2="25" y2="35"/><path d="M25,36.414l-8.707-8.707c-0.391-0.391-0.391-1.023,0-1.414s1.023-0.391,1.414,0L25,33.586l7.293-7.293c0.391-0.391,1.023-0.391,1.414,0s0.391,1.023,0,1.414L25,36.414z"/><path d="M33.215,31.027l-6.801,6.801L25,39.242l-1.414-1.414l-6.797-6.797c-8.368,1.01-15.421,3.573-15.757,7.517C1.011,38.629,1,38.713,1,38.8c0,5.391,12.365,8.3,24,8.3c11.42,0,23.544-2.803,23.987-8.004c0.021-0.081,0.032-0.165,0.032-0.252C49.02,34.727,41.806,32.06,33.215,31.027z"/></svg>