<?xml version="1.0" encoding="iso-8859-1"?><!-- Generator: Adobe Illustrator 21.1.0, SVG Export Plug-In . SVG Version: 6.00 Build 0)  --><svg xmlns="http://www.w3.org/2000/svg" xmlns:xlink="http://www.w3.org/1999/xlink" viewBox="0 0 50 50" width="500px" height="500px"><path d="M47.962,20.151c0.97-3.32,1.61-6.624-1.14-7.774c-0.93-0.38-2.242-0.241-4.642,0.219c-0.87,0.16-1.76,0.574-2.43,0.634l-1.87-2.79c-0.19-0.27-0.5-0.44-0.83-0.44h-2.1c-0.5-5.05-4.77-9-9.95-9s-9.45,3.95-9.95,9C12.97,10,11,9.965,11,13.095c0,0.15,0.03,0.31,0.1,0.45c0.63,1.25,0.76,2.26,0.71,2.75c-2.17-0.66-4.89,0.505-5.63,1.425c-0.28,0.34-0.35,0.68-0.31,0.97c-0.27,0.5-1.13,1.67-1.77,2.55c-2.74,3.71-3.497,5.084-2.717,6.124c0.11,0.14,0.25,0.25,0.42,0.32c4.13,1.71,4.117,3.716,4.237,5.656c0.08,1.51,0.19,3.39,2.63,4.17c0.68,0.34,0.84,2.55,0.56,4.35c-0.05,0.31,0.04,0.62,0.26,0.84c3.97,4.25,4.89,4.1,5.45,3.7c0.64-0.03,2.857,0.399,4.197,0.749c3.38,0.88,4.51,1.18,5.06,0.2c0.05-0.09,0.12-0.23,0.21-0.4c0.36-0.7,1.413-2.589,2.363-3.259c1.1,0.21,5.03,2.31,7.19,3.46c2.36,1.26,3.23,1.71,3.67,1.81C37.75,48.99,37.87,49,38,49c1.11,0,2.4-0.973,5.25-3.373c0.12-0.1,0.21-0.18,0.25-0.21c0.22-0.17,0.38-0.45,0.41-0.72c0.07-0.56-0.28-1-0.9-1.79c-0.28-0.35-0.49-1.107-0.62-1.427c0.15-0.83,1.805-3.926,2.905-5.816c2.58-4.47,3.05-5.33,2.38-6.12c-0.09-0.11-0.21-0.2-0.34-0.26c-2.57-1.18-2.915-5.624-2.955-7.124c0.39-0.19,0.852-0.335,1.292-0.515C47.252,20.995,47.782,20.761,47.962,20.151z M17.5,32c-1.38,0-2.5-1.12-2.5-2.5s1.12-2.5,2.5-2.5s2.5,1.12,2.5,2.5S18.88,32,17.5,32z M25,26.39c-2.79-3.62-8-11.24-8-15.39c0-4.41,3.59-8,8-8s8,3.59,8,8C33,15.67,27.15,23.63,25,26.39z"/><circle style="fill:none;stroke:#000000;stroke-width:2;stroke-miterlimit:10;" cx="25" cy="11" r="3"/></svg>