<?xml version="1.0" encoding="iso-8859-1"?>
<!-- Generator: Adobe Illustrator 25.0.0, SVG Export Plug-In . SVG Version: 6.00 Build 0)  -->
<svg version="1.1" id="Layer_1" xmlns="http://www.w3.org/2000/svg" xmlns:xlink="http://www.w3.org/1999/xlink" x="0px" y="0px"
	 viewBox="0 0 48 48" style="enable-background:new 0 0 48 48;" xml:space="preserve">
<circle cx="36" cy="12" r="2.5"/>
<path style="fill:none;stroke:#000000;stroke-width:3;stroke-miterlimit:10;" d="M44.5,11.878C44.5,7.251,40.694,3.5,36,3.5
	s-8.5,3.751-8.5,8.378c0,2.076,0.771,3.973,2.04,5.436c0,0,4.034,4.521,5.328,5.737c0.636,0.598,1.629,0.598,2.265,0
	c1.507-1.417,5.328-5.737,5.328-5.737C43.729,15.851,44.5,13.955,44.5,11.878z"/>
<g>
	<path d="M41,24.114V34.5c0,1.93-1.57,3.5-3.5,3.5h-27C8.57,38,7,36.43,7,34.5V20.016l16.287,8.804C23.509,28.939,23.755,29,24,29
		s0.491-0.061,0.713-0.181l7.12-3.848c-0.603-0.616-1.374-1.44-2.127-2.26L24,25.795L7,16.606V15.5c0-1.93,1.57-3.5,3.5-3.5h13.506
		c0-0.041-0.006-0.081-0.006-0.122c0-0.994,0.138-1.955,0.371-2.878H10.5C6.916,9,4,11.916,4,15.5v19c0,3.584,2.916,6.5,6.5,6.5h27
		c3.584,0,6.5-2.916,6.5-6.5V20.846C43.166,21.775,42.013,23.047,41,24.114z"/>
</g>
</svg>