<?xml version="1.0" encoding="iso-8859-1"?><!-- Generator: Adobe Illustrator 21.1.0, SVG Export Plug-In . SVG Version: 6.00 Build 0)  --><svg xmlns="http://www.w3.org/2000/svg" xmlns:xlink="http://www.w3.org/1999/xlink" viewBox="0 0 50 50" width="500px" height="500px"><path d="M15.73,29.74C11.91,27.19,1.3,20.08,1,19.87v21.65L15.73,29.74z"/><path d="M31.57,30.93l-2.77,1.79C27.01,33.87,25.2,34,24.5,34s-2.51-0.13-4.3-1.28c-0.29-0.19-1.3-0.86-2.73-1.82L1,44.08V46c0,0.55,0.45,1,1,1h45c0.55,0,1-0.45,1-1v-1.92L31.57,30.93z"/><path d="M40,1c-5.51,0-10,4.49-10,10c0,0.91,0.19,1.93,0.52,3H2c-0.55,0-1,0.45-1,1v2.46c0.24,0.17,19.19,12.88,20.28,13.58c1.35,0.87,2.7,0.96,3.22,0.96s1.88-0.09,3.22-0.96l8.76-5.66l1.08,1.68l-4.23,2.73L48,41.52V17.71c1.16-2.37,2-4.75,2-6.71C50,5.49,45.51,1,40,1z M40,26.39c-2.79-3.62-8-11.24-8-15.39c0-4.41,3.59-8,8-8s8,3.59,8,8C48,15.67,42.15,23.63,40,26.39z"/><circle style="fill:none;stroke:#000000;stroke-width:2;stroke-linecap:round;stroke-linejoin:round;stroke-miterlimit:10;" cx="40" cy="11" r="3"/></svg>