<?xml version="1.0" encoding="iso-8859-1"?>
<!-- Generator: Adobe Illustrator 22.0.1, SVG Export Plug-In . SVG Version: 6.00 Build 0)  -->
<svg version="1.1" id="&#x421;&#x43B;&#x43E;&#x439;_2"
	 xmlns="http://www.w3.org/2000/svg" xmlns:xlink="http://www.w3.org/1999/xlink" x="0px" y="0px" viewBox="0 0 50 50"
	 style="enable-background:new 0 0 50 50;" xml:space="preserve">
<path d="M42.678,7.322c-9.765-9.765-25.59-9.765-35.355,0s-9.765,25.59,0,35.355s25.59,9.765,35.355,0S52.443,17.087,42.678,7.322z
	 M8.737,41.263c-8.966-8.966-8.966-23.561,0-32.527s23.561-8.966,32.527,0s8.966,23.561,0,32.527S17.703,50.23,8.737,41.263z"/>
<polygon points="23.388,23.388 26.612,26.612 16.981,33.019 "/>
<path d="M38.435,38.435c0.389-0.389,1.025-0.389,1.414,0l0.672,0.672c7.262-7.983,7.262-20.23,0-28.214l-0.672,0.672
	c-0.389,0.389-1.025,0.389-1.414,0c-0.389-0.389-0.389-1.025,0-1.414l0.672-0.672c-7.983-7.262-20.23-7.262-28.214,0l0.672,0.672
	c0.389,0.389,0.389,1.025,0,1.414c-0.389,0.389-1.025,0.389-1.414,0l-0.672-0.672c-7.262,7.983-7.262,20.23,0,28.214l0.672-0.672
	c0.389-0.389,1.025-0.389,1.414,0c0.389,0.389,0.389,1.025,0,1.414l-0.672,0.672c7.983,7.262,20.23,7.262,28.214,0l-0.672-0.672
	C38.046,39.46,38.046,38.824,38.435,38.435z M27.885,28.168l-13.937,9.27c-0.403,0.262-0.933,0.212-1.266-0.12
	c-0.339-0.339-0.389-0.87-0.12-1.266l9.27-13.937c0.071-0.113,0.17-0.212,0.283-0.283l13.937-9.27
	c0.396-0.269,0.919-0.212,1.259,0.127s0.396,0.863,0.127,1.259l-9.27,13.937C28.097,27.998,27.998,28.097,27.885,28.168z"/>
</svg>