<?xml version="1.0" encoding="iso-8859-1"?><!-- Generator: Adobe Illustrator 19.2.0, SVG Export Plug-In . SVG Version: 6.00 Build 0)  --><svg xmlns="http://www.w3.org/2000/svg" xmlns:xlink="http://www.w3.org/1999/xlink" viewBox="0 0 50 50" width="500px" height="500px"><path d="M47.493,4.131c-0.313-0.178-0.698-0.174-1.008,0.013L36.956,9.86L25.447,4.106c-0.292-0.146-0.64-0.14-0.926,0.017L14,9.861L3.479,4.123C3.169,3.953,2.792,3.96,2.489,4.141C2.187,4.321,2,4.648,2,5.001v34c0,0.366,0.2,0.703,0.521,0.878l11,6c0.297,0.162,0.66,0.162,0.957,0l10.542-5.75l11.532,5.767c0.142,0.07,0.294,0.105,0.447,0.105c0.179,0,0.356-0.048,0.515-0.143l10-6C47.815,39.677,48,39.352,48,39.001v-34C48,4.64,47.807,4.308,47.493,4.131z M19,15.001h3v2l-3,2l-1-2L19,15.001z M19,30.001l-1,1l-1,5l-2-1l-1-5l-2-2l1-2l-3-3l-1-4H7v-1l2-2h2l6-1v1l-1,1l2,2l-1,1l-3,3v2l4,1l2,2L19,30.001z M41,35.001l-2-2h-2v-2l4-2l1,3L41,35.001z M40,19.001l1,3l-2,2l-1,2l-2-2l-1,2l-1-2l-3,2l-2-2h-2l2,1l2,3v2l-3,6l-2-2l-1-5l-3-2l1-3l4-3v-1l-3,2v-3l3-2l7-1l9,1L40,19.001z"/></svg>