<?xml version="1.0" encoding="iso-8859-1"?>
<!-- Generator: Adobe Illustrator 24.2.1, SVG Export Plug-In . SVG Version: 6.00 Build 0)  -->
<svg version="1.1" id="Layer_1" xmlns="http://www.w3.org/2000/svg" xmlns:xlink="http://www.w3.org/1999/xlink" x="0px" y="0px"
	 viewBox="0 0 48 48" style="enable-background:new 0 0 48 48;" xml:space="preserve">
<circle cx="24" cy="13" r="2.143"/>
<path d="M43,20.5v-8c0-1.93-1.57-3.5-3.5-3.5H31c-0.099,0-0.197,0.01-0.294,0.029l-0.314,0.063C31.09,10.231,31.5,11.566,31.5,13
	c0,3.219-4.53,9.416-6.549,12.018c-0.483,0.622-1.42,0.622-1.903,0C21.03,22.416,16.5,16.219,16.5,13
	c0-0.392,0.039-0.774,0.097-1.149L15.852,12h-5.747c-1.653,0-3.059,1.127-3.416,2.74l-1.652,7.434
	c-0.075,0.336-0.032,0.688,0.122,0.997l2.723,5.444l-0.804,2.411c-0.083,0.248-0.1,0.512-0.048,0.768l1,5
	c0.058,0.291,0.2,0.557,0.41,0.767l3,3C11.721,40.842,12.103,41,12.5,41h9c0.397,0,0.779-0.158,1.061-0.439l2.235-2.235l7.033,3.517
	C32.04,41.947,32.27,42,32.5,42c0.178,0,0.356-0.032,0.526-0.096l8-3C41.612,38.685,42,38.125,42,37.5v-4.815l0.955-3.821
	c0.087-0.347,0.047-0.714-0.113-1.035l-2.408-4.815l1.898-1.266C42.749,21.47,43,21.001,43,20.5z M16.5,34
	c-1.381,0-2.5-1.119-2.5-2.5c0-1.381,1.119-2.5,2.5-2.5s2.5,1.119,2.5,2.5C19,32.881,17.881,34,16.5,34z"/>
<path style="fill:none;stroke:#000000;stroke-width:3;stroke-linecap:round;stroke-linejoin:round;stroke-miterlimit:10;" d="
	M31.5,13c0,3.219-4.53,9.416-6.549,12.018c-0.483,0.622-1.42,0.622-1.903,0C21.03,22.416,16.5,16.219,16.5,13
	c0-4.142,3.358-7.5,7.5-7.5S31.5,8.858,31.5,13z"/>
</svg>