<?xml version="1.0" encoding="iso-8859-1"?><!-- Generator: Adobe Illustrator 21.1.0, SVG Export Plug-In . SVG Version: 6.00 Build 0)  --><svg xmlns="http://www.w3.org/2000/svg" xmlns:xlink="http://www.w3.org/1999/xlink" viewBox="0 0 50 50" width="500px" height="500px"><g></g><line style="fill:none;stroke:#000000;stroke-width:2;stroke-linecap:round;stroke-miterlimit:10;" x1="5" y1="5" x2="45" y2="45"/><path d="M11.589,13.003C13.314,7.226,18.67,3,25,3c7.72,0,14,6.28,14,14c0,5.661-2.742,12.08-5.862,17.552l1.483,1.483C37.976,30.24,41,23.28,41,17c0-8.822-7.178-16-16-16c-6.863,0-12.713,4.351-14.981,10.433L11.589,13.003z"/><path d="M32.09,36.332c-2.832,4.675-5.756,8.448-7.095,10.105C21.978,42.764,11,28.591,11,17c0-0.56,0.042-1.109,0.106-1.651l-1.737-1.737C9.132,14.705,9,15.837,9,17c0,14.114,14.626,30.949,15.248,31.659C24.438,48.876,24.712,49,25,49c0.001,0,0.003,0,0.004,0c0.29-0.001,0.564-0.128,0.754-0.347c0.31-0.36,4.091-4.786,7.809-10.844L32.09,36.332z"/><path d="M23.392,24.806C23.909,24.929,24.446,25,25,25c3.859,0,7-3.141,7-7s-3.141-7-7-7s-7,3.141-7,7c0,0.554,0.071,1.091,0.194,1.608L23.392,24.806z M25,13c2.757,0,5,2.243,5,5s-2.243,5-5,5s-5-2.243-5-5S22.243,13,25,13z"/></svg>