<?xml version="1.0" encoding="iso-8859-1"?>
<!-- Generator: Adobe Illustrator 25.0.0, SVG Export Plug-In . SVG Version: 6.00 Build 0)  -->
<svg version="1.1" id="Layer_1" xmlns="http://www.w3.org/2000/svg" xmlns:xlink="http://www.w3.org/1999/xlink" x="0px" y="0px"
	 viewBox="0 0 48 48" style="enable-background:new 0 0 48 48;" xml:space="preserve">
<path d="M36,2c-5.514,0-10,4.432-10,9.878c0,2.35,0.854,4.63,2.421,6.436c0.166,0.187,4.093,4.585,5.419,5.831
	c0.605,0.569,1.383,0.854,2.16,0.854s1.555-0.285,2.16-0.854c1.54-1.447,5.266-5.658,5.433-5.848C45.146,16.508,46,14.228,46,11.878
	C46,6.432,41.514,2,36,2z M36,14.5c-1.381,0-2.5-1.119-2.5-2.5c0-1.381,1.119-2.5,2.5-2.5c1.381,0,2.5,1.119,2.5,2.5
	C38.5,13.381,37.381,14.5,36,14.5z"/>
<g>
	<path d="M39.53,25.602c-0.958,0.901-2.212,1.397-3.53,1.397s-2.572-0.496-3.53-1.397c-0.249-0.234-0.581-0.57-0.957-0.96
		L24.71,28.32c-0.22,0.12-0.46,0.18-0.71,0.18s-0.49-0.06-0.71-0.18L4,17.89V35c0,3.31,2.69,6,6,6h28c3.31,0,6-2.69,6-6V20.845
		C42.714,22.278,40.626,24.572,39.53,25.602z"/>
	<path d="M29.397,22.375c-1.293-1.411-2.449-2.708-2.47-2.732C25.033,17.461,24,14.71,24,11.878c0-0.994,0.138-1.955,0.371-2.878H10
		c-3.14,0-5.72,2.42-5.98,5.5L24,25.29L29.397,22.375z"/>
</g>
</svg>