<?xml version="1.0" encoding="iso-8859-1"?>
<!-- Generator: Adobe Illustrator 27.7.0, SVG Export Plug-In . SVG Version: 6.00 Build 0)  -->
<svg version="1.1" baseProfile="basic" id="Layer_1"
	 xmlns="http://www.w3.org/2000/svg" xmlns:xlink="http://www.w3.org/1999/xlink" x="0px" y="0px" viewBox="0 0 32 32"
	 xml:space="preserve">
<circle cx="22" cy="7" r="1"/>
<circle cx="19" cy="13" r="1"/>
<circle cx="16" cy="10" r="1"/>
<circle cx="16" cy="16" r="1"/>
<circle cx="22" cy="13" r="1"/>
<circle cx="22" cy="10" r="1"/>
<circle cx="25" cy="13" r="1"/>
<circle cx="19" cy="7" r="1"/>
<circle cx="25" cy="7" r="1"/>
<circle cx="28" cy="4" r="1"/>
<circle cx="25" cy="10" r="1"/>
<circle cx="28" cy="7" r="1"/>
<circle cx="25" cy="4" r="1"/>
<circle cx="19" cy="16" r="1"/>
<circle cx="19" cy="19" r="1"/>
<circle cx="22" cy="19" r="1"/>
<circle cx="16" cy="22" r="1"/>
<circle cx="16" cy="19" r="1"/>
<circle cx="13" cy="19" r="1"/>
<circle cx="19" cy="22" r="1"/>
<circle cx="22" cy="22" r="1"/>
<circle cx="16" cy="25" r="1"/>
<circle cx="19" cy="25" r="1"/>
<circle cx="16" cy="28" r="1"/>
<circle cx="19" cy="28" r="1"/>
<circle cx="22" cy="16" r="1"/>
<circle cx="16" cy="13" r="1"/>
<circle cx="13" cy="13" r="1"/>
<circle cx="13" cy="16" r="1"/>
<circle cx="13" cy="10" r="1"/>
<circle cx="10" cy="13" r="1"/>
<circle cx="10" cy="10" r="1"/>
<circle cx="10" cy="16" r="1"/>
<circle cx="7" cy="16" r="1"/>
<circle cx="7" cy="13" r="1"/>
<circle cx="4" cy="16" r="1"/>
<circle cx="4" cy="13" r="1"/>
<circle cx="19" cy="10" r="1"/>
</svg>