<?xml version="1.0" encoding="utf-8"?><!-- Generator: Adobe Illustrator 17.0.0, SVG Export Plug-In . SVG Version: 6.00 Build 0)  --><!DOCTYPE svg PUBLIC "-//W3C//DTD SVG 1.1//EN" "http://www.w3.org/Graphics/SVG/1.1/DTD/svg11.dtd"><svg xmlns="http://www.w3.org/2000/svg" xmlns:xlink="http://www.w3.org/1999/xlink" viewBox="0 0 50 50" width="500px" height="500px"><rect x="0" fill="none" width="50" height="50"/><g><path fill="none" stroke="#000000" stroke-width="2" stroke-linecap="round" stroke-linejoin="round" stroke-miterlimit="10" d="M33,9c0-1.126,0-1.766,0-2.062C33,6.017,32.257,5.629,31.333,5L25,1l-6.333,4C17.857,5.571,17,6.017,17,6.938C17,7.234,17,7.874,17,9H33z"/><path fill="none" stroke="#000000" stroke-width="2" stroke-linecap="round" stroke-linejoin="round" stroke-miterlimit="10" d="M17,13c0,1.126,0,2.037,0,2.333C17,16.254,17.746,17,18.667,17h12.667C32.254,17,33,16.254,33,15.333c0-0.296,0-1.207,0-2.333H17z"/></g><line fill="none" stroke="#000000" stroke-width="2" stroke-linecap="round" stroke-linejoin="round" stroke-miterlimit="10" x1="33" y1="9" x2="49" y2="4.004"/><line fill="none" stroke="#000000" stroke-width="2" stroke-linecap="round" stroke-linejoin="round" stroke-miterlimit="10" x1="49" y1="17.996" x2="33" y2="13"/><line fill="none" stroke="#000000" stroke-width="2" stroke-linecap="round" stroke-linejoin="round" stroke-miterlimit="10" x1="17" y1="9" x2="1" y2="4.004"/><line fill="none" stroke="#000000" stroke-width="2" stroke-linecap="round" stroke-linejoin="round" stroke-miterlimit="10" x1="1" y1="17.996" x2="17" y2="13"/><path fill="none" stroke="#000000" stroke-width="2" stroke-linecap="round" stroke-linejoin="round" stroke-miterlimit="10" d="M19.429,17L12,49h26l-7.429-32"/><line fill="none" stroke="#000000" stroke-width="2" stroke-miterlimit="10" x1="19" y1="9" x2="19" y2="13"/><line fill="none" stroke="#000000" stroke-width="2" stroke-miterlimit="10" x1="31" y1="9" x2="31" y2="13"/><g><line fill="none" stroke="#000000" stroke-width="2" stroke-linecap="round" stroke-linejoin="round" stroke-miterlimit="10" x1="12.276" y1="47.809" x2="35.099" y2="36.501"/><line fill="none" stroke="#000000" stroke-width="2" stroke-linecap="round" stroke-linejoin="round" stroke-miterlimit="10" x1="24" y1="49" x2="36.555" y2="42.779"/><line fill="none" stroke="#000000" stroke-width="2" stroke-linecap="round" stroke-linejoin="round" stroke-miterlimit="10" x1="14.113" y1="39.899" x2="33.642" y2="30.223"/><line fill="none" stroke="#000000" stroke-width="2" stroke-linecap="round" stroke-linejoin="round" stroke-miterlimit="10" x1="15.949" y1="31.989" x2="32.184" y2="23.945"/><line fill="none" stroke="#000000" stroke-width="2" stroke-linecap="round" stroke-linejoin="round" stroke-miterlimit="10" x1="17.786" y1="24.079" x2="30.726" y2="17.667"/></g></svg>