<?xml version="1.0" encoding="iso-8859-1"?><!-- Generator: Adobe Illustrator 21.0.2, SVG Export Plug-In . SVG Version: 6.00 Build 0)  --><svg xmlns="http://www.w3.org/2000/svg" xmlns:xlink="http://www.w3.org/1999/xlink" viewBox="0 0 80 80" width="480px" height="480px"><path style="fill:none;stroke:#000000;stroke-width:2;stroke-miterlimit:10;" d="M62,30c0,12.15-22,42-22,42S18,42.15,18,30S27.85,8,40,8S62,17.85,62,30z"/><circle style="fill:none;stroke:#000000;stroke-width:2;stroke-miterlimit:10;" cx="40" cy="30" r="6"/><circle cx="40" cy="12" r="1"/><circle cx="58" cy="30" r="1"/><circle cx="22" cy="30" r="1"/><ellipse transform="matrix(0.866 -0.5 0.5 0.866 -3.0526 17.4308)" cx="31" cy="14.412" rx="1" ry="1"/><ellipse transform="matrix(0.866 -0.5 0.5 0.866 -3.0526 30.6077)" cx="55.588" cy="21" rx="1" ry="1"/><ellipse transform="matrix(0.5 -0.866 0.866 0.5 -5.9808 31.641)" cx="24.412" cy="21" rx="1" ry="1"/><ellipse transform="matrix(0.5 -0.866 0.866 0.5 12.0192 49.641)" cx="49" cy="14.412" rx="1" ry="1"/><ellipse transform="matrix(0.9659 -0.2588 0.2588 0.9659 -2.0603 9.5768)" cx="35.341" cy="12.613" rx="1" ry="1"/><ellipse transform="matrix(0.9659 -0.2588 0.2588 0.9659 -4.6034 15.7162)" cx="57.387" cy="25.341" rx="1" ry="1"/><ellipse transform="matrix(0.9659 -0.2588 0.2588 0.9659 -8.1998 7.0337)" cx="22.613" cy="34.659" rx="1" ry="1"/><ellipse transform="matrix(0.7071 -0.7071 0.7071 0.7071 -4.2254 24.3431)" cx="27.272" cy="17.272" rx="1" ry="1"/><ellipse transform="matrix(0.7071 -0.7071 0.7071 0.7071 3.2304 42.3431)" cx="52.728" cy="17.272" rx="1" ry="1"/><ellipse transform="matrix(0.2588 -0.9659 0.9659 0.2588 -7.7172 40.6253)" cx="22.613" cy="25.341" rx="1" ry="1"/><ellipse transform="matrix(0.2588 -0.9659 0.9659 0.2588 9.0561 81.1197)" cx="57.387" cy="34.659" rx="1" ry="1"/><ellipse transform="matrix(0.2588 -0.9659 0.9659 0.2588 20.9167 52.4858)" cx="44.659" cy="12.613" rx="1" ry="1"/></svg>