<?xml version="1.0" encoding="iso-8859-1"?>
<!-- Generator: Adobe Illustrator 22.1.0, SVG Export Plug-In . SVG Version: 6.00 Build 0)  -->
<svg version="1.1" id="Layer_1_1_" xmlns="http://www.w3.org/2000/svg" xmlns:xlink="http://www.w3.org/1999/xlink" x="0px" y="0px"
	 viewBox="0 0 48 48" style="enable-background:new 0 0 48 48;" xml:space="preserve">
<path style="fill:none;stroke:#000000;stroke-width:3;stroke-miterlimit:10;" d="M23.648,4.504
	C13.554,4.714,6.295,14.142,7.693,24.141c0.526,3.766,2.187,6.145,5.662,9.872c1.172,1.257,5.363,5.503,8.363,8.533
	C22.347,43.182,23.174,43.5,24,43.5s1.653-0.318,2.282-0.953c3-3.031,7.191-7.277,8.363-8.533C38.993,29.351,40.5,26.797,40.5,21
	C40.5,11.77,32.922,4.311,23.648,4.504z"/>
<circle style="fill:none;stroke:#000000;stroke-width:3;stroke-linecap:round;stroke-miterlimit:10;" cx="24" cy="21" r="5.5"/>
<line style="fill:none;stroke:#000000;stroke-width:3;stroke-linecap:round;stroke-miterlimit:10;" x1="24" y1="11.5" x2="24" y2="15.5"/>
<line style="fill:none;stroke:#000000;stroke-width:3;stroke-linecap:round;stroke-miterlimit:10;" x1="17.282" y1="14.282" x2="20.111" y2="17.111"/>
<line style="fill:none;stroke:#000000;stroke-width:3;stroke-linecap:round;stroke-miterlimit:10;" x1="14.5" y1="21" x2="18.5" y2="21"/>
<line style="fill:none;stroke:#000000;stroke-width:3;stroke-linecap:round;stroke-miterlimit:10;" x1="17.282" y1="27.718" x2="20.111" y2="24.889"/>
<line style="fill:none;stroke:#000000;stroke-width:3;stroke-linecap:round;stroke-miterlimit:10;" x1="24" y1="30.5" x2="24" y2="26.5"/>
<line style="fill:none;stroke:#000000;stroke-width:3;stroke-linecap:round;stroke-miterlimit:10;" x1="30.718" y1="27.718" x2="27.889" y2="24.889"/>
<line style="fill:none;stroke:#000000;stroke-width:3;stroke-linecap:round;stroke-miterlimit:10;" x1="33.5" y1="21" x2="29.5" y2="21"/>
<line style="fill:none;stroke:#000000;stroke-width:3;stroke-linecap:round;stroke-miterlimit:10;" x1="30.718" y1="14.282" x2="27.889" y2="17.111"/>
</svg>