<?xml version="1.0" encoding="iso-8859-1"?>
<!-- Generator: Adobe Illustrator 23.0.3, SVG Export Plug-In . SVG Version: 6.00 Build 0)  -->
<svg version="1.1" id="Layer_1" xmlns="http://www.w3.org/2000/svg" xmlns:xlink="http://www.w3.org/1999/xlink" x="0px" y="0px"
	 viewBox="0 0 50 50" style="enable-background:new 0 0 50 50;" xml:space="preserve">
<line style="fill:none;stroke:#000000;stroke-width:2;stroke-miterlimit:10;" x1="2" y1="25" x2="23.758" y2="25"/>
<polyline style="fill:none;stroke:#000000;stroke-width:2;stroke-miterlimit:10;" points="17.758,19 23.758,25 17.758,31 "/>
<line style="fill:none;stroke:#000000;stroke-width:2;stroke-miterlimit:10;" x1="26" y1="25" x2="47.758" y2="25"/>
<polyline style="fill:none;stroke:#000000;stroke-width:2;stroke-miterlimit:10;" points="32,19 26,25 32,31 "/>
<path d="M24,43.868v-8.783c-2.217,0.056-4.355,0.293-6.351,0.697C19.109,40.152,21.406,43.23,24,43.868z"/>
<path d="M11.143,12.043c1.361,0.677,2.889,1.243,4.537,1.692c0.933-2.847,2.213-5.209,3.739-6.895
	C16.213,7.827,13.38,9.652,11.143,12.043z"/>
<path d="M17.654,14.204c2.013,0.412,4.151,0.654,6.346,0.711V6.132C21.408,6.77,19.114,9.842,17.654,14.204z"/>
<path d="M19.418,43.16c-1.529-1.689-2.811-4.057-3.744-6.911c-1.663,0.453-3.19,1.025-4.527,1.713
	C13.383,40.351,16.215,42.174,19.418,43.16z"/>
<path d="M26,43.868c2.592-0.638,4.886-3.71,6.346-8.072c-2.013-0.412-4.151-0.654-6.346-0.711V43.868z"/>
<path d="M6.275,22h7.851c0.162-2.259,0.5-4.394,0.999-6.348c-1.938-0.53-3.724-1.215-5.297-2.04C8.009,16.028,6.771,18.89,6.275,22z
	"/>
<path d="M30.582,6.84c1.529,1.689,2.811,4.057,3.744,6.911c1.663-0.453,3.19-1.025,4.527-1.713
	C36.617,9.649,33.785,7.826,30.582,6.84z"/>
<path d="M26,6.132v8.783c2.217-0.056,4.355-0.293,6.351-0.697C30.891,9.848,28.594,6.77,26,6.132z"/>
<path d="M15.121,34.332c-0.496-1.95-0.833-4.079-0.995-6.332H6.275c0.497,3.115,1.739,5.981,3.562,8.4
	C11.383,35.561,13.165,34.867,15.121,34.332z"/>
<path d="M30.581,43.16c3.206-0.987,6.039-2.812,8.276-5.203c-1.361-0.677-2.889-1.243-4.537-1.692
	C33.387,39.112,32.107,41.474,30.581,43.16z"/>
<g>
	<path d="M43.725,28h-7.851c-0.162,2.259-0.5,4.394-0.999,6.348c1.938,0.53,3.724,1.215,5.297,2.04
		C41.991,33.972,43.229,31.11,43.725,28z"/>
	<path d="M25,4c10.558,0,19.297,7.841,20.76,18h2.038C46.323,10.731,36.665,2,25,2S3.677,10.731,2.202,22H4.24
		C5.703,11.841,14.442,4,25,4z"/>
	<path d="M45.76,28C44.297,38.159,35.558,46,25,46S5.703,38.159,4.24,28H2.202C3.677,39.269,13.335,48,25,48s21.323-8.731,22.798-20
		H45.76z"/>
	<path d="M34.879,15.668c0.496,1.95,0.833,4.079,0.995,6.332h7.851c-0.497-3.115-1.739-5.981-3.562-8.4
		C38.617,14.439,36.835,15.133,34.879,15.668z"/>
</g>
</svg>