<?xml version="1.0" encoding="utf-8"?><!-- Generator: Adobe Illustrator 15.0.0, SVG Export Plug-In . SVG Version: 6.00 Build 0)  --><!DOCTYPE svg PUBLIC "-//W3C//DTD SVG 1.1//EN" "http://www.w3.org/Graphics/SVG/1.1/DTD/svg11.dtd"><svg xmlns="http://www.w3.org/2000/svg" xmlns:xlink="http://www.w3.org/1999/xlink" viewBox="0 0 50 50" width="500px" height="500px"><path d="M49.958,17.075c-0.109-0.364-0.416-0.635-0.791-0.698l-8.872-1.506l9.388-8.774c0.278-0.259,0.385-0.654,0.275-1.018s-0.416-0.635-0.791-0.698L23.426,0.009c-0.273-0.046-0.555,0.023-0.775,0.192L0.392,17.239c-0.304,0.232-0.448,0.618-0.372,0.993s0.359,0.673,0.73,0.769l9.732,2.512l-10.09,7.724C0.088,29.47-0.056,29.855,0.02,30.23S0.379,30.904,0.75,31l9.731,2.512L0.392,41.233c-0.304,0.232-0.448,0.618-0.372,0.993s0.359,0.674,0.73,0.77l26.994,6.968c0.083,0.021,0.167,0.031,0.25,0.031c0.25,0,0.495-0.094,0.683-0.27l21.006-19.634c0.278-0.26,0.385-0.654,0.275-1.019c-0.109-0.363-0.416-0.634-0.791-0.698l-8.872-1.506l9.388-8.776C49.961,17.834,50.067,17.439,49.958,17.075z M46.842,30.01L27.713,47.89L3.239,41.572l9.466-7.244c0.073-0.056,0.12-0.129,0.173-0.198l14.866,3.837c0.083,0.021,0.167,0.031,0.25,0.031c0.25,0,0.495-0.094,0.683-0.27l9.78-9.143L46.842,30.01z M27.712,35.893L3.239,29.576l9.704-7.428l14.801,3.82C27.827,25.99,27.911,26,27.994,26c0.25,0,0.495-0.094,0.683-0.27l9.781-9.143l8.384,1.423L27.712,35.893z"/></svg>