<?xml version="1.0" encoding="iso-8859-1"?><!-- Generator: Adobe Illustrator 21.1.0, SVG Export Plug-In . SVG Version: 6.00 Build 0)  --><svg xmlns="http://www.w3.org/2000/svg" xmlns:xlink="http://www.w3.org/1999/xlink" viewBox="0 0 50 50" width="500px" height="500px"><path d="M41,4H9C6.24,4,4,6.24,4,9v15h8v7h4V19h-6v-9h14v28h4V24h9.59l-4.3-4.29c-0.39-0.39-0.39-1.03,0-1.42c0.39-0.39,1.03-0.39,1.42,0l6.7,6.71l-6.7,6.71C34.51,31.9,34.26,32,34,32s-0.51-0.1-0.71-0.29c-0.39-0.39-0.39-1.03,0-1.42l4.3-4.29H30v14h-8V12H12v5h6v16h-8v-7H4v15c0,2.76,2.24,5,5,5h32c2.76,0,5-2.24,5-5V9C46,6.24,43.76,4,41,4z"/></svg>