<?xml version="1.0" encoding="iso-8859-1"?>
<!-- Generator: Adobe Illustrator 25.4.1, SVG Export Plug-In . SVG Version: 6.00 Build 0)  -->
<svg version="1.1" baseProfile="basic" id="Layer_1"
	 xmlns="http://www.w3.org/2000/svg" xmlns:xlink="http://www.w3.org/1999/xlink" x="0px" y="0px" viewBox="0 0 100 100"
	 xml:space="preserve">
<path style="fill:none;stroke:#000000;stroke-width:4;stroke-linecap:round;stroke-linejoin:round;stroke-miterlimit:10;" d="
	M29.31,56.2c0,0-15.54-19.07-15.64-28.4c-0.09-9.62,8.04-16.55,16.14-16.74c6.82-0.15,16.98,6.04,16.62,16.51
	C46.11,36.86,29.31,56.2,29.31,56.2z"/>
<path style="fill-rule:evenodd;clip-rule:evenodd;" d="M71.81,55.75c-0.3,0.46-0.92,0.59-1.38,0.3c-0.46-0.3-0.6-0.92-0.3-1.39
	c0.3-0.46,0.92-0.6,1.38-0.3C71.98,54.66,72.11,55.28,71.81,55.75"/>
<path style="fill-rule:evenodd;clip-rule:evenodd;" d="M34.12,23.38c-0.3,0.46-0.92,0.6-1.38,0.3c-0.47-0.3-0.6-0.92-0.3-1.38
	c0.29-0.47,0.91-0.6,1.38-0.3C34.28,22.3,34.42,22.92,34.12,23.38"/>
<path style="fill-rule:evenodd;clip-rule:evenodd;" d="M27.25,30.07c-0.3,0.47-0.92,0.6-1.38,0.3c-0.47-0.29-0.6-0.91-0.3-1.38
	c0.3-0.46,0.91-0.6,1.38-0.3C27.41,28.99,27.55,29.61,27.25,30.07"/>
<line style="fill:none;stroke:#000000;stroke-width:2;stroke-linecap:round;stroke-linejoin:round;stroke-miterlimit:10;" x1="41.17" y1="40.24" x2="38.43" y2="39.21"/>
<line style="fill:none;stroke:#000000;stroke-width:2;stroke-linecap:round;stroke-linejoin:round;stroke-miterlimit:10;" x1="20.51" y1="14.33" x2="22.68" y2="17.04"/>
<path style="fill:none;stroke:#000000;stroke-width:2;stroke-linecap:round;stroke-linejoin:round;stroke-miterlimit:10;" d="
	M30.02,17.68c-5.36-0.27-9.11,4.21-9.38,9.38c-0.27,5.09,4.21,9.12,9.38,9.38c5.36,0.27,9.11-4.29,9.38-9.38
	C39.67,21.89,35.19,17.94,30.02,17.68z"/>
<path style="fill:none;stroke:#000000;stroke-width:4;stroke-linecap:round;stroke-linejoin:round;stroke-miterlimit:10;" d="
	M68.07,85.26c0,0-15.54-19.07-15.63-28.4c-0.1-9.62,8.04-16.56,16.14-16.74c6.82-0.16,16.97,6.03,16.62,16.51
	C84.88,65.91,68.07,85.26,68.07,85.26z"/>
<line style="fill:none;stroke:#000000;stroke-width:2;stroke-linecap:round;stroke-linejoin:round;stroke-miterlimit:10;" x1="55.99" y1="46.55" x2="58.65" y2="48.89"/>
<line style="fill:none;stroke:#000000;stroke-width:2;stroke-linecap:round;stroke-linejoin:round;stroke-miterlimit:10;" x1="63.28" y1="78.05" x2="66.9" y2="75.82"/>
<line style="fill:none;stroke:#000000;stroke-width:2;stroke-linecap:round;stroke-linejoin:round;stroke-miterlimit:10;" x1="61.37" y1="74.38" x2="65.18" y2="72.04"/>
<path style="fill:none;stroke:#000000;stroke-width:2;stroke-linecap:round;stroke-linejoin:round;stroke-miterlimit:10;" d="
	M68.79,46.74c-5.36-0.27-9.11,4.21-9.38,9.38c-0.27,5.09,4.21,9.12,9.38,9.38c5.36,0.26,9.11-4.29,9.38-9.38
	C78.44,50.95,73.96,46.99,68.79,46.74z"/>
<line style="fill:none;stroke:#000000;stroke-width:2;stroke-linecap:round;stroke-linejoin:round;stroke-miterlimit:10;" x1="25.94" y1="50.77" x2="27.62" y2="49.08"/>
<line style="fill:none;stroke:#000000;stroke-width:2;stroke-linecap:round;stroke-linejoin:round;stroke-miterlimit:10;" x1="24.04" y1="48" x2="26.78" y2="45.28"/>
<line style="fill:none;stroke:#000000;stroke-width:2;stroke-linecap:round;stroke-linejoin:round;stroke-miterlimit:10;" x1="21.32" y1="44.02" x2="24.04" y2="40.12"/>
<line style="fill:none;stroke:#000000;stroke-width:2;stroke-linecap:round;stroke-linejoin:round;stroke-miterlimit:10;" x1="18.97" y1="40.12" x2="20.51" y2="37.85"/>
<line style="fill:none;stroke:#000000;stroke-width:2;stroke-linecap:round;stroke-linejoin:round;stroke-miterlimit:10;" x1="14.62" y1="26.82" x2="17.05" y2="27.36"/>
<line style="fill:none;stroke:#000000;stroke-width:2;stroke-linecap:round;stroke-linejoin:round;stroke-miterlimit:10;" x1="14.62" y1="22.98" x2="17.05" y2="24.29"/>
<line style="fill:none;stroke:#000000;stroke-width:2;stroke-linecap:round;stroke-linejoin:round;stroke-miterlimit:10;" x1="43.9" y1="19.46" x2="42.03" y2="20.28"/>
<line style="fill:none;stroke:#000000;stroke-width:2;stroke-linecap:round;stroke-linejoin:round;stroke-miterlimit:10;" x1="45.53" y1="22.98" x2="42.03" y2="23.64"/>
<line style="fill:none;stroke:#000000;stroke-width:2;stroke-linecap:round;stroke-linejoin:round;stroke-miterlimit:10;" x1="39.8" y1="42.87" x2="35.05" y2="41.83"/>
<line style="fill:none;stroke:#000000;stroke-width:2;stroke-linecap:round;stroke-linejoin:round;stroke-miterlimit:10;" x1="58.77" y1="72.04" x2="61.37" y2="69.95"/>
<line style="fill:none;stroke:#000000;stroke-width:2;stroke-linecap:round;stroke-linejoin:round;stroke-miterlimit:10;" x1="73" y1="78.05" x2="71.21" y2="76.94"/>
<line style="fill:none;stroke:#000000;stroke-width:2;stroke-linecap:round;stroke-linejoin:round;stroke-miterlimit:10;" x1="73" y1="69.95" x2="77.25" y2="72.04"/>
<line style="fill:none;stroke:#000000;stroke-width:2;stroke-linecap:round;stroke-linejoin:round;stroke-miterlimit:10;" x1="75.88" y1="67.62" x2="79.22" y2="69.95"/>
<line style="fill:none;stroke:#000000;stroke-width:2;stroke-linecap:round;stroke-linejoin:round;stroke-miterlimit:10;" x1="53.27" y1="54.25" x2="55.99" y2="54.87"/>
<line style="fill:none;stroke:#000000;stroke-width:2;stroke-linecap:round;stroke-linejoin:round;stroke-miterlimit:10;" x1="58.65" y1="43.86" x2="60.5" y2="46.55"/>
<line style="fill:none;stroke:#000000;stroke-width:2;stroke-linecap:round;stroke-linejoin:round;stroke-miterlimit:10;" x1="71.84" y1="40.12" x2="70.97" y2="44.54"/>
</svg>