<?xml version="1.0" encoding="iso-8859-1"?>
<!-- Generator: Adobe Illustrator 28.2.0, SVG Export Plug-In . SVG Version: 6.00 Build 0)  -->
<svg version="1.1" baseProfile="basic" id="Layer_1"
	 xmlns="http://www.w3.org/2000/svg" xmlns:xlink="http://www.w3.org/1999/xlink" x="0px" y="0px" viewBox="0 0 24 24"
	 xml:space="preserve">
<path d="M21,11.5c0-1.605-3.673-3.383-9-3.49v6.979C17.327,14.883,21,13.105,21,11.5z"/>
<path d="M12,7.01c3.827,0.074,7.056,0.986,8.743,2.329C19.797,5.298,16.271,2.249,12,2.025V7.01z"/>
<path d="M2,11.5c0,1.605,3.673,3.383,9,3.49V8.01C5.673,8.117,2,9.895,2,11.5z"/>
<path d="M11,15.99c-3.827-0.074-7.056-0.986-8.743-2.329c0.945,4.041,4.472,7.09,8.743,7.314V15.99z"/>
<path d="M12,15.99v4.985c4.271-0.224,7.797-3.273,8.743-7.314C19.056,15.003,15.827,15.916,12,15.99z"/>
<path d="M11,7.01V2.025C6.729,2.249,3.203,5.298,2.257,9.339C3.944,7.997,7.173,7.084,11,7.01z"/>
</svg>