<?xml version="1.0" encoding="utf-8"?><!-- Generator: Adobe Illustrator 21.0.0, SVG Export Plug-In . SVG Version: 6.00 Build 0)  --><svg xmlns="http://www.w3.org/2000/svg" xmlns:xlink="http://www.w3.org/1999/xlink" viewBox="0 0 100 100" width="400px" height="400px"><g id="tea_1_"></g><g id="honey"></g><g id="juice_1_"></g><g id="ice_cream"></g><g id="plate"></g><g id="milk"></g><g id="cup"></g><g id="coffee"></g><g id="drink"></g><g id="Layer_11"></g><g id="beach"></g><g id="_x3C_Layer_x3E_"></g><g id="wayfinding"><g><line x1="44.984" y1="36.774" x2="44.984" y2="34.018" style="fill:none;stroke:#000000;stroke-width:2;stroke-linecap:round;stroke-linejoin:round;stroke-miterlimit:10;"/><path d="M53.984,52.192v24.476c0,2.374-1.942,4.316-4.316,4.316H49.3c-2.374,0-4.316-1.942-4.316-4.316V52.152" style="fill:none;stroke:#000000;stroke-width:2;stroke-linecap:round;stroke-linejoin:round;stroke-miterlimit:10;"/><line x1="53.984" y1="33.984" x2="53.984" y2="36.984" style="fill:none;stroke:#000000;stroke-width:2;stroke-linecap:round;stroke-linejoin:round;stroke-miterlimit:10;"/><path d="M76.784,33.984H41.138c-3.791,0-6.892-3.375-6.892-7.5v0c0-4.125,3.101-7.5,6.892-7.5h35.645l6.892,7.5v0L76.784,33.984z" style="fill:none;stroke:#000000;stroke-width:2;stroke-linecap:round;stroke-linejoin:round;stroke-miterlimit:10;"/><circle cx="49.984" cy="26.984" r="1.5" style="fill:none;stroke:#000000;stroke-linecap:round;stroke-linejoin:round;stroke-miterlimit:10;"/><path d="M23.216,36.984h35.645c3.791,0,6.892,3.375,6.892,7.5v0c0,4.125-3.101,7.5-6.892,7.5H23.216l-6.892-7.5v0L23.216,36.984z" style="fill:none;stroke:#000000;stroke-width:2;stroke-linecap:round;stroke-linejoin:round;stroke-miterlimit:10;"/><circle cx="49.984" cy="43.984" r="1.5" style="fill:none;stroke:#000000;stroke-linecap:round;stroke-linejoin:round;stroke-miterlimit:10;"/><line x1="73.484" y1="22.484" x2="75.484" y2="22.473" style="fill:none;stroke:#000000;stroke-linecap:round;stroke-linejoin:round;stroke-miterlimit:10;"/><line x1="71.484" y1="22.484" x2="71.484" y2="22.48" style="fill:none;stroke:#000000;stroke-linecap:round;stroke-linejoin:round;stroke-miterlimit:10;"/><line x1="57.484" y1="22.484" x2="69.484" y2="22.4" style="fill:none;stroke:#000000;stroke-linecap:round;stroke-linejoin:round;stroke-miterlimit:10;"/><line x1="73.484" y1="22.484" x2="75.484" y2="22.473" style="fill:none;stroke:#000000;stroke-linecap:round;stroke-linejoin:round;stroke-miterlimit:10;"/><line x1="71.484" y1="22.484" x2="71.484" y2="22.48" style="fill:none;stroke:#000000;stroke-linecap:round;stroke-linejoin:round;stroke-miterlimit:10;"/><line x1="57.484" y1="22.484" x2="69.484" y2="22.4" style="fill:none;stroke:#000000;stroke-linecap:round;stroke-linejoin:round;stroke-miterlimit:10;"/><line x1="28.484" y1="39.484" x2="34.484" y2="39.445" style="fill:none;stroke:#000000;stroke-linecap:round;stroke-linejoin:round;stroke-miterlimit:10;"/><line x1="25.484" y1="39.484" x2="26.484" y2="39.476" style="fill:none;stroke:#000000;stroke-linecap:round;stroke-linejoin:round;stroke-miterlimit:10;"/></g></g><g id="ring"></g><g id="towel"></g><g id="poker"></g><g id="blackjack"></g><g id="domino"></g><g id="card"></g><g id="ticket_game"></g><g id="roulette"></g><g id="scale"></g><g id="gavel"></g><g id="bank"></g><g id="storefront"></g></svg>