<?xml version="1.0" encoding="iso-8859-1"?>
<!-- Generator: Adobe Illustrator 25.2.3, SVG Export Plug-In . SVG Version: 6.00 Build 0)  -->
<svg version="1.1" id="Layer_1" xmlns="http://www.w3.org/2000/svg" xmlns:xlink="http://www.w3.org/1999/xlink" x="0px" y="0px"
	 viewBox="0 0 64 64" style="enable-background:new 0 0 64 64;" xml:space="preserve">
<circle cx="32" cy="32" r="7"/>
<polygon points="32,50 36,60 28,60 "/>
<polygon points="50,32 60,28 60,36 "/>
<polygon points="32,14 28,4 36,4 "/>
<polygon points="14,32 4,36 4,28 "/>
<path d="M36.265,10.418c8.716,1.719,15.598,8.601,17.317,17.317l3.64-2.047c-2.322-9.274-9.635-16.587-18.909-18.909L36.265,10.418z
	"/>
<path d="M53.582,36.265c-1.719,8.716-8.601,15.598-17.317,17.317l2.047,3.64c9.274-2.322,16.587-9.635,18.909-18.909L53.582,36.265z
	"/>
<path d="M27.735,53.582c-8.716-1.719-15.598-8.601-17.317-17.317l-3.64,2.047c2.322,9.274,9.635,16.587,18.909,18.909L27.735,53.582
	z"/>
<path d="M10.418,27.735c1.719-8.716,8.601-15.598,17.317-17.317l-2.047-3.64C16.414,9.101,9.101,16.414,6.779,25.688L10.418,27.735z
	"/>
</svg>