<?xml version="1.0" encoding="utf-8"?><!-- Generator: Adobe Illustrator 21.0.2, SVG Export Plug-In . SVG Version: 6.00 Build 0)  --><svg xmlns="http://www.w3.org/2000/svg" xmlns:xlink="http://www.w3.org/1999/xlink" viewBox="0 0 50 50" width="500px" height="500px"><style type="text/css">.st0{fill:none;stroke:#000000;stroke-width:2;stroke-linecap:round;stroke-linejoin:round;stroke-miterlimit:10;}</style><polyline class="st0" points="24.5,19 24,18 22,18 19,19 19,24 "/><line class="st0" x1="29" y1="23" x2="26" y2="22"/><polyline class="st0" points="23,6 23,9.1 25,10 27,8 "/><polyline class="st0" points="23,6 19,6.1 17,5 "/><polyline class="st0" points="24,18 28,14 31,12 29,10 28,9 27,8 "/><polyline class="st0" points="28,46 26,45 29,37 28.3,36 26,35 25,32 25,30 26,29 26,27 23,26 18,24 16,23 14,17 14,13 15,11 15,8 13,7 "/><polyline class="st0" points="27.1,45 36,38 38,37 39,34 40,32 39.5,30 36,29 35,28 33,27 32,25.9 28,26 26,27 "/><path id="Shadow_sea" class="st0" d="M47,25c0-7.1-3.6-14.2-9.6-18.1c-5.6-3.9-13-4.9-19.4-2.7C11.6,6.2,6.3,11.5,4.2,17.9C1.9,24.4,3,32,7,37.6c3.8,5.6,10.4,9.2,17.2,9.4c7.2,0.3,14.4-3.1,18.6-8.9C45.5,34.3,47,29.6,47,25z"/><path class="st0" d="M31,8l1-3.9c-1.4-0.4-2.7-0.8-4.2-0.9L26,5l3,1L31,8z"/><polyline class="st0" points="47,24.1 46,25 44,21 43.1,16 42.8,12.1 40,11 40,10 37.6,7 "/></svg>