<?xml version="1.0" encoding="iso-8859-1"?>
<!-- Generator: Adobe Illustrator 25.2.3, SVG Export Plug-In . SVG Version: 6.00 Build 0)  -->
<svg version="1.1" baseProfile="basic" id="Layer_1"
	 xmlns="http://www.w3.org/2000/svg" xmlns:xlink="http://www.w3.org/1999/xlink" x="0px" y="0px" viewBox="0 0 48 48"
	 xml:space="preserve">
<path d="M46,37c0,4.42-9.85,8-22,8S2,41.42,2,37c0-3.22,5.21-5.98,12.71-7.25L24,39.04l9.29-9.29C40.79,31.02,46,33.78,46,37z"/>
<path d="M24,33.38c0,0-9.306-9.314-9.318-9.327C12.432,21.687,11,18.522,11,15c0-7.179,5.821-13,13-13s13,5.821,13,13
	c0,3.522-1.432,6.687-3.682,9.054C33.306,24.067,24,33.38,24,33.38z M24,9.984c-2.761,0-5,2.239-5,5s2.239,5,5,5s5-2.239,5-5
	S26.761,9.984,24,9.984z"/>
</svg>