<?xml version="1.0" encoding="iso-8859-1"?><!-- Generator: Adobe Illustrator 21.1.0, SVG Export Plug-In . SVG Version: 6.00 Build 0)  --><svg xmlns="http://www.w3.org/2000/svg" xmlns:xlink="http://www.w3.org/1999/xlink" viewBox="0 0 80 80" width="480px" height="480px"><circle cx="40" cy="8" r="1"/><circle cx="40" cy="72" r="1"/><circle cx="72" cy="40" r="1"/><circle cx="8" cy="40" r="1"/><ellipse transform="matrix(0.866 -0.5 0.5 0.866 -2.9282 13.6462)" cx="24" cy="12.287" rx="1" ry="1"/><ellipse transform="matrix(0.866 -0.5 0.5 0.866 -26.3538 37.0718)" cx="56" cy="67.713" rx="1" ry="1"/><ellipse transform="matrix(0.866 -0.5 0.5 0.866 -2.9282 37.0718)" cx="67.713" cy="24" rx="1" ry="1"/><ellipse transform="matrix(0.866 -0.5 0.5 0.866 -26.3538 13.6462)" cx="12.287" cy="56" rx="1" ry="1"/><ellipse transform="matrix(0.5 -0.866 0.866 0.5 -14.641 22.641)" cx="12.287" cy="24" rx="1" ry="1"/><ellipse transform="matrix(0.5 -0.866 0.866 0.5 -14.641 86.641)" cx="67.713" cy="56" rx="1" ry="1"/><ellipse transform="matrix(0.5 -0.866 0.866 0.5 17.359 54.641)" cx="56" cy="12.287" rx="1" ry="1"/><ellipse transform="matrix(0.5 -0.866 0.866 0.5 -46.641 54.641)" cx="24" cy="67.713" rx="1" ry="1"/><ellipse transform="matrix(0.9659 -0.2588 0.2588 0.9659 -1.272 8.5189)" cx="31.718" cy="9.09" rx="1" ry="1"/><ellipse transform="matrix(0.9659 -0.2588 0.2588 0.9659 -16.7076 14.9125)" cx="48.282" cy="70.91" rx="1" ry="1"/><ellipse transform="matrix(0.9659 -0.2588 0.2588 0.9659 -5.793 19.4335)" cx="70.91" cy="31.718" rx="1" ry="1"/><ellipse transform="matrix(0.9659 -0.2588 0.2588 0.9659 -12.1866 3.9979)" cx="9.09" cy="48.282" rx="1" ry="1"/><ellipse transform="matrix(0.7071 -0.7071 0.7071 0.7071 -7.196 17.3726)" cx="17.373" cy="17.373" rx="1" ry="1"/><ellipse transform="matrix(0.7071 -0.7071 0.7071 0.7071 -25.9411 62.6274)" cx="62.627" cy="62.627" rx="1" ry="1"/><ellipse transform="matrix(0.7071 -0.7071 0.7071 0.7071 6.0589 49.3726)" cx="62.627" cy="17.373" rx="1" ry="1"/><ellipse transform="matrix(0.7071 -0.7071 0.7071 0.7071 -39.196 30.6274)" cx="17.373" cy="62.627" rx="1" ry="1"/><ellipse transform="matrix(0.2588 -0.9659 0.9659 0.2588 -23.8994 32.2892)" cx="9.09" cy="31.718" rx="1" ry="1"/><ellipse transform="matrix(0.2588 -0.9659 0.9659 0.2588 5.9198 104.2793)" cx="70.91" cy="48.282" rx="1" ry="1"/><ellipse transform="matrix(0.2588 -0.9659 0.9659 0.2588 27.0052 53.3746)" cx="48.282" cy="9.09" rx="1" ry="1"/><ellipse transform="matrix(0.2588 -0.9659 0.9659 0.2588 -44.9848 83.1939)" cx="31.718" cy="70.91" rx="1" ry="1"/><ellipse transform="matrix(0.9239 -0.3827 0.3827 0.9239 -1.881 11.4154)" cx="27.754" cy="10.436" rx="1" ry="1"/><ellipse transform="matrix(0.9239 -0.3827 0.3827 0.9239 -22.6441 25.2889)" cx="52.246" cy="69.564" rx="1" ry="1"/><ellipse transform="matrix(0.9239 -0.3827 0.3827 0.9239 -5.3258 28.7337)" cx="69.564" cy="27.754" rx="1" ry="1"/><ellipse transform="matrix(0.9239 -0.3827 0.3827 0.9239 -19.1992 7.9706)" cx="10.436" cy="52.246" rx="1" ry="1"/><ellipse transform="matrix(0.6088 -0.7934 0.7934 0.6088 -10.5623 19.6211)" cx="14.613" cy="20.52" rx="1" ry="1"/><ellipse transform="matrix(0.6088 -0.7934 0.7934 0.6088 -21.6069 75.1462)" cx="65.387" cy="59.48" rx="1" ry="1"/><ellipse transform="matrix(0.6088 -0.7934 0.7934 0.6088 11.678 52.906)" cx="59.48" cy="14.613" rx="1" ry="1"/><ellipse transform="matrix(0.6088 -0.7934 0.7934 0.6088 -43.8472 41.8614)" cx="20.52" cy="65.387" rx="1" ry="1"/><ellipse transform="matrix(0.1305 -0.9914 0.9914 0.1305 -28.3229 39.3503)" cx="8.274" cy="35.823" rx="1" ry="1"/><ellipse transform="matrix(0.1305 -0.9914 0.9914 0.1305 18.5652 109.5232)" cx="71.726" cy="44.177" rx="1" ry="1"/><ellipse transform="matrix(0.1305 -0.9914 0.9914 0.1305 30.2076 50.9927)" cx="44.177" cy="8.274" rx="1" ry="1"/><ellipse transform="matrix(0.1305 -0.9914 0.9914 0.1305 -39.9653 97.8808)" cx="35.823" cy="71.726" rx="1" ry="1"/><ellipse transform="matrix(0.7934 -0.6088 0.6088 0.7934 -4.6553 15.5112)" cx="20.52" cy="14.613" rx="1" ry="1"/><ellipse transform="matrix(0.7934 -0.6088 0.6088 0.7934 -27.5139 49.7214)" cx="59.48" cy="65.387" rx="1" ry="1"/><ellipse transform="matrix(0.7934 -0.6088 0.6088 0.7934 1.0205 44.0456)" cx="65.387" cy="20.52" rx="1" ry="1"/><ellipse transform="matrix(0.7934 -0.6088 0.6088 0.7934 -33.1897 21.1871)" cx="14.613" cy="59.48" rx="1" ry="1"/><ellipse transform="matrix(0.3827 -0.9239 0.9239 0.3827 -19.1992 26.7746)" cx="10.436" cy="27.754" rx="1" ry="1"/><ellipse transform="matrix(0.3827 -0.9239 0.9239 0.3827 -5.3258 96.5211)" cx="69.564" cy="52.246" rx="1" ry="1"/><ellipse transform="matrix(0.3827 -0.9239 0.9239 0.3827 22.6108 54.7111)" cx="52.246" cy="10.436" rx="1" ry="1"/><ellipse transform="matrix(0.3827 -0.9239 0.9239 0.3827 -47.1358 68.5846)" cx="27.754" cy="69.564" rx="1" ry="1"/><ellipse transform="matrix(0.9914 -0.1305 0.1305 0.9914 -5.6955 1.4579)" cx="8.274" cy="44.177" rx="1" ry="1"/><ellipse transform="matrix(0.9914 -0.1305 0.1305 0.9914 -4.0622 9.6686)" cx="71.726" cy="35.823" rx="1" ry="1"/><ellipse transform="matrix(0.9914 -0.1305 0.1305 0.9914 -0.7735 4.7466)" cx="35.823" cy="8.274" rx="1" ry="1"/><ellipse transform="matrix(0.9914 -0.1305 0.1305 0.9914 -8.9842 6.3799)" cx="44.177" cy="71.726" rx="1" ry="1"/><circle style="fill:none;stroke:#000000;stroke-width:2;stroke-miterlimit:10;" cx="40" cy="40" r="27"/><polygon style="fill:none;stroke:#000000;stroke-width:2;stroke-linecap:round;stroke-linejoin:round;stroke-miterlimit:10;" points="41,56 38,42 24,39 52,28 "/></svg>