<?xml version="1.0" encoding="iso-8859-1"?><!-- Generator: Adobe Illustrator 21.1.0, SVG Export Plug-In . SVG Version: 6.00 Build 0)  --><svg xmlns="http://www.w3.org/2000/svg" xmlns:xlink="http://www.w3.org/1999/xlink" viewBox="0 0 50 50" width="500px" height="500px"><g></g><line style="fill:none;stroke:#000000;stroke-width:2;stroke-linecap:round;stroke-miterlimit:10;" x1="5" y1="5" x2="45" y2="45"/><path d="M20.276,21.69C19.479,20.672,19,19.393,19,18c0-3.313,2.687-6,6-6s6,2.687,6,6s-2.687,6-6,6c-1.393,0-2.672-0.479-3.69-1.276l13.311,13.311C37.976,30.24,41,23.281,41,17c0-8.822-7.178-16-16-16c-6.862,0-12.713,4.351-14.981,10.433L20.276,21.69z"/><path d="M9.369,13.611C9.132,14.705,9,15.837,9,17c0,14.114,14.625,30.949,15.248,31.659C24.438,48.876,24.712,49,25,49c0.31-0.021,0.567-0.127,0.757-0.347c0.31-0.36,4.091-4.786,7.809-10.844L9.369,13.611z"/></svg>