<?xml version="1.0" encoding="utf-8"?><!-- Generator: Adobe Illustrator 15.0.0, SVG Export Plug-In . SVG Version: 6.00 Build 0)  --><!DOCTYPE svg PUBLIC "-//W3C//DTD SVG 1.1//EN" "http://www.w3.org/Graphics/SVG/1.1/DTD/svg11.dtd"><svg xmlns="http://www.w3.org/2000/svg" xmlns:xlink="http://www.w3.org/1999/xlink" viewBox="0 0 50 50" width="500px" height="500px"><g><polygon points="24,2.382 14,7.382 14,47.618 24,42.618 "/><polygon points="37,7.437 26,2.36 26,42.563 37,47.64 "/><path d="M49.511,2.14c-0.304-0.18-0.68-0.187-0.989-0.018L39,7.315v40.278l10.479-5.716C49.8,41.703,50,41.366,50,41V3C50,2.647,49.813,2.32,49.511,2.14z"/><path d="M12,7.382L1.447,2.105C1.137,1.952,0.77,1.968,0.474,2.149C0.18,2.332,0,2.653,0,3v38c0,0.379,0.214,0.725,0.553,0.895L12,47.618V7.382z"/></g></svg>