<?xml version="1.0" encoding="utf-8"?><!-- Generator: Adobe Illustrator 15.0.0, SVG Export Plug-In . SVG Version: 6.00 Build 0)  --><!DOCTYPE svg PUBLIC "-//W3C//DTD SVG 1.1//EN" "http://www.w3.org/Graphics/SVG/1.1/DTD/svg11.dtd"><svg xmlns="http://www.w3.org/2000/svg" xmlns:xlink="http://www.w3.org/1999/xlink" viewBox="0 0 50 50" width="500px" height="500px"><path d="M27.682,25.522l0.986-3.769c0.078-0.3,0.012-0.619-0.178-0.864l-1.699-2.2c-0.24-0.313-0.645-0.452-1.027-0.36l-4.191,1.018L27.682,25.522z"/><path d="M11.548,42c-1.184-0.839-2.317-1.805-3.39-2.898c-0.125-0.128-0.239-0.257-0.361-0.386L4.556,42H11.548z"/><circle cx="29.5" cy="18.5" r="3.5"/><path d="M23.96,44.032c0,0-0.001,0-0.001,0c-5.342,0-10.312-2.189-14.373-6.332C-0.828,27.094,3.138,15.082,8.083,10.002C8.271,9.809,8.499,9.668,8.8,9.7c0.267,0,0.523,0.107,0.711,0.297l27.5,27.8c0.387,0.391,0.385,1.021-0.004,1.41C34.604,41.609,29.639,44.032,23.96,44.032z"/><path d="M14.982,44H1c-0.552,0-1,0.447-1,1v4c0,0.553,0.448,1,1,1h16c0.552,0,1-0.447,1-1v-3.844C16.97,44.851,15.964,44.464,14.982,44z"/><line fill="none" stroke="#000000" stroke-width="2" stroke-linecap="round" stroke-miterlimit="10" stroke-dasharray="3,4" x1="35" y1="13" x2="47" y2="1"/></svg>