<?xml version="1.0" encoding="iso-8859-1"?><!-- Generator: Adobe Illustrator 22.1.0, SVG Export Plug-In . SVG Version: 6.00 Build 0)  --><svg xmlns="http://www.w3.org/2000/svg" xmlns:xlink="http://www.w3.org/1999/xlink" viewBox="0 0 80 80" width="480px" height="480px"><path style="fill:none;stroke:#000000;stroke-width:2;stroke-linejoin:round;stroke-miterlimit:10;" d="M26,22c-1,0-3,1.551-3,3c1.428,2.838,1.428,5,0,5c-3,0-7.486,1.39-7,2c0.56,0.702-6.93,9.769-6,11c10.638,4.402,3.503,10.351,9.167,12.092C21.675,56.151,21,62,21,62s4.266,5.578,5,5c1.115-0.879,11.53,2.833,12,2c0.426-0.76,1.983-4.866,3.9-5.902c1.302-0.703,13.544,6.583,14.865,6.882C58.341,70.336,62.481,66.406,63,66c0.346-0.27-1.738-2.765-2-4c-0.372-1.758,8.644-14.238,8-15c-4.808-2.212-5.057-10.55-5-11c0.067-0.541,4.848-2.407,4.972-2.833C69.62,30.945,69.982,29.265,70,28c0.024-1.639-0.528-3.037-1.772-3.555c-0.471-0.399-1.271-0.495-2.228-0.424c-2.38,0.176-5.304,1.838-7,1.979l-2-4h-3"/><path d="M32.752,63.971c-0.53-0.141-0.86-0.681-0.72-1.21l0,0c0.14-0.54,0.68-0.86,1.22-0.73l0,0c0.53,0.141,0.86,0.681,0.72,1.22l0,0c-0.12,0.45-0.52,0.75-0.97,0.75l0,0C32.922,64,32.842,63.99,32.752,63.971z"/><path d="M27.859,62.99c-0.551-0.08-0.931-0.58-0.851-1.131l0,0c0.08-0.55,0.58-0.93,1.13-0.85l0,0c0.551,0.08,0.931,0.58,0.851,1.13l0,0c-0.07,0.5-0.5,0.86-0.99,0.86l0,0C27.949,63,27.909,63,27.859,62.99z"/><path d="M55.938,61.002c-0.55-0.04-0.97-0.51-0.939-1.06l0,0l0,0l0,0c0.029-0.551,0.51-0.971,1.06-0.94l0,0c0.55,0.04,0.97,0.51,0.94,1.06l0,0c-0.04,0.53-0.471,0.94-1,0.94l0,0C55.978,61.002,55.959,61.002,55.938,61.002z"/><path d="M36.363,61.771c-0.42-0.351-0.48-0.98-0.13-1.4l0,0c0.34-0.43,0.979-0.49,1.399-0.14l0,0c0.43,0.35,0.49,0.979,0.14,1.399v0.011C37.573,61.88,37.293,62,37.003,62l0,0C36.772,62,36.553,61.931,36.363,61.771z"/><path d="M50.545,61.894L50.545,61.894c-0.49-0.25-0.69-0.86-0.431-1.35l0,0c0.25-0.49,0.851-0.69,1.341-0.431l0,0l0,0l0,0c0.489,0.25,0.689,0.851,0.439,1.34l0,0c-0.18,0.351-0.53,0.551-0.89,0.551l0,0C50.845,62.005,50.694,61.965,50.545,61.894z"/><path d="M45.641,59.929c-0.52-0.2-0.77-0.78-0.569-1.3l0,0c0.2-0.51,0.78-0.76,1.3-0.561l0,0c0,0,0,0-0.01,0l0,0c0.52,0.2,0.77,0.78,0.569,1.29l0,0c-0.149,0.4-0.529,0.641-0.93,0.641l0,0C45.881,59.999,45.761,59.979,45.641,59.929z"/><path d="M25.006,58.106c-0.061-0.55,0.34-1.04,0.89-1.1l0,0c0.55-0.061,1.04,0.34,1.101,0.89l0,0c0.06,0.55-0.341,1.04-0.891,1.1l0,0c-0.04,0-0.069,0-0.1,0l0,0C25.496,58.995,25.066,58.615,25.006,58.106z"/><path d="M40.037,58.253c-0.14-0.54,0.181-1.08,0.72-1.22l0,0l0,0l0,0c0.53-0.141,1.08,0.18,1.211,0.72l0,0c0.14,0.53-0.181,1.08-0.711,1.22h-0.01c-0.08,0.021-0.16,0.03-0.25,0.03l0,0C40.557,59.003,40.147,58.703,40.037,58.253z"/><path d="M57.521,56.883c-0.479-0.26-0.67-0.87-0.399-1.359l0,0c0.26-0.48,0.87-0.67,1.35-0.4l0,0c0.49,0.26,0.67,0.87,0.41,1.35l0,0c-0.18,0.341-0.53,0.53-0.88,0.53l0,0C57.841,57.003,57.671,56.963,57.521,56.883z"/><path d="M24.138,53.5c-0.28-0.479-0.12-1.09,0.359-1.369l0,0c0.471-0.271,1.091-0.11,1.37,0.359l0,0c0.271,0.48,0.11,1.09-0.37,1.37l0,0c-0.149,0.09-0.329,0.14-0.5,0.14l0,0C24.657,54,24.318,53.82,24.138,53.5z"/><path d="M59.476,52.85c-0.47-0.29-0.62-0.899-0.33-1.37l0,0c0,0,0,0,0-0.01l0,0c0.29-0.46,0.91-0.61,1.38-0.32l0,0c0.471,0.29,0.61,0.9,0.33,1.37l0,0C60.667,52.83,60.337,53,59.997,53l0,0C59.816,53,59.636,52.95,59.476,52.85z"/><path d="M21.004,50.091c-0.05-0.54,0.35-1.03,0.9-1.08l0,0c0.55-0.051,1.04,0.35,1.09,0.909l0,0c0.05,0.54-0.36,1.03-0.91,1.08l0,0c-0.03,0-0.06,0-0.09,0l0,0C21.485,51,21.044,50.61,21.004,50.091z"/><path d="M62.223,48.62c-0.35-0.431-0.279-1.061,0.15-1.4l0,0c0.43-0.35,1.06-0.28,1.41,0.15l0,0c0.34,0.43,0.27,1.06-0.16,1.409l0,0c-0.18,0.141-0.4,0.221-0.62,0.221l0,0C62.703,49,62.413,48.87,62.223,48.62z"/><path d="M19.116,46.456c-0.26-0.489-0.069-1.09,0.42-1.34l0,0c0.5-0.26,1.101-0.069,1.351,0.42l0,0c0.26,0.5,0.06,1.091-0.42,1.351l0,0c-0.15,0.08-0.311,0.109-0.46,0.109l0,0C19.637,46.996,19.297,46.807,19.116,46.456z"/><path d="M59.058,44.352c-0.19-0.521,0.069-1.101,0.59-1.29l0,0c0.52-0.19,1.09,0.069,1.29,0.59l0,0c0.189,0.52-0.07,1.09-0.59,1.279l0,0c-0.12,0.051-0.23,0.07-0.351,0.07l0,0C59.588,45.002,59.208,44.752,59.058,44.352z"/><path d="M17.362,42.77L17.362,42.77c-0.43-0.35-0.489-0.979-0.14-1.41l0,0c0.35-0.42,0.98-0.479,1.41-0.13l0,0l0,0l0,0c0.43,0.351,0.49,0.98,0.14,1.4l0,0c-0.2,0.24-0.489,0.37-0.779,0.37l0,0C17.772,43,17.543,42.92,17.362,42.77z"/><path d="M58.011,39.131c-0.08-0.54,0.3-1.05,0.85-1.12l0,0c0.55-0.08,1.05,0.31,1.13,0.85l0,0c0.07,0.551-0.31,1.051-0.859,1.13l0,0c-0.04,0.011-0.09,0.011-0.141,0.011l0,0C58.501,40.001,58.07,39.631,58.011,39.131z"/><path d="M18.459,37.831c-0.471-0.3-0.601-0.92-0.3-1.38l0,0c0.3-0.46,0.92-0.59,1.38-0.29l0,0c0.47,0.301,0.6,0.92,0.3,1.38l0,0c-0.19,0.29-0.51,0.46-0.84,0.46l0,0C18.809,38.001,18.619,37.942,18.459,37.831z"/><path d="M22.001,35.04c-0.021-0.55,0.409-1.021,0.96-1.04l0,0c0.55-0.021,1.02,0.42,1.04,0.97l0,0c0.02,0.55-0.41,1.01-0.961,1.03l0,0c-0.02,0-0.029,0-0.039,0l0,0C22.461,36,22.02,35.58,22.001,35.04z"/><path d="M58.642,34.942c-0.51-0.199-0.77-0.779-0.58-1.289l0,0l0,0l0,0c0.19-0.521,0.771-0.78,1.29-0.591l0,0c0.511,0.19,0.78,0.771,0.58,1.29l0,0c-0.149,0.4-0.529,0.65-0.939,0.65l0,0C58.882,35.002,58.762,34.982,58.642,34.942z"/><path d="M62.644,31.939c-0.51-0.199-0.77-0.779-0.58-1.289l0,0l0,0l0,0c0.19-0.521,0.771-0.78,1.29-0.591l0,0c0.511,0.19,0.78,0.771,0.58,1.29l0,0c-0.149,0.4-0.529,0.65-0.939,0.65l0,0C62.884,32,62.764,31.979,62.644,31.939z"/><path d="M26.306,33.716c-0.399-0.39-0.41-1.02-0.02-1.42v0.01c0.38-0.399,1.02-0.41,1.41-0.02l0,0c0.399,0.38,0.409,1.02,0.02,1.41l0,0l0,0l0,0c-0.2,0.199-0.46,0.3-0.72,0.3l0,0C26.747,33.997,26.497,33.907,26.306,33.716z"/><path d="M55.981,31c-0.55-0.01-0.99-0.46-0.98-1.021l0,0c0-0.55,0.45-0.989,1.011-0.979l0,0C56.561,29,57,29.46,57,30.01l0,0C56.99,30.56,56.54,31,56,31l0,0C55.99,31,55.99,31,55.981,31z"/><circle cx="32.5" cy="45.5" r="2.5"/><path style="fill:none;stroke:#000000;stroke-width:2;stroke-miterlimit:10;" d="M51,21c0,6.075-11,21-11,21S29,27.075,29,21s4.925-11,11-11S51,14.925,51,21z"/><circle style="fill:none;stroke:#000000;stroke-width:2;stroke-miterlimit:10;" cx="40" cy="21" r="3"/></svg>