<?xml version="1.0" encoding="iso-8859-1"?>
<!-- Generator: Adobe Illustrator 23.0.3, SVG Export Plug-In . SVG Version: 6.00 Build 0)  -->
<svg version="1.1" id="Layer_1" xmlns="http://www.w3.org/2000/svg" xmlns:xlink="http://www.w3.org/1999/xlink" x="0px" y="0px"
	 viewBox="0 0 50 50" style="enable-background:new 0 0 50 50;" xml:space="preserve">
<path d="M25,1C16.178,1,9,8.178,9,17c0,13.813,14.62,30.931,15.242,31.653c0.189,0.219,0.464,0.346,0.754,0.347
	c0.001,0,0.003,0,0.004,0c0.288,0,0.562-0.124,0.752-0.341C26.374,47.949,41,31.114,41,17C41,8.178,33.822,1,25,1z M32,20h-5v5h-4
	v-5h-5v-4h5v-5h4v5h5V20z"/>
</svg>