<?xml version="1.0" encoding="iso-8859-1"?>
<!-- Generator: Adobe Illustrator 26.0.3, SVG Export Plug-In . SVG Version: 6.00 Build 0)  -->
<svg version="1.1" baseProfile="basic" id="Layer_1"
	 xmlns="http://www.w3.org/2000/svg" xmlns:xlink="http://www.w3.org/1999/xlink" x="0px" y="0px" viewBox="0 0 64 64"
	 xml:space="preserve">
<path d="M60.07,32.59l-8.1,13.53C49.16,50.82,43.56,54,38,54H26l-2.7,5.01c-0.26,0.45-0.7,0.79-1.22,0.92
	C21.91,59.98,21.73,60,21.56,60c-0.35,0-0.71-0.09-1.02-0.27L4.99,50.78c-0.83-0.48-1.19-1.46-0.88-2.34C6.85,40.75,15,27,32,32h5.5
	c3.08,0,5.5,2.42,5.5,5.5c0,3.08-2.42,5.5-5.5,5.5h-10c-0.28,0-0.5,0.22-0.5,0.5c0,0.28,0.22,0.5,0.5,0.5h10
	c3.64,0,6.5-2.85,6.5-6.5c0-1.12-0.72-3.04-0.71-3.02l5.1-8.5c0.89-1.51,2.35-2.61,4.09-3.06c1.74-0.46,3.56-0.23,5.12,0.66
	c1.33,0.75,2.31,1.88,2.85,3.18C61.23,28.59,61.16,30.75,60.07,32.59z"/>
<path d="M31.374,25.166C29.167,22.084,28,18.396,28,14.5c0-3.595,1.008-7.049,2.913-9.991l3.357,2.176
	C32.785,8.977,32,11.679,32,14.5c0,3.056,0.908,5.938,2.626,8.337L31.374,25.166z"/>
<path d="M34.626,25.166l-3.252-2.329C33.092,20.438,34,17.556,34,14.5c0-2.821-0.785-5.523-2.271-7.815l3.357-2.176
	C36.992,7.451,38,10.905,38,14.5C38,18.396,36.833,22.084,34.626,25.166z"/>
<path d="M33,26c-6.065,0-11-4.935-11-11S26.935,4,33,4s11,4.935,11,11S39.065,26,33,26z M33,8c-3.859,0-7,3.14-7,7s3.141,7,7,7
	s7-3.14,7-7S36.859,8,33,8z"/>
</svg>