<?xml version="1.0" encoding="iso-8859-1"?>
<!-- Generator: Adobe Illustrator 25.4.1, SVG Export Plug-In . SVG Version: 6.00 Build 0)  -->
<svg version="1.1" baseProfile="basic" id="Layer_1"
	 xmlns="http://www.w3.org/2000/svg" xmlns:xlink="http://www.w3.org/1999/xlink" x="0px" y="0px" viewBox="0 0 100 100"
	 xml:space="preserve">
<path style="fill:none;stroke:#000000;stroke-width:4;stroke-linecap:round;stroke-linejoin:round;stroke-miterlimit:10;" d="
	M74.259,17.964C67.98,12.714,59.754,9.438,50.999,9c-9.843-0.492-18.23,3.306-24.33,9.59 M46.194,78.464
	c1.578,0.274,3.182,0.455,4.805,0.536c1.351,0.068,2.674,0.053,3.968-0.038"/>
<path style="fill:none;stroke:#000000;stroke-width:2.2835;stroke-linecap:round;stroke-linejoin:round;stroke-miterlimit:10;" d="
	M31.69,44.721c11.856-0.642,27.945-1.155,39.676-1.225"/>
<path style="fill:none;stroke:#000000;stroke-width:2.2835;stroke-linecap:round;stroke-linejoin:round;stroke-miterlimit:10;" d="
	M38.06,10.451c-0.351,0.64-8.216,13.315-9.218,30.011"/>
<path style="fill:none;stroke:#000000;stroke-width:2.2835;stroke-linecap:round;stroke-linejoin:round;stroke-miterlimit:10;" d="
	M65.746,13.867c0,0,6.644,10.393,8.054,25.474"/>
<path style="fill:none;stroke:#000000;stroke-width:2.2835;stroke-linecap:round;stroke-linejoin:round;stroke-miterlimit:10;" d="
	M48.743,8.172c3.935,8.107,6.052,41.123,1.848,62.726"/>
<path style="fill:none;stroke:#000000;stroke-width:2.2835;stroke-linecap:round;stroke-linejoin:round;stroke-miterlimit:10;" d="
	M23.213,27.603c17.418-2.709,35.519-3.296,54.437-1.34"/>
<path style="fill:none;stroke:#000000;stroke-width:2.2835;stroke-linecap:round;stroke-linejoin:round;stroke-miterlimit:10;" d="
	M45.161,62.856c3.779,0.06,7.573,0.009,11.311-0.151"/>
<path style="fill-rule:evenodd;clip-rule:evenodd;" d="M68.683,30.848c-0.299,0.464-0.918,0.598-1.382,0.3
	c-0.464-0.299-0.598-0.918-0.3-1.382c0.299-0.464,0.918-0.599,1.382-0.3S68.982,30.384,68.683,30.848"/>
<line style="fill:none;stroke:#000000;stroke-width:2;stroke-linecap:round;stroke-linejoin:round;stroke-miterlimit:10;" x1="78.65" y1="33.135" x2="85.36" y2="28.982"/>
<line style="fill:none;stroke:#000000;stroke-width:2;stroke-linecap:round;stroke-linejoin:round;stroke-miterlimit:10;" x1="80.75" y1="36.603" x2="85.452" y2="34.344"/>
<line style="fill:none;stroke:#000000;stroke-width:2;stroke-linecap:round;stroke-linejoin:round;stroke-miterlimit:10;" x1="34.357" y1="17.526" x2="36.524" y2="19.677"/>
<line style="fill:none;stroke:#000000;stroke-width:2;stroke-linecap:round;stroke-linejoin:round;stroke-miterlimit:10;" x1="54.967" y1="17.921" x2="53.07" y2="10.217"/>
<line style="fill:none;stroke:#000000;stroke-width:2;stroke-linecap:round;stroke-linejoin:round;stroke-miterlimit:10;" x1="58.281" y1="15.76" x2="57.802" y2="8.987"/>
<path style="fill:none;stroke:#000000;stroke-width:2;stroke-linecap:round;stroke-linejoin:round;stroke-miterlimit:10;" d="
	M56.022,77.763c0,0,8.08,4.34,16.846,6.154"/>
<path style="fill:none;stroke:#000000;stroke-width:4;stroke-linecap:round;stroke-linejoin:round;stroke-miterlimit:10;" d="
	M70.815,66.101c0,0,11-21.343,8.338-24.435c-2.663-3.093-6.881-1.202-6.881-1.202c-1.677,4.45-7.404,10.408-10.356,12.402
	c-2.958,2-5.196,6.171-5.549,10.293c-0.557,6.521-2.094,21.437-2.094,21.437l17.426,6.153l3.592-14.16
	c0,0,15.592-14.863,17.196-28.118c1.603-13.254-15.488-38.02-15.488-38.02s-3.274,6.882-1.619,10.667
	c1.655,3.787,6.24,13.941,4.186,21.988"/>
<line style="fill:none;stroke:#000000;stroke-width:2;stroke-linecap:round;stroke-linejoin:round;stroke-miterlimit:10;" x1="56.158" y1="72.839" x2="60.175" y2="72.583"/>
<line style="fill:none;stroke:#000000;stroke-width:2;stroke-linecap:round;stroke-linejoin:round;stroke-miterlimit:10;" x1="56.472" y1="68.61" x2="61.866" y2="68.447"/>
<line style="fill:none;stroke:#000000;stroke-width:2;stroke-linecap:round;stroke-linejoin:round;stroke-miterlimit:10;" x1="87.217" y1="60.553" x2="83.952" y2="58.495"/>
<line style="fill:none;stroke:#000000;stroke-width:2;stroke-linecap:round;stroke-linejoin:round;stroke-miterlimit:10;" x1="89.588" y1="57.347" x2="85.615" y2="55.355"/>
<line style="fill:none;stroke:#000000;stroke-width:2;stroke-linecap:round;stroke-linejoin:round;stroke-miterlimit:10;" x1="91.007" y1="53.31" x2="86.714" y2="52.022"/>
<line style="fill:none;stroke:#000000;stroke-width:2;stroke-linecap:round;stroke-linejoin:round;stroke-miterlimit:10;" x1="64.497" y1="51.288" x2="67.401" y2="55.819"/>
<line style="fill:none;stroke:#000000;stroke-width:2;stroke-linecap:round;stroke-linejoin:round;stroke-miterlimit:10;" x1="66.929" y1="48.573" x2="69.533" y2="52.239"/>
<line style="fill:none;stroke:#000000;stroke-width:2;stroke-linecap:round;stroke-linejoin:round;stroke-miterlimit:10;" x1="75.251" y1="76.86" x2="71.366" y2="73.711"/>
<line style="fill:none;stroke:#000000;stroke-width:2;stroke-linecap:round;stroke-linejoin:round;stroke-miterlimit:10;" x1="73.963" y1="80.152" x2="68.916" y2="77.641"/>
<path style="fill-rule:evenodd;clip-rule:evenodd;" d="M45.184,38.882c0.299,0.464,0.918,0.598,1.382,0.3
	c0.464-0.299,0.598-0.918,0.3-1.382c-0.299-0.464-0.918-0.599-1.382-0.3S44.885,38.418,45.184,38.882"/>
<line style="fill:none;stroke:#000000;stroke-width:2;stroke-linecap:round;stroke-linejoin:round;stroke-miterlimit:10;" x1="22.533" y1="33.135" x2="15.823" y2="28.982"/>
<line style="fill:none;stroke:#000000;stroke-width:2;stroke-linecap:round;stroke-linejoin:round;stroke-miterlimit:10;" x1="20.432" y1="36.603" x2="15.731" y2="34.344"/>
<path style="fill:none;stroke:#000000;stroke-width:2;stroke-linecap:round;stroke-linejoin:round;stroke-miterlimit:10;" d="
	M45.161,77.763c0,0-8.08,4.34-16.846,6.154"/>
<path style="fill:none;stroke:#000000;stroke-width:4;stroke-linecap:round;stroke-linejoin:round;stroke-miterlimit:10;" d="
	M30.368,66.101c0,0-11-21.343-8.338-24.435c2.663-3.093,6.881-1.202,6.881-1.202c1.677,4.45,7.404,10.408,10.356,12.402
	c2.958,2,5.196,6.171,5.549,10.293c0.557,6.521,2.094,21.437,2.094,21.437l-17.426,6.153l-3.592-14.16
	c0,0-15.592-14.863-17.196-28.118c-1.603-13.254,15.488-38.02,15.488-38.02s3.274,6.882,1.619,10.667
	c-1.655,3.787-6.241,13.941-4.186,21.988"/>
<line style="fill:none;stroke:#000000;stroke-width:2;stroke-linecap:round;stroke-linejoin:round;stroke-miterlimit:10;" x1="45.025" y1="72.839" x2="41.008" y2="72.583"/>
<line style="fill:none;stroke:#000000;stroke-width:2;stroke-linecap:round;stroke-linejoin:round;stroke-miterlimit:10;" x1="44.711" y1="68.61" x2="39.317" y2="68.447"/>
<line style="fill:none;stroke:#000000;stroke-width:2;stroke-linecap:round;stroke-linejoin:round;stroke-miterlimit:10;" x1="13.966" y1="60.553" x2="17.23" y2="58.495"/>
<line style="fill:none;stroke:#000000;stroke-width:2;stroke-linecap:round;stroke-linejoin:round;stroke-miterlimit:10;" x1="11.594" y1="57.347" x2="15.568" y2="55.355"/>
<line style="fill:none;stroke:#000000;stroke-width:2;stroke-linecap:round;stroke-linejoin:round;stroke-miterlimit:10;" x1="10.176" y1="53.31" x2="14.469" y2="52.022"/>
<line style="fill:none;stroke:#000000;stroke-width:2;stroke-linecap:round;stroke-linejoin:round;stroke-miterlimit:10;" x1="36.686" y1="51.288" x2="33.782" y2="55.819"/>
<line style="fill:none;stroke:#000000;stroke-width:2;stroke-linecap:round;stroke-linejoin:round;stroke-miterlimit:10;" x1="34.254" y1="48.573" x2="31.65" y2="52.239"/>
<line style="fill:none;stroke:#000000;stroke-width:2;stroke-linecap:round;stroke-linejoin:round;stroke-miterlimit:10;" x1="25.932" y1="76.86" x2="29.817" y2="73.711"/>
<line style="fill:none;stroke:#000000;stroke-width:2;stroke-linecap:round;stroke-linejoin:round;stroke-miterlimit:10;" x1="27.22" y1="80.152" x2="32.267" y2="77.641"/>
</svg>