<?xml version="1.0" encoding="iso-8859-1"?>
<!-- Generator: Adobe Illustrator 25.0.0, SVG Export Plug-In . SVG Version: 6.00 Build 0)  -->
<svg version="1.1" id="Layer_1" xmlns="http://www.w3.org/2000/svg" xmlns:xlink="http://www.w3.org/1999/xlink" x="0px" y="0px"
	 viewBox="0 0 48 48" style="enable-background:new 0 0 48 48;" xml:space="preserve">
<circle style="fill:none;stroke:#000000;stroke-width:3;stroke-linecap:round;stroke-linejoin:round;stroke-miterlimit:10;" cx="24" cy="15" r="9.5"/>
<ellipse style="fill:none;stroke:#000000;stroke-width:3;stroke-linecap:round;stroke-linejoin:round;stroke-miterlimit:10;" cx="24" cy="15" rx="3.5" ry="9.5"/>
<line style="fill:none;stroke:#000000;stroke-width:3;stroke-linecap:round;stroke-linejoin:round;stroke-miterlimit:10;" x1="14.5" y1="15" x2="33" y2="15"/>
<path d="M44.151,16c-1.499,0-2.305,0.853-3.204,3.12c-0.616,1.553-1.2,3.154-1.736,4.53c0.086,0.068,0.179,0.122,0.261,0.196
	c1.977,1.799,2.138,4.887,0.359,6.883l-3.524,3.934c-0.246,0.277-0.589,0.418-0.933,0.418c-0.297,0-0.594-0.104-0.832-0.317
	c-0.515-0.459-0.561-1.25-0.101-1.765l3.438-3.838c0.796-0.893,0.919-2.262,0.167-3.192c-0.875-1.082-2.436-1.19-3.446-0.313
	l-2.994,2.729c-1.539,1.539-2.613,2.049-3.652,2.543c-0.073,0.035-0.154,0.077-0.241,0.127C26.008,32.018,25,33.87,25,35.827V43.5
	c0,0.828,0.672,1.5,1.5,1.5h8c0.828,0,1.5-0.671,1.5-1.5c0-0.756,0.343-3.303,1.827-4.229c1.292-1.106,2.568-2.442,4.613-3.948
	c1.485-1.094,2.609-3.532,3.083-9.702C45.644,24.048,46,19.088,46,17.806C46,16.902,45.137,16,44.151,16z"/>
<path d="M3.849,16c1.499,0,2.305,0.853,3.204,3.12c0.616,1.553,1.2,3.154,1.736,4.53c-0.086,0.068-0.179,0.122-0.261,0.196
	c-1.977,1.799-2.138,4.887-0.359,6.883l3.524,3.934c0.246,0.277,0.589,0.418,0.933,0.418c0.297,0,0.594-0.104,0.832-0.317
	c0.515-0.459,0.561-1.25,0.101-1.765l-3.438-3.838c-0.796-0.893-0.919-2.262-0.167-3.192c0.875-1.082,2.436-1.19,3.446-0.313
	l2.994,2.729c1.539,1.539,2.613,2.049,3.652,2.543c0.073,0.035,0.154,0.077,0.241,0.127C21.992,32.018,23,33.87,23,35.827V43.5
	c0,0.828-0.672,1.5-1.5,1.5h-8c-0.828,0-1.5-0.671-1.5-1.5c0-0.756-0.343-3.303-1.827-4.229c-1.292-1.106-2.568-2.442-4.613-3.948
	c-1.485-1.094-2.609-3.532-3.083-9.702C2.356,24.048,2,19.088,2,17.806C2,16.902,2.863,16,3.849,16z"/>
</svg>