<?xml version="1.0" encoding="iso-8859-1"?><!-- Generator: Adobe Illustrator 21.1.0, SVG Export Plug-In . SVG Version: 6.00 Build 0)  --><svg xmlns="http://www.w3.org/2000/svg" xmlns:xlink="http://www.w3.org/1999/xlink" viewBox="0 0 50 50" width="500px" height="500px"><g><g><polygon style="fill:none;stroke:#000000;stroke-width:2;stroke-linecap:round;stroke-miterlimit:10;" points="30,21 30,3 20,3 20,21 10,21 25,40 40,21 "/></g></g><path d="M35.713,32.885l-1.41,1.786C41.703,35.806,46,38.166,46,40c0,2.505-7.989,6-21,6S4,42.505,4,40c0-1.834,4.297-4.194,11.697-5.329l-1.41-1.786C7.374,34.089,2,36.501,2,40c0,5.196,11.85,8,23,8s23-2.804,23-8C48,36.501,42.626,34.089,35.713,32.885z"/></svg>