<?xml version="1.0" encoding="iso-8859-1"?>
<!-- Generator: Adobe Illustrator 24.1.2, SVG Export Plug-In . SVG Version: 6.00 Build 0)  -->
<svg version="1.1" baseProfile="basic" id="Layer_1"
	 xmlns="http://www.w3.org/2000/svg" xmlns:xlink="http://www.w3.org/1999/xlink" x="0px" y="0px" viewBox="0 0 50 50"
	 xml:space="preserve">
<path style="fill:none;stroke:#000000;stroke-width:0.5;stroke-linecap:round;stroke-linejoin:round;stroke-miterlimit:10;" d="
	M32.25,24.567L34,22.113v-6.928l-4-6.928l-6-3.464l-8,4.619v6.928l2.947,7.536L9,29.619v9.238l10,5.773h12l10-5.773v-9.238
	L32.25,24.567z M23,12.298l2,1.155l2,3.464v2.309l-2-1.155l-2-3.464V12.298z"/>
<polyline style="fill:none;stroke:#000000;stroke-width:0.5;stroke-linecap:round;stroke-linejoin:round;stroke-miterlimit:10;" points="
	23,12.298 21,11.144 19,12.298 19,16.917 21,20.381 25,22.691 27,21.536 27,19.227 "/>
<line style="fill:none;stroke:#000000;stroke-width:0.5;stroke-linecap:round;stroke-linejoin:round;stroke-miterlimit:10;" x1="23" y1="14.608" x2="19" y2="16.917"/>
<line style="fill:none;stroke:#000000;stroke-width:0.5;stroke-linecap:round;stroke-linejoin:round;stroke-miterlimit:10;" x1="21" y1="20.381" x2="25" y2="18.072"/>
<polyline style="fill:none;stroke:#000000;stroke-width:0.5;stroke-linecap:round;stroke-linejoin:round;stroke-miterlimit:10;" points="
	20,7.102 26,10.566 30,17.494 30,24.423 23,34.238 "/>
<polyline style="fill:none;stroke:#000000;stroke-width:0.5;stroke-linecap:round;stroke-linejoin:round;stroke-miterlimit:10;" points="
	32.25,24.567 27,31.928 23,34.238 18.947,23.876 "/>
<line style="fill:none;stroke:#000000;stroke-width:0.5;stroke-linecap:round;stroke-linejoin:round;stroke-miterlimit:10;" x1="30" y1="24.423" x2="34" y2="22.113"/>
<line style="fill:none;stroke:#000000;stroke-width:0.5;stroke-linecap:round;stroke-linejoin:round;stroke-miterlimit:10;" x1="30" y1="17.494" x2="34" y2="15.185"/>
<line style="fill:none;stroke:#000000;stroke-width:0.5;stroke-linecap:round;stroke-linejoin:round;stroke-miterlimit:10;" x1="26" y1="10.566" x2="30" y2="8.257"/>
<polyline style="fill:none;stroke:#000000;stroke-width:0.5;stroke-linecap:round;stroke-linejoin:round;stroke-miterlimit:10;" points="
	9,36.547 19,42.321 31,42.321 41,36.547 "/>
<line style="fill:none;stroke:#000000;stroke-width:0.5;stroke-linecap:round;stroke-linejoin:round;stroke-miterlimit:10;" x1="31" y1="42.321" x2="31" y2="44.63"/>
<line style="fill:none;stroke:#000000;stroke-width:0.5;stroke-linecap:round;stroke-linejoin:round;stroke-miterlimit:10;" x1="19" y1="42.321" x2="19" y2="44.63"/>
<path style="fill:none;stroke:#000000;stroke-width:0.5;stroke-linecap:round;stroke-linejoin:round;stroke-miterlimit:10;" d="
	M32.25,24.567L34,22.113v-6.928l-4-6.928l-6-3.464l-8,4.619v6.928l2.947,7.536L9,29.619v9.238l10,5.773h12l10-5.773v-9.238
	L32.25,24.567z M23,12.298l2,1.155l2,3.464v2.309l-2-1.155l-2-3.464V12.298z"/>
<path d="M24,4.793l6,3.464l4,6.928v6.928l-1.75,2.454L41,29.619v9.238L31,44.63H19L9,38.856v-9.238l9.947-5.743L16,16.34V9.412
	L24,4.793 M27,19.227v-2.309l-2-3.464l-2-1.155v2.309l2,3.464L27,19.227 M24,3.638l-0.5,0.289l-8,4.619L15,8.834v0.577v6.928v0.189
	l0.069,0.176l2.634,6.735L8.5,28.753L8,29.041v0.577v9.238v0.577l0.5,0.289l10,5.773l0.232,0.134H19h12h0.268l0.232-0.134l10-5.773
	l0.5-0.289v-0.577v-9.238v-0.577l-0.5-0.289l-7.797-4.501l1.111-1.557L35,22.433v-0.32v-6.928v-0.268l-0.134-0.232l-4-6.928
	l-0.134-0.232L30.5,7.391l-6-3.464L24,3.638L24,3.638z M24,14.34V14.03l0.268,0.155l1.732,3v0.309l-0.268-0.155L24,14.34L24,14.34z"
	/>
</svg>