<?xml version="1.0" encoding="iso-8859-1"?><!-- Generator: Adobe Illustrator 22.1.0, SVG Export Plug-In . SVG Version: 6.00 Build 0)  --><svg xmlns="http://www.w3.org/2000/svg" xmlns:xlink="http://www.w3.org/1999/xlink" viewBox="0 0 24 24" width="384px" height="384px"><g id="sharp"><path d="M16.52,15.435c-0.452,0.661-0.896,1.267-1.304,1.797c2.732,0.414,4.351,1.281,4.734,1.767c-0.515,0.654-3.255,2-7.949,2L12,21.001L11.999,21c-4.694,0-7.433-1.345-7.949-2c0.383-0.487,2.001-1.354,4.734-1.767c-0.408-0.531-0.852-1.137-1.304-1.797C4.231,16.096,2,17.442,2,19c0,2.209,4.477,4,10,4s10-1.791,10-4C22,17.442,19.769,16.096,16.52,15.435z"/><g><path d="M12,1C8.686,1,6,3.686,6,7c0,4.286,6,11,6,11s6-6.714,6-11C18,3.686,15.314,1,12,1z M12,9.143c-1.183,0-2.143-0.959-2.143-2.143c0-1.184,0.959-2.143,2.143-2.143S14.143,5.816,14.143,7C14.143,8.183,13.183,9.143,12,9.143z"/></g></g></svg>