<?xml version="1.0" encoding="utf-8"?><!-- Generator: Adobe Illustrator 20.1.0, SVG Export Plug-In . SVG Version: 6.00 Build 0)  --><svg xmlns="http://www.w3.org/2000/svg" xmlns:xlink="http://www.w3.org/1999/xlink" viewBox="0 0 50 50" width="500px" height="500px"><path d="M24,47.9V38h-6.6C18.8,43.3,21.2,47.1,24,47.9z"/><path d="M26,47.9c2.8-0.7,5.2-4.5,6.6-9.9H26V47.9z"/><path d="M24,28h-8c0.1,2.8,0.4,5.5,0.9,8H24V28z"/><path d="M24,6.1c-2.8,0.7-5.2,4.5-6.6,9.9H24V6.1z"/><path d="M24,18h-7.1c-0.5,2.5-0.8,5.2-0.9,8h8V18z"/><path d="M36,28c-0.1,2.8-0.3,5.5-0.8,8h8.8c1.2-2.4,1.9-5.1,2-8H36z"/><path d="M26,36h7.1c0.5-2.5,0.8-5.2,0.9-8h-8V36z"/><path d="M19.8,6.7C14.5,8.1,10,11.4,7.1,16h8.2C16.3,12,17.9,8.8,19.8,6.7z"/><path d="M14.8,18H6.1c-1.2,2.4-1.9,5.1-2,8h10C14.1,23.2,14.4,20.5,14.8,18z"/><path d="M14,28h-10c0.1,2.9,0.8,5.6,2,8h8.8C14.4,33.5,14.1,30.8,14,28z"/><path d="M7.1,38c2.8,4.6,7.3,7.9,12.6,9.3c-1.9-2.1-3.5-5.3-4.5-9.3H7.1z"/><path d="M30.2,47.3c5.3-1.4,9.8-4.8,12.6-9.3h-8.2C33.7,42,32.1,45.2,30.2,47.3z"/><path d="M26,18v8h6.5c-1.2-1.8-3.3-4.8-5-8H26z"/><path d="M45.9,26c-0.1-2.9-0.8-5.6-2-8h-1.5c-1.7,3.2-3.7,6.2-5,8H45.9z"/><path d="M35,2c-4.4,0-8,3.8-8,8.4C27,15,35,26,35,26s8-11,8-15.6C43,5.8,39.4,2,35,2z M35,13c-1.7,0-3-1.3-3-3s1.3-3,3-3s3,1.3,3,3S36.7,13,35,13z"/></svg>