<?xml version="1.0" encoding="utf-8"?><!-- Generator: Adobe Illustrator 15.0.0, SVG Export Plug-In . SVG Version: 6.00 Build 0)  --><!DOCTYPE svg PUBLIC "-//W3C//DTD SVG 1.1//EN" "http://www.w3.org/Graphics/SVG/1.1/DTD/svg11.dtd"><svg xmlns="http://www.w3.org/2000/svg" xmlns:xlink="http://www.w3.org/1999/xlink" viewBox="0 0 50 50" width="500px" height="500px"><path d="M49.511,2.14c-0.304-0.18-0.68-0.187-0.989-0.018L37.963,7.881l-12.544-5.79c-0.274-0.126-0.594-0.122-0.866,0.014L13,7.882L1.447,2.105C1.137,1.952,0.77,1.968,0.474,2.149C0.18,2.332,0,2.653,0,3v38c0,0.379,0.214,0.725,0.553,0.895l12,6c0.281,0.141,0.613,0.141,0.895,0l11.57-5.785l12.564,5.799C37.714,47.97,37.857,48,38,48c0.165,0,0.33-0.041,0.479-0.122l11-6C49.8,41.703,50,41.366,50,41V3C50,2.647,49.813,2.32,49.511,2.14z M44.272,19.326c0.532-0.138,1.08,0.183,1.219,0.718c0.087,0.335,0.164,0.684,0.229,1.045c0.1,0.543-0.261,1.064-0.804,1.164c-0.061,0.011-0.121,0.016-0.181,0.016c-0.474,0-0.895-0.338-0.982-0.82c-0.058-0.313-0.123-0.613-0.198-0.904C43.417,20.01,43.738,19.464,44.272,19.326z M41.567,15.171c0.41-0.37,1.042-0.338,1.413,0.072c0.242,0.269,0.475,0.554,0.695,0.856c0.325,0.446,0.227,1.072-0.22,1.397c-0.178,0.129-0.384,0.192-0.588,0.192c-0.309,0-0.613-0.143-0.81-0.411c-0.178-0.245-0.365-0.475-0.563-0.693C41.126,16.174,41.158,15.542,41.567,15.171z M9.941,17.024c0.335-0.438,0.964-0.521,1.402-0.186c0.25,0.191,0.498,0.363,0.743,0.518c0.468,0.293,0.609,0.911,0.316,1.378c-0.19,0.303-0.515,0.469-0.848,0.469c-0.182,0-0.365-0.049-0.53-0.153c-0.296-0.186-0.596-0.394-0.896-0.624C9.689,18.09,9.605,17.462,9.941,17.024z M7.151,15.411c-0.208-0.264-0.417-0.54-0.627-0.829c-0.325-0.447-0.227-1.072,0.22-1.397c0.447-0.327,1.072-0.227,1.397,0.22c0.194,0.267,0.387,0.522,0.58,0.765c0.342,0.434,0.269,1.063-0.165,1.405c-0.184,0.145-0.402,0.215-0.62,0.215C7.641,15.791,7.348,15.661,7.151,15.411z M15.707,38.293c0.391,0.391,0.391,1.023,0,1.414C15.512,39.902,15.256,40,15,40s-0.512-0.098-0.707-0.293L12,37.414l-2.293,2.293C9.512,39.902,9.256,40,9,40s-0.512-0.098-0.707-0.293c-0.391-0.391-0.391-1.023,0-1.414L10.586,36l-2.293-2.293c-0.391-0.391-0.391-1.023,0-1.414s1.023-0.391,1.414,0L12,34.586l2.293-2.293c0.391-0.391,1.023-0.391,1.414,0s0.391,1.023,0,1.414L13.414,36L15.707,38.293z M15.455,20.395l-0.158-0.001c-0.552-0.012-0.99-0.47-0.978-1.022c0.012-0.552,0.431-0.996,1.022-0.978l0.114,0.001c0.248,0,0.494-0.016,0.738-0.046c0.545-0.059,1.047,0.322,1.115,0.87c0.067,0.548-0.322,1.047-0.87,1.115C16.113,20.374,15.785,20.395,15.455,20.395z M19.23,35.824c-0.268,0.126-0.545,0.268-0.833,0.427c-0.153,0.085-0.319,0.125-0.482,0.125c-0.353,0-0.694-0.187-0.876-0.517c-0.267-0.483-0.091-1.092,0.392-1.358c0.327-0.181,0.643-0.342,0.946-0.485c0.499-0.237,1.095-0.021,1.331,0.478C19.944,34.993,19.73,35.589,19.23,35.824z M20.547,18.859c-0.156,0.089-0.327,0.131-0.495,0.131c-0.348,0-0.685-0.181-0.87-0.504c-0.273-0.48-0.106-1.09,0.373-1.364c0.272-0.155,0.543-0.32,0.811-0.492c0.464-0.297,1.083-0.163,1.382,0.302c0.298,0.465,0.163,1.083-0.302,1.382C21.149,18.504,20.85,18.687,20.547,18.859z M24.612,34.417c-0.113,0.455-0.521,0.76-0.97,0.76c-0.08,0-0.161-0.01-0.241-0.029c-0.271-0.067-0.535-0.108-0.807-0.125c-0.551-0.034-0.97-0.51-0.936-1.061c0.035-0.552,0.502-0.966,1.061-0.936c0.388,0.024,0.78,0.085,1.163,0.18C24.418,33.339,24.745,33.881,24.612,34.417z M25.537,15.293L24.75,15.9c-0.183,0.141-0.398,0.209-0.612,0.209c-0.298,0-0.594-0.133-0.791-0.387c-0.338-0.437-0.259-1.065,0.178-1.403l0.798-0.615c0.439-0.335,1.067-0.251,1.402,0.187C26.06,14.33,25.976,14.958,25.537,15.293z M28.954,36.918c-0.182,0.33-0.523,0.517-0.876,0.517c-0.163,0-0.329-0.04-0.482-0.125c-0.309-0.17-0.605-0.344-0.895-0.516c-0.475-0.283-0.63-0.896-0.348-1.371c0.283-0.475,0.896-0.631,1.371-0.348c0.271,0.162,0.549,0.324,0.838,0.484C29.046,35.826,29.222,36.435,28.954,36.918z M29.45,13.034c-0.238,0.049-0.496,0.131-0.766,0.245c-0.126,0.053-0.258,0.078-0.387,0.078c-0.391,0-0.762-0.231-0.922-0.614c-0.214-0.509,0.025-1.095,0.535-1.309c0.389-0.163,0.771-0.284,1.135-0.359c0.548-0.114,1.07,0.237,1.182,0.777C30.339,12.394,29.991,12.922,29.45,13.034z M32.8,38.955c-0.032,0-0.064-0.001-0.097-0.005c-0.375-0.036-0.733-0.087-1.076-0.15c-0.543-0.102-0.901-0.623-0.801-1.166s0.626-0.906,1.166-0.801c0.288,0.054,0.588,0.097,0.902,0.127c0.55,0.053,0.953,0.541,0.899,1.091C33.744,38.568,33.309,38.955,32.8,38.955z M34.234,13.229c-0.045,0-0.09-0.003-0.136-0.009c-0.319-0.043-0.639-0.08-0.954-0.109c-0.55-0.052-0.953-0.541-0.9-1.09c0.052-0.549,0.535-0.95,1.09-0.901c0.343,0.033,0.688,0.072,1.034,0.119c0.548,0.075,0.931,0.579,0.856,1.126C35.156,12.866,34.727,13.229,34.234,13.229z M38.07,38.272c-0.345,0.133-0.693,0.246-1.045,0.342c-0.088,0.024-0.177,0.035-0.264,0.035c-0.439,0-0.843-0.292-0.964-0.737c-0.146-0.533,0.169-1.083,0.702-1.228c0.287-0.078,0.573-0.172,0.855-0.279c0.513-0.195,1.094,0.06,1.291,0.576C38.845,37.497,38.586,38.075,38.07,38.272z M39.935,14.002c-0.172,0.36-0.53,0.57-0.904,0.57c-0.144,0-0.29-0.031-0.429-0.097c-0.277-0.132-0.561-0.252-0.848-0.362c-0.516-0.198-0.773-0.776-0.575-1.292c0.197-0.517,0.775-0.773,1.292-0.575c0.336,0.129,0.666,0.27,0.99,0.424C39.96,12.907,40.172,13.503,39.935,14.002z M42.52,35.163c-0.243,0.277-0.496,0.54-0.757,0.787c-0.193,0.183-0.44,0.273-0.688,0.273c-0.265,0-0.529-0.104-0.727-0.313c-0.379-0.401-0.362-1.034,0.039-1.414c0.216-0.204,0.426-0.422,0.628-0.652c0.365-0.417,0.998-0.456,1.411-0.093C42.842,34.116,42.884,34.748,42.52,35.163z M45.12,30.468c-0.112,0.348-0.234,0.685-0.365,1.008c-0.157,0.389-0.531,0.625-0.927,0.625c-0.125,0-0.252-0.023-0.375-0.073c-0.512-0.207-0.759-0.79-0.552-1.302c0.113-0.28,0.218-0.57,0.314-0.871c0.17-0.525,0.736-0.811,1.259-0.646C45,29.379,45.289,29.942,45.12,30.468z M45.921,26.329c-0.044,0.521-0.48,0.916-0.995,0.916c-0.028,0-0.057-0.001-0.085-0.004c-0.55-0.046-0.959-0.529-0.912-1.08c0.025-0.31,0.044-0.627,0.057-0.951c0.021-0.552,0.497-0.977,1.036-0.962c0.552,0.021,0.982,0.485,0.962,1.037C45.971,25.641,45.95,25.989,45.921,26.329z"/></svg>