<?xml version="1.0" encoding="iso-8859-1"?>
<!-- Generator: Adobe Illustrator 28.2.0, SVG Export Plug-In . SVG Version: 6.00 Build 0)  -->
<svg version="1.1" baseProfile="basic" xmlns="http://www.w3.org/2000/svg" xmlns:xlink="http://www.w3.org/1999/xlink" x="0px"
	 y="0px" viewBox="0 0 24 24" xml:space="preserve">
<g id="Layer_1">
	<path d="M22.97,19.479l-1-4.5C21.843,14.407,21.336,14,20.75,14h-2c-0.69,0-1.25,0.56-1.25,1.25s0.56,1.25,1.25,1.25h0.997l0.445,2
		H3.808l0.445-2H5.25c0.69,0,1.25-0.56,1.25-1.25S5.94,14,5.25,14h-2c-0.586,0-1.093,0.407-1.22,0.979l-1,4.5
		c-0.082,0.37,0.008,0.757,0.245,1.053S1.871,21,2.25,21h19.5c0.379,0,0.738-0.172,0.975-0.468S23.052,19.849,22.97,19.479z"/>
	<path d="M12,1C8.14,1,5,4.14,5,8c0,5.115,6.006,9.571,6.262,9.759C11.481,17.919,11.741,18,12,18s0.519-0.081,0.738-0.241
		C12.994,17.571,19,13.115,19,8C19,4.14,15.86,1,12,1z M12,10c-1.105,0-2-0.895-2-2c0-1.105,0.895-2,2-2s2,0.895,2,2
		C14,9.105,13.105,10,12,10z"/>
</g>
<g id="Layer_2">
</g>
<g id="Layer_3">
</g>
</svg>