<?xml version="1.0" encoding="iso-8859-1"?>
<!-- Generator: Adobe Illustrator 24.0.2, SVG Export Plug-In . SVG Version: 6.00 Build 0)  -->
<svg version="1.1" xmlns="http://www.w3.org/2000/svg" xmlns:xlink="http://www.w3.org/1999/xlink" x="0px" y="0px"
	 viewBox="0 0 80 80" style="enable-background:new 0 0 80 80;" xml:space="preserve">
<g id="&#x421;&#x43B;&#x43E;&#x439;_1">
</g>
<g id="&#x421;&#x43B;&#x43E;&#x439;_2">
	<g>
		<path d="M50.58,69.45c-0.11-0.06-0.23-0.12-0.34-0.19c-0.86,0.3-1.73,0.56-2.61,0.79c0.67,0.41,1.34,0.8,2.01,1.16
			c0.14,0.07,0.28,0.15,0.42,0.22c0.89-0.28,1.77-0.61,2.62-0.97C51.99,70.17,51.29,69.83,50.58,69.45z M40,7
			c-3.86,0-7.56,0.66-11,1.89v2.13C32.42,9.71,36.13,9,40,9c17.09,0,31,13.91,31,31c0,12.57-7.52,23.42-18.31,28.28
			c0.27,0.12,0.53,0.24,0.79,0.35c0.6,0.26,1.16,0.47,1.7,0.65c5.57-2.89,10.23-7.33,13.37-12.75c0.25-0.45,0.5-0.9,0.74-1.35
			c0.19-0.37,0.38-0.75,0.56-1.13c0.05-0.08,0.09-0.17,0.12-0.26c0.45-0.96,0.85-1.95,1.2-2.96C72.36,47.44,73,43.79,73,40
			C73,21.8,58.2,7,40,7z M46.57,71.75c-0.6-0.38-1.18-0.75-1.72-1.13C43.27,70.87,41.65,71,40,71C22.91,71,9,57.09,9,40
			c0-5.1,1.24-9.92,3.44-14.17c0.3-0.59,0.62-1.17,0.97-1.74c0.1-0.18,0.21-0.35,0.31-0.52l-1.15,0.35l-1.65,0.49
			C8.42,29.06,7,34.36,7,40c0,18.2,14.8,33,33,33c2.51,0,4.96-0.28,7.3-0.81C47.06,72.05,46.82,71.9,46.57,71.75z M22,12.36V14
			c-2.23,1.39-4.47,2.77-6.7,4.16c-1.04,1.16-2,2.4-2.86,3.71c1.05-0.32,2.09-0.63,3.14-0.94c3.01-3.86,6.93-6.98,11.42-9.07V9.67
			C25.25,10.42,23.58,11.32,22,12.36z"/>
		<path d="M52.68,70.46c-0.85,0.36-1.73,0.69-2.62,0.97c0.88,0.45,1.76,0.85,2.62,1.19c0.92-0.35,1.82-0.75,2.69-1.18
			C54.49,71.19,53.6,70.86,52.68,70.46z M47.96,67.88c-0.86,0.26-1.73,0.46-2.62,0.62c0.76,0.56,1.52,1.07,2.29,1.55
			c0.88-0.23,1.75-0.49,2.61-0.79C49.48,68.84,48.72,68.38,47.96,67.88z"/>
	</g>
	<circle cx="43" cy="43" r="1"/>
	<circle cx="46" cy="40" r="1"/>
	<circle cx="49" cy="37" r="1"/>
	<circle cx="46" cy="46" r="1"/>
	<circle cx="49" cy="43" r="1"/>
	<circle cx="52" cy="40" r="1"/>
	<circle cx="52" cy="46" r="1"/>
	<circle cx="28" cy="52" r="1"/>
	<circle cx="40" cy="16" r="1"/>
	<circle cx="43" cy="13" r="1"/>
	<circle cx="37" cy="13" r="1"/>
	<circle cx="43" cy="19" r="1"/>
	<circle cx="49" cy="25" r="1"/>
	<circle cx="46" cy="34" r="1"/>
	<circle cx="49" cy="31" r="1"/>
	<circle cx="52" cy="22" r="1"/>
	<circle cx="52" cy="28" r="1"/>
	<circle cx="52" cy="34" r="1"/>
	<circle cx="34" cy="10" r="1"/>
	<circle cx="37" cy="67" r="1"/>
	<circle cx="52" cy="64" r="1"/>
	<circle cx="58" cy="40" r="1"/>
	<circle cx="61" cy="37" r="1"/>
	<circle cx="55" cy="37" r="1"/>
	<circle cx="58" cy="46" r="1"/>
	<circle cx="61" cy="43" r="1"/>
	<circle cx="55" cy="43" r="1"/>
	<circle cx="58" cy="52" r="1"/>
	<circle cx="61" cy="49" r="1"/>
	<circle cx="55" cy="49" r="1"/>
	<circle cx="58" cy="58" r="1"/>
	<circle cx="61" cy="55" r="1"/>
	<circle cx="64" cy="40" r="1"/>
	<circle cx="67" cy="37" r="1"/>
	<circle cx="64" cy="46" r="1"/>
	<circle cx="67" cy="43" r="1"/>
	<circle cx="64" cy="52" r="1"/>
	<circle cx="67" cy="49" r="1"/>
	<circle cx="64" cy="58" r="1"/>
	<circle cx="67" cy="55" r="1"/>
	<circle cx="70" cy="40" r="1"/>
	<circle cx="70" cy="46" r="1"/>
	<circle cx="55" cy="55" r="1"/>
	<circle cx="58" cy="16" r="1"/>
	<circle cx="58" cy="22" r="1"/>
	<circle cx="61" cy="19" r="1"/>
	<circle cx="55" cy="19" r="1"/>
	<circle cx="58" cy="28" r="1"/>
	<circle cx="61" cy="25" r="1"/>
	<circle cx="55" cy="25" r="1"/>
	<circle cx="58" cy="34" r="1"/>
	<circle cx="61" cy="31" r="1"/>
	<circle cx="64" cy="22" r="1"/>
	<circle cx="64" cy="28" r="1"/>
	<circle cx="67" cy="25" r="1"/>
	<circle cx="64" cy="34" r="1"/>
	<circle cx="67" cy="31" r="1"/>
	<circle cx="70" cy="34" r="1"/>
	<circle cx="55" cy="31" r="1"/>
	<circle cx="58" cy="64" r="1"/>
	<circle cx="61" cy="61" r="1"/>
	<circle cx="55" cy="61" r="1"/>
	<circle cx="40" cy="10" r="1"/>
	<circle cx="10" cy="40" r="1"/>
	<circle cx="13" cy="37" r="1"/>
	<circle cx="13" cy="43" r="1"/>
	<circle cx="16" cy="46" r="1"/>
	<circle cx="16" cy="52" r="1"/>
	<circle cx="10" cy="34" r="1"/>
	<circle cx="13" cy="31" r="1"/>
	<circle cx="16" cy="28" r="1"/>
	<circle cx="16" cy="34" r="1"/>
	<circle cx="22" cy="46" r="1"/>
	<circle cx="19" cy="43" r="1"/>
	<circle cx="22" cy="52" r="1"/>
	<circle cx="25" cy="49" r="1"/>
	<circle cx="19" cy="49" r="1"/>
	<circle cx="22" cy="58" r="1"/>
	<circle cx="25" cy="55" r="1"/>
	<circle cx="28" cy="58" r="1"/>
	<circle cx="19" cy="55" r="1"/>
	<circle cx="22" cy="16" r="1"/>
	<circle cx="25" cy="13" r="1"/>
	<circle cx="25" cy="19" r="1"/>
	<circle cx="22" cy="28" r="1"/>
	<circle cx="25" cy="25" r="1"/>
	<circle cx="19" cy="25" r="1"/>
	<circle cx="31" cy="13" r="1"/>
	<circle cx="31" cy="19" r="1"/>
	<circle cx="31" cy="25" r="1"/>
	<circle cx="25" cy="61" r="1"/>
	<circle cx="28" cy="64" r="1"/>
	<circle cx="31" cy="61" r="1"/>
	<circle cx="31" cy="67" r="1"/>
	<circle cx="34" cy="64" r="1"/>
	<circle cx="34" cy="70" r="1"/>
	<g>
		<path d="M27,19v7c1.33,1.33,2.67,2.67,4,4v2c-2.17-0.93-4.33-1.87-6.5-2.8c-2.17,0.93-4.33,1.87-6.5,2.8v-2
			c1.33-1.33,2.67-2.67,4-4v-7c-2.14,0.64-4.28,1.28-6.42,1.93c-1.05,0.31-2.09,0.62-3.14,0.94C12.29,21.91,12.15,21.96,12,22v-1.8
			c1.1-0.68,2.2-1.37,3.3-2.04c2.23-1.39,4.47-2.77,6.7-4.16V7c-0.21-1.62,1.06-3,2.5-3s2.71,1.38,2.5,3v7
			c3.33,2.07,6.67,4.13,10,6.2V22C33.67,21,30.33,20,27,19z"/>
	</g>
	<path d="M69.97,53.79c-0.13-0.83-0.3-1.69-0.51-2.56l1.71-0.4C70.82,51.84,70.42,52.83,69.97,53.79z"/>
	<g>
		<path d="M66.52,72.24c-1.92,1.26-4.18,1.89-6.67,1.89c-2.23,0-4.64-0.5-7.17-1.51c-0.86-0.34-1.74-0.74-2.62-1.19
			c-0.14-0.07-0.28-0.15-0.42-0.22c-0.67-0.36-1.34-0.75-2.01-1.16c-0.77-0.48-1.53-0.99-2.29-1.55
			c-4.82-3.48-9.39-8.35-13.17-14.12c-5.81-8.86-8.92-18.5-8.54-26.43l2,0.1c-0.36,7.41,2.71,16.84,8.22,25.23
			c4.03,6.14,8.96,11.23,14.11,14.6c0.76,0.5,1.52,0.96,2.28,1.38c0.11,0.07,0.23,0.13,0.34,0.19c0.71,0.38,1.41,0.72,2.1,1.01
			c0.92,0.4,1.81,0.73,2.69,0.98c1.57,0.46,3.07,0.69,4.46,0.69c2.11,0,4-0.52,5.59-1.56c3.54-2.33,5.27-7.06,4.95-13.18
			c0.61-1.07,1.17-2.17,1.68-3.31C73.28,62.45,71.3,69.1,66.52,72.24z"/>
	</g>
</g>
</svg>