<?xml version="1.0" encoding="iso-8859-1"?>
<!-- Generator: Adobe Illustrator 26.0.3, SVG Export Plug-In . SVG Version: 6.00 Build 0)  -->
<svg version="1.1" baseProfile="basic" id="Layer_1"
	 xmlns="http://www.w3.org/2000/svg" xmlns:xlink="http://www.w3.org/1999/xlink" x="0px" y="0px" viewBox="0 0 72 72"
	 xml:space="preserve">
<path d="M23.64,48.36l7.3-3.67l1.59,4.8l-13.41,6.74c-0.96,0.49-2.13,0.3-2.89-0.46c-0.76-0.77-0.95-1.93-0.46-2.89l6.74-13.41
	l4.81,1.59L23.64,48.36z"/>
<path d="M49.49,39.47l6.74,13.41c0.49,0.96,0.3,2.12-0.46,2.89c-0.48,0.48-1.12,0.73-1.77,0.73c-0.38,0-0.77-0.09-1.12-0.27
	l-13.41-6.74l1.59-4.8l7.3,3.67l-3.68-7.3L49.49,39.47z"/>
<path d="M48.36,23.64l-7.3,3.67l-1.59-4.8l13.41-6.74c0.96-0.49,2.12-0.3,2.89,0.46c0.76,0.77,0.95,1.93,0.46,2.89l-6.74,13.41
	l-4.81-1.59L48.36,23.64z"/>
<path d="M16.23,16.23c0.77-0.76,1.93-0.95,2.89-0.46l13.41,6.74l-1.59,4.8l-7.3-3.67l3.68,7.3l-4.81,1.59l-6.74-13.41
	C15.28,18.16,15.47,17,16.23,16.23z"/>
<path d="M40.24,36l3.84,3.84c1.17,1.17,1.17,3.07,0,4.24c-0.58,0.59-1.35,0.88-2.12,0.88s-1.54-0.29-2.12-0.88L36,40.24l-3.84,3.84
	c-0.58,0.59-1.35,0.88-2.12,0.88s-1.53-0.29-2.12-0.88c-1.17-1.17-1.17-3.07,0-4.24L31.76,36l-3.84-3.84
	c-1.17-1.17-1.17-3.07,0-4.24c1.17-1.17,3.07-1.17,4.24,0L36,31.76l3.84-3.84c1.17-1.17,3.07-1.17,4.24,0
	c1.17,1.17,1.17,3.07,0,4.24L40.24,36z"/>
<path d="M36,63c-1.294,0-2.442-0.83-2.849-2.059l-5.485-16.607L11.06,38.849C9.83,38.443,9,37.294,9,36s0.83-2.443,2.06-2.849
	l16.606-5.485l5.485-16.607C33.558,9.83,34.706,9,36,9s2.442,0.83,2.849,2.059l5.485,16.607l16.606,5.485
	C62.17,33.557,63,34.706,63,36s-0.83,2.443-2.06,2.849l-16.606,5.485l-5.485,16.607C38.442,62.17,37.294,63,36,63z M21.566,36
	l9.415,3.11c0.902,0.298,1.61,1.005,1.908,1.908L36,50.435l3.11-9.417c0.298-0.902,1.006-1.61,1.908-1.908L50.434,36l-9.415-3.11
	c-0.902-0.298-1.61-1.005-1.908-1.908L36,21.565l-3.11,9.417c-0.298,0.902-1.006,1.61-1.908,1.908L21.566,36z"/>
</svg>