<?xml version="1.0" encoding="iso-8859-1"?>
<!-- Generator: Adobe Illustrator 26.0.3, SVG Export Plug-In . SVG Version: 6.00 Build 0)  -->
<svg version="1.1" baseProfile="basic" id="Layer_1"
	 xmlns="http://www.w3.org/2000/svg" xmlns:xlink="http://www.w3.org/1999/xlink" x="0px" y="0px" viewBox="0 0 64 64"
	 xml:space="preserve">
<path d="M23.64,46.64l-7.24,3.65c-0.77,0.39-1.7,0.23-2.31-0.38c-0.61-0.61-0.76-1.54-0.38-2.31l3.65-7.24l4.72,1.56L23.64,46.64z"
	/>
<path d="M49.91,49.91c-0.38,0.39-0.89,0.59-1.41,0.59c-0.31,0-0.61-0.07-0.9-0.21l-7.24-3.65l1.56-4.72l4.72-1.56l3.65,7.24
	C50.67,48.37,50.52,49.3,49.91,49.91z"/>
<path d="M50.29,16.4l-3.65,7.24l-4.72-1.56l-1.56-4.72l7.24-3.65c0.77-0.39,1.71-0.23,2.31,0.38C50.52,14.7,50.67,15.63,50.29,16.4z
	"/>
<path d="M23.64,17.36l-1.56,4.72l-4.72,1.56l-3.65-7.24c-0.38-0.77-0.23-1.7,0.38-2.31c0.61-0.61,1.54-0.77,2.31-0.38L23.64,17.36z"
	/>
<path d="M30.13,31.75l-7.26,7.26L7.37,33.9C6.55,33.63,6,32.86,6,32s0.55-1.63,1.37-1.9l15.87-5.24L30.13,31.75z"/>
<path d="M32.25,33.87l6.89,6.89L33.9,56.63C33.63,57.45,32.86,58,32,58s-1.63-0.55-1.9-1.37l-5.11-15.5L32.25,33.87z"/>
<path d="M58,32c0,0.86-0.55,1.63-1.37,1.9l-15.12,4.99l-7.14-7.14l6.76-6.76l15.5,5.11C57.45,30.37,58,31.14,58,32z"/>
<path d="M32.25,29.63l-7.14-7.14L30.1,7.37C30.37,6.55,31.14,6,32,6s1.63,0.55,1.9,1.37l5.11,15.5L32.25,29.63z"/>
</svg>