<?xml version="1.0" encoding="iso-8859-1"?><!-- Generator: Adobe Illustrator 21.1.0, SVG Export Plug-In . SVG Version: 6.00 Build 0)  --><svg xmlns="http://www.w3.org/2000/svg" xmlns:xlink="http://www.w3.org/1999/xlink" viewBox="0 0 64 64" width="512px" height="512px"><g><path d="M53.852,13.178c-0.008-0.015-0.008-0.031-0.018-0.046c-0.028-0.044-0.07-0.07-0.103-0.108C48.415,6.316,40.205,2,31,2C21.818,2,13.626,6.294,8.308,12.974C8.258,13.024,8.2,13.066,8.16,13.129c-0.013,0.021-0.014,0.045-0.025,0.066C4.296,18.113,2,24.292,2,31c0,6.712,2.298,12.893,6.14,17.813c0.01,0.018,0.01,0.039,0.022,0.057c0.055,0.087,0.123,0.159,0.198,0.222C13.678,55.734,21.848,60,31,60c9.21,0,17.425-4.321,22.741-11.037c0.029-0.034,0.067-0.057,0.092-0.096c0.008-0.013,0.008-0.028,0.016-0.041C57.698,43.904,60,37.718,60,31C60,24.284,57.699,18.099,53.852,13.178z M51.463,13.416c-1.947,1.101-4.211,2.018-6.694,2.74c-1.591-4.859-3.937-8.753-6.727-11.218C43.334,6.369,47.984,9.373,51.463,13.416z M32,4.089c4.442,0.641,8.455,5.5,10.81,12.586c-3.334,0.793-7,1.243-10.81,1.311V4.089z M30,4.089v13.897c-3.811-0.068-7.477-0.517-10.81-1.311C21.545,9.589,25.558,4.73,30,4.089z M23.958,4.937c-2.791,2.465-5.137,6.359-6.727,11.218c-2.483-0.721-4.747-1.639-6.694-2.74C14.016,9.373,18.666,6.369,23.958,4.937z M10.537,48.584c1.947-1.101,4.211-2.018,6.694-2.74c1.591,4.859,3.937,8.753,6.727,11.218C18.666,55.631,14.016,52.627,10.537,48.584z M30,57.911c-4.442-0.641-8.455-5.5-10.81-12.586c3.334-0.793,7-1.243,10.81-1.311V57.911z M32,57.911V44.014c3.811,0.068,7.477,0.517,10.81,1.311C40.455,52.411,36.442,57.27,32,57.911z M38.042,57.063c2.791-2.465,5.137-6.359,6.727-11.218c2.483,0.721,4.747,1.639,6.694,2.74C47.984,52.627,43.334,55.631,38.042,57.063z M52.725,47.009c-2.138-1.243-4.635-2.277-7.385-3.077c0.663-2.426,1.148-5.052,1.417-7.836c0.053-0.55-0.35-1.039-0.899-1.092c-0.545-0.046-1.038,0.35-1.092,0.899c-0.257,2.665-0.736,5.18-1.377,7.507c-3.52-0.848-7.384-1.327-11.39-1.397V36c0-0.552-0.448-1-1-1s-1,0.448-1,1v6.014c-4.005,0.069-7.869,0.548-11.39,1.397c-0.641-2.327-1.119-4.842-1.377-7.507c-0.053-0.549-0.533-0.95-1.092-0.899c-0.55,0.053-0.952,0.542-0.899,1.092c0.269,2.784,0.755,5.41,1.417,7.836c-2.75,0.8-5.247,1.834-7.385,3.077C5.963,42.526,4,36.989,4,31c0-5.989,1.963-11.526,5.275-16.009c2.138,1.243,4.635,2.277,7.385,3.077c-0.663,2.426-1.148,5.053-1.417,7.836c-0.053,0.55,0.35,1.039,0.899,1.092C16.175,26.999,16.207,27,16.239,27c0.509,0,0.944-0.387,0.995-0.904c0.257-2.666,0.736-5.18,1.377-7.507c3.52,0.848,7.384,1.327,11.39,1.396V26c0,0.552,0.448,1,1,1s1-0.448,1-1v-6.014c4.005-0.069,7.869-0.548,11.39-1.396c0.641,2.327,1.119,4.842,1.376,7.507c0.053,0.549,0.534,0.951,1.092,0.899c0.55-0.053,0.952-0.542,0.899-1.092c-0.269-2.783-0.755-5.41-1.417-7.836c2.75-0.8,5.247-1.834,7.385-3.077C56.037,19.474,58,25.011,58,31C58,36.989,56.037,42.526,52.725,47.009z"/><path d="M6,29c-0.552,0-1,0.448-1,1v2c0,0.552,0.448,1,1,1s1-0.448,1-1v-2C7,29.448,6.552,29,6,29z"/><path d="M11,29c-0.552,0-1,0.448-1,1v2c0,0.552,0.448,1,1,1s1-0.448,1-1v-2C12,29.448,11.552,29,11,29z"/><path d="M16,29c-0.552,0-1,0.448-1,1v2c0,0.552,0.448,1,1,1s1-0.448,1-1v-2C17,29.448,16.552,29,16,29z"/><path d="M21,29c-0.552,0-1,0.448-1,1v2c0,0.552,0.448,1,1,1s1-0.448,1-1v-2C22,29.448,21.552,29,21,29z"/><path d="M26,29c-0.552,0-1,0.448-1,1v2c0,0.552,0.448,1,1,1s1-0.448,1-1v-2C27,29.448,26.552,29,26,29z"/><path d="M31,29c-0.552,0-1,0.448-1,1v2c0,0.552,0.448,1,1,1s1-0.448,1-1v-2C32,29.448,31.552,29,31,29z"/><path d="M36,29c-0.552,0-1,0.448-1,1v2c0,0.552,0.448,1,1,1s1-0.448,1-1v-2C37,29.448,36.552,29,36,29z"/><path d="M41,29c-0.552,0-1,0.448-1,1v2c0,0.552,0.448,1,1,1s1-0.448,1-1v-2C42,29.448,41.552,29,41,29z"/><path d="M46,29c-0.552,0-1,0.448-1,1v2c0,0.552,0.448,1,1,1s1-0.448,1-1v-2C47,29.448,46.552,29,46,29z"/><path d="M51,29c-0.552,0-1,0.448-1,1v2c0,0.552,0.448,1,1,1s1-0.448,1-1v-2C52,29.448,51.552,29,51,29z"/><path d="M56,29c-0.552,0-1,0.448-1,1v2c0,0.552,0.448,1,1,1s1-0.448,1-1v-2C57,29.448,56.552,29,56,29z"/></g></svg>