<?xml version="1.0" encoding="iso-8859-1"?>
<!-- Generator: Adobe Illustrator 23.0.3, SVG Export Plug-In . SVG Version: 6.00 Build 0)  -->
<svg version="1.1" id="Layer_1" xmlns="http://www.w3.org/2000/svg" xmlns:xlink="http://www.w3.org/1999/xlink" x="0px" y="0px"
	 viewBox="0 0 50 50" style="enable-background:new 0 0 50 50;" xml:space="preserve">
<path d="M35,3H15c-1.654,0-3,1.346-3,3v38c0,1.654,1.346,3,3,3h20c1.654,0,3-1.346,3-3V6C38,4.346,36.654,3,35,3z M28,44h-6
	c-0.553,0-1-0.448-1-1s0.447-1,1-1h6c0.553,0,1,0.448,1,1S28.553,44,28,44z M36,39H14V10h22V39z"/>
<g>
	<path d="M25,13c-4.4,0-8,3.8-8,8.4c0,5.6,8,14.1,8,14.1s8-8.5,8-14.1C33,16.8,29.4,13,25,13z M25,24c-1.657,0-3-1.343-3-3
		s1.343-3,3-3s3,1.343,3,3S26.657,24,25,24z"/>
</g>
</svg>