<?xml version="1.0" encoding="iso-8859-1"?><!-- Generator: Adobe Illustrator 21.1.0, SVG Export Plug-In . SVG Version: 6.00 Build 0)  --><svg xmlns="http://www.w3.org/2000/svg" xmlns:xlink="http://www.w3.org/1999/xlink" viewBox="0 0 80 80" width="480px" height="480px"><circle cx="40" cy="12" r="1"/><circle cx="58" cy="30" r="1"/><circle cx="22" cy="30" r="1"/><ellipse transform="matrix(0.866 -0.5 0.5 0.866 -3.0526 17.4309)" cx="30.999" cy="14.412" rx="1" ry="1"/><ellipse transform="matrix(0.866 -0.5 0.5 0.866 -3.0525 30.6075)" cx="55.587" cy="21" rx="1" ry="1"/><ellipse transform="matrix(0.5 -0.866 0.866 0.5 12.0175 49.6413)" cx="49" cy="14.413" rx="1" ry="1"/><ellipse transform="matrix(0.9659 -0.2588 0.2588 0.9659 -2.0604 9.576)" cx="35.34" cy="12.613" rx="1" ry="1"/><ellipse transform="matrix(0.9659 -0.2588 0.2588 0.9659 -4.6034 15.7151)" cx="57.385" cy="25.341" rx="1" ry="1"/><ellipse transform="matrix(0.9659 -0.2588 0.2588 0.9659 -8.1995 7.033)" cx="22.612" cy="34.659" rx="1" ry="1"/><ellipse transform="matrix(0.7071 -0.7071 0.7071 0.7071 -4.2255 24.3429)" cx="27.272" cy="17.272" rx="1" ry="1"/><ellipse transform="matrix(0.7071 -0.7071 0.7071 0.7071 3.2302 42.3428)" cx="52.727" cy="17.272" rx="1" ry="1"/><ellipse transform="matrix(0.2588 -0.9659 0.9659 0.2588 -7.7185 40.6245)" cx="22.612" cy="25.342" rx="1" ry="1"/><ellipse transform="matrix(0.2588 -0.9659 0.9659 0.2588 9.0548 81.119)" cx="57.385" cy="34.659" rx="1" ry="1"/><ellipse transform="matrix(0.2588 -0.9659 0.9659 0.2588 20.9155 52.4852)" cx="44.657" cy="12.614" rx="1" ry="1"/><g><path d="M56.236,44.229C50.881,54.847,42.597,66.67,40,70.294C36.057,64.792,19,40.389,19,30c0-3.291,0.782-6.395,2.137-9.17l-1.693-1.129C17.884,22.802,17,26.299,17,30c0,12.337,21.289,41.363,22.195,42.594L40,73.686l0.805-1.092c0.619-0.841,10.745-14.649,17.103-27.25L56.236,44.229z"/><path d="M22.103,19.07C25.798,13.043,32.427,9,40,9c11.58,0,21,9.421,21,21c0,3.153-1.577,7.601-3.877,12.417l1.677,1.118C61.28,38.356,63,33.504,63,30C63,17.317,52.682,7,40,7c-8.266,0-15.524,4.385-19.579,10.948L22.103,19.07z"/><path d="M40,37c1.379,0,2.662-0.406,3.747-1.097l-1.899-1.266C41.275,34.866,40.654,35,40,35c-2.731,0-4.95-2.203-4.992-4.923l-1.899-1.266C33.042,29.198,33,29.594,33,30C33,33.859,36.14,37,40,37z"/><path d="M40,23c-2.723,0-5.082,1.566-6.239,3.842l1.682,1.122C36.226,26.221,37.97,25,40,25c2.757,0,5,2.243,5,5c0,1.325-0.527,2.524-1.372,3.42l1.686,1.124C46.362,33.32,47,31.734,47,30C47,26.141,43.86,23,40,23z"/></g><line style="fill:none;stroke:#000000;stroke-width:2;stroke-linecap:round;stroke-miterlimit:10;" x1="10" y1="10" x2="70" y2="50"/></svg>