<?xml version="1.0" encoding="iso-8859-1"?>
<!-- Generator: Adobe Illustrator 28.2.0, SVG Export Plug-In . SVG Version: 6.00 Build 0)  -->
<svg version="1.1" baseProfile="basic" xmlns="http://www.w3.org/2000/svg" xmlns:xlink="http://www.w3.org/1999/xlink" x="0px"
	 y="0px" viewBox="0 0 24 24" xml:space="preserve">
<g id="&#x421;&#x43B;&#x43E;&#x439;_1">
	<path d="M8.369,3.794c1.091,0,3.293,1.027,5.547,3.282c2.849,2.849,3.662,5.522,3.156,6.028c-0.109,0.109-0.348,0.126-0.48,0.126
		c-1.091,0-3.293-1.027-5.548-3.282C8.196,7.099,7.382,4.426,7.888,3.92C7.997,3.811,8.236,3.794,8.369,3.794 M8.369,2.794
		c-0.496,0-0.904,0.135-1.188,0.418c-1.184,1.184,0.229,4.516,3.156,7.442c2.225,2.225,4.683,3.575,6.255,3.575
		c0.496,0,0.904-0.135,1.188-0.418c1.184-1.184-0.23-4.516-3.156-7.442C12.399,4.144,9.94,2.794,8.369,2.794L8.369,2.794z"/>
	<path style="fill:none;stroke:#000000;stroke-linecap:round;stroke-linejoin:round;stroke-miterlimit:10;" d="M18.864,14.864
		c-3.509,3.509-9.219,3.509-12.728,0s-3.509-9.219,0-12.728"/>
	<path d="M12.5,2C16.084,2,19,4.916,19,8.5S16.084,15,12.5,15S6,12.084,6,8.5S8.916,2,12.5,2 M12.5,1C8.358,1,5,4.358,5,8.5
		S8.358,16,12.5,16S20,12.642,20,8.5S16.642,1,12.5,1L12.5,1z"/>
	<line style="fill:none;stroke:#000000;stroke-linecap:round;stroke-miterlimit:10;" x1="9.5" y1="21.5" x2="15.5" y2="21.5"/>
	<line style="fill:none;stroke:#000000;stroke-miterlimit:10;" x1="12.5" y1="17.5" x2="12.5" y2="22"/>
	<line style="fill:none;stroke:#000000;stroke-miterlimit:10;" x1="17.482" y1="3.482" x2="7.482" y2="13.482"/>
</g>
<g id="&#x421;&#x43B;&#x43E;&#x439;_2">
</g>
</svg>