<?xml version="1.0" encoding="iso-8859-1"?>
<!-- Generator: Adobe Illustrator 24.2.3, SVG Export Plug-In . SVG Version: 6.00 Build 0)  -->
<svg version="1.1" id="Layer_1" xmlns="http://www.w3.org/2000/svg" xmlns:xlink="http://www.w3.org/1999/xlink" x="0px" y="0px"
	 viewBox="0 0 48 48" style="enable-background:new 0 0 48 48;" xml:space="preserve">
<path d="M25.245,42.991c-5.185,0-10.369-1.974-14.315-5.92c-7.894-7.894-7.894-20.737,0-28.631c0.586-0.586,1.535-0.586,2.121,0
	l26.51,26.51c0.586,0.585,0.586,1.536,0,2.121C35.614,41.017,30.43,42.991,25.245,42.991z"/>
<circle cx="33.5" cy="14.5" r="1.5"/>
<circle cx="41.5" cy="6.5" r="1.5"/>
<circle cx="37.5" cy="10.5" r="1.5"/>
<path d="M23,22l3,3c1.657,0,3-1.343,3-3s-1.343-3-3-3S23,20.343,23,22z"/>
</svg>