<?xml version="1.0" encoding="iso-8859-1"?>
<!-- Generator: Adobe Illustrator 24.1.2, SVG Export Plug-In . SVG Version: 6.00 Build 0)  -->
<svg version="1.1" id="Layer_1" xmlns="http://www.w3.org/2000/svg" xmlns:xlink="http://www.w3.org/1999/xlink" x="0px" y="0px"
	 viewBox="0 0 50 50" style="enable-background:new 0 0 50 50;" xml:space="preserve">
<g>
</g>
<g>
	<path d="M23.99,39.69c-0.08-3.25-1.42-6.07-4.2-8.86l-3.99-4.29l-0.01-0.01c-0.9-0.77-2.32-0.83-3.29-0.11
		c-0.56,0.42-0.93,1.04-1.03,1.73c-0.1,0.7,0.08,1.39,0.5,1.95l5.15,6.87c0.33,0.44,0.24,1.07-0.2,1.4c-0.18,0.14-0.39,0.2-0.6,0.2
		c-0.3,0-0.6-0.14-0.8-0.4l-5.865-7.349C9.231,30.289,9,29.63,9,28.95v-16.9c-1.211,0-2.354,0.542-3.145,1.532
		C5.271,14.313,5,15.248,5,16.185V28.52c0,2.67-0.01,3.78,1.21,5.09c0,0,5.34,6.86,6.79,8.73v2.8C13,46,13.52,47,15,47h7
		c0.75,0,2-0.26,2-2v-5C24,39.9,24,39.79,23.99,39.69z"/>
	<path d="M26,40v5c0,1.74,1.25,2,2,2h7c1.48,0,2-1,2-1.86v-2.8c1.45-1.87,6.79-8.73,6.79-8.73C45.01,32.3,45,31.19,45,28.52V16.185
		c0-0.936-0.271-1.872-0.855-2.603c-0.791-0.99-1.934-1.532-3.145-1.532v16.9c0,0.68-0.231,1.34-0.655,1.871L34.48,38.17
		c-0.2,0.26-0.5,0.4-0.8,0.4c-0.21,0-0.42-0.06-0.6-0.2c-0.44-0.33-0.53-0.96-0.2-1.4l5.15-6.87c0.42-0.56,0.6-1.25,0.5-1.95
		c-0.1-0.69-0.47-1.31-1.03-1.73c-0.97-0.72-2.39-0.66-3.29,0.11l-0.01,0.01l-3.99,4.29c-2.78,2.79-4.12,5.61-4.2,8.86
		C26,39.79,26,39.9,26,40z"/>
	<g>
		<path d="M17,9.54h-5.86C13.31,6.296,16.96,3.876,21.29,3C19.44,4.318,17.93,6.626,17,9.54z"/>
		<path d="M19.1,9.54c1.08-3.438,2.85-5.925,4.87-6.54v6.54H19.1z"/>
		<path d="M30.84,9.54h-4.87V3C27.99,3.615,29.76,6.102,30.84,9.54z"/>
		<path d="M28.65,3c4.33,0.876,7.98,3.296,10.15,6.54h-5.86C32.01,6.626,30.5,4.318,28.65,3z"/>
		<path d="M16.53,11.58c-0.31,1.56-0.49,3.23-0.54,4.98h-5.01v-4.98H16.53z"/>
		<path d="M23.97,11.58v4.98h-5.98c0.05-1.75,0.26-3.43,0.58-4.98H23.97z"/>
		<path d="M31.37,11.58c0.32,1.55,0.53,3.23,0.58,4.98h-5.98v-4.98H31.37z"/>
		<path d="M39,11.58v4.98h-5.05c-0.05-1.75-0.23-3.42-0.54-4.98H39z"/>
		<path d="M23.97,26.58v6.33c-0.72-1.19-1.64-2.34-2.76-3.47l-1.22-1.31c-0.2-0.49-0.39-1.01-0.57-1.55H23.97z"/>
		<path d="M30.52,26.58c-0.19,0.57-0.38,1.11-0.6,1.62l-0.01,0.01l-1.14,1.23c-1.14,1.15-2.07,2.33-2.8,3.54v-6.4H30.52z"/>
		<path d="M16.74,24.54h-0.33c-0.7-0.41-1.52-0.63-2.36-0.63c-0.83,0-1.64,0.22-2.34,0.63h-0.73v-5.98h5.01
			C16.05,20.69,16.31,22.7,16.74,24.54z"/>
		<path d="M23.97,18.56v5.98h-5.16c-0.47-1.82-0.75-3.85-0.82-5.98H23.97z"/>
		<path d="M25.97,18.56h5.98c-0.07,2.13-0.35,4.16-0.81,5.98h-5.17V18.56z"/>
		<path d="M39,18.56v5.98h-0.73c-0.7-0.41-1.51-0.63-2.34-0.63c-0.84,0-1.65,0.22-2.36,0.63H33.2c0.43-1.84,0.69-3.85,0.75-5.98H39z
			"/>
	</g>
	<path style="fill:#FFFFFF;" d="M37.69,26.58c0.1,0.09,0.19,0.19,0.27,0.29c0.07-0.1,0.14-0.19,0.21-0.29H37.69z"/>
	<path style="fill:#FFFFFF;" d="M11.77,26.58c0.07,0.1,0.14,0.21,0.22,0.31c0.1-0.11,0.19-0.22,0.3-0.31H11.77z"/>
</g>
</svg>