<?xml version="1.0" encoding="iso-8859-1"?>
<!-- Generator: Adobe Illustrator 23.0.4, SVG Export Plug-In . SVG Version: 6.00 Build 0)  -->
<svg version="1.1" id="Layer_1" xmlns="http://www.w3.org/2000/svg" xmlns:xlink="http://www.w3.org/1999/xlink" x="0px" y="0px"
	 viewBox="0 0 30 30" style="enable-background:new 0 0 30 30;" xml:space="preserve">
<path d="M15,2C8.925,2,4,6.925,4,13c0,7.234,7.152,10.697,8.048,11.503c0.915,0.823,1.671,2.668,1.976,3.714
	c0.148,0.508,0.564,0.765,0.976,0.776c0.413-0.012,0.828-0.269,0.976-0.776c0.305-1.046,1.061-2.89,1.976-3.714
	C18.848,23.697,26,20.234,26,13C26,6.925,21.075,2,15,2z M18.536,8.05c0.391-0.391,1.024-0.391,1.414,0
	c0.391,0.391,0.391,1.024,0,1.414c-0.391,0.391-1.024,0.391-1.414,0C18.145,9.074,18.145,8.441,18.536,8.05z M15,6
	c0.552,0,1,0.448,1,1c0,0.552-0.448,1-1,1s-1-0.448-1-1C14,6.448,14.448,6,15,6z M9,14c-0.552,0-1-0.448-1-1c0-0.552,0.448-1,1-1
	s1,0.448,1,1C10,13.552,9.552,14,9,14z M11.464,17.95c-0.391,0.391-1.024,0.391-1.414,0c-0.391-0.391-0.391-1.024,0-1.414
	c0.391-0.391,1.024-0.391,1.414,0C11.855,16.926,11.855,17.559,11.464,17.95z M11.464,9.464c-0.391,0.391-1.024,0.391-1.414,0
	c-0.391-0.391-0.391-1.024,0-1.414c0.391-0.391,1.024-0.391,1.414,0C11.855,8.441,11.855,9.074,11.464,9.464z M15,20
	c-0.552,0-1-0.448-1-1c0-0.552,0.448-1,1-1s1,0.448,1,1C16,19.552,15.552,20,15,20z M15,16c-1.657,0-3-1.343-3-3s1.343-3,3-3
	s3,1.343,3,3S16.657,16,15,16z M19.95,17.95c-0.391,0.391-1.024,0.391-1.414,0c-0.391-0.391-0.391-1.024,0-1.414
	c0.391-0.391,1.024-0.391,1.414,0C20.34,16.926,20.34,17.559,19.95,17.95z M21,14c-0.552,0-1-0.448-1-1c0-0.552,0.448-1,1-1
	s1,0.448,1,1C22,13.552,21.552,14,21,14z"/>
</svg>