<?xml version="1.0" encoding="iso-8859-1"?><!-- Generator: Adobe Illustrator 21.0.2, SVG Export Plug-In . SVG Version: 6.00 Build 0)  --><svg xmlns="http://www.w3.org/2000/svg" xmlns:xlink="http://www.w3.org/1999/xlink" viewBox="0 0 80 80" width="480px" height="480px"><path style="fill:none;stroke:#000000;stroke-width:2;stroke-miterlimit:10;" d="M60,28c0,11.046-20,38.182-20,38.182S20,39.046,20,28S28.954,8,40,8S60,16.954,60,28z"/><path d="M54.251,53.944c-0.381,0.623-0.762,1.241-1.142,1.846C64.071,57.186,71,60.209,71,63c0,3.784-12.731,8-31,8S9,66.784,9,63c0-2.791,6.929-5.814,17.891-7.21c-0.379-0.605-0.76-1.222-1.142-1.846C15.297,55.388,7,58.464,7,63c0,6.495,17.002,10,33,10s33-3.505,33-10C73,58.464,64.703,55.388,54.251,53.944z"/><circle style="fill:none;stroke:#000000;stroke-width:2;stroke-miterlimit:10;" cx="40" cy="28" r="5"/><circle cx="40" cy="13" r="1"/><circle cx="55" cy="28" r="1"/><circle cx="25" cy="28" r="1"/><ellipse transform="matrix(0.866 -0.5 0.5 0.866 -3.1506 18.2609)" cx="32.5" cy="15.01" rx="1" ry="1"/><ellipse transform="matrix(0.866 -0.5 0.5 0.866 -3.1506 29.2417)" cx="52.99" cy="20.5" rx="1" ry="1"/><ellipse transform="matrix(0.5 -0.866 0.866 0.5 -4.2487 33.641)" cx="27.01" cy="20.5" rx="1" ry="1"/><ellipse transform="matrix(0.5 -0.866 0.866 0.5 10.7513 48.641)" cx="47.5" cy="15.01" rx="1" ry="1"/><ellipse transform="matrix(0.9659 -0.2588 0.2588 0.9659 -2.2663 9.8083)" cx="36.118" cy="13.511" rx="1" ry="1"/><ellipse transform="matrix(0.9659 -0.2588 0.2588 0.9659 -4.3855 14.9246)" cx="54.489" cy="24.118" rx="1" ry="1"/><ellipse transform="matrix(0.9659 -0.2588 0.2588 0.9659 -7.3825 7.6891)" cx="25.511" cy="31.882" rx="1" ry="1"/><ellipse transform="matrix(0.7071 -0.7071 0.7071 0.7071 -3.6899 25.8787)" cx="29.393" cy="17.393" rx="1" ry="1"/><ellipse transform="matrix(0.7071 -0.7071 0.7071 0.7071 2.5233 40.8787)" cx="50.607" cy="17.393" rx="1" ry="1"/><ellipse transform="matrix(0.2588 -0.9659 0.9659 0.2588 -4.3876 42.5174)" cx="25.511" cy="24.118" rx="1" ry="1"/><ellipse transform="matrix(0.2588 -0.9659 0.9659 0.2588 9.5902 76.2628)" cx="54.489" cy="31.882" rx="1" ry="1"/><ellipse transform="matrix(0.2588 -0.9659 0.9659 0.2588 19.474 52.4012)" cx="43.882" cy="13.511" rx="1" ry="1"/></svg>