<?xml version="1.0" encoding="iso-8859-1"?>
<!-- Generator: Adobe Illustrator 23.0.3, SVG Export Plug-In . SVG Version: 6.00 Build 0)  -->
<svg version="1.1" id="Layer_1" xmlns="http://www.w3.org/2000/svg" xmlns:xlink="http://www.w3.org/1999/xlink" x="0px" y="0px"
	 viewBox="0 0 50 50" style="enable-background:new 0 0 50 50;" xml:space="preserve">
<line style="fill:none;stroke:#000000;stroke-width:2;stroke-miterlimit:10;" x1="2" y1="25" x2="23.758" y2="25"/>
<polyline style="fill:none;stroke:#000000;stroke-width:2;stroke-miterlimit:10;" points="17.758,19 23.758,25 17.758,31 "/>
<path d="M24,43.868v-8.783c-2.217,0.056-4.355,0.293-6.351,0.697C19.109,40.152,21.406,43.23,24,43.868z"/>
<path d="M11.143,12.043c1.361,0.677,2.889,1.243,4.537,1.692c0.933-2.847,2.213-5.209,3.739-6.895
	C16.213,7.827,13.38,9.652,11.143,12.043z"/>
<path d="M17.654,14.204c2.013,0.412,4.151,0.654,6.346,0.711V6.132C21.408,6.77,19.114,9.842,17.654,14.204z"/>
<path d="M25,2C13.335,2,3.677,10.731,2.202,22H4.24C5.703,11.841,14.442,4,25,4c11.579,0,21,9.421,21,21s-9.421,21-21,21
	C14.442,46,5.703,38.159,4.24,28H2.202C3.677,39.269,13.335,48,25,48c12.683,0,23-10.317,23-23S37.683,2,25,2z"/>
<path d="M19.418,43.16c-1.529-1.689-2.811-4.057-3.744-6.911c-1.663,0.453-3.19,1.025-4.527,1.713
	C13.383,40.351,16.215,42.174,19.418,43.16z"/>
<path d="M26,43.868c2.592-0.638,4.886-3.71,6.346-8.072c-2.013-0.412-4.151-0.654-6.346-0.711V43.868z"/>
<path d="M6.275,22h7.851c0.162-2.259,0.5-4.394,0.999-6.348c-1.938-0.53-3.724-1.215-5.297-2.04C8.009,16.028,6.771,18.89,6.275,22z
	"/>
<path d="M30.582,6.84c1.529,1.689,2.811,4.057,3.744,6.911c1.663-0.453,3.19-1.025,4.527-1.713
	C36.617,9.649,33.785,7.826,30.582,6.84z"/>
<path d="M26,6.132v8.783c2.217-0.056,4.355-0.293,6.351-0.697C30.891,9.848,28.594,6.77,26,6.132z"/>
<path d="M26,33.086c2.388,0.06,4.721,0.329,6.917,0.79c0.615-2.385,0.985-5.062,1.058-7.876H26V33.086z"/>
<path d="M26,24h7.975c-0.073-2.808-0.442-5.481-1.055-7.862c-2.178,0.453-4.51,0.718-6.92,0.776V24z"/>
<path d="M43.949,26h-7.975c-0.071,3.006-0.455,5.825-1.099,8.348c1.938,0.53,3.724,1.215,5.297,2.04
	C42.375,33.461,43.745,29.887,43.949,26z"/>
<path d="M15.121,34.332c-0.496-1.95-0.833-4.079-0.995-6.332H6.275c0.497,3.115,1.739,5.981,3.562,8.4
	C11.383,35.561,13.165,34.867,15.121,34.332z"/>
<path d="M40.163,13.6c-1.546,0.839-3.328,1.533-5.284,2.068C35.52,18.187,35.903,21,35.974,24h7.975
	C43.745,20.108,42.371,16.529,40.163,13.6z"/>
<path d="M30.581,43.16c3.206-0.987,6.039-2.812,8.276-5.203c-1.361-0.677-2.889-1.243-4.537-1.692
	C33.387,39.112,32.107,41.474,30.581,43.16z"/>
</svg>