<?xml version="1.0" encoding="utf-8"?><!-- Generator: Adobe Illustrator 15.0.0, SVG Export Plug-In . SVG Version: 6.00 Build 0)  --><!DOCTYPE svg PUBLIC "-//W3C//DTD SVG 1.1//EN" "http://www.w3.org/Graphics/SVG/1.1/DTD/svg11.dtd"><svg xmlns="http://www.w3.org/2000/svg" xmlns:xlink="http://www.w3.org/1999/xlink" viewBox="0 0 50 50" width="500px" height="500px"><path d="M28,0c-5.514,0-10,4.486-10,10c0,8.623,8.859,19.199,9.236,19.646C27.427,29.87,27.706,30,28,30c0.001,0,0.003,0,0.005,0c0.295-0.001,0.575-0.134,0.765-0.361C29.146,29.185,38,18.426,38,10C38,4.486,33.514,0,28,0z M28,15c-2.209,0-4-1.791-4-4s1.791-4,4-4s4,1.791,4,4S30.209,15,28,15z"/><g><path d="M49.511,6.14c-0.304-0.181-0.68-0.187-0.989-0.018l-8.567,4.673c-0.479,8.81-8.683,18.961-9.647,20.123C29.736,31.603,28.9,31.997,28,32c-0.883,0-1.718-0.387-2.292-1.063c-0.975-1.154-9.362-11.361-9.679-20.413l-3.009,1.368L1.447,6.105C1.137,5.951,0.77,5.967,0.474,6.149C0.18,6.332,0,6.653,0,7v36c0,0.379,0.214,0.725,0.553,0.895l12,6c0.281,0.141,0.613,0.141,0.895,0l11.57-5.785l12.564,5.799C37.714,49.97,37.857,50,38,50c0.165,0,0.33-0.041,0.479-0.122l11-6C49.8,43.703,50,43.366,50,43V7C50,6.647,49.813,6.32,49.511,6.14z"/></g></svg>