<?xml version="1.0" encoding="iso-8859-1"?><!-- Generator: Adobe Illustrator 21.1.0, SVG Export Plug-In . SVG Version: 6.00 Build 0)  --><svg xmlns="http://www.w3.org/2000/svg" xmlns:xlink="http://www.w3.org/1999/xlink" viewBox="0 0 50 50" width="500px" height="500px"><g><path d="M20.665,42.891C18.264,38.946,17,31.832,17,25s1.264-13.946,3.665-17.891C15.625,9.727,12,16.747,12,25S15.625,40.273,20.665,42.891z"/><path d="M24,43.679V6.321C21.468,7.875,19,15.108,19,25S21.468,42.125,24,43.679z"/><path d="M29.335,7.109C31.736,11.054,33,18.168,33,25s-1.264,13.946-3.665,17.891C34.375,40.273,38,33.253,38,25S34.375,9.727,29.335,7.109z"/><path d="M26,6.321v37.358c2.532-1.554,5-8.787,5-18.679S28.532,7.875,26,6.321z"/><path d="M25,2C12.317,2,2,12.317,2,25s10.317,23,23,23s23-10.317,23-23S37.683,2,25,2z M25,46C13.421,46,4,36.579,4,25S13.421,4,25,4s21,9.421,21,21S36.579,46,25,46z"/><path d="M10,25c0-6.811,2.338-12.857,5.939-16.696C10.023,11.527,6,17.802,6,25s4.023,13.473,9.939,16.696C12.338,37.857,10,31.811,10,25z"/><path d="M34.061,8.304C37.662,12.143,40,18.189,40,25s-2.338,12.857-5.939,16.696C39.977,38.473,44,32.198,44,25S39.977,11.527,34.061,8.304z"/></g></svg>