<?xml version="1.0" encoding="iso-8859-1"?><!-- Generator: Adobe Illustrator 21.1.0, SVG Export Plug-In . SVG Version: 6.00 Build 0)  --><svg xmlns="http://www.w3.org/2000/svg" xmlns:xlink="http://www.w3.org/1999/xlink" viewBox="0 0 50 50" width="500px" height="500px"><path style="fill:none;stroke:#000000;stroke-width:2;stroke-linecap:round;stroke-linejoin:round;stroke-miterlimit:10;" d="M25,2c-4.971,0-9,4.031-9,9c0,5.927,9,17,9,17s9-10.878,9-17C34,6.031,29.972,2,25,2z"/><path style="fill:none;stroke:#000000;stroke-width:2;stroke-linejoin:round;stroke-miterlimit:10;" d="M15.143,11c-2.19,0-3.06-0.01-3.06,2.167c1.095,2.176,0.869,4.363-0.226,4.363c-2.19-1.088-5.34,0.646-4.967,1.114c0.429,0.538-5.544,7.185-4.831,8.129c8.156,3.375,2.626,8.463,6.968,9.798c1.923,0.812,1.188,5.449,1.188,5.449s3.686,3.936,4.249,3.493c0.855-0.674,8.507,2.139,8.867,1.5c0.327-0.583,1.656-3.51,3.126-4.304c0.998-0.539,10.384,5.047,11.397,5.276c1.208,0.273,4.623-3.09,5.021-3.401c0.265-0.207-1.286-2.013-1.487-2.96c-0.285-1.348,6.185-10.892,5.691-11.476c-3.686-1.696-3.73-8.135-3.686-8.48c0.051-0.415,3.725-1.58,3.82-1.907c1.141-3.91,1.12-5.633-0.57-6.336c-1.259-1.066-5.581,0.69-7.404,0.841L37.048,11c-2.19,0-2.19,0-2.19,0"/><circle cx="17.5" cy="29.5" r="2.5"/><circle style="fill:none;stroke:#000000;stroke-width:2;stroke-linecap:round;stroke-linejoin:round;stroke-miterlimit:10;" cx="25" cy="11" r="3"/></svg>