<?xml version="1.0" encoding="iso-8859-1"?>
<!-- Generator: Adobe Illustrator 25.4.1, SVG Export Plug-In . SVG Version: 6.00 Build 0)  -->
<svg version="1.1" baseProfile="basic" id="Layer_1"
	 xmlns="http://www.w3.org/2000/svg" xmlns:xlink="http://www.w3.org/1999/xlink" x="0px" y="0px" viewBox="0 0 100 100"
	 xml:space="preserve">
<path style="fill:none;stroke:#000000;stroke-width:2;stroke-linecap:round;stroke-linejoin:round;stroke-miterlimit:10;" d="
	M43.364,63.299c0,0,6.445,3.96,12.244,5.178"/>
<line style="fill:none;stroke:#000000;stroke-width:2;stroke-linecap:round;stroke-linejoin:round;stroke-miterlimit:10;" x1="38.548" y1="75.093" x2="35.596" y2="77.808"/>
<line style="fill:none;stroke:#000000;stroke-width:2;stroke-linecap:round;stroke-linejoin:round;stroke-miterlimit:10;" x1="26.842" y1="65.003" x2="21.908" y2="63.766"/>
<line style="fill:none;stroke:#000000;stroke-width:2;stroke-linecap:round;stroke-linejoin:round;stroke-miterlimit:10;" x1="26.602" y1="55.663" x2="22.817" y2="58.165"/>
<line style="fill:none;stroke:#000000;stroke-width:2;stroke-linecap:round;stroke-linejoin:round;stroke-miterlimit:10;" x1="71.934" y1="79.995" x2="69.231" y2="76.471"/>
<line style="fill:none;stroke:#000000;stroke-width:2;stroke-linecap:round;stroke-linejoin:round;stroke-miterlimit:10;" x1="24.829" y1="79.94" x2="27.751" y2="77.276"/>
<line style="fill:none;stroke:#000000;stroke-width:2;stroke-linecap:round;stroke-linejoin:round;stroke-miterlimit:10;" x1="19.632" y1="78.755" x2="22.586" y2="75.884"/>
<line style="fill:none;stroke:#000000;stroke-width:2;stroke-linecap:round;stroke-linejoin:round;stroke-miterlimit:10;" x1="14.096" y1="76.982" x2="17.346" y2="74.741"/>
<line style="fill:none;stroke:#000000;stroke-width:2;stroke-linecap:round;stroke-linejoin:round;stroke-miterlimit:10;" x1="10.343" y1="73.502" x2="14.567" y2="71.195"/>
<path style="fill:none;stroke:#000000;stroke-width:4;stroke-linecap:round;stroke-linejoin:round;stroke-miterlimit:10;" d="
	M49.427,59.731c0,0,12.124-15.717,12.102-23.93c-0.022-8.213-5.864-13.379-12.846-13.999c-6.981-0.62-15.821,5.928-13.502,15.445
	C37.5,46.765,49.427,59.731,49.427,59.731z"/>
<path style="fill:none;stroke:#000000;stroke-width:4;stroke-linecap:round;stroke-linejoin:round;stroke-miterlimit:10;" d="
	M60.85,39.858c0,0,13.666,0.229,17.32-0.652c3.654-0.881,8.742-3.394,8.742-3.394s1.815,9.173-0.12,22.396
	c-1.759,12.015-4.3,20.351-4.3,20.351s-10.089,3.297-18.524,3.492c-8.436,0.195-25.632,2.148-39.291-0.675
	C11.54,78.662,9.369,74.535,9.369,74.535s2.714-14.858,5.603-20.917c2.681-5.623,4.836-10.682,4.836-10.682l1.729-7.342l12.43,3.709
	"/>
<path style="fill:none;stroke:#000000;stroke-width:2;stroke-linecap:round;stroke-linejoin:round;stroke-miterlimit:10;" d="
	M49.743,30.265c-3.95-0.305-7.288,1.099-6.828,4.666c0.46,3.567,4.749,5.46,7.736,2.687C53.639,34.844,53.694,30.57,49.743,30.265z"
	/>
<path style="fill:none;stroke:#000000;stroke-width:2;stroke-linecap:round;stroke-linejoin:round;stroke-miterlimit:10;" d="
	M16.01,50.867c0,0,6.521,1.533,9.562,3.35c3.042,1.816,3.48,8.506,3.48,8.506s-5.197,4.928-2.746,8.071
	c2.451,3.144,1.971,0.436,3.994,2.187c2.023,1.751,4.727-0.446,4.727-0.446s6.433,1.915,6.499,9.746"/>
<path style="fill:none;stroke:#000000;stroke-width:2;stroke-linecap:round;stroke-linejoin:round;stroke-miterlimit:10;" d="
	M56.855,77.211c0,0-1.64-1.521,1.675-3.143c3.314-1.621,2.647-0.893,5.383-3.34c2.735-2.447,4.377-3.296,4.377-3.296l0.295-7.287
	c0,0-2.987-2.471,0.416-5.363c3.403-2.893,5.066-1.381,7.55-5.373c2.483-3.992,5.416-11.215,5.416-11.215"/>
<line style="fill:none;stroke:#000000;stroke-width:2;stroke-linecap:round;stroke-linejoin:round;stroke-miterlimit:10;" x1="11.405" y1="67.215" x2="15.354" y2="66.366"/>
<line style="fill:none;stroke:#000000;stroke-width:2;stroke-linecap:round;stroke-linejoin:round;stroke-miterlimit:10;" x1="78.258" y1="78.962" x2="73.848" y2="74.622"/>
<line style="fill:none;stroke:#000000;stroke-width:2;stroke-linecap:round;stroke-linejoin:round;stroke-miterlimit:10;" x1="83.739" y1="71.533" x2="75.073" y2="68.182"/>
<line style="fill:none;stroke:#000000;stroke-width:2;stroke-linecap:round;stroke-linejoin:round;stroke-miterlimit:10;" x1="84.549" y1="67.008" x2="78.072" y2="65.126"/>
<line style="fill:none;stroke:#000000;stroke-width:2;stroke-linecap:round;stroke-linejoin:round;stroke-miterlimit:10;" x1="87.372" y1="48.527" x2="83.827" y2="50.301"/>
<line style="fill:none;stroke:#000000;stroke-width:2;stroke-linecap:round;stroke-linejoin:round;stroke-miterlimit:10;" x1="86.836" y1="53.966" x2="77.579" y2="56.641"/>
<line style="fill:none;stroke:#000000;stroke-width:2;stroke-linecap:round;stroke-linejoin:round;stroke-miterlimit:10;" x1="87.066" y1="58.621" x2="82.821" y2="59.872"/>
<line style="fill:none;stroke:#000000;stroke-width:2;stroke-linecap:round;stroke-linejoin:round;stroke-miterlimit:10;" x1="23.227" y1="53.602" x2="20.825" y2="55.75"/>
<path style="fill:none;stroke:#000000;stroke-width:2;stroke-linecap:round;stroke-linejoin:round;stroke-miterlimit:10;" d="
	M43.846,70.173c0,0,10.384-5.482,12.802-7.549"/>
<path style="fill-rule:evenodd;clip-rule:evenodd;" d="M64.529,61.014c0.476,0.278,0.637,0.891,0.358,1.368
	c-0.279,0.476-0.892,0.637-1.368,0.359c-0.476-0.279-0.637-0.892-0.358-1.368C63.439,60.896,64.052,60.735,64.529,61.014z"/>
<path style="fill-rule:evenodd;clip-rule:evenodd;" d="M58.591,55.575c0.476,0.279,0.637,0.892,0.358,1.368
	c-0.279,0.476-0.892,0.637-1.368,0.359c-0.476-0.279-0.637-0.892-0.358-1.368C57.502,55.457,58.115,55.296,58.591,55.575z"/>
<path style="fill-rule:evenodd;clip-rule:evenodd;" d="M31.67,48.814c0.476,0.279,0.637,0.892,0.359,1.368
	c-0.279,0.476-0.892,0.637-1.368,0.359c-0.477-0.279-0.637-0.892-0.359-1.368C30.581,48.696,31.194,48.535,31.67,48.814z"/>
</svg>