<?xml version="1.0" encoding="iso-8859-1"?>
<!-- Generator: Adobe Illustrator 24.1.2, SVG Export Plug-In . SVG Version: 6.00 Build 0)  -->
<svg version="1.1" id="Layer_1" xmlns="http://www.w3.org/2000/svg" xmlns:xlink="http://www.w3.org/1999/xlink" x="0px" y="0px"
	 viewBox="0 0 50 50" style="enable-background:new 0 0 50 50;" xml:space="preserve">
<g>
</g>
<g>
	<g>
		<path style="fill:none;stroke:#000000;stroke-width:2;stroke-linejoin:round;stroke-miterlimit:10;" d="M30.396,32
			c-1.674,0.646-3.494,1-5.396,1c-1.753,0-3.436-0.301-5-0.854"/>
		<path style="fill:none;stroke:#000000;stroke-width:2;stroke-linejoin:round;stroke-miterlimit:10;" d="M12.309,26
			C10.847,23.685,10,20.941,10,18c0-8.284,6.716-15,15-15s15,6.716,15,15c0,2.941-0.847,5.685-2.309,8.001"/>
		
			<ellipse style="fill:none;stroke:#000000;stroke-width:2;stroke-linejoin:round;stroke-miterlimit:10;" cx="25" cy="18" rx="7" ry="15"/>
		
			<line style="fill:none;stroke:#000000;stroke-width:2;stroke-linejoin:round;stroke-miterlimit:10;" x1="25" y1="2.999" x2="25" y2="33"/>
		
			<line style="fill:none;stroke:#000000;stroke-width:2;stroke-linejoin:round;stroke-miterlimit:10;" x1="10" y1="18" x2="40.001" y2="18"/>
		
			<line style="fill:none;stroke:#000000;stroke-width:2.043;stroke-linecap:round;stroke-linejoin:round;stroke-miterlimit:10;" x1="12" y1="11" x2="38" y2="11"/>
		
			<line style="fill:none;stroke:#000000;stroke-width:2.043;stroke-linecap:round;stroke-linejoin:round;stroke-miterlimit:10;" x1="14" y1="26" x2="36" y2="26"/>
	</g>
	<path style="fill:none;stroke:#000000;stroke-width:2;stroke-linecap:round;stroke-linejoin:round;stroke-miterlimit:10;" d="
		M10,28V13.15c-0.125-0.04,0.032-0.073-0.928-0.097C7.388,13.011,6,14.367,6,16.052V28c0,3-0.07,3.84,1,5c0,0,5.97,7.66,7,9v3.14
		C14,46,14.8,46,15,46c0.82,0,7,0,7,0c1,0,1-0.57,1-1v-5c0-0.08,0-0.17-0.01-0.25c-0.07-3.55-1.87-6.17-3.93-8.24l-4.449-4.779
		c-0.916-0.984-2.427-1.119-3.503-0.312l-0.004,0.003c-1.162,0.872-1.398,2.52-0.526,3.682L15,36"/>
	<path style="fill:none;stroke:#000000;stroke-width:2;stroke-linecap:round;stroke-linejoin:round;stroke-miterlimit:10;" d="
		M35,36l4.422-5.896c0.872-1.162,0.636-2.81-0.526-3.682l-0.004-0.003c-1.076-0.807-2.587-0.672-3.503,0.312L30.94,31.51
		c-2.06,2.07-3.86,4.69-3.93,8.24C27,39.83,27,39.92,27,40v5c0,0.43,0,1,1,1c0,0,6.18,0,7,0c0.2,0,1,0,1-0.86V42c1.03-1.34,7-9,7-9
		c1.07-1.16,1-2,1-5V16.052c0-1.685-1.388-3.041-3.072-2.999c-0.96,0.024-0.803,0.057-0.928,0.097V28"/>
</g>
</svg>