<?xml version="1.0" encoding="iso-8859-1"?><!-- Generator: Adobe Illustrator 21.1.0, SVG Export Plug-In . SVG Version: 6.00 Build 0)  --><svg xmlns="http://www.w3.org/2000/svg" xmlns:xlink="http://www.w3.org/1999/xlink" viewBox="0 0 64 64" width="512px" height="512px"><path style="display:none;fill:#5DBC9D;" d="M31,3.02v47.89C30.92,50.92,9.43,61.02,9.43,61.02c-0.82,0.38-1.69-0.43-1.36-1.28L30.26,3.63C30.39,3.28,30.68,3.07,31,3.02z"/><g><path d="M55.23,59.376L33.046,3.265C32.743,2.497,32.013,2,31.187,2s-1.557,0.497-1.859,1.265L7.144,59.376c-0.304,0.768-0.111,1.629,0.491,2.194C8.016,61.927,8.504,62.114,9,62.114c0.288,0,0.58-0.063,0.854-0.192l21.332-10.039l8.097,3.81c0.156,0.161,0.368,0.255,0.602,0.283l12.633,5.945c0.748,0.351,1.619,0.213,2.221-0.352C55.342,61.005,55.534,60.144,55.23,59.376z M53.37,60.112l-11.423-5.376C41.829,54.315,41.459,54,41,54h-0.619l-8.343-3.926c-0.012-0.006-0.026-0.008-0.038-0.013V20.071c0-0.552-0.447-1-1-1s-1,0.448-1,1v30.16L9.003,60.112L31.187,4l7.91,20H39c-0.553,0-1,0.448-1,1s0.447,1,1,1h0.887l1.193,3.016C41.052,29.013,41.028,29,41,29h-2c-0.553,0-1,0.448-1,1s0.447,1,1,1h2c0.293,0,0.551-0.131,0.734-0.332L53.38,60.115C53.38,60.115,53.376,60.115,53.37,60.112z"/><path d="M31,12c-0.553,0-1,0.448-1,1v3.536c0,0.552,0.447,1,1,1s1-0.448,1-1V13C32,12.448,31.553,12,31,12z"/><path d="M41,49h-2c-0.553,0-1,0.448-1,1s0.447,1,1,1h2c0.553,0,1-0.448,1-1S41.553,49,41,49z"/><path d="M41,44h-2c-0.553,0-1,0.448-1,1s0.447,1,1,1h2c0.553,0,1-0.448,1-1S41.553,44,41,44z"/><path d="M41,39h-2c-0.553,0-1,0.448-1,1s0.447,1,1,1h2c0.553,0,1-0.448,1-1S41.553,39,41,39z"/><path d="M41,34h-2c-0.553,0-1,0.448-1,1s0.447,1,1,1h2c0.553,0,1-0.448,1-1S41.553,34,41,34z"/></g></svg>