<?xml version="1.0" encoding="utf-8"?><!-- Generator: Adobe Illustrator 17.0.2, SVG Export Plug-In . SVG Version: 6.00 Build 0)  --><!DOCTYPE svg PUBLIC "-//W3C//DTD SVG 1.1//EN" "http://www.w3.org/Graphics/SVG/1.1/DTD/svg11.dtd"><svg xmlns="http://www.w3.org/2000/svg" xmlns:xlink="http://www.w3.org/1999/xlink" viewBox="0 0 50 50" width="500px" height="500px"><polyline fill="none" stroke="#000000" stroke-width="2" stroke-linecap="round" stroke-linejoin="round" stroke-miterlimit="10" points="33.78,7.052 25,3 13,9 1,3 1,41 13,47 25,41 38,47 49,41 49,15 "/><g><polyline fill="none" stroke="#000000" stroke-width="2" stroke-linecap="round" stroke-linejoin="round" stroke-miterlimit="10" points="47.162,10.318 27.489,29.991 20,32 22.009,24.511 41.682,4.838 "/><path d="M47.749,11.134c-0.005,0.004,0.824-0.825,0.824-0.825c1.901-1.901,1.901-4.983,0.002-6.883c-1.903-1.902-4.984-1.9-6.885,0c0,0-0.83,0.83-0.825,0.825L47.749,11.134z"/><polygon points="22.191,24.328 27.672,29.808 20.474,31.526 "/></g></svg>