<?xml version="1.0" encoding="iso-8859-1"?><!-- Generator: Adobe Illustrator 21.1.0, SVG Export Plug-In . SVG Version: 6.00 Build 0)  --><svg xmlns="http://www.w3.org/2000/svg" xmlns:xlink="http://www.w3.org/1999/xlink" viewBox="0 0 80 80" width="480px" height="480px"><circle cx="45" cy="28" r="1"/><circle cx="45" cy="24" r="1"/><circle cx="45" cy="20" r="1"/><circle cx="45" cy="15" r="1"/><circle cx="45" cy="9" r="1"/><polyline style="fill:none;stroke:#000000;stroke-width:2;stroke-linecap:round;stroke-miterlimit:10;" points="35,32 35,48 28,48 40,63 52,48 45,48 45,32 "/><circle cx="35" cy="28" r="1"/><circle cx="35" cy="24" r="1"/><circle cx="35" cy="20" r="1"/><circle cx="35" cy="15" r="1"/><circle cx="35" cy="9" r="1"/><path style="fill:none;stroke:#000000;stroke-width:2;stroke-linecap:round;stroke-miterlimit:10;" d="M23,55.377C13.99,56.968,8,59.787,8,63c0,4.971,14.327,9,32,9s32-4.029,32-9c0-3.213-5.99-6.032-15-7.623"/></svg>