<?xml version="1.0" encoding="iso-8859-1"?>
<!-- Generator: Adobe Illustrator 23.0.3, SVG Export Plug-In . SVG Version: 6.00 Build 0)  -->
<svg version="1.1" id="Layer_1" xmlns="http://www.w3.org/2000/svg" xmlns:xlink="http://www.w3.org/1999/xlink" x="0px" y="0px"
	 viewBox="0 0 50 50" style="enable-background:new 0 0 50 50;" xml:space="preserve">
<path style="fill:none;stroke:#000000;stroke-width:2;stroke-miterlimit:10;" d="M45,34v5c0,1.104-0.896,2-2,2h-4
	c-1.103,0-2-0.896-2-2v-2"/>
<path style="fill:none;stroke:#000000;stroke-width:2;stroke-linecap:round;stroke-linejoin:round;stroke-miterlimit:10;" d="M36,27
	c0.904,0,3.245,0,4,0c1.104,0,2,0.895,2,2c0,1.307-0.919,1.927-2.08,2.584C38.187,32.567,37.676,33,36,33c-1.656,0-3-1.342-3-3
	S34.344,27,36,27z"/>
<path style="fill:none;stroke:#000000;stroke-width:2;stroke-miterlimit:10;" d="M42.532,20h3.369C48.473,20,49,21.532,49,22.588
	C49,23.645,48.213,24,46.917,24h-2.771"/>
<path style="fill:none;stroke:#000000;stroke-width:2;stroke-linejoin:round;stroke-miterlimit:10;" d="M14,5
	c7.193,0,13,5.826,13,13.043C27,30.131,14,45,14,45S1,29.87,1,18.044C1,10.826,6.807,5,14,5z"/>
<path d="M45.934,26.813c-0.107-0.28-1.524-3.977-2.928-7.598c-0.027-0.071-0.05-0.131-0.075-0.194
	c-1.159-2.987-2.293-5.879-2.658-6.71c-0.835-1.901-3.142-2.769-4.834-3.255c-0.508-0.211-2.847-1.013-8.978-1.053
	c0.51,0.636,0.967,1.314,1.378,2.024c5.106,0.147,6.825,0.872,6.832,0.876l0.156,0.059c0.754,0.215,3.049,0.867,3.615,2.154
	c0.335,0.763,1.378,3.419,2.475,6.247l-0.004,0.001l0.078,0.194c0.013,0.033,0.03,0.075,0.045,0.112
	c0.033,0.084,0.065,0.168,0.098,0.253c0.243,0.643,0.517,1.578,0.13,2.154C40.864,22.673,39.705,23,38,23h-8.565
	c-0.144,0.667-0.32,1.334-0.511,2H38c2.175,0,3.676-0.449,4.567-1.369c0.693,1.798,1.247,3.243,1.433,3.726v7.786
	C44,35.615,43.596,36,43.1,36H24.035c-0.402,0.689-0.808,1.356-1.212,2H43.1c1.599,0,2.9-1.282,2.9-2.857v-8.156L45.934,26.813z"/>
<rect x="12" y="15" width="4" height="4"/>
<rect x="8" y="19" width="4" height="4"/>
<rect x="16" y="19" width="4" height="4"/>
<rect x="20" y="15" width="4" height="4"/>
<rect x="4" y="15" width="4" height="4"/>
</svg>