<?xml version="1.0" encoding="utf-8"?><!-- Generator: Adobe Illustrator 17.1.0, SVG Export Plug-In . SVG Version: 6.00 Build 0)  --><!DOCTYPE svg PUBLIC "-//W3C//DTD SVG 1.0//EN" "http://www.w3.org/TR/2001/REC-SVG-20010904/DTD/svg10.dtd"><svg xmlns="http://www.w3.org/2000/svg" xmlns:xlink="http://www.w3.org/1999/xlink" viewBox="0 0 50 50" width="500px" height="500px"><rect style="fill:none;" width="50" height="50"/><g><g><path style="fill:none;stroke:#000000;stroke-width:2;stroke-linejoin:round;stroke-miterlimit:10;" d="M25,1L3.1,49L25,40.6L46.9,49L25,1L25,1z"/></g></g><g><g><path style="fill:none;stroke:#000000;stroke-width:2;stroke-linejoin:round;stroke-miterlimit:10;" d="M25,1L3.1,49L25,40.6L46.9,49L25,1L25,1z"/></g></g><line style="fill:none;stroke:#000000;stroke-width:2;stroke-linejoin:round;stroke-miterlimit:10;" x1="25" y1="40.6" x2="25" y2="1"/><g><circle cx="41" cy="37" r="1"/><circle cx="38" cy="40" r="1"/><circle cx="38" cy="34" r="1"/><circle cx="41" cy="43" r="1"/><circle cx="44" cy="46" r="1"/><circle cx="35" cy="25" r="1"/><circle cx="29" cy="37" r="1"/><circle cx="35" cy="37" r="1"/><circle cx="32" cy="28" r="1"/><circle cx="32" cy="22" r="1"/><circle cx="26" cy="22" r="1"/><circle cx="26" cy="16" r="1"/><circle cx="26" cy="10" r="1"/><circle cx="35" cy="31" r="1"/><circle cx="26" cy="40" r="1"/><circle cx="32" cy="40" r="1"/><circle cx="35" cy="43" r="1"/><circle cx="32" cy="34" r="1"/><circle cx="29" cy="31" r="1"/><circle cx="29" cy="19" r="1"/><circle cx="29" cy="13" r="1"/><circle cx="26" cy="28" r="1"/><circle cx="29" cy="25" r="1"/><circle cx="26" cy="34" r="1"/></g></svg>