<?xml version="1.0" encoding="iso-8859-1"?><!-- Generator: Adobe Illustrator 22.1.0, SVG Export Plug-In . SVG Version: 6.00 Build 0)  --><svg xmlns="http://www.w3.org/2000/svg" xmlns:xlink="http://www.w3.org/1999/xlink" viewBox="0 0 80 80" width="480px" height="480px"><g id="Layer_1"><path style="fill:none;stroke:#000000;stroke-width:2;stroke-miterlimit:10;" d="M51,32c0,11.046-20,38.182-20,38.182S11,43.046,11,32s8.954-20,20-20S51,20.954,51,32z"/><circle style="fill:none;stroke:#000000;stroke-width:2;stroke-miterlimit:10;" cx="31" cy="32" r="5"/><circle cx="31" cy="17" r="1"/><circle cx="46" cy="32" r="1"/><circle cx="16" cy="32" r="1"/><ellipse cx="23.499" cy="19.01" rx="1" ry="1"/><ellipse cx="43.989" cy="24.5" rx="1" ry="1"/><ellipse cx="18.009" cy="24.5" rx="1" ry="1"/><ellipse cx="38.5" cy="19.011" rx="1" ry="1"/><ellipse cx="27.117" cy="17.511" rx="1" ry="1"/><ellipse cx="45.487" cy="28.118" rx="1" ry="1"/><ellipse cx="16.51" cy="35.882" rx="1" ry="1"/><ellipse cx="20.392" cy="21.394" rx="1" ry="1"/><ellipse cx="41.606" cy="21.393" rx="1" ry="1"/><ellipse cx="16.51" cy="28.118" rx="1" ry="1"/><ellipse cx="45.487" cy="35.883" rx="1" ry="1"/><ellipse cx="34.881" cy="17.512" rx="1" ry="1"/><path style="fill:none;stroke:#000000;stroke-width:2;stroke-miterlimit:10;" d="M57,20l13,13L57,46"/></g><g id="Layer_2"></g><g id="Layer_3"></g></svg>