<?xml version="1.0" encoding="iso-8859-1"?>
<!-- Generator: Adobe Illustrator 24.2.3, SVG Export Plug-In . SVG Version: 6.00 Build 0)  -->
<svg version="1.1" id="Layer_1" xmlns="http://www.w3.org/2000/svg" xmlns:xlink="http://www.w3.org/1999/xlink" x="0px" y="0px"
	 viewBox="0 0 48 48" style="enable-background:new 0 0 48 48;" xml:space="preserve">
<path style="fill:none;stroke:#000000;stroke-width:3;stroke-linecap:round;stroke-linejoin:round;stroke-miterlimit:10;" d="
	M24,5.5c10.217,0,18.5,8.283,18.5,18.5S34.217,42.5,24,42.5S5.5,34.217,5.5,24"/>
<path d="M11,37c-3-3-5.022-6.921-4.748-7.332l2-3C8.53,26.251,8.999,26,9.5,26h4c0.398,0,0.779,0.158,1.061,0.439l4,4
	C18.842,30.721,19,31.103,19,31.5v5.379l4.561,4.561C24.053,41.932,23.366,42.408,23,43C22.721,43.451,16.099,42.099,11,37z"/>
<path d="M30.5,42c-0.462,0-0.905-0.214-1.192-0.59c-0.348-0.455-0.406-1.068-0.15-1.581l3.665-7.329l-1.25-2.5H29.5
	c-0.398,0-0.779-0.158-1.061-0.439l-3-3c-0.271-0.271-0.427-0.634-0.439-1.016l-0.103-3.42c-0.017-0.58,0.302-1.118,0.819-1.382
	l3.103-1.58C29.03,19.056,29.263,19,29.5,19h3c0.161,0,0.321,0.026,0.474,0.077l1.766,0.589l0.689-1.379L32.211,17H29.5
	c-0.829,0-1.5-0.672-1.5-1.5v-3c0-0.646,0.413-1.219,1.026-1.423L31,10.419V8.5c0-0.516,0.264-0.994,0.7-1.269
	c0.436-0.275,0.982-0.307,1.447-0.085C33.439,7.286,39.618,10.584,42,17c2.199,5.923,1.921,10.606-1,15
	c-5.124,7.705-9.977,9.925-10.206,9.971C30.696,41.99,30.598,42,30.5,42z"/>
<path d="M19.421,5.579c0.773,0.773,0.773,2.025,0,2.798c-0.014,0.014-0.027,0.027-0.041,0.04l-3.427,3.231l2.592,7.445
	c0.209,0.599,0.056,1.264-0.392,1.713c-0.359,0.359-0.942,0.359-1.301,0c-0.026-0.026-0.05-0.053-0.073-0.082l-4.448-5.659
	l-2.723,2.568l0.598,1.286c0.227,0.488,0.124,1.065-0.256,1.445c-0.35,0.35-0.917,0.35-1.266,0l-1.037-1.038l-0.688,0.451
	c-0.496,0.325-1.153,0.257-1.572-0.162c-0.42-0.42-0.487-1.076-0.162-1.572l0.451-0.688l-1.039-1.038
	c-0.323-0.323-0.348-0.831-0.074-1.182l0.074-0.084c0.38-0.38,0.958-0.482,1.445-0.256l1.287,0.597l2.559-2.713L4.352,8.298
	C4.337,8.287,4.323,8.275,4.309,8.263l-0.04-0.038c-0.359-0.359-0.359-0.942,0-1.301C4.68,6.513,5.274,6.351,5.831,6.487
	l0.151,0.045l7.334,2.552l3.267-3.463c0.75-0.795,2.002-0.832,2.797-0.082L19.421,5.579z"/>
</svg>