<?xml version="1.0" encoding="iso-8859-1"?>
<!-- Generator: Adobe Illustrator 23.0.3, SVG Export Plug-In . SVG Version: 6.00 Build 0)  -->
<svg version="1.1" id="Layer_1" xmlns="http://www.w3.org/2000/svg" xmlns:xlink="http://www.w3.org/1999/xlink" x="0px" y="0px"
	 viewBox="0 0 50 50" style="enable-background:new 0 0 50 50;" xml:space="preserve">
<path style="fill:none;stroke:#000000;stroke-width:2;stroke-linecap:round;stroke-linejoin:round;stroke-miterlimit:10;" d="
	M2.996,46l3.485-2.556c2.069-1.518,4.779-1.847,7.151-0.868l11.696,4.147c1.59,0.564,3.356,0.29,4.7-0.729l15.774-11.951
	c1.223-0.844,1.563-2.502,0.77-3.759l0,0c-0.816-1.294-2.527-1.681-3.821-0.865l-11.486,7.078"/>
<path style="fill:none;stroke:#000000;stroke-width:2;stroke-linecap:round;stroke-linejoin:round;stroke-miterlimit:10;" d="M19,38
	c0,0,9.277,2.779,9.927,2.933C29.111,40.977,29.303,41,29.5,41c1.381,0,2.5-1.119,2.5-2.5c0-0.92-0.498-1.717-1.239-2.148
	c-0.301-0.175-1.766-0.873-2.294-1.112c-1.444-0.653-6.3-2.658-9.973-4.27c-2.878-1.263-6.145-1.294-9.046-0.085L3,33.57"/>
<g>
	<path style="fill:none;stroke:#000000;stroke-width:2;stroke-miterlimit:10;" d="M29,3c6.6,0,12,5.4,12,12s-5.4,12-12,12
		s-12-5.4-12-12S22.4,3,29,3z"/>
</g>
<g>
	<path style="fill:none;stroke:#000000;stroke-width:2;stroke-miterlimit:10;" d="M29,3c3.36,0,6,5.4,6,12s-2.64,12-6,12
		s-6-5.4-6-12S25.64,3,29,3z"/>
</g>
<line style="fill:none;stroke:#000000;stroke-width:2;stroke-miterlimit:10;" x1="29" y1="27" x2="29" y2="3"/>
<line style="fill:none;stroke:#000000;stroke-width:2;stroke-miterlimit:10;" x1="17" y1="15" x2="41" y2="15"/>
</svg>