<?xml version="1.0" encoding="iso-8859-1"?>
<!-- Generator: Adobe Illustrator 25.4.1, SVG Export Plug-In . SVG Version: 6.00 Build 0)  -->
<svg version="1.1" baseProfile="basic" id="Layer_1"
	 xmlns="http://www.w3.org/2000/svg" xmlns:xlink="http://www.w3.org/1999/xlink" x="0px" y="0px" viewBox="0 0 100 100"
	 xml:space="preserve">
<line style="fill:none;stroke:#000000;stroke-width:2;stroke-linecap:round;stroke-linejoin:round;stroke-miterlimit:10;" x1="44.567" y1="72.08" x2="48.812" y2="70.322"/>
<line style="fill:none;stroke:#000000;stroke-width:2;stroke-linecap:round;stroke-linejoin:round;stroke-miterlimit:10;" x1="41.699" y1="17.237" x2="45.945" y2="15.479"/>
<line style="fill:none;stroke:#000000;stroke-width:2;stroke-linecap:round;stroke-linejoin:round;stroke-miterlimit:10;" x1="43.963" y1="77.475" x2="47.744" y2="75.213"/>
<line style="fill:none;stroke:#000000;stroke-width:2;stroke-linecap:round;stroke-linejoin:round;stroke-miterlimit:10;" x1="44.452" y1="81.531" x2="48.287" y2="79.338"/>
<line style="fill:none;stroke:#000000;stroke-width:2;stroke-linecap:round;stroke-linejoin:round;stroke-miterlimit:10;" x1="42.448" y1="36.951" x2="44.68" y2="34.331"/>
<line style="fill:none;stroke:#000000;stroke-width:2;stroke-linecap:round;stroke-linejoin:round;stroke-miterlimit:10;" x1="32.933" y1="35.959" x2="34.763" y2="33.696"/>
<line style="fill:none;stroke:#000000;stroke-width:2;stroke-linecap:round;stroke-linejoin:round;stroke-miterlimit:10;" x1="28.11" y1="35.298" x2="30.753" y2="33.035"/>
<line style="fill:none;stroke:#000000;stroke-width:2;stroke-linecap:round;stroke-linejoin:round;stroke-miterlimit:10;" x1="26.088" y1="32.331" x2="28.819" y2="30.521"/>
<line style="fill:none;stroke:#000000;stroke-width:2;stroke-linecap:round;stroke-linejoin:round;stroke-miterlimit:10;" x1="37.336" y1="67.129" x2="38.579" y2="63.91"/>
<line style="fill:none;stroke:#000000;stroke-width:2;stroke-linecap:round;stroke-linejoin:round;stroke-miterlimit:10;" x1="33.318" y1="68.138" x2="34.754" y2="64.675"/>
<line style="fill:none;stroke:#000000;stroke-width:2;stroke-linecap:round;stroke-linejoin:round;stroke-miterlimit:10;" x1="27.892" y1="69.331" x2="29.047" y2="65.737"/>
<line style="fill:none;stroke:#000000;stroke-width:2;stroke-linecap:round;stroke-linejoin:round;stroke-miterlimit:10;" x1="21.545" y1="68.199" x2="24.827" y2="65.136"/>
<line style="fill:none;stroke:#000000;stroke-width:2;stroke-linecap:round;stroke-linejoin:round;stroke-miterlimit:10;" x1="18.149" y1="66.755" x2="20.749" y2="64.179"/>
<line style="fill:none;stroke:#000000;stroke-width:2;stroke-linecap:round;stroke-linejoin:round;stroke-miterlimit:10;" x1="58.519" y1="62.796" x2="60.497" y2="59.324"/>
<line style="fill:none;stroke:#000000;stroke-width:2;stroke-linecap:round;stroke-linejoin:round;stroke-miterlimit:10;" x1="54.711" y1="63.77" x2="56.559" y2="60.306"/>
<line style="fill:none;stroke:#000000;stroke-width:2;stroke-linecap:round;stroke-linejoin:round;stroke-miterlimit:10;" x1="63.324" y1="50.021" x2="61.329" y2="53.354"/>
<line style="fill:none;stroke:#000000;stroke-width:2;stroke-linecap:round;stroke-linejoin:round;stroke-miterlimit:10;" x1="59.552" y1="50.195" x2="58.318" y2="53.754"/>
<path style="fill:none;stroke:#000000;stroke-width:4;stroke-linecap:round;stroke-linejoin:round;stroke-miterlimit:10;" d="
	M52.374,21.323c0,0,1.846-8.938-3.37-10.225s-8.351,0.6-8.447,3.02c-0.096,2.42,0.333,7.057,0.333,7.057"/>
<path style="fill:none;stroke:#000000;stroke-width:4;stroke-linecap:round;stroke-linejoin:round;stroke-miterlimit:10;" d="
	M19.645,91.067c0,0,14.645-1.888,23.328-1.897c8.683-0.009,17.07-0.358,22.523-0.184s15.143,0.174,15.143,0.174"/>
<polygon style="fill:none;stroke:#000000;stroke-width:4;stroke-linecap:round;stroke-linejoin:round;stroke-miterlimit:10;" points="
	9.982,64.162 24.836,70.444 69.819,61.412 66.31,48.924 25.221,52.179 "/>
<polygon style="fill:none;stroke:#000000;stroke-width:4;stroke-linecap:round;stroke-linejoin:round;stroke-miterlimit:10;" points="
	24.573,20.713 25.247,36.272 72.231,40.719 81.952,35.706 73.625,23.142 "/>
<line style="fill:none;stroke:#000000;stroke-width:2;stroke-linecap:round;stroke-linejoin:round;stroke-miterlimit:10;" x1="38.059" y1="37.485" x2="39.682" y2="34.331"/>
<line style="fill:none;stroke:#000000;stroke-width:4;stroke-linecap:round;stroke-linejoin:round;stroke-miterlimit:10;" x1="43.927" y1="88.779" x2="43.524" y2="68.095"/>
<line style="fill:none;stroke:#000000;stroke-width:4;stroke-linecap:round;stroke-linejoin:round;stroke-miterlimit:10;" x1="54.965" y1="88.483" x2="54.081" y2="65.363"/>
<line style="fill:none;stroke:#000000;stroke-width:4;stroke-linecap:round;stroke-linejoin:round;stroke-miterlimit:10;" x1="52.681" y1="49.342" x2="52.295" y2="39.118"/>
<line style="fill:none;stroke:#000000;stroke-width:4;stroke-linecap:round;stroke-linejoin:round;stroke-miterlimit:10;" x1="42.229" y1="50.57" x2="41.775" y2="38.726"/>
<path style="fill:none;stroke:#000000;stroke-width:2;stroke-linecap:round;stroke-linejoin:round;stroke-miterlimit:10;" d="
	M38.141,30.651c0,0,1.575,1.602,4.77-0.27c3.087-1.808,2.277-0.192,5.646,1.052c3.369,1.245,3.693,1.045,6.022-0.617
	c2.329-1.662,4.211-1.28,5.725,0.966c1.514,2.245,2.538,1.34,4.499,1.331"/>
<path style="fill:none;stroke:#000000;stroke-width:2;stroke-linecap:round;stroke-linejoin:round;stroke-miterlimit:10;" d="
	M29.572,60.724c0,0,2.451,1.888,4.963,0.583c2.512-1.306,4.367-3.663,6.634-3.176c2.267,0.487,0.359,2.045,3.143,1.262
	s7.265-3.263,7.265-3.263"/>
<line style="fill:none;stroke:#000000;stroke-width:2;stroke-linecap:round;stroke-linejoin:round;stroke-miterlimit:10;" x1="56.243" y1="49.752" x2="55.202" y2="52.963"/>
<line style="fill:none;stroke:#000000;stroke-width:2;stroke-linecap:round;stroke-linejoin:round;stroke-miterlimit:10;" x1="75.92" y1="27.074" x2="67.789" y2="28.554"/>
<line style="fill:none;stroke:#000000;stroke-width:2;stroke-linecap:round;stroke-linejoin:round;stroke-miterlimit:10;" x1="77.908" y1="30.155" x2="72.2" y2="30.764"/>
<line style="fill:none;stroke:#000000;stroke-width:2;stroke-linecap:round;stroke-linejoin:round;stroke-miterlimit:10;" x1="22.963" y1="54.955" x2="26.438" y2="56.617"/>
<line style="fill:none;stroke:#000000;stroke-width:2;stroke-linecap:round;stroke-linejoin:round;stroke-miterlimit:10;" x1="47.63" y1="22.915" x2="49.153" y2="25.726"/>
<line style="fill:none;stroke:#000000;stroke-width:2;stroke-linecap:round;stroke-linejoin:round;stroke-miterlimit:10;" x1="43.945" y1="22.593" x2="45.538" y2="25.995"/>
<line style="fill:none;stroke:#000000;stroke-width:2;stroke-linecap:round;stroke-linejoin:round;stroke-miterlimit:10;" x1="43.656" y1="85.524" x2="47.63" y2="83.323"/>
<line style="fill:none;stroke:#000000;stroke-width:2;stroke-linecap:round;stroke-linejoin:round;stroke-miterlimit:10;" x1="51.735" y1="43.721" x2="47.096" y2="42.738"/>
<line style="fill:none;stroke:#000000;stroke-width:2;stroke-linecap:round;stroke-linejoin:round;stroke-miterlimit:10;" x1="51.35" y1="46.253" x2="47.131" y2="46.453"/>
<path style="fill-rule:evenodd;clip-rule:evenodd;" d="M69.883,32.987c0.476,0.279,0.637,0.892,0.358,1.368
	c-0.279,0.476-0.892,0.637-1.368,0.358c-0.476-0.279-0.637-0.892-0.358-1.368C68.794,32.869,69.407,32.709,69.883,32.987z"/>
<path style="fill-rule:evenodd;clip-rule:evenodd;" d="M63.945,27.549c0.476,0.279,0.637,0.892,0.359,1.368
	c-0.279,0.476-0.892,0.637-1.368,0.359c-0.477-0.279-0.637-0.892-0.359-1.368C62.856,27.43,63.469,27.27,63.945,27.549z"/>
<path style="fill-rule:evenodd;clip-rule:evenodd;" d="M63.948,55.792c0.477,0.279,0.637,0.892,0.358,1.368
	c-0.278,0.477-0.891,0.637-1.368,0.359c-0.476-0.278-0.637-0.891-0.359-1.368C62.858,55.674,63.471,55.513,63.948,55.792z"/>
</svg>