<?xml version="1.0" encoding="iso-8859-1"?>
<!-- Generator: Adobe Illustrator 25.2.3, SVG Export Plug-In . SVG Version: 6.00 Build 0)  -->
<svg version="1.1" baseProfile="basic" id="Layer_1"
	 xmlns="http://www.w3.org/2000/svg" xmlns:xlink="http://www.w3.org/1999/xlink" x="0px" y="0px" viewBox="0 0 32 32"
	 xml:space="preserve">
<path d="M15,4.899l0,20.523c0,0.184-0.096,0.354-0.257,0.442C12.512,27.09,9.587,27.98,7.2,27.98c-1.51,0-2.8-0.35-3.57-1.2
	c-1.67-1.87,0.85-8.05,2.01-10.62c0.793-1.774,4.579-9.75,8.634-11.716C14.61,4.282,15,4.526,15,4.899z"/>
<path d="M28.46,26.75c-2.025,2.123-7.436,1.27-11.21-0.893C17.094,25.767,17,25.598,17,25.417l0-20.531
	c0-0.372,0.389-0.617,0.724-0.455c3.958,1.917,7.745,9.765,8.546,11.509C27.48,18.55,30.1,24.84,28.46,26.75z"/>
</svg>