<?xml version="1.0" encoding="iso-8859-1"?><!-- Generator: Adobe Illustrator 21.1.0, SVG Export Plug-In . SVG Version: 6.00 Build 0)  --><svg xmlns="http://www.w3.org/2000/svg" xmlns:xlink="http://www.w3.org/1999/xlink" viewBox="0 0 50 50" width="500px" height="500px"><circle style="fill:none;stroke:#000000;stroke-width:2;stroke-miterlimit:10;" cx="25" cy="25" r="22"/><path d="M25,6c3.067,0,5.956,0.747,8.523,2.043H16.477C19.044,6.747,21.933,6,25,6z M13.324,10.043h23.353c2.071,1.62,3.806,3.648,5.061,5.979H8.263C9.518,13.691,11.253,11.663,13.324,10.043z M7.345,18.021h35.31c0.741,1.867,1.184,3.878,1.294,5.979H6.051C6.161,21.899,6.604,19.889,7.345,18.021z M25,44c-3.067,0-5.956-0.747-8.523-2.043h17.047C30.956,43.253,28.067,44,25,44z M36.676,39.957H13.324c-2.071-1.62-3.806-3.648-5.061-5.979h33.475C40.482,36.309,38.747,38.337,36.676,39.957z M42.655,31.979H7.345C6.604,30.111,6.161,28.101,6.051,26h37.899C43.839,28.101,43.396,30.111,42.655,31.979z"/></svg>