<?xml version="1.0" encoding="iso-8859-1"?>
<!-- Generator: Adobe Illustrator 22.1.0, SVG Export Plug-In . SVG Version: 6.00 Build 0)  -->
<svg version="1.1" id="Layer_1" xmlns="http://www.w3.org/2000/svg" xmlns:xlink="http://www.w3.org/1999/xlink" x="0px" y="0px"
	 viewBox="0 0 100 100" style="enable-background:new 0 0 100 100;" xml:space="preserve">
<path style="fill:none;stroke:#000000;stroke-linejoin:round;stroke-miterlimit:10;" d="M73.5,35.5c0-7.18-5.82-13-13-13v4
	c4.971,0,9,4.029,9,9H73.5z"/>
<path style="fill:none;stroke:#000000;stroke-linejoin:round;stroke-miterlimit:10;" d="M82.5,35.5c0-12.15-9.85-22-22-22v4
	c9.941,0,18,8.059,18,18H82.5z"/>
<line style="fill:none;stroke:#000000;stroke-linecap:round;stroke-linejoin:round;stroke-miterlimit:10;" x1="20.5" y1="79.5" x2="30.5" y2="79.5"/>
<line style="fill:none;stroke:#000000;stroke-linecap:round;stroke-linejoin:round;stroke-miterlimit:10;" x1="37.5" y1="79.5" x2="40" y2="79.5"/>
<line style="fill:none;stroke:#000000;stroke-linecap:round;stroke-linejoin:round;stroke-miterlimit:10;" x1="33.5" y1="79.5" x2="34.5" y2="79.5"/>
<circle style="fill:none;stroke:#000000;stroke-width:2;stroke-miterlimit:10;" cx="60.5" cy="35.5" r="3.5"/>
<path style="fill:none;stroke:#000000;stroke-width:2;stroke-linejoin:round;stroke-miterlimit:10;" d="M30.436,20
	c-12.582,12.582-12.582,32.981,0,45.564c12.582,12.582,32.981,12.582,45.564,0L30.436,20z"/>
<path style="fill:none;stroke:#000000;stroke-width:2;stroke-linejoin:round;stroke-miterlimit:10;" d="M41,79h-1v-6.834
	c-3.467-1.559-6.716-3.755-9.564-6.602c-0.067-0.067-0.129-0.138-0.196-0.206L21.667,79H21c-1.657,0-3,1.343-3,3v4h26v-4
	C44,80.343,42.657,79,41,79z"/>
<path style="fill:none;stroke:#000000;stroke-linecap:round;stroke-miterlimit:10;" d="M52.5,70.453
	c1.001,0.026,2.002,0.009,3-0.073"/>
<path style="fill:none;stroke:#000000;stroke-linecap:round;stroke-miterlimit:10;" d="M26.021,37.5
	c-0.331,1.724-0.521,3.488-0.521,5.282c0,7.403,2.883,14.364,8.119,19.6c4.201,4.201,9.428,6.761,14.881,7.695"/>
<path style="fill:none;stroke:#000000;stroke-linecap:round;stroke-miterlimit:10;" d="M57.5,70.134
	c0.334-0.052,0.668-0.098,1-0.162"/>
<line style="fill:none;stroke:#000000;stroke-linecap:round;stroke-miterlimit:10;" x1="60.5" y1="38.5" x2="60.5" y2="49.5"/>
<line style="fill:none;stroke:#000000;stroke-linecap:round;stroke-miterlimit:10;" x1="46.5" y1="35.5" x2="57.5" y2="35.5"/>
</svg>