<?xml version="1.0" encoding="iso-8859-1"?>
<!-- Generator: Adobe Illustrator 18.0.0, SVG Export Plug-In . SVG Version: 6.00 Build 0)  -->
<!DOCTYPE svg PUBLIC "-//W3C//DTD SVG 1.1//EN" "http://www.w3.org/Graphics/SVG/1.1/DTD/svg11.dtd">
<svg version="1.1" id="Layer_1" xmlns="http://www.w3.org/2000/svg" xmlns:xlink="http://www.w3.org/1999/xlink" x="0px" y="0px"
	 width="50px" height="50px" viewBox="0 0 50 50" style="enable-background:new 0 0 50 50;" xml:space="preserve">
<path d="M25.559,10c-3.598,0-5.416,2.209-5.559,4.973h2.194c0.139-1.828,1.346-2.984,3.277-2.984c1.909,0,3.16,1.163,3.16,2.75
	c0,1.371-0.592,2.19-2.077,3.101c-1.752,1.05-2.56,2.201-2.545,3.891v1.17h2.223v-0.819c0-1.346,0.483-2.084,2.106-3.043
	C29.976,18.053,31,16.63,31,14.622C31,11.986,28.784,10,25.559,10z M25.295,25.271c-1.035,0-1.785,0.735-1.785,1.785
	c0,1.035,0.746,1.785,1.785,1.785c1.039,0,1.755-0.75,1.755-1.785C27.051,26.006,26.33,25.271,25.295,25.271z"/>
<path d="M25,2c-7.168,0-13,5.832-13,13c0,5.078,3.105,11.348,6.141,16.492c3.031,5.145,6.063,9.117,6.063,9.117L25,41.645
	l0.797-1.035c0,0,3.031-3.973,6.063-9.117C34.895,26.348,38,20.078,38,15C38,7.832,32.168,2,25,2z M25,4c6.086,0,11,4.914,11,11
	c0,4.215-2.895,10.445-5.859,15.477c-2.57,4.355-4.496,6.863-5.141,7.723c-0.645-0.859-2.57-3.367-5.141-7.723
	C16.895,25.445,14,19.215,14,15C14,8.914,18.914,4,25,4z M7.297,32L1.578,48h46.844l-5.719-16h-7.652
	c-0.391,0.688-0.781,1.355-1.172,2h7.418l4.281,12H4.422l4.281-12h7.418c-0.391-0.645-0.781-1.313-1.172-2H7.297z"/>
</svg>