<?xml version="1.0" encoding="iso-8859-1"?>
<!-- Generator: Adobe Illustrator 27.0.0, SVG Export Plug-In . SVG Version: 6.00 Build 0)  -->
<svg version="1.1" baseProfile="basic" xmlns="http://www.w3.org/2000/svg" xmlns:xlink="http://www.w3.org/1999/xlink" x="0px"
	 y="0px" viewBox="0 0 64 64" xml:space="preserve">
<g id="Layer_1">
	<path d="M26.93,51.72L30,64h4l3.11-12.46C47.87,49.4,56,39.88,56,28.5C56,15.89,45.48,5.54,33,5h-2.5C17.54,5,7,15.54,7,28.5
		C7,40.12,15.61,49.99,26.93,51.72z M33.5,9.03c0.01,0,0.01,0,0.02,0C43.8,9.56,52,18.09,52,28.5c0,8.76-5.82,16.2-13.79,18.64
		c-1.34,0.42-2.74,0.69-4.19,0.79L33,51.99l-1.01,4.05l-2.18-8.61c-1.55-0.38-3.01-0.94-4.37-1.65C19.12,42.48,15,35.9,15,28.5
		C15,18.06,23.11,9.55,33.5,9.03z"/>
	<path d="M33,36c4.42,0,8-3.58,8-8c0-0.83-0.13-1.62-0.36-2.37C40.03,27.03,38.63,28,37,28c-2.21,0-4-1.79-4-4
		c0-1.63,0.97-3.03,2.37-3.64C34.62,20.13,33.83,20,33,20c-4.42,0-8,3.58-8,8C25,32.42,28.58,36,33,36z"/>
</g>
<g id="Layer_2">
</g>
<g id="Layer_3">
</g>
<g id="Layer_4">
</g>
</svg>