<?xml version="1.0" encoding="iso-8859-1"?><!-- Generator: Adobe Illustrator 22.0.1, SVG Export Plug-In . SVG Version: 6.00 Build 0)  --><svg xmlns="http://www.w3.org/2000/svg" xmlns:xlink="http://www.w3.org/1999/xlink" viewBox="0 0 50 50" width="500px" height="500px"><g></g><rect x="5" y="5" style="fill:none;stroke:#000000;stroke-width:2;stroke-linejoin:round;stroke-miterlimit:10;" width="40" height="40"/><line style="fill:none;stroke:#000000;stroke-width:2;stroke-linejoin:round;stroke-miterlimit:10;" x1="45" y1="5" x2="5" y2="45"/><circle cx="29" cy="26" r="1"/><circle cx="23" cy="32" r="1"/><circle cx="29" cy="32" r="1"/><circle cx="26" cy="29" r="1"/><circle cx="17" cy="38" r="1"/><circle cx="23" cy="38" r="1"/><circle cx="20" cy="35" r="1"/><circle cx="29" cy="38" r="1"/><circle cx="26" cy="35" r="1"/><circle cx="11" cy="44" r="1"/><circle cx="17" cy="44" r="1"/><circle cx="14" cy="41" r="1"/><circle cx="23" cy="44" r="1"/><circle cx="20" cy="41" r="1"/><circle cx="29" cy="44" r="1"/><circle cx="26" cy="41" r="1"/><circle cx="35" cy="20" r="1"/><circle cx="35" cy="26" r="1"/><circle cx="32" cy="23" r="1"/><circle cx="35" cy="32" r="1"/><circle cx="32" cy="29" r="1"/><circle cx="35" cy="38" r="1"/><circle cx="32" cy="35" r="1"/><circle cx="35" cy="44" r="1"/><circle cx="32" cy="41" r="1"/><circle cx="41" cy="14" r="1"/><circle cx="41" cy="20" r="1"/><circle cx="38" cy="17" r="1"/><circle cx="41" cy="26" r="1"/><circle cx="38" cy="23" r="1"/><circle cx="41" cy="32" r="1"/><circle cx="38" cy="29" r="1"/><circle cx="41" cy="38" r="1"/><circle cx="38" cy="35" r="1"/><circle cx="41" cy="44" r="1"/><circle cx="38" cy="41" r="1"/><circle cx="44" cy="11" r="1"/><circle cx="44" cy="17" r="1"/><circle cx="44" cy="23" r="1"/><circle cx="44" cy="29" r="1"/><circle cx="44" cy="35" r="1"/><circle cx="44" cy="41" r="1"/></svg>