<?xml version="1.0" encoding="utf-8"?><!-- Generator: Adobe Illustrator 21.0.2, SVG Export Plug-In . SVG Version: 6.00 Build 0)  --><svg xmlns="http://www.w3.org/2000/svg" xmlns:xlink="http://www.w3.org/1999/xlink" viewBox="0 0 50 50" width="500px" height="500px"><style type="text/css">.st0{fill:none;stroke:#000000;stroke-width:2;stroke-linecap:round;stroke-linejoin:round;stroke-miterlimit:10;}</style><g><path d="M46,25l-2-4l-0.9-5l-0.2-3.8c-1.5-2.1-3.3-3.9-5.4-5.3C31.9,3,24.5,2,18.1,4.1c-0.5,0.2-1.1,0.4-1.6,0.6L19,6.1L23,6l1.6,0.8l0.2-0.5l1.2,0.8l-0.1,0.3l0,0L27,8l1,1l1,1l2,2l-3,2l-4,4l0.5,1L23,18h-1l-3,1v5h1l2-1v2h2v1l2,1l2-1l4-0.1l1,1.1l2,1l1,1l3.5,1l0.5,2l-1,2l-1,3l-2,1l-8.9,7l0.9,1l-2-1l3-8l-0.7-1L26,35l-1-3v-2l1-1v-1.3L24,27l-1-1l-5-2l-2-1l-2-6v-4l1-2V8l-2.4-1.2c-3.9,2.7-7,6.6-8.5,11.1C1.9,24.4,3,32,7,37.6c3.8,5.6,10.4,9.2,17.2,9.4c7.2,0.3,14.4-3.1,18.6-9c2.8-3.7,4.3-8.4,4.3-13c0-0.3,0-0.6,0-0.9L46,25z M28.5,23.5l-3.2-1.3L26,22l3,1L28.5,23.5z M31,8l-3-2l-2-1h2l3,1V8z"/></g><path id="Shadow_sea_3_" class="st0" d="M47,25c0-7.1-3.6-14.2-9.6-18.1c-5.6-3.9-13-4.9-19.4-2.7C11.6,6.2,6.3,11.5,4.2,17.9C1.9,24.4,3,32,7,37.6c3.8,5.6,10.4,9.2,17.2,9.4c7.2,0.3,14.4-3.1,18.6-8.9C45.5,34.3,47,29.6,47,25z"/></svg>