<?xml version="1.0" encoding="iso-8859-1"?>
<!-- Generator: Adobe Illustrator 22.0.1, SVG Export Plug-In . SVG Version: 6.00 Build 0)  -->
<svg version="1.1" id="&#x421;&#x43B;&#x43E;&#x439;_2"
	 xmlns="http://www.w3.org/2000/svg" xmlns:xlink="http://www.w3.org/1999/xlink" x="0px" y="0px" viewBox="0 0 50 50"
	 style="enable-background:new 0 0 50 50;" xml:space="preserve">
<path d="M25,0C11.19,0,0,11.19,0,25s11.19,25,25,25s25-11.19,25-25S38.81,0,25,0z M25,48C12.32,48,2,37.68,2,25S12.32,2,25,2
	s23,10.32,23,23S37.68,48,25,48z"/>
<polygon points="13.66,25 25,22.72 25,27.28 "/>
<path d="M44,25c0-0.55,0.45-1,1-1h0.95C45.44,13.22,36.78,4.56,26,4.05V5c0,0.55-0.45,1-1,1s-1-0.45-1-1V4.05
	C13.22,4.56,4.56,13.22,4.05,24H5c0.55,0,1,0.45,1,1s-0.45,1-1,1H4.05C4.56,36.78,13.22,45.44,24,45.95V45c0-0.55,0.45-1,1-1
	s1,0.45,1,1v0.95C36.78,45.44,45.44,36.78,45.95,26H45C44.45,26,44,25.55,44,25z M41.61,25.98l-16.41,3.3
	c-0.07,0.02-0.13,0.02-0.2,0.02s-0.13,0-0.2-0.02l-16.41-3.3c-0.47-0.09-0.81-0.5-0.81-0.98c0-0.48,0.34-0.89,0.81-0.98l16.41-3.3
	c0.13-0.03,0.27-0.03,0.4,0l16.41,3.3c0.47,0.1,0.8,0.51,0.8,0.98C42.41,25.48,42.08,25.89,41.61,25.98z"/>
</svg>