<?xml version="1.0" encoding="iso-8859-1"?>
<!-- Generator: Adobe Illustrator 23.1.0, SVG Export Plug-In . SVG Version: 6.00 Build 0)  -->
<svg version="1.1" id="Layer_1" xmlns="http://www.w3.org/2000/svg" xmlns:xlink="http://www.w3.org/1999/xlink" x="0px" y="0px"
	 viewBox="0 0 50 50" style="enable-background:new 0 0 50 50;" xml:space="preserve">
<path d="M48.748,34.336L42.227,27H47c0.552,0,1-0.447,1-1V8c0-0.553-0.448-1-1-1H11c-0.286,0-0.558,0.122-0.748,0.336l-8,9
	c-0.336,0.379-0.336,0.949,0,1.328L8.773,25H4c-0.552,0-1,0.447-1,1v18c0,0.553,0.448,1,1,1h36c0.286,0,0.558-0.122,0.748-0.336l8-9
	C49.084,35.286,49.084,34.715,48.748,34.336z M25.009,35c-1.332,0-2.211-0.839-2.211-2.118c0-1.292,0.88-2.131,2.211-2.131
	c1.359,0,2.211,0.839,2.211,2.131C27.221,34.161,26.368,35,25.009,35z M28.646,24.864c-1.746,1.025-2.239,1.705-2.239,3.023v0.76
	h-3.089l-0.014-0.907c-0.119-1.998,0.653-3.197,2.491-4.276c1.652-0.997,2.211-1.705,2.211-3.023c0-1.384-1.12-2.384-2.798-2.384
	c-1.719,0-2.824,1.038-2.931,2.663h-3.13c0.107-3.156,2.278-5.448,6.235-5.448c3.649,0,6.087,2.104,6.087,5.049
	C31.47,22.359,30.457,23.784,28.646,24.864z"/>
</svg>