<?xml version="1.0" encoding="utf-8"?><!-- Generator: Adobe Illustrator 17.0.0, SVG Export Plug-In . SVG Version: 6.00 Build 0)  --><!DOCTYPE svg PUBLIC "-//W3C//DTD SVG 1.1//EN" "http://www.w3.org/Graphics/SVG/1.1/DTD/svg11.dtd"><svg xmlns="http://www.w3.org/2000/svg" xmlns:xlink="http://www.w3.org/1999/xlink" viewBox="0 0 50 50" width="500px" height="500px"><rect x="0" fill="none" width="50" height="50"/><circle fill="none" stroke="#000000" stroke-width="2" stroke-linecap="round" stroke-linejoin="round" stroke-miterlimit="10" cx="25" cy="6" r="5"/><path fill="none" stroke="#000000" stroke-width="2" stroke-linecap="round" stroke-linejoin="round" stroke-miterlimit="10" d="M25.026,14C16.569,14,16,18.409,16,19.4v9.8c0,0.991,0.809,1.8,1.8,1.8H20v12.333C20,44.251,20.749,45,21.667,45h6.667C29.251,45,30,44.251,30,43.333V31h2.2c0.991,0,1.8-0.809,1.8-1.8v-9.8C34,18.409,33.484,14,25.026,14z"/><line fill="none" stroke="#000000" stroke-width="2" stroke-linecap="round" stroke-linejoin="round" stroke-miterlimit="10" x1="30" y1="31" x2="30" y2="22"/><line fill="none" stroke="#000000" stroke-width="2" stroke-linecap="round" stroke-linejoin="round" stroke-miterlimit="10" x1="20" y1="31" x2="20" y2="22"/><path fill="none" stroke="#000000" stroke-width="2" stroke-linecap="round" stroke-linejoin="round" stroke-miterlimit="10" d="M17,37.563C10.509,38.518,6,40.591,6,43c0,3.312,8.504,6,19,6s19-2.688,19-6c0-2.409-4.509-4.482-11-5.437"/></svg>