<?xml version="1.0" encoding="utf-8"?><!-- Generator: Adobe Illustrator 21.1.0, SVG Export Plug-In . SVG Version: 6.00 Build 0)  --><svg xmlns="http://www.w3.org/2000/svg" xmlns:xlink="http://www.w3.org/1999/xlink" viewBox="0 0 128 128" width="512px" height="512px"><g><path d="M13.9,93.7L13.9,93.7c1,1.1,2,2.1,3,3l18.7,18.4c1.2,1.2,3.1,1.1,4.2,0c1.2-1.2,1.1-3.1,0-4.2L21.1,92.4c0,0-0.1-0.1-0.1-0.1c-0.9-0.8-1.8-1.7-2.6-2.6c0,0-0.1-0.1-0.1-0.1c0,0,0,0,0,0C11,81.8,7,71.6,7,61c0-23.2,18.8-42,42-42s42,18.8,42,42c0,10.6-4,20.8-11.2,28.6c0,0,0,0-0.1,0.1l0,0c0,0-0.1,0.1-0.1,0.1c-0.8,0.9-1.7,1.7-2.6,2.5c0,0-0.1,0.1-0.1,0.1l-30.1,29.5c-1.2,1.2-1.2,3.1,0,4.2c0.6,0.6,1.4,0.9,2.1,0.9c0.8,0,1.6-0.3,2.1-0.9c0.5-0.5,3.8-3.7,4.9-4.8v2.7c0,1.7,1.3,3,3,3h5c1.7,0,3-1.3,3-3v-7h2h36h2v7c0,1.7,1.3,3,3,3h4c1.7,0,3-1.3,3-3v-7h2h3c1.7,0,3-1.3,3-3s-1.3-3-3-3v-10c0-4.6-3.1-8.4-7.3-9.6L113,77.5c-0.8-6.5-6.3-11.5-12.9-11.5h-3.4c0.2-1.7,0.3-3.3,0.3-5c0-26.5-21.5-48-48-48S1,34.5,1,61c0,12.1,4.5,23.6,12.7,32.5C13.7,93.6,13.8,93.7,13.9,93.7z M95,109c0,1.1-0.9,2-2,2H81c-1.1,0-2-0.9-2-2v-7c0-1.9,0.6-3.6,1.7-4.9l0.4-0.4c0.4-0.4,0.8-0.8,1.3-1.2c1.3-0.9,2.9-1.5,4.6-1.5c4.4,0,8,3.6,8,8V109z M112,97c2.2,0,4,1.8,4,4c0,2.2-1.8,4-4,4s-4-1.8-4-4C108,98.8,109.8,97,112,97z M100.1,72c3.5,0,6.5,2.7,7,6.2l0.9,7.8c-0.3,0-0.5-0.1-0.8-0.1c-5.4-0.8-10.9-1.3-16.4-1.4c2.2-3.9,3.8-8.1,4.9-12.5H100.1z"/><path d="M74,61c0-13.8-11.2-25-25-25S24,47.2,24,61c0,13.8,11.2,25,25,25S74,74.8,74,61z M34,63V53h10v10h10V53h10v10H54v10H44V63H34z"/></g></svg>