<?xml version="1.0" encoding="utf-8"?><!-- Generator: Adobe Illustrator 15.0.0, SVG Export Plug-In . SVG Version: 6.00 Build 0)  --><!DOCTYPE svg PUBLIC "-//W3C//DTD SVG 1.1//EN" "http://www.w3.org/Graphics/SVG/1.1/DTD/svg11.dtd"><svg xmlns="http://www.w3.org/2000/svg" xmlns:xlink="http://www.w3.org/1999/xlink" viewBox="0 0 50 50" width="500px" height="500px"><path fill="none" stroke="#000000" stroke-width="2" stroke-linecap="round" stroke-linejoin="round" stroke-miterlimit="10" d="M13.923,49C6.786,49,1,43.214,1,36.077"/><path fill="none" stroke="#000000" stroke-width="2" stroke-linecap="round" stroke-linejoin="round" stroke-miterlimit="10" d="M13.923,41.615c-3.059,0-5.538-2.48-5.538-5.538"/><path d="M31.45,30.391c-0.256,0-0.512-0.098-0.707-0.293L19.902,19.257c-0.188-0.188-0.293-0.442-0.293-0.707s0.105-0.52,0.293-0.707c4.12-4.12,11.956-11.956,12.12-12.122c1.359-1.359,3.693-1.352,5.037-0.008l7.228,7.228c0.672,0.671,1.042,1.564,1.042,2.514s-0.37,1.843-1.042,2.514c-0.145,0.144-12.129,12.128-12.129,12.128C31.962,30.293,31.706,30.391,31.45,30.391z"/><path d="M49.707,25.59L44.6,20.484c-2.127,2.126-6.824,6.824-9.348,9.347l5.107,5.106c0.195,0.195,0.451,0.293,0.707,0.293s0.512-0.098,0.707-0.293l7.934-7.934C49.895,26.816,50,26.563,50,26.297S49.895,25.777,49.707,25.59z"/><path d="M29.516,5.399L24.41,0.293C24.223,0.105,23.968,0,23.703,0s-0.52,0.105-0.707,0.293l-7.934,7.933c-0.188,0.188-0.293,0.442-0.293,0.707s0.105,0.52,0.293,0.707l5.107,5.107C23.294,11.622,27.544,7.373,29.516,5.399z"/><path fill="none" stroke="#000000" stroke-width="2" stroke-linecap="round" stroke-linejoin="round" stroke-miterlimit="10" d="M17.372,22.24c1.275-1.275,5.405-1.521,8.657,1.731c3.252,3.251,3.006,7.382,1.73,8.657L17.372,22.24z"/><path d="M22.555,31c-0.95,0-1.843-0.369-2.514-1.041C19.369,29.287,19,28.395,19,27.445c0-0.95,0.37-1.843,1.042-2.514c0.39-0.39,1.023-0.39,1.414,0l3.614,3.613c0.391,0.391,0.391,1.023,0,1.414C24.398,30.631,23.505,31,22.555,31z"/></svg>