<?xml version="1.0" encoding="iso-8859-1"?>
<!-- Generator: Adobe Illustrator 26.0.1, SVG Export Plug-In . SVG Version: 6.00 Build 0)  -->
<svg version="1.1" id="Layer_1" xmlns="http://www.w3.org/2000/svg" xmlns:xlink="http://www.w3.org/1999/xlink" x="0px" y="0px"
	 viewBox="0 0 64 64" style="enable-background:new 0 0 64 64;" xml:space="preserve">
<path style="fill:none;stroke:#000000;stroke-width:2;stroke-linecap:round;stroke-linejoin:round;stroke-miterlimit:10;" d="
	M28.346,50.901c-7.508,0.075-10.02,1.008-10.02,2.29c0,1.337,6.716,2.421,15,2.421s15-1.084,15-2.421
	c0-1.337-6.634-2.421-14.919-2.421l-0.034-0.058c0,0-7.955-11.61-11.364-21.699c-2.515-7.444,6.406-13.653,11.145-13.737
	c2.729-0.048,5.697,1.771,5.697,5.984c0,4.117-4.021,5.122-5.553,5.122c-7.644,0-14.952-10.112-9.203-15.985
	c2.364-2.415,5.723-3.789,9.371-3.789c7.506,0,13.59,6.085,13.59,13.59c0,5.776-6.63,18.296-10.66,25.372"/>
</svg>