<?xml version="1.0" encoding="iso-8859-1"?>
<!-- Generator: Adobe Illustrator 25.2.3, SVG Export Plug-In . SVG Version: 6.00 Build 0)  -->
<svg version="1.1" baseProfile="basic" xmlns="http://www.w3.org/2000/svg" xmlns:xlink="http://www.w3.org/1999/xlink" x="0px"
	 y="0px" viewBox="0 0 50 50" xml:space="preserve">
<path style="fill:none;stroke:#000000;stroke-width:2;stroke-linecap:round;stroke-linejoin:round;stroke-miterlimit:10;" d="M40,17
	c0,8.284-15,30-15,30S10,25.284,10,17S16.716,2,25,2S40,8.716,40,17z"/>
<path style="fill:none;stroke:#000000;stroke-width:2;stroke-linejoin:round;stroke-miterlimit:10;" d="M22.709,18
	c0.28-1.02,0.62-2.77,0.62-4.5c0-2.44-0.68-4.88-0.88-5.29V8c0,0,5.55,2,7.11,6.78L24.129,18"/>
<path style="fill:none;stroke:#000000;stroke-width:2;stroke-linejoin:round;stroke-miterlimit:10;" d="M15.998,18c0,0,1.001,3,4,5
	H30c2.999-2,4-5,4-5H15.998z"/>
</svg>