<?xml version="1.0" encoding="iso-8859-1"?>
<!-- Generator: Adobe Illustrator 24.0.1, SVG Export Plug-In . SVG Version: 6.00 Build 0)  -->
<svg version="1.1" id="Layer_1" xmlns="http://www.w3.org/2000/svg" xmlns:xlink="http://www.w3.org/1999/xlink" x="0px" y="0px"
	 viewBox="0 0 32 32" style="enable-background:new 0 0 32 32;" xml:space="preserve">
<path style="fill:none;stroke:#000000;stroke-width:2;stroke-miterlimit:9.6;" d="M27,4c-2.209,0-4,1.792-4,4
	c0,2.634,4,7.556,4,7.556S31,10.721,31,8C31,5.792,29.21,4,27,4z"/>
<path d="M27,7c-0.552,0-1,0.448-1,1s0.448,1,1,1c0.552,0,1-0.448,1-1S27.553,7,27,7z"/>
<path style="fill:none;stroke:#000000;stroke-width:2;stroke-miterlimit:10;" d="M28,14v10H4V8h19"/>
<path style="fill:none;stroke:#000000;stroke-width:2;stroke-miterlimit:10;" d="M4,8l12,8l7.5-5"/>
</svg>