<?xml version="1.0" encoding="iso-8859-1"?>
<!-- Generator: Adobe Illustrator 26.0.3, SVG Export Plug-In . SVG Version: 6.00 Build 0)  -->
<svg version="1.1" baseProfile="basic" id="Layer_1"
	 xmlns="http://www.w3.org/2000/svg" xmlns:xlink="http://www.w3.org/1999/xlink" x="0px" y="0px" viewBox="0 0 64 64"
	 xml:space="preserve">
<path d="M35,17c0,3.91,1.77,7.58,3.9,10.58l-3.04,2.89c-2.17,2.06-5.55,2.05-7.72,0L11.79,14.94C12.72,14.34,13.82,14,15,14h20.32
	C35.11,14.97,35,15.97,35,17z"/>
<path d="M55,32.36V44c0,3.31-2.69,6-6,6H15c-3.31,0-6-2.69-6-6V20c0-1.05,0.27-2.03,0.73-2.88l16.35,15.53
	c1.66,1.57,3.79,2.36,5.92,2.36s4.26-0.79,5.92-2.36l2.84-2.7c2.36,2.76,4.66,4.61,5.17,5C46.8,35.63,47.89,36,49,36
	s2.2-0.37,3.07-1.05C52.41,34.69,53.56,33.77,55,32.36z"/>
<path d="M49,6c6.07,0,11,4.93,11,11c0,7.89-9.37,15.27-9.77,15.58C49.87,32.86,49.43,33,49,33s-0.87-0.14-1.23-0.42
	C47.37,32.27,38,24.89,38,17C38,10.93,42.93,6,49,6z M49,19c1.1,0,2-0.9,2-2c0-1.1-0.9-2-2-2s-2,0.9-2,2C47,18.1,47.9,19,49,19z"/>
</svg>