<?xml version="1.0" encoding="iso-8859-1"?>
<!-- Generator: Adobe Illustrator 26.0.3, SVG Export Plug-In . SVG Version: 6.00 Build 0)  -->
<svg version="1.1" baseProfile="basic" id="Layer_1"
	 xmlns="http://www.w3.org/2000/svg" xmlns:xlink="http://www.w3.org/1999/xlink" x="0px" y="0px" viewBox="0 0 50 50"
	 xml:space="preserve">
<path d="M44.73,24.76l-5.9,10.07c-1.87,3.2-5.34,5.19-9.05,5.19h-9.3l-2.54,4.72c-0.07,0.12-0.18,0.21-0.31,0.24
	C17.58,44.99,17.54,45,17.5,45c-0.09,0-0.19-0.03-0.27-0.08l-11-7c-0.19-0.12-0.27-0.35-0.21-0.57C6.07,37.2,10.98,21.98,24.57,26
	h5.45c1.62,0,3,1.35,3,3s-1.32,2.99-2.94,2.99H23.5c-0.27,0-0.5,0.22-0.5,0.5c0,0.28,0.23,0.51,0.5,0.51h6.58
	c2.17,0,3.93-1.8,3.93-4c0-0.45-0.07-0.88-0.21-1.28l4.08-6.92c0.61-1.05,1.64-1.72,2.76-1.91c0.88-0.15,1.81-0.01,2.64,0.47
	c0.91,0.53,1.57,1.38,1.84,2.4S45.25,23.85,44.73,24.76z"/>
<path d="M24.801,21.292c-1.668-2.234-2.55-4.928-2.55-7.792c0-2.861,0.88-5.553,2.545-7.786l0.801,0.598
	c-1.534,2.059-2.346,4.544-2.346,7.188c0,2.647,0.812,5.134,2.351,7.194L24.801,21.292z"/>
<path d="M25.95,21.292l-0.801-0.599c1.538-2.06,2.351-4.547,2.351-7.194c0-2.644-0.812-5.129-2.346-7.188l0.801-0.598
	C27.62,7.947,28.5,10.639,28.5,13.5C28.5,16.364,27.618,19.059,25.95,21.292z"/>
<path d="M25.5,21.5c-4.411,0-8-3.589-8-8s3.589-8,8-8s8,3.589,8,8S29.911,21.5,25.5,21.5z M25.5,6.5c-3.859,0-7,3.14-7,7
	s3.141,7,7,7s7-3.14,7-7S29.359,6.5,25.5,6.5z"/>
</svg>