<?xml version="1.0" encoding="utf-8"?><!-- Generator: Adobe Illustrator 18.1.1, SVG Export Plug-In . SVG Version: 6.00 Build 0)  --><svg xmlns="http://www.w3.org/2000/svg" xmlns:xlink="http://www.w3.org/1999/xlink" viewBox="0 0 50 50" width="500px" height="500px"><g><polygon points="34.2,30.2 13.7,40.2 12,47.6 35.2,36.1 "/><path d="M36.4,43.4l-12.3,6h12.6c0.3,0,0.5-0.1,0.7-0.3c0.2-0.2,0.2-0.5,0.2-0.8L36.4,43.4z"/></g><line fill="none" stroke="#000000" stroke-width="2" stroke-linecap="round" stroke-linejoin="round" stroke-miterlimit="10" x1="33" y1="9" x2="49" y2="4"/><line fill="none" stroke="#000000" stroke-width="2" stroke-linecap="round" stroke-linejoin="round" stroke-miterlimit="10" x1="49" y1="18" x2="33" y2="13"/><line fill="none" stroke="#000000" stroke-width="2" stroke-linecap="round" stroke-linejoin="round" stroke-miterlimit="10" x1="17" y1="9" x2="1" y2="4"/><line fill="none" stroke="#000000" stroke-width="2" stroke-linecap="round" stroke-linejoin="round" stroke-miterlimit="10" x1="1" y1="18" x2="17" y2="13"/><line fill="none" stroke="#000000" stroke-width="2" stroke-miterlimit="10" x1="19" y1="9" x2="19" y2="13"/><line fill="none" stroke="#000000" stroke-width="2" stroke-miterlimit="10" x1="31" y1="9" x2="31" y2="13"/><path d="M31.3,18H18.7c-1.5,0-2.7-1.2-2.7-2.7V13c0-0.6,0.4-1,1-1h16c0.6,0,1,0.4,1,1v2.3C34,16.8,32.8,18,31.3,18z"/><path d="M17.6,24.8L15.9,32l16.4-8.6l-1.5-5.5L17.6,24.8z"/><path d="M33,10H17c-0.6,0-1-0.4-1-1V6.9c0-1.3,1-2,1.8-2.5l0.3-0.2l6.4-4c0.3-0.2,0.7-0.2,1.1,0l6.6,4.2C33.1,4.9,34,5.5,34,6.9v2C34,9.6,33.6,10,33,10z"/><path fill="none" stroke="#000000" stroke-width="2" stroke-linecap="round" stroke-linejoin="round" stroke-miterlimit="10" d="M19.4,17L12,49h26l-7.4-32"/><g><line fill="none" stroke="#000000" stroke-width="2" stroke-linecap="round" stroke-linejoin="round" stroke-miterlimit="10" x1="12.3" y1="47.8" x2="35.1" y2="36.5"/><line fill="none" stroke="#000000" stroke-width="2" stroke-linecap="round" stroke-linejoin="round" stroke-miterlimit="10" x1="24" y1="49" x2="36.6" y2="42.8"/><line fill="none" stroke="#000000" stroke-width="2" stroke-linecap="round" stroke-linejoin="round" stroke-miterlimit="10" x1="14.1" y1="39.9" x2="33.6" y2="30.2"/><line fill="none" stroke="#000000" stroke-width="2" stroke-linecap="round" stroke-linejoin="round" stroke-miterlimit="10" x1="15.9" y1="32" x2="32.2" y2="23.9"/><line fill="none" stroke="#000000" stroke-width="2" stroke-linecap="round" stroke-linejoin="round" stroke-miterlimit="10" x1="17.8" y1="24" x2="30.7" y2="17.7"/></g></svg>