<?xml version="1.0" encoding="utf-8"?><!-- Generator: Adobe Illustrator 21.0.2, SVG Export Plug-In . SVG Version: 6.00 Build 0)  --><svg xmlns="http://www.w3.org/2000/svg" xmlns:xlink="http://www.w3.org/1999/xlink" viewBox="0 0 50 50" width="500px" height="500px"><style type="text/css">.st0{fill:none;stroke:#000000;stroke-width:2;stroke-linecap:round;stroke-miterlimit:10;}</style><circle class="st0" cx="25" cy="25" r="22"/><g><path d="M38,40l0.4-2.5l2.9-4.1l0.5-1.4l-0.8-1l-0.4-2.8l1.1-0.3l0.4-1.1l1.9-0.7l1.4,2.3l1,1.3c-0.1,0.4-0.2,0.8-0.3,1.2C46.7,29,47,27,47,25c0-2-0.3-3.9-0.8-5.7L45,21l-1,2l-2-1h-1l-1,3l-4-5.8l0-2.6l-2-3.3L33,13l-3-1V9h3l6,2l1.5-1.6C36.5,5.5,31.1,3,25,3c-6.4,0-12.2,2.8-16.3,7.2L13.9,9l2.1,1l8-2l2,1l-2,2l-1,3l-2-2l-2,1l1,1v2l-3,2l1,1l-1,4l-2,3l-2-3l-3,3l-2-3H7l-2,1l-2,2c0-0.3,0-0.6,0-1c0,12.2,9.8,22,22,22c6.8,0,12.9-3.1,17-8L38,40z M14.5,30l-1-3l2.1,2.4L14.5,30z M17.7,28h-1.1l-0.2-0.8l1.8-0.8l0.6,0.6L17.7,28z M27.6,36.3l-1.2,0.3l-2.1-2l-1.2-0.3l-2.4,1.1l-1-0.9l-0.3-3.4l4.1-2.8l1.8,2.1l1.2-1.7l1.6,2.8l0.9,1.9L27.6,36.3z"/></g></svg>