<?xml version="1.0" encoding="utf-8"?>
<!-- Generator: Adobe Illustrator 21.1.0, SVG Export Plug-In . SVG Version: 6.00 Build 0)  -->
<svg version="1.1" id="Layer_1" xmlns="http://www.w3.org/2000/svg" xmlns:xlink="http://www.w3.org/1999/xlink" x="0px" y="0px"
	 viewBox="0 0 128 128" style="enable-background:new 0 0 128 128;" xml:space="preserve">
<g>
	<path d="M122,64c0-8.8-1.9-17.2-5.7-25.1c-0.7-1.5-2.5-2.1-4-1.4c-1.5,0.7-2.1,2.5-1.4,4c3.4,7,5.1,14.6,5.1,22.5
		c0,28.7-23.3,52-52,52c-1.7,0-3,1.3-3,3s1.3,3,3,3C96,122,122,96,122,64z"/>
	<path d="M20.7,119.5c2.5,2.1,5.7,3.1,9.4,3.1c12.1,0,29.5-10.9,45.1-29.2c15.1-17.7,21.2-38.2,23.2-46.2c0.4-1.6-0.6-3.2-2.2-3.6
		c-1.6-0.4-3.2,0.6-3.6,2.2c-1.5,5.9-7.3,26.6-22,43.8c-19,22.3-39.2,31.1-46.1,25.3c-2.4-2-3.4-5.9-2.8-11.2
		c2.2,2.3,4.6,4.5,7.2,6.5c0.5,0.4,1.2,0.6,1.8,0.6c0.9,0,1.8-0.4,2.4-1.2c1-1.3,0.7-3.2-0.6-4.2c-3.9-3-7.3-6.4-10.2-10.2
		c-0.1-0.1-0.2-0.2-0.3-0.4C15.6,86.1,12,75.4,12,64c0-28.7,23.3-52,52-52c6,0,11.9,1,17.6,3c1.6,0.6,3.3-0.3,3.8-1.8
		c0.6-1.6-0.3-3.3-1.8-3.8C77.3,7.1,70.7,6,64,6C32,6,6,32,6,64c0,12.3,3.8,24,10.8,33.7l-0.3,1.5C14.5,108.5,15.9,115.5,20.7,119.5
		z"/>
	<path d="M105.1,32.1c0.6,0.6,1.4,0.9,2.1,0.9s1.5-0.3,2.1-0.9c1.2-1.2,1.2-3.1,0-4.2l-9.1-9.1V6c0-1.7-1.3-3-3-3s-3,1.3-3,3v12.8
		l-9.1,9.1c-1.2,1.2-1.2,3.1,0,4.2c0.6,0.6,1.4,0.9,2.1,0.9s1.5-0.3,2.1-0.9l4.9-4.9V35c0,0.8,0.3,1.6,0.9,2.1l2.5,2.5
		c0.6,0.6,1.4,0.9,2.1,0.9s1.5-0.3,2.1-0.9c1.2-1.2,1.2-3.1,0-4.2l-1.6-1.6v-6.5L105.1,32.1z"/>
</g>
</svg>