<?xml version="1.0" encoding="iso-8859-1"?><!-- Generator: Adobe Illustrator 23.0.2, SVG Export Plug-In . SVG Version: 6.00 Build 0)  --><svg xmlns="http://www.w3.org/2000/svg" xmlns:xlink="http://www.w3.org/1999/xlink" viewBox="0 0 24 24" width="480px" height="480px"><g><path d="M12,5c3.9,0,7,3.1,7,7s-3.1,7-7,7s-7-3.1-7-7S8.1,5,12,5 M12,3c-5,0-9,4-9,9s4,9,9,9s9-4,9-9S17,3,12,3L12,3z"/></g><line style="fill:none;stroke:#000000;stroke-width:2;stroke-linejoin:round;stroke-miterlimit:10;" x1="12" y1="1" x2="12" y2="4"/><line style="fill:none;stroke:#000000;stroke-width:2;stroke-linejoin:round;stroke-miterlimit:10;" x1="12" y1="20" x2="12" y2="23"/><line style="fill:none;stroke:#000000;stroke-width:2;stroke-linejoin:round;stroke-miterlimit:10;" x1="23" y1="12" x2="20" y2="12"/><line style="fill:none;stroke:#000000;stroke-width:2;stroke-linejoin:round;stroke-miterlimit:10;" x1="4" y1="12" x2="1" y2="12"/><line style="fill:none;stroke:#000000;stroke-width:2;stroke-miterlimit:10;" x1="15" y1="9" x2="9" y2="15"/><line style="fill:none;stroke:#000000;stroke-width:2;stroke-miterlimit:10;" x1="9" y1="9" x2="15" y2="15"/></svg>