<?xml version="1.0" encoding="iso-8859-1"?>
<!-- Generator: Adobe Illustrator 25.4.1, SVG Export Plug-In . SVG Version: 6.00 Build 0)  -->
<svg version="1.1" baseProfile="basic" id="Layer_1"
	 xmlns="http://www.w3.org/2000/svg" xmlns:xlink="http://www.w3.org/1999/xlink" x="0px" y="0px" viewBox="0 0 100 100"
	 xml:space="preserve">
<path style="fill:none;stroke:#000000;stroke-width:4;stroke-linecap:round;stroke-linejoin:round;stroke-miterlimit:10;" d="
	M93.17,29.051c-0.26,12.637-0.2,35.851,0.37,41.094c0.59,5.543-3.19,7.723-9.56,8.087c-14.83,0.848-49.085,0.803-67.404,0
	c-3.176-0.139-4.837,0.357-7.084-1.605c-2.248-1.962-3.09-4.086-2.903-6.854c0.524-7.744,0.633-33.867,0-42.732
	c-0.476-6.654,4.196-10.152,11.838-10.075c14.247,0.145,36.443,0.158,52.703,0.09"/>
<path style="fill:none;stroke:#000000;stroke-width:4;stroke-linecap:round;stroke-linejoin:round;stroke-miterlimit:10;" d="
	M83.83,41.341c0,0-12.1-14.844-12.17-22.102c-0.08-7.486,6.25-12.885,12.56-13.028c5.31-0.12,13.21,4.695,12.93,12.846
	C96.91,26.285,83.83,41.341,83.83,41.341z"/>
<line style="fill:none;stroke:#000000;stroke-width:2;stroke-linecap:round;stroke-linejoin:round;stroke-miterlimit:10;" x1="89" y1="15.152" x2="95.71" y2="11"/>
<line style="fill:none;stroke:#000000;stroke-width:2;stroke-linecap:round;stroke-linejoin:round;stroke-miterlimit:10;" x1="91.1" y1="18.621" x2="95.8" y2="16.362"/>
<path style="fill-rule:evenodd;clip-rule:evenodd;" d="M49.19,72.583c-0.32-0.449-0.22-1.074,0.23-1.395
	c0.45-0.322,1.07-0.219,1.39,0.23c0.32,0.448,0.22,1.074-0.23,1.395C50.13,73.135,49.51,73.032,49.19,72.583"/>
<path style="fill-rule:evenodd;clip-rule:evenodd;" d="M57.06,35.789c-0.32-0.449-0.22-1.074,0.23-1.395
	c0.45-0.322,1.08-0.219,1.4,0.23c0.32,0.448,0.22,1.074-0.23,1.395C58.01,36.341,57.38,36.238,57.06,35.789"/>
<path style="fill-rule:evenodd;clip-rule:evenodd;" d="M24.94,60.747c-0.322-0.449-0.219-1.074,0.23-1.395
	c0.449-0.322,1.074-0.219,1.395,0.23c0.322,0.448,0.219,1.074-0.23,1.395C25.887,61.299,25.262,61.196,24.94,60.747"/>
<line style="fill:none;stroke:#000000;stroke-width:2;stroke-linecap:round;stroke-linejoin:round;stroke-miterlimit:10;" x1="92.39" y1="63.198" x2="89.69" y2="60.29"/>
<line style="fill:none;stroke:#000000;stroke-width:2;stroke-linecap:round;stroke-linejoin:round;stroke-miterlimit:10;" x1="90.68" y1="52.699" x2="87.74" y2="52.001"/>
<line style="fill:none;stroke:#000000;stroke-width:2;stroke-linecap:round;stroke-linejoin:round;stroke-miterlimit:10;" x1="79.19" y1="77.198" x2="77.54" y2="74.842"/>
<line style="fill:none;stroke:#000000;stroke-width:2;stroke-linecap:round;stroke-linejoin:round;stroke-miterlimit:10;" x1="73.84" y1="79.056" x2="71.44" y2="75.456"/>
<line style="fill:none;stroke:#000000;stroke-width:2;stroke-linecap:round;stroke-linejoin:round;stroke-miterlimit:10;" x1="92.63" y1="68.57" x2="88.63" y2="66.673"/>
<line style="fill:none;stroke:#000000;stroke-width:2;stroke-linecap:round;stroke-linejoin:round;stroke-miterlimit:10;" x1="35.001" y1="78.125" x2="40" y2="72.125"/>
<line style="fill:none;stroke:#000000;stroke-width:2;stroke-linecap:round;stroke-linejoin:round;stroke-miterlimit:10;" x1="30.255" y1="78.166" x2="35.255" y2="72.166"/>
<line style="fill:none;stroke:#000000;stroke-width:2;stroke-linecap:round;stroke-linejoin:round;stroke-miterlimit:10;" x1="35" y1="17" x2="36" y2="21"/>
<line style="fill:none;stroke:#000000;stroke-width:2;stroke-linecap:round;stroke-linejoin:round;stroke-miterlimit:10;" x1="40" y1="17" x2="41" y2="21"/>
<line style="fill:none;stroke:#000000;stroke-width:2;stroke-linecap:round;stroke-linejoin:round;stroke-miterlimit:10;" x1="51" y1="18" x2="53" y2="21"/>
<line style="fill:none;stroke:#000000;stroke-width:2;stroke-linecap:round;stroke-linejoin:round;stroke-miterlimit:10;" x1="18" y1="17" x2="19" y2="20"/>
<polyline style="fill:none;stroke:#000000;stroke-width:2;stroke-linecap:round;stroke-linejoin:round;stroke-miterlimit:10;" points="
	6.556,28.932 50,51.23 78.7,38.013 "/>
</svg>