<?xml version="1.0" encoding="iso-8859-1"?><!-- Generator: Adobe Illustrator 19.1.1, SVG Export Plug-In . SVG Version: 6.00 Build 0)  --><svg xmlns="http://www.w3.org/2000/svg" xmlns:xlink="http://www.w3.org/1999/xlink" viewBox="0 0 50 50" width="500px" height="500px"><path d="M12,2C6.486,2,2,6.486,2,12c0,6.309,8.85,17.175,9.227,17.634l0.771,0.94l0.773-0.938C13.148,29.18,22,18.375,22,12C22,6.486,17.514,2,12,2z M12,15c-1.657,0-3-1.344-3-3s1.343-3,3-3s3,1.344,3,3S13.657,15,12,15z"/><path d="M38,20c-5.514,0-10,4.486-10,10c0,6.211,8.848,17.167,9.224,17.631l0.77,0.946l0.777-0.939C39.147,47.182,48,36.408,48,30C48,24.486,43.514,20,38,20z M38,33c-1.657,0-3-1.344-3-3s1.343-3,3-3s3,1.344,3,3S39.657,33,38,33z"/></svg>