<?xml version="1.0" encoding="iso-8859-1"?>
<!-- Generator: Adobe Illustrator 24.0.0, SVG Export Plug-In . SVG Version: 6.00 Build 0)  -->
<svg version="1.1" id="Layer_1" xmlns="http://www.w3.org/2000/svg" xmlns:xlink="http://www.w3.org/1999/xlink" x="0px" y="0px"
	 viewBox="0 0 64 64" style="enable-background:new 0 0 64 64;" xml:space="preserve">
<path style="fill:none;stroke:#000000;stroke-width:2;stroke-linecap:round;stroke-linejoin:round;stroke-miterlimit:10;" d="M38,3
	c11.64,0,21,9.36,21,21 M38,19c-2.209,0-4,1.791-4,4s1.791,4,4,4s4-1.791,4-4S40.209,19,38,19z M12.786,14
	c-4.469,4.584-11.232,18.455,1.812,31.723C26.555,57.906,41.41,52.116,46,47.532L12.786,14z M36,27l-2,8 M26,26l8-2"/>
<path style="fill:none;stroke:#000000;stroke-width:2;stroke-linecap:round;stroke-linejoin:round;stroke-miterlimit:10;" d="M21,55
	h2v-3 M15,55h2 M14,47l-8,8h5"/>
<g>
	<g>
		<g>
			<path d="M42.103,13.718c-0.114,0-0.229-0.02-0.343-0.061c-0.519-0.189-0.786-0.763-0.597-1.282l0.686-1.879
				c0.189-0.519,0.762-0.785,1.282-0.597c0.519,0.189,0.786,0.763,0.597,1.282l-0.686,1.879
				C42.894,13.466,42.511,13.718,42.103,13.718z"/>
		</g>
	</g>
	<g>
		<g>
			<path d="M46.488,16.503c-0.256,0-0.513-0.098-0.708-0.294c-0.39-0.391-0.389-1.024,0.002-1.414l1.416-1.413
				c0.391-0.391,1.024-0.389,1.414,0.002c0.39,0.391,0.389,1.024-0.002,1.414l-1.416,1.413C47,16.406,46.744,16.503,46.488,16.503z"
				/>
		</g>
	</g>
	<g>
		<g>
			<path d="M49.266,20.896c-0.409,0-0.792-0.253-0.94-0.659c-0.188-0.519,0.08-1.093,0.599-1.281l1.88-0.683
				c0.52-0.188,1.093,0.08,1.281,0.599s-0.08,1.093-0.599,1.281l-1.88,0.683C49.495,20.876,49.379,20.896,49.266,20.896z"/>
		</g>
	</g>
</g>
<polyline style="fill:none;stroke:#000000;stroke-width:2;stroke-linecap:round;stroke-linejoin:round;stroke-miterlimit:10;" points="
	23,55 23,60 4.002,60 4.002,55 6,55 "/>
</svg>