<?xml version="1.0" encoding="iso-8859-1"?><!-- Generator: Adobe Illustrator 22.1.0, SVG Export Plug-In . SVG Version: 6.00 Build 0)  --><svg xmlns="http://www.w3.org/2000/svg" xmlns:xlink="http://www.w3.org/1999/xlink" viewBox="0 0 50 50" width="500px" height="500px"><polygon points="13,7 20,11 20,12 13,10 "/><polygon points="13,10 6,12 6,11 13,7 "/><polygon points="13,13 10,16 10,17 13,16 16,17 16,16 "/><path d="M13,2c-0.552,0-1,0.448-1,1v12h2V3C14,2.448,13.552,2,13,2z"/><polyline style="fill:none;stroke:#000000;stroke-width:2;stroke-linejoin:round;stroke-miterlimit:10;" points="3,28 7,25 8,21 5,17 "/><polyline style="fill:none;stroke:#000000;stroke-width:2;stroke-linejoin:round;stroke-miterlimit:10;" points="14,44 14,40 15,37 13,33 10,33 7,32 4,32 "/><polyline style="fill:none;stroke:#000000;stroke-width:2;stroke-linecap:round;stroke-linejoin:round;stroke-miterlimit:10;" points="32,15 27,13 29,8 32,7 33,8 33,5 "/><polyline style="fill:none;stroke:#000000;stroke-width:2;stroke-linejoin:round;stroke-miterlimit:10;" points="42,39 39,37 38,34 35,34 33,36 30,36 27,33 27,29 32,25 38,25 42,21 47,24 "/><polyline style="fill:none;stroke:#000000;stroke-width:2;stroke-linecap:round;stroke-linejoin:round;stroke-miterlimit:10;" points="39,15 37,15 37,17 35,18 35,21 31,19 29,21 28,22 26,23 25,22 28,21 29,17 32,15 33,12 32,11 "/><polyline style="fill:none;stroke:#000000;stroke-width:2;stroke-linecap:round;stroke-linejoin:round;stroke-miterlimit:10;" points="41,22 37,17 39,15 "/><polyline style="fill:none;stroke:#000000;stroke-width:2;stroke-linecap:round;stroke-linejoin:round;stroke-miterlimit:10;" points="23,15 25,17 23,18 "/><path d="M46,25c0,7.921-4.41,14.827-10.902,18.403c0.794,0.244,1.572,0.425,2.316,0.517c0.207,0.026,0.394,0.023,0.592,0.036C44.036,39.806,48,32.858,48,25C48,12.318,37.682,2,25,2c-3.193,0-6.234,0.658-9,1.84v2.199C18.73,4.737,21.779,4,25,4C36.58,4,46,13.42,46,25z"/><path d="M44.955,40.01c-0.172,2.078-0.911,3.728-2.235,4.763c-1.314,1.028-3.234,1.421-5.551,1.132c-5.426-0.672-12.008-4.899-16.379-10.519c-4.211-5.414-6.72-11.708-6.783-16.942L13,18.108l-0.993,0.331c0.055,5.738,2.66,12.331,7.204,18.174c4.75,6.106,11.702,10.532,17.712,11.276c0.573,0.071,1.129,0.106,1.666,0.106c2.137,0,3.97-0.559,5.362-1.647c2.431-1.9,3.429-5.182,2.92-9.284C46.303,38.089,45.662,39.072,44.955,40.01z"/><path d="M26.503,45.924C26.005,45.959,25.507,46,25,46C13.42,46,4,36.58,4,25c0-4.17,1.249-8.039,3.356-11.307L4.564,14.49C2.934,17.643,2,21.212,2,25c0,12.682,10.318,23,23,23c1.512,0,2.988-0.151,4.419-0.43C28.438,47.084,27.463,46.536,26.503,45.924z"/></svg>