<?xml version="1.0" encoding="iso-8859-1"?>
<!-- Generator: Adobe Illustrator 22.0.1, SVG Export Plug-In . SVG Version: 6.00 Build 0)  -->
<svg version="1.1" id="&#x421;&#x43B;&#x43E;&#x439;_2"
	 xmlns="http://www.w3.org/2000/svg" xmlns:xlink="http://www.w3.org/1999/xlink" x="0px" y="0px" viewBox="0 0 50 50"
	 style="enable-background:new 0 0 50 50;" xml:space="preserve">
<circle style="fill:none;stroke:#000000;stroke-width:2;stroke-linecap:round;stroke-miterlimit:10;" cx="25" cy="25" r="22"/>
<path d="M41.61,24.02l-16.416-3.302c-0.131-0.026-0.264-0.026-0.395,0L8.387,24.018c-0.467,0.094-0.803,0.504-0.803,0.98
	s0.336,0.886,0.803,0.98l16.414,3.302c0.065,0.013,0.131,0.02,0.197,0.02s0.132-0.007,0.197-0.02L41.61,25.98
	c0.467-0.094,0.803-0.504,0.803-0.98S42.077,24.114,41.61,24.02z M24.998,27.28L24.998,27.28l0-4.562L36.342,25L24.998,27.28z"/>
<line style="fill:none;stroke:#000000;stroke-width:2;stroke-linecap:round;stroke-miterlimit:10;" x1="47" y1="25" x2="45" y2="25"/>
<line style="fill:none;stroke:#000000;stroke-width:2;stroke-linecap:round;stroke-miterlimit:10;" x1="5" y1="25" x2="3" y2="25"/>
<line style="fill:none;stroke:#000000;stroke-width:2;stroke-linecap:round;stroke-miterlimit:10;" x1="25" y1="47" x2="25" y2="45"/>
<line style="fill:none;stroke:#000000;stroke-width:2;stroke-linecap:round;stroke-miterlimit:10;" x1="25" y1="5" x2="25" y2="3"/>
</svg>