<?xml version="1.0" encoding="iso-8859-1"?>
<!-- Generator: Adobe Illustrator 23.0.3, SVG Export Plug-In . SVG Version: 6.00 Build 0)  -->
<svg version="1.1" id="Layer_1" xmlns="http://www.w3.org/2000/svg" xmlns:xlink="http://www.w3.org/1999/xlink" x="0px" y="0px"
	 viewBox="0 0 50 50" style="enable-background:new 0 0 50 50;" xml:space="preserve">
<path style="fill:none;stroke:#000000;stroke-width:2;stroke-linecap:round;stroke-linejoin:round;stroke-miterlimit:10;" d="
	M29.083,37.6c0-4.285,6.071-10.951,19.997-7.618c-3.333,4.285-0.269,10.161-4.761,14.284c-1.501,1.378-3.183,1.728-4.757,1.734
	c-2.757,0.012-5.183-1.384-5.718-2.687C33.844,43.313,29.083,43.313,29.083,37.6z"/>
<path style="fill:none;stroke:#000000;stroke-width:2;stroke-linecap:round;stroke-linejoin:round;stroke-miterlimit:10;" d="
	M33.08,49.08c0-6.666,5.352-13.678,10-16"/>
<path d="M26,16.914c2.41-0.058,4.742-0.323,6.92-0.776c0.613,2.381,0.982,5.054,1.055,7.862H26V16.914z"/>
<path d="M26,14.915V6.132c2.594,0.638,4.891,3.716,6.351,8.086C30.355,14.622,28.217,14.859,26,14.915z"/>
<path d="M24,6.132v8.783c-2.195-0.057-4.333-0.299-6.346-0.711C19.114,9.842,21.408,6.77,24,6.132z"/>
<path d="M24,16.914V24h-7.975c0.073-2.814,0.443-5.491,1.058-7.876C19.279,16.585,21.612,16.854,24,16.914z"/>
<path d="M14.026,24H6.051c0.204-3.887,1.574-7.461,3.777-10.388c1.573,0.825,3.359,1.51,5.297,2.04
	C14.481,18.175,14.097,20.994,14.026,24z"/>
<path d="M14.026,26c0.071,3,0.454,5.813,1.095,8.332c-1.956,0.535-3.738,1.229-5.284,2.068C7.629,33.471,6.255,29.892,6.051,26
	H14.026z"/>
<path d="M16.025,26H24v7.086c-2.41,0.058-4.742,0.323-6.92,0.776C16.467,31.481,16.098,28.808,16.025,26z"/>
<path d="M24,35.085v8.783c-2.594-0.638-4.891-3.716-6.351-8.086C19.645,35.378,21.783,35.141,24,35.085z"/>
<path d="M35.974,24c-0.071-3-0.454-5.813-1.095-8.332c1.956-0.535,3.738-1.229,5.284-2.068c2.208,2.929,3.582,6.508,3.786,10.4
	H35.974z"/>
<path d="M38.853,12.038c-1.337,0.688-2.864,1.26-4.527,1.713c-0.933-2.854-2.215-5.222-3.744-6.911
	C33.785,7.826,36.617,9.649,38.853,12.038z"/>
<path d="M19.419,6.84c-1.526,1.686-2.806,4.048-3.739,6.895c-1.648-0.449-3.176-1.015-4.537-1.692
	C13.38,9.652,16.213,7.827,19.419,6.84z"/>
<path d="M11.147,37.962c1.337-0.688,2.864-1.26,4.527-1.713c0.933,2.854,2.215,5.222,3.744,6.911
	C16.215,42.174,13.383,40.351,11.147,37.962z"/>
<g>
	<path d="M26,35.085v8.783c1.391-0.342,2.694-1.391,3.831-2.958c-0.449-0.804-0.748-1.877-0.748-3.31
		c0-0.703,0.167-1.47,0.501-2.246C28.414,35.211,27.217,35.117,26,35.085z"/>
	<path d="M35.664,30.121c2.084-0.768,4.69-1.178,7.85-0.991c0.226-1.016,0.379-2.06,0.435-3.13h-7.975
		C35.94,27.421,35.832,28.796,35.664,30.121z"/>
	<path d="M26,26v7.086c1.61,0.04,3.191,0.184,4.726,0.409c0.689-0.848,1.602-1.652,2.749-2.337c0.274-1.641,0.453-3.366,0.5-5.158
		H26z"/>
</g>
<path d="M25,2C12.317,2,2,12.317,2,25s10.317,23,23,23c1.78,0,3.51-0.213,5.175-0.598c0.076-0.728,0.205-1.45,0.37-2.168
	C28.779,45.726,26.922,46,25,46C13.421,46,4,36.579,4,25S13.421,4,25,4s21,9.421,21,21c0,1.482-0.159,2.927-0.452,4.324
	c0.64,0.084,1.3,0.193,1.98,0.325C47.837,28.147,48,26.592,48,25C48,12.317,37.683,2,25,2z"/>
</svg>