<?xml version="1.0" encoding="iso-8859-1"?>
<!-- Generator: Adobe Illustrator 24.2.1, SVG Export Plug-In . SVG Version: 6.00 Build 0)  -->
<svg version="1.1" id="Layer_1" xmlns="http://www.w3.org/2000/svg" xmlns:xlink="http://www.w3.org/1999/xlink" x="0px" y="0px"
	 viewBox="0 0 48 48" style="enable-background:new 0 0 48 48;" xml:space="preserve">
<g>
	<path d="M17,8.737l-10.382,7.55C6.229,16.569,6,17.02,6,17.5v21c0,0.564,0.316,1.081,0.819,1.337C7.034,39.946,7.268,40,7.5,40
		c0.312,0,0.621-0.097,0.882-0.287L17,33.446V8.737z"/>
	<polygon points="28,14.56 20,8.736 20,33.447 28,39.271 	"/>
	<path d="M41.181,8.164c-0.503-0.255-1.104-0.208-1.562,0.123L31,14.548v24.708l10.382-7.543C41.771,31.431,42,30.98,42,30.5v-21
		C42,8.936,41.684,8.419,41.181,8.164z"/>
</g>
</svg>