<?xml version="1.0" encoding="iso-8859-1"?><!-- Generator: Adobe Illustrator 21.1.0, SVG Export Plug-In . SVG Version: 6.00 Build 0)  --><svg xmlns="http://www.w3.org/2000/svg" xmlns:xlink="http://www.w3.org/1999/xlink" viewBox="0 0 64 64" width="512px" height="512px"><g><path d="M34.742,47.587c-0.539,0.121-0.878,0.656-0.757,1.194c0.104,0.466,0.518,0.781,0.975,0.781c0.072,0,0.146-0.008,0.22-0.024c7.274-1.633,12.94-7.407,14.435-14.71c0.111-0.541-0.238-1.069-0.779-1.18c-0.538-0.109-1.069,0.237-1.18,0.779C46.318,40.96,41.249,46.126,34.742,47.587z"/><path d="M47.558,27.126c0.107,0.462,0.519,0.773,0.973,0.773c0.075,0,0.151-0.009,0.228-0.026c0.538-0.125,0.873-0.663,0.747-1.2c-1.055-4.528-3.738-8.507-7.557-11.203c-0.453-0.319-1.075-0.211-1.394,0.239c-0.319,0.451-0.212,1.075,0.239,1.394C44.212,19.517,46.614,23.076,47.558,27.126z"/><path d="M25.38,44.908c-0.508-0.207-1.094,0.04-1.301,0.553l-0.749,1.854c-0.207,0.512,0.04,1.095,0.553,1.301c0.122,0.05,0.249,0.073,0.374,0.073c0.396,0,0.77-0.236,0.927-0.626l0.749-1.854C26.14,45.697,25.893,45.114,25.38,44.908z"/><path d="M19.167,41.815l-1.39,1.438c-0.384,0.396-0.373,1.03,0.024,1.413c0.193,0.188,0.444,0.281,0.694,0.281c0.262,0,0.523-0.103,0.719-0.306l1.39-1.438c0.384-0.396,0.373-1.03-0.024-1.413C20.185,41.408,19.55,41.419,19.167,41.815z"/><path d="M15.976,36.595l-1.826,0.813c-0.504,0.225-0.731,0.815-0.506,1.32c0.165,0.372,0.531,0.593,0.914,0.593c0.136,0,0.273-0.027,0.406-0.087l1.826-0.813c0.504-0.225,0.731-0.815,0.506-1.32C17.072,36.597,16.483,36.367,15.976,36.595z"/><path d="M61,30h-5.047c-0.484-12.327-9.79-22.431-22.104-23.827l-1.904-5.5C31.806,0.271,31.426,0,31,0s-0.806,0.271-0.945,0.673l-1.902,5.496C16.01,7.552,6.519,17.803,6.024,30H1c-0.553,0-1,0.447-1,1s0.447,1,1,1h5.025C6.54,44.99,17.01,55.46,30,55.975V61c0,0.553,0.447,1,1,1s1-0.447,1-1v-5.025C44.99,55.46,55.46,44.99,55.975,32H61c0.553,0,1-0.447,1-1S61.553,30,61,30z M31,4.057l7.199,20.799l-6.714-3.729C31.335,21.042,31.167,21,31,21s-0.335,0.042-0.485,0.126l-6.714,3.729L31,4.057z M32,53.975V46c0-0.553-0.447-1-1-1s-1,0.447-1,1v7.975C18.112,53.463,8.537,43.888,8.025,32H16c0.553,0,1-0.447,1-1s-0.447-1-1-1H8.048C8.529,19.142,16.739,9.988,27.414,8.301l-1.523,4.401c-6.693,1.864-11.815,7.192-13.395,13.971c-0.126,0.537,0.209,1.075,0.747,1.2c0.076,0.018,0.152,0.026,0.228,0.026c0.454,0,0.865-0.312,0.973-0.773c1.305-5.597,5.311-10.085,10.628-12.056l-4.016,11.602c-0.136,0.392-0.016,0.826,0.303,1.093c0.316,0.268,0.769,0.311,1.128,0.108L31,23.144l8.515,4.73C39.666,27.959,39.833,28,40,28c0.23,0,0.459-0.079,0.643-0.234c0.318-0.267,0.438-0.701,0.303-1.093l-6.359-18.37C45.405,9.987,53.485,19.02,53.953,30H46c-0.553,0-1,0.447-1,1s0.447,1,1,1h7.975C53.463,43.888,43.888,53.463,32,53.975z"/><circle cx="31" cy="31" r="2"/></g></svg>