<?xml version="1.0" encoding="iso-8859-1"?>
<!-- Generator: Adobe Illustrator 24.1.3, SVG Export Plug-In . SVG Version: 6.00 Build 0)  -->
<svg version="1.1" id="Layer_1" xmlns="http://www.w3.org/2000/svg" xmlns:xlink="http://www.w3.org/1999/xlink" x="0px" y="0px"
	 viewBox="0 0 100 100" style="enable-background:new 0 0 100 100;" xml:space="preserve">
<g>
</g>
<g>
	<path d="M39,88c-0.553,0-1-0.447-1-1v-8.661c0-2.169-0.549-4.321-1.588-6.226l-8.794-16.122c-0.949-1.738-3.074-2.48-4.738-1.654
		c-0.698,0.347-1.248,0.911-1.591,1.633l-0.842,1.772l-2.203-4.04C18.085,53.41,18,53.079,18,52.745V39.172
		c0-1.626-1.187-3.013-2.702-3.158c-0.864-0.077-1.683,0.19-2.315,0.766C12.358,37.348,12,38.156,12,39v18.98
		c0,1.166,0.296,2.325,0.854,3.352l10.901,19.985C23.915,81.609,24,81.94,24,82.274V87c0,0.553-0.447,1-1,1s-1-0.447-1-1v-4.726
		L11.099,62.289C10.38,60.97,10,59.479,10,57.98V39c0-1.405,0.597-2.754,1.638-3.7c1.04-0.946,2.451-1.414,3.851-1.276
		C18.019,34.266,20,36.527,20,39.172v13.573l0.49,0.899c0.43-0.447,0.934-0.817,1.5-1.099c2.616-1.3,5.928-0.182,7.384,2.488
		l8.794,16.122C39.366,73.353,40,75.837,40,78.339V87C40,87.553,39.553,88,39,88z"/>
	<path d="M23.438,59.971c-0.173,0-0.342-0.091-0.435-0.252c-0.137-0.239-0.054-0.545,0.187-0.682l3-1.716
		c0.237-0.135,0.544-0.055,0.683,0.187c0.137,0.239,0.054,0.545-0.187,0.682l-3,1.716C23.608,59.949,23.523,59.971,23.438,59.971z"
		/>
	<path d="M27.534,72c-0.177,0-0.348-0.094-0.438-0.261l-0.546-1c-0.133-0.242-0.044-0.546,0.199-0.678
		c0.242-0.134,0.546-0.044,0.678,0.199l0.546,1c0.133,0.242,0.044,0.546-0.199,0.678C27.697,71.98,27.615,72,27.534,72z"/>
	<path d="M25.897,69c-0.177,0-0.349-0.094-0.438-0.261l-4.971-9.113c-0.575-1.055-0.706-2.271-0.367-3.425
		c0.339-1.154,1.107-2.105,2.162-2.681c0.241-0.131,0.546-0.042,0.679,0.2c0.132,0.242,0.042,0.546-0.2,0.679
		c-0.82,0.446-1.418,1.187-1.682,2.084c-0.263,0.897-0.162,1.844,0.286,2.664l4.97,9.113c0.133,0.242,0.043,0.546-0.199,0.678
		C26.061,68.98,25.979,69,25.897,69z"/>
	<path d="M76,88c-0.553,0-1-0.447-1-1v-4.726c0-0.334,0.085-0.665,0.244-0.958l10.901-19.984C86.704,60.306,87,59.146,87,57.98V39
		c0-0.844-0.358-1.652-0.982-2.221c-0.633-0.574-1.449-0.843-2.316-0.766C82.187,36.159,81,37.546,81,39.172v13.573
		c0,0.334-0.085,0.665-0.244,0.958l-2.203,4.039l-0.842-1.772c-0.343-0.722-0.893-1.286-1.59-1.633
		c-1.667-0.825-3.79-0.084-4.739,1.654l-8.794,16.122C61.549,74.018,61,76.17,61,78.339V87c0,0.553-0.447,1-1,1s-1-0.447-1-1v-8.661
		c0-2.502,0.634-4.986,1.832-7.183l8.794-16.122c1.456-2.672,4.768-3.788,7.385-2.488c0.565,0.281,1.069,0.651,1.499,1.099l0.49-0.9
		V39.172c0-2.645,1.981-4.906,4.511-5.148c1.42-0.141,2.813,0.33,3.852,1.276C88.403,36.246,89,37.595,89,39v18.98
		c0,1.499-0.38,2.989-1.099,4.309L77,82.274V87C77,87.553,76.553,88,76,88z"/>
	<path d="M75.562,59.971c-0.085,0-0.17-0.021-0.248-0.065l-3-1.716c-0.24-0.137-0.323-0.442-0.187-0.682
		c0.138-0.241,0.444-0.321,0.683-0.187l3,1.716c0.24,0.137,0.323,0.442,0.187,0.682C75.903,59.88,75.734,59.971,75.562,59.971z"/>
	<path d="M71.466,72c-0.081,0-0.163-0.02-0.239-0.061c-0.242-0.133-0.332-0.437-0.2-0.679l0.545-1
		c0.133-0.242,0.437-0.331,0.679-0.2c0.242,0.133,0.332,0.437,0.2,0.679l-0.545,1C71.814,71.905,71.643,72,71.466,72z"/>
	<path d="M73.103,69c-0.081,0-0.163-0.02-0.239-0.062c-0.242-0.132-0.332-0.436-0.199-0.678l4.971-9.113
		c0.447-0.82,0.548-1.767,0.285-2.665c-0.264-0.896-0.861-1.637-1.682-2.083c-0.242-0.133-0.332-0.437-0.2-0.679
		c0.133-0.242,0.437-0.331,0.679-0.2c1.055,0.575,1.823,1.526,2.162,2.68c0.339,1.154,0.208,2.371-0.366,3.426l-4.972,9.113
		C73.451,68.906,73.279,69,73.103,69z"/>
</g>
<g>
	<path d="M50.006,53.816c-2.569,0-5.142-0.478-7.61-1.437c-5.224-2.031-9.347-5.975-11.605-11.105
		c-2.259-5.132-2.385-10.836-0.354-16.061c2.031-5.224,5.975-9.347,11.105-11.605c5.132-2.26,10.835-2.387,16.061-0.354
		c5.224,2.031,9.347,5.975,11.605,11.105c2.259,5.132,2.385,10.836,0.354,16.061c-2.031,5.225-5.975,9.347-11.105,11.605l0,0
		C55.747,53.217,52.879,53.816,50.006,53.816z M49.994,13.846c-2.597,0-5.187,0.539-7.633,1.617
		c-4.635,2.041-8.199,5.765-10.034,10.485c-1.835,4.72-1.722,9.873,0.318,14.508c2.041,4.635,5.765,8.199,10.485,10.034
		c4.721,1.836,9.872,1.722,14.508-0.318l0,0c4.635-2.041,8.199-5.765,10.034-10.485c1.835-4.72,1.722-9.872-0.318-14.508
		c-2.041-4.635-5.765-8.199-10.485-10.034C54.639,14.278,52.315,13.846,49.994,13.846z"/>
	<path d="M37.443,48.136c-0.122,0-0.242-0.044-0.34-0.131c-0.208-0.189-0.224-0.508-0.037-0.716l20.29-22.46
		c0.189-0.208,0.509-0.223,0.716-0.037c0.208,0.189,0.224,0.508,0.037,0.716l-20.29,22.46
		C37.718,48.079,37.582,48.136,37.443,48.136z"/>
	<path d="M60.782,43.065c-0.122,0-0.242-0.044-0.34-0.131L35.069,20.012c-0.208-0.189-0.224-0.508-0.037-0.716
		c0.189-0.208,0.509-0.223,0.716-0.037l25.373,22.921c0.208,0.189,0.224,0.508,0.037,0.716
		C61.059,43.008,60.921,43.065,60.782,43.065z M51.24,53.162L51.24,53.162c-0.281,0-0.507-0.228-0.507-0.508
		c0.009-5.293-2.223-10.349-6.123-13.871c-3.902-3.525-9.151-5.225-14.42-4.687c-0.277,0.025-0.528-0.173-0.557-0.451
		c-0.028-0.278,0.173-0.528,0.451-0.557c5.556-0.574,11.09,1.225,15.204,4.942c4.114,3.715,6.467,9.046,6.457,14.626
		C51.747,52.934,51.52,53.162,51.24,53.162z M67.878,32.651c-4.849,0-9.56-1.787-13.17-5.048c-4.114-3.716-6.467-9.048-6.457-14.626
		c0-0.279,0.228-0.506,0.507-0.506h0.001c0.28,0,0.506,0.228,0.506,0.508c-0.009,5.291,2.223,10.347,6.123,13.871
		c3.902,3.525,9.155,5.23,14.421,4.687c0.275-0.03,0.528,0.173,0.557,0.451c0.028,0.279-0.173,0.528-0.451,0.557
		C69.233,32.617,68.554,32.651,67.878,32.651z"/>
	<path d="M39.893,48.557c-0.816,0-1.64-0.033-2.471-0.103c-0.279-0.022-0.487-0.268-0.463-0.547c0.022-0.28,0.295-0.477,0.547-0.463
		c8.057,0.666,15.467-2.046,20.34-7.439c4.873-5.394,6.82-13.044,5.343-20.988c-0.052-0.275,0.13-0.54,0.405-0.591
		c0.278-0.053,0.54,0.13,0.591,0.405c1.537,8.258-0.499,16.223-5.586,21.854C54.016,45.755,47.299,48.557,39.893,48.557z"/>
	<path d="M36.9,47.846c-0.238,0-0.452-0.17-0.497-0.414c-1.537-8.259,0.499-16.224,5.585-21.854
		c5.087-5.63,12.802-8.47,21.175-7.769c0.279,0.022,0.487,0.268,0.463,0.547c-0.022,0.28-0.283,0.483-0.547,0.463
		c-8.057-0.666-15.467,2.046-20.34,7.439c-4.872,5.393-6.819,13.043-5.342,20.988c0.052,0.275-0.13,0.54-0.405,0.591
		C36.962,47.843,36.931,47.846,36.9,47.846z M62.796,45.233c-0.124,0-0.247-0.045-0.345-0.136l-0.887-0.823
		c-0.206-0.191-0.218-0.511-0.026-0.716c0.192-0.206,0.513-0.218,0.716-0.026l0.887,0.823c0.206,0.191,0.218,0.511,0.026,0.716
		C63.066,45.179,62.931,45.233,62.796,45.233z"/>
	<path d="M59.006,24.133c-0.124,0-0.247-0.045-0.345-0.136c-0.206-0.191-0.218-0.511-0.026-0.716l1.372-1.478
		c0.192-0.205,0.513-0.218,0.716-0.026c0.206,0.191,0.218,0.511,0.026,0.716l-1.372,1.478
		C59.278,24.078,59.142,24.133,59.006,24.133z M61.437,21.57c-0.124,0-0.247-0.045-0.345-0.136c-0.206-0.19-0.218-0.511-0.026-0.716
		l0.343-0.369c0.191-0.206,0.513-0.217,0.716-0.026c0.206,0.191,0.218,0.511,0.026,0.716l-0.343,0.369
		C61.709,21.516,61.573,21.57,61.437,21.57z"/>
</g>
</svg>