<?xml version="1.0" encoding="utf-8"?><!-- Generator: Adobe Illustrator 15.0.0, SVG Export Plug-In . SVG Version: 6.00 Build 0)  --><!DOCTYPE svg PUBLIC "-//W3C//DTD SVG 1.1//EN" "http://www.w3.org/Graphics/SVG/1.1/DTD/svg11.dtd"><svg xmlns="http://www.w3.org/2000/svg" xmlns:xlink="http://www.w3.org/1999/xlink" viewBox="0 0 50 50" width="500px" height="500px"><path d="M49.511,2.14c-0.304-0.18-0.68-0.187-0.989-0.018L37.963,7.881l-12.544-5.79c-0.274-0.126-0.594-0.122-0.866,0.014L13,7.882L1.447,2.105C1.137,1.952,0.77,1.968,0.474,2.149C0.18,2.332,0,2.653,0,3v38c0,0.379,0.214,0.725,0.553,0.895l12,6c0.281,0.141,0.613,0.141,0.895,0l11.57-5.785l12.564,5.799C37.714,47.97,37.857,48,38,48c0.165,0,0.33-0.041,0.479-0.122l11-6C49.8,41.703,50,41.366,50,41V3C50,2.647,49.813,2.32,49.511,2.14z M42.738,16.434c0.469-0.291,1.086-0.147,1.377,0.322c0.189,0.306,0.367,0.627,0.53,0.965c0.241,0.497,0.034,1.095-0.463,1.336c-0.141,0.068-0.289,0.1-0.436,0.1c-0.371,0-0.728-0.208-0.9-0.564c-0.134-0.274-0.276-0.535-0.431-0.783C42.125,17.341,42.269,16.725,42.738,16.434z M38.794,13.417c0.266-0.483,0.873-0.659,1.358-0.392c0.318,0.176,0.629,0.367,0.932,0.573c0.456,0.311,0.574,0.933,0.263,1.39c-0.193,0.284-0.508,0.437-0.827,0.437c-0.194,0-0.39-0.056-0.563-0.174c-0.25-0.171-0.508-0.329-0.771-0.474C38.702,14.508,38.526,13.9,38.794,13.417z M6.566,12.904c-0.177,0.111-0.371,0.166-0.561,0.166c-0.312,0-0.609-0.148-0.792-0.439l-0.07-0.114c-0.285-0.473-0.133-1.087,0.34-1.373c0.471-0.285,1.087-0.134,1.373,0.34C7.15,11.952,7.034,12.611,6.566,12.904z M7.744,14.582c0.421-0.356,1.053-0.303,1.409,0.119c0.211,0.25,0.42,0.485,0.629,0.707c0.378,0.402,0.358,1.035-0.044,1.414c-0.193,0.181-0.439,0.271-0.685,0.271c-0.266,0-0.532-0.106-0.729-0.315c-0.231-0.247-0.465-0.508-0.7-0.786C7.269,15.569,7.321,14.938,7.744,14.582z M11,41c-1.657,0-3-1.344-3-3s1.343-3,3-3s3,1.344,3,3S12.657,41,11,41z M14.026,19.311c-0.149,0.404-0.531,0.654-0.938,0.654c-0.115,0-0.232-0.02-0.346-0.063c-0.343-0.126-0.689-0.28-1.028-0.457c-0.49-0.255-0.68-0.859-0.425-1.349c0.256-0.49,0.858-0.682,1.349-0.425c0.268,0.139,0.533,0.257,0.797,0.354C13.953,18.218,14.218,18.793,14.026,19.311z M16.734,36.578c-0.294,0.077-0.595,0.165-0.902,0.265c-0.103,0.034-0.208,0.05-0.31,0.05c-0.421,0-0.813-0.268-0.951-0.689c-0.171-0.525,0.115-1.09,0.641-1.261c0.345-0.113,0.684-0.213,1.016-0.3c0.534-0.133,1.081,0.182,1.22,0.715C17.588,35.892,17.269,36.438,16.734,36.578z M18.307,19.893c-0.354,0.121-0.71,0.223-1.071,0.303c-0.072,0.016-0.145,0.023-0.216,0.023c-0.459,0-0.873-0.318-0.976-0.785c-0.119-0.539,0.222-1.073,0.762-1.191c0.287-0.063,0.57-0.145,0.851-0.241c0.523-0.179,1.092,0.099,1.271,0.621C19.106,19.144,18.829,19.713,18.307,19.893z M21.437,36.219c-0.034,0-0.068-0.002-0.102-0.005c-0.304-0.031-0.613-0.053-0.927-0.063c-0.552-0.017-0.985-0.479-0.968-1.031c0.017-0.552,0.476-1.021,1.031-0.967c0.361,0.011,0.717,0.036,1.066,0.071c0.549,0.056,0.95,0.547,0.894,1.097C22.378,35.835,21.944,36.219,21.437,36.219z M22,20c-1.657,0-3-1.343-3-3s1.343-3,3-3s3,1.343,3,3S23.657,20,22,20z M27.241,36.679c-0.137,0.423-0.529,0.692-0.951,0.692c-0.102,0-0.205-0.016-0.308-0.049c-0.312-0.101-0.623-0.199-0.936-0.294c-0.529-0.16-0.827-0.719-0.667-1.247s0.719-0.826,1.247-0.667c0.325,0.099,0.648,0.201,0.971,0.306C27.123,35.589,27.411,36.153,27.241,36.679z M26.882,14.309c-0.259,0.177-0.52,0.366-0.784,0.561c-0.179,0.133-0.387,0.197-0.594,0.197c-0.306,0-0.608-0.14-0.804-0.404c-0.329-0.444-0.236-1.07,0.208-1.399c0.284-0.211,0.566-0.413,0.844-0.604c0.456-0.313,1.078-0.196,1.391,0.259C27.453,13.375,27.337,13.997,26.882,14.309z M29.957,10.977c0.343,0,0.679,0.003,1.022,0.01c0.553,0.012,0.99,0.47,0.979,1.022c-0.012,0.544-0.457,0.978-1,0.978c-0.007,0-0.015,0-0.021,0c-0.33-0.007-0.65-0.01-0.962-0.01c-0.553,0-1.009-0.448-1.009-1S29.404,10.977,29.957,10.977z M31.099,38.728c-0.062,0-0.124-0.006-0.187-0.018c-0.348-0.065-0.688-0.139-1.025-0.22c-0.537-0.129-0.868-0.669-0.739-1.206s0.672-0.864,1.206-0.739c0.306,0.073,0.615,0.141,0.93,0.2c0.543,0.103,0.899,0.625,0.797,1.168C31.989,38.393,31.57,38.728,31.099,38.728z M35.11,11.352c0.344,0.059,0.688,0.125,1.031,0.202c0.539,0.12,0.879,0.654,0.76,1.193c-0.104,0.466-0.518,0.783-0.976,0.783c-0.072,0-0.145-0.008-0.218-0.024c-0.311-0.069-0.623-0.129-0.934-0.182c-0.544-0.093-0.91-0.609-0.817-1.154C34.049,11.626,34.567,11.26,35.11,11.352z M36.26,38.796c-0.361,0.072-0.723,0.126-1.083,0.162c-0.034,0.003-0.068,0.005-0.102,0.005c-0.508,0-0.942-0.384-0.994-0.899c-0.056-0.55,0.346-1.04,0.895-1.096c0.298-0.03,0.597-0.074,0.894-0.133c0.549-0.115,1.067,0.244,1.176,0.785C37.153,38.162,36.801,38.688,36.26,38.796z M40,39c-1.656,0-3-1.344-3-3s1.344-3,3-3s3,1.344,3,3S41.656,39,40,39z M44.448,32.18c-0.155,0.334-0.32,0.654-0.495,0.96c-0.185,0.324-0.522,0.506-0.87,0.506c-0.168,0-0.338-0.042-0.493-0.131c-0.48-0.273-0.648-0.884-0.375-1.363c0.147-0.261,0.289-0.532,0.421-0.815c0.231-0.5,0.825-0.717,1.328-0.484C44.465,31.084,44.682,31.679,44.448,32.18z M45.694,28.119c-0.084,0.486-0.507,0.829-0.984,0.829c-0.057,0-0.114-0.005-0.172-0.015c-0.544-0.095-0.909-0.612-0.814-1.156c0.053-0.304,0.098-0.615,0.136-0.935c0.065-0.549,0.555-0.939,1.111-0.876c0.548,0.065,0.939,0.563,0.875,1.11C45.804,27.434,45.753,27.78,45.694,28.119z M45.021,23.967c-0.024,0.001-0.049,0.002-0.072,0.002c-0.52,0-0.959-0.402-0.996-0.929c-0.023-0.32-0.056-0.631-0.096-0.932c-0.073-0.547,0.312-1.051,0.858-1.124c0.547-0.071,1.051,0.311,1.124,0.858c0.046,0.341,0.082,0.692,0.107,1.055C45.987,23.449,45.572,23.928,45.021,23.967z"/></svg>