<?xml version="1.0" encoding="iso-8859-1"?>
<!-- Generator: Adobe Illustrator 27.0.0, SVG Export Plug-In . SVG Version: 6.00 Build 0)  -->
<svg version="1.1" baseProfile="basic" xmlns="http://www.w3.org/2000/svg" xmlns:xlink="http://www.w3.org/1999/xlink" x="0px"
	 y="0px" viewBox="0 0 64 64" xml:space="preserve">
<g id="Layer_1">
</g>
<g id="&#x421;&#x43B;&#x43E;&#x439;_1">
	<circle cx="32" cy="28" r="7"/>
	<path d="M32,6c-12.15,0-22,9.85-22,22c0,5.5,2.02,10.53,5.36,14.38L32,61l16.64-18.62C51.98,38.53,54,33.5,54,28
		C54,15.85,44.15,6,32,6z M42.15,31.86l1.11,2.64l-2.85,0.37c-0.8,0.1-1.44,0.74-1.54,1.54l-0.37,2.85l-2.64-1.11
		c-0.76-0.31-1.63-0.08-2.12,0.57L32,41l-1.74-2.28c-0.49-0.65-1.36-0.88-2.12-0.57l-2.64,1.11l-0.37-2.85
		c-0.1-0.8-0.74-1.44-1.54-1.54l-2.85-0.37l1.11-2.64c0.31-0.76,0.08-1.63-0.57-2.12L19,28l2.28-1.74c0.65-0.49,0.88-1.36,0.57-2.12
		l-1.11-2.64l2.85-0.37c0.8-0.1,1.44-0.74,1.54-1.54l0.37-2.85l2.64,1.11c0.76,0.31,1.63,0.08,2.12-0.57L32,15l1.74,2.28
		c0.49,0.65,1.36,0.88,2.12,0.57l2.64-1.11l0.37,2.85c0.1,0.8,0.74,1.44,1.54,1.54l2.85,0.37l-1.11,2.64
		c-0.31,0.76-0.08,1.63,0.57,2.12L45,28l-2.28,1.74C42.07,30.23,41.84,31.1,42.15,31.86z"/>
</g>
</svg>