<?xml version="1.0" encoding="iso-8859-1"?>
<!-- Generator: Adobe Illustrator 24.1.2, SVG Export Plug-In . SVG Version: 6.00 Build 0)  -->
<svg version="1.1" baseProfile="basic" id="&#x421;&#x43B;&#x43E;&#x439;_1"
	 xmlns="http://www.w3.org/2000/svg" xmlns:xlink="http://www.w3.org/1999/xlink" x="0px" y="0px" viewBox="0 0 48 48"
	 xml:space="preserve">
<path marker-end="none" marker-start="none" style="fill-rule:evenodd;clip-rule:evenodd;" d="M26.997,48c3.584,0,13-0.227,13-0.507
	S30.581,47,26.997,47l-0.411,0.507L26.997,48z"/>
<path marker-end="none" marker-start="none" style="fill-rule:evenodd;clip-rule:evenodd;" d="M7.997,48c-1.104,0-4-0.227-4-0.507
	S6.893,47,7.997,47l0.539,0.507L7.997,48z"/>
<path marker-end="none" marker-start="none" style="fill-rule:evenodd;clip-rule:evenodd;" d="M10.995,48L10.995,48h-3v-5h19.001v5
	h-3l0,0H10.995z M22.995,47v-2H11.997v2H22.995z M10.997,42v-4h3.501c0.275,0,0.5-0.227,0.5-0.507c0-0.267-0.225-0.493-0.5-0.493
	h-3.501l1-2h2.495c0.275,0,0.5-0.227,0.5-0.507c0-0.267-0.225-0.493-0.5-0.493h-2.495v-8l0.929-0.933
	c0.727,0.907,1.515,1.787,2.367,2.64c2.392,2.387,5.024,4.293,7.703,5.68L22.997,35l1,2v5H10.997z M16.001,27
	c-5.269-5.267-8.036-11.653-8.005-17c0.017-3.107,1.095-5.747,3.067-7.72c0.033-0.04,0.069-0.067,0.105-0.107
	C13.897-0.56,20.711,1.64,27.603,7.08l-1.179,0.347C19.841,2.4,13.905,0.853,11.874,2.88c-1.853,1.853-0.761,6.88,3.208,12.693
	L32.163,7.84c-0.001-0.013-0.004-0.013-0.005-0.013l-13.121,3.88c-0.265,0.067-0.543-0.08-0.621-0.347
	c-0.079-0.267,0.073-0.533,0.337-0.613l13.303-3.933c0.027-0.067,0.061-0.12,0.107-0.16l2.489-2.493
	c0.467-0.467,1.783,0.093,2.936,1.253c1.155,1.147,1.712,2.467,1.245,2.933l-2.488,2.493c-0.143,0.133-0.363,0.187-0.632,0.147
	l-8.301,16.92c5.824,3.947,10.867,5.053,12.705,3.213c2.165-2.16,0.308-8.653-5.463-15.707l0.481-0.987
	c6,7.213,8.545,14.547,5.689,17.4c-0.019,0.027-0.037,0.04-0.056,0.053c-1.964,1.973-4.655,3.093-7.749,3.12
	C27.677,35.04,21.279,32.28,16.001,27z M26.581,27.32l6.656-13.56c-0.613-0.68-1.263-1.36-1.947-2.053
	c-0.299-0.293-0.599-0.587-0.897-0.88l0.983-0.44c0.208,0.2,0.415,0.4,0.623,0.613c0.593,0.587,1.165,1.2,1.713,1.8l1.057-2.16
	c-0.439-0.24-0.913-0.6-1.363-1.053c-0.289-0.28-0.541-0.587-0.749-0.88l-16.992,7.707c1.377,1.92,3.056,3.907,5.037,5.88
	C22.677,24.267,24.665,25.947,26.581,27.32z"/>
</svg>