<?xml version="1.0" encoding="iso-8859-1"?><!-- Generator: Adobe Illustrator 21.1.0, SVG Export Plug-In . SVG Version: 6.00 Build 0)  --><svg xmlns="http://www.w3.org/2000/svg" xmlns:xlink="http://www.w3.org/1999/xlink" viewBox="0 0 64 64" width="512px" height="512px"><g><path d="M35.937,55.869C34.653,55.956,33.328,56,32,56c-4.198,0-8.308-0.452-11.572-1.271c-0.535-0.136-1.079,0.19-1.213,0.726c-0.135,0.536,0.19,1.079,0.726,1.213C23.409,57.54,27.58,58,32,58c1.373,0,2.743-0.045,4.072-0.136c0.551-0.037,0.968-0.514,0.93-1.065C36.965,56.249,36.5,55.83,35.937,55.869z"/><path d="M43.575,54.729c-0.972,0.244-2.021,0.457-3.121,0.633c-0.545,0.087-0.917,0.601-0.829,1.146c0.079,0.492,0.504,0.841,0.986,0.841c0.053,0,0.106-0.004,0.16-0.013c1.156-0.186,2.263-0.411,3.29-0.668c0.536-0.134,0.861-0.677,0.727-1.213C44.653,54.92,44.109,54.595,43.575,54.729z"/><path d="M37.356,40.238c1.123-1.895,2.35-3.738,3.565-5.559C44.562,29.225,48,24.075,48,18.331c0-8.849-7.199-16.048-16.048-16.048c-8.849,0-16.048,7.199-16.048,16.048c0,5.743,3.437,10.893,7.076,16.345c1.218,1.824,2.447,3.671,3.571,5.57C14.679,41.28,6,45.626,6,51c0,6.168,11.42,11,26,11s26-4.832,26-11C58,45.612,49.276,41.257,37.356,40.238z M24.644,33.565c-3.466-5.193-6.74-10.098-6.74-15.235c0-7.746,6.302-14.048,14.048-14.048S46,10.584,46,18.331c0,5.138-3.275,10.043-6.742,15.237c-2.833,4.243-5.74,8.598-7.308,13.548C30.383,42.165,27.476,37.809,24.644,33.565z M32,60c-14.356,0-24-4.654-24-9c0-3.887,7.737-8.001,19.637-8.83c1.622,3.028,2.886,6.21,3.32,9.673c0.062,0.5,0.488,0.875,0.992,0.875c0.504,0,0.929-0.375,0.992-0.875c0.436-3.465,1.702-6.65,3.327-9.68C48.223,42.976,56,47.103,56,51C56,55.346,46.356,60,32,60z"/><path d="M35.458,25.178c3.318-1.604,5.107-5.239,4.351-8.842c-0.113-0.54-0.641-0.885-1.184-0.773c-0.541,0.113-0.887,0.644-0.773,1.184c0.567,2.701-0.775,5.427-3.264,6.63c-2.977,1.438-6.574,0.187-8.013-2.792s-0.187-6.574,2.792-8.013c0.508-0.246,1.044-0.418,1.593-0.513c0.544-0.094,0.909-0.611,0.815-1.155c-0.093-0.544-0.608-0.913-1.155-0.815c-0.732,0.126-1.447,0.356-2.123,0.683c-3.972,1.918-5.642,6.711-3.723,10.684c1.379,2.854,4.241,4.519,7.216,4.519C33.157,25.974,34.34,25.718,35.458,25.178z"/><path d="M34.226,12.412c0.729,0.294,1.383,0.721,1.943,1.267c0.194,0.189,0.446,0.284,0.698,0.284c0.26,0,0.52-0.101,0.716-0.302c0.386-0.396,0.378-1.028-0.018-1.414c-0.747-0.729-1.619-1.297-2.59-1.689c-0.515-0.208-1.095,0.041-1.302,0.553C33.466,11.622,33.714,12.205,34.226,12.412z"/><circle cx="32" cy="18" r="2"/></g></svg>