<?xml version="1.0" encoding="iso-8859-1"?>
<!-- Generator: Adobe Illustrator 24.1.2, SVG Export Plug-In . SVG Version: 6.00 Build 0)  -->
<svg version="1.1" baseProfile="basic" id="Layer_1_1_"
	 xmlns="http://www.w3.org/2000/svg" xmlns:xlink="http://www.w3.org/1999/xlink" x="0px" y="0px" viewBox="0 0 50 50"
	 xml:space="preserve">
<polygon style="fill:none;stroke:#000000;stroke-width:0.5;stroke-linejoin:round;stroke-miterlimit:10;" points="47,9.99 47,14.61 
	29,40.01 20,30.196 3,25 3,20.38 "/>
<polyline style="fill:none;stroke:#000000;stroke-width:0.5;stroke-linejoin:round;stroke-miterlimit:10;" points="3,20.38 
	20,25.577 29,35.392 29,40.01 "/>
<line style="fill:none;stroke:#000000;stroke-width:0.5;stroke-linejoin:round;stroke-miterlimit:10;" x1="47" y1="9.99" x2="29" y2="35.392"/>
<polyline style="fill:none;stroke:#000000;stroke-width:0.5;stroke-linejoin:round;stroke-miterlimit:10;" points="20,30.196 
	20,25.577 47,9.99 "/>
<path d="M47,9.99v4.62l-18,25.4l-9-9.814L3,25v-4.62L47,9.99 M48,8.726l-1.23,0.29l-44,10.39L2,19.589v0.791V25v0.74l0.708,0.216
	l16.739,5.117l8.816,9.613l0.837,0.913l0.716-1.01l18-25.4L48,14.928V14.61V9.99V8.726L48,8.726z"/>
</svg>