<?xml version="1.0" encoding="iso-8859-1"?><!-- Generator: Adobe Illustrator 22.1.0, SVG Export Plug-In . SVG Version: 6.00 Build 0)  --><svg xmlns="http://www.w3.org/2000/svg" xmlns:xlink="http://www.w3.org/1999/xlink" viewBox="0 0 24 24" width="384px" height="384px"><g id="outlined"><path d="M20.66,7C17.903,2.226,11.776,0.583,7,3.339C2.225,6.097,0.583,12.225,3.34,17c1.851,3.205,5.219,4.998,8.678,4.998c1.694,0,3.412-0.431,4.982-1.337C21.775,17.903,23.417,11.775,20.66,7z M18.928,8c0.364,0.631,0.63,1.3,0.81,1.986l-2.545,1.47c-0.281-0.624-0.604-1.257-0.971-1.893c-0.367-0.636-0.755-1.232-1.154-1.787l2.549-1.472C18.117,6.796,18.56,7.363,18.928,8z M16.455,18.635c-0.15,0.1-0.298,0.202-0.455,0.293c-0.159,0.092-0.322,0.168-0.485,0.248c-0.97,0.023-2.448-0.866-3.926-2.465L16.286,14C16.932,16.081,16.963,17.807,16.455,18.635z M10.463,15.341c-0.403-0.545-0.797-1.135-1.169-1.779c-0.372-0.643-0.686-1.28-0.956-1.902l5.192-2.997c0.405,0.547,0.804,1.128,1.177,1.774c0.372,0.643,0.686,1.28,0.956,1.902L10.463,15.341z M7.545,5.365C7.694,5.265,7.842,5.163,8,5.072c0.165-0.095,0.337-0.167,0.506-0.249c0.006,0,0.01-0.002,0.016-0.002c0.97,0,2.427,0.895,3.884,2.47L7.714,10C7.068,7.919,7.037,6.193,7.545,5.365z M11.986,4.001c1.451,0,2.878,0.404,4.125,1.15l-2.143,1.237c-0.872-0.993-1.778-1.782-2.665-2.344C11.531,4.026,11.759,4.001,11.986,4.001z M5.457,7.406C5.498,8.459,5.729,9.642,6.156,10.9l-2.153,1.243c-0.012-0.738,0.073-1.481,0.269-2.213C4.519,9.01,4.926,8.163,5.457,7.406z M4.262,14.014l2.545-1.47c0.281,0.624,0.604,1.257,0.971,1.893c0.368,0.637,0.756,1.23,1.156,1.786L6.39,17.693C5.889,17.199,5.44,16.638,5.072,16C4.708,15.369,4.442,14.7,4.262,14.014z M7.881,18.853l2.151-1.242c0.871,0.993,1.775,1.788,2.661,2.349C11.011,20.104,9.323,19.716,7.881,18.853z M18.543,16.594c-0.041-1.053-0.272-2.236-0.699-3.494l2.153-1.243c0.012,0.738-0.073,1.481-0.269,2.213C19.481,14.99,19.074,15.837,18.543,16.594z"/></g></svg>