<?xml version="1.0" encoding="utf-8"?>
<!-- Generator: Adobe Illustrator 22.0.1, SVG Export Plug-In . SVG Version: 6.00 Build 0)  -->
<svg version="1.1" id="Layer_1" xmlns="http://www.w3.org/2000/svg" xmlns:xlink="http://www.w3.org/1999/xlink" x="0px" y="0px"
	 viewBox="0 0 128 128" style="enable-background:new 0 0 128 128;" xml:space="preserve">
<style type="text/css">
	.st0{fill:none;stroke:#444B54;stroke-width:6;stroke-linecap:round;stroke-linejoin:round;stroke-miterlimit:10;}
</style>
<path d="M102,121H73.8c12.2-15,30.3-40.9,29.7-60.6C102.8,38.3,85.5,21,64,21S25.2,38.3,24.5,60.4c-0.6,20.7,19.5,48.3,31.6,62.8
	c2,2.4,4.9,3.7,7.9,3.7h38c1.7,0,3-1.3,3-3S103.7,121,102,121z M49.4,60.5c0-8.1,6.5-14.6,14.6-14.6s14.6,6.5,14.6,14.6
	S72.1,75.1,64,75.1S49.4,68.6,49.4,60.5z"/>
<path d="M124,127l-5.9,0c-1.5,0-2.8-1-3.1-2.4c-0.4-1.9,1.1-3.6,2.9-3.6h6c1.7,0,3,1.3,3,3l0,0C127,125.7,125.7,127,124,127z"/>
</svg>