<?xml version="1.0" encoding="utf-8"?><!-- Generator: Adobe Illustrator 17.0.2, SVG Export Plug-In . SVG Version: 6.00 Build 0)  --><!DOCTYPE svg PUBLIC "-//W3C//DTD SVG 1.1//EN" "http://www.w3.org/Graphics/SVG/1.1/DTD/svg11.dtd"><svg xmlns="http://www.w3.org/2000/svg" xmlns:xlink="http://www.w3.org/1999/xlink" viewBox="0 0 26 26" width="208px" height="208px"><path fill="none" stroke="#000000" stroke-width="2" stroke-linecap="round" stroke-linejoin="round" stroke-miterlimit="10" d="  M19.014,18.285C22.593,18.909,25,20.071,25,21.4c0,1.988-5.373,3.6-12,3.6S1,23.388,1,21.4c0-1.324,2.391-2.483,5.95-3.109"/><path fill="#000000" d="M13,0C9.686,0,7,2.687,7,6c0,3.314,5.232,11.543,5.232,16h1.536C13.768,17.558,19,9.044,19,6  C19,2.687,16.314,0,13,0z M13,9c-1.657,0-3-1.344-3-3c0-1.656,1.343-3,3-3s3,1.344,3,3C16,7.657,14.657,9,13,9z"/></svg>