<?xml version="1.0" encoding="iso-8859-1"?><!-- Generator: Adobe Illustrator 22.1.0, SVG Export Plug-In . SVG Version: 6.00 Build 0)  --><svg xmlns="http://www.w3.org/2000/svg" xmlns:xlink="http://www.w3.org/1999/xlink" viewBox="0 0 24 24" width="480px" height="480px"><g id="filled"><g><path d="M6.543,9.377l5.913-3.414C10.28,3.711,8.106,2.701,7,3.34S5.681,6.366,6.543,9.377z"/><path d="M17.457,14.623l-5.913,3.414c2.177,2.252,4.35,3.262,5.457,2.623S18.319,17.634,17.457,14.623z"/><path d="M13.789,7.503l-6.579,3.798C7.569,12.179,8.008,13.086,8.536,14s1.093,1.748,1.675,2.497l6.579-3.798c-0.358-0.878-0.798-1.785-1.325-2.699S14.371,8.252,13.789,7.503z"/><path d="M14.253,4.926l2.736-1.58c-1.86-1.068-4.03-1.527-6.177-1.273C11.952,2.719,13.124,3.684,14.253,4.926z"/><path d="M17.196,9c0.523,0.906,0.965,1.805,1.343,2.689l3.222-1.86C21.546,8.859,21.183,7.905,20.66,7s-1.167-1.696-1.899-2.368l-3.222,1.86C16.115,7.262,16.673,8.094,17.196,9z"/><path d="M4.747,10.414c-0.511-1.598-0.761-3.096-0.75-4.406C2.704,7.74,2.017,9.848,2.011,11.993L4.747,10.414z"/><path d="M19.253,13.586c0.511,1.598,0.761,3.096,0.75,4.406c1.293-1.732,1.981-3.841,1.986-5.986L19.253,13.586z"/><path d="M9.747,19.074l-2.736,1.58c1.86,1.068,4.03,1.527,6.177,1.273C12.048,21.281,10.876,20.316,9.747,19.074z"/><path d="M2.239,14.171C2.454,15.141,2.817,16.095,3.34,17s1.167,1.696,1.899,2.368l3.222-1.86C7.885,16.738,7.327,15.906,6.804,15s-0.965-1.805-1.343-2.689L2.239,14.171z"/></g></g></svg>