<?xml version="1.0" encoding="utf-8"?>
<!-- Generator: Adobe Illustrator 22.0.1, SVG Export Plug-In . SVG Version: 6.00 Build 0)  -->
<svg version="1.1" id="Layer_1" xmlns="http://www.w3.org/2000/svg" xmlns:xlink="http://www.w3.org/1999/xlink" x="0px" y="0px"
	 viewBox="0 0 128 128" style="enable-background:new 0 0 128 128;" xml:space="preserve">
<g>
	<path d="M39.1,34.2c1.3-2.6,3.1-5,5.2-7.1c2-2,4.3-3.7,6.8-5c1.5-0.8,2-2.6,1.3-4c-0.8-1.5-2.6-2-4-1.3c-3,1.6-5.8,3.6-8.3,6.1
		c-2.5,2.5-4.6,5.4-6.3,8.6c-0.8,1.5-0.2,3.3,1.3,4c0.4,0.2,0.9,0.3,1.4,0.3C37.5,35.9,38.5,35.3,39.1,34.2z"/>
	<path d="M33,44C33,44,33,44,33,44c-1.7,0-3,1.4-3,3c0,2.7,0.4,5.5,1,8.1c0.3,1.4,1.6,2.3,2.9,2.3c0.2,0,0.5,0,0.7-0.1
		c1.6-0.4,2.6-2,2.2-3.6C36.3,51.5,36,49.3,36,47C36,45.4,34.7,44,33,44z"/>
	<path d="M21.9,65.3c2.4,5.5,5.3,10.9,8.6,16c0.9,1.4,2.8,1.8,4.2,0.9c1.4-0.9,1.8-2.8,0.9-4.2c-3.1-4.8-5.8-9.8-8.1-15l-0.1-0.2
		c-6.5-15.1-3.2-32.4,8.4-44c15.6-15.6,40.9-15.6,56.5,0c11.6,11.6,15,28.9,8.6,43.9c-6.5,15.3-17.3,29.2-31.3,40.3
		c-6.4,5-13.4,9.9-18.2,13.1c-2.2,1.5-3.2,4.2-2.4,6.7c0.8,2.5,3.1,4.3,5.7,4.3H94c1.7,0,3-1.3,3-3s-1.3-3-3-3l-39.4,0
		c4.9-3.2,12-8.2,18.6-13.4C87.9,95.9,99.4,81.2,106.3,65c7.4-17.3,3.5-37.2-9.9-50.5c-17.9-17.9-47-17.9-64.9,0
		c-13.4,13.4-17.2,33.3-9.7,50.6L21.9,65.3z"/>
	<path d="M50.3,103.9c0.6,0.5,1.3,0.7,2,0.7c0.8,0,1.7-0.4,2.3-1c1.1-1.3,0.9-3.2-0.3-4.2c-2.9-2.5-5.6-5.1-8.2-7.9
		c-1.1-1.2-3-1.3-4.2-0.2c-1.2,1.1-1.3,3-0.2,4.2C44.3,98.4,47.2,101.2,50.3,103.9z"/>
	<path d="M46,47c0,9.9,8.1,18,18,18S82,57,82,47S74,29,64,29S46,37.1,46,47z M64,35c6.6,0,12,5.4,12,12s-5.4,12-12,12s-12-5.4-12-12
		S57.4,35,64,35z"/>
</g>
</svg>