<?xml version="1.0" encoding="iso-8859-1"?>
<!-- Generator: Adobe Illustrator 24.1.2, SVG Export Plug-In . SVG Version: 6.00 Build 0)  -->
<svg version="1.1" baseProfile="basic" id="Layer_1"
	 xmlns="http://www.w3.org/2000/svg" xmlns:xlink="http://www.w3.org/1999/xlink" x="0px" y="0px" viewBox="0 0 50 50"
	 xml:space="preserve">
<polygon style="fill:none;stroke:#000000;stroke-width:0.5;stroke-linecap:round;stroke-linejoin:round;stroke-miterlimit:10;" points="
	44,37.12 41,41.17 39,42.32 27,35.39 27.01,44.63 25,45.78 23,44.63 23,21.54 11,28.46 9,27.31 6,23.27 9,15.76 23,7.68 23,5.37 
	25,4.22 27,5.37 27,21.54 41,29.62 "/>
<polyline style="fill:none;stroke:#000000;stroke-width:0.5;stroke-linecap:round;stroke-linejoin:round;stroke-miterlimit:10;" points="
	27,5.37 25,6.525 23,5.37 "/>
<polygon style="fill:none;stroke:#000000;stroke-width:0.5;stroke-linecap:round;stroke-linejoin:round;stroke-miterlimit:10;" points="
	25.002,8.834 11.002,16.917 8,24.423 11.002,28.464 25.002,20.381 "/>
<path d="M25,4.22l2,1.15v16.17l14,8.08l3,7.5l-3,4.05l-2,1.15l-12-6.93l0.01,9.24L25,45.78l-2-1.15V21.54l-12,6.92l-2-1.15l-3-4.04
	l3-7.51l14-8.08V5.37L25,4.22 M25,3.066l-0.498,0.287l-2,1.15L22,4.791V5.37v1.733L8.5,14.894l-0.3,0.173l-0.129,0.322l-3,7.51
	l-0.207,0.519l0.333,0.448l3,4.04l0.124,0.167l0.18,0.104l2,1.15l0.499,0.287l0.499-0.288L22,23.271V44.63v0.579l0.502,0.288l2,1.15
	l0.497,0.286l0.498-0.285l2.01-1.15l0.504-0.288l-0.001-0.581l-0.008-7.506L38.5,43.186l0.499,0.288l0.5-0.287l2-1.15l0.181-0.104
	l0.124-0.168l3-4.05l0.332-0.448l-0.207-0.518l-3-7.5L41.8,28.927l-0.3-0.173L28,20.963V5.37V4.791l-0.502-0.288l-2-1.15L25,3.066
	L25,3.066z"/>
<line style="fill:none;stroke:#000000;stroke-width:0.5;stroke-linecap:round;stroke-linejoin:round;stroke-miterlimit:10;" x1="25" y1="6.525" x2="25" y2="45.78"/>
<line style="fill:none;stroke:#000000;stroke-width:0.5;stroke-linecap:round;stroke-linejoin:round;stroke-miterlimit:10;" x1="25.002" y1="8.834" x2="23" y2="7.68"/>
<polyline style="fill:none;stroke:#000000;stroke-width:0.5;stroke-linecap:round;stroke-linejoin:round;stroke-miterlimit:10;" points="
	11,28.46 8,24.423 11.002,16.917 25.002,8.834 "/>
<line style="fill:none;stroke:#000000;stroke-width:0.5;stroke-linecap:round;stroke-linejoin:round;stroke-miterlimit:10;" x1="9" y1="15.76" x2="11.002" y2="16.917"/>
<line style="fill:none;stroke:#000000;stroke-width:0.5;stroke-linecap:round;stroke-linejoin:round;stroke-miterlimit:10;" x1="8" y1="24.423" x2="6" y2="23.27"/>
<line style="fill:none;stroke:#000000;stroke-width:0.5;stroke-linecap:round;stroke-linejoin:round;stroke-miterlimit:10;" x1="25.002" y1="22.691" x2="27" y2="21.54"/>
<polyline style="fill:none;stroke:#000000;stroke-width:0.5;stroke-linecap:round;stroke-linejoin:round;stroke-miterlimit:10;" points="
	25.002,34.238 39,42.32 42.002,38.279 39.002,30.774 25.002,22.691 "/>
<line style="fill:none;stroke:#000000;stroke-width:0.5;stroke-linecap:round;stroke-linejoin:round;stroke-miterlimit:10;" x1="39.002" y1="30.774" x2="41" y2="29.62"/>
<line style="fill:none;stroke:#000000;stroke-width:0.5;stroke-linecap:round;stroke-linejoin:round;stroke-miterlimit:10;" x1="42.002" y1="38.279" x2="44" y2="37.12"/>
<polygon style="fill:none;stroke:#000000;stroke-width:0.5;stroke-linecap:round;stroke-linejoin:round;stroke-miterlimit:10;" points="
	44,37.12 41,41.17 39,42.32 27,35.39 27.01,44.63 25,45.78 23,44.63 23,21.54 11,28.46 9,27.31 6,23.27 9,15.76 23,7.68 23,5.37 
	25,4.22 27,5.37 27,21.54 41,29.62 "/>
</svg>