<?xml version="1.0" encoding="iso-8859-1"?><!-- Generator: Adobe Illustrator 21.0.2, SVG Export Plug-In . SVG Version: 6.00 Build 0)  --><svg xmlns="http://www.w3.org/2000/svg" xmlns:xlink="http://www.w3.org/1999/xlink" viewBox="0 0 80 80" width="480px" height="480px"><circle cx="22" cy="22" r="1"/><circle cx="25" cy="25" r="1"/><circle cx="25" cy="19" r="1"/><circle cx="30" cy="20" r="1"/><circle cx="35" cy="15" r="1"/><circle cx="39" cy="23" r="1"/><circle cx="43" cy="25" r="1"/><circle cx="46.192" cy="27.986" r="1"/><circle cx="52" cy="34" r="1"/><circle cx="52.192" cy="21.986" r="1"/><circle cx="48.192" cy="19.986" r="1"/><circle cx="44.192" cy="17.986" r="1"/><circle cx="58" cy="28" r="1"/><circle cx="60" cy="32" r="1"/><circle cx="62" cy="36" r="1"/><circle cx="65" cy="46" r="1"/><circle cx="55" cy="37" r="1"/><circle cx="57" cy="41" r="1"/><circle cx="60" cy="50" r="1"/><circle cx="61" cy="55" r="1"/><circle cx="55" cy="61" r="1"/><circle cx="50" cy="60" r="1"/><circle cx="45" cy="65" r="1"/><circle cx="41" cy="57" r="1"/><circle cx="37" cy="55" r="1"/><circle cx="33.808" cy="52.014" r="1"/><circle cx="28" cy="46" r="1"/><circle cx="27.808" cy="58.014" r="1"/><circle cx="31.808" cy="60.014" r="1"/><circle cx="35.808" cy="62.014" r="1"/><circle cx="22" cy="52" r="1"/><circle cx="20" cy="48" r="1"/><circle cx="18" cy="44" r="1"/><circle cx="15" cy="34" r="1"/><circle cx="25" cy="43" r="1"/><circle cx="23" cy="39" r="1"/><circle cx="20" cy="30" r="1"/><circle cx="19" cy="25" r="1"/><circle cx="28" cy="28" r="1"/><circle cx="31" cy="31" r="1"/><circle cx="34" cy="34" r="1"/><circle cx="37" cy="37" r="1"/><circle cx="40" cy="40" r="1"/><circle cx="43" cy="43" r="1"/><circle cx="46" cy="46" r="1"/><circle cx="49" cy="49" r="1"/><circle cx="52" cy="52" r="1"/><circle cx="55" cy="55" r="1"/><circle cx="58" cy="58" r="1"/><circle cx="58" cy="22" r="1"/><circle cx="52" cy="28" r="1"/><circle cx="46" cy="34" r="1"/><circle cx="49" cy="31" r="1"/><circle cx="55" cy="25" r="1"/><circle cx="31" cy="49" r="1"/><circle cx="25" cy="55" r="1"/><circle cx="43" cy="37" r="1"/><circle cx="55" cy="49" r="1"/><circle cx="58" cy="46" r="1"/><circle cx="61" cy="43" r="1"/><circle cx="64" cy="40" r="1"/><circle cx="67" cy="37" r="1"/><circle cx="37" cy="67" r="1"/><circle cx="40" cy="64" r="1"/><circle cx="43" cy="61" r="1"/><circle cx="46" cy="58" r="1"/><circle cx="49" cy="55" r="1"/><circle cx="31" cy="25" r="1"/><circle cx="34" cy="22" r="1"/><circle cx="37" cy="19" r="1"/><circle cx="40" cy="16" r="1"/><circle cx="43" cy="13" r="1"/><circle cx="13" cy="43" r="1"/><circle cx="16" cy="40" r="1"/><circle cx="19" cy="37" r="1"/><circle cx="22" cy="34" r="1"/><circle cx="25" cy="31" r="1"/><circle cx="37" cy="43" r="1"/><circle cx="34" cy="46" r="1"/><circle cx="28" cy="52" r="1"/><circle cx="22" cy="58" r="1"/><circle style="fill:none;stroke:#000000;stroke-width:2;stroke-miterlimit:10;" cx="40" cy="40" r="29"/><path style="fill:none;stroke:#000000;stroke-width:2;stroke-miterlimit:10;" d="M20.883,11.883C11.9,18.002,6,28.311,6,40c0,18.778,15.222,34,34,34c11.689,0,21.998-5.9,28.117-14.883"/><line style="fill:none;stroke:#000000;stroke-width:2;stroke-miterlimit:10;" x1="10" y1="10" x2="19" y2="19"/><line style="fill:none;stroke:#000000;stroke-width:2;stroke-miterlimit:10;" x1="60.5" y1="60.5" x2="70" y2="70"/></svg>