<?xml version="1.0" encoding="iso-8859-1"?><!-- Generator: Adobe Illustrator 21.1.0, SVG Export Plug-In . SVG Version: 6.00 Build 0)  --><svg xmlns="http://www.w3.org/2000/svg" xmlns:xlink="http://www.w3.org/1999/xlink" viewBox="0 0 50 50" width="50px" height="50px"><polyline points="5,41 0,37 5,33 "/><path d="M10,14v29c0,0.55,0.45,1,1,1h28c0.55,0,1-0.45,1-1V14H10z M30,20H20c-0.55,0-1-0.45-1-1s0.45-1,1-1h10c0.55,0,1,0.45,1,1S30.55,20,30,20z"/><path d="M24,5v7H10.43l3.91-6.51C14.52,5.18,14.85,5,15.2,5H24z"/><path d="M39.57,12H26V5h8.8c0.35,0,0.68,0.18,0.86,0.49L39.57,12z"/><line style="fill:none;stroke:#000000;stroke-width:2;stroke-miterlimit:10;" x1="2" y1="37" x2="8" y2="37"/><polyline points="45,23 50,19 45,15 "/><line style="fill:none;stroke:#000000;stroke-width:2;stroke-miterlimit:10;" x1="48" y1="19" x2="42" y2="19"/><line style="fill:none;stroke:#000000;stroke-width:2;stroke-miterlimit:10;" x1="42" y1="37" x2="46" y2="37"/><line style="fill:none;stroke:#000000;stroke-width:2;stroke-linecap:round;stroke-miterlimit:10;" x1="45" y1="37" x2="49" y2="37"/><line style="fill:none;stroke:#000000;stroke-width:2;stroke-miterlimit:10;" x1="8" y1="19" x2="4" y2="19"/><line style="fill:none;stroke:#000000;stroke-width:2;stroke-linecap:round;stroke-miterlimit:10;" x1="5" y1="19" x2="1" y2="19"/></svg>