<?xml version="1.0" encoding="iso-8859-1"?>
<!-- Generator: Adobe Illustrator 24.0.3, SVG Export Plug-In . SVG Version: 6.00 Build 0)  -->
<svg version="1.1" id="Layer_1" xmlns="http://www.w3.org/2000/svg" xmlns:xlink="http://www.w3.org/1999/xlink" x="0px" y="0px"
	 viewBox="0 0 50 50" style="enable-background:new 0 0 50 50;" xml:space="preserve">
<g>
</g>
<g>
	<g>
		<path d="M32.373,14.638c-0.385,0-0.75-0.227-0.911-0.604c-0.215-0.504,0.02-1.087,0.523-1.301l13.666-5.829
			c0.504-0.216,1.084,0.02,1.299,0.524c0.215,0.504-0.02,1.087-0.523,1.301l-13.666,5.829
			C32.634,14.612,32.503,14.638,32.373,14.638z"/>
	</g>
	<g>
		<polygon points="29,10.77 35.106,12.479 32.102,18.075 31.462,14.034 		"/>
	</g>
	<g>
		<polygon points="30.318,3.737 43.306,8.982 38.073,21.999 37.84,11.314 		"/>
	</g>
	<path d="M4,31.999v13h31v-9h5v9h5v-13H4z M19,39.999H8v-4h11V39.999z M32,39.999H21v-4h11V39.999z"/>
	<rect x="8" y="17.999" width="12" height="14"/>
	<polygon points="17,17.999 11,17.999 8,12.999 8,8.999 20,8.999 20,12.999 	"/>
	
		<line style="fill:none;stroke:#000000;stroke-width:2;stroke-linejoin:round;stroke-miterlimit:10;" x1="14" y1="8.999" x2="14" y2="1.999"/>
</g>
</svg>