<?xml version="1.0" encoding="iso-8859-1"?>
<!-- Generator: Adobe Illustrator 24.3.0, SVG Export Plug-In . SVG Version: 6.00 Build 0)  -->
<svg version="1.1" id="Layer_1_1_" xmlns="http://www.w3.org/2000/svg" xmlns:xlink="http://www.w3.org/1999/xlink" x="0px" y="0px"
	 viewBox="0 0 48 48" style="enable-background:new 0 0 48 48;" xml:space="preserve">
<path d="M20.608,22.721L14,18H6.5C4.57,18,3,16.43,3,14.5v-8C3,4.57,4.57,3,6.5,3h12.98C21.41,3,23,4.57,23,6.5v15
	c0,0.562-0.334,1.076-0.833,1.334C21.95,22.945,21.715,23,21.48,23C21.174,23,20.868,22.906,20.608,22.721z"/>
<path d="M44.342,25.404l-4.513-5.641c-1-8.778-7.63-15.515-15.982-16.595C24.555,4.095,25,5.247,25,6.5v15
	c0,1.315-0.746,2.507-1.92,3.113C22.588,24.866,22.034,25,21.48,25c-0.734,0-1.438-0.225-2.035-0.652L13.359,20H6.5
	c-1.212,0-2.33-0.399-3.24-1.065C3.101,19.935,3,20.954,3,22c0,5.271,2.165,10.351,5.946,13.936C10.268,37.191,11,38.8,11,40.468
	V43.5c0,0.828,0.669,1.5,1.497,1.5s16.172,0,17,0s1.5-0.672,1.5-1.5v-0.559c0-0.216,0.138-0.406,0.342-0.475l5.58-1.86
	c1.841-0.613,3.078-2.328,3.078-4.269v-5.174l2.992-1.047c0.918-0.322,1.626-1.072,1.895-2.007S44.949,26.164,44.342,25.404z"/>
</svg>