<?xml version="1.0" encoding="iso-8859-1"?><!-- Generator: Adobe Illustrator 19.2.1, SVG Export Plug-In . SVG Version: 6.00 Build 0)  --><svg xmlns="http://www.w3.org/2000/svg" xmlns:xlink="http://www.w3.org/1999/xlink" viewBox="0 0 50 50" width="500px" height="500px"><path style="fill:none;stroke:#000000;stroke-width:2;stroke-linecap:round;stroke-miterlimit:10;" d="M33.535,4C26.641,4,21,8.944,21,15.072c0,3.134,1.462,5.989,3.83,8.008c-0.627,2.786-4.039,3.9-3.83,4.666c2.089,1.184,7.334-1.259,9.145-2.025C31.05,25.93,32.025,26,33,26c6.894,0,13-4.799,13-10.928S40.429,4,33.535,4z"/><path d="M33,26c-0.975,0-1.95-0.07-2.855-0.279c-1.811,0.766-7.056,3.209-9.145,2.025c-0.209-0.766,3.203-1.88,3.83-4.666C22.462,21.061,21,18.206,21,15.072c0-5.625,4.757-10.241,10.869-10.963C29.843,3.41,27.544,3,24.922,3C14.344,3,8.599,8.275,7.365,19.125l-4.028,6.942c-0.713,1.283-0.272,2.844,1.041,3.574l3.043,1.521l0.98,6.781c0.406,2.533,2.73,5.181,5.562,5.056H17v4h20v-6.406c0-2.861,0.969-5.758,2.796-8.367c2.062-2.87,2.965-6.92,3.161-10.184C40.524,24.473,36.888,26,33,26z"/><circle cx="33.5" cy="14.5" r="1.5"/><circle cx="39.5" cy="14.5" r="1.5"/><circle cx="27.5" cy="14.5" r="1.5"/></svg>