<?xml version="1.0" encoding="iso-8859-1"?><!-- Generator: Adobe Illustrator 19.2.1, SVG Export Plug-In . SVG Version: 6.00 Build 0)  --><svg xmlns="http://www.w3.org/2000/svg" xmlns:xlink="http://www.w3.org/1999/xlink" viewBox="0 0 50 50" width="500px" height="500px"><circle style="fill:none;stroke:#000000;stroke-width:2;stroke-miterlimit:10;" cx="33" cy="19" r="13"/><circle cx="33" cy="19" r="2"/><polyline style="fill:none;stroke:#000000;stroke-width:2;stroke-linecap:round;stroke-miterlimit:10;" points="33,22 33,19 33,10 "/><circle cx="33" cy="10" r="1"/><ellipse transform="matrix(0.6719 -0.7406 0.7406 0.6719 -0.7701 24.2615)" cx="27" cy="13" rx="1" ry="1"/><ellipse transform="matrix(0.6719 -0.7406 0.7406 0.6719 3.1667 33.1488)" cx="39" cy="13" rx="1" ry="1"/><ellipse transform="matrix(0.6719 -0.7406 0.7406 0.6719 -5.7206 37.0857)" cx="39" cy="25" rx="1" ry="1"/><ellipse transform="matrix(0.6719 -0.7406 0.7406 0.6719 -9.6575 28.1983)" cx="27" cy="25" rx="1" ry="1"/><circle cx="24" cy="19" r="1"/><circle cx="42" cy="19" r="1"/><circle cx="33" cy="28" r="1"/><line style="fill:none;stroke:#000000;stroke-width:2;stroke-miterlimit:10;" x1="43.586" y1="5.586" x2="46.414" y2="8.414"/><line style="fill:none;stroke:#000000;stroke-width:2;stroke-miterlimit:10;" x1="42" y1="10" x2="45" y2="7"/><line style="fill:none;stroke:#000000;stroke-width:2;stroke-miterlimit:10;" x1="33" y1="3" x2="33" y2="6"/><path d="M33,32c-7.18,0-13-5.82-13-13c0-6.144,4.271-11.27,10-12.627V3.574C28.454,3.209,26.77,3,24.922,3C14.344,3,8.599,8.275,7.365,19.126l-4.028,6.941c-0.713,1.284-0.272,2.846,1.041,3.574l3.043,1.521l0.98,6.781c0.406,2.533,2.735,5.166,5.562,5.056H17v4h20v-6.406c0-2.861,0.969-5.758,2.795-8.367c0.742-1.032,1.314-2.222,1.774-3.467C39.28,30.771,36.287,32,33,32z"/></svg>