<?xml version="1.0" encoding="iso-8859-1"?>
<!-- Generator: Adobe Illustrator 24.3.0, SVG Export Plug-In . SVG Version: 6.00 Build 0)  -->
<svg version="1.1" id="Layer_1_1_" xmlns="http://www.w3.org/2000/svg" xmlns:xlink="http://www.w3.org/1999/xlink" x="0px" y="0px"
	 viewBox="0 0 48 48" style="enable-background:new 0 0 48 48;" xml:space="preserve">
<path d="M44.345,25.404l-4.513-5.641C38.739,10.175,30.936,3,21.5,3c-0.842,0-1.664,0.078-2.477,0.191
	c1.838,1.89,2.976,4.463,2.977,7.3c0,2.729-1.083,5.375-2.984,7.326l-1.31,5.221c-0.509,2.295-2.588,3.964-5.034,3.964h-2.345
	c-2.444,0-4.523-1.667-5.057-4.054l-1.289-5.133C3.84,17.67,3.713,17.514,3.58,17.361C3.215,18.849,3,20.397,3,22
	c0,5.271,2.168,10.351,5.949,13.936C10.271,37.19,11,38.8,11,40.468V43.5c0,0.828,0.672,1.5,1.5,1.5s16.172,0,17,0
	s1.5-0.672,1.5-1.5v-0.559c0-0.216,0.138-0.406,0.342-0.475l5.58-1.86C38.763,39.993,40,38.278,40,36.338v-5.174l2.992-1.047
	c0.918-0.322,1.626-1.072,1.895-2.007C45.156,27.175,44.952,26.164,44.345,25.404z"/>
<path style="fill:none;stroke:#000000;stroke-width:3;stroke-miterlimit:10;" d="M11.499,3.5c-3.865,0.001-7,3.126-7,6.991
	c0,2.004,0.845,3.808,2.195,5.084c0.312,0.295,0.518,0.684,0.611,1.103l1.382,5.507c0.171,0.769,0.853,1.316,1.64,1.316h2.345
	c0.787,0,1.469-0.547,1.64-1.316l1.382-5.507c0.093-0.419,0.299-0.808,0.611-1.103c1.35-1.275,2.195-3.08,2.195-5.084
	C18.499,6.626,15.364,3.501,11.499,3.5z"/>
<line style="fill:none;stroke:#000000;stroke-width:3;stroke-miterlimit:10;" x1="8.515" y1="21.5" x2="14.483" y2="21.5"/>
</svg>