<?xml version="1.0" encoding="iso-8859-1"?><!-- Generator: Adobe Illustrator 22.0.1, SVG Export Plug-In . SVG Version: 6.00 Build 0)  --><svg xmlns="http://www.w3.org/2000/svg" xmlns:xlink="http://www.w3.org/1999/xlink" viewBox="0 0 64 64" width="512px" height="512px"><g><path d="M63.021,31.168c-0.353-1.722-1.216-2.85-2.431-3.175c-0.38-0.101-0.919-0.14-1.569,0.07c-0.055-2.36-0.388-4.372-1.021-6.084c-0.25-0.67-0.17-0.91-0.18-0.91c0.29-0.23,1.75-0.03,3.15,0.55c0.34,0.14,0.74,0.08,1.02-0.16c0.29-0.24,0.42-0.61,0.34-0.98C59.8,8.91,51.21,2,39.36,2h-1.61c-3.09,0-7.36,0.86-10.41,2.51C24.58,1.75,20.52,0,16,0C7.73,0,1,5.84,1,13.02c0,7.19,6.73,13.03,15,13.03h0.07c0.01,0.01,0.01,0.03,0.01,0.04c0.04,0.28,0.09,0.51,0.11,0.71c0.045,0.333,0.078,0.756,0.104,1.204c-0.567-0.147-1.038-0.102-1.38-0.01c-2.322,0.622-3.246,4.179-2.149,8.272c0.854,3.19,2.648,5.533,4.535,6.046c3.124,9.842,11.04,19.603,20.452,19.603s17.328-9.761,20.452-19.603c1.887-0.513,3.681-2.855,4.535-6.046C63.224,34.458,63.323,32.647,63.021,31.168z M15.76,24.05C8.7,23.94,3,19.03,3,13.02C3,6.95,8.83,2,16,2c3.62,0,6.9,1.26,9.26,3.29c0.64,0.56,1.22,1.17,1.71,1.83c1.29,1.71,2.03,3.73,2.03,5.9c0,0.99-0.15,1.97-0.45,2.9c-0.2,0.63-0.47,1.25-0.8,1.84c-0.75,1.34-1.82,2.55-3.17,3.55c-0.44,0.33-0.92,0.64-1.42,0.91c-0.12,0.08-0.25,0.15-0.37,0.21c-0.34,0.17-0.55,0.54-0.54,0.92c0.04,0.82,0.17,2.15,0.62,3.61c-1.75-0.93-2.53-2.22-2.76-2.69c-0.17-0.34-0.52-0.54-0.89-0.54c-0.07,0-0.13,0-0.2,0.02c-0.42,0.08-0.84,0.15-1.26,0.2c-0.472,0.057-0.951,0.082-1.431,0.091c0-0.005-0.001-0.008-0.001-0.013C16.12,24.016,16,24,16,24c-0.001-0.005,0.01,0.017,0.025,0.049c-0.008,0-0.016,0.001-0.025,0.001H15.76z M60.808,35.748c-0.816,3.047-2.483,4.669-3.373,4.669c0,0,0,0-0.001,0h-0.001c-0.442,0-0.832,0.291-0.959,0.715C53.7,50.466,46.379,59.914,37.752,59.914S21.804,50.466,19.03,41.132c-0.127-0.424-0.517-0.715-0.959-0.715H18.07c-0.001,0-0.001,0-0.001,0c-0.89,0-2.557-1.622-3.373-4.669c-0.858-3.204-0.138-5.589,0.735-5.823c0.283-0.072,0.654,0.106,0.912,0.274c0.003,0.002,0.007,0.002,0.01,0.004c-0.001,0.262-0.005,0.5-0.013,0.677c-0.02,0.55,0.4,1.02,0.95,1.05c0.54,0.04,1.02-0.4,1.05-0.95c0.04-0.95,0-3.15-0.16-4.44c-0.02-0.18-0.06-0.38-0.11-0.62c0.22-0.02,0.43-0.05,0.64-0.09c0.75,1.14,2.46,3.06,5.75,3.85c0.07,0.02,0.15,0.03,0.23,0.03c0.31,0,0.6-0.14,0.8-0.4c0.24-0.31,0.27-0.74,0.07-1.09c-0.87-1.58-1.17-3.3-1.27-4.34c2.32-1.33,4.11-3.14,5.27-5.24l0.56,0.27c4.57,2.22,9.39,3.35,14.34,3.35c0.56,0,1-0.45,1-1c0-0.55-0.44-1-1-1c-4.64,0-9.17-1.06-13.46-3.15l-0.63-0.31c0.41-1.2,0.63-2.47,0.63-3.78c0-2.56-0.85-4.94-2.32-6.95C31.37,4.72,35.11,4,37.75,4h1.61c10.41,0,17.82,5.51,20.58,15.19c-1.2-0.28-2.65-0.38-3.5,0.43c-0.7,0.68-0.81,1.7-0.31,3.05c0.78,2.12,1.05,4.8,0.83,8.19c-0.04,0.56,0.38,1.03,0.93,1.07h0.07c0.52,0,0.96-0.41,1-0.94c0.016-0.248,0.022-0.483,0.033-0.724c0.056-0.023,0.115-0.032,0.167-0.066c0.257-0.168,0.62-0.353,0.912-0.274c0.433,0.116,0.802,0.73,0.989,1.644C61.3,32.733,61.207,34.257,60.808,35.748z"/><path d="M51.982,20.262h-3.222c-0.553,0-1,0.447-1,1s0.447,1,1,1h3.222c0.553,0,1-0.447,1-1S52.535,20.262,51.982,20.262z"/><circle cx="29" cy="32" r="2"/><circle cx="48" cy="32" r="2"/><path d="M37.553,6.003c-0.551,0.045-0.961,0.526-0.917,1.077l0.155,1.933c0.042,0.523,0.479,0.92,0.996,0.92c0.026,0,0.054-0.001,0.081-0.003c0.551-0.045,0.961-0.526,0.917-1.077L38.63,6.92C38.586,6.37,38.118,5.963,37.553,6.003z"/><path d="M51.877,11.535l-1.153,1.485c-0.339,0.437-0.26,1.064,0.177,1.403c0.183,0.142,0.398,0.21,0.612,0.21c0.299,0,0.594-0.133,0.791-0.387l1.153-1.485c0.339-0.437,0.26-1.064-0.177-1.403C52.843,11.02,52.216,11.101,51.877,11.535z"/><path d="M46.979,11.69c0.129,0.056,0.264,0.082,0.396,0.082c0.388,0,0.756-0.226,0.919-0.604l0.759-1.758c0.219-0.507-0.015-1.096-0.521-1.314c-0.509-0.219-1.096,0.016-1.314,0.521l-0.759,1.758C46.238,10.883,46.472,11.472,46.979,11.69z"/><path d="M43.167,6.271c-0.547-0.091-1.059,0.28-1.148,0.826l-0.312,1.91c-0.089,0.545,0.281,1.059,0.826,1.148c0.055,0.009,0.108,0.013,0.162,0.013c0.481,0,0.905-0.349,0.986-0.839l0.312-1.91C44.082,6.875,43.712,6.361,43.167,6.271z"/><circle cx="9" cy="13" r="2"/><circle cx="16" cy="13" r="2"/><circle cx="23" cy="13" r="2"/></g></svg>