<?xml version="1.0" encoding="iso-8859-1"?>
<!-- Generator: Adobe Illustrator 24.3.0, SVG Export Plug-In . SVG Version: 6.00 Build 0)  -->
<svg version="1.1" id="Layer_1_1_" xmlns="http://www.w3.org/2000/svg" xmlns:xlink="http://www.w3.org/1999/xlink" x="0px" y="0px"
	 viewBox="0 0 48 48" style="enable-background:new 0 0 48 48;" xml:space="preserve">
<path d="M6.301,25.066c-0.485-0.604-0.851-1.316-1.03-2.119l-1.289-5.133c-0.141-0.145-0.268-0.301-0.4-0.453
	C3.215,18.849,3,20.397,3,22c0,5.271,2.168,10.351,5.949,13.936C10.271,37.19,11,38.8,11,40.468V43.5c0,0.828,0.672,1.5,1.5,1.5
	s1.5-0.672,1.5-1.5v-3.032c0-2.499-1.061-4.882-2.986-6.709C8.569,31.441,6.934,28.376,6.301,25.066z"/>
<path d="M44.345,25.404l-4.513-5.641C38.739,10.175,30.936,3,21.5,3c-0.842,0-1.664,0.078-2.477,0.191
	c0.803,0.826,1.465,1.784,1.964,2.836C21.159,6.021,21.327,6,21.5,6c8.022,0,14.64,6.23,15.391,14.492
	c0.027,0.293,0.139,0.571,0.323,0.802l4.787,5.992l-3.996,1.397C37.403,28.895,37,29.462,37,30.1v6.239
	c0,0.647-0.411,1.219-1.025,1.423l-5.581,1.86C28.962,40.1,28,41.434,28,42.942V43.5c0,0.828,0.672,1.5,1.5,1.5s1.5-0.672,1.5-1.5
	v-0.558c0-0.216,0.138-0.406,0.343-0.475l5.58-1.859C38.764,39.996,40,38.28,40,36.339v-5.175l2.992-1.046
	c0.918-0.322,1.626-1.072,1.895-2.008C45.155,27.176,44.953,26.164,44.345,25.404z"/>
<path style="fill:none;stroke:#000000;stroke-width:3;stroke-miterlimit:10;" d="M11.499,3.5c-3.865,0.001-7,3.126-7,6.991
	c0,2.004,0.845,3.808,2.195,5.084c0.312,0.295,0.518,0.684,0.611,1.103l1.382,5.507c0.171,0.769,0.853,1.316,1.64,1.316h2.345
	c0.787,0,1.469-0.547,1.64-1.316l1.382-5.507c0.093-0.419,0.299-0.808,0.611-1.103c1.35-1.275,2.195-3.08,2.195-5.084
	C18.499,6.626,15.364,3.501,11.499,3.5z"/>
<line style="fill:none;stroke:#000000;stroke-width:3;stroke-miterlimit:10;" x1="8.515" y1="21.5" x2="14.483" y2="21.5"/>
</svg>