<?xml version="1.0" encoding="iso-8859-1"?><!-- Generator: Adobe Illustrator 19.2.1, SVG Export Plug-In . SVG Version: 6.00 Build 0)  --><svg xmlns="http://www.w3.org/2000/svg" xmlns:xlink="http://www.w3.org/1999/xlink" viewBox="0 0 50 50" width="500px" height="500px"><line style="fill:none;stroke:#000000;stroke-width:2;stroke-linejoin:round;stroke-miterlimit:10;" x1="36" y1="3" x2="36" y2="7"/><circle style="fill:none;stroke:#000000;stroke-width:2;stroke-linejoin:round;stroke-miterlimit:10;" cx="36" cy="10" r="3"/><line style="fill:none;stroke:#000000;stroke-width:2;stroke-linejoin:round;stroke-miterlimit:10;" x1="36" y1="20" x2="36" y2="26"/><line style="fill:none;stroke:#000000;stroke-width:2;stroke-linecap:round;stroke-linejoin:round;stroke-miterlimit:10;" x1="37.873" y1="13.003" x2="45" y2="30"/><line style="fill:none;stroke:#000000;stroke-width:2;stroke-linecap:round;stroke-linejoin:round;stroke-miterlimit:10;" x1="46" y1="23" x2="26" y2="23"/><line style="fill:none;stroke:#000000;stroke-width:2;stroke-linecap:round;stroke-linejoin:round;stroke-miterlimit:10;" x1="34.106" y1="13" x2="27" y2="30"/><path d="M31.088,28l-1.319,3.156C29.301,32.276,28.214,33,27,33c-0.4,0-0.79-0.078-1.156-0.232c-0.74-0.309-1.315-0.888-1.619-1.629c-0.304-0.741-0.302-1.556,0.008-2.296l1.21-2.895C24.054,25.686,23,24.464,23,23c0-1.654,1.346-3,3-3h1.928l2.907-6.955C30.291,12.128,30,11.083,30,10c0-2.174,1.178-4.13,3-5.181v-0.3C30.723,3.553,28.037,3,24.922,3C14.344,3,8.599,8.275,7.365,19.126l-4.028,6.941c-0.713,1.284-0.272,2.846,1.041,3.574l3.043,1.521l0.98,6.781c0.406,2.533,2.74,5.151,5.562,5.056H17v4h20v-6.406c0-2.861,0.969-5.758,2.795-8.367c0.654-0.91,1.181-1.943,1.617-3.028L40.909,28H31.088z"/></svg>