<?xml version="1.0" encoding="iso-8859-1"?>
<!-- Generator: Adobe Illustrator 24.3.0, SVG Export Plug-In . SVG Version: 6.00 Build 0)  -->
<svg version="1.1" id="Layer_1_1_" xmlns="http://www.w3.org/2000/svg" xmlns:xlink="http://www.w3.org/1999/xlink" x="0px" y="0px"
	 viewBox="0 0 48 48" style="enable-background:new 0 0 48 48;" xml:space="preserve">
<g>
</g>
<path d="M20.608,22.721L14,18H6.5C4.57,18,3,16.43,3,14.5v-8C3,4.57,4.57,3,6.5,3h12.98c1.93,0,3.5,1.57,3.5,3.5v15
	c0,0.562-0.314,1.076-0.813,1.334C21.95,22.945,21.715,23,21.48,23C21.174,23,20.868,22.906,20.608,22.721z"/>
<path d="M44.345,25.404l-4.513-5.641c-1-8.779-7.632-15.517-15.986-16.595c0.692,0.905,1.112,2.028,1.13,3.249
	c6.384,1.502,11.275,7.045,11.914,14.074c0.027,0.293,0.139,0.571,0.323,0.802l4.787,5.991l-3.996,1.398
	C37.403,28.895,37,29.462,37,30.1v6.238c0,0.646-0.412,1.218-1.026,1.423l-5.581,1.86C28.961,40.099,28,41.433,28,42.941V43.5
	c0,0.828,0.672,1.5,1.5,1.5s1.5-0.672,1.5-1.5v-0.559c0-0.216,0.138-0.406,0.342-0.475l5.58-1.86C38.763,39.993,40,38.278,40,36.338
	v-5.174l2.992-1.047c0.918-0.322,1.626-1.072,1.895-2.007S44.952,26.164,44.345,25.404z"/>
<path d="M6,22c0-0.685,0.056-1.356,0.137-2.018c-1.071-0.07-2.057-0.447-2.874-1.045C3.104,19.937,3,20.955,3,22
	c0,5.271,2.168,10.351,5.949,13.936C10.271,37.19,11,38.8,11,40.468V43.5c0,0.828,0.672,1.5,1.5,1.5s1.5-0.672,1.5-1.5v-3.032
	c0-2.499-1.061-4.882-2.986-6.709C7.827,30.737,6,26.451,6,22z"/>
</svg>