<?xml version="1.0" encoding="iso-8859-1"?><!-- Generator: Adobe Illustrator 19.2.1, SVG Export Plug-In . SVG Version: 6.00 Build 0)  --><svg xmlns="http://www.w3.org/2000/svg" xmlns:xlink="http://www.w3.org/1999/xlink" viewBox="0 0 50 50" width="500px" height="500px"><path style="fill:none;stroke:#000000;stroke-width:2;stroke-linejoin:round;stroke-miterlimit:10;" d="M29,4h-5v21h22V4h-3"/><line style="fill:none;stroke:#000000;stroke-width:2;stroke-linejoin:round;stroke-miterlimit:10;" x1="41" y1="4" x2="31" y2="4"/><line style="fill:none;stroke:#000000;stroke-width:2;stroke-linejoin:round;stroke-miterlimit:10;" x1="24" y1="9" x2="46" y2="9"/><path style="fill:none;stroke:#000000;stroke-width:2;stroke-linecap:round;stroke-linejoin:round;stroke-miterlimit:10;" d="M29,2v4"/><path style="fill:none;stroke:#000000;stroke-width:2;stroke-linecap:round;stroke-linejoin:round;stroke-miterlimit:10;" d="M41,2v4"/><rect x="28" y="12" width="2" height="2"/><rect x="32" y="12" width="2" height="2"/><rect x="36" y="12" width="2" height="2"/><rect x="40" y="12" width="2" height="2"/><rect x="28" y="16" width="2" height="2"/><rect x="32" y="16" width="2" height="2"/><rect x="36" y="16" width="2" height="2"/><rect x="40" y="16" width="2" height="2"/><rect x="28" y="20" width="2" height="2"/><rect x="32" y="20" width="2" height="2"/><rect x="36" y="20" width="2" height="2"/><rect x="40" y="20" width="2" height="2"/><path d="M25,25V4h1V3.049C25.642,3.03,25.294,3,24.922,3C14.344,3,8.599,8.275,7.365,19.126l-4.028,6.941c-0.713,1.284-0.272,2.846,1.041,3.574l3.043,1.521l0.98,6.781c0.406,2.533,2.735,5.151,5.562,5.056H17v4h20v-6.406c0-2.861,0.969-5.758,2.795-8.367c1.124-1.563,1.895-3.479,2.404-5.425L42.448,25H25z"/></svg>