<?xml version="1.0" encoding="iso-8859-1"?><!-- Generator: Adobe Illustrator 21.1.0, SVG Export Plug-In . SVG Version: 6.00 Build 0)  --><svg xmlns="http://www.w3.org/2000/svg" xmlns:xlink="http://www.w3.org/1999/xlink" viewBox="0 0 50 50" width="500px" height="500px"><rect x="35" y="17" width="6" height="6"/><path style="fill:none;stroke:#000000;stroke-width:2;stroke-linejoin:round;stroke-miterlimit:10;" d="M28,5h-5v21h22V5h-3"/><line style="fill:none;stroke:#000000;stroke-width:2;stroke-linejoin:round;stroke-miterlimit:10;" x1="40" y1="5" x2="30" y2="5"/><line style="fill:none;stroke:#000000;stroke-width:2;stroke-linejoin:round;stroke-miterlimit:10;" x1="23" y1="10" x2="45" y2="10"/><path style="fill:none;stroke:#000000;stroke-width:2;stroke-linecap:round;stroke-linejoin:round;stroke-miterlimit:10;" d="M28,3v4"/><path style="fill:none;stroke:#000000;stroke-width:2;stroke-linecap:round;stroke-linejoin:round;stroke-miterlimit:10;" d="M40,3v4"/><rect x="16" y="46" width="2" height="2"/><rect x="34" y="46" width="2" height="2"/><path style="fill:none;stroke:#000000;stroke-width:2;stroke-linecap:round;stroke-linejoin:round;stroke-miterlimit:10;" d="M35,47v-5.406c0-3.247,1.141-6.318,2.984-8.951c0.358-0.498,0.672-1.058,0.965-1.643"/><path style="fill:none;stroke:#000000;stroke-width:2;stroke-linecap:round;stroke-linejoin:round;stroke-miterlimit:10;" d="M19,5.493C10.695,7.227,8.082,13.508,7.336,20.445l-4.125,7.108c-0.439,0.79-0.175,1.755,0.614,2.194l3.51,1.755l1.053,7.284c0.351,2.194,2.38,4.302,4.574,4.214H17v4"/></svg>