<?xml version="1.0" encoding="iso-8859-1"?><!-- Generator: Adobe Illustrator 21.1.0, SVG Export Plug-In . SVG Version: 6.00 Build 0)  --><svg xmlns="http://www.w3.org/2000/svg" xmlns:xlink="http://www.w3.org/1999/xlink" viewBox="0 0 50 50" width="500px" height="500px"><rect x="35" y="17" width="6" height="6"/><path style="fill:none;stroke:#000000;stroke-width:2;stroke-linejoin:round;stroke-miterlimit:10;" d="M28,5h-5v21h22V5h-3"/><line style="fill:none;stroke:#000000;stroke-width:2;stroke-linejoin:round;stroke-miterlimit:10;" x1="40" y1="5" x2="30" y2="5"/><line style="fill:none;stroke:#000000;stroke-width:2;stroke-linejoin:round;stroke-miterlimit:10;" x1="23" y1="10" x2="45" y2="10"/><path style="fill:none;stroke:#000000;stroke-width:2;stroke-linecap:round;stroke-linejoin:round;stroke-miterlimit:10;" d="M28,3v4"/><path style="fill:none;stroke:#000000;stroke-width:2;stroke-linecap:round;stroke-linejoin:round;stroke-miterlimit:10;" d="M40,3v4"/><path d="M24,26V5h1V4.049C24.642,4.03,24.294,4,23.922,4C13.344,4,7.599,9.275,6.365,20.126l-4.028,6.941c-0.713,1.284-0.272,2.846,1.041,3.574l3.043,1.521l0.98,6.781c0.406,2.533,2.735,5.151,5.562,5.056H16v4h20v-6.406c0-2.861,0.969-5.758,2.795-8.367c1.124-1.563,1.895-3.479,2.404-5.425L41.448,26H24z"/></svg>