<?xml version="1.0" encoding="iso-8859-1"?>
<!-- Generator: Adobe Illustrator 24.0.3, SVG Export Plug-In . SVG Version: 6.00 Build 0)  -->
<svg version="1.1" id="Layer_1" xmlns="http://www.w3.org/2000/svg" xmlns:xlink="http://www.w3.org/1999/xlink" x="0px" y="0px"
	 viewBox="0 0 100 100" style="enable-background:new 0 0 100 100;" xml:space="preserve">
<g>
	<path style="fill:#1F212B;" d="M18.143,46.157c-0.128-1.4-0.165-2.722-0.111-4.006c0.023-0.543-0.374-1.009-0.916-1.052h0
		c-0.559-0.044-1.057,0.38-1.081,0.94c-0.072,1.665,0.001,3.299,0.182,4.961c0.027,0.252,0.141,1,0.141,1l0.499,0.233
		c0.713,0.333,1.514-0.25,1.416-1.031L18.143,46.157z"/>
	<g>
		<path style="fill:#1F212B;" d="M18.353,47.848c-0.083-0.545-0.597-0.92-1.139-0.837c-0.546,0.083-0.921,0.594-0.838,1.14
			c0.668,4.37,2.226,8.438,4.631,12.09C24.273,65.2,26,70.821,26,76.499V86c0,0.553,0.448,1,1,1s1-0.447,1-1v-9.501
			c0-6.069-1.84-12.071-5.323-17.358C20.432,55.731,18.978,51.932,18.353,47.848z"/>
		<path style="fill:#1F212B;" d="M83.535,51.26l-6.491-10.924c-0.173-0.313-0.287-0.667-0.34-1.053
			c-2.111-15.248-15.081-26.281-30.212-26.282c-0.549,0-0.992,0.458-0.992,1.007v0c0,0.556,0.455,0.993,1.011,0.993
			c14.136,0.011,26.242,10.317,28.213,24.555c0.087,0.629,0.278,1.216,0.585,1.772l6.507,10.952
			c0.194,0.326,0.237,0.703,0.122,1.062c-0.115,0.36-0.368,0.644-0.714,0.797l-6.037,2.683C74.465,57.143,74,57.859,74,58.649v6.351
			C74,70.523,69.523,75,64.001,75h-4.001C58.895,75,58,75.895,58,76.999V86c0,0.553,0.448,1,1,1s1-0.447,1-1v-8.001
			C60,77.447,60.447,77,60.999,77h3.001C70.628,77,76,71.628,76,65.001v-5.702c0-0.395,0.233-0.753,0.594-0.913l5.442-2.417
			c0.862-0.384,1.521-1.12,1.807-2.018C84.129,53.051,84.016,52.071,83.535,51.26z"/>
	</g>
	<path style="fill:#1F212B;" d="M59.5,76h-9c-0.276,0-0.5-0.224-0.5-0.5s0.224-0.5,0.5-0.5h9c0.276,0,0.5,0.224,0.5,0.5
		S59.776,76,59.5,76z M48.5,76h-2c-0.276,0-0.5-0.224-0.5-0.5s0.224-0.5,0.5-0.5h2c0.276,0,0.5,0.224,0.5,0.5S48.776,76,48.5,76z"/>
	<g>
		<path style="fill:#1F212B;" d="M28.5,47c-1.962,0-3.5-1.128-3.5-2.568h1C26,45.283,27.145,46,28.5,46s2.5-0.718,2.5-1.569h1
			C32,45.872,30.462,47,28.5,47z M32,41.862h-7c-1.103,0-2-0.897-2-2s0.897-2,2-2h7c1.103,0,2,0.897,2,2S33.103,41.862,32,41.862z
			 M25,38.862c-0.551,0-1,0.448-1,1s0.449,1,1,1h7c0.551,0,1-0.448,1-1s-0.449-1-1-1H25z"/>
		<path style="fill:#1F212B;" d="M32,44.862h-7c-1.103,0-2-0.897-2-2s0.897-2,2-2h7c1.103,0,2,0.897,2,2S33.103,44.862,32,44.862z
			 M25,41.862c-0.551,0-1,0.448-1,1s0.449,1,1,1h7c0.551,0,1-0.448,1-1s-0.449-1-1-1H25z"/>
		<path style="fill:none;stroke:#1F212B;stroke-width:2;stroke-linejoin:round;stroke-miterlimit:10;" d="M40.5,21.862
			c0-6.627-5.373-12-12-12s-12,5.373-12,12c0,4.438,2.418,8.299,6,10.373v2.627c0,1.657,1.343,3,3,3s4.343,0,6,0s3-1.343,3-3v-2.627
			C38.082,30.161,40.5,26.3,40.5,21.862z"/>
		<path style="fill:#1F212B;" d="M30.5,36.362c-0.276,0-0.5-0.224-0.5-0.5c0-2.89,0.134-4.994,0.352-6.524
			c-0.742-0.058-1.358-0.221-1.852-0.489c-0.493,0.269-1.109,0.432-1.851,0.489C26.866,30.868,27,32.972,27,35.862
			c0,0.276-0.224,0.5-0.5,0.5s-0.5-0.224-0.5-0.5c0-3.051-0.152-5.122-0.359-6.528C24.467,29.159,23,28.175,23,26.862
			c0-0.612,0.247-0.963,0.453-1.148c0.448-0.403,1.035-0.357,1.099-0.349c0.001,0,0.003,0,0.004,0c0.633,0,1.421,0.421,1.928,2.982
			c0.469-0.03,0.852-0.105,1.165-0.216C27.214,27.57,27,26.815,27,25.862c0-1.425,0.645-2.5,1.5-2.5s1.5,1.075,1.5,2.5
			c0,0.953-0.214,1.708-0.648,2.27c0.313,0.111,0.697,0.186,1.167,0.216c0.513-2.567,1.315-2.986,1.981-2.986
			c0.014-0.006,0.6-0.052,1.047,0.352C33.753,25.899,34,26.25,34,26.862c0,1.312-1.466,2.296-2.64,2.472
			C31.152,30.74,31,32.811,31,35.862C31,36.138,30.776,36.362,30.5,36.362z M24.446,26.36c-0.084,0-0.234,0.013-0.327,0.099
			C24.021,26.55,24,26.729,24,26.862c0,0.603,0.757,1.177,1.448,1.401c-0.413-1.865-0.912-1.901-0.948-1.901
			C24.489,26.361,24.471,26.36,24.446,26.36z M32.566,26.359c-0.013,0-0.021,0.001-0.021,0.001
			c-0.062,0.001-0.572,0.038-0.989,1.901C32.245,28.037,33,27.464,33,26.862c0-0.133-0.021-0.312-0.12-0.403
			C32.783,26.368,32.623,26.359,32.566,26.359z M28.5,24.362c-0.125,0-0.5,0.532-0.5,1.5c0,0.644,0.089,1.263,0.5,1.725
			c0.411-0.462,0.5-1.081,0.5-1.725C29,24.894,28.625,24.362,28.5,24.362z M37.5,22.362c-0.276,0-0.5-0.224-0.5-0.5
			c0-0.615-0.073-1.251-0.218-1.89c-0.061-0.27,0.108-0.537,0.377-0.598c0.27-0.063,0.537,0.107,0.598,0.377
			C37.918,20.463,38,21.173,38,21.862C38,22.138,37.776,22.362,37.5,22.362z M36.554,18.362c-0.184,0-0.361-0.102-0.448-0.277
			c-1.45-2.913-4.364-4.723-7.606-4.723c-0.276,0-0.5-0.224-0.5-0.5s0.224-0.5,0.5-0.5c3.624,0,6.881,2.022,8.501,5.277
			c0.123,0.247,0.022,0.547-0.225,0.67C36.705,18.345,36.628,18.362,36.554,18.362z"/>
	</g>
</g>
</svg>