<?xml version="1.0" encoding="iso-8859-1"?><!-- Generator: Adobe Illustrator 19.2.1, SVG Export Plug-In . SVG Version: 6.00 Build 0)  --><svg xmlns="http://www.w3.org/2000/svg" xmlns:xlink="http://www.w3.org/1999/xlink" viewBox="0 0 50 50" width="500px" height="500px"><path d="M38.966,29L32,24v-9l-7-8l-0.079-4C14.343,3,8.598,8.275,7.365,19.126l-4.028,6.941c-0.341,0.613-0.428,1.317-0.243,1.981c0.186,0.672,0.629,1.23,1.284,1.593l3.042,1.521l0.981,6.782c0.405,2.532,2.715,5.156,5.562,5.056H17v4h20v-6.406c0-2.169,0.563-4.358,1.631-6.426c0.231-0.448,0.367-0.94,0.363-1.444L38.966,29z"/><g><g><path style="fill:none;stroke:#000000;stroke-width:2;stroke-linecap:round;stroke-linejoin:round;stroke-miterlimit:10;" d="M38,16v13l-6-4v-9"/></g></g><g><path style="fill:none;stroke:#000000;stroke-width:2;stroke-linecap:round;stroke-linejoin:round;stroke-miterlimit:10;" d="M46,7l-8,9h-6l-8-9V4h22V7z"/></g></svg>