<?xml version="1.0" encoding="iso-8859-1"?><!-- Generator: Adobe Illustrator 19.2.1, SVG Export Plug-In . SVG Version: 6.00 Build 0)  --><svg xmlns="http://www.w3.org/2000/svg" xmlns:xlink="http://www.w3.org/1999/xlink" viewBox="0 0 50 50" width="500px" height="500px"><rect x="17" y="45" width="2" height="2"/><rect x="35" y="45" width="2" height="2"/><path style="fill:none;stroke:#000000;stroke-width:2;stroke-linecap:round;stroke-miterlimit:10;" d="M39.936,30c-0.288,0.586-0.596,1.148-0.952,1.643C37.141,34.276,36,37.347,36,40.594V46"/><path style="fill:none;stroke:#000000;stroke-width:2;stroke-linecap:round;stroke-miterlimit:10;" d="M35.057,17.554l-9.064,9.056c-0.521,0.52-1.388,0.52-1.967,0l-0.636-0.636c-0.521-0.52-0.521-1.387,0-1.965l9.064-9.056"/><polygon points="42.5,20 43.48,22.52 46,23.5 43.48,24.48 42.5,27 41.52,24.48 39,23.5 41.52,22.52 "/><polygon points="34.5,23 35.214,24.786 37,25.5 35.214,26.214 34.5,28 33.786,26.214 32,25.5 33.786,24.786 "/><path d="M48.984,11.672l-5.537-2.169l2.712-5.273L40.73,6.641l-1.875-5.624l-2.095,5.537l-5.35-2.714l2.488,5.43l-5.658,1.861l4.769,1.834l-2.191,2.209c-0.389,0.392-0.386,1.025,0.006,1.414c0.391,0.389,1.025,0.386,1.414-0.006l6.417-6.471c0.157-0.156,0.365-0.187,0.583,0.03l0.627,0.568c0.163,0.181,0.18,0.444,0.036,0.588l-6.478,6.474c-0.391,0.39-0.391,1.023,0,1.414c0.195,0.195,0.452,0.293,0.708,0.293s0.512-0.098,0.707-0.293l1.998-1.997l1.509,4.526l2.156-5.498l5.25,2.624l-2.387-5.37L48.984,11.672z"/><path style="fill:none;stroke:#000000;stroke-width:2;stroke-linecap:round;stroke-miterlimit:10;" d="M28,4.228C27.025,4.094,26.013,4,24.922,4C12.636,4,9.213,11.284,8.336,19.445l-4.125,7.108c-0.439,0.79-0.175,1.755,0.614,2.194l3.51,1.755l1.053,7.284c0.351,2.194,2.38,4.302,4.574,4.214H18v4"/></svg>