<?xml version="1.0" encoding="iso-8859-1"?><!-- Generator: Adobe Illustrator 19.2.1, SVG Export Plug-In . SVG Version: 6.00 Build 0)  --><svg xmlns="http://www.w3.org/2000/svg" xmlns:xlink="http://www.w3.org/1999/xlink" viewBox="0 0 50 50" width="500px" height="500px"><path style="fill:none;stroke:#000000;stroke-width:2;stroke-linecap:round;stroke-miterlimit:10;" d="M21,4.283C11.877,5.699,9.112,12.229,8.336,19.445l-4.124,7.108c-0.439,0.79-0.176,1.755,0.614,2.194l3.51,1.755l1.053,7.721c0.351,2.194,2.282,3.861,4.476,3.773L18,42v4"/><path style="fill:none;stroke:#000000;stroke-width:2;stroke-linecap:round;stroke-miterlimit:10;" d="M36.016,46v-5.406c0-3.247,1.141-6.318,2.984-8.951"/><path style="fill:none;stroke:#000000;stroke-width:2;stroke-linecap:round;stroke-miterlimit:10;" d="M46,18.599v-3.25l-3.868-0.632c-0.229-0.916-0.589-1.777-1.063-2.566l2.254-3.213L41.025,6.64l-3.172,2.28c-0.791-0.479-1.658-0.844-2.58-1.074l-0.674-3.849h-3.25l-0.626,3.837c-0.923,0.226-1.795,0.587-2.588,1.063l-3.163-2.26l-2.298,2.297l2.225,3.182c-0.481,0.796-0.847,1.667-1.079,2.596L20,15.349v3.25l3.816,0.677c0.23,0.927,0.596,1.797,1.079,2.595l-2.255,3.154l2.297,2.299l3.186-2.231c0.795,0.478,1.665,0.841,2.588,1.069L31.349,30h3.25l0.683-3.849c0.918-0.233,1.786-0.599,2.573-1.078l3.208,2.251l2.298-2.299l-2.29-3.18c0.474-0.789,0.834-1.651,1.061-2.567L46,18.599z"/><circle style="fill:none;stroke:#000000;stroke-width:2;stroke-linecap:round;stroke-miterlimit:10;" cx="33" cy="16.999" r="4"/><rect x="35" y="45" width="2" height="2"/><rect x="17" y="45" width="2" height="2"/></svg>