<?xml version="1.0" encoding="iso-8859-1"?><!-- Generator: Adobe Illustrator 19.2.1, SVG Export Plug-In . SVG Version: 6.00 Build 0)  --><svg xmlns="http://www.w3.org/2000/svg" xmlns:xlink="http://www.w3.org/1999/xlink" viewBox="0 0 50 50" width="500px" height="500px"><g><g><path style="fill:none;stroke:#000000;stroke-width:2;stroke-linecap:round;stroke-linejoin:round;stroke-miterlimit:10;" d="M38,16v13l-6-4v-9"/></g></g><g><path style="fill:none;stroke:#000000;stroke-width:2;stroke-linecap:round;stroke-linejoin:round;stroke-miterlimit:10;" d="M46,7l-8,9h-6l-8-9V4h22V7z"/></g><rect x="17" y="45" width="2" height="2"/><path style="fill:none;stroke:#000000;stroke-width:2;stroke-linecap:round;stroke-linejoin:round;stroke-miterlimit:10;" d="M20,4.531C11.716,6.269,9.081,12.518,8.336,19.445l-4.125,7.108c-0.439,0.79-0.175,1.755,0.614,2.194l3.51,1.755l1.053,7.284c0.351,2.194,2.38,4.302,4.574,4.214H18v4"/><rect x="35" y="45" width="2" height="2"/><path style="fill:none;stroke:#000000;stroke-width:2;stroke-linecap:round;stroke-linejoin:round;stroke-miterlimit:10;" d="M38.131,33C36.799,35.309,36,37.888,36,40.594V46"/></svg>