<?xml version="1.0" encoding="iso-8859-1"?>
<!-- Generator: Adobe Illustrator 23.0.6, SVG Export Plug-In . SVG Version: 6.00 Build 0)  -->
<svg version="1.1" id="Layer_1" xmlns="http://www.w3.org/2000/svg" xmlns:xlink="http://www.w3.org/1999/xlink" x="0px" y="0px"
	 viewBox="0 0 32 32" style="enable-background:new 0 0 32 32;" xml:space="preserve">
<path d="M26,14h-4v2.333L24.016,17L26,16.333V14z"/>
<path style="fill:none;stroke:#000000;stroke-width:2;stroke-miterlimit:10;" d="M20,8c0-2.208,1.792-4.008,4-4
	c2.16,0.008,4.01,1.761,4,4c-0.01,2.151-1.969,2.993-1.999,6H22C21.987,11.013,19.98,10.201,20,8z"/>
<g>
	<path d="M8,21v-2.963l-0.736-0.201c0,0-1.067-0.291-1.713-0.466c-0.009-0.025-0.023-0.162,0.043-0.321l2.699-5.403l0.087-0.255
		C8.431,11.129,9.709,5,17,5c0.224,0,0.444,0.017,0.664,0.034c0.316-0.674,0.74-1.299,1.267-1.853C18.303,3.069,17.66,3,17,3
		C8.772,3,6.732,9.745,6.453,10.855L3.78,16.208c-0.307,0.714-0.314,1.461-0.022,2.048c0.253,0.509,0.715,0.87,1.227,0.994
		C5.267,19.344,5.658,19.46,6,19.558V21c0,2.57,2.43,5,5,5v3h2v-5h-2C9.542,24,8,22.458,8,21z"/>
	<path d="M24.498,18.948C23.753,20.55,23,22.209,23,24.102V29h2v-4.898c0-1.493,0.661-2.913,1.36-4.417
		c0.244-0.525,0.488-1.058,0.714-1.603L24.498,18.948z"/>
</g>
</svg>