<?xml version="1.0" encoding="iso-8859-1"?>
<!-- Generator: Adobe Illustrator 24.0.2, SVG Export Plug-In . SVG Version: 6.00 Build 0)  -->
<svg version="1.1" id="&#x421;&#x43B;&#x43E;&#x439;_1"
	 xmlns="http://www.w3.org/2000/svg" xmlns:xlink="http://www.w3.org/1999/xlink" x="0px" y="0px" viewBox="0 0 50 50"
	 style="enable-background:new 0 0 50 50;" xml:space="preserve">
<path d="M47,16.568h-0.637c-1.664-4.244-4.543-8.008-8.411-10.527C34.1,3.362,29.46,1.989,24.829,2.015
	c-0.662,0.004-1.324,0.037-1.982,0.098c-1.753,0.162-3.487,0.53-5.16,1.104c-2.85,0.892-5.477,2.402-7.73,4.351H3
	c-1.654,0-3,1.346-3,3v6c0,1.541,1.172,2.799,2.669,2.967c-1.568,6.328-0.283,13.293,3.506,18.604
	c3.991,5.873,10.858,9.617,17.986,9.828c0.001,0,0.003,0,0.004,0c7.538,0.31,15.032-3.228,19.439-9.314
	c0.002-0.002,0.004-0.004,0.006-0.006c2.137-3.008,3.529-6.541,4.088-10.169C49.015,28.161,50,26.981,50,25.568v-6
	C50,17.913,48.654,16.568,47,16.568z M27.995,4.966l3,1v2l-3-2l-2-1H27.995z M17.687,5.332l1.309,0.734l4-0.1l1.6,0.801l0.201-0.5
	l1.199,0.799l-0.1,0.301l1.1,0.6l1,1l1,1l2,2l-3,2l-4,4l0.5,1l-1.5-1h-1l-3,1v5h1l2-1v2h2v1l1.203,0.601h-1.601l-0.601-0.601l-5-2
	l-2-1l-0.141-0.422c0.049,0.007,0.096,0.024,0.146,0.024c0.151,0,0.303-0.034,0.443-0.104c0.34-0.168,0.556-0.513,0.557-0.893
	l0.045-10.993c0.003-0.803-0.307-1.559-0.874-2.128c-0.522-0.524-1.205-0.818-1.936-0.864L13.663,7.3
	C14.928,6.491,16.278,5.827,17.687,5.332z M30,22.568l-1.505,0.899l-3.199-1.301L26,21.568L30,22.568z M12.045,17.568H3
	c-0.551,0-1-0.449-1-1v-6c0-0.551,0.449-1,1-1h11.045c0.268,0,0.52,0.104,0.709,0.294c0.188,0.189,0.292,0.441,0.291,0.709
	l-0.037,8.989l-2.359-1.79C12.476,17.639,12.263,17.568,12.045,17.568z M25,36.568h-9c-0.551,0-1-0.449-1-1v-6c0-0.551,0.449-1,1-1
	h11c0.268,0,0.519,0.104,0.708,0.294c0.189,0.19,0.292,0.442,0.292,0.709l-0.037,8.989l-2.359-1.79
	C25.431,36.639,25.218,36.568,25,36.568z M38.995,33.966l-1,3l-2,1l-8.9,7l0.742,0.822c-0.053,0.007-0.106,0.013-0.158,0.02
	l-1.684-0.842l1.573-4.195l0.782,0.593c0.177,0.134,0.39,0.203,0.604,0.203c0.151,0,0.303-0.034,0.443-0.104
	c0.34-0.168,0.556-0.513,0.557-0.893L30,29.578c0.003-0.803-0.308-1.559-0.875-2.128c-0.567-0.569-1.322-0.882-2.125-0.882h-0.207
	l1.203-0.601l4-0.1l1,1.1l0.035,0.018l0.015,3.588c0.001,0.379,0.217,0.725,0.557,0.893c0.14,0.069,0.292,0.104,0.443,0.104
	c0.214,0,0.427-0.069,0.604-0.203l2.665-2.021l2.181,0.623l0.5,2L38.995,33.966z M48,25.568c0,0.551-0.449,1-1,1h-9
	c-0.218,0-0.431,0.071-0.604,0.203l-2.359,1.79L35,19.571c-0.001-0.268,0.103-0.52,0.292-0.709c0.189-0.19,0.44-0.294,0.708-0.294
	h11c0.551,0,1,0.449,1,1V25.568z"/>
</svg>