<?xml version="1.0" encoding="iso-8859-1"?><!-- Generator: Adobe Illustrator 19.2.1, SVG Export Plug-In . SVG Version: 6.00 Build 0)  --><svg xmlns="http://www.w3.org/2000/svg" xmlns:xlink="http://www.w3.org/1999/xlink" viewBox="0 0 50 50" width="500px" height="500px"><path style="fill:none;stroke:#000000;stroke-width:2;stroke-miterlimit:10;" d="M43,23.988H25.5c-1.38,0-2.5,1.119-2.5,2.5c0,1.38,1.119,2.5,2.5,2.5c0.682,0,17.318,0,18,0c1.381,0,2.5-1.119,2.5-2.5v-22.5H26v19.949"/><polyline style="fill:none;stroke:#000000;stroke-width:2;stroke-miterlimit:10;" points="31,13.988 34,10.988 37,13.988 41,9.988 "/><polygon points="42,12.988 42,8.988 38,8.988 "/><line style="fill:none;stroke:#000000;stroke-width:2;stroke-miterlimit:10;" x1="30" y1="18.988" x2="42" y2="18.988"/><path style="fill:none;stroke:#000000;stroke-width:2;stroke-linecap:round;stroke-miterlimit:10;" d="M21,4.271C11.877,5.687,9.112,12.217,8.336,19.433l-4.124,7.108c-0.439,0.79-0.176,1.755,0.614,2.194l3.51,1.755l1.053,7.721c0.351,2.194,2.282,3.861,4.476,3.773L18,41.988v4"/><rect x="35" y="44.988" width="2" height="2"/><rect x="17" y="44.988" width="2" height="2"/><path d="M42,26.488c0-0.651,0.419-1.201,1-1.408v-2.042c-1.692,0.245-3,1.691-3,3.449c0,1.93,1.57,3.5,3.5,3.5v-2C42.673,27.988,42,27.315,42,26.488z"/><path style="fill:none;stroke:#000000;stroke-width:2;stroke-linecap:round;stroke-miterlimit:10;" d="M38.147,32.988C36.815,35.297,36,37.876,36,40.582v5.406"/></svg>