<?xml version="1.0" encoding="iso-8859-1"?><!-- Generator: Adobe Illustrator 19.2.1, SVG Export Plug-In . SVG Version: 6.00 Build 0)  --><svg xmlns="http://www.w3.org/2000/svg" xmlns:xlink="http://www.w3.org/1999/xlink" viewBox="0 0 50 50" width="500px" height="500px"><rect x="20" y="10" style="fill:none;stroke:#000000;stroke-width:2;stroke-linecap:round;stroke-linejoin:round;stroke-miterlimit:10;" width="20" height="20"/><polygon style="fill:none;stroke:#000000;stroke-width:2;stroke-linecap:round;stroke-linejoin:round;stroke-miterlimit:10;" points="40,30 46,23 46,4 40,10 "/><polygon style="fill:none;stroke:#000000;stroke-width:2;stroke-linecap:round;stroke-linejoin:round;stroke-miterlimit:10;" points="46,4 28,4 20,10 40,10 "/><circle cx="37" cy="22" r="1"/><circle cx="43" cy="22" r="1"/><circle cx="34" cy="22" r="1"/><circle cx="31" cy="22" r="1"/><circle cx="28" cy="22" r="1"/><circle cx="26" cy="24" r="1"/><circle cx="24" cy="26" r="1"/><circle cx="22" cy="28" r="1"/><circle cx="28" cy="19" r="1"/><circle cx="28" cy="16" r="1"/><circle cx="28" cy="13" r="1"/><circle cx="28" cy="7" r="1"/><path style="fill:none;stroke:#000000;stroke-width:2;stroke-linecap:round;stroke-miterlimit:10;" d="M36,47v-6.406c0-2.321,0.591-4.549,1.596-6.594"/><path style="fill:none;stroke:#000000;stroke-width:2;stroke-linecap:round;stroke-miterlimit:10;" d="M20,4.486c-8.31,1.732-10.918,8.02-11.664,14.959l-4.125,7.108c-0.439,0.79-0.175,1.755,0.614,2.194l3.51,1.755l1.053,7.284c0.351,2.194,2.38,4.302,4.574,4.214H18v5"/><line style="fill:none;stroke:#000000;stroke-width:2;stroke-linecap:round;stroke-linejoin:round;stroke-miterlimit:10;" x1="20" y1="30" x2="22" y2="28"/></svg>