<?xml version="1.0" encoding="iso-8859-1"?><!-- Generator: Adobe Illustrator 19.2.1, SVG Export Plug-In . SVG Version: 6.00 Build 0)  --><svg xmlns="http://www.w3.org/2000/svg" xmlns:xlink="http://www.w3.org/1999/xlink" viewBox="0 0 50 50" width="500px" height="500px"><path style="fill:none;stroke:#000000;stroke-width:2;stroke-linejoin:round;stroke-miterlimit:10;" d="M29,4h-5v21h22V4h-3"/><line style="fill:none;stroke:#000000;stroke-width:2;stroke-linejoin:round;stroke-miterlimit:10;" x1="41" y1="4" x2="31" y2="4"/><line style="fill:none;stroke:#000000;stroke-width:2;stroke-linejoin:round;stroke-miterlimit:10;" x1="24" y1="9" x2="46" y2="9"/><path style="fill:none;stroke:#000000;stroke-width:2;stroke-linecap:round;stroke-linejoin:round;stroke-miterlimit:10;" d="M29,2v4"/><path style="fill:none;stroke:#000000;stroke-width:2;stroke-linecap:round;stroke-linejoin:round;stroke-miterlimit:10;" d="M41,2v4"/><rect x="28" y="12" width="2" height="2"/><rect x="32" y="12" width="2" height="2"/><rect x="36" y="12" width="2" height="2"/><rect x="40" y="12" width="2" height="2"/><rect x="28" y="16" width="2" height="2"/><rect x="32" y="16" width="2" height="2"/><rect x="36" y="16" width="2" height="2"/><rect x="40" y="16" width="2" height="2"/><rect x="28" y="20" width="2" height="2"/><rect x="17" y="45" width="2" height="2"/><rect x="35" y="45" width="2" height="2"/><rect x="32" y="20" width="2" height="2"/><rect x="36" y="20" width="2" height="2"/><rect x="40" y="20" width="2" height="2"/><path style="fill:none;stroke:#000000;stroke-width:2;stroke-linecap:round;stroke-linejoin:round;stroke-miterlimit:10;" d="M36,46v-5.406c0-3.247,1.141-6.318,2.984-8.951c0.358-0.498,0.672-1.058,0.965-1.643"/><path style="fill:none;stroke:#000000;stroke-width:2;stroke-linecap:round;stroke-linejoin:round;stroke-miterlimit:10;" d="M20,4.493C11.695,6.227,9.082,12.508,8.336,19.445l-4.125,7.108c-0.439,0.79-0.175,1.755,0.614,2.194l3.51,1.755l1.053,7.284c0.351,2.194,2.38,4.302,4.574,4.214H18v4"/></svg>