<?xml version="1.0" encoding="iso-8859-1"?>
<!-- Generator: Adobe Illustrator 24.1.2, SVG Export Plug-In . SVG Version: 6.00 Build 0)  -->
<svg version="1.1" baseProfile="basic" id="&#x421;&#x43B;&#x43E;&#x439;_1"
	 xmlns="http://www.w3.org/2000/svg" xmlns:xlink="http://www.w3.org/1999/xlink" x="0px" y="0px" viewBox="0 0 48 48"
	 xml:space="preserve">
<path marker-start="none" marker-end="none" style="fill-rule:evenodd;clip-rule:evenodd;" d="M4.991,47.998
	c-1.101,0-4-0.221-4-0.499c0-0.279,2.899-0.499,4-0.499l1,0.504L4.991,47.998z"/>
<path marker-start="none" marker-end="none" style="fill-rule:evenodd;clip-rule:evenodd;" d="M28.991,47.995
	c3.029,0,11-0.221,11-0.499c0-0.279-7.971-0.499-11-0.499V47.995z"/>
<path marker-start="none" marker-end="none" style="fill-rule:evenodd;clip-rule:evenodd;" d="M4.991,47.998v-1
	c2.235-2.717,4-5.719,4-9c0-6.479-4.804-11.743-4.995-18.58c0.332,0.231,0.677,0.448,1.033,0.652
	c0.352,4.741,2.944,8.795,4.552,14.605c-0.005-0.023,0.813,2.651,1.228,3.925c0.343,1.052,0.627,2.093,0.876,3.171
	c-0.688-0.983-1.251-1.991-1.721-3.039c-0.176,2.445-1.209,4.699-2.581,6.741l-0.395,0.524h17.492l0.231-0.356
	c0.116-0.264,0.217-0.576,0.32-0.924c0.725-2.471,5.627-2.72,6.96-2.72c3.889,0,6-1.345,6-3v-1c0-0.632,0.285-1.207,0.557-1.6
	l0.28-0.343l-0.315-0.177c-0.368-0.199-1.536-0.563-1.521-0.917c0.016-0.396,1.26-0.783,1.708-0.919
	c0.264-0.072,0.468-0.173,0.567-0.315c-0.02-0.217-0.06-0.444-0.132-0.684c-0.072-0.284-0.144-0.617-0.144-1.045
	c0-0.356,0.08-0.724,0.212-1.079c-0.348,0.044-0.691-0.032-0.971-0.335c-0.073-0.08-0.167-0.249-0.191-0.356
	c-0.053-0.24-0.107-0.447-0.076-0.705c0.129-1.097,0.493-1.723,1.061-2.643c-0.103,0.8-0.317,1.824-0.219,2.661
	c0.048,0.263,0.22,0.441,0.488,0.347c0.307-0.113,0.649-0.367,0.933-0.599c0.283-0.289,0.561-0.484,0.779-0.533
	c0.979-0.283,1.003-0.787,0.257-1.915l-2.117-3.304c-0.224-0.348-1.157-1.405-1.157-2.54c0-1-3,0.273-3-0.064
	c0-1.303,2.705-1.876,2.977-2.785c-0.045-0.907-0.16-1.709-0.44-2.545l-1.075-3.2c-0.559-1.664-1.397-3.064-2.437-4.233
	c-2.509-2.237-5.863-3.432-9.272-3.913c-0.311-0.393-0.649-0.769-1.013-1.127c6.029,0.588,12.417,3.239,14.672,9.955l1.075,3.2
	c0.528,1.575,0.527,3.041,0.516,4.863c-0.001,0.275-0.003,0.559-0.003,0.851c0,0.744,0.599,1.373,1,2l2.117,3.304
	c0.343,0.536,0.883,1.315,0.883,1.696c0,0.824-0.82,1.524-1.765,1.735c-0.548,0.121-1.235,0.549-1.235,1.265
	c0,0.601,0.288,1.195,0.288,1.788c0,0.585-0.66,1.021-1.288,1.212c0.591,0.32,1,0.535,1,1c0,0.744-1,0.836-1,2v2
	c0,2.687-3.212,4-7,4c-1.199,0-2.469,0.193-3,2c-0.192,0.657-0.451,1.477-1,2H4.991z M18.623,25.786
	c-2.781-2.48-5.8-4.297-9.287-5.089c-5.393-1.285-9.339-5.337-9.339-10.136c0-5.829,5.824-10.561,13-10.561s13,4.732,13,10.561
	c0,3.128-1.672,5.937-4.331,7.871c-1.143,0.769-2.612,2.232-2.612,4.208c0,0.721,0.396,1.521,0.791,2.091
	c0.088,0.129,0.14,0.287,0.14,0.456c0,0.448-0.365,0.813-0.813,0.813C18.963,25.999,18.766,25.917,18.623,25.786z M1.998,11.561
	c0-5.092,5.172-9.561,12-9.561c3.567,0,6.681,1.221,8.844,3.112c-2.136-2.451-5.683-4.112-9.844-4.112c-6.828,0-12,4.469-12,9.561
	c0,2.436,1.169,4.72,3.144,6.445C2.779,15.441,1.998,13.551,1.998,11.561z M8.998,10.999c0-1.104-0.896-2-2-2s-2,0.896-2,2
	s0.896,2,2,2S8.998,12.103,8.998,10.999z M14.998,10.999c0-1.104-0.896-2-2-2s-2,0.896-2,2s0.896,2,2,2S14.998,12.103,14.998,10.999
	z M20.998,10.999c0-1.104-0.896-2-2-2c-1.104,0-2,0.896-2,2s0.896,2,2,2C20.102,12.999,20.998,12.103,20.998,10.999z"/>
</svg>