<?xml version="1.0" encoding="iso-8859-1"?><!-- Generator: Adobe Illustrator 22.1.0, SVG Export Plug-In . SVG Version: 6.00 Build 0)  --><svg xmlns="http://www.w3.org/2000/svg" xmlns:xlink="http://www.w3.org/1999/xlink" viewBox="0 0 80 80" width="480px" height="480px"><g id="Layer_1"><circle cx="31.999" cy="66" r="1"/><circle cx="35.999" cy="66" r="1"/><circle cx="39.999" cy="65" r="1"/><circle cx="42.999" cy="62" r="1"/><path style="fill:none;stroke:#000000;stroke-width:2;stroke-miterlimit:10;" d="M56.999,66.734V73"/><path style="fill:none;stroke:#000000;stroke-width:2;stroke-linecap:round;stroke-miterlimit:10;" d="M69.55,40c-2.289,11.988-12.551,16.309-12.551,26.734"/><path style="fill:none;stroke:#000000;stroke-width:2;stroke-linecap:round;stroke-miterlimit:10;" d="M16.999,32.891c0-9.289,5.492-18.645,16.001-22.294"/><path style="fill:none;stroke:#000000;stroke-width:2;stroke-miterlimit:10;" d="M30.999,73v-7h-6c-4.418,0-8-3.582-8-8v-8l-5.985-3.058c-0.954-0.487-1.3-1.677-0.757-2.6l6.742-11.451"/><g><g><path style="fill:none;stroke:#000000;stroke-width:2;stroke-linecap:round;stroke-miterlimit:10;" d="M67,19.897c0-6.584-5.997-11.8-12.785-10.719C48.865,10.03,44.807,14.9,45,20.315c0.148,4.142,2.452,7.537,6,9.225V35c0,1.657,1.343,3,3,3h4c1.657,0,3-1.343,3-3v-5.461C64.667,27.795,67,24.228,67,19.897z"/></g></g><path d="M53,38h6c0,1.658-1.342,3-3,3S53,39.658,53,38z"/><line style="fill:none;stroke:#000000;stroke-width:2;stroke-linejoin:round;stroke-miterlimit:10;" x1="56" y1="32" x2="61" y2="32"/><circle cx="71" cy="20" r="1"/><circle cx="75" cy="20" r="1"/><circle cx="74" cy="28" r="1"/><circle cx="70" cy="14" r="1"/><circle cx="74" cy="12" r="1"/><circle cx="70" cy="26" r="1"/><circle cx="41" cy="20" r="1"/><circle cx="37" cy="20" r="1"/><circle cx="38" cy="28" r="1"/><circle cx="42" cy="14" r="1"/><circle cx="38" cy="12" r="1"/><circle cx="42" cy="26" r="1"/></g><g id="Layer_2"></g><g id="Layer_3"></g></svg>