<?xml version="1.0" encoding="iso-8859-1"?><!-- Generator: Adobe Illustrator 19.2.1, SVG Export Plug-In . SVG Version: 6.00 Build 0)  --><svg xmlns="http://www.w3.org/2000/svg" xmlns:xlink="http://www.w3.org/1999/xlink" viewBox="0 0 50 50" width="500px" height="500px"><path style="fill:none;stroke:#000000;stroke-width:2;stroke-linecap:round;stroke-miterlimit:10;" d="M33,26v2.818c0,0.7,0.579,1.182,1.286,1.182h5.429C40.421,30,41,29.518,41,28.818V26H33z"/><path style="fill:none;stroke:#000000;stroke-width:2;stroke-linejoin:round;stroke-miterlimit:10;" d="M41,26c0-0.636,0-2.286,0-3.545c0-3.427,5-3.543,5-9.545C46,7.988,41.971,4,37,4s-9,3.988-9,8.909c0,6.13,5,6.804,5,9.545C33,23.285,33,26,33,26"/><path style="fill:none;stroke:#000000;stroke-width:2;stroke-linecap:round;stroke-miterlimit:10;" d="M39,30.02c0,1.093-0.896,1.98-2,1.98s-2-0.887-2-1.98"/><line style="fill:none;stroke:#000000;stroke-width:2;stroke-miterlimit:10;" x1="37" y1="16" x2="37" y2="26"/><polyline style="fill:none;stroke:#000000;stroke-width:2;stroke-linecap:round;stroke-miterlimit:10;" points="34,13 37,16 40,13 "/><path style="fill:none;stroke:#000000;stroke-width:2;stroke-linecap:round;stroke-linejoin:round;stroke-miterlimit:10;" d="M36,46v-5.406c0-1.584,0.275-3.124,0.767-4.594"/><path style="fill:none;stroke:#000000;stroke-width:2;stroke-linecap:round;stroke-linejoin:round;stroke-miterlimit:10;" d="M27,4.096C26.331,4.037,25.642,4,24.922,4C12.636,4,9.213,11.284,8.336,19.445l-4.125,7.108c-0.439,0.79-0.175,1.755,0.614,2.194l3.51,1.755l1.053,7.284c0.351,2.194,2.38,4.302,4.574,4.214H18v4"/><rect x="17" y="45" width="2" height="2"/><rect x="35" y="45" width="2" height="2"/></svg>