<?xml version="1.0" encoding="iso-8859-1"?><!-- Generator: Adobe Illustrator 19.2.1, SVG Export Plug-In . SVG Version: 6.00 Build 0)  --><svg xmlns="http://www.w3.org/2000/svg" xmlns:xlink="http://www.w3.org/1999/xlink" viewBox="0 0 50 50" width="500px" height="500px"><path style="fill:none;stroke:#000000;stroke-width:2;stroke-linecap:round;stroke-miterlimit:10;" d="M41.707,10.904L25.993,26.61c-0.521,0.52-1.388,0.52-1.967,0l-0.636-0.636c-0.521-0.52-0.521-1.387,0-1.965L39.104,8.303"/><polygon points="42.5,20 43.48,22.52 46,23.5 43.48,24.48 42.5,27 41.52,24.48 39,23.5 41.52,22.52 "/><polygon points="34.5,23 35.214,24.786 37,25.5 35.214,26.214 34.5,28 33.786,26.214 32,25.5 33.786,24.786 "/><path d="M48.984,11.672l-5.537-2.169l2.712-5.273L40.73,6.641l-1.875-5.624l-2.095,5.537l-5.35-2.714l2.488,5.43l-5.658,1.861l4.769,1.834l5.646-2.853c0.157-0.156,0.365-0.187,0.583,0.03l0.627,0.568c0.163,0.181,0.18,0.444,0.036,0.588l-3.065,5.891l1.509,4.526l2.156-5.498l5.25,2.624l-2.387-5.37L48.984,11.672z"/><path d="M40.636,27.725l-0.661-1.7l-0.996-0.387c-0.054,0.76-0.521,1.433-1.236,1.719l-0.99,0.396l-0.396,0.99C36.053,29.502,35.318,30,34.5,30s-1.553-0.498-1.857-1.257l-0.396-0.99l-0.99-0.396C30.498,27.053,30,26.318,30,25.5c0-0.392,0-1.669,0-2.895l-4.007,4.005c-0.521,0.52-1.388,0.52-1.967,0l-0.636-0.636c-0.521-0.52-0.521-1.387,0-1.965l9.12-9.116c-0.073-0.019-0.147-0.034-0.219-0.062l-4.769-1.834c-0.789-0.304-1.302-1.071-1.281-1.916c0.021-0.845,0.571-1.586,1.374-1.851l3.532-1.162l-1.556-3.396c-0.181-0.395-0.221-0.826-0.138-1.232C28.057,3.158,26.551,3,24.921,3C14.343,3,8.598,8.275,7.365,19.126l-4.028,6.941c-0.341,0.613-0.428,1.317-0.243,1.981c0.186,0.672,0.629,1.23,1.284,1.593l3.042,1.521l0.981,6.782c0.405,2.533,2.712,5.146,5.562,5.056H17v4h20v-6.406c0-2.861,0.969-5.759,2.796-8.367c0.743-1.033,1.32-2.227,1.783-3.475C41.161,28.532,40.815,28.184,40.636,27.725z"/></svg>