<?xml version="1.0" encoding="iso-8859-1"?><!-- Generator: Adobe Illustrator 23.0.1, SVG Export Plug-In . SVG Version: 6.00 Build 0)  --><svg xmlns="http://www.w3.org/2000/svg" xmlns:xlink="http://www.w3.org/1999/xlink" viewBox="0 0 80 80" width="480px" height="480px"><circle cx="31.999" cy="66" r="1"/><circle cx="35.999" cy="66" r="1"/><circle cx="39.999" cy="65" r="1"/><circle cx="42.999" cy="62" r="1"/><path style="fill:none;stroke:#000000;stroke-width:2;stroke-miterlimit:10;" d="M56.999,66.734V73"/><path style="fill:none;stroke:#000000;stroke-width:2;stroke-miterlimit:10;" d="M31,66.734V73"/><path style="fill:none;stroke:#000000;stroke-width:2;stroke-miterlimit:10;" d="M55,9c-9.389,0-17,6.492-17,14.5c0,4.354,2.261,8.25,5.824,10.908C42.633,37.279,41,38.979,41,40.09c2.378,0,6-1.09,8.557-2.863C51.268,37.721,53.094,38,55,38c9.389,0,17-6.492,17-14.5S64.389,9,55,9z"/><g><g><line style="fill:none;stroke:#000000;stroke-width:2;stroke-linecap:round;stroke-miterlimit:10;" x1="43" y1="23.5" x2="43" y2="23.5"/><path style="fill:none;stroke:#000000;stroke-width:2;stroke-linecap:round;stroke-miterlimit:10;stroke-dasharray:0,4.2347;" d="M44.128,19.473c1.627-2.748,4.867-4.778,8.755-5.326"/><line style="fill:none;stroke:#000000;stroke-width:2;stroke-linecap:round;stroke-miterlimit:10;" x1="55" y1="14" x2="55" y2="14"/></g></g><path style="fill:none;stroke:#000000;stroke-width:2;stroke-linecap:round;stroke-miterlimit:10;" d="M41,9.057C25.295,9.959,16.999,21.475,16.999,32.891l-6.742,11.451c-0.543,0.923-0.197,2.113,0.757,2.6L16.999,50v8c0,4.418,3.582,8,8,8h6v5"/><path style="fill:none;stroke:#000000;stroke-width:2;stroke-linecap:round;stroke-miterlimit:10;" d="M56.999,71v-4.266c0-10.985,11.394-15.192,12.848-28.734"/></svg>