<?xml version="1.0" encoding="iso-8859-1"?><!-- Generator: Adobe Illustrator 19.2.1, SVG Export Plug-In . SVG Version: 6.00 Build 0)  --><svg xmlns="http://www.w3.org/2000/svg" xmlns:xlink="http://www.w3.org/1999/xlink" viewBox="0 0 50 50" width="500px" height="500px"><circle style="fill:none;stroke:#000000;stroke-width:2;stroke-linecap:round;stroke-miterlimit:10;" cx="33" cy="19" r="13"/><path style="fill:none;stroke:#000000;stroke-width:2;stroke-linecap:round;stroke-linejoin:round;stroke-miterlimit:10;" d="M24.997,4.003C24.971,4.003,24.948,4,24.922,4C12.636,4,9.213,11.284,8.336,19.445l-4.125,7.108c-0.439,0.79-0.175,1.755,0.614,2.194l3.51,1.755l1.053,7.284c0.351,2.194,2.38,4.302,4.574,4.214H18v4"/><path style="fill:none;stroke:#000000;stroke-width:2;stroke-linecap:round;stroke-linejoin:round;stroke-miterlimit:10;" d="M36,46v-5.406c0-1.757,0.343-3.459,0.942-5.072"/><circle cx="33" cy="19" r="2"/><polyline style="fill:none;stroke:#000000;stroke-width:2;stroke-linecap:round;stroke-miterlimit:10;" points="33,22 33,19 33,10 "/><rect x="17" y="45" width="2" height="2"/><rect x="35" y="45" width="2" height="2"/><circle cx="33" cy="10" r="1"/><ellipse transform="matrix(0.6719 -0.7406 0.7406 0.6719 -0.7701 24.2615)" cx="27" cy="13" rx="1" ry="1"/><ellipse transform="matrix(0.6719 -0.7406 0.7406 0.6719 3.1667 33.1488)" cx="39" cy="13" rx="1" ry="1"/><ellipse transform="matrix(0.6719 -0.7406 0.7406 0.6719 -5.7206 37.0857)" cx="39" cy="25" rx="1" ry="1"/><ellipse transform="matrix(0.6719 -0.7406 0.7406 0.6719 -9.6575 28.1983)" cx="27" cy="25" rx="1" ry="1"/><circle cx="24" cy="19" r="1"/><circle cx="42" cy="19" r="1"/><circle cx="33" cy="28" r="1"/><line style="fill:none;stroke:#000000;stroke-width:2;stroke-miterlimit:10;" x1="43.586" y1="5.586" x2="46.414" y2="8.414"/><line style="fill:none;stroke:#000000;stroke-width:2;stroke-miterlimit:10;" x1="42" y1="10" x2="45" y2="7"/><line style="fill:none;stroke:#000000;stroke-width:2;stroke-miterlimit:10;" x1="33" y1="3" x2="33" y2="6"/></svg>