<?xml version="1.0" encoding="iso-8859-1"?><!-- Generator: Adobe Illustrator 19.2.1, SVG Export Plug-In . SVG Version: 6.00 Build 0)  --><svg xmlns="http://www.w3.org/2000/svg" xmlns:xlink="http://www.w3.org/1999/xlink" viewBox="0 0 50 50" width="500px" height="500px"><path style="fill:none;stroke:#000000;stroke-width:2;stroke-linecap:round;stroke-miterlimit:10;" d="M33,26v2.818c0,0.7,0.579,1.182,1.286,1.182h5.429C40.421,30,41,29.518,41,28.818V26H33z"/><path style="fill:none;stroke:#000000;stroke-width:2;stroke-linejoin:round;stroke-miterlimit:10;" d="M41,26c0-0.636,0-2.286,0-3.545c0-3.427,5-3.543,5-9.545C46,7.988,41.971,4,37,4s-9,3.988-9,8.909c0,6.13,5,6.804,5,9.545C33,23.285,33,26,33,26"/><line style="fill:none;stroke:#000000;stroke-width:2;stroke-miterlimit:10;" x1="37" y1="16" x2="37" y2="26"/><polyline style="fill:none;stroke:#000000;stroke-width:2;stroke-linecap:round;stroke-miterlimit:10;" points="34,13 37,16 40,13 "/><path d="M39.582,30l-0.48,0.021l-0.181,0.518c-0.174,0.632-0.653,1.133-1.274,1.345c-0.029,0.01-0.057,0.018-0.087,0.027C37.382,31.963,37.196,32,37,32c-0.196,0-0.382-0.037-0.561-0.089c-0.029-0.009-0.058-0.016-0.086-0.026c-0.621-0.212-1.099-0.713-1.274-1.344l-0.182-0.52l-0.677-0.029c-0.695-0.03-1.22-0.534-1.22-1.173v-6.364c0-1.099-0.818-1.88-1.766-2.784C29.793,18.294,28,16.583,28,12.909c0-3.659,2.242-6.808,5.437-8.177C31.065,3.643,28.245,3,24.921,3C14.343,3,8.598,8.275,7.365,19.126l-4.028,6.941c-0.341,0.613-0.428,1.317-0.243,1.981c0.186,0.672,0.629,1.23,1.284,1.593l3.042,1.521l0.981,6.782c0.405,2.532,2.712,5.156,5.562,5.056H17v4h20v-6.406c0-2.861,0.969-5.759,2.796-8.367c0.489-0.681,0.899-1.439,1.264-2.227H39.582z"/></svg>