<?xml version="1.0" encoding="iso-8859-1"?><!-- Generator: Adobe Illustrator 19.2.1, SVG Export Plug-In . SVG Version: 6.00 Build 0)  --><svg xmlns="http://www.w3.org/2000/svg" xmlns:xlink="http://www.w3.org/1999/xlink" viewBox="0 0 50 50" width="500px" height="500px"><path style="fill:none;stroke:#000000;stroke-width:2;stroke-linecap:round;stroke-miterlimit:10;" d="M33.535,4C26.641,4,21,8.944,21,15.072c0,3.134,1.462,5.989,3.83,8.008c-0.627,2.786-4.039,3.9-3.83,4.666c2.089,1.184,7.334-1.259,9.145-2.025C31.05,25.93,32.025,26,33,26c6.894,0,13-4.799,13-10.928S40.429,4,33.535,4z"/><path style="fill:none;stroke:#000000;stroke-width:2;stroke-linecap:round;stroke-miterlimit:10;" d="M40.402,29c-0.399,0.967-0.864,1.871-1.419,2.643C37.141,34.276,36,37.347,36,40.594V46"/><path style="fill:none;stroke:#000000;stroke-width:2;stroke-linecap:round;stroke-miterlimit:10;" d="M22,4.176C12.098,5.267,9.139,11.978,8.336,19.445l-4.125,7.108c-0.439,0.79-0.175,1.755,0.614,2.194l3.51,1.755l1.053,7.284c0.351,2.194,2.38,4.302,4.574,4.214H18v4"/><rect x="17" y="45" width="2" height="2"/><rect x="35" y="45" width="2" height="2"/><circle cx="33.5" cy="14.5" r="1.5"/><circle cx="39.5" cy="14.5" r="1.5"/><circle cx="27.5" cy="14.5" r="1.5"/></svg>