<?xml version="1.0" encoding="iso-8859-1"?><!-- Generator: Adobe Illustrator 19.2.1, SVG Export Plug-In . SVG Version: 6.00 Build 0)  --><svg xmlns="http://www.w3.org/2000/svg" xmlns:xlink="http://www.w3.org/1999/xlink" viewBox="0 0 50 50" width="500px" height="500px"><rect x="20" y="10" style="fill:none;stroke:#000000;stroke-width:2;stroke-linecap:round;stroke-linejoin:round;stroke-miterlimit:10;" width="20" height="20"/><polygon style="fill:none;stroke:#000000;stroke-width:2;stroke-linecap:round;stroke-linejoin:round;stroke-miterlimit:10;" points="40,30 46,23 46,4 40,10 "/><polygon style="fill:none;stroke:#000000;stroke-width:2;stroke-linecap:round;stroke-linejoin:round;stroke-miterlimit:10;" points="46,4 28,4 20,10 40,10 "/><circle cx="37" cy="22" r="1"/><circle cx="43" cy="22" r="1"/><circle cx="34" cy="22" r="1"/><circle cx="31" cy="22" r="1"/><circle cx="28" cy="22" r="1"/><circle cx="26" cy="24" r="1"/><circle cx="24" cy="26" r="1"/><circle cx="22" cy="28" r="1"/><circle cx="28" cy="19" r="1"/><circle cx="28" cy="16" r="1"/><circle cx="28" cy="13" r="1"/><circle cx="28" cy="7" r="1"/><line style="fill:none;stroke:#000000;stroke-width:2;stroke-linecap:round;stroke-linejoin:round;stroke-miterlimit:10;" x1="20" y1="30" x2="22" y2="28"/><path d="M40.112,29.869l-0.022,0.012l-0.098,0.107L39.972,30H20V10.155l0.004-0.012l0.003-0.135l0.001-0.002c0.02-0.018,0.039-0.036,0.057-0.055L28,4h3.567c-1.952-0.635-4.155-1-6.645-1C14.344,3,8.599,8.275,7.365,19.126l-4.028,6.941c-0.713,1.284-0.272,2.846,1.041,3.574l3.043,1.521l0.98,6.781c0.406,2.533,2.73,5.15,5.562,5.056H17v4h20v-6.406c0-2.861,0.969-5.758,2.795-8.367c0.941-1.308,1.632-2.864,2.133-4.477L40.112,29.869z"/></svg>