<?xml version="1.0" encoding="iso-8859-1"?><!-- Generator: Adobe Illustrator 21.0.2, SVG Export Plug-In . SVG Version: 6.00 Build 0)  --><svg xmlns="http://www.w3.org/2000/svg" xmlns:xlink="http://www.w3.org/1999/xlink" viewBox="0 0 50 50" width="500px" height="500px"><path d="M31,40c0-4.971,4.029-9,9-9c1.054,0,2.06,0.19,3,0.523V14.6L30.4,2H7v46h28.889C32.988,46.506,31,43.488,31,40z M30,4.4L40.6,15H30V4.4z M27,19c4.971,0,9,4.029,9,9h-9V19z M23,41c-4.971,0-9-4.029-9-9c0-4.971,4.029-9,9-9v9h9C32,36.971,27.971,41,23,41z"/><g id="IOS_copy_9_"><path d="M45.9,40c0,0.6-0.4,1-1,1H41v3.9c0,0.6-0.4,1-1,1s-1-0.4-1-1V41h-3.9c-0.6,0-1-0.4-1-1s0.4-1,1-1H39v-3.9c0-0.6,0.4-1,1-1s1,0.4,1,1V39h3.9C45.5,39,45.9,39.4,45.9,40z M50,40c0,5.5-4.5,10-10,10s-10-4.5-10-10s4.5-10,10-10S50,34.5,50,40z M48,40c0-4.4-3.6-8-8-8s-8,3.6-8,8s3.6,8,8,8S48,44.4,48,40z"/></g></svg>