<?xml version="1.0" encoding="iso-8859-1"?>
<!-- Generator: Adobe Illustrator 23.0.3, SVG Export Plug-In . SVG Version: 6.00 Build 0)  -->
<svg version="1.1" xmlns="http://www.w3.org/2000/svg" xmlns:xlink="http://www.w3.org/1999/xlink" x="0px" y="0px"
	 viewBox="0 0 50 50" style="enable-background:new 0 0 50 50;" xml:space="preserve">
<g id="Layer_10" style="display:none;">
	<g style="display:inline;opacity:0.05;">
		<g>
			<circle style="fill:#FFFFFF;" cx="25" cy="25" r="21.5"/>
			<path d="M25,4c11.579,0,21,9.421,21,21s-9.421,21-21,21S4,36.579,4,25S13.421,4,25,4 M25,3C12.85,3,3,12.85,3,25s9.85,22,22,22
				s22-9.85,22-22S37.15,3,25,3L25,3z"/>
		</g>
		<g>
			<rect x="5.5" y="5.5" style="fill:#FFFFFF;" width="39" height="39"/>
			<path d="M44,6v38H6V6H44 M45,5H5v40h40V5L45,5z"/>
		</g>
	</g>
</g>
<g id="filled">
</g>
<g id="outlined">
</g>
<g id="rounded">
</g>
<g id="two_x5F_tone">
</g>
<g id="sharp">
</g>
<g id="win10">
</g>
<g id="ios_x5F_out">
	<path style="fill:none;stroke:#000000;stroke-width:2;stroke-miterlimit:10;" d="M22,28l15.947-5.804
		c0.53-0.193,1.13,0.085,1.292,0.625C39.743,24.499,40,26.244,40,28c0,10.913-9.925,19.69-21.167,17.723
		c-7.367-1.289-13.266-7.189-14.555-14.555C2.31,19.925,11.087,10,22,10c1.228,0,2.452,0.126,3.653,0.375
		c0.553,0.115,0.884,0.691,0.738,1.237L22,28z"/>
	<path style="fill:none;stroke:#000000;stroke-width:2;stroke-miterlimit:10;" d="M28.1,21.387l4.392-16.391
		c0.146-0.545,0.719-0.877,1.254-0.7c2.413,0.797,4.635,2.098,6.514,3.821s3.369,3.822,4.374,6.157
		c0.223,0.518-0.058,1.118-0.588,1.31L28.1,21.387z"/>
</g>
<g id="ios_x5F_filled">
</g>
<g id="color">
</g>
</svg>