<?xml version="1.0" encoding="iso-8859-1"?><!-- Generator: Adobe Illustrator 21.0.2, SVG Export Plug-In . SVG Version: 6.00 Build 0)  --><svg xmlns="http://www.w3.org/2000/svg" xmlns:xlink="http://www.w3.org/1999/xlink" viewBox="0 0 50 50" width="500px" height="500px"><polyline style="fill:none;stroke:#000000;stroke-width:2;stroke-linecap:round;stroke-miterlimit:10;" points="41,15 30,15 30,4 "/><path style="fill:none;stroke:#000000;stroke-width:2;stroke-linecap:round;stroke-linejoin:round;stroke-miterlimit:10;" d="M27,19v9h9C36,23.029,31.971,19,27,19z"/><path style="fill:none;stroke:#000000;stroke-width:2;stroke-linecap:round;stroke-linejoin:round;stroke-miterlimit:10;" d="M23,23c-4.971,0-9,4.029-9,9c0,4.971,4.029,9,9,9s9-4.029,9-9h-9V23z"/><path d="M41.693,50L33,39.996h5v-9h7v9h5L41.693,50z M37,41.996l4.693,5l4.307-5h-3v-9h-3v9H37z"/><g><polygon points="35.568,46 9,46 9,4 29.586,4 41,15.414 41,28.996 43,28.996 43,14.586 30.414,2 7,2 7,48 37.306,48 "/><polygon points="41.62,43.996 41.629,44.006 41.638,43.996 "/></g></svg>