<?xml version="1.0" encoding="iso-8859-1"?><!-- Generator: Adobe Illustrator 21.0.2, SVG Export Plug-In . SVG Version: 6.00 Build 0)  --><svg xmlns="http://www.w3.org/2000/svg" xmlns:xlink="http://www.w3.org/1999/xlink" viewBox="0 0 50 50" width="500px" height="500px"><polyline style="fill:none;stroke:#000000;stroke-width:2;stroke-linecap:round;stroke-miterlimit:10;" points="41,15 30,15 30,4 "/><path d="M28.404,36.959c0.734-2.805,2.447-5.209,4.764-6.818l2.537-3.171C35.802,26.985,35.899,27,36,27c1.105,0,2-0.895,2-2c0-1.105-0.895-2-2-2s-2,0.895-2,2c0,0.256,0.052,0.499,0.14,0.723l-5.845,7.306C28.198,33.015,28.101,33,28,33c-0.138,0-0.273,0.014-0.403,0.041l-5.706-6.418C21.956,26.425,22,26.219,22,26c0-1.105-0.895-2-2-2s-2,0.895-2,2c0,0.178,0.031,0.347,0.074,0.512l-3.563,3.563C14.347,30.031,14.178,30,14,30c-1.105,0-2,0.895-2,2c0,1.105,0.895,2,2,2s2-0.895,2-2c0-0.178-0.031-0.347-0.074-0.512l3.563-3.563C19.653,27.969,19.822,28,20,28c0.138,0,0.273-0.014,0.403-0.041l5.705,6.419C26.044,34.575,26,34.781,26,35c0,1.105,0.895,2,2,2C28.138,37,28.273,36.986,28.404,36.959z"/><path d="M29.618,46H9V4h20.586L41,15.414V28.05c0.686,0.057,1.352,0.176,2,0.343V14.586L30.414,2H7v46h24.074C30.523,47.386,30.034,46.718,29.618,46z"/><g id="IOS_copy_2_"><path d="M44.2,37.2L41.4,40l2.8,2.8c0.4,0.4,0.4,1,0,1.4c-0.2,0.2-0.5,0.3-0.7,0.3s-0.5-0.1-0.7-0.3L40,41.4l-2.8,2.8c-0.2,0.2-0.5,0.3-0.7,0.3s-0.5-0.1-0.7-0.3c-0.4-0.4-0.4-1,0-1.4l2.8-2.8l-2.8-2.8c-0.4-0.4-0.4-1,0-1.4c0.4-0.4,1-0.4,1.4,0l2.8,2.8l2.8-2.8c0.4-0.4,1-0.4,1.4,0C44.6,36.2,44.6,36.8,44.2,37.2z M50,40c0,5.5-4.5,10-10,10s-10-4.5-10-10s4.5-10,10-10S50,34.5,50,40z M48,40c0-4.4-3.6-8-8-8s-8,3.6-8,8s3.6,8,8,8S48,44.4,48,40z"/></g></svg>