<?xml version="1.0" encoding="iso-8859-1"?><!-- Generator: Adobe Illustrator 21.0.2, SVG Export Plug-In . SVG Version: 6.00 Build 0)  --><svg xmlns="http://www.w3.org/2000/svg" xmlns:xlink="http://www.w3.org/1999/xlink" viewBox="0 0 50 50" width="500px" height="500px"><path d="M34,40.996h5v-9h4V14.6L30.4,2H7v46h33.086L34,40.996z M30,4.4L40.6,15H30V4.4z M27,19c4.971,0,9,4.029,9,9h-9V19z M23,41c-4.971,0-9-4.029-9-9c0-4.971,4.029-9,9-9v9h9C32,36.971,27.971,41,23,41z"/><path d="M41.693,50L33,39.996h5v-9h7v9h5L41.693,50z M37,41.996l4.693,5l4.307-5h-3v-9h-3v9H37z"/></svg>