<?xml version="1.0" encoding="iso-8859-1"?><!-- Generator: Adobe Illustrator 21.0.2, SVG Export Plug-In . SVG Version: 6.00 Build 0)  --><svg xmlns="http://www.w3.org/2000/svg" xmlns:xlink="http://www.w3.org/1999/xlink" viewBox="0 0 50 50" width="500px" height="500px"><polyline style="fill:none;stroke:#000000;stroke-width:2;stroke-linecap:round;stroke-miterlimit:10;" points="41,15 30,15 30,4 "/><polyline style="fill:none;stroke:#000000;stroke-width:2;stroke-linecap:round;stroke-miterlimit:10;" points="14,32 20,26 28,35 36,25 "/><circle cx="36" cy="25" r="2"/><circle cx="28" cy="35" r="2"/><circle cx="14" cy="32" r="2"/><circle cx="20" cy="26" r="2"/><path d="M45.962,28c-1,0-1.9,0.4-2.7,1.1l0,0l-0.2,0.1l0,0l-0.1,0.1l-0.3,0.3l0,0l-0.7,0.7l-0.2,0.2l-11.7,11.8c-0.1,0.1-0.2,0.3-0.3,0.4l-1.7,6c-0.2,0.5,0.1,1.1,0.7,1.2c0.2,0.1,0.4,0.1,0.5,0l6-1.6c0.2,0,0.3-0.1,0.5-0.3l12.8-12.8l0,0l0.3-0.2c1.6-1.6,1.6-4.2,0-5.8C48.062,28.3,46.962,28,45.962,28z M45.962,30c0.5,0,1.1,0.2,1.5,0.6c0.8,0.8,0.8,2,0.1,2.8l-2.9-2.9C45.062,30.2,45.462,30,45.962,30z M43.162,31.9l3,3l-10.9,10.9l-3-2.9L43.162,31.9z M31.262,44.8l2.1,2.1l-2.9,0.8L31.262,44.8z"/><path d="M26.726,46H9V4h20.586L41,15.414v12.997l0.625-0.625c0.413-0.413,0.877-0.757,1.375-1.031V14.586L30.414,2H7v46h19.159L26.726,46z"/></svg>