<?xml version="1.0" encoding="iso-8859-1"?><!-- Generator: Adobe Illustrator 22.0.1, SVG Export Plug-In . SVG Version: 6.00 Build 0)  --><svg xmlns="http://www.w3.org/2000/svg" xmlns:xlink="http://www.w3.org/1999/xlink" viewBox="0 0 50 50" width="500px" height="500px"><path d="M10,6c-3.9,0-7,3.1-7,7s3.1,7,7,7s7-3.1,7-7S13.9,6,10,6z M10.9,15.7H9.1v-3.6H7.7l1.8-1.8h1.4V15.7L10.9,15.7z"/><polyline style="fill:none;stroke:#000000;stroke-width:4;stroke-miterlimit:10;" points="6,32 17,22 21,26 32,15 36,19 46,8 "/><polyline style="fill:none;stroke:#000000;stroke-width:4;stroke-miterlimit:10;" points="46,18 46,8 36,8 "/><line style="fill:none;stroke:#000000;stroke-width:4;stroke-miterlimit:10;" x1="44" y1="44" x2="44" y2="23"/><line style="fill:none;stroke:#000000;stroke-width:4;stroke-miterlimit:10;" x1="37" y1="44" x2="37" y2="26"/><line style="fill:none;stroke:#000000;stroke-width:4;stroke-miterlimit:10;" x1="30" y1="44" x2="30" y2="26"/><line style="fill:none;stroke:#000000;stroke-width:4;stroke-miterlimit:10;" x1="23" y1="44" x2="23" y2="32"/><line style="fill:none;stroke:#000000;stroke-width:4;stroke-miterlimit:10;" x1="16" y1="44" x2="16" y2="31"/><line style="fill:none;stroke:#000000;stroke-width:4;stroke-miterlimit:10;" x1="9" y1="44" x2="9" y2="36"/></svg>