<?xml version="1.0" encoding="iso-8859-1"?><!-- Generator: Adobe Illustrator 21.0.2, SVG Export Plug-In . SVG Version: 6.00 Build 0)  --><svg xmlns="http://www.w3.org/2000/svg" xmlns:xlink="http://www.w3.org/1999/xlink" viewBox="0 0 50 50" width="500px" height="500px"><polyline style="fill:none;stroke:#000000;stroke-width:2;stroke-linecap:round;stroke-miterlimit:10;" points="41,15 30,15 30,4 "/><path d="M28,40c0-0.65,0.066-1.282,0.165-1.904C26.77,39.28,24.969,40,23,40c-4.411,0-8-3.589-8-8c0-4.072,3.059-7.444,7-7.938V32c0,0.552,0.448,1,1,1h7.267c0.525-0.728,1.128-1.393,1.8-1.987C32.043,31.012,32.023,31,32,31h-8v-8c0-0.552-0.448-1-1-1c-5.514,0-10,4.486-10,10s4.486,10,10,10c1.836,0,3.552-0.506,5.032-1.372C28.021,40.419,28,40.212,28,40z"/><path d="M29.618,46H9V4h20.586L41,15.414V28.05c0.686,0.057,1.352,0.176,2,0.343V14.586L30.414,2H7v46h24.074C30.523,47.386,30.034,46.718,29.618,46z"/><path d="M36.902,28.419C36.961,28.29,37,28.151,37,28c0-5.514-4.486-10-10-10c-0.552,0-1,0.448-1,1v9c0,0.552,0.448,1,1,1h8.211C35.754,28.763,36.32,28.574,36.902,28.419z M28,20.062c3.613,0.453,6.485,3.325,6.938,6.938H28V20.062z"/><g id="IOS_copy_8_"><path d="M45.9,40c0,0.6-0.4,1-1,1H41v3.9c0,0.6-0.4,1-1,1s-1-0.4-1-1V41h-3.9c-0.6,0-1-0.4-1-1s0.4-1,1-1H39v-3.9c0-0.6,0.4-1,1-1s1,0.4,1,1V39h3.9C45.5,39,45.9,39.4,45.9,40z M50,40c0,5.5-4.5,10-10,10s-10-4.5-10-10s4.5-10,10-10S50,34.5,50,40z M48,40c0-4.4-3.6-8-8-8s-8,3.6-8,8s3.6,8,8,8S48,44.4,48,40z"/></g></svg>