<?xml version="1.0" encoding="iso-8859-1"?><!-- Generator: Adobe Illustrator 21.0.2, SVG Export Plug-In . SVG Version: 6.00 Build 0)  --><svg xmlns="http://www.w3.org/2000/svg" xmlns:xlink="http://www.w3.org/1999/xlink" viewBox="0 0 50 50" width="500px" height="500px"><path d="M31,40c0-4.971,4.029-9,9-9c1.054,0,2.06,0.19,3,0.523V14.6L30.4,2H7v46h28.889C32.988,46.506,31,43.488,31,40z M30,4.4L40.6,15H30V4.4z M28,37c-1.105,0-2-0.895-2-2c0-0.219,0.044-0.425,0.109-0.622l-5.705-6.418C20.273,27.986,20.138,28,20,28c-0.178,0-0.347-0.031-0.512-0.074l-3.563,3.563C15.969,31.653,16,31.822,16,32c0,1.105-0.895,2-2,2s-2-0.895-2-2c0-1.105,0.895-2,2-2c0.178,0,0.347,0.031,0.512,0.074l3.563-3.563C18.031,26.347,18,26.178,18,26c0-1.105,0.895-2,2-2s2,0.895,2,2c0,0.219-0.044,0.425-0.109,0.622l5.705,6.418C27.727,33.014,27.862,33,28,33c0.101,0,0.199,0.015,0.296,0.03l5.844-7.306C34.053,25.499,34,25.256,34,25c0-1.105,0.895-2,2-2s2,0.895,2,2c0,1.105-0.895,2-2,2c-0.101,0-0.198-0.015-0.296-0.03l-5.845,7.306C29.947,34.501,30,34.744,30,35C30,36.105,29.105,37,28,37z"/><g id="IOS_copy_10_"><path d="M45.9,40c0,0.6-0.4,1-1,1H41v3.9c0,0.6-0.4,1-1,1s-1-0.4-1-1V41h-3.9c-0.6,0-1-0.4-1-1s0.4-1,1-1H39v-3.9c0-0.6,0.4-1,1-1s1,0.4,1,1V39h3.9C45.5,39,45.9,39.4,45.9,40z M50,40c0,5.5-4.5,10-10,10s-10-4.5-10-10s4.5-10,10-10S50,34.5,50,40z M48,40c0-4.4-3.6-8-8-8s-8,3.6-8,8s3.6,8,8,8S48,44.4,48,40z"/></g></svg>