<?xml version="1.0" encoding="iso-8859-1"?><!-- Generator: Adobe Illustrator 21.0.2, SVG Export Plug-In . SVG Version: 6.00 Build 0)  --><svg xmlns="http://www.w3.org/2000/svg" xmlns:xlink="http://www.w3.org/1999/xlink" viewBox="0 0 50 50" width="500px" height="500px"><polyline style="fill:none;stroke:#000000;stroke-width:2;stroke-linecap:round;stroke-miterlimit:10;" points="41,15 30,15 30,4 "/><polyline style="fill:none;stroke:#000000;stroke-width:2;stroke-linecap:round;stroke-miterlimit:10;" points="14,32 20,26 28,35 36,25 "/><circle cx="36" cy="25" r="2"/><circle cx="28" cy="35" r="2"/><circle cx="14" cy="32" r="2"/><circle cx="20" cy="26" r="2"/><g><polygon points="35.568,46 9,46 9,4 29.586,4 41,15.414 41,28.996 43,28.996 43,14.586 30.414,2 7,2 7,48 37.306,48 "/><polygon points="41.62,43.996 41.629,44.006 41.638,43.996 "/></g><path d="M41.693,50L33,39.996h5v-9h7v9h5L41.693,50z M37,41.996l4.693,5l4.307-5h-3v-9h-3v9H37z"/></svg>