<?xml version="1.0" encoding="iso-8859-1"?><!-- Generator: Adobe Illustrator 21.0.2, SVG Export Plug-In . SVG Version: 6.00 Build 0)  --><svg xmlns="http://www.w3.org/2000/svg" xmlns:xlink="http://www.w3.org/1999/xlink" viewBox="0 0 50 50" width="500px" height="500px"><path d="M30.4,2H7v46h21.724l1.089-3.845l0.142-0.501l0.278-0.278c0.084-0.125,0.207-0.307,0.384-0.484l12.306-12.406L43,30.409V14.6L30.4,2z M36,27c-0.101,0-0.198-0.015-0.296-0.03l-5.845,7.306C29.947,34.501,30,34.744,30,35c0,1.105-0.895,2-2,2s-2-0.895-2-2c0-0.219,0.044-0.425,0.109-0.622l-5.705-6.418C20.273,27.986,20.138,28,20,28c-0.178,0-0.347-0.031-0.512-0.074l-3.563,3.563C15.969,31.653,16,31.822,16,32c0,1.105-0.895,2-2,2s-2-0.895-2-2c0-1.105,0.895-2,2-2c0.178,0,0.347,0.031,0.512,0.074l3.563-3.563C18.031,26.347,18,26.178,18,26c0-1.105,0.895-2,2-2s2,0.895,2,2c0,0.219-0.044,0.425-0.109,0.622l5.705,6.418C27.727,33.014,27.862,33,28,33c0.101,0,0.199,0.015,0.296,0.03l5.844-7.306C34.053,25.499,34,25.256,34,25c0-1.105,0.895-2,2-2s2,0.895,2,2C38,26.105,37.105,27,36,27z M30,15V4.4L40.6,15H30z"/><path d="M45.962,28.025c-1,0-1.9,0.4-2.7,1.1l0,0l-0.2,0.1l0,0l-0.1,0.1l-0.3,0.3l0,0l-0.7,0.7l-0.2,0.2l-11.7,11.8c-0.1,0.1-0.2,0.3-0.3,0.4l-1.7,6c-0.2,0.5,0.1,1.1,0.7,1.2c0.2,0.1,0.4,0.1,0.5,0l6-1.6c0.2,0,0.3-0.1,0.5-0.3l12.8-12.8l0,0l0.3-0.2c1.6-1.6,1.6-4.2,0-5.8C48.062,28.325,46.962,28.025,45.962,28.025z M45.962,30.025c0.5,0,1.1,0.2,1.5,0.6c0.8,0.8,0.8,2,0.1,2.8l-2.9-2.9C45.062,30.225,45.462,30.025,45.962,30.025z M43.162,31.925l3,3l-10.9,10.9l-3-2.9L43.162,31.925z M31.262,44.825l2.1,2.1l-2.9,0.8L31.262,44.825z"/></svg>