<?xml version="1.0" encoding="iso-8859-1"?><!-- Generator: Adobe Illustrator 21.0.2, SVG Export Plug-In . SVG Version: 6.00 Build 0)  --><svg xmlns="http://www.w3.org/2000/svg" xmlns:xlink="http://www.w3.org/1999/xlink" viewBox="0 0 50 50" width="500px" height="500px"><polyline style="fill:none;stroke:#000000;stroke-width:2;stroke-linecap:round;stroke-miterlimit:10;" points="41,15 30,15 30,4 "/><polygon points="9,46 9,4 29.586,4 41,15.414 41,30 43,30 43,14.586 30.414,2 7,2 7,48 30,48 30,46 "/><path d="M29.86,34.276L30,34.101V33.9c0-1.92,1.397-3.511,3.226-3.832l2.478-3.098C35.802,26.985,35.899,27,36,27c1.105,0,2-0.895,2-2c0-1.105-0.895-2-2-2s-2,0.895-2,2c0,0.256,0.052,0.499,0.14,0.724l-5.845,7.306C28.198,33.015,28.101,33,28,33c-0.138,0-0.273,0.014-0.403,0.041l-5.706-6.418C21.956,26.425,22,26.219,22,26c0-1.105-0.895-2-2-2s-2,0.895-2,2c0,0.178,0.031,0.347,0.074,0.512l-3.563,3.563C14.347,30.031,14.178,30,14,30c-1.105,0-2,0.895-2,2c0,1.105,0.895,2,2,2s2-0.895,2-2c0-0.178-0.031-0.347-0.074-0.512l3.563-3.563C19.653,27.969,19.822,28,20,28c0.138,0,0.273-0.014,0.403-0.041l5.705,6.419C26.044,34.575,26,34.781,26,35c0,1.105,0.895,2,2,2s2-0.895,2-2C30,34.744,29.948,34.501,29.86,34.276z"/><g id="IOS_copy_28_"><path d="M48.1,32H33.9c-1.1,0-1.9,0.9-1.9,1.9V48c0,1.1,0.8,2,1.9,2h14.2c1,0,1.9-0.9,1.9-1.9V33.9C50,32.9,49.2,32,48.1,32z M48,48H34V34h14V48z"/></g></svg>