<?xml version="1.0" encoding="iso-8859-1"?><!-- Generator: Adobe Illustrator 21.0.2, SVG Export Plug-In . SVG Version: 6.00 Build 0)  --><svg xmlns="http://www.w3.org/2000/svg" xmlns:xlink="http://www.w3.org/1999/xlink" viewBox="0 0 50 50" width="500px" height="500px"><polyline style="fill:none;stroke:#000000;stroke-width:2;stroke-linecap:round;stroke-miterlimit:10;" points="41,15 30,15 30,4 "/><path style="fill:none;stroke:#000000;stroke-width:2;stroke-linecap:round;stroke-linejoin:round;stroke-miterlimit:10;" d="M27,19v9h9C36,23.029,31.971,19,27,19z"/><polygon points="9,46 9,4 29.586,4 41,15.414 41,30 43,30 43,14.586 30.414,2 7,2 7,48 30,48 30,46 "/><path d="M30,35.86C28.635,38.325,26.011,40,23,40c-4.411,0-8-3.589-8-8c0-4.072,3.059-7.444,7-7.938V32c0,0.553,0.448,1,1,1h7.115c0.188-0.788,0.616-1.478,1.202-2H24v-8c0-0.553-0.448-1-1-1c-5.514,0-10,4.486-10,10s4.486,10,10,10c2.724,0,5.195-1.098,7-2.871V35.86z"/><g id="IOS_copy_24_"><path d="M48.1,32H33.9c-1.1,0-1.9,0.9-1.9,1.9V48c0,1.1,0.8,2,1.9,2h14.2c1,0,1.9-0.9,1.9-1.9V33.9C50,32.9,49.2,32,48.1,32z M48,48H34V34h14V48z"/></g></svg>