<?xml version="1.0" encoding="iso-8859-1"?><!-- Generator: Adobe Illustrator 22.1.0, SVG Export Plug-In . SVG Version: 6.00 Build 0)  --><svg xmlns="http://www.w3.org/2000/svg" xmlns:xlink="http://www.w3.org/1999/xlink" viewBox="0 0 80 80" width="480px" height="480px"><circle cx="69" cy="53" r="1"/><circle cx="66" cy="50" r="1"/><circle cx="66" cy="56" r="1"/><circle cx="69" cy="59" r="1"/><circle cx="69" cy="65" r="1"/><circle cx="66" cy="62" r="1"/><circle cx="66" cy="68" r="1"/><circle cx="69" cy="47" r="1"/><circle cx="69" cy="41" r="1"/><circle cx="66" cy="38" r="1"/><circle cx="66" cy="44" r="1"/><circle cx="69" cy="35" r="1"/><circle cx="63" cy="53" r="1"/><circle cx="63" cy="59" r="1"/><circle cx="63" cy="65" r="1"/><circle cx="63" cy="47" r="1"/><circle cx="63" cy="41" r="1"/><circle cx="63" cy="35" r="1"/><circle cx="43" cy="53" r="1"/><circle cx="40" cy="50" r="1"/><circle cx="40" cy="56" r="1"/><circle cx="43" cy="59" r="1"/><circle cx="43" cy="65" r="1"/><circle cx="40" cy="62" r="1"/><circle cx="40" cy="68" r="1"/><circle cx="43" cy="47" r="1"/><circle cx="37" cy="53" r="1"/><circle cx="37" cy="59" r="1"/><circle cx="37" cy="65" r="1"/><circle cx="17" cy="65" r="1"/><circle cx="14" cy="62" r="1"/><circle cx="14" cy="68" r="1"/><circle cx="11" cy="65" r="1"/><circle cx="37" cy="47" r="1"/><g><line style="fill:none;stroke:#000000;stroke-width:2;stroke-miterlimit:10;" x1="75" y1="71" x2="5" y2="71"/></g><rect x="10" y="59" style="fill:none;stroke:#000000;stroke-width:2;stroke-miterlimit:10;" width="8" height="12"/><rect x="62" y="32" style="fill:none;stroke:#000000;stroke-width:2;stroke-miterlimit:10;" width="8" height="39"/><rect x="49" y="38" style="fill:none;stroke:#000000;stroke-width:2;stroke-miterlimit:10;" width="8" height="33"/><rect x="36" y="45" style="fill:none;stroke:#000000;stroke-width:2;stroke-miterlimit:10;" width="8" height="26"/><rect x="23" y="53" style="fill:none;stroke:#000000;stroke-width:2;stroke-miterlimit:10;" width="8" height="18"/><polyline style="fill:none;stroke:#000000;stroke-width:2;stroke-miterlimit:10;" points="8,52.752 24,45.752 30,37 41,34.752 45,27.752 58,25.752 63,21 "/><polygon style="fill:none;stroke:#000000;stroke-width:2;stroke-miterlimit:10;" points="66.073,25 69.437,16.414 60.518,16.689 "/><path d="M18.966,15H21v13h-2.556v-8.572h-3.168v-1.926c0.444,0.012,0.873-0.021,1.287-0.1c0.414-0.079,0.786-0.216,1.116-0.414c0.33-0.197,0.609-0.459,0.837-0.782C18.744,15.882,18.894,15.48,18.966,15z"/><path style="fill:none;stroke:#000000;stroke-width:2;stroke-miterlimit:10;" d="M32,21.5C32,28.392,26.392,34,19.5,34"/><g><g><line style="fill:none;stroke:#000000;stroke-width:2;stroke-linecap:round;stroke-miterlimit:10;" x1="19.5" y1="9" x2="19.5" y2="9"/><path style="fill:none;stroke:#000000;stroke-width:2;stroke-linecap:round;stroke-miterlimit:10;stroke-dasharray:0,3.925;" d="M23.367,9.612c4.404,1.436,7.742,5.257,8.48,9.93"/><line style="fill:none;stroke:#000000;stroke-width:2;stroke-linecap:round;stroke-miterlimit:10;" x1="32" y1="21.5" x2="32" y2="21.5"/></g></g><path style="fill:none;stroke:#000000;stroke-width:2;stroke-miterlimit:10;" d="M19.5,34C12.608,34,7,28.392,7,21.5S12.608,9,19.5,9"/></svg>