<?xml version="1.0" encoding="iso-8859-1"?><!-- Generator: Adobe Illustrator 21.0.2, SVG Export Plug-In . SVG Version: 6.00 Build 0)  --><svg xmlns="http://www.w3.org/2000/svg" xmlns:xlink="http://www.w3.org/1999/xlink" viewBox="0 0 50 50" width="500px" height="500px"><path d="M33,46.091V33h10V14.6L30.4,2H7v46h26.696C33.266,47.492,33,46.832,33,46.091z M30,4.4L40.6,15H30V4.4z M27,19c4.971,0,9,4.029,9,9h-9V19z M23,41c-4.971,0-9-4.029-9-9c0-4.971,4.029-9,9-9v9h9C32,36.971,27.971,41,23,41z"/><g id="IOS_copy_26_"><path d="M48.1,32H33.9c-1.1,0-1.9,0.9-1.9,1.9V48c0,1.1,0.8,2,1.9,2h14.2c1,0,1.9-0.9,1.9-1.9V33.9C50,32.9,49.2,32,48.1,32z M48,48H34V34h14V48z"/></g></svg>