<?xml version="1.0" encoding="iso-8859-1"?>
<!-- Generator: Adobe Illustrator 23.0.3, SVG Export Plug-In . SVG Version: 6.00 Build 0)  -->
<svg version="1.1" xmlns="http://www.w3.org/2000/svg" xmlns:xlink="http://www.w3.org/1999/xlink" x="0px" y="0px"
	 viewBox="0 0 50 50" style="enable-background:new 0 0 50 50;" xml:space="preserve">
<g id="Layer_10" style="display:none;">
	<g style="display:inline;opacity:0.05;">
		<g>
			<circle style="fill:#FFFFFF;" cx="25" cy="25" r="21.5"/>
			<path d="M25,4c11.579,0,21,9.421,21,21s-9.421,21-21,21S4,36.579,4,25S13.421,4,25,4 M25,3C12.85,3,3,12.85,3,25s9.85,22,22,22
				s22-9.85,22-22S37.15,3,25,3L25,3z"/>
		</g>
		<g>
			<rect x="5.5" y="5.5" style="fill:#FFFFFF;" width="39" height="39"/>
			<path d="M44,6v38H6V6H44 M45,5H5v40h40V5L45,5z"/>
		</g>
	</g>
</g>
<g id="filled">
</g>
<g id="outlined">
</g>
<g id="rounded">
</g>
<g id="two_x5F_tone">
</g>
<g id="sharp">
</g>
<g id="win10">
</g>
<g id="ios_x5F_out">
</g>
<g id="ios_x5F_filled">
	<path d="M21,29l17.874-5.501c0.277-0.085,0.577,0.08,0.643,0.362C39.838,25.217,40,26.606,40,28
		c0,10.913-9.925,19.69-21.167,17.723c-7.367-1.289-13.266-7.189-14.555-14.555C2.31,19.925,11.087,10,22,10
		c0.869,0,1.736,0.063,2.595,0.188c0.287,0.042,0.477,0.326,0.415,0.61L21,29z"/>
	<path d="M28.3,21.367l4.525-16.889c0.073-0.272,0.359-0.438,0.63-0.357c2.603,0.778,4.999,2.136,7.006,3.975
		c2.006,1.839,3.568,4.107,4.571,6.633c0.104,0.262-0.036,0.562-0.301,0.658L28.3,21.367z"/>
	<path style="fill:none;stroke:#000000;stroke-width:2;stroke-miterlimit:10;" d="M21,29l17.874-5.501
		c0.277-0.085,0.577,0.08,0.643,0.362C39.838,25.217,40,26.606,40,28c0,10.913-9.925,19.69-21.167,17.723
		c-7.367-1.289-13.266-7.189-14.555-14.555C2.31,19.925,11.087,10,22,10c0.869,0,1.736,0.063,2.595,0.188
		c0.287,0.042,0.477,0.326,0.415,0.61L21,29z"/>
	<path style="fill:none;stroke:#000000;stroke-width:2;stroke-miterlimit:10;" d="M28.3,21.367l4.525-16.889
		c0.073-0.272,0.359-0.438,0.63-0.357c2.603,0.778,4.999,2.136,7.006,3.975c2.006,1.839,3.568,4.107,4.571,6.633
		c0.104,0.262-0.036,0.562-0.301,0.658L28.3,21.367z"/>
</g>
<g id="color">
</g>
</svg>