<?xml version="1.0" encoding="utf-8"?><!-- Generator: Adobe Illustrator 15.0.0, SVG Export Plug-In . SVG Version: 6.00 Build 0)  --><!DOCTYPE svg PUBLIC "-//W3C//DTD SVG 1.1//EN" "http://www.w3.org/Graphics/SVG/1.1/DTD/svg11.dtd"><svg xmlns="http://www.w3.org/2000/svg" xmlns:xlink="http://www.w3.org/1999/xlink" viewBox="0 0 50 50" width="50px" height="50px"><path d="M47.998,20.377L48,5.5C48,3.57,46.43,2,44.5,2L29.624,2.002L28.995,2c-1.294,0-2.529,0.074-3.419,0.963L2.848,25.689C2.301,26.234,2,26.962,2,27.734c0,0.771,0.301,1.498,0.847,2.045l17.374,17.373c0.546,0.546,1.272,0.847,2.044,0.847s1.499-0.301,2.044-0.847l22.727-22.729c0.976-0.972,0.969-2.372,0.963-3.725L47.998,20.377z M31.137,27.6l-1.398-1.397c0.943-0.986,1.479-1.938,1.604-2.854c0.128-0.914-0.204-1.767-0.993-2.556c-0.33-0.329-0.691-0.581-1.086-0.757c-0.396-0.176-0.795-0.273-1.199-0.297c-0.406-0.021-0.801,0.039-1.185,0.182c-0.385,0.143-0.729,0.367-1.037,0.674c-0.263,0.264-0.479,0.534-0.648,0.814c-0.171,0.279-0.312,0.56-0.428,0.839c-0.116,0.279-0.217,0.562-0.305,0.846c-0.088,0.286-0.181,0.576-0.279,0.872l2.614,2.614l-0.738,0.739l-2.253-2.252c-0.087,0.264-0.202,0.532-0.345,0.805c-0.144,0.273-0.33,0.527-0.56,0.757c-0.373,0.373-0.76,0.649-1.159,0.831c-0.4,0.182-0.811,0.307-1.233,0.378c-0.422,0.071-0.853,0.097-1.29,0.073c-0.439-0.021-0.877-0.055-1.316-0.098v0.064c0.405,0.164,0.792,0.331,1.159,0.501s0.715,0.42,1.044,0.749c0.317,0.316,0.575,0.63,0.772,0.938c0.197,0.308,0.378,0.598,0.543,0.871c0.153,0.285,0.309,0.571,0.469,0.862c0.158,0.291,0.363,0.562,0.616,0.813c0.263,0.265,0.587,0.462,0.97,0.593c0.384,0.132,0.75,0.219,1.102,0.264L24.2,35.259c-0.615-0.044-1.185-0.225-1.711-0.542c-0.526-0.318-1.004-0.689-1.431-1.117c-0.274-0.274-0.509-0.576-0.706-0.904c-0.197-0.328-0.4-0.674-0.609-1.036c-0.186-0.362-0.383-0.718-0.592-1.068c-0.208-0.351-0.472-0.687-0.789-1.003c-0.318-0.318-0.661-0.557-1.028-0.715c-0.367-0.16-0.759-0.283-1.175-0.37l0.296-1.842c0.383,0.077,0.79,0.12,1.216,0.132c0.428,0.012,0.852-0.025,1.275-0.107c0.422-0.082,0.824-0.215,1.208-0.401c0.384-0.187,0.734-0.438,1.053-0.757c0.252-0.252,0.472-0.559,0.657-0.921c0.186-0.361,0.34-0.701,0.461-1.02l-1.398-1.396l0.74-0.74l0.952,0.954c0.153-0.592,0.359-1.164,0.617-1.718c0.258-0.554,0.65-1.093,1.176-1.619c0.526-0.526,1.096-0.894,1.709-1.103c0.615-0.207,1.236-0.281,1.867-0.221c0.63,0.06,1.246,0.237,1.85,0.533c0.604,0.297,1.156,0.696,1.66,1.201c1.217,1.217,1.818,2.525,1.809,3.93C33.296,24.809,32.573,26.207,31.137,27.6z M39,14c-1.656,0-3-1.343-3-3s1.344-3,3-3s3,1.343,3,3S40.656,14,39,14z"/></svg>