<?xml version="1.0" encoding="iso-8859-1"?><!-- Generator: Adobe Illustrator 21.1.0, SVG Export Plug-In . SVG Version: 6.00 Build 0)  --><svg xmlns="http://www.w3.org/2000/svg" xmlns:xlink="http://www.w3.org/1999/xlink" viewBox="0 0 50 50" width="50px" height="50px"><circle cx="38" cy="16" r="1"/><circle cx="38" cy="22" r="1"/><circle cx="38" cy="28" r="1"/><circle cx="35" cy="19" r="1"/><circle cx="41" cy="19" r="1"/><circle cx="35" cy="13" r="1"/><circle cx="32" cy="16" r="1"/><circle cx="32" cy="10" r="1"/><circle cx="26" cy="4" r="1"/><circle cx="29" cy="13" r="1"/><circle cx="32" cy="22" r="1"/><circle cx="35" cy="25" r="1"/><circle cx="41" cy="25" r="1"/><circle cx="44" cy="22" r="1"/><circle cx="43" cy="16" r="1"/><circle cx="41" cy="13" r="1"/><circle cx="38" cy="10" r="1"/><circle cx="35" cy="7" r="1"/><circle cx="29" cy="7" r="1"/><path d="M26,16.586l-6-6l-6,6V38h0.881l-0.006,1H25l-0.028-1H26V16.586z M22,33h-4v-2h4V33z M22,29h-4v-2h4V29z M22,25h-4v-2h4V25z M22,21h-4v-2h4V21z"/><line style="fill:none;stroke:#000000;stroke-width:2;stroke-linecap:round;stroke-miterlimit:10;" x1="20" y1="9" x2="20" y2="12"/><path style="fill:none;stroke:#000000;stroke-width:2;stroke-miterlimit:10;" d="M38.2,38c4.2-3.7,6.8-9,6.8-15c0-11-9-20-20-20S5,12,5,23c0,5.61,2.273,10.609,6.002,14.259"/><path d="M43,47H7c-0.552,0-1-0.447-1-1v-2c0-0.553,0.448-1,1-1h36c0.553,0,1,0.447,1,1v2C44,46.553,43.553,47,43,47z"/><path d="M35.457,33.021C34.773,31.789,33.46,31,32,31c-0.328,0-0.647,0.033-0.95,0.097c-0.726-1.01-1.833-1.723-3.05-1.982V37H12.005H12v-3.458c-1.198,0.683-2,1.952-2,3.458v4h30v-1.963V38C40,35.397,38.001,33.252,35.457,33.021z"/></svg>