<?xml version="1.0" encoding="iso-8859-1"?>
<!-- Generator: Adobe Illustrator 23.0.6, SVG Export Plug-In . SVG Version: 6.00 Build 0)  -->
<svg version="1.1" id="&#x421;&#x43B;&#x43E;&#x439;_1"
	 xmlns="http://www.w3.org/2000/svg" xmlns:xlink="http://www.w3.org/1999/xlink" x="0px" y="0px" viewBox="0 0 50 50"
	 style="enable-background:new 0 0 50 50;" xml:space="preserve">
<path d="M24.92,24c-3.3,0-6,2.9-6,6.4c0,2.4,3.2,8,6,12.1c2.8-4.1,6-9.7,6-12.1C30.92,26.9,28.22,24,24.92,24z M25,33
	c-1.66,0-3-1.34-3-3c0-1.66,1.34-3,3-3s3,1.34,3,3C28,31.66,26.66,33,25,33z M24.92,24c-3.3,0-6,2.9-6,6.4c0,2.4,3.2,8,6,12.1
	c2.8-4.1,6-9.7,6-12.1C30.92,26.9,28.22,24,24.92,24z M25,33c-1.66,0-3-1.34-3-3c0-1.66,1.34-3,3-3s3,1.34,3,3
	C28,31.66,26.66,33,25,33z M42.79,12h-5.86v6c0,1.66-1.33,3-2.98,3c-0.22,0-0.44-0.03-0.65-0.07v-0.01
	c-1.34-0.3-2.33-1.49-2.33-2.92c0-1.31,0.83-2.4,1.99-2.82V18c0,0.55,0.44,1,0.99,1s1-0.45,1-1v-8c0-5.51-4.47-10-9.95-10
	s-9.95,4.49-9.95,10v2H7.21L3,49h44L42.79,12z M15.4,20.93c0,0,0,0,0-0.01c-1.33-0.29-2.33-1.49-2.33-2.92
	c0-1.31,0.83-2.4,1.98-2.82V18c0,0.55,0.45,1,1,1s0.99-0.45,0.99-1v-8c0-4.41,3.57-8,7.96-8s7.96,3.59,7.96,8v2H19.03v6
	c0,1.66-1.33,3-2.98,3C15.83,21,15.61,20.97,15.4,20.93z M24.92,46c0,0-8-11-8-15.6c0-4.6,3.6-8.4,8-8.4c4.4,0,8,3.8,8,8.4
	C32.92,35,24.92,46,24.92,46z M24.92,24c-3.3,0-6,2.9-6,6.4c0,2.4,3.2,8,6,12.1c2.8-4.1,6-9.7,6-12.1C30.92,26.9,28.22,24,24.92,24z
	 M25,33c-1.66,0-3-1.34-3-3c0-1.66,1.34-3,3-3s3,1.34,3,3C28,31.66,26.66,33,25,33z M24.92,24c-3.3,0-6,2.9-6,6.4
	c0,2.4,3.2,8,6,12.1c2.8-4.1,6-9.7,6-12.1C30.92,26.9,28.22,24,24.92,24z M25,33c-1.66,0-3-1.34-3-3c0-1.66,1.34-3,3-3s3,1.34,3,3
	C28,31.66,26.66,33,25,33z M24.92,24c-3.3,0-6,2.9-6,6.4c0,2.4,3.2,8,6,12.1c2.8-4.1,6-9.7,6-12.1C30.92,26.9,28.22,24,24.92,24z
	 M25,33c-1.66,0-3-1.34-3-3c0-1.66,1.34-3,3-3s3,1.34,3,3C28,31.66,26.66,33,25,33z"/>
</svg>