<?xml version="1.0" encoding="iso-8859-1"?>
<!-- Generator: Adobe Illustrator 23.0.3, SVG Export Plug-In . SVG Version: 6.00 Build 0)  -->
<svg version="1.1" id="Layer_1" xmlns="http://www.w3.org/2000/svg" xmlns:xlink="http://www.w3.org/1999/xlink" x="0px" y="0px"
	 viewBox="0 0 50 50" style="enable-background:new 0 0 50 50;" xml:space="preserve">
<line style="fill:none;stroke:#000000;stroke-width:4;stroke-linecap:round;stroke-linejoin:round;stroke-miterlimit:10;" x1="38" y1="12" x2="44" y2="6"/>
<line style="fill:none;stroke:#000000;stroke-width:4;stroke-linecap:round;stroke-linejoin:round;stroke-miterlimit:10;" x1="12" y1="12" x2="6" y2="6"/>
<line style="fill:none;stroke:#000000;stroke-width:4;stroke-linecap:round;stroke-linejoin:round;stroke-miterlimit:10;" x1="12" y1="38" x2="6" y2="44"/>
<path d="M50,41v-4.2l-3.2-0.5c-0.1-0.3-0.3-0.7-0.4-1l1.8-2.7l-2.9-2.9l-2.6,1.9c-0.3-0.2-0.7-0.3-1-0.4L41.1,28h-4.2l-0.5,3.2
	c-0.3,0.1-0.7,0.3-1,0.4l-2.7-1.9l-3,3l1.8,2.5c-0.2,0.3-0.3,0.7-0.4,1.1L28,36.8V41l3.1,0.5c0.1,0.3,0.3,0.7,0.4,1l-1.8,2.7l3,3
	l2.7-1.8c0.4,0.2,0.7,0.3,1.1,0.4l0.4,3.2h4.2l0.5-3.2c0.3-0.1,0.7-0.3,1-0.4l2.7,1.8l3-3l-1.9-2.6c0.2-0.3,0.3-0.7,0.4-1L50,41z
	 M39,42c-1.7,0-3-1.3-3-3s1.3-3,3-3s3,1.3,3,3S40.7,42,39,42z"/>
<path d="M26.048,39.956c-0.348,0.024-0.694,0.053-1.048,0.053c-8.271,0-15-6.729-15-15s6.729-15,15-15s15,6.729,15,15
	c0,0.351-0.029,0.694-0.053,1.039c1.389,0.1,2.718,0.412,3.952,0.915c0.066-0.643,0.1-1.294,0.1-1.954c0-10.477-8.523-19-19-19
	s-19,8.523-19,19s8.523,19,19,19c0.664,0,1.319-0.035,1.965-0.102C26.462,42.673,26.15,41.344,26.048,39.956z"/>
</svg>