<?xml version="1.0" encoding="utf-8"?><!-- Generator: Adobe Illustrator 15.0.0, SVG Export Plug-In . SVG Version: 6.00 Build 0)  --><!DOCTYPE svg PUBLIC "-//W3C//DTD SVG 1.1//EN" "http://www.w3.org/Graphics/SVG/1.1/DTD/svg11.dtd"><svg xmlns="http://www.w3.org/2000/svg" xmlns:xlink="http://www.w3.org/1999/xlink" viewBox="0 0 50 50" width="50px" height="50px"><path d="M18.911,4.081c-2.585-1.041-5.669-0.68-5.724-0.674l-0.745,0.084l-0.128,0.738C12.29,4.37,11.888,6.78,12.216,9.565C13.699,7.163,16.057,5.235,18.911,4.081z"/><path d="M37.784,9.564c0.327-2.785-0.074-5.195-0.099-5.336l-0.129-0.738l-0.744-0.084c-0.055-0.007-3.139-0.367-5.724,0.674C33.943,5.234,36.301,7.163,37.784,9.564z"/><ellipse transform="matrix(0.2799 0.96 -0.96 0.2799 48.4883 15.3674)" cx="14" cy="40.007" rx="7.099" ry="5.9"/><ellipse transform="matrix(0.2799 -0.96 0.96 0.2799 -12.4788 63.3635)" cx="35.998" cy="40" rx="7.1" ry="5.9"/><path d="M25,4.9c-6.893,0-12.5,4.755-12.5,10.6S18.107,26.101,25,26.101S37.5,21.345,37.5,15.5S31.893,4.9,25,4.9z M21,17.5c-1.381,0-2.5-1.119-2.5-2.5s1.119-2.5,2.5-2.5s2.5,1.119,2.5,2.5S22.381,17.5,21,17.5z M31.207,15.793c0.391,0.391,0.391,1.023,0,1.414C31.012,17.402,30.756,17.5,30.5,17.5s-0.512-0.098-0.707-0.293L29,16.414l-0.793,0.793C28.012,17.402,27.756,17.5,27.5,17.5s-0.512-0.098-0.707-0.293c-0.391-0.391-0.391-1.023,0-1.414L27.586,15l-0.793-0.793c-0.391-0.391-0.391-1.023,0-1.414s1.023-0.391,1.414,0L29,13.586l0.793-0.793c0.391-0.391,1.023-0.391,1.414,0s0.391,1.023,0,1.414L30.414,15L31.207,15.793z"/><path d="M43.831,24.097l-5.95-2.836c-2.412,4.056-7.275,6.84-12.881,6.84c-5.625,0-10.501-2.804-12.904-6.882l-5.818,2.875c-0.973,0.455-1.695,1.262-2.033,2.274c-0.343,1.027-0.246,2.129,0.25,3.055c0.643,1.377,1.985,2.232,3.504,2.232c0.623,0,1.249-0.152,1.814-0.442l3.289-1.259v1.06c0.103-0.004,0.204-0.021,0.307-0.021c3.646,0,7.009,2.798,8.177,6.804c0.411,1.411,0.5,2.827,0.327,4.159C22.891,41.995,23.888,42,25,42c1.111,0,2.109-0.005,3.088-0.045c-0.175-1.334-0.086-2.753,0.326-4.166c1.168-4.006,4.53-6.804,8.178-6.805c0.137,0,0.271,0.021,0.408,0.029v-0.962l3.254,1.243C40.763,31.549,41.415,31.7,42,31.7c1.562,0,2.979-0.897,3.606-2.277C46.532,27.439,45.743,25.054,43.831,24.097z"/></svg>