<?xml version="1.0" encoding="utf-8"?><!-- Generator: Adobe Illustrator 15.0.0, SVG Export Plug-In . SVG Version: 6.00 Build 0)  --><!DOCTYPE svg PUBLIC "-//W3C//DTD SVG 1.1//EN" "http://www.w3.org/Graphics/SVG/1.1/DTD/svg11.dtd"><svg xmlns="http://www.w3.org/2000/svg" xmlns:xlink="http://www.w3.org/1999/xlink" viewBox="0 0 50 50" width="50px" height="50px"><path d="M19,37c8.905,0,12.408-2.001,15.031-4.078c1.326-1.05,3.658-2.748,4.09-3.021c1.071-0.665,2.184-1.047,3.051-1.047c0.333,0,0.784,0.06,1.044,0.343c0.304,0.332,0.615,0.719,0.912,1.43l0.312,0.778c0.206-0.081,3.299-1.749,3.537-6.794c-0.241-4.871-4.969-9.652-11.092-11.229C34.693,6.79,29.009,2.995,25.354,2.033L24,2v1c0,1.717-0.881,2.38-2.438,3.404c-1.424,0.936-3.16,2.077-3.502,4.652c-2.233,0.264-4.275,1.449-5.583,3.067c-0.415,2.885,0.149,5.23,1.702,6.969c4.296,4.811,14.624,3.921,14.729,3.913c0.554-0.054,1.037,0.354,1.088,0.904c0.05,0.55-0.354,1.037-0.904,1.088c-0.123,0.011-0.983,0.085-2.272,0.085c-3.583,0-10.484-0.572-14.132-4.657c-1.306-1.462-2.061-3.229-2.279-5.271c-3.725,0.695-7.14,3.794-7.384,8.602C3.271,32.802,9.194,37,19,37z"/><g><path d="M41.583,32.148l-0.301-0.751c-0.097-0.231-0.188-0.396-0.281-0.531c-0.401,0.048-1.058,0.258-1.813,0.727c-0.259,0.163-1.667,1.18-2.909,2.121l-1.189,8.623c-0.068,0.501-0.497,0.863-0.989,0.863c-0.045,0-0.091-0.003-0.138-0.01c-0.547-0.075-0.93-0.58-0.854-1.127l0.918-6.655c-0.896,0.613-1.865,1.164-2.962,1.64l-0.368,5.223c-0.037,0.527-0.476,0.93-0.996,0.93c-0.023,0-0.047-0.001-0.071-0.003c-0.551-0.038-0.966-0.517-0.927-1.067l0.305-4.33c-0.836,0.253-1.747,0.468-2.744,0.646l0.136,3.719c0.02,0.552-0.411,1.016-0.963,1.035C25.424,43.2,25.412,43.2,25.399,43.2c-0.536,0-0.979-0.424-0.999-0.964l-0.127-3.507c-0.799,0.089-1.649,0.158-2.558,0.203l0.378,3.148c0.066,0.548-0.325,1.046-0.874,1.112c-0.041,0.005-0.081,0.007-0.121,0.007c-0.499,0-0.931-0.373-0.991-0.881l-0.399-3.329C19.471,38.993,19.244,39,19,39c-0.658,0-1.298-0.021-1.925-0.058l0.7,3.033c0.124,0.538-0.211,1.075-0.75,1.199c-0.075,0.018-0.151,0.025-0.226,0.025c-0.455,0-0.867-0.313-0.974-0.775l-0.848-3.677c-2.535-0.33-4.774-0.984-6.679-1.924l1.925,8.79l0.028,0.103C10.7,47.062,11.912,48,13.2,48h23.6c1.44,0,2.664-0.979,2.977-2.385l2.738-12.459C42.109,32.942,41.767,32.606,41.583,32.148z"/></g></svg>