<?xml version="1.0" encoding="iso-8859-1"?><!-- Generator: Adobe Illustrator 21.0.0, SVG Export Plug-In . SVG Version: 6.00 Build 0)  --><svg xmlns="http://www.w3.org/2000/svg" xmlns:xlink="http://www.w3.org/1999/xlink" viewBox="0 0 50 50" width="50px" height="50px"><g><path style="fill-rule:evenodd;clip-rule:evenodd;" d="M18,24v2.556c1.19,0.694,2,1.97,2,3.444s-0.81,2.75-2,3.444V36h22V24H18z"/><path style="fill-rule:evenodd;clip-rule:evenodd;" d="M14,33.444c-1.19-0.694-2-1.97-2-3.444s0.81-2.75,2-3.444V24H6c-1.603,0-3.11,0.624-4.243,1.758C0.624,26.891,0,28.397,0,30s0.624,3.109,1.757,4.242C2.89,35.376,4.397,36,6,36h8V33.444z"/><rect x="42" y="24" style="fill-rule:evenodd;clip-rule:evenodd;" width="3" height="12"/><rect x="47" y="24" style="fill-rule:evenodd;clip-rule:evenodd;" width="3" height="12"/></g><path style="fill:none;stroke:#000000;stroke-width:2;stroke-linecap:round;stroke-linejoin:round;stroke-miterlimit:3;" d="M34.027,6c2.225,0,6.528,0.405,7,6c2.111,0,8.359,0.825,5,9"/><path style="fill:none;stroke:#000000;stroke-width:2;stroke-linecap:round;stroke-linejoin:round;stroke-miterlimit:3;" d="M28.027,5c-1,1-6.058,9.59,5,11c5.146,0.656,7.281,1.738,8,5"/></svg>