<?xml version="1.0" encoding="iso-8859-1"?><!-- Generator: Adobe Illustrator 19.1.1, SVG Export Plug-In . SVG Version: 6.00 Build 0)  --><svg xmlns="http://www.w3.org/2000/svg" xmlns:xlink="http://www.w3.org/1999/xlink" viewBox="0 0 50 50" width="50px" height="50px"><g><circle fill="none" stroke="#000000" stroke-width="2" stroke-miterlimit="10" cx="13" cy="39" r="5"/></g><path d="M48.401,23.103l-4.12-5.527C43.512,16.614,41.933,15,40,15h-7v25h1.09c0.478,2.833,2.942,5,5.91,5s5.431-2.167,5.91-5H47c1.542,0,3-1.458,3-3v-9.6C50,25.441,48.581,23.358,48.401,23.103z M40,43c-2.206,0-4-1.794-4-4s1.794-4,4-4s4,1.794,4,4S42.206,43,40,43z M39,27c-0.448,0-1-0.552-1-1v-9h2c0.789,0,1.806,0.682,2.698,1.798l4.081,5.475c0.301,0.432,1.026,1.667,1.188,2.728H39V27z"/><g><polygon points="14,21.5 10.4,24.2 11.6,25.8 16,22.5 16,16 14,16 "/><path d="M28.1,8c0,0-23.255,0-25.302,0C0.828,8.156,0,9.766,0,10.891C0,11.953,0,37,0,37c0,1.654,1.346,3,3,3h5.101C8.035,39.677,8,39.343,8,39c0-2.761,2.239-5,5-5s5,2.239,5,5c0,0.343-0.035,0.677-0.101,1H31V10.9C31,9.355,29.645,8,28.1,8z M15,31c-4.95,0-9-4.05-9-9s4.05-9,9-9s9,4.05,9,9S19.95,31,15,31z"/></g></svg>