<?xml version="1.0" encoding="utf-8"?><!-- Generator: Adobe Illustrator 21.1.0, SVG Export Plug-In . SVG Version: 6.00 Build 0)  --><svg xmlns="http://www.w3.org/2000/svg" xmlns:xlink="http://www.w3.org/1999/xlink" viewBox="0 0 50 50" width="50px" height="50px"><g><path d="M47.8,26l-2.4-3.7l1.4-4.2c0.4-1.1-0.1-2.2-1.1-2.8L41.9,13l-0.7-4.4c-0.2-1.1-1.1-1.9-2.2-2l-4.4-0.2L31.9,3C31.2,2.1,30,1.8,29,2.3l-4,1.9l-4-1.9c-1-0.5-2.2-0.2-2.9,0.7l-2.6,3.5L11,6.7c-1.1,0-2.1,0.9-2.2,2L8.1,13l-3.8,2.2c-1,0.6-1.4,1.7-1.1,2.8l1.4,4.2L2.3,26c-0.6,0.9-0.4,2.2,0.4,3L5.8,32l-0.4,4.4c-0.1,1.1,0.6,2.2,1.7,2.5l4.2,1.2l1.7,4.1c0.4,1,1.6,1.6,2.7,1.4l4.3-0.9l3.4,2.8c0.4,0.3,1,0.5,1.5,0.5c0.5,0,1.1-0.2,1.5-0.5l3.4-2.8l4.3,0.9c1.1,0.2,2.2-0.4,2.7-1.4l1.7-4.1l4.2-1.2c1.1-0.3,1.8-1.3,1.7-2.5L44.2,32l3.2-3.1C48.2,28.1,48.4,26.9,47.8,26z M16.2,22.6c-0.2-0.6-0.2-0.9-0.2-3.1c0-2.2,0.1-2.6,0.2-3.1c0.5-1.4,1.7-2.4,3.3-2.4c1.6,0,2.8,0.9,3.3,2.4c0.2,0.6,0.2,0.9,0.2,3.1c0,2.2-0.1,2.6-0.2,3.1c-0.5,1.4-1.7,2.4-3.3,2.4S16.7,24.1,16.2,22.6z M20.1,35.7C20,35.9,19.9,36,19.7,36h-1.4c-0.2,0-0.3-0.2-0.2-0.3l11.9-21.4c0.1-0.2,0.2-0.3,0.5-0.3h1.4c0.2,0,0.2,0.2,0.2,0.3L20.1,35.7z M33.8,33.6c-0.5,1.4-1.7,2.4-3.3,2.4s-2.8-0.9-3.3-2.4c-0.2-0.6-0.2-0.9-0.2-3.1c0-2.2,0.1-2.6,0.2-3.1c0.5-1.4,1.7-2.4,3.3-2.4c1.6,0,2.8,0.9,3.3,2.4c0.2,0.6,0.2,0.9,0.2,3.1C34,32.7,33.9,33.1,33.8,33.6z"/><path d="M30.5,27c-0.7,0-1.2,0.4-1.4,1c-0.1,0.3-0.1,0.6-0.1,2.5c0,1.9,0.1,2.1,0.1,2.4c0.2,0.7,0.7,1,1.4,1s1.2-0.4,1.4-1c0.1-0.3,0.1-0.6,0.1-2.4c0-1.9-0.1-2.2-0.1-2.5C31.7,27.4,31.2,27,30.5,27z"/><path d="M20.9,22c0.1-0.3,0.1-0.6,0.1-2.4c0-1.9-0.1-2.2-0.1-2.5c-0.2-0.7-0.7-1-1.4-1s-1.2,0.4-1.4,1c-0.1,0.3-0.1,0.6-0.1,2.5c0,1.9,0.1,2.1,0.1,2.4c0.2,0.7,0.7,1,1.4,1S20.7,22.6,20.9,22z"/></g></svg>