<?xml version="1.0" encoding="iso-8859-1"?><!-- Generator: Adobe Illustrator 19.2.1, SVG Export Plug-In . SVG Version: 6.00 Build 0)  --><svg xmlns="http://www.w3.org/2000/svg" xmlns:xlink="http://www.w3.org/1999/xlink" viewBox="0 0 50 50" width="50px" height="50px"><g><polygon points="30.286,24 30.586,22.185 29.277,20.893 28.453,19.248 26.634,18.973 25,18.126 23.366,18.973 21.547,19.248 20.723,20.893 19.414,22.185 19.714,24 19.414,25.815 20.723,27.107 21.547,28.752 23.366,29.027 25,29.874 26.634,29.027 28.453,28.752 29.277,27.107 30.586,25.815 "/><path d="M47,10H3c-0.552,0-1,0.447-1,1v28c0,0.553,0.448,1,1,1h44c0.552,0,1-0.447,1-1V11C48,10.447,47.552,10,47,10z M31.771,34.11L30.577,36l-2.58-5.157l-0.737,0.112L25,32.126l-2.26-1.171l-0.737-0.112L19.423,36l-1.194-1.89L16,33.931l3.497-4.806l-0.414-0.826l-1.812-1.788L17.687,24l-0.415-2.511l1.812-1.788l1.141-2.275l2.516-0.381L25,15.874l2.26,1.171l2.516,0.381l1.141,2.275l1.812,1.788L32.313,24l0.415,2.511l-1.812,1.788l-0.414,0.826L34,33.931L31.771,34.11z"/></g></svg>