<?xml version="1.0" encoding="utf-8"?><!-- Generator: Adobe Illustrator 15.0.0, SVG Export Plug-In . SVG Version: 6.00 Build 0)  --><!DOCTYPE svg PUBLIC "-//W3C//DTD SVG 1.1//EN" "http://www.w3.org/Graphics/SVG/1.1/DTD/svg11.dtd"><svg xmlns="http://www.w3.org/2000/svg" xmlns:xlink="http://www.w3.org/1999/xlink" viewBox="0 0 50 50" width="50px" height="50px"><g><path d="M39.641,4.232C39.461,4.082,39.234,4,39,4H26v5h19.362L39.641,4.232z"/><path d="M11,4c-0.234,0-0.46,0.082-0.64,0.232L4.638,9H24V4H11z"/><path d="M25,11H4v34c0,0.553,0.448,1,1,1h40c0.553,0,1-0.447,1-1V11H25z M34,34h-2v4h-2v-4h-2l3-3L34,34z M20,17.5c0-0.8,0.7-1.5,1.5-1.5h7c0.8,0,1.5,0.7,1.5,1.5S29.3,19,28.5,19h-7C20.7,19,20,18.3,20,17.5z M41,41H28v-2h13V41z M39,34v4h-2v-4h-2l3-3l3,3H39z"/></g></svg>