<?xml version="1.0" encoding="utf-8"?><!-- Generator: Adobe Illustrator 15.0.0, SVG Export Plug-In . SVG Version: 6.00 Build 0)  --><!DOCTYPE svg PUBLIC "-//W3C//DTD SVG 1.1//EN" "http://www.w3.org/Graphics/SVG/1.1/DTD/svg11.dtd"><svg xmlns="http://www.w3.org/2000/svg" xmlns:xlink="http://www.w3.org/1999/xlink" viewBox="0 0 50 50" width="50px" height="50px"><circle fill="none" stroke="#000000" stroke-width="2" stroke-linecap="round" stroke-miterlimit="10" cx="38" cy="38" r="9"/><line fill="none" stroke="#000000" stroke-width="2" stroke-miterlimit="10" x1="43" y1="38" x2="33" y2="38"/><line fill="none" stroke="#000000" stroke-width="2" stroke-miterlimit="10" x1="38" y1="43" x2="38" y2="33"/><path d="M47.998,20.377L48,5.501C48,3.57,46.43,2,44.5,2L29.624,2.002L28.995,2c-1.294,0-2.529,0.074-3.419,0.963L2.848,25.691C2.301,26.237,2,26.963,2,27.735s0.301,1.499,0.847,2.045L20.22,47.153c0.545,0.547,1.271,0.848,2.044,0.848c0.772,0,1.498-0.301,2.044-0.847l5.481-5.481C29.286,40.551,29,39.31,29,38c0-4.971,4.029-9,9-9c1.31,0,2.55,0.286,3.673,0.789l5.363-5.364c0.975-0.972,0.969-2.372,0.963-3.725L47.998,20.377z M39,14.001c-1.656,0-3-1.343-3-3s1.344-3,3-3s3,1.343,3,3S40.656,14.001,39,14.001z"/></svg>