<?xml version="1.0" encoding="utf-8"?><!-- Generator: Adobe Illustrator 15.0.0, SVG Export Plug-In . SVG Version: 6.00 Build 0)  --><!DOCTYPE svg PUBLIC "-//W3C//DTD SVG 1.1//EN" "http://www.w3.org/Graphics/SVG/1.1/DTD/svg11.dtd"><svg xmlns="http://www.w3.org/2000/svg" xmlns:xlink="http://www.w3.org/1999/xlink" viewBox="0 0 50 50" width="50px" height="50px"><path d="M25.712,1.702c-0.722,0.723-0.593,1.056,0.015,2.219C26.228,4.88,26.912,6.232,26.471,8H45.5l-5.7-7.6C39.611,0.148,39.314,0,39,0H27.391L25.712,1.702z"/><path d="M23.954,4.847c-0.61-1.168-1.446-2.769,0.339-4.554L24.582,0H11c-0.315,0-0.611,0.148-0.8,0.4L4.5,8h19.886C24.931,6.739,24.498,5.889,23.954,4.847z"/><path d="M22.691,45.951c-0.525-0.17-0.813-0.734-0.643-1.26s0.733-0.813,1.26-0.643L41.659,50H45c0.553,0,1-0.447,1-1V37c0-0.111-0.019-0.223-0.055-0.327l-2.501-7.214l-1.476,5.788C41.854,35.699,41.447,36,41.001,36c-0.082,0-0.165-0.01-0.248-0.031c-0.535-0.136-0.858-0.681-0.722-1.216L46,11.347V10H4v7c0,0.082,0.01,0.163,0.03,0.243L5.969,25L4.03,32.758C4.01,32.837,4,32.918,4,33v16c0,0.553,0.448,1,1,1h8c0.042,0,0.083-0.003,0.124-0.008l15.814-1.977l0.518,0.129L22.691,45.951z M20,16.5c0-0.8,0.7-1.5,1.5-1.5c0,0,2-0.3,3.5-0.3s3.5,0.3,3.5,0.3c0.8,0,1.5,0.7,1.5,1.5S29.3,18,28.5,18h-7C20.7,18,20,17.3,20,16.5z"/></svg>