<?xml version="1.0" encoding="iso-8859-1"?>
<!-- Generator: Adobe Illustrator 24.1.2, SVG Export Plug-In . SVG Version: 6.00 Build 0)  -->
<svg version="1.1" id="Layer_1" xmlns="http://www.w3.org/2000/svg" xmlns:xlink="http://www.w3.org/1999/xlink" x="0px" y="0px"
	 viewBox="0 0 50 50" style="enable-background:new 0 0 50 50;" xml:space="preserve">
<path d="M44.5,2H29.31c-1.35,0-2.76-0.01-3.73,0.96L2.85,25.69C2.3,26.24,2,26.96,2,27.73c0,0.78,0.3,1.5,0.85,2.05l17.37,17.37
	c0.57,0.57,1.3,0.85,2.04,0.85s1.49-0.28,2.05-0.85l22.73-22.73C48.01,23.45,48,22.05,48,20.7V5.5C48,3.57,46.43,2,44.5,2z
	 M17.4,22.33c1.39-1.4,3.19-1.45,4.52-0.12c1.33,1.33,1.28,3.12-0.12,4.52c-1.4,1.4-3.19,1.45-4.52,0.12
	C15.96,25.52,16,23.73,17.4,22.33z M22.78,37.26c-1.41,1.4-3.2,1.45-4.52,0.13c-1.32-1.32-1.27-3.12,0.13-4.52
	c1.4-1.4,3.18-1.44,4.51-0.12C24.22,34.08,24.18,35.86,22.78,37.26z M26.82,30.16l-14,1h-0.07c-0.52,0-0.96-0.4-1-0.92
	c-0.04-0.56,0.38-1.03,0.93-1.07l14-1c0.56-0.05,1.03,0.37,1.07,0.92C27.79,29.64,27.37,30.12,26.82,30.16z M26.79,22.24l4.33-4.34
	l-0.07-0.07l-5.6,2.31l-0.91-0.9l2.31-5.61l-0.07-0.07l-4.33,4.33l-1.26-1.26l6.48-6.47l1.6,1.6L26.7,17.9l0.08,0.08l6.15-2.56
	l1.6,1.6l-6.48,6.47L26.79,22.24z M36.51,27c-1.62,1.62-3.5,1.67-5.02,0.14c-1.52-1.52-1.48-3.4,0.14-5.02
	c1.61-1.6,3.51-1.65,5.02-0.14C38.16,23.49,38.12,25.39,36.51,27z M39,14c-1.66,0-3-1.34-3-3c0-1.66,1.34-3,3-3s3,1.34,3,3
	C42,12.66,40.66,14,39,14z"/>
<path d="M35.17,25.65c-0.96,0.96-1.92,1.12-2.62,0.42c-0.7-0.7-0.54-1.64,0.43-2.61c0.95-0.95,1.91-1.11,2.6-0.41
	C36.28,23.74,36.12,24.7,35.17,25.65z"/>
<path d="M20.21,25.13c-0.61,0.61-1.21,0.74-1.58,0.37c-0.38-0.38-0.25-0.98,0.36-1.59c0.62-0.61,1.21-0.74,1.59-0.36
	S20.83,24.5,20.21,25.13z"/>
<ellipse transform="matrix(0.7071 -0.7071 0.7071 0.7071 -18.7655 24.8261)" cx="20.585" cy="35.065" rx="1.379" ry="0.856"/>
</svg>