<?xml version="1.0" encoding="iso-8859-1"?><!-- Generator: Adobe Illustrator 19.1.1, SVG Export Plug-In . SVG Version: 6.00 Build 0)  --><svg xmlns="http://www.w3.org/2000/svg" xmlns:xlink="http://www.w3.org/1999/xlink" viewBox="0 0 50 50" width="50px" height="50px"><path d="M41.1,18.496c-0.195-0.334-0.554-0.501-0.916-0.483C39.383,17.793,32.653,16,26,16h-2c-6.648,0-13.374,1.791-14.182,2.013c-0.361-0.019-0.72,0.148-0.916,0.481C4.056,26.758,4,34.667,4,35c0,6.065,4.935,11,11,11h20c6.065,0,11-4.935,11-11.008C45.998,34.657,45.88,26.694,41.1,18.496z"/><circle style="fill:none;stroke:#000000;stroke-width:2;stroke-miterlimit:10;" cx="22" cy="7" r="2"/><circle style="fill:none;stroke:#000000;stroke-width:2;stroke-miterlimit:10;" cx="28" cy="7" r="2"/><path style="fill:none;stroke:#000000;stroke-width:2;stroke-linecap:round;stroke-linejoin:round;stroke-miterlimit:10;" d="M20,7c0,0,0.034,6,6,6c6.878,0,14,2,14,2l3,1"/><path style="fill:none;stroke:#000000;stroke-width:2;stroke-linecap:round;stroke-linejoin:round;stroke-miterlimit:10;" d="M30,7c0,0-0.034,6-6,6c-6.878,0-14,2-14,2l-3,1"/></svg>