<?xml version="1.0" encoding="utf-8"?><!-- Generator: Adobe Illustrator 15.0.0, SVG Export Plug-In . SVG Version: 6.00 Build 0)  --><!DOCTYPE svg PUBLIC "-//W3C//DTD SVG 1.1//EN" "http://www.w3.org/Graphics/SVG/1.1/DTD/svg11.dtd"><svg xmlns="http://www.w3.org/2000/svg" xmlns:xlink="http://www.w3.org/1999/xlink" viewBox="0 0 50 50" width="50px" height="50px"><path fill="none" stroke="#000000" stroke-width="2" stroke-linecap="round" stroke-linejoin="round" stroke-miterlimit="10" d="M47,15h-2.2c-1,0-1.899,0.8-2,1.8l-1.3,10.7c-0.3,2-2,3.5-4,3.5h-25c-2,0-3.7-1.5-4-3.5L7.2,16.8c-0.1-1-1-1.8-2-1.8H3"/><path d="M42,14H8c-0.39,0-0.744-0.226-0.907-0.58c-0.164-0.354-0.107-0.77,0.145-1.067c0.206-0.244,4.984-5.773,13.884-7.199L20.938,4.19c-0.173-0.462-0.123-0.977,0.144-1.407C21.384,2.293,21.915,2,22.5,2h5c0.527,0,1.017,0.24,1.343,0.658c0.331,0.423,0.454,0.978,0.328,1.484l-0.243,1.021c8.868,1.438,13.629,6.948,13.835,7.191c0.252,0.297,0.309,0.713,0.145,1.067S42.39,14,42,14z"/><path d="M24.4,38.6c-0.256,0-0.512-0.098-0.707-0.293c-0.391-0.391-0.391-1.023,0-1.414l1.2-1.199c0.391-0.391,1.023-0.391,1.414,0s0.391,1.023,0,1.414l-1.2,1.199C24.912,38.502,24.656,38.6,24.4,38.6z"/><path d="M44.833,39.938l-3.097-7.989C41.299,30.783,40.159,30,38.9,30H11.1c-1.299,0-2.386,0.747-2.833,1.938L5.167,39.94c-0.349,0.907-0.226,1.931,0.33,2.74C6.064,43.507,7,44,8,44h34c1,0,1.936-0.493,2.503-1.32C45.059,41.871,45.183,40.848,44.833,39.938z M25,40.5c-1.9,0-3.5-1.6-3.5-3.5s1.6-3.5,3.5-3.5c1.9,0,3.5,1.6,3.5,3.5S26.9,40.5,25,40.5z"/><path fill="none" stroke="#000000" stroke-width="2" stroke-linecap="round" stroke-miterlimit="10" d="M31,20c-1-1.8-3.3-3-6-3s-5,1.2-6,3"/><path fill="none" stroke="#000000" stroke-width="2" stroke-linecap="round" stroke-miterlimit="10" d="M38,20c-0.6-1.2-1.9-2-3.5-2s-2.9,0.8-3.5,2"/><path fill="none" stroke="#000000" stroke-width="2" stroke-linecap="round" stroke-miterlimit="10" d="M19,20c-0.6-1.2-1.9-2-3.5-2s-2.9,0.8-3.5,2"/></svg>