<?xml version="1.0" encoding="iso-8859-1"?><!-- Generator: Adobe Illustrator 21.0.2, SVG Export Plug-In . SVG Version: 6.00 Build 0)  --><svg xmlns="http://www.w3.org/2000/svg" xmlns:xlink="http://www.w3.org/1999/xlink" viewBox="0 0 50 50" width="50px" height="50px"><ellipse cx="47.788" cy="47.821" rx="1.212" ry="1.179"/><ellipse cx="47.788" cy="39.179" rx="1.212" ry="1.179"/><ellipse cx="44.5" cy="43.459" rx="1.5" ry="1.459"/><ellipse cx="29.212" cy="47.821" rx="1.212" ry="1.179"/><ellipse cx="29.212" cy="39.179" rx="1.212" ry="1.179"/><ellipse cx="32.5" cy="43.459" rx="1.5" ry="1.459"/><rect x="28" y="38" style="fill:none;stroke:#000000;stroke-width:2;stroke-miterlimit:10;" width="21" height="11"/><g><path d="M15.554,23.308c0.495,0.246,1.094,0.046,1.341-0.448s0.046-1.094-0.448-1.341c-0.793-0.396-1.639-0.605-2.447-0.605c-1.395,0-2.798,0.651-3.752,1.741c-0.364,0.416-0.322,1.048,0.094,1.411c0.19,0.167,0.424,0.248,0.658,0.248c0.278,0,0.555-0.115,0.752-0.341c0.572-0.653,1.433-1.059,2.248-1.059C14.492,22.914,15.044,23.054,15.554,23.308z"/><path d="M25,40.298c-1.645,1.578-3.645,2.716-6,2.716c-7.665,0-11.608-12.082-11.647-12.204l-0.156-0.489l-0.489-0.158C6.681,30.154,4,29.262,4,27.114c0-1.059,0.296-1.744,0.505-2.1H6.4c0.3-0.1,0.6-0.4,0.6-0.8l1-6.2c2.3-0.3,10-1,14-6c2,4,6.6,5.5,8,6l1,6.2c0.1,0.5,0.5,0.8,1,0.8h1.493c0.213,0.36,0.507,1.044,0.507,2.1c0,2.126-2.685,3.041-2.708,3.048l-0.489,0.158l-0.156,0.49c-0.003,0.008-0.025,0.077-0.065,0.19h3.317C34.941,30.223,36,28.977,36,27.114c0-1.778-0.614-2.913-1-3.452v-5.148c0-1.489-0.106-2.827-0.316-3.979l-0.022-0.099c-2.586-8.942-9.086-10.008-12.2-10.376l-2.021-2.021l-0.377-0.023C19.761,1.995,12.6,1.607,7.603,6.302C4.548,9.17,3,13.279,3,18.514v5.148c-0.386,0.538-1,1.674-1,3.451c0,2.869,2.511,4.281,3.602,4.76C6.455,34.281,10.721,45.014,19,45.014c2.308,0,4.303-0.835,6-2.09V40.298z"/><path d="M15.7,28.014c0.2-0.3,0.3-0.6,0.3-1c0-1.1-0.9-2-2-2s-2,0.9-2,2c0,0.4,0.1,0.7,0.3,1H15.7z"/><path d="M19,39.014c3.364,0,6-2.636,6-6v-1H13v1C13,36.378,15.636,39.014,19,39.014z"/><path d="M21.552,21.619c-0.494,0.247-0.694,0.848-0.447,1.342c0.248,0.494,0.847,0.693,1.342,0.447c1.443-0.723,2.989-0.376,3.764,0.62c0.197,0.253,0.491,0.386,0.79,0.386c0.214,0,0.431-0.068,0.612-0.211c0.436-0.339,0.515-0.967,0.175-1.403C26.438,21.063,23.838,20.477,21.552,21.619z"/><path d="M24,25.014c-1.1,0-2,0.9-2,2c0,0.4,0.1,0.7,0.3,1h3.4c0.2-0.3,0.3-0.6,0.3-1C26,25.914,25.1,25.014,24,25.014z"/></g><rect x="29" y="33" width="19" height="2"/><circle style="fill:none;stroke:#000000;stroke-width:2;stroke-miterlimit:10;" cx="38.5" cy="43.5" r="2.5"/></svg>