<?xml version="1.0" encoding="iso-8859-1"?>
<!-- Generator: Adobe Illustrator 23.0.3, SVG Export Plug-In . SVG Version: 6.00 Build 0)  -->
<svg version="1.1" id="Layer_1" xmlns="http://www.w3.org/2000/svg" xmlns:xlink="http://www.w3.org/1999/xlink" x="0px" y="0px"
	 viewBox="0 0 50 50" style="enable-background:new 0 0 50 50;" xml:space="preserve">
<line style="fill:none;stroke:#000000;stroke-width:4;stroke-miterlimit:10;" x1="31.276" y1="31.276" x2="45.5" y2="45.5"/>
<g>
	<path d="M25,23c-0.551,0-1,0.449-1,1v2c0,0.551,0.449,1,1,1s1-0.449,1-1v-2C26,23.449,25.551,23,25,23z"/>
	<path d="M16,16v-2c0-0.551-0.449-1-1-1s-1,0.449-1,1v2c0,0.551,0.449,1,1,1S16,16.551,16,16z"/>
	<path d="M20,3C10.626,3,3,10.626,3,20s7.626,17,17,17s17-7.626,17-17S29.374,3,20,3z M12,16v-2c0-1.654,1.346-3,3-3s3,1.346,3,3v2
		c0,1.654-1.346,3-3,3S12,17.654,12,16z M15.848,28.53c-0.19,0.304-0.516,0.47-0.849,0.47c-0.181,0-0.364-0.049-0.529-0.152
		c-0.469-0.293-0.611-0.91-0.318-1.378l10-16c0.293-0.468,0.91-0.611,1.378-0.318c0.469,0.293,0.611,0.91,0.318,1.378L15.848,28.53z
		 M28,26c0,1.654-1.346,3-3,3s-3-1.346-3-3v-2c0-1.654,1.346-3,3-3s3,1.346,3,3V26z"/>
</g>
</svg>