<?xml version="1.0" encoding="iso-8859-1"?>
<!-- Generator: Adobe Illustrator 23.0.3, SVG Export Plug-In . SVG Version: 6.00 Build 0)  -->
<svg version="1.1" id="Layer_1" xmlns="http://www.w3.org/2000/svg" xmlns:xlink="http://www.w3.org/1999/xlink" x="0px" y="0px"
	 viewBox="0 0 50 50" style="enable-background:new 0 0 50 50;" xml:space="preserve">
<line style="fill:none;stroke:#000000;stroke-width:2;stroke-linecap:round;stroke-linejoin:round;stroke-miterlimit:2.6131;" x1="3" y1="3" x2="47" y2="47"/>
<g>
	<path d="M21.653,26H9v-2h10.653l-3-3H4v-5h7.653L5.049,9.397C3.259,10.158,2,11.935,2,14v22c0,2.757,2.243,5,5,5h29.653L21.653,26z
		"/>
	<path d="M43,9H7.933l7,7H46v5H19.867l3,3H25v2h-0.267l15,15H43c2.757,0,5-2.243,5-5V14C48,11.243,45.757,9,43,9z"/>
</g>
</svg>