<?xml version="1.0" encoding="iso-8859-1"?><!-- Generator: Adobe Illustrator 21.1.0, SVG Export Plug-In . SVG Version: 6.00 Build 0)  --><svg xmlns="http://www.w3.org/2000/svg" xmlns:xlink="http://www.w3.org/1999/xlink" viewBox="0 0 50 50" width="50px" height="50px"><path d="M21.5,31c0.83,0,1.5,0.67,1.5,1.5c0,0.83-0.67,1.5-1.5,1.5S20,33.33,20,32.5C20,31.67,20.67,31,21.5,31z M27,32.5c0,0.83,0.67,1.5,1.5,1.5s1.5-0.67,1.5-1.5c0-0.83-0.67-1.5-1.5-1.5S27,31.67,27,32.5z M42.87,8H7.13C4.3,8,2,10.3,2,13.13v23.74C2,39.7,4.3,42,7.13,42h35.74C45.7,42,48,39.7,48,36.87V13.13C48,10.3,45.7,8,42.87,8z M39,36H8V14h31V36z M43.5,26.5c-0.83,0-1.5-0.67-1.5-1.5c0-0.83,0.67-1.5,1.5-1.5S45,24.17,45,25C45,25.83,44.33,26.5,43.5,26.5z M29.95,26.32l2-6c0.1-0.31,0.05-0.64-0.14-0.9C31.62,19.15,31.32,19,31,19H19.86l-0.03-0.3c-0.14-1.57-1.08-2.7-2.25-2.7H16v2l1.5-0.02c0.07,0.05,0.29,0.34,0.33,0.9l0.95,9.43c0.14,1.56,1.08,2.69,2.24,2.69H30v-2l-8.89,0.02c-0.07-0.05-0.29-0.34-0.34-0.9L20.66,27H29C29.43,27,29.81,26.72,29.95,26.32z M20.46,25l-0.4-4h9.55l-1.33,4H20.46z"/></svg>