<?xml version="1.0" encoding="utf-8"?><!-- Generator: Adobe Illustrator 15.0.0, SVG Export Plug-In . SVG Version: 6.00 Build 0)  --><!DOCTYPE svg PUBLIC "-//W3C//DTD SVG 1.1//EN" "http://www.w3.org/Graphics/SVG/1.1/DTD/svg11.dtd"><svg xmlns="http://www.w3.org/2000/svg" xmlns:xlink="http://www.w3.org/1999/xlink" viewBox="0 0 50 50" width="50px" height="50px"><path d="M47.998,20.377L48,5.5C48,3.57,46.43,2,44.5,2L29.624,2.002L28.995,2c-1.294,0-2.529,0.074-3.419,0.963L2.848,25.689C2.301,26.234,2,26.962,2,27.734c0,0.771,0.301,1.498,0.847,2.045l17.374,17.373c0.546,0.546,1.272,0.847,2.044,0.847s1.499-0.301,2.044-0.847l22.727-22.729c0.976-0.972,0.969-2.372,0.963-3.725L47.998,20.377z M31.9,26.5l-1.4-1.4c0.9-1.3,1.1-2.9-0.4-4.4c-2.1-2.1-3.8-0.9-4.399-0.3c-1.4,1.4-0.5,3.1,0.7,5c1.399,2.3,2.6,4.9,0.3,7.2c-2.7,2.801-6,1.101-7.3,0.2l-1.3,1.3L16.7,32.7l1.4-1.4c-1-1.399-2.4-4.2,0.4-7.5l1.4,1.4c-0.9,0.899-2,3.2,0.2,5.399c2.2,2.2,3.7,1.7,4.9,0.5c3.4-3.399-5.5-7.7-1-12.2c2.4-2.4,5.4-1.3,6.7-0.3l1.6-1.6l1.4,1.4L32.1,20C33.8,22.4,33,24.5,31.9,26.5z M39,14c-1.656,0-3-1.343-3-3s1.344-3,3-3s3,1.343,3,3S40.656,14,39,14z"/></svg>