<?xml version="1.0" encoding="iso-8859-1"?><!-- Generator: Adobe Illustrator 21.1.0, SVG Export Plug-In . SVG Version: 6.00 Build 0)  --><svg xmlns="http://www.w3.org/2000/svg" xmlns:xlink="http://www.w3.org/1999/xlink" viewBox="0 0 50 50" width="50px" height="50px"><path d="M29.393,20.607c-0.809-0.809-2.12-0.809-2.929,0l-5.858,5.858c-0.809,0.809-0.809,2.12,0,2.929c0.809,0.809,2.12,0.809,2.929,0l5.858-5.858C30.202,22.727,30.202,21.415,29.393,20.607z"/><line style="fill:none;stroke:#000000;stroke-width:2;stroke-linejoin:round;stroke-miterlimit:10;" x1="29.107" y1="27.964" x2="22.036" y2="20.893"/><path d="M43.073,12.23L37.77,6.927c-0.325-0.326-0.828-0.386-1.222-0.15c-0.185,0.111-4.551,2.74-6.732,4.923L5.066,36.449c-2.184,2.184-4.813,6.549-4.924,6.733c-0.236,0.394-0.174,0.897,0.15,1.222l5.304,5.303C5.789,49.9,6.046,50,6.304,50c0.177,0,0.354-0.047,0.515-0.143c0.185-0.111,4.55-2.74,6.732-4.923L38.3,20.186c2.184-2.184,4.812-6.549,4.924-6.733C43.46,13.059,43.397,12.555,43.073,12.23z M25.572,18.771c1.512-1.511,4.145-1.511,5.656,0c0.756,0.756,1.172,1.76,1.172,2.829s-0.416,2.073-1.172,2.829l0,0l-8.485,8.485l0,0c-1.512,1.511-4.145,1.511-5.656,0c-0.756-0.756-1.172-1.76-1.172-2.829s0.416-2.073,1.172-2.829L25.572,18.771z M17.402,35.529c0.025,0.012,0.05,0.024,0.076,0.036H17.44L17.402,35.529z"/><rect x="40.581" y="2.135" transform="matrix(0.7071 -0.7071 0.7071 0.7071 9.5085 33.2269)" width="8.569" height="6"/></svg>