<?xml version="1.0" encoding="utf-8"?><!-- Generator: Adobe Illustrator 15.0.0, SVG Export Plug-In . SVG Version: 6.00 Build 0)  --><!DOCTYPE svg PUBLIC "-//W3C//DTD SVG 1.1//EN" "http://www.w3.org/Graphics/SVG/1.1/DTD/svg11.dtd"><svg xmlns="http://www.w3.org/2000/svg" xmlns:xlink="http://www.w3.org/1999/xlink" viewBox="0 0 50 50" width="50px" height="50px"><path d="M49.999,39.259v-9.998H50c0-0.003-0.001-0.005-0.001-0.008v-9.251H39.604c-0.011,0-0.02-0.001-0.03-0.001v0.001H16.426V20c-0.01,0-0.02,0.001-0.03,0.001H6.001v9.248C6.001,29.253,6,29.257,6,29.261h0.001v9.998H6c0,0.004,0.001,0.008,0.001,0.012v6.729h7.54c0.003,0,0.006,0.001,0.01,0.001v-0.001h28.898V46c0.004,0,0.006-0.001,0.01-0.001h7.54v-6.732C49.999,39.264,50,39.262,49.999,39.259L49.999,39.259z M13.551,44.001L13.551,44.001c-0.996-0.001-1.34-0.551-1.839-1.717c-0.203-0.474-0.395-0.922-0.725-1.251c-0.378-0.378-0.929-0.59-1.512-0.813C8.668,39.91,8,39.624,8,39.259H7.999v-9.998H8c0-0.807,0.996-1.251,2.403-1.792c0.829-0.318,1.545-0.594,2.024-1.072c0.415-0.414,0.662-0.992,0.949-1.662C14.083,23.083,14.678,22,16.426,22v-0.001h23.148V22c1.748,0,2.343,1.083,3.05,2.735c0.286,0.669,0.534,1.248,0.948,1.662c0.479,0.479,1.195,0.754,2.024,1.072C47.004,28.01,48,28.454,48,29.261h0.001v9.998H48c0,0.365-0.668,0.651-1.476,0.961c-0.583,0.224-1.134,0.436-1.514,0.813c-0.328,0.33-0.52,0.776-0.723,1.25C43.789,43.45,43.445,44,42.449,44v0.001H13.551z"/><path d="M48.049,20.738L42.71,0.832L32.67,3.524c-0.01,0.003-0.02,0.004-0.03,0.007v0.001L10.284,9.529l0-0.001c-0.009,0.002-0.017,0.006-0.025,0.008L0.213,12.229l2.345,8.68c0.016,0.087,0.029,0.173,0.053,0.263l0.017-0.004l3.47,12.842l1.929-0.521L4.533,20.562c-0.119-0.74,0.697-1.409,1.866-2.259c0.719-0.523,1.34-0.974,1.679-1.562c0.292-0.507,0.381-1.129,0.484-1.849c0.255-1.779,0.549-2.98,2.238-3.433v-0.001l22.356-5.996v0.001c1.69-0.454,2.544,0.439,3.655,1.852c0.45,0.573,0.84,1.067,1.347,1.359c0.586,0.339,1.35,0.419,2.234,0.512c1.498,0.157,2.574,0.329,2.783,1.108l0.002,0l2.94,10.962L48.049,20.738z"/><circle cx="42.5" cy="33.5" r="2.5"/><circle cx="13.5" cy="33.5" r="2.5"/><ellipse cx="28" cy="33" rx="8" ry="9"/><circle cx="38.963" cy="15.812" r="2.5"/><path d="M32.838,20.737c0.139-1.198,0.057-2.461-0.281-3.724c-1.287-4.801-5.791-7.765-10.06-6.62c-4.267,1.144-6.683,5.964-5.395,10.765L32.838,20.737z"/></svg>