<?xml version="1.0" encoding="iso-8859-1"?>
<!-- Generator: Adobe Illustrator 23.0.3, SVG Export Plug-In . SVG Version: 6.00 Build 0)  -->
<svg version="1.1" id="Layer_1" xmlns="http://www.w3.org/2000/svg" xmlns:xlink="http://www.w3.org/1999/xlink" x="0px" y="0px"
	 viewBox="0 0 50 50" style="enable-background:new 0 0 50 50;" xml:space="preserve">
<path style="fill:none;stroke:#000000;stroke-width:2;stroke-linecap:round;stroke-linejoin:round;stroke-miterlimit:10;" d="
	M33,41.789C33.638,41.9,34.319,42,35,42c6.082,0,11-4.918,11-11s-4.918-11-11-11"/>
<g>
	<path style="fill:none;stroke:#000000;stroke-width:2;stroke-linecap:round;stroke-linejoin:round;stroke-miterlimit:10;" d="
		M24.668,40c1.79,1.26,3.973,2,6.332,2c6.082,0,11-4.918,11-11s-4.918-11-11-11c-2.42,0-4.656,0.779-6.471,2.099"/>
</g>
<path d="M26.002,13c-0.001,0-0.001,0-0.002,0H6c-1.654,0-3,1.346-3,3v30c0,0.347,0.18,0.668,0.475,0.851
	c0.294,0.184,0.661,0.197,0.973,0.044L6,46.118l1.553,0.776c0.281,0.141,0.613,0.141,0.895,0L10,46.118l1.553,0.776
	c0.281,0.141,0.613,0.141,0.895,0L14,46.118l1.553,0.776c0.281,0.141,0.613,0.141,0.895,0L18,46.118l1.553,0.776
	c0.281,0.141,0.613,0.141,0.895,0L22,46.118l1.553,0.776C23.694,46.965,23.847,47,24,47c0.183,0,0.365-0.05,0.525-0.149
	C24.82,46.668,25,46.347,25,46V16c0-0.552,0.448-1,1-1s1,0.448,1,1v4c0,0.553,0.447,1,1,1s1-0.447,1-1v-4
	C29,14.347,27.655,13.001,26.002,13z M11,36H8c-0.553,0-1-0.447-1-1s0.447-1,1-1h3c0.553,0,1,0.447,1,1S11.553,36,11,36z M13,32H8
	c-0.553,0-1-0.447-1-1s0.447-1,1-1h5c0.553,0,1,0.447,1,1S13.553,32,13,32z M7,27c0-0.553,0.447-1,1-1h2c0.553,0,1,0.447,1,1
	s-0.447,1-1,1H8C7.447,28,7,27.553,7,27z M13,24H8c-0.553,0-1-0.447-1-1s0.447-1,1-1h5c0.553,0,1,0.447,1,1S13.553,24,13,24z M20,36
	h-2c-0.553,0-1-0.447-1-1s0.447-1,1-1h2c0.553,0,1,0.447,1,1S20.553,36,20,36z M20,32h-2c-0.553,0-1-0.447-1-1s0.447-1,1-1h2
	c0.553,0,1,0.447,1,1S20.553,32,20,32z M20,28h-2c-0.553,0-1-0.447-1-1s0.447-1,1-1h2c0.553,0,1,0.447,1,1S20.553,28,20,28z M20,24
	h-2c-0.553,0-1-0.447-1-1s0.447-1,1-1h2c0.553,0,1,0.447,1,1S20.553,24,20,24z"/>
<path d="M31,20c1.628,0,3.167,0.363,4.556,1H41V4c0-0.347-0.18-0.668-0.474-0.851c-0.295-0.183-0.663-0.198-0.973-0.044L38,3.882
	l-1.553-0.776c-0.281-0.141-0.613-0.141-0.895,0L34,3.882l-1.553-0.776c-0.281-0.141-0.613-0.141-0.895,0L30,3.882l-1.553-0.776
	c-0.281-0.141-0.613-0.141-0.895,0L26,3.882l-1.553-0.776c-0.281-0.141-0.613-0.141-0.895,0L22,3.882l-1.553-0.776
	c-0.31-0.154-0.678-0.139-0.973,0.044C19.18,3.332,19,3.653,19,4v7h7.003C28.758,11.002,31,13.244,31,16V20z M34,7h2
	c0.552,0,1,0.447,1,1s-0.448,1-1,1h-2c-0.552,0-1-0.447-1-1S33.448,7,34,7z M34,11h2c0.552,0,1,0.447,1,1s-0.448,1-1,1h-2
	c-0.552,0-1-0.447-1-1S33.448,11,34,11z M29,9h-5c-0.552,0-1-0.447-1-1s0.448-1,1-1h5c0.552,0,1,0.447,1,1S29.552,9,29,9z"/>
<path d="M35,33.642c0.001-2.391-2.004-2.851-3.614-3.221c-1.446-0.332-2.263-0.565-2.263-1.48c0-1.095,0.606-1.605,1.907-1.605
	c1.416,0,1.788,0.871,1.839,1.664h1.855c0.001-0.776-0.314-1.61-0.869-2.218c-0.486-0.531-1.123-0.873-1.856-1.01V24h-0.082h-1.821
	H30v1.77c-2.648,0.444-2.732,2.796-2.732,3.075c0,2.476,2.004,2.924,3.615,3.284c1.446,0.324,2.263,0.555,2.263,1.527
	c0,0.583-0.279,1.562-2.145,1.562c-0.041,0-1.01-0.007-1.618-0.615c-0.359-0.359-0.532-0.877-0.515-1.54L28.869,33h-1.857
	l0.002,0.064c0.06,2.1,1.041,3.301,2.987,3.671V38h0.096h1.821H32v-1.235C34.846,36.303,35,34.097,35,33.642z"/>
</svg>