<?xml version="1.0" encoding="iso-8859-1"?>
<!-- Generator: Adobe Illustrator 23.0.3, SVG Export Plug-In . SVG Version: 6.00 Build 0)  -->
<svg version="1.1" id="Layer_1" xmlns="http://www.w3.org/2000/svg" xmlns:xlink="http://www.w3.org/1999/xlink" x="0px" y="0px"
	 viewBox="0 0 50 50" style="enable-background:new 0 0 50 50;" xml:space="preserve">
<path d="M42,29.5c0-1.379-1.121-2.5-2.5-2.5S37,28.121,37,29.5s1.121,2.5,2.5,2.5S42,30.879,42,29.5z"/>
<path d="M26.002,13c-0.001,0-0.001,0-0.002,0H6c-1.654,0-3,1.346-3,3v30c0,0.347,0.18,0.668,0.475,0.851
	c0.294,0.184,0.661,0.197,0.973,0.044L6,46.118l1.553,0.776c0.281,0.141,0.613,0.141,0.895,0L10,46.118l1.553,0.776
	c0.281,0.141,0.613,0.141,0.895,0L14,46.118l1.553,0.776c0.281,0.141,0.613,0.141,0.895,0L18,46.118l1.553,0.776
	c0.281,0.141,0.613,0.141,0.895,0L22,46.118l1.553,0.776C23.694,46.965,23.847,47,24,47c0.183,0,0.365-0.05,0.525-0.149
	C24.82,46.668,25,46.347,25,46V16c0-0.552,0.448-1,1-1s1,0.448,1,1v2c0,0.553,0.447,1,1,1s1-0.447,1-1v-2
	C29,14.347,27.655,13.001,26.002,13z M11,36H8c-0.553,0-1-0.447-1-1s0.447-1,1-1h3c0.553,0,1,0.447,1,1S11.553,36,11,36z M13,32H8
	c-0.553,0-1-0.447-1-1s0.447-1,1-1h5c0.553,0,1,0.447,1,1S13.553,32,13,32z M7,27c0-0.553,0.447-1,1-1h2c0.553,0,1,0.447,1,1
	s-0.447,1-1,1H8C7.447,28,7,27.553,7,27z M13,24H8c-0.553,0-1-0.447-1-1s0.447-1,1-1h5c0.553,0,1,0.447,1,1S13.553,24,13,24z M20,36
	h-2c-0.553,0-1-0.447-1-1s0.447-1,1-1h2c0.553,0,1,0.447,1,1S20.553,36,20,36z M20,32h-2c-0.553,0-1-0.447-1-1s0.447-1,1-1h2
	c0.553,0,1,0.447,1,1S20.553,32,20,32z M20,28h-2c-0.553,0-1-0.447-1-1s0.447-1,1-1h2c0.553,0,1,0.447,1,1S20.553,28,20,28z M20,24
	h-2c-0.553,0-1-0.447-1-1s0.447-1,1-1h2c0.553,0,1,0.447,1,1S20.553,24,20,24z"/>
<path d="M27,18v2h12.449c0.996,0,1.34,0.55,1.84,1.716c0.202,0.474,0.395,0.922,0.724,1.251c0.378,0.379,0.93,0.59,1.514,0.814
	c0.806,0.31,1.474,0.596,1.474,0.96v9.518c0,0.364-0.668,0.65-1.474,0.96c-0.584,0.225-1.136,0.436-1.514,0.814
	c-0.329,0.329-0.521,0.777-0.724,1.251C40.789,38.45,40.445,39,39.449,39H27v2h20V18H27z"/>
<path d="M27,22v15c3.859,0,7-3.364,7-7.5S30.859,22,27,22z"/>
<path d="M31,16v2c0,0.353-0.07,0.687-0.184,1H41V4c0-0.347-0.18-0.668-0.475-0.851c-0.295-0.184-0.663-0.198-0.973-0.044L38,3.882
	l-1.553-0.776c-0.281-0.141-0.613-0.141-0.895,0L34,3.882l-1.553-0.776c-0.281-0.141-0.613-0.141-0.895,0L30,3.882l-1.553-0.776
	c-0.281-0.141-0.613-0.141-0.895,0L26,3.882l-1.553-0.776c-0.281-0.141-0.613-0.141-0.895,0L22,3.882l-1.553-0.776
	c-0.31-0.153-0.679-0.139-0.973,0.044C19.18,3.332,19,3.653,19,4v7h7.003C28.759,11.002,31,13.244,31,16z M34,7h2
	c0.553,0,1,0.447,1,1s-0.447,1-1,1h-2c-0.553,0-1-0.447-1-1S33.447,7,34,7z M34,11h2c0.553,0,1,0.447,1,1s-0.447,1-1,1h-2
	c-0.553,0-1-0.447-1-1S33.447,11,34,11z M23,8c0-0.553,0.447-1,1-1h5c0.553,0,1,0.447,1,1s-0.447,1-1,1h-5C23.447,9,23,8.553,23,8z"
	/>
</svg>