<?xml version="1.0" encoding="iso-8859-1"?>
<!-- Generator: Adobe Illustrator 23.0.3, SVG Export Plug-In . SVG Version: 6.00 Build 0)  -->
<svg version="1.1" id="Layer_1" xmlns="http://www.w3.org/2000/svg" xmlns:xlink="http://www.w3.org/1999/xlink" x="0px" y="0px"
	 viewBox="0 0 50 50" style="enable-background:new 0 0 50 50;" xml:space="preserve">
<line style="fill:none;stroke:#000000;stroke-width:2;stroke-linecap:round;stroke-miterlimit:10;" x1="39" y1="21.25" x2="39" y2="11.25"/>
<line style="fill:none;stroke:#000000;stroke-width:2;stroke-linecap:round;stroke-miterlimit:10;" x1="32" y1="21.25" x2="32" y2="11"/>
<line style="fill:none;stroke:#000000;stroke-width:2;stroke-linecap:round;stroke-miterlimit:10;" x1="25" y1="21.25" x2="25" y2="11"/>
<line style="fill:none;stroke:#000000;stroke-width:2;stroke-linecap:round;stroke-miterlimit:10;" x1="18" y1="21.25" x2="18" y2="11"/>
<line style="fill:none;stroke:#000000;stroke-width:2;stroke-miterlimit:10;" x1="11" y1="21.25" x2="11" y2="11"/>
<path d="M43,4H7C5.346,4,4,5.346,4,7v5h42V7C46,5.346,44.654,4,43,4z M8,9C7.448,9,7,8.552,7,8c0-0.552,0.448-1,1-1s1,0.448,1,1
	C9,8.552,8.552,9,8,9z M11,9c-0.552,0-1-0.448-1-1c0-0.552,0.448-1,1-1s1,0.448,1,1C12,8.552,11.552,9,11,9z M14,9
	c-0.552,0-1-0.448-1-1c0-0.552,0.448-1,1-1s1,0.448,1,1C15,8.552,14.552,9,14,9z"/>
<line style="fill:none;stroke:#000000;stroke-width:2;stroke-linecap:round;stroke-miterlimit:10;" x1="47" y1="33" x2="37" y2="49"/>
<path style="fill:none;stroke:#000000;stroke-width:2;stroke-linecap:round;stroke-miterlimit:10;" d="M49,45c0-1.105-0.895-2-2-2
	c-1.105,0-2,0.895-2,2v2c0,0,0,0,0,0c0,1.105,0.895,2,2,2s2-0.895,2-2V45z"/>
<path style="fill:none;stroke:#000000;stroke-width:2;stroke-linecap:round;stroke-miterlimit:10;" d="M39,35c0-1.105-0.895-2-2-2
	c-1.105,0-2,0.895-2,2v2c0,0,0,0,0,0c0,1.105,0.895,2,2,2s2-0.895,2-2V35z"/>
<path d="M45.98,10.805L45.82,10H4.18l-0.16,0.805C3.978,11.013,3,15.945,3,18.5c0,1.525,0.364,2.771,1,3.702V43c0,1.654,1.346,3,3,3
	h28.34l2.563-4.091C37.609,41.963,37.309,42,37,42c-2.757,0-5-2.243-5-5v-2c0-2.757,2.243-5,5-5s5,2.243,5,5v0.369l4-6.385v-6.782
	c0.636-0.931,1-2.177,1-3.702C47,15.945,46.022,11.013,45.98,10.805z M42.5,22c-1.053,0-2.044-0.484-2.719-1.328
	c-0.024-0.03-0.059-0.045-0.086-0.072c-0.026-0.027-0.041-0.061-0.071-0.085c-0.024-0.019-0.053-0.024-0.079-0.04
	c-0.059-0.039-0.118-0.068-0.182-0.094c-0.057-0.023-0.112-0.042-0.172-0.054c-0.066-0.013-0.13-0.016-0.198-0.016
	c-0.061,0-0.118,0.003-0.178,0.014c-0.065,0.012-0.125,0.033-0.188,0.059c-0.06,0.024-0.116,0.052-0.171,0.088
	c-0.026,0.017-0.057,0.022-0.082,0.042c-0.03,0.024-0.045,0.059-0.072,0.086c-0.027,0.026-0.061,0.041-0.085,0.07
	C37.544,21.516,36.553,22,35.5,22s-2.044-0.484-2.719-1.328c-0.024-0.03-0.059-0.045-0.085-0.071
	c-0.026-0.027-0.041-0.061-0.071-0.085c-0.024-0.019-0.054-0.024-0.08-0.041c-0.058-0.038-0.117-0.067-0.18-0.093
	c-0.058-0.023-0.114-0.043-0.174-0.054c-0.066-0.013-0.13-0.016-0.197-0.016c-0.06,0-0.118,0.003-0.177,0.014
	c-0.066,0.012-0.127,0.034-0.19,0.059c-0.06,0.024-0.115,0.051-0.169,0.087c-0.027,0.017-0.058,0.022-0.083,0.043
	c-0.03,0.024-0.045,0.059-0.072,0.086c-0.026,0.026-0.06,0.041-0.084,0.07C30.544,21.516,29.553,22,28.5,22
	c-1.052,0-2.043-0.484-2.72-1.328c-0.024-0.03-0.058-0.045-0.085-0.071c-0.026-0.026-0.041-0.06-0.07-0.084
	c-0.024-0.019-0.053-0.023-0.077-0.04c-0.059-0.039-0.119-0.069-0.184-0.095c-0.058-0.023-0.113-0.043-0.173-0.054
	c-0.065-0.013-0.127-0.016-0.193-0.016c-0.063,0-0.123,0.003-0.185,0.015c-0.062,0.012-0.119,0.032-0.179,0.056
	c-0.064,0.025-0.122,0.055-0.18,0.093c-0.025,0.017-0.055,0.021-0.079,0.041c-0.03,0.024-0.044,0.058-0.071,0.085
	c-0.026,0.026-0.06,0.041-0.084,0.071C23.543,21.516,22.552,22,21.5,22s-2.043-0.484-2.72-1.328
	c-0.024-0.03-0.058-0.044-0.085-0.071c-0.026-0.026-0.041-0.06-0.071-0.084c-0.024-0.019-0.053-0.024-0.078-0.041
	c-0.058-0.039-0.118-0.068-0.182-0.094c-0.058-0.023-0.114-0.043-0.174-0.055c-0.065-0.013-0.127-0.016-0.193-0.016
	c-0.063,0-0.123,0.003-0.185,0.015c-0.062,0.012-0.119,0.032-0.179,0.056c-0.064,0.025-0.122,0.055-0.18,0.093
	c-0.025,0.017-0.054,0.021-0.078,0.041c-0.03,0.024-0.044,0.058-0.071,0.084c-0.027,0.026-0.061,0.041-0.085,0.071
	C16.543,21.516,15.552,22,14.5,22s-2.043-0.484-2.72-1.328c-0.024-0.03-0.058-0.045-0.085-0.071c-0.026-0.026-0.041-0.06-0.07-0.084
	c-0.024-0.019-0.053-0.024-0.078-0.04c-0.059-0.039-0.119-0.069-0.184-0.095c-0.058-0.023-0.113-0.042-0.173-0.054
	c-0.065-0.013-0.127-0.016-0.193-0.016c-0.063,0-0.123,0.003-0.185,0.015c-0.062,0.012-0.119,0.032-0.179,0.056
	c-0.063,0.025-0.122,0.055-0.18,0.093c-0.025,0.017-0.055,0.021-0.079,0.041c-0.03,0.024-0.044,0.058-0.071,0.085
	c-0.026,0.026-0.061,0.041-0.084,0.071C9.543,21.516,8.552,22,7.5,22C5.434,22,5,20.097,5,18.5c0-1.778,0.553-5.002,0.828-6.5
	h38.344C44.447,13.497,45,16.721,45,18.5C45,20.097,44.566,22,42.5,22z"/>
</svg>