<?xml version="1.0" encoding="iso-8859-1"?><!-- Generator: Adobe Illustrator 19.2.1, SVG Export Plug-In . SVG Version: 6.00 Build 0)  --><svg xmlns="http://www.w3.org/2000/svg" xmlns:xlink="http://www.w3.org/1999/xlink" viewBox="0 0 50 50" width="50px" height="50px"><circle cx="37" cy="13" r="1"/><circle cx="34" cy="16" r="1"/><circle cx="16" cy="34" r="1"/><circle cx="40" cy="10" r="1"/><circle cx="43" cy="7" r="1"/><circle cx="46" cy="4" r="1"/><circle cx="13" cy="37" r="1"/><circle cx="10" cy="40" r="1"/><circle cx="7" cy="43" r="1"/><circle cx="4" cy="46" r="1"/><path d="M33,18c-0.356,0-0.704,0.029-1.053,0.053C31.971,17.704,32,17.356,32,17c0-8.284-6.716-15-15-15S2,8.716,2,17c0,8.284,6.716,15,15,15c0.356,0,0.704-0.029,1.053-0.053C18.029,32.296,18,32.645,18,33c0,8.284,6.716,15,15,15s15-6.716,15-15C48,24.716,41.284,18,33,18z M31,18c0.552,0,1,0.448,1,1s-0.448,1-1,1s-1-0.448-1-1S30.448,18,31,18z M16.88,22.541c-3.213,0-4.182-2.19-4.16-3.536h2.272c0.053,0.512,0.424,1.68,1.84,1.68c1.522,0,1.936-1.463,1.936-2.159c0-1.956-1.574-2.097-1.936-2.097c-1.015,0-1.488,0.587-1.712,0.896h-2.048l1.104-6.192h6.256v1.872h-4.624l-0.448,2.544l0.032,0.032c0.309-0.31,0.903-0.864,2.192-0.864c3.049,0,3.456,3.035,3.456,3.809C21.04,20.001,19.933,22.541,16.88,22.541z M19,32c-0.552,0-1-0.448-1-1s0.448-1,1-1s1,0.448,1,1S19.552,32,19,32z M22,29c-0.552,0-1-0.448-1-1s0.448-1,1-1s1,0.448,1,1S22.552,29,22,29z M25,26c-0.552,0-1-0.448-1-1s0.448-1,1-1s1,0.448,1,1S25.552,26,25,26z M28,23c-0.552,0-1-0.448-1-1s0.448-1,1-1s1,0.448,1,1S28.552,23,28,23z M34.28,38.893h-2.272v-7.264h-2.816v-1.712c2.093,0,3.216-1.798,3.28-2.225h1.808V38.893z"/></svg>