<?xml version="1.0" encoding="utf-8"?><!-- Generator: Adobe Illustrator 15.0.0, SVG Export Plug-In . SVG Version: 6.00 Build 0)  --><!DOCTYPE svg PUBLIC "-//W3C//DTD SVG 1.1//EN" "http://www.w3.org/Graphics/SVG/1.1/DTD/svg11.dtd"><svg xmlns="http://www.w3.org/2000/svg" xmlns:xlink="http://www.w3.org/1999/xlink" viewBox="0 0 50 50" width="50px" height="50px"><path d="M36,8c-0.256,0-0.512-0.098-0.707-0.293L31,3.414l-4.293,4.293c-0.391,0.391-1.023,0.391-1.414,0c-0.391-0.391-0.391-1.023,0-1.414L31,0.586l5.707,5.707c0.391,0.391,0.391,1.023,0,1.414C36.512,7.902,36.256,8,36,8z"/><path d="M39,50c-2.206,0-4-1.794-4-4s1.794-4,4-4s4,1.794,4,4S41.206,50,39,50z M39,44c-1.104,0-2,0.896-2,2s0.896,2,2,2s2-0.896,2-2S40.104,44,39,44z"/><path d="M26,50c-2.206,0-4-1.794-4-4s1.794-4,4-4s4,1.794,4,4S28.206,50,26,50z M26,44c-1.103,0-2,0.896-2,2s0.897,2,2,2c1.104,0,2-0.896,2-2S27.104,44,26,44z"/><circle cx="2" cy="4" r="2"/><path d="M32,2.333c0-0.552-0.447-1-1-1s-1,0.448-1,1V15h2V2.333z"/><path d="M40.744,35.354l7.191-19c0.114-0.307,0.072-0.652-0.112-0.922C47.637,15.161,47.328,15,47,15H32v10c0,0.552-0.447,1-1,1s-1-0.448-1-1V15H16.27l-2.127-8.587c-0.679-2.289-1.813-4.406-5.479-4.406H2C1.451,2.007,1.007,2.451,1.007,3S1.451,3.993,2,3.993h6.664c2.086,0,2.888,0.67,3.563,2.941l7.998,32.294c0.589,2.231,1.257,4.765,5.484,4.765H41c0.549,0,0.993-0.444,0.993-0.993S41.549,42.007,41,42.007H25.709c-2.696,0-2.986-1.099-3.56-3.271L21.472,36h18.336C40.225,36,40.598,35.743,40.744,35.354z"/></svg>