<?xml version="1.0" encoding="iso-8859-1"?>
<!-- Generator: Adobe Illustrator 24.1.2, SVG Export Plug-In . SVG Version: 6.00 Build 0)  -->
<svg version="1.1" id="Layer_1" xmlns="http://www.w3.org/2000/svg" xmlns:xlink="http://www.w3.org/1999/xlink" x="0px" y="0px"
	 viewBox="0 0 50 50" style="enable-background:new 0 0 50 50;" xml:space="preserve">
<path d="M2,15v31.04C2,47.18,2.81,48,3.92,48h42.16c1.11,0,1.92-0.82,1.92-1.96V14.98L2,15z M16,25.5v-1c0-1.93,1.57-3.5,3.5-3.5
	s3.5,1.57,3.5,3.5v1c0,1.93-1.57,3.5-3.5,3.5S16,27.43,16,25.5z M19,41c-0.19,0-0.38-0.05-0.55-0.17c-0.46-0.3-0.59-0.92-0.28-1.38
	l12-18c0.3-0.46,0.92-0.59,1.38-0.28c0.46,0.3,0.59,0.92,0.28,1.38l-12,18C19.64,40.84,19.32,41,19,41z M34,37.5
	c0,1.93-1.57,3.5-3.5,3.5S27,39.43,27,37.5v-1c0-1.93,1.57-3.5,3.5-3.5s3.5,1.57,3.5,3.5V37.5z"/>
<path d="M48,13V6c0-1.105-0.895-2-2-2h-7v4c0,0.552-0.448,1-1,1h-2c-0.552,0-1-0.448-1-1V4H15v4c0,0.552-0.448,1-1,1h-2
	c-0.552,0-1-0.448-1-1V4H4C2.895,4,2,4.895,2,6v7H48z"/>
<path style="fill:none;stroke:#000000;stroke-width:2;stroke-linejoin:round;stroke-miterlimit:10;" d="M14,9h-2
	c-0.552,0-1-0.448-1-1V2c0-0.552,0.448-1,1-1h2c0.552,0,1,0.448,1,1v6C15,8.552,14.552,9,14,9z"/>
<path style="fill:none;stroke:#000000;stroke-width:2;stroke-linejoin:round;stroke-miterlimit:10;" d="M38,9h-2
	c-0.552,0-1-0.448-1-1V2c0-0.552,0.448-1,1-1h2c0.552,0,1,0.448,1,1v6C39,8.552,38.552,9,38,9z"/>
<path d="M19.5,27c-0.83,0-1.5-0.67-1.5-1.5v-1c0-0.83,0.67-1.5,1.5-1.5s1.5,0.67,1.5,1.5v1C21,26.33,20.33,27,19.5,27z"/>
<path d="M32,36.5v1c0,0.83-0.67,1.5-1.5,1.5S29,38.33,29,37.5v-1c0-0.83,0.67-1.5,1.5-1.5S32,35.67,32,36.5z"/>
</svg>