<?xml version="1.0" encoding="utf-8"?><!-- Generator: Adobe Illustrator 15.0.0, SVG Export Plug-In . SVG Version: 6.00 Build 0)  --><!DOCTYPE svg PUBLIC "-//W3C//DTD SVG 1.1//EN" "http://www.w3.org/Graphics/SVG/1.1/DTD/svg11.dtd"><svg xmlns="http://www.w3.org/2000/svg" xmlns:xlink="http://www.w3.org/1999/xlink" viewBox="0 0 50 50" width="50px" height="50px"><g><path d="M26,8h19.5l-5.7-7.6C39.611,0.148,39.314,0,39,0H26V8z"/><path d="M24,8V0H11c-0.315,0-0.611,0.148-0.8,0.4L4.5,8H24z"/><path d="M4,10v39c0,0.553,0.448,1,1,1h40c0.553,0,1-0.447,1-1V10H4z M28.5,18h-7c-0.8,0-1.5-0.7-1.5-1.5s0.7-1.5,1.5-1.5h7c0.8,0,1.5,0.7,1.5,1.5S29.3,18,28.5,18z"/></g></svg>