<?xml version="1.0" encoding="utf-8"?><!-- Generator: Adobe Illustrator 19.1.1, SVG Export Plug-In . SVG Version: 6.00 Build 0)  --><svg xmlns="http://www.w3.org/2000/svg" xmlns:xlink="http://www.w3.org/1999/xlink" viewBox="0 0 50 50" width="50px" height="50px"><rect x="3" y="7" fill="none" stroke="#000000" stroke-width="2" stroke-linecap="round" stroke-linejoin="round" stroke-miterlimit="10" width="44" height="24"/><path fill="none" stroke="#000000" stroke-width="2" stroke-linecap="round" stroke-linejoin="round" stroke-miterlimit="10" d="M3,34c29.1,0,41,6,41,6v-6"/><path fill="none" stroke="#000000" stroke-width="2" stroke-linecap="round" stroke-linejoin="round" stroke-miterlimit="10" d="M3,37c26.9,0,38,10,38,10v-5"/><path d="M10,7v24h30V7H10z M31,24c-0.6,0-1-0.4-1-1s0.4-1,1-1c1.1,0,2-0.9,2-2s-0.9-2-2-2h-1c-0.6,0-1-0.4-1-1c0-2.2-1.8-4-4-4c-2.2,0-4,1.8-4,4c0,0.6-0.4,1-1,1h-1c-1.1,0-2,0.9-2,2s0.9,2,2,2c0.6,0,1,0.4,1,1s-0.4,1-1,1c-2.2,0-4-1.8-4-4s1.8-4,4-4h0.1c0.5-2.8,2.9-5,5.9-5s5.4,2.2,5.9,5H31c2.2,0,4,1.8,4,4S33.2,24,31,24z"/><path d="M38,33H4v1c12.9,0,29.8,3,34,3.8V33z"/><path d="M4,36c0,0,22.2-0.3,32,4v4c0,0-14.6-6.8-32-7V36z"/></svg>