<?xml version="1.0" encoding="iso-8859-1"?><!-- Generator: Adobe Illustrator 19.2.1, SVG Export Plug-In . SVG Version: 6.00 Build 0)  --><svg xmlns="http://www.w3.org/2000/svg" xmlns:xlink="http://www.w3.org/1999/xlink" viewBox="0 0 50 50" width="50px" height="50px"><path d="M47.924,24.617C47.77,24.243,47.404,24,47,24h-8V3c0-0.553-0.447-1-1-1H12c-0.553,0-1,0.447-1,1v21H3c-0.404,0-0.77,0.243-0.924,0.617c-0.155,0.374-0.069,0.804,0.217,1.09l22,22C24.488,47.902,24.744,48,25,48s0.512-0.098,0.707-0.293l22-22C47.993,25.421,48.079,24.991,47.924,24.617z M26,31.1V33h-2v-1.934c-1.714-0.252-4.684-1.238-5.021-5.565h2.04c-0.003,1.343,0.856,3.72,3.981,3.72c3.094,0,3.819-1.439,3.819-3.072c0-4.852-9.336-1.508-9.336-7.92c0-3.445,2.868-4.814,4.517-5.011V11h2v2.271c2.889,0.486,3.848,2.475,4.451,4.694h-2.04c-0.32-1.584-1.349-2.856-3.411-2.856c-2.984,0-3.357,1.992-3.357,2.904c0,2.044,1.917,2.58,4.047,3.081c2.591,0.609,5.289,1.531,5.289,4.839C30.979,29.869,27.483,30.957,26,31.1z"/></svg>