<?xml version="1.0" encoding="utf-8"?><!-- Generator: Adobe Illustrator 15.0.0, SVG Export Plug-In . SVG Version: 6.00 Build 0)  --><!DOCTYPE svg PUBLIC "-//W3C//DTD SVG 1.1//EN" "http://www.w3.org/Graphics/SVG/1.1/DTD/svg11.dtd"><svg xmlns="http://www.w3.org/2000/svg" xmlns:xlink="http://www.w3.org/1999/xlink" viewBox="0 0 50 50" width="50px" height="50px"><path d="M47.998,20.377L48,5.5C48,3.57,46.43,2,44.5,2L29.624,2.002L28.995,2c-1.294,0-2.529,0.074-3.419,0.963L2.848,25.689C2.301,26.234,2,26.962,2,27.734c0,0.771,0.301,1.498,0.847,2.045l17.374,17.373c0.546,0.546,1.272,0.847,2.044,0.847s1.499-0.301,2.044-0.847l22.727-22.729c0.976-0.972,0.969-2.372,0.963-3.725L47.998,20.377z M31.996,24.975c-0.012-1.524-0.417-2.687-1.217-3.486c-0.822-0.822-1.854-1.15-3.092-0.986c-0.986,0.131-2.027,0.559-3.124,1.283l4.652,4.651l-1.446,0.56l-4.324-4.324c-0.099,0.077-0.191,0.16-0.278,0.248c-0.088,0.088-0.17,0.17-0.247,0.246c-0.065,0.066-0.126,0.126-0.181,0.182c-0.055,0.055-0.105,0.113-0.148,0.18l4.094,4.094l-1.43,0.576l-3.585-3.585c-1.995,2.719-2.132,4.938-0.411,6.659c0.525,0.524,1.096,0.889,1.71,1.084c0.45,0.145,1.118,0.229,2.006,0.264l-1.727,1.727c-1.205-0.263-2.285-0.871-3.239-1.824c-2.685-2.686-2.663-5.854,0.066-9.503l-1.266-1.266l1.446-0.56l0.757,0.757c0.043-0.066,0.093-0.126,0.147-0.181c0.054-0.055,0.11-0.11,0.165-0.165c0.098-0.098,0.191-0.191,0.279-0.279c0.088-0.088,0.175-0.164,0.264-0.23l-1.201-1.199l1.431-0.576l0.888,0.888c1.611-1.085,3.172-1.649,4.686-1.693c1.711-0.065,3.212,0.548,4.506,1.841c0.997,0.998,1.645,2.335,1.939,4.013L31.996,24.975z M39,14c-1.656,0-3-1.343-3-3s1.344-3,3-3s3,1.343,3,3S40.656,14,39,14z"/></svg>