<?xml version="1.0" encoding="iso-8859-1"?>
<!-- Generator: Adobe Illustrator 23.0.3, SVG Export Plug-In . SVG Version: 6.00 Build 0)  -->
<svg version="1.1" id="Layer_1" xmlns="http://www.w3.org/2000/svg" xmlns:xlink="http://www.w3.org/1999/xlink" x="0px" y="0px"
	 viewBox="0 0 50 50" style="enable-background:new 0 0 50 50;" xml:space="preserve">
<g>
	<g>
		<path style="fill:none;stroke:#000000;stroke-width:2;stroke-linecap:round;stroke-miterlimit:10;" d="M25,40h17
			c2.209,0,4-1.791,4-4V23c0-2.209-1.791-4-4-4H25"/>
	</g>
</g>
<path d="M26.002,13c-0.001,0-0.001,0-0.002,0H6c-1.654,0-3,1.346-3,3v30c0,0.347,0.18,0.668,0.475,0.851
	c0.294,0.183,0.662,0.197,0.973,0.044L6,46.118l1.553,0.776c0.281,0.141,0.613,0.141,0.895,0L10,46.118l1.553,0.776
	c0.281,0.141,0.613,0.141,0.895,0L14,46.118l1.553,0.776c0.281,0.141,0.613,0.141,0.895,0L18,46.118l1.553,0.776
	c0.281,0.141,0.613,0.141,0.895,0L22,46.118l1.553,0.776C23.694,46.965,23.847,47,24,47c0.183,0,0.365-0.05,0.525-0.149
	C24.82,46.668,25,46.347,25,46V16c0-0.552,0.448-1,1-1s1,0.448,1,1v2c0,0.553,0.447,1,1,1s1-0.447,1-1v-2
	C29,14.347,27.655,13.001,26.002,13z M11,36H8c-0.553,0-1-0.447-1-1s0.447-1,1-1h3c0.553,0,1,0.447,1,1S11.553,36,11,36z M13,32H8
	c-0.553,0-1-0.447-1-1s0.447-1,1-1h5c0.553,0,1,0.447,1,1S13.553,32,13,32z M7,27c0-0.553,0.447-1,1-1h2c0.553,0,1,0.447,1,1
	s-0.447,1-1,1H8C7.447,28,7,27.553,7,27z M13,24H8c-0.553,0-1-0.447-1-1s0.447-1,1-1h5c0.553,0,1,0.447,1,1S13.553,24,13,24z M20,36
	h-2c-0.553,0-1-0.447-1-1s0.447-1,1-1h2c0.553,0,1,0.447,1,1S20.553,36,20,36z M20,32h-2c-0.553,0-1-0.447-1-1s0.447-1,1-1h2
	c0.553,0,1,0.447,1,1S20.553,32,20,32z M20,28h-2c-0.553,0-1-0.447-1-1s0.447-1,1-1h2c0.553,0,1,0.447,1,1S20.553,28,20,28z M20,24
	h-2c-0.553,0-1-0.447-1-1s0.447-1,1-1h2c0.553,0,1,0.447,1,1S20.553,24,20,24z"/>
<g>
	<path d="M40.525,3.149c-0.295-0.184-0.663-0.199-0.973-0.044L38,3.882l-1.553-0.776c-0.281-0.141-0.613-0.141-0.895,0L34,3.882
		l-1.553-0.776c-0.281-0.141-0.613-0.141-0.895,0L30,3.882l-1.553-0.776c-0.281-0.141-0.613-0.141-0.895,0L26,3.882l-1.553-0.776
		c-0.281-0.141-0.613-0.141-0.895,0L22,3.882l-1.553-0.776c-0.311-0.154-0.678-0.14-0.973,0.044C19.18,3.332,19,3.653,19,4v7h7.003
		C28.759,11.002,31,13.244,31,16v2c0,0.771-0.301,1.468-0.78,2H40c0.553,0,1-0.447,1-1V4C41,3.653,40.82,3.332,40.525,3.149z M29,9
		h-5c-0.553,0-1-0.447-1-1s0.447-1,1-1h5c0.553,0,1,0.447,1,1S29.553,9,29,9z M36,13h-2c-0.553,0-1-0.447-1-1s0.447-1,1-1h2
		c0.553,0,1,0.447,1,1S36.553,13,36,13z M36,9h-2c-0.553,0-1-0.447-1-1s0.447-1,1-1h2c0.553,0,1,0.447,1,1S36.553,9,36,9z"/>
</g>
<rect x="24" y="24" width="22" height="4"/>
</svg>