<?xml version="1.0" encoding="utf-8"?><!-- Generator: Adobe Illustrator 18.1.1, SVG Export Plug-In . SVG Version: 6.00 Build 0)  --><svg xmlns="http://www.w3.org/2000/svg" xmlns:xlink="http://www.w3.org/1999/xlink" viewBox="0 0 50 50" width="50px" height="50px"><path d="M0,39.5v7c0,2,1.5,3.5,3.5,3.5h43c2,0,3.5-1.5,3.5-3.5v-7H0z M25,46c-1.1,0-2-0.9-2-2s0.9-2,2-2s2,0.9,2,2S26.1,46,25,46z"/><path d="M42,10H28c-0.6,0-1-0.4-1-1V1c0-0.6,0.4-1,1-1h14c0.6,0,1,0.4,1,1v8C43,9.6,42.6,10,42,10z"/><path d="M46.3,14.3c-0.5-2.9-2.4-3.3-3.5-3.3H23v11c0,1.1-0.9,2-2,2h-9c-1.1,0-2-0.9-2-2V11H7.2c-1.1,0-2.9,0.4-3.5,3.4L0,38.5h50L46.3,14.3z M31,34.1c0,0.5-0.4,0.9-0.9,0.9H28c-0.5,0-0.9-0.4-0.9-0.9V32c0-0.5,0.4-0.9,0.9-0.9h2.1c0.5,0,0.9,0.4,0.9,0.9V34.1z M31,28.1c0,0.5-0.4,0.9-0.9,0.9H28c-0.5,0-0.9-0.4-0.9-0.9V26c0-0.5,0.4-0.9,0.9-0.9h2.1c0.5,0,0.9,0.4,0.9,0.9V28.1z M37,34.1c0,0.5-0.4,0.9-0.9,0.9H34c-0.5,0-0.9-0.4-0.9-0.9V32c0-0.5,0.4-0.9,0.9-0.9h2.1c0.5,0,0.9,0.4,0.9,0.9V34.1z M37,28.1c0,0.5-0.4,0.9-0.9,0.9H34c-0.5,0-0.9-0.4-0.9-0.9V26c0-0.5,0.4-0.9,0.9-0.9h2.1c0.5,0,0.9,0.4,0.9,0.9V28.1z M43,34.1c0,0.5-0.4,0.9-0.9,0.9H40c-0.5,0-0.9-0.4-0.9-0.9V32c0-0.5,0.4-0.9,0.9-0.9h2.1c0.5,0,0.9,0.4,0.9,0.9V34.1z M43,28.1c0,0.5-0.4,0.9-0.9,0.9H40c-0.5,0-0.9-0.4-0.9-0.9V26c0-0.5,0.4-0.9,0.9-0.9h2.1c0.5,0,0.9,0.4,0.9,0.9V28.1z M42.7,22.2c-0.4,0.5-0.9,0.8-1.6,0.8H29.2C28,23,27,22,27,20.8v-3.7c0-1.2,0.9-2.1,2.1-2.1h11.2c1.1,0,2.2,0.9,2.2,2l0.5,3.6C43.1,21.2,43,21.8,42.7,22.2z"/><path d="M32,13c-0.6,0-1-0.4-1-1V9c0-0.6,0.4-1,1-1h6c0.6,0,1,0.4,1,1v3c0,0.6-0.4,1-1,1H32z"/><polygon fill="none" stroke="#000000" stroke-width="2" stroke-linecap="round" stroke-linejoin="round" stroke-miterlimit="10" points="10,6 18.2,6 23,6 23,24 10,24 "/><line fill="none" stroke="#000000" stroke-width="2" stroke-linejoin="round" stroke-miterlimit="10" x1="13" y1="11" x2="20" y2="11"/><line fill="none" stroke="#000000" stroke-width="2" stroke-linejoin="round" stroke-miterlimit="10" x1="13" y1="15" x2="20" y2="15"/><line fill="none" stroke="#000000" stroke-width="2" stroke-linejoin="round" stroke-miterlimit="10" x1="13" y1="19" x2="20" y2="19"/></svg>