<?xml version="1.0" encoding="iso-8859-1"?><!-- Generator: Adobe Illustrator 21.1.0, SVG Export Plug-In . SVG Version: 6.00 Build 0)  --><svg xmlns="http://www.w3.org/2000/svg" xmlns:xlink="http://www.w3.org/1999/xlink" viewBox="0 0 50 50" width="50px" height="50px"><g><path d="M47.752,25.95l-2.363-3.729l1.404-4.19c0.352-1.063-0.096-2.238-1.064-2.796l-3.826-2.206l-0.704-4.362c-0.183-1.103-1.126-1.937-2.243-1.982L34.544,6.51l-2.648-3.533c-0.676-0.901-1.902-1.202-2.909-0.716L25,4.158l-3.986-1.896c-1.009-0.481-2.232-0.182-2.91,0.716L15.456,6.51l-4.413,0.174c-1.119,0.045-2.061,0.881-2.24,1.987L8.1,13.029l-3.826,2.207c-0.97,0.559-1.417,1.736-1.063,2.8l1.404,4.186L2.251,25.95c-0.602,0.948-0.449,2.199,0.361,2.974l3.187,3.055L5.44,36.381c-0.09,1.115,0.624,2.151,1.701,2.465l4.241,1.222l1.726,4.066c0.446,1.042,1.566,1.625,2.65,1.391l4.33-0.887l3.416,2.796c0.421,0.344,0.953,0.533,1.498,0.533s1.076-0.189,1.499-0.534l3.416-2.795l4.321,0.885c1.099,0.234,2.215-0.351,2.66-1.392l1.725-4.063l4.242-1.223c1.076-0.313,1.791-1.35,1.7-2.465l-0.359-4.401l3.187-3.055C48.199,28.149,48.352,26.899,47.752,25.95z M17,28.3h-3.4v1.6h3v1.2h-3V34H12v-7h5V28.3z M22.7,34c-0.1-0.2-0.1-0.5-0.2-0.8c-0.1-1.1-0.1-2-1.3-2h-1.5V34h-1.5v-7h3.7c0.7,0,2.1,0.4,2.1,1.9c0,1.2-0.7,1.6-1.1,1.8c0.2,0.1,1,0.3,1,2c0,0.2,0,0.9,0.3,1.3H22.7z M24.1,24H24v-9h-3v-2c2,0,3-1,3-2h2v13H24.1z M30.9,34h-5.3v-7h5.2v1.3h-3.7v1.5h3.4V31h-3.4v1.7h3.8V34z M38,34h-5.3v-7h5.2v1.3h-3.7v1.5h3.4V31h-3.4v1.7H38V34z"/><path d="M21.4,28.2h-1.7v2h1.7c0.4,0,1.1-0.1,1.1-1C22.5,28.3,21.8,28.2,21.4,28.2z"/></g></svg>