<?xml version="1.0" encoding="utf-8"?><!-- Generator: Adobe Illustrator 15.0.0, SVG Export Plug-In . SVG Version: 6.00 Build 0)  --><!DOCTYPE svg PUBLIC "-//W3C//DTD SVG 1.1//EN" "http://www.w3.org/Graphics/SVG/1.1/DTD/svg11.dtd"><svg xmlns="http://www.w3.org/2000/svg" xmlns:xlink="http://www.w3.org/1999/xlink" viewBox="0 0 50 50" width="50px" height="50px"><path d="M47.998,20.377L48,5.5C48,3.57,46.43,2,44.5,2L29.624,2.002L28.995,2c-1.294,0-2.529,0.074-3.419,0.963L2.848,25.69C2.301,26.235,2,26.962,2,27.734c0,0.772,0.301,1.499,0.847,2.045l17.374,17.373c0.546,0.546,1.272,0.847,2.044,0.847s1.499-0.301,2.044-0.847l22.727-22.728c0.975-0.972,0.969-2.372,0.963-3.725L47.998,20.377z M39,14c-1.656,0-3-1.343-3-3s1.344-3,3-3s3,1.343,3,3S40.656,14,39,14z"/></svg>