<?xml version="1.0" encoding="utf-8"?><!-- Generator: Adobe Illustrator 15.0.0, SVG Export Plug-In . SVG Version: 6.00 Build 0)  --><!DOCTYPE svg PUBLIC "-//W3C//DTD SVG 1.1//EN" "http://www.w3.org/Graphics/SVG/1.1/DTD/svg11.dtd"><svg xmlns="http://www.w3.org/2000/svg" xmlns:xlink="http://www.w3.org/1999/xlink" viewBox="0 0 50 50" width="50px" height="50px"><path d="M40,13H10c-3.717,0-6,3.495-6,6v21.384C4,43.48,6.52,46,9.616,46h30.768C43.48,46,46,43.48,46,40.384V18.846C46,15.787,43.141,13,40,13z M38.502,32C37.121,32,36,30.882,36,29.501S37.121,27,38.502,27C39.879,27,41,28.12,41,29.501S39.879,32,38.502,32z"/><path d="M10,11h28V7.658c0-1.618,0-4.631-3.27-4.631c-0.741,0-1.643,0.147-2.837,0.462c-3.009,0.793-20.636,5.68-20.899,5.757c-2.618,0.986-4.275,1.957-5.313,3.096C6.898,11.518,8.36,11,10,11z"/></svg>