<?xml version="1.0" encoding="iso-8859-1"?>
<!-- Generator: Adobe Illustrator 23.0.3, SVG Export Plug-In . SVG Version: 6.00 Build 0)  -->
<svg version="1.1" id="Layer_1" xmlns="http://www.w3.org/2000/svg" xmlns:xlink="http://www.w3.org/1999/xlink" x="0px" y="0px"
	 viewBox="0 0 50 50" style="enable-background:new 0 0 50 50;" xml:space="preserve">
<path style="fill-rule:evenodd;clip-rule:evenodd;" d="M5,32v5h40v-5H5z M42,36h-2v-2h2V36z"/>
<path style="fill:none;stroke:#000000;stroke-width:2;stroke-linecap:round;stroke-miterlimit:10;" d="M45,10H5c0,0-1,5.015-1,7.5
	S5.015,22,7.5,22c1.422,0,2.675-0.673,3.5-1.703C11.825,21.327,13.078,22,14.5,22s2.675-0.673,3.5-1.703
	C18.825,21.327,20.078,22,21.5,22s2.675-0.673,3.5-1.703C25.825,21.327,27.078,22,28.5,22s2.676-0.673,3.5-1.703
	C32.824,21.327,34.078,22,35.5,22s2.676-0.673,3.5-1.703C39.824,21.327,41.078,22,42.5,22c2.485,0,3.5-2.015,3.5-4.5S45,10,45,10z"
	/>
<line style="fill:none;stroke:#000000;stroke-width:2;stroke-linecap:round;stroke-miterlimit:10;" x1="39" y1="20" x2="39" y2="10"/>
<line style="fill:none;stroke:#000000;stroke-width:2;stroke-linecap:round;stroke-miterlimit:10;" x1="32" y1="20" x2="32" y2="10"/>
<line style="fill:none;stroke:#000000;stroke-width:2;stroke-linecap:round;stroke-miterlimit:10;" x1="25" y1="20" x2="25" y2="10"/>
<line style="fill:none;stroke:#000000;stroke-width:2;stroke-linecap:round;stroke-miterlimit:10;" x1="18" y1="20" x2="18" y2="10"/>
<line style="fill:none;stroke:#000000;stroke-width:2;stroke-linecap:round;stroke-miterlimit:10;" x1="11" y1="20" x2="11" y2="10"/>
<path d="M44,22l0.001,14H6V21l-2-3v18c0,1.103,0.897,2,2,2h38c1.103,0,2-0.897,2-2V18L44,22z"/>
<path d="M46,11H4V6c0-1.103,0.897-2,2-2h38c1.103,0,2,0.897,2,2V11z"/>
<path d="M38,46H14v-1c0-2,1-3,3-3h18c2,0,3,1,3,3V46z"/>
<g>
	<path d="M32,44H20v-4h12V44z"/>
</g>
</svg>