<?xml version="1.0" encoding="iso-8859-1"?>
<!-- Generator: Adobe Illustrator 18.0.0, SVG Export Plug-In . SVG Version: 6.00 Build 0)  -->
<!DOCTYPE svg PUBLIC "-//W3C//DTD SVG 1.1//EN" "http://www.w3.org/Graphics/SVG/1.1/DTD/svg11.dtd">
<svg version="1.1" id="Layer_1" xmlns="http://www.w3.org/2000/svg" xmlns:xlink="http://www.w3.org/1999/xlink" x="0px" y="0px"
	 width="50px" height="50px" viewBox="0 0 50 50" style="enable-background:new 0 0 50 50;" xml:space="preserve">
<path d="M44,29H6c-0.552,0-1,0.447-1,1v14c0,0.553,0.448,1,1,1h38c0.552,0,1-0.447,1-1V30C45,29.447,44.552,29,44,29z"/>
<path d="M46.532,14.149l-2.567-9.412C43.846,4.302,43.451,4,43,4H7C6.549,4,6.154,4.302,6.035,4.737l-2.567,9.412
	C3.157,14.736,3,15.358,3,16c0,2.206,1.794,4,4,4c1.193,0,2.267-0.525,3-1.357C10.733,19.475,11.807,20,13,20s2.267-0.525,3-1.357
	C16.733,19.475,17.807,20,19,20s2.267-0.525,3-1.357C22.733,19.475,23.807,20,25,20s2.267-0.525,3-1.357
	C28.733,19.475,29.807,20,31,20s2.267-0.525,3-1.357C34.733,19.475,35.807,20,37,20s2.267-0.525,3-1.357
	C40.733,19.475,41.807,20,43,20c2.206,0,4-1.794,4-4C47,15.358,46.843,14.736,46.532,14.149z"/>
<line style="fill:none;stroke:#000000;stroke-width:2;stroke-linejoin:round;stroke-miterlimit:10;" x1="8" y1="18" x2="8" y2="27"/>
<line style="fill:none;stroke:#000000;stroke-width:2;stroke-linejoin:round;stroke-miterlimit:10;" x1="42" y1="18" x2="42" y2="27"/>
</svg>