<?xml version="1.0" encoding="iso-8859-1"?><!-- Generator: Adobe Illustrator 21.1.0, SVG Export Plug-In . SVG Version: 6.00 Build 0)  --><svg xmlns="http://www.w3.org/2000/svg" xmlns:xlink="http://www.w3.org/1999/xlink" viewBox="0 0 50 50" width="50px" height="50px"><circle cx="25" cy="11" r="1"/><circle cx="25" cy="7" r="1"/><circle cx="25" cy="3" r="1"/><circle cx="25" cy="19" r="1"/><circle cx="25" cy="15" r="1"/><circle cx="25" cy="23" r="1"/><circle cx="25" cy="35" r="1"/><circle cx="25" cy="27" r="1"/><circle cx="25" cy="31" r="1"/><circle cx="25" cy="43" r="1"/><circle cx="25" cy="47" r="1"/><circle cx="25" cy="39" r="1"/><path d="M46,5v40c0,0.55-0.45,1-1,1H28V13h2c0.55,0,1.05-0.22,1.41-0.59C31.78,12.05,32,11.55,32,11c0-1.1-0.9-2-2-2h-2V4h17C45.55,4,46,4.45,46,5z"/><path d="M18.59,9.59C18.22,9.95,18,10.45,18,11c0,1.1,0.9,2,2,2h2v33H5c-0.55,0-1-0.45-1-1V5c0-0.55,0.45-1,1-1h17v5h-2C19.45,9,18.95,9.22,18.59,9.59z"/></svg>