<?xml version="1.0" encoding="iso-8859-1"?><!-- Generator: Adobe Illustrator 19.2.1, SVG Export Plug-In . SVG Version: 6.00 Build 0)  --><svg xmlns="http://www.w3.org/2000/svg" xmlns:xlink="http://www.w3.org/1999/xlink" viewBox="0 0 50 50" width="50px" height="50px"><path d="M47.924,24.617C47.77,24.243,47.404,24,47,24h-8V3c0-0.553-0.447-1-1-1H12c-0.553,0-1,0.447-1,1v21H3c-0.404,0-0.77,0.243-0.924,0.617c-0.155,0.374-0.069,0.804,0.217,1.09l22,22C24.488,47.902,24.744,48,25,48s0.512-0.098,0.707-0.293l22-22C47.993,25.421,48.079,24.991,47.924,24.617z M28.67,19.812l-0.648,1.464H21.71c-0.017,0.128-0.024,0.256-0.024,0.384s0,0.248,0,0.36c0,0.096,0,0.184,0,0.264s0.008,0.16,0.024,0.24h5.976l-0.624,1.464H21.83c0.527,3.44,2.048,5.16,4.56,5.16c0.769,0,1.448-0.152,2.04-0.456c0.432-0.224,0.984-0.648,1.656-1.272v2.521c-1.072,0.688-2.304,1.032-3.696,1.032c-3.92,0-6.216-2.328-6.888-6.984h-1.849l0.648-1.464h1.104c-0.017-0.08-0.024-0.16-0.024-0.24s0-0.159,0-0.24c0-0.144,0-0.279,0-0.407s0.008-0.248,0.024-0.36h-1.753l0.624-1.464h1.297c0.384-1.968,1.111-3.52,2.184-4.656c1.2-1.296,2.744-1.944,4.632-1.944c1.456,0,2.904,0.504,4.344,1.513l-1.104,1.991c-1.12-1.104-2.265-1.655-3.432-1.655c-1.2,0-2.192,0.512-2.977,1.536c-0.624,0.815-1.072,1.888-1.344,3.216H28.67z"/></svg>