<?xml version="1.0" encoding="utf-8"?><!-- Generator: Adobe Illustrator 15.0.0, SVG Export Plug-In . SVG Version: 6.00 Build 0)  --><!DOCTYPE svg PUBLIC "-//W3C//DTD SVG 1.1//EN" "http://www.w3.org/Graphics/SVG/1.1/DTD/svg11.dtd"><svg xmlns="http://www.w3.org/2000/svg" xmlns:xlink="http://www.w3.org/1999/xlink" viewBox="0 0 50 50" width="50px" height="50px"><path d="M2.769,27l5.059,17.544C8.072,45.388,8.986,46,10,46h30c1.014,0,1.928-0.612,2.173-1.457L47.231,27H2.769z M19.462,39.462c0,1.017-0.829,1.847-1.846,1.847c-1.017,0-1.846-0.83-1.846-1.847v-9.077c0-1.017,0.829-1.846,1.846-1.846c1.017,0,1.846,0.829,1.846,1.846V39.462z M26.846,39.462c0,1.017-0.828,1.847-1.846,1.847c-1.017,0-1.846-0.83-1.846-1.847v-9.077c0-1.017,0.829-1.846,1.846-1.846c1.018,0,1.846,0.829,1.846,1.846V39.462z M34.23,39.462c0,1.017-0.828,1.847-1.846,1.847c-1.017,0-1.846-0.83-1.846-1.847v-9.077c0-1.017,0.829-1.846,1.846-1.846c1.018,0,1.846,0.829,1.846,1.846V39.462z"/><path d="M17.172,21c0.467,0,0.936-0.179,1.293-0.536c0.714-0.716,0.714-1.871,0-2.587L5.123,4.537c-0.714-0.714-1.871-0.714-2.585,0s-0.714,1.871,0,2.585l13.34,13.342C16.236,20.821,16.703,21,17.172,21z"/><path d="M32.828,21c-0.467,0-0.936-0.179-1.293-0.536c-0.715-0.716-0.715-1.871,0-2.587l13.342-13.34c0.714-0.714,1.871-0.714,2.585,0s0.714,1.871,0,2.585l-13.34,13.342C33.764,20.821,33.297,21,32.828,21z"/><path d="M48,16h-6.587l-5.88,5.881C34.809,22.603,33.848,23,32.828,23c-1.021,0-1.982-0.398-2.708-1.123c-1.49-1.492-1.49-3.921,0.001-5.415L30.584,16H19.416l0.464,0.464c1.489,1.492,1.489,3.92-0.001,5.414C19.156,22.602,18.194,23,17.172,23c-1.021,0-1.982-0.398-2.708-1.122L8.586,16H2c-1.103,0-2,0.897-2,2v6c0,1.103,0.897,2,2,2h46c1.103,0,2-0.897,2-2v-6C50,16.897,49.103,16,48,16z"/></svg>