<?xml version="1.0" encoding="iso-8859-1"?>
<!-- Generator: Adobe Illustrator 23.0.3, SVG Export Plug-In . SVG Version: 6.00 Build 0)  -->
<svg version="1.1" id="Layer_1" xmlns="http://www.w3.org/2000/svg" xmlns:xlink="http://www.w3.org/1999/xlink" x="0px" y="0px"
	 viewBox="0 0 50 50" style="enable-background:new 0 0 50 50;" xml:space="preserve">
<path d="M47,33h-1V22.202c0.636-0.931,1-2.178,1-3.702c0-2.39-0.855-6.86-1-7.597V7c0-1.654-1.346-3-3-3H7C5.346,4,4,5.346,4,7
	v3.903C3.855,11.64,3,16.11,3,18.5c0,1.525,0.364,2.772,1,3.702V43c0,1.654,1.346,3,3,3h20v1c0,1.654,1.346,3,3,3h17
	c1.654,0,3-1.346,3-3V36C50,34.346,48.654,33,47,33z M40,12h4.172C44.448,13.497,45,16.721,45,18.5c0,1.597-0.434,3.5-2.5,3.5
	c-0.95,0-1.837-0.411-2.5-1.108V12z M33,12h5v8.892C37.337,21.589,36.45,22,35.5,22s-1.837-0.411-2.5-1.108V12z M14,7
	c0.552,0,1,0.448,1,1c0,0.552-0.448,1-1,1s-1-0.448-1-1C13,7.448,13.448,7,14,7z M8,7c0.552,0,1,0.448,1,1c0,0.552-0.448,1-1,1
	S7,8.552,7,8C7,7.448,7.448,7,8,7z M10,20.892C9.336,21.589,8.449,22,7.5,22C5.434,22,5,20.097,5,18.5
	c0-1.778,0.552-5.002,0.828-6.5H10V20.892z M11,9c-0.552,0-1-0.448-1-1c0-0.552,0.448-1,1-1s1,0.448,1,1C12,8.552,11.552,9,11,9z
	 M17,20.892C16.336,21.589,15.449,22,14.5,22s-1.836-0.411-2.5-1.108V12h5V20.892z M24,20.892C23.336,21.589,22.449,22,21.5,22
	s-1.836-0.411-2.5-1.108V12h5V20.892z M26,20.892V12h5v8.892C30.337,21.589,29.45,22,28.5,22C27.551,22,26.664,21.589,26,20.892z
	 M48,47c0,0.552-0.449,1-1,1H30c-0.551,0-1-0.448-1-1V36c0-0.552,0.449-1,1-1h17c0.551,0,1,0.448,1,1V47z"/>
<rect x="28" y="38" width="21" height="3"/>
</svg>