<?xml version="1.0" encoding="utf-8"?><!-- Generator: Adobe Illustrator 15.0.0, SVG Export Plug-In . SVG Version: 6.00 Build 0)  --><!DOCTYPE svg PUBLIC "-//W3C//DTD SVG 1.1//EN" "http://www.w3.org/Graphics/SVG/1.1/DTD/svg11.dtd"><svg xmlns="http://www.w3.org/2000/svg" xmlns:xlink="http://www.w3.org/1999/xlink" viewBox="0 0 50 50" width="50px" height="50px"><path d="M18.396,42.957c-0.197,0-0.391-0.058-0.557-0.169c-0.22-0.147-0.373-0.377-0.424-0.637l-0.616-3.115c-0.107-0.542,0.245-1.068,0.787-1.176l5.844-1.156c0.259-0.051,0.53,0.002,0.751,0.15c0.22,0.147,0.373,0.377,0.424,0.637l0.616,3.115c0.107,0.542-0.245,1.068-0.787,1.176l-5.844,1.156C18.525,42.951,18.46,42.957,18.396,42.957z"/><path d="M42,0H8C6.346,0,5,1.346,5,3v47h40V3C45,1.346,43.654,0,42,0z M32,43H10v-8h22V43z M32,31H10V7h22V31z M41,32h-6v-1c0-1.657,1.343-3,3-3s3,1.343,3,3V32z M41,24h-6v-2h6V24z M41,20h-6v-2h6V20z M41,16h-6v-2h6V16z M41,12h-6v-2h6V12z"/><line fill="none" stroke="#000000" stroke-width="2" stroke-miterlimit="10" x1="12" y1="13" x2="30" y2="13"/><line fill="none" stroke="#000000" stroke-width="2" stroke-miterlimit="10" x1="12" y1="19" x2="30" y2="19"/><line fill="none" stroke="#000000" stroke-width="2" stroke-miterlimit="10" x1="12" y1="25" x2="30" y2="25"/><rect x="14" y="10" width="2" height="3"/><rect x="18" y="10" width="2" height="3"/><rect x="22" y="10" width="2" height="3"/><rect x="26" y="10" width="2" height="3"/><rect x="14" y="16" width="2" height="3"/><rect x="18" y="16" width="2" height="3"/><rect x="22" y="16" width="2" height="3"/><rect x="26" y="16" width="2" height="3"/><rect x="14" y="22" width="2" height="3"/><rect x="18" y="22" width="2" height="3"/><rect x="22" y="22" width="2" height="3"/><rect x="26" y="22" width="2" height="3"/></svg>