<?xml version="1.0" encoding="iso-8859-1"?>
<!-- Generator: Adobe Illustrator 24.1.2, SVG Export Plug-In . SVG Version: 6.00 Build 0)  -->
<svg version="1.1" id="Layer_1" xmlns="http://www.w3.org/2000/svg" xmlns:xlink="http://www.w3.org/1999/xlink" x="0px" y="0px"
	 viewBox="0 0 50 50" style="enable-background:new 0 0 50 50;" xml:space="preserve">
<path d="M20.03,29.69c-0.44,0.44-1.13,0.29-1.83-0.41c-0.69-0.7-0.85-1.38-0.41-1.82c0.45-0.45,1.12-0.29,1.82,0.41
	S20.46,29.25,20.03,29.69z"/>
<path d="M32.13,29.19c-0.43,0.44-1.12,0.28-1.82-0.42c-0.7-0.7-0.84-1.37-0.41-1.81c0.45-0.45,1.11-0.3,1.82,0.41
	C32.41,28.06,32.58,28.75,32.13,29.19z"/>
<path d="M21.081,8.823h-3.497l-1.791-2.311c-0.4-0.517-1.18-0.517-1.581,0l-1.791,2.311H8.925c-0.552,0-1,0.448-1,1v3.497
	L5.614,15.11c-0.517,0.4-0.517,1.18,0,1.581l2.311,1.791v3.497c0,0.552,0.448,1,1,1h3.363l3.896-3.896
	c-0.368,0.137-0.766,0.211-1.181,0.211c-1.874,0-3.393-1.519-3.393-3.393c0-1.874,1.519-3.393,3.393-3.393
	c1.874,0,3.393,1.519,3.393,3.393c0,0.415-0.075,0.813-0.211,1.181l3.896-3.896V9.823C22.081,9.27,21.633,8.823,21.081,8.823z"/>
<path d="M41.71,8.07H27.15c-0.88,0-1.71,0.34-2.33,0.96L7.53,26.32c-0.62,0.62-0.96,1.45-0.96,2.33s0.34,1.7,0.96,2.33l14.56,14.56
	c0.64,0.64,1.49,0.96,2.33,0.96c0.84,0,1.68-0.32,2.33-0.96l17.29-17.29C44.66,27.63,45,26.8,45,25.92V11.36
	C45,9.54,43.52,8.07,41.71,8.07z M21.46,31.12c-1.43,1.43-3.4,1.36-4.93-0.16c-1.51-1.52-1.58-3.47-0.15-4.91
	c1.44-1.43,3.39-1.38,4.92,0.15C22.82,27.72,22.89,29.69,21.46,31.12z M25.33,38.44h-0.04c-0.53,0-0.98-0.42-1-0.96l-0.72-18.12
	c-0.03-0.55,0.4-1.02,0.95-1.04c0.53-0.05,1.02,0.41,1.04,0.96l0.73,18.12C26.31,37.95,25.88,38.42,25.33,38.44z M33.56,30.62
	c-1.43,1.42-3.39,1.36-4.91-0.16c-1.53-1.53-1.59-3.49-0.17-4.92c1.44-1.43,3.4-1.36,4.92,0.16C34.93,27.23,35,29.18,33.56,30.62z
	 M38.69,19.2c-1.17,1.17-3.07,1.17-4.24,0c-1.18-1.17-1.18-3.07,0-4.25c1.17-1.17,3.07-1.17,4.24,0
	C39.86,16.13,39.86,18.03,38.69,19.2z"/>
</svg>