<?xml version="1.0" encoding="iso-8859-1"?><!-- Generator: Adobe Illustrator 19.1.1, SVG Export Plug-In . SVG Version: 6.00 Build 0)  --><svg xmlns="http://www.w3.org/2000/svg" xmlns:xlink="http://www.w3.org/1999/xlink" viewBox="0 0 50 50" width="50px" height="50px"><path d="M48,24.284l-0.001-1.277c0-2.551,0.001-9.265,0.001-11.273v-0.575C48,9.417,46.583,8,44.841,8L31.994,8.002l-0.273-0.001C30.52,8,29.281,7.991,28.402,8.872L8.773,28.501C8.275,28.998,8,29.658,8,30.362c0,0.703,0.274,1.365,0.771,1.862l15.004,15.005c0.497,0.497,1.158,0.771,1.862,0.771s1.365-0.274,1.862-0.771L47.129,27.6C48.01,26.719,48.005,25.481,48,24.284z M41.413,17.413c-0.781,0.781-2.047,0.781-2.828,0c-0.781-0.781-0.781-2.047,0-2.828c0.781-0.781,2.047-0.781,2.828,0C42.194,15.366,42.194,16.632,41.413,17.413z"/><path d="M7.358,27.086L26.986,7.458C28.441,6,30.384,6,31.544,6l0.183,0l0.266,0.001L42,5.999v-0.84C42,3.417,40.583,2,38.841,2L25.994,2.002l-0.273-0.001c-1.196,0.002-2.439-0.01-3.319,0.871L2.772,22.501C2.274,22.999,2,23.66,2,24.363c0,0.703,0.274,1.364,0.771,1.862l3.309,3.308C6.247,28.611,6.681,27.761,7.358,27.086z"/></svg>