<?xml version="1.0" encoding="iso-8859-1"?><!-- Generator: Adobe Illustrator 22.1.0, SVG Export Plug-In . SVG Version: 6.00 Build 0)  --><svg xmlns="http://www.w3.org/2000/svg" xmlns:xlink="http://www.w3.org/1999/xlink" viewBox="0 0 50 50" width="50px" height="50px"><path style="fill:none;stroke:#000000;stroke-width:2;stroke-linecap:round;stroke-linejoin:round;stroke-miterlimit:10;" d="M35,6c2.225,0,6.528,0.405,7,6c2.111,0,8.359,0.825,5,9"/><path style="fill:none;stroke:#000000;stroke-width:2;stroke-linecap:round;stroke-linejoin:round;stroke-miterlimit:10;" d="M29,5c-1,1-6.058,9.59,5,11c5.146,0.656,7.281,1.738,8,5"/><g><path d="M6,25v1v6v1c0,0.553,0.447,1,1,1h3V24H7C6.447,24,6,24.448,6,25z"/><path d="M0,27v4c0,0.553,0.447,1,1,1h3v-6H1C0.447,26,0,26.448,0,27z"/><rect x="12" y="30" width="8" height="4"/><path d="M49,24H22v10h27c0.553,0,1-0.447,1-1v-8C50,24.448,49.553,24,49,24z M27,31c-1.105,0-2-0.895-2-2s0.895-2,2-2s2,0.895,2,2S28.105,31,27,31z"/><rect x="12" y="24" width="8" height="4"/></g></svg>