<?xml version="1.0" encoding="utf-8"?><!-- Generator: Adobe Illustrator 15.0.0, SVG Export Plug-In . SVG Version: 6.00 Build 0)  --><!DOCTYPE svg PUBLIC "-//W3C//DTD SVG 1.1//EN" "http://www.w3.org/Graphics/SVG/1.1/DTD/svg11.dtd"><svg xmlns="http://www.w3.org/2000/svg" xmlns:xlink="http://www.w3.org/1999/xlink" viewBox="0 0 50 50" width="50px" height="50px"><path d="M18,7C8.075,7,0,15.075,0,25s8.075,18,18,18c9.926,0,18-8.075,18-18S27.926,7,18,7z M19,33.5h-2V21.3h-4.4v-1.6c0.6,0,1.1,0,1.7-0.1c0.5-0.1,1-0.3,1.5-0.5c0.4-0.2,0.8-0.6,1.1-1c0.3-0.4,0.5-0.9,0.6-1.6H19V33.5z"/><path d="M26.859,7.096C33.449,10.371,38,17.156,38,25c0,7.846-4.551,14.629-11.141,17.902C35.914,41.971,43,34.297,43,25S35.914,8.03,26.859,7.096z"/><path d="M33.83,7.097c6.59,3.275,11.141,10.06,11.141,17.904c0,7.846-4.551,14.629-11.141,17.902c9.055-0.932,16.141-8.605,16.141-17.902S42.885,8.031,33.83,7.097z"/></svg>