<svg xmlns="http://www.w3.org/2000/svg"  viewBox="0 0 50 50" width="50px" height="50px"><path d="M 47.996094 20.378906 L 48 5.5 C 48 3.570313 46.429688 2 44.5 2 L 29.625 2.003906 L 28.996094 2 C 27.699219 2 26.464844 2.074219 25.574219 2.964844 L 2.847656 25.6875 C 2.300781 26.234375 2 26.960938 2 27.734375 C 2 28.503906 2.300781 29.230469 2.847656 29.777344 L 20.222656 47.152344 C 20.765625 47.699219 21.492188 48 22.265625 48 C 23.035156 48 23.765625 47.699219 24.308594 47.152344 L 47.035156 24.421875 C 48.011719 23.449219 48.003906 22.050781 48 20.699219 Z M 31.898438 26.5 L 30.5 25.101563 C 31.398438 23.800781 31.601563 22.199219 30.101563 20.699219 C 28 18.601563 26.300781 19.800781 25.699219 20.398438 C 24.300781 21.800781 25.199219 23.5 26.402344 25.398438 C 27.800781 27.699219 29 30.300781 26.699219 32.601563 C 24 35.402344 20.699219 33.699219 19.402344 32.800781 L 18.101563 34.101563 L 16.699219 32.699219 L 18.101563 31.300781 C 17.101563 29.902344 15.699219 27.101563 18.5 23.800781 L 19.898438 25.199219 C 19 26.097656 17.898438 28.398438 20.101563 30.597656 C 22.300781 32.800781 23.800781 32.300781 25 31.097656 C 28.398438 27.699219 19.5 23.398438 24 18.898438 C 26.398438 16.5 29.398438 17.597656 30.699219 18.597656 L 32.300781 17 L 33.699219 18.398438 L 32.101563 20 C 33.800781 22.398438 33 24.5 31.898438 26.5 Z M 39 14 C 37.34375 14 36 12.65625 36 11 C 36 9.34375 37.34375 8 39 8 C 40.65625 8 42 9.34375 42 11 C 42 12.65625 40.65625 14 39 14 Z"/></svg>