<?xml version="1.0" encoding="iso-8859-1"?>
<!-- Generator: Adobe Illustrator 23.0.3, SVG Export Plug-In . SVG Version: 6.00 Build 0)  -->
<svg version="1.1" id="Layer_1" xmlns="http://www.w3.org/2000/svg" xmlns:xlink="http://www.w3.org/1999/xlink" x="0px" y="0px"
	 viewBox="0 0 50 50" style="enable-background:new 0 0 50 50;" xml:space="preserve">
<g>
	<path d="M29.811,17H32v-2h1c0.553,0,1-0.447,1-1s-0.447-1-1-1h-2h-2.879l1.636,3.818C29.782,16.877,29.79,16.94,29.811,17z"/>
	<path d="M25.698,12.425C25.067,10.952,23.624,10,22.021,10H17c-0.553,0-1,0.447-1,1v6h11.659L25.698,12.425z"/>
	<path d="M20,8c1.654,0,3-1.346,3-3c0-0.989-0.965-5-3-5s-3,4.011-3,5C17,6.654,18.346,8,20,8z"/>
	<rect x="16" y="19" width="18" height="3"/>
	<path d="M16,49c0,0.553,0.447,1,1,1h16c0.553,0,1-0.447,1-1V24H16V49z"/>
</g>
</svg>