<?xml version="1.0" encoding="utf-8"?><!-- Generator: Adobe Illustrator 15.0.0, SVG Export Plug-In . SVG Version: 6.00 Build 0)  --><!DOCTYPE svg PUBLIC "-//W3C//DTD SVG 1.1//EN" "http://www.w3.org/Graphics/SVG/1.1/DTD/svg11.dtd"><svg xmlns="http://www.w3.org/2000/svg" xmlns:xlink="http://www.w3.org/1999/xlink" viewBox="0 0 50 50" width="50px" height="50px"><path fill="none" stroke="#000000" stroke-width="2" stroke-linecap="round" stroke-linejoin="round" stroke-miterlimit="10" d="M25,13c0,0-3.582,0-8,0s-9-2.581-9-7c0-1.828,0.878-4,4.319-4C19.236,2,19.363,13,25,13z"/><path fill="none" stroke="#000000" stroke-width="2" stroke-linecap="round" stroke-linejoin="round" stroke-miterlimit="10" d="M25,13c0,0,3.582,0,8,0s9-2.581,9-7c0-1.828-0.878-4-4.318-4C30.764,2,30.637,13,25,13z"/><polygon points="1,13 1,24 20,24 20,14 30,14 30,24 49,24 49,13 "/><polygon points="30,26 30,47 20,47 20,26 3,26 3,49 47,49 47,26 "/></svg>