<?xml version="1.0" encoding="utf-8"?><!-- Generator: Adobe Illustrator 15.0.0, SVG Export Plug-In . SVG Version: 6.00 Build 0)  --><!DOCTYPE svg PUBLIC "-//W3C//DTD SVG 1.1//EN" "http://www.w3.org/Graphics/SVG/1.1/DTD/svg11.dtd"><svg xmlns="http://www.w3.org/2000/svg" xmlns:xlink="http://www.w3.org/1999/xlink" viewBox="0 0 50 50" width="50px" height="50px"><path d="M46,8H29h-3h-2h-2H4C3.448,8,3,8.448,3,9v8c0,0.552,0.448,1,1,1h20v-8h2v8h20c0.553,0,1-0.448,1-1V9C47,8.448,46.553,8,46,8z"/><path d="M26,20v22h-2V20H5v23c0,0.553,0.448,1,1,1h17h1h2h1h17c0.553,0,1-0.447,1-1V20H26z"/><polyline fill="none" stroke="#000000" stroke-width="2" stroke-linejoin="round" stroke-miterlimit="10" points="17,5 25,9 33,5 "/><polyline fill="none" stroke="#000000" stroke-width="2" stroke-linejoin="round" stroke-miterlimit="10" points="21.5,1 25,9 28.5,1 "/></svg>