<?xml version="1.0" encoding="utf-8"?><!-- Generator: Adobe Illustrator 15.0.0, SVG Export Plug-In . SVG Version: 6.00 Build 0)  --><!DOCTYPE svg PUBLIC "-//W3C//DTD SVG 1.1//EN" "http://www.w3.org/Graphics/SVG/1.1/DTD/svg11.dtd"><svg xmlns="http://www.w3.org/2000/svg" xmlns:xlink="http://www.w3.org/1999/xlink" viewBox="0 0 50 50" width="50px" height="50px"><g><path d="M15.995,10.402C16.273,14.57,19.957,19,25,19c5.044,0,8.727-4.43,9.002-8.566l0.216-1.576c-0.623-0.443-1.156-1.016-1.523-1.705L31.118,4H18.903l-1.685,3.129c-0.361,0.677-0.829,1.229-1.382,1.655L15.995,10.402z"/><path d="M42.146,11.231L36.119,9.7l-0.129,0.936C35.662,15.605,31.163,21,25,21c-6.163,0-10.662-5.395-10.998-10.434l-0.088-0.9l-6.168,1.566c-2.416,0.636-3.989,2.811-3.744,5.132c1.004,15.462,8.71,28.594,9.038,29.146L13.331,46h23.255l0.286-0.511c0.323-0.575,7.921-14.265,9.027-29.137C46.021,14.022,44.452,11.871,42.146,11.231z M25,30.3l-3.6-5.5l3.6-3.6l3.6,3.6L25,30.3z"/></g></svg>