<?xml version="1.0" encoding="iso-8859-1"?>
<!-- Generator: Adobe Illustrator 24.1.2, SVG Export Plug-In . SVG Version: 6.00 Build 0)  -->
<svg version="1.1" id="Layer_1" xmlns="http://www.w3.org/2000/svg" xmlns:xlink="http://www.w3.org/1999/xlink" x="0px" y="0px"
	 viewBox="0 0 50 50" style="enable-background:new 0 0 50 50;" xml:space="preserve">
<path d="M44.5,2H29.31c-1.35,0-2.76-0.01-3.73,0.96L2.85,25.69C2.3,26.24,2,26.96,2,27.74c0,0.77,0.3,1.5,0.85,2.04l17.37,17.37
	C20.77,47.7,21.49,48,22.27,48c0.77,0,1.49-0.3,2.04-0.85l22.73-22.72C48.01,23.45,48,22.05,48,20.7V5.5C48,3.57,46.43,2,44.5,2z
	 M30.24,12.24l4.42,4.42l-1.21,1.21l-3.01-3.01l-1.75,1.76l2.74,2.74l-1.15,1.15l-2.75-2.74L24.9,20.4l-1.41-1.41L30.24,12.24z
	 M17.4,22.33c1.39-1.4,3.19-1.45,4.52-0.12c1.33,1.33,1.28,3.12-0.12,4.52c-1.4,1.4-3.19,1.45-4.52,0.12
	C15.96,25.52,16,23.73,17.4,22.33z M22.78,37.26c-1.41,1.4-3.2,1.45-4.52,0.13c-1.32-1.32-1.27-3.12,0.13-4.52
	c1.4-1.4,3.18-1.44,4.51-0.12C24.22,34.08,24.18,35.86,22.78,37.26z M26.82,30.16l-14,1c-0.02,0-0.05,0.01-0.07,0.01
	c-0.52,0-0.96-0.41-1-0.93c-0.04-0.55,0.38-1.03,0.93-1.07l14-1c0.56-0.05,1.03,0.37,1.07,0.92C27.79,29.64,27.37,30.12,26.82,30.16
	z M36.25,23.88c-0.06-0.15-0.35-0.53-0.55-0.73c-0.73-0.72-1.68-0.79-2.4-0.07l-2.86,2.86l-1.36-1.36l5.16-5.16l1.32,1.32
	l-0.82,0.82l0.08,0.08c0.65-0.37,1.57-0.24,2.21,0.41c0.19,0.18,0.39,0.43,0.46,0.59L36.25,23.88z M39,14c-1.66,0-3-1.34-3-3
	c0-1.66,1.34-3,3-3s3,1.34,3,3C42,12.66,40.66,14,39,14z"/>
<path d="M20.21,25.13c-0.61,0.61-1.21,0.74-1.58,0.37c-0.38-0.38-0.25-0.98,0.36-1.59c0.62-0.61,1.21-0.74,1.59-0.36
	S20.83,24.5,20.21,25.13z"/>
<ellipse transform="matrix(0.7071 -0.7071 0.7071 0.7071 -18.7655 24.8261)" cx="20.585" cy="35.065" rx="1.379" ry="0.856"/>
</svg>