<?xml version="1.0" encoding="iso-8859-1"?>
<!-- Generator: Adobe Illustrator 25.2.3, SVG Export Plug-In . SVG Version: 6.00 Build 0)  -->
<svg version="1.1" baseProfile="basic" id="Layer_2_1_"
	 xmlns="http://www.w3.org/2000/svg" xmlns:xlink="http://www.w3.org/1999/xlink" x="0px" y="0px" viewBox="0 0 50 50"
	 xml:space="preserve">
<path d="M23.27,17.68l-5.52,3.98C15.31,17.41,12.7,15,8,15H6.97C6.99,14.84,7,14.67,7,14.5v-4c0-0.17-0.01-0.34-0.03-0.5H8
	C14.88,10,19.6,13.63,23.27,17.68z"/>
<path d="M27.18,22.26l-6.63,4.78c-0.13-0.26-0.27-0.53-0.41-0.8c-0.4-0.78-1.02-1.99-1.42-2.77c-0.01-0.01-0.01-0.03-0.02-0.04
	l5.9-4.24c0.12,0.14,0.23,0.28,0.35,0.42c0.08,0.1,2.05,2.45,2.17,2.58C27.14,22.21,27.16,22.24,27.18,22.26z"/>
<path d="M50,29.32C50,36.31,46.02,40,38.5,40c-6.93,0-12.5-3.67-16.96-11.2l6.98-5.04c0.39,0.41,0.77,0.78,1.13,1.09
	c0.5,0.42,1.84,0.85,2.87,1.08l1.52-7.14c0.1-0.46,0.51-0.79,0.98-0.79H47c0.44,0,0.83,0.29,0.96,0.71
	C48.04,18.98,50,25.39,50,29.32z"/>
<path d="M2.5,8C1.121,8,0,9.121,0,10.5v4C0,15.879,1.121,17,2.5,17S5,15.879,5,14.5v-4C5,9.121,3.879,8,2.5,8z"/>
</svg>