<?xml version="1.0" encoding="iso-8859-1"?><!-- Generator: Adobe Illustrator 19.1.1, SVG Export Plug-In . SVG Version: 6.00 Build 0)  --><svg xmlns="http://www.w3.org/2000/svg" xmlns:xlink="http://www.w3.org/1999/xlink" viewBox="0 0 50 50" width="50px" height="50px"><g><path d="M30,28c-0.552,0-1,0.448-1,1v1c0,0.552,0.448,1,1,1s1-0.448,1-1v-1C31,28.448,30.552,28,30,28z"/><path d="M20,19c-0.551,0-1,0.449-1,1v1c0,0.551,0.449,1,1,1s1-0.449,1-1v-1C21,19.449,20.551,19,20,19z"/><path d="M43,9H7c-2.757,0-5,2.243-5,5v22c0,2.757,2.243,5,5,5h36c2.757,0,5-2.243,5-5V14C48,11.243,45.757,9,43,9z M17,21v-1c0-1.654,1.346-3,3-3s3,1.346,3,3v1c0,1.654-1.346,3-3,3S17,22.654,17,21z M20.999,34c-0.15,0-0.303-0.034-0.446-0.105c-0.494-0.247-0.694-0.848-0.447-1.342l8-16c0.248-0.494,0.847-0.694,1.342-0.447c0.494,0.247,0.694,0.848,0.447,1.342l-8,16C21.719,33.798,21.366,34,20.999,34z M33,30c0,1.654-1.346,3-3,3s-3-1.346-3-3v-1c0-1.654,1.346-3,3-3s3,1.346,3,3V30z"/></g></svg>