<?xml version="1.0" encoding="utf-8"?><!-- Generator: Adobe Illustrator 15.0.0, SVG Export Plug-In . SVG Version: 6.00 Build 0)  --><!DOCTYPE svg PUBLIC "-//W3C//DTD SVG 1.1//EN" "http://www.w3.org/Graphics/SVG/1.1/DTD/svg11.dtd"><svg xmlns="http://www.w3.org/2000/svg" xmlns:xlink="http://www.w3.org/1999/xlink" viewBox="0 0 50 50" width="50px" height="50px"><path d="M32.5,8.5c-0.232,0-0.466-0.081-0.655-0.244L25,2.323l-6.845,5.933c-0.417,0.361-1.05,0.316-1.411-0.101c-0.361-0.417-0.316-1.049,0.101-1.411l7.5-6.5c0.376-0.325,0.934-0.325,1.31,0l7.5,6.5c0.417,0.362,0.462,0.994,0.101,1.411C33.058,8.383,32.779,8.5,32.5,8.5z"/><path d="M49,25c0-1.743-0.652-3.245-1.228-4.57C47.375,19.515,47,18.65,47,18c0-0.603,0.317-1.403,0.685-2.331C48.271,14.189,49,12.346,49,10c0-2.757-2.243-5-5-5c-2.534,0-4.688,0.735-6.418,1.327C36.523,6.688,35.609,7,35,7c-0.633,0-1.777-0.334-2.988-0.687C30.006,5.728,27.511,5,25,5s-5.007,0.728-7.012,1.313C16.776,6.666,15.632,7,15,7c-0.609,0-1.523-0.312-2.581-0.673C10.688,5.735,8.534,5,6,5c-2.757,0-5,2.243-5,5c0,2.346,0.729,4.189,1.315,5.669C2.683,16.597,3,17.397,3,18c0,0.65-0.375,1.515-0.773,2.43C1.652,21.755,1,23.257,1,25c0,1.257,0.555,2.63,1.091,3.957C2.538,30.063,3,31.207,3,32c0,0.646-0.32,1.44-0.691,2.358C1.726,35.805,1,37.604,1,40c0,2.757,2.243,5,5,5c2.559,0,4.629-0.722,6.292-1.302C13.366,43.323,14.293,43,15,43c0.746,0,1.965,0.355,3.256,0.731C20.195,44.297,22.608,45,25,45c2.393,0,4.806-0.703,6.745-1.269C33.035,43.355,34.254,43,35,43c0.706,0,1.634,0.323,2.707,0.698C39.371,44.278,41.441,45,44,45c2.757,0,5-2.243,5-5c0-2.396-0.726-4.195-1.31-5.642C47.32,33.44,47,32.646,47,32c0-0.793,0.462-1.937,0.909-3.043C48.445,27.63,49,26.257,49,25z M42,36c0,1.1-0.9,2-2,2H10c-1.1,0-2-0.9-2-2V14c0-1.1,0.9-2,2-2h30c1.1,0,2,0.9,2,2V36z"/><path d="M32.397,25.455c-0.228-0.114-0.455-0.227-0.568-0.227c0-0.114,0-0.114,0-0.228s0-0.114,0-0.228c0.228-0.113,0.455-0.113,0.568-0.227c1.594-0.911,2.163-2.959,1.252-4.553c-0.91-1.593-2.959-2.162-4.553-1.252c-0.227,0.114-0.341,0.228-0.569,0.455c-0.113-0.114-0.227-0.114-0.341-0.227c0-0.228,0.114-0.456,0.114-0.683c0-1.821-1.48-3.3-3.301-3.3c-1.821,0-3.3,1.479-3.3,3.3c0,0.227,0,0.455,0.114,0.683c-0.114,0.113-0.228,0.113-0.342,0.227c-0.114-0.114-0.341-0.341-0.569-0.455c-1.593-0.91-3.642-0.341-4.553,1.252c-0.91,1.593-0.341,3.642,1.252,4.553c0.228,0.114,0.455,0.227,0.569,0.227c0,0.114,0,0.114,0,0.228s0,0.114,0,0.228c-0.228,0.113-0.456,0.113-0.569,0.227c-1.593,0.911-2.162,2.959-1.252,4.553c0.911,1.593,2.959,2.162,4.553,1.252c0.228-0.113,0.341-0.228,0.569-0.456c0.114,0.115,0.228,0.115,0.342,0.229c0,0.228-0.114,0.455-0.114,0.684c0,1.82,1.479,3.3,3.3,3.3c1.82,0,3.301-1.479,3.301-3.3c0-0.229,0-0.456-0.114-0.684c0.114-0.113,0.228-0.113,0.341-0.229c0.115,0.115,0.343,0.343,0.569,0.456c1.594,0.91,3.643,0.341,4.553-1.252C34.561,28.414,33.991,26.366,32.397,25.455z M25,28c-1.657,0-3-1.344-3-3c0-1.657,1.343-3,3-3c1.656,0,3,1.343,3,3C28,26.656,26.656,28,25,28z"/></svg>