<?xml version="1.0" encoding="iso-8859-1"?><!-- Generator: Adobe Illustrator 19.2.0, SVG Export Plug-In . SVG Version: 6.00 Build 0)  --><svg xmlns="http://www.w3.org/2000/svg" xmlns:xlink="http://www.w3.org/1999/xlink" viewBox="0 0 50 50" width="50px" height="50px"><g><g><g ></g><g ></g><g ></g><g ></g><g ></g><g ></g><g ></g></g></g><polyline style="fill:none;stroke:#000000;stroke-width:2;stroke-linecap:round;stroke-miterlimit:10;" points="41.793,36 37.998,30.94 42.998,27.19 "/><path style="fill:none;stroke:#000000;stroke-width:2;stroke-linecap:round;stroke-miterlimit:10;" d="M37.998,30.94c0.25,0,1.313,0.06,2,0.06c4.971,0,9,4.029,9,9s-4.029,9-9,9s-9-4.029-9-9c0-2.665,1.159-5.06,3-6.708"/><path d="M27.998,40c0-3.408,1.628-6.474,4.169-8.75c0.512-0.458,9.032-6.46,9.032-6.46c0.524-0.393,1.146-0.6,1.8-0.6h0c0.941,0,1.839,0.45,2.398,1.198c0.1,0.133,0.18,0.276,0.256,0.42l1.384-1.384c0.975-0.972,0.969-2.372,0.963-3.725l-0.001-0.322L48,5.5C48,3.57,46.43,2,44.5,2L29.624,2.002L28.995,2c-1.294,0-2.529,0.074-3.419,0.963L2.848,25.69C2.301,26.235,2,26.962,2,27.734c0,0.772,0.301,1.499,0.847,2.045l17.374,17.373c0.546,0.546,1.272,0.847,2.044,0.847c0.772,0,1.499-0.301,2.044-0.847l4.098-4.098C28.149,42.077,27.998,41.057,27.998,40z M39,8c1.656,0,3,1.343,3,3s-1.344,3-3,3s-3-1.343-3-3S37.344,8,39,8z"/></svg>