<?xml version="1.0" encoding="iso-8859-1"?><!-- Generator: Adobe Illustrator 22.1.0, SVG Export Plug-In . SVG Version: 6.00 Build 0)  --><svg xmlns="http://www.w3.org/2000/svg" xmlns:xlink="http://www.w3.org/1999/xlink" viewBox="0 0 50 50" width="50px" height="50px"><g id="Layer_1_1_"><path d="M30.5,22.003c-0.83,0-1.5,0.67-1.5,1.5c0,0.11,0,2.5,0,2.5c0,1.65-1.35,3-3,3s-3-1.35-3-3c0,0,0-2.39,0-2.5c0-0.83-0.67-1.5-1.5-1.5s-1.5,0.67-1.5,1.5c0,0.65,0.42,1.2,1,1.41v1.09c0,2.75,2.24,5,5,5s5-2.25,5-5v-1.09c0.58-0.21,1-0.76,1-1.41C32,22.673,31.33,22.003,30.5,22.003z M30.5,22.003c-0.83,0-1.5,0.67-1.5,1.5c0,0.11,0,2.5,0,2.5c0,1.65-1.35,3-3,3s-3-1.35-3-3c0,0,0-2.39,0-2.5c0-0.83-0.67-1.5-1.5-1.5s-1.5,0.67-1.5,1.5c0,0.65,0.42,1.2,1,1.41v1.09c0,2.75,2.24,5,5,5s5-2.25,5-5v-1.09c0.58-0.21,1-0.76,1-1.41C32,22.673,31.33,22.003,30.5,22.003z M14.6,4.003L4,14.603v31.4h42v-42C46,4.003,14.6,4.003,14.6,4.003z M15,6.403v8.6H6.4L15,6.403z M15,38l2-19h18l2,19H15z M30.5,22.003c-0.83,0-1.5,0.67-1.5,1.5c0,0.11,0,2.5,0,2.5c0,1.65-1.35,3-3,3s-3-1.35-3-3c0,0,0-2.39,0-2.5c0-0.83-0.67-1.5-1.5-1.5s-1.5,0.67-1.5,1.5c0,0.65,0.42,1.2,1,1.41v1.09c0,2.75,2.24,5,5,5s5-2.25,5-5v-1.09c0.58-0.21,1-0.76,1-1.41C32,22.673,31.33,22.003,30.5,22.003z"/></g><g id="Layer_2_1_"></g><g id="Layer_3"></g></svg>