<?xml version="1.0" encoding="iso-8859-1"?>
<!-- Generator: Adobe Illustrator 23.1.0, SVG Export Plug-In . SVG Version: 6.00 Build 0)  -->
<svg version="1.1" id="&#x421;&#x43B;&#x43E;&#x439;_1"
	 xmlns="http://www.w3.org/2000/svg" xmlns:xlink="http://www.w3.org/1999/xlink" x="0px" y="0px" viewBox="0 0 50 50"
	 style="enable-background:new 0 0 50 50;" xml:space="preserve">
<circle cx="25.5" cy="26.5" r="2.5"/>
<path d="M15.5,1c0.059,0.9,0.262,1.763,0.666,2.528c0.398,0.77,0.982,1.436,1.644,2.092c0.657,0.66,1.406,1.314,2.056,2.191
	C20.527,8.67,20.977,9.849,21,11l0.001,0.037c0.011,0.553-0.428,1.01-0.981,1.021c-0.553,0.011-1.01-0.428-1.021-0.981
	c-0.001-0.025,0-0.052,0.001-0.076c0.044-0.778-0.144-1.5-0.586-2.211c-0.432-0.714-1.074-1.401-1.71-2.154
	c-0.636-0.751-1.271-1.601-1.672-2.581C14.621,3.078,14.474,2.018,14.5,1c0.007-0.276,0.237-0.494,0.513-0.487
	c0.26,0.007,0.469,0.211,0.486,0.465L15.5,1z"/>
<path d="M11.121,5.515c0.921,0.192,1.812,0.57,2.604,1.067c0.796,0.494,1.497,1.088,2.168,1.637c0.671,0.55,1.323,1.056,2.001,1.375
	C18.572,9.913,19.27,10.037,20,10c0.552-0.028,1.022,0.398,1.05,0.95S20.652,11.972,20.1,12c-0.029,0.001-0.058,0.001-0.086,0H20
	c-1.024-0.039-2.076-0.344-2.939-0.867c-0.867-0.52-1.544-1.18-2.172-1.8c-0.628-0.624-1.218-1.224-1.87-1.72
	c-0.648-0.498-1.361-0.884-2.14-1.128L10.87,6.482c-0.264-0.083-0.411-0.363-0.328-0.627C10.619,5.608,10.873,5.464,11.121,5.515z"
	/>
<path d="M20.354,2.646c0.559,0.514,1.089,1.173,1.328,2.007c0.251,0.835,0.139,1.698-0.018,2.428C21.318,8.553,20.903,9.807,21,11
	c0.045,0.552-0.367,1.036-0.919,1.081S19.045,11.714,19,11.162c-0.003-0.042-0.004-0.083-0.002-0.125L19,11
	c0.082-1.665,0.785-3.081,1.216-4.31c0.212-0.621,0.346-1.204,0.248-1.753c-0.085-0.552-0.396-1.09-0.818-1.583L19.635,3.34
	c-0.18-0.21-0.155-0.526,0.055-0.705C19.884,2.468,20.17,2.477,20.354,2.646z"/>
<path d="M10.629,22.928c-1.408-0.637-2.844-1.271-4.253-1.519c-0.703-0.113-1.378-0.105-2.055,0.097
	c-0.678,0.2-1.366,0.553-2.063,0.922c-0.244,0.131-0.547,0.039-0.678-0.205c-0.122-0.228-0.046-0.51,0.163-0.653
	c0.662-0.442,1.346-0.902,2.16-1.243c0.814-0.347,1.758-0.465,2.628-0.411c1.748,0.127,3.303,0.652,4.841,1.154
	c0.526,0.172,0.813,0.738,0.641,1.264s-0.738,0.813-1.264,0.641c-0.035-0.011-0.068-0.024-0.101-0.039L10.629,22.928z"/>
<path d="M3,13.5c0.6,0.019,1.233,0.189,1.679,0.542c0.484,0.317,0.841,0.722,1.18,1.119c0.659,0.807,1.179,1.652,1.717,2.454
	c0.535,0.801,1.074,1.574,1.683,2.206c0.606,0.635,1.285,1.085,1.981,1.208c0.545,0.096,0.908,0.616,0.812,1.161
	s-0.616,0.908-1.161,0.812c-0.032-0.006-0.064-0.013-0.095-0.021l-0.036-0.01c-1.221-0.344-2.147-1.165-2.812-1.99
	c-0.676-0.839-1.177-1.725-1.654-2.588c-0.476-0.862-0.914-1.722-1.429-2.473C4.352,15.171,3.735,14.561,3,14.5l-0.057-0.005
	c-0.274-0.023-0.478-0.264-0.456-0.538C2.509,13.692,2.737,13.492,3,13.5z"/>
<path d="M14.447,32.895c-0.316,0.119-0.631,0.237-0.949,0.341c-0.338,0.055-0.675,0.141-1.013,0.152
	c-0.677,0.025-1.349-0.061-1.925-0.229c-1.18-0.321-2.125-0.743-3.067-0.78c-0.931-0.066-1.863,0.271-2.72,0.846
	c-0.874,0.545-1.639,1.323-2.391,2.099L2.36,35.345c-0.192,0.198-0.508,0.203-0.706,0.011c-0.189-0.183-0.201-0.48-0.036-0.679
	c0.73-0.875,1.47-1.76,2.436-2.475c0.922-0.73,2.142-1.314,3.451-1.324c1.299-0.034,2.462,0.401,3.44,0.573
	c0.996,0.187,1.818,0.109,2.608-0.345l0.04-0.023c0.481-0.276,1.095-0.111,1.372,0.371c0.277,0.481,0.111,1.095-0.371,1.372
	C14.548,32.852,14.495,32.876,14.447,32.895z"/>
<path d="M6.633,40.661c0.686-0.888,1.094-2.069,1.047-3.213c0.004-0.832,0.355-1.575,0.78-2.164c0.431-0.596,0.95-1.078,1.495-1.505
	c0.548-0.426,1.128-0.793,1.742-1.112c0.307-0.161,0.621-0.305,0.959-0.438l0.911-0.339l3.616-1.337
	c0.518-0.192,1.094,0.073,1.285,0.591c0.192,0.518-0.073,1.094-0.591,1.286c-0.02,0.007-0.042,0.014-0.062,0.021l-3.688,1.098
	l-0.914,0.274c-0.265,0.085-0.543,0.189-0.813,0.31c-0.542,0.238-1.071,0.526-1.56,0.857c-0.966,0.647-1.841,1.55-1.912,2.484
	c-0.055,1.424-0.6,2.79-1.563,3.867c-0.184,0.205-0.499,0.223-0.704,0.039c-0.196-0.175-0.221-0.47-0.063-0.675L6.633,40.661z"/>
<path d="M24,38.021c-0.071,1.006-0.18,2.028-0.442,3.07c-0.129,0.518-0.338,1.05-0.522,1.483c-0.177,0.421-0.277,0.759-0.314,1.197
	c-0.042,0.441-0.007,0.711,0.162,1.063c0.163,0.338,0.457,0.684,0.777,1.082c0.317,0.398,0.657,0.89,0.817,1.471
	c0.166,0.58,0.13,1.179,0.013,1.711c-0.059,0.27-0.326,0.44-0.596,0.381c-0.26-0.057-0.428-0.306-0.387-0.565l0.002-0.012
	c0.139-0.878-0.122-1.537-0.773-2.2c-0.312-0.343-0.698-0.712-1.008-1.232c-0.326-0.499-0.454-1.228-0.437-1.759
	c-0.015-0.541,0.1-1.167,0.261-1.662c0.151-0.483,0.261-0.877,0.327-1.317c0.131-0.873,0.146-1.809,0.12-2.753
	c-0.016-0.553,0.42-1.014,0.972-1.029c0.553-0.016,1.014,0.42,1.029,0.972C24.003,37.955,24.002,37.989,24,38.021z"/>
<path d="M16.5,47.015c-0.034-0.98,0.091-1.91,0.507-2.842c0.21-0.458,0.505-0.901,0.893-1.276c0.197-0.186,0.411-0.353,0.647-0.492
	c0.231-0.148,0.381-0.219,0.568-0.336c0.719-0.426,1.339-0.896,1.811-1.472c0.476-0.573,0.839-1.282,1.178-2.042l0.002-0.005
	c0.225-0.505,0.817-0.731,1.322-0.506c0.505,0.226,0.731,0.817,0.506,1.322c-0.012,0.027-0.026,0.054-0.039,0.079
	c-0.445,0.798-0.951,1.629-1.661,2.348c-0.708,0.723-1.563,1.241-2.384,1.635l-0.589,0.28c-0.152,0.066-0.292,0.153-0.427,0.254
	c-0.265,0.206-0.499,0.476-0.69,0.794c-0.382,0.629-0.591,1.467-0.644,2.229l-0.003,0.046c-0.019,0.275-0.257,0.482-0.532,0.463
	C16.708,47.477,16.51,47.266,16.5,47.015z"/>
<path d="M28.526,46.158c-0.26-0.666-0.73-1.081-1.38-1.392c-0.644-0.313-1.477-0.555-2.263-1.042
	c-0.797-0.474-1.482-1.217-1.929-2.027c-0.479-0.812-0.711-1.671-0.938-2.522c-0.143-0.535,0.175-1.084,0.71-1.227
	s1.084,0.175,1.227,0.709c0.009,0.032,0.016,0.065,0.021,0.097l0.011,0.069c0.117,0.722,0.237,1.46,0.528,2.077
	c0.272,0.632,0.659,1.162,1.212,1.581c0.548,0.434,1.261,0.726,2.03,1.192c0.772,0.442,1.504,1.268,1.721,2.168l0.004,0.018
	c0.065,0.269-0.101,0.539-0.369,0.604C28.863,46.522,28.615,46.388,28.526,46.158z"/>
<path d="M44.526,30.158l-0.463-1.067c-0.181-0.34-0.347-0.688-0.538-1.019c-0.394-0.653-0.808-1.291-1.308-1.843
	c-0.492-0.555-1.034-1.056-1.627-1.451c-0.297-0.194-0.601-0.376-0.915-0.511c-0.289-0.135-0.679-0.263-0.862-0.286l-0.018-0.002
	c-0.55-0.069-0.939-0.571-0.87-1.121c0.069-0.55,0.571-0.939,1.121-0.87c0.046,0.006,0.096,0.016,0.14,0.028
	c0.594,0.162,0.943,0.356,1.359,0.59c0.398,0.227,0.757,0.495,1.101,0.776c0.682,0.568,1.256,1.227,1.752,1.922
	c0.504,0.693,0.889,1.447,1.242,2.202c0.17,0.381,0.309,0.772,0.463,1.156l0.371,1.178c0.083,0.263-0.063,0.544-0.326,0.626
	c-0.246,0.077-0.506-0.045-0.607-0.275L44.526,30.158z"/>
<path d="M39,22c1.946,0.117,3.556,0.74,5.168,1.048c1.593,0.337,3.202,0.352,4.554-0.464c0.237-0.143,0.544-0.067,0.687,0.17
	c0.135,0.223,0.073,0.51-0.132,0.662c-0.753,0.552-1.661,0.921-2.586,1.075c-0.927,0.159-1.855,0.13-2.742,0.041
	C42.183,24.354,40.489,23.925,39,24h-0.01c-0.553,0.028-1.023-0.398-1.051-0.95s0.398-1.023,0.95-1.051
	C38.927,21.998,38.964,21.998,39,22z"/>
<path d="M38.948,22.001c0.641-0.021,1.469-0.2,2.138-0.498c0.697-0.291,1.32-0.727,1.828-1.28c0.468-0.503,0.961-1.381,1.598-2.034
	c0.312-0.341,0.65-0.664,1.027-0.951c0.397-0.288,0.746-0.538,1.328-0.721c0.261-0.083,0.54,0.063,0.622,0.323
	c0.076,0.243-0.043,0.5-0.27,0.602l-0.088,0.039c-0.234,0.105-0.601,0.366-0.87,0.622c-0.286,0.266-0.547,0.57-0.788,0.891
	c-0.517,0.642-0.784,1.343-1.397,2.186c-0.587,0.78-1.355,1.432-2.213,1.893c-0.875,0.472-1.737,0.78-2.812,0.924
	c-0.549,0.074-1.053-0.312-1.127-0.86s0.312-1.053,0.86-1.127c0.033-0.004,0.067-0.007,0.1-0.008L38.948,22.001z"/>
<path d="M34.738,32.325c1.496,1.783,2.634,3.801,3.371,5.975c0.721,2.161,1.02,4.565,0.376,6.821
	c-0.076,0.266-0.353,0.419-0.618,0.344c-0.253-0.072-0.404-0.326-0.353-0.58l0.001-0.007c0.414-2.022-0.006-4.142-0.811-6.052
	c-0.814-1.916-2.008-3.689-3.442-5.151l-0.005-0.006c-0.387-0.395-0.381-1.028,0.014-1.415s1.028-0.381,1.415,0.014
	C34.704,32.286,34.722,32.306,34.738,32.325z"/>
<path d="M47.121,40.485c-1.376,0.367-2.801,0.23-4.11-0.112c-1.317-0.348-2.552-0.905-3.717-1.566
	c-2.319-1.343-4.403-3.061-6.103-5.219c-0.342-0.434-0.267-1.063,0.167-1.405s1.063-0.267,1.405,0.167
	c0.013,0.017,0.026,0.034,0.038,0.052l0.008,0.012c1.363,1.99,3.214,3.747,5.268,5.115c1.033,0.679,2.133,1.26,3.286,1.647
	c1.149,0.383,2.367,0.567,3.515,0.341l0.017-0.003c0.271-0.053,0.534,0.123,0.587,0.394C47.534,40.165,47.373,40.417,47.121,40.485z
	"/>
<path d="M38.499,1.024c-0.039,1.162-0.181,2.269-0.385,3.391c-0.208,1.116-0.495,2.222-0.864,3.309
	c-0.365,1.089-0.854,2.145-1.427,3.166c-0.579,1.021-1.314,1.963-2.14,2.838c-0.379,0.402-1.013,0.421-1.415,0.041
	s-0.421-1.013-0.041-1.415c0.016-0.017,0.032-0.033,0.049-0.048l0.039-0.036c0.743-0.684,1.444-1.442,2.026-2.309
	c0.576-0.868,1.096-1.792,1.51-2.776c0.417-0.981,0.766-2,1.043-3.043c0.273-1.038,0.491-2.12,0.606-3.167l0.003-0.023
	c0.03-0.274,0.277-0.472,0.551-0.442C38.316,0.539,38.508,0.766,38.499,1.024z"/>
<path d="M35.582,8.969c0.63-0.074,1.418-0.286,2.096-0.562c0.699-0.277,1.363-0.644,1.974-1.087c0.613-0.44,1.179-0.955,1.653-1.554
	c0.501-0.58,0.877-1.259,1.231-1.952l0.017-0.034c0.125-0.246,0.426-0.343,0.672-0.218c0.229,0.117,0.328,0.388,0.239,0.624
	c-0.306,0.799-0.652,1.601-1.151,2.32c-0.471,0.736-1.061,1.399-1.72,1.983c-0.657,0.588-1.39,1.095-2.175,1.505
	c-0.802,0.414-1.576,0.735-2.553,0.956c-0.54,0.122-1.077-0.217-1.199-0.757s0.217-1.077,0.757-1.199
	c0.035-0.008,0.069-0.014,0.103-0.018L35.582,8.969z"/>
<path d="M39,23c-4-2-7-5-6-10c-6,3-9,1-13-2c0,5-2.742,8.914-9,11c3,3,4,7,1.473,11.333C18,32,21,35,23,39c2-4,8-6,12-5
	C34,30,36,26,39,23z M25,29c-2.209,0-4-1.791-4-4s1.791-4,4-4s4,1.791,4,4S27.209,29,25,29z"/>
<g>
	<path d="M15.001,24c-0.081,0-0.162-0.009-0.244-0.03l-4-1c-0.536-0.134-0.861-0.677-0.728-1.213
		c0.134-0.536,0.679-0.86,1.213-0.728l4,1c0.536,0.134,0.861,0.677,0.728,1.213C15.856,23.697,15.449,24,15.001,24z"/>
</g>
<g>
	<path d="M23,40c-0.552,0-1-0.447-1-1v-3c0-0.553,0.448-1,1-1s1,0.447,1,1v3C24,39.553,23.552,40,23,40z"/>
</g>
<g>
	<path d="M34.532,34.649c-0.266,0-0.53-0.104-0.727-0.313l-2.032-2.149c-0.38-0.401-0.361-1.035,0.039-1.414
		c0.401-0.38,1.035-0.362,1.414,0.039l2.032,2.149c0.38,0.401,0.361,1.035-0.039,1.414C35.026,34.559,34.779,34.649,34.532,34.649z"
		/>
</g>
<g>
	<path d="M38.899,24H36c-0.553,0-1-0.448-1-1s0.447-1,1-1h2.899c0.553,0,1,0.448,1,1S39.452,24,38.899,24z"/>
</g>
<g>
	<path d="M22.001,15c-0.323,0-0.64-0.156-0.833-0.445l-2-3c-0.306-0.459-0.182-1.081,0.277-1.387
		c0.458-0.307,1.08-0.183,1.387,0.277l2,3c0.306,0.459,0.182,1.081-0.277,1.387C22.384,14.946,22.191,15,22.001,15z"/>
</g>
<g>
	<path d="M30.043,16.766c-0.267,0-0.533-0.106-0.73-0.317c-0.377-0.403-0.356-1.036,0.047-1.414l2.957-2.766
		c0.403-0.376,1.036-0.357,1.414,0.047c0.377,0.403,0.356,1.036-0.047,1.414l-2.957,2.766
		C30.533,16.677,30.288,16.766,30.043,16.766z"/>
</g>
</svg>