<?xml version="1.0" encoding="iso-8859-1"?>
<!-- Generator: Adobe Illustrator 22.1.0, SVG Export Plug-In . SVG Version: 6.00 Build 0)  -->
<svg version="1.1" id="Layer_1" xmlns="http://www.w3.org/2000/svg" xmlns:xlink="http://www.w3.org/1999/xlink" x="0px" y="0px"
	 viewBox="0 0 50 50" style="enable-background:new 0 0 50 50;" xml:space="preserve">
<polyline style="fill:none;stroke:#000000;stroke-width:2;stroke-linecap:round;stroke-linejoin:round;stroke-miterlimit:10;" points="
	23,29 23,34 22.781,34 18,34 "/>
<g>
	<circle cx="6" cy="4" r="3"/>
	<path d="M6,8C3.794,8,2,6.205,2,4s1.794-4,4-4s4,1.794,4,4S8.206,8,6,8z M6,2C4.897,2,4,2.897,4,4s0.897,2,2,2s2-0.897,2-2
		S7.103,2,6,2z"/>
</g>
<path d="M6,22L6,22c-0.552,0-1-0.448-1-1v-3c0-0.552,0.448-1,1-1h0c0.552,0,1,0.448,1,1v3C7,21.552,6.552,22,6,22z"/>
<path d="M6,15L6,15c-0.552,0-1-0.448-1-1v-3c0-0.552,0.448-1,1-1h0c0.552,0,1,0.448,1,1v3C7,14.552,6.552,15,6,15z"/>
<path d="M6,29L6,29c-0.552,0-1-0.448-1-1v-3c0-0.552,0.448-1,1-1h0c0.552,0,1,0.448,1,1v3C7,28.552,6.552,29,6,29z"/>
<path d="M6,36L6,36c-0.552,0-1-0.448-1-1v-3c0-0.552,0.448-1,1-1h0c0.552,0,1,0.448,1,1v3C7,35.552,6.552,36,6,36z"/>
<path d="M6,43L6,43c-0.552,0-1-0.448-1-1v-3c0-0.552,0.448-1,1-1h0c0.552,0,1,0.448,1,1v3C7,42.552,6.552,43,6,43z"/>
<path d="M6,50L6,50c-0.552,0-1-0.448-1-1v-3c0-0.552,0.448-1,1-1h0c0.552,0,1,0.448,1,1v3C7,49.552,6.552,50,6,50z"/>
<g>
	<path d="M28.826,34.255L28.826,34.255c-0.302-0.463-0.171-1.082,0.291-1.384l2.513-1.639c0.463-0.302,1.082-0.171,1.384,0.291v0
		c0.302,0.463,0.171,1.082-0.291,1.384l-2.513,1.639C29.747,34.848,29.128,34.718,28.826,34.255z"/>
	<path d="M34.69,30.432L34.69,30.432c-0.302-0.463-0.171-1.082,0.291-1.384l2.513-1.639c0.463-0.302,1.082-0.171,1.384,0.291v0
		c0.302,0.463,0.171,1.082-0.291,1.384l-2.513,1.639C35.611,31.025,34.991,30.894,34.69,30.432z"/>
	<path d="M22.963,38.079L22.963,38.079c-0.302-0.463-0.171-1.082,0.291-1.384l2.513-1.639c0.463-0.302,1.082-0.171,1.384,0.291l0,0
		c0.302,0.463,0.171,1.082-0.291,1.384l-2.513,1.639C23.884,38.672,23.264,38.541,22.963,38.079z"/>
	<path d="M17.099,41.902L17.099,41.902c-0.302-0.463-0.171-1.082,0.291-1.384l2.513-1.639c0.463-0.302,1.082-0.171,1.384,0.291h0
		c0.302,0.463,0.171,1.082-0.291,1.384l-2.513,1.639C18.02,42.495,17.401,42.365,17.099,41.902z"/>
	<path d="M11.236,45.726L11.236,45.726c-0.302-0.463-0.171-1.082,0.291-1.384l2.513-1.639c0.463-0.302,1.082-0.171,1.384,0.291l0,0
		c0.302,0.463,0.171,1.082-0.291,1.384l-2.513,1.639C12.157,46.319,11.537,46.189,11.236,45.726z"/>
	<path d="M5.372,49.549L5.372,49.549c-0.302-0.463-0.171-1.082,0.291-1.384l2.513-1.639c0.463-0.302,1.082-0.171,1.384,0.291l0,0
		c0.302,0.463,0.171,1.082-0.291,1.384l-2.513,1.639C6.293,50.143,5.674,50.012,5.372,49.549z"/>
</g>
<g>
	<circle cx="44" cy="24" r="3"/>
	<path d="M44.008,27.999c-1.317,0-2.607-0.648-3.371-1.835c-0.578-0.898-0.771-1.968-0.546-3.012
		c0.227-1.044,0.847-1.938,1.745-2.516c1.854-1.195,4.335-0.655,5.528,1.2c1.193,1.854,0.655,4.334-1.198,5.528h-0.001
		C45.497,27.794,44.748,27.999,44.008,27.999z M43.997,22.001c-0.37,0-0.745,0.103-1.079,0.317
		c-0.449,0.289-0.759,0.736-0.872,1.258s-0.017,1.057,0.272,1.506c0.597,0.929,1.838,1.195,2.765,0.6
		c0.927-0.598,1.196-1.837,0.6-2.764C45.301,22.325,44.655,22.001,43.997,22.001z"/>
</g>
<path style="fill:none;stroke:#000000;stroke-width:2;stroke-linecap:round;stroke-linejoin:round;stroke-miterlimit:10;" d="
	M9.757,26.047c5.325,0.401,9.945,3.33,12.663,7.59"/>
</svg>