<?xml version="1.0" encoding="iso-8859-1"?><!-- Generator: Adobe Illustrator 19.2.0, SVG Export Plug-In . SVG Version: 6.00 Build 0)  --><svg xmlns="http://www.w3.org/2000/svg" xmlns:xlink="http://www.w3.org/1999/xlink" viewBox="0 0 50 50" width="50px" height="50px"><path d="M43,26v-3.968C43,17.603,39.396,14,34.968,14H26v-3.142c1.721-0.447,3-2,3-3.858c0-2.206-1.794-4-4-4c-2.206,0-4,1.794-4,4c0,1.858,1.28,3.411,3,3.858V14h-8.968C10.604,14,7,17.603,7,22.032V26H2v12h5v9h36v-9h5V26H43z M27,38v7h-4v-7H27z M15,26.5c0-1.933,1.567-3.5,3.5-3.5s3.5,1.567,3.5,3.5S20.433,30,18.5,30S15,28.433,15,26.5z M17,38h4v7h-4V38z M33,45h-4v-7h4V45z M31.5,30c-1.933,0-3.5-1.567-3.5-3.5s1.567-3.5,3.5-3.5s3.5,1.567,3.5,3.5S33.433,30,31.5,30z"/></svg>