<?xml version="1.0" encoding="utf-8"?><!-- Generator: Adobe Illustrator 15.0.0, SVG Export Plug-In . SVG Version: 6.00 Build 0)  --><!DOCTYPE svg PUBLIC "-//W3C//DTD SVG 1.1//EN" "http://www.w3.org/Graphics/SVG/1.1/DTD/svg11.dtd"><svg xmlns="http://www.w3.org/2000/svg" xmlns:xlink="http://www.w3.org/1999/xlink" viewBox="0 0 50 50" width="50px" height="50px"><path d="M12.1,50c-2.43,0-4-1.924-4-4.9c0-1.226,0.307-2.915,0.696-5.055C9.377,36.848,10.1,32.869,10.1,28.7C10.001,19.017,10,7.119,10,7c0-0.552,0.448-1,1-1h6c0.552,0,1,0.448,1,1v18.9c0,2.817,1.757,4.5,4.7,4.5c0.786,0,2.262-1.477,2.893-2.107C26.626,27.26,28,25.659,28,23.7V7c0-0.552,0.447-1,1-1h6c0.553,0,1,0.448,1,1v20.3c0,2.455,0.505,3.7,1.5,3.7c0.981,0,2.099-2.459,2.527-4.234C40.137,26.317,40.538,26,41,26h2c0.273,0,0.536,0.112,0.725,0.311s0.288,0.466,0.274,0.739C43.844,30.146,41.973,36,36,36c-3.883,0-5.735-1.12-7.11-4.62c-0.905,0.931-2.16,2.178-3.064,2.901C24.2,35.636,22.485,36.3,20.6,36.3c-1.506,0-3.498-0.515-5.266-1.321c0.071,1.742,0.238,3.354,0.401,4.926c0.188,1.807,0.365,3.513,0.365,5.195C16.1,48.076,14.53,50,12.1,50z"/></svg>