<?xml version="1.0" encoding="iso-8859-1"?>
<!-- Generator: Adobe Illustrator 23.0.3, SVG Export Plug-In . SVG Version: 6.00 Build 0)  -->
<svg version="1.1" xmlns="http://www.w3.org/2000/svg" xmlns:xlink="http://www.w3.org/1999/xlink" x="0px" y="0px"
	 viewBox="0 0 50 50" style="enable-background:new 0 0 50 50;" xml:space="preserve">
<g id="filled">
</g>
<g id="outlined">
</g>
<g id="rounded">
</g>
<g id="two_x5F_tone">
</g>
<g id="sharp">
</g>
<g id="win10">
</g>
<g id="ios_x5F_out">
</g>
<g id="ios_x5F_filled">
	<path d="M1,50c0.75-0.9,2.903-2.395,3.796-2.815c1.018-0.486,1.96-0.936,2.422-1.788l0.121-0.223v-2.266l-0.243-0.282
		c-0.365-0.423-0.714-1.207-0.868-1.949l-0.081-0.392L5.82,40.058c-0.309-0.214-0.509-0.7-0.563-1.369
		c-0.065-0.403,0.033-0.655,0.125-0.811l0.226-0.383l-0.132-0.424c-0.443-1.416-0.69-3.536,0.071-4.851
		c0.354-0.614,0.899-1.018,1.622-1.202l0.331-0.084l0.21-0.269c0.56-0.716,1.955-0.716,2.413-0.716
		c1.841,0.042,3.127,0.569,3.911,1.611c0.901,1.199,1.065,3.06,0.486,5.531l-0.093,0.395l0.209,0.348
		c0.086,0.143,0.22,0.443,0.151,0.847c-0.063,0.716-0.268,1.19-0.573,1.386l-0.322,0.206l-0.103,0.369
		c-0.221,0.797-0.595,1.579-0.953,1.993l-0.216,0.25l-0.044,0.679l-0.009,0.272c-0.01,0.348-0.019,0.675,0.008,1.054l0.02,0.283
		l0.167,0.23c0.261,0.363,0.66,0.691,1.186,0.975l1.019,0.551l0.396-1.088c0.769-2.11,2.674-2.977,4.205-3.672l0.114-0.053
		c1.057-0.489,1.969-0.911,2.406-1.665l0.135-0.233v-2.287l-0.227-0.276c-0.35-0.428-0.79-1.203-0.983-1.971l-0.092-0.363
		l-0.308-0.213c-0.305-0.212-0.514-0.718-0.574-1.388c-0.067-0.44,0.059-0.709,0.139-0.836l0.225-0.355l-0.096-0.409
		c-0.581-2.463-0.415-4.319,0.493-5.517c0.768-1.031,2.08-1.572,3.906-1.614c1.166,0,1.991,0.254,2.5,0.777l0.203,0.208l0.283,0.067
		c0.721,0.171,1.266,0.548,1.62,1.123c0.928,1.506,0.385,3.967,0.107,4.955l-0.116,0.416l0.222,0.37
		c0.101,0.167,0.206,0.443,0.143,0.815c-0.065,0.714-0.258,1.17-0.554,1.37l-0.339,0.229L28.69,35.72
		c-0.152,0.746-0.505,1.536-0.877,1.966l-0.243,0.282v0.372l-0.011,0.35c-0.021,0.436-0.04,0.826,0.004,1.318l0.018,0.202
		l0.095,0.178c0.437,0.823,1.464,1.289,2.551,1.782c1.621,0.751,3.439,1.594,4.224,3.751l0.383,1.055l1.004-0.502
		c0.601-0.301,1.005-0.646,1.234-1.054l0.129-0.229v-2.306l-0.233-0.279c-0.336-0.4-0.769-1.164-0.979-1.971l-0.094-0.357
		l-0.303-0.21c-0.31-0.216-0.515-0.709-0.575-1.389c-0.063-0.407,0.048-0.684,0.152-0.857l0.208-0.348l-0.093-0.395
		c-0.578-2.457-0.411-4.313,0.496-5.52c0.766-1.028,2.078-1.569,3.904-1.611c0.994,0,1.823,0.276,2.309,0.777l0.203,0.209
		l0.284,0.067c0.708,0.167,1.25,0.546,1.613,1.126c0.932,1.504,0.391,3.956,0.114,4.94l-0.115,0.411l0.217,0.368
		c0.142,0.239,0.187,0.517,0.135,0.826c-0.063,0.708-0.261,1.18-0.552,1.376l-0.339,0.229l-0.082,0.4
		c-0.151,0.737-0.505,1.524-0.879,1.958l-0.242,0.281l-0.01,0.731c-0.021,0.435-0.04,0.833,0.004,1.329l0.017,0.186l0.082,0.167
		c0.44,0.894,1.468,1.364,2.462,1.818C45.872,47.606,48.206,49.107,49,50H1z"/>
	<path style="fill:none;stroke:#000000;stroke-width:2;stroke-linecap:round;stroke-linejoin:round;" d="M18,15l-5-5l5-5"/>
	<path style="fill:none;stroke:#000000;stroke-width:2;stroke-linecap:round;stroke-linejoin:round;" d="M26,18h7
		c2.209,0,4-1.791,4-4v0c0-2.209-1.791-4-4-4H14"/>
</g>
<g id="Layer_18">
</g>
</svg>