<?xml version="1.0" encoding="utf-8"?><!-- Generator: Adobe Illustrator 15.0.0, SVG Export Plug-In . SVG Version: 6.00 Build 0)  --><!DOCTYPE svg PUBLIC "-//W3C//DTD SVG 1.1//EN" "http://www.w3.org/Graphics/SVG/1.1/DTD/svg11.dtd"><svg xmlns="http://www.w3.org/2000/svg" xmlns:xlink="http://www.w3.org/1999/xlink" viewBox="0 0 50 50" width="50px" height="50px"><line fill="none" stroke="#000000" stroke-width="2" stroke-linecap="round" stroke-linejoin="round" stroke-miterlimit="10" x1="7" y1="13" x2="11" y2="13"/><line fill="none" stroke="#000000" stroke-width="2" stroke-linecap="round" stroke-linejoin="round" stroke-miterlimit="10" x1="7" y1="19" x2="11" y2="19"/><line fill="none" stroke="#000000" stroke-width="2" stroke-linecap="round" stroke-linejoin="round" stroke-miterlimit="10" x1="7" y1="25" x2="11" y2="25"/><line fill="none" stroke="#000000" stroke-width="2" stroke-linecap="round" stroke-linejoin="round" stroke-miterlimit="10" x1="7" y1="31" x2="11" y2="31"/><line fill="none" stroke="#000000" stroke-width="2" stroke-linecap="round" stroke-linejoin="round" stroke-miterlimit="10" x1="7" y1="37" x2="11" y2="37"/><path d="M39,4H11C9.346,4,8,5.346,8,7v6h3c0.552,0,1,0.448,1,1s-0.448,1-1,1H8v4h3c0.552,0,1,0.448,1,1s-0.448,1-1,1H8v4h3c0.552,0,1,0.448,1,1c0,0.553-0.448,1-1,1H8v4h3c0.552,0,1,0.447,1,1s-0.448,1-1,1H8v4h3c0.552,0,1,0.447,1,1s-0.448,1-1,1H8v4c0,1.654,1.346,3,3,3h28c1.654,0,3-1.346,3-3V7C42,5.346,40.654,4,39,4z M33,27h-6v6h-4v-6h-6v-4h6v-6h4v6h6V27z"/></svg>