<?xml version="1.0" encoding="iso-8859-1"?><!-- Generator: Adobe Illustrator 19.1.1, SVG Export Plug-In . SVG Version: 6.00 Build 0)  --><svg xmlns="http://www.w3.org/2000/svg" xmlns:xlink="http://www.w3.org/1999/xlink" viewBox="0 0 50 50" width="50px" height="50px"><circle cx="26.999" cy="34" r="2"/><path d="M40.196,8.406c-7.361-7.246-14.968-1.48-22.321,4.096c-0.996,0.755-2.005,1.52-3.026,2.267C9.395,18.756,5.086,21.904,5,26.984c-0.036,2.193,0.682,4.641,2.261,7.704c2.574,4.994,8.675,8.933,15.541,10.032c1.205,0.193,2.387,0.288,3.533,0.288c4.419,0,8.312-1.411,11-4.056c4.601-4.527,7.608-12.089,7.663-19.264C45.04,16.211,43.335,11.494,40.196,8.406z M35.499,13c0.828,0,1.5,0.672,1.5,1.5s-0.672,1.5-1.5,1.5s-1.5-0.672-1.5-1.5S34.67,13,35.499,13z M29.999,11c0.552,0,1,0.448,1,1c0,0.552-0.448,1-1,1c-0.552,0-1-0.448-1-1C28.999,11.448,29.447,11,29.999,11z M14.999,36c-0.552,0-1-0.448-1-1c0-0.552,0.448-1,1-1s1,0.448,1,1C15.999,35.552,15.551,36,14.999,36z M16.961,30.273C16.836,30.713,16.435,31,16,31c-0.091,0-0.183-0.013-0.274-0.039c-0.531-0.151-0.84-0.704-0.688-1.235c0.012-0.043,0.668-2.238,2.411-4.417c0.253-0.316,0.27-0.759,0.022-1.078c0,0-0.692-1.042-1.645,0.332C15.629,24.847,15.317,25,14.998,25c-0.194,0-0.391-0.056-0.563-0.174c-0.456-0.312-0.574-0.934-0.263-1.39c0.167-0.244,4.161-5.972,11.766-6.434c0.545-0.037,1.025,0.386,1.059,0.938s-0.386,1.025-0.938,1.059c-2.981,0.181-5.336,1.311-7.034,2.507c-0.403,0.284-0.487,0.844-0.184,1.233c0.277,0.355,0.782,0.439,1.152,0.182c1.538-1.068,3.495-1.852,5.978-1.919c0.009,0,0.019,0,0.028,0c0.539,0,0.983,0.43,0.999,0.973c0.015,0.552-0.421,1.012-0.973,1.027C19.052,23.191,16.981,30.202,16.961,30.273z M26.499,39c-3.59,0-6.5-2.91-6.5-6.5s2.91-6.5,6.5-6.5s6.5,2.91,6.5,6.5S30.089,39,26.499,39z M37.366,25.591c-0.759,0.611-1.913,0.527-2.564-0.185l-1.367-1.591c-0.651-0.713-0.562-1.795,0.197-2.406c0.759-0.611,1.913-0.528,2.564,0.185l1.367,1.591C38.214,23.898,38.125,24.98,37.366,25.591z"/></svg>