<?xml version="1.0" encoding="iso-8859-1"?>
<!-- Generator: Adobe Illustrator 23.0.3, SVG Export Plug-In . SVG Version: 6.00 Build 0)  -->
<svg version="1.1" xmlns="http://www.w3.org/2000/svg" xmlns:xlink="http://www.w3.org/1999/xlink" x="0px" y="0px"
	 viewBox="0 0 50 50" style="enable-background:new 0 0 50 50;" xml:space="preserve">
<g id="Layer_10" style="display:none;">
</g>
<g id="filled">
</g>
<g id="outlined">
</g>
<g id="rounded">
</g>
<g id="two_x5F_tone">
</g>
<g id="sharp">
</g>
<g id="win10">
</g>
<g id="ios_x5F_out">
</g>
<g id="ios_x5F_filled">
	<path d="M34.49,24.13l-9-5.05c-0.3-0.17-0.68-0.17-0.98,0l-4.38,2.46l14.8,14.8C34.98,36.24,35,36.12,35,36V25
		C35,24.64,34.8,24.3,34.49,24.13z M32.4,26.69c-0.19,0.32-0.52,0.5-0.87,0.5c-0.17,0-0.34-0.04-0.5-0.14l-6.06-3.5
		c-0.48-0.27-0.64-0.88-0.37-1.36c0.28-0.48,0.89-0.64,1.37-0.37l6.06,3.5C32.51,25.6,32.67,26.21,32.4,26.69z M25.97,39.18
		c-0.16,0.09-0.33,0.13-0.5,0.13c-0.35,0-0.68-0.18-0.87-0.5c-0.27-0.48-0.11-1.09,0.37-1.36l5.22-3.01L18.31,22.56l-2.8,1.57
		C15.2,24.3,15,24.64,15,25v11c0,0.36,0.2,0.7,0.51,0.87l9,5.05c0.3,0.17,0.68,0.17,0.98,0l7.8-4.38l-1.64-1.64L25.97,39.18z M19,34
		c0,0.55-0.45,1-1,1s-1-0.45-1-1v-7c0-0.55,0.45-1,1-1s1,0.45,1,1V34z"/>
	<path style="fill:none;stroke:#000000;stroke-width:2;stroke-linecap:round;" d="M3,3l44,44"/>
	<line style="fill:none;stroke:#000000;stroke-width:2;stroke-linecap:round;" x1="25" y1="41" x2="25" y2="47"/>
	<polyline style="fill:none;stroke:#000000;stroke-width:2;stroke-linecap:round;stroke-linejoin:round;" points="25,20 25,9 34,4 
		43,9 	"/>
	
		<line style="fill:none;stroke:#000000;stroke-width:2;stroke-linecap:round;stroke-linejoin:round;" x1="25" y1="9" x2="15" y2="4"/>
	
		<line style="fill:none;stroke:#000000;stroke-width:2;stroke-linecap:round;stroke-linejoin:round;" x1="25" y1="14" x2="15" y2="9"/>
</g>
<g id="color">
</g>
</svg>