<?xml version="1.0" encoding="iso-8859-1"?><!-- Generator: Adobe Illustrator 21.1.0, SVG Export Plug-In . SVG Version: 6.00 Build 0)  --><svg xmlns="http://www.w3.org/2000/svg" xmlns:xlink="http://www.w3.org/1999/xlink" viewBox="0 0 50 50" width="50px" height="50px"><path style="fill:none;stroke:#000000;stroke-width:2;stroke-miterlimit:10;" d="M11,37c0-2.761-2.239-5-5-5s-5,2.239-5,5"/><path style="fill:none;stroke:#000000;stroke-width:2;stroke-miterlimit:10;" d="M11,37V8c0-2.761-2.239-5-5-5S1,5.239,1,8c0,1.364,0,27.636,0,29c0,2.761,2.239,5,5,5h13h30V8H11"/><circle cx="6" cy="37" r="5"/><path d="M11,8v29H1c0,2.761,2.239,5,5,5h43V8H11z M42,34H17v-2h25V34z M42,22l-2.793-2.793L32.5,25.914l-5.545-5.545l-7.296,6.384l-1.317-1.505l8.704-7.616l5.455,5.455l5.293-5.293L35,15h7V22z"/></svg>