<svg xmlns="http://www.w3.org/2000/svg"  viewBox="0 0 50 50" width="50px" height="50px"><path d="M 25 0 C 21.433594 0 18.410156 4.023438 16.59375 10.40625 C 16.585938 10.402344 16.570313 10.410156 16.5625 10.40625 C 16.351563 11.152344 16.175781 11.914063 16 12.71875 C 15.960938 12.890625 15.941406 13.074219 15.90625 13.25 C 15.835938 13.601563 15.753906 13.953125 15.6875 14.3125 C 15.402344 15.859375 15.1875 17.5 15.03125 19.21875 C 15.03125 19.238281 15.03125 19.261719 15.03125 19.28125 C 14.976563 19.898438 14.910156 20.523438 14.875 21.15625 C 14.859375 21.417969 14.855469 21.671875 14.84375 21.9375 C 14.796875 22.941406 14.78125 23.957031 14.78125 25 C 14.78125 25.199219 14.78125 25.394531 14.78125 25.59375 C 14.070313 25.027344 13.429688 24.460938 12.8125 23.90625 C 12.832031 22.855469 12.847656 21.820313 12.90625 20.8125 C 12.273438 21.304688 11.679688 21.8125 11.09375 22.3125 C 8.613281 19.789063 7.171875 17.511719 6.78125 15.90625 C 6.691406 15.542969 6.597656 14.882813 6.84375 14.5 C 7.15625 14.011719 8.230469 13.5 10.3125 13.5 C 11.339844 13.5 12.480469 13.636719 13.71875 13.875 C 13.972656 12.496094 14.28125 11.195313 14.625 9.96875 C 13.078125 9.667969 11.632813 9.5 10.3125 9.5 C 6.167969 9.5 4.300781 11.042969 3.46875 12.34375 C 2.917969 13.203125 2.375 14.667969 2.90625 16.84375 C 3.503906 19.308594 5.355469 22.167969 8.15625 25.03125 C 8.144531 25.042969 8.136719 25.050781 8.125 25.0625 C 8.945313 25.894531 9.871094 26.703125 10.84375 27.53125 C 10.921875 27.597656 10.980469 27.683594 11.0625 27.75 C 11.070313 27.738281 11.085938 27.730469 11.09375 27.71875 C 12.886719 29.242188 14.914063 30.730469 17.125 32.15625 C 17.484375 32.390625 17.847656 32.613281 18.21875 32.84375 C 18.597656 33.078125 18.984375 33.300781 19.375 33.53125 C 19.546875 33.632813 19.703125 33.742188 19.875 33.84375 C 20.054688 33.945313 20.226563 34.054688 20.40625 34.15625 C 19.570313 34.488281 18.742188 34.765625 17.9375 35.03125 C 17.039063 34.492188 16.15625 33.933594 15.3125 33.375 C 15.417969 34.175781 15.554688 34.960938 15.6875 35.71875 C 13.675781 36.246094 11.824219 36.53125 10.25 36.53125 C 8.175781 36.53125 7.121094 36.035156 6.8125 35.5625 C 6.640625 35.300781 6.605469 34.796875 6.75 34.1875 C 7.0625 32.878906 8.058594 31.167969 9.71875 29.21875 C 8.660156 28.320313 7.707031 27.410156 6.8125 26.5 C 4.757813 28.882813 3.371094 31.207031 2.875 33.28125 C 2.359375 35.445313 2.886719 36.90625 3.4375 37.75 C 4.269531 39.019531 6.132813 40.53125 10.25 40.53125 C 12.25 40.53125 14.53125 40.167969 17 39.5 C 17.367188 39.402344 17.75 39.300781 18.125 39.1875 C 18.226563 39.15625 18.335938 39.125 18.4375 39.09375 C 18.507813 39.070313 18.585938 39.054688 18.65625 39.03125 C 20.242188 38.53125 21.878906 37.917969 23.5625 37.1875 C 24.039063 36.980469 24.519531 36.753906 25 36.53125 C 25.070313 36.5 25.148438 36.46875 25.21875 36.4375 C 25.90625 36.117188 26.617188 35.761719 27.3125 35.40625 C 27.738281 35.1875 28.164063 34.949219 28.59375 34.71875 C 28.9375 34.53125 29.28125 34.351563 29.625 34.15625 C 29.847656 34.03125 30.058594 33.910156 30.28125 33.78125 C 30.398438 33.710938 30.507813 33.632813 30.625 33.5625 C 30.492188 34.453125 30.351563 35.296875 30.1875 36.09375 C 29.269531 36.601563 28.355469 37.105469 27.4375 37.5625 C 28.1875 37.867188 28.925781 38.175781 29.65625 38.4375 C 28.28125 43.433594 26.296875 46 25 46 C 23.882813 46 22.273438 44.070313 20.96875 40.34375 C 19.652344 40.816406 18.359375 41.210938 17.125 41.53125 C 18.953125 46.816406 21.734375 50 25 50 C 30.46875 50 34.554688 41.035156 35.15625 28.28125 C 35.160156 28.21875 35.152344 28.15625 35.15625 28.09375 C 35.203125 27.078125 35.21875 26.058594 35.21875 25 C 35.21875 24.789063 35.222656 24.585938 35.21875 24.375 C 35.929688 24.9375 36.605469 25.515625 37.21875 26.0625 C 37.203125 27.140625 37.152344 28.191406 37.09375 29.21875 C 37.726563 28.730469 38.351563 28.242188 38.9375 27.75 C 42.527344 31.40625 43.804688 34.367188 43.1875 35.5 C 42.941406 35.953125 41.871094 36.46875 39.71875 36.46875 C 38.6875 36.46875 37.539063 36.355469 36.3125 36.125 C 36.070313 37.5 35.773438 38.808594 35.4375 40.03125 C 36.957031 40.320313 38.40625 40.46875 39.71875 40.46875 C 44.089844 40.46875 45.921875 38.804688 46.6875 37.40625 C 48.488281 34.105469 46.292969 29.25 41.21875 24.3125 C 40.828125 23.933594 40.421875 23.5625 40 23.1875 C 39.152344 22.425781 38.226563 21.660156 37.25 20.90625 C 36.523438 20.34375 35.761719 19.804688 34.96875 19.25 C 34.628906 19.011719 34.289063 18.765625 33.9375 18.53125 C 33.59375 18.300781 33.230469 18.070313 32.875 17.84375 C 32.632813 17.6875 32.375 17.53125 32.125 17.375 C 31.507813 16.992188 30.867188 16.59375 30.21875 16.21875 C 29.988281 16.085938 29.761719 15.972656 29.53125 15.84375 C 30.367188 15.511719 31.167969 15.203125 31.96875 14.9375 C 32.886719 15.484375 33.785156 16.050781 34.65625 16.625 C 34.546875 15.8125 34.421875 15.019531 34.28125 14.25 C 36.261719 13.730469 38.078125 13.4375 39.625 13.4375 C 41.433594 13.4375 42.75 13.847656 43.15625 14.5 C 43.40625 14.902344 43.304688 15.53125 43.1875 16 C 42.894531 17.171875 42.074219 18.667969 40.75 20.3125 C 40.613281 20.480469 40.457031 20.640625 40.3125 20.8125 C 41.382813 21.722656 42.363281 22.625 43.25 23.53125 C 43.558594 23.179688 43.851563 22.847656 44.125 22.5 C 45.621094 20.578125 46.660156 18.6875 47.09375 16.96875 C 47.648438 14.757813 47.109375 13.253906 46.5625 12.375 C 45.730469 11.039063 43.847656 9.4375 39.625 9.4375 C 37.394531 9.4375 34.78125 9.90625 31.96875 10.75 C 31.679688 10.835938 31.390625 10.9375 31.09375 11.03125 C 31.050781 11.042969 31.011719 11.050781 30.96875 11.0625 C 30.511719 11.210938 30.058594 11.363281 29.59375 11.53125 C 28.097656 12.070313 26.570313 12.703125 25 13.4375 C 24.792969 13.535156 24.582031 13.648438 24.375 13.75 C 23.804688 14.023438 23.230469 14.292969 22.65625 14.59375 C 21.742188 15.066406 20.828125 15.5625 19.90625 16.09375 C 19.726563 16.195313 19.550781 16.300781 19.375 16.40625 C 19.511719 15.515625 19.675781 14.640625 19.84375 13.84375 C 20.730469 13.355469 21.632813 12.886719 22.53125 12.4375 C 21.8125 12.140625 21.105469 11.851563 20.40625 11.59375 C 21.792969 6.625 23.746094 4 25 4 C 26.074219 4 27.660156 5.945313 28.96875 9.625 C 30.28125 9.152344 31.554688 8.753906 32.78125 8.4375 C 30.933594 3.207031 28.1875 0 25 0 Z M 24.9375 17.9375 C 26.023438 18.484375 27.121094 19.054688 28.21875 19.6875 C 29.25 20.28125 30.210938 20.875 31.125 21.46875 C 31.191406 22.597656 31.21875 23.765625 31.21875 25 C 31.21875 26.246094 31.1875 27.421875 31.125 28.5625 C 30.226563 29.148438 29.285156 29.730469 28.28125 30.3125 C 27.183594 30.945313 26.085938 31.519531 25 32.0625 C 23.960938 31.542969 22.921875 31.007813 21.875 30.40625 C 20.824219 29.796875 19.820313 29.179688 18.875 28.5625 C 18.8125 27.421875 18.78125 26.253906 18.78125 25 C 18.78125 23.753906 18.808594 22.578125 18.875 21.4375 C 19.832031 20.808594 20.835938 20.179688 21.90625 19.5625 C 22.925781 18.972656 23.925781 18.449219 24.9375 17.9375 Z M 25 20.5 C 22.515625 20.5 20.5 22.515625 20.5 25 C 20.5 27.484375 22.515625 29.5 25 29.5 C 27.484375 29.5 29.5 27.484375 29.5 25 C 29.5 22.515625 27.484375 20.5 25 20.5 Z"/></svg>