<?xml version="1.0" encoding="iso-8859-1"?><!-- Generator: Adobe Illustrator 23.0.1, SVG Export Plug-In . SVG Version: 6.00 Build 0)  --><svg xmlns="http://www.w3.org/2000/svg" xmlns:xlink="http://www.w3.org/1999/xlink" viewBox="0 0 50 50" width="50px" height="50px"><path style="fill:none;stroke:#000000;stroke-width:2;stroke-linecap:round;stroke-linejoin:round;stroke-miterlimit:10;" d="M27,17c0-1,1.5-4.5,5-8s10-5,10-5l2,2"/><path style="fill:none;stroke:#000000;stroke-width:2;stroke-linecap:round;stroke-linejoin:round;stroke-miterlimit:10;" d="M33,23l-6-6"/><path style="fill:none;stroke:#000000;stroke-width:2;stroke-linecap:round;stroke-linejoin:round;stroke-miterlimit:10;" d="M33,23c1,0,4.5-1.5,8-5s5-10,5-10l-2-2"/><path d="M34,20c-0.256,0-0.512-0.098-0.707-0.293l-3-3c-0.391-0.391-0.391-1.023,0-1.414l6.379-6.379c1.217-1.217,3.196-1.216,4.414,0c1.217,1.218,1.217,3.198,0,4.415l-6.379,6.379C34.512,19.902,34.256,20,34,20z"/><circle cx="26.5" cy="23.5" r="1.5"/><path d="M34.707,23.293l-1-1c-0.391-0.391-1.023-0.391-1.414,0l-6.5,6.5l-4.586-4.586l6.5-6.5c0.391-0.391,0.391-1.023,0-1.414l-1-1c-0.391-0.391-1.023-0.391-1.414,0s-0.391,1.023,0,1.414L25.586,17L15.293,27.293c-0.391,0.391-0.391,1.023,0,1.414L15.586,29L14,30.586l-0.293-0.293c-0.391-0.391-1.023-0.391-1.414,0L9,33.586l3.707,3.707c0.391,0.391,0.391,1.023,0,1.414C12.512,38.902,12.256,39,12,39s-0.512-0.098-0.707-0.293l-4.321-4.321L3.804,35.02c-0.031,0.006-0.054,0.026-0.083,0.035c-0.065,0.019-0.124,0.045-0.185,0.078C3.475,35.164,3.42,35.2,3.368,35.243c-0.024,0.02-0.053,0.028-0.075,0.05c-0.023,0.023-0.032,0.054-0.053,0.079c-0.044,0.053-0.08,0.108-0.112,0.169c-0.03,0.057-0.054,0.112-0.072,0.173c-0.018,0.06-0.029,0.119-0.036,0.183c-0.007,0.069-0.007,0.135,0,0.204c0.003,0.032-0.007,0.063,0,0.095c0.007,0.035,0.027,0.062,0.037,0.095c0.016,0.05,0.033,0.097,0.057,0.145c0.035,0.072,0.079,0.135,0.129,0.195c0.02,0.024,0.028,0.053,0.05,0.075l10,10C13.483,46.897,13.739,47,14,47c0.097,0,0.194-0.014,0.29-0.043c0.353-0.107,0.619-0.399,0.691-0.761l0.941-4.703l3.786-3.786c0.391-0.391,0.391-1.023,0-1.414L19.414,36L21,34.414l0.293,0.293c0.391,0.391,1.023,0.391,1.414,0L33,24.414l0.293,0.293c0.391,0.391,1.023,0.391,1.414,0S35.098,23.684,34.707,23.293z M18,34.586L15.414,32L17,30.414L19.586,33L18,34.586z"/></svg>