<?xml version="1.0" encoding="utf-8"?><!-- Generator: Adobe Illustrator 17.0.0, SVG Export Plug-In . SVG Version: 6.00 Build 0)  --><!DOCTYPE svg PUBLIC "-//W3C//DTD SVG 1.1//EN" "http://www.w3.org/Graphics/SVG/1.1/DTD/svg11.dtd"><svg xmlns="http://www.w3.org/2000/svg" xmlns:xlink="http://www.w3.org/1999/xlink" viewBox="0 0 50 50" width="50px" height="50px"><rect x="0" fill="none" width="50" height="50"/><line fill="none" stroke="#000000" stroke-width="2" stroke-linecap="round" stroke-miterlimit="10" x1="25" y1="1" x2="25" y2="5"/><line fill="none" stroke="#000000" stroke-width="2" stroke-linecap="round" stroke-miterlimit="10" x1="25" y1="37" x2="25" y2="45"/><line fill="none" stroke="#000000" stroke-width="2" stroke-linecap="round" stroke-miterlimit="10" x1="25" y1="40" x2="16" y2="49"/><line fill="none" stroke="#000000" stroke-width="2" stroke-linecap="round" stroke-miterlimit="10" x1="25" y1="40" x2="34" y2="49"/><path d="M0,4v34h50V4H0z M41,18c-0.27,0-0.527-0.055-0.762-0.152l-10.264,7.895C29.985,25.828,30,25.912,30,26c0,1.104-0.896,2-2,2s-2-0.896-2-2c0-0.069,0.014-0.135,0.021-0.203l-8.211-5.971C17.562,19.936,17.289,20,17,20c-0.279,0-0.544-0.058-0.786-0.161l-5.238,3.928C10.986,23.844,11,23.92,11,24c0,1.104-0.896,2-2,2s-2-0.896-2-2s0.896-2,2-2c0.279,0,0.544,0.058,0.786,0.161l5.238-3.928C15.014,18.156,15,18.08,15,18c0-1.104,0.896-2,2-2s2,0.896,2,2c0,0.069-0.014,0.135-0.021,0.203l8.211,5.971C27.438,24.064,27.711,24,28,24c0.27,0,0.527,0.055,0.762,0.152l10.264-7.895C39.015,16.172,39,16.088,39,16c0-1.104,0.896-2,2-2s2,0.896,2,2S42.104,18,41,18z"/></svg>