<?xml version="1.0" encoding="iso-8859-1"?><!-- Generator: Adobe Illustrator 21.1.0, SVG Export Plug-In . SVG Version: 6.00 Build 0)  --><svg xmlns="http://www.w3.org/2000/svg" xmlns:xlink="http://www.w3.org/1999/xlink" viewBox="0 0 50 50" width="50px" height="50px"><path d="M24,24H2v-1C2,11.42,11.42,2,23,2h1V24z"/><path d="M27,6c-0.338,0-0.666,0.035-1,0.051v2C26.333,8.033,26.662,8,27,8c10.477,0,19,8.523,19,19s-8.523,19-19,19S8,37.477,8,27c0-0.338,0.033-0.667,0.051-1h-2C6.035,26.334,6,26.662,6,27c0,11.58,9.42,21,21,21s21-9.42,21-21S38.58,6,27,6z"/></svg>