<?xml version="1.0" encoding="utf-8"?><!-- Generator: Adobe Illustrator 15.0.0, SVG Export Plug-In . SVG Version: 6.00 Build 0)  --><!DOCTYPE svg PUBLIC "-//W3C//DTD SVG 1.1//EN" "http://www.w3.org/Graphics/SVG/1.1/DTD/svg11.dtd"><svg xmlns="http://www.w3.org/2000/svg" xmlns:xlink="http://www.w3.org/1999/xlink" viewBox="0 0 50 50" width="50px" height="50px"><path d="M42.421,30.307C42.232,30.11,41.972,30,41.7,30h-1.5c-0.538,0-0.98,0.426-0.999,0.964c-0.108,2.998-0.89,3.236-1.901,3.236c-1.076,0-2.117-1.881-2.868-5.172c0.301-1.071,0.76-2.808,1.344-5.308l3.5-15.5c0.066-0.296-0.005-0.607-0.194-0.845S38.604,7,38.3,7h-5.7c-0.469,0-0.875,0.326-0.977,0.784l-1.343,6.075c-0.863-2.087-1.854-3.792-2.928-5.018C25.75,7.009,23.458,6,20.9,6C17.173,6,10.371,8.529,8.52,18.004C8.17,19.753,8,21.518,8,23.4C8,40.506,19.49,41,20.8,41c4.628,0,8.067-1.789,10.667-5.591C32.704,39.078,34.526,41,36.8,41c2.257,0,3.435-1.543,4.371-3.21c0.929-1.648,1.414-3.794,1.528-6.751C42.71,30.767,42.609,30.503,42.421,30.307z M27.718,25.511c-0.546,2.842-1.304,5-1.828,6.275C24.172,35.563,22.391,36,21.2,36c-1.286,0-5.2,0-5.2-12c0-8.626,1.817-13,5.4-13c0.906,0,3.377,1.227,6.859,12.517L27.718,25.511z"/></svg>