<?xml version="1.0" encoding="utf-8"?><!-- Generator: Adobe Illustrator 15.0.0, SVG Export Plug-In . SVG Version: 6.00 Build 0)  --><!DOCTYPE svg PUBLIC "-//W3C//DTD SVG 1.1//EN" "http://www.w3.org/Graphics/SVG/1.1/DTD/svg11.dtd"><svg xmlns="http://www.w3.org/2000/svg" xmlns:xlink="http://www.w3.org/1999/xlink" viewBox="0 0 50 50" width="50px" height="50px"><path d="M49.771,12.665c-0.13-0.537-0.677-0.866-1.206-0.737c-0.537,0.13-0.867,0.67-0.737,1.207c0.017,0.07,1.024,4.607-1.768,11.517c-0.06,0.068-0.122,0.133-0.163,0.218c-4.602,9.658-12.449,16.277-20.994,17.706c-4.213,0.703-8.002-0.053-9.89-1.975c-4.264-4.355-2.066-12.246,5.604-20.105c0.908-0.938,1.742-1.146,2.223-1.024c0.235,0.059,0.385,0.197,0.445,0.409c0.126,0.444-0.098,1.287-1.095,2.314c-0.095,0.095-0.174,0.189-0.247,0.278c-0.02,0.024-0.038,0.048-0.057,0.069c-0.083,0.05-0.16,0.111-0.226,0.183c-4.034,4.401-6.306,10.735-2.285,14.967c1.322,1.382,2.972,2.082,4.904,2.082c0.009,0,0.019,0,0.029,0c4.218-0.016,8.949-3.45,11.697-6.366C47.364,22.049,47.075,9.666,40.916,3.302c-2.051-2.102-5.353-3.308-9.059-3.309c-0.001,0-0.002,0-0.004,0c-4.563,0-11.732,1.772-19.97,10.209C-2.536,25.028,0.108,36.839,0.228,37.334c0.13,0.537,0.668,0.872,1.207,0.737c0.537-0.129,0.867-0.67,0.737-1.206c-0.019-0.077-1.22-5.476,2.634-13.475c0.109-0.083,0.204-0.187,0.273-0.314C10.695,12.693,19.424,8.044,25.721,7.156C29.322,6.648,32.337,7.319,33.985,9c4.514,4.609,2.58,13.041-4.704,20.505c-0.908,0.939-1.741,1.143-2.223,1.024c-0.235-0.06-0.385-0.197-0.445-0.409c-0.126-0.444,0.098-1.288,1.092-2.312c0.097-0.097,0.178-0.192,0.252-0.282c0.02-0.024,0.037-0.047,0.057-0.068c0.082-0.05,0.158-0.111,0.224-0.183c4.034-4.4,6.306-10.734,2.285-14.967c-1.322-1.382-2.972-2.083-4.904-2.083c-0.009,0-0.019,0-0.029,0c-4.218,0.015-8.948,3.451-11.7,6.37C2.619,27.972,2.939,40.349,9.084,46.698c2.051,2.102,5.353,3.308,9.059,3.309c0.001,0,0.002,0,0.003,0c4.564,0,11.732-1.771,19.971-10.21C52.535,24.972,49.892,13.161,49.771,12.665z"/></svg>