<?xml version="1.0" encoding="iso-8859-1"?><!-- Generator: Adobe Illustrator 19.1.1, SVG Export Plug-In . SVG Version: 6.00 Build 0)  --><svg xmlns="http://www.w3.org/2000/svg" xmlns:xlink="http://www.w3.org/1999/xlink" viewBox="0 0 50 50" width="50px" height="50px"><circle cx="25" cy="25" r="7"/><path d="M49.118,6.173C48.589,6.003,36.03,2,25,2C12.297,2,2,12.297,2,25c0,4.815,1.482,9.283,4.011,12.977l15.874-4.544C18.456,32.161,16,28.867,16,25c0-4.109,2.771-7.576,6.54-8.65c0.103-0.102,0.223-0.182,0.391-0.216l26.213-8.067c0.405-0.143,0.674-0.527,0.668-0.957C49.806,6.682,49.526,6.305,49.118,6.173z"/><path d="M28.053,16.545C31.515,17.799,34,21.111,34,25c0,4.196-2.891,7.721-6.783,8.712c-0.103,0.077-0.214,0.141-0.353,0.169L0.856,41.932c-0.405,0.143-0.674,0.527-0.668,0.957s0.285,0.807,0.693,0.938C1.411,43.997,13.97,48,25,48c12.703,0,23-10.297,23-23c0-4.815-1.482-9.283-4.011-12.977L28.053,16.545z"/></svg>