<?xml version="1.0" encoding="iso-8859-1"?><!-- Generator: Adobe Illustrator 21.1.0, SVG Export Plug-In . SVG Version: 6.00 Build 0)  --><svg xmlns="http://www.w3.org/2000/svg" xmlns:xlink="http://www.w3.org/1999/xlink" viewBox="0 0 50 50" width="50px" height="50px"><path d="M30.513,4.401C29.604,3.472,28.369,3,26.843,3c-3.248,0-6.09,2.128-8.447,6.324c-1.277,2.274-2.269,5.577-3.158,8.676H10.3l-1.792,3.909h5.746c-0.301,1.361-1.29,5.765-1.455,6.742c-0.428,2.527-0.87,5.141-1.435,7.668c-0.065,0.29-0.132,0.616-0.204,0.969c-0.466,2.265-1.245,6.057-3.062,6.633c-0.239,0.075-0.434,0.095-0.579,0.082c0.439-0.502,0.725-1.138,0.816-1.836c0.034-0.147,0.063-0.338,0.039-0.545c-0.042-1.829-1.455-3.304-3.186-3.304C3.431,38.318,2,39.837,2,41.682c-0.002,0.096-0.035,2.361,1.486,3.917C4.396,46.528,5.63,47,7.156,47c7.226,0,9.793-9.529,10.637-12.66c0.854-3.169,1.43-6.445,1.986-9.614c0.205-1.167,0.477-1.653,0.695-2.816h5.109L27.375,18h-6.087c0.456-1.963,0.865-4.314,1.41-5.865c0.077-0.22,0.161-0.469,0.251-0.738c0.535-1.592,1.646-4.902,2.954-5.317c0.238-0.075,0.429-0.092,0.579-0.082c-0.443,0.506-0.73,1.147-0.817,1.854c-0.032,0.142-0.06,0.324-0.038,0.523c0.039,1.831,1.454,3.308,3.187,3.308c1.758,0,3.188-1.519,3.187-3.363C32.002,8.223,32.035,5.957,30.513,4.401z"/><path d="M44.537,29.78l-0.283,0.759c-0.71,1.907-1.532,2.761-2.031,2.761c-0.452,0-0.857-0.157-1.245-2.086l-0.693-3.437l-0.005-0.023l3.906-4.343c0.319,0.124,0.66,0.188,1.005,0.188c1.549,0,2.81-1.256,2.81-2.8S46.74,18,45.19,18c-0.802,0-1.57,0.35-2.1,0.95l-3.865,4.288C38.717,21.175,37.678,18,33.921,18c-2.589,0-5.017,2.287-6.837,6.439l-0.524,1.196l3.9,0.585l0.283-0.761c0.708-1.906,1.526-2.76,2.023-2.76c0.45,0,0.853,0.157,1.24,2.086l0.687,3.416c0,0,0.005,0.022,0.013,0.06l-3.892,4.326c-0.318-0.123-0.658-0.188-1.004-0.188c-1.549,0-2.81,1.256-2.81,2.8s1.26,2.8,2.81,2.8c0.827,0,1.611-0.368,2.126-0.982l3.818-4.236C36.266,34.845,37.312,38,41.065,38c2.593,0,5.026-2.286,6.851-6.438l0.526-1.198L44.537,29.78z"/></svg>