<?xml version="1.0" encoding="iso-8859-1"?><!-- Generator: Adobe Illustrator 21.1.0, SVG Export Plug-In . SVG Version: 6.00 Build 0)  --><svg xmlns="http://www.w3.org/2000/svg" xmlns:xlink="http://www.w3.org/1999/xlink" viewBox="0 0 50 50" width="50px" height="50px"><path d="M37,3H13C7.49,3,3,7.49,3,13v24c0,5.51,4.49,10,10,10h24c5.51,0,10-4.49,10-10V13C47,7.49,42.51,3,37,3z M25,33h-2l-7.9-12.91V33H13V17h2.4L23,30.18V17h2V33z M38,32.69c0,0-0.57,0.28-1.23,0.28c-0.47,0-0.85-0.09-1.23-0.37c-0.39-0.28-0.42-0.89-0.48-1.31c0,0.25-1.28,0.95-1.48,1.05c-0.54,0.3-1.13,0.5-1.74,0.59c-1.18,0.16-2.57,0.09-3.57-0.62c-0.96-0.67-1.42-1.94-1.23-3.08c0.13-0.73,0.51-1.4,1.07-1.89c0.64-0.57,1.46-0.75,2.28-0.93c0.94-0.22,1.89-0.4,2.85-0.56c0.33-0.05,0.67-0.1,0.97-0.26c0.62-0.35,0.71-1.23,0.43-1.84c-0.22-0.49-0.7-0.8-1.2-0.97c-1.03-0.35-2.4-0.3-3.35,0.25c-0.67,0.38-0.89,1.04-0.89,1.78c0-0.01-1.71-0.01-1.89-0.01c0-0.73,0.18-1.28,0.47-1.74c0.84-1.37,2.45-1.93,3.98-2.03c1.43-0.1,3.25,0.02,4.29,1.13c0.49,0.52,0.72,1.2,0.72,1.91v5.87c0,0.46,0,0.73,0.09,1.01c0.1,0.18,0.19,0.27,0.57,0.27c0.19,0,0.38,0,0.57-0.09V32.69z"/><path d="M35.16,26.82c0,0,0,1.22,0,1.84c0,0.94-0.75,1.7-1.56,2.11c-1.31,0.67-4.07,0.91-4.31-1.12c-0.07-0.59,0.2-1.19,0.65-1.56c0.51-0.42,1.25-0.53,1.89-0.61c0.68-0.09,1.38-0.11,2.05-0.28C34.28,27.09,35.16,26.82,35.16,26.82z"/></svg>