<?xml version="1.0" encoding="iso-8859-1"?>
<!-- Generator: Adobe Illustrator 23.0.3, SVG Export Plug-In . SVG Version: 6.00 Build 0)  -->
<svg version="1.1" id="Layer_1" xmlns="http://www.w3.org/2000/svg" xmlns:xlink="http://www.w3.org/1999/xlink" x="0px" y="0px"
	 viewBox="0 0 50 50" style="enable-background:new 0 0 50 50;" xml:space="preserve">
<path d="M12,39h32V2H12C8.691,2,6,4.691,6,8v34.417C6,45.495,8.691,48,12,48h32v-2H12c-2.168,0-4-1.641-4-3.583
	C8,40.501,9.757,39,12,39z M13,27c-0.552,0-1-0.448-1-1c0-0.552,0.448-1,1-1s1,0.448,1,1C14,26.552,13.552,27,13,27z M16,25
	c-0.552,0-1-0.448-1-1c0-0.552,0.448-1,1-1s1,0.448,1,1C17,24.552,16.552,25,16,25z M37,27c-0.552,0-1-0.448-1-1
	c0-0.552,0.448-1,1-1s1,0.448,1,1C38,26.552,37.552,27,37,27z M39,18c0.552,0,1,0.448,1,1c0,0.552-0.448,1-1,1s-1-0.448-1-1
	C38,18.448,38.448,18,39,18z M37,11c0.552,0,1,0.448,1,1c0,0.552-0.448,1-1,1s-1-0.448-1-1C36,11.448,36.448,11,37,11z M36,19
	c0,0.552-0.448,1-1,1s-1-0.448-1-1c0-0.552,0.448-1,1-1S36,18.448,36,19z M34,13c0.552,0,1,0.448,1,1c0,0.552-0.448,1-1,1
	s-1-0.448-1-1C33,13.448,33.448,13,34,13z M34,23c0.552,0,1,0.448,1,1c0,0.552-0.448,1-1,1s-1-0.448-1-1C33,23.448,33.448,23,34,23z
	 M25,13c3.314,0,6,2.686,6,6c0,2.22-1.208,4.153-3,5.191V27c0,1.105-0.895,2-2,2c0,0.552-0.448,1-1,1s-1-0.448-1-1
	c-1.105,0-2-0.895-2-2v-2.809c-1.792-1.038-3-2.971-3-5.191C19,15.686,21.686,13,25,13z M16,13c0.552,0,1,0.448,1,1
	c0,0.552-0.448,1-1,1s-1-0.448-1-1C15,13.448,15.448,13,16,13z M15,18c0.552,0,1,0.448,1,1c0,0.552-0.448,1-1,1s-1-0.448-1-1
	C14,18.448,14.448,18,15,18z M13,11c0.552,0,1,0.448,1,1c0,0.552-0.448,1-1,1s-1-0.448-1-1C12,11.448,12.448,11,13,11z M11,18
	c0.552,0,1,0.448,1,1c0,0.552-0.448,1-1,1s-1-0.448-1-1C10,18.448,10.448,18,11,18z"/>
<line style="fill:none;stroke:#000000;stroke-width:2;stroke-linejoin:round;stroke-miterlimit:10;" x1="24" y1="25" x2="29" y2="25"/>
</svg>