<?xml version="1.0" encoding="utf-8"?><!-- Generator: Adobe Illustrator 15.0.0, SVG Export Plug-In . SVG Version: 6.00 Build 0)  --><!DOCTYPE svg PUBLIC "-//W3C//DTD SVG 1.1//EN" "http://www.w3.org/Graphics/SVG/1.1/DTD/svg11.dtd"><svg xmlns="http://www.w3.org/2000/svg" xmlns:xlink="http://www.w3.org/1999/xlink" viewBox="0 0 50 50" width="50px" height="50px"><path d="M47.508,2.593l-15.402,9.762l2.53-5.545L31.89,8.44C31.081,8.92,12.023,20.263,6.593,25.593c-4.884,4.884-4.884,12.83,0,17.714c2.365,2.365,5.511,3.668,8.857,3.668c3.346,0,6.492-1.303,8.849-3.659c4.246-4.146,13.185-19.266,13.563-19.908l1.434-2.431l-5.619,2.095L47.508,2.593z M15,41c-3.3,0-6-2.7-6-6s2.7-6,6-6s6,2.7,6,6S18.3,41,15,41z"/></svg>