<?xml version="1.0" encoding="iso-8859-1"?>
<!-- Generator: Adobe Illustrator 24.2.1, SVG Export Plug-In . SVG Version: 6.00 Build 0)  -->
<svg version="1.1" id="Layer_1" xmlns="http://www.w3.org/2000/svg" xmlns:xlink="http://www.w3.org/1999/xlink" x="0px" y="0px"
	 viewBox="0 0 50 50" style="enable-background:new 0 0 50 50;" xml:space="preserve">
<path d="M10.6,28.91c0,2.59,0.91,5.1,2.22,7.19L4,44V15h10v7.43C11.96,23.77,10.6,26.17,10.6,28.91z"/>
<path d="M34,35v9H6.95l7-6.34c1.79,2.19,3.95,3.61,5.58,3.61c0.89,0,1.63-0.07,2.43-0.35c0.73,0.25,1.43,0.35,2.37,0.35
	c2.2,0,5.68-2.29,7.58-6.27H34z"/>
<polygon points="44,4 36,13 4,13 13,4 "/>
<polygon points="44,6.96 44,35 36,44 36,15.88 "/>
<path d="M17.8,23.267c-2.889,0-5.2,2.52-5.2,5.64c0,5.64,5.019,10.36,6.933,10.36c1.025,0,1.605-0.098,2.4-0.52
	c0.808,0.388,1.35,0.52,2.4,0.52c1.914,0,6.933-3.76,6.933-10.36c0-3.12-2.311-5.64-5.2-5.64c-1.336,0-3.231,0.453-4.133,1.333
	C21.031,23.72,19.136,23.267,17.8,23.267L17.8,23.267z"/>
<path d="M22.68,21.89c-0.26,0.09-0.51,0.2-0.75,0.32c-0.44-0.22-0.91-0.4-1.39-0.53c-0.29-0.67-0.96-1.28-1.99-1.78l0.9-1.8
	c1.64,0.82,2.68,1.9,3.09,3.2C22.6,21.5,22.65,21.7,22.68,21.89z"/>
</svg>