<?xml version="1.0" encoding="iso-8859-1"?>
<!-- Generator: Adobe Illustrator 22.1.0, SVG Export Plug-In . SVG Version: 6.00 Build 0)  -->
<svg version="1.1" id="Layer_1" xmlns="http://www.w3.org/2000/svg" xmlns:xlink="http://www.w3.org/1999/xlink" x="0px" y="0px"
	 viewBox="0 0 50 50" style="enable-background:new 0 0 50 50;" xml:space="preserve">
<path d="M43,14c0-8.371-5.785-12.75-11.5-12.75S20,5.629,20,14v1c0,1.128-2.376,4.019-4.472,6.569C11.729,26.192,7,31.945,7,36.926
	c0,3.417,1.207,6.644,3.409,9.289C10.576,46.088,10.774,46,11,46c0.004,0,0.008,0,0.012,0c0.251,0,0.554-0.033,0.898-0.1
	c0.541-0.102,1.065,0.252,1.17,0.795c0.104,0.542-0.252,1.066-0.795,1.17c-0.068,0.013-0.129,0.018-0.196,0.03
	C12.222,47.957,12.363,48,12.512,48h20.977c0.135,0,0.265-0.032,0.388-0.083c-0.363-0.051-0.733-0.125-1.108-0.225
	c-0.534-0.143-0.852-0.69-0.71-1.224c0.143-0.535,0.698-0.847,1.224-0.71C33.885,45.919,34.463,46,35,46
	c0.226,0,0.424,0.088,0.591,0.214C37.792,43.57,39,40.343,39,36.926c0-2.55-1.207-5.488-3.75-9.182C38.846,24.136,43,19.691,43,14z
	 M18.138,45.355c-0.567,0.378-1.184,0.736-1.83,1.065c-0.146,0.073-0.3,0.108-0.452,0.108c-0.364,0-0.716-0.2-0.893-0.547
	c-0.25-0.492-0.054-1.095,0.438-1.345c0.578-0.294,1.126-0.612,1.629-0.946c0.457-0.309,1.079-0.184,1.386,0.278
	C18.723,44.43,18.598,45.05,18.138,45.355z M21.999,40.049c0.001,0.706-0.233,1.476-0.695,2.239
	c-0.188,0.311-0.518,0.482-0.856,0.482c-0.176,0-0.354-0.047-0.517-0.145c-0.473-0.285-0.624-0.9-0.338-1.373
	C19.863,40.806,20,40.385,20,40l0.011-0.193c0.041-0.55,0.499-0.965,1.072-0.922c0.551,0.041,0.963,0.521,0.922,1.072L21.999,40.049
	z M23.595,34.676c-0.308,0.553-0.574,1.118-0.791,1.679c-0.152,0.397-0.531,0.641-0.933,0.641c-0.12,0-0.241-0.021-0.359-0.067
	c-0.516-0.198-0.772-0.777-0.573-1.292c0.25-0.648,0.556-1.299,0.91-1.935c0.269-0.482,0.877-0.655,1.36-0.386
	C23.691,33.584,23.864,34.193,23.595,34.676z M24.276,30.286c0.444-0.519,0.91-1.023,1.39-1.521
	c0.385-0.396,1.017-0.408,1.414-0.025s0.409,1.016,0.025,1.414c-0.452,0.469-0.891,0.944-1.31,1.434
	c-0.198,0.231-0.479,0.35-0.76,0.35c-0.23,0-0.462-0.079-0.65-0.24C23.966,31.337,23.917,30.705,24.276,30.286z M29.504,32.194
	c0.435,0.342,0.511,0.97,0.17,1.404c-0.419,0.533-0.771,1.037-1.077,1.541c-0.188,0.31-0.518,0.48-0.855,0.48
	c-0.177,0-0.356-0.047-0.519-0.146c-0.472-0.287-0.622-0.902-0.335-1.374c0.348-0.572,0.744-1.141,1.212-1.736
	C28.439,31.929,29.07,31.854,29.504,32.194z M28.542,25.935c0.475-0.459,0.951-0.921,1.42-1.388
	c0.392-0.391,1.024-0.389,1.414,0.002c0.39,0.391,0.389,1.024-0.002,1.414c-0.477,0.475-0.959,0.943-1.441,1.41
	c-0.194,0.188-0.445,0.281-0.695,0.281c-0.262,0-0.522-0.102-0.719-0.305C28.135,26.951,28.146,26.318,28.542,25.935z
	 M26.104,41.279c-0.032,0.003-0.063,0.004-0.094,0.004c-0.511,0-0.946-0.389-0.995-0.907c-0.012-0.13-0.017-0.259-0.016-0.387
	c0.052-0.693,0.141-1.31,0.269-1.897c0.118-0.539,0.646-0.883,1.19-0.765c0.539,0.118,0.882,0.65,0.765,1.19
	c-0.109,0.499-0.185,1.023-0.227,1.559c0.003,0.001,0.005,0.057,0.011,0.114C27.059,40.741,26.654,41.228,26.104,41.279z
	 M30.247,45.587c-0.195,0.276-0.505,0.425-0.819,0.425c-0.198,0-0.399-0.059-0.574-0.182c-0.606-0.427-1.167-0.897-1.665-1.4
	c-0.389-0.393-0.387-1.025,0.006-1.414c0.393-0.39,1.025-0.387,1.414,0.006c0.416,0.419,0.885,0.813,1.396,1.172
	C30.455,44.511,30.564,45.135,30.247,45.587z M33.684,29.308c-0.493,0.49-0.959,0.953-1.407,1.408
	c-0.195,0.198-0.453,0.298-0.712,0.298c-0.254,0-0.507-0.096-0.702-0.288c-0.394-0.387-0.397-1.021-0.01-1.414
	c0.452-0.459,0.923-0.927,1.408-1.409c0.392-0.39,1.032-0.394,1.42-0.002C34.07,28.292,34.075,28.919,33.684,29.308z M31.575,22.923
	c-0.37-0.454-0.744-0.917-1.104-1.353C28.376,19.019,26,16.128,26,15v-1c0-4.982,2.963-6.75,5.5-6.75S37,9.018,37,14
	C37,16.963,34.613,19.821,31.575,22.923z"/>
</svg>