<?xml version="1.0" encoding="iso-8859-1"?><!-- Generator: Adobe Illustrator 22.1.0, SVG Export Plug-In . SVG Version: 6.00 Build 0)  --><svg xmlns="http://www.w3.org/2000/svg" xmlns:xlink="http://www.w3.org/1999/xlink" viewBox="0 0 50 50" width="50px" height="50px"><g></g><g></g><g></g><path style="fill:none;stroke:#000000;stroke-width:2;stroke-linecap:round;stroke-linejoin:round;stroke-miterlimit:10;" d="M20.54,13C19.58,11.94,19,10.54,19,9c0-3.31,2.69-6,6-6s6,2.69,6,6c0,1.54-0.58,2.94-1.54,4"/><path d="M49.975,46.775l-7.82-34C42.05,12.321,41.646,12,41.18,12H8.82c-0.466,0-0.87,0.321-0.975,0.775l-7.82,34c-0.068,0.297,0.003,0.609,0.192,0.848S0.695,48,1,48h48c0.305,0,0.593-0.139,0.782-0.377S50.043,47.072,49.975,46.775z M21.717,36l-3.139-4.21l-0.787,0.789V36h-2.218V22.381h2.218v7.802h0.152l3.612-4.004h2.575l-3.898,4.21L24.399,36H21.717z M34.436,35.981c0,2.262-1.807,3.684-4.659,3.684c-2.513,0-4.157-1.108-4.337-2.79h2.227c0.144,0.671,0.931,1.1,2.146,1.1c1.52,0,2.405-0.715,2.405-1.939v-1.852h-0.152c-0.563,1.047-1.627,1.619-2.986,1.619c-2.468,0-4.006-1.914-4.006-4.855c0-2.996,1.547-4.945,4.042-4.945c1.332,0,2.494,0.662,3.031,1.726h0.151v-1.564h2.138V35.981z"/><path d="M29.776,27.888c-1.547,0-2.423,1.189-2.423,3.059c0,1.868,0.876,3.049,2.423,3.049s2.477-1.181,2.477-3.049C32.253,29.078,31.314,27.888,29.776,27.888z"/></svg>