<?xml version="1.0" encoding="iso-8859-1"?><!-- Generator: Adobe Illustrator 22.0.1, SVG Export Plug-In . SVG Version: 6.00 Build 0)  --><svg xmlns="http://www.w3.org/2000/svg" xmlns:xlink="http://www.w3.org/1999/xlink" viewBox="0 0 50 50" width="50px" height="50px"><circle style="fill:none;stroke:#000000;stroke-width:2;stroke-miterlimit:10;" cx="25" cy="25" r="22"/><line style="fill:none;stroke:#000000;stroke-width:2;stroke-linejoin:round;stroke-miterlimit:10;" x1="10" y1="25" x2="10" y2="32"/><path d="M12,33c0,1.1-2,4-2,4s-2-2.9-2-4s0.9-2,2-2S12,31.9,12,33z"/><path d="M44,23c0,0.38-0.21,0.73-0.55,0.89L38,27.62V26c0-0.86-0.24-1.58-0.67-2.17C35.28,21,29.02,21,25,21c-4.14,0-10.65,0-12.5,3.08C12.18,24.62,12,25.25,12,26v1.62L6.55,23.9C6.21,23.73,6,23.38,6,23s0.21-0.73,0.55-0.9l18-8c0.28-0.14,0.62-0.14,0.9,0l18,8C43.79,22.27,44,22.62,44,23z"/><path d="M36,26v2.45C34.26,27.65,31.03,27,25,27s-9.26,0.65-11,1.45V26c0-2.61,5.4-3,11-3S36,23.39,36,26z"/><ellipse cx="25" cy="31" rx="11" ry="2"/></svg>