<?xml version="1.0" encoding="iso-8859-1"?><!-- Generator: Adobe Illustrator 21.1.0, SVG Export Plug-In . SVG Version: 6.00 Build 0)  --><svg xmlns="http://www.w3.org/2000/svg" xmlns:xlink="http://www.w3.org/1999/xlink" viewBox="0 0 50 50" width="50px" height="50px"><g><g><g><g></g></g></g></g><path style="fill:none;stroke:#000000;stroke-width:2;stroke-linecap:round;stroke-linejoin:round;stroke-miterlimit:10;" d="M12,10c0-0.78,1.901-4.073,6-4c1.156,0.021,2.5,0.25,4,1c0-1.75,2.575-6,7-6c3.075,0,5,1,6,2c2.5-1.5,4.75-2,8-2"/><path style="fill:none;stroke:#000000;stroke-width:2;stroke-linecap:round;stroke-linejoin:round;stroke-miterlimit:10;" d="M49,6c0,0-1.5,4-8,4c0,0-1.5,2-4.5,2S32,10,32,10"/><line style="fill:none;stroke:#000000;stroke-width:2;stroke-linecap:round;stroke-linejoin:round;stroke-miterlimit:10;" x1="7" y1="15" x2="29" y2="15"/><path d="M28,26V15H8v11c0,2.179-2.935,8.666-5.078,13.403C0.802,44.09,0,45.942,0,46.8C0,47.997,0,50,18,50s18-2.003,18-3.2c0-0.857-0.802-2.71-2.922-7.396C30.935,34.666,28,28.179,28,26z M20.5,38L15,42l-1.25-4h1.901l2.891-5h-4.493l4.271-9h2.214l-3.321,7h4.797l-4.047,7H20.5z"/></svg>