<?xml version="1.0" encoding="iso-8859-1"?><!-- Generator: Adobe Illustrator 21.1.0, SVG Export Plug-In . SVG Version: 6.00 Build 0)  --><svg xmlns="http://www.w3.org/2000/svg" xmlns:xlink="http://www.w3.org/1999/xlink" viewBox="0 0 50 50" width="50px" height="50px"><path d="M41,4H9C6.24,4,4,6.24,4,9v32c0,2.76,2.24,5,5,5h32c2.76,0,5-2.24,5-5V9C46,6.24,43.76,4,41,4z M12.5,25.6c-0.9-1.5-1.4-3.5-1.4-6.3s0.5-4.9,1.4-6.3c0.9-1.4,2.3-2.1,4-2.1c1.8,0,3.1,0.7,4.1,2.2s1.4,3.6,1.4,6.3c0,2.8-0.5,4.9-1.4,6.3c-0.9,1.4-2.3,2.1-4.1,2.1C14.8,27.8,13.5,27.1,12.5,25.6z M16,39l15.3-28H34L18.7,39H16z M37.6,36.9c-0.9,1.4-2.3,2.1-4.1,2.1c-1.7,0-3.1-0.7-4-2.2c-0.9-1.4-1.4-3.5-1.4-6.2c0-2.8,0.5-4.9,1.4-6.3c0.9-1.4,2.3-2.1,4-2.1s3.1,0.7,4,2.1c1,1.5,1.5,3.6,1.5,6.3C39,33.4,38.5,35.5,37.6,36.9z"/><path d="M36.5,30.6c0,2.1-0.2,3.7-0.7,4.7s-1.3,1.5-2.3,1.5s-1.7-0.5-2.2-1.5c-0.5-1.1-0.7-2.6-0.7-4.7c0-2.1,0.2-3.6,0.7-4.6c0.4-1,1.1-1.5,2.2-1.5c1.1,0,1.8,0.5,2.3,1.5S36.5,28.5,36.5,30.6z"/><path d="M19.5,19.5c0,4.1-1,6.2-3,6.2c-1,0-1.7-0.6-2.2-1.6c-0.5-1.1-0.7-2.6-0.7-4.7c0-2.1,0.3-3.7,0.7-4.6c0.5-1,1.2-1.5,2.2-1.5C18.5,13.3,19.5,15.4,19.5,19.5z"/></svg>