<svg xmlns="http://www.w3.org/2000/svg"  viewBox="0 0 50 50" width="50px" height="50px"><path d="M 36.138672 2 C 35.760016 1.9887969 35.392141 2.1942344 35.212891 2.5527344 L 34.203125 4.8144531 C 33.948125 5.3234531 34.170406 5.9437812 34.691406 6.1757812 L 36.261719 6.8730469 L 35.115234 9.4707031 L 34.681641 9.2929688 C 34.072641 9.0459688 33.593922 8.8519375 33.044922 9.0859375 C 32.496922 9.3199375 32.303828 9.8033594 32.048828 10.443359 L 28.396484 19.28125 L 37.494141 22.921875 L 41.140625 14.134766 C 41.732625 12.650766 41.472234 12.049031 39.990234 11.457031 L 39.224609 11.144531 L 40.287109 8.6621094 L 41.861328 9.3613281 C 42.350328 9.5783281 42.923109 9.3725312 43.162109 8.8945312 L 44.171875 6.6328125 C 44.426875 6.1228125 44.204594 5.5034844 43.683594 5.2714844 L 36.513672 2.0859375 C 36.391422 2.0316875 36.264891 2.0037344 36.138672 2 z M 42.779297 15.400391 L 40.449219 21.021484 C 41.019219 21.677484 41.218375 22.701891 40.859375 23.587891 L 39.111328 27.761719 C 39.242328 27.753719 39.372859 27.742187 39.505859 27.742188 C 41.630859 27.742188 43.526625 28.729578 44.765625 30.267578 L 46.332031 26.527344 C 48.004031 22.397344 46.415297 17.738391 42.779297 15.400391 z M 27.671875 21.146484 L 27.107422 22.666016 C 27.018422 22.906016 27.024953 23.17125 27.126953 23.40625 L 28.212891 25.941406 C 28.316891 26.185406 28.512766 26.378562 28.759766 26.476562 L 32.378906 27.921875 C 32.497906 27.969875 32.622047 27.992187 32.748047 27.992188 C 32.882047 27.992188 33.016578 27.966109 33.142578 27.912109 L 35.679688 26.826172 C 35.931688 26.719172 36.126656 26.514813 36.222656 26.257812 L 36.769531 24.783203 L 27.671875 21.146484 z M 8.0039062 22 A 1.0001 1.0001 0 1 0 8.0039062 24 L 9.0039062 24 L 9.0039062 29.791016 L 3.3144531 42.796875 C 2.4625395 44.745369 3.9357393 47 6.0625 47 L 20.769531 47 C 22.958168 47 24.432306 44.615092 23.453125 42.658203 L 17.003906 29.763672 L 17.003906 24 L 18.003906 24 A 1.0001 1.0001 0 1 0 18.003906 22 L 8.0039062 22 z M 11.003906 24 L 15.003906 24 L 15.003906 30.236328 L 16.886719 34 L 9.3457031 34 L 11.003906 30.208984 L 11.003906 24 z M 22.007812 26.990234 C 21.618094 27.001906 21.254719 27.241906 21.105469 27.628906 C 20.905469 28.143906 21.160781 28.723828 21.675781 28.923828 L 34.621094 33.943359 C 34.679603 33.965977 34.739343 33.965557 34.798828 33.976562 C 34.77941 34.15078 34.746094 34.320696 34.746094 34.5 C 34.746094 37.123 36.880906 39.257813 39.503906 39.257812 C 42.126906 39.257812 44.261719 37.123 44.261719 34.5 C 44.261719 31.877 42.126906 29.742188 39.503906 29.742188 C 37.752129 29.742188 36.235706 30.705215 35.410156 32.119141 C 35.386612 32.107818 35.370471 32.087744 35.345703 32.078125 L 22.398438 27.058594 C 22.269688 27.008844 22.137719 26.986344 22.007812 26.990234 z M 21.841797 35.076172 L 24.802734 41 L 37.654297 41 C 35.888297 40.496 34.416594 39.290078 33.558594 37.705078 C 33.037594 37.915078 32.299859 38.011719 31.005859 38.011719 C 29.519859 38.011719 25.142359 36.341438 22.693359 35.273438 C 22.415359 35.165438 22.129797 35.109172 21.841797 35.076172 z M 11.003906 37 C 11.555906 37 12.003906 37.448 12.003906 38 C 12.003906 38.552 11.556906 39 11.003906 39 C 10.451906 39 10.003906 38.552 10.003906 38 C 10.003906 37.448 10.451906 37 11.003906 37 z M 14.503906 39 C 15.331906 39 16.003906 39.672 16.003906 40.5 C 16.003906 41.328 15.332906 42 14.503906 42 C 13.675906 42 13.003906 41.328 13.003906 40.5 C 13.003906 39.672 13.675906 39 14.503906 39 z M 25.613281 43 C 25.868281 44.232 25.649797 45.522906 24.966797 46.628906 C 24.885797 46.758906 24.793125 46.879 24.703125 47 L 46 47 C 46.552 47 47 46.552 47 46 C 47 44.343 45.657 43 44 43 L 38.396484 43 L 38.287109 43 L 25.613281 43 z"/></svg>