<?xml version="1.0" encoding="utf-8"?><!-- Generator: Adobe Illustrator 15.0.0, SVG Export Plug-In . SVG Version: 6.00 Build 0)  --><!DOCTYPE svg PUBLIC "-//W3C//DTD SVG 1.1//EN" "http://www.w3.org/Graphics/SVG/1.1/DTD/svg11.dtd"><svg xmlns="http://www.w3.org/2000/svg" xmlns:xlink="http://www.w3.org/1999/xlink" viewBox="0 0 50 50" width="50px" height="50px"><path d="M28.348,49.015c-9.978,0-15.362-7.221-15.362-14.015s5.384-14.015,15.362-14.015c9.558,0,20.667,6.122,20.667,14.015S37.905,49.015,28.348,49.015z"/><path d="M10.985,35c0-7.764,6.085-16.015,17.362-16.015c0.171,0,0.344,0.007,0.515,0.01C27.877,10.152,22.169,0.985,15,0.985c-7.893,0-14.015,11.11-14.015,20.667c0,7.952,4.704,13.052,10.068,14.736C11.01,35.926,10.985,35.462,10.985,35z"/></svg>