<?xml version="1.0" encoding="utf-8"?><!-- Generator: Adobe Illustrator 15.0.0, SVG Export Plug-In . SVG Version: 6.00 Build 0)  --><!DOCTYPE svg PUBLIC "-//W3C//DTD SVG 1.1//EN" "http://www.w3.org/Graphics/SVG/1.1/DTD/svg11.dtd"><svg xmlns="http://www.w3.org/2000/svg" xmlns:xlink="http://www.w3.org/1999/xlink" viewBox="0 0 50 50" width="50px" height="50px"><path d="M25,33C10.981,33,0,27.685,0,20.9v-1.8C0,12.315,10.981,7,25,7s25,5.315,25,12.1v1.8C50,27.685,39.019,33,25,33z"/><path d="M49.243,24.411C48.977,25.611,48.6,26.8,48.6,26.8c-1,2.601-3.399,6-8,6.601C36.3,36.7,30.6,38.1,25,36.1c-3.1,0.9-6.6,0.4-9.5-0.899c-3.9,1.1-7-1.2-8.5-2.9c-3.2-0.6-5.1-3-5.6-5.5c0,0-0.302-1.324-0.541-2.569C0.197,25.849,0,28.966,0,29v1.8C0,37.641,10.981,43,25,43s25-5.314,25-12.1V29.1C50,29.066,49.871,26.187,49.243,24.411z"/></svg>