<?xml version="1.0" encoding="iso-8859-1"?><!-- Generator: Adobe Illustrator 21.1.0, SVG Export Plug-In . SVG Version: 6.00 Build 0)  --><svg xmlns="http://www.w3.org/2000/svg" xmlns:xlink="http://www.w3.org/1999/xlink" viewBox="0 0 50 50" width="500px" height="500px"><g><g><g><g><g></g></g></g></g></g><path d="M21,9c-0.443,0-0.881,0.062-1.312,0.184C18.867,7.897,17.181,7,15.5,7c-1.936,0-3.643,1.241-4.275,3H11c-2.113,0-3.722,0.784-4.742,2.225c2.681,0.332,6.439,1.162,9.223,3.201C17.315,13.33,20.003,12,23,12c0.94,0,1.845,0.139,2.708,0.383C25.032,10.422,23.188,9,21,9z"/><path d="M29.813,14.737c0.651-0.671,1.398-1.304,2.242-1.897c2.337-1.643,5.069-2.581,8.137-2.798C39.318,9.384,38.207,9,37,9c-0.039,0-0.081,0.001-0.126,0.001C36.429,7.277,34.861,6,33,6c-1.448,0-2.548,0.523-3.337,1.595C28.88,7.203,27.977,7,27,7c-0.998,0-1.939,0.295-2.733,0.814c2.028,1.075,3.454,3.12,3.686,5.51C28.634,13.715,29.245,14.203,29.813,14.737z"/><path d="M37.579,19c1.404-1.367,3.007-1.917,3.104-1.948c0.527-0.176,1.09,0.108,1.265,0.632s-0.106,1.088-0.629,1.264c-0.003,0.001-0.054,0.019-0.137,0.053h6.056c0.776-2.822,0.763-5.068,0.761-5.195c-0.006-0.42-0.272-0.791-0.669-0.93c-0.179-0.064-2.632-0.882-5.831-0.865c-2.548,0.013-5.569,0.549-8.294,2.466c-1.858,1.307-3.155,2.823-3.898,4.524H37.579z"/><path d="M27.168,19c0.329-0.962,0.794-1.874,1.398-2.734C27.125,14.866,25.163,14,23,14c-2.403,0-4.556,1.07-6.024,2.753c0.622,0.667,1.148,1.426,1.59,2.247H27.168z"/><path d="M7,19c0-0.256,0.098-0.512,0.293-0.707c0.391-0.391,1.023-0.391,1.414,0L9.414,19h6.819c-0.506-0.705-1.098-1.335-1.78-1.855C10.385,14.036,3.3,14,3,14c-0.281,0-0.549,0.118-0.738,0.326c-0.189,0.207-0.283,0.485-0.258,0.765c0.011,0.113,0.18,1.857,0.813,3.909H7z"/><path d="M48.353,28c0.393-1.741,0.583-3.361,0.645-4.779c0.026-0.59-0.19-1.17-0.594-1.591C48.016,21.224,47.5,21,46.951,21H3.049c-0.549,0-1.064,0.224-1.453,0.63c-0.403,0.421-0.62,1.001-0.594,1.591C1.064,24.639,1.253,26.259,1.646,28H48.353z"/><path d="M9.583,41.944c1.718,1.876,4.615,2.046,10.063,2.046c0.612,0,8.695-0.005,8.695-0.005c6.775,0.026,10.16,0.043,12.077-2.052c0.05-0.055,0.132-0.136,0.241-0.246c3.882-3.888,6.016-7.986,7.158-11.687H2.181c1.141,3.704,3.276,7.806,7.159,11.697C9.45,41.806,9.532,41.888,9.583,41.944z"/></svg>