<?xml version="1.0" encoding="iso-8859-1"?>
<!-- Generator: Adobe Illustrator 23.0.6, SVG Export Plug-In . SVG Version: 6.00 Build 0)  -->
<svg version="1.1" id="Filled" xmlns="http://www.w3.org/2000/svg" xmlns:xlink="http://www.w3.org/1999/xlink" x="0px" y="0px"
	 viewBox="0 0 50 50" style="enable-background:new 0 0 50 50;" xml:space="preserve">
<path d="M40.158,2.293c-0.391-0.391-1.023-0.391-1.414,0L2.293,38.744c-0.391,0.391-0.391,1.023,0,1.414
	C7.35,45.215,14.073,48,21.226,48c7.151,0,13.875-2.785,18.933-7.842C50.598,29.718,50.598,12.732,40.158,2.293z M40.566,27.938
	c0.123,0.241,0.139,0.508,0.045,0.754c-0.789,2.06-1.899,3.97-3.3,5.68c-0.172,0.211-0.421,0.335-0.7,0.349
	c-0.279,0.012-0.569-0.093-0.772-0.296L24.834,23.42l15.103,4.01C40.209,27.501,40.438,27.687,40.566,27.938z M34.724,36.614
	c-0.013,0.276-0.135,0.522-0.343,0.693c-0.675,0.555-1.393,1.078-2.135,1.553c-1.062,0.68-2.197,1.26-3.377,1.725
	c-0.28,0.11-0.592,0.098-0.854-0.035c-0.255-0.128-0.437-0.351-0.511-0.626l-4.064-15.07l10.984,10.984
	C34.629,36.043,34.738,36.326,34.724,36.614z M25.478,41.275c-0.146,0.227-0.372,0.377-0.643,0.423
	c-2.216,0.372-4.441,0.4-6.614,0.088c-0.354-0.051-0.555-0.281-0.643-0.414c-0.161-0.243-0.209-0.544-0.135-0.826l0.069-0.262
	l3.991-14.929l4.069,15.09c0.007,0.025,0.02,0.047,0.028,0.072l-0.007,0.002C25.664,40.78,25.623,41.048,25.478,41.275z
	 M15.588,39.739l-0.095,0.358c-0.074,0.275-0.261,0.509-0.514,0.642c-0.241,0.127-0.511,0.146-0.758,0.058
	c-2.587-0.923-4.907-2.355-6.942-4.212l12.492-12.492L15.588,39.739L15.588,39.739z M40.578,17.417
	c0.002-0.001,0.004-0.002,0.007-0.003l0,0.001c0.301-0.081,0.599-0.049,0.817,0.094c0.191,0.125,0.313,0.325,0.353,0.579
	c0.333,2.204,0.314,4.434-0.058,6.628c-0.045,0.269-0.199,0.5-0.435,0.651c-0.24,0.156-0.537,0.202-0.813,0.129l-15.073-4.002
	L40.578,17.417z M40.699,14.974c-0.132,0.251-0.365,0.438-0.639,0.511l-15.963,4.283L36.585,7.281
	c1.834,2.019,3.253,4.338,4.174,6.939C40.847,14.467,40.825,14.735,40.699,14.974z"/>
</svg>