<?xml version="1.0" encoding="utf-8"?><!-- Generator: Adobe Illustrator 15.0.0, SVG Export Plug-In . SVG Version: 6.00 Build 0)  --><!DOCTYPE svg PUBLIC "-//W3C//DTD SVG 1.1//EN" "http://www.w3.org/Graphics/SVG/1.1/DTD/svg11.dtd"><svg xmlns="http://www.w3.org/2000/svg" xmlns:xlink="http://www.w3.org/1999/xlink" viewBox="0 0 50 50" width="50px" height="50px"><path fill="none" stroke="#000000" stroke-width="2" stroke-miterlimit="10" d="M25,6C12.8,6,1,12.8,1,24s11.8,18,24,18s24-6.7,24-18C49,12.8,37.2,6,25,6z"/><path d="M50,24C50,11.659,37.119,5,25,5C14.057,5,4.708,10.026,1.36,17.584c-0.005,0.016-0.018,0.027-0.022,0.043c-0.002,0.006-0.003,0.012-0.005,0.019c-0.109,0.249-0.23,0.493-0.326,0.747c-0.052,0.139-0.099,0.38-0.033,0.669c-1.101,4.61-0.688,7.337,1.246,8.063c0.593,0.244,0.862,0.619,1.307,1.239c0.5,0.698,1.123,1.566,2.4,2.455c1.508,1.055,2.869,0.818,3.863,0.646c0.587-0.102,1.051-0.182,1.426-0.043c0.264,0.11,0.771,0.439,1.309,0.789c1.548,1.006,3.888,2.526,6.189,2.685c0.156,0.014,0.311,0.02,0.465,0.02c1.417,0,2.788-0.53,3.91-0.966c0.698-0.271,1.419-0.55,1.811-0.55c0.494,0,1.04,0.236,1.673,0.511c1.058,0.458,2.374,1.031,4.012,0.671c1.001-0.188,1.789-0.641,2.552-1.078c0.604-0.348,1.176-0.676,1.839-0.843c0.497-0.143,1.199-0.115,2.017-0.082c1.03,0.043,2.313,0.093,3.704-0.198c1.528-0.306,2.045-1.188,2.46-1.896c0.296-0.505,0.576-0.982,1.299-1.452c0.613-0.408,1.189-0.521,1.799-0.641c0.656-0.128,1.398-0.273,2.071-0.811c0.841-0.673,1.339-1.219,1.552-2.067l0.094,0.011l0.016-0.82C49.991,24.604,50,24.509,50,24.4c0-0.012-0.007-0.022-0.007-0.035L50,24z M6.625,15.782l2.7-1.9c0.453-0.317,1.076-0.209,1.394,0.242c0.318,0.452,0.209,1.076-0.242,1.394l-2.7,1.9C7.601,17.541,7.4,17.6,7.201,17.6c-0.314,0-0.624-0.148-0.819-0.424C6.064,16.724,6.173,16.1,6.625,15.782z M12.357,23.69c-0.131,0.432-0.528,0.71-0.957,0.71c-0.096,0-0.194-0.014-0.291-0.043l-3.3-1c-0.528-0.16-0.827-0.719-0.667-1.247s0.719-0.827,1.247-0.667l3.3,1C12.218,22.603,12.517,23.162,12.357,23.69z M20.969,8.014l3.5,0.6c0.544,0.094,0.91,0.61,0.817,1.155c-0.084,0.487-0.507,0.831-0.985,0.831c-0.056,0-0.113-0.004-0.17-0.014l-3.5-0.6c-0.544-0.094-0.91-0.61-0.817-1.155S20.424,7.92,20.969,8.014z M14.029,9.979c0.452-0.316,1.076-0.205,1.392,0.25l1.6,2.3c0.315,0.453,0.204,1.076-0.25,1.392c-0.174,0.121-0.373,0.179-0.57,0.179c-0.316,0-0.627-0.149-0.822-0.429l-1.6-2.3C13.464,10.917,13.576,10.294,14.029,9.979z M20.355,29.019c-0.188,0.31-0.518,0.481-0.856,0.481c-0.177,0-0.355-0.047-0.518-0.145l-3.3-2c-0.472-0.286-0.623-0.901-0.336-1.374c0.287-0.472,0.901-0.623,1.374-0.336l3.3,2C20.491,27.931,20.642,28.546,20.355,29.019z M31.348,28.737l-2.899,1.899c-0.169,0.11-0.359,0.163-0.547,0.163c-0.326,0-0.646-0.159-0.838-0.452c-0.302-0.462-0.173-1.082,0.289-1.385l2.899-1.899c0.464-0.303,1.082-0.172,1.385,0.289C31.938,27.814,31.81,28.435,31.348,28.737z M25,24c-4.418,0-8-2.239-8-5s3.582-5,8-5c4.418,0,8,2.239,8,5S29.418,24,25,24z M34.007,11.152l-3.101,1c-0.102,0.033-0.205,0.049-0.307,0.049c-0.423,0-0.815-0.27-0.952-0.693c-0.169-0.526,0.119-1.089,0.646-1.259l3.101-1c0.526-0.17,1.09,0.12,1.259,0.645C34.821,10.419,34.533,10.982,34.007,11.152z M39.948,24.216C39.809,24.635,39.419,24.9,39,24.9c-0.104,0-0.211-0.017-0.316-0.052l-3.3-1.1c-0.523-0.175-0.807-0.741-0.632-1.265c0.175-0.523,0.736-0.808,1.265-0.632l3.3,1.1C39.84,23.126,40.123,23.692,39.948,24.216z M40.758,19.334C40.641,19.379,40.52,19.4,40.4,19.4c-0.402,0-0.781-0.245-0.934-0.643l-1.301-3.4c-0.197-0.516,0.061-1.094,0.576-1.292c0.513-0.197,1.094,0.06,1.291,0.577l1.301,3.4C41.531,18.559,41.273,19.137,40.758,19.334z"/></svg>