<?xml version="1.0" encoding="iso-8859-1"?><!-- Generator: Adobe Illustrator 22.1.0, SVG Export Plug-In . SVG Version: 6.00 Build 0)  --><svg xmlns="http://www.w3.org/2000/svg" xmlns:xlink="http://www.w3.org/1999/xlink" viewBox="0 0 50 50" width="50px" height="50px"><g></g><polyline style="fill:none;stroke:#000000;stroke-width:2;stroke-linecap:round;stroke-linejoin:round;stroke-miterlimit:10;" points="41,12 47,6 47,3 44,3 38,9 "/><path d="M8.394,37.299c-0.116,0.049-0.225,0.118-0.319,0.212L2,43.586L3.414,45l5.912-5.912C8.934,38.545,8.619,37.944,8.394,37.299z"/><path d="M10.912,40.674L5,46.586L6.414,48l6.075-6.075c0.094-0.094,0.163-0.203,0.212-0.319C12.056,41.381,11.455,41.066,10.912,40.674z"/><path d="M15,43c-4.411,0-8-3.589-8-8c0-3,1.405-5.726,4.806-6.693c0.756-2.671,2.83-4.745,5.5-5.501c0.756-2.67,2.83-4.744,5.5-5.5c0.756-2.67,2.83-4.744,5.501-5.5C29.274,8.405,32,7,35,7c4.411,0,8,3.589,8,8c0,3-1.405,5.726-4.806,6.693c-0.756,2.671-2.83,4.745-5.5,5.501c-0.756,2.67-2.83,4.744-5.5,5.5c-0.756,2.67-2.83,4.744-5.501,5.5C20.726,41.595,18,43,15,43z"/></svg>