<?xml version="1.0" encoding="iso-8859-1"?><!-- Generator: Adobe Illustrator 19.1.0, SVG Export Plug-In . SVG Version: 6.00 Build 0)  --><svg xmlns="http://www.w3.org/2000/svg" xmlns:xlink="http://www.w3.org/1999/xlink" viewBox="0 0 50 50" width="500px" height="500px"><path style="fill:none;stroke:#000000;stroke-width:2;stroke-linecap:round;stroke-miterlimit:10;" d="M45,23c2.49,0,4-2.01,4-4.5S46.99,14,44.5,14c-0.59,0-1.15,0.11-1.66,0.32"/><path d="M43.246,15.232L42.444,13.4C41.04,14.01,35.542,16,23.75,16c-11.439,0-22.463-1.964-22.572-1.984L0,13.804v3.907l0.671,0.234c0.055,0.019,5.459,1.947,6.352,6.125C8.455,30.778,13.466,38,21.082,38h5.896c3.942,0,7.578-1.961,10.239-5.523c2.403-3.218,3.782-7.45,3.781-11.609l-0.006-0.108C40.535,16.546,43.144,15.28,43.246,15.232z"/><g><path d="M34.257,42.033c-1.25-0.331-2.533-1.116-4.257-2.533c-0.851,0.164-2.136,0.5-3.021,0.5h-5.896c-0.922,0-2.229-0.331-3.082-0.5c-1.739,1.282-3.056,2.215-4.257,2.533C13.306,42.15,13,42.546,13,43v1c0,0.552,0.447,1,1,1h20c0.553,0,1-0.448,1-1v-1C35,42.546,34.694,42.15,34.257,42.033z"/></g><path d="M35.542,13.182c-0.68-0.621-1.629-0.982-2.852-1.071c-0.825-0.789-1.887-1.217-3.1-1.092c-1.025-0.917-2.501-1.253-3.819-0.837C25.031,9.43,24.021,9,22.94,9s-2.091,0.43-2.832,1.181c-1.313-0.416-2.794-0.08-3.819,0.837C16.168,11.006,16.052,11,15.94,11c-1.022,0-1.998,0.396-2.739,1.099c-1.14,0.073-2.027,0.534-2.68,1.14C14.375,13.646,19.122,14,23.97,14C28.938,14,32.734,13.633,35.542,13.182z"/></svg>