<?xml version="1.0" encoding="iso-8859-1"?>
<!-- Generator: Adobe Illustrator 23.0.6, SVG Export Plug-In . SVG Version: 6.00 Build 0)  -->
<svg version="1.1" id="Filled" xmlns="http://www.w3.org/2000/svg" xmlns:xlink="http://www.w3.org/1999/xlink" x="0px" y="0px"
	 viewBox="0 0 50 50" style="enable-background:new 0 0 50 50;" xml:space="preserve">
<path d="M50.014,28.884c-0.028-0.166-0.621-3.547-3.005-7.392L35.243,35.018c-0.057,0.065-0.126,0.113-0.187,0.173l1.528,0.755
	c0.14,0.069,0.291,0.104,0.443,0.104c0.153,0,0.307-0.035,0.447-0.105l12-6C49.867,29.747,50.086,29.317,50.014,28.884z"/>
<path d="M46.808,17.4c-0.15-0.188-3.317-4.074-8.278-6.426l-0.82,2.354C37.567,13.741,37.18,14,36.767,14
	c-0.109,0-0.22-0.018-0.329-0.056c-0.522-0.182-0.797-0.751-0.616-1.273l1.149-3.318c0.164-0.471-0.044-0.991-0.488-1.219
	C36.311,8.046,32.186,5.976,25,5.976c-7.188,0-11.287,2.072-11.458,2.16c-0.439,0.227-0.647,0.741-0.489,1.209l1.13,3.332
	c0.177,0.523-0.103,1.091-0.626,1.268c-0.106,0.036-0.214,0.053-0.321,0.053c-0.417,0-0.806-0.263-0.947-0.68l-0.794-2.344
	c-4.959,2.352-8.125,6.237-8.275,6.424c-0.302,0.377-0.291,0.917,0.026,1.281l13.048,15c0.192,0.222,0.469,0.344,0.754,0.344
	c0.085,0,0.171-0.011,0.256-0.034c0.039-0.01,3.871-1.015,7.696-1.015c3.816,0,7.687,1.006,7.725,1.016
	c0.366,0.096,0.759-0.024,1.009-0.311l13.048-15C47.099,18.316,47.11,17.777,46.808,17.4z M18,21c-1.105,0-2-0.895-2-2
	c0-1.105,0.895-2,2-2s2,0.895,2,2C20,20.105,19.105,21,18,21z M29.808,25.59C29.736,25.688,28.014,28,25,28s-4.736-2.312-4.808-2.41
	c-0.326-0.446-0.228-1.072,0.218-1.397c0.446-0.326,1.072-0.228,1.397,0.218C21.853,24.471,23.022,26,25,26s3.147-1.529,3.196-1.595
	c0.329-0.441,0.954-0.535,1.397-0.207C30.035,24.525,30.132,25.146,29.808,25.59z M32,21c-1.105,0-2-0.895-2-2c0-1.105,0.895-2,2-2
	s2,0.895,2,2C34,20.105,33.105,21,32,21z"/>
<path d="M49.099,32.367L38.393,37.72c0.727,0.809,1.374,1.644,1.968,2.425C41.935,42.213,43.293,44,45.391,44
	c2.472,0,4.459-2.538,4.622-5.903c0.083-1.729-0.202-3.63-0.827-5.5C49.17,32.549,49.137,32.465,49.099,32.367z"/>
<path d="M0.014,28.884c0.028-0.166,0.621-3.547,3.005-7.392l11.765,13.525c0.057,0.065,0.126,0.113,0.187,0.173l-1.528,0.755
	c-0.14,0.069-0.291,0.104-0.443,0.104c-0.153,0-0.307-0.035-0.447-0.105l-12-6C0.16,29.747-0.059,29.317,0.014,28.884z"/>
<path d="M0.928,32.367l10.706,5.353c-0.727,0.809-1.374,1.644-1.968,2.425C8.093,42.213,6.734,44,4.637,44
	c-2.472,0-4.459-2.538-4.622-5.903c-0.083-1.729,0.202-3.63,0.827-5.5C0.857,32.549,0.89,32.465,0.928,32.367z"/>
</svg>