<?xml version="1.0" encoding="iso-8859-1"?><!-- Generator: Adobe Illustrator 21.1.0, SVG Export Plug-In . SVG Version: 6.00 Build 0)  --><svg xmlns="http://www.w3.org/2000/svg" xmlns:xlink="http://www.w3.org/1999/xlink" viewBox="0 0 50 50" width="50px" height="50px"><path style="fill:none;stroke:#000000;stroke-width:2;stroke-miterlimit:10;" d="M41,45H9c-2.209,0-4-1.791-4-4V9c0-2.209,1.791-4,4-4h32c2.209,0,4,1.791,4,4v32C45,43.209,43.209,45,41,45z"/><path d="M35.74,18.15c-1.95-8.03-8.73-9.32-11.25-9.13c-5.16,0.55-8.14,12.12-8.46,13.43c-0.2,0.81-0.48,1.53-0.83,2.21c-0.87,1.66-2.11,2.78-3.3,3.86C9.98,30.26,8,32.06,8,35.76c0,0.99,0.41,1.91,1.18,2.67c1.93,1.89,5.89,2.57,9.43,2.57c1.47,0,2.86-0.12,4.01-0.32c8.53-1.38,18.31-7.1,19.3-13.42C42.3,24.79,41.52,21.23,35.74,18.15z M35.93,27.42c-0.7,4.03-6.53,7.39-11.76,8.31C23.24,35.91,22.12,36,21,36c-2.19,0-4.41-0.36-5.35-1.1c-0.51-0.4-0.64-0.86-0.65-1.18c-0.06-1.11,0.83-2.06,1.96-3.27c1.33-1.42,2.99-3.19,3.56-5.65c0.09-0.41,0.19-0.88,0.29-1.38c0.79-3.82,1.67-8.16,4.27-8.4c2.26-0.23,6.16,1.31,7.27,6.33C35.8,23.47,36.21,25.8,35.93,27.42z"/><path d="M30.96,22.86c-0.25-0.15-0.43-0.4-0.49-0.7c-0.82-4.55-4.13-5.27-5.19-5.15c-1.13,0.11-2.13,4.98-2.51,6.81c-0.1,0.51-0.2,0.99-0.3,1.42c-0.69,2.99-2.63,5.06-4.05,6.58c-0.5,0.53-1.15,1.23-1.36,1.62c0.9,0.44,4.1,0.83,6.75,0.32c5.03-0.88,9.67-3.94,10.15-6.69C34.22,25.56,33.21,24.14,30.96,22.86z M25.19,20.83c0.39-0.73,1.29-1.03,2.03-0.69c0.74,0.39,0.99,1.29,0.59,2.03c-0.39,0.73-1.29,1.03-2.03,0.69C25.04,22.47,24.79,21.57,25.19,20.83z M24.47,26.03l3-1.88c0.47-0.29,1.09-0.15,1.38,0.32c0.29,0.47,0.15,1.09-0.32,1.38l-3,1.87c-0.16,0.11-0.35,0.16-0.53,0.16c-0.33,0-0.66-0.17-0.85-0.48C23.86,26.94,24,26.32,24.47,26.03z M30.51,28.86l-5,3C25.35,31.95,25.18,32,25,32c-0.34,0-0.67-0.17-0.86-0.49c-0.28-0.47-0.13-1.08,0.35-1.37l5-3c0.47-0.28,1.08-0.13,1.37,0.35C31.14,27.96,30.99,28.57,30.51,28.86z"/><path d="M10,41.364V45h2v-2.863C11.307,41.931,10.637,41.675,10,41.364z"/><path d="M10.554,27.043c0.505-0.458,0.992-0.909,1.446-1.386V5h-2v22.551C10.187,27.378,10.373,27.207,10.554,27.043z"/><path d="M18.608,42.998c-0.473,0-1.027-0.019-1.608-0.051V45h2v-2.009C18.869,42.992,18.74,42.998,18.608,42.998z"/><path d="M19,10.534V5h-2v8.816C17.58,12.654,18.245,11.527,19,10.534z"/><path d="M24,42.457V45h2v-3.003C25.33,42.174,24.663,42.325,24,42.457z"/><path d="M24.281,7.033l0.028-0.003l0.028-0.002c0.198-0.016,0.415-0.024,0.65-0.024c0.315,0,0.659,0.023,1.013,0.057V5h-2v2.077C24.094,7.063,24.186,7.043,24.281,7.033z"/><path d="M31,40.264V45h2v-5.667C32.346,39.664,31.677,39.972,31,40.264z"/><path d="M33,9.947V5h-2v3.604C31.681,8.972,32.352,9.42,33,9.947z"/><path d="M38,36.187V45h2V34.413C39.384,35.027,38.72,35.622,38,36.187z"/><path d="M40,18.599V5h-2v12.163C38.753,17.633,39.418,18.113,40,18.599z"/></svg>