<?xml version="1.0" encoding="iso-8859-1"?><!-- Generator: Adobe Illustrator 23.0.1, SVG Export Plug-In . SVG Version: 6.00 Build 0)  --><svg xmlns="http://www.w3.org/2000/svg" xmlns:xlink="http://www.w3.org/1999/xlink" viewBox="0 0 50 50" width="50px" height="50px"><path style="fill:none;stroke:#000000;stroke-width:2;stroke-miterlimit:10;" d="M34,18c-4,0-4.667,14-14,14"/><path d="M46,25c0-7.344-1.628-14.563-1.97-15.996l1.345-5.378L40.04,4.959L37,3.946l-3,1l-3-1l-3,1l-3-1l-3,1l-3-1l-3,1l-3-1L9.96,4.959L4.625,3.626L5.961,8.97C5.959,8.978,5.955,8.991,5.953,9H39c0.552,0,1,0.447,1,1s-0.448,1-1,1H5.436C4.831,13.648,4,18.467,4,25c0,7.205,1.016,11.857,1.626,14H39c0.552,0,1,0.447,1,1s-0.448,1-1,1H5.78l-1.071,5.354l5.25-1.313L13,46.054l3-1l3,1l3-1l3,1l3-1l3,1l3-1l3,1l3.04-1.013l5.25,1.313l-1.263-6.316C44.382,38.721,46,32.32,46,25z M28,31c-2.021,0-3.184-0.348-4-0.646l0.397-0.437C23.169,30.587,21.728,31,20,31c-2.667,0-7-2-7-6.667C13,19,17,19,17,19c2.667,0,4,2,8,2s5.333-2,9.333-2c0,0,2.667,0,2.667,4S34,31,28,31z"/><circle cx="21" cy="24" r="1"/><circle cx="17" cy="24" r="1"/><circle cx="19" cy="27" r="1"/></svg>