<?xml version="1.0" encoding="iso-8859-1"?>
<!-- Generator: Adobe Illustrator 23.0.6, SVG Export Plug-In . SVG Version: 6.00 Build 0)  -->
<svg version="1.1" id="Filled" xmlns="http://www.w3.org/2000/svg" xmlns:xlink="http://www.w3.org/1999/xlink" x="0px" y="0px"
	 viewBox="0 0 50 50" style="enable-background:new 0 0 50 50;" xml:space="preserve">
<path style="fill:none;stroke:#000000;stroke-width:2;stroke-linejoin:round;stroke-miterlimit:10;" d="M17.276,13.471l-3.169-3.169
	c1.172-1.172,1.131-3.112-0.091-4.334s-3.162-1.263-4.334-0.091c-0.546,0.546-0.817,1.259-0.84,1.988
	C8.113,7.888,7.399,8.16,6.853,8.706c-1.172,1.172-1.131,3.112,0.091,4.334s3.162,1.263,4.334,0.091l2.64,2.64"/>
<path style="fill:none;stroke:#000000;stroke-width:2;stroke-linejoin:round;stroke-miterlimit:10;" d="M31.737,15.405l3.103-3.103
	c-1.172-1.172-1.131-3.112,0.091-4.334s3.162-1.263,4.334-0.091c0.546,0.546,0.817,1.259,0.84,1.988
	c0.729,0.023,1.443,0.294,1.988,0.84c1.172,1.172,1.131,3.112-0.091,4.334s-3.162,1.263-4.334,0.091l-3.095,3.095"/>
<path d="M30.155,28.209c-1.068,0.76-1.659,1.786-1.656,2.812c0.005,1.522,1.313,2.987,4.341,2.978
	c0.752-0.005,1.415-0.076,2.018-0.173c0.176-0.027,0.348-0.057,0.512-0.089l0.352-1.416c-0.587,0.184-1.328,0.338-1.923,0.34
	c-1.613,0.005-2.695-0.896-2.697-2.077c-0.002-0.629,0.272-1.182,0.769-1.587c0.532-0.433,1.317-0.695,2.298-0.695
	c0.777,0,1.231,0.202,1.541,0.491c0.062,0.057,0.12,0.116,0.17,0.178h0.253l0.495-1.671c-0.509-0.159-1.265-0.292-2.062-0.3
	C32.71,26.977,31.203,27.464,30.155,28.209"/>
<path d="M28.031,28.471c0.218,0,0.398,0.076,0.52,0.176c0.103,0.085,0.166,0.186,0.166,0.273h0.249l0.482-1.855h-6.546l-0.096,0.363
	l-0.023,0.088c0,0,0.717,0.078,0.497,0.766l-1.634,5.712L24.425,34h0.488l0.124-0.49c0,0-0.611-0.141-0.451-0.685
	c0.008-0.034,0.238-0.846,0.375-1.334c0.061-0.211,0.105-0.362,0.105-0.362l1.496-0.001c0.245,0,0.432,0.043,0.577,0.097
	c0.299,0.11,0.415,0.278,0.415,0.278l0.434-1.698h-2.522l0.272-0.97l0.103-0.362L28.031,28.471L28.031,28.471z"/>
<path d="M20.076,32.973c-0.194-0.199-1.876-2.718-1.876-2.718l2.974-2.289l0.099-0.076c0.133-0.107,0.258-0.183,0.368-0.238
	c0.316-0.156,0.52-0.134,0.52-0.134l0.119-0.456l-3.823,0.006l-0.095,0.361l-0.023,0.09c0.26,0.017,0.622,0.241,0.326,0.507
	c-0.039,0.032-3.073,2.261-3.073,2.261l0.023-0.079l0.631-2.197c0.133-0.439,0.624-0.492,0.624-0.492l0.12-0.452l-3.65,0.001
	l-0.094,0.361l-0.024,0.09c0.175,0.043,0.673,0.137,0.5,0.766c-1.218,4.233-1.079,3.814-1.161,4.045
	c-0.273,1.003-0.682,1.142-0.928,1.167c-0.054,0.005-0.1,0.005-0.134,0.006l-0.05,0.19l-0.075,0.299h3.332h0.486l0.128-0.497
	c0,0-0.606-0.115-0.491-0.535c0.059-0.211,0.212-0.747,0.347-1.22c0.131-0.459,0.247-0.861,0.247-0.861
	c0.662,1.021,0.814,1.147,1.614,2.201c0.735,0.976,1.521,0.929,3.419,0.918c0.155-0.001,0.315-0.002,0.487-0.002l0.126-0.488
	C20.587,33.509,20.268,33.171,20.076,32.973"/>
<path d="M40.706,22.327C40.516,22.119,40.248,22,39.966,22h-3.051c-0.509-5.046-4.824-9-10.056-9c-0.263,0-0.523,0.027-0.784,0.048
	c-1.433,0.171-3.333,0.896-4.159,3.404c-0.139,0.42-0.53,0.688-0.95,0.688c-0.104,0-0.209-0.017-0.313-0.051
	c-0.524-0.173-0.81-0.738-0.637-1.263c0.481-1.46,1.333-2.628,2.45-3.453C21.66,12.133,20.823,12,19.966,12c-4.962,0-9,4.038-9,9
	c0,0.335,0.026,0.668,0.063,1H7.966c-0.282,0-0.55,0.119-0.74,0.328c-0.189,0.208-0.282,0.487-0.255,0.768l2.2,23
	C9.22,46.608,9.65,47,10.166,47h27.6c0.516,0,0.946-0.392,0.996-0.905l2.2-23C40.988,22.815,40.896,22.536,40.706,22.327z
	 M37.622,37H28c-0.552,0-1,0.448-1,1v7h-7v-7c0-0.552-0.448-1-1-1h-8.691L9.066,24h29.8L37.622,37z"/>
</svg>