<?xml version="1.0" encoding="iso-8859-1"?>
<!-- Generator: Adobe Illustrator 23.0.6, SVG Export Plug-In . SVG Version: 6.00 Build 0)  -->
<svg version="1.1" id="Filled" xmlns="http://www.w3.org/2000/svg" xmlns:xlink="http://www.w3.org/1999/xlink" x="0px" y="0px"
	 viewBox="0 0 50 50" style="enable-background:new 0 0 50 50;" xml:space="preserve">
<path d="M37.638,30.753C35.721,32.197,33.385,33,31,33c-0.194,0-0.386-0.018-0.579-0.029C29.433,34.733,28.207,37.334,27,41v-8.757
	c-0.075-0.029-0.153-0.05-0.227-0.081c-1.109,0.943-2.392,1.668-3.773,2.152c0,2.44,0,6.139,0,7.686
	c-1.283-2.763-2.515-5.231-3.437-7.025C19.376,34.984,19.189,35,19,35c-2.174,0-4.249-0.567-6.048-1.599
	c2.082,3.724,4.928,9.04,7.134,14.005C20.247,47.767,20.605,48,21,48h8c0.459,0,0.859-0.313,0.97-0.757
	c1.968-7.871,5.732-13.576,7.96-16.443C37.834,30.782,37.735,30.774,37.638,30.753z"/>
<path d="M41.33,11.075C39.679,6.878,35.522,4,31,4c-2.323,0-4.603,0.745-6.423,2.073C22.904,3.565,20.049,2,17,2
	c-4.962,0-9,4.038-9,9c0,0.088,0,0.175,0.001,0.262C3.946,12.135,1,15.729,1,20c0,4.962,4.038,9,9,9c0.3,0,0.599-0.03,0.882-0.06
	c0.005-0.001,0.011-0.001,0.017-0.002C12.764,31.493,15.748,33,19,33c2.854,0,5.554-1.203,7.399-3.258
	C27.762,30.558,29.363,31,31,31c2.258,0,4.466-0.884,6.155-2.445C38.08,28.854,39.017,29,40,29c4.962,0,9-4.038,9-9
	C49,15.519,45.681,11.721,41.33,11.075z M18,17c-1.105,0-2-0.895-2-2c0-1.105,0.895-2,2-2s2,0.895,2,2C20,16.105,19.105,17,18,17z
	 M29.808,21.59C29.736,21.688,28.014,24,25,24s-4.736-2.312-4.808-2.41c-0.326-0.446-0.228-1.072,0.218-1.397
	c0.448-0.325,1.071-0.229,1.397,0.218C21.853,20.471,23.022,22,25,22s3.147-1.529,3.196-1.595c0.329-0.441,0.955-0.534,1.397-0.207
	C30.035,20.525,30.132,21.146,29.808,21.59z M32,17c-1.105,0-2-0.895-2-2c0-1.105,0.895-2,2-2s2,0.895,2,2
	C34,16.105,33.105,17,32,17z"/>
</svg>