<?xml version="1.0" encoding="iso-8859-1"?>
<!-- Generator: Adobe Illustrator 23.0.6, SVG Export Plug-In . SVG Version: 6.00 Build 0)  -->
<svg version="1.1" id="Filled" xmlns="http://www.w3.org/2000/svg" xmlns:xlink="http://www.w3.org/1999/xlink" x="0px" y="0px"
	 viewBox="0 0 50 50" style="enable-background:new 0 0 50 50;" xml:space="preserve">
<path d="M48,44h-1.913v-0.913C46.087,31.459,36.627,22,25,22S3.913,31.459,3.913,43.087V44H2c-0.553,0-1,0.448-1,1s0.447,1,1,1h46
	c0.553,0,1-0.448,1-1S48.553,44,48,44z M18.743,30.22c-2.866,1.396-5.214,3.744-6.609,6.609c-0.174,0.355-0.529,0.562-0.9,0.562
	c-0.146,0-0.296-0.032-0.438-0.101c-0.496-0.242-0.702-0.84-0.461-1.337c1.592-3.265,4.266-5.939,7.531-7.531
	c0.502-0.243,1.096-0.035,1.338,0.461C19.445,29.38,19.239,29.979,18.743,30.22z"/>
<circle cx="25" cy="20" r="2"/>
<path d="M27.5,6C26.672,6,26,6.672,26,7.5S26.672,9,27.5,9S29,8.328,29,7.5S28.328,6,27.5,6z"/>
<path d="M20,11c-0.552,0-1,0.448-1,1s0.448,1,1,1s1-0.448,1-1S20.552,11,20,11z"/>
<path d="M13.481,21C8.253,21,4,16.962,4,12s4.253-9,9.481-9c2.188,0,4.248,0.716,6.121,2.129c0.389,0.293,0.51,0.823,0.286,1.256
	c-0.222,0.433-0.723,0.644-1.188,0.496c-0.534-0.168-1.159-0.34-1.744-0.34C13.728,6.542,11,9.042,11,12
	c0,3.01,2.672,5.458,5.956,5.458c0.665,0,1.209-0.098,1.617-0.291c0.467-0.219,1.019-0.051,1.282,0.388
	c0.266,0.438,0.156,1.007-0.253,1.315C17.729,20.284,15.67,21,13.481,21z"/>
<path style="fill:none;stroke:#000000;stroke-width:2;stroke-linecap:round;stroke-linejoin:round;stroke-miterlimit:10;" d="M37,8
	l-0.639,1.47c-0.657,1.511-0.4,3.335,0.639,4.53v0c1.039,1.194,1.297,3.019,0.639,4.53L37,20"/>
<path style="fill:none;stroke:#000000;stroke-width:2;stroke-linecap:round;stroke-linejoin:round;stroke-miterlimit:10;" d="M44,8
	l-0.639,2.083c-0.657,2.14-0.4,4.725,0.639,6.417v0c1.039,1.692,1.297,4.277,0.639,6.417L44,25"/>
</svg>