<?xml version="1.0" encoding="iso-8859-1"?>
<!-- Generator: Adobe Illustrator 25.2.1, SVG Export Plug-In . SVG Version: 6.00 Build 0)  -->
<svg version="1.1" id="Tone" xmlns="http://www.w3.org/2000/svg" xmlns:xlink="http://www.w3.org/1999/xlink" x="0px" y="0px"
	 viewBox="0 0 50 50" style="enable-background:new 0 0 50 50;" xml:space="preserve">
<g id="Line">
</g>
<path d="M42.744,36H36v-1c1.103,0,2-0.897,2-2v-2c0-1.103-0.897-2-2-2v-1.941c0-1.343-0.375-3.004-0.69-4.16
	C35.104,22.146,35,21.358,35,20.56V19h1c0.553,0,1-0.447,1-1s-0.447-1-1-1h-8c-0.553,0-1,0.447-1,1s0.447,1,1,1h1v1.56
	c0,0.799-0.104,1.585-0.31,2.338c-0.087,0.32-0.181,0.703-0.273,1.106L33.414,29H31l-4-4l-4,4h-2.414l3.728-3.728
	C23.412,24.471,22.241,24,21,24c-2.757,0-5,2.243-5,5c-1.103,0-2,0.897-2,2v2c0,1.103,0.897,2,2,2v1H9.256l-3.6,12h40.688L42.744,36
	z M23,38v-3h2v3h2v-3h2v3h2v-3h3v1.723L31.434,41H20.566L18,36.723V35h3v3H23z M16,31h18h2l0.002,2H16V31z"/>
<path d="M22.625,11.719L20,9.531V6c0-0.551-0.449-1-1-1h-3.531l-2.188-2.625C13.066,2.102,12.723,1.957,12.375,2
	c-0.258,0.035-0.496,0.168-0.656,0.375L9.531,5H6C5.449,5,5,5.449,5,6v3.531l-2.625,2.188C2.137,11.91,2,12.195,2,12.5
	s0.137,0.59,0.375,0.781L5,15.469V19c0,0.551,0.449,1,1,1h3.531l2.188,2.625C11.91,22.863,12.195,23,12.5,23s0.59-0.137,0.781-0.375
	L15.469,20H19c0.551,0,1-0.449,1-1v-3.531l2.625-2.188C22.863,13.09,23,12.805,23,12.5S22.863,11.91,22.625,11.719z M8,12.5
	C8,10.015,10.015,8,12.5,8s4.5,2.015,4.5,4.5S14.985,17,12.5,17S8,14.985,8,12.5z"/>
</svg>