<?xml version="1.0" encoding="iso-8859-1"?><!-- Generator: Adobe Illustrator 21.1.0, SVG Export Plug-In . SVG Version: 6.00 Build 0)  --><svg xmlns="http://www.w3.org/2000/svg" xmlns:xlink="http://www.w3.org/1999/xlink" viewBox="0 0 50 50" width="50px" height="50px"><path d="M40.835,22.681C39.377,20.07,38,17.603,38,13.6c0-4.847-2.586-9.754-7.529-9.8c-0.743-0.107-1.156-0.368-1.675-0.695C28.015,2.613,27.043,2,25,2C19.826,2,6,17.124,6,33.1C6,42.419,14.523,50,25,50s19-7.581,19-16.9C44,28.352,42.391,25.469,40.835,22.681z M25,42c-4.6,0-8-3.9-8-9.4S22.6,22,25,22s8,5.1,8,10.6S29.6,42,25,42z"/><path style="fill:none;stroke:#000000;stroke-width:2;stroke-miterlimit:10;" d="M28.4,4c0,0,0.6-1.7,1.5-2.6c0.8-0.9,1.3-0.2,1.9,0.4C32.4,2.4,33,3,32.3,3.6c-0.4,0.4-1.5,0.4-1.7,1"/></svg>