<?xml version="1.0" encoding="iso-8859-1"?><!-- Generator: Adobe Illustrator 21.0.2, SVG Export Plug-In . SVG Version: 6.00 Build 0)  --><svg xmlns="http://www.w3.org/2000/svg" xmlns:xlink="http://www.w3.org/1999/xlink" viewBox="0 0 50 50" width="50px" height="50px"><path style="fill:none;stroke:#000000;stroke-width:2;stroke-miterlimit:10;" d="M14,32l-3.172,3.172c-1.754-1.754-4.732-1.539-6.185,0.647c-0.787,1.184-0.852,2.758-0.194,4.018c0.479,0.917,1.2,1.511,2.006,1.84c0.318,0.13,0.543,0.425,0.58,0.767c0.127,1.181,0.772,2.315,1.963,3.024c1.258,0.749,2.891,0.719,4.124-0.072c2.027-1.301,2.405-3.882,1.157-5.674L18,36"/><path d="M34.808,3c-7.488,0-11.139,5.399-13.233,9.462L13.521,28.08c-0.77,1.359-0.677,3.056,0.235,4.322l2.097,2.913c0.65,0.903,1.617,1.487,2.723,1.644c0.196,0.028,0.391,0.042,0.585,0.042c0.881,0,1.73-0.284,2.443-0.825c0.572-0.339,5.842-3.445,8.062-4.18l4.655-1.688c2.498-0.905,4.816-2.181,6.705-3.689C46.418,22.307,47,17.131,47,15.106C47,8.431,41.53,3,34.808,3z"/></svg>