<?xml version="1.0" encoding="iso-8859-1"?>
<!-- Generator: Adobe Illustrator 22.1.0, SVG Export Plug-In . SVG Version: 6.00 Build 0)  -->
<svg version="1.1" id="Layer_1" xmlns="http://www.w3.org/2000/svg" xmlns:xlink="http://www.w3.org/1999/xlink" x="0px" y="0px"
	 viewBox="0 0 50 50" style="enable-background:new 0 0 50 50;" xml:space="preserve">
<g>
	<path d="M35,44v2c0,0.552,0.448,1,1,1s2.448,0,3,0s1-0.448,1-1v-2"/>
	<path d="M39,48h-3c-1.103,0-2-0.897-2-2v-2c0-0.553,0.447-1,1-1s1,0.447,1,1v2h3v-2c0-0.553,0.447-1,1-1s1,0.447,1,1v2
		C41,47.103,40.103,48,39,48z"/>
</g>
<g>
	<path d="M10,44v2c0,0.552,0.448,1,1,1s2.448,0,3,0s1-0.448,1-1v-2"/>
	<path d="M14,48h-3c-1.103,0-2-0.897-2-2v-2c0-0.553,0.447-1,1-1s1,0.447,1,1v2h3v-2c0-0.553,0.447-1,1-1s1,0.447,1,1v2
		C16,47.103,15.103,48,14,48z"/>
</g>
<g>
	<path d="M39,6c-0.553,0-1-0.448-1-1V4h-6v1c0,0.552-0.447,1-1,1s-1-0.448-1-1V4c0-1.103,0.897-2,2-2h6c1.103,0,2,0.897,2,2v1
		C40,5.552,39.553,6,39,6z"/>
</g>
<g>
	<path d="M20,6c-0.553,0-1-0.448-1-1V4h-7v1c0,0.552-0.447,1-1,1s-1-0.448-1-1V4c0-1.103,0.897-2,2-2h7c1.103,0,2,0.897,2,2v1
		C21,5.552,20.553,6,20,6z"/>
</g>
<g>
	<path d="M43,4H7C5.346,4,4,5.346,4,7v35c0,1.654,1.346,3,3,3h36c1.654,0,3-1.346,3-3V7C46,5.346,44.654,4,43,4z M28,8
		c1.105,0,2,0.895,2,2c0,1.105-0.895,2-2,2s-2-0.895-2-2C26,8.895,26.895,8,28,8z M22,8c1.105,0,2,0.895,2,2c0,1.105-0.895,2-2,2
		s-2-0.895-2-2C20,8.895,20.895,8,22,8z M16,8c1.105,0,2,0.895,2,2c0,1.105-0.895,2-2,2s-2-0.895-2-2C14,8.895,14.895,8,16,8z M8,10
		c0-1.105,0.895-2,2-2s2,0.895,2,2c0,1.105-0.895,2-2,2S8,11.105,8,10z M40,39H10V15h30V39z M40,12c-1.105,0-2-0.895-2-2
		c0-1.105,0.895-2,2-2s2,0.895,2,2C42,11.105,41.105,12,40,12z"/>
</g>
<g>
	<path d="M29,23.212V27c0,0.553-0.447,1-1,1s-1-0.447-1-1v-4h-4v4c0,0.553-0.447,1-1,1s-1-0.447-1-1v-3.788
		c-3.997,0.879-7,4.444-7,8.701C14,33.616,15.385,35,17.086,35h15.828C34.615,35,36,33.616,36,31.913
		C36,27.656,32.997,24.091,29,23.212z"/>
</g>
<g>
	<path d="M40,35H10c-0.553,0-1-0.447-1-1s0.447-1,1-1h30c0.553,0,1,0.447,1,1S40.553,35,40,35z"/>
</g>
</svg>