<?xml version="1.0" encoding="iso-8859-1"?><!-- Generator: Adobe Illustrator 21.1.0, SVG Export Plug-In . SVG Version: 6.00 Build 0)  --><svg xmlns="http://www.w3.org/2000/svg" xmlns:xlink="http://www.w3.org/1999/xlink" viewBox="0 0 50 50" width="50px" height="50px"><path d="M36,4H14C8.477,4,4,8.477,4,14v22c0,5.523,4.477,10,10,10h22c5.523,0,10-4.477,10-10V14C46,8.477,41.523,4,36,4z M14.869,39.252c-0.84-0.587-6.333-4.256-6.333-4.256l4.116-5.04l2.559,1.827c0.951,1.536,2.298,3.699,2.931,4.649c0.632,0.948,0.931,2.78,0.985,3.346l0.073,0.759C17.964,40.778,16.399,40.312,14.869,39.252z M24.664,35.752L20.8,39.616c0,0-0.252-2.605-1.26-4.116c-1.008-1.511-3.948-6.3-3.948-6.3c-1.26-2.016-1.428-4.032-0.42-5.04l3.36-3.36c0,0,0.756,1.848,1.764,3.528c1.092,1.764,3.948,6.384,3.948,6.384C25.504,32.728,25.672,34.744,24.664,35.752z M25.927,28.78c0,0-0.569-0.307-1.357-0.736c-0.925-1.496-2.196-3.552-2.846-4.601c-0.914-1.524-1.63-3.263-1.638-3.28l-0.148-0.36c1.026-0.236,2.423,0.327,3.972,1.295c0.03,0,0.54,0.283,1.242,0.685c0.953,1.541,2.34,3.768,2.985,4.737c0.854,1.353,1.473,3.258,1.478,3.277l0.07,0.218C28.621,30.104,27.258,29.668,25.927,28.78z M34.66,25.84l-3.444,3.444c0,0-0.673-2.1-1.68-3.695c-1.008-1.512-3.948-6.3-3.948-6.3c-1.26-2.016-1.428-4.032-0.42-5.04l3.864-3.864c0,0,0.252,2.352,1.26,4.032C31.384,16.18,34.24,20.8,34.24,20.8C35.5,22.816,35.668,24.832,34.66,25.84z M37.516,19.96l-3.213-2.252l-2.583-4.176c-0.65-1.085-0.957-2.773-1.018-3.33l-0.114-1.029c1.244-0.44,2.973-0.004,4.656,1.291c0.84,0.589,6.388,4.456,6.388,4.456L37.516,19.96z"/></svg>