<?xml version="1.0" encoding="utf-8"?><!-- Generator: Adobe Illustrator 15.0.0, SVG Export Plug-In . SVG Version: 6.00 Build 0)  --><!DOCTYPE svg PUBLIC "-//W3C//DTD SVG 1.1//EN" "http://www.w3.org/Graphics/SVG/1.1/DTD/svg11.dtd"><svg xmlns="http://www.w3.org/2000/svg" xmlns:xlink="http://www.w3.org/1999/xlink" viewBox="0 0 50 50" width="50px" height="50px"><g><path d="M26,31.967c0.871-0.038,1.659-0.13,2.391-0.254c0.759-0.637,1.575-1.229,2.451-1.749c0.04-0.894,0.079-1.839,0.108-2.793c-1.372,0.426-3.018,0.715-4.95,0.794V31.967z"/><path d="M26,25.967c2.037-0.09,3.682-0.44,4.993-0.919C30.995,24.867,31,24.678,31,24.5c0-1.172-0.033-2.291-0.08-3.385c-1.348,0.452-2.98,0.765-4.92,0.849V25.967z"/><path d="M26,19.967c1.97-0.094,3.555-0.45,4.805-0.931c-0.097-1.366-0.224-2.671-0.385-3.891c-1.194,0.426-2.652,0.732-4.42,0.82V19.967z"/><path d="M26,13.968c1.712-0.093,3.063-0.415,4.117-0.835c-0.236-1.398-0.515-2.668-0.817-3.822c-0.904,0.327-1.991,0.57-3.3,0.654V13.968z"/><path d="M26,2.417v5.545c1.106-0.081,2.007-0.291,2.731-0.563C27.893,4.866,26.923,3.151,26,2.417z"/><path d="M25,0c2.366,0,4.223,2.506,5.55,6.369c0.667-0.554,0.923-1.048,0.946-1.095l1.814,0.84c-0.04,0.087-0.595,1.243-2.146,2.272c0.313,1.165,0.587,2.415,0.82,3.729c1.154-0.844,1.575-1.668,1.609-1.738l1.817,0.834c-0.052,0.115-0.828,1.731-3.087,3.056c0.171,1.229,0.309,2.498,0.414,3.792c1.773-1.145,2.41-2.389,2.456-2.485c0.237-0.495,0.829-0.71,1.329-0.476c0.497,0.233,0.714,0.82,0.484,1.319c-0.065,0.142-1.091,2.28-4.119,3.867c0.066,1.264,0.103,2.541,0.108,3.818c2.039-1.231,2.749-2.626,2.799-2.73c0.238-0.494,0.83-0.711,1.329-0.474c0.496,0.234,0.713,0.821,0.483,1.319c-0.07,0.152-1.216,2.499-4.633,4.155c-0.021,0.867-0.053,1.725-0.088,2.566c0.744-0.306,1.525-0.551,2.34-0.73c0.841-0.172,2.621-0.328,2.704-0.33C37.976,26.792,38,25.667,38,24.5C38,10.762,32.29,0,25,0z"/><path d="M21.515,31.701c0.756,0.131,1.579,0.226,2.485,0.266v-4.002c-1.929-0.079-3.572-0.367-4.943-0.792c0.029,0.777,0.068,1.559,0.112,2.315C20.013,30.206,20.791,30.943,21.515,31.701z"/><path d="M12,24.472c1.862,1.111,3.545,2.228,5.084,3.37c-0.021-0.49-0.042-0.982-0.056-1.466c-3.42-1.657-4.567-4.005-4.637-4.157c-0.232-0.501-0.013-1.095,0.489-1.327c0.5-0.233,1.095-0.013,1.327,0.489c0.048,0.1,0.757,1.492,2.795,2.723c0.006-1.277,0.042-2.555,0.109-3.818c-3.029-1.588-4.055-3.726-4.121-3.868c-0.23-0.502-0.011-1.096,0.491-1.327c0.502-0.229,1.095-0.011,1.327,0.491c0.044,0.092,0.68,1.334,2.453,2.478c0.106-1.294,0.244-2.563,0.415-3.792c-2.259-1.324-3.035-2.941-3.087-3.056l1.822-0.824c0.032,0.066,0.452,0.887,1.604,1.729c0.233-1.315,0.507-2.566,0.82-3.73c-1.551-1.029-2.106-2.186-2.146-2.272l1.82-0.828c0.021,0.042,0.275,0.532,0.94,1.084C20.777,2.507,22.634,0,25,0C17.715,0,12.008,10.747,12,24.472z"/><path d="M19,24.5c0,0.177,0.003,0.365,0.005,0.548c1.312,0.479,2.958,0.829,4.995,0.919v-4.003c-1.939-0.084-3.572-0.397-4.92-0.849C19.033,22.209,19,23.328,19,24.5z"/><path d="M19.195,19.037c1.25,0.481,2.835,0.836,4.805,0.93v-4.002c-1.767-0.087-3.225-0.394-4.419-0.82C19.419,16.365,19.292,17.67,19.195,19.037z"/><path d="M21.269,7.399C21.993,7.671,22.893,7.881,24,7.962V2.417C23.077,3.151,22.108,4.866,21.269,7.399z"/><path d="M19.883,13.133c1.055,0.42,2.405,0.742,4.117,0.835V9.964c-1.309-0.083-2.395-0.327-3.299-0.654C20.397,10.464,20.12,11.735,19.883,13.133z"/></g><path d="M25,50c-11.566,0-13.853-8.099-15.871-15.244c-1.138-4.029-2.212-7.834-4.773-9.991c-0.391-0.329-0.471-0.899-0.186-1.323c0.286-0.423,0.844-0.564,1.295-0.327C19.378,30.427,26,36.165,26,49C26,49.553,25.552,50,25,50z"/><path d="M45.524,32.148c-2.458-1.513-4.928-2.279-7.34-2.279c-5.819,0-10.057,4.345-12.493,7.769C27.219,40.841,28,44.523,28,49c0,0.283-0.052,0.552-0.126,0.812c6.943-0.928,8.846-5.271,10.534-9.162c1.415-3.26,2.638-6.074,6.733-6.659c0.417-0.06,0.752-0.374,0.838-0.787C46.064,32.791,45.883,32.369,45.524,32.148z"/><g><path d="M25,2c5.963,0,11,10.304,11,22.5c0,1.232-0.025,2.422-0.074,3.561c0.647-0.108,1.317-0.168,2.006-0.181C37.976,26.792,38,25.667,38,24.5C38,10.762,32.29,0,25,0c-7.285,0-12.992,10.747-13,24.472c0.689,0.411,1.361,0.823,2.006,1.236C14.005,25.307,14,24.915,14,24.5C14,12.304,19.038,2,25,2z"/></g></svg>