<?xml version="1.0" encoding="utf-8"?><!-- Generator: Adobe Illustrator 15.0.0, SVG Export Plug-In . SVG Version: 6.00 Build 0)  --><!DOCTYPE svg PUBLIC "-//W3C//DTD SVG 1.1//EN" "http://www.w3.org/Graphics/SVG/1.1/DTD/svg11.dtd"><svg xmlns="http://www.w3.org/2000/svg" xmlns:xlink="http://www.w3.org/1999/xlink" viewBox="0 0 50 50" width="50px" height="50px"><path d="M45.863,2.646C45.716,2.257,45.344,2,44.928,2c-7.514,0-11.486,6.711-15.329,13.201c-1.918,3.239-3.901,6.589-6.322,9.18c-4.352,4.659-8.394,7.678-11.641,10.105c-4.537,3.39-8.121,6.066-9.594,11C1.909,45.931,2.1,46.409,2.504,46.64c1.558,0.891,3.775,1.361,6.411,1.361c7.993,0,19.594-4.355,27.493-14.085c6.508-8.014,9.51-17.124,8.031-24.37c-0.576-2.827,0.183-3.759,0.792-4.507C45.674,4.495,46.281,3.749,45.863,2.646z M12.833,36.088c3.311-2.475,7.432-5.554,11.905-10.342c2.569-2.75,4.609-6.194,6.581-9.526c2.802-4.733,5.49-9.263,9.367-11.213c-3.577,3.385-5.887,7.679-8.294,12.166c-1.818,3.391-3.699,6.897-6.199,10.012c-5.834,7.266-10.895,9.802-15.359,12.04c-1.543,0.773-3.042,1.526-4.471,2.434C7.982,39.723,10.182,38.068,12.833,36.088z M12.875,45.132c-0.867,0.853-2.274,0.853-3.141,0c-0.867-0.852-1.436-1.674,0-3.086c1.436-1.41,2.274-0.852,3.141,0C13.743,42.898,13.743,44.279,12.875,45.132z M19.999,41.814c-0.867,0.852-2.274,0.852-3.141,0c-0.867-0.853-1.436-1.676,0-3.086c1.436-1.412,2.274-0.853,3.141,0C20.867,39.58,20.867,40.962,19.999,41.814z M27.299,37.973c-1.842,1.81-2.868,1.074-3.962,0c-1.094-1.076-1.094-2.818,0-3.893c1.094-1.075,2.878-1.064,3.962,0S29.143,36.162,27.299,37.973z M31.684,32.355c-1.979,0-3.269-1.438-3.269-3.211c0-1.772,0.427-3.211,3.269-3.211c2.84,0,3.268,1.438,3.268,3.211C34.951,30.918,33.662,32.355,31.684,32.355z M38.391,23.182c-1.246,1.224-3.266,1.224-4.512,0s-1.646-2.815,0-4.433s3.266-1.224,4.512,0S39.637,21.958,38.391,23.182z M41.009,14.523c-0.867,0.852-2.274,0.852-3.142,0c-0.866-0.852-1.436-1.675,0-3.086c1.437-1.411,2.274-0.852,3.142,0S41.876,13.671,41.009,14.523z"/></svg>