<?xml version="1.0" encoding="iso-8859-1"?>
<!-- Generator: Adobe Illustrator 22.1.0, SVG Export Plug-In . SVG Version: 6.00 Build 0)  -->
<svg version="1.1" id="Layer_1" xmlns="http://www.w3.org/2000/svg" xmlns:xlink="http://www.w3.org/1999/xlink" x="0px" y="0px"
	 viewBox="0 0 50 50" style="enable-background:new 0 0 50 50;" xml:space="preserve">
<path d="M33,17c0.601,0,1.178,0.018,1.744,0.045c-0.649-2.502-2.853-5.84-9.83-6.927c-0.784-4.084-6.701-7.577-7.418-7.986
	c-0.309-0.177-0.689-0.176-0.998,0.003C16.19,2.314,16,2.644,16,3c0,0.014-0.017,1.391-1.447,2.105l-0.484,0.24
	c-2.633,1.301-6.523,3.224-7.015,7.692C2.737,13.375,0,16.031,0,20c0,3.384,3.415,7,13,7c0.535,0,1.038-0.016,1.534-0.035
	C16.031,22.495,20.983,17,33,17z"/>
<path d="M33,19c-14,0-16.959,7.846-16.998,10.937C16.731,29.183,18.304,28,21,28c1.559,0,2.924,0.54,4,1.188
	C26.076,28.54,27.441,28,29,28s2.924,0.54,4,1.188C34.076,28.54,35.441,28,37,28s2.924,0.54,4,1.188C42.076,28.54,43.441,28,45,28
	c2.696,0,4.269,1.183,4.998,1.937C49.959,26.846,47,19,33,19z"/>
<path d="M48.745,31.535C48.659,31.439,47.625,30,45,30c-1.708,0-3.167,0.947-4,1.636C40.167,30.947,38.708,30,37,30
	s-3.167,0.947-4,1.636C32.167,30.947,30.708,30,29,30s-3.167,0.947-4,1.636C24.167,30.947,22.708,30,21,30
	c-2.625,0-3.659,1.439-3.745,1.535c-0.267,0.298-0.331,0.727-0.161,1.09L17.651,34H21c3.866,0,7,3.134,7,7v2
	c0,1.96-0.808,3.729-2.106,5H32V36c0-0.553,0.448-1,1-1s1,0.447,1,1v12h2.691l3.344-12.263c0.146-0.533,0.694-0.85,1.228-0.702
	c0.533,0.146,0.847,0.695,0.702,1.228L38.764,48H42c0.389,0,0.742-0.225,0.906-0.577l6-14.798
	C49.076,32.262,49.012,31.833,48.745,31.535z"/>
<path d="M26,40.899C26,38.193,23.807,36,21.101,36H5.899C3.193,36,1,38.193,1,40.899V41h25V40.899z"/>
<path d="M1,43.101C1,45.807,3.193,48,5.899,48h15.202C23.807,48,26,45.807,26,43.101V43H1V43.101z"/>
<path d="M15.535,34c0,0-1.345-3.208-1.401-3.355c-0.088-0.23-0.135-0.477-0.132-0.733c0.004-0.296,0.026-0.61,0.067-0.936
	C13.715,28.985,13.373,29,13,29c-3.941,0-6.963-0.597-9.24-1.554l1.505,6.593C5.507,34.014,5.752,34,6,34H15.535z"/>
</svg>