<?xml version="1.0" encoding="iso-8859-1"?><!-- Generator: Adobe Illustrator 19.1.1, SVG Export Plug-In . SVG Version: 6.00 Build 0)  --><svg xmlns="http://www.w3.org/2000/svg" xmlns:xlink="http://www.w3.org/1999/xlink" viewBox="0 0 50 50" width="50px" height="50px"><circle cx="38" cy="6" r="2"/><circle cx="45" cy="16" r="1"/><circle cx="36.5" cy="13.5" r="1.5"/><path d="M45.909,23.201c-0.03-0.349-0.24-0.656-0.554-0.811s-0.687-0.136-0.98,0.054C43.806,22.808,43.158,23,42.5,23c-1.437,0-2.711-0.867-3.246-2.209c-0.105-0.265-0.319-0.473-0.588-0.57c-0.268-0.097-0.565-0.076-0.816,0.061C36.98,20.751,35.995,21,35,21c-3.309,0-6-2.691-6-6c0-0.994,0.249-1.979,0.72-2.85c0.136-0.251,0.157-0.548,0.061-0.816c-0.098-0.269-0.305-0.482-0.57-0.588C27.867,10.211,27,8.937,27,7.5c0-0.658,0.192-1.306,0.556-1.875c0.188-0.295,0.209-0.667,0.054-0.981S27.146,4.12,26.797,4.09C26.271,4.045,25.646,4,25,4C13.421,4,4,13.42,4,25s9.421,21,21,21s21-9.42,21-21C46,24.336,45.951,23.69,45.909,23.201z M12,23c0-1.657,1.343-3,3-3s3,1.343,3,3s-1.343,3-3,3S12,24.657,12,23z M17,35c-1.105,0-2-0.895-2-2c0-1.105,0.895-2,2-2s2,0.895,2,2C19,34.105,18.105,35,17,35z M21.5,18c-0.828,0-1.5-0.672-1.5-1.5s0.672-1.5,1.5-1.5s1.5,0.672,1.5,1.5S22.328,18,21.5,18z M24.5,27c-0.828,0-1.5-0.672-1.5-1.5s0.672-1.5,1.5-1.5s1.5,0.672,1.5,1.5S25.328,27,24.5,27z M30.5,37c-1.381,0-2.5-1.119-2.5-2.5c0-1.381,1.119-2.5,2.5-2.5s2.5,1.119,2.5,2.5C33,35.881,31.881,37,30.5,37z"/></svg>