<?xml version="1.0" encoding="iso-8859-1"?><!-- Generator: Adobe Illustrator 21.1.0, SVG Export Plug-In . SVG Version: 6.00 Build 0)  --><svg xmlns="http://www.w3.org/2000/svg" xmlns:xlink="http://www.w3.org/1999/xlink" viewBox="0 0 50 50" width="500px" height="500px"><path d="M35.2,11L34,11.3l6.7,37.5c0.2,0.601,0.7,1.3,2,1.101C44,49.6,44.1,48.6,44,48L35.2,11z"/><path d="M49.8,45.9L37.6,10l-1.1,0.4L46.6,47c0.2,0.6,0.7,1.3,2.101,1C50,47.6,50,46.5,49.8,45.9z"/><path d="M17,16V4H9C6.2,4,4,6.2,4,9v7H17z"/><path d="M30,27v-9H19v11h9C29.141,29,30,28.141,30,27z"/><path d="M38.17,46H19V31h9c2.24,0,4-1.76,4-4v-9h1.16L38.17,46z"/><path d="M46,9v19.51L39.49,9.36l-0.65-1.94l-1.92,0.7l-1.1,0.4l-2.5,0.9l-1.59,0.57l0.3,1.66L32.81,16H19V4h22C43.8,4,46,6.2,46,9z"/><path d="M17,18H4v23c0,2.8,2.2,5,5,5h8V18z"/></svg>