<?xml version="1.0" encoding="utf-8"?><!-- Generator: Adobe Illustrator 15.0.0, SVG Export Plug-In . SVG Version: 6.00 Build 0)  --><!DOCTYPE svg PUBLIC "-//W3C//DTD SVG 1.1//EN" "http://www.w3.org/Graphics/SVG/1.1/DTD/svg11.dtd"><svg xmlns="http://www.w3.org/2000/svg" xmlns:xlink="http://www.w3.org/1999/xlink" viewBox="0 0 50 50" width="50px" height="50px"><path d="M50,6.887c-0.004-0.332-0.173-0.64-0.449-0.822c-0.277-0.183-0.628-0.217-0.934-0.089L28.358,14.36c-1.307,0.475-3.042,0.689-4.436,0.861c-0.682,0.084-1.244,0.156-1.721,0.258c-2.067-0.511-4.313-0.734-6.431-0.734c-0.852,0-3.719,0.049-4.848,0.676c-1.344,0.728-3.759,3.152-5.51,6.181c-0.016,0.012-0.036,0.017-0.051,0.029c-4.742,3.932-6.384,7.72-4.915,11.174c1.292,4.036,6.554,10.44,15.173,10.44c0,0,0,0,0.001,0c2.619,0,5.338-0.616,8.086-1.832C34.3,36.681,34.3,28.074,34.3,24.4c0-0.54,0.223-2.393,3.099-3.583c1.503-0.653,4.312-1.804,7.285-3.022c1.576-0.646,3.222-1.32,4.798-1.971c0.378-0.156,0.623-0.527,0.618-0.937L50,6.887z M11.885,17.174c0.243-0.134,1.557-0.429,3.886-0.429c4.781,0,10.788,1.251,11.98,4.771c0.591,1.773-2.75,6.067-9.33,8.758c-3.212,1.314-6.292,2.038-8.672,2.038c-1.522,0-3.456-0.293-4.024-1.692C3.738,25.783,9.569,18.429,11.885,17.174z"/><circle cx="12" cy="24" r="1"/><circle cx="14" cy="27" r="1"/><circle cx="10" cy="27" r="1"/></svg>