<?xml version="1.0" encoding="iso-8859-1"?>
<!-- Generator: Adobe Illustrator 24.2.1, SVG Export Plug-In . SVG Version: 6.00 Build 0)  -->
<svg version="1.1" id="Layer_1" xmlns="http://www.w3.org/2000/svg" xmlns:xlink="http://www.w3.org/1999/xlink" x="0px" y="0px"
	 viewBox="0 0 50 50" style="enable-background:new 0 0 50 50;" xml:space="preserve">
<path d="M23.7,27.68c-1.53,0-2.99-0.48-3.93-1.26c0.45-0.19,0.9-0.41,1.34-0.64c2.04-1.1,3.94-2.54,5.37-4.41
	c0.56-0.74,1.04-1.53,1.46-2.36c1.05,0.73,1.67,1.71,1.79,2.83c0.15,1.43-0.48,2.97-1.73,4.23c-1.01,1.03-2.56,1.61-4.27,1.61H23.7z
	"/>
<path d="M35,38.89c-5.26,4-12.06,5.83-18.54,4.85c-2.47-0.38-5.01-1.22-6.69-3.13c-1.87-2.12-2.29-5.44-1.11-8.02
	c0.95-2.11,3-3.23,5.04-3.96c1.34-0.48,2.7-0.9,4.03-1.39l0.31,0.31c1.29,1.33,3.4,2.12,5.65,2.13h0.04c2.27,0,4.29-0.78,5.7-2.2
	c1.67-1.69,2.5-3.83,2.29-5.85c-0.19-1.79-1.17-3.3-2.87-4.42l-0.1-0.06c0.21-0.54,0.39-1.09,0.56-1.64
	c0.61-2.02,0.81-4.08,2.17-5.76c1.73-2.14,4.51-3.2,7.15-2.57c1.92,0.46,3.54,1.72,4.54,3.47c0.21,0.35,0.39,0.72,0.55,1.09
	c0.43,1.02,0.71,2.1,0.91,3.19C46.31,24.13,42.17,33.43,35,38.89z"/>
<path d="M23.38,21.79c-0.91,0.82-1.99,1.56-3.22,2.22c-1.63,0.88-3.38,1.47-5.24,2.09c-0.63,0.21-1.26,0.42-1.9,0.65
	c-2.18,0.78-3.82,1.81-4.96,3.12c-2.58-4.57-3.69-9.98-2.71-15.35c0.19-1.04,0.45-2.07,0.85-3.03c0.15-0.35,0.32-0.7,0.51-1.04
	c0.95-1.65,2.46-2.84,4.26-3.28c2.47-0.6,5.09,0.41,6.71,2.43c1.27,1.59,1.46,3.54,2.03,5.46c0.59,1.98,1.41,3.92,2.65,5.55
	C22.67,21.03,23.01,21.42,23.38,21.79z"/>
</svg>