<?xml version="1.0" encoding="utf-8"?><!-- Generator: Adobe Illustrator 15.0.0, SVG Export Plug-In . SVG Version: 6.00 Build 0)  --><!DOCTYPE svg PUBLIC "-//W3C//DTD SVG 1.1//EN" "http://www.w3.org/Graphics/SVG/1.1/DTD/svg11.dtd"><svg xmlns="http://www.w3.org/2000/svg" xmlns:xlink="http://www.w3.org/1999/xlink" viewBox="0 0 50 50" width="50px" height="50px"><path d="M31,7H19c-1.103,0-2-0.897-2-2V3c0-1.103,0.897-2,2-2h12c1.103,0,2,0.897,2,2v2C33,6.103,32.103,7,31,7z"/><path d="M31.831,8.911C31.563,8.968,31.285,9,31,9H19c-0.293,0-0.577-0.036-0.852-0.096C15.908,13.071,14,20.501,14,22.822V45c0,2.757,2.243,5,5,5h12c2.757,0,5-2.243,5-5V22.822C36,20.503,34.082,13.079,31.831,8.911z"/></svg>