<?xml version="1.0" encoding="utf-8"?><!-- Generator: Adobe Illustrator 19.1.1, SVG Export Plug-In . SVG Version: 6.00 Build 0)  --><svg xmlns="http://www.w3.org/2000/svg" xmlns:xlink="http://www.w3.org/1999/xlink" viewBox="0 0 50 50" width="50px" height="50px"><path fill="#231F20" d="M25.5,24.9C25.3,25,25.2,25,25,25c-0.1,0-0.3,0-0.4-0.1c-0.1-0.1-1.8-1-3.6-2.9v24c0,0.3,0.1,0.5,0.3,0.7c0.1,0.1,1.3,1.3,3.7,1.3c2.4,0,3.6-1.2,3.7-1.3c0.2-0.2,0.3-0.4,0.3-0.7V21.9C27.2,23.7,25.6,24.8,25.5,24.9z"/><path fill="#231F20" d="M18.2,12.9C18.2,12.9,18.2,12.9,18.2,12.9c1.3,5.6,5.4,9.1,6.8,10c1.4-0.9,5.4-4.4,6.7-9.2c0.1-0.3,0.1-0.5,0.2-0.8c0.1-0.3,0.1-0.6,0.2-0.9c0-0.1,0-1,0-1c0-4.4-6.2-8.6-6.4-8.8c-0.3-0.2-0.8-0.2-1.1,0C24.2,2.3,18,6.5,18,11c0,0-0.1,0.6,0,1C18,12.3,18.1,12.6,18.2,12.9z M22.3,11.3C22.3,11.3,22.3,11.3,22.3,11.3C22.3,11.3,22.3,11.3,22.3,11.3c0.4-0.3,0.8-0.7,1.2-1c-0.9-1-1.5-2.1-1.9-2.9c0.5-0.6,1-1.1,1.5-1.6c0.2,0.7,0.8,1.9,1.7,3c0.7-0.9,1.2-2,1.6-3.3c0.5,0.5,1.1,1,1.6,1.6c-0.8,2.2-2.2,3.9-3.5,5.1c0.6,0.6,1.5,1.5,2.5,2.3c1.1-0.9,2.2-2.1,3-3.6c0,0.1,0,0.2,0,0.2c0,0.7-0.1,1.5-0.3,2.2c-0.2,0.8-0.5,1.5-0.9,2.3c-1.9,1.7-4,2.6-5.5,3.1c-0.4-0.5-0.9-1.1-1.3-1.7c0.8-0.2,2-0.7,3.2-1.4c-0.9-0.8-1.8-1.7-2.3-2.2c-0.8,0.5-1.6,0.9-2.1,1.2c-0.2-0.6-0.4-1.3-0.6-1.9C20.8,12.3,21.5,11.9,22.3,11.3z"/><path fill="#231F20" d="M35.5,27.9C35.4,28,35.2,28,35,28c-0.1,0-0.3,0-0.4-0.1c-0.1-0.1-1.8-1-3.6-2.9v19c0,0.3,0.1,0.5,0.3,0.7c0.1,0.1,1.3,1.3,3.7,1.3c2.4,0,3.6-1.2,3.7-1.3c0.2-0.2,0.3-0.4,0.3-0.7V24.9C37.3,26.7,35.7,27.8,35.5,27.9z"/><path fill="#231F20" d="M15.5,27.9C15.4,28,15.2,28,15,28c-0.1,0-0.3,0-0.4-0.1c-0.1-0.1-1.8-1-3.6-2.9v19c0,0.3,0.1,0.5,0.3,0.7c0.1,0.1,1.3,1.3,3.7,1.3c2.4,0,3.6-1.2,3.7-1.3c0.2-0.2,0.3-0.4,0.3-0.7V24.9C17.3,26.7,15.7,27.8,15.5,27.9z"/><path fill="#231F20" d="M14.5,15.1c0.6,0.6,1.5,1.5,2.5,2.3c0.2-0.1,0.3-0.3,0.5-0.4c-0.5-1.1-1-2.3-1.3-3.6c0,0,0,0,0-0.1C15.7,14,15.1,14.6,14.5,15.1z"/><path fill="#231F20" d="M18.5,18.8c-1.8,1.5-3.7,2.4-5.1,2.9c-0.4-0.5-0.9-1.1-1.3-1.7c0.8-0.2,2-0.7,3.2-1.4c-0.9-0.8-1.8-1.7-2.3-2.2c-0.8,0.5-1.6,0.9-2.1,1.2c-0.2-0.6-0.4-1.3-0.6-1.9c0.6-0.3,1.3-0.7,2.1-1.3c0,0,0,0,0,0c0,0,0,0,0,0c0.4-0.3,0.8-0.6,1.2-1c-0.9-1-1.5-2.1-1.9-2.9c0.5-0.6,1-1.1,1.5-1.6c0.2,0.7,0.8,1.9,1.7,3c0.7-0.9,1.2-2,1.6-3.3c0,0,0,0,0,0c0.2-0.7,0.5-1.3,0.9-1.9c-0.9-0.8-1.7-1.3-1.8-1.4c-0.3-0.2-0.8-0.2-1.1,0C14.2,5.3,8,9.5,8,14c0,0-0.1,0.6,0,1c0,0.3,0.1,0.6,0.2,0.9c0,0,0,0,0,0c1.3,5.6,5.4,9.1,6.8,10c0.9-0.6,3.1-2.5,4.8-5.1C19.4,20.1,18.9,19.5,18.5,18.8z"/><path fill="#231F20" d="M42,14c0-4.4-6.2-8.6-6.4-8.8c-0.3-0.2-0.8-0.2-1.1,0c-0.1,0.1-0.9,0.6-1.9,1.4c0.7,1.2,1.2,2.5,1.3,3.8c0.3,0.4,0.5,0.9,0.9,1.3c0.7-0.9,1.2-2,1.6-3.3c0.5,0.5,1.1,1,1.6,1.6c-0.8,2.2-2.2,3.9-3.5,5.1c0.6,0.6,1.5,1.5,2.5,2.3c1.1-0.9,2.2-2.1,3-3.6c0,0.1,0,0.2,0,0.2c0,0.7-0.1,1.5-0.3,2.2c-0.2,0.8-0.5,1.5-0.9,2.3c-1.9,1.7-4,2.6-5.5,3.1c-0.4-0.5-0.9-1.1-1.3-1.7c0.8-0.2,2-0.7,3.2-1.4c-0.9-0.8-1.8-1.7-2.3-2.2c-0.1,0-0.1,0.1-0.2,0.1c-0.7,1.6-1.6,3-2.6,4.1c1.7,2.8,3.9,4.7,4.9,5.2c1.4-0.9,5.4-4.4,6.7-9.2c0.1-0.3,0.1-0.5,0.2-0.8c0.1-0.3,0.1-0.6,0.2-0.9C42,14.9,42,14,42,14z"/></svg>