<?xml version="1.0" encoding="iso-8859-1"?>
<!-- Generator: Adobe Illustrator 23.0.3, SVG Export Plug-In . SVG Version: 6.00 Build 0)  -->
<svg version="1.1" xmlns="http://www.w3.org/2000/svg" xmlns:xlink="http://www.w3.org/1999/xlink" x="0px" y="0px"
	 viewBox="0 0 50 50" style="enable-background:new 0 0 50 50;" xml:space="preserve">
<g id="Layer_10" style="display:none;">
</g>
<g id="filled">
</g>
<g id="outlined">
</g>
<g id="rounded">
</g>
<g id="two_x5F_tone">
</g>
<g id="sharp">
</g>
<g id="win10">
</g>
<g id="color">
</g>
<g id="ios_x5F_out">
</g>
<g id="ios_x5F_filled">
	<path d="M37.02,46.05C36.63,47.1,35.97,48,34.87,48H15.13c-1.1,0-1.76-0.9-2.15-1.95c-0.67-1.8-1.36-4.73-0.74-9.13
		c0.91-6.5,4.14-12.55,6.13-16.92h13.26c1.99,4.37,5.22,10.42,6.13,16.92C38.38,41.32,37.69,44.25,37.02,46.05z M25,32
		c-4.418,0-8,2.239-8,5s3.582,5,8,5s8-2.239,8-5S29.418,32,25,32z"/>
	<polygon points="31,7 19,7 17,2 33,2 	"/>
	<path style="fill:none;stroke:#000000;stroke-width:2;stroke-linejoin:round;stroke-miterlimit:10;" d="M19,6
		c0.812,1.662,1,6.983,1,9c0,3.701-6.415,12.312-7.758,21.919c-0.617,4.399,0.065,7.336,0.737,9.131
		c0.39,1.053,1.051,1.95,2.155,1.95h19.733c1.105,0,1.765-0.898,2.155-1.95c0.671-1.795,1.354-4.732,0.737-9.131
		C36.415,27.312,30,18.701,30,15c0-2.017,0.188-7.338,1-9l2-4H17L19,6z"/>
</g>
<g id="cute-color">
</g>
<g id="cute-out">
</g>
<g id="plasticine">
</g>
<g id="carbon_copy">
</g>
</svg>