<?xml version="1.0" encoding="utf-8"?><!-- Generator: Adobe Illustrator 15.0.0, SVG Export Plug-In . SVG Version: 6.00 Build 0)  --><!DOCTYPE svg PUBLIC "-//W3C//DTD SVG 1.1//EN" "http://www.w3.org/Graphics/SVG/1.1/DTD/svg11.dtd"><svg xmlns="http://www.w3.org/2000/svg" xmlns:xlink="http://www.w3.org/1999/xlink" viewBox="0 0 50 50" width="50px" height="50px"><path d="M40.917,9.088c-0.18-0.121-0.323-0.212-0.405-0.286c-2.33-2.089-2.966-6.88-2.972-6.928l-0.127-0.99l-0.989,0.124c-2.184,0.274-3.985,1.561-4.061,1.616L31.51,3.242l0.662,0.821c0.024,0.03,2.463,3.083,2.625,5.881c-0.028,0.122-0.24,0.475-0.41,0.758c-0.479,0.795-1.2,1.996-1.652,3.786l-0.029,0.117c-0.561,2.226-1.872,7.438-7.818,12.5c-3.163,2.693-5.767,4.148-8.524,5.688c-3.177,1.775-6.778,3.787-11.739,8.012c-0.91,0.775-1.803,3.234-2.055,3.97l-0.153,0.445l1.441,2.35l0.255,0.128c1.225,0.615,2.619,1.25,3.672,1.296C7.847,48.997,7.959,49,8.117,49c1.443,0,14.468-0.319,27.345-11.359C44.631,29.778,46,22.142,46,18.29C46,12.522,42.308,10.028,40.917,9.088z M29.185,33.827c-5.133,4.479-8.181,5.774-12.04,7.413c-3.064,1.302-4.648,1.587-10.16,5.072c-0.166,0.104-0.351,0.154-0.533,0.154c-0.332,0-0.656-0.165-0.846-0.466c-0.295-0.467-0.156-1.084,0.311-1.38c5.649-3.571,7.313-3.891,10.447-5.222c3.695-1.569,6.614-2.809,11.507-7.079c8.198-7.154,9.422-15.461,9.422-19.775c0-0.552,0.447-1,1-1s1,0.448,1,1C39.292,17.199,37.979,26.152,29.185,33.827z"/><path fill="none" stroke="#000000" stroke-width="2" stroke-miterlimit="10" d="M4.561,46.805L3.515,45.1c0,0,0.986-2.875,1.758-3.533c9.145-7.787,13.311-7.78,20.262-13.699c6.294-5.359,7.594-10.855,8.169-13.134c0.711-2.815,2.129-4.014,2.088-4.769c-0.179-3.243-2.843-6.53-2.843-6.53S34.594,2.245,36.548,2c0,0,0.652,5.176,3.296,7.547C40.591,10.217,45,12.192,45,18.29c0,4.728-2.174,11.719-10.189,18.592C21.761,48.07,8.747,48.035,7.828,47.995C6.91,47.955,5.479,47.266,4.561,46.805z"/></svg>