<?xml version="1.0" encoding="iso-8859-1"?><!-- Generator: Adobe Illustrator 19.1.1, SVG Export Plug-In . SVG Version: 6.00 Build 0)  --><svg xmlns="http://www.w3.org/2000/svg" xmlns:xlink="http://www.w3.org/1999/xlink" viewBox="0 0 50 50" width="50px" height="50px"><path d="M28,6h-6c-1.103,0-2-0.897-2-2l0,0c0-1.103,0.897-2,2-2h6c1.103,0,2,0.897,2,2l0,0C30,5.103,29.103,6,28,6z"/><g><path d="M25,31c-1.958,0-3.688,0.513-5,1v2.154C21.168,33.647,22.947,33,25,33c2.036,0,3.825,0.648,5,1.158V32C28.685,31.512,26.954,31,25,31z"/></g><path d="M30,20c0-0.51,0.169-0.905,0.384-1.406C30.658,17.952,31,17.154,31,16c0-1.325-0.734-2.192-1.323-2.89C29.313,12.682,29,12.311,29,12V8h-8v4c0,0.311-0.313,0.682-0.677,1.11C19.734,13.808,19,14.675,19,16c0,1.154,0.342,1.952,0.616,2.594C19.831,19.095,20,19.49,20,19.989c-0.034,0.257-0.618,0.968-1.045,1.486C17.708,22.992,16,25.068,16,28v16.056c0,0.772,0.183,1.546,0.528,2.236l0.578,1.155C17.275,47.786,17.621,48,18,48h14c0.379,0,0.725-0.214,0.895-0.553l0.578-1.155C33.817,45.602,34,44.828,34,44.056V28c0-2.932-1.708-5.008-2.956-6.524C30.618,20.957,30.033,20.246,30,20z M32,41.44C30.558,42.028,27.761,43,25,43s-5.558-0.972-7-1.56V29.559C19.439,28.97,22.23,28,25,28c2.761,0,5.558,0.972,7,1.56V41.44z"/></svg>