<?xml version="1.0" encoding="iso-8859-1"?><!-- Generator: Adobe Illustrator 21.1.0, SVG Export Plug-In . SVG Version: 6.00 Build 0)  --><svg xmlns="http://www.w3.org/2000/svg" xmlns:xlink="http://www.w3.org/1999/xlink" viewBox="0 0 50 50" width="50px" height="50px"><path d="M45.33,31.55c-1.92-11.37-7.98-18.2-17.34-19.36C27.03,12.06,26.03,12,25,12s-2.03,0.06-2.99,0.19C10.75,13.59,4.27,23.18,4.01,39H2v2h28.05c0.51,5.03,4.79,9,9.95,9c5.5,0,10-4.5,10-10C50,36.46,48.13,33.33,45.33,31.55z M31,33h-3.51L25,35.49L22.51,33H19v-3.51L16.51,27L19,24.51V21h3.51L25,18.51L27.49,21H31v3.51L33.49,27L31,29.49V33z M40,48c-4.4,0-8-3.6-8-8c0-4.4,3.6-8,8-8s8,3.6,8,8C48,44.4,44.4,48,40,48z"/><path style="fill:none;stroke:#000000;stroke-width:2;stroke-miterlimit:10;" d="M22,13c0-2.209,0-4,3-4s3,1.791,3,4"/><path d="M40,35c-2.2,0-3,1.8-3,3h2c0-0.5,0.2-1,1-1c0.5,0,1,0.2,1,1c0,0.1-0.3,0.5-0.5,0.7C39.9,39.4,39,40.5,39,42h2c0-0.8,0.5-1.4,1-2c0.5-0.6,1-1.2,1-2C43,35.8,41.2,35,40,35z M39,43v2h2v-2H39z M40,35c-2.2,0-3,1.8-3,3h2c0-0.5,0.2-1,1-1c0.5,0,1,0.2,1,1c0,0.1-0.3,0.5-0.5,0.7C39.9,39.4,39,40.5,39,42h2c0-0.8,0.5-1.4,1-2c0.5-0.6,1-1.2,1-2C43,35.8,41.2,35,40,35z M39,45h2v-2h-2V45z M40,35c-2.2,0-3,1.8-3,3h2c0-0.5,0.2-1,1-1c0.5,0,1,0.2,1,1c0,0.1-0.3,0.5-0.5,0.7C39.9,39.4,39,40.5,39,42h2c0-0.8,0.5-1.4,1-2c0.5-0.6,1-1.2,1-2C43,35.8,41.2,35,40,35z M39,45h2v-2h-2V45z"/></svg>