<?xml version="1.0" encoding="iso-8859-1"?><!-- Generator: Adobe Illustrator 19.1.0, SVG Export Plug-In . SVG Version: 6.00 Build 0)  --><svg xmlns="http://www.w3.org/2000/svg" xmlns:xlink="http://www.w3.org/1999/xlink" viewBox="0 0 50 50" width="50px" height="50px"><path style="fill:none;stroke:#000000;stroke-width:2;stroke-miterlimit:10;" d="M31.244,15.5c-5.085,5.451-15.367,6.796-20.824,10.2C5.32,29.142,4,32.773,4,36.744c0,4.765,3.48,9.392,8.753,9.956"/><path d="M42.232,10.607c-0.863-0.749-2.24-1.169-2.882-3.384L39.272,5l-1.199,1.242c-0.599,0.62-1.321,1.466-2.236,2.538c-1.34,1.57-3.175,3.72-5.744,6.473l-1.161,1.244c-2.249,1.922-5.36,3.794-8.166,4.866c-0.157-0.07-0.32-0.13-0.489-0.179l-0.527,1.691c0.688,0.342,0.961,1.058,1.125,2c0.452,2.594-1.021,7.396-4.375,10.625c-4.038,3.887-8.845,5.47-11.375,3.875c0,0-1.125,1.401-1.333,1.254c1.228,4.527,5.016,7.105,9.702,7.606c0.764,0.082,1.507,0.1,2.232,0.1c4.922,0,8.957-1.866,12.281-5.714c4.341-5.025,5.495-10.073,6.611-14.954c1.106-4.836,2.157-9.407,6.183-13.913l2.259-2.427L42.232,10.607z"/><path style="fill:none;stroke:#000000;stroke-width:2;stroke-miterlimit:10;" d="M42.171,10.777l2.626-1.965C45.976,7.757,46,7,46,7l-1.434-0.695L46,3c0,0-4.358,0.115-6.633,3.418C39.109,7.463,39.713,9.088,42.171,10.777z"/><path d="M15.964,29.669c-0.105-0.607-0.444-1.101-0.952-1.391c-1.441-0.822-3.48,0.248-4.749,1.729c-0.939,1.097-1.398,2.339-1.227,3.324c0.105,0.607,0.444,1.101,0.952,1.391c0.346,0.197,0.725,0.285,1.121,0.285c1.253,0,2.664-0.888,3.628-2.014C15.677,31.896,16.135,30.653,15.964,29.669z"/></svg>