<?xml version="1.0" encoding="utf-8"?><!-- Generator: Adobe Illustrator 15.0.0, SVG Export Plug-In . SVG Version: 6.00 Build 0)  --><!DOCTYPE svg PUBLIC "-//W3C//DTD SVG 1.1//EN" "http://www.w3.org/Graphics/SVG/1.1/DTD/svg11.dtd"><svg xmlns="http://www.w3.org/2000/svg" xmlns:xlink="http://www.w3.org/1999/xlink" viewBox="0 0 50 50" width="500px" height="500px"><g><path d="M30.999,18c0.793,0,2.837,0.004,3.653,1h9.631h4.929h0.001L16.56,4.504c-0.118-0.053-0.244-0.078-0.371-0.083c-0.049-0.002-0.094,0.013-0.142,0.019c-0.066,0.007-0.133,0.005-0.198,0.026c-0.017,0.005-0.032,0.012-0.048,0.018c-0.003,0.001-0.007,0.002-0.011,0.004C5.399,7.846,1.302,16.472,0.302,19h27.045C28.163,18.004,30.206,18,30.999,18z M22.999,12.996c-2.209,0-3.999-0.893-3.999-1.997c0-0.919,1.248-1.686,2.938-1.919l5.001,2.22C26.646,12.26,25.003,12.996,22.999,12.996z"/><path d="M49.319,25.884C49.726,25.747,50,25.365,50,24.936V21h-0.998h-0.005H34.858c-0.445,1.722-1.997,3-3.858,3s-3.412-1.278-3.858-3H0v21.527c0,1.478,1.156,2.636,2.631,2.636c0.042,0,0.09-0.003,0.137-0.005c0,0,0,0,0,0c0.025,0,0.05-0.001,0.076-0.003l44.464-3.328C48.792,41.713,50,40.41,50,38.923v-6.813c0-0.427-0.274-0.808-0.678-0.946C49.299,31.154,47,30.34,47,28.523S49.3,25.891,49.319,25.884z M11,32c-2.761,0-5-1.79-5-3.998s2.239-3.998,5-3.998s5,1.79,5,3.998S13.761,32,11,32z M28.915,41.198l-9.166,0.687C18.672,40.941,18,39.649,18,38.216C18,35.338,20.686,33,23.999,33C27.314,33,30,35.338,30,38.216C30,39.326,29.597,40.354,28.915,41.198z M37.498,37C35.568,37,34,35.656,34,34.002C34,32.344,35.568,31,37.498,31C39.432,31,41,32.344,41,34.002C41,35.656,39.432,37,37.498,37z"/></g></svg>