<?xml version="1.0" encoding="utf-8"?><!-- Generator: Adobe Illustrator 15.0.0, SVG Export Plug-In . SVG Version: 6.00 Build 0)  --><!DOCTYPE svg PUBLIC "-//W3C//DTD SVG 1.1//EN" "http://www.w3.org/Graphics/SVG/1.1/DTD/svg11.dtd"><svg xmlns="http://www.w3.org/2000/svg" xmlns:xlink="http://www.w3.org/1999/xlink" viewBox="0 0 50 50" width="50px" height="50px"><path d="M13.832,27C13.831,27,13.831,27,13.832,27C8.475,27,3,26.304,3,21.137c0-5.662,8.125-16.807,21.402-18.026C25.203,3.038,26.013,3,26.808,3C38.946,3,47,11.246,47,16.699c0,6.965-8.479,8.901-22.162,9.768l-1.664,0.106C19.786,26.793,16.585,27,13.832,27z"/><g><path d="M24.966,28.463l-1.662,0.106c-1.126,0.073-2.222,0.142-3.3,0.205c-0.467,4.437-1.599,10.433-4.344,14.562c-0.865,1.3-0.723,2.179-0.45,2.688c0.195,0.364,0.7,0.977,1.883,0.977h14.573c1.574,0,2.033-0.933,2.292-1.907c0.504-1.86,1.877-8.259,0.261-17.52C31.291,28.007,28.139,28.262,24.966,28.463z"/></g></svg>