<?xml version="1.0" encoding="iso-8859-1"?>
<!-- Generator: Adobe Illustrator 23.0.3, SVG Export Plug-In . SVG Version: 6.00 Build 0)  -->
<svg version="1.1" xmlns="http://www.w3.org/2000/svg" xmlns:xlink="http://www.w3.org/1999/xlink" x="0px" y="0px"
	 viewBox="0 0 50 50" style="enable-background:new 0 0 50 50;" xml:space="preserve">
<g id="Layer_10" style="display:none;">
</g>
<g id="filled">
</g>
<g id="outlined">
</g>
<g id="rounded">
</g>
<g id="two_x5F_tone">
</g>
<g id="sharp">
</g>
<g id="win10_copy">
</g>
<g id="ios_x5F_out">
</g>
<g id="ios_x5F_filled">
	<path d="M41.058,17.752l-0.387,0.907C43.374,19.852,45,21.359,45,23c0,3.866-8.954,7-20,7S5,26.866,5,23
		c0-1.641,1.626-3.148,4.329-4.341l-0.386-0.907C5.055,19.41,3,21.57,3,24c0,5.382,5.416,21,22,21s22-15.618,22-21
		C47,21.57,44.945,19.41,41.058,17.752z"/>
	<path style="fill:none;stroke:#000000;stroke-width:2;stroke-miterlimit:10;" d="M11.714,16.804C7.006,18.271,4,20.502,4,23
		c0,4.418,9.402,8,21,8s21-3.582,21-8c0-2.385-2.74-4.527-7.086-5.992"/>
	<path d="M32.436,26.497C31,28,27,28,25,28s-6,0-7.436-1.503C17.574,17.286,20.124,8.969,25,8.969S32.426,17.286,32.436,26.497z"/>
	<path d="M41.902,22.502l-0.011,0.117c0,0.829-1.891,3.381-7.33,3.463c-0.064-7.702-1.785-14.362-5.46-17.602
		c2.741-0.595,5.45,0.032,7.766,1.827C40.5,13.144,42.476,17.318,41.902,22.502z"/>
	<path d="M8.098,22.502l0.011,0.117c0,0.829,1.891,3.381,7.33,3.463c0.064-7.702,1.785-14.362,5.46-17.602
		c-2.741-0.595-5.45,0.032-7.766,1.827C9.5,13.144,7.524,17.318,8.098,22.502z"/>
</g>
<g id="color">
</g>
</svg>