<?xml version="1.0" encoding="utf-8"?><!-- Generator: Adobe Illustrator 15.0.0, SVG Export Plug-In . SVG Version: 6.00 Build 0)  --><!DOCTYPE svg PUBLIC "-//W3C//DTD SVG 1.1//EN" "http://www.w3.org/Graphics/SVG/1.1/DTD/svg11.dtd"><svg xmlns="http://www.w3.org/2000/svg" xmlns:xlink="http://www.w3.org/1999/xlink" viewBox="0 0 50 50" width="50px" height="50px"><path d="M30,14c-1.8,0-3.4,0.4-5,1c-1.6-0.6-3.2-1-5-1c-7.7,0-14,6.7-14,15s6.3,15,14,15c1.8,0,3.4-0.4,5-1c1.6,0.6,3.2,1,5,1c7.7,0,14-6.7,14-15S37.7,14,30,14z M37,21c1.104,0,2,0.896,2,2s-0.896,2-2,2s-2-0.896-2-2S35.896,21,37,21z M32,16c1.104,0,2,0.896,2,2s-0.896,2-2,2s-2-0.896-2-2S30.896,16,32,16z M30.7,21.3c1.104,0,2,0.896,2,2c0,1.105-0.896,2-2,2s-2-0.895-2-2C28.7,22.195,29.596,21.3,30.7,21.3z M18,16c1.104,0,2,0.896,2,2s-0.896,2-2,2s-2-0.896-2-2S16.896,16,18,16z M13,21c1.104,0,2,0.896,2,2s-0.896,2-2,2s-2-0.896-2-2S11.896,21,13,21z M10,31c-1.104,0-2-0.896-2-2s0.896-2,2-2s2,0.896,2,2S11.104,31,10,31z M13,37c-1.104,0-2-0.896-2-2s0.896-2,2-2s2,0.896,2,2S14.104,37,13,37z M15,29c0-1.104,0.896-2,2-2s2,0.896,2,2s-0.896,2-2,2S15,30.104,15,29z M18,42c-1.104,0-2-0.896-2-2s0.896-2,2-2s2,0.896,2,2S19.104,42,18,42z M19.3,36.7c-1.104,0-2-0.896-2-2s0.896-2,2-2c1.105,0,2,0.896,2,2S20.405,36.7,19.3,36.7z M19.3,25.3c-1.104,0-2-0.895-2-2c0-1.104,0.896-2,2-2c1.105,0,2,0.896,2,2C21.3,24.405,20.405,25.3,19.3,25.3z M25,39c-1.104,0-2-0.896-2-2s0.896-2,2-2s2,0.896,2,2S26.104,39,25,39z M25,31c-1.104,0-2-0.896-2-2s0.896-2,2-2s2,0.896,2,2S26.104,31,25,31z M25,23c-1.104,0-2-0.896-2-2s0.896-2,2-2s2,0.896,2,2S26.104,23,25,23z M28.7,34.7c0-1.104,0.896-2,2-2s2,0.896,2,2s-0.896,2-2,2S28.7,35.805,28.7,34.7z M32,42c-1.104,0-2-0.896-2-2s0.896-2,2-2s2,0.896,2,2S33.104,42,32,42z M33,31c-1.104,0-2-0.896-2-2s0.896-2,2-2s2,0.896,2,2S34.104,31,33,31z M37,37c-1.104,0-2-0.896-2-2s0.896-2,2-2s2,0.896,2,2S38.104,37,37,37z M40,31c-1.104,0-2-0.896-2-2s0.896-2,2-2s2,0.896,2,2S41.104,31,40,31z"/><path d="M31.947,8.955c-0.002-0.005-0.003-0.012-0.005-0.017c0,0-0.287-0.07-0.757-0.173C30.781,7.834,30.026,5.183,32.3,3.7c-1.5,0-2.7,0.4-3.6,1c-0.3-1.6-1-3.3-2.2-4.7c-1,1.1-1.7,2.5-2,3.9c-0.8-0.9-1.9-1.7-3.2-2.1c0.6,1.5,0.8,2.7,0.9,3.8c-1-1-2.5-1.8-4.6-1.9c2,1.5,2,3.6,1.8,4.9c-0.245,0.054-0.458,0.106-0.654,0.158c-0.486,0.106-0.786,0.18-0.786,0.18C7.916,11.644,1,19.731,1,29c0,11.579,10.767,21,24,21s24-9.421,24-21C49,19.733,42.016,11.558,31.947,8.955z M30,46c-1.626,0-3.231-0.28-5-0.877C23.23,45.72,21.625,46,20,46c-8.822,0-16-7.626-16-17s7.178-17,16-17c1.627,0,3.232,0.28,5,0.877C26.768,12.28,28.373,12,30,12c8.822,0,16,7.626,16,17S38.822,46,30,46z"/></svg>