<?xml version="1.0" encoding="iso-8859-1"?><!-- Generator: Adobe Illustrator 22.1.0, SVG Export Plug-In . SVG Version: 6.00 Build 0)  --><svg xmlns="http://www.w3.org/2000/svg" xmlns:xlink="http://www.w3.org/1999/xlink" viewBox="0 0 50 50" width="500px" height="500px"><circle cx="38" cy="14" r="1"/><circle cx="37.5" cy="24.5" r="1.5"/><circle cx="23.5" cy="26.5" r="1.5"/><circle cx="35.5" cy="35.5" r="1.5"/><circle cx="29" cy="31" r="1"/><circle cx="23" cy="14" r="1"/><circle cx="22" cy="37" r="1"/><circle cx="29.5" cy="19.5" r="1.5"/><path d="M30,5.003V5h-8C11.612,5,2,5.908,2,12.5c0,2.091,0.794,3.751,2.358,4.935C4.76,17.738,5,18.272,5,18.864V40c0,2.206,1.794,4,4,4h10.701H36h5.167C43.245,44,45,42.168,45,40V18.864c0-0.389,0.065-1.094,0.505-1.456C47.16,16.043,48,14.392,48,12.5C48,6.005,39.403,5.03,30,5.003z M44.232,15.865C43.438,16.521,43,17.585,43,18.864V40c0,1.084-0.84,2-1.833,2H36H19.701C18.747,42,18,41.121,18,40V18.864c0-1.174-0.51-2.295-1.363-2.999C15.535,14.957,15,13.856,15,12.5C15,8.439,18.816,7,29.583,7C41.09,7,46,8.645,46,12.5C46,13.783,45.422,14.884,44.232,15.865z"/></svg>