<?xml version="1.0" encoding="iso-8859-1"?>
<!-- Generator: Adobe Illustrator 23.0.6, SVG Export Plug-In . SVG Version: 6.00 Build 0)  -->
<svg version="1.1" id="Filled" xmlns="http://www.w3.org/2000/svg" xmlns:xlink="http://www.w3.org/1999/xlink" x="0px" y="0px"
	 viewBox="0 0 50 50" style="enable-background:new 0 0 50 50;" xml:space="preserve">
<circle cx="37" cy="11" r="1"/>
<circle cx="28.5" cy="10.5" r="1.5"/>
<circle cx="19.5" cy="40.5" r="1.5"/>
<path d="M32,34c-3.309,0-6-2.691-6-6s2.691-6,6-6s6,2.691,6,6S35.309,34,32,34z"/>
<path style="fill:none;stroke:#000000;stroke-width:2;stroke-miterlimit:10;" d="M20,28c0-6.791,5-11.99,12-11.99
	c7,0,12,5.199,12,11.99c0,1.187-0.17,2.334-0.486,3.417c-0.432,1.48-0.267,3.054,0.182,4.529c0.315,1.036,0.399,2.176,0.187,3.36
	c-0.506,2.817-2.749,5.089-5.524,5.583c-2.919,0.52-5.574-0.831-7.009-3.067c-0.807-1.258-2.07-2.108-3.447-2.654
	C23.47,37.411,20,35,20,28"/>
<circle cx="20" cy="12" r="1"/>
<circle cx="17" cy="33" r="1"/>
<circle cx="17.5" cy="19.5" r="1.5"/>
<path d="M27,4.003V4h-4C13.893,4,5,4.579,5,11.5c0,2.092,0.794,3.752,2.359,4.934C7.761,16.737,8,17.271,8,17.864V42
	c0,2.206,1.794,4,4,4h3.75H23h8.209c-0.741-0.559-1.403-1.233-1.974-2H23h-7.25C14.785,44,14,43.103,14,42V17.864
	c0-1.198-0.491-2.319-1.315-3C11.551,13.931,11,12.83,11,11.5C11,7.542,15.369,6,26.583,6C38.09,6,43,7.645,43,11.5
	c0,1.33-0.551,2.431-1.685,3.366c-0.274,0.226-0.495,0.513-0.69,0.823c0.545,0.385,1.072,0.802,1.569,1.265
	c0.099-0.219,0.229-0.411,0.393-0.545C44.188,15.088,45,13.437,45,11.5C45,5.005,36.403,4.03,27,4.003z"/>
</svg>