<?xml version="1.0" encoding="utf-8"?><!-- Generator: Adobe Illustrator 15.0.0, SVG Export Plug-In . SVG Version: 6.00 Build 0)  --><!DOCTYPE svg PUBLIC "-//W3C//DTD SVG 1.1//EN" "http://www.w3.org/Graphics/SVG/1.1/DTD/svg11.dtd"><svg xmlns="http://www.w3.org/2000/svg" xmlns:xlink="http://www.w3.org/1999/xlink" viewBox="0 0 50 50" width="50px" height="50px"><path d="M15.455,49.984L15.455,49.984C8.325,49.984,0,47.945,0,42.2c0-5.629,2.75-8.294,5.661-11.115c2.55-2.471,5.187-5.026,6.366-10.015c0.188-0.819,4.728-20.21,12.261-21.063c0.255-0.021,0.497-0.031,0.754-0.031c4.684,0,13.175,3.063,15.644,14.471c8.7,4.86,9.801,10.416,9.173,14.248c-1.603,9.77-16.023,18.639-28.488,20.792C19.579,49.812,17.53,49.984,15.455,49.984z M25.042,1.975c-0.2,0-0.388,0.007-0.562,0.021c-4.003,0.454-8.409,10.4-10.506,19.527c-1.315,5.564-4.294,8.451-6.922,10.998C4.342,35.148,2,37.418,2,42.2c0,3.974,6.974,5.784,13.454,5.784h0c1.958,0,3.883-0.162,5.567-0.468c11.795-2.038,25.398-10.218,26.863-19.147c0.775-4.727-2.105-8.895-8.561-12.39c-0.263-0.142-0.447-0.393-0.505-0.685C36.734,4.781,29.178,1.975,25.042,1.975z"/><path d="M38.192,17.155c-1.995-9.603-9.11-12.184-13.057-12.184c-0.264,0-0.508,0.012-0.726,0.033c-4.529,0.412-6.335,8.952-7.786,15.814c-0.209,0.99-0.407,1.923-0.596,2.749c-1.222,5.108-4.702,8.713-7.499,11.609c-2.227,2.307-3.836,3.973-3.728,5.768c0.148,3.395,9.351,3.566,11.194,3.566c0,0,0,0,0.001,0c2.271,0,4.446-0.183,6.272-0.524c10.358-1.76,21.844-8.113,23.134-15.701C45.898,25.362,45.033,21.082,38.192,17.155z M24.3,13.9c0.8-1.7,2.601-2.4,4.101-1.6c1.5,0.9,2,3,1.199,4.7c-0.8,1.7-2.6,2.4-4.1,1.6C24,17.7,23.5,15.6,24.3,13.9z M37.349,31.037l-19.1,7.101C18.133,38.181,18.016,38.2,17.9,38.2c-0.406,0-0.788-0.249-0.938-0.651c-0.192-0.518,0.071-1.094,0.589-1.286l19.1-7.101c0.519-0.193,1.094,0.072,1.286,0.589C38.13,30.269,37.866,30.845,37.349,31.037z M37.352,25.736l-15.7,5.901C21.536,31.68,21.417,31.7,21.3,31.7c-0.404,0-0.785-0.247-0.936-0.648c-0.194-0.517,0.067-1.094,0.584-1.288l15.7-5.9c0.514-0.193,1.093,0.067,1.288,0.584C38.13,24.965,37.869,25.542,37.352,25.736z"/></svg>