<?xml version="1.0" encoding="iso-8859-1"?>
<!-- Generator: Adobe Illustrator 26.4.1, SVG Export Plug-In . SVG Version: 6.00 Build 0)  -->
<svg version="1.1" baseProfile="basic" id="Layer_1"
	 xmlns="http://www.w3.org/2000/svg" xmlns:xlink="http://www.w3.org/1999/xlink" x="0px" y="0px" viewBox="0 0 50 50"
	 xml:space="preserve">
<g>
	<path d="M12.622,15c0-3.548,1.569-6.911,3.863-9H15c-4.486,0-8,3.953-8,9c0,3.259,1.553,6.162,3.939,8h5.354
		C14.071,21.074,12.622,18.172,12.622,15z"/>
	<path d="M18.622,15c0-3.548,1.569-6.911,3.863-9h-2.017c-2.915,0.765-5.845,4.436-5.845,9c0,3.686,2.389,6.922,5.571,8h2.1
		C20.071,21.074,18.622,18.172,18.622,15z"/>
	<path d="M27.041,15.816C27.014,15.548,27,15.275,27,15c0-3.983,1.718-7.329,4.518-9h-5.05c-2.915,0.765-5.845,4.436-5.845,9
		c0,3.686,2.389,6.922,5.571,8h4.75C28.759,21.32,27.275,18.743,27.041,15.816z"/>
	<path d="M37.443,7.27c-1.428-0.534-2.917-0.512-4.309,0.113C30.584,8.526,29,11.445,29,15h12c0.3,0,0.583-0.134,0.773-0.366
		c0.189-0.231,0.266-0.536,0.207-0.83C41.366,10.731,39.554,8.536,37.443,7.27z"/>
</g>
<g>
	<path d="M10,25H4c-0.553,0-1,0.448-1,1v17c0,0.553,0.447,1,1,1h6V25z"/>
	<path d="M46,25H12v19h34c0.553,0,1-0.447,1-1V26C47,25.448,46.553,25,46,25z"/>
</g>
</svg>