<?xml version="1.0" encoding="utf-8"?><!-- Generator: Adobe Illustrator 19.2.0, SVG Export Plug-In . SVG Version: 6.00 Build 0)  --><svg xmlns="http://www.w3.org/2000/svg" xmlns:xlink="http://www.w3.org/1999/xlink" viewBox="0 0 50 50" width="50px" height="50px"><style type="text/css">.st0{fill:none;stroke:#000000;stroke-width:2;stroke-linecap:round;stroke-linejoin:round;stroke-miterlimit:10;}</style><g><path d="M34.5,24c6.3,0,11.5,3.6,11.5,8c0,5.2-7.4,7.3-11.8,8c-0.8,0.1-7.7,1-11.7,1c-4.4,0-11.6-1-11.7-1C7.9,39.5,3,38.2,3,35c0-2.7,3.4-5,7.5-5c0.5,0,1,0.1,1.7,0.3c1.1,0.3,2.5,0.7,4.3,0.7c4.1,0,7.9-2.8,9.1-4C27.8,25.1,31,24,34.5,24 M34.5,22c-4.1,0-7.8,1.4-10.3,3.5c-0.4,0.5-4,3.5-7.7,3.5c-2.8,0-4.3-1-6-1C5.3,28,1,31.1,1,35s4,6.1,9.5,7c0.1,0,7.5,1,12,1c4.5,0,11.9-1,12-1C42.2,40.7,48,37.5,48,32C48,26.5,42,22,34.5,22L34.5,22z"/></g><g><path d="M22.5,49c-4.4,0-11.8-1-11.8-1C7.4,47.5,2,46,2,42v-6c0,0,0.1,0,0.1,0c0.8,3,5,4.4,8.5,5c1.3,0.2,7.8,1,11.8,1c4.1,0,10.9-0.9,11.8-1c7.6-1.3,12-4.1,12.6-8c0,0,0.1,0,0.1,0v6c0,5.9-7.9,8.2-12.7,9C34.3,48,26.9,49,22.5,49z"/><path d="M46,37v2c0,5.2-7.4,7.3-11.8,8c-0.8,0.1-7.7,1-11.7,1c-4.4,0-11.6-1-11.7-1C7.9,46.5,3,45.2,3,42v-2.9c1.4,1.2,3.7,2.3,7.5,2.9c0,0,0,0,0.1,0c0.3,0,7.5,1,11.9,1c4.1,0,11.1-0.9,12-1c0,0,0,0,0.1,0C39.9,41.1,43.8,39.3,46,37 M46,31.9C46,32,46,32,46,31.9c0,5.3-7.4,7.3-11.8,8.1c-0.8,0.1-7.7,1-11.7,1c-4.4,0-11.6-1-11.7-1c-2.9-0.5-7.7-1.8-7.8-4.9C2.1,35,1.3,35,1,35c0,5.3,0,3.1,0,7c0,3.9,4,6.1,9.5,7c0.1,0,7.5,1,12,1c4.5,0,11.9-1,12-1C42.2,47.7,48,44.5,48,39c0-5.5,0-3.8,0-7C47.5,32,46.8,32,46,31.9L46,31.9z"/></g><g><path d="M24.4,30.6c0,0,0-0.1-0.1-0.1c-1.2,0.8-2.7,1.5-4.3,1.9l6.4,6.4c2.1-0.2,4.2-0.4,5.6-0.5L24.4,30.6z"/><path d="M34.3,37.7c0.1,0.1,0.1,0.2,0.2,0.2c1.2-0.2,3.1-0.7,4.9-1.4l-9.7-9.7c-1,0.4-1.9,0.9-2.7,1.5c-0.3,0.3-0.6,0.6-1,0.9L34.3,37.7z"/><path d="M8.1,32.3C6.2,32.9,5,34.1,5,35c0,1.2,2.5,2.4,6.1,3c0.4,0.1,1.6,0.2,3.1,0.4L8.1,32.3z"/><path d="M34.5,26c-0.9,0-1.8,0.1-2.6,0.3l9.4,9.4c1.6-0.9,2.7-2.1,2.7-3.6C44,28.8,39.6,26,34.5,26z"/><path d="M17.7,32.9c-0.4,0-0.8,0.1-1.2,0.1c-2.1,0-3.6-0.4-4.8-0.7c-0.4-0.1-0.9-0.2-1.1-0.3l6.7,6.7c0,0,0,0,0,0c1.8,0.2,3.7,0.3,5.2,0.3c0.4,0,0.8,0,1.2,0L17.7,32.9z"/></g><path class="st0" d="M15,2c-0.6,6.3-6,7.9-6,13.5c0,4.2,2,7.4,6,7.4c-0.6-0.7-3.5-3.5-1-8c2.3,4.5,4.6,0.7,3-5c5.7,5.2,1.6,12.9,1,13c3.9,0,6-3.8,6-7.3C24,11.8,21.9,6.8,15,2z"/></svg>