<?xml version="1.0" encoding="iso-8859-1"?>
<!-- Generator: Adobe Illustrator 24.0.2, SVG Export Plug-In . SVG Version: 6.00 Build 0)  -->
<svg version="1.1" id="&#x421;&#x43B;&#x43E;&#x439;_1"
	 xmlns="http://www.w3.org/2000/svg" xmlns:xlink="http://www.w3.org/1999/xlink" x="0px" y="0px" viewBox="0 0 50 50"
	 style="enable-background:new 0 0 50 50;" xml:space="preserve">
<g>
	<path d="M41,7h0.38H43V4c0-0.07-0.01-0.14-0.02-0.2C42.89,3.34,42.48,3,42,3H26c-0.55,0-1,0.45-1,1v3h2H41z"/>
	<path d="M22.54,15h-0.85H21v5v1v4.96c0.17-0.06,0.34-0.11,0.51-0.15c0.11-0.03,0.23-0.06,0.34-0.08c0.05-0.02,0.1-0.03,0.15-0.03
		l0.01-0.01c0.06-0.01,0.11-0.02,0.17-0.03c0.19-0.03,0.38-0.06,0.57-0.08c0.08-0.01,0.17-0.02,0.25-0.03v-0.01
		c0.1-0.01,0.2-0.02,0.29-0.02c0.18-0.02,0.35-0.02,0.52-0.02c1.09,0,2.12,0.22,3.04,0.64c0.2,0.09,0.4,0.19,0.59,0.3
		c0.04,0.02,0.07,0.04,0.1,0.06c0.17,0.1,0.34,0.21,0.51,0.33c0.02,0.01,0.04,0.02,0.05,0.04c0.18,0.12,0.36,0.26,0.52,0.41
		c0.239,0.209,0.461,0.438,0.674,0.677c0.164,0.184,0.322,0.373,0.47,0.573c0.062,0.084,0.12,0.173,0.18,0.259
		c0.12,0.174,0.236,0.352,0.345,0.536c0.056,0.094,0.11,0.189,0.163,0.285c0.105,0.192,0.204,0.389,0.299,0.59
		c0.045,0.096,0.092,0.189,0.135,0.287c0.095,0.219,0.181,0.445,0.265,0.674c0.223,0.615,0.406,1.259,0.54,1.929
		c0.09,0.45,0.15,0.92,0.2,1.39c0.021,0.176,0.035,0.351,0.049,0.527c0.006,0.074,0.015,0.147,0.02,0.221
		c0.015,0.231,0.022,0.464,0.028,0.697c0.009,0.434,0.017,0.869-0.007,1.305c0,0.06,0,0.13-0.01,0.19c-0.03,0.55-0.09,1.1-0.17,1.64
		c-0.06,0.36-0.12,0.72-0.19,1.08c-0.13,0.62-0.3,1.24-0.49,1.84c-0.2,0.6-0.42,1.19-0.68,1.76c-0.19,0.43-0.41,0.85-0.64,1.26
		c-0.218,0.373-0.45,0.727-0.7,1.081c-0.231,0.321-0.474,0.629-0.73,0.919h0.01H38v-2V15H23H22.54z M29.692,28.429
		c0.004,0.005,0.009,0.01,0.013,0.015C29.701,28.439,29.696,28.434,29.692,28.429z M30.166,29.109
		C30.166,29.109,30.166,29.109,30.166,29.109C30.166,29.109,30.166,29.109,30.166,29.109z"/>
	<path d="M45.89,13.55L43.62,9l-0.5-1L43,8.23L42.62,9L42,10.23l-2,4.01V45v2h5c0.55,0,1-0.45,1-1V14
		C46,13.84,45.96,13.69,45.89,13.55z"/>
	<polygon points="26.54,9 24.14,9 21.46,13 23.87,13 38.38,13 40.38,9 	"/>
	<path d="M26.03,27.96c-0.68-0.31-1.43-0.46-2.22-0.46c-0.26,0-0.53,0.02-0.81,0.06c-0.33,0.04-0.66,0.1-1,0.19
		c-0.26,0.06-0.52,0.15-0.79,0.25c-0.07,0.02-0.13,0.04-0.2,0.07H21c-0.62,0.23-1.24,0.55-1.87,0.94c-0.04,0.02-0.08,0.04-0.12,0.07
		c-0.09,0.06-0.19,0.12-0.28,0.18c-0.6,0.4-1.19,0.86-1.74,1.37c-1.63,1.47-3,3.33-3.89,5.29c-0.16,0.37-0.3,0.72-0.42,1.07
		c-0.25,0.71-0.4,1.39-0.48,2.02c-0.26,1.84,0.07,3.34,0.48,4.41c0.07,0.19,0.15,0.38,0.25,0.57
		c0.081,0.179,0.188,0.342,0.282,0.513c0.089,0.165,0.164,0.338,0.268,0.497c0.005,0.007,0.011,0.013,0.016,0.021
		c0.22,0.338,0.465,0.66,0.734,0.959c0.01,0.01,0.01,0.01,0.02,0.02c0.74,0.87,1.68,1.56,2.72,2.04c1.03,0.46,2.17,0.71,3.34,0.71
		c1.79,0,3.66-0.58,5.27-1.84c0.66-0.51,1.28-1.15,1.84-1.91c0.44-0.61,0.85-1.3,1.2-2.08C31.01,37.62,30.4,29.93,26.03,27.96z"/>
	<path d="M11.13,44.87c-0.12-0.24-0.23-0.48-0.32-0.73c-0.02-0.05-0.04-0.09-0.05-0.14c-0.62-1.68-0.79-3.45-0.54-5.24
		c0.1-0.82,0.29-1.64,0.57-2.42c0.13-0.37,0.28-0.76,0.49-1.25c0.99-2.19,2.55-4.3,4.35-5.93c0.61-0.56,1.28-1.09,1.99-1.56
		c0.06-0.04,0.12-0.08,0.18-0.12l0.09-0.05c0.1-0.07,0.19-0.13,0.26-0.16c0.29-0.18,0.57-0.34,0.85-0.49V22v-1v-1H5
		c-0.55,0-1,0.45-1,1v24c0,0.55,0.45,1,1,1h6.75c-0.21-0.32-0.39-0.65-0.55-1C11.17,44.96,11.15,44.91,11.13,44.87z"/>
</g>
</svg>