<?xml version="1.0" encoding="iso-8859-1"?>
<!-- Generator: Adobe Illustrator 23.0.6, SVG Export Plug-In . SVG Version: 6.00 Build 0)  -->
<svg version="1.1" id="Filled" xmlns="http://www.w3.org/2000/svg" xmlns:xlink="http://www.w3.org/1999/xlink" x="0px" y="0px"
	 viewBox="0 0 50 50" style="enable-background:new 0 0 50 50;" xml:space="preserve">
<path d="M42,10H8.022c-1.105,0-2-0.895-2-2V5.8c0-1.546,1.254-2.8,2.8-2.8H41.2C42.746,3,44,4.254,44,5.8V8
	C44,9.105,43.105,10,42,10z"/>
<path d="M46.8,16.4L43.5,12H6.522l-3.3,4.4c-0.159,0.212-0.228,0.479-0.19,0.742c0.038,0.263,0.178,0.5,0.391,0.659
	c0.12,0.09,2.985,2.2,7.417,2.2c0.01,0,0.02,0,0.029,0c2.126-0.004,4.495-0.632,7.091-1.868C20.234,19.405,22.484,20,25,20
	c2.93,0,4.609-0.783,6.734-1.774l0.189-0.088c1.928,1.178,4.01,1.82,6.056,1.862c0.096,0.002,0.191,0.003,0.287,0.003
	c4.369,0,8.063-2.042,8.223-2.13c0.251-0.141,0.43-0.384,0.489-0.666C47.038,16.925,46.973,16.631,46.8,16.4z"/>
<path d="M38.245,21.981l-0.328-0.003c-2.054-0.042-4.145-0.599-6.104-1.616c-1.904,0.87-3.849,1.617-6.835,1.617
	c-2.505,0-4.838-0.539-7.103-1.644c-2.52,1.087-4.864,1.639-7.025,1.644c-1.885,0-3.522-0.328-4.851-0.751v19.751
	c0,3.309,2.691,6,6,6h25.978c3.309,0,6-2.691,6-6V21.04C42.395,21.542,40.402,21.981,38.245,21.981z M30.979,40.809
	c-0.801,1.055-1.767,2.169-3.071,2.169c-1.161-0.039-1.584-1.051-2.93-1.084c-1.346,0.032-1.769,1.045-2.93,1.084
	c-1.303,0-2.27-1.113-3.071-2.169c-1.634-2.131-2.885-6.005-1.195-8.624c0.823-1.31,2.382-2.208,3.976-2.208
	c0.811,0,1.567,0.418,2.205,0.734c-0.058-0.709-0.338-2.673-1.692-4.027c-0.391-0.391-0.391-1.023,0-1.414s1.023-0.391,1.414,0
	c1.938,1.938,2.237,4.625,2.284,5.453c0-2.261,0.642-3.268,1.317-4.073C28.022,25.717,29.956,25.05,31,25
	c0,1-0.51,2.713-1.235,3.647c-0.407,0.502-1.102,0.981-1.874,1.367c0.102-0.013,0.203-0.037,0.307-0.037
	c1.593,0,3.153,0.898,3.976,2.208C33.863,34.804,32.613,38.679,30.979,40.809z"/>
</svg>