<?xml version="1.0" encoding="utf-8"?><!-- Generator: Adobe Illustrator 15.0.0, SVG Export Plug-In . SVG Version: 6.00 Build 0)  --><!DOCTYPE svg PUBLIC "-//W3C//DTD SVG 1.1//EN" "http://www.w3.org/Graphics/SVG/1.1/DTD/svg11.dtd"><svg xmlns="http://www.w3.org/2000/svg" xmlns:xlink="http://www.w3.org/1999/xlink" viewBox="0 0 50 50" width="50px" height="50px"><path d="M31,0c-7.279,0-13.902,4.249-17.033,10.635C15.583,10.235,17.263,10,19,10c7.624,0,14.292,4.097,17.972,10.192C37.294,20.074,37.637,20,38,20c1.656,0,3,1.343,3,3c0,1.191-0.7,2.21-1.705,2.695C39.739,27.394,40,29.165,40,31c0,1.737-0.235,3.418-0.636,5.033C45.751,32.902,50,26.279,50,19C50,8.523,41.477,0,31,0z M32.5,14c-1.381,0-2.5-1.119-2.5-2.5S31.119,9,32.5,9s2.5,1.119,2.5,2.5S33.881,14,32.5,14z M39.5,17c-0.828,0-1.5-0.671-1.5-1.5s0.672-1.5,1.5-1.5s1.5,0.671,1.5,1.5S40.328,17,39.5,17z"/><path d="M19,12C8.523,12,0,20.523,0,31s8.523,19,19,19s19-8.523,19-19S29.477,12,19,12z M12.5,38c-0.829,0-1.5-0.672-1.5-1.5s0.671-1.5,1.5-1.5s1.5,0.672,1.5,1.5S13.329,38,12.5,38z M13,31c-1.657,0-3-1.344-3-3s1.343-3,3-3s3,1.344,3,3S14.657,31,13,31z M20.5,42c-0.829,0-1.5-0.672-1.5-1.5s0.671-1.5,1.5-1.5s1.5,0.672,1.5,1.5S21.329,42,20.5,42z M22.5,28c-0.829,0-1.5-0.672-1.5-1.5s0.671-1.5,1.5-1.5s1.5,0.672,1.5,1.5S23.329,28,22.5,28z M26.5,36c-1.381,0-2.5-1.119-2.5-2.5s1.119-2.5,2.5-2.5s2.5,1.119,2.5,2.5S27.881,36,26.5,36z"/></svg>