<?xml version="1.0" encoding="utf-8"?><!-- Generator: Adobe Illustrator 15.0.0, SVG Export Plug-In . SVG Version: 6.00 Build 0)  --><!DOCTYPE svg PUBLIC "-//W3C//DTD SVG 1.1//EN" "http://www.w3.org/Graphics/SVG/1.1/DTD/svg11.dtd"><svg xmlns="http://www.w3.org/2000/svg" xmlns:xlink="http://www.w3.org/1999/xlink" viewBox="0 0 50 50" width="500px" height="500px"><path d="M14.417,50c-3.033,0-5.5-2.467-5.5-5.5s2.467-5.5,5.5-5.5s5.5,2.467,5.5,5.5S17.45,50,14.417,50z"/><path d="M12.5,38C9.467,38,7,35.533,7,32.5S9.467,27,12.5,27s5.5,2.467,5.5,5.5S15.533,38,12.5,38z"/><path d="M24.396,43c-3.033,0-5.5-2.467-5.5-5.5s2.467-5.5,5.5-5.5c3.033,0,5.5,2.467,5.5,5.5S27.429,43,24.396,43z"/><path d="M22.5,31c-3.033,0-5.5-2.467-5.5-5.5c0-3.033,2.467-5.5,5.5-5.5c3.033,0,5.5,2.467,5.5,5.5C28,28.533,25.533,31,22.5,31z"/><path d="M34.438,35.125c-3.033,0-5.5-2.467-5.5-5.5s2.467-5.5,5.5-5.5s5.5,2.467,5.5,5.5S37.471,35.125,34.438,35.125z"/><path d="M32.54,23.053c-3.033,0-5.5-2.467-5.5-5.5s2.467-5.5,5.5-5.5s5.5,2.467,5.5,5.5S35.573,23.053,32.54,23.053z"/><path d="M21.5,18c-3.033,0-5.5-2.467-5.5-5.5S18.467,7,21.5,7S27,9.467,27,12.5S24.533,18,21.5,18z"/><path d="M11.5,26C8.467,26,6,23.533,6,20.5S8.467,15,11.5,15s5.5,2.467,5.5,5.5S14.533,26,11.5,26z"/><path d="M28.956,11.315c-0.205,0-0.413-0.063-0.592-0.194c-0.444-0.327-0.54-0.953-0.213-1.398c6.073-8.258,14.942-9.656,15.317-9.712c0.547-0.081,1.053,0.296,1.135,0.841s-0.295,1.054-0.84,1.137c-0.084,0.013-8.438,1.354-14.001,8.918C29.566,11.174,29.264,11.315,28.956,11.315z"/><path d="M31.501,8.25c-0.026,0-0.053-0.001-0.08-0.003c-0.551-0.044-0.962-0.526-0.918-1.076c0.344-4.321-1.789-5.195-1.88-5.23c-0.508-0.196-0.776-0.765-0.591-1.277c0.185-0.512,0.731-0.786,1.25-0.611c0.151,0.051,3.688,1.318,3.215,7.276C32.455,7.853,32.018,8.25,31.501,8.25z"/></svg>