<?xml version="1.0" encoding="iso-8859-1"?>
<!-- Generator: Adobe Illustrator 24.1.2, SVG Export Plug-In . SVG Version: 6.00 Build 0)  -->
<svg version="1.1" id="Layer_1" xmlns="http://www.w3.org/2000/svg" xmlns:xlink="http://www.w3.org/1999/xlink" x="0px" y="0px"
	 viewBox="0 0 50 50" style="enable-background:new 0 0 50 50;" xml:space="preserve">
<path d="M46.81,33.59C44,38,35.49,43,25,43c-10.48,0-19-5-21.81-9.41c-0.412-0.646-0.83-1.66-0.07-3.06l1.8-3.45
	c0.18,0.26,0.29,0.41,0.34,0.48c0.05,0.08,0.15,0.23,0.3,0.44c0.17,0.22,0.39,0.51,0.69,0.85C8.34,31.25,13.91,36,25,36
	s16.66-4.75,18.76-7.15c0.29-0.34,0.51-0.63,0.68-0.85c0.15-0.21,0.25-0.36,0.3-0.44c0.05-0.07,0.16-0.22,0.34-0.48l1.81,3.46
	C47.63,31.95,47.214,32.956,46.81,33.59z"/>
<path d="M34.89,7.54C34.71,7.21,34.37,7,34,7h-2c-0.28,0-0.55,0.12-0.74,0.32C31.08,7.53,30.98,7.8,31,8.08
	c0.1,1.14-0.76,1.98-1.61,2.27c-0.47,0.17-1.68,0.41-2.56-0.9c-0.2-0.3-0.54-0.47-0.89-0.45c-0.36,0.02-0.67,0.23-0.83,0.55
	c-0.92,1.83-2.33,1.7-2.89,1.56c-1.1-0.28-2.26-1.36-2.22-3.09c0.01-0.26-0.1-0.53-0.28-0.72C19.53,7.11,19.27,7,19,7h-3
	c-0.37,0-0.71,0.21-0.89,0.54L5.96,25.08c0.28,0.41,0.49,0.71,0.64,0.93c0.19,0.26,0.29,0.39,0.29,0.39
	c0.02,0.03,0.04,0.06,0.05,0.09c0.02,0.04,0.12,0.2,0.31,0.44C8.46,28.55,13.41,34,25,34s16.54-5.46,17.75-7.08
	c0.19-0.24,0.28-0.4,0.31-0.44c0.03-0.04,0.14-0.19,0.34-0.47c0.16-0.22,0.37-0.53,0.64-0.93L34.89,7.54z M14,25.65
	c-1.1,0-1.5-0.9-1.5-1.5c0-0.16,0.08-0.79,1.08-2.33c0.19-0.28,0.65-0.28,0.84,0c1,1.54,1.08,2.17,1.08,2.33
	C15.5,24.75,15.1,25.65,14,25.65z M17.5,18.15c0-0.16,0.08-0.79,1.08-2.33c0.19-0.28,0.65-0.28,0.84,0c1,1.54,1.08,2.17,1.08,2.33
	c0,0.6-0.4,1.5-1.5,1.5S17.5,18.75,17.5,18.15z M21,28.65c-1.1,0-1.5-0.9-1.5-1.5c0-0.16,0.08-0.79,1.08-2.33
	c0.19-0.28,0.65-0.28,0.84,0c1,1.54,1.08,2.17,1.08,2.33C22.5,27.75,22.1,28.65,21,28.65z M25,22.65c-1.1,0-1.5-0.9-1.5-1.5
	c0-0.16,0.08-0.79,1.08-2.33c0.19-0.28,0.65-0.28,0.84,0c1,1.54,1.08,2.17,1.08,2.33C26.5,21.75,26.1,22.65,25,22.65z M29,28.65
	c-1.1,0-1.5-0.9-1.5-1.5c0-0.16,0.08-0.79,1.08-2.33c0.19-0.28,0.65-0.28,0.84,0c1,1.54,1.08,2.17,1.08,2.33
	C30.5,27.75,30.1,28.65,29,28.65z M31,19.65c-1.1,0-1.5-0.9-1.5-1.5c0-0.16,0.08-0.79,1.08-2.33c0.19-0.28,0.65-0.28,0.84,0
	c1,1.54,1.08,2.17,1.08,2.33C32.5,18.75,32.1,19.65,31,19.65z M36,25.65c-1.1,0-1.5-0.9-1.5-1.5c0-0.16,0.08-0.79,1.08-2.33
	c0.19-0.28,0.65-0.28,0.84,0c1,1.54,1.08,2.17,1.08,2.33C37.5,24.75,37.1,25.65,36,25.65z"/>
</svg>