<?xml version="1.0" encoding="iso-8859-1"?><!-- Generator: Adobe Illustrator 21.0.2, SVG Export Plug-In . SVG Version: 6.00 Build 0)  --><svg xmlns="http://www.w3.org/2000/svg" xmlns:xlink="http://www.w3.org/1999/xlink" viewBox="0 0 50 50" width="50px" height="50px"><path style="fill:none;stroke:#000000;stroke-width:2;stroke-miterlimit:10;" d="M21,8c0-2.711,2.015-4.909,4.5-4.909S30,5.289,30,8"/><path d="M37,17H14c-0.55,0-1-0.45-1-1v0c0-0.55,0.45-1,1-1h23c0.55,0,1,0.45,1,1v0C38,16.55,37.55,17,37,17z"/><path d="M37,26H14c-0.55,0-1-0.45-1-1v0c0-0.55,0.45-1,1-1h23c0.55,0,1,0.45,1,1v0C38,25.55,37.55,26,37,26z"/><path d="M37,36H14c-0.55,0-1-0.45-1-1l0,0c0-0.55,0.45-1,1-1h23c0.55,0,1,0.45,1,1l0,0C38,35.55,37.55,36,37,36z"/><g><rect x="14" y="19" width="23" height="7"/><path d="M14,38v5c0,2.206,1.794,4,4,4h15c2.206,0,4-1.794,4-4v-5H14z"/><rect x="14" y="28" width="23" height="8"/><path d="M37,17v-5c0-2.206-1.794-4-4-4H18c-2.206,0-4,1.794-4,4v5H37z"/></g></svg>