<?xml version="1.0" encoding="iso-8859-1"?>
<!-- Generator: Adobe Illustrator 23.0.6, SVG Export Plug-In . SVG Version: 6.00 Build 0)  -->
<svg version="1.1" id="&#x421;&#x43B;&#x43E;&#x439;_1"
	 xmlns="http://www.w3.org/2000/svg" xmlns:xlink="http://www.w3.org/1999/xlink" x="0px" y="0px" viewBox="0 0 50 50"
	 style="enable-background:new 0 0 50 50;" xml:space="preserve">
<path d="M33.51,29h-0.7h-0.06H32h-0.08h-0.67h-0.14h-0.72H16c0,9.39,7.16,17,16,17s16-7.61,16-17H33.51z M45.728,31.961
	c-0.142,0.751-0.337,1.484-0.582,2.191c-0.164,0.472-0.726,0.67-1.166,0.436L37.25,31h7.658C45.418,31,45.823,31.46,45.728,31.961z
	 M26.58,31l-6.611,3.461c-0.444,0.232-1.005,0.026-1.164-0.45c-0.222-0.665-0.402-1.349-0.535-2.053
	C18.175,31.458,18.581,31,19.09,31L26.58,31z M20.174,37.015c-0.238-0.402-0.073-0.925,0.341-1.141L29.8,31h0.02l-5.837,9.067
	c-0.275,0.427-0.878,0.521-1.246,0.172C21.747,39.3,20.883,38.214,20.174,37.015z M31.25,31.56v11.502
	c0,0.509-0.454,0.885-0.959,0.82c-1.751-0.226-3.402-0.804-4.891-1.659c-0.402-0.231-0.514-0.764-0.263-1.154L31.25,31.56z
	 M32.75,43.063V31.77l5.871,9.448c0.256,0.412,0.1,0.945-0.326,1.177c-1.409,0.765-2.956,1.282-4.591,1.49
	C33.201,43.949,32.75,43.57,32.75,43.063z M41.068,40.424c-0.388,0.355-1.001,0.281-1.277-0.166L34.05,31h0.03l9.344,4.992
	c0.409,0.219,0.571,0.738,0.333,1.136C43.019,38.363,42.109,39.47,41.068,40.424z"/>
<path d="M40.15,27H14v2c0,4.94,1.79,9.44,4.73,12.82c0.33,0.39,0.69,0.77,1.06,1.12c-2.96-0.21-5.84-1.12-8.37-2.76l-0.27,0.26
	c-1.39,1.39-3.65,1.38-5.06-0.03C4.68,39,4.67,36.74,6.06,35.35l0.26-0.27c-4.56-7.05-3.53-16.83,2.95-23.31
	c6.48-6.48,16.26-7.51,23.31-2.95l0.27-0.26c1.39-1.39,3.65-1.38,5.06,0.03c1.41,1.41,1.42,3.67,0.03,5.06l-0.26,0.27
	C40.19,17.79,41,22.48,40.15,27z"/>
<path d="M41.17,27h-2.03c0.87-4.39,0.06-8.89-2.3-12.54l-0.44-0.68l0.84-0.84c0.48-0.48,0.74-1.12,0.73-1.81
	c0-0.69-0.27-1.34-0.77-1.83c-1.01-1.02-2.65-1.03-3.64-0.04l-0.84,0.84l-0.68-0.44C25.27,5.28,16,6.46,9.98,12.48
	c-6.02,6.02-7.2,15.29-2.82,22.06l0.44,0.68l-0.84,0.84c-0.48,0.48-0.74,1.12-0.73,1.81c0,0.69,0.27,1.34,0.77,1.83
	c1.01,1.02,2.65,1.03,3.64,0.04l0.84-0.84l0.68,0.44c2.02,1.31,4.34,2.15,6.77,2.48c0.33,0.39,0.69,0.77,1.06,1.12
	c0.37,0.37,0.76,0.72,1.16,1.04c-3.34-0.02-6.59-0.9-9.4-2.55c-1.79,1.49-4.47,1.38-6.17-0.31c-0.86-0.87-1.35-2.02-1.35-3.24
	c-0.01-1.08,0.36-2.11,1.04-2.93c-4.4-7.48-2.99-17.4,3.49-23.88c6.49-6.49,16.41-7.9,23.89-3.5c1.79-1.49,4.47-1.38,6.17,0.31
	c0.86,0.87,1.35,2.02,1.35,3.24c0.01,1.08-0.36,2.11-1.04,2.93C41.2,17.9,41.98,22.48,41.17,27z"/>
</svg>