<?xml version="1.0" encoding="iso-8859-1"?>
<!-- Generator: Adobe Illustrator 23.0.6, SVG Export Plug-In . SVG Version: 6.00 Build 0)  -->
<svg version="1.1" id="Filled" xmlns="http://www.w3.org/2000/svg" xmlns:xlink="http://www.w3.org/1999/xlink" x="0px" y="0px"
	 viewBox="0 0 50 50" style="enable-background:new 0 0 50 50;" xml:space="preserve">
<g>
	<path d="M20,18H8c-2.168,0-4,1.832-4,4v22c0,1.654,1.346,3,3,3h14c1.654,0,3-1.346,3-3V22C24,19.794,22.206,18,20,18z M6,27h11v11
		H6V27z"/>
	<path d="M42,18H30c-2.168,0-4,1.832-4,4v22c0,1.654,1.346,3,3,3h14c1.654,0,3-1.346,3-3V22C46,19.794,44.206,18,42,18z M28,27h11
		v11H28V27z"/>
</g>
<path d="M8,16h12c0.341,0,0.674,0.035,1,0.09V14c0-1.047-0.953-2-2-2h-2.412l-0.901-8.11C15.631,3.383,15.203,3,14.693,3h-1.298
	c-0.51,0-0.938,0.383-0.994,0.89L11.5,12H9c-1.047,0-2,0.953-2,2v2.094C7.327,16.037,7.66,16,8,16z"/>
<path d="M30,16h12c0.341,0,0.674,0.035,1,0.09V14c0-1.047-0.953-2-2-2h-2.412l-0.901-8.11C37.631,3.383,37.203,3,36.693,3h-1.298
	c-0.51,0-0.938,0.383-0.994,0.89L33.5,12H31c-1.047,0-2,0.953-2,2v2.094C29.327,16.037,29.66,16,30,16z"/>
</svg>