<?xml version="1.0" encoding="iso-8859-1"?>
<!-- Generator: Adobe Illustrator 22.1.0, SVG Export Plug-In . SVG Version: 6.00 Build 0)  -->
<svg version="1.1" id="Layer_1" xmlns="http://www.w3.org/2000/svg" xmlns:xlink="http://www.w3.org/1999/xlink" x="0px" y="0px"
	 viewBox="0 0 50 50" style="enable-background:new 0 0 50 50;" xml:space="preserve">
<path d="M14,32.07c1.63,0.09,2.95,0.26,3.74,0.42C18.88,32.74,21.38,33,25,33h3v-6H14V32.07z"/>
<path d="M9,11c-0.14,0-0.29,0.01-0.44,0.02C5.31,11.2,1.53,13.5,1,23v0.72c-0.54,0.9-1,1.93-1,3.28c0,2.35,1.16,3.57,1.29,3.71
	C1.49,30.9,1.74,31,1.99,31s0.5-0.1,0.7-0.29c0.39-0.38,0.4-1.01,0.03-1.41C2.69,29.27,2,28.52,2,27c0-0.81,0.23-1.48,0.85-2.47
	C2.95,24.37,3,24.19,3,24v-0.94c0.11-2.02,0.41-4.19,1.1-6.01C4.04,17.65,4,18.29,4,19c0,2.75,0.45,5.47,0.75,7.28
	C4.88,27.03,5,27.75,5,28c0,1.38-0.23,2.29-0.47,3.26C4.47,31.5,4.41,31.74,4.35,32H12V11.47C11.03,11.23,10.03,11,9,11z"/>
<path d="M4.04,34C4.01,34.31,4,34.64,4,35v9c0,0.55,0.45,1,1,1h4c0.35,0,0.67-0.18,0.85-0.48c0.18-0.29,0.2-0.66,0.05-0.97
	C9.53,42.83,9,41.52,9,41c0-1.52,1.31-4.68,2.23-7H4.04z"/>
<path d="M48.83,15.05c-2.76-1.8-3.76-3.18-4.14-3.7c-0.06-0.09-0.11-0.16-0.14-0.19c-0.42-0.54-0.97-0.94-1.55-1.25
	c-0.27,0.05-0.55,0.08-0.84,0.09c-0.07,0.11-0.16,0.32-0.22,0.6c-0.13,0.58-0.42,1.12-0.82,1.52C41.06,12.18,40.28,13,39,13
	c-0.55,0-1-0.45-1-1s0.45-1,1-1c0.4,0,0.68-0.26,0.68-0.26c0.16-0.16,0.26-0.36,0.31-0.56c0.09-0.4,0.21-0.76,0.38-1.06
	c-0.35-0.05-0.65-0.08-0.89-0.1C38.73,8.09,37,6,35,6c-0.55,0-1,0.45-1,1c0,0.91,0.28,2.7,1,4v1c0,3.46,1.73,6.91,4.62,9.22
	l0.61,0.49c0.42-0.95,1-1.71,1.77-1.71h5.5c2.06,0,2.5-1.81,2.5-2.5C50,16.28,49.68,15.62,48.83,15.05z"/>
<path d="M30,33h7c0.47-0.66,0.98-2.74,1.83-6H30V33z"/>
<path d="M33,12v-1c-0.33,0-1.06-0.16-1.82-0.33c-0.37-0.08-0.77-0.17-1.18-0.26V25h9.3c0.06-0.3,0.14-0.75,0.27-1.26v-0.01
	l-1.19-0.95C35.01,20.1,33,16.07,33,12z"/>
<path d="M19.35,11.18C17.74,11.6,16.22,12,15,12c-0.33,0-0.66-0.03-1-0.09V25h14V10.08C27.5,10.03,26.99,10,26.49,10
	C23.89,10,21.48,10.62,19.35,11.18z"/>
<path d="M36.02,40.9l0.73-5.9h-6.4c0.32,2.04,0.65,4.93,0.65,7v2c0,0.55,0.45,1,1,1h4c0.32,0,0.62-0.15,0.81-0.42
	c0.19-0.26,0.24-0.59,0.14-0.9L36.02,40.9z"/>
<path d="M39,11c-0.256,0-0.512-0.098-0.707-0.293c-0.261-0.261-0.348-0.629-0.26-0.962C38.438,7.923,39.688,6,42,6
	c0.813,0,1.092-0.428,1.121-0.476c0.276-0.461,0.877-0.641,1.349-0.383s0.665,0.826,0.425,1.307C44.606,7.024,43.672,8,42,8
	c-1.387,0-1.871,1.522-2.014,2.177c-0.041,0.187-0.144,0.395-0.279,0.53C39.512,10.902,39.256,11,39,11z"/>
</svg>