<?xml version="1.0" encoding="iso-8859-1"?><!-- Generator: Adobe Illustrator 21.1.0, SVG Export Plug-In . SVG Version: 6.00 Build 0)  --><svg xmlns="http://www.w3.org/2000/svg" xmlns:xlink="http://www.w3.org/1999/xlink" viewBox="0 0 50 50" width="50px" height="50px"><path d="M40.05,16.52c-0.87,2.96-3.1,5.4-6.11,6.48c-0.05,0.02-0.19,0.07-0.19,0.07c0,0.03-0.01,0.07-0.01,0.1c0.06,0.02,0.11,0.04,0.17,0.07c2.83,1.07,5.08,3.14,6.39,5.7C45.295,26.23,45.119,19.033,40.05,16.52z M26.82,30.56c-2.111,0.535-4.401,0.326-6.37-0.61c-0.01,0.01-0.11,0.24-0.16,0.34c-0.5,1.1-0.79,2.32-0.83,3.59c-0.214,2.142,0.707,4.487,1.99,6.16c0.41,0.53,0.88,1.03,1.4,1.47c4.063,3.512,10.491,3.167,14.13-0.79L26.82,30.56z M30.63,5.96c-3.94,0-7.19,2.9-7.73,6.69c-0.01,0.02-0.01,0.03-0.01,0.05c5.213-0.903,10.461,2.855,10.93,8.2c0.06-0.03,0.12-0.05,0.17-0.09c3.226-1.527,5.058-5.317,4.261-8.794C37.457,8.555,34.177,5.96,30.63,5.96z M15.462,19.198c-0.169,0.506-0.244,1.044-0.32,1.57c-0.055,0.565-0.078,1.145-0.01,1.71c-0.29,0.02-0.87,0.1-0.87,0.1c-0.29,0.05-1.44,0.34-1.68,0.42c-0.21,0.07-0.96,0.36-1.13,0.44c-1.2,0.54-2.28,1.29-3.2,2.21c-2.785-2.641-2.906-7.03-0.27-9.82c0.17-0.19,0.35-0.35,0.54-0.51c0.46-0.377,0.995-0.772,1.55-1c0.11-0.06,0.23-0.11,0.35-0.16l1.68,1.69L15.462,19.198z M11.452,23.438c-1.2,0.55-2.28,1.31-3.19,2.22l-0.01-0.01C9.172,24.728,10.252,23.978,11.452,23.438z M19.722,41.038c-3.872,1.675-8.747,0.339-11.107-3.192c-2.411-3.608-1.579-8.712,1.777-11.438c0.46-0.37,0.96-0.69,1.49-0.96c0.37-0.19,0.75-0.35,1.14-0.49c0.26-0.09,0.52-0.17,0.79-0.25c0.42-0.1,0.85-0.18,1.29-0.22c0.09-0.01,0.37-0.03,0.42-0.04h0.01c0.34,1.05,0.88,2.03,1.56,2.88c0.48,0.59,1.04,1.13,1.65,1.59c-0.01,0.01-0.01,0.02-0.02,0.03c-0.21,0.42-0.41,0.85-0.57,1.3C16.824,33.855,17.451,37.952,19.722,41.038z M17.152,20.888l7.93,7.93C20.619,29.265,16.656,25.35,17.152,20.888z M47.75,47.26c-0.389,0.389-1.029,0.391-1.42,0L2.74,3.67C2.051,2.963,2.809,1.763,3.739,2.005c0.498,0.129,0.919,0.754,1.268,1.102C5.551,3.651,6.096,4.196,6.64,4.74c2.16,2.16,4.32,4.32,6.48,6.48c1.899-3.027,5.915-4.117,9.09-2.48c-0.8,1.33-1.31,2.87-1.4,4.51v0.04c-1.27,0.53-2.4,1.33-3.3,2.32l1.41,1.41c2.722-3.068,7.844-3.212,10.775-0.363c2.974,2.89,2.7,8.015-0.555,10.583l1.4,1.4c1.16-0.93,2.08-2.16,2.65-3.55c0.05,0.02,0.11,0.04,0.16,0.07c4.675,1.87,7.379,7.175,5.73,12.02l8.67,8.67C48.14,46.24,48.14,46.87,47.75,47.26z"/></svg>