<?xml version="1.0" encoding="utf-8"?><!-- Generator: Adobe Illustrator 15.0.0, SVG Export Plug-In . SVG Version: 6.00 Build 0)  --><!DOCTYPE svg PUBLIC "-//W3C//DTD SVG 1.1//EN" "http://www.w3.org/Graphics/SVG/1.1/DTD/svg11.dtd"><svg xmlns="http://www.w3.org/2000/svg" xmlns:xlink="http://www.w3.org/1999/xlink" viewBox="0 0 50 50" width="50px" height="50px"><path d="M36.857,18.987C33.178,16.959,30,15.208,30,13V2c0-0.552-0.447-1-1-1h-0.586l-0.707-0.707c-0.391-0.391-1.023-0.391-1.414,0l-0.49,0.49l-1.355-0.678c-0.386-0.192-0.851-0.116-1.154,0.188l-0.49,0.49l-1.355-0.678c-0.31-0.155-0.678-0.138-0.973,0.044C20.18,0.332,20,0.653,20,1v12c0,2.696-3.392,4.529-7.318,6.651C7.032,22.705,0,26.505,0,35c0,7.168,5.832,13,13,13c0.399,0,0.806-0.023,1.215-0.064c0.003,0,0.006-0.001,0.009-0.001c0.406-0.04,0.813-0.103,1.22-0.182c0,0,0.001,0,0.001,0c0.37-0.071,0.738-0.158,1.102-0.259C14.947,45.247,14,42.308,14,39c0-5.441,1.995-10.192,2.08-10.392c0.217-0.507,0.804-0.745,1.311-0.528c0.508,0.216,0.745,0.803,0.53,1.311C17.901,29.437,16,33.979,16,39c0,6.271,3.869,11,9,11s9-4.729,9-11c0-9.249-5.662-15.246-5.72-15.306c-0.383-0.398-0.371-1.031,0.026-1.414c0.397-0.382,1.03-0.374,1.412,0.024C29.976,22.571,36,28.923,36,39c0,3.322-0.956,6.272-2.569,8.523C34.539,47.842,35.719,48,37,48c7.168,0,13-5.832,13-13C50,26.23,42.713,22.214,36.857,18.987z"/></svg>