<?xml version="1.0" encoding="iso-8859-1"?>
<!-- Generator: Adobe Illustrator 24.0.0, SVG Export Plug-In . SVG Version: 6.00 Build 0)  -->
<svg version="1.1" id="Layer_1" xmlns="http://www.w3.org/2000/svg" xmlns:xlink="http://www.w3.org/1999/xlink" x="0px" y="0px"
	 viewBox="0 0 50 50" style="enable-background:new 0 0 50 50;" xml:space="preserve">
<path d="M30.344,42.312c-1.605-5.577,2.616-9.827,8.156-5.596c5.54-4.231,9.76,0.019,8.156,5.596C45.425,46.59,42.179,48,38.5,48
	S31.575,46.59,30.344,42.312z"/>
<path d="M32,19.19c0,0.22-0.01,0.44-0.03,0.66c-0.01,0.14-0.03,0.27-0.06,0.41c-0.71,0.15-1.45,0.28-2.21,0.38
	C27.88,20.88,25.96,21,24,21c-1.99,0-3.91-0.13-5.7-0.37c-0.79-0.11-1.53-0.23-2.21-0.36c-0.03-0.14-0.05-0.29-0.06-0.43
	C16.01,19.62,16,19.38,16,19.16c0-0.27,0.01-0.53,0.05-0.78c0.01-0.12,0.04-0.32,0.08-0.51c0-0.01,0.01-0.02,0.01-0.04
	c0.02-0.12,0.05-0.23,0.08-0.32c0.03-0.16,0.08-0.31,0.14-0.44c0-0.01,0.02-0.07,0.05-0.14c0.06-0.17,0.12-0.31,0.19-0.44
	c0.02-0.05,0.04-0.09,0.07-0.14c0.07-0.13,0.14-0.24,0.23-0.36c0.09-0.15,0.24-0.35,0.41-0.53c0.06-0.08,0.16-0.18,0.27-0.28
	c0.04-0.05,0.16-0.14,0.27-0.23c0.09-0.06,0.2-0.15,0.31-0.21c0.13-0.09,0.26-0.17,0.39-0.23c1.07-0.54,3.19-1.6,5.47,0.52
	c1.76-1.45,3.88-1.28,5.42-0.53c0.37,0.19,0.69,0.41,0.96,0.67C31.43,16.08,32,17.53,32,19.19z"/>
<path d="M24.58,2.99c-0.2,0.08-0.39,0.18-0.58,0.28c-0.59-0.32-1.21-0.56-1.84-0.71V2.55c-0.25-0.39-0.21-0.92,0.13-1.26
	c0.39-0.39,1.03-0.39,1.42,0C24.14,1.72,24.41,2.34,24.58,2.99z"/>
<path d="M36.14,31.46c-0.16,0.61-0.2,1.21-0.14,1.78C35.39,33.08,34.8,33,34.21,33c-1.93,0-3.63,0.84-4.78,2.37
	c-1.45,1.93-1.82,4.67-1.01,7.5c0.72,2.48,2.09,4.36,4.02,5.56C30.12,48.64,27.17,49,24,49c-4.82,0-9.86-0.5-11.68-1.03
	c-1.25-0.37-3.02-0.39-4.59-0.41C5.52,47.54,3.81,47.81,3,47c-1.59-1.6-0.19-4.24,1.06-6.52c0.82-1.5,1.76-3.2,1.76-4.48
	c0-3.04,0.32-6.2,0.6-8.39c3.11,2.62,9.01,3.94,17.58,3.94c5.32,0,9.55-0.48,12.75-1.47C36.48,30.5,36.27,30.97,36.14,31.46z"/>
<path d="M41.93,33.02c0,0.01-0.01,0.03-0.01,0.04c-1.13,0.14-2.28,0.57-3.42,1.24c-0.1-0.06-0.19-0.11-0.29-0.16
	c-0.22-0.66-0.34-1.42-0.14-2.16c0.5-1.86,2.84-2.86,2.84-2.86S42.43,31.15,41.93,33.02z"/>
<path d="M32.42,8.63c-0.09-0.01-0.18-0.01-0.27-0.01c-0.56,0-1.11,0.08-1.57,0.22c-1.25,0.34-2.34,1.09-3.15,2.16l-0.72,0.95
	c-0.91,0.05-1.79,0.26-2.6,0.66c-0.91-0.54-1.88-0.82-2.9-0.84l-0.76-0.9c-0.82-0.97-1.91-1.63-3.16-1.91
	c-0.43-0.09-0.81-0.13-1.17-0.13H16c-0.15,0-0.3,0.01-0.46,0.02c0.29-1.7,1.19-3.11,2.6-3.9c1.83-1.02,4.01-0.74,5.86,0.71
	c1.84-1.43,4-1.73,5.82-0.73C31.18,5.67,32.08,7,32.42,8.63z"/>
<path d="M35.875,21.231c-1.668,0.614-3.714,1.094-5.916,1.387c-3.855,0.509-8.177,0.505-11.925-0.01C12.002,21.796,6,18,6,18
	l-0.002,0.45C5.996,18.879,5.993,19.431,6,20.014c0.043,3.085,0.24,4.64,1.293,5.693C9.046,27.46,13.368,29.55,24,29.55
	c8.536,0,14.157-1.293,16.707-3.843C42,24.414,42,21.442,42,18C42,18,37.955,20.47,35.875,21.231z"/>
<path d="M42.12,15.58l-1.16,0.71c-1.08,0.66-4.22,2.49-5.78,3.06c-0.38,0.14-0.78,0.27-1.2,0.4C34,19.56,34,19.38,34,19.19
	c0-2.26-0.81-4.22-2.21-5.46c-0.41-0.39-0.89-0.73-1.47-1.03c-0.42-0.2-0.86-0.37-1.3-0.49c0.53-0.7,1.25-1.21,2.09-1.44
	c0.75-0.23,2.17-0.36,3.8,0.86c1.15-1.04,2.75-1.33,4.27-0.71C40.71,11.55,42.07,13.19,42.12,15.58z"/>
<path d="M18.92,12.16c-0.52,0.18-0.93,0.39-1.21,0.53c-0.2,0.1-0.41,0.22-0.62,0.36c-0.11,0.07-0.23,0.15-0.35,0.24l-0.15,0.1
	l-0.07,0.06c-0.11,0.09-0.23,0.18-0.35,0.31c-0.15,0.14-0.27,0.27-0.38,0.39c-0.2,0.23-0.39,0.48-0.55,0.72
	c-0.12,0.17-0.22,0.33-0.29,0.45c-0.06,0.12-0.11,0.21-0.16,0.32c-0.09,0.17-0.17,0.35-0.24,0.57c-0.03,0.05-0.05,0.11-0.07,0.17
	c-0.08,0.2-0.15,0.41-0.2,0.63c-0.02,0.07-0.04,0.16-0.06,0.25l-0.09,0.2v0.22c-0.03,0.17-0.05,0.33-0.07,0.45
	C14.01,18.52,14,18.88,14,19.16c0,0.13,0,0.27,0.01,0.4c-3.82-1.31-6.9-3.23-6.94-3.25L5.78,15.5c-0.02-1.69,0.65-3.15,1.88-3.99
	c1.49-1.02,3.45-0.89,5.34,0.31c1.01-0.64,2.04-0.99,3-0.99h0.12c0.22,0,0.47,0.03,0.76,0.09C17.7,11.1,18.39,11.53,18.92,12.16z"/>
</svg>