<?xml version="1.0" encoding="utf-8"?><!-- Generator: Adobe Illustrator 15.0.0, SVG Export Plug-In . SVG Version: 6.00 Build 0)  --><!DOCTYPE svg PUBLIC "-//W3C//DTD SVG 1.1//EN" "http://www.w3.org/Graphics/SVG/1.1/DTD/svg11.dtd"><svg xmlns="http://www.w3.org/2000/svg" xmlns:xlink="http://www.w3.org/1999/xlink" viewBox="0 0 50 50" width="500px" height="500px"><path d="M31.518,18.215c-4.495-4.497-8.931-8.533-13.778-8.533c-2.695,0-5.233,1.228-7.758,3.754c-7.219,7.219-11.979,26.937-6.3,32.617c2.331,2.331,6.36,2.821,9.33,2.821c0,0,0,0,0.001,0c6.897,0,17.127-2.857,23.29-9.13C44.602,31.295,37.039,23.735,31.518,18.215z M8.746,38.371c-0.588,1.054-1.521,1.648-2.091,1.334c-0.574-0.318-0.567-1.432,0.021-2.479c0.584-1.058,1.517-1.656,2.091-1.336C9.337,36.206,9.327,37.314,8.746,38.371z M11.362,30.176c-0.852,0.852-1.917,1.166-2.378,0.705c-0.462-0.463-0.146-1.527,0.706-2.379c0.852-0.851,1.917-1.166,2.378-0.703C12.53,28.26,12.214,29.324,11.362,30.176z M10.584,24.001c-0.513-0.406-0.325-1.498,0.421-2.445c0.75-0.943,1.769-1.379,2.284-0.971c0.513,0.403,0.321,1.498-0.425,2.443C12.118,23.975,11.098,24.407,10.584,24.001z M15.369,43.038c-1.03,0.624-2.137,0.681-2.477,0.119c-0.339-0.56,0.221-1.519,1.247-2.144c1.03-0.625,2.139-0.682,2.478-0.125C16.959,41.452,16.399,42.409,15.369,43.038z M18.41,34.402c-0.853,0.854-1.916,1.168-2.377,0.707c-0.465-0.463-0.148-1.529,0.703-2.377c0.852-0.853,1.916-1.17,2.379-0.707C19.575,32.49,19.262,33.551,18.41,34.402z M19.82,24.539c-0.853,0.851-1.916,1.169-2.379,0.703c-0.463-0.459-0.148-1.524,0.705-2.377c0.852-0.854,1.916-1.166,2.377-0.703C20.984,22.623,20.67,23.688,19.82,24.539z M19.547,16.285c-1.057,0.577-2.167,0.577-2.481,0.004c-0.311-0.575,0.292-1.507,1.351-2.085c1.057-0.572,2.167-0.572,2.481,0C21.211,14.779,20.608,15.71,19.547,16.285z M25.232,38.807c-1.03,0.627-2.136,0.676-2.474,0.119c-0.339-0.56,0.218-1.517,1.247-2.142c1.033-0.626,2.142-0.677,2.481-0.119C26.825,37.227,26.266,38.184,25.232,38.807z M26.867,28.768c-0.851,0.854-1.916,1.169-2.378,0.707c-0.463-0.463-0.147-1.527,0.704-2.38c0.851-0.853,1.917-1.169,2.379-0.706C28.034,26.851,27.719,27.916,26.867,28.768z M26.825,20.349c-0.897,0.812-1.978,1.071-2.414,0.586c-0.441-0.484-0.071-1.531,0.828-2.339c0.891-0.808,1.969-1.069,2.408-0.581C28.088,18.495,27.716,19.548,26.825,20.349z M34.109,32.732c-0.584,1.054-1.521,1.65-2.092,1.334c-0.574-0.314-0.563-1.432,0.022-2.485c0.579-1.049,1.519-1.647,2.097-1.325C34.706,30.566,34.691,31.684,34.109,32.732z"/><path d="M48.755,18.464c-0.24-0.342-0.667-0.501-1.069-0.395c-1.504,0.389-3.448,0.835-5.146,0.835c-1.384,0-2.393-0.284-3.105-0.884c1.783-1.849,2.814-4.324,2.928-7.073c0.121-2.937-0.853-5.885-2.48-7.513c-0.285-0.285-0.713-0.371-1.085-0.219c-0.373,0.152-0.618,0.513-0.622,0.916c-0.03,3.055-1.7,7.547-3.859,8.557c0.342-3.783,0.458-7.665-4.66-11.16c-0.365-0.251-0.853-0.229-1.194,0.05c-0.344,0.279-0.463,0.751-0.293,1.16c0.872,2.097,0.262,3.716-0.444,5.591c-0.352,0.934-0.716,1.908-0.898,2.963c2.073,1.562,4.088,3.489,6.106,5.509c2.121,2.12,4.797,4.802,6.692,7.869c0.147,0.007,0.295,0.029,0.441,0.029c0.001,0,0.001,0,0.001,0c3.346,0,6.433-1.81,8.693-5.095C48.996,19.26,48.994,18.806,48.755,18.464z"/></svg>