<?xml version="1.0" encoding="utf-8"?><!-- Generator: Adobe Illustrator 15.0.0, SVG Export Plug-In . SVG Version: 6.00 Build 0)  --><!DOCTYPE svg PUBLIC "-//W3C//DTD SVG 1.1//EN" "http://www.w3.org/Graphics/SVG/1.1/DTD/svg11.dtd"><svg xmlns="http://www.w3.org/2000/svg" xmlns:xlink="http://www.w3.org/1999/xlink" viewBox="0 0 50 50" width="50px" height="50px"><path d="M19,50c-0.931,0-6.085-1.353-8.259-1.935c-0.382-0.078-0.825-0.124-1.261-0.124c-1.617,0-3.134,0.627-4.273,1.766c-0.387,0.387-1.013,0.392-1.404,0.01l-3.5-3.4C0.111,46.13,0.002,45.874,0,45.606s0.104-0.524,0.293-0.714c1.44-1.439,2.065-3.578,1.63-5.581C1.352,37.152,0,31.939,0,31.1c0-1.054,0.234-1.604,0.306-1.747c0.178-0.355,0.548-0.577,0.947-0.552c0.397,0.021,0.745,0.275,0.884,0.648c0.009,0.022,1.304,3.178,8.17,10.044c6.893,6.893,10.426,8.362,10.46,8.377c0.379,0.152,0.63,0.521,0.629,0.93c0,0.408-0.246,0.776-0.625,0.929C20.658,49.773,20.04,50,19,50z"/><path d="M49.786,2.031c-0.233-0.379-0.605-0.637-1.033-0.729c-0.023-0.136-0.062-0.247-0.094-0.327c-0.385-0.93-1.585-1.328-2.734-0.754c-1.884,1.017-4.691,1.038-7.664,1.059c-4.408,0.032-9.405,0.068-13.385,3.24l-0.09,0.071c-2.107,1.683-6.926,5.541-19.692,25.884c1.067,1.525,3.058,4.034,6.627,7.604c3.607,3.606,6.247,5.663,7.871,6.773c20.417-12.897,24.2-17.615,25.896-19.737c3.094-3.96,3.151-8.935,3.201-13.324c0.034-2.993,0.066-5.82,1.105-7.745C50.142,3.354,50.139,2.6,49.786,2.031z M38.6,7.4c0.5-1.3,1.4-2,2.101-1.8c0.6,0.3,0.7,1.5,0.2,2.7c-0.5,1.2-1.601,1.8-2.2,2.2C38.6,10,38.1,9,38.6,7.4z M33.8,9.6c0.3-1.8,1.3-3.2,2.2-3c0.9,0.2,1.4,1.8,1.1,3.6c-0.3,1.8-1.699,2.9-2.3,3.6C34.5,13.1,33.4,11.9,33.8,9.6z M38.9,19c0.1,0.9-1.301,1.9-3.2,2c-2.4,0.1-3.4-1.1-4.101-1.4c0.801-0.6,1.9-1.8,3.801-2C37.2,17.4,38.8,18.1,38.9,19z M31.7,6.1c0.8,0,1.2,1.1,1.2,1.4C32.1,8.3,32.1,10.3,32.1,10.3S31.7,9.4,30.4,9C30.2,7.7,30.9,6.1,31.7,6.1z M29.1,14.5c0-1.8,1-3.3,1.9-3.2c0.9,0.1,1.6,1.7,1.4,3.5c-0.2,1.8-1.5,3-2,3.8C30.1,17.9,28.9,16.8,29.1,14.5z M27.2,10.5c0.8,0,1.2,1.1,1.2,1.4C27.6,12.7,27.6,14.7,27.6,14.7S27.2,13.8,25.9,13.4C25.7,12.1,26.4,10.5,27.2,10.5z M24.6,19c0-1.8,1-3.3,1.9-3.2c0.9,0.1,1.6,1.7,1.4,3.5c-0.2,1.8-1.5,3-2,3.8C25.6,22.4,24.4,21.3,24.6,19z M22,28.9c0.8-0.601,1.9-1.801,3.8-2c1.8-0.2,3.4,0.5,3.5,1.399c0.101,0.9-1.3,1.9-3.2,2C23.8,30.4,22.7,29.2,22,28.9z M24.8,32.9c0.1,0.899-1.3,1.899-3.2,2c-2.3,0.1-3.4-1-4.1-1.4c0.8-0.6,1.9-1.8,3.8-2C23.1,31.3,24.7,32,24.8,32.9z M22.6,15.4c0.8,0,1.2,1.1,1.2,1.4C23,17.6,23,19.6,23,19.6s-0.4-0.9-1.7-1.3C21.2,16.9,21.8,15.4,22.6,15.4z M19.7,24c0-1.9,1-3.3,1.9-3.2c0.9,0.1,1.6,1.7,1.4,3.5s-1.5,3-2,3.8C20.7,27.4,19.5,26.3,19.7,24z M18,19.8c0.8,0,1.2,1.1,1.2,1.4C18.4,22,18.4,24,18.4,24s-0.4-0.9-1.7-1.3C16.5,21.4,17.2,19.9,18,19.8z M15.1,28.4c0-1.801,0.9-3.2,1.9-3.2c0.9,0.1,1.6,1.7,1.4,3.5c-0.2,1.8-1.5,3-2,3.8C16.1,31.8,14.9,30.7,15.1,28.4z M13.1,24.6c0.8,0,1.2,1.1,1.2,1.4c-0.8,0.8-0.8,2.8-0.8,2.8s-0.4-0.899-1.7-1.3C11.6,26.1,12.3,24.6,13.1,24.6z M11.4,37.2C11,36.4,9.9,35.4,10,33c0.1-1.8,1.1-3.2,2-3.1c0.9,0.1,1.6,1.699,1.4,3.5C13.2,35.2,11.9,36.4,11.4,37.2z M16.9,39.8c-2.3,0.101-3.4-1-4.1-1.399c0.8-0.601,1.9-1.801,3.8-2c1.8-0.2,3.4,0.5,3.5,1.399C20.2,38.7,18.8,39.7,16.9,39.8z M22.4,38.1c-0.3-1.3-1.3-1.8-1.3-1.8s2,0,2.8-0.8c0.4,0,1.5,0.4,1.4,1.2C25.3,37.6,23.8,38.2,22.4,38.1z M27.2,33.3c-0.3-1.3-1.3-1.8-1.3-1.8s2,0,2.8-0.8c0.399,0,1.5,0.399,1.399,1.2C30.2,32.8,28.6,33.4,27.2,33.3z M27,24c0.8-0.6,1.9-1.8,3.8-2c1.8-0.2,3.4,0.5,3.5,1.4c0.101,0.9-1.3,1.9-3.2,2C28.8,25.6,27.7,24.4,27,24z M31.7,28.7c-0.3-1.3-1.3-1.8-1.3-1.8s2,0,2.8-0.801c0.399,0,1.5,0.4,1.399,1.2C34.7,28.2,33.1,28.8,31.7,28.7z M36.6,24.1c-0.3-1.3-1.3-1.8-1.3-1.8s2,0,2.8-0.8c0.4,0,1.5,0.4,1.4,1.2C39.6,23.6,38,24.3,36.6,24.1z M36.4,15.2c0.699-0.6,1.8-2,3.6-2.3c1.8-0.3,3.4,0.2,3.6,1.1c0.2,0.9-1.199,2-3,2.2C38.2,16.6,37.1,15.5,36.4,15.2z M41.1,19.7c-0.3-1.3-1.3-1.8-1.3-1.8s2,0,2.8-0.8c0.4,0,1.5,0.4,1.4,1.2C44,19.2,42.5,19.8,41.1,19.7z M42.8,11.4c-1.6,0.6-2.6,0-3.1-0.1c0.399-0.6,1-1.7,2.2-2.2C43.1,8.6,44.4,8.7,44.6,9.4C44.9,10,44.1,11,42.8,11.4z"/></svg>