<?xml version="1.0" encoding="iso-8859-1"?><!-- Generator: Adobe Illustrator 22.1.0, SVG Export Plug-In . SVG Version: 6.00 Build 0)  --><svg xmlns="http://www.w3.org/2000/svg" xmlns:xlink="http://www.w3.org/1999/xlink" viewBox="0 0 50 50" width="50px" height="50px"><path d="M14,16c-0.553,0-1,0.447-1,1v28c0,1.654,1.346,3,3,3h18c1.654,0,3-1.346,3-3c0,0,0-3.763,0-4C37,21.925,20.142,16,14,16z M19,38c-0.552,0-1-0.448-1-1s0.448-1,1-1s1,0.448,1,1S19.552,38,19,38z M20,29c-1.105,0-2-0.895-2-2s0.895-2,2-2s2,0.895,2,2S21.105,29,20,29z M23,34c-0.552,0-1-0.448-1-1s0.448-1,1-1s1,0.448,1,1S23.552,34,23,34z"/><path d="M37,30.211V17c0-0.553-0.447-1-1-1c-1.644,0-5.102,0.539-8.978,2.382C31.008,20.941,34.788,24.769,37,30.211z"/><path d="M26.164,16.575c1.808-0.859,3.547-1.457,5.118-1.867l-5.937-4.02c-0.681-0.461-1.454-0.685-2.22-0.688c-1.256-0.006-2.494,0.578-3.277,1.674l-2.012,2.818c2.127,0.483,4.599,1.352,7.087,2.674L26.164,16.575z"/><path d="M23.96,2.73c-0.07-0.26-0.24-0.48-0.47-0.6C23.25,2,22.98,1.96,22.73,2.04l-5,1.43c-0.26,0.07-0.48,0.24-0.6,0.47C17,4.17,16.97,4.45,17.04,4.7l1.54,5.36C19.71,8.76,21.36,8,23.11,8c0.01,0,0.01,0,0.02,0c0.87,0.01,1.72,0.19,2.49,0.56L23.96,2.73z"/><path d="M17.08,12.11l-1.43,2C15.04,14.04,14.49,14,14,14c-0.55,0-1.05,0.16-1.49,0.41l-1.47-5.14C10.97,9.02,11,8.75,11.13,8.51c0.13-0.23,0.34-0.4,0.6-0.47l3.87-1.09L17.08,12.11z"/><path d="M33.96,4.7l-2.25,7.88l-3.54-2.4l-1.63-5.71l0.5-1.74c0.07-0.26,0.24-0.48,0.47-0.6c0.24-0.13,0.51-0.16,0.76-0.09l5,1.43c0.26,0.07,0.48,0.24,0.6,0.47C34,4.17,34.03,4.45,33.96,4.7z"/><path d="M38.87,8.51c-0.13-0.23-0.34-0.4-0.6-0.47l-2.947-0.831l-1.871,6.554l0.578,0.387C34.78,14.05,35.44,14,36,14c0.55,0,1.05,0.16,1.49,0.41l1.47-5.14C39.03,9.02,39,8.75,38.87,8.51z"/></svg>