<?xml version="1.0" encoding="iso-8859-1"?><!-- Generator: Adobe Illustrator 21.1.0, SVG Export Plug-In . SVG Version: 6.00 Build 0)  --><svg xmlns="http://www.w3.org/2000/svg" xmlns:xlink="http://www.w3.org/1999/xlink" viewBox="0 0 50 50" width="50px" height="50px"><path d="M45.99,39c-0.26-15.82-6.74-25.41-18-26.81C27.03,12.06,26.03,12,25,12s-2.03,0.06-2.99,0.19c-3.13,0.39-5.775,1.315-8.135,2.935L20,21l2.25,0.25L25,18.51L27.49,21H31v3.51L33.49,27L31,29.49v2.635L39.875,41H48v-2H45.99z M27.49,33L25,35.49L22.51,33H19v-3.51L16.51,27L19,24.51v-1.22l-6.84-6.84C7.03,20.91,4.18,28.61,4.01,39H2v2h34.71l-8-8H27.49z"/><path style="fill:none;stroke:#000000;stroke-width:2;stroke-miterlimit:10;" d="M22,13c0-2.209,0-4,3-4s3,1.791,3,4"/><line style="fill:none;stroke:#000000;stroke-width:2;stroke-linecap:round;stroke-miterlimit:10;" x1="2.951" y1="3" x2="46.975" y2="47.024"/></svg>