<?xml version="1.0" encoding="iso-8859-1"?>
<!-- Generator: Adobe Illustrator 25.2.3, SVG Export Plug-In . SVG Version: 6.00 Build 0)  -->
<svg version="1.1" baseProfile="basic" xmlns="http://www.w3.org/2000/svg" xmlns:xlink="http://www.w3.org/1999/xlink" x="0px"
	 y="0px" viewBox="0 0 50 50" xml:space="preserve">
<polygon points="9,22.17 47,28.17 47,39.09 9,32.79 "/>
<path d="M47,25v1.14L9.27,20.19c2.04-1.84,4.49-2.98,7.95-4.37c0.09,0.31,0.21,0.61,0.37,0.89c1.09,1.96,3.46,2.77,5.56,3.08
	c2.07,0.31,4.22,0.29,6.27-0.19c2.24-0.52,4.61-1.92,5.34-4.11l11.83,8.7C46.85,24.38,47,24.68,47,25z"/>
<path d="M7.84,34.63L47,41.11V44c0,0.29-0.13,0.57-0.35,0.76C46.46,44.92,46.24,45,46,45c-0.05,0-0.11,0-0.16-0.01L7.18,38.54
	C4.76,38.14,3,36.07,3,33.61V19.63c-0.72-0.41-1.78-1.22-1.78-2.46c0-2.76,2.3-4.68,6.05-5.11c1.03-2.25,4.01-2.45,6.02-2.14
	c3.12-2.37,5.74-1.96,7.54-1.03c-1.33,1.09-2.82,1.99-3.5,3.66c-0.15,0.38-0.26,0.78-0.3,1.19c-4.33,1.72-7.21,3.03-9.74,5.55
	C7.11,19.48,7,19.73,7,20v13.64C7,34.13,7.35,34.55,7.84,34.63z"/>
<path d="M32.19,15.99c-0.87,0.93-2.1,1.4-3.31,1.69c-1.08,0.25-2.19,0.33-3.3,0.32c-0.3,0-0.61-0.02-0.92-0.04
	c-0.19-0.01-0.38-0.03-0.57-0.05c-0.3-0.03-0.29-0.02-0.51-0.06c-0.93-0.15-1.95-0.4-2.69-0.77c-0.81-0.41-1.46-0.96-1.72-1.7
	c-0.42-1.19-0.03-2.42,0.9-3.33c1.26-1.23,2.81-2.05,3.86-3.5c0.61-0.84,1.03-1.9,0.91-2.94c1.47,0.51,2.87,1.22,4.15,2.12
	c1.94,1.38,3.67,3.42,3.98,5.85C33.07,14.53,32.84,15.3,32.19,15.99z"/>
</svg>