<?xml version="1.0" encoding="utf-8"?><!-- Generator: Adobe Illustrator 15.0.0, SVG Export Plug-In . SVG Version: 6.00 Build 0)  --><!DOCTYPE svg PUBLIC "-//W3C//DTD SVG 1.1//EN" "http://www.w3.org/Graphics/SVG/1.1/DTD/svg11.dtd"><svg xmlns="http://www.w3.org/2000/svg" xmlns:xlink="http://www.w3.org/1999/xlink" viewBox="0 0 50 50" width="500px" height="500px"><path d="M37.691,12.007c-2.326-2.809-6.328-4.623-10.195-4.623c-2.653,0-4.948,0.866-6.463,2.438c-3.635,3.772-3.373,10.727,0.583,15.502c2.378,2.872,5.97,4.586,9.607,4.586c2.389,0,4.547-0.741,6.24-2.145C41.806,24.168,41.908,17.099,37.691,12.007z M26.712,15.437c-1.075,1.12-2.679,1.326-3.582,0.459c-0.903-0.867-0.764-2.478,0.312-3.598c1.075-1.12,2.679-1.326,3.582-0.459C27.927,12.706,27.788,14.317,26.712,15.437z"/><path d="M28.062,36.482L12.01,19.463c-0.204-0.217-0.494-0.334-0.791-0.312c-0.297,0.019-0.57,0.168-0.745,0.409l-4.759,6.528c-0.246,0.337-0.256,0.792-0.026,1.141l12.712,19.226c0.169,0.256,0.446,0.42,0.752,0.445c0.027,0.002,0.054,0.003,0.082,0.003c0.277,0,0.543-0.115,0.733-0.32l2.967-3.199c0.35-0.377,0.356-0.959,0.014-1.344c-0.186-0.21-0.408-0.555-0.408-1.01c0-1.153,1.275-2.089,2.452-1.193c0.41,0.312,0.988,0.263,1.339-0.116l1.734-1.871C28.425,37.463,28.423,36.865,28.062,36.482z M11.186,27.766c-0.717,0-1.299-0.582-1.299-1.3c0-0.717,0.581-1.299,1.299-1.299c0.717,0,1.299,0.582,1.299,1.299C12.485,27.184,11.903,27.766,11.186,27.766z M14.99,28.48c-0.445,0-0.806-0.36-0.806-0.806c0-0.444,0.361-0.806,0.806-0.806c0.445,0,0.806,0.361,0.806,0.806C15.797,28.12,15.436,28.48,14.99,28.48z"/><path d="M39.231,10.731c0.403,0.486,0.758,0.993,1.091,1.508l4.923-4.923l2.561-5.123l-5.122,2.561l-4.704,4.705C38.428,9.862,38.856,10.278,39.231,10.731z"/><polygon points="12.064,40.497 10.025,37.413 4.754,42.684 2.193,47.806 7.316,45.245 "/></svg>