<?xml version="1.0" encoding="iso-8859-1"?>
<!-- Generator: Adobe Illustrator 24.1.2, SVG Export Plug-In . SVG Version: 6.00 Build 0)  -->
<svg version="1.1" id="Layer_1" xmlns="http://www.w3.org/2000/svg" xmlns:xlink="http://www.w3.org/1999/xlink" x="0px" y="0px"
	 viewBox="0 0 50 50" style="enable-background:new 0 0 50 50;" xml:space="preserve">
<path d="M45,25c0,11.23-8.43,20.43-19,20.97v-8.02C31.29,37.5,38,33.43,38,25s-6.71-12.5-12-12.95V4.03C36.57,4.57,45,13.77,45,25z"
	/>
<path d="M26,14.05v21.9c4.45-0.46,10-3.9,10-10.95S30.45,14.51,26,14.05z M27.99,22.28c0.71-1.42,1.1-1.84,1.17-1.91
	c0.48-0.49,1.23-0.86,1.75-0.34c0.15,0.14,0.46,0.57,0.04,1.26c-0.16,0.27-0.36,0.47-0.38,0.49c-0.07,0.07-0.49,0.46-1.91,1.17
	C28.59,22.98,28.52,23,28.44,23c-0.13,0-0.26-0.05-0.35-0.15C27.93,22.7,27.9,22.47,27.99,22.28z M30.97,29.97
	c-0.52,0.52-1.27,0.15-1.75-0.34c-0.07-0.07-0.46-0.49-1.17-1.91c-0.09-0.19-0.06-0.42,0.1-0.57c0.09-0.1,0.22-0.15,0.35-0.15
	c0.08,0,0.15,0.02,0.22,0.05c1.42,0.71,1.84,1.1,1.91,1.17c0.02,0.02,0.22,0.22,0.38,0.49C31.43,29.4,31.12,29.83,30.97,29.97z
	 M31.52,26c-0.1,0-0.68-0.03-2.18-0.53C29.14,25.41,29,25.22,29,25s0.14-0.41,0.34-0.47c1.5-0.5,2.08-0.53,2.18-0.53
	C32.2,24,33,24.26,33,25S32.2,26,31.52,26z"/>
<path d="M11.384,9.665l1.763,7.165l3.684-0.367l2.378-3.074c0.338-0.437,0.967-0.517,1.403-0.18
	c0.437,0.338,0.517,0.966,0.179,1.402l-2.213,2.862l2.013,3.19c0.295,0.467,0.155,1.084-0.312,1.379
	c-0.166,0.104-0.351,0.154-0.533,0.154c-0.332,0-0.656-0.165-0.847-0.467l-2.057-3.259l-4.361,0.435
	c-0.489,0.046-0.951-0.272-1.07-0.756l-1.65-6.705C6.801,15.101,5,19.822,5,25c0,4.741,1.51,9.1,4.036,12.609l6.846-2.257
	l0.69-3.061l-2.413-3.751c-0.299-0.465-0.165-1.083,0.3-1.382c0.465-0.298,1.083-0.164,1.382,0.3l2.095,3.256l1.827-1.194
	c0.463-0.303,1.083-0.173,1.384,0.29c0.302,0.462,0.172,1.082-0.29,1.384l-2.332,1.524l-0.818,3.626
	c-0.078,0.343-0.329,0.62-0.663,0.73l-6.682,2.203c3.44,3.875,8.256,6.388,13.637,6.669V4.053
	C19.129,4.307,14.729,6.399,11.384,9.665z"/>
</svg>