<?xml version="1.0" encoding="iso-8859-1"?><!-- Generator: Adobe Illustrator 21.1.0, SVG Export Plug-In . SVG Version: 6.00 Build 0)  --><svg xmlns="http://www.w3.org/2000/svg" xmlns:xlink="http://www.w3.org/1999/xlink" viewBox="0 0 50 50" width="50px" height="50px"><path d="M47.71,47.37c-0.2,0.19-0.45,0.29-0.71,0.29s-0.51-0.1-0.71-0.29L2.63,3.71c-0.39-0.39-0.39-1.03,0-1.42s1.03-0.39,1.42,0L14.4,12.64l3.34-3.91L29.7,9.81l-4.12,5.73l-9.93-1.65l2.43,2.43L25,17.47v5.77l2,2v-7.8l10-1.99v19.79l10.71,10.71C48.1,46.34,48.1,46.98,47.71,47.37z M32.02,10.02l-3.74,5.13l7.9-1.58L32.02,10.02z M15,21.8l3.65,0.61L13,16.76v26.86c0,0.49,0.35,0.91,0.84,0.99L25,46.47V36.45l-10-1.67V21.8z M27,46.44l9.2-1.83h0.01c0.45-0.1,0.79-0.5,0.79-0.98v-2.87l-10-10V46.44z M20.09,2.639C19.505,2.586,19,3.047,19,3.635V6.83l12.98,1.15H32V4.633c0-0.517-0.394-0.949-0.91-0.996L20.09,2.639z"/></svg>