<?xml version="1.0" encoding="iso-8859-1"?>
<!-- Generator: Adobe Illustrator 23.0.6, SVG Export Plug-In . SVG Version: 6.00 Build 0)  -->
<svg version="1.1" id="&#x421;&#x43B;&#x43E;&#x439;_1"
	 xmlns="http://www.w3.org/2000/svg" xmlns:xlink="http://www.w3.org/1999/xlink" x="0px" y="0px" viewBox="0 0 50 50"
	 style="enable-background:new 0 0 50 50;" xml:space="preserve">
<path d="M45.56,36.13c-3.25-6.85-6.85-13.61-10.7-20.11c-2.02-3.41-4.16-6.82-6.35-10.13C27.73,4.71,26.43,4,25.03,4
	c-0.01,0-0.01,0-0.01,0c-1.4,0-2.7,0.7-3.48,1.87c-2.21,3.31-4.36,6.73-6.4,10.15c-3.86,6.5-7.44,13.26-10.66,20.12
	c-1,2.14-0.09,4.7,2.03,5.7c4.09,1.93,10.57,4.17,18.54,4.17c0.32,0,0.65,0,0.97-0.01c1.44-0.03,2.86-0.14,4.27-0.31
	c0.12-0.68,0.21-1.36,0.3-2.05c-1.52,0.21-3.06,0.33-4.61,0.36c-8.02,0.17-14.55-2.06-18.62-3.97c-1.12-0.53-1.6-1.9-1.07-3.04
	c3.19-6.8,6.74-13.51,10.57-19.94c2.02-3.4,4.15-6.79,6.34-10.07C23.62,6.36,24.28,6,25.02,6s1.41,0.36,1.82,0.99
	c2.17,3.29,4.29,6.67,6.3,10.05c3.82,6.45,7.39,13.16,10.61,19.95c0.27,0.55,0.3,1.18,0.09,1.76c-0.21,0.58-0.62,1.04-1.17,1.3
	c-3.24,1.52-6.59,2.61-10.03,3.25c-0.08,0.7-0.17,1.39-0.28,2.09c3.83-0.66,7.57-1.84,11.16-3.53c1.03-0.49,1.81-1.35,2.2-2.43
	C46.11,38.34,46.05,37.17,45.56,36.13z"/>
<path d="M45.56,36.13c-3.25-6.85-6.85-13.61-10.7-20.11c-2.02-3.41-4.16-6.82-6.35-10.13C27.73,4.71,26.43,4,25.03,4
	c-0.01,0-0.01,0-0.01,0c-1.4,0-2.7,0.7-3.48,1.87c-2.21,3.31-4.36,6.73-6.4,10.15c-3.86,6.5-7.44,13.26-10.66,20.12
	c-1,2.14-0.09,4.7,2.03,5.7c4.09,1.93,10.57,4.17,18.54,4.17c0.32,0,0.65,0,0.97-0.01c1.44-0.03,2.86-0.14,4.27-0.31
	c0.12-0.68,0.21-1.36,0.3-2.05c0.63-5.15,0.53-10.35-0.32-15.48c-0.91-5.44-2.64-10.73-5.16-15.71c-0.25-0.49-0.05-1.09,0.44-1.34
	s1.09-0.05,1.34,0.44c1.61,3.18,2.91,6.48,3.89,9.87C31.12,21.15,31.54,21,32,21c1.1,0,2,0.9,2,2c0,1.1-0.9,2-2,2
	c-0.11,0-0.22-0.01-0.32-0.03c0.21,0.95,0.4,1.91,0.56,2.87c0.85,5.12,0.99,10.31,0.4,15.46c-0.08,0.7-0.17,1.39-0.28,2.09
	c3.83-0.66,7.57-1.84,11.16-3.53c1.03-0.49,1.81-1.35,2.2-2.43C46.11,38.34,46.05,37.17,45.56,36.13z M23,41c0,0.55-0.45,1-1,1
	s-1-0.45-1-1s0.45-1,1-1S23,40.45,23,41z M18,31c0,0.55-0.45,1-1,1s-1-0.45-1-1s0.45-1,1-1S18,30.45,18,31z M15,34c1.1,0,2,0.9,2,2
	c0,1.1-0.9,2-2,2s-2-0.9-2-2C13,34.9,13.9,34,15,34z M35,27c0.55,0,1,0.45,1,1s-0.45,1-1,1s-1-0.45-1-1S34.45,27,35,27z"/>
</svg>