<?xml version="1.0" encoding="utf-8"?><!-- Generator: Adobe Illustrator 15.0.0, SVG Export Plug-In . SVG Version: 6.00 Build 0)  --><!DOCTYPE svg PUBLIC "-//W3C//DTD SVG 1.1//EN" "http://www.w3.org/Graphics/SVG/1.1/DTD/svg11.dtd"><svg xmlns="http://www.w3.org/2000/svg" xmlns:xlink="http://www.w3.org/1999/xlink" viewBox="0 0 50 50" width="50px" height="50px"><g><path d="M47.434,22.293c-1.091-4.445-3.613-8.813-7.102-12.301c-4.76-4.762-11.174-7.72-16.739-7.72c-0.388,0-0.763,0.019-1.13,0.049c-0.011,0.001-0.021-0.004-0.032-0.002c-0.031,0.003-0.063,0.012-0.095,0.017c-0.876,0.08-1.695,0.24-2.434,0.491c-2.063,0.32-4.413,1.6-7.179,3.909C-1.584,18.679,2.07,33.259,3.63,39.485c0.421,1.681,0.276,2.886,0.169,3.765c-0.109,0.906-0.212,1.762,0.466,2.44c0.365,0.363,0.821,0.54,1.396,0.54c0.235,0,0.508-0.031,0.832-0.073c0.934-0.122,2.338-0.159,3.88,0.244c2.138,0.559,6.117,1.598,10.569,1.599c0.001,0,0.001,0,0.002,0c7.986,0,15.358-3.323,21.911-9.876c2.91-2.91,4.659-6.252,4.912-9.313C48.122,26.879,48.007,24.625,47.434,22.293z M38.918,11.406c3.118,3.117,5.388,6.981,6.447,10.925l-0.021,0.005c0.605,2.426,0.268,3.305,0.012,3.612c-0.071,0.086-0.302,0.349-1.046,0.302c-0.553-0.038-1.02,0.379-1.058,0.927c-0.079,1.11-1.11,1.855-2.061,1.936c-0.529,0.044-1.481-0.094-1.828-1.521c-0.107-0.445-0.505-0.761-0.963-0.765c-0.489,0.016-0.861,0.305-0.977,0.748c-0.189,0.729-0.656,1.2-1.388,1.399c-1.118,0.305-2.575-0.109-3.458-0.988c-0.507-0.504-1.037-1.378-0.689-2.677c0.123-0.457-0.092-0.938-0.515-1.151c-0.421-0.213-0.937-0.102-1.232,0.269c-0.398,0.499-0.934,0.69-1.633,0.583c-1.487-0.228-3.159-1.712-3.806-3.38c-0.337-0.87-0.537-2.157,0.425-3.348c0.274-0.339,0.297-0.817,0.056-1.181c-0.241-0.364-0.691-0.527-1.109-0.409c-1.507,0.431-2.587-0.326-3.23-1.036c-1.146-1.266-1.676-3.312-1.181-4.561c0.263-0.662,0.779-1.014,1.58-1.078c0.401-0.032,0.744-0.301,0.87-0.683c0.126-0.382,0.012-0.802-0.291-1.067c-1.145-1.001-1.663-1.918-1.457-2.582c0.199-0.642,1.148-1.22,2.225-1.368c0.323-0.027,0.655-0.045,1.002-0.045C27.554,4.272,33.659,6.146,38.918,11.406z"/><ellipse transform="matrix(0.7072 0.707 -0.707 0.7072 20.9176 -20.361)" cx="35.04" cy="15.072" rx="4.133" ry="1.886"/></g></svg>