<?xml version="1.0" encoding="utf-8"?><!-- Generator: Adobe Illustrator 15.0.0, SVG Export Plug-In . SVG Version: 6.00 Build 0)  --><!DOCTYPE svg PUBLIC "-//W3C//DTD SVG 1.1//EN" "http://www.w3.org/Graphics/SVG/1.1/DTD/svg11.dtd"><svg xmlns="http://www.w3.org/2000/svg" xmlns:xlink="http://www.w3.org/1999/xlink" viewBox="0 0 50 50" width="50px" height="50px"><path fill="none" stroke="#000000" stroke-width="2" stroke-linecap="round" stroke-miterlimit="10" d="M1,25c0,11.1,7.9,18.6,8.7,19.4C11.6,46.3,16.6,49,25,49c8.4,0,13.1-2.6,15.3-4.6C41.2,43.6,49,36.1,49,25"/><path fill="none" stroke="#000000" stroke-width="2" stroke-linecap="round" stroke-miterlimit="10" d="M40.1,18.7c5.5,1.4,8.9,3.5,8.9,5.8c0,4.1-10.7,7.5-24,7.5S1,28.6,1,24.5c0-1.7,1.9-3.3,5-4.6"/><path d="M50,24.5c0-2.78-3.429-5.185-9.653-6.769c-0.536-0.135-1.08,0.187-1.216,0.723c-0.137,0.535,0.187,1.08,0.722,1.216C45.866,21.2,48,23.228,48,24.5c0,2.714-8.75,6.5-23,6.5S2,27.214,2,24.5c0-1.151,1.64-2.526,4.387-3.678c0.509-0.214,0.749-0.8,0.536-1.309c-0.214-0.509-0.8-0.749-1.309-0.536C1.941,20.518,0,22.428,0,24.5c0,0.124,0.014,0.246,0.027,0.367C0.021,24.913,0,24.953,0,25c0,10.117,6.234,17.378,8.915,20.029l0.079,0.078C11.359,47.473,16.806,50,25,50c9.246,0,13.976-3.045,15.965-4.853C41.333,44.819,50,36.974,50,25c0-0.047-0.021-0.087-0.027-0.133C49.986,24.746,50,24.624,50,24.5z"/><path d="M12.629,7.993C11.027,5.764,10,3.4,10,1c0-0.552-0.448-1-1-1S8,0.448,8,1c0,3.155,1.428,6.181,3.603,8.964c0.17-0.086,0.331-0.183,0.512-0.256C12.181,9.183,12.373,8.591,12.629,7.993z"/><path d="M40.477,23.864c-0.633-0.583-1.37-1.963-2.224-3.563c-2.207-4.137-5.544-10.388-13-15.335C23.284,3.662,21.376,3,19.583,3c-2.674,0-4.468,1.431-5.501,2.632c-0.61,0.708-1.101,1.542-1.452,2.361c4.165,5.795,12.229,10.681,16.35,12.929c0.485,0.265,0.664,0.872,0.399,1.357c-0.182,0.333-0.524,0.521-0.879,0.521c-0.162,0-0.326-0.039-0.478-0.122c-4.958-2.704-12.139-7.237-16.418-12.714C9.278,11.15,8,13.491,8,16.7c0,5.828,6.868,12.118,17.964,12.118c4.621,0,9.415-1.113,14.249-3.308c0.306-0.139,0.521-0.421,0.574-0.752S40.724,24.091,40.477,23.864z"/></svg>