<?xml version="1.0" encoding="iso-8859-1"?>
<!-- Generator: Adobe Illustrator 23.0.6, SVG Export Plug-In . SVG Version: 6.00 Build 0)  -->
<svg version="1.1" id="Filled" xmlns="http://www.w3.org/2000/svg" xmlns:xlink="http://www.w3.org/1999/xlink" x="0px" y="0px"
	 viewBox="0 0 50 50" style="enable-background:new 0 0 50 50;" xml:space="preserve">
<path d="M43.951,17.049c-2.466-2.466-6.44-3.511-10.895-2.862c-4.541,0.659-8.96,2.941-12.444,6.425
	c-7.165,7.166-8.83,18.072-3.563,23.339c1.986,1.987,4.949,3.05,8.356,3.05c0.822,0,1.672-0.062,2.538-0.188
	c4.541-0.659,8.96-2.941,12.444-6.425C47.553,33.222,49.218,22.316,43.951,17.049z M30.843,31.583
	c-8.822,2.11-8.822,6.863-8.822,9.417c0,0.552-0.447,1-1,1s-1-0.448-1-1c0-2.659,0-8.884,10.357-11.362
	C37.472,27.939,40,24.071,40,21.018c0-0.552,0.447-1,1-1s1,0.448,1,1C42,24.834,39.069,29.613,30.843,31.583z"/>
<path d="M17.533,3C9.791,3,3,12.082,3,22.436c0,8.009,4.203,15.489,9.833,18.305c-1.839-5.388-0.493-12.473,3.636-18.291
	C15.159,20.281,14,17.599,14,14c0-3.265,2.079-6.422,2.168-6.555c0.306-0.459,0.926-0.582,1.386-0.277
	c0.459,0.305,0.584,0.926,0.279,1.386C17.814,8.582,16,11.349,16,14c0,2.784,0.776,4.918,1.788,6.746
	c0.448-0.53,0.912-1.05,1.41-1.548c3.076-3.076,6.837-5.272,10.8-6.382C27.352,6.927,22.487,3,17.533,3z"/>
</svg>