<?xml version="1.0" encoding="utf-8"?><!-- Generator: Adobe Illustrator 15.0.0, SVG Export Plug-In . SVG Version: 6.00 Build 0)  --><!DOCTYPE svg PUBLIC "-//W3C//DTD SVG 1.1//EN" "http://www.w3.org/Graphics/SVG/1.1/DTD/svg11.dtd"><svg xmlns="http://www.w3.org/2000/svg" xmlns:xlink="http://www.w3.org/1999/xlink" viewBox="0 0 50 50" width="50px" height="50px"><path display="none" d="M29.337,19.949c-0.063,0-0.127-0.006-0.191-0.018c-0.542-0.105-0.896-0.63-0.791-1.172C28.772,16.601,31.756,5,34.979,5c0.027,0,0.054,0,0.082,0.002c0.551,0.034,0.971,0.508,0.937,1.059c-0.031,0.511-0.441,0.909-0.94,0.938c-1.032,0.614-3.665,6.598-4.74,12.141C30.225,19.618,29.807,19.949,29.337,19.949z"/><path d="M27.34,21.093c-0.016-0.007-0.078-0.032-0.166-0.066c-0.301,0.507-0.66,0.936-1.078,1.28c0.175,0.153,0.348,0.237,0.668,0.321c0.771,0.201,1.349,0.84,1.472,1.627c0.122,0.787-0.233,1.572-0.906,1.998c-1.237,0.783-2.499,1.181-3.748,1.181c-0.728,0-1.434-0.13-2.116-0.389c-0.041,1.205-0.283,2.34-0.808,3.28c-0.264,0.473-0.708,0.818-1.231,0.957c-0.169,0.045-0.342,0.067-0.515,0.067c-0.36,0-0.716-0.097-1.03-0.285c-2.079-1.25-3.156-2.582-3.639-3.906c-0.766,0.311-1.589,0.467-2.467,0.467c-1.213,0-2.488-0.304-3.896-0.927c-0.854-0.379-1.333-1.297-1.153-2.214c0.18-0.917,0.97-1.587,1.904-1.614c0.55-0.016,0.58-0.04,1.079-0.852c0.085-0.139,0.177-0.288,0.28-0.445c-0.435-0.294-0.841-0.677-1.191-1.159c-0.39,0.125-0.634,0.213-0.671,0.227C2.886,22.596,0,27.286,0,33.85C0,42.604,7.786,50,17.001,50C25.188,50,34,44.446,34,32.252C34,26.523,31.612,22.552,27.34,21.093z"/><path d="M19.938,21.105c3.09,0.42,5.188,0.839,6.05-2.427c-2.488,0.944-3.456-2.799-7.538,1.435c-0.014,0.009,0.002-2.674,2.26-4.683c-0.689-0.673-2.489-0.391-2.489-0.391s-1.412,2.289-1.564,4.959c-2.556-3.892-5.778-0.546-6.976-3.636c0,4.93,3.897,4.005,5.335,4.628c-4.387,0-2.823,3.777-6.327,3.879c3.117,1.38,5.907,1.117,7.967-2.887c-0.954,2.785-1.638,5.029,2.255,7.368c1.026-1.836,0.53-5.193-0.5-7.864c1.869,3.09,4.453,5.227,7.848,3.077C23.538,23.853,24.745,21.868,19.938,21.105z"/><path d="M45,6H33c-1.103,0-2-0.897-2-2V2c0-1.103,0.897-2,2-2h12c1.103,0,2,0.897,2,2v2C47,5.103,46.103,6,45,6z"/><path d="M45.831,7.911C45.563,7.968,45.285,8,45,8H33c-0.316,0-0.619-0.046-0.914-0.115c-1.701,3.137-3.214,8.138-3.855,11.409C33.17,21.102,36,25.804,36,32.252c0,7.063-2.672,12.121-6.522,15.35c0.716,0.676,1.618,1.155,2.634,1.318c0.012,0.002,0.023,0.002,0.035,0.004C32.395,48.962,32.644,49,32.902,49H33h11.902H45c0.259,0,0.508-0.038,0.756-0.076c0.012-0.002,0.023-0.002,0.035-0.004C48.171,48.538,50,46.486,50,44V21.822C50,19.503,48.082,12.079,45.831,7.911z"/></svg>