<?xml version="1.0" encoding="utf-8"?><!-- Generator: Adobe Illustrator 19.1.1, SVG Export Plug-In . SVG Version: 6.00 Build 0)  --><svg xmlns="http://www.w3.org/2000/svg" xmlns:xlink="http://www.w3.org/1999/xlink" viewBox="0 0 50 50" width="50px" height="50px"><path d="M40.7,11.9c-0.3-0.3-0.5-0.5-0.6-0.7c-0.4-0.5-0.6-1.2-0.9-2c-0.6-1.7-1.5-3.9-4.1-4.2c-1.9,0.3-2.7,3-2.9,4.5c-0.1,1.2-0.9,1.9-1.6,2.6c-0.9,0.9-1.8,1.7-1.5,4.2c0.2,2.2,0,3.4-0.4,4.8c-0.3,1.2-0.6,2.6-0.8,5.2c-0.2,3.1-1.3,4.6-2.4,6.1C23.9,34.8,22,37.3,22,47v1h5v-1c0-4.5,2-5.3,4.1-6.1c0.7-0.3,1.3-0.6,1.9-0.9c1.2-0.8,2.1-2.3,3.1-3.9c0.8-1.3,1.6-2.7,2.5-3.3c3.4-2.7,3.5-5.1,3.6-7c0-1,0.1-1.9,0.6-2.6C46,17.6,42.4,13.8,40.7,11.9z M32.2,31.5c-0.9,1.4-1.8,2.7-2.4,4.2c-0.2,0.4-0.5,0.6-0.9,0.6c-0.1,0-0.3,0-0.4-0.1c-0.5-0.2-0.8-0.8-0.5-1.3c0.7-1.7,1.7-3.1,2.6-4.5c2.2-3.3,4.4-6.7,4.4-14.9c0-0.6,0.4-1,1-1s1,0.4,1,1C36.9,24.3,34.4,28.1,32.2,31.5z"/><path d="M23.8,30.7c-0.7-1.5-1.3-2.7-1.1-5.8c0.1-1.5-0.3-2.4-0.8-3.6c-0.6-1.3-1.2-2.7-1-4.9c0.2-2.5-0.6-3.2-1.6-4c-0.7-0.6-1.5-1.3-1.6-2.6C17.4,6.8,16.8,5.1,15,5c-2.6,0.2-3.5,2.5-4.2,4.2c-0.3,0.8-0.6,1.5-0.9,2c-0.1,0.2-0.4,0.4-0.6,0.7C7.6,13.8,4,17.6,7.3,23c0.5,0.8,0.5,1.6,0.6,2.6c0.1,1.9,0.2,4.4,3.6,7c0.9,0.7,1.7,2,2.5,3.3c1,1.6,1.9,3.1,3.1,3.9c0.2,0.2,0.5,0.3,0.8,0.5c0.7,0.4,1.6,1,2.3,1.6c0.6-6.4,2.3-8.8,3.7-10.8c0-0.1,0.1-0.1,0.1-0.2C24,31,23.9,30.8,23.8,30.7z M20.3,34.9C20.2,35,20.1,35,20,35c-0.4,0-0.8-0.3-0.9-0.7c-0.8-2.1-1.7-3.6-2.6-4.9C14.7,26.5,13,23.8,13,16c0-0.6,0.4-1,1-1s1,0.4,1,1c0,7.3,1.5,9.6,3.2,12.3c0.9,1.4,1.9,3,2.7,5.3C21.1,34.2,20.9,34.7,20.3,34.9z"/><path d="M19.6,9.5c0,0.5,0.3,0.7,1,1.3c1.1,1,2.6,2.3,2.2,5.8c-0.2,1.7,0.3,2.7,0.8,3.9c0.5,1.2,1.2,2.6,1,4.6c-0.2,2.1,0.1,3.1,0.6,4.2c0.3-0.8,0.6-1.7,0.7-2.9c0.2-2.7,0.6-4.2,0.8-5.5c0.3-1.4,0.5-2.3,0.3-4.2c-0.3-3.5,1.1-4.8,2.2-5.9c0.6-0.6,0.9-0.9,0.9-1.3c0.2-1.6,0.7-3.1,1.5-4.3c-0.8-0.6-1.9-1-3.2-1c-0.2,0-0.4-0.2-0.7-0.6C27.3,2.9,26.5,2,25,2c-1.2,0-1.9,0.7-2.5,1.2C22,3.7,21.7,4,21,4c-1.1,0-2,0.3-2.7,0.8C19.3,6.3,19.5,8.3,19.6,9.5z"/></svg>