<?xml version="1.0" encoding="iso-8859-1"?><!-- Generator: Adobe Illustrator 20.1.0, SVG Export Plug-In . SVG Version: 6.00 Build 0)  --><svg xmlns="http://www.w3.org/2000/svg" xmlns:xlink="http://www.w3.org/1999/xlink" viewBox="0 0 50 50" width="50px" height="50px"><path style="fill:none;stroke:#000000;stroke-width:2;stroke-linecap:round;stroke-linejoin:round;stroke-miterlimit:10;" d="M34.223,1.296c-0.29-0.288-0.725-0.375-1.104-0.221L7.726,11.391c-0.324,0.131-0.557,0.419-0.617,0.761L3.015,35.409c-0.057,0.324,0.048,0.656,0.283,0.889"/><circle cx="11" cy="15" r="1"/><circle cx="15" cy="17" r="1"/><circle cx="16" cy="12" r="1"/><circle cx="22" cy="9" r="1"/><circle cx="9" cy="23" r="1"/><path d="M20.539,35.486c0.166-0.254,0.512-1.321,0.764-2.1c0.601-1.855,1.348-4.164,2.463-5.568c0.924-1.163,3.113-2.848,5.879-4.929c0.973-0.732,1.892-1.424,2.381-1.84c1.29-1.096,2.036-2.379,2.9-3.866c1.49-2.564,3.18-5.471,8.001-7.9l0.174-0.075l0.372-0.132L40.013,5.64c-0.507,0.454-0.676,0.953-0.678,0.961l-0.052,0.137c-0.175,0.38-0.275,0.837-0.383,1.319c-0.176,0.796-0.376,1.699-0.976,2.469c-0.562,0.722-1.329,1.136-2.006,1.501c-0.274,0.148-0.55,0.295-0.807,0.466c-0.788,0.524-1.412,1.305-2.073,2.132c-0.629,0.786-1.278,1.598-2.125,2.26c-0.949,0.742-2.026,1.203-3.067,1.648c-1.079,0.461-2.099,0.897-2.871,1.6c-1.253,1.139-1.81,2.66-2.398,4.27c-0.664,1.817-1.351,3.696-3.069,5.162c-0.65,0.554-1.431,0.969-2.187,1.37c-0.613,0.326-1.192,0.634-1.646,0.984c-1.483,1.147-2.128,3.236-2.646,4.915c-0.395,1.277-0.706,2.286-1.348,2.846c-0.406,0.355-0.877,0.571-1.291,0.762c-0.402,0.185-0.783,0.36-0.897,0.572c-0.123,0.228-0.499,1.136-0.848,2.007l2.706,2.689l0.084-0.418c1.182-4.44,3.088-5.384,4.931-6.297C17.663,38.352,19.005,37.687,20.539,35.486z"/><path d="M7.732,40.062c0.433-0.799,1.202-1.153,1.821-1.438c0.32-0.147,0.622-0.286,0.812-0.451c0.217-0.196,0.525-1.198,0.752-1.93c0.569-1.846,1.351-4.374,3.335-5.907c0.588-0.455,1.271-0.817,1.931-1.168c0.691-0.367,1.344-0.714,1.827-1.126c1.318-1.125,1.887-2.68,2.489-4.327c0.646-1.766,1.313-3.592,2.931-5.062c1.022-0.93,2.246-1.453,3.431-1.959c0.966-0.413,1.878-0.803,2.621-1.385c0.663-0.518,1.213-1.206,1.795-1.934c0.729-0.91,1.48-1.851,2.528-2.547c0.307-0.204,0.636-0.383,0.964-0.561c0.553-0.298,1.073-0.579,1.378-0.97c0.323-0.415,0.452-0.998,0.602-1.672c0.121-0.548,0.246-1.114,0.496-1.673c0.091-0.257,0.411-1.022,1.149-1.722l-3.665-3.642c-0.287-0.285-0.645-0.472-1.025-0.548s-2.36,2.768-2.36,2.768L4.31,33.826c0,0-2.317,1.978-2.249,2.249c0.088,0.348,0.269,0.672,0.532,0.932l4.513,4.484C7.353,40.888,7.602,40.305,7.732,40.062z"/><path d="M45.834,11.423l-1.641,0.581c-3.96,2.018-5.278,4.287-6.674,6.687c-0.919,1.581-1.869,3.215-3.551,4.644c-0.557,0.473-1.467,1.158-2.52,1.951c-1.822,1.372-4.575,3.444-5.335,4.399c-0.777,0.979-1.459,3.087-1.958,4.626c-0.475,1.469-0.763,2.327-1.156,2.891c-1.975,2.832-3.819,3.746-5.303,4.481c-1.579,0.782-2.532,1.254-3.343,4.292L13.9,48.242l1.179,1.172C15.457,49.789,15.973,50,16.504,50c0.022,0,0.046,0,0.069-0.001c0.555-0.019,1.082-0.269,1.447-0.686v0L47.5,15.734c0.698-0.795,0.657-2.002-0.093-2.748L45.834,11.423z"/></svg>