<?xml version="1.0" encoding="utf-8"?><!-- Generator: Adobe Illustrator 15.0.0, SVG Export Plug-In . SVG Version: 6.00 Build 0)  --><!DOCTYPE svg PUBLIC "-//W3C//DTD SVG 1.1//EN" "http://www.w3.org/Graphics/SVG/1.1/DTD/svg11.dtd"><svg xmlns="http://www.w3.org/2000/svg" xmlns:xlink="http://www.w3.org/1999/xlink" viewBox="0 0 50 50" width="50px" height="50px"><path d="M25,50C14.832,50,9,45.763,9,38.375c0-5.611,1.999-7.943,3.932-10.197c1.007-1.174,1.958-2.283,2.679-3.889c0.466-1.038,0.833-2.064,1.188-3.057C18.128,17.513,19.384,14,25,14c5.616,0,6.872,3.513,8.201,7.232c0.355,0.993,0.722,2.019,1.188,3.056c0.721,1.606,1.672,2.714,2.679,3.889C39.001,30.432,41,32.763,41,38.375C41,45.763,35.168,50,25,50z"/><g><path d="M31.674,14.349c1.162-0.606,2.144-1.376,2.929-2.317c3.061-3.667,2.394-8.915,2.109-11.155c-0.034-0.269-0.178-0.512-0.398-0.67c-0.22-0.158-0.495-0.222-0.761-0.167c-5.127,1.008-7.98,3.719-9.567,6.566c0.881,1.604,1.585,3.512,1.836,5.709C29.462,12.703,30.708,13.424,31.674,14.349z"/></g><g><path d="M23.886,12.048C24.244,12.02,24.611,12,25,12c0.266,0,0.51,0.02,0.761,0.033c-0.945-6.202-6.012-9.647-6.25-9.805c-0.425-0.281-0.999-0.165-1.282,0.26c-0.283,0.425-0.167,1,0.258,1.283C18.538,3.804,22.94,6.816,23.886,12.048z"/></g></svg>