<?xml version="1.0" encoding="iso-8859-1"?>
<!-- Generator: Adobe Illustrator 22.1.0, SVG Export Plug-In . SVG Version: 6.00 Build 0)  -->
<svg version="1.1" id="Layer_1" xmlns="http://www.w3.org/2000/svg" xmlns:xlink="http://www.w3.org/1999/xlink" x="0px" y="0px"
	 viewBox="0 0 50 50" style="enable-background:new 0 0 50 50;" xml:space="preserve">
<path d="M14.168,24.445c0.073-0.11,0.167-0.204,0.277-0.277l3-2c0.336-0.224,0.773-0.224,1.109,0L21.303,24H25v-5.611
	C25,12.109,19.841,7,13.5,7S2,12.109,2,18.389V20h5.52l3.7-4.625C11.409,15.138,11.696,15,12,15h5c0.552,0,1,0.448,1,1s-0.448,1-1,1
	h-4.52l-3.7,4.625C8.591,21.862,8.304,22,8,22H2v7h5c0.265,0,0.52,0.105,0.707,0.293L12.414,34H17c0.552,0,1,0.448,1,1s-0.448,1-1,1
	h-5c-0.265,0-0.52-0.105-0.707-0.293L6.586,31H2v0.611C2,37.891,7.159,43,13.5,43S25,37.891,25,31.611V26h-4
	c-0.197,0-0.391-0.059-0.555-0.168L18,24.202l-2.279,1.52l-1.889,2.833C13.639,28.844,13.322,29,12.999,29
	c-0.19,0-0.383-0.054-0.554-0.168c-0.459-0.306-0.583-0.927-0.277-1.387L14.168,24.445z"/>
<path d="M40.647,4.353C38.485,2.19,35.611,1,32.554,1c-2.342,0-4.574,0.704-6.463,2.003l4.149,1.026
	c0.359,0.089,0.64,0.369,0.73,0.728l0.738,2.953l1.976-0.659c0.206-0.068,0.427-0.068,0.633,0l3,1
	c0.524,0.175,0.807,0.741,0.632,1.265C37.809,9.735,37.419,10,37,10c-0.104,0-0.211-0.017-0.316-0.052L34,9.054l-2.684,0.895
	c-0.264,0.088-0.553,0.063-0.798-0.072c-0.244-0.134-0.421-0.364-0.489-0.634l-0.854-3.417l-4.962-1.227l-2.895,2.895
	C24.751,9.924,27,13.897,27,18.389v13.223c0,0.497-0.032,0.987-0.086,1.471c1.345-0.565,2.572-1.382,3.625-2.435l6.922-6.922
	l-3.886-1.819C33.225,21.741,33,21.388,33,21v-2.586l-1.707-1.707c-0.391-0.391-0.391-1.023,0-1.414s1.023-0.391,1.414,0l2,2
	C34.895,17.48,35,17.735,35,18v2.364l3.966,1.857l1.682-1.682C42.81,18.377,44,15.503,44,12.446C44,9.389,42.81,6.515,40.647,4.353z
	"/>
<path d="M43.162,28.117L40,32.333V36c0,0.265-0.105,0.52-0.293,0.707l-3,3C36.512,39.902,36.256,40,36,40s-0.512-0.098-0.707-0.293
	c-0.391-0.391-0.391-1.023,0-1.414L38,35.586V32c0-0.216,0.07-0.427,0.2-0.6l3.226-4.301c-1.085-0.514-2.257-0.87-3.495-1.015
	l-5.978,5.978c-1.227,1.227-2.662,2.19-4.264,2.864l-1.263,0.531c-1.557,5.137-6.144,8.981-11.696,9.481
	C16.866,47.466,20.026,49,23.389,49H35v-2.219l-3.243-0.811c-0.223-0.056-0.419-0.187-0.557-0.37l-3-4C28.07,41.427,28,41.216,28,41
	v-3c0-0.552,0.448-1,1-1s1,0.448,1,1v2.667l2.587,3.45l3.656,0.914C36.687,45.141,37,45.541,37,46v2.98
	c6.099-0.209,11-5.271,11-11.48C48,33.623,46.082,30.2,43.162,28.117z"/>
</svg>