<?xml version="1.0" encoding="iso-8859-1"?><!-- Generator: Adobe Illustrator 20.0.0, SVG Export Plug-In . SVG Version: 6.00 Build 0)  --><svg xmlns="http://www.w3.org/2000/svg" xmlns:xlink="http://www.w3.org/1999/xlink" viewBox="0 0 50 50" width="50px" height="50px"><path style="fill:none;stroke:#000000;stroke-width:2;stroke-linecap:round;stroke-linejoin:round;stroke-miterlimit:10;" d="M8.422,28C6.007,28,5.933,31,1,31c0-4.95,0-8.048,0-13c3.8,0,5.695,3,7.54,3"/><circle cx="43" cy="25" r="2"/><path style="fill:none;stroke:#000000;stroke-width:2;stroke-linecap:round;stroke-linejoin:round;stroke-miterlimit:10;" d="M32,8.346L29,4c-8.014,0-17,6-17,6l3,3C15,13,22.27,8.346,32,8.346z"/><path style="fill:none;stroke:#000000;stroke-width:2;stroke-linecap:round;stroke-linejoin:round;stroke-miterlimit:10;" d="M23,40l-6,4l-5-2l4-4.718C16,37.282,19.455,39.519,23,40z"/><path style="fill:none;stroke:#000000;stroke-width:2;stroke-linecap:round;stroke-linejoin:round;stroke-miterlimit:10;" d="M49,25c0-2.269-4.358-5.722-8-7.752c0,0-4,2.665-4,7.744s4,7.76,4,7.76C43.989,31.132,49,27.269,49,25z"/><path style="fill:none;stroke:#000000;stroke-width:2;stroke-linecap:round;stroke-linejoin:round;stroke-miterlimit:10;" d="M32,25c0-6.643,5-10.265,5-10.265C34.822,13.685,32.438,13,30,13c-9.63,0-19.343,6.509-22.737,9.024C6.465,22.616,6,23.553,6,24.547c0,0.942,0.416,1.832,1.144,2.429C10.425,29.668,20.255,37,30,37c2.438,0,4.822-0.685,7-1.735C37,35.265,32,31.643,32,25z"/><path d="M32,25c0-6.643,5-10.265,5-10.265C34.822,13.685,32.438,13,30,13c-9.63,0-19.343,6.509-22.737,9.024C6.465,22.616,6,23.553,6,24.547c0,0.942,0.416,1.832,1.144,2.429C10.425,29.668,20.255,37,30,37c2.438,0,4.822-0.685,7-1.735C37,35.265,32,31.643,32,25z"/></svg>