<?xml version="1.0" encoding="utf-8"?><!-- Generator: Adobe Illustrator 15.0.0, SVG Export Plug-In . SVG Version: 6.00 Build 0)  --><!DOCTYPE svg PUBLIC "-//W3C//DTD SVG 1.1//EN" "http://www.w3.org/Graphics/SVG/1.1/DTD/svg11.dtd"><svg xmlns="http://www.w3.org/2000/svg" xmlns:xlink="http://www.w3.org/1999/xlink" viewBox="0 0 50 50" width="50px" height="50px"><path d="M13.982,37.444c-0.218-0.147-0.367-0.381-0.417-0.646c-2.984,3.109-4.358,5.855-4.451,6.047c-0.241,0.496-0.035,1.093,0.461,1.335c0.141,0.068,0.29,0.101,0.437,0.101c0.37,0,0.727-0.206,0.9-0.561c0.02-0.04,1.125-2.237,3.502-4.876C14.222,38.475,14.027,37.845,13.982,37.444z"/><path d="M46.728,28.147c-0.311-0.33-7.72-8.065-17.836-8.065c-0.697,0-1.4,0.038-2.09,0.113c-4.657,0.505-8.182,2.277-10.478,5.267c-3.713,4.833-2.81,11.044-2.769,11.307c0.043,0.279,0.201,0.522,0.428,0.676c0.048,0.427,0.202,1.046,0.408,1.399c2.249-2.761,5.264-5.834,9.058-7.623c6.419-3.029,13.111-2.842,13.39-2.827c0.552,0.019,0.983,0.48,0.965,1.032c-0.019,0.541-0.462,0.967-0.999,0.967c-0.021,0,0.098-0.003-0.303-0.003c-1.283,0-6.924,0.15-12.2,2.64c-3.557,1.677-6.407,4.437-8.528,7.092c0.317,0.243,0.58,0.406,0.663,0.454c0.179,0.097,4.429,2.354,9.824,2.354c0.678,0,1.354-0.036,2.009-0.108c12.235-1.347,18.365-13.034,18.62-13.53C47.083,28.913,47.019,28.455,46.728,28.147z"/><path d="M10.168,30.209c-0.091,0.026-0.184,0.039-0.277,0.039c-0.177,0-0.354-0.047-0.509-0.14C9.299,30.06,9.229,30,9.147,29.949c0.479,1.929,0.81,3.655,0.541,5.288c-0.09,0.545,0.279,1.06,0.824,1.149c0.055,0.01,0.11,0.014,0.164,0.014c0.481,0,0.905-0.348,0.986-0.837c0.32-1.939-0.035-3.89-0.53-5.916C10.83,29.915,10.414,30.139,10.168,30.209z"/><path d="M17.815,14.306c-0.923-5.59-5.824-10.778-6.033-10.996c-0.381-0.4-1.015-0.414-1.414-0.033C10.068,3.563,3,10.399,3,18.425c0,5.173,2.207,9.214,6.382,11.684c0.156,0.093,0.332,0.14,0.509,0.14c0.093,0,0.187-0.013,0.277-0.039c0.247-0.071,0.669-0.298,0.972-0.568c-0.252-0.878-0.635-1.714-0.935-2.628c-1.42-4.323-3.029-9.224-0.784-14.269c0.225-0.504,0.814-0.732,1.32-0.507c0.504,0.225,0.731,0.815,0.507,1.32c-1.932,4.34-0.514,8.657,0.856,12.831c0.097,0.294,0.191,0.585,0.286,0.876c0.271-0.28,0.607-0.586,0.935-0.836C14.546,25.514,18.882,20.776,17.815,14.306z"/></svg>