<?xml version="1.0" encoding="utf-8"?><!-- Generator: Adobe Illustrator 15.0.0, SVG Export Plug-In . SVG Version: 6.00 Build 0)  --><!DOCTYPE svg PUBLIC "-//W3C//DTD SVG 1.1//EN" "http://www.w3.org/Graphics/SVG/1.1/DTD/svg11.dtd"><svg xmlns="http://www.w3.org/2000/svg" xmlns:xlink="http://www.w3.org/1999/xlink" viewBox="0 0 50 50" width="500px" height="500px"><path fill="none" stroke="#000000" stroke-width="2" stroke-miterlimit="10" d="M5.12,32C3.762,32.909,3,33.926,3,35c0,3.866,9.85,7,22,7c12.15,0,22-3.134,22-7c0-1.074-0.762-2.091-2.12-3"/><g><path d="M15.5,29.893v-1.596C8.222,27.15,4,24.818,4,23c0-0.865,0.911-1.657,1.677-2.169l-1.113-1.662C2.862,20.308,2,21.597,2,23c0,3.707,6.033,6.195,13.538,7.318C15.525,30.176,15.5,30.037,15.5,29.893z"/><path d="M45.438,19.169l-1.113,1.662C45.089,21.343,46,22.135,46,23c0,1.978-4.997,4.566-13.5,5.57v2.006C40.889,29.613,48,27.025,48,23C48,21.597,47.139,20.308,45.438,19.169z"/></g><g><path d="M23.5,35.893v-0.918C11.386,34.717,4,31.407,4,29c0-0.865,0.911-1.657,1.677-2.169l-1.113-1.662C2.862,26.309,2,27.598,2,29c0,4.986,10.912,7.768,21.646,7.984C23.56,36.631,23.5,36.27,23.5,35.893z"/><path d="M45.438,25.169l-1.113,1.662C45.089,27.343,46,28.135,46,29c0,1.979-4.997,4.566-13.5,5.57V36c0,0.198-0.038,0.391-0.064,0.584C40.852,35.627,48,33.035,48,29C48,27.598,47.139,26.309,45.438,25.169z"/></g><path d="M25,9C13.851,9,2,11.804,2,17c0,3.701,6.012,6.187,13.5,7.312v-1.08c-2.473-0.388-4.354-1.145-5.541-2.191C6.13,19.838,4,18.29,4,17c0-2.505,7.989-6,21-6c13.012,0,21,3.495,21,6c0,1.978-4.997,4.567-13.5,5.571v2.005C40.889,23.613,48,21.025,48,17C48,11.804,36.148,9,25,9z"/><path d="M28,13.5c-2.919,0-5.702,0.38-7.656,1.043C19.906,14.517,19.458,14.5,19,14.5c-4.121,0-8.5,1.227-8.5,3.5c0,1.572,2.197,2.843,5.733,3.317c0.722,0.098,1.267,0.734,1.267,1.48v7.095c0,1.273,0.896,2.38,2.083,2.573C21.146,32.722,22.5,31.516,22.5,30v-2.893c0-0.789,0.535-1.472,1.244-1.587C24.69,25.367,25.5,26.089,25.5,27v8.893c0,1.273,0.896,2.38,2.084,2.573C27.725,38.489,27.863,38.5,28,38.5c0.668,0,1.296-0.26,1.768-0.732C30.24,37.296,30.5,36.668,30.5,36V21.764c0-0.756,0.578-1.397,1.346-1.491C33.407,20.082,38.5,19.281,38.5,17C38.5,14.702,33.218,13.5,28,13.5z"/></svg>