<?xml version="1.0" encoding="utf-8"?><!-- Generator: Adobe Illustrator 19.2.0, SVG Export Plug-In . SVG Version: 6.00 Build 0)  --><svg xmlns="http://www.w3.org/2000/svg" xmlns:xlink="http://www.w3.org/1999/xlink" viewBox="0 0 50 50" width="50px" height="50px"><g><path d="M34.5,17c6.3,0,11.5,3.6,11.5,8c0,5.2-7.4,7.3-11.8,8c-0.8,0.1-7.7,1-11.7,1c-4.4,0-11.6-1-11.7-1C7.9,32.5,3,31.2,3,28c0-2.7,3.4-5,7.5-5c0.5,0,1,0.1,1.7,0.3c1.1,0.3,2.5,0.7,4.3,0.7c4.1,0,7.9-2.8,9.1-4C27.8,18.1,31,17,34.5,17 M34.5,15c-4.1,0-7.8,1.4-10.3,3.5c-0.4,0.5-4,3.5-7.7,3.5c-2.8,0-4.3-1-6-1C5.3,21,1,24.1,1,28s4,6.1,9.5,7c0.1,0,7.5,1,12,1s11.9-1,12-1C42.2,33.7,48,30.5,48,25S42,15,34.5,15L34.5,15z"/></g><g><path d="M22.5,42c-4.4,0-11.8-1-11.8-1C7.4,40.5,2,39,2,35v-6h0.1c0.8,3,5,4.4,8.5,5c0.1,0,7.4,1,11.8,1c4.1,0,11-0.9,11.8-1c4.5-0.8,11.8-2.8,12.6-8h0.1v6c0,5.9-7.9,8.2-12.7,9C34.3,41,26.9,42,22.5,42z"/><path d="M46,30v2c0,5.2-7.4,7.3-11.8,8c-0.8,0.1-7.7,1-11.7,1c-4.4,0-11.6-1-11.7-1C7.9,39.5,3,38.2,3,35v-2.9c1.4,1.2,3.7,2.3,7.5,2.9c0,0,0,0,0.1,0c0.3,0,7.5,1,11.9,1c4.1,0,11.1-0.9,12-1c0,0,0,0,0.1,0C39.9,34.1,43.8,32.3,46,30 M46,24.9C46,25,46,25,46,24.9c0,5.3-7.4,7.3-11.8,8.1c-0.8,0.1-7.7,1-11.7,1c-4.4,0-11.6-1-11.7-1c-2.9-0.5-7.7-1.8-7.8-4.9C2.1,28,1.3,28,1,28c0,5.3,0,3.1,0,7s4,6.1,9.5,7c0.1,0,7.5,1,12,1s11.9-1,12-1C42.2,40.7,48,37.5,48,32s0-3.8,0-7C47.5,25,46.8,25,46,24.9L46,24.9z"/></g><g><path d="M26.7,25.8l-0.2-0.2c-0.6-0.7-1.2-1.5-1.5-2.5c-1.7,1.1-3.9,2.3-6.3,2.7c0.4,0.1,0.8,0.2,1.3,0.2c0.3,0,0.6,0,1,0.1c0.7,0,3.5,0.5,6.6,1.2C27.4,26.7,27,26.2,26.7,25.8z"/><path d="M26.8,22.1c0.1,0.6,0.4,1.1,0.9,1.7c0.4-0.3,0.8-0.5,1.3-0.8s1.1-0.6,1.3-0.9c0.2-0.3,0.1-0.8,0-1.4c0-0.3-0.1-0.7-0.1-1.1c-1.2,0.4-2.3,1-3.2,1.7l-0.1,0.1C26.8,21.7,26.8,21.8,26.8,22.1z"/><path d="M17.5,30.1c0.6-0.7,1.2-1.4,1.7-2.1c-1.4-0.2-2.7-0.9-3.7-2c-1.6-0.1-2.8-0.4-3.8-0.7c-0.4-0.1-1-0.3-1.2-0.3C7.1,25,5,26.8,5,28s2.5,2.4,6.1,3c0.6,0.1,2.5,0.3,4.6,0.5C16.4,31.3,17,30.7,17.5,30.1z"/><path d="M34.5,19c-0.8,0-1.6,0.1-2.3,0.2c0,0.1,0,0.2,0,0.3c0,0.3,0,0.6,0.1,1c0.1,0.8,0.2,1.8-0.3,2.7c-0.4,0.8-1.3,1.2-2.1,1.6c-0.4,0.2-0.8,0.4-1,0.6c0.4,0.7,0.8,1.4,0.8,2.3c3.8,0.8,7.7,1.7,8.7,2.1c0.1,0,0.1,0.1,0.1,0.1c2.7-1,5.5-2.5,5.5-4.9C44,21.8,39.6,19,34.5,19z"/><path d="M22.7,29.3c-0.1-0.1-0.2-0.3-0.4-0.4c-0.1-0.1-0.2-0.2-0.3-0.3c-0.1-0.1-0.4-0.2-0.6-0.3v0.1c-0.8,1-1.6,2.1-2.4,3.1c-0.1,0.2-0.3,0.3-0.4,0.5c1.4,0.1,2.7,0.2,3.9,0.2c0.5,0,1.2,0,1.8,0C23.3,30.2,22.8,29.4,22.7,29.3z"/><path d="M24.7,28.7c0.3,0.5,0.9,1.5,1.8,3.1c3.2-0.2,6.6-0.7,7.4-0.8c0.3,0,0.6-0.1,1-0.2C32,30.2,27.8,29.3,24.7,28.7z"/></g></svg>