<?xml version="1.0" encoding="iso-8859-1"?>
<!-- Generator: Adobe Illustrator 22.1.0, SVG Export Plug-In . SVG Version: 6.00 Build 0)  -->
<svg version="1.1" id="Layer_1" xmlns="http://www.w3.org/2000/svg" xmlns:xlink="http://www.w3.org/1999/xlink" x="0px" y="0px"
	 viewBox="0 0 50 50" style="enable-background:new 0 0 50 50;" xml:space="preserve">
<path d="M12.53,43l-0.37,1.48c-0.22,0.9-1.02,1.52-1.94,1.52H6.78c-0.92,0-1.72-0.62-1.94-1.52l-0.38-1.51C4.64,42.99,4.82,43,5,43
	H12.53z"/>
<path d="M23.53,43l-0.37,1.48c-0.22,0.9-1.02,1.52-1.94,1.52h-3.44c-0.92,0-1.72-0.62-1.94-1.52L15.47,43H23.53z"/>
<path d="M34.53,43l-0.37,1.48c-0.22,0.9-1.02,1.52-1.94,1.52h-3.44c-0.92,0-1.72-0.62-1.94-1.52L26.47,43H34.53z"/>
<path d="M45.54,42.97l-0.38,1.51c-0.22,0.9-1.02,1.52-1.94,1.52h-3.44c-0.92,0-1.72-0.62-1.94-1.52L37.47,43H45
	C45.18,43,45.36,42.99,45.54,42.97z"/>
<path d="M45.142,8.014C45.677,9.107,46,10.352,46,11.5c0,1.307-0.585,3.5-4.5,3.5S37,12.807,37,11.5c0-1.153,0.326-2.404,0.865-3.5
	h-3.73C34.674,9.096,35,10.347,35,11.5c0,1.307-0.585,3.5-4.5,3.5S26,12.807,26,11.5c0-1.153,0.326-2.404,0.865-3.5h-3.73
	C23.674,9.096,24,10.347,24,11.5c0,1.307-0.585,3.5-4.5,3.5S15,12.807,15,11.5c0-1.153,0.326-2.404,0.865-3.5h-3.73
	C12.674,9.096,13,10.347,13,11.5c0,1.307-0.585,3.5-4.5,3.5S4,12.807,4,11.5c0-1.148,0.323-2.393,0.858-3.486
	C2.168,8.092,0,10.292,0,13v23c0,2.757,2.243,5,5,5h40c2.757,0,5-2.243,5-5V13C50,10.292,47.832,8.092,45.142,8.014z M8.5,36
	C6.567,36,5,35.433,5,33.5C5,31,6.75,28,8.5,28s3.5,3,3.5,5.5C12,35.433,10.433,36,8.5,36z M8.5,25C6.567,25,5,24.433,5,22.5
	C5,20,6.75,17,8.5,17s3.5,3,3.5,5.5C12,24.433,10.433,25,8.5,25z M19.5,36c-1.933,0-3.5-0.567-3.5-2.5c0-2.5,1.75-5.5,3.5-5.5
	s3.5,3,3.5,5.5C23,35.433,21.433,36,19.5,36z M19.5,25c-1.933,0-3.5-0.567-3.5-2.5c0-2.5,1.75-5.5,3.5-5.5s3.5,3,3.5,5.5
	C23,24.433,21.433,25,19.5,25z M30.5,36c-1.933,0-3.5-0.567-3.5-2.5c0-2.5,1.75-5.5,3.5-5.5s3.5,3,3.5,5.5
	C34,35.433,32.433,36,30.5,36z M30.5,25c-1.933,0-3.5-0.567-3.5-2.5c0-2.5,1.75-5.5,3.5-5.5s3.5,3,3.5,5.5
	C34,24.433,32.433,25,30.5,25z M41.5,36c-1.933,0-3.5-0.567-3.5-2.5c0-2.5,1.75-5.5,3.5-5.5s3.5,3,3.5,5.5
	C45,35.433,43.433,36,41.5,36z M41.5,25c-1.933,0-3.5-0.567-3.5-2.5c0-2.5,1.75-5.5,3.5-5.5s3.5,3,3.5,5.5
	C45,24.433,43.433,25,41.5,25z"/>
<path style="fill:none;stroke:#000000;stroke-width:2;stroke-miterlimit:10;" d="M8.5,5C6.076,5,4,8.574,4,11.5
	C4,12.807,4.585,15,8.5,15s4.5-2.193,4.5-3.5C13,8.574,10.924,5,8.5,5L8.5,5z"/>
<path style="fill:none;stroke:#000000;stroke-width:2;stroke-miterlimit:10;" d="M19.5,5C17.076,5,15,8.574,15,11.5
	c0,1.307,0.585,3.5,4.5,3.5s4.5-2.193,4.5-3.5C24,8.574,21.924,5,19.5,5L19.5,5z"/>
<path style="fill:none;stroke:#000000;stroke-width:2;stroke-miterlimit:10;" d="M30.5,5C28.076,5,26,8.574,26,11.5
	c0,1.307,0.585,3.5,4.5,3.5s4.5-2.193,4.5-3.5C35,8.574,32.924,5,30.5,5L30.5,5z"/>
<path style="fill:none;stroke:#000000;stroke-width:2;stroke-miterlimit:10;" d="M41.5,5C39.076,5,37,8.574,37,11.5
	c0,1.307,0.585,3.5,4.5,3.5s4.5-2.193,4.5-3.5C46,8.574,43.924,5,41.5,5L41.5,5z"/>
</svg>