<?xml version="1.0" encoding="iso-8859-1"?>
<!-- Generator: Adobe Illustrator 22.1.0, SVG Export Plug-In . SVG Version: 6.00 Build 0)  -->
<svg version="1.1" id="Layer_1" xmlns="http://www.w3.org/2000/svg" xmlns:xlink="http://www.w3.org/1999/xlink" x="0px" y="0px"
	 viewBox="0 0 50 50" style="enable-background:new 0 0 50 50;" xml:space="preserve">
<path d="M37.447,11.167c0.46-0.307,1.078-0.179,1.384,0.277c0.034,0.05,1.749,2.514,5.186,3.283l0.141,0.031
	c0.206,0.047,0.417,0.096,0.635,0.128c0.301,0.045,0.631,0.086,0.998,0.114c0.648-3.177-0.254-6.607-2.719-9.072
	C41.118,3.976,38.559,3,36,3s-5.118,0.976-7.071,2.929c-1.945,1.945-2.92,4.493-2.928,7.043l-0.165,0.042
	C25.768,13.025,19,14.242,19,22c-0.022-0.015-0.768-0.388-1.51-1.192c-0.164,0.161-0.292,0.253-0.363,0.304
	C15.925,21.976,14.193,22,14,22c-0.553,0-1-0.447-1-1c0-0.552,0.447-0.999,0.999-1c0.352-0.002,1.383-0.098,1.953-0.507
	c0.151-0.107,0.294-0.277,0.424-0.464C16.15,18.446,16,17.776,16,17c0-0.257,0.025-0.514,0.067-0.767
	c-0.009-0.002-0.022-0.004-0.031-0.006c-0.361-0.078-0.677-0.201-0.912-0.299c-1.19-0.495-1.816-1.198-1.884-1.277
	c-0.359-0.419-0.311-1.051,0.109-1.41c0.416-0.356,1.041-0.313,1.402,0.101c0.02,0.021,0.407,0.436,1.141,0.74
	c0.168,0.07,0.365,0.147,0.57,0.191c0.06,0.013,0.15,0.029,0.252,0.046c0.435-0.883,0.953-1.589,1.219-1.91
	c1.599-1.887,1.375-4.713-0.505-6.325c-1.886-1.617-4.727-1.399-6.346,0.488C10.665,7.059,7,11.494,7,17
	c0,5.149,2.489,9.071,4.789,11.604l-1.058,1.058c0.111,0.919,0.321,1.705,0.412,1.978c0.272,0.813,0.957,2.359,2.482,3.579
	c0.431,0.346,0.501,0.975,0.156,1.406C13.583,36.872,13.293,37,12.999,37c-0.219,0-0.439-0.071-0.624-0.219
	c-1.926-1.541-2.787-3.485-3.129-4.508c-0.065-0.194-0.153-0.503-0.241-0.886l-2.358,2.358c0.115,0.849,0.308,1.557,0.393,1.812
	c0.122,0.363,0.818,2.248,2.585,3.661c0.431,0.346,0.501,0.975,0.156,1.406C9.583,40.872,9.293,41,8.999,41
	c-0.219,0-0.439-0.071-0.624-0.219c-2.149-1.72-3.017-3.947-3.231-4.589c-0.037-0.11-0.082-0.265-0.13-0.443
	c-1.661,2.869-1.272,6.599,1.183,9.055C7.661,46.268,9.581,47,11.5,47s3.839-0.732,5.304-2.196l3.736-3.736
	C22.585,43.182,26.588,45,32,45c9.18,0,13-5.836,13-9c0-3.314-2.686-6-6-6c-1.096,0-2.116,0.306-3,0.819v0.056
	c0,0.033,0.049,3.623,2.555,5.293c0.46,0.307,0.584,0.927,0.277,1.387C38.64,37.844,38.322,38,37.999,38
	c-0.19,0-0.383-0.055-0.554-0.168c-2.331-1.554-3.084-4.148-3.328-5.693C32.804,33.092,31.344,34,29.399,34C27.25,34,27,33,27,33
	c2.482-0.853,4.577-2.744,5.812-5.085c-0.219-0.035-0.397-0.07-0.491-0.091c-3.251-0.702-5.053-3.132-5.128-3.235
	c-0.326-0.446-0.228-1.071,0.219-1.396s1.07-0.228,1.395,0.216c0.032,0.043,1.467,1.927,3.901,2.453
	c0.153,0.034,0.455,0.095,0.881,0.134C33.851,25.108,34,24.186,34,23.25V23c0,0,1.33,0,2,0c1.612,0.001,3.223-0.388,4.683-1.163
	c-5.121-0.751-7.421-4.14-7.518-4.286c-0.304-0.461-0.177-1.081,0.284-1.386c0.46-0.302,1.078-0.179,1.383,0.281
	c0.09,0.131,2.007,2.891,6.319,3.443c0.002,0,0.971,0.102,1.976,0.119c0.894-0.909,1.571-1.95,2.047-3.057
	c-0.238-0.026-0.466-0.056-0.678-0.087c-0.27-0.041-0.529-0.099-0.781-0.155l-0.136-0.031c-4.268-0.954-6.328-3.997-6.413-4.126
	C36.861,12.093,36.987,11.472,37.447,11.167z"/>
</svg>