<?xml version="1.0" encoding="iso-8859-1"?>
<!-- Generator: Adobe Illustrator 23.0.3, SVG Export Plug-In . SVG Version: 6.00 Build 0)  -->
<svg version="1.1" id="Layer_1" xmlns="http://www.w3.org/2000/svg" xmlns:xlink="http://www.w3.org/1999/xlink" x="0px" y="0px"
	 viewBox="0 0 50 50" style="enable-background:new 0 0 50 50;" xml:space="preserve">
<g>
	<path d="M16,35.999c0,1.654,1.346,3,3,3h12c1.654,0,3-1.346,3-3v-1H16V35.999z"/>
	<path d="M3,21.999l0.035,0.263c1.379,5.056,5.136,8.986,9.855,10.737h24.22c4.719-1.751,8.476-5.681,9.855-10.737l0.004-0.263H3z"
		/>
	<path d="M33.817,19.999C33.93,19.391,34,18.753,34,18.077c0-2.808-2.228-5.076-5.014-5.076c-0.701,0-1.557,0.125-2.335,0.362
		c0.23-0.611,0.577-1.176,1.052-1.652l-1.416-1.412c-0.972,0.974-1.6,2.197-1.835,3.524c-0.956-0.54-2.376-0.821-3.438-0.821
		c-2.786,0-5.014,2.268-5.014,5.076c0,0.657,0.084,1.3,0.229,1.922H33.817z"/>
	<path d="M35.841,19.999h10.109c-0.052-1.969-1.361-3.732-3.355-4.226c-1.071-0.266-2.647-0.307-3.585,0.135
		c0.026-1.093,0.492-2.136,1.304-2.873l-1.344-1.481c-0.903,0.819-1.523,1.892-1.801,3.06c-0.489-0.243-1.001-0.434-1.452-0.546
		c-0.351-0.087-0.701-0.117-1.047-0.119c0.833,1.164,1.33,2.588,1.33,4.129C36,18.746,35.936,19.382,35.841,19.999z"/>
	<path d="M14,18.077c0-1.542,0.497-2.966,1.33-4.129c-0.346,0.002-0.695,0.032-1.047,0.119c-0.659,0.163-1.447,0.493-2.104,0.914
		c-0.614-1.621-1.959-2.872-3.661-3.348l-0.539,1.926c1.081,0.303,1.935,1.096,2.327,2.123c-0.911-0.19-2.062-0.117-2.901,0.091
		c-1.994,0.495-3.303,2.257-3.355,4.226h10.15C14.078,19.367,14,18.725,14,18.077z"/>
</g>
</svg>