<?xml version="1.0" encoding="iso-8859-1"?><!-- Generator: Adobe Illustrator 20.0.0, SVG Export Plug-In . SVG Version: 6.00 Build 0)  --><svg xmlns="http://www.w3.org/2000/svg" xmlns:xlink="http://www.w3.org/1999/xlink" viewBox="0 0 50 50" width="50px" height="50px"><path d="M45.964,26.734c-0.083-0.301-0.303-0.546-0.593-0.663L45.193,26H14c-0.553,0-1-0.448-1-1s0.447-1,1-1h31.193l0.178-0.071c0.29-0.116,0.51-0.361,0.593-0.663c1.271-4.603,3.908-10.039,3.935-10.093c0.218-0.447,0.075-0.985-0.336-1.265C49.389,11.79,45.197,9,37,9C27.283,9,5.36,18.484,1.669,21.221C0.624,21.994,0,23.238,0,24.547c0,1.248,0.551,2.415,1.51,3.202C5.126,30.717,27.027,41,37,41c7.339,0,12.285-2.747,12.492-2.864c0.46-0.26,0.639-0.833,0.406-1.309C49.872,36.772,47.235,31.341,45.964,26.734z M39.19,14.414c0.323-0.448,0.947-0.548,1.396-0.224c0.446,0.323,0.547,0.946,0.226,1.394c-0.024,0.034-1.408,2.025-1.819,5.533C38.934,21.625,38.502,22,38.001,22c-0.038,0-0.078-0.002-0.117-0.007c-0.549-0.064-0.941-0.561-0.877-1.109C37.483,16.809,39.12,14.509,39.19,14.414z M32.946,15.479c0.287-0.472,0.9-0.618,1.373-0.333c0.472,0.287,0.621,0.902,0.335,1.374c-0.013,0.021-1.278,2.128-1.666,4.634C32.912,21.647,32.486,22,32.001,22c-0.051,0-0.103-0.004-0.154-0.012c-0.546-0.084-0.92-0.596-0.835-1.142C31.463,17.935,32.886,15.578,32.946,15.479z M26.835,16.356c0.354-0.421,0.984-0.477,1.409-0.121c0.421,0.355,0.476,0.983,0.123,1.406c-0.012,0.014-1.162,1.426-1.372,3.462C26.941,21.617,26.508,22,26.001,22c-0.034,0-0.068-0.001-0.104-0.005c-0.55-0.057-0.949-0.548-0.893-1.097C25.281,18.229,26.771,16.431,26.835,16.356z M20.197,17.687c0.33-0.443,0.957-0.536,1.399-0.206c0.441,0.328,0.534,0.951,0.21,1.394c-0.007,0.009-0.631,0.885-0.815,2.258C20.924,21.635,20.494,22,20.001,22c-0.044,0-0.089-0.003-0.135-0.009c-0.547-0.074-0.931-0.577-0.857-1.125C19.266,18.957,20.16,17.738,20.197,17.687z M21.589,32.52c-0.179,0.131-0.387,0.194-0.592,0.194c-0.305,0-0.604-0.138-0.8-0.401c-0.037-0.051-0.932-1.27-1.188-3.18c-0.073-0.547,0.311-1.051,0.857-1.125c0.556-0.07,1.051,0.311,1.125,0.858c0.185,1.373,0.809,2.25,0.815,2.258C22.128,31.57,22.032,32.195,21.589,32.52z M28.244,33.765C28.056,33.923,27.827,34,27.601,34c-0.285,0-0.568-0.121-0.766-0.356c-0.063-0.075-1.554-1.873-1.83-4.542c-0.057-0.549,0.343-1.041,0.893-1.097c0.557-0.065,1.04,0.342,1.098,0.892c0.209,2.031,1.358,3.445,1.369,3.458C28.721,32.778,28.666,33.409,28.244,33.765z M34.32,34.854C34.158,34.953,33.979,35,33.801,35c-0.337,0-0.666-0.17-0.854-0.479c-0.061-0.099-1.483-2.456-1.935-5.368c-0.085-0.546,0.289-1.057,0.835-1.142c0.544-0.08,1.058,0.29,1.142,0.835c0.391,2.522,1.652,4.612,1.665,4.632C34.941,33.951,34.792,34.566,34.32,34.854z M40.582,35.811c-0.177,0.127-0.382,0.188-0.584,0.188c-0.309,0-0.613-0.143-0.808-0.413c-0.07-0.096-1.707-2.396-2.184-6.47c-0.064-0.548,0.328-1.045,0.877-1.109c0.56-0.066,1.045,0.329,1.109,0.877c0.412,3.521,1.806,5.513,1.819,5.533C41.132,34.866,41.029,35.49,40.582,35.811z"/></svg>