<?xml version="1.0" encoding="iso-8859-1"?>
<!-- Generator: Adobe Illustrator 22.1.0, SVG Export Plug-In . SVG Version: 6.00 Build 0)  -->
<svg version="1.1" id="Layer_1" xmlns="http://www.w3.org/2000/svg" xmlns:xlink="http://www.w3.org/1999/xlink" x="0px" y="0px"
	 viewBox="0 0 50 50" style="enable-background:new 0 0 50 50;" xml:space="preserve">
<path style="fill:none;stroke:#000000;stroke-width:2;stroke-linecap:round;stroke-linejoin:round;stroke-miterlimit:10;" d="
	M7.014,15.404c0,0-3.014-2.127-3.014-6.579C4,6.412,5.356,5.99,5.954,5.99C7.007,5.99,8,6.519,8,8c0,0.843-1.021,2-3,2
	c-1.224,0-2.677-0.636-4.001-1.96"/>
<path d="M26.924,40c0.726,1.896,1.534,3.352,1.933,4.024C29.22,44.635,29.862,45,30.576,45H31.5c0.827,0,1.5-0.673,1.5-1.5V40
	H26.924z"/>
<path d="M33,25h-7v12.96C27.13,38,27.89,38,28,38h5V25z"/>
<path d="M36.293,11.293l0.319-0.319C33.784,9.192,30.175,7.692,26,7.19V23h7.021C33.24,14.47,36.163,11.422,36.293,11.293z"/>
<path d="M49,26c-1.72,0-2.12-0.73-2.8-1.95c-0.55-0.98-1.23-2.21-2.77-2.95c-0.29-0.15-3.421-0.1-3.429-0.1L40,21.037
	C39.979,21.576,39.536,22,39,22c-0.012,0-0.025,0-0.037,0c-0.552-0.021-0.983-0.484-0.963-1.036l0.006-0.173
	c0.041-0.641,0.401-3.341,3.507-5.675c-0.815-0.964-1.899-1.997-3.223-2.993c0,0-0.271,0.194-0.578,0.578
	c-0.017,0.021-0.162,0.179-0.373,0.505C36.595,14.352,35,17.558,35,24v13.971c6.722-0.295,12.988-3.468,13.95-5.641
	C49.21,31.76,50,30.04,50,27C50,26.45,49.55,26,49,26z"/>
<path d="M13,38.158l-0.936-0.307c-0.192-0.064-4.108-1.375-7.805-3.677c1.162,3.793,2.854,6.718,3.871,8.476
	c0.3,0.52,0.54,0.93,0.68,1.22c0.34,0.7,1.02,1.13,1.8,1.13h0.89c0.82,0,1.49-0.67,1.5-1.48C13,43.52,13,38.158,13,38.158z"/>
<path d="M12,9.64C6.892,12.417,3,17.574,3,26c0,1.863,0.201,3.617,0.525,5.254l0.137,0.102c3.052,2.275,6.813,3.789,8.338,4.35V9.64
	z"/>
<path d="M23,7c-2.978,0-6.115,0.522-9,1.696V23h10V7.04C23.67,7.02,23.34,7,23,7z"/>
<path d="M14,36.381l0.299,0.098c3.001,0.841,6.844,1.226,9.701,1.39V25H14V36.381z"/>
<path d="M48,12.465c0,0.535-1.002,2.037-2.96,2.907c-4.681,2.08-5.013,5.174-5.035,5.52L40,21.037C39.98,21.554,40,23,40,23h2.995
	c0.002,0,0.004,0,0.005,0c0.104,0,0.211-0.017,0.316-0.052C43.589,22.857,50,20.666,50,15.833c0-1.942-1.05-3.573-1.101-3.634
	C48.808,12.08,48.662,12,48.5,12c-0.263,0-0.48,0.205-0.5,0.463V12.465z"/>
</svg>