<?xml version="1.0" encoding="iso-8859-1"?>
<!-- Generator: Adobe Illustrator 23.0.6, SVG Export Plug-In . SVG Version: 6.00 Build 0)  -->
<svg version="1.1" id="&#x421;&#x43B;&#x43E;&#x439;_1"
	 xmlns="http://www.w3.org/2000/svg" xmlns:xlink="http://www.w3.org/1999/xlink" x="0px" y="0px" viewBox="0 0 50 50"
	 style="enable-background:new 0 0 50 50;" xml:space="preserve">
<path style="fill:none;stroke:#000000;stroke-width:2;stroke-linecap:round;stroke-linejoin:round;stroke-miterlimit:10;" d="M8,21
	c0,0,2.522-18,16.992-18S42,21,42,21"/>
<path d="M44.96,24.41c0-0.12-0.01-0.21-0.01-0.27v-0.99c0-1.73-1.4-3.15-3.13-3.15H8.13C6.4,20,5,21.42,5,23.15v2.37
	c0,0.47,0.01,0.94,0.05,1.4c0.07,1.19,0.24,2.33,0.5,3.43v0.01c0.23,0.92,0.52,1.79,0.87,2.65c0.52,1.23,1.17,2.4,1.97,3.49
	c0.56,0.79,1.2,1.55,1.91,2.26c0.14,0.15,0.29,0.3,0.44,0.44c0.75,0.72,1.54,1.33,2.34,1.84c0.87,0.56,1.74,1.01,2.6,1.37
	c1.96,0.82,3.81,1.18,5.16,1.33c0.92,1.37,2.45,2.22,4.12,2.26h0.1c1.68,0,3.28-0.86,4.22-2.25c1.33-0.13,3.15-0.46,5.1-1.27
	c0.84-0.34,1.71-0.77,2.58-1.31c0.97-0.6,1.94-1.34,2.87-2.25c0.02-0.02,0.04-0.04,0.06-0.06c0.61-0.6,1.25-1.33,1.86-2.19
	c0.72-1.02,1.4-2.24,1.95-3.66c0.31-0.8,0.58-1.67,0.79-2.61c0.24-1.07,0.4-2.23,0.47-3.48C45,26.12,45,25.29,44.96,24.41z M12.5,25
	c0.83,0,1.5,0.67,1.5,1.5c0,0.83-0.67,1.5-1.5,1.5S11,27.33,11,26.5C11,25.67,11.67,25,12.5,25z M12.5,34c-0.83,0-1.5-0.67-1.5-1.5
	c0-0.83,0.67-1.5,1.5-1.5s1.5,0.67,1.5,1.5C14,33.33,13.33,34,12.5,34z M17.5,37c-0.83,0-1.5-0.67-1.5-1.5c0-0.83,0.67-1.5,1.5-1.5
	s1.5,0.67,1.5,1.5C19,36.33,18.33,37,17.5,37z M17.5,31c-0.83,0-1.5-0.67-1.5-1.5c0-0.83,0.67-1.5,1.5-1.5s1.5,0.67,1.5,1.5
	C19,30.33,18.33,31,17.5,31z M22.5,40c-0.83,0-1.5-0.67-1.5-1.5c0-0.83,0.67-1.5,1.5-1.5s1.5,0.67,1.5,1.5
	C24,39.33,23.33,40,22.5,40z M22.5,34c-0.83,0-1.5-0.67-1.5-1.5c0-0.83,0.67-1.5,1.5-1.5s1.5,0.67,1.5,1.5
	C24,33.33,23.33,34,22.5,34z M22.5,28c-0.83,0-1.5-0.67-1.5-1.5c0-0.83,0.67-1.5,1.5-1.5s1.5,0.67,1.5,1.5
	C24,27.33,23.33,28,22.5,28z"/>
<circle cx="5.5" cy="25.5" r="1.5"/>
<path d="M7,32c-0.056,0.324-0.154,0.881-0.5,1c-0.503,0.173-1.501-0.589-1.5-1.5c0.001-0.896,0.968-1.667,1.5-1.5
	C7.043,30.17,7.12,31.313,7,32z"/>
<circle cx="9.5" cy="37.5" r="1.5"/>
<circle cx="14.5" cy="41.5" r="1.5"/>
<circle cx="44.5" cy="25.5" r="1.5"/>
<path d="M43,31c-0.12,0.687-0.043,1.83,0.5,2c0.532,0.167,1.499-0.604,1.5-1.5c0.001-0.911-0.997-1.673-1.5-1.5
	C43.154,30.119,43.056,30.676,43,31z"/>
<circle cx="40.5" cy="37.5" r="1.5"/>
<circle cx="35.5" cy="41.5" r="1.5"/>
<path style="fill:none;stroke:#000000;stroke-width:2;stroke-linejoin:round;stroke-miterlimit:10;" d="M25,45c0,1.667,0,3.333,0,5"
	/>
</svg>