<?xml version="1.0" encoding="utf-8"?><!-- Generator: Adobe Illustrator 15.0.0, SVG Export Plug-In . SVG Version: 6.00 Build 0)  --><!DOCTYPE svg PUBLIC "-//W3C//DTD SVG 1.1//EN" "http://www.w3.org/Graphics/SVG/1.1/DTD/svg11.dtd"><svg xmlns="http://www.w3.org/2000/svg" xmlns:xlink="http://www.w3.org/1999/xlink" viewBox="0 0 50 50" width="50px" height="50px"><path d="M28,9.048h-6V0l6,4.5V9.048z"/><path d="M22,20v4.617c0.42-0.042,0.837-0.078,1.231-0.078c1.578,0,3.193,0.464,4.769,0.958V20H22z"/><path d="M38.068,18.604c-0.78-1.449-1.991-2.321-3.6-2.591C34.415,16.004,34.359,16,34.305,16H15.696c-0.056,0-0.111,0.004-0.166,0.014c-1.607,0.27-2.818,1.142-3.599,2.591c-4.057,7.536,5.735,29.853,6.154,30.799C18.246,49.768,18.604,50,19,50h12c0.396,0,0.754-0.232,0.914-0.596C32.333,48.458,42.126,26.139,38.068,18.604z M36.587,28.404c-2.038,0.629-4.067,0.398-5.993-0.07c-0.001,0.002-0.001,0.004-0.001,0.006c-0.075-0.02-0.146-0.041-0.221-0.061c-0.329-0.084-0.654-0.172-0.978-0.266c-0.096-0.027-0.19-0.055-0.287-0.082c-0.375-0.113-0.744-0.229-1.107-0.343l0,0c-0.031-0.01-0.063-0.021-0.096-0.028c-1.663-0.525-3.235-1.021-4.673-1.021c-0.617,0-1.294,0.076-1.989,0.193c-0.146,0.022-0.293,0.052-0.44,0.08c-0.218,0.041-0.436,0.086-0.655,0.136c-0.162,0.036-0.324,0.073-0.486,0.114c-0.234,0.058-0.468,0.117-0.7,0.181c-2.687,0.731-5.141,1.788-5.412,1.905c-0.778-4.02-0.94-7.583,0.144-9.597c0.473-0.878,1.139-1.374,2.091-1.553H20l0,0h10l0,0h4.217c0.952,0.179,1.618,0.674,2.092,1.553C37.324,21.44,37.242,24.693,36.587,28.404z"/><path d="M34.374,17.634c-0.294,0-0.585-0.129-0.782-0.376c-0.345-0.432-17.032-0.431-17.43-0.047c-0.398,0.382-1.03,0.372-1.414-0.025C14.266,16.684,14,16.027,14,15.334v-1.667C14,12.196,15.196,11,16.667,11h16.666C34.805,11,36,12.196,36,13.666v1.667c0,0.814-0.365,1.574-1.003,2.083C34.813,17.563,34.593,17.634,34.374,17.634z"/></svg>