<svg xmlns="http://www.w3.org/2000/svg"  viewBox="0 0 50 50" width="50px" height="50px"><path d="M 24.978516 8.0078125 C 24.336609 8.0200879 23.672062 8.1123594 22.992188 8.2871094 L 22.992188 8.2832031 C 22.982187 8.2872031 22.970938 8.2919219 22.960938 8.2949219 C 22.654937 8.3749219 22.044922 8.6015625 22.044922 8.6015625 C 17.170922 10.139563 5.3882813 12.663266 5.2382812 12.697266 C 4.0232813 13.013266 3.1515781 14.029203 3.0175781 15.283203 C 2.9935781 15.509203 2.986 15.973 3 16 L 3 23 L 20.689453 31.498047 C 20.670453 31.620047 25.154 29 29.5 29 C 29.827 29 30.153516 29.007484 30.478516 29.021484 C 34.637516 29.208484 37.766719 30.854984 38.511719 31.458984 L 47 26 L 47 19 C 47 19 47.173797 17.344547 45.216797 16.560547 L 27.964844 8.6269531 C 27.056719 8.1925781 26.048359 7.9873535 24.978516 8.0078125 z M 25.115234 10.003906 C 25.770234 10.003906 26.451562 10.120641 27.101562 10.431641 L 44.351562 18.363281 C 44.828562 18.592281 44.906969 19.026172 44.917969 19.201172 C 44.928969 19.376172 44.909797 19.815516 44.466797 20.103516 L 38.517578 23.970703 C 37.188578 22.014703 33.325 21 29.5 21 C 25.919 21 22.017453 21.970797 20.689453 24.091797 L 17.857422 22.701172 L 5.5488281 16.498047 C 4.9778281 16.210047 4.9898125 15.656141 5.0078125 15.494141 C 5.0248125 15.332141 5.1279375 14.792625 5.7109375 14.640625 C 6.2409375 14.520625 19.178141 11.778812 23.369141 10.257812 C 23.900141 10.112813 24.494234 10.003906 25.115234 10.003906 z M 26 12 A 1 1 0 0 0 26 14 A 1 1 0 0 0 26 12 z M 19 14 A 1 1 0 0 0 19 16 A 1 1 0 0 0 19 14 z M 11 15 A 1 1 0 0 0 11 17 A 1 1 0 0 0 11 15 z M 32 16 A 1 1 0 0 0 32 18 A 1 1 0 0 0 32 16 z M 27 17 A 1 1 0 0 0 27 19 A 1 1 0 0 0 27 17 z M 20 18 A 1 1 0 0 0 20 20 A 1 1 0 0 0 20 18 z M 39 18 A 1 1 0 0 0 39 20 A 1 1 0 0 0 39 18 z M 29.5 23 C 34.009 23 37 24.505 37 25.5 L 37 27.34375 L 37 28.640625 C 35.17 27.560625 32.329 27 29.5 27 C 26.861 27 23.905 27.53025 22 28.65625 L 22 27.117188 L 22 25.5 C 22 25.443 22.009297 25.386125 22.029297 25.328125 C 22.369297 24.351125 25.154 23 29.5 23 z M 3 26 L 3 32.558594 L 20.689453 43.482422 C 20.689453 43.482422 23 40.001953 29.5 40.001953 C 36.247 40.001953 38.511719 43.974609 38.511719 43.974609 L 47 37.525391 L 47 30 L 38.494141 34.945312 C 37.148141 33.006312 33.308 32 29.5 32 C 26.14 32 22.266125 32.859797 20.703125 34.716797 L 3 26 z M 29.5 34 C 34.009 34 37 35.505 37 36.5 L 37 39.632812 C 35.17 38.554812 32.326 38 29.5 38 C 26.862 38 23.906 38.527344 22 39.652344 L 22 36.5 C 22 36.443 22.009297 36.386125 22.029297 36.328125 C 22.369297 35.351125 25.154 34 29.5 34 z"/></svg>