<?xml version="1.0" encoding="utf-8"?><!-- Generator: Adobe Illustrator 15.0.0, SVG Export Plug-In . SVG Version: 6.00 Build 0)  --><!DOCTYPE svg PUBLIC "-//W3C//DTD SVG 1.1//EN" "http://www.w3.org/Graphics/SVG/1.1/DTD/svg11.dtd"><svg xmlns="http://www.w3.org/2000/svg" xmlns:xlink="http://www.w3.org/1999/xlink" viewBox="0 0 50 50" width="50px" height="50px"><path d="M47.65,31.871c-1.439-6.51-6.942-10.853-12.258-9.679c-2.62,0.578-4.792,2.375-6.115,5.06c-1.286,2.61-1.615,5.763-0.927,8.876c1.28,5.793,5.777,9.87,10.503,9.87c0.584,0,1.171-0.063,1.757-0.191c2.618-0.578,4.789-2.375,6.112-5.06C48.009,38.138,48.339,34.985,47.65,31.871z M36.397,35.854c-0.197,0.262-0.497,0.399-0.801,0.399c-0.209,0-0.42-0.065-0.6-0.2c-0.754-0.567-1.368-1.349-1.776-2.26c-0.537-1.198-0.665-2.503-0.36-3.675c0.325-1.252,1.098-2.207,2.175-2.688c0.508-0.228,1.097,0.002,1.321,0.505c0.226,0.504-0.001,1.096-0.505,1.321c-0.512,0.229-0.887,0.714-1.056,1.365c-0.19,0.733-0.102,1.569,0.25,2.354c0.27,0.604,0.669,1.115,1.152,1.479C36.64,34.786,36.729,35.413,36.397,35.854z"/><path d="M21.776,25.364c-1.992-1.274-4.474-1.67-6.994-1.115c-3.317,0.732-6.394,2.998-8.441,6.213c-3.733,5.866-2.889,13.121,1.884,16.174c1.404,0.899,3.052,1.361,4.784,1.361c0.726,0,1.466-0.081,2.209-0.245c3.317-0.732,6.395-2.997,8.442-6.214C27.394,35.672,26.549,28.416,21.776,25.364z M17.091,30.841c-0.298,0.464-0.917,0.6-1.381,0.304c-0.392-0.251-0.826-0.227-1.122-0.161c-0.653,0.144-1.297,0.629-1.723,1.297c-0.431,0.677-0.597,1.475-0.444,2.136c0.124,0.538-0.211,1.075-0.75,1.199c-0.076,0.018-0.151,0.025-0.226,0.025c-0.455,0-0.867-0.313-0.974-0.775c-0.274-1.189-0.017-2.523,0.707-3.659c0.715-1.123,1.8-1.916,2.978-2.176c0.94-0.207,1.875-0.055,2.631,0.429C17.253,29.757,17.389,30.376,17.091,30.841z"/><path d="M42.826,16.028c-0.473,0.052-11.129,1.308-19.025,8.34c0.524,0.426,0.991,0.905,1.419,1.416c7.426-6.534,17.717-7.756,17.826-7.769c0.549-0.061,0.944-0.555,0.883-1.104C43.868,16.364,43.383,15.971,42.826,16.028z"/><g><path d="M28.381,21.576c0.313-0.08,0.568-0.306,0.686-0.607c0.046-0.119,0.061-0.243,0.061-0.367c-0.669,0.376-1.337,0.783-2,1.221C27.875,21.699,28.34,21.586,28.381,21.576z"/><path d="M31.788,20.549c0.283-0.556,0.521-1.095,0.732-1.623c-0.515,0.222-1.036,0.46-1.561,0.716c0.152,0.458,0.204,0.946,0.129,1.427C31.389,21.01,31.648,20.824,31.788,20.549z"/><path d="M23.319,22.149c1.553-1.281,3.187-2.365,4.82-3.281C23.521,12.591,17.277,10,6.999,10c-0.332,0-0.642,0.165-0.828,0.439s-0.224,0.624-0.101,0.932c3.753,9.383,12.215,10.785,16.924,10.785C23.106,22.156,23.209,22.15,23.319,22.149z"/><path d="M29.92,17.93c1.152-0.567,2.289-1.054,3.381-1.473c0.742-3.23,0.229-5.802-0.481-7.564c-1.28-3.181-3.938-5.673-7.293-6.838c-0.305-0.105-0.644-0.057-0.908,0.13c-0.264,0.188-0.42,0.491-0.42,0.815c0,4.294,0.978,8.009,2.138,10.924C27.639,15.074,28.824,16.412,29.92,17.93z"/></g></svg>