<?xml version="1.0" encoding="utf-8"?><!-- Generator: Adobe Illustrator 15.0.0, SVG Export Plug-In . SVG Version: 6.00 Build 0)  --><!DOCTYPE svg PUBLIC "-//W3C//DTD SVG 1.1//EN" "http://www.w3.org/Graphics/SVG/1.1/DTD/svg11.dtd"><svg xmlns="http://www.w3.org/2000/svg" xmlns:xlink="http://www.w3.org/1999/xlink" viewBox="0 0 50 50" width="50px" height="50px"><path d="M49,50c-0.256,0-0.512-0.098-0.707-0.293l-48-48c-0.391-0.391-0.391-1.023,0-1.414s1.023-0.391,1.414,0l48,48c0.391,0.391,0.391,1.023,0,1.414C49.512,49.902,49.256,50,49,50z"/><path d="M41.67,8.424c0.378-0.041,0.756-0.082,1.151-0.082c0.566,0,0.988,0.043,1.179,0.067c0.68,0.051,1.327,0.238,1.919,0.47C47.999,6.769,48,2,48,2s-4.66,0.004-6.805,2.017c0.239,0.593,0.434,1.246,0.492,1.931C41.75,6.33,41.833,7.187,41.67,8.424z"/><path d="M1.628,49.372c-0.256,0-0.512-0.098-0.707-0.293c-0.391-0.391-0.391-1.023,0-1.414l9.591-9.591h1.414v1.414l-9.591,9.591C2.14,49.274,1.884,49.372,1.628,49.372z"/><path d="M10.516,38.07l3.449-3.449c0.174-0.855,0.164-1.778-0.115-2.671c-0.859-2.747-3.4-4.3-3.4-4.3c-1.5,0.8-3.2,3.8-2.899,6.3C7.965,36.522,9.407,37.771,10.516,38.07z"/><path d="M18.05,36.051c-0.783-0.308-1.683-0.319-2.553-0.134l-3.546,3.546c0.332,1.121,1.58,2.563,4.099,2.888c2.5,0.3,5.5-1.4,6.3-2.9C22.35,39.45,20.412,36.979,18.05,36.051z"/><path d="M15.758,31.354c0.125,0.398,0.196,0.812,0.246,1.229l3.011-3.011c0.175-0.855,0.165-1.779-0.115-2.672c-0.859-2.747-3.4-4.3-3.4-4.3c-1.107,0.591-2.319,2.382-2.759,4.285C13.755,27.773,15.107,29.271,15.758,31.354z"/><path d="M23.1,31c-0.783-0.308-1.683-0.319-2.552-0.134l-3.024,3.024c0.437,0.059,0.863,0.144,1.257,0.299c1.801,0.707,3.314,2.05,4.23,2.997c1.941-0.419,3.787-1.659,4.39-2.787C27.4,34.399,25.462,31.928,23.1,31z"/><path d="M25.985,21.126c0.125,0.399,0.196,0.813,0.245,1.23l2.886-2.886c0.174-0.855,0.164-1.779-0.115-2.671c-0.859-2.747-3.4-4.3-3.4-4.3c-1.07,0.571-2.229,2.266-2.704,4.096C23.917,17.476,25.318,18.994,25.985,21.126z"/><path d="M33.2,20.9c-0.783-0.308-1.684-0.319-2.553-0.133l-2.892,2.892c0.435,0.06,0.858,0.149,1.252,0.304c1.85,0.727,3.392,2.121,4.298,3.071c1.868-0.458,3.613-1.644,4.194-2.733C37.5,24.3,35.563,21.828,33.2,20.9z"/><path d="M30.909,16.203c0.124,0.398,0.196,0.811,0.246,1.228l3.06-3.059c0.174-0.855,0.164-1.779-0.115-2.671c-0.859-2.747-3.4-4.3-3.4-4.3c-1.122,0.599-2.355,2.429-2.78,4.36C28.931,12.651,30.264,14.139,30.909,16.203z"/><path d="M36.257,12.33l3.283-3.284c0.011-0.058,0.02-0.115,0.032-0.173C39.915,7.177,39.7,6.2,39.7,6.2c-0.101-1.7-1.5-3.4-1.5-3.4c-1.561,0.276-3.776,2.239-4.52,4.494c0.873,0.903,1.816,2.175,2.328,3.81C36.134,11.501,36.207,11.913,36.257,12.33z"/><path d="M37.8,15.7c-0.643-0.184-1.338-0.19-2.016-0.07l-3.111,3.111c0.119,0.016,0.242,0.019,0.357,0.043c0.312,0.059,0.614,0.142,0.901,0.255c0.314,0.124,0.616,0.271,0.912,0.428c0.063,0.034,0.127,0.067,0.189,0.103c0.283,0.158,0.557,0.325,0.817,0.502c0.038,0.025,0.072,0.052,0.109,0.077c0.236,0.164,0.461,0.333,0.677,0.503c0.047,0.038,0.094,0.073,0.141,0.111c0.225,0.183,0.436,0.365,0.633,0.545c0.054,0.049,0.102,0.094,0.152,0.143c0.151,0.141,0.293,0.278,0.425,0.41c0.045,0.045,0.091,0.09,0.134,0.133c0.001,0.002,0.003,0.004,0.005,0.005c1.973-0.4,3.863-1.654,4.474-2.798C42.6,19.2,40.75,16.422,37.8,15.7z"/><path d="M43.8,10.4c0,0-1.422-0.205-2.97,0.184l-3.055,3.054c0.379,0.078,0.774,0.183,1.029,0.283c0.334,0.107,0.929,0.329,2.182,1.04c0.667,0.378,1.29,0.912,1.813,1.431c2.215-0.772,4.13-2.952,4.401-4.492C47.2,11.9,45.5,10.5,43.8,10.4z"/><path d="M29.961,31.381c1.207-0.574,2.204-1.386,2.615-2.157c0,0-1.938-2.472-4.3-3.4c-0.783-0.308-1.684-0.319-2.553-0.133l-0.727,0.727L29.961,31.381z"/><path d="M23.583,27.831l-1.011,1.011c0.438,0.058,0.864,0.142,1.259,0.297c0.963,0.379,1.833,0.941,2.587,1.527L23.583,27.831z"/><path d="M23.583,25.003l0.608-0.608c0.174-0.855,0.164-1.778-0.115-2.671c-0.859-2.747-3.4-4.3-3.4-4.3c-0.755,0.403-1.554,1.369-2.127,2.544L23.583,25.003z"/><path d="M19.574,23.821c0.491,0.705,0.937,1.529,1.235,2.481c0.124,0.397,0.198,0.81,0.249,1.226l1.111-1.111L19.574,23.821z"/></svg>