<?xml version="1.0" encoding="utf-8"?><!-- Generator: Adobe Illustrator 19.1.1, SVG Export Plug-In . SVG Version: 6.00 Build 0)  --><svg xmlns="http://www.w3.org/2000/svg" xmlns:xlink="http://www.w3.org/1999/xlink" viewBox="0 0 50 50" width="500px" height="500px"><path d="M15,48C8,48,2,42.1,2,35.2C2,25.7,8.9,25,11,25c1.5,0,2.6,0.6,3.4,1c0.2,0.1,0.6,0.3,0.7,0.3c0.1,0,0.4-0.2,0.6-0.3c0.7-0.4,1.8-1,3.4-1c2.5,0,9,1.8,9,10.2C28,42.5,21.1,48,15,48z"/><path d="M33.1,3.3c-0.9-1.2-1.9-1.3-2-1.3c-0.3,0-0.5,0.1-0.7,0.2c-0.2,0.2-1.6,1.5-2.2,3c-3.5,1.6-12.5,6.9-14,18.4c0.3,0.1,0.6,0.3,0.8,0.4c0.3-0.2,0.8-0.4,1.3-0.6C17.8,13.7,25.1,9,28.6,7.3L29.1,8c0.8-0.6,3.5-2.7,4.1-3.6C33.4,4.1,33.4,3.6,33.1,3.3z"/><path d="M44.8,29.1c-3.7-7.6-10.4-6.4-12.7-5.3c-1.4,0.7-2.1,1.7-2.6,2.4c-0.1,0.2-0.3,0.5-0.4,0.5c-0.1,0-0.5,0-0.7,0c-0.3,0-0.7,0-1.2,0c1.6,1.9,2.8,4.5,2.8,8.4c0,4.1-1.9,7.7-4.6,10.3c2.2,1.6,4.8,2.5,7.5,2.5c2,0,4-0.5,5.9-1.4C44.3,43.9,48.1,35.8,44.8,29.1z"/><path d="M36.9,18c-1.9,0-3.9-0.5-5.6-1.7c-4.7-3.5-3.7-9.4-3.6-9.7c0.1-0.5,0.5-0.8,1-0.8c0.2,0,4.7-0.1,8.8,2.4c2.1,1.3,3.2,3.3,4.1,5c0.4,0.8,0.8,1.5,1.2,2.1c0.2,0.2,0.2,0.5,0.2,0.8c-0.1,0.3-0.3,0.5-0.5,0.7C41.1,17.4,39.1,18,36.9,18z"/><path d="M26.3,12.5c-0.6,4.7,0.1,9.2,1,12.3c0.1,0,0.3,0,0.4,0c0.1,0,0.3,0,0.4,0c0.2-0.3,0.6-0.7,1-1.2c-0.6-2.1-1-4.8-1-7.8C27.2,14.7,26.6,13.6,26.3,12.5z"/></svg>