<?xml version="1.0" encoding="iso-8859-1"?><!-- Generator: Adobe Illustrator 21.1.0, SVG Export Plug-In . SVG Version: 6.00 Build 0)  --><svg xmlns="http://www.w3.org/2000/svg" xmlns:xlink="http://www.w3.org/1999/xlink" viewBox="0 0 50 50" width="50px" height="50px"><path d="M23.91,43.03c-0.15-0.48-0.35-1.34-0.49-2.63c-0.33-0.01-0.67-0.03-1.02-0.06c-0.33-0.03-0.66-0.07-1.01-0.11c-0.51-0.07-1.04-0.16-1.58-0.26c-0.38-0.08-0.76-0.17-1.15-0.26c-0.4-0.11-0.8-0.22-1.2-0.35c0.02,0.06,0.04,0.13,0.06,0.19c1.41,4.39,2.83,5.41,3.83,5.41h1.12c0.18,0,0.36-0.03,0.52-0.09c0.05-0.02,0.11-0.05,0.16-0.07c0.21-0.11,0.39-0.26,0.53-0.45C23.96,43.97,24.05,43.49,23.91,43.03z M5.12,8.94L3.5,8.01c-0.49-0.27-1.1-0.1-1.37,0.38C1.86,8.87,2.03,9.48,2.5,9.75l1.79,1.02c1.04,0.56,2.45,1.04,3.83,1.17L5.12,8.94z M34.17,43.75c-0.12-0.48-0.22-0.95-0.32-1.41c-0.06-0.33-0.12-0.66-0.18-0.98c-0.13-0.75-0.22-1.46-0.29-2.09c-0.1-0.97-0.15-1.75-0.17-2.24l-1.45-1.45l-0.01-0.01l-20.1-20.1l-0.48-0.48l-0.93-0.93c-0.03,0.02-0.05,0.05-0.07,0.07c-0.77,0.76-1.41,1.52-1.93,2.22c-1.49,2-2.179,4.556-2.209,7.056C5.911,33.526,8.6,41.5,9.48,43.73C9.78,44.5,10.51,45,11.34,45h1.33c0.81,0,1.47-0.64,1.5-1.46c0.06-1.89,0.45-3.6,0.88-4.91c0.16-0.51,0.35-1.37,0.52-1.98c0.32,0.16,1.12,0.5,1.19,0.53c0.75,0.3,1.51,0.53,2.26,0.71c0.75,0.18,1.48,0.31,2.18,0.4l1.04,0.11l0.97,0.11c1.17,0.07,2.18,0.05,2.94,0.02c0.25-0.02,0.47-0.03,0.66-0.05l0.02,0.04l0.73,1.74l1.2,2.89c0.46,1.12,1.55,1.85,2.77,1.85h1.66c0.56,0,1.01-0.45,1.01-1.01C34.2,43.91,34.19,43.83,34.17,43.75z M47.71,45.89l-6.85-6.85c-0.17-0.91-0.27-1.77-0.3-2.57c3.25-0.81,5.36-1.97,6.19-2.74c0.05-0.05,0.09-0.09,0.13-0.13c0.24-0.25,0.4-0.55,0.48-0.89l0.58-2.37c0.14-0.56,0.03-1.15-0.3-1.62c-0.31-0.46-0.81-0.77-1.35-0.84c-1.55-0.2-1.69-0.83-1.7-0.83c0-1.59-0.3-2.8-0.89-3.63c4.659-2.541,4.702-6.733,3.55-8.795C47.068,14.299,46.75,14,46.22,14c-0.36,0-0.72,0.23-0.89,0.56c-0.01,0.02-0.3,0.53-1.01,0.94c-0.14,0.07-0.27,0.14-0.42,0.2c-0.38,0.17-0.8,0.3-1.27,0.39c-2.8,0.55-5.08,2.43-6.11,5.04c-0.15,0.39-0.25,0.71-0.31,0.9v0.01c-0.03,0.11-0.05,0.18-0.05,0.18c-0.1,0.46-0.51,0.78-0.97,0.78c-0.07,0-0.15-0.01-0.22-0.03c-0.54-0.12-0.88-0.65-0.76-1.19c0.01-0.05,0.14-0.59,0.45-1.38c0.62-1.57,1.61-2.94,2.86-4c0.52-0.45,1.09-0.84,1.69-1.17c-0.14-0.13-0.29-0.26-0.45-0.4c-2.29-1.96-5.04-3.46-8.18-4.44c-7.79-2.44-13.36-1.1-17.17,1.2l-0.67-0.67c0.79-0.44,1.53-1.06,1.94-1.89c0.32-0.63,0.445-1.655-0.03-3c-0.507-1.434-2.15-2.155-3.64-2c-0.993,0.103-1.75,0.64-2.19,1.46c-0.18,0.34-0.3,0.73-0.36,1.15L4.11,2.29c-0.39-0.39-1.03-0.39-1.42,0C2.35,2.63,2.31,3.16,2.56,3.56c0.04,0.05,0.08,0.1,0.13,0.15l5.93,5.93l3.12,3.12l0.03,0.03l29.08,29.08l5.55,5.53c0,0,0.03,0.03,0.04,0.04c0.17,0.1,0.36,0.16,0.56,0.16c0.26,0,0.51-0.1,0.71-0.29C48.1,46.92,48.1,46.28,47.71,45.89z M11.24,9.42l-0.75-0.75c-0.17-0.94-0.17-1.75,0.09-2.23c0.1-0.18,0.25-0.37,0.7-0.43C11.34,6,11.41,6,11.47,6c0.63,0,1.15,0.41,1.36,0.86c0.3,0.66,0.18,1.05,0.06,1.28C12.65,8.62,12.06,9.08,11.24,9.42z M39.98,26c0.55,0,1,0.45,1,1s-0.45,1-1,1c-0.55,0-1-0.45-1-1S39.43,26,39.98,26z M41.1,44.86C40.89,44.95,40.66,45,40.43,45h-1.27c-0.98,0-2.32-0.16-4.16-6L41.1,44.86z"/></svg>