<?xml version="1.0" encoding="utf-8"?><!-- Generator: Adobe Illustrator 15.0.0, SVG Export Plug-In . SVG Version: 6.00 Build 0)  --><!DOCTYPE svg PUBLIC "-//W3C//DTD SVG 1.1//EN" "http://www.w3.org/Graphics/SVG/1.1/DTD/svg11.dtd"><svg xmlns="http://www.w3.org/2000/svg" xmlns:xlink="http://www.w3.org/1999/xlink" viewBox="0 0 50 50" width="50px" height="50px"><path d="M33,10V7V4c0-2.626-4.024-4-8-4s-8,1.374-8,4v3v3H33z"/><g><path d="M25.9,28.1H22v5.5h3.9c1.1,0,2-0.199,2.5-0.699s0.8-1.2,0.8-2.101c0-0.899-0.3-1.6-0.8-2C27.9,28.3,27,28.1,25.9,28.1z"/><path d="M36.71,22.555C34.719,19.688,33,17.212,33,14v-2H17v2c0,3.277-1.755,5.78-3.788,8.678C10.769,26.163,8,30.112,8,36.2c0,5.888,4.958,10.867,9.598,13.564C17.75,49.854,17.923,49.9,18.1,49.9h13.7c0.173,0,0.344-0.045,0.494-0.131C36.938,47.132,41.9,42.181,41.9,36.2C41.9,30.031,39.143,26.06,36.71,22.555z M29.9,34.3c-0.801,0.8-1.9,1.2-3.4,1.2H22v6.1h-2V26.5h6.5c1.5,0,2.7,0.4,3.4,1.2C30.7,28.5,31.1,29.6,31.1,31S30.7,33.5,29.9,34.3z"/></g></svg>