<?xml version="1.0" encoding="utf-8"?><!-- Generator: Adobe Illustrator 15.0.0, SVG Export Plug-In . SVG Version: 6.00 Build 0)  --><!DOCTYPE svg PUBLIC "-//W3C//DTD SVG 1.1//EN" "http://www.w3.org/Graphics/SVG/1.1/DTD/svg11.dtd"><svg xmlns="http://www.w3.org/2000/svg" xmlns:xlink="http://www.w3.org/1999/xlink" viewBox="0 0 50 50" width="50px" height="50px"><path d="M25,8.843c0.326-0.212,0.661-0.411,1-0.6V0h-2v8.243C24.339,8.433,24.674,8.631,25,8.843z"/><path d="M25,8.843C27.83,7.001,31.186,6,34.6,6c0.885,0,1.748,0.086,2.599,0.212c1.127-2.546,1.292-5.002,1.301-5.153c0.017-0.275-0.108-0.544-0.299-0.745C38.012,0.113,37.721,0,37.443,0c-0.577,0-5.743,0.092-9.129,3.271c-1.793,1.684-2.791,3.823-3.346,5.554C24.979,8.831,24.99,8.837,25,8.843z"/><path d="M48.293,49.707C48.488,49.902,48.744,50,49,50s0.512-0.098,0.707-0.293c0.391-0.391,0.391-1.023,0-1.414l-1.804-1.805c-0.56,0.384-1.136,0.75-1.712,1.117L48.293,49.707z"/><path d="M0.83,2.244l45.361,45.361c0.576-0.367,1.152-0.733,1.712-1.117L2.738,1.324C2.084,1.626,1.444,1.93,0.83,2.244z"/><path d="M1.707,0.293c-0.391-0.391-1.023-0.391-1.414,0s-0.391,1.023,0,1.414L0.83,2.244c0.614-0.314,1.254-0.618,1.908-0.92L1.707,0.293z"/><path d="M22.9,27.143C22.958,27.423,23,27.709,23,28c0,1.6-1,3.1-1.5,3.8c-0.3,0.3-0.7,0.3-0.9,0C20,31.1,19,29.6,19,28c0-1.388,0.752-2.699,1.278-3.479L6.533,10.775C2.588,13.512,0,18.012,0,23.1C0,38.07,14.506,50,20.2,50c1.668,0,3.281-0.393,4.8-1.164C26.52,49.607,28.132,50,29.8,50c2.656,0,6.768-1.888,10.591-5.367L22.9,27.143z"/><path d="M28.381,29.795C28.156,29.239,28,28.629,28,28c0-1.6,1-3.1,1.5-3.8c0.3-0.3,0.7-0.3,0.9,0C31,24.9,32,26.4,32,28s-1,3.1-1.5,3.8c-0.021,0.021-0.045,0.029-0.067,0.047l11.389,11.389C46.275,38.593,50,31.722,50,23.1C50,14.774,43.092,8,34.6,8c-3.506,0-6.882,1.166-9.6,3.3C22.282,9.166,18.906,8,15.4,8c-2.561,0-4.973,0.625-7.1,1.714L28.381,29.795z"/></svg>