<?xml version="1.0" encoding="iso-8859-1"?>
<!-- Generator: Adobe Illustrator 23.0.3, SVG Export Plug-In . SVG Version: 6.00 Build 0)  -->
<svg version="1.1" id="Layer_1" xmlns="http://www.w3.org/2000/svg" xmlns:xlink="http://www.w3.org/1999/xlink" x="0px" y="0px"
	 viewBox="0 0 50 50" style="enable-background:new 0 0 50 50;" xml:space="preserve">
<g>
	<path d="M12.151,18.768c1.591-1.591,2.866-3.318,3.59-4.865c0.795-1.699,0.835-3.033,0.112-3.756
		c-1.599-1.601-5.635,0.714-8.622,3.702c-1.591,1.592-2.866,3.319-3.589,4.865c-0.795,1.7-0.835,3.033-0.112,3.756
		c0.343,0.343,0.824,0.515,1.417,0.515c0.655,0,1.447-0.21,2.339-0.627C8.832,21.634,10.56,20.359,12.151,18.768z"/>
	<path d="M33.016,20.857c1.99,0,5.07-2.024,7.502-4.456c1.657-1.656,2.993-3.445,3.763-5.036c0.859-1.773,0.924-3.1,0.188-3.835
		c-0.736-0.736-2.061-0.671-3.835,0.188c-1.591,0.771-3.38,2.106-5.036,3.764c-1.657,1.656-2.993,3.445-3.764,5.036
		c-0.858,1.773-0.924,3.1-0.188,3.835C31.994,20.701,32.463,20.857,33.016,20.857z"/>
	<path d="M35.296,30.258c-1.454-1.455-3.062-2.593-4.526-3.205c-1.606-0.672-2.893-0.639-3.624,0.094
		c-1.436,1.436-0.099,4.939,3.111,8.15c2.341,2.341,4.837,3.685,6.575,3.685c0.645,0,1.186-0.186,1.575-0.574
		c0.731-0.731,0.765-2.019,0.094-3.623C37.889,33.319,36.751,31.712,35.296,30.258z"/>
	<ellipse cx="25.5" cy="13" rx="3.5" ry="9"/>
	<path d="M17.52,38.185c-1.332,1.332-2.395,2.783-2.993,4.088c-0.667,1.456-0.684,2.608-0.045,3.246
		c0.325,0.324,0.759,0.47,1.267,0.47c1.673,0,4.139-1.579,6.068-3.508c2.514-2.514,4.433-5.938,3.038-7.334
		C23.46,33.752,20.034,35.671,17.52,38.185z"/>
	<path d="M35,25.5c0,1.642,3.019,2.5,6,2.5s6-0.858,6-2.5C47,22.217,35,22.217,35,25.5z"/>
	<ellipse cx="14.5" cy="28.5" rx="7.5" ry="3.5"/>
</g>
</svg>