<?xml version="1.0" encoding="iso-8859-1"?><!-- Generator: Adobe Illustrator 19.1.1, SVG Export Plug-In . SVG Version: 6.00 Build 0)  --><svg xmlns="http://www.w3.org/2000/svg" xmlns:xlink="http://www.w3.org/1999/xlink" viewBox="0 0 50 50" width="50px" height="50px"><polygon fill="none" stroke="#000000" stroke-width="2" stroke-miterlimit="10" points="25,4 26.908,5.944 29.139,4.481 30.64,6.82 33.098,5.902 34.125,8.535 36.702,8.202 37.212,11.013 39.795,11.279 39.765,14.146 42.242,15 41.672,17.797 43.935,19.202 42.851,21.807 44.8,23.7 43.25,26 44.8,28.3 42.851,30.193 43.935,32.798 41.672,34.203 42.242,37 39.765,37.854 39.795,40.721 37.212,40.987 36.702,43.798 34.125,43.465 33.098,46.098 30.64,45.18 29.139,47.519 26.908,46.056 25,48 23.092,46.056 20.861,47.519 19.36,45.18 16.902,46.098 15.875,43.465 13.298,43.798 12.788,40.987 10.205,40.721 10.235,37.854 7.758,37 8.328,34.203 6.065,32.798 7.149,30.193 5.2,28.3 6.75,26 5.2,23.7 7.149,21.807 6.065,19.202 8.328,17.797 7.758,15 10.235,14.146 10.205,11.279 12.788,11.013 13.298,8.202 15.875,8.535 16.902,5.902 19.36,6.82 20.861,4.481 23.092,5.944 "/><path d="M20,25c2.206,0,4-1.794,4-4V9.057C16.477,9.621,10.484,16.456,10.045,25H20z"/><path d="M25,24.31c-0.445,0.67-1.02,1.245-1.69,1.69c0.67,0.445,1.245,1.02,1.69,1.69c0.445-0.67,1.02-1.245,1.69-1.69C26.02,25.555,25.445,24.98,25,24.31z"/><path d="M26,21c0,2.206,1.794,4,4,4h9.955C39.516,16.456,33.523,9.621,26,9.057V21z"/><path d="M30,27c-2.206,0-4,1.794-4,4v11.943C33.523,42.379,39.516,35.544,39.955,27H30z"/><path d="M24,31c0-2.206-1.794-4-4-4h-9.955c0.44,8.544,6.433,15.379,13.955,15.943V31z"/></svg>