<?xml version="1.0" encoding="utf-8"?><!-- Generator: Adobe Illustrator 15.0.0, SVG Export Plug-In . SVG Version: 6.00 Build 0)  --><!DOCTYPE svg PUBLIC "-//W3C//DTD SVG 1.1//EN" "http://www.w3.org/Graphics/SVG/1.1/DTD/svg11.dtd"><svg xmlns="http://www.w3.org/2000/svg" xmlns:xlink="http://www.w3.org/1999/xlink" viewBox="0 0 50 50" width="50px" height="50px"><line fill="none" stroke="#000000" stroke-width="2" stroke-linecap="round" stroke-linejoin="round" stroke-miterlimit="10" x1="1" y1="1" x2="49" y2="49"/><path d="M38.201,42.2l-8.672-8.672c0.329,2.671,0.652,5.542,0.67,6.588c0.062,0.87,0.012,1.77-0.124,2.695c2.351,3.946,6.279,6.524,6.524,6.688c0.301,0.2,0.7,0.2,1,0.1c0.301-0.199,0.5-0.5,0.5-0.8c0,0,0.2-2.8,0.301-4C38.4,44,38.4,43.1,38.201,42.2z"/><path d="M28.2,40.2c0-0.07-0.003-0.159-0.007-0.257c-0.001-0.018-0.002-0.036-0.003-0.055c-0.004-0.075-0.01-0.161-0.016-0.25C28.14,39.197,28.07,38.578,28,37.8c0.004,0.012,0.008,0.021,0.012,0.032c-0.197-1.902-0.517-4.5-0.789-6.61l-1.136-1.136c-0.459,1.993-0.602,2.568-0.704,2.846c-0.442,1.429-2.361,7.489-3.884,9.991l-0.036,0.058l-0.039,0.056c-0.022,0.031-0.049,0.06-0.072,0.09c0.286,1.735,0.936,3.709,2.548,6.374c0.2,0.3,0.5,0.5,0.9,0.5c0.4,0,0.7-0.2,0.9-0.5c0.383-0.602,1.184-2.074,1.782-3.986c0.019-0.058,0.032-0.123,0.05-0.182C28.029,43.88,28.341,42.032,28.2,40.2z"/><path d="M16.955,12.066c-0.233-0.902-0.404-2.088-0.512-3.537c-2.102-1.822-4.376-3.197-5.243-3.63c-0.4-0.2-0.8-0.1-1.1,0.2C9.8,5.2,9.7,5.7,9.8,6c0.3,0.9,0.5,1.6,0.7,2.4c0.4,1.6,0.8,3.1,2,5.3l7.034,7.064C18.476,18.139,17.863,16.213,16.955,12.066z"/><path d="M24.525,9.65c0.192-0.559,0.392-1.067,0.595-1.554C23.323,4.3,20.167,1.067,20,0.9c-0.3-0.3-0.7-0.4-1.1-0.2c-0.4,0.1-0.6,0.5-0.6,0.9c0,0.023-0.001,0.082-0.003,0.16c-0.015,0.605-0.071,2.786,0.037,5.151c0.007,0.002,0.012,0.006,0.02,0.008c0.07,1.708,0.226,3.461,0.546,4.681c1.026,4.689,1.649,6.425,3.052,9.785C22.297,18.189,23.146,13.493,24.525,9.65z"/><path d="M28.669,18.362c1.039-0.793,2.334-1.703,3.994-2.622c0.748-1.536,1.393-2.937,1.737-3.74C35.3,9.7,35,3.9,34.6,1.3C34.7,0.4,34.4,0.1,34,0s-0.8,0.1-1.1,0.5c-0.4,0.6-1,1.3-1.602,2C29.8,4.1,28,6,26.7,9.6c-0.114,0.286-0.223,0.602-0.318,0.916c0.003-0.015,0.012-0.046,0.011-0.051C25,14.4,24.198,19.083,23.917,21.8c-0.002,0.027-0.002,0.046-0.004,0.073C25.373,20.782,28.034,18.8,28.669,18.362z M26.323,10.735c-0.043,0.157-0.094,0.319-0.123,0.465C26.19,11.17,26.264,10.934,26.323,10.735z"/><path d="M49.4,31.7c-0.123-0.123-1.58-2.334-4.478-4.224c-0.536-0.35-1.128-0.686-1.764-0.998c-1.363-0.643-3.027-1.197-5.089-1.538c-0.092-0.012-0.178-0.03-0.271-0.041c-0.975-0.139-1.847-0.229-2.628-0.305c-1.385-0.114-2.731-0.164-3.959-0.164c-0.97,0-1.859,0.026-2.653,0.059c0.918,0.801,2.125,1.947,3.763,3.603c1.26,1.274,2.173,2.522,2.915,3.559c0.632,0.309,1.233,0.599,1.764,0.848c2.3,1,4.601,1.5,6.899,1.5c3,0,5-0.9,5.101-0.9c0.3-0.1,0.5-0.398,0.5-0.6C49.602,32.2,49.501,31.9,49.4,31.7z"/><path d="M49.9,15.9c0-0.4-0.301-0.8-0.801-0.9c-0.1,0-2.3-0.5-5.199-0.5c-1.656,0-3.151,0.163-4.496,0.511c0.002,0.009,0.003,0.017,0.005,0.025c-0.203,0.055-0.421,0.099-0.609,0.164c-1.11,0.387-2.104,0.791-3.003,1.199c-0.606,0.28-1.19,0.568-1.744,0.862c-0.025,0.013-0.049,0.026-0.074,0.04c-0.516,0.275-1.002,0.557-1.467,0.84c-0.071,0.044-0.151,0.089-0.221,0.132c-0.45,0.28-0.871,0.562-1.268,0.844c-0.436,0.307-0.836,0.601-1.183,0.866c-0.344,0.229-2.116,1.542-3.569,2.624c0.049-0.003,0.093-0.005,0.143-0.008c1.12-0.067,2.813-0.168,4.799-0.168c2.563,0,4.937,0.172,7.059,0.513c0.94,0.151,1.804,0.345,2.606,0.567c0.218-0.037,0.437-0.074,0.622-0.111c2-0.4,4.8-2.9,6.3-5.1c0.8-1.1,1.5-1.4,1.5-1.4C49.7,16.7,50,16.3,49.9,15.9z"/><path d="M16.796,33.954c-0.804,0.526-1.604,1.042-2.39,1.541c-0.083,0.148-0.153,0.286-0.207,0.405c-1.4,3.301-2.6,8.5-2.3,11.5c0,0.399,0.3,0.699,0.6,0.801c0.3,0.1,0.7,0.1,1-0.102l0.6-0.398c2-1.4,3.6-2.5,5.2-5c0.6-0.9,1.2-2.2,1.8-3.602c0,0.004,0,0.009,0,0.013c1.079-2.659,2.117-5.943,2.4-6.862c0.063-0.126,0.362-1.412,0.675-2.772C22.435,30.462,18.573,32.832,16.796,33.954z"/><path d="M9.384,26.723C6.069,28.472,5.33,29.387,4.6,30.3l-0.3,0.3C4,30.9,3.8,31.2,3.5,31.6c-0.4,0.5-0.9,1.2-1.2,1.301c-0.7,0.301-1.6,0.601-1.6,0.601C0.3,33.6,0,33.9,0,34.3c0,0.4,0.2,0.8,0.5,1c0.1,0.101,2.7,1.5,5.6,1.5c1,0,2-0.2,2.8-0.5c1.334-0.562,3.214-1.718,5.252-3.014c0.514-0.33,1.032-0.667,1.548-1.005c0.33-0.209,0.745-0.469,1.208-0.756c0.039-0.025,0.069-0.049,0.11-0.068c1.463-0.908,3.38-2.081,4.868-2.961C16.972,28.256,12.192,27.389,9.384,26.723z"/><path d="M18.288,22.288c-0.058-0.038-0.111-0.073-0.171-0.112c-2.293-1.61-3.956-3.194-5.12-4.492C12.161,17.432,11.332,17.215,10.4,17c-1.2-0.3-2.4-0.4-3.5-0.4c-1.6,0-2.8,0.3-3.6,0.5c-0.4,0.1-0.8,0.2-1.1,0.2c-0.4-0.2-0.9-0.1-1.2,0.3c-0.3,0.3-0.3,0.8,0,1.2c0,0.1,0.1,0.2,0.2,0.3c0.7,1.1,2.2,3.5,6.2,5c0.086,0.031,0.187,0.064,0.283,0.096c0.135,0.035,0.268,0.066,0.411,0.116c1.825,0.577,8.075,1.958,14.424,2.204L18.288,22.288z"/></svg>