<?xml version="1.0" encoding="iso-8859-1"?>
<!-- Generator: Adobe Illustrator 22.1.0, SVG Export Plug-In . SVG Version: 6.00 Build 0)  -->
<svg version="1.1" id="Layer_1" xmlns="http://www.w3.org/2000/svg" xmlns:xlink="http://www.w3.org/1999/xlink" x="0px" y="0px"
	 viewBox="0 0 50 50" style="enable-background:new 0 0 50 50;" xml:space="preserve">
<path d="M12,39h32V2H12C8.691,2,6,4.691,6,8v34.417C6,45.496,8.691,48,12,48h32v-2H12c-2.168,0-4-1.641-4-3.583
	C8,40.501,9.757,39,12,39z M18.007,12.263c1.361-0.48,2.614-0.259,3.648,0.309C22.51,11.045,24.125,10,26,10s3.49,1.045,4.346,2.572
	c1.034-0.569,2.286-0.789,3.648-0.309c1.445,0.509,2.581,1.749,2.901,3.247c0.507,2.375-0.863,4.492-2.894,5.214V30
	c0,0.552-0.448,1-1,1H19c-0.552,0-1-0.448-1-1v-9.276c-2.031-0.722-3.401-2.84-2.894-5.214
	C15.426,14.012,16.562,12.772,18.007,12.263z"/>
<line style="fill:none;stroke:#000000;stroke-width:2;stroke-linecap:round;stroke-linejoin:round;stroke-miterlimit:10;" x1="17" y1="27" x2="35" y2="27"/>
<line style="fill:none;stroke:#000000;stroke-width:2;stroke-linecap:round;stroke-linejoin:round;stroke-miterlimit:10;" x1="26" y1="21" x2="26" y2="23"/>
<line style="fill:none;stroke:#000000;stroke-width:2;stroke-linecap:round;stroke-linejoin:round;stroke-miterlimit:10;" x1="22" y1="21" x2="22" y2="23"/>
<line style="fill:none;stroke:#000000;stroke-width:2;stroke-linecap:round;stroke-linejoin:round;stroke-miterlimit:10;" x1="30" y1="21" x2="30" y2="23"/>
</svg>