<?xml version="1.0" encoding="utf-8"?><!-- Generator: Adobe Illustrator 15.0.0, SVG Export Plug-In . SVG Version: 6.00 Build 0)  --><!DOCTYPE svg PUBLIC "-//W3C//DTD SVG 1.1//EN" "http://www.w3.org/Graphics/SVG/1.1/DTD/svg11.dtd"><svg xmlns="http://www.w3.org/2000/svg" xmlns:xlink="http://www.w3.org/1999/xlink" viewBox="0 0 50 50" width="500px" height="500px"><path d="M28.4,38h-6.9c-8.466,0-16.117-5.326-19.039-13.254L2.06,23.642c-0.203-0.607-0.096-1.265,0.278-1.784C2.725,21.32,3.346,21,4,21h42c0.691,0,1.346,0.362,1.706,0.945c0.33,0.535,0.373,1.181,0.118,1.741l-0.385,1.056C44.518,32.674,36.867,38,28.4,38z"/><path d="M39,50H11c-0.552,0-1-0.447-1-1c0-0.145,0.031-0.386,0.091-0.518C12.489,43.251,17.129,40,22.2,40h5.6c5.103,0,9.858,3.336,12.116,8.5C39.973,48.626,40,48.764,40,48.9C40,49.453,39.553,50,39,50z"/><path d="M31.555,39.766C30.518,39.914,29.466,40,28.4,40h-6.9c-1.033,0-2.053-0.084-3.058-0.225c-0.114,0.396-0.346,0.765-0.697,1.067c-0.315,0.273-0.428,0.714-0.282,1.105c0.146,0.391,0.52,0.649,0.937,0.649h13.2c0.418,0,0.791-0.26,0.938-0.649c0.146-0.392,0.033-0.832-0.281-1.105C31.9,40.537,31.666,40.164,31.555,39.766z"/><path d="M25.042,12.2c2.265-2.373,5.218-3.685,8.402-3.685c0.351,0,0.695,0.022,1.038,0.053c-0.478-4.816-4.551-8.591-9.491-8.591c-4.94,0-9.014,3.774-9.491,8.591c0.342-0.031,0.688-0.053,1.038-0.053C19.868,8.515,22.906,9.907,25.042,12.2z"/><path d="M42.921,19c-0.526-4.766-4.573-8.486-9.477-8.486c-2.722,0-5.248,1.167-7.158,3.275c0.701,1.084,1.23,2.3,1.544,3.617c0.128,0.537-0.204,1.076-0.741,1.204c-0.534,0.128-1.076-0.203-1.204-0.741c-1.031-4.331-4.875-7.355-9.347-7.355c-4.903,0-8.95,3.72-9.476,8.486H42.921z"/></svg>