<?xml version="1.0" encoding="iso-8859-1"?><!-- Generator: Adobe Illustrator 21.1.0, SVG Export Plug-In . SVG Version: 6.00 Build 0)  --><svg xmlns="http://www.w3.org/2000/svg" xmlns:xlink="http://www.w3.org/1999/xlink" viewBox="0 0 50 50" width="50px" height="50px"><line style="fill:none;stroke:#000000;stroke-width:2;stroke-linecap:round;stroke-linejoin:round;stroke-miterlimit:10;" x1="16" y1="7" x2="13" y2="13"/><path d="M9.5,17C6.641,17,5,15.086,5,11.75c0-6.771,8.333-9.584,8.688-9.7c0.438-0.146,0.92,0.032,1.162,0.426c0.243,0.394,0.184,0.903-0.143,1.23C14.681,3.733,12,6.458,12,9c0,2.298,1.4,3.08,1.46,3.112c0.428,0.23,0.643,0.743,0.488,1.204C13.898,13.467,12.685,17,9.5,17z"/><line style="fill:none;stroke:#000000;stroke-width:2;stroke-linecap:round;stroke-linejoin:round;stroke-miterlimit:10;" x1="29" y1="7" x2="32" y2="13"/><path d="M35.5,17c-3.185,0-4.398-3.533-4.448-3.684c-0.158-0.472,0.056-0.988,0.501-1.211C31.6,12.08,33,11.298,33,9c0-2.542-2.681-5.267-2.708-5.294c-0.326-0.328-0.386-0.837-0.143-1.23c0.242-0.394,0.723-0.57,1.162-0.426C31.667,2.166,40,4.979,40,11.75C40,15.086,38.359,17,35.5,17z"/><path d="M24,35.5c0-0.854,0.089-1.686,0.231-2.5h-6.832C17.177,33.721,17,34.691,17,36h7.025C24.02,35.833,24,35.669,24,35.5z"/><path d="M24.231,38h-7.107c0.126,1.095,0.337,2.099,0.566,3h7.4C24.698,40.047,24.413,39.041,24.231,38z"/><path d="M26.085,43H17c0,0-1.519,0.57-1.91,1.875C15.033,45.067,15,45.275,15,45.5c0,1.475,1.122,2.5,3,2.5c0.969,0,1.704-0.204,2.566-0.747c0.72,0.496,1.577,0.744,2.434,0.744s1.714-0.248,2.434-0.744C26.296,47.796,27.031,48,28,48c0.901,0,1.623-0.241,2.135-0.65C28.504,46.201,27.121,44.724,26.085,43z"/><path d="M36.052,15.684c-0.93,2.788-3.147,3.802-5.472,4.148c0.127,0.641,0.23,1.305,0.3,1.998c2.575-0.378,5.762-1.594,7.068-5.513L36.052,15.684z"/><path d="M14.775,29.218l-2.191,1.378C12.032,30.861,11.417,31,10.803,31H8c-0.553,0-1,0.448-1,1s0.447,1,1,1h2.803c0.936,0,1.873-0.218,2.71-0.631c0.031-0.015,0.061-0.032,0.09-0.051l1.809-1.138C15.195,30.591,14.975,29.936,14.775,29.218z"/><path d="M14.02,24.576l-1.731,0.346C12.031,24.974,11.768,25,11.505,25H7c-0.553,0-1,0.448-1,1s0.447,1,1,1h4.505c0.394,0,0.79-0.039,1.177-0.117l1.528-0.305C14.11,25.926,14.046,25.256,14.02,24.576z"/><path d="M14.42,19.832c-2.325-0.346-4.542-1.36-5.472-4.148l-1.896,0.633c1.306,3.919,4.493,5.135,7.068,5.513C14.19,21.136,14.293,20.473,14.42,19.832z"/><path d="M22.5,22c3.303,0,5.092-3.347,5.487-4.184c-1.628-4.809-4.668-7.435-4.843-7.581h-1.287c-0.175,0.147-3.215,2.773-4.843,7.581C17.406,18.648,19.193,22,22.5,22z"/><path d="M22.5,24c-3.021,0-5.025-1.878-6.184-3.467C16.122,21.612,16,22.762,16,24c0,2.731,0.857,5.412,1.479,7h7.254c0.822-2.507,2.305-4.714,4.25-6.413v0C28.991,24.392,29,24.196,29,24c0-1.238-0.122-2.388-0.316-3.467C27.525,22.122,25.521,24,22.5,24z"/><path d="M47.159,41.435c-0.352,0.511-0.757,0.97-1.185,1.404c-0.046-0.276-0.197-0.531-0.454-0.689c-0.119-0.073-0.249-0.116-0.379-0.135c-0.386-0.059-0.788,0.112-1.007,0.463c-0.065,0.102-1.607,2.51-5.154,2.521c-1.233-0.002-2.288-0.431-3.134-1.276C34.484,42.365,34,40.329,34,38.875c0-3.19,1.395-5.123,4.265-5.911c3.357-0.921,4.553-2.029,5.425-2.838C44.473,29.4,44.904,29,47,29c0.553,0,1-0.448,1-1s-0.447-1-1-1c-0.002,0-0.003,0-0.005,0l-0.001,0c-0.363,0-1.003,0-1.003,0c-0.554,0-1.003-0.448-1.003-1c0-0.552,0.449-1,1.003-1c0.187,0,2.005,0,2.005,0C48.552,25,49,24.552,49,24s-0.448-1-1.003-1h-9.526c-3.201,0-6.116,1.213-8.334,3.19c0.878,1.365,2.087,2.57,3.087,2.847c0.534,0.147,0.846,0.699,0.698,1.231C33.8,30.71,33.397,31,32.958,31c-0.089,0-0.179-0.012-0.269-0.037c-1.384-0.383-2.864-1.697-3.978-3.286c-1.465,1.815-2.429,4.045-2.693,6.482c0.72,0.703,1.774,1.473,3.203,1.88c0.533,0.152,0.841,0.705,0.689,1.236C29.784,37.714,29.383,38,28.947,38c-0.092,0-0.184-0.013-0.276-0.039c-1.049-0.299-1.932-0.748-2.671-1.244C26.616,43.04,31.973,48,38.472,48c4.132,0,7.998-2.031,10.34-5.434c0.313-0.455,0.198-1.078-0.259-1.39C48.098,40.863,47.472,40.979,47.159,41.435z M41.981,25c0.554,0,1.003,0.451,1.003,1.008c0,0.557-0.449,0.992-1.003,0.992s-1.003-0.435-1.003-0.992C40.979,25.451,41.427,25,41.981,25z"/><path d="M41.7,36.835c0.094,0.027,0.189,0.041,0.281,0.041c0.435,0,0.835-0.284,0.963-0.721c0.155-0.53-0.15-1.085-0.682-1.24c-0.547-0.159-1.096-0.375-1.627-0.617c-0.048,0.017-0.102,0.034-0.151,0.052c-0.23,0.084-0.471,0.166-0.724,0.247c-0.012,0.004-0.026,0.008-0.038,0.012c-0.299,0.096-0.594,0.192-0.928,0.284c-0.188,0.052-0.355,0.114-0.523,0.177c-0.061,0.023-0.129,0.043-0.188,0.067c-0.031,0.013-0.055,0.03-0.086,0.043C39.079,35.807,40.38,36.451,41.7,36.835z"/><path d="M38.721,41c0.368,0,0.722-0.202,0.898-0.553c0.248-0.494,0.047-1.095-0.448-1.342c-1.116-0.556-2.106-1.349-2.895-2.095C36.095,37.529,36,38.138,36,38.875c0,0.177,0.025,0.382,0.046,0.584c0.668,0.526,1.414,1.03,2.228,1.436C38.418,40.966,38.571,41,38.721,41z"/><path style="stroke:#000000;stroke-width:2;stroke-miterlimit:10;" d="M20,2c0,0,0,5,2.5,9"/><path style="stroke:#000000;stroke-width:2;stroke-miterlimit:10;" d="M25,2c0,0,0,5-2.5,9"/></svg>