<?xml version="1.0" encoding="iso-8859-1"?>
<!-- Generator: Adobe Illustrator 24.1.1, SVG Export Plug-In . SVG Version: 6.00 Build 0)  -->
<svg version="1.1" id="&#x421;&#x43B;&#x43E;&#x439;_1"
	 xmlns="http://www.w3.org/2000/svg" xmlns:xlink="http://www.w3.org/1999/xlink" x="0px" y="0px" viewBox="0 0 50 50"
	 style="enable-background:new 0 0 50 50;" xml:space="preserve">
<path d="M46.747,18.226L46.747,18.226c-0.989-0.494-2.192-0.152-2.771,0.79L37,30.352h4l6.519-8.963
	C48.294,20.322,47.927,18.815,46.747,18.226z"/>
<path d="M37.702,47c0.215,0,0.435-0.032,0.64-0.098C44.894,44.769,47,38.722,47,35v-2c0-0.552-0.448-1-1-1H20.015
	c-0.548,0-0.994,0.438-1,0.986C19.008,33.636,19,34.462,19,35c0,3.723,2.16,9.769,8.714,11.902C27.919,46.969,28.138,47,28.353,47
	H37.702z"/>
<path d="M13,10v35h1h1h6.055C18.3,42.084,17,38.27,17,35c0-1.009,0.027-3.027,0.027-3.027l0.014-0.987
	c0.008-0.547,0.453-0.986,1-0.986h16.827L39,23.286V10H13z M25,25h-1c-2.209,0-4-1.791-4-4v-1h2c1.653,0,2.998,1.344,3,2.997V25z
	 M26.021,20c-0.008,0-0.015-0.005-0.024-0.005c-0.007,0-0.013,0.004-0.02,0.004c-0.715-0.946-1.744-1.64-2.944-1.894
	c0.092-0.952,0.528-1.881,1.325-2.61L26,13.996l1.641,1.5c0.798,0.729,1.234,1.658,1.325,2.61C27.766,18.36,26.736,19.054,26.021,20
	z M32,21c0,2.209-1.791,4-4,4h-1v-2c0-1.654,1.346-3,3-3h2V21z"/>
<g>
	<path d="M13.557,2H3.618C2.875,2,2.391,2.782,2.724,3.447L5,8h6.307L13.557,2z"/>
	<path d="M40.382,2H15.693l-2.25,6H39l2.276-4.553C41.609,2.782,41.125,2,40.382,2z"/>
</g>
<g>
	<path d="M7.945,15.627C7.756,15.863,7.47,16,7.167,16H5v28c0,0.552,0.448,1,1,1h5V11.835L7.945,15.627z"/>
	<polygon points="6.688,14 9.91,10 5,10 4.289,10 1.083,14 5,14 	"/>
</g>
</svg>