<?xml version="1.0" encoding="utf-8"?><!-- Generator: Adobe Illustrator 19.1.1, SVG Export Plug-In . SVG Version: 6.00 Build 0)  --><svg xmlns="http://www.w3.org/2000/svg" xmlns:xlink="http://www.w3.org/1999/xlink" viewBox="0 0 50 50" width="50px" height="50px"><path d="M40.2,2.3l-0.7-0.7L1.6,39.5l0.7,0.7C7.5,45.4,14.4,48,21.2,48s13.7-2.6,18.9-7.8C50.6,29.7,50.6,12.7,40.2,2.3z M21.3,26.2c0.1-0.1,1.8,0,2.6,0.9s1,2.1,0.9,2.2c-0.1,0.1-1.6,0-2.4-0.8C21.6,27.7,21.2,26.4,21.3,26.2z M21.5,31.4c-0.2,0.1-1.5-0.5-2-1.6c-0.5-1.1-0.4-2.5-0.2-2.5c0.2-0.1,1.6,0.7,2.1,1.8C21.9,30.1,21.6,31.3,21.5,31.4z M24,23.8c0.1-0.1,1.5,0.3,2.3,1.1c0.8,0.8,0.9,2.3,0.8,2.4c-0.1,0.1-1.4,0-2.2-0.9S23.9,23.9,24,23.8z M27.1,24c-0.9-0.9-1-2.5-0.9-2.6c0.1-0.1,1.5,0.3,2.3,1.1c0.8,0.8,0.9,2.3,0.8,2.4C29.2,25,28,24.8,27.1,24z M29.3,21.5c-1.1-0.5-1.8-2-1.7-2.2c0.1-0.2,1.5-0.2,2.6,0.3s1.6,1.9,1.6,2C31.6,21.7,30.4,22,29.3,21.5z M30.6,18.5c-1.1-0.3-1.9-1.5-1.8-1.7c0.1-0.2,1.3-0.4,2.3-0.1c1,0.3,1.7,1.4,1.7,1.6C32.7,18.4,31.7,18.8,30.6,18.5z M29.3,13.5c0.8,0.8,0.9,2.3,0.8,2.4c-0.1,0.1-1.4,0-2.2-0.9S28.5,12.6,29.3,13.5z M27.3,15.7c0.8,0.8,0.9,2.3,0.8,2.4c-0.1,0.1-1.4,0-2.2-0.9S26.5,14.9,27.3,15.7z M25.5,17.6c0.8,0.8,0.9,2.3,0.8,2.4c-0.1,0.1-1.4,0-2.2-0.9S24.7,16.7,25.5,17.6z M23.8,20c0.8,0.8,0.9,2.3,0.8,2.4c-0.1,0.1-1.4,0-2.2-0.9S23,19.2,23.8,20z M21.5,22.4c0.9,0.9,1,2.1,0.9,2.2c-0.1,0.1-1.6,0-2.4-0.8S20.6,21.6,21.5,22.4z M19.1,24.1c0.9,0.9,1,2.1,0.9,2.2c-0.1,0.1-1.6,0-2.4-0.8C16.7,24.7,18.2,23.2,19.1,24.1z M18.3,32.7c-0.1,0-1.3-0.7-1.6-1.7c-0.3-1,0-2.3,0.1-2.3c0.2-0.1,1.4,0.8,1.7,1.8C18.8,31.7,18.4,32.7,18.3,32.7z M17.2,25.9c0.9,0.9,1,2.1,0.9,2.2c-0.1,0.1-1.6,0-2.4-0.8S16.3,25,17.2,25.9z M15,27.9c0.9,0.9,1,2.1,0.9,2.2c-0.1,0.1-1.6,0-2.4-0.8C12.6,28.5,14.1,27,15,27.9z M36.2,36.2c-8,8-20.8,8.2-29.1,0.7l5-5c1.7,1.5,3.9,2.3,6.4,2.3c0.6,0,1.1,0,1.7-0.1c3.3-0.5,6.5-2.1,9.1-4.7c2.6-2.6,4.3-5.8,4.7-9.1c0.4-3.2-0.3-6-2.2-8.1l5-5C44.3,15.3,44.1,28.2,36.2,36.2z"/><path fill="none" stroke="#000000" stroke-width="2" stroke-miterlimit="10" d="M3,39.5L39.5,3"/><path fill="none" stroke="#000000" stroke-width="2" stroke-miterlimit="10" d="M12.5,30.8c3.8,3.8,11,2.8,16.1-2.3c5.1-5.1,6.1-12.3,2.3-16.1"/></svg>