<?xml version="1.0" encoding="iso-8859-1"?><!-- Generator: Adobe Illustrator 22.0.1, SVG Export Plug-In . SVG Version: 6.00 Build 0)  --><svg xmlns="http://www.w3.org/2000/svg" xmlns:xlink="http://www.w3.org/1999/xlink" viewBox="0 0 50 50" width="50px" height="50px"><g></g><g></g><path d="M22.035,6.467c-1.538-2.246-3.437-3.282-3.57-3.352c-0.488-0.258-1.089-0.069-1.347,0.418c-0.258,0.487-0.072,1.091,0.414,1.351c0.124,0.067,2.172,1.194,3.451,3.715C21.284,7.832,21.634,7.12,22.035,6.467z"/><path d="M45,24.111V29c0,2.414-1.721,4.434-4,4.899V41c0,0.552-0.447,1-1,1s-1-0.448-1-1v-7h-4v6c0,0.552-0.447,1-1,1s-1-0.448-1-1v-6h-4v7c0,0.552-0.447,1-1,1s-1-0.448-1-1v-7h-4v5c0,0.552-0.447,1-1,1s-1-0.448-1-1v-5h-3c-0.553,0-1,0.448-1,1v11c0,0.552,0.447,1,1,1h22c3.52,0,6.442-2.612,6.929-6C46.976,40.673,47,40.339,47,40V29C47,27.098,46.235,25.373,45,24.111z"/><path d="M33,3c-5.306,0-8.767,2.313-10.34,6.859c0.117,0.068,0.234,0.136,0.343,0.205C24.662,9.012,27.23,8,31,8c0.673,0,1.325,0.059,1.966,0.144C33.668,6.381,34,4.635,34,4C34,3.448,33.553,3,33,3z"/><path d="M40,32c0.464,0,0.898-0.115,1.29-0.303C42.415,28.776,43,25.763,43,23c0-7.654-4.935-13-12-13c-4.391,0-6.846,1.525-8,2.547C21.846,11.525,19.391,10,15,10C7.935,10,3,15.346,3,23c0,7.106,3.774,15.896,11,20.408c0,0,0.485,0.313,1,0.592v-9c0-1.657,1.343-3,3-3H40z"/></svg>