<?xml version="1.0" encoding="utf-8"?><!-- Generator: Adobe Illustrator 15.0.0, SVG Export Plug-In . SVG Version: 6.00 Build 0)  --><!DOCTYPE svg PUBLIC "-//W3C//DTD SVG 1.1//EN" "http://www.w3.org/Graphics/SVG/1.1/DTD/svg11.dtd"><svg xmlns="http://www.w3.org/2000/svg" xmlns:xlink="http://www.w3.org/1999/xlink" viewBox="0 0 50 50" width="50px" height="50px"><path fill="none" stroke="#000000" stroke-width="2" stroke-linecap="round" stroke-linejoin="round" stroke-miterlimit="10" d="M35.082,26.055c0.126,0.01,0.251,0.022,0.38,0.022c3.06,0,5.539-2.48,5.539-5.538S38.521,15,35.461,15c-2.559,0-4.691,1.74-5.322,4.098"/><path d="M33.234,22.046C31.057,19.116,29,16.349,29,14V8c0.553,0,1-0.448,1-1s-0.447-1-1-1h-1h-1V3c0-0.552-0.447-1-1-1h-6c-0.552,0-1,0.448-1,1v3h-1h-1c-0.552,0-1,0.448-1,1s0.448,1,1,1v6c0,2.268-2.017,4.968-4.153,7.828C10.106,25.498,7,29.657,7,34.368c0,8.446,5.897,13.217,6.148,13.416C13.325,47.924,13.543,48,13.769,48H32.23c0.232,0,0.458-0.081,0.637-0.229C33.118,47.563,39,42.608,39,34.368C39,29.807,35.937,25.684,33.234,22.046z M14.45,23.024C16.79,19.891,19,16.932,19,14V8h8v6c0,3.01,2.248,6.036,4.629,9.239c1.634,2.199,3.301,4.444,4.335,6.761H9.996C11.041,27.591,12.763,25.283,14.45,23.024z"/></svg>