<?xml version="1.0" encoding="utf-8"?><!-- Generator: Adobe Illustrator 15.0.0, SVG Export Plug-In . SVG Version: 6.00 Build 0)  --><!DOCTYPE svg PUBLIC "-//W3C//DTD SVG 1.1//EN" "http://www.w3.org/Graphics/SVG/1.1/DTD/svg11.dtd"><svg xmlns="http://www.w3.org/2000/svg" xmlns:xlink="http://www.w3.org/1999/xlink" viewBox="0 0 50 50" width="50px" height="50px"><path fill="none" stroke="#000000" stroke-width="4" stroke-miterlimit="10" d="M20,0C20,9,8,14,8,26c0,9.9,8,17,17,17s17-7.1,17-17C42,15,30,8,30,0"/><g><path d="M24.971,10.539c0.144,0.182,0.288,0.364,0.434,0.547C29.233,15.923,34,21.941,34,26c0,5.559-4.672,9-9,9s-9-3.441-9-9c0-4.203,4.93-10.39,8.891-15.361C24.918,10.606,24.944,10.573,24.971,10.539 M25,4c-5,6.7-13,15.016-13,22c0,7.7,6.391,13,13,13s13-5.3,13-13C38,18.969,29.6,10.4,25,4L25,4z"/></g><path fill="none" stroke="#000000" stroke-width="4" stroke-miterlimit="10" d="M30,25.984C30,28.877,27.893,31,25,31s-5-2.107-5-5s3.159-6.258,5-8.625C26.666,19.479,30,23.092,30,25.984z"/><path d="M26.022,25.971c0,0.562-0.46,1.022-1.022,1.022c-0.563,0-1.022-0.461-1.022-1.022c0-0.563,0.665-1.278,1.022-1.739C25.307,24.641,26.022,25.408,26.022,25.971z"/><line fill="none" stroke="#000000" stroke-width="2" stroke-linecap="round" stroke-linejoin="round" stroke-miterlimit="10" x1="22" y1="48" x2="24" y2="44"/><line fill="none" stroke="#000000" stroke-width="2" stroke-linecap="round" stroke-linejoin="round" stroke-miterlimit="10" x1="28" y1="48" x2="26" y2="44"/><line fill="none" stroke="#000000" stroke-width="2" stroke-linecap="round" stroke-linejoin="round" stroke-miterlimit="10" x1="30" y1="46" x2="26" y2="44"/><line fill="none" stroke="#000000" stroke-width="2" stroke-linecap="round" stroke-linejoin="round" stroke-miterlimit="10" x1="20" y1="46" x2="24" y2="44"/><line fill="none" stroke="#000000" stroke-width="2" stroke-linecap="round" stroke-linejoin="round" stroke-miterlimit="10" x1="25" y1="49" x2="25" y2="44"/></svg>