<?xml version="1.0" encoding="utf-8"?><!-- Generator: Adobe Illustrator 23.0.2, SVG Export Plug-In . SVG Version: 6.00 Build 0)  --><svg xmlns="http://www.w3.org/2000/svg" xmlns:xlink="http://www.w3.org/1999/xlink" viewBox="0 0 50 50" width="50px" height="50px"><path d="M5,22v-3c0-1.6,1.3-3,3-3h9.2c-0.1,2-0.2,4.1-0.2,6H5z"/><path d="M10,11c-0.1,0-0.2,0-0.3-0.1C8.5,10.6,6.6,10,6,10c-0.5,0-1.1,0.5-1.3,0.7c-0.4,0.4-1,0.4-1.4,0c-0.4-0.4-0.4-1,0-1.4C3.5,9.1,4.6,8,6,8c1.1,0,3.8,0.9,4.3,1.1C10.8,9.2,10.4,11,10,11z"/><path d="M16,13v4c0,0.5-0.4,1-1,1H9c-0.6,0-1-0.5-1-1v-4c0-0.6,0.4-1,1-1h6C15.6,12,16,12.4,16,13z"/><path d="M14,14h-4c-0.6,0-1-0.4-1-1V9c0-0.6,0.4-1,1-1h4c0.6,0,1,0.4,1,1v4C15,13.6,14.6,14,14,14z M11,12h2v-2h-2V12z"/><path d="M32,6.5C30.9,3.8,29.2,2,26.5,2c-6.7,0-7.4,11.1-7.5,20h10.2c0.3-2.6,0.9-5.3,1.3-7.3C30.2,14.2,30,13.6,30,13v-3C30,8.5,30.8,7.2,32,6.5z M24.3,19c-2,0.2-2.7-0.9-2-1.8L28,17C27.2,17.9,26.3,18.8,24.3,19z M24.3,13c-2,0.2-2.7-0.9-2-1.8L28,11C27.2,11.9,26.3,12.8,24.3,13z"/><path d="M31.2,22c0.4-3.1,1.1-6.3,1.5-8c-0.4-0.1-0.7-0.5-0.7-1v-3c0-1.1,0.9-2,2-2h8c1.1,0,2,0.9,2,2v3c0,0.4-0.3,0.8-0.7,0.9c0.2,0.8,0.4,1.9,0.7,3.5c0.2,1.3,0.5,3,0.7,4.6H31.2z"/><path d="M36,32h9v1c0,0.1,0,0.2,0,0.3L41.4,44c-0.4,1.2-1.6,2-2.8,2H11.4c-1.3,0-2.4-0.8-2.8-2L5.1,33.3C5,33.2,5,33.1,5,33v-1h9v7h4v-7h5v7h4v-7h5v7h4V32z"/><path d="M48,26v2c0,1.1-0.9,2-2,2H4c-1.1,0-2-0.9-2-2v-2c0-1.1,0.9-2,2-2h42C47.1,24,48,24.9,48,26z"/></svg>