<?xml version="1.0" encoding="utf-8"?><!-- Generator: Adobe Illustrator 15.0.0, SVG Export Plug-In . SVG Version: 6.00 Build 0)  --><!DOCTYPE svg PUBLIC "-//W3C//DTD SVG 1.1//EN" "http://www.w3.org/Graphics/SVG/1.1/DTD/svg11.dtd"><svg xmlns="http://www.w3.org/2000/svg" xmlns:xlink="http://www.w3.org/1999/xlink" viewBox="0 0 50 50" width="50px" height="50px"><path d="M48.037,21.425C48,23,47.879,24.363,47.408,25.213c-0.717,1.292-2.339,2.863-5.995,3.006c-1.122-0.008-2.309-0.197-3.564-0.563c-1.675,1.51-4.327,2.387-7.24,2.343c-2.145-0.025-4.028-0.465-5.608-1.308c-1.58,0.843-3.463,1.282-5.608,1.308C19.337,30,19.283,30,19.229,30c-2.853,0-5.435-0.862-7.078-2.344c-1.255,0.366-2.436,0.556-3.517,0.564c-3.764-0.182-5.383-1.755-6.089-3.043C2.086,24.341,2,23,1.944,21.438C1.082,21.984,0,23.032,0,24.614c0,1.604,0.714,2.75,1.415,3.874c0.926,1.487,3.681,5.816,5.009,7.9c0.614,0.965,1.553,1.696,2.643,2.06C11.924,39.401,17.793,41,25,41c7.195,0,13.074-1.599,15.939-2.553c1.087-0.363,2.023-1.093,2.637-2.053c1.19-1.858,4.052-6.354,4.925-7.956c0.123-0.227,0.256-0.446,0.387-0.664C49.409,26.908,50,25.926,50,24.614C50,23.022,48.902,21.968,48.037,21.425z"/><path d="M4.299,24.216c0.834,1.522,2.84,1.93,4.376,2.005c0.985-0.01,2.163-0.227,3.442-0.648l0.618-0.204l0.436,0.483c1.243,1.374,3.554,2.208,6.198,2.146c2.047-0.024,3.718-0.453,5.105-1.311L25,26.363l0.526,0.325c1.388,0.857,3.058,1.286,5.106,1.311c2.625,0.058,4.955-0.772,6.196-2.146l0.437-0.483l0.618,0.203c1.28,0.421,2.458,0.639,3.499,0.647c1.458-0.059,3.43-0.449,4.276-1.977C46.494,22.738,46,19,44.618,17.411C40.217,13.551,32.228,10,25,10c-7.229,0-15.221,3.553-19.622,7.414C4,19,3.485,22.732,4.299,24.216z M30.646,15.958c0.351-0.425,0.981-0.486,1.408-0.133l1.833,1.516c0.425,0.352,0.485,0.982,0.133,1.408c-0.197,0.239-0.483,0.363-0.771,0.363c-0.224,0-0.45-0.075-0.637-0.229l-1.833-1.516C30.354,17.014,30.294,16.384,30.646,15.958z M24,18.373c0-0.552,0.448-1,1-1s1,0.448,1,1v2.515c0,0.552-0.448,1-1,1s-1-0.448-1-1V18.373z M16.113,17.34l1.833-1.516c0.426-0.352,1.056-0.292,1.408,0.133s0.292,1.056-0.133,1.408l-1.833,1.516c-0.187,0.154-0.412,0.229-0.637,0.229c-0.288,0-0.573-0.124-0.771-0.363C15.627,18.322,15.687,17.692,16.113,17.34z"/></svg>