<?xml version="1.0" encoding="utf-8"?><!-- Generator: Adobe Illustrator 15.0.0, SVG Export Plug-In . SVG Version: 6.00 Build 0)  --><!DOCTYPE svg PUBLIC "-//W3C//DTD SVG 1.1//EN" "http://www.w3.org/Graphics/SVG/1.1/DTD/svg11.dtd"><svg xmlns="http://www.w3.org/2000/svg" xmlns:xlink="http://www.w3.org/1999/xlink" viewBox="0 0 50 50" width="50px" height="50px"><path d="M34.058,28.169c-0.979,0.061-2.189-0.133-2.952-0.748c-0.693-0.56-1.176-1.596-1.292-2.617c-1.062-0.032-2.01-0.298-2.812-0.769c-0.293,1.206-1.042,2.27-2.155,2.94c-1.163,0.699-2.481,0.856-3.696,0.48c-0.068,0.245-0.161,0.484-0.268,0.718c2.893,0.167,4.287,1.954,4.992,3.428c0.806-0.608,1.778-1.019,2.766-1.139c0.915-0.109,1.796,0.033,2.575,0.41c0.828-1.133,2.037-1.764,3.195-1.986C34.282,28.655,34.161,28.419,34.058,28.169z"/><path d="M14.052,12.015c-0.14-0.383-0.249-0.764-0.338-1.142c-0.041-0.171-0.065-0.34-0.096-0.51c-0.038-0.214-0.073-0.428-0.095-0.639c-0.022-0.204-0.034-0.406-0.042-0.608c-0.005-0.161-0.003-0.32,0.001-0.479c0.005-0.233,0.013-0.464,0.038-0.693c0.008-0.065,0.022-0.128,0.031-0.193c0.125-0.926,0.415-1.815,0.863-2.659c0.003-0.005,0.005-0.011,0.008-0.016c0.158-0.296,0.336-0.585,0.534-0.869c0,0,0.001-0.001,0.001-0.002c-1.274,0.278-2.75,0.908-4.06,2.262c-1.723,1.781-2.258,3.973-2.182,5.73c-2.174,0.499-5.601,2.22-6.734,5.843c-1.221,3.909,0.625,7.694,2.686,9.454c-1.147,2.077-0.916,5.297,0.281,7.009c1.68,2.407,4.332,2.911,6.258,2.911c0.88,0,1.601-0.104,2.016-0.182C10.01,34.137,8,29.803,8,25C8,19.795,10.356,15.135,14.052,12.015z"/><path d="M45.11,20.862c1.733-2.767,1.796-6.409,0.054-8.821c-1.451-2.011-3.869-3.091-6.396-2.937c0.111-3.009-1.553-6.444-6.744-7.809c-1.958-0.514-4.999,0.063-6.98,1.822c-2.207-1.292-5.583-0.683-7.319,0.919c-2.026,1.87-2.687,4.182-1.966,6.714C18.422,9.018,21.592,8,25,8c9.374,0,17,7.626,17,17c0,2.343-0.477,4.577-1.338,6.609c2.04-0.315,3.756-1.384,4.748-2.994c0.841-1.366,1.135-3.817,0.685-5.701C45.896,22.086,45.563,21.393,45.11,20.862z"/><path d="M10.772,29.721c0.668,0.25,1.588,0.48,1.981,0.371c0.37-0.105,0.905-0.671,1.215-1.548c0.097-0.274,0.309-0.493,0.581-0.599c0.273-0.106,0.577-0.087,0.833,0.05c0.975,0.52,1.752,0.848,2.872,0.328c0.595-0.276,1.184-1.548,1.033-2.229c-0.091-0.412,0.085-0.836,0.441-1.062c0.356-0.225,0.816-0.203,1.148,0.056c0.881,0.685,1.978,0.75,2.938,0.173c0.781-0.47,1.529-1.468,1.286-2.858c-0.022-0.125-0.014-0.246,0.009-0.363c-0.628-1.204-0.809-2.681-0.504-4.12c-1.694-0.307-3.173-1.31-4.037-2.796c-0.756-1.301-0.924-2.784-0.541-4.259C14.197,12.922,10,18.473,10,25C10,26.65,10.278,28.234,10.772,29.721z"/><path d="M36.18,30.915c-0.092-0.007-0.184-0.011-0.273-0.045c-0.691-0.262-2.684,0.037-3.428,1.806c-0.125,0.297-0.385,0.515-0.698,0.587c-0.314,0.071-0.642-0.011-0.884-0.224c-0.692-0.607-1.477-0.655-2.015-0.592c-0.993,0.121-2,0.722-2.563,1.53c-0.188,0.271-0.496,0.429-0.82,0.429c-0.049,0-0.098-0.004-0.148-0.011c-0.375-0.057-0.687-0.32-0.804-0.683c-0.505-1.567-1.436-4.455-6.158-3.278c-0.058,0.015-0.113,0.004-0.171,0.008c-1.124,0.28-2.09,0.069-2.832-0.229c-0.474,0.806-1.178,1.543-2.083,1.801c-0.25,0.071-0.522,0.102-0.8,0.102c-0.243,0-0.49-0.026-0.733-0.063C14.297,36.777,19.277,40,25,40c5.772,0,10.785-3.282,13.292-8.074C37.518,31.712,36.802,31.377,36.18,30.915z"/><path d="M22.415,10.239c-0.741,1.352-0.792,2.719-0.116,3.88c0.717,1.233,2.104,1.962,3.601,1.896c0.35-0.017,0.672,0.149,0.867,0.434c0.194,0.285,0.229,0.649,0.092,0.965c-0.614,1.407-0.507,3.057,0.268,4.104c0.983,1.331,2.684,1.353,3.612,1.248c0.335-0.037,0.651,0.089,0.866,0.336c0.217,0.248,0.297,0.585,0.217,0.904c-0.138,0.541,0.155,1.548,0.54,1.859c0.387,0.312,1.535,0.4,2.078,0.234c0.258-0.079,0.538-0.051,0.775,0.08s0.411,0.352,0.482,0.612c0.477,1.746,1.727,2.934,3.399,3.286C39.671,28.488,40,26.784,40,25c0-3.508-1.22-6.732-3.245-9.29c0.108,2.979-1.293,5.495-1.379,5.644c-0.185,0.323-0.521,0.504-0.869,0.504c-0.168,0-0.339-0.042-0.495-0.132c-0.479-0.274-0.646-0.884-0.373-1.363c0.045-0.08,2.251-4.109,0.311-7.373C31.447,11.121,28.355,10,25,10C24.117,10,23.256,10.092,22.415,10.239z"/><path d="M40.39,33.669c-0.093,0.008-0.184,0.013-0.273,0.013c-0.173,0-0.34-0.022-0.504-0.054C36.654,38.63,31.222,42,25,42c-0.724,0-1.432-0.061-2.131-0.148c0.792,2.385,2.428,4.154,4.472,4.769c0.578,0.173,1.26,0.265,1.972,0.265c1.482,0,2.914-0.376,3.957-1.025c0.821,0.29,1.863,0.461,2.865,0.461c1.368,0,2.605-0.312,3.576-0.901c1.964-1.195,3.173-4.081,2.813-6.376c1.763-0.992,2.849-2.331,3.309-4.074c0.3-1.134,0.202-2.41-0.188-3.559C44.258,32.666,42.439,33.47,40.39,33.669z"/><path d="M20.971,42.481l-0.358-1.078c-1.953-0.521-3.77-1.376-5.38-2.512l-1.644,0.306c-0.528,0.099-1.37,0.216-2.381,0.216c-1.126,0-2.182-0.155-3.159-0.442c0.031,1.273,0.368,2.755,1.401,4.174c1,1.375,2.959,2.195,5.242,2.195c0.467,0,0.93-0.037,1.37-0.109c1.047,1.358,3.062,2.607,5.311,2.608h0c0.201,0,0.403-0.011,0.606-0.032c0.875-0.092,1.614-0.319,2.246-0.594C22.771,46.097,21.632,44.474,20.971,42.481z"/></svg>