<?xml version="1.0" encoding="iso-8859-1"?><!-- Generator: Adobe Illustrator 21.0.2, SVG Export Plug-In . SVG Version: 6.00 Build 0)  --><svg xmlns="http://www.w3.org/2000/svg" xmlns:xlink="http://www.w3.org/1999/xlink" viewBox="0 0 50 50" width="50px" height="50px"><g><path d="M41.091,17.829c-1.096-1.066-1.784-2.452-1.937-3.901c-0.002-0.02-0.001-0.04-0.003-0.061C32.527,20.173,11.661,40.324,11.206,40.8c-0.545,0.559-2.434,2.814,0.03,5.359c1.848,1.906,3.838,1.367,4.666,0.549c0.494-0.488,22.591-21.384,28.698-27.126C43.309,19.383,42.074,18.786,41.091,17.829z"/></g><g><path d="M28.351,11.304c-0.859,0-1.709-0.189-2.511-0.534C22.495,15.64,7.286,37.722,7.286,37.722c0.66-1.088,13.915-22.946,16.94-27.946c-0.927-0.762-1.627-1.738-2.001-2.837C17.787,13.955,2.875,37.951,2.564,38.503c-0.368,0.638-1.577,3.161,1.326,4.951c2.167,1.342,3.89,0.39,4.47-0.552c0.345-0.574,16.466-25.293,20.558-31.631C28.729,11.288,28.54,11.304,28.351,11.304z"/></g><g><g><path d="M47.74,11.178c-1.579-1.536-4.041-1.575-5.489-0.087c-1.447,1.488-1.34,3.949,0.239,5.484c0.754,0.734,1.732,1.153,2.754,1.18c0.035,0.001,0.07,0.001,0.105,0.001c1.011,0,1.942-0.386,2.63-1.093C49.426,15.174,49.318,12.713,47.74,11.178z M46.311,14.87c-0.563,0.502-1.494,0.121-1.907-0.32c-0.407-0.447-0.753-1.457-0.295-1.86c0.346-0.304,0.764-0.315,0.981-0.05c0.245,0.304,0.363,0.917,0.034,1.215c0.295-0.066,0.859-0.272,1.27,0.071C46.712,14.258,46.523,14.683,46.311,14.87z"/></g></g><g><g><path d="M31.645,5.172C31.41,4.178,30.8,3.306,29.927,2.718c-0.873-0.588-1.909-0.826-2.919-0.672c-1.04,0.16-1.927,0.714-2.498,1.56c-1.16,1.721-0.619,4.124,1.208,5.355c0.717,0.483,1.526,0.715,2.315,0.715c1.223,0,2.397-0.558,3.102-1.604C31.707,7.226,31.887,6.196,31.645,5.172z M29.179,6.623c-0.273,0.347-0.667,0.43-0.919,0.217c-0.286-0.245-0.505-0.805-0.247-1.144c-0.268,0.114-0.765,0.406-1.214,0.153c-0.359-0.258-0.255-0.693-0.087-0.907c0.444-0.573,1.392-0.373,1.86-0.027C29.035,5.267,29.54,6.163,29.179,6.623z"/></g></g></svg>