<?xml version="1.0" encoding="iso-8859-1"?>
<!-- Generator: Adobe Illustrator 24.0.1, SVG Export Plug-In . SVG Version: 6.00 Build 0)  -->
<svg version="1.1" id="&#x421;&#x43B;&#x43E;&#x439;_1"
	 xmlns="http://www.w3.org/2000/svg" xmlns:xlink="http://www.w3.org/1999/xlink" x="0px" y="0px" viewBox="0 0 50 50"
	 style="enable-background:new 0 0 50 50;" xml:space="preserve">
<path style="fill:none;stroke:#000000;stroke-width:2;stroke-linejoin:round;" d="M45,27v2.385C45,36.062,40.41,44.259,33.75,47
	c-5,0-12.5,0-17.5,0C9.591,44.259,5,36.061,5,29.385v-2.319 M21,47c-6.659-2.741-10-11.324-10-18 M24,47c-5.706-5.339-6-11.324-6-18
	"/>
<path style="fill:none;stroke:#000000;stroke-width:2;stroke-linejoin:round;" d="M32,29c0,6.676-0.294,12.661-6,18"/>
<path style="fill:none;stroke:#000000;stroke-width:2;stroke-linejoin:round;" d="M39,29c0,6.676-3.341,15.259-10,18"/>
<path style="fill:none;stroke:#000000;stroke-width:2;stroke-linejoin:round;" d="M9,24.563V19c0-8.837,7.163-16,16-16
	s16,7.163,16,16v5.563"/>
<path d="M25,30c-13.279,0-20.523-2.029-20.825-2.116c-0.77-0.22-1.408-0.727-1.797-1.427c-0.39-0.701-0.482-1.511-0.263-2.281
	c0.455-1.586,2.116-2.514,3.704-2.062C5.883,22.132,12.745,24,25,24s19.117-1.868,19.185-1.887c0.765-0.216,1.574-0.122,2.273,0.268
	c0.701,0.391,1.208,1.03,1.427,1.8c0.452,1.589-0.473,3.251-2.061,3.704C45.523,27.971,38.279,30,25,30z"/>
<path style="fill:none;stroke:#000000;stroke-width:2;" d="M44.551,33.173C42.148,33.728,35.491,35,25,35S7.853,33.728,5.45,33.173"
	/>
<path style="fill:none;stroke:#000000;stroke-width:2;" d="M41.65,39.746C38.238,40.326,32.634,41,25,41
	c-7.781,0-13.453-0.7-16.844-1.288"/>
<line style="fill:none;stroke:#000000;stroke-width:2;stroke-linejoin:round;" x1="25" y1="29" x2="25" y2="47"/>
<path style="fill:none;stroke:#000000;stroke-width:2;" d="M36.882,24.622c0.296-1.41,0.032-2.94-0.865-4.23
	c-1.735-2.493-5.162-3.146-7.655-1.46c-1.294,0.875-2.624,2.58-3.366,4.366"/>
<path style="fill:none;stroke:#000000;stroke-width:2;" d="M30.397,18.001c0.145-1.816-0.229-3.554-1.429-4.417
	c-2.401-1.727-7.197,0.698-8.95,3.051c-0.122,0.164-0.231,0.334-0.331,0.506"/>
<path style="fill:none;stroke:#000000;stroke-width:2;" d="M24.873,24.836c0.391-1.801-0.095-3.753-1.468-5.138
	c-2.131-2.15-7.316-3.867-9.438-1.676c-1.447,1.495-1.095,4.421-0.049,6.814"/>
</svg>