<?xml version="1.0" encoding="utf-8"?><!-- Generator: Adobe Illustrator 15.0.0, SVG Export Plug-In . SVG Version: 6.00 Build 0)  --><!DOCTYPE svg PUBLIC "-//W3C//DTD SVG 1.1//EN" "http://www.w3.org/Graphics/SVG/1.1/DTD/svg11.dtd"><svg xmlns="http://www.w3.org/2000/svg" xmlns:xlink="http://www.w3.org/1999/xlink" viewBox="0 0 50 50" width="50px" height="50px"><path d="M39.244,36.704c-0.682-1.683-1.453-3.588-2.078-5.962c-0.466-1.747-0.479-3.491-0.489-5.18C36.65,21.845,36.624,18,30.4,18C21.797,18,14,33.479,14,39.5C14,46.173,18.556,50,26.5,50c6.751,0,14.5-0.762,14.5-6.7C41,41.042,40.188,39.031,39.244,36.704z M24.4,34.6c-1.6-0.199-0.8-3.8,0.7-5.898c1.5-2.102,3.6-2.9,4.5-1.9c0.7,0.801-1.398,0.801-3,3.4C25.2,32.6,25.2,34.7,24.4,34.6z M34.9,43.9C33.7,44.7,26,45.2,26,44.3c0-1,4.9-0.899,6.2-2.899c0.7-1-0.3-7,0.5-7.301C33.4,33.9,36.7,42.6,34.9,43.9z"/><path d="M12,39.5C12,32.876,20.16,16,30.4,16c0.397,0,0.762,0.025,1.123,0.053c-2.32-1.68-5.78-3.995-10.886-7.296c-0.923-0.588-1.939-0.887-3.02-0.887C10.023,7.87,1.8,22.437,1.8,27.3c0,4.315,5.481,12.443,11.221,17.521C12.352,43.266,12,41.484,12,39.5z"/><g><path fill="none" stroke="#000000" stroke-width="2" stroke-linejoin="round" stroke-miterlimit="10" d="M34.3,16.4c2.2-2.5,6.7-5.6,8.7-6.5c1-0.4,0.9-1.2,0.2-1.9c-0.601-0.6-1.3-1.3-1.9-1.9c-0.8-0.7-1.7-0.5-2.6,0.2c0,0-3.9,3-7.3,7.9"/><path fill="none" stroke="#000000" stroke-width="2" stroke-linejoin="round" stroke-miterlimit="10" d="M28.2,11.8c2-2.9,4.1-4.7,5.6-6.1c0.7-0.6,0.601-1.1-0.1-1.6c-0.601-0.4-1.3-0.9-1.8-1.3c-0.7-0.5-1.5-0.3-2.2,0.5C29,4.1,27.5,6,25.1,9.8"/><path fill="none" stroke="#000000" stroke-width="2" stroke-linejoin="round" stroke-miterlimit="10" d="M21.9,7.7c1.4-2.6,2.4-3.4,3.6-4c0.7-0.4,0.5-1-0.1-1.4c-0.5-0.3-1.1-0.7-1.6-1.1c-0.6-0.4-1.4,0.1-1.9,0.5c0,0-2.3,1.8-3.1,4.9"/></g></svg>