<?xml version="1.0" encoding="iso-8859-1"?><!-- Generator: Adobe Illustrator 21.0.0, SVG Export Plug-In . SVG Version: 6.00 Build 0)  --><svg xmlns="http://www.w3.org/2000/svg" xmlns:xlink="http://www.w3.org/1999/xlink" viewBox="0 0 50 50" width="500px" height="500px"><path style="fill:none;stroke:#000000;stroke-width:2;stroke-linecap:round;stroke-miterlimit:10;" d="M44,27c0,0,0-2-1.018-2.822C42.986,24.118,43,24.061,43,24c0-1.657-1.343-3-3-3c-0.047,0-0.091,0.012-0.137,0.014C39.422,19.284,37.867,18,36,18c-1.258,0-2.367,0.593-3.1,1.5C32.333,19.192,31.692,19,31,19c-0.38,0-0.741,0.07-1.089,0.169C29.528,17.359,27.924,16,26,16c-1.876,0-3.438,1.296-3.871,3.039C21.923,19.015,21.713,19,21.5,19c-0.701,0-1.368,0.136-1.984,0.375C18.982,18.549,18.057,18,17,18c-0.5,0-0.963,0.134-1.378,0.35C15.126,18.129,14.579,18,14,18c-2.209,0-4,1.791-4,4c-2.166,0-3.93,1.722-3.998,3.871C6.001,25.914,6,26.957,6,27"/><path d="M15.188,5.48c-0.109-0.635-0.503-1.163-1.08-1.45c-0.567-0.283-1.245-0.278-1.809,0.013L4.063,8.298c-0.564,0.292-0.96,0.84-1.059,1.468c-0.098,0.627,0.11,1.271,0.558,1.72l8.077,8.121l1.418-1.41l2.303,0.037l1.971-0.34L15.188,5.48z M9,12c-0.552,0-1-0.448-1-1c0-0.552,0.448-1,1-1s1,0.448,1,1C10,11.552,9.552,12,9,12z M12,12c-0.552,0-1-0.448-1-1c0-0.552,0.448-1,1-1s1,0.448,1,1C13,11.552,12.552,12,12,12z"/><path d="M22.236,5.897c-0.514-0.388-1.163-0.505-1.78-0.319l-3.063,0.92l1.908,11.055l0.197,1.142L21.031,19l2-1.458V7.521C23.04,6.877,22.75,6.286,22.236,5.897z"/><path d="M36,17l-3.098,1.758l2.052-7.28c0.157-0.559,0.577-1.015,1.122-1.219c0.544-0.203,1.16-0.135,1.647,0.185l6.45,4.231c0.486,0.319,0.795,0.856,0.825,1.437c0.03,0.581-0.221,1.146-0.671,1.514l-3.999,3.263l-1.265-1.55L36,17z"/><path d="M47.163,33c0.43-1.514,0.727-3.153,0.812-4.933c0.025-0.538-0.167-1.05-0.542-1.443C47.054,26.228,46.523,26,45.975,26H4.025c-0.549,0-1.08,0.228-1.458,0.625C2.192,27.018,2,27.531,2.025,28.068C2.095,29.51,2.33,31.191,2.85,33H47.163z"/><path d="M3.532,35c1.169,2.959,3.163,6.151,6.511,9.19c0.103,0.093,0.18,0.163,0.227,0.209c1.684,1.675,4.967,1.626,10.405,1.542c1.313-0.02,2.754-0.042,4.325-0.042c1.696,0,3.228,0.03,4.605,0.057C30.736,45.98,31.769,46,32.711,46c3.329,0,5.53-0.252,6.977-1.56l0.114-0.099c1.987-1.718,4.93-4.833,6.697-9.341H3.532z"/><circle cx="26" cy="26" r="1"/><circle cx="33" cy="24" r="1"/><circle cx="18" cy="24" r="1"/><circle cx="15" cy="22" r="1"/></svg>