<?xml version="1.0" encoding="iso-8859-1"?><!-- Generator: Adobe Illustrator 22.1.0, SVG Export Plug-In . SVG Version: 6.00 Build 0)  --><svg xmlns="http://www.w3.org/2000/svg" xmlns:xlink="http://www.w3.org/1999/xlink" viewBox="0 0 50 50" width="50px" height="50px"><circle cx="22" cy="38" r="1"/><circle cx="22" cy="44" r="1"/><circle cx="28" cy="44" r="1"/><circle cx="19" cy="41" r="1"/><circle cx="25" cy="41" r="1"/><circle cx="13" cy="41" r="1"/><circle cx="13" cy="47" r="1"/><circle cx="19" cy="47" r="1"/><circle cx="25" cy="47" r="1"/><circle cx="31" cy="47" r="1"/><circle cx="7" cy="47" r="1"/><circle cx="16" cy="38" r="1"/><circle cx="10" cy="44" r="1"/><circle cx="16" cy="44" r="1"/><circle cx="17" cy="12" r="1"/><circle cx="14" cy="15" r="1"/><circle cx="20" cy="15" r="1"/><line style="fill:none;stroke:#000000;stroke-width:2;stroke-linecap:round;stroke-miterlimit:10;" x1="1" y1="19" x2="4" y2="19"/><path style="fill:none;stroke:#000000;stroke-width:2;stroke-linecap:round;stroke-linejoin:round;stroke-miterlimit:10;" d="M6,19C6,19,7.75,8.011,19,3c11.25,5.011,13,16,13,16"/><path d="M46.5,18C46.385,18,3,18,3,18v1c0,8.284,7.163,15,16,15c6.559,0,12.19-3.704,14.66-9c0,0,12.783,0,12.84,0c1.933,0,3.5-1.567,3.5-3.5S48.433,18,46.5,18z"/></svg>