<?xml version="1.0" encoding="iso-8859-1"?><!-- Generator: Adobe Illustrator 21.1.0, SVG Export Plug-In . SVG Version: 6.00 Build 0)  --><svg xmlns="http://www.w3.org/2000/svg" xmlns:xlink="http://www.w3.org/1999/xlink" viewBox="0 0 50 50" width="500px" height="500px"><g><path d="M31.63,20.735c-0.859,0.84-0.915,1.716-0.389,2.272c0.525,0.556,1.432,0.579,2.292-0.261c0.858-0.84,1.103-2.482,0.819-2.782C34.069,19.666,32.49,19.895,31.63,20.735z"/><path d="M25,2C12.317,2,2,12.317,2,25s10.317,23,23,23s23-10.317,23-23S37.683,2,25,2z M29.006,11.035c1.277-0.226,2.58,0.677,2.994,1.838c-0.036,0.888-0.522,1.581-2.333,2.052c-1.281,0.364-2.461-0.67-2.644-1.669C26.841,12.257,27.729,11.262,29.006,11.035z M29.247,29.027c0.152,0.058,0.236,0.178,0.279,0.314c0.026-0.017,0.053-0.032,0.08-0.045c0.215-0.103,0.327-0.017,0.394,0.044c0,0-0.086,1.417-0.101,1.382c-0.211,0.955-0.185,2.539-2.134,3.805c-0.016,0.011-0.033,0.02-0.051,0.029c-0.544,0.26-1.793-0.464-2.414-1.078c-0.287-0.437-0.315-0.694-0.301-1.104c0.353-1.125,1.364-2.169,3.491-3.19C28.857,29.007,29.076,28.962,29.247,29.027z M27.207,17.945c0.644,0.694,0.891,1.987,0.756,3.952c-0.023,0.339-0.079,0.519-0.192,0.62c-0.1,0.09-0.217,0.106-0.329,0.085c0.002,0.025,0.002,0.051,0,0.076c-0.013,0.199-0.131,0.273-0.2,0.299c-0.232,0.089-0.766-0.09-1.06-0.354c-0.581-0.524-1.545-1.393-1.651-3.321c-0.001-0.016-0.001-0.032,0-0.049c0.035-0.502,1.037-1.146,1.711-1.368C26.697,17.735,27.031,17.755,27.207,17.945z M19.021,8v2.312c0.419-0.875,0.933-1.414,1.384-1.345c0.506,0.077,0.791,0.904,0.796,2.045l1.064-2.495c0,0,1.432,1.704,0.298,4.364C21.412,15.583,19.075,16,19.075,16l0.006-0.017c-0.02,0.002-0.045,0.017-0.062,0.015c-0.056-0.008-0.116-0.057-0.177-0.127c-0.481-0.337-1.843-1.495-1.843-3.876C16.999,9.154,19.021,8,19.021,8z M12.08,29.692c-1.083,0.688-2.692,0.182-3.591-1.128c-0.901-1.309-0.486-3.194,0.671-4.218c1.157-1.023,2.35,0.42,3.251,1.73S13.163,29.004,12.08,29.692z M11.027,18.657c-0.215-1.62,0.835-3.232,2.346-3.6c1.511-0.367,3.052,1.097,3.542,2.98c0.49,1.883-1.249,2.522-2.76,2.889C12.644,21.293,11.244,20.277,11.027,18.657z M19.265,39.744c-0.867,0.573-2.154,0.151-2.874-0.94c-0.721-1.091-0.388-2.662,0.537-3.515c0.926-0.853,1.881,0.351,2.601,1.442C20.284,37.883,20.131,39.172,19.265,39.744z M23.847,30.432c0,0-0.011,0.03-0.019,0.042c-0.026,0.041-0.09,0.069-0.172,0.09c-0.456,0.248-1.917,0.866-3.981-0.049c-2.467-1.094-2.79-3.123-2.79-3.123l2.005,0.89c-0.618-0.665-0.913-1.276-0.702-1.602c0.237-0.367,1.049-0.272,2.04,0.162l-1.807-1.792c0,0,1.959-0.467,3.888,1.447C24.214,28.42,23.847,30.432,23.847,30.432z M22.715,18.099c-0.567-0.036-1.425,0.35-1.481,1.169c-0.056,0.809,0.246,1.354,0.41,1.509c0.174,0.165,0.203,0.306,0.197,0.396c-0.009,0.126-0.09,0.226-0.217,0.268c-0.156,0.052-0.402,0.019-0.658-0.209c-0.147,0.05-0.298,0.036-0.433-0.043c-0.375-0.218-0.58-0.898-0.523-1.733c0.054-0.799,0.267-1.465,0.632-1.996c0,0,0.425-0.609,0.985-0.909c0.16-0.093,0.975-0.392,0.975-0.392c0.569-0.146,1.137-0.172,1.602-0.154l0.709,0.087c0.889,0.202,1.511,0.722,1.835,1.184c-0.191-0.013-0.428,0.015-0.722,0.112c-0.627,0.207-1.798,0.871-1.918,1.573C23.935,18.692,23.492,18.148,22.715,18.099z M30.496,39.489c-0.865,0.415-1.683,0.577-2.447,0.489c0,0-0.881-0.108-1.517-0.548c-0.19-0.121-0.972-0.845-0.972-0.845c-0.481-0.543-0.836-1.155-1.086-1.68l-0.317-0.835c-0.283-1.102-0.12-2.101,0.175-2.735c0.097,0.219,0.263,0.464,0.534,0.731c0.578,0.571,1.946,1.47,2.748,1.185c-0.18,0.352-0.491,1.166-0.094,2.054c0.29,0.649,1.1,1.382,1.987,0.956c0.875-0.42,1.357-1.092,1.424-1.366c0.071-0.291,0.202-0.407,0.299-0.454c0.135-0.065,0.286-0.035,0.404,0.08c0.144,0.141,0.252,0.433,0.162,0.852c0.137,0.134,0.209,0.308,0.205,0.505C31.99,38.423,31.4,39.055,30.496,39.489z M29.76,24.111c-1.18-1.247-1.054-3.214,0.875-5.1s5.474-2.4,6.112-1.731c0.637,0.669,0.09,4.358-1.84,6.244S30.967,25.322,29.76,24.111z M37.275,36.982c-1.42,0.236-1.271-1.888-1.271-3.423c0-1.535,0.66-2.559,1.847-2.559C39.038,30.999,40,32.025,40,33.559C40,35.092,38.695,36.745,37.275,36.982z M40.155,26.937c-1.511,0.306-2.911-0.541-3.127-1.891c-0.215-1.349,0.834-2.692,2.345-2.999c1.511-0.306,3.052,0.914,3.542,2.483C43.407,26.099,41.666,26.632,40.155,26.937z"/><path d="M28.243,31.753c0.273-0.131,0.385-0.481,0.251-0.781c-0.134-0.3-0.464-0.437-0.737-0.306c-0.273,0.131-0.385,0.481-0.251,0.781C27.64,31.747,27.97,31.884,28.243,31.753z"/><ellipse transform="matrix(0.0689 -0.9976 0.9976 0.0689 4.2007 46.0108)" cx="26.749" cy="20.755" rx="0.457" ry="0.476"/></g><path style="fill:none;stroke:#000000;stroke-width:2;stroke-linecap:round;stroke-linejoin:round;stroke-miterlimit:10;" d="M42.99,11.66C44.18,11.1,45,9.9,45,8.5C45,6.57,43.43,5,41.5,5c-1.4,0-2.6,0.82-3.16,2.01"/><path style="fill:none;stroke:#000000;stroke-width:2;stroke-linecap:round;stroke-linejoin:round;stroke-miterlimit:10;" d="M7.01,38.34C5.82,38.9,5,40.1,5,41.5C5,43.43,6.57,45,8.5,45c1.4,0,2.6-0.82,3.16-2.01"/></svg>