<?xml version="1.0" encoding="iso-8859-1"?>
<!-- Generator: Adobe Illustrator 23.0.6, SVG Export Plug-In . SVG Version: 6.00 Build 0)  -->
<svg version="1.1" id="Filled" xmlns="http://www.w3.org/2000/svg" xmlns:xlink="http://www.w3.org/1999/xlink" x="0px" y="0px"
	 viewBox="0 0 50 50" style="enable-background:new 0 0 50 50;" xml:space="preserve">
<path d="M29,13.73C27.856,11.667,24.358,8,16.96,8C8.451,8,4,13.68,4,19.292c0,5.156,2.532,23.429,2.636,24.167
	c0.206,2.033,1.817,3.73,3.941,4.131c0.515,0.085,1.929,0.185,3.427,0.264C11.407,44.648,10,38.889,10,35
	c0-6.721,2.288-11.241,4.01-13.889c-0.847-0.338-1.76-0.623-2.671-0.895c-1.395-0.417-2.554-0.794-3.414-1.228
	c0.668-1.272,2.357-3.555,6.009-3.934c0.085,0.564,0.126,1.189,0.07,1.862c-0.047,0.55,0.362,1.034,0.912,1.08
	c0.566,0.051,1.035-0.362,1.08-0.913c0.142-1.681-0.18-3.141-0.516-4.146c1.56,0.102,3.967,0.827,4.533,4.227
	C20.095,17.653,20.519,18,20.999,18c0.055,0,0.109-0.004,0.165-0.014c0.545-0.091,0.913-0.606,0.822-1.151
	c-0.11-0.658-0.287-1.22-0.492-1.739c2.93,0.395,3.956,1.938,4.313,2.969c-0.09,0.018-0.182,0.027-0.265,0.07
	c-1.081,0.557-2.512,1.1-3.961,1.284C17,20,15.805,22.017,15.803,22.016C14.16,24.485,12,28.621,12,35
	c0,4.885,2.307,11.649,5.202,12.986C17.546,47.995,17.848,48,18.076,48c2.015,0,4.404-0.253,5.537-0.494
	c0.59-0.117,1.155-0.358,1.662-0.692C25.101,46.297,25,45.723,25,45.087c0-1.479,0.559-2.792,1.1-4.061
	C26.562,39.938,27,38.912,27,38c0-0.795-0.298-1.913-0.644-3.207C25.752,32.529,25,29.712,25,25.957
	C25,19.593,28.759,14.309,29,13.73z M18.5,33c-0.828,0-1.5-0.672-1.5-1.5s0.672-1.5,1.5-1.5s1.5,0.672,1.5,1.5S19.328,33,18.5,33z
	 M21,36c-0.552,0-1-0.448-1-1c0-0.552,0.448-1,1-1s1,0.448,1,1C22,35.552,21.552,36,21,36z"/>
<path d="M39.917,6h-6.833C32.485,6,32,5.598,32,5V4.417C32,3.042,33.125,2,34.5,2h4C39.875,2,41,3.042,41,4.417V5
	C41,5.598,40.515,6,39.917,6z"/>
<path d="M44,38c0-1.058,0.33-2.292,0.711-3.723C45.285,32.126,46,29.45,46,25.957c0-4.038-0.991-6.718-2.586-9.426
	c-1.558-2.643-3.339-4.039-3.339-8.531h-7.151c0,4.166-1.917,6.024-3.339,8.531C28.036,19.264,27,21.919,27,25.957
	c0,3.493,0.715,6.17,1.289,8.321C28.67,35.708,29,36.942,29,38c0,1.32-0.539,2.585-1.061,3.81C27.456,42.944,27,44.016,27,45.087
	C27,47.224,28.661,48,29.777,48h13.445C44.339,48,46,47.224,46,45.087c0-1.071-0.456-2.143-0.939-3.277
	C44.539,40.585,44,39.32,44,38z M37.952,14.071c0.508-0.202,1.095,0.044,1.3,0.557L41,19h-2.155l-1.451-3.628
	C37.189,14.858,37.439,14.277,37.952,14.071z M33.749,14.628c0.205-0.513,0.79-0.76,1.3-0.557c0.513,0.206,0.763,0.787,0.558,1.3
	L34.155,19H32L33.749,14.628z M33.777,42.55C33.378,43.471,33,44.341,33,45c0,0.316,0.093,0.675,0.228,1h-2.05
	C31.074,45.701,31,45.378,31,45c0-1.075,0.458-2.129,0.942-3.247C32.462,40.555,33,39.316,33,38c0-0.644-0.304-1.97-0.598-3.252
	c-0.212-0.925-0.424-1.866-0.579-2.748h2.034c0.141,0.738,0.317,1.524,0.495,2.301C34.699,35.819,35,37.13,35,38
	C35,39.731,34.351,41.229,33.777,42.55z M39.223,42.55C38.649,41.229,38,39.731,38,38c0-0.87,0.301-2.181,0.648-3.699
	c0.178-0.777,0.354-1.563,0.495-2.301h2.034c-0.156,0.882-0.368,1.823-0.579,2.748C40.304,36.03,40,37.356,40,38
	c0,1.316,0.538,2.555,1.058,3.753C41.542,42.871,42,43.925,42,45c0,0.378-0.074,0.701-0.177,1h-2.051C39.906,45.674,40,45.315,40,45
	C40,44.341,39.622,43.471,39.223,42.55z M29.352,30C29.144,28.79,29,27.463,29,25.957c0-1.846,0.308-3.464,0.773-4.957l13.447-0.023
	c0.469,1.499,0.78,3.124,0.78,4.98c0,1.506-0.144,2.833-0.352,4.043H29.352z"/>
</svg>