<?xml version="1.0" encoding="utf-8"?><!-- Generator: Adobe Illustrator 15.0.0, SVG Export Plug-In . SVG Version: 6.00 Build 0)  --><!DOCTYPE svg PUBLIC "-//W3C//DTD SVG 1.1//EN" "http://www.w3.org/Graphics/SVG/1.1/DTD/svg11.dtd"><svg xmlns="http://www.w3.org/2000/svg" xmlns:xlink="http://www.w3.org/1999/xlink" viewBox="0 0 50 50" width="50px" height="50px"><path d="M40.773,35.596C40.773,35.596,40.773,35.596,40.773,35.596c-2.95-0.001-7.974-3.466-14.528-10.021c-6.623-6.623-10.088-11.676-10.02-14.612c0.023-1.018,0.464-1.496,0.598-1.619c2.361-2.417,5.175-3.662,8.32-3.662c7.296,0,13.761,6.709,14.032,6.995c0.23,0.211,6.709,6.293,6.909,13.502c0.092,3.277-1.128,6.251-3.625,8.837C42.352,35.137,41.849,35.596,40.773,35.596z"/><path d="M24.831,26.989c-5.75-5.75-9.113-10.251-10.205-13.664c-7.169,6.35-13.723,16.037-8.712,28.321l0.021,0.052c-0.064,0.142-0.217,0.384-0.325,0.554c-0.53,0.835-1.516,2.39-0.288,4.046c0.522,0.704,1.234,1.076,2.058,1.076c0.703,0,1.372-0.267,1.961-0.501c0.415-0.165,0.851-0.354,1.191-0.324c2.382,0.716,4.667,1.063,6.986,1.063c7.442,0,14.359-3.554,20.595-10.549C34.75,35.852,30.373,32.531,24.831,26.989z"/><path d="M40.998,11.661c0.219,0.219,0.499,0.514,0.828,0.877c3.016-3.167,2.067-7.485,1.673-8.391c-0.308-0.702-1.119-1.405-2.33-0.989c-0.873,0.3-1.675,1.55-0.721,2.679C41.026,6.524,42.55,9.202,40.998,11.661z"/></svg>