<?xml version="1.0" encoding="iso-8859-1"?><!-- Generator: Adobe Illustrator 23.0.2, SVG Export Plug-In . SVG Version: 6.00 Build 0)  --><svg xmlns="http://www.w3.org/2000/svg" xmlns:xlink="http://www.w3.org/1999/xlink" viewBox="0 0 50 50" width="500px" height="500px"><path d="M37.84,28.47c-0.49-0.33-0.87-0.86-1.07-1.45c-0.93,0.13-2.54,0.96-4.1,1.77l-0.12,0.07C29,30.72,24.64,33,19,33c-2.26,0-6.04-0.27-9.23-1.8l2.71,14.25c0.33,1.5,1.64,2.55,3.18,2.55h18.26c1.54,0,2.85-1.05,3.18-2.57L40.24,29C39.4,29.17,38.54,28.98,37.84,28.47z M18,39c-1.1,0-2-0.9-2-2s0.9-2,2-2s2,0.9,2,2S19.1,39,18,39z M29.81,42.59C29.74,42.69,28.01,45,25,45s-4.74-2.31-4.81-2.41c-0.32-0.45-0.23-1.07,0.22-1.4c0.45-0.32,1.07-0.22,1.4,0.22C21.85,41.47,23.02,43,25,43s3.15-1.53,3.2-1.59c0.32-0.44,0.95-0.54,1.39-0.21C30.03,41.52,30.13,42.15,29.81,42.59z M32,39c-1.1,0-2-0.9-2-2s0.9-2,2-2s2,0.9,2,2S33.1,39,32,39z"/><path d="M43.99,20.59c0,3.553-1.75,5.19-3.3,6.05c-0.23,0.13-0.262,0.151-0.492,0.251c-0.33,0.13-0.888,0.179-1.188-0.041c-0.19-0.13-0.34-0.38-0.38-0.63c-0.01-0.04-0.04-0.76-0.04-0.76l-0.57-0.26C37.74,25.07,37.38,25,37,25c-0.61,0-1.31,0.19-2.08,0.49c-0.96,0.38-2.02,0.93-3.17,1.53l-0.18,0.09C28.26,28.84,24.14,31,19,31c-4.33,0-7.28-0.8-9.26-2.03c-2.73-1.68-3.72-4.16-3.72-6.48c0-3.417,1.88-5.68,4.03-6.81C10.86,21.93,22.87,22,23,22c0.55,0,1-0.45,1-1s-0.45-1-1-1c-3.59,0-11-1.22-11-5c0.31-2.35,1.9-5.56,6.12-5.96c0.45-1.69,2.06-2.66,3.4-3.45C23.06,4.66,24,4.03,24,3c0-0.55,0.45-1,1-1c2.41,0,8.48,4.84,9.85,10.19C40.15,13.66,43.99,16.931,43.99,20.59z"/></svg>