<?xml version="1.0" encoding="utf-8"?><!-- Generator: Adobe Illustrator 15.0.0, SVG Export Plug-In . SVG Version: 6.00 Build 0)  --><!DOCTYPE svg PUBLIC "-//W3C//DTD SVG 1.1//EN" "http://www.w3.org/Graphics/SVG/1.1/DTD/svg11.dtd"><svg xmlns="http://www.w3.org/2000/svg" xmlns:xlink="http://www.w3.org/1999/xlink" viewBox="0 0 50 50" width="50px" height="50px"><circle cx="24.568" cy="15.913" r="1"/><circle cx="27.568" cy="18.913" r="1"/><circle cx="30.568" cy="21.913" r="1"/><circle cx="31.568" cy="18.913" r="1"/><circle cx="31.568" cy="27.913" r="1"/><circle cx="30.568" cy="34.913" r="1"/><circle cx="33.568" cy="31.913" r="1"/><circle cx="34.568" cy="24.913" r="1"/><circle cx="25.568" cy="26.913" r="1"/><circle cx="18.568" cy="36.913" r="1"/><circle cx="14.568" cy="27.913" r="1"/><circle cx="20.568" cy="24.913" r="1"/><circle cx="23.568" cy="30.913" r="1"/><circle cx="23.568" cy="38.913" r="1"/><circle cx="18.568" cy="31.913" r="1"/><circle cx="17.568" cy="21.913" r="1"/><path d="M44.994,15.896c-0.046-0.445-0.383-0.806-0.824-0.882c-0.443-0.076-0.88,0.15-1.072,0.554c-0.434,0.907-1.214,1.335-1.745,1.361c-2.069-4.118-5.151-7.365-8.693-9.154c-3.938-1.989-3.805-3.77-3.687-5.342l0.025-0.375c0.017-0.278-0.084-0.551-0.276-0.752c-0.193-0.2-0.462-0.299-0.74-0.307c-1.96,0.037-3.553,1.431-5.396,3.044c-1.332,1.166-2.841,2.487-4.717,3.487c-3.793,2.021-7.03,5.406-9.182,9.58c-0.291-0.105-0.625-0.295-0.834-0.636c-0.212-0.344-0.607-0.53-1.011-0.463c-0.4,0.064-0.721,0.363-0.814,0.757c-0.377,1.593,0.19,3.24,0.565,4.329c0.088,0.257,0.206,0.597,0.241,0.761C6.28,23.882,6,25.947,6,28c0,0.909,0.053,1.822,0.159,2.725c-0.265,0.119-0.666,0.245-1.216,0.277c-0.323,0.019-0.617,0.191-0.79,0.466s-0.201,0.614-0.078,0.914c0.386,0.936,1.071,1.486,1.733,2.019c0.722,0.581,1.404,1.129,1.873,2.252C10.753,44.153,17.551,49,25,49c4.995,0,9.671-2.081,13.168-5.859c0.724-0.782,1.534-1.192,2.392-1.626c0.794-0.401,1.613-0.816,2.351-1.526c0.27-0.26,0.372-0.647,0.265-1.006c-0.106-0.358-0.404-0.628-0.771-0.697c-0.335-0.063-0.521-0.263-0.621-0.431C43.234,34.837,44,31.439,44,28c0-1.159-0.058-2.168-0.171-3.023c-0.106-1.55,0.216-2.667,0.556-3.848C44.783,19.75,45.233,18.187,44.994,15.896z M25,44c-7.732,0-14-7.164-14-16c0-8.836,6.268-16,14-16c7.732,0,14,7.164,14,16C39,36.836,32.732,44,25,44z"/></svg>