<?xml version="1.0" encoding="utf-8"?><!-- Generator: Adobe Illustrator 15.0.0, SVG Export Plug-In . SVG Version: 6.00 Build 0)  --><!DOCTYPE svg PUBLIC "-//W3C//DTD SVG 1.1//EN" "http://www.w3.org/Graphics/SVG/1.1/DTD/svg11.dtd"><svg xmlns="http://www.w3.org/2000/svg" xmlns:xlink="http://www.w3.org/1999/xlink" viewBox="0 0 50 50" width="500px" height="500px"><g><polygon points="30.521,34.135 26.443,38.23 29.461,41.246 31.938,35.551 "/><polygon points="19.5,34.113 18.063,35.551 20.563,41.305 23.62,38.232 "/><polygon points="15.851,30.465 17.206,33.58 18.086,32.7 "/><polygon points="32.795,33.58 34.131,30.507 31.932,32.717 "/><path d="M25.034,39.646l-3.613,3.631l2.662,6.121C24.242,49.764,24.602,50,25,50s0.758-0.236,0.917-0.602l2.688-6.183L25.034,39.646z"/><polygon points="25,28.614 20.914,32.699 25.03,36.814 29.105,32.721 "/><path d="M27.166,27.952l3.352,3.351l4.146-4.168C32.656,27.502,30.109,27.836,27.166,27.952z"/><path d="M15.401,27.188l4.099,4.101l3.333-3.333C19.994,27.842,17.456,27.534,15.401,27.188z"/></g><path d="M35.492,24.988C35.471,24.999,33.355,26,25.008,26c-8.296,0-10.193-0.868-10.231-0.884c-2.343-1.367-3.798-3.875-3.798-6.545c0-4.185,3.405-7.589,7.589-7.589s7.589,3.405,7.589,7.589c0,1.377-0.361,2.726-1.044,3.898c-0.278,0.477-0.117,1.089,0.36,1.367c0.476,0.277,1.087,0.117,1.367-0.36c0.861-1.478,1.316-3.174,1.316-4.905c0-5.288-4.301-9.589-9.589-9.589c-0.349,0-0.693,0.021-1.033,0.058c-0.063-0.414-0.115-0.818-0.115-1.206c0-4.185,3.405-7.589,7.589-7.589s7.588,3.405,7.588,7.589c0,0.376-0.045,0.808-0.1,1.208c-0.344-0.038-0.693-0.06-1.047-0.06c-1.131,0-2.324,0.213-3.357,0.6c-0.518,0.194-0.779,0.77-0.586,1.287c0.193,0.517,0.771,0.782,1.287,0.586c0.803-0.301,1.771-0.473,2.656-0.473c4.186,0,7.59,3.405,7.59,7.589C39.041,21.236,37.695,23.646,35.492,24.988z"/></svg>