<?xml version="1.0" encoding="iso-8859-1"?>
<!-- Generator: Adobe Illustrator 23.0.3, SVG Export Plug-In . SVG Version: 6.00 Build 0)  -->
<svg version="1.1" xmlns="http://www.w3.org/2000/svg" xmlns:xlink="http://www.w3.org/1999/xlink" x="0px" y="0px"
	 viewBox="0 0 50 50" style="enable-background:new 0 0 50 50;" xml:space="preserve">
<g id="Layer_10" style="display:none;">
	<g style="display:inline;">
		<circle style="fill:#FFFFFF;" cx="26" cy="27" r="21.5"/>
		<path d="M26,6c11.579,0,21,9.421,21,21s-9.421,21-21,21S5,38.579,5,27S14.421,6,26,6 M26,5C13.85,5,4,14.85,4,27s9.85,22,22,22
			s22-9.85,22-22S38.15,5,26,5L26,5z"/>
	</g>
</g>
<g id="filled">
</g>
<g id="outlined">
</g>
<g id="rounded">
</g>
<g id="two_x5F_tone">
</g>
<g id="sharp">
</g>
<g id="win10">
</g>
<g id="ios_x5F_out">
</g>
<g id="ios_x5F_filled">
	<path d="M2.846,32H3h44h0.154C48.725,32,50,30.725,50,29.154v-2.309C50,25.276,48.725,24,47.154,24H2.846
		C1.277,24,0,25.276,0,26.846v2.309C0,30.725,1.277,32,2.846,32z"/>
	<path d="M39,6H29c-1.104,0-2-0.897-2-2V2c0-1.103,0.896-2,2-2h10c1.104,0,2,0.897,2,2v2C41,5.103,40.104,6,39,6z"/>
	<path d="M12.259,22H4.66c1.033-4.831,4.964-8.23,9.956-8.23c1.772,0,3.472,0.454,4.977,1.295L12.259,22z"/>
	<path d="M40.523,22l-14.732-8.359c0.581-1.802,1.385-4.014,2.313-5.751C28.393,7.957,28.689,8,29,8h10
		c0.285,0,0.563-0.032,0.831-0.089C42.082,12.079,44,19.503,44,21.822V22H40.523z"/>
	<path d="M15.17,22l7.451-7.045c0.32-0.302,0.799-0.361,1.181-0.143L36.471,22H15.17z"/>
	<path d="M47,34v2c0,0.195,0,0.314-3.427,11.448C43.128,48.52,42.51,50,40.77,50H9.231c-1.402,0-2.079-1.212-2.677-2.281
		c-0.034-0.062-0.104-0.204-0.125-0.271C3,36.314,3,36.195,3,36v-2H47z M30.71,41.29l-5-5c-0.39-0.39-1.03-0.39-1.42,0l-5,5
		c-0.39,0.39-0.39,1.03,0,1.42c0.39,0.39,1.03,0.39,1.42,0l3.29-3.3V47c0,0.55,0.45,1,1,1s1-0.45,1-1v-7.59l3.29,3.3
		C29.49,42.9,29.74,43,30,43s0.51-0.1,0.71-0.29C31.1,42.32,31.1,41.68,30.71,41.29z"/>
</g>
<g id="color">
</g>
</svg>