<?xml version="1.0" encoding="iso-8859-1"?><!-- Generator: Adobe Illustrator 21.0.0, SVG Export Plug-In . SVG Version: 6.00 Build 0)  --><svg xmlns="http://www.w3.org/2000/svg" xmlns:xlink="http://www.w3.org/1999/xlink" viewBox="0 0 50 50" width="500px" height="500px"><path d="M46.65,3.34c-0.9-0.9-1.89-1.35-3.02-1.35c-1.73,0-3.83,1-7.3,3.83c-3.48,2.82-8.34,7.48-15.6,14.78C2.92,38.53-0.79,42.26,3.59,46.66c0.88,0.88,1.91,1.33,3.08,1.33c4.36,0,10.53-6.21,24.06-19.82C46.7,12.1,50.48,7.2,46.65,3.34z M14.97,35.85c-1.8-0.2-2-1.75-1-2.75l5,1C17.97,35.1,16.77,36.05,14.97,35.85z M23.97,26.85c-1.8-0.2-2-1.75-1-2.75l5,1C26.97,26.1,25.77,27.05,23.97,26.85z M32.97,17.85c-1.8-0.2-2-1.75-1-2.75l5,1C35.97,17.1,34.77,18.05,32.97,17.85z"/></svg>