<?xml version="1.0" encoding="utf-8"?><!-- Generator: Adobe Illustrator 15.0.0, SVG Export Plug-In . SVG Version: 6.00 Build 0)  --><!DOCTYPE svg PUBLIC "-//W3C//DTD SVG 1.1//EN" "http://www.w3.org/Graphics/SVG/1.1/DTD/svg11.dtd"><svg xmlns="http://www.w3.org/2000/svg" xmlns:xlink="http://www.w3.org/1999/xlink" viewBox="0 0 50 50" width="50px" height="50px"><path d="M47.733,26.676C39.989,11.735,27.112,4.755,23.35,2.972c-0.582-0.275-1.232-0.306-1.833-0.084c-0.609,0.223-1.093,0.674-1.367,1.278L2.223,43.79c-0.346,0.763-0.284,1.635,0.166,2.333c0.458,0.711,1.228,1.135,2.059,1.135c0.323,0,0.643-0.064,0.95-0.192l41.116-17.073c0.621-0.258,1.109-0.769,1.34-1.403C48.082,27.96,48.038,27.263,47.733,26.676z M18.577,19.132c-0.417-0.363-0.459-0.995-0.096-1.411c0.364-0.416,0.996-0.459,1.411-0.096l13.775,12.015c0.416,0.363,0.459,0.995,0.097,1.411c-0.198,0.227-0.476,0.343-0.754,0.343c-0.233,0-0.468-0.081-0.657-0.246L18.577,19.132z M26.047,34.859c-0.197,0.229-0.476,0.346-0.756,0.346c-0.232,0-0.465-0.08-0.654-0.244l-10.16-8.792c-0.417-0.361-0.463-0.993-0.102-1.41s0.993-0.464,1.411-0.102l10.16,8.792C26.363,33.811,26.408,34.441,26.047,34.859z M11.645,31.785c0.365-0.415,0.997-0.456,1.412-0.091l5.666,4.984c0.415,0.365,0.455,0.997,0.09,1.411c-0.198,0.225-0.474,0.34-0.751,0.34c-0.234,0-0.47-0.082-0.66-0.249l-5.666-4.984C11.321,32.831,11.28,32.199,11.645,31.785z M40.688,30.15c-6.572-12.89-17.511-18.782-20.843-20.335l0.819-1.858c3.051-0.587,4.26-0.918,5.206,1.795c0.636,1.827,0.946,3.025,3.034,3.01c3.607-0.025,4.578,0.896,4.951,3.483c0.317,2.201,4.056,1.106,4.056,3.931c0,2.338-0.138,3.365,3.334,4.652c1.974,0.731,1.753,2.964,1.379,4.555L40.688,30.15z"/></svg>