<?xml version="1.0" encoding="iso-8859-1"?><!-- Generator: Adobe Illustrator 19.2.0, SVG Export Plug-In . SVG Version: 6.00 Build 0)  --><svg xmlns="http://www.w3.org/2000/svg" xmlns:xlink="http://www.w3.org/1999/xlink" viewBox="0 0 50 50" width="50px" height="50px"><line style="fill:none;stroke:#000000;stroke-width:2;stroke-linecap:round;stroke-miterlimit:10;" x1="32" y1="16" x2="33" y2="22"/><path d="M45.001,12.038C44.749,12.019,44.496,12,44.238,12c-5.494,0-10.214,4.115-11.223,9.784l-0.118,1.094l1.102,0.084C34.251,22.981,34.504,23,34.762,23c5.494,0,10.214-4.115,11.223-9.784l0.118-1.094L45.001,12.038z"/><path d="M34.5,21c-1.583,0-3.092,0.308-4.487,0.847l-1.607,22.498c-0.001,0.018-0.007,0.035-0.009,0.054C30.205,45.414,32.284,46,34.5,46C41.393,46,47,40.393,47,33.5S41.393,21,34.5,21z M37,36c-0.552,0-1-0.448-1-1c0-0.552,0.448-1,1-1s1,0.448,1,1C38,35.552,37.552,36,37,36z M39,39c-0.552,0-1-0.448-1-1c0-0.552,0.448-1,1-1s1,0.448,1,1C40,38.552,39.552,39,39,39z M41,36c-0.552,0-1-0.448-1-1c0-0.552,0.448-1,1-1s1,0.448,1,1C42,35.552,41.552,36,41,36z"/><path style="fill:none;stroke:#000000;stroke-width:2;stroke-miterlimit:10;" d="M23.416,46H9.152c-1.052,0-1.924-0.815-1.995-1.864L4.284,4h24l-2.873,40.136C25.34,45.185,24.468,46,23.416,46z"/><path d="M4,14l2.156,30.207C6.262,45.773,7.578,47,9.154,47h14.26c1.576,0,2.893-1.227,2.997-2.789L28.568,14H4z"/></svg>