<?xml version="1.0" encoding="utf-8"?><!-- Generator: Adobe Illustrator 15.0.0, SVG Export Plug-In . SVG Version: 6.00 Build 0)  --><!DOCTYPE svg PUBLIC "-//W3C//DTD SVG 1.1//EN" "http://www.w3.org/Graphics/SVG/1.1/DTD/svg11.dtd"><svg xmlns="http://www.w3.org/2000/svg" xmlns:xlink="http://www.w3.org/1999/xlink" viewBox="0 0 50 50" width="50px" height="50px"><path d="M29.3,28.3c-0.1-0.899-1.6-1.6-3.5-1.399c-0.1,0-0.1,0-0.2,0l2.7,2.699C29,29.3,29.3,28.8,29.3,28.3z"/><path d="M49.3,1.6c-0.2-0.1-0.399-0.2-0.6-0.3c0-0.2-0.2-0.4-0.3-0.6C47.9,0,46.8-0.2,45.9,0.3c-1.9,1-4.7,1-7.7,1.1c-4.4,0-9.4,0.1-13.4,3.2C23.4,5.7,20.6,7.9,14.7,16l19.1,19.2c8.101-5.9,10.3-8.7,11.5-10.1c3.101-4,3.2-9,3.2-13.4c0-3,0-5.8,1.1-7.7C50.2,3.1,50,2.1,49.3,1.6z M38.6,7.4c0.5-1.3,1.5-2.1,2.101-1.8c0.6,0.3,0.7,1.5,0.2,2.7c-0.5,1.2-1.601,1.8-2.2,2.2C38.6,10,38,9,38.6,7.4z M33.8,9.6c0.2-1.8,1.3-3.2,2.2-3c0.9,0.2,1.4,1.8,1.1,3.6c-0.3,1.8-1.699,2.9-2.3,3.6C34.5,13.1,33.5,11.9,33.8,9.6z M38.8,19c0.101,1-1.399,1.9-3.2,2c-2.3,0.1-3.3-1.1-4.1-1.4c0.8-0.6,2-1.8,3.8-2C37.2,17.4,38.7,18.1,38.8,19z M31.7,6.2c0.8-0.1,1.2,1,1.2,1.4c-0.7,0.8-0.801,2.8-0.801,2.8S31.7,9.4,30.4,9.2C30.2,7.8,30.9,6.2,31.7,6.2z M30.9,11.3c1,0.1,1.5,1.6,1.399,3.5c-0.1,1.9-1.399,3-2,3.8C30,17.9,28.9,16.8,29,14.5C29.1,12.7,30.1,11.2,30.9,11.3z M27.2,10.6c0.8-0.1,1.2,1,1.2,1.4c-0.7,0.8-0.801,2.8-0.801,2.8s-0.399-1-1.699-1.2C25.7,12.2,26.4,10.6,27.2,10.6z M23,24.3l-2.7-2.7c0.4-0.5,0.9-0.9,1.3-0.8C22.6,20.9,23.2,22.5,23,24.3z M23,19.7c0,0-0.4-0.9-1.7-1.3c-0.2-1.4,0.5-3,1.3-3c0.8-0.1,1.2,1,1.2,1.5C23.1,17.7,23,19.7,23,19.7z M24.5,19c0.1-1.8,1.1-3.3,1.9-3.2c1,0.1,1.6,1.7,1.399,3.5c-0.1,1.9-1.399,3-2,3.8C25.5,22.4,24.4,21.3,24.5,19z M27,24c0.8-0.6,2-1.8,3.8-2c1.9-0.2,3.4,0.5,3.5,1.4c0.101,1-1.399,1.9-3.2,2C28.8,25.6,27.7,24.4,27,24z M31.8,28.7c-0.399-1.4-1.3-1.8-1.3-1.8s2-0.101,2.8-0.801c0.4,0,1.5,0.4,1.4,1.2C34.7,28.2,33.1,28.8,31.8,28.7z M36.6,24.2c-0.399-1.4-1.3-1.8-1.3-1.8s2.101-0.1,2.9-0.7c0.399,0,1.5,0.4,1.399,1.2C39.5,23.7,38,24.3,36.6,24.2z M36.4,15.3c0.699-0.6,1.8-2,3.6-2.3s3.4,0.2,3.6,1.1c0.2,0.9-1.199,2-3,2.2C38.2,16.6,37.1,15.5,36.4,15.3z M41.1,19.7c-0.399-1.4-1.3-1.8-1.3-1.8s2,0,2.9-0.7c0.399,0,1.5,0.4,1.399,1.2C44,19.2,42.5,19.8,41.1,19.7z M42.9,11.4C41.3,12,40.3,11.4,39.8,11.3c0.4-0.6,1-1.7,2.2-2.2s2.5-0.3,2.7,0.3S44.1,11,42.9,11.4z"/><line fill="none" stroke="#000000" stroke-width="2" stroke-linecap="round" stroke-linejoin="round" stroke-miterlimit="10" x1="1" y1="1" x2="49" y2="49"/><path d="M19,50c-0.931,0-6.085-1.353-8.259-1.935c-0.382-0.078-0.825-0.124-1.261-0.124c-1.617,0-3.134,0.627-4.273,1.766c-0.387,0.387-1.013,0.392-1.404,0.01l-3.5-3.4C0.111,46.13,0.002,45.874,0,45.606s0.104-0.524,0.293-0.714c1.44-1.439,2.065-3.578,1.63-5.581C1.352,37.152,0,31.939,0,31.1c0-1.054,0.234-1.604,0.306-1.747c0.178-0.355,0.548-0.577,0.947-0.552c0.397,0.021,0.745,0.275,0.884,0.648c0.009,0.022,1.304,3.178,8.17,10.044c6.893,6.893,10.426,8.362,10.46,8.377c0.379,0.152,0.63,0.521,0.629,0.93c0,0.408-0.246,0.776-0.625,0.929C20.658,49.773,20.04,50,19,50z"/><path d="M11.721,38.079c3.738,3.738,6.431,5.804,8.037,6.886c5.24-3.288,9.341-6.08,12.642-8.365L30.9,35c-0.02,0.014-0.04,0.028-0.06,0.042L28.899,33.1c-0.5,0.2-1.101,0.301-1.699,0.2c-0.3-1.399-1.3-1.7-1.3-1.7s0.6-0.1,1.299-0.199L26.099,30.3C23.8,30.4,22.7,29.2,21.9,28.9c0.4-0.301,0.9-0.801,1.6-1.2l-1.243-1.243C21.771,27.125,21.291,27.614,21,28.1c-0.3-0.699-1.4-1.8-1.3-4.1c0-0.05,0-0.074,0-0.099l-1.218-1.218C18.302,23.445,18.3,24.1,18.3,24.1s-0.4-0.9-1.7-1.3c0-0.549,0.094-1.176,0.262-1.737L13.5,17.7c-2.3,3.322-5.113,7.453-8.429,12.742C6.133,31.965,8.126,34.483,11.721,38.079z M16.9,39.703c-2.4,0.101-3.4-1.1-4.1-1.399c0.8-0.601,1.9-1.801,3.8-2c1.9-0.2,3.4,0.5,3.5,1.399C20.2,38.604,18.8,39.604,16.9,39.703z M25.4,36.703c-0.1,0.8-1.6,1.4-3,1.3c-0.3-1.399-1.2-1.699-1.2-1.699s2-0.101,2.8-0.801C24.4,35.503,25.5,35.903,25.4,36.703z M21.3,31.403c1.9-0.2,3.4,0.5,3.5,1.4c0,0.899-1.4,1.899-3.2,2c-2.4,0.1-3.4-1.101-4.1-1.4C18.3,32.804,19.4,31.604,21.3,31.403z M17,25.104c0.9,0.1,1.5,1.7,1.3,3.5c-0.1,1.899-1.4,3-2,3.8c-0.3-0.7-1.4-1.8-1.3-4.1C15.1,26.403,16.1,25.003,17,25.104z M13.1,24.604c0.8-0.1,1.2,1,1.2,1.399c-0.7,0.801-0.8,2.801-0.8,2.801s-0.4-0.9-1.7-1.301C11.6,26.003,12.3,24.503,13.1,24.604z M12,29.708c1,0.1,1.4,1.6,1.3,3.5c-0.1,1.899-1.4,3-2,3.8c-0.3-0.7-1.4-1.8-1.3-4.101C10.1,31.008,11.1,29.607,12,29.708z"/></svg>