<?xml version="1.0" encoding="iso-8859-1"?>
<!-- Generator: Adobe Illustrator 23.0.3, SVG Export Plug-In . SVG Version: 6.00 Build 0)  -->
<svg version="1.1" id="Layer_1" xmlns="http://www.w3.org/2000/svg" xmlns:xlink="http://www.w3.org/1999/xlink" x="0px" y="0px"
	 viewBox="0 0 50 50" style="enable-background:new 0 0 50 50;" xml:space="preserve">
<g>
	<path d="M16.5,24c-2.107,0-3.666-0.423-4.804-0.732C11.212,23.136,10.711,23,10.5,23C7.143,23,5,24.776,5,26
		c0,0.948,1.486,1.896,3.861,2.556c4.674-2.281,8.699-3.381,12.142-3.31l-1.619-1.619C18.455,23.857,17.487,24,16.5,24z"/>
	<path d="M22.5,30c0.716,0,1.73-0.03,3.135-0.123L23.3,27.542c-2.957-0.665-6.623-0.115-10.962,1.651
		C17.881,29.856,20.916,30,22.5,30z"/>
	<path d="M40.834,22.271c0.858-0.319,1.773-0.66,2.793-0.821c-0.791-1.68-2.809-3.246-5.593-3.992
		c-0.875,2.117-2.582,3.514-4.188,4.769C36.918,23.719,38.749,23.049,40.834,22.271z"/>
	<path d="M22.5,32c-4.4,0-11.6-1-11.7-1c-2.316-0.399-5.839-1.312-7.216-3.242C3.224,27.249,3,26.627,3,26c0-2.7,3.4-5,7.5-5
		c0.5,0,1,0.1,1.7,0.3c1.1,0.3,2.5,0.7,4.3,0.7c0.396,0,0.788-0.033,1.176-0.081l-1.952-1.952C13.414,19.807,12.034,19,10.5,19
		C5.3,19,1,22.1,1,26c0,5.3,0,3.1,0,7c0,3.9,4,6.1,9.5,7c0.1,0,7.5,1,12,1s11.9-1,12-1c0.359-0.061,0.709-0.13,1.059-0.198
		l-8.07-8.07C25.73,31.884,23.93,32,22.5,32z"/>
	<path d="M49.707,48.293l-9.694-9.694C44.803,36.887,48,34.079,48,30c0-5.5,0-3.8,0-7c0-5.5-6-10-13.5-10c-4.1,0-7.8,1.4-10.3,3.5
		c-0.251,0.313-1.76,1.604-3.76,2.526L1.707,0.293c-0.391-0.391-1.023-0.391-1.414,0c-0.391,0.391-0.391,1.023,0,1.414l48,48
		C48.488,49.902,48.744,50,49,50s0.512-0.098,0.707-0.293C50.098,49.316,50.098,48.684,49.707,48.293z M25.6,18c2.2-1.9,5.4-3,8.9-3
		c6.274,0,11.453,3.57,11.496,7.945C45.952,28.21,38.587,30.202,34.2,31c-0.198,0.025-0.779,0.099-1.589,0.196l-1.794-1.794
		c0.867-0.095,1.784-0.2,2.806-0.327c0.1-0.012,0.191-0.022,0.275-0.031c2.365-0.404,9.526-1.941,10.052-5.62
		c-0.812,0.127-1.586,0.412-2.417,0.722c-1.264,0.47-2.616,0.974-4.259,0.974c-1.438,0-3.102-0.394-5.121-1.525
		c-1.539,1.349-2.506,2.759-1.95,5.192l-2.107-2.107c0.334-2.75,2.416-4.388,4.312-5.866c1.436-1.12,2.805-2.208,3.577-3.73
		C35.502,17.035,35.011,17,34.5,17c-2.857,0-5.678,0.913-7.588,2.448c-0.693,0.688-1.933,1.671-3.501,2.549l-1.458-1.458
		C23.652,19.67,24.978,18.622,25.6,18z"/>
</g>
</svg>