<?xml version="1.0" encoding="iso-8859-1"?><!-- Generator: Adobe Illustrator 22.1.0, SVG Export Plug-In . SVG Version: 6.00 Build 0)  --><svg xmlns="http://www.w3.org/2000/svg" xmlns:xlink="http://www.w3.org/1999/xlink" viewBox="0 0 50 50" width="50px" height="50px"><path d="M4,3C3.448,3,3,3.448,3,4v42c0,0.552,0.448,1,1,1h31V3H4z M15,18c1.649,0,2.989,1.337,2.998,2.983v1.041C17.16,21.39,16.129,21,15,21h-1.428C13.222,20.411,13,19.737,13,19v-1H15z M13.572,26C13.222,25.411,13,24.737,13,24v-1h2c1.651,0,2.994,1.341,2.999,2.99v1.035C17.161,26.391,16.13,26,15,26H13.572z M20,22.026V21c0-1.654,1.346-3,3-3h2v1c0,0.737-0.222,1.411-0.572,2H23C21.87,21,20.838,21.391,20,22.026z M19,12l1.641,1.5c0.798,0.729,1.234,1.658,1.325,2.61c-1.2,0.254-2.23,0.948-2.945,1.894c-0.008,0-0.015-0.005-0.024-0.005c-0.007,0-0.013,0.004-0.02,0.004c-0.715-0.946-1.744-1.64-2.944-1.894c0.092-0.952,0.528-1.881,1.325-2.61L19,12z M19,38c-0.552,0-1-0.448-1-1v-4h-1c-2.209,0-4-1.791-4-4v-1h2c1.653,0,2.998,1.344,3,2.997V33h2v4C20,37.552,19.553,38,19,38z M25,29c0,2.209-1.791,4-4,4h-1v-2c0-1.654,1.346-3,3-3h2V29z M25,24c0,0.737-0.222,1.411-0.572,2H23c-1.13,0-2.162,0.391-3,1.026V26c0-1.654,1.346-3,3-3h2V24z"/><path d="M45,12v-2h2V4c0-0.552-0.448-1-2-1h-8v7h2v2h-2v35h8c1.552,0,2-0.448,2-1V12H45z M43,12h-2v-2h2V12z"/></svg>