<?xml version="1.0" encoding="iso-8859-1"?><!-- Generator: Adobe Illustrator 19.1.1, SVG Export Plug-In . SVG Version: 6.00 Build 0)  --><svg xmlns="http://www.w3.org/2000/svg" xmlns:xlink="http://www.w3.org/1999/xlink" viewBox="0 0 50 50" width="500px" height="500px"><path d="M38.059,13.207c-0.779,1.333-1.025,2.087-0.238,3.223c0.315,0.454,0.202,1.077-0.251,1.392C37.396,17.942,37.197,18,37.001,18c-0.316,0-0.628-0.15-0.822-0.43c-1.657-2.388-0.532-4.248,0.46-5.889c0.419-0.691,0.846-1.398,1.107-2.179C37.895,8.922,38,8.432,38,8c0-1.654-1.346-3-3-3c-0.905,0-1.84,0.523-2.83,1.078C31.399,6.51,30.524,7,30,7c-0.741,0-1.044-0.551-1.606-1.903C27.85,3.79,27.105,2,25,2c-2.136,0-2.871,1.797-3.407,3.11C21.003,6.551,20.707,7,20,7c-0.349,0-0.984-0.223-1.543-0.419C17.643,6.295,16.802,6,16,6c-1.246,0-3,0.931-3,3c0,0.188,0.018,0.37,0.039,0.551c0.148,1.087,0.72,1.819,1.324,2.586c0.978,1.241,2.195,2.785,0.473,5.412C14.645,17.841,14.325,18,13.999,18c-0.188,0-0.378-0.053-0.547-0.164c-0.462-0.303-0.591-0.923-0.288-1.385c0.933-1.423,0.551-1.907-0.371-3.078c-0.123-0.156-0.251-0.321-0.379-0.492C6.112,17.073,2,24.101,2,31c0,10.327,9.028,17,23,17c13.972,0,23-6.673,23-17C48,24.263,44.141,17.451,38.059,13.207z M19.911,20.413C19.744,20.782,19.38,21,19,21c-0.138,0-0.278-0.029-0.412-0.09c-0.503-0.228-0.726-0.82-0.498-1.323C18.097,19.57,19,17.497,19,14c0-0.552,0.448-1,1-1s1,0.448,1,1C21,17.963,19.956,20.314,19.911,20.413z M26,17c0,0.552-0.448,1-1,1s-1-0.448-1-1v-4c0-0.552,0.448-1,1-1s1,0.448,1,1V17z M33.491,21.871C33.336,21.958,33.167,22,33.001,22c-0.35,0-0.688-0.183-0.872-0.509C30,17.717,30,14.919,30,14c0-0.552,0.447-1,1-1s1,0.448,1,1c0,1.37,0.194,3.536,1.871,6.509C34.143,20.99,33.973,21.6,33.491,21.871z"/></svg>