<?xml version="1.0" encoding="iso-8859-1"?>
<!-- Generator: Adobe Illustrator 23.1.0, SVG Export Plug-In . SVG Version: 6.00 Build 0)  -->
<svg version="1.1" id="Layer_1" xmlns="http://www.w3.org/2000/svg" xmlns:xlink="http://www.w3.org/1999/xlink" x="0px" y="0px"
	 viewBox="0 0 50 50" style="enable-background:new 0 0 50 50;" xml:space="preserve">
<g>
	<polygon points="31.382,7 15.333,7 12.667,12 29.382,12 	"/>
	<path d="M31,25.602c2.947-0.014,4.884,1.093,5.897,1.894c0.036,0.028,0.067,0.059,0.103,0.088v-14.82L34.118,6L31,13.236V25.602z"
		/>
	<path d="M34,2c0-0.553-0.447-1-1-1H17c-0.553,0-1,0.447-1,1v3h18V2z"/>
	<path d="M15.788,19.626c2.025,0.144,3.759,1.103,5.012,2.774c2.577,3.436,3.554,4.481,6.958,3.631
		c0.43-0.108,0.841-0.186,1.242-0.251V14H12v6.269C13.04,19.84,14.379,19.526,15.788,19.626z"/>
	<path d="M28.242,27.97c-4.638,1.164-6.29-0.702-9.042-4.37c-0.908-1.21-2.104-1.876-3.554-1.979
		c-1.564-0.115-3.001,0.465-3.646,0.872V47c0,0.553,0.447,1,1,1h16V27.824C28.748,27.872,28.508,27.904,28.242,27.97z"/>
	<path d="M35.657,29.065c-0.787-0.622-2.3-1.469-4.657-1.458V48h5c0.552,0,1-0.448,1-1V30.989
		C37.004,30.659,36.643,29.844,35.657,29.065z"/>
</g>
</svg>