<?xml version="1.0" encoding="utf-8"?><!-- Generator: Adobe Illustrator 15.0.0, SVG Export Plug-In . SVG Version: 6.00 Build 0)  --><!DOCTYPE svg PUBLIC "-//W3C//DTD SVG 1.1//EN" "http://www.w3.org/Graphics/SVG/1.1/DTD/svg11.dtd"><svg xmlns="http://www.w3.org/2000/svg" xmlns:xlink="http://www.w3.org/1999/xlink" viewBox="0 0 50 50" width="50px" height="50px"><path fill="none" stroke="#000000" stroke-width="2" stroke-linecap="round" stroke-linejoin="round" stroke-miterlimit="10" d="M19.483,31.348c3.487-2.709,10.996-8.797,19.356-17.157"/><path d="M24.294,31.282c-0.334-0.438-0.962-0.525-1.401-0.188c-0.439,0.334-0.524,0.962-0.189,1.401c0.478,0.627,0.861,1.256,1.176,1.879c-0.036,0.188-0.176,0.298-0.371,0.396c-0.659,0.45-4.13,0.009-6.187-1.781c-1.197-1.043-1.973-2.469-2.025-3.722c-0.036-0.85,0.25-1.592,0.849-2.209c0.039-0.04,0.056-0.091,0.087-0.136c0.736,0.358,1.498,0.814,2.285,1.409c0.441,0.335,1.068,0.246,1.4-0.195c0.333-0.44,0.246-1.067-0.195-1.4c-5.908-4.46-11.005-2.824-13.575-0.07c-3.626,3.886-2.767,8.105-2.009,11.829c0.733,3.603,1.312,6.447-1.708,8.743c-0.44,0.334-0.525,0.961-0.191,1.401c0.196,0.259,0.495,0.395,0.797,0.395c0.21,0,0.423-0.066,0.604-0.204c0.799-0.607,1.402-1.25,1.859-1.916c0.065-0.035,0.135-0.059,0.193-0.108c1.521-1.31,3.933-0.776,6.726-0.158c1.701,0.376,3.591,0.795,5.509,0.795c2.264,0,4.567-0.584,6.638-2.509C27.479,42.223,28.176,36.376,24.294,31.282z"/><path d="M42.468,4.876C41.868,3.429,40.154,1,35.42,1C32.279,1,30,2.966,30,5.674c0,1.411,0.579,2.207,1.064,2.626c0.36,0.311,0.763,0.502,1.146,0.618c-0.178,0.592-0.25,1.305,0.007,2.033c0.331,0.933,1.107,1.636,2.313,2.096c-1.104,3.178-3.471,6.783-10.143,13.04c-1.178,0.991-2.052,1.79-2.815,2.367c0.462,0.423,0.953,0.896,1.412,1.374c3.884-3.088,9.666-8.036,16.561-14.93C42.537,11.908,43.712,7.88,42.468,4.876z"/><path d="M21.995,16.332c0.057,0.799,0.33,1.516,0.805,2.082c0.914,1.091,2.55,1.479,3.998,0.983c-0.022,0.386-0.103,0.891-0.239,1.462c2.289-2.388,4.041-4.604,5.127-6.478c-0.207-0.893-0.494-1.743-0.845-2.503C29.436,8.824,27.07,7,24.513,7C18.47,7,18,10.861,18,12.045C18,14.004,19.586,16.094,21.995,16.332z"/><path d="M41.961,15.195c-0.313,0.383-0.643,0.759-1.001,1.117c-2.972,2.971-5.726,5.555-8.254,7.817c0.185-0.059,0.369-0.116,0.519-0.161c0.654,1.031,1.726,1.605,3.047,1.605c0.603,0,1.234-0.127,1.799-0.341C38.457,26.482,39.415,28,42.075,28C45.205,28,47,25.58,47,21.359C47,18.069,44.602,15.836,41.961,15.195z"/></svg>