<?xml version="1.0" encoding="iso-8859-1"?>
<!-- Generator: Adobe Illustrator 24.0.0, SVG Export Plug-In . SVG Version: 6.00 Build 0)  -->
<svg version="1.1" id="Layer_1" xmlns="http://www.w3.org/2000/svg" xmlns:xlink="http://www.w3.org/1999/xlink" x="0px" y="0px"
	 viewBox="0 0 50 50" style="enable-background:new 0 0 50 50;" xml:space="preserve">
<path d="M13.24,38.53C12.32,38.77,11.45,39,9.66,39c-1.78,0-2.65-0.23-3.58-0.47C5.08,38.27,4.04,38,2,38c-0.55,0-1,0.45-1,1v3
	c0,0.55,0.45,1,1,1h15v-5C15.17,38.03,14.19,38.28,13.24,38.53z M48,38c-2.05,0-3.08,0.27-4.09,0.53C42.99,38.77,42.12,39,40.33,39
	s-2.66-0.23-3.59-0.47c-1-0.26-2.04-0.53-4.08-0.53c-2.05,0-3.09,0.27-4.09,0.53C27.65,38.77,26.78,39,24.99,39
	c-1.79,0-2.66-0.23-3.58-0.47C20.73,38.35,20.03,38.1,19,38v5h29c0.55,0,1-0.45,1-1v-3C49,38.45,48.55,38,48,38z"/>
<path d="M13.24,26.53C12.32,26.77,11.45,27,9.66,27c-1.78,0-2.65-0.23-3.58-0.47C5.08,26.27,4.04,26,2,26c-0.55,0-1,0.45-1,1v2
	c0,0.55,0.45,1,1,1c1.79,0,2.66,0.23,3.58,0.47c1,0.26,2.04,0.53,4.08,0.53c2.05,0,3.08-0.27,4.09-0.53
	c0.86-0.22,1.68-0.44,3.25-0.46V26C15.17,26.03,14.19,26.28,13.24,26.53z M48,26c-2.05,0-3.08,0.27-4.09,0.53
	C42.99,26.77,42.12,27,40.33,27s-2.66-0.23-3.59-0.47c-1-0.26-2.04-0.53-4.08-0.53c-2.05,0-3.09,0.27-4.09,0.53
	C27.65,26.77,26.78,27,24.99,27c-1.79,0-2.66-0.23-3.58-0.47C20.73,26.35,20.03,26.1,19,26v4c0.77,0.09,1.33,0.32,1.91,0.47
	c1,0.26,2.03,0.53,4.08,0.53c2.04,0,3.08-0.27,4.08-0.53C30,30.23,30.87,30,32.66,30c1.78,0,2.66,0.23,3.58,0.47
	c1,0.26,2.04,0.53,4.09,0.53c2.04,0,3.08-0.27,4.09-0.53C45.34,30.23,46.21,30,48,30c0.55,0,1-0.45,1-1v-2C49,26.45,48.55,26,48,26z
	"/>
<path d="M13.25,13.53C12.33,13.77,11.45,14,9.66,14S7,13.77,6.08,13.53C5.08,13.27,4.04,13,2,13c-0.55,0-1,0.45-1,1v3
	c0,0.55,0.45,1,1,1c1.79,0,2.66,0.23,3.58,0.47c1,0.26,2.04,0.53,4.08,0.53c2.05,0,3.09-0.27,4.09-0.53
	c0.86-0.22,1.68-0.44,3.25-0.46V13C15.17,13.03,14.19,13.28,13.25,13.53z"/>
<path d="M48,13c-2.05,0-3.09,0.27-4.09,0.53C42.99,13.77,42.12,14,40.33,14s-2.66-0.23-3.59-0.47c-1-0.26-2.04-0.53-4.08-0.53
	c-2.05,0-3.09,0.27-4.09,0.53C27.65,13.77,26.78,14,24.99,14c-1.79,0-2.66-0.23-3.58-0.47C20.73,13.35,20.02,13.1,19,13v5
	c0.77,0.09,1.33,0.32,1.9,0.47c1.01,0.26,2.05,0.53,4.09,0.53s3.08-0.27,4.08-0.53c0.92-0.24,1.8-0.47,3.59-0.47
	s2.66,0.23,3.58,0.47c1,0.26,2.04,0.53,4.09,0.53c2.04,0,3.08-0.27,4.08-0.53C45.33,18.23,46.21,18,48,18c0.55,0,1-0.45,1-1v-3
	C49,13.45,48.55,13,48,13z"/>
<path d="M33.86,10c-0.14-0.23-0.29-0.45-0.47-0.65c-2.04-2.34-6.65-2.87-6.84-2.89c-0.28-0.03-0.56,0.05-0.77,0.24
	c-0.21,0.18-0.33,0.44-0.34,0.72c-0.01,0.14-0.07,2.39,0.58,4.55c0.85-0.07,1.39-0.21,2.03-0.37c1.09-0.28,2.3-0.6,4.61-0.6
	c0.63,0,1.18,0.02,1.67,0.06C34.22,10.71,34.07,10.35,33.86,10z"/>
<path d="M40.56,7.42c-0.01-0.28-0.13-0.54-0.34-0.72C40,6.51,39.73,6.43,39.45,6.46c-0.14,0.01-2.63,0.3-4.76,1.36
	c0.08,0.07,0.15,0.15,0.21,0.22c0.26,0.29,0.49,0.61,0.69,0.95c0.49,0.8,0.76,1.62,0.88,2.42c0.27,0.06,0.52,0.12,0.77,0.18
	c0.82,0.21,1.46,0.38,2.74,0.4C40.63,9.82,40.57,7.55,40.56,7.42z"/>
<path d="M14.31,20.39c0.79-0.2,1.42-0.36,2.69-0.38V24h-0.03c-2.11,0.03-3.29,0.35-4.25,0.6c-0.86,0.22-1.54,0.4-3.06,0.4
	c-1.51,0-2.19-0.18-3.08-0.41C5.68,24.36,4.67,24.1,3,24.02v-3.99c0.87,0.06,1.42,0.21,2.08,0.38C6.15,20.68,7.36,21,9.66,21
	C11.97,21,13.18,20.68,14.31,20.39z"/>
<path d="M47,20.03v3.99c-1.66,0.08-2.67,0.34-3.61,0.58c-0.86,0.22-1.54,0.4-3.06,0.4s-2.2-0.18-3.09-0.41
	C36.17,24.32,34.96,24,32.66,24c-2.31,0-3.52,0.32-4.61,0.6c-0.86,0.22-1.54,0.4-3.06,0.4c-1.52,0-2.2-0.18-3.07-0.4l-0.4-0.11
	c-0.59-0.17-1.33-0.38-2.33-0.48L19,23.99v-3.97c0.27,0.05,0.53,0.13,0.82,0.22c0.19,0.06,0.38,0.11,0.59,0.17
	C21.49,20.69,22.7,21,24.99,21c2.3,0,3.51-0.32,4.59-0.6c0.86-0.22,1.55-0.4,3.08-0.4c1.52,0,2.2,0.18,3.08,0.41
	c1.07,0.27,2.28,0.59,4.59,0.59c2.3,0,3.51-0.32,4.59-0.6C45.57,20.23,46.12,20.09,47,20.03z"/>
<path d="M14.31,32.39c0.79-0.2,1.42-0.36,2.69-0.38V36h-0.03c-2.11,0.03-3.29,0.35-4.25,0.6c-0.86,0.22-1.54,0.4-3.06,0.4
	c-1.51,0-2.19-0.18-3.08-0.41C5.68,36.36,4.67,36.1,3,36.02v-3.99c0.87,0.06,1.42,0.21,2.08,0.38C6.15,32.68,7.36,33,9.66,33
	C11.95,33,13.16,32.69,14.31,32.39z"/>
<path d="M47,32.03v3.99c-1.66,0.08-2.67,0.34-3.61,0.58c-0.86,0.22-1.54,0.4-3.06,0.4s-2.2-0.18-3.09-0.41
	C36.17,36.32,34.96,36,32.66,36c-2.31,0-3.52,0.32-4.61,0.6c-0.86,0.22-1.54,0.4-3.06,0.4c-1.52,0-2.2-0.18-3.07-0.4l-0.4-0.11
	c-0.59-0.17-1.33-0.38-2.33-0.48L19,35.99v-3.97c0.27,0.05,0.53,0.12,0.81,0.21c0.2,0.07,0.4,0.12,0.61,0.18
	c1.06,0.28,2.27,0.59,4.57,0.59s3.51-0.32,4.61-0.6c0.86-0.22,1.55-0.4,3.06-0.4c1.52,0,2.21,0.18,3.08,0.41
	c1.07,0.27,2.28,0.59,4.59,0.59c2.29,0,3.5-0.31,4.61-0.6C45.58,32.24,46.13,32.09,47,32.03z"/>
</svg>