<?xml version="1.0" encoding="utf-8"?><!-- Generator: Adobe Illustrator 15.0.0, SVG Export Plug-In . SVG Version: 6.00 Build 0)  --><!DOCTYPE svg PUBLIC "-//W3C//DTD SVG 1.1//EN" "http://www.w3.org/Graphics/SVG/1.1/DTD/svg11.dtd"><svg xmlns="http://www.w3.org/2000/svg" xmlns:xlink="http://www.w3.org/1999/xlink" viewBox="0 0 50 50" width="500px" height="500px"><path d="M15.579,39h19.053c-0.141-0.26-0.255-0.473-0.325-0.604c-0.32-0.541-3.391-7.019-4.252-12.615c-1.783,0.842-3.123,2.304-4.25,3.832c-0.188,0.254-0.485,0.405-0.801,0.406c-0.001,0-0.003,0-0.004,0c-0.314,0-0.611-0.148-0.8-0.399c-1.047-1.396-2.547-2.819-4.594-3.619c-0.89,4.596-3.605,11.933-3.731,12.271C15.851,38.332,15.741,38.604,15.579,39z"/><path d="M24.009,26.445c0.086-2.878,0.539-8.561,2.605-14.762c0.05-0.146,0.132-0.388,0.234-0.684h-6.295c-1.912,3.96-5.208,9.916-6.681,12.548C17.755,22.919,21.242,23.919,24.009,26.445z"/><path d="M38.317,22.289c2.563-4.108,6.517-6.887,10.585-7.284c0.063-0.007,0.476-0.053,1.098-0.104V13c0-1.103-0.897-2-2-2H36.096C36.719,15.384,37.729,19.86,38.317,22.289z"/><path d="M36.552,23.489c-0.558-2.25-1.777-7.453-2.476-12.489h-5.11c-0.162,0.463-0.317,0.912-0.457,1.322c-1.914,5.744-2.384,11.128-2.489,13.953C28.285,24.002,31.582,22.192,36.552,23.489z"/><path d="M43.09,19.771c2.719,7.221,6.578,11.171,6.618,11.211c0.011,0.012,0.125,0.132,0.292,0.302V16.907c-0.344,0.029-0.645,0.059-0.885,0.086C47.023,17.198,44.921,18.207,43.09,19.771z"/><path d="M1.236,15.028c0.306,0.063,7.503,1.634,10.831,7.649c1.33-2.374,4.306-7.743,6.259-11.677H2c-1.103,0-2,0.897-2,2v1.787C0.71,14.906,1.164,15.011,1.236,15.028z"/><path d="M48.257,32.356c-0.136-0.134-3.877-3.932-6.722-11.047c-1.042,1.191-1.943,2.575-2.622,4.098c-0.217,0.485-0.773,0.718-1.271,0.526c-2.242-0.86-4.092-1.03-5.655-0.76c0.724,5.207,3.722,11.637,4.064,12.246c0.264,0.49,0.557,1.032,0.855,1.581H48c1.103,0,2-0.897,2-2v-2.986C48.913,33.076,48.304,32.409,48.257,32.356z"/><path d="M14.01,37.55c0.021-0.06,2.838-7.665,3.662-12.068c-1.536-0.242-3.31-0.149-5.361,0.475c-0.513,0.157-1.06-0.121-1.236-0.628c-0.578-1.663-1.509-3.015-2.581-4.109c-2.318,5.928-6.611,10.038-6.807,10.224C1.609,31.516,0.993,32.082,0,32.863V37c0,1.103,0.897,2,2,2h11.417C13.65,38.438,13.854,37.936,14.01,37.55z"/><path d="M6.877,19.817c-2.895-2.145-6.031-2.828-6.081-2.838C0.776,16.974,0.488,16.907,0,16.821v13.446c0.196-0.17,0.311-0.275,0.318-0.282C0.359,29.945,4.803,25.675,6.877,19.817z"/></svg>