<?xml version="1.0" encoding="iso-8859-1"?>
<!-- Generator: Adobe Illustrator 22.1.0, SVG Export Plug-In . SVG Version: 6.00 Build 0)  -->
<svg version="1.1" id="Layer_1" xmlns="http://www.w3.org/2000/svg" xmlns:xlink="http://www.w3.org/1999/xlink" x="0px" y="0px"
	 viewBox="0 0 50 50" style="enable-background:new 0 0 50 50;" xml:space="preserve">
<g>
	<path d="M11.535,33.66l-8.668,7.704c-0.847,0.753-1.331,1.791-1.364,2.923s0.39,2.196,1.19,2.997
		c0.771,0.771,1.787,1.191,2.873,1.191c0.041,0,0.082,0,0.123-0.001c1.132-0.033,2.17-0.518,2.923-1.364l7.836-8.816
		C14.573,37.02,12.924,35.446,11.535,33.66z M6.707,44.707c-0.391,0.391-1.024,0.391-1.414,0c-0.391-0.391-0.391-1.024,0-1.414
		c0.391-0.391,1.024-0.391,1.414,0C7.098,43.683,7.098,44.317,6.707,44.707z"/>
	<path d="M28.5,1C17.748,1,9,9.747,9,20.5c0,4.45,1.515,8.543,4.033,11.828c0,0,0,0,0,0c0.318,0.415,0.652,0.815,1.001,1.202
		c0.034,0.038,0.068,0.075,0.103,0.113c0.327,0.358,0.665,0.704,1.018,1.036c0.077,0.072,0.156,0.141,0.234,0.212
		c0.331,0.302,0.666,0.597,1.017,0.876c0.107,0.086,0.221,0.164,0.33,0.247C20.01,38.504,24.079,40,28.5,40
		C39.252,40,48,31.252,48,20.5S39.252,1,28.5,1z M35.565,24.809c-0.659,5.902-7.642,9.124-13.755,3.041
		c-4.221-4.199-3.456-10.247,0.764-14.446c4.221-4.199,10.699-4.562,13.755-1.521C40.15,15.685,36.329,17.966,35.565,24.809z"/>
</g>
<path d="M30.828,15.172c-1.562-1.562-4.095-1.562-5.657,0s-1.562,4.095,0,5.657s4.095,1.562,5.657,0S32.391,16.734,30.828,15.172z
	 M27.707,17.707c-0.391,0.391-1.024,0.391-1.414,0c-0.391-0.391-0.391-1.024,0-1.414c0.391-0.391,1.024-0.391,1.414,0
	C28.098,16.683,28.098,17.317,27.707,17.707z"/>
</svg>