<?xml version="1.0" encoding="utf-8"?><!-- Generator: Adobe Illustrator 15.0.0, SVG Export Plug-In . SVG Version: 6.00 Build 0)  --><!DOCTYPE svg PUBLIC "-//W3C//DTD SVG 1.1//EN" "http://www.w3.org/Graphics/SVG/1.1/DTD/svg11.dtd"><svg xmlns="http://www.w3.org/2000/svg" xmlns:xlink="http://www.w3.org/1999/xlink" viewBox="0 0 50 50" width="50px" height="50px"><path d="M26.2,37c0.8,0.1,1.6,0.2,2.5,0.2c1.399,0,2.8-0.101,4.1-0.101L14.9,19.2c-1.5,1-2.7,2-3.4,2.7c-1.3-1.9-4.2-5.5-8.7-5.5c-0.4,0-1,0.2-1.3,0.7S1.3,18.3,1.7,19c1.6,2.7,2.4,5,2.4,6.8c0,2.4-1.5,5.9-2.6,7.4C1.1,33.8,1,34.4,1.3,35c0.3,0.5,0.8,0.8,1.5,0.8c5.5,0,8-3.6,9-5.8c2,1.8,6.6,5.3,12.3,6.6L26.2,37z"/><path d="M32.8,39.1c-0.602,0-1.232,0.023-1.901,0.048C30.187,39.173,29.449,39.2,28.7,39.2c-1.017,0-1.886-0.108-2.747-0.216l-0.064-0.008l-0.063-0.012l-1.424-0.271c-0.062,0.483-0.18,0.962-0.301,1.406c-0.2,0.9-0.4,1.7,0.1,2.4c0.2,0.2,0.6,0.5,1.2,0.5H29c0.2,0,0.4-0.1,0.5-0.1c0,0,0.1-0.101,0.2-0.101c2.069-0.989,3.486-2.225,4.406-3.7H32.8z"/><path d="M48.1,24.5c-3.899-7-10.5-10.6-19.5-10.6c-4.399,0-8.8,2-12.1,4.1l18.7,18.6c5.7-1,9.899-3.5,12.6-7.6C48.5,28,49.4,26.7,48.1,24.5z M38,27c-1.104,0-2-0.896-2-2s0.896-2,2-2s2,0.896,2,2S39.104,27,38,27z"/><path d="M16.713,12.058c0.288,0.086,1.072,0.589,1.526,1.521c0.15,0.307,0.237,0.639,0.293,0.982C21.4,13.128,24.916,11.9,28.6,11.9c2.602,0,5.029,0.301,7.279,0.875c-0.988-2.198-2.951-5.023-6.687-5.757c-0.146-0.029-0.298-0.024-0.442,0.013l-12,3.1c-0.435,0.112-0.741,0.5-0.75,0.949C15.992,11.53,16.283,11.929,16.713,12.058z"/><line fill="none" stroke="#000000" stroke-width="2" stroke-linecap="round" stroke-linejoin="round" stroke-miterlimit="10" x1="1" y1="1" x2="49" y2="49"/></svg>