<?xml version="1.0" encoding="iso-8859-1"?><!-- Generator: Adobe Illustrator 21.1.0, SVG Export Plug-In . SVG Version: 6.00 Build 0)  --><svg xmlns="http://www.w3.org/2000/svg" xmlns:xlink="http://www.w3.org/1999/xlink" viewBox="0 0 50 50" width="50px" height="50px"><path d="M23.64,27.4c-5.28,1.91-8.9,5.86-8.88,9.68c-0.85-0.34-1.88-1.23-2.51-1.78c-0.34-0.29-0.63-0.54-0.87-0.72c-0.53-0.39-1.23-0.45-1.83-0.17c-0.59,0.29-0.98,0.88-1,1.45L8.5,36.22c-0.06,0.49-0.08,0.85-0.1,1.13c-0.03,0.6-0.03,0.63-0.65,1.33c-0.79,0.9-1.01,2-0.62,3.1c0.39,1.09,1.26,1.81,2.44,2c0.93,0.16,0.94,0.18,1.35,0.62c0.19,0.21,0.43,0.48,0.79,0.81l0.2,0.19c0.34,0.39,0.83,0.6,1.33,0.6c0.14,0,0.29-0.02,0.43-0.05c0.64-0.16,1.14-0.65,1.3-1.29l0.09-0.33c0.24-0.98,0.63-2.54,1.45-3.2c1.57,1.54,4.04,2.35,6.85,2.35c1.82,0,3.78-0.34,5.75-1.04c2.38-0.84,4.43-2.11,5.96-3.61L23.64,27.4z M13.13,43.81c0,0-0.57-0.57-0.73-0.75c-0.66-0.73-1.02-1-2.5-1.25c-0.47-0.08-0.73-0.29-0.88-0.7C8.87,40.69,8.94,40.36,9.26,40c0.98-1.12,1.09-1.57,1.14-2.55c0.01-0.24,0.09-1.02,0.09-1.02c0.14,0.11,0.29,0.24,0.45,0.38c1.12,0.97,2.72,2.36,4.36,2.4c0.03,0.09,0.07,0.17,0.1,0.25C13.96,40.49,13.45,42.5,13.13,43.81z M12.24,16c-1.66,2.49-2.3,5.14-1.6,7.25c-0.77-0.03-1.8-0.39-2.44-0.63c-0.37-0.13-0.69-0.24-0.94-0.31c-0.59-0.16-1.23,0.02-1.67,0.47C5.16,23.23,5,23.87,5.16,24.37l0.06,0.31c0.09,0.42,0.17,0.72,0.24,0.96c0.14,0.47,0.14,0.47-0.15,1.2c-0.42,1.03-0.28,2.05,0.4,2.86c0.68,0.82,1.65,1.14,2.74,0.91c0.77-0.16,0.77-0.16,1.21,0.06c0.22,0.12,0.5,0.26,0.9,0.42l0.21,0.08c0.24,0.12,0.5,0.18,0.77,0.18c0.33,0,0.66-0.09,0.95-0.29c0.52-0.34,0.82-0.94,0.77-1.55l-0.03-0.3c-0.08-0.84-0.19-2.15,0.24-2.94c0.76,0.31,1.62,0.46,2.53,0.46c1.7,0,3.6-0.52,5.46-1.51L12.24,16z M11.22,29.2c-0.28-0.12-0.49-0.23-0.66-0.31c-0.49-0.25-0.83-0.39-1.35-0.39c-0.31,0-0.68,0.05-1.17,0.15c-0.42,0.09-0.63-0.02-0.8-0.23C7.07,28.22,6.99,28,7.16,27.6c0.51-1.26,0.47-1.7,0.22-2.52c-0.05-0.18-0.11-0.4-0.18-0.69c0.11,0.04,0.21,0.08,0.32,0.12c1.21,0.43,2.92,1.04,4.31,0.6C11.02,26.37,11.12,28.05,11.22,29.2z M47.71,45.95L37.4,35.64c0.33-0.7,0.54-1.42,0.63-2.13c0.61,0.4,1.23,0.94,1.67,1.31c0.33,0.29,0.62,0.54,0.86,0.72c0.31,0.23,0.68,0.34,1.06,0.34c0.26,0,0.52-0.05,0.77-0.17c0.6-0.29,0.99-0.88,1.01-1.45l0.04-0.36c0.07-0.49,0.08-0.84,0.1-1.13c0.03-0.6,0.03-0.63,0.65-1.33c0.79-0.9,1.01-2,0.62-3.1c-0.39-1.09-1.26-1.8-2.44-2c-0.92-0.16-0.94-0.17-1.34-0.62c-0.2-0.21-0.44-0.48-0.79-0.81l-0.21-0.19c-0.44-0.49-1.11-0.71-1.76-0.55c-0.64,0.16-1.14,0.65-1.3,1.29l-0.09,0.33c-0.18,0.74-0.44,1.8-0.9,2.56c-1.84-1.55-4.68-2.23-7.82-1.95l-3.44-3.44c2.94-2.6,4.65-5.85,4.65-8.61c0-0.38-0.03-0.76-0.1-1.12c0.58,0.14,1.17,0.35,1.6,0.5c0.37,0.13,0.69,0.24,0.94,0.31c0.14,0.04,0.29,0.06,0.43,0.06c0.46,0,0.91-0.19,1.24-0.53c0.43-0.45,0.59-1.09,0.43-1.58l-0.06-0.31c-0.09-0.43-0.17-0.72-0.24-0.96c-0.14-0.48-0.14-0.48,0.15-1.21c0.42-1.03,0.28-2.04-0.4-2.86c-0.68-0.81-1.65-1.13-2.74-0.91c-0.77,0.16-0.77,0.16-1.21-0.06c-0.22-0.11-0.5-0.25-0.9-0.41L28.3,5.19c-0.55-0.28-1.21-0.24-1.72,0.1c-0.52,0.35-0.82,0.94-0.77,1.56l0.03,0.3c0.06,0.62,0.14,1.5,0,2.24c-2.9-0.93-6.99,0.25-10.46,3.14c-0.2,0.17-0.39,0.34-0.58,0.51L4.05,2.29c-0.39-0.39-1.03-0.39-1.42,0s-0.39,1.03,0,1.42l43.66,43.66c0.2,0.19,0.45,0.29,0.71,0.29s0.51-0.1,0.71-0.29C48.1,46.98,48.1,46.34,47.71,45.95z M27.85,7.16c0.28,0.12,0.49,0.22,0.66,0.31c0.77,0.39,1.19,0.51,2.52,0.23c0.42-0.09,0.63,0.03,0.8,0.23c0.17,0.21,0.24,0.43,0.08,0.83c-0.51,1.26-0.47,1.69-0.22,2.52c0.05,0.18,0.11,0.39,0.18,0.68c-0.11-0.03-0.21-0.07-0.33-0.11c-0.91-0.33-2.1-0.76-3.23-0.76h-0.1c-0.2-0.24-0.4-0.47-0.59-0.66C28.01,9.32,27.93,8.08,27.85,7.16z M37.28,29.97c0.89-1.09,1.27-2.6,1.54-3.65c0,0,0.56,0.56,0.72,0.74c0.66,0.73,1.02,1,2.5,1.25c0.47,0.08,0.74,0.29,0.89,0.71c0.14,0.41,0.07,0.74-0.24,1.1c-0.99,1.13-1.1,1.57-1.15,2.55c-0.01,0.24-0.09,1.02-0.09,1.02c-0.13-0.11-0.28-0.24-0.44-0.38c-0.88-0.76-2.05-1.77-3.29-2.2c-0.13-0.4-0.28-0.8-0.44-1.13V29.97z"/></svg>