<?xml version="1.0" encoding="iso-8859-1"?>
<!-- Generator: Adobe Illustrator 23.0.6, SVG Export Plug-In . SVG Version: 6.00 Build 0)  -->
<svg version="1.1" id="Filled" xmlns="http://www.w3.org/2000/svg" xmlns:xlink="http://www.w3.org/1999/xlink" x="0px" y="0px"
	 viewBox="0 0 50 50" style="enable-background:new 0 0 50 50;" xml:space="preserve">
<path d="M21.348,6.667c-0.504,0-0.913,0.41-0.913,0.917c0,0.506,0.409,0.917,0.913,0.917s0.913-0.41,0.913-0.917
	C22.261,7.077,21.852,6.667,21.348,6.667z M23.174,9.417c-0.504,0-0.913,0.41-0.913,0.917c0,0.506,0.409,0.917,0.913,0.917
	c0.504,0,0.913-0.41,0.913-0.917C24.087,9.827,23.678,9.417,23.174,9.417z M19.522,9.417c-0.504,0-0.913,0.41-0.913,0.917
	c0,0.506,0.409,0.917,0.913,0.917c0.504,0,0.913-0.41,0.913-0.917C20.435,9.827,20.026,9.417,19.522,9.417z"/>
<g>
	<path d="M46.158,31.421c-0.236-0.331-0.649-0.486-1.043-0.395c-0.026,0.006-0.15,0.036-0.349,0.097
		c-2.848,0.866-4.765,3.535-4.765,6.511L40,41c0,0,0,0,0,0c1.014,0,4.323,0.165,6.005-2.525
		C47.39,36.264,47.228,32.927,46.158,31.421z"/>
	<path d="M38.001,37.636c0-3.046-2.007-5.76-4.944-6.566c-0.097-0.027-0.158-0.041-0.175-0.045
		c-0.394-0.086-0.804,0.066-1.038,0.396c-1.069,1.506-1.231,4.843,0.152,7.054C33.677,41.164,36.985,41,38,41L38.001,37.636z"/>
</g>
<path d="M38.998,11.239c1.274-1.254,2.71-2.047,3.824-2.527c-0.658-2.71-2.97-5.263-3.085-5.388C39.548,3.118,39.281,3,39,3
	s-0.547,0.118-0.737,0.324c-0.114,0.125-2.424,2.675-3.084,5.384C36.294,9.187,37.727,9.979,38.998,11.239z"/>
<g>
	<path d="M38,13.095c-2.054-2.341-4.984-3.039-5.119-3.07c-0.394-0.088-0.804,0.067-1.038,0.396
		c-0.766,1.078-1.054,3.094-0.654,4.964c0.637-0.358,1.396-0.48,2.137-0.31c0.329,0.075,2.553,0.636,4.674,2.29L38,13.095z"/>
	<path d="M46.157,10.421c-0.236-0.331-0.649-0.486-1.043-0.395c-0.136,0.032-3.06,0.745-5.114,3.062l0,4.28
		c2.115-1.641,4.331-2.212,4.659-2.289c0.746-0.173,1.511-0.052,2.153,0.308C47.211,13.515,46.923,11.5,46.157,10.421z"/>
</g>
<g>
	<path d="M44.659,22.079c0.746-0.173,1.511-0.053,2.153,0.307c0.4-1.871,0.112-3.887-0.654-4.965
		c-0.236-0.332-0.649-0.488-1.043-0.395c-0.136,0.032-3.06,0.745-5.114,3.062l0,4.28C42.115,22.726,44.33,22.156,44.659,22.079z"/>
	<path d="M33.326,22.075c0.329,0.075,2.553,0.636,4.674,2.29l0-4.27c-2.054-2.341-4.984-3.039-5.119-3.07
		c-0.394-0.089-0.804,0.067-1.038,0.396c-0.766,1.078-1.054,3.094-0.654,4.964C31.825,22.027,32.585,21.905,33.326,22.075z"/>
</g>
<path d="M38,46c0,0.552,0.448,1,1,1s1-0.448,1-1l0-5h-2L38,46z"/>
<g>
	<path d="M44.185,29.209c0.274-0.083,0.446-0.124,0.481-0.132c0.747-0.175,1.508-0.055,2.146,0.305
		c0.399-1.87,0.111-3.884-0.655-4.962c-0.236-0.331-0.649-0.487-1.043-0.395c-0.136,0.032-3.06,0.745-5.114,3.061l0,4.958
		C41.069,30.73,42.509,29.719,44.185,29.209z"/>
	<path d="M33.311,29.071c0.043,0.01,0.135,0.031,0.281,0.071c1.774,0.487,3.294,1.52,4.409,2.887l0-4.935
		c-2.054-2.341-4.984-3.039-5.119-3.07c-0.394-0.089-0.804,0.067-1.038,0.396c-0.766,1.078-1.054,3.093-0.654,4.964
		C31.819,29.03,32.571,28.909,33.311,29.071z"/>
	<path d="M38.001,37.636c0-3.046-2.007-5.76-4.944-6.566c-0.097-0.027-0.158-0.041-0.175-0.045
		c-0.394-0.086-0.804,0.066-1.038,0.396c-1.069,1.506-1.231,4.843,0.152,7.054C33.677,41.164,36.985,41,38,41L38.001,37.636z"/>
</g>
<path d="M30.3,39.536c-1.434-2.291-1.669-5.675-0.713-8.07l-0.355-1.663c-0.4-1.871-0.251-3.832,0.352-5.349l-0.352-1.651
	c-0.4-1.872-0.251-3.832,0.352-5.349l-0.352-1.651c-0.081-0.381-0.132-0.766-0.169-1.15l-0.442,0.064C27.695,14.851,25.98,15,25,15
	c-5.632,0-10-2.688-10-5c0-1.29,5.413-6,6.896-6c0.656,0,1.242,0.576,1.919,1.242C24.653,6.066,25.604,7,27,7
	c0.736,0,1.378-0.321,1.944-0.605C29.333,6.201,29.733,6,30,6c0.482,0,1.405,0.347,2.377,1.121c0.432,0.342,1.061,0.271,1.405-0.16
	c0.344-0.432,0.272-1.061-0.16-1.405C32.398,4.582,31.044,4,30,4c-0.739,0-1.383,0.322-1.951,0.606C27.663,4.8,27.263,5,27,5
	c-0.578,0-1.136-0.549-1.783-1.185C24.395,3.007,23.371,2,21.896,2c-1.207,0-3.428,1.347-5.349,3.02
	c-0.039,0.003-0.076-0.008-0.116,0.001c-0.523,0.109-5.162,1.142-6.867,3.84c-0.604,0.955-0.775,1.993-0.514,3.063
	c0.109,0.491,0.36,1.579,0.623,2.68c0.008,0.025,0.027,0.045,0.033,0.071C10.361,17.379,17.117,21,24,21
	c0.961,0,0.929-0.06,1.875-0.179c0.542-0.07,1.048,0.319,1.117,0.868c0.069,0.548-0.319,1.048-0.868,1.117
	C25.096,22.935,25.044,23,24,23c-5.76,0-12.305-2.576-15.156-5.916c-2.757,2.431-4.951,6.827-5.832,11.915
	c-0.005,0.036-0.001,0.073-0.005,0.109c0.068,3.174,3.157,6.824,8.508,10.035c0.474,0.284,0.627,0.898,0.343,1.372
	C11.67,40.827,11.339,41,10.999,41c-0.175,0-0.353-0.046-0.514-0.143c-2.156-1.293-5.194-3.42-7.247-6.093
	C3.103,35.518,3,36.403,3,37.375C3,43.333,12.664,48,25,48c3.572,0,7.113-0.411,10.241-1.188l0.757-0.188L36,45.843
	c0.003-0.994,0-1.968-0.005-2.933C34.222,42.693,31.82,41.964,30.3,39.536z"/>
</svg>