<?xml version="1.0" encoding="utf-8"?><!-- Generator: Adobe Illustrator 15.0.0, SVG Export Plug-In . SVG Version: 6.00 Build 0)  --><!DOCTYPE svg PUBLIC "-//W3C//DTD SVG 1.1//EN" "http://www.w3.org/Graphics/SVG/1.1/DTD/svg11.dtd"><svg xmlns="http://www.w3.org/2000/svg" xmlns:xlink="http://www.w3.org/1999/xlink" viewBox="0 0 50 50" width="50px" height="50px"><path d="M26.632,30.755C21.959,35.131,15.688,41.009,15.1,41.4c-0.2,0.1-0.4,0.199-0.6,0.199S14,41.5,13.8,41.2c-0.3-0.4-0.3-0.9,0-1.3c0.098-0.099,5.956-6.568,10.426-11.533l-1.755-1.742C17.173,31.224,9.799,37.501,9.3,37.9C9.2,38,8.9,38.1,8.7,38.1c-0.3,0-0.5,0-0.7-0.199C7.6,37.6,7.6,37.1,7.8,36.7c0.297-0.495,3.394-3.898,11.816-12.909L16.3,20.5c-4.8,4.3-9.5,8.1-9.5,8.1C3.7,31,0.3,35.2,0.1,39.6C-0.1,42.3,0.9,44.7,3,46.8L3.2,47c1.9,1.9,4.5,3,7.2,3c0.2,0,0.4,0,0.6,0c2.9-0.2,5.6-1.6,7.4-3.8c3-3.3,7.5-8.4,11.2-12.5L26.632,30.755z"/><line fill="none" stroke="#000000" stroke-width="2" stroke-linecap="round" stroke-linejoin="round" stroke-miterlimit="10" x1="1" y1="1" x2="49" y2="49"/><path d="M43.063,28.793c-0.941,0-1.552-0.473-1.983-1.007c-0.58,0.61-1.289,0.681-1.583,0.681c-0.725,0-1.46-0.341-2.019-0.936c-0.141-0.149-0.264-0.31-0.367-0.477c-1.6,0.673-2.978,0.275-3.557-0.902c-0.064-0.131-0.117-0.269-0.157-0.41c-0.356,0.118-0.707,0.178-1.046,0.178l0,0c-0.821,0-1.533-0.363-1.953-0.995c-0.131-0.196-0.229-0.411-0.293-0.638c-0.228,0.038-0.464,0.057-0.704,0.057c-1.252,0-2.287-0.502-2.84-1.378c-0.279-0.441-0.513-1.107-0.386-2.042c-1.221-0.038-2.109-0.475-2.512-1.241c-0.191-0.365-0.258-0.764-0.202-1.195c-1.175-0.188-2.347-0.875-2.672-2.021c-0.124-0.437-0.174-1.143,0.351-1.932c-0.885-0.388-1.598-1.011-1.798-1.839c-0.063-0.262-0.118-0.762,0.164-1.31c-0.431-0.317-0.796-0.761-0.85-1.375c-0.084-0.97,0.66-1.72,1.518-2.302c-0.217-0.276-0.36-0.617-0.33-1.036c0.055-0.753,0.651-1.255,1.358-1.614c0.004-0.21,0.053-0.38,0.095-0.487c0.443-1.147,2.125-1.388,3.458-1.388c0.098,0,0.197,0.001,0.297,0.004c0.032-0.217,0.096-0.431,0.193-0.635c0.717-1.513,2.802-1.899,5.466-0.829c0.06-0.272,0.166-0.52,0.319-0.742c0.288-0.416,0.867-0.91,1.992-0.91c0.538,0,1.15,0.114,1.826,0.339c0.253-0.19,0.631-0.338,1.194-0.338c0.793,0,1.975,0.329,2.809,1.039c1.384-0.768,3.407-0.472,4.36,0.671c0.228,0.273,0.395,0.582,0.498,0.914c0.002,0,0.005,0,0.007,0c1.362,0,2.666,0.764,3.172,1.857c0.233,0.503,0.284,1.041,0.163,1.572c1.634,0.593,1.963,1.669,1.996,2.336c0.034,0.674-0.234,1.375-0.633,1.934c1.4,1.177,1.695,2.511,1.443,3.479c-0.096,0.368-0.271,0.691-0.502,0.949C49.753,15.445,50,16.251,50,17.7c0,0.813-0.647,1.649-1.758,1.842c0.372,1.054,0.46,2.238-0.079,3.162c-0.297,0.496-0.847,0.828-1.486,0.918c-0.021,1.649-0.434,4.027-2.054,4.784C44.048,28.668,43.54,28.793,43.063,28.793z"/><path d="M32.34,27.921c-0.744-0.002-1.446-0.196-2.069-0.526c-0.618,0.577-1.349,1.252-2.171,2.006l0,0l2.801,2.8c1.136-1.227,2.116-2.317,2.906-3.193C33.241,28.758,32.742,28.392,32.34,27.921z"/></svg>