<?xml version="1.0" encoding="utf-8"?><!-- Generator: Adobe Illustrator 19.1.1, SVG Export Plug-In . SVG Version: 6.00 Build 0)  --><svg xmlns="http://www.w3.org/2000/svg" xmlns:xlink="http://www.w3.org/1999/xlink" viewBox="0 0 50 50" width="500px" height="500px"><path d="M30,21c0-2.2-2.2-4-5-4s-5,1.8-5,4s2.2,4,5,4S30,23.2,30,21z"/><path d="M19.5,35c-0.7,0-1.3-0.1-1.9-0.3c-0.4,0.5-0.6,1.1-0.6,1.8c0,1.9,1.8,3.5,4,3.5c0.7,0,1.4-0.2,2-0.5c-0.6-0.9-1-1.9-1-3c0-0.8,0.2-1.5,0.5-2.2C21.6,34.8,20.6,35,19.5,35z"/><path d="M25.1,34.1c-0.7,0.6-1.1,1.5-1.1,2.4c0,1.9,1.8,3.5,4,3.5c2.2,0,4-1.6,4-3.5c0-0.8-0.3-1.5-0.8-2.1c-0.8,0.4-1.7,0.6-2.7,0.6C27.3,35,26.1,34.7,25.1,34.1z"/><path d="M25.1,11.8c0.3-3.4,1.7-6.1,5.8-7.8l-0.8-1.8c-4.7,1.9-6.3,5-6.9,8.3C23.9,10.9,24.5,11.4,25.1,11.8z"/><path d="M24.4,41c-0.9,0.6-1.9,0.9-2.9,1c-0.4,0.6-0.6,1.3-0.6,2c0,2.2,1.8,4,4,4s4-1.8,4-4c0-0.7-0.2-1.4-0.6-2c-0.1,0-0.3,0-0.4,0C26.6,42,25.4,41.6,24.4,41z"/><path d="M36.9,40.9c-0.4,0-0.8,0.1-1.1,0.1c-1.1,0-2.3-0.3-3.3-0.9c-0.6,0.6-1.3,1.1-2.1,1.4c0.3,0.8,0.5,1.6,0.5,2.5c0,1-0.3,2-0.7,2.9C30.6,47,31,47,31.4,47c3,0,5.5-2.5,5.5-5.5C36.9,41.3,36.9,41.1,36.9,40.9z"/><path d="M18.9,44c0-0.8,0.2-1.5,0.4-2.2c-1.1-0.3-2.1-0.9-2.9-1.7c-0.9,0.6-1.9,0.9-3,0.9c0,0-1.1,0-1.5-0.2c0,0.2-0.1,0.5-0.1,0.7c0,3,2.5,5.5,5.5,5.5c0.7,0,1.4-0.2,2.1-0.4C19.2,45.8,18.9,44.9,18.9,44z"/><path d="M35.8,39c4.4,0,5.5-4.1,4.8-5.3c-2.7,0.8-5.9-0.2-6.9-1.2c-0.2,0.3-0.5,0.6-0.8,0.9c0.7,0.9,1.1,2,1.1,3.1c0,0.7-0.1,1.3-0.4,1.9C34.2,38.8,35.1,39,35.8,39z"/><path d="M33.5,17c-0.9,0-1.9,0.3-2.6,0.8c0.7,0.9,1.1,2,1.1,3.2c0,1.2-0.4,2.3-1.1,3.2c0.8,0.5,1.7,0.8,2.6,0.8c2.5,0,4.5-1.8,4.5-4S36,17,33.5,17z"/><path d="M39.9,27c-1,0-2.3-0.3-3.3-0.8c-0.7,0.3-1.4,0.6-2.1,0.7c0.3,0.7,0.4,1.4,0.4,2.1c0,0.6-0.1,1.1-0.3,1.6c0.7,0.9,2.1,1.4,3.2,1.4c4.9,0,5.4-4.5,5-5.5C42,26.9,40.9,27,39.9,27z"/><path d="M29.4,25.7C28.2,26.5,26.7,27,25,27c-0.1,0-0.3,0-0.4,0c-0.4,0.6-0.6,1.3-0.6,2c0,2.2,2,4,4.5,4s4.5-1.8,4.5-4c0-0.8-0.2-1.5-0.7-2.1C31.2,26.7,30.2,26.3,29.4,25.7z"/><path d="M12,21c0,2.2,2,4,4.5,4c1,0,1.9-0.3,2.6-0.8c-0.7-0.9-1.1-2-1.1-3.2c0-1.2,0.4-2.3,1.1-3.2c-0.8-0.5-1.7-0.8-2.6-0.8C14,17,12,18.8,12,21z"/><path d="M19.4,33c1.2,0,2.4-0.5,3.3-1.2c-0.5-0.8-0.8-1.8-0.8-2.8c0-0.8,0.2-1.7,0.6-2.4c-0.7-0.2-1.3-0.6-1.9-0.9C19.4,26.5,18,27,16.5,27c-0.3,0-0.6,0-0.9-0.1c-0.4,0.6-0.7,1.3-0.7,2.1C14.9,31.2,17,33,19.4,33z"/><path d="M27.6,13.4l3.5,2c0.8-0.3,1.6-0.5,2.5-0.5c0.7,0,1.3,0.1,1.9,0.3c1-2.5,1.6-5.6,0.2-7.8C35.5,7.2,35.2,7,34.9,7c-0.3,0-0.7,0.1-0.9,0.4c-2.2,3.1-5.6,4.4-8,5C26.8,13,27.4,13.3,27.6,13.4z"/><path d="M39.4,16c-0.6,0-1.3,0.1-1.9,0.3c1.5,1.1,2.4,2.8,2.4,4.7c0,1.4-0.6,2.8-1.5,3.8c0.5,0.1,1,0.2,1.4,0.2c3.5,0,5-2.2,5-4.1C44.9,18.1,42.3,16,39.4,16z"/><path d="M39.4,14c0.9,0,1.9,0.2,2.7,0.5c0.4-0.7,0.8-1.5,0.9-2.4c0-0.4-0.1-0.7-0.4-0.9c-0.3-0.2-0.7-0.3-1-0.1c-0.9,0.4-2.1,0.7-3.2,1c-0.1,0.7-0.2,1.4-0.4,2.1C38.4,14.1,38.9,14,39.4,14z"/><path d="M16.5,15c1.5,0,2.9,0.5,4.1,1.3c1.2-0.8,2.7-1.3,4.4-1.3c0.5,0,1,0.1,1.5,0.2c-0.8-0.5-6.6-4-10.7-9.7C15.6,5.1,15.2,5,14.9,5c-0.4,0-0.7,0.3-0.8,0.6c-1.8,4.8-0.9,8.2-0.2,9.9C14.7,15.2,15.6,15,16.5,15z"/><path d="M10.6,16c0.6,0,1.3,0.1,1.9,0.3C11,17.4,10,19.1,10,21c0,1.4,0.6,2.8,1.5,3.8c-0.5,0.1-1,0.2-1.4,0.2c-3.5,0-5-2.2-5-4.1C5.1,18.1,7.8,16,10.6,16z"/><path d="M7.2,14.8c1-0.5,2.2-0.8,3.4-0.8c0.2,0,0.5,0,0.7,0c-0.1-0.6-0.2-1.3-0.3-2.1c-1.1-0.2-2.4-0.4-3.7-0.9c-0.4-0.1-0.7-0.1-1,0.2c-0.3,0.3-0.4,0.6-0.3,1C6.3,13.2,6.7,14.1,7.2,14.8z"/><path d="M15.7,33.9c-0.4-0.3-0.8-0.6-1.1-0.9c-0.9,0.6-3.9,1.6-6.3,0.7C7.6,34.9,8.7,39,13.1,39c0.7,0,1.6-0.2,2.2-0.6c-0.2-0.6-0.4-1.2-0.4-1.9C14.9,35.6,15.2,34.7,15.7,33.9z"/><path d="M11.5,32c0.7-0.1,1.4-0.2,2-0.6c-0.3-0.7-0.5-1.5-0.5-2.4c0-0.9,0.2-1.8,0.7-2.6c-0.1,0-0.2-0.1-0.3-0.2c-0.9,0.5-4.6,1.6-7.1-0.2C5.4,27.2,5.3,32.8,11.5,32z"/></svg>