<?xml version="1.0" encoding="iso-8859-1"?>
<!-- Generator: Adobe Illustrator 23.0.3, SVG Export Plug-In . SVG Version: 6.00 Build 0)  -->
<svg version="1.1" xmlns="http://www.w3.org/2000/svg" xmlns:xlink="http://www.w3.org/1999/xlink" x="0px" y="0px"
	 viewBox="0 0 50 50" style="enable-background:new 0 0 50 50;" xml:space="preserve">
<g id="Layer_10" style="display:none;">
</g>
<g id="filled">
</g>
<g id="outlined">
</g>
<g id="rounded">
</g>
<g id="two_x5F_tone">
</g>
<g id="sharp">
</g>
<g id="win10">
</g>
<g id="color">
</g>
<g id="ios_x5F_out">
</g>
<g id="ios_x5F_filled">
	<path d="M40.118,7L37,13.236V48h5c0.552,0,1-0.448,1-1V12.764L40.118,7z"/>
	<path d="M35,14v34h-9.96c1.7-0.85,3.33-1.97,4.81-3.31c0.14-0.11,0.35-0.31,0.87-0.82l0.09-0.1c3.94-4.41,2.43-11.98-3.58-18
		c-2.83-2.83-6.08-4.72-9.23-5.43V14H35z"/>
	<polygon points="35.382,12 37.382,8 21.333,8 18.667,12 	"/>
	<path d="M40,6V3c0-0.553-0.447-1-1-1H23c-0.553,0-1,0.447-1,1v3H40z"/>
	<path d="M29.32,42.45c-3.12,3.12-6.94,5.07-10.75,5.47c-0.5,0.05-0.99,0.08-1.48,0.08c-3.31,0-6.33-1.21-8.6-3.49
		c-2.61-2.61-3.82-6.19-3.41-10.08c0.4-3.81,2.35-7.63,5.47-10.75l0.71,0.7l0.01,0.01c-0.09,0.08-0.18,0.16-0.27,0.25
		c-3.09,3.09-1.69,9.15,3.26,14.1s11.01,6.35,14.1,3.26c0.09-0.09,0.17-0.18,0.25-0.27l0.01,0.01L29.32,42.45z"/>
	
		<ellipse transform="matrix(0.7071 -0.7071 0.7071 0.7071 -17.7941 23.6761)" style="fill:none;stroke:#000000;stroke-width:2;stroke-linejoin:round;stroke-miterlimit:10;" cx="19.683" cy="33.317" rx="7.672" ry="12.275"/>
	
		<ellipse transform="matrix(0.7071 -0.7071 0.7071 0.7071 -17.7941 23.6761)" style="fill:none;stroke:#000000;stroke-width:2;stroke-linejoin:round;stroke-miterlimit:10;" cx="19.683" cy="33.317" rx="3.58" ry="8.183"/>
</g>
<g id="cute-color">
</g>
<g id="cute-out">
</g>
<g id="plasticine">
</g>
<g id="carbon_copy">
</g>
</svg>