<?xml version="1.0" encoding="iso-8859-1"?>
<!-- Generator: Adobe Illustrator 24.1.2, SVG Export Plug-In . SVG Version: 6.00 Build 0)  -->
<svg version="1.1" id="Layer_1" xmlns="http://www.w3.org/2000/svg" xmlns:xlink="http://www.w3.org/1999/xlink" x="0px" y="0px"
	 viewBox="0 0 50 50" style="enable-background:new 0 0 50 50;" xml:space="preserve">
<path style="fill:none;stroke:#000000;stroke-width:2;stroke-linecap:round;stroke-linejoin:round;stroke-miterlimit:10;" d="M23,2
	c2,0,3,2,2,4 M20,2h10"/>
<path d="M41.706,14.485l-6.87,2.29l-1.021,4.057l1.159,4.939c0.126,0.538-0.208,1.076-0.745,1.202
	C34.151,26.991,34.075,27,33.999,27c-0.454,0-0.864-0.311-0.973-0.771l-0.983-4.192l-3.804,0.935
	c-0.533,0.139-1.078-0.195-1.21-0.731c-0.132-0.537,0.196-1.078,0.732-1.21l4.202-1.033l1.067-4.24
	c0.083-0.331,0.33-0.597,0.653-0.704l6.832-2.277C36.846,8.036,31.256,5,25,5C17.494,5,10.948,9.37,7.528,15.808l4.748,5.936
	l2.937-1.469l1.858-4.646c0.205-0.514,0.786-0.765,1.3-0.558c0.513,0.205,0.762,0.787,0.557,1.3l-1.699,4.247l2.325,1.55
	c0.459,0.307,0.583,0.927,0.277,1.387C19.639,23.844,19.322,24,18.999,24c-0.19,0-0.383-0.055-0.554-0.168l-2.517-1.678l-3.481,1.74
	c-0.421,0.211-0.933,0.098-1.228-0.27l-4.641-5.801C5.563,20.338,5,23.101,5,26c0,11.579,8.972,21,20,21
	c0.508,0,1.007-0.041,1.506-0.08l-4.213-4.213c-0.283-0.283-0.37-0.707-0.222-1.078l1.755-4.388l-3.534-3.534
	c-0.391-0.391-0.391-1.023,0-1.414s1.023-0.391,1.414,0L25,35.586l3.293-3.293c0.391-0.391,1.023-0.391,1.414,0s0.391,1.023,0,1.414
	l-3.855,3.854l-1.679,4.197l4.819,4.819C38.114,44.63,45,36.144,45,26C45,21.749,43.782,17.795,41.706,14.485z"/>
</svg>