<?xml version="1.0" encoding="iso-8859-1"?>
<!-- Generator: Adobe Illustrator 23.0.3, SVG Export Plug-In . SVG Version: 6.00 Build 0)  -->
<svg version="1.1" xmlns="http://www.w3.org/2000/svg" xmlns:xlink="http://www.w3.org/1999/xlink" x="0px" y="0px"
	 viewBox="0 0 50 50" style="enable-background:new 0 0 50 50;" xml:space="preserve">
<g id="Layer_10" style="display:none;">
</g>
<g id="filled">
</g>
<g id="outlined">
</g>
<g id="rounded">
</g>
<g id="two_x5F_tone">
</g>
<g id="sharp">
</g>
<g id="win10">
</g>
<g id="color">
</g>
<g id="ios_x5F_out">
</g>
<g id="ios_x5F_filled">
	<path style="fill:none;stroke:#000000;stroke-width:2;stroke-miterlimit:10;" d="M29,2.833C29,2.373,28.552,2,28,2h-6
		c-0.552,0-1,0.373-1,0.833c0,0,0,7.167,0,9.167c0,5.35-5,5.7-5,11.05v22.81c0,1.18,1.01,2.14,2.25,2.14h13.5
		c1.24,0,2.25-0.96,2.25-2.14V23.05c0-5.35-5-5.7-5-11.05C29,10,29,2.833,29,2.833z"/>
	<path d="M34,23.05v22.81c0,1.18-1.01,2.14-2.25,2.14h-13.5C17.01,48,16,47.04,16,45.86V23.05c0-4.06,2.88-4.66,4.27-7.05h9.46
		C31.12,18.39,34,18.99,34,23.05z M25,25c-5.833,0-7,3.582-7,8s1.167,8,7,8s7-3.582,7-8S30.833,25,25,25z"/>
	<rect x="21" y="1.833" width="8" height="5.167"/>
</g>
<g id="cute-color">
</g>
<g id="cute-out">
</g>
<g id="plasticine">
</g>
<g id="carbon_copy">
</g>
</svg>