<?xml version="1.0" encoding="utf-8"?><!-- Generator: Adobe Illustrator 15.0.0, SVG Export Plug-In . SVG Version: 6.00 Build 0)  --><!DOCTYPE svg PUBLIC "-//W3C//DTD SVG 1.1//EN" "http://www.w3.org/Graphics/SVG/1.1/DTD/svg11.dtd"><svg xmlns="http://www.w3.org/2000/svg" xmlns:xlink="http://www.w3.org/1999/xlink" viewBox="0 0 50 50" width="50px" height="50px"><path d="M17.964,45.628c-0.764-0.997-1.63-2.126-2.789-3.177c-0.314-0.284-0.645-0.537-0.983-0.776c-0.477,0.798-0.793,1.571-0.903,1.858c-0.157,0.408-0.575,1.494,0.031,2.378C13.978,46.868,15.413,47,16.865,47h0.694c0.577,0,1.067-0.001,1.497-0.006C18.673,46.543,18.312,46.08,17.964,45.628z"/><path d="M35.698,41.702c-0.304,0.208-0.604,0.428-0.901,0.669c-1.128,0.917-1.904,2.012-2.729,3.171c-0.315,0.446-0.651,0.916-1.019,1.379C31.798,46.998,32.548,47,33.135,47c1.453,0,2.889-0.132,3.545-1.089c0.606-0.884,0.188-1.97,0.032-2.375C36.512,43.014,36.152,42.348,35.698,41.702z"/><path d="M49,50c-0.256,0-0.512-0.098-0.707-0.293l-48-48c-0.391-0.391-0.391-1.023,0-1.414s1.023-0.391,1.414,0l48,48c0.391,0.391,0.391,1.023,0,1.414C49.512,49.902,49.256,50,49,50z"/><g><path d="M24,25.414V2.777c-0.764-0.499-1.71-0.821-2.808-0.821c-0.377,0-0.761,0.041-1.073,0.108c-2.583,0.355-5.087,1.047-7.443,2.058c-1.619,0.693-2.603,1.618-3.155,2.563l3.844,8.094L24,25.414z"/><path d="M49.036,21.611L35.548,33.865c-0.192,0.174-0.433,0.26-0.673,0.26c-0.271,0-0.543-0.109-0.74-0.327c-0.371-0.409-0.341-1.042,0.067-1.413L48.99,18.95c0.074-0.904-0.104-1.978-0.604-3.4c-0.81-2.29-1.941-3.981-3.396-5.816c-0.704-0.888-1.834-1.44-2.999-1.543L31.909,30.167c-0.169,0.367-0.531,0.583-0.91,0.583c-0.14,0-0.281-0.029-0.416-0.091c-0.502-0.229-0.724-0.824-0.492-1.326L40.389,6.891c-0.514-1.164-1.525-2.142-2.843-2.72C35.9,3.45,33.587,2.926,31.35,2.419c-0.701-0.158-1.393-0.315-2.051-0.475c-0.314-0.077-0.637-0.116-0.956-0.116c-0.877,0-1.675,0.287-2.343,0.743v24.843l11.158,11.158c1.188-0.563,2.385-1.013,3.563-1.452c4.771-1.781,9.274-3.466,9.274-12.257C49.995,24.034,49.723,22.624,49.036,21.611z"/><path d="M9.149,10.563L8.023,8.192C7.69,8.235,7.362,8.331,7.039,8.453L9.149,10.563z"/><path d="M25.318,29.561c-0.101,0.035-0.206,0.064-0.318,0.064c-0.552,0-1-0.447-1-1v-0.383l-8.077-8.077l4.23,8.907c0.237,0.498,0.024,1.095-0.474,1.332c-0.139,0.064-0.285,0.097-0.429,0.097c-0.374,0-0.732-0.211-0.904-0.571l-6.639-13.98L5.318,9.56C5.177,9.693,5.031,9.817,4.899,9.969c-1.424,1.74-2.515,3.619-3.243,5.585c-0.446,1.207-0.6,2.412-0.5,3.486l15.155,12.778c0.422,0.356,0.476,0.988,0.12,1.41c-0.198,0.233-0.48,0.354-0.765,0.354c-0.228,0-0.457-0.077-0.644-0.235L0.975,21.503C0.446,22.152,0.06,23.198,0,24.863c0,8.833,4.857,10.647,9.555,12.403c2.407,0.899,4.896,1.83,6.963,3.705c1.29,1.168,2.216,2.375,3.033,3.44c1.542,2.009,2.873,3.743,5.592,3.743c2.619,0,3.917-1.831,5.294-3.771c0.863-1.218,1.758-2.477,3.097-3.565c0.585-0.476,1.182-0.889,1.784-1.258L25.318,29.561z"/></g></svg>