<?xml version="1.0" encoding="iso-8859-1"?>
<!-- Generator: Adobe Illustrator 22.1.0, SVG Export Plug-In . SVG Version: 6.00 Build 0)  -->
<svg version="1.1" id="Layer_1" xmlns="http://www.w3.org/2000/svg" xmlns:xlink="http://www.w3.org/1999/xlink" x="0px" y="0px"
	 viewBox="0 0 50 50" style="enable-background:new 0 0 50 50;" xml:space="preserve">
<g>
	<path d="M43,4H7C5.346,4,4,5.346,4,7v35c0,1.654,1.346,3,3,3h36c1.654,0,3-1.346,3-3V7C46,5.346,44.654,4,43,4z M28,8
		c1.105,0,2,0.895,2,2c0,1.105-0.895,2-2,2s-2-0.895-2-2C26,8.895,26.895,8,28,8z M22,8c1.105,0,2,0.895,2,2c0,1.105-0.895,2-2,2
		s-2-0.895-2-2C20,8.895,20.895,8,22,8z M16,8c1.105,0,2,0.895,2,2c0,1.105-0.895,2-2,2s-2-0.895-2-2C14,8.895,14.895,8,16,8z M8,10
		c0-1.105,0.895-2,2-2s2,0.895,2,2c0,1.105-0.895,2-2,2S8,11.105,8,10z M40,39H10V15h30V39z M40,12c-1.105,0-2-0.895-2-2
		c0-1.105,0.895-2,2-2s2,0.895,2,2C42,11.105,41.105,12,40,12z"/>
</g>
<g>
	<path d="M35,44v2c0,0.552,0.448,1,1,1s2.448,0,3,0s1-0.448,1-1v-2"/>
	<path d="M39,48h-3c-1.103,0-2-0.897-2-2v-2c0-0.553,0.447-1,1-1s1,0.447,1,1v2h3v-2c0-0.553,0.447-1,1-1s1,0.447,1,1v2
		C41,47.103,40.103,48,39,48z"/>
</g>
<g>
	<path d="M39,6c-0.553,0-1-0.447-1-1V4h-6v1c0,0.553-0.447,1-1,1s-1-0.447-1-1V4c0-1.103,0.897-2,2-2h6c1.103,0,2,0.897,2,2v1
		C40,5.553,39.553,6,39,6z"/>
</g>
<g>
	<path d="M20,6c-0.553,0-1-0.447-1-1V4h-7v1c0,0.553-0.447,1-1,1s-1-0.447-1-1V4c0-1.103,0.897-2,2-2h7c1.103,0,2,0.897,2,2v1
		C21,5.553,20.553,6,20,6z"/>
</g>
<g>
	<path d="M10,44v2c0,0.552,0.448,1,1,1s2.448,0,3,0s1-0.448,1-1v-2"/>
	<path d="M14,48h-3c-1.103,0-2-0.897-2-2v-2c0-0.553,0.447-1,1-1s1,0.447,1,1v2h3v-2c0-0.553,0.447-1,1-1s1,0.447,1,1v2
		C16,47.103,15.103,48,14,48z"/>
</g>
<g>
	<path d="M40,35H10c-0.553,0-1-0.447-1-1s0.447-1,1-1h30c0.553,0,1,0.447,1,1S40.553,35,40,35z"/>
</g>
<g>
	<path d="M37,18c0-0.552-0.448-1-1-1s-1,0.448-1,1c0,0.174,0.056,0.329,0.134,0.471l-1.431,1.638
		c-0.421-0.116-0.863-0.13-1.278-0.003c-0.725,0.222-1.403,0.526-2.027,0.9c-0.888,0.698-2.145,1.994-2.634,3.995
		c-0.112,0.457-0.521,0.763-0.971,0.763c-0.079,0-0.158-0.009-0.238-0.028c-0.536-0.131-0.865-0.673-0.734-1.209
		c0.359-1.471,1.03-2.631,1.752-3.527h-6.709C17.079,21,14,24.448,14,28.684C14,32.166,16.54,35,19.663,35H29.87
		c3.38,0,6.13-3.072,6.13-6.849v-0.304c0-0.983-0.376-2.277-0.853-3.336c0.151-0.58,0.272-1.189,0.344-1.844
		c0.05-0.448-0.044-0.891-0.24-1.289l1.306-1.495C36.691,19.953,36.838,20,37,20c0.552,0,1-0.448,1-1C38,18.448,37.552,18,37,18z
		 M22,30h-2c0,0.553-0.447,1-1,1s-1-0.447-1-1v-1c0-0.553,0.447-1,1-1h3c0.553,0,1,0.447,1,1S22.553,30,22,30z"/>
</g>
</svg>