<?xml version="1.0" encoding="utf-8"?><!-- Generator: Adobe Illustrator 15.0.0, SVG Export Plug-In . SVG Version: 6.00 Build 0)  --><!DOCTYPE svg PUBLIC "-//W3C//DTD SVG 1.1//EN" "http://www.w3.org/Graphics/SVG/1.1/DTD/svg11.dtd"><svg xmlns="http://www.w3.org/2000/svg" xmlns:xlink="http://www.w3.org/1999/xlink" viewBox="0 0 50 50" width="50px" height="50px"><path d="M35.8,7.9c-2.47,0-4.111,0.765-5.31,1.323c-0.526,0.246-1.023,0.477-1.263,0.479c-0.178-0.04-0.658-0.451-1.01-0.751C26.929,7.847,24.77,6,20.9,6c-4.214,0-6.57,2.68-7.616,4.905c-3.273,15.16,5.534,28.176,5.638,28.326c0.314,0.455,0.201,1.077-0.253,1.392c-0.173,0.12-0.372,0.178-0.568,0.178c-0.317,0-0.629-0.15-0.823-0.431c-0.106-0.154-8.804-13.008-6.241-28.349C7.318,12.96,5.1,15.953,5.1,20.3c0,4.583,1.81,9.186,3.407,13.246c0.73,1.857,1.421,3.613,1.82,5.087C11.793,44.761,14.792,48,19,48c1.603,0,2.943-0.659,4.02-1.189C23.795,46.429,24.464,46.1,25,46.1c0.547,0,1.276,0.354,2.048,0.728C28.182,47.377,29.467,48,31,48c5.256,0,7.376-4.707,8.756-9.308c0.207-0.676,0.52-1.617,0.892-2.736C42.275,31.058,45,22.859,45,18.4C45,11.727,41.646,7.9,35.8,7.9z"/><path d="M28.724,6.775c0.979-1.784,2.556-3.045,3.276-3.55c0.3-0.3,0.3-0.8-0.1-1l-1.801-1c-0.399-0.3-1-0.3-1.3,0c-1.373,1.418-2.127,2.842-2.545,3.972C27.27,5.691,28.078,6.26,28.724,6.775z"/></svg>