<?xml version="1.0" encoding="iso-8859-1"?>
<!-- Generator: Adobe Illustrator 23.0.3, SVG Export Plug-In . SVG Version: 6.00 Build 0)  -->
<svg version="1.1" id="Layer_1" xmlns="http://www.w3.org/2000/svg" xmlns:xlink="http://www.w3.org/1999/xlink" x="0px" y="0px"
	 viewBox="0 0 50 50" style="enable-background:new 0 0 50 50;" xml:space="preserve">
<g>
	<circle cx="41" cy="33" r="1"/>
	<circle cx="41" cy="18" r="1"/>
	<circle cx="35.5" cy="12.5" r="1.5"/>
	<circle cx="7.5" cy="30.5" r="1.5"/>
	<circle cx="7" cy="17" r="1"/>
	<path d="M31.26,15.948C29.662,13.223,26.468,11.5,22.9,11.5c-1.74,0-3.366,0.421-4.765,1.142c5.423,4.46,5.938,11.171,5.94,13.431
		c-0.001,2.958-1.065,5.579-2.223,7.835c1.121,0.377,2.362,0.592,3.673,0.592c3.356,0,6.398-1.375,7.9-3.537
		c3.023-0.821,5.174-3.862,5.174-7.41C38.6,19.134,35.219,15.553,31.26,15.948z"/>
	<path d="M39.175,4.15c-2.021,0-3.741,0.847-5.113,2.515C33.732,7.063,33.146,7.3,32.493,7.3H7.15C4.862,7.3,3,9.044,3,11.188
		v23.625C3,36.956,4.862,38.7,7.15,38.7h2.754c0.05-0.741,0.093-1.419,0.127-2H7.15C5.965,36.7,5,35.854,5,34.813V11.188
		C5,10.146,5.965,9.3,7.15,9.3h25.343c1.243,0,2.405-0.509,3.111-1.362c0.989-1.203,2.157-1.787,3.57-1.787
		C43.367,6.15,45,10.752,45,22.563c0,12.117-1.742,17.287-5.825,17.287c-1.413,0-2.582-0.585-3.572-1.788
		c-0.704-0.853-1.866-1.361-3.109-1.361H20.339c-0.377,0.692-0.741,1.389-0.993,2h13.147c0.653,0,1.238,0.237,1.566,0.634
		c1.374,1.669,3.096,2.516,5.115,2.516c6.877,0,7.825-9.27,7.825-19.287C47,13.654,46.396,4.15,39.175,4.15z"/>
	<path d="M22.075,26.076c0-0.001,0-0.001,0-0.002c-0.002-2.411-0.635-10.545-8.682-13.993c-0.308-0.134-0.663-0.102-0.944,0.084
		C12.169,12.351,12,12.664,12,13c0,0,0.011,12.267,0.025,13.674c0.029,2.815,0.072,7.021,0.073,8.477
		c0.001,0.896-0.206,3.841-0.426,6.958c-0.187,2.654-0.388,5.514-0.521,7.892H19c-0.001-3.247-0.786-5.625-1.36-7.36
		C17.282,41.557,17,40.702,17,39.999c-0.001-1.402,0.979-3.172,2.018-5.046C20.45,32.368,22.073,29.438,22.075,26.076z"/>
</g>
</svg>