<?xml version="1.0" encoding="utf-8"?><!-- Generator: Adobe Illustrator 15.0.0, SVG Export Plug-In . SVG Version: 6.00 Build 0)  --><!DOCTYPE svg PUBLIC "-//W3C//DTD SVG 1.1//EN" "http://www.w3.org/Graphics/SVG/1.1/DTD/svg11.dtd"><svg xmlns="http://www.w3.org/2000/svg" xmlns:xlink="http://www.w3.org/1999/xlink" viewBox="0 0 50 50" width="50px" height="50px"><g><path d="M10.607,17.793c1.354,1.354,5.627,0.163,9.595-3.709c2.572-2.509,4.243-5.591,4.257-7.851c0.004-0.765-0.186-1.346-0.565-1.726l-0.75-0.75L9.887,17.073L10.607,17.793z"/><path d="M28.793,38.807c-0.762-0.762-1.159-1.852-1.151-3.153c0.018-2.81,1.88-6.362,4.86-9.27c4.646-4.532,9.979-6.116,12.405-3.691l0.707,0.707l1.767-1.767c0.286-0.266,0.629-0.756,0.641-1.583c0.039-2.854-4-8.115-8.015-12.057c-3.97-3.97-9.262-7.977-12.136-7.977c-0.636,0-1.158,0.185-1.58,0.578l-1.737,1.745l0.753,0.753c0.761,0.761,1.16,1.852,1.151,3.153c-0.018,2.811-1.879,6.362-4.86,9.27c-3.179,3.102-6.681,4.824-9.352,4.824c-1.232,0-2.287-0.366-3.053-1.132l-0.717-0.716l-4.185,4.204c-0.389,0.391-0.389,1.023,0.001,1.413l19.6,19.6C24.081,43.895,24.335,44,24.6,44s0.52-0.105,0.707-0.293l4.193-4.193L28.793,38.807z M17,31v-4.9l4.9,4.9H17z"/><path d="M43.493,24.107c-1.353-1.353-5.627-0.163-9.595,3.708c-2.572,2.509-4.243,5.591-4.257,7.851c-0.005,0.766,0.186,1.347,0.565,1.727l0.707,0.707L44.2,24.814L43.493,24.107z"/></g><path d="M6.5,40C4.019,40,2,37.981,2,35.5S4.019,31,6.5,31s4.5,2.019,4.5,4.5S8.981,40,6.5,40z"/><path d="M12.5,50C10.019,50,8,47.981,8,45.5s2.019-4.5,4.5-4.5s4.5,2.019,4.5,4.5S14.981,50,12.5,50z"/></svg>