<?xml version="1.0" encoding="utf-8"?><!-- Generator: Adobe Illustrator 15.0.0, SVG Export Plug-In . SVG Version: 6.00 Build 0)  --><!DOCTYPE svg PUBLIC "-//W3C//DTD SVG 1.1//EN" "http://www.w3.org/Graphics/SVG/1.1/DTD/svg11.dtd"><svg xmlns="http://www.w3.org/2000/svg" xmlns:xlink="http://www.w3.org/1999/xlink" viewBox="0 0 50 50" width="50px" height="50px"><line fill="none" stroke="#000000" stroke-width="2" stroke-linecap="round" stroke-linejoin="round" stroke-miterlimit="10" x1="1" y1="1" x2="49" y2="49"/><path d="M22,26.1v0.5c-3.6,0.4-8.1,2.4-8.5,2.5c-0.8-4-0.9-7.6,0.1-9.6c0.2-0.4,0.5-0.7,0.8-1L13,17.1c-0.4,0.4-0.8,0.9-1.1,1.4c-4.1,7.5,5.7,29.9,6.2,30.8c0.2,0.4,0.5,0.601,0.9,0.601h12c0.4,0,0.8-0.2,0.9-0.601c0.199-0.399,2-4.5,3.699-9.7L22,26.1z"/><polygon points="28,9 28,5 28,4.516 27.6,4.2 22,0 22,9 "/><path d="M38.1,18.6c-0.6-1-1.3-1.7-2.3-2.2c0.2-0.3,0.2-0.7,0.2-1.1v-1.7c0-1.5-1.2-2.7-2.7-2.7H16.7c-1.5,0-2.7,1.2-2.7,2.7v1.6l2.7,2.8H22h6h1h5.2c1,0.2,1.6,0.7,2.1,1.6c1,1.9,0.9,5.1,0.3,8.9c-3,0.9-6,0-8.6-0.8V20h-6v3.3l14.4,14.3C38.6,30.7,40.3,22.6,38.1,18.6z"/></svg>