<?xml version="1.0" encoding="iso-8859-1"?><!-- Generator: Adobe Illustrator 19.1.0, SVG Export Plug-In . SVG Version: 6.00 Build 0)  --><svg xmlns="http://www.w3.org/2000/svg" xmlns:xlink="http://www.w3.org/1999/xlink" viewBox="0 0 50 50" width="50px" height="50px"><path style="fill:none;stroke:#000000;stroke-width:2;stroke-linecap:round;stroke-miterlimit:10;" d="M44.125,38.7C23.025,30.42,6,3,6,3"/><path style="fill:none;stroke:#000000;stroke-width:2;stroke-miterlimit:10;" d="M13.625,13.625C13.625,13.625,13.625,13.625,13.625,13.625c0,0,1.478-8.301,7.477-8.625C38.286,6.029,39.652,22.952,42.1,25.312c3.609,3.428,2.767,8.946,2.9,12.126c0.011,0.272-0.452,1.02-0.487,1.062"/><g><polyline points="14.896,8.561 12.093,9.099 14.101,10.937 "/></g><g><polyline points="16.67,6.608 13.838,6.444 15.415,8.659 "/></g><g><polyline points="19.199,4.603 16.717,3.2 17.39,5.833 "/></g><g><polyline points="22.349,4.436 21.057,1.9 20.082,4.447 "/></g><g><polyline points="25.865,5.108 24.978,2.4 23.39,4.606 "/></g><g><polyline points="29.196,6.569 28.787,3.751 26.851,5.665 "/></g><g><polyline points="32.23,8.448 32.332,5.601 30.089,7.135 "/></g><g><polyline points="34.911,10.827 35.492,8.037 33.014,9.16 "/></g><g><polyline points="37.216,13.611 38.197,10.935 35.576,11.662 "/></g><g><polyline points="38.954,16.555 39.99,13.847 37.282,14.044 "/></g><g><polyline points="40.092,19.494 41.594,17.068 38.876,17.193 "/></g><g><polyline points="41.359,22.413 42.956,20.049 40.235,20.012 "/></g><g><polyline points="43.372,26.097 44.465,23.427 41.749,23.483 "/></g><g><polyline points="45.143,28.8 46.652,26.399 44.084,26.399 "/></g><g><polyline points="45.9,32.131 48,30.486 45.5,29.75 "/></g><g><polyline points="45.8,35.8 48,34.494 45.955,33.185 "/></g><g><polyline points="44.9,39.35 47.874,38.739 45.905,36.862 "/></g><g><polyline points="42.057,41.067 44.702,42.141 43.949,39.534 "/></g><g><polyline points="39.288,42.792 41.729,44.268 41.52,41.557 "/></g><g><polyline points="36.9,43.86 39.136,45.717 39.274,42.95 "/></g><g><polyline points="33.397,44.7 35.355,46.826 35.852,44.15 "/></g><g><polyline points="29.842,44.932 31.378,47.342 32.346,44.8 "/></g><g><polyline points="26.188,44.7 27.449,47.26 28.765,44.877 "/></g><g><polyline points="22.579,44.178 23.588,46.843 25.125,44.599 "/></g><g><polyline points="19.072,43.163 19.788,45.919 21.548,43.845 "/></g><g><polyline points="15.735,41.742 16.098,44.565 18.091,42.717 "/></g><g><polyline points="12.66,39.873 12.597,42.72 14.831,41.171 "/></g><g><polyline points="9.961,37.538 9.406,40.334 11.864,39.172 "/></g><g><polyline points="7.745,34.762 6.672,37.405 9.306,36.713 "/></g><g><polyline points="6.096,31.61 4.545,34.003 7.251,33.832 "/></g><g><polyline points="5.02,28.195 3.085,30.285 5.793,30.596 "/></g><g><polyline points="4.491,24.62 2.272,26.404 4.891,27.134 "/></g><g><polyline points="4.413,20.978 2,22.481 4.504,23.543 "/></g><g><polyline points="5.276,17.926 2.472,18.343 4.594,20.034 "/></g><g><polyline points="7.536,15.632 4.846,14.693 5.873,17.202 "/></g><g><polyline points="10.657,14.22 8.408,12.471 8.431,15.187 "/></g><g><g><path d="M35.943,34.225l-8.406-4.995L13.343,12.656c-0.93,0.148-9.092,1.65-9.342,8.663c-0.24,6.733,1.602,12.183,5.475,16.197C15.993,44.271,26.24,45,30.343,45c5.967,0,12.626-3.302,14.773-5.669l0.968-1.068L35.943,34.225z M9,24.075C8.993,22.286,13,22,13,22C11.79,25.129,9.478,25.792,9,24.075z M12,30.239C11.996,28.514,16,28,16,28C15.008,30.97,12.112,31.772,12,30.239z M17.132,35.405C16.259,33.967,19.997,32,19.997,32C19.821,35.469,18.365,36.895,17.132,35.405z M23.297,38.666C21.9,37.57,25.879,35,25.879,35C26.484,38.063,24.695,39.762,23.297,38.666z M30.272,39.821C29.17,39.136,31.771,37,31.771,37C32.493,39.153,31.375,40.505,30.272,39.821z"/></g></g></svg>