<?xml version="1.0" encoding="utf-8"?><!-- Generator: Adobe Illustrator 15.0.0, SVG Export Plug-In . SVG Version: 6.00 Build 0)  --><!DOCTYPE svg PUBLIC "-//W3C//DTD SVG 1.1//EN" "http://www.w3.org/Graphics/SVG/1.1/DTD/svg11.dtd"><svg xmlns="http://www.w3.org/2000/svg" xmlns:xlink="http://www.w3.org/1999/xlink" viewBox="0 0 50 50" width="50px" height="50px"><path d="M48.338,39.705c-0.751,0-1.086,0.631-1.381,1.188c-0.558,1.054-1.401,2.646-4.089,2.646c-1.062,0-3.326-0.841-5.212-3.156c-1.7-2.089-2.104-6.02-1.203-11.681c0.362-2.277,1.188-3.916,2.063-5.65c1.109-2.2,2.256-4.475,2.256-7.936C40.77,6.277,34.874,1,25,1S9.231,6.066,9.231,14.551c0,4.695,1.611,8.113,3.168,11.419c0.53,1.125,1.03,2.186,1.46,3.284c1.678,4.281,0.58,8.985-1.452,11.06c-1.752,1.787-4.317,3.226-5.273,3.226c-2.687,0-3.53-1.592-4.088-2.646c-0.295-0.558-0.63-1.188-1.381-1.188c-0.377,0-1.606,0.15-1.606,2.092c0,4.453,2.545,6.867,7.563,7.176C7.915,48.991,8.208,49,8.498,49c5.735,0,10.89-3.464,13.454-6.896c1.207-1.614,1.944-2.363,3.049-2.463c1.146,0.103,1.905,0.862,3.054,2.398c2.719,3.638,8.275,7.299,14.325,6.933c5.019-0.309,7.563-2.724,7.563-7.176C49.943,39.855,48.715,39.705,48.338,39.705z M21.308,20.391c-1.02,0-1.846-1.235-1.846-2.759c0-1.523,0.827-2.759,1.846-2.759s1.846,1.235,1.846,2.759C23.154,19.156,22.328,20.391,21.308,20.391z M28.691,20.391c-1.02,0-1.846-1.235-1.846-2.759c0-1.523,0.826-2.759,1.846-2.759s1.847,1.235,1.847,2.759C30.538,19.156,29.711,20.391,28.691,20.391z"/><g><path d="M41.229,22.934c-0.212,0.335-0.554,0.991-0.459,1.607c0.116,0.755,0.755,1.324,1.484,1.324c0.049,0,0.154-0.008,0.201-0.015c0.438-0.064,0.727-0.309,0.956-0.502c0.232-0.189,0.659-0.385,0.971-0.385c0.517,0,0.594,1.007,0.594,1.607c0,2.442-1.729,4.429-3.854,4.429c-0.399,0-1.785-0.05-2.88-0.685c-0.683,5.35,0.155,7.666,0.835,8.634c3.819-0.264,6.714-1.607,8.605-4.019C49.699,32.36,50,29.225,50,27.585c0-2.343-0.951-5.22-3.622-6.266c-0.489-0.191-1.011-0.289-1.551-0.289C43.355,21.03,41.978,21.759,41.229,22.934z"/></g><g><path d="M10.692,39.186c0.095-0.091,0.193-0.177,0.286-0.271c1.451-1.481,2.247-4.953,1.233-8.243c-1.04,0.827-2.576,0.865-2.814,0.865c-0.15,0-0.292-0.007-0.422-0.02c-2.165-0.215-3.994-2.072-3.994-4.056c0-1.385,0.482-2.245,1.258-2.245c0.335,0,0.672,0.163,0.879,0.427c0.272,0.345,0.863,0.692,1.294,0.759c0.049,0.007,0.168,0.017,0.218,0.017c0.734,0,1.312-0.565,1.373-1.344c0.052-0.661-0.289-1.282-0.55-1.692c-0.354-0.556-1.682-2.37-3.909-2.37c-0.688,0-1.373,0.182-2.036,0.541C1.312,22.743,0,24.998,0,27.585C0,32.549,2.863,38.262,10.692,39.186z"/></g></svg>