<?xml version="1.0" encoding="utf-8"?><!-- Generator: Adobe Illustrator 15.0.0, SVG Export Plug-In . SVG Version: 6.00 Build 0)  --><!DOCTYPE svg PUBLIC "-//W3C//DTD SVG 1.1//EN" "http://www.w3.org/Graphics/SVG/1.1/DTD/svg11.dtd"><svg xmlns="http://www.w3.org/2000/svg" xmlns:xlink="http://www.w3.org/1999/xlink" viewBox="0 0 50 50" width="50px" height="50px"><path d="M32.182,10.499c4.134,0.172,5.552,0.469,7.417-4.453c-4.059,1.539-5.849-4.65-11.95,0.593c-0.023,0.014-0.343-2.614,3.342-5.89c-1.123-1.097-3.217-0.436-3.217-0.436s-2.956,1.518-4.002,6.062c-4.813-4.125-8.4,0.935-10.354-4.105c0,8.04,4.379,6.119,6.725,7.134c-7.383-0.611-3.398,5.669-8.757,6.741c5.083,2.25,10.033,2.61,11.885-2.363c-0.292,1.946-1.562,5.856,4.788,9.67c1.577-5.07,2.958-6.016,0.685-10.374c3.111,3.991,5.763,6.074,11.299,2.567C35.604,14.486,37.695,11.454,32.182,10.499z"/><path d="M41.014,7.863c-0.839,1.91-1.75,3.146-2.944,3.867c0.085,0.119,0.165,0.235,0.243,0.347c0.574,0.827,0.891,1.283,2.233,1.633c0.77,0.201,1.348,0.84,1.471,1.627c0.122,0.787-0.233,1.572-0.906,1.998c-2.228,1.411-4.199,2.097-6.028,2.097c-1.248,0-2.347-0.314-3.33-0.828c-0.186,0.87-0.498,1.769-0.877,2.804c-0.276,0.756-0.59,1.614-0.908,2.638c-0.183,0.586-0.624,1.056-1.198,1.274c-0.229,0.088-0.472,0.131-0.712,0.131c-0.358,0-0.715-0.096-1.03-0.286c-3.467-2.083-5.025-4.291-5.666-6.267c-1.092,0.543-2.352,0.826-3.752,0.826c-2.041,0-4.408-0.589-7.034-1.751c-0.797-0.353-1.274-1.182-1.179-2.048c0.095-0.867,0.741-1.572,1.596-1.743c1.217-0.243,1.435-0.716,1.939-2.177c0.237-0.686,0.537-1.553,1.099-2.353c-0.767-0.594-1.448-1.483-1.926-2.793C4.283,9.696,0,16.501,0,26.275C0,39.136,11.45,50,25.002,50C37.042,50,50,41.826,50,23.879C50,15.79,46.834,10.21,41.014,7.863z"/></svg>