<?xml version="1.0" encoding="utf-8"?><!-- Generator: Adobe Illustrator 19.2.0, SVG Export Plug-In . SVG Version: 6.00 Build 0)  --><svg xmlns="http://www.w3.org/2000/svg" xmlns:xlink="http://www.w3.org/1999/xlink" viewBox="0 0 50 50" width="50px" height="50px"><path d="M31,17H19c-2.2,0-4,1.8-4,4v24c0,1.7,1.3,3,3,3h14c1.7,0,3-1.3,3-3V21C35,18.8,33.2,17,31,17z"/><path d="M32,15v-2c0-1.1-0.9-2-2-2h-2.1l-1.3-8.1c-0.1-0.5-0.5-0.9-1-0.9h-1.2c-0.5,0-0.9,0.4-1,0.9L22.1,11H20c-1.1,0-2,0.9-2,2v2H32z"/></svg>