<?xml version="1.0" encoding="utf-8"?><!-- Generator: Adobe Illustrator 15.0.0, SVG Export Plug-In . SVG Version: 6.00 Build 0)  --><!DOCTYPE svg PUBLIC "-//W3C//DTD SVG 1.1//EN" "http://www.w3.org/Graphics/SVG/1.1/DTD/svg11.dtd"><svg xmlns="http://www.w3.org/2000/svg" xmlns:xlink="http://www.w3.org/1999/xlink" viewBox="0 0 50 50" width="50px" height="50px"><path d="M42,49c-0.553,0-1-0.447-1-1c0-1.14-2.152-4.263-7.48-5.228c-0.543-0.099-0.903-0.619-0.806-1.163c0.099-0.542,0.612-0.902,1.163-0.806C40.101,41.932,43,45.765,43,48C43,48.553,42.553,49,42,49z"/><path d="M43.48,40.013c-1.521,0-3.219-0.419-5.474-1.127c-0.526-0.166-0.819-0.727-0.654-1.254c0.165-0.526,0.724-0.822,1.254-0.654c4.243,1.333,5.794,1.364,7.896,0.155c0.479-0.274,1.089-0.11,1.365,0.369c0.275,0.479,0.11,1.09-0.369,1.365C46.111,39.664,44.869,40.013,43.48,40.013z"/><path d="M39.363,33.3c-0.334,0-0.666-0.012-0.997-0.034c-0.551-0.038-0.967-0.516-0.929-1.067c0.038-0.551,0.516-0.953,1.067-0.929c3.282,0.235,6.089-0.858,6.528-2.525c0.141-0.534,0.69-0.85,1.223-0.711c0.534,0.142,0.853,0.688,0.711,1.223C46.215,32.099,42.758,33.3,39.363,33.3z"/><path d="M8,49c-0.552,0-1-0.447-1-1c0-2.235,2.899-6.068,9.124-7.196c0.543-0.099,1.064,0.264,1.162,0.806c0.099,0.544-0.262,1.064-0.806,1.163C11.152,43.737,9,46.86,9,48C9,48.553,8.552,49,8,49z"/><path d="M6.52,40.014c-1.389,0-2.631-0.35-4.018-1.146c-0.479-0.275-0.644-0.887-0.369-1.365c0.276-0.479,0.888-0.642,1.366-0.369c2.102,1.209,3.652,1.18,7.896-0.155c0.524-0.165,1.088,0.128,1.254,0.654c0.166,0.527-0.127,1.088-0.654,1.254C9.739,39.594,8.041,40.014,6.52,40.014z"/><path d="M10.637,33.3c-3.395,0-6.851-1.2-7.604-4.044c-0.141-0.534,0.177-1.081,0.711-1.223c0.533-0.142,1.081,0.177,1.223,0.711c0.44,1.666,3.245,2.752,6.529,2.525c0.56-0.025,1.028,0.379,1.066,0.929c0.038,0.552-0.377,1.029-0.929,1.067C11.304,33.288,10.971,33.3,10.637,33.3z"/><path d="M25,48c-2.562,0-4.316-1.559-6.012-3.066c-0.674-0.6-1.372-1.22-2.124-1.749l-0.905-0.632c-3.624-2.524-7.047-4.908-5.642-8.788C14.208,23.028,16.541,21,25,21c8.459,0,10.792,2.028,14.683,12.765c1.404,3.88-2.019,6.265-5.643,8.789l-0.904,0.631c-0.752,0.53-1.449,1.15-2.124,1.749C29.315,46.441,27.563,48,25,48z"/><g><path d="M10.347,28.289c1.221-2.722,2.474-4.744,4.035-6.184c-0.284-0.184-0.561-0.334-0.803-0.448c0.014-0.147,0.021-0.323,0.028-0.495c-1.354,0.506-2.824,0.852-4.305,0.852c-1.675,0-3.188-0.423-4.497-1.258c-0.184-0.117-0.353-0.254-0.525-0.385c0.416,1.748,1.54,3.404,3.77,4.369C8.187,25.706,8.638,27.195,10.347,28.289z"/></g><path d="M27.159,4.904c2.129,2.664,8.32,7.317,10.74,7.424c-0.305-2.051-3.641-7.07-6.881-10.177c0.79,0,3.048-0.391,5.467,0.632c9.359,3.958,11.315,12.208,8.11,15.624c-3.291,3.51-9.771,0.19-11.704-1.007C29.065,15.03,26.263,8.105,27.159,4.904z"/><path d="M19.502,1.896c-1.438,1.954-5.356,6.809-7.701,7.498c-0.205-2.056,2.687-8.037,3.301-9.367c-0.719,0.115-3.052,0.429-5.163,2.012C1.569,8.317,1.844,16.574,5.82,19.102c4.082,2.6,10.254-1.289,11.855-2.915C20.841,12.973,22.02,6.683,19.502,1.896z"/><g><path d="M45.917,19.667c-1.438,1.534-3.425,2.345-5.743,2.345c-1.238,0-2.466-0.231-3.597-0.561c0.017,0.161,0.032,0.324,0.052,0.462c-0.225,0.123-0.477,0.283-0.729,0.476c1.47,1.458,2.674,3.458,3.851,6.119c1.418-0.922,2.178-2.241,2.431-3.464c1.605-0.675,2.741-1.693,3.379-3.035c0.41-0.862,0.56-1.757,0.569-2.603C46.056,19.493,45.993,19.585,45.917,19.667z"/></g></svg>