<?xml version="1.0" encoding="utf-8"?><!-- Generator: Adobe Illustrator 18.1.1, SVG Export Plug-In . SVG Version: 6.00 Build 0)  --><svg xmlns="http://www.w3.org/2000/svg" xmlns:xlink="http://www.w3.org/1999/xlink" viewBox="0 0 50 50" width="50px" height="50px"><path fill="none" stroke="#000000" stroke-width="2" stroke-linecap="round" stroke-linejoin="round" stroke-miterlimit="10" d="M47,34.9c1.2-1.3,2-3,2-4.9c0-1.6-0.5-3-1.4-4.2c-0.8-1-1-2.3-0.7-3.6C47,21.9,47,21.4,47,21c0-3.3-2-6-5.2-6.8c-1.1-0.3-1.9-1-2.4-2C38.3,9.7,35.9,8,33,8l0,0c-1.3,0-2.5-0.5-3.4-1.3C28.3,5.6,26.7,5,25,5c-1.7,0-3.3,0.6-4.6,1.7C19.5,7.5,18.3,8,17,8l0,0c-2.9,0-5.4,1.8-6.5,4.3c-0.4,0.9-1.2,1.6-2.1,1.8C5,14.9,3,17.7,3,21c0,0.4,0,0.9,0.1,1.3c0.2,1.3,0,2.6-0.8,3.6c-1.1,1.5-1.6,3.4-1.2,5.5c0.3,1.3,1,2.6,1.9,3.5"/><path d="M25,11C12.3,11,2,21.3,2,34v5c0,2.2,1.8,4,4,4h38c2.2,0,4-1.8,4-4v-5C48,21.3,37.7,11,25,11z M10.1,34.3c-1.1,0-2-0.9-2-2c0-1.1,0.9-2,2-2s2,0.9,2,2C12.1,33.4,11.2,34.3,10.1,34.3z M13,28c0-1.1,0.9-2,2-2s2,0.9,2,2s-0.9,2-2,2S13,29.1,13,28z M16,37c-1.1,0-2-0.9-2-2s0.9-2,2-2s2,0.9,2,2S17.1,37,16,37z"/></svg>