<?xml version="1.0" encoding="utf-8"?><!-- Generator: Adobe Illustrator 15.0.0, SVG Export Plug-In . SVG Version: 6.00 Build 0)  --><!DOCTYPE svg PUBLIC "-//W3C//DTD SVG 1.1//EN" "http://www.w3.org/Graphics/SVG/1.1/DTD/svg11.dtd"><svg xmlns="http://www.w3.org/2000/svg" xmlns:xlink="http://www.w3.org/1999/xlink" viewBox="0 0 50 50" width="50px" height="50px"><path d="M4.714,49.984c-0.96,0-1.927-0.294-2.714-0.885c-1.102-0.753-1.828-1.988-1.956-3.363c-0.129-1.393,0.362-2.757,1.349-3.743c0.391-0.391,1.023-0.391,1.414,0s0.391,1.023,0,1.414c-0.564,0.564-0.845,1.346-0.771,2.144c0.072,0.781,0.484,1.482,1.128,1.924C4.041,48.13,5.358,48.132,6.2,47.5c1.208-0.808,1.389-2.174,1.052-3.184c-0.452-1.354-0.174-2.709,0.742-3.624c0.391-0.389,1.024-0.39,1.414,0.001c0.39,0.392,0.39,1.024-0.001,1.415c-0.53,0.529-0.357,1.278-0.258,1.575c0.693,2.081-0.027,4.271-1.794,5.448C6.601,49.699,5.661,49.984,4.714,49.984z"/><path d="M46.6,4.4c-0.256,0-0.512-0.098-0.707-0.293c-0.391-0.391-0.391-1.024,0-1.414l2.4-2.4c0.391-0.391,1.023-0.391,1.414,0s0.391,1.024,0,1.414l-2.4,2.4C47.111,4.302,46.855,4.4,46.6,4.4z"/><rect x="44.75" y="2.058" transform="matrix(0.7071 0.7071 -0.7071 0.7071 16.4051 -31.1053)" width="2" height="4.384"/><path d="M18.469,43.314L18.469,43.314c-0.561,0-1.085-0.216-1.477-0.607l-9.76-9.76c-0.815-0.676-0.794-1.921-0.29-2.762l2.853-3.878c0.798-1.001,2.351-1.078,3.212-0.215L23.804,36.79c0.43,0.429,0.655,1.02,0.622,1.623c-0.034,0.616-0.326,1.188-0.8,1.567l-3.909,2.976C19.327,43.19,18.896,43.314,18.469,43.314z"/><rect x="8.013" y="38.983" transform="matrix(0.7071 -0.7071 0.7071 0.7071 -25.3376 18.7944)" width="4.011" height="2"/><path d="M28.2,33.7c-0.098,0-0.196-0.015-0.292-0.044c-0.157-0.048-3.879-1.214-7.415-4.749c-3.558-3.558-4.43-7.026-4.465-7.172c-0.083-0.339,0.018-0.696,0.265-0.942l2.1-2.1c0.256-0.255,0.63-0.352,0.978-0.256c0.348,0.098,0.616,0.376,0.701,0.728c0.007,0.027,0.799,3.093,3.935,6.228c3.166,3.166,6.553,4.241,6.587,4.251c0.335,0.104,0.592,0.376,0.676,0.716s-0.015,0.699-0.263,0.947l-2.1,2.101C28.717,33.598,28.462,33.7,28.2,33.7z"/><path d="M19.786,29.614c-0.139-0.139-0.267-0.277-0.398-0.417l-2.195,2.195l1.414,1.414l2.223-2.223C20.482,30.279,20.133,29.961,19.786,29.614z"/><path d="M32.429,28.181L32.429,28.181c-0.548,0-1.071-0.209-1.436-0.573l-8.7-8.7c-0.663-0.664-0.646-1.737-0.288-2.454l0.089-0.146l2.5-3.4c0.768-0.961,2.211-1.015,3.013-0.215l9.5,9.5c0.399,0.399,0.609,0.955,0.578,1.523c-0.032,0.57-0.31,1.104-0.761,1.465l-3.306,2.604C33.267,28.05,32.862,28.181,32.429,28.181z"/><rect x="23.347" y="24.107" transform="matrix(0.7071 -0.7071 0.7071 0.7071 -10.4625 24.9556)" width="3.092" height="2"/><path d="M45.152,12.939L45.152,12.939c-0.468,0-0.915-0.188-1.259-0.531l-6.349-6.35c-0.319-0.252-0.521-0.618-0.563-1.021c-0.045-0.453,0.116-0.913,0.444-1.276l1.762-2.447c0.645-0.863,1.901-0.94,2.618-0.223l7,7c0.357,0.357,0.525,0.861,0.461,1.381c-0.053,0.422-0.252,0.824-0.561,1.133l-0.086,0.077l-2.4,1.9C45.854,12.833,45.507,12.939,45.152,12.939z"/><rect x="37.458" y="10.033" transform="matrix(0.7072 -0.707 0.707 0.7072 3.6101 30.782)" width="3.02" height="2"/><path d="M41.9,19.2c-0.097,0-0.194-0.014-0.29-0.043c-0.145-0.044-3.579-1.111-6.917-4.45c-3.354-3.354-4.226-6.62-4.262-6.757c-0.088-0.343,0.012-0.707,0.262-0.957l2-2c0.25-0.25,0.611-0.347,0.956-0.262c0.343,0.088,0.613,0.351,0.711,0.69c0.008,0.026,0.889,2.921,3.758,5.883c2.884,2.977,6.033,3.927,6.064,3.937c0.339,0.1,0.6,0.371,0.687,0.712c0.088,0.342-0.012,0.705-0.262,0.954l-2,2C42.417,19.098,42.162,19.2,41.9,19.2z"/><path d="M33.986,15.414c-0.139-0.139-0.268-0.277-0.398-0.416l-2.095,2.095l1.414,1.414l2.123-2.124C34.684,16.081,34.334,15.762,33.986,15.414z"/></svg>