<?xml version="1.0" encoding="utf-8"?><!-- Generator: Adobe Illustrator 15.0.0, SVG Export Plug-In . SVG Version: 6.00 Build 0)  --><!DOCTYPE svg PUBLIC "-//W3C//DTD SVG 1.1//EN" "http://www.w3.org/Graphics/SVG/1.1/DTD/svg11.dtd"><svg xmlns="http://www.w3.org/2000/svg" xmlns:xlink="http://www.w3.org/1999/xlink" viewBox="0 0 50 50" width="50px" height="50px"><line fill="none" stroke="#000000" stroke-width="2" stroke-linecap="round" stroke-linejoin="round" stroke-miterlimit="10" x1="1" y1="1" x2="49" y2="49"/><path d="M44.743,33.574C44.743,33.574,44.743,33.574,44.743,33.574c-2.934-0.001-7.964-3.481-14.55-10.067c-6.667-6.667-10.148-11.734-10.066-14.653c0.028-1.007,0.471-1.479,0.606-1.6c2.368-2.396,5.186-3.633,8.332-3.633c7.32,0,13.787,6.704,14.06,6.99c0.23,0.211,6.692,6.285,6.906,13.505c0.097,3.288-1.117,6.274-3.609,8.876C46.319,33.108,45.82,33.574,44.743,33.574z"/><path d="M47.5,2.1c-0.3-0.7-1.1-1.4-2.3-1c-0.9,0.3-1.7,1.6-0.7,2.7c0.8,0.9,3.2,5.3-2,8l0.5,0.7C49.3,9.6,48,3.3,47.5,2.1z"/><path d="M9.9,39.7v0.1C9.8,39.9,9.7,40.2,9.6,40.4c-0.5,0.8-1.5,2.399-0.3,4c1.2,1.699,3,1,4,0.6c0.4-0.2,1-0.4,1.2-0.3c2.4,0.7,4.7,1.1,7,1.1c5.2,0,10.1-1.8,14.8-5.3L13.2,17.2C8.8,23.1,6.3,30.7,9.9,39.7z"/><path d="M28.779,24.921c-5.703-5.703-9.066-10.173-10.205-13.566C17.17,12.618,15.81,13.984,14.5,15.5l22.057,22.151c-0.02,0.016-0.037,0.033-0.057,0.049L38,39.1c1.395-1.186,2.788-2.528,4.149-4.039C38.783,33.86,34.377,30.519,28.779,24.921z"/></svg>