<?xml version="1.0" encoding="utf-8"?><!-- Generator: Adobe Illustrator 15.0.0, SVG Export Plug-In . SVG Version: 6.00 Build 0)  --><!DOCTYPE svg PUBLIC "-//W3C//DTD SVG 1.1//EN" "http://www.w3.org/Graphics/SVG/1.1/DTD/svg11.dtd"><svg xmlns="http://www.w3.org/2000/svg" xmlns:xlink="http://www.w3.org/1999/xlink" viewBox="0 0 50 50" width="50px" height="50px"><path d="M48.204,23.509c-3.911-7.039-10.469-10.607-19.489-10.607c-7.441,0-14.666,5.729-17.186,7.949c-1.254-1.901-4.246-5.549-8.734-5.549c-0.438,0-1.016,0.193-1.324,0.736c-0.306,0.538-0.239,1.183,0.199,1.916c1.624,2.726,2.447,5.03,2.447,6.846c0,2.444-1.53,5.909-2.588,7.369c-0.418,0.576-0.501,1.216-0.227,1.753c0.262,0.515,0.806,0.821,1.454,0.821c5.464,0,7.959-3.646,8.952-5.785c2.55,2.237,9.134,7.241,17.006,7.241c9.179,0,15.449-2.674,19.17-8.175C48.577,27.001,49.438,25.727,48.204,23.509z M38,26.001c-1.104,0-2-0.896-2-2s0.896-2,2-2s2,0.896,2,2S39.104,26.001,38,26.001z"/><g><path d="M16.696,11.042c0.165,0.045,0.938,0.438,1.438,1.418c0.19,0.374,0.287,0.786,0.338,1.216c3.058-1.561,6.6-2.775,10.243-2.775c2.557,0,4.928,0.273,7.12,0.804c-1.009-2.191-2.973-4.954-6.639-5.686c-0.148-0.03-0.298-0.025-0.444,0.012L16.711,9.108c-0.44,0.112-0.749,0.507-0.752,0.961S16.258,10.923,16.696,11.042z"/></g><g><path d="M28.715,38.199c-1.528,0-3.005-0.18-4.423-0.475c-0.06,0.482-0.174,0.952-0.28,1.382c-0.227,0.919-0.423,1.713,0.076,2.351C24.282,41.705,24.651,42,25.305,42h3.683c0.172,0,0.362-0.057,0.513-0.142c0.044-0.024,0.115-0.059,0.207-0.103c2.158-1.049,3.67-2.36,4.534-3.913C32.518,38.077,30.68,38.199,28.715,38.199z"/></g></svg>