<?xml version="1.0" encoding="iso-8859-1"?><!-- Generator: Adobe Illustrator 21.1.0, SVG Export Plug-In . SVG Version: 6.00 Build 0)  --><svg xmlns="http://www.w3.org/2000/svg" xmlns:xlink="http://www.w3.org/1999/xlink" viewBox="0 0 50 50" width="50px" height="50px"><path d="M24.52,28.34c-0.65-0.09-1.31-0.33-1.94-0.79c-0.51,0.06-1.66,0.26-3.58,0.88c-0.77,0.24-1.67,0.56-2.7,0.96c-0.18,0.07-0.37,0.09-0.56,0.05c-4.62-0.9-10.25-1.56-11.28-1.05c-0.14,0.07-0.3,0.1-0.46,0.1V7.82l15,15L24.52,28.34z M31.53,35.35c0.5,1.57,0.31,3.2-0.19,5.12c-0.36,1.4-0.86,2.32-1.28,2.89c-0.41,0.56-0.73,0.78-0.73,0.78c-0.39,0.24-0.57,0.69-0.45,1.13C29,45.7,29.39,46,29.84,46h5.22c0.45,0,0.85-0.31,0.97-0.75l0.99-3.89c0.03-0.14,0.04-0.28,0.02-0.42c-0.01-0.03-0.01-0.06-0.01-0.09L31.53,35.35z M24,30.23c-0.48-0.13-0.96-0.34-1.42-0.68c-0.24,0.03-0.61,0.08-1.14,0.2c-0.5,0.11-1.15,0.28-1.95,0.53c2.13,6.15-4.19,13.99-4.26,14.09c-0.25,0.3-0.3,0.71-0.13,1.06C15.26,45.78,15.61,46,16,46h3.6c0.34,0,0.66-0.18,0.85-0.47c0.57-0.91,5.55-8.97,5.55-12.5v-2.72C25.37,30.41,24.68,30.41,24,30.23z M44.25,27.28c1.15-8.26-0.57-12.38-2.25-14.4c-0.02,0.92-0.23,1.84-0.65,2.68c1,2.01,1.76,5.52,0.91,11.53c-0.47,0.83-2.26,4.27-2.29,8.9l2,0.02c0.02-2.46,0.6-4.56,1.14-6C43.55,31.45,44,33.55,44,36h2C46,31.59,44.69,28.26,44.25,27.28z M47.71,45.89L36.95,35.13c0.32-2.59,1-4.32,1.02-4.34c0.13-0.33,0.08-0.71-0.13-0.99c-2.62-3.42-0.8-10.74,1.02-13.42c0.01,0,0.07-0.09,0.07-0.09c1.19-1.78,1.4-4.03,0.55-6.01c-0.89-2.07-2.76-3.53-5-3.91c-1.31-0.22-2.45-0.28-3.02-0.3c-1.35-1.01-3.65-1.25-4.84-0.95c-6.29,1.59-15.8,1.18-18.68,1H7.93L4.11,2.29C3.197,1.377,1.775,2.796,2.69,3.71l43.6,43.6c0.396,0.376,1.023,0.377,1.42,0C48.1,46.92,48.1,46.28,47.71,45.89z"/></svg>