<?xml version="1.0" encoding="iso-8859-1"?><!-- Generator: Adobe Illustrator 19.1.0, SVG Export Plug-In . SVG Version: 6.00 Build 0)  --><svg xmlns="http://www.w3.org/2000/svg" xmlns:xlink="http://www.w3.org/1999/xlink" viewBox="0 0 50 50" width="500px" height="500px"><path d="M25.045,11c-2.757,0-5,2.243-5,5c0,1.775,0.95,3.429,2.479,4.315l0.502-0.865l4.359-0.21l0.581,0.814C29.267,19.125,30,17.61,30,16C30,13.243,27.802,11,25.045,11z"/><path style="fill:none;stroke:#000000;stroke-width:2;stroke-linecap:round;stroke-miterlimit:10;" d="M30.045,5c0,0-5.298-0.049-5,6.178"/><g><g><path d="M47.178,30.781c-0.656-0.617-1.596-0.904-2.39-0.731h0.001c-5.706,1.234-15.613,3.974-19.772,3.978c-4.161-0.003-14.069-2.743-19.774-3.978c-0.791-0.17-1.716,0.112-2.361,0.72c-0.7,0.658-0.998,1.596-0.839,2.641C3.487,42.921,18.102,45.991,25,46c6.876-0.009,21.554-3.078,23-12.59C47.996,32.31,47.878,31.439,47.178,30.781z M22.031,41.027c-0.016,0-0.032,0-0.048-0.001C11.5,40.534,7.826,36.896,7.648,36.758C7.186,36.399,7.083,35.95,7.6,35.344c0.358-0.42,1.006-0.423,1.409-0.051c0.065,0.059,3.453,3.284,13.068,3.735c0.552,0.026,0.978,0.494,0.952,1.046C23.004,40.61,22.561,41.027,22.031,41.027z"/></g></g><g><path d="M42.137,31.75C43.293,30.501,44,28.832,44,27c0-3.86-3.14-7-7-7c-1.293,0-2.519,0.355-3.58,0.988c0.352,0.568,0.651,1.17,0.891,1.802C35.098,22.286,36.021,22,37,22c2.757,0,5,2.243,5,5c0,2.085-1.283,3.876-3.101,4.625L42.137,31.75z M11.297,31.45C9.935,30.559,9.045,28.761,9.045,27c0-2.757,2.183-5,4.939-5c0.664,0,1.306,0.137,1.903,0.384c0.266-0.621,0.589-1.211,0.964-1.764c-0.89-0.4-1.862-0.62-2.867-0.62c-3.86,0-6.939,3.14-6.939,7c0,2.043,0.863,3.884,2.247,5.165L11.297,31.45z"/></g><g><path d="M25,18c-4.411,0-8,3.589-8,8s3.589,8,8,8s7.955-3.589,7.955-8S29.411,18,25,18z M29.83,27c-0.99,0-1.25-0.35-1.59-1.9c-0.29-1.24-0.79-2.07-2.28-2.1c-1.79-0.04-2.03,1.49-2.23,3.07C23.46,28.26,23.17,29,22.09,29c-1.2,0-1.43-1.15-1.68-3.33c-0.09-0.84-0.2-1.76-0.46-2.54c-0.044-0.121-0.068-0.241-0.084-0.36C20.926,21.04,22.813,20,25,20c3.158,0,5.622,2.288,5.924,5.363c0.001,0.006,0.002,0.013,0.002,0.019c0.019,0.203,0.03,0.409,0.03,0.618c0,0.063-0.007,0.124-0.009,0.186C30.642,26.801,30.434,27,29.83,27z"/></g></svg>