<?xml version="1.0" encoding="utf-8"?><!-- Generator: Adobe Illustrator 15.0.0, SVG Export Plug-In . SVG Version: 6.00 Build 0)  --><!DOCTYPE svg PUBLIC "-//W3C//DTD SVG 1.1//EN" "http://www.w3.org/Graphics/SVG/1.1/DTD/svg11.dtd"><svg xmlns="http://www.w3.org/2000/svg" xmlns:xlink="http://www.w3.org/1999/xlink" viewBox="0 0 50 50" width="50px" height="50px"><path d="M47.896,17.375c-0.529-5.435-2.984-9.817-7.101-12.673C38.173,2.884,35.66,2,33.112,2c-6.356,0-11.419,5.667-16.316,11.149c-0.468,0.523-0.936,1.047-1.405,1.566c-1.42,1.572-3.099,3.07-4.721,4.519c-6.061,5.41-12.328,11.005-6.147,21.09C7.513,45.202,13.075,48,19.784,48c7.272,0,14.749-3.23,20-8.641C45.443,33.527,48.627,24.898,47.896,17.375z M15.568,35.913c-0.552,0-1-0.448-1-1s0.448-1,1-1s1,0.448,1,1S16.12,35.913,15.568,35.913z M20.568,31.913c0-0.552,0.448-1,1-1s1,0.448,1,1s-0.448,1-1,1S20.568,32.465,20.568,31.913z M22.568,39.913c-0.552,0-1-0.448-1-1s0.448-1,1-1s1,0.448,1,1S23.12,39.913,22.568,39.913z M28.568,17.913c-0.553,0-1-0.448-1-1s0.447-1,1-1c0.552,0,1,0.448,1,1S29.12,17.913,28.568,17.913z M35.568,14.913c-0.553,0-1-0.448-1-1s0.447-1,1-1c0.552,0,1,0.448,1,1S36.12,14.913,35.568,14.913z M38.568,27.913c-0.553,0-1-0.448-1-1s0.447-1,1-1c0.552,0,1,0.448,1,1S39.12,27.913,38.568,27.913z"/></svg>