<?xml version="1.0" encoding="iso-8859-1"?><!-- Generator: Adobe Illustrator 21.1.0, SVG Export Plug-In . SVG Version: 6.00 Build 0)  --><svg xmlns="http://www.w3.org/2000/svg" xmlns:xlink="http://www.w3.org/1999/xlink" viewBox="0 0 50 50" width="50px" height="50px"><path d="M37,3H13C7.49,3,3,7.49,3,13v24c0,5.51,4.49,10,10,10h24c5.51,0,10-4.49,10-10V13C47,7.49,42.51,3,37,3z M45,19.28L19.28,45H13c-4.41,0-8-3.59-8-8v-7.09l2.1-2.09l7.39,7.39c0.2,0.19,0.45,0.29,0.71,0.29s0.51-0.1,0.71-0.29c0.39-0.39,0.39-1.03,0-1.42L8.52,26.4l3.58-3.58l3.79,3.79c0.2,0.19,0.45,0.29,0.71,0.29c0.26,0,0.51-0.1,0.71-0.29c0.39-0.39,0.39-1.03,0-1.42l-3.79-3.79l3.53-3.53l7.44,7.44c0.2,0.19,0.45,0.29,0.71,0.29s0.51-0.1,0.71-0.29c0.39-0.39,0.39-1.03,0-1.42l-7.44-7.44L22,12.92l3.79,3.79C25.99,16.9,26.24,17,26.5,17s0.51-0.1,0.71-0.29c0.39-0.39,0.39-1.03,0-1.42l-3.79-3.79l3.53-3.53l7.44,7.44c0.2,0.19,0.45,0.29,0.71,0.29c0.26,0,0.51-0.1,0.71-0.29c0.39-0.39,0.39-1.03,0-1.42l-7.44-7.44L29.92,5H37c4.41,0,8,3.59,8,8V19.28z"/></svg>