<?xml version="1.0" encoding="utf-8"?><!-- Generator: Adobe Illustrator 15.0.0, SVG Export Plug-In . SVG Version: 6.00 Build 0)  --><!DOCTYPE svg PUBLIC "-//W3C//DTD SVG 1.1//EN" "http://www.w3.org/Graphics/SVG/1.1/DTD/svg11.dtd"><svg xmlns="http://www.w3.org/2000/svg" xmlns:xlink="http://www.w3.org/1999/xlink" viewBox="0 0 50 50" width="50px" height="50px"><path fill="none" stroke="#000000" stroke-width="2" stroke-miterlimit="10" d="M40.9,1.5C51.8,12.4,51.8,30,40.9,40.9C30,51.8,12.4,51.8,1.5,40.9L40.9,1.5z"/><path d="M38,4.4L4.3,38.1c9.3,9.301,24.4,9.301,33.7,0C47.3,28.8,47.3,13.7,38,4.4z M38.2,12.6c0.8-0.3,1.7,0.1,2.1,0.9c0.3,0.8-0.1,1.7-0.899,2.1C38.6,15.9,35.8,15.2,35.8,15.2S37.4,13,38.2,12.6z M15.7,39.6C15.3,40.4,14.3,40.7,13.5,40.2c-0.8-0.4-1.1-1.4-0.6-2.2c0.4-0.8,2.9-2.1,2.9-2.1S16.1,38.8,15.7,39.6z M22.7,40.6c0,0.9-0.8,1.5-1.7,1.4s-1.5-0.9-1.4-1.8c0.1-0.9,1.9-3,1.9-3S22.8,39.7,22.7,40.6z M28.7,40.8c-0.8,0.2-1.7-0.3-2-1.1c-0.2-0.8,0.7-3.5,0.7-3.5S29.6,38,29.8,38.8C30.1,39.7,29.6,40.6,28.7,40.8z M36,36.3c-0.7,0.601-1.7,0.5-2.3-0.2c-0.601-0.699-0.9-3.5-0.9-3.5s2.7,0.7,3.3,1.4C36.7,34.7,36.7,35.7,36,36.3z M40.8,28.8c-0.399,0.8-1.3,1.2-2.1,0.8c-0.8-0.399-2.3-2.8-2.3-2.8s2.8-0.5,3.6-0.2C40.8,27,41.2,28,40.8,28.8z M40.4,22.8c-0.9,0-3.101-1.7-3.101-1.7s2.4-1.5,3.3-1.5c0.9,0,1.601,0.8,1.5,1.7C42,22.1,41.3,22.8,40.4,22.8z"/></svg>