<?xml version="1.0" encoding="iso-8859-1"?><!-- Generator: Adobe Illustrator 19.1.1, SVG Export Plug-In . SVG Version: 6.00 Build 0)  --><svg xmlns="http://www.w3.org/2000/svg" xmlns:xlink="http://www.w3.org/1999/xlink" viewBox="0 0 50 50" width="50px" height="50px"><g><path d="M30.861,15.605c1.136,0.381,2.355,0.789,3.37,1.065c0.053-0.073,0.1-0.153,0.155-0.222c1.54-1.951,2.286-2.07,3.148-2.208c0.395-0.063,0.842-0.135,1.35-0.341c1.117-0.454,1.633-1.181,1.869-1.709c0.306-0.685,0.326-1.458,0.058-2.12C40.261,8.715,39,8.137,38.035,7.953c-0.655-1.141-2.053-2.485-4.112-1.752c-2.093,0.744-2.189,2.943-1.909,4.245c-0.441,1.158-1.874,2.689-3.702,3.433c-0.321,0.13-0.792,0.288-1.46,0.444C28.233,14.725,29.578,15.174,30.861,15.605z"/><polygon points="10.443,15 10.407,15 10.431,15.006 "/></g><path d="M47.263,17.197c-0.044-0.618-0.229-1.525-0.869-2.232C45.995,14.524,45.262,14,44.031,14c-2.062,0-2.952,1.655-3.111,2.968C39.982,17.969,37.853,19,35.986,19c-1.297,0-3.469-0.729-5.769-1.501C26.73,16.327,22.778,15,19,15c-8.304,0-18,6.023-18,23v0.414l0.293,0.293C1.55,38.964,7.738,45,21,45c15.867,0,21-8.678,21-12.881c0-2.371-1.038-4.41-2.031-5.827c-0.854,0.586-1.705,1.281-2.592,2.008C34.121,30.973,30.431,34,24,34c-4.971,0-8.607-4.171-8.759-4.349c-0.359-0.419-0.311-1.049,0.107-1.408c0.417-0.362,1.049-0.313,1.41,0.104C16.79,28.384,19.96,32,24,32c5.715,0,8.965-2.666,12.108-5.245c1.289-1.058,2.506-2.056,3.84-2.813c0.808-0.459,1.472-0.751,2.058-0.945c1.169-0.469,1.746-0.337,2.389-0.189C44.784,22.898,45.227,23,45.773,23C47.869,23,49,21.546,49,20.178C49,18.739,48.078,17.737,47.263,17.197z"/></svg>