<?xml version="1.0" encoding="iso-8859-1"?><!-- Generator: Adobe Illustrator 21.1.0, SVG Export Plug-In . SVG Version: 6.00 Build 0)  --><svg xmlns="http://www.w3.org/2000/svg" xmlns:xlink="http://www.w3.org/1999/xlink" viewBox="0 0 50 50" width="500px" height="500px"><g><g><g><g></g></g></g></g><circle style="fill:none;stroke:#000000;stroke-width:2;stroke-miterlimit:10;" cx="25" cy="25" r="22"/><path d="M24.922,7c-4.41,0-8.658,1.592-11.979,4.498l-1.046,0.959c-0.565,0.54-0.884,1.27-0.897,2.056c-0.015,0.883,0.348,1.747,1.021,2.434l20.552,20.973c0.698,0.713,1.595,1.076,2.466,1.076c0.745,0,1.471-0.267,2.037-0.807l1.137-1.113C41.3,33.757,43,29.441,43,24.924C43,15.041,34.891,7,24.922,7z M27,18c-0.552,0-1-0.448-1-1c0-0.552,0.448-1,1-1s1,0.448,1,1C28,17.552,27.552,18,27,18z M27,14c-0.552,0-1-0.448-1-1c0-0.552,0.448-1,1-1s1,0.448,1,1C28,13.552,27.552,14,27,14z M30,16c-0.552,0-1-0.448-1-1c0-0.552,0.448-1,1-1s1,0.448,1,1C31,15.552,30.552,16,30,16z M33,32c-0.552,0-1-0.448-1-1c0-0.552,0.448-1,1-1s1,0.448,1,1C34,31.552,33.552,32,33,32z M33,29c-0.552,0-1-0.448-1-1c0-0.552,0.448-1,1-1s1,0.448,1,1C34,28.552,33.552,29,33,29z M36,31c-0.552,0-1-0.448-1-1c0-0.552,0.448-1,1-1s1,0.448,1,1C37,30.552,36.552,31,36,31z"/><path d="M16,37.286c0-1.006,0.331-1.98,0.93-2.786C16.331,33.694,16,32.72,16,31.714c0-1.032,0.343-1.979,0.907-2.756c-0.238-0.154-0.466-0.325-0.669-0.528c-1.35-1.35-1.555-3.402-0.648-4.984l-4.997-5.099c-0.164-0.168-0.295-0.355-0.435-0.536c-0.014,0.01-0.03,0.018-0.044,0.028C9.396,18.381,9,19.148,9,20c0,1.274,0.356,1.78,0.753,2.227C9.917,22.412,10,22.505,10,23.125c0,0.149-0.364,0.445-0.631,0.661C8.791,24.256,8,24.899,8,26c0,0.59,0.182,1.068,0.538,1.424c0.614,0.611,1.465,0.611,2.248,0.603c0.365-0.002,0.991-0.005,1.124,0.127c0.031,0.031,0.09,0.17,0.09,0.472c0,0.362-0.119,0.496-0.631,0.911C10.824,29.979,10,30.649,10,32c0,1.767,1.324,2.431,2.114,2.826C12.918,35.229,13,35.338,13,35.625c0,1.174,0.453,3.085,3.324,3.344C16.122,38.444,16,37.881,16,37.286z"/><path d="M18.586,27.531c0.23-0.117,0.472-0.212,0.719-0.293l-2.21-2.255c-0.175,0.706,0.005,1.482,0.556,2.033C17.909,27.273,18.235,27.436,18.586,27.531z"/><path d="M20.714,29C19.218,29,18,30.218,18,31.714c0,0.78,0.334,1.502,0.941,2.033c0.217,0.19,0.342,0.465,0.342,0.753s-0.125,0.563-0.342,0.753C18.334,35.784,18,36.506,18,37.286C18,38.782,19.218,40,20.714,40c0.78,0,1.502-0.334,2.033-0.941c0.381-0.434,1.125-0.434,1.506,0C24.784,39.666,25.506,40,26.286,40C27.782,40,29,38.782,29,37.286c0-0.059-0.015-0.116-0.019-0.174l-7.911-8.074C20.952,29.022,20.835,29,20.714,29z"/><path d="M31.144,39.319l-0.438-0.447c-0.29,0.805-0.79,1.5-1.437,2.034C29.655,40.968,30.055,41,30.5,41c0.939,0,1.696-0.212,2.306-0.512C32.196,40.205,31.628,39.813,31.144,39.319z"/></svg>