<?xml version="1.0" encoding="iso-8859-1"?>
<!-- Generator: Adobe Illustrator 23.0.3, SVG Export Plug-In . SVG Version: 6.00 Build 0)  -->
<svg version="1.1" xmlns="http://www.w3.org/2000/svg" xmlns:xlink="http://www.w3.org/1999/xlink" x="0px" y="0px"
	 viewBox="0 0 50 50" style="enable-background:new 0 0 50 50;" xml:space="preserve">
<g id="filled">
</g>
<g id="outlined">
</g>
<g id="rounded">
</g>
<g id="two_x5F_tone">
</g>
<g id="sharp">
</g>
<g id="win10">
</g>
<g id="ios_x5F_out">
</g>
<g id="ios_x5F_filled">
	<path d="M30,43H20c-2.757,0-5,2.243-5,5h1h1h16h1h1C35,45.243,32.757,43,30,43z"/>
	<path d="M9.05,23h31.9c-2.31,3.61-6.35,6-10.95,6H20C15.4,29,11.36,26.61,9.05,23z"/>
	<path d="M43,15v1c0,1.77-0.36,3.46-1,5H8c-0.64-1.54-1-3.23-1-5v-1c0-0.55,0.45-1,1-1h34C42.55,14,43,14.45,43,15z"/>
	<path d="M25.582,31.281c-0.348-0.25-0.813-0.25-1.164,0c-0.215,0.156-5.371,3.918-5.371,8.246c0,3.008,2.672,5.453,5.953,5.453
		s5.953-2.445,5.953-5.453C30.953,35.199,25.801,31.437,25.582,31.281z M25,43c-1.098,0-1.984-1-1.984-2.234
		c0-1.23,1.984-3.719,1.984-3.719s1.984,2.488,1.984,3.719C26.984,42,26.097,43,25,43z"/>
	<path d="M13.29,46C13.1,46.63,13,47.31,13,48H6c-0.29,0-0.57-0.13-0.76-0.35c-0.19-0.23-0.27-0.52-0.23-0.81L8.98,23H10l0.99,0.16
		L7.18,46H13.29z"/>
	<path d="M36.71,46C36.9,46.63,37,47.31,37,48h7c0.29,0,0.57-0.13,0.76-0.35c0.19-0.23,0.27-0.52,0.23-0.81L41.02,23H40l-0.99,0.16
		L42.82,46H36.71z"/>
	<path d="M13.179,7.384L8.067,3.559C7.175,2.908,5.924,3.104,5.273,3.996S4.817,6.139,5.709,6.79l5.112,3.825
		c0.892,0.651,2.143,0.456,2.795-0.436S14.071,8.036,13.179,7.384z"/>
	<line style="fill:none;stroke:#000000;stroke-width:2;stroke-miterlimit:10;" x1="11.69" y1="8.732" x2="20.031" y2="15"/>
	<path d="M36.821,7.384l5.112-3.825c0.892-0.651,2.143-0.456,2.795,0.436s0.456,2.143-0.436,2.795l-5.112,3.825
		c-0.892,0.651-2.143,0.456-2.795-0.436S35.929,8.036,36.821,7.384z"/>
	<line style="fill:none;stroke:#000000;stroke-width:2;stroke-miterlimit:10;" x1="38.31" y1="8.732" x2="29.969" y2="15"/>
</g>
<g id="color">
</g>
</svg>