<?xml version="1.0" encoding="iso-8859-1"?>
<!-- Generator: Adobe Illustrator 24.1.2, SVG Export Plug-In . SVG Version: 6.00 Build 0)  -->
<svg version="1.1" baseProfile="basic" id="Layer_1"
	 xmlns="http://www.w3.org/2000/svg" xmlns:xlink="http://www.w3.org/1999/xlink" x="0px" y="0px" viewBox="0 0 50 50"
	 xml:space="preserve">
<path style="fill:none;stroke:#000000;stroke-width:2;stroke-linecap:round;stroke-linejoin:round;stroke-miterlimit:10;" d="
	M4.972,29.913C5.042,13.913,2.063,8.9,2.063,8.9S9.059,9.93,8.972,29.93C9.055,10.93,6.09,2.917,6.09,2.917s6.978,5.03,6.882,27.03
	c0.07-16,0.113-26,0.113-26s3.969,7.017,3.887,26.017c0.07-16,1.105-23.995,1.105-23.995s2.974,6.013,2.895,24.013
	c0.07-16,1.122-27.995,1.122-27.995S25.05,12,24.972,30c0.07-16,2.1-22.991,2.1-22.991s1.978,5.009,1.9,23.009
	c0.07-16,2.118-26.991,2.118-26.991s1.961,9.009,1.882,27.008c0.083-19,3.113-25.987,3.113-25.987s0.974,6.004,0.887,26.004
	c0.083-19,6.118-26.974,6.118-26.974S41.05,12.07,40.971,30.07c0.083-19,7.1-22.969,7.1-22.969s-3.022,4.987-3.1,22.987"/>
<line style="fill:none;stroke:#000000;stroke-width:2;stroke-linejoin:round;stroke-miterlimit:10;" x1="4.955" y1="33.913" x2="4.934" y2="38.913"/>
<line style="fill:none;stroke:#000000;stroke-width:2;stroke-linejoin:round;stroke-miterlimit:10;" x1="8.955" y1="33.93" x2="8.934" y2="38.93"/>
<line style="fill:none;stroke:#000000;stroke-width:2;stroke-linejoin:round;stroke-miterlimit:10;" x1="12.955" y1="33.947" x2="12.933" y2="38.948"/>
<line style="fill:none;stroke:#000000;stroke-width:2;stroke-linejoin:round;stroke-miterlimit:10;" x1="16.955" y1="33.965" x2="16.933" y2="38.965"/>
<line style="fill:none;stroke:#000000;stroke-width:2;stroke-linejoin:round;stroke-miterlimit:10;" x1="20.955" y1="33.982" x2="20.933" y2="38.982"/>
<line style="fill:none;stroke:#000000;stroke-width:2;stroke-linejoin:round;stroke-miterlimit:10;" x1="24.955" y1="34" x2="24.933" y2="39"/>
<line style="fill:none;stroke:#000000;stroke-width:2;stroke-linejoin:round;stroke-miterlimit:10;" x1="28.955" y1="34.017" x2="28.933" y2="39.017"/>
<line style="fill:none;stroke:#000000;stroke-width:2;stroke-linejoin:round;stroke-miterlimit:10;" x1="32.955" y1="34.035" x2="32.933" y2="39.035"/>
<line style="fill:none;stroke:#000000;stroke-width:2;stroke-linejoin:round;stroke-miterlimit:10;" x1="36.955" y1="34.052" x2="36.933" y2="39.052"/>
<line style="fill:none;stroke:#000000;stroke-width:2;stroke-linejoin:round;stroke-miterlimit:10;" x1="40.955" y1="34.07" x2="40.933" y2="39.07"/>
<line style="fill:none;stroke:#000000;stroke-width:2;stroke-linejoin:round;stroke-miterlimit:10;" x1="44.955" y1="34.087" x2="44.933" y2="39.087"/>
<path d="M47.642,38.392c-0.187-0.188-0.44-0.295-0.706-0.296l-44-0.191c-0.001,0-0.003,0-0.004,0c-0.55,0-0.998,0.445-1,0.996
	l-0.009,1.999c-0.006,1.336,0.509,2.594,1.449,3.542c0.94,0.949,2.194,1.475,3.529,1.479l36,0.157c0.008,0,0.015,0,0.023,0
	c1.327,0,2.576-0.514,3.519-1.449c0.948-0.94,1.474-2.193,1.479-3.529l0.009-2C47.933,38.835,47.829,38.58,47.642,38.392z"/>
<path d="M46.682,29.388c-0.187-0.188-0.44-0.295-0.706-0.296l-42-0.184c-0.001,0-0.003,0-0.004,0c-0.264,0-0.517,0.104-0.704,0.29
	c-0.188,0.187-0.295,0.44-0.296,0.706l-0.017,4c-0.002,0.552,0.443,1.002,0.996,1.004l42,0.184c0.001,0,0.003,0,0.004,0
	c0.55,0,0.998-0.445,1-0.996l0.018-4C46.973,29.831,46.869,29.576,46.682,29.388z"/>
</svg>