<?xml version="1.0" encoding="iso-8859-1"?><!-- Generator: Adobe Illustrator 21.1.0, SVG Export Plug-In . SVG Version: 6.00 Build 0)  --><svg xmlns="http://www.w3.org/2000/svg" xmlns:xlink="http://www.w3.org/1999/xlink" viewBox="0 0 50 50" width="50px" height="50px"><path d="M34,3H16C8.83,3,3,8.83,3,16v18c0,7.17,5.83,13,13,13h18c7.17,0,13-5.83,13-13V16C47,8.83,41.17,3,34,3z M15.5,31.53l-3.19-4.86l-1.43,1.34v3.52H9.35V18.68h1.53v7.62l4.24-4.07h2.05l-3.69,3.38l3.96,5.92H15.5z M25.26,30.8c-0.69,0.62-1.63,0.93-2.81,0.93c-0.71,0-1.34-0.11-1.88-0.34c-0.55-0.23-1.01-0.55-1.37-0.97c-0.37-0.42-0.64-0.92-0.83-1.51c-0.19-0.58-0.28-1.22-0.28-1.91c0-0.7,0.09-1.35,0.27-1.95c0.18-0.61,0.45-1.14,0.82-1.59c0.37-0.45,0.82-0.8,1.38-1.06c0.55-0.26,1.19-0.39,1.92-0.39c0.53,0,1.03,0.07,1.49,0.19c0.46,0.13,0.87,0.32,1.22,0.59c0.36,0.26,0.65,0.59,0.88,0.99c0.22,0.41,0.37,0.88,0.43,1.44h-1.59c-0.12-0.59-0.37-1.05-0.75-1.37c-0.39-0.33-0.9-0.49-1.55-0.49c-0.55,0-1.01,0.1-1.39,0.31c-0.37,0.2-0.66,0.47-0.89,0.81c-0.22,0.33-0.38,0.72-0.47,1.16c-0.1,0.44-0.15,0.89-0.15,1.36c0,0.43,0.05,0.85,0.15,1.26c0.11,0.41,0.26,0.77,0.48,1.09c0.22,0.31,0.5,0.57,0.85,0.76c0.35,0.19,0.76,0.29,1.24,0.29c0.76,0,1.35-0.2,1.77-0.59c0.43-0.4,0.69-0.96,0.78-1.68h1.57C26.38,29.28,25.95,30.17,25.26,30.8z M36.87,31.5c-0.27,0.15-0.63,0.23-1.1,0.23c-0.4,0-0.71-0.11-0.95-0.33c-0.23-0.22-0.35-0.59-0.35-1.09c-0.42,0.5-0.91,0.87-1.46,1.09c-0.56,0.22-1.17,0.33-1.81,0.33c-0.42,0-0.82-0.05-1.2-0.14c-0.38-0.1-0.71-0.25-0.98-0.45c-0.28-0.21-0.5-0.47-0.66-0.8c-0.16-0.33-0.24-0.73-0.24-1.2c0-0.53,0.09-0.96,0.27-1.3c0.18-0.33,0.42-0.61,0.71-0.82c0.29-0.21,0.63-0.36,1.01-0.47c0.38-0.11,0.76-0.2,1.16-0.27c0.42-0.09,0.82-0.15,1.2-0.19c0.37-0.04,0.71-0.1,1-0.18c0.28-0.08,0.51-0.19,0.68-0.34c0.17-0.15,0.25-0.37,0.25-0.66c0-0.34-0.06-0.61-0.19-0.81c-0.12-0.2-0.29-0.36-0.48-0.47c-0.2-0.11-0.42-0.18-0.67-0.21c-0.25-0.04-0.49-0.06-0.73-0.06c-0.65,0-1.19,0.12-1.62,0.37s-0.66,0.71-0.7,1.4h-1.53c0.02-0.58,0.14-1.07,0.36-1.46c0.21-0.4,0.5-0.72,0.86-0.97c0.36-0.24,0.77-0.42,1.24-0.53c0.46-0.1,0.95-0.16,1.48-0.16c0.42,0,0.84,0.03,1.25,0.09c0.42,0.06,0.79,0.18,1.13,0.37c0.33,0.18,0.6,0.45,0.81,0.78c0.2,0.34,0.3,0.77,0.3,1.31v4.78c0,0.36,0.02,0.62,0.07,0.79c0.04,0.17,0.18,0.25,0.42,0.25c0.13,0,0.29-0.02,0.47-0.07V31.5z M40.27,31.53h-1.53V18.68h1.53V31.53z"/><path d="M34.38,26.73v1.56c0,0.21-0.05,0.44-0.16,0.69c-0.11,0.24-0.28,0.47-0.5,0.68c-0.23,0.21-0.53,0.38-0.89,0.52c-0.36,0.13-0.79,0.2-1.29,0.2c-0.24,0-0.47-0.02-0.69-0.07c-0.21-0.05-0.4-0.12-0.56-0.23c-0.17-0.11-0.3-0.25-0.4-0.42c-0.1-0.18-0.15-0.39-0.15-0.64c0-0.38,0.09-0.68,0.26-0.9c0.17-0.22,0.4-0.4,0.67-0.51c0.28-0.12,0.59-0.21,0.94-0.26c0.35-0.06,0.69-0.11,1.04-0.15c0.34-0.04,0.66-0.09,0.98-0.16C33.94,26.98,34.19,26.87,34.38,26.73z"/></svg>