<?xml version="1.0" encoding="iso-8859-1"?><!-- Generator: Adobe Illustrator 21.1.0, SVG Export Plug-In . SVG Version: 6.00 Build 0)  --><svg xmlns="http://www.w3.org/2000/svg" xmlns:xlink="http://www.w3.org/1999/xlink" viewBox="0 0 50 50" width="500px" height="500px"><g><path d="M21.821,40.268c2.729,0,5.079-1.624,6.152-3.953l-11.29,3.953H21.821z"/><path d="M1.92,33.968c0.63-0.084,1.225-0.38,1.502-0.547l1.651-0.837c-0.02-0.007-0.04-0.009-0.059-0.016c-1.251-0.445-2.164-1.474-2.486-2.722l-0.755,0.421c-0.902,0.439-1.502,1.047-1.693,1.707c-0.13,0.443-0.071,0.884,0.169,1.27C0.574,33.82,1.173,34.067,1.92,33.968z"/><path d="M29.421,20.236l16.42-8.327c1.36-0.662,1.913-2.336,1.235-3.727c-0.497-1.013-1.643-1.609-2.777-1.458c-0.36,0.048-0.682,0.174-0.961,0.349l-18.242,10.18c0.002,0.001,0.004,0.001,0.006,0.002C26.778,18.027,28.229,19.047,29.421,20.236z"/><path d="M12.094,27.196c0.001-0.021-0.008-0.04-0.006-0.061c0.273-2.899-0.57-5.856-2.101-7.359c-0.02-0.02-0.028-0.047-0.046-0.068c-1.038,0.607-1.963,1.331-2.747,2.15c0.85,0.914,2.803,3.491,3.347,6.107C11.038,27.682,11.551,27.417,12.094,27.196z"/><path d="M16.153,26.195c0.412-1.142,0.867-3.157,0.867-4.256c0-1.183-0.361-2.973-0.843-4.197c-1.563,0.145-3.039,0.516-4.391,1.063c1.57,1.841,2.443,4.748,2.328,7.755C14.779,26.397,15.457,26.266,16.153,26.195z"/><path d="M21.889,26.72c1.253-2.458,1.356-6.552,0.735-8.282c-1.381-0.446-2.852-0.687-4.347-0.74c0.399,1.243,0.741,2.901,0.741,4.242c0,1.228-0.386,2.979-0.747,4.194C19.52,26.181,20.737,26.381,21.889,26.72z"/><path d="M25.224,28.19l5.434-2.148c-0.778-2.72-2.841-5.116-5.777-6.651c0.326,2.408-0.007,5.703-1.111,8.031C24.274,27.652,24.762,27.905,25.224,28.19z"/><path d="M5.682,30.683c0.737,0.261,1.521,0.067,2.047-0.51c0.296-0.325,0.617-0.633,0.957-0.923c-0.012-1.953-1.68-4.563-2.761-5.805c-0.98,1.505-1.54,3.216-1.54,5.034c0,0.165,0.004,0.33,0.014,0.493C4.441,29.761,4.934,30.417,5.682,30.683z"/><path d="M49.853,23.604c-0.359-1.07-1.416-1.813-2.56-1.813c-0.363,0-0.698,0.082-0.999,0.219L2.029,39.51c-0.952,0.316-1.627,0.84-1.904,1.469c-0.187,0.422-0.187,0.867,0,1.281c0.246,0.613,0.808,0.938,1.561,0.938c0.636,0,1.264-0.215,1.561-0.344l44.89-15.719C49.572,26.659,50.341,25.073,49.853,23.604z"/><path d="M6.795,32.748v0.745c0,0.651,0.098,1.279,0.27,1.876l15.715-6.213c-1.534-0.667-3.276-1.043-5.084-1.043c-3.374,0-6.548,1.273-8.488,3.405C8.574,32.215,7.711,32.636,6.795,32.748z"/></g></svg>