<?xml version="1.0" encoding="utf-8"?><!-- Generator: Adobe Illustrator 15.0.0, SVG Export Plug-In . SVG Version: 6.00 Build 0)  --><!DOCTYPE svg PUBLIC "-//W3C//DTD SVG 1.1//EN" "http://www.w3.org/Graphics/SVG/1.1/DTD/svg11.dtd"><svg xmlns="http://www.w3.org/2000/svg" xmlns:xlink="http://www.w3.org/1999/xlink" viewBox="0 0 50 50" width="50px" height="50px"><path d="M34.6,8c-3.506,0-6.882,1.166-9.6,3.3C22.282,9.166,18.906,8,15.4,8C6.908,8,0,14.774,0,23.1C0,38.071,14.506,50,20.2,50c1.668,0,3.281-0.392,4.8-1.164C26.52,49.608,28.132,50,29.8,50C35.97,50,50,39.837,50,23.1C50,14.774,43.092,8,34.6,8z M21.5,31.8c-0.3,0.3-0.7,0.3-0.9,0C20,31.1,19,29.6,19,28s1-3.1,1.5-3.8c0.3-0.3,0.7-0.3,0.9,0C22,24.9,23,26.4,23,28S22,31.1,21.5,31.8z M30.5,31.8c-0.3,0.3-0.7,0.3-0.9,0C29,31.1,28,29.6,28,28s1-3.1,1.5-3.8c0.3-0.3,0.7-0.3,0.9,0C31,24.9,32,26.4,32,28S31,31.1,30.5,31.8z"/><path d="M25,8.843c0.326-0.212,0.661-0.411,1-0.6V0h-2v8.243C24.339,8.433,24.674,8.631,25,8.843z"/><path d="M25,8.843C27.83,7.001,31.185,6,34.6,6c0.885,0,1.748,0.086,2.598,0.212c1.127-2.546,1.292-5.002,1.301-5.153c0.017-0.275-0.109-0.544-0.299-0.745C38.011,0.113,37.72,0,37.444,0c-0.578,0-5.744,0.092-9.129,3.271c-1.793,1.684-2.792,3.823-3.346,5.554C24.979,8.831,24.99,8.837,25,8.843z"/></svg>