<?xml version="1.0" encoding="iso-8859-1"?>
<!-- Generator: Adobe Illustrator 23.0.3, SVG Export Plug-In . SVG Version: 6.00 Build 0)  -->
<svg version="1.1" xmlns="http://www.w3.org/2000/svg" xmlns:xlink="http://www.w3.org/1999/xlink" x="0px" y="0px"
	 viewBox="0 0 50 50" style="enable-background:new 0 0 50 50;" xml:space="preserve">
<g id="Layer_10" style="display:none;">
</g>
<g id="filled">
</g>
<g id="outlined">
</g>
<g id="rounded">
</g>
<g id="two_x5F_tone">
</g>
<g id="sharp">
</g>
<g id="win10">
</g>
<g id="color">
</g>
<g id="ios_x5F_out">
</g>
<g id="ios_x5F_filled">
	<path d="M40.118,7L37,13.236V48h5c0.552,0,1-0.448,1-1V12.764L40.118,7z"/>
	<path d="M26.27,42.69L31.58,48H19c-0.55,0-1-0.45-1-1v-1.85c1.27,0.49,2.53,0.85,3.5,0.85C24.02,46,25.7,44.78,26.27,42.69z"/>
	<path d="M35,14v34h-0.58l-6.72-6.72c2.1-0.57,3.3-2.27,3.3-4.78c0-2.54-2.5-7.14-3.26-8.49L26,24.94l-1.22,2.16
		c-0.75-1.75-1.63-3.38-2.04-4.09L21,19.95l-1.22,2.15c-0.61-1.43-1.32-2.78-1.78-3.61V14H35z"/>
	<polygon points="35.382,12 37.382,8 21.333,8 18.667,12 	"/>
	<path d="M40,6V3c0-0.553-0.447-1-1-1H23c-0.553,0-1,0.447-1,1v3H40z"/>
	<g>
		<path d="M11.96,22.72c-0.46,1.16-0.83,2.34-0.93,3.31c-0.97,0.1-2.14,0.47-3.3,0.93L7.67,26.9C6.14,25.37,3.93,19,3.93,19
			s6.45,2.13,7.98,3.66C11.93,22.68,11.95,22.7,11.96,22.72z"/>
	</g>
	<path d="M14.84,31.26c-1.82,0.46-3.99,1.49-5.47,2.26c-0.15-0.05-0.3-0.11-0.46-0.17c-0.15-0.06-0.31-0.12-0.47-0.18
		c-1.33-0.54-2.69-1.23-3.54-1.68c-0.13-0.07-0.24-0.13-0.34-0.18C4.21,31.12,4,31,4,31s5.29-3,7.5-3c0.03,0,0.06,0.01,0.09,0.01
		L14.84,31.26z"/>
	<path d="M18.51,24.38c-0.76,1.48-1.79,3.64-2.25,5.46l-3.25-3.25c0-0.03-0.01-0.06-0.01-0.09c0-2.21,3-7.5,3-7.5
		s1.47,2.61,2.35,4.92C18.41,24.07,18.47,24.23,18.51,24.38z"/>
	<path d="M19.84,36.26c-1.82,0.46-3.98,1.49-5.46,2.26h-0.01c-0.69-0.25-1.42-0.55-2.11-0.87c-0.87-0.39-1.69-0.81-2.28-1.12
		c-0.08-0.04-0.15-0.08-0.22-0.12C9.29,36.16,9,36,9,36s5.29-3,7.5-3c0.03,0,0.06,0.01,0.09,0.01L19.84,36.26z"/>
	<path d="M23.52,29.37v0.01c-0.77,1.48-1.8,3.64-2.26,5.46l-3.25-3.25c0-0.03-0.01-0.06-0.01-0.09c0-2.21,3-7.5,3-7.5
		s0.16,0.29,0.41,0.76c0.04,0.07,0.08,0.15,0.13,0.23c0.39,0.75,0.95,1.86,1.43,2.99c0.13,0.31,0.26,0.62,0.38,0.93
		C23.41,29.07,23.47,29.22,23.52,29.37z"/>
	<path d="M29,36.5c0,2.21-1.21,3-3,3c-0.03,0-0.06-0.01-0.09-0.01l-2.9-2.9c0-0.03-0.01-0.06-0.01-0.09c0-2.21,3-7.5,3-7.5
		S29,34.29,29,36.5z"/>
	<path d="M24.5,41c0,1.79-0.79,3-3,3S14,41,14,41s5.29-3,7.5-3c0.03,0,0.06,0.01,0.09,0.01l2.9,2.9C24.49,40.94,24.5,40.97,24.5,41z
		"/>
</g>
<g id="cute-color">
</g>
<g id="cute-out">
</g>
<g id="plasticine">
</g>
<g id="carbon_copy">
</g>
</svg>