<?xml version="1.0" encoding="utf-8"?><!-- Generator: Adobe Illustrator 15.0.0, SVG Export Plug-In . SVG Version: 6.00 Build 0)  --><!DOCTYPE svg PUBLIC "-//W3C//DTD SVG 1.1//EN" "http://www.w3.org/Graphics/SVG/1.1/DTD/svg11.dtd"><svg xmlns="http://www.w3.org/2000/svg" xmlns:xlink="http://www.w3.org/1999/xlink" viewBox="0 0 50 50" width="50px" height="50px"><path d="M48.51,2.14l-1.625-0.963c-0.458-0.273-1.05-0.137-1.345,0.31c-0.022,0.035-2.273,3.422-4.954,5.677c-0.292-0.005-0.607-0.029-0.941-0.053c-0.491-0.035-1.02-0.072-1.573-0.072c-1.856,0-4.608,0.383-7.067,3.699c1.382,0.824,3.477,0.934,7.389,0.272c-1.566,1.567-1.986,5.758-1.986,5.758s3.129-0.24,5.156-2.268c-0.265,2.051,1.888,4.539,2.951,5.92c0.047-0.059,0.09-0.121,0.122-0.191c2.413-5.141,1.043-8.344,0.387-9.774c2.852-3.403,3.896-7.024,3.94-7.184C49.086,2.835,48.899,2.371,48.51,2.14z"/><path d="M42.929,21.64l-0.321-0.412c-0.736-0.938-1.679-2.138-2.323-3.473c-1.808,0.831-3.462,0.987-3.725,1.007l-2.382,0.183l0.238-2.376c0.042-0.418,0.195-1.717,0.6-3.149c-0.276,0.013-0.541,0.02-0.793,0.02c-1.768,0-3.116-0.313-4.243-0.985l-0.401-0.239c-1.079,1.012-2.171,2.194-3.293,3.416c-1.841,2.004-3.745,4.077-5.776,5.6c-2.826,2.119-5.849,3.201-8.773,4.248C6.214,27.456,1,29.323,1,38c0,6.065,4.935,11,11,11c14.735,0,28.323-14.813,31.642-26.434L42.929,21.64z M32.2,20.317c-0.293,0.422-7.318,10.376-20.609,13.4c-0.075,0.018-0.149,0.025-0.223,0.025c-0.457,0-0.869-0.314-0.974-0.778c-0.123-0.538,0.215-1.074,0.753-1.196c12.542-2.854,19.341-12.493,19.409-12.59c0.313-0.454,0.936-0.569,1.392-0.252C32.401,19.241,32.515,19.864,32.2,20.317z"/></svg>