<?xml version="1.0" encoding="iso-8859-1"?>
<!-- Generator: Adobe Illustrator 23.0.6, SVG Export Plug-In . SVG Version: 6.00 Build 0)  -->
<svg version="1.1" id="Filled" xmlns="http://www.w3.org/2000/svg" xmlns:xlink="http://www.w3.org/1999/xlink" x="0px" y="0px"
	 viewBox="0 0 50 50" style="enable-background:new 0 0 50 50;" xml:space="preserve">
<path style="fill:none;stroke:#000000;stroke-width:2;" d="M12.015,22c0.162-3.5,1.638-8.061,3.853-11.83
	C18.585,5.548,21.829,3,25,3s6.415,2.548,9.132,7.17c2.215,3.768,3.691,8.33,3.853,11.83"/>
<path d="M27.428,33.987h-4.9c-12.312,0-13.514-12.784-13.525-12.923h31.994C40.986,21.202,39.783,33.987,27.428,33.987z"/>
<line style="fill:none;stroke:#000000;stroke-width:2;stroke-linecap:round;stroke-linejoin:round;stroke-miterlimit:10;" x1="8" y1="22" x2="42" y2="22"/>
<path d="M34,48H16c-0.552,0-1-0.384-1-0.857c0-0.126,0.033-0.305,0.095-0.419C16.698,43.81,19.803,42,23.2,42h3.6
	c3.417,0,6.601,1.86,8.112,4.738C34.97,46.848,35,46.968,35,47.089C35,47.563,34.552,48,34,48z M16,47.089h0.01H16z"/>
<path d="M29.27,35.89c-0.591,0.06-1.202,0.096-1.842,0.096h-4.9c-0.624,0-1.219-0.036-1.796-0.093
	c0.408,1.377,0.477,2.921,0.202,4.357C21.672,40.102,22.427,40,23.2,40h3.6c0.771,0,1.526,0.103,2.268,0.254
	C28.791,38.815,28.86,37.269,29.27,35.89z"/>
</svg>