<?xml version="1.0" encoding="iso-8859-1"?>
<!-- Generator: Adobe Illustrator 23.0.6, SVG Export Plug-In . SVG Version: 6.00 Build 0)  -->
<svg version="1.1" id="Filled" xmlns="http://www.w3.org/2000/svg" xmlns:xlink="http://www.w3.org/1999/xlink" x="0px" y="0px"
	 viewBox="0 0 50 50" style="enable-background:new 0 0 50 50;" xml:space="preserve">
<path style="fill:none;stroke:#000000;stroke-width:2;stroke-linecap:round;stroke-linejoin:round;stroke-miterlimit:10;" d="M18,5
	l-0.639,1.96C16.703,8.975,16.961,11.407,18,13l0,0c1.039,1.593,1.297,4.025,0.639,6.04L18,21"/>
<path style="fill:none;stroke:#000000;stroke-width:2;stroke-linecap:round;stroke-linejoin:round;stroke-miterlimit:10;" d="M25,5
	l-0.639,1.96C23.703,8.975,23.961,11.407,25,13l0,0c1.039,1.593,1.297,4.025,0.639,6.04L25,21"/>
<path style="fill:none;stroke:#000000;stroke-width:2;stroke-linecap:round;stroke-linejoin:round;stroke-miterlimit:10;" d="M11,5
	l-0.639,1.96C9.703,8.975,9.961,11.407,11,13l0,0c1.039,1.593,1.297,4.025,0.639,6.04L11,21"/>
<path d="M46,26H4c-0.552,0-1,0.448-1,1v3c0,9.7,10.616,17,17.5,17h9C36.384,47,47,39.7,47,30v-3C47,26.448,46.552,26,46,26z M41,32
	H5.203C5.084,31.344,5,30.68,5,30h36c0.552,0,1,0.448,1,1S41.552,32,41,32z"/>
<path d="M46.966,12.634c-0.125-0.842-0.577-1.577-1.272-2.068c-0.695-0.491-1.538-0.674-2.373-0.509
	c-0.816,0.159-1.516,0.624-1.977,1.313L30.871,24h5.851l9.532-8.911c0.035-0.033,0.067-0.068,0.097-0.106
	C46.873,14.311,47.091,13.476,46.966,12.634z"/>
</svg>