<?xml version="1.0" encoding="utf-8"?><!-- Generator: Adobe Illustrator 15.0.0, SVG Export Plug-In . SVG Version: 6.00 Build 0)  --><!DOCTYPE svg PUBLIC "-//W3C//DTD SVG 1.1//EN" "http://www.w3.org/Graphics/SVG/1.1/DTD/svg11.dtd"><svg xmlns="http://www.w3.org/2000/svg" xmlns:xlink="http://www.w3.org/1999/xlink" viewBox="0 0 50 50" width="500px" height="500px"><path d="M47.2,24c-0.256,0-0.512-0.098-0.707-0.293l-20.2-20.2c-0.391-0.391-0.391-1.023,0-1.414s1.023-0.391,1.414,0l20.2,20.2c0.391,0.391,0.391,1.023,0,1.414C47.712,23.902,47.456,24,47.2,24z"/><line fill="none" stroke="#000000" stroke-width="2" stroke-linecap="round" stroke-linejoin="round" stroke-miterlimit="10" x1="23.8" y1="5.1" x2="44.9" y2="26.2"/><line fill="none" stroke="#000000" stroke-width="2" stroke-linecap="round" stroke-linejoin="round" stroke-miterlimit="10" x1="21" y1="7.9" x2="42.1" y2="29"/><path d="M49,46c-5.841,0-7.234-4.955-8.354-8.938c-0.544-1.934-1.058-3.761-1.952-4.655l-21.101-21.1c-0.391-0.391-0.391-1.023,0-1.414s1.023-0.391,1.414,0l21.101,21.1c1.265,1.265,1.847,3.336,2.464,5.528C43.842,41.039,44.976,44,49,44c0.553,0,1,0.447,1,1S49.553,46,49,46z"/><path d="M48.804,20.361c0.726-0.809,0.968-1.124,0.996-1.162c0.255-0.339,0.268-0.802,0.032-1.154c-0.042-0.063-1.06-1.58-3.37-4.294c-0.182-0.212-0.443-0.339-0.722-0.351c-0.277-0.014-0.55,0.094-0.747,0.292l-1.429,1.429L48.804,20.361z"/><path d="M41.979,13.536l1.528-1.529c0.188-0.188,0.293-0.442,0.293-0.707s-0.105-0.52-0.293-0.707l-2-2c-0.819-0.819-1.527-1.527-2.257-2.152c-0.396-0.339-0.988-0.317-1.357,0.053l-1.479,1.479L41.979,13.536z"/><path d="M34.828,6.386l1.379-1.379c0.197-0.197,0.304-0.468,0.292-0.747c-0.011-0.279-0.138-0.541-0.351-0.721c-2.701-2.301-4.108-3.311-4.167-3.352C31.628-0.066,31.15-0.062,30.801,0.2c-0.038,0.028-0.354,0.27-1.162,0.997L34.828,6.386z"/><path d="M31.122,27.664l-1.129,1.129c-0.391,0.391-1.195,0.391-1.586,0c-0.407-0.407-0.407-1.179,0-1.586l1.129-1.129l-5.614-5.614l-1.029,1.029c-0.391,0.391-1.195,0.391-1.586,0C21.112,21.298,21,21.009,21,20.7s0.112-0.598,0.307-0.793l1.029-1.029l-5.67-5.669l-0.577,0.549c-1.778,1.691-3.313,3.152-4.796,4.635c-5.038,5.038-4.163,9.882-3.525,13.42c0.391,2.166,0.576,3.429-0.175,4.18c-2.943,2.943-7.212,6.72-7.255,6.758C0.131,42.934,0.009,43.193,0,43.469c-0.008,0.276,0.097,0.543,0.292,0.738l5.5,5.5C5.98,49.895,6.235,50,6.5,50c0.01,0,0.021,0,0.031,0c0.276-0.009,0.536-0.131,0.719-0.338c0.038-0.043,3.818-4.317,6.658-7.255c0.354-0.354,0.809-0.505,1.521-0.505c0.729,0,1.596,0.163,2.6,0.351c1.284,0.241,2.74,0.514,4.33,0.514c0,0,0.001,0,0.001,0c3.424,0,6.417-1.328,9.148-4.06c1.249-1.249,2.902-2.994,5.185-5.474L31.122,27.664z"/></svg>