<?xml version="1.0" encoding="utf-8"?><!-- Generator: Adobe Illustrator 15.0.0, SVG Export Plug-In . SVG Version: 6.00 Build 0)  --><!DOCTYPE svg PUBLIC "-//W3C//DTD SVG 1.1//EN" "http://www.w3.org/Graphics/SVG/1.1/DTD/svg11.dtd"><svg xmlns="http://www.w3.org/2000/svg" xmlns:xlink="http://www.w3.org/1999/xlink" viewBox="0 0 50 50" width="50px" height="50px"><path d="M41.33,9.075C39.68,4.878,35.522,2,31,2c-2.323,0-4.603,0.745-6.423,2.073C22.904,1.565,20.049,0,17,0c-4.962,0-9,4.038-9,9c0,0.088,0,0.175,0.001,0.262C3.946,10.135,1,13.729,1,18c0,4.962,4.038,9,9,9c0.299,0,0.599-0.029,0.882-0.06c0.006-0.001,0.012-0.001,0.017-0.002C12.764,29.492,15.748,31,19,31c2.854,0,5.553-1.202,7.398-3.258C27.762,28.559,29.362,29,31,29c2.258,0,4.467-0.884,6.155-2.445C38.08,26.854,39.017,27,40,27c4.963,0,9-4.038,9-9C49,13.519,45.681,9.721,41.33,9.075z M16,20v-2c3.86,0,7-3.14,7-7h2C25,15.962,20.962,20,16,20z M37,15c-1.654,0-3,1.346-3,3h-2c0-2.757,2.243-5,5-5V15z"/><path d="M40,29c-0.811,0-1.591-0.081-2.359-0.246c-1.638,1.237-3.561,1.988-5.571,2.188c-0.6,1.401-1.432,3.566-2.52,6.871l-1.328,4.032l-1.676-11.506c-0.948,0.766-2.008,1.378-3.144,1.819C23.263,34.472,23.1,37.456,23.1,38.8v4.528l-1.907-4.107c-1.25-2.691-2.315-4.805-3.082-6.268c-3.133-0.23-6.059-1.648-8.115-3.953c-0.316,0-0.627-0.021-0.936-0.048C12.463,32.787,18.1,40.431,18.1,49v1h13.35l0.137-0.84c1.635-10.071,6.157-16.847,8.92-20.186C40.338,28.982,40.171,29,40,29z"/></svg>