<?xml version="1.0" encoding="iso-8859-1"?>
<!-- Generator: Adobe Illustrator 24.1.2, SVG Export Plug-In . SVG Version: 6.00 Build 0)  -->
<svg version="1.1" id="Layer_1" xmlns="http://www.w3.org/2000/svg" xmlns:xlink="http://www.w3.org/1999/xlink" x="0px" y="0px"
	 viewBox="0 0 50 50" style="enable-background:new 0 0 50 50;" xml:space="preserve">
<path style="fill:none;stroke:#000000;stroke-width:2;stroke-linecap:round;stroke-miterlimit:10;" d="M23,2c3,0,3,3,1,4"/>
<path d="M25.07,5H25C13.97,5,5,14.42,5,26c0,11.58,8.97,21,20,21c11.03,0,20-9.42,20-21C45,14.44,36.07,5.04,25.07,5z
	 M14.959,40.718c-1.161-1.314-2.209-2.766-2.997-4.364C10.309,33.192,9.521,29.571,9.5,26c0.025-3.571,0.812-7.191,2.466-10.352
	c0.788-1.598,1.835-3.05,2.996-4.364C16.152,9.997,17.469,8.816,19,8c-1.101,1.321-2.051,2.698-2.853,4.147
	c-0.819,1.431-1.508,2.915-2.044,4.437C13.027,19.629,12.52,22.802,12.5,26c0.025,3.197,0.531,6.37,1.607,9.414
	c0.536,1.522,1.225,3.006,2.044,4.437C16.951,41.3,17.901,42.677,19,44C17.467,43.186,16.15,42.005,14.959,40.718z M21.884,35.604
	c0.061,0.799,0.148,1.594,0.262,2.384c0.093,0.794,0.201,1.591,0.366,2.372c0.293,1.577,0.648,3.151,1.39,4.64
	c-1.32-1.083-2.135-2.654-2.847-4.181c-0.672-1.56-1.198-3.186-1.553-4.834c-0.776-3.296-0.997-6.665-0.995-10.001
	c0.04-3.337,0.297-6.703,1.092-9.991c0.349-1.648,0.903-3.265,1.569-4.821C21.875,9.646,22.698,8.088,24,7
	c-0.793,1.457-1.173,3.033-1.496,4.604c-0.318,1.573-0.525,3.159-0.672,4.755c-0.285,3.189-0.35,6.403-0.339,9.625
	C21.525,29.208,21.607,32.419,21.884,35.604z M28.944,40.819c-0.712,1.527-1.527,3.098-2.847,4.181
	c0.741-1.489,1.096-3.063,1.39-4.64c0.165-0.78,0.273-1.578,0.366-2.372c0.114-0.79,0.201-1.585,0.262-2.384
	c0.277-3.186,0.359-6.397,0.392-9.62c0.011-3.222-0.054-6.436-0.339-9.625c-0.147-1.597-0.353-3.183-0.672-4.755
	C27.174,10.033,26.793,8.457,26,7c1.302,1.088,2.125,2.646,2.831,4.172c0.666,1.556,1.22,3.173,1.569,4.821
	c0.796,3.288,1.052,6.654,1.092,9.991c0.002,3.336-0.219,6.704-0.995,10.001C30.143,37.633,29.617,39.258,28.944,40.819z
	 M38.037,36.354c-0.788,1.598-1.835,3.05-2.997,4.364C33.85,42.005,32.533,43.186,31,44c1.099-1.323,2.049-2.7,2.85-4.149
	c0.819-1.431,1.508-2.915,2.044-4.437C36.969,32.37,37.476,29.197,37.5,26c-0.02-3.198-0.528-6.371-1.603-9.416
	c-0.536-1.522-1.225-3.006-2.044-4.437C33.051,10.698,32.101,9.321,31,8c1.531,0.816,2.848,1.997,4.037,3.284
	c1.161,1.314,2.208,2.766,2.996,4.364C39.688,18.809,40.474,22.429,40.5,26C40.479,29.571,39.691,33.192,38.037,36.354z"/>
</svg>