<?xml version="1.0" encoding="iso-8859-1"?>
<!-- Generator: Adobe Illustrator 23.0.6, SVG Export Plug-In . SVG Version: 6.00 Build 0)  -->
<svg version="1.1" id="Filled" xmlns="http://www.w3.org/2000/svg" xmlns:xlink="http://www.w3.org/1999/xlink" x="0px" y="0px"
	 viewBox="0 0 50 50" style="enable-background:new 0 0 50 50;" xml:space="preserve">
<path d="M46.636,21.012L46.636,21.012c-0.738-0.951-1.068-2.181-0.905-3.375c0.403-2.945-1.237-5.785-3.989-6.908
	c-1.114-0.455-2.014-1.354-2.469-2.47c-1.123-2.752-3.964-4.391-6.909-3.988c-1.194,0.166-2.421-0.167-3.374-0.905
	c-2.348-1.823-5.63-1.823-7.978,0c-0.951,0.737-2.18,1.066-3.374,0.905c-2.949-0.408-5.785,1.233-6.909,3.985
	c-0.456,1.115-1.357,2.016-2.472,2.472c-2.751,1.123-4.392,3.963-3.988,6.909c0.164,1.191-0.166,2.421-0.905,3.374
	c-1.823,2.349-1.823,5.629,0,7.978c0.737,0.951,1.067,2.181,0.905,3.375c-0.403,2.944,1.236,5.785,3.988,6.908
	c1.114,0.454,2.014,1.354,2.47,2.469c1.122,2.752,3.964,4.39,6.908,3.989c1.19-0.165,2.421,0.166,3.375,0.905
	C22.186,47.545,23.593,48,25,48s2.814-0.455,3.989-1.365c0.952-0.738,2.18-1.068,3.375-0.905c2.946,0.402,5.786-1.237,6.908-3.989
	c0.455-1.114,1.354-2.014,2.47-2.469c2.751-1.122,4.391-3.963,3.988-6.909c-0.164-1.192,0.166-2.422,0.905-3.374
	C48.457,26.641,48.458,23.36,46.636,21.012z M9,26c-0.552,0-1-0.448-1-1s0.448-1,1-1s1,0.448,1,1S9.552,26,9,26z M13,20
	c0.552,0,1,0.448,1,1s-0.448,1-1,1s-1-0.448-1-1S12.448,20,13,20z M13,30c-0.552,0-1-0.448-1-1s0.448-1,1-1s1,0.448,1,1
	S13.552,30,13,30z M17,16c0.552,0,1,0.448,1,1s-0.448,1-1,1s-1-0.448-1-1S16.448,16,17,16z M17,34c-0.552,0-1-0.448-1-1s0.448-1,1-1
	s1,0.448,1,1S17.552,34,17,34z M17,26c-0.552,0-1-0.448-1-1s0.448-1,1-1s1,0.448,1,1S17.552,26,17,26z M29,12c0.552,0,1,0.448,1,1
	s-0.448,1-1,1s-1-0.448-1-1S28.448,12,29,12z M25,8c0.552,0,1,0.448,1,1s-0.448,1-1,1s-1-0.448-1-1S24.448,8,25,8z M21,12
	c0.552,0,1,0.448,1,1s-0.448,1-1,1s-1-0.448-1-1S20.448,12,21,12z M21,38c-0.552,0-1-0.448-1-1s0.448-1,1-1s1,0.448,1,1
	S21.552,38,21,38z M21,30c-0.552,0-1-0.448-1-1s0.448-1,1-1s1,0.448,1,1S21.552,30,21,30z M21,22c-0.552,0-1-0.448-1-1s0.448-1,1-1
	s1,0.448,1,1S21.552,22,21,22z M25,42c-0.552,0-1-0.448-1-1s0.448-1,1-1s1,0.448,1,1S25.552,42,25,42z M25,34c-0.552,0-1-0.448-1-1
	s0.448-1,1-1s1,0.448,1,1S25.552,34,25,34z M25,26c-0.552,0-1-0.448-1-1s0.448-1,1-1s1,0.448,1,1S25.552,26,25,26z M25,18
	c-0.552,0-1-0.448-1-1s0.448-1,1-1s1,0.448,1,1S25.552,18,25,18z M29,38c-0.552,0-1-0.448-1-1s0.448-1,1-1s1,0.448,1,1
	S29.552,38,29,38z M29,30c-0.552,0-1-0.448-1-1s0.448-1,1-1s1,0.448,1,1S29.552,30,29,30z M29,22c-0.552,0-1-0.448-1-1s0.448-1,1-1
	s1,0.448,1,1S29.552,22,29,22z M33,16c0.552,0,1,0.448,1,1s-0.448,1-1,1s-1-0.448-1-1S32.448,16,33,16z M33,34c-0.552,0-1-0.448-1-1
	s0.448-1,1-1s1,0.448,1,1S33.552,34,33,34z M33,26c-0.552,0-1-0.448-1-1s0.448-1,1-1s1,0.448,1,1S33.552,26,33,26z M37,30
	c-0.552,0-1-0.448-1-1s0.448-1,1-1s1,0.448,1,1S37.552,30,37,30z M37,22c-0.552,0-1-0.448-1-1s0.448-1,1-1s1,0.448,1,1
	S37.552,22,37,22z M41,26c-0.552,0-1-0.448-1-1s0.448-1,1-1s1,0.448,1,1S41.552,26,41,26z"/>
</svg>