<?xml version="1.0" encoding="iso-8859-1"?>
<!-- Generator: Adobe Illustrator 25.2.3, SVG Export Plug-In . SVG Version: 6.00 Build 0)  -->
<svg version="1.1" baseProfile="basic" xmlns="http://www.w3.org/2000/svg" xmlns:xlink="http://www.w3.org/1999/xlink" x="0px"
	 y="0px" viewBox="0 0 50 50" xml:space="preserve">
<path d="M47.688,27.192c0.636,1.536,0.287,3.289-0.889,4.464l-1.063,1.064c-0.391,0.39-0.614,0.93-0.614,1.482v1.505
	c0,1.662-0.992,3.147-2.527,3.784l-1.391,0.577c-0.518,0.214-0.92,0.617-1.135,1.134l-0.576,1.39
	c-0.638,1.536-2.124,2.528-3.785,2.528h-1.505c-0.561,0-1.087,0.218-1.481,0.613l-1.064,1.065c-1.176,1.175-2.926,1.526-4.465,0.889
	l-1.39-0.575c-0.516-0.214-1.086-0.215-1.604,0l-1.391,0.575c-0.51,0.211-1.043,0.313-1.57,0.313c-1.064,0-2.108-0.416-2.895-1.202
	l-1.063-1.064c-0.391-0.39-0.931-0.614-1.482-0.614h-1.505c-1.661,0-3.147-0.992-3.785-2.527l-0.576-1.391
	c-0.215-0.517-0.617-0.92-1.134-1.134l-1.391-0.577c-1.535-0.637-2.527-2.123-2.527-3.785v-1.505c0-0.552-0.224-1.092-0.614-1.481
	l-1.064-1.065c-1.176-1.175-1.524-2.928-0.889-4.464l0.575-1.39c0.212-0.51,0.212-1.095,0-1.605l-0.575-1.39
	c-0.636-1.536-0.287-3.289,0.889-4.464l1.063-1.064c0.391-0.39,0.614-0.93,0.614-1.482v-1.505c0-1.662,0.992-3.147,2.527-3.784
	l1.392-0.577c0.517-0.214,0.919-0.617,1.134-1.134l0.576-1.39c0.638-1.536,2.124-2.528,3.785-2.528h1.505
	c0.561,0,1.087-0.218,1.481-0.613L18.344,3.2c1.177-1.175,2.93-1.523,4.465-0.889l1.39,0.575c0.52,0.216,1.089,0.215,1.604,0
	l1.39-0.575c1.538-0.636,3.289-0.286,4.465,0.888l1.063,1.064c0.391,0.39,0.931,0.614,1.482,0.614h1.505
	c1.661,0,3.147,0.992,3.785,2.527l0.576,1.391c0.215,0.517,0.617,0.92,1.135,1.134l1.39,0.577c1.536,0.638,2.528,2.123,2.528,3.785
	v1.505c0,0.553,0.224,1.093,0.613,1.481l1.064,1.065c1.176,1.175,1.524,2.928,0.889,4.464l-0.575,1.39
	c-0.212,0.51-0.212,1.095,0,1.605L47.688,27.192z M7,25c0,9.941,8.059,18,18,18s18-8.059,18-18S34.941,7,25,7S7,15.059,7,25z"/>
<path d="M24.383,22.787C24.564,22.929,24.782,23,25,23s0.436-0.071,0.617-0.213C25.714,22.711,28,20.893,28,18.5
	s-2.286-4.211-2.383-4.287c-0.363-0.284-0.871-0.284-1.234,0C24.286,14.289,22,16.107,22,18.5S24.286,22.711,24.383,22.787z"/>
<path d="M22.787,25.617c0.284-0.362,0.284-0.871,0-1.233C22.711,24.286,20.892,22,18.5,22s-4.211,2.286-4.287,2.383
	c-0.284,0.362-0.284,0.871,0,1.233C14.289,25.714,16.108,28,18.5,28S22.711,25.714,22.787,25.617z"/>
<path d="M25.617,27.213c-0.363-0.284-0.871-0.284-1.234,0C24.286,27.289,22,29.107,22,31.5s2.286,4.211,2.383,4.287
	C24.564,35.929,24.782,36,25,36s0.436-0.071,0.617-0.213C25.714,35.711,28,33.893,28,31.5S25.714,27.289,25.617,27.213z"/>
<path d="M35.787,24.383C35.711,24.286,33.892,22,31.5,22s-4.211,2.286-4.287,2.383c-0.284,0.362-0.284,0.871,0,1.233
	C27.289,25.714,29.108,28,31.5,28s4.211-2.286,4.287-2.383C36.071,25.254,36.071,24.746,35.787,24.383z"/>
</svg>