<?xml version="1.0" encoding="iso-8859-1"?>
<!-- Generator: Adobe Illustrator 23.0.3, SVG Export Plug-In . SVG Version: 6.00 Build 0)  -->
<svg version="1.1" xmlns="http://www.w3.org/2000/svg" xmlns:xlink="http://www.w3.org/1999/xlink" x="0px" y="0px"
	 viewBox="0 0 50 50" style="enable-background:new 0 0 50 50;" xml:space="preserve">
<g id="&#x421;&#x43B;&#x43E;&#x439;_1" style="display:none;">
</g>
<g id="ref">
</g>
<g id="&#x421;&#x43B;&#x43E;&#x439;_3">
</g>
<g id="Layer_4">
	<g>
		<path d="M23,12c-0.052,0-0.949,1.996-1.003,1.987c-0.545-0.086-0.918-0.598-0.831-1.144c1.1-6.971,7.182-9.652,7.44-9.763
			c0.439-0.188,0.958-0.037,1.226,0.364l2,3c0.307,0.46,0.183,1.08-0.277,1.387c-0.07,0.05-1.955,1.412-2.442,5.293
			C29.043,13.672,28.562,13.063,28,13C27.452,12.932,23.483,12,23,12z"/>
	</g>
	<path style="fill:none;stroke:#000000;stroke-width:2;stroke-linecap:round;stroke-miterlimit:10;" d="M31,41
		c-1.448,3.089-3.786,5-6,5c-2.214,0-4.552-1.911-6-5"/>
	<path style="fill:none;stroke:#000000;stroke-width:2;stroke-linecap:round;stroke-miterlimit:10;" d="M19,17
		c1.448-3.089,3.786-5,6-5c2.214,0,4.552,1.911,6,5"/>
	<path style="fill:none;stroke:#000000;stroke-width:2;stroke-linecap:round;stroke-miterlimit:10;" d="M10,21
		c1.543-4.761,4.747-8,8.25-8c0.958,0,1.882,0.242,2.75,0.692"/>
	<path style="fill:none;stroke:#000000;stroke-width:2;stroke-linecap:round;stroke-miterlimit:10;" d="M21,44.111
		C20.061,44.687,19.048,45,17.992,45c-3.394,0-6.498-3.239-7.992-8"/>
	<path style="fill:none;stroke:#000000;stroke-width:2;stroke-miterlimit:10;" d="M14,43.725C13.427,43.905,12.836,44,12.231,44
		C7.133,44,3,37.284,3,29s4.133-15,9.231-15c0.605,0,1.197,0.095,1.769,0.275"/>
	<path style="fill:none;stroke:#000000;stroke-width:2;stroke-miterlimit:10;" d="M36,14.275C36.573,14.095,37.164,14,37.769,14
		C42.867,14,47,20.716,47,29s-4.133,15-9.231,15c-0.605,0-1.197-0.095-1.769-0.275"/>
	<path style="fill:none;stroke:#000000;stroke-width:2;stroke-linecap:round;stroke-miterlimit:10;" d="M40,37
		c-1.543,4.761-4.747,8-8.25,8c-0.958,0-1.882-0.242-2.75-0.692"/>
	<path style="fill:none;stroke:#000000;stroke-width:2;stroke-linecap:round;stroke-miterlimit:10;" d="M29,13.692
		C29.868,13.242,30.792,13,31.75,13c3.503,0,6.707,3.239,8.25,8"/>
	<circle cx="15" cy="28" r="3"/>
	<circle cx="35" cy="28" r="3"/>
	<path style="fill:none;stroke:#000000;stroke-width:2;stroke-linecap:round;stroke-miterlimit:10;" d="M28,32
		c-0.412,1.165-1.694,2-3,2c-1.306,0-2.588-0.835-3-2"/>
	<g id="&#x421;&#x43B;&#x43E;&#x439;_7">
	</g>
</g>
<g id="&#x421;&#x43B;&#x43E;&#x439;_5">
</g>
<g id="&#x421;&#x43B;&#x43E;&#x439;_6">
</g>
</svg>