<?xml version="1.0" encoding="iso-8859-1"?><!-- Generator: Adobe Illustrator 19.1.1, SVG Export Plug-In . SVG Version: 6.00 Build 0)  --><svg xmlns="http://www.w3.org/2000/svg" xmlns:xlink="http://www.w3.org/1999/xlink" viewBox="0 0 50 50" width="50px" height="50px"><path style="fill:none;stroke:#000000;stroke-width:2;stroke-linecap:round;stroke-miterlimit:10;" d="M12,7C9.982,4.982,4,4,4,4s1.014,6.014,3,8"/><line style="fill:none;stroke:#000000;stroke-width:2;stroke-linecap:round;stroke-miterlimit:10;" x1="14" y1="14" x2="23" y2="23"/><path style="fill:none;stroke:#000000;stroke-width:2;stroke-miterlimit:10;" d="M31.914,20.914l8.887-8.887C41.349,12.622,42.128,13,43,13c1.657,0,3-1.343,3-3s-1.343-3-3-3c0-1.657-1.343-3-3-3s-3,1.343-3,3c0,0.872,0.378,1.651,0.973,2.199l-8.887,8.887"/><ellipse transform="matrix(0.7071 0.7071 -0.7071 0.7071 30.1777 2.1447)" cx="12.5" cy="37.5" rx="3.46" ry="0.723"/><g><path d="M11,9h3.246c-0.339-1.02-0.828-1.997-1.539-2.707C12.262,5.848,11.666,5.455,11,5.106V9z"/><path d="M4.259,9H9V4.249C6.801,3.469,4.552,3.077,4.162,3.013L2.781,2.787l0.233,1.38C3.08,4.557,3.481,6.806,4.259,9z"/><path d="M9,11H5.112c0.348,0.669,0.739,1.266,1.18,1.707c0.703,0.703,1.682,1.19,2.707,1.528V11z"/><path d="M11,11v3.723c1.479,0.256,2.733,0.277,2.997,0.277l1,0.003l0.003-1c0.001-0.263-0.012-1.52-0.267-3.003H11z"/></g><path d="M32.988,20.849c-0.023-0.154-0.26-1.535-1.281-2.556s-2.401-1.258-2.556-1.281L29,17c-2.628,0-5.004,0.222-7.162,0.596l3.282,3.282C25.664,21.421,26,22.171,26,23c0,1.657-1.343,3-3,3s-3-1.343-3-3c0-1.195,0.703-2.217,1.714-2.7l-2.223-2.223C7.878,20.901,3.713,28.343,3.448,28.84c-1.651,2.223,1.892,7.542,6.031,11.682c3.429,3.429,7.675,6.46,10.295,6.46c0.56,0,1.039-0.149,1.427-0.452C22.147,46.01,33,39.628,33,21L32.988,20.849z M19.976,44.964c-0.541,0.344-4.159-0.933-9.083-5.857c-4.923-4.924-6.202-8.54-5.869-9.072c0.054-0.034,0.139-0.053,0.253-0.053c1.026,0,4.399,1.479,8.83,5.91C19.03,40.816,20.309,44.433,19.976,44.964z"/><path d="M46.707,45.293L33.565,32.151c-0.208,0.747-0.433,1.467-0.674,2.154l12.402,12.402C45.488,46.902,45.744,47,46,47s0.512-0.098,0.707-0.293C47.098,46.316,47.098,45.684,46.707,45.293z"/></svg>