<?xml version="1.0" encoding="iso-8859-1"?>
<!-- Generator: Adobe Illustrator 23.0.3, SVG Export Plug-In . SVG Version: 6.00 Build 0)  -->
<svg version="1.1" xmlns="http://www.w3.org/2000/svg" xmlns:xlink="http://www.w3.org/1999/xlink" x="0px" y="0px"
	 viewBox="0 0 50 50" style="enable-background:new 0 0 50 50;" xml:space="preserve">
<g id="Layer_10" style="display:none;">
</g>
<g id="filled">
</g>
<g id="outlined">
</g>
<g id="rounded">
</g>
<g id="two_x5F_tone">
</g>
<g id="sharp">
</g>
<g id="win10">
</g>
<g id="color">
</g>
<g id="ios_x5F_out">
</g>
<g id="ios_x5F_filled">
	<path d="M40.118,7L37,13.236V48h5c0.552,0,1-0.448,1-1V12.764L40.118,7z"/>
	<path d="M35,14v34h-3.12l-3.86-2.33c-0.04-0.03-0.41-0.25-0.94-0.57c3.04-2.28,4.07-5.31,4.12-5.48l0.87-2.67L29.26,37
		c-0.06,0-0.95,0.02-2.39,0.21c1.77-3.82,2.01-6.6,2.02-6.76l0.21-2.72l-2.66,0.62c-0.27,0.07-2.19,0.58-4.78,2.9
		c-0.85-5.39-2.94-8.29-3.05-8.44L18,21.98V14H35z"/>
	<polygon points="35.382,12 37.382,8 21.333,8 18.667,12 	"/>
	<path d="M40,6V3c0-0.553-0.447-1-1-1H23c-0.553,0-1,0.447-1,1v3H40z"/>
	<path d="M17,46c-0.78,0.67-3,2-5,2s-4.04-0.31-4.99-0.62c0,0,2.65-1.6,3.99-2.38c-4.87-1.62-6.3-6-6.3-6s2.62,0.05,6.3,1
		c-3.56-5.31-3.9-9.7-3.9-9.7s3.08,0.72,6.9,5.7c-0.05-7.87,3-12,3-12s3.05,4.13,3,12c3.82-4.98,6.9-5.7,6.9-5.7S26.56,34.69,23,40
		c3.68-0.95,6.3-1,6.3-1s-1.43,4.38-6.3,6c1.34,0.78,3.99,2.38,3.99,2.38C26.04,47.69,24,48,22,48S17.78,46.67,17,46z"/>
</g>
<g id="cute-color">
</g>
<g id="cute-out">
</g>
<g id="plasticine">
</g>
<g id="carbon_copy">
</g>
</svg>