<?xml version="1.0" encoding="utf-8"?><!-- Generator: Adobe Illustrator 15.0.0, SVG Export Plug-In . SVG Version: 6.00 Build 0)  --><!DOCTYPE svg PUBLIC "-//W3C//DTD SVG 1.1//EN" "http://www.w3.org/Graphics/SVG/1.1/DTD/svg11.dtd"><svg xmlns="http://www.w3.org/2000/svg" xmlns:xlink="http://www.w3.org/1999/xlink" viewBox="0 0 50 50" width="50px" height="50px"><path d="M48,13.063C48,5.059,46.033,1,42.154,1c-3.096,0-4.184,2.579-5.442,5.564c-0.357,0.848-0.727,1.721-1.169,2.629C34.624,9.572,34,10.47,34,11.5c0,0.16,0.016,0.319,0.046,0.475c-0.589,1.041-1.197,2.06-1.814,3.04C30.979,15.149,30,16.212,30,17.5c0,0.235,0.033,0.468,0.099,0.692c-1.216,1.704-2.493,3.32-3.806,4.816c-1.273,0.105-2.278,1.167-2.293,2.463c-1.252,1.266-2.553,2.459-3.874,3.556c-0.879,0.13-1.616,0.715-1.944,1.539c-1.129,0.853-2.28,1.654-3.501,2.44c-1.087-0.087-2.069,0.557-2.479,1.513c-1.071,0.623-2.068,1.171-2.89,1.615C9.052,36.046,8.779,36,8.5,36c-1.163,0-2.143,0.799-2.421,1.876C3.17,39.489,1,40.988,1,43.523c0,1.956,1.29,3.594,3.551,4.531c0.671,0.843,1.888,1.175,2.897,0.755c2.199,0.316,4.812,0.239,7.645-0.249C15.506,48.844,15.996,49,16.5,49c0.895,0,1.713-0.49,2.153-1.244c1.747-0.49,3.49-1.109,5.195-1.845c1.184,0.325,2.465-0.321,2.942-1.41c0.984-0.513,1.952-1.063,2.888-1.641C29.941,42.952,30.218,43,30.5,43c1.347,0,2.448-1.07,2.498-2.405c0.705-0.528,1.393-1.075,2.055-1.636C35.2,38.986,35.35,39,35.5,39c1.379,0,2.5-1.121,2.5-2.5c0-0.086-0.005-0.172-0.014-0.258c0.714-0.73,1.413-1.505,2.088-2.312C41.187,33.672,42,32.685,42,31.5c0-0.027-0.001-0.054-0.002-0.081c0.807-1.146,1.537-2.326,2.181-3.517C45.227,27.604,46,26.634,46,25.5c0-0.355-0.075-0.699-0.22-1.017c0.527-1.321,0.966-2.684,1.308-4.06C47.66,19.953,48,19.251,48,18.5c0-0.415-0.107-0.824-0.309-1.189C47.899,15.852,48,14.458,48,13.063z M11.941,43.525c-0.552,0-1-0.448-1-1c0-0.553,0.448-1,1-1s1,0.447,1,1C12.941,43.077,12.493,43.525,11.941,43.525z M18.941,41.525c-0.552,0-1-0.448-1-1c0-0.553,0.448-1,1-1s1,0.447,1,1C19.941,41.077,19.493,41.525,18.941,41.525z M26.941,36.525c-0.553,0-1-0.448-1-1c0-0.553,0.447-1,1-1c0.552,0,1,0.447,1,1C27.941,36.077,27.493,36.525,26.941,36.525z M31.941,34.525c-0.553,0-1-0.448-1-1c0-0.553,0.447-1,1-1c0.552,0,1,0.447,1,1C32.941,34.077,32.493,34.525,31.941,34.525z M33.941,23.525c-0.553,0-1-0.448-1-1s0.447-1,1-1c0.552,0,1,0.448,1,1S34.493,23.525,33.941,23.525z M37.941,27.525c-0.553,0-1-0.448-1-1c0-0.553,0.447-1,1-1c0.552,0,1,0.447,1,1C38.941,27.077,38.493,27.525,37.941,27.525z M39.941,19.525c-0.553,0-1-0.448-1-1s0.447-1,1-1c0.552,0,1,0.448,1,1S40.493,19.525,39.941,19.525z"/></svg>