<?xml version="1.0" encoding="utf-8"?><!-- Generator: Adobe Illustrator 15.0.0, SVG Export Plug-In . SVG Version: 6.00 Build 0)  --><!DOCTYPE svg PUBLIC "-//W3C//DTD SVG 1.1//EN" "http://www.w3.org/Graphics/SVG/1.1/DTD/svg11.dtd"><svg xmlns="http://www.w3.org/2000/svg" xmlns:xlink="http://www.w3.org/1999/xlink" viewBox="0 0 50 50" width="50px" height="50px"><g><path d="M36.71,22.555C34.719,19.688,33,17.212,33,14v-2H17v2c0,3.277-1.755,5.78-3.788,8.678C10.769,26.163,8,30.112,8,36.2c0,5.888,4.958,10.867,9.598,13.564C17.75,49.854,17.923,49.9,18.1,49.9h13.7c0.173,0,0.344-0.045,0.494-0.131C36.938,47.132,41.9,42.181,41.9,36.2C41.9,30.031,39.143,26.06,36.71,22.555z M30.3,39.4C29.9,40,29.5,40.4,28.9,40.8C28.3,41.2,27.7,41.4,27,41.6c-0.7,0.2-1.4,0.2-2.1,0.2c-0.8,0-1.6-0.1-2.4-0.3c-0.7-0.2-1.4-0.5-2-1c-0.6-0.4-1-1-1.3-1.6c-0.3-0.7-0.5-1.4-0.5-2.4h1.9c0,0.6,0.1,1.2,0.4,1.6c0.2,0.5,0.6,0.801,1,1.101s0.9,0.5,1.4,0.6C23.9,39.9,24.5,40,25,40c0.4,0,0.9,0,1.3-0.1c0.5-0.101,0.9-0.2,1.2-0.4c0.4-0.2,0.7-0.5,0.9-0.8c0.199-0.3,0.3-0.8,0.3-1.3S28.6,36.5,28.3,36.1c-0.3-0.3-0.6-0.6-1.1-0.8s-1-0.399-1.5-0.5c-0.6-0.1-1.2-0.3-1.7-0.399c-0.6-0.101-1.2-0.301-1.7-0.5c-0.6-0.2-1.1-0.4-1.5-0.7c-0.5-0.3-0.8-0.7-1.1-1.101c-0.3-0.5-0.4-1-0.4-1.699c0-0.801,0.2-1.4,0.5-2c0.3-0.601,0.7-1,1.2-1.4s1.1-0.6,1.7-0.8c0.6-0.2,1.3-0.3,2-0.3c0.8,0,1.5,0.1,2.1,0.3c0.7,0.2,1.2,0.5,1.7,0.899c0.5,0.4,0.9,0.9,1.2,1.5C30,29.2,30.1,29.9,30.2,30.7h-1.9c0.101-0.9-0.3-1.601-1-2.101S25.8,27.9,24.8,27.9c-0.4,0-0.8,0-1.2,0.1s-0.8,0.2-1.1,0.4c-0.3,0.199-0.6,0.5-0.8,0.8c-0.2,0.3-0.3,0.7-0.3,1.2s0.1,0.8,0.4,1.1c0.3,0.3,0.6,0.5,1.1,0.7s1,0.3,1.5,0.5c0.6,0.1,1.2,0.2,1.7,0.399c0.601,0.101,1.2,0.301,1.7,0.5C28.4,33.8,28.9,34,29.3,34.4c0.5,0.3,0.8,0.699,1.101,1.199C30.7,36.1,30.8,36.7,30.8,37.4C30.8,38.2,30.6,38.9,30.3,39.4z"/><path d="M33,10V7V4c0-1.952-2.226-3.211-5-3.729V3c0,0.552-0.447,1-1,1s-1-0.448-1-1V0.033C25.667,0.013,25.334,0,25,0s-0.667,0.013-1,0.033V3c0,0.552-0.448,1-1,1s-1-0.448-1-1V0.271C19.225,0.789,17,2.048,17,4v6H33z"/></g></svg>