<?xml version="1.0" encoding="iso-8859-1"?><!-- Generator: Adobe Illustrator 19.1.0, SVG Export Plug-In . SVG Version: 6.00 Build 0)  --><svg xmlns="http://www.w3.org/2000/svg" xmlns:xlink="http://www.w3.org/1999/xlink" viewBox="0 0 50 50" width="50px" height="50px"><path d="M12,25c0,1.991,1.897,3.584,4.06,2.8l0.396-0.144l0.38,0.184c0.564,0.274,1.332,0.434,1.793-0.348L18.919,27h0.571c0.371,0,0.831-0.289,1.129-0.703c0.148-0.206,0.47-0.751,0.263-1.369l-0.248-0.741l0.659-0.42c0.357-0.228,0.607-0.596,0.684-1.009l0.21-1.132l1.092,0.366c0.256,0.086,0.458,0.093,0.645,0.052c-0.607-0.741-0.903-1.71-0.923-2.463C21.198,18.797,20,17.02,20,15c0-0.513,0.098-1.168,0.343-1.833c-0.542-0.173-1.178-0.191-1.839,0.197c-0.867,0.5-1.413,1.782-1.488,2.736l-0.067,0.851l-0.852,0.067c-0.982,0.077-1.861,0.631-2.352,1.482c-0.495,0.849-0.536,1.887-0.112,2.783l0.363,0.767L13.3,22.532C12.486,23.096,12,24.018,12,25z M38,25c0-0.982-0.486-1.904-1.3-2.468l-0.697-0.483l0.505-1.06c0.531-1.089,0.754-1.653,0.017-2.557c-0.679-0.833-1.61-1.335-2.622-1.415l-0.852-0.067l-0.067-0.851c-0.071-0.897-0.565-2.104-1.482-2.632c-0.266-0.157-1.608-0.864-2.432,0.16l-0.839,1.044l-0.763-1.102C26.942,12.81,26.019,12,25,12c-2.854,0.072-3,2.512-3,3c0,1.393,0.951,2.593,2.312,2.917l0.994,0.237l-0.259,0.989C25.017,19.262,25,19.385,25,19.5c0,0.422,0.244,1.179,0.703,1.503c0.159,0.114,0.434,0.242,0.964,0.054l1.678-0.593l-0.366,1.742c-0.37,1.761,0.725,3.046,3.253,3.819l1.772,0.542l-1.365,1.203c-0.223,0.185-0.361,0.361-0.57,0.727c-0.04,0.068-0.061,0.144-0.095,0.215c0.837,0.11,1.485,0.419,1.95,0.759c1.22,0.892,1.76,2.262,1.958,3.242c0.566-0.253,1.055-0.661,1.373-1.212c0.164-0.315,0.641-1.859,0.149-2.712l-0.458-0.795l0.753-0.524C37.384,26.992,38,25.501,38,25z M24.192,27.276c0.827-0.345,1.694-0.351,2.52-0.006c0.772,0.323,1.446,0.949,1.854,1.668c0.08-0.023,0.152-0.034,0.231-0.055c0.11-0.487,0.288-0.959,0.541-1.389c0.008-0.014,0.016-0.028,0.023-0.042c-2.151-0.977-3.345-2.477-3.449-4.31c-0.017-0.002-0.032-0.006-0.049-0.008c-0.644,0.676-1.395,0.993-2.248,0.949c-0.176,0.341-0.406,0.653-0.683,0.922c0.044,0.425,0.005,0.855-0.113,1.274C23.349,26.499,23.826,26.832,24.192,27.276z M22.562,36.747c0.614,1.002,2.162,1.246,2.441,1.252c0.762,0,1.413-0.469,2.174-1.569l0.348-0.502l0.604,0.079c1.617,0.214,2.942-0.055,3.829-0.774c0.75-0.607,0.997-1.363,1.024-1.713c0.012-0.326-0.282-1.774-1.289-2.47c-0.758-0.523-1.819-0.521-3.157,0.01l-1.334,1.274l-0.228-2.004c-0.038-0.343-0.45-0.971-1.035-1.216c-0.479-0.198-0.964-0.098-1.481,0.31l-1.082,0.853l-0.476-1.293c-0.188-0.512-0.643-0.861-1.166-0.948c-0.492,0.462-1.08,0.783-1.682,0.906c-0.649,0.812-1.498,1.116-2.335,1.116c-0.472,0-0.938-0.097-1.364-0.253c-1.045,0.296-2.068,0.238-2.978-0.079c-0.058,0.609,0.052,1.227,0.368,1.769c0.377,0.723,0.994,1.484,2.052,1.484h0.908l0.087,0.904c0.154,1.597,1.167,2.342,1.595,2.588c0.885,0.517,2.076,0.284,2.897-0.105l0.812-0.384L22.562,36.747z M47.925,21.696c-0.185-1.084-0.781-2.44-2.385-3.56c-0.742,2.13-2.504,4.174-5.734,5.567C39.92,24.123,40,24.554,40,25c0,0.158-0.025,0.345-0.061,0.542c4.149,1.268,6.041,4.712,6.041,7.958c0,0.998-0.173,1.965-0.497,2.87c0.539-0.39,1.04-0.898,1.46-1.524c1.395-2.08,1.633-5.166-0.706-7.724C47.398,25.774,48.266,23.688,47.925,21.696z M39.241,27.436c-0.221,0.404-0.48,0.794-0.782,1.125c0.486,1.704-0.282,3.618-0.479,3.949c-0.712,1.237-1.928,2.101-3.322,2.383c-0.274,0.64-0.732,1.322-1.441,1.896c-0.854,0.691-2.347,1.441-4.75,1.265C27.731,38.995,26.632,40,25,40c-0.368,0-1.146-0.111-1.966-0.449c0.165,3.03,1.233,4.412,2.793,5.475c0.228,0.156,0.546,0.33,0.93,0.487c0.002-0.002,0.004-0.005,0.005-0.007c0.479,0.198,1.064,0.369,1.709,0.446c0.017,0.002,0.033,0.005,0.05,0.007c0.214,0.024,0.434,0.038,0.659,0.038c1.349-0.004,2.87-0.477,4.225-1.954c0,0,0.009-0.005,0.01-0.005c0.338,0.026,0.685,0.044,1.047,0.044c1.72,0,3.626-0.344,4.95-1.572c0.93-0.862,1.413-2.04,1.494-3.475c0.001-0.008,0.177-0.148,0.263-0.207c0.211-0.145,0.829-0.667,0.935-0.773c0.231-0.234,0.447-0.48,0.639-0.743c0.791-1.085,1.237-2.408,1.237-3.812C43.98,31.189,42.686,28.44,39.241,27.436z M16.091,37.135c-0.471-0.536-0.923-1.27-1.157-2.248c-1.218-0.267-2.255-1.104-2.92-2.387c-0.692-1.186-0.847-2.594-0.464-3.895C10.599,27.693,10,26.412,10,25c0-1.371,0.565-2.67,1.543-3.607c-0.38-1.304-0.218-2.713,0.474-3.897c0.681-1.182,1.815-2.023,3.126-2.344c0.023-0.105,0.055-0.211,0.084-0.316c-0.129-0.219-0.42-0.766-0.42-0.766l-0.098-0.253c-0.275-0.683-0.786-1.95-0.698-3.916c0.005-0.961,0.176-1.903,0.482-2.798c-1.23-0.123-2.593,0.012-3.778,0.779c-1.741,1.127-2.645,3.308-2.689,6.49C4.488,15.443,2,18.738,2,22.5c0,2.38,1.435,4.375,2.634,5.626C4.116,29.036,4.019,30.172,4,30.5c0,3.054,1.821,5.776,4.632,6.932c0.195,0.082,0.676,0.229,1.328,0.355c0.654,0.127,1.481,0.234,2.365,0.234C13.575,38.02,14.939,37.806,16.091,37.135z M17.501,11.634c1.206-0.706,2.59-0.758,3.906-0.191c0.769-0.802,1.909-1.4,3.568-1.442h0.001c1.231,0,2.456,0.576,3.437,1.579c1.155-0.702,2.679-0.669,4.093,0.158c1.346,0.775,2.068,2.184,2.348,3.406c1.248,0.28,2.372,0.982,3.223,2.025c1.387,1.701,0.928,3.191,0.433,4.274c0.148,0.146,0.267,0.313,0.395,0.474c3.119-1.306,4.374-3.149,4.829-4.745c-0.003-0.001-0.005-0.003-0.008-0.004c0.358-1.262,0.222-2.368,0.102-2.921c-0.573-2.634-2.708-4.816-4.882-5.201C38.471,5.084,35.091,2.002,31.004,2c-1.81,0.001-3.667,0.655-5.105,1.776c-0.002-0.001-0.004-0.002-0.005-0.003c-0.001,0.001-0.002,0.002-0.004,0.003C25.106,3.352,24.167,3.001,23.004,3c-1.991,0.001-3.888,0.853-5.196,2.328c-1.16,1.281-1.799,2.94-1.798,4.622c-0.06,1.205,0.154,2.038,0.371,2.643C16.699,12.216,17.069,11.883,17.501,11.634z M21,38.907l-0.003-0.343c-1.134,0.292-2.25,0.229-3.195-0.179l0.006,0.008c-1.429,1.079-3.274,1.627-5.484,1.627c-0.831,0-1.629-0.084-2.332-0.2c0.201,1.291,0.744,2.629,1.718,3.64c0.909,0.944,2.522,1.943,5.185,1.623c0.896,1.697,2.774,2.833,4.927,2.906c0.075,0.003,0.148,0.004,0.223,0.004c1.212,0,2.318-0.349,3.231-0.974c-0.21-0.112-0.408-0.227-0.575-0.341C22.14,44.934,21.034,42.61,21,38.907z"/></svg>