<?xml version="1.0" encoding="utf-8"?><!-- Generator: Adobe Illustrator 15.0.0, SVG Export Plug-In . SVG Version: 6.00 Build 0)  --><!DOCTYPE svg PUBLIC "-//W3C//DTD SVG 1.1//EN" "http://www.w3.org/Graphics/SVG/1.1/DTD/svg11.dtd"><svg xmlns="http://www.w3.org/2000/svg" xmlns:xlink="http://www.w3.org/1999/xlink" viewBox="0 0 50 50" width="50px" height="50px"><path d="M46.085,20.591c-0.095-0.221-0.244-0.686-0.379-1.104C44.316,15.162,40.087,2,20.356,2c-0.041,0-0.075,0.019-0.114,0.023C19.996,2.011,19.749,2,19.5,2C9.299,2,1,12.093,1,24.5C1,36.906,9.299,47,19.5,47c0.185,0,0.367-0.011,0.551-0.017C20.08,46.985,20.105,47,20.135,47c22.671,0,25.193-13.066,26.022-17.36c0.069-0.362,0.154-0.799,0.216-1.011C47.063,28.08,49,26.383,49,24.59C49,23.152,47.967,21.738,46.085,20.591z M3,24.5C3,13.196,10.402,4,19.5,4C28.598,4,36,13.196,36,24.5S28.598,45,19.5,45C10.402,45,3,35.804,3,24.5z"/><g><path d="M19.441,20.931l4.715-10.521c-3.22-1.613-6.745-1.434-9.772,0.246L19.441,20.931z"/><path d="M21.987,22.65l9.764-0.24c-0.46-4.031-2.216-7.788-5.051-10.269L21.987,22.65z"/><path d="M27.104,36.504c1.293-1.234,2.401-2.792,3.24-4.658c0.838-1.879,1.322-3.865,1.477-5.867l-9.78,0.242L27.104,36.504z"/><path d="M19.559,28.068l-4.717,10.514c3.222,1.621,6.745,1.426,9.766-0.239L19.559,28.068z"/><path d="M11.897,12.492c-1.295,1.226-2.408,2.789-3.245,4.667c-0.841,1.873-1.32,3.858-1.479,5.862l9.779-0.246L11.897,12.492z"/><path d="M17.01,26.344L7.245,26.59c0.459,4.028,2.218,7.788,5.049,10.271L17.01,26.344z"/></g></svg>