<?xml version="1.0" encoding="iso-8859-1"?>
<!-- Generator: Adobe Illustrator 18.0.0, SVG Export Plug-In . SVG Version: 6.00 Build 0)  -->
<!DOCTYPE svg PUBLIC "-//W3C//DTD SVG 1.1//EN" "http://www.w3.org/Graphics/SVG/1.1/DTD/svg11.dtd">
<svg version="1.1" id="Layer_1" xmlns="http://www.w3.org/2000/svg" xmlns:xlink="http://www.w3.org/1999/xlink" x="0px" y="0px"
	 width="50px" height="50px" viewBox="0 0 50 50" style="enable-background:new 0 0 50 50;" xml:space="preserve">
<path d="M6.608,29l1.764,11.601C8.67,42.556,10.35,44,12.327,44H18v-9c0-0.552,0.447-1,1-1s1,0.448,1,1v9h4v-9c0-0.552,0.447-1,1-1
	s1,0.448,1,1v9h4v-9c0-0.552,0.447-1,1-1s1,0.448,1,1v9h5.673c1.977,0,3.657-1.444,3.955-3.399L43.392,29H6.608z"/>
<path d="M45,27H5c-1.105,0-2-0.895-2-2v0c0-1.105,0.895-2,2-2h40c1.105,0,2,0.895,2,2v0C47,26.105,46.105,27,45,27z"/>
<path d="M41.627,9.399C41.33,7.444,39.65,6,37.673,6H32v9c0,0.552-0.447,1-1,1s-1-0.448-1-1V6h-4v9c0,0.552-0.447,1-1,1
	s-1-0.448-1-1V6h-4v9c0,0.552-0.447,1-1,1s-1-0.448-1-1V6h-5.673C10.35,6,8.67,7.444,8.373,9.399L6.608,21h36.783L41.627,9.399z"/>
</svg>