<?xml version="1.0" encoding="iso-8859-1"?><!-- Generator: Adobe Illustrator 21.1.0, SVG Export Plug-In . SVG Version: 6.00 Build 0)  --><svg xmlns="http://www.w3.org/2000/svg" xmlns:xlink="http://www.w3.org/1999/xlink" viewBox="0 0 50 50" width="500px" height="500px"><rect x="9" y="3" width="9" height="7"/><rect x="9" y="12" width="9" height="7"/><rect x="9" y="21" width="9" height="7"/><rect x="20" y="21" width="10" height="7"/><rect x="32" y="21" width="9" height="7"/><rect x="20" y="12" width="10" height="7"/><rect x="32" y="12" width="9" height="7"/><rect x="20" y="3" width="10" height="7"/><rect x="32" y="3" width="9" height="7"/><path d="M35.01,41.09L41,38.43V44c0,2.21-1.79,4-4,4H13c-2.21,0-4-1.79-4-4V30.09L35.01,41.09z"/><polygon points="13.93,30 41.47,30 42.83,35.43 34.99,38.91 "/></svg>