<?xml version="1.0" encoding="iso-8859-1"?>
<!-- Generator: Adobe Illustrator 25.2.3, SVG Export Plug-In . SVG Version: 6.00 Build 0)  -->
<svg version="1.1" baseProfile="basic" id="fluent" xmlns="http://www.w3.org/2000/svg" xmlns:xlink="http://www.w3.org/1999/xlink"
	 x="0px" y="0px" viewBox="0 0 50 50" xml:space="preserve">
<path d="M35.679,28.35c0,0,1.88-8.43,2.48-16.5c0.04-0.47-0.26-0.9-0.71-1.03l-1.71-0.51c-0.59-0.18-1.2,0.21-1.28,0.81
	c-0.41,3.05-1.83,11.37-5.4,15.55c0.27,1.07,0.54,2.18,0.79,3.32c0.12,0.53-0.22,1.07-0.76,1.19c-0.54,0.12-1.07-0.22-1.19-0.76
	c-0.1-0.45-0.2-0.89-0.3-1.33l0.002,0.064c-2.739-11.646-6.436-19.449-7.51-21.57c-0.191-0.377-0.6-0.592-1.02-0.543
	c-0.803,0.094-1.414,0.335-1.833,0.561c-0.419,0.226-0.616,0.71-0.477,1.165c0.906,2.972,4.302,14.645,2.28,16.193
	c-2.394,1.834-7.509-9.587-8.942-12.938c-0.221-0.517-0.832-0.759-1.336-0.511c-0.842,0.413-1.443,0.898-1.816,1.255
	c-0.297,0.284-0.383,0.713-0.226,1.093c1.212,2.929,6.572,16.05,6.572,19.075c0,1.77-0.671,3.649-0.671,5.805
	C12.621,48.459,19.439,50,23.477,50c1.801,0,3.413-0.391,4.632-1.306l0,0.006c0.03-0.022,0.058-0.048,0.088-0.071
	c0.083-0.065,0.166-0.129,0.245-0.199c0.154-0.135,0.302-0.277,0.437-0.43c0.37-0.41,1-0.45,1.41-0.09c0.41,0.37,0.45,1,0.09,1.41
	c-0.11,0.13-0.22,0.25-0.34,0.36c3.2,0.86,9.25,0.78,9.25-10.52C39.289,33.75,35.679,28.35,35.679,28.35z"/>
<path style="fill:none;stroke:#000000;stroke-width:2;stroke-linecap:round;stroke-linejoin:round;stroke-miterlimit:10;" d="
	M33.947,0.682c1.54,4.593,1.483,9.111,1.48,9.301c-0.008,0.515-0.019,1.03-0.032,1.543"/>
<path style="fill:none;stroke:#000000;stroke-width:2;stroke-linecap:round;stroke-linejoin:round;stroke-miterlimit:10;" d="
	M35.106,4.99c0,0,1.448-0.894,2.893-2.546"/>
<path style="fill:none;stroke:#000000;stroke-width:2;stroke-linecap:round;stroke-linejoin:round;stroke-miterlimit:10;" d="
	M36.792,16.892c0.318-0.118,0.637-0.236,0.957-0.352c0,0,2.582-0.939,4.25-2.54"/>
<line style="fill:none;stroke:#000000;stroke-width:2;stroke-linecap:round;stroke-linejoin:round;stroke-miterlimit:10;" x1="35.106" y1="7.261" x2="31.999" y2="6"/>
<path style="fill:none;stroke:#000000;stroke-width:2;stroke-linecap:round;stroke-linejoin:round;stroke-miterlimit:10;" d="
	M40.722,15.27c0,0,0.277,0.73,2.277,1.73"/>
<path style="fill:none;stroke:#000000;stroke-width:2;stroke-linecap:round;stroke-linejoin:round;stroke-miterlimit:10;" d="
	M23.32,17.193c0.249-0.218,0.498-0.436,0.749-0.653c0,0,2.931-2.54,4.931-6.54"/>
<path style="fill:none;stroke:#000000;stroke-width:2;stroke-linecap:round;stroke-linejoin:round;stroke-miterlimit:10;" d="
	M9.309,12.686c-0.074-0.145-1.87-4.804-2.307-9.596"/>
<path style="fill:none;stroke:#000000;stroke-width:2;stroke-linecap:round;stroke-linejoin:round;stroke-miterlimit:10;" d="
	M25.999,9c0,0.993,0.985,3.848,0.985,3.848"/>
<line style="fill:none;stroke:#000000;stroke-width:2;stroke-linecap:round;stroke-linejoin:round;stroke-miterlimit:10;" x1="7.709" y1="7" x2="9.916" y2="4.99"/>
</svg>