<?xml version="1.0" encoding="iso-8859-1"?>
<!-- Generator: Adobe Illustrator 23.0.3, SVG Export Plug-In . SVG Version: 6.00 Build 0)  -->
<svg version="1.1" id="Layer_1" xmlns="http://www.w3.org/2000/svg" xmlns:xlink="http://www.w3.org/1999/xlink" x="0px" y="0px"
	 viewBox="0 0 50 50" style="enable-background:new 0 0 50 50;" xml:space="preserve">
<g>
	<path d="M38.838,15.161c-0.357-0.5-0.742-0.977-1.149-1.435L27.414,24h4.77C32.072,23.686,32,23.352,32,23c0-1.654,1.346-3,3-3
		s3,1.346,3,3c0,0.352-0.072,0.686-0.184,1h4.134c-0.131-2.231-0.69-4.343-1.602-6.263C40.106,17.902,39.815,18,39.5,18
		c-0.828,0-1.5-0.672-1.5-1.5C38,15.911,38.343,15.406,38.838,15.161z"/>
	<path d="M36.275,37.689L26,27.414v4.678C26.157,32.036,26.324,32,26.5,32c0.828,0,1.5,0.672,1.5,1.5S27.328,35,26.5,35
		c-0.176,0-0.343-0.036-0.5-0.092v7.041c1.121-0.066,2.211-0.239,3.263-0.512C28.502,40.893,28,40.006,28,39c0-1.654,1.346-3,3-3
		s3,1.346,3,3c0,0.144-0.023,0.283-0.043,0.422C34.78,38.909,35.554,38.33,36.275,37.689z"/>
	<circle cx="31" cy="39" r="1"/>
	<path d="M43.949,26c-0.235,4.484-2.024,8.553-4.847,11.688l2.844,2.844c3.546-3.866,5.788-8.943,6.029-14.532H43.949z"/>
	<path d="M24,41.949V27.414l-3.201,3.201C21.524,31.163,22,32.023,22,33c0,1.654-1.346,3-3,3c-0.977,0-1.837-0.476-2.385-1.201
		l-2.889,2.889c1.553,1.382,3.357,2.479,5.338,3.221C19.026,40.778,19,40.643,19,40.5c0-0.828,0.672-1.5,1.5-1.5s1.5,0.672,1.5,1.5
		c0,0.452-0.205,0.853-0.521,1.128C22.298,41.802,23.142,41.899,24,41.949z"/>
	<path d="M24,43.949c-4.484-0.235-8.553-2.024-11.688-4.847l-2.85,2.85c3.966,3.628,9.168,5.783,14.538,6.022V43.949z"/>
	<path d="M20,33c0-0.429-0.275-0.789-0.656-0.93l-1.275,1.275C18.211,33.725,18.571,34,19,34C19.551,34,20,33.551,20,33z"/>
	<path d="M26,14v2c0.551,0,1-0.449,1-1S26.551,14,26,14z"/>
	<path d="M37.688,39.102c-3.135,2.824-7.204,4.612-11.688,4.847v4.025c5.589-0.24,10.666-2.483,14.532-6.029L37.688,39.102z"/>
	<path d="M26,2.025v4.025c4.484,0.235,8.553,2.024,11.688,4.847l2.844-2.844C36.666,4.508,31.589,2.266,26,2.025z"/>
	<path d="M26,22.586l10.275-10.275c-0.711-0.633-1.474-1.205-2.284-1.713C33.939,11.38,33.295,12,32.5,12
		c-0.828,0-1.5-0.672-1.5-1.5c0-0.479,0.228-0.9,0.577-1.174C29.846,8.596,27.965,8.166,26,8.051V12c1.654,0,3,1.346,3,3
		s-1.346,3-3,3V22.586z"/>
	<path d="M39.102,12.312c2.824,3.135,4.612,7.204,4.847,11.688h4.025c-0.24-5.589-2.483-10.666-6.029-14.532L39.102,12.312z"/>
	<circle cx="34" cy="31" r="1"/>
	<circle cx="35" cy="23" r="1"/>
	<path d="M41.949,26h-2.041C39.964,26.157,40,26.324,40,26.5c0,0.828-0.672,1.5-1.5,1.5S37,27.328,37,26.5
		c0-0.176,0.036-0.343,0.092-0.5h-9.678l3.826,3.826C31.698,28.754,32.762,28,34,28c1.654,0,3,1.346,3,3
		c0,1.238-0.754,2.302-1.826,2.76l2.515,2.515C40.153,33.505,41.719,29.933,41.949,26z"/>
</g>
</svg>