<?xml version="1.0" encoding="iso-8859-1"?>
<!-- Generator: Adobe Illustrator 25.2.3, SVG Export Plug-In . SVG Version: 6.00 Build 0)  -->
<svg version="1.1" baseProfile="basic" xmlns="http://www.w3.org/2000/svg" xmlns:xlink="http://www.w3.org/1999/xlink" x="0px"
	 y="0px" viewBox="0 0 50 50" xml:space="preserve">
<polyline style="fill:none;stroke:#000000;stroke-width:2;stroke-linejoin:round;stroke-miterlimit:10;" points="19.299,12.817 
	19.011,6.581 29.73,6.085 30.018,12.322 "/>
<path d="M47,29.636V27H3v2.636C3,38.639,12.913,46,19.516,46h10.968C37.087,46,47,38.639,47,29.636z"/>
<path style="fill:none;stroke:#000000;stroke-width:2;stroke-linecap:round;stroke-linejoin:round;stroke-miterlimit:10;" d="
	M47,29.636V27H3v2.636C3,38.639,12.913,46,19.516,46h10.968C37.087,46,47,38.639,47,29.636z"/>
<path d="M42.89,19.59c-1.4-2.35-3.16-3.45-6.97-4.36c-1.26-0.3-2.18-1.07-3.25-1.96c-1.74-1.46-3.91-3.27-8.2-3.27
	c-2.64,0-4.23,0.95-6.23,2.16c-0.72,0.43-1.47,0.88-2.36,1.34c-0.76,0.4-1.41,0.51-2.1,0.64c-0.52,0.09-1.07,0.19-1.66,0.41
	c-4.01,1.49-6.2,7.36-6.87,9.45h39.49C44.41,22.96,43.74,21.03,42.89,19.59z M29.91,18.04c-1.63,2.04-4.04,0.05-6.28-1.13
	c-2.23-1.18-4.72,1.95-6.8,1.09c-0.79-0.33-1.53-1.26-1.81-2.08c0.54-0.12,1.12-0.3,1.78-0.64c0.95-0.5,1.75-0.98,2.47-1.41
	c1.87-1.13,3.11-1.87,5.2-1.87c3.57,0,5.27,1.42,6.92,2.8c1.04,0.87,2.13,1.74,3.58,2.21C32.33,16.49,30.76,16.98,29.91,18.04z"/>
</svg>