<?xml version="1.0" encoding="iso-8859-1"?><!-- Generator: Adobe Illustrator 21.0.0, SVG Export Plug-In . SVG Version: 6.00 Build 0)  --><svg xmlns="http://www.w3.org/2000/svg" xmlns:xlink="http://www.w3.org/1999/xlink" viewBox="0 0 50 50" width="50px" height="50px"><path d="M47,30H3c-0.552,0-1-0.448-1-1v-4c0-0.552,0.448-1,1-1h44c0.552,0,1,0.448,1,1v4C48,29.552,47.552,30,47,30z"/><path d="M14.847,42l-0.857-6l-0.571-4H6.897h-2.08l3.221,11.275C8.161,43.704,8.553,44,9,44h1.326h4.807L14.847,42z"/><polygon points="15.439,32 16.01,36 16.867,42 17.153,44 24,44 24,42 24,32 "/><polygon points="26,32 26,42 26,44 32.847,44 33.133,42 33.99,36 34.561,32 "/><path d="M43.103,32h-6.521l-0.571,4l-0.857,6l-0.286,2h1.031H41c0.446,0,0.839-0.296,0.962-0.725L45.183,32H43.103z"/><path d="M22.524,22c0.901-2.097,2.848-2.656,4.882-3.231c0.722-0.204,1.468-0.415,2.242-0.706c1.643-0.615,2.625-1.508,3.006-2.729c0.843-2.707-1.453-6.312-2.178-7.353c-0.079-0.113-0.291-0.45-0.524-0.823c-0.585,3.292-1.501,5.346-2.803,6.248c-1.438,0.998-3.425,0.611-5.721,0.16C20.006,13.288,18.534,13,17,13c-5.472,0-10.215,3.893-11.588,9H22.524z"/><path d="M44.835,22C43.488,9.695,33.974,6.674,31.663,6.12c0.219,0.351,0.4,0.639,0.456,0.718c1.097,1.576,3.528,5.616,2.445,9.091c-0.568,1.824-1.985,3.171-4.212,4.007c-0.854,0.319-1.676,0.552-2.401,0.757c-1.401,0.396-2.405,0.684-3.052,1.306H44.835z"/></svg>