<?xml version="1.0" encoding="utf-8"?><!-- Generator: Adobe Illustrator 15.0.0, SVG Export Plug-In . SVG Version: 6.00 Build 0)  --><!DOCTYPE svg PUBLIC "-//W3C//DTD SVG 1.1//EN" "http://www.w3.org/Graphics/SVG/1.1/DTD/svg11.dtd"><svg xmlns="http://www.w3.org/2000/svg" xmlns:xlink="http://www.w3.org/1999/xlink" viewBox="0 0 50 50" width="50px" height="50px"><path d="M46.848,12.494C38.028,6.793,21.111,2.207,19.647,2.021c-1.355-0.178-2.069,0.345-2.401,0.774c-0.31,0.401-0.614,1.13-0.303,2.331c0.566,2.181,1.343,5.084,2.191,7.784c3.947-0.619,7.209-0.818,8.886-0.818h0.007h0.007c1.396,0.01,2.646,0.562,3.518,1.555c0.699,0.797,1.104,1.821,1.188,2.961c0.061-0.051,0.13-0.091,0.21-0.115c0.312-0.094,0.642,0.081,0.735,0.393c0.096,0.312-0.082,0.642-0.394,0.737c-0.202,0.061-0.405,0-0.553-0.129c-0.009,0.127-0.015,0.254-0.03,0.383c-0.095,0.762-0.734,3.442-1.722,7.076c0.071-0.082,0.156-0.152,0.268-0.186c0.312-0.094,0.642,0.082,0.736,0.394s-0.081,0.643-0.394,0.736c-0.313,0.096-0.643-0.082-0.736-0.394c-0.007-0.022-0.002-0.044-0.007-0.067c-0.755,2.757-1.695,6.011-2.747,9.382c0.507,0.29,0.986,0.361,1.313,0.361c0.542,0,1.066-0.171,1.519-0.494c0.107-0.077,10.857-7.982,16.719-18.957C48.321,14.487,48.011,13.247,46.848,12.494z M23.471,9.479c-0.312,0.094-0.642-0.082-0.736-0.395c-0.095-0.312,0.082-0.641,0.394-0.736c0.312-0.095,0.642,0.081,0.736,0.394C23.959,9.055,23.783,9.384,23.471,9.479z M32.297,12.692c-0.438,0.133-0.898-0.114-1.031-0.551c-0.132-0.437,0.115-0.899,0.553-1.031c0.437-0.132,0.898,0.115,1.031,0.551C32.98,12.098,32.734,12.559,32.297,12.692z M38.328,21.289c-0.691,0.21-1.424-0.181-1.633-0.874c-0.211-0.692,0.181-1.424,0.873-1.634c0.693-0.209,1.425,0.182,1.634,0.874C39.412,20.349,39.02,21.08,38.328,21.289z M39.854,15.466c-0.25,0.076-0.516-0.066-0.592-0.316c-0.076-0.251,0.066-0.516,0.317-0.592c0.251-0.076,0.517,0.066,0.592,0.317C40.247,15.125,40.105,15.39,39.854,15.466z"/><path d="M30.049,14.967c-0.483-0.55-1.188-0.869-2.028-0.875c-3.684,0-15.279,0.987-24.579,5.495c-1.269,0.614-1.748,1.8-1.249,3.095c3.774,9.79,14.76,23.458,15.835,24.472c0.606,0.572,1.231,0.862,1.857,0.862c0,0,0,0,0,0c0.543,0,1.546-0.231,2.156-1.783c4.212-10.711,8.441-26.665,8.683-28.603C30.895,16.259,30.451,15.425,30.049,14.967z M9.999,25.035c-0.108,0.307-0.444,0.47-0.752,0.363s-0.471-0.444-0.364-0.752c0.107-0.308,0.444-0.47,0.752-0.363C9.943,24.39,10.106,24.727,9.999,25.035z M13.045,21.546c0.15-0.431,0.621-0.659,1.053-0.509c0.431,0.15,0.659,0.621,0.509,1.052c-0.15,0.431-0.621,0.659-1.052,0.509C13.123,22.449,12.895,21.978,13.045,21.546z M15.449,32.343c-0.218,0.628-0.903,0.958-1.529,0.74c-0.627-0.218-0.958-0.903-0.74-1.528c0.218-0.628,0.903-0.959,1.529-0.74C15.335,31.032,15.667,31.716,15.449,32.343z M16.677,28.273c-0.133,0.381-0.549,0.582-0.93,0.451c-0.381-0.133-0.583-0.55-0.45-0.931c0.132-0.381,0.549-0.582,0.93-0.45C16.609,27.477,16.81,27.893,16.677,28.273z M19.849,39.109c-0.086,0.248-0.357,0.38-0.606,0.293c-0.248-0.086-0.38-0.357-0.293-0.605c0.086-0.248,0.358-0.38,0.606-0.294S19.936,38.861,19.849,39.109z M21.659,21.177c0.107-0.308,0.444-0.471,0.752-0.364c0.308,0.107,0.471,0.444,0.364,0.752s-0.444,0.471-0.752,0.364C21.715,21.822,21.552,21.485,21.659,21.177z M21.081,32.814c-0.107,0.309-0.444,0.472-0.752,0.365c-0.308-0.107-0.471-0.445-0.364-0.753s0.444-0.471,0.752-0.364C21.025,32.17,21.188,32.507,21.081,32.814z M22.954,27.529c-0.198,0.568-0.818,0.869-1.386,0.672c-0.568-0.198-0.868-0.818-0.67-1.387c0.198-0.567,0.818-0.867,1.386-0.67C22.852,26.343,23.152,26.962,22.954,27.529z"/></svg>