<?xml version="1.0" encoding="utf-8"?><!-- Generator: Adobe Illustrator 18.1.1, SVG Export Plug-In . SVG Version: 6.00 Build 0)  --><svg xmlns="http://www.w3.org/2000/svg" xmlns:xlink="http://www.w3.org/1999/xlink" viewBox="0 0 50 50" width="50px" height="50px"><path fill="none" stroke="#000000" stroke-width="2" stroke-linecap="round" stroke-linejoin="round" stroke-miterlimit="10" d="M3.4,47.2c4.4-2.9,1.3-9.6,0.8-12.3C3.4,31,5.3,28.1,7.3,27c-1.7,4.5,3.2,8.5,5.4,6.4C18.7,27.9-2.1,17.2,12,8c-3.2,6.6-1.9,8.7-0.7,9.7c0.9,0.8,3.9,0.9,3.3-2.7c3.2,2.4-0.2,6,1.3,7.9c1.2,1.5,3.2,1.2,4,0.4c3.9-3.9-3.1-7.6,3.2-14.3c0,5.4,4.1,9.1,6.3,3.3"/><path fill="none" stroke="#000000" stroke-width="2" stroke-linecap="round" stroke-miterlimit="10" d="M46,1c-2.2,0-3.8,1.2-5.8,5.5"/><path fill="none" stroke="#000000" stroke-width="2" stroke-linecap="round" stroke-miterlimit="10" d="M42.6,8.9c-0.2-1.2-1.1-2.2-2.3-2.4C38.9,6.2,37.5,7,37,8.3"/><path d="M45.4,8.5C44.6,8.1,43.7,8,42.8,8c-0.6,0-1.2,0.1-1.8,0.2c-0.5,0.1-1,0.2-1.4,0.1c-0.2,0-0.6-0.2-0.9-0.3C37.9,7.5,36.7,7,35,7c-3.2,0-5.5,1.8-6.5,5C21,36.4,9.7,42.6,4.9,45.3c-0.5,0.3-1.2,0.6-1.7,0.8C1.7,46.8,1,47.1,1,48c0,1.7,2.3,2,6,2c12.5,0,35.3-6.9,41.7-32.8C50.1,11.6,47.2,9.4,45.4,8.5z"/></svg>