<?xml version="1.0" encoding="iso-8859-1"?>
<!-- Generator: Adobe Illustrator 23.0.3, SVG Export Plug-In . SVG Version: 6.00 Build 0)  -->
<svg version="1.1" xmlns="http://www.w3.org/2000/svg" xmlns:xlink="http://www.w3.org/1999/xlink" x="0px" y="0px"
	 viewBox="0 0 50 50" style="enable-background:new 0 0 50 50;" xml:space="preserve">
<g id="Layer_10" style="display:none;">
</g>
<g id="filled">
</g>
<g id="outlined">
</g>
<g id="rounded">
</g>
<g id="two_x5F_tone">
</g>
<g id="sharp">
</g>
<g id="win10">
</g>
<g id="ios_x5F_out">
</g>
<g id="ios_x5F_filled">
	<path d="M2.846,32H3h44h0.154C48.725,32,50,30.725,50,29.154v-2.309C50,25.276,48.725,24,47.154,24H2.846
		C1.277,24,0,25.276,0,26.846v2.309C0,30.725,1.277,32,2.846,32z"/>
	<path d="M39,6H29c-1.104,0-2-0.897-2-2V2c0-1.103,0.896-2,2-2h10c1.104,0,2,0.897,2,2v2C41,5.103,40.104,6,39,6z"/>
	<path d="M19.593,15.065c-1.505-0.841-3.205-1.295-4.977-1.295c-4.992,0-8.923,3.399-9.956,8.23h7.599L19.593,15.065z"/>
	<path d="M44,22v-0.178c0-2.319-1.918-9.743-4.169-13.911C39.563,7.968,39.285,8,39,8H29c-0.311,0-0.607-0.043-0.896-0.11
		c-0.928,1.737-1.732,3.949-2.313,5.751L40.523,22H44z"/>
	<path d="M36.471,22l-12.669-7.188c-0.382-0.218-0.861-0.159-1.181,0.143L15.17,22H36.471z"/>
	<path d="M3,34v2c0,0.195,0,0.314,3.429,11.448c0.021,0.067,0.091,0.209,0.125,0.271C7.152,48.788,7.829,50,9.231,50H40.77
		c1.74,0,2.358-1.48,2.803-2.552C47,36.314,47,36.195,47,36v-2H3z M30.71,42.71l-5,5C25.51,47.9,25.26,48,25,48s-0.51-0.1-0.71-0.29
		l-5-5c-0.39-0.39-0.39-1.03,0-1.42c0.39-0.39,1.03-0.39,1.42,0l3.29,3.3V37c0-0.55,0.45-1,1-1s1,0.45,1,1v7.59l3.29-3.3
		c0.39-0.39,1.03-0.39,1.42,0C31.1,41.68,31.1,42.32,30.71,42.71z"/>
</g>
<g id="color">
</g>
</svg>