<?xml version="1.0" encoding="iso-8859-1"?>
<!-- Generator: Adobe Illustrator 25.2.3, SVG Export Plug-In . SVG Version: 6.00 Build 0)  -->
<svg version="1.1" baseProfile="basic" id="Layer_9"
	 xmlns="http://www.w3.org/2000/svg" xmlns:xlink="http://www.w3.org/1999/xlink" x="0px" y="0px" viewBox="0 0 50 50"
	 xml:space="preserve">
<path d="M48.93,18.27c0.024-2.471-1.06-4.93-3.8-7.04C39.81,7.11,33.02,5,25.39,5c-3.53,0-7.25,0.46-11.08,1.37
	C7.05,8.11,1.97,13.05,1.97,18.38c0,0.32,0.18,2.97,0.18,2.97c0.55,6.82,0.89,10.94,3.47,15.06c4.21,6.71,10.27,9.71,19.93,9.71
	c1.638,0,2.89-0.08,4.01-0.15c8.59-0.91,11.82-5.86,11.82-8.89c0-1.59-0.52-2.82-1.55-3.67c-1.94-1.61-5.38-1.64-7.95-1.15
	c-0.29,0.07-7.97,1.75-14.12,0.1c-7.3-1.97-11.91-6.53-11.23-11.11c0.47-3.09,2.03-5.62,4.65-7.53c5.37-3.91,13.99-4.2,20.27-3.16
	c6.39,1.05,12.01,5.37,13.37,10.27c0.79,2.85-0.02,5.47-2.28,7.38c-1.18,1-2.58,1.75-3.96,2.32c0.98,0.32,1.83,0.76,2.52,1.33
	c1.5,1.23,2.28,3.04,2.28,5.22c0,1.6-0.56,3.27-1.66,4.81C45.313,38.991,49.146,33.816,48.93,18.27z M34.04,29.83
	c1.97-0.43,5.08-1.34,7.21-3.14c2.08-1.77,2.04-3.87,1.64-5.32c-1.14-4.13-6.2-7.92-11.77-8.84c-1.85-0.31-3.92-0.49-6.04-0.49
	c-4.58,0-9.39,0.87-12.73,3.3c-2.16,1.58-3.45,3.67-3.84,6.21c-0.51,3.42,3.69,7.24,9.77,8.87c5.94,1.603,13.7-0.227,13.8-0.24
	c-1.85-4.89-6.52-5.73-11.15-6.17c-0.55-0.05-0.96-0.54-0.9-1.09c0.05-0.55,0.53-0.95,1.09-0.9c3.5,0.33,7.26,0.92,9.98,3.27
	c-0.58-1.74-1.42-3.4-2.52-4.51c-0.39-0.39-0.39-1.02,0-1.41c0.39-0.39,1.03-0.39,1.42,0c1.39,1.4,2.41,3.46,3.09,5.59
	c0.28-0.5,0.58-0.95,0.87-1.37c0.64-0.95,1.1-1.63,1.06-2.51c-0.02-0.55,0.4-1.02,0.95-1.05c0.55,0,1.02,0.4,1.05,0.96
	c0.07,1.54-0.68,2.65-1.41,3.72c-0.79,1.17-1.6,2.37-1.6,4.37c0,0.23,0.01,0.47,0.03,0.72c0,0.01,0,0.01,0,0.02V29.83z"/>
</svg>