<?xml version="1.0" encoding="iso-8859-1"?><!-- Generator: Adobe Illustrator 19.1.1, SVG Export Plug-In . SVG Version: 6.00 Build 0)  --><svg xmlns="http://www.w3.org/2000/svg" xmlns:xlink="http://www.w3.org/1999/xlink" viewBox="0 0 50 50" width="500px" height="500px"><path d="M30.484,48H19.516C12.626,48,2,40.544,2,30.636V27c0-0.553,0.448-1,1-1h44c0.553,0,1,0.447,1,1v3.636C48,40.544,37.374,48,30.484,48z"/><path fill="none" stroke="#000000" stroke-width="2" stroke-linecap="round" stroke-miterlimit="10" d="M32.319,19.237C31.907,19.086,31.465,19,31,19c-0.38,0-0.741,0.07-1.089,0.169C29.528,17.359,27.924,16,26,16c-1.876,0-3.438,1.296-3.871,3.039C21.923,19.015,21.713,19,21.5,19c-0.701,0-1.368,0.136-1.984,0.375C18.982,18.549,18.057,18,17,18c-0.5,0-0.963,0.134-1.378,0.35C15.126,18.129,14.579,18,14,18c-2.209,0-4,1.791-4,4c-2.209,0-4,1.791-4,4"/><path fill="none" stroke="#000000" stroke-width="2" stroke-linecap="round" stroke-miterlimit="10" d="M45,27c0-1.311-0.846-2.414-2.018-2.822C42.986,24.118,43,24.061,43,24c0-1.657-1.343-3-3-3c-0.047,0-0.091,0.012-0.137,0.014c-0.276-1.081-0.986-1.988-1.937-2.516"/><path d="M33.84,24c-0.17,0-0.343-0.043-0.5-0.134l0,0c0,0-0.489-0.266-1.09-0.266c-0.604,0-1.545,0.26-1.827,0.352c-0.406,0.129-0.845-0.008-1.102-0.344c-0.258-0.336-0.275-0.799-0.044-1.154L41.549,3.637c0.505-0.786,1.294-1.321,2.218-1.501c0.922-0.179,1.854,0.02,2.625,0.563c0.769,0.543,1.268,1.354,1.406,2.286s-0.103,1.854-0.68,2.597L34.63,23.614C34.435,23.865,34.14,24,33.84,24z"/><circle cx="26" cy="26" r="1"/><circle cx="26" cy="20" r="1"/><circle cx="18" cy="24" r="1"/><circle cx="15" cy="22" r="1"/></svg>