<?xml version="1.0" encoding="utf-8"?><!-- Generator: Adobe Illustrator 19.1.1, SVG Export Plug-In . SVG Version: 6.00 Build 0)  --><svg xmlns="http://www.w3.org/2000/svg" xmlns:xlink="http://www.w3.org/1999/xlink" viewBox="0 0 50 50" width="500px" height="500px"><path d="M34.4,4C25,4,18,10,18,18c0,2,0.5,3.9,1.4,5.7c2.6-1.4,4.6-3.3,4.6-5.7c0-0.3,0-0.5,0.1-0.8c0-0.1,0-0.2,0-0.2c0-0.2,0.1-0.4,0.1-0.6c0-0.2,0.1-0.3,0.2-0.5c0-0.1,0.1-0.2,0.1-0.2c0.2-0.5,0.5-0.9,0.8-1.3c0,0,0,0,0-0.1c0.1-0.1,0.2-0.3,0.4-0.4c0,0,0.1-0.1,0.1-0.1c0.4-0.4,0.9-0.8,1.4-1.1c0,0,0.1,0,0.1-0.1c2-1.2,4.5-1.8,6.2-1.8c4.8,0,8.5,4,8.5,9c0,3.3-0.7,5.6-1.5,7.1c1.8,1,2.9,3.1,2.5,5.2c-0.4,2.4-2.5,4.1-4.9,4.1c-0.3,0-0.6,0-0.8-0.1c-0.4-0.1-2.9-0.5-6-1.6C29.2,35.6,27,36,25,36c-2.1,0-4.4-0.4-6.5-1.1c-2,0.7-3.8,1.1-4.9,1.3c-0.5,0.1-0.7,0.1-0.9,0.2c-0.3,0-0.6,0.1-0.8,0.1c-2.4,0-4.5-1.7-4.9-4.1C6.6,30.1,7.7,28,9.7,27C8.9,25.2,8,22.7,8,20c0-6.6,5-9,8.3-9c0.5,0,1,0,1.4,0.1c1.2-2.3,2.9-4.2,5.1-5.7C20.7,4.5,18.2,4,15.6,4C4.2,4,0,13.8,0,20c0,18.2,16.2,25.9,24.8,26c0,0,0,0,0,0l0.2,0c8.7,0,25-7.6,25-26C50,13.8,45.8,4,34.4,4z M5,29c-0.6,0-1-0.4-1-1c0-0.6,0.4-1,1-1s1,0.4,1,1C6,28.6,5.6,29,5,29z M6,23c-0.6,0-1-0.4-1-1c0-0.6,0.4-1,1-1s1,0.4,1,1C7,22.6,6.6,23,6,23z M12,40c-0.6,0-1-0.4-1-1c0-0.6,0.4-1,1-1s1,0.4,1,1C13,39.6,12.6,40,12,40z M16,39c-0.6,0-1-0.4-1-1c0-0.6,0.4-1,1-1s1,0.4,1,1C17,38.6,16.6,39,16,39z M30,42c-0.6,0-1-0.4-1-1c0-0.6,0.4-1,1-1s1,0.4,1,1C31,41.6,30.6,42,30,42z M35,40c-0.6,0-1-0.4-1-1c0-0.6,0.4-1,1-1s1,0.4,1,1C36,39.6,35.6,40,35,40z M44,25c0-0.6,0.4-1,1-1s1,0.4,1,1c0,0.6-0.4,1-1,1S44,25.6,44,25z M46,30c-0.6,0-1-0.4-1-1c0-0.6,0.4-1,1-1s1,0.4,1,1C47,29.6,46.6,30,46,30z M47,22c-0.6,0-1-0.4-1-1c0-0.6,0.4-1,1-1s1,0.4,1,1C48,21.6,47.6,22,47,22z"/><path d="M38.6,28.5c-0.4-0.1-3.8-0.7-7.2-2.2c-1.2,1.8-2.8,3.2-4.5,4.4c4.8,2.6,10.1,3.6,10.7,3.7c0.2,0,0.3,0,0.5,0c1.4,0,2.7-1,3-2.5C41.4,30.3,40.3,28.8,38.6,28.5z"/><path d="M26,18c0,8-14.5,10.5-14.6,10.5c-1.6,0.3-2.7,1.8-2.4,3.5c0.3,1.5,1.5,2.5,3,2.5c0.2,0,0.3,0,0.5,0c0.1,0,0.4-0.1,0.8-0.1C17.6,33.4,32,29.5,32,18c0-1.6-0.3-3.2-0.9-4.6C28.8,14,26,15.4,26,18z"/></svg>