<?xml version="1.0" encoding="utf-8"?><!-- Generator: Adobe Illustrator 19.1.1, SVG Export Plug-In . SVG Version: 6.00 Build 0)  --><svg xmlns="http://www.w3.org/2000/svg" xmlns:xlink="http://www.w3.org/1999/xlink" viewBox="0 0 50 50" width="50px" height="50px"><path d="M29.4,8c-0.7,0-1.3,0.1-1.9,0.3c3.9,3.9,4.5,12,4.5,16.5c0,9.5-3,15-3.1,15.3c-0.2,0.3-0.5,0.5-0.9,0.5c-0.2,0-0.3,0-0.5-0.1c-0.5-0.3-0.7-0.9-0.4-1.4c0-0.1,2.9-5.4,2.9-14.3c0-7.2-1.4-12.7-3.9-15.2C25,8.6,23.7,8,22.2,8c-0.1,0-0.1,0-0.2,0C13.6,8,8,15.4,8,26.3C8,37.1,16.6,48,25,48c8.4,0,17-11.1,17-22C42,17,38.1,8,29.4,8z"/><path d="M21.7,4c0.8,0,2.4,0.4,3,3.3C25,7.1,25.3,7,25.6,6.8l1-0.3C25.5,2.4,22.7,2,21.7,2c-0.6,0-1,0.4-1,1S21.2,4,21.7,4z"/></svg>