<?xml version="1.0" encoding="iso-8859-1"?>
<!-- Generator: Adobe Illustrator 23.0.3, SVG Export Plug-In . SVG Version: 6.00 Build 0)  -->
<svg version="1.1" xmlns="http://www.w3.org/2000/svg" xmlns:xlink="http://www.w3.org/1999/xlink" x="0px" y="0px"
	 viewBox="0 0 50 50" style="enable-background:new 0 0 50 50;" xml:space="preserve">
<g id="Layer_10" style="display:none;">
</g>
<g id="filled">
</g>
<g id="outlined">
</g>
<g id="rounded">
</g>
<g id="two_x5F_tone">
</g>
<g id="sharp">
</g>
<g id="win10">
</g>
<g id="ios_x5F_out">
</g>
<g id="ios_x5F_filled">
	<path d="M22.81,15.5c-0.73,1.84-0.79,3.72-0.52,5.38l-3.05-3.05c0.6-1.18,1.55-3.63,0.71-6.15c-0.18-0.52-0.74-0.8-1.27-0.63
		c-0.52,0.18-0.8,0.74-0.63,1.27c0.49,1.48,0.09,3-0.32,4L14,12.58c0.51-0.65,1-1.76,1-3.58c0-0.55-0.45-1-1-1s-1,0.45-1,1
		c0,1.11-0.23,1.76-0.45,2.14L9.71,8.29c-0.39-0.39-1.03-0.39-1.42,0c-0.39,0.39-0.39,1.03,0,1.42l2.85,2.84
		C10.76,12.77,10.11,13,9,13c-0.55,0-1,0.45-1,1s0.45,1,1,1c1.82,0,2.93-0.49,3.58-1l3.74,3.73c-1,0.41-2.52,0.82-4,0.32
		c-0.53-0.17-1.09,0.11-1.27,0.63c-0.17,0.53,0.11,1.09,0.63,1.27c0.72,0.24,1.42,0.33,2.09,0.33c1.72,0,3.21-0.61,4.06-1.04
		l3.05,3.05c-0.57-0.1-1.17-0.15-1.79-0.15c-2.06,0-4.84,0.57-7.09,3.11c-0.76-0.42-1.47-0.94-2.13-1.56C4.76,18.95,4,9.95,4,5
		c0-0.55,0.45-1,1-1c4.95,0,13.95,0.76,18.69,5.87c0.62,0.66,1.14,1.38,1.55,2.13C24.15,12.99,23.34,14.16,22.81,15.5z"/>
	<path d="M46,45c0,0.55-0.45,1-1,1c-4.95,0-13.95-0.76-18.69-5.87c-0.62-0.67-1.15-1.39-1.57-2.15c1.06-0.96,1.85-2.1,2.39-3.4
		c0.76-1.87,0.81-3.81,0.54-5.5l3.09,3.09c-0.6,1.18-1.55,3.63-0.71,6.15C30.19,38.74,30.58,39,31,39c0.1,0,0.21-0.02,0.32-0.05
		c0.52-0.18,0.8-0.74,0.63-1.27c-0.49-1.48-0.09-3,0.32-4L36,37.42c-0.51,0.65-1,1.76-1,3.58c0,0.55,0.45,1,1,1s1-0.45,1-1
		c0-1.11,0.23-1.76,0.45-2.14l2.84,2.85C40.49,41.9,40.74,42,41,42s0.51-0.1,0.71-0.29c0.39-0.39,0.39-1.03,0-1.42l-2.85-2.84
		C39.24,37.23,39.89,37,41,37c0.55,0,1-0.45,1-1s-0.45-1-1-1c-1.82,0-2.93,0.49-3.58,1l-3.74-3.73c1-0.41,2.52-0.82,4-0.32
		c0.53,0.18,1.09-0.11,1.27-0.63c0.17-0.53-0.11-1.09-0.63-1.27c-2.52-0.84-4.97,0.11-6.15,0.71l-3.09-3.09
		c0.59,0.09,1.2,0.15,1.84,0.15c2.04,0,4.81-0.57,7.06-3.07c0.77,0.42,1.48,0.94,2.15,1.56C45.24,31.05,46,40.05,46,45z"/>
	<path d="M11.03,39.99C10.47,40,10,39.53,10.01,38.97c0.37-17.53,10.31-15.37,13.42-13.81l-2.73,2.73c-2.5-1.32-4.55-0.33-4.65-0.28
		c-0.49,0.24-0.69,0.84-0.44,1.34c0.24,0.49,0.84,0.69,1.34,0.44c0.01,0,0.95-0.42,2.23,0.02l-3.39,3.38
		c-0.39,0.39-0.39,1.03,0,1.42c0.2,0.19,0.45,0.29,0.71,0.29s0.51-0.1,0.71-0.29l3.38-3.39c0.43,1.26,0.04,2.18,0.01,2.24
		c-0.24,0.49-0.04,1.09,0.45,1.33c0.15,0.08,0.3,0.11,0.45,0.11c0.37,0,0.72-0.2,0.89-0.55c0.05-0.1,1.04-2.16-0.28-4.65l2.71-2.71
		C26.37,29.76,28.46,39.62,11.03,39.99z"/>
	<path d="M39.99,11.03c-0.37,17.43-10.23,15.34-13.4,13.79l2.71-2.71c0.98,0.52,1.9,0.69,2.66,0.69c1.15,0,1.93-0.38,1.99-0.41
		c0.49-0.24,0.69-0.84,0.44-1.34c-0.24-0.49-0.84-0.69-1.34-0.44c-0.01,0-0.95,0.42-2.23-0.02l3.39-3.38c0.39-0.39,0.39-1.03,0-1.42
		c-0.39-0.39-1.03-0.39-1.42,0l-3.38,3.39c-0.43-1.26-0.04-2.18-0.01-2.24c0.24-0.49,0.04-1.09-0.45-1.33
		c-0.5-0.25-1.1-0.05-1.34,0.44c-0.05,0.1-1.04,2.16,0.28,4.65l-2.73,2.73c-1.56-3.11-3.72-13.05,13.81-13.42
		C39.53,10,40,10.47,39.99,11.03z"/>
</g>
<g id="color">
</g>
</svg>