<?xml version="1.0" encoding="iso-8859-1"?><!-- Generator: Adobe Illustrator 22.1.0, SVG Export Plug-In . SVG Version: 6.00 Build 0)  --><svg xmlns="http://www.w3.org/2000/svg" xmlns:xlink="http://www.w3.org/1999/xlink" viewBox="0 0 50 50" width="50px" height="50px"><path d="M34.206,3.731C34.292,3.471,34.407,3.23,34.538,3H33h-2.125H10.356c-2.208,0-3.77,0.919-4.429,2.683l-1.894,7.059c-0.105,0.394,0.038,0.812,0.363,1.058c0.325,0.245,0.767,0.269,1.117,0.059l4.33-2.599l2.448,2.448c0.314,0.314,0.799,0.383,1.186,0.171l4.844-2.642l2.471,2.471C20.985,13.899,21.241,14,21.5,14c0.164,0,0.328-0.04,0.479-0.122l4.844-2.642l2.471,2.471c0.245,0.244,0.599,0.345,0.937,0.267c0.338-0.08,0.609-0.328,0.719-0.657L34.206,3.731z"/><path d="M45.894,23.025L41.5,14l-4.442,9.112C37.029,23.206,37,23.301,37,23.4V47h8c0.552,0,1-0.448,1-1V23.472C46,23.317,45.964,23.164,45.894,23.025z"/><path d="M35,23c0-0.151,0.034-0.301,0.101-0.438L40,12.481V5.107c0-0.996-0.681-1.919-1.664-2.08c-1.028-0.167-1.941,0.45-2.236,1.347l-3.254,9.574c-0.359,1.078-1.28,1.855-2.426,2.023c-0.971,0.142-1.944-0.255-2.638-0.948l-1.315-1.315l-3.528,1.924c-1.169,0.637-2.617,0.429-3.559-0.512l-1.413-1.412l-3.529,1.925c-1.168,0.637-2.616,0.428-3.557-0.512l-1.344-1.344l-1.328,0.797L4.06,23.111C4.029,23.206,4,23.301,4,23.4V46c0,0.552,0.448,1,1,1h30V23z M27,39H12V29h15V39z"/></svg>