<?xml version="1.0" encoding="iso-8859-1"?><!-- Generator: Adobe Illustrator 22.1.0, SVG Export Plug-In . SVG Version: 6.00 Build 0)  --><svg xmlns="http://www.w3.org/2000/svg" xmlns:xlink="http://www.w3.org/1999/xlink" viewBox="0 0 50 50" width="50px" height="50px"><g></g><path d="M7.014,12.412c-0.054,0.235,0.05,0.478,0.258,0.602C8.2,13.566,10.939,15,14.37,15C21.986,15,26,9.5,26,7.3c0,0-3.129-3.3-8.442-3.3C12.839,4,8.22,7.145,7.014,12.412z"/><path d="M25,8c-0.552,0-1-0.447-1-1V3c0-0.553,0.448-1,1-1s1,0.447,1,1v4.3C26,7.3,25.552,8,25,8z"/><path d="M32.981,13.681c-0.001-0.054-0.001-0.094-0.002-0.098C32.815,10.415,30.796,7.769,28,6.628V7.3c0,0.214-0.02,0.429-0.055,0.643C27.39,11.359,22.645,17,14.37,17c-0.8,0-1.554-0.079-2.276-0.191c0,0,0,0,0,0C8.347,20.091,6,24.782,6,30c0,9.941,8.507,18,19,18s19-8.059,19-18C44,22.763,39.482,16.54,32.981,13.681z M41,26c0.178,0,0.336,0.059,0.481,0.141c0.125,0.475,0.226,0.958,0.305,1.449C41.604,27.832,41.327,28,41,28c-0.552,0-1-0.448-1-1C40,26.448,40.448,26,41,26z M39,23c0.552,0,1,0.448,1,1s-0.448,1-1,1s-1-0.448-1-1S38.448,23,39,23z M35,31c-0.552,0-1-0.448-1-1s0.448-1,1-1s1,0.448,1,1S35.552,31,35,31z M36,36c0,0.552-0.448,1-1,1s-1-0.448-1-1s0.448-1,1-1S36,35.448,36,36z M34,24c0-0.552,0.448-1,1-1s1,0.448,1,1s-0.448,1-1,1S34,24.552,34,24z M37,32c0.552,0,1,0.448,1,1s-0.448,1-1,1s-1-0.448-1-1S36.448,32,37,32z M37,28c-0.552,0-1-0.448-1-1s0.448-1,1-1s1,0.448,1,1S37.552,28,37,28z M39,29c0.552,0,1,0.448,1,1s-0.448,1-1,1s-1-0.448-1-1S38.448,29,39,29z M37,20c0.552,0,1,0.448,1,1s-0.448,1-1,1s-1-0.448-1-1S36.448,20,37,20z M34.911,17.018c0.357,0.242,0.708,0.489,1.044,0.756C35.972,17.849,36,17.92,36,18c0,0.552-0.448,1-1,1s-1-0.448-1-1C34,17.479,34.402,17.065,34.911,17.018z M33,20c0.552,0,1,0.448,1,1s-0.448,1-1,1s-1-0.448-1-1S32.448,20,33,20z M33,26c0.552,0,1,0.448,1,1s-0.448,1-1,1s-1-0.448-1-1S32.448,26,33,26z M33,32c0.552,0,1,0.448,1,1s-0.448,1-1,1s-1-0.448-1-1S32.448,32,33,32z M31,35c0.552,0,1,0.448,1,1s-0.448,1-1,1s-1-0.448-1-1S30.448,35,31,35z M29,38c0.552,0,1,0.448,1,1s-0.448,1-1,1s-1-0.448-1-1S28.448,38,29,38z M25,38c0.552,0,1,0.448,1,1s-0.448,1-1,1s-1-0.448-1-1S24.448,38,25,38z M19,43c-0.552,0-1-0.448-1-1s0.448-1,1-1s1,0.448,1,1S19.552,43,19,43z M21.715,45.695c-0.561-0.103-1.113-0.232-1.653-0.386C20.03,45.21,20,45.11,20,45c0-0.552,0.448-1,1-1s1,0.448,1,1C22,45.271,21.89,45.515,21.715,45.695z M23,43c-0.552,0-1-0.448-1-1s0.448-1,1-1s1,0.448,1,1S23.552,43,23,43z M25,46c-0.552,0-1-0.448-1-1s0.448-1,1-1s1,0.448,1,1S25.552,46,25,46z M27,43c-0.552,0-1-0.448-1-1s0.448-1,1-1s1,0.448,1,1S27.552,43,27,43z M29.938,45.309c-0.54,0.154-1.091,0.283-1.653,0.386C28.11,45.515,28,45.271,28,45c0-0.552,0.448-1,1-1s1,0.448,1,1C30,45.11,29.97,45.21,29.938,45.309z M31,43c-0.552,0-1-0.448-1-1s0.448-1,1-1s1,0.448,1,1S31.552,43,31,43z M33,40c-0.552,0-1-0.448-1-1s0.448-1,1-1s1,0.448,1,1S33.552,40,33,40z M35.954,42.226c-0.335,0.267-0.687,0.514-1.044,0.756C34.402,42.935,34,42.521,34,42c0-0.552,0.448-1,1-1s1,0.448,1,1C36,42.08,35.972,42.151,35.954,42.226z M37,40c-0.552,0-1-0.448-1-1s0.448-1,1-1s1,0.448,1,1S37.552,40,37,40z M39,37c-0.552,0-1-0.448-1-1s0.448-1,1-1s1,0.448,1,1S39.552,37,39,37z M41.481,33.859C41.336,33.941,41.178,34,41,34c-0.552,0-1-0.448-1-1c0-0.552,0.448-1,1-1c0.327,0,0.604,0.168,0.787,0.411C41.708,32.902,41.606,33.384,41.481,33.859z"/></svg>