<?xml version="1.0" encoding="iso-8859-1"?><!-- Generator: Adobe Illustrator 22.1.0, SVG Export Plug-In . SVG Version: 6.00 Build 0)  --><svg xmlns="http://www.w3.org/2000/svg" xmlns:xlink="http://www.w3.org/1999/xlink" viewBox="0 0 50 50" width="50px" height="50px"><path d="M45.91,29.59l-4-9c-0.02-0.05-0.06-0.08-0.09-0.13c-0.02-0.03-0.03-0.07-0.05-0.1c-0.01-0.02-0.03-0.02-0.05-0.03c-0.06-0.07-0.13-0.12-0.21-0.17c-0.04-0.02-0.07-0.05-0.12-0.07c-0.1-0.05-0.21-0.07-0.32-0.07C41.04,20.01,41.02,20,41,20h-4.025C36.984,19.834,37,19.67,37,19.5c0-0.86-0.13-1.7-0.37-2.48c0.04-0.01,0.05-0.02,0-0.02c-0.03-0.096-0.067-0.188-0.1-0.282l2.264-2.265c0.618,0.359,1.309,0.553,2.078,0.528c1.077-0.022,2.097-0.461,2.871-1.235c1.61-1.608,1.651-4.188,0.091-5.749c-0.498-0.498-1.124-0.845-1.812-1.015c-0.17-0.688-0.518-1.313-1.017-1.812c-0.76-0.762-1.753-1.192-2.876-1.145c-1.077,0.022-2.097,0.461-2.871,1.235c-1.357,1.357-1.6,3.404-0.706,4.948l-1.887,1.887C31.433,11.401,30.015,11,28.5,11h-0.16c-0.09,0-0.18,0.01-0.28,0.01c-0.85,0.02-1.7,0.16-2.5,0.42c-1.06,0.34-2.06,0.88-2.92,1.6c-0.09,0.07-0.19,0.13-0.29,0.16c-0.39,0.15-0.84,0.04-1.12-0.29c-0.35-0.43-0.29-1.06,0.13-1.41c0.55-0.47,1.15-0.87,1.79-1.2C22.47,10.1,21.75,10,21,10c-0.17,0-0.34,0-0.5,0.02c-0.15,0-0.3,0.02-0.44,0.04c-0.13,0.01-0.25,0.03-0.38,0.05c-0.362,0.06-0.714,0.152-1.058,0.259l-2.159-2.16c0.893-1.543,0.651-3.59-0.706-4.948c-1.608-1.609-4.188-1.65-5.748-0.091C9.51,3.669,9.162,4.294,8.992,4.982C8.305,5.152,7.68,5.5,7.181,5.998c-1.56,1.56-1.52,4.139,0.091,5.748c1.356,1.356,3.403,1.6,4.948,0.706l1.748,1.747C13.354,15.33,13,16.622,13,18c0,0.69,0.095,1.36,0.26,2H9c-0.03,0-0.05,0.02-0.08,0.02c-0.11,0.01-0.21,0.02-0.31,0.07c-0.05,0.02-0.09,0.05-0.13,0.08c-0.07,0.04-0.14,0.09-0.2,0.15c-0.02,0.02-0.03,0.02-0.05,0.04c-0.02,0.03-0.03,0.07-0.05,0.1c-0.03,0.05-0.07,0.08-0.09,0.13l-4,9c-0.23,0.51,0,1.1,0.5,1.32C4.73,30.97,4.86,31,5,31c0.38,0,0.75-0.22,0.91-0.59l2.69-6.04l3.62,19.81C12.3,44.65,12.72,45,13.2,45h23.6c0.48,0,0.9-0.35,0.98-0.82l3.62-19.81l2.69,6.04C44.25,30.78,44.62,31,45,31c0.14,0,0.27-0.03,0.41-0.09C45.91,30.69,46.14,30.1,45.91,29.59z M36.581,11.009c0.391-0.391,0.391-1.023,0-1.414c-0.779-0.78-0.738-2.09,0.092-2.92c0.407-0.407,0.94-0.639,1.5-0.65c0.555,0.007,1.047,0.188,1.419,0.56c0.433,0.433,0.537,0.953,0.549,1.313c0.017,0.527,0.439,0.95,0.967,0.967c0.36,0.012,0.881,0.116,1.313,0.548c0.779,0.78,0.738,2.09-0.092,2.92c-0.407,0.407-0.94,0.639-1.5,0.65c-0.532,0.01-1.047-0.187-1.419-0.56c-0.188-0.188-0.441-0.293-0.707-0.293s-0.52,0.105-0.707,0.293l-2.403,2.404c-0.372-0.562-0.807-1.076-1.296-1.534L36.581,11.009z M13.02,10.423c-0.391-0.391-1.023-0.391-1.414,0c-0.372,0.372-0.867,0.566-1.42,0.56c-0.56-0.012-1.093-0.243-1.5-0.65c-0.83-0.83-0.871-2.14-0.092-2.919C9.027,6.98,9.548,6.876,9.908,6.864c0.527-0.017,0.951-0.44,0.968-0.968c0.011-0.36,0.114-0.88,0.547-1.312c0.779-0.779,2.09-0.739,2.92,0.091c0.829,0.83,0.87,2.141,0.091,2.92c-0.391,0.391-0.391,1.023,0,1.414l2.259,2.259c-0.567,0.363-1.084,0.796-1.542,1.286L13.02,10.423z M37,31H13l-3-9h30L37,31z"/></svg>