<?xml version="1.0" encoding="iso-8859-1"?><!-- Generator: Adobe Illustrator 23.0.1, SVG Export Plug-In . SVG Version: 6.00 Build 0)  --><svg xmlns="http://www.w3.org/2000/svg" xmlns:xlink="http://www.w3.org/1999/xlink" viewBox="0 0 50 50" width="50px" height="50px"><g id="&#x421;&#x43B;&#x43E;&#x439;_1" style="display:none;"></g><g id="ref"></g><g id="&#x421;&#x43B;&#x43E;&#x439;_3"></g><g id="Layer_4"><path d="M32,42c-6.617,0-12-5.829-12-12.993C20,28.455,20.447,28,21,28h22c0.553,0,1,0.448,1,1C44,36.171,38.617,42,32,42z M22.04,30c0.458,5.598,4.75,10,9.96,10s9.502-4.402,9.96-10H22.04z"/><path style="fill:none;stroke:#000000;stroke-width:2;stroke-miterlimit:10;" d="M41.003,29c0-0.021,0.003-0.042,0.003-0.063c0-5.488-4.029-9.937-9-9.937s-9,4.449-9,9.937c0,0.021,0.003,0.042,0.003,0.063H41.003z"/><path d="M18.815,33.959C18.547,33.983,18.277,34,18.006,34c-5.514,0-10-4.962-10-11.063s4.486-11.063,10-11.063c3.636,0,6.816,2.185,8.57,5.527c0.589-0.318,1.272-0.62,1.911-0.832c-2.076-4.06-6.038-6.695-10.481-6.695c-6.617,0-12,5.86-12,13.063S11.389,36,18.006,36c0.534,0,1.06-0.051,1.583-0.126C19.289,35.26,19.033,34.619,18.815,33.959z"/><path d="M43,29H21c0,0.003,0,0.005,0,0.007C21,35.631,25.925,41,32,41s11-5.369,11-11.993C43,29.005,43,29.003,43,29z M27,34c-0.552,0-1-0.448-1-1c0-0.552,0.448-1,1-1s1,0.448,1,1C28,33.552,27.552,34,27,34z M30,38c-0.552,0-1-0.448-1-1c0-0.552,0.448-1,1-1s1,0.448,1,1C31,37.552,30.552,38,30,38z M32,34c-0.552,0-1-0.448-1-1c0-0.552,0.448-1,1-1s1,0.448,1,1C33,33.552,32.552,34,32,34z M34,38c-0.552,0-1-0.448-1-1c0-0.552,0.448-1,1-1s1,0.448,1,1C35,37.552,34.552,38,34,38z M37,34c-0.552,0-1-0.448-1-1c0-0.552,0.448-1,1-1s1,0.448,1,1C38,33.552,37.552,34,37,34z"/><path d="M18.006,11c-6.075,0-11,5.373-11,12c0,6.627,4.925,12,11,12c0.391,0,0.775-0.027,1.155-0.07c-0.74-1.808-1.155-3.798-1.155-5.891v-1.729c0-0.694,0.564-1.257,1.262-1.258l1.051-0.003c0.894-4.11,3.535-7.517,7.126-9.068C25.546,13.379,22.088,11,18.006,11z M11,26c-0.552,0-1-0.448-1-1c0-0.552,0.448-1,1-1s1,0.448,1,1C12,25.552,11.552,26,11,26z M11,22c-0.552,0-1-0.448-1-1c0-0.552,0.448-1,1-1s1,0.448,1,1C12,21.552,11.552,22,11,22z M14,30c-0.552,0-1-0.448-1-1c0-0.552,0.448-1,1-1s1,0.448,1,1C15,29.552,14.552,30,14,30z M14,18c-0.552,0-1-0.448-1-1c0-0.552,0.448-1,1-1s1,0.448,1,1C15,17.552,14.552,18,14,18z M16.552,21.834c-0.46,0.305-1.081,0.179-1.386-0.281s-0.179-1.081,0.281-1.386c0.46-0.305,1.081-0.179,1.386,0.281S17.013,21.529,16.552,21.834z M18,15c0-0.552,0.448-1,1-1s1,0.448,1,1c0,0.552-0.448,1-1,1S18,15.552,18,15z M20,20c-0.552,0-1-0.448-1-1c0-0.552,0.448-1,1-1s1,0.448,1,1C21,19.552,20.552,20,20,20z"/><path style="fill:none;stroke:#000000;stroke-width:2;stroke-linecap:round;stroke-miterlimit:10;" d="M19.075,10.95c-1.367-1.367-1.367-3.583,0-4.95"/><path style="fill:none;stroke:#000000;stroke-width:2;stroke-linecap:round;stroke-miterlimit:10;" d="M14.931,11.5c-1.752-0.817-2.51-2.899-1.693-4.651"/><path style="fill:none;stroke:#000000;stroke-width:2;stroke-linecap:round;stroke-miterlimit:10;" d="M10.903,13.396c-1.926-0.168-3.35-1.866-3.182-3.792"/><path style="fill:none;stroke:#000000;stroke-width:2;stroke-linecap:round;stroke-miterlimit:10;" d="M8.851,16.177c-1.867,0.5-3.786-0.608-4.287-2.475"/><path style="fill:none;stroke:#000000;stroke-width:2;stroke-linecap:round;stroke-miterlimit:10;" d="M7.475,19.86C5.891,20.968,3.709,20.583,2.6,19"/><path style="fill:none;stroke:#000000;stroke-width:2;stroke-linecap:round;stroke-miterlimit:10;" d="M47.115,34.86c-1.583,1.109-3.766,0.724-4.875-0.86"/><path style="fill:none;stroke:#000000;stroke-width:2;stroke-linecap:round;stroke-miterlimit:10;" d="M7.075,24.254c-1.109,1.583-3.291,1.968-4.875,0.86"/><path style="fill:none;stroke:#000000;stroke-width:2;stroke-linecap:round;stroke-miterlimit:10;" d="M8.125,28.291c-0.5,1.867-2.419,2.975-4.287,2.475"/><path style="fill:none;stroke:#000000;stroke-width:2;stroke-linecap:round;stroke-miterlimit:10;" d="M10.256,31.503c0.168,1.926-1.256,3.623-3.182,3.792"/><path style="fill:none;stroke:#000000;stroke-width:2;stroke-linecap:round;stroke-miterlimit:10;" d="M29.441,11.115c-1.926,0.168-3.35,1.866-3.182,3.792"/><path style="fill:none;stroke:#000000;stroke-width:2;stroke-linecap:round;stroke-miterlimit:10;" d="M13.968,34.294c0.817,1.752,0.059,3.834-1.693,4.651"/><path style="fill:none;stroke:#000000;stroke-width:2;stroke-linecap:round;stroke-miterlimit:10;" d="M25.211,7.757c-1.752,0.817-2.51,2.899-1.693,4.651"/><path style="fill:none;stroke:#000000;stroke-width:2;stroke-linecap:round;stroke-miterlimit:10;" d="M32.91,41.101c-1.367,1.367-1.367,3.583,0,4.95"/><path style="fill:none;stroke:#000000;stroke-width:2;stroke-linecap:round;stroke-miterlimit:10;" d="M28.767,40.551c-1.752,0.817-2.51,2.899-1.693,4.651"/><path style="fill:none;stroke:#000000;stroke-width:2;stroke-linecap:round;stroke-miterlimit:10;" d="M25.27,38.423c-1.926,0.168-3.35,1.866-3.182,3.792"/><path style="fill:none;stroke:#000000;stroke-width:2;stroke-linecap:round;stroke-miterlimit:10;" d="M43.632,40.936c-1.926-0.168-3.35-1.866-3.182-3.792"/><path style="fill:none;stroke:#000000;stroke-width:2;stroke-linecap:round;stroke-miterlimit:10;" d="M39.046,44.294c-1.752-0.817-2.51-2.899-1.693-4.651"/></g></svg>