<?xml version="1.0" encoding="iso-8859-1"?>
<!-- Generator: Adobe Illustrator 22.1.0, SVG Export Plug-In . SVG Version: 6.00 Build 0)  -->
<svg version="1.1" id="Layer_1" xmlns="http://www.w3.org/2000/svg" xmlns:xlink="http://www.w3.org/1999/xlink" x="0px" y="0px"
	 viewBox="0 0 50 50" style="enable-background:new 0 0 50 50;" xml:space="preserve">
<path d="M11.5,44C5.159,44,0,36.918,0,28.214c0-7.307,2.9-11.457,5.458-15.119c0.944-1.351,1.835-2.626,2.526-3.979
	C8.693,7.728,9.576,6,11.5,6s2.807,1.728,3.515,3.116l0,0.001c0.69,1.353,1.582,2.628,2.526,3.979C20.1,16.757,23,20.908,23,28.214
	C23,36.918,17.841,44,11.5,44z"/>
<path d="M43.17,2.83c-1.347-1.349-3.174-0.758-4.642-0.282c-1.424,0.462-2.936,0.73-4.537,1.014
	c-4.344,0.77-9.266,1.643-14.368,6.745c-0.314,0.314-0.616,0.639-0.909,0.972c0.154,0.223,0.308,0.445,0.467,0.672
	C21.773,15.661,25,20.278,25,28.214c0,1.27-0.106,2.507-0.299,3.703c3.772-0.353,7.772-2.32,10.992-5.54
	c5.102-5.102,5.975-10.025,6.745-14.368c0.284-1.601,0.552-3.113,1.014-4.537C43.927,6.005,44.519,4.179,43.17,2.83z"/>
<path d="M46.884,32.985L46.884,32.985c-1.352-0.69-2.627-1.58-3.978-2.521c-1.557-1.086-3.253-2.262-5.257-3.243
	c-0.18,0.19-0.352,0.38-0.542,0.571c-3.487,3.487-7.941,5.717-12.22,6.117l-0.626,0.059c-1.258,4.828-4.041,8.727-7.598,10.674
	C19.585,46.768,23.54,48,27.786,48c7.307,0,11.457-2.9,15.119-5.458c1.351-0.944,2.626-1.835,3.98-2.526
	C48.272,39.307,50,38.424,50,36.5S48.272,33.693,46.884,32.985z"/>
</svg>