<?xml version="1.0" encoding="utf-8"?><!-- Generator: Adobe Illustrator 15.0.0, SVG Export Plug-In . SVG Version: 6.00 Build 0)  --><!DOCTYPE svg PUBLIC "-//W3C//DTD SVG 1.1//EN" "http://www.w3.org/Graphics/SVG/1.1/DTD/svg11.dtd"><svg xmlns="http://www.w3.org/2000/svg" xmlns:xlink="http://www.w3.org/1999/xlink" viewBox="0 0 50 50" width="50px" height="50px"><line fill="none" stroke="#000000" stroke-width="2" stroke-linecap="round" stroke-linejoin="round" stroke-miterlimit="10" x1="28.413" y1="12.32" x2="30.811" y2="4.186"/><line fill="none" stroke="#000000" stroke-width="2" stroke-linecap="round" stroke-linejoin="round" stroke-miterlimit="10" x1="29.372" y1="13.151" x2="34.113" y2="3.912"/><line fill="none" stroke="#000000" stroke-width="2" stroke-linecap="round" stroke-linejoin="round" stroke-miterlimit="10" x1="30.796" y1="13.412" x2="35.41" y2="7.282"/><path fill="none" stroke="#000000" stroke-width="2" stroke-linecap="round" stroke-linejoin="round" stroke-miterlimit="10" d="M8.007,17.32c1.415-2.388,2.034-4.246,1.592-6.988"/><path fill="none" stroke="#000000" stroke-width="2" stroke-linecap="round" stroke-linejoin="round" stroke-miterlimit="10" d="M34.898,42.264c2.033-1.414,4.246-2.654,6.811-3.449"/><path fill="none" stroke="#000000" stroke-width="2" stroke-linecap="round" stroke-linejoin="round" stroke-miterlimit="10" d="M41.709,31.561c0.973-4.068,1.15-6.103,3.273-8.492"/><path d="M38.645,15.052c-0.114-0.14-0.313-0.335-0.557-0.57c-0.574-0.553-1.771-1.705-1.727-2.505c0.031-0.551-0.392-1.023-0.943-1.054c-0.544-0.025-1.022,0.392-1.053,0.943c-0.011,0.201,0.004,0.396,0.033,0.589c-0.002,0.016-0.014,0.027-0.015,0.044c-0.087,1.438-1.191,2.716-1.191,2.716c-0.563,0.749-1.46,1.196-2.397,1.196c-0.434,0-0.853-0.091-1.239-0.267c-0.061,0.004-0.123,0.006-0.185,0.006c-0.474,0-0.947-0.114-1.369-0.331c-0.407-0.209-0.752-0.504-1.018-0.861c-0.507-0.273-0.925-0.687-1.206-1.205c-0.383-0.704-0.469-1.515-0.243-2.283c0,0,0.48-2.159,1.167-2.831c0.004-0.003,0.004-0.008,0.007-0.011c0.193-0.136,0.374-0.285,0.538-0.449c0.391-0.39,0.391-1.023,0-1.414s-1.023-0.391-1.414,0c-0.638,0.638-2.011,1.052-4.079,1.23l-0.209,0.019C11.543,9.03,4,17.389,4,27.457C4,38.233,12.767,47,23.543,47c5.221,0,10.128-2.033,13.819-5.724c3.69-3.691,5.724-8.6,5.723-13.819C43.085,22.94,41.508,18.535,38.645,15.052z M33.977,22.302c0.801-0.534,1.824-2.063,1.991-2.977c0.055-0.299,0.242-0.558,0.511-0.702c0.269-0.143,0.585-0.158,0.867-0.038c0.398,0.171,1.043,0.377,1.621,0.538c0.391,0.725,0.734,1.474,1.02,2.245c-0.572-0.041-1.576-0.305-2.409-0.575c-0.539,1.227-1.538,2.536-2.491,3.171c-0.171,0.114-0.363,0.168-0.554,0.168c-0.323,0-0.641-0.156-0.833-0.446C33.393,23.229,33.518,22.608,33.977,22.302z M25.576,32.166c0.032-0.001,3.228-0.177,4.915-0.821c0.487-0.182,1.035,0.034,1.26,0.505c0.777,1.635,2.383,3.016,2.399,3.029c0.419,0.358,0.471,0.989,0.112,1.409c-0.197,0.232-0.479,0.353-0.762,0.353c-0.229,0-0.458-0.078-0.646-0.237c-0.068-0.059-1.486-1.272-2.49-2.921c-1.975,0.533-4.558,0.675-4.683,0.682c-0.561,0.032-1.022-0.396-1.051-0.946C24.601,32.666,25.025,32.195,25.576,32.166z M11.554,27.353c0.463-0.297,1.083-0.165,1.381,0.298c0.398,0.613,1.503,1.894,2.377,1.938c0.294,0.016,0.566,0.16,0.744,0.394c0.178,0.234,0.244,0.535,0.18,0.822c0.012,0.21,0.435,0.988,0.662,1.406c0.275,0.507,0.535,0.984,0.664,1.414c0.159,0.529-0.142,1.087-0.671,1.245c-0.096,0.028-0.192,0.042-0.288,0.042c-0.43,0-0.828-0.279-0.958-0.713c-0.069-0.23-0.301-0.657-0.505-1.033c-0.33-0.606-0.648-1.192-0.802-1.754c-1.695-0.588-2.929-2.437-3.084-2.678C10.956,28.271,11.089,27.651,11.554,27.353z M21.4,22.61c0.087,0.304,0.169,0.591,0.229,0.854c0.124,0.538-0.212,1.075-0.75,1.199c-0.075,0.017-0.151,0.025-0.225,0.025c-0.456,0-0.867-0.313-0.974-0.776c-0.053-0.231-0.126-0.483-0.203-0.75c-0.24-0.837-0.522-1.822-0.496-2.856c-1.813-0.406-3.096-1.914-3.161-1.991c-0.354-0.423-0.299-1.054,0.125-1.409c0.422-0.354,1.052-0.3,1.407,0.122c0.354,0.417,1.528,1.477,2.681,1.37c0.331-0.027,0.653,0.105,0.863,0.361c0.21,0.256,0.28,0.599,0.187,0.917C20.817,20.579,21.127,21.658,21.4,22.61z"/></svg>