<?xml version="1.0" encoding="iso-8859-1"?><!-- Generator: Adobe Illustrator 20.1.0, SVG Export Plug-In . SVG Version: 6.00 Build 0)  --><svg xmlns="http://www.w3.org/2000/svg" xmlns:xlink="http://www.w3.org/1999/xlink" viewBox="0 0 50 50" width="50px" height="50px"><path d="M35.779,19.718l-5.497-5.497c-0.372-0.373-0.971-0.391-1.367-0.044L5.148,35.052c-0.294,0.258-0.41,0.665-0.298,1.039c0.031,0.104,0.793,2.563,3.645,5.414c2.851,2.851,5.31,3.613,5.413,3.644c0.095,0.029,0.192,0.042,0.288,0.042c0.283,0,0.559-0.121,0.751-0.34l20.876-23.767C36.172,20.688,36.152,20.09,35.779,19.718z"/><path d="M26.829,13.347L4.931,32.581c-3.069-4.458-3.865-7.489-3.901-7.635c-0.105-0.421,0.072-0.862,0.439-1.092l21.4-13.369c0.396-0.246,0.907-0.188,1.237,0.141L26.829,13.347z M39.374,25.893l-2.721-2.721L17.418,45.069c4.458,3.069,7.489,3.864,7.636,3.901C25.136,48.99,25.217,49,25.298,49c0.339,0,0.662-0.173,0.848-0.47l13.369-21.4C39.762,26.734,39.703,26.222,39.374,25.893z"/><path d="M19.16,7.931l1.547,1.547L2.501,20.851c-1.375-4.871-1.075-8.187-1.06-8.349c0.042-0.42,0.345-0.77,0.755-0.871l16.017-3.964C18.55,7.583,18.913,7.683,19.16,7.931z M42.07,30.84l-1.549-1.549L29.154,47.488c3.307,0.932,5.911,1.11,7.277,1.11c0.642,0,1.015-0.035,1.066-0.04c0.421-0.042,0.77-0.344,0.871-0.755l3.965-16.016C42.418,31.447,42.318,31.088,42.07,30.84z"/><path d="M15.992,6.156L4.114,9.096C4.241,5.602,4.963,0,9.076,0C10.777,0,12.757,2.117,15.992,6.156z M44.1,32.974l-3.177,12.834C46.638,45.219,50,42.031,50,38.927C50,37.134,47.8,35.459,44.1,32.974z"/></svg>