<?xml version="1.0" encoding="iso-8859-1"?>
<!-- Generator: Adobe Illustrator 27.2.0, SVG Export Plug-In . SVG Version: 6.00 Build 0)  -->
<svg version="1.1" baseProfile="basic" xmlns="http://www.w3.org/2000/svg" xmlns:xlink="http://www.w3.org/1999/xlink" x="0px"
	 y="0px" viewBox="0 0 50 50" xml:space="preserve">
<g id="Layer_2">
</g>
<g id="Layer_1">
</g>
<g id="&#x421;&#x43B;&#x43E;&#x439;_1">
</g>
<g id="&#x421;&#x43B;&#x43E;&#x439;_4">
</g>
<g id="Layer_6">
	<g>
		<path d="M41.6,21.94c-0.08,0.24-0.17,0.49-0.27,0.73C34.71,37.91,18.37,44.5,11.5,44.5c-3.11,0-5.99-1.41-7.91-3.88
			c-1.91-2.46-2.55-5.65-1.75-8.75c1.05-4.12,4.78-7.07,9.27-7.34c8.44-0.5,14.91-6.39,18.78-9.9c0.83-0.76,1.79-1.28,2.79-1.58
			c0.71,0.68,1.43,1.26,2.16,1.73l-1.23,1.24c-1.43,1.43-1.43,3.75,0,5.18c0.69,0.69,1.61,1.06,2.59,1.06c0.99,0,1.91-0.37,2.6-1.06
			l1.28-1.28C40.49,20.61,41,21.28,41.6,21.94z"/>
	</g>
	<path d="M45.82,18.65c0.66,0.65,0.66,1.71,0,2.36c-0.32,0.32-0.75,0.49-1.17,0.49c-0.43,0-0.85-0.17-1.18-0.49
		c-1.47-1.48-2.37-3.06-2.63-4.68l-3.45,3.45c-0.34,0.33-0.77,0.48-1.19,0.48c-0.43,0-0.85-0.15-1.18-0.48
		c-0.65-0.65-0.65-1.7,0-2.35l3.25-3.25c-1.5-0.41-2.98-1.35-4.43-2.8c-0.65-0.65-0.65-1.69,0-2.34c0.32-0.34,0.75-0.5,1.18-0.5
		s0.86,0.16,1.18,0.5c1.37,1.35,2.62,2.03,3.78,2.03h0.04C40.8,11.03,46,6.5,46,6.5V6.49C46.85,7,47.85,8,48.37,8.84
		c0,0-4.29,5.21-4.32,6.24C44.02,16.27,44.6,17.43,45.82,18.65z"/>
</g>
</svg>