<?xml version="1.0" encoding="iso-8859-1"?>
<!-- Generator: Adobe Illustrator 24.1.2, SVG Export Plug-In . SVG Version: 6.00 Build 0)  -->
<svg version="1.1" id="Layer_1" xmlns="http://www.w3.org/2000/svg" xmlns:xlink="http://www.w3.org/1999/xlink" x="0px" y="0px"
	 viewBox="0 0 50 50" style="enable-background:new 0 0 50 50;" xml:space="preserve">
<rect x="12.5" y="24" width="33" height="13"/>
<path d="M13.864,22H45.5c0-0.4-0.24-0.77-0.62-0.92l-15.343-6.394L13.864,22z"/>
<path d="M11.5,39c-0.552,0-1-0.448-1-1V22c0-0.389,0.225-0.742,0.577-0.906l15.962-7.449L21.7,11.42c-0.78-0.33-1.66-0.31-2.42,0.05
	L6.23,17.56c-1.05,0.49-1.73,1.55-1.73,2.71V41c0,1.65,1.35,3,3,3h37c0.55,0,1-0.45,1-1v-4H11.5z"/>
</svg>