<?xml version="1.0" encoding="utf-8"?><!-- Generator: Adobe Illustrator 15.0.0, SVG Export Plug-In . SVG Version: 6.00 Build 0)  --><!DOCTYPE svg PUBLIC "-//W3C//DTD SVG 1.1//EN" "http://www.w3.org/Graphics/SVG/1.1/DTD/svg11.dtd"><svg xmlns="http://www.w3.org/2000/svg" xmlns:xlink="http://www.w3.org/1999/xlink" viewBox="0 0 50 50" width="50px" height="50px"><path fill="none" stroke="#000000" stroke-width="2" stroke-linecap="round" stroke-linejoin="round" stroke-miterlimit="10" d="M7.255,41.417c0,0-1.66,0.429-3.034,1.965"/><path fill="none" stroke="#000000" stroke-width="2" stroke-linecap="round" stroke-linejoin="round" stroke-miterlimit="10" d="M8.54,43.08c-1.819,0.837-1.747,2.771-4.198,3.527"/><path fill="none" stroke="#000000" stroke-width="2" stroke-linecap="round" stroke-linejoin="round" stroke-miterlimit="10" d="M10.354,43.955c0,0-0.335,1.775-1.299,2.615"/><path d="M28.744,21.892l7.672-14.579l-3.538,0.642c-0.29,0.053-0.543,0.231-0.689,0.488l-1.218,2.132L27.364,22.24L28.744,21.892z"/><path d="M26.589,24.5c-0.044,0.022-0.103,0.033-0.167,0.042l-9.507,2.404c-3.137,3.093-9.103,8.977-9.61,9.481c-1.799,1.787-1.76,4.798,0.085,6.71c0.882,0.914,2.113,1.432,3.396,1.431c0.048,0,0.097,0,0.145-0.002c1.364-0.041,2.616-0.649,3.524-1.712c1.612-1.888,8.884-10.287,9.914-11.476l10.98-5.866c0.222-0.118,0.391-0.315,0.474-0.551l1.074-3.069L26.589,24.5z M12.935,41.556c-0.537,0.628-1.27,0.988-2.064,1.012c-0.79,0.017-1.517-0.275-2.041-0.818c-1.073-1.111-1.125-2.898-0.115-3.902c0.343-0.34,5.939-5.861,5.939-5.861L14,36l4.447-0.771L12.935,41.556z"/><path d="M34.747,15.605l11.69-13.569l-4.25,0.272c-0.256,0.017-0.495,0.13-0.67,0.319l-0.871,0.941l-6.534,12.416L34.747,15.605z"/><path d="M32.301,19.427l-0.95,1.805l7.977-2.018l3.406-2.723c0.243-0.194,0.382-0.489,0.376-0.8l-0.043-2.313L32.301,19.427z"/><polygon points="39.167,13.38 46.711,8.461 46.105,5.489 "/><path d="M25.094,22.815l2.691-8.706l-2.824,0.472c-0.306,0.051-0.572,0.242-0.718,0.517l-4.879,9.166L25.094,22.815z"/></svg>