<?xml version="1.0" encoding="utf-8"?><!-- Generator: Adobe Illustrator 18.1.1, SVG Export Plug-In . SVG Version: 6.00 Build 0)  --><svg xmlns="http://www.w3.org/2000/svg" xmlns:xlink="http://www.w3.org/1999/xlink" viewBox="0 0 50 50" width="50px" height="50px"><circle cx="11" cy="22" r="1.6"/><polyline fill="none" stroke="#000000" stroke-width="2" stroke-linecap="round" stroke-miterlimit="10" points="8,25 11,22 11,15 "/><g><path d="M13,40c2.2,0,4,1.8,4,4c0,2.2-1.8,4-4,4s-4-1.8-4-4C9,41.8,10.8,40,13,40 M13,38c-3.3,0-6,2.7-6,6s2.7,6,6,6s6-2.7,6-6S16.3,38,13,38L13,38z"/></g><g><path d="M39.2,40c2.2,0,4,1.8,4,4c0,2.2-1.8,4-4,4s-4-1.8-4-4C35.2,41.8,37,40,39.2,40 M39.2,38c-3.3,0-6,2.7-6,6s2.7,6,6,6s6-2.7,6-6S42.5,38,39.2,38L39.2,38z"/></g><path d="M28.2,15h-8.7c-2-2.4-5.1-4-8.5-4C4.9,11,0,15.9,0,22c0,2.3,0.7,4.5,2,6.3V42c0,1.6,1.4,3,3,3h3.1c0-0.3,0.5-6,4.9-6s5,5.7,4.9,6h10.2c1.6,0,2.8-1.3,2.8-2.8V17.9C31,16.3,29.7,15,28.2,15z M11,31c-5,0-9-4-9-9c0-5,4-9,9-9s9,4,9,9C20,27,16,31,11,31z"/><path d="M48.4,28.1L46.1,25l0,0l-1.9-2.5c-1-1.1-2.5-2.5-4.2-2.5h-6c-1.1,0-2,0.9-2,2v21c0,1.1,0.9,2,2,2h0c0,0,1.6-6,5-6c4.4,0,5,5.7,4.9,6H47c1.7,0,3-1.3,3-3v-9v-0.6C50,30.4,48.6,28.3,48.4,28.1z M38,33c-1,0-2-1-2-2c0-0.6,0-2.5,0-4c0-1.1,1-2,2-2c0.5,0,3.2,0,5.6,0l3.2,4.2c0.3,0.5,1.2,2,1.2,3.1V33C43.8,33,38.6,33,38,33z"/></svg>