<?xml version="1.0" encoding="utf-8"?><!-- Generator: Adobe Illustrator 19.2.0, SVG Export Plug-In . SVG Version: 6.00 Build 0)  --><svg xmlns="http://www.w3.org/2000/svg" xmlns:xlink="http://www.w3.org/1999/xlink" viewBox="0 0 50 50" width="50px" height="50px"><style type="text/css">.st0{fill:none;stroke:#000000;stroke-width:2;stroke-miterlimit:10;}</style><rect x="11" y="12" class="st0" width="28" height="5"/><g><path class="st0" d="M40,12H10c-0.6,0-1-0.4-1-1V5c0-0.6,0.4-1,1-1h30c0.6,0,1,0.4,1,1v6C41,11.6,40.6,12,40,12z"/><path class="st0" d="M36,12H14c-0.6,0-1-0.4-1-1V5c0-0.6,0.4-1,1-1h22c0.6,0,1,0.4,1,1v6C37,11.6,36.6,12,36,12z"/><path class="st0" d="M32,12H18c-0.6,0-1-0.4-1-1V5c0-0.6,0.4-1,1-1h14c0.6,0,1,0.4,1,1v6C33,11.6,32.6,12,32,12z"/><path class="st0" d="M28,12h-6c-0.6,0-1-0.4-1-1V5c0-0.6,0.4-1,1-1h6c0.6,0,1,0.4,1,1v6C29,11.6,28.6,12,28,12z"/><line class="st0" x1="25" y1="4" x2="25" y2="12"/></g><rect x="12" y="13" width="26" height="8"/><path d="M31.7,11H18.3C12.1,11,7,16.1,7,22.3V40c0,3.9,3.1,7,7,7h22c3.9,0,7-3.1,7-7V22.3C43,16.1,37.9,11,31.7,11z M35,36H15V26h20V36z"/></svg>