<?xml version="1.0" encoding="utf-8"?><!-- Generator: Adobe Illustrator 15.0.0, SVG Export Plug-In . SVG Version: 6.00 Build 0)  --><!DOCTYPE svg PUBLIC "-//W3C//DTD SVG 1.1//EN" "http://www.w3.org/Graphics/SVG/1.1/DTD/svg11.dtd"><svg xmlns="http://www.w3.org/2000/svg" xmlns:xlink="http://www.w3.org/1999/xlink" viewBox="0 0 50 50" width="50px" height="50px"><circle cx="21" cy="6" r="1"/><circle cx="23" cy="9" r="1"/><circle cx="19" cy="9" r="1"/><path fill="none" stroke="#000000" stroke-width="2" stroke-linecap="round" stroke-miterlimit="10" d="M34.8,5.5C36.2,6.5,37,7.7,37,9c0,3.3-5.4,6-12,6c-6.6,0-12-2.7-12-6c0-1.6,1.2-3,3.2-4.1"/><path fill="none" stroke="#000000" stroke-width="2" stroke-linecap="round" stroke-miterlimit="10" d="M13,9c3.8-5.8,7.9-8,8.6-8c0.7,0,2.6,1.9,4.6,2.5C27.9,4,29.1,3,30.2,3C32.1,3,36,5.6,36.9,9.6"/><path d="M8.402,13.627c0.191,0.686,0.382,1.371,0.526,1.909c0.047,0.192,0.119,0.38,0.189,0.568c2.303,3.124,8.8,5.459,15.874,5.459c8.124,0,14.238-3.404,16.295-6.291c0.53-1.31,0.998-2.794,1.382-4.422c0.349-1.353-0.017-2.817-1.028-4.123C39.886,4.463,36.495,3,33,3h-2.8c1.126,0,2.951,0.918,4.441,2.495L34.8,5.5C36.2,6.5,37,7.7,37,9c0,3.3-5.4,6-12,6c-6.6,0-12-2.7-12-6c0-1.6,1.2-3,3.2-4.1l0.029,0.001C16.941,4.15,17.625,3.519,18.253,3H16.6l-0.215,0.023c-0.255,0.056-6.271,1.409-8.23,4.553c-0.619,0.993-0.796,2.057-0.531,3.14C7.754,11.305,8.069,12.433,8.402,13.627z"/><path d="M47.998,32.591c-2.137,3.353-5.949,6.168-8.341,7.398c-0.146,0.075-0.303,0.11-0.456,0.11c-0.363,0-0.713-0.198-0.891-0.543c-0.252-0.491-0.059-1.094,0.433-1.347c3.426-1.762,9.67-7.045,8.741-11.263c-0.029-0.139-0.065-0.295-0.107-0.466c-0.635-2.27-2.095-6.4-4.822-9.587c-2.848,3.466-9.568,6.669-17.563,6.669c-8.261,0-15.429-2.841-17.871-6.844c-0.339,0.328-0.674,0.675-0.994,1.063c-0.002,0.002-0.003,0.004-0.005,0.006c-1.806,2.196-3.282,5.304-4.226,8.953c-0.068,0.314-0.136,0.628-0.192,0.951c-0.294,1.916,2.66,8.181,8.184,12.198c0.446,0.324,0.545,0.95,0.22,1.396c-0.195,0.27-0.5,0.412-0.81,0.412c-0.204,0-0.41-0.063-0.587-0.191c-2.948-2.144-5.388-5.036-6.987-7.763C1.437,34.662,1,36.392,1,38.5C1,44.948,11.542,50,25,50s24-5.052,24-11.5C49,38.467,48.912,35.418,47.998,32.591z M24,28.1c0-0.553,0.448-1,1-1c7.677,0,13.222-3.587,14.273-6.176c0.209-0.512,0.794-0.758,1.303-0.55c0.512,0.208,0.759,0.791,0.551,1.303C39.677,25.246,33.099,29.1,25,29.1C24.448,29.1,24,28.652,24,28.1z"/></svg>