<?xml version="1.0" encoding="iso-8859-1"?>
<!-- Generator: Adobe Illustrator 25.2.3, SVG Export Plug-In . SVG Version: 6.00 Build 0)  -->
<svg version="1.1" baseProfile="basic" xmlns="http://www.w3.org/2000/svg" xmlns:xlink="http://www.w3.org/1999/xlink" x="0px"
	 y="0px" viewBox="0 0 50 50" xml:space="preserve">
<path d="M27.4,20.92c-0.4,0.19-0.75,0.38-1.07,0.56C25.57,21.89,25.34,22,25,22s-0.57-0.11-1.33-0.53
	c-0.38-0.21-0.82-0.45-1.32-0.67L20.06,2.89c-0.17-1.37,0.8-2.62,2.17-2.8c1.36-0.17,2.62,0.8,2.79,2.17L27.4,20.92z"/>
<path d="M31.557,30.5c-3.596-1.751-4.644,2.424-8.057,2.5c-3.414,0.065-3.944-2.219-6.613-2.899
	c-2.765-0.713-6.179,2.582-6.73,3.133c0,0,1.883,8.798,6.506,11.83c3.157,2.07,15.095,0.442,15.095,0.442
	c6.948-2.084,8.063-12.423,8.063-12.423C37.228,29.917,36.2,32.762,31.557,30.5z"/>
<path style="fill:none;stroke:#000000;stroke-width:2;stroke-linecap:round;stroke-linejoin:round;stroke-miterlimit:10;" d="
	M16.409,46.01c-2.908-2.336-5.428-6.412-6.175-10.609c-0.976-5.205,0.72-10.802,5.096-11.957C21.447,21.831,21.885,25,25,25
	c3.115,0,3.553-3.169,9.669-1.556c4.376,1.155,6.072,6.751,5.096,11.957c-0.741,4.166-3.23,8.213-6.111,10.557"/>
<path d="M36.213,43.292L13.32,42.655c1.594,2.031-1.041,4.238-0.093,6.342c0,0,1.879,0,4.49,0c3.683,0,7.283,0,7.283,0
	s3.6,0,7.283,0c2.612,0,4.485,0,4.485,0C37.716,46.894,34.505,45.2,36.213,43.292z"/>
<path style="fill:none;stroke:#000000;stroke-width:2;stroke-linejoin:round;stroke-miterlimit:10;" d="M13.32,42.655
	c1.594,2.031-1.041,4.238-0.093,6.342c0,0,1.879,0,4.49,0c3.683,0,7.283,0,7.283,0s3.6,0,7.283,0c2.612,0,4.485,0,4.485,0
	c0.948-2.104-2.263-3.797-0.555-5.706"/>
<path style="fill:none;stroke:#000000;stroke-width:2;stroke-miterlimit:10;" d="M39.821,33.082c-2.593-3.165-3.62-0.32-8.264-2.582
	c-3.596-1.751-4.644,2.424-8.057,2.5c-3.414,0.065-3.944-2.219-6.613-2.899c-2.765-0.713-6.179,2.582-6.73,3.133"/>
</svg>