<?xml version="1.0" encoding="iso-8859-1"?>
<!-- Generator: Adobe Illustrator 23.0.6, SVG Export Plug-In . SVG Version: 6.00 Build 0)  -->
<svg version="1.1" id="Filled" xmlns="http://www.w3.org/2000/svg" xmlns:xlink="http://www.w3.org/1999/xlink" x="0px" y="0px"
	 viewBox="0 0 50 50" style="enable-background:new 0 0 50 50;" xml:space="preserve">
<line style="fill:none;stroke:#000000;stroke-width:2;stroke-linecap:round;stroke-linejoin:round;stroke-miterlimit:10;" x1="36" y1="5" x2="36" y2="21"/>
<line style="fill:none;stroke:#000000;stroke-width:2;stroke-linecap:round;stroke-linejoin:round;stroke-miterlimit:10;" x1="29.072" y1="17" x2="42.928" y2="9"/>
<line style="fill:none;stroke:#000000;stroke-width:2;stroke-linecap:round;stroke-linejoin:round;stroke-miterlimit:10;" x1="29.072" y1="9" x2="42.928" y2="17"/>
<line style="fill:none;stroke:#000000;stroke-width:2;stroke-linecap:round;stroke-linejoin:round;stroke-miterlimit:10;" x1="36" y1="29" x2="36" y2="37"/>
<line style="fill:none;stroke:#000000;stroke-width:2;stroke-linecap:round;stroke-linejoin:round;stroke-miterlimit:10;" x1="29.072" y1="33" x2="35" y2="29.577"/>
<line style="fill:none;stroke:#000000;stroke-width:2;stroke-linecap:round;stroke-linejoin:round;stroke-miterlimit:10;" x1="37" y1="29.577" x2="42.928" y2="33"/>
<path d="M44.048,17.005C44.652,15.797,45,14.44,45,13c0-4.962-4.037-9-9-9s-9,4.038-9,9c0,1.44,0.348,2.797,0.952,4.005
	C27.338,18.242,27,19.609,27,21c0,1.44,0.348,2.797,0.952,4.005C27.338,26.242,27,27.609,27,29c0,1.44,0.348,2.797,0.952,4.005
	C27.338,34.242,27,35.609,27,37c0,4.962,4.037,9,9,9s9-4.038,9-9c0-1.533-0.622-3.184-0.962-3.974C44.648,31.813,45,30.448,45,29
	c0-1.391-0.338-2.758-0.952-3.995C44.652,23.797,45,22.44,45,21C45,19.609,44.662,18.242,44.048,17.005z M36,6c3.859,0,7,3.14,7,7
	s-3.141,7-7,7s-7-3.14-7-7S32.141,6,36,6z M43,29c0,3.86-3.141,7-7,7s-7-3.14-7-7c0-0.683,0.111-1.358,0.305-2.006
	C30.954,28.834,33.34,30,36,30s5.046-1.166,6.695-3.006C42.889,27.642,43,28.317,43,29z"/>
<path d="M22.678,36.764c0.792-0.833,1.93-2.171,3.024-3.934c-0.001-0.003-0.002-0.01-0.003-0.013C25.24,31.592,25,30.314,25,29
	c0-1.348,0.263-2.71,0.765-3.991C25.257,23.727,25,22.382,25,21c0-1.348,0.263-2.71,0.765-3.991C25.257,15.727,25,14.382,25,13
	c0-1.298,0.238-2.538,0.652-3.694c-1.34-1.952-3.079-3.577-5.214-4.865C19.953,4.15,19.444,4.024,18.84,4
	c-0.131,0.001-0.257,0.027-0.385,0.044l0,0c-0.137,0.019-0.273,0.046-0.406,0.08c-0.162,0.046-0.323,0.093-0.477,0.166
	c-3.053,1.446-6.073,4.054-7.881,8.371C10.844,13.981,13.36,16,18,16c0.553,0,1,0.448,1,1s-0.447,1-1,1
	c-4.559,0-7.403-1.715-9.041-3.24C8.357,16.834,8,19.225,8,22c0,3.235,0.727,6.01,1.732,8.307c1.363,2.69,2.585,4.951,4.583,6.577
	C12.426,38.197,9,41.115,9,45c0,0.356,0.189,0.684,0.497,0.863c0.306,0.179,0.688,0.182,0.997,0.006C10.527,45.851,13.85,44,18.5,44
	c4.537,0,6.857,1.767,6.875,1.781C25.556,45.925,25.777,46,26,46c0.147,0,0.296-0.033,0.434-0.099C26.779,45.735,27,45.384,27,45
	C27,40.294,24.35,37.842,22.678,36.764z M16.5,13c-0.828,0-1.5-0.672-1.5-1.5s0.672-1.5,1.5-1.5s1.5,0.672,1.5,1.5
	S17.328,13,16.5,13z"/>
<path d="M6,22c0-2.674,0.317-4.99,0.835-7.026c-1.732,1.293-4.139,3.769-4.821,7.862c-0.022,0.135-0.017,0.274,0.017,0.407l2,6.953
	c0.089,0.358,0.371,0.636,0.73,0.726C4.84,30.941,4.92,30.95,5,30.95c0.281,0,0.555-0.119,0.747-0.333
	c0.009-0.01,0.568-0.598,1.518-1.07C6.512,27.394,6,24.876,6,22z"/>
</svg>