<?xml version="1.0" encoding="iso-8859-1"?>
<!-- Generator: Adobe Illustrator 25.2.3, SVG Export Plug-In . SVG Version: 6.00 Build 0)  -->
<svg version="1.1" baseProfile="basic" id="Layer_9"
	 xmlns="http://www.w3.org/2000/svg" xmlns:xlink="http://www.w3.org/1999/xlink" x="0px" y="0px" viewBox="0 0 50 50"
	 xml:space="preserve">
<path d="M25,40c9.02,0,16.84-2.78,21.48-7.08C42.55,39.49,34.4,44,25,44S7.45,39.49,3.52,32.92C8.16,37.22,15.98,40,25,40z"/>
<path d="M25,9C11.75,9,1,15.49,1,23.5c0,0.17,0,0.33,0.02,0.5C1.45,31.78,12.03,38,25,38s23.55-6.22,23.98-14
	C49,23.83,49,23.67,49,23.5C49,15.49,38.25,9,25,9z M20.151,17.653c0.033,0.23,0.079,0.458,0.152,0.682
	c0.419,1.286,1.468,2.314,2.955,2.894c0.119,0.046,0.242,0.069,0.363,0.069c0.399,0,0.777-0.242,0.932-0.637
	c0.201-0.514-0.054-1.094-0.568-1.295c-0.932-0.363-1.547-0.934-1.78-1.65c-0.22-0.675-0.08-1.455,0.394-2.194
	c0.706-1.101,2.396-1.91,3.7-1.309c0.335,0.155,0.77,0.529,0.89,1.074c0.142,0.642-0.167,1.432-0.893,2.285
	c-0.357,0.42-0.307,1.052,0.113,1.41c0.42,0.357,1.051,0.308,1.41-0.114c1.403-1.649,1.51-3.026,1.337-3.92
	c0.225-0.231,0.505-0.398,0.883-0.448c2.076-0.273,2.824,4.157,0.901,6.568c-0.109-0.006-0.209-0.031-0.321-0.031
	c-2.2,0-5.183,1.576-5.939,4.215c-0.48-0.826-1.29-1.695-2.66-2.431l-0.82-0.44l0,0c-0.038-0.057-0.071-0.116-0.112-0.173
	c-0.443-0.622-1.002-1.116-1.613-1.494C19.155,19.708,19.221,18.659,20.151,17.653z M16.321,32.584
	c-0.77-0.115-2.502-0.492-4.308-2.708c-1.296-1.597-1.769-3.169-1.923-4.276c-0.037-0.263-0.027-0.534,0.017-0.798
	c0.004-0.026,0.004-0.053,0.01-0.079c0.019-0.097,0.049-0.189,0.078-0.282c0.015-0.047,0.025-0.096,0.042-0.142
	c0.031-0.083,0.072-0.159,0.112-0.236c0.025-0.049,0.046-0.101,0.074-0.147c0.043-0.071,0.095-0.134,0.145-0.198
	c0.034-0.043,0.065-0.089,0.102-0.128c0.055-0.058,0.118-0.106,0.179-0.154c0.041-0.033,0.081-0.068,0.125-0.096
	c0.065-0.041,0.137-0.07,0.209-0.099c0.05-0.021,0.098-0.044,0.151-0.058c0.073-0.02,0.152-0.027,0.231-0.034
	c0.086-0.008,0.169-0.023,0.261-0.015c0.043,0.004,0.08,0.012,0.122,0.017c0.202,0.024,0.387,0.058,0.563,0.098
	c-0.064,0.266-0.107,0.54-0.1,0.824c0.02,0.894,0.439,2.208,2.325,3.395c0.47,0.296,1.086,0.154,1.38-0.313
	c0.294-0.467,0.153-1.085-0.313-1.379c-0.626-0.394-1.376-1.017-1.392-1.747c-0.018-0.776,0.724-1.499,1.118-1.772
	c1.118-0.774,2.955-0.257,3.931,1.111c0.563,0.792,0.777,1.626,0.6,2.349c-0.173,0.707-0.725,1.314-1.594,1.757
	c-0.492,0.251-0.688,0.853-0.437,1.345c0.176,0.347,0.527,0.546,0.892,0.546c0.152,0,0.308-0.035,0.453-0.109
	c1.772-0.903,2.408-2.165,2.628-3.063c0.072-0.294,0.107-0.594,0.114-0.897c2.461,2.079,0.748,4.916-1.405,6.235
	C19.732,32.134,18.14,32.851,16.321,32.584z M37.844,27.12c-0.465,3.86-2.98,5.472-5.647,5.799s-4.596-0.409-5.738-1.081
	c-1.053-0.62-1.715-2.045-0.868-2.93c0.024-0.025,0.05-0.041,0.074-0.063c0.379,0.345,0.825,0.633,1.321,0.816
	c0.415,0.153,0.832,0.228,1.242,0.228c1.106,0,2.17-0.547,3.032-1.592c0.352-0.426,0.291-1.056-0.135-1.408
	c-0.427-0.352-1.057-0.292-1.408,0.134c-0.634,0.769-1.32,1.024-2.04,0.76c-0.716-0.264-1.184-0.95-1.178-1.288
	c0.035-2.239,2.739-3.46,4.119-3.46c0.916,0,1.68,0.316,2.151,0.891c0.498,0.608,0.654,1.47,0.45,2.491
	c-0.108,0.542,0.243,1.068,0.784,1.176c0.545,0.108,1.068-0.243,1.177-0.785c0.321-1.605,0.014-3.079-0.865-4.15
	c-0.174-0.212-0.379-0.391-0.588-0.564C36.958,21.412,38.152,24.571,37.844,27.12z"/>
</svg>