<?xml version="1.0" encoding="iso-8859-1"?><!-- Generator: Adobe Illustrator 21.1.0, SVG Export Plug-In . SVG Version: 6.00 Build 0)  --><svg xmlns="http://www.w3.org/2000/svg" xmlns:xlink="http://www.w3.org/1999/xlink" viewBox="0 0 50 50" width="50px" height="50px"><path d="M41.788,8.259c-1.06-0.61-2.058-0.119-3.438,1.231C35.15,5.41,30.21,3,25,3C15.63,3,8,10.63,8,20v6h2v-6c0-8.27,6.73-15,15-15c4.72,0,9.19,2.25,12.01,6.02c-1.31,1.69-2.95,4.25-5.12,7.96l5.16,5.19c1.14-2.05,2.1-3.82,2.9-5.36C39.98,19.21,40,19.6,40,20v6h2v-6c0-1.1-0.17-2.95-0.51-4.34C43.484,11.25,43.398,9.189,41.788,8.259z M36.04,19.5c-0.92,0.13-1.25-0.69-0.91-1.37L37.76,18C37.42,18.68,36.96,19.37,36.04,19.5z M38.28,15.5c-0.93,0.13-1.26-0.69-0.91-1.37L40,14C39.65,14.68,39.2,15.37,38.28,15.5z"/><path d="M26,26c0-2.65-0.631-4.568-1.531-5.898L28.009,18l7.979,8H26z"/><path d="M24,26H12c0-5.3,2.8-6.5,4-6.9V11c0-0.6,0.4-1,1-1h2c0.6,0,1,0.4,1,1v8.1C21.2,19.5,24,20.8,24,26z"/><path d="M43,28H7c-1.1,0-2,0.9-2,2s0.9,2,2,2h1.03c0.36,6.35,4.09,12.25,9.53,14.9C17.7,46.97,17.85,47,18,47h14c0.15,0,0.3-0.03,0.44-0.1c5.44-2.65,9.17-8.55,9.53-14.9H43c1.1,0,2-0.9,2-2S44.1,28,43,28z M23,39h-7c-0.55,0-1-0.45-1-1s0.45-1,1-1h7c0.55,0,1,0.45,1,1S23.55,39,23,39z M31,43h-4c-0.55,0-1-0.45-1-1s0.45-1,1-1h4c0.55,0,1,0.45,1,1S31.55,43,31,43z M36,36h-7c-0.55,0-1-0.45-1-1s0.45-1,1-1h7c0.55,0,1,0.45,1,1S36.55,36,36,36z"/></svg>