<?xml version="1.0" encoding="iso-8859-1"?><!-- Generator: Adobe Illustrator 22.1.0, SVG Export Plug-In . SVG Version: 6.00 Build 0)  --><svg xmlns="http://www.w3.org/2000/svg" xmlns:xlink="http://www.w3.org/1999/xlink" viewBox="0 0 50 50" width="500px" height="500px"><circle cx="35" cy="13" r="1"/><circle cx="34.5" cy="23.5" r="1.5"/><circle cx="20.5" cy="25.5" r="1.5"/><circle cx="32.5" cy="37.5" r="1.5"/><circle cx="26" cy="32" r="1"/><circle cx="20" cy="13" r="1"/><circle cx="19" cy="39" r="1"/><circle cx="26.5" cy="18.5" r="1.5"/><path d="M27,4.003V4h-4C13.893,4,5,4.579,5,11.5c0,2.091,0.794,3.751,2.358,4.935C7.76,16.738,8,17.272,8,17.864V42c0,2.206,1.794,4,4,4h3.75H36h2.25c2.067,0,3.75-1.794,3.75-4V17.864c0-0.608,0.22-1.152,0.588-1.456C44.188,15.088,45,13.437,45,11.5C45,5.005,36.403,4.03,27,4.003z M41.314,14.865C40.491,15.545,40,16.666,40,17.864V42c0,1.103-0.785,2-1.75,2H36H15.75C14.785,44,14,43.103,14,42V17.864c0-1.198-0.491-2.319-1.314-2.999C11.551,13.93,11,12.829,11,11.5C11,7.542,15.369,6,26.583,6C38.09,6,43,7.645,43,11.5C43,12.829,42.449,13.93,41.314,14.865z"/></svg>