<?xml version="1.0" encoding="utf-8"?><!-- Generator: Adobe Illustrator 15.0.0, SVG Export Plug-In . SVG Version: 6.00 Build 0)  --><!DOCTYPE svg PUBLIC "-//W3C//DTD SVG 1.1//EN" "http://www.w3.org/Graphics/SVG/1.1/DTD/svg11.dtd"><svg xmlns="http://www.w3.org/2000/svg" xmlns:xlink="http://www.w3.org/1999/xlink" viewBox="0 0 50 50" width="50px" height="50px"><path d="M49.707,48.293l-8.125-8.125c0.002-0.003,0.005-0.006,0.007-0.009C43.211,37.021,44,33.371,44,29c0-14.364-9.589-29-19-29c-4.77,0-9.811,3.737-13.572,10.014L1.707,0.293c-0.391-0.391-1.023-0.391-1.414,0s-0.391,1.023,0,1.414l48,48C48.488,49.902,48.744,50,49,50s0.512-0.098,0.707-0.293C50.098,49.316,50.098,48.684,49.707,48.293z"/><path d="M9.51,13.752c-0.321,0.686-0.533,1.161-0.533,1.161C7.03,19.568,6,24.438,6,29c0,12.757,7.458,21,19,21c5.479,0,10.394-2.068,13.837-5.824c0,0,0.193-0.213,0.499-0.598L9.51,13.752z"/></svg>