<?xml version="1.0" encoding="iso-8859-1"?><!-- Generator: Adobe Illustrator 22.1.0, SVG Export Plug-In . SVG Version: 6.00 Build 0)  --><svg xmlns="http://www.w3.org/2000/svg" xmlns:xlink="http://www.w3.org/1999/xlink" viewBox="0 0 50 50" width="500px" height="500px"><path d="M27,4.003V4h-4C13.893,4,5,4.579,5,11.5c0,2.092,0.794,3.752,2.359,4.934C7.761,16.737,8,17.271,8,17.864V42c0,2.206,1.794,4,4,4h3.75H36h2.25c2.067,0,3.75-1.794,3.75-4V17.864c0-0.599,0.225-1.156,0.588-1.455C44.188,15.088,45,13.437,45,11.5C45,5.005,36.403,4.03,27,4.003z M41.315,14.866C40.491,15.545,40,16.665,40,17.864V42c0,1.103-0.785,2-1.75,2h-22.5C14.785,44,14,43.103,14,42V17.864c0-1.198-0.491-2.319-1.315-3C11.551,13.931,11,12.83,11,11.5C11,7.542,15.369,6,26.583,6C38.09,6,43,7.645,43,11.5C43,12.83,42.449,13.931,41.315,14.866z"/><path d="M27,32c-3.014,0-4.736-2.312-4.808-2.41c-0.326-0.446-0.228-1.072,0.218-1.397c0.447-0.326,1.072-0.228,1.397,0.218C23.853,28.471,25.022,30,27,30c1.979,0,3.147-1.529,3.196-1.595c0.328-0.439,0.955-0.534,1.396-0.207c0.442,0.327,0.539,0.947,0.215,1.392C31.736,29.688,30.014,32,27,32z"/><path d="M40.563,30H37c-0.553,0-1-0.447-1-1s0.447-1,1-1h3.563c0.553,0,1,0.447,1,1S41.116,30,40.563,30z"/><path d="M41,35h-4c-0.553,0-1-0.447-1-1s0.447-1,1-1h4c0.553,0,1,0.447,1,1S41.553,35,41,35z"/><path d="M17,30h-3.562c-0.552,0-1-0.447-1-1s0.448-1,1-1H17c0.552,0,1,0.447,1,1S17.552,30,17,30z"/><path d="M17,35h-4c-0.552,0-1-0.447-1-1s0.448-1,1-1h4c0.552,0,1,0.447,1,1S17.552,35,17,35z"/><circle cx="20" cy="23" r="2"/><circle cx="34" cy="23" r="2"/></svg>