<?xml version="1.0" encoding="iso-8859-1"?><!-- Generator: Adobe Illustrator 22.1.0, SVG Export Plug-In . SVG Version: 6.00 Build 0)  --><svg xmlns="http://www.w3.org/2000/svg" xmlns:xlink="http://www.w3.org/1999/xlink" viewBox="0 0 50 50" width="50px" height="50px"><path d="M35.477,48H14.523c-0.195,0-0.388-0.055-0.551-0.156C7.448,43.766,4,37.923,4,30.947C4,30.424,4.447,30,5,30h40c0.553,0,1,0.424,1,0.947c0,6.976-3.448,12.818-9.973,16.896C35.864,47.945,35.672,48,35.477,48z"/><path d="M26.92,15.432l0.835,0.072c4.67,0.414,8.306,1.101,10.95,2.067C38.876,17.132,39,16.607,39,16c0-5.235-5.52-6.552-10.328-7.113C23,8.224,23,6.99,23,6c0-0.741,0.529-1.924,0.863-2.494c0.195-0.336,0.18-0.756-0.042-1.075c-0.222-0.32-0.606-0.481-0.992-0.416C20.468,2.423,16,4.541,16,9.632C16.186,14.153,20.847,14.913,26.92,15.432z"/><path d="M20,23c2.688,0,4.838-0.266,6.917-0.522C28.903,22.231,30.779,22,33,22c3.747,0,6.789,0.44,8.992,1.247C41.994,23.164,42,23.088,42,23c0-2.725-5.122-4.68-14.422-5.504l-0.828-0.071c-4.867-0.416-11.387-0.985-12.561-6.351C12.204,12.034,10,13.996,10,17.5C10,20.841,13.925,23,20,23z"/><path d="M33,24c-2.098,0-3.914,0.225-5.838,0.462C25.023,24.727,22.812,25,20,25c-5.813,0-9.977-1.876-11.429-4.945C7.247,20.999,6,22.589,6,25c0,1.109,0.275,2.127,0.758,3H43.96c0.021-0.167,0.04-0.334,0.04-0.5C44,25.761,40.222,24,33,24z"/></svg>