<?xml version="1.0" encoding="utf-8"?><!-- Generator: Adobe Illustrator 15.0.0, SVG Export Plug-In . SVG Version: 6.00 Build 0)  --><!DOCTYPE svg PUBLIC "-//W3C//DTD SVG 1.1//EN" "http://www.w3.org/Graphics/SVG/1.1/DTD/svg11.dtd"><svg xmlns="http://www.w3.org/2000/svg" xmlns:xlink="http://www.w3.org/1999/xlink" viewBox="0 0 50 50" width="50px" height="50px"><path d="M25,0c-6.363,0-10.875,2.591-13.454,6.176c-0.106,0.843-0.022,1.757,0.318,3.134c0.244,0.986,1.044,1.759,2.025,2.367c1.508-1.947,4.127-4.271,8.107-4.382c0.337,1.115,0.596,2.623,0.504,4.558c-0.026,0.552,0.4,1.02,0.952,1.046c0.016,0,0.032,0.001,0.048,0.001c0.53,0,0.973-0.417,0.998-0.953c0.147-3.1-0.418-4.845-0.907-6.167c2.058,0.28,5.145,0.95,6.026,5.509c0.104,0.542,0.629,0.896,1.171,0.792c0.542-0.105,0.897-0.629,0.792-1.171c-0.275-1.424-0.753-2.568-1.34-3.516c2.8-0.163,4.96,0.907,6.155,3.038c0.997-0.558,1.682-1.051,1.963-2.12s0.203-1.453,0.138-2.752C36.305,2.56,32.3,0,25,0z"/><path fill="none" stroke="#000000" stroke-width="2" stroke-linecap="round" stroke-linejoin="round" stroke-miterlimit="10" d="M19.6,12.8c0,0,1.3,0.4,2.2,1.5"/><path d="M40.1,8.604c-0.267,3.396-4.75,4.671-9.243,5.813c-3.067,0.78-5.965,1.516-7.367,3.497c-2.185,3.018-4.79,8.31-4.79,16.386c0,5.887,1.921,13.514,7.336,15.632l0.194,0.075l0.208-0.008c1.454-0.056,5.035-0.228,6.857-0.618c2.396-0.479,4.246-2.484,4.491-4.82c0.135-0.837,3.313-20.595,3.313-30.536C41.172,11.066,40.333,9.125,40.1,8.604z M27,28c-1.104,0-2-0.896-2-2s0.896-2,2-2s2,0.896,2,2S28.104,28,27,28z M30,32c-0.553,0-1-0.447-1-1s0.447-1,1-1s1,0.447,1,1S30.553,32,30,32z"/><path d="M16.7,34.3c0-8.588,2.796-14.269,5.137-17.513c-1.191-0.533-2.562-0.955-3.98-1.386c-3.899-1.184-8.008-2.864-7.992-6.101l-0.518,1.685C9.021,12.21,9,13.918,9,14c0,6.494,3.174,29.559,3.305,30.5c0.246,2.452,2.182,4.501,4.731,4.986c0.748,0.125,3.006,0.28,5.16,0.388C18.204,46.329,16.7,39.866,16.7,34.3z"/></svg>