<?xml version="1.0" encoding="iso-8859-1"?>
<!-- Generator: Adobe Illustrator 22.1.0, SVG Export Plug-In . SVG Version: 6.00 Build 0)  -->
<svg version="1.1" id="Layer_1" xmlns="http://www.w3.org/2000/svg" xmlns:xlink="http://www.w3.org/1999/xlink" x="0px" y="0px"
	 viewBox="0 0 50 50" style="enable-background:new 0 0 50 50;" xml:space="preserve">
<path d="M15.39,39l-0.99,2.95C14,43.18,12.85,44,11.56,44H6.44C5.15,44,4,43.18,3.6,41.95L2.61,39H15.39z"/>
<path d="M31.39,39l-0.99,2.95C30,43.18,28.85,44,27.56,44h-5.12c-1.29,0-2.44-0.82-2.84-2.05L18.61,39H31.39z"/>
<path d="M47.39,39l-0.99,2.95C46,43.18,44.85,44,43.56,44h-5.12c-1.29,0-2.44-0.82-2.84-2.05L34.61,39H47.39z"/>
<path d="M3.056,29C3.249,27.301,3.977,25.444,5,23.932C6.2,22.159,7.733,21,9,21s2.8,1.159,4,2.932
	c1.019,1.506,1.744,3.402,1.941,5.068h4.115c0.193-1.699,0.921-3.556,1.944-5.068C22.2,22.159,23.733,21,25,21s2.8,1.159,4,2.932
	c1.019,1.506,1.744,3.402,1.941,5.068h4.115c0.193-1.699,0.921-3.556,1.944-5.068C38.2,22.159,39.733,21,41,21s2.8,1.159,4,2.932
	c1.019,1.506,1.744,3.402,1.941,5.068H49V11c0-2.761-2.239-5-5-5H6c-2.761,0-5,2.239-5,5v18H3.056z M30,9c0-0.552,0.447-1,1-1h4
	c0.553,0,1,0.448,1,1v1c0,0.552-0.447,1-1,1h-4c-0.553,0-1-0.448-1-1V9z M14,9c0-0.552,0.447-1,1-1h4c0.553,0,1,0.448,1,1v1
	c0,0.552-0.447,1-1,1h-4c-0.553,0-1-0.448-1-1V9z"/>
<path d="M48,37H2c-1.103,0-2-0.897-2-2v-2c0-1.103,0.897-2,2-2h46c1.103,0,2,0.897,2,2v2C50,36.103,49.103,37,48,37z"/>
</svg>