<?xml version="1.0" encoding="iso-8859-1"?><!-- Generator: Adobe Illustrator 19.2.0, SVG Export Plug-In . SVG Version: 6.00 Build 0)  --><svg xmlns="http://www.w3.org/2000/svg" xmlns:xlink="http://www.w3.org/1999/xlink" viewBox="0 0 50 50" width="50px" height="50px"><g ><path d="M49.9,27.5c0,0,0-0.1-0.1-0.1l-0.1-0.1c0,0-0.1,0-0.1-0.1c0,0-0.1,0-0.1-0.1L38,21.4V8c0-0.236-0.091-0.454-0.235-0.63C37.689,7.266,37.603,7.169,37.5,7.1c-0.095-0.063-0.2-0.099-0.308-0.122L25.447,1.105c-0.281-0.141-0.613-0.141-0.895,0L12.735,7.014C12.617,7.036,12.502,7.066,12.4,7.1C12.1,7.2,12,7.7,12,8v8v5.382L0.553,27.105C0.54,27.112,0.53,27.123,0.518,27.13c-0.014,0.008-0.03,0.011-0.044,0.02c-0.031,0.019-0.055,0.046-0.083,0.068c-0.03,0.024-0.061,0.045-0.088,0.072c-0.037,0.037-0.068,0.078-0.099,0.119c-0.021,0.029-0.045,0.055-0.064,0.086c-0.029,0.049-0.049,0.102-0.069,0.156c-0.011,0.029-0.026,0.055-0.034,0.085C0.014,27.821,0,27.909,0,28v14c0,0.379,0.214,0.725,0.553,0.895l12,6c0.014,0.007,0.031,0.004,0.046,0.011C12.727,48.962,12.862,49,13,49s0.273-0.038,0.401-0.095c0.015-0.006,0.031-0.004,0.046-0.011l11.571-5.785L36.6,48.9C36.7,49,36.9,49,37,49s0.3,0,0.4-0.1l6.9-3.4l5.1-2.6c0.3-0.2,0.6-0.5,0.6-0.9V28c0-0.1,0-0.2,0-0.3C49.9,27.6,49.9,27.5,49.9,27.5z M13,32.882L3.236,28L13,23.118L22.764,28L13,32.882z M24,14.618v11.764l-10-5V18V9.618L24,14.618z M25,3.118l9.74,4.87l-5.593,2.821L25,12.882L15.236,8L25,3.118z M2,29.618l10,5v11.764l-10-5V29.618z M36,36v1v4v5.4l-10-5V30v-0.414L30.9,32l5.1,2.5V36z M37,32.9L27.2,28l9.8-4.9l9.8,4.9L37,32.9z"/></g><g ></g></svg>