<?xml version="1.0" encoding="utf-8"?><!-- Generator: Adobe Illustrator 15.0.0, SVG Export Plug-In . SVG Version: 6.00 Build 0)  --><!DOCTYPE svg PUBLIC "-//W3C//DTD SVG 1.1//EN" "http://www.w3.org/Graphics/SVG/1.1/DTD/svg11.dtd"><svg xmlns="http://www.w3.org/2000/svg" xmlns:xlink="http://www.w3.org/1999/xlink" viewBox="0 0 50 50" width="50px" height="50px"><path d="M30.933,35.047c-1.152,1.374-3.369,2.625-5.216,2.625c-1.232,0-2.3-0.328-3.121-0.903c-2.135-1.479-2.217-4.353-0.164-7.309c0.307-0.461,0.912-1.141,1.326-1.498l-4.731-4.671c-2.4,2.2-3.5,4.6-4.3,6.2c-0.2,0.399-0.4,0.8-0.5,1c-7,0.7-11.7,5.6-13.4,13.899c0,0.4,0,0.7,0.3,0.9c1.5,1.6,6.1,3.4,10.7,3.4c4,0,7.6-1.301,10.3-3.601c3.9-0.2,8.9-2.7,12.7-6.2L30.933,35.047z M16.398,43.218c-1.016,0.677-2.625,1.101-4.234,1.101c-1.778,0-3.133-0.508-3.811-1.354c-0.423-0.678-0.677-1.439-0.508-2.286c0.169-1.271,1.186-2.71,2.625-3.726c1.101-0.763,2.625-1.271,4.065-1.271c1.354,0,2.456,0.508,3.048,1.271C18.854,38.729,18.6,41.693,16.398,43.218z"/><path d="M44.9,1.6C44.7,1.3,44.3,1.1,44,1.2c-0.4,0-0.7,0.3-0.8,0.6c-1.5,4.1-2.4,4.5-4.5,5.5c-1.101,0.5-2.5,1.2-4.2,2.4c-3.3,2.3-4.8,5.6-5.7,7.8c-0.3,0.6-0.6,1.4-0.8,1.6c-3,0.6-5.3,1.7-7.1,3l4.59,4.649c1.166-0.843,2.439-1.254,3.547-1.254c0.79,0,1.502,0.237,2.055,0.632c1.897,1.345,1.977,4.428,1.028,6.878l-0.136,0.323C30.525,31.851,36.3,37.7,36.3,37.7c1.7-2,3.101-4.101,3.601-6.4C44.1,28.4,47.2,23.7,48.3,18.2C49.4,12.4,48.2,6.3,44.9,1.6z M42.598,20.29c-0.821,1.642-2.627,2.627-4.516,2.627c-0.739,0-1.396-0.165-1.971-0.493c-1.888-1.067-2.217-3.53-0.821-6.075c1.067-1.888,3.12-3.366,4.927-3.366c0.492,0,0.985,0.082,1.396,0.328C43.746,14.461,43.829,17.909,42.598,20.29z"/><line fill="none" stroke="#000000" stroke-width="2" stroke-linecap="round" stroke-linejoin="round" stroke-miterlimit="10" x1="1" y1="1" x2="49" y2="49"/></svg>