<?xml version="1.0" encoding="iso-8859-1"?><!-- Generator: Adobe Illustrator 19.1.0, SVG Export Plug-In . SVG Version: 6.00 Build 0)  --><svg xmlns="http://www.w3.org/2000/svg" xmlns:xlink="http://www.w3.org/1999/xlink" viewBox="0 0 50 50" width="50px" height="50px"><path d="M45.899,8.72c0.033,0.578,0.051,1.148,0.051,1.681c0,1.66-0.658,3.183-2.012,4.654c-0.074,0.08-0.216,0.227-0.415,0.43c-4.679,4.798-7.777,8.874-9.208,12.114l-0.059,0.136c-1.698,3.976-7.644,15.256-20.259,15.258c-2.292,0-4.802-0.372-7.549-1.228l-0.195-0.061l-0.102-0.086l0,0l0.09,0.077l-0.038,0.029c0.169,0.222,4.11,5.277,11.514,5.276c0.229,0,0.462-0.005,0.697-0.015c7.083,0,10.287-3.218,12.66-5.602c2.482-2.493,4.605-6.039,6.141-10.255c0.917-2.539,3.681-7.702,5.376-10.043c0.613-0.847,1.22-1.52,1.805-2.171c1.388-1.542,2.586-2.873,2.586-5.269C46.983,11.942,46.546,9.999,45.899,8.72z"/><path d="M19,24c0.552,0,1-0.448,1-1c0-0.552-0.448-1-1-1s-1,0.448-1,1C18,23.552,18.448,24,19,24z M21,26c0.552,0,1-0.448,1-1c0-0.552-0.448-1-1-1s-1,0.448-1,1C20,25.552,20.448,26,21,26z M22,23c0.552,0,1-0.448,1-1c0-0.552-0.448-1-1-1s-1,0.448-1,1C21,22.552,21.448,23,22,23z M19,26c-0.552,0-1,0.448-1,1c0,0.552,0.448,1,1,1s1-0.448,1-1C20,26.448,19.552,26,19,26z M17,26c0.552,0,1-0.448,1-1c0-0.552-0.448-1-1-1s-1,0.448-1,1C16,25.552,16.448,26,17,26z M15,28c0.552,0,1-0.448,1-1c0-0.552-0.448-1-1-1s-1,0.448-1,1C14,27.552,14.448,28,15,28z M17,28c-0.552,0-1,0.448-1,1c0,0.552,0.448,1,1,1s1-0.448,1-1C18,28.448,17.552,28,17,28z M32.418,26.958l0.067-0.158c1.528-3.46,4.761-7.733,9.606-12.703c0.179-0.184,0.308-0.315,0.374-0.388c1.013-1.101,1.334-2.16,1.484-3.301c0.302-2.295,0.241-3.585-0.681-5.188C42.026,4.033,40.528,3,37.709,3c-2.522,0-4.968,1.605-7.556,3.312c-1.138,0.75-2.313,1.525-3.536,2.192c-1.703,0.93-5.807,3.067-9.428,4.952l-4.041,2.106C10.768,16.809,3,21.654,3,31.708c0,1.768,0.819,5.143,1.753,7.491c0.651,0.245,2.427,0.706,2.427,0.706C23.354,44.856,30.582,31.254,32.418,26.958z M16,23c4.448-3.448,10-4,10-4l-1.068,2.356c-2.208,5.667-5.407,8.531-6.68,9.499c-1.931,1.468-3.787,2.128-6.02,2.138l-0.909-0.049l-0.226-0.722C11.008,31.852,11,31.569,11,31.263C11,27.682,13.984,24.61,16,23z M14,31c0.552,0,1-0.448,1-1c0-0.552-0.448-1-1-1s-1,0.448-1,1C13,30.552,13.448,31,14,31z"/></svg>