<?xml version="1.0" encoding="utf-8"?><!-- Generator: Adobe Illustrator 15.0.0, SVG Export Plug-In . SVG Version: 6.00 Build 0)  --><!DOCTYPE svg PUBLIC "-//W3C//DTD SVG 1.1//EN" "http://www.w3.org/Graphics/SVG/1.1/DTD/svg11.dtd"><svg xmlns="http://www.w3.org/2000/svg" xmlns:xlink="http://www.w3.org/1999/xlink" viewBox="0 0 50 50" width="50px" height="50px"><path d="M49.422,19.712c-0.014,0.144-0.023,0.253-0.026,0.283C46.73,41.321,30.771,42.4,27.6,42.4c-5.49,0-10.642-2.128-14.507-5.993c-6.482-6.483-6.482-17.032,0-23.514c5.27-5.271,13.845-5.27,19.114,0c2.075,2.075,3.219,4.83,3.219,7.757s-1.144,5.682-3.219,7.757c-3.506,3.506-9.209,3.506-12.714,0c-2.871-2.871-2.871-7.543,0-10.414c2.375-2.375,6.239-2.375,8.614,0c1.988,1.989,1.988,5.225,0,7.214c-0.391,0.391-1.023,0.391-1.414,0c-0.391-0.39-0.391-1.023,0-1.414c1.209-1.209,1.209-3.177,0-4.386c-1.622-1.622-4.164-1.622-5.786,0c-2.127,2.127-2.127,5.459,0,7.586c2.726,2.725,7.159,2.726,9.886,0c1.697-1.698,2.633-3.95,2.633-6.343c0-2.393-0.936-4.646-2.633-6.343c-4.49-4.489-11.796-4.489-16.286,0c-5.702,5.703-5.702,14.983,0,20.686C17.994,38.48,22.644,40.4,27.6,40.4c4.042,0,17.416-1.487,19.809-20.625c0.002-0.026,0.212-2.24,0.409-4.892C43.907,6.24,35.154,0.2,25,0.2C11.215,0.2,0,11.325,0,25s11.215,24.8,25,24.8S50,38.675,50,25C50,23.185,49.797,21.417,49.422,19.712z M13,23.5c0-0.829,0.671-1.5,1.5-1.5s1.5,0.671,1.5,1.5S15.329,25,14.5,25S13,24.329,13,23.5z M15.5,31c-0.829,0-1.5-0.672-1.5-1.5s0.671-1.5,1.5-1.5s1.5,0.672,1.5,1.5S16.329,31,15.5,31z M33.5,34c-0.828,0-1.5-0.672-1.5-1.5s0.672-1.5,1.5-1.5s1.5,0.672,1.5,1.5S34.328,34,33.5,34z M40,33.5c0,0.828-0.672,1.5-1.5,1.5S37,34.328,37,33.5s0.672-1.5,1.5-1.5S40,32.672,40,33.5z M39,28.5c0,0.828-0.672,1.5-1.5,1.5S36,29.328,36,28.5s0.672-1.5,1.5-1.5S39,27.672,39,28.5z M35.5,9c0.828,0,1.5,0.671,1.5,1.5S36.328,12,35.5,12S34,11.329,34,10.5S34.672,9,35.5,9z M30.5,5C31.328,5,32,5.671,32,6.5S31.328,8,30.5,8S29,7.329,29,6.5S29.672,5,30.5,5z M13.5,43c-0.829,0-1.5-0.672-1.5-1.5s0.671-1.5,1.5-1.5s1.5,0.672,1.5,1.5S14.329,43,13.5,43z"/></svg>