<?xml version="1.0" encoding="utf-8"?><!-- Generator: Adobe Illustrator 15.0.0, SVG Export Plug-In . SVG Version: 6.00 Build 0)  --><!DOCTYPE svg PUBLIC "-//W3C//DTD SVG 1.1//EN" "http://www.w3.org/Graphics/SVG/1.1/DTD/svg11.dtd"><svg xmlns="http://www.w3.org/2000/svg" xmlns:xlink="http://www.w3.org/1999/xlink" viewBox="0 0 50 50" width="50px" height="50px"><rect fill="none" width="50" height="50"/><path d="M49.876,13.398c-0.302-2.061-1.148-3.688-2.292-4.475c0.72-1.628,0.574-2.985,0.224-3.953c-0.837-2.31-3.218-3.603-4.642-3.783C42.6,1.116,42.054,1.08,41.546,1.08c-3.015,0-4.865,1.22-6.265,3.162c-3.162-0.333-5.828,1.702-6.99,3.831c-0.286,0.525-0.612,1.181-0.984,1.931c-2.209,4.45-5.907,11.899-12.543,14.938c-4.385,2.006-7.181,4.57-8.348,7.616c-2.774,1.073-4.959,2.351-5.918,4.479c-0.81,1.798-0.632,3.974,0.544,6.654c0.722,1.644,2.437,3.603,6.506,3.603c1.233,0,2.564-0.201,3.905-0.513c1.788,1.431,3.765,2.162,5.988,2.162c5.167,0,11.649-3.917,20.098-11.992C50.039,25.001,50.331,16.499,49.876,13.398z M15.596,26.761c7.281-3.334,11.328-11.488,13.502-15.868c0.359-0.724,0.674-1.357,0.949-1.863c0.737-1.351,2.269-2.565,4.037-2.778c-0.61,1.208-1.161,2.563-1.744,4.009c-1.58,3.919-3.547,8.796-7.839,13.541c-3.661,4.045-9.098,5.79-13.896,7.328c-0.491,0.157-0.972,0.313-1.446,0.468C10.432,29.758,12.586,28.137,15.596,26.761z M36.156,35.506c-12.665,12.105-18.642,12.53-22.2,10.57c2.232-0.753,4.341-1.756,5.902-2.724l0.864-0.535l-0.549-0.855c-1.845-2.87-1.769-2.936,2.236-6.337c1.7-1.444,4.027-3.421,6.959-6.339c2.806-2.795,4.762-6.324,6.486-9.437c2.769-4.994,4.927-8.795,9.031-8.023l0.541,0.102l0.375-0.402c0.282-0.303,0.527-0.599,0.749-0.89c0.527,0.436,1.118,1.493,1.347,3.053C48.307,16.481,47.983,24.2,36.156,35.506z"/></svg>