<?xml version="1.0" encoding="utf-8"?><!-- Generator: Adobe Illustrator 15.0.0, SVG Export Plug-In . SVG Version: 6.00 Build 0)  --><!DOCTYPE svg PUBLIC "-//W3C//DTD SVG 1.1//EN" "http://www.w3.org/Graphics/SVG/1.1/DTD/svg11.dtd"><svg xmlns="http://www.w3.org/2000/svg" xmlns:xlink="http://www.w3.org/1999/xlink" viewBox="0 0 50 50" width="500px" height="500px"><path d="M41,34.6C41,39,35.6,44,25,44c-10.6,0-16-5-16-9.4V25c0,3.3,7.8,7,16,7s16-3.7,16-7V34.6z"/><path fill="none" stroke="#000000" stroke-width="2" stroke-linejoin="round" stroke-miterlimit="10" d="M9,19c0,3,0,19,0,22c0,4.4,7.2,8,16,8s16-3.6,16-8c0-3,0-19,0-22"/><path fill="none" stroke="#000000" stroke-width="2" stroke-linejoin="round" stroke-miterlimit="10" d="M41,19c0-1.9-1.3-3.6-3.5-5H25.625H12.5C10.3,15.4,9,17.1,9,19"/><path d="M37.5,14h-25C10.3,15.4,9,17.1,9,19c0,4.4,7.2,8,16,8s16-3.6,16-8C41,17.1,39.7,15.4,37.5,14z"/><path fill="none" stroke="#000000" stroke-width="2" stroke-linecap="round" stroke-miterlimit="10" d="M37.5,14c0.9-1.2,1.5-2.6,1.5-4c0-5-6.3-9-14-9s-14,4-14,9c0,1.4,0.5,2.8,1.5,4"/><path fill="none" stroke="#000000" stroke-width="2" stroke-linecap="round" stroke-linejoin="round" stroke-miterlimit="10" d="M33.7,14c0.899-0.9,1.3-1.9,1.3-3c0-3.3-4.5-6-10-6s-10,2.7-10,6c0,1.1,0.5,2.1,1.3,3"/></svg>