<?xml version="1.0" encoding="iso-8859-1"?><!-- Generator: Adobe Illustrator 20.0.0, SVG Export Plug-In . SVG Version: 6.00 Build 0)  --><svg xmlns="http://www.w3.org/2000/svg" xmlns:xlink="http://www.w3.org/1999/xlink" viewBox="0 0 50 50" width="50px" height="50px"><path style="fill:none;stroke:#000000;stroke-width:2;stroke-linecap:round;stroke-linejoin:round;stroke-miterlimit:10;" d="M49,25c0,3.071-8.163,12-17,12c-9.745,0-19.575-7.332-22.856-10.024C8.416,26.378,8,25.489,8,24.547v0c0-0.993,0.465-1.931,1.263-2.522C12.657,19.509,22.37,13,32,13C40.837,13,49,21.929,49,25z"/><path style="fill:none;stroke:#000000;stroke-width:2;stroke-linecap:round;stroke-linejoin:round;stroke-miterlimit:10;" d="M10,28c-2.96,0-4.067,5-9,5c0-4.95,2-8,2-8s-2-4.048-2-9c3.8,0,6.024,5,9.976,5"/><circle cx="41" cy="25" r="2"/><path style="fill:none;stroke:#000000;stroke-width:2;stroke-linecap:round;stroke-linejoin:round;stroke-miterlimit:10;" d="M35,13.346L31,7c-8.014,0-17,6-17,6l3,4"/><polyline style="fill:none;stroke:#000000;stroke-width:2;stroke-linecap:round;stroke-linejoin:round;stroke-miterlimit:10;" points="25,36 19,40 14,38 18,34 "/><g><path d="M33.5,25c0-4.201,2.275-8.007,5.942-10.039C37.146,13.787,34.605,13,32,13c-9.63,0-19.343,6.509-22.737,9.024C8.465,22.616,8,23.553,8,24.547c0,0.942,0.416,1.832,1.144,2.429C12.425,29.668,22.255,37,32,37c2.606,0,5.147-0.788,7.444-1.962C35.805,33.064,33.5,29.23,33.5,25z"/></g></svg>