<?xml version="1.0" encoding="iso-8859-1"?><!-- Generator: Adobe Illustrator 19.1.1, SVG Export Plug-In . SVG Version: 6.00 Build 0)  --><svg xmlns="http://www.w3.org/2000/svg" xmlns:xlink="http://www.w3.org/1999/xlink" viewBox="0 0 50 50" width="500px" height="500px"><g><path d="M19.448,29.382h-1.182v2.698h1.176c0.929,0,1.472-0.473,1.472-1.344C20.914,29.855,20.382,29.382,19.448,29.382z"/><polygon points="27.335,29.662 26.363,32.703 28.393,32.703 27.432,29.662 "/><path d="M47,11c-0.553,0-1,0.448-1,1v5h-0.017c0.002,0.564-0.142,1.122-0.465,1.625C44.955,19.499,44.036,20,42.996,20H7.005c-1.04,0-1.96-0.501-2.523-1.376C4.159,18.122,4.015,17.563,4.017,17H4v-5c0-0.552-0.448-1-1-1s-1,0.448-1,1v28c0,3.309,2.691,6,6,6h34c3.309,0,6-2.691,6-6V12C48,11.448,47.553,11,47,11z M11.146,36c-1.848,0-3.045-0.907-3.104-2.352h1.567c0.075,0.628,0.709,1.031,1.622,1.031c0.843,0,1.439-0.408,1.439-0.994c0-0.494-0.387-0.779-1.337-0.982l-1.01-0.215c-1.413-0.296-2.105-1.031-2.105-2.213c0-1.461,1.176-2.423,2.965-2.423c1.708,0,2.917,0.956,2.965,2.337h-1.525c-0.075-0.613-0.645-1.021-1.429-1.021c-0.811,0-1.348,0.377-1.348,0.967c0,0.479,0.371,0.752,1.278,0.945l0.935,0.199c1.558,0.328,2.229,0.999,2.229,2.202C14.288,35.044,13.09,36,11.146,36z M19.797,33.395h-1.531v2.406h-1.622V28.05h3.233c1.595,0,2.686,1.069,2.686,2.681C22.563,32.326,21.43,33.395,19.797,33.395z M29.322,35.802l-0.585-1.848h-2.723l-0.596,1.848H23.79l2.691-7.751h1.907l2.69,7.751H29.322z M41.432,35.801h-1.504v-5.183h-0.086l-1.971,4.736h-1.08l-1.977-4.736h-0.086v5.183h-1.503V28.05h1.912l2.144,5.211h0.097l2.148-5.211h1.906V35.801z"/></g><g><path d="M39,10c-0.62,0-1,0.324-1,0.5s0.38,0.5,1,0.5s1-0.324,1-0.5S39.62,10,39,10z"/><path d="M36,10.5c0-0.172,0.021-0.339,0.059-0.5H33v1h3.059C36.021,10.839,36,10.672,36,10.5z"/><path d="M47.547,9.931l-0.831-1.828C45.584,5.611,43.083,4,40.344,4H9.656c-2.739,0-5.24,1.611-6.372,4.103L2.453,9.932c-0.707,1.554-0.577,3.339,0.348,4.775C3.725,16.143,5.297,17,7.005,17h35.991c1.708,0,3.279-0.857,4.203-2.293C48.124,13.271,48.254,11.486,47.547,9.931z M39,13h-7c-0.553,0-1-0.448-1-1V9c0-0.552,0.447-1,1-1h7c1.683,0,3,1.098,3,2.5S40.683,13,39,13z"/></g></svg>