<?xml version="1.0" encoding="iso-8859-1"?>
<!-- Generator: Adobe Illustrator 23.0.3, SVG Export Plug-In . SVG Version: 6.00 Build 0)  -->
<svg version="1.1" xmlns="http://www.w3.org/2000/svg" xmlns:xlink="http://www.w3.org/1999/xlink" x="0px" y="0px"
	 viewBox="0 0 50 50" style="enable-background:new 0 0 50 50;" xml:space="preserve">
<g id="Layer_10" style="display:none;">
</g>
<g id="filled">
</g>
<g id="outlined">
</g>
<g id="rounded">
</g>
<g id="two_x5F_tone">
</g>
<g id="sharp">
</g>
<g id="win10">
</g>
<g id="color">
</g>
<g id="ios_x5F_out">
</g>
<g id="ios_x5F_filled">
	<path d="M34.11,37.26c-1.58,3.09-4.01,4.76-6.65,4.76c-0.41,0-0.83-0.04-1.25-0.12c0.43-1.11,0.61-2.27,0.54-3.45
		c0.03-0.03,0.04-0.06,0.06-0.09l5.73-11.22c0.25-0.49,0.06-1.1-0.44-1.35c-0.49-0.25-1.09-0.05-1.34,0.44l-4.73,9.26
		c-0.56-1.33-1.44-2.63-2.65-3.84c-0.38-0.38-0.87-0.81-1.46-1.27c0.87-1.5,2.46-3.54,4.37-5.13c2.67-2.21,5.1-2.85,7.04-1.86
		C37.71,25.63,35.66,34.22,34.11,37.26z"/>
	<path d="M22.671,43.671c-1.389,1.389-3.024,2.077-4.721,2.077c-1.977,0-4.036-0.935-5.886-2.784
		c-1.212-1.212-2.896-3.588-3.929-6.163c-1.286-3.214-1.15-5.729,0.394-7.271c1.543-1.543,4.058-1.68,7.271-0.394
		c2.575,1.032,4.951,2.717,6.163,3.929C25.4,36.501,25.678,40.664,22.671,43.671z M20.762,41.762c0.391-0.391,0.391-1.023,0-1.414
		l-8.909-8.909c-0.391-0.391-1.023-0.391-1.414,0s-0.391,1.023,0,1.414l8.909,8.909c0.195,0.195,0.451,0.293,0.707,0.293
		S20.566,41.957,20.762,41.762z"/>
	<path d="M20.575,24.936c-1.172,0.688-2.374,1.033-3.559,1.033c-0.744,0-1.481-0.137-2.198-0.411
		c-1.682-0.645-3.178-2.021-4.327-3.983c-0.867-1.479-1.897-4.203-2.246-6.956c-0.434-3.434,0.332-5.832,2.216-6.936
		c1.883-1.104,4.351-0.602,7.135,1.454c2.232,1.648,4.106,3.879,4.973,5.357C25.026,18.687,24.243,22.785,20.575,24.936z
		 M19.21,22.605c0.477-0.279,0.636-0.892,0.356-1.368l-6.372-10.869c-0.279-0.477-0.892-0.639-1.368-0.356
		c-0.477,0.279-0.636,0.892-0.356,1.368l6.372,10.869c0.186,0.317,0.52,0.494,0.863,0.494C18.877,22.743,19.051,22.699,19.21,22.605
		z"/>
	<path d="M45.573,15.356c-0.946,2.714-4.345,3.549-7.649,3.549c-2.347,0-4.646-0.421-5.985-0.888
		c-2.147-0.748-3.788-1.95-4.746-3.475c-1.058-1.686-1.232-3.68-0.505-5.769c1.4-4.016,5.267-5.579,9.857-3.978
		C39.771,5.921,47.191,10.713,45.573,15.356z M43.023,14.468c0.182-0.521-0.094-1.092-0.615-1.273L30.511,9.048
		c-0.523-0.183-1.092,0.094-1.273,0.615s0.094,1.092,0.615,1.273l11.897,4.146c0.109,0.038,0.22,0.056,0.329,0.056
		C42.493,15.139,42.88,14.881,43.023,14.468z"/>
</g>
<g id="cute-color">
</g>
<g id="cute-out">
</g>
<g id="plasticine">
</g>
<g id="carbon_copy">
</g>
</svg>