<?xml version="1.0" encoding="iso-8859-1"?>
<!-- Generator: Adobe Illustrator 21.1.0, SVG Export Plug-In . SVG Version: 6.00 Build 0)  -->
<svg version="1.1" id="Layer_1" xmlns="http://www.w3.org/2000/svg" xmlns:xlink="http://www.w3.org/1999/xlink" x="0px" y="0px"
	 viewBox="0 0 50 50" style="enable-background:new 0 0 50 50;" xml:space="preserve">
<path d="M12,17c-0.55,0-1-0.45-1-1s0.45-1,1-1h10.42L21,13.59V13c0-1.65-1.35-3-3-3h-0.23h-2.34H8c-1.65,0-3,1.35-3,3v0.59L3.58,15
	H8c0.55,0,1,0.45,1,1s-0.45,1-1,1H3v16h5c0.55,0,1,0.45,1,1s-0.45,1-1,1H3.58L5,36.41V37c0,1.1,0.9,2,2,2h6v-4h-1
	c-0.55,0-1-0.45-1-1s0.45-1,1-1h1v-1c0-2.21,1.79-4,4-4h6V17H12z"/>
<path d="M26,6c0,0.55-0.45,1-1,1h-5.43l-1.2,2h-2.34l2.11-3.51C18.32,5.18,18.65,5,19,5h6C25.55,5,26,5.45,26,6z"/>
<path d="M44,30H18c-1.65,0-3,1.35-3,3v2v7c0,1.65,1.35,3,3,3h26c1.65,0,3-1.35,3-3v-9C47,31.35,45.65,30,44,30z M45,39h-4.06
	c-1.3,1.28-3.58,1.28-4.88,0h-6.12c-1.03,1.01-2.68,1.27-3.96,0.65C25.23,40.5,24.15,41,23,41c-1.44,0-2.75-0.78-3.45-2H17v-3h28V39
	z"/>
</svg>