<?xml version="1.0" encoding="iso-8859-1"?>
<!-- Generator: Adobe Illustrator 23.0.3, SVG Export Plug-In . SVG Version: 6.00 Build 0)  -->
<svg version="1.1" id="Layer_1" xmlns="http://www.w3.org/2000/svg" xmlns:xlink="http://www.w3.org/1999/xlink" x="0px" y="0px"
	 viewBox="0 0 50 50" style="enable-background:new 0 0 50 50;" xml:space="preserve">
<g>
	<path d="M46,45V23c0.552,0,1-0.447,1-1s-0.448-1-1-1h-2.556C43.788,20.409,44,19.732,44,19c0-2.206-1.794-4-4-4
		c-1.2,0-2.266,0.542-3,1.382c-0.119-0.136-0.246-0.263-0.382-0.382C37.458,15.266,38,14.2,38,13c0-2.206-1.794-4-4-4
		c-1.2,0-2.266,0.542-3,1.382c-0.119-0.136-0.246-0.263-0.382-0.382C31.458,9.266,32,8.2,32,7c0-2.206-1.794-4-4-4
		c-1.2,0-2.266,0.542-3,1.382C24.266,3.542,23.2,3,22,3c-2.206,0-4,1.794-4,4c0,1.2,0.542,2.266,1.382,3
		c-0.136,0.119-0.263,0.246-0.382,0.382C18.266,9.542,17.2,9,16,9c-2.206,0-4,1.794-4,4c0,1.2,0.542,2.266,1.382,3
		c-0.136,0.119-0.263,0.246-0.382,0.382C12.266,15.542,11.2,15,10,15c-2.206,0-4,1.794-4,4c0,0.732,0.212,1.409,0.556,2H4
		c-0.552,0-1,0.447-1,1s0.448,1,1,1v22c-0.552,0-1,0.447-1,1s0.448,1,1,1h42c0.552,0,1-0.447,1-1S46.552,45,46,45z M22,17
		c1.103,0,2,0.897,2,2s-0.897,2-2,2s-2-0.897-2-2S20.897,17,22,17z M30,19c0,1.103-0.897,2-2,2s-2-0.897-2-2s0.897-2,2-2
		S30,17.897,30,19z M13.865,33.826c1.322-3.56,4.859-5.951,8.802-5.951c3.668,0,6.959,2.083,8.469,5.236l4.037-4.417
		c0.14-0.153,0.358-0.203,0.55-0.129s0.319,0.26,0.319,0.466v9.938c0,0.206-0.127,0.392-0.319,0.466
		c-0.059,0.023-0.12,0.034-0.181,0.034c-0.138,0-0.272-0.057-0.369-0.163l-4.037-4.417c-1.509,3.153-4.801,5.236-8.469,5.236
		c-3.943,0-7.48-2.392-8.802-5.951C13.823,34.062,13.823,33.938,13.865,33.826z M40,17c1.103,0,2,0.897,2,2s-0.897,2-2,2
		s-2-0.897-2-2S38.897,17,40,17z M36,19c0,1.103-0.897,2-2,2s-2-0.897-2-2s0.897-2,2-2S36,17.897,36,19z M34,11c1.103,0,2,0.897,2,2
		s-0.897,2-2,2s-2-0.897-2-2S32.897,11,34,11z M30,13c0,1.103-0.897,2-2,2s-2-0.897-2-2s0.897-2,2-2S30,11.897,30,13z M28,5
		c1.103,0,2,0.897,2,2s-0.897,2-2,2s-2-0.897-2-2S26.897,5,28,5z M20,7c0-1.103,0.897-2,2-2s2,0.897,2,2s-0.897,2-2,2S20,8.103,20,7
		z M22,11c1.103,0,2,0.897,2,2s-0.897,2-2,2s-2-0.897-2-2S20.897,11,22,11z M14,13c0-1.103,0.897-2,2-2s2,0.897,2,2s-0.897,2-2,2
		S14,14.103,14,13z M16,17c1.103,0,2,0.897,2,2s-0.897,2-2,2s-2-0.897-2-2S14.897,17,16,17z M8,19c0-1.103,0.897-2,2-2s2,0.897,2,2
		s-0.897,2-2,2S8,20.103,8,19z"/>
	<circle cx="19" cy="34" r="1"/>
</g>
</svg>