<?xml version="1.0" encoding="iso-8859-1"?><!-- Generator: Adobe Illustrator 21.1.0, SVG Export Plug-In . SVG Version: 6.00 Build 0)  --><svg xmlns="http://www.w3.org/2000/svg" xmlns:xlink="http://www.w3.org/1999/xlink" viewBox="0 0 50 50" width="50px" height="50px"><path style="fill:none;stroke:#000000;stroke-width:2;stroke-linejoin:round;stroke-miterlimit:10;" d="M29.793,7C29.926,6.657,30,6.288,30,5.9c0-0.1,0-0.2,0-0.3c-0.6-0.3-1-1-1-1.7c0-0.1,0-0.1,0-0.2c-0.4-0.3-0.8-0.6-1.3-0.7c-0.4,0.5-1,0.9-1.7,0.9c-0.3,0-0.7-0.1-1-0.3c-0.6,0.6-1,1.4-1,2.3"/><path style="fill:none;stroke:#000000;stroke-width:2;stroke-linecap:round;stroke-linejoin:round;stroke-miterlimit:10;" d="M31,12.2c0.6-0.6,1-1.4,1-2.3c0-0.1,0-0.2,0-0.3c-0.6-0.3-1-1-1-1.7c0-0.1,0-0.1,0-0.2c-0.4-0.3-0.8-0.6-1.3-0.7c-0.4,0.5-1,0.9-1.7,0.9c-0.3,0-0.7-0.1-1-0.3c-0.6,0.6-1,1.4-1,2.3"/><path style="fill:none;stroke:#000000;stroke-width:2;stroke-linejoin:round;stroke-miterlimit:10;" d="M23.027,6.151c0.1-0.8-0.2-1.7-0.9-2.3c-1-1-2.5-1.1-3.7-0.4c0.1,0.6,0,1.3-0.5,1.8c-0.2,0.2-0.5,0.4-0.9,0.5c-0.1,0.8,0.073,1.862,0.549,2.658c0,0,0.424,0.733,0.804,0.968"/><path style="fill:none;stroke:#000000;stroke-width:2;stroke-linecap:round;stroke-linejoin:round;stroke-miterlimit:10;" d="M36.6,14c0.3-0.4,0.4-0.9,0.4-1.4c0-0.1,0-0.2,0-0.3c-0.6-0.4-1-1-1-1.7c0-0.1,0-0.1,0-0.2c-0.4-0.3-0.8-0.6-1.3-0.7c-0.4,0.6-1,0.9-1.7,0.9"/><path style="fill:none;stroke:#000000;stroke-width:2;stroke-linecap:round;stroke-linejoin:round;stroke-miterlimit:10;" d="M25.6,10.118c0.3-0.4,0.4-0.9,0.4-1.4c0-0.1,0-0.2,0-0.3c-0.6-0.4-1-1-1-1.7c0-0.1,0-0.1,0-0.2c-0.4-0.3-0.8-0.6-1.3-0.7c-0.4,0.6-1,0.9-1.7,0.9c-0.3,0-0.7-0.1-1-0.3c-0.6,0.6-1,1.4-1,2.3c0,0.6,0.375,1.7,1,2.282"/><path style="fill:none;stroke:#000000;stroke-width:2;stroke-linecap:round;stroke-linejoin:round;stroke-miterlimit:10;" d="M33,15.3c0-0.1,0-0.2,0-0.3c-0.6-0.4-1-1-1-1.7c0-0.1,0-0.1,0-0.2c-0.4-0.3-0.8-0.6-1.3-0.7c-0.4,0.6-1,0.9-1.7,0.9c-0.3,0-0.7-0.1-1-0.3c-0.6,0.6-1,1.4-1,2.3"/><path style="fill:none;stroke:#000000;stroke-width:2;stroke-linecap:round;stroke-linejoin:round;stroke-miterlimit:10;" d="M20,9.7c-0.4-0.3-0.8-0.6-1.3-0.7c-0.4,0.6-1,0.9-1.7,0.9c-0.3,0-0.7-0.1-1-0.3c-0.6,0.6-1,1.4-1,2.3c0,2.1,0.824,2.699,1,3.1"/><path style="fill:none;stroke:#000000;stroke-width:2;stroke-linecap:round;stroke-linejoin:round;stroke-miterlimit:10;" d="M17.781,14.703C19.578,14.797,20,12.751,20,12.751c0.4-0.1,0.7-0.3,0.9-0.5c0.5-0.5,0.6-1.2,0.5-1.8c1.2-0.7,2.7-0.6,3.7,0.4C25.8,11.451,26,13,26,14"/><path d="M41,23c0-2.206-1.794-4-4-4c-1.201,0-2.266,0.542-3,1.382C33.266,19.542,32.201,19,31,19s-2.266,0.542-3,1.382C27.266,19.542,26.201,19,25,19s-2.266,0.542-3,1.382C21.266,19.542,20.201,19,19,19s-2.266,0.542-3,1.382C15.266,19.542,14.201,19,13,19c-2.206,0-4,1.794-4,4c0,0.053,0.004,0.105,0.013,0.158l4,24C13.09,47.644,13.509,48,14,48h22c0.491,0,0.91-0.356,0.987-0.842l4-24c0.004-0.027-0.005-0.052-0.003-0.079C40.986,23.052,41,23.028,41,23z M16.305,46l-2.118-19.895c-0.059-0.549,0.339-1.041,0.889-1.1c0.541-0.061,1.041,0.34,1.1,0.889L18.316,46H16.305z M21.598,46l-1.597-19.952c-0.026-0.552,0.399-1.021,0.951-1.047c0.539-0.036,1.021,0.398,1.047,0.951L23.601,46H21.598z M26.609,46l1.211-20.039c0.021-0.552,0.494-0.978,1.038-0.96c0.552,0.021,0.981,0.486,0.96,1.038L28.61,46H26.609z M33.607,46h-2.011l2.045-20.102c0.057-0.549,0.53-0.934,1.097-0.894c0.549,0.057,0.949,0.547,0.894,1.097L33.607,46z"/><g><path d="M12.406,17.03c0.316-0.421,0.516-0.899,0.575-1.406c0.016-0.011,0.031-0.021,0.048-0.031C13.565,16.054,14.242,16.3,15,16.3c0.106,0,0.213-0.012,0.321-0.025C15.121,16.462,15,16.721,15,17v0.3c0,0.022,0.004,0.043,0.004,0.065c0.343,0.124,0.68,0.268,0.996,0.454c0.367-0.215,0.76-0.379,1.163-0.511c0.455-0.482,0.746-1.06,0.819-1.683c0.016-0.011,0.031-0.021,0.048-0.031c0.696,0.599,1.667,0.87,2.658,0.618C20.892,16.552,21,16.925,21,17.3c0,0.019-0.009,0.041-0.009,0.06c0.348,0.125,0.689,0.271,1.009,0.458c0.32-0.188,0.661-0.333,1.009-0.458C23.009,17.34,23,17.319,23,17.3c0-0.375,0.108-0.748,0.313-1.089c0.991,0.251,1.963-0.021,2.658-0.618c0.017,0.01,0.032,0.021,0.048,0.031c0.073,0.624,0.364,1.201,0.819,1.683c0.403,0.132,0.795,0.296,1.163,0.511c0.316-0.185,0.653-0.329,0.996-0.454c0-0.022,0.004-0.042,0.004-0.065V17c0-0.334-0.167-0.646-0.444-0.832C28.348,16.03,28,15.732,28,15.3v-0.2c0-0.315-0.151-0.614-0.403-0.803c-0.46-0.344-0.98-0.733-1.701-0.877c-0.4-0.085-0.802,0.089-1.027,0.425C24.661,14.155,24.386,14.3,24,14.3c-0.119,0-0.323-0.05-0.444-0.132c-0.397-0.263-0.925-0.213-1.263,0.125c-0.11,0.11-0.196,0.234-0.293,0.352c-0.097-0.118-0.183-0.242-0.293-0.352c-0.338-0.338-0.865-0.389-1.263-0.125C20.323,14.25,20.119,14.3,20,14.3c-0.386,0-0.661-0.145-0.868-0.455c-0.226-0.336-0.627-0.509-1.027-0.425c-0.638,0.127-1.116,0.447-1.539,0.759c-0.327-0.225-0.769-0.245-1.121-0.011C15.323,14.25,15.119,14.3,15,14.3c-0.386,0-0.661-0.145-0.868-0.455c-0.226-0.336-0.628-0.509-1.027-0.425c-0.721,0.144-1.241,0.533-1.704,0.879C11.148,14.488,11,14.784,11,15.1v0.2c0,0.433-0.348,0.73-0.556,0.868C10.167,16.354,10,16.666,10,17v0.3c0,0.171,0.014,0.333,0.032,0.492C10.746,17.384,11.549,17.115,12.406,17.03z"/><path d="M33.01,17.367C33.008,17.347,33,17.318,33,17.3c0-0.375,0.108-0.748,0.313-1.089c0.991,0.251,1.963-0.021,2.658-0.618c0.017,0.01,0.032,0.021,0.048,0.031c0.059,0.506,0.259,0.984,0.574,1.404C36.728,17.018,36.863,17,37,17c0.701,0,1.371,0.127,1.997,0.349c0-0.017,0.003-0.032,0.003-0.049V17c0-0.334-0.167-0.646-0.444-0.832C38.348,16.03,38,15.732,38,15.3v-0.2c0-0.315-0.151-0.614-0.403-0.803c-0.46-0.344-0.98-0.733-1.701-0.877c-0.403-0.085-0.803,0.089-1.027,0.425C34.661,14.155,34.386,14.3,34,14.3c-0.119,0-0.323-0.05-0.444-0.132c-0.397-0.263-0.925-0.213-1.263,0.125c-0.758,0.758-1.187,1.712-1.262,2.709C31.713,17.006,32.379,17.138,33.01,17.367z"/></g></svg>