<?xml version="1.0" encoding="utf-8"?><!-- Generator: Adobe Illustrator 15.0.0, SVG Export Plug-In . SVG Version: 6.00 Build 0)  --><!DOCTYPE svg PUBLIC "-//W3C//DTD SVG 1.1//EN" "http://www.w3.org/Graphics/SVG/1.1/DTD/svg11.dtd"><svg xmlns="http://www.w3.org/2000/svg" xmlns:xlink="http://www.w3.org/1999/xlink" viewBox="0 0 50 50" width="50px" height="50px"><path d="M13.9,21.8V45c0,2.8,2.2,5,5,5h12c2.8,0,5-2.2,5-5v-5L14.4,18.5C14.1,19.9,13.9,21.1,13.9,21.8z"/><path d="M30.9,6h-12c-1.159,0-2-0.841-2-2V2c0-1.159,0.841-2,2-2h12c1.159,0,2,0.841,2,2v2C32.9,5.159,32.06,6,30.9,6z"/><path d="M31.818,7.883C31.513,7.953,31.196,8,30.863,8h-12c-0.273,0-0.538-0.028-0.793-0.075c-1.21,2.256-2.317,5.456-3.107,8.275l19,18.999V35.2l2,2V21.8C35.963,19.467,34.063,12.038,31.818,7.883z"/><line fill="none" stroke="#000000" stroke-width="2" stroke-linecap="round" stroke-linejoin="round" stroke-miterlimit="10" x1="1" y1="1" x2="49" y2="49"/></svg>