<?xml version="1.0" encoding="iso-8859-1"?>
<!-- Generator: Adobe Illustrator 22.1.0, SVG Export Plug-In . SVG Version: 6.00 Build 0)  -->
<svg version="1.1" id="Layer_1" xmlns="http://www.w3.org/2000/svg" xmlns:xlink="http://www.w3.org/1999/xlink" x="0px" y="0px"
	 viewBox="0 0 50 50" style="enable-background:new 0 0 50 50;" xml:space="preserve">
<path d="M39.952,21.298c-0.412-9.253-4.037-17.746-4.578-18.72C34.493,0.988,32.816,0,31,0c-0.207,0-0.404,0.036-0.604,0.061
	C29.03,0.341,28,1.553,28,3c0,0.58,0.101,1.769,0.228,3.273c0.287,3.381,0.719,8.489,0.772,14.719c0,5.597,0.313,8.968,0.59,11.942
	C29.81,35.295,30,37.334,30,40c0,2.757-2.243,5-5,5s-5-2.243-5-5c0-2.666,0.19-4.705,0.41-7.066C20.687,29.959,21,26.589,21,21
	c0.053-6.238,0.485-11.346,0.772-14.727C21.899,4.769,22,3.58,22,3c0-1.447-1.03-2.659-2.396-2.939C19.404,0.036,19.207,0,19,0
	c-1.816,0-3.493,0.988-4.375,2.577c-0.541,0.975-4.166,9.467-4.578,18.721C8.725,22.908,8,24.919,8,27c0,2.055,0.708,4.044,2,5.645
	V37.5C10,44.509,15.271,50,22,50c1.392,0,2.39-0.408,3-0.768C25.61,49.592,26.608,50,28,50c6.729,0,12-5.491,12-12.5v-4.855
	c1.292-1.6,2-3.589,2-5.645C42,24.919,41.275,22.908,39.952,21.298z M17,22l-0.03,6.242C16.96,28.281,16,32.211,16,38
	c0,0.552-0.448,1-1,1s-1-0.448-1-1c0-5.541,0.828-9.379,1-10.118V22c0-3.881,0.342-7.859,1.044-12.161
	c0.089-0.545,0.598-0.914,1.148-0.826c0.545,0.089,0.915,0.603,0.826,1.148C17.333,14.356,17,18.229,17,22z M35,39
	c-0.552,0-1-0.448-1-1c0-5.789-0.96-9.719-0.97-9.758L33,28v-6c0-3.77-0.333-7.642-1.018-11.839
	c-0.089-0.545,0.281-1.059,0.826-1.148c0.55-0.088,1.059,0.282,1.148,0.826C34.659,14.144,35,18.122,35,22v5.882
	c0.172,0.74,1,4.578,1,10.118C36,38.552,35.552,39,35,39z"/>
<path d="M27,21c-0.045-5.253-0.364-9.706-0.633-12.984c-0.036-0.327-0.05-0.476-0.08-0.758C26.166,6.093,25.845,3,25,3
	s-1.166,3.093-1.287,4.258c-0.029,0.282-0.044,0.431-0.08,0.758c-0.269,3.278-0.589,7.732-0.633,12.992
	c0,5.673-0.318,9.093-0.599,12.111C22.186,35.431,22,37.427,22,40c0,1.654,1.346,3,3,3s3-1.346,3-3c0-2.573-0.186-4.569-0.401-6.881
	C27.318,30.102,27,26.682,27,21z"/>
</svg>