<?xml version="1.0" encoding="iso-8859-1"?>
<!-- Generator: Adobe Illustrator 23.0.6, SVG Export Plug-In . SVG Version: 6.00 Build 0)  -->
<svg version="1.1" id="Filled" xmlns="http://www.w3.org/2000/svg" xmlns:xlink="http://www.w3.org/1999/xlink" x="0px" y="0px"
	 viewBox="0 0 50 50" style="enable-background:new 0 0 50 50;" xml:space="preserve">
<path d="M46.971,28.08c0.071-5.529-2.682-11.967-7.883-17.168C34.134,5.958,27.8,3,22.146,3c-0.22,0-0.432,0.018-0.648,0.027
	c-4.039,0.109-7.787,1.794-11.08,5.086c-4.225,4.225-6.905,10.24-7.354,16.501c-0.473,6.601,1.543,12.512,5.676,16.645
	c3.972,3.971,9.289,5.712,14.697,5.712c6.854,0,13.854-2.796,18.449-7.39c3.406-3.405,5.126-7.275,5.113-11.501L46.971,28.08z
	 M42.235,35.235C40.426,37.044,37.874,38,34.854,38c-1.238,0-2.532-0.17-3.854-0.488v-4.186c1.492,0.5,2.909,0.753,4.228,0.753
	c1.304,0,3.118-0.259,4.357-1.495c1.391-1.393,1.818-3.917,1.171-6.925c-0.767-3.572-2.954-7.368-6-10.413
	c-3.9-3.901-8.875-6.325-12.982-6.325c-1.305,0-3.12,0.259-4.357,1.495c-1.392,1.393-1.818,3.917-1.171,6.925
	c0.767,3.572,2.954,7.368,6,10.413c0.664,0.664,1.379,1.297,2.176,1.924l-0.923,4.434c-1.472-0.994-2.873-2.142-4.171-3.439
	c-3.716-3.716-6.217-8.185-7.042-12.583c-0.799-4.26,0.083-7.926,2.481-10.325c1.762-1.762,4.232-2.707,7.148-2.756
	c0.071,0.001,0.141-0.008,0.213-0.006l0-0.002c0.007,0,0.013-0.001,0.02-0.001c5.135,0,10.939,2.739,15.526,7.326
	C45.247,19.899,47.292,30.176,42.235,35.235z M29.448,31.042c-0.06,0.04-0.112,0.088-0.161,0.138l-0.01-0.011
	c-0.024,0.021-1.517,1.76-3.787,3.186l1.017-4.883c0.079-0.379-0.068-0.77-0.377-1.002c-0.928-0.698-1.735-1.395-2.47-2.129
	c-2.78-2.78-4.77-6.213-5.458-9.419c-0.494-2.298-0.258-4.201,0.63-5.09c0.753-0.752,2.016-0.91,2.944-0.91
	c3.595,0,8.027,2.199,11.567,5.739c2.781,2.78,4.77,6.213,5.459,9.419c0.494,2.298,0.258,4.202-0.63,5.09
	c-0.753,0.752-2.016,0.91-2.943,0.91c-1.452,0-3.079-0.378-4.837-1.124C30.083,30.825,29.728,30.857,29.448,31.042z M24.706,37.054
	c1.77-0.909,3.258-2.024,4.294-2.904v3.486c-0.615,0.689-2.666,2.724-6.338,3.904C23.485,39.835,24.258,38.086,24.706,37.054z"/>
</svg>