<?xml version="1.0" encoding="utf-8"?><!-- Generator: Adobe Illustrator 19.1.1, SVG Export Plug-In . SVG Version: 6.00 Build 0)  --><svg xmlns="http://www.w3.org/2000/svg" xmlns:xlink="http://www.w3.org/1999/xlink" viewBox="0 0 50 50" width="50px" height="50px"><path d="M46.3,3.6c-2-2-6.9-1.9-10.7-1c-5.2,1.1-9.9,3.5-13,6.5c-4.5,4.5-6.1,9.3-7.5,13.5c-0.8,2.5-1.6,4.8-2.9,6.8c-3.3,5.1-6.1,6.2-8,7c-0.8,0.3-1.5,0.6-2.1,1.2c-0.5,0.5-0.9,1-1.1,1.7c-0.2,0.8,0.1,1.6,0.8,2.3c2.8,2.8,8.6,5.5,15.7,5.5c0.2,0,0.5,0,0.7,0c5.3-0.1,13-1.9,19.8-9.4c7.6-8.4,8.1-23.2,7.9-29.1l0-0.3c0-1.2,0.3-1.7,0.6-2.2C46.8,5.6,47.4,4.7,46.3,3.6z M17.9,37.8c-0.1,0-0.2,0-0.3,0c-0.4,0-0.8-0.3-1-0.7c-0.1-0.2-0.2-0.4-0.4-0.6c-0.4-0.4-0.5-1-0.1-1.4c0.4-0.4,1-0.5,1.4-0.1c0.5,0.4,0.8,0.9,1,1.5C18.7,37.1,18.4,37.7,17.9,37.8z M24.6,24.7c-1.5,0-2.5-0.9-2.9-1.4c-0.3-0.4-0.2-1.1,0.2-1.4c0.4-0.3,1.1-0.2,1.4,0.2c0,0,0.5,0.6,1.3,0.6c0.6,0,1,0.5,1,1C25.6,24.3,25.1,24.7,24.6,24.7C24.6,24.7,24.6,24.7,24.6,24.7z M28.5,35c-0.2,0.1-0.4,0.2-0.6,0.2c-0.3,0-0.6-0.1-0.8-0.4c-0.1-0.2-0.2-0.3-0.3-0.5c-0.4-0.6-0.7-1.1-1.4-1.4c-0.5-0.2-0.8-0.8-0.5-1.3s0.8-0.8,1.3-0.5c1.2,0.5,1.8,1.4,2.3,2.1c0.1,0.1,0.2,0.3,0.3,0.4C29.1,34,29,34.7,28.5,35z M36.7,26c-0.2,0.2-0.5,0.3-0.7,0.3c-0.2,0-0.5-0.1-0.7-0.3c-0.4-0.4-0.6-0.9-0.8-1.4c-0.2-0.5-0.3-0.6-0.4-0.7c-0.5-0.2-0.8-0.8-0.6-1.3c0.2-0.5,0.8-0.8,1.3-0.6c1.1,0.4,1.4,1.3,1.6,1.9c0.1,0.2,0.2,0.5,0.3,0.6C37,25,37,25.6,36.7,26z M36.6,15.5c-0.1,0.1-0.3,0.1-0.4,0.1c-0.4,0-0.7-0.2-0.9-0.6c-0.3-0.6-1.1-0.9-2.2-1.2c-0.9-0.2-1.9-0.5-2.5-1.3c-0.3-0.5-0.2-1.1,0.3-1.4c0.5-0.3,1.1-0.2,1.4,0.3c0.1,0.2,0.9,0.4,1.3,0.5c1.2,0.3,2.8,0.7,3.5,2.3C37.3,14.7,37.1,15.3,36.6,15.5z"/></svg>