<?xml version="1.0" encoding="utf-8"?><!-- Generator: Adobe Illustrator 15.0.0, SVG Export Plug-In . SVG Version: 6.00 Build 0)  --><!DOCTYPE svg PUBLIC "-//W3C//DTD SVG 1.1//EN" "http://www.w3.org/Graphics/SVG/1.1/DTD/svg11.dtd"><svg xmlns="http://www.w3.org/2000/svg" xmlns:xlink="http://www.w3.org/1999/xlink" viewBox="0 0 50 50" width="50px" height="50px"><path fill="none" stroke="#000000" stroke-width="2" stroke-linecap="round" stroke-linejoin="round" stroke-miterlimit="10" d="M26.2,22.1c0.1,2.3,2.899,9.5,12,9.5"/><path fill="none" stroke="#000000" stroke-width="2" stroke-linecap="round" stroke-linejoin="round" stroke-miterlimit="10" d="M31,20.8c0,0,3.9,5.4,10.3,4.7"/><path d="M40.898,45.198L40.2,44.5l-3.4-3.4C35.1,42.4,32.4,43.9,29,43.9c-5.4,0-8.2-6.7-8.2-10.2c0-2.7,1-4.8,2.2-6.4L10.996,15.208c0.001-0.002,0.002-0.005,0.004-0.007l-1.5-1.5c-0.106,0.134-0.204,0.316-0.296,0.524c-1.202,2.118-2.107,4.613-2.449,7.484c0.41,1.227,1.527,2.716,2.583,3.59C10.261,26.078,12.175,27,16.1,27c0.552,0,1,0.447,1,1s-0.448,1-1,1c-3.637,0-6.344-0.729-8.045-2.168c-0.427-0.354-0.938-0.875-1.437-1.48c0.078,2.716,0.464,6.297,1.678,9.891c0.997,0.702,2.222,1.163,2.683,1.298c0.119,0.041,3.092,1.177,5.289-0.615c0.427-0.35,1.058-0.285,1.407,0.144c0.349,0.428,0.285,1.059-0.144,1.407c-1.406,1.146-2.973,1.466-4.287,1.466c-1.602,0-2.826-0.477-2.917-0.513c-0.006,0-0.353-0.103-0.866-0.31c1.218,2.535,2.942,4.949,5.358,6.936c1.581,0.033,2.567-0.366,2.579-0.371c0.049-0.021,0.106-0.041,0.158-0.054c-0.001,0,1.024-0.295,2.481-1.58c0.414-0.366,1.046-0.326,1.412,0.089c0.365,0.414,0.326,1.046-0.088,1.411c-1.639,1.446-2.887,1.893-3.235,1.997c-0.127,0.051-0.407,0.149-0.803,0.247C20.681,48.758,25.063,50,30.8,50c5.4,0,9.7-1.5,11-3.9L40.898,45.198z"/><line fill="none" stroke="#000000" stroke-width="2" stroke-linecap="round" stroke-linejoin="round" stroke-miterlimit="10" x1="1" y1="1" x2="49" y2="49"/><path d="M42.2,43.4c0-0.101,0-0.101-0.101-0.2c1.101-1.4,1.5-2.8,1.2-4c-0.2-0.7-0.8-1.3-1.5-1.4c-0.5-0.1-1.7-0.1-2.899,1.4c-0.101,0.1-0.301,0.3-0.5,0.5L42.2,43.4z"/><path d="M14.912,13.241c-0.74-1.787-1.017-3.246-1.011-4.438C12.84,9.621,11.741,10.686,10.7,12l13.8,13.7c0.522-0.448,0.988-0.839,1.357-1.134C21.262,24.113,16.5,17.077,14.912,13.241z"/><path d="M49.408,4.079c-0.169-0.393-0.668-1.156-1.986-1.156c-0.149,0-0.303,0.01-0.455,0.027c0.103-0.742-0.058-1.51-0.742-2.13C45.516,0.252,44.274,0,42.2,0C29.226,0,20.91,2.096,16.793,6.393c-1.181,1.181-1.192,3.284-0.033,6.082c1.711,4.132,6.287,10.135,9.56,10.135c0.1,0,0.196-0.005,0.296-0.017c12.307-1.424,17.626-7.779,20.805-11.576l0.148-0.177C49.207,8.874,50.115,5.502,49.408,4.079z M39.7,8.1c-0.829,0-1.5-0.672-1.5-1.5c0-0.829,0.671-1.5,1.5-1.5c0.828,0,1.5,0.671,1.5,1.5C41.2,7.428,40.528,8.1,39.7,8.1z"/></svg>