<?xml version="1.0" encoding="iso-8859-1"?><!-- Generator: Adobe Illustrator 22.1.0, SVG Export Plug-In . SVG Version: 6.00 Build 0)  --><svg xmlns="http://www.w3.org/2000/svg" xmlns:xlink="http://www.w3.org/1999/xlink" viewBox="0 0 50 50" width="500px" height="500px"><g><path d="M41.144,9H8.856c-0.634,1.256-0.8,2.842-0.84,4h33.969C41.944,11.842,41.779,10.256,41.144,9z"/><path d="M37.479,4.257C37.14,2.928,35.945,2,34.573,2c-0.035,0-0.069,0.002-0.104,0.005L15.292,4.011c-1.637,0.239-2.323,1.296-2.719,2.119L12.209,7H38L37.479,4.257z"/><path d="M12.173,31H17c0.553,0,1,0.447,1,1s-0.447,1-1,1h-4.571l0.385,3H18c0.553,0,1,0.447,1,1s-0.447,1-1,1h-4.929l0.904,7.043C14.145,46.141,15.196,47,16.368,47h17.263c1.172,0,2.224-0.859,2.397-1.983l0.9-7.017H32c-0.553,0-1-0.447-1-1s0.447-1,1-1h5.185l0.385-3H33c-0.553,0-1-0.447-1-1s0.447-1,1-1h4.827l2.053-16H10.12L12.173,31z M32,21c1.105,0,2,0.895,2,2s-0.895,2-2,2s-2-0.895-2-2S30.895,21,32,21z M20.41,27.192c0.447-0.326,1.073-0.227,1.397,0.218C21.853,27.471,23.021,29,25,29s3.147-1.529,3.196-1.595c0.329-0.439,0.955-0.534,1.396-0.207c0.442,0.327,0.539,0.947,0.215,1.392C29.736,28.688,28.014,31,25,31s-4.736-2.312-4.808-2.41C19.866,28.144,19.964,27.518,20.41,27.192z M18,21c1.105,0,2,0.895,2,2s-0.895,2-2,2s-2-0.895-2-2S16.895,21,18,21z"/></g></svg>