<?xml version="1.0" encoding="iso-8859-1"?>
<!-- Generator: Adobe Illustrator 23.0.6, SVG Export Plug-In . SVG Version: 6.00 Build 0)  -->
<svg version="1.1" id="Filled" xmlns="http://www.w3.org/2000/svg" xmlns:xlink="http://www.w3.org/1999/xlink" x="0px" y="0px"
	 viewBox="0 0 50 50" style="enable-background:new 0 0 50 50;" xml:space="preserve">
<g>
	<path d="M42.562,31.348c-0.966-2.604-3.811-9.258-9.355-14.786c-5.427-5.412-11.99-8.254-14.56-9.226
		C18.551,7.3,18.474,7.239,18.398,7.18C14.971,15.487,6.839,35.123,2.076,46.617c-0.155,0.374-0.069,0.803,0.216,1.089
		C2.483,47.898,2.739,48,3,48c0.128,0,0.258-0.024,0.381-0.075c1.413-0.582,28.817-11.869,39.385-16.257
		C42.681,31.575,42.608,31.472,42.562,31.348z M10.839,42.688C10.307,41.746,10,40.66,10,39.5c0-3.59,2.91-6.5,6.5-6.5
		c2.991,0,5.504,2.022,6.261,4.773C18.747,39.429,14.647,41.119,10.839,42.688z M19.463,25c-2.127,0-4.005-1.027-5.191-2.605
		c1.549-3.742,3.04-7.347,4.286-10.362c0.145-0.009,0.286-0.032,0.433-0.033c3.588-0.028,6.925,2.454,6.973,6.5
		C26.005,22.092,23.053,25,19.463,25z M37.912,31.515c-2.939,1.216-6.462,2.672-10.232,4.228C26.061,34.56,25,32.658,25,30.5
		c0-3.59,2.91-6.5,6.5-6.5s6.5,2.91,6.5,6.5C38,30.846,37.965,31.183,37.912,31.515z"/>
	<path d="M47.856,27.419c-1.337-3.329-4.121-10.255-9.495-15.613c-6.104-6.087-13.689-8.965-15.869-9.702
		c-1.021-0.347-2.12,0.177-2.501,1.192c-0.042,0.112-0.354,0.874-0.871,2.13c0.078,0.009,0.157,0.009,0.234,0.038
		c3.342,1.263,9.769,4.2,15.265,9.681c5.825,5.808,8.807,12.779,9.818,15.507c0.037,0.099,0.043,0.2,0.047,0.301
		c1.365-0.569,2.221-0.929,2.369-0.998c0,0,0,0,0,0C47.807,29.506,48.248,28.393,47.856,27.419z"/>
</g>
<circle cx="21" cy="16" r="1"/>
<circle cx="18" cy="21" r="1"/>
<circle cx="22" cy="20" r="1"/>
<circle cx="30" cy="28" r="1"/>
<circle cx="14" cy="39" r="1"/>
<circle cx="18" cy="37" r="1"/>
<circle cx="30" cy="28" r="1"/>
<circle cx="29" cy="32" r="1"/>
<circle cx="34" cy="30" r="1"/>
</svg>