<?xml version="1.0" encoding="iso-8859-1"?>
<!-- Generator: Adobe Illustrator 23.0.6, SVG Export Plug-In . SVG Version: 6.00 Build 0)  -->
<svg version="1.1" id="Filled" xmlns="http://www.w3.org/2000/svg" xmlns:xlink="http://www.w3.org/1999/xlink" x="0px" y="0px"
	 viewBox="0 0 50 50" style="enable-background:new 0 0 50 50;" xml:space="preserve">
<g>
	<path d="M47.158,31.421c-0.236-0.331-0.649-0.486-1.043-0.395c-0.026,0.006-0.15,0.036-0.349,0.097
		c-2.848,0.866-4.765,3.535-4.765,6.511L41,41c0,0,0,0,0,0c1.014,0,4.323,0.165,6.005-2.525
		C48.39,36.264,48.228,32.927,47.158,31.421z"/>
	<path d="M39.001,37.636c0-3.046-2.007-5.76-4.944-6.566c-0.097-0.027-0.158-0.041-0.175-0.045
		c-0.394-0.086-0.804,0.066-1.038,0.396c-1.069,1.506-1.231,4.843,0.152,7.054C34.677,41.164,37.985,41,39,41L39.001,37.636z"/>
</g>
<path d="M39.998,11.239c1.274-1.254,2.71-2.047,3.824-2.527c-0.658-2.71-2.97-5.263-3.085-5.388C40.548,3.118,40.281,3,40,3
	s-0.547,0.118-0.737,0.324c-0.114,0.125-2.424,2.675-3.084,5.384C37.294,9.187,38.727,9.979,39.998,11.239z"/>
<g>
	<path d="M39,13.095c-2.054-2.341-4.984-3.039-5.119-3.07c-0.394-0.088-0.804,0.067-1.038,0.396
		c-0.766,1.078-1.054,3.094-0.654,4.964c0.637-0.358,1.396-0.48,2.137-0.31c0.329,0.075,2.553,0.636,4.674,2.29L39,13.095z"/>
	<path d="M47.157,10.421c-0.236-0.331-0.649-0.486-1.043-0.395c-0.136,0.032-3.06,0.745-5.114,3.062l0,4.28
		c2.115-1.641,4.331-2.212,4.659-2.289c0.746-0.173,1.511-0.052,2.153,0.308C48.211,13.515,47.923,11.5,47.157,10.421z"/>
</g>
<g>
	<path d="M45.659,22.079c0.746-0.173,1.511-0.053,2.153,0.307c0.4-1.871,0.112-3.887-0.654-4.965
		c-0.236-0.332-0.649-0.488-1.043-0.395c-0.136,0.032-3.06,0.745-5.114,3.062l0,4.28C43.115,22.726,45.33,22.156,45.659,22.079z"/>
	<path d="M34.326,22.075c0.329,0.075,2.553,0.636,4.674,2.29l0-4.27c-2.054-2.341-4.984-3.039-5.119-3.07
		c-0.394-0.089-0.804,0.067-1.038,0.396c-0.766,1.078-1.054,3.094-0.654,4.964C32.825,22.027,33.585,21.905,34.326,22.075z"/>
</g>
<path d="M39,46c0,0.552,0.448,1,1,1s1-0.448,1-1l0-5h-2L39,46z"/>
<g>
	<path d="M45.185,29.209c0.274-0.083,0.446-0.124,0.481-0.132c0.747-0.175,1.508-0.055,2.146,0.305
		c0.399-1.87,0.111-3.884-0.655-4.962c-0.236-0.331-0.649-0.487-1.043-0.395c-0.136,0.032-3.06,0.745-5.114,3.061l0,4.958
		C42.069,30.73,43.509,29.719,45.185,29.209z"/>
	<path d="M34.311,29.071c0.043,0.01,0.135,0.031,0.281,0.071c1.774,0.487,3.294,1.52,4.409,2.887l0-4.935
		c-2.054-2.341-4.984-3.039-5.119-3.07c-0.394-0.089-0.804,0.067-1.038,0.396c-0.766,1.078-1.054,3.093-0.654,4.964
		C32.819,29.03,33.571,28.909,34.311,29.071z"/>
	<path d="M39.001,37.636c0-3.046-2.007-5.76-4.944-6.566c-0.097-0.027-0.158-0.041-0.175-0.045
		c-0.394-0.086-0.804,0.066-1.038,0.396c-1.069,1.506-1.231,4.843,0.152,7.054C34.677,41.164,37.985,41,39,41L39.001,37.636z"/>
</g>
<path d="M31.3,39.536c-1.439-2.299-1.672-5.7-0.704-8.096l-0.35-1.637c-0.417-1.952-0.235-3.999,0.436-5.54
	c-2.167-1.91-4.297-2.223-6.157-2.261c-0.765-0.016-1.823,0.176-2.842,0.597c4.849,2.974,6.236,8.873,6.306,9.186
	c0.12,0.539-0.219,1.071-0.758,1.192C27.16,32.993,27.086,33,27.014,33c-0.457,0-0.87-0.316-0.975-0.781
	c-0.076-0.338-1.95-8.279-9.089-9.216c-1.286,0.009-2.532,0.374-3.582,0.882c3.669,2.775,5.484,7.5,5.583,7.763
	c0.193,0.517-0.068,1.092-0.584,1.287C18.25,32.979,18.132,33,18.015,33c-0.405,0-0.785-0.248-0.937-0.648
	c-0.023-0.061-1.922-4.988-5.523-7.291c-0.024,0.021-0.053,0.042-0.076,0.063C9.364,25.882,2,29.36,2,37
	c0,2.068,0.734,3.85,2.182,5.293C8.375,46.478,18.009,47,25.043,47c0.113,0,0.227,0,0.338,0c3.208-0.008,8.031-0.266,11.634-0.821
	v-3.265C35.24,42.699,32.825,41.973,31.3,39.536z"/>
</svg>