<?xml version="1.0" encoding="utf-8"?><!-- Generator: Adobe Illustrator 15.0.0, SVG Export Plug-In . SVG Version: 6.00 Build 0)  --><!DOCTYPE svg PUBLIC "-//W3C//DTD SVG 1.1//EN" "http://www.w3.org/Graphics/SVG/1.1/DTD/svg11.dtd"><svg xmlns="http://www.w3.org/2000/svg" xmlns:xlink="http://www.w3.org/1999/xlink" viewBox="0 0 50 50" width="50px" height="50px"><path d="M49.707,18.793c-2.187-2.187-10.224-5.436-12.334-6.265c-0.815-2.083-3.992-9.961-6.266-12.235C30.92,0.105,30.666,0,30.4,0s-0.52,0.105-0.707,0.293c-1.217,1.216-1.725,4.02-1.536,6.612l14.9,14.819c2.88,0.526,5.432-0.299,6.649-1.517C50.098,19.816,50.098,19.184,49.707,18.793z"/><path d="M38.914,10.988c2.598,1.041,6.115,2.547,8.835,4.063c0.852-0.234,1.555-0.541,1.958-0.944C49.895,13.919,50,13.665,50,13.4s-0.105-0.52-0.293-0.707c-1.519-1.519-6.824-3.246-8.605-3.795c-0.549-1.781-2.275-7.086-3.795-8.605c-0.391-0.391-1.023-0.391-1.414,0c-0.426,0.426-0.771,1.108-1.053,1.905C36.446,5.041,37.998,8.7,38.914,10.988z"/><path d="M42.696,7.304c0.823,0.266,1.681,0.56,2.526,0.875c2.271-3.874,1.828-4.343,1.385-4.785c-0.155-0.155-0.432-0.341-0.866-0.341c-0.731,0-2.343,0.817-3.917,1.731C42.138,5.627,42.431,6.482,42.696,7.304z"/><path d="M39.881,21.6c-0.04-0.194-0.137-0.372-0.277-0.511l-10.699-10.6c-0.14-0.138-0.316-0.232-0.508-0.27c-0.932-0.187-1.898-0.281-2.875-0.281c-5.594,0-11.654,3.06-17.532,8.857c-2.948,2.976-4.939,5.75-6.195,8.323c-0.057,0.079-0.093,0.169-0.125,0.262c-3.648,7.744-0.583,13.62,3.323,17.526c1.124,1.124,2.259,2.039,3.409,2.787c0.09,0.091,0.197,0.162,0.32,0.214c2.255,1.395,4.577,2.089,7.019,2.089c0,0,0,0,0.001,0c4.828,0,9.854-2.68,15.365-8.19C39.957,32.957,40.763,25.934,39.881,21.6z M37.021,24.407l-5.698-1.123c0.01-1.074-0.053-2.901-0.475-4.513l4.287,0.715c0.004,0,0.007,0,0.01,0.001l1.813,1.795C37.117,22.355,37.085,23.564,37.021,24.407z M9.624,46.107c-0.286-0.182-0.572-0.37-0.857-0.578L7.373,41.21l5.102,1.006c0.745,0.888,1.022,3.147,1.049,4.976L9.624,46.107z M2.126,32.885C2.822,33,3.305,33.177,3.589,33.352l1.051,5.331l-1.745-0.283C2.176,36.626,1.923,34.786,2.126,32.885z M4.711,26.012c1.759,0.125,3.234,0.548,3.782,1.096c0.813,0.813,1.103,3.198,1.129,5.096c-0.684-0.164-1.408-0.272-2.132-0.336l-3.144-0.62L3.657,27.88C3.962,27.264,4.319,26.64,4.711,26.012z M17.327,14.207c0.072,0.03,0.14,0.068,0.221,0.081c1.172,0.181,2.079,0.505,2.578,0.896c0.08,0.144,0.198,0.259,0.335,0.348c0.278,0.392,0.486,0.978,0.635,1.664l0.093,0.474c0.155,0.91,0.227,1.921,0.236,2.818l-5.273-1.04l-0.8-4.081C16.013,14.941,16.671,14.555,17.327,14.207z M29.094,13.494l3.592,3.557l-2.838-0.473c-0.077-0.098-0.154-0.199-0.24-0.285c-0.145-0.145-0.316-0.27-0.494-0.392C29.137,15.464,29.164,14.558,29.094,13.494z M5.713,33.781c0.535,0.006,1.037,0.033,1.515,0.073l2.806,0.554c0.281,0.109,0.508,0.231,0.686,0.365c0.08,0.148,0.201,0.267,0.341,0.358c0.692,0.974,0.946,3.187,0.964,4.956l-5.273-1.039L5.713,33.781z M11.413,28.182c2.537,0.028,4.508,0.454,5.18,1.125c0.825,0.824,1.113,3.271,1.132,5.182l-5.273-1.04L11.413,28.182z M17.213,22.281c2.537,0.029,4.508,0.455,5.18,1.126c0.824,0.824,1.113,3.271,1.132,5.181l-5.273-1.039L17.213,22.281z M23.115,17.098c-0.002-0.009-0.004-0.019-0.006-0.028l-0.096-0.489c2.537,0.028,4.509,0.454,5.181,1.126c0.824,0.825,1.112,3.271,1.131,5.182l-5.272-1.04L23.115,17.098z M13.984,18.787c-0.797-0.271-1.669-0.437-2.458-0.536c0.678-0.585,1.355-1.132,2.032-1.638L13.984,18.787z M9.402,20.212c0.036-0.036,0.073-0.069,0.109-0.104c1.917,0.038,4.138,0.42,4.881,1.1c0.824,0.825,1.112,3.271,1.132,5.181l-5.273-1.039l-0.982-4.995C9.315,20.306,9.355,20.259,9.402,20.212z M8.07,24.624c-0.68-0.24-1.406-0.389-2.07-0.485c0.487-0.65,1.011-1.305,1.588-1.966L8.07,24.624z M13.467,35.688l4.506,0.889c0.009,0.01,0.011,0.022,0.021,0.031c0.819,0.818,1.109,3.238,1.131,5.144l-5.102-1.165C14.036,39.467,13.975,37.411,13.467,35.688z M19.06,29.747l4.828,0.951c0.002,0.003,0.003,0.006,0.005,0.009c0.824,0.824,1.112,3.271,1.132,5.181l-5.302-1.045C19.731,33.619,19.646,31.467,19.06,29.747z M24.93,24.061l4.726,0.932c0.773,0.888,1.05,3.239,1.068,5.096l-5.202-1.025C25.536,27.91,25.47,25.797,24.93,24.061z M26.897,12.021c0.19,1.028,0.242,2.096,0.241,2.871l-5.294-1.043l-0.28-1.354c1.346-0.367,2.668-0.555,3.957-0.555C25.985,11.939,26.443,11.972,26.897,12.021z"/></svg>