<?xml version="1.0" encoding="iso-8859-1"?><!-- Generator: Adobe Illustrator 19.2.1, SVG Export Plug-In . SVG Version: 6.00 Build 0)  --><svg xmlns="http://www.w3.org/2000/svg" xmlns:xlink="http://www.w3.org/1999/xlink" viewBox="0 0 50 50" width="50px" height="50px"><path style="fill:none;stroke:#000000;stroke-width:2;stroke-miterlimit:10;" d="M22,9c0,0,3,2.594,3,8"/><path d="M25.498,16.996c-0.311,0-0.489-0.011-0.504-0.012c-0.538-0.038-0.949-0.496-0.929-1.035C24.07,15.82,24.735,3,41.064,3c0.308,0,0.598,0.141,0.787,0.383s0.257,0.558,0.184,0.856C39.072,16.3,28,16.996,25.498,16.996z"/><path d="M37.254,15.255c-0.516,0.38-1.042,0.714-1.571,1.021C35.876,16.459,36,16.713,36,17c0,0.552-0.448,1-1,1c-0.507,0-0.908-0.383-0.974-0.871c-3.152,1.428-6.162,1.77-7.764,1.845C26.176,18.985,26.09,19,26,19h-2c-1.105,0-2-0.895-2-2c0-3.045-1.178-4.803-1.708-5.444C12.038,13.544,6,20.635,6,29l0,0h0c0,9.925,8.523,18,19,18s19-8.075,19-18C44,23.668,41.475,18.644,37.254,15.255z M41,25c0.552,0,1,0.448,1,1c0,0.552-0.448,1-1,1s-1-0.448-1-1C40,25.448,40.448,25,41,25z M39,22c0.552,0,1,0.448,1,1c0,0.552-0.448,1-1,1s-1-0.448-1-1C38,22.448,38.448,22,39,22z M35,30c-0.552,0-1-0.448-1-1c0-0.552,0.448-1,1-1s1,0.448,1,1C36,29.552,35.552,30,35,30z M36,35c0,0.552-0.448,1-1,1s-1-0.448-1-1c0-0.552,0.448-1,1-1S36,34.448,36,35z M37,31c0.552,0,1,0.448,1,1c0,0.552-0.448,1-1,1s-1-0.448-1-1C36,31.448,36.448,31,37,31z M37,27c-0.552,0-1-0.448-1-1c0-0.552,0.448-1,1-1s1,0.448,1,1C38,26.552,37.552,27,37,27z M39,28c0.552,0,1,0.448,1,1c0,0.552-0.448,1-1,1s-1-0.448-1-1C38,28.448,38.448,28,39,28z M37,19c0.552,0,1,0.448,1,1c0,0.552-0.448,1-1,1s-1-0.448-1-1C36,19.448,36.448,19,37,19z M35,22c0.552,0,1,0.448,1,1c0,0.552-0.448,1-1,1s-1-0.448-1-1C34,22.448,34.448,22,35,22z M33,19c0.552,0,1,0.448,1,1c0,0.552-0.448,1-1,1s-1-0.448-1-1C32,19.448,32.448,19,33,19z M33,25c0.552,0,1,0.448,1,1c0,0.552-0.448,1-1,1s-1-0.448-1-1C32,25.448,32.448,25,33,25z M33,31c0.552,0,1,0.448,1,1c0,0.552-0.448,1-1,1s-1-0.448-1-1C32,31.448,32.448,31,33,31z M31,34c0.552,0,1,0.448,1,1c0,0.552-0.448,1-1,1s-1-0.448-1-1C30,34.448,30.448,34,31,34z M29,37c0.552,0,1,0.448,1,1c0,0.552-0.448,1-1,1s-1-0.448-1-1C28,37.448,28.448,37,29,37z M25,37c0.552,0,1,0.448,1,1c0,0.552-0.448,1-1,1s-1-0.448-1-1C24,37.448,24.448,37,25,37z M19,42c-0.552,0-1-0.448-1-1c0-0.552,0.448-1,1-1s1,0.448,1,1C20,41.552,19.552,42,19,42z M21,45c-0.552,0-1-0.448-1-1c0-0.552,0.448-1,1-1s1,0.448,1,1C22,44.552,21.552,45,21,45z M23,42c-0.552,0-1-0.448-1-1c0-0.552,0.448-1,1-1s1,0.448,1,1C24,41.552,23.552,42,23,42z M25,45c-0.552,0-1-0.448-1-1c0-0.552,0.448-1,1-1s1,0.448,1,1C26,44.552,25.552,45,25,45z M27,42c-0.552,0-1-0.448-1-1c0-0.552,0.448-1,1-1s1,0.448,1,1C28,41.552,27.552,42,27,42z M29,45c-0.552,0-1-0.448-1-1c0-0.552,0.448-1,1-1s1,0.448,1,1C30,44.552,29.552,45,29,45z M31,42c-0.552,0-1-0.448-1-1c0-0.552,0.448-1,1-1s1,0.448,1,1C32,41.552,31.552,42,31,42z M33,39c-0.552,0-1-0.448-1-1c0-0.552,0.448-1,1-1s1,0.448,1,1C34,38.552,33.552,39,33,39z M35,42c-0.552,0-1-0.448-1-1c0-0.552,0.448-1,1-1s1,0.448,1,1C36,41.552,35.552,42,35,42z M37,39c-0.552,0-1-0.448-1-1c0-0.552,0.448-1,1-1s1,0.448,1,1C38,38.552,37.552,39,37,39z M39,36c-0.552,0-1-0.448-1-1c0-0.552,0.448-1,1-1s1,0.448,1,1C40,35.552,39.552,36,39,36z M41,33c-0.552,0-1-0.448-1-1c0-0.552,0.448-1,1-1s1,0.448,1,1C42,32.552,41.552,33,41,33z"/></svg>