<?xml version="1.0" encoding="utf-8"?><!-- Generator: Adobe Illustrator 15.0.0, SVG Export Plug-In . SVG Version: 6.00 Build 0)  --><!DOCTYPE svg PUBLIC "-//W3C//DTD SVG 1.1//EN" "http://www.w3.org/Graphics/SVG/1.1/DTD/svg11.dtd"><svg xmlns="http://www.w3.org/2000/svg" xmlns:xlink="http://www.w3.org/1999/xlink" viewBox="0 0 50 50" width="50px" height="50px"><path d="M39.771,39.276c-0.322-0.761-0.993-1.215-1.797-1.215c-0.575,0-1.466,0.238-2.449,1.376C34.602,40.508,31.185,44,26,44c-5.252,0-8-6.51-8-10c0-4.78,3.289-7.723,4.936-8.897c-4.531-0.441-9.24-7.334-10.813-11.092c-0.737-1.76-1.014-3.198-1.009-4.374c-2.819,2.182-5.887,6.211-6.812,11.742c0.663,3.323,2.612,6.061,9.068,6.061c0.552,0,1,0.447,1,1s-0.448,1-1,1c-5.013,0-7.781-1.584-9.339-3.687c0.072,2.858,0.471,6.325,1.633,9.75c3.06,1.97,5.832,2.229,7.782,0.654c0.429-0.347,1.059-0.28,1.406,0.15c0.347,0.43,0.279,1.06-0.15,1.406c-1.232,0.994-2.662,1.486-4.22,1.486c-1.15,0-2.371-0.274-3.633-0.806c0.489,1,1.052,1.98,1.712,2.921c1.174,1.673,2.557,3.099,4.133,4.291c1.535-0.51,3.329-1.288,4.367-2.369c0.382-0.4,1.015-0.411,1.414-0.029c0.398,0.383,0.411,1.016,0.028,1.414c-0.963,1.003-2.365,1.771-3.742,2.344C18.295,48.978,22.634,50,27.754,50c5.352,0,9.609-1.545,10.847-3.935c0.447-0.863,0.478-1.79,0.101-2.672C40.054,41.731,40.163,40.205,39.771,39.276z"/><path d="M46.059,4.97c-0.196-0.412-0.716-1.102-1.986-1.102c-0.161,0-0.324,0.011-0.488,0.031c0.089-0.693-0.063-1.404-0.675-1.983C42.219,1.265,41.051,1,38.877,1C26.284,1,18.134,3.06,13.962,7.298c-1.139,1.157-1.137,3.211,0.005,5.94c1.691,4.039,6.201,9.906,9.419,9.907h0c0.106,0,0.209-0.006,0.312-0.018c12.258-1.462,17.418-7.736,20.528-11.517C45.793,9.706,46.718,6.355,46.059,4.97z M36.5,9C35.672,9,35,8.329,35,7.5S35.672,6,36.5,6S38,6.671,38,7.5S37.328,9,36.5,9z"/><path d="M35,31c-6.067,0-8.918-3.464-10.084-6.033c-0.332,0.048-0.647,0.106-0.989,0.147c-0.177,0.021-0.355,0.031-0.541,0.031c-0.201,0-0.402-0.031-0.604-0.057C24.08,28.531,27.756,33,35,33c0.553,0,1-0.447,1-1S35.553,31,35,31z"/><path d="M37.887,25.006c-2.604,0.301-4.75-0.587-6.309-1.623c-0.759,0.264-1.555,0.507-2.391,0.728c1.653,1.397,4.256,2.956,7.644,2.956c0.415,0,0.844-0.023,1.282-0.074c0.549-0.063,0.943-0.558,0.88-1.107C38.931,25.337,38.426,24.939,37.887,25.006z"/></svg>