<?xml version="1.0" encoding="utf-8"?><!-- Generator: Adobe Illustrator 15.0.0, SVG Export Plug-In . SVG Version: 6.00 Build 0)  --><!DOCTYPE svg PUBLIC "-//W3C//DTD SVG 1.1//EN" "http://www.w3.org/Graphics/SVG/1.1/DTD/svg11.dtd"><svg xmlns="http://www.w3.org/2000/svg" xmlns:xlink="http://www.w3.org/1999/xlink" viewBox="0 0 50 50" width="50px" height="50px"><path d="M35.356,9.315c-1.115-3.781-3.571-6.596-6.736-7.723c-1.154-0.412-2.195-0.612-3.183-0.612c-4.304,0-6.274,3.859-8.18,7.59c-1.836,3.595-3.734,7.313-7.676,8.61c-6.96,2.29-8.98,8.029-8.551,12.637c0.03,0.323,0.27,2.354,1.533,4.502c0.954-0.352,1.761-0.667,1.776-0.673c8.803-3.745,19.291-9.968,22.035-24.869c0.103-0.554,0.638-0.923,1.188-0.819c0.555,0.102,0.922,0.634,0.819,1.189C25.429,25.184,13.687,31.889,5.111,35.537c-0.062,0.024-0.596,0.232-1.297,0.496c0.44,0.492,0.941,0.971,1.53,1.409c1.386,1.033,3.532,1.579,6.206,1.579c5.655,0,13.663-2.502,17.883-7.997C35.094,23.654,37.252,15.741,35.356,9.315z"/><g><path d="M39.271,28.773c-1.727-0.376-3.49-0.761-5.116-1.37c-0.909,1.629-1.97,3.248-3.191,4.839c-0.981,1.277-2.152,2.399-3.436,3.387c4.261,1.725,8.829,2.396,13.87,2.015c0.575-0.044,1.053,0.379,1.095,0.94c0.043,0.562-0.378,1.053-0.94,1.095c-0.947,0.072-1.885,0.108-2.811,0.108c-4.707,0-9.124-0.941-13.198-2.786c-3.736,2.285-8.107,3.554-11.888,3.91c1.708,2.01,4.047,4.124,7.014,5.367c4.362,1.828,8.628,2.743,12.521,2.743c3.756,0,7.165-0.852,9.979-2.558c3.372-2.043,5.467-5.136,5.75-8.483C49.513,30.999,44.307,29.867,39.271,28.773z"/></g></svg>