<?xml version="1.0" encoding="utf-8"?><!-- Generator: Adobe Illustrator 15.0.0, SVG Export Plug-In . SVG Version: 6.00 Build 0)  --><!DOCTYPE svg PUBLIC "-//W3C//DTD SVG 1.1//EN" "http://www.w3.org/Graphics/SVG/1.1/DTD/svg11.dtd"><svg xmlns="http://www.w3.org/2000/svg" xmlns:xlink="http://www.w3.org/1999/xlink" viewBox="0 0 50 50" width="50px" height="50px"><path d="M49.74,27.688c-0.144-0.338-0.311-0.755-0.504-1.237c-1.373-3.43-4.23-10.567-9.643-15.981C33.612,4.487,25.809,1.209,22.14,0.216c-1.271-0.342-2.226-0.451-2.92,1.319c-0.23,0.586-0.713,2.012-1.181,3.391c-0.237,0.698-0.461,1.361-0.627,1.836c-0.017,0.048-0.011,0.097-0.02,0.146c-0.009,0.02-0.027,0.032-0.035,0.052l-0.121,0.292c1.316,0.405,2.292,0.8,2.376,0.835c2.971,1.125,8.733,3.766,13.663,8.698c5.219,5.219,7.896,11.493,8.805,13.948c0.018,0.043,0.308,0.803,0.684,2.11c0.006-0.002,0.011-0.001,0.016-0.003c0.561-0.179,2.176-0.735,3.534-1.204c0.795-0.273,1.5-0.518,1.847-0.634c0.849-0.284,1.393-0.716,1.664-1.32C50.085,29.103,50.057,28.432,49.74,27.688z"/><path d="M40.211,31.444c-0.869-2.349-3.41-8.305-8.35-13.245c-4.84-4.842-10.691-7.384-12.983-8.252c-0.033-0.013-1.069-0.435-2.411-0.843L0.076,48.617c-0.155,0.373-0.069,0.804,0.216,1.09C0.484,49.898,0.74,50,1,50c0.129,0,0.259-0.024,0.382-0.076l39.513-16.337C40.514,32.235,40.216,31.457,40.211,31.444z M28.401,26.337l-0.097-0.021C28.109,25.92,28,25.473,28,25c0-1.657,1.344-3,3-3s3,1.343,3,3c0,0.917-0.411,1.738-1.059,2.288l-0.021-0.004C33.585,27.998,34,28.948,34,30c0,2.209-1.791,4-4,4s-4-1.791-4-4C26,28.36,26.989,26.954,28.401,26.337z M25,36c0,0.857-0.275,1.647-0.735,2.299l-3.948,1.633C18.435,39.605,17,37.976,17,36c0-2.209,1.791-4,4-4S25,33.791,25,36z M8.263,34.103C8.5,34.042,8.744,34,9,34c1.656,0,3,1.343,3,3s-1.344,3-3,3c-1.098,0-2.048-0.596-2.571-1.477L8.263,34.103z M22,21c0,2.763-2.238,5-5,5c-1.858,0-3.466-1.021-4.328-2.525l3.028-7.299C16.115,16.064,16.55,16,17,16C19.762,16,22,18.237,22,21z"/></svg>