<?xml version="1.0" encoding="iso-8859-1"?><!-- Generator: Adobe Illustrator 22.1.0, SVG Export Plug-In . SVG Version: 6.00 Build 0)  --><svg xmlns="http://www.w3.org/2000/svg" xmlns:xlink="http://www.w3.org/1999/xlink" viewBox="0 0 50 50" width="500px" height="500px"><polyline style="fill:none;stroke:#000000;stroke-width:2;stroke-linecap:round;stroke-linejoin:round;stroke-miterlimit:10;" points="15.21,21.491 13.181,1.385 20.503,1.05 23,24.563 "/><polyline style="fill:none;stroke:#000000;stroke-width:2;stroke-linecap:round;stroke-linejoin:round;stroke-miterlimit:10;" points="7.818,18.78 5.863,5.757 13.41,4.386 "/><polyline style="fill:none;stroke:#000000;stroke-width:2;stroke-linecap:round;stroke-linejoin:round;stroke-miterlimit:10;" points="34.401,21.815 36.263,1.825 28.985,0.995 27.076,24.751 "/><polyline style="fill:none;stroke:#000000;stroke-width:2;stroke-linecap:round;stroke-linejoin:round;stroke-miterlimit:10;" points="41.738,18.78 43.583,8.82 36.173,7.983 "/><line style="fill:none;stroke:#000000;stroke-width:2;stroke-linecap:round;stroke-linejoin:round;stroke-miterlimit:10;" x1="28.224" y1="4.16" x2="20.905" y2="4.16"/><path d="M46.797,18.396C46.607,18.146,46.313,18,46,18h-8.4c-0.312,0-0.604,0.145-0.794,0.392C36.763,18.448,32.421,24,25,24c-7.386,0-11.764-5.554-11.806-5.608C13.005,18.145,12.712,18,12.4,18H4c-0.313,0-0.607,0.146-0.797,0.396c-0.188,0.25-0.25,0.573-0.166,0.874L8.002,37H12c0.553,0,1,0.447,1,1s-0.447,1-1,1H8.562l0.84,3H14c0.553,0,1,0.447,1,1s-0.447,1-1,1H9.962l1.476,5.27C11.559,49.701,11.952,50,12.4,50H37.6c0.448,0,0.842-0.299,0.963-0.73L40.038,44H36c-0.553,0-1-0.447-1-1s0.447-1,1-1h4.598l0.84-3H38c-0.553,0-1-0.447-1-1s0.447-1,1-1h3.998l4.965-17.73C47.047,18.968,46.985,18.645,46.797,18.396z M17,35c-1.105,0-2-0.895-2-2s0.895-2,2-2s2,0.895,2,2S18.105,35,17,35z M30.738,39.674C30.652,39.77,28.575,42,25,42s-5.652-2.23-5.738-2.326c-0.373-0.407-0.344-1.04,0.064-1.412c0.408-0.373,1.041-0.345,1.412,0.064C20.799,38.39,22.336,40,25,40c2.702,0,4.246-1.657,4.262-1.674c0.371-0.41,1.004-0.438,1.412-0.064C31.082,38.634,31.111,39.267,30.738,39.674z M33,35c-1.105,0-2-0.895-2-2s0.895-2,2-2s2,0.895,2,2S34.105,35,33,35z"/></svg>