<?xml version="1.0" encoding="iso-8859-1"?><!-- Generator: Adobe Illustrator 20.1.0, SVG Export Plug-In . SVG Version: 6.00 Build 0)  --><svg xmlns="http://www.w3.org/2000/svg" xmlns:xlink="http://www.w3.org/1999/xlink" viewBox="0 0 50 50" width="50px" height="50px"><path d="M48,29c0-0.553-0.447-1-1-1H3c-0.553,0-1,0.447-1,1c0,7.616,4.515,14.182,11,17.209V47c0,1.103,0.897,2,2,2h20c1.103,0,2-0.897,2-2v-0.791C43.485,43.182,48,36.616,48,29z"/><path style="fill:none;stroke:#000000;stroke-width:2;stroke-linecap:round;stroke-linejoin:round;stroke-miterlimit:10;" d="M25,29c0-7.467,3.536-16.153,12-21"/><path style="fill:none;stroke:#000000;stroke-width:2;stroke-linecap:round;stroke-linejoin:round;stroke-miterlimit:10;" d="M25,29c0-4.577-7.998-11.036-14-12"/><path style="fill:none;stroke:#000000;stroke-width:2;stroke-linecap:round;stroke-linejoin:round;stroke-miterlimit:10;" d="M26.329,20.6c0,0-2.329-2.91-2.329-6.535c0-9.5,9.54-11.083,18.012-11.083C40.428,5.917,42,8.267,42,11.913C42,21.967,29,23,29,23"/><path style="fill:none;stroke:#000000;stroke-width:2;stroke-linecap:round;stroke-linejoin:round;stroke-miterlimit:10;" d="M20.733,21.53c0,0,0.055-9.504-7.297-9.504c-4.773,0-9.34,2.92-9.34,2.92S6.687,24,13,24c2.191,0,3.989-0.989,3.989-0.989"/></svg>