<?xml version="1.0" encoding="utf-8"?><!-- Generator: Adobe Illustrator 15.0.0, SVG Export Plug-In . SVG Version: 6.00 Build 0)  --><!DOCTYPE svg PUBLIC "-//W3C//DTD SVG 1.1//EN" "http://www.w3.org/Graphics/SVG/1.1/DTD/svg11.dtd"><svg xmlns="http://www.w3.org/2000/svg" xmlns:xlink="http://www.w3.org/1999/xlink" viewBox="0 0 50 50" width="50px" height="50px"><path d="M36,40v6.4l-10-5V30v-2c0-0.091-0.014-0.18-0.037-0.265c-0.008-0.029-0.023-0.056-0.034-0.085c-0.02-0.054-0.04-0.106-0.069-0.156c-0.019-0.03-0.042-0.057-0.064-0.086c-0.031-0.042-0.061-0.083-0.099-0.119c-0.027-0.026-0.058-0.049-0.088-0.072c-0.028-0.021-0.053-0.048-0.083-0.067c-0.014-0.009-0.029-0.012-0.043-0.02c-0.013-0.007-0.022-0.018-0.035-0.024L14,21.382V18l-2-2v5.382L0.553,27.105C0.54,27.112,0.53,27.123,0.518,27.13c-0.014,0.008-0.03,0.011-0.043,0.02c-0.031,0.02-0.055,0.046-0.083,0.067c-0.03,0.023-0.061,0.046-0.088,0.072c-0.038,0.036-0.068,0.077-0.099,0.119c-0.021,0.029-0.045,0.056-0.064,0.086c-0.029,0.05-0.049,0.103-0.069,0.156c-0.011,0.029-0.026,0.056-0.034,0.085C0.014,27.82,0,27.909,0,28v14c0,0.379,0.214,0.725,0.553,0.895l12,6c0.015,0.007,0.031,0.004,0.046,0.011C12.727,48.962,12.862,49,13,49s0.273-0.038,0.401-0.095c0.015-0.007,0.031-0.004,0.046-0.011l11.57-5.785L36.6,48.9C36.7,49,36.9,49,37,49s0.3,0,0.4-0.1l5-2.5L36,40z M13,32.882L3.236,28L13,23.118L22.764,28L13,32.882z M2,29.618l10,5v11.764l-10-5V29.618z"/><path d="M49.9,27.5c0,0,0-0.1-0.101-0.1L49.7,27.3c0,0-0.101,0-0.101-0.1c0,0-0.1,0-0.1-0.101L38,21.4V8c0-0.237-0.091-0.455-0.236-0.631c-0.075-0.104-0.16-0.2-0.264-0.269c-0.095-0.063-0.2-0.099-0.309-0.123L25.447,1.105c-0.281-0.141-0.613-0.141-0.895,0L12.735,7.015C12.617,7.037,12.502,7.066,12.4,7.1C12.1,7.2,12,7.7,12,8v2.586L1.707,0.293c-0.391-0.391-1.023-0.391-1.414,0s-0.391,1.023,0,1.414l48,48C48.488,49.902,48.744,50,49,50s0.512-0.098,0.707-0.293c0.391-0.391,0.391-1.023,0-1.414l-3.676-3.676L49.4,42.9c0.3-0.2,0.6-0.5,0.6-0.9V28c0-0.1,0-0.2,0-0.3C49.9,27.6,49.9,27.5,49.9,27.5z M46.8,28L37,32.9l-5.372-2.687l-2.952-2.952L37,23.1L46.8,28z M36,34.586l-0.169-0.169L36,34.5V34.586z M25,3.118l9.739,4.87l-5.567,2.808L25,12.882L15.236,8L25,3.118z M14,9.618l10,5v7.968l-10-10V9.618z"/></svg>