<?xml version="1.0" encoding="iso-8859-1"?>
<!-- Generator: Adobe Illustrator 24.1.2, SVG Export Plug-In . SVG Version: 6.00 Build 0)  -->
<svg version="1.1" id="Layer_1" xmlns="http://www.w3.org/2000/svg" xmlns:xlink="http://www.w3.org/1999/xlink" x="0px" y="0px"
	 viewBox="0 0 50 50" style="enable-background:new 0 0 50 50;" xml:space="preserve">
<path style="fill:none;stroke:#000000;stroke-width:2;stroke-linecap:round;stroke-linejoin:round;stroke-miterlimit:10;" d="M25,6
	c10.493,0,19,8.954,19,20s-8.507,20-19,20"/>
<path style="fill:none;stroke:#000000;stroke-width:2;stroke-linecap:round;stroke-miterlimit:10;" d="M23,2c3,0,3,3,1,4"/>
<path d="M31.132,36.824c-0.874,0.465-1.572-0.081-1.83-0.567c-0.085-0.159-0.268-0.696-0.132-2.229
	c0.014-0.166,0.117-0.312,0.268-0.391c0.15-0.08,0.329-0.084,0.474-0.003c1.347,0.745,1.69,1.197,1.774,1.356
	C31.944,35.475,32.006,36.359,31.132,36.824z M34.775,30.169c-0.146-0.106-0.652-0.362-2.189-0.441
	c-0.166-0.01-0.325,0.073-0.425,0.21c-0.1,0.138-0.129,0.314-0.069,0.469c0.55,1.438,0.95,1.84,1.096,1.946
	c0.445,0.323,1.312,0.508,1.894-0.293S35.22,30.493,34.775,30.169z M35.25,24.65c-0.18,0-0.74,0.09-2.03,0.93
	C33.08,25.67,33,25.83,33,26s0.08,0.33,0.22,0.42c1.29,0.84,1.85,0.93,2.03,0.93c0.55,0,1.36-0.36,1.36-1.35S35.8,24.65,35.25,24.65
	z M33.307,19.614c-0.154,0.093-0.588,0.458-1.261,1.843c-0.074,0.149-0.06,0.328,0.028,0.473s0.239,0.242,0.405,0.247
	c1.538,0.056,2.065-0.156,2.219-0.248c0.471-0.283,0.98-1.009,0.47-1.858C34.658,19.222,33.778,19.33,33.307,19.614z M29.302,15.744
	c-0.085,0.159-0.268,0.696-0.132,2.229c0.014,0.166,0.117,0.312,0.268,0.391c0.15,0.08,0.329,0.084,0.474,0.003
	c1.347-0.745,1.69-1.197,1.774-1.356c0.258-0.486,0.321-1.37-0.553-1.835S29.56,15.258,29.302,15.744z"/>
<path style="fill:none;stroke:#000000;stroke-width:2;stroke-linecap:round;stroke-miterlimit:10;" d="M29,41.204
	C35.339,39.359,40,33.26,40,26s-4.661-13.36-11-15.204"/>
<path d="M25,5C13.97,5,5,14.42,5,26c0,11.58,8.97,21,20,21h1V5H25z M15.662,40.886c-1.282-1.266-2.426-2.703-3.328-4.3
	C10.445,33.435,9.531,29.688,9.5,26c0.035-3.688,0.948-7.434,2.838-10.585c0.901-1.596,2.046-3.034,3.327-4.299
	C16.965,9.872,18.391,8.754,20,8c-1.21,1.284-2.286,2.624-3.208,4.052c-0.947,1.404-1.732,2.891-2.371,4.412
	c-1.292,3.044-1.889,6.28-1.922,9.535c0.037,3.255,0.633,6.49,1.925,9.533c0.639,1.522,1.424,3.008,2.37,4.412
	C17.716,41.374,18.791,42.714,20,44C18.389,43.248,16.963,42.129,15.662,40.886z M21.08,35.702c0.09,0.807,0.231,1.6,0.385,2.395
	c0.148,0.794,0.31,1.591,0.537,2.367c0.42,1.567,0.944,3.123,1.877,4.536c-1.461-0.941-2.454-2.461-3.295-3.966
	c-0.809-1.54-1.438-3.177-1.868-4.85c-0.933-3.344-1.213-6.799-1.208-10.208c0.037-3.411,0.359-6.863,1.315-10.195
	c0.43-1.671,1.083-3.297,1.891-4.83C21.553,9.449,22.557,7.947,24,7c-0.982,1.375-1.536,2.93-1.989,4.487
	c-0.456,1.559-0.753,3.153-0.974,4.759c-0.433,3.21-0.557,6.464-0.543,9.731C20.523,29.245,20.66,32.496,21.08,35.702z"/>
</svg>