<?xml version="1.0" encoding="iso-8859-1"?>
<!-- Generator: Adobe Illustrator 25.2.3, SVG Export Plug-In . SVG Version: 6.00 Build 0)  -->
<svg version="1.1" baseProfile="basic" id="Layer_9"
	 xmlns="http://www.w3.org/2000/svg" xmlns:xlink="http://www.w3.org/1999/xlink" x="0px" y="0px" viewBox="0 0 50 50"
	 xml:space="preserve">
<path d="M40.51,39.42C37.05,43.84,31.98,46,25.13,46c-4.18,0-13.41-1.13-17.8-10.54c3.69,3.42,8.68,5.58,14.73,6.27
	c1.61,0.18,3.22,0.27,4.79,0.27C32.55,42,37.14,40.79,40.51,39.42z"/>
<path d="M48.76,20.54c-0.74-3.45-2.92-6.07-5.88-7.17c0.13,0.4,0.23,0.81,0.31,1.23c0.53,2.82-0.13,5.98-1.72,8.39
	c2.31,0.08,4.16,0.81,5.62,2.21c0.44,0.43,0.81,0.89,1.11,1.4C49,24.9,49.22,22.73,48.76,20.54z M39.68,25.04
	c-1.25,1.06-2.73,1.71-4.37,1.9c-7.74,0.91-12.85-5.42-14.26-9.62c-0.17-0.53,0.11-1.09,0.63-1.27c0.53-0.17,1.09,0.11,1.27,0.63
	c0.54,1.63,1.74,3.62,3.48,5.26c4.24-1.33,5.59-6.15,5.6-6.2c0.15-0.53,0.69-0.85,1.23-0.71c0.53,0.15,0.85,0.69,0.71,1.22
	c-0.06,0.23-1.39,5.04-5.71,7.11c1.87,1.19,4.16,1.9,6.81,1.59c2.27-0.27,3.7-1.63,4.5-2.72c1.46-1.98,2.11-4.83,1.65-7.26
	C40,8.5,32.29,4,26.13,4c-8.27,0-15,6.76-15,15.07c0,3.56,1.51,6.95,4.14,9.29c2.29,2.03,6.52,4.28,13.69,3.43
	c0.55-0.06,1.04,0.33,1.11,0.88c0.06,0.55-0.33,1.05-0.88,1.11c-1.14,0.14-2.22,0.2-3.23,0.2c-6,0-9.8-2.16-12.02-4.13
	c-3.06-2.72-4.81-6.65-4.81-10.78c0-5.15,2.28-9.77,5.89-12.89C8.75,4.85,1.04,11.49,2.26,20.81c1.65,12.6,10.57,17.86,20.02,18.93
	s16.3-1.34,20.35-3.53c3.73-2.02,6.08-6.68,3.07-9.56C44.06,25.07,41.93,24.83,39.68,25.04z"/>
</svg>