<?xml version="1.0" encoding="iso-8859-1"?>
<!-- Generator: Adobe Illustrator 22.1.0, SVG Export Plug-In . SVG Version: 6.00 Build 0)  -->
<svg version="1.1" id="Layer_1" xmlns="http://www.w3.org/2000/svg" xmlns:xlink="http://www.w3.org/1999/xlink" x="0px" y="0px"
	 viewBox="0 0 50 50" style="enable-background:new 0 0 50 50;" xml:space="preserve">
<path d="M44.44,16.133c-1.193-4.2-4.236-7.684-9.044-10.353c-9.983-5.544-18.642-2.569-25.733,8.843
	C5.7,20.999,5.577,28.965,6.735,32.321l0.166,0.509c0.863,2.627,1.755,5.343-1.682,10.539c-1.391,1.447-1.187,2.936-0.577,3.78
	c0.522,0.726,1.371,1.114,2.28,1.114c0.504,0,1.027-0.12,1.524-0.368c0.542-0.271,1.198-0.732,1.957-1.267
	c2.199-1.546,5.498-3.916,9.151-3.74c6.987,0.487,16.46-0.938,21.817-10.51C44.754,26.335,45.786,20.87,44.44,16.133z
	 M37.937,20.998c-0.091-0.008-8.94-0.49-13.996,4.268c-1.343,2.392-2.727,4.509-4.05,6.349c5.563-1.355,11.666-0.36,11.972-0.31
	c0.545,0.093,0.911,0.608,0.818,1.153c-0.091,0.544-0.606,0.903-1.152,0.819c-0.081-0.016-8.236-1.344-13.772,1.157
	c-0.002,0.002-0.003,0.004-0.005,0.006c-0.061,0.117-0.143,0.216-0.242,0.3c-1.139,1.419-2.17,2.612-2.993,3.56
	c-0.51,0.587-0.941,1.084-1.272,1.491c-0.197,0.244-0.486,0.37-0.777,0.37c-0.221,0-0.443-0.073-0.629-0.224
	c-0.429-0.348-0.495-0.978-0.146-1.406c0.342-0.422,0.788-0.936,1.314-1.543c0.79-0.91,1.778-2.053,2.867-3.407
	c0.121-7.361-3.41-11.441-3.446-11.482c-0.366-0.412-0.331-1.043,0.08-1.411c0.408-0.367,1.038-0.335,1.408,0.075
	c0.152,0.169,3.297,3.744,3.876,10.325c1.413-1.918,2.911-4.156,4.361-6.732c0.034-0.096,0.09-0.182,0.154-0.267
	c0.073-0.132,0.145-0.272,0.218-0.406c-0.004-0.027-0.018-0.049-0.02-0.076c-0.4-6.55-3.635-10.181-3.667-10.217
	c-0.37-0.408-0.342-1.04,0.064-1.412c0.408-0.372,1.036-0.345,1.41,0.061c0.13,0.142,2.774,3.089,3.814,8.508
	c1.349-2.837,2.589-5.991,3.582-9.488c0.15-0.532,0.703-0.84,1.235-0.689c0.531,0.151,0.84,0.704,0.688,1.235
	c-1.032,3.634-2.319,6.905-3.718,9.844c5.428-2.831,11.821-2.466,12.149-2.447c0.551,0.035,0.969,0.51,0.935,1.061
	C38.963,20.614,38.501,21.029,37.937,20.998z"/>
</svg>