<?xml version="1.0" encoding="utf-8"?><!-- Generator: Adobe Illustrator 15.0.0, SVG Export Plug-In . SVG Version: 6.00 Build 0)  --><!DOCTYPE svg PUBLIC "-//W3C//DTD SVG 1.1//EN" "http://www.w3.org/Graphics/SVG/1.1/DTD/svg11.dtd"><svg xmlns="http://www.w3.org/2000/svg" xmlns:xlink="http://www.w3.org/1999/xlink" viewBox="0 0 50 50" width="50px" height="50px"><line fill="none" stroke="#000000" stroke-width="2" stroke-linecap="round" stroke-miterlimit="10" x1="27.9" y1="5.7" x2="44.9" y2="15"/><line fill="none" stroke="#000000" stroke-width="2" stroke-linecap="round" stroke-miterlimit="10" x1="24.8" y1="8.4" x2="42.3" y2="19.8"/><line fill="none" stroke="#000000" stroke-width="2" stroke-linecap="round" stroke-miterlimit="10" x1="23.2" y1="12" x2="38.3" y2="22.6"/><line fill="none" stroke="#000000" stroke-width="2" stroke-linecap="round" stroke-miterlimit="10" x1="5.2" y1="33.8" x2="23.4" y2="43.5"/><line fill="none" stroke="#000000" stroke-width="2" stroke-linecap="round" stroke-miterlimit="10" x1="6.8" y1="28.8" x2="26.1" y2="40.5"/><line fill="none" stroke="#000000" stroke-width="2" stroke-linecap="round" stroke-miterlimit="10" x1="10.8" y1="25.8" x2="27.3" y2="36.3"/><path d="M21.46,19.116l6.275,0.612C22.149,11.994,24.589,9.719,25.6,8.8C27.7,6.8,30.9,4.4,31.2,4.2C31.5,4,31.7,3.6,31.6,3.1c-0.1-0.5-1.593-1.555-2.699-2.5C28.491,0.25,28,0,27.5,0.3c-0.6,0.3-3.5,2-5.9,4.4c-4.916,4.749-3.72,10.256-1.681,14.219C20.478,18.962,21.157,19.066,21.46,19.116z"/><path d="M18.5,22.8C18.5,22.8,18.5,22.8,18.5,22.8l-2.1-2.1c-4.9-0.2-9.1,0.3-11.7,2.7C-0.2,28,0,35.8,0,36.2c0,0.5,0.5,1,1,1c0.6,0,3.7-0.101,3.7-0.101c0.5,0,1-0.5,1-1c0-0.1,0-5.6,3-8.5c1.9-1.8,8.4-1.199,14-0.6L18.5,22.8z"/><path d="M33.8,38l-7.2-7.2c0.801,2.5,1,5.4,0,8c-1.1,2.7-3.3,4.5-6.8,5.5c-0.5,0.101-0.909,0.716-0.7,1.2c0.081,0.322,1.264,2.526,1.721,3.371c0.076,0.144,0.138,0.258,0.179,0.329c0.319,0.558,0.5,0.8,1,0.8c0.1,0,0.1,0,0.2,0c4.7-0.8,8.3-3.5,10.3-7.5c0.633-1.266,1.01-2.616,1.227-4.044C33.783,38.334,33.818,38.191,33.8,38z"/><path d="M49,50c-0.256,0-0.512-0.098-0.707-0.293l-48-48c-0.391-0.391-0.391-1.023,0-1.414s1.023-0.391,1.414,0l48,48c0.391,0.391,0.391,1.023,0,1.414C49.512,49.902,49.256,50,49,50z"/><path d="M49.215,12.653c0.001-0.004,0.008-0.024,0.008-0.024S46.7,11.4,46.1,11.3c-0.099-0.02-0.202-0.012-0.305-0.001c-0.047,0.005-0.094,0.011-0.141,0.023c-0.073,0.018-0.143,0.047-0.211,0.081c-0.043,0.021-0.086,0.039-0.126,0.065c-0.068,0.046-0.126,0.106-0.182,0.169c-0.028,0.032-0.062,0.057-0.085,0.093c-0.071,0.107-0.127,0.229-0.15,0.371c-0.801,3.9-2.4,7-4.601,8.8c-0.125,0.103-0.273,0.196-0.432,0.283c-0.048,0.027-0.101,0.051-0.152,0.076c-0.121,0.06-0.249,0.116-0.386,0.168c-0.06,0.023-0.119,0.046-0.183,0.067c-0.161,0.055-0.332,0.106-0.511,0.152c-0.041,0.011-0.079,0.023-0.121,0.034c-0.223,0.054-0.459,0.102-0.704,0.144c-0.068,0.012-0.141,0.021-0.211,0.032c-0.187,0.029-0.377,0.055-0.573,0.078c-0.09,0.01-0.181,0.02-0.272,0.029c-0.199,0.02-0.402,0.037-0.61,0.051c-0.08,0.006-0.158,0.013-0.239,0.018c-0.284,0.017-0.574,0.03-0.871,0.039c-0.069,0.002-0.141,0.002-0.21,0.004c-0.236,0.005-0.476,0.009-0.718,0.009c-0.043,0-0.084,0.002-0.127,0.002c-0.03,0-0.062-0.002-0.092-0.002c-0.704-0.002-1.426-0.02-2.151-0.051c-0.042-0.001-0.083-0.004-0.126-0.006c-0.741-0.033-1.484-0.077-2.21-0.127c-8.2-0.8-8.2-0.8-8.2-0.8c-0.148-0.025-0.292-0.045-0.438-0.068c-0.19-0.028-0.417-0.059-0.639-0.084C19.907,20.924,19.691,20.9,19.5,20.9l6.432,6.432c1.318,0.1,3.263,0.247,6.167,0.468c0.747,0.044,1.473,0.063,2.187,0.069c0.372,0.002,0.739-0.002,1.102-0.012c0.162-0.005,0.329-0.005,0.489-0.012c0.547-0.024,1.082-0.062,1.6-0.119c0.023-0.003,0.045-0.008,0.068-0.011c0.486-0.056,0.957-0.131,1.414-0.221c0.151-0.03,0.296-0.069,0.444-0.104c0.323-0.074,0.641-0.155,0.947-0.25c0.164-0.051,0.323-0.106,0.481-0.163c0.281-0.101,0.553-0.211,0.816-0.331c0.151-0.068,0.302-0.137,0.447-0.212c0.268-0.139,0.521-0.295,0.77-0.458c0.117-0.077,0.24-0.147,0.353-0.23c0.349-0.256,0.681-0.534,0.982-0.847c3.3-3.4,5.1-6.9,5.7-11.2C49.987,13.266,49.686,12.78,49.215,12.653z"/><path d="M31.948,29.794l-3.846-0.292L33.8,35.2c0-1.786-0.318-3.62-0.895-5.362C32.592,29.825,32.281,29.813,31.948,29.794z"/></svg>