<?xml version="1.0" encoding="utf-8"?><!-- Generator: Adobe Illustrator 15.0.0, SVG Export Plug-In . SVG Version: 6.00 Build 0)  --><!DOCTYPE svg PUBLIC "-//W3C//DTD SVG 1.1//EN" "http://www.w3.org/Graphics/SVG/1.1/DTD/svg11.dtd"><svg xmlns="http://www.w3.org/2000/svg" xmlns:xlink="http://www.w3.org/1999/xlink" viewBox="0 0 50 50" width="50px" height="50px"><path d="M48,26.539v-3.957c0.632-0.247,1.242-0.564,1.8-0.983c0.216-0.161,0.356-0.403,0.392-0.669c0.035-0.267-0.039-0.537-0.205-0.748l-2.005-2.551C47.783,11.186,42.492,6,36,6H14C7.5,6,2.202,11.199,2.018,17.656l-1.831,2.563C-0.129,20.661-0.035,21.274,0.4,21.6c0.498,0.374,1.041,0.659,1.6,0.896v4.044C0.801,27.223,0,28.494,0,30s0.801,2.777,2,3.461V39c0,2.757,2.243,5,5,5h36c2.757,0,5-2.243,5-5v-5.539c1.199-0.684,2-1.955,2-3.461S49.199,27.223,48,26.539z M17.5,9c0.829,0,1.5,0.671,1.5,1.5S18.329,12,17.5,12S16,11.329,16,10.5S16.671,9,17.5,9z M15.5,13c0.829,0,1.5,0.671,1.5,1.5S16.329,16,15.5,16S14,15.329,14,14.5S14.671,13,15.5,13z M12.5,10c0.829,0,1.5,0.671,1.5,1.5S13.329,13,12.5,13S11,12.329,11,11.5S11.671,10,12.5,10z M4.25,18l41.521,0.021l1.957,2.523c-1.879,0.95-4.202,0.751-5.927-0.544c-0.319-0.239-0.747-0.266-1.091-0.072l-1.619,0.911c-1.842,1.09-4.076,1.116-5.9-0.011l-1.601-0.9c-0.29-0.163-0.642-0.17-0.938-0.023l-2.981,1.491c-1.598,0.758-3.563,0.749-5.124,0.009l-3-1.5c-0.141-0.07-0.294-0.105-0.447-0.105c-0.169,0-0.338,0.043-0.49,0.128l-1.619,0.911c-1.844,1.089-4.079,1.114-5.901-0.011l-1.6-0.9C9.145,19.735,8.718,19.762,8.4,20c-1.74,1.306-4.087,1.497-5.972,0.521L4.25,18z M46,32H4c-1.14,0-2-0.859-2-2s0.86-2,2-2h42c1.141,0,2,0.859,2,2S47.141,32,46,32z"/></svg>