<?xml version="1.0" encoding="iso-8859-1"?>
<!-- Generator: Adobe Illustrator 24.1.2, SVG Export Plug-In . SVG Version: 6.00 Build 0)  -->
<svg version="1.1" id="Layer_1" xmlns="http://www.w3.org/2000/svg" xmlns:xlink="http://www.w3.org/1999/xlink" x="0px" y="0px"
	 viewBox="0 0 50 50" style="enable-background:new 0 0 50 50;" xml:space="preserve">
<g>
</g>
<g>
	<path d="M46,26H4c-0.552,0-1,0.448-1,1v3c0,9.7,10.616,17,17.5,17h9C36.384,47,47,39.7,47,30v-3C47,26.448,46.552,26,46,26z M41,32
		H5.203C5.084,31.344,5,30.68,5,30h36c0.552,0,1,0.448,1,1S41.552,32,41,32z"/>
	<path d="M46.966,12.634c-0.125-0.842-0.577-1.577-1.272-2.068s-1.538-0.674-2.373-0.509c-0.816,0.159-1.516,0.624-1.977,1.313
		L30.871,24h5.851l9.532-8.911c0.035-0.033,0.067-0.068,0.097-0.106C46.873,14.311,47.091,13.476,46.966,12.634z"/>
	<path style="fill:none;stroke:#000000;stroke-width:2;stroke-linecap:round;stroke-linejoin:round;stroke-miterlimit:10;" d="
		M25,18c-11.598,0-21-2.239-21-5s9.402-5,21-5c4.82,0,9.261,0.387,12.805,1.037"/>
	
		<polyline style="fill:none;stroke:#000000;stroke-width:2;stroke-linecap:round;stroke-linejoin:round;stroke-miterlimit:10;" points="
		22,15 25,18 22,21 	"/>
</g>
</svg>