<?xml version="1.0" encoding="utf-8"?><!-- Generator: Adobe Illustrator 15.0.0, SVG Export Plug-In . SVG Version: 6.00 Build 0)  --><!DOCTYPE svg PUBLIC "-//W3C//DTD SVG 1.1//EN" "http://www.w3.org/Graphics/SVG/1.1/DTD/svg11.dtd"><svg xmlns="http://www.w3.org/2000/svg" xmlns:xlink="http://www.w3.org/1999/xlink" viewBox="0 0 50 50" width="50px" height="50px"><path d="M49.7,48.3l-48-48c-0.4-0.4-1-0.4-1.4,0c-0.4,0.4-0.4,1,0,1.4l48,48c0.2,0.2,0.5,0.3,0.7,0.3s0.5-0.1,0.7-0.3C50.1,49.3,50.1,48.7,49.7,48.3z"/><path d="M35.7,37c0.5-0.2,0.899-0.5,1.399-0.7c4.5-2.3,9.2-4.6,9.2-10.7c0-5.899-6.1-10.8-13.7-10.8c-2.699,0-5.3,0.6-7.6,1.9c-2.3-1.2-4.9-1.9-7.6-1.9c-1.2,0-2.4,0.1-3.5,0.4L35.7,37z"/><path d="M11.7,15.7c-4.7,1.7-8,5.4-8,9.8c0,6.2,4.7,8.5,9.2,10.7c5,2.5,10.1,5,11.1,12.7c0.1,0.5,0.5,0.899,1,0.899s0.9-0.399,1-0.899c0.8-6,4.1-8.9,7.9-11L11.7,15.7z"/><path d="M25,14.435c1.057-0.479,2.166-0.839,3.299-1.11c0.379-1.181,0.846-1.984,1.732-2.151c0.066-0.012,0.142-0.007,0.221-0.006c0.41,0,1.096,0,1.655-0.559c0.013-0.013,0.026-0.027,0.038-0.041c0.043,0.01,0.086,0.019,0.131,0.026c0.695,0.087,1.15-0.096,1.46-0.382c0.34,0.187,0.69,0.314,0.999,0.376c0.6,0.099,1.186-0.087,1.568-0.485c0.711,0.286,1.563,0.461,2.232,0.102C38.659,10.031,39.2,9.594,39.2,8.6c0-0.372-0.089-0.79-0.248-1.205c0.923-0.061,1.663-0.679,1.996-1.679c0.012-0.033,0.021-0.066,0.028-0.099c0.256-1.155-0.313-1.994-0.797-2.586c0.098-0.333,0.055-0.685-0.128-0.979c-0.233-0.38-0.637-0.576-1.059-0.672c-0.005-0.025-0.009-0.05-0.015-0.076c-0.252-1.27-1.865-1.225-2.472-1.207L36.4,0.1c-0.055,0-0.11,0.004-0.164,0.014c-0.176,0.029-0.408,0.074-0.67,0.141c-0.514-0.472-1.221-0.319-1.74-0.205c-0.1,0.021-0.189,0.044-0.227,0.05c-0.107,0-0.215,0.017-0.316,0.051c-0.164,0.055-0.32,0.101-0.473,0.147c-0.42,0.125-0.854,0.256-1.356,0.507C31.326,0.869,31.209,0.942,31.1,1.02c-0.451-0.095-1.156-0.04-2.01,0.726c-0.314,0.282-0.63,0.646-0.89,1.045c-0.216,0.028-0.464,0.119-0.726,0.328c-0.113,0.09-0.181,0.159-0.246,0.289c-0.024,0.04-0.066,0.097-0.121,0.172C25.045,6.425,24,9.897,24,13.9v0.145C24.334,14.173,24.674,14.287,25,14.435z"/><path d="M23.819,5.266c-0.629-1.087-1.16-1.821-1.312-1.973c-0.318-0.318-0.64-0.406-0.887-0.411c-0.317-0.483-0.708-0.925-1.086-1.229c-0.727-0.584-1.338-0.616-1.729-0.534c-0.094-0.068-0.19-0.129-0.29-0.177c-0.565-0.339-1.246-0.586-1.973-0.715c-0.926-0.296-1.611-0.283-2.097,0.042c-0.017,0.011-0.033,0.022-0.048,0.034C14.103,0.236,13.801,0.2,13.503,0.2l-0.14-0.008c-0.55-0.041-1.47-0.102-2.042,0.434c-0.243,0.227-0.388,0.527-0.417,0.855c-0.421,0.096-0.823,0.292-1.058,0.671C9.665,2.448,9.622,2.804,9.723,3.139C9.297,3.681,8.776,4.503,9.039,5.675c0.294,1.027,0.963,1.636,2.012,1.814C10.889,7.906,10.8,8.327,10.8,8.7c0,0.993,0.541,1.431,0.863,1.604c0.68,0.363,1.543,0.179,2.257-0.112c0.376,0.406,0.952,0.593,1.544,0.495c0.353-0.059,0.701-0.186,1.021-0.365c0.315,0.276,0.782,0.45,1.479,0.365c0.031-0.005,0.062-0.011,0.092-0.018c0.012,0.013,0.024,0.026,0.037,0.039c0.645,0.645,1.484,0.611,1.94,0.597l0.064-0.001c0.522,0.156,1.277,0.905,1.923,1.989C22.094,10.352,22.693,7.667,23.819,5.266z"/></svg>