<?xml version="1.0" encoding="utf-8"?><!-- Generator: Adobe Illustrator 15.0.0, SVG Export Plug-In . SVG Version: 6.00 Build 0)  --><!DOCTYPE svg PUBLIC "-//W3C//DTD SVG 1.1//EN" "http://www.w3.org/Graphics/SVG/1.1/DTD/svg11.dtd"><svg xmlns="http://www.w3.org/2000/svg" xmlns:xlink="http://www.w3.org/1999/xlink" viewBox="0 0 50 50" width="50px" height="50px"><path d="M36.794,15.205c3.077,2.889,4.638,7.704,4.638,14.311c0,12.264-5.632,18.098-12.014,19.84c2.854-3.871,4.147-11.532,4.147-17.871c0-2.753-0.282-14.669-4.931-19.572C32.052,12.191,34.741,13.277,36.794,15.205z M21.366,11.913c-4.648,4.903-4.931,16.819-4.931,19.572c0,6.339,1.293,14,4.146,17.871C14.2,47.613,8.568,41.779,8.568,29.516c0-6.607,1.561-11.422,4.638-14.311C15.259,13.277,17.947,12.192,21.366,11.913z M24.975,49.937c-0.765-0.001-1.472-0.335-2.161-1.02c-3.009-2.994-4.379-11.135-4.379-17.433c0-8.938,2.036-18.353,6.565-19.543c4.529,1.19,6.565,10.605,6.565,19.543c0,6.497-1.505,14.571-4.38,17.433c-0.688,0.685-1.396,1.019-2.161,1.02c-0.008,0-0.016,0.001-0.025,0.001S24.983,49.937,24.975,49.937z M49.938,28.033c0,11.578-4.78,18.343-14.834,20.813c4.724-3.271,8.328-9.36,8.328-19.33c0-7.181-1.772-12.487-5.269-15.769c-1.205-1.132-2.62-2.012-4.226-2.654C44.963,11.841,49.938,19.963,49.938,28.033z M0.063,28.033c0-8.071,4.976-16.193,16.003-16.94c-1.606,0.641-3.022,1.521-4.229,2.654c-3.496,3.282-5.269,8.588-5.269,15.769c0,9.97,3.605,16.06,8.329,19.33C4.844,46.376,0.063,39.611,0.063,28.033z"/><path d="M22.932,10.668c0.488-0.293,1.007-0.516,1.56-0.661C24.658,9.963,24.829,9.941,25,9.941s0.342,0.022,0.508,0.066c0.553,0.145,1.073,0.368,1.56,0.661c0.006-0.008,0.015-0.013,0.021-0.021c-0.059-0.125-0.085-0.248-0.101-0.339c-0.309-1.772,1.648-4.916,2.765-5.336c0.799-0.301,1.377-0.842,1.629-1.524c0.23-0.625,0.163-1.321-0.189-1.963c-0.725-1.314-2.03-1.491-3.211-1.491c-0.151,0-0.308,0.003-0.471,0.008c-5.201,0.164-5.374,4.948-5.489,8.114c-0.019,0.518-0.046,1.253-0.117,1.879C22.307,10.108,22.669,10.338,22.932,10.668z"/></svg>