<?xml version="1.0" encoding="iso-8859-1"?><!-- Generator: Adobe Illustrator 22.1.0, SVG Export Plug-In . SVG Version: 6.00 Build 0)  --><svg xmlns="http://www.w3.org/2000/svg" xmlns:xlink="http://www.w3.org/1999/xlink" viewBox="0 0 50 50" width="50px" height="50px"><path d="M26.5,10C18.505,10,12,16.505,12,24.5S18.505,39,26.5,39S41,32.495,41,24.5S34.495,10,26.5,10z M19.172,19.586c-0.391-0.391-0.391-1.023,0-1.414s1.023-0.391,1.414,0L22,19.586l1.414-1.414c0.391-0.391,1.023-0.391,1.414,0s0.391,1.023,0,1.414L23.414,21l1.414,1.414c0.391,0.391,0.391,1.023,0,1.414c-0.195,0.195-0.451,0.293-0.707,0.293s-0.512-0.098-0.707-0.293L22,22.414l-1.414,1.414c-0.195,0.195-0.451,0.293-0.707,0.293s-0.512-0.098-0.707-0.293c-0.391-0.391-0.391-1.023,0-1.414L20.586,21L19.172,19.586z M33.926,30.377C33.769,30.765,33.395,31,33,31c-0.126,0-0.254-0.023-0.377-0.074c-4.152-1.689-8.157-1.689-12.241-0.002c-0.508,0.21-1.095-0.03-1.306-0.542c-0.211-0.51,0.031-1.095,0.542-1.306c4.531-1.874,9.161-1.875,13.759-0.002C33.889,29.282,34.135,29.865,33.926,30.377z M33.828,22.414c0.391,0.391,0.391,1.023,0,1.414c-0.195,0.195-0.451,0.293-0.707,0.293s-0.512-0.098-0.707-0.293L31,22.414l-1.414,1.414c-0.195,0.195-0.451,0.293-0.707,0.293s-0.512-0.098-0.707-0.293c-0.391-0.391-0.391-1.023,0-1.414L29.586,21l-1.414-1.414c-0.391-0.391-0.391-1.023,0-1.414s1.023-0.391,1.414,0L31,19.586l1.414-1.414c0.391-0.391,1.023-0.391,1.414,0s0.391,1.023,0,1.414L32.414,21L33.828,22.414z"/><path d="M8,9v9c0,0.552-0.447,1-1,1s-1-0.448-1-1V9H4v9c0,0.552-0.447,1-1,1s-1-0.448-1-1V9H1c-0.552,0-1,0.448-1,1v9c0,3.346,1.432,4.503,2.379,5.269C2.907,24.696,3,24.805,3,25v13.893c0,0.996,0.681,1.92,1.664,2.08C5.917,41.176,7,40.215,7,39c0-0.434,0-14,0-14c0-0.152,0.024-0.214,0.575-0.618C8.541,23.673,10,22.603,10,19.167V10c0-0.552-0.448-1-1-1H8z"/><path d="M45.522,9.147c-0.309-0.189-0.695-0.197-1.011-0.02C44.195,9.304,44,9.638,44,10c0,0,0,28.727,0,29c0,1.105,0.895,2,2,2s2-0.895,2-2c0-0.278,0-12,0-12c0-0.887,0.357-1.76,0.771-2.771C49.347,22.818,50,21.22,50,19C50,17.813,49.784,11.758,45.522,9.147z"/></svg>