<?xml version="1.0" encoding="utf-8"?><!-- Generator: Adobe Illustrator 15.0.0, SVG Export Plug-In . SVG Version: 6.00 Build 0)  --><!DOCTYPE svg PUBLIC "-//W3C//DTD SVG 1.1//EN" "http://www.w3.org/Graphics/SVG/1.1/DTD/svg11.dtd"><svg xmlns="http://www.w3.org/2000/svg" xmlns:xlink="http://www.w3.org/1999/xlink" viewBox="0 0 50 50" width="500px" height="500px"><path d="M32.5,50h-15C10.616,50,0,42.528,0,32.6V29c0-0.553,0.448-1,1-1h48c0.553,0,1,0.447,1,1v3.6C50,42.528,39.384,50,32.5,50z"/><line fill="none" stroke="#000000" stroke-width="2" stroke-linecap="round" stroke-linejoin="round" stroke-miterlimit="10" x1="10" y1="15.8" x2="10" y2="6.5"/><line fill="none" stroke="#000000" stroke-width="2" stroke-linejoin="round" stroke-miterlimit="10" x1="10" y1="26.8" x2="10" y2="13.9"/><line fill="none" stroke="#000000" stroke-width="2" stroke-linecap="round" stroke-linejoin="round" stroke-miterlimit="10" x1="14" y1="14" x2="14" y2="5"/><line fill="none" stroke="#000000" stroke-width="2" stroke-linecap="round" stroke-linejoin="round" stroke-miterlimit="10" x1="18" y1="14" x2="18" y2="4"/><line fill="none" stroke="#000000" stroke-width="2" stroke-linecap="round" stroke-linejoin="round" stroke-miterlimit="10" x1="22.1" y1="14" x2="22.1" y2="3.7"/><g><polygon points="14,12.8 14,11 12,11 12,12.8 "/><polygon points="18,11 16,11 16,12.9 18,13 "/><path d="M24,7.5L47.6,5c0.7-0.1,1.301-0.7,1.2-1.3L48.7,3C48.6,2.3,48,1.9,47.2,2L24,5.3V7.5z"/><polygon points="12,8.8 14,8.6 14,6.7 12,7 "/><polygon points="18,6.1 16,6.4 16,8.3 18,8.1 "/><polygon points="20,5.9 20,7.9 22,7.7 22,5.6 "/><polygon points="22,11 20,11 20,13 22,13.1 "/><path d="M47.7,11H24v2.2L47.6,14c0.7,0,1.4-0.5,1.4-1.2v-0.6C49,11.5,48.4,11,47.7,11z"/><polygon points="10,11 3,11 3,12.5 10,12.7 "/><polygon points="10,9 10,7.3 3,8.3 3.2,9.7 "/></g></svg>