<?xml version="1.0" encoding="iso-8859-1"?>
<!-- Generator: Adobe Illustrator 23.0.3, SVG Export Plug-In . SVG Version: 6.00 Build 0)  -->
<svg version="1.1" xmlns="http://www.w3.org/2000/svg" xmlns:xlink="http://www.w3.org/1999/xlink" x="0px" y="0px"
	 viewBox="0 0 50 50" style="enable-background:new 0 0 50 50;" xml:space="preserve">
<g id="Layer_10" style="display:none;">
	<g style="opacity:0.05;">
		<g style="display:inline;">
			<circle style="fill:#FFFFFF;" cx="25" cy="25" r="21.5"/>
			<path d="M25,4c11.579,0,21,9.421,21,21s-9.421,21-21,21S4,36.579,4,25S13.421,4,25,4 M25,3C12.85,3,3,12.85,3,25s9.85,22,22,22
				s22-9.85,22-22S37.15,3,25,3L25,3z"/>
		</g>
		<g style="display:inline;">
			<rect x="5.5" y="5.5" style="fill:#FFFFFF;" width="39" height="39"/>
			<path d="M44,6v38H6V6H44 M45,5H5v40h40V5L45,5z"/>
		</g>
	</g>
</g>
<g id="filled">
</g>
<g id="outlined">
</g>
<g id="rounded">
</g>
<g id="two_x5F_tone">
</g>
<g id="sharp">
</g>
<g id="win10">
</g>
<g id="ios_x5F_out">
</g>
<g id="ios_x5F_filled">
	<path d="M31.78,11.84c-1.63,1.85-2.96,4.07-3.7,6.55c-1.63-3.91-5.27-6.77-9.62-7.3c0.27-4.57,2.35-8.45,4.54-9
		C26.04,1.34,30.67,5.27,31.78,11.84z"/>
	<path d="M40.593,24.95c-2.159-3-5.654-4.95-9.605-4.95c-0.426,0-0.852,0.02-1.268,0.07C31.453,11.56,41.197,6.24,44.296,8.7
		C46.841,10.72,47.217,18.96,40.593,24.95z"/>
	<path d="M25,37.5C25,43.299,20.299,48,14.5,48S4,43.299,4,37.5S8.701,27,14.5,27S25,31.701,25,37.5z M17,36.5
		c0-2.481-2.019-4.5-4.5-4.5S8,34.019,8,36.5s2.019,4.5,4.5,4.5S17,38.981,17,36.5z"/>
	<circle cx="12.5" cy="36.5" r="2.5"/>
	<path d="M26.75,20.78c-2.76,1.05-5.04,3.09-6.39,5.68C18.62,25.53,16.62,25,14.5,25c-2.45,0-4.75,0.71-6.68,1.95
		C7.29,25.74,7,24.4,7,23c0-5.52,4.48-10,10-10C21.76,13,25.74,16.33,26.75,20.78z M16.828,21.984
		c1.137-0.107,2.187-0.534,2.957-1.201c0.852-0.739,1.287-1.725,1.194-2.706c-0.185-1.954-2.307-3.295-4.808-3.062
		c-1.137,0.107-2.187,0.534-2.957,1.201c-0.852,0.739-1.288,1.725-1.195,2.706c0.092,0.981,0.705,1.868,1.68,2.435
		c0.737,0.428,1.634,0.654,2.572,0.654C16.456,22.011,16.642,22.002,16.828,21.984z"/>
	<path d="M18.989,18.266c0.042,0.451-0.304,0.824-0.515,1.006c-0.451,0.391-1.119,0.654-1.834,0.721
		c-0.713,0.068-1.419-0.065-1.936-0.366c-0.241-0.14-0.651-0.441-0.693-0.893c-0.042-0.451,0.304-0.824,0.514-1.006
		c0.451-0.391,1.119-0.654,1.834-0.721c0.128-0.012,0.253-0.018,0.375-0.018C18.009,16.989,18.928,17.621,18.989,18.266z"/>
	<path d="M41,32c0,5.52-4.48,10-10,10c-1.61,0-3.13-0.38-4.48-1.07C26.83,39.84,27,38.69,27,37.5c0-4.05-1.94-7.67-4.95-9.95
		C23.68,24.26,27.08,22,31,22C36.52,22,41,26.48,41,32z M36.13,34.488c0.957-0.5,1.619-1.401,1.864-2.537
		c0.23-1.068,0.06-2.227-0.481-3.262s-1.394-1.837-2.402-2.259c-1.073-0.448-2.19-0.42-3.147,0.081
		c-1.91,0.999-2.53,3.6-1.383,5.799c0.542,1.035,1.395,1.837,2.403,2.258c0.505,0.211,1.021,0.316,1.524,0.316
		C35.073,34.886,35.624,34.753,36.13,34.488z"/>
	<path d="M34.339,28.276c0.579,0.241,1.076,0.717,1.4,1.339v0c0.325,0.622,0.432,1.302,0.3,1.914
		c-0.117,0.545-0.414,0.966-0.836,1.186c-0.42,0.221-0.936,0.224-1.449,0.008c-0.578-0.241-1.076-0.717-1.4-1.339
		c-0.639-1.222-0.397-2.613,0.535-3.101c0.214-0.111,0.45-0.167,0.7-0.167C33.831,28.117,34.085,28.17,34.339,28.276z"/>
</g>
<g id="color">
</g>
</svg>