<?xml version="1.0" encoding="utf-8"?><!-- Generator: Adobe Illustrator 15.0.0, SVG Export Plug-In . SVG Version: 6.00 Build 0)  --><!DOCTYPE svg PUBLIC "-//W3C//DTD SVG 1.1//EN" "http://www.w3.org/Graphics/SVG/1.1/DTD/svg11.dtd"><svg xmlns="http://www.w3.org/2000/svg" xmlns:xlink="http://www.w3.org/1999/xlink" viewBox="0 0 50 50" width="50px" height="50px"><path d="M35.334,25.681c-0.766-2.412-2.271-4.823-4.238-6.79c-3.258-3.261-7.324-4.747-9.723-4.747c-1.143,0-2.023,0.318-2.546,0.92c-1.557,1.788-3.274,4.17-4.986,6.773c0.205,0.55,0.778,1.182,1.149,1.418c0.078,0.049,0.3,0.132,0.496,0.205c1.116,0.415,3.194,1.188,4.773,4.423c0.242,0.496,0.036,1.095-0.46,1.337c-0.141,0.069-0.291,0.102-0.438,0.102c-0.371,0-0.727-0.206-0.9-0.562c-1.228-2.517-2.699-3.064-3.672-3.426c-0.331-0.123-0.617-0.229-0.872-0.392c-0.368-0.234-0.863-0.673-1.286-1.23c-2.152,3.407-4.232,7.036-5.897,10.15c-0.099,0.185-0.19,0.358-0.286,0.539c0.46,0.494,0.859,0.771,0.867,0.776c0.04,0.026,0.081,0.059,0.116,0.09c0.164,0.149,0.447,0.281,0.775,0.435c0.942,0.439,2.365,1.104,3.103,3.302c0.176,0.523-0.106,1.091-0.629,1.267c-0.105,0.035-0.213,0.052-0.318,0.052c-0.418,0-0.808-0.264-0.948-0.682c-0.465-1.386-1.201-1.729-2.053-2.126c-0.416-0.194-0.846-0.395-1.222-0.72c-0.112-0.079-0.36-0.271-0.66-0.544c-5.572,10.8-4.525,11.85-4.061,12.314C1.705,48.854,2.117,49,2.644,49c0,0,0,0,0,0c2.288,0,9.489-3.161,18.601-8.678c-0.518-0.443-0.82-0.796-0.844-0.824c-0.604-0.599-0.964-1.277-1.282-1.876c-0.484-0.912-0.804-1.515-2.055-1.954c-0.521-0.183-0.795-0.753-0.613-1.274c0.183-0.521,0.755-0.799,1.275-0.612c1.989,0.697,2.611,1.869,3.16,2.903c0.276,0.521,0.538,1.013,0.986,1.462c0.044,0.049,0.488,0.554,1.191,1.059c2.549-1.587,5.224-3.346,7.967-5.259c-0.375-0.352-0.655-0.649-0.715-0.714c-0.5-0.499-0.822-1.131-1.135-1.742c-0.599-1.172-0.994-1.946-2.562-1.946c-0.553,0-1-0.447-1-1s0.447-1,1-1c2.791,0,3.688,1.755,4.343,3.036c0.253,0.495,0.491,0.963,0.797,1.268c0.235,0.255,0.589,0.603,0.947,0.915c0.712-0.509,1.428-1.024,2.146-1.553c0.04-0.03,0.079-0.063,0.114-0.099C35.976,30.103,36.109,28.123,35.334,25.681z"/><path d="M29.946,20.124c-0.285,0-0.567-0.121-0.765-0.354c-0.354-0.418-0.305-1.043,0.109-1.402c4.366-3.775,4.48-6.562,4.557-8.405c0.041-0.988,0.079-1.922,0.807-2.585c0.562-0.512,1.257-0.767,1.948-0.724c-0.068-0.854,0.163-1.651,0.904-2.17c0.549-0.384,1.264-0.478,1.932-0.32c0.01-0.332,0.066-0.667,0.192-0.979c0.225-0.554,0.637-0.966,1.191-1.192c1.088-0.444,2.118-0.136,2.733,0.42c0.438-0.356,1.013-0.66,1.701-0.66c0.724,0,1.396,0.328,1.996,0.976c0.754,0.812,0.839,1.616,0.778,2.147c-0.063,0.546-0.3,1.015-0.572,1.388c0.335,0.311,0.657,0.715,0.834,1.214c0.223,0.634,0.173,1.306-0.146,1.943c-0.315,0.63-0.854,1.037-1.549,1.182c0.057,0.18,0.096,0.367,0.11,0.558c0.046,0.595-0.143,1.148-0.546,1.598c-0.488,0.545-1.161,0.834-1.947,0.834c-0.275,0-0.549-0.036-0.812-0.093c0.002,0.728-0.217,1.475-0.846,2.07c-0.962,0.912-1.889,1.028-2.59,1.028c-0.316,0-0.648-0.029-1.006-0.061c-0.352-0.032-0.731-0.068-1.155-0.068c-1.431,0-3.545,0.39-7.226,3.427C30.396,20.049,30.17,20.124,29.946,20.124z"/><path d="M49.01,19.337c0.094-0.603,0.022-1.32-0.488-1.92c-0.37-0.434-0.958-0.6-1.517-0.647c-0.154-0.519-0.5-1.061-1.113-1.486c-0.289,0.108-0.587,0.197-0.899,0.247c-0.247,0.556-0.602,1.057-1.058,1.489c-1.664,1.577-3.396,1.577-3.966,1.577c-0.388,0-0.751-0.03-1.21-0.071c-0.322-0.03-0.628-0.058-0.951-0.058c-0.089,0-0.201,0.001-0.333,0.009c0.5,0.286,0.894,0.619,1.164,0.885c-0.267,0.517-0.471,1.184-0.232,1.796c0.157,0.397,0.46,0.708,0.852,0.874c0.102,0.043,0.206,0.075,0.311,0.098c-0.02,0.352,0.005,0.699,0.112,0.986c0.201,0.542,0.68,0.874,1.353,0.969c0.039,0.827,0.392,1.72,1.447,2.213c0.533,0.25,1.095,0.272,1.626,0.064c0.327-0.127,0.607-0.327,0.842-0.553c0.217,0.205,0.476,0.39,0.78,0.519c0.233,0.1,0.542,0.186,0.91,0.186c0.326,0,0.7-0.068,1.109-0.255c0.935-0.426,1.289-1.073,1.422-1.541c0.143-0.503,0.087-0.989-0.024-1.382c0.33-0.338,0.661-0.841,0.804-1.564C50.175,20.64,49.624,19.829,49.01,19.337z"/><path d="M27.967,10.743c0.166,0.392,0.477,0.694,0.877,0.852c0.576,0.226,1.206,0.054,1.712-0.192c0.25,0.327,0.532,0.808,0.729,1.383c0.49-1.129,0.53-2.069,0.564-2.908c0.048-1.162,0.114-2.752,1.457-3.977c0.446-0.408,0.953-0.723,1.491-0.935c0.047-0.15,0.112-0.291,0.176-0.433c-0.02-0.041-0.032-0.081-0.054-0.121c-0.444-0.826-1.089-1.238-1.691-1.417c-0.048-0.559-0.215-1.147-0.648-1.518c-0.599-0.51-1.314-0.583-1.918-0.486c-0.491-0.614-1.303-1.165-2.435-0.94c-0.723,0.144-1.226,0.474-1.564,0.804c-0.393-0.111-0.879-0.167-1.382-0.024c-0.468,0.133-1.115,0.487-1.541,1.422c-0.397,0.87-0.257,1.579-0.07,2.02c0.129,0.305,0.314,0.563,0.52,0.78c-0.226,0.235-0.426,0.515-0.553,0.842c-0.207,0.532-0.184,1.094,0.064,1.626c0.494,1.056,1.386,1.409,2.213,1.447c0.095,0.673,0.426,1.151,0.965,1.351c0.286,0.108,0.637,0.13,0.989,0.111C27.891,10.534,27.923,10.64,27.967,10.743z"/></svg>