<?xml version="1.0" encoding="utf-8"?><!-- Generator: Adobe Illustrator 15.0.0, SVG Export Plug-In . SVG Version: 6.00 Build 0)  --><!DOCTYPE svg PUBLIC "-//W3C//DTD SVG 1.1//EN" "http://www.w3.org/Graphics/SVG/1.1/DTD/svg11.dtd"><svg xmlns="http://www.w3.org/2000/svg" xmlns:xlink="http://www.w3.org/1999/xlink" viewBox="0 0 50 50" width="50px" height="50px"><path d="M33.4,34.01c-0.001,0-0.001,0-0.002,0c-0.266,0-0.52-0.107-0.707-0.295l-16.5-16.6c-0.389-0.391-0.388-1.022,0.002-1.412l7.4-7.4c0.914-0.915,2.142-1.418,3.457-1.418c1.315,0,2.543,0.503,3.457,1.418L41.51,19.406c1.903,1.903,1.903,5.005-0.003,6.911l-7.399,7.4C33.92,33.904,33.666,34.01,33.4,34.01z"/><path d="M15.95,50.025c-1.315,0-2.543-0.504-3.457-1.418l-11.1-11.101c-1.906-1.906-1.906-5.008,0-6.914l12.6-12.6l18.014,18.014l-12.6,12.601C18.493,49.521,17.265,50.025,15.95,50.025z"/><path d="M49,50c-0.256,0-0.512-0.098-0.707-0.293l-48-48c-0.391-0.391-0.391-1.023,0-1.414s1.023-0.391,1.414,0l48,48c0.391,0.391,0.391,1.023,0,1.414C49.512,49.902,49.256,50,49,50z"/><path d="M45.107,12.937l-8.101-8.1c-1.039-1.04-3.074-1.041-4.114,0l-1.545,1.545c0.201,0.16,0.396,0.33,0.58,0.514l10.996,11.097c0.21,0.209,0.398,0.434,0.577,0.665l1.606-1.606C46.202,15.955,46.202,14.032,45.107,12.937z"/><path d="M49.707,1.893l-1.6-1.6c-0.344-0.344-0.886-0.391-1.285-0.109l-6.815,4.824l4.985,4.985l4.824-6.815C50.098,2.78,50.052,2.238,49.707,1.893z"/></svg>