<?xml version="1.0" encoding="utf-8"?><!-- Generator: Adobe Illustrator 15.0.0, SVG Export Plug-In . SVG Version: 6.00 Build 0)  --><!DOCTYPE svg PUBLIC "-//W3C//DTD SVG 1.1//EN" "http://www.w3.org/Graphics/SVG/1.1/DTD/svg11.dtd"><svg xmlns="http://www.w3.org/2000/svg" xmlns:xlink="http://www.w3.org/1999/xlink" viewBox="0 0 50 50" width="50px" height="50px"><path fill="none" stroke="#000000" stroke-width="2" stroke-linecap="round" stroke-linejoin="round" stroke-miterlimit="10" d="M19.125,41.771c-0.811-4.238-0.606-11.276,1.801-15.883c2.886-5.521,7.03-7.56,7.03-7.56"/><path d="M25,2C12.318,2,2,12.318,2,25c0,12.683,10.318,23,23,23c12.683,0,23-10.317,23-23C48,12.318,37.683,2,25,2z M31.195,31.279c-3.256,4.576-9.308,4.843-9.308,4.843h-0.178c-0.045,1.994,0.099,3.899,0.398,5.462c0.104,0.542-0.251,1.065-0.794,1.17c-0.063,0.012-0.127,0.018-0.189,0.018c-0.47,0-0.89-0.333-0.981-0.813c-0.325-1.697-0.482-3.723-0.438-5.834l-1.191,0.001c0,0-10.529-8.763-0.901-19.106c5.859-6.294,15.876-3.868,18.878-2.136C33.359,19.101,34.675,26.389,31.195,31.279z"/></svg>