<?xml version="1.0" encoding="iso-8859-1"?><!-- Generator: Adobe Illustrator 21.1.0, SVG Export Plug-In . SVG Version: 6.00 Build 0)  --><svg xmlns="http://www.w3.org/2000/svg" xmlns:xlink="http://www.w3.org/1999/xlink" viewBox="0 0 50 50" width="50px" height="50px"><g></g><path d="M21.542,4.889c0.057,0.03,0.853,0.472,1.524,1.64c0.66,0.202,1.304,0.447,1.941,0.786c0.161-0.076,0.326-0.13,0.489-0.199c-0.953-2.919-2.938-3.955-3.048-4.01c-0.491-0.244-1.079-0.047-1.331,0.439C20.866,4.032,21.059,4.632,21.542,4.889z"/><path d="M30.7,8c-1.775,0-3.518,0.474-5.154,1.301c-3.298,1.792-6.108,5.572-7.628,9.095C17.755,18.774,17.387,19,17,19c-0.132,0-0.267-0.026-0.396-0.083c-0.507-0.219-0.741-0.807-0.522-1.314c1.46-3.385,3.906-6.821,6.895-9.016C21.88,8.177,20.723,8,19.3,8C11.415,8,5,16.748,5,27.5S11.415,47,19.3,47c1.421,0,2.576-0.176,3.672-0.586c-2.987-2.195-5.43-5.635-6.89-9.018c-0.219-0.507,0.015-1.095,0.522-1.314c0.505-0.219,1.095,0.014,1.314,0.522c1.449,3.358,4.06,6.98,7.159,8.861c-0.005,0.012,0.192,0.106,0.289,0.158C27.052,46.508,28.862,47,30.7,47C38.585,47,45,38.252,45,27.5S38.585,8,30.7,8z M30,41c-0.552,0-1-0.448-1-1c0-0.552,0.448-1,1-1s1,0.448,1,1C31,40.552,30.552,41,30,41z M33,36c-0.552,0-1-0.448-1-1c0-0.552,0.448-1,1-1s1,0.448,1,1C34,35.552,33.552,36,33,36z M35,40c-0.552,0-1-0.448-1-1c0-0.552,0.448-1,1-1s1,0.448,1,1C36,39.552,35.552,40,35,40z M38,35c-0.552,0-1-0.448-1-1c0-0.552,0.448-1,1-1s1,0.448,1,1C39,34.552,38.552,35,38,35z"/></svg>