<?xml version="1.0" encoding="utf-8"?><!-- Generator: Adobe Illustrator 15.0.0, SVG Export Plug-In . SVG Version: 6.00 Build 0)  --><!DOCTYPE svg PUBLIC "-//W3C//DTD SVG 1.1//EN" "http://www.w3.org/Graphics/SVG/1.1/DTD/svg11.dtd"><svg xmlns="http://www.w3.org/2000/svg" xmlns:xlink="http://www.w3.org/1999/xlink" viewBox="0 0 50 50" width="50px" height="50px"><path d="M37.6,50H12.4c-0.448,0-0.842-0.299-0.963-0.73l-8.4-30c-0.084-0.301-0.023-0.625,0.166-0.874C3.392,18.146,3.687,18,4,18h8.4c0.452,0,0.848,0.303,0.965,0.74C13.458,19.075,15.744,27,25,27s11.542-7.925,11.635-8.263C36.754,18.303,37.149,18,37.6,18H46c0.313,0,0.607,0.146,0.797,0.396c0.188,0.25,0.25,0.573,0.166,0.874l-8.4,30C38.441,49.701,38.048,50,37.6,50z"/><path d="M23.229,28.438c-0.506,0-0.94-0.383-0.994-0.897l-2.63-25.448l-5.323,0.244l2.193,21.728c0.055,0.55-0.345,1.04-0.895,1.096c-0.556,0.056-1.04-0.345-1.096-0.895L12.186,1.485c-0.027-0.273,0.059-0.546,0.238-0.754c0.18-0.208,0.437-0.333,0.711-0.346l7.322-0.335c0.546-0.026,0.986,0.369,1.041,0.896l2.727,26.388c0.057,0.549-0.342,1.04-0.892,1.098C23.298,28.436,23.263,28.438,23.229,28.438z"/><path d="M7.816,19.78c-0.486,0-0.913-0.355-0.987-0.852L4.874,5.905C4.793,5.371,5.152,4.87,5.684,4.773l7.547-1.371c0.545-0.096,1.064,0.262,1.163,0.805c0.099,0.543-0.262,1.064-0.805,1.163L6.996,6.567l1.811,12.064c0.082,0.546-0.294,1.055-0.84,1.137C7.916,19.776,7.866,19.78,7.816,19.78z"/><path d="M26.847,28.609c-0.026,0-0.054-0.001-0.081-0.003c-0.551-0.045-0.961-0.526-0.917-1.077l2.138-26.614c0.022-0.27,0.152-0.52,0.361-0.692c0.211-0.173,0.48-0.253,0.749-0.222l7.279,0.83c0.541,0.062,0.933,0.544,0.883,1.086L35.162,24.43c-0.052,0.55-0.55,0.952-1.089,0.903c-0.55-0.051-0.954-0.539-0.903-1.088l2.007-21.536l-5.278-0.602l-2.056,25.583C27.801,28.213,27.362,28.609,26.847,28.609z"/><path d="M41.739,19.78c-0.061,0-0.121-0.005-0.183-0.017c-0.544-0.101-0.902-0.623-0.802-1.166l1.649-8.905l-6.344-0.716c-0.549-0.062-0.943-0.557-0.882-1.106c0.063-0.548,0.551-0.945,1.106-0.881l7.41,0.837c0.275,0.031,0.526,0.175,0.691,0.398s0.23,0.504,0.18,0.777l-1.845,9.96C42.633,19.443,42.212,19.78,41.739,19.78z"/><path d="M28.225,5.16h-7.32c-0.552,0-1-0.448-1-1s0.448-1,1-1h7.32c0.553,0,1,0.448,1,1S28.777,5.16,28.225,5.16z"/></svg>