<?xml version="1.0" encoding="iso-8859-1"?>
<!-- Generator: Adobe Illustrator 23.0.6, SVG Export Plug-In . SVG Version: 6.00 Build 0)  -->
<svg version="1.1" id="Filled" xmlns="http://www.w3.org/2000/svg" xmlns:xlink="http://www.w3.org/1999/xlink" x="0px" y="0px"
	 viewBox="0 0 50 50" style="enable-background:new 0 0 50 50;" xml:space="preserve">
<circle cx="29" cy="9" r="1"/>
<circle cx="33" cy="17" r="1"/>
<circle cx="36" cy="11" r="1"/>
<circle cx="35" cy="24" r="1"/>
<path d="M42.462,7.538c-6.28-6.279-15.41-7.367-20.351-2.427L8.567,19c-2.556,2.555-4.219,6.423-4.448,10.347
	c-0.268,4.564,1.399,8.891,4.693,12.185c3.064,3.065,7.024,4.721,11.237,4.721c0.314,0,0.63-0.009,0.947-0.028
	c3.923-0.229,7.448-1.892,10.003-4.448l13.889-13.888C49.83,22.947,48.741,13.817,42.462,7.538z M43.475,26.475
	c-4.162,4.161-12.021,3.073-17.522-2.427c-5.5-5.5-6.588-13.36-2.427-17.522c1.706-1.705,4.031-2.528,6.563-2.528
	c3.645,0,7.714,1.709,10.96,4.955C46.548,14.452,47.636,22.313,43.475,26.475z"/>
<path d="M7.714,48c-0.037,0-0.074-0.002-0.111-0.006c-0.385-0.043-0.71-0.304-0.835-0.671c-0.78-2.285-2.055-3.577-4.011-4.067
	c-0.387-0.097-0.679-0.415-0.743-0.808c-0.065-0.394,0.11-0.788,0.445-1.003C4.706,40,7.187,40,9,40c0.553,0,1,0.448,1,1
	c0,1.871,0,4.2-1.436,6.525C8.382,47.822,8.059,48,7.714,48z"/>
<circle cx="26.5" cy="14.5" r="1.5"/>
<circle cx="40.5" cy="19.5" r="1.5"/>
</svg>