<?xml version="1.0" encoding="utf-8"?><!-- Generator: Adobe Illustrator 15.0.0, SVG Export Plug-In . SVG Version: 6.00 Build 0)  --><!DOCTYPE svg PUBLIC "-//W3C//DTD SVG 1.1//EN" "http://www.w3.org/Graphics/SVG/1.1/DTD/svg11.dtd"><svg xmlns="http://www.w3.org/2000/svg" xmlns:xlink="http://www.w3.org/1999/xlink" viewBox="0 0 50 50" width="50px" height="50px"><path d="M47.32,16.5c0.408-0.579,0.632-1.271,0.632-2c0-1.05-0.48-2.028-1.264-2.681c0.173-0.417,0.264-0.864,0.264-1.319c0-1.38-0.804-2.595-2.004-3.16c-0.092-2.026-1.968-3.622-4.013-3.299c-0.961-0.979-2.517-1.31-3.803-0.777C36.479,2.48,35.502,2,34.452,2c-0.729,0-1.421,0.223-2,0.632C31.873,2.223,31.182,2,30.452,2c-1.05,0-2.027,0.48-2.681,1.264c-1.285-0.532-2.841-0.202-3.803,0.777c-1.552-0.243-3.041,0.613-3.676,1.963c-1.856,0.084-3.34,1.621-3.34,3.497c0,0.172,0.014,0.345,0.041,0.517c-0.662,0.65-1.041,1.536-1.041,2.483c0,1.38,0.803,2.595,2.003,3.16c0.041,0.887,0.413,1.71,1.037,2.323c-0.027,0.172-0.041,0.344-0.041,0.517c0,1.876,1.484,3.412,3.34,3.497c0.543,1.153,1.686,1.94,3,2c0.543,1.153,1.687,1.94,3,2c0.543,1.154,1.687,1.94,3,2c0.564,1.2,1.779,2.004,3.16,2.004c0.455,0,0.902-0.091,1.319-0.264C36.425,30.52,37.402,31,38.452,31c1.381,0,2.596-0.804,3.16-2.004c1.803-0.081,3.255-1.533,3.336-3.336c1.2-0.565,2.004-1.78,2.004-3.16c0-0.455-0.091-0.902-0.264-1.319c0.783-0.653,1.264-1.63,1.264-2.681C47.952,17.771,47.729,17.079,47.32,16.5z M24.952,14c-0.552,0-1-0.448-1-1s0.448-1,1-1c0.551,0,1-0.449,1-1c0-0.552,0.447-1,1-1s1,0.448,1,1C27.952,12.654,26.606,14,24.952,14z M34.952,23c-0.553,0-1-0.448-1-1s0.447-1,1-1c0.552,0,1-0.449,1-1c0-0.552,0.447-1,1-1s1,0.448,1,1C37.952,21.654,36.606,23,34.952,23z M34.952,15c-0.553,0-1-0.448-1-1s0.447-1,1-1c1.103,0,2-0.897,2-2c0-0.552,0.447-1,1-1s1,0.448,1,1C38.952,13.206,37.158,15,34.952,15z"/><g><path d="M30.124,29.826c-0.864-0.223-1.649-0.656-2.304-1.247c-3.721,3.979-11.975,12.348-13.886,10.437c-0.339-0.405,7.486-8.239,11.353-12.066c-0.437-0.315-0.836-0.687-1.167-1.124c-0.721-0.186-1.38-0.53-1.962-0.978C18.27,28.453,10.476,35.549,9.934,35.016c-1.62-1.62,5.683-8.299,9.757-11.797c-1.371-0.816-2.345-2.203-2.608-3.835c-0.54,0.432-1.138,0.908-1.77,1.411c-3.632,2.891-8.152,6.489-10.091,8.428C3.145,31.3,2,34.062,2,37s1.144,5.7,3.222,7.777C7.299,46.855,10.062,48,13,48s5.701-1.145,7.778-3.223c2.26-2.26,7.989-9.372,11.174-13.414C31.243,30.991,30.614,30.471,30.124,29.826z"/></g></svg>