<?xml version="1.0" encoding="iso-8859-1"?><!-- Generator: Adobe Illustrator 22.1.0, SVG Export Plug-In . SVG Version: 6.00 Build 0)  --><svg xmlns="http://www.w3.org/2000/svg" xmlns:xlink="http://www.w3.org/1999/xlink" viewBox="0 0 50 50" width="50px" height="50px"><path d="M48.895,4.553l-1-2C47.725,2.214,47.379,2,47,2c-0.162,0-2.943,0.027-5.344,1.29c0.796,0.523,1.547,1.128,2.236,1.817c0.879,0.879,1.613,1.86,2.22,2.908l2.552-2.268C49.002,5.447,49.097,4.957,48.895,4.553z"/><path d="M42.479,6.521c-4.688-4.688-12.314-4.688-17.002,0c-1.441,1.441-4.094,4.044-7.884,7.737c-2.015,1.964-4.644,3.395-7.604,4.139c-2.149,0.54-4.107,1.67-5.664,3.266C2.179,23.864,0.998,26.803,1,29.938c0.002,3.294,1.343,6.523,3.679,8.859l5.524,5.525c2.335,2.335,5.564,3.676,8.858,3.678c0.003,0,0.006,0,0.009,0c3.126,0,6.059-1.177,8.257-3.315c1.598-1.554,2.729-3.512,3.273-5.662c0.745-2.949,2.176-5.571,4.137-7.583c4.515-4.631,7.119-7.294,7.741-7.917c2.271-2.271,3.521-5.29,3.521-8.5C46,11.811,44.749,8.792,42.479,6.521z M30.692,12.722c-0.001,0.001-3.689,3.537-7.516,7.266c-3.022,2.946-6.907,5.079-11.235,6.167c-0.714,0.179-1.367,0.557-1.889,1.092C9.374,27.943,9,28.877,9,29.875c0,0.855,0.282,1.724,0.839,2.58c0.301,0.463,0.169,1.083-0.294,1.383C9.377,33.948,9.188,34,9.001,34c-0.327,0-0.647-0.16-0.84-0.455C7.391,32.358,7,31.124,7,29.875c0-1.523,0.575-2.952,1.621-4.024c0.78-0.8,1.76-1.366,2.833-1.635c3.985-1.003,7.557-2.96,10.326-5.661c3.833-3.735,7.527-7.277,7.527-7.277c0.399-0.383,1.031-0.37,1.414,0.03C31.104,11.707,31.091,12.34,30.692,12.722z"/></svg>