<?xml version="1.0" encoding="iso-8859-1"?><!-- Generator: Adobe Illustrator 21.1.0, SVG Export Plug-In . SVG Version: 6.00 Build 0)  --><svg xmlns="http://www.w3.org/2000/svg" xmlns:xlink="http://www.w3.org/1999/xlink" viewBox="0 0 50 50" width="50px" height="50px"><path d="M39,14.65c-2,2.34-2.81,11.44-11.71,18.29c-4.85,3.71-8.55,1.57-10.26-0.63c2.73-5.05,7.74-9.85,13.38-12.4c0.51-0.23,0.73-0.82,0.5-1.32c-0.23-0.51-0.82-0.73-1.32-0.5c-5.55,2.5-10.53,7.07-13.59,12.05c-2.05,2.91-2.68,5.47-3.01,7.99C12.93,38.63,12.5,39,12,39c-0.04,0-0.08,0-0.13-0.01c-0.55-0.07-0.93-0.57-0.86-1.12c0.35-2.7,1.13-5.64,3.14-8.66c-0.9-0.68-1.86-1.98-2.12-4.47C11.31,17.98,22.583,9.542,39,14.65z"/><path style="fill:none;stroke:#000000;stroke-width:2;stroke-miterlimit:10;" d="M37,4H13c-4.971,0-9,4.029-9,9v24c0,4.971,4.029,9,9,9h24c4.971,0,9-4.029,9-9V13C46,8.029,41.971,4,37,4z"/></svg>