<svg xmlns="http://www.w3.org/2000/svg"  viewBox="0 0 50 50" width="50px" height="50px" baseProfile="basic"><path d="M14.5,0C9.813,0,6,3.813,6,8.5S9.813,17,14.5,17c0.701,0,1.424-0.091,2.149-0.269L15.23,9L23,8.5C23,3.813,19.187,0,14.5,0z"/><path d="M30.503,47.01C28.99,46.4,28,44.932,28,43.301V38.5h-4v4.801c0,1.631-0.99,3.099-2.503,3.709L19.043,48H25h7.957	L30.503,47.01z"/><path fill="none" stroke="#000" stroke-linecap="round" stroke-linejoin="round" stroke-miterlimit="10" stroke-width="2" d="M28,38.5v4.801c0,1.631,0.991,3.099,2.503,3.709L32.957,48H25h-5.957l2.454-0.99C23.009,46.4,24,44.932,24,43.301V38.5"/><path fill="none" stroke="#000" stroke-linecap="round" stroke-linejoin="round" stroke-miterlimit="10" stroke-width="3" d="M34.024,29.243c0-2.626,2.129-4.756,4.756-4.756s4.756,2.129,4.756,4.756s-2.129,4.756-4.756,4.756c-1.354,0-5.245-0.24-7.179,2.202"/><path fill="none" stroke="#000" stroke-linejoin="round" stroke-miterlimit="10" stroke-width="2" d="M15,9l0.86,2.581	c0.442,1.326,0.709,2.705,0.792,4.101l0.924,15.386C17.844,35.523,21.536,39,26,39h0c4.464,0,8.156-3.477,8.424-7.933l0.924-15.386	c0.084-1.396,0.35-2.774,0.792-4.101L37,9H15z"/><rect width="7" height="4" x="24" y="17" fill="#fff"/><line x1="21" x2="35" y1="17" y2="17" fill="none" stroke="#000" stroke-linecap="round" stroke-miterlimit="10" stroke-width="2"/><path d="M35.27,16l-0.85,15.07c-0.13,2.16-1.06,4.16-2.64,5.63C30.21,38.18,28.16,39,26,39c-1.972,0-3.795-0.68-5.238-1.824	l0.618-0.786c0.18,0.14,0.4,0.21,0.62,0.21c0.29,0,0.58-0.13,0.78-0.38c0.35-0.43,0.27-1.06-0.16-1.4c-1.21-0.96-1.96-2.4-2.05-3.93	L19.68,16H35.27z"/><path d="M29.349,17l-4.536,0.438l6.956-16.303c0.217-0.508,0.804-0.744,1.312-0.527l1.84,0.785c0.508,0.217,0.744,0.804,0.527,1.312	L29.349,17z"/></svg>