<?xml version="1.0" encoding="utf-8"?><!-- Generator: Adobe Illustrator 15.0.0, SVG Export Plug-In . SVG Version: 6.00 Build 0)  --><!DOCTYPE svg PUBLIC "-//W3C//DTD SVG 1.1//EN" "http://www.w3.org/Graphics/SVG/1.1/DTD/svg11.dtd"><svg xmlns="http://www.w3.org/2000/svg" xmlns:xlink="http://www.w3.org/1999/xlink" viewBox="0 0 50 50" width="50px" height="50px"><path d="M39.4,28.8c-2.4-0.5-4.9-1.1-7-2.2c3.399-6,4.5-12.1,3-17.3C34.3,5.5,31.8,2.7,28.7,1.6C27.5,1.2,26.4,1,25.4,1c-4.3,0-6.3,3.9-8.2,7.6c-1.1,2.1-2.2,4.3-3.8,6l23.25,23.102c1.486,0.096,3.068,0.097,4.75-0.002C42,37.6,42.5,38,42.5,38.6c0.1,0.5-0.3,1-0.9,1.101c-0.899,0.1-1.899,0.1-2.8,0.1h-0.037l5.837,5.8c2.601-2,4.2-4.699,4.4-7.6C49.6,31,44.4,29.9,39.4,28.8z M22.2,23.3l-1.4-1.4c2.6-3.4,4.6-7.7,5.601-13.1C26.5,8.3,27.1,7.9,27.6,8s0.9,0.6,0.801,1.2C27.3,15,25,19.6,22.2,23.3z"/><line fill="none" stroke="#000000" stroke-width="2" stroke-linecap="round" stroke-linejoin="round" stroke-miterlimit="10" x1="1" y1="1" x2="49" y2="49"/><path d="M9.6,17.2c-6.9,2.3-9,8-8.5,12.6c0,0.029,0.002,0.073,0.007,0.128c0.048,0.565,0.383,2.432,1.562,4.394c0.486-0.175,1.098-0.41,1.831-0.722c5.082-2.191,10.605-5.279,14.998-10.248L12,15.9C11.3,16.4,10.5,16.9,9.6,17.2z"/><path d="M14.6,38.8c2.9-0.399,6-1.3,8.9-2.899c0.975-0.484,2-1.2,2-1.2c1.1-0.7,2-1.5,2.9-2.5l-7.477-7.432C16.337,29.909,10.569,33.113,5.8,35.2c-0.623,0.289-1.325,0.539-1.951,0.739c0.201,0.229,0.411,0.456,0.642,0.677c0,0,0,0,0,0c0.001,0.001,0.002,0.002,0.003,0.003C4.775,36.888,5.071,37.151,5.4,37.4c1.4,1,3.5,1.6,6.2,1.6c0.2,0,0.5,0,0.7,0C13.4,38.938,14.141,38.891,14.6,38.8z"/><path d="M12.3,39c1.1-0.063,1.841-0.109,2.3-0.2c2.9-0.399,6-1.3,8.9-2.899c0.975-0.484,2-1.2,2-1.2c1.087-0.692,1.979-1.483,2.869-2.467l-7.446-7.465C16.337,29.909,10.569,33.113,5.8,35.2c-0.623,0.289-1.325,0.539-1.951,0.739c0.201,0.229,0.411,0.456,0.642,0.677c0,0,0,0,0,0c0.001,0.001,0.002,0.002,0.003,0.003C4.775,36.888,5.071,37.151,5.4,37.4c1.4,1,3.5,1.6,6.2,1.6C11.8,39,12.1,39,12.3,39z"/><path d="M33.403,37.279l-3.622-3.631c-0.706,0.773-1.413,1.424-2.159,1.997C29.496,36.394,31.399,36.916,33.403,37.279z"/><path d="M35.707,39.589c-3.542-0.331-6.887-1.19-10.04-2.614c-0.369,0.227-0.802,0.479-1.238,0.697c-2.835,1.558-6.119,2.63-9.504,3.102c-0.314,0.059-0.69,0.1-1.147,0.136c1.693,1.993,4.019,4.114,7.021,5.391C25.2,48.1,29.4,49,33.3,49c3.601,0,6.8-0.8,9.5-2.3L35.707,39.589z"/></svg>