<?xml version="1.0" encoding="utf-8"?><!-- Generator: Adobe Illustrator 15.0.0, SVG Export Plug-In . SVG Version: 6.00 Build 0)  --><!DOCTYPE svg PUBLIC "-//W3C//DTD SVG 1.1//EN" "http://www.w3.org/Graphics/SVG/1.1/DTD/svg11.dtd"><svg xmlns="http://www.w3.org/2000/svg" xmlns:xlink="http://www.w3.org/1999/xlink" viewBox="0 0 50 50" width="50px" height="50px"><path d="M2.846,33H3h44h0.154C48.725,33,50,31.725,50,30.154v-3.309C50,25.276,48.725,24,47.154,24H2.846C1.277,24,0,25.276,0,26.846v3.309C0,31.725,1.277,33,2.846,33z"/><path d="M37,45h-3V35h-4v10h-3V35h-4v10h-3V35h-4v10h-3V35H3v1c0,0.195,0,0.314,3.429,11.448c0.021,0.067,0.091,0.209,0.125,0.271C7.152,48.788,7.829,50,9.231,50H40.77c1.74,0,2.358-1.48,2.803-2.552C47,36.314,47,36.195,47,36v-1H37V45z"/><path d="M39,6H29c-1.104,0-2-0.897-2-2V2c0-1.103,0.896-2,2-2h10c1.104,0,2,0.897,2,2v2C41,5.103,40.104,6,39,6z"/><path d="M19.593,15.065c-1.505-0.841-3.205-1.295-4.977-1.295c-4.992,0-8.923,3.399-9.956,8.23h7.599L19.593,15.065z"/><path d="M44,22v-0.178c0-2.319-1.918-9.743-4.169-13.911C39.563,7.968,39.285,8,39,8H29c-0.311,0-0.607-0.043-0.896-0.11c-0.928,1.737-1.732,3.949-2.313,5.751L40.523,22H44z"/><path d="M36.471,22l-12.669-7.188c-0.382-0.218-0.861-0.159-1.181,0.143L15.17,22H36.471z"/></svg>