<?xml version="1.0" encoding="iso-8859-1"?><!-- Generator: Adobe Illustrator 21.1.0, SVG Export Plug-In . SVG Version: 6.00 Build 0)  --><svg xmlns="http://www.w3.org/2000/svg" xmlns:xlink="http://www.w3.org/1999/xlink" viewBox="0 0 50 50" width="50px" height="50px"><g></g><path d="M31,6c-0.274,0-0.569,0.023-0.86,0.041C25.503,6.468,18,10.368,18,23c0,5.422,2.839,10.454,2.868,10.504c0.274,0.479,0.107,1.09-0.372,1.364C20.34,34.958,20.169,35,20.001,35c-0.347,0-0.685-0.181-0.869-0.504C19.004,34.272,16,28.947,16,23c0-8.649,3.454-13.874,7.516-16.599C22.433,6.125,21.081,6,19.3,6C11.779,6,4,12.733,4,24c0,8.505,3.891,14.695,11.565,18.4c1.452,0.701,3.148,1.345,4.789,1.967c1.879,0.713,4.452,1.689,4.826,2.206C25.369,46.842,25.675,47,26,47c0.024,0,0.049-0.001,0.073-0.003c0.352-0.026,0.664-0.235,0.821-0.55c0.474-0.948,1.796-1.494,3.626-2.25c1.165-0.481,2.484-1.026,3.954-1.817C42.876,37.856,46,32.604,46,23C46,12.832,39.972,6,31,6z"/><path d="M26.058,4.986c0.185-0.073,0.371-0.133,0.557-0.198c-0.359-1.081-0.871-1.503-1.085-1.637L25.52,3.167C25.367,3.07,25.195,3,25,3c-0.552,0-1,0.448-1,1c0,0.186,0.059,0.353,0.15,0.499L26.058,4.986z"/></svg>