<?xml version="1.0" encoding="utf-8"?><!-- Generator: Adobe Illustrator 15.0.0, SVG Export Plug-In . SVG Version: 6.00 Build 0)  --><!DOCTYPE svg PUBLIC "-//W3C//DTD SVG 1.1//EN" "http://www.w3.org/Graphics/SVG/1.1/DTD/svg11.dtd"><svg xmlns="http://www.w3.org/2000/svg" xmlns:xlink="http://www.w3.org/1999/xlink" viewBox="0 0 50 50" width="500px" height="500px"><path fill="none" stroke="#000000" stroke-width="4" stroke-linecap="round" stroke-linejoin="round" stroke-miterlimit="10" d="M43.896,7.854c1.166,4.625-6.4,10.954-18,13.354C14.396,23.708,4.042,21,4,16.229S10.708,5.296,22.208,2.896C33.709,0.496,42.73,3.229,43.896,7.854z"/><path fill="none" stroke="#000000" stroke-width="4" stroke-linecap="round" stroke-linejoin="round" stroke-miterlimit="10" d="M4,16.229C4,22.05,12.6,27.2,23.8,27.2c12.999,0,18.062-4.838,19.231-7.794"/><path fill="none" stroke="#000000" stroke-width="4" stroke-linecap="round" stroke-linejoin="round" stroke-miterlimit="10" d="M39.203,30c-1.359,1.375-4.239,3.4-10.503,3.4c-7.388,0-12.182-4.216-14.075-6.072c-0.567-0.556-2-2.328-2-2.328"/><path fill="none" stroke="#000000" stroke-width="4" stroke-linecap="round" stroke-linejoin="round" stroke-miterlimit="10" d="M18.703,33.063C19.625,35.344,22.078,39.9,29,39.9c2.729,0,4.865-0.9,6.028-1.463"/><path fill="none" stroke="#000000" stroke-width="4" stroke-linecap="round" stroke-linejoin="round" stroke-miterlimit="10" d="M10.969,15.328C13.305,12.336,18.156,9.766,23.7,8.6c4.998-1,9.097-0.803,12.515,0.047"/><path fill="none" stroke="#000000" stroke-width="4" stroke-linecap="round" stroke-linejoin="round" stroke-miterlimit="10" d="M19.531,40.156c0,0,1.454,3.622,5.922,3.938"/><path fill="none" stroke="#000000" stroke-width="4" stroke-linecap="round" stroke-linejoin="round" stroke-miterlimit="10" d="M15.095,47.946c2.051-0.298,3.172-1.307,3.171-1.306"/></svg>