<?xml version="1.0" encoding="utf-8"?><!-- Generator: Adobe Illustrator 15.0.0, SVG Export Plug-In . SVG Version: 6.00 Build 0)  --><!DOCTYPE svg PUBLIC "-//W3C//DTD SVG 1.1//EN" "http://www.w3.org/Graphics/SVG/1.1/DTD/svg11.dtd"><svg xmlns="http://www.w3.org/2000/svg" xmlns:xlink="http://www.w3.org/1999/xlink" viewBox="0 0 50 50" width="500px" height="500px"><path d="M18.3,35c0-1.816,0.493-3.95,1.065-6.428c0.829-3.589,1.861-8.055,0.854-10.549c-0.383-0.947-0.26-2.012,0.327-2.848c0.561-0.798,1.48-1.274,2.459-1.274h0.072l0.038,0.001c1.827,0.07,3.25,1.003,4.294,1.687c0.034,0.023,0.071,0.048,0.11,0.073c0.155-0.64,0.293-1.573,0.396-2.263c0.153-1.043,0.341-2.295,0.669-3.631L16.355,5.121c-0.229-0.087-0.481-0.087-0.711,0l-15,5.7C0.257,10.968,0,11.34,0,11.755v37.3c0,0.553,0.448,1,1,1h25.809C22.928,47.992,18.3,43.711,18.3,35z M13,43.055H7v-6h6V43.055z M13,33.055H7v-6h6V33.055z M13,23.055H7v-6h6V23.055z"/><path d="M44.293,12.091c-0.247-0.32-0.664-0.459-1.053-0.356c-0.391,0.105-0.68,0.435-0.731,0.836c-0.243,1.871-1.333,3.647-1.707,3.765c-0.543-0.316-0.981-1.262-1.204-2.596c-0.658-3.964,0.607-9.724,2.657-12.084c0.282-0.325,0.325-0.794,0.106-1.164c-0.219-0.371-0.647-0.56-1.071-0.47C31.605,2.098,30.575,9.074,29.893,13.69c-0.235,1.604-0.459,3.12-0.992,3.809c-0.455,0.607-0.75,0.61-0.85,0.61c-0.001,0-0.002,0-0.002,0c-0.443,0-1.104-0.433-1.74-0.851c-0.938-0.613-1.999-1.309-3.271-1.358c-0.348-0.011-0.661,0.147-0.856,0.424c-0.195,0.278-0.236,0.636-0.109,0.95c1.243,3.08,0.179,7.686-0.76,11.75C20.77,31.377,20.3,33.409,20.3,35c0,13.229,11.854,14.877,11.976,14.893c0.304,0.034,0.593-0.07,0.805-0.269C32.692,49.222,32.4,48.9,32.4,48.9s-5.5-5.4-5.5-14.7C36,39,28.6,29.1,38,25c-2.8,9-0.3,17.1,3.7,9.2c0,0,1.8,0.899,1.8,5.8c0,1.874-0.7,3.714-1.528,5.368c-0.626,1.253-1.424,2.332-2.142,3.508c0,0-0.267,0.373-0.604,0.833c0.168,0.119,0.365,0.191,0.574,0.191c0.068,0,0.138-0.006,0.206-0.021C46.497,48.512,50,40.061,50,32.8C50,26.514,47.656,16.463,44.293,12.091z"/></svg>