<?xml version="1.0" encoding="iso-8859-1"?>
<!-- Generator: Adobe Illustrator 24.0.0, SVG Export Plug-In . SVG Version: 6.00 Build 0)  -->
<svg version="1.1" xmlns="http://www.w3.org/2000/svg" xmlns:xlink="http://www.w3.org/1999/xlink" x="0px" y="0px"
	 viewBox="0 0 50 50" style="enable-background:new 0 0 50 50;" xml:space="preserve">
<g id="Perch">
</g>
<g id="Acupuncture">
</g>
<g id="Cover_Up">
</g>
<g id="Child_Safe_Zone">
</g>
<g id="Sustainable_Energy">
</g>
<g id="Ice_Maker">
</g>
<g id="Bong">
</g>
<g id="Diving_Helmet">
</g>
<g id="Stretching">
</g>
<g id="Flea">
</g>
<g id="Bouncing_Ball">
</g>
<g id="Rattlesnake">
</g>
<g id="Hydroponics">
</g>
<g id="Electric_Shaver">
</g>
<g id="Dinosaur_Egg">
</g>
<g id="TEXT" style="display:none;">
</g>
<g id="Goalkeeper">
</g>
<g id="Killed_fish">
</g>
<g id="Peterbilt">
</g>
<g id="International">
</g>
<g id="Kenworth">
</g>
<g id="Bursts">
</g>
<g id="Funicular">
</g>
<g id="Neuron">
</g>
<g id="Plasma_Ball">
</g>
<g id="Car_Headlights">
</g>
<g id="Share_Moment">
</g>
<g id="Sun_Elevation">
</g>
<g id="Southwest_Airlines">
</g>
<g id="Brave_Browser">
</g>
<g id="Dog_Pooping">
</g>
<g id="Dog_Peeing">
</g>
<g id="Moonrise">
</g>
<g id="Moonset">
	<g>
		
			<line style="fill:none;stroke:#000000;stroke-width:2;stroke-linecap:round;stroke-linejoin:round;stroke-miterlimit:10;" x1="25" y1="2" x2="25" y2="20"/>
		
			<polyline style="fill:none;stroke:#000000;stroke-width:2;stroke-linecap:round;stroke-linejoin:round;stroke-miterlimit:10;" points="
			32,14 25,20 18,14 		"/>
		
			<polyline style="fill:none;stroke:#000000;stroke-width:2;stroke-linecap:round;stroke-linejoin:round;stroke-miterlimit:10;" points="
			1,49 9.5,49 40.5,49 49,49 		"/>
		<path id="Moon_1_1_" style="display:none;" d="M40.5,50h-31c-0.456,0-0.854-0.309-0.968-0.75C8.179,47.881,8,46.451,8,45
			c0-9.199,7.475-16.82,16.662-16.99c0.301-0.005,0.587,0.124,0.781,0.354c0.194,0.229,0.275,0.533,0.221,0.828
			C25.554,29.787,25.5,30.379,25.5,31c0,5.514,4.374,10,9.75,10c1.638,0,3.249-0.419,4.66-1.212c0.267-0.149,0.589-0.17,0.872-0.052
			c0.283,0.116,0.497,0.356,0.581,0.651C41.786,41.885,42,43.437,42,45c0,1.451-0.179,2.881-0.532,4.25
			C41.354,49.691,40.956,50,40.5,50z"/>
		<g id="Moon_2_1_">
			<path style="fill:none;stroke:#000000;stroke-width:2;stroke-linecap:round;stroke-linejoin:round;stroke-miterlimit:10;" d="
				M41,45c0,0.42-0.02,0.83-0.05,1.24c-0.02,0.27-0.04,0.53-0.08,0.8c-0.03,0.27-0.07,0.54-0.12,0.81
				c-0.07,0.39-0.16,0.77-0.25,1.15h-31c-0.09-0.38-0.18-0.76-0.25-1.15c-0.05-0.27-0.09-0.54-0.12-0.81
				c-0.04-0.27-0.06-0.53-0.08-0.8C9.02,45.83,9,45.42,9,45c0-0.83,0.06-1.64,0.18-2.44c0.08-0.51,0.19-1.01,0.31-1.51
				c0.32-1.26,0.79-2.47,1.4-3.59c0.12-0.23,0.24-0.45,0.37-0.67s0.27-0.43,0.41-0.64c0.23-0.35,0.47-0.68,0.72-1
				c0.49,0.23,1.04,0.35,1.61,0.35c2.21,0,4-1.79,4-4c0-0.29-0.03-0.57-0.09-0.84c0.02-0.01,0.05-0.02,0.07-0.04
				c0.33-0.17,0.66-0.31,1.01-0.45c0.14-0.06,0.28-0.12,0.43-0.17c0.19-0.07,0.39-0.14,0.59-0.2c0.21-0.07,0.42-0.14,0.63-0.2
				c0.06-0.01,0.11-0.03,0.17-0.04c0.22-0.06,0.44-0.12,0.65-0.17c0.02,0,0.05-0.01,0.07-0.01c0.25-0.05,0.5-0.1,0.76-0.15
				c0.26-0.04,0.52-0.08,0.78-0.11c0.53-0.07,1.07-0.11,1.61-0.11C24.78,29,24.89,29,25,29c3.56,0,6.84,1.16,9.49,3.14
				c0.08,0.03,0.15,0.09,0.22,0.15c0,0.01,0,0.01,0.01,0.01c1.12,0.85,2.13,1.86,2.97,2.98c0.06,0.05,0.11,0.12,0.16,0.19
				c0.43,0.58,0.83,1.2,1.18,1.85C38.39,38.03,38,38.97,38,40c0,1.85,1.25,3.4,2.95,3.86c0.01,0.02,0.01,0.05,0.01,0.07
				C40.99,44.29,41,44.64,41,45z"/>
			<path style="fill:none;stroke:#000000;stroke-width:2;stroke-linecap:round;stroke-linejoin:round;stroke-miterlimit:10;" d="
				M15.337,49.001C15.121,48.546,15,48.037,15,47.5c0-1.933,1.567-3.5,3.5-3.5c0.783,0,1.507,0.257,2.09,0.692"/>
			<path d="M41,45c0,0.42-0.02,0.83-0.05,1.24c-0.02,0.27-0.04,0.53-0.08,0.8c-0.03,0.27-0.07,0.54-0.12,0.81
				c-0.07,0.39-0.16,0.77-0.25,1.15H30c0-4.9-2.64-9.08-5.34-12.06c-0.2-0.24-0.42-0.47-0.62-0.69c-0.92-0.95-1.82-1.77-2.6-2.42
				c-0.05-0.04-0.1-0.08-0.15-0.12C19.95,32.6,19,32,19,32s-0.45-0.67-1.02-1.38c0.33-0.17,0.66-0.31,1.01-0.45
				c0.14-0.06,0.28-0.12,0.43-0.17c0.19-0.07,0.39-0.14,0.59-0.2c0.21-0.07,0.42-0.14,0.63-0.2c0.06-0.01,0.11-0.03,0.17-0.04
				c0.22-0.06,0.44-0.12,0.65-0.17c0.02,0,0.05-0.01,0.07-0.01c0.25-0.05,0.5-0.1,0.76-0.15c0.26-0.04,0.52-0.08,0.78-0.11
				c0.53-0.07,1.07-0.11,1.61-0.11C24.78,29,24.89,29,25,29c3.56,0,6.84,1.16,9.49,3.14c0.08,0.03,0.15,0.09,0.22,0.15
				c0,0.01,0,0.01,0.01,0.01c1.12,0.85,2.13,1.86,2.97,2.98c0.06,0.05,0.11,0.12,0.16,0.19c0.43,0.58,0.83,1.2,1.18,1.85
				C38.39,38.03,38,38.97,38,40c0,1.85,1.25,3.4,2.95,3.86c0.01,0.02,0.01,0.05,0.01,0.07C40.99,44.29,41,44.64,41,45z"/>
		</g>
	</g>
</g>
<g id="Layer_35">
</g>
</svg>