<?xml version="1.0" encoding="utf-8"?><!-- Generator: Adobe Illustrator 19.1.1, SVG Export Plug-In . SVG Version: 6.00 Build 0)  --><svg xmlns="http://www.w3.org/2000/svg" xmlns:xlink="http://www.w3.org/1999/xlink" viewBox="0 0 50 50" width="500px" height="500px"><line fill="none" stroke="#000000" stroke-width="2" stroke-linecap="round" stroke-miterlimit="10" x1="27" y1="43" x2="29" y2="41"/><line fill="none" stroke="#000000" stroke-width="2" stroke-linecap="round" stroke-miterlimit="10" x1="12" y1="38" x2="14" y2="36"/><line fill="none" stroke="#000000" stroke-width="2" stroke-linecap="round" stroke-miterlimit="10" x1="7" y1="43" x2="9" y2="41"/><line fill="none" stroke="#000000" stroke-width="2" stroke-linecap="round" stroke-miterlimit="10" x1="23" y1="37" x2="25" y2="35"/><line fill="none" stroke="#000000" stroke-width="2" stroke-linecap="round" stroke-miterlimit="10" x1="18" y1="42" x2="20" y2="40"/><line fill="none" stroke="#000000" stroke-width="2" stroke-linecap="round" stroke-linejoin="round" stroke-miterlimit="10" x1="3" y1="3" x2="47" y2="47"/><g><path d="M30.8,32H36c5.5,0,10-4.5,10-10s-4.5-10-10-10c-1.2,0-2.3,0.2-3.4,0.6C31.3,8.1,27.3,5,22.5,5c-5.1,0-9.3,3.6-10.3,8.4L30.8,32z"/><path d="M32.3,36.3l-1,1c-0.4,0.4-0.4,1,0,1.4c0.2,0.2,0.5,0.3,0.7,0.3s0.5-0.1,0.7-0.3l1-1L32.3,36.3z"/><path d="M12,16c-4.4,0-8,3.6-8,8c0,4.4,3.6,8,8,8h16L12,16z"/></g></svg>