<?xml version="1.0" encoding="iso-8859-1"?>
<!-- Generator: Adobe Illustrator 23.0.3, SVG Export Plug-In . SVG Version: 6.00 Build 0)  -->
<svg version="1.1" xmlns="http://www.w3.org/2000/svg" xmlns:xlink="http://www.w3.org/1999/xlink" x="0px" y="0px"
	 viewBox="0 0 50 50" style="enable-background:new 0 0 50 50;" xml:space="preserve">
<g id="filled">
</g>
<g id="outlined">
</g>
<g id="rounded">
</g>
<g id="two_x5F_tone">
</g>
<g id="sharp">
</g>
<g id="win10">
</g>
<g id="ios_x5F_out">
</g>
<g id="ios_x5F_filled">
	<path d="M45.995,32.625c-0.09,0.124-8.593,11.542-21.6,9.035c2.098,2.231,4.94,3.397,4.977,3.412
		c0.457,0.184,0.712,0.673,0.602,1.153C29.868,46.681,29.463,47,29.001,47c-0.023,0-0.048-0.001-0.071-0.002
		c-0.158-0.011-14.826-1.199-18.942-13.928c-0.723,2.827-0.199,5.668-0.192,5.706c0.096,0.5-0.2,0.993-0.687,1.144
		C8.622,40.066,8.1,39.83,7.896,39.363c-0.062-0.143-5.692-13.43,2.703-23.161c-2.879,0.695-5.122,2.51-5.151,2.534
		c-0.385,0.315-0.944,0.301-1.312-0.037c-0.367-0.337-0.43-0.893-0.147-1.303c0.084-0.124,8.166-11.581,21.645-9.024
		c-2.101-2.253-4.971-3.43-5.007-3.444c-0.457-0.184-0.713-0.674-0.602-1.154c0.111-0.48,0.561-0.806,1.046-0.772
		c0.154,0.011,14.47,1.207,18.48,14.036c0.917-2.909,0.643-5.866,0.639-5.904c-0.048-0.485,0.261-0.934,0.73-1.063
		c0.469-0.129,0.965,0.1,1.171,0.542c0.065,0.141,6.02,13.271-3.063,23.17c3.011-0.712,5.533-2.531,5.566-2.554
		c0.399-0.291,0.949-0.247,1.296,0.1C46.241,31.677,46.285,32.227,45.995,32.625z M25,22c-1.657,0-3,1.343-3,3s1.343,3,3,3
		s3-1.343,3-3S26.657,22,25,22z"/>
</g>
<g id="color">
</g>
</svg>