<?xml version="1.0" encoding="iso-8859-1"?><!-- Generator: Adobe Illustrator 19.2.0, SVG Export Plug-In . SVG Version: 6.00 Build 0)  --><svg xmlns="http://www.w3.org/2000/svg" xmlns:xlink="http://www.w3.org/1999/xlink" viewBox="0 0 50 50" width="500px" height="500px"><path d="M43.477,9C24.515,9,9,24.515,9,43.477V46h6v-2.114C15,27.999,27.999,15,43.886,15H46V9H43.477z"/><path d="M44.295,21C31.483,21,21,31.483,21,44.295V46h6v-1.295C27,34.967,34.967,27,44.705,27H46v-6H44.295z"/><path style="fill:none;stroke:#000000;stroke-width:2;stroke-miterlimit:10;" d="M46.114,34H47V2h-4C20.45,2,2,20.45,2,43v4h32v-0.886C34,39.451,39.451,34,46.114,34z"/></svg>