<?xml version="1.0" encoding="utf-8"?><!-- Generator: Adobe Illustrator 19.1.1, SVG Export Plug-In . SVG Version: 6.00 Build 0)  --><svg xmlns="http://www.w3.org/2000/svg" xmlns:xlink="http://www.w3.org/1999/xlink" viewBox="0 0 50 50" width="500px" height="500px"><path d="M18,27.2V3c0-0.6-0.4-1-1-1H9C8.4,2,8,2.4,8,3v24.2c-3.7,1.9-6,5.6-6,9.8c0,6.1,4.9,11,11,11s11-4.9,11-11C24,32.9,21.7,29.1,18,27.2z M13,41c-2.2,0-4-1.8-4-4c0-1.9,1.3-3.4,3-3.9V14h2v19.1c1.7,0.4,3,2,3,3.9C17,39.2,15.2,41,13,41z"/><path d="M44,42c-2.8,0-5-2.2-5-5c0-2.4,3.5-7.7,4.2-8.8L44,27l0.8,1.2c0.7,1,4.2,6.4,4.2,8.8C49,39.8,46.8,42,44,42z"/><path d="M44,14c-2.2,0-4-1.8-4-4c0-1.9,2.6-5.9,3.2-6.7L44,2l0.8,1.2C45.4,4.1,48,8.1,48,10C48,12.2,46.2,14,44,14z"/><path d="M34.5,28C32,28,30,26,30,23.5c0-2.1,3.1-6.8,3.7-7.7l0.8-1.2l0.8,1.2c0.6,0.9,3.7,5.6,3.7,7.7C39,26,37,28,34.5,28z"/><line fill="none" stroke="#000000" stroke-width="2" stroke-linejoin="round" stroke-miterlimit="10" x1="17" y1="7" x2="21" y2="7"/><line fill="none" stroke="#000000" stroke-width="2" stroke-linejoin="round" stroke-miterlimit="10" x1="17" y1="11" x2="20" y2="11"/><line fill="none" stroke="#000000" stroke-width="2" stroke-linejoin="round" stroke-miterlimit="10" x1="17" y1="15" x2="21" y2="15"/><line fill="none" stroke="#000000" stroke-width="2" stroke-linejoin="round" stroke-miterlimit="10" x1="17" y1="19" x2="20" y2="19"/><line fill="none" stroke="#000000" stroke-width="2" stroke-linejoin="round" stroke-miterlimit="10" x1="17" y1="23" x2="21" y2="23"/></svg>