<?xml version="1.0" encoding="iso-8859-1"?>
<!-- Generator: Adobe Illustrator 25.2.3, SVG Export Plug-In . SVG Version: 6.00 Build 0)  -->
<svg version="1.1" baseProfile="basic" id="Layer_1"
	 xmlns="http://www.w3.org/2000/svg" xmlns:xlink="http://www.w3.org/1999/xlink" x="0px" y="0px" viewBox="0 0 50 50"
	 xml:space="preserve">
<path d="M48,25c0,12.683-10.317,23-23,23S2,37.683,2,25C2,12.318,12.317,2,25,2S48,12.318,48,25z M25,26c-0.553,0-1,0.447-1,1v9
	c0,1.654-1.346,3-3,3s-3-1.346-3-3c0-0.553-0.447-1-1-1s-1,0.447-1,1c0,2.757,2.243,5,5,5s5-2.243,5-5v-9C26,26.447,25.553,26,25,26
	z M26,9.051V8c0-0.552-0.447-1-1-1s-1,0.448-1,1v1.051C15.644,9.571,9,16.515,9,25v0.155c-0.001,0.305-0.001,0.608,0.019,0.91
	c0.029,0.441,0.346,0.809,0.777,0.907c0.431,0.097,0.878-0.102,1.095-0.487C10.948,26.383,12.322,24,15.218,24
	c1.6,0,3.101,0.936,4.014,2.504c0.359,0.613,1.397,0.614,1.757-0.001C21.901,24.936,23.401,24,25.001,24
	c1.599,0,3.1,0.936,4.015,2.504C29.194,26.812,29.551,27,29.906,27s0.685-0.189,0.864-0.496C31.684,24.936,33.185,24,34.784,24
	c2.416,0,4.38,2.572,4.398,2.597c0.252,0.337,0.687,0.48,1.086,0.361c0.401-0.119,0.687-0.476,0.714-0.894
	c0.019-0.295,0.019-0.591,0.018-0.89V25C41,16.515,34.356,9.571,26,9.051z"/>
</svg>