<?xml version="1.0" encoding="utf-8"?><!-- Generator: Adobe Illustrator 15.0.0, SVG Export Plug-In . SVG Version: 6.00 Build 0)  --><!DOCTYPE svg PUBLIC "-//W3C//DTD SVG 1.1//EN" "http://www.w3.org/Graphics/SVG/1.1/DTD/svg11.dtd"><svg xmlns="http://www.w3.org/2000/svg" xmlns:xlink="http://www.w3.org/1999/xlink" viewBox="0 0 50 50" width="500px" height="500px"><path d="M49.363,11.068c-1.778-0.695-3.575-1.651-3.81-1.967c-0.261-0.834,0.532-3.164,1.15-4.475c0.185-0.391,0.097-0.856-0.217-1.153c-0.313-0.296-0.781-0.359-1.163-0.154c-0.95,0.514-2.806,1.328-3.742,1.329c-0.139,0-0.192-0.02-0.234-0.043C40.881,4.37,39.745,2.499,38.917,0.6c-0.166-0.38-0.554-0.627-0.965-0.599c-0.415,0.02-0.774,0.294-0.903,0.689c-0.591,1.815-1.55,3.663-2.007,3.876c0,0-0.063,0.021-0.222,0.021c-1.013,0-3.114-0.795-4.201-1.296c-0.376-0.172-0.823-0.097-1.118,0.194c-0.297,0.291-0.383,0.733-0.218,1.114c0.779,1.786,1.363,3.833,1.282,4.417c-0.389,0.406-2.177,1.342-3.94,2.057c-0.384,0.155-0.632,0.53-0.625,0.944s0.268,0.78,0.656,0.922c1.739,0.637,3.555,1.588,3.773,1.903c0.218,0.871-0.538,3.186-1.144,4.552c-0.174,0.391-0.079,0.849,0.235,1.14c0.315,0.292,0.78,0.349,1.154,0.146c0.95-0.514,2.806-1.329,3.742-1.329c0.139,0,0.192,0.02,0.234,0.043c0.467,0.235,1.603,2.107,2.431,4.005C37.243,23.766,37.604,24,38,24c0.016,0,0.032,0,0.048-0.001c0.415-0.02,0.774-0.294,0.903-0.689c0.591-1.815,1.55-3.663,2.007-3.876c0,0,0.063-0.021,0.222-0.021c1.013,0,3.114,0.795,4.201,1.296c0.379,0.174,0.83,0.095,1.126-0.201c0.296-0.296,0.376-0.746,0.201-1.126c-0.812-1.757-1.405-3.78-1.269-4.428c0.347-0.414,2.141-1.341,3.917-2.019c0.386-0.147,0.642-0.517,0.644-0.931C50.002,11.591,49.749,11.219,49.363,11.068z M38,16c-2.2,0-4-1.8-4-4s1.8-4,4-4s4,1.8,4,4S40.2,16,38,16z"/><path d="M15,20H5c-2.757,0-5-2.243-5-5c0-0.681,0.112-1.286,0.333-1.805C0.15,12.505,0,11.77,0,11c0-4.962,4.038-9,9-9c3.088,0,5.93,1.596,7.532,4.197C19.683,6.871,22,9.711,22,13C22,16.86,18.86,20,15,20z"/><path d="M25,50c-3.584,0-6.5-2.916-6.5-6.5S21.416,37,25,37s6.5,2.916,6.5,6.5S28.584,50,25,50z"/><g><path d="M29.533,36.322L32.6,24.3L26.53,35.146C27.618,35.344,28.632,35.751,29.533,36.322z"/></g></svg>