<?xml version="1.0" encoding="utf-8"?><!-- Generator: Adobe Illustrator 15.0.0, SVG Export Plug-In . SVG Version: 6.00 Build 0)  --><!DOCTYPE svg PUBLIC "-//W3C//DTD SVG 1.1//EN" "http://www.w3.org/Graphics/SVG/1.1/DTD/svg11.dtd"><svg xmlns="http://www.w3.org/2000/svg" xmlns:xlink="http://www.w3.org/1999/xlink" viewBox="0 0 50 50" width="500px" height="500px"><path d="M36,33H12c-4.411,0-8-3.589-8-8s3.589-8,8-8c0.004,0,0.009,0,0.014,0C12.004,16.831,12,16.665,12,16.5C12,10.71,16.71,6,22.5,6c4.76,0,8.818,3.13,10.085,7.603C33.678,13.203,34.822,13,36,13c5.514,0,10,4.486,10,10C46,28.514,41.514,33,36,33z"/><path d="M31,50v-7.5l6-4.5v7.5L31,50z"/><path d="M21,45v-7.5l6-4.5v7.5L21,45z"/><path d="M8,50v-7.5l6-4.5v7.5L8,50z"/></svg>