<?xml version="1.0" encoding="utf-8"?><!-- Generator: Adobe Illustrator 15.0.0, SVG Export Plug-In . SVG Version: 6.00 Build 0)  --><!DOCTYPE svg PUBLIC "-//W3C//DTD SVG 1.1//EN" "http://www.w3.org/Graphics/SVG/1.1/DTD/svg11.dtd"><svg xmlns="http://www.w3.org/2000/svg" xmlns:xlink="http://www.w3.org/1999/xlink" viewBox="0 0 50 50" width="500px" height="500px"><path d="M32,41c-0.256,0-0.512-0.098-0.707-0.293c-0.391-0.391-0.391-1.023,0-1.414l4-4c0.391-0.391,1.023-0.391,1.414,0s0.391,1.023,0,1.414l-4,4C32.512,40.902,32.256,41,32,41z"/><path d="M8,40c-0.256,0-0.512-0.098-0.707-0.293c-0.391-0.391-0.391-1.023,0-1.414l4-4c0.391-0.391,1.023-0.391,1.414,0s0.391,1.023,0,1.414l-4,4C8.512,39.902,8.256,40,8,40z"/><g><polygon points="18,35 23,35 17.923,43 29,33 24,33 26,31 21.111,31 "/><path d="M36,11c-1.178,0-2.322,0.203-3.415,0.603C31.318,7.13,27.26,4,22.5,4C16.71,4,12,8.71,12,14.5c0,0.165,0.004,0.331,0.014,0.5c-0.004,0-0.009,0-0.014,0c-4.411,0-8,3.589-8,8s3.589,8,8,8h9.111L25,26h6l-5,5h10c5.514,0,10-4.486,10-10C46,15.486,41.514,11,36,11z"/></g></svg>