<?xml version="1.0" encoding="iso-8859-1"?>
<!-- Generator: Adobe Illustrator 23.0.3, SVG Export Plug-In . SVG Version: 6.00 Build 0)  -->
<svg version="1.1" id="Layer_1" xmlns="http://www.w3.org/2000/svg" xmlns:xlink="http://www.w3.org/1999/xlink" x="0px" y="0px"
	 viewBox="0 0 50 50" style="enable-background:new 0 0 50 50;" xml:space="preserve">
<g>
	<path d="M43,6v8.586l-0.293-0.293c-0.391-0.391-1.023-0.391-1.414,0s-0.391,1.023,0,1.414l1.999,1.999
		c0.092,0.093,0.203,0.166,0.326,0.217C43.74,17.974,43.87,18,44,18s0.26-0.026,0.382-0.077c0.123-0.051,0.234-0.124,0.326-0.217
		l1.999-1.999c0.391-0.391,0.391-1.023,0-1.414s-1.023-0.391-1.414,0L45,14.586V5c0-0.553-0.447-1-1-1H2.578
		C2.283,4,2.004,4.13,1.813,4.355C1.624,4.58,1.543,4.878,1.593,5.169l6.56,38.336C8.398,44.951,9.643,46,11.109,46h19.781
		c1.467,0,2.711-1.049,2.957-2.494L40.265,6H43z M34.13,30H34H8H7.87l-1.54-9h29.34L34.13,30z M8,14c0-1.249,1.615-4.492,2.11-5.457
		c0.342-0.666,1.438-0.666,1.779,0C12.385,9.508,14,12.751,14,14c0,1.654-1.346,3-3,3S8,15.654,8,14z M18,14
		c0-1.249,1.615-4.492,2.11-5.457c0.342-0.666,1.438-0.666,1.779,0C22.385,9.508,24,12.751,24,14c0,1.654-1.346,3-3,3
		S18,15.654,18,14z M28,14c0-1.249,1.615-4.492,2.11-5.457c0.342-0.666,1.438-0.666,1.779,0C32.385,9.508,34,12.751,34,14
		c0,1.654-1.346,3-3,3S28,15.654,28,14z M21,43c-1.654,0-3-1.346-3-3c0-1.249,1.615-4.492,2.11-5.457
		c0.342-0.666,1.438-0.666,1.779,0C22.385,35.508,24,38.751,24,40C24,41.654,22.654,43,21,43z"/>
	<path d="M43.11,20.543C42.615,21.508,41,24.751,41,26c0,1.654,1.346,3,3,3s3-1.346,3-3c0-1.249-1.615-4.492-2.11-5.457
		C44.548,19.877,43.452,19.877,43.11,20.543z"/>
	<path d="M22,14.001c-0.007-0.356-0.442-1.475-1-2.702c-0.558,1.228-0.993,2.346-1,2.702C20,14.552,20.448,15,21,15
		C21.551,15,22,14.552,22,14.001z"/>
	<path d="M32,14.001c-0.007-0.356-0.442-1.475-1-2.702c-0.558,1.228-0.993,2.346-1,2.702C30,14.552,30.448,15,31,15
		C31.551,15,32,14.552,32,14.001z"/>
	<path d="M12,14.001c-0.007-0.356-0.442-1.475-1-2.702c-0.558,1.228-0.993,2.346-1,2.702C10,14.552,10.448,15,11,15
		C11.551,15,12,14.552,12,14.001z"/>
</g>
</svg>