<?xml version="1.0" encoding="utf-8"?><!-- Generator: Adobe Illustrator 15.0.0, SVG Export Plug-In . SVG Version: 6.00 Build 0)  --><!DOCTYPE svg PUBLIC "-//W3C//DTD SVG 1.1//EN" "http://www.w3.org/Graphics/SVG/1.1/DTD/svg11.dtd"><svg xmlns="http://www.w3.org/2000/svg" xmlns:xlink="http://www.w3.org/1999/xlink" viewBox="0 0 50 50" width="500px" height="500px"><path d="M35,43c-0.256,0-0.512-0.098-0.707-0.293c-0.391-0.391-0.391-1.023,0-1.414l4-4c0.391-0.391,1.023-0.391,1.414,0s0.391,1.023,0,1.414l-4,4C35.512,42.902,35.256,43,35,43z"/><path d="M6,42c-0.256,0-0.512-0.098-0.707-0.293c-0.391-0.391-0.391-1.023,0-1.414l4-4c0.391-0.391,1.023-0.391,1.414,0s0.391,1.023,0,1.414l-4,4C6.512,41.902,6.256,42,6,42z"/><g><path d="M22,49c-0.552,0-1-0.447-1-1V38c0-0.553,0.448-1,1-1s1,0.447,1,1v10C23,48.553,22.552,49,22,49z"/><path d="M17.818,46.414c-0.346,0-0.682-0.18-0.867-0.5c-0.276-0.479-0.112-1.09,0.366-1.366l8.365-4.828c0.478-0.275,1.09-0.111,1.366,0.366c0.276,0.479,0.112,1.09-0.366,1.366l-8.365,4.828C18.159,46.371,17.987,46.414,17.818,46.414z"/><path d="M26.181,46.414c-0.17,0-0.341-0.043-0.499-0.134l-8.365-4.828c-0.478-0.276-0.642-0.888-0.366-1.366c0.276-0.478,0.887-0.643,1.366-0.366l8.365,4.828c0.479,0.276,0.643,0.888,0.366,1.366C26.862,46.234,26.526,46.414,26.181,46.414z"/></g><path d="M36,33H12c-4.411,0-8-3.589-8-8s3.589-8,8-8c0.004,0,0.009,0,0.014,0C12.004,16.831,12,16.665,12,16.5C12,10.71,16.71,6,22.5,6c4.76,0,8.818,3.13,10.085,7.603C33.678,13.203,34.822,13,36,13c5.514,0,10,4.486,10,10C46,28.514,41.514,33,36,33z"/></svg>