<?xml version="1.0" encoding="utf-8"?><!-- Generator: Adobe Illustrator 15.0.0, SVG Export Plug-In . SVG Version: 6.00 Build 0)  --><!DOCTYPE svg PUBLIC "-//W3C//DTD SVG 1.1//EN" "http://www.w3.org/Graphics/SVG/1.1/DTD/svg11.dtd"><svg xmlns="http://www.w3.org/2000/svg" xmlns:xlink="http://www.w3.org/1999/xlink" viewBox="0 0 50 50" width="500px" height="500px"><path d="M25,7.9c-0.552,0-1-0.448-1-1V2c0-0.552,0.448-1,1-1s1,0.448,1,1v4.9C26,7.452,25.552,7.9,25,7.9z"/><path d="M19.5,50c-3.523,0-6.5-2.977-6.5-6.5c0-0.553,0.448-1,1-1s1,0.447,1,1c0,2.439,2.061,4.5,4.5,4.5s4.5-2.061,4.5-4.5c0-0.553,0.448-1,1-1s1,0.447,1,1C26,47.023,23.023,50,19.5,50z"/><path d="M49,30c-0.273,0-0.542-0.113-0.734-0.322c-0.06-0.063-3.197-3.378-7.365-3.378c-4.237,0-7.659,3.373-7.693,3.407c-0.205,0.204-0.493,0.305-0.775,0.291c-0.289-0.021-0.555-0.164-0.729-0.395C31.68,29.572,29.123,26.3,25,26.3s-6.679,3.272-6.705,3.306c-0.172,0.226-0.433,0.367-0.715,0.391c-0.279,0.02-0.562-0.074-0.768-0.27C16.776,29.691,13.135,26.3,9.1,26.3c-4.099,0-7.343,3.354-7.375,3.39c-0.281,0.297-0.715,0.391-1.096,0.238C0.25,29.775,0,29.409,0,29C0,15.673,10.514,6,25,6c14.412,0,24.893,9.575,24.999,22.796C50.014,28.861,50.02,28.93,50.02,29c0,0.553-0.446,1-1,1C49.016,30,49.006,30,49,30z"/><g><path d="M26,26.372V26c0-0.552-0.448-1-1-1s-1,0.448-1,1v0.372c0.323-0.042,0.654-0.072,1-0.072S25.677,26.33,26,26.372z"/><path d="M25,28.3c-0.348,0-0.68,0.036-1,0.093V43.5c0,0.553,0.448,1,1,1s1-0.447,1-1V28.393C25.68,28.336,25.348,28.3,25,28.3z"/></g><path d="M47.002,8.95c-1.683,0-3-1.318-3-3c0-1.497,2.31-5.328,2.573-5.76c0.182-0.298,0.672-0.298,0.854,0c0.264,0.432,2.573,4.263,2.573,5.76C50.002,7.632,48.685,8.95,47.002,8.95z"/><path d="M3.008,11.055c-1.682,0-3-1.318-3-3c0-1.497,2.31-5.328,2.573-5.76c0.182-0.298,0.672-0.298,0.854,0c0.264,0.432,2.573,4.263,2.573,5.76C6.008,9.737,4.69,11.055,3.008,11.055z"/></svg>