<?xml version="1.0" encoding="iso-8859-1"?><!-- Generator: Adobe Illustrator 19.1.1, SVG Export Plug-In . SVG Version: 6.00 Build 0)  --><svg xmlns="http://www.w3.org/2000/svg" xmlns:xlink="http://www.w3.org/1999/xlink" viewBox="0 0 50 50" width="500px" height="500px"><g><g><path fill="none" stroke="#000000" stroke-width="2" stroke-linecap="round" stroke-linejoin="round" stroke-miterlimit="10" d="M44,29.26V17h-8v12.26c-1.812,1.265-3,3.362-3,5.74c0,3.866,3.134,7,7,7s7-3.134,7-7C47,32.622,45.812,30.525,44,29.26z"/></g></g><line fill="none" stroke="#000000" stroke-width="2" stroke-linejoin="round" stroke-miterlimit="10" x1="40" y1="22" x2="40" y2="35"/><circle cx="40" cy="35" r="4"/><line fill="none" stroke="#000000" stroke-width="2" stroke-linecap="round" stroke-linejoin="round" stroke-miterlimit="10" x1="44" y1="20" x2="47" y2="20"/><line fill="none" stroke="#000000" stroke-width="2" stroke-linecap="round" stroke-linejoin="round" stroke-miterlimit="10" x1="44" y1="24" x2="47" y2="24"/><path d="M25.447,13.105l-22-11C3.138,1.952,2.77,1.968,2.474,2.149C2.18,2.332,2,2.653,2,3v5.59l22.553,11.304C24.694,19.965,24.847,20,25,20c0.183,0,0.365-0.05,0.526-0.149C25.82,19.668,26,19.347,26,19v-5C26,13.621,25.786,13.275,25.447,13.105z"/><path d="M23.657,21.682L2,10.827V48h21c0.552,0,1-0.447,1-1V21.807C23.885,21.766,23.766,21.737,23.657,21.682z"/></svg>