<?xml version="1.0" encoding="utf-8"?><!-- Generator: Adobe Illustrator 17.0.0, SVG Export Plug-In . SVG Version: 6.00 Build 0)  --><!DOCTYPE svg PUBLIC "-//W3C//DTD SVG 1.1//EN" "http://www.w3.org/Graphics/SVG/1.1/DTD/svg11.dtd"><svg xmlns="http://www.w3.org/2000/svg" xmlns:xlink="http://www.w3.org/1999/xlink" viewBox="0 0 50 50" width="500px" height="500px"><line fill="none" stroke="#000000" stroke-width="2" stroke-linecap="round" stroke-miterlimit="10" x1="25" y1="4.231" x2="25" y2="1"/><path fill="none" stroke="#000000" stroke-width="2" stroke-linecap="round" stroke-linejoin="round" stroke-miterlimit="10" d="M13,43c0,3.314,2.686,6,6,6s6-2.686,6-6V33"/><path d="M48.999,25.796C48.892,13.154,38.832,4,25,4C11.093,4,1,13.252,1,26c0,0.444,0.293,0.836,0.72,0.96C1.813,26.987,1.907,27,2,27c0.335,0,0.657-0.169,0.844-0.463C2.866,26.502,5.151,23,10,23c2.67,0,5.155,1.33,6.648,3.557c0.371,0.555,1.333,0.555,1.704,0C19.845,24.33,22.33,23,25,23s5.155,1.33,6.648,3.557c0.371,0.555,1.333,0.555,1.704,0C34.845,24.33,37.33,23,40,23c4.021,0,7.212,3.618,7.244,3.654c0.188,0.216,0.453,0.337,0.727,0.345c0.542,0.013,1.049-0.43,1.049-0.999C49.02,25.93,49.013,25.861,48.999,25.796z"/><path fill="none" stroke="#000000" stroke-width="2" stroke-linejoin="round" stroke-miterlimit="10" d="M25,34v-9"/></svg>