<?xml version="1.0" encoding="utf-8"?><!-- Generator: Adobe Illustrator 15.0.0, SVG Export Plug-In . SVG Version: 6.00 Build 0)  --><!DOCTYPE svg PUBLIC "-//W3C//DTD SVG 1.1//EN" "http://www.w3.org/Graphics/SVG/1.1/DTD/svg11.dtd"><svg xmlns="http://www.w3.org/2000/svg" xmlns:xlink="http://www.w3.org/1999/xlink" viewBox="0 0 50 50" width="500px" height="500px"><path d="M27,42l-3-2l5-4v-1.757l-0.069-0.017c-0.053-0.012-0.104-0.001-0.155-0.004c-0.082-0.007-0.162-0.022-0.246-0.008l-27.7,4.8C0.35,39.098,0,39.514,0,40v9c0,0.553,0.448,1,1,1h16.736L27,42z"/><path d="M49.23,39.026l-14.676-3.47L31,40l4,1l-6.775,9H29h5.591H49c0.553,0,1-0.447,1-1v-9C50,39.536,49.682,39.134,49.23,39.026z"/><path d="M49.128,6.596l-13.3-6.3c-0.188-0.09-0.4-0.119-0.606-0.08l-16,2.9c-0.435,0.079-0.766,0.433-0.815,0.871l-3.465,30.552l13.245-2.295c0.137-0.023,0.277-0.035,0.418-0.035c0.084,0,0.167,0.004,0.252,0.012h0.017c0.146,0,0.295,0.021,0.451,0.052L33,24l-0.893,8.923l14.494,3.427l3.093-28.743C49.74,7.184,49.513,6.778,49.128,6.596z M27.553,30.44l-4.767-0.56l0.56-4.768l4.768,0.56L27.553,30.44z M28.499,22.634l-4.767-0.56l0.56-4.768l4.768,0.56L28.499,22.634z M29.457,14.728l-4.767-0.56L25.25,9.4l4.768,0.56L29.457,14.728z M40.209,32.023l-4.768-0.561l0.561-4.767l4.768,0.56L40.209,32.023z M41.166,24.118l-4.767-0.56l0.56-4.768l4.768,0.561L41.166,24.118z M42.125,16.211l-4.768-0.56l0.561-4.768l4.767,0.561L42.125,16.211z"/><path d="M6.822,35.946l-0.398-3.392L9.9,32.146l0.376,3.201l2.611-0.452l0.066-0.582l1.051-9.27L14,25l0.01-0.001l0.361-3.184L13.6,21.9l-0.4-3.4l1.567-0.174l0.698-6.155l-5.442-1.246c-0.229-0.052-0.469-0.022-0.678,0.084l-8.8,4.5c-0.372,0.19-0.586,0.591-0.538,1.006l2.361,20.202L6.822,35.946z M9.543,29.04l-3.477,0.408l-0.408-3.476l3.476-0.408L9.543,29.04z M8.28,19.037l0.409,3.476l-3.477,0.408l-0.408-3.476L8.28,19.037z"/></svg>