<?xml version="1.0" encoding="utf-8"?><!-- Generator: Adobe Illustrator 15.0.0, SVG Export Plug-In . SVG Version: 6.00 Build 0)  --><!DOCTYPE svg PUBLIC "-//W3C//DTD SVG 1.1//EN" "http://www.w3.org/Graphics/SVG/1.1/DTD/svg11.dtd"><svg xmlns="http://www.w3.org/2000/svg" xmlns:xlink="http://www.w3.org/1999/xlink" viewBox="0 0 50 50" width="500px" height="500px"><path d="M36,32H12c-4.411,0-8-3.589-8-8s3.589-8,8-8c0.004,0,0.009,0,0.014,0C12.004,15.831,12,15.665,12,15.5C12,9.71,16.71,5,22.5,5c4.76,0,8.818,3.129,10.086,7.603C33.679,12.202,34.822,12,36,12c5.514,0,10,4.486,10,10C46,27.514,41.514,32,36,32z"/><g><g><line fill="none" stroke="#000000" stroke-width="2" stroke-linecap="round" stroke-miterlimit="10" x1="8" y1="31" x2="7.706" y2="31.956"/><line fill="none" stroke="#000000" stroke-width="2" stroke-linecap="round" stroke-miterlimit="10" stroke-dasharray="2.3203,4.6406" x1="6.341" y1="36.391" x2="4.976" y2="40.827"/><line fill="none" stroke="#000000" stroke-width="2" stroke-linecap="round" stroke-miterlimit="10" x1="4.294" y1="43.044" x2="4" y2="44"/></g></g><g><g><line fill="none" stroke="#000000" stroke-width="2" stroke-linecap="round" stroke-miterlimit="10" x1="16" y1="31" x2="15.706" y2="31.956"/><line fill="none" stroke="#000000" stroke-width="2" stroke-linecap="round" stroke-miterlimit="10" stroke-dasharray="2.3203,4.6406" x1="14.341" y1="36.391" x2="12.976" y2="40.827"/><line fill="none" stroke="#000000" stroke-width="2" stroke-linecap="round" stroke-miterlimit="10" x1="12.294" y1="43.044" x2="12" y2="44"/></g></g><g><g><line fill="none" stroke="#000000" stroke-width="2" stroke-linecap="round" stroke-miterlimit="10" x1="24" y1="31" x2="23.706" y2="31.956"/><line fill="none" stroke="#000000" stroke-width="2" stroke-linecap="round" stroke-miterlimit="10" stroke-dasharray="2.3203,4.6406" x1="22.341" y1="36.391" x2="20.976" y2="40.827"/><line fill="none" stroke="#000000" stroke-width="2" stroke-linecap="round" stroke-miterlimit="10" x1="20.294" y1="43.044" x2="20" y2="44"/></g></g><g><g><line fill="none" stroke="#000000" stroke-width="2" stroke-linecap="round" stroke-miterlimit="10" x1="32" y1="31" x2="31.706" y2="31.956"/><line fill="none" stroke="#000000" stroke-width="2" stroke-linecap="round" stroke-miterlimit="10" stroke-dasharray="2.3203,4.6406" x1="30.341" y1="36.391" x2="28.977" y2="40.827"/><line fill="none" stroke="#000000" stroke-width="2" stroke-linecap="round" stroke-miterlimit="10" x1="28.294" y1="43.044" x2="28" y2="44"/></g></g><g><g><line fill="none" stroke="#000000" stroke-width="2" stroke-linecap="round" stroke-miterlimit="10" x1="36" y1="31" x2="35.706" y2="31.956"/><line fill="none" stroke="#000000" stroke-width="2" stroke-linecap="round" stroke-miterlimit="10" stroke-dasharray="1.5394,3.0788" x1="34.8" y1="34.898" x2="33.895" y2="37.841"/><line fill="none" stroke="#000000" stroke-width="2" stroke-linecap="round" stroke-miterlimit="10" x1="33.441" y1="39.313" x2="33.148" y2="40.268"/></g></g><g><g><line fill="none" stroke="#000000" stroke-width="2" stroke-linecap="round" stroke-miterlimit="10" x1="28" y1="31" x2="27.706" y2="31.956"/><line fill="none" stroke="#000000" stroke-width="2" stroke-linecap="round" stroke-miterlimit="10" stroke-dasharray="1.5394,3.0788" x1="26.8" y1="34.898" x2="25.895" y2="37.841"/><line fill="none" stroke="#000000" stroke-width="2" stroke-linecap="round" stroke-miterlimit="10" x1="25.442" y1="39.313" x2="25.148" y2="40.268"/></g></g><g><g><line fill="none" stroke="#000000" stroke-width="2" stroke-linecap="round" stroke-miterlimit="10" x1="20" y1="31" x2="19.706" y2="31.956"/><line fill="none" stroke="#000000" stroke-width="2" stroke-linecap="round" stroke-miterlimit="10" stroke-dasharray="1.5394,3.0788" x1="18.8" y1="34.898" x2="17.895" y2="37.841"/><line fill="none" stroke="#000000" stroke-width="2" stroke-linecap="round" stroke-miterlimit="10" x1="17.442" y1="39.313" x2="17.148" y2="40.268"/></g></g><g><g><line fill="none" stroke="#000000" stroke-width="2" stroke-linecap="round" stroke-miterlimit="10" x1="12" y1="31" x2="11.706" y2="31.956"/><line fill="none" stroke="#000000" stroke-width="2" stroke-linecap="round" stroke-miterlimit="10" stroke-dasharray="1.5394,3.0788" x1="10.8" y1="34.898" x2="9.895" y2="37.841"/><line fill="none" stroke="#000000" stroke-width="2" stroke-linecap="round" stroke-miterlimit="10" x1="9.442" y1="39.313" x2="9.148" y2="40.268"/></g></g><g><g><line fill="none" stroke="#000000" stroke-width="2" stroke-linecap="round" stroke-miterlimit="10" x1="40" y1="31" x2="39.706" y2="31.956"/><line fill="none" stroke="#000000" stroke-width="2" stroke-linecap="round" stroke-miterlimit="10" stroke-dasharray="2.3203,4.6406" x1="38.341" y1="36.391" x2="36.977" y2="40.827"/><line fill="none" stroke="#000000" stroke-width="2" stroke-linecap="round" stroke-miterlimit="10" x1="36.294" y1="43.044" x2="36" y2="44"/></g></g></svg>