<?xml version="1.0" encoding="iso-8859-1"?>
<!-- Generator: Adobe Illustrator 22.1.0, SVG Export Plug-In . SVG Version: 6.00 Build 0)  -->
<svg version="1.1" id="Layer_1" xmlns="http://www.w3.org/2000/svg" xmlns:xlink="http://www.w3.org/1999/xlink" x="0px" y="0px"
	 viewBox="0 0 50 50" style="enable-background:new 0 0 50 50;" xml:space="preserve">
<polyline style="fill:none;stroke:#000000;stroke-width:2;stroke-linecap:round;stroke-linejoin:round;stroke-miterlimit:10;" points="
	48,43 2,43 2,17 2.026,16.765 9.49,4.724 32.938,43 "/>
<line style="fill:none;stroke:#000000;stroke-width:2;stroke-linecap:round;stroke-linejoin:round;stroke-miterlimit:10;" x1="18" y1="10" x2="25.827" y2="22.508"/>
<line style="fill:none;stroke:#000000;stroke-width:2;stroke-linecap:round;stroke-linejoin:round;stroke-miterlimit:10;" x1="23" y1="10" x2="30.827" y2="22.508"/>
<path style="fill:none;stroke:#000000;stroke-width:2;stroke-linecap:round;stroke-linejoin:round;stroke-miterlimit:10;" d="
	M28.445,27.534c0.274-0.193,0.574-0.334,0.887-0.423c0.858-0.244,1.811-0.089,2.58,0.508c1.329,1.032,1.605,2.994,0.617,4.381"/>
<path style="fill:none;stroke:#000000;stroke-width:2;stroke-linecap:round;stroke-linejoin:round;stroke-miterlimit:10;" d="
	M32.682,31.837c1.468-1.651,3.996-1.8,5.647-0.332c1.445,1.284,1.739,3.38,0.807,4.991c-0.133,0.23-0.291,0.45-0.475,0.657"/>
<circle cx="35.5" cy="25.5" r="1.5"/>
<circle cx="38.5" cy="20.5" r="1.5"/>
<circle cx="40" cy="26" r="1"/>
<circle cx="34" cy="19" r="1"/>
<polygon points="12,17 9,14 7,16 4,14 3.84,13.84 2.026,16.765 2,17 2,43 32.938,43 15.835,15.082 "/>
<path style="fill:none;stroke:#000000;stroke-width:2;stroke-linecap:round;stroke-linejoin:round;stroke-miterlimit:10;" d="
	M39.125,36.614c0.279-0.179,0.584-0.323,0.91-0.427C40.416,36.066,40.824,36,41.249,36C43.32,36,45,37.567,45,39.5"/>
</svg>