<?xml version="1.0" encoding="utf-8"?><!-- Generator: Adobe Illustrator 15.0.0, SVG Export Plug-In . SVG Version: 6.00 Build 0)  --><!DOCTYPE svg PUBLIC "-//W3C//DTD SVG 1.1//EN" "http://www.w3.org/Graphics/SVG/1.1/DTD/svg11.dtd"><svg xmlns="http://www.w3.org/2000/svg" xmlns:xlink="http://www.w3.org/1999/xlink" viewBox="0 0 50 50" width="500px" height="500px"><g><path d="M16,50c-0.147,0-0.295-0.032-0.435-0.1c-0.453-0.22-0.672-0.74-0.513-1.217L22.613,26H15c-0.334,0-0.646-0.167-0.832-0.445s-0.22-0.631-0.091-0.939l10-24C24.232,0.243,24.596,0,25,0h9.5c0.339,0,0.655,0.172,0.839,0.456c0.185,0.285,0.212,0.643,0.074,0.952L27.543,19H35c0.367,0,0.705,0.202,0.88,0.524c0.175,0.323,0.158,0.716-0.043,1.023l-19,29C16.646,49.839,16.328,50,16,50z"/></g></svg>