<?xml version="1.0" encoding="utf-8"?><!-- Generator: Adobe Illustrator 15.0.0, SVG Export Plug-In . SVG Version: 6.00 Build 0)  --><!DOCTYPE svg PUBLIC "-//W3C//DTD SVG 1.1//EN" "http://www.w3.org/Graphics/SVG/1.1/DTD/svg11.dtd"><svg xmlns="http://www.w3.org/2000/svg" xmlns:xlink="http://www.w3.org/1999/xlink" viewBox="0 0 50 50" width="500px" height="500px"><path d="M36,33H12c-4.411,0-8-3.589-8-8s3.589-8,8-8c0.004,0,0.009,0,0.014,0C12.004,16.831,12,16.665,12,16.5C12,10.71,16.71,6,22.5,6c4.76,0,8.818,3.13,10.085,7.603C33.678,13.203,34.822,13,36,13c5.514,0,10,4.486,10,10C46,28.514,41.514,33,36,33z"/><path d="M23.829,48c-0.393,0-0.765-0.232-0.924-0.617l-1.656-4c-0.211-0.511,0.031-1.096,0.542-1.307c0.51-0.212,1.095,0.031,1.306,0.541l1.656,4c0.211,0.511-0.031,1.096-0.542,1.307C24.085,47.976,23.956,48,23.829,48z"/><path d="M21,46.828c-0.393,0-0.765-0.232-0.924-0.617c-0.211-0.511,0.031-1.096,0.542-1.307l4-1.656c0.509-0.212,1.095,0.031,1.306,0.541c0.211,0.511-0.031,1.096-0.542,1.307l-4,1.656C21.257,46.804,21.128,46.828,21,46.828z"/><path d="M14.829,41c-0.393,0-0.765-0.232-0.924-0.617l-1.656-4c-0.211-0.511,0.031-1.096,0.542-1.307c0.51-0.213,1.095,0.031,1.306,0.541l1.656,4c0.211,0.511-0.031,1.096-0.542,1.307C15.085,40.976,14.956,41,14.829,41z"/><path d="M12,39.828c-0.393,0-0.765-0.232-0.924-0.617c-0.211-0.511,0.031-1.096,0.542-1.307l4-1.656c0.509-0.211,1.095,0.031,1.306,0.541c0.211,0.511-0.031,1.096-0.542,1.307l-4,1.656C12.257,39.804,12.128,39.828,12,39.828z"/><path d="M33.828,43c-0.393,0-0.765-0.232-0.924-0.617l-1.656-4c-0.211-0.511,0.031-1.096,0.541-1.307c0.509-0.211,1.096,0.031,1.307,0.541l1.656,4c0.211,0.511-0.031,1.096-0.541,1.307C34.086,42.976,33.956,43,33.828,43z"/><path d="M31,41.828c-0.393,0-0.765-0.232-0.924-0.617c-0.211-0.511,0.031-1.096,0.541-1.307l4-1.656c0.51-0.21,1.096,0.031,1.307,0.541c0.211,0.511-0.031,1.096-0.541,1.307l-4,1.656C31.258,41.804,31.128,41.828,31,41.828z"/></svg>