<?xml version="1.0" encoding="iso-8859-1"?>
<!-- Generator: Adobe Illustrator 24.1.0, SVG Export Plug-In . SVG Version: 6.00 Build 0)  -->
<svg version="1.1" id="Layer_1" xmlns="http://www.w3.org/2000/svg" xmlns:xlink="http://www.w3.org/1999/xlink" x="0px" y="0px"
	 viewBox="0 0 50 50" style="enable-background:new 0 0 50 50;" xml:space="preserve">
<g>
</g>
<g>
	<path style="fill:none;stroke:#000000;stroke-width:2;stroke-linecap:round;stroke-miterlimit:10;" d="M25,9c0,0-2.25-1.6,0-4
		s0-4,0-4"/>
	<path style="fill:none;stroke:#000000;stroke-width:2;stroke-linecap:round;stroke-miterlimit:10;" d="M32,9c0,0-2.25-1.6,0-4
		s0-4,0-4"/>
	<path style="fill:none;stroke:#000000;stroke-width:2;stroke-linecap:round;stroke-miterlimit:10;" d="M18,9c0,0-2.25-1.6,0-4
		s0-4,0-4"/>
	<g>
		<path d="M19.38,12.85c-1.73,1.93-3.15,4.74-4.09,8.13H8.86C11.25,17.14,14.98,14.21,19.38,12.85z"/>
		<path d="M24,12.12v8.86h-6.6C18.84,16.2,21.26,12.79,24,12.12z"/>
		<path d="M32.6,20.98H26v-8.86C28.74,12.79,31.16,16.2,32.6,20.98z"/>
		<path d="M41.14,20.98h-6.43c-0.94-3.39-2.36-6.2-4.09-8.13C35.02,14.21,38.75,17.14,41.14,20.98z"/>
		<path d="M7.77,23.02h7.03c-0.46,2.16-0.73,4.51-0.79,6.98H6.02C6.15,27.52,6.76,25.16,7.77,23.02z"/>
		<path d="M24,23.02V30h-7.99c0.07-2.47,0.37-4.83,0.85-6.98H24z"/>
		<path d="M33.14,23.02c0.48,2.15,0.78,4.51,0.85,6.98H26v-6.98H33.14z"/>
		<path d="M43.98,30h-7.99c-0.06-2.47-0.33-4.82-0.79-6.98h7.03C43.24,25.16,43.85,27.52,43.98,30z"/>
		<path d="M15.29,41.02c0.94,3.39,2.36,6.2,4.09,8.13c-4.4-1.36-8.13-4.29-10.52-8.13H15.29z"/>
		<path d="M24,41.02v8.86c-2.74-0.67-5.16-4.08-6.6-8.86H24z"/>
		<path d="M32.6,41.02c-1.44,4.78-3.86,8.19-6.6,8.86v-8.86H32.6z"/>
		<path d="M41.14,41.02c-2.39,3.84-6.12,6.77-10.52,8.13c1.73-1.93,3.15-4.74,4.09-8.13H41.14z"/>
		<path d="M14.01,32c0.06,2.47,0.33,4.82,0.79,6.98H7.77c-1.01-2.14-1.62-4.5-1.75-6.98H14.01z"/>
		<path d="M24,32v6.98h-7.14c-0.48-2.15-0.78-4.51-0.85-6.98H24z"/>
		<path d="M26,32h7.99c-0.07,2.47-0.37,4.83-0.85,6.98H26V32z"/>
		<path d="M43.98,32c-0.13,2.48-0.74,4.84-1.75,6.98H35.2c0.46-2.16,0.73-4.51,0.79-6.98H43.98z"/>
	</g>
</g>
</svg>