<?xml version="1.0" encoding="utf-8"?><!-- Generator: Adobe Illustrator 15.0.0, SVG Export Plug-In . SVG Version: 6.00 Build 0)  --><!DOCTYPE svg PUBLIC "-//W3C//DTD SVG 1.1//EN" "http://www.w3.org/Graphics/SVG/1.1/DTD/svg11.dtd"><svg xmlns="http://www.w3.org/2000/svg" xmlns:xlink="http://www.w3.org/1999/xlink" viewBox="0 0 50 50" width="500px" height="500px"><g><path d="M49,48H34.949c-0.504-5.046-4.773-9-9.949-9c-5.177,0-9.446,3.954-9.949,9H1c-0.552,0-1,0.447-1,1s0.448,1,1,1h48c0.553,0,1-0.447,1-1S49.553,48,49,48z"/><path d="M24,29v6c0,0.553,0.448,1,1,1s1-0.447,1-1v-6c0-0.553-0.448-1-1-1S24,28.447,24,29z"/><path d="M34.9,40.1c0.256,0,0.512-0.098,0.707-0.293l4.199-4.199c0.391-0.391,0.391-1.023,0-1.414s-1.023-0.391-1.414,0l-4.199,4.199c-0.391,0.391-0.391,1.023,0,1.414C34.389,40.002,34.645,40.1,34.9,40.1z"/><path d="M14.393,39.807c0.195,0.195,0.451,0.293,0.707,0.293s0.512-0.098,0.707-0.293c0.391-0.391,0.391-1.023,0-1.414l-4.2-4.199c-0.391-0.391-1.023-0.391-1.414,0s-0.391,1.023,0,1.414L14.393,39.807z"/><path d="M25,20.914l7.607-7.607c0.391-0.391,0.391-1.023,0-1.414s-1.023-0.391-1.414,0L26,17.086V1c0-0.552-0.448-1-1-1s-1,0.448-1,1v16.086l-5.193-5.193c-0.391-0.391-1.023-0.391-1.414,0s-0.391,1.023,0,1.414L25,20.914z"/></g></svg>