<?xml version="1.0" encoding="utf-8"?><!-- Generator: Adobe Illustrator 15.0.0, SVG Export Plug-In . SVG Version: 6.00 Build 0)  --><!DOCTYPE svg PUBLIC "-//W3C//DTD SVG 1.1//EN" "http://www.w3.org/Graphics/SVG/1.1/DTD/svg11.dtd"><svg xmlns="http://www.w3.org/2000/svg" xmlns:xlink="http://www.w3.org/1999/xlink" viewBox="0 0 50 50" width="500px" height="500px"><polyline fill="none" stroke="#000000" stroke-width="2" stroke-miterlimit="10" points="50,49 1,49 1,0 "/><path d="M47.2,46c-1.61,0-3.807-0.396-5.5-1.472C40.006,45.604,37.811,46,36.2,46s-3.807-0.396-5.5-1.472C29.006,45.604,26.811,46,25.2,46s-3.806-0.396-5.5-1.472C18.006,45.604,15.811,46,14.2,46s-3.806-0.396-5.5-1.472C7.006,45.604,4.811,46,3.2,46c-0.41,0-0.788-0.03-1.134-0.06C1.826,45.92,1.604,45.9,1.4,45.9c-0.552,0-1-0.447-1-1s0.448-1,1-1c0.254,0,0.532,0.021,0.833,0.047C2.528,43.972,2.851,44,3.2,44c1.408,0,3.528-0.387,4.87-1.477c0.367-0.299,0.893-0.299,1.261,0C10.672,43.613,12.792,44,14.2,44c1.408,0,3.528-0.387,4.87-1.477c0.367-0.299,0.893-0.299,1.261,0C21.672,43.613,23.792,44,25.2,44c1.407,0,3.527-0.387,4.869-1.477c0.369-0.299,0.895-0.299,1.262,0C32.672,43.613,34.792,44,36.2,44c1.407,0,3.527-0.387,4.869-1.477c0.369-0.299,0.895-0.299,1.262,0C43.672,43.613,45.792,44,47.2,44c0.569,0,1.05-0.077,1.428-0.229c0.512-0.205,1.095,0.044,1.301,0.557c0.205,0.513-0.044,1.095-0.557,1.301C48.756,45.875,48.025,46,47.2,46z"/><g><path d="M17.808,40.973c0.533-0.435,1.205-0.674,1.893-0.674c0.687,0,1.358,0.239,1.893,0.673C22.462,41.678,24.072,42,25.2,42s2.737-0.322,3.61-1.031c0.534-0.432,1.205-0.67,1.891-0.67c0.688,0,1.359,0.239,1.892,0.673c0.596,0.484,1.539,0.784,2.438,0.927C36.283,40.189,37,38.092,37,35.9v-2c0-0.553-0.447-1-1-1H14c-0.552,0-1,0.447-1,1v2c0,2.219,0.758,4.34,2.074,6.043C16.055,41.823,17.146,41.51,17.808,40.973z"/></g><g><path d="M32,32v-4c0-0.553-0.447-1-1-1H19c-0.552,0-1,0.447-1,1v4H32z"/></g></svg>