<?xml version="1.0" encoding="utf-8"?><!-- Generator: Adobe Illustrator 15.0.0, SVG Export Plug-In . SVG Version: 6.00 Build 0)  --><!DOCTYPE svg PUBLIC "-//W3C//DTD SVG 1.1//EN" "http://www.w3.org/Graphics/SVG/1.1/DTD/svg11.dtd"><svg xmlns="http://www.w3.org/2000/svg" xmlns:xlink="http://www.w3.org/1999/xlink" viewBox="0 0 50 50" width="500px" height="500px"><path d="M8,24c-4.486,0-8-3.514-8-8C0,10.528,6.907,1.289,7.201,0.898L8-0.163l0.799,1.061C9.093,1.289,16,10.528,16,16C16,20.486,12.486,24,8,24z"/><path d="M22,50c-4.486,0-8-3.514-8-8c0-5.472,6.907-14.711,7.201-15.102L22,25.837l0.799,1.061C23.093,27.289,30,36.528,30,42C30,46.486,26.486,50,22,50z"/><path d="M42,33c-4.486,0-8-3.514-8-8c0-5.475,6.91-14.619,7.204-15.005L42,8.949l0.796,1.046C43.09,10.381,50,19.525,50,25C50,29.486,46.486,33,42,33z"/></svg>