<?xml version="1.0" encoding="iso-8859-1"?>
<!-- Generator: Adobe Illustrator 22.0.1, SVG Export Plug-In . SVG Version: 6.00 Build 0)  -->
<svg version="1.1" id="&#x421;&#x43B;&#x43E;&#x439;_2"
	 xmlns="http://www.w3.org/2000/svg" xmlns:xlink="http://www.w3.org/1999/xlink" x="0px" y="0px" viewBox="0 0 50 50"
	 style="enable-background:new 0 0 50 50;" xml:space="preserve">
<path d="M25,13.5c-6.34,0-11.5,5.16-11.5,11.5c0,6.34,5.16,11.5,11.5,11.5S36.5,31.34,36.5,25C36.5,18.66,31.34,13.5,25,13.5z
	 M18.93,21.58c0.41-1.06,1.44-1.76,2.57-1.76h0.05c1.12,0.02,2.11,0.71,2.52,1.76c0.23,0.6-0.06,1.26-0.65,1.49
	c-0.14,0.05-0.28,0.08-0.42,0.08c-0.46,0-0.89-0.28-1.07-0.73c-0.07-0.18-0.24-0.3-0.42-0.3c-0.2-0.02-0.37,0.11-0.44,0.3
	c-0.23,0.59-0.9,0.88-1.49,0.65C18.99,22.84,18.7,22.17,18.93,21.58z M19.22,26.38C19.41,26.14,19.7,26,20,26h10
	c0.3,0,0.59,0.14,0.78,0.38c0.19,0.23,0.26,0.54,0.2,0.84C30.35,29.99,27.84,32,25,32s-5.35-2.01-5.98-4.78
	C18.96,26.92,19.03,26.61,19.22,26.38z M30.37,23.09c-0.12,0.04-0.25,0.06-0.37,0.06c-0.48,0-0.93-0.3-1.09-0.78
	c-0.12-0.35-0.7-0.35-0.82,0c-0.2,0.6-0.85,0.92-1.46,0.72c-0.6-0.2-0.92-0.85-0.72-1.46c0.37-1.11,1.42-1.86,2.59-1.86
	s2.22,0.75,2.59,1.86C31.29,22.24,30.97,22.89,30.37,23.09z"/>
<path d="M13.617,14.767c-0.019,0-0.037,0-0.055-0.001c-1.004-0.047-1.806-0.371-2.384-0.961c-0.695-0.71-0.796-1.551-0.869-2.164
	c-0.055-0.456-0.097-0.749-0.266-1.001C9.8,10.275,9.286,10.015,8.518,9.866c-0.623-0.121-1.031-0.724-0.91-1.347
	c0.12-0.624,0.714-1.038,1.348-0.911c1.393,0.269,2.402,0.859,3,1.752c0.484,0.724,0.573,1.465,0.639,2.007
	c0.058,0.481,0.094,0.691,0.229,0.829c0.197,0.202,0.57,0.26,0.848,0.272c0.635,0.03,1.125,0.569,1.095,1.203
	C14.736,14.287,14.228,14.767,13.617,14.767z"/>
<path d="M25.176,10.777c-0.312,0-0.623-0.126-0.85-0.375c-0.676-0.742-1.015-1.537-1.007-2.365c0.012-0.994,0.534-1.66,0.916-2.145
	c0.284-0.361,0.461-0.598,0.521-0.896c0.085-0.431-0.094-0.978-0.532-1.626c-0.355-0.526-0.217-1.241,0.31-1.597
	c0.525-0.356,1.24-0.218,1.597,0.309c0.794,1.175,1.091,2.305,0.882,3.36c-0.169,0.854-0.631,1.442-0.968,1.871
	c-0.3,0.381-0.422,0.556-0.424,0.748c-0.003,0.283,0.219,0.587,0.405,0.792c0.428,0.469,0.395,1.197-0.075,1.625
	C25.73,10.678,25.453,10.777,25.176,10.777z"/>
<path d="M40.617,42.768c-0.019,0-0.037-0.001-0.055-0.002c-1.003-0.047-1.806-0.37-2.384-0.961
	c-0.695-0.711-0.796-1.551-0.869-2.164c-0.055-0.456-0.097-0.749-0.266-1.001c-0.244-0.365-0.758-0.625-1.526-0.774
	c-0.623-0.121-1.031-0.724-0.91-1.348c0.12-0.623,0.722-1.036,1.348-0.91c1.393,0.27,2.402,0.859,3,1.753
	c0.484,0.724,0.573,1.465,0.639,2.007c0.058,0.481,0.094,0.691,0.229,0.829c0.197,0.201,0.57,0.259,0.848,0.272
	c0.635,0.029,1.125,0.568,1.095,1.202C41.736,42.287,41.228,42.768,40.617,42.768z"/>
<path d="M46.067,26.034c-0.011,0-0.021,0-0.032,0c-0.993-0.012-1.658-0.535-2.144-0.917c-0.361-0.284-0.598-0.461-0.895-0.52
	c-0.542-0.106-1.182,0.23-1.628,0.532c-0.526,0.356-1.241,0.217-1.597-0.309c-0.355-0.526-0.217-1.241,0.31-1.597
	c1.176-0.795,2.309-1.092,3.361-0.882c0.854,0.169,1.441,0.631,1.87,0.968c0.381,0.3,0.555,0.422,0.747,0.424
	c0.002,0,0.004,0,0.006,0c0.28,0,0.582-0.221,0.786-0.407c0.471-0.427,1.196-0.393,1.625,0.076c0.428,0.47,0.394,1.197-0.076,1.625
	C47.668,25.695,46.883,26.034,46.067,26.034z"/>
<path d="M7.575,26.077c-0.225,0-0.447-0.021-0.665-0.064c-0.854-0.169-1.441-0.631-1.87-0.968c-0.381-0.3-0.556-0.422-0.748-0.424
	c-0.002,0-0.004,0-0.006,0c-0.28,0-0.582,0.221-0.786,0.407c-0.47,0.426-1.196,0.393-1.625-0.076
	c-0.428-0.47-0.394-1.197,0.076-1.625c0.743-0.676,1.566-0.995,2.366-1.006c0.993,0.011,1.658,0.534,2.145,0.916
	c0.36,0.284,0.597,0.461,0.895,0.52c0.534,0.108,1.182-0.23,1.626-0.531c0.527-0.356,1.241-0.218,1.597,0.309
	c0.356,0.526,0.218,1.241-0.308,1.597C9.339,25.76,8.436,26.077,7.575,26.077z"/>
<path d="M25.176,48.778c-0.313,0-0.623-0.127-0.851-0.376c-0.676-0.742-1.014-1.538-1.006-2.365
	c0.012-0.994,0.534-1.659,0.917-2.146c0.283-0.36,0.46-0.597,0.52-0.895c0.085-0.432-0.094-0.979-0.531-1.626
	c-0.356-0.526-0.218-1.241,0.308-1.597c0.525-0.356,1.241-0.219,1.597,0.308c0.795,1.175,1.092,2.306,0.883,3.36
	c-0.169,0.855-0.631,1.442-0.968,1.871c-0.3,0.381-0.422,0.556-0.424,0.748c-0.003,0.282,0.219,0.587,0.406,0.792
	c0.428,0.47,0.394,1.197-0.076,1.625C25.729,48.679,25.452,48.778,25.176,48.778z"/>
<path d="M36.737,14.767c-0.072,0-0.146-0.007-0.22-0.021c-0.623-0.121-1.031-0.724-0.91-1.348c0.27-1.394,0.86-2.403,1.754-3
	c0.722-0.484,1.464-0.573,2.006-0.638c0.481-0.057,0.691-0.094,0.829-0.229c0.201-0.197,0.259-0.57,0.272-0.848
	c0.029-0.635,0.614-1.107,1.202-1.095c0.635,0.03,1.125,0.569,1.095,1.203c-0.047,1.003-0.37,1.805-0.961,2.383
	c-0.711,0.695-1.551,0.796-2.165,0.869c-0.455,0.054-0.748,0.096-0.999,0.265c-0.366,0.245-0.626,0.758-0.775,1.527
	C37.759,14.385,37.277,14.767,36.737,14.767z"/>
<path d="M7.737,42.767c-0.019,0-0.037-0.001-0.055-0.002c-0.635-0.029-1.125-0.568-1.095-1.202c0.047-1.003,0.37-1.806,0.961-2.384
	c0.711-0.695,1.551-0.795,2.164-0.868c0.456-0.055,0.748-0.097,1-0.266c0.366-0.245,0.627-0.759,0.775-1.526
	c0.12-0.624,0.714-1.037,1.348-0.91c0.623,0.121,1.031,0.724,0.91,1.348c-0.27,1.392-0.859,2.401-1.753,2.999
	c-0.724,0.485-1.466,0.574-2.008,0.639c-0.481,0.058-0.69,0.095-0.828,0.229c-0.201,0.197-0.259,0.57-0.272,0.848
	C8.856,42.286,8.348,42.767,7.737,42.767z"/>
</svg>