<?xml version="1.0" encoding="utf-8"?><!-- Generator: Adobe Illustrator 15.0.0, SVG Export Plug-In . SVG Version: 6.00 Build 0)  --><!DOCTYPE svg PUBLIC "-//W3C//DTD SVG 1.1//EN" "http://www.w3.org/Graphics/SVG/1.1/DTD/svg11.dtd"><svg xmlns="http://www.w3.org/2000/svg" xmlns:xlink="http://www.w3.org/1999/xlink" viewBox="0 0 50 50" width="500px" height="500px"><path d="M29,49c-0.256,0-0.512-0.098-0.707-0.293c-0.391-0.391-0.391-1.023,0-1.414l2-2c0.391-0.391,1.023-0.391,1.414,0s0.391,1.023,0,1.414l-2,2C29.512,48.902,29.256,49,29,49z"/><path d="M20,45c-0.256,0-0.512-0.098-0.707-0.293c-0.391-0.391-0.391-1.023,0-1.414l2-2c0.391-0.391,1.023-0.391,1.414,0s0.391,1.023,0,1.414l-2,2C20.512,44.902,20.256,45,20,45z"/><path d="M39,45c-0.256,0-0.512-0.098-0.707-0.293c-0.391-0.391-0.391-1.023,0-1.414l2-2c0.391-0.391,1.023-0.391,1.414,0s0.391,1.023,0,1.414l-2,2C39.512,44.902,39.256,45,39,45z"/><path d="M17,9c-0.552,0-1-0.448-1-1V3c0-0.552,0.448-1,1-1s1,0.448,1,1v5C18,8.552,17.552,9,17,9z"/><path d="M6,20H1c-0.552,0-1-0.448-1-1s0.448-1,1-1h5c0.552,0,1,0.448,1,1S6.552,20,6,20z"/><path d="M24.778,12.221c-0.256,0-0.512-0.098-0.707-0.293c-0.391-0.391-0.391-1.024,0-1.414l3.537-3.535c0.391-0.391,1.023-0.391,1.414,0s0.391,1.024,0,1.414l-3.537,3.535C25.29,12.124,25.034,12.221,24.778,12.221z"/><path d="M5.687,31.313c-0.256,0-0.512-0.098-0.707-0.293c-0.391-0.391-0.391-1.023,0-1.414l3.536-3.535c0.391-0.391,1.023-0.391,1.414,0s0.391,1.023,0,1.414L6.394,31.02C6.199,31.215,5.943,31.313,5.687,31.313z"/><path d="M9.223,12.222c-0.256,0-0.512-0.098-0.707-0.293L4.98,8.393c-0.391-0.391-0.391-1.023,0-1.414s1.023-0.391,1.414,0l3.536,3.536c0.391,0.391,0.391,1.023,0,1.414C9.735,12.125,9.479,12.222,9.223,12.222z"/><path d="M41,39H20c-3.86,0-7-3.141-7-7c0-3.541,2.643-6.476,6.06-6.937C19.02,24.707,19,24.351,19,24c0-5.514,4.486-10,10-10c4.566,0,8.444,3.013,9.626,7.316C39.395,21.106,40.189,21,41,21c4.963,0,9,4.038,9,9C50,34.963,45.963,39,41,39z"/><g><path d="M17,27c4.418,0,8-3.582,8-8c0-1.336-0.332-2.594-0.911-3.701C21.055,17.018,19,20.271,19,24c0,0.351,0.02,0.707,0.06,1.063c-1.434,0.193-2.728,0.827-3.751,1.754C15.854,26.935,16.419,27,17,27z"/><path d="M13.252,26.066c1.003-1.142,2.288-2.035,3.757-2.555c0.169-4.202,2.517-7.843,5.934-9.853C21.479,12.03,19.363,11,17,11c-4.418,0-8,3.582-8,8C9,22.063,10.724,24.722,13.252,26.066z"/></g></svg>