<?xml version="1.0" encoding="utf-8"?><!-- Generator: Adobe Illustrator 15.0.0, SVG Export Plug-In . SVG Version: 6.00 Build 0)  --><!DOCTYPE svg PUBLIC "-//W3C//DTD SVG 1.1//EN" "http://www.w3.org/Graphics/SVG/1.1/DTD/svg11.dtd"><svg xmlns="http://www.w3.org/2000/svg" xmlns:xlink="http://www.w3.org/1999/xlink" viewBox="0 0 50 50" width="500px" height="500px"><path d="M47.2,45.9c-1.61,0-3.807-0.396-5.5-1.472c-1.694,1.075-3.89,1.472-5.5,1.472s-3.807-0.396-5.5-1.472c-1.694,1.075-3.89,1.472-5.5,1.472s-3.806-0.396-5.5-1.472c-1.694,1.075-3.89,1.472-5.5,1.472s-3.806-0.396-5.5-1.472C7.006,45.504,4.811,45.9,3.2,45.9c-0.41,0-0.788-0.031-1.134-0.061C1.825,45.82,1.603,45.8,1.4,45.8c-0.552,0-1-0.447-1-1s0.448-1,1-1c0.255,0,0.533,0.022,0.834,0.048C2.529,43.872,2.851,43.9,3.2,43.9c1.408,0,3.528-0.387,4.87-1.477c0.367-0.299,0.893-0.299,1.261,0c1.341,1.09,3.461,1.477,4.869,1.477c1.408,0,3.528-0.387,4.87-1.477c0.367-0.299,0.893-0.299,1.261,0c1.341,1.09,3.461,1.477,4.869,1.477c1.407,0,3.527-0.387,4.869-1.477c0.369-0.299,0.895-0.299,1.262,0c1.341,1.09,3.461,1.477,4.869,1.477c1.407,0,3.527-0.387,4.869-1.477c0.369-0.299,0.895-0.299,1.262,0c1.341,1.09,3.461,1.477,4.869,1.477c0.568,0,1.049-0.077,1.428-0.229c0.512-0.205,1.095,0.044,1.301,0.557c0.205,0.513-0.044,1.095-0.557,1.301C48.755,45.775,48.023,45.9,47.2,45.9z"/><path fill="none" stroke="#000000" stroke-width="2" stroke-linecap="round" stroke-linejoin="round" stroke-miterlimit="10" d="M49,48.6c-0.5,0.2-1.1,0.301-1.8,0.301c-1.5,0-3.9-0.4-5.5-1.7c-1.601,1.3-4,1.7-5.5,1.7s-3.9-0.4-5.5-1.7c-1.601,1.3-4,1.7-5.5,1.7s-3.9-0.4-5.5-1.7c-1.6,1.3-4,1.7-5.5,1.7s-3.9-0.4-5.5-1.7c-1.6,1.3-4,1.7-5.5,1.7c-0.7,0-1.3-0.101-1.8-0.101"/><path d="M49.929,36.228c-0.206-0.513-0.789-0.762-1.301-0.557C48.249,35.823,47.769,35.9,47.2,35.9c-1.192,0-2.892-0.283-4.2-1.03v2.221c1.421,0.58,2.979,0.81,4.2,0.81c0.823,0,1.555-0.125,2.172-0.372C49.885,37.322,50.134,36.74,49.929,36.228z"/><path d="M49.929,40.228c-0.206-0.513-0.789-0.762-1.301-0.557C48.249,39.823,47.769,39.9,47.2,39.9c-1.192,0-2.892-0.283-4.2-1.03v2.221c1.421,0.58,2.979,0.81,4.2,0.81c0.823,0,1.555-0.125,2.172-0.372C49.885,41.322,50.134,40.74,49.929,40.228z"/><path d="M40.355,5.766l-15-5.7c-0.229-0.087-0.481-0.087-0.711,0l-15,5.7C9.257,5.913,9,6.285,9,6.7v27.806v2.361v1.639v1.72v0.642c0.057,0.028,0.118,0.046,0.175,0.072c1.056,0.659,3.907,0.961,5.025,0.961c1.128,0,2.738-0.322,3.607-1.027c0.533-0.435,1.205-0.674,1.893-0.674c0.687,0,1.358,0.239,1.893,0.673c0.869,0.706,2.479,1.028,3.607,1.028s2.737-0.322,3.61-1.031c0.534-0.432,1.205-0.67,1.891-0.67c0.688,0,1.359,0.239,1.892,0.673c0.869,0.706,2.479,1.028,3.607,1.028s3.722-0.494,4.8-1.104v-0.504V38V6.7C41,6.285,40.743,5.913,40.355,5.766z M22,37h-5v-5h5V37z M22,27h-5v-5h5V27z M22,17h-5v-5h5V17z M33,37h-5v-5h5V37z M33,27h-5v-5h5V27z M33,17h-5v-5h5V17z"/><path d="M1.934,35.947C1.632,35.922,1.354,35.9,1.1,35.9c-0.552,0-1,0.447-1,1s0.448,1,1,1c0.204,0,0.426,0.02,0.667,0.04C2.113,37.97,2.491,38,2.9,38c1.193,0,2.707-0.219,4.1-0.77v-2.207C5.705,35.729,4.063,36,2.9,36C2.551,36,2.229,35.972,1.934,35.947z"/><path d="M1.934,39.947C1.632,39.922,1.354,39.9,1.1,39.9c-0.552,0-1,0.447-1,1s0.448,1,1,1c0.204,0,0.426,0.02,0.667,0.04C2.113,41.97,2.491,42,2.9,42c1.193,0,2.707-0.219,4.1-0.77v-2.207C5.705,39.729,4.063,40,2.9,40C2.551,40,2.229,39.972,1.934,39.947z"/></svg>