<svg xmlns="http://www.w3.org/2000/svg"  viewBox="0 0 50.008 49.98" width="500px" height="500px"><title>ios-fld_sad_sun</title><g id="Слой_2" data-name="Слой 2"><g id="Слой_6" data-name="Слой 6"><path d="M49.563,24.144l-8.246-5.5a.869.869,0,0,1-.3-.73L42.959,8.2a1,1,0,0,0-1.177-1.177L32.069,8.966a.875.875,0,0,1-.735-.306L25.836.417a1.039,1.039,0,0,0-1.664,0l-5.5,8.246a.876.876,0,0,1-.729.3L8.226,7.021A1,1,0,0,0,7.049,8.2L8.993,17.91a.882.882,0,0,1-.3.736l-8.243,5.5a1,1,0,0,0,0,1.664l8.246,5.5a.893.893,0,0,1,.3.73L7.054,41.758A1,1,0,0,0,8.23,42.935l9.713-1.946a.868.868,0,0,1,.731.3l5.5,8.243a1,1,0,0,0,1.664,0l5.5-8.245a.888.888,0,0,1,.729-.3l9.724,1.942a1,1,0,0,0,1.177-1.177L41.016,32.03a.88.88,0,0,1,.3-.724l8.248-5.5a1,1,0,0,0,0-1.664Zm-12.555.834a12,12,0,1,1-12-12A12.015,12.015,0,0,1,37.008,24.978Z"/><path d="M19.008,29.98a8.76,8.76,0,0,1,6-2,8.76,8.76,0,0,1,6,2" fill="none" stroke="#000" stroke-linecap="round" stroke-linejoin="round" stroke-width="2"/><path d="M21.008,21.96a1.981,1.981,0,1,1-1.981-1.98A1.979,1.979,0,0,1,21.008,21.96Z"/><path d="M33.008,21.96a1.981,1.981,0,1,1-1.981-1.98A1.979,1.979,0,0,1,33.008,21.96Z"/></g></g></svg>