<?xml version="1.0" encoding="utf-8"?><!-- Generator: Adobe Illustrator 15.0.0, SVG Export Plug-In . SVG Version: 6.00 Build 0)  --><!DOCTYPE svg PUBLIC "-//W3C//DTD SVG 1.1//EN" "http://www.w3.org/Graphics/SVG/1.1/DTD/svg11.dtd"><svg xmlns="http://www.w3.org/2000/svg" xmlns:xlink="http://www.w3.org/1999/xlink" viewBox="0 0 50 50" width="500px" height="500px"><path fill="none" stroke="#000000" stroke-width="4" stroke-linecap="round" stroke-miterlimit="10" d="M28.31,2C26.367,4.74,21,12.659,21,17c0,5.3,8,10.7,8,16c0,4.298-5.262,12.187-7.251,15"/><path fill="none" stroke="#000000" stroke-width="4" stroke-linecap="round" stroke-miterlimit="10" d="M44.316,2C42.381,4.73,37,12.653,37,17c0,5.3,8,10.7,8,16c0,4.304-5.276,12.197-7.259,15"/><path fill="none" stroke="#000000" stroke-width="4" stroke-linecap="round" stroke-miterlimit="10" d="M12.299,2C10.348,4.753,5,12.667,5,17c0,5.3,8,10.7,8,16c0,4.306-5.28,12.199-7.261,15"/></svg>