<?xml version="1.0" encoding="iso-8859-1"?><!-- Generator: Adobe Illustrator 22.0.1, SVG Export Plug-In . SVG Version: 6.00 Build 0)  --><svg xmlns="http://www.w3.org/2000/svg" xmlns:xlink="http://www.w3.org/1999/xlink" viewBox="0 0 50 50" width="500px" height="500px"><g><g></g></g><path style="fill:none;stroke:#000000;stroke-width:4;stroke-linecap:round;stroke-miterlimit:10;" d="M5,19l9.199,0c3.575,0,6.707-2.754,6.799-6.328C21.092,9.003,18.147,6,14.5,6C12.18,6,10.15,7.219,9,9.047"/><path style="fill:none;stroke:#000000;stroke-width:4;stroke-linecap:round;stroke-miterlimit:10;" d="M5,31l19.199,0c3.575,0,6.707,2.754,6.799,6.328C31.092,40.997,28.147,44,24.5,44c-2.32,0-4.35-1.219-5.5-3.047"/><path style="fill:none;stroke:#000000;stroke-width:4;stroke-linecap:round;stroke-miterlimit:10;" d="M5,25h31.687c4.283,0,8.041-3.23,8.298-7.506C45.264,12.852,41.582,9,37,9c-3.014,0-5.636,1.668-7,4.13"/></svg>