<?xml version="1.0" encoding="iso-8859-1"?><!-- Generator: Adobe Illustrator 21.1.0, SVG Export Plug-In . SVG Version: 6.00 Build 0)  --><svg xmlns="http://www.w3.org/2000/svg" xmlns:xlink="http://www.w3.org/1999/xlink" viewBox="0 0 50 50" width="500px" height="500px"><path d="M49.555,24.168l-8.245-5.497c-0.188-0.125-0.346-0.507-0.302-0.729l1.943-9.717c0.066-0.328-0.037-0.667-0.273-0.903c-0.237-0.236-0.575-0.338-0.903-0.273l-9.717,1.943c-0.222,0.04-0.604-0.114-0.729-0.302l-5.497-8.245c-0.371-0.557-1.293-0.557-1.664,0L18.671,8.69c-0.125,0.188-0.509,0.345-0.729,0.302L8.226,7.049C7.896,6.983,7.559,7.086,7.322,7.322C7.086,7.559,6.983,7.897,7.049,8.226l1.943,9.717c0.044,0.222-0.113,0.603-0.302,0.729l-8.245,5.497C0.167,24.354,0,24.666,0,25s0.167,0.646,0.445,0.832l8.245,5.497c0.188,0.125,0.346,0.507,0.302,0.729l-1.943,9.717c-0.066,0.328,0.037,0.667,0.273,0.903c0.237,0.237,0.575,0.341,0.903,0.273l9.717-1.943c0.216-0.045,0.603,0.113,0.729,0.302l5.497,8.245C24.354,49.833,24.666,50,25,50s0.646-0.167,0.832-0.445l5.497-8.245c0.125-0.188,0.51-0.344,0.729-0.302l9.717,1.943c0.328,0.067,0.667-0.037,0.903-0.273c0.236-0.236,0.339-0.575,0.273-0.903l-1.943-9.717c-0.044-0.222,0.113-0.603,0.302-0.729l8.245-5.497C49.833,25.646,50,25.334,50,25S49.833,24.354,49.555,24.168z M25,37c-6.627,0-12-5.373-12-12c0-6.627,5.373-12,12-12s12,5.373,12,12C37,31.627,31.627,37,25,37z"/></svg>