<?xml version="1.0" encoding="utf-8"?><!-- Generator: Adobe Illustrator 15.0.0, SVG Export Plug-In . SVG Version: 6.00 Build 0)  --><!DOCTYPE svg PUBLIC "-//W3C//DTD SVG 1.1//EN" "http://www.w3.org/Graphics/SVG/1.1/DTD/svg11.dtd"><svg xmlns="http://www.w3.org/2000/svg" xmlns:xlink="http://www.w3.org/1999/xlink" viewBox="0 0 50 50" width="500px" height="500px"><line fill="none" stroke="#000000" stroke-width="2" stroke-linecap="round" stroke-miterlimit="10" x1="24" y1="45" x2="24" y2="39"/><line fill="none" stroke="#000000" stroke-width="2" stroke-linecap="round" stroke-miterlimit="10" x1="24" y1="11" x2="24" y2="5"/><line fill="none" stroke="#000000" stroke-width="2" stroke-linecap="round" stroke-miterlimit="10" x1="38" y1="25" x2="44" y2="25"/><line fill="none" stroke="#000000" stroke-width="2" stroke-linecap="round" stroke-miterlimit="10" x1="33.898" y1="15.102" x2="38.143" y2="10.858"/><line fill="none" stroke="#000000" stroke-width="2" stroke-linecap="round" stroke-miterlimit="10" x1="9.857" y1="10.858" x2="14.101" y2="15.102"/><line fill="none" stroke="#000000" stroke-width="2" stroke-linecap="round" stroke-miterlimit="10" x1="33.898" y1="34.9" x2="38.143" y2="39.143"/><g><path d="M6,23c-0.552,0-1,0.448-1,1s0.448,1,1,1h8c0-0.685,0.07-1.354,0.201-2H6z"/><path d="M11,29c-0.552,0-1,0.447-1,1s0.448,1,1,1h5.014c-0.464-0.617-0.863-1.284-1.176-2H11z"/><path d="M21,35H6c-0.552,0-1,0.447-1,1s0.448,1,1,1h15c0.552,0,1-0.447,1-1S21.552,35,21,35z"/><path d="M24,15c-4.838,0-8.873,3.436-9.799,8H21c0.552,0,1,0.448,1,1s-0.448,1-1,1h-7c0,1.423,0.302,2.774,0.838,4H26c0.553,0,1,0.447,1,1s-0.447,1-1,1h-9.986c1.825,2.425,4.718,4,7.986,4c5.522,0,10-4.478,10-10C34,19.477,29.522,15,24,15z"/></g></svg>