<?xml version="1.0" encoding="iso-8859-1"?>
<!-- Generator: Adobe Illustrator 22.1.0, SVG Export Plug-In . SVG Version: 6.00 Build 0)  -->
<svg version="1.1" id="Layer_1" xmlns="http://www.w3.org/2000/svg" xmlns:xlink="http://www.w3.org/1999/xlink" x="0px" y="0px"
	 viewBox="0 0 50 50" style="enable-background:new 0 0 50 50;" xml:space="preserve">
<path style="fill:none;stroke:#000000;stroke-width:2;stroke-linecap:round;stroke-linejoin:round;stroke-miterlimit:10;" d="M26,31
	c0-9,6-14,6-19.403C32,2,19,3,19,12.597"/>
<ellipse transform="matrix(0.3645 -0.9312 0.9312 0.3645 -3.4819 24.8981)" cx="16.5" cy="15" rx="4.31" ry="2.243"/>
<ellipse transform="matrix(0.9312 -0.3645 0.3645 0.9312 -3.9881 8.8677)" cx="21.5" cy="15" rx="2.243" ry="4.31"/>
<path style="fill:none;stroke:#000000;stroke-width:2;stroke-linecap:round;stroke-linejoin:round;stroke-miterlimit:10;" d="M36,19
	c-2-1-6.458,0.072-7.958,3.098"/>
<path style="fill:none;stroke:#000000;stroke-width:2;stroke-linecap:round;stroke-linejoin:round;stroke-miterlimit:10;" d="M23,22
	c1.708,0.765,3.375,2.077,3.438,4.515"/>
<g>
	<path d="M14.382,39l1.484-2.969L12.42,30H7.136l3.633,4.359c0.193,0.232,0.271,0.54,0.212,0.837L10.22,39H14.382z"/>
	<path d="M30.804,37.02l4.778-0.956l2.895-2.172L34.586,30H14.723l3.145,5.504c0.166,0.29,0.176,0.645,0.026,0.943l-1.958,3.916
		L14.326,46h8.805l-2.964-4.445c-0.176-0.264-0.216-0.596-0.108-0.894s0.35-0.528,0.653-0.619l2.225-0.667l-1.844-3.952
		c-0.233-0.501-0.017-1.096,0.483-1.329c0.501-0.232,1.096-0.017,1.329,0.483l2.333,5c0.123,0.264,0.125,0.566,0.006,0.832
		c-0.118,0.265-0.347,0.465-0.625,0.549l-2.039,0.611L25.535,46h6.435l-1.939-7.758c-0.066-0.265-0.021-0.546,0.125-0.777
		C30.301,37.235,30.536,37.074,30.804,37.02z"/>
	<path d="M13.674,41H9c-0.3,0-0.583-0.135-0.773-0.366c-0.189-0.231-0.266-0.536-0.207-0.83l0.906-4.531L4.531,30H4
		c-0.553,0-1,0.447-1,1v14c0,0.553,0.447,1,1,1h8.245L13.674,41z"/>
	<path d="M46,30h-8.586l3.293,3.293c0.205,0.205,0.311,0.488,0.29,0.778c-0.021,0.289-0.165,0.555-0.397,0.729l-2.967,2.226
		l3.992,3.193c0.431,0.346,0.501,0.975,0.156,1.406C41.583,41.871,41.293,42,40.999,42c-0.219,0-0.439-0.071-0.624-0.219
		l-4.636-3.709l-3.514,0.703l1.745,6.982C33.99,45.84,33.981,45.92,33.981,46H46c0.553,0,1-0.447,1-1V31C47,30.448,46.553,30,46,30z
		"/>
</g>
</svg>