<?xml version="1.0" encoding="iso-8859-1"?>
<!-- Generator: Adobe Illustrator 18.0.0, SVG Export Plug-In . SVG Version: 6.00 Build 0)  -->
<!DOCTYPE svg PUBLIC "-//W3C//DTD SVG 1.1//EN" "http://www.w3.org/Graphics/SVG/1.1/DTD/svg11.dtd">
<svg version="1.1" id="Layer_3" xmlns="http://www.w3.org/2000/svg" xmlns:xlink="http://www.w3.org/1999/xlink" x="0px" y="0px"
	 width="50px" height="50px" viewBox="0 0 50 50" style="enable-background:new 0 0 50 50;" xml:space="preserve">
<line style="fill:none;stroke:#000000;stroke-width:2;stroke-miterlimit:10;" x1="46" y1="15.667" x2="46" y2="8"/>
<line style="fill:none;stroke:#000000;stroke-width:2;stroke-miterlimit:10;" x1="42" y1="16" x2="42" y2="11"/>
<path d="M42,37c-11.458,0-20.435-8.952-20.435-20.38v-1l0.028-1.307c-1.747,0.204-3.188-0.805-3.969-1.888
	c-0.437-0.925-0.223-1.826-0.762-1.749C12.166,11.327,6.64,15.874,0,24.539v2.649V30.4V45c0-0.174,0.045-0.348,0.135-0.504
	c0.184-0.313,0.52-0.5,0.879-0.496c3.305,0,5.094-3.438,5.094-3.438c0.137-0.293,0.402-0.5,0.719-0.563c0.031,0,0.063,0,0.094,0
	c0.418-0.043,0.816,0.184,1,0.563c0,0,1.738,3.438,5.094,3.438s5.094-3.438,5.094-3.438c0.164-0.352,0.52-0.578,0.906-0.578
	s0.742,0.227,0.906,0.578c0,0,1.734,3.438,5.094,3.438s5.094-3.438,5.094-3.438c0.164-0.352,0.52-0.578,0.906-0.578
	s0.742,0.227,0.906,0.578c0,0,1.734,3.438,5.094,3.438s5.094-3.438,5.094-3.438c0.164-0.352,0.52-0.578,0.906-0.578
	s0.742,0.227,0.906,0.578c0,0,1.781,3.438,5.094,3.438c0.359-0.004,0.695,0.184,0.879,0.496c0.053,0.093,0.086,0.193,0.107,0.294V37
	H42z M26.432,35.945c-0.193,0.286-0.508,0.44-0.83,0.44c-0.192,0-0.387-0.056-0.559-0.171c-6.118-4.134-9.771-11.003-9.771-18.377
	c0-0.552,0.448-1,1-1s1,0.448,1,1c0,6.708,3.323,12.959,8.89,16.719C26.621,34.866,26.741,35.488,26.432,35.945z"/>
<g>
	<path d="M1.102,25.821c-0.039,0-0.077-0.002-0.116-0.007c-0.549-0.063-0.942-0.56-0.878-1.108
		c0.933-8.075,5.01-14.89,11.185-18.697c4.985-3.074,10.882-3.838,15.774-2.048c2.352,0.86,4.14,2.57,4.905,4.692
		c0.965,2.677,0.369,5.129-1.556,6.401c-2.038,1.346-4.914,0.985-6.724-0.674c-1.181,1.041-2.358,1.065-3.031,0.959
		c-2.14-0.339-3.777-2.531-4.451-4.552c-0.175-0.524,0.108-1.09,0.632-1.265c0.526-0.176,1.091,0.108,1.265,0.632
		c0.562,1.686,1.768,3.035,2.867,3.209c0.67,0.107,1.323-0.256,1.931-1.079c0.193-0.262,0.472-0.429,0.827-0.405
		c0.325,0.007,0.626,0.172,0.808,0.442c1.028,1.529,3.302,2.035,4.775,1.063c1.677-1.108,1.018-3.383,0.776-4.053
		c-0.564-1.563-1.917-2.836-3.712-3.493c-4.32-1.581-9.568-0.88-14.037,1.873c-5.65,3.483-9.386,9.761-10.249,17.224
		C2.035,25.445,1.602,25.821,1.102,25.821z"/>
</g>
<g>
	<path d="M42,35h7V15H37v5h-8v9.759C32.31,33.013,36.878,35,42,35z M41,19h4v2h-4V19z M41,23h4v2h-4V23z M41,26.993h4v2.038h-4
		V26.993z M41,30.993h4v2.038h-4V30.993z M33,22h2v3h-2V22z M33,27h2v3h-2V27z"/>
</g>
</svg>