<?xml version="1.0" encoding="utf-8"?><!-- Generator: Adobe Illustrator 15.0.0, SVG Export Plug-In . SVG Version: 6.00 Build 0)  --><!DOCTYPE svg PUBLIC "-//W3C//DTD SVG 1.1//EN" "http://www.w3.org/Graphics/SVG/1.1/DTD/svg11.dtd"><svg xmlns="http://www.w3.org/2000/svg" xmlns:xlink="http://www.w3.org/1999/xlink" viewBox="0 0 50 50" width="500px" height="500px"><path d="M48,0H38H2C0.897,0,0,0.897,0,2v46c0,1.104,0.897,2,2,2h36h10c1.104,0,2-0.896,2-2V2C50,0.896,49.104,0,48,0z M6.707,42.414L2,37.707l1.414-1.414l2.319,2.318c0.204-9.758,1.669-12.449,3.092-15.045c1.417-2.586,2.882-5.26,2.882-16.566h2c0,11.818-1.59,14.72-3.128,17.527c-1.363,2.487-2.652,4.864-2.845,14.032L10,36.293l1.414,1.414L6.707,42.414z M17.707,42.414L13,37.707l1.414-1.414l2.319,2.318c0.204-9.758,1.669-12.449,3.092-15.045c1.417-2.586,2.882-5.26,2.882-16.566h2c0,11.818-1.59,14.72-3.128,17.527c-1.363,2.487-2.652,4.864-2.845,14.032L21,36.293l1.414,1.414L17.707,42.414z M32,36.293l1.414,1.414l-4.707,4.707L24,37.707l1.414-1.414l2.318,2.318c0.205-9.758,1.67-12.449,3.093-15.045c1.417-2.586,2.882-5.26,2.882-16.566h2c0,11.818-1.59,14.72-3.128,17.527c-1.362,2.487-2.652,4.864-2.845,14.032L32,36.293z M47,47h-9v-2h7v-5h-4v-2h4v-5h-4v-2h4v-5h-7v-2h7v-5h-4v-2h4v-5h-4v-2h4V5h-7V3h9V47z"/></svg>