<?xml version="1.0" encoding="utf-8"?><!-- Generator: Adobe Illustrator 15.0.0, SVG Export Plug-In . SVG Version: 6.00 Build 0)  --><!DOCTYPE svg PUBLIC "-//W3C//DTD SVG 1.1//EN" "http://www.w3.org/Graphics/SVG/1.1/DTD/svg11.dtd"><svg xmlns="http://www.w3.org/2000/svg" xmlns:xlink="http://www.w3.org/1999/xlink" viewBox="0 0 50 50" width="500px" height="500px"><path d="M49,48H34.949c-0.504-5.046-4.773-9-9.949-9c-5.177,0-9.446,3.954-9.949,9H1c-0.552,0-1,0.447-1,1s0.448,1,1,1h48c0.553,0,1-0.447,1-1S49.553,48,49,48z"/><line fill="none" stroke="#000000" stroke-width="2" stroke-linecap="round" stroke-miterlimit="10" x1="25" y1="35" x2="25" y2="29"/><line fill="none" stroke="#000000" stroke-width="2" stroke-linecap="round" stroke-miterlimit="10" x1="34.9" y1="39.1" x2="39.1" y2="34.9"/><line fill="none" stroke="#000000" stroke-width="2" stroke-linecap="round" stroke-miterlimit="10" x1="10.9" y1="34.9" x2="15.1" y2="39.1"/><polyline fill="none" stroke="#000000" stroke-width="2" stroke-linecap="round" stroke-miterlimit="10" points="18.1,8.4 25,1.5 31.9,8.4 "/><line fill="none" stroke="#000000" stroke-width="2" stroke-linecap="round" stroke-miterlimit="10" x1="25" y1="20" x2="25" y2="1.6"/></svg>