<?xml version="1.0" encoding="utf-8"?><!-- Generator: Adobe Illustrator 15.0.0, SVG Export Plug-In . SVG Version: 6.00 Build 0)  --><!DOCTYPE svg PUBLIC "-//W3C//DTD SVG 1.1//EN" "http://www.w3.org/Graphics/SVG/1.1/DTD/svg11.dtd"><svg xmlns="http://www.w3.org/2000/svg" xmlns:xlink="http://www.w3.org/1999/xlink" viewBox="0 0 50 50" width="500px" height="500px"><path d="M16,12c-0.552,0-1-0.448-1-1V7c0-0.552,0.448-1,1-1s1,0.448,1,1v4C17,11.552,16.552,12,16,12z"/><path d="M18,10h-4c-0.552,0-1-0.448-1-1s0.448-1,1-1h4c0.552,0,1,0.448,1,1S18.552,10,18,10z"/><path d="M8,22c-0.552,0-1-0.448-1-1v-2c0-0.552,0.448-1,1-1s1,0.448,1,1v2C9,21.552,8.552,22,8,22z"/><path d="M9,21H7c-0.552,0-1-0.448-1-1s0.448-1,1-1h2c0.552,0,1,0.448,1,1S9.552,21,9,21z"/><path d="M29,41c-7.72,0-14-6.28-14-14c0-6.913,5.161-12.864,12.005-13.843l1.318-0.189l-0.187,1.319C28.043,14.945,28,15.49,28,16c0,6.617,5.383,12,12,12c0.51,0,1.055-0.043,1.714-0.137l1.318-0.187l-0.188,1.318C41.863,35.839,35.911,41,29,41z"/></svg>