<?xml version="1.0" encoding="utf-8"?><!-- Generator: Adobe Illustrator 15.0.0, SVG Export Plug-In . SVG Version: 6.00 Build 0)  --><!DOCTYPE svg PUBLIC "-//W3C//DTD SVG 1.1//EN" "http://www.w3.org/Graphics/SVG/1.1/DTD/svg11.dtd"><svg xmlns="http://www.w3.org/2000/svg" xmlns:xlink="http://www.w3.org/1999/xlink" viewBox="0 0 50 50" width="500px" height="500px"><path fill="none" stroke="#000000" stroke-width="2" stroke-linecap="round" stroke-linejoin="round" stroke-miterlimit="10" d="M49,26.7c-0.5,0.2-1.1,0.3-1.8,0.3c-1.5,0-3.9-0.4-5.5-1.7c-1.601,1.3-4,1.7-5.5,1.7s-3.9-0.4-5.5-1.7c-1.601,1.3-4,1.7-5.5,1.7s-3.9-0.4-5.5-1.7c-1.6,1.3-4,1.7-5.5,1.7s-3.9-0.4-5.5-1.7c-1.6,1.3-4,1.7-5.5,1.7c-0.7,0-1.3-0.1-1.8-0.1"/><path fill="none" stroke="#000000" stroke-width="2" stroke-linecap="round" stroke-linejoin="round" stroke-miterlimit="10" d="M49,35.7c-0.5,0.2-1.1,0.3-1.8,0.3c-1.5,0-3.9-0.4-5.5-1.7c-1.601,1.3-4,1.7-5.5,1.7s-3.9-0.4-5.5-1.7c-1.601,1.3-4,1.7-5.5,1.7s-3.9-0.4-5.5-1.7c-1.6,1.3-4,1.7-5.5,1.7s-3.9-0.4-5.5-1.7c-1.6,1.3-4,1.7-5.5,1.7c-0.7,0-1.3-0.1-1.8-0.1"/><polyline fill="none" stroke="#000000" stroke-width="2" stroke-miterlimit="10" points="50,49 1,49 1,0 "/><path fill="none" stroke="#000000" stroke-width="2" stroke-linecap="round" stroke-linejoin="round" stroke-miterlimit="10" d="M49,44.7c-0.5,0.2-1.1,0.3-1.8,0.3c-1.5,0-3.9-0.4-5.5-1.7c-1.601,1.3-4,1.7-5.5,1.7s-3.9-0.4-5.5-1.7c-1.601,1.3-4,1.7-5.5,1.7s-3.9-0.4-5.5-1.7c-1.6,1.3-4,1.7-5.5,1.7s-3.9-0.4-5.5-1.7c-1.6,1.3-4,1.7-5.5,1.7c-0.7,0-1.3-0.1-1.8-0.1"/><path d="M47.2,19c-1.61,0-3.807-0.396-5.5-1.472C40.006,18.604,37.811,19,36.2,19s-3.807-0.396-5.5-1.472C29.006,18.604,26.811,19,25.2,19c-1.611,0-3.807-0.396-5.5-1.471C18.006,18.604,15.811,19,14.2,19c-1.611,0-3.807-0.396-5.5-1.471C7.006,18.604,4.811,19,3.2,19c-0.41,0-0.788-0.031-1.134-0.06C1.825,18.92,1.604,18.9,1.4,18.9c-0.552,0-1-0.448-1-1s0.448-1,1-1c0.254,0,0.533,0.022,0.833,0.047C2.529,16.972,2.851,17,3.2,17c1.408,0,3.528-0.387,4.869-1.476c0.368-0.299,0.895-0.299,1.262,0C10.671,16.613,12.792,17,14.2,17c1.408,0,3.528-0.387,4.869-1.476c0.368-0.299,0.895-0.299,1.262,0C21.671,16.613,23.792,17,25.2,17c1.408,0,3.528-0.387,4.869-1.477c0.367-0.298,0.895-0.298,1.262,0C32.671,16.613,34.792,17,36.2,17s3.528-0.387,4.869-1.477c0.367-0.298,0.895-0.298,1.262,0C43.671,16.613,45.792,17,47.2,17c0.568,0,1.05-0.077,1.429-0.229c0.514-0.202,1.095,0.044,1.3,0.558c0.205,0.513-0.045,1.095-0.558,1.3C48.754,18.875,48.024,19,47.2,19z"/><path d="M17.809,13.971c0.533-0.433,1.205-0.671,1.892-0.671c0.688,0,1.36,0.239,1.892,0.672C22.461,14.678,24.072,15,25.2,15c1.128,0,2.738-0.322,3.609-1.03c0.532-0.432,1.204-0.67,1.891-0.67c0.688,0,1.36,0.239,1.893,0.672c0.598,0.486,1.545,0.786,2.447,0.928C36.286,13.211,37,11.147,37,9V7c0-0.552-0.447-1-1-1H14c-0.552,0-1,0.448-1,1v2c0,2.177,0.725,4.264,1.995,5.951C15.997,14.838,17.128,14.524,17.809,13.971z"/><path d="M32,5V1c0-0.552-0.447-1-1-1H19c-0.552,0-1,0.448-1,1v4H32z"/></svg>