<?xml version="1.0" encoding="utf-8"?><!-- Generator: Adobe Illustrator 15.0.0, SVG Export Plug-In . SVG Version: 6.00 Build 0)  --><!DOCTYPE svg PUBLIC "-//W3C//DTD SVG 1.1//EN" "http://www.w3.org/Graphics/SVG/1.1/DTD/svg11.dtd"><svg xmlns="http://www.w3.org/2000/svg" xmlns:xlink="http://www.w3.org/1999/xlink" viewBox="0 0 50 50" width="500px" height="500px"><line fill="none" stroke="#000000" stroke-width="2" stroke-linecap="round" stroke-miterlimit="10" x1="17" y1="10" x2="17" y2="5"/><line fill="none" stroke="#000000" stroke-width="2" stroke-linecap="round" stroke-miterlimit="10" x1="1" y1="21" x2="6" y2="21"/><line fill="none" stroke="#000000" stroke-width="2" stroke-linecap="round" stroke-miterlimit="10" x1="24.778" y1="13.221" x2="28.314" y2="9.686"/><line fill="none" stroke="#000000" stroke-width="2" stroke-linecap="round" stroke-miterlimit="10" x1="5.687" y1="32.313" x2="9.222" y2="28.777"/><line fill="none" stroke="#000000" stroke-width="2" stroke-linecap="round" stroke-miterlimit="10" x1="5.687" y1="9.686" x2="9.222" y2="13.222"/><path d="M41,41H20c-3.86,0-7-3.141-7-7c0-3.541,2.643-6.477,6.06-6.938C19.02,26.706,19,26.352,19,26c0-5.514,4.486-10,10-10c4.566,0,8.444,3.013,9.626,7.316C39.395,23.106,40.189,23,41,23c4.963,0,9,4.037,9,9S45.963,41,41,41z"/><path d="M13.249,28.07c1.003-1.144,2.29-2.039,3.761-2.56c0.169-4.204,2.519-7.846,5.939-9.854c-1.466-1.63-3.584-2.662-5.949-2.662c-4.421,0-8.005,3.584-8.005,8.005C8.995,24.065,10.719,26.726,13.249,28.07z"/></svg>