<?xml version="1.0" encoding="utf-8"?><!-- Generator: Adobe Illustrator 15.0.0, SVG Export Plug-In . SVG Version: 6.00 Build 0)  --><!DOCTYPE svg PUBLIC "-//W3C//DTD SVG 1.1//EN" "http://www.w3.org/Graphics/SVG/1.1/DTD/svg11.dtd"><svg xmlns="http://www.w3.org/2000/svg" xmlns:xlink="http://www.w3.org/1999/xlink" viewBox="0 0 50 50" width="500px" height="500px"><path d="M49.812,37.313c-0.529-0.737-1.215-1.519-1.879-2.273c-0.963-1.095-2.573-2.928-2.447-3.558c0.186-0.924,0.758-2.156,3.562-3.488c0.325-0.155,0.543-0.474,0.568-0.834c0.024-0.36-0.146-0.706-0.448-0.904c-1.87-1.232-4.513-1.317-6.845-1.392c-1.361-0.044-3.64-0.118-3.758-0.649c-0.095-0.426,0.962-1.397,1.984-2.336c2.311-2.122,5.803-5.329,7.723-11.39c0.116-0.367,0.012-0.768-0.269-1.031c-0.28-0.263-0.688-0.344-1.046-0.204c-1.611,0.625-5.254,0.4-6.266-0.62c-1.005-1.015-1.255-3.735-1.52-6.616l-0.104-1.114c-0.04-0.417-0.336-0.765-0.741-0.872c-0.406-0.107-0.834,0.052-1.074,0.395c-0.32,0.459-0.624,0.91-0.919,1.345c-1.656,2.452-2.854,4.223-4.588,4.327c-2.008,0.114-4.224-1.183-5.512-3.238c-0.218-0.349-0.63-0.528-1.033-0.452c-0.404,0.076-0.721,0.393-0.797,0.797c-0.341,1.81-0.313,4.185-0.283,6.698c0.039,3.26,0.097,8.187-1.298,8.58c-0.715,0.197-1.173-0.468-2.296-2.716c-1.127-2.258-2.53-5.068-5.53-6.626c-0.321-0.167-0.705-0.147-1.008,0.05c-0.302,0.197-0.475,0.542-0.451,0.903c0.158,2.389-0.332,3.985-0.896,4.327c-0.357,0.216-1.855,0.717-6.141-1.925c-0.398-0.246-0.915-0.182-1.242,0.154c-0.327,0.336-0.376,0.854-0.119,1.246c1.842,2.806,3.301,6.636,2.447,7.931c-1.07,1.62-1.64,1.721-3.53,2.057l-0.321,0.057c-0.322,0.058-0.596,0.271-0.732,0.568c-0.136,0.298-0.118,0.644,0.049,0.926c2.135,3.603,6.144,5.176,8.796,6.217c0.708,0.278,1.571,0.616,1.901,0.834c0.04,1.42-1.09,2.106-2.895,3.082c-1.448,0.783-2.946,1.593-3.328,3.17c-0.091,0.378,0.044,0.774,0.349,1.017c0.304,0.243,0.719,0.288,1.068,0.114c0.904-0.449,2.642,0.383,3.494,1.01c-2.668,2.98-7.172,3.647-9.411,3.979c-0.671,0.1-1.114,0.165-1.427,0.271c-1.161,0.393-1.796,1.495-1.544,2.683c0.235,1.107,1.295,2.21,3.054,2.104c0.006,0.001,0.011,0.004,0.018,0.004c0.024,0,0.048-0.001,0.072-0.003c0.003,0,0.006-0.001,0.008-0.001c0.004,0,0.008,0,0.013,0c0.002,0,0.004-0.002,0.007-0.002c0.931-0.068,1.847-0.224,2.753-0.426c6.47-1.753,12.386-7.6,17.3-14.971c-0.05-0.077-0.096-0.158-0.124-0.251c-0.674-2.213-4.153-7.801-8.684-11.06c-0.448-0.323-0.55-0.948-0.228-1.396c0.323-0.448,0.948-0.55,1.396-0.228c4.126,2.969,7.576,7.838,8.957,10.883c3.709-5.983,6.779-12.751,8.988-19.062c0.182-0.521,0.753-0.793,1.273-0.613c0.521,0.183,0.796,0.753,0.613,1.274c-2.12,6.058-5.031,12.524-8.553,18.375c5.106-0.841,10.624-0.443,15.267,1.188c0.521,0.183,0.796,0.754,0.612,1.274c-0.145,0.412-0.53,0.669-0.943,0.669c-0.11,0-0.222-0.018-0.331-0.057c-6.744-2.369-13.182-1.415-16.042-0.769c-2.426,3.733-5.11,7.131-8,9.913c0.46,0.15,0.919,0.305,1.261,0.421c4.162,1.784,4.342,3.358,4.419,4.031c0.041,0.357,0.272,0.666,0.604,0.807C23.889,49.974,24.022,50,24.154,50c0.217,0,0.432-0.07,0.609-0.207c2.841-2.185,2.698-4.223,2.592-5.711c-0.075-1.06-0.084-1.596,0.517-2.203c1.719-1.737,8.183-1.24,12.306,2.598c0.325,0.304,0.812,0.355,1.192,0.128c0.382-0.227,0.568-0.678,0.458-1.107c-0.301-1.174,0.082-2.933,0.87-4.004c0.449-0.611,2.386-0.604,4.249-0.588c0.663,0.003,1.359,0.008,2.075-0.009c0.371-0.009,0.706-0.222,0.871-0.554C50.06,38.011,50.027,37.615,49.812,37.313z"/></svg>