<?xml version="1.0" encoding="utf-8"?><!-- Generator: Adobe Illustrator 15.0.0, SVG Export Plug-In . SVG Version: 6.00 Build 0)  --><!DOCTYPE svg PUBLIC "-//W3C//DTD SVG 1.1//EN" "http://www.w3.org/Graphics/SVG/1.1/DTD/svg11.dtd"><svg xmlns="http://www.w3.org/2000/svg" xmlns:xlink="http://www.w3.org/1999/xlink" viewBox="0 0 50 50" width="500px" height="500px"><path fill="none" stroke="#000000" stroke-width="2" stroke-linecap="round" stroke-linejoin="round" stroke-miterlimit="10" d="M41.5,35c-1.625,1.509-3.973,2-5.5,2s-3.874-0.491-5.5-2"/><path fill="none" stroke="#000000" stroke-width="2" stroke-linecap="round" stroke-linejoin="round" stroke-miterlimit="10" d="M47,37c-1.527,0-3.874-0.491-5.5-2"/><path fill="none" stroke="#000000" stroke-width="2" stroke-linecap="round" stroke-linejoin="round" stroke-miterlimit="10" d="M8.5,35c-1.625,1.509-3.972,2-5.5,2"/><path fill="none" stroke="#000000" stroke-width="2" stroke-linecap="round" stroke-linejoin="round" stroke-miterlimit="10" d="M41.5,24c-1.625,1.509-3.973,2-5.5,2s-3.874-0.491-5.5-2"/><path fill="none" stroke="#000000" stroke-width="2" stroke-linecap="round" stroke-linejoin="round" stroke-miterlimit="10" d="M47,26c-1.527,0-3.874-0.491-5.5-2"/><path fill="none" stroke="#000000" stroke-width="2" stroke-linecap="round" stroke-linejoin="round" stroke-miterlimit="10" d="M30.5,24c-1.625,1.509-3.973,2-5.5,2c-1.527,0-3.874-0.491-5.5-2"/><path fill="none" stroke="#000000" stroke-width="2" stroke-linecap="round" stroke-linejoin="round" stroke-miterlimit="10" d="M19.5,24c-1.625,1.509-3.972,2-5.5,2c-1.527,0-3.874-0.491-5.5-2"/><path fill="none" stroke="#000000" stroke-width="2" stroke-linecap="round" stroke-linejoin="round" stroke-miterlimit="10" d="M8.5,24c-1.625,1.509-3.972,2-5.5,2"/><path fill="none" stroke="#000000" stroke-width="2" stroke-linecap="round" stroke-linejoin="round" stroke-miterlimit="10" d="M47,15c-1.527,0-3.874-0.491-5.5-2"/><path fill="none" stroke="#000000" stroke-width="2" stroke-linecap="round" stroke-linejoin="round" stroke-miterlimit="10" d="M19.5,13c-1.625,1.509-3.972,2-5.5,2c-1.527,0-3.874-0.491-5.5-2"/><path fill="none" stroke="#000000" stroke-width="2" stroke-linecap="round" stroke-linejoin="round" stroke-miterlimit="10" d="M8.5,13c-1.625,1.509-3.972,2-5.5,2"/><g><path d="M23.503,13.839c-1.136-0.225-2.389-0.706-3.323-1.572c-0.404-0.375-1.038-0.353-1.413,0.053c-0.376,0.405-0.352,1.038,0.053,1.413c1.431,1.328,3.344,1.969,4.978,2.18C23.613,15.253,23.508,14.559,23.503,13.839z"/><path d="M42.232,12.32c-0.375-0.406-1.008-0.429-1.412-0.053c-0.666,0.619-1.497,1.041-2.332,1.315c0.002,0.064,0.012,0.132,0.012,0.196c0,0.675-0.093,1.326-0.252,1.95c1.361-0.319,2.799-0.944,3.932-1.996C42.585,13.357,42.609,12.725,42.232,12.32z"/></g><g><path d="M13.149,35.941c-1.282-0.15-2.852-0.64-3.969-1.674c-0.404-0.375-1.037-0.354-1.413,0.053c-0.376,0.404-0.352,1.037,0.053,1.412c1.3,1.207,3,1.847,4.525,2.113C12.582,37.206,12.854,36.568,13.149,35.941z"/><path d="M31.232,34.32c-0.375-0.406-1.008-0.428-1.412-0.053C28.441,35.546,26.361,36,25,36c-0.039,0-0.084-0.004-0.124-0.005c0.305,0.651,0.586,1.313,0.826,1.978c1.729-0.136,3.899-0.774,5.478-2.24C31.585,35.357,31.609,34.725,31.232,34.32z"/></g><path d="M31,20c-3.309,0-6-2.791-6-6.221c0-4.162,4.979-11.074,5.19-11.366L31,1.297l0.81,1.116C32.021,2.705,37,9.617,37,13.779C37,17.209,34.309,20,31,20z"/><path d="M19,48c-3.309,0-6-2.791-6-6.221c0-4.161,4.979-11.074,5.19-11.366L19,29.297l0.81,1.116C20.021,30.705,25,37.618,25,41.779C25,45.209,22.309,48,19,48z"/></svg>