<?xml version="1.0" encoding="utf-8"?><!-- Generator: Adobe Illustrator 19.1.1, SVG Export Plug-In . SVG Version: 6.00 Build 0)  --><svg xmlns="http://www.w3.org/2000/svg" xmlns:xlink="http://www.w3.org/1999/xlink" viewBox="0 0 50 50" width="500px" height="500px"><style type="text/css">.st0{fill:none;}</style><path d="M35,6H15c-0.6,0-1,0.4-1,1v29h22V7C36,6.4,35.6,6,35,6z M26,30c0,0.6-0.4,1-1,1s-1-0.4-1-1V14c0-0.6,0.4-1,1-1s1,0.4,1,1V30z"/><g><path class="st0" d="M25,41c-0.6,0-1,0.4-1,1v2h2v-2C26,41.4,25.6,41,25,41z"/><path d="M14,38v5c0,0.6,0.4,1,1,1h9v-2c0-0.6,0.4-1,1-1s1,0.4,1,1v2h9c0.6,0,1-0.4,1-1v-5H14z"/></g></svg>