<?xml version="1.0" encoding="utf-8"?><!-- Generator: Adobe Illustrator 15.0.0, SVG Export Plug-In . SVG Version: 6.00 Build 0)  --><!DOCTYPE svg PUBLIC "-//W3C//DTD SVG 1.1//EN" "http://www.w3.org/Graphics/SVG/1.1/DTD/svg11.dtd"><svg xmlns="http://www.w3.org/2000/svg" xmlns:xlink="http://www.w3.org/1999/xlink" viewBox="0 0 50 50" width="500px" height="500px"><path d="M36,32H12c-4.411,0-8-3.589-8-8s3.589-8,8-8c0.004,0,0.009,0,0.014,0C12.004,15.831,12,15.665,12,15.5C12,9.71,16.71,5,22.5,5c4.76,0,8.818,3.129,10.086,7.603C33.679,12.202,34.822,12,36,12c5.514,0,10,4.486,10,10C46,27.514,41.514,32,36,32z"/><g><g><line fill="none" stroke="#000000" stroke-width="2" stroke-linecap="round" stroke-miterlimit="10" x1="25" y1="31" x2="24.706" y2="31.956"/><line fill="none" stroke="#000000" stroke-width="2" stroke-linecap="round" stroke-miterlimit="10" stroke-dasharray="1.9051,3.8102" x1="23.585" y1="35.598" x2="22.465" y2="39.239"/><line fill="none" stroke="#000000" stroke-width="2" stroke-linecap="round" stroke-miterlimit="10" x1="21.905" y1="41.061" x2="21.61" y2="42.016"/></g></g><g><g><line fill="none" stroke="#000000" stroke-width="2" stroke-linecap="round" stroke-miterlimit="10" x1="18" y1="31" x2="17.559" y2="32.434"/><line fill="none" stroke="#000000" stroke-width="2" stroke-linecap="round" stroke-miterlimit="10" x1="16.133" y1="37.066" x2="15.692" y2="38.501"/></g></g><g><g><line fill="none" stroke="#000000" stroke-width="2" stroke-linecap="round" stroke-miterlimit="10" x1="32" y1="31" x2="31.559" y2="32.434"/><line fill="none" stroke="#000000" stroke-width="2" stroke-linecap="round" stroke-miterlimit="10" x1="30.133" y1="37.066" x2="29.691" y2="38.501"/></g></g></svg>