<?xml version="1.0" encoding="iso-8859-1"?><!-- Generator: Adobe Illustrator 21.1.0, SVG Export Plug-In . SVG Version: 6.00 Build 0)  --><svg xmlns="http://www.w3.org/2000/svg" xmlns:xlink="http://www.w3.org/1999/xlink" viewBox="0 0 50 50" width="500px" height="500px"><path style="fill:none;stroke:#000000;stroke-width:2;stroke-linecap:round;stroke-linejoin:round;stroke-miterlimit:10;" d="M21.92,15.2c-0.3-0.1-0.6-0.2-1-0.2c-1.4,0-2.5,1.1-2.5,2.5s1.1,2.5,2.5,2.5c0.4,0,0.7-0.1,1-0.2"/><path style="fill:none;stroke:#000000;stroke-width:2;stroke-linecap:round;stroke-linejoin:round;stroke-miterlimit:10;" d="M19.42,29.343C18.963,29.114,18.391,29,17.82,29c-2.171,0-4,1.829-4,4s1.829,4,4,4c0.571,0,1.143-0.114,1.6-0.343"/><path style="fill:none;stroke:#000000;stroke-width:2;stroke-linecap:round;stroke-linejoin:round;stroke-miterlimit:10;" d="M47,20.93C45.13,10.7,36.22,3,25.44,3c-4.466,0-8.607,1.298-12.105,3.566C13.387,6.87,13.42,7.181,13.42,7.5c0,3.038-2.462,5.5-5.5,5.5c-0.316,0-0.625-0.033-0.926-0.084C4.733,16.41,3.44,20.543,3.44,25c0,12.1,9.9,22,22,22C36.22,47,45.13,39.3,47,29.07c-1.1-0.99-1.76-2.42-1.76-4.07C45.24,23.35,45.9,21.92,47,20.93z"/><path d="M47,21C45.215,11.235,35.29,3,25,3c-2.424,0-5,1-6.49,2.157C26.731,8.004,32.636,15.81,32.636,25c0,9.177-5.889,16.974-14.091,19.831C20,46,22.594,47,25,47c10.29,0,20.215-8.235,22-18c-1.05-0.945-2-2.425-2-4C45,23.425,45.95,21.945,47,21z"/></svg>