<?xml version="1.0" encoding="utf-8"?><!-- Generator: Adobe Illustrator 15.0.0, SVG Export Plug-In . SVG Version: 6.00 Build 0)  --><!DOCTYPE svg PUBLIC "-//W3C//DTD SVG 1.1//EN" "http://www.w3.org/Graphics/SVG/1.1/DTD/svg11.dtd"><svg xmlns="http://www.w3.org/2000/svg" xmlns:xlink="http://www.w3.org/1999/xlink" viewBox="0 0 50 50" width="500px" height="500px"><path d="M16.829,49c-0.393,0-0.765-0.232-0.924-0.617l-1.656-4c-0.211-0.511,0.031-1.096,0.542-1.307c0.508-0.211,1.095,0.031,1.306,0.541l1.656,4c0.211,0.511-0.031,1.096-0.542,1.307C17.085,48.976,16.956,49,16.829,49z"/><path d="M14,47.828c-0.393,0-0.765-0.232-0.924-0.617c-0.211-0.511,0.031-1.096,0.542-1.307l4-1.656c0.509-0.212,1.095,0.031,1.306,0.541c0.211,0.511-0.031,1.096-0.542,1.307l-4,1.656C14.257,47.804,14.128,47.828,14,47.828z"/><path d="M9.829,41c-0.393,0-0.765-0.232-0.924-0.617l-1.656-4c-0.211-0.511,0.031-1.096,0.542-1.307c0.509-0.213,1.095,0.031,1.306,0.541l1.656,4c0.211,0.511-0.031,1.096-0.542,1.307C10.085,40.976,9.956,41,9.829,41z"/><path d="M7,39.828c-0.393,0-0.765-0.232-0.924-0.617c-0.211-0.511,0.031-1.096,0.542-1.307l4-1.656c0.51-0.211,1.095,0.031,1.306,0.541c0.211,0.511-0.031,1.096-0.542,1.307l-4,1.656C7.257,39.804,7.128,39.828,7,39.828z"/><path d="M26.828,45c-0.393,0-0.765-0.232-0.924-0.617l-1.656-4c-0.211-0.511,0.031-1.096,0.542-1.307c0.508-0.212,1.095,0.031,1.306,0.541l1.656,4c0.211,0.511-0.031,1.096-0.541,1.307C27.086,44.976,26.956,45,26.828,45z"/><path d="M24,43.828c-0.393,0-0.765-0.232-0.924-0.617c-0.211-0.511,0.031-1.096,0.542-1.307l4-1.656c0.509-0.21,1.096,0.031,1.307,0.541c0.211,0.511-0.031,1.096-0.541,1.307l-4,1.656C24.257,43.804,24.128,43.828,24,43.828z"/><path d="M36.828,49c-0.393,0-0.765-0.232-0.924-0.617l-1.656-4c-0.211-0.511,0.031-1.096,0.541-1.307c0.509-0.211,1.096,0.031,1.307,0.541l1.656,4c0.211,0.511-0.031,1.096-0.541,1.307C37.086,48.976,36.956,49,36.828,49z"/><path d="M34,47.828c-0.393,0-0.765-0.232-0.924-0.617c-0.211-0.511,0.031-1.096,0.541-1.307l4-1.656c0.51-0.211,1.096,0.031,1.307,0.541c0.211,0.511-0.031,1.096-0.541,1.307l-4,1.656C34.258,47.804,34.128,47.828,34,47.828z"/><path d="M41.828,40c-0.393,0-0.765-0.232-0.924-0.617l-1.656-4c-0.211-0.511,0.031-1.096,0.541-1.307c0.51-0.21,1.096,0.031,1.307,0.541l1.656,4c0.211,0.511-0.031,1.096-0.541,1.307C42.086,39.976,41.956,40,41.828,40z"/><path d="M39,38.828c-0.393,0-0.765-0.232-0.924-0.617c-0.211-0.511,0.031-1.096,0.541-1.307l4-1.656c0.509-0.21,1.096,0.031,1.307,0.541c0.211,0.511-0.031,1.096-0.541,1.307l-4,1.656C39.258,38.804,39.128,38.828,39,38.828z"/><path d="M36,12c-1.178,0-2.322,0.203-3.415,0.603C31.318,8.13,27.26,5,22.5,5C16.71,5,12,9.71,12,15.5c0,0.165,0.004,0.331,0.014,0.5c-0.004,0-0.009,0-0.014,0c-4.411,0-8,3.589-8,8s3.589,8,8,8h10.5c-0.552,0-1-0.447-1-1s0.448-1,1-1H23v-3.268l-2.829,1.633l0.25,0.434c0.276,0.479,0.112,1.09-0.366,1.366c-0.158,0.091-0.33,0.134-0.499,0.134c-0.346,0-0.682-0.18-0.867-0.5l-0.25-0.434l-0.867,0.501C17.414,29.957,17.242,30,17.073,30c-0.346,0-0.682-0.18-0.867-0.5c-0.276-0.479-0.112-1.09,0.366-1.366l0.867-0.501l-0.25-0.433c-0.276-0.479-0.112-1.09,0.366-1.366c0.479-0.277,1.089-0.113,1.366,0.366l0.25,0.433L22,25l-2.83-1.634l-0.249,0.432c-0.186,0.321-0.521,0.5-0.867,0.5c-0.169,0-0.342-0.043-0.499-0.134c-0.479-0.276-0.642-0.888-0.366-1.366l0.249-0.432l-0.866-0.5c-0.478-0.276-0.642-0.888-0.366-1.366s0.886-0.644,1.366-0.366l0.867,0.5l0.25-0.434c0.276-0.479,0.888-0.643,1.366-0.366c0.479,0.276,0.642,0.888,0.366,1.366l-0.25,0.434L23,23.268V20h-0.5c-0.552,0-1-0.448-1-1s0.448-1,1-1H23v-1c0-0.552,0.448-1,1-1s1,0.448,1,1v1h0.5c0.553,0,1,0.448,1,1s-0.447,1-1,1H25v3.269l2.83-1.634L27.579,21.2c-0.276-0.478-0.112-1.09,0.366-1.366c0.477-0.275,1.09-0.112,1.366,0.366l0.251,0.435l0.867-0.501c0.477-0.276,1.089-0.112,1.366,0.366c0.276,0.479,0.112,1.09-0.366,1.366l-0.867,0.5l0.249,0.431c0.276,0.478,0.112,1.09-0.366,1.366c-0.157,0.091-0.329,0.134-0.499,0.134c-0.346,0-0.682-0.179-0.867-0.5l-0.249-0.431L26.001,25l2.828,1.633l0.25-0.433c0.276-0.479,0.888-0.643,1.366-0.366s0.643,0.888,0.366,1.366l-0.25,0.433l0.868,0.501c0.479,0.276,0.643,0.888,0.366,1.366c-0.186,0.32-0.521,0.5-0.867,0.5c-0.17,0-0.342-0.043-0.499-0.134l-0.868-0.501l-0.25,0.434c-0.186,0.32-0.521,0.5-0.867,0.5c-0.17,0-0.342-0.043-0.499-0.134c-0.479-0.276-0.643-0.888-0.366-1.366l0.25-0.434L25,26.731V30h0.5c0.553,0,1,0.447,1,1s-0.447,1-1,1H36c5.514,0,10-4.486,10-10C46,16.486,41.514,12,36,12z"/><path d="M23,32v1c0,0.553,0.448,1,1,1s1-0.447,1-1v-1H23z"/></svg>