<?xml version="1.0" encoding="iso-8859-1"?><!-- Generator: Adobe Illustrator 22.1.0, SVG Export Plug-In . SVG Version: 6.00 Build 0)  --><svg xmlns="http://www.w3.org/2000/svg" xmlns:xlink="http://www.w3.org/1999/xlink" viewBox="0 0 50 50" width="500px" height="500px"><line style="fill:none;stroke:#000000;stroke-width:2;stroke-linecap:round;stroke-miterlimit:10;" x1="46" y1="4" x2="4" y2="46"/><line style="fill:none;stroke:#000000;stroke-width:2;stroke-linecap:round;stroke-linejoin:round;stroke-miterlimit:10;" x1="22" y1="43" x2="22" y2="47"/><line style="fill:none;stroke:#000000;stroke-width:2;stroke-linecap:round;stroke-linejoin:round;stroke-miterlimit:10;" x1="20" y1="45" x2="24" y2="45"/><line style="fill:none;stroke:#000000;stroke-width:2;stroke-linecap:round;stroke-linejoin:round;stroke-miterlimit:10;" x1="45" y1="17" x2="45" y2="21"/><line style="fill:none;stroke:#000000;stroke-width:2;stroke-linecap:round;stroke-linejoin:round;stroke-miterlimit:10;" x1="43" y1="19" x2="47" y2="19"/><path d="M15.278,27.651L27.649,15.28c-0.361-0.587-0.786-1.14-1.285-1.639c-3.509-3.51-9.218-3.51-12.728,0C11.936,15.34,11,17.601,11,20.005c0,2.403,0.936,4.664,2.636,6.363C14.141,26.873,14.695,27.294,15.278,27.651z"/><line style="fill:none;stroke:#000000;stroke-width:2;stroke-linecap:round;stroke-linejoin:round;stroke-miterlimit:10;" x1="20" y1="3" x2="20" y2="8"/><line style="fill:none;stroke:#000000;stroke-width:2;stroke-linecap:round;stroke-linejoin:round;stroke-miterlimit:10;" x1="7.979" y1="7.979" x2="11.515" y2="11.515"/><line style="fill:none;stroke:#000000;stroke-width:2;stroke-linecap:round;stroke-linejoin:round;stroke-miterlimit:10;" x1="3" y1="20" x2="8" y2="20"/><line style="fill:none;stroke:#000000;stroke-width:2;stroke-linecap:round;stroke-linejoin:round;stroke-miterlimit:10;" x1="7.979" y1="32.021" x2="11.515" y2="28.485"/><line style="fill:none;stroke:#000000;stroke-width:2;stroke-linecap:round;stroke-linejoin:round;stroke-miterlimit:10;" x1="32.021" y1="7.979" x2="28.485" y2="11.515"/><path d="M40.986,37.98c-3.131-0.241-5.726-2.836-5.966-5.966c-0.219-2.846,1.398-5.336,3.789-6.425c0.249-0.114,0.199-0.481-0.073-0.514c-1.532-0.186-3.165-0.042-4.862,0.598c-3.677,1.387-6.383,4.739-6.809,8.646c-0.734,6.726,4.89,12.35,11.616,11.616c3.907-0.426,7.259-3.132,8.646-6.809c0.64-1.697,0.783-3.33,0.598-4.862c-0.033-0.272-0.4-0.322-0.514-0.073C46.323,36.582,43.832,38.199,40.986,37.98z"/></svg>