<?xml version="1.0" encoding="utf-8"?><!-- Generator: Adobe Illustrator 15.0.0, SVG Export Plug-In . SVG Version: 6.00 Build 0)  --><!DOCTYPE svg PUBLIC "-//W3C//DTD SVG 1.1//EN" "http://www.w3.org/Graphics/SVG/1.1/DTD/svg11.dtd"><svg xmlns="http://www.w3.org/2000/svg" xmlns:xlink="http://www.w3.org/1999/xlink" viewBox="0 0 50 50" width="500px" height="500px"><path d="M27,44c-0.256,0-0.512-0.098-0.707-0.293c-0.391-0.391-0.391-1.023,0-1.414l6-6c0.391-0.391,1.023-0.391,1.414,0s0.391,1.023,0,1.414l-6,6C27.512,43.902,27.256,44,27,44z"/><path d="M7,44c-0.256,0-0.512-0.098-0.707-0.293c-0.391-0.391-0.391-1.023,0-1.414l6-6c0.391-0.391,1.023-0.391,1.414,0s0.391,1.023,0,1.414l-6,6C7.512,43.902,7.256,44,7,44z"/><path d="M18,43c-0.256,0-0.512-0.098-0.707-0.293c-0.391-0.391-0.391-1.023,0-1.414l7-7c0.391-0.391,1.023-0.391,1.414,0s0.391,1.023,0,1.414l-7,7C18.512,42.902,18.256,43,18,43z"/><path d="M36,32H12c-4.411,0-8-3.589-8-8s3.589-8,8-8c0.004,0,0.009,0,0.014,0C12.004,15.831,12,15.665,12,15.5C12,9.71,16.71,5,22.5,5c4.76,0,8.818,3.13,10.085,7.603C33.678,12.203,34.822,12,36,12c5.514,0,10,4.486,10,10C46,27.514,41.514,32,36,32z"/></svg>