<?xml version="1.0" encoding="utf-8"?><!-- Generator: Adobe Illustrator 15.0.0, SVG Export Plug-In . SVG Version: 6.00 Build 0)  --><!DOCTYPE svg PUBLIC "-//W3C//DTD SVG 1.1//EN" "http://www.w3.org/Graphics/SVG/1.1/DTD/svg11.dtd"><svg xmlns="http://www.w3.org/2000/svg" xmlns:xlink="http://www.w3.org/1999/xlink" viewBox="0 0 50 50" width="500px" height="500px"><path d="M36,32H12c-4.411,0-8-3.589-8-8s3.589-8,8-8c0.004,0,0.009,0,0.014,0C12.004,15.831,12,15.665,12,15.5C12,9.71,16.71,5,22.5,5c4.76,0,8.818,3.129,10.086,7.603C33.679,12.202,34.822,12,36,12c5.514,0,10,4.486,10,10C46,27.514,41.514,32,36,32z"/><g><g><line fill="none" stroke="#000000" stroke-width="2" stroke-linecap="round" stroke-miterlimit="10" x1="12" y1="31" x2="11.706" y2="31.956"/><line fill="none" stroke="#000000" stroke-width="2" stroke-linecap="round" stroke-miterlimit="10" stroke-dasharray="2.3203,4.6406" x1="10.341" y1="36.391" x2="8.976" y2="40.827"/><line fill="none" stroke="#000000" stroke-width="2" stroke-linecap="round" stroke-miterlimit="10" x1="8.294" y1="43.044" x2="8" y2="44"/></g></g><g><g><line fill="none" stroke="#000000" stroke-width="2" stroke-linecap="round" stroke-miterlimit="10" x1="22" y1="31" x2="21.706" y2="31.956"/><line fill="none" stroke="#000000" stroke-width="2" stroke-linecap="round" stroke-miterlimit="10" stroke-dasharray="2.3203,4.6406" x1="20.341" y1="36.391" x2="18.976" y2="40.827"/><line fill="none" stroke="#000000" stroke-width="2" stroke-linecap="round" stroke-miterlimit="10" x1="18.294" y1="43.044" x2="18" y2="44"/></g></g><g><g><line fill="none" stroke="#000000" stroke-width="2" stroke-linecap="round" stroke-miterlimit="10" x1="32" y1="31" x2="31.706" y2="31.956"/><line fill="none" stroke="#000000" stroke-width="2" stroke-linecap="round" stroke-miterlimit="10" stroke-dasharray="2.3203,4.6406" x1="30.341" y1="36.391" x2="28.977" y2="40.827"/><line fill="none" stroke="#000000" stroke-width="2" stroke-linecap="round" stroke-miterlimit="10" x1="28.294" y1="43.044" x2="28" y2="44"/></g></g><g><g><line fill="none" stroke="#000000" stroke-width="2" stroke-linecap="round" stroke-miterlimit="10" x1="37" y1="31" x2="36.706" y2="31.956"/><line fill="none" stroke="#000000" stroke-width="2" stroke-linecap="round" stroke-miterlimit="10" stroke-dasharray="1.5394,3.0788" x1="35.8" y1="34.898" x2="34.895" y2="37.841"/><line fill="none" stroke="#000000" stroke-width="2" stroke-linecap="round" stroke-miterlimit="10" x1="34.441" y1="39.313" x2="34.148" y2="40.268"/></g></g><g><g><line fill="none" stroke="#000000" stroke-width="2" stroke-linecap="round" stroke-miterlimit="10" x1="27" y1="31" x2="26.706" y2="31.956"/><line fill="none" stroke="#000000" stroke-width="2" stroke-linecap="round" stroke-miterlimit="10" stroke-dasharray="1.5394,3.0788" x1="25.8" y1="34.898" x2="24.895" y2="37.841"/><line fill="none" stroke="#000000" stroke-width="2" stroke-linecap="round" stroke-miterlimit="10" x1="24.442" y1="39.313" x2="24.148" y2="40.268"/></g></g><g><g><line fill="none" stroke="#000000" stroke-width="2" stroke-linecap="round" stroke-miterlimit="10" x1="17" y1="31" x2="16.706" y2="31.956"/><line fill="none" stroke="#000000" stroke-width="2" stroke-linecap="round" stroke-miterlimit="10" stroke-dasharray="1.5394,3.0788" x1="15.8" y1="34.898" x2="14.895" y2="37.841"/><line fill="none" stroke="#000000" stroke-width="2" stroke-linecap="round" stroke-miterlimit="10" x1="14.442" y1="39.313" x2="14.148" y2="40.268"/></g></g></svg>