<?xml version="1.0" encoding="iso-8859-1"?><!-- Generator: Adobe Illustrator 22.0.1, SVG Export Plug-In . SVG Version: 6.00 Build 0)  --><svg xmlns="http://www.w3.org/2000/svg" xmlns:xlink="http://www.w3.org/1999/xlink" viewBox="0 0 50 50" width="500px" height="500px"><line style="fill:none;stroke:#000000;stroke-width:4;stroke-linecap:round;stroke-miterlimit:10;" x1="9" y1="34.75" x2="9" y2="25.25"/><line style="fill:none;stroke:#000000;stroke-width:4;stroke-linecap:round;stroke-miterlimit:10;" x1="5" y1="32.293" x2="13" y2="27.707"/><line style="fill:none;stroke:#000000;stroke-width:4;stroke-linecap:round;stroke-miterlimit:10;" x1="13" y1="32.293" x2="5" y2="27.707"/><line style="fill:none;stroke:#000000;stroke-width:4;stroke-linecap:round;stroke-miterlimit:10;" x1="20" y1="46.75" x2="20" y2="37.25"/><line style="fill:none;stroke:#000000;stroke-width:4;stroke-linecap:round;stroke-miterlimit:10;" x1="16" y1="44.293" x2="24" y2="39.707"/><line style="fill:none;stroke:#000000;stroke-width:4;stroke-linecap:round;stroke-miterlimit:10;" x1="24" y1="44.293" x2="16" y2="39.707"/><line style="fill:none;stroke:#000000;stroke-width:4;stroke-linecap:round;stroke-miterlimit:10;" x1="35.242" y1="45" x2="32.758" y2="39"/><line style="fill:none;stroke:#000000;stroke-width:4;stroke-linecap:round;stroke-miterlimit:10;" x1="31" y1="43.242" x2="37" y2="40.758"/><line style="fill:none;stroke:#000000;stroke-width:4;stroke-linecap:round;stroke-miterlimit:10;" x1="43.828" y1="36" x2="42.172" y2="32"/><line style="fill:none;stroke:#000000;stroke-width:4;stroke-linecap:round;stroke-miterlimit:10;" x1="41" y1="34.828" x2="45" y2="33.172"/><path d="M37,3c0.552,0,1,0.447,1,1v1h0.5c0.552,0,1,0.447,1,1s-0.448,1-1,1H38v3.268l2.83-1.634L40.58,8.2c-0.276-0.479-0.112-1.09,0.366-1.366C41.103,6.743,41.275,6.7,41.445,6.7c0.345,0,0.681,0.179,0.867,0.501l0.251,0.434l0.867-0.5c0.158-0.091,0.33-0.134,0.5-0.134c0.345,0,0.681,0.179,0.866,0.501c0.276,0.479,0.112,1.09-0.366,1.366l-0.866,0.5l0.249,0.432c0.276,0.479,0.112,1.09-0.366,1.366c-0.157,0.091-0.33,0.134-0.499,0.134c-0.346,0-0.682-0.179-0.867-0.5l-0.249-0.431L39.001,12l2.829,1.633l0.25-0.433c0.185-0.321,0.521-0.501,0.866-0.501c0.17,0,0.342,0.043,0.5,0.134c0.479,0.276,0.642,0.888,0.366,1.366l-0.25,0.433l0.867,0.501c0.478,0.276,0.642,0.888,0.366,1.366c-0.186,0.32-0.521,0.5-0.867,0.5c-0.169,0-0.341-0.043-0.499-0.134l-0.867-0.501l-0.25,0.432c-0.186,0.321-0.521,0.5-0.867,0.5c-0.169,0-0.342-0.043-0.499-0.134c-0.479-0.276-0.642-0.888-0.366-1.366l0.25-0.433L38,13.732V17h0.5c0.552,0,1,0.447,1,1s-0.448,1-1,1H38v1c0,0.553-0.448,1-1,1s-1-0.447-1-1v-1h-0.5c-0.552,0-1-0.447-1-1s0.448-1,1-1H36v-3.268l-2.828,1.633l0.25,0.433c0.276,0.479,0.112,1.09-0.366,1.366c-0.157,0.091-0.33,0.134-0.499,0.134c-0.346,0-0.682-0.179-0.867-0.5l-0.25-0.432l-0.867,0.501C30.414,16.957,30.242,17,30.073,17c-0.346,0-0.682-0.179-0.867-0.5c-0.276-0.479-0.112-1.09,0.366-1.366l0.867-0.501l-0.25-0.433c-0.276-0.479-0.112-1.09,0.366-1.366c0.158-0.091,0.33-0.134,0.5-0.134c0.345,0,0.681,0.179,0.867,0.501l0.25,0.433L35,12l-2.83-1.634l-0.249,0.431c-0.186,0.321-0.521,0.5-0.867,0.5c-0.169,0-0.342-0.043-0.499-0.134c-0.479-0.276-0.642-0.888-0.366-1.366l0.249-0.432l-0.866-0.5C29.094,8.59,28.93,7.979,29.206,7.5C29.391,7.179,29.727,7,30.073,7c0.169,0,0.341,0.043,0.499,0.134l0.867,0.5L31.689,7.2C31.874,6.879,32.21,6.7,32.556,6.7c0.17,0,0.342,0.043,0.5,0.134c0.479,0.276,0.642,0.888,0.366,1.366l-0.251,0.434L36,10.268V7h-0.5c-0.552,0-1-0.447-1-1s0.448-1,1-1H36V4C36,3.447,36.448,3,37,3 M37,1c-1.436,0-2.64,1.014-2.932,2.365c-0.554,0.302-1.002,0.774-1.275,1.344C32.714,4.703,32.635,4.7,32.556,4.7c-0.562,0-1.103,0.159-1.568,0.444C30.692,5.049,30.384,5,30.073,5c-1.068,0-2.063,0.574-2.598,1.498c-0.719,1.246-0.441,2.797,0.582,3.725c-0.015,0.63,0.17,1.254,0.527,1.776c-0.358,0.522-0.543,1.147-0.528,1.778c-1.023,0.928-1.301,2.478-0.584,3.722c0.535,0.926,1.531,1.501,2.6,1.501c0.312,0,0.622-0.049,0.918-0.144c0.464,0.284,1.005,0.442,1.566,0.442c0.079,0,0.157-0.003,0.235-0.009c0.273,0.572,0.722,1.044,1.277,1.347C34.36,21.986,35.564,23,37,23c1.436,0,2.64-1.014,2.932-2.365c0.555-0.303,1.004-0.775,1.277-1.347c0.078,0.006,0.157,0.009,0.236,0.009c0.561,0,1.101-0.158,1.566-0.442C43.307,18.951,43.616,19,43.928,19c1.067,0,2.063-0.574,2.598-1.498c0.719-1.247,0.442-2.798-0.582-3.726c0.015-0.631-0.169-1.256-0.528-1.778c0.358-0.522,0.542-1.146,0.528-1.776c1.023-0.928,1.301-2.478,0.584-3.722c-0.534-0.926-1.53-1.502-2.598-1.502c-0.312,0-0.621,0.049-0.917,0.144C42.548,4.858,42.006,4.7,41.445,4.7c-0.079,0-0.158,0.003-0.237,0.009c-0.273-0.571-0.722-1.042-1.276-1.344C39.64,2.014,38.436,1,37,1L37,1z"/><line style="fill:none;stroke:#000000;stroke-width:4;stroke-linecap:round;stroke-miterlimit:10;" x1="17" y1="21" x2="17" y2="7"/><line style="fill:none;stroke:#000000;stroke-width:4;stroke-linecap:round;stroke-miterlimit:10;" x1="11" y1="17.5" x2="23" y2="10.5"/><line style="fill:none;stroke:#000000;stroke-width:4;stroke-linecap:round;stroke-miterlimit:10;" x1="23" y1="17.5" x2="11" y2="10.5"/></svg>