<?xml version="1.0" encoding="utf-8"?><!-- Generator: Adobe Illustrator 19.2.0, SVG Export Plug-In . SVG Version: 6.00 Build 0)  --><svg xmlns="http://www.w3.org/2000/svg" xmlns:xlink="http://www.w3.org/1999/xlink" viewBox="0 0 50 50" width="500px" height="500px"><g><polygon points="22,36 26.1,36 21,44 32.1,34 27.1,34 30.1,31 25.9,31 "/><polygon points="14.9,37 21.6,31 18.7,31 "/><path d="M36,11c-1.2,0-2.3,0.2-3.4,0.6C31.3,7.1,27.3,4,22.5,4C16.7,4,12,8.7,12,14.5c0,0.2,0,0.3,0,0.5c0,0,0,0,0,0c-4.4,0-8,3.6-8,8s3.6,8,8,8h1h5.7l1.3-2h-4l7-9h5l-7,7h5l-4.4,4h4.3l3.1-4h5.1l-4,4H35h1c5.5,0,10-4.5,10-10C46,15.5,41.5,11,36,11z"/></g></svg>