<?xml version="1.0" encoding="iso-8859-1"?><!-- Generator: Adobe Illustrator 21.1.0, SVG Export Plug-In . SVG Version: 6.00 Build 0)  --><svg xmlns="http://www.w3.org/2000/svg" xmlns:xlink="http://www.w3.org/1999/xlink" viewBox="0 0 50 50" width="500px" height="500px"><line style="fill:none;stroke:#000000;stroke-width:2;stroke-miterlimit:10;" x1="37" y1="39" x2="48" y2="39"/><line style="fill:none;stroke:#000000;stroke-width:2;stroke-miterlimit:10;" x1="37" y1="44" x2="48" y2="44"/><rect x="36" y="34" style="fill:none;stroke:#000000;stroke-width:2;stroke-miterlimit:10;" width="13" height="15"/><polyline style="fill:none;stroke:#000000;stroke-width:2;stroke-miterlimit:10;" points="12,42 8,42 8,3 38,3 38,7 "/><path d="M36,34h7V6H11v41h25V34z M30,12h8c0.552,0,1,0.448,1,1s-0.448,1-1,1h-8c-0.552,0-1-0.448-1-1S29.448,12,30,12z M30,17h8c0.552,0,1,0.448,1,1s-0.448,1-1,1h-8c-0.552,0-1-0.448-1-1S29.448,17,30,17z M18.444,16.93c0.036-0.397,0-0.674,0-1.037c-0.18-0.095-0.683-0.605-0.761-1.174c0,0-0.407-0.194-0.429-0.806c-0.012-0.324,0.216-0.554,0.216-0.554C17.045,11.73,17.229,10.04,19.409,10c0.545,0,0.955,0.263,1.118,0.55c1.517,0,1.123,2.116,0.893,2.808c0.085,0.086,0.19,0.32,0.19,0.636c0,0.453-0.429,0.724-0.429,0.724c-0.082,0.578-0.489,1.055-0.737,1.174c0,0.363-0.036,0.64,0,1.037c0.432,1.16,3.311,0.834,3.445,3.071H15C15.134,17.763,18.013,18.089,18.444,16.93z M30,41H16c-0.552,0-1-0.448-1-1s0.448-1,1-1h14c0.552,0,1,0.448,1,1S30.552,41,30,41z M15,34c0-0.552,0.448-1,1-1h11c0.552,0,1,0.448,1,1s-0.448,1-1,1H16C15.448,35,15,34.552,15,34z M30,29H16c-0.552,0-1-0.448-1-1s0.448-1,1-1h14c0.552,0,1,0.448,1,1S30.552,29,30,29z M34,28c0-0.552,0.448-1,1-1h3c0.552,0,1,0.448,1,1s-0.448,1-1,1h-3C34.448,29,34,28.552,34,28z"/></svg>