<?xml version="1.0" encoding="iso-8859-1"?><!-- Generator: Adobe Illustrator 23.0.3, SVG Export Plug-In . SVG Version: 6.00 Build 0)  --><svg xmlns="http://www.w3.org/2000/svg" xmlns:xlink="http://www.w3.org/1999/xlink" viewBox="0 0 50 50" width="500px" height="500px"><path d="M47.418,27.759c-1.108-1.758-3.442-2.285-5.192-1.183l-9.35,5.763C33.585,33.062,34,34.044,34,35.077c0,2.17-1.765,3.935-3.935,3.935c-0.306,0-0.61-0.036-0.903-0.105c-0.769-0.182-10.592-3.124-11.71-3.458c-0.529-0.159-0.829-0.716-0.671-1.245c0.159-0.529,0.717-0.829,1.245-0.671c4.366,1.308,11.059,3.301,11.598,3.429c0.143,0.034,0.291,0.051,0.441,0.051c1.067,0,1.935-0.868,1.935-1.935c0-0.689-0.358-1.308-0.957-1.656c-0.291-0.169-10.162-4.485-12.147-5.356c-3.11-1.366-6.695-1.399-9.833-0.093l-6.448,2.686C2.105,30.869,2,31.332,2,31.965C2,32.517,2,43.96,2,44.01c0,0.552,0.448,1,1,1c0.305,0,0.548-0.165,0.587-0.194l3.485-2.556c1.776-1.303,4.143-1.589,6.226-0.732l11.696,4.146c0.657,0.233,1.337,0.348,2.013,0.348c1.291,0,2.563-0.417,3.625-1.222L46.37,32.875C48.041,31.723,48.501,29.476,47.418,27.759z"/><path d="M32,19.444V17.2c0.376-0.204,2.002-1.585,2.002-2.832c0.296-0.025,0.761-0.324,0.897-1.502c0.073-0.633-0.157-1.031-0.396-1.101C35.442,8.868,34.929,5,30.857,5l-0.798-1c-5.613,0-6.879,3.437-5.584,7.745c-0.176,0.111-0.47,0.468-0.396,1.101c0.137,1.179,0.603,1.478,0.897,1.502c0,1.32,1.647,2.648,2.025,2.851v2.244c-0.81,2.259-5.841,1.841-6.952,5.256c-0.209,0.642,0.3,1.3,0.976,1.3H38c0.676,0,1.185-0.657,0.976-1.3C37.864,21.284,32.81,21.702,32,19.444z"/></svg>