<?xml version="1.0" encoding="iso-8859-1"?><!-- Generator: Adobe Illustrator 22.1.0, SVG Export Plug-In . SVG Version: 6.00 Build 0)  --><svg xmlns="http://www.w3.org/2000/svg" xmlns:xlink="http://www.w3.org/1999/xlink" viewBox="0 0 50 50" width="500px" height="500px"><path style="fill:none;stroke:#000000;stroke-width:2;stroke-linejoin:round;stroke-miterlimit:10;" d="M48,47H2V16c0-3.314,2.686-6,6-6h34c3.314,0,6,2.686,6,6V47z"/><path style="fill:none;stroke:#000000;stroke-width:2;stroke-linejoin:round;stroke-miterlimit:10;" d="M33,10H17V6c0-1.657,1.343-3,3-3h10c1.657,0,3,1.343,3,3V10z"/><path style="fill:none;stroke:#000000;stroke-width:2;stroke-linecap:round;stroke-linejoin:round;stroke-miterlimit:10;" d="M25.95,17C21.539,17,19,19,19,22.625c0,0.781,0.197,1.58,0.537,2.35c-0.205,0.127-0.544,0.532-0.459,1.251c0.158,1.34,0.697,1.679,1.039,1.707C20.125,29.5,21.564,31.268,22,31.5v2c-1.043,2.854-7,1.5-7,6.5h20c0-5-5.957-3.646-7-6.5v-2c0.436-0.232,1.875-2,1.922-3.567c0.342-0.028,0.881-0.367,1.039-1.707c0.085-0.719-0.254-1.124-0.459-1.251C30.86,24.164,31,23.37,31,22.625c0-3-2.442-4.625-4-4.625h-0.5L25.95,17z"/></svg>