<?xml version="1.0" encoding="iso-8859-1"?><!-- Generator: Adobe Illustrator 23.0.3, SVG Export Plug-In . SVG Version: 6.00 Build 0)  --><svg xmlns="http://www.w3.org/2000/svg" xmlns:xlink="http://www.w3.org/1999/xlink" viewBox="0 0 50 50" width="500px" height="500px"><path style="fill:none;stroke:#000000;stroke-width:2;stroke-linecap:round;stroke-linejoin:round;stroke-miterlimit:10;" d="M2.996,43.989l3.485-2.556c2.069-1.518,4.779-1.847,7.151-0.868l11.696,4.147c1.59,0.564,3.356,0.29,4.7-0.729l15.774-11.951c1.223-0.844,1.563-2.502,0.77-3.759l0,0c-0.816-1.294-2.527-1.681-3.821-0.865l-11.486,7.078"/><path style="fill:none;stroke:#000000;stroke-width:2;stroke-linecap:round;stroke-linejoin:round;stroke-miterlimit:10;" d="M19,35.989c0,0,9.277,2.779,9.927,2.933c0.184,0.044,0.376,0.067,0.573,0.067c1.381,0,2.5-1.119,2.5-2.5c0-0.92-0.498-1.717-1.239-2.148c-0.301-0.175-1.766-0.873-2.294-1.112c-1.444-0.653-6.3-2.658-9.973-4.27c-2.878-1.263-6.145-1.294-9.046-0.085L3,31.559"/><path style="fill:none;stroke:#000000;stroke-width:2;stroke-linecap:round;stroke-linejoin:round;stroke-miterlimit:10;" d="M32,19.04c0-0.84,0-1.326,0-2.04c0.336-0.186,1.528-1.441,1.528-2.574c0.265-0.022,0.681-0.294,0.803-1.366c0.066-0.575-0.141-0.938-0.355-1.001C34.816,9.426,34.357,6,30.714,6L30,5c-5.022,0-6.155,3.125-4.996,7.041c-0.158,0.101-0.42,0.426-0.355,1.001c0.123,1.072,0.539,1.344,0.803,1.366c0,1.2,1.211,2.407,1.548,2.592c0,0.866,0,1.266,0,2.04c-0.806,2.284-5.749,1.558-6,5.96h17C37.749,20.598,32.806,21.322,32,19.04z"/></svg>