<?xml version="1.0" encoding="iso-8859-1"?><!-- Generator: Adobe Illustrator 21.1.0, SVG Export Plug-In . SVG Version: 6.00 Build 0)  --><svg xmlns="http://www.w3.org/2000/svg" xmlns:xlink="http://www.w3.org/1999/xlink" viewBox="0 0 50 50" width="500px" height="500px"><rect x="12" y="10" style="fill:none;stroke:#000000;stroke-width:2;stroke-miterlimit:10;" width="10" height="10"/><rect x="26" y="10" style="fill:none;stroke:#000000;stroke-width:2;stroke-miterlimit:10;" width="10" height="10"/><g><polygon points="32,42 11,42 11,23 37,23 37,26 35,26 35,25 13,25 13,40 30,40 "/></g><g><polygon points="36,47 6,47 6,2 42,2 42,26 40,26 40,4 8,4 8,45 34,45 "/></g><g><g><polygon style="fill:none;stroke:#000000;stroke-width:2;stroke-miterlimit:10;" points="32,38 36,38 36,29 41,29 41,38 45,38 38.5,45.48 "/></g></g></svg>