<?xml version="1.0" encoding="iso-8859-1"?><!-- Generator: Adobe Illustrator 21.1.0, SVG Export Plug-In . SVG Version: 6.00 Build 0)  --><svg xmlns="http://www.w3.org/2000/svg" xmlns:xlink="http://www.w3.org/1999/xlink" viewBox="0 0 50 50" width="500px" height="500px"><g><g><path d="M40,17.43V2H4v46h36V32.5l-1.241-3.649l-6.93-1.454L31,23.682l7.778-1.297L40,17.43z M13.444,14.93c0.036-0.397,0-0.674,0-1.037c-0.18-0.095-0.683-0.605-0.761-1.174c0,0-0.407-0.194-0.429-0.806c-0.012-0.324,0.216-0.554,0.216-0.554C12.045,9.73,12.229,8.04,14.409,8c0.545,0,0.955,0.263,1.118,0.55c1.517,0,1.123,2.116,0.893,2.808c0.085,0.086,0.19,0.32,0.19,0.636c0,0.453-0.429,0.724-0.429,0.724c-0.082,0.578-0.489,1.055-0.737,1.174c0,0.363-0.036,0.64,0,1.037c0.432,1.16,3.311,0.834,3.445,3.071H10C10.134,15.763,13.013,16.089,13.444,14.93z M25.003,38.999h-14c-0.552,0-1-0.448-1-1s0.448-1,1-1h14c0.552,0,1,0.448,1,1S25.556,38.999,25.003,38.999z M10.003,31.999c0-0.552,0.448-1,1-1h11c0.552,0,1,0.448,1,1s-0.448,1-1,1h-11C10.451,32.999,10.003,32.551,10.003,31.999z M25.003,26.999h-14c-0.552,0-1-0.448-1-1s0.448-1,1-1h14c0.552,0,1,0.448,1,1S25.556,26.999,25.003,26.999z M33.003,38.999h-3c-0.552,0-1-0.448-1-1s0.448-1,1-1h3c0.552,0,1,0.448,1,1S33.556,38.999,33.003,38.999z M33.003,30.999c0.552,0,1,0.448,1,1s-0.448,1-1,1h-3c-0.552,0-1-0.448-1-1s0.448-1,1-1H33.003z M33.003,16.999h-8c-0.552,0-1-0.448-1-1s0.448-1,1-1h8c0.552,0,1,0.448,1,1S33.556,16.999,33.003,16.999z M33.003,11.999h-8c-0.552,0-1-0.448-1-1s0.448-1,1-1h8c0.552,0,1,0.448,1,1S33.556,11.999,33.003,11.999z"/></g></g><g><g><path d="M38,35.135V29h-7v-7h7v-6.135L49.562,25.5L38,35.135z M33,27h7v3.865l6.438-5.365L40,20.135V24h-7V27z"/></g></g></svg>