<?xml version="1.0" encoding="iso-8859-1"?>
<!-- Generator: Adobe Illustrator 24.1.2, SVG Export Plug-In . SVG Version: 6.00 Build 0)  -->
<svg version="1.1" baseProfile="basic" id="Layer_1"
	 xmlns="http://www.w3.org/2000/svg" xmlns:xlink="http://www.w3.org/1999/xlink" x="0px" y="0px" viewBox="0 0 50 50"
	 xml:space="preserve">
<circle cx="39.5" cy="31.5" r="4.5"/>
<circle cx="26" cy="27" r="6"/>
<circle cx="12.5" cy="31.5" r="4.5"/>
<g>
	<path d="M36,40c0-2.761-2.239-5-5-5H21c-2.761,0-5,2.239-5,5v6h20V40z"/>
	<path d="M14,39c0-0.341,0.035-0.674,0.09-1H10c-2.757,0-5,2.243-5,5v2c0,0.553,0.447,1,1,1h8V39z"/>
	<path d="M42,38h-4.09c0.055,0.326,0.09,0.659,0.09,1v7h8c0.553,0,1-0.447,1-1v-2C47,40.243,44.757,38,42,38z"/>
</g>
<path d="M32.895,9.553C32.725,9.214,32.379,9,32,9h-2V4c0-0.553-0.447-1-1-1h-6c-0.553,0-1,0.447-1,1v5h-2
	c-0.379,0-0.725,0.214-0.895,0.553c-0.169,0.339-0.133,0.744,0.095,1.047l6,8c0.188,0.252,0.485,0.4,0.8,0.4s0.611-0.148,0.8-0.4
	l6-8C33.027,10.297,33.063,9.892,32.895,9.553z"/>
</svg>