<?xml version="1.0" encoding="iso-8859-1"?><!-- Generator: Adobe Illustrator 21.1.0, SVG Export Plug-In . SVG Version: 6.00 Build 0)  --><svg xmlns="http://www.w3.org/2000/svg" xmlns:xlink="http://www.w3.org/1999/xlink" viewBox="0 0 50 50" width="500px" height="500px"><g><polygon style="fill:none;stroke:#000000;stroke-width:2;stroke-miterlimit:10;" points="34.401,45.489 30.82,45.995 30.194,42.438 27,40.745 28.589,37.5 27,34.255 30.194,32.562 30.82,29.005 34.401,29.511 37,27 39.599,29.511 43.18,29.005 43.806,32.562 47,34.255 45.411,37.5 47,40.745 43.806,42.438 43.18,45.995 39.599,45.489 37,48 "/></g><g><g><path d="M18,8h-8v8h8V8z M27,16h8V8h-8V16z M33.929,28.51L35,28.084V22H10v20h18.661l-0.82-1.061l-0.448-6.892l3.511-3.741L33.929,28.51z M37,27.289L41,29V2H4v46h33.3l-6.099-2.715L30.207,44H8V20h29L37,27.289L37,27.289z M20,18H8V6h12V18z M25,18V6h12v12H25z"/></g></g></svg>