<?xml version="1.0" encoding="iso-8859-1"?><!-- Generator: Adobe Illustrator 21.1.0, SVG Export Plug-In . SVG Version: 6.00 Build 0)  --><svg xmlns="http://www.w3.org/2000/svg" xmlns:xlink="http://www.w3.org/1999/xlink" viewBox="0 0 50 50" width="500px" height="500px"><line style="fill:none;stroke:#000000;stroke-width:2;stroke-miterlimit:10;" x1="37" y1="39" x2="48" y2="39"/><line style="fill:none;stroke:#000000;stroke-width:2;stroke-miterlimit:10;" x1="37" y1="44" x2="48" y2="44"/><rect x="36" y="34" style="fill:none;stroke:#000000;stroke-width:2;stroke-miterlimit:10;" width="13" height="15"/><polyline style="fill:none;stroke:#000000;stroke-width:2;stroke-miterlimit:10;" points="33,46 12,46 12,7 42,7 42,31.091 "/><polyline style="fill:none;stroke:#000000;stroke-width:2;stroke-miterlimit:10;" points="12,42 8,42 8,3 38,3 38,7 "/><path d="M21.555,17.929c-0.036-0.397,0-0.674,0-1.037c0.248-0.119,0.655-0.596,0.737-1.174c0,0,0.429-0.271,0.429-0.724c0-0.316-0.105-0.55-0.19-0.636c0.23-0.692,0.624-2.808-0.893-2.808C21.475,11.263,21.065,11,20.52,11c-2.18,0.04-2.364,1.73-1.939,3.359c0,0-0.228,0.23-0.216,0.554c0.022,0.612,0.429,0.806,0.429,0.806c0.078,0.569,0.581,1.079,0.761,1.174c0,0.363,0.036,0.64,0,1.037c-0.431,1.159-3.31,0.833-3.444,3.07H25C24.866,18.763,21.987,19.089,21.555,17.929z"/><line style="fill:none;stroke:#000000;stroke-width:2;stroke-linecap:round;stroke-linejoin:round;stroke-miterlimit:10;" x1="30" y1="14" x2="37" y2="14"/><line style="fill:none;stroke:#000000;stroke-width:2;stroke-linecap:round;stroke-linejoin:round;stroke-miterlimit:10;" x1="30" y1="19" x2="37" y2="19"/><line style="fill:none;stroke:#000000;stroke-width:2;stroke-linecap:round;stroke-linejoin:round;stroke-miterlimit:10;" x1="17" y1="28" x2="30" y2="28"/><line style="fill:none;stroke:#000000;stroke-width:2;stroke-linecap:round;stroke-linejoin:round;stroke-miterlimit:10;" x1="17" y1="34" x2="27" y2="34"/><line style="fill:none;stroke:#000000;stroke-width:2;stroke-linecap:round;stroke-linejoin:round;stroke-miterlimit:10;" x1="17" y1="40" x2="30" y2="40"/><line style="fill:none;stroke:#000000;stroke-width:2;stroke-linecap:round;stroke-linejoin:round;stroke-miterlimit:10;" x1="35" y1="28" x2="37" y2="28"/></svg>