<?xml version="1.0" encoding="iso-8859-1"?><!-- Generator: Adobe Illustrator 21.1.0, SVG Export Plug-In . SVG Version: 6.00 Build 0)  --><svg xmlns="http://www.w3.org/2000/svg" xmlns:xlink="http://www.w3.org/1999/xlink" viewBox="0 0 50 50" width="500px" height="500px"><circle cx="21" cy="25" r="1"/><g><g id="XMLID_2_"><g><polygon style="fill:none;stroke:#000000;stroke-width:2;stroke-miterlimit:10;" points="38,41 30,41 30,35 38,35 38,30.9 48,38 38,45.07 "/></g></g></g><g><g><path d="M3,2v45h34l0.474-6.402L29,40.236L29.447,36H8v-7c0.838,0.634,1.87,1,3,1h20c1.13,0,2.162-0.366,3-1v6.552l3.919,0.045L37.971,32L40,32V2H3z M34,25.084c0,1.654-1.346,3-3,3H11c-1.654,0-3-1.346-3-3V14h8v-1c0-1.654,1.346-3,3-3h4c1.654,0,3,1.346,3,3v1h8V25.084z M23,12h-4c-0.551,0-1,0.449-1,1v1h6v-1C24,12.449,23.551,12,23,12z"/></g></g></svg>