<?xml version="1.0" encoding="iso-8859-1"?><!-- Generator: Adobe Illustrator 21.1.0, SVG Export Plug-In . SVG Version: 6.00 Build 0)  --><svg xmlns="http://www.w3.org/2000/svg" xmlns:xlink="http://www.w3.org/1999/xlink" viewBox="0 0 50 50" width="500px" height="500px"><polyline style="fill:none;stroke:#000000;stroke-width:2;stroke-miterlimit:10;" points="33,47 8,47 8,3 42,3 42,31.091 "/><path d="M18.444,14.929c-0.036-0.397,0-0.674,0-1.037c0.248-0.119,0.655-0.596,0.737-1.174c0,0,0.429-0.271,0.429-0.724c0-0.316-0.105-0.55-0.19-0.636c0.23-0.692,0.624-2.808-0.893-2.808C18.364,8.263,17.954,8,17.409,8c-2.18,0.04-2.364,1.73-1.939,3.359c0,0-0.228,0.23-0.216,0.554c0.022,0.612,0.429,0.806,0.429,0.806c0.078,0.569,0.581,1.079,0.761,1.174c0,0.363,0.036,0.64,0,1.037C16.013,16.089,13.134,15.763,13,18h8.889C21.755,15.763,18.876,16.089,18.444,14.929z"/><line style="fill:none;stroke:#000000;stroke-width:2;stroke-linecap:round;stroke-linejoin:round;stroke-miterlimit:10;" x1="28" y1="11" x2="36" y2="11"/><line style="fill:none;stroke:#000000;stroke-width:2;stroke-linecap:round;stroke-linejoin:round;stroke-miterlimit:10;" x1="28" y1="16" x2="36" y2="16"/><line style="fill:none;stroke:#000000;stroke-width:2;stroke-linecap:round;stroke-linejoin:round;stroke-miterlimit:10;" x1="14" y1="26" x2="28" y2="26"/><line style="fill:none;stroke:#000000;stroke-width:2;stroke-linecap:round;stroke-linejoin:round;stroke-miterlimit:10;" x1="14" y1="32" x2="25" y2="32"/><line style="fill:none;stroke:#000000;stroke-width:2;stroke-linecap:round;stroke-linejoin:round;stroke-miterlimit:10;" x1="14" y1="38" x2="28" y2="38"/><line style="fill:none;stroke:#000000;stroke-width:2;stroke-linecap:round;stroke-linejoin:round;stroke-miterlimit:10;" x1="33" y1="26" x2="36" y2="26"/><line style="fill:none;stroke:#000000;stroke-width:2;stroke-miterlimit:10;" x1="37" y1="39" x2="48" y2="39"/><line style="fill:none;stroke:#000000;stroke-width:2;stroke-miterlimit:10;" x1="37" y1="44" x2="48" y2="44"/><rect x="36" y="34" style="fill:none;stroke:#000000;stroke-width:2;stroke-miterlimit:10;" width="13" height="15"/></svg>