<?xml version="1.0" encoding="iso-8859-1"?>
<!-- Generator: Adobe Illustrator 25.2.3, SVG Export Plug-In . SVG Version: 6.00 Build 0)  -->
<svg version="1.1" baseProfile="basic" id="fluent" xmlns="http://www.w3.org/2000/svg" xmlns:xlink="http://www.w3.org/1999/xlink"
	 x="0px" y="0px" viewBox="0 0 50 50" xml:space="preserve">
<path d="M45,8L18.044,8.006c-0.279-0.101-0.855-1.02-1.165-1.514C16.112,5.268,15.317,4,14,4H5C3.346,4,2,5.346,2,7v6h1h44h1v-2
	C48,9.346,46.654,8,45,8z"/>
<path d="M29.71,21.71c0.39-0.39,0.39-1.03,0-1.42c-0.39-0.39-1.03-0.39-1.42,0l-8,8c-0.39,0.39-0.39,1.03,0,1.42l8,8
	C28.49,37.9,28.74,38,29,38s0.51-0.1,0.71-0.29c0.39-0.39,0.39-1.03,0-1.42L23.41,30H48v13c0,1.66-1.34,3-3,3H5c-1.66,0-3-1.34-3-3
	V16c0-0.55,0.45-1,1-1h44c0.55,0,1,0.45,1,1v12H23.41L29.71,21.71z"/>
</svg>