<?xml version="1.0" encoding="iso-8859-1"?><!-- Generator: Adobe Illustrator 20.1.0, SVG Export Plug-In . SVG Version: 6.00 Build 0)  --><svg xmlns="http://www.w3.org/2000/svg" xmlns:xlink="http://www.w3.org/1999/xlink" viewBox="0 0 50 50" width="500px" height="500px"><rect x="6" y="3" transform="matrix(-1 -1.231230e-10 1.231230e-10 -1 28 50)" style="fill:none;stroke:#000000;stroke-width:2;stroke-miterlimit:10;" width="16" height="44"/><path style="fill:none;stroke:#000000;stroke-width:2;stroke-miterlimit:10;" d="M12,31h4c0.552,0,1-0.448,1-1V9c0-0.552-0.448-1-1-1h-4c-0.552,0-1,0.448-1,1v21C11,30.552,11.448,31,12,31z"/><circle style="fill:none;stroke:#000000;stroke-width:2;stroke-miterlimit:10;" cx="14" cy="39" r="3"/><rect x="28" y="3" transform="matrix(-1 -1.231230e-10 1.231230e-10 -1 72 50)" style="fill:none;stroke:#000000;stroke-width:2;stroke-miterlimit:10;" width="16" height="44"/><path style="fill:none;stroke:#000000;stroke-width:2;stroke-miterlimit:10;" d="M34,31h4c0.552,0,1-0.448,1-1V9c0-0.552-0.448-1-1-1h-4c-0.552,0-1,0.448-1,1v21C33,30.552,33.448,31,34,31z"/><circle style="fill:none;stroke:#000000;stroke-width:2;stroke-miterlimit:10;" cx="36" cy="39" r="3"/></svg>