<?xml version="1.0" encoding="iso-8859-1"?>
<!-- Generator: Adobe Illustrator 22.1.0, SVG Export Plug-In . SVG Version: 6.00 Build 0)  -->
<svg version="1.1" id="Layer_1" xmlns="http://www.w3.org/2000/svg" xmlns:xlink="http://www.w3.org/1999/xlink" x="0px" y="0px"
	 viewBox="0 0 50 50" style="enable-background:new 0 0 50 50;" xml:space="preserve">
<path d="M45,8L18.044,8.006c-0.279-0.101-0.855-1.02-1.165-1.514C16.112,5.268,15.317,4,14,4H5C3.346,4,2,5.346,2,7v6h1h44h1v-2
	C48,9.346,46.654,8,45,8z"/>
<path d="M47,15H3c-0.552,0-1,0.448-1,1v27c0,1.657,1.343,3,3,3h40c1.657,0,3-1.343,3-3V16C48,15.448,47.552,15,47,15z M33,37
	c-1.994,0-13.015,0-15.5,0S13,34.985,13,32.5c0-1.956,1.257-3.601,3-4.221v-0.216C16,26.371,17.371,25,19.063,25
	c0.909,0,1.717,0.404,2.278,1.033C22.156,23.688,24.377,22,27,22c3.314,0,6,2.686,6,6c0,0.345,0,1,0,1c2.209,0,4,1.791,4,4
	C37,35.209,35.209,37,33,37z"/>
</svg>