<?xml version="1.0" encoding="iso-8859-1"?><!-- Generator: Adobe Illustrator 19.1.0, SVG Export Plug-In . SVG Version: 6.00 Build 0)  --><svg xmlns="http://www.w3.org/2000/svg" xmlns:xlink="http://www.w3.org/1999/xlink" viewBox="0 0 50 50" width="500px" height="500px"><path d="M45,8L18.044,8.006c-0.279-0.101-0.855-1.02-1.165-1.514C16.112,5.268,15.317,4,14,4H5C3.346,4,2,5.346,2,7v6h1h44h1v-2C48,9.346,46.654,8,45,8z"/><path d="M47,15H3c-0.551,0-1,0.448-1,1v27c0,1.654,1.346,3,3,3h40c1.654,0,3-1.346,3-3V16C48,15.448,47.551,15,47,15z M33,25.455c0,1.036-1.104,0.909-1.104,0.909c-4.069,0-2.483-1.455-5.389-1.455c-0.465,0-0.506,0.164-0.506,0.873v9.909C26,37.109,25.809,40,21.856,40C17.554,40,17,38.091,17,36.782C17,34.873,18.542,33,21.856,33C24.123,33,24,32.745,24,31.545V21.036C24,20.491,24.425,20,25.356,20c3.837,0,2.471,1.818,6.54,1.818C32.593,21.818,33,22.182,33,23V25.455z"/></svg>