<?xml version="1.0" encoding="iso-8859-1"?>
<!-- Generator: Adobe Illustrator 22.1.0, SVG Export Plug-In . SVG Version: 6.00 Build 0)  -->
<svg version="1.1" id="Layer_1" xmlns="http://www.w3.org/2000/svg" xmlns:xlink="http://www.w3.org/1999/xlink" x="0px" y="0px"
	 viewBox="0 0 50 50" style="enable-background:new 0 0 50 50;" xml:space="preserve">
<path style="fill:none;stroke:#000000;stroke-width:2;stroke-linecap:round;stroke-miterlimit:10;" d="M45,9c0,0-25.648,0-27,0
	c-1.469,0-2.484-4-4-4H5C3.895,5,3,5.896,3,7v36c0,1.104,0.895,2,2,2h40c1.104,0,2-0.896,2-2V11C47,9.896,46.104,9,45,9z"/>
<path style="fill:none;stroke:#000000;stroke-width:2;stroke-linecap:round;stroke-miterlimit:10;" d="M47,26V16
	c0-1.105-0.895-2-2-2H5c-1.105,0-2,0.895-2,2v10"/>
<path style="fill:none;stroke:#000000;stroke-width:2;stroke-linecap:round;stroke-miterlimit:10;" d="M33,29c0,0,0-0.655,0-1
	c0-3.314-2.686-6-6-6c-2.623,0-4.844,1.688-5.659,4.033C20.78,25.404,19.972,25,19.063,25C17.371,25,16,26.371,16,28.063v0.216
	c-1.743,0.62-3,2.265-3,4.221c0,2.485,2.015,4.5,4.5,4.5s13.506,0,15.5,0c2.209,0,4-1.791,4-4C37,30.791,35.209,29,33,29z"/>
</svg>