<?xml version="1.0" encoding="iso-8859-1"?><!-- Generator: Adobe Illustrator 21.1.0, SVG Export Plug-In . SVG Version: 6.00 Build 0)  --><svg xmlns="http://www.w3.org/2000/svg" xmlns:xlink="http://www.w3.org/1999/xlink" viewBox="0 0 50 50" width="500px" height="500px"><path d="M45,7L18.044,7.006c-0.279-0.101-0.855-1.02-1.165-1.514C16.112,4.268,15.317,3,14,3H5C3.346,3,2,4.346,2,6v6h1h44h1v-2C48,8.346,46.654,7,45,7z"/><path d="M44.2,37.2L41.4,40l2.8,2.8c0.4,0.4,0.4,1,0,1.4c-0.2,0.2-0.5,0.3-0.7,0.3s-0.5-0.1-0.7-0.3L40,41.4l-2.8,2.8c-0.2,0.2-0.5,0.3-0.7,0.3s-0.5-0.1-0.7-0.3c-0.4-0.4-0.4-1,0-1.4l2.8-2.8l-2.8-2.8c-0.4-0.4-0.4-1,0-1.4s1-0.4,1.4,0l2.8,2.8l2.8-2.8c0.4-0.4,1-0.4,1.4,0C44.6,36.2,44.6,36.8,44.2,37.2z M50,40c0,5.5-4.5,10-10,10s-10-4.5-10-10s4.5-10,10-10S50,34.5,50,40z M48,40c0-4.4-3.6-8-8-8s-8,3.6-8,8s3.6,8,8,8S48,44.4,48,40z"/><path d="M31,40c0-4.971,4.029-9,9-9c3.488,0,6.506,1.988,8,4.889V15c0-0.552-0.449-1-1-1H3c-0.551,0-1,0.448-1,1v27c0,1.654,1.346,3,3,3h27.518C31.56,43.57,31,41.851,31,40z"/></svg>