<?xml version="1.0" encoding="iso-8859-1"?>
<!-- Generator: Adobe Illustrator 23.0.6, SVG Export Plug-In . SVG Version: 6.00 Build 0)  -->
<svg version="1.1" id="Line" xmlns="http://www.w3.org/2000/svg" xmlns:xlink="http://www.w3.org/1999/xlink" x="0px" y="0px"
	 viewBox="0 0 50 50" style="enable-background:new 0 0 50 50;" xml:space="preserve">
<path style="fill:none;stroke:#000000;stroke-width:2;stroke-linejoin:round;stroke-miterlimit:10;" d="M25,36V24 M30.196,33
	l-10.392-6 M19.804,33l10.392-6"/>
<path style="fill:none;stroke:#000000;stroke-width:2;stroke-linecap:round;stroke-miterlimit:10;" d="M45,9c0,0-25.648,0-27,0
	c-1.469,0-2.484-4-4-4H5C3.895,5,3,5.896,3,7v36c0,1.104,0.895,2,2,2h40c1.104,0,2-0.896,2-2V11C47,9.896,46.104,9,45,9z"/>
<path style="fill:none;stroke:#000000;stroke-width:2;stroke-linecap:round;stroke-miterlimit:10;" d="M47,26V16
	c0-1.105-0.895-2-2-2H5c-1.105,0-2,0.895-2,2v10"/>
<g id="IOS_copy_10_">
	<path d="M35,30c0,5.5-4.5,10-10,10s-10-4.5-10-10s4.5-10,10-10S35,24.5,35,30z M33,30c0-4.4-3.6-8-8-8s-8,3.6-8,8s3.6,8,8,8
		S33,34.4,33,30z"/>
</g>
</svg>