<?xml version="1.0" encoding="iso-8859-1"?>
<!-- Generator: Adobe Illustrator 24.0.3, SVG Export Plug-In . SVG Version: 6.00 Build 0)  -->
<svg version="1.1" id="Layer_1" xmlns="http://www.w3.org/2000/svg" xmlns:xlink="http://www.w3.org/1999/xlink" x="0px" y="0px"
	 viewBox="0 0 50 50" style="enable-background:new 0 0 50 50;" xml:space="preserve">
<g>
</g>
<path d="M47,15H3c-0.55,0-1,0.45-1,1v27c0,1.66,1.34,3,3,3h40c1.66,0,3-1.34,3-3V16C48,15.45,47.55,15,47,15z M20.54,38.12
	c0.39,0.39,0.39,1.03,0,1.42c-0.2,0.19-0.46,0.29-0.71,0.29c-0.26,0-0.51-0.1-0.71-0.29L17,37.42l-2.12,2.12
	c-0.2,0.19-0.45,0.29-0.71,0.29c-0.25,0-0.51-0.1-0.71-0.29c-0.39-0.39-0.39-1.03,0-1.42L15.58,36l-2.12-2.12
	c-0.39-0.39-0.39-1.03,0-1.42c0.4-0.39,1.03-0.39,1.42,0L17,34.58l2.12-2.12c0.39-0.39,1.02-0.39,1.42,0c0.39,0.39,0.39,1.03,0,1.42
	L18.42,36L20.54,38.12z M21,24h-3v3c0,0.55-0.45,1-1,1s-1-0.45-1-1v-3h-3c-0.55,0-1-0.45-1-1s0.45-1,1-1h3v-3c0-0.55,0.45-1,1-1
	s1,0.45,1,1v3h3c0.55,0,1,0.45,1,1S21.55,24,21,24z M37,39h-8c-0.55,0-1-0.45-1-1s0.45-1,1-1h8c0.55,0,1,0.45,1,1S37.55,39,37,39z
	 M37,35h-8c-0.55,0-1-0.45-1-1s0.45-1,1-1h8c0.55,0,1,0.45,1,1S37.55,35,37,35z M37,24h-8c-0.55,0-1-0.45-1-1s0.45-1,1-1h8
	c0.55,0,1,0.45,1,1S37.55,24,37,24z M45,8L18.04,8.01c-0.27-0.11-0.85-1.02-1.16-1.52C16.11,5.27,15.32,4,14,4H5C3.35,4,2,5.35,2,7
	v6h46v-2C48,9.35,46.65,8,45,8z"/>
</svg>