<?xml version="1.0" encoding="iso-8859-1"?><!-- Generator: Adobe Illustrator 20.1.0, SVG Export Plug-In . SVG Version: 6.00 Build 0)  --><svg xmlns="http://www.w3.org/2000/svg" xmlns:xlink="http://www.w3.org/1999/xlink" viewBox="0 0 50 50" width="500px" height="500px"><circle cx="14" cy="39" r="2"/><path d="M5,2v46h18V2H5z M11,9c0-0.552,0.448-1,1-1h4c0.552,0,1,0.448,1,1v21c0,0.552-0.448,1-1,1h-4c-0.552,0-1-0.448-1-1V9z M14,43c-2.206,0-4-1.794-4-4s1.794-4,4-4s4,1.794,4,4S16.206,43,14,43z"/><circle cx="36" cy="39" r="2"/><path d="M27,2v46h18V2H27z M33,9c0-0.552,0.448-1,1-1h4c0.552,0,1,0.448,1,1v21c0,0.552-0.448,1-1,1h-4c-0.552,0-1-0.448-1-1V9z M36,43c-2.206,0-4-1.794-4-4s1.794-4,4-4s4,1.794,4,4S38.206,43,36,43z"/></svg>