<?xml version="1.0" encoding="iso-8859-1"?><!-- Generator: Adobe Illustrator 19.1.0, SVG Export Plug-In . SVG Version: 6.00 Build 0)  --><svg xmlns="http://www.w3.org/2000/svg" xmlns:xlink="http://www.w3.org/1999/xlink" viewBox="0 0 50 50" width="500px" height="500px"><path style="fill:none;stroke:#000000;stroke-width:2;stroke-linecap:round;stroke-miterlimit:10;" d="M47,11c0-1.105-0.895-2-2-2H18c-1.469,0-2.484-4-4-4H5C3.895,5,3,5.895,3,7v36c0,1.105,0.895,2,2,2h40c1.105,0,2-0.895,2-2V11z"/><path style="fill:none;stroke:#000000;stroke-width:2;stroke-linecap:round;stroke-miterlimit:10;" d="M47,26V16c0-1.105-0.895-2-2-2H5c-1.105,0-2,0.895-2,2v10"/><polyline style="fill:none;stroke:#000000;stroke-width:2;stroke-linecap:round;stroke-miterlimit:10;" points="32.471,26 26,26 26,19.545 "/><polygon style="fill:none;stroke:#000000;stroke-width:2;stroke-linecap:round;stroke-miterlimit:10;" points="33,40 17,40 17,19 26.778,19 33,25.391 "/></svg>