<?xml version="1.0" encoding="utf-8"?><!-- Generator: Adobe Illustrator 18.1.1, SVG Export Plug-In . SVG Version: 6.00 Build 0)  --><svg xmlns="http://www.w3.org/2000/svg" xmlns:xlink="http://www.w3.org/1999/xlink" viewBox="0 0 50 50" width="500px" height="500px"><path fill="none" stroke="#000000" stroke-width="2" stroke-linejoin="round" stroke-miterlimit="10" d="M29,29h-8c-0.6,0-1-0.4-1-1v-6c0-0.6,0.4-1,1-1h8c0.6,0,1,0.4,1,1v6C30,28.6,29.6,29,29,29z"/><path fill="none" stroke="#000000" stroke-width="2" stroke-linejoin="round" stroke-miterlimit="10" d="M29,16h-8c-0.6,0-1-0.4-1-1V9c0-0.6,0.4-1,1-1h8c0.6,0,1,0.4,1,1v6C30,15.6,29.6,16,29,16z"/><path fill="none" stroke="#000000" stroke-width="2" stroke-linejoin="round" stroke-miterlimit="10" d="M29,42h-8c-0.6,0-1-0.4-1-1v-6c0-0.6,0.4-1,1-1h8c0.6,0,1,0.4,1,1v6C30,41.6,29.6,42,29,42z"/><path fill="none" stroke="#000000" stroke-width="2" stroke-linejoin="round" stroke-miterlimit="10" d="M14,29H6c-0.6,0-1-0.4-1-1v-6c0-0.6,0.4-1,1-1h8c0.6,0,1,0.4,1,1v6C15,28.6,14.6,29,14,29z"/><path fill="none" stroke="#000000" stroke-width="2" stroke-linejoin="round" stroke-miterlimit="10" d="M14,16H6c-0.6,0-1-0.4-1-1V9c0-0.6,0.4-1,1-1h8c0.6,0,1,0.4,1,1v6C15,15.6,14.6,16,14,16z"/><path fill="none" stroke="#000000" stroke-width="2" stroke-linejoin="round" stroke-miterlimit="10" d="M14,42H6c-0.6,0-1-0.4-1-1v-6c0-0.6,0.4-1,1-1h8c0.6,0,1,0.4,1,1v6C15,41.6,14.6,42,14,42z"/><path fill="none" stroke="#000000" stroke-width="2" stroke-linejoin="round" stroke-miterlimit="10" d="M44,29h-8c-0.6,0-1-0.4-1-1v-6c0-0.6,0.4-1,1-1h8c0.6,0,1,0.4,1,1v6C45,28.6,44.6,29,44,29z"/><path fill="none" stroke="#000000" stroke-width="2" stroke-linejoin="round" stroke-miterlimit="10" d="M44,16h-8c-0.6,0-1-0.4-1-1V9c0-0.6,0.4-1,1-1h8c0.6,0,1,0.4,1,1v6C45,15.6,44.6,16,44,16z"/><path fill="none" stroke="#000000" stroke-width="2" stroke-linejoin="round" stroke-miterlimit="10" d="M44,42h-8c-0.6,0-1-0.4-1-1v-6c0-0.6,0.4-1,1-1h8c0.6,0,1,0.4,1,1v6C45,41.6,44.6,42,44,42z"/></svg>