<?xml version="1.0" encoding="iso-8859-1"?><!-- Generator: Adobe Illustrator 19.1.1, SVG Export Plug-In . SVG Version: 6.00 Build 0)  --><svg xmlns="http://www.w3.org/2000/svg" xmlns:xlink="http://www.w3.org/1999/xlink" viewBox="0 0 50 50" width="500px" height="500px"><path style="fill:none;stroke:#000000;stroke-width:2;stroke-linecap:round;stroke-linejoin:round;stroke-miterlimit:10;" d="M23.727,32.096c0.906-1.7,2.661-3.267,5.273-5.096l3,3V20H22l3,3c-4.009,2.807-6,5.272-6,9c0,4.418,3.582,8,8,8h1c-3,0-5-1.938-5-5C23,33.954,23.242,33.006,23.727,32.096z"/><path style="fill:none;stroke:#000000;stroke-width:2;stroke-linecap:round;stroke-miterlimit:10;" d="M45,9c0,0-25.648,0-27,0c-1.469,0-2.484-4-4-4H5C3.895,5,3,5.896,3,7v36c0,1.104,0.895,2,2,2h40c1.104,0,2-0.896,2-2V11C47,9.896,46.104,9,45,9z"/><path style="fill:none;stroke:#000000;stroke-width:2;stroke-linecap:round;stroke-miterlimit:10;" d="M47,26V16c0-1.105-0.895-2-2-2H5c-1.105,0-2,0.895-2,2v10"/></svg>