<?xml version="1.0" encoding="iso-8859-1"?>
<!-- Generator: Adobe Illustrator 25.2.3, SVG Export Plug-In . SVG Version: 6.00 Build 0)  -->
<svg version="1.1" id="Layer_1" xmlns="http://www.w3.org/2000/svg" xmlns:xlink="http://www.w3.org/1999/xlink" x="0px" y="0px"
	 viewBox="0 0 50 50" style="enable-background:new 0 0 50 50;" xml:space="preserve">
<g>
	<path d="M45,8L18.044,8.006c-0.279-0.101-0.855-1.02-1.165-1.514C16.112,5.268,15.317,4,14,4H5C3.346,4,2,5.346,2,7v6h1h44h1v-2
		C48,9.346,46.654,8,45,8z"/>
	<path d="M47,15H3c-0.551,0-1,0.448-1,1v27c0,1.654,1.346,3,3,3h40c1.654,0,3-1.346,3-3V16C48,15.448,47.551,15,47,15z M32,35
		c0,1.105-0.895,2-2,2H11c-1.105,0-2-0.895-2-2V24c0-1.105,0.895-2,2-2h19c1.105,0,2,0.895,2,2V35z M41,37l-7-3.889v-7.222L41,22V37
		z"/>
</g>
</svg>