<?xml version="1.0" encoding="iso-8859-1"?><!-- Generator: Adobe Illustrator 19.1.0, SVG Export Plug-In . SVG Version: 6.00 Build 0)  --><svg xmlns="http://www.w3.org/2000/svg" xmlns:xlink="http://www.w3.org/1999/xlink" viewBox="0 0 50 50" width="500px" height="500px"><path style="fill:none;stroke:#000000;stroke-width:2;stroke-linecap:round;stroke-miterlimit:10;" d="M47,11c0-1.105-0.895-2-2-2H18c-1.469,0-2.484-4-4-4H5C3.895,5,3,5.895,3,7v36c0,1.105,0.895,2,2,2h40c1.105,0,2-0.895,2-2V11z"/><path style="fill:none;stroke:#000000;stroke-width:2;stroke-linecap:round;stroke-miterlimit:10;" d="M47,26V16c0-1.105-0.895-2-2-2H5c-1.105,0-2,0.895-2,2v10"/><path d="M31.896,26.364c-4.069,0-2.483-1.455-5.389-1.455c-0.465,0-0.506,0.164-0.506,0.873c0,1.364,0,8.491,0,9.909C26,37.109,25.809,40,21.856,40C17.554,40,17,38.091,17,36.782C17,34.873,18.542,33,21.856,33C24.123,33,24,32.745,24,31.545c0-4.255,0-9.855,0-10.509C24,20.491,24.425,20,25.356,20c3.837,0,2.471,1.818,6.54,1.818C32.593,21.818,33,22.182,33,23c0,0.545,0,1.091,0,2.455C33,26.491,31.896,26.364,31.896,26.364z"/></svg>