<?xml version="1.0" encoding="iso-8859-1"?><!-- Generator: Adobe Illustrator 23.0.3, SVG Export Plug-In . SVG Version: 6.00 Build 0)  --><svg xmlns="http://www.w3.org/2000/svg" xmlns:xlink="http://www.w3.org/1999/xlink" viewBox="0 0 50 50" width="500px" height="500px"><g id="surface1"><path style="fill:none;stroke:#000000;stroke-width:2;stroke-linecap:round;" d="M41.364,7.958c0,0-20.985,0-22.091,0C18.071,7.958,17.24,5,16,5H8.636C7.732,5,7,5.732,7,6.636v26.727C7,34.268,7.732,35,8.636,35h32.727C42.268,35,43,34.268,43,33.364V9.909C43,9.005,42.268,7.958,41.364,7.958z"/><path style="fill:none;stroke:#000000;stroke-width:2;stroke-linecap:round;" d="M43,21.756v-8.182c0-0.904-0.732-1.636-1.636-1.636H8.636C7.732,11.938,7,12.669,7,13.574v8.182"/></g><line style="fill:none;stroke:#000000;stroke-width:2;stroke-linecap:round;" x1="25" y1="36" x2="25" y2="41"/><line style="fill:none;stroke:#000000;stroke-width:2;stroke-linecap:round;" x1="27" y1="43" x2="38.5" y2="43"/><line style="fill:none;stroke:#000000;stroke-width:2;stroke-linecap:round;" x1="11.5" y1="43" x2="23" y2="43"/><rect x="23" y="41" style="fill:none;stroke:#000000;stroke-width:2;stroke-linecap:round;stroke-linejoin:round;" width="4" height="4"/></svg>