<?xml version="1.0" encoding="iso-8859-1"?>
<!-- Generator: Adobe Illustrator 25.2.3, SVG Export Plug-In . SVG Version: 6.00 Build 0)  -->
<svg version="1.1" id="Layer_1" xmlns="http://www.w3.org/2000/svg" xmlns:xlink="http://www.w3.org/1999/xlink" x="0px" y="0px"
	 viewBox="0 0 50 50" style="enable-background:new 0 0 50 50;" xml:space="preserve">
<path style="fill:none;stroke:#000000;stroke-width:2;stroke-linecap:round;" d="M46.999,11c0-1.105-0.895-2-2-2h-27
	c-1.469,0-2.484-4-4-4h-9c-1.105,0-2,0.895-2,2v36c0,1.105,0.895,2,2,2h40c1.105,0,2-0.895,2-2V11z"/>
<path style="fill:none;stroke:#000000;stroke-width:2;stroke-linecap:round;" d="M46.999,26V16c0-1.105-0.895-2-2-2h-40
	c-1.105,0-2,0.895-2,2v10"/>
<path style="fill:none;stroke:#000000;stroke-width:2;stroke-linecap:round;stroke-linejoin:round;" d="M30,22H11
	c-1.105,0-2,0.895-2,2v11c0,1.105,0.895,2,2,2h19c1.105,0,2-0.895,2-2V24C32,22.895,31.105,22,30,22z"/>
<polygon style="fill:none;stroke:#000000;stroke-width:2;stroke-linecap:round;stroke-linejoin:round;" points="41,22 32,27 32,32 
	41,37 "/>
</svg>