<?xml version="1.0" encoding="iso-8859-1"?><!-- Generator: Adobe Illustrator 19.1.0, SVG Export Plug-In . SVG Version: 6.00 Build 0)  --><svg xmlns="http://www.w3.org/2000/svg" xmlns:xlink="http://www.w3.org/1999/xlink" viewBox="0 0 50 50" width="500px" height="500px"><path d="M45,8L18.044,8.006c-0.279-0.101-0.855-1.02-1.165-1.514C16.112,5.268,15.317,4,14,4H5C3.346,4,2,5.346,2,7v6h1h44h1v-2C48,9.346,46.654,8,45,8z"/><g><path d="M47,15H3c-0.551,0-1,0.448-1,1v27c0,1.654,1.346,3,3,3h40c1.654,0,3-1.346,3-3V16C48,15.448,47.551,15,47,15z M38,20c1.657,0,3,1.343,3,3s-1.343,3-3,3s-3-1.343-3-3S36.343,20,38,20z M41.707,38.707C41.512,38.902,41.256,39,41,39s-0.512-0.098-0.707-0.293L33,31.414l-7.293,7.293c-0.391,0.391-1.023,0.391-1.414,0s-0.391-1.023,0-1.414l2.933-2.933L20,26.48L9.737,37.676C9.54,37.891,9.271,38,9,38c-0.241,0-0.483-0.087-0.676-0.263c-0.407-0.374-0.435-1.006-0.062-1.413l11-12c0.379-0.413,1.096-0.413,1.475,0l7.904,8.62l3.651-3.651c0.391-0.391,1.023-0.391,1.414,0l8,8C42.098,37.684,42.098,38.316,41.707,38.707z"/></g></svg>