<?xml version="1.0" encoding="iso-8859-1"?><!-- Generator: Adobe Illustrator 19.1.1, SVG Export Plug-In . SVG Version: 6.00 Build 0)  --><svg xmlns="http://www.w3.org/2000/svg" xmlns:xlink="http://www.w3.org/1999/xlink" viewBox="0 0 50 50" width="500px" height="500px"><path d="M14,18h6c0.939,0,1.836,0.448,2.4,1.2l1.8,2.4C24.388,21.851,24.687,22,25,22h23V11c0-1.654-1.346-3-3-3L18.044,8.006c-0.279-0.101-0.855-1.02-1.165-1.514C16.112,5.268,15.317,4,14,4H5C3.346,4,2,5.346,2,7v36c0,1.654,1.346,3,3,3h6V21C11,19.346,12.346,18,14,18z"/><path d="M25,24c-0.944,0-1.834-0.445-2.4-1.2l-1.8-2.4C20.611,20.148,20.315,20,20,20h-6c-0.552,0-1,0.448-1,1v24c0,0.552,0.448,1,1,1h31c1.657,0,3-1.343,3-3V25c0-0.552-0.448-1-1-1H25z"/></svg>