<?xml version="1.0" encoding="iso-8859-1"?><!-- Generator: Adobe Illustrator 22.0.0, SVG Export Plug-In . SVG Version: 6.00 Build 0)  --><svg xmlns="http://www.w3.org/2000/svg" xmlns:xlink="http://www.w3.org/1999/xlink" viewBox="0 0 50 50" width="500px" height="500px"><path d="M44.999,8L18.044,8.006c-0.279-0.101-0.855-1.02-1.165-1.514C16.112,5.268,15.317,4,14,4H5C3.346,4,2,5.346,2,7v6h1h43.999h1v-2C47.999,9.346,46.653,8,44.999,8z"/><path d="M47,15H3c-0.551,0-1,0.448-1,1v27c0,1.654,1.346,3,3,3h40c1.172,0,2.189-0.676,2.682-1.658C47.886,43.938,48,43.482,48,43V16C48,15.448,47.551,15,47,15z M24.5,36c-4.694,0-8.5-3.806-8.5-8.5c0-4.694,3.806-8.5,8.5-8.5s8.5,3.806,8.5,8.5C33,32.194,29.194,36,24.5,36z M36.543,40.957l-5.363-5.363c0.515-0.426,0.988-0.899,1.414-1.414l5.363,5.363L36.543,40.957z"/></svg>