<?xml version="1.0" encoding="utf-8"?><!-- Generator: Adobe Illustrator 18.1.1, SVG Export Plug-In . SVG Version: 6.00 Build 0)  --><svg xmlns="http://www.w3.org/2000/svg" xmlns:xlink="http://www.w3.org/1999/xlink" viewBox="0 0 50 50" width="500px" height="500px"><path d="M29,20h-8c-1.2,0-2,0.8-2,2v6c0,1.2,0.8,2,2,2h8c1.2,0,2-0.8,2-2v-6C31,20.8,30.2,20,29,20z"/><path d="M29,7h-8c-1.2,0-2,0.8-2,2v6c0,1.2,0.8,2,2,2h8c1.2,0,2-0.8,2-2V9C31,7.8,30.2,7,29,7z"/><path d="M29,33h-8c-1.2,0-2,0.8-2,2v6c0,1.2,0.8,2,2,2h8c1.2,0,2-0.8,2-2v-6C31,33.8,30.2,33,29,33z"/><path d="M14,20H6c-1.2,0-2,0.8-2,2v6c0,1.2,0.8,2,2,2h8c1.2,0,2-0.8,2-2v-6C16,20.8,15.2,20,14,20z"/><path d="M14,7H6C4.8,7,4,7.8,4,9v6c0,1.2,0.8,2,2,2h8c1.2,0,2-0.8,2-2V9C16,7.8,15.2,7,14,7z"/><path d="M14,33H6c-1.2,0-2,0.8-2,2v6c0,1.2,0.8,2,2,2h8c1.2,0,2-0.8,2-2v-6C16,33.8,15.2,33,14,33z"/><path d="M44,20h-8c-1.2,0-2,0.8-2,2v6c0,1.2,0.8,2,2,2h8c1.2,0,2-0.8,2-2v-6C46,20.8,45.2,20,44,20z"/><path d="M44,7h-8c-1.2,0-2,0.8-2,2v6c0,1.2,0.8,2,2,2h8c1.2,0,2-0.8,2-2V9C46,7.8,45.2,7,44,7z"/><path d="M44,33h-8c-1.2,0-2,0.8-2,2v6c0,1.2,0.8,2,2,2h8c1.2,0,2-0.8,2-2v-6C46,33.8,45.2,33,44,33z"/></svg>