<?xml version="1.0" encoding="iso-8859-1"?>
<!-- Generator: Adobe Illustrator 26.4.1, SVG Export Plug-In . SVG Version: 6.00 Build 0)  -->
<svg version="1.1" baseProfile="basic" id="Layer_1"
	 xmlns="http://www.w3.org/2000/svg" xmlns:xlink="http://www.w3.org/1999/xlink" x="0px" y="0px" viewBox="0 0 50 50"
	 xml:space="preserve">
<path d="M5,4C3.346,4,2,5.346,2,7v6h1h44h1v-2c0-1.654-1.346-3-3-3L18.045,8.006c-0.279-0.101-0.856-1.02-1.166-1.514
	C16.112,5.268,15.317,4,14,4H5z"/>
<path d="M47,15H3c-0.551,0-1,0.448-1,1v27c0,1.654,1.346,3,3,3h40c1.654,0,3-1.346,3-3V16C48,15.448,47.551,15,47,15z
	 M34.277,31.957v5.12v0.001c0.001,0.222-0.071,0.439-0.21,0.618c-0.188,0.242-0.478,0.385-0.784,0.387
	c-0.036,0-3.884,0.073-7.405,2.717c-0.179,0.134-0.39,0.2-0.601,0.2c-0.232,0-0.465-0.081-0.651-0.241
	c-2.821-2.423-4.405-2.676-7.348-2.676c-0.336,0-0.649-0.169-0.834-0.448c-0.119-0.18-0.175-0.391-0.165-0.601l-0.001-5.077
	l-0.007-0.004l-0.001-0.975C16.556,30.163,20.931,28,25.277,28s8.722,2.163,9,2.917V31.957z M40.735,28.626l-4.458,2.299v-0.008
	c0-2.667-6.757-4.917-11-4.917s-10.999,2.25-10.999,4.917v0.009l-4.459-2.3c-0.333-0.172-0.542-0.515-0.542-0.889
	s0.209-0.717,0.542-0.889l15-7.737c0.287-0.148,0.629-0.148,0.916,0l15,7.737c0.333,0.172,0.542,0.515,0.542,0.889
	S41.068,28.454,40.735,28.626z"/>
</svg>