<?xml version="1.0" encoding="iso-8859-1"?><!-- Generator: Adobe Illustrator 22.1.0, SVG Export Plug-In . SVG Version: 6.00 Build 0)  --><svg xmlns="http://www.w3.org/2000/svg" xmlns:xlink="http://www.w3.org/1999/xlink" viewBox="0 0 50 50" width="500px" height="500px"><path style="fill:none;stroke:#000000;stroke-width:2;stroke-linecap:round;stroke-miterlimit:10;" d="M45,9c0,0-25.648,0-27,0c-1.469,0-2.484-4-4-4H5C3.895,5,3,5.896,3,7v36c0,1.104,0.895,2,2,2h40c1.104,0,2-0.896,2-2V11C47,9.896,46.104,9,45,9z"/><path style="fill:none;stroke:#000000;stroke-width:2;stroke-linecap:round;stroke-miterlimit:10;" d="M47,26V16c0-1.105-0.895-2-2-2H5c-1.105,0-2,0.895-2,2v10"/><path style="fill:none;stroke:#000000;stroke-width:2;stroke-miterlimit:10;" d="M25,26c-2.209,0-4,1.791-4,4s1.791,4,4,4s4-1.791,4-4S27.209,26,25,26L25,26z"/><path style="fill:none;stroke:#000000;stroke-width:2;stroke-linejoin:round;stroke-miterlimit:10;" d="M33,23h-2l-0.544-1.632C30.184,20.551,29.419,20,28.558,20h-7.117c-0.861,0-1.625,0.551-1.897,1.368L19,23h-2c-1.657,0-3,1.343-3,3v9c0,1.657,1.343,3,3,3h16c1.657,0,3-1.343,3-3v-9C36,24.343,34.657,23,33,23z"/></svg>