<?xml version="1.0" encoding="iso-8859-1"?>
<!-- Generator: Adobe Illustrator 24.0.1, SVG Export Plug-In . SVG Version: 6.00 Build 0)  -->
<svg version="1.1" id="Layer_1" xmlns="http://www.w3.org/2000/svg" xmlns:xlink="http://www.w3.org/1999/xlink" x="0px" y="0px"
	 viewBox="0 0 50 50" style="enable-background:new 0 0 50 50;" xml:space="preserve">
<path style="fill:none;stroke:#000000;stroke-width:2;stroke-linecap:round;stroke-miterlimit:10;" d="M42,44h3c1.104,0,2-0.896,2-2
	V10c0-1.104-0.896-2-2-2c0,0-25.648,0-27,0c-1.469,0-2.484-4-4-4H5C3.895,4,3,4.896,3,6v36c0,1.104,0.895,2,2,2h3"/>
<path style="fill:none;stroke:#000000;stroke-width:2;stroke-linecap:round;stroke-miterlimit:10;" d="M47,25V15
	c0-1.105-0.895-2-2-2H5c-1.105,0-2,0.895-2,2v10"/>
<path style="fill:none;stroke:#000000;stroke-width:2;stroke-linecap:round;stroke-linejoin:round;stroke-miterlimit:10;" d="M9,28
	v20h8V36h16v12h8V28H9z"/>
<line style="fill:none;stroke:#000000;stroke-width:2;stroke-linecap:round;stroke-miterlimit:10;" x1="17" y1="44" x2="33" y2="44"/>
</svg>