<?xml version="1.0" encoding="iso-8859-1"?>
<!-- Generator: Adobe Illustrator 23.0.6, SVG Export Plug-In . SVG Version: 6.00 Build 0)  -->
<svg version="1.1" id="Filled" xmlns="http://www.w3.org/2000/svg" xmlns:xlink="http://www.w3.org/1999/xlink" x="0px" y="0px"
	 viewBox="0 0 50 50" style="enable-background:new 0 0 50 50;" xml:space="preserve">
<path d="M48,13v-2c0-1.654-1.346-3-3-3L18.044,8.006c-0.279-0.101-0.854-1.02-1.164-1.514C16.111,5.267,15.317,4,14,4H5
	C3.346,4,2,5.346,2,7v6H48z"/>
<path d="M2,15v28c0,1.654,1.346,3,3,3h40c1.654,0,3-1.346,3-3V15H2z M25,39c-4.971,0-9-4.029-9-9c0-4.971,4.029-9,9-9s9,4.029,9,9
	C34,34.971,29.971,39,25,39z"/>
<path d="M25,36L25,36c-0.552,0-1-0.448-1-1V25c0-0.552,0.448-1,1-1h0c0.552,0,1,0.448,1,1v10C26,35.552,25.552,36,25,36z"/>
<path d="M31,30L31,30c0,0.552-0.448,1-1,1H20c-0.552,0-1-0.448-1-1v0c0-0.552,0.448-1,1-1h10C30.552,29,31,29.448,31,30z"/>
</svg>