<?xml version="1.0" encoding="iso-8859-1"?>
<!-- Generator: Adobe Illustrator 23.0.3, SVG Export Plug-In . SVG Version: 6.00 Build 0)  -->
<svg version="1.1" id="Layer_1" xmlns="http://www.w3.org/2000/svg" xmlns:xlink="http://www.w3.org/1999/xlink" x="0px" y="0px"
	 viewBox="0 0 50 50" style="enable-background:new 0 0 50 50;" xml:space="preserve">
<path style="fill:none;stroke:#000000;stroke-width:2;stroke-linecap:round;stroke-miterlimit:10;" d="M19,8V5c0-1.1,0.9-2,2-2h8
	c1.1,0,2,0.9,2,2v3"/>
<line style="fill:none;stroke:#000000;stroke-width:2;stroke-linecap:round;stroke-miterlimit:10;" x1="8" y1="8" x2="42" y2="8"/>
<path d="M9,8v37c0,1.654,1.346,3,3,3h26c1.654,0,3-1.346,3-3V8H9z M22.375,35.749h-4.244c-1.284,0-2.309-0.503-2.81-1.381
	c-0.493-0.865-0.412-1.98,0.225-3.058l1.794-3.037c-0.173-0.083-0.332-0.2-0.436-0.378c-0.278-0.477-0.118-1.089,0.358-1.368
	l1.84-1.077c0.31-0.182,0.695-0.183,1.007-0.002c0.312,0.182,0.502,0.516,0.498,0.876l-0.022,2.071
	c-0.006,0.549-0.452,0.989-1,0.989h-0.011c-0.178-0.002-0.336-0.063-0.48-0.146l-1.825,3.089c-0.258,0.436-0.336,0.827-0.21,1.049
	c0.131,0.229,0.542,0.372,1.072,0.372h4.244c0.553,0,1,0.447,1,1S22.928,35.749,22.375,35.749z M24.13,20.714l-1.867,3.164
	c-0.281,0.476-0.895,0.633-1.369,0.354c-0.476-0.28-0.634-0.894-0.354-1.369l1.867-3.165c0.639-1.081,1.584-1.701,2.593-1.701
	s1.954,0.62,2.593,1.7l2.044,3.461C29.788,23.066,29.954,23,30.144,23c0.553,0,1,0.447,1,1v2.132c0,0.36-0.193,0.692-0.507,0.87
	c-0.153,0.087-0.323,0.13-0.493,0.13c-0.178,0-0.356-0.048-0.515-0.143l-1.776-1.065c-0.474-0.284-0.627-0.898-0.343-1.372
	c0.101-0.168,0.25-0.279,0.413-0.362l-2.053-3.476C25.341,19.815,24.659,19.815,24.13,20.714z M34.679,34.368
	c-0.501,0.878-1.525,1.381-2.81,1.381h-3.201c0.007,0.192-0.022,0.387-0.131,0.563c-0.189,0.305-0.516,0.473-0.851,0.473
	c-0.18,0-0.362-0.049-0.526-0.15l-1.812-1.124c-0.306-0.189-0.486-0.53-0.472-0.89c0.015-0.36,0.222-0.685,0.542-0.85l1.843-0.947
	c0.492-0.254,1.094-0.059,1.347,0.433c0.081,0.158,0.101,0.326,0.095,0.492h3.166c0.53,0,0.941-0.143,1.072-0.372
	c0.126-0.222,0.048-0.613-0.21-1.049l-1.623-2.695c-0.285-0.473-0.133-1.087,0.341-1.372c0.471-0.286,1.087-0.134,1.372,0.341
	l1.628,2.702C35.091,32.388,35.172,33.503,34.679,34.368z"/>
</svg>