<?xml version="1.0" encoding="iso-8859-1"?><!-- Generator: Adobe Illustrator 23.0.3, SVG Export Plug-In . SVG Version: 6.00 Build 0)  --><svg xmlns="http://www.w3.org/2000/svg" xmlns:xlink="http://www.w3.org/1999/xlink" viewBox="0 0 50 50" width="500px" height="500px"><g><path d="M44,10.938V9.909c0-1.394-1.127-2.951-2.636-2.951L19.348,6.97c-0.2-0.088-0.615-0.686-0.863-1.043C17.858,5.023,17.148,4,16,4H8.636C7.183,4,6,5.183,6,6.637v4.301H44z"/></g><g><path d="M6,13.938v19.426C6,34.819,7.18,36,8.637,36h32.727C42.82,36,44,34.82,44,33.364V13.938c0-0.552-0.448-1-1-1H7C6.448,12.938,6,13.385,6,13.938z"/></g><path d="M26,36c0-0.553-0.448-1-1-1s-1,0.447-1,1v3h2V36z"/><g><path d="M26,41h-2c-0.552,0-1,0.447-1,1v2c0,0.553,0.448,1,1,1h2c0.552,0,1-0.447,1-1v-2C27,41.447,26.552,41,26,41z"/></g><g><path d="M11.5,42c-0.552,0-1,0.447-1,1s0.448,1,1,1H21v-2H11.5z"/><path d="M38.5,42H29v2h9.5c0.552,0,1-0.447,1-1S39.052,42,38.5,42z"/></g></svg>