<?xml version="1.0" encoding="iso-8859-1"?><!-- Generator: Adobe Illustrator 22.1.0, SVG Export Plug-In . SVG Version: 6.00 Build 0)  --><svg xmlns="http://www.w3.org/2000/svg" xmlns:xlink="http://www.w3.org/1999/xlink" viewBox="0 0 50 50" width="500px" height="500px"><path d="M4,13h42c0.732,0,1.409,0.212,2,0.556V11c0-1.654-1.346-3-3-3L18.044,8.006c-0.279-0.101-0.854-1.02-1.164-1.514C16.111,5.267,15.317,4,14,4H5C3.346,4,2,5.346,2,7v6.556C2.591,13.212,3.268,13,4,13z"/><path d="M25,25c-2.761,0-5,2.239-5,5s2.239,5,5,5s5-2.239,5-5S27.761,25,25,25L25,25z"/><path d="M46,15H4c-1.103,0-2,0.897-2,2v9v17c0,1.654,1.346,3,3,3h40c1.654,0,3-1.346,3-3V26v-9C48,15.897,47.103,15,46,15z M36,35c0,1.657-1.343,3-3,3H17c-1.657,0-3-1.343-3-3v-9c0-1.657,1.343-3,3-3h2l0.544-1.632C19.816,20.551,20.581,20,21.442,20h7.117c0.861,0,1.625,0.551,1.897,1.368L31,23h2c1.657,0,3,1.343,3,3V35z"/></svg>