<?xml version="1.0" encoding="iso-8859-1"?><!-- Generator: Adobe Illustrator 19.1.1, SVG Export Plug-In . SVG Version: 6.00 Build 0)  --><svg xmlns="http://www.w3.org/2000/svg" xmlns:xlink="http://www.w3.org/1999/xlink" viewBox="0 0 50 50" width="500px" height="500px"><path d="M41.488,46H5.001C4.11,46,3.271,45.608,2.7,44.926s-0.81-1.577-0.653-2.453l4.955-23.578C7.058,17.289,8.381,16,10,16h37c1.654,0,3,1.346,3,3l-0.016,0.176l-4.559,23.527C45.086,44.613,43.43,46,41.488,46z"/><path d="M5.013,18.632C5.203,16.019,7.357,14,10,14h35v-3c0-1.654-1.346-3-3-3L18.044,8.006c-0.279-0.101-0.854-1.02-1.164-1.514C16.111,5.267,15.317,4,14,4H5C3.346,4,2,5.346,2,7v25.971L5.013,18.632z"/></svg>