<?xml version="1.0" encoding="iso-8859-1"?><!-- Generator: Adobe Illustrator 21.1.0, SVG Export Plug-In . SVG Version: 6.00 Build 0)  --><svg xmlns="http://www.w3.org/2000/svg" xmlns:xlink="http://www.w3.org/1999/xlink" viewBox="0 0 50 50" width="500px" height="500px"><path d="M45,8L18.044,8.006c-0.279-0.101-0.855-1.02-1.165-1.514C16.112,5.268,15.317,4,14,4H5C3.346,4,2,5.346,2,7v6h1h44h1v-2C48,9.346,46.654,8,45,8z"/><path d="M45.9,40c0,0.6-0.4,1-1,1H41v3.9c0,0.6-0.4,1-1,1s-1-0.4-1-1V41h-3.9c-0.6,0-1-0.4-1-1s0.4-1,1-1H39v-3.9c0-0.6,0.4-1,1-1s1,0.4,1,1V39h3.9C45.5,39,45.9,39.4,45.9,40z M50,40c0,5.5-4.5,10-10,10s-10-4.5-10-10s4.5-10,10-10S50,34.5,50,40z M48,40c0-4.4-3.6-8-8-8s-8,3.6-8,8s3.6,8,8,8S48,44.4,48,40z"/><path d="M31,40c0-4.971,4.029-9,9-9c3.488,0,6.506,1.988,8,4.889V16c0-0.552-0.449-1-1-1H3c-0.551,0-1,0.448-1,1v27c0,1.654,1.346,3,3,3h28.305C31.876,44.407,31,42.308,31,40z"/></svg>