<?xml version="1.0" encoding="iso-8859-1"?><!-- Generator: Adobe Illustrator 19.2.1, SVG Export Plug-In . SVG Version: 6.00 Build 0)  --><svg xmlns="http://www.w3.org/2000/svg" xmlns:xlink="http://www.w3.org/1999/xlink" viewBox="0 0 50 50" width="500px" height="500px"><path style="fill:none;stroke:#000000;stroke-width:2;stroke-linecap:round;stroke-miterlimit:10;" d="M47,11c0-1.105-0.895-2-2-2H18c-1.469,0-2.484-4-4-4H5C3.895,5,3,5.895,3,7v36c0,1.105,0.895,2,2,2h40c1.105,0,2-0.895,2-2V11z"/><path style="fill:none;stroke:#000000;stroke-width:2;stroke-linecap:round;stroke-miterlimit:10;" d="M47,26V16c0-1.105-0.895-2-2-2H5c-1.105,0-2,0.895-2,2v10"/><path style="fill:none;stroke:#000000;stroke-width:2;stroke-linecap:round;stroke-linejoin:round;stroke-miterlimit:10;" d="M35,25.694c0-0.757-0.466-1.058-1.025-1.224c0,0-3.78,0.374-5.125,0.531c-1.061,0.123-1.617-0.688-0.782-2.018c0.557-0.889,0.782-1.219,0.782-1.983c0-1.657-1.376-3-3.075-3c-1.699,0-3.075,1.343-3.075,3c0,0.752,0.261,1.267,0.769,1.985c0.961,1.36,0.385,2.094-0.769,2.016c-1.262-0.086-5.125-0.531-5.125-0.531c-0.673-0.111-0.945,0.452-1.025,1.193c0,0-0.208,0.857-0.535,5.192c-0.026,0.1-0.003,0.211,0.006,0.256c0.177,0.906,1.115,0.344,2.084-0.344C18.728,30.323,19.228,30,20,30c1.699,0,3,1.343,3,3c0,1.657-1.301,3-3,3c-0.816,0-1.228-0.254-1.95-0.823c-0.723-0.569-1.71-1.194-1.998-0.49c-0.051,0.125-0.064,0.375-0.038,0.536c0.299,3.12,0.418,3.269,0.535,3.777c0.116,0.508,0.459,1,1.025,1H33.59c0.913,0,1.41-0.547,1.41-1.375C35,38.187,35,26.45,35,25.694z"/></svg>