<?xml version="1.0" encoding="iso-8859-1"?><!-- Generator: Adobe Illustrator 19.1.1, SVG Export Plug-In . SVG Version: 6.00 Build 0)  --><svg xmlns="http://www.w3.org/2000/svg" xmlns:xlink="http://www.w3.org/1999/xlink" viewBox="0 0 50 50" width="500px" height="500px"><path style="fill:none;stroke:#000000;stroke-width:2;stroke-linecap:round;stroke-miterlimit:10;" d="M45,9c0,0-25.648,0-27,0c-1.469,0-2.484-4-4-4H5C3.895,5,3,5.896,3,7v36c0,1.104,0.895,2,2,2h40c1.104,0,2-0.896,2-2V11C47,9.896,46.104,9,45,9z"/><path style="fill:none;stroke:#000000;stroke-width:2;stroke-linecap:round;stroke-miterlimit:10;" d="M3,20v-9c0-1.105,0.895-2,2-2h14"/><rect x="23" y="9" style="fill:none;stroke:#000000;stroke-width:2;stroke-linecap:round;stroke-miterlimit:10;" width="4" height="15"/><path style="fill:none;stroke:#000000;stroke-width:2;stroke-miterlimit:10;" d="M27,24h-4c-0.552,0-1,0.448-1,1v2c0,0.552,0.448,1,1,1h4c0.552,0,1-0.448,1-1v-2C28,24.448,27.552,24,27,24z"/><path style="fill:none;stroke:#000000;stroke-width:2;stroke-miterlimit:10;" d="M23.5,28c0,0-1.5,5.745-1.5,6.961C22,36.632,23.35,38,25,38s3-1.368,3-3.039C28,33.745,26.5,28,26.5,28H23.5z"/><ellipse cx="25" cy="35" rx="0.987" ry="1"/><line style="fill:none;stroke:#000000;stroke-width:2;stroke-miterlimit:10;" x1="23" y1="18" x2="25" y2="18"/><line style="fill:none;stroke:#000000;stroke-width:2;stroke-miterlimit:10;" x1="23" y1="12" x2="25" y2="12"/><line style="fill:none;stroke:#000000;stroke-width:2;stroke-miterlimit:10;" x1="25" y1="15" x2="27" y2="15"/><line style="fill:none;stroke:#000000;stroke-width:2;stroke-miterlimit:10;" x1="25" y1="21" x2="27" y2="21"/></svg>