<?xml version="1.0" encoding="iso-8859-1"?><!-- Generator: Adobe Illustrator 19.1.1, SVG Export Plug-In . SVG Version: 6.00 Build 0)  --><svg xmlns="http://www.w3.org/2000/svg" xmlns:xlink="http://www.w3.org/1999/xlink" viewBox="0 0 50 50" width="500px" height="500px"><image style="display:none;overflow:visible;" width="167" height="194" xlink:href="4BD1B0F5.jpg"  transform="matrix(0.2695 0 0 0.2695 3 -2.2754)"></image><path d="M47,15H3c-0.551,0-1,0.448-1,1v27c0,1.654,1.346,3,3,3h40c1.654,0,3-1.346,3-3V16C48,15.448,47.551,15,47,15z M24.064,18.646C24.211,18.258,24.584,18,25,18c0.001,0,0.003,0,0.004,0c0.418,0.002,0.791,0.264,0.935,0.655L28.268,25h-6.603L24.064,18.646z M33.701,41.781C33.52,41.927,33.299,42,33.077,42c-0.11,0-0.219-0.024-0.324-0.06l-5.92-3.833l5.059-3.239l2.125,5.787C34.164,41.06,34.038,41.513,33.701,41.781z M16.061,40.655l2.125-5.787l5.059,3.239l-5.92,3.833C17.219,41.976,17.11,42,17,42c-0.222,0-0.442-0.073-0.624-0.219C16.04,41.513,15.913,41.06,16.061,40.655z M37.539,28.842l-6.364,4.074l0.011,0.03l-6.197,3.967l-11.963-7.746c-0.051-0.033-0.109-0.042-0.164-0.064l-0.405-0.262c-0.372-0.241-0.541-0.698-0.416-1.123S12.557,27,13,27h7.91h8.092H37c0.444,0,0.835,0.293,0.96,0.719C38.084,28.146,37.913,28.603,37.539,28.842z"/><path d="M45,8L18.044,8.006c-0.279-0.101-0.855-1.02-1.165-1.514C16.112,5.268,15.317,4,14,4H5C3.346,4,2,5.346,2,7v6h1h44h1v-2C48,9.346,46.654,8,45,8z"/></svg>