<?xml version="1.0" encoding="iso-8859-1"?><!-- Generator: Adobe Illustrator 19.1.0, SVG Export Plug-In . SVG Version: 6.00 Build 0)  --><svg xmlns="http://www.w3.org/2000/svg" xmlns:xlink="http://www.w3.org/1999/xlink" viewBox="0 0 50 50" width="500px" height="500px"><path style="fill:none;stroke:#000000;stroke-width:2;stroke-linecap:round;stroke-miterlimit:10;" d="M47,11c0-1.105-0.895-2-2-2H18c-1.469,0-2.484-4-4-4H5C3.895,5,3,5.895,3,7v36c0,1.105,0.895,2,2,2h40c1.105,0,2-0.895,2-2V11z"/><path style="fill:none;stroke:#000000;stroke-width:2;stroke-linecap:round;stroke-miterlimit:10;" d="M47,26V16c0-1.105-0.895-2-2-2H5c-1.105,0-2,0.895-2,2v10"/><path style="fill:none;stroke:#000000;stroke-width:2;stroke-linecap:round;stroke-linejoin:round;stroke-miterlimit:10;" d="M29.365,26c0.344-0.855,0.601-1.619,0.619-2.729c0.032-1.939-1.06-4.258-3.531-4.258L25.95,18c-5.438-0.025-6.948,2.677-6.92,5.021c0.015,1.232,0.241,1.979,0.594,2.953c-0.205,0.127-0.635,0.13-0.624,1.359c0.158,1.34,1.158,1.639,1.5,1.667c0.131,1.249,1.064,2.662,1.5,2.894v2.55c-1.043,2.854-7.675,1.053-8,6.556h11"/><path style="fill:none;stroke:#000000;stroke-width:2;stroke-linecap:round;stroke-linejoin:round;stroke-miterlimit:10;" d="M29.365,26c0.205,0.127,0.647,0.105,0.635,1.334c-0.158,1.34-1.158,1.639-1.5,1.667c-0.131,1.249-1.064,2.662-1.5,2.894v2.55c1.043,2.854,7.675,1.053,8,6.556H24"/></svg>