<?xml version="1.0" encoding="iso-8859-1"?>
<!-- Generator: Adobe Illustrator 19.1.0, SVG Export Plug-In . SVG Version: 6.00 Build 0)  -->
<svg version="1.1" id="Layer_1" xmlns="http://www.w3.org/2000/svg" xmlns:xlink="http://www.w3.org/1999/xlink" x="0px" y="0px"
	 viewBox="0 0 50 50" style="enable-background:new 0 0 50 50;" xml:space="preserve">
<path style="fill:none;stroke:#000000;stroke-width:2;stroke-linecap:round;stroke-miterlimit:10;" d="M47,11c0-1.105-0.895-2-2-2
	H18c-1.469,0-2.484-4-4-4H5C3.895,5,3,5.895,3,7v36c0,1.105,0.895,2,2,2h40c1.105,0,2-0.895,2-2V11z"/>
<path style="fill:none;stroke:#000000;stroke-width:2;stroke-linecap:round;stroke-miterlimit:10;" d="M47,26V16
	c0-1.105-0.895-2-2-2H5c-1.105,0-2,0.895-2,2v10"/>
<g>
	<polygon points="19.267,24 17.068,24 15.794,27.234 14.506,24 12.28,24 14.576,28.942 12.084,33.996 14.296,33.996 15.725,30.608 
		17.166,33.996 19.435,33.996 16.942,28.942 	"/>
	<polygon points="28.464,24 26.266,24 24.992,27.234 23.704,24 21.478,24 23.774,28.942 21.282,33.996 23.494,33.996 24.922,30.608 
		26.364,33.996 28.632,33.996 26.14,28.942 	"/>
	<polygon points="35.338,28.942 37.662,24 35.464,24 34.189,27.234 32.901,24 30.676,24 32.972,28.942 30.48,33.996 32.691,33.996 
		34.12,30.608 35.562,33.996 37.83,33.996 	"/>
</g>
</svg>