<?xml version="1.0" encoding="iso-8859-1"?><!-- Generator: Adobe Illustrator 19.1.0, SVG Export Plug-In . SVG Version: 6.00 Build 0)  --><svg xmlns="http://www.w3.org/2000/svg" xmlns:xlink="http://www.w3.org/1999/xlink" viewBox="0 0 50 50" width="500px" height="500px"><path style="fill:none;stroke:#000000;stroke-width:2;stroke-linecap:round;stroke-miterlimit:10;" d="M47,11c0-1.105-0.895-2-2-2H18c-1.469,0-2.484-4-4-4H5C3.895,5,3,5.895,3,7v36c0,1.105,0.895,2,2,2h40c1.105,0,2-0.895,2-2V11z"/><path style="fill:none;stroke:#000000;stroke-width:2;stroke-linecap:round;stroke-miterlimit:10;" d="M47,26V16c0-1.105-0.895-2-2-2H5c-1.105,0-2,0.895-2,2v10"/><path style="fill:none;stroke:#000000;stroke-width:2;stroke-linecap:round;stroke-miterlimit:10;" d="M29.286,21c-1.717,0-3.239,0.895-4.286,2c-1.047-1.105-2.569-2-4.286-2C17.559,21,15,23.359,15,26.268C15,31.442,25,39,25,39s10-7.464,10-12.732C35,23.359,32.441,21,29.286,21z"/></svg>