<?xml version="1.0" encoding="iso-8859-1"?><!-- Generator: Adobe Illustrator 19.1.0, SVG Export Plug-In . SVG Version: 6.00 Build 0)  --><svg xmlns="http://www.w3.org/2000/svg" xmlns:xlink="http://www.w3.org/1999/xlink" viewBox="0 0 50 50" width="500px" height="500px"><path d="M45,8L18.044,8.006c-0.279-0.101-0.855-1.02-1.165-1.514C16.112,5.268,15.317,4,14,4H5C3.346,4,2,5.346,2,7v6h1h44h1v-2C48,9.346,46.654,8,45,8z"/><g><g><path d="M47,15H3c-0.551,0-1,0.448-1,1v27c0,1.654,1.346,3,3,3h40c1.654,0,3-1.346,3-3V16C48,15.448,47.551,15,47,15z M35,38.625C35,39.453,34.503,40,33.59,40H17.573c-0.566,0-0.908-0.492-1.025-1c-0.117-0.508-0.235-0.656-0.534-3.777c-0.026-0.161-0.013-0.411,0.038-0.536c0.289-0.704,1.276-0.078,1.999,0.49C18.772,35.746,19.183,36,20,36c1.699,0,3-1.343,3-3s-1.301-3-3-3c-0.772,0-1.272,0.323-1.896,0.766c-0.97,0.688-1.908,1.25-2.085,0.344c-0.008-0.045-0.032-0.156-0.006-0.256c0.326-4.335,0.534-5.192,0.534-5.192c0.08-0.741,0.352-1.303,1.025-1.193c0,0,3.863,0.445,5.125,0.531c1.154,0.079,1.73-0.656,0.769-2.016c-0.508-0.718-0.769-1.233-0.769-1.985c0-1.657,1.376-3,3.076-3c1.698,0,3.075,1.343,3.075,3c0,0.763-0.225,1.094-0.782,1.983c-0.835,1.33-0.279,2.141,0.782,2.018c1.345-0.156,5.125-0.531,5.125-0.531C34.534,24.636,35,24.937,35,25.694V38.625z"/></g></g></svg>