<?xml version="1.0" encoding="iso-8859-1"?><!-- Generator: Adobe Illustrator 19.1.1, SVG Export Plug-In . SVG Version: 6.00 Build 0)  --><svg xmlns="http://www.w3.org/2000/svg" xmlns:xlink="http://www.w3.org/1999/xlink" viewBox="0 0 50 50" width="500px" height="500px"><path style="fill:none;stroke:#000000;stroke-width:2;stroke-miterlimit:10;" d="M13,45c-0.552,0-1-0.448-1-1V21c0-1.105,0.895-2,2-2h6c0.629,0,1.222,0.296,1.6,0.8l1.8,2.4c0.378,0.504,0.97,0.8,1.6,0.8h21c0.552,0,1,0.448,1,1"/><path style="fill:none;stroke:#000000;stroke-width:2;stroke-linecap:round;stroke-miterlimit:10;" d="M45,9c0,0-25.648,0-27,0c-1.469,0-2.484-4-4-4H5C3.895,5,3,5.896,3,7v36c0,1.104,0.895,2,2,2h40c1.104,0,2-0.896,2-2V11C47,9.896,46.104,9,45,9z"/></svg>