<?xml version="1.0" encoding="iso-8859-1"?><!-- Generator: Adobe Illustrator 22.0.0, SVG Export Plug-In . SVG Version: 6.00 Build 0)  --><svg xmlns="http://www.w3.org/2000/svg" xmlns:xlink="http://www.w3.org/1999/xlink" viewBox="0 0 50 50" width="500px" height="500px"><path style="fill:none;stroke:#000000;stroke-width:2;stroke-linecap:round;stroke-miterlimit:10;" d="M46.999,11c0-1.105-0.895-2-2-2h-27c-1.469,0-2.484-4-4-4h-9c-1.105,0-2,0.895-2,2v36c0,1.105,0.895,2,2,2h40c1.105,0,2-0.895,2-2V11z"/><path style="fill:none;stroke:#000000;stroke-width:2;stroke-linecap:round;stroke-miterlimit:10;" d="M46.999,26V16c0-1.105-0.895-2-2-2h-40c-1.105,0-2,0.895-2,2v10"/><line style="fill:none;stroke:#000000;stroke-width:2;stroke-miterlimit:10;" x1="31" y1="34" x2="37.25" y2="40.25"/><circle style="fill:none;stroke:#000000;stroke-width:2;stroke-miterlimit:10;" cx="24.5" cy="27.5" r="8.5"/></svg>