<?xml version="1.0" encoding="iso-8859-1"?><!-- Generator: Adobe Illustrator 19.1.1, SVG Export Plug-In . SVG Version: 6.00 Build 0)  --><svg xmlns="http://www.w3.org/2000/svg" xmlns:xlink="http://www.w3.org/1999/xlink" viewBox="0 0 50 50" width="50px" height="50px"><path d="M34,16H10c-0.552,0-1-0.448-1-1v-4c0-0.552,0.448-1,1-1h24c0.553,0,1,0.448,1,1v4C35,15.552,34.553,16,34,16z"/><path fill="none" stroke="#000000" stroke-width="2" stroke-linecap="round" stroke-linejoin="round" stroke-miterlimit="10" d="M33,6c0,0-10.167-2.25-25-3l3,8h22V6z"/><path fill="none" stroke="#000000" stroke-width="2" stroke-linecap="round" stroke-linejoin="round" stroke-miterlimit="10" d="M34,13.083L39,8c0,0,8,5.99,8,16"/><path d="M41.504,36.074l-7.355-21.399C34.01,14.271,33.63,14,33.203,14H10.797c-0.427,0-0.807,0.271-0.946,0.675L2.495,36.074c-0.957,2.785-0.525,5.757,1.186,8.154C5.392,46.625,8.062,48,11.006,48h21.988c2.944,0,5.614-1.375,7.324-3.771C42.029,41.832,42.462,38.859,41.504,36.074z M11.511,16h20.979l3.438,10H8.073L11.511,16z"/></svg>