<?xml version="1.0" encoding="iso-8859-1"?><!-- Generator: Adobe Illustrator 19.1.1, SVG Export Plug-In . SVG Version: 6.00 Build 0)  --><svg xmlns="http://www.w3.org/2000/svg" xmlns:xlink="http://www.w3.org/1999/xlink" viewBox="0 0 50 50" width="50px" height="50px"><path style="fill:none;stroke:#000000;stroke-width:2;stroke-linecap:round;stroke-linejoin:round;stroke-miterlimit:10;" d="M37.547,23H41c1.105,0,2,0.895,2,2l0,0c0,4.583-1.073,8-6,8"/><path style="fill:none;stroke:#000000;stroke-width:2;stroke-linecap:round;stroke-linejoin:round;stroke-miterlimit:10;" d="M31.008,8c0,4.5-4.008,3.636-4.008,8"/><path style="fill:none;stroke:#000000;stroke-width:2;stroke-linecap:round;stroke-linejoin:round;stroke-miterlimit:10;" d="M26,3c0,6.704-5.984,5.425-5.984,12"/><path d="M35,48H13c-3.17,0-7-2.23-7-5c0-0.553,0.448-1,1-1h34c0.552,0,1,0.447,1,1C42,45.815,38.237,48,35,48z"/><path d="M37,19H11c-0.552,0-1,0.447-1,1v12c0,3.273,1.588,6.175,4.026,8h19.949C36.412,38.175,38,35.273,38,32V20C38,19.447,37.552,19,37,19z"/></svg>