<?xml version="1.0" encoding="utf-8"?><!-- Generator: Adobe Illustrator 18.1.1, SVG Export Plug-In . SVG Version: 6.00 Build 0)  --><svg xmlns="http://www.w3.org/2000/svg" xmlns:xlink="http://www.w3.org/1999/xlink" viewBox="0 0 50 50" width="50px" height="50px"><path d="M41,17c-0.7,0-1.4,0.1-2,0.2v2c0.6-0.1,1.3-0.2,2-0.2c2.4,0,4,1.6,4,4c0,5.5-2.2,11.1-6,12.6v2.1c5.2-1.4,8-8.2,8-14.7C47,19.5,44.5,17,41,17z"/><path d="M40,9c0-3.3-2.7-6-6-6c-1.5,0-2.9,0.6-4,1.5c-1.1-1-2.5-1.5-4-1.5c-0.9,0-1.8,0.2-2.6,0.6C22.1,2,20.1,1,18,1c-2.3,0-4.4,1.1-5.7,3c-1-0.6-2.1-1-3.3-1C5.7,3,3,5.7,3,9c0,1.8,0.8,3.4,2,4.5V21h9.2H23l0,0h1.2c0.4-1.3,0.8-3,0.8-5.3c0-1.9-1.2-3.2-1.8-3.9L23,11.6c-0.2-0.2-0.4-0.3-0.7-0.3c0,0,0,0,0,0c-0.3,0-0.5,0.1-0.7,0.3C20.6,12.5,19.3,13,18,13c-1.6,0-3-0.7-4-2c-0.2-0.3-0.5-0.4-0.8-0.4c-0.3,0-0.6,0.2-0.8,0.5c-0.7,1.2-2,1.9-3.4,1.9c-2.2,0-4-1.8-4-4s1.8-4,4-4c1.1,0,2.1,0.4,2.8,1.2c0.2,0.2,0.6,0.3,0.9,0.3c0.3-0.1,0.6-0.3,0.7-0.6C14.3,4.1,16.1,3,18,3c1.8,0,3.4,0.9,4.3,2.4c0.1,0.2,0.4,0.4,0.6,0.5c0.3,0.1,0.6,0,0.8-0.2C24.4,5.3,25.2,5,26,5c1.3,0,2.4,0.6,3.2,1.6c0.4,0.5,1.2,0.5,1.6,0C31.6,5.6,32.7,5,34,5c2.2,0,4,1.8,4,4s-1.8,4-4,4c-1.3,0-2.4-0.6-3.2-1.6c-0.4-0.5-1.2-0.5-1.6,0c-0.1,0.1-0.2,0.3-0.4,0.5C28.1,12.7,27,14,27,15.7c0,2.3,0.3,4,0.8,5.3H29l0,0h8v-6.8C38.8,13.1,40,11.2,40,9z"/><path d="M32,23L32,23h-3.5c0.3,0.8,0.5,1.4,0.5,2c0,1.7-1.3,3-3,3s-3-1.3-3-3c0-0.6,0.2-1.2,0.5-2H20l0,0h-5.8H5v19.4c0,4.3,2.4,6.6,6.6,6.6h18.8c4.3,0,6.6-2.4,6.6-6.6V23H32z"/></svg>