<?xml version="1.0" encoding="iso-8859-1"?><!-- Generator: Adobe Illustrator 19.2.1, SVG Export Plug-In . SVG Version: 6.00 Build 0)  --><svg xmlns="http://www.w3.org/2000/svg" xmlns:xlink="http://www.w3.org/1999/xlink" viewBox="0 0 50 50" width="50px" height="50px"><path d="M34.308,38.299c0-1.964,0.7-3.948,1.586-6.462c1.35-3.828,3.029-8.591,3.029-15.722C38.923,15.954,38.523,0,35.154,0H14.846c-3.369,0-3.769,15.954-3.769,16.115c0,7.131,1.68,11.895,3.029,15.723c0.886,2.513,1.586,4.498,1.586,6.461c0,3.21-2.62,8.045-2.646,8.094c-0.081,0.146-0.123,0.313-0.123,0.479c0,2.053,1.432,3.127,2.846,3.127c0.06,0,0.12-0.006,0.179-0.017c0.042-0.008,4.306-0.773,9.052-0.773s9.01,0.766,9.052,0.773c0.06,0.011,0.12,0.017,0.18,0.017c1.414,0,2.846-1.074,2.846-3.127c0-0.168-0.042-0.333-0.122-0.479C36.928,46.344,34.308,41.509,34.308,38.299z M25,34c-2.76,0-5-1.889-5-8.5s2.24-8.5,5-8.5s5,1.889,5,8.5S27.76,34,25,34z M13.596,9c0.417-3.275,1.015-6.206,1.527-7h19.754c0.512,0.795,1.11,3.726,1.527,7H13.596z"/></svg>