<?xml version="1.0" encoding="iso-8859-1"?><!-- Generator: Adobe Illustrator 20.1.0, SVG Export Plug-In . SVG Version: 6.00 Build 0)  --><svg xmlns="http://www.w3.org/2000/svg" xmlns:xlink="http://www.w3.org/1999/xlink" viewBox="0 0 50 50" width="50px" height="50px"><line style="fill:none;stroke:#000000;stroke-width:2;stroke-miterlimit:10;" x1="19.5" y1="20" x2="30.5" y2="20"/><path style="fill:none;stroke:#000000;stroke-width:2;stroke-miterlimit:10;" d="M22,14v1l-4.944,9.889C16.361,26.277,16,27.808,16,29.361V45c0,1.104,0.896,2,2,2h14c1.104,0,2-0.896,2-2V29.361c0-1.552-0.361-3.083-1.056-4.472L28,15v-1"/><path d="M28,2h-6c-1.103,0-2,0.897-2,2v2c0,1.103,0.897,2,2,2h6c1.103,0,2-0.897,2-2V4C30,2.897,29.103,2,28,2z"/><path style="fill:none;stroke:#000000;stroke-width:2;stroke-linecap:round;stroke-miterlimit:10;" d="M21,5h-1c-1.105,0-2,0.895-2,2v3c0,1.105,0.895,2,2,2h10c1.105,0,2-0.895,2-2V7c0-1.105-0.895-2-2-2h-1"/><line style="fill:none;stroke:#000000;stroke-width:2;stroke-miterlimit:10;" x1="28" y1="12" x2="28" y2="7"/><line style="fill:none;stroke:#000000;stroke-width:2;stroke-miterlimit:10;" x1="22" y1="12" x2="22" y2="7"/><path d="M30,19H20l-2.944,5.889C16.361,26.277,16,27.808,16,29.361V45c0,1.104,0.896,2,2,2h14c1.104,0,2-0.896,2-2V29.361c0-1.552-0.361-3.083-1.056-4.472L30,19z"/></svg>