<?xml version="1.0" encoding="iso-8859-1"?>
<!-- Generator: Adobe Illustrator 24.0.1, SVG Export Plug-In . SVG Version: 6.00 Build 0)  -->
<svg version="1.1" id="&#x421;&#x43B;&#x43E;&#x439;_1"
	 xmlns="http://www.w3.org/2000/svg" xmlns:xlink="http://www.w3.org/1999/xlink" x="0px" y="0px" viewBox="0 0 50 50"
	 style="enable-background:new 0 0 50 50;" xml:space="preserve">
<polygon style="fill:none;stroke:#000000;stroke-width:2;stroke-linecap:round;stroke-linejoin:round;" points="13,12 37,12 37,23 
	33,47 17,47 13,23 "/>
<polygon style="fill:none;stroke:#000000;stroke-width:2;stroke-linecap:round;stroke-linejoin:round;" points="13,12 37,12 37,23 
	33,47 17,47 13,23 "/>
<path style="fill:none;stroke:#000000;stroke-width:2;stroke-linejoin:round;" d="M37,3l-9,1l-5,16"/>
<path d="M13,19v4l4,24h16l4-24v-4H13z M23.989,34.802c0,0.661-0.536,1.198-1.198,1.198h-3.594C18.536,36,18,35.464,18,34.802v-3.594
	c0-0.661,0.536-1.198,1.198-1.198h3.594c0.661,0,1.198,0.536,1.198,1.198V34.802z M30.707,41.207l-2.5,2.5
	C28.012,43.902,27.756,44,27.5,44s-0.512-0.098-0.707-0.293l-2.5-2.5c-0.391-0.391-0.391-1.023,0-1.414l2.5-2.5
	c0.391-0.391,1.023-0.391,1.414,0l2.5,2.5C31.098,40.184,31.098,40.816,30.707,41.207z M32.708,27.207l-2.5,2.5
	C30.013,29.902,29.757,30,29.501,30s-0.512-0.098-0.707-0.293l-2.5-2.5c-0.391-0.391-0.391-1.023,0-1.414l2.5-2.5
	c0.391-0.391,1.023-0.391,1.414,0l2.5,2.5C33.099,26.184,33.099,26.816,32.708,27.207z"/>
</svg>