<svg xmlns="http://www.w3.org/2000/svg"  viewBox="0 0 50 50" width="50px" height="50px"><path d="M 25 2.0214844 C 24.70225 2.0214844 24.404344 2.1413594 24.214844 2.3808594 C 23.593844 3.1678594 9 21.771 9 32 C 9 40.822 16.178 48 25 48 C 33.822 48 41 40.822 41 32 C 41 21.771 26.406156 3.1678594 25.785156 2.3808594 C 25.595656 2.1413594 25.29775 2.0214844 25 2.0214844 z M 24.177734 13.525391 C 24.305484 13.548188 24.431375 13.596875 24.546875 13.671875 C 25.008875 13.973875 25.139891 14.593641 24.837891 15.056641 C 20.002891 22.465641 17 28.958 17 32 C 17 36.08 20.056375 39.496266 24.109375 39.947266 C 24.658375 40.009266 25.054141 40.502781 24.994141 41.050781 C 24.937141 41.562781 24.504953 41.941406 24.001953 41.941406 C 23.964953 41.941406 23.927625 41.939547 23.890625 41.935547 C 18.821625 41.371547 15 37.1 15 32 C 15 27.012 20.708109 17.724891 23.162109 13.962891 C 23.390109 13.617141 23.794484 13.457 24.177734 13.525391 z M 3.9648438 20.994141 A 1.0001 1.0001 0 0 0 3.5527344 22.894531 L 7.3339844 24.785156 A 1.0001161 1.0001161 0 1 0 8.2285156 22.996094 L 4.4472656 21.105469 A 1.0001 1.0001 0 0 0 3.9648438 20.994141 z M 46.003906 20.994141 A 1.0001 1.0001 0 0 0 45.552734 21.105469 L 41.771484 22.996094 A 1.0001163 1.0001163 0 1 0 42.666016 24.785156 L 46.447266 22.894531 A 1.0001 1.0001 0 0 0 46.003906 20.994141 z M 1 31 A 1.0001 1.0001 0 1 0 1 33 L 6 33 A 1.0001 1.0001 0 1 0 6 31 L 1 31 z M 44 31 A 1.0001 1.0001 0 1 0 44 33 L 49 33 A 1.0001 1.0001 0 1 0 49 31 L 44 31 z M 7.8359375 39.078125 A 1.0001 1.0001 0 0 0 7.3828125 39.189453 L 3.5527344 41.105469 A 1.0001161 1.0001161 0 0 0 4.4472656 42.894531 L 8.2773438 40.978516 A 1.0001 1.0001 0 0 0 7.8359375 39.078125 z M 42.134766 39.078125 A 1.0001 1.0001 0 0 0 41.722656 40.978516 L 45.552734 42.894531 A 1.0001163 1.0001163 0 1 0 46.447266 41.105469 L 42.617188 39.189453 A 1.0001 1.0001 0 0 0 42.134766 39.078125 z"/></svg>