<?xml version="1.0" encoding="iso-8859-1"?><!-- Generator: Adobe Illustrator 19.1.1, SVG Export Plug-In . SVG Version: 6.00 Build 0)  --><svg xmlns="http://www.w3.org/2000/svg" xmlns:xlink="http://www.w3.org/1999/xlink" viewBox="0 0 50 50" width="50px" height="50px"><path d="M33.139,45H11.86c-2.755,0-5.346-1.073-7.296-3.021l-2.271-2.271c-0.286-0.286-0.372-0.716-0.217-1.09S2.595,38,3,38h39c0.404,0,0.77,0.243,0.924,0.617c0.155,0.374,0.069,0.804-0.217,1.09l-2.271,2.271C38.487,43.927,35.896,45,33.139,45z"/><path fill="none" stroke="#000000" stroke-width="2" stroke-linecap="round" stroke-linejoin="round" stroke-miterlimit="10" d="M36.515,19.992C37.418,18.217,39.403,17,41.532,17C44.552,17,47,19.448,47,22.468C47,29.588,33.645,32,33.645,32"/><path d="M33.097,36C35.106,29.959,39.005,17.064,39,7.981C39,7.435,38.545,7,38,7H7C6.454,7,6,7.436,6,7.981C5.995,17.183,9.882,29.988,11.895,36H33.097z"/></svg>