<?xml version="1.0" encoding="utf-8"?><!-- Generator: Adobe Illustrator 15.0.0, SVG Export Plug-In . SVG Version: 6.00 Build 0)  --><!DOCTYPE svg PUBLIC "-//W3C//DTD SVG 1.1//EN" "http://www.w3.org/Graphics/SVG/1.1/DTD/svg11.dtd"><svg xmlns="http://www.w3.org/2000/svg" xmlns:xlink="http://www.w3.org/1999/xlink" viewBox="0 0 50 50" width="50px" height="50px"><path d="M29.999,22c-0.15,0-0.303-0.034-0.446-0.105c-0.494-0.247-0.694-0.848-0.447-1.342l9-18c0.131-0.261,0.369-0.452,0.652-0.523l8-2c0.535-0.137,1.078,0.192,1.212,0.728c0.135,0.536-0.191,1.079-0.728,1.213l-7.554,1.888l-8.794,17.589C30.719,21.798,30.366,22,29.999,22z"/><path fill="none" stroke="#000000" stroke-width="2" stroke-linecap="round" stroke-linejoin="round" stroke-miterlimit="10" d="M13,14.047l8.3,5.153c0.5-1.1,0.7-2.4,0.7-3.7c0-5.2-4.3-9.5-9.5-9.5S3,10.3,3,15.5c0,3.8,2.2,7,5.4,8.6"/><path d="M21.294,14.581c0.088,0.439,0.474,0.743,0.905,0.743c0.06,0,0.121-0.006,0.182-0.018c1.304-0.261,2.771-0.382,4.619-0.382c0.899,0,1.749,0,2.599,0.095c0.005,0,0.017,0.002,0.022,0.003l2.353-4.704c-0.264-0.028-0.582-0.063-0.999-0.114C29.684,10.046,28.337,10,27,10c-2.234,0-4.09,0.136-5.674,0.415c-0.544,0.096-0.907,0.615-0.811,1.159C20.59,12,21.23,14.26,21.294,14.581z"/><g><path d="M13.483,21.085C13.305,20.989,13.483,21.085,13.483,21.085C13.485,21.056,13.5,21.03,13.5,21c0-1.242,1.288-2.99,2.551-3.463c0.517-0.194,0.779-0.771,0.585-1.288c-0.194-0.517-0.364-0.619-0.824-0.925c-0.686-0.457-1.801-1.322-2.06-1.745c-0.288-0.471-0.903-0.62-1.375-0.332c-1.925,1.177-3.065,2.633-3.307,4.151C9.396,18.709,11.141,20.016,13.483,21.085z"/><path d="M40.576,21c0,0.014,0.007,0.025,0.008,0.038c-0.029,0.071-0.029,0.071-0.029,0.071c2.383-1.094,4.081-2.443,4.379-3.74c-0.448-2.779-3.847-5.159-9.304-6.443c-0.694-0.145-1.185-0.245-1.565-0.319l-2.376,4.751c0.753,0.137,1.567,0.299,2.217,0.458C37.971,16.967,40.576,18.976,40.576,21z"/><path d="M39.393,23.766c-0.038,7.053-2.465,12.968-2.569,13.219c-0.16,0.384-0.531,0.615-0.923,0.615c-0.128,0-0.259-0.024-0.384-0.077c-0.51-0.212-0.751-0.797-0.539-1.307C35,36.16,37.176,30.834,37.38,24.445C34.112,25.426,30.422,26,27,26c-7.057,0-15.255-2.437-18.534-5.871C7.865,22.801,7,27.146,7,30c0,11.028,8.972,20,20,20c11.028,0,20-8.972,20-20c0-3.257-0.833-7.365-1.434-9.903C44.217,21.526,42.013,22.782,39.393,23.766z"/></g></svg>