<?xml version="1.0" encoding="iso-8859-1"?>
<!-- Generator: Adobe Illustrator 23.0.6, SVG Export Plug-In . SVG Version: 6.00 Build 0)  -->
<svg version="1.1" id="Filled" xmlns="http://www.w3.org/2000/svg" xmlns:xlink="http://www.w3.org/1999/xlink" x="0px" y="0px"
	 viewBox="0 0 50 50" style="enable-background:new 0 0 50 50;" xml:space="preserve">
<path d="M29,6H21c-0.598,0-1.083-0.485-1.083-1.083v-1.5c0-1.381,1.119-2.417,2.5-2.417h5.168c1.381,0,2.5,1.036,2.5,2.417v1.5
	C30.084,5.515,29.599,6,29,6z"/>
<path d="M33,39.087c0-1.124,0.332-2.509,0.718-4.113C34.289,32.595,35,29.633,35,26c0-2.7-0.641-4.857-1.5-6.793V19h-0.097
	c-0.472-1.036-0.999-2.016-1.525-2.979c-1.344-2.462-2.607-4.81-2.831-8.021h-8.093c-0.224,3.211-1.488,5.559-2.831,8.021
	c-0.526,0.964-1.053,1.943-1.525,2.979H16.5v0.207C15.641,21.143,15,23.3,15,26c0,3.633,0.711,6.595,1.282,8.974
	C16.668,36.578,17,37.963,17,39.087c0,1.377-0.534,2.556-1.051,3.697C15.461,43.86,15,44.878,15,46c0,2.201,1.794,3,3,3h14
	c1.206,0,3-0.799,3-3c0-1.122-0.461-2.14-0.949-3.216C33.534,41.643,33,40.464,33,39.087z M26.648,15.063
	c0.518-0.191,1.094,0.068,1.288,0.585L29.193,19h-2.136l-0.993-2.649C25.87,15.834,26.132,15.258,26.648,15.063z M22.063,15.649
	c0.193-0.518,0.77-0.777,1.288-0.585c0.517,0.194,0.778,0.771,0.585,1.288L22.943,19h-2.136L22.063,15.649z M22.406,43.376
	C22.188,44.356,22,45.204,22,46c0,0.307,0.079,0.669,0.202,1h-2.04C20.068,46.701,20,46.379,20,46c0-1.016,0.221-2.008,0.454-3.058
	C20.723,41.733,21,40.483,21,39c0-1.32-0.201-3.822-0.416-6h2.008C22.805,35.184,23,37.651,23,39
	C23,40.703,22.685,42.123,22.406,43.376z M29.838,47h-2.04C27.921,46.669,28,46.307,28,46c0-0.796-0.188-1.644-0.406-2.624
	C27.315,42.123,27,40.703,27,39c0-1.349,0.195-3.816,0.407-6h2.008C29.201,35.178,29,37.68,29,39c0,1.483,0.277,2.733,0.546,3.942
	C29.779,43.992,30,44.984,30,46C30,46.379,29.932,46.701,29.838,47z M17.466,31C17.196,29.495,17,27.851,17,26
	c0-1.918,0.369-3.523,0.926-5h14.149C32.631,22.477,33,24.082,33,26c0,1.851-0.196,3.495-0.466,5H17.466z"/>
</svg>