<?xml version="1.0" encoding="iso-8859-1"?>
<!-- Generator: Adobe Illustrator 23.0.3, SVG Export Plug-In . SVG Version: 6.00 Build 0)  -->
<svg version="1.1" id="Layer_1" xmlns="http://www.w3.org/2000/svg" xmlns:xlink="http://www.w3.org/1999/xlink" x="0px" y="0px"
	 viewBox="0 0 50 50" style="enable-background:new 0 0 50 50;" xml:space="preserve">
<path style="fill:none;stroke:#000000;stroke-width:2;stroke-linejoin:round;stroke-miterlimit:10;" d="M30,9h5.5
	c1.933,0,3.5,1.567,3.5,3.5c0,1.646-1.136,3.026-2.667,3.4"/>
<path d="M40.373,17.834C38.305,15.397,35.296,14,32.12,14H31V5h1c0.553,0,1-0.447,1-1s-0.447-1-1-1H18c-0.553,0-1,0.447-1,1
	s0.447,1,1,1h1v9h-1.12c-3.176,0-6.185,1.397-8.253,3.834c-2.104,2.479-3.007,5.75-2.479,8.964l3.022,19.356
	C10.247,46.641,10.666,47,11.159,47h27.682c0.493,0,0.912-0.359,0.988-0.846l3.021-19.349C43.38,23.584,42.478,20.313,40.373,17.834
	z M36,38H14c-0.553,0-1-0.447-1-1s0.447-1,1-1h22c0.553,0,1,0.447,1,1S36.553,38,36,38z M14.293,29.707
	c-0.391-0.391-0.391-1.023,0-1.414s1.023-0.391,1.414,0L17,29.586l1.293-1.293c0.391-0.391,1.023-0.391,1.414,0s0.391,1.023,0,1.414
	L18.414,31l1.293,1.293c0.391,0.391,0.391,1.023,0,1.414C19.512,33.902,19.256,34,19,34s-0.512-0.098-0.707-0.293L17,32.414
	l-1.293,1.293C15.512,33.902,15.256,34,15,34s-0.512-0.098-0.707-0.293c-0.391-0.391-0.391-1.023,0-1.414L15.586,31L14.293,29.707z
	 M22.293,29.707c-0.391-0.391-0.391-1.023,0-1.414s1.023-0.391,1.414,0L25,29.586l1.293-1.293c0.391-0.391,1.023-0.391,1.414,0
	s0.391,1.023,0,1.414L26.414,31l1.293,1.293c0.391,0.391,0.391,1.023,0,1.414C27.512,33.902,27.256,34,27,34
	s-0.512-0.098-0.707-0.293L25,32.414l-1.293,1.293C23.512,33.902,23.256,34,23,34s-0.512-0.098-0.707-0.293
	c-0.391-0.391-0.391-1.023,0-1.414L23.586,31L22.293,29.707z M30.293,29.707c-0.391-0.391-0.391-1.023,0-1.414s1.023-0.391,1.414,0
	L33,29.586l1.293-1.293c0.391-0.391,1.023-0.391,1.414,0s0.391,1.023,0,1.414L34.414,31l1.293,1.293
	c0.391,0.391,0.391,1.023,0,1.414C35.512,33.902,35.256,34,35,34s-0.512-0.098-0.707-0.293L33,32.414l-1.293,1.293
	C31.512,33.902,31.256,34,31,34s-0.512-0.098-0.707-0.293c-0.391-0.391-0.391-1.023,0-1.414L31.586,31L30.293,29.707z M38,26H12
	c-0.553,0-1-0.447-1-1s0.447-1,1-1h26c0.553,0,1,0.447,1,1S38.553,26,38,26z"/>
</svg>