<?xml version="1.0" encoding="iso-8859-1"?><!-- Generator: Adobe Illustrator 21.0.0, SVG Export Plug-In . SVG Version: 6.00 Build 0)  --><svg xmlns="http://www.w3.org/2000/svg" xmlns:xlink="http://www.w3.org/1999/xlink" viewBox="0 0 50 50" width="50px" height="50px"><path style="fill:none;stroke:#000000;stroke-width:2;stroke-linecap:round;stroke-linejoin:round;stroke-miterlimit:10;" d="M38.044,26.174c0,0,4.304-7.54,4.86-8.642c0.337-0.668,0.269-1.461-0.171-2.067l-1.963-2.638C40.394,12.307,39.792,12,39.151,12H34"/><path style="fill:none;stroke:#000000;stroke-width:2;stroke-miterlimit:10;" d="M31,31H17c-0.552,0-1-0.448-1-1v-3h16v3C32,30.552,31.552,31,31,31z"/><polygon style="fill:none;stroke:#000000;stroke-width:2;stroke-linecap:round;stroke-linejoin:round;stroke-miterlimit:10;" points="14.619,21.045 7,15 7.833,14 14,12 "/><polygon style="fill:none;stroke:#000000;stroke-width:2;stroke-miterlimit:10;" points="34,12 26,8 22,8 14,12 "/><path d="M15.885,30c-1.009,0-1.862,0.749-1.985,1.742l-1.753,14.026c-0.071,0.562,0.104,1.128,0.479,1.555C13.006,47.753,13.555,48,14.131,48h4.805l1.125-18H15.885z M17.5,35.5c-0.552,0-1-0.448-1-1c0-0.552,0.448-1,1-1s1,0.448,1,1C18.5,35.052,18.052,35.5,17.5,35.5z"/><polygon points="22.064,30 20.939,48 27.061,48 25.936,30 "/><path d="M35.854,45.769l-1.753-14.027C33.978,30.749,33.124,30,32.115,30h-4.176l1.125,18h4.805c0.576,0,1.125-0.247,1.505-0.678C35.75,46.896,35.925,46.33,35.854,45.769z"/><path d="M34.393,11.634C34.016,11.231,33.482,11,32.931,11h-2.861l-1.134,17h3.129c1.049,0,1.926-0.82,1.996-1.867l0.866-12.999C34.964,12.584,34.77,12.037,34.393,11.634z"/><path d="M15.069,11c-0.552,0-1.085,0.231-1.462,0.634s-0.571,0.95-0.534,1.499l0.866,13C14.01,27.18,14.887,28,15.936,28h3.129l-1.134-17H15.069z"/><polygon points="19.936,11 21.069,28 26.931,28 28.064,11 "/><rect x="18" y="46" width="12" height="2"/><path style="stroke:#000000;stroke-width:2;stroke-miterlimit:10;" d="M25,8h-2l-0.761-3.804C22.115,3.577,22.589,3,23.22,3h1.56c0.631,0,1.104,0.577,0.981,1.196L25,8z"/></svg>