<?xml version="1.0" encoding="iso-8859-1"?><!-- Generator: Adobe Illustrator 21.1.0, SVG Export Plug-In . SVG Version: 6.00 Build 0)  --><svg xmlns="http://www.w3.org/2000/svg" xmlns:xlink="http://www.w3.org/1999/xlink" viewBox="0 0 50 50" width="50px" height="50px"><rect x="35" y="23" width="1" height="1"/><rect x="14" y="26" width="1" height="1"/><rect x="14" y="23" width="1" height="1"/><path d="M46.528,23.118c-0.268-0.176-0.565-0.473-0.591-0.639c-0.011-0.07-0.029-0.138-0.053-0.202c-0.121-0.929-0.31-1.866-0.562-2.795c-0.001-0.072-0.011-0.145-0.027-0.215c-0.032-0.134,0.119-0.521,0.306-0.806c0.944-0.876,0.875-1.72,0.643-2.281c-0.232-0.561-0.769-1.202-2.074-1.158c-0.314-0.061-0.703-0.22-0.79-0.363c-0.033-0.054-0.07-0.104-0.111-0.149c-0.469-0.816-1.009-1.618-1.607-2.391c-0.029-0.063-0.063-0.125-0.104-0.182c-0.081-0.111-0.09-0.527-0.026-0.861c0.537-1.17,0.151-1.923-0.278-2.353c-0.429-0.432-1.185-0.819-2.36-0.276c-0.314,0.063-0.734,0.064-0.869-0.034c-0.055-0.04-0.113-0.074-0.174-0.103c-0.78-0.603-1.596-1.148-2.43-1.625c-0.038-0.032-0.079-0.063-0.122-0.089c-0.117-0.072-0.284-0.453-0.353-0.787c0.047-1.288-0.598-1.835-1.157-2.065C33.227,3.51,32.38,3.439,31.5,4.392c-0.265,0.18-0.656,0.339-0.816,0.302c-0.054-0.013-0.107-0.021-0.161-0.025c-0.971-0.265-1.953-0.46-2.923-0.58c-0.042-0.013-0.086-0.022-0.129-0.03c-0.136-0.021-0.436-0.31-0.627-0.592C26.395,2.259,25.589,2,24.983,2c-0.608,0-1.416,0.26-1.864,1.473c-0.176,0.268-0.472,0.566-0.638,0.592c-0.033,0.005-0.066,0.012-0.098,0.02c-0.988,0.123-1.999,0.325-3.008,0.604c-0.036,0.005-0.071,0.011-0.106,0.02c-0.126,0.035-0.521-0.119-0.806-0.307c-0.876-0.944-1.719-0.875-2.282-0.643c-0.561,0.233-1.208,0.783-1.157,2.076c-0.053,0.282-0.208,0.692-0.329,0.768c-0.918,0.514-1.826,1.121-2.699,1.805c-0.02,0.013-0.039,0.025-0.058,0.039c-0.111,0.081-0.525,0.09-0.86,0.024c-1.171-0.535-1.924-0.15-2.354,0.28c-0.429,0.431-0.816,1.186-0.275,2.359c0.065,0.313,0.068,0.732-0.009,0.84c-0.715,0.905-1.347,1.848-1.848,2.75c-0.075,0.118-0.454,0.287-0.784,0.357c-1.287-0.021-1.832,0.6-2.063,1.158c-0.233,0.562-0.302,1.406,0.647,2.286c0.178,0.262,0.339,0.645,0.313,0.765c-0.313,1.106-0.535,2.221-0.653,3.262c-0.023,0.137-0.309,0.438-0.588,0.629C2.258,23.605,2,24.411,2,25.018c0,0.607,0.259,1.415,1.472,1.863c0.264,0.174,0.552,0.457,0.575,0.559c0.125,1.081,0.347,2.191,0.657,3.293c0.032,0.133-0.118,0.52-0.305,0.805c-0.943,0.876-0.875,1.719-0.642,2.28c0.233,0.562,0.773,1.215,2.072,1.158c0.309,0.061,0.684,0.211,0.742,0.292c0.534,0.953,1.162,1.89,1.873,2.792c0.081,0.111,0.089,0.527,0.025,0.862c-0.537,1.171-0.15,1.924,0.279,2.353c0.43,0.431,1.187,0.818,2.362,0.274c0.282-0.059,0.724-0.07,0.867,0.035c0.018,0.013,0.035,0.024,0.053,0.036c0.857,0.669,1.753,1.267,2.672,1.78c0.117,0.072,0.284,0.453,0.353,0.786c-0.047,1.288,0.598,1.835,1.157,2.065c0.563,0.236,1.408,0.305,2.288-0.647c0.265-0.18,0.656-0.338,0.816-0.302c0.037,0.009,0.074,0.016,0.111,0.021c1.008,0.275,2.018,0.476,3.005,0.595c0.032,0.009,0.064,0.016,0.097,0.021c0.136,0.021,0.436,0.31,0.626,0.591c0.449,1.208,1.255,1.467,1.861,1.467c0.609,0,1.417-0.26,1.865-1.477c0.158-0.241,0.462-0.561,0.637-0.588c0.046-0.007,0.092-0.018,0.136-0.03c0.967-0.123,1.947-0.32,2.918-0.587c0.053-0.005,0.105-0.013,0.158-0.025c0.13-0.032,0.521,0.12,0.806,0.307c0.876,0.944,1.72,0.875,2.282,0.643c0.561-0.233,1.208-0.783,1.157-2.076c0.054-0.283,0.212-0.695,0.364-0.788c0.045-0.027,0.088-0.058,0.128-0.092c0.838-0.482,1.653-1.03,2.428-1.634c0.058-0.027,0.113-0.06,0.166-0.097c0.11-0.081,0.528-0.088,0.862-0.024c1.172,0.535,1.923,0.149,2.352-0.279c0.431-0.43,0.819-1.185,0.275-2.362c-0.058-0.282-0.07-0.724,0.035-0.868c0.042-0.058,0.078-0.119,0.106-0.183c0.599-0.778,1.138-1.584,1.604-2.4c0.039-0.044,0.075-0.091,0.105-0.142c0.073-0.117,0.454-0.284,0.788-0.353c1.284,0.029,1.834-0.6,2.066-1.158c0.233-0.562,0.302-1.408-0.65-2.288c-0.162-0.238-0.342-0.643-0.3-0.815c0.018-0.073,0.027-0.146,0.028-0.22c0.251-0.936,0.438-1.874,0.555-2.798c0.023-0.063,0.041-0.128,0.052-0.194c0.022-0.136,0.31-0.436,0.591-0.627C47.742,26.393,48,25.587,48,24.979S47.741,23.565,46.528,23.118z M11.996,27H12v-1h-0.004v-2H12v-1h-0.004v-2H15c1.103,0,2,0.897,2,2v1c0,0.366-0.106,0.705-0.278,1C16.894,25.295,17,25.634,17,26v1c0,1.103-0.897,2-2,2h-3.004V27z M29.235,42.479C27.804,42.824,26.379,43,25,43c-9.925,0-18-8.075-18-18c0-1.379,0.175-2.804,0.521-4.235c0.13-0.536,0.671-0.868,1.207-0.736c0.537,0.129,0.867,0.67,0.737,1.207C9.157,22.513,9,23.779,9,25c0,8.822,7.178,16,16,16c1.221,0,2.488-0.156,3.765-0.465c0.536-0.132,1.077,0.2,1.207,0.736C30.102,41.809,29.771,42.35,29.235,42.479z M23,24v2h-2v1h3v2h-4c-0.552,0-1-0.447-1-1v-6c0-0.553,0.448-1,1-1h4v2h-3v1H23z M31,23h-3v1h2v2h-2v1h3v2h-4c-0.552,0-1-0.447-1-1v-6c0-0.553,0.448-1,1-1h4V23z M35,26v3h-2v-3h-0.004v-2H33v-1h-0.004v-2H36c1.103,0,2,0.897,2,2v1c0,0.366-0.106,0.705-0.278,1C37.894,25.295,38,25.634,38,26v3h-2v-3H35z M37.71,37.707C37.515,37.902,37.259,38,37.003,38s-0.512-0.098-0.708-0.293c-0.39-0.391-0.39-1.023,0-1.414C39.33,33.261,41,29.251,41,25c0-8.822-7.178-16-16-16c-3.76,0-7.418,1.337-10.299,3.765c-0.423,0.356-1.054,0.301-1.409-0.12c-0.356-0.423-0.302-1.054,0.12-1.409C16.653,8.504,20.769,7,25,7c9.925,0,18,8.075,18,18C43,29.785,41.122,34.298,37.71,37.707z"/></svg>