<?xml version="1.0" encoding="iso-8859-1"?>
<!-- Generator: Adobe Illustrator 24.2.3, SVG Export Plug-In . SVG Version: 6.00 Build 0)  -->
<svg version="1.1" xmlns="http://www.w3.org/2000/svg" xmlns:xlink="http://www.w3.org/1999/xlink" x="0px" y="0px"
	 viewBox="0 0 50 50" style="enable-background:new 0 0 50 50;" xml:space="preserve">
<g id="&#x421;&#x43B;&#x43E;&#x439;_1">
</g>
<g id="&#x421;&#x43B;&#x43E;&#x439;_2">
</g>
<g id="&#x421;&#x43B;&#x43E;&#x439;_3">
	<path d="M29,15.324V7.731C29.597,7.386,30,6.739,30,6V4c0-1.103-0.897-2-2-2h-6c-1.103,0-2,0.897-2,2v2
		c0,0.739,0.403,1.386,1,1.731v7.585c-2.394,1.053-6,3.856-6,8.684v21.2c0,1.544,1.256,2.8,2.8,2.8h14.4c1.544,0,2.8-1.256,2.8-2.8
		V26.574c0-0.001,0-0.002,0-0.003V24C35,19.074,31.146,16.301,29,15.324z M22.316,16.948C22.725,16.813,23,16.431,23,16V7
		c0-0.553-0.448-1-1-1V4h6v2c-0.552,0-1,0.447-1,1v9c0,0.431,0.275,0.813,0.684,0.948c0.049,0.018,4.62,1.671,5.242,6.052H17.091
		C17.711,18.559,22.267,16.966,22.316,16.948z"/>
</g>
</svg>