<?xml version="1.0" encoding="iso-8859-1"?>
<!-- Generator: Adobe Illustrator 24.1.1, SVG Export Plug-In . SVG Version: 6.00 Build 0)  -->
<svg version="1.1" id="Layer_1" xmlns="http://www.w3.org/2000/svg" xmlns:xlink="http://www.w3.org/1999/xlink" x="0px" y="0px"
	 viewBox="0 0 50 50" style="enable-background:new 0 0 50 50;" xml:space="preserve">
<path d="M50,27.107c0.006-0.185,0.006-0.946-0.279-2.135c-0.002-0.008-0.004-0.016-0.006-0.024c-0.037-0.154-0.08-0.315-0.127-0.483
	c-0.005-0.017-0.01-0.034-0.015-0.052c-0.047-0.163-0.099-0.332-0.157-0.507c-0.008-0.025-0.017-0.05-0.025-0.075
	c-0.058-0.174-0.122-0.353-0.192-0.538c-0.01-0.026-0.021-0.053-0.031-0.079c-0.073-0.189-0.151-0.382-0.236-0.582
	c-0.009-0.021-0.019-0.042-0.028-0.063c-0.091-0.209-0.188-0.423-0.294-0.643c-0.002-0.004-0.004-0.008-0.006-0.012
	c-0.458-0.948-1.06-1.991-1.867-3.11c-0.744-1.032-1.683-2.018-2.869-3.014l-8.057-6.762l1.425-1.698c0,0,0.101-0.008,0.102-0.009
	l2.463,2.068c0.642,0.539,1.458,0.794,2.294,0.724c0.838-0.073,1.596-0.468,2.135-1.111c1.115-1.328,0.941-3.315-0.387-4.43
	l-2.464-2.068c-2.686-2.253-6.705-1.903-8.962,0.785l-1.424,1.698c-0.385-0.323-0.785-0.659-0.854-0.719
	c-0.025-0.022-0.052-0.044-0.08-0.064c-0.297-0.212-0.685-0.248-1.018-0.088c-2.319,1.118-3.245,3.313-4.061,5.25
	c-0.487,1.157-0.948,2.25-1.651,3.088c-1.197,1.426-2.663,1.991-4.214,2.588c-1.56,0.601-3.172,1.222-4.45,2.733
	c-2.465,2.915-2.253,4.492-2.129,4.906c0.129,0.434,0.567,0.73,0.986,0.713c1.149-0.034,2.168-0.015,3.088,0.044c0,0,0,0,0,0
	c1.067,0.069,1.985,0.199,2.793,0.377c0.064,0.014,0.132,0.027,0.195,0.042c0.219,0.051,0.426,0.108,0.629,0.167
	c0.068,0.02,0.138,0.039,0.204,0.06c0.195,0.061,0.382,0.125,0.562,0.192c0.06,0.022,0.118,0.045,0.176,0.068
	c0.179,0.071,0.353,0.145,0.517,0.223c0.042,0.02,0.082,0.041,0.123,0.061c0.965,0.476,1.689,1.064,2.293,1.725
	c0.014,0.016,0.03,0.031,0.044,0.047c0.117,0.13,0.23,0.263,0.339,0.398c0.006,0.007,0.012,0.015,0.018,0.022
	c0.463,0.575,0.864,1.192,1.277,1.828c0.83,1.27,1.69,2.58,3.1,3.77c1.618,1.355,3.165,2.326,4.592,3.026
	c2.924,1.439,5.331,1.719,6.74,1.719c0.817,0,1.301-0.093,1.356-0.104c0.5-0.083,0.898-0.203,1.226-0.336
	c0.508-0.204,0.833-0.437,1.029-0.624c0.08-0.076,0.145-0.147,0.187-0.2l5.229-6.182c0.257-0.249,0.704-0.858,0.758-2.066
	C50.005,27.483,50.007,27.301,50,27.107z M14.677,21.38c0.212-0.516,0.644-1.28,1.516-2.313c0.947-1.12,2.195-1.601,3.641-2.158
	c1.64-0.631,3.498-1.347,5.027-3.169c0.897-1.07,1.438-2.355,1.962-3.597c0.657-1.56,1.282-3.043,2.548-3.914
	c0.278,0.24,0.638,0.542,1.104,0.932c0.425,0.356,1.055,0.299,1.409-0.124l2.065-2.463c1.548-1.843,4.304-2.083,6.145-0.538
	l2.464,2.068c0.483,0.405,0.546,1.128,0.14,1.612c-0.195,0.234-0.472,0.377-0.776,0.404c-0.303,0.027-0.601-0.066-0.835-0.263
	L38.623,5.79c-0.424-0.356-0.963-0.524-1.515-0.477c-0.552,0.049-1.051,0.309-1.405,0.732l-2.066,2.464
	c-0.354,0.423-0.299,1.054,0.124,1.409l8.822,7.404c0.316,0.265,0.605,0.528,0.881,0.791c-6.979,0.258-13.855-0.817-18.404-1.763
	c-1.52,1.28-3.15,1.9-4.51,2.43c-1.42,0.54-2.24,0.89-2.83,1.58c-0.01,0.01-0.02,0.02-0.03,0.03c-0.278,0.328-0.487,0.7-0.659,1.088
	C16.3,21.42,15.529,21.381,14.677,21.38z"/>
<path d="M15.03,14.79c-0.66,0.45-1.3,0.99-1.89,1.69c-2.93,3.46-2.84,5.73-2.52,6.78l0.27,0.89c-2.16,5.02-1.9,13.95,0.03,18.46
	c0.4,0.79,0.38,1.65-0.08,2.39c-0.85,1.37-3.1,2-4.84,2s-3.99-0.63-4.84-2c-0.46-0.74-0.48-1.6-0.05-2.45
	c0.68-1.61,0.99-4.48,1.32-7.51c0.69-6.35,1.54-14.24,6.56-18.06C10.65,15.71,12.67,14.98,15.03,14.79z"/>
</svg>