<?xml version="1.0" encoding="iso-8859-1"?><!-- Generator: Adobe Illustrator 19.1.1, SVG Export Plug-In . SVG Version: 6.00 Build 0)  --><svg xmlns="http://www.w3.org/2000/svg" xmlns:xlink="http://www.w3.org/1999/xlink" viewBox="0 0 50 50" width="50px" height="50px"><path d="M36,36H10l0.316-0.949C10.725,33.826,11.871,33,13.162,33h19.675c1.291,0,2.438,0.826,2.846,2.051L36,36z"/><path fill="none" stroke="#000000" stroke-width="2" stroke-linecap="round" stroke-linejoin="round" stroke-miterlimit="10" d="M37,15h4c2.761,0,5,2.239,5,5v12c0,2.761-2.239,5-5,5h-4"/><line fill="none" stroke="#000000" stroke-width="2" stroke-linejoin="round" stroke-miterlimit="10" x1="23" y1="11" x2="23" y2="33"/><path d="M32,5H14c-2.967,0-5.431,2.167-5.91,5H7c-0.325,0-0.63,0.158-0.817,0.424s-0.234,0.606-0.125,0.912L8,16.78V45c0,1.654,1.346,3,3,3h24c1.654,0,3-1.346,3-3V11C38,7.691,35.309,5,32,5z M36,45c0,0.552-0.448,1-1,1H11c-0.551,0-1-0.448-1-1V16.607c0-0.114-0.02-0.228-0.058-0.336L8.418,12H9h27V45z"/><circle cx="23" cy="4" r="2"/><rect x="9" y="37" width="28" height="10"/></svg>