<?xml version="1.0" encoding="utf-8"?><!-- Generator: Adobe Illustrator 15.0.0, SVG Export Plug-In . SVG Version: 6.00 Build 0)  --><!DOCTYPE svg PUBLIC "-//W3C//DTD SVG 1.1//EN" "http://www.w3.org/Graphics/SVG/1.1/DTD/svg11.dtd"><svg xmlns="http://www.w3.org/2000/svg" xmlns:xlink="http://www.w3.org/1999/xlink" viewBox="0 0 50 50" width="50px" height="50px"><path d="M34.488,39c-0.091-1.222-0.156-2.583-0.156-4.262c0-1.682,0.155-3.174,0.322-4.738h-5.15C29.818,31.174,30,32.646,30,34.5s-0.182,3.326-0.496,4.5H34.488z"/><path d="M20,34.5c0-1.854,0.182-3.326,0.496-4.5h-1.617h-3.534c0.168,1.564,0.323,3.057,0.323,4.738c0,1.679-0.065,3.04-0.156,4.262h4.984C20.182,37.826,20,36.354,20,34.5z"/><path d="M34.662,41h-5.986c-0.914,1.465-2.221,2-3.676,2s-2.762-0.535-3.675-2h-5.987c-0.018,0.187-0.037,0.372-0.055,0.557c-0.173,1.749-0.336,3.4-0.336,5.598c0,1.625,1.253,2.898,2.853,2.898h14.4c1.6,0,2.853-1.273,2.853-2.898c0-2.197-0.163-3.849-0.336-5.598C34.698,41.372,34.681,41.187,34.662,41z"/><path d="M29,5.083h-8c-0.598,0-1.083-0.485-1.083-1.083V3c0-1.7,1.383-3.083,3.083-3.083h4c1.7,0,3.083,1.383,3.083,3.083v1C30.083,4.598,29.599,5.083,29,5.083z"/><path d="M29.967,15.253l-0.813-8.185C29.102,7.071,29.053,7.083,29,7.083h-8c-0.053,0-0.102-0.013-0.153-0.016l-0.813,8.185c-1.185,1.076-5.086,4.921-5.086,8.9c0,1.409,0.086,2.659,0.196,3.847h6.181c0.914-1.465,2.22-2,3.675-2s2.762,0.535,3.676,2h6.181c0.11-1.188,0.196-2.438,0.196-3.847C35.053,20.174,31.151,16.329,29.967,15.253z"/></svg>