<?xml version="1.0" encoding="utf-8"?><!-- Generator: Adobe Illustrator 19.2.0, SVG Export Plug-In . SVG Version: 6.00 Build 0)  --><svg xmlns="http://www.w3.org/2000/svg" xmlns:xlink="http://www.w3.org/1999/xlink" viewBox="0 0 50 50" width="50px" height="50px"><path d="M46,17.1c0-3.3-1.3-7.1-5.9-7.1H40c-1,0-1.9,0.2-2.7,0.4c0.2-1.2,0.4-2.2,0.7-3.1c0.2-0.5-0.1-1-0.5-1.2C34,4.5,29.9,5.2,26.9,5.7C25.7,5.8,24.7,6,24,6c-2.6,0-4.9-1-7.1-2c-2.2-1-4.4-2-6.9-2C4.5,2,4,4.6,4,4.9c0,0.3,0.1,0.7,0.4,0.9c2.8,2.2,3.9,6,3.7,12.1c0,0,0,0,0,0c-0.1,2.4-0.4,4.7-0.7,6.7C7.2,26.2,7,27.7,7,28.8c0,12.7,6.7,17.6,6.9,17.8c1.6,1.4,2.7,1.5,3.1,1.4h10.9c0.1,0,0.1,0,0.2,0c0.5,0,1.6-0.2,2.9-1.4c0.7-0.5,5.9-4.6,6.8-14.5C42.4,28.9,46,21.2,46,17.1z M40,14c1.2,0,2,1.2,2,3c0,2.6-1.8,7.4-4.2,10c0,0,0,0,0-0.1c-0.3-2.2-0.7-5.9-0.8-9.7c0,0,0,0,0-0.1c0-0.9,0-1.8,0-2.7C37.8,14.2,38.9,14,40,14z M29.8,45c0,0-0.1,0.1-0.1,0.1c-0.9,0.9-1.5,0.9-1.5,1c-0.1,0-0.1,0-0.1,0c0,0,0,0-0.1,0l-11,0c0,0-0.6,0-1.8-1c-0.1,0-6.2-4.5-6.2-16.2c0-0.9,0.2-2.4,0.4-4C9.6,23,9.9,21.1,10,19h25c0.1,3.3,0.5,6.3,0.8,8.2C35.9,28,36,28.8,36,29C36,40.6,29.9,44.9,29.8,45z"/></svg>