<?xml version="1.0" encoding="iso-8859-1"?>
<!-- Generator: Adobe Illustrator 23.0.3, SVG Export Plug-In . SVG Version: 6.00 Build 0)  -->
<svg version="1.1" id="Layer_1" xmlns="http://www.w3.org/2000/svg" xmlns:xlink="http://www.w3.org/1999/xlink" x="0px" y="0px"
	 viewBox="0 0 50 50" style="enable-background:new 0 0 50 50;" xml:space="preserve">
<path style="fill:none;stroke:#000000;stroke-width:2.1667;stroke-linecap:round;stroke-linejoin:round;stroke-miterlimit:10;" d="
	M44,20v-1c0-0.552-0.448-1-1-1h-3c-0.552,0-1,0.448-1,1v1H44z"/>
<path style="fill:none;stroke:#000000;stroke-width:2.1056;stroke-linecap:round;stroke-linejoin:round;stroke-miterlimit:10;" d="
	M40,20l-1,7c0,0-3,2.231-3,5c0,2.718,1,4.538,1,7c0,3.765-1,5.744-1,8.769C36,48.487,36.537,49,37.2,49l8.8,0
	c0.663,0,1.2-0.513,1.2-1.231c0-3.025-1.2-5.005-1.2-8.769c0-2.462,1-4.282,1-7c0-2.769-3-5-3-5l-1-7"/>
<path d="M33,47.77c0-1.708,0.26-3.097,0.51-4.439C33.762,41.981,34,40.707,34,39c0-0.864-0.188-1.696-0.407-2.658
	C33.315,35.117,33,33.729,33,32c0-2.97,1.929-5.313,3.188-6.526l0.51-3.571C36.268,21.383,36,20.726,36,20v-1c0-2.206,1.794-4,4-4
	h2.994L43,2H7v46h26.022C33.018,47.922,33,47.849,33,47.77z M15,9h20c0.553,0,1,0.447,1,1s-0.447,1-1,1H15c-0.553,0-1-0.447-1-1
	S14.447,9,15,9z M26,40H15c-0.553,0-1-0.447-1-1s0.447-1,1-1h11c0.553,0,1,0.447,1,1S26.553,40,26,40z M30,35H15
	c-0.553,0-1-0.447-1-1s0.447-1,1-1h15c0.553,0,1,0.447,1,1S30.553,35,30,35z M14,29c0-0.553,0.447-1,1-1h11c0.553,0,1,0.447,1,1
	s-0.447,1-1,1H15C14.447,30,14,29.553,14,29z M30,25H15c-0.553,0-1-0.447-1-1s0.447-1,1-1h15c0.553,0,1,0.447,1,1S30.553,25,30,25z
	 M30,16H15c-0.553,0-1-0.447-1-1s0.447-1,1-1h15c0.553,0,1,0.447,1,1S30.553,16,30,16z"/>
<path d="M41.5,43c-1.38,0-2.5-1-2.5-4.5s1.12-4.5,2.5-4.5s2.5,1,2.5,4.5S42.88,43,41.5,43z"/>
<path d="M46,40h-8.8c-0.552,0-1-0.671-1-1.5s0.448-1.5,1-1.5H46c0.552,0,1,0.671,1,1.5S46.552,40,46,40z"/>
</svg>