<?xml version="1.0" encoding="iso-8859-1"?><!-- Generator: Adobe Illustrator 20.1.0, SVG Export Plug-In . SVG Version: 6.00 Build 0)  --><svg xmlns="http://www.w3.org/2000/svg" xmlns:xlink="http://www.w3.org/1999/xlink" viewBox="0 0 50 50" width="50px" height="50px"><line style="fill:none;stroke:#000000;stroke-width:2;stroke-linecap:round;stroke-miterlimit:10;" x1="22" y1="47" x2="4" y2="30"/><g><g><path style="fill:none;stroke:#000000;stroke-width:2;stroke-linecap:round;stroke-miterlimit:10;" d="M45,3H23c0,0-2,10.003-2,15c0,0.47,0,1,0,1c0,6.075,4.925,11,11,11h4c6.075,0,11-4.925,11-11c0,0,0-0.602,0-1C47,13.041,45,3,45,3z"/></g></g><line style="fill:none;stroke:#000000;stroke-width:2;stroke-linecap:round;stroke-miterlimit:10;" x1="34" y1="30" x2="34" y2="39"/><path style="fill:none;stroke:#000000;stroke-width:2;stroke-linecap:round;stroke-miterlimit:10;" d="M32.846,43H43c0-1.169-0.812-2.18-1.952-2.434L34,39l-4.183,0.929"/><path d="M32.846,43H43c0-1.169-0.812-2.18-1.952-2.434L34,39l-4.183,0.929L32.846,43z"/><path style="fill:none;stroke:#000000;stroke-width:2;stroke-linecap:round;stroke-miterlimit:10;" d="M37,47L19,30H4c0,0-1,3.109-1,9c0,4.482,1.249,8,1.249,8H22H37z"/><path d="M4,30c0,0-1,3.109-1,9c0,4.482,1.249,8,1.249,8H22L4,30z"/><path d="M23.393,39.457c-0.597,0.19-1.69-0.415-2.442-1.352c-0.752-0.937-0.877-1.85-0.281-2.041c0.597-0.19,1.69,0.415,2.442,1.352C23.864,38.354,23.99,39.267,23.393,39.457z"/><path d="M15.154,34.91c-0.431,0.137-1.221-0.3-1.764-0.977c-0.543-0.677-0.634-1.337-0.203-1.474s1.221,0.3,1.764,0.977C15.494,34.113,15.585,34.773,15.154,34.91z"/><path d="M24.371,43.494c-0.431,0.137-1.221-0.3-1.764-0.977c-0.543-0.677-0.634-1.337-0.203-1.474c0.431-0.137,1.221,0.3,1.764,0.977C24.711,42.696,24.802,43.356,24.371,43.494z"/><path d="M21.377,13C21.155,14.838,21,16.612,21,18c0,0.47,0,1,0,1c0,6.075,4.925,11,11,11h4c6.075,0,11-4.925,11-11c0,0,0-0.603,0-1c0-1.381-0.155-3.157-0.379-5H21.377z"/></svg>