<?xml version="1.0" encoding="utf-8"?><!-- Generator: Adobe Illustrator 15.0.0, SVG Export Plug-In . SVG Version: 6.00 Build 0)  --><!DOCTYPE svg PUBLIC "-//W3C//DTD SVG 1.1//EN" "http://www.w3.org/Graphics/SVG/1.1/DTD/svg11.dtd"><svg xmlns="http://www.w3.org/2000/svg" xmlns:xlink="http://www.w3.org/1999/xlink" viewBox="0 0 50 50" width="50px" height="50px"><path d="M28,15c-0.553,0-1-0.448-1-1c0-2.614,1.284-3.757,2.316-4.676C30.261,8.483,31.008,7.818,31.008,6c0-0.552,0.447-1,1-1s1,0.448,1,1c0,2.716-1.31,3.882-2.362,4.818C29.69,11.669,29,12.283,29,14C29,14.552,28.553,15,28,15z"/><path d="M22.016,14c-0.552,0-1-0.448-1-1c0-3.718,1.755-5.29,3.303-6.677C25.758,5.034,27,3.921,27,1c0-0.552,0.447-1,1-1s1,0.448,1,1c0,3.815-1.778,5.408-3.347,6.813c-1.415,1.268-2.637,2.363-2.637,5.188C23.016,13.552,22.568,14,22.016,14z"/><path d="M40,17H26.233c0.202,0.478,0.331,0.814,0.346,0.854c0.692,1.469,1.674,6.968,1.795,9.535c0,0.007-0.003,0.014-0.003,0.021l1.961-0.226c0.797-0.09,1.52,0.482,1.609,1.275l0.664,5.771c0.092,0.797-0.481,1.522-1.275,1.612l-5.771,0.664c-0.796,0.093-1.519-0.481-1.609-1.274l-0.666-5.773c-0.092-0.798,0.484-1.52,1.278-1.611l1.852-0.213c-0.011-0.052-0.034-0.098-0.037-0.152c-0.124-2.629-1.122-7.751-1.637-8.85c-0.137-0.357-0.391-0.975-0.693-1.632H12c-0.552,0-1,0.448-1,1c0,15.499,3.979,28.603,9.676,31.866c0.151,0.086,0.323,0.132,0.497,0.132c0.002,0,0.004,0,0.007,0l9.771-0.066c0.175-0.001,0.346-0.048,0.497-0.136C37.348,46.354,41,30.612,41,18C41,17.448,40.553,17,40,17z"/><path d="M43.583,22.999c-0.272,0-0.528,0.026-0.776,0.063c-0.05,0.689-0.108,1.388-0.178,2.096c0.292-0.091,0.603-0.158,0.954-0.158c1.113,0,2.414,0.695,2.414,2.655c0,3.437-2.104,4.589-4.61,5.803c-0.172,0.843-0.357,1.679-0.558,2.504c0.36-0.187,0.734-0.368,1.114-0.552c2.697-1.301,6.054-2.92,6.054-7.755C47.997,24.456,45.709,22.999,43.583,22.999z"/></svg>