<?xml version="1.0" encoding="utf-8"?><!-- Generator: Adobe Illustrator 15.0.0, SVG Export Plug-In . SVG Version: 6.00 Build 0)  --><!DOCTYPE svg PUBLIC "-//W3C//DTD SVG 1.1//EN" "http://www.w3.org/Graphics/SVG/1.1/DTD/svg11.dtd"><svg xmlns="http://www.w3.org/2000/svg" xmlns:xlink="http://www.w3.org/1999/xlink" viewBox="0 0 50 50" width="50px" height="50px"><path d="M29.748,50H16.252c-1.424,0-2.619-1.186-2.721-2.698c-1.177-17.394-3.723-25.809-4.476-27.974c-0.106-0.306-0.058-0.644,0.129-0.908S9.676,18,10,18h26c0.323,0,0.627,0.157,0.815,0.42c0.188,0.264,0.235,0.602,0.129,0.908c-0.752,2.165-3.299,10.58-4.476,27.974C32.367,48.814,31.172,50,29.748,50z"/><path d="M37.445,25.036c-0.138,0.605-0.281,1.278-0.426,1.99c3.333,0.134,4.978,1.452,4.978,4.051c0,1.117-0.021,4.271-6.512,5.535c-0.083,0.675-0.167,1.359-0.247,2.079c5.809-0.977,8.759-3.528,8.759-7.614C43.997,28.927,43.11,25.401,37.445,25.036z"/><path d="M25,16c-0.552,0-1-0.448-1-1c0-2.614,1.284-3.757,2.316-4.676C27.261,9.483,28.008,8.818,28.008,7c0-0.552,0.447-1,1-1s1,0.448,1,1c0,2.716-1.31,3.882-2.362,4.818C26.69,12.669,26,13.283,26,15C26,15.552,25.552,16,25,16z"/><path d="M18.016,15c-0.552,0-1-0.448-1-1c0-3.718,1.755-5.29,3.303-6.677C21.758,6.034,23,4.921,23,2c0-0.552,0.448-1,1-1s1,0.448,1,1c0,3.815-1.778,5.408-3.347,6.813c-1.415,1.268-2.637,2.363-2.637,5.188C19.016,14.552,18.568,15,18.016,15z"/></svg>