<svg xmlns="http://www.w3.org/2000/svg"  viewBox="0 0 50 50" width="50px" height="50px">    <path d="M 13 2 L 13 4 L 23.125 4 L 23.8125 8.0625 C 16.095376 8.671739 10 15.128715 10 23 A 1.0001 1.0001 0 0 0 11 24 L 12.125 24 L 12.625 28 L 26 28 C 26.553 28 27 28.447 27 29 C 27 29.553 26.553 30 26 30 L 12.875 30 L 15 47.125 C 15.062 47.625 15.496 48 16 48 L 34 48 C 34.504 48 34.938 47.625 35 47.125 L 37.125 30 L 31 30 C 30.447 30 30 29.553 30 29 C 30 28.447 30.447 28 31 28 L 37.375 28 L 37.875 24 L 39 24 A 1.0001 1.0001 0 0 0 40 23 C 40 15.022945 33.739297 8.4881633 25.875 8.03125 L 25 2.84375 A 1.0001 1.0001 0 0 0 24 2 L 13 2 z M 25 10 C 31.849155 10 37.389032 15.285836 37.90625 22 L 37 22 L 13 22 L 12.09375 22 C 12.610968 15.285836 18.150845 10 25 10 z"/></svg>