<?xml version="1.0" encoding="utf-8"?><!-- Generator: Adobe Illustrator 18.1.1, SVG Export Plug-In . SVG Version: 6.00 Build 0)  --><svg xmlns="http://www.w3.org/2000/svg" xmlns:xlink="http://www.w3.org/1999/xlink" viewBox="0 0 50 50" width="50px" height="50px"><path d="M35.2,43.9c-2.5-0.4-9.2-2.3-9.2-5.8V32c7.4-0.5,13-6,13-13c0-8.1-2.9-16-3.1-16.4L35.7,2H14.3l-0.2,0.6C13.9,3,11,10.9,11,19c0,7,5.6,12.5,13,13v6.2c0,3.5-6.6,5.4-9.2,5.8C13.4,44.3,12,45.5,12,47c0,0.6,0.4,1,1,1h24c0,0,0,0,0,0c0.6,0,1-0.4,1-1c0-0.1,0-0.2,0-0.3C37.8,45.3,36.5,44.3,35.2,43.9z M15.7,4h18.6c0.4,1.2,1.2,3.8,1.9,7c0,0,0,0-0.1,0H13.9C14.5,7.8,15.3,5.2,15.7,4z"/></svg>