<?xml version="1.0" encoding="iso-8859-1"?><!-- Generator: Adobe Illustrator 19.2.0, SVG Export Plug-In . SVG Version: 6.00 Build 0)  --><svg xmlns="http://www.w3.org/2000/svg" xmlns:xlink="http://www.w3.org/1999/xlink" viewBox="0 0 50 50" width="50px" height="50px"><path d="M35.486,15.534l-1.002-0.696l-0.485,1.119C33.681,16.69,30.067,18,24,18c-5.634,0-9.417-1.17-9.981-2.015l-0.593-0.888l-0.848,0.65C7.691,19.502,5,25.628,5,33c0,8.552,8.383,15,19.5,15C35.435,48,44,41.411,44,33C44,25.553,40.977,19.351,35.486,15.534z"/><path style="fill:none;stroke:#000000;stroke-width:2;stroke-linecap:round;stroke-miterlimit:10;" d="M33,12.5c0,1.381-4.029,2.5-9,2.5s-9-1.119-9-2.5"/><path style="fill:none;stroke:#000000;stroke-width:2;stroke-linecap:round;stroke-miterlimit:10;" d="M35.087,6L34.05,3.245"/><path d="M33.628,11.41c-0.841-1.151-3.106-1.82-5.583-2.149l-1.05,1.89c2.981,0.305,4.706,1.012,5.018,1.439v0.001c0.533,0.734,1.905,2.908,1.993,3.367C33.727,16.671,30.044,18,24,18s-9.727-1.329-10.002-1.958c0.084-0.543,1.456-2.717,1.989-3.452C16.393,12.035,19.158,11,24,11c0.275,0,0.518,0.014,0.779,0.021l1.091-1.965C25.232,9.019,24.601,9,24,9c-3.629,0-8.328,0.631-9.627,2.408C14.35,11.441,12,14.682,12,16c0,3.157,7.543,4,12,4s12-0.843,12-4C36,14.692,33.689,11.495,33.628,11.41z"/><path style="fill:none;stroke:#000000;stroke-width:2;stroke-linecap:round;stroke-miterlimit:10;" d="M26.183,14.671l3.21-5.777c1.038-1.868,2.706-3.306,4.707-4.056L39,3"/></svg>