<?xml version="1.0" encoding="utf-8"?><!-- Generator: Adobe Illustrator 15.0.0, SVG Export Plug-In . SVG Version: 6.00 Build 0)  --><!DOCTYPE svg PUBLIC "-//W3C//DTD SVG 1.1//EN" "http://www.w3.org/Graphics/SVG/1.1/DTD/svg11.dtd"><svg xmlns="http://www.w3.org/2000/svg" xmlns:xlink="http://www.w3.org/1999/xlink" viewBox="0 0 50 50" width="50px" height="50px"><path d="M45.904,11.573C45.739,11.223,45.387,11,45,11H15.688h-0.812h-1.813v0.008c-0.244-0.015-0.494,0.052-0.698,0.219c-0.426,0.351-0.488,0.981-0.137,1.408l15.814,19.236C28.026,31.939,28,32.004,28,32.077v11.087C23.823,43.94,16,45.82,16,49c0,0.553,0.448,1,1,1h24c0.007-0.001,0.015,0,0.02,0c0.553,0,1-0.447,1-1c0-0.099-0.014-0.194-0.041-0.285C41.529,45.707,34.05,43.917,30,43.164V32.077c0-0.073-0.026-0.138-0.042-0.207l15.814-19.235C46.019,12.336,46.069,11.922,45.904,11.573z M40.417,16H17.583l-2.466-3h27.767L40.417,16z"/><path d="M12.177,15.723c-0.596,1.435-1.434,2.779-2.341,2.152c-1.581-1.092,1.819-4.507,2.473-5.141l-0.078-0.095c-1.016,0.082-5.951,0.382-5.446-1.586c0.457-1.78,3.989-0.117,5.302,0.572c0.053-0.13,0.13-0.249,0.239-0.35c-0.565-1.46-1.766-5.042,0.003-5.232c1.751-0.188,1.359,3.491,1.114,5.065c0.123,0.061,0.237,0.144,0.33,0.257l0.028,0.034c1.173-0.977,4.169-3.241,5.005-1.631c0.251,0.483,0.077,0.89-0.324,1.232h6.564C24.534,4.738,19.346-0.1,13-0.1C6.328-0.1,0.9,5.328,0.9,12S6.328,24.1,13,24.1c1.801,0,3.533-0.397,5.122-1.146L12.177,15.723z"/></svg>