<?xml version="1.0" encoding="iso-8859-1"?>
<!-- Generator: Adobe Illustrator 23.0.3, SVG Export Plug-In . SVG Version: 6.00 Build 0)  -->
<svg version="1.1" xmlns="http://www.w3.org/2000/svg" xmlns:xlink="http://www.w3.org/1999/xlink" x="0px" y="0px"
	 viewBox="0 0 50 50" style="enable-background:new 0 0 50 50;" xml:space="preserve">
<g id="Layer_10" style="display:none;">
</g>
<g id="filled">
</g>
<g id="outlined">
</g>
<g id="rounded">
</g>
<g id="two_x5F_tone">
</g>
<g id="sharp">
</g>
<g id="win10">
</g>
<g id="ios_x5F_out">
</g>
<g id="ios_x5F_filled">
	<path d="M33,38h-8h-8c-3.94,0-6.88-2.42-7.19-5.41v9.62C9.92,43.23,10.78,44,11.8,44H25h13.2c1.02,0,1.88-0.77,1.99-1.79v-9.62
		C39.88,35.58,36.94,38,33,38z"/>
	<path style="fill:none;stroke:#000000;stroke-width:2;stroke-linejoin:round;stroke-miterlimit:10;" d="M44,6H6l3.812,36.209
		C9.919,43.227,10.777,44,11.801,44h26.399c1.024,0,1.882-0.773,1.989-1.791L44,6z"/>
	<path d="M38.88,26l-0.68,6.41C37.99,34.46,35.75,36,33,36H17c-2.75,0-4.99-1.54-5.2-3.59L11.12,26H15v5h8v-5h4.23l-1.29,3.03
		l7.09,3.03L35.62,26H38.88z"/>
	
		<rect x="15" y="23" style="fill:none;stroke:#000000;stroke-width:2;stroke-linecap:round;stroke-linejoin:round;stroke-miterlimit:10;" width="8" height="8"/>
	
		<rect x="27.144" y="23.144" transform="matrix(0.3939 -0.9191 0.9191 0.3939 -6.0289 44.8568)" style="fill:none;stroke:#000000;stroke-width:2;stroke-linecap:round;stroke-linejoin:round;stroke-miterlimit:10;" width="7.712" height="7.712"/>
</g>
<g id="color">
</g>
</svg>