<?xml version="1.0" encoding="iso-8859-1"?><!-- Generator: Adobe Illustrator 22.1.0, SVG Export Plug-In . SVG Version: 6.00 Build 0)  --><svg xmlns="http://www.w3.org/2000/svg" xmlns:xlink="http://www.w3.org/1999/xlink" viewBox="0 0 50 50" width="50px" height="50px"><g></g><ellipse transform="matrix(0.9999 -0.0109 0.0109 0.9999 -0.3091 0.2742)" cx="25" cy="28.5" rx="3.005" ry="4.5"/><path d="M38,8H12c-3.343,0-3.91,3.01-4,5c-0.018,0.391,0-0.284,0,0c0,0.553,0.448,1,1,1h32c0.552,0,1-0.447,1-1c0-0.285,0.018,0.393,0,0C41.909,11.01,41.341,8,38,8z"/><path d="M37.656,6l-0.182-0.729C37.139,3.935,35.942,3,34.563,3H15.427c-1.371,0-2.566,0.928-2.906,2.256L12.33,6H37.656z"/><path d="M10.249,16l3.727,29.045C14.146,46.142,15.197,47,16.369,47h17.263c1.171,0,2.223-0.858,2.397-1.982L37.186,36l2.566-20H10.249z M35.683,32h-4.155H31.39c-0.235,0.655-0.515,1.284-0.88,1.844c-1.293,1.982-3.268,3.132-5.418,3.155c-0.023,0-0.046,0-0.069,0c-2.122,0-4.093-1.104-5.415-3.037c-0.404-0.59-0.715-1.26-0.972-1.962h-0.114h-4.204l-0.898-7h5.064h0.105c1.061-2.944,3.448-4.968,6.318-5c0.044-0.006,0.046,0,0.068,0c2.887,0,5.323,2.025,6.414,5h0.101h5.091L35.683,32z"/></svg>