<?xml version="1.0" encoding="iso-8859-1"?>
<!-- Generator: Adobe Illustrator 24.0.0, SVG Export Plug-In . SVG Version: 6.00 Build 0)  -->
<svg version="1.1" id="Layer_1" xmlns="http://www.w3.org/2000/svg" xmlns:xlink="http://www.w3.org/1999/xlink" x="0px" y="0px"
	 viewBox="0 0 50 50" style="enable-background:new 0 0 50 50;" xml:space="preserve">
<path style="fill:none;stroke:#000000;stroke-width:2;stroke-linecap:round;stroke-linejoin:round;stroke-miterlimit:10;" d="M2,21
	L25,3l23,18"/>
<path style="fill:none;stroke:#000000;stroke-width:2;stroke-linecap:round;stroke-linejoin:round;stroke-miterlimit:10;" d="
	M45,18.667V47H5V18.667"/>
<path d="M24.987,40.192c-0.454,0.216-1.014,0.379-1.656,0.567c-1.244,0.363-2.294,0.71-2.867,1.241h9.071
	c-0.572-0.531-1.623-0.877-2.866-1.24c-0.643-0.188-1.203-0.351-1.657-0.567C25.004,40.192,24.995,40.192,24.987,40.192z"/>
<path d="M31.983,24H18.017c0.181,4.518,3.178,8,6.983,8C28.87,32,31.808,28.588,31.983,24z"/>
<path d="M30.313,17H19.687c-0.464,1.243-1.165,3.317-1.497,5h13.621C31.478,20.317,30.778,18.243,30.313,17z"/>
<path d="M25,3L5,18.65V47h40V18.65L25,3z M27.229,38.84C29.129,39.394,32,40.231,32,43c0,0.552-0.448,1-1,1H19c-0.552,0-1-0.448-1-1
	c0-2.769,2.871-3.606,4.771-4.161c0.379-0.11,0.896-0.261,1.229-0.396v-4.508c-4.559-0.56-8-4.909-8-10.364
	c0-2.732,1.987-7.731,2.071-7.942C18.224,15.249,18.591,15,19,15h12c0.409,0,0.776,0.249,0.929,0.628
	C32.013,15.84,34,20.839,34,23.571c0,5.552-3.375,9.826-8,10.368v4.505C26.333,38.579,26.85,38.729,27.229,38.84z"/>
</svg>