<?xml version="1.0" encoding="iso-8859-1"?>
<!-- Generator: Adobe Illustrator 23.0.3, SVG Export Plug-In . SVG Version: 6.00 Build 0)  -->
<svg version="1.1" xmlns="http://www.w3.org/2000/svg" xmlns:xlink="http://www.w3.org/1999/xlink" x="0px" y="0px"
	 viewBox="0 0 50 50" style="enable-background:new 0 0 50 50;" xml:space="preserve">
<g id="Layer_10" style="display:none;">
	<g style="display:inline;opacity:0.05;">
		<g>
			<circle style="fill:#FFFFFF;" cx="25" cy="25" r="21.5"/>
			<path d="M25,4c11.579,0,21,9.421,21,21s-9.421,21-21,21S4,36.579,4,25S13.421,4,25,4 M25,3C12.85,3,3,12.85,3,25s9.85,22,22,22
				s22-9.85,22-22S37.15,3,25,3L25,3z"/>
		</g>
		<g>
			<rect x="5.5" y="5.5" style="fill:#FFFFFF;" width="39" height="39"/>
			<path d="M44,6v38H6V6H44 M45,5H5v40h40V5L45,5z"/>
		</g>
	</g>
</g>
<g id="filled">
</g>
<g id="outlined">
</g>
<g id="rounded">
</g>
<g id="two_x5F_tone">
</g>
<g id="sharp">
</g>
<g id="win10">
</g>
<g id="ios_x5F_out">
</g>
<g id="ios_x5F_filled">
	<path d="M6.075,11.984c0.187,0.768,0.777,1.407,1.517,1.684c0.709,0.266,1.368,0.184,1.924-0.079L19,10l5,1l5.2,5.299l-7.083,2.647
		l0,0c-0.894,0.359-1.531,1.222-1.55,2.239c-0.011,0.608,0.275,1.196,0.705,1.626c0.986,0.987,1.737,0.976,2.416,0.788l0.004,0.013
		l12.622-2.464l0.037-0.015c0.646-0.131,1.246-0.387,1.773-0.743l4.315-2.115c0.343-0.168,0.56-0.516,0.56-0.898V6.833
		c0-0.791-0.876-1.269-1.541-0.841L38.137,8.13c-0.974,0.487-2.114,0.52-3.115,0.09L23.186,3.317C22.833,3.121,22.432,3,22,3
		c-0.396,0-0.765,0.102-1.097,0.268l-0.02,0L7.539,9.082C6.461,9.521,5.762,10.695,6.075,11.984z"/>
	<path d="M35.12,35.42l-3,10.51L7.97,41.62c-0.28-0.05-0.53-0.21-0.68-0.45c-0.15-0.24-0.19-0.53-0.11-0.8l3.86-13.64
		c0.08-0.28,0.27-0.5,0.52-0.63c0.26-0.12,0.56-0.13,0.82-0.02L35.12,35.42z"/>
	<path d="M39.91,39.25l-1.66,5.99c-0.25,0.85-1.03,1.41-1.91,1.41c-0.12,0-0.23-0.01-0.35-0.03l-1.89-0.34l2.89-10.09l1.73,0.71
		C39.67,37.29,40.18,38.3,39.91,39.25z"/>
</g>
<g id="color">
</g>
</svg>