<?xml version="1.0" encoding="iso-8859-1"?><!-- Generator: Adobe Illustrator 21.1.0, SVG Export Plug-In . SVG Version: 6.00 Build 0)  --><svg xmlns="http://www.w3.org/2000/svg" xmlns:xlink="http://www.w3.org/1999/xlink" viewBox="0 0 50 50" width="50px" height="50px"><path style="fill:none;stroke:#000000;stroke-width:2;stroke-linejoin:round;stroke-miterlimit:10;" d="M44.086,12L38,5.914l1.815-1.815c1.465-1.465,3.841-1.465,5.307,0l0.78,0.78c1.465,1.465,1.465,3.841,0,5.307L44.086,12z"/><circle cx="44" cy="19" r="1"/><circle cx="42" cy="25" r="1"/><circle cx="31" cy="8" r="1"/><circle cx="25" cy="5" r="1"/><circle cx="47" cy="23" r="1"/><path d="M26.735,23.896c-0.298-0.1-0.532-0.334-0.632-0.632l-2.588-7.771c-0.185,0.062-0.371,0.123-0.555,0.185c-3.42,1.134-6.957,2.307-10.591,5.94L3.197,30.79c-1.594,1.594-1.594,4.187,0,5.78L13.43,46.803c0.797,0.797,1.844,1.195,2.89,1.195c1.047,0,2.094-0.398,2.891-1.195l9.171-9.172c3.635-3.634,4.808-7.171,5.941-10.592c0.06-0.181,0.12-0.362,0.181-0.544L26.735,23.896z M17.131,40.979l-8.11-8.11l6.299-6.299l8.11,8.11L17.131,40.979z M23,29c-1.105,0-2-0.895-2-2c0-1.105,0.895-2,2-2s2,0.895,2,2C25,28.105,24.105,29,23,29z"/><path d="M25.405,14.835l2.439,7.322l7.317,2.449c0.425-1.155,0.919-2.333,1.566-3.547l-7.786-7.786C27.731,13.918,26.557,14.411,25.405,14.835z"/><path d="M37.904,5.815l-2.826,2.827c-1.521,1.521-2.967,2.67-4.361,3.579l7.062,7.062c0.909-1.393,2.057-2.839,3.579-4.361l2.834-2.833L37.904,5.815z"/></svg>