<?xml version="1.0" encoding="iso-8859-1"?>
<!-- Generator: Adobe Illustrator 24.1.2, SVG Export Plug-In . SVG Version: 6.00 Build 0)  -->
<svg version="1.1" id="Layer_1" xmlns="http://www.w3.org/2000/svg" xmlns:xlink="http://www.w3.org/1999/xlink" x="0px" y="0px"
	 viewBox="0 0 50 50" style="enable-background:new 0 0 50 50;" xml:space="preserve">
<path d="M40,7H10C9.448,7,9,7.447,9,8v5c0,0.553,0.448,1,1,1h30c0.552,0,1-0.447,1-1V8C41,7.447,40.552,7,40,7z"/>
<path d="M38.337,18.313C38.148,18.113,37.886,18,37.611,18H12.333c-0.275,0-0.538,0.113-0.727,0.313
	c-0.189,0.2-0.287,0.469-0.272,0.743l1.457,26.222C12.938,47.926,15.131,50,17.784,50h14.432c2.653,0,4.846-2.074,4.993-4.725
	l1.401-26.222C38.625,18.779,38.526,18.511,38.337,18.313z M19,45c-1.105,0-2-0.895-2-2s0.895-2,2-2s2,0.895,2,2S20.105,45,19,45z
	 M20,38c0-1.105,0.895-2,2-2s2,0.895,2,2s-0.895,2-2,2S20,39.105,20,38z M25,45c-1.105,0-2-0.895-2-2s0.895-2,2-2s2,0.895,2,2
	S26.105,45,25,45z M26,38c0-1.105,0.895-2,2-2s2,0.895,2,2s-0.895,2-2,2S26,39.105,26,38z M31,45c-1.105,0-2-0.895-2-2s0.895-2,2-2
	s2,0.895,2,2S32.105,45,31,45z"/>
<line style="fill:none;stroke:#000000;stroke-width:2;stroke-linecap:round;stroke-linejoin:round;stroke-miterlimit:10;" x1="37.667" y1="19" x2="38" y2="13"/>
<line style="fill:none;stroke:#000000;stroke-width:2;stroke-linecap:round;stroke-linejoin:round;stroke-miterlimit:10;" x1="12" y1="13" x2="12.333" y2="19"/>
<path d="M27,0h-4c-0.552,0-1,0.448-1,1v18h6V1C28,0.448,27.552,0,27,0z"/>
</svg>