<?xml version="1.0" encoding="iso-8859-1"?>
<!-- Generator: Adobe Illustrator 23.0.3, SVG Export Plug-In . SVG Version: 6.00 Build 0)  -->
<svg version="1.1" xmlns="http://www.w3.org/2000/svg" xmlns:xlink="http://www.w3.org/1999/xlink" x="0px" y="0px"
	 viewBox="0 0 50 50" style="enable-background:new 0 0 50 50;" xml:space="preserve">
<g id="filled">
</g>
<g id="outlined">
</g>
<g id="rounded">
</g>
<g id="two_x5F_tone">
</g>
<g id="sharp">
</g>
<g id="win10">
</g>
<g id="ios_x5F_out">
</g>
<g id="ios_x5F_filled">
	<path d="M35,6H15c-1.103,0-2-0.897-2-2s0.897-2,2-2h20c1.103,0,2,0.897,2,2S36.103,6,35,6z"/>
	<path d="M21,45h17l-0.595,0.949C36.997,47.176,35.852,48,34.559,48H15.442c-1.294,0-2.438-0.824-2.847-2.051L12,45h5
		c0.552,0,1-0.447,1-1s-0.448-1-1-1h-6.912C10.03,42.707,10,42.38,10,42V14h7c0.552,0,1-0.448,1-1s-0.448-1-1-1h-6.818
		c0.356-1.031,1.187-2.077,2.056-3.168C12.449,8.567,12.674,8.284,12.89,8h24.221c0.216,0.283,0.44,0.566,0.651,0.831
		c0.869,1.092,1.7,2.139,2.056,3.169H21c-0.552,0-1,0.448-1,1s0.448,1,1,1h19v28c0,0.38-0.03,0.707-0.088,1H21c-0.552,0-1,0.447-1,1
		S20.448,45,21,45z M31,27h-5l2-10l-9,13h5l-2,10L31,27z"/>
</g>
<g id="color">
</g>
</svg>