<?xml version="1.0" encoding="iso-8859-1"?><!-- Generator: Adobe Illustrator 21.1.0, SVG Export Plug-In . SVG Version: 6.00 Build 0)  --><svg xmlns="http://www.w3.org/2000/svg" xmlns:xlink="http://www.w3.org/1999/xlink" viewBox="0 0 50 50" width="50px" height="50px"><path d="M39,29c0,0.55,0.45,1,1,1h4.27L42.3,47.11C42.24,47.62,41.81,48,41.31,48H24.69c-0.5,0-0.93-0.38-0.99-0.89L21.73,30H36c0.55,0,1-0.45,1-1s-0.45-1-1-1H21.49l-0.56-4.89c-0.03-0.28,0.06-0.56,0.25-0.78c0.19-0.21,0.46-0.33,0.75-0.33h22.14c0.29,0,0.56,0.12,0.75,0.33c0.19,0.22,0.28,0.5,0.25,0.78L44.51,28H40C39.45,28,39,28.45,39,29z"/><polyline style="fill:none;stroke:#000000;stroke-width:2;stroke-linejoin:round;stroke-miterlimit:10;" points="22,4 32.083,4 33,10 "/><path style="fill:none;stroke:#000000;stroke-width:2;stroke-linecap:round;stroke-linejoin:round;stroke-miterlimit:10;" d="M46,23H20"/><path style="fill:none;stroke:#000000;stroke-width:2;stroke-linecap:round;stroke-linejoin:round;stroke-miterlimit:10;" d="M46,23c0-7.18-5.82-13-13-13s-13,5.82-13,13"/><circle cx="10.5" cy="18.5" r="3.5"/><path d="M17,29.5V36c0,0.15-0.07,0.3-0.19,0.39l-2.32,1.86L14,47.53C13.98,47.79,13.77,48,13.5,48h-6c-0.27,0-0.48-0.21-0.5-0.47l-0.49-9.28l-2.32-1.86C4.07,36.3,4,36.15,4,36v-6.5c0-3.58,2.92-6.5,6.5-6.5S17,25.92,17,29.5z"/></svg>