<?xml version="1.0" encoding="iso-8859-1"?>
<!-- Generator: Adobe Illustrator 24.1.2, SVG Export Plug-In . SVG Version: 6.00 Build 0)  -->
<svg version="1.1" baseProfile="basic" id="Layer_1"
	 xmlns="http://www.w3.org/2000/svg" xmlns:xlink="http://www.w3.org/1999/xlink" x="0px" y="0px" viewBox="0 0 50 50"
	 xml:space="preserve">
<g>
	<circle cx="37.5" cy="7.5" r="1.5"/>
	<path d="M19,7.5C19,6.119,20.119,5,21.5,5h-9C11.119,5,10,6.119,10,7.5c0,1.381,1.119,2.5,2.5,2.5h9C20.119,10,19,8.881,19,7.5z"/>
	<path d="M34,7.5c0-0.98,0.407-1.864,1.058-2.5H28c-1.141,0.232-2,1.291-2,2.5c0,1.209,0.859,2.268,2,2.5h7.058
		C34.407,9.364,34,8.48,34,7.5z"/>
</g>
<path d="M39,36.648l3,3.75c0-4.133,0-15.003,0-17.125c0-3.01-1.635-7.39-3-10.363V36.648z"/>
<path d="M37,36.713V12.582c-1.167,3.893-3,10.785-3,15.691v13.24L37,36.713z"/>
<polygon points="38.1,38.727 34.234,44.912 41.014,42.37 "/>
<path d="M27.054,12L25,17l-3-2l-4,2l1.964-5h-8.616c-0.764,2.085-2.018,5.722-2.756,9h24.231c0.654-3.396,1.568-6.707,2.258-9
	H27.054z"/>
<g>
	<path d="M23.707,33.879l-2.828,2.828c-0.391,0.391-0.391,1.023,0,1.414c0.195,0.195,0.451,0.293,0.707,0.293
		s0.512-0.098,0.707-0.293l2.828-2.828c0.391-0.391,0.391-1.023,0-1.414S24.098,33.488,23.707,33.879z"/>
	<path d="M8.25,23v-0.277C8.093,23.656,8,24.524,8,25.273V43c0,1.105,0.895,2,2,2h22V28.273c0-1.627,0.183-3.435,0.472-5.273H8.25z
		 M16,30v3.822c-0.788,1.5-1.159,3.073-1.08,4.537C13.198,37.253,12,34.825,12,32c0-3.866,2.239-7,5-7
		c1.913,0,3.573,1.505,4.414,3.714c-1.202,0.535-2.352,1.324-3.364,2.336c-0.018,0.018-0.032,0.037-0.05,0.055V30
		c0-0.553-0.447-1-1-1S16,29.447,16,30z M26.536,39.536c-2.734,2.734-6.533,3.367-8.485,1.414c-1.953-1.953-1.319-5.752,1.414-8.485
		c2.734-2.734,6.533-3.367,8.485-1.414C29.902,33.003,29.269,36.802,26.536,39.536z"/>
</g>
<rect x="16" y="5" width="13" height="5"/>
</svg>