<?xml version="1.0" encoding="utf-8"?><!-- Generator: Adobe Illustrator 15.0.0, SVG Export Plug-In . SVG Version: 6.00 Build 0)  --><!DOCTYPE svg PUBLIC "-//W3C//DTD SVG 1.1//EN" "http://www.w3.org/Graphics/SVG/1.1/DTD/svg11.dtd"><svg xmlns="http://www.w3.org/2000/svg" xmlns:xlink="http://www.w3.org/1999/xlink" viewBox="0 0 50 50" width="50px" height="50px"><rect fill="none" width="50" height="50"/><path d="M30,5V2c0-1.159-0.841-2-2-2h-6c-1.159,0-2,0.841-2,2v3H30z"/><path d="M30,13.316V7H20v6.312c-1.902,0.816-5,2.924-5,7.988v25.8c0,1.544,1.256,2.801,2.8,2.801h14.4c1.544,0,2.8-1.257,2.8-2.801V21.3C35,16.197,31.741,14.081,30,13.316z M30,26v4H20v-4H30z M20,42V32h10v10H20z"/></svg>