<?xml version="1.0" encoding="iso-8859-1"?><!-- Generator: Adobe Illustrator 19.1.1, SVG Export Plug-In . SVG Version: 6.00 Build 0)  --><svg xmlns="http://www.w3.org/2000/svg" xmlns:xlink="http://www.w3.org/1999/xlink" viewBox="0 0 50 50" width="50px" height="50px"><path fill="none" stroke="#000000" stroke-width="2" stroke-linecap="round" stroke-linejoin="round" stroke-miterlimit="10" d="M38,22c0-2.761,2.239-5,5-5s5,2.239,5,5c0,7.401-10.789,5.617-12.985,11"/><g><path d="M31.364,37c2.578-3.136,7.208-10.855,8.632-26.912c0.024-0.279-0.069-0.557-0.259-0.764S39.28,9,39,9H2C1.719,9,1.45,9.119,1.261,9.327s-0.283,0.486-0.256,0.767C2.506,26.15,7.104,33.867,9.654,37H31.364z"/><path d="M31.288,39H9.734c-0.617,0.542-1.237,1.379-1.681,2.677c-0.104,0.305-0.055,0.643,0.133,0.905C8.374,42.844,8.677,43,9,43h23c0.32,0,0.621-0.153,0.81-0.412c0.188-0.26,0.24-0.593,0.142-0.897C32.526,40.384,31.909,39.544,31.288,39z"/></g></svg>