<?xml version="1.0" encoding="utf-8"?><!-- Generator: Adobe Illustrator 15.0.0, SVG Export Plug-In . SVG Version: 6.00 Build 0)  --><!DOCTYPE svg PUBLIC "-//W3C//DTD SVG 1.1//EN" "http://www.w3.org/Graphics/SVG/1.1/DTD/svg11.dtd"><svg xmlns="http://www.w3.org/2000/svg" xmlns:xlink="http://www.w3.org/1999/xlink" viewBox="0 0 50 50" width="50px" height="50px"><rect fill="none" width="50" height="50"/><path d="M14.805,50c-0.09,0-0.181-0.012-0.269-0.037L1.28,46.262c-0.255-0.071-0.472-0.241-0.602-0.472c-0.13-0.231-0.164-0.505-0.092-0.761c0.463-1.658,2.285-2.649,4.874-2.649c1.175,0,2.482,0.199,3.883,0.591c5.242,1.462,7.004,4.216,6.425,6.297c-0.071,0.256-0.241,0.473-0.472,0.604C15.145,49.956,14.976,50,14.805,50z"/><path d="M35.419,48.068c-0.171,0-0.34-0.044-0.491-0.129c-0.231-0.131-0.401-0.348-0.472-0.603c-0.579-2.081,1.183-4.835,6.426-6.299c4.489-1.256,8.085-0.352,8.756,2.062c0.148,0.532-0.162,1.083-0.694,1.231l-13.256,3.7C35.6,48.057,35.509,48.068,35.419,48.068z"/><path d="M26.252,11.487L11.196,7.279c-0.5-0.143-1.022,0.125-1.205,0.611C9.864,8.227,6.876,16.188,5.79,20.077c-1.792,6.427-0.834,14.151,5.505,15.921c0.713,0.199,1.435,0.3,2.145,0.3c4.684,0,8.926-4.344,10.808-11.067c1.075-3.854,2.651-12.241,2.717-12.596C27.061,12.125,26.751,11.626,26.252,11.487z M11.543,9.453l13.285,3.713c-0.208,1.08-0.584,3.005-1.012,5.058H8.451C9.465,15.111,10.908,11.167,11.543,9.453z"/><path d="M10.757,37.925c-0.333-0.093-0.639-0.215-0.949-0.333l-1.694,6.066l1.927,0.537l1.694-6.066C11.408,38.071,11.081,38.015,10.757,37.925z"/><path d="M17.001,8c-0.327,0-0.648-0.16-0.84-0.456c-0.299-0.461-0.17-1.077,0.288-1.379c0.107-0.073,2.231-1.567,1.843-5.055c-0.052-0.468,0.229-0.908,0.674-1.059c0.443-0.149,0.936,0.03,1.177,0.434c0.554,0.925,1.736,1.483,3.245,1.531c1.784,0.065,3.545-0.61,4.217-1.585c0.245-0.356,0.69-0.515,1.107-0.392c0.415,0.123,0.703,0.499,0.716,0.931c0.026,0.967,0.349,1.758,0.932,2.287c0.618,0.56,1.5,0.817,2.568,0.743c0.57-0.034,1.029,0.376,1.068,0.928c0.038,0.551-0.377,1.029-0.928,1.067c-1.627,0.112-3.021-0.321-4.052-1.257c-0.553-0.5-0.967-1.118-1.234-1.828c-1.204,0.739-2.807,1.154-4.459,1.104c-1.166-0.037-2.215-0.311-3.079-0.785c-0.476,3.123-2.592,4.536-2.702,4.607C17.376,7.948,17.188,8,17.001,8z"/><path d="M44.434,18.145c-1.086-3.888-4.074-11.849-4.2-12.186c-0.184-0.485-0.707-0.752-1.206-0.611L25.372,9.165l1.417,0.396c0.574,0.16,1.061,0.474,1.431,0.884l10.461-2.924c0.563,1.522,1.767,4.806,2.739,7.703H28.503c-0.498,2.543-1.345,6.712-2.062,9.534c2.055,5.884,6.007,9.609,10.343,9.609c0.712,0,1.435-0.102,2.146-0.301C45.27,32.297,46.228,24.573,44.434,18.145z"/><path d="M39.47,35.992c-0.325,0.091-0.652,0.147-0.979,0.205l1.679,6.015l1.926-0.537l-1.679-6.015C40.106,35.777,39.802,35.899,39.47,35.992z"/></svg>