<?xml version="1.0" encoding="utf-8"?><!-- Generator: Adobe Illustrator 15.0.0, SVG Export Plug-In . SVG Version: 6.00 Build 0)  --><!DOCTYPE svg PUBLIC "-//W3C//DTD SVG 1.1//EN" "http://www.w3.org/Graphics/SVG/1.1/DTD/svg11.dtd"><svg xmlns="http://www.w3.org/2000/svg" xmlns:xlink="http://www.w3.org/1999/xlink" viewBox="0 0 50 50" width="50px" height="50px"><path d="M29,7h-8c-1.159,0-2-0.841-2-2V3c0-1.654,1.346-3,3-3h6c1.654,0,3,1.346,3,3v2C31,6.159,30.159,7,29,7z"/><path d="M38,20.14V18.1c0-4.783-3.284-8.845-8.021-9.884C29.375,8.106,29,7.64,29,7V6h-8v1c0,0.64-0.375,1.106-1.014,1.224C15.284,9.255,12,13.317,12,18.1v2.04c0,1.304,0.836,2.416,2,2.829v14.094c-1.164,0.413-2,1.525-2,2.829V45c0,2.757,2.243,5,5,5h16c2.757,0,5-2.243,5-5v-5.108c0-1.304-0.836-2.416-2-2.829V37H16v-2h20V25H16v-2h20v-0.031C37.164,22.556,38,21.444,38,20.14z"/></svg>