<?xml version="1.0" encoding="iso-8859-1"?><!-- Generator: Adobe Illustrator 19.1.1, SVG Export Plug-In . SVG Version: 6.00 Build 0)  --><svg xmlns="http://www.w3.org/2000/svg" xmlns:xlink="http://www.w3.org/1999/xlink" viewBox="0 0 50 50" width="500px" height="500px"><path d="M25,48c-9.532,0-15-3.896-15-10.688c0-3.643,1.583-5.482,3.26-7.43c1.191-1.385,2.424-2.816,3.344-5.135c0.519-1.132,0.868-2.22,1.206-3.272C18.832,18.292,19.889,15,25,15s6.168,3.292,7.19,6.476c0.338,1.053,0.688,2.141,1.185,3.224c0.941,2.367,2.174,3.799,3.365,5.184C38.417,31.83,40,33.67,40,37.313C40,44.104,34.532,48,25,48z"/><path d="M26.015,14.021c-0.504,0-0.93-0.386-0.974-0.894c-0.009-0.092-0.7-9.253,8.585-11.046c0.266-0.052,0.54,0.009,0.759,0.168c0.219,0.158,0.362,0.399,0.397,0.667c0.21,1.625,0.702,5.43-1.558,8.143c-1.494,1.792-3.901,2.788-7.157,2.961C26.05,14.021,26.032,14.021,26.015,14.021z"/></svg>