<svg xmlns="http://www.w3.org/2000/svg"  viewBox="0 0 50 50" width="50px" height="50px"><path d="M 17 2 C 16.449219 2 16 2.449219 16 3 L 16 11 C 16 11.550781 16.449219 12 17 12 L 24 12 L 24 13.28125 C 23.703125 13.457031 23.453125 13.703125 23.28125 14 L 26.71875 14 C 26.546875 13.703125 26.296875 13.457031 26 13.28125 L 26 12 L 33 12 C 33.554688 12 34 11.550781 34 11 L 34 3 C 34 2.449219 33.554688 2 33 2 Z M 22 6 C 22.550781 6 23 6.449219 23 7 C 23 7.550781 22.550781 8 22 8 C 21.449219 8 21 7.550781 21 7 C 21 6.449219 21.449219 6 22 6 Z M 28 6 C 28.550781 6 29 6.449219 29 7 C 29 7.550781 28.550781 8 28 8 C 27.449219 8 27 7.550781 27 7 C 27 6.449219 27.449219 6 28 6 Z M 16.3125 15 C 15.1875 15 14.101563 15.480469 13.34375 16.3125 C 13.210938 16.460938 13.109375 16.617188 13 16.78125 C 12.46875 16.300781 11.765625 16 11 16 C 9.355469 16 8 17.355469 8 19 C 8 19.941406 8.4375 20.792969 9.125 21.34375 L 6.25 30.125 C 4.96875 30.46875 4 31.617188 4 33 C 3.996094 33.359375 4.183594 33.695313 4.496094 33.878906 C 4.808594 34.058594 5.191406 34.058594 5.503906 33.878906 C 5.816406 33.695313 6.003906 33.359375 6 33 C 6 32.433594 6.433594 32 7 32 C 7.566406 32 8 32.433594 8 33 C 7.996094 33.359375 8.183594 33.695313 8.496094 33.878906 C 8.808594 34.058594 9.191406 34.058594 9.503906 33.878906 C 9.816406 33.695313 10.003906 33.359375 10 33 C 10 31.824219 9.308594 30.804688 8.3125 30.3125 L 11.03125 22 C 11.578125 21.996094 12.089844 21.828125 12.53125 21.5625 L 13.75 34.375 C 13.945313 36.4375 15.644531 38 17.71875 38 L 33.125 38 C 35.261719 38 37.023438 36.324219 37.125 34.1875 L 37.71875 21.6875 C 38.101563 21.871094 38.519531 21.996094 38.96875 22 L 41.6875 30.3125 C 40.691406 30.804688 40 31.824219 40 33 C 39.996094 33.359375 40.183594 33.695313 40.496094 33.878906 C 40.808594 34.058594 41.191406 34.058594 41.503906 33.878906 C 41.816406 33.695313 42.003906 33.359375 42 33 C 42 32.433594 42.433594 32 43 32 C 43.566406 32 44 32.433594 44 33 C 43.996094 33.359375 44.183594 33.695313 44.496094 33.878906 C 44.808594 34.058594 45.191406 34.058594 45.503906 33.878906 C 45.816406 33.695313 46.003906 33.359375 46 33 C 46 31.617188 45.03125 30.46875 43.75 30.125 L 40.875 21.34375 C 41.5625 20.792969 42 19.941406 42 19 C 42 17.355469 40.644531 16 39 16 C 38.28125 16 37.613281 16.257813 37.09375 16.6875 C 36.984375 16.535156 36.882813 16.390625 36.75 16.25 C 35.988281 15.449219 34.949219 15 33.84375 15 Z M 11 18 C 11.5625 18 12 18.4375 12 19 C 12 19.5625 11.5625 20 11 20 C 10.878906 20 10.761719 19.972656 10.65625 19.9375 C 10.636719 19.9375 10.613281 19.9375 10.59375 19.9375 C 10.234375 19.789063 10 19.421875 10 19 C 10 18.4375 10.4375 18 11 18 Z M 39 18 C 39.5625 18 40 18.4375 40 19 C 40 19.398438 39.792969 19.742188 39.46875 19.90625 C 39.40625 19.921875 39.339844 19.941406 39.28125 19.96875 C 39.195313 19.992188 39.097656 20 39 20 C 38.4375 20 38 19.5625 38 19 C 38 18.4375 38.4375 18 39 18 Z M 20 39 L 20 45 C 20 46.652344 21.347656 48 23 48 L 28 48 C 29.652344 48 31 46.652344 31 45 L 31 39 L 29 39 L 29 41 L 27 41 L 27 39 L 24 39 L 24 41 L 22 41 L 22 39 Z M 22 43 L 24 43 L 24 45 L 22 45 Z M 27 43 L 29 43 L 29 45 L 27 45 Z"/></svg>