<?xml version="1.0" encoding="iso-8859-1"?><!-- Generator: Adobe Illustrator 22.1.0, SVG Export Plug-In . SVG Version: 6.00 Build 0)  --><svg xmlns="http://www.w3.org/2000/svg" xmlns:xlink="http://www.w3.org/1999/xlink" viewBox="0 0 50 50" width="50px" height="50px"><g></g><g></g><path style="fill:none;stroke:#000000;stroke-width:2;stroke-linecap:round;stroke-linejoin:round;stroke-miterlimit:10;" d="M20.54,13C19.58,11.94,19,10.54,19,9c0-3.31,2.69-6,6-6s6,2.69,6,6c0,1.54-0.58,2.94-1.54,4"/><path d="M28.831,28.943c-1.512,0-2.469,1.216-2.469,3.166c0,1.949,0.948,3.165,2.469,3.165c1.52,0,2.432-1.198,2.432-3.165C31.263,30.142,30.342,28.943,28.831,28.943z"/><path d="M49.975,46.775l-7.82-34C42.05,12.321,41.646,12,41.18,12H8.82c-0.466,0-0.87,0.321-0.975,0.775l-7.82,34c-0.068,0.297,0.003,0.609,0.192,0.848S0.695,48,1,48h48c0.305,0,0.593-0.139,0.782-0.377S50.043,47.072,49.975,46.775z M21.25,37H19V23.436h2.25V37z M29.528,37.161c-1.368,0-2.504-0.635-3.059-1.708h-0.151V37h-2.138V23.436h2.218v5.338h0.152c0.51-1.063,1.636-1.717,2.978-1.717c2.477,0,4.015,1.923,4.015,5.053C33.543,35.221,31.996,37.161,29.528,37.161z"/></svg>