<svg xmlns="http://www.w3.org/2000/svg"  viewBox="0 0 50 50" width="50px" height="50px"><path d="M 5 0 L 5 46 L 30.369141 46 C 28.229141 44.57 26.579219 42.47 25.699219 40 L 12 40 C 11.45 40 11 39.55 11 39 C 11 38.45 11.45 38 12 38 L 25.189453 38 C 25.079453 37.35 25 36.68 25 36 C 25 35.32 25.069688 34.65 25.179688 34 L 12 34 C 11.45 34 11 33.55 11 33 C 11 32.45 11.45 32 12 32 L 25.699219 32 C 26.229219 30.51 27.040312 29.15 28.070312 28 L 12 28 C 11.45 28 11 27.55 11 27 C 11 26.45 11.45 26 12 26 L 30.369141 26 C 32.269141 24.74 34.55 24 37 24 C 38.4 24 39.75 24.249219 41 24.699219 L 41 14.589844 L 26.410156 0 L 5 0 z M 27 3.4101562 L 37.589844 14 L 27 14 L 27 3.4101562 z M 12 6 L 20 6 C 20.552 6 21 6.447 21 7 L 21 15 C 21 15.553 20.552 16 20 16 L 12 16 C 11.448 16 11 15.553 11 15 L 11 7 C 11 6.447 11.448 6 12 6 z M 13 8 L 13 14 L 19 14 L 19 8 L 13 8 z M 12 20 L 34 20 C 34.55 20 35 20.45 35 21 C 35 21.55 34.55 22 34 22 L 12 22 C 11.45 22 11 21.55 11 21 C 11 20.45 11.45 20 12 20 z M 37 26 C 31.49 26 27 30.49 27 36 C 27 41.51 31.49 46 37 46 C 39.396072 46 41.59731 45.149118 43.322266 43.736328 L 48.292969 48.707031 L 49.707031 47.292969 L 44.736328 42.322266 C 46.149118 40.59731 47 38.396072 47 36 C 47 30.49 42.51 26 37 26 z M 37 31 C 38.657 31 40 32.343 40 34 C 40 35.657 38.657 37 37 37 C 35.343 37 34 35.657 34 34 C 34 32.343 35.343 31 37 31 z M 34 39 L 40 39 C 40.552 39 41 39.447 41 40 C 41 40.553 40.552 41 40 41 L 34 41 C 33.448 41 33 40.553 33 40 C 33 39.447 33.448 39 34 39 z"/></svg>