<?xml version="1.0" encoding="iso-8859-1"?>
<!-- Generator: Adobe Illustrator 24.0.2, SVG Export Plug-In . SVG Version: 6.00 Build 0)  -->
<svg version="1.1" id="&#x421;&#x43B;&#x43E;&#x439;_1"
	 xmlns="http://www.w3.org/2000/svg" xmlns:xlink="http://www.w3.org/1999/xlink" x="0px" y="0px" viewBox="0 0 50 50"
	 style="enable-background:new 0 0 50 50;" xml:space="preserve">
<g>
	<path d="M44,19h-1.004l0.002-2.998c0.001-1.336-0.52-2.592-1.464-3.537S39.334,11,37.998,11H36v2h1.998
		c0.802,0,1.555,0.312,2.122,0.879c0.566,0.567,0.878,1.32,0.878,2.122L40.996,19H40c-1.105,0-2,0.895-2,2v8c0,1.105,0.895,2,2,2
		h0.997L41,45c0,0.553,0.448,1,1,1c0.553,0,1-0.448,1-1l-0.003-14H44c1.105,0,2-0.895,2-2v-8C46,19.895,45.105,19,44,19z"/>
	<path d="M31,4H7C5.346,4,4,5.346,4,7v27h30V7C34,5.346,32.654,4,31,4z M19,31c-6.065,0-11-4.935-11-11S12.935,9,19,9
		s11,4.935,11,11S25.065,31,19,31z"/>
	<path d="M19,11c-4.963,0-9,4.038-9,9s4.037,9,9,9s9-4.038,9-9S23.963,11,19,11z M19,22c-1.105,0-2-0.895-2-2
		c0-0.738,0.405-1.376,1-1.723V14c0-0.552,0.447-1,1-1s1,0.448,1,1v4.277c0.595,0.346,1,0.984,1,1.723C21,21.105,20.105,22,19,22z"
		/>
	<path d="M4,46h30V36H4V46z M28,38c1.105,0,2,0.895,2,2c0,1.105-0.895,2-2,2s-2-0.895-2-2C26,38.895,26.895,38,28,38z M22,38
		c1.105,0,2,0.895,2,2c0,1.105-0.895,2-2,2s-2-0.895-2-2C20,38.895,20.895,38,22,38z M16,38c1.105,0,2,0.895,2,2
		c0,1.105-0.895,2-2,2s-2-0.895-2-2C14,38.895,14.895,38,16,38z M10,38c1.105,0,2,0.895,2,2c0,1.105-0.895,2-2,2s-2-0.895-2-2
		C8,38.895,8.895,38,10,38z"/>
</g>
</svg>