<?xml version="1.0" encoding="iso-8859-1"?>
<!-- Generator: Adobe Illustrator 23.1.0, SVG Export Plug-In . SVG Version: 6.00 Build 0)  -->
<svg version="1.1" id="&#x421;&#x43B;&#x43E;&#x439;_1"
	 xmlns="http://www.w3.org/2000/svg" xmlns:xlink="http://www.w3.org/1999/xlink" x="0px" y="0px" viewBox="0 0 50 50"
	 style="enable-background:new 0 0 50 50;" xml:space="preserve">
<path d="M43,41v4c0,2.21-8.06,4-18,4S7,47.21,7,45v-4c0-0.35,0.14-0.69,0.41-1.02C9.58,43.58,20.16,44,25,44s15.42-0.42,17.59-4.02
	C42.86,40.31,43,40.65,43,41z"/>
<path d="M41,34c0,0,0,2.44,0,3.77v0.8c0,1.9-7.16,3.43-16,3.43S9,40.47,9,38.57V34c0,0,4.07,3,16,3S41,34,41,34z"/>
<path d="M7.895,22.61l-2.82,0.4c-0.05-0.5-0.07-1-0.07-1.51c0-2.49,0.48-4.88,1.36-7.07c2.17,1.61,3.71,3.88,4.4,6.47
	c-0.15,0.09-0.3,0.18-0.44,0.28l-1.25,0.94C8.725,22.38,8.325,22.55,7.895,22.61z"/>
<path d="M14.585,9.13l-1.96-2.94c1.92-1.48,4.11-2.62,6.5-3.33l-1.04,2.07c-0.78,1.57-0.86,3.4-0.21,5.03l0.36,1.25
	c-0.32-0.12-0.65-0.23-1-0.3C16.145,10.69,15.205,10.06,14.585,9.13z"/>
<path d="M28.875,5.99c-0.6-0.6-0.93-1.41-0.93-2.26V2.21c1.81,0.26,3.54,0.76,5.16,1.46l-2.03,3.55c-0.12,0.21-0.22,0.43-0.31,0.66
	L28.875,5.99z"/>
<path d="M40.175,12.44l2.13-0.71c1.41,2.36,2.32,5.02,2.61,7.87l-5.32-1.45c-0.55-0.14-1.1-0.19-1.65-0.16v-2.45
	C37.945,14.13,38.835,12.89,40.175,12.44z"/>
<path d="M9.035,28.96l-1.57,1.57L7,30c-0.88-1.66-1.325-3.11-1.675-5l2.85-0.41c0.76-0.11,1.48-0.41,2.1-0.87l1.25-0.94
	c0.2-0.15,0.42-0.26,0.64-0.35c0.03,0,0.04-0.01,0.06-0.02c0.75-0.26,1.59-0.16,2.26,0.29c0.76,0.5,1.63,0.77,2.54,0.77h2.92
	c0.03,0,0.07,0,0.1-0.01c0.15,0.74,0.356,1.364,0.806,1.944c-0.156,0.042-0.206,0.096-0.356,0.166l-2.22,1.11
	c-0.95,0.48-2.05,0.62-3.09,0.42C12.945,26.65,10.655,27.35,9.035,28.96z"/>
<path d="M7.375,12.69l-0.15-0.11c0.99-1.9,2.31-3.62,3.87-5.08l1.83,2.74c0.91,1.37,2.3,2.31,3.92,2.63
	c1.44,0.29,2.64,1.33,3.12,2.72l1.08,3.17c0.05,0.13,0.12,0.25,0.21,0.34c-0.6,0.65-1.03,1.47-1.21,2.38
	c-0.03-0.01-0.07-0.01-0.1-0.01h-2.92c-0.51,0-1.01-0.15-1.43-0.43c-0.88-0.59-1.91-0.83-2.92-0.74
	C11.835,17.23,9.985,14.56,7.375,12.69z"/>
<path d="M19.745,9.25c-0.45-1.1-0.4-2.35,0.13-3.42l1.78-3.55c1.09-0.19,2.21-0.28,3.35-0.28c0.31,0,0.63,0.01,0.94,0.03v1.7
	c0,1.39,0.54,2.69,1.52,3.67l2.77,2.77c0.06,0.06,0.12,0.09,0.19,0.13c0.05,0.48,0.15,0.96,0.34,1.42c0.56,1.4,0.08,2.97-1.16,3.82
	l-2.67,1.81c-0.15,0.1-0.27,0.25-0.33,0.41c-0.52-0.19-1.08-0.29-1.66-0.29c-0.73,0-1.43,0.16-2.06,0.44l-1.03-2.97
	c-0.22-0.63-0.55-1.21-0.95-1.73c0-0.01,0-0.02,0-0.02l-1.13-3.84C19.765,9.32,19.755,9.29,19.745,9.25z"/>
<path d="M26.945,34.44V29h-4v5.44c-9.94-0.28-13.58-2.57-13.59-2.58l-0.23-0.16l1.33-1.33c1.14-1.14,2.76-1.63,4.34-1.31
	c1.47,0.29,3.03,0.08,4.38-0.59L22,27c0.83,0.63,1.825,0.47,2.945,0.47c1.27,0,2.43-0.48,3.32-1.27c0.14,0.13,0.31,0.22,0.51,0.25
	l3.75,0.63c0.94,0.16,1.7,0.89,1.88,1.82c0.42,2.09,2.26,3.53,4.34,3.45l0.73,0.01C37.765,33.06,33.895,34.25,26.945,34.44z"/>
<path d="M32.625,10.97c-0.37-0.9-0.3-1.91,0.19-2.76l2.08-3.66c2.47,1.37,4.61,3.24,6.27,5.46l-1.62,0.54
	c-2.16,0.71-3.6,2.72-3.6,4.99v2.93c0,0.01,0,0.01,0,0.02c-0.53,0.26-1.03,0.59-1.46,1.02c-0.62,0.62-1.44,0.96-2.31,0.96h-2.23
	c-0.14,0-0.27,0.03-0.38,0.08c-0.28-0.66-0.7-1.26-1.22-1.74l2.38-1.62C32.755,15.81,33.535,13.25,32.625,10.97z"/>
<path d="M44.995,21.7c-0.02,3.11-0.8,6.05-2.18,8.65l-0.1,0.07l-4-0.07c-1.11,0.05-2.12-0.73-2.35-1.85
	c-0.34-1.74-1.76-3.1-3.51-3.39l-3.36-0.56c0.29-0.63,0.45-1.34,0.45-2.08h2.23c1.41,0,2.73-0.55,3.72-1.54
	c0.83-0.83,2.04-1.15,3.17-0.85L44.995,21.7z"/>
</svg>