<?xml version="1.0" encoding="iso-8859-1"?>
<!-- Generator: Adobe Illustrator 22.1.0, SVG Export Plug-In . SVG Version: 6.00 Build 0)  -->
<svg version="1.1" id="Layer_1" xmlns="http://www.w3.org/2000/svg" xmlns:xlink="http://www.w3.org/1999/xlink" x="0px" y="0px"
	 viewBox="0 0 50 50" style="enable-background:new 0 0 50 50;" xml:space="preserve">
<circle cx="35.5" cy="20" r="1.5"/>
<path style="fill:none;stroke:#000000;stroke-width:2;stroke-linecap:round;stroke-linejoin:round;stroke-miterlimit:10;" d="
	M27.5,19c0,0-2.5-2.001-4.5-2.001S19,18.5,19,18.5"/>
<circle cx="23" cy="19" r="1.5"/>
<path style="fill:none;stroke:#000000;stroke-width:2;stroke-linecap:round;stroke-linejoin:round;stroke-miterlimit:10;" d="M27,28
	c2,0,2,1,4,1c1.105,0,2-0.895,2-2c0-1-1-6-1-7s0-1,0-1s1-1,3-1s3,2,3,2"/>
<path d="M46.338,20.587C45.083,18.646,44,16.969,44,15c0-7.557-4.924-10.207-6.324-10.808C36.951,3.123,34.217,0,27,0
	C16.694,0,10.312,4.629,8.03,13.758c-0.414,1.654-1.339,2.579-2.511,3.749C3.061,19.966,0,23.024,0,34c0,0.553,0.447,1,1,1h3.372
	c0.597,1.125,2.104,3.391,4.633,3.887c0.012-2.085,0.535-3.672,1.046-5.203C10.539,32.22,11,30.838,11,29c0-0.553,0.447-1,1-1
	s1,0.447,1,1c0,2.162-0.534,3.766-1.052,5.316C11.461,35.78,11,37.162,11,39c-0.3,7.949,11.529,10.575,15.575,10.971
	c0.125,0.01,0.248,0.02,0.363,0.027C26.959,49.999,26.979,50,27,50c0.082,0,0.163-0.01,0.242-0.03
	c2.858-0.714,4.354-1.916,5.075-2.72C33.677,47.852,36.588,49,39,49c0.304,0,0.587-0.144,0.776-0.38C42.725,44.619,44,41.424,44,38
	c0-2.419-0.779-4.1-1.532-5.725C41.746,30.719,41,29.109,41,27c0-0.553,0.447-1,1-1s1,0.447,1,1c0,1.668,0.594,2.95,1.282,4.434
	c0.716,1.547,1.515,3.282,1.682,5.661C47.631,36.065,50,34.067,50,31C50,26.257,48.055,23.244,46.338,20.587z M34.769,34.641
	c-0.354,0.424-0.982,0.48-1.409,0.128C32.782,34.287,31.9,34,31,34c-1.203,0-2.396,0.299-3.543,0.89
	C27.311,34.965,27.154,35,27.001,35c-0.363,0-0.713-0.198-0.891-0.543c-0.252-0.491-0.059-1.094,0.433-1.347
	C27.976,32.374,29.476,32,31,32c1.374,0,2.701,0.449,3.641,1.231C35.064,33.585,35.122,34.216,34.769,34.641z M38.671,26.659
	c-0.421,0.814-0.884,1.711-1.277,2.863C36.083,28.883,33.772,28,31,28c-5.031,0-8.59,1.94-10.383,3.214
	c-0.68-2.37-1.882-4.442-2.965-6.312C16.288,22.551,15,20.329,15,18v-2c0-9.279,8.42-10,11-10c1.123,0,2.2-0.27,3.242-0.53
	C30.21,5.229,31.123,5,32,5c5.885,0,7,2.812,7,8v3c0,1.794,0.341,2.97,0.615,3.915C39.83,20.657,40,21.243,40,22
	C40,24.085,39.413,25.221,38.671,26.659z"/>
</svg>