<?xml version="1.0" encoding="utf-8"?><!-- Generator: Adobe Illustrator 15.0.0, SVG Export Plug-In . SVG Version: 6.00 Build 0)  --><!DOCTYPE svg PUBLIC "-//W3C//DTD SVG 1.1//EN" "http://www.w3.org/Graphics/SVG/1.1/DTD/svg11.dtd"><svg xmlns="http://www.w3.org/2000/svg" xmlns:xlink="http://www.w3.org/1999/xlink" viewBox="0 0 50 50" width="50px" height="50px"><path d="M29,34l-3-2h-2l-3,2v6c0,1.1,0.9,2,2,2h4c1.1,0,2-0.9,2-2V34z"/><path d="M35.268,24.053c-0.631,0.612-1.329,1.161-2.086,1.644c-0.003,0.056-0.014,0.107-0.015,0.164C32.778,27.208,31.747,29,29,29c-1.559,0-2.304-0.548-2.663-1.055C25.897,27.979,25.452,28,25,28c-0.451,0-0.895-0.022-1.335-0.058C23.306,28.45,22.562,29,21,29c-2.74,0-3.773-1.783-4.163-3.129c0.005-0.05-0.003-0.094-0.001-0.142c-0.797-0.493-1.528-1.055-2.187-1.677l-1.327,6.05c-0.799,3.539,1.17,7.206,4.566,8.373L19,38.743V34v-1.07l0.891-0.594l3-2L23.395,30H24h2h0.605l0.504,0.336l3,2L31,32.93V34v4.74l1.193-0.29c3.313-1.143,5.283-4.81,4.486-8.342L35.268,24.053z"/><path d="M12.521,21.41C11.048,23.375,8.1,28.939,8.1,42c0,0.497,0.403,0.9,0.9,0.9s0.9-0.403,0.9-0.9c0-11.661,2.41-16.985,3.729-19.027C13.215,22.479,12.845,21.957,12.521,21.41z"/><path d="M37.953,11.127c0.426,0.84,0.72,1.721,0.89,2.622C42.909,16.677,48.1,22.965,48.1,36c0,0.497,0.403,0.9,0.9,0.9s0.9-0.403,0.9-0.9C49.9,20.34,42.49,13.717,37.953,11.127z"/><path d="M38.935,16.61c-0.087,0.742-0.228,1.463-0.435,2.154c2.205,2.54,5.6,8.374,5.6,20.235c0,0.497,0.403,0.9,0.9,0.9s0.9-0.403,0.9-0.9C45.9,24.997,41.315,18.856,38.935,16.61z"/><path d="M36.325,22.907C37.639,24.903,40.1,30.215,40.1,42c0,0.497,0.403,0.9,0.9,0.9s0.9-0.403,0.9-0.9c0-13.291-3.056-18.823-4.5-20.695C37.081,21.865,36.729,22.404,36.325,22.907z"/><path d="M11.038,16.636C8.648,18.904,4.1,25.052,4.1,39c0,0.497,0.403,0.9,0.9,0.9s0.9-0.403,0.9-0.9c0-11.641,3.319-17.504,5.525-20.119C11.215,18.156,11.085,17.406,11.038,16.636z"/><path d="M11.27,13.667c0.217-0.939,0.57-1.834,1.027-2.681C7.788,13.473,0.1,20.049,0.1,36c0,0.497,0.403,0.9,0.9,0.9s0.9-0.403,0.9-0.9C1.9,22.844,7.188,16.56,11.27,13.667z"/><path d="M25,10.1c-3.86,0-7,2.333-7,5.2s3.14,5.2,7,5.2c3.859,0,7-2.333,7-5.2S28.859,10.1,25,10.1z"/><path d="M25,6c-6.6,0-12,4.5-12,10s5.4,10,12,10c6.1,0,11.5-3.8,12-10C37.4,10.5,31.6,6,25,6z M25,22.5c-4.962,0-9-3.23-9-7.2c0-3.97,4.038-7.2,9-7.2c4.963,0,9,3.23,9,7.2C34,19.27,29.963,22.5,25,22.5z"/></svg>