<?xml version="1.0" encoding="utf-8"?><!-- Generator: Adobe Illustrator 19.1.1, SVG Export Plug-In . SVG Version: 6.00 Build 0)  --><svg xmlns="http://www.w3.org/2000/svg" xmlns:xlink="http://www.w3.org/1999/xlink" viewBox="0 0 50 50" width="50px" height="50px"><path d="M28,47.1c0,0.5,0.5,0.9,1,0.9h5c0.6,0,1-0.4,1-1v-2.6L28,47.1z"/><path d="M15,44.4V47c0,0.6,0.4,1,1,1h5c0.5,0,1-0.4,1-0.9L15,44.4z"/><circle fill="none" stroke="#000000" stroke-width="2" stroke-linecap="round" stroke-linejoin="round" stroke-miterlimit="10" cx="45" cy="25" r="2"/><circle cx="45" cy="12" r="2"/><circle cx="5" cy="12" r="2"/><line fill="none" stroke="#000000" stroke-width="2" stroke-linecap="round" stroke-linejoin="round" stroke-miterlimit="10" x1="45" y1="23" x2="45" y2="14"/><path d="M45,42c-1.7,0-3-1.3-3-3V28c0-0.6,0.4-1,1-1h4c0.6,0,1,0.4,1,1v11C48,40.7,46.7,42,45,42z"/><circle fill="none" stroke="#000000" stroke-width="2" stroke-linecap="round" stroke-linejoin="round" stroke-miterlimit="10" cx="5" cy="25" r="2"/><line fill="none" stroke="#000000" stroke-width="2" stroke-linecap="round" stroke-linejoin="round" stroke-miterlimit="10" x1="5" y1="23" x2="5" y2="14"/><path d="M5,42c-1.7,0-3-1.3-3-3V28c0-0.6,0.4-1,1-1h4c0.6,0,1,0.4,1,1v11C8,40.7,6.7,42,5,42z"/><path d="M24,24v-4c0-0.6,0.4-1,1-1s1,0.4,1,1v4h4v-8c0-7.4-4-13.3-4.2-13.6c-0.4-0.5-1.3-0.5-1.6,0C24,2.7,20,8.6,20,16v8H24z"/><path d="M35,30v6c0,0.5-0.5,1-1,1s-1-0.5-1-1v-6v-3c0-0.6-0.4-1-1-1H18c-0.6,0-1,0.4-1,1v9c0,0.5-0.5,1-1,1s-1-0.5-1-1v-6h-5v10.4l14.6,5.6c0.1,0,0.2,0.1,0.4,0.1s0.2,0,0.4-0.1L40,40.4V30H35z M25,34c-2.8,0-5-2.2-5-5h2c0,1.7,1.3,3,3,3s3-1.3,3-3h2C30,31.8,27.8,34,25,34z"/></svg>