<?xml version="1.0" encoding="utf-8"?><!-- Generator: Adobe Illustrator 15.0.0, SVG Export Plug-In . SVG Version: 6.00 Build 0)  --><!DOCTYPE svg PUBLIC "-//W3C//DTD SVG 1.1//EN" "http://www.w3.org/Graphics/SVG/1.1/DTD/svg11.dtd"><svg xmlns="http://www.w3.org/2000/svg" xmlns:xlink="http://www.w3.org/1999/xlink" viewBox="0 0 50 50" width="50px" height="50px"><path d="M50,25c0-7.2-6.3-13-14-13c-4.7,0-7.7,2.2-9.8,4.7c0.399,0.6,0.5,0.7,0.8,1.3c0.399,0.7,2.1,4,2.4,4.7l0.1-0.1C31.3,19.4,33,18,36,18c4.4,0,8,3.1,8,7c0,3.9-3.6,7-8,7c-4.534,0-6.393-3.95-8.544-8.523C24.925,18.097,22.056,12,14,12C6.247,12.149,0,17.831,0,25c0,7.2,6.3,13,14,13c4.7,0,7.7-2.1,9.8-4.7c-0.4-0.6-0.5-0.7-0.8-1.3c-0.4-0.801-2.1-4.1-2.4-4.8l-0.1,0.1C18.7,30.6,17,32,14,32c-4.4,0-8-3.1-8-7c0-3.892,3.585-6.985,7.972-6.999c4.566,0.014,6.479,3.984,8.693,8.581C25.229,31.904,28.138,37.929,36,37.994c0,0.002,0,0.004,0,0.006c0.021,0,0.042-0.003,0.063-0.003S36.104,38,36.125,38v-0.006C43.768,37.931,50,32.161,50,25z"/></svg>