<?xml version="1.0" encoding="iso-8859-1"?><!-- Generator: Adobe Illustrator 22.1.0, SVG Export Plug-In . SVG Version: 6.00 Build 0)  --><svg xmlns="http://www.w3.org/2000/svg" xmlns:xlink="http://www.w3.org/1999/xlink" viewBox="0 0 50 50" width="50px" height="50px"><circle cx="3" cy="29" r="1"/><circle cx="4" cy="33" r="1"/><circle cx="5" cy="37" r="1"/><circle cx="8" cy="40" r="1"/><circle cx="11" cy="37" r="1"/><circle cx="12" cy="33" r="1"/><circle cx="13" cy="29" r="1"/><circle cx="23" cy="21" r="1"/><circle cx="22" cy="17" r="1"/><circle cx="21" cy="13" r="1"/><circle cx="18" cy="10" r="1"/><circle cx="15" cy="13" r="1"/><circle cx="14" cy="17" r="1"/><circle cx="13" cy="21" r="1"/><path style="fill:none;stroke:#000000;stroke-width:2;stroke-linecap:round;stroke-linejoin:round;stroke-miterlimit:10;" d="M47,25c0,0-0.8,15-5,15s-4.531-10.951-5-15c-0.489-4.224-1-15-5-15s-5,15-5,15"/><path style="fill:none;stroke:#000000;stroke-width:2;stroke-linecap:round;stroke-linejoin:round;stroke-miterlimit:10;" d="M23,25c0,0-0.8,15-5,15s-4.531-10.951-5-15c-0.489-4.224-1-15-5-15S3,25,3,25"/><path d="M27,47h-4c-0.552,0-1-0.447-1-1V4c0-0.553,0.448-1,1-1h4c0.552,0,1,0.447,1,1v42C28,46.553,27.552,47,27,47z"/><circle cx="30" cy="25" r="1"/><circle cx="34" cy="25" r="1"/><circle cx="40" cy="25" r="1"/><circle cx="44" cy="25" r="1"/><circle cx="6" cy="25" r="1"/><circle cx="10" cy="25" r="1"/><circle cx="16" cy="25" r="1"/><circle cx="20" cy="25" r="1"/></svg>