<?xml version="1.0" encoding="utf-8"?><!-- Generator: Adobe Illustrator 15.0.0, SVG Export Plug-In . SVG Version: 6.00 Build 0)  --><!DOCTYPE svg PUBLIC "-//W3C//DTD SVG 1.1//EN" "http://www.w3.org/Graphics/SVG/1.1/DTD/svg11.dtd"><svg xmlns="http://www.w3.org/2000/svg" xmlns:xlink="http://www.w3.org/1999/xlink" viewBox="0 0 50 50" width="50px" height="50px"><path d="M27.4,27c-0.7,0-1.2-0.5-1.2-1.2c0-0.5,0.3-0.9,0.7-1.1C26.4,24.3,25.7,24,25,24c-1.7,0-3,1.3-3,3s1.3,3,3,3s3-1.3,3-3c0-0.1,0-0.1,0-0.2C27.8,26.9,27.6,27,27.4,27z"/><path d="M42,12c-2.206,0-4-1.794-4-4s1.794-4,4-4s4,1.794,4,4S44.206,12,42,12z"/><path fill="none" stroke="#000000" stroke-width="2" stroke-linecap="round" stroke-miterlimit="10" d="M39,8.4c-3,0.2-4.8,2.4-6,4.8"/><path d="M8,14c-2.206,0-4-1.794-4-4s1.794-4,4-4s4,1.794,4,4S10.206,14,8,14z"/><path fill="none" stroke="#000000" stroke-width="2" stroke-linecap="round" stroke-miterlimit="10" d="M11,10.4c3,0.2,4.8,0.4,6,2.8"/><path d="M25,10c-9.944,0-19,9.866-19,20.7C6,40.138,13.28,46,25,46s19-5.862,19-15.3C44,19.866,34.944,10,25,10z M25,20c3.866,0,7,3.134,7,7s-3.134,7-7,7s-7-3.134-7-7S21.134,20,25,20z M32.868,39.084C32.721,39.162,29.2,41,25,41s-7.72-1.838-7.868-1.916c-0.488-0.258-0.673-0.862-0.416-1.351c0.258-0.487,0.862-0.674,1.351-0.418C18.099,37.333,21.312,39,25,39c3.709,0,6.9-1.667,6.933-1.684c0.49-0.26,1.093-0.071,1.352,0.416C33.543,38.221,33.356,38.825,32.868,39.084z"/></svg>