<?xml version="1.0" encoding="utf-8"?><!-- Generator: Adobe Illustrator 15.0.0, SVG Export Plug-In . SVG Version: 6.00 Build 0)  --><!DOCTYPE svg PUBLIC "-//W3C//DTD SVG 1.1//EN" "http://www.w3.org/Graphics/SVG/1.1/DTD/svg11.dtd"><svg xmlns="http://www.w3.org/2000/svg" xmlns:xlink="http://www.w3.org/1999/xlink" viewBox="0 0 50 50" width="50px" height="50px"><line fill="none" stroke="#000000" stroke-width="2" stroke-linecap="round" stroke-linejoin="round" stroke-miterlimit="10" x1="38.9" y1="5" x2="18" y2="5"/><line fill="none" stroke="#000000" stroke-width="2" stroke-linecap="round" stroke-linejoin="round" stroke-miterlimit="10" x1="38.4" y1="9" x2="18.6" y2="9"/><line fill="none" stroke="#000000" stroke-width="2" stroke-linecap="round" stroke-linejoin="round" stroke-miterlimit="10" x1="37.3" y1="13" x2="20" y2="13"/><line fill="none" stroke="#000000" stroke-width="2" stroke-linecap="round" stroke-linejoin="round" stroke-miterlimit="10" x1="34.5" y1="17" x2="22.4" y2="17"/><line fill="none" stroke="#000000" stroke-width="2" stroke-linecap="round" stroke-linejoin="round" stroke-miterlimit="10" x1="31" y1="21" x2="27" y2="21"/><line fill="none" stroke="#000000" stroke-width="2" stroke-linecap="round" stroke-linejoin="round" stroke-miterlimit="10" x1="38.9" y1="45" x2="18" y2="45"/><line fill="none" stroke="#000000" stroke-width="2" stroke-linecap="round" stroke-linejoin="round" stroke-miterlimit="10" x1="37.9" y1="41" x2="18.6" y2="41"/><line fill="none" stroke="#000000" stroke-width="2" stroke-linecap="round" stroke-linejoin="round" stroke-miterlimit="10" x1="36.4" y1="37" x2="20.6" y2="37"/><line fill="none" stroke="#000000" stroke-width="2" stroke-linecap="round" stroke-linejoin="round" stroke-miterlimit="10" x1="33.6" y1="33" x2="24.5" y2="33"/><path d="M14,48h-3c-0.552,0-1-0.447-1-1c0-14.58,7.374-18.794,14.504-22.868C31.444,20.166,38,16.42,38,3c0-0.552,0.447-1,1-1h3c0.553,0,1,0.448,1,1c0,16.206-8.209,21.039-15.452,25.303C20.815,32.268,15,35.691,15,47C15,47.553,14.552,48,14,48z"/><g><path d="M19.724,24.642c1.261-0.8,2.539-1.533,3.789-2.247c0.356-0.204,0.709-0.406,1.06-0.608C19.325,18.388,15,13.835,15,3c0-0.552-0.448-1-1-1h-3c-0.552,0-1,0.448-1,1C10,15.277,14.624,20.915,19.724,24.642z"/><path d="M33.52,27.245l-0.248-0.15c-1.582,1.088-3.185,2.034-4.71,2.932c-0.063,0.037-0.121,0.072-0.184,0.108l0.96,0.593C34.537,34.262,38,38.382,38,47c0,0.553,0.447,1,1,1h3c0.553,0,1-0.447,1-1C43,35.438,38.234,30.543,33.52,27.245z"/></g></svg>