<?xml version="1.0" encoding="iso-8859-1"?><!-- Generator: Adobe Illustrator 23.0.3, SVG Export Plug-In . SVG Version: 6.00 Build 0)  --><svg xmlns="http://www.w3.org/2000/svg" xmlns:xlink="http://www.w3.org/1999/xlink" viewBox="0 0 50 50" width="50px" height="50px"><line style="fill:none;stroke:#000000;stroke-width:4;stroke-miterlimit:10;" x1="33.229" y1="33.229" x2="46.5" y2="46.5"/><path d="M22,4C12.626,4,5,11.626,5,21s7.626,17,17,17s17-7.626,17-17S31.374,4,22,4z M14,23c-1.105,0-2-0.895-2-2c0-1.105,0.895-2,2-2s2,0.895,2,2C16,22.105,15.105,23,14,23z M22,23c-1.105,0-2-0.895-2-2c0-1.105,0.895-2,2-2s2,0.895,2,2C24,22.105,23.105,23,22,23z M30,23c-1.105,0-2-0.895-2-2c0-1.105,0.895-2,2-2s2,0.895,2,2C32,22.105,31.105,23,30,23z"/></svg>