<?xml version="1.0" encoding="utf-8"?><!-- Generator: Adobe Illustrator 15.0.0, SVG Export Plug-In . SVG Version: 6.00 Build 0)  --><!DOCTYPE svg PUBLIC "-//W3C//DTD SVG 1.1//EN" "http://www.w3.org/Graphics/SVG/1.1/DTD/svg11.dtd"><svg xmlns="http://www.w3.org/2000/svg" xmlns:xlink="http://www.w3.org/1999/xlink" viewBox="0 0 50 50" width="50px" height="50px"><path d="M34.8,47c-1.461,0-6.838-2.93-9.8-9.334C22.038,44.07,16.661,47,15.2,47c-3.904,0-8.114-4.692-9.929-9.229c-0.569-1.309-0.525-3.616,0.88-5.761c0.631-0.962,1.618-2.016,3.15-2.84C1.247,27.572,0,21.995,0,7.8C0,4.705,1.776,3,5,3c4.693,0,15.547,8.623,20,18.077C29.453,11.623,40.308,3,45,3c3.317,0,5,1.615,5,4.8c0,14.207-1.249,19.781-9.322,21.375c1.459,0.789,2.414,1.783,3.035,2.693c1.46,2.14,1.563,4.503,1.019,5.896C42.914,42.308,38.704,47,34.8,47z"/></svg>