<svg xmlns="http://www.w3.org/2000/svg"  viewBox="0 0 50 50" width="50px" height="50px"><path d="M 12 2 C 8.502 2 6 4.756 6 8 L 6 42.417969 L 6.0039062 42.417969 C 6.0029063 42.445969 6 42.472 6 42.5 C 6 45.526 8.474 48 11.5 48 L 44 48 L 44 46 L 11.5 46 C 9.556 46 8 44.444 8 42.5 C 8 40.556 9.556 39 11.5 39 L 44 39 L 44 38 L 44 37 L 44 2 L 12 2 z M 20.916016 6.1269531 C 21.079141 6.1133281 21.245891 6.1404844 21.400391 6.2089844 L 23.400391 7.0839844 C 23.764391 7.2429844 24 7.603 24 8 L 24 8.4335938 L 26.431641 9.5996094 C 26.778641 9.7656094 27 10.115 27 10.5 L 27 11.431641 L 31.351562 13.064453 C 31.741563 13.210453 32 13.583 32 14 L 32 15.125 L 32 16.9375 L 32 24 L 20 24 L 20 12.875 L 20 8.125 L 20 7.125 C 20 6.787 20.170125 6.4721094 20.453125 6.2871094 C 20.594125 6.1941094 20.752891 6.1405781 20.916016 6.1269531 z M 23 10.171875 L 23 21 C 23 21.552 23.448 22 24 22 C 24.552 22 25 21.552 25 21 L 25 12.125 L 25 11.130859 L 23 10.171875 z M 27 13.568359 L 27 21 C 27 21.552 27.448 22 28 22 C 28.552 22 29 21.552 29 21 L 29 14.318359 L 27 13.568359 z M 18.533203 26 L 33.466797 26 C 33.762797 26 34 26.224 34 26.5 C 34 26.776 33.761797 27 33.466797 27 C 32.878797 27 32.400391 27.448 32.400391 28 C 32.400391 28.552 32.877797 29 33.466797 29 L 18.533203 29 C 19.121203 29 19.599609 28.552 19.599609 28 C 19.599609 27.448 19.122203 27 18.533203 27 C 18.238203 27 18 26.776 18 26.5 C 18 26.224 18.238203 26 18.533203 26 z M 18 31 L 34 31 C 34.552 31 35 31.448 35 32 L 35 33 C 35 33.552 34.552 34 34 34 L 18 34 C 17.448 34 17 33.552 17 33 L 17 32 C 17 31.448 17.448 31 18 31 z"/></svg>