<?xml version="1.0" encoding="iso-8859-1"?><!-- Generator: Adobe Illustrator 22.1.0, SVG Export Plug-In . SVG Version: 6.00 Build 0)  --><svg xmlns="http://www.w3.org/2000/svg" xmlns:xlink="http://www.w3.org/1999/xlink" viewBox="0 0 50 50" width="50px" height="50px"><g><rect x="26" y="22" width="7" height="3"/><rect x="26" y="32" width="7" height="3"/><rect x="26" y="27" width="7" height="3"/><rect x="26" y="17" width="7" height="3"/><path d="M7,37c-0.553,0-1-0.447-1-1V16c0-0.552,0.447-1,1-1h17v-4c0-1.654-1.346-3-3-3H3c-1.654,0-3,1.346-3,3v30c0,1.654,1.346,3,3,3h19.779c0.329,0.366,0.751,0.638,1.221,0.809V42v-5H7z"/><rect x="17" y="27" width="7" height="3"/><rect x="17" y="32" width="7" height="3"/><rect x="17" y="17" width="7" height="3"/><rect x="17" y="22" width="7" height="3"/><rect x="35" y="27" width="7" height="3"/><rect x="8" y="27" width="7" height="3"/><path d="M47,8H29c-1.654,0-3,1.346-3,3v4h17c0.553,0,1,0.448,1,1v20c0,0.553-0.447,1-1,1H26v5v2.809c0.47-0.171,0.892-0.443,1.221-0.809H47c1.654,0,3-1.346,3-3V11C50,9.346,48.654,8,47,8z"/><rect x="35" y="22" width="7" height="3"/><rect x="35" y="32" width="7" height="3"/><rect x="35" y="17" width="7" height="3"/><rect x="8" y="32" width="7" height="3"/><rect x="8" y="22" width="7" height="3"/><rect x="8" y="17" width="7" height="3"/></g></svg>