<?xml version="1.0" encoding="iso-8859-1"?>
<!-- Generator: Adobe Illustrator 22.1.0, SVG Export Plug-In . SVG Version: 6.00 Build 0)  -->
<svg version="1.1" id="Layer_1" xmlns="http://www.w3.org/2000/svg" xmlns:xlink="http://www.w3.org/1999/xlink" x="0px" y="0px"
	 viewBox="0 0 50 50" style="enable-background:new 0 0 50 50;" xml:space="preserve">
<path d="M47,40H19.047v5H48c0.552,0,1-0.448,1-1v-2C49,40.895,48.105,40,47,40z"/>
<path d="M45.902,5H3v7.995c0.101-0.12,0.203-0.221,0.306-0.304l0,0C4.857,11.038,7.055,10,9.5,10c4.694,0,8.5,3.806,8.5,8.5
	c0,2.638-1.202,4.995-3.088,6.554c1.052,0.096,2.086,0.32,3.037,0.667l0.056,0.02l0.055,0.024l2.306,0.999l3.081-3.765
	c0.745-1.064,1.92-1.795,3.176-1.974c0.275-0.051,0.555-0.076,0.834-0.076c1.362,0,2.687,0.615,3.647,1.689
	c1.487,1.545,1.659,4.268,0.374,6.107c-0.688,0.986-1.63,2.168-2.627,3.419c-1.077,1.352-2.191,2.75-2.947,3.861l-0.035,0.052
	l-0.038,0.049c-0.861,1.11-2.094,1.77-3.416,1.855c-0.003,0.008-0.009,0.011-0.013,0.019H47V6C46.899,5.4,46.501,5,45.902,5z M20,11
	h12v2H20V11z M42,18H20v-2h22V18z M42,13h-7v-2h7V13z"/>
<path d="M29.638,24c-0.698-0.8-1.696-1.2-2.694-1c-0.798,0.1-1.497,0.6-1.896,1.2l-4.091,5l-3.692-1.6
	c-1.098-0.4-2.295-0.6-3.492-0.6H6.488C3.495,27,1,29.5,1,32.5V41v4h15.965V33.9l4.49,2c0.998,0.3,2.095-0.1,2.794-1
	c1.497-2.2,4.191-5.3,5.588-7.3C30.536,26.6,30.536,24.9,29.638,24z"/>
<circle cx="9.5" cy="18.5" r="6.5"/>
</svg>