<svg xmlns="http://www.w3.org/2000/svg"  viewBox="0 0 50 50" width="50px" height="50px"><path d="M 29.021484 3 C 19.647484 3 12.021484 10.626 12.021484 20 C 12.021484 29.374 19.647484 37 29.021484 37 C 38.395484 37 46.021484 29.374 46.021484 20 C 46.021484 10.626 38.395484 3 29.021484 3 z M 31.126953 8.9355469 L 32.917969 8.9355469 C 33.469969 8.9355469 33.917969 9.3825469 33.917969 9.9355469 C 33.917969 10.451547 33.522484 10.860063 33.021484 10.914062 L 33.021484 12.109375 C 33.925484 12.262375 34.760516 12.616906 35.478516 13.128906 L 36.324219 12.283203 C 36.008219 11.890203 36.018812 11.321031 36.382812 10.957031 C 36.773812 10.566031 37.405875 10.566031 37.796875 10.957031 L 39.064453 12.224609 C 39.455453 12.615609 39.455453 13.247672 39.064453 13.638672 C 38.869453 13.833672 38.613422 13.931641 38.357422 13.931641 C 38.135422 13.931641 37.920281 13.843266 37.738281 13.697266 L 36.892578 14.544922 C 37.403578 15.262922 37.757156 16.097953 37.910156 17.001953 L 39.105469 17.001953 C 39.160469 16.500953 39.570938 16.105469 40.085938 16.105469 C 40.637937 16.105469 41.085938 16.552469 41.085938 17.105469 L 41.085938 18.896484 C 41.084938 19.448484 40.636984 19.896484 40.083984 19.896484 C 39.568984 19.896484 39.160469 19.502 39.105469 19 L 37.908203 19 C 37.755203 19.904 37.401625 20.737078 36.890625 21.455078 L 37.738281 22.302734 C 38.130281 21.986734 38.699453 21.996328 39.064453 22.361328 C 39.455453 22.752328 39.455453 23.384391 39.064453 23.775391 L 37.796875 25.044922 C 37.601875 25.239922 37.345844 25.337891 37.089844 25.337891 C 36.833844 25.337891 36.577812 25.239922 36.382812 25.044922 C 36.017812 24.679922 36.007219 24.11075 36.324219 23.71875 L 35.478516 22.871094 C 34.760516 23.382094 33.924484 23.737625 33.021484 23.890625 L 33.021484 25.087891 C 33.522484 25.141891 33.917969 25.550406 33.917969 26.066406 C 33.917969 26.619406 33.469969 27.066406 32.917969 27.066406 L 31.126953 27.066406 C 30.574953 27.066406 30.126953 26.619406 30.126953 26.066406 C 30.126953 25.550406 30.520484 25.141891 31.021484 25.087891 L 31.021484 23.890625 C 30.117484 23.737625 29.283453 23.383094 28.564453 22.871094 L 27.71875 23.71875 C 28.03475 24.11175 28.024156 24.680922 27.660156 25.044922 C 27.465156 25.239922 27.209125 25.337891 26.953125 25.337891 C 26.697125 25.337891 26.441094 25.239922 26.246094 25.044922 L 24.978516 23.775391 C 24.587516 23.384391 24.587516 22.752328 24.978516 22.361328 C 25.343516 21.996328 25.911687 21.986734 26.304688 22.302734 L 27.152344 21.455078 C 26.641344 20.737078 26.287766 19.904 26.134766 19 L 24.9375 19 C 24.8825 19.501 24.473984 19.896484 23.958984 19.896484 C 23.406984 19.896484 22.958984 19.449484 22.958984 18.896484 L 22.958984 17.105469 C 22.958984 16.552469 23.406984 16.105469 23.958984 16.105469 C 24.473984 16.105469 24.8825 16.499953 24.9375 17.001953 L 26.134766 17.001953 C 26.287766 16.097953 26.641344 15.262922 27.152344 14.544922 L 26.304688 13.697266 C 26.122688 13.844266 25.907547 13.931641 25.685547 13.931641 C 25.429547 13.931641 25.173516 13.833672 24.978516 13.638672 C 24.587516 13.247672 24.587516 12.615609 24.978516 12.224609 L 26.246094 10.957031 C 26.637094 10.566031 27.269156 10.566031 27.660156 10.957031 C 28.025156 11.322031 28.03575 11.891203 27.71875 12.283203 L 28.564453 13.128906 C 29.282453 12.617906 30.117484 12.262375 31.021484 12.109375 L 31.021484 10.914062 C 30.520484 10.860062 30.126953 10.451547 30.126953 9.9355469 C 30.126953 9.3825469 30.574953 8.9355469 31.126953 8.9355469 z M 32.021484 14.021484 C 29.827484 14.021484 28.042969 15.806 28.042969 18 C 28.042969 20.194 29.827484 21.978516 32.021484 21.978516 C 34.215484 21.978516 36 20.194 36 18 C 36 15.806 34.215484 14.021484 32.021484 14.021484 z M 14.722656 32.470703 L 3.1074219 44.085938 L 5.9355469 46.914062 L 17.658203 35.191406 C 16.586203 34.388406 15.601656 33.477703 14.722656 32.470703 z"/></svg>