<svg xmlns="http://www.w3.org/2000/svg"  viewBox="0 0 50 50" width="50px" height="50px"><path d="M 10 2 C 6.6983746 2 4 4.6983746 4 8 L 4 42.5 C 4 45.525577 6.4744232 48 9.5 48 L 43 48 L 43 46 L 9.5 46 C 7.5555768 46 6 44.444423 6 42.5 C 6 40.555577 7.5555768 39 9.5 39 L 43 39 L 43 38 L 43 37 L 43 2 L 10 2 z M 18 7 L 28 7 C 29.103 7 30 7.897 30 9 L 30 11 C 30 12.103 29.103 13 28 13 L 28 18 C 28 18.521 28.176375 18.766891 28.734375 19.462891 L 33.900391 25.904297 C 35.102391 27.404297 35.335813 29.407766 34.507812 31.134766 C 33.658813 32.901766 31.896156 34 29.910156 34 L 16.089844 34 C 14.102844 34 12.342141 32.901766 11.494141 31.134766 C 10.665141 29.407766 10.897609 27.404297 12.099609 25.904297 L 17.265625 19.462891 C 17.823625 18.766891 18 18.521 18 18 L 18 13 C 16.897 13 16 12.103 16 11 L 16 9 C 16 7.897 16.897 7 18 7 z M 18.001953 9 L 18 11 L 28 11 L 28 9 L 18.001953 9 z M 20 13 L 20 18 C 20 19.249 19.430172 19.959891 18.826172 20.712891 L 18.595703 21 L 27.404297 21 L 27.175781 20.712891 C 26.570781 19.959891 26 19.249 26 18 L 26 13 L 20 13 z M 23 17 C 23.552 17 24 17.448 24 18 C 24 18.552 23.552 19 23 19 C 22.448 19 22 18.552 22 18 C 22 17.448 22.448 17 23 17 z M 17 22.990234 L 13.660156 27.15625 C 12.933156 28.06325 12.796875 29.227531 13.296875 30.269531 C 13.817875 31.353531 14.860844 32 16.089844 32 L 29.910156 32 C 31.139156 32 32.183125 31.352578 32.703125 30.267578 C 33.203125 29.224578 33.067844 28.061297 32.339844 27.154297 L 29 22.990234 L 29 23 L 17 23 L 17 22.990234 z M 27 25 C 28.105 25 29 25.895 29 27 C 29 28.105 28.105 29 27 29 C 25.895 29 25 28.105 25 27 C 25 25.895 25.895 25 27 25 z M 19.5 27 C 20.328 27 21 27.672 21 28.5 C 21 29.328 20.328 30 19.5 30 C 18.672 30 18 29.328 18 28.5 C 18 27.672 18.672 27 19.5 27 z"/></svg>