<?xml version="1.0" encoding="iso-8859-1"?>
<!-- Generator: Adobe Illustrator 23.0.3, SVG Export Plug-In . SVG Version: 6.00 Build 0)  -->
<svg version="1.1" xmlns="http://www.w3.org/2000/svg" xmlns:xlink="http://www.w3.org/1999/xlink" x="0px" y="0px"
	 viewBox="0 0 50 50" style="enable-background:new 0 0 50 50;" xml:space="preserve">
<g id="Layer_10" style="display:none;">
</g>
<g id="filled">
</g>
<g id="outlined">
</g>
<g id="rounded">
</g>
<g id="two_x5F_tone">
</g>
<g id="sharp">
</g>
<g id="win10">
</g>
<g id="ios_x5F_out">
</g>
<g id="ios_x5F_filled">
	<g>
		<path d="M33.663,16.315C31.274,14.177,28.197,13,25,13s-6.274,1.177-8.663,3.315l-1.077,0.964l-0.522-1.348
			c-1.204-3.107-0.935-6.545,0.737-9.433C17.433,3.107,21.087,1,25.012,1c1.92,0,3.818,0.51,5.488,1.474
			c4.717,2.726,6.72,8.385,4.763,13.456l-0.521,1.351L33.663,16.315z"/>
		<path style="fill:#FFFFFF;" d="M25.012,2C26.708,2,28.427,2.432,30,3.34c4.31,2.49,6.07,7.72,4.33,12.23
			C31.85,13.35,28.58,12,25,12c-3.58,0-6.85,1.35-9.33,3.57c-1.05-2.71-0.9-5.86,0.67-8.57C18.192,3.793,21.555,2,25.012,2
			 M25.012,0L25.012,0c-4.281,0-8.267,2.299-10.404,6c-1.824,3.148-2.117,6.901-0.803,10.293l1.045,2.696l2.154-1.928
			C19.208,15.087,22.048,14,25,14c2.952,0,5.792,1.087,7.996,3.06l2.158,1.931l1.042-2.702C38.331,10.756,36.146,4.581,31,1.608
			C29.178,0.556,27.107,0,25.012,0L25.012,0z"/>
	</g>
	<path d="M20.64,39.3c-0.74,0.92-1.67,1.73-2.76,2.36C13.09,44.42,6.98,42.78,4.22,38c-2.77-4.78-1.13-10.9,3.66-13.66
		c1.08-0.63,2.24-1.03,3.41-1.21C11.1,24.06,11,25.02,11,26C11,32.2,15.05,37.47,20.64,39.3z"/>
	<path d="M26.07,37.95C25.72,37.98,25.36,38,25,38c-6.62,0-12-5.38-12-12c0-2.48,0.75-4.79,2.05-6.7l10.42,10.42
		C24.67,32.49,24.92,35.41,26.07,37.95z"/>
	<path d="M35.94,21.06c-3.76,0.32-7.3,2.42-9.33,5.94c-0.13,0.22-0.25,0.44-0.35,0.67l-9.94-9.94C18.5,15.43,21.59,14,25,14
		C29.86,14,34.05,16.9,35.94,21.06z"/>
	<path d="M27.24,31.49l11.39,11.39c-2.17,0.34-4.46-0.04-6.51-1.22C28.45,39.54,26.63,35.44,27.24,31.49z"/>
	<path d="M45.78,38c-1.16,2.02-2.92,3.47-4.92,4.27L27.85,29.26c0.17-0.43,0.37-0.85,0.61-1.26c2.77-4.78,8.88-6.42,13.66-3.66
		C46.91,27.1,48.55,33.22,45.78,38z"/>
	<path style="fill:none;stroke:#000000;stroke-width:2;stroke-linecap:round;" d="M3,3l44,44"/>
</g>
<g id="color">
</g>
</svg>