<svg xmlns="http://www.w3.org/2000/svg"  viewBox="0 0 50 50" width="50px" height="50px"><path d="M 25 2 C 12.321133 2 2 12.321142 2 25 C 2 30.621085 4.031163 35.777029 7.3945312 39.777344 L 4.5859375 42.585938 A 2.0002 2.0002 0 1 0 7.4140625 45.414062 L 10.222656 42.605469 C 14.222971 45.968838 19.378911 48 25 48 C 37.678867 48 48 37.678858 48 25 C 48 19.378915 45.968837 14.222971 42.605469 10.222656 L 45.414062 7.4140625 A 2.0002 2.0002 0 0 0 43.960938 3.9804688 A 2.0002 2.0002 0 0 0 42.585938 4.5859375 L 39.777344 7.3945312 C 35.777029 4.0311618 30.621089 2 25 2 z M 25 6 C 29.535968 6 33.68935 7.5821751 36.951172 10.220703 L 10.220703 36.951172 C 7.582176 33.68935 6 29.535965 6 25 C 6 14.482899 14.482892 6 25 6 z M 39.779297 13.048828 C 42.417824 16.31065 44 20.464035 44 25 C 44 35.517101 35.517108 44 25 44 C 20.464032 44 16.31065 42.417825 13.048828 39.779297 L 39.779297 13.048828 z"/></svg>