<?xml version="1.0" encoding="iso-8859-1"?>
<!-- Generator: Adobe Illustrator 24.0.0, SVG Export Plug-In . SVG Version: 6.00 Build 0)  -->
<svg version="1.1" id="Layer_1" xmlns="http://www.w3.org/2000/svg" xmlns:xlink="http://www.w3.org/1999/xlink" x="0px" y="0px"
	 viewBox="0 0 50 50" style="enable-background:new 0 0 50 50;" xml:space="preserve">
<path style="fill:none;stroke:#000000;stroke-width:2;stroke-miterlimit:10;" d="M7,42.417V8c0-2.761,2-5,5-5c0,0,30.357,0,31,0v35"
	/>
<path style="fill:none;stroke:#000000;stroke-width:2;stroke-miterlimit:10;" d="M44,38H11.5C9.015,38,7,40.015,7,42.5l0,0
	c0,2.485,2.015,4.5,4.5,4.5H44"/>
<path d="M16.489,22.692c-0.668,1.005-1.221,1.98-1.629,2.897c-0.79,1.771-1.437,4.177-0.031,5.583
	c1.553,1.554,4.727,0.845,8.484-1.653c-1.178-0.938-2.383-2.01-3.602-3.23C18.523,25.101,17.443,23.891,16.489,22.692z"/>
<path d="M25.001,13.696c-1.259,0.971-2.561,2.116-3.876,3.43c-1.287,1.287-2.432,2.594-3.417,3.875
	c0.986,1.281,2.13,2.587,3.417,3.875c1.313,1.313,2.614,2.459,3.872,3.428c1.26-0.972,2.563-2.113,3.878-3.428
	c1.287-1.287,2.432-2.594,3.417-3.875c-0.986-1.281-2.13-2.587-3.417-3.875C27.561,15.812,26.259,14.665,25.001,13.696z M25,24
	c-1.662,0-3.009-1.343-3.009-3s1.347-3,3.009-3s3.009,1.343,3.009,3S26.662,24,25,24z"/>
<path d="M32.935,10.007c-1.658,0-3.833,0.87-6.249,2.476c1.178,0.937,2.383,2.008,3.603,3.228c1.188,1.188,2.268,2.398,3.222,3.597
	c0.668-1.005,1.221-1.98,1.629-2.897c0.79-1.771,1.437-4.177,0.031-5.583C34.617,10.274,33.855,10.007,32.935,10.007z"/>
<path d="M12,3C9.239,3,7,5.239,7,8v34c0-2.209,1.791-4,4-4h32V3H12z M18,7.006c1.105,0,2,0.893,2,1.994s-0.895,1.994-2,1.994
	S16,10.101,16,9S16.895,7.006,18,7.006z M32,34.994c-1.105,0-2-0.893-2-1.994s0.895-1.994,2-1.994s2,0.893,2,1.994
	C34,34.101,33.105,34.994,32,34.994z M36.967,24.773c1.895,4.248,0.838,6.593-0.381,7.812c-0.183,0.183-0.387,0.333-0.592,0.48
	C35.994,33.043,36,33.022,36,33c0-0.775-0.232-1.494-0.616-2.107c1.091-1.429,0.498-3.641-0.243-5.304
	c-0.409-0.916-0.961-1.891-1.629-2.897c-0.954,1.199-2.034,2.409-3.222,3.597c-1.216,1.216-2.418,2.292-3.594,3.23
	c0.697,0.462,1.375,0.87,2.025,1.206c-0.379,0.543-0.611,1.187-0.68,1.879c-0.976-0.483-1.993-1.092-3.039-1.82
	c-2.997,2.089-5.754,3.19-7.99,3.19c-1.438,0-2.662-0.453-3.596-1.388c-1.22-1.219-2.276-3.564-0.381-7.812
	c0.532-1.191,1.282-2.466,2.197-3.773c-0.914-1.307-1.665-2.582-2.197-3.773c-1.895-4.248-0.838-6.593,0.381-7.812
	C13.6,9.229,13.8,9.067,14.008,8.919C14.008,8.946,14,8.972,14,9c0,0.775,0.232,1.494,0.616,2.107
	c-1.091,1.429-0.498,3.641,0.243,5.304c0.409,0.916,0.961,1.891,1.629,2.897c0.954-1.199,2.034-2.409,3.222-3.597
	c1.217-1.217,2.42-2.288,3.597-3.227c-0.698-0.463-1.378-0.872-2.03-1.208c0.378-0.542,0.61-1.184,0.68-1.874
	c0.975,0.482,1.992,1.09,3.038,1.816c4.926-3.434,9.2-4.193,11.589-1.804c1.22,1.219,2.276,3.564,0.381,7.812
	c-0.532,1.191-1.282,2.466-2.197,3.773C35.684,22.307,36.435,23.582,36.967,24.773z"/>
</svg>