<?xml version="1.0" encoding="iso-8859-1"?>
<!-- Generator: Adobe Illustrator 24.1.2, SVG Export Plug-In . SVG Version: 6.00 Build 0)  -->
<svg version="1.1" xmlns="http://www.w3.org/2000/svg" xmlns:xlink="http://www.w3.org/1999/xlink" x="0px" y="0px"
	 viewBox="0 0 50 50" style="enable-background:new 0 0 50 50;" xml:space="preserve">
<g id="Layer_10" style="display:none;">
	<g style="display:inline;opacity:0.05;">
		<g>
			<circle style="fill:#FFFFFF;" cx="25" cy="25" r="21.5"/>
			<path d="M25,4c11.579,0,21,9.421,21,21s-9.421,21-21,21S4,36.579,4,25S13.421,4,25,4 M25,3C12.85,3,3,12.85,3,25s9.85,22,22,22
				s22-9.85,22-22S37.15,3,25,3L25,3z"/>
		</g>
		<g>
			<rect x="5.5" y="5.5" style="fill:#FFFFFF;" width="39" height="39"/>
			<path d="M44,6v38H6V6H44 M45,5H5v40h40V5L45,5z"/>
		</g>
	</g>
</g>
<g id="filled">
</g>
<g id="outlined">
</g>
<g id="rounded">
</g>
<g id="two_x5F_tone">
</g>
<g id="sharp">
</g>
<g id="win10">
</g>
<g id="ios_x5F_out">
</g>
<g id="ios_x5F_filled">
	<rect x="24.706" y="23.51" transform="matrix(0.6802 -0.7331 0.7331 0.6802 -9.7687 28.6257)" width="6.429" height="3.995"/>
	<path d="M40.39,17.19l-5.68,6.14c-0.2,0.21-0.47,0.32-0.74,0.32c-0.24,0-0.48-0.09-0.68-0.27l-3.66-3.39
		c-0.41-0.38-0.43-1.01-0.06-1.42l5.69-6.14L40.39,17.19z"/>
	<path d="M45.46,44h-2.05L38.5,23.08L33.59,44h-2.05l5.99-25.53c0.1-0.45,0.51-0.77,0.97-0.77s0.87,0.32,0.97,0.77L45.46,44z"/>
	<path d="M46.7,11.86l-3.53,3.81c-0.2,0.21-0.47,0.32-0.74,0.32c-0.24,0-0.48-0.09-0.68-0.27l-5.13-4.75
		c-0.41-0.38-0.43-1.01-0.06-1.42l3.53-3.81c0.2-0.21,0.47-0.32,0.74-0.32c0.24,0,0.48,0.09,0.68,0.27l5.13,4.75
		C47.05,10.82,47.07,11.45,46.7,11.86z"/>
	<path d="M9.28,36.31c-0.38,0.4-0.37,1.03,0.03,1.41L15.88,44H4V34c0-3.31,2.69-6,6-6s6,2.69,6,6v7.35l-5.31-5.07
		C10.29,35.9,9.66,35.91,9.28,36.31z"/>
	<circle cx="15.5" cy="21.5" r="6.5"/>
	
		<line style="fill:none;stroke:#000000;stroke-width:2;stroke-linejoin:round;stroke-miterlimit:10;" x1="27.204" y1="29.223" x2="18.4" y2="21.069"/>
	<path d="M20,43.9c-0.927,0-1.817-0.367-2.475-1.025l-7.9-7.9c-1.367-1.367-1.367-3.583,0-4.95c1.367-1.366,3.583-1.366,4.95,0
		l5.204,5.205l5.044-5.985c1.246-1.478,3.453-1.667,4.933-0.421c1.478,1.246,1.666,3.454,0.421,4.932l-7.5,8.9
		c-0.632,0.75-1.549,1.2-2.527,1.242C20.1,43.899,20.05,43.9,20,43.9z"/>
</g>
<g id="color">
</g>
</svg>