<?xml version="1.0" encoding="iso-8859-1"?><!-- Generator: Adobe Illustrator 19.1.0, SVG Export Plug-In . SVG Version: 6.00 Build 0)  --><svg xmlns="http://www.w3.org/2000/svg" xmlns:xlink="http://www.w3.org/1999/xlink" viewBox="0 0 50 50" width="50px" height="50px"><path d="M40,26.841V14.6L25.4,0H4v48h36v-2.841c0.841-0.369,1.623-0.847,2.324-1.421l-1.031-1.031l1.414-1.414l1.031,1.031C45.15,40.6,46,38.397,46,36C46,31.908,43.527,28.388,40,26.841z M25,2.4L37.6,15H25V2.4z M40,42.918C38.821,43.602,37.458,44,36,44c-4.411,0-8-3.589-8-8s3.589-8,8-8c1.458,0,2.821,0.398,4,1.082c2.387,1.387,4,3.965,4,6.918S42.387,41.531,40,42.918z"/><path d="M42.324,43.738l5.969,5.969l1.414-1.414l-5.969-5.969C43.314,42.841,42.841,43.314,42.324,43.738z"/><path d="M41.293,42.707l1.031,1.031c0.517-0.424,0.99-0.897,1.414-1.414l-1.031-1.031L41.293,42.707z"/></svg>