<?xml version="1.0" encoding="iso-8859-1"?><!-- Generator: Adobe Illustrator 21.1.0, SVG Export Plug-In . SVG Version: 6.00 Build 0)  --><svg xmlns="http://www.w3.org/2000/svg" xmlns:xlink="http://www.w3.org/1999/xlink" viewBox="0 0 50 50" width="50px" height="50px"><path d="M12.013,26H2.025c0.155,3.6,1.138,6.99,2.769,9.979h8.482C12.526,32.96,12.083,29.588,12.013,26z"/><path d="M24,11.979V2.104c-3.269,0.65-6.175,4.442-8.001,9.875H24z"/><path d="M24,26h-9.987c0.078,3.577,0.567,6.973,1.371,9.979H24V26z"/><path d="M24,24v-9.979h-8.616C14.58,17.027,14.09,20.423,14.013,24H24z"/><path d="M36.724,35.979h8.482C46.836,32.99,47.82,29.6,47.975,26h-9.987C37.917,29.588,37.474,32.96,36.724,35.979z"/><path d="M13.276,14.021H4.794C3.164,17.01,2.18,20.4,2.025,24h9.987C12.083,20.412,12.526,17.04,13.276,14.021z"/><path d="M35.987,24c-0.078-3.577-0.567-6.973-1.371-9.979H26V24H35.987z"/><path d="M26,2.104v9.875h8.001C32.175,6.546,29.269,2.754,26,2.104z"/><path d="M36.724,14.021c0.75,3.018,1.193,6.391,1.263,9.979h9.987c-0.155-3.6-1.138-6.99-2.769-9.979H36.724z"/><path d="M13.846,11.979c1.212-3.889,2.961-7.054,5.063-9.154c-5.287,1.454-9.817,4.749-12.854,9.154H13.846z"/><path d="M13.846,38.021H6.055c3.037,4.404,7.567,7.7,12.854,9.154C16.807,45.076,15.058,41.91,13.846,38.021z"/><path d="M36.154,38.021c-1.212,3.889-2.961,7.054-5.063,9.154c5.287-1.454,9.817-4.749,12.854-9.154H36.154z"/><path d="M26,26v9.979h8.616c0.804-3.006,1.294-6.401,1.371-9.979H26z"/><path d="M36.154,11.979h7.791c-3.037-4.404-7.567-7.7-12.854-9.154C33.193,4.924,34.942,8.09,36.154,11.979z"/><path d="M26,38.021v9.875c3.269-0.65,6.175-4.442,8.001-9.875H26z"/><path d="M24,47.896v-9.875h-8.001C17.825,43.454,20.731,47.246,24,47.896z"/></svg>