<?xml version="1.0"?><svg xmlns="http://www.w3.org/2000/svg"  viewBox="0 0 50 50" width="50px" height="50px">    <path d="M 9 4 C 8.45 4 8 4.45 8 5 L 8 8 C 8 8.55 8.45 9 9 9 L 41 9 C 41.55 9 42 8.55 42 8 L 42 5 C 42 4.45 41.55 4 41 4 L 9 4 z M 9 11 L 9 18.789062 C 9 23.309063 7.6699219 27.689219 5.1699219 31.449219 C 4.9599219 31.749219 4.9391406 32.150703 5.1191406 32.470703 C 5.2891406 32.800703 5.63 33 6 33 L 36 33 C 36.33 33 36.650078 32.830781 36.830078 32.550781 C 39.560078 28.470781 41 23.709063 41 18.789062 L 41 11 L 9 11 z M 41 28.949219 C 40.33 30.589219 39.49 32.170156 38.5 33.660156 C 37.94 34.500156 37.01 35 36 35 L 9 35 L 9 38 C 9 38.55 9.45 39 10 39 L 16.523438 39 L 13.072266 47.628906 C 12.867266 48.141906 13.115906 48.724688 13.628906 48.929688 C 13.750906 48.978687 13.876 49 14 49 C 14.396 49 14.772688 48.763094 14.929688 48.371094 L 18.677734 39 L 26 39 L 26 45 C 26 45.553 26.447 46 27 46 C 27.553 46 28 45.553 28 45 L 28 39 L 35.322266 39 L 39.070312 48.371094 C 39.227313 48.763094 39.604 49 40 49 C 40.124 49 40.250094 48.978687 40.371094 48.929688 C 40.884094 48.724687 41.134687 48.141906 40.929688 47.628906 L 37.478516 39 L 40 39 C 40.55 39 41 38.55 41 38 L 41 28.949219 z"/></svg>