<?xml version="1.0" encoding="iso-8859-1"?>
<!-- Generator: Adobe Illustrator 23.0.3, SVG Export Plug-In . SVG Version: 6.00 Build 0)  -->
<svg version="1.1" xmlns="http://www.w3.org/2000/svg" xmlns:xlink="http://www.w3.org/1999/xlink" x="0px" y="0px"
	 viewBox="0 0 50 50" style="enable-background:new 0 0 50 50;" xml:space="preserve">
<g id="Layer_10" style="display:none;">
</g>
<g id="filled">
</g>
<g id="outlined">
</g>
<g id="rounded">
</g>
<g id="two_x5F_tone">
</g>
<g id="sharp">
</g>
<g id="win10">
</g>
<g id="ios_x5F_out">
</g>
<g id="ios_x5F_filled">
	<path d="M37,29v-3c0-1-0.747-2-2-2c-1.254,0-2,1-2,2v4.5c0,0.275-0.225,0.5-0.5,0.5S32,30.775,32,30.5v-7V19c0-1.361-1-2-2-2
		s-2,0.712-2,2l-0.067,14.944C27.31,34.321,25,35.339,25,38.903c0,0.914,3,10.092,9.381,10.092C34.408,48.997,40.4,49,40.4,49
		c3.244,0,6.6-1.49,6.6-5.658c0,0,0-15.098,0-15.342c0-1.017-0.738-2-2-2s-2,1.006-2,2v2.5c0,0.275-0.225,0.5-0.5,0.5
		S42,30.775,42,30.5V27c0-1-0.716-2-2-2s-2,1-2,2v2v1.5c0,0.275-0.225,0.5-0.5,0.5S37,30.775,37,30.5V29z"/>
	<path d="M20,7v2h2V7H20z M24,7v2h2V7H24z M28,7v2h2V7H28z M28,7v2h2V7H28z M24,9h2V7h-2V9z M20,9h2V7h-2V9z M34,0H8
		C6.35,0,5,1.35,5,3v29c0,1.65,1.35,3,3,3h15.95c0.59-1.05,1.36-1.73,1.99-2.18L25.95,31H22v-4h3.97v-2H22v-4h3.99L26,19h-4v-4h4v4
		c0-2.24,1.76-4,4-4c2.28,0,4,1.72,4,4v3.12c0.32-0.08,0.65-0.12,1-0.12c0.74,0,1.42,0.19,2,0.52V3C37,1.35,35.65,0,34,0z M14,31h-4
		v-4h4V31z M14,25h-4v-4h4V25z M14,19h-4v-4h4V19z M20,31h-4v-4h4V31z M20,25h-4v-4h4V25z M20,19h-4v-4h4V19z M32,12H10V4h22V12z
		 M30,7h-2v2h2V7z M26,7h-2v2h2V7z M22,7h-2v2h2V7z M20,7v2h2V7H20z M24,7v2h2V7H24z M28,7v2h2V7H28z M20,7v2h2V7H20z M24,7v2h2V7
		H24z M28,7v2h2V7H28z"/>
</g>
<g id="color">
</g>
</svg>