<?xml version="1.0" encoding="iso-8859-1"?>
<!-- Generator: Adobe Illustrator 22.1.0, SVG Export Plug-In . SVG Version: 6.00 Build 0)  -->
<svg version="1.1" id="Layer_1" xmlns="http://www.w3.org/2000/svg" xmlns:xlink="http://www.w3.org/1999/xlink" x="0px" y="0px"
	 viewBox="0 0 50 50" style="enable-background:new 0 0 50 50;" xml:space="preserve">
<g>
</g>
<rect x="5" y="19" width="2" height="11"/>
<rect x="1" y="23.5" width="10" height="2"/>
<rect x="11" y="5" width="2" height="14"/>
<rect x="5" y="11" width="14" height="2"/>
<rect x="36" y="5" width="2" height="14"/>
<rect x="30" y="11" width="14" height="2"/>
<rect x="11" y="29" width="2" height="14"/>
<rect x="5" y="35" width="14" height="2"/>
<rect x="36" y="29" width="2" height="14"/>
<rect x="30" y="35" width="14" height="2"/>
<rect x="23" y="16" width="3" height="17"/>
<rect x="23" y="16" transform="matrix(6.123234e-17 -1 1 6.123234e-17 0 49)" width="3" height="17"/>
<rect x="43" y="19" width="2" height="11"/>
<rect x="39" y="23.5" width="10" height="2"/>
<rect x="23.5" width="2" height="11"/>
<rect x="19.5" y="4.5" width="10" height="2"/>
<rect x="23.5" y="38" width="2" height="11"/>
<rect x="19.5" y="42.5" width="10" height="2"/>
</svg>