<?xml version="1.0" encoding="iso-8859-1"?><!-- Generator: Adobe Illustrator 22.1.0, SVG Export Plug-In . SVG Version: 6.00 Build 0)  --><svg xmlns="http://www.w3.org/2000/svg" xmlns:xlink="http://www.w3.org/1999/xlink" viewBox="0 0 50 50" width="50px" height="50px"><path style="fill:none;stroke:#000000;stroke-width:2;stroke-miterlimit:10;" d="M36,34c0,2-0.349,2.395-0.99,3.253c-3.2,4.288-4.446,8.36-4.848,9.994C30.053,47.692,29.651,48,29.193,48h-8.388c-0.458,0-0.859-0.308-0.969-0.753c-0.402-1.634-1.647-5.706-4.848-9.994C14.348,36.395,14,36,14,34"/><path d="M28.998,16.098c0,0.346,0.204,0.594,0.496,0.77c0.93,0.563,4.504-0.783,4.504-1.982C33.998,13.674,28.998,13.388,28.998,16.098z"/><path d="M20.504,16.868C20.796,16.691,21,16.444,21,16.098c0-2.71-5-2.424-5-1.212C16,16.085,19.575,17.431,20.504,16.868z"/><path d="M14.142,3.01C15.534,3.164,22.2,3.984,25,5.744c2.799-1.76,9.467-2.58,10.888-2.738l0.225-0.032C35.006,2.563,30.434,1,24.999,1c-5.433,0-10.003,1.562-11.112,1.973L14.142,3.01z"/><rect x="21" y="30" width="8" height="19"/><path d="M37.983,19.219l-0.985-8.298V4.868L36.14,4.99c-3.377,0.376-9.159,1.441-10.435,2.717C25.518,7.895,25.266,8,25,8s-0.521-0.105-0.709-0.293c-1.275-1.276-7.057-2.342-10.401-2.713L13,4.867v6.071l-0.985,8.299c-0.146,1.447,0.771,2.787,2.184,3.186L21,24.34V28h7.998v-3.659l6.803-1.919C37.214,22.023,38.132,20.684,37.983,19.219z M22,18.038c-0.89,0.517-2.066,0.993-3.419,0.993c-0.515,0-1.052-0.069-1.604-0.232c-1.227-0.361-2.071-1.089-2.663-1.956l0.572-4.81c3.403,0.251,6.156,1.873,7.115,2.507V18.038z M26,24h-2v-9h2V24z M33.022,18.799c-0.553,0.163-1.09,0.232-1.604,0.232c-1.352,0-2.528-0.476-3.417-0.993v-3.515c0.982-0.645,3.721-2.243,7.115-2.491l0.571,4.809C35.095,17.709,34.25,18.437,33.022,18.799z"/><path d="M18.989,25.772c-0.013-0.004-0.024-0.007-0.037-0.011L13,24.084V34c0,2.16,0.406,2.809,1.125,3.768l0.062,0.085c3.108,4.163,4.307,8.124,4.678,9.633c0.032,0.13,0.08,0.253,0.135,0.37V41v-2v-8v-5C19,25.899,18.995,25.825,18.989,25.772z"/><path d="M31.072,25.756c-0.022,0.006-0.043,0.011-0.062,0.017C31.005,25.825,31,25.899,31,26v5v7.667V39v8.852c0.054-0.117,0.101-0.238,0.133-0.367c0.371-1.509,1.569-5.47,4.679-9.634l0.065-0.088C36.595,36.805,37,36.157,37,34v-9.916L31.072,25.756z"/><g><g><g><g></g></g></g></g></svg>