<svg xmlns="http://www.w3.org/2000/svg"  viewBox="0 0 50 50" width="50px" height="50px"><path d="M48.62,19.21l-23-18c-0.37-0.28-0.87-0.28-1.24,0l-23,18c-0.43,0.34-0.51,0.97-0.17,1.41c0.34,0.43,0.97,0.51,1.41,0.17 L4,19.71V46c0,0.55,0.45,1,1,1h40c0.55,0,1-0.45,1-1V19.71l1.38,1.08C47.57,20.93,47.78,21,48,21c0.3,0,0.59-0.13,0.79-0.38 C49.13,20.18,49.05,19.55,48.62,19.21z M34.93,28.08C34.44,28.57,24.42,38.62,24.04,39c-1.41,1.36-3.14,2.07-4.98,2.07 s-3.63-0.71-4.99-2.07c-2.76-2.72-2.76-7.17,0-9.94c0.44-0.49,10.46-10.49,10.84-10.93c1.41-1.36,3.19-2.06,4.98-2.06 c1.84,0,3.63,0.7,5.04,2.06C37.69,20.85,37.69,25.31,34.93,28.08z M18.42,27.48c-1.12,1.13-2.65,2.67-2.85,2.9l-0.04,0.04 l-0.04,0.04c-0.97,0.97-1.5,2.25-1.49,3.61c0,1.33,0.53,2.57,1.47,3.5c0.97,0.97,2.23,1.49,3.58,1.49c1.34,0,2.58-0.52,3.6-1.5 c0.15-0.15,1.35-1.37,2.63-2.65c0.63-0.63,1.27-1.28,1.82-1.83l-7.17-7.11L18.42,27.48z"/></svg>