<?xml version="1.0" encoding="utf-8"?><!-- Generator: Adobe Illustrator 15.0.0, SVG Export Plug-In . SVG Version: 6.00 Build 0)  --><!DOCTYPE svg PUBLIC "-//W3C//DTD SVG 1.1//EN" "http://www.w3.org/Graphics/SVG/1.1/DTD/svg11.dtd"><svg xmlns="http://www.w3.org/2000/svg" xmlns:xlink="http://www.w3.org/1999/xlink" viewBox="0 0 50 50" width="50px" height="50px"><path d="M42.2,50H4.1c-0.817,0-2-0.569-2-1.6c0-0.234,0.083-0.461,0.232-0.642C8.601,40.256,14.876,32.8,21.5,24.987C14.828,16.808,2.456,1.791,2.328,1.636C2.082,1.337,2.031,0.923,2.196,0.573S2.713,0,3.1,0H42c0.553,0,1,0.448,1,1v11.5c0,0.552-0.447,1-1,1h-1.3c-1.026,0-1.655-0.486-1.868-1.445c-0.055-0.18-0.088-0.359-0.118-0.539c-0.017-0.099-0.029-0.2-0.063-0.299C37.456,7.232,37.057,5.9,31.9,5.9C28.323,5.981,22.196,5.998,18.938,6l3.211,4.213c3.008,3.949,5.957,7.819,9.145,11.979c0.282,0.369,0.273,0.885-0.021,1.244L16.818,41l17.604,0.004c3.148,0,5.261-1.372,6.457-4.194c0.037-0.12,0.13-0.313,0.227-0.506c0.054-0.108,0.11-0.215,0.146-0.322c0.49-1.681,1.769-2.707,3.409-2.707c0.323,0,0.525,0.043,0.525,0.043c0.534,0.112,0.897,0.634,0.796,1.17l-2.8,14.7C43.093,49.659,42.681,50,42.2,50z"/></svg>