<?xml version="1.0" encoding="iso-8859-1"?>
<!-- Generator: Adobe Illustrator 24.0.2, SVG Export Plug-In . SVG Version: 6.00 Build 0)  -->
<svg version="1.1" id="Layer_1" xmlns="http://www.w3.org/2000/svg" xmlns:xlink="http://www.w3.org/1999/xlink" x="0px" y="0px"
	 viewBox="0 0 50 50" style="enable-background:new 0 0 50 50;" xml:space="preserve">
<path d="M49.807,23.804c-0.384-1.556-1.351-2.869-2.722-3.697L38.636,15h-23.2l25.442,15.376c0.969,0.585,2.037,0.863,3.093,0.863
	c2.033,0,4.02-1.031,5.146-2.895C49.946,26.973,50.191,25.361,49.807,23.804z M37.5,22c-0.828,0-1.5-0.672-1.5-1.5
	s0.672-1.5,1.5-1.5s1.5,0.672,1.5,1.5S38.328,22,37.5,22z M41,26c-1.105,0-2-0.895-2-2c0-1.105,0.895-2,2-2s2,0.895,2,2
	C43,25.105,42.105,26,41,26z"/>
<path d="M12.858,17.486L12,16.057l-0.857,1.429C10.619,18.361,8,22.833,8,25c0,2.206,1.794,4,4,4s4-1.794,4-4
	C16,22.833,13.382,18.361,12.858,17.486z"/>
<line style="fill:none;stroke:#000000;stroke-width:2;stroke-linecap:round;stroke-miterlimit:10;" x1="12.636" y1="13.308" x2="18.842" y2="3.038"/>
<path style="fill:none;stroke:#000000;stroke-width:2;stroke-linecap:round;stroke-miterlimit:10;" d="M48.261,27.827L48.261,27.827
	c-1.428,2.363-4.502,3.121-6.865,1.693L13.153,12.452l5.172-8.558l28.243,17.069C48.931,22.39,49.689,25.464,48.261,27.827z"/>
<path style="fill:none;stroke:#000000;stroke-width:2;stroke-linecap:round;stroke-linejoin:round;stroke-miterlimit:10;" d="M2,38
	h5.101C7.035,38.323,7,38.657,7,39c0,2.761,2.239,5,5,5c2.254,0,4.137-1.501,4.762-3.552C17.438,40.79,18.191,41,19,41
	c2.049,0,3.806-1.236,4.578-3H48"/>
</svg>