<?xml version="1.0" encoding="iso-8859-1"?><!-- Generator: Adobe Illustrator 22.1.0, SVG Export Plug-In . SVG Version: 6.00 Build 0)  --><svg xmlns="http://www.w3.org/2000/svg" xmlns:xlink="http://www.w3.org/1999/xlink" viewBox="0 0 50 50" width="50px" height="50px"><g></g><path d="M12,39h32V2H12C8.691,2,6,4.691,6,8v34.417C6,45.495,8.691,48,12,48h32v-2H12c-2.168,0-4-1.641-4-3.583C8,40.501,9.757,39,12,39z M29,24.167L34.375,17H29.25v-2H37v1.833L31.625,24H37v2h-8V24.167z M24,19h4v2h-4V19z M13,25.515L16.943,15h2.113L23,25.515V26l-1.937,0.048L21,25.878L20.296,24h-4.591l-0.768,2.048L14.81,26H13V25.515z"/><polygon points="19.546,22 18,17.879 16.455,22 "/></svg>