<?xml version="1.0" encoding="iso-8859-1"?>
<!-- Generator: Adobe Illustrator 23.0.6, SVG Export Plug-In . SVG Version: 6.00 Build 0)  -->
<svg version="1.1" baseProfile="basic" id="&#x421;&#x43B;&#x43E;&#x439;_1"
	 xmlns="http://www.w3.org/2000/svg" xmlns:xlink="http://www.w3.org/1999/xlink" x="0px" y="0px" viewBox="0 0 50 50"
	 xml:space="preserve">
<g>
	<path style="fill:#2E262C;" d="M8.983,21.626c0.855,1.466,2.44,2.377,4.137,2.377h6.733c1.697,0,3.282-0.91,4.137-2.377
		l3.331-5.709c0.869-1.489,0.869-3.34,0-4.829L23.99,5.379c-0.855-1.466-2.44-2.377-4.137-2.377H13.12
		c-1.697,0-3.282,0.91-4.137,2.377l-3.331,5.709c-0.869,1.489-0.869,3.34,0,4.829L8.983,21.626z M18,6c0.552,0,1,0.448,1,1
		c0,0.552-0.448,1-1,1s-1-0.448-1-1C17,6.448,17.448,6,18,6z M18.5,11c1.933,0,3.5,1.567,3.5,3.5S20.433,18,18.5,18
		S15,16.433,15,14.5S16.567,11,18.5,11z M15,20c0,0.552-0.448,1-1,1s-1-0.448-1-1c0-0.552,0.448-1,1-1S15,19.448,15,20z M13,8
		c0.552,0,1,0.448,1,1c0,0.552-0.448,1-1,1s-1-0.448-1-1C12,8.448,12.448,8,13,8z M10,12c1.105,0,2,0.895,2,2c0,1.105-0.895,2-2,2
		s-2-0.895-2-2C8,12.895,8.895,12,10,12z"/>
	<path style="fill:#2E262C;" d="M23.035,28.377c-0.856-1.465-2.442-2.375-4.139-2.375h-6.75c-1.697,0-3.283,0.91-4.139,2.375
		l-3.334,5.705c-0.872,1.492-0.872,3.345,0,4.837l3.334,5.705c0.856,1.465,2.442,2.374,4.139,2.374h6.75
		c1.697,0,3.283-0.91,4.139-2.374l3.335-5.705c0.872-1.492,0.872-3.345,0-4.837L23.035,28.377z M8.226,34.292
		c-0.438-0.703-0.222-1.628,0.481-2.066c0.703-0.438,1.628-0.222,2.066,0.481c0.438,0.703,0.222,1.628-0.481,2.066
		C9.589,35.211,8.664,34.996,8.226,34.292z M12.611,41.183c-0.654,0.89-1.905,1.082-2.795,0.428
		c-0.89-0.654-1.082-1.905-0.428-2.795c0.654-0.89,1.905-1.082,2.795-0.428C13.073,39.042,13.265,40.293,12.611,41.183z
		 M18.528,42.849c-0.469,0.292-1.086,0.148-1.377-0.321c-0.292-0.469-0.148-1.086,0.321-1.377s1.086-0.148,1.377,0.321
		C19.141,41.941,18.997,42.557,18.528,42.849z M20.334,36.57c-1.144,1.558-3.334,1.893-4.891,0.749s-1.893-3.334-0.749-4.891
		c1.144-1.558,3.334-1.893,4.891-0.749S21.478,35.013,20.334,36.57z"/>
	<path style="fill:#2E262C;" d="M47.358,24.107l-3.364-5.755c-0.845-1.448-2.411-2.347-4.088-2.347h-6.805
		c-1.677,0-3.243,0.899-4.088,2.346l-3.364,5.756c-0.861,1.473-0.861,3.305,0,4.778l3.364,5.755
		c0.845,1.448,2.411,2.347,4.088,2.347h6.805c1.677,0,3.243-0.899,4.088-2.346l3.364-5.756
		C48.219,27.412,48.219,25.58,47.358,24.107z M34.184,19.422c0.319-0.451,0.944-0.557,1.394-0.237
		c0.45,0.319,0.557,0.944,0.237,1.394c-0.319,0.45-0.944,0.557-1.394,0.237C33.971,20.496,33.865,19.872,34.184,19.422z
		 M35.816,33.578c-0.319,0.45-0.944,0.557-1.394,0.237c-0.451-0.319-0.557-0.944-0.237-1.394c0.319-0.451,0.944-0.557,1.394-0.237
		C36.029,32.504,36.135,33.128,35.816,33.578z M33,30c-1.657,0-3-1.343-3-3s1.343-3,3-3s3,1.343,3,3S34.657,30,33,30z
		 M38.369,22.843c0.639-0.901,1.887-1.113,2.788-0.475c0.901,0.639,1.113,1.887,0.475,2.788c-0.639,0.901-1.887,1.113-2.788,0.475
		C37.942,24.992,37.73,23.744,38.369,22.843z M41.724,31.368c-0.479,0.676-1.415,0.835-2.091,0.356s-0.835-1.415-0.356-2.091
		s1.415-0.835,2.091-0.356C42.043,29.756,42.203,30.692,41.724,31.368z"/>
</g>
</svg>