<?xml version="1.0" encoding="iso-8859-1"?>
<!-- Generator: Adobe Illustrator 24.0.2, SVG Export Plug-In . SVG Version: 6.00 Build 0)  -->
<svg version="1.1" id="Layer_1" xmlns="http://www.w3.org/2000/svg" xmlns:xlink="http://www.w3.org/1999/xlink" x="0px" y="0px"
	 viewBox="0 0 50 50" style="enable-background:new 0 0 50 50;" xml:space="preserve">
<g>
	<path d="M25.001,12c-0.367,0-0.72-0.202-0.896-0.553c-1.224-2.447-0.268-4.359,0.5-5.895c0.713-1.426,1.276-2.553,0.5-4.105
		c-0.247-0.494-0.047-1.095,0.447-1.342s1.095-0.047,1.342,0.447c1.224,2.447,0.268,4.359-0.5,5.895
		c-0.713,1.426-1.276,2.553-0.5,4.105c0.247,0.494,0.047,1.095-0.447,1.342C25.304,11.966,25.151,12,25.001,12z"/>
</g>
<g>
	<path d="M20.001,12c-0.367,0-0.72-0.202-0.896-0.553c-1.224-2.447-0.268-4.359,0.5-5.895c0.713-1.426,1.276-2.553,0.5-4.105
		c-0.247-0.494-0.047-1.095,0.447-1.342c0.495-0.247,1.095-0.047,1.342,0.447c1.224,2.447,0.268,4.359-0.5,5.895
		c-0.713,1.426-1.276,2.553-0.5,4.105c0.247,0.494,0.047,1.095-0.447,1.342C20.304,11.966,20.151,12,20.001,12z"/>
</g>
<g>
	<path d="M30.001,12c-0.367,0-0.72-0.202-0.896-0.553c-1.224-2.447-0.268-4.359,0.5-5.895c0.713-1.426,1.276-2.553,0.5-4.105
		c-0.247-0.494-0.047-1.095,0.447-1.342c0.494-0.248,1.095-0.047,1.342,0.447c1.224,2.447,0.268,4.359-0.5,5.895
		c-0.713,1.426-1.276,2.553-0.5,4.105c0.247,0.494,0.047,1.095-0.447,1.342C30.304,11.966,30.151,12,30.001,12z"/>
</g>
<path d="M42.844,45.248c-0.008-0.128-0.03-0.255-0.049-0.382c-0.011-0.071-0.014-0.144-0.028-0.215
	c-0.006-0.03-0.017-0.059-0.024-0.088c-0.122-0.559-0.348-1.101-0.686-1.591l-5.807-8.42L34.491,32h0L31,26.939V16
	c0.553,0,1-0.448,1-1s-0.447-1-1-1H19c-0.552,0-1,0.448-1,1s0.448,1,1,1v10.938L15.509,32h0l-4.338,6.291l-3.229,4.682
	c-0.194,0.281-0.343,0.58-0.466,0.888c-0.481,1.201-0.432,2.563,0.187,3.741c0.388,0.74,0.963,1.339,1.649,1.754
	C9.998,49.77,10.796,50,11.632,50h26.736c1.115,0,2.157-0.416,2.962-1.128c0.401-0.355,0.748-0.778,1.007-1.27
	c0.386-0.737,0.553-1.546,0.507-2.343C42.844,45.256,42.845,45.252,42.844,45.248z M19.5,39c0-1.379,1.121-2.5,2.5-2.5
	s2.5,1.121,2.5,2.5c0,1.379-1.121,2.5-2.5,2.5S19.5,40.379,19.5,39z M33.5,42.5c0,1.654-1.346,3-3,3s-3-1.346-3-3s1.346-3,3-3
	S33.5,40.846,33.5,42.5z M21,27.562V16h8v11.562L32.061,32H17.939L21,27.562z"/>
</svg>