<?xml version="1.0" encoding="iso-8859-1"?>
<!-- Generator: Adobe Illustrator 24.0.2, SVG Export Plug-In . SVG Version: 6.00 Build 0)  -->
<svg version="1.1" id="&#x421;&#x43B;&#x43E;&#x439;_1"
	 xmlns="http://www.w3.org/2000/svg" xmlns:xlink="http://www.w3.org/1999/xlink" x="0px" y="0px" viewBox="0 0 50 50"
	 style="enable-background:new 0 0 50 50;" xml:space="preserve">
<g>
	<path d="M41,18h-5v-3c0-0.553-0.448-1-1-1h-9v-2.141c1.722-0.446,3-1.997,3-3.859c0-4-4-6-4-6s-4,2-4,6
		c0,1.862,1.278,3.412,3,3.859V14h-9c-0.552,0-1,0.447-1,1v3H9c-2.757,0-5,2.243-5,5v20c0,2.757,2.243,5,5,5h32c2.757,0,5-2.243,5-5
		V23C46,20.243,43.757,18,41,18z M9,20h6c0.552,0,1-0.447,1-1v-3h18v3c0,0.553,0.448,1,1,1h6c1.654,0,3,1.346,3,3v5H26v6
		c0,2.757-2.243,5-5,5h-4c-0.552,0-1-0.447-1-1s0.448-1,1-1h4c1.654,0,3-1.346,3-3v-6H6v-5C6,21.346,7.346,20,9,20z M8,33.5
		C8,32.672,8.672,32,9.5,32s1.5,0.672,1.5,1.5S10.328,35,9.5,35S8,34.328,8,33.5z M30,43c0-0.552,0.448-1,1-1s1,0.448,1,1
		c0,0.552-0.448,1-1,1S30,43.552,30,43z M36,34c0-1.105,0.895-2,2-2s2,0.895,2,2c0,1.105-0.895,2-2,2S36,35.105,36,34z"/>
	<rect x="24" y="18" width="2" height="10"/>
</g>
</svg>