<?xml version="1.0" encoding="iso-8859-1"?><!-- Generator: Adobe Illustrator 19.1.1, SVG Export Plug-In . SVG Version: 6.00 Build 0)  --><svg xmlns="http://www.w3.org/2000/svg" xmlns:xlink="http://www.w3.org/1999/xlink" viewBox="0 0 50 50" width="50px" height="50px"><path d="M33.6,42c-4.133,0-6.6-2.841-6.6-7.6c0-3.564,0.471-7.672,1.067-12.871c0.231-2.013,0.48-4.182,0.725-6.529h-4.685l-0.236,2.396C22.118,35.301,21.462,42,14.8,42c-2.012,0-4.8-1.737-4.8-5c0-2.426,1.104-3.229,2.272-4.081c1.9-1.384,5.05-3.678,6.339-17.919H17c-2.278,0-3.9,1.123-5.105,3.533c-0.537,0.868-1.396,1.847-3.182,1.31c-0.271-0.081-0.495-0.274-0.616-0.53s-0.128-0.551-0.019-0.813c0.995-2.389,2.004-4.499,3.073-6.732l0.047-0.1C12.129,9.805,13.956,8,25,8h16c0.553,0,1,0.448,1,1v5c0,0.552-0.447,1-1,1h-6.085c-0.98,11.1-1.307,17.762-0.169,19.005C34.916,34.191,35.177,34.3,36,34.3c1.332,0,2.5-2.057,2.5-3.3c0-0.553,0.447-1,1-1H41c0.553,0,1,0.447,1,1C42,38.299,39.174,42,33.6,42z"/></svg>