<?xml version="1.0" encoding="utf-8"?><!-- Generator: Adobe Illustrator 15.0.0, SVG Export Plug-In . SVG Version: 6.00 Build 0)  --><!DOCTYPE svg PUBLIC "-//W3C//DTD SVG 1.1//EN" "http://www.w3.org/Graphics/SVG/1.1/DTD/svg11.dtd"><svg xmlns="http://www.w3.org/2000/svg" xmlns:xlink="http://www.w3.org/1999/xlink" viewBox="0 0 50 50" width="50px" height="50px"><g><path d="M0,11v36h50V11H0z M34.665,16.125c0.37,0,0.729-0.028,1.079-0.084s0.666-0.162,0.949-0.316c0.281-0.154,0.521-0.365,0.717-0.633c0.195-0.267,0.328-0.606,0.402-1.018h1.002v10.934h-1.312v-7.834h-2.838V16.125z M8.779,16.125c0.37,0,0.73-0.028,1.079-0.084c0.35-0.056,0.666-0.162,0.949-0.316c0.282-0.154,0.522-0.365,0.717-0.633c0.196-0.267,0.329-0.606,0.402-1.018h1.003v10.934h-1.312v-7.834H8.779V16.125z M15.608,35.797c-0.02,0.432-0.072,0.854-0.153,1.266c-0.083,0.41-0.201,0.799-0.355,1.162c-0.154,0.365-0.365,0.687-0.633,0.965c-0.267,0.278-0.601,0.496-1.003,0.656c-0.4,0.158-0.889,0.237-1.465,0.237c-0.566,0-1.052-0.079-1.457-0.237c-0.407-0.16-0.743-0.379-1.01-0.656c-0.267-0.277-0.478-0.6-0.632-0.965c-0.154-0.363-0.272-0.752-0.354-1.162c-0.083-0.412-0.134-0.834-0.154-1.266c-0.021-0.432-0.031-0.848-0.031-1.249c-0.001-0.401,0.01-0.817,0.031-1.25c0.02-0.432,0.072-0.853,0.154-1.264c0.082-0.412,0.2-0.802,0.354-1.173c0.154-0.369,0.365-0.693,0.633-0.971c0.267-0.276,0.604-0.498,1.01-0.664c0.405-0.164,0.891-0.246,1.457-0.246c0.565,0,1.052,0.082,1.457,0.246c0.407,0.166,0.743,0.388,1.01,0.664c0.267,0.277,0.478,0.602,0.633,0.971c0.154,0.371,0.272,0.762,0.355,1.173c0.082,0.411,0.133,0.832,0.153,1.264c0.021,0.433,0.031,0.849,0.031,1.25C15.639,34.948,15.629,35.365,15.608,35.797z M25.872,39.914H24.56V32.08h-2.838v-1.049c0.37,0,0.73-0.028,1.079-0.084c0.35-0.057,0.666-0.162,0.949-0.316c0.282-0.154,0.522-0.365,0.717-0.633c0.196-0.268,0.329-0.605,0.402-1.018h1.003V39.914z M28.607,20.89c-0.02,0.432-0.071,0.853-0.152,1.265c-0.083,0.41-0.201,0.799-0.355,1.163c-0.154,0.365-0.365,0.686-0.633,0.964c-0.267,0.279-0.601,0.497-1.003,0.656c-0.399,0.159-0.889,0.238-1.465,0.238c-0.566,0-1.052-0.079-1.457-0.238c-0.407-0.159-0.743-0.378-1.01-0.656c-0.267-0.277-0.478-0.599-0.633-0.964c-0.154-0.364-0.272-0.753-0.354-1.163c-0.083-0.412-0.134-0.833-0.154-1.265c-0.021-0.432-0.031-0.848-0.031-1.249s0.011-0.817,0.032-1.25c0.02-0.432,0.072-0.852,0.154-1.264s0.2-0.802,0.354-1.172c0.154-0.37,0.365-0.694,0.633-0.971c0.267-0.277,0.604-0.498,1.01-0.664c0.405-0.164,0.891-0.246,1.457-0.246c0.564,0,1.052,0.082,1.457,0.246c0.406,0.166,0.743,0.387,1.01,0.664c0.268,0.277,0.479,0.601,0.633,0.971s0.272,0.761,0.355,1.172c0.082,0.412,0.133,0.832,0.152,1.264c0.021,0.433,0.031,0.848,0.031,1.25C28.639,20.041,28.629,20.458,28.607,20.89z M41.607,35.797c-0.02,0.432-0.071,0.854-0.152,1.266c-0.083,0.41-0.201,0.799-0.355,1.162c-0.154,0.365-0.365,0.687-0.633,0.965c-0.267,0.278-0.601,0.496-1.003,0.656c-0.399,0.158-0.889,0.237-1.465,0.237c-0.565,0-1.052-0.079-1.457-0.237c-0.407-0.16-0.743-0.379-1.01-0.656s-0.478-0.6-0.634-0.965c-0.153-0.363-0.271-0.752-0.354-1.162c-0.083-0.412-0.134-0.834-0.154-1.266s-0.031-0.848-0.031-1.249s0.012-0.817,0.033-1.25c0.02-0.432,0.071-0.853,0.153-1.264c0.082-0.412,0.2-0.802,0.354-1.173c0.154-0.369,0.365-0.693,0.633-0.971c0.267-0.276,0.604-0.498,1.01-0.664c0.405-0.164,0.891-0.246,1.457-0.246c0.564,0,1.052,0.082,1.457,0.246c0.406,0.166,0.743,0.388,1.01,0.664c0.268,0.277,0.479,0.602,0.633,0.971c0.154,0.371,0.272,0.762,0.355,1.173c0.082,0.411,0.133,0.832,0.152,1.264c0.021,0.433,0.031,0.849,0.031,1.25C41.639,34.948,41.629,35.365,41.607,35.797z"/><path d="M14.165,32.674c-0.046-0.324-0.114-0.64-0.201-0.949c-0.088-0.309-0.216-0.578-0.385-0.809c-0.171-0.23-0.384-0.419-0.64-0.564c-0.257-0.143-0.571-0.216-0.941-0.216s-0.684,0.073-0.941,0.216c-0.256,0.145-0.469,0.334-0.639,0.564c-0.171,0.23-0.299,0.501-0.387,0.809c-0.087,0.31-0.154,0.625-0.2,0.949s-0.073,0.648-0.078,0.971c-0.005,0.324-0.008,0.621-0.008,0.887c0.004,0.412,0.016,0.873,0.042,1.381c0.025,0.51,0.108,0.988,0.246,1.434c0.139,0.447,0.363,0.825,0.671,1.133c0.309,0.31,0.74,0.463,1.295,0.463s0.986-0.153,1.295-0.463c0.309-0.309,0.532-0.686,0.671-1.133c0.138-0.447,0.221-0.925,0.246-1.434c0.026-0.508,0.039-0.969,0.039-1.381c0-0.266-0.003-0.563-0.008-0.887C14.237,33.32,14.211,32.997,14.165,32.674z"/><path d="M27.165,17.767c-0.046-0.324-0.114-0.64-0.201-0.949c-0.088-0.309-0.216-0.579-0.385-0.809c-0.171-0.231-0.384-0.419-0.64-0.564C25.684,15.303,25.37,15.23,25,15.23s-0.684,0.073-0.941,0.216c-0.256,0.144-0.469,0.333-0.639,0.564c-0.171,0.231-0.299,0.501-0.387,0.809c-0.087,0.309-0.154,0.625-0.2,0.949c-0.046,0.324-0.073,0.648-0.078,0.971c-0.005,0.323-0.008,0.62-0.008,0.886c0.002,0.411,0.014,0.872,0.04,1.38c0.025,0.51,0.108,0.988,0.246,1.434c0.139,0.447,0.363,0.825,0.671,1.133c0.309,0.309,0.74,0.463,1.295,0.463c0.556,0,0.985-0.154,1.295-0.463c0.31-0.309,0.532-0.686,0.671-1.133s0.221-0.925,0.246-1.434c0.025-0.508,0.039-0.969,0.039-1.381c0-0.266-0.003-0.562-0.008-0.886C27.236,18.414,27.211,18.09,27.165,17.767z"/><path d="M50,9V4.846C50,3.277,48.724,2,47.154,2H2.846C1.277,2,0,3.277,0,4.846V9H50z"/><path d="M40.165,32.674c-0.046-0.324-0.114-0.64-0.201-0.949c-0.088-0.309-0.216-0.578-0.385-0.809c-0.171-0.23-0.384-0.419-0.64-0.564c-0.258-0.143-0.571-0.216-0.941-0.216s-0.684,0.073-0.941,0.216c-0.256,0.145-0.469,0.334-0.639,0.564c-0.171,0.23-0.299,0.501-0.387,0.809c-0.088,0.31-0.154,0.625-0.2,0.949s-0.073,0.648-0.078,0.971c-0.005,0.324-0.008,0.621-0.008,0.887c0.004,0.412,0.017,0.873,0.042,1.381c0.025,0.51,0.107,0.988,0.246,1.434c0.139,0.447,0.363,0.825,0.671,1.133c0.31,0.31,0.739,0.463,1.295,0.463s0.985-0.153,1.295-0.463c0.31-0.309,0.532-0.686,0.671-1.133s0.221-0.925,0.246-1.434c0.025-0.508,0.039-0.969,0.039-1.381c0-0.266-0.003-0.563-0.008-0.887C40.236,33.32,40.211,32.997,40.165,32.674z"/></g></svg>