<?xml version="1.0" encoding="iso-8859-1"?>
<!-- Generator: Adobe Illustrator 23.0.3, SVG Export Plug-In . SVG Version: 6.00 Build 0)  -->
<svg version="1.1" id="Layer_1" xmlns="http://www.w3.org/2000/svg" xmlns:xlink="http://www.w3.org/1999/xlink" x="0px" y="0px"
	 viewBox="0 0 50 50" style="enable-background:new 0 0 50 50;" xml:space="preserve">
<g>
	<path d="M12,2C8.579,2,6,4.58,6,8c0,0,0,34.472,0,34.5c0,3.033,2.468,5.5,5.5,5.5H44v-2H11.5C9.57,46,8,44.43,8,42.5
		S9.57,39,11.5,39H44V2H12z M32.479,12.977v-1.205h0.206c1.217,0,1.929-0.536,2.136-1.607h1.343V18.2H34.43v-5.224H32.479z
		 M33.402,24.262c0.401-0.245,0.874-0.367,1.418-0.367c0.443,0,0.84,0.084,1.188,0.252c0.348,0.168,0.629,0.387,0.844,0.654
		c0.214,0.268,0.392,0.585,0.533,0.953c0.142,0.367,0.239,0.735,0.293,1.102s0.08,0.754,0.08,1.16c0,1.278-0.26,2.281-0.78,3.008
		s-1.236,1.09-2.146,1.09c-0.935,0-1.663-0.361-2.188-1.085c-0.524-0.723-0.786-1.728-0.786-3.013c0-0.513,0.05-0.997,0.149-1.453
		c0.099-0.455,0.256-0.891,0.471-1.309C32.692,24.838,33.001,24.507,33.402,24.262z M22.903,26.753v-1.205h0.206
		c1.217,0,1.929-0.536,2.136-1.607h1.343v8.036h-1.733v-5.224H22.903z M25.257,18.338c-0.935,0-1.663-0.361-2.188-1.085
		c-0.524-0.723-0.786-1.728-0.786-3.013c0-0.513,0.05-0.997,0.149-1.453c0.099-0.455,0.256-0.891,0.471-1.309
		c0.214-0.417,0.522-0.748,0.924-0.993c0.401-0.245,0.874-0.367,1.418-0.367c0.443,0,0.84,0.084,1.188,0.252
		c0.348,0.168,0.629,0.387,0.844,0.654c0.214,0.268,0.392,0.585,0.533,0.953c0.142,0.367,0.239,0.735,0.293,1.102
		s0.08,0.754,0.08,1.16c0,1.278-0.26,2.281-0.78,3.008S26.167,18.338,25.257,18.338z M13.329,12.977v-1.205h0.206
		c1.217,0,1.929-0.536,2.136-1.607h1.343V18.2H15.28v-5.224H13.329z M12.858,26.563c0.099-0.455,0.256-0.891,0.471-1.309
		c0.214-0.417,0.522-0.748,0.924-0.993c0.401-0.245,0.874-0.367,1.418-0.367c0.443,0,0.84,0.084,1.188,0.252
		c0.348,0.168,0.629,0.387,0.844,0.654c0.214,0.268,0.392,0.585,0.533,0.953c0.142,0.367,0.239,0.735,0.293,1.102
		s0.08,0.754,0.08,1.16c0,1.278-0.26,2.281-0.78,3.008s-1.236,1.09-2.146,1.09c-0.935,0-1.663-0.361-2.188-1.085
		c-0.524-0.723-0.786-1.728-0.786-3.013C12.709,27.503,12.759,27.019,12.858,26.563z"/>
	<path d="M15.671,30.794c0.888,0,1.332-0.926,1.332-2.778c0-0.957-0.107-1.659-0.322-2.107c-0.214-0.448-0.555-0.671-1.021-0.671
		c-0.214,0-0.401,0.046-0.563,0.138s-0.289,0.228-0.385,0.408c-0.096,0.18-0.172,0.352-0.229,0.517s-0.098,0.378-0.12,0.643
		c-0.023,0.264-0.037,0.465-0.04,0.603c-0.004,0.138-0.006,0.321-0.006,0.551C14.316,29.895,14.768,30.794,15.671,30.794z"/>
	<path d="M25.233,11.461c-0.214,0-0.401,0.046-0.563,0.138s-0.289,0.228-0.385,0.408c-0.096,0.18-0.172,0.352-0.229,0.517
		s-0.098,0.378-0.12,0.643c-0.023,0.264-0.037,0.465-0.04,0.603c-0.004,0.138-0.006,0.321-0.006,0.551
		c0,1.799,0.451,2.698,1.354,2.698c0.888,0,1.332-0.926,1.332-2.778c0-0.957-0.107-1.659-0.322-2.107
		C26.041,11.685,25.7,11.461,25.233,11.461z"/>
	<path d="M34.82,30.794c0.888,0,1.332-0.926,1.332-2.778c0-0.957-0.107-1.659-0.322-2.107c-0.214-0.448-0.555-0.671-1.021-0.671
		c-0.214,0-0.401,0.046-0.563,0.138s-0.289,0.228-0.385,0.408c-0.096,0.18-0.172,0.352-0.229,0.517s-0.098,0.378-0.12,0.643
		c-0.023,0.264-0.037,0.465-0.04,0.603c-0.004,0.138-0.006,0.321-0.006,0.551C33.466,29.895,33.917,30.794,34.82,30.794z"/>
</g>
</svg>