<?xml version="1.0"?><svg xmlns="http://www.w3.org/2000/svg"  viewBox="0 0 50 50" width="50px" height="50px">    <path d="M 25 2 C 12.297 2 2 12.297 2 25 C 2 37.703 12.297 48 25 48 C 37.703 48 48 37.703 48 25 C 48 12.297 37.703 2 25 2 z M 25 4 C 25.338 4 25.666 4.0357812 26 4.0507812 L 26 8.0429688 C 28.392 8.2429687 30.587859 9.1537813 32.380859 10.550781 L 30.949219 11.980469 C 29.279219 10.740469 27.23 10 25 10 C 19.49 10 15 14.49 15 20 C 15 21.047 15.178516 22.05 15.478516 23 L 20.419922 23 C 20.149922 23.61 20 24.29 20 25 L 16.345703 25 C 17.213703 26.498 18.457219 27.753859 19.949219 28.630859 L 18.5 30.080078 C 17.238 29.264078 16.142625 28.216 15.265625 27 L 8.0898438 27 C 8.2758437 28.965 8.7858438 30.842547 9.5898438 32.560547 L 14.150391 30.119141 C 14.620391 29.859141 15.210469 30.03 15.480469 30.5 C 15.800469 31.05 16.150781 31.559297 16.550781 32.029297 L 15.140625 33.439453 C 14.830625 33.079453 14.539531 32.710312 14.269531 32.320312 L 10.539062 34.310547 C 10.999063 35.070547 11.529141 35.790938 12.119141 36.460938 L 10.689453 37.890625 C 7.7694531 34.550625 6 30.180391 6 25.400391 C 6 21.460391 7.2192969 17.669922 9.5292969 14.419922 C 9.8492969 13.969922 10.479687 13.859453 10.929688 14.189453 C 11.379687 14.509453 11.480156 15.130078 11.160156 15.580078 C 9.1691563 18.379078 8.094625 21.624 8.015625 25 L 14.117188 25 C 13.412187 23.474 13 21.787 13 20 C 13 13.718 17.848 8.5607812 24 8.0507812 L 24 4.0507812 C 24.334 4.0347812 24.662 4 25 4 z M 37.582031 9.0039062 C 38.093781 9.0039062 38.605594 9.1993438 38.996094 9.5898438 L 26.283203 22.300781 C 26.584203 22.443781 26.872094 22.629906 27.121094 22.878906 C 28.293094 24.050906 28.293094 25.949094 27.121094 27.121094 L 13.832031 40.410156 C 13.051031 41.191156 11.784906 41.191156 11.003906 40.410156 L 23.716797 27.699219 C 23.415797 27.556219 23.127906 27.370094 22.878906 27.121094 C 21.706906 25.949094 21.706906 24.050906 22.878906 22.878906 L 36.167969 9.5898438 C 36.558469 9.1993438 37.070281 9.0039062 37.582031 9.0039062 z M 39.820312 14.011719 C 40.074062 14.054219 40.310703 14.194922 40.470703 14.419922 C 42.779703 17.669922 44 21.460391 44 25.400391 C 44 35.880391 35.48 44.400391 25 44.400391 C 21.47 44.400391 18.160312 43.43 15.320312 41.75 L 16.800781 40.279297 C 19.230781 41.629297 22.03 42.400391 25 42.400391 C 31.11 42.400391 36.470937 39.160547 39.460938 34.310547 L 35.730469 32.320312 C 33.320469 35.850313 29.29 38 25 38 C 23.29 38 21.620313 37.649766 20.070312 37.009766 L 21.619141 35.460938 C 22.699141 35.810938 23.84 36 25 36 C 28.9 36 32.549531 33.89 34.519531 30.5 C 34.789531 30.03 35.379609 29.869141 35.849609 30.119141 L 40.410156 32.560547 C 41.214156 30.842547 41.724156 28.965 41.910156 27 L 34.726562 27 C 32.559562 30.003 29.051078 31.976 25.080078 32 L 27.369141 29.710938 C 30.043141 29.061937 32.298437 27.324 33.648438 25 L 30 25 C 30 24.288 29.846125 23.613 29.578125 23 L 34.529297 23 C 34.829297 22.051 35 21.045 35 20 C 35 18.923 34.818047 17.889016 34.498047 16.916016 L 36.052734 15.361328 C 36.657734 16.787328 37 18.352 37 20 C 37 21.786 36.596531 23.475 35.894531 25 L 41.984375 25 C 41.904375 21.624 40.832797 18.379078 38.841797 15.580078 C 38.521797 15.130078 38.620312 14.509453 39.070312 14.189453 C 39.295313 14.024453 39.566563 13.969219 39.820312 14.011719 z M 25 24 C 24.846 24 24.548922 24.038969 24.294922 24.292969 C 24.038922 24.548969 24 24.845 24 25 C 24 25.155 24.037969 25.452031 24.292969 25.707031 L 24.294922 25.707031 C 24.548922 25.961031 24.846 26 25 26 C 25.154 26 25.451078 25.961031 25.705078 25.707031 C 25.961078 25.451031 26 25.155 26 25 C 26 24.845 25.962031 24.547969 25.707031 24.292969 C 25.452031 24.037969 25.154 24 25 24 z"/></svg>