<?xml version="1.0" encoding="iso-8859-1"?><!-- Generator: Adobe Illustrator 21.0.2, SVG Export Plug-In . SVG Version: 6.00 Build 0)  --><svg xmlns="http://www.w3.org/2000/svg" xmlns:xlink="http://www.w3.org/1999/xlink" viewBox="0 0 50 50" width="50px" height="50px"><g><rect x="19" y="44" width="12" height="4"/><polygon points="31,35.801 31,31 19,31 19,35.801 5,40.909 5,48 17,48 17,42 33,42 33,48 45,48 45,40.909 "/></g><line style="fill:none;stroke:#000000;stroke-width:2;stroke-linecap:round;stroke-miterlimit:10;" x1="36" y1="22" x2="40" y2="22"/><circle cx="40" cy="22" r="2"/><line style="fill:none;stroke:#000000;stroke-width:2;stroke-linecap:round;stroke-miterlimit:10;" x1="25" y1="8" x2="25" y2="4"/><circle cx="25" cy="4" r="2"/><line style="fill:none;stroke:#000000;stroke-width:2;stroke-linecap:round;stroke-miterlimit:10;" x1="10" y1="22" x2="14" y2="22"/><circle cx="10" cy="22" r="2"/><path d="M35,18v-5.192l-0.071-0.179C34.837,12.398,32.59,7,25,7s-9.837,5.398-9.929,5.629L15,12.808V18h-2v8h2v2.192l0.071,0.179C15.163,28.602,17.41,34,25,34s9.837-5.398,9.929-5.629L35,28.192V26h2v-8H35z M22,23h-3v-3h3V23z M31,23h-3v-3h3V23z"/></svg>