<?xml version="1.0" encoding="iso-8859-1"?>
<!-- Generator: Adobe Illustrator 22.1.0, SVG Export Plug-In . SVG Version: 6.00 Build 0)  -->
<svg version="1.1" id="Layer_1" xmlns="http://www.w3.org/2000/svg" xmlns:xlink="http://www.w3.org/1999/xlink" x="0px" y="0px"
	 viewBox="0 0 50 50" style="enable-background:new 0 0 50 50;" xml:space="preserve">
<circle cx="19" cy="8" r="2"/>
<circle cx="31" cy="8" r="2"/>
<circle cx="25" cy="6" r="2"/>
<path d="M21.729,27.767l-3.443-5.932C17.605,15.83,15.229,8,3.045,8c-0.553,0-1,0.448-1,1v37c0,0.553,0.447,1,1,1H9
	c0.553,0,1-0.447,1-1v-3l2.434-0.001c2.46,0.108,4.579-2.507,4.965-4.922l0.832-5.751l2.59-1.296
	c0.563-0.313,0.968-0.823,1.139-1.437C22.128,28.986,22.049,28.343,21.729,27.767z M7,25c-1.105,0-2-0.895-2-2s0.895-2,2-2
	s2,0.895,2,2S8.105,25,7,25z M7,19c-1.105,0-2-0.895-2-2s0.895-2,2-2s2,0.895,2,2S8.105,19,7,19z M13,25c-1.105,0-2-0.895-2-2
	s0.895-2,2-2s2,0.895,2,2S14.105,25,13,25z M13,19c-1.105,0-2-0.895-2-2s0.895-2,2-2s2,0.895,2,2S14.105,19,13,19z"/>
<path d="M46.045,8c-12.184,0-14.561,7.83-15.24,13.834l-3.452,5.948c-0.312,0.561-0.391,1.204-0.222,1.812
	c0.171,0.613,0.575,1.124,1.177,1.457l2.552,1.275l0.834,5.766c0.384,2.4,2.531,5.021,4.923,4.908h2.474v3c0,0.553,0.447,1,1,1
	h5.955c0.553,0,1-0.447,1-1V9C47.045,8.448,46.598,8,46.045,8z M40,25c-1.105,0-2-0.895-2-2s0.895-2,2-2s2,0.895,2,2
	S41.105,25,40,25z M40,19c-1.105,0-2-0.895-2-2s0.895-2,2-2s2,0.895,2,2S41.105,19,40,19z"/>
</svg>