<?xml version="1.0" encoding="iso-8859-1"?>
<!-- Generator: Adobe Illustrator 22.1.0, SVG Export Plug-In . SVG Version: 6.00 Build 0)  -->
<svg version="1.1" id="Layer_1" xmlns="http://www.w3.org/2000/svg" xmlns:xlink="http://www.w3.org/1999/xlink" x="0px" y="0px"
	 viewBox="0 0 50 50" style="enable-background:new 0 0 50 50;" xml:space="preserve">
<g>
	<path d="M46,33c-1.105,0-2,0.895-2,2v-1c0-1.105-0.895-2-2-2s-2,0.895-2,2v-1c0-1.105-0.895-2-2-2s-2,0.895-2,2v-8
		c0-1.105-0.895-2-2-2s-2,0.895-2,2v9.375V35v4.672l-2.768-2.768c-0.781-0.781-2.047-0.781-2.828,0s-0.781,2.047,0,2.828L32,45.328
		c0,0,2.734,2.672,5,2.672h4.778c3.286,0,5.971-2.55,6.199-5.778C47.986,42.148,48,42.076,48,42v-0.222v-5.403V35
		C48,33.895,47.105,33,46,33z"/>
	<path d="M41.778,48.5H37c-2.441,0-5.231-2.699-5.35-2.814l-5.6-5.601c-0.473-0.472-0.732-1.1-0.732-1.768
		c0-0.667,0.26-1.295,0.732-1.768c0.943-0.944,2.59-0.946,3.535,0l1.914,1.914V25c0-1.378,1.121-2.5,2.5-2.5s2.5,1.122,2.5,2.5
		v6.001c0.418-0.314,0.938-0.501,1.5-0.501c1.072,0,1.989,0.679,2.344,1.629C40.785,31.739,41.365,31.5,42,31.5
		c1.072,0,1.989,0.679,2.344,1.629C44.785,32.739,45.365,32.5,46,32.5c1.379,0,2.5,1.121,2.5,2.5v7c0,0.079-0.009,0.154-0.02,0.23
		C48.229,45.758,45.286,48.5,41.778,48.5z M27.818,36.818c-0.401,0-0.777,0.156-1.061,0.439s-0.439,0.66-0.439,1.061
		c0,0.401,0.156,0.777,0.439,1.061l5.596,5.597C32.375,44.996,34.967,47.5,37,47.5h4.778c2.985,0,5.489-2.334,5.7-5.313l0.021-0.408
		V35c0-0.827-0.673-1.5-1.5-1.5s-1.5,0.673-1.5,1.5c0,0.276-0.224,0.5-0.5,0.5s-0.5-0.224-0.5-0.5v-1c0-0.827-0.673-1.5-1.5-1.5
		s-1.5,0.673-1.5,1.5c0,0.276-0.224,0.5-0.5,0.5s-0.5-0.224-0.5-0.5v-1c0-0.827-0.673-1.5-1.5-1.5s-1.5,0.673-1.5,1.5
		c0,0.276-0.224,0.5-0.5,0.5s-0.5-0.224-0.5-0.5v-8c0-0.827-0.673-1.5-1.5-1.5s-1.5,0.673-1.5,1.5v14.671
		c0,0.202-0.122,0.385-0.309,0.462c-0.185,0.076-0.401,0.035-0.545-0.108l-2.768-2.768C28.596,36.974,28.219,36.818,27.818,36.818z"
		/>
</g>
<path style="fill:none;stroke:#000000;stroke-width:2;stroke-linecap:round;stroke-linejoin:round;stroke-miterlimit:10;" d="M47,29
	V4H33.25C29,4,27.472,4.701,25,6v26h3.083"/>
<path style="fill:none;stroke:#000000;stroke-width:2;stroke-linecap:round;stroke-linejoin:round;stroke-miterlimit:10;" d="M3,32
	h13.917H25V6c-1-1-5.001-2-8.5-2H3V32z"/>
<line style="fill:none;stroke:#000000;stroke-width:2;stroke-linecap:round;stroke-miterlimit:10;" x1="31" y1="10" x2="42" y2="10"/>
<line style="fill:none;stroke:#000000;stroke-width:2;stroke-linecap:round;stroke-miterlimit:10;" x1="31" y1="14" x2="42" y2="14"/>
<line style="fill:none;stroke:#000000;stroke-width:2;stroke-linecap:round;stroke-miterlimit:10;" x1="31" y1="18" x2="42" y2="18"/>
<line style="fill:none;stroke:#000000;stroke-width:2;stroke-linecap:round;stroke-miterlimit:10;" x1="8" y1="10" x2="19" y2="10"/>
<line style="fill:none;stroke:#000000;stroke-width:2;stroke-linecap:round;stroke-miterlimit:10;" x1="8" y1="14" x2="19" y2="14"/>
<line style="fill:none;stroke:#000000;stroke-width:2;stroke-linecap:round;stroke-miterlimit:10;" x1="8" y1="18" x2="19" y2="18"/>
<line style="fill:none;stroke:#000000;stroke-width:2;stroke-linecap:round;stroke-miterlimit:10;" x1="8" y1="22" x2="19" y2="22"/>
<line style="fill:none;stroke:#000000;stroke-width:2;stroke-linecap:round;stroke-miterlimit:10;" x1="8" y1="26" x2="19" y2="26"/>
</svg>