<?xml version="1.0" encoding="iso-8859-1"?>
<!-- Generator: Adobe Illustrator 23.0.3, SVG Export Plug-In . SVG Version: 6.00 Build 0)  -->
<svg version="1.1" xmlns="http://www.w3.org/2000/svg" xmlns:xlink="http://www.w3.org/1999/xlink" x="0px" y="0px"
	 viewBox="0 0 50 50" style="enable-background:new 0 0 50 50;" xml:space="preserve">
<g id="filled">
</g>
<g id="outlined">
</g>
<g id="rounded">
</g>
<g id="two_x5F_tone">
</g>
<g id="sharp">
</g>
<g id="win10">
</g>
<g id="ios_x5F_out">
</g>
<g id="ios_x5F_filled">
	<g>
		<g>
			<path d="M4,44c0,1.1,0.9,2,2,2h18V26H4V44z M9,35h4v-4h2v4h4v2h-4v4h-2v-4H9V35z M25.984,10.471h-1.983v4.183h1.975
				c1.425,0,2.261-0.744,2.261-2.076C28.238,11.207,27.425,10.471,25.984,10.471z M44,4H6C4.9,4,4,4.9,4,6v18h42V6
				C46,4.9,45.1,4,44,4z M19.758,15.498c0,2.905-1.905,4.756-4.887,4.756c-3.238,0-5.252-2.246-5.252-5.871
				c0-3.579,2.037-5.864,5.221-5.864c2.579,0,4.47,1.472,4.826,3.757h-1.991c-0.403-1.27-1.402-1.975-2.835-1.975
				c-1.952,0-3.175,1.557-3.175,4.067c0,2.54,1.247,4.105,3.238,4.105c1.704,0,2.866-1.038,2.897-2.579l0.008-0.232h-2.687v-1.564
				h4.639V15.498z M26.426,16.311h-2.425v3.664h-1.998V8.798h4.508c2.23,0,3.756,1.526,3.756,3.78
				C30.267,14.793,28.687,16.311,26.426,16.311z M38.931,19.975l-0.945-2.858h-4.113l-0.961,2.858H30.89l3.966-11.177h2.246
				l3.974,11.177H38.931z M35.87,10.929l-1.534,4.608h3.184l-1.518-4.608H35.87z M26,46h18c1.1,0,2-0.9,2-2V26H26V46z M31,35h10v2
				H31V35z"/>
		</g>
	</g>
</g>
<g id="color">
</g>
</svg>