<?xml version="1.0" encoding="iso-8859-1"?><!-- Generator: Adobe Illustrator 19.2.1, SVG Export Plug-In . SVG Version: 6.00 Build 0)  --><svg xmlns="http://www.w3.org/2000/svg" xmlns:xlink="http://www.w3.org/1999/xlink" viewBox="0 0 50 50" width="50px" height="50px"><g><path d="M26,32.5c0,0.271,0.229,0.5,0.5,0.5c0.267,0,0.5-0.233,0.5-0.5c-0.001-0.277-0.219-1.289-0.5-2.437C26.218,31.209,26,32.22,26,32.5z"/><rect x="25" y="22" width="3.001" height="2"/><path d="M38,7c-1.936,0-9.064,0-11,0c-6.015,0-11.249,3.323-13.982,8.23l1.499-0.929l1.183,1.648l-2.758,2.223c-0.19-0.225-0.545-0.717-0.803-1.078C11.412,18.924,11,20.912,11,23c0,2.081,0.41,4.064,1.133,5.888c0.287-0.39,0.644-0.866,0.809-1.061l2.758,2.223l-1.183,1.648l-1.395-0.757C15.882,35.752,21.057,39,27,39c1.936,0,9.064,0,11,0c1.841-1.126,8-7.163,8-16S40.817,9.27,38,7z M17.059,28.613l-2.344-2.565c0.643-0.545,1.335-1.035,2.058-1.457l1.884,2.783L17.059,28.613z M16.772,21.409c-0.722-0.422-1.415-0.912-2.058-1.457l2.344-2.565l1.598,1.238L16.772,21.409z M22.041,25.778l-1.945,0.547L19.231,23l1.063-3.535l1.758,0.679L21.688,23L22.041,25.778z M26.5,35c-1.378,0-2.5-1.121-2.5-2.5c0-0.886,0.792-3.869,1.035-4.763l0.2-0.737h2.53l0.2,0.739C28.208,28.636,29,31.63,29,32.5C29,33.879,27.878,35,26.5,35z M45,24h-2v2h-2v-2h-2v2h-2v-2h-2v2h-2v-2h-3c0,1.103-0.897,2-2,2h-3c-1.103,0-2-0.897-2-2v-2c0-1.103,0.897-2,2-2h3c1.103,0,2,0.897,2,2h1v-2h2v2h2v-2h2v2h2v-2h2v2h2v-2h2V24z"/></g><circle style="fill:none;stroke:#000000;stroke-width:2;stroke-linecap:round;stroke-linejoin:round;stroke-miterlimit:10;" cx="27" cy="23" r="19"/><line style="fill:none;stroke:#000000;stroke-width:2;stroke-linecap:round;stroke-linejoin:round;stroke-miterlimit:10;" x1="13.535" y1="36.465" x2="4" y2="46"/></svg>