<?xml version="1.0" encoding="iso-8859-1"?>
<!-- Generator: Adobe Illustrator 24.1.1, SVG Export Plug-In . SVG Version: 6.00 Build 0)  -->
<svg version="1.1" id="&#x421;&#x43B;&#x43E;&#x439;_1"
	 xmlns="http://www.w3.org/2000/svg" xmlns:xlink="http://www.w3.org/1999/xlink" x="0px" y="0px" viewBox="0 0 50 50"
	 style="enable-background:new 0 0 50 50;" xml:space="preserve">
<path d="M44.713,40.079C43.406,35.733,40.553,24.625,39,21c-1.808-4.219-6.56-6.25-9-7h-3l-2,2l-2-2h-3
	c-2.443,0.741-7.201,3.766-9,8c-1.557,3.665-4.395,13.85-5.705,18.072c-0.161,0.519,0.125,1.068,0.64,1.24l4.24,1.413
	c0.473,0.158,0.99-0.057,1.212-0.504L13.484,38l1.52-15.083c0.046-0.551,0.523-0.968,1.08-0.913c0.55,0.046,0.959,0.528,0.914,1.079
	L16.004,35H20c0.552,0,1,0.447,1,1s-0.448,1-1,1h-4.301c-0.422,2.73-1.178,7.627-1.521,9.85C14.084,47.456,14.553,48,15.166,48
	h19.667c0.613,0,1.082-0.547,0.988-1.153L34.301,37H30c-0.552,0-1-0.447-1-1s0.448-1,1-1h3.996l-0.993-11.917
	c-0.046-0.551,0.363-1.033,0.914-1.079c0.548-0.057,1.034,0.362,1.08,0.913l1.498,14.149l2.146,5.082
	c0.203,0.481,0.742,0.725,1.237,0.56l4.192-1.397C44.582,41.139,44.868,40.596,44.713,40.079z M25,43c-0.552,0-1-0.448-1-1
	c0-0.552,0.448-1,1-1s1,0.448,1,1C26,42.552,25.552,43,25,43z M25,39c-0.552,0-1-0.448-1-1c0-0.552,0.448-1,1-1s1,0.448,1,1
	C26,38.552,25.552,39,25,39z M25,35c-0.552,0-1-0.448-1-1c0-0.552,0.448-1,1-1s1,0.448,1,1C26,34.552,25.552,35,25,35z M25,31
	c-0.552,0-1-0.448-1-1c0-0.552,0.448-1,1-1s1,0.448,1,1C26,30.552,25.552,31,25,31z M25,27c-0.552,0-1-0.448-1-1
	c0-0.552,0.448-1,1-1s1,0.448,1,1C26,26.552,25.552,27,25,27z M25,23c-0.552,0-1-0.448-1-1c0-0.552,0.448-1,1-1s1,0.448,1,1
	C26,22.552,25.552,23,25,23z"/>
<path d="M32.977,10.786c-0.079-0.358-1.991-8.79-7.969-8.79c-5.949,0-7.904,8.427-7.984,8.785c-0.075,0.334,0.027,0.684,0.269,0.926
	l6.996,7.004c0.188,0.188,0.442,0.293,0.707,0.293c0,0,0,0,0,0c0.265,0,0.52-0.105,0.707-0.293l7.004-7.004
	C32.948,11.466,33.05,11.119,32.977,10.786z M25,16l-5-5c0,0,1.544-2,5-2c3.516,0,5,2,5,2L25,16z"/>
</svg>