<?xml version="1.0" encoding="utf-8"?><!-- Generator: Adobe Illustrator 15.0.0, SVG Export Plug-In . SVG Version: 6.00 Build 0)  --><!DOCTYPE svg PUBLIC "-//W3C//DTD SVG 1.1//EN" "http://www.w3.org/Graphics/SVG/1.1/DTD/svg11.dtd"><svg xmlns="http://www.w3.org/2000/svg" xmlns:xlink="http://www.w3.org/1999/xlink" viewBox="0 0 50 50" width="500px" height="500px"><path d="M8.975,41c-0.069,0-0.139-0.007-0.208-0.021c-6.281-1.339-8.048-4.622-8.542-6.461c-0.661-2.458,0.18-5.116,2.193-6.938c1.146-1.036,2.252-1.519,3.481-1.519c1.245,0,2.488,0.49,4.063,1.111C12.813,28.299,17.125,30,24.936,30c6.492,0,10.688-1.562,13.752-2.701c1.938-0.721,3.469-1.29,4.977-1.29c1.628,0,3.024,0.681,4.395,2.141c1.737,1.852,2.358,4.3,1.663,6.548c-0.531,1.716-2.352,4.799-8.572,6.168c-0.297,0.065-0.605-0.008-0.842-0.197c-0.235-0.189-0.373-0.477-0.373-0.779c0-2.924-6.001-4.889-14.932-4.889c-9.551,0-15.029,1.822-15.029,5c0,0.302-0.136,0.588-0.371,0.777C9.425,40.923,9.202,41,8.975,41z"/><g><path d="M10.695,25.313C13.406,26.383,17.504,28,24.936,28c6.129,0,10.13-1.488,13.06-2.577c1.038-0.386,2.005-0.744,2.949-1.004v-1.988c0-6.493-4.196-13.43-15.976-13.43C10.149,9.001,8.997,19.28,8.997,22.43v2.25C9.547,24.87,10.105,25.08,10.695,25.313z"/></g></svg>