<?xml version="1.0" encoding="iso-8859-1"?><!-- Generator: Adobe Illustrator 19.2.0, SVG Export Plug-In . SVG Version: 6.00 Build 0)  --><svg xmlns="http://www.w3.org/2000/svg" xmlns:xlink="http://www.w3.org/1999/xlink" viewBox="0 0 50 50" width="500px" height="500px"><path style="fill:none;stroke:#000000;stroke-width:2;stroke-miterlimit:10;" d="M31,31.109c0,2.797,0.6,5.461,1.677,7.891C37.741,35.237,41,29.426,41,22.891c0-2.797-0.6-5.461-1.677-7.891C34.259,18.763,31,24.574,31,31.109z"/><path style="fill:none;stroke:#000000;stroke-width:2;stroke-miterlimit:10;" d="M19,23.5c0,5.818,2.334,11.018,6,14.5c3.666-3.482,6-8.682,6-14.5S28.666,12.482,25,9C21.334,12.482,19,17.682,19,23.5z"/><path style="fill:none;stroke:#000000;stroke-width:2;stroke-miterlimit:10;" d="M40,34.932c0,1.076,0.189,2.105,0.521,3.068C44.279,36.787,47,33.249,47,29.068c0-1.076-0.189-2.105-0.521-3.068C42.721,27.213,40,30.751,40,34.932z"/><path style="fill:none;stroke:#000000;stroke-width:2;stroke-miterlimit:10;" d="M19,31.109c0,2.797-0.6,5.461-1.677,7.891C12.259,35.237,9,29.426,9,22.891C9,20.094,9.6,17.43,10.677,15C15.741,18.763,19,24.574,19,31.109z"/><path style="fill:none;stroke:#000000;stroke-width:2;stroke-miterlimit:10;" d="M10,34.932c0,1.076-0.189,2.105-0.521,3.068C5.721,36.787,3,33.249,3,29.068C3,27.992,3.189,26.963,3.521,26C7.279,27.213,10,30.751,10,34.932z"/><path d="M26,32c0,4.971-0.448,8-1,8s-1-3.029-1-8s0.5-8.125,1-10C25.5,23.917,26,27.029,26,32z"/><polygon points="25,27.586 20.439,32.147 21.833,34.125 25,38.414 28.375,33.875 29.412,31.998 "/><path d="M45,36H5c-1.654,0-3,1.346-3,3s1.346,3,3,3h40c1.654,0,3-1.346,3-3S46.654,36,45,36z"/></svg>