<?xml version="1.0" encoding="utf-8"?><!-- Generator: Adobe Illustrator 15.0.0, SVG Export Plug-In . SVG Version: 6.00 Build 0)  --><!DOCTYPE svg PUBLIC "-//W3C//DTD SVG 1.1//EN" "http://www.w3.org/Graphics/SVG/1.1/DTD/svg11.dtd"><svg xmlns="http://www.w3.org/2000/svg" xmlns:xlink="http://www.w3.org/1999/xlink" viewBox="0 0 50 50" width="50px" height="50px"><path d="M35.696,18.317c-2.934,0-5.912-0.388-8.654-1.059c-0.004,0-0.008,0.002-0.012,0.002c-0.118-0.027-0.231-0.063-0.349-0.092c-0.294-0.075-0.588-0.148-0.875-0.23c-1.116-0.307-2.181-0.675-3.182-1.095c-0.002-0.001-0.005-0.002-0.007-0.003c-0.457-0.192-0.897-0.394-1.323-0.605c-0.064-0.031-0.135-0.059-0.198-0.091c0.002-0.002,0.004-0.005,0.006-0.007c-0.232-0.119-0.477-0.231-0.698-0.355c-2.171-1.226-3.467-2.601-3.467-3.679c0-2.623,3.605-4.009,10.425-4.009c4.656,0,7.41,1.137,7.556,3.12c0.131,1.768-1.702,4.184-4.294,5.708c5.593,0.827,11.666,0.379,15.546-1.951c0.131-0.085,0.247-0.175,0.368-0.264C46.878,12.82,47,11.971,47,11.251C47,5.651,40.928,0,27.363,0C11.875,0,7.742,7.233,7.742,11.507c0,1.522,0.767,14.872,27.33,14.872c3.154,0,6.202-1.398,7.767-3.562c0.835-1.154,1.641-3.042,1.007-5.661C41.374,17.948,38.567,18.317,35.696,18.317z"/><g><path d="M19.262,26.245c-4.704,5.031-7.807,12.396-7.807,19.063c0,0.447,0.297,0.841,0.728,0.962l13.045,3.691C25.317,49.987,25.409,50,25.5,50c0.213,0,0.423-0.068,0.598-0.198c0.249-0.187,0.398-0.478,0.402-0.789c0.002-0.138,0.26-12.686,7.024-20.66C27.597,28.233,22.93,27.438,19.262,26.245z"/></g><g><path d="M14.738,24.347C7.265,29.9,3.998,37.147,3.23,40.953c-0.107,0.531,0.229,1.051,0.757,1.172L9.54,43.4c0.5-6.33,3.416-13.011,7.693-17.888C16.332,25.148,15.504,24.757,14.738,24.347z"/></g></svg>