<?xml version="1.0" encoding="iso-8859-1"?>
<!-- Generator: Adobe Illustrator 23.0.6, SVG Export Plug-In . SVG Version: 6.00 Build 0)  -->
<svg version="1.1" id="Filled" xmlns="http://www.w3.org/2000/svg" xmlns:xlink="http://www.w3.org/1999/xlink" x="0px" y="0px"
	 viewBox="0 0 50 50" style="enable-background:new 0 0 50 50;" xml:space="preserve">
<path style="fill:none;stroke:#000000;stroke-width:2;stroke-linecap:round;stroke-miterlimit:10;" d="M34.067,7
	c0.45-1.683,0.457-3-0.732-3"/>
<path d="M41.128,3.088c-0.156,0-0.295,0.025-0.447,0.031c-0.097-0.011-0.189-0.031-0.29-0.031c-0.137,0-0.267,0.028-0.386,0.078
	c-7.958,0.791-10.541,9.91-12.819,18.017l-0.176,0.624c-0.156,0.555-0.313,1.136-0.474,1.733c-0.988,3.673-2.109,7.834-4.2,9.986
	C22.045,33.827,21.612,34,21.15,34h-3.365l-0.195,0.088c-0.317,0.143-7.811,3.539-10.409,7.207c-1.08,1.526-1.172,2.486-1.18,2.663
	l-0.016,0.376l0.236,0.294C6.687,45.205,9.271,47,23,47c13.352,0,15.079-3.85,15.949-8.997l0.115-0.666
	c0.335-1.869,0.583-3.674,0.803-5.266c0.213-1.541,0.458-3.315,0.739-4.55C41.209,30.97,41.959,38.013,42,43c0,0.552,0.448,1,1,1
	s1-0.448,1-1c0,0,0.181-5.613,0.417-11.766c0.132-3.428,1.073-5.969,1.984-8.426C47.224,20.591,48,18.496,48,16.088
	C48,7.432,43.595,3.088,41.128,3.088z M38.472,12.184c-0.164,0.396-0.319,0.771-0.459,1.116c-3.826,9.477-5.597,17.763-5.817,20.087
	C32.051,34.892,30.937,38,28.412,38H23c-1.521,0-3.168-0.815-3.758-2h1.909c0.999,0,1.954-0.394,2.621-1.08
	c2.452-2.524,3.645-6.952,4.697-10.859c0.159-0.59,0.313-1.165,0.468-1.712l0.175-0.625c2.232-7.943,4.551-16.124,11.408-16.591
	C41.013,6.053,39.174,10.492,38.472,12.184z"/>
<path d="M5.548,40.14c1.873-2.644,5.728-5.03,8.413-6.475c-0.302-0.127-0.585-0.308-0.764-0.665h0.08
	c2.794,0,5.294-1.538,6.525-4.015c1.782-3.584,3.119-6.511,3.854-9.145l0.151-0.542C25.762,12.269,27.784,5,33.962,5
	c0.114,0.01,0.593,0.221,1.266,1.038c0.351,0.428,0.981,0.489,1.407,0.138c0.427-0.351,0.488-0.981,0.138-1.407
	C36.109,3.962,35.084,3,33.967,3c-7.703,0-10.032,8.374-12.087,15.763l-0.15,0.541c-0.692,2.482-1.987,5.31-3.719,8.791
	C17.12,29.887,15.306,31,13.276,31h-1.466l-0.176,0.069c-0.003,0.001-0.017,0.007-0.022,0.009c-0.001,0.001-0.003,0.001-0.004,0.002
	c-0.415,0.164-6.34,2.544-8.573,5.728c-0.924,1.316-1.026,2.149-1.035,2.374L1.977,39.77l0.503,0.307
	c0.119,0.072,0.865,0.498,2.549,0.872C5.18,40.69,5.348,40.423,5.548,40.14z"/>
</svg>