<?xml version="1.0" encoding="iso-8859-1"?><!-- Generator: Adobe Illustrator 19.2.1, SVG Export Plug-In . SVG Version: 6.00 Build 0)  --><svg xmlns="http://www.w3.org/2000/svg" xmlns:xlink="http://www.w3.org/1999/xlink" viewBox="0 0 50 50" width="500px" height="500px"><path style="fill:none;stroke:#000000;stroke-width:2;stroke-miterlimit:10;" d="M42,44c-0.049-5.979-1.216-16.693-2-18c-1.65,0-1.763,5.605-2.92,12.073C36.309,42.378,36.313,47,22,47C7.683,47,4,46,4,46s0.032-0.765,0.997-2.127C7.468,40.385,15,36,15,36s2.671,0.503,4.452-0.329c3.399-1.586,6.252-10.17,7.522-14.682C29.379,12.446,31.826,3,40.128,3C41.995,3,46,8.017,46,16c0,4.748-3.323,9.346-3.582,16.108C42.182,38.263,42,44,42,44"/><path style="fill:none;stroke:#000000;stroke-width:2;stroke-miterlimit:10;" d="M15,36c0,2.32,4.617,2,6.98,2c2.351,0,4.211,1,7.02,1c3.212,0,4.64-3.057,4.821-4.96c0.181-1.903,0.171-11.675,4.119-21.454C39.292,9.239,42.199,3,39.391,3"/><path d="M40,26c-1.65,0-1.763,5.605-2.92,12.073C36.309,42.378,36.313,47,22,47C7.683,47,4,46,4,46s0.032-0.765,0.997-2.127C7.468,40.385,15,36,15,36s0.773,2.436,7.049,1.727c3-0.339,7.513,1.948,10.065-0.194c2.553-2.141,1.936-17.808,4.549-21.776C41.544,8.345,40.824,5.015,40.128,3C41.995,3,46,8.017,46,16c0,4.748-3.323,9.346-3.582,16.108C41.889,29.985,40.784,27.307,40,26z"/></svg>