<?xml version="1.0" encoding="iso-8859-1"?>
<!-- Generator: Adobe Illustrator 23.0.6, SVG Export Plug-In . SVG Version: 6.00 Build 0)  -->
<svg version="1.1" id="Filled" xmlns="http://www.w3.org/2000/svg" xmlns:xlink="http://www.w3.org/1999/xlink" x="0px" y="0px"
	 viewBox="0 0 50 50" style="enable-background:new 0 0 50 50;" xml:space="preserve">
<g>
	<path d="M41,8V5c0-0.553-0.448-1-1-1H10C9.448,4,9,4.447,9,5v3H41z"/>
	<path d="M43,19.997v-2.091c0-0.147-0.028-3.543-1.911-7.906H33C33,19.056,42.218,19.938,43,19.997z"/>
	<path d="M42.94,21.998C42.82,21.991,31,21.149,31,10H19C19,21.149,7.18,21.991,7.06,21.998C7.04,21.999,7.02,22,7,22v23
		c0,0.553,0.448,1,1,1l13.008-0.124c0.504,0,0.93-0.376,0.992-0.876l3-20l3,20c0.062,0.501,0.488,0.878,0.993,0.878L42,46
		c0.552,0,1-0.447,1-1V22C42.98,22,42.96,21.999,42.94,21.998z"/>
	<path d="M17,10H8.911C7.028,14.363,7,17.76,7,17.906v2.091C7.782,19.938,17,19.056,17,10z"/>
</g>
</svg>