<?xml version="1.0" encoding="iso-8859-1"?><!-- Generator: Adobe Illustrator 19.2.1, SVG Export Plug-In . SVG Version: 6.00 Build 0)  --><svg xmlns="http://www.w3.org/2000/svg" xmlns:xlink="http://www.w3.org/1999/xlink" viewBox="0 0 50 50" width="50px" height="50px"><circle style="fill:none;stroke:#000000;stroke-width:2;stroke-linecap:round;stroke-linejoin:round;stroke-miterlimit:10;" cx="25" cy="25" r="16"/><path d="M36.001,13H19.999c-2.075,0.866-3.876,2.255-5.242,4H15v1h-0.945C12.758,20.021,12,22.42,12,25s0.758,4.979,2.055,7H15v1h-0.243c1.366,1.745,3.167,3.134,5.242,4h16.002c1.203-0.502,5.702-5.271,5.702-12S37.204,13.502,36.001,13z M34,17h2v1h-2V17z M31,17h2v1h-2V17z M28,17h2v1h-2V17z M25,17h2v1h-2V17z M22,17h2v1h-2V17z M19,17h2v1h-2V17z M16,17h2v1h-2V17z M18,33h-2v-1h2V33z M21,33h-2v-1h2V33z M24,33h-2v-1h2V33z M27,33h-2v-1h2V33z M30,33h-2v-1h2V33z M33,33h-2v-1h2V33z M32,29H20c-0.552,0-1-0.447-1-1s0.448-1,1-1h12c0.552,0,1,0.447,1,1S32.552,29,32,29z M36,33h-2v-1h2V33z M36,24H16c-0.552,0-1-0.447-1-1s0.448-1,1-1h20c0.552,0,1,0.447,1,1S36.552,24,36,24z M39,33h-2v-1h2V33z M39,18h-2v-1h2V18z"/><line style="fill:none;stroke:#000000;stroke-width:2;stroke-linecap:round;stroke-linejoin:round;stroke-miterlimit:10;" x1="13.535" y1="36.465" x2="3" y2="47"/><g><path d="M9,25c0-2.86,0.654-5.565,1.79-8H3c-0.552,0-1,0.447-1,1v14c0,0.553,0.448,1,1,1h7.79C9.654,30.565,9,27.86,9,25z"/><path d="M47,17h-4.79c1.137,2.435,1.79,5.14,1.79,8s-0.654,5.565-1.79,8H47c0.552,0,1-0.447,1-1V18C48,17.447,47.552,17,47,17z"/></g></svg>