<?xml version="1.0" encoding="utf-8"?><!-- Generator: Adobe Illustrator 19.1.1, SVG Export Plug-In . SVG Version: 6.00 Build 0)  --><svg xmlns="http://www.w3.org/2000/svg" xmlns:xlink="http://www.w3.org/1999/xlink" viewBox="0 0 50 50" width="500px" height="500px"><path d="M25,9C17.1,9,0,19.1,0,23.8c0,3.5,5,5.3,7,5.9V35c0,0,0,0.1,0,0.1c0,0.1,0,0.1,0,0.2c0,0.1,0,0.1,0.1,0.2c0,0,0,0.1,0.1,0.1C7.4,35.9,12.9,43,25,43c12.1,0,17.6-7.1,17.8-7.4c0,0,0-0.1,0.1-0.1c0-0.1,0.1-0.1,0.1-0.2c0-0.1,0-0.1,0-0.2c0,0,0-0.1,0-0.1v-5.2c2-0.6,7-2.5,7-5.9C50,19.1,32.9,9,25,9z M20,18c2.9,0,5,1.5,5,1.5s2.1-1.5,5-1.5c2.9,0,6,2,6,2c-4.9,0-7.9,1.4-9.5,2.4c0,0,0,0.1,0,0.1c0,0.8-0.7,1.5-1.5,1.5s-1.5-0.7-1.5-1.5c0,0,0-0.1,0-0.1C21.9,21.4,18.9,20,14,20C14,20,17.1,18,20,18z M9,29.9c2.2-0.3,8.2-0.9,16-0.9c7.8,0,13.8,0.6,16,0.9v4C38.3,33.6,31,33,25,33c-6,0-13.3,0.6-16,0.9V29.9z"/></svg>