<?xml version="1.0" encoding="iso-8859-1"?><!-- Generator: Adobe Illustrator 22.0.1, SVG Export Plug-In . SVG Version: 6.00 Build 0)  --><svg xmlns="http://www.w3.org/2000/svg" xmlns:xlink="http://www.w3.org/1999/xlink" viewBox="0 0 50 50" width="500px" height="500px"><g><g><path d="M10.642,6.977c0.73-0.133,5.551-0.928,9.364,2.341c1.916,1.642,2.758,3.609,3.121,4.682c1.04,0,2.081,0,3.121,0c0.517-1.071,1.66-3.061,3.902-4.682c3.245-2.346,6.659-2.38,7.803-2.341c3.122,3.974,2.267,9.716-1.561,12.485c-3.52,2.547-8.694,1.957-11.705-1.561c-3.086,3.375-8.136,3.968-11.705,1.561C9.065,16.819,7.891,11.207,10.642,6.977z"/></g><g><path d="M37,20.292c-0.05,0.089-0.279,0.435-0.379,0.576c-0.095,0.134-0.109,0.142-0.163,0.258c-1.042,2.239,0.904,4.595,2.542,8.542c0.508,1.224,1.16,3.022,1.667,5.333c-2.714,0.745-6.269,2.174-9.333,5.167c-3.417,3.337-4.031,6.476-6.167,6.5c-2.468,0.028-2.622-4.154-7.333-7.333c-4.17-2.814-6.787-1.384-7.833-3.5c-1.896-3.836,5.617-10.731,3.375-14.75c-0.089-0.16-0.208-0.341-0.425-0.698c-0.223-0.367-0.401-0.487-0.45-0.76c-0.046-0.258,0.026-0.49,0.062-0.563c0.366-0.728,4.01,0.993,7.063,0.688c1.432-0.143,3.322-0.792,5.437-2.938c1.639,2.094,3.231,2.846,4.438,3.125c3.378,0.783,7.278-1.312,7.625-0.563C37.2,19.538,37.175,19.981,37,20.292z"/></g><g><g><path d="M41.35,32.92c-0.11-0.79-0.31-1.48-0.55-2.09c-0.72,0.01-1.44,0.03-2.16,0.05c0.29,0.58,0.52,1.22,0.66,1.98c0.65-0.01,1.3-0.02,1.95-0.04l-1.03,2.3c-0.27,0.07-0.54,0.15-0.81,0.24c-3.51,1.05-6.48,2.76-8.82,5.09c-1.21,1.2-2.07,2.38-2.76,3.33c-1.06,1.47-1.62,2.18-2.43,2.22c-0.87,0.03-1.58-0.76-2.86-2.28c-0.79-0.95-1.78-2.13-3.09-3.31c-2.45-2.2-5.41-3.85-8.81-4.91c-0.28-0.1-0.57-0.19-0.86-0.27l-0.94-2.44c0.64,0.02,1.28,0.03,1.93,0.04c0.15-0.76,0.4-1.4,0.71-1.98c-0.72-0.02-1.45-0.03-2.17-0.05c-0.27,0.65-0.49,1.39-0.61,2.24c-0.19,1.31-0.13,2.66,0.17,4.02c0.43,0.11,0.84,0.23,1.25,0.36h0.01c3.08,0.99,5.76,2.49,7.98,4.48c1.21,1.09,2.11,2.16,2.9,3.1c1.4,1.67,2.52,3,4.31,3h0.18c1.8-0.09,2.8-1.46,3.95-3.05c0.68-0.94,1.45-2,2.55-3.08c2.09-2.09,4.74-3.62,7.91-4.58c0.41-0.13,0.84-0.24,1.27-0.35C41.48,35.58,41.54,34.23,41.35,32.92z"/></g><g><path d="M31.944,21.848c-2.545,0-5.097-0.998-6.974-2.891c-3.305,3.085-8.297,3.642-12.033,1.206c-2.114-1.378-3.569-3.554-4.098-6.126c-0.549-2.669-0.02-5.386,1.49-7.652l0.227-0.34l0.402-0.073c1.386-0.25,6.21-0.809,10.127,2.549c1.372,1.176,2.452,2.699,3.152,4.433h1.852c0.957-1.776,2.301-3.317,3.913-4.482c3.217-2.326,6.639-2.581,8.369-2.515l0.442,0.015l0.277,0.346c1.662,2.078,2.406,4.791,2.041,7.441c-0.357,2.585-1.737,4.911-3.787,6.381C35.737,21.293,33.842,21.848,31.944,21.848z M25.035,16.031l0.721,0.915c2.538,3.217,7.233,3.949,10.469,1.629c1.622-1.164,2.716-3.015,3.001-5.08c0.277-2.013-0.208-3.992-1.369-5.622c-1.588,0.01-4.229,0.352-6.726,2.157c-1.916,1.385-3.008,3.104-3.585,4.303l-0.263,0.544h-4.404l-0.222-0.654c-0.396-1.17-1.208-2.857-2.824-4.243c-2.98-2.555-6.733-2.36-8.122-2.179c-1.052,1.761-1.402,3.821-0.986,5.847c0.425,2.065,1.584,3.806,3.264,4.902c3.232,2.106,7.652,1.399,10.284-1.64L25.035,16.031z"/></g><g><rect x="9.391" y="2.128" transform="matrix(0.9487 -0.3161 0.3161 0.9487 -0.9189 3.5084)" width="1.925" height="4.917"/></g><g><rect x="36.659" y="3.624" transform="matrix(0.3165 -0.9486 0.9486 0.3165 22.385 40.2404)" width="4.917" height="1.925"/></g><g><path d="M14.22,25.62c-0.38,1.49-1.08,2.57-1.77,3.62c-0.35,0.53-0.68,1.04-0.97,1.61c-0.31,0.58-0.56,1.22-0.71,1.98c-0.04,0.16-0.07,0.33-0.09,0.5c-0.1,0.71-0.12,1.43-0.04,2.17c0.05,0.56,0.16,1.12,0.32,1.69l-0.83,0.23h-0.01c-0.41-0.13-0.82-0.25-1.25-0.36c-0.3-1.36-0.36-2.71-0.17-4.02c0.12-0.85,0.34-1.59,0.61-2.24c0.42-1.04,0.96-1.88,1.47-2.66c0.62-0.95,1.21-1.84,1.5-3c0.49-1.96,0-4.27-1.43-6.84c0-0.01-0.01-0.01-0.01-0.02l1.72-0.97l0.02-0.01c0.02,0.03,0.03,0.05,0.04,0.08c0.66,1.17,1.14,2.3,1.44,3.4C14.54,22.5,14.6,24.12,14.22,25.62z"/></g><g><path d="M41.18,36.94c-0.43,0.11-0.86,0.22-1.27,0.35l-0.83-0.23c0.16-0.57,0.27-1.14,0.33-1.7c0.08-0.73,0.06-1.45-0.04-2.15c-0.02-0.12-0.04-0.24-0.07-0.35c-0.14-0.76-0.37-1.4-0.66-1.98c-0.31-0.63-0.67-1.19-1.05-1.76c-0.69-1.05-1.4-2.13-1.76-3.63c-0.34-1.42-0.29-2.95,0.17-4.56c0.32-1.18,0.86-2.4,1.6-3.67c0-0.01,0.01-0.01,0.01-0.02c0.01,0,0.01-0.01,0.01-0.01c0.01-0.01,0.01-0.02,0.02-0.03h0.01l1.68,1l0.03,0.02c-1.52,2.56-2.05,4.85-1.59,6.8c0.28,1.16,0.87,2.06,1.49,3c0.53,0.81,1.11,1.69,1.54,2.81c0.24,0.61,0.44,1.3,0.55,2.09C41.54,34.23,41.48,35.58,41.18,36.94z"/></g></g></g></svg>