<?xml version="1.0" encoding="iso-8859-1"?><!-- Generator: Adobe Illustrator 19.2.1, SVG Export Plug-In . SVG Version: 6.00 Build 0)  --><svg xmlns="http://www.w3.org/2000/svg" xmlns:xlink="http://www.w3.org/1999/xlink" viewBox="0 0 50 50" width="50px" height="50px"><ellipse style="fill:#FFFFFF;" cx="25" cy="35" rx="3" ry="2"/><path d="M4,17c0,2.047-0.277,3.83-0.532,5.041c1.083,0.174,2.789,0.435,4.885,0.71l-0.35-4.677c-0.021-0.277,0.075-0.551,0.264-0.755C8.456,17.116,8.722,17,9,17h2.825l-0.323-4.935C11.48,11.729,11.63,11.403,11.9,11.2c0.27-0.202,0.626-0.255,0.942-0.14c0.052,0.02,5.314,1.88,11.879-0.021c0.18-0.052,0.372-0.053,0.552-0.001c6.587,1.878,11.833,0.04,11.886,0.021c0.318-0.113,0.672-0.061,0.941,0.142c0.27,0.203,0.419,0.527,0.397,0.864L38.175,17H41c0.278,0,0.544,0.116,0.733,0.319c0.189,0.204,0.285,0.478,0.264,0.755l-0.35,4.677c2.096-0.275,3.803-0.536,4.886-0.711C46.278,20.829,46,19.044,46,17c0-3.74,0.94-6.659,0.95-6.688c0.085-0.261,0.06-0.546-0.071-0.787c-0.131-0.241-0.355-0.419-0.62-0.49C45.798,8.91,34.845,6,25,6S4.202,8.91,3.741,9.034C3.475,9.105,3.25,9.283,3.12,9.525s-0.156,0.528-0.069,0.789C3.06,10.343,4,13.233,4,17z"/><path d="M46.981,23.994C43.627,24.538,33.78,26,25,26c-8.78,0-18.627-1.462-21.981-2.006c0,0.034-0.014,0.069-0.011,0.102c0,0.005-0.002,0.009-0.002,0.014l2,18C5.062,42.617,5.49,43,6,43h38c0.51,0,0.937-0.383,0.994-0.89l2-18c0-0.004-0.002-0.008-0.001-0.012C46.996,24.064,46.981,24.029,46.981,23.994z M25,37c-1.657,0-3-0.895-3-2c0-1.105,1.343-2,3-2s3,0.895,3,2C28,36.105,26.657,37,25,37z"/><path d="M10.377,23.005L10.078,19h29.845l-0.299,4.006c0.708-0.085,1.383-0.17,2.024-0.254l0.35-4.677c0.021-0.277-0.075-0.551-0.264-0.755C41.544,17.116,41.278,17,41,17H26V9.89c0-0.553-0.448-1-1-1s-1,0.447-1,1V17H9c-0.278,0-0.544,0.116-0.733,0.319c-0.189,0.204-0.285,0.478-0.264,0.755l0.35,4.677C8.994,22.835,9.669,22.921,10.377,23.005z"/></svg>