<?xml version="1.0" encoding="iso-8859-1"?>
<!-- Generator: Adobe Illustrator 23.0.3, SVG Export Plug-In . SVG Version: 6.00 Build 0)  -->
<svg version="1.1" xmlns="http://www.w3.org/2000/svg" xmlns:xlink="http://www.w3.org/1999/xlink" x="0px" y="0px"
	 viewBox="0 0 50 50" style="enable-background:new 0 0 50 50;" xml:space="preserve">
<g id="Layer_10" style="display:none;">
	<g style="display:inline;opacity:0.05;">
		<g>
			<circle style="fill:#FFFFFF;" cx="25" cy="25" r="21.5"/>
			<path d="M25,4c11.579,0,21,9.421,21,21s-9.421,21-21,21S4,36.579,4,25S13.421,4,25,4 M25,3C12.85,3,3,12.85,3,25s9.85,22,22,22
				s22-9.85,22-22S37.15,3,25,3L25,3z"/>
		</g>
		<g>
			<rect x="5.5" y="5.5" style="fill:#FFFFFF;" width="39" height="39"/>
			<path d="M44,6v38H6V6H44 M45,5H5v40h40V5L45,5z"/>
		</g>
	</g>
</g>
<g id="filled">
</g>
<g id="outlined">
</g>
<g id="rounded">
</g>
<g id="two_x5F_tone">
</g>
<g id="sharp">
</g>
<g id="win10">
</g>
<g id="ios_x5F_out">
</g>
<g id="ios_x5F_filled">
	<path d="M15,42h9v3h-8c-0.55,0-1-0.45-1-1V42z"/>
	<path d="M35,42v2c0,0.55-0.45,1-1,1h-8v-3H35z"/>
	<path d="M8.33,36.61l-0.39,1.36c-0.16,0.54-0.71,0.84-1.24,0.69l-2.74-0.77c-0.53-0.15-0.84-0.71-0.69-1.24l0.39-1.38L8.33,36.61z"
		/>
	<path d="M46.04,37.89l-2.74,0.77c-0.53,0.15-1.08-0.15-1.24-0.69l-0.39-1.36l4.67-1.34l0.39,1.38
		C46.88,37.18,46.57,37.74,46.04,37.89z"/>
	<path d="M46.77,32.06L43.9,20.49L37.11,22H26v18h9c1.1,0,2-0.9,2-2V24l2.73,10.02c0.15,0.54,0.71,0.85,1.24,0.7l5.1-1.45
		C46.59,33.12,46.9,32.59,46.77,32.06z M33.83,37.55C33.64,37.84,33.32,38,33,38c-0.19,0-0.38-0.05-0.55-0.17
		C32.3,37.74,29,35.48,29,31c0-0.55,0.45-1,1-1s1,0.45,1,1c0,3.43,2.53,5.15,2.55,5.17C34.01,36.47,34.14,37.1,33.83,37.55z"/>
	<path d="M26,20h10.89l6.53-1.45l-1.23-4.97c-0.75-2.87-2.85-5.18-5.64-6.2l-3.59-1.3c-0.19,1.5-1.23,2.79-2.7,3.27l-4.17,1.4
		C26.56,11.57,27,12.48,27,13c0,1.1-0.9,2-2,2s-2-0.9-2-2c0-0.52,0.44-1.43,0.91-2.25l-4.17-1.4c-1.47-0.48-2.51-1.77-2.7-3.27
		l-3.59,1.3c-2.79,1.02-4.89,3.33-5.64,6.2l-1.06,4.28L13.16,20H24v-3.13c0.32,0.09,0.65,0.13,1,0.13s0.68-0.04,1-0.13V20z"/>
	<path d="M6.27,19.81L3.23,32.06c-0.13,0.53,0.18,1.06,0.7,1.21l5.1,1.45c0.53,0.15,1.09-0.16,1.24-0.7L13,24v14c0,1.1,0.9,2,2,2h9
		V22H12.84L6.27,19.81z M16.45,36.17C16.55,36.1,19,34.39,19,31c0-0.55,0.45-1,1-1s1,0.45,1,1c0,4.48-3.3,6.74-3.45,6.83
		C17.38,37.95,17.19,38,17,38c-0.32,0-0.64-0.16-0.83-0.45C15.86,37.1,15.99,36.47,16.45,36.17z"/>
	<path d="M29.632,7.456L25,9l-4.632-1.544C19.551,7.184,19,6.419,19,5.558V5c0-0.552,0.448-1,1-1h10c0.552,0,1,0.448,1,1v0.558
		C31,6.419,30.449,7.184,29.632,7.456z"/>
</g>
<g id="color">
</g>
</svg>