<?xml version="1.0" encoding="iso-8859-1"?><!-- Generator: Adobe Illustrator 19.2.1, SVG Export Plug-In . SVG Version: 6.00 Build 0)  --><svg xmlns="http://www.w3.org/2000/svg" xmlns:xlink="http://www.w3.org/1999/xlink" viewBox="0 0 50 50" width="500px" height="500px"><g><polygon points="36.412,16 13.522,16 18.162,24.249 25,16.089 31.832,24.243 "/><polygon points="20.143,25 29.857,25 25,19.203 "/><polygon points="16.291,25 11.768,16.96 5.042,25 "/><polygon points="38.195,16.908 33.699,25 45.06,25 "/></g><line style="fill:none;stroke:#000000;stroke-width:2;stroke-linecap:round;stroke-linejoin:round;stroke-miterlimit:10;" x1="25" y1="10" x2="25" y2="4"/><line style="fill:none;stroke:#000000;stroke-width:2;stroke-linecap:round;stroke-linejoin:round;stroke-miterlimit:10;" x1="9" y1="13" x2="4" y2="9"/><line style="fill:none;stroke:#000000;stroke-width:2;stroke-linecap:round;stroke-linejoin:round;stroke-miterlimit:10;" x1="41" y1="13" x2="46" y2="9"/><g><polygon points="30.676,27 19.324,27 25,46.973 "/><polygon points="32.755,27 27.747,44.623 45,27 "/><polygon points="17.245,27 5.103,27 22.249,44.608 "/></g></svg>