<?xml version="1.0" encoding="utf-8"?><!-- Generator: Adobe Illustrator 15.0.0, SVG Export Plug-In . SVG Version: 6.00 Build 0)  --><!DOCTYPE svg PUBLIC "-//W3C//DTD SVG 1.1//EN" "http://www.w3.org/Graphics/SVG/1.1/DTD/svg11.dtd"><svg xmlns="http://www.w3.org/2000/svg" xmlns:xlink="http://www.w3.org/1999/xlink" viewBox="0 0 50 50" width="500px" height="500px"><path d="M25,38c-1.991,0-3-0.541-3-1.609C22,25.77,9.452,22.919,4.094,21.702C1.78,21.177,1,21,1,20c0-0.084,0.011-0.167,0.031-0.249C2.25,15,3.567,15,4,15c0.103,0,0.204,0.016,0.302,0.046C4.424,15.082,7.82,16,25,16s20.576-0.918,20.712-0.958C45.802,15.017,45.906,15,46,15c0.433,0,1.751,0,2.969,4.751C48.989,19.833,49,19.916,49,20c0,1-0.779,1.177-3.095,1.702C40.548,22.919,28,25.77,28,36.391C28,37.459,26.99,38,25,38z"/></svg>