<?xml version="1.0" encoding="iso-8859-1"?>
<!-- Generator: Adobe Illustrator 24.0.2, SVG Export Plug-In . SVG Version: 6.00 Build 0)  -->
<svg version="1.1" id="Layer_1" xmlns="http://www.w3.org/2000/svg" xmlns:xlink="http://www.w3.org/1999/xlink" x="0px" y="0px"
	 viewBox="0 0 50 50" style="enable-background:new 0 0 50 50;" xml:space="preserve">
<path d="M33.231,17.557c-0.003-0.001-0.005-0.003-0.008-0.004c-0.839-0.419-1.793-0.807-2.707-1.058
	c1.298-1.236,1.983-2.936,1.983-4.924C32.5,7.289,29.293,2.5,25,2.5s-7.5,4.789-7.5,9.071c0,1.969,0.673,3.656,1.947,4.89
	c-0.938,0.31-1.858,0.686-2.679,1.096C7.468,22.419,3.5,30.245,3.5,43.724c0,1.978,1.045,3.499,1.09,3.563
	C4.684,47.42,4.837,47.5,5,47.5h4c0.165,0,0.319-0.081,0.413-0.218c0.044-0.065,1.087-1.613,1.087-3.559
	c0-6.935,2.628-10.901,4-12.5V36c0,3.44,0,8.151,2.084,11.277C16.677,47.416,16.833,47.5,17,47.5h16
	c0.167,0,0.323-0.084,0.416-0.223C35.5,44.151,35.5,39.44,35.5,36v-4.776c1.372,1.599,4,5.565,4,12.5
	c0,1.945,1.043,3.493,1.087,3.559C40.681,47.419,40.835,47.5,41,47.5h4c0.163,0,0.316-0.08,0.41-0.214
	c0.045-0.063,1.09-1.585,1.09-3.563C46.5,30.245,42.532,22.419,33.231,17.557z M20.986,42.164C20.905,42.653,20.481,43,20.001,43
	c-0.055,0-0.109-0.004-0.165-0.014c-0.545-0.091-0.913-0.606-0.822-1.15l1-6c0.091-0.545,0.604-0.921,1.15-0.822
	c0.545,0.091,0.913,0.606,0.822,1.15L20.986,42.164z M25,15c-1.657,0-3-1.567-3-3.5S23.343,8,25,8s3,1.567,3,3.5S26.657,15,25,15z
	 M30.164,42.986C30.108,42.996,30.054,43,29.999,43c-0.48,0-0.904-0.347-0.985-0.836l-1-6c-0.091-0.544,0.277-1.06,0.822-1.15
	c0.547-0.098,1.061,0.277,1.15,0.822l1,6C31.077,42.38,30.709,42.896,30.164,42.986z"/>
</svg>