<?xml version="1.0" encoding="iso-8859-1"?>
<!-- Generator: Adobe Illustrator 23.1.0, SVG Export Plug-In . SVG Version: 6.00 Build 0)  -->
<svg version="1.1" id="Layer_1" xmlns="http://www.w3.org/2000/svg" xmlns:xlink="http://www.w3.org/1999/xlink" x="0px" y="0px"
	 viewBox="0 0 50 50" style="enable-background:new 0 0 50 50;" xml:space="preserve">
<g>
	<path d="M41,19.437l5.459-2.754l-2.603-5.2c-0.688-1.14-1.7-2.089-2.856-2.736V19.437z"/>
	<path d="M9,19.5V8.749c-1.16,0.652-2.18,1.617-2.895,2.804l-2.591,5.182L9,19.5z"/>
	<path d="M39.658,39.952c-1.173-2.483-2.628-5.568-2.654-8.864c0-0.001-0.001-0.002-0.001-0.003
		c-0.001-0.017-0.001-0.033-0.002-0.051C37.002,31.023,37,31.012,37,31c0-0.002,0-0.003,0-0.005c-0.35-4.343,0.94-7.822,2-10.116
		V7.954l-6.296-1.912c-0.494-0.15-1.023,0.102-1.218,0.582C30.409,9.283,27.863,11,25,11s-5.409-1.717-6.486-4.375
		c-0.193-0.479-0.72-0.731-1.218-0.582L11,7.954v12.932c0.974,2.174,2.135,5.423,1.966,9.453C12.979,30.559,13,30.778,13,31
		c0,3.258-1.436,6.329-2.588,8.796L10.131,40.4c-0.027,0.06-0.05,0.121-0.064,0.185l-0.038,0.181
		c-0.106,0.438,0.093,0.892,0.486,1.109c4.67,2.595,9.578,3.893,14.485,3.893s9.815-1.298,14.485-3.893
		C39.803,41.699,40,41.364,40,41v-0.102c0-0.146-0.032-0.292-0.095-0.425L39.658,39.952z"/>
	<path d="M49.784,21.117l-2.077-2.823l-6.918,3.489c-0.645,1.402-1.366,3.279-1.682,5.521c0.043,0.002,0.091,0.011,0.132,0.011
		c1.023,0,1.578-0.59,1.943-0.978c0.355-0.377,0.44-0.468,0.923-0.369c2.112,0.501,2.997-0.628,3.471-1.239
		c0.101-0.129,0.252-0.323,0.297-0.353c0-0.002,0.028-0.004,0.085,0.009c2.628,0.657,3.545-1.394,3.935-2.271
		C50.038,21.787,49.997,21.406,49.784,21.117z"/>
	<path d="M10.834,27.291c-0.302-2.196-0.979-4.041-1.595-5.433c-0.009-0.004-0.019-0.006-0.028-0.01l-6.988-3.524l-2.014,2.803
		c-0.205,0.286-0.245,0.658-0.105,0.981c0.382,0.881,1.283,2.94,3.911,2.259c0.063,0.038,0.208,0.229,0.304,0.355
		c0.468,0.615,1.334,1.761,3.395,1.253c0.479-0.102,0.551-0.021,0.897,0.354c0.359,0.392,0.906,0.987,1.919,0.987
		C10.624,27.317,10.73,27.302,10.834,27.291z"/>
</g>
</svg>