<?xml version="1.0" encoding="iso-8859-1"?><!-- Generator: Adobe Illustrator 19.2.1, SVG Export Plug-In . SVG Version: 6.00 Build 0)  --><svg xmlns="http://www.w3.org/2000/svg" xmlns:xlink="http://www.w3.org/1999/xlink" viewBox="0 0 50 50" width="500px" height="500px"><ellipse style="fill:none;stroke:#000000;stroke-width:2;stroke-linecap:round;stroke-linejoin:round;stroke-miterlimit:10;" cx="25" cy="15" rx="10" ry="9"/><path d="M29.747,12.298c-0.364-0.042-0.413,4.968-0.115,5.006C37.957,18.373,44,22.24,44,26.5c0,5.149-8.701,9.5-19,9.5S6,31.649,6,26.5c0-4.26,6.043-8.127,14.369-9.196c0.297-0.038,0.248-5.047-0.115-5.006C8.518,13.776,0,20.591,0,28.5C0,37.598,11.215,45,25,45s25-7.402,25-16.5C50,20.591,41.482,13.776,29.747,12.298z"/><ellipse style="fill:none;stroke:#000000;stroke-width:2;stroke-linecap:round;stroke-linejoin:round;stroke-miterlimit:10;" cx="25" cy="15" rx="5" ry="4.5"/></svg>