<?xml version="1.0" encoding="utf-8"?><!-- Generator: Adobe Illustrator 15.0.0, SVG Export Plug-In . SVG Version: 6.00 Build 0)  --><!DOCTYPE svg PUBLIC "-//W3C//DTD SVG 1.1//EN" "http://www.w3.org/Graphics/SVG/1.1/DTD/svg11.dtd"><svg xmlns="http://www.w3.org/2000/svg" xmlns:xlink="http://www.w3.org/1999/xlink" viewBox="0 0 50 50" width="50px" height="50px"><polygon points="10,37 10,39 10,42 24,42 24,29 10,29 "/><path d="M10,25v2h14V14.576l-12.948-7.52L9.29,7.888c-2.223,1-3.95,2.931-4.738,5.295L0.612,25H8v-2h2V25z"/><rect y="27" width="8" height="10"/><path d="M25,12.843l12.253-7.127l-3.472-4.34c-0.2-0.25-0.524-0.386-0.824-0.375c-0.319,0.014-0.612,0.179-0.789,0.444L25,12.197L17.832,1.445c-0.177-0.266-0.47-0.431-0.789-0.444c-0.323-0.008-0.625,0.125-0.824,0.375l-3.479,4.348L25,12.843z"/><path d="M42,39v4h7c0.553,0,1-0.447,1-1v-3H42z"/><rect x="42" y="27" width="8" height="10"/><rect x="26" y="29" width="14" height="13"/><path d="M26,44v4h-2v-4H10v5c0,0.553,0.448,1,1,1h28c0.553,0,1-0.447,1-1v-5H26z"/><path d="M49.387,25l-3.938-11.816c-0.788-2.365-2.515-4.295-4.722-5.288l-1.79-0.845L26,14.575V27h14v-4h2v2H49.387z"/><path d="M0,39v3c0,0.553,0.448,1,1,1h7v-4H0z"/><path fill="none" stroke="#000000" stroke-width="2" stroke-linecap="round" stroke-linejoin="round" stroke-miterlimit="10" d="M17,2c0,0,2.9-1,8-1c5.1,0,8,1,8,1"/><path fill="none" stroke="#000000" stroke-width="2" stroke-linecap="round" stroke-linejoin="round" stroke-miterlimit="10" d="M49,42V27l-4.5-13.5c-0.7-2.1-2.2-3.8-4.2-4.7"/><path fill="none" stroke="#000000" stroke-width="2" stroke-linecap="round" stroke-linejoin="round" stroke-miterlimit="10" d="M1,42V27l4.5-13.5c0.7-2.1,2.2-3.8,4.2-4.7"/><rect x="10" y="25" width="2" height="20"/><rect x="38" y="25" width="2" height="20"/></svg>