<?xml version="1.0" encoding="iso-8859-1"?><!-- Generator: Adobe Illustrator 22.1.0, SVG Export Plug-In . SVG Version: 6.00 Build 0)  --><svg xmlns="http://www.w3.org/2000/svg" xmlns:xlink="http://www.w3.org/1999/xlink" viewBox="0 0 50 50" width="50px" height="50px"><path d="M49.859,19.489c0,0-3.958-6.652-6.352-10.64c-1.682-2.802-5.096-3.773-5.241-3.813c0,0,0,0,0,0l-6.991-1.998c-0.047-0.013-0.092-0.005-0.139-0.011C31.09,3.021,31.048,3,31,3H19c-0.048,0-0.089,0.021-0.135,0.027c-0.047,0.006-0.093-0.002-0.14,0.011l-6.991,1.998c0,0,0,0,0,0c-0.145,0.04-3.559,1.011-5.241,3.813c-2.394,3.987-6.352,10.64-6.352,10.64c-0.281,0.472-0.128,1.083,0.342,1.367l6.625,4C7.27,24.954,7.448,25,7.624,25c0.333,0,0.66-0.167,0.849-0.47L11,20.487V46c0,0.552,0.448,1,1,1h13h13c0.552,0,1-0.448,1-1V20.487l2.527,4.043c0.189,0.303,0.516,0.47,0.849,0.47c0.176,0,0.354-0.046,0.516-0.144l6.625-4C49.987,20.572,50.141,19.961,49.859,19.489z M30.722,5C30.197,6.458,28.749,9,25,9s-5.197-2.542-5.722-4H30.722z"/></svg>