<?xml version="1.0" encoding="utf-8"?><!-- Generator: Adobe Illustrator 20.1.0, SVG Export Plug-In . SVG Version: 6.00 Build 0)  --><svg xmlns="http://www.w3.org/2000/svg" xmlns:xlink="http://www.w3.org/1999/xlink" viewBox="0 0 50 50" width="500px" height="500px"><path d="M8.9,35.3l-2-0.2c0.7-8.9,7.8-15.9,13.1-20.4c3.8-3.2,9.6-8.2,15.7-8l-0.1,2c-5.4-0.1-10.8,4.5-14.4,7.5C16.3,20.5,9.6,27.1,8.9,35.3z"/><path d="M46.4,14.8l-3.5-3.5l0,0c1.6,4.8-2.4,13.7-10.1,21.4c-7.7,7.7-16.6,11.7-21.4,10.1l-0.1,0.1l3.5,3.5c1,1,2.5,1.6,4.3,1.6c1.6,0,3.6-0.4,5.7-1.3c4.2-1.7,8.7-4.9,12.9-9C46.5,28.8,50.4,18.8,46.4,14.8z M24.9,43.9c-0.2,0.4-0.5,0.8-1,1C23,45.3,22,45,21.7,44.4c-0.1-0.3-0.1-0.6,0-0.8c0.2-0.4,0.5-0.8,1-1c0.3-0.1,0.6-0.2,0.9-0.2c0.6,0,1.1,0.2,1.3,0.7C25,43.3,25,43.7,24.9,43.9z M37,34.8c-0.1,0.5-0.3,1.1-0.8,1.5c-0.8,0.8-2,1-2.6,0.5c-0.6-0.6-0.4-1.8,0.5-2.6c0.4-0.4,1-0.7,1.5-0.8c0.1,0,0.1,0,0.2,0c0.3,0,0.6,0.1,0.9,0.3C37,34,37,34.5,37,34.8z M45.2,23.2c-0.2,0.5-0.6,0.9-1,1c-0.2,0.1-0.5,0.1-0.8,0c-0.6-0.3-0.9-1.3-0.5-2.1c0.2-0.5,0.6-0.9,1-1c0.1,0,0.3-0.1,0.4-0.1c0.1,0,0.3,0,0.4,0.1h0C45.3,21.4,45.6,22.3,45.2,23.2z"/><line fill="none" stroke="#000000" stroke-width="0" stroke-linecap="round" stroke-linejoin="round" x1="4.3" y1="34.5" x2="4.3" y2="34.5"/><path d="M40.1,8.5l-4.9-4.9c-2-2-5.5-2.1-10-0.3c-4.2,1.7-8.7,4.9-12.9,9C3.5,21.2-0.4,31.2,3.6,35.2l4.9,4.9c1,1,2.5,1.5,4.3,1.5c4.9,0,12-3.8,18.6-10.3c4.1-4.1,7.3-8.7,9-12.9C42.2,14,42.1,10.5,40.1,8.5z M19.4,36.8c-0.3,0.7-0.9,1.3-1.7,1.7c-1.5,0.6-3.1,0.2-3.6-0.9c-0.3-0.6-0.2-1.1,0-1.5c0.3-0.7,0.9-1.3,1.7-1.7c0.5-0.2,1-0.3,1.4-0.3c1,0,1.8,0.4,2.2,1.2C19.7,35.9,19.6,36.5,19.4,36.8z M29.6,30.3c-1.3,1.3-3.2,1.6-4.1,0.6c-1-1-0.7-2.8,0.6-4.1c0.8-0.8,1.8-1.2,2.6-1.2c0.6,0,1.1,0.2,1.5,0.6C31.2,27.1,30.9,29,29.6,30.3z M25,25c-8.6,8.6-17.3,11.5-20,8.8c-2.7-2.7,0.2-11.4,8.8-20c3.9-3.9,8.3-7,12.2-8.6c3.6-1.5,6.4-1.5,7.8-0.2s1.3,4.2-0.2,7.8C32,16.7,28.9,21.1,25,25z M38.3,18.2c-0.4,0.8-1,1.4-1.7,1.7c-0.4,0.1-0.9,0.3-1.5,0c-1.2-0.5-1.6-2.2-0.9-3.6c0.4-0.8,1-1.4,1.7-1.7c0.2-0.1,1.1-0.2,1.5,0C38.6,15.1,39,16.7,38.3,18.2z"/><path d="M12.2,35.8l-1.9-0.5c1.3-4.7,4.9-10.2,9.8-15.2c4.9-4.9,10.4-8.5,15-9.8l0.6,1.9c-4.3,1.2-9.6,4.7-14.1,9.3C16.8,26.1,13.3,31.5,12.2,35.8z"/></svg>