<?xml version="1.0" encoding="utf-8"?><!-- Generator: Adobe Illustrator 15.0.0, SVG Export Plug-In . SVG Version: 6.00 Build 0)  --><!DOCTYPE svg PUBLIC "-//W3C//DTD SVG 1.1//EN" "http://www.w3.org/Graphics/SVG/1.1/DTD/svg11.dtd"><svg xmlns="http://www.w3.org/2000/svg" xmlns:xlink="http://www.w3.org/1999/xlink" viewBox="0 0 50 50" width="500px" height="500px"><g><path d="M24.953,27c3.66,0,7.218,0.645,10.428,1.511l-9.99-3.054c-0.189-0.057-0.391-0.058-0.583,0l-9.212,2.792C18.528,27.518,21.707,27,24.953,27z"/><path d="M43.986,33.626C39.677,31.896,32.464,29,24.953,29c-7.438,0-14.394,2.788-18.997,4.633c-2.312,0.927-3.674,1.471-4.602,1.506c0.796,2.696,2.796,7.304,4.395,9.884c1.295,2.086,2.551,2.977,4.197,2.977h0c1.117,0,2.271-0.424,3.73-0.96c2.475-0.909,5.864-2.154,11.323-2.154c5.453,0,8.792,1.243,11.23,2.151c1.445,0.538,2.586,0.963,3.709,0.963c1.636,0,2.92-0.883,4.292-2.951c1.277-1.925,3.547-7.067,4.415-9.956C47.743,35.135,46.394,34.593,43.986,33.626z"/></g><ellipse cx="25" cy="3.5" rx="4" ry="2.5"/><path d="M30.995,3.428C30.996,3.453,31,3.476,31,3.5C31,6.023,28.364,8,25,8s-6-1.977-6-4.5c0-0.02,0.003-0.038,0.004-0.058C7.699,5.297,1,12.28,1,22.429v10.375c0,0.32,0.25,0.367,0.534,0.308c0.713-0.146,2.276-0.773,3.678-1.336C9.669,29.99,17.129,27,24.953,27c7.897,0,15.335,2.986,19.778,4.77c1.342,0.539,2.836,1.14,3.527,1.289C48.646,33.217,49,32.938,49,32.729v-10.3C49,12.245,42.302,5.258,30.995,3.428z M23.293,19.496c0.308,0.786,0.967,1.283,2.099,1.283c0.885,0,1.377-0.275,1.892-0.856c0.411-0.478,0.823-0.65,1.337-0.65c0.763,0,1.379,0.462,1.379,1.129c0,0.274-0.104,0.514-0.268,0.751C29.032,22.197,27.49,23,25.392,23c-2.45,0-4.26-0.958-5.001-2.854C20.104,19.375,20,18.776,20,16.999s0.104-2.375,0.391-3.146C21.132,11.958,22.942,11,25.392,11c2.098,0,3.64,0.803,4.34,1.846C29.896,13.085,30,13.324,30,13.597c0,0.667-0.616,1.13-1.379,1.13c-0.514,0-0.926-0.173-1.337-0.651c-0.515-0.581-1.007-0.855-1.892-0.855c-1.132,0-1.791,0.496-2.099,1.283c-0.164,0.426-0.227,0.837-0.227,2.495S23.13,19.068,23.293,19.496z"/></svg>