<?xml version="1.0" encoding="iso-8859-1"?>
<!-- Generator: Adobe Illustrator 23.0.3, SVG Export Plug-In . SVG Version: 6.00 Build 0)  -->
<svg version="1.1" id="Layer_1" xmlns="http://www.w3.org/2000/svg" xmlns:xlink="http://www.w3.org/1999/xlink" x="0px" y="0px"
	 viewBox="0 0 50 50" style="enable-background:new 0 0 50 50;" xml:space="preserve">
<path d="M39.778,21.478C39.909,21.647,40,21.85,40,22.08v2.04c0,0.553-0.447,1-1,1s-1-0.447-1-1v-2.04
	c0-0.015,0.008-0.028,0.009-0.043L26.506,25.67c-0.486,0.154-0.994,0.233-1.506,0.233s-1.02-0.079-1.509-0.234l-11.5-3.631
	C11.992,22.052,12,22.065,12,22.08v2.041c0,0.553-0.447,1-1,1s-1-0.447-1-1V22.08c0-0.23,0.091-0.432,0.221-0.602L7,20.461V38
	c0,0.405,0.244,0.771,0.619,0.925l16.238,6.687c0.368,0.151,0.756,0.228,1.143,0.228s0.774-0.076,1.143-0.228l16.238-6.687
	C42.756,38.771,43,38.405,43,38V20.461L39.778,21.478z M10,28.201c0-0.553,0.447-1,1-1s1,0.447,1,1v2.04c0,0.553-0.447,1-1,1
	s-1-0.447-1-1V28.201z M12.867,36.036c-0.152,0.398-0.531,0.643-0.934,0.643c-0.119,0-0.24-0.021-0.357-0.066l-0.934-0.357
	C10.256,36.107,10,35.735,10,35.321v-1c0-0.553,0.447-1,1-1s1,0.447,1,1v0.313l0.291,0.111
	C12.807,34.942,13.065,35.521,12.867,36.036z M18.468,38.178c-0.151,0.398-0.531,0.643-0.934,0.643
	c-0.119,0-0.239-0.021-0.357-0.066L15.31,38.04c-0.516-0.196-0.773-0.774-0.576-1.291c0.196-0.517,0.773-0.772,1.291-0.576
	l1.867,0.714C18.407,37.083,18.665,37.661,18.468,38.178z M24.067,40.318c-0.152,0.398-0.531,0.643-0.934,0.643
	c-0.119,0-0.239-0.021-0.357-0.066l-1.866-0.714c-0.516-0.197-0.773-0.775-0.576-1.291c0.198-0.517,0.774-0.771,1.291-0.576
	l1.866,0.714C24.007,39.225,24.265,39.803,24.067,40.318z M29.091,40.181l-1.866,0.714c-0.118,0.045-0.238,0.066-0.357,0.066
	c-0.402,0-0.781-0.244-0.934-0.643c-0.197-0.516,0.061-1.094,0.576-1.291l1.866-0.714c0.514-0.196,1.094,0.06,1.291,0.576
	C29.864,39.405,29.606,39.983,29.091,40.181z M34.69,38.039l-1.866,0.714c-0.118,0.045-0.238,0.066-0.357,0.066
	c-0.402,0-0.781-0.244-0.934-0.643c-0.197-0.516,0.061-1.094,0.576-1.291l1.866-0.714c0.514-0.196,1.094,0.06,1.291,0.576
	C35.464,37.264,35.206,37.842,34.69,38.039z M40,35.321c0,0.414-0.256,0.786-0.643,0.934l-0.934,0.357
	c-0.117,0.045-0.238,0.066-0.357,0.066c-0.402,0-0.781-0.244-0.934-0.643c-0.198-0.516,0.061-1.094,0.576-1.291L38,34.634v-0.313
	c0-0.553,0.447-1,1-1s1,0.447,1,1V35.321z M40,30.24c0,0.553-0.447,1-1,1s-1-0.447-1-1V28.2c0-0.553,0.447-1,1-1s1,0.447,1,1V30.24z
	"/>
<path d="M44,4h-2v1.276c0,0.553-0.447,1-1,1s-1-0.447-1-1V4H10v1.275c0,0.553-0.447,1-1,1s-1-0.447-1-1V4H6C5.447,4,5,4.447,5,5
	v11.268c0,0.875,0.562,1.642,1.398,1.906l17.698,5.589c0.295,0.094,0.6,0.141,0.903,0.141s0.608-0.047,0.903-0.141l17.698-5.589
	c0.001,0,0.001,0,0.001,0C44.438,17.909,45,17.143,45,16.268V5C45,4.447,44.553,4,44,4z M8,8.792c0-0.553,0.447-1,1-1s1,0.447,1,1
	v1.759c0,0.553-0.447,1-1,1s-1-0.447-1-1V8.792z M10.918,15.637c-0.129,0.435-0.527,0.716-0.959,0.716
	c-0.094,0-0.189-0.013-0.284-0.041l-0.959-0.284C8.291,15.901,8,15.511,8,15.068v-1c0-0.553,0.447-1,1-1s1,0.447,1,1v0.253
	l0.243,0.072C10.772,14.551,11.074,15.107,10.918,15.637z M16.227,17.208c-0.129,0.435-0.527,0.716-0.959,0.716
	c-0.094,0-0.189-0.013-0.284-0.041l-1.77-0.524c-0.529-0.157-0.831-0.714-0.675-1.243c0.157-0.529,0.712-0.833,1.243-0.675
	l1.77,0.524C16.081,16.122,16.383,16.679,16.227,17.208z M21.535,18.778c-0.129,0.436-0.527,0.717-0.959,0.717
	c-0.094,0-0.189-0.013-0.283-0.041l-1.77-0.523c-0.53-0.156-0.832-0.713-0.676-1.242c0.157-0.529,0.717-0.833,1.242-0.676
	l1.77,0.523C21.39,17.692,21.691,18.249,21.535,18.778z M26.168,20.502l-0.885,0.262c-0.092,0.027-0.188,0.041-0.283,0.041
	s-0.191-0.014-0.283-0.041l-0.885-0.262c-0.53-0.156-0.832-0.713-0.676-1.242c0.157-0.529,0.718-0.833,1.242-0.676L25,18.762
	l0.602-0.178c0.526-0.158,1.085,0.146,1.242,0.676C27,19.789,26.698,20.346,26.168,20.502z M25,16c-1.105,0-2-0.896-2-2
	c0-1.105,0.895-2,2-2s2,0.895,2,2C27,15.104,26.105,16,25,16z M31.477,18.931l-1.77,0.523c-0.094,0.028-0.189,0.041-0.283,0.041
	c-0.432,0-0.83-0.281-0.959-0.717c-0.156-0.529,0.146-1.086,0.676-1.242l1.77-0.523c0.526-0.158,1.085,0.146,1.242,0.676
	C32.309,18.218,32.007,18.774,31.477,18.931z M36.785,17.359l-1.77,0.523c-0.094,0.028-0.189,0.041-0.283,0.041
	c-0.432,0-0.83-0.281-0.959-0.717c-0.156-0.529,0.146-1.086,0.676-1.242l1.77-0.523c0.526-0.16,1.085,0.146,1.242,0.676
	C37.617,16.646,37.315,17.203,36.785,17.359z M42,15.068c0,0.442-0.291,0.833-0.716,0.959l-0.959,0.284
	c-0.095,0.028-0.19,0.041-0.284,0.041c-0.432,0-0.83-0.281-0.959-0.716c-0.156-0.529,0.146-1.086,0.675-1.243L40,14.321v-0.253
	c0-0.553,0.447-1,1-1s1,0.447,1,1V15.068z M42,10.552c0,0.553-0.447,1-1,1s-1-0.447-1-1V8.793c0-0.553,0.447-1,1-1s1,0.447,1,1
	V10.552z"/>
</svg>