<?xml version="1.0" encoding="iso-8859-1"?>
<!-- Generator: Adobe Illustrator 23.0.6, SVG Export Plug-In . SVG Version: 6.00 Build 0)  -->
<svg version="1.1" id="Filled" xmlns="http://www.w3.org/2000/svg" xmlns:xlink="http://www.w3.org/1999/xlink" x="0px" y="0px"
	 viewBox="0 0 50 50" style="enable-background:new 0 0 50 50;" xml:space="preserve">
<path d="M35,5c-3.896,0-7.541,1.728-10,4.682C22.541,6.728,18.896,5,15,5C7.832,5,2,10.811,2,17.952
	C2,29.51,12.17,36.291,19.596,41.243c1.904,1.27,3.549,2.366,4.766,3.376L25,45.149l0.639-0.53c1.217-1.01,2.861-2.106,4.766-3.376
	C37.83,36.291,48,29.51,48,17.952C48,10.811,42.168,5,35,5z M4.902,13.608c0.412-0.945,0.956-1.828,1.617-2.625
	c0.354-0.425,0.984-0.483,1.408-0.131c0.425,0.353,0.483,0.983,0.131,1.408c-0.541,0.651-0.986,1.374-1.322,2.146
	c-0.164,0.376-0.532,0.601-0.917,0.601c-0.133,0-0.269-0.026-0.399-0.083C4.913,14.704,4.682,14.114,4.902,13.608z M5.585,22.337
	C5.513,22.353,5.44,22.36,5.368,22.36c-0.458,0-0.872-0.317-0.976-0.784c-0.213-0.964-0.341-1.959-0.379-2.959
	c-0.021-0.552,0.409-1.016,0.96-1.037c0.582-0.025,1.017,0.409,1.038,0.961c0.034,0.88,0.146,1.756,0.334,2.604
	C6.465,21.684,6.125,22.217,5.585,22.337z M9.158,28.876c-0.18,0.135-0.39,0.199-0.598,0.199c-0.305,0-0.605-0.139-0.801-0.4
	c-0.606-0.81-1.145-1.642-1.603-2.473c-0.267-0.484-0.09-1.093,0.394-1.358c0.485-0.265,1.092-0.09,1.358,0.394
	c0.413,0.751,0.901,1.504,1.451,2.238C9.69,27.918,9.6,28.545,9.158,28.876z M10.082,9.23c-0.22-0.507,0.011-1.096,0.518-1.316
	c0.947-0.412,1.946-0.688,2.97-0.821c0.548-0.076,1.049,0.314,1.121,0.862s-0.315,1.05-0.863,1.12
	c-0.837,0.109-1.655,0.335-2.429,0.673C11.269,9.805,11.133,9.831,11,9.831C10.614,9.831,10.246,9.606,10.082,9.23z M14.577,34.039
	c-0.198,0.24-0.484,0.365-0.773,0.365c-0.224,0-0.448-0.074-0.634-0.228c-0.792-0.65-1.5-1.272-2.165-1.901
	c-0.401-0.38-0.419-1.013-0.04-1.414c0.381-0.401,1.014-0.417,1.414-0.039c0.631,0.597,1.305,1.188,2.06,1.81
	C14.866,32.982,14.928,33.612,14.577,34.039z M23.401,12.449c0.424-0.353,1.054-0.296,1.408,0.129L25,12.808l0.191-0.229
	c0.354-0.424,0.983-0.481,1.408-0.129c0.424,0.353,0.482,0.983,0.129,1.408l-0.959,1.153c-0.19,0.229-0.472,0.36-0.769,0.36
	s-0.579-0.132-0.769-0.36l-0.959-1.153C22.918,13.433,22.977,12.802,23.401,12.449z M20.697,38.372
	c-0.193,0.287-0.509,0.442-0.832,0.442c-0.191,0-0.385-0.055-0.556-0.17c-0.772-0.518-1.555-1.051-2.338-1.603
	c-0.452-0.317-0.56-0.941-0.242-1.393c0.318-0.453,0.94-0.56,1.394-0.242c0.771,0.542,1.542,1.067,2.301,1.577
	C20.882,37.292,21.005,37.913,20.697,38.372z M21.621,10.429c-0.195,0.273-0.503,0.42-0.816,0.42c-0.201,0-0.403-0.061-0.579-0.186
	c-0.687-0.489-1.44-0.878-2.239-1.157c-0.521-0.183-0.796-0.753-0.614-1.274s0.753-0.797,1.274-0.614
	c0.977,0.342,1.898,0.818,2.739,1.417C21.835,9.354,21.94,9.979,21.621,10.429z M26.791,41.27c-0.419,0.29-0.818,0.573-1.197,0.853
	c-0.176,0.13-0.385,0.195-0.593,0.195s-0.417-0.065-0.593-0.195c-0.379-0.279-0.778-0.563-1.197-0.853
	c-0.454-0.314-0.567-0.938-0.253-1.392s0.938-0.566,1.392-0.253c0.223,0.154,0.44,0.307,0.652,0.458
	c0.212-0.151,0.429-0.304,0.652-0.458c0.454-0.314,1.076-0.201,1.392,0.253C27.358,40.332,27.245,40.955,26.791,41.27z
	 M28.638,9.018c0.842-0.596,1.765-1.07,2.742-1.409c0.522-0.185,1.091,0.095,1.273,0.616c0.181,0.521-0.095,1.092-0.617,1.272
	c-0.8,0.278-1.554,0.666-2.242,1.153c-0.176,0.124-0.377,0.184-0.577,0.184c-0.313,0-0.622-0.146-0.817-0.422
	C28.081,9.961,28.187,9.337,28.638,9.018z M33.002,37.062c-0.783,0.55-1.566,1.083-2.337,1.602c-0.171,0.115-0.365,0.17-0.557,0.17
	c-0.322,0-0.638-0.155-0.831-0.442c-0.308-0.458-0.186-1.079,0.272-1.388c0.76-0.511,1.532-1.036,2.304-1.578
	c0.453-0.318,1.075-0.208,1.393,0.244C33.563,36.12,33.455,36.744,33.002,37.062z M42.09,10.87c0.425-0.353,1.056-0.292,1.408,0.134
	c0.659,0.798,1.201,1.683,1.611,2.63c0.219,0.507-0.014,1.095-0.521,1.314c-0.129,0.056-0.264,0.082-0.396,0.082
	c-0.387,0-0.755-0.226-0.918-0.604c-0.334-0.773-0.777-1.496-1.317-2.149C41.604,11.852,41.665,11.222,42.09,10.87z M38.972,32.297
	c-0.664,0.626-1.393,1.266-2.168,1.9c-0.186,0.152-0.41,0.227-0.633,0.227c-0.289,0-0.576-0.125-0.774-0.366
	c-0.35-0.427-0.288-1.058,0.14-1.407c0.739-0.605,1.433-1.214,2.063-1.809c0.401-0.378,1.034-0.36,1.414,0.041
	S39.374,31.917,38.972,32.297z M39.94,9.243c-0.165,0.375-0.531,0.598-0.916,0.598c-0.134,0-0.271-0.027-0.402-0.084
	c-0.772-0.34-1.588-0.568-2.427-0.68c-0.547-0.072-0.932-0.575-0.859-1.123c0.073-0.548,0.572-0.933,1.123-0.859
	c1.025,0.137,2.024,0.416,2.968,0.83C39.932,8.147,40.162,8.737,39.94,9.243z M43.831,26.227c-0.459,0.832-1,1.664-1.606,2.472
	c-0.197,0.262-0.497,0.399-0.801,0.399c-0.209,0-0.419-0.065-0.6-0.2c-0.441-0.332-0.531-0.959-0.199-1.4
	c0.551-0.733,1.041-1.486,1.455-2.237c0.267-0.483,0.875-0.657,1.359-0.393C43.922,25.135,44.098,25.743,43.831,26.227z
	 M44.626,22.387c-0.072,0-0.145-0.008-0.219-0.024c-0.539-0.12-0.878-0.654-0.758-1.193c0.189-0.849,0.303-1.725,0.339-2.604
	c0.022-0.552,0.493-0.998,1.04-0.959c0.552,0.022,0.981,0.487,0.958,1.039c-0.041,1-0.17,1.995-0.385,2.96
	C45.498,22.07,45.084,22.387,44.626,22.387z"/>
</svg>