<?xml version="1.0" encoding="iso-8859-1"?><!-- Generator: Adobe Illustrator 19.2.1, SVG Export Plug-In . SVG Version: 6.00 Build 0)  --><svg xmlns="http://www.w3.org/2000/svg" xmlns:xlink="http://www.w3.org/1999/xlink" viewBox="0 0 50 50" width="500px" height="500px"><circle style="fill:none;stroke:#000000;stroke-width:2;stroke-linecap:round;stroke-linejoin:round;stroke-miterlimit:10;" cx="25" cy="25" r="18"/><path d="M35.99,2.858C35.919,2.366,35.498,2,35,2H15c-0.498,0-0.919,0.366-0.99,0.858l-1,7c-0.078,0.547-0.161,1.132-0.161,1.132s2.062-0.302,2.141-0.849C14.99,10.142,18.696,7,25,7s10.01,3.142,10.01,3.142C35.082,10.641,35.509,11,35.999,11c0.047,0,1.164-0.01,1.164-0.01s-0.094-0.585-0.173-1.132L35.99,2.858z"/><path d="M14.01,47.142C14.081,47.634,14.502,48,15,48h20c0.498,0,0.919-0.366,0.99-0.858l1-7c0.078-0.547,0.161-1.132,0.161-1.132s-2.062,0.302-2.141,0.849c0,0-3.706,3.142-10.01,3.142s-10.01-3.142-10.01-3.142C14.918,39.359,14.491,39,14.001,39c-0.047,0-1.164,0.01-1.164,0.01s0.094,0.585,0.173,1.132L14.01,47.142z"/><path d="M45,28h-2v-6h2c0.552,0,1,0.448,1,1v4C46,27.552,45.552,28,45,28z"/><path d="M39,25c0-0.535,0.423-0.964,0.952-0.99c-0.491-7.491-6.47-13.469-13.962-13.96C25.962,10.578,25.535,11,25,11s-0.962-0.422-0.99-0.95c-7.492,0.49-13.471,6.469-13.962,13.96C10.577,24.036,11,24.465,11,25c0,0.535-0.422,0.962-0.95,0.99c0.49,7.492,6.468,13.47,13.96,13.96C24.038,39.422,24.465,39,25,39s0.962,0.422,0.99,0.95c7.492-0.49,13.47-6.468,13.96-13.96C39.422,25.962,39,25.535,39,25z M32.207,19.207l-5.281,5.281C26.969,24.653,27,24.822,27,25s-0.031,0.347-0.074,0.512l2.781,2.781c0.391,0.391,0.391,1.023,0,1.414C29.512,29.902,29.256,30,29,30s-0.512-0.098-0.707-0.293l-2.781-2.781C25.347,26.969,25.178,27,25,27c-1.105,0-2-0.896-2-2c0-1.105,0.895-2,2-2c0.178,0,0.347,0.031,0.512,0.074l5.281-5.281c0.391-0.391,1.023-0.391,1.414,0S32.598,18.816,32.207,19.207z"/></svg>