<?xml version="1.0" encoding="iso-8859-1"?><!-- Generator: Adobe Illustrator 19.2.1, SVG Export Plug-In . SVG Version: 6.00 Build 0)  --><svg xmlns="http://www.w3.org/2000/svg" xmlns:xlink="http://www.w3.org/1999/xlink" viewBox="0 0 50 50" width="500px" height="500px"><path d="M35.99,2.858C35.919,2.366,35.498,2,35,2H15c-0.498,0-0.919,0.366-0.99,0.858l-1,7c-0.078,0.547-0.161,1.132-0.161,1.132s2.062-0.302,2.141-0.849C14.99,10.142,18.696,7,25,7s10.01,3.142,10.01,3.142C35.082,10.641,35.509,11,35.999,11c0.047,0,1.164-0.01,1.164-0.01s-0.094-0.585-0.173-1.132L35.99,2.858z"/><path d="M14.01,47.142C14.081,47.634,14.502,48,15,48h20c0.498,0,0.919-0.366,0.99-0.858l1-7c0.078-0.547,0.161-1.132,0.161-1.132s-2.062,0.302-2.141,0.849c0,0-3.706,3.142-10.01,3.142s-10.01-3.142-10.01-3.142C14.918,39.359,14.491,39,14.001,39c-0.047,0-1.164,0.01-1.164,0.01s0.094,0.585,0.173,1.132L14.01,47.142z"/><circle style="fill:none;stroke:#000000;stroke-width:2;stroke-linecap:round;stroke-linejoin:round;stroke-miterlimit:10;" cx="25" cy="25" r="18"/><path d="M5,28h2v-6H5c-0.552,0-1,0.448-1,1v4C4,27.552,4.448,28,5,28z"/><path d="M25,10c-8.284,0-15,6.716-15,15c0,8.284,6.716,15,15,15s15-6.716,15-15C40,16.716,33.284,10,25,10z M30,28H20c-0.552,0-1-0.447-1-1s0.448-1,1-1h10c0.552,0,1,0.447,1,1S30.552,28,30,28z M32,24H18c-0.552,0-1-0.447-1-1s0.448-1,1-1h14c0.552,0,1,0.447,1,1S32.552,24,32,24z"/></svg>