<?xml version="1.0" encoding="iso-8859-1"?><!-- Generator: Adobe Illustrator 19.2.1, SVG Export Plug-In . SVG Version: 6.00 Build 0)  --><svg xmlns="http://www.w3.org/2000/svg" xmlns:xlink="http://www.w3.org/1999/xlink" viewBox="0 0 50 50" width="500px" height="500px"><path style="fill:none;stroke:#000000;stroke-width:2;stroke-linecap:round;stroke-linejoin:round;stroke-miterlimit:10;" d="M19.136,14.387v-2.109c0-7.666,1.6-10.127,5.309-11.13c2.719-0.735,5.309,1.255,5.309,6.498v3.467"/><ellipse cx="19.483" cy="15.73" rx="1.813" ry="1.142"/><ellipse cx="29.49" cy="12.072" rx="1.813" ry="1.142"/><path d="M33.371,35.058c-0.035,0.016-0.069,0.03-0.104,0.046c-0.028,1.108-0.788,2.244-1.914,2.718c-1.125,0.475-2.24,0.13-2.744-0.754c-5.905,2.301-9.602,3.007-9.792,3.042c-0.061,0.011-0.122,0.017-0.183,0.017c-0.222,0-0.44-0.074-0.618-0.214c-0.226-0.178-0.365-0.443-0.381-0.73c-0.005-0.089-0.503-8.88-1.716-14.077c-1.034-4.424-4.457-4.104-4.843-4.056c-0.553,0.067-1.049-0.31-1.125-0.854c-0.075-0.545,0.3-1.048,0.844-1.126c1.927-0.279,5.891,0.525,7.071,5.58c0.996,4.267,1.511,10.628,1.691,13.244c2.039-0.499,6.756-1.823,12.984-4.656c3.255-1.48,7.666-4.724,9.491-6.112c0.079-0.072,0.139-0.127,0.155-0.142c0.23-0.214,0.346-0.524,0.312-0.838c-0.036-0.339-0.904-8.343-2.43-12.607c-1.693-4.729-5.569-5.383-8.376-4.504c-1.357,0.425-17.891,6.578-18.671,6.872c-0.289,0.137-0.572,0.248-0.847,0.356c-2.092,0.826-3.611,1.766-4.116,6.37l-2.057,21.45c-0.03,0.312,0.088,0.619,0.318,0.831c3.522,3.246,9.696,4.978,9.957,5.05C16.367,49.988,16.456,50,16.545,50c0.158,0,0.314-0.037,0.457-0.11l24.201-12.438c0.333-0.172,0.543-0.515,0.543-0.89c0-2.433-0.206-4.792-0.394-6.439C39.123,31.736,35.958,33.881,33.371,35.058z"/></svg>