<?xml version="1.0" encoding="iso-8859-1"?><!-- Generator: Adobe Illustrator 21.0.2, SVG Export Plug-In . SVG Version: 6.00 Build 0)  --><svg xmlns="http://www.w3.org/2000/svg" xmlns:xlink="http://www.w3.org/1999/xlink" viewBox="0 0 50 50" width="500px" height="500px"><g><g><path d="M47.999,40c-0.156,0-0.314-0.036-0.461-0.113l-46-24c-0.49-0.255-0.68-0.86-0.424-1.349c0.256-0.49,0.861-0.68,1.349-0.424l46,24c0.49,0.255,0.68,0.86,0.424,1.349C48.708,39.805,48.36,40,47.999,40z"/></g><g><path d="M2.001,40c-0.361,0-0.709-0.195-0.888-0.538c-0.255-0.489-0.065-1.094,0.424-1.349l46-24c0.489-0.257,1.093-0.066,1.349,0.424c0.255,0.489,0.065,1.094-0.424,1.349l-46,24C2.315,39.964,2.157,40,2.001,40z"/></g></g><g><path d="M22.838,27l-1.918,1l-7.547-3.937L5.56,38.271L25,28.128l19.44,10.143l-7.814-14.208l-7.547,3.937l-1.918-1l8.609-4.492L25.876,4.518c-0.351-0.639-1.401-0.639-1.752,0l-9.895,17.991L22.838,27z"/><path d="M45.984,41.077L25,30.129L4.016,41.077l-1.892,3.441c-0.17,0.31-0.165,0.687,0.015,0.991C2.319,45.813,2.646,46,3,46h44c0.354,0,0.681-0.187,0.861-0.491c0.18-0.304,0.186-0.681,0.015-0.991L45.984,41.077z"/></g></svg>