<?xml version="1.0" encoding="iso-8859-1"?><!-- Generator: Adobe Illustrator 21.0.2, SVG Export Plug-In . SVG Version: 6.00 Build 0)  --><svg xmlns="http://www.w3.org/2000/svg" xmlns:xlink="http://www.w3.org/1999/xlink" viewBox="0 0 50 50" width="500px" height="500px"><path style="fill:none;stroke:#000000;stroke-width:2;stroke-linecap:round;stroke-linejoin:round;stroke-miterlimit:10;" d="M3,41h44l-3.291-28.795C43.305,8.67,40.313,6,36.754,6H19"/><path d="M45.707,20.886C45.649,20.381,45.223,20,44.714,20H21.833c-6.992,0-13.188,4.195-15.785,10.686l-3.977,9.942c-0.123,0.308-0.085,0.657,0.101,0.932C2.358,41.835,2.668,42,3,42h44c0.285,0,0.557-0.122,0.746-0.334c0.189-0.212,0.28-0.496,0.247-0.779L45.707,20.886z M23,33c-1.105,0-2-0.895-2-2s0.895-2,2-2s2,0.895,2,2S24.105,33,23,33z M31,33c-1.105,0-2-0.895-2-2s0.895-2,2-2s2,0.895,2,2S32.105,33,31,33z"/></svg>