<?xml version="1.0" encoding="iso-8859-1"?><!-- Generator: Adobe Illustrator 19.2.1, SVG Export Plug-In . SVG Version: 6.00 Build 0)  --><svg xmlns="http://www.w3.org/2000/svg" xmlns:xlink="http://www.w3.org/1999/xlink" viewBox="0 0 50 50" width="500px" height="500px"><path style="fill:none;stroke:#000000;stroke-width:2;stroke-linecap:round;stroke-linejoin:round;stroke-miterlimit:10;" d="M16,32h-2c-1.105,0-2-0.895-2-2v-9c0-3.866,3.134-7,7-7h12c3.866,0,7,3.134,7,7l0,9c0,1.105-0.895,2-2,2h-2"/><path d="M32,19h-6v5.277c0.595,0.346,1,0.984,1,1.723c0,1.104-0.895,2-2,2s-2-0.896-2-2c0-0.739,0.405-1.376,1-1.723V19h-6c-1.654,0-3,1.346-3,3v25c0,0.553,0.447,1,1,1h18c0.553,0,1-0.447,1-1V22C35,20.346,33.654,19,32,19z M25,38c-1.105,0-2-0.896-2-2c0-1.105,0.895-2,2-2s2,0.895,2,2C27,37.104,26.105,38,25,38z"/><path d="M25,17c-0.553,0-1,0.447-1,1v1h2v-1C26,17.447,25.553,17,25,17z"/><path d="M34,2H16c-0.553,0-1,0.447-1,1v11c0,0.553,0.447,1,1,1s17.447,0,18,0s1-0.447,1-1V3C35,2.447,34.553,2,34,2z M25,10c-1.105,0-2-0.896-2-2c0-1.105,0.895-2,2-2s2,0.895,2,2C27,9.104,26.105,10,25,10z"/></svg>