<?xml version="1.0" encoding="iso-8859-1"?><!-- Generator: Adobe Illustrator 19.1.1, SVG Export Plug-In . SVG Version: 6.00 Build 0)  --><svg xmlns="http://www.w3.org/2000/svg" xmlns:xlink="http://www.w3.org/1999/xlink" viewBox="0 0 50 50" width="500px" height="500px"><path d="M25.342,25.047c-0.336,0.311-0.655,0.689-0.942,1.154c-0.205-0.375-0.602-0.684-1.08-0.895c-0.034,1.93,0.254,4.258,1.246,6.852c0.152,0.398,0.532,0.642,0.934,0.642c0.119,0,0.24-0.021,0.357-0.065c0.516-0.197,0.773-0.774,0.576-1.291C25.498,28.995,25.273,26.811,25.342,25.047z"/><path d="M49.918,31.363c-0.042-0.236-0.104-0.518-0.177-0.821c-0.581-2.417-2.111-6.903-4.185-12.725c-0.223-0.625-0.399-1.123-0.507-1.428c-1.81-5.539-6.511-7.891-6.71-7.988c-0.164-0.08-0.337-0.095-0.506-0.083c-0.892-0.308-3.067-1.055-4.409-1.465c0.003-0.061,0.008-0.124,0.012-0.186c0.005-0.084,0.011-0.169,0.018-0.255c0.007-0.09,0.014-0.182,0.022-0.274c0.005-0.063,0.011-0.126,0.017-0.19c0.017-0.188,0.036-0.378,0.056-0.568c0.004-0.035,0.007-0.07,0.011-0.106c0.172-1.574,0.422-3.088,0.426-3.111c0.009-0.054-0.006-0.105-0.005-0.158c0-0.069,0.007-0.136-0.007-0.202c-0.013-0.062-0.041-0.117-0.065-0.175c-0.025-0.061-0.044-0.122-0.081-0.176C33.794,1.4,33.748,1.36,33.705,1.315c-0.046-0.047-0.087-0.097-0.142-0.135c-0.053-0.036-0.114-0.056-0.174-0.082c-0.051-0.022-0.095-0.057-0.151-0.071C33.064,0.986,28.975,0,25,0c-3.952,0-8.98,0.977-9.192,1.019c-0.044,0.009-0.078,0.036-0.12,0.05c-0.041,0.013-0.083,0.012-0.123,0.031c-0.022,0.011-0.036,0.031-0.057,0.043c-0.061,0.035-0.112,0.078-0.163,0.124c-0.047,0.042-0.092,0.081-0.129,0.13c-0.04,0.052-0.067,0.107-0.096,0.166c-0.028,0.057-0.056,0.111-0.073,0.172c-0.017,0.06-0.021,0.122-0.027,0.185c-0.006,0.068-0.01,0.132-0.001,0.201c0.003,0.025-0.005,0.048,0,0.073c0.009,0.044,0.036,0.078,0.05,0.12c0.013,0.041,0.012,0.083,0.031,0.122c0.008,0.016,0.438,0.915,0.836,2.08c0.006,0.017,0.011,0.034,0.017,0.051c0.071,0.208,0.139,0.425,0.205,0.646c0.009,0.032,0.019,0.063,0.028,0.095c0.065,0.225,0.126,0.455,0.18,0.686c0.005,0.021,0.01,0.041,0.015,0.061c0.058,0.254,0.109,0.508,0.146,0.758c-0.537,0.181-1.197,0.398-1.852,0.61c-0.69,0.225-1.371,0.443-1.899,0.612V8.033c-0.574,0.184-0.966,0.309-0.979,0.313c-0.026,0.008-0.045,0.027-0.07,0.037c-0.022,0.009-0.045,0.007-0.067,0.018c-0.199,0.098-4.9,2.45-6.705,7.97C4.841,16.7,4.66,17.209,4.433,17.847c-2.329,6.54-3.976,11.403-4.352,13.518C0.028,31.667,0,31.913,0,32.1V48c0,0.553,0.448,1,1,1h7c0.552,0,1-0.447,1-1L8.999,33.027c0.006-0.061,0.025-0.145,0.055-0.249c0.026-0.089,0.063-0.2,0.105-0.319c0.006-0.017,0.009-0.028,0.015-0.047c0.099-0.274,0.237-0.619,0.404-1.014c0.152-0.359,0.331-0.766,0.527-1.2c0.127-0.281,0.26-0.571,0.401-0.874c0.002-0.006,0.005-0.011,0.008-0.017c0.154-0.333,0.316-0.678,0.485-1.032v0.022V43.9c0,0.415,0.252,0.77,0.611,0.922C11.73,44.872,11.862,44.9,12,44.9h26c0.001,0,0.001,0,0.002,0h0c0.553,0,1-0.447,1-1V33.116c-0.001-0.001-0.001-0.003-0.002-0.004v-4.789v-0.048c1.09,2.283,1.949,4.249,2,4.725v15c0,0.553,0.447,1,1,1h7c0.553,0,1-0.447,1-1V32.1C50,31.912,49.973,31.666,49.918,31.363z M31.202,27.601C32.3,32.5,28.9,37.6,28.7,39C18,35.5,17.3,28.1,20.3,25.6c0.857-0.725,2.098-0.703,3.021-0.293c0.061-3.377,1.119-5.522,1.189-5.66c0.25-0.492,0.853-0.687,1.346-0.436c0.492,0.251,0.688,0.853,0.437,1.345c-0.013,0.025-0.842,1.742-0.949,4.491C27.465,23.087,30.339,24.148,31.202,27.601z M31.867,2.777c-0.001,0.005-0.002,0.01-0.002,0.015L28.7,5c0,0-2,1.8-3.7,10.9C23.2,6.7,21.3,5,21.3,5l-3.859-2.184c-0.007-0.018-0.014-0.034-0.021-0.052C19.146,2.474,22.375,2,25,2C27.674,2,30.476,2.493,31.867,2.777z"/></svg>