<?xml version="1.0" encoding="utf-8"?><!-- Generator: Adobe Illustrator 15.0.0, SVG Export Plug-In . SVG Version: 6.00 Build 0)  --><!DOCTYPE svg PUBLIC "-//W3C//DTD SVG 1.1//EN" "http://www.w3.org/Graphics/SVG/1.1/DTD/svg11.dtd"><svg xmlns="http://www.w3.org/2000/svg" xmlns:xlink="http://www.w3.org/1999/xlink" viewBox="0 0 50 50" width="500px" height="500px"><rect fill="none" width="50" height="50"/><path d="M36.6,42c-6.37,0-9.6-3.701-9.6-11v-2.464C26.598,28.31,25.885,28,25,28c-0.884,0-1.596,0.309-2,0.536V31c0,7.299-3.23,11-9.6,11C4.995,42,2,36.68,2,31.7c0-1.177-0.356-1.337-0.85-1.559C0.776,29.975,0,29.626,0,28.7C0,28.032,0,26,13.6,26c2.107,0,4.295,0.353,6.226,0.663c0.67,0.108,1.315,0.212,1.919,0.295C22.317,26.595,23.484,26,25,26c1.517,0,2.683,0.595,3.254,0.958c0.605-0.083,1.25-0.187,1.921-0.295C32.105,26.353,34.293,26,36.4,26C50,26,50,28.034,50,28.8c0,0.945-0.818,1.282-1.167,1.426C48.35,30.425,48,30.568,48,31.8C48,36.73,45.005,42,36.6,42z"/><path d="M49.001,29.5c-0.381,0-0.745-0.219-0.912-0.588c-2.844-6.288-7.277-15.974-7.841-16.888c-0.394-0.639-0.621-0.89-0.728-0.985c-0.104,0.095-0.316,0.331-0.677,0.897c-0.601,1.003-1.012,1.618-1.012,1.618c-0.308,0.458-0.93,0.583-1.387,0.276c-0.459-0.306-0.584-0.927-0.277-1.386c0.007-0.011,0.396-0.594,0.975-1.56C37.889,9.713,38.536,9,39.5,9c1.028,0,1.7,0.756,2.451,1.976c0.811,1.315,7.23,15.499,7.96,17.112c0.228,0.503,0.004,1.096-0.499,1.323C49.278,29.472,49.139,29.5,49.001,29.5z"/><path d="M1,29.5c-0.138,0-0.278-0.028-0.412-0.089c-0.503-0.228-0.727-0.82-0.499-1.323c0.729-1.613,7.149-15.796,7.959-17.112C8.799,9.756,9.472,9,10.5,9c0.964,0,1.611,0.713,2.344,1.863c0.594,0.989,0.981,1.573,0.988,1.583c0.306,0.459,0.182,1.08-0.278,1.386c-0.46,0.306-1.081,0.181-1.386-0.277c0,0-0.41-0.615-1.025-1.64c-0.358-0.563-0.57-0.792-0.67-0.881c-0.077,0.078-0.309,0.321-0.721,0.991c-0.562,0.914-4.997,10.6-7.84,16.888C1.744,29.281,1.38,29.5,1,29.5z"/></svg>