<?xml version="1.0" encoding="utf-8"?><!-- Generator: Adobe Illustrator 15.0.0, SVG Export Plug-In . SVG Version: 6.00 Build 0)  --><!DOCTYPE svg PUBLIC "-//W3C//DTD SVG 1.1//EN" "http://www.w3.org/Graphics/SVG/1.1/DTD/svg11.dtd"><svg xmlns="http://www.w3.org/2000/svg" xmlns:xlink="http://www.w3.org/1999/xlink" viewBox="0 0 50 50" width="50px" height="50px"><g><path d="M25.704,10.046c0.163-3.357,0.291-5.925,0.294-5.996c0.028-0.545-0.388-1.011-0.932-1.047l-15-1C9.792,1.977,9.514,2.083,9.311,2.275S8.996,2.736,9,3.016c0.027,1.738,0.044,3.712,0.046,5.771C13.333,9.143,20.086,9.65,25.704,10.046z"/><path d="M16.63,41.428c0-6.366-0.525-10.657-7.53-12.274L7.733,29.03C6.813,31.118,6,33.518,6,37c0,3.373,3.408,4.272,8.222,5.176c0.827,0.155,1.623,0.314,2.401,0.475C16.632,42.202,16.634,41.77,16.63,41.428z"/><path d="M33.016,46.141c0-7.196,5.023-11.27,5.237-11.439c0.067-0.051,0.261-0.194,0.528-0.377c-1.441-0.521-3.496-1.102-5.66-1.713c-1.917-0.541-3.898-1.102-5.539-1.645C25.199,30.177,25,28.08,25,26c0-1.095,0.328-8.139,0.608-13.958c-4.642-0.329-11.84-0.855-16.565-1.249C9.018,17.3,8.836,24.18,8.37,27.079l0.976,0.088c0.044,0.004,0.089,0.011,0.132,0.021c8.463,1.924,9.151,7.582,9.151,14.228c0.002,0.143,0.008,0.843-0.017,1.66c5.873,1.305,10.161,2.671,12.687,3.477l0.928,0.295c0.264,0.083,0.519,0.144,0.779,0.218C33.01,46.533,33.016,46.141,33.016,46.141z"/><path d="M40.933,35.344c-0.556,0.309-1.086,0.659-1.452,0.937c-0.026,0.021-4.465,3.656-4.465,9.876c0,0.013-0.01,0.65-0.011,1.396c1.4,0.284,2.742,0.445,3.995,0.445c2.921,0,6.996-1.521,6.996-3.997C45.996,40.054,43.647,37.008,40.933,35.344z"/></g></svg>