<?xml version="1.0" encoding="iso-8859-1"?>
<!-- Generator: Adobe Illustrator 24.0.2, SVG Export Plug-In . SVG Version: 6.00 Build 0)  -->
<svg version="1.1" id="&#x421;&#x43B;&#x43E;&#x439;_1"
	 xmlns="http://www.w3.org/2000/svg" xmlns:xlink="http://www.w3.org/1999/xlink" x="0px" y="0px" viewBox="0 0 50 50"
	 style="enable-background:new 0 0 50 50;" xml:space="preserve">
<path d="M5.6,23.8c-0.13-0.47-0.73-0.9-1.23-0.69c-0.29,0.12-0.58,0.25-0.86,0.38c0.34,0.57,0.7,1.13,1.09,1.67
	c0.1-0.05,0.2-0.09,0.3-0.13C5.4,24.83,5.75,24.37,5.6,23.8z"/>
<path d="M23.8,25.32c-0.4-0.02-0.81-0.04-1.21-0.06c0.12-0.66,0.26-1.33,0.43-1.98c0.26,0.02,0.52,0.03,0.78,0.04
	C25.08,23.37,25.08,25.37,23.8,25.32z"/>
<path d="M8.22,23.045c-1.36-1.96-2.65-4.01-3.63-6.18c-0.05-0.11-0.1-0.22-0.16-0.34c-0.348-0.768-0.761-1.722-0.794-2.588
	c-0.046-0.002-0.001,0.001-0.046-0.002c-0.203,0.538-0.535,1.056-0.82,1.56c-0.38,0.63-0.86,1.2-1.19,1.87
	c-0.35,0.72-0.48,1.48-0.26,2.26c0.22,0.75,0.69,1.46,1.07,2.14c0.36,0.64,0.73,1.28,1.12,1.91c0.34,0.57,0.7,1.13,1.09,1.67
	c-0.73,0.33-1.5,0.684-2.11,1.214c-0.06,0.05-0.22,0.286-0.34,0.426c0.256,0.198,0.607,0.206,0.97,0.26
	c0.381,0.057,0.76,0.1,1.15,0.13c0.22,0.03,0.45,0.04,0.68,0.07c0.45,0.04,0.9,0.08,1.35,0.12c0.17,0.02,0.34,0.03,0.52,0.05
	c0.85,0.08,1.7,0.17,2.55,0.26c0.97,0.09,1.95,0.19,2.92,0.29C10.81,26.555,9.47,24.835,8.22,23.045z"/>
<path d="M13.65,22.5c-1.13-0.09-2.26-0.16-3.4-0.2c-1-1.39-1.92-2.84-2.75-4.32c-0.51-0.92-1.03-1.86-1.41-2.85
	C6,14.92,5.92,14.69,5.85,14.47c-0.02-0.09-0.05-0.31-0.1-0.49c0.11,0.04,0.24,0.09,0.3,0.13c1.72,1.07,3.14,2.6,4.43,4.13
	C11.62,19.59,12.66,21.03,13.65,22.5z"/>
<path d="M38.067,15.517c-1.659-0.499-3.291-1.062-4.917-1.647c-1.3-0.46-2.73-1.11-4.13-0.72c-0.91,0.25-1.56,0.94-2.12,1.66
	c-0.6,0.77-1.14,1.59-1.61,2.45c-0.93,1.7-1.62,3.54-2.12,5.42c-0.05,0.2-0.11,0.4-0.15,0.6c-0.17,0.65-0.31,1.32-0.43,1.98
	c-3.6-0.2-7.18-0.68-10.78-0.89c1.11,1.38,2.3,2.7,3.56,3.92c1.34,0.14,2.67,0.27,4.01,0.41c0.89,0.09,1.77,0.19,2.66,0.29
	c0.66,0.08,1.32,0.16,1.98,0.23c2.21,0.26,4.42,0.49,6.63,0.62c0.08-4.39,0.93-8.96,4-12.3c0.24-0.26,0.52-0.52,0.81-0.74
	c0.784-0.633,1.701-1.196,2.616-1.217C38.067,15.517,38.076,15.583,38.067,15.517z"/>
<path d="M35.63,23.12c-0.66,0.02-1.32,0.04-1.98,0.07c0.39-1.18,0.94-2.3,1.69-3.34c0.56-0.79,2.35-3.09,3.39-1.83
	c0.49,0.59,0.69,1.44,0.87,2.16c0.23,0.92,0.36,1.85,0.4,2.79C38.54,23.03,37.09,23.07,35.63,23.12z"/>
<path d="M47.33,27.05c-1.14,0.86-2.6,1.32-3.96,1.69c-1.19,0.33-2.39,0.58-3.61,0.77c-2.37,0.38-4.74,0.48-7.11,0.41
	c0.01-1.58,0.14-3.17,0.46-4.72c2.7-0.08,5.38-0.17,8.07-0.28c0.77-0.03,1.53-0.09,2.3-0.09c1.12,0,2.27,0.06,3.35,0.39
	c0.26,0.08,0.41,0.14,0.65,0.27c0.02,0.02,0.16,0.11,0.18,0.11c0.04,0.04,0.11,0.11,0.14,0.15c0.01,0.01,0.02,0.02,0.02,0.02
	C48.19,26.31,47.87,26.65,47.33,27.05z"/>
<path d="M48.978,28.582l0,3.126c0,1.236-0.741,2.34-1.87,2.842c-2.318,1.032-5.052,1.657-7.478,1.999
	c-1.15,0.16-2.72,0.38-4.83,0.44C34.43,37,34.08,37,33.75,37c-2.03,0-3.53-0.16-4.23-0.23C9.81,34.69,4.74,34.24,4.69,34.24
	c-0.358-0.031-0.877-0.087-1.425-0.156C1.96,33.92,0.978,32.815,0.978,31.5v-2.811c0.58,0.15,2.212,0.391,2.672,0.441
	c0.65,0.08,1.32,0.13,1.98,0.19c3.58,0.34,7.17,0.7,10.75,1.07c3.95,0.41,7.9,0.82,11.84,1.24c1.71,0.18,3.42,0.35,5.14,0.37
	c2.05,0.02,4.08-0.16,6.1-0.44c2.66-0.36,6.398-1.131,8.808-2.578C48.49,28.849,48.748,28.732,48.978,28.582z"/>
<path d="M2.49,26.559c-0.06,0.05-0.186,0.107-0.34,0.426c0.256,0.198,0.607,0.206,0.97,0.26L2.49,26.559z"/>
</svg>