<?xml version="1.0" encoding="iso-8859-1"?>
<!-- Generator: Adobe Illustrator 22.1.0, SVG Export Plug-In . SVG Version: 6.00 Build 0)  -->
<svg version="1.1" id="Layer_1" xmlns="http://www.w3.org/2000/svg" xmlns:xlink="http://www.w3.org/1999/xlink" x="0px" y="0px"
	 viewBox="0 0 50 50" style="enable-background:new 0 0 50 50;" xml:space="preserve">
<line style="fill:none;stroke:#000000;stroke-width:2;stroke-linecap:round;stroke-miterlimit:10;" x1="2" y1="7" x2="48" y2="42"/>
<line style="fill:none;stroke:#000000;stroke-width:2;stroke-linecap:round;stroke-miterlimit:10;" x1="48" y1="7" x2="2" y2="42"/>
<path d="M10.19,17l7.01,5.33l-4.89,9.05C9.7,33.05,6.55,33.99,3.21,34H2V17H10.19z"/>
<path d="M47,17c-4.134,0-7.383,1.391-9.463,2.637l-4.761,10.779l4.357,3.315C38.037,33.893,38.994,34,40,34h8V17H47z"/>
<path d="M22.526,26.382L18.81,23.55l-4.08,7.56c0.246,0.201,0.512,0.401,0.797,0.598L22.526,26.382z"/>
<path d="M33.02,18.398C31.255,17.473,29.588,17,28,17c-2.72,0-4.88,0.69-6.45,1.47l-1.3,2.41l4.751,3.619L33.02,18.398z"/>
<path d="M25,28.27l4.89,3.72l-0.12,0.27C27.37,33.41,25.1,34,23,34c-1.73,0-3.22-0.31-4.52-0.77L25,28.27z"/>
<polygon points="34.85,20.78 31.14,29.17 27.48,26.39 "/>
</svg>