<?xml version="1.0" encoding="iso-8859-1"?><!-- Generator: Adobe Illustrator 21.0.2, SVG Export Plug-In . SVG Version: 6.00 Build 0)  --><svg xmlns="http://www.w3.org/2000/svg" xmlns:xlink="http://www.w3.org/1999/xlink" viewBox="0 0 50 50" width="500px" height="500px"><g><g><path d="M47.999,40c-0.155,0-0.313-0.036-0.462-0.113l-46-24c-0.489-0.256-0.679-0.859-0.424-1.35c0.255-0.489,0.857-0.68,1.35-0.424l46,24c0.489,0.256,0.679,0.859,0.424,1.35C48.708,39.805,48.359,40,47.999,40z"/></g><g><path d="M2.001,40c-0.36,0-0.709-0.195-0.888-0.537c-0.255-0.49-0.065-1.094,0.424-1.35l46-24c0.492-0.256,1.095-0.065,1.35,0.424c0.255,0.49,0.065,1.094-0.424,1.35l-46,24C2.314,39.964,2.156,40,2.001,40z"/></g></g><g><path d="M25,30.13L7.09,39.474l0.922,5.686C8.091,45.645,8.509,46,9,46h32c0.49,0,0.908-0.355,0.987-0.84l0.922-5.686L25,30.13z"/><path d="M22.838,27l-1.919,1.001L3.778,19.058l3.013,18.57L25,28.128l18.209,9.5l3.013-18.57l-17.141,8.943L27.162,27l19.412-10.128l1.413-8.712c0.088-0.545-0.282-1.059-0.827-1.147c-0.555-0.092-1.059,0.282-1.147,0.827l-1.481,9.135c-5.688-0.268-8.535-5.24-8.656-5.456c-0.352-0.641-1.4-0.641-1.752,0C34.094,11.573,31.039,17,25,17c-6.007,0-9-5.26-9.124-5.481c-0.352-0.641-1.401-0.641-1.753,0c-0.029,0.053-2.932,5.181-8.655,5.455L3.987,7.84C3.898,7.295,3.392,6.921,2.84,7.013C2.295,7.102,1.925,7.615,2.013,8.16l1.413,8.712L22.838,27z"/></g></svg>