<?xml version="1.0" encoding="iso-8859-1"?><!-- Generator: Adobe Illustrator 21.1.0, SVG Export Plug-In . SVG Version: 6.00 Build 0)  --><svg xmlns="http://www.w3.org/2000/svg" xmlns:xlink="http://www.w3.org/1999/xlink" viewBox="0 0 50 50" width="500px" height="500px"><path style="fill:none;stroke:#000000;stroke-width:2;stroke-linecap:round;stroke-linejoin:round;stroke-miterlimit:10;" d="M43.764,4.797c0,0,3.233,2.645,3.233,7.203c0,5.135-3.262,10.297-8.831,15.086s-6.273,1.664-11.548,6.938c-3.721,3.721-1.155,3.558-5.439,7.843C18.673,44.17,17.239,45,15,45c-0.896,0-4.856-0.541-6-6"/><path d="M42,3c-0.866,0-1.641,0.586-2.923,1.557c-1.122,0.849-2.683,2.019-4.879,3.181c0.016,0.034,0.042,0.059,0.054,0.095l1,3c0.175,0.524-0.108,1.09-0.632,1.265c-0.105,0.035-0.212,0.052-0.316,0.052c-0.419,0-0.809-0.265-0.948-0.684l-0.95-2.849c-0.587,0.263-1.226,0.517-1.891,0.766l0.996,2.988c0.175,0.524-0.108,1.09-0.632,1.265c-0.105,0.035-0.212,0.052-0.316,0.052c-0.419,0-0.809-0.265-0.948-0.684l-0.993-2.978c-0.612,0.19-1.255,0.369-1.927,0.539c0.004,0.01,0.011,0.016,0.015,0.026l1,3c0.175,0.524-0.108,1.09-0.632,1.265c-0.105,0.035-0.212,0.052-0.316,0.052c-0.419,0-0.809-0.265-0.948-0.684l-1-3c-0.025-0.075-0.021-0.151-0.028-0.227c-0.596,0.121-1.215,0.231-1.855,0.333l0.959,2.878c0.175,0.524-0.108,1.09-0.632,1.265c-0.105,0.035-0.212,0.052-0.316,0.052c-0.419,0-0.809-0.265-0.948-0.684l-1-3c-0.026-0.079-0.023-0.159-0.029-0.238c-0.641,0.076-1.293,0.145-1.976,0.2l0.961,2.883c0.175,0.524-0.108,1.09-0.632,1.265C19.211,15.984,19.104,16,19,16c-0.419,0-0.809-0.265-0.948-0.684l-1-3c-0.043-0.129-0.057-0.261-0.048-0.389C16.039,11.972,15.044,12,14,12c-2.131,0-4,1.585-4,3.392c0,2.556,2.397,3.264,3.966,3.498c-0.375,4.736-3.808,5.47-7.133,6.182C4.457,25.579,2,26.105,2,28.561c0,2.323,1.171,3.677,2.304,4.986c0.169,0.195,0.34,0.393,0.509,0.596c1.16,1.396,3.288,5.296,3.31,5.335c0.119,0.219,0.316,0.386,0.553,0.467c0.473,0.163,1.1,0.282,1.802,0.282c1.874,0,4.287-0.843,5.751-3.939c1.041-2.203,2.754-2.652,4.738-3.172c1.324-0.347,2.694-0.707,3.865-1.63c2.539-2.001,5.861-4.504,7.729-5.821c1.284-0.906,1.682-2.327,2.033-3.582c0.228-0.812,0.441-1.578,0.839-1.927c0.334-0.294,0.844-0.367,1.647-0.461c1.208-0.142,2.711-0.319,4.104-1.739C43.51,15.584,46,11.346,46,8.816C46,5.337,44.393,3,42,3z"/></svg>