<svg xmlns="http://www.w3.org/2000/svg"  viewBox="0 0 50 50" width="50px" height="50px"><path d="M 20.746094 1.695313 L 15.863281 3.324219 L 16.894531 9.113281 C 16.570313 9.285156 16.390625 9.335938 15.882813 9.734375 C 15.023438 10.410156 14 11.460938 14 12.96875 C 14 14.65625 14.898438 16.015625 15.644531 17.242188 C 16.394531 18.46875 17 19.558594 17 20.5 C 17 21.183594 16.832031 21.636719 16.511719 22.1875 C 16.1875 22.742188 15.691406 23.363281 15.160156 24.183594 C 14.09375 25.828125 13 28.261719 13 32.597656 C 13 38.226563 15.03125 46.242188 15.03125 46.242188 L 15.171875 46.8125 L 15.738281 46.964844 C 15.738281 46.964844 19.496094 47.980469 25 47.980469 C 30.503906 47.980469 34.261719 46.964844 34.261719 46.964844 L 34.828125 46.8125 L 34.96875 46.242188 C 34.96875 46.242188 37 38.226563 37 32.597656 C 37 28.261719 35.90625 25.828125 34.839844 24.183594 C 34.308594 23.363281 33.8125 22.742188 33.488281 22.1875 C 33.167969 21.636719 33 21.183594 33 20.5 C 33 19.558594 33.605469 18.46875 34.355469 17.242188 C 35.101563 16.015625 36 14.65625 36 12.96875 C 36 11.460938 34.976563 10.410156 34.117188 9.734375 C 33.609375 9.335938 33.429688 9.285156 33.105469 9.113281 L 34.136719 3.324219 L 29.253906 1.695313 L 29.019531 2.789063 C 28.351563 5.933594 25.644531 7.460938 25 7.804688 C 24.355469 7.460938 21.648438 5.933594 20.980469 2.789063 Z M 19.457031 4.234375 C 20.867188 8.09375 24.578125 9.90625 24.578125 9.90625 L 25 10.101563 L 25.421875 9.90625 C 25.421875 9.90625 29.132813 8.09375 30.542969 4.234375 L 31.863281 4.675781 L 30.878906 10.195313 L 31.59375 10.515625 C 31.59375 10.515625 32.242188 10.808594 32.882813 11.308594 C 33.523438 11.808594 34 12.445313 34 12.96875 C 34 13.886719 33.398438 14.96875 32.644531 16.199219 C 31.894531 17.429688 31 18.800781 31 20.5 C 31 21.566406 31.332031 22.453125 31.761719 23.191406 C 32.1875 23.933594 32.691406 24.550781 33.160156 25.269531 C 34.09375 26.714844 35 28.578125 35 32.597656 C 35 37.398438 33.382813 44.214844 33.15625 45.152344 C 32.441406 45.328125 29.621094 45.980469 25 45.980469 C 20.378906 45.980469 17.558594 45.328125 16.84375 45.152344 C 16.617188 44.214844 15 37.398438 15 32.597656 C 15 28.578125 15.90625 26.714844 16.839844 25.269531 C 17.308594 24.550781 17.8125 23.933594 18.238281 23.191406 C 18.667969 22.453125 19 21.566406 19 20.5 C 19 18.800781 18.105469 17.429688 17.355469 16.199219 C 16.601563 14.96875 16 13.886719 16 12.96875 C 16 12.445313 16.476563 11.808594 17.117188 11.308594 C 17.757813 10.808594 18.40625 10.515625 18.40625 10.515625 L 19.121094 10.195313 L 18.136719 4.675781 Z"/></svg>