<?xml version="1.0" encoding="utf-8"?><!-- Generator: Adobe Illustrator 15.0.0, SVG Export Plug-In . SVG Version: 6.00 Build 0)  --><!DOCTYPE svg PUBLIC "-//W3C//DTD SVG 1.1//EN" "http://www.w3.org/Graphics/SVG/1.1/DTD/svg11.dtd"><svg xmlns="http://www.w3.org/2000/svg" xmlns:xlink="http://www.w3.org/1999/xlink" viewBox="0 0 50 50" width="500px" height="500px"><path d="M49.974,39.769c-0.059-0.317-1.446-7.807-2.288-11.325c-0.719-3.006-2.725-4.543-3.721-5.14C43.706,20.073,41.601,5,24.907,5c-5.788,0-10.388,1.711-13.672,5.087c-4.631,4.76-5.176,11.307-5.231,13.284c-1.6,1.059-3.198,2.522-3.754,5.095c-0.726,3.36-1.686,8.101-2.202,11.327c-0.202,1.262,0.251,2.652,1.244,3.816C2.568,45.106,4.49,46,6.433,46c0.09,0,0.171-0.029,0.254-0.052C6.965,45.98,7.247,46,7.532,46c2.907,0,5.104-0.32,7.431-0.66c2.721-0.396,5.534-0.807,9.951-0.807c4.479,0,7.503,0.438,10.171,0.823c2.29,0.331,4.454,0.644,7.16,0.644c0.322,0,0.63-0.012,0.926-0.032C43.225,45.977,43.273,46,43.33,46c2.319,0,4.089-0.655,5.258-1.946C50.205,42.269,49.995,39.949,49.974,39.769z M38.541,24.506c0.466,0.593,0.697,1.321,1.219,1.836c0.829,0.817,4.996,3.459,0.947,3.264c-1.039-0.051-1.984-0.881-2.979-1.125c-1.871-0.457-4.758,0.336-2.816-2.449C35.557,25.105,37.495,23.18,38.541,24.506z M32.002,14.917c0.962-0.415,1.549-2.02,2.698-1.722c1.36,0.357,0.383,1.625,0.057,2.641c-0.225,0.695-0.22,0.917-0.077,1.812c0.078,0.487,0.67,0.751,0.661,1.243c-0.024,1.557-0.961,1.043-1.743,0.353c-0.64-0.562-0.834-1.281-1.48-1.801c-1.02-0.816-2.213,0.112-2.986-0.861C28.258,15.483,31.51,15.129,32.002,14.917z M27.256,21.713c0.893,0.736-1.057,2.844-1.107,3.823c-0.056,1.047,1.084,2.364,0.336,3.338c-0.643,0.836-1.863-0.249-2.445-0.819c-0.733-0.72-1.164-1.674-2.204-2.007c-0.697-0.225-1.767,0.243-2.022-0.75c-0.149-0.582,0.495-1.173,0.944-1.396c1.139-0.566,2.376,0.066,3.477-0.621C25.135,22.719,25.87,20.574,27.256,21.713z M15.955,15.925c0.625-1.39,1.925-2.257,2.504-3.692c0.189-0.467-1.04-3.578,0.351-3.578c2.311,0,2.831,3.968,3.993,5.165c0.668,0.69,2.132,1.167,1.048,2.304c-0.864,0.905-2.721-0.038-3.83,0.156c-1.229,0.214-1.653,1.497-2.786,1.726C15.755,18.304,15.458,17.029,15.955,15.925z M9.12,24.958c0.232-1.909,1.656-2.032,3.219-1.967c0.833,0.033,3.579,0,2.472,1.464c-0.555,0.733-2.031,0.647-2.792,1.398c-0.026,0.025-0.053,0.053-0.077,0.08c-0.943,1.078-0.141,2.437-0.802,3.406C9.824,31.264,9.02,25.777,9.12,24.958z M45.731,42.982C45.238,43.639,44,44,42.245,44c-2.563,0-4.561-0.289-6.874-0.623c-2.734-0.396-5.834-0.844-10.457-0.844c-4.562,0-7.578,0.439-10.239,0.828C12.422,43.689,10.293,44,7.532,44c-1.655,0-2.866-0.696-3.333-1.386c-0.197-0.291-0.25-0.556-0.156-0.788c0.753-1.878,2.35-3.564,3.759-5.053c0.246-0.26,0.484-0.511,0.71-0.756l0.247-0.273C9.909,34.458,11.211,33,24.922,33c13.763,0,14.785,1.246,15.867,2.565c0.118,0.144,0.238,0.289,0.368,0.437c1.646,1.86,4.204,5.102,4.825,5.891C46.017,42.124,46.032,42.583,45.731,42.982z"/></svg>