<?xml version="1.0" encoding="utf-8"?><!-- Generator: Adobe Illustrator 15.0.0, SVG Export Plug-In . SVG Version: 6.00 Build 0)  --><!DOCTYPE svg PUBLIC "-//W3C//DTD SVG 1.1//EN" "http://www.w3.org/Graphics/SVG/1.1/DTD/svg11.dtd"><svg xmlns="http://www.w3.org/2000/svg" xmlns:xlink="http://www.w3.org/1999/xlink" viewBox="0 0 50 50" width="500px" height="500px"><path fill="none" stroke="#000000" stroke-width="2" stroke-miterlimit="10" d="M8,5c0,0,2.1-4,6-4s6,4,6,4"/><path d="M46.099,31.958c-4.609-3.955-11.3-3.062-12.051-2.946c-1.424,0.214-3.16-0.411-4.646-1.686C27.24,25.471,26,22.691,26,19.7V4H1.861l-0.06,0.937c-0.104,1.63-0.274,3.784-0.47,6.257C0.77,18.289,0,28.006,0,35.6c0,1.202,0.37,5.684,0.401,6.054l-0.399,7.292c-0.015,0.274,0.083,0.543,0.272,0.742S0.725,50,1,50h3.7c0.552,0,1-0.447,1-1v-0.186l0.893,0.893C6.78,49.895,7.035,50,7.3,50h2.5c0.552,0,1-0.447,1-1v-0.078l0.938,0.828C11.921,49.911,12.156,50,12.4,50H14c0.552,0,1-0.447,1-1v-1.388C16.882,48.579,20.238,50,23.7,50c0.171,0,0.339-0.044,0.488-0.127l2.424-1.355l0.366,0.871C27.135,49.759,27.498,50,27.9,50H30.3c0.2,0,0.396-0.06,0.561-0.172l2.098-1.421l0.423,0.986C33.538,49.762,33.899,50,34.3,50c1.003,0,1.555,0,2.511-0.105c0.178-0.02,0.347-0.087,0.49-0.194l1.61-1.208l0.122,0.463c0.126,0.479,0.577,0.791,1.078,0.739c0.926-0.104,1.764-0.207,2.632-0.425c0.148-0.037,0.286-0.107,0.403-0.206l1.212-1.026c0.069,0.195,0.199,0.365,0.372,0.485c0.234,0.163,0.528,0.219,0.803,0.15c2.582-0.62,3.86-1.252,3.914-1.278C49.786,47.226,50,46.879,50,46.5v-4.9C50,37.423,48.688,34.179,46.099,31.958z M3.354,11H24v4H3.04c0.098-1.27,0.195-2.496,0.286-3.648C3.335,11.231,3.344,11.119,3.354,11z M34.2,43.5c-9.445,0-27.731-1.401-31.864-1.729c-0.071-0.884-0.188-3.386-0.263-4.588C5.435,37.691,15.238,39,27,39c0.553,0,1-0.447,1-1c0-4.692-3.125-6.257-5.635-7.514C20.216,29.411,19,28.719,19,27c0-1.044,0.32-1.86,0.979-2.494c1.286-1.237,3.494-1.462,4.478-1.5c0.622,2.273,1.866,4.313,3.642,5.838c1.951,1.674,4.23,2.457,6.253,2.145c2.376-0.365,7.25-0.253,10.444,2.487c1.985,1.704,3.044,5.211,3.177,8.44C46.53,42.397,42.341,43.5,34.2,43.5z"/></svg>