<?xml version="1.0" encoding="iso-8859-1"?><!-- Generator: Adobe Illustrator 21.1.0, SVG Export Plug-In . SVG Version: 6.00 Build 0)  --><svg xmlns="http://www.w3.org/2000/svg" xmlns:xlink="http://www.w3.org/1999/xlink" viewBox="0 0 50 50" width="500px" height="500px"><path d="M38,25c0-4.303,2.098-8.494,5.611-11.208c0.311-0.24,0.452-0.64,0.362-1.022l-0.947-4C42.919,8.318,42.516,8,42.053,8c-5.188,0-10.737-2.318-13.494-5.637c-0.189-0.229-0.472-0.361-0.769-0.361L22.211,2c0,0,0,0,0,0c-0.297,0-0.58,0.132-0.77,0.361C18.685,5.681,13.136,8,7.947,8C7.483,8,7.081,8.319,6.974,8.77l-0.946,4c-0.09,0.38,0.05,0.778,0.358,1.019C9.902,16.527,12,20.718,12,25c0,4.283-2.099,8.474-5.614,11.212c-0.43,0.335-0.513,0.953-0.186,1.389l3,3.999C9.389,41.852,9.685,42,10,42c1.813,0,9.554,0.969,14.293,5.707C24.488,47.902,24.744,48,25,48s0.512-0.098,0.707-0.293C30.446,42.969,38.187,42,40,42c0.324,0,0.627-0.157,0.815-0.42l2.844-4.001c0.308-0.433,0.224-1.031-0.192-1.362C40.044,33.489,38,29.296,38,25z"/></svg>