<?xml version="1.0" encoding="iso-8859-1"?>
<!-- Generator: Adobe Illustrator 24.0.2, SVG Export Plug-In . SVG Version: 6.00 Build 0)  -->
<svg version="1.1" id="&#x421;&#x43B;&#x43E;&#x439;_1"
	 xmlns="http://www.w3.org/2000/svg" xmlns:xlink="http://www.w3.org/1999/xlink" x="0px" y="0px" viewBox="0 0 50 50"
	 style="enable-background:new 0 0 50 50;" xml:space="preserve">
<g>
	<path d="M25,18c-4.08,0-8.1,0.57-12,1.71c-0.67,0.18-1.34,0.4-2,0.63V22c0,0.26,0.1,0.51,0.28,0.7c0.17,0.17,4.27,4.3,13.66,4.3
		c9.37,0,13.59-4.12,13.77-4.29C38.89,22.52,39,22.27,39,22v-1.66c-0.66-0.23-1.33-0.45-2-0.63C33.1,18.57,29.08,18,25,18z"/>
	<path d="M9.31,18.82c0.88-0.33,1.77-0.63,2.67-0.9C16.2,16.64,20.56,16,25,16s8.8,0.64,13.02,1.92c0.9,0.27,1.79,0.57,2.67,0.9
		C42.61,17.7,45,15.77,45,13.1c0-0.51-0.39-0.94-0.9-0.99c-4.49-0.44-7.53-3.06-10.48-5.59C30.93,4.19,28.38,2,25.06,2
		c-3.42,0-6.1,2.16-8.93,4.45c-2.79,2.25-5.95,4.8-10.33,5.67C5.34,12.22,5,12.63,5,13.1C5,15.77,7.39,17.7,9.31,18.82z M27,12
		c0,1-2,2-2,2s-2-1-2-2s0-3,0-3h4C27,9,27,11,27,12z"/>
	<path d="M17.63,35.59l0.64,3.74l4.16-2.14l2.11-1.08c0.04-0.02,0.08-0.03,0.12-0.05c0.04-0.01,0.08-0.03,0.12-0.05
		c0.08-0.02,0.15-0.05,0.22-0.06l-7.75-2.58L17.63,35.59z"/>
	<path d="M32.21,39.38l0.85-4.02l0.47-2.25L25,35.95c0.08,0.02,0.15,0.05,0.23,0.07c0.07,0.03,0.14,0.05,0.21,0.08l2.21,1.07
		L32.21,39.38z"/>
	<path d="M16.77,42.35l-1.25-7.22l-0.34-1.97c-2.88,0.68-5.6,1.99-7.91,3.81c-2.1,1.67-3.83,3.71-5.14,6.07L2,43.27V49h19
		c0.33-0.67,0.67-1.33,1-2c0.67-1.33,1.33-2.67,2-4c-0.67-1.11-1.33-2.22-2-3.33L16.77,42.35z"/>
	<path d="M47.87,43.04c-1.31-2.36-3.04-4.4-5.14-6.07c-2.12-1.67-4.58-2.91-7.2-3.63l-0.42,1.95l-1.48,7.01l-5.59-2.71
		C27.36,40.73,26.68,41.86,26,43c0.67,1.33,1.33,2.67,2,4c0.33,0.67,0.67,1.33,1,2h19v-5.73L47.87,43.04z"/>
</g>
</svg>