<?xml version="1.0" encoding="iso-8859-1"?><!-- Generator: Adobe Illustrator 21.0.2, SVG Export Plug-In . SVG Version: 6.00 Build 0)  --><svg xmlns="http://www.w3.org/2000/svg" xmlns:xlink="http://www.w3.org/1999/xlink" viewBox="0 0 50 50" width="500px" height="500px"><path d="M46.142,17.352C45.951,17.129,45.673,17,45.38,17H45c-6.007,0-9-5.26-9.124-5.481c-0.352-0.641-1.4-0.641-1.752,0C34.094,11.573,31.039,17,25,17c-6.007,0-9-5.26-9.124-5.481c-0.352-0.641-1.401-0.641-1.753,0C14.094,11.573,11.039,17,5,17H4.62c-0.293,0-0.572,0.129-0.762,0.352c-0.19,0.224-0.272,0.52-0.226,0.809l4.38,27C8.091,45.645,8.509,46,9,46h32c0.49,0,0.908-0.355,0.987-0.84l4.38-27C46.414,17.871,46.331,17.575,46.142,17.352z"/><polyline style="fill:none;stroke:#000000;stroke-width:2;stroke-linecap:round;stroke-linejoin:round;stroke-miterlimit:10;" points="47,8 41,45 9,45 3,8 "/></svg>