<?xml version="1.0" encoding="utf-8"?><!-- Generator: Adobe Illustrator 18.1.1, SVG Export Plug-In . SVG Version: 6.00 Build 0)  --><svg xmlns="http://www.w3.org/2000/svg" xmlns:xlink="http://www.w3.org/1999/xlink" viewBox="0 0 50 50" width="50px" height="50px"><path fill="none" stroke="#000000" stroke-width="2" stroke-linecap="round" stroke-linejoin="round" stroke-miterlimit="10" d="M19,2c0,0,2.1-1,6-1s6,1,6,1"/><g><path d="M46.9,17.7c-0.9-2.1-1.7-4.1-1.9-4.9c-1.3-5.2-6.5-7.9-6.7-8c0,0-0.1,0-0.1,0c0,0-0.1,0-0.1,0l-3.6-1.1L32,14.2c-0.1,0.3-0.3,0.5-0.6,0.7C31.3,15,31.1,15,31,15c-0.2,0-0.3,0-0.4-0.1L25,12.1l-5.6,2.8c-0.3,0.1-0.6,0.1-0.9,0c-0.3-0.1-0.5-0.4-0.6-0.7L15.3,3.7l-3.5,1.1c0,0-0.1,0-0.1,0c0,0-0.1,0-0.1,0c-0.2,0.1-5.4,2.9-6.7,8c-0.2,0.8-1,2.7-1.9,4.8C1.2,22.2,0,25.3,0,26.6V42c0,0.6,0.4,1,1,1h7c0.6,0,1-0.4,1-1l0-12c0.1-0.5,0.9-2.6,2.1-5v24c0,0.6,0.4,1,1,1h25.8c0.6,0,1-0.4,1-1V25c1.1,2.4,2,4.5,2.1,5v12c0,0.6,0.4,1,1,1h7c0.6,0,1-0.4,1-1V26.6C50,25.3,48.8,22.2,46.9,17.7z M21,41c-1.1,0-2-0.9-2-2s0.9-2,2-2c1.1,0,2,0.9,2,2S22.1,41,21,41z M21,33c-1.1,0-2-0.9-2-2s0.9-2,2-2c1.1,0,2,0.9,2,2S22.1,33,21,33z M21,25c-1.1,0-2-0.9-2-2s0.9-2,2-2c1.1,0,2,0.9,2,2S22.1,25,21,25z M30,41c-1.1,0-2-0.9-2-2s0.9-2,2-2c1.1,0,2,0.9,2,2S31.1,41,30,41z M30,33c-1.1,0-2-0.9-2-2s0.9-2,2-2c1.1,0,2,0.9,2,2S31.1,33,30,33z M30,25c-1.1,0-2-0.9-2-2s0.9-2,2-2c1.1,0,2,0.9,2,2S31.1,25,30,25z"/><path d="M19.7,12.6l4.9-2.4c0.3-0.1,0.6-0.1,0.9,0l4.9,2.4l2.5-10.2l-1.2-1.1C31.5,1.1,31.2,1,30.9,1c-0.3,0-0.6,0.2-0.7,0.4L25,9.2l-5.2-7.8C19.7,1.2,19.4,1,19.1,1c-0.3,0-0.6,0.1-0.8,0.3l-1.2,1.2L19.7,12.6z"/></g></svg>