<?xml version="1.0" encoding="iso-8859-1"?><!-- Generator: Adobe Illustrator 21.1.0, SVG Export Plug-In . SVG Version: 6.00 Build 0)  --><svg xmlns="http://www.w3.org/2000/svg" xmlns:xlink="http://www.w3.org/1999/xlink" viewBox="0 0 50 50" width="500px" height="500px"><path d="M25,48c-2.757,0-5-2.243-5-5s2.243-5,5-5s5,2.243,5,5S27.757,48,25,48z"/><path d="M25,2C13.421,2,4,11.42,4,23c0,8.891,5.626,16.818,14.011,19.781c0.069-2.205,1.166-4.144,2.822-5.38C14.578,35.594,10,29.837,10,23c0-8.284,6.716-15,15-15s15,6.716,15,15c0,6.837-4.578,12.594-10.833,14.401c1.656,1.236,2.753,3.175,2.822,5.38C40.374,39.818,46,31.891,46,23C46,11.42,36.579,2,25,2z"/></svg>