<?xml version="1.0" encoding="iso-8859-1"?>
<!-- Generator: Adobe Illustrator 24.0.0, SVG Export Plug-In . SVG Version: 6.00 Build 0)  -->
<svg version="1.1" id="Layer_1" xmlns="http://www.w3.org/2000/svg" xmlns:xlink="http://www.w3.org/1999/xlink" x="0px" y="0px"
	 viewBox="0 0 50 50" style="enable-background:new 0 0 50 50;" xml:space="preserve">
<path style="fill:none;stroke:#000000;stroke-width:2;stroke-linecap:round;stroke-linejoin:round;stroke-miterlimit:10;" d="M4,9h2
	c0.552,0,1-0.448,1-1l0,0c0-2.209,1.791-4,4-4l0,0c2.209,0,4,1.791,4,4v8"/>
<circle cx="15" cy="18" r="3"/>
<polygon points="18.414,37 16,39.414 16,45.414 24.414,37 "/>
<polygon points="14,45.414 14,39.414 11.586,37 5.586,37 "/>
<polygon points="15,37.586 16.929,35.657 15,24.083 13.071,35.657 "/>
<path d="M15.986,17.835L18.847,35h5.771l-8.724-17.447c-0.005-0.01-0.013-0.016-0.018-0.025
	C15.928,17.622,15.968,17.724,15.986,17.835z"/>
<path d="M11.153,35l2.861-17.165c0.018-0.111,0.059-0.213,0.11-0.308c-0.005,0.009-0.013,0.015-0.018,0.025L5.382,35H11.153z"/>
<polygon points="40.414,37 38,39.414 38,45.414 46.414,37 "/>
<polygon points="36,45.414 36,39.414 33.586,37 27.586,37 "/>
<polygon points="37,37.586 38.929,35.657 37,24.083 35.071,35.657 "/>
<path d="M37.986,17.835L40.847,35h5.771l-8.724-17.447c-0.005-0.01-0.013-0.016-0.018-0.025
	C37.928,17.622,37.968,17.724,37.986,17.835z"/>
<path d="M33.153,35l2.861-17.165c0.018-0.111,0.059-0.213,0.11-0.308c-0.005,0.009-0.013,0.015-0.018,0.025L27.382,35H33.153z"/>
<path style="fill:none;stroke:#000000;stroke-width:2;stroke-linecap:round;stroke-linejoin:round;stroke-miterlimit:10;" d="M26,9
	h2c0.552,0,1-0.448,1-1l0,0c0-2.209,1.791-4,4-4l0,0c2.209,0,4,1.791,4,4v8"/>
<circle cx="37" cy="18" r="3"/>
</svg>