<?xml version="1.0" encoding="iso-8859-1"?><!-- Generator: Adobe Illustrator 19.1.0, SVG Export Plug-In . SVG Version: 6.00 Build 0)  --><svg xmlns="http://www.w3.org/2000/svg" xmlns:xlink="http://www.w3.org/1999/xlink" viewBox="0 0 50 50" width="50px" height="50px"><path style="fill:none;stroke:#000000;stroke-width:2;stroke-linecap:round;stroke-linejoin:round;stroke-miterlimit:10;" d="M30,8.32V7.18C30,4.87,27.36,3,25.1,3S20,4.87,20,7.18v1.092"/><g><path d="M20,39h-2c-0.552,0-1-0.448-1-1s0.448-1,1-1h2c0.552,0,1,0.448,1,1S20.552,39,20,39z"/></g><g><path d="M26,39h-2c-0.552,0-1-0.448-1-1s0.448-1,1-1h2c0.552,0,1,0.448,1,1S26.552,39,26,39z"/></g><g><path d="M32,39h-2c-0.552,0-1-0.448-1-1s0.448-1,1-1h2c0.552,0,1,0.448,1,1S32.552,39,32,39z"/></g><g><path d="M33,32H17c-0.552,0-1-0.448-1-1v0c0-0.552,0.448-1,1-1h16c0.552,0,1,0.448,1,1v0C34,31.552,33.552,32,33,32z"/></g><path style="fill:none;stroke:#000000;stroke-width:2;stroke-miterlimit:10;" d="M4,31.3V40c0,1.65,1.35,3,3,3h1.35"/><path style="fill:none;stroke:#000000;stroke-width:2;stroke-miterlimit:10;" d="M46,31.2V40c0,1.65-1.35,3-3,3h-1"/><path style="fill:none;stroke:#000000;stroke-width:2;stroke-miterlimit:10;" d="M7.99,33.05H6c-1.1,0-2-0.9-2-2C4,30.5,4.23,30,4.59,29.63c0.36-0.36,0.86-0.58,1.41-0.58h1.99"/><path style="fill:none;stroke:#000000;stroke-width:2;stroke-miterlimit:10;" d="M42,29h1.99c0.55,0,1.05,0.22,1.41,0.58c0.36,0.37,0.59,0.87,0.59,1.42c0,1.1-0.9,2-2,2H42"/><g><path d="M25,7C15.075,7,7,14.178,7,23v18c0,3.86,3.14,7,7,7h22c3.86,0,7-3.14,7-7V23C43,14.178,34.925,7,25,7z M13.999,19c-0.204,0-0.411-0.062-0.588-0.192c-0.446-0.326-0.544-0.951-0.219-1.397c2.422-3.32,6.717-5.292,11.785-5.41c5.113,0.118,9.409,2.09,11.831,5.41c0.326,0.446,0.228,1.072-0.218,1.397c-0.446,0.326-1.072,0.228-1.397-0.218c-2.053-2.813-5.776-4.486-10.216-4.59c-4.394,0.104-8.117,1.776-10.168,4.59C14.612,18.858,14.308,19,13.999,19z M36,40c0,1.1-0.9,2-2,2H16c-1.1,0-2-0.9-2-2V30c0-1.1,0.9-2,2-2h18c1.1,0,2,0.9,2,2V40z M37,23.108c0,0.552-0.448,1-1,1s-1-0.448-1-1v-2.052c0-0.552,0.448-1,1-1s1,0.448,1,1V23.108z"/></g></svg>