<?xml version="1.0" encoding="iso-8859-1"?><!-- Generator: Adobe Illustrator 19.1.1, SVG Export Plug-In . SVG Version: 6.00 Build 0)  --><svg xmlns="http://www.w3.org/2000/svg" xmlns:xlink="http://www.w3.org/1999/xlink" viewBox="0 0 50 50" width="50px" height="50px"><path d="M31,11V6c0-1.105-0.895-2-2-2h-8c-1.105,0-2,0.895-2,2v5c-0.083,3.917-2,9-2,9l2,2l3-2l0.98-6.842L25,14l2.02-0.842L28,20l3,2l2-2C33,20,31.083,14.917,31,11z M22,9c-0.552,0-1-0.448-1-1s0.448-1,1-1s1,0.448,1,1S22.552,9,22,9z M28,9c-0.552,0-1-0.448-1-1s0.448-1,1-1s1,0.448,1,1S28.552,9,28,9z"/><path d="M32.444,4C32.788,4.591,33,5.268,33,6l0,4.957c0.001,0.059,0.007,0.122,0.009,0.182L38,9V4H32.444z"/><path d="M17,6c0-0.732,0.212-1.409,0.556-2H12v5l5,1.875V6z"/><path style="fill:none;stroke:#000000;stroke-width:2;stroke-linejoin:round;stroke-miterlimit:10;" d="M46,40c-2.375,0-4.958-0.958-4.958-0.958s0.99,3.536,4.615,5.036"/><path style="fill:none;stroke:#000000;stroke-width:2;stroke-linejoin:round;stroke-miterlimit:10;" d="M4,40c2.375,0,4.958-0.958,4.958-0.958s-0.99,3.536-4.615,5.036"/><path d="M39.073,15.002l0.52-0.001c-0.333-1.685-0.674-3.062-0.959-4.097l-3.227,1.383C35.876,13.531,36.887,14.843,39.073,15.002z"/><g><path d="M11,15c2.253-0.192,3.241-1.591,3.672-2.862l-3.304-1.239c-0.286,1.035-0.627,2.414-0.96,4.101H11z"/><path d="M42.956,42.706C42.937,42.643,41,36.266,41,30c0-5.173-0.471-9.566-1.044-13H39c-3.068-0.223-4.669-2.044-5.423-3.931l-0.347,0.144c0.498,3.011,1.627,6.044,1.641,6.082l0.454,1.207l-0.911,0.911l-2,2l-1.159,1.159l-1.364-0.91l-3-2l-0.744-0.496l-0.127-0.885l-0.614-4.286L25,16.167l-0.406-0.169l-0.614,4.286l-0.127,0.885l-0.744,0.496l-3,2l-1.364,0.91l-1.159-1.159l-2-2l-0.912-0.912l0.455-1.207c0.015-0.039,1.22-3.265,1.689-6.352l-0.292-0.109c-0.699,1.948-2.278,3.897-5.441,4.164l-1.04,0.002C9.471,20.433,9,24.826,9,30c0,6.266-1.937,12.643-1.956,12.706l-0.259,0.843l0.804,0.362C7.778,43.997,12.277,46,17,46h0.859l0.129-0.85c1.414-9.301,5.405-19.896,7.02-21.936c1.603,1.981,5.438,12.166,7.005,21.943L32.147,46H33c4.723,0,9.222-2.003,9.411-2.088l0.804-0.362L42.956,42.706z M16.153,43.977c-2.886-0.158-5.636-1.07-6.945-1.566c0.133-0.489,0.307-1.165,0.494-1.978c2.613,0.988,5.276,1.355,6.843,1.489C16.397,42.638,16.264,43.329,16.153,43.977z M33.842,43.977c-0.115-0.652-0.249-1.342-0.396-2.055c1.565-0.133,4.234-0.5,6.852-1.49c0.187,0.813,0.361,1.489,0.494,1.978C39.481,42.907,36.729,43.819,33.842,43.977z"/></g></svg>