<?xml version="1.0" encoding="iso-8859-1"?><!-- Generator: Adobe Illustrator 23.0.3, SVG Export Plug-In . SVG Version: 6.00 Build 0)  --><svg xmlns="http://www.w3.org/2000/svg" xmlns:xlink="http://www.w3.org/1999/xlink" viewBox="0 0 50 50" width="500px" height="500px"><g><circle cx="25" cy="2" r="2"/><circle cx="25" cy="6" r="2"/><path d="M28.599,18.455C29.462,17.556,30,16.342,30,15c0-2.061-1.255-3.834-3.041-4.598C26.986,10.272,27,10.138,27,10c0-1.105-0.895-2-2-2s-2,0.895-2,2c0,0.138,0.014,0.272,0.041,0.402C21.255,11.166,20,12.939,20,15c0,1.342,0.538,2.556,1.401,3.455C14.865,20.073,10,25.971,10,33c0,8.271,6.729,15,15,15s15-6.729,15-15C40,25.971,35.135,20.073,28.599,18.455z M25,12c1.654,0,3,1.346,3,3c0,1.302-0.839,2.402-2,2.816V16c0.553,0,1-0.448,1-1s-0.447-1-1-1h-2c-0.553,0-1,0.448-1,1s0.447,1,1,1v1.816c-1.161-0.414-2-1.514-2-2.816C22,13.346,23.346,12,25,12z M32.799,40.747c-0.009,0.01-0.012,0.022-0.021,0.031c-0.009,0.009-0.022,0.012-0.031,0.021C30.757,42.776,28.019,44,25,44s-5.757-1.224-7.747-3.2c-0.01-0.009-0.022-0.012-0.031-0.021c-0.009-0.009-0.012-0.022-0.021-0.031C15.224,38.758,14,36.02,14,33s1.224-5.758,3.201-7.747c0.009-0.01,0.012-0.022,0.021-0.031s0.022-0.012,0.031-0.021C19.243,23.224,21.981,22,25,22s5.757,1.224,7.747,3.2c0.01,0.009,0.022,0.012,0.031,0.021s0.012,0.022,0.021,0.031C34.776,27.242,36,29.98,36,33S34.776,38.758,32.799,40.747z"/><path d="M33,33c0-0.532,0.418-0.957,0.943-0.988c-0.191-1.742-0.882-3.333-1.925-4.633c-0.188,0.165-0.418,0.257-0.653,0.257c-0.256,0-0.512-0.098-0.707-0.292c-0.375-0.375-0.38-0.968-0.036-1.361c-1.299-1.043-2.891-1.734-4.633-1.926C25.957,24.581,25.532,25,25,25s-0.957-0.419-0.988-0.943c-1.742,0.191-3.334,0.883-4.633,1.926c0.344,0.393,0.339,0.986-0.036,1.361c-0.195,0.195-0.451,0.292-0.707,0.292c-0.235,0-0.465-0.092-0.653-0.257c-1.043,1.299-1.734,2.891-1.925,4.633C16.582,32.043,17,32.468,17,33s-0.418,0.957-0.943,0.988c0.191,1.742,0.882,3.333,1.925,4.633c0.393-0.344,0.986-0.339,1.36,0.035c0.375,0.375,0.38,0.968,0.036,1.361c1.299,1.043,2.891,1.734,4.633,1.926C24.043,41.419,24.468,41,25,41s0.957,0.419,0.988,0.943c1.742-0.191,3.334-0.883,4.633-1.926c-0.344-0.393-0.339-0.986,0.036-1.361c0.375-0.374,0.967-0.379,1.36-0.035c1.043-1.299,1.734-2.891,1.925-4.633C33.418,33.957,33,33.532,33,33z M27,33c0,1.105-0.895,2-2,2s-2-0.895-2-2c0-0.234,0.048-0.456,0.122-0.664l-1.779-2.806l0.186-0.186l2.806,1.779C24.544,31.048,24.766,31,25,31c0.148,0,0.291,0.018,0.429,0.049l4.164-2.828l0.186,0.186l-2.828,4.164C26.982,32.71,27,32.852,27,33z"/></g></svg>