<?xml version="1.0" encoding="iso-8859-1"?><!-- Generator: Adobe Illustrator 19.2.1, SVG Export Plug-In . SVG Version: 6.00 Build 0)  --><svg xmlns="http://www.w3.org/2000/svg" xmlns:xlink="http://www.w3.org/1999/xlink" viewBox="0 0 50 50" width="50px" height="50px"><path style="fill:none;stroke:#000000;stroke-width:2;stroke-linecap:round;stroke-linejoin:round;stroke-miterlimit:10;" d="M7,26.688V16c0-2.761,2.239-5,5-5h26c2.761,0,5,2.239,5,5v10.688"/><circle style="fill:none;stroke:#000000;stroke-width:2;stroke-miterlimit:10;" cx="23" cy="6" r="2"/><circle style="fill:none;stroke:#000000;stroke-width:2;stroke-miterlimit:10;" cx="27" cy="6" r="2"/><path style="fill:none;stroke:#000000;stroke-width:2;stroke-miterlimit:10;" d="M23,8c0,1.971-3,3-3,3"/><path style="fill:none;stroke:#000000;stroke-width:2;stroke-miterlimit:10;" d="M27,8c0,1.971,3,3,3,3"/><g><path d="M44.653,27.053C42.415,25.125,40,21.92,40,20.104V17c0-1.654-1.346-3-3-3H13c-1.654,0-3,1.346-3,3v3.104c0,1.816-2.415,5.021-4.653,6.949C2.548,29.464,2,32.159,2,36c0,3.697,4.989,7.704,12.613,9.707c-0.123-0.128-0.244-0.256-0.359-0.385C12.247,43.075,11,39.579,11,36.198c0-3.624,1.342-6.194,2.639-8.68C14.854,25.193,16,22.997,16,20c0-0.553,0.448-1,1-1s1,0.447,1,1c0,3.487-1.315,6.008-2.588,8.444C14.172,30.82,13,33.065,13,36.198c0,2.91,1.052,5.896,2.746,7.791c0.803,0.899,1.87,1.798,2.823,2.529C20.594,46.826,22.747,47,25,47c2.253,0,4.405-0.174,6.431-0.482c0.954-0.732,2.022-1.632,2.824-2.529C35.948,42.094,37,39.108,37,36.198c0-3.133-1.172-5.378-2.412-7.754C33.315,26.008,32,23.487,32,20c0-0.553,0.448-1,1-1s1,0.447,1,1c0,2.997,1.146,5.193,2.361,7.519C37.658,30.004,39,32.574,39,36.198c0,3.381-1.247,6.877-3.254,9.123c-0.115,0.129-0.236,0.257-0.359,0.385C43.011,43.704,48,39.697,48,36C48,32.159,47.452,29.464,44.653,27.053z"/></g></svg>