<?xml version="1.0" encoding="iso-8859-1"?>
<!-- Generator: Adobe Illustrator 22.0.1, SVG Export Plug-In . SVG Version: 6.00 Build 0)  -->
<svg version="1.1" id="&#x421;&#x43B;&#x43E;&#x439;_2"
	 xmlns="http://www.w3.org/2000/svg" xmlns:xlink="http://www.w3.org/1999/xlink" x="0px" y="0px" viewBox="0 0 50 50"
	 style="enable-background:new 0 0 50 50;" xml:space="preserve">
<path d="M25.5,13c-3.033,0-5.5-2.467-5.5-5.5S22.467,2,25.5,2S31,4.467,31,7.5S28.533,13,25.5,13z"/>
<path d="M25,14v31.3c0,1.54-1.12,2.7-2.6,2.7c-1.57,0-2.4-1.14-2.4-2.7V22.47c0-0.27-0.23-0.5-0.5-0.5S19,22.2,19,22.47V32
	c0,1.1-0.9,2-2,2s-2-0.9-2-2V19.5c0-3.03,2.47-5.5,5.5-5.5H25z"/>
<path d="M29,48L29,48c-1.1,0-2-0.9-2-2v-9h4v9C31,47.1,30.1,48,29,48z"/>
<path d="M35.25,32.54l-3.4-11.15c-0.01-0.02-0.02-0.05-0.03-0.08c-0.08-0.16-0.25-0.28-0.44-0.28c-0.28,0-0.5,0.22-0.5,0.5
	c0,0.04,0.01,0.08,0.02,0.11l4.02,12.96c0.1,0.3,0.05,0.6-0.1,0.9c-0.2,0.3-0.5,0.5-0.9,0.5H26V14.03c0.16-0.01,0.33-0.01,0.5-0.01
	c6.12,0,8.65,4.92,9.22,7c0,0,2.03,7.32,2.03,7.42C38.42,30.2,37,32.29,35.25,32.54z"/>
</svg>