<?xml version="1.0" encoding="utf-8"?><!-- Generator: Adobe Illustrator 19.1.1, SVG Export Plug-In . SVG Version: 6.00 Build 0)  --><svg xmlns="http://www.w3.org/2000/svg" xmlns:xlink="http://www.w3.org/1999/xlink" viewBox="0 0 50 50" width="50px" height="50px"><path d="M13,33v14c0,0.6,0.4,1,1,1h10V33H13z"/><path d="M26,33v15h10c0.6,0,1-0.4,1-1V33H26z"/><path d="M47.9,26.6L37,5.7c-0.1-0.3-0.3-0.5-0.5-0.6l-6-3c0,0,0,0,0,0c0,0,0,0,0,0C30.3,2,30.1,2,30,2c0,0,0,0,0,0H20c0,0,0,0,0,0c-0.1,0-0.3,0-0.4,0.1c0,0,0,0,0,0c0,0,0,0,0,0l-6,3c-0.2,0.1-0.4,0.3-0.5,0.5l-11,20.9c-0.3,0.5-0.1,1.1,0.4,1.4l7,3.7c0.2,0.1,0.5,0.1,0.8,0.1c0.3-0.1,0.5-0.3,0.6-0.5l2.1-4V31h11V19.2l6.5-14.8l2.3,1.1L26,21.3V31h11v-3.8l2.1,4c0.1,0.2,0.3,0.4,0.6,0.5c0.3,0.1,0.5,0.1,0.8-0.1l7-3.7C48,27.7,48.2,27.1,47.9,26.6z M22.4,17.8L17,5.5l2.5-1.1l4.4,10.1L22.4,17.8z"/></svg>