<?xml version="1.0" encoding="utf-8"?><!-- Generator: Adobe Illustrator 15.0.0, SVG Export Plug-In . SVG Version: 6.00 Build 0)  --><!DOCTYPE svg PUBLIC "-//W3C//DTD SVG 1.1//EN" "http://www.w3.org/Graphics/SVG/1.1/DTD/svg11.dtd"><svg xmlns="http://www.w3.org/2000/svg" xmlns:xlink="http://www.w3.org/1999/xlink" viewBox="0 0 50 50" width="50px" height="50px"><path d="M38.923,4V1c0-0.552-0.447-1-1-1H12.077c-0.552,0-1,0.448-1,1v3H38.923z"/><path d="M37.655,13.004l1.268,0.216V6h-6.876C32.518,12.425,37.435,12.983,37.655,13.004z"/><path d="M37.397,14.985L37.397,14.985c-0.034,0-6.826-0.718-7.347-8.985H19.949c-0.523,8.294-7.36,8.99-7.432,8.997l-1.44,0.222V49c0,0.553,0.448,1,1,1h9.231c0.51,0,0.938-0.383,0.994-0.89L25,16.826l2.697,32.284c0.057,0.507,0.484,0.89,0.994,0.89h9.231c0.553,0,1-0.447,1-1V15.247L37.397,14.985z"/><path d="M17.953,6h-6.876v7.197l1.205-0.185C12.562,12.983,17.482,12.425,17.953,6z"/></svg>