<?xml version="1.0" encoding="iso-8859-1"?><!-- Generator: Adobe Illustrator 19.2.1, SVG Export Plug-In . SVG Version: 6.00 Build 0)  --><svg xmlns="http://www.w3.org/2000/svg" xmlns:xlink="http://www.w3.org/1999/xlink" viewBox="0 0 50 50" width="500px" height="500px"><path style="fill:none;stroke:#000000;stroke-width:2;stroke-miterlimit:10;" d="M46.795,47c0-22.064-2.441-23-5.064-23c-2.426,0-4.158,2.535-5.821,8.503C34.297,38.29,32.833,46,24,46c-9.98,0-23-2.612-23-2.612c0-0.873,0.065-1.976,1.237-3.045C4.633,38.159,15,33.762,15,33.762S17.467,38,22.387,38c3.738,0,6.029-2.583,6.515-4.18C30.073,29.965,35.667,10.167,42.385,4C42.385,4,49,8.686,49,16.128c0,5.128-2.079,7.239-2.079,30.872"/><path d="M46.795,47c0-22.064-2.441-23-5.064-23c-2.426,0-4.158,2.535-5.821,8.503C34.297,38.29,32.833,46,24,46c-9.98,0-23-2.612-23-2.612c0-0.873,0.065-1.976,1.237-3.045C4.633,38.159,15,33.762,15,33.762S17.467,38,22.387,38c3.738,0,6.029-2.583,6.515-4.18C30.073,29.965,35.667,10.167,42.385,4C42.385,4,49,8.686,49,16.128c0,5.128-2.079,7.239-2.079,30.872H46.795z"/></svg>