<?xml version="1.0" encoding="utf-8"?><!-- Generator: Adobe Illustrator 15.0.0, SVG Export Plug-In . SVG Version: 6.00 Build 0)  --><!DOCTYPE svg PUBLIC "-//W3C//DTD SVG 1.1//EN" "http://www.w3.org/Graphics/SVG/1.1/DTD/svg11.dtd"><svg xmlns="http://www.w3.org/2000/svg" xmlns:xlink="http://www.w3.org/1999/xlink" viewBox="0 0 50 50" width="500px" height="500px"><g><path d="M1.632,37.324c0,0,1.25,0.23,5.344,0.841c0.585,0.088,1.438,0.129,2.425,0.177c1.978,0.095,4.44,0.213,6.394,0.805c8.254,2.496,13.138,2.604,20.339,1.905c7.286-0.707,11.371-2.885,11.411-2.906c0.478-0.228,0.954-0.487,1.37-0.736c-0.138-1.013-0.451-2.3-1.167-3.289c-1.244-1.719-3.636-2.896-5.76-2.79c-1.588,0.057-2.465,0.444-3.105,0.727c-0.63,0.279-0.864,0.384-1.638,0.145c-0.374-0.115-0.747-0.247-1.09-0.377c-0.621,1.879-1.976,3.767-3.024,5.217c-0.477,0.658-0.888,1.227-1.119,1.636c-0.184,0.326-0.523,0.509-0.872,0.509c-0.166,0-0.335-0.041-0.49-0.129c-0.481-0.271-0.651-0.882-0.38-1.362c0.287-0.508,0.729-1.119,1.241-1.826c1.156-1.598,2.741-3.787,2.966-5.542c0.082-0.654-0.08-1.141-0.584-1.559c-0.206-0.156-0.424-0.298-0.652-0.421c-0.62-0.306-1.501-0.587-2.711-0.893c-0.01-0.003-0.017-0.01-0.026-0.013c-0.198-0.039-0.387-0.074-0.55-0.104l-0.498-0.09c-1.565-0.278-2.697-0.479-4.278-1.534c-1.586-1.058-2.124-2.634-2.841-6.542c-0.388-2.118-0.359-8.79-0.341-12.776L22,4.481C22,2.464,19.683,1,16.491,1c-1.699,0-2.899,0.529-4.06,1.041c-0.651,0.287-1.265,0.558-1.973,0.741C9.784,2.955,9.225,2.986,8.518,3.026C7.745,3.069,6.868,3.118,5.653,3.367C3.179,3.875,3,5.878,3,9.116c0,0.359,0.006,1.067,0.015,1.974c0.025,2.871,0.069,7.676-0.014,9.684c-0.039,0.94-0.09,1.786-0.166,2.557c0.78,0.26,1.402,0.48,1.458,0.5c0.412,0.176,8.671,3.816,11.674,10.913c0.215,0.509-0.022,1.096-0.531,1.311c-0.127,0.054-0.259,0.079-0.389,0.079c-0.39,0-0.76-0.229-0.921-0.61c-2.687-6.35-10.487-9.799-10.566-9.833c-0.228-0.08-0.603-0.21-1.03-0.354c-0.139,0.618-0.313,1.168-0.547,1.645c-0.97,1.984-2.006,5.229-2.006,8.385c0,0.648,0.043,1.193,0.106,1.646L1.632,37.324z M29.396,29.994c0.664,0,1.203,0.539,1.203,1.204s-0.539,1.204-1.203,1.204c-0.666,0-1.205-0.539-1.205-1.204S28.73,29.994,29.396,29.994z M24.68,28.477c0.665,0,1.204,0.539,1.204,1.203c0,0.665-0.539,1.204-1.204,1.204c-0.665,0-1.204-0.539-1.204-1.204C23.476,29.016,24.015,28.477,24.68,28.477z M20.914,25.753c0.665,0,1.204,0.539,1.204,1.204s-0.539,1.204-1.204,1.204s-1.204-0.539-1.204-1.204S20.249,25.753,20.914,25.753z M19.714,22.608c0,0.665-0.539,1.204-1.204,1.204c-0.665,0-1.204-0.539-1.204-1.204s0.539-1.204,1.204-1.204C19.175,21.404,19.714,21.943,19.714,22.608z M17.793,18.32c-0.666,0-1.205-0.54-1.205-1.205c0-0.666,0.54-1.205,1.205-1.205s1.205,0.54,1.205,1.205C18.998,17.78,18.458,18.32,17.793,18.32z M17.713,5.67c0.665,0,1.204,0.539,1.204,1.204s-0.539,1.204-1.204,1.204s-1.204-0.539-1.204-1.204S17.048,5.67,17.713,5.67z M17.633,10.951c0.665,0,1.204,0.539,1.204,1.204c0,0.665-0.539,1.204-1.204,1.204c-0.665,0-1.204-0.539-1.204-1.204C16.429,11.49,16.968,10.951,17.633,10.951z"/><path d="M49.509,39.44c0-0.019-0.006-0.034-0.007-0.053c-0.379,0.21-0.746,0.395-1.051,0.539c-0.126,0.071-4.395,2.366-12.124,3.115c-2.379,0.23-4.543,0.374-6.672,0.374c-4.416,0-8.687-0.617-14.439-2.355c-1.718-0.521-4.042-0.632-5.911-0.722c-1.041-0.05-1.94-0.093-2.625-0.195c-4.149-0.619-5.379-0.847-5.429-0.855l-1.206-0.243c-0.002,0.045-0.017,0.08-0.017,0.127l0.281,7.217c0,0.739,0.585,1.524,1.669,1.524c0.424,0,1.639,0.059,1.64,0.059c0.058,0.005,0.116,0,0.174-0.009C4.42,47.874,4.884,47.478,5,46.961v-2.055l1.408,0.095c0.008,0.217,0.071,1.96,0.071,1.96c0.043,0.201,0.135,0.421,0.322,0.618C6.983,47.771,7.317,48,7.877,48l3.499-0.004c0.072,0,0.144-0.008,0.214-0.023c0.629-0.139,1.265-0.626,1.265-1.404v-2.175c1.298,0.15,3.813,0.371,7.54,0.663c-0.007,0.218-0.02,0.456-0.033,0.631c-0.01,0.146,0.011,0.292,0.063,0.429c0.14,0.366,0.525,0.812,1.187,0.958c0.56,0.123,2.295,0.315,2.492,0.337c0.063,0.006,0.127,0.007,0.191,0.003c1.112-0.093,1.508-0.711,1.507-1.236c0.001-0.022,0.006-0.061,0.014-0.107c0.08,0,0.157-0.001,0.23,0c0.024,0.146,0.053,0.297,0.08,0.435c0.063,0.675,0.615,1.331,1.503,1.331l0.121-0.003c0.409,0,2.341,0.106,2.343,0.106c0.053,0.004,0.103,0.002,0.155-0.003c0.559-0.057,1.156-0.531,1.216-1.323c0.009-0.115,0.012-0.271,0.013-0.426l0.158-0.001c0.597-0.007,1.37-0.012,1.816-0.013l0.05,0.615c0.018,0.209,0.1,0.407,0.235,0.566c0.091,0.106,0.424,0.464,0.906,0.584c0.109,0.027,0.222,0.04,0.377,0.04c0.553,0,2.154-0.171,2.335-0.19c0.316-0.034,0.599-0.217,0.758-0.491c0.245-0.422,0.406-0.78,0.419-1.112c0.045-0.12,0.126-0.314,0.218-0.519c0.28-0.063,0.717-0.166,1.032-0.241c0.094,0.144,0.2,0.311,0.275,0.43c0.146,0.498,0.581,0.85,1.108,0.85c0.075,0,0.216-0.019,0.29-0.035c0.261-0.061,2.063-0.36,2.064-0.36c0.253-0.042,0.48-0.181,0.635-0.386l0.32-0.427c0.11-0.147,0.179-0.322,0.195-0.506l0.095-0.995c0.173-0.063,0.39-0.147,0.664-0.259l0.274,0.451c0.099,0.16,0.239,0.29,0.407,0.374c0.15,0.074,0.724,0.248,1.137,0.107c0.059-0.02,0.216-0.071,1.979-0.898c0.217-0.102,0.391-0.278,0.488-0.498c0.371-0.832,0.245-1.216,0.21-1.318C49.852,41.663,49.521,39.739,49.509,39.44z"/></g></svg>