<?xml version="1.0" encoding="iso-8859-1"?><!-- Generator: Adobe Illustrator 21.1.0, SVG Export Plug-In . SVG Version: 6.00 Build 0)  --><svg xmlns="http://www.w3.org/2000/svg" xmlns:xlink="http://www.w3.org/1999/xlink" viewBox="0 0 50 50" width="500px" height="500px"><g></g><path d="M41.761,30.02C40.971,31.734,38.248,33,35,33c-3.26,0-5.992-1.276-6.771-3h-6.459c-0.778,1.724-3.51,3-6.771,3c-3.248,0-5.971-1.266-6.761-2.98c-4.053,1.003-5.482,4.644-5.974,7.104c0.523,5.049,1.653,8.071,1.715,8.233c0.131,0.344,0.44,0.587,0.806,0.634c0.372,0.045,0.727-0.11,0.94-0.409C5.78,45.507,11.324,38,25,38c13.606,0,19.221,7.509,19.274,7.583C44.464,45.847,44.768,46,45.087,46c0.042,0,0.085-0.003,0.128-0.008c0.365-0.047,0.675-0.291,0.806-0.634c0.062-0.162,1.192-3.184,1.715-8.233C47.244,34.664,45.814,31.023,41.761,30.02z"/><path d="M25,4C13.753,4,2.37,13.313,2.009,31.125C2.003,31.414,2,31.706,2,32c0,0.1,0.004,0.193,0.004,0.292c1.272-2.039,3.263-3.748,6.242-4.329C9.047,26.257,11.763,25,15,25c3.261,0,5.992,1.276,6.771,3h6.459c0.778-1.724,3.51-3,6.771-3c3.237,0,5.953,1.257,6.754,2.963c2.978,0.581,4.97,2.29,6.242,4.329C47.996,32.193,48,32.1,48,32C48,13.618,36.43,4,25,4z"/></svg>