<?xml version="1.0" encoding="iso-8859-1"?><!-- Generator: Adobe Illustrator 23.0.3, SVG Export Plug-In . SVG Version: 6.00 Build 0)  --><svg xmlns="http://www.w3.org/2000/svg" xmlns:xlink="http://www.w3.org/1999/xlink" viewBox="0 0 50 50" width="500px" height="500px"><g><path d="M8.205,33.357c-1.468-1.539-2.148-3.511-1.82-5.274c0.003-0.013,0.01-0.044,0.018-0.079H3.563c-1.953,0-3.542,1.589-3.542,3.542c0,2.982,1.744,5.558,4.262,6.782c1.593-0.86,3.699-2.152,5.713-3.567C9.334,34.368,8.728,33.905,8.205,33.357z"/><path d="M20.309,24.62c2.904-2.591,6.781-4.635,12.693-4.635c2.92,0,5.636,0.498,8.061,1.379l-1.155-3.474c-0.596-1.646-1.738-2.854-3.597-3.801c-6.594-3.354-15.433-1.833-20.115-0.628c-2.029,0.521-3.678,2.109-4.417,4.267l-1.829,5.705l2.615,2.911L20.309,24.62z"/><path d="M11.792,33.442c1.616-1.241,3.037-2.501,3.882-3.591c0.658-0.848,1.348-1.737,2.101-2.618l-5.916,1.317l-2.615-2.912l-0.862,2.689l-0.031,0.122c-0.211,1.134,0.274,2.452,1.3,3.527C10.244,32.597,10.972,33.083,11.792,33.442z"/><path d="M33.002,21.984c-8.699,0-12.443,4.771-15.747,8.98c-2.5,3.185-6.159,6.406-9.604,7.911h38.808c1.95,0,3.541-1.592,3.546-3.551C50.004,27.719,42.694,21.984,33.002,21.984z"/></g></svg>