<?xml version="1.0" encoding="utf-8"?><!-- Generator: Adobe Illustrator 15.0.0, SVG Export Plug-In . SVG Version: 6.00 Build 0)  --><!DOCTYPE svg PUBLIC "-//W3C//DTD SVG 1.1//EN" "http://www.w3.org/Graphics/SVG/1.1/DTD/svg11.dtd"><svg xmlns="http://www.w3.org/2000/svg" xmlns:xlink="http://www.w3.org/1999/xlink" viewBox="0 0 50 50" width="50px" height="50px"><path d="M47,10L47,10V5c0-0.552-0.447-1-1-1H4C3.448,4,3,4.448,3,5v5l0,0H47z"/><path d="M1.823,27.016C2.341,26.934,14,24.934,14,12H2.36C1.194,16.89,1.009,22.174,1,22.461v4.693C1.28,27.109,1.558,27.063,1.823,27.016z"/><path d="M48.155,27.012c0.019,0.004,0.35,0.063,0.844,0.138v-4.72c-0.008-0.26-0.191-5.541-1.359-10.429H36C36,24.934,47.658,26.934,48.155,27.012z"/><path d="M47.818,28.983C47.708,28.967,34,26.672,34,12H16C16,26.672,2.292,28.967,2.153,28.988C1.917,29.03,1.494,29.104,1,29.181V45c0,0.553,0.448,1,1,1h19c0.473,0,0.881-0.331,0.979-0.794L25,30.854l3.021,14.352C28.119,45.669,28.527,46,29,46h19c0.553,0,1-0.447,1-1l-0.001-15.828C48.331,29.076,47.859,28.991,47.818,28.983z"/></svg>