<?xml version="1.0" encoding="iso-8859-1"?><!-- Generator: Adobe Illustrator 19.2.1, SVG Export Plug-In . SVG Version: 6.00 Build 0)  --><svg xmlns="http://www.w3.org/2000/svg" xmlns:xlink="http://www.w3.org/1999/xlink" viewBox="0 0 50 50" width="500px" height="500px"><path style="fill:none;stroke:#000000;stroke-width:2;stroke-linecap:round;stroke-linejoin:round;stroke-miterlimit:10;" d="M31.419,15.752l7.166-7.166c0.781-0.781,2.047-0.781,2.828,0l0,0c0.781,0.781,0.781,2.047,0,2.828l-7.618,7.618"/><g><path d="M24,12c-1.551,0-3.082,0.317-4.517,0.905c-0.43,1.302-0.9,2.977-1.314,5.035c2.268,0.047,8.52,0.819,12.68,7.533c0.291,0.469,0.146,1.086-0.323,1.376C30.362,26.952,30.181,27,30.001,27c-0.335,0-0.662-0.168-0.851-0.474c-3.909-6.308-9.881-6.619-11.339-6.591c-0.265,1.634-0.488,3.453-0.631,5.48c1.783,0.493,6.906,2.277,9.686,7.085c0.276,0.478,0.112,1.09-0.366,1.366C26.343,33.957,26.171,34,26.001,34c-0.346,0-0.682-0.179-0.867-0.5c-2.195-3.798-6.25-5.452-8.064-6.027C17.028,28.463,17,29.48,17,30.553c0,1.399,0.088,2.785,0.227,4.14c1.101,0.414,3.545,1.556,4.673,3.869c0.241,0.497,0.035,1.096-0.461,1.338C21.297,39.968,21.147,40,21.001,40c-0.371,0-0.727-0.206-0.9-0.562c-0.568-1.167-1.676-1.947-2.579-2.422c0.668,4.407,1.836,8.239,2.613,10.485c1.322-0.784,4.425-2.772,7.567-5.869C33.131,36.282,36,30.185,36,24C36,17.383,30.617,12,24,12z"/><path d="M15.453,36.729c-0.554,0.242-1.191,0.705-1.511,1.605C13.797,38.744,13.411,39,13,39c-0.111,0-0.224-0.019-0.334-0.058c-0.521-0.185-0.793-0.756-0.608-1.276c0.668-1.886,2.121-2.66,3.154-2.978C15.081,33.337,15,31.954,15,30.553c0-1.019,0.023-1.992,0.058-2.938c-1.385,0.495-3.379,1.558-4.112,3.707C10.805,31.738,10.416,32,10,32c-0.107,0-0.216-0.017-0.322-0.054c-0.523-0.178-0.803-0.746-0.624-1.269c1.161-3.407,4.423-4.731,6.113-5.2c0.135-2.022,0.349-3.839,0.603-5.49c-1.366,0.14-4.729,0.858-6.91,4.524C8.672,24.825,8.34,25,7.999,25c-0.174,0-0.35-0.045-0.511-0.141c-0.475-0.282-0.63-0.896-0.348-1.371c2.952-4.962,7.726-5.476,8.977-5.529c0.384-2.003,0.824-3.675,1.247-5.035C15.989,12.325,14.51,12,13,12C6.935,12,2,16.935,2,23c0,15.25,13.274,23.151,16.062,24.641C17.223,45.161,16.077,41.229,15.453,36.729z"/></g><path d="M40,2c-4.418,0-8,3.582-8,8c0,1.667,0.511,3.215,1.384,4.496l5.556-5.557c0.584-0.584,1.537-0.584,2.121,0c0.585,0.585,0.585,1.536,0,2.121l-5.556,5.556C36.786,17.489,38.333,18,40,18c4.418,0,8-3.582,8-8S44.418,2,40,2z"/></svg>