<?xml version="1.0" encoding="iso-8859-1"?>
<!-- Generator: Adobe Illustrator 23.0.3, SVG Export Plug-In . SVG Version: 6.00 Build 0)  -->
<svg version="1.1" id="Layer_1" xmlns="http://www.w3.org/2000/svg" xmlns:xlink="http://www.w3.org/1999/xlink" x="0px" y="0px"
	 viewBox="0 0 50 50" style="enable-background:new 0 0 50 50;" xml:space="preserve">
<g>
	<path d="M25,8C17.347,8,10.026,7.443,3.832,6.391c-0.544-0.093-0.91-0.609-0.818-1.154c0.093-0.544,0.611-0.899,1.154-0.818
		C10.253,5.453,17.457,6,25,6s14.747-0.547,20.832-1.582c0.546-0.08,1.062,0.274,1.154,0.818c0.092,0.545-0.274,1.062-0.818,1.154
		C39.974,7.443,32.653,8,25,8z"/>
</g>
<g>
	<path d="M16,14c-0.553,0-1-0.447-1-1V5c0-0.553,0.447-1,1-1s1,0.447,1,1v8C17,13.553,16.553,14,16,14z"/>
</g>
<g>
	<path d="M34,14c-0.553,0-1-0.447-1-1V5c0-0.553,0.447-1,1-1s1,0.447,1,1v8C35,13.553,34.553,14,34,14z"/>
</g>
<g>
	<path d="M47.074,23.298c0,0-2.677-4.368-4.9-7.988c-1.562-2.544-4.732-3.425-4.867-3.462l-6.492-1.814
		C30.772,10.023,30.676,10,30.56,10H19.44c-0.115,0-0.212,0.023-0.255,0.034l-6.492,1.814c-0.135,0.036-3.305,0.918-4.867,3.462
		c-2.223,3.62-4.9,7.988-4.9,7.988c-0.261,0.429-0.119,0.983,0.318,1.241l6.152,3.632c0.15,0.089,0.316,0.131,0.479,0.131
		c0.309,0,0.613-0.152,0.788-0.427l1.77-2.515c0.599,5.043,0.997,12.435-0.413,19.443c-0.066,0.328,0.037,0.668,0.273,0.904
		c1.505,1.505,7.753,2.583,13.77,2.583c4.979,0,9.8-0.738,11.645-2.583c0.224-0.224,0.328-0.54,0.282-0.853
		c-1.084-7.362-1.234-13.807-0.468-19.61l1.816,2.63c0.175,0.275,0.479,0.427,0.788,0.427c0.163,0,0.329-0.042,0.479-0.131
		l6.152-3.632C47.193,24.281,47.335,23.726,47.074,23.298z M24.989,11.6H25h5.253c-0.482,1.34-1.813,3.674-5.253,3.679
		c-3.44-0.005-4.771-2.339-5.253-3.679H24.989z"/>
</g>
</svg>