<?xml version="1.0" encoding="utf-8"?><!-- Generator: Adobe Illustrator 15.0.0, SVG Export Plug-In . SVG Version: 6.00 Build 0)  --><!DOCTYPE svg PUBLIC "-//W3C//DTD SVG 1.1//EN" "http://www.w3.org/Graphics/SVG/1.1/DTD/svg11.dtd"><svg xmlns="http://www.w3.org/2000/svg" xmlns:xlink="http://www.w3.org/1999/xlink" viewBox="0 0 50 50" width="50px" height="50px"><path d="M38.462,50H19.785C17.698,50,16,48.309,16,46.23v-2.769c0-1.85-1.872-5.497-10.792-12.373c-1.163-0.896-1.972-2.416-2.164-4.067c-0.194-1.672,0.238-3.256,1.219-4.46c1.167-1.433,2.902-2.254,4.762-2.254c1.384,0,2.742,0.473,3.824,1.333c0.057,0.046,0.628,0.501,1.502,1.197c-0.146-2.331-0.235-5.176-0.235-7.072C14.116,5.304,19.48,0,30.059,0C37.766,0,46,5.133,46,19.538c0,5.636-1.298,10.836-2.443,15.425C42.722,38.31,42,41.199,42,43.462v2.769C42,48.38,40.479,50,38.462,50z"/></svg>