<?xml version="1.0" encoding="iso-8859-1"?><!-- Generator: Adobe Illustrator 21.1.0, SVG Export Plug-In . SVG Version: 6.00 Build 0)  --><svg xmlns="http://www.w3.org/2000/svg" xmlns:xlink="http://www.w3.org/1999/xlink" viewBox="0 0 50 50" width="500px" height="500px"><path style="fill:none;stroke:#000000;stroke-width:2;stroke-miterlimit:10;" d="M44.406,10.956c0,0-4.595-4.605-5.676-5.686c-3.661-3.661-14.119,0.862-23.358,10.101S1.609,35.069,5.27,38.73c1.081,1.081,5.61,5.558,5.61,5.558"/><ellipse transform="matrix(0.7071 -0.7071 0.7071 0.7071 -11.598 28)" style="fill:none;stroke:#000000;stroke-width:2;stroke-miterlimit:10;" cx="28" cy="28" rx="23.66" ry="9.374"/><ellipse transform="matrix(0.7071 -0.7071 0.7071 0.7071 -7.5671 18.2686)" cx="18.269" cy="18.269" rx="3.727" ry="1.66"/><ellipse transform="matrix(0.9266 -0.3761 0.3761 0.9266 -1.396 11.9894)" cx="30.006" cy="9.57" rx="2.054" ry="1.197"/><ellipse transform="matrix(0.4499 -0.8931 0.8931 0.4499 -21.4994 24.6736)" cx="9.279" cy="29.788" rx="2.054" ry="1.197"/><path style="fill:none;stroke:#000000;stroke-width:2;stroke-miterlimit:10;" d="M39.905,10.095c-0.613,4.916-4.765,12.022-11.276,18.533c-6.511,6.511-13.617,10.663-18.533,11.276"/><polygon points="29.391,28.533 35.215,21.759 39.196,14.747 40.385,10.468 43.534,10.884 45.495,13.439 45.198,19.025 40.92,26.81 34.145,34.713 27.668,40.12 20.3,44.339 15.486,45.528 11.802,44.874 10.614,42.794 10.673,40.12 15.486,38.456 23.152,33.94 "/></svg>