<?xml version="1.0" encoding="iso-8859-1"?><!-- Generator: Adobe Illustrator 19.2.1, SVG Export Plug-In . SVG Version: 6.00 Build 0)  --><svg xmlns="http://www.w3.org/2000/svg" xmlns:xlink="http://www.w3.org/1999/xlink" viewBox="0 0 50 50" width="500px" height="500px"><polygon style="fill:none;stroke:#000000;stroke-width:2;stroke-linecap:round;stroke-linejoin:round;stroke-miterlimit:10;" points="21.5,40 18.447,35.204 21.5,30 28.5,30 31.553,35.204 28.5,40 "/><line style="fill:none;stroke:#000000;stroke-width:2;stroke-linecap:round;stroke-linejoin:round;stroke-miterlimit:10;" x1="28.5" y1="30" x2="30.064" y2="27.118"/><line style="fill:none;stroke:#000000;stroke-width:2;stroke-linecap:round;stroke-linejoin:round;stroke-miterlimit:10;" x1="28.5" y1="40" x2="29.103" y2="40.887"/><line style="fill:none;stroke:#000000;stroke-width:2;stroke-linecap:round;stroke-linejoin:round;stroke-miterlimit:10;" x1="33.763" y1="35.204" x2="31.553" y2="35.204"/><line style="fill:none;stroke:#000000;stroke-width:2;stroke-linecap:round;stroke-linejoin:round;stroke-miterlimit:10;" x1="21.5" y1="30" x2="19.936" y2="27.118"/><line style="fill:none;stroke:#000000;stroke-width:2;stroke-linecap:round;stroke-linejoin:round;stroke-miterlimit:10;" x1="21.5" y1="40" x2="20.897" y2="40.887"/><line style="fill:none;stroke:#000000;stroke-width:2;stroke-linecap:round;stroke-linejoin:round;stroke-miterlimit:10;" x1="16.237" y1="35.204" x2="18.447" y2="35.204"/><path d="M25,7C11.215,7,0,14.402,0,23.5c0,6.236,5.215,11.867,13.609,14.692c0.314,0.105-1.832-4.996,0.186-9.069C8.914,27.305,6,24.455,6,21.5c0-5.149,8.701-9.5,19-9.5s19,4.351,19,9.5c0,2.955-2.914,5.805-7.795,7.623c2.155,4.209-0.351,9.122-0.133,9.122c0.107,0,0.215-0.018,0.319-0.053C44.785,35.367,50,29.736,50,23.5C50,14.402,38.785,7,25,7z"/><ellipse style="fill:none;stroke:#000000;stroke-width:2;stroke-linecap:round;stroke-linejoin:round;stroke-miterlimit:10;" cx="25" cy="33" rx="12" ry="11"/></svg>