<?xml version="1.0" encoding="iso-8859-1"?><!-- Generator: Adobe Illustrator 21.1.0, SVG Export Plug-In . SVG Version: 6.00 Build 0)  --><svg xmlns="http://www.w3.org/2000/svg" xmlns:xlink="http://www.w3.org/1999/xlink" viewBox="0 0 50 50" width="500px" height="500px"><g><path d="M47.137,26.156C44.74,28.347,37.282,34,24.098,34c-10.629,0-16.592-5.052-18.533-7.048C3.595,27.939,1,29.695,1,32.109C1,37.656,11.484,42,24.869,42C36.731,42,49,37.07,49,28.82C49,27.702,48.111,26.805,47.137,26.156z"/><path d="M45.367,25.035l-0.51-2.103C42.24,25.032,35.859,29,24.994,29c-9.637,0-14.915-3.378-17.318-5.554l-0.454,2.318C9.147,27.63,14.657,32,24.098,32C35.851,32,42.812,27.207,45.367,25.035z"/><path d="M24.994,27c11.734,0,17.944-4.976,19.417-6.331c-0.282-1.738-0.808-4.797-1.237-6.287C41.608,9.196,29.5,7,24.947,7c-6.658,0-11.767,2.518-13.538,3.85c-1.534,1.153-2.79,7.485-3.268,10.22C9.507,22.591,14.381,27,24.994,27z"/></g></svg>