<?xml version="1.0" encoding="iso-8859-1"?>
<!-- Generator: Adobe Illustrator 24.1.0, SVG Export Plug-In . SVG Version: 6.00 Build 0)  -->
<svg version="1.1" id="Layer_1" xmlns="http://www.w3.org/2000/svg" xmlns:xlink="http://www.w3.org/1999/xlink" x="0px" y="0px"
	 viewBox="0 0 50 50" style="enable-background:new 0 0 50 50;" xml:space="preserve">
<g>
</g>
<g>
	<path d="M25.49,9.86l1.9,1.14h-4.78l1.9-1.14C24.82,9.67,25.18,9.67,25.49,9.86z"/>
	<g>
		<path d="M17.71,4.94c0.12,0.39,0.22,0.69,0.24,0.74c0.08,0.26,1.49,4.58,1.6,4.82l3.23-1.95c-1.75-0.79-2.72-2.43-3.24-3.72
			c-0.09-0.23-0.257-0.433-0.23-0.64c0.027-0.209,0.25-0.4,0.35-0.47c0.53-0.41,2.48-0.79,5.34-0.79c2.87,0,4.81,0.38,5.34,0.79
			c0.1,0.07,0.323,0.261,0.35,0.47c0.027,0.207-0.14,0.41-0.23,0.64c-0.52,1.29-1.49,2.93-3.24,3.72l3.23,1.95l1.53-4.61l0.07-0.21
			c0.02-0.05,0.11-0.35,0.24-0.74c0.04-0.09,0.07-0.2,0.11-0.3c0.2-0.6,0.11-1.25-0.25-1.77l-0.31-0.46
			c-0.05-0.07-0.11-0.14-0.18-0.21c-0.08-0.06-0.17-0.11-0.26-0.15C31.13,1.93,28.88,1,25,1s-6.13,0.93-6.4,1.05
			c-0.37,0.16-0.61,0.51-0.83,0.87c-0.3,0.51-0.37,1.12-0.18,1.68C17.63,4.72,17.67,4.83,17.71,4.94z"/>
		<path d="M44.11,14.92c-0.47-1.28-0.67-2.67-1.24-3.36c-0.19-0.23-0.46-0.49-0.8-0.76l-0.705,2.108
			c-0.193,0.577-0.852,0.849-1.396,0.577l-4.251-2.126c-0.42-0.21-0.637-0.683-0.523-1.138L35.97,7.14
			c-0.56-0.29-0.92-0.46-0.92-0.46l-1.1-0.36l-2,6c-0.1,0.28-0.32,0.51-0.6,0.62C31.23,12.98,31.12,13,31,13
			c-0.18,0-0.36-0.05-0.51-0.14l-5-3c-0.31-0.19-0.67-0.19-0.98,0l-5,3c-0.26,0.15-0.57,0.18-0.86,0.08
			c-0.28-0.11-0.5-0.34-0.6-0.62l-2-6l-1.1,0.36c0,0-0.35,0.18-0.91,0.47l0.766,3.072c0.113,0.455-0.104,0.927-0.523,1.136
			l-4.253,2.126c-0.544,0.272-1.203-0.001-1.396-0.577L7.93,10.8c-0.33,0.27-0.61,0.53-0.8,0.76c-0.57,0.69-0.77,2.08-1.24,3.36
			C4.38,19,3,27.5,3,29.44S3,40,3,40h6V23c0-0.55,0.45-1,1-1s1,0.45,1,1v24h28l-0.08-18.93L39,22.98c0.01-0.54,0.45-0.98,1-0.98
			c0,0,0.01,0,0.02,0c0.55,0.01,0.99,0.46,0.98,1.02l-0.08,5.06L40.97,40H47c0,0,0-8.62,0-10.56S45.62,19,44.11,14.92z M23,26
			c0,0.55-0.45,1-1,1h-8c-0.55,0-1-0.45-1-1v-8c0-0.55,0.45-1,1-1h8c0.55,0,1,0.45,1,1V26z M37,26c0,0.55-0.45,1-1,1h-8
			c-0.55,0-1-0.45-1-1v-8c0-0.55,0.45-1,1-1h8c0.55,0,1,0.45,1,1V26z"/>
		<rect x="15" y="19" width="6" height="6"/>
		<rect x="29" y="19" width="6" height="6"/>
	</g>
</g>
</svg>