<?xml version="1.0" encoding="iso-8859-1"?>
<!-- Generator: Adobe Illustrator 26.4.1, SVG Export Plug-In . SVG Version: 6.00 Build 0)  -->
<svg version="1.1" baseProfile="basic" id="Layer_1"
	 xmlns="http://www.w3.org/2000/svg" xmlns:xlink="http://www.w3.org/1999/xlink" x="0px" y="0px" viewBox="0 0 50 50"
	 xml:space="preserve">
<g>
	<path d="M28.925,6.23l4.686-2.008l-0.692-1.616C32.762,2.238,32.4,2,32,2h-5.495L28.925,6.23z"/>
	<path d="M21.079,6.232L23.531,2H18c-0.4,0-0.762,0.238-0.919,0.606l-0.692,1.616L21.079,6.232z"/>
	<path d="M49.447,13.106l-2.737-1.368l-2.788,6.65c-0.161,0.383-0.532,0.614-0.923,0.614c-0.129,0-0.26-0.025-0.386-0.078
		c-0.509-0.214-0.749-0.8-0.536-1.309l2.84-6.773L34.914,5.839l-6.02,2.58C28.766,8.474,28.632,8.5,28.5,8.5
		c-0.349,0-0.685-0.183-0.869-0.503l-2.616-4.571l-2.651,4.576c-0.253,0.438-0.793,0.62-1.259,0.417l-6.02-2.58L5.164,10.8
		l2.763,6.825c0.208,0.512-0.04,1.095-0.552,1.302c-0.123,0.05-0.25,0.074-0.375,0.074c-0.396,0-0.77-0.236-0.927-0.625L3.37,11.697
		l-2.817,1.409c-0.465,0.233-0.674,0.783-0.481,1.266l4,10c0.099,0.246,0.291,0.443,0.535,0.547c0.244,0.104,0.519,0.107,0.766,0.01
		l4.458-1.784L9,46.965c-0.009,0.271,0.092,0.535,0.28,0.729C9.469,47.89,9.729,48,10,48h30c0.271,0,0.531-0.11,0.719-0.306
		c0.188-0.194,0.29-0.458,0.28-0.729L40.896,44H14c-0.552,0-1-0.447-1-1s0.448-1,1-1h26.827L40.17,23.145l4.458,1.784
		c0.248,0.098,0.521,0.095,0.766-0.01c0.244-0.104,0.436-0.301,0.535-0.547l4-10C50.122,13.889,49.913,13.339,49.447,13.106z M25,16
		c-0.552,0-1-0.448-1-1s0.448-1,1-1c0.552,0,1,0.448,1,1S25.552,16,25,16z M25,12c-0.552,0-1-0.448-1-1s0.448-1,1-1
		c0.552,0,1,0.448,1,1S25.552,12,25,12z"/>
</g>
</svg>