<?xml version="1.0" encoding="utf-8"?><!-- Generator: Adobe Illustrator 15.0.0, SVG Export Plug-In . SVG Version: 6.00 Build 0)  --><!DOCTYPE svg PUBLIC "-//W3C//DTD SVG 1.1//EN" "http://www.w3.org/Graphics/SVG/1.1/DTD/svg11.dtd"><svg xmlns="http://www.w3.org/2000/svg" xmlns:xlink="http://www.w3.org/1999/xlink" viewBox="0 0 50 50" width="50px" height="50px"><path d="M8,31H6c-0.552,0-1-0.447-1-1v-3c0-0.553,0.448-1,1-1h2c0.552,0,1,0.447,1,1v3C9,30.553,8.552,31,8,31z"/><path d="M8,41H6c-0.552,0-1-0.447-1-1v-3c0-0.553,0.448-1,1-1h2c0.552,0,1,0.447,1,1v3C9,40.553,8.552,41,8,41z"/><path d="M44,31h-2c-0.553,0-1-0.447-1-1v-3c0-0.553,0.447-1,1-1h2c0.553,0,1,0.447,1,1v3C45,30.553,44.553,31,44,31z"/><path d="M44,41h-2c-0.553,0-1-0.447-1-1v-3c0-0.553,0.447-1,1-1h2c0.553,0,1,0.447,1,1v3C45,40.553,44.553,41,44,41z"/><g><path d="M16,23v18h18c0.035,0,0.05-0.005,0.05-0.005L34,23H16z"/><path d="M39,40v-3c0-1.654,1.346-3,3-3h2v-1h-2c-1.654,0-3-1.346-3-3v-3c0-1.654,1.346-3,3-3h2v-2.8c0-0.295-0.13-0.575-0.355-0.765c-6.825-5.748-2.008-13.57-1.8-13.9c0.158-0.251,0.197-0.561,0.106-0.843c-0.092-0.283-0.304-0.511-0.58-0.621l-10-4c-0.477-0.189-1.03,0.017-1.264,0.479C30.09,1.584,28.316,5,25,5s-5.089-3.416-5.105-3.447c-0.232-0.464-0.781-0.674-1.266-0.481l-10,4c-0.277,0.111-0.49,0.339-0.581,0.624C7.957,5.979,7.997,6.289,8.158,6.54c0.22,0.343,5.312,8.469-1.75,13.654C6.151,20.382,6,20.682,6,21v3h2c1.654,0,3,1.346,3,3v3c0,1.654-1.346,3-3,3H6v1h2c1.654,0,3,1.346,3,3v3c0,1.654-1.346,3-3,3H6v3c0,0.434,0.28,0.818,0.693,0.952C6.952,47.035,13.179,49,25,49s18.048-1.965,18.307-2.048C43.72,46.818,44,46.434,44,46v-3h-2C40.346,43,39,41.654,39,40z M36,41c0,1.159-0.841,2-2,2H16c-1.159,0-2-0.841-2-2V23c0-1.159,0.841-2,2-2h18c1.159,0,2,0.841,2,2V41z"/></g></svg>