<?xml version="1.0" encoding="iso-8859-1"?>
<!-- Generator: Adobe Illustrator 23.0.6, SVG Export Plug-In . SVG Version: 6.00 Build 0)  -->
<svg version="1.1" id="Filled" xmlns="http://www.w3.org/2000/svg" xmlns:xlink="http://www.w3.org/1999/xlink" x="0px" y="0px"
	 viewBox="0 0 50 50" style="enable-background:new 0 0 50 50;" xml:space="preserve">
<path d="M32.35,17.65L25,14.5l-7.35,3.15L14.5,25l3.15,7.35L25,35.5l7.35-3.15L35.5,25L32.35,17.65z"/>
<g>
	<path d="M25.037,4.037c-11.58,0-21,9.421-21,21s9.42,21,21,21s21-9.421,21-21S36.617,4.037,25.037,4.037z M33.483,32.069
		l3.261,3.261c0.391,0.391,0.391,1.023,0,1.414c-0.195,0.195-0.451,0.293-0.707,0.293s-0.512-0.098-0.707-0.293l-3.216-3.216
		l0.489,9.952l-6.566-7.392v4.949c0,0.553-0.448,1-1,1s-1-0.447-1-1v-4.921l-6.429,7.419l0.372-10.026l-3.236,3.236
		c-0.195,0.195-0.451,0.293-0.707,0.293s-0.512-0.098-0.707-0.293c-0.391-0.391-0.391-1.023,0-1.414l3.197-3.197l-9.851,0.891
		l7.247-6.987H9.037c-0.552,0-1-0.447-1-1s0.448-1,1-1h4.931L6.596,17.16l9.878,0.728l-3.643-3.643
		c-0.391-0.391-0.391-1.023,0-1.414s1.023-0.391,1.414,0l3.644,3.644l-0.722-9.882l6.87,7.374V9.037c0-0.553,0.448-1,1-1
		s1,0.447,1,1v4.963l7.029-7.286l-0.888,9.768l3.152-3.152c0.391-0.391,1.023-0.391,1.414,0s0.391,1.023,0,1.414l-3.101,3.101
		l9.799-0.716l-7.412,6.908h5.007c0.552,0,1,0.447,1,1s-0.448,1-1,1H36.19l7.253,6.764L33.483,32.069z"/>
</g>
</svg>