<?xml version="1.0" encoding="iso-8859-1"?>
<!-- Generator: Adobe Illustrator 23.0.3, SVG Export Plug-In . SVG Version: 6.00 Build 0)  -->
<svg version="1.1" id="Layer_1" xmlns="http://www.w3.org/2000/svg" xmlns:xlink="http://www.w3.org/1999/xlink" x="0px" y="0px"
	 viewBox="0 0 50 50" style="enable-background:new 0 0 50 50;" xml:space="preserve">
<g>
	<path d="M7.987,16.906c0.025-0.27,0.159-0.518,0.37-0.687l4.243-3.395L10.183,9.6C9.896,9.217,9.92,8.685,10.24,8.33L14.154,4H9
		C6.243,4,4,6.243,4,9v32c0,2.757,2.243,5,5,5h14c0,0,0-9.115,0-9.116c0-0.121,0.027-0.241,0.071-0.353
		c0.09-0.226,0.255-0.397,0.41-0.58c0.069-0.081,0.138-0.162,0.207-0.242C23.68,35.699,8.223,17.65,8.223,17.65
		C8.047,17.444,7.961,17.176,7.987,16.906z"/>
	<path d="M14.782,12.4c0.324,0.432,0.247,1.043-0.175,1.381l-4.193,3.354L25,34.178l14.586-17.042l-4.193-3.354
		c-0.422-0.337-0.499-0.949-0.175-1.381l2.506-3.341L33.15,4h-16.3l-4.573,5.059L14.782,12.4z M20.229,6l3.837,4.712l-2.148,4.824
		l3.012,10.145l3.138-10.329l-2.092-4.692L29.771,6H33l-8.093,26.634L17,6H20.229z"/>
	<path d="M41,4h-5.154l3.914,4.33c0.32,0.355,0.345,0.888,0.058,1.271l-2.418,3.225l4.243,3.395c0.211,0.169,0.345,0.417,0.37,0.687
		c0.026,0.27-0.06,0.538-0.235,0.744L25,37.254V46h16c2.757,0,5-2.243,5-5V9C46,6.243,43.757,4,41,4z M28.5,42
		c-0.828,0-1.5-0.672-1.5-1.5s0.672-1.5,1.5-1.5s1.5,0.672,1.5,1.5S29.328,42,28.5,42z"/>
</g>
</svg>