<svg xmlns="http://www.w3.org/2000/svg"  viewBox="0 0 46 46" width="500px" height="500px"><title>ios-fld_apron</title><g id="Слой_2" data-name="Слой 2"><g id="Слой_6" data-name="Слой 6"><path d="M22.99,1h.02A6.99,6.99,0,0,1,30,7.99V13a0,0,0,0,1,0,0H16a0,0,0,0,1,0,0V7.99A6.99,6.99,0,0,1,22.99,1Z" fill="none" stroke="#000" stroke-miterlimit="10" stroke-width="2"/><path d="M18,31a2,2,0,0,0,2,2h6a2,2,0,0,0,2-2V25H18Z"/><path d="M37,19a6.006,6.006,0,0,1-6-6,1,1,0,0,0-1-1H16a1,1,0,0,0-1,1,6.006,6.006,0,0,1-6,6,1,1,0,0,0-1,1V41a5.006,5.006,0,0,0,5,5H33a5.006,5.006,0,0,0,5-5V20A1,1,0,0,0,37,19ZM30,31a4,4,0,0,1-4,4H20a4,4,0,0,1-4-4V24a1,1,0,0,1,1-1H29a1,1,0,0,1,1,1Z"/><path d="M9,20s-5,0-5,5c0,3,1,10-4,10" fill="none" stroke="#000" stroke-linejoin="round" stroke-width="2"/><path d="M37,20s5,0,5,5c0,3-1,10,4,10" fill="none" stroke="#000" stroke-linejoin="round" stroke-width="2"/></g></g></svg>