<?xml version="1.0" encoding="iso-8859-1"?><!-- Generator: Adobe Illustrator 21.0.2, SVG Export Plug-In . SVG Version: 6.00 Build 0)  --><svg xmlns="http://www.w3.org/2000/svg" xmlns:xlink="http://www.w3.org/1999/xlink" viewBox="0 0 50 50" width="500px" height="500px"><g><g><path d="M47.999,43c-0.155,0-0.313-0.036-0.462-0.113l-46-24c-0.489-0.255-0.679-0.86-0.424-1.349c0.255-0.49,0.857-0.68,1.35-0.424l46,24c0.489,0.255,0.679,0.86,0.424,1.349C48.708,42.805,48.359,43,47.999,43z"/></g><g><path d="M2.001,43c-0.36,0-0.709-0.195-0.888-0.538c-0.255-0.489-0.065-1.094,0.424-1.349l46-24c0.492-0.256,1.095-0.066,1.35,0.424c0.255,0.489,0.065,1.094-0.424,1.349l-46,24C2.314,42.964,2.156,43,2.001,43z"/></g></g><g><path d="M19,7h17.755c3.052,0,5.614,2.287,5.961,5.319L43.594,20h-21.76c-4.044,0-7.816,1.41-10.786,3.849L22.838,30l-1.918,1L9.659,25.126c-1.522,1.565-2.762,3.437-3.611,5.56l-3.977,9.942c-0.043,0.108-0.059,0.22-0.064,0.333C2.007,40.975,2,40.986,2,41c0,0.012,0.006,0.022,0.007,0.034c0.004,0.115,0.025,0.228,0.068,0.336c0.008,0.02,0.019,0.037,0.029,0.056c0.022,0.046,0.04,0.092,0.069,0.135c0.028,0.041,0.063,0.074,0.096,0.11c0.015,0.016,0.026,0.033,0.042,0.048c0.081,0.077,0.173,0.138,0.274,0.185c0.022,0.01,0.045,0.017,0.068,0.026C2.763,41.971,2.878,42,3,42h1.163L25,31.129L45.837,42H47c0.285,0,0.557-0.122,0.746-0.334c0.189-0.212,0.28-0.496,0.247-0.779l-2.131-18.641L29.08,31.001l-1.918-1l18.484-9.644l-0.945-8.265C44.24,8.049,40.823,5,36.755,5H19c-0.553,0-1,0.448-1,1S18.447,7,19,7z"/><polygon points="7.999,42 42.001,42 25,33.13 "/></g></svg>