<?xml version="1.0" encoding="iso-8859-1"?><!-- Generator: Adobe Illustrator 19.2.1, SVG Export Plug-In . SVG Version: 6.00 Build 0)  --><svg xmlns="http://www.w3.org/2000/svg" xmlns:xlink="http://www.w3.org/1999/xlink" viewBox="0 0 50 50" width="50px" height="50px"><circle style="fill:none;stroke:#000000;stroke-width:2;stroke-miterlimit:10;" cx="23" cy="6" r="2"/><circle style="fill:none;stroke:#000000;stroke-width:2;stroke-miterlimit:10;" cx="27" cy="6" r="2"/><path style="fill:none;stroke:#000000;stroke-width:2;stroke-linecap:round;stroke-linejoin:round;stroke-miterlimit:10;" d="M7,26.688V16c0-2.761,2.239-5,5-5h26c2.761,0,5,2.239,5,5v10.688"/><path style="fill:none;stroke:#000000;stroke-width:2;stroke-miterlimit:10;" d="M23,8c0,1.971-3,3-3,3"/><path style="fill:none;stroke:#000000;stroke-width:2;stroke-miterlimit:10;" d="M27,8c0,1.971,3,3,3,3"/><path d="M44.653,27.053C42.415,25.125,40,21.92,40,20.104V17c0-1.654-1.346-3-3-3H13c-1.654,0-3,1.346-3,3v3.104c0,1.817-2.415,5.022-4.653,6.949C2.548,29.464,2,32.159,2,36c0,5.192,9.836,11,23,11s23-5.808,23-11C48,32.159,47.452,29.464,44.653,27.053z M35,36c0,0.552-0.448,1-1,1s-1-0.448-1-1v-5c0-0.552,0.448-1,1-1s1,0.448,1,1V36z M34,29.5c-0.443,0-0.836-0.195-1.111-0.5H16c-0.552,0-1-0.448-1-1s0.448-1,1-1h16.889c0.275-0.305,0.668-0.5,1.111-0.5c0.828,0,1.5,0.672,1.5,1.5S34.828,29.5,34,29.5z"/></svg>