<?xml version="1.0" encoding="iso-8859-1"?>
<!-- Generator: Adobe Illustrator 23.1.0, SVG Export Plug-In . SVG Version: 6.00 Build 0)  -->
<svg version="1.1" id="Layer_1" xmlns="http://www.w3.org/2000/svg" xmlns:xlink="http://www.w3.org/1999/xlink" x="0px" y="0px"
	 viewBox="0 0 50 50" style="enable-background:new 0 0 50 50;" xml:space="preserve">
<line style="fill:none;stroke:#000000;stroke-width:2;stroke-linecap:round;stroke-linejoin:round;stroke-miterlimit:10;" x1="13" y1="33" x2="13" y2="47"/>
<circle cx="13" cy="44" r="2"/>
<line style="fill:none;stroke:#000000;stroke-width:2;stroke-linecap:round;stroke-linejoin:round;stroke-miterlimit:10;" x1="17" y1="31" x2="17" y2="43"/>
<circle cx="17" cy="40" r="2"/>
<path style="fill:none;stroke:#000000;stroke-width:2;stroke-linecap:round;stroke-linejoin:round;stroke-miterlimit:10;" d="
	M13.788,20.5c0-6.904,1.649-12.5,3.684-12.5H11v0.027C9.039,8.308,7.473,13.776,7.473,20.5S9.039,32.692,11,32.973V33h6.473
	C15.438,33,13.788,27.404,13.788,20.5z"/>
<g>
	<path d="M7.473,20.5c0-3.808,0.503-7.211,1.295-9.5H3c-0.553,0-1,0.447-1,1v17c0,0.553,0.447,1,1,1h5.768
		C7.976,27.712,7.473,24.309,7.473,20.5z"/>
	<path d="M44,20L44,20l3.5,0c1.381,0,2.5-1.119,2.5-2.5c0-1.38-1.117-2.498-2.496-2.5H44c-0.553,0-1-0.447-1-1s0.447-1,1-1v0h2.5
		c1.381,0,2.5-1.119,2.5-2.5C49,9.119,47.881,8,46.5,8h-7.844c-1.246-2.656-3.014-3.718-4.322-4.138
		c-2.089-0.672-3.988-0.076-4.705,0.21c-4.981,1.993-6.993,2.993-7.076,3.034c-0.08,0.04-1.641,0.851-2.815,3.005
		c-0.482-1.473-1.141-2.621-2.061-2.978C17.529,7.048,17.359,7,17.178,7H12c-0.553,0-1,0.447-1,1h6.472
		c-2.035,0-3.684,5.596-3.684,12.5c0,6.904,1.649,12.5,3.684,12.5H11c0,0,0,0,0,0c0,0.553,0.447,1,1,1h5.178
		c0.169,0,0.328-0.045,0.468-0.122c1.005-0.369,1.708-1.664,2.202-3.313C20.923,31.915,23.295,34,28,34h17l-1,0h0.5
		c1.381,0,2.5-1.119,2.5-2.5c0-1.38-1.117-2.498-2.496-2.5H43c-0.553,0-1-0.447-1-1s0.447-1,1-1h1v0h2.5c1.381,0,2.5-1.119,2.5-2.5
		c0-1.38-1.117-2.498-2.496-2.5H44c-0.553,0-1-0.447-1-1S43.447,20,44,20z"/>
</g>
<line style="fill:none;stroke:#000000;stroke-width:2;stroke-linecap:round;stroke-linejoin:round;stroke-miterlimit:10;" x1="9" y1="13" x2="14" y2="13"/>
<line style="fill:none;stroke:#000000;stroke-width:2;stroke-linecap:round;stroke-linejoin:round;stroke-miterlimit:10;" x1="8" y1="18" x2="13" y2="18"/>
<line style="fill:none;stroke:#000000;stroke-width:2;stroke-linecap:round;stroke-linejoin:round;stroke-miterlimit:10;" x1="8" y1="23" x2="13" y2="23"/>
<line style="fill:none;stroke:#000000;stroke-width:2;stroke-linecap:round;stroke-linejoin:round;stroke-miterlimit:10;" x1="9" y1="28" x2="14" y2="28"/>
</svg>