<?xml version="1.0" encoding="iso-8859-1"?><!-- Generator: Adobe Illustrator 19.1.1, SVG Export Plug-In . SVG Version: 6.00 Build 0)  --><svg xmlns="http://www.w3.org/2000/svg" xmlns:xlink="http://www.w3.org/1999/xlink" viewBox="0 0 50 50" width="500px" height="500px"><path d="M34,42H16c-3.309,0-6-2.691-6-6V14c0-3.309,2.691-6,6-6h18c3.309,0,6,2.691,6,6v2.353c0,0.552-0.447,1-1,1s-0.553,3.325,0,3.325s1,0.448,1,1V36C40,39.309,37.309,42,34,42z"/><path fill="none" stroke="#000000" stroke-width="2" stroke-miterlimit="10" d="M39.457,22h0.378C40.478,22,41,21.478,41,20.835v-3.67C41,16.522,40.478,16,39.835,16h-0.366c0,0-1.038,0.325-1.038,2.996S39.457,22,39.457,22z"/><path fill="none" stroke="#000000" stroke-width="2" stroke-miterlimit="10" d="M36.73,9.81c-0.848-0.997-2.886-1.342-3.497-4.594c-0.304-1.62-0.419-1.383-0.545-2.359C32.508,1.467,30.14,1,25.069,1S17.5,1.414,17.312,2.857c-0.115,0.884-0.246,0.556-0.545,2.359c-0.542,3.264-2.65,3.598-3.497,4.594"/><path fill="none" stroke="#000000" stroke-width="2" stroke-miterlimit="10" d="M13.27,40.19c0.848,0.997,2.886,1.342,3.497,4.594c0.304,1.62,0.419,1.383,0.545,2.359C17.492,48.533,19.86,49,24.931,49s7.569-0.414,7.757-1.857c0.115-0.884,0.246-0.556,0.545-2.359c0.542-3.264,2.65-3.598,3.497-4.594"/><path d="M39,34h1c0.552,0,1-0.448,1-1v-6c0-0.552-0.448-1-1-1h-1V34z"/></svg>