<?xml version="1.0" encoding="iso-8859-1"?>
<!-- Generator: Adobe Illustrator 23.0.3, SVG Export Plug-In . SVG Version: 6.00 Build 0)  -->
<svg version="1.1" xmlns="http://www.w3.org/2000/svg" xmlns:xlink="http://www.w3.org/1999/xlink" x="0px" y="0px"
	 viewBox="0 0 50 50" style="enable-background:new 0 0 50 50;" xml:space="preserve">
<g id="&#x421;&#x43B;&#x43E;&#x439;_1" style="display:none;">
</g>
<g id="ref">
</g>
<g id="&#x421;&#x43B;&#x43E;&#x439;_3">
</g>
<g id="Layer_4">
	<g id="&#x421;&#x43B;&#x43E;&#x439;_7">
	</g>
</g>
<g id="&#x421;&#x43B;&#x43E;&#x439;_5">
</g>
<g id="&#x421;&#x43B;&#x43E;&#x439;_6">
	<path d="M38,14c0-0.552-0.447-1-1-1s-1,0.448-1,1c0,1.654-1.346,3-3,3s-3-1.346-3-3c0-0.552-0.447-1-1-1s-1,0.448-1,1
		c0,1.654-1.346,3-3,3s-3-1.346-3-3c0-0.552-0.447-1-1-1s-1,0.448-1,1c0,1.654-1.346,3-3,3c-1.236,0-2.298-0.751-2.757-1.821
		l-0.014-0.034C14.083,14.792,14,14.406,14,14c0-0.552-0.447-1-1-1s-1,0.448-1,1c0,0.646,0.133,1.259,0.357,1.827l-0.008,0.003
		l0.043,0.109c0.001,0.003,0.002,0.006,0.003,0.008l11.674,29.418C24.22,45.749,24.589,46,25,46s0.78-0.251,0.931-0.634
		l11.59-29.234l-0.013-0.005C37.814,15.479,38,14.763,38,14z"/>
	
		<line style="fill:none;stroke:#000000;stroke-width:2;stroke-linecap:round;stroke-linejoin:round;stroke-miterlimit:10;" x1="25" y1="47" x2="25" y2="44"/>
	<path d="M25,15c0.552,0,1-0.449,1-1V6c0-1.103,0.897-2,2-2s2,0.897,2,2c0,0.552,0.447,1,1,1s1-0.448,1-1c0-2.206-1.794-4-4-4
		s-4,1.794-4,4v8C24,14.551,24.448,15,25,15z"/>
</g>
</svg>