<?xml version="1.0" encoding="utf-8"?><!-- Generator: Adobe Illustrator 15.0.0, SVG Export Plug-In . SVG Version: 6.00 Build 0)  --><!DOCTYPE svg PUBLIC "-//W3C//DTD SVG 1.1//EN" "http://www.w3.org/Graphics/SVG/1.1/DTD/svg11.dtd"><svg xmlns="http://www.w3.org/2000/svg" xmlns:xlink="http://www.w3.org/1999/xlink" viewBox="0 0 50 50" width="500px" height="500px"><path d="M32.183,45.91L32.183,45.91c-3.595,0-7.102-0.437-11.163-0.941c-1.78-0.222-3.671-0.457-5.726-0.675c-2.12-0.215-4.626-0.324-7.444-0.324c-2.394,0-4.349,0.079-5.185,0.113c-0.195,0.009-0.335,0.014-0.414,0.016c-0.04,0.003-0.079,0.006-0.106,0.006c-2.028,0-2.247-3.92-2.247-5.604c0-5.674,0.485-8.322,1.731-9.443C1.814,28.892,2.053,28.8,2.3,28.8c3.017,0,5.021,1.109,6.79,2.089C10.651,31.753,12,32.5,13.9,32.5c4.201,0,6.453-2.155,8.097-3.729C23.031,27.781,23.848,27,24.9,27c0.856,0,1.907,0.576,3.497,1.447C31.412,30.101,35.969,32.6,41.8,32.6c1.679,0,4.803,0.519,6.86,3.99c1.727,2.836,0.205,4.923,0.14,5.011c-0.035,0.047-0.074,0.091-0.117,0.131c-0.133,0.123-3.349,3.039-12.28,3.964C35.017,45.84,33.636,45.91,32.183,45.91z"/><g><path d="M36.609,47.685c-1.455,0.151-2.903,0.226-4.427,0.226c-3.714,0-7.273-0.442-11.41-0.957c-1.794-0.223-3.649-0.454-5.68-0.669c-2.056-0.209-4.493-0.314-7.242-0.314c-2.375,0-4.287,0.078-5.095,0.111c-0.18,0.008-0.318,0.013-0.408,0.016c-0.077,0.005-0.149,0.008-0.202,0.008c-0.612,0-1.384-0.152-2.102-0.714C0.018,45.605,0,45.838,0,46.1c0,2.478,0.728,3.898,2.058,3.898c0,0,0.001,0,0.002,0c12.486-0.749,18.329-0.469,23.481-0.223C27.957,49.891,30.237,50,33,50c7.028,0,10.89-1.468,15.172-3.371C49.334,46.163,50,45.132,50,43.8c0-0.185-0.014-0.362-0.035-0.533C49.321,43.832,45.601,46.753,36.609,47.685z"/></g><g><path d="M14.212,13.15c-0.527,0.171-1.09-0.113-1.263-0.638c-0.172-0.525,0.113-1.09,0.638-1.263c7.095-2.332,16.212-1.568,21.937,0.154c0.021,0.007,0.044,0.013,0.065,0.02c0.137,0.042,0.282,0.081,0.416,0.124c0.027,0.009,0.047,0.03,0.073,0.041c0.309,0.103,0.611,0.212,0.907,0.326c0.896-1.765,1.314-4.583-0.854-7.769c-1.751-2.626-5.135-4.133-9.284-4.133c-8.262,0-16.635,5.517-22.396,14.758c-0.178,0.287-0.201,0.644-0.059,0.95c0.142,0.306,0.428,0.52,0.762,0.569c0.848,0.125,2.229,0.891,3.827,1.779c3.914,2.173,9.828,5.457,18.089,5.457c0.001,0,0.001,0,0.002,0c0.417,0,0.839-0.008,1.271-0.026c5.271-0.224,7.397-2.653,8.253-4.651c0.687-1.604,0.716-3.293,0.433-4.653c-0.865-0.417-1.842-0.801-2.964-1.128C28.619,11.616,20.543,11.068,14.212,13.15z"/><path d="M44.7,16.7c0,0-3.083-3.008-7.714-4.786c-0.143,0.282-0.297,0.54-0.456,0.765c0.209,0.421,0.378,0.942,0.498,1.516c2.857,1.377,4.451,3.132,5.672,4.505C43.6,19.6,45.7,18,44.7,16.7z"/></g></svg>