<?xml version="1.0" encoding="utf-8"?><!-- Generator: Adobe Illustrator 15.0.0, SVG Export Plug-In . SVG Version: 6.00 Build 0)  --><!DOCTYPE svg PUBLIC "-//W3C//DTD SVG 1.1//EN" "http://www.w3.org/Graphics/SVG/1.1/DTD/svg11.dtd"><svg xmlns="http://www.w3.org/2000/svg" xmlns:xlink="http://www.w3.org/1999/xlink" viewBox="0 0 50 50" width="500px" height="500px"><path d="M42.355,42.652c-0.265,0-0.52-0.104-0.708-0.293L7.515,8.172C7.242,7.9,7.151,7.495,7.28,7.132c0.128-0.363,0.455-0.62,0.837-0.661c7.267-0.766,11.136-4.162,12.796-6.118C21.104,0.129,21.382,0,21.676,0h6.649c0.294,0,0.572,0.129,0.763,0.353c1.464,1.726,5.78,5.788,14.234,6.232c0.41,0.021,0.766,0.292,0.896,0.682l1.263,3.783c0.122,0.363,0.024,0.765-0.25,1.032c-2.233,2.179-5.979,6.793-5.979,13.209c0,6.196,3.549,10.738,5.664,12.895c0.331,0.338,0.381,0.861,0.118,1.255l-1.846,2.766c-0.167,0.25-0.436,0.411-0.734,0.44C42.421,42.65,42.388,42.652,42.355,42.652z"/><path d="M49,50c-0.256,0-0.512-0.098-0.707-0.293l-48-48c-0.391-0.391-0.391-1.023,0-1.414s1.023-0.391,1.414,0l48,48c0.391,0.391,0.391,1.023,0,1.414C49.512,49.902,49.256,50,49,50z"/><path d="M5.262,9.504L4.57,10.929c-0.188,0.387-0.106,0.852,0.202,1.152c2.233,2.179,5.979,6.793,5.979,13.209c0,6.196-3.549,10.738-5.664,12.895c-0.332,0.338-0.381,0.861-0.118,1.255l2.734,4.1c0.029,0.043,0.065,0.077,0.099,0.114c0.015,0.017,0.027,0.035,0.043,0.05c0.082,0.079,0.175,0.141,0.275,0.186c0.022,0.011,0.044,0.018,0.066,0.025c0.111,0.042,0.227,0.069,0.346,0.07c0,0,0.001,0,0.001,0c8.377,0,12.965,3.57,15.17,5.286c0.275,0.214,0.511,0.397,0.711,0.541C24.59,49.938,24.795,50,25,50s0.409-0.063,0.583-0.188c0.201-0.144,0.438-0.327,0.713-0.542c1.787-1.391,5.019-3.903,10.505-4.884c0.022-0.004,0.046-0.007,0.068-0.011c0.336-0.059,0.68-0.113,1.032-0.16c0.604-0.08,1.239-0.137,1.895-0.176L5.262,9.504z"/></svg>