<?xml version="1.0" encoding="iso-8859-1"?><!-- Generator: Adobe Illustrator 21.1.0, SVG Export Plug-In . SVG Version: 6.00 Build 0)  --><svg xmlns="http://www.w3.org/2000/svg" xmlns:xlink="http://www.w3.org/1999/xlink" viewBox="0 0 50 50" width="50px" height="50px"><path d="M29.06,1c-3.7,0-14.94,0-14.94,15.77c0,1.84,0.08,4.07,0.22,6.06c-0.87-0.7-1.44-1.15-1.49-1.19c-2.62-2.08-6.48-1.67-8.59,0.92c-0.98,1.21-1.41,2.79-1.22,4.46c0.2,1.65,1.01,3.17,2.17,4.07c6.72,5.18,9.34,8.51,10.29,10.54c0,0.01,0,0.01,0,0.01c0.37,0.8,0.48,1.39,0.48,1.82v1.77c0,2.08,1.71,3.77,3.81,3.77h16.67c2.1,0,3.8-1.69,3.8-3.77v-1.77c0-0.72,0.07-1.48,0.19-2.29c0.25-1.73,0.74-3.67,1.27-5.81C42.79,31.05,44,26.17,44,20.54C44,8.3,38.41,1,29.06,1z M20.93,24.77c-0.54-0.14-0.86-0.69-0.72-1.22c0.14-0.54,0.69-0.86,1.22-0.72l2.77,0.73L26.96,22l-2.76-1.56l-2.77,0.73c-0.08,0.02-0.17,0.03-0.25,0.03c-0.45,0-0.85-0.3-0.97-0.75c-0.14-0.53,0.18-1.08,0.72-1.22l0.76-0.2l-1.18-0.66c-0.48-0.27-0.65-0.88-0.38-1.36c0.27-0.48,0.88-0.65,1.36-0.38l1.24,0.7l-0.21-0.76c-0.14-0.54,0.17-1.09,0.7-1.23c0.53-0.15,1.08,0.16,1.23,0.7l0.74,2.67L28,20.29v-3.11l-2.01-1.96c-0.39-0.39-0.4-1.02-0.01-1.42c0.38-0.39,1.01-0.4,1.41-0.02L28,14.37V13c0-0.55,0.45-1,1-1s1,0.45,1,1v1.37l0.61-0.59c0.4-0.38,1.03-0.37,1.42,0.02c0.38,0.4,0.37,1.03-0.02,1.42L30,17.18v3.11l2.81-1.58l0.74-2.67c0.14-0.54,0.69-0.85,1.23-0.7c0.53,0.14,0.84,0.69,0.7,1.23l-0.21,0.76l1.24-0.7c0.48-0.27,1.09-0.1,1.36,0.38c0.27,0.48,0.1,1.09-0.38,1.36l-1.18,0.66l0.76,0.2c0.54,0.14,0.86,0.69,0.72,1.22c-0.12,0.45-0.52,0.75-0.97,0.75c-0.08,0-0.17-0.01-0.25-0.03l-2.77-0.73L31.04,22l2.76,1.56l2.77-0.73c0.53-0.14,1.08,0.18,1.22,0.72c0.14,0.53-0.18,1.08-0.72,1.22l-0.76,0.2l1.18,0.66c0.48,0.27,0.65,0.88,0.38,1.36c-0.18,0.33-0.52,0.51-0.87,0.51c-0.17,0-0.33-0.04-0.49-0.13l-1.24-0.7l0.21,0.76c0.14,0.54-0.17,1.09-0.7,1.23c-0.09,0.03-0.18,0.04-0.27,0.04c-0.44,0-0.84-0.29-0.96-0.74l-0.74-2.67L30,23.71v3.11l2.01,1.96c0.39,0.39,0.4,1.02,0.02,1.42c-0.2,0.2-0.46,0.3-0.72,0.3c-0.25,0-0.5-0.09-0.7-0.28L30,29.63V31c0,0.55-0.45,1-1,1s-1-0.45-1-1v-1.37l-0.61,0.59c-0.4,0.38-1.03,0.37-1.41-0.02c-0.39-0.4-0.38-1.03,0.01-1.42L28,26.82v-3.11l-2.81,1.58l-0.74,2.67c-0.12,0.45-0.52,0.74-0.96,0.74c-0.09,0-0.18-0.01-0.27-0.04c-0.53-0.14-0.84-0.69-0.7-1.23l0.21-0.76l-1.24,0.7c-0.16,0.09-0.32,0.13-0.49,0.13c-0.35,0-0.69-0.18-0.87-0.51c-0.27-0.48-0.1-1.09,0.38-1.36l1.18-0.66L20.93,24.77z M38.26,43.46v1.77c0,0.98-0.8,1.77-1.8,1.77H19.79c-1,0-1.81-0.79-1.81-1.77v-1.77c0-0.37-0.05-0.74-0.13-1.14C19.71,42.62,23.04,43,28,43c4.84,0,8.47-0.46,10.32-0.76C38.28,42.66,38.26,43.06,38.26,43.46z"/></svg>