<?xml version="1.0" encoding="iso-8859-1"?><!-- Generator: Adobe Illustrator 21.0.2, SVG Export Plug-In . SVG Version: 6.00 Build 0)  --><svg xmlns="http://www.w3.org/2000/svg" xmlns:xlink="http://www.w3.org/1999/xlink" viewBox="0 0 50 50" width="500px" height="500px"><g><g><path d="M47.999,38c-0.155,0-0.313-0.036-0.462-0.113l-46-24c-0.49-0.256-0.68-0.859-0.424-1.35c0.256-0.489,0.861-0.679,1.349-0.424l46,24c0.489,0.256,0.679,0.859,0.424,1.35C48.708,37.805,48.359,38,47.999,38z"/></g><g><path d="M2.001,38c-0.361,0-0.709-0.195-0.888-0.537c-0.255-0.49-0.065-1.094,0.424-1.35l46-24c0.494-0.256,1.094-0.065,1.35,0.424c0.255,0.49,0.065,1.094-0.424,1.35l-46,24C2.315,37.964,2.157,38,2.001,38z"/></g></g><g><path d="M10,25c0-1.516,0.23-2.978,0.65-4.358L4,17.173v19.912l8.212-4.285C10.818,30.524,10,27.859,10,25z"/><path d="M36.77,34.27C34.021,37.753,29.772,40,25,40c-4.772,0-9.02-2.247-11.77-5.73L4,39.086V45c0,0.553,0.448,1,1,1h40c0.553,0,1-0.447,1-1v-5.914L36.77,34.27z"/><path d="M46,37.085V17.173l-6.65,3.47C39.77,22.022,40,23.484,40,25c0,2.859-0.818,5.524-2.212,7.8L46,37.085z"/><path d="M11.276,18.968C13.604,13.694,18.875,10,25,10c6.125,0,11.396,3.694,13.724,8.968L46,15.172V5c0-0.553-0.447-1-1-1H5C4.448,4,4,4.447,4,5v10.172L11.276,18.968z"/></g></svg>