<?xml version="1.0" encoding="iso-8859-1"?>
<!-- Generator: Adobe Illustrator 23.0.6, SVG Export Plug-In . SVG Version: 6.00 Build 0)  -->
<svg version="1.1" id="Filled" xmlns="http://www.w3.org/2000/svg" xmlns:xlink="http://www.w3.org/1999/xlink" x="0px" y="0px"
	 viewBox="0 0 50 50" style="enable-background:new 0 0 50 50;" xml:space="preserve">
<path d="M21.846,17.324C22.79,17.146,23.899,17,25,17c1.103,0,2.214,0.147,3.159,0.325c0.234-0.617,0.415-1.265,0.559-1.931
	C27.635,15.182,26.325,15,25,15c-1.324,0-2.634,0.181-3.717,0.393C21.428,16.058,21.611,16.707,21.846,17.324z"/>
<path d="M44.449,29.152c-0.638-1.383-1.24-2.688-1.521-3.523c-1.3-3.249-3.042-5.168-4.225-6.183C37.918,20.99,37,23.357,37,26
	c0,2.566,0.554,4.557,1.052,5.834C39.139,33.909,39.934,35.563,40,36v11c0,0.553,0.448,1,1,1h5c0.552,0,1-0.447,1-1V36.132
	C47,34.783,45.943,32.388,44.449,29.152z"/>
<path d="M11.924,31.883C12.428,30.603,13,28.582,13,26c0-2.653-0.916-5.015-1.7-6.555c-1.185,1.019-2.935,2.951-4.249,6.238
	c-0.26,0.781-0.863,2.086-1.5,3.469C4.057,32.388,3,34.783,3,36.132V47c0,0.553,0.448,1,1,1h5c0.552,0,1-0.447,1-1L9.998,36.048
	C10.064,35.587,10.848,33.943,11.924,31.883z"/>
<path d="M37.021,18.335c-0.849-0.373-3.224-1.405-4.307-1.74C32.893,15.754,33,14.887,33,14v-4c0-4.411-3.589-8-8-8s-8,3.589-8,8v4
	c0,0.887,0.107,1.753,0.286,2.594c-1.227,0.396-3.484,1.377-4.307,1.74C13.892,20.073,15,22.831,15,26c0,4.445-1.492,7.399-2,8.278
	V47c0,0.553,0.448,1,1,1h22c0.552,0,1-0.447,1-1V34.278c-0.508-0.879-2-3.833-2-8.278C35,22.831,36.107,20.074,37.021,18.335z
	 M26,31c0,0.553-0.448,1-1,1s-1-0.447-1-1v-5c-1.968-2.143-5-7.623-5-12c0-3.309,2.691-6,6-6s6,2.691,6,6c0,4.377-3.032,9.857-5,12
	V31z"/>
</svg>