<?xml version="1.0" encoding="iso-8859-1"?>
<!-- Generator: Adobe Illustrator 23.0.3, SVG Export Plug-In . SVG Version: 6.00 Build 0)  -->
<svg version="1.1" id="Layer_1" xmlns="http://www.w3.org/2000/svg" xmlns:xlink="http://www.w3.org/1999/xlink" x="0px" y="0px"
	 viewBox="0 0 50 50" style="enable-background:new 0 0 50 50;" xml:space="preserve">
<g>
	<path d="M21,35h-3v3h-2v-3h-3v3H6V4h22v26.623c0.584-0.685,1.258-1.287,2-1.796V3c0-0.552-0.447-1-1-1H5C4.447,2,4,2.448,4,3v36
		c0,0.552,0.447,1,1,1h19.388l0.567-2H21V35z"/>
	<path d="M23.937,22.753c-0.665-2.311-2.584-4.016-4.923-4.556c1.468-0.742,2.487-2.248,2.487-4.003c0-2.481-2.019-4.5-4.5-4.5
		c-1.663,0-3.101,0.917-3.88,2.261c-0.031-0.011-0.052-0.038-0.086-0.043c-0.099-0.014-2.359-0.326-3.626,0.94
		c-1.267,1.268-0.954,3.529-0.94,3.625c0.032,0.219,0.204,0.391,0.423,0.423c0.032,0.005,0.315,0.044,0.725,0.044
		c0.794,0,2.063-0.148,2.9-0.984c0.096-0.096,0.167-0.207,0.246-0.313c0.386,1.121,1.194,2.035,2.242,2.56
		c-2.321,0.55-4.223,2.249-4.885,4.546l-1.495,5.19c-0.255,0.886,0.321,1.796,1.255,1.98l0.873,0.172h0.458L10.308,33h13.385
		l-0.903-2.905h0.514l0.873-0.172c0.934-0.184,1.51-1.093,1.255-1.98L23.937,22.753z"/>
	<path d="M36,27.915c1.692,0,3.151-0.95,3.92-2.334c0.175,0.418,0.415,0.819,0.755,1.159c0.998,0.998,2.52,1.175,3.475,1.175
		c0.494,0,0.837-0.047,0.876-0.053c0.219-0.032,0.391-0.204,0.423-0.423c0.017-0.115,0.392-2.835-1.123-4.35
		c-1.266-1.265-3.369-1.212-4.094-1.149c-0.614-1.755-2.269-3.025-4.231-3.025c-2.481,0-4.5,2.019-4.5,4.5S33.519,27.915,36,27.915z
		"/>
	<path d="M45.926,41.385l-1.833-6.465C43.102,31.422,39.851,29,36.147,29h-0.293c-3.705,0-6.955,2.422-7.947,5.92l-1.833,6.465
		c-0.313,1.104,0.394,2.237,1.539,2.466l0.643,0.128l-0.735,2.417c-0.046,0.151-0.018,0.316,0.077,0.443
		c0.094,0.127,0.243,0.202,0.401,0.202h16c0.158,0,0.308-0.075,0.401-0.202c0.095-0.127,0.123-0.292,0.077-0.443l-0.735-2.417
		l0.643-0.128C45.532,43.622,46.239,42.489,45.926,41.385z"/>
</g>
</svg>