<?xml version="1.0" encoding="iso-8859-1"?>
<!-- Generator: Adobe Illustrator 18.0.0, SVG Export Plug-In . SVG Version: 6.00 Build 0)  -->
<!DOCTYPE svg PUBLIC "-//W3C//DTD SVG 1.1//EN" "http://www.w3.org/Graphics/SVG/1.1/DTD/svg11.dtd">
<svg version="1.1" id="Layer_1" xmlns="http://www.w3.org/2000/svg" xmlns:xlink="http://www.w3.org/1999/xlink" x="0px" y="0px"
	 width="50px" height="50px" viewBox="0 0 50 50" style="enable-background:new 0 0 50 50;" xml:space="preserve">
<path d="M34.21,39.604c-0.188,0.189-0.451,0.253-0.71,0.296c-0.265,0-0.52-0.105-0.707-0.293l-3.334-3.334l-3.804,3.375
	c-0.189,0.168-0.426,0.252-0.664,0.252c-0.238,0-0.476-0.084-0.665-0.253l-3.787-3.373l-3.333,3.333
	c-0.188,0.188-0.442,0.293-0.707,0.293c-0.274,0.019-0.522-0.106-0.71-0.296l-3.439-3.471L12,36.469V44h26v-7.656l-0.281-0.281
	L34.21,39.604z"/>
<rect x="1" y="46" width="7" height="3"/>
<polygon points="12,46 12,49 25,49 38,49 38,46 "/>
<rect x="42" y="46" width="7" height="3"/>
<path d="M44.112,18.149c-0.911-2.763-2.556-5.39-4.973-7.108c-1.661,5.231-1.474,11.239,0.599,17.905l0.258,0.829L42,33.584V44h7
	V32.796L44.112,18.149z"/>
<g>
	<path d="M37.828,29.54c-1.191-3.831-1.88-7.399-1.9-10.826c-0.017-3.064,0.518-6.028,1.436-8.734
		c-1.369-0.677-2.904-1.198-4.466-1.614l-1.582,0.527C29.262,9.63,27.112,10.071,25,10.071c-2.114,0-4.189-0.441-6.327-1.182
		l-1.642-0.505c-1.534,0.412-3.04,0.927-4.386,1.592c0.905,2.665,1.429,5.44,1.427,8.452c-0.003,3.468-0.682,7.227-1.89,11.111
		L12,30.124v3.954c0.39-0.253,0.906-0.226,1.246,0.117l3.257,3.287l3.29-3.29c0.375-0.375,0.977-0.392,1.372-0.04l3.828,3.409
		l3.843-3.41c0.396-0.351,0.996-0.333,1.371,0.041l3.29,3.29l3.257-3.287c0.339-0.344,0.856-0.37,1.246-0.117v-3.986L37.828,29.54z"
		/>
	<path d="M10.272,28.946c2.074-6.669,2.261-12.678,0.597-17.911c-2.422,1.718-4.069,4.347-4.981,7.113L1,32.796V44h7V33.584
		l2.028-3.855L10.272,28.946z"/>
</g>
<path d="M19.294,6.989c3.866,1.338,7.68,1.34,11.368,0.014L31,6.891V2H19v4.899L19.294,6.989z"/>
</svg>