<?xml version="1.0" encoding="iso-8859-1"?><!-- Generator: Adobe Illustrator 21.1.0, SVG Export Plug-In . SVG Version: 6.00 Build 0)  --><svg xmlns="http://www.w3.org/2000/svg" xmlns:xlink="http://www.w3.org/1999/xlink" viewBox="0 0 50 50" width="500px" height="500px"><path d="M45.478,36.219c-1.688-0.663-3.103-1.907-3.986-3.514c-0.321-0.565-0.57-1.191-0.737-1.854c-0.07-0.286-0.152-0.535-0.237-0.852c-0.006-0.024-0.013,0.024-0.019,0c-0.986,0.71-2.191,1-3.495,1h-2.035h-2.465h-7.5h-7.463h-2.621h-1.916c-1.295,0-2.492-0.3-3.474-1c-0.018,0.069-0.036,0.023-0.054,0.091c-0.08,0.301-0.157,0.592-0.222,0.854c-0.172,0.681-0.424,1.318-0.756,1.903c-0.864,1.57-2.275,2.807-3.972,3.482c-2.048,0.812-3.053,3.139-2.241,5.19C2.884,43.027,4.344,44,6.002,44c0.452,0,0.942-0.027,1.48-0.231c3.405-1.356,6.248-3.854,8.001-7.028c0.298-0.529,0.557-1.08,0.782-1.632C18.605,34.563,21.791,34,25.002,34c3.237,0,6.451,0.575,8.779,1.12c0.213,0.51,0.446,1.001,0.717,1.485c1.767,3.192,4.617,5.698,8.02,7.052C42.935,43.826,43.438,44,44.002,44c1.61,0,3.104-1.037,3.72-2.582C48.531,39.375,47.528,37.044,45.478,36.219z"/><g><path d="M33.002,11c2.68,0,5.111,1.065,6.909,2.787C39.315,9.398,35.553,6,31.002,6h-12c-4.551,0-8.313,3.398-8.909,7.787C11.891,12.065,14.322,11,17.002,11H33.002z"/></g><g><g><path d="M33.002,13h-16C12.591,13,9,16.589,9,21v4c0,2.206,1.796,4,4.002,4h24C39.208,29,41,27.206,41,25v-4C41,16.589,37.413,13,33.002,13z M27.496,25.026l-2.494-1.311l-2.494,1.311l0.477-2.776l-2.018-1.967l2.788-0.405l1.247-2.527l1.247,2.527l2.788,0.405l-2.018,1.967L27.496,25.026z"/></g></g></svg>