<?xml version="1.0" encoding="utf-8"?><!-- Generator: Adobe Illustrator 19.1.1, SVG Export Plug-In . SVG Version: 6.00 Build 0)  --><svg xmlns="http://www.w3.org/2000/svg" xmlns:xlink="http://www.w3.org/1999/xlink" viewBox="0 0 50 50" width="500px" height="500px"><path d="M25,48c-0.3,0-0.6-0.1-0.8-0.4l-3-4c-0.3-0.4-0.3-1,0.1-1.3l3-3c0.4-0.4,1-0.4,1.4,0l3,3c0.4,0.4,0.4,0.9,0.1,1.3l-3,4C25.6,47.9,25.3,48,25,48z"/><path d="M25,39c-2.2,0-4-1.8-4-4s1.8-4,4-4c2.2,0,4,1.8,4,4S27.2,39,25,39z"/><path d="M32,36c-1.7,0-3-1.3-3-3s1.3-3,3-3s3,1.3,3,3S33.7,36,32,36z"/><path d="M36.5,32c-1.4,0-2.5-1.1-2.5-2.5s1.1-2.5,2.5-2.5s2.5,1.1,2.5,2.5S37.9,32,36.5,32z"/><path d="M38.5,26c-1.4,0-2.5-1.1-2.5-2.5s1.1-2.5,2.5-2.5s2.5,1.1,2.5,2.5S39.9,26,38.5,26z"/><path d="M38.5,20c-1.4,0-2.5-1.1-2.5-2.5s1.1-2.5,2.5-2.5s2.5,1.1,2.5,2.5S39.9,20,38.5,20z"/><circle cx="37.5" cy="12.5" r="1.5"/><circle cx="35.5" cy="8.5" r="1.5"/><circle cx="32.5" cy="5.6" r="1.5"/><circle cx="28.5" cy="3.6" r="1.5"/><path d="M18,36c-1.7,0-3-1.3-3-3s1.3-3,3-3s3,1.3,3,3S19.7,36,18,36z"/><path d="M13.5,32c-1.4,0-2.5-1.1-2.5-2.5s1.1-2.5,2.5-2.5s2.5,1.1,2.5,2.5S14.9,32,13.5,32z"/><path d="M11.5,26C10.1,26,9,24.9,9,23.5s1.1-2.5,2.5-2.5s2.5,1.1,2.5,2.5S12.9,26,11.5,26z"/><path d="M11.5,20C10.1,20,9,18.9,9,17.5s1.1-2.5,2.5-2.5s2.5,1.1,2.5,2.5S12.9,20,11.5,20z"/><circle cx="12.5" cy="12.5" r="1.5"/><circle cx="14.5" cy="8.5" r="1.5"/><circle cx="17.5" cy="5.6" r="1.5"/><circle cx="21.5" cy="3.6" r="1.5"/><circle cx="25" cy="3" r="1"/></svg>