<?xml version="1.0" encoding="iso-8859-1"?>
<!-- Generator: Adobe Illustrator 24.1.1, SVG Export Plug-In . SVG Version: 6.00 Build 0)  -->
<svg version="1.1" id="&#x421;&#x43B;&#x43E;&#x439;_1"
	 xmlns="http://www.w3.org/2000/svg" xmlns:xlink="http://www.w3.org/1999/xlink" x="0px" y="0px" viewBox="0 0 50 50"
	 style="enable-background:new 0 0 50 50;" xml:space="preserve">
<g>
	<path d="M19.011,0.989c0,0-0.001,3.349,3.347,3.349l-2.231,2.233C20.127,6.571,16.337,4.38,19.011,0.989z"/>
	<path d="M31.004,1c0,0,0.001,3.349-3.347,3.349l2.231,2.233C29.888,6.581,33.783,4.283,31.004,1z"/>
	<path d="M7.811,45.762c1.3,1.086,4.152,2.976,8.47,3.213c0.513,0.028,0.956-0.37,1.023-0.879C20.137,26.699,25,16,25,16l-4.462-3
		c-1.808,0.223-4.747,1.226-5.589,2.246c-4.78,5.789-7.281,24.232-7.832,28.749C7.036,44.665,7.292,45.329,7.811,45.762z"/>
	<path d="M42.189,45.762c-1.3,1.086-4.15,2.975-8.465,3.213c-0.515,0.028-0.959-0.374-1.024-0.886C29.868,25.736,25,16,25,16
		l4.462-3c1.808,0.223,4.735,1.236,5.589,2.246c4.766,5.64,7.28,24.215,7.832,28.749C42.964,44.666,42.708,45.329,42.189,45.762z"/>
	<path d="M31,9.835c0-4.252-3.376-6.657-5.063-7.593c-0.582-0.323-1.292-0.323-1.874,0C22.376,3.179,19,5.583,19,9.835
		c0,1.134,1.203,3.407,1.203,3.407l0.127,0.27L25,16c0,0-5.725-4.569-2.005-9.134c0-0.001,0-0.007,0-0.007l0.003,0.002
		c0,0,0.001-0.001,0.001-0.002l2,1.016l1.996-1.016c0,0,0,0.002,0,0.002L27,6.859C30.811,11.444,25,16,25,16l4.8-2.386l-0.003-0.372
		C29.797,13.243,31,10.969,31,9.835z"/>
</g>
<path style="fill:none;stroke:#000000;stroke-width:2;stroke-miterlimit:10;" d="M17,43c0,0,3-1,8-1s8,1,8,1"/>
</svg>