<?xml version="1.0" encoding="iso-8859-1"?><!-- Generator: Adobe Illustrator 21.1.0, SVG Export Plug-In . SVG Version: 6.00 Build 0)  --><svg xmlns="http://www.w3.org/2000/svg" xmlns:xlink="http://www.w3.org/1999/xlink" viewBox="0 0 50 50" width="500px" height="500px"><path d="M43.604,4.399c-4.229-0.529-8.98-0.529-13.209,0C27.89,4.712,26,6.846,26,9.363v31.28c0,2.517,1.889,4.651,4.394,4.964C32.492,45.868,34.715,46,37,46c2.292,0,4.515-0.132,6.606-0.394C46.111,45.294,48,43.161,48,40.643V9.363C48,6.846,46.11,4.712,43.604,4.399z M42,35c0-11-5.001-19.5-5.001-19.5S32,25,32,35h-3c0-15,7-24,7-24h2c0,0,6.993,9,6.993,24H42z"/><path d="M19.604,4.399c-4.229-0.529-8.98-0.529-13.209,0C3.89,4.712,2,6.846,2,9.363v31.28c0,2.517,1.889,4.651,4.394,4.964C8.492,45.868,10.715,46,13,46c2.292,0,4.515-0.132,6.606-0.394C22.111,45.294,24,43.161,24,40.643V9.363C24,6.846,22.11,4.712,19.604,4.399z M18,35c0-11-5.001-19.5-5.001-19.5S8,25,8,35H5c0-15,7-24,7-24h2c0,0,6.993,9,6.993,24H18z"/></svg>