<?xml version="1.0" encoding="iso-8859-1"?>
<!-- Generator: Adobe Illustrator 24.1.2, SVG Export Plug-In . SVG Version: 6.00 Build 0)  -->
<svg version="1.1" baseProfile="basic" id="Layer_1"
	 xmlns="http://www.w3.org/2000/svg" xmlns:xlink="http://www.w3.org/1999/xlink" x="0px" y="0px" viewBox="0 0 50 50"
	 xml:space="preserve">
<path d="M21,1h-8c-1.654,0-3,1.346-3,3v2c0,1.654,1.346,3,3,3h8c1.654,0,3-1.346,3-3V4C24,2.346,22.654,1,21,1z"/>
<path d="M42,30v-1c0-12.112-5.888-18-18-18H13c-0.414,0-0.786,0.255-0.934,0.643C11.926,12.009,9.11,19.473,8.248,30H42z
	 M26.259,16.245c5.802,0.57,8.882,3.276,9.612,8.358c0.094,0.651-0.455,1.216-1.109,1.153c-5.815-0.564-8.901-3.267-9.614-8.362
	C25.057,16.745,25.605,16.181,26.259,16.245z"/>
<path d="M8,44v1c0,2.206,1.794,4,4,4h26c2.206,0,4-1.794,4-4v-1H8z"/>
<path d="M42,32H8.113C8.041,33.296,8,34.631,8,36v6h34V32z"/>
</svg>