<?xml version="1.0" encoding="utf-8"?><!-- Generator: Adobe Illustrator 15.0.0, SVG Export Plug-In . SVG Version: 6.00 Build 0)  --><!DOCTYPE svg PUBLIC "-//W3C//DTD SVG 1.1//EN" "http://www.w3.org/Graphics/SVG/1.1/DTD/svg11.dtd"><svg xmlns="http://www.w3.org/2000/svg" xmlns:xlink="http://www.w3.org/1999/xlink" viewBox="0 0 50 50" width="500px" height="500px"><path d="M46,47H32c-7.388,0-11.165-5.385-14.496-10.135c-2.104-3-4.093-5.837-6.69-6.866c-3.102-0.035-5.453-0.944-6.989-2.704C1.7,24.862,1.941,21.674,2,21.134c0.012-1.73,0.502-4.582,1.022-7.599c0.413-2.397,0.84-4.875,0.981-6.616C4.045,6.4,4.479,6,5,6h18c0.519,0,0.951,0.396,0.996,0.914c1.035,11.905,9.142,18.781,15.656,24.306C44.668,35.475,49,39.148,49,44C49,44.82,49,47,46,47z"/><g><path d="M10.374,31.989c-2.577-0.089-4.723-0.733-6.417-1.916c0.03,0.082,0.06,0.163,0.09,0.245C5.431,34.061,7,38.303,7,46c0,0.553,0.448,1,1,1h3c0.552,0,1-0.447,1-1V33.162C11.469,32.669,10.93,32.259,10.374,31.989z"/></g></svg>