<?xml version="1.0" encoding="utf-8"?><!-- Generator: Adobe Illustrator 15.0.0, SVG Export Plug-In . SVG Version: 6.00 Build 0)  --><!DOCTYPE svg PUBLIC "-//W3C//DTD SVG 1.1//EN" "http://www.w3.org/Graphics/SVG/1.1/DTD/svg11.dtd"><svg xmlns="http://www.w3.org/2000/svg" xmlns:xlink="http://www.w3.org/1999/xlink" viewBox="0 0 50 50" width="500px" height="500px"><path d="M25,50c-0.256,0-0.512-0.098-0.707-0.293l-6-6c-0.227-0.228-0.332-0.55-0.28-0.867l5.439-33.622l-4.293-6.678c-0.153-0.239-0.198-0.531-0.123-0.805s0.263-0.503,0.517-0.63C19.643,1.061,21.801,0,25,0s5.356,1.061,5.447,1.105c0.254,0.127,0.442,0.356,0.517,0.63c0.075,0.274,0.031,0.566-0.123,0.805l-4.292,6.678l5.438,33.622c0.051,0.317-0.053,0.64-0.28,0.867l-6,6C25.512,49.902,25.256,50,25,50z"/></svg>