<?xml version="1.0" encoding="utf-8"?><!-- Generator: Adobe Illustrator 15.0.0, SVG Export Plug-In . SVG Version: 6.00 Build 0)  --><!DOCTYPE svg PUBLIC "-//W3C//DTD SVG 1.1//EN" "http://www.w3.org/Graphics/SVG/1.1/DTD/svg11.dtd"><svg xmlns="http://www.w3.org/2000/svg" xmlns:xlink="http://www.w3.org/1999/xlink" viewBox="0 0 50 50" width="500px" height="500px"><path d="M2.726,8.427c14.677,0.579,20.854,1.122,23.461,1.696c0.25-1.632,0.562-4.768-0.208-7.278c-0.109-0.357-0.408-0.623-0.775-0.69C19.101,1.033,3.803,1.001,3.155,1c0,0-0.001,0-0.001,0C2.666,1,2.249,1.353,2.167,1.834C2.145,1.971,1.656,4.939,1.699,8.427H2.726z"/><path d="M6.902,49c-0.561,0-0.896-0.229-1.078-0.421c-0.186-0.196-0.277-0.415-0.321-0.615c-0.116,0.517-0.581,0.912-1.208,0.999c-0.057,0.009-0.113,0.013-0.171,0.009c-0.001,0-1.696-0.058-2.12-0.058c-1.084,0-1.669-0.783-1.669-1.52L0.06,43.537C0.01,43.3-0.044,42.87,0.267,42.477c0.376-0.476,0.946-0.479,1.448-0.481c0.328-0.002,0.865-0.01,1.545-0.021c1.419-0.023,3.453-0.056,5.499-0.056c3.11,0,5.241,0.073,6.513,0.225c8.561,1.021,12.843,1.511,16.628,1.511c1.521,0,3.006-0.083,4.675-0.26c5.701-0.604,9.494-2.271,10.741-2.818c0.237-0.104,0.492-0.157,0.759-0.157c0.47,0,0.827,0.166,0.926,0.218c0.253,0.132,0.438,0.366,0.508,0.644c0.001,0.001,0.365,1.458,0.434,1.68c0.048,0.142,0.176,0.525-0.198,1.357c-0.099,0.219-0.272,0.396-0.49,0.496c-1.765,0.821-1.924,0.873-1.983,0.892c-0.119,0.041-0.263,0.064-0.41,0.064l0,0c-0.335,0-0.613-0.12-0.717-0.172c-0.167-0.083-0.308-0.212-0.406-0.37l-0.277-0.45c-0.276,0.111-0.494,0.194-0.668,0.258l-0.094,0.978c-0.018,0.185-0.086,0.361-0.199,0.509l-0.321,0.424c-0.154,0.203-0.38,0.339-0.632,0.381c-0.001,0-1.814,0.301-2.069,0.357c-0.071,0.017-0.21,0.034-0.283,0.034c-0.526,0-0.96-0.35-1.107-0.844c-0.075-0.118-0.181-0.283-0.274-0.424c-0.315,0.074-0.755,0.177-1.038,0.239c-0.091,0.201-0.172,0.392-0.217,0.51c-0.013,0.333-0.175,0.688-0.42,1.105c-0.161,0.273-0.441,0.454-0.757,0.487c-0.18,0.02-1.776,0.188-2.331,0.188c-0.157,0-0.27-0.012-0.379-0.04c-0.476-0.114-0.812-0.469-0.902-0.574c-0.139-0.16-0.223-0.36-0.24-0.572l-0.049-0.6c-0.439,0.001-1.21,0.006-1.806,0.013l-0.17,0.002c0,0.148-0.003,0.298-0.012,0.409c-0.065,0.83-0.677,1.267-1.217,1.321c-0.053,0.004-0.104,0.006-0.154,0.004c-0.002-0.001-1.958-0.106-2.351-0.106l-0.114,0.003c-0.887,0-1.438-0.652-1.502-1.324c-0.03-0.155-0.057-0.296-0.079-0.424c-0.066,0.002-0.135,0.001-0.206,0.001c-0.022,0.149-0.037,0.27-0.04,0.322c0,0.529-0.396,1.146-1.507,1.239c-0.648,0.002-2.007-0.011-2.564-0.133c-0.659-0.145-1.044-0.586-1.185-0.951c-0.047-0.121-0.07-0.252-0.067-0.382c0-0.006,0.005-0.186,0.003-0.403c-0.336,0.003-0.816,0.007-1.377,0.011c-0.022,0.069-0.045,0.139-0.067,0.209c-0.064,0.197-0.126,0.38-0.154,0.492c-0.046,0.521-0.459,1.07-1.504,1.157c-0.995,0.003-2.562-0.015-3.099-0.133c-0.659-0.145-1.045-0.587-1.185-0.952c-0.036-0.095-0.058-0.193-0.065-0.293c0-0.001-0.027-0.412-0.055-0.799c-0.055,0-0.09,0-0.123,0l0.002,1.097c0,0.778-0.637,1.264-1.269,1.4c-0.069,0.015-0.14,0.022-0.21,0.022L6.902,49z"/><path d="M1.703,39.995c0.324-0.002,0.854-0.01,1.524-0.021c1.639-0.026,3.554-0.056,5.532-0.056c3.236,0,5.381,0.076,6.75,0.238c8.479,1.011,12.718,1.497,16.391,1.497c1.444,0,2.862-0.079,4.464-0.249c5.391-0.57,8.97-2.143,10.146-2.659c0.492-0.217,1.019-0.327,1.564-0.327c0.388,0,0.725,0.062,1.017,0.138c0.101-1.445-0.087-3.353-1.319-5.052c-2.077-2.863-4.726-3.708-6.583-3.913c-4.784-0.526-14.124-4.25-15.097-10.853c-0.504-3.417-0.294-5.197-0.155-6.375c0.013-0.11,0.022-0.208,0.034-0.311c-2.72-0.568-13.572-1.243-23.285-1.627H1.609C1.11,14.933,0,25.331,0,34.746c0,2.334,0.171,4.142,0.351,5.402C0.885,40.002,1.38,39.997,1.703,39.995z M33.406,31.243c0.665,0,1.205,0.534,1.205,1.192c0,0.659-0.54,1.193-1.205,1.193c-0.666,0-1.205-0.534-1.205-1.193C32.201,31.777,32.74,31.243,33.406,31.243z M28.016,29.1c0.666,0,1.205,0.535,1.205,1.193s-0.539,1.193-1.205,1.193c-0.665,0-1.205-0.535-1.205-1.193S27.351,29.1,28.016,29.1z M24.093,25.709c0.666,0,1.205,0.534,1.205,1.193c0,0.658-0.54,1.193-1.205,1.193c-0.665,0-1.205-0.535-1.205-1.193C22.888,26.243,23.428,25.709,24.093,25.709z M22.539,22.431c0,0.659-0.54,1.193-1.205,1.193s-1.205-0.534-1.205-1.193c0-0.659,0.54-1.193,1.205-1.193S22.539,21.772,22.539,22.431z M20.356,15.722c0.666,0,1.205,0.534,1.205,1.193s-0.54,1.193-1.205,1.193s-1.205-0.534-1.205-1.193S19.69,15.722,20.356,15.722z"/></svg>