<?xml version="1.0" encoding="iso-8859-1"?><!-- Generator: Adobe Illustrator 19.2.1, SVG Export Plug-In . SVG Version: 6.00 Build 0)  --><svg xmlns="http://www.w3.org/2000/svg" xmlns:xlink="http://www.w3.org/1999/xlink" viewBox="0 0 50 50" width="50px" height="50px"><metadata><?xpacket begin="﻿" id="W5M0MpCehiHzreSzNTczkc9d"?><x:xmpmeta xmlns:x="adobe:ns:meta/" x:xmptk="Adobe XMP Core 5.6-c111 79.158366, 2015/09/25-01:12:00        ">   <rdf:RDF xmlns:rdf="http://www.w3.org/1999/02/22-rdf-syntax-ns#">      <rdf:Description rdf:about=""/>   </rdf:RDF></x:xmpmeta>                                                                                                                                                                                                                                                                                                                                                                                                                                                                                                                                                                                                                                                                                                                                                                                                                                                                                                                                                                                                                                                                                                                                                                                                                                                                                                                                                                                                                                                                                                                                                                                                                                                                                                                                                                                                                                                                                                                                                                                                                                                                                                           <?xpacket end="w"?></metadata><path style="fill:none;stroke:#000000;stroke-width:2;stroke-linecap:round;stroke-linejoin:round;stroke-miterlimit:10;" d="M16,14v-2c0-4.971,4.029-9,9-9h0c4.971,0,9,4.029,9,9v2"/><path d="M18,18c0-1.105-0.895-2-2-2s-2,0.895-2,2c0,0,0,0.634,0,1h4C18,18.634,18,18,18,18z"/><path d="M36,18c0-1.105-0.895-2-2-2s-2,0.895-2,2c0,0,0,0.634,0,1h4C36,18.634,36,18,36,18z"/><rect x="39" y="46" width="3" height="2"/><rect x="8" y="46" width="3" height="2"/><g><path d="M25,34c8.063,0,15.601-1.734,18.704-2.55c0.606-0.159,0.975-0.768,0.836-1.379l-2.565-11.292C41.872,18.323,41.467,18,41,18H9c-0.467,0-0.872,0.323-0.975,0.778L5.46,30.07c-0.139,0.611,0.23,1.22,0.836,1.379C9.401,32.265,16.947,34,25,34z"/><path d="M27.839,35.928C27.446,37.128,26.331,38,25,38c-1.331,0-2.446-0.872-2.839-2.072c-7.157-0.324-13.434-1.766-16.306-2.523L4.011,45.854c-0.042,0.287,0.042,0.579,0.232,0.8C4.433,46.873,4.709,47,5,47h40c0.291,0,0.567-0.127,0.757-0.347c0.19-0.221,0.274-0.513,0.232-0.8l-1.844-12.449C41.273,34.161,34.996,35.603,27.839,35.928z"/></g></svg>