<?xml version="1.0" encoding="iso-8859-1"?><!-- Generator: Adobe Illustrator 23.0.0, SVG Export Plug-In . SVG Version: 6.00 Build 0)  --><svg xmlns="http://www.w3.org/2000/svg" xmlns:xlink="http://www.w3.org/1999/xlink" viewBox="0 0 50 50" width="500px" height="500px"><path d="M33.45,36.82l3.05,2.8C34.69,40.72,32.82,42,30,42c0,2.76-2.24,5-5,5s-5-2.24-5-5c-5,0-7-4-11-4c-0.35,0-0.69,0.01-1.01,0.04c-0.16,0.01-0.32,0.02-0.47,0.04c-0.4,0.05-0.77,0.1-1.11,0.17c-0.39,0.08-0.73,0.16-1.03,0.25c-0.37,0.11-0.67,0.21-0.9,0.3c-0.06,0.02-0.11,0.04-0.15,0.06c-0.16,0.06-0.26,0.11-0.31,0.13c0.01-0.02,0.03-0.03,0.05-0.05c0.08-0.09,0.24-0.23,0.46-0.41c0.23-0.18,0.53-0.41,0.89-0.65c0.62-0.43,1.42-0.89,2.36-1.25C8.73,36.26,9.82,36,11,36c3.5,0,5.47,0.77,5.91,0.96C14.97,36,13.98,35.94,13,32c-0.77-3.07-2-5-2-5c5,0,6,10,14,10c2.6,0,4.45-1.05,5.95-2.48l2.48,2.28c0,0-0.01,0-0.02,0c-0.09,0.05-0.19,0.1-0.29,0.15C33.19,36.92,33.3,36.87,33.45,36.82z"/><path d="M39,27c0,0-1.23,1.93-2,5c-0.21,0.85-0.42,1.51-0.64,2.05l-2.83-2.6C35.23,29.15,36.68,27,39,27z"/><path d="M45.98,38.99c-0.05-0.02-0.15-0.07-0.31-0.13c-0.04-0.02-0.09-0.04-0.15-0.06c-0.23-0.09-0.53-0.19-0.9-0.3c-0.3-0.09-0.64-0.17-1.03-0.25c-0.34-0.07-0.71-0.12-1.11-0.17c-0.15-0.02-0.31-0.03-0.47-0.04C41.69,38.01,41.35,38,41,38c-0.11,0-0.21,0-0.32,0.01l-2.18-2C38.66,36,38.83,36,39,36c1.57,0,2.99,0.46,4.13,1.03c0.18,0.08,0.35,0.17,0.51,0.27c0.06,0.03,0.12,0.06,0.17,0.09c0.15,0.08,0.29,0.17,0.42,0.26c0.17,0.1,0.32,0.2,0.47,0.31c0.18,0.12,0.34,0.24,0.48,0.34c0.04,0.03,0.07,0.06,0.1,0.08c0.16,0.13,0.31,0.25,0.42,0.35c0.04,0.03,0.07,0.06,0.1,0.09c0.06,0.05,0.11,0.09,0.14,0.13C45.96,38.97,45.97,38.98,45.98,38.99z"/><path d="M33.41,36.8c-0.1,0.05-0.21,0.1-0.32,0.16c0.01,0,0.02-0.01,0.03-0.01c0.07-0.03,0.18-0.08,0.33-0.13C33.44,36.81,33.42,36.81,33.41,36.8z"/><path d="M17.05,21.78l12.42,11.38C28.28,34.26,26.89,35,25,35c-3.45,0-5.25-2.46-7.16-5.06C16.15,27.63,14.22,25,11,25c-0.73,0-1.4,0.4-1.75,1.04s-0.33,1.42,0.06,2.04c0.01,0.01,1.08,1.73,1.75,4.41c0.14,0.56,0.29,1.06,0.44,1.51H11c-2.28,0-4.26,0.78-5.73,1.62c-0.01-0.01-0.02-0.02-0.04-0.03c-0.59-0.35-1.14-0.75-1.65-1.19c-0.01-0.01-0.02-0.02-0.03-0.03c0-0.01,0-0.01-0.01-0.02c-0.14-0.12-0.27-0.24-0.4-0.37c-0.13-0.12-0.26-0.25-0.37-0.39c-0.12-0.13-0.23-0.26-0.34-0.39c-0.36-0.42-0.68-0.88-0.96-1.35c-0.08-0.13-0.15-0.26-0.22-0.39c-0.28-0.51-0.51-1.05-0.7-1.61c-0.07-0.2-0.13-0.41-0.19-0.62c-0.06-0.22-0.11-0.44-0.15-0.67c-0.05-0.21-0.08-0.42-0.11-0.64c-0.01-0.02-0.01-0.04-0.01-0.07c-0.02-0.14-0.04-0.29-0.05-0.43c-0.01-0.11-0.02-0.22-0.02-0.34C0.01,26.89,0,26.7,0,26.5c0-0.53,0.04-1.05,0.12-1.56c0.02-0.17,0.05-0.33,0.08-0.5c0.07-0.33,0.15-0.66,0.25-0.98c0.05-0.16,0.1-0.32,0.16-0.48c0.22-0.63,0.5-1.23,0.84-1.79c0.08-0.14,0.17-0.28,0.26-0.42c0.44-0.69,0.97-1.32,1.57-1.88c0.11-0.11,0.23-0.22,0.35-0.32C4,18.24,4.4,17.94,4.82,17.68c0.14-0.09,0.28-0.18,0.42-0.26c0.14-0.09,0.29-0.17,0.44-0.24c0.29-0.16,0.59-0.3,0.9-0.41c0.15-0.07,0.31-0.13,0.47-0.18c0.95-0.33,1.95-0.53,3-0.57v-0.01C10.2,16,10.35,16,10.5,16h0.25l4.78,4.39c-0.42,0.71-0.76,1.48-1.02,2.29c-0.17,0.53,0.13,1.09,0.65,1.26c0.1,0.03,0.2,0.04,0.3,0.04c0.43,0,0.82-0.27,0.96-0.7C16.59,22.75,16.8,22.25,17.05,21.78z"/><path d="M18.17,17.37l-6.92-6.33C13.55,5.72,18.84,2,25,2c7.26,0,13.3,5.16,14.68,12.01C39.62,14,39.56,14,39.5,14c-3.02,0-5.88,1.08-8.14,3.03C29.54,15.74,27.33,15,25,15C22.45,15,20.06,15.87,18.17,17.37z"/><path d="M50,26.5c0,0.25-0.01,0.5-0.03,0.74c-0.01,0.21-0.03,0.43-0.06,0.64c-0.02,0.2-0.05,0.4-0.1,0.6c-0.57,2.95-2.4,5.56-5.04,7.11c-0.02,0.01-0.03,0.02-0.04,0.03C43.26,34.78,41.28,34,39,34h-0.5c0.15-0.45,0.3-0.95,0.44-1.51c0.67-2.68,1.74-4.4,1.75-4.41c0.39-0.62,0.41-1.4,0.06-2.04S39.73,25,39,25c-3.22,0-5.15,2.63-6.84,4.94c-0.04,0.05-0.08,0.11-0.11,0.16L19.66,18.74C21.17,17.64,23.02,17,25,17c3.59,0,6.84,2.13,8.27,5.43c0.21,0.51,0.8,0.74,1.31,0.52c0.51-0.22,0.74-0.8,0.52-1.31c-0.54-1.25-1.29-2.36-2.21-3.3C34.76,16.82,37.07,16,39.5,16c5.25,0,9.61,3.87,10.39,8.91c0.02,0.16,0.04,0.33,0.06,0.5C49.98,25.77,50,26.13,50,26.5z"/><g><path d="M49,48c-0.241,0-0.483-0.087-0.676-0.263l-48-44C-0.083,3.364-0.11,2.731,0.263,2.324C0.636,1.918,1.268,1.89,1.676,2.263l48,44c0.407,0.373,0.435,1.006,0.062,1.413C49.54,47.891,49.271,48,49,48z"/></g></svg>