<?xml version="1.0" encoding="iso-8859-1"?>
<!-- Generator: Adobe Illustrator 25.2.3, SVG Export Plug-In . SVG Version: 6.00 Build 0)  -->
<svg version="1.1" baseProfile="basic" xmlns="http://www.w3.org/2000/svg" xmlns:xlink="http://www.w3.org/1999/xlink" x="0px"
	 y="0px" viewBox="0 0 50 50" xml:space="preserve">
<g id="ios">
	<path style="fill:none;stroke:#000000;stroke-width:2;stroke-linejoin:round;stroke-miterlimit:10;" d="M2,30l-0.024,6h12.519
		c0,0,0.242-2.808,0.242-3.993"/>
	<path style="fill:none;stroke:#000000;stroke-width:2;stroke-linecap:round;stroke-linejoin:round;stroke-miterlimit:10;" d="
		M48,36H35"/>
	<path style="fill:none;stroke:#000000;stroke-width:2;stroke-linejoin:round;stroke-miterlimit:10;" d="M36.576,23.88
		C41.891,25.967,51,27.011,48.5,33c0,0-10.147,0-14.5,0c-11.511,0-19.946-2-31.7-2c0,0-2.797-7.633,0.7-13.918
		C4.893,13.679,10,20,14,20c3.543,0,9.4-3.924,9.4-3.924S30.674,19.413,36.576,23.88z"/>
	<path d="M22.04,32.286c0,0,0.113-5.96,7.068-6.319c5.538-0.286,7.467-2.087,7.467-2.087s14.938,3.153,12.018,8.881
		C48.594,32.761,31.668,33.485,22.04,32.286z"/>
	<path d="M7.067,16.605c0,0-0.894,1.311-1.005,3.101c-0.372,6.033,9.675,5.893,9.675,12.3L2.3,31c0,0-1.371-4.805-1.009-7.935
		s2.051-6.46,2.051-6.46S4.59,15.559,7.067,16.605z"/>
	
		<line style="fill:none;stroke:#000000;stroke-width:2;stroke-linecap:round;stroke-linejoin:round;stroke-miterlimit:10;" x1="26.696" y1="18.133" x2="26" y2="19.674"/>
	
		<line style="fill:none;stroke:#000000;stroke-width:2;stroke-linecap:round;stroke-linejoin:round;stroke-miterlimit:10;" x1="30.804" y1="20.31" x2="29.989" y2="21.826"/>
	<path d="M2,30l-0.024,6h12.519c0,0,0.242-2.808,0.242-3.993L2,30z"/>
</g>
<g id="fluent">
</g>
</svg>