<?xml version="1.0" encoding="iso-8859-1"?><!-- Generator: Adobe Illustrator 21.0.2, SVG Export Plug-In . SVG Version: 6.00 Build 0)  --><svg xmlns="http://www.w3.org/2000/svg" xmlns:xlink="http://www.w3.org/1999/xlink" viewBox="0 0 50 50" width="500px" height="500px"><polyline style="fill:none;stroke:#000000;stroke-width:2;stroke-linecap:round;stroke-linejoin:round;stroke-miterlimit:10;" points="47,8 41,45 9,45 3,8 "/><path d="M46.142,17.352C45.951,17.129,45.673,17,45.38,17H45c-2.101,0-3.825-0.648-5.195-1.495c-0.253,1.027-0.759,2.006-1.562,2.808L28.018,28.396c-0.781,0.781-2.047,0.781-2.828,0c-0.633-0.633-0.744-1.582-0.35-2.336l-2.371,2.371c-0.781,0.781-2.047,0.781-2.828,0c-0.781-0.781-0.781-2.047,0-2.828l-1.207,1.207c-0.781,0.781-2.047,0.781-2.828,0s-0.781-2.047,0-2.828l0.858-0.858c-0.781,0.781-2.047,0.781-2.828,0c-0.781-0.781-0.781-2.047,0-2.828l5.348-5.348c-2.004-1.503-3.034-3.301-3.105-3.429c-0.352-0.641-1.401-0.641-1.753,0C14.094,11.573,11.039,17,5,17H4.62c-0.293,0-0.572,0.129-0.762,0.352c-0.19,0.224-0.272,0.52-0.226,0.809l4.38,27C8.091,45.645,8.509,46,9,46h32c0.49,0,0.908-0.355,0.987-0.84l4.38-27C46.414,17.871,46.331,17.575,46.142,17.352z"/><g><path style="fill:none;stroke:#000000;stroke-width:2;stroke-linecap:round;stroke-linejoin:round;stroke-miterlimit:10;" d="M22.793,16.793l-6.332,6.331c-0.781,0.781-2.047,0.781-2.828,0l0,0c-0.781-0.781-0.781-2.047,0-2.828l9.053-9.053"/><path style="fill:none;stroke:#000000;stroke-width:2;stroke-linecap:round;stroke-linejoin:round;stroke-miterlimit:10;" d="M28.864,22.035l-6.397,6.396c-0.781,0.781-2.047,0.781-2.828,0l0,0c-0.781-0.781-0.781-2.047,0-2.828l6.397-6.396"/><path style="fill:none;stroke:#000000;stroke-width:2;stroke-linecap:round;stroke-linejoin:round;stroke-miterlimit:10;" d="M26.035,19.207l-7.604,7.603c-0.781,0.781-2.047,0.781-2.828,0l0,0c-0.781-0.781-0.781-2.047,0-2.828l7.19-7.189"/><path style="fill:none;stroke:#000000;stroke-width:2;stroke-linecap:round;stroke-linejoin:round;stroke-miterlimit:10;" d="M28.864,22.035l-3.675,3.532c-0.781,0.781-0.781,2.047,0,2.828s2.047,0.781,2.828,0l10.225-10.083c2.343-2.343,2.343-6.142,0-8.485l-3.27-3.27c-1.129-1.129-2.636-1.541-4.11-1.544L19,5c-1.105,0-2,0.895-2,2s0.895,2,2,2l5.929,0l-2.243,2.243"/></g></svg>