<?xml version="1.0" encoding="utf-8"?><!-- Generator: Adobe Illustrator 15.0.0, SVG Export Plug-In . SVG Version: 6.00 Build 0)  --><!DOCTYPE svg PUBLIC "-//W3C//DTD SVG 1.1//EN" "http://www.w3.org/Graphics/SVG/1.1/DTD/svg11.dtd"><svg xmlns="http://www.w3.org/2000/svg" xmlns:xlink="http://www.w3.org/1999/xlink" viewBox="0 0 50 50" width="500px" height="500px"><path d="M36.521,44c-3.906,0-5.81-2.001-7.34-3.608C27.91,39.056,26.905,38,25,38c-1.785,0-2.572,0.92-3.662,2.193C19.888,41.89,18.082,44,13.478,44C6.279,44,3,38.816,3,34c0-3.946,0.56-6.821,0.894-8.54l0.123-0.642C4.104,24.344,4.518,24,5,24c12.966,0,16.283,4.062,18.264,6.487c0.844,1.034,1.188,1.396,1.736,1.396c0.625,0,1.098-0.486,2.024-1.5C29.209,27.996,32.865,24,45,24c0.482,0,0.896,0.344,0.983,0.818l0.124,0.648C46.463,27.295,47,30.059,47,34C47,38.816,43.721,44,36.521,44z"/><g><path d="M3.425,8.016c2.78,1.017,1.788,9.262,1.043,14.031C4.642,22.016,4.819,22,5,22c0.515,0,1.012,0.008,1.5,0.02C7.418,16.124,8.301,7.67,4.113,6.138C3.593,5.948,3.02,6.214,2.83,6.733C2.64,7.252,2.907,7.827,3.425,8.016z"/><path d="M45,22c0.181,0,0.358,0.016,0.531,0.047c-0.744-4.769-1.736-13.014,1.043-14.031c0.519-0.189,0.785-0.764,0.596-1.283c-0.19-0.519-0.765-0.786-1.283-0.595c-4.19,1.533-3.305,9.997-2.385,15.894C43.995,22.019,44.479,22,45,22z"/></g></svg>