<?xml version="1.0" encoding="iso-8859-1"?>
<!-- Generator: Adobe Illustrator 23.0.6, SVG Export Plug-In . SVG Version: 6.00 Build 0)  -->
<svg version="1.1" xmlns="http://www.w3.org/2000/svg" xmlns:xlink="http://www.w3.org/1999/xlink" x="0px" y="0px"
	 viewBox="0 0 50 50" style="enable-background:new 0 0 50 50;" xml:space="preserve">
<g id="&#x421;&#x43B;&#x43E;&#x439;_1" style="display:none;">
</g>
<g id="ref">
</g>
<g id="&#x421;&#x43B;&#x43E;&#x439;_3">
</g>
<g id="Layer_4">
	<g id="&#x421;&#x43B;&#x43E;&#x439;_7">
	</g>
</g>
<g id="&#x421;&#x43B;&#x43E;&#x439;_5">
</g>
<g id="&#x421;&#x43B;&#x43E;&#x439;_6">
	<g>
		<path d="M25,27c8.954,0,13.745-2.343,15.243-3.235C39.134,17.815,36.634,9,31.546,9c-1.394,0-2.909,0.49-4.507,1.456
			c-1.258,0.76-2.82,0.76-4.078,0C21.363,9.49,19.848,9,18.454,9c-5.089,0-7.588,8.817-8.697,14.767C11.237,24.648,16.028,27,25,27z
			"/>
		<path d="M42.513,27.065C40.643,28.23,35.133,31,25,31S9.357,28.23,7.487,27.065C4.609,28,0,29.957,0,32.909
			C0,38.164,12.881,41,25,41s25-2.836,25-8.091C50,29.957,45.391,28,42.513,27.065z"/>
	</g>
</g>
</svg>