<?xml version="1.0" encoding="iso-8859-1"?><!-- Generator: Adobe Illustrator 19.1.0, SVG Export Plug-In . SVG Version: 6.00 Build 0)  --><svg xmlns="http://www.w3.org/2000/svg" xmlns:xlink="http://www.w3.org/1999/xlink" viewBox="0 0 50 50" width="500px" height="500px"><path d="M29.5,18h-9c-1.745,0-2.5,4.636-2.5,7s0.755,7,2.5,7h9c1.745,0,2.5-4.636,2.5-7S31.245,18,29.5,18z"/><path d="M49.196,16.198C48.291,10,47.832,10,47,10l-0.229,0.026c-0.447,0.105-10.109,2.411-15.897,6.888c1.238,0.805,1.893,2.669,2.237,4.41C35.029,20.708,37.725,20,40,20c0.553,0,1,0.447,1,1s-0.447,1-1,1c-2.133,0-4.799,0.741-6.598,1.336C33.493,24.293,33.5,24.976,33.5,25s-0.007,0.707-0.098,1.664C35.201,27.259,37.867,28,40,28c0.553,0,1,0.447,1,1s-0.447,1-1,1c-2.274,0-4.97-0.708-6.889-1.324c-0.348,1.755-1.008,3.638-2.266,4.432c6.527,5.373,15.59,6.817,16.003,6.88L47,40c0.832,0,1.291,0,2.196-6.198C49.585,31.146,50,27.438,50,25S49.585,18.854,49.196,16.198z"/><path d="M16.889,28.676C14.97,29.292,12.274,30,10,30c-0.553,0-1-0.447-1-1s0.447-1,1-1c2.133,0,4.799-0.741,6.598-1.336C16.507,25.707,16.5,25.024,16.5,25s0.007-0.707,0.098-1.664C14.799,22.741,12.133,22,10,22c-0.553,0-1-0.447-1-1s0.447-1,1-1c2.275,0,4.971,0.708,6.889,1.324c0.345-1.741,0.999-3.605,2.237-4.41c-5.789-4.477-15.45-6.783-15.897-6.888L3,10c-0.832,0-1.291,0-2.196,6.198C0.415,18.854,0,22.562,0,25s0.415,6.146,0.804,8.802C1.709,40,2.168,40,3,40l0.151-0.012c0.413-0.063,9.476-1.507,16.003-6.88C17.896,32.313,17.236,30.431,16.889,28.676z"/></svg>