<?xml version="1.0" encoding="iso-8859-1"?><!-- Generator: Adobe Illustrator 21.0.2, SVG Export Plug-In . SVG Version: 6.00 Build 0)  --><svg xmlns="http://www.w3.org/2000/svg" xmlns:xlink="http://www.w3.org/1999/xlink" viewBox="0 0 50 50" width="500px" height="500px"><g><g><path d="M47.999,38c-0.155,0-0.313-0.036-0.462-0.113l-46-24c-0.489-0.255-0.679-0.86-0.424-1.349s0.857-0.681,1.35-0.424l46,24c0.489,0.255,0.679,0.86,0.424,1.349C48.708,37.805,48.359,38,47.999,38z"/></g><g><path d="M2.001,38c-0.36,0-0.709-0.195-0.888-0.538c-0.255-0.489-0.065-1.094,0.424-1.349l46-24c0.492-0.256,1.095-0.065,1.35,0.424s0.065,1.094-0.424,1.349l-46,24C2.314,37.964,2.156,38,2.001,38z"/></g></g><g><path d="M22.838,25l-1.918,1L4.368,17.365C3.485,19.745,3,22.317,3,25c0,4.025,1.092,7.799,2.987,11.048L25,26.128l19.013,9.92C45.908,32.799,47,29.025,47,25c0-2.683-0.485-5.255-1.368-7.635L29.08,26l-1.918-1l17.78-9.276C41.436,8.217,33.818,3,25,3S8.564,8.217,5.058,15.724L22.838,25z"/><path d="M25,28.129l-18.055,9.42C10.924,43.256,17.531,47,25,47s14.076-3.744,18.055-9.451L25,28.129z"/></g></svg>