<?xml version="1.0" encoding="iso-8859-1"?>
<!-- Generator: Adobe Illustrator 23.0.6, SVG Export Plug-In . SVG Version: 6.00 Build 0)  -->
<svg version="1.1" id="Filled" xmlns="http://www.w3.org/2000/svg" xmlns:xlink="http://www.w3.org/1999/xlink" x="0px" y="0px"
	 viewBox="0 0 50 50" style="enable-background:new 0 0 50 50;" xml:space="preserve">
<path d="M47.251,26.022c-1.888,0-6.581-0.332-9.871-3.379C35.137,20.566,34,17.658,34,14h-3v12c0,2.967-2.167,5.426-5,5.904V32
	l2.026,12.229C28.133,44.683,28.538,45,29,45c0.019,0,0.037-0.001,0.056-0.002l18-1C47.585,43.969,48,43.53,48,43l-0.001-16.998
	C47.874,26.01,47.617,26.022,47.251,26.022z M32.103,41.07l-2.182,0.127c-0.02,0.001-0.04,0.002-0.059,0.002
	c-0.526,0-0.966-0.41-0.998-0.942c-0.032-0.551,0.389-1.023,0.94-1.056l2.182-0.127c0.563-0.016,1.024,0.389,1.057,0.94
	C33.075,40.565,32.654,41.038,32.103,41.07z M38.649,40.689l-2.182,0.127c-0.02,0.001-0.04,0.002-0.059,0.002
	c-0.526,0-0.966-0.41-0.998-0.942c-0.032-0.551,0.389-1.023,0.94-1.056l2.182-0.127c0.561-0.017,1.024,0.389,1.057,0.94
	C39.622,40.184,39.201,40.657,38.649,40.689z M45.196,40.308l-2.182,0.127c-0.02,0.001-0.04,0.002-0.059,0.002
	c-0.526,0-0.966-0.41-0.998-0.942c-0.032-0.551,0.389-1.023,0.94-1.056l2.182-0.127c0.546-0.018,1.025,0.389,1.057,0.94
	C46.168,39.803,45.747,40.276,45.196,40.308z"/>
<g>
	<path d="M36,12h10V7c0-0.553-0.448-1-1-1h-9V12z"/>
	<rect x="16" y="6" width="8" height="6"/>
	<path d="M34,6h-8v6h8V6z M29,10c-0.552,0-1-0.448-1-1c0-0.552,0.448-1,1-1s1,0.448,1,1C30,9.552,29.552,10,29,10z"/>
	<path d="M38.739,21.177c3.483,3.226,9.127,2.832,9.184,2.826c0.026-0.002,0.049,0.009,0.075,0.01l0-1.607
		c-0.009-0.16-0.224-3.683-1.637-8.405H36C36,17.079,36.921,19.493,38.739,21.177z"/>
	<path d="M29,26V14h-3v15.873C27.723,29.429,29,27.86,29,26z"/>
	<path d="M14,12V6H5C4.448,6,4,6.447,4,7v5H14z"/>
	<path d="M11.269,21.169C13.081,19.486,14,17.074,14,14H3.638C2.225,18.722,2.01,22.25,2,22.461v1.551
		c0.026,0,0.049-0.011,0.075-0.009C2.131,24.008,7.803,24.387,11.269,21.169z"/>
</g>
<path d="M24,14h-8c0,3.658-1.137,6.566-3.38,8.644c-3.29,3.047-7.982,3.379-9.871,3.379c-0.368,0-0.625-0.013-0.749-0.02V43
	c0,0.53,0.415,0.969,0.944,0.998l18,1c0.493,0.028,0.918-0.297,1.029-0.769L24,32V14z M7.046,40.438
	c-0.02,0-0.039-0.001-0.059-0.002L4.805,40.31c-0.551-0.032-0.972-0.505-0.94-1.056c0.032-0.552,0.495-0.97,1.057-0.94l2.182,0.127
	c0.551,0.032,0.972,0.505,0.94,1.056C8.012,40.028,7.571,40.438,7.046,40.438z M13.592,40.819c-0.02,0-0.039-0.001-0.059-0.002
	l-2.182-0.127c-0.551-0.032-0.972-0.505-0.94-1.056c0.032-0.552,0.501-0.97,1.057-0.94l2.182,0.127
	c0.551,0.032,0.972,0.505,0.94,1.056C14.559,40.409,14.118,40.819,13.592,40.819z M20.139,41.2c-0.02,0-0.039-0.001-0.059-0.002
	l-2.182-0.127c-0.551-0.032-0.972-0.505-0.94-1.056c0.032-0.552,0.495-0.963,1.057-0.94l2.182,0.127
	c0.551,0.032,0.972,0.505,0.94,1.056C21.105,40.79,20.664,41.2,20.139,41.2z"/>
</svg>