<?xml version="1.0" encoding="iso-8859-1"?><!-- Generator: Adobe Illustrator 21.1.0, SVG Export Plug-In . SVG Version: 6.00 Build 0)  --><svg xmlns="http://www.w3.org/2000/svg" xmlns:xlink="http://www.w3.org/1999/xlink" viewBox="0 0 50 50" width="500px" height="500px"><polygon style="fill:none;stroke:#000000;stroke-width:2;stroke-linecap:round;stroke-linejoin:round;stroke-miterlimit:10;" points="25,15 16,8 20,3 30,3 34,8 "/><polyline style="fill:none;stroke:#000000;stroke-width:2;stroke-linecap:round;stroke-linejoin:round;stroke-miterlimit:10;" points="34,8 28,8 22,8 16,8 "/><line style="fill:none;stroke:#000000;stroke-width:2;stroke-linecap:round;stroke-linejoin:round;stroke-miterlimit:10;" x1="30" y1="3" x2="28" y2="8"/><line style="fill:none;stroke:#000000;stroke-width:2;stroke-linecap:round;stroke-linejoin:round;stroke-miterlimit:10;" x1="20" y1="3" x2="22" y2="8"/><path d="M32.224,9.381l-5.03,3.913h0.757C34.821,14.665,40,20.726,40,28c0,8.284-6.716,15-15,15s-15-6.716-15-15c0-7.274,5.179-13.335,12.05-14.706h0.757l-5.03-3.913C10.121,12.355,5,19.781,5,28c0,11.028,8.972,20,20,20s20-8.972,20-20C45,19.781,39.879,12.355,32.224,9.381z"/></svg>