<?xml version="1.0" encoding="iso-8859-1"?><!-- Generator: Adobe Illustrator 21.0.2, SVG Export Plug-In . SVG Version: 6.00 Build 0)  --><svg xmlns="http://www.w3.org/2000/svg" xmlns:xlink="http://www.w3.org/1999/xlink" viewBox="0 0 50 50" width="500px" height="500px"><g><g><path d="M47.999,38c-0.155,0-0.313-0.036-0.462-0.113l-46-24c-0.489-0.256-0.679-0.859-0.424-1.35c0.256-0.489,0.856-0.68,1.35-0.424l46,24c0.489,0.256,0.679,0.859,0.424,1.35C48.708,37.805,48.359,38,47.999,38z"/></g><g><path d="M2.001,38c-0.36,0-0.709-0.195-0.888-0.537c-0.255-0.49-0.065-1.094,0.424-1.35l46-24c0.492-0.256,1.094-0.065,1.35,0.424c0.255,0.49,0.065,1.094-0.424,1.35l-46,24C2.314,37.964,2.156,38,2.001,38z"/></g></g><g><path d="M22.838,25l-1.918,1L4,17.173v19.912l21-10.957l21,10.957V17.173L29.08,26l-1.918-1L46,15.172V5c0-0.553-0.447-1-1-1H5C4.447,4,4,4.447,4,5v10.172L22.838,25z"/><path d="M25,28.129L4,39.086V45c0,0.553,0.447,1,1,1h40c0.553,0,1-0.447,1-1v-5.914L25,28.129z"/></g></svg>