<?xml version="1.0" encoding="utf-8"?><!-- Generator: Adobe Illustrator 15.0.0, SVG Export Plug-In . SVG Version: 6.00 Build 0)  --><!DOCTYPE svg PUBLIC "-//W3C//DTD SVG 1.1//EN" "http://www.w3.org/Graphics/SVG/1.1/DTD/svg11.dtd"><svg xmlns="http://www.w3.org/2000/svg" xmlns:xlink="http://www.w3.org/1999/xlink" viewBox="0 0 50 50" width="500px" height="500px"><path d="M45.45,26.033c3.177-3.505,2.82-9.02,1.929-13.091c-0.959-4.383-2.961-8.771-4.158-9.969c-1.384-1.383-2.572-0.94-3.145-0.728c-0.626,0.228-4.235,2.605-7.781,6.858c-0.013,0.015-0.026,0.028-0.039,0.043l0.002,0.001c-0.059,0.07-0.116,0.137-0.174,0.208l-0.003-0.002c-0.024,0.029-0.045,0.059-0.068,0.088C31.996,9.462,31.98,9.48,31.964,9.5c-0.063,0.079-0.12,0.16-0.183,0.239c-0.19,0.241-0.38,0.482-0.556,0.729c-2.059,2.804-3.447,5.833-4.581,8.319c-1,2.191-1.863,4.083-2.818,5.039c-0.957,0.956-2.849,1.819-5.041,2.819c-2.485,1.134-5.512,2.521-8.314,4.577c-0.25,0.179-0.494,0.37-0.738,0.563c-0.077,0.061-0.156,0.116-0.233,0.178c-0.02,0.017-0.038,0.032-0.058,0.049c-0.029,0.023-0.06,0.044-0.088,0.068l0.002,0.003c-0.071,0.058-0.138,0.115-0.208,0.174l-0.001-0.002c-0.015,0.013-0.028,0.026-0.043,0.039c-4.253,3.546-6.631,7.157-6.882,7.844c-0.189,0.509-0.631,1.698,0.752,3.082c1.197,1.197,5.585,3.199,9.968,4.158c1.615,0.354,3.458,0.625,5.314,0.625c2.82,0,5.659-0.642,7.773-2.558l0.019,0.019c0.05-0.05,0.087-0.103,0.136-0.152c0.051-0.049,0.106-0.088,0.156-0.138c0.102-0.102,0.184-0.204,0.279-0.306c0.078-0.072,0.163-0.138,0.238-0.213l-0.023-0.023c3.86-4.346,2.373-9.021,1.263-12.473c-0.745-2.316-1.146-3.775-0.429-4.492c0.717-0.718,2.176-0.317,4.492,0.429c1.77,0.569,3.861,1.242,6.065,1.242c2.095-0.001,4.29-0.624,6.407-2.505l0.023,0.023c0.063-0.063,0.111-0.137,0.172-0.201c0.115-0.107,0.231-0.201,0.347-0.316c0.047-0.047,0.086-0.099,0.131-0.146c0.053-0.05,0.107-0.094,0.159-0.146L45.45,26.033z M32.871,11.607c0.178-0.242,0.359-0.482,0.55-0.72c0.044-0.056,0.085-0.112,0.13-0.167c0.094-0.115,0.187-0.224,0.28-0.336c1.229-1.44,2.437-2.196,3.588-2.243c1.645-0.054,2.938,1.262,3.724,2.054l0.127,0.128c1.184,1.183,2.736,4.018,3.415,7.146c0.408,1.878,0.776,5.247-1.046,7.53c-2.028,1.798-4.439,2.304-7.18,1.474c-2.384-0.723-4.348-2.249-5.054-2.955C29.064,21.179,29.777,15.921,32.871,11.607z M26.474,36.459c0.831,2.742,0.324,5.152-1.473,7.18c-2.283,1.823-5.651,1.456-7.53,1.046c-3.128-0.679-5.963-2.231-7.146-3.415l-0.128-0.127c-0.792-0.787-2.119-2.103-2.054-3.724c0.046-1.151,0.803-2.359,2.243-3.588c0.112-0.094,0.221-0.187,0.335-0.28c0.056-0.046,0.114-0.088,0.171-0.133c0.236-0.188,0.475-0.368,0.714-0.546c4.315-3.094,9.573-3.807,11.914-1.467C24.225,32.111,25.75,34.075,26.474,36.459z"/></svg>