<?xml version="1.0" encoding="utf-8"?><!-- Generator: Adobe Illustrator 19.2.0, SVG Export Plug-In . SVG Version: 6.00 Build 0)  --><svg xmlns="http://www.w3.org/2000/svg" xmlns:xlink="http://www.w3.org/1999/xlink" viewBox="0 0 50 50" width="500px" height="500px"><path d="M38.6,32.5C35.7,22.2,31.5,13,31.5,13l0,0c0,0-0.1-0.2-0.2-0.4c-0.1-0.3-0.1-0.9,0.1-1.2c0.1-0.1,0.2-0.4,0.6-0.4c1.9,0,2,3.2,2,4.1c0,1.1,0.9,1.9,2,1.9c0.8,0,1.5-0.4,1.8-0.9c1.5-2.6,1.5-6.5,0.3-8.2C37.1,6,34.9,4,30,4c-9.9,0-15.7,14.8-18.9,28.6C6.3,33.9,3,35.9,3,38.5C3,43.4,14.3,46,25,46s22-2.6,22-7.5C47,35.8,43.5,33.8,38.6,32.5z M25,41c-10.2,0-15.1-2.4-15.1-2.4s0.6-3.4,0.8-4c0.4,0.2,3,1,3.6,1.2c2.5,0.7,6,1.2,10.7,1.2c4.8,0,8.4-0.6,11-1.2c0.5-0.1,2.7-0.8,3.2-1c0.2,0.7,0.9,3.8,0.9,3.8S35.3,41,25,41z"/></svg>