<?xml version="1.0" encoding="utf-8"?><!-- Generator: Adobe Illustrator 19.2.0, SVG Export Plug-In . SVG Version: 6.00 Build 0)  --><svg xmlns="http://www.w3.org/2000/svg" xmlns:xlink="http://www.w3.org/1999/xlink" viewBox="0 0 50 50" width="500px" height="500px"><g><path d="M42.1,38.9C39,40.9,34.7,42,25,42c-9.5,0-14-1.2-17.1-3.1c-0.1,0.1-0.3,0.3-0.4,0.5C7,40,6.9,40.8,7,41.6c0.2,0.8,0.6,1.5,1.3,1.9C9.2,44.1,13,46,25,46s15.8-1.9,16.7-2.5c0.7-0.4,1.1-1.1,1.3-1.9c0.2-0.8,0-1.6-0.4-2.3C42.4,39.1,42.3,39,42.1,38.9z"/><path d="M25,40c8.7,0,12.7-0.9,15.6-2.5c-3.7-11.5-9-24.3-9-24.4l0-0.1c0,0-0.1-0.2-0.2-0.4c-0.1-0.3-0.1-0.9,0.1-1.2c0.1-0.1,0.2-0.3,0.6-0.3c1.9,0,2,3.1,2,4.1c0,1.1,0.9,1.9,2,1.9c0.8,0,1.4-0.5,1.7-1c1.5-2.6,1.7-5.8,0.3-8.2c-1-1.7-3.2-3.8-8.1-3.8c-12.4,0-18.9,25.3-20.7,33.3C12.1,39,16.3,40,25,40z M28.7,24c0.7,0,1.4,0.2,2,0.5c-2,0.2-3.6,1.9-3.6,4s1.6,3.8,3.6,4c-0.6,0.3-1.3,0.5-2,0.5c-2.5,0-4.5-2-4.5-4.5S26.3,24,28.7,24z M21.3,20.3L22,19l0.6,1.3l1.5,0.2l-1.1,1l0.2,1.4L22,22.3L20.7,23l0.2-1.4l-1.1-1L21.3,20.3z M19,28l0.6,1.3l1.5,0.2l-1.1,1l0.2,1.4L19,31.3L17.7,32l0.2-1.4l-1.1-1l1.5-0.2L19,28z"/></g></svg>