<?xml version="1.0" encoding="iso-8859-1"?>
<!-- Generator: Adobe Illustrator 22.1.0, SVG Export Plug-In . SVG Version: 6.00 Build 0)  -->
<svg version="1.1" id="Layer_1" xmlns="http://www.w3.org/2000/svg" xmlns:xlink="http://www.w3.org/1999/xlink" x="0px" y="0px"
	 viewBox="0 0 50 50" style="enable-background:new 0 0 50 50;" xml:space="preserve">
<path d="M14,3C7.383,3,2,8.383,2,15v12.5c0,1.551,0.789,2.921,1.986,3.731l1.212,8.964C5.729,44.074,9.081,47,13.003,47
	c3.916,0,7.269-2.926,7.799-6.808l1.212-8.962C23.211,30.421,24,29.051,24,27.5V13C24,7.486,19.514,3,14,3z M19.5,31
	c-0.906,0-1.724-0.353-2.346-0.919C16.609,30.646,15.847,31,15,31c-0.772,0-1.468-0.3-2-0.779C12.468,30.7,11.772,31,11,31
	c-0.847,0-1.609-0.354-2.154-0.919C8.224,30.647,7.406,31,6.5,31C4.567,31,3,29.433,3,27.5S4.567,24,6.5,24h0.643
	c0.446-1.722,1.996-3,3.857-3c0.732,0,1.41,0.211,2,0.555C13.59,21.211,14.268,21,15,21c1.862,0,3.411,1.278,3.857,3H19.5
	c1.933,0,3.5,1.567,3.5,3.5S21.433,31,19.5,31z"/>
<path style="fill:none;stroke:#000000;stroke-width:2;stroke-linejoin:round;stroke-miterlimit:10;" d="M6.5,24h0.643
	c0.446-1.722,1.996-3,3.857-3c0.732,0,1.41,0.211,2,0.555C13.59,21.211,14.268,21,15,21c1.862,0,3.411,1.278,3.857,3H19.5
	c1.933,0,3.5,1.567,3.5,3.5S21.433,31,19.5,31c-0.906,0-1.724-0.353-2.346-0.919C16.609,30.646,15.847,31,15,31
	c-0.772,0-1.468-0.3-2-0.779C12.468,30.7,11.772,31,11,31c-0.847,0-1.609-0.354-2.154-0.919C8.224,30.647,7.406,31,6.5,31
	C4.567,31,3,29.433,3,27.5S4.567,24,6.5,24z"/>
<path style="fill:none;stroke:#000000;stroke-width:2;stroke-linejoin:round;stroke-miterlimit:10;" d="M30.5,24h0.643
	c0.446-1.722,1.996-3,3.857-3c0.732,0,1.41,0.211,2,0.555C37.59,21.211,38.268,21,39,21c1.862,0,3.411,1.278,3.857,3H43.5
	c1.933,0,3.5,1.567,3.5,3.5S45.433,31,43.5,31c-0.906,0-1.724-0.353-2.346-0.919C40.609,30.646,39.847,31,39,31
	c-0.772,0-1.468-0.3-2-0.779C36.468,30.7,35.772,31,35,31c-0.847,0-1.609-0.354-2.154-0.919C32.224,30.647,31.406,31,30.5,31
	c-1.933,0-3.5-1.567-3.5-3.5S28.567,24,30.5,24z"/>
<path d="M26,13v14.5c0,1.551,0.789,2.921,1.986,3.731l1.212,8.962C29.729,44.074,33.081,47,36.997,47
	c3.922,0,7.274-2.926,7.805-6.806l1.212-8.964C47.211,30.421,48,29.051,48,27.5V15c0-6.617-5.383-12-12-12C30.486,3,26,7.486,26,13z
	 M27,27.5c0-1.933,1.567-3.5,3.5-3.5h0.643c0.446-1.722,1.996-3,3.857-3c0.732,0,1.41,0.211,2,0.555C37.59,21.211,38.268,21,39,21
	c1.862,0,3.411,1.278,3.857,3H43.5c1.933,0,3.5,1.567,3.5,3.5S45.433,31,43.5,31c-0.906,0-1.724-0.353-2.346-0.919
	C40.609,30.646,39.847,31,39,31c-0.772,0-1.468-0.3-2-0.779C36.468,30.7,35.772,31,35,31c-0.847,0-1.609-0.354-2.154-0.919
	C32.224,30.647,31.406,31,30.5,31C28.567,31,27,29.433,27,27.5z"/>
</svg>