<?xml version="1.0" encoding="utf-8"?><!-- Generator: Adobe Illustrator 15.0.0, SVG Export Plug-In . SVG Version: 6.00 Build 0)  --><!DOCTYPE svg PUBLIC "-//W3C//DTD SVG 1.1//EN" "http://www.w3.org/Graphics/SVG/1.1/DTD/svg11.dtd"><svg xmlns="http://www.w3.org/2000/svg" xmlns:xlink="http://www.w3.org/1999/xlink" viewBox="0 0 50 50" width="50px" height="50px"><path d="M49.444,8.05l-16-7.946c-0.254-0.125-0.548-0.139-0.81-0.035c-0.264,0.103-0.471,0.313-0.57,0.577C30.88,3.782,25.972,3.941,25,3.941s-5.88-0.159-7.064-3.294c-0.1-0.264-0.307-0.474-0.57-0.577c-0.263-0.104-0.559-0.091-0.811,0.035l-16,7.946C0.134,8.259-0.084,8.734,0.03,9.19l2.747,10.905c0.124,0.489,0.594,0.805,1.092,0.749l5.95-0.732c-0.435,3.267-1.322,12.053,0.195,21.043c0.065,0.39,0.354,0.703,0.736,0.802c7.642,1.975,7.275,6.736,7.256,6.93c-0.032,0.283,0.058,0.566,0.248,0.779C18.443,49.878,18.715,50,19,50h12c0.007-0.001,0.014,0,0.02,0c0.553,0,1-0.447,1-1c0-0.088-0.011-0.174-0.032-0.256c-0.016-0.856,0.284-4.983,7.263-6.787c0.38-0.098,0.667-0.409,0.735-0.795c1.364-7.788,0.564-18.563,0.178-22.664l5.72,2.282c0.267,0.107,0.568,0.093,0.825-0.038s0.444-0.367,0.515-0.646L49.97,9.19C50.085,8.734,49.866,8.259,49.444,8.05z M29.157,20.795c0,0,0.909,2.868-0.485,3.798c-0.311,0.206-0.662,0.287-1.023,0.287c-1.267,0-2.64-0.986-2.64-0.986S23.721,25,22.477,25c-0.396,0-0.787-0.112-1.132-0.407c-1.427-1.223-0.486-3.798-0.486-3.798s-2.317-1.435-1.778-3.367c0.416-1.494,2.2-1.663,2.987-1.663c0.23,0,0.375,0.015,0.375,0.015S23.279,13,25.008,13c1.73,0,2.564,2.78,2.564,2.78s0.037-0.001,0.102-0.001c0.518,0,2.846,0.087,3.262,1.649C31.404,19.187,29.157,20.795,29.157,20.795z"/><path d="M25,19.405c0,0-0.681,1.937-1.195,1.482c-0.514-0.455,1.002-1.627,1.002-1.627s-1.994-0.013-1.741-0.711c0.254-0.697,1.814,0.477,1.814,0.477s-0.595-1.922,0.12-1.922s0.12,1.922,0.12,1.922s1.55-1.173,1.813-0.477c0.266,0.695-1.74,0.711-1.74,0.711s1.568,1.158,1.001,1.627C25.629,21.355,25,19.405,25,19.405z"/></svg>