<?xml version="1.0" encoding="iso-8859-1"?><!-- Generator: Adobe Illustrator 21.1.0, SVG Export Plug-In . SVG Version: 6.00 Build 0)  --><svg xmlns="http://www.w3.org/2000/svg" xmlns:xlink="http://www.w3.org/1999/xlink" viewBox="0 0 50 50" width="50px" height="50px"><path d="M16,6c5.236,0,7.864,1.087,9,1.771C26.136,7.087,28.764,6,34,6h5V3H11v3H16z"/><polygon points="17,17.382 17,12 11,12 11,17.382 14,18.882 "/><polygon points="33,17.382 36,18.882 39,17.382 39,12 33,12 "/><path d="M36,21.118l-5-2.5V10h8V8h-5c-6.346,0-8.29,1.706-8.31,1.723l-0.705,0.643l-0.692-0.659C24.29,9.706,22.346,8,16,8h-5v2h8v8.618l-5,2.5l-3-1.5V48h11l3-30l3,30h11V19.618L36,21.118z"/></svg>