<?xml version="1.0" encoding="iso-8859-1"?><!-- Generator: Adobe Illustrator 19.1.1, SVG Export Plug-In . SVG Version: 6.00 Build 0)  --><svg xmlns="http://www.w3.org/2000/svg" xmlns:xlink="http://www.w3.org/1999/xlink" viewBox="0 0 50 50" width="50px" height="50px"><g><g><path d="M24,48c-8.028,0-12.074-0.988-12.242-1.03c-0.511-0.127-0.835-0.629-0.742-1.147c0.271-1.498,0.504-3.198,0.752-4.998c0.45-3.268,0.96-6.972,1.813-10.193c0.268-1.009,0.598-2.033,0.917-3.022c0.708-2.193,1.439-4.461,1.502-6.638c0.041-1.402-0.244-2.825-0.545-4.331c-0.164-0.818-0.333-1.664-0.446-2.508c-0.372-2.778,1.822-7.949,2.073-8.53c0.188-0.434,0.647-0.679,1.121-0.582C18.667,5.117,19,5.526,19,6c0,4.403,3.589,7.651,4.994,8.755C25.399,13.635,29,10.341,29,6c0-0.474,0.333-0.883,0.797-0.979c0.475-0.096,0.933,0.147,1.121,0.582c0.251,0.581,2.445,5.752,2.073,8.53c-0.113,0.844-0.282,1.69-0.446,2.508c-0.301,1.506-0.586,2.928-0.545,4.331c0.062,2.177,0.794,4.445,1.502,6.638c0.319,0.989,0.649,2.013,0.917,3.022c0.854,3.221,1.363,6.925,1.813,10.193c0.248,1.8,0.481,3.5,0.752,4.998c0.093,0.518-0.231,1.02-0.742,1.147C36.074,47.012,32.028,48,24,48z"/></g></g><line style="fill:none;stroke:#000000;stroke-width:2;stroke-linecap:round;stroke-linejoin:round;stroke-miterlimit:10;" x1="18" y1="3" x2="18" y2="7"/><line style="fill:none;stroke:#000000;stroke-width:2;stroke-linecap:round;stroke-linejoin:round;stroke-miterlimit:10;" x1="30" y1="3" x2="30" y2="7"/></svg>