<?xml version="1.0" encoding="iso-8859-1"?><!-- Generator: Adobe Illustrator 19.2.1, SVG Export Plug-In . SVG Version: 6.00 Build 0)  --><svg xmlns="http://www.w3.org/2000/svg" xmlns:xlink="http://www.w3.org/1999/xlink" viewBox="0 0 50 50" width="50px" height="50px"><path style="fill:none;stroke:#000000;stroke-width:2;stroke-linecap:round;stroke-linejoin:round;stroke-miterlimit:10;" d="M16,14v-2c0-4.971,4.029-9,9-9h0c4.971,0,9,4.029,9,9v2"/><path d="M18,18c0-1.105-0.895-2-2-2s-2,0.895-2,2c0,0,0,0.634,0,1h4C18,18.634,18,18,18,18z"/><path d="M36,18c0-1.105-0.895-2-2-2s-2,0.895-2,2c0,0,0,0.634,0,1h4C36,18.634,36,18,36,18z"/><rect x="39" y="46" width="3" height="2"/><rect x="8" y="46" width="3" height="2"/><path d="M41.989,18.854C41.917,18.363,41.496,18,41,18H9c-0.496,0-0.917,0.363-0.989,0.854l-4,27c-0.042,0.287,0.042,0.579,0.232,0.8C4.433,46.873,4.709,47,5,47h40c0.291,0,0.567-0.127,0.757-0.347c0.19-0.221,0.274-0.513,0.232-0.8L41.989,18.854z M36,35c0,0.553-0.448,1-1,1s-1-0.447-1-1v-5c0-0.553,0.448-1,1-1s1,0.447,1,1V35z M35,28.5c-0.443,0-0.836-0.195-1.111-0.5H15c-0.552,0-1-0.447-1-1s0.448-1,1-1h18.889c0.275-0.305,0.668-0.5,1.111-0.5c0.828,0,1.5,0.672,1.5,1.5S35.828,28.5,35,28.5z"/></svg>