<?xml version="1.0" encoding="utf-8"?><!-- Generator: Adobe Illustrator 18.1.1, SVG Export Plug-In . SVG Version: 6.00 Build 0)  --><svg xmlns="http://www.w3.org/2000/svg" xmlns:xlink="http://www.w3.org/1999/xlink" viewBox="0 0 50 50" width="50px" height="50px"><path fill="none" stroke="#000000" stroke-width="2" stroke-linecap="round" stroke-linejoin="round" stroke-miterlimit="10" d="M19,3c0,0,2.1-1,6-1s6,1,6,1"/><g><path d="M19.5,12l4-4l-0.4-0.4C20.6,6.4,20,3,20,2.8c-0.1-0.4-0.4-0.7-0.8-0.8c-0.4-0.1-0.8,0.1-1,0.4l-0.8,1.1L19.5,12z"/><path d="M26.4,8l4.1,4.1l2.1-8.5l-0.7-1.1c-0.2-0.3-0.6-0.5-1-0.4c-0.4,0.1-0.7,0.4-0.8,0.8c0,0.2-0.6,3.7-3.3,4.8L26.4,8z"/><path d="M46,17c-0.3-0.9-0.7-1.8-0.9-2.5c-1.9-5-5.1-7.5-6.8-8c0,0,0,0,0,0l-4-1.3L32,14.2c-0.1,0.3-0.4,0.6-0.7,0.7c-0.1,0-0.2,0-0.3,0c-0.3,0-0.5-0.1-0.7-0.3L25,9.4l-5.3,5.3C19.5,14.9,19.3,15,19,15c-0.1,0-0.2,0-0.3,0c-0.3-0.1-0.6-0.4-0.7-0.7l-2.3-8.9l-4,1.2c0,0,0,0,0,0c-1.7,0.5-5,3-6.8,8C4.7,15.3,4.4,16.1,4,17c-2.3,6-4,10.7-4,12.4V44c0,0.6,0.4,1,1,1h7c0.6,0,1-0.4,1-1l0-14c0.1-0.5,0.9-2.1,2-3.9V48c0,0.6,0.4,1,1,1h26c0.3,0,0.5-0.1,0.7-0.3c0.2-0.2,0.3-0.4,0.3-0.7l-0.1-19.9l0-2c1.1,1.8,2,3.5,2,3.9v14c0,0.6,0.4,1,1,1h7c0.6,0,1-0.4,1-1V29.4C50,27.8,48.3,23.1,46,17z"/></g></svg>