<?xml version="1.0" encoding="utf-8"?><!-- Generator: Adobe Illustrator 15.0.0, SVG Export Plug-In . SVG Version: 6.00 Build 0)  --><!DOCTYPE svg PUBLIC "-//W3C//DTD SVG 1.1//EN" "http://www.w3.org/Graphics/SVG/1.1/DTD/svg11.dtd"><svg xmlns="http://www.w3.org/2000/svg" xmlns:xlink="http://www.w3.org/1999/xlink" viewBox="0 0 50 50" width="500px" height="500px"><path d="M48.99,28.398C46.366,9.846,45.585,9.846,44.596,9.846c-0.173,0-0.342,0.044-0.492,0.129c-0.029,0.017-3.341,1.64-19.104,1.64c-15.657,0-18.993-1.584-19.104-1.64c-0.15-0.085-0.32-0.129-0.492-0.129c-0.989,0-1.771,0-4.394,18.552C1.003,28.444,1,28.491,1,28.538c0,0.984,0.707,1.114,3.05,1.546c2.615,0.481,7.472,1.385,10.985,3.301V32.21c-0.123-4.897,0.135-11.612,2.063-15.642c0.238-0.499,0.835-0.711,1.333-0.47c0.498,0.238,0.709,0.835,0.47,1.333c-1.756,3.671-1.985,10.05-1.867,14.753l0,2.554c0.942,0.804,1.658,1.731,1.976,2.822C19.229,39.334,22.753,40,25,40s5.771-0.667,5.989-2.44c0.317-1.091,1.033-2.019,1.976-2.822V32.21c0.118-4.729-0.11-11.107-1.867-14.778c-0.238-0.498-0.027-1.095,0.471-1.333c0.5-0.241,1.095-0.028,1.334,0.47c1.928,4.03,2.186,10.744,2.063,15.667v1.147c3.516-1.917,8.377-2.82,10.994-3.302C48.295,29.65,49,29.521,49,28.538C49,28.491,48.997,28.444,48.99,28.398z"/></svg>