<?xml version="1.0" encoding="utf-8"?><!-- Generator: Adobe Illustrator 19.1.1, SVG Export Plug-In . SVG Version: 6.00 Build 0)  --><svg xmlns="http://www.w3.org/2000/svg" xmlns:xlink="http://www.w3.org/1999/xlink" viewBox="0 0 50 50" width="500px" height="500px"><g><path d="M9,40v7c0,0.6,0.4,1,1,1h30c0.6,0,1-0.4,1-1v-7H9z"/><path d="M37,6c-1.1,0-2.1,0.2-3.2,0.5C31.8,3.7,28.5,2,25,2s-6.8,1.7-8.8,4.5C15.1,6.2,14.1,6,13,6C6.9,6,2,10.9,2,17c0,4.6,2.8,8.6,7,10.2V38h32V27.2c4.2-1.6,7-5.7,7-10.2C48,10.9,43.1,6,37,6z M19,31c0,0.6-0.4,1-1,1s-1-0.4-1-1v-3c0-0.6,0.4-1,1-1s1,0.4,1,1V31z M26,32c0,0.6-0.4,1-1,1s-1-0.4-1-1v-4c0-0.6,0.4-1,1-1s1,0.4,1,1V32z M33,31c0,0.6-0.4,1-1,1s-1-0.4-1-1v-3c0-0.6,0.4-1,1-1s1,0.4,1,1V31z"/></g></svg>