<?xml version="1.0" encoding="utf-8"?><!-- Generator: Adobe Illustrator 15.0.0, SVG Export Plug-In . SVG Version: 6.00 Build 0)  --><!DOCTYPE svg PUBLIC "-//W3C//DTD SVG 1.1//EN" "http://www.w3.org/Graphics/SVG/1.1/DTD/svg11.dtd"><svg xmlns="http://www.w3.org/2000/svg" xmlns:xlink="http://www.w3.org/1999/xlink" viewBox="0 0 50 50" width="500px" height="500px"><path d="M25,6c3.484,0,7-0.928,7-3s-3.516-3-7-3s-7,0.928-7,3S21.516,6,25,6z M25,2c2.764,0,4.439,0.63,4.909,1C29.439,3.37,27.764,4,25,4s-4.439-0.63-4.909-1C20.561,2.63,22.236,2,25,2z"/><ellipse cx="25" cy="35.6" rx="0.5" ry="0.7"/><path d="M30.255,25c0,0-0.255,1.3-3.555-0.8c0-2.1,1.91-2.754,3.811-6.854c1,0.8,3.297,3.014,3.289,5.754C34,25.625,30.255,25,30.255,25z"/><path d="M22.899,25.3c-0.461,0-0.876-0.321-0.977-0.791c-0.116-0.54,0.228-1.072,0.768-1.188C22.844,23.289,24.216,23,25,23c0.8,0,2.008,0.296,2.143,0.33c0.536,0.134,0.861,0.676,0.728,1.212c-0.133,0.535-0.669,0.865-1.212,0.728C26.239,25.166,25.418,25,25,25c-0.432,0-1.389,0.17-1.891,0.278C23.039,25.293,22.968,25.3,22.899,25.3z"/><path d="M20.25,24.469c0,0-0.25,1.831,3.05-0.269c0-2.1-1.8-2.7-3.7-6.8c-1,0.8-3.4,2.7-3.4,5.7C16.2,25.75,20.25,24.469,20.25,24.469z"/><g><path d="M23.457,24.637c-1.084-0.824-3.268-1.323-2.707-2.293c-0.204-0.313,1.388-0.863,1.148-1.183c-0.652-0.873-1.359-2.01-2.298-3.761c-0.011-0.021-0.017-0.034-0.027-0.054C17.968,18.935,16.2,20.993,16.2,23.1c-0.069,1.21,1.014,2.11,1.025,2.119c0.086,0.075,1.038,0.896,2.866,0.896c0.973,0,2.018-0.243,3.112-0.705c0.073-0.042,0.386-0.197,0.46-0.241C23.693,24.952,23.465,24.85,23.457,24.637z"/><path d="M26.626,24.637c1.084-0.824,3.268-1.323,2.707-2.293c0.203-0.313-1.388-0.863-1.148-1.183c0.652-0.873,1.359-2.01,2.299-3.761c0.011-0.021,0.017-0.034,0.027-0.054c1.604,1.589,3.372,3.647,3.372,5.754c0.069,1.21-1.014,2.11-1.024,2.119c-0.086,0.075-1.039,0.896-2.867,0.896c-0.973,0-2.018-0.243-3.111-0.705c-0.073-0.042-0.146-0.083-0.221-0.126C26.631,25.066,26.618,24.85,26.626,24.637z"/><path d="M41,4c-3.303,0-5.423,2.609-7.115,4.906v0c-0.013,0.018-0.024,0.034-0.037,0.051c-0.104,0.141-0.206,0.281-0.307,0.418c-0.004,0.005-0.006,0.012-0.01,0.017c-1.556,2.137-2.947,3.585-3.526,3.585L30.766,13c0.11-0.001,0.22,0.015,0.329,0.025c0.073,0.007,0.147,0.007,0.22,0.018c2.694,0.438,5.046,4.096,6.451,6.157l-0.021-0.055c0.012,0.018,0.025,0.038,0.037,0.055c1.7,2.4,4,5.8,4,6.3c0,0.7-5.399,9.2-5.399,9.2s2.199,4.399-0.5,6.7l-0.242,0.262l0.025-1.507l-0.352-2.114c-0.157-0.439-0.328-0.877-0.517-1.303c-0.008-0.131-0.041-0.262-0.104-0.386c-0.046-0.091-0.102-0.195-0.164-0.31c-0.171-0.316-0.408-0.773-0.5-1.163c-0.147-0.453-0.212-0.936-0.034-1.38c0.9-2.1,4.172-7.4,4.172-7.4l-2.287-3.021c0.106,2.17-1.693,3.641-1.716,3.654c-0.055,0.051-1.237,1.113-3.39,1.335C30.577,29.34,30.356,30.932,30.3,32c0,0.489,0.259,0.979,1.009,2.319c0.33,0.591,0.733,1.319,1.126,2.103C31.128,36.961,28.197,38,25,38c-3.197,0-6.127-1.038-7.435-1.577c0.393-0.784,0.796-1.513,1.126-2.104c0.75-1.341,1.009-1.83,1.007-2.372c-0.055-1.041-0.276-2.618-0.475-3.885c-2.1-0.24-3.25-1.28-3.305-1.33c-0.022-0.014-1.82-1.483-1.715-3.651L11.919,26.1c0,0,3.271,5.301,4.171,7.4c0.4,1-0.4,2.2-0.7,2.8l-0.023-0.037c-0.076,0.176-0.161,0.392-0.166,0.476c-0.49,1.106-0.899,2.272-1.086,3.417l0.026,1.507L13.9,41.4c-2.7-2.301-0.5-6.7-0.5-6.7S8,26.2,8,25.5c0-0.5,2.3-3.9,4-6.3c1.5-2.2,4-6.2,7-6.2c-1.172,0-0.331-0.011,0.995-0.024c-0.623,0-2.682-2.431-3.536-3.6C14.708,6.98,12.53,4,9,4C3.617,4,0,8.581,0,15.4c0,4.831,1.053,9.887,2.167,15.24c1.119,5.373,2.387,11.463,2.834,18.425c0.031,0.476,0.393,0.863,0.866,0.927c0.295,0.039,0.581,0.06,0.856,0.06c0.431,0,0.833-0.064,1.224-0.163c0.341-1.33,0.464-2.044,0.466-2.054c0.009-0.057,0.919-5.73-1.351-11.782c-0.194-0.518,0.068-1.094,0.585-1.288c0.518-0.193,1.093,0.068,1.288,0.585c2.466,6.576,1.492,12.566,1.449,12.818c-0.004,0.023-0.054,0.308-0.164,0.812c1.158-0.079,2.104-0.437,2.801-1.146c0.562-0.571,0.95-1.334,1.185-2.324c0.134,1.235,0.334,2.441,0.616,3.708C14.927,49.683,15.34,50,15.799,50c0.072,0,0.145-0.008,0.218-0.023c0.539-0.12,0.879-0.654,0.759-1.193C16.232,46.334,16,44.126,16,41.4c0-0.008,0.002-0.018,0.002-0.025c1.522,0.238,5.284,1.205,6.984,5.031C23.146,46.768,23.505,47,23.9,47H25h1.1c0.396,0,0.753-0.232,0.914-0.594c1.701-3.828,5.465-4.794,6.984-5.031c0,0.008,0.002,0.018,0.002,0.025c0,2.726-0.232,4.934-0.776,7.383c-0.119,0.539,0.221,1.073,0.76,1.193C34.057,49.992,34.129,50,34.201,50c0.458,0,0.872-0.317,0.976-0.783c0.282-1.272,0.483-2.483,0.617-3.725c0.229,0.951,0.603,1.689,1.137,2.25c0.705,0.739,1.668,1.132,2.898,1.224c-0.12-0.409-0.19-0.687-0.199-0.723c-0.059-0.328-1.033-6.318,1.434-12.895c0.193-0.518,0.771-0.776,1.288-0.585c0.517,0.194,0.778,0.771,0.585,1.288c-2.271,6.052-1.36,11.726-1.351,11.782c0.097,0.38,0.349,1.242,0.678,2.118c0.318,0.061,0.646,0.1,0.992,0.1c0.282,0,0.575-0.021,0.876-0.061c0.473-0.063,0.836-0.451,0.866-0.927c0.447-6.962,1.716-13.051,2.834-18.423C48.947,25.288,50,20.231,50,15.4C50,8.581,46.383,4,41,4z"/></g></svg>