<?xml version="1.0" encoding="iso-8859-1"?><!-- Generator: Adobe Illustrator 19.2.0, SVG Export Plug-In . SVG Version: 6.00 Build 0)  --><svg xmlns="http://www.w3.org/2000/svg" xmlns:xlink="http://www.w3.org/1999/xlink" viewBox="0 0 50 50" width="50px" height="50px"><path style="fill:none;stroke:#000000;stroke-width:2;stroke-miterlimit:10;" d="M30,3"/><path style="fill:none;stroke:#000000;stroke-width:2;stroke-miterlimit:10;" d="M24.257,17.931"/><polygon points="13,39 13,48 24,48 24,44 26,44 26,48 37,48 37,39 "/><path d="M36.6,3.086l-6.436-1.072L20,2l-6.583,1.083L1.66,20.185l7.532,6.276L12,22.491V37h15V19.409L22.517,8.964l0.013-0.005L20.387,4h9.159l-3.591,7.901L29,18.997V37h9V23.491l2.809,3.97l7.513-6.26L36.6,3.086z M23,23c0.552,0,1,0.448,1,1s-0.448,1-1,1s-1-0.448-1-1S22.448,23,23,23z M23,27c0.552,0,1,0.448,1,1s-0.448,1-1,1s-1-0.448-1-1S22.448,27,23,27z M23,31c0.552,0,1,0.448,1,1s-0.448,1-1,1s-1-0.448-1-1S22.448,31,23,31z"/></svg>