<?xml version="1.0" encoding="utf-8"?><!-- Generator: Adobe Illustrator 18.1.0, SVG Export Plug-In . SVG Version: 6.00 Build 0)  --><svg xmlns="http://www.w3.org/2000/svg" xmlns:xlink="http://www.w3.org/1999/xlink" viewBox="0 0 50 50" width="500px" height="500px"><line fill="none" stroke="#000000" stroke-width="2" stroke-linecap="round" stroke-miterlimit="10" x1="32" y1="7.2" x2="32" y2="1"/><line fill="none" stroke="#000000" stroke-width="2" stroke-linecap="round" stroke-miterlimit="10" x1="18" y1="7.2" x2="18" y2="1"/><path fill="none" stroke="#000000" stroke-width="2" stroke-linecap="round" stroke-miterlimit="10" d="M37,45.5c0-7.4-4-14.5-4-14.5"/><path fill="none" stroke="#000000" stroke-width="2" stroke-linecap="round" stroke-miterlimit="10" d="M25,9.5c0,0-2-2.5-5.2-2.5S15,9,15,9c0,3.9,5,7.2,5,7.2S3,28.2,3,42.8c0,0,2,2.8,10,2.8c0,0,3.8,3.5,12,3.5s12-3.5,12-3.5c8,0,10-2.8,10-2.8c0-14.6-17-26.5-17-26.5s5-3.3,5-7.2c0,0-1.5-2-4.8-2S25,9.5,25,9.5z"/><path fill="none" stroke="#000000" stroke-width="2" stroke-linecap="round" stroke-miterlimit="10" d="M13,45.5c0-7.4,4-14.5,4-14.5"/></svg>