<?xml version="1.0" encoding="iso-8859-1"?><!-- Generator: Adobe Illustrator 21.0.2, SVG Export Plug-In . SVG Version: 6.00 Build 0)  --><svg xmlns="http://www.w3.org/2000/svg" xmlns:xlink="http://www.w3.org/1999/xlink" viewBox="0 0 50 50" width="50px" height="50px"><g><path d="M18.327,9.928l-1.018,2.035l6.141,9.527c0.049-0.181,0.092-0.363,0.149-0.542l0.439-1.874C24.028,19.048,24.009,19.028,24,19L20,6h10l-4.681,15.346c-0.136,0.43-0.237,0.867-0.319,1.308l7.85-10.716l-1.005-2.01l2.855-4.283L33,5.027L30.176,4H30H20h-0.176l-1.08,0.393l-3.306,1.202L18.327,9.928z"/><path d="M12,46h11c0,0-0.002-21.656,0-21.75l-7.964-12.213l0.982-1.965l-2.515-3.774L8.164,8.24L0.787,36.693l8.247,2.59L12,28.904V46z"/><path d="M41.836,8.24l-5.2-1.891l-2.482,3.723l0.995,1.99L25,25.667V46h13V28.904l2.961,10.363l8.252-2.574L41.836,8.24z M27,41c-0.552,0-1-0.448-1-1c0-0.552,0.448-1,1-1s1,0.448,1,1C28,40.552,27.552,41,27,41z M27,36c-0.552,0-1-0.448-1-1c0-0.552,0.448-1,1-1s1,0.448,1,1C28,35.552,27.552,36,27,36z M27,31c-0.552,0-1-0.448-1-1c0-0.552,0.448-1,1-1s1,0.448,1,1C28,30.552,27.552,31,27,31z"/></g></svg>