<?xml version="1.0" encoding="utf-8"?><!-- Generator: Adobe Illustrator 15.0.0, SVG Export Plug-In . SVG Version: 6.00 Build 0)  --><!DOCTYPE svg PUBLIC "-//W3C//DTD SVG 1.1//EN" "http://www.w3.org/Graphics/SVG/1.1/DTD/svg11.dtd"><svg xmlns="http://www.w3.org/2000/svg" xmlns:xlink="http://www.w3.org/1999/xlink" viewBox="0 0 50 50" width="50px" height="50px"><path d="M31.669,16.294C33.267,14.982,36,12.273,36,9.1V8.767L35.8,8.5c-0.073-0.098-1.843-2.4-5.6-2.4c-2.469,0-4.247,1.162-5.196,1.984C24.042,7.232,22.231,6,19.8,6c-3.639,0-5.503,2.278-5.581,2.375L14,8.649V9c0,3.176,2.738,5.886,4.335,7.197C14.491,19.182,2,29.878,2,42.8v0.32l0.187,0.261C2.412,43.697,4.55,46.354,12,46.577V45.6c0-0.018,0.009-0.032,0.01-0.05C12.009,45.532,12,45.518,12,45.5c0-7.575,3.96-14.691,4.129-14.991c0.272-0.479,0.881-0.65,1.361-0.38c0.481,0.271,0.652,0.88,0.381,1.361C17.833,31.56,14,38.46,14,45.5c0,0.018-0.009,0.032-0.01,0.05C13.991,45.567,14,45.582,14,45.6v1.898c1.926,1.107,5.536,2.602,11,2.602s9.074-1.494,11-2.601V45.6c0-0.018,0.009-0.032,0.01-0.05C36.009,45.532,36,45.518,36,45.5c0-7.057-3.833-13.94-3.871-14.009c-0.271-0.481-0.101-1.092,0.38-1.362c0.482-0.272,1.092-0.1,1.362,0.38C34.04,30.809,38,37.925,38,45.5c0,0.018-0.009,0.032-0.01,0.05C37.991,45.567,38,45.582,38,45.6v0.978c7.45-0.224,9.589-2.88,9.813-3.196L48,43.12V42.8C48,29.884,35.521,19.265,31.669,16.294z"/><g><path d="M19,4.031V1c0-0.552-0.448-1-1-1s-1,0.448-1,1v3.394C17.605,4.218,18.269,4.086,19,4.031z"/><path d="M33,4.482V1c0-0.552-0.447-1-1-1s-1,0.448-1,1v3.13C31.734,4.184,32.396,4.312,33,4.482z"/></g></svg>