<?xml version="1.0" encoding="iso-8859-1"?>
<!-- Generator: Adobe Illustrator 24.0.2, SVG Export Plug-In . SVG Version: 6.00 Build 0)  -->
<svg version="1.1" id="Layer_1" xmlns="http://www.w3.org/2000/svg" xmlns:xlink="http://www.w3.org/1999/xlink" x="0px" y="0px"
	 viewBox="0 0 50 50" style="enable-background:new 0 0 50 50;" xml:space="preserve">
<g>
	<path d="M10.583,32.186c-0.437,0.491-0.738,1.135-0.908,1.923C10.273,35.076,11.402,36,13.584,36c2.147,0,3.253-1,3.822-1.951
		c-0.222-0.955-0.586-1.71-1.089-2.228c-0.744-0.764-1.709-0.925-2.327-0.909C12.469,30.927,11.322,31.355,10.583,32.186z"/>
	<path d="M23.991,15.643C23.89,9.393,21.584,1.517,15.01,1.082c-2.214-0.144-4.234,0.575-6.022,2.142
		C7.214,4.78,5.837,7.087,4.852,9.572c-0.011,0.022-0.028,0.04-0.037,0.064c-0.028,0.072-0.049,0.15-0.077,0.223
		c-0.181,0.473-0.344,0.952-0.496,1.433c-0.038,0.121-0.079,0.239-0.115,0.361c-0.174,0.575-0.324,1.15-0.457,1.72
		c-0.015,0.063-0.031,0.126-0.045,0.189c-0.14,0.622-0.255,1.235-0.347,1.833c-0.005,0.036-0.012,0.072-0.018,0.108
		c-0.096,0.648-0.166,1.278-0.205,1.875c-0.252,3.859,0.401,7.011,1.092,10.348c0.392,1.888,0.796,3.84,1.076,6.072
		c0.28,2.233,0.588,5.577,0.59,5.603c0.619,7.467,5.424,8.665,8.231,8.716c0.04,0.001,0.08,0.001,0.12,0.001
		c3.313,0,6.97-2.495,7.428-9.523c0.037-0.57,0.059-1.103,0.076-1.637c0-0.001,0-0.001,0-0.002c0.016-0.469,0.025-0.941,0.036-1.441
		c0.015-0.7,0.03-1.447,0.062-2.316c0.031-0.869,0.079-1.861,0.156-3.051c0.205-3.148,0.622-4.774,1.025-6.346
		c0.398-1.556,0.811-3.166,1.002-6.095c0.039-0.599,0.049-1.233,0.043-1.88C23.992,15.763,23.992,15.704,23.991,15.643z
		 M17.208,17.022c0.54,0.115,0.885,0.646,0.771,1.187c-0.116,0.54-0.649,0.884-1.187,0.77c-0.591-0.126-1.181-0.198-1.77-0.245
		C15.013,18.869,15,19.004,15,19.142v1.59c0.735,0.05,1.471,0.133,2.208,0.29c0.54,0.115,0.885,0.646,0.771,1.187
		c-0.116,0.54-0.649,0.884-1.187,0.77c-0.599-0.128-1.196-0.2-1.792-0.246v2c0.735,0.05,1.471,0.133,2.208,0.29
		c0.54,0.115,0.885,0.646,0.771,1.186c-0.116,0.54-0.649,0.884-1.187,0.771c-0.599-0.128-1.196-0.2-1.792-0.247v2.27
		c0.887,0.149,1.878,0.526,2.753,1.426c1.364,1.404,2,3.675,1.899,6.744c0.003,0.009,0.002,0.02,0.006,0.029
		c-0.015,0.414-0.032,0.826-0.06,1.263c-0.468,7.189-4.345,7.709-5.516,7.653c-3.79-0.067-5.901-2.383-6.274-6.89
		c-0.001-0.016-0.068-0.739-0.167-1.73c-0.043-0.392-0.083-0.765-0.107-1.054c-0.008-0.073-0.015-0.145-0.023-0.219c0,0,0,0,0,0
		c0.001-0.012,0.005-0.023,0.006-0.035c-0.001-0.027-0.005-0.069-0.006-0.092c-0.054-2.246,0.477-4.004,1.577-5.24
		c0.936-1.049,2.279-1.685,3.912-1.877V26.73c-0.599,0.046-1.196,0.117-1.785,0.247C11.143,26.992,11.07,27,10.999,27
		c-0.459,0-0.873-0.318-0.976-0.785c-0.119-0.54,0.223-1.073,0.762-1.191c0.731-0.161,1.471-0.245,2.215-0.294v-2
		c-0.599,0.046-1.196,0.117-1.785,0.247C11.143,22.993,11.07,23,10.999,23c-0.459,0-0.873-0.318-0.976-0.785
		c-0.119-0.54,0.223-1.073,0.762-1.191c0.731-0.161,1.471-0.245,2.215-0.294v-1.588c0-0.138-0.013-0.274-0.023-0.411
		c-0.592,0.046-1.181,0.118-1.763,0.246C11.143,18.993,11.07,19,10.999,19c-0.459,0-0.873-0.318-0.976-0.785
		c-0.119-0.54,0.223-1.073,0.762-1.191c0.56-0.123,1.125-0.208,1.693-0.266c-0.351-0.763-0.868-1.448-1.532-2.001l-4.419-4.017
		C6.748,10.144,7.002,9.565,7.272,9H7.259C7.28,8.956,7.306,8.915,7.327,8.87C7.339,8.846,7.348,8.819,7.36,8.794l0.005,0.004
		c0.786-1.601,1.763-3.037,2.942-4.071c1.26-1.105,2.658-1.663,4.162-1.663c0.136,0,0.271,0.004,0.408,0.014
		c3.09,0.204,4.985,2.763,6.037,5.922H7.586l4.673,4.249c0.712,0.593,1.294,1.312,1.742,2.108c0.453-0.802,1.044-1.53,1.771-2.136
		l5.229-3.961c0.215,0.683,0.391,1.388,0.533,2.105l-4.517,3.421c-0.644,0.537-1.152,1.215-1.498,1.973
		C16.081,16.817,16.644,16.902,17.208,17.022z"/>
</g>
<g>
	<path d="M39.412,32.186c0.437,0.491,0.738,1.135,0.908,1.923C39.722,35.076,38.593,36,36.411,36c-2.147,0-3.253-1-3.822-1.951
		c0.222-0.955,0.586-1.71,1.089-2.228c0.744-0.764,1.709-0.925,2.327-0.909C37.526,30.927,38.672,31.355,39.412,32.186z"/>
	<path d="M26.002,15.824c-0.006,0.647,0.004,1.281,0.043,1.88c0.191,2.929,0.604,4.539,1.002,6.095
		c0.403,1.572,0.82,3.198,1.025,6.346c0.078,1.19,0.125,2.182,0.156,3.051c0.031,0.869,0.047,1.616,0.062,2.316
		c0.011,0.5,0.021,0.973,0.036,1.441c0,0.001,0,0.001,0,0.002c0.017,0.534,0.039,1.067,0.076,1.637
		c0.458,7.028,4.114,9.523,7.428,9.523c0.04,0,0.08,0,0.12-0.001c2.808-0.051,7.612-1.249,8.231-8.716
		c0.002-0.025,0.31-3.369,0.59-5.603c0.28-2.232,0.685-4.185,1.076-6.072c0.69-3.337,1.344-6.488,1.092-10.348
		c-0.039-0.598-0.108-1.227-0.205-1.875c-0.005-0.036-0.012-0.072-0.018-0.108c-0.092-0.598-0.207-1.211-0.347-1.833
		c-0.014-0.063-0.031-0.126-0.045-0.189c-0.133-0.571-0.283-1.145-0.457-1.72c-0.037-0.122-0.077-0.24-0.115-0.361
		c-0.152-0.481-0.315-0.96-0.496-1.433c-0.028-0.073-0.049-0.151-0.077-0.223c-0.009-0.023-0.026-0.041-0.037-0.064
		c-0.984-2.485-2.361-4.792-4.135-6.348c-1.788-1.567-3.809-2.285-6.022-2.142c-6.574,0.435-8.88,8.311-8.981,14.561
		C26.003,15.704,26.003,15.763,26.002,15.824z M34.477,16.759c-0.346-0.758-0.854-1.436-1.498-1.973l-4.517-3.421
		c0.142-0.717,0.317-1.422,0.533-2.105l5.229,3.961c0.727,0.606,1.318,1.334,1.771,2.136c0.448-0.796,1.03-1.515,1.742-2.108
		L42.409,9H29.081c1.053-3.158,2.947-5.718,6.037-5.922c0.137-0.009,0.272-0.014,0.408-0.014c1.504,0,2.902,0.558,4.162,1.663
		c1.179,1.034,2.156,2.469,2.942,4.071l0.005-0.004c0.012,0.025,0.021,0.052,0.033,0.076c0.021,0.044,0.047,0.085,0.068,0.13h-0.012
		c0.27,0.565,0.523,1.144,0.745,1.739l-4.419,4.017c-0.664,0.553-1.181,1.238-1.532,2.001c0.568,0.057,1.133,0.142,1.693,0.266
		c0.539,0.118,0.881,0.652,0.762,1.191C39.869,18.682,39.455,19,38.996,19c-0.071,0-0.144-0.007-0.216-0.023
		c-0.582-0.128-1.171-0.2-1.763-0.246c-0.01,0.137-0.023,0.273-0.023,0.411v1.588c0.743,0.049,1.484,0.133,2.215,0.294
		c0.539,0.118,0.881,0.652,0.762,1.191C39.869,22.682,39.455,23,38.996,23c-0.071,0-0.144-0.007-0.216-0.023
		c-0.589-0.13-1.186-0.202-1.785-0.247v2c0.743,0.049,1.484,0.133,2.215,0.294c0.539,0.118,0.881,0.652,0.762,1.191
		C39.869,26.682,39.455,27,38.996,27c-0.071,0-0.144-0.008-0.216-0.023c-0.589-0.129-1.186-0.201-1.785-0.247v2.248
		c1.634,0.192,2.977,0.828,3.912,1.877c1.1,1.236,1.631,2.995,1.577,5.24c-0.001,0.023-0.005,0.065-0.006,0.092
		c0.001,0.012,0.005,0.023,0.006,0.035c0,0,0,0,0,0c-0.008,0.075-0.015,0.146-0.023,0.219c-0.024,0.288-0.064,0.661-0.107,1.054
		c-0.099,0.991-0.165,1.714-0.167,1.73c-0.373,4.507-2.484,6.822-6.274,6.89c-1.171,0.056-5.048-0.464-5.516-7.653
		c-0.029-0.436-0.045-0.848-0.06-1.263c0.004-0.009,0.003-0.019,0.006-0.029c-0.102-3.069,0.534-5.34,1.899-6.744
		c0.875-0.9,1.865-1.277,2.753-1.426v-2.27c-0.596,0.046-1.193,0.119-1.792,0.247c-0.537,0.113-1.07-0.23-1.187-0.771
		c-0.114-0.54,0.23-1.071,0.771-1.186c0.737-0.157,1.473-0.241,2.208-0.29v-2c-0.596,0.047-1.193,0.119-1.792,0.246
		c-0.537,0.114-1.07-0.229-1.187-0.77c-0.114-0.541,0.23-1.072,0.771-1.187c0.737-0.157,1.473-0.24,2.208-0.29v-1.59
		c0-0.137-0.013-0.273-0.022-0.408c-0.588,0.047-1.178,0.119-1.77,0.245c-0.537,0.115-1.07-0.229-1.187-0.77
		c-0.114-0.541,0.23-1.072,0.771-1.187C33.351,16.902,33.914,16.817,34.477,16.759z"/>
</g>
</svg>