<?xml version="1.0" encoding="iso-8859-1"?><!-- Generator: Adobe Illustrator 20.0.0, SVG Export Plug-In . SVG Version: 6.00 Build 0)  --><svg xmlns="http://www.w3.org/2000/svg" xmlns:xlink="http://www.w3.org/1999/xlink" viewBox="0 0 50 50" width="50px" height="50px"><path style="fill:none;stroke:#000000;stroke-width:2;stroke-linecap:round;stroke-linejoin:round;stroke-miterlimit:10;" d="M33.948,6.533c1.47,0.901,2.453,3.463,4.003,5.625c1.748,2.438,4.05,5.876,4.05,6.349c0,0.662-4.733,7.752-4.733,7.752s1.421,4.804-0.744,7.578"/><polyline style="fill:none;stroke:#000000;stroke-width:2;stroke-linecap:round;stroke-linejoin:round;stroke-miterlimit:10;" points="33.236,11.94 38.214,19.019 34.493,25.515 "/><polyline style="fill:none;stroke:#000000;stroke-width:2;stroke-linecap:round;stroke-linejoin:round;stroke-miterlimit:10;" points="30.011,4.494 27,3 27,2 "/><path style="fill:none;stroke:#000000;stroke-width:2;stroke-linecap:round;stroke-linejoin:round;stroke-miterlimit:10;" d="M13.477,33.837c-2.165-2.774-0.744-7.578-0.744-7.578S8,19.169,8,18.507c0-0.473,2.301-3.91,4.05-6.349c1.55-2.161,2.532-4.724,4.003-5.625"/><polyline style="fill:none;stroke:#000000;stroke-width:2;stroke-linecap:round;stroke-linejoin:round;stroke-miterlimit:10;" points="16.764,11.94 11.786,19.019 15.507,25.515 "/><polyline style="fill:none;stroke:#000000;stroke-width:2;stroke-linecap:round;stroke-linejoin:round;stroke-miterlimit:10;" points="19.989,4.494 23,3 23,2 "/><g><path d="M32.447,21.308c-1.398,0.495-4.393,1.41-7.447,1.41c-3.053,0-6.046-0.914-7.445-1.409C13.822,26.774,12,34.864,12,46c0,0.459,0.312,0.859,0.759,0.971C12.928,47.013,16.987,48,25,48c8.021,0,12.073-0.987,12.242-1.029C37.688,46.859,38,46.459,38,46C38,34.703,36.227,26.815,32.447,21.308z"/><path d="M16.938,15.141c0.414,1.52,0.726,2.969,0.902,4.141c0.99,0.371,4.099,1.436,7.161,1.436c3.062,0,6.171-1.065,7.161-1.436c0.176-1.172,0.487-2.621,0.902-4.141c0.167-0.612,0.378-1.245,0.598-1.903c0.697-2.092,1.486-4.462,1.339-7.29c-0.02-0.359-0.229-0.681-0.552-0.842l-4-2c-0.312-0.155-0.68-0.139-0.976,0.046C29.177,3.335,28.998,3.658,29,4.006c0.03,4.956-1.056,5.695-2.206,6.479c-0.579,0.394-1.24,0.844-1.794,1.68c-0.554-0.836-1.215-1.286-1.794-1.68C22.056,9.701,20.97,8.962,21,4.006c0.002-0.348-0.177-0.671-0.472-0.854c-0.295-0.185-0.665-0.201-0.976-0.046l-4,2c-0.322,0.161-0.532,0.482-0.552,0.842c-0.147,2.828,0.642,5.198,1.339,7.29C16.56,13.896,16.771,14.528,16.938,15.141z"/></g></svg>