<?xml version="1.0" encoding="utf-8"?><!-- Generator: Adobe Illustrator 15.0.0, SVG Export Plug-In . SVG Version: 6.00 Build 0)  --><!DOCTYPE svg PUBLIC "-//W3C//DTD SVG 1.1//EN" "http://www.w3.org/Graphics/SVG/1.1/DTD/svg11.dtd"><svg xmlns="http://www.w3.org/2000/svg" xmlns:xlink="http://www.w3.org/1999/xlink" viewBox="0 0 50 50" width="500px" height="500px"><g><path d="M20.389,25.121C20.919,25.049,21.456,25,22,25c0.368,0,0.731,0.022,1.091,0.055l2.854-15.772C24.655,9.1,23.339,9,22,9c-1.697,0-3.371,0.16-5.011,0.458L20.389,25.121z"/><path d="M45.537,21.863L32.377,31c0.439,0.758,0.808,1.563,1.074,2.413l15.665-3.391C48.36,27.09,47.138,24.344,45.537,21.863z"/><path d="M31.241,29.354l13.158-9.136c-1.814-2.415-4.013-4.525-6.499-6.247l-8.655,13.484C29.979,28.015,30.653,28.646,31.241,29.354z"/><path d="M27.914,9.635L25.059,25.41c0.876,0.231,1.716,0.553,2.502,0.966l8.656-13.485C33.679,11.388,30.884,10.276,27.914,9.635z"/><path d="M32,37c0-0.687-0.07-1.356-0.202-2.004c-0.026-0.061-0.061-0.117-0.075-0.185c-0.009-0.04,0.002-0.077-0.002-0.116c-0.897-3.784-3.943-6.744-7.778-7.503c-0.014,0.001-0.027,0.008-0.042,0.008c-0.059,0-0.119-0.005-0.179-0.016c-0.039-0.007-0.068-0.03-0.104-0.042C23.089,27.057,22.552,27,22,27c-3.057,0-5.798,1.322-7.719,3.725c-0.007,0.01-0.281,0.35-0.634,0.8l7.724,6.253C21.549,37.921,21.771,38,22,38h10V37z"/><path d="M49.54,31.978l-15.664,3.391C33.949,35.903,34,36.445,34,37v1h15c0.006,0,0.014,0,0.02,0c0.553,0,1-0.447,1-1c0-0.069-0.007-0.138-0.021-0.203C49.987,35.152,49.825,33.544,49.54,31.978z"/><path d="M12.722,29.472c0.493-0.616,1.046-1.164,1.635-1.662L5.266,14.563c-1.844,1.374-3.542,2.976-5.04,4.803c-0.169,0.206-0.249,0.471-0.221,0.735c0.027,0.265,0.159,0.508,0.365,0.676l11.721,9.488C12.434,29.83,12.696,29.504,12.722,29.472z"/><path d="M15.037,9.888c-2.88,0.74-5.62,1.931-8.126,3.536l9.077,13.227c0.773-0.456,1.594-0.821,2.451-1.09L15.037,9.888z"/></g></svg>