<?xml version="1.0" encoding="iso-8859-1"?><!-- Generator: Adobe Illustrator 22.1.0, SVG Export Plug-In . SVG Version: 6.00 Build 0)  --><svg xmlns="http://www.w3.org/2000/svg" xmlns:xlink="http://www.w3.org/1999/xlink" viewBox="0 0 50 50" width="500px" height="500px"><path d="M23.96,36H5c-2.48,0-4.99-1.37-4.99-4C0,26.68,4.83,26.08,8.35,25.64c1.24-0.15,2.42-0.3,3.36-0.59c1.92-0.6,3.62-1.25,5.11-1.91L23.96,36z"/><path d="M28.97,36h-2.71l-7.63-13.72c0.75-0.38,1.44-0.76,2.07-1.15L28.97,36z"/><path d="M33.97,36h-2.71l-8.89-15.98c0.71-0.5,1.34-1.01,1.88-1.51L33.97,36z"/><path d="M48.34,33.53C48.07,34.96,46.83,36,45.39,36h-9.13L25.72,17.03c2.02-2.35,2.28-4.11,2.29-4.15c0.05-0.39,0.31-0.71,0.67-0.83C31.84,11,31.84,11,32.01,11c0.28,0,0.54,0.12,0.73,0.32c0.04,0.04,0.12,0.14,0.23,0.3C36.28,16.07,39.16,17,41,17c1.07,0,1.77-0.91,2.01-1.29c0.05-0.45,0.36-0.56,2.18-1.16C46.84,14,46.84,14,47.01,14c0.45,0,0.85,0.31,0.96,0.75C48.92,18.4,49.52,27.31,48.34,33.53z"/><line style="fill:none;stroke:#000000;stroke-width:3;stroke-linecap:round;stroke-linejoin:round;stroke-miterlimit:10;" x1="5.5" y1="37.5" x2="5.5" y2="35.5"/><line style="fill:none;stroke:#000000;stroke-width:3;stroke-linecap:round;stroke-linejoin:round;stroke-miterlimit:10;" x1="10.5" y1="37.5" x2="10.5" y2="35.5"/><line style="fill:none;stroke:#000000;stroke-width:3;stroke-linecap:round;stroke-linejoin:round;stroke-miterlimit:10;" x1="15.5" y1="37.5" x2="15.5" y2="35.5"/><line style="fill:none;stroke:#000000;stroke-width:3;stroke-linecap:round;stroke-linejoin:round;stroke-miterlimit:10;" x1="20.5" y1="37.5" x2="20.5" y2="35.5"/><line style="fill:none;stroke:#000000;stroke-width:3;stroke-linecap:round;stroke-linejoin:round;stroke-miterlimit:10;" x1="44.5" y1="37.5" x2="44.5" y2="35.5"/><line style="fill:none;stroke:#000000;stroke-width:3;stroke-linecap:round;stroke-linejoin:round;stroke-miterlimit:10;" x1="39.5" y1="37.5" x2="39.5" y2="35.5"/></svg>