<?xml version="1.0" encoding="utf-8"?><!-- Generator: Adobe Illustrator 20.1.0, SVG Export Plug-In . SVG Version: 6.00 Build 0)  --><svg xmlns="http://www.w3.org/2000/svg" xmlns:xlink="http://www.w3.org/1999/xlink" viewBox="0 0 50 50" width="500px" height="500px"><path d="M21.2,23.5c-1.5-2.4-5.1-3.5-10.7-3.5C2,20,2,24.6,2,29c0,5,3.8,9,8.6,9c4.9,0,8.7-4.2,10.5-8C22.2,27.5,22.3,25.2,21.2,23.5z"/><path d="M39.4,20c-5.6,0-9.2,1.2-10.7,3.5c-1.1,1.7-1,3.9,0.2,6.4c1.8,3.9,5.6,8,10.5,8c4.7,0,8.6-4,8.6-9C48,24.6,48,20,39.4,20z"/><path fill="none" d="M45.1,21.1l2.5,3.8l-0.8,0.6c-0.5-1.7-1.7-3-4-3.7l-1.1-1.6c-0.7-0.1-1.5-0.2-2.4-0.2c-5.6,0-9.2,1.2-10.7,3.5c-1.1,1.7-1,3.9,0.2,6.4c1.8,3.9,5.6,8,10.5,8c4.7,0,8.6-4,8.6-9C48,25.9,48,22.8,45.1,21.1z"/><path fill="none" d="M10.6,20c-0.9,0-1.7,0.1-2.4,0.2l-1,1.4c-2.3,0.8-3.4,2.2-3.9,4l-0.9-0.7l2.5-3.8C2,22.8,2,25.9,2,29c0,5,3.8,9,8.6,9c4.9,0,8.7-4.2,10.5-8c1.2-2.5,1.2-4.7,0.2-6.4C19.7,21.2,16.2,20,10.6,20z"/><path d="M15.1,9.9c0.2-0.2,0.8-0.8,1.7-0.7c0.9,0.1,1.9,1.1,2.9,2.7l0.5,0.9l1.8-1.1l-0.5-0.9C20.1,8.5,18.6,7.2,17,7c-2-0.2-3.4,1.4-3.5,1.4l-6.7,9.9c0.8-0.2,1.7-0.3,2.8-0.3L15.1,9.9z"/><path d="M36.6,8.5l-0.1-0.1C36.4,8.4,35.1,6.8,33,7c-1.7,0.2-3.2,1.5-4.5,3.8L28,11.8l1.8,1.1l0.5-0.9c0.9-1.7,1.9-2.6,2.9-2.7c0.9-0.1,1.5,0.5,1.7,0.7l5.5,8.1c1,0,2,0.2,2.8,0.3L36.6,8.5z"/><rect x="11" y="20" width="28" height="2"/><rect x="20.7" y="26" width="8.3" height="2"/></svg>