<?xml version="1.0" encoding="utf-8"?><!-- Generator: Adobe Illustrator 18.1.1, SVG Export Plug-In . SVG Version: 6.00 Build 0)  --><svg xmlns="http://www.w3.org/2000/svg" xmlns:xlink="http://www.w3.org/1999/xlink" viewBox="0 0 50 50" width="50px" height="50px"><path d="M45.9,18.9c-0.4-1.1-0.7-1.9-0.8-2.4c-1.9-5.6-6.5-7.9-6.7-8c0,0,0,0-0.1,0c0,0,0,0-0.1,0c-0.1-0.1-3.2-1.1-4.8-1.6C33.6,4.9,34,2.2,34,2.2c0.1-0.4-0.1-0.8-0.5-1c-0.3-0.2-0.8-0.2-1.1,0l-4.3,3c-0.2,0.1-0.3,0.3-0.4,0.5c-0.1,0.2-1.4,4-2.8,10.3c-1.4-6.4-2.7-10.3-2.7-10.3c-0.1-0.2-0.2-0.4-0.5-0.6l-5.3-3c-0.4-0.2-0.9-0.2-1.2,0.1C15,1.6,14.9,2,15.1,2.4c0,0,1.1,2.4,1.4,4.4c-1.8,0.6-4.8,1.6-4.8,1.6c0,0,0,0-0.1,0c0,0,0,0-0.1,0c-0.2,0.1-4.8,2.4-6.7,8c-0.2,0.5-0.5,1.3-0.8,2.4C2,24.7,0,30.6,0,32.1V48c0,0.6,0.4,1,1,1h7c0.6,0,1-0.4,1-1l0-15c0-0.5,0.9-2.5,2-4.8V44c0,0.6,0.4,1,1,1h26c0.6,0,1-0.4,1-1V28.3c1.1,2.3,2,4.3,2,4.7v15c0,0.6,0.4,1,1,1h7c0.6,0,1-0.4,1-1V32.1C50,30.6,48,24.7,45.9,18.9z"/><path fill="none" stroke="#000000" stroke-width="2" stroke-linecap="round" stroke-linejoin="round" stroke-miterlimit="10" d="M16,2c0,0,5.1-1,9-1s8,1,8,1"/></svg>