<?xml version="1.0" encoding="utf-8"?><!-- Generator: Adobe Illustrator 19.1.1, SVG Export Plug-In . SVG Version: 6.00 Build 0)  --><svg xmlns="http://www.w3.org/2000/svg" xmlns:xlink="http://www.w3.org/1999/xlink" viewBox="0 0 50 50" width="500px" height="500px"><path d="M31.6,7.1l1.9-2.2L28.3,1h-6.7l-5.1,3.8l1.9,2.2C10,9.9,4,17.9,4,27c0,11.6,9.4,21,21,21c11.6,0,21-9.4,21-21C46,17.8,40.2,9.9,31.6,7.1z M22.3,3h5.3l2.7,2H25v2h4l-2.5,3h-3.1L21,7h2V5h-3.3L22.3,3z M25,12c8.3,0,15,6.7,15,15c0,8.3-6.7,15-15,15c-8.3,0-15-6.7-15-15C10,18.7,16.7,12,25,12z"/></svg>