<?xml version="1.0" encoding="iso-8859-1"?><!-- Generator: Adobe Illustrator 19.2.1, SVG Export Plug-In . SVG Version: 6.00 Build 0)  --><svg xmlns="http://www.w3.org/2000/svg" xmlns:xlink="http://www.w3.org/1999/xlink" viewBox="0 0 50 50" width="50px" height="50px"><path d="M27,2c-1.654,0-3,1.346-3,3s1.346,3,3,3s3-1.346,3-3S28.654,2,27,2z"/><path style="fill:none;stroke:#000000;stroke-width:2;stroke-linecap:round;stroke-linejoin:round;stroke-miterlimit:10;" d="M9,22l-1.03-6.178C7.462,12.774,9.813,10,12.902,10h24.195c3.09,0,5.44,2.774,4.932,5.822L41,22"/><path style="fill:none;stroke:#000000;stroke-width:2;stroke-linecap:round;stroke-linejoin:round;stroke-miterlimit:10;" d="M13,22l-0.859-6.876C12.066,14.527,12.531,14,13.133,14h23.734c0.601,0,1.067,0.527,0.992,1.124L37,22"/><path style="fill:none;stroke:#000000;stroke-width:2;stroke-linecap:round;stroke-linejoin:round;stroke-miterlimit:10;" d="M37,22l0.859,6.876C37.934,29.473,37.469,30,36.867,30H14.266c-1.203,0-2.134-1.054-1.985-2.248L13,22"/><path style="fill:none;stroke:#000000;stroke-width:2;stroke-miterlimit:10;" d="M27,7c0,1.971,3,3,3,3"/><path d="M44.812,22.88c-0.579-0.806-2.274-4.095-1.973-5.846c0.05-0.291-0.03-0.589-0.221-0.814c-0.153-0.182-0.37-0.28-0.602-0.319c-0.019,0.114-0.571,3.429-0.854,5.123c-0.106-0.017-0.215-0.029-0.327-0.009c-0.545,0.091-0.913,0.605-0.822,1.15l1.029,6.179c0.194,1.161-0.132,2.344-0.893,3.242C39.389,32.484,38.276,33,37.098,33H22.353c0.574,0.788,1.127,1.834,1.423,3.114C25.053,36.459,26,37.616,26,39c0,1.654-1.346,3-3,3s-3-1.346-3-3c0-1.209,0.722-2.246,1.754-2.721c-0.489-1.747-1.603-2.862-2.094-3.279h-6.758c-1.179,0-2.291-0.516-3.053-1.415c-0.761-0.898-1.087-2.081-0.893-3.243l1.029-6.178c0.091-0.545-0.277-1.06-0.822-1.15c-0.112-0.02-0.221-0.008-0.327,0.009L7.983,15.9c-0.231,0.04-0.449,0.138-0.603,0.32c-0.19,0.227-0.271,0.525-0.22,0.816c0.306,1.744-1.392,5.035-1.974,5.843C3.132,25.74,2,29.689,2,34c0,4.807,8.957,14,23,14s23-9.193,23-14C48,29.689,46.868,25.74,44.812,22.88z"/></svg>