<?xml version="1.0" encoding="iso-8859-1"?><!-- Generator: Adobe Illustrator 19.1.1, SVG Export Plug-In . SVG Version: 6.00 Build 0)  --><svg xmlns="http://www.w3.org/2000/svg" xmlns:xlink="http://www.w3.org/1999/xlink" viewBox="0 0 50 50" width="500px" height="500px"><path fill="none" stroke="#000000" stroke-width="2" stroke-miterlimit="10" d="M39.457,22h0.378C40.478,22,41,21.478,41,20.835v-3.67C41,16.522,40.478,16,39.835,16h-0.366c0,0-1.038,0.325-1.038,2.996S39.457,22,39.457,22z"/><path fill="none" stroke="#000000" stroke-width="2" stroke-miterlimit="10" d="M36.73,9.81c-0.848-0.997-2.886-1.342-3.497-4.594c-0.304-1.62-0.419-1.383-0.545-2.359C32.508,1.467,30.14,1,25.069,1S17.5,1.414,17.312,2.857c-0.115,0.884-0.246,0.556-0.545,2.359c-0.542,3.264-2.65,3.598-3.497,4.594"/><path fill="none" stroke="#000000" stroke-width="2" stroke-miterlimit="10" d="M13.27,40.19c0.848,0.997,2.886,1.342,3.497,4.594c0.304,1.62,0.419,1.383,0.545,2.359C17.492,48.533,19.86,49,24.931,49s7.569-0.414,7.757-1.857c0.115-0.884,0.246-0.556,0.545-2.359c0.542-3.264,2.65-3.598,3.497-4.594"/><path d="M39,34h1c0.552,0,1-0.448,1-1v-6c0-0.552-0.448-1-1-1h-1V34z"/><path d="M39,17.353c0.553,0,1-0.448,1-1V14c0-3.309-2.691-6-6-6H16c-3.309,0-6,2.691-6,6v22c0,3.309,2.691,6,6,6h18c3.309,0,6-2.691,6-6V21.678c0-0.552-0.447-1-1-1S38.447,17.353,39,17.353z M21.5,16c0.828,0,1.5,0.672,1.5,1.5S22.328,19,21.5,19S20,18.328,20,17.5S20.672,16,21.5,16z M16.5,17c0.828,0,1.5,0.672,1.5,1.5S17.328,20,16.5,20S15,19.328,15,18.5S15.672,17,16.5,17z M17,27c-1.105,0-2-0.895-2-2c0-1.105,0.895-2,2-2s2,0.895,2,2C19,26.105,18.105,27,17,27z M21,35c-1.105,0-2-0.895-2-2c0-1.105,0.895-2,2-2s2,0.895,2,2C23,34.105,22.105,35,21,35z M22,25c0-1.657,1.343-3,3-3s3,1.343,3,3s-1.343,3-3,3S22,26.657,22,25z M28.5,34c-0.828,0-1.5-0.672-1.5-1.5s0.672-1.5,1.5-1.5s1.5,0.672,1.5,1.5S29.328,34,28.5,34z M29,19c-1.105,0-2-0.895-2-2c0-1.105,0.895-2,2-2s2,0.895,2,2C31,18.105,30.105,19,29,19z M33.5,32c-0.828,0-1.5-0.672-1.5-1.5s0.672-1.5,1.5-1.5s1.5,0.672,1.5,1.5S34.328,32,33.5,32z M33,27c-1.105,0-2-0.895-2-2c0-1.105,0.895-2,2-2s2,0.895,2,2C35,26.105,34.105,27,33,27z"/></svg>