<?xml version="1.0" encoding="iso-8859-1"?><!-- Generator: Adobe Illustrator 21.1.0, SVG Export Plug-In . SVG Version: 6.00 Build 0)  --><svg xmlns="http://www.w3.org/2000/svg" xmlns:xlink="http://www.w3.org/1999/xlink" viewBox="0 0 50 50" width="50px" height="50px"><path d="M34.184,23.228C33.471,22.222,33,21.557,33,20.5c0-1.043,0.661-2.126,1.362-3.273C35.167,15.909,36,14.546,36,12.97c0-1.962-1.825-3.304-2.887-3.917l1.023-5.728l-4.882-1.627l-0.233,1.094c-0.599,2.814-3.036,4.496-4.023,5.074c-0.988-0.574-3.417-2.243-4.02-5.074l-0.233-1.094l-4.882,1.627l1.023,5.728C15.825,9.667,14,11.008,14,12.97c0,1.576,0.833,2.938,1.638,4.257C16.339,18.374,17,19.457,17,20.5c0,1.057-0.471,1.722-1.184,2.728C14.628,24.907,13,27.207,13,32.6c0,5.44,1.947,13.31,2.029,13.642l0.143,0.569l0.566,0.154c0.153,0.042,3.811,1.015,9.262,1.015s9.108-0.973,9.262-1.015l0.566-0.154l0.143-0.569C35.053,45.91,37,38.04,37,32.6C37,27.207,35.372,24.907,34.184,23.228z"/></svg>