<?xml version="1.0" encoding="iso-8859-1"?><!-- Generator: Adobe Illustrator 21.0.2, SVG Export Plug-In . SVG Version: 6.00 Build 0)  --><svg xmlns="http://www.w3.org/2000/svg" xmlns:xlink="http://www.w3.org/1999/xlink" viewBox="0 0 50 50" width="500px" height="500px"><path d="M39.748,13.335C34.969,7.96,28.982,5,22.89,5C11.605,5,6.251,19.417,5.004,32.908c-0.041,0.436,0.207,0.847,0.611,1.015l0.24,0.1c0.064,0.027,0.13,0.047,0.198,0.06c0.399,0.076,0.868,0.19,1.422,0.324C9.935,35.003,14.05,36,20.99,36c7.123,0,11.488-1.063,13.833-1.635c0.579-0.141,1.045-0.256,1.417-0.32c0.156-0.027,0.304-0.09,0.431-0.186l0.08-0.06c0.383-0.287,0.508-0.805,0.3-1.235c-4.701-9.712-4.325-12.875-3.683-13.897C33.548,18.381,33.902,18,34.898,18c0.591,0.002,1.421,0.154,2.154,0.321C37.187,18.716,37.56,19,38,19h0.1c0.303,0,0.589-0.137,0.779-0.373c0.19-0.235,0.263-0.544,0.198-0.84C39.026,17.552,39,17.288,39,17c0-0.88,0.275-1.708,0.796-2.396C40.085,14.224,40.064,13.692,39.748,13.335z"/><path style="fill:none;stroke:#000000;stroke-width:2;stroke-linecap:round;stroke-linejoin:round;stroke-miterlimit:10;" d="M36.627,33c-1.546,0-5.871,2-15.638,2S7.194,33,5.351,33c-1.087,0-1.927,0.795-2.205,1.808c-0.287,1.049-0.913,4.75-1.089,5.987C1.882,42.031,2.401,42.719,3.408,43s7.814,2,17.58,2s16.604-1.75,17.58-2c0.976-0.25,1.679-1.007,1.351-2.206c-0.315-1.155-0.802-4.938-1.089-5.987C38.554,33.795,38.172,33,36.627,33z"/><circle style="fill:none;stroke:#000000;stroke-width:2;stroke-linecap:round;stroke-linejoin:round;stroke-miterlimit:10;" cx="43" cy="17" r="5"/></svg>