<?xml version="1.0" encoding="utf-8"?><!-- Generator: Adobe Illustrator 18.1.1, SVG Export Plug-In . SVG Version: 6.00 Build 0)  --><svg xmlns="http://www.w3.org/2000/svg" xmlns:xlink="http://www.w3.org/1999/xlink" viewBox="0 0 50 50" width="50px" height="50px"><path fill="none" stroke="#000000" stroke-width="2" stroke-linecap="round" stroke-linejoin="round" stroke-miterlimit="10" d="M19,3c0,0,2.1-1,6-1s6,1,6,1"/><path d="M38.7,3.3C38.7,3.3,38.6,3.3,38.7,3.3c-0.1-0.1-0.2-0.1-0.2-0.2c-0.1,0-0.1-0.1-0.2-0.1c0,0-0.1,0-0.1,0l-7-1c-0.4-0.1-0.8,0.2-1,0.5c0,0-1.8,3.5-5.1,3.5s-5.1-3.4-5.1-3.4c-0.2-0.4-0.6-0.6-1-0.5l-7,1c0,0-0.1,0-0.1,0c-0.1,0-0.1,0-0.2,0.1c-0.1,0-0.1,0.1-0.2,0.1c0,0-0.1,0-0.1,0.1C10.8,3.8,0,15,0,26v14c0,0.6,0.4,1,1,1h7c0.6,0,1-0.4,1-1l0-14c0-0.5,0.9-2.5,2-4.8V47c0,0.6,0.4,1,1,1h26c0.6,0,1-0.4,1-1V21.2c1.1,2.3,2,4.3,2,4.8v14c0,0.6,0.4,1,1,1h7c0.6,0,1-0.4,1-1V26C50,15,39.2,3.8,38.7,3.3z"/></svg>